<svg xmlns="http://www.w3.org/2000/svg" width="550" height="550" fill="none" viewBox="0 0 550 550">
    <path fill="#fff" fill-rule="evenodd" d="m326.87 504.341.691.881.613.784.015.015 6.302-3.638.146-.084.082-.048c3.366-1.944 6.696-3.867 10.029-5.785q5.687-3.272 11.377-6.537l.011-.007.006-.003.006-.004.006-.003.006-.003q7.87-4.517 15.735-9.047c7.937-4.574 15.87-9.155 23.769-13.797.553-.325 1.113-1.195 1.113-1.815l.011-6.378v-.004c.024-11.961.048-23.925-.174-35.886-.076-4.063.598-6.675 4.677-8.777 5.899-3.039 11.625-6.41 17.353-9.782l.003-.002c2.97-1.749 5.94-3.497 8.935-5.2 1.03-.586 1.344-1.168 1.344-2.287q-.043-16.437-.074-32.876-.031-16.44-.074-32.877c-.004-.582-.216-1.262-.56-1.723a606 606 0 0 0-5.168-6.732l-.001-.001v-.001h-.001q-1.181-1.523-2.358-3.049c-1.087-1.409-2.163-2.824-3.301-4.32l-.008-.012-1.22-1.603.578-.341.414-.245.515-.305.006-.004c1.002-.594 1.931-1.145 2.868-1.683l4.562-2.616.052-.03a2427 2427 0 0 0 15.58-8.981c.398-.231.69-.986.69-1.497-.012-8.06-.033-16.119-.054-24.179-.039-15.308-.079-30.617-.056-45.925.004-1.98-.644-3.379-1.761-4.812a8493 8493 0 0 1-18.195-23.485q-6.978-9.032-13.95-18.071l-9.3-12.052a50013 50013 0 0 1-17.729-22.967l-5.482-7.105-.095-.123q-8.991-11.653-17.98-23.31-4.147-5.384-8.291-10.768l-.014-.018q-6.075-7.895-12.158-15.784a5057 5057 0 0 0-6.027-7.798l-.001-.002-.001-.001-.001-.002-.003-.003c-4.83-6.242-9.659-12.483-14.423-18.775-1.177-1.561-2.151-2.11-4.218-1.758-4.729.806-9.486 1.458-14.242 2.11h-.001c-2.382.326-4.763.652-7.14.997a5147 5147 0 0 0-14.772 2.175h-.003c-5.535.82-11.071 1.64-16.609 2.44-5.575.808-11.154 1.597-16.732 2.385h-.002l-.002.001c-5.579.789-11.159 1.578-16.735 2.385-3.744.541-7.487 1.103-11.23 1.665-7.346 1.103-14.693 2.207-22.058 3.15-3.511.45-6.578 1.547-9.577 3.293-8.867 5.169-17.759 10.292-26.651 15.416q-4.446 2.561-8.89 5.125l-2.206 1.272a17939 17939 0 0 1-29.606 17.053 2614 2614 0 0 1-8.303 4.744c-3.83 2.182-7.66 4.364-11.475 6.574-.424.245-.822.956-.822 1.451-.008 6.185.009 12.371.026 18.557.014 5.062.027 10.125.027 15.187 0 12.584-.038 25.164-.098 37.743-.004 1.104.431 1.293 1.367 1.131.974-.17 1.952-.316 2.931-.462v-.001h.001l.01-.001q.593-.088 1.185-.179 3.6-.55 7.199-1.105h.001l.037-.006h.003l.001-.001h.001c5.162-.794 10.325-1.589 15.493-2.354 4.988-.738 9.98-1.457 14.971-2.177h.002l.002-.001h.005l.01-.002c5.234-.754 10.468-1.509 15.698-2.284 5.614-.833 11.223-1.691 16.831-2.548h.002l.003-.001h.004l.001-.001h.002c4.492-.686 8.983-1.373 13.476-2.047 5.919-.888 11.841-1.764 17.762-2.641q8.096-1.197 16.19-2.405c2.366-.356 3.078.034 4.074 2.525q-.238.063-.472.132c-.341.099-.676.197-1.016.246-2.281.328-4.564.648-6.846.969-5.081.713-10.162 1.427-15.23 2.225-2.424.382-4.908.934-7.134 1.92-1.775.786-3.435 1.822-5.096 2.858v.001h-.001a80 80 0 0 1-2.583 1.568q-10.055 5.769-20.116 11.53l-.037.021q-10.072 5.768-20.141 11.544c-11.568 6.642-23.129 13.291-34.655 19.993-.553.321-.97 1.175-1.098 1.848-.121.647-.087 1.32-.052 1.994.016.319.033.638.033.955l-.008 8.989v.002c-.016 17.992-.032 35.983-.064 53.976 0 .96.367 1.228 1.265 1.092 3.76-.567 7.521-1.127 11.282-1.688q5.642-.838 11.282-1.687 7.794-1.176 15.583-2.361c7.954-1.208 15.907-2.416 23.863-3.6 5.335-.795 10.672-1.575 16.009-2.356h.004l.02-.003c11.034-1.613 22.067-3.227 33.08-4.963 2.999-.473 5.029-.038 6.479 2.657.306.573.703 1.095 1.157 1.693.226.298.467.614.717.964l-2.441.359-.009.001-.036.006-.038.005-.012.002c-2.793.41-5.364.788-7.934 1.158l-.387.056c-4.67.671-9.22 1.324-13.483 3.932-7.525 4.607-15.2 8.97-22.875 13.334h-.001v.001a2320 2320 0 0 0-8.425 4.805q-5.79 3.326-11.583 6.642a5974 5974 0 0 0-19.945 11.457c-.416.238-.791.953-.791 1.448-.016 7.993-.018 15.984-.02 23.976-.002 9.402-.005 18.804-.029 28.207-.004 1.391.488 1.561 1.639 1.379 3.981-.621 7.964-1.224 11.947-1.826l.006-.001.006-.001.005-.001.024-.003.05-.008a7518 7518 0 0 0 15.493-2.356l.026-.004c7.177-1.096 14.353-2.192 21.534-3.257 5.563-.827 11.128-1.64 16.693-2.453l.001-.001h.003c7.823-1.143 15.647-2.286 23.464-3.466 1.481-.223 2.386.144 3.268 1.289 3.717 4.828 7.468 9.631 11.22 14.436l2.757 3.53q4.733 6.065 9.469 12.127l.018.023.021.026.003.004.003.004.003.004c5.847 7.485 11.694 14.971 17.531 22.464 3.768 4.838 7.527 9.682 11.285 14.526 3.948 5.087 7.894 10.174 11.851 15.252 6.169 7.918 12.348 15.828 18.526 23.736l.031.04 6.352 8.131c1.192 1.529 2.387 3.055 3.577 4.576m20.966-155.309-.312.089v.004q-.983-1.244-1.97-2.484l-.002-.002c-1.17-1.473-2.34-2.945-3.496-4.428a12001 12001 0 0 1-9.448-12.147l-.012-.014-.011-.015-.031-.04q-3.997-5.143-7.996-10.282l-4.927-6.329-.016-.021a63808 63808 0 0 0-31.144-39.986 23460 23460 0 0 0-16.047-20.54l-.01-.013-.011-.014-.011-.013c-5.023-6.425-10.046-12.849-15.063-19.28q-5.703-7.311-11.401-14.625l-.026-.033-.026-.033-.01-.013a17072 17072 0 0 0-24.673-31.612c-.36-.461-1.219-.873-1.772-.794-6.113.872-12.221 1.798-18.329 2.725q-2.636.4-5.273.798-3.196.481-6.39.966c-5.795.876-11.589 1.752-17.387 2.606-4.79.707-9.58 1.399-14.37 2.092l-.012.002c-5.666.819-11.331 1.639-16.994 2.48-9.306 1.384-18.609 2.791-27.912 4.198q-6.974 1.056-13.95 2.107a33 33 0 0 1-.643.085c-.303.038-.608.076-.91.127-1.06.177-1.506-.265-1.45-1.327.026-.502.017-1.005.009-1.508q-.008-.377-.009-.752-.017-32.615-.03-65.228c0-2.544.01-2.546 2.31-2.872l.19-.027c9.386-1.343 18.772-2.703 28.157-4.062l.005-.001.018-.002.017-.003.033-.005.032-.004 13.83-2.002q15.78-2.28 31.566-4.554 6.126-.883 12.253-1.764c11.845-1.703 23.691-3.406 35.53-5.135 1.352-.197 2.208.079 3.09 1.236 5.592 7.316 11.23 14.599 16.867 21.88q3.191 4.123 6.38 8.247a36332 36332 0 0 1 26.12 33.834q5.97 7.751 11.935 15.509l.012.015.012.016c5.09 6.617 10.179 13.235 15.279 19.845a9142 9142 0 0 0 13.355 17.264q4.917 6.343 9.827 12.693l.843 1.092.005.005.009.012.003.004c7.854 10.171 15.71 20.344 23.503 30.563.636.839 1.038 2.086 1.041 3.145.086 19.925.116 39.852.146 59.778l.01 6.667c0 .421-.03.845-.059 1.267q-.02.276-.036.551zm-5.507 95.515-.5.148-.004-.008-2.115-2.7q-2.956-3.77-5.905-7.544l-8.721-11.171a37636 37636 0 0 1-24.098-30.889q-7.531-9.672-15.051-19.352l-.005-.006-.004-.005-.004-.006-.004-.005c-6.175-7.946-12.35-15.892-18.539-23.827-6.619-8.487-13.25-16.964-19.88-25.442l-.005-.006-.004-.006-.004-.005-.005-.006a39710 39710 0 0 1-13.886-17.762l-.002-.002v-.001l-.001-.001-.001-.001c-2.865-3.666-5.731-7.332-8.532-11.045-.678-.896-1.363-1.074-2.378-.919-6.312.968-12.632 1.909-18.952 2.843q-7.75 1.144-15.5 2.282c-8.334 1.225-16.669 2.45-25.002 3.694-7.814 1.166-15.625 2.348-23.437 3.531h-.003l-.004.001h-.004l-.004.001-.03.004q-7.895 1.197-15.794 2.386-2.482.372-4.967.73c-2.941.427-5.882.854-8.816 1.33-1.655.267-1.655-.627-1.655-1.78v-.015q.002-18.99-.01-37.98v-.018l-.005-9.487q0-2.107.006-4.213c.009-3.466.018-6.932-.044-10.396-.026-1.58.462-2.261 2.083-2.484 10.3-1.421 20.592-2.914 30.884-4.407a26654 26654 0 0 0 24.668-3.598l.027-.004.022-.003.058-.009c8.354-1.221 16.709-2.443 25.065-3.655 4.529-.657 9.058-1.304 13.588-1.95a4456 4456 0 0 0 18.156-2.617c1.488-.219 2.461.137 3.408 1.376 7.977 10.443 16.002 20.849 24.027 31.255l.003.004 1.791 2.322 2.253 2.923a92282 92282 0 0 0 31.853 41.274q11.295 14.625 22.599 29.245v.001l8.853 11.453 4.707 6.084.027.035.028.036.005.007.003.003.002.003.003.004c6.172 7.975 12.344 15.951 18.46 23.966.675.888 1.133 2.192 1.136 3.304.084 16.626.112 33.252.14 49.878l.02 11.346zm97.14-219.546v.001c.072.125.151.263.245.419l.008.003q-1.052.623-2.086 1.238l-.002.001-.001.001h-.001c-1.571.934-3.117 1.854-4.677 2.752q-10.328 5.949-20.661 11.887l-.005.004-.006.003-.042.024-.078.045-10.414 5.988-1.518.873-3.793 2.181-.021.012-.021.012q-9.462 5.439-18.92 10.886l-5.183 2.983c-7.113 4.094-14.228 8.189-21.308 12.337-1.519.888-2.378.907-3.548-.628-7.632-10.016-15.33-19.984-23.028-29.952l-.037-.048-5.123-6.635q-4.724-6.12-9.453-12.237-5.474-7.08-10.938-14.163-5.065-6.568-10.12-13.141l-.004-.006c-4.469-5.808-8.938-11.615-13.418-17.414-4.682-6.063-9.373-12.119-14.063-18.174l-.008-.011a15644 15644 0 0 1-13.257-17.132c-8.073-10.45-16.126-20.916-24.18-31.382l-.002-.003c-.158-.202-.278-.435-.429-.731-.081-.157-.17-.331-.279-.528l2.144-1.268a498 498 0 0 1 4.452-2.618l3.314-1.914.009-.005c10.241-5.915 20.483-11.83 30.738-17.725 5.924-3.406 11.854-6.8 17.784-10.195l.002-.002.007-.004a9978 9978 0 0 0 15.859-9.089c4.824-2.774 9.649-5.556 14.424-8.414 1.442-.862 2.298-.873 3.434.616 5.484 7.182 11.018 14.326 16.551 21.471 3.155 4.074 6.31 8.147 9.456 12.228 4.179 5.42 8.343 10.85 12.508 16.279l.002.003.001.002.002.003.002.003c4.468 5.824 8.935 11.649 13.42 17.462 5.653 7.33 11.323 14.649 16.992 21.968q7.032 9.072 14.051 18.156c5.525 7.156 11.038 14.32 16.551 21.484q5.294 6.88 10.592 13.757 3.718 4.822 7.442 9.638 3.128 4.048 6.254 8.098c.134.173.243.364.38.601m.684 1.975c-.273.125-.496.222-.686.304a8 8 0 0 0-.768.363q-2.489 1.437-4.974 2.879c-2.405 1.393-4.809 2.786-7.219 4.171q-6.248 3.594-12.501 7.182l-.009.005-.009.006-.044.025q-7.216 4.14-14.428 8.291-6.134 3.534-12.264 7.077l-.023.013a10782 10782 0 0 1-15.593 8.998c-6.827 3.939-13.655 7.879-20.521 11.756-1.318.744-1.712 1.614-1.708 3.043.066 16.607.111 33.215.155 49.821v.036l.049 18.134c0 .274.041.548.088.866q.041.265.079.581.308-.147.57-.268l.001-.001h.001c.372-.173.686-.319.984-.491q5.149-2.967 10.295-5.938l.078-.045q6.182-3.57 12.37-7.133 8.171-4.7 16.345-9.393c6.265-3.598 12.53-7.195 18.791-10.8q4.821-2.778 9.638-5.563c6.423-3.713 12.846-7.426 19.296-11.095 1.473-.839 2.132-1.724 2.125-3.508-.075-18.325-.091-36.648-.107-54.972v-.006l-.011-11.97zm-112.64 275.437c-.022.215-.05.481-.081.83l-1.523-1.94-.002-.002c-1.802-2.297-3.447-4.392-5.087-6.491l-3.448-4.417-.034-.044c-8.465-10.843-16.932-21.688-25.384-32.542q-9.205-11.824-18.405-23.655l-.052-.068q-7.151-9.197-14.305-18.39c-8.327-10.697-16.654-21.391-25.037-32.043-.356-.449-1.288-.744-1.89-.661-9.088 1.281-18.164 2.631-27.241 3.98q-13.724 2.046-27.444 4.098l-.066.01-.038.005-.038.006-.039.006-17.353 2.592q-4.028.603-8.055 1.202l-.13.019-8.185 1.221c-2.31.348-2.408.28-2.408-1.977l-.003-11.119c-.002-12.355-.004-24.709-.05-37.064-.004-1.622.507-2.212 2.105-2.439 19.562-2.763 39.117-5.571 58.667-8.395a3423 3423 0 0 0 30.343-4.498c1.295-.2 2.082.178 2.813 1.13a18252 18252 0 0 0 21.834 28.377q5.597 7.253 11.203 14.497l.008.01q5.24 6.77 10.468 13.544c5.016 6.499 10.025 13.003 15.035 19.507l.033.043.032.042.033.042q6.112 7.938 12.229 15.872 3.092 4.008 6.188 8.015a5094 5094 0 0 1 14.389 18.686c.488.639.841 1.562.844 2.355.071 13.85.095 27.697.12 41.544l.013 7.336c0 .211-.022.423-.059.776m17.231-56.8c-.243.116-.518.248-.84.408h-.004l-.022-.349-.015-.215-.022-.301v-.001a17 17 0 0 1-.066-1.296q-.027-8.123-.051-16.246c-.047-15.162-.093-30.322-.169-45.485-.007-1.554.417-2.491 1.863-3.311 8.562-4.87 17.09-9.8 25.619-14.73l.04-.023q4.128-2.387 8.259-4.771 6.323-3.649 12.645-7.3l.334-.194.098-.056q10.102-5.838 20.211-11.664c3.502-2.018 7.015-4.014 10.529-6.01l.02-.011 2.901-1.648c.224-.129.463-.236.775-.375.163-.073.347-.154.558-.253q.05.365.106.687c.072.44.137.834.137 1.23q.03 9.1.058 18.201c.046 14.742.091 29.484.169 44.225.007 1.339-.564 2.042-1.575 2.62q-6.279 3.598-12.561 7.194c-9.192 5.263-18.386 10.526-27.567 15.811-8.507 4.897-17.003 9.812-25.499 14.727l-.009.005-.027.016q-7.404 4.284-14.812 8.563c-.318.184-.649.344-1.083.552m-117.752-217.6a44 44 0 0 0-.44-.675l.004-.007q1.118-.666 2.208-1.319l.001-.001.002-.001.004-.002a339 339 0 0 1 4.715-2.79 195 195 0 0 1 3.064-1.722l.001-.001.002-.001h.001l.001-.001c1.764-.978 3.528-1.955 5.235-3.023 1.185-.741 1.753-.544 2.544.484 3.486 4.515 6.999 9.01 10.512 13.504l.003.004.003.004q2.806 3.587 5.606 7.18 4.49 5.765 8.977 11.536 5.216 6.71 10.441 13.416 6.969 8.935 13.942 17.864l.001.002.002.002.001.002.002.002q5.961 7.634 11.919 15.271 8.866 11.369 17.723 22.741l.307.394 8.033 10.31 3.946 5.06.001.001c4.025 5.159 8.051 10.319 12.041 15.51.677.884 1.094 1.02 2.09.442 11.978-6.938 23.973-13.842 35.97-20.748l.06-.034.017-.01 9.17-5.279q2.38-1.37 4.766-2.74c4.695-2.696 9.39-5.393 14.049-8.146 1.148-.677 1.678-.438 2.401.51a788 788 0 0 0 10.103 13.049c1.008 1.271.228 1.702-.6 2.159l-.248.139q-5.315 3.061-10.629 6.116-5.316 3.056-10.63 6.116l-19.324 11.145q-9.622 5.552-19.247 11.1a5600 5600 0 0 1-6.737 3.88c-4.738 2.725-9.475 5.45-14.199 8.201-1.219.711-1.977.673-2.901-.536a6063 6063 0 0 0-17.647-22.933q-3.479-4.505-6.955-9.012-8.173-10.605-16.343-21.214l-.034-.045-.034-.044a23276 23276 0 0 0-37.395-48.472l-.004-.006-.022-.028a68273 68273 0 0 1-35.756-46.294c-.248-.321-.468-.664-.722-1.059m167.484 190.588 1.12-.601h.003a73 73 0 0 0 .042.771l.011.196v.002c.03.503.053.898.053 1.296q.008 4.956.014 9.914l.001.351v.01c.014 11.122.029 22.245.072 33.368.004 1.373-.401 2.159-1.658 2.877a7566 7566 0 0 0-29.013 16.698q-5.537 3.198-11.077 6.394-11.673 6.732-23.359 13.442c-.254.145-.53.248-.883.38v.001c-.191.071-.403.151-.647.25-.029-.267-.062-.511-.093-.741-.059-.442-.112-.831-.112-1.221l-.038-15.302v-.035c-.027-11.06-.053-22.12-.102-33.179-.004-1.323.432-2.128 1.613-2.763 2.761-1.482 5.514-2.99 8.142-4.684 1.423-.915 2.381-.778 3.086.635.765 1.531 1.499 1.539 2.961.669 5.169-3.071 10.385-6.06 15.602-9.048l.002-.001.017-.01.017-.009q2.952-1.69 5.9-3.387 6.696-3.856 13.389-7.713l13.429-7.736c.467-.27.944-.523 1.508-.824m-281.8-175.899c-.226-.005-.499-.012-.849-.012h-.004c.755-.445 1.464-.865 2.142-1.267 1.441-.853 2.742-1.625 4.053-2.38a72834 72834 0 0 1 38.275-22.045c3.139-1.806 6.272-3.623 9.406-5.439 8.755-5.075 17.51-10.15 26.386-15.007 2.02-1.105 4.502-1.423 6.942-1.736h.001a74 74 0 0 0 2.122-.294c3.129-.5 6.267-.948 9.404-1.396 3.245-.463 6.49-.926 9.726-1.447 1.841-.298 2.969.167 4.109 1.66 4.033 5.291 8.126 10.533 12.22 15.775l.003.004.008.01.008.01q2.401 3.074 4.797 6.151c.185.238.348.493.546.803q.145.227.325.501l-2.978 1.74-.002.002-.001.001-.039.022c-1.828 1.069-3.63 2.123-5.436 3.172-.484.281-.981.543-1.478.806h-.001v.001c-.995.525-1.989 1.05-2.875 1.718-3.464 2.612-7.494 3.071-11.509 3.529-1.208.137-2.415.274-3.604.47-6.243 1.031-12.515 1.905-18.785 2.779h-.002q-3.189.444-6.375.895c-4.179.595-8.358 1.182-12.538 1.769l-.016.002-.016.003a4250 4250 0 0 0-19.852 2.819 4746 4746 0 0 0-21.193 3.138h-.005q-5.852.877-11.708 1.746c-3.446.51-6.895.998-10.345 1.478-.238.033-.48.028-.861.019m123.161 87.675-.116-.179-.128-.197-.102-.155h-.004q1.144-.656 2.265-1.303c2.541-1.465 5.014-2.891 7.538-4.22.334-.174 1.345.484 1.75.987 1.579 1.956 3.116 3.946 4.653 5.936l.004.005a759 759 0 0 0 2.189 2.825q4.151 5.319 8.307 10.635l.005.006.005.006.005.007.008.011a11760 11760 0 0 1 24.704 31.699l.002.002.002.003.002.003.018.023q4.878 6.276 9.762 12.551 18.677 23.988 37.359 47.972c1.068 1.371 2.143 2.736 3.262 4.159l.013.016.008.01.792 1.008.665.845.69.879-1.86 1.089-.011.006v.001a626 626 0 0 1-4.089 2.382c-.463.267-.934.521-1.405.776l-.001.001c-.857.463-1.712.927-2.521 1.461-1.06.703-1.674.291-2.317-.545l-4.957-6.454-.139-.182-.016-.021-.007-.009-.007-.008-.006-.009c-7.249-9.44-14.499-18.882-21.769-28.304-4.711-6.107-9.436-12.204-14.161-18.301l-.013-.017-.013-.017-.002-.001-.001-.002c-4.311-5.563-8.622-11.125-12.922-16.695-5.237-6.782-10.461-13.574-15.686-20.367a18581 18581 0 0 0-10.181-13.23 4790 4790 0 0 0-6.215-8.047l-.008-.009q-2.36-3.052-4.717-6.104c-.209-.27-.395-.558-.624-.913zm8.891-7.833c.027.084.062.194.116.343l-.004.004c-.81.467-1.624.918-2.436 1.367-1.835 1.015-3.656 2.022-5.365 3.191-2.447 1.675-5.189 2.023-7.936 2.371l-.003.001c-.563.071-1.126.142-1.686.225a7112 7112 0 0 1-34.637 5.024c-5.194.743-10.39 1.474-15.585 2.205l-.004.001h-.003l-.003.001h-.003c-5.607.789-11.213 1.578-16.816 2.382-3.015.434-6.024.906-9.034 1.377l-.006.001-.009.001q-2.271.358-4.545.707c-.504.08-1.015.121-1.715-.211l1.595-.946a345 345 0 0 1 3.615-2.127q20.637-11.901 41.278-23.796c1.484-.855 2.961-1.722 4.439-2.589l.001-.001.001-.001h.001c3.821-2.242 7.642-4.484 11.565-6.533 1.638-.857 3.604-1.155 5.516-1.446q.512-.076 1.016-.157a301 301 0 0 1 13.113-1.815c.727-.087 1.829.212 2.245.737 4.177 5.25 8.291 10.55 12.406 15.852l2.775 3.574c.042.054.064.122.108.258M99.563 131.168v-.002l-.096-.215.004.004 1.471-.868.007-.004.002-.001c1.286-.759 2.572-1.519 3.866-2.265l6.994-4.031.01-.006c9.673-5.576 19.347-11.153 29.027-16.723q14.023-8.064 28.051-16.12l.063-.036.063-.036 7.728-4.439 3.04-1.753a788 788 0 0 1 6.922-3.966 5.2 5.2 0 0 1 1.788-.612q9.278-1.338 18.559-2.662h.003c7.271-1.04 14.543-2.08 21.811-3.133 12.169-1.765 24.335-3.546 36.501-5.326h.003q10.897-1.597 21.796-3.187 9.894-1.438 19.789-2.862l.912-.131c.508-.076 1.027-.106 1.708.177q-1.084.636-2.166 1.277c-1.274.752-2.547 1.504-3.828 2.242a30552 30552 0 0 1-60.295 34.716l-3.189 1.833a2959 2959 0 0 1-17.498 10.006c-.833.472-1.829.767-2.783.907-4.474.66-8.951 1.295-13.428 1.931h-.003c-3.343.474-6.685.949-10.027 1.433-5.954.864-11.905 1.737-17.856 2.61h-.005c-7.723 1.133-15.445 2.266-23.172 3.378-7.32 1.055-14.642 2.091-21.965 3.128l-.008.001-.002.001c-6.476.917-12.953 1.834-19.428 2.763-3.325.477-6.644.997-9.962 1.517h-.001q-2.154.338-4.309.672l-.096-.216zm236.768 170.785-.001-3.548v-.011h-.14q0-2.284-.007-4.567v-.001c-.01-4.1-.019-8.201.041-12.303.023-1.557-.427-2.808-1.359-3.984a662 662 0 0 1-5.57-7.11q-10.057-13.036-20.107-26.076a64161 64161 0 0 0-32.854-42.595l-9.392-12.165-.027-.034-.027-.035-.027-.036-.006-.008-.007-.008-.006-.008-.006-.008Q255.919 175.316 245 161.18l-5.086-6.584-.093-.12-.044-.057-.075-.097-.005-.006-.002-.003-.002-.002-.001-.003a9822 9822 0 0 1-16.776-21.751c-.557-.725-1.022-.998-1.999-.85-10.395 1.58-20.797 3.096-31.199 4.608a31561 31561 0 0 1-45.523 6.592l-1.367.197h-.002v.001h-.001c-11.097 1.601-22.193 3.202-33.301 4.72-1.499.204-1.904.733-1.889 2.177.054 5.48.05 10.958.047 16.437a6135 6135 0 0 0 0 9.77c.001 2.86.003 5.72-.002 8.58-.004.968.038 1.709 1.42 1.494a7209 7209 0 0 1 36.871-5.618c7.668-1.145 15.339-2.272 23.009-3.399h.003l.002-.001.015-.002q8.49-1.245 16.977-2.502a8287 8287 0 0 0 32.228-4.842c1.163-.178 1.943.079 2.693 1.047a12060 12060 0 0 0 26.972 34.712q9.402 12.058 18.812 24.108l.002.003.002.003.002.003.003.002q8.5 10.888 16.993 21.777 4.698 6.03 9.386 12.066l.003.005.004.004.003.004q4.684 6.03 9.379 12.057 5.176 6.638 10.361 13.271l.001.001.002.002.001.001.001.002q4.549 5.82 9.093 11.644 2.079 2.666 4.153 5.335l.012.015c2.774 3.567 5.548 7.135 8.343 10.685.208.262.557.414.906.567.164.071.329.143.48.227.054-.139.124-.278.193-.417.151-.304.303-.607.303-.91.027-4.725.025-9.451.023-14.179zm-1.64 5.694c-.148.053-.292.11-.436.163l.008.011-.803-1.024-1.113-1.419a2937 2937 0 0 1-4.908-6.266q-8.699-11.159-17.393-22.317l-8.678-11.136-9.826-12.614-.011-.015c-5.832-7.488-11.663-14.976-17.503-22.457q-5.721-7.33-11.453-14.651l-.001-.001v-.001l-.001-.001-.001-.001c-4.816-6.156-9.633-12.312-14.437-18.477a9972 9972 0 0 1-23.326-30.07c-.621-.797-1.181-1.187-2.31-1.013a9467 9467 0 0 1-32.621 4.92l-.022.003-.047.007-11.072 1.659q-12.32 1.849-24.64 3.704t-24.64 3.704c-2.069.311-4.141.61-6.213.91h-.005c-3.1.448-6.201.896-9.296 1.381-1.17.185-1.571-.117-1.571-1.3.019-10.323.03-20.643-.027-30.962-.011-1.491.816-1.609 1.884-1.762l.078-.011a42387 42387 0 0 0 58.307-8.433c15.813-2.298 31.622-4.6 47.428-6.94 1.147-.167 1.84.193 2.51 1.066 4.743 6.16 9.5 12.308 14.258 18.457l.018.023.018.023 5.257 6.796 6.229 8.054.016.022c5.784 7.478 11.567 14.955 17.342 22.44a14611 14611 0 0 1 11.715 15.218l.023.029q6.314 8.214 12.641 16.418 8.175 10.588 16.358 21.17t16.359 21.17c3.752 4.857 7.486 9.73 11.174 14.636.454.601.81 1.448.818 2.185.062 7.359.068 14.721.073 22.081v.002l.003 3.311c0 .298-.05.597-.1.896v.002q-.025.148-.047.297zm-.113 7.001c.499-2.3.336-3.868-.864-5.372-2.724-3.42-5.404-6.874-8.084-10.327l-.001-.001v-.001l-.001-.001-.004-.004-.003-.004-.003-.005-.003-.004q-1.456-1.875-2.913-3.748l-12.458-15.996-.033-.043-.034-.043-.033-.043c-7.269-9.334-14.537-18.668-21.813-27.999q-10.356-13.276-20.721-26.545-9.315-11.924-18.623-23.854c-5.196-6.663-10.383-13.334-15.571-20.005l-8.754-11.256c-1.227-1.576-1.625-1.591-3.299.03l22.976 29.472c29.985 38.464 60.018 76.988 90.239 115.749M111.024 181.542c.004 1.278-.152 2.306-1.905 2.484a34 34 0 0 0-.041-.597 18 18 0 0 1-.061-1.263 26537 26537 0 0 1-.019-30.905q0-.147-.007-.299c-.013-.379-.026-.772.136-1.058.181-.325.704-.643 1.067-.635.273.007.61.51.765.858.092.21.074.468.056.725q-.012.157-.014.307l.001 8.102v.002c0 7.426 0 14.854.022 22.279m219.499 218.123v.007c.002 3.911.004 7.823-.02 11.732 0 .316-.133.631-.266.946a6 6 0 0 0-.17.434c-.149-.071-.315-.13-.48-.19-.362-.129-.723-.259-.921-.513-6.092-7.797-12.166-15.608-18.241-23.42l-.006-.008-.007-.008-.006-.009-.033-.041-.032-.042q-4.976-6.401-9.957-12.798-6.771-8.687-13.556-17.365l-.022-.027-.021-.027-.021-.027q-5.168-6.612-10.331-13.229-5.643-7.237-11.279-14.479l-.011-.015-.011-.014-.011-.015-.009-.011-.009-.011-.009-.012a19220 19220 0 0 0-12.362-15.868c-3.748-4.808-7.504-9.611-11.259-14.413q-4.537-5.801-9.068-11.605l-.954-1.221c-2.25-2.88-4.498-5.757-6.691-8.678-.863-1.15-1.783-1.55-3.249-1.323a6736 6736 0 0 1-40.661 6.191c-9.327 1.391-18.659 2.76-27.99 4.13h-.002l-.021.003-.016.002c-6.578.966-13.156 1.931-19.732 2.904a463 463 0 0 0-11.182 1.787c-1.114.193-1.511-.177-1.511-1.236l.002-2.748v-.002c.007-9.171.014-18.34-.01-27.512 0-1.233.77-1.344 1.622-1.467l.078-.011.986-.144.018-.002.014-.002q7.247-1.053 14.493-2.116 5.666-.834 11.33-1.672c7.139-1.056 14.278-2.112 21.42-3.14 6.209-.895 12.42-1.767 18.631-2.64h.006l.006-.001.006-.001c4.883-.686 9.766-1.372 14.648-2.068 6.899-.983 13.794-1.989 20.682-3.051 1.083-.166 1.648.136 2.303.987 5.78 7.516 11.582 15.018 17.384 22.519l.024.031.008.01.008.011c4.107 5.311 8.215 10.622 12.316 15.939 4.863 6.307 9.715 12.623 14.568 18.939 5.1 6.638 10.2 13.276 15.313 19.905 7.559 9.798 15.132 19.587 22.704 29.375a45264 45264 0 0 1 14.967 19.353c1.83 2.36 3.661 4.723 5.398 7.148.564.786.955 1.882.97 2.842.07 3.669.061 7.34.052 11.012v.002q-.007 1.885-.007 3.77h.186v.004zm-1.581 1.077v-.001c.07-.328.122-.568.122-.809l.003-2.029c.007-5.41.015-10.823-.049-16.232-.007-.745-.375-1.588-.825-2.2-1.183-1.601-2.413-3.168-3.643-4.735h-.001v-.001q-.945-1.202-1.881-2.408c-11.716-15.173-23.432-30.346-35.136-45.527-3.923-5.088-7.839-10.184-11.754-15.279q-4.976-6.478-9.959-12.95c-5.128-6.654-10.266-13.302-15.403-19.95l-5.837-7.553-3.308-4.286-.005-.006-.005-.007-.005-.006c-5.05-6.542-10.099-13.084-15.201-19.585-.469-.597-1.579-1.126-2.302-1.032-8.092 1.07-16.17 2.241-24.25 3.413l-.943.137q-10.563 1.535-21.125 3.073l-.091.013-.091.013-.091.014c-16.264 2.367-32.528 4.735-48.795 7.074-1.451.208-1.939.707-1.928 2.189.047 5.579.046 11.156.044 16.734q-.003 3.72.002 7.439c0 .408.038.815.079 1.254q.03.315.057.658.37-.031.677-.053h.001c.41-.03.753-.055 1.09-.105l3.997-.589c8.492-1.251 16.984-2.503 25.471-3.774a7721 7721 0 0 0 16.014-2.418h.002l.002-.001h.002l.022-.003c5.332-.809 10.664-1.618 15.997-2.416q7.5-1.122 15-2.235a8637 8637 0 0 0 22.39-3.348c.973-.147 1.564 0 2.204.828a4909 4909 0 0 0 18.657 24.014q6.466 8.284 12.938 16.562 6.474 8.282 12.943 16.57a48230 48230 0 0 1 27.266 34.978l.013.017.014.018.013.017.038.048q4.807 6.17 9.61 12.342 4.804 6.172 9.611 12.342c1.91 2.449 3.828 4.892 5.818 7.427l2.388 3.043h.007c.048-.268.095-.488.136-.679m-.336 9.075.443-.125c-.062-.712-.01-1.437.041-2.162.113-1.606.227-3.212-.882-4.665a923 923 0 0 0-7.33-9.437l-.001-.003-.002-.002-.002-.003-1.384-1.766-.558-.714-.326-.417-8.59-10.984c-5.736-7.332-11.472-14.664-17.197-22.004a9037 9037 0 0 1-12.126-15.585l-.005-.007-.005-.006-.005-.006-.006-.009-.007-.008q-4.481-5.769-8.968-11.534a46636 46636 0 0 0-26.817-34.391l-.002-.002c-5.24-6.713-10.481-13.425-15.736-20.122-.871-1.108-1.882-.983-3.529.291-.912.704-.42 1.199.026 1.648.11.11.217.218.3.325 6.714 8.622 13.439 17.236 20.163 25.851q7.878 10.09 15.749 20.186c7.75 9.938 15.49 19.887 23.23 29.835l.02.027.021.026 9.291 11.941c7.543 9.692 15.086 19.384 22.637 29.068 2.762 3.544 5.536 7.079 8.311 10.616zM125.178 285.935c.057 2.433-.858 3.642-3.283 4.372q-.03-.3-.061-.566c-.044-.382-.083-.72-.083-1.058q-.007-6.51-.011-13.019-.004-6.508-.011-13.018v-.034c-.001-.889-.001-1.678 1.162-1.947 1.757-.404 2.208-.128 2.208 1.664.002 2.268-.006 4.537-.014 6.806-.019 5.601-.039 11.201.093 16.8m98.361-10.25-.027-.152-.002-.01v-.004l-.026-.144-.023-.126c-32.588 4.83-65.172 9.673-97.745 14.583l.021.136.021.136.011.072.012.076.008.053.01.071 48.801-7.278.036-.005.035-.005.069-.011.068-.01.069-.01 48.683-7.26zm92.315-195.886q-.178-.14-.361-.294l-.003.004a48 48 0 0 0-.699.476c-.5.344-.959.66-1.441.937q-9.623 5.547-19.253 11.088l-12.843 7.393-8.85 5.1-.004.002a8340 8340 0 0 1-30.205 17.355c-1.235.703-1.272 1.183-.47 2.219 5.961 7.676 11.9 15.37 17.838 23.063l.001.002.009.011.009.012 4.36 5.647a74600 74600 0 0 1 26.131 33.831q8.483 10.993 16.955 21.99l.02.026 10.823 14.042 5.88 7.619.002.002c7.417 9.611 14.835 19.222 22.227 28.852.712.926 1.325 1.126 2.329.544 3.73-2.157 7.468-4.303 11.205-6.45l.003-.002q4.954-2.843 9.902-5.697c6.714-3.874 13.424-7.755 20.134-11.635l.04-.023.04-.023q7.736-4.475 15.476-8.946c5.119-2.96 10.246-5.92 15.392-8.834 1.14-.646 1.337-1.247.466-2.298-.847-1.025-1.646-2.089-2.444-3.153v-.001c-.454-.604-.907-1.209-1.369-1.806q-5.747-7.427-11.496-14.85l-.048-.063c-6.152-7.946-12.305-15.892-18.45-23.843a28489 28489 0 0 1-31.74-41.13 48801 48801 0 0 1-20.614-26.789 50660 50660 0 0 0-18.283-23.761c-.18-.231-.417-.418-.668-.617m98.707 140.115q-.293-.423-.542-.791l-.005-.007v-.001a27 27 0 0 0-.966-1.364q-4.47-5.777-8.945-11.55l-.003-.003-.002-.003a9790 9790 0 0 1-14.232-18.393c-4.312-5.593-8.612-11.197-12.912-16.801l-.019-.025a8779 8779 0 0 0-12.898-16.782c-6.152-7.984-12.32-15.956-18.488-23.928l-.019-.026-.022-.028-.03-.038q-4.533-5.858-9.064-11.72l-4.067-5.26-.042-.054c-6.599-8.537-13.2-17.074-19.77-25.633-.685-.896-1.246-1.228-2.291-.624-3.367 1.949-6.74 3.884-10.113 5.819a3405 3405 0 0 0-8.43 4.845c-5.491 3.166-10.977 6.339-16.464 9.511l-.006.004-.007.003q-6.293 3.641-12.59 7.276l-2.894 1.672-.039.023h-.001c-4.594 2.654-9.187 5.308-13.81 7.91-1.39.783-1.538 1.463-.47 2.643.628.692 1.177 1.453 1.727 2.214h.001c.299.415.599.829.911 1.233q5.013 6.483 10.028 12.961l.009.013.009.012q8.588 11.093 17.162 22.194c6.766 8.764 13.524 17.533 20.283 26.302l.008.01q6.19 8.034 12.384 16.066l13.798 17.887 13.799 17.887a2346 2346 0 0 1 3.613 4.704v.001h.001c2.322 3.029 4.643 6.057 6.992 9.062q.113.146.222.304l.001.001c.441.628.903 1.286 2.11.583 7.83-4.568 15.693-9.082 23.558-13.595l.003-.002 6.721-3.859 6.635-3.811.048-.027.048-.028q7.492-4.299 14.974-8.608c3.362-1.938 6.715-3.888 10.175-5.9l.012-.007zm-26.706-44.764 32.096 41.599c-.338.211-.656.424-.964.631h-.001l-.002.002c-.736.493-1.411.946-2.153 1.223-.488.182-1.492-.128-1.829-.556-5.369-6.83-10.678-13.71-15.983-20.589q-6.245-8.1-12.482-16.206l-.091-.118-.061-.08q-4.601-5.978-9.204-11.954a47960 47960 0 0 0-18.893-24.494l-.044-.057-4.404-5.708q-10.298-13.346-20.603-26.686-2.42-3.134-4.837-6.271l-.002-.002c-4.788-6.212-9.575-12.423-14.428-18.585-1.208-1.534-1.299-2.653.102-3.961.329-.309.617-.664.964-1.093h.001l.001-.002c.176-.218.367-.453.587-.712 24.098 31.237 48.145 62.403 72.23 93.619m-76.323-91.669-68.479 39.452c1.845.488 67.929-37.758 68.479-39.452m4.116 377.932q0 1.023.003 2.044v.001c.005 2.042.01 4.083-.03 6.124-.005.3-.176.599-.346.897a5 5 0 0 0-.218.411 5 5 0 0 0-.417-.215c-.307-.147-.613-.294-.799-.534-4.857-6.209-9.697-12.434-14.537-18.658l-4.676-6.014-2.288-2.939-.02-.026c-6.986-8.976-13.973-17.954-20.973-26.919a9522 9522 0 0 0-10.732-13.712l-.016-.02c-4.238-5.409-8.476-10.818-12.702-16.236a1824 1824 0 0 1-13.701-17.743c-.995-1.308-2.003-1.701-3.684-1.437-7.23 1.141-14.469 2.214-21.709 3.286h-.002l-.016.002q-4.994.74-9.986 1.486c-14.594 2.193-29.184 4.385-43.77 6.619-1.33.204-1.962.03-1.947-1.493.061-5.216.114-10.437 0-15.653-.038-1.656.636-2.056 2.068-2.257a8081 8081 0 0 0 27.679-3.949l8.025-1.154c11.959-1.716 23.913-3.432 35.871-5.152.659-.094 1.318-.197 1.976-.299v-.001c1.582-.246 3.163-.492 4.753-.626.652-.057 1.606.321 2.003.828 10.145 13.026 20.24 26.093 30.332 39.164a60161 60161 0 0 1 26.946 34.95l7.539 9.783 2.372 3.077c4.02 5.213 8.039 10.425 12.013 15.672.519.684.856 1.663.89 2.517.082 1.961.068 3.924.053 5.888q-.01 1.142-.011 2.285h.064zm-1.863-.234.225-.109.097-.046.124-.06c0-.674.01-1.349.02-2.023v-.001c.023-1.64.047-3.28-.069-4.909-.076-1.077-.454-2.294-1.094-3.145-2.981-3.947-6.014-7.854-9.046-11.761l-.001-.001a2222 2222 0 0 1-4.634-5.985q-8.088-10.493-16.168-20.992a33372 33372 0 0 0-26.706-34.656 15160 15160 0 0 1-21.076-27.353c-.912-1.187-1.821-1.663-3.37-1.429-8.154 1.233-16.316 2.412-24.478 3.591l-.058.008a18676 18676 0 0 0-17.577 2.55 7270 7270 0 0 1-30.159 4.348c-1.318.185-1.81.658-1.772 1.966.048 1.632.038 3.267.027 4.9v.001q-.007 1.028-.008 2.054v6.078a97 97 0 0 1 1.46-.131h.001c.919-.079 1.754-.15 2.583-.273q12.447-1.86 24.894-3.729l.105-.016 14.977-2.247 4.261-.637h.001c9.78-1.464 19.558-2.928 29.348-4.311.689-.098 1.746.514 2.223 1.115 7.98 10.167 15.921 20.365 23.862 30.562l.003.003 5.217 6.699q20.884 26.801 41.774 53.596c1.075 1.377 2.161 2.744 3.246 4.111l.001.001q.885 1.113 1.767 2.227zm-30.99-33.063-48.574-62.304c1.941-1.692 2.13-1.691 3.429-.021q5.743 7.378 11.482 14.757a20181 20181 0 0 0 21.284 27.333 20252 20252 0 0 0 20.61 26.351l.012.015q6.017 7.682 12.03 15.369 1.26 1.608 2.529 3.211c2.603 3.293 5.207 6.587 7.642 10 .626.873.837 2.041 1.048 3.209.097.536.194 1.073.331 1.58l-.761.341zm-128.278-52.675.399.179.4.18c.144-.232.325-.463.506-.693.387-.494.774-.987.789-1.492.125-4.169.088-8.35.016-12.523-.006-.294-.291-.584-.576-.875-.133-.135-.266-.27-.371-.406-.122.148-.275.294-.428.441h-.001c-.331.318-.662.635-.681.969-.089 1.659-.075 3.323-.062 4.986q.008.898.009 1.795zm-39.585-249.035c.089.051.17.097.219.134l-.004.003.42-.073c.335-.059.583-.103.834-.138 11.78-1.716 23.56-3.433 35.341-5.141q12.848-1.861 25.696-3.704l10.263-1.472c10.495-1.503 20.989-3.007 31.481-4.524.674-.098 1.382-.287 1.966-.619 7.334-4.194 14.656-8.41 21.98-12.626l3.36-1.935q4.125-2.375 8.247-4.754a7913 7913 0 0 1 13.303-7.66q4.492-2.576 8.988-5.15a5368 5368 0 0 0 16.807-9.648c.246-.144.397-.453.548-.762a4 4 0 0 1 .224-.421 5 5 0 0 1-.421-.167c-.307-.132-.614-.265-.897-.227a5597 5597 0 0 0-32.595 4.62c-5.085.74-10.166 1.505-15.248 2.268-5.311.799-10.623 1.597-15.939 2.37-7.97 1.157-15.943 2.293-23.915 3.43q-8.046 1.146-16.091 2.3c-.508.072-1.049.19-1.489.439-8.778 5.034-17.551 10.09-26.319 15.142l-1.562.9-9.59 5.531c-6.394 3.689-12.788 7.378-19.185 11.059-2.237 1.288-4.478 2.568-6.719 3.849a1926 1926 0 0 0-9.571 5.496c-.322.189-.575.684-.625 1.066-.016.124.267.286.493.414m174.394-56.918.125.503-3.069 1.78q-2.508 1.453-5.015 2.903a527 527 0 0 1-3.865 2.208c-2.998 1.702-5.994 3.403-8.911 5.231-2.325 1.456-4.851 1.826-7.426 2.197q-11.512 1.656-23.023 3.303c-7.675 1.1-15.349 2.198-23.023 3.304-1.699.245-3.4.48-5.102.715-5.204.72-10.41 1.438-15.558 2.441-1.971.382-3.825 1.493-5.64 2.582-.448.268-.894.535-1.339.79a6028 6028 0 0 0-16.727 9.621c-6.985 4.026-13.969 8.053-20.973 12.046a14.2 14.2 0 0 1-4.699 1.648c-6.478 1.027-12.97 1.966-19.464 2.906l-4.831.7c-.371.053-.758.008-1.284-.348q.817-.48 1.633-.963c1.159-.685 2.318-1.37 3.483-2.042q20.42-11.778 40.847-23.545a7353 7353 0 0 1 22.625-12.996 5.3 5.3 0 0 1 1.791-.601c11.87-1.72 23.741-3.43 35.613-5.142q15.66-2.256 31.316-4.52c6.529-.945 13.056-1.911 19.583-2.877q5.639-.837 11.279-1.666c.393-.057.788-.095 1.184-.132zm-136.918 49.983-.06-.204h-.008q1.67-.967 3.337-1.935 2.502-1.453 5.009-2.9 4.255-2.453 8.511-4.901a4375 4375 0 0 0 20.419-11.799c2.484-1.448 5.01-2.513 7.907-2.922 15.399-2.168 30.792-4.388 46.186-6.608q8.301-1.198 16.604-2.392c.194-.027.392-.044.59-.061l.239-.022.103.2.102.2-1.448.856c-.897.531-1.794 1.062-2.695 1.583l-.003.001a17206 17206 0 0 1-36.175 20.815 6.6 6.6 0 0 1-2.283.768c-5.173.748-10.346 1.481-15.52 2.215s-10.347 1.466-15.519 2.215c-7.421 1.072-14.839 2.168-22.257 3.264q-5.505.814-11.009 1.623c-.448.065-.899.107-1.351.149q-.309.028-.618.059z" clip-rule="evenodd"/>
</svg>
