<svg xmlns="http://www.w3.org/2000/svg" width="550" height="550" fill="none" viewBox="0 0 550 550">
    <path fill="#fff" fill-rule="evenodd" d="M435.699 179.186q-.002 3.764-.011 7.526v.001c-.013 5.801-.026 11.601.03 17.4.056 5.821-.054 11.614-1.148 17.351-.818 4.298-.28 8.554.269 12.829.413 3.211.81 6.449.822 9.679.041 10.176.037 20.352.034 30.529-.003 8.651-.006 17.302.019 25.953.015 5.933-.023 11.848-1.148 17.702-.814 4.238-.284 8.437.25 12.659.421 3.325.833 6.68.845 10.024l.005 1.594c.074 20.738.148 41.476-.058 62.211-.053 5.305-.811 10.678-1.92 15.877-.623 2.909-1.94 5.688-3.243 8.438q-.45.943-.885 1.885c-4.275 9.285-10.716 16.904-17.994 24.022-6.785 6.635-14.667 11.688-22.531 16.729h-.001l-.173.111c-5.24 3.359-11.042 5.926-16.801 8.361-6.824 2.881-13.765 5.566-20.838 7.751-12.867 3.976-26.003 6.733-39.37 8.653-11.89 1.707-23.818 2.381-35.754 2.514-8.992.103-18.005-.637-26.992-1.376l-1.885-.154-.833-.068c-6.411-.519-12.799-1.496-19.149-2.575-3.066-.522-6.098-1.239-9.131-1.956h-.001a229 229 0 0 0-5.822-1.323c-10.667-2.231-20.838-6.051-30.937-9.978-6.248-2.427-12.306-5.491-18.127-8.834-9.599-5.518-18.581-11.887-26.612-19.665-5.523-5.343-9.766-11.562-14.014-17.79l-.126-.185c-1.281-1.878-2.091-4.076-2.902-6.279-.445-1.208-.89-2.418-1.415-3.578-2.987-6.619-3.57-13.764-3.722-20.781-.278-12.886-.217-25.782-.157-38.678.02-4.133.039-8.267.047-12.4.004-1.717-.021-3.436-.045-5.156-.091-6.459-.182-12.924 1.181-19.306.95-4.447.341-8.796-.269-13.151-.137-.978-.274-1.956-.393-2.935l-.036-.297c-.213-1.743-.426-3.498-.43-5.246-.034-16.62-.061-33.24-.004-49.859.007-1.895-.023-3.791-.054-5.688-.103-6.457-.207-12.917 1.16-19.297.986-4.599.356-9.105-.276-13.62-.122-.88-.245-1.759-.357-2.64-.238-1.897-.469-3.809-.473-5.718-.012-7.272-.005-14.545.001-21.819.012-13.241.024-26.482-.077-39.722-.045-6.056.947-11.945 1.939-17.835l.001-.002.249-1.486c.278-1.663.998-3.244 1.721-4.832.468-1.029.938-2.061 1.29-3.12 2.537-7.676 7.421-14.022 12.571-19.857 5.794-6.559 12.492-12.33 19.823-17.389 8.99-6.203 18.729-10.89 28.479-15.583l.319-.154c2.24-1.079 4.621-1.854 7.005-2.63 1.599-.52 3.198-1.04 4.756-1.653 8.808-3.458 17.995-5.517 27.175-7.574 1.966-.441 3.932-.882 5.894-1.336 4.018-.93 8.147-1.393 12.274-1.855 1.599-.18 3.198-.358 4.789-.564a248.8 248.8 0 0 1 52.839-1.167 398 398 0 0 1 29.025 3.548c6.286 1 12.492 2.666 18.619 4.442 4.766 1.382 9.473 2.967 14.18 4.553 2.324.782 4.648 1.565 6.98 2.324 8.543 2.78 16.51 6.937 24.193 11.379 8.891 5.142 17.244 11.182 24.731 18.452 5.287 5.137 9.43 11.042 13.584 16.962v.001l.545.776.211.301c1.106 1.577 1.801 3.436 2.499 5.3.412 1.103.826 2.208 1.325 3.258 3.533 7.421 4.177 15.411 4.366 23.401.178 7.609.138 15.223.099 22.838-.017 3.254-.034 6.508-.034 9.762h-.008zM115.446 350.299l-.003.043c-.016.189-.051.618-.051 1.05 0 4.833-.01 9.667-.019 14.5-.026 13.121-.052 26.242.114 39.362.064 5.017.473 10.258 2.01 14.976 2.049 6.278 4.552 12.447 8.305 18.115 5.486 8.293 12.299 15.314 19.895 21.456 5.956 4.812 12.624 8.857 19.334 12.594 6.513 3.628 13.398 6.638 20.282 9.531 5.494 2.31 11.129 4.453 16.888 5.941q2.035.526 4.071 1.059c9.304 2.429 18.62 4.862 28.23 5.916 2.752.302 5.498.677 8.243 1.052h.001c3.12.426 6.24.853 9.371 1.171 2.064.21 4.144.252 6.225.295h.001c1.638.034 3.276.067 4.907.182 13.658.973 27.26.163 40.847-1.162a231 231 0 0 0 42.001-8.055c10.236-2.972 20.392-6.327 29.923-11.25 1.325-.685 2.663-1.35 4.002-2.016 3.492-1.738 6.987-3.476 10.258-5.565 5.798-3.699 11.466-7.679 16.76-12.06 4.343-3.597 8.425-7.657 11.943-12.057l.531-.662.556-.69c3.216-3.988 6.473-8.028 8.331-12.958.499-1.326 1.101-2.624 1.702-3.922 1.021-2.203 2.04-4.401 2.55-6.718 1.144-5.192 1.893-10.565 1.969-15.874.172-12.301.141-24.605.111-36.911-.012-4.779-.024-9.558-.024-14.338v-3.624c-.226.623-.429 1.218-.626 1.792-.408 1.196-.785 2.297-1.263 3.351-.515 1.13-1.018 2.269-1.521 3.407-1.557 3.524-3.114 7.05-5.038 10.365-2.317 3.995-4.949 7.975-8.183 11.224-5.256 5.278-10.549 10.549-16.657 14.98-9.785 7.1-20.323 12.829-31.335 17.581-7.91 3.416-16.188 6.085-24.477 8.482-6.291 1.82-12.723 3.162-19.146 4.502q-2.213.46-4.422.928c-1.828.388-3.687.618-5.547.849h-.001c-1.427.176-2.856.353-4.271.602-11.505 2.015-23.147 2.315-34.762 2.613l-.084.003-2.642.068c-7.759.205-15.582-.231-23.307-1.041-11.939-1.25-23.826-2.882-35.572-5.6-11.235-2.602-22.224-5.934-32.868-10.224-10.747-4.332-21.062-9.603-30.653-16.279-8.623-6.002-16.487-12.731-23.012-20.96l-.698-.878-.003-.004c-2.371-2.98-4.777-6.003-6.486-9.349-1.872-3.661-3.383-7.504-4.85-11.238h-.001a277 277 0 0 0-1.832-4.583l-.004-.007zm-.011-193.036.017-.305c.644 1.55 1.267 3.13 1.896 4.722v.001c1.479 3.75 2.985 7.567 4.845 11.204 1.173 2.296 2.767 4.369 4.363 6.446h.001c.928 1.208 1.858 2.417 2.706 3.672 3.465 5.118 8.143 9.079 12.759 12.988l.649.549a126 126 0 0 0 16.794 12.011c9.103 5.434 18.574 10.251 28.718 13.568 2.053.67 4.094 1.386 6.135 2.101 3.71 1.301 7.42 2.601 11.204 3.632 12.5 3.4 25.166 6.131 38.094 7.267q1.743.153 3.487.31c9.015.806 18.053 1.614 27.079 1.587 12.401-.038 24.807-.701 37.159-2.401 12.231-1.685 24.196-4.449 36.117-7.486 2.508-.641 4.948-1.543 7.39-2.446h.001c1.7-.629 3.402-1.258 5.128-1.799 9.38-2.943 18.046-7.467 26.698-11.985l1.633-.852c2.251-1.174 4.341-2.646 6.435-4.119 1.472-1.036 2.945-2.073 4.475-3.007 6.575-4.017 11.934-9.444 17.266-14.842l1.451-1.468c2.132-2.149 3.857-4.698 5.583-7.249l.001-.002c.889-1.313 1.778-2.628 2.724-3.889 2.17-2.889 3.446-6.191 4.721-9.493.604-1.562 1.208-3.124 1.906-4.643.454-.993.811-2.029 1.17-3.071v-.001c.168-.487.336-.975.515-1.46l.024.403.029.437c.045.663.091 1.349.091 2.038.002 4.609.014 9.219.027 13.828v.001c.034 12.647.069 25.296-.114 37.942-.076 5.305-.913 10.675-2.06 15.866-.497 2.251-1.482 4.388-2.47 6.53h-.001c-.579 1.256-1.159 2.513-1.641 3.796-1.913 5.091-5.285 9.268-8.605 13.383l-.885 1.098c-5.737 7.141-12.636 13.12-20.134 18.486-9.167 6.562-19.137 11.583-29.327 16.192-5.476 2.476-11.243 4.362-16.984 6.195-11.223 3.582-22.674 6.252-34.303 8.202-13.897 2.329-27.923 3.43-41.956 3.442a282 282 0 0 1-40.09-2.806c-9.71-1.384-19.182-3.68-28.66-5.978h-.001a1661 1661 0 0 0-5.01-1.209c-2.506-.599-4.93-1.527-7.356-2.455-1.76-.673-3.52-1.347-5.314-1.896-7.893-2.418-15.187-6.167-22.47-9.912a764 764 0 0 0-4.127-2.111c-2.591-1.311-4.99-2.992-7.393-4.675-1.551-1.086-3.104-2.174-4.71-3.163-5.723-3.526-10.431-8.216-15.128-12.894l-.001-.001c-.962-.958-1.922-1.915-2.891-2.861-1.853-1.811-3.318-4.017-4.785-6.226-.797-1.2-1.594-2.401-2.455-3.54-4.242-5.62-6.604-12.152-8.441-18.767-1.306-4.703-1.871-9.739-1.931-14.639-.16-12.94-.135-25.882-.11-38.822q.017-7.174.019-14.347c0-.39.024-.781.043-1.077m-.047 97.69v-1.497a280 280 0 0 1 1.902 4.764v.001c1.465 3.734 2.941 7.5 4.774 11.084 1.177 2.302 2.768 4.386 4.361 6.475.954 1.25 1.909 2.501 2.777 3.802 3.247 4.863 7.629 8.632 11.972 12.366l1.402 1.209c8.172 7.07 17.351 12.666 26.999 17.623 10.028 5.152 20.593 8.782 31.176 12.419h.001l.476.164c2.319.796 4.721 1.341 7.126 1.887 1.62.367 3.242.735 4.84 1.18 9.071 2.525 18.356 3.775 27.639 5.024l.003.001c2.734.368 5.467.736 8.195 1.136 1.626.239 3.277.29 4.93.34.964.03 1.929.059 2.89.126 13.522.947 27.051.685 40.551-.223 7.168-.485 14.329-1.492 21.402-2.768 8.611-1.553 17.23-3.272 25.659-5.601 8.368-2.31 16.612-5.195 24.708-8.35 5.653-2.2 11.151-4.956 16.377-8.05 6.964-4.124 13.802-8.531 20.293-13.356 4.347-3.23 8.183-7.225 11.894-11.208 1.523-1.634 2.816-3.48 4.111-5.328.974-1.391 1.948-2.782 3.023-4.086 2.958-3.593 4.639-7.793 6.319-11.993l.001-.002a133 133 0 0 1 1.707-4.132c.441-.999.797-2.033 1.151-3.062l.001-.002c.167-.483.333-.966.507-1.442q.023.404.054.838v.003c.044.631.09 1.298.09 1.965.003 4.823.023 9.647.042 14.471.051 12.491.102 24.984-.133 37.47-.151 8.051-1.723 15.904-4.953 23.516-2.984 7.031-7.422 12.973-12.019 18.804-3.052 3.874-6.91 7.176-10.697 10.394-8.017 6.817-16.715 12.64-26.246 17.169-1.379.655-2.74 1.35-4.101 2.046h-.001l-.001.001c-1.945.994-3.89 1.987-5.886 2.861-2.954 1.294-6.004 2.373-9.05 3.45l-.001.001-.862.305c-1.179.419-2.355.852-3.532 1.285-3.401 1.253-6.805 2.506-10.297 3.407l-.085.022c-8.61 2.219-17.253 4.447-26.005 5.93a279 279 0 0 1-36.686 3.727c-11.409.405-22.803.113-34.095-.936-11.398-1.06-22.773-2.76-34-5.43-11.55-2.749-22.781-6.369-33.838-10.553-3.307-1.25-6.468-2.877-9.63-4.504l-.001-.001h-.001c-1.849-.952-3.699-1.904-5.579-2.781-7.781-3.631-14.813-8.554-21.421-13.844-7.57-6.062-14.367-13.053-19.766-21.345-3.863-5.934-6.604-12.292-8.456-18.964-1.306-4.703-1.856-9.743-1.916-14.643-.161-13.005-.137-26.011-.112-39.016.008-4.716.017-9.433.017-14.149m159.904-19.145c1.484-.068 3.226-.148 4.964-.224 2.112-.092 4.229-.144 6.346-.196 4.744-.116 9.488-.232 14.178-.803 9.951-1.208 19.857-2.92 29.717-4.756 6.15-1.144 12.33-2.492 18.237-4.51a464 464 0 0 1 5.488-1.823c6.98-2.287 13.971-4.577 20.485-8.098a459 459 0 0 1 5.81-3.069c3.964-2.069 7.927-4.138 11.752-6.436 4.654-2.794 9.16-5.93 13.356-9.372 4.199-3.442 8.357-7.104 11.769-11.292 4.953-6.077 9.936-12.269 12.477-19.925.37-1.115.826-2.197 1.282-3.279v-.001c.91-2.16 1.821-4.32 2.05-6.74.139-1.443.354-2.882.569-4.32.516-3.44 1.031-6.88.491-10.383-.191-1.253-.333-2.514-.476-3.776v-.001c-.401-3.569-.803-7.139-2.333-10.499-.588-1.291-1.091-2.633-1.594-3.974-.895-2.384-1.787-4.764-3.147-6.841-4.427-6.77-9.206-13.253-15.158-18.944-7.165-6.85-15.132-12.55-23.576-17.415-8.656-4.987-17.794-9.156-27.272-12.621-11.609-4.245-23.496-7.38-35.541-9.778-9.596-1.908-19.399-3.01-29.165-3.752-18.733-1.42-37.477-1.253-56.122 1.503-1.699.251-3.407.46-5.116.667-3.605.44-7.211.879-10.72 1.719q-2.075.495-4.151.985c-9.216 2.179-18.429 4.357-27.403 7.576-11.243 4.033-22.05 8.884-32.327 14.886-5.044 2.946-10.103 6.081-14.473 9.906q-1.132.99-2.274 1.974c-5.15 4.451-10.335 8.933-14.103 14.763a133 133 0 0 1-2.53 3.727c-1.527 2.197-3.052 4.391-4.328 6.724a51.2 51.2 0 0 0-4.249 10.281c-.647 2.244-1.01 4.57-1.374 6.897-.236 1.513-.473 3.027-.788 4.52-1.367 6.479-.068 12.916 1.545 18.948 1.738 6.502 4.256 13.034 8.645 18.49a188 188 0 0 1 3.002 3.863c1.997 2.617 3.994 5.234 6.245 7.611 3.654 3.859 7.604 7.52 11.822 10.747 4.87 3.729 9.952 7.3 15.336 10.205 8.816 4.756 17.722 9.417 27.34 12.473 1.935.614 3.852 1.293 5.768 1.971h.001c2.512.889 5.025 1.778 7.579 2.524 2.191.64 4.425 1.134 6.659 1.629h.001c2.075.459 4.15.919 6.192 1.495 9.602 2.714 19.469 3.871 29.312 5.026h.001q2.248.262 4.494.533c5.698.691 11.466.82 17.318.95 2.645.06 5.308.119 7.989.231zm-158.199-5.262-.094.019-.248.051c-.128 1.021-.313 2.047-.498 3.073-.408 2.266-.817 4.532-.619 6.742.083.935.156 1.873.229 2.812.436 5.635.876 11.31 3.509 16.546.692 1.38 1.322 2.797 1.951 4.213v.001c1.09 2.455 2.18 4.909 3.596 7.161 2.7 4.298 5.665 8.554 9.187 12.182 4.665 4.805 9.796 9.209 15.067 13.348 4.408 3.461 9.077 6.736 14.037 9.307l2.092 1.088c7.932 4.128 15.891 8.269 24.502 10.942 1.828.568 3.627 1.245 5.425 1.92 2.554.961 5.107 1.921 7.741 2.568 11.201 2.753 22.394 5.494 33.868 7.141 12.806 1.841 25.666 2.602 38.529 2.734 9.838.103 19.717-.791 29.525-1.791 8.122-.829 16.199-2.272 24.231-3.802 6.433-1.226 12.916-2.537 19.1-4.627a651 651 0 0 1 4.89-1.623l.001-.001c7.56-2.488 15.137-4.981 22.221-8.736 1.71-.907 3.445-1.771 5.18-2.634 3.249-1.618 6.497-3.234 9.573-5.133 5.415-3.339 10.679-6.997 15.647-10.966 4.192-3.351 8.323-6.982 11.663-11.144l.568-.708c4.685-5.834 9.431-11.743 11.833-19.062.385-1.176.858-2.317 1.331-3.459.87-2.102 1.742-4.207 2.073-6.538l.027-.188c.957-6.742 1.908-13.446.303-20.215-.077-.32-.163-.636-.278-1.063l-.188-.701a1364 1364 0 0 0-1.386 3.2c-.419.961-.8 1.949-1.18 2.936v.001c-.839 2.178-1.678 4.357-2.936 6.257-4.995 7.539-10.239 14.927-17.377 20.705-.831.672-1.595 1.433-2.357 2.193-1.014 1.011-2.024 2.018-3.187 2.809a621 621 0 0 0-3.971 2.73c-6.877 4.751-13.756 9.505-21.525 12.815-1.821.775-3.611 1.628-5.401 2.481-2.557 1.219-5.113 2.437-7.757 3.426-4.343 1.625-8.733 3.122-13.124 4.619h-.001c-3.844 1.311-7.689 2.622-11.5 4.018-10.709 3.927-21.633 6.96-32.891 8.816-12.981 2.135-26.026 3.04-39.188 2.643-12.223-.371-24.307-1.72-36.231-4.404l-1.712-.383c-3.68-.819-7.368-1.64-10.954-2.768-7.407-2.325-14.761-4.843-22.073-7.463l-.777-.278-.891-.319c-6.597-2.358-13.205-4.721-19.617-7.518-6.043-2.636-11.916-5.729-17.615-9.05-4.999-2.916-10.054-5.972-14.359-9.785a646 646 0 0 0-1.95-1.718c-5.592-4.916-11.212-9.856-15.431-16.182q-.813-1.214-1.64-2.418c-2.753-4.026-5.494-8.034-6.99-12.781-.304-.965-.748-1.887-1.191-2.808v-.001a45 45 0 0 1-.592-1.262h-.016zm315.989 96.104-.67 1.521a284 284 0 0 0-.708 1.611c-.429.979-.812 1.989-1.196 2.999-.845 2.224-1.69 4.447-3.008 6.342-.764 1.099-1.514 2.211-2.265 3.323l-.001.002c-3.297 4.886-6.604 9.785-11.184 13.677-1.346 1.144-2.621 2.379-3.896 3.612-1.903 1.842-3.803 3.681-5.93 5.211-7.85 5.654-15.738 11.304-24.689 15.2-1.743.758-3.461 1.577-5.178 2.395l-.002.001c-2.631 1.253-5.261 2.506-7.975 3.541-4.806 1.834-9.677 3.496-14.549 5.158-2.21.755-4.421 1.509-6.626 2.279-1.688.59-3.365 1.218-5.043 1.847h-.002c-3.603 1.35-7.206 2.699-10.908 3.663-8.695 2.265-17.43 4.374-26.393 5.517-10.679 1.36-21.365 2.03-32.115 1.795-12.625-.276-25.144-1.507-37.454-4.389-5.135-1.2-10.251-2.525-15.298-4.055-3.191-.966-6.331-2.09-9.472-3.215l-.005-.002a431 431 0 0 0-4.511-1.596 566 566 0 0 0-7.019-2.356c-5.26-1.74-10.52-3.481-15.644-5.558-6.491-2.632-12.89-5.657-18.911-9.217-7.607-4.498-15.169-9.19-21.629-15.366-.95-.906-1.939-1.782-2.929-2.659-2.244-1.987-4.489-3.974-6.265-6.316a403 403 0 0 0-1.914-2.495l-.002-.003c-4.339-5.629-8.703-11.291-10.834-18.298-.267-.879-.678-1.714-1.09-2.55-.189-.384-.378-.768-.554-1.157q-.153.595-.308 1.189c-.77 2.945-1.529 5.85-1.282 8.664.083.941.155 1.885.228 2.831.433 5.632.868 11.304 3.475 16.538.694 1.394 1.339 2.817 1.983 4.239 1.149 2.537 2.297 5.072 3.724 7.443 2.351 3.911 4.877 7.895 8.088 11.075 5.623 5.571 11.277 11.111 17.843 15.73 9.22 6.491 19.066 11.788 29.32 16.222 8.119 3.511 16.65 6.131 25.132 8.721 6.26 1.912 12.663 3.548 19.119 4.578q2.16.347 4.32.7l.008.002c10.409 1.697 20.831 3.397 31.437 3.49 2.721.023 5.441.097 8.161.171 3.891.106 7.783.212 11.674.17q1.154-.013 2.309-.023c5.973-.055 11.973-.111 17.866-.882l1.405-.184c11.138-1.459 22.273-2.918 33.27-5.53 11.223-2.666 22.189-6.04 32.803-10.372 10.993-4.487 21.528-9.993 31.218-17.04 8.065-5.862 15.483-12.322 21.493-20.3.538-.715 1.097-1.424 1.656-2.134l.001-.001c1.866-2.371 3.744-4.757 4.951-7.434q.356-.79.715-1.581c2.689-5.931 5.389-11.887 6.029-18.602.564-5.941.833-11.769-.754-18.138zm-109.488 71.871c-32.315 5.487-64.578 5.498-96.855.019 19.429 5.449 39.241 7.035 59.314 6.028 12.742-.64 25.295-2.435 37.541-6.047m-96.283-96.469c32.012 8.152 64.021 8.149 96.026-.068-32.005 5.331-64.014 5.392-96.026.068m43.944-227.424c14.715.239 25.405.954 36.026 2.711 9.505 1.572 18.831 3.764 27.965 6.843 6.99 2.355 13.7 5.313 20.281 8.637 6.142 3.105 11.8 6.93 17.127 11.201 6.271 5.029 11.576 11.042 15.723 17.957 1.256 2.094 2.151 4.422 3.039 6.731l.004.01q.23.602.463 1.199c2.639 6.756 2.969 13.685 1.795 20.831-1.242 7.573-4.415 14.158-8.891 20.296-5.695 7.808-12.909 13.859-20.933 19.089-8.853 5.771-18.422 9.925-28.354 13.461-7.642 2.723-15.48 4.658-23.372 6.154a188 188 0 0 1-27.305 3.131c-9.304.383-18.593.273-27.821-.545a188 188 0 0 1-26.616-4.286c-8.335-1.969-16.488-4.499-24.356-7.74-7.702-3.174-15.086-7.07-22.024-11.841-5.452-3.749-10.413-8.02-14.764-12.867s-7.906-10.342-10.311-16.575c-1.575-4.093-2.321-8.255-2.696-12.511-.576-6.551.659-12.821 3.23-18.907 3.453-8.175 8.796-14.843 15.264-20.815 8.024-7.407 17.203-12.97 27.109-17.309 6.505-2.851 13.155-5.555 19.978-7.463 8.96-2.503 18.048-4.715 27.385-5.502 6.263-.528 12.525-1.069 17.3-1.48h.003c1.83-.159 3.442-.298 4.751-.41m3.995 136.975.011.119.023.237q3.608-.285 7.216-.558l.009-.001c6.086-.465 12.171-.93 18.248-1.508l.006-.001c3.967-.378 8.016-.765 11.808-1.889 6.881-2.033 13.735-4.207 20.202-7.482 6.915-3.499 13.454-7.479 19.123-12.811 5.536-5.21 9.902-11.125 11.943-18.607 1.265-4.643 1.318-9.247.371-13.92-1.174-5.779-3.972-10.841-7.679-15.219-8.104-9.569-18.563-15.957-30.066-20.607-4.844-1.957-9.899-3.442-14.943-4.824-4.706-1.291-9.493-2.378-14.309-3.154-4.666-.754-9.403-1.303-14.121-1.398-6.888-.14-13.791.091-20.679.379-6.869.288-13.639 1.303-20.395 2.749-8.876 1.901-17.434 4.601-25.719 8.27-6.517 2.882-12.602 6.574-18.036 11.069-6.842 5.657-12.462 12.367-14.931 21.304a29.3 29.3 0 0 0-.765 12.068c.924 6.365 3.889 12.026 7.945 16.979 5.051 6.172 11.36 11 18.255 14.848 7.384 4.12 15.117 7.611 23.542 9.179q2.253.42 4.503.849c3.445.655 6.89 1.309 10.348 1.892 3.484.587 6.991 1.178 10.508 1.401 4.111.258 8.23.37 12.348.483h.005c1.742.047 3.484.095 5.225.153zm116.561-61.522.225-.034.165-.025.136-.02c.068-.429.164-.859.26-1.29.208-.936.417-1.871.339-2.781a161 161 0 0 1-.216-2.906c-.232-3.38-.464-6.779-1.394-9.961-1.564-5.358-4.082-10.383-7.463-15.007-4.059-5.547-8.884-10.269-14.257-14.396-6.165-4.738-12.7-8.994-19.963-11.91-1.594-.639-3.185-1.294-4.777-1.949-5.598-2.304-11.205-4.611-16.993-6.271-6.005-1.723-12.189-2.839-18.367-3.954a616 616 0 0 1-5.625-1.033c-10.368-1.97-20.884-2.291-31.395-2.185-9.637.098-19.271.72-28.76 2.544q-1.61.31-3.221.613h-.001c-6.281 1.19-12.579 2.382-18.684 4.193-7.426 2.2-14.749 4.809-21.758 8.289-9.402 4.669-18.157 10.133-25.848 17.361-4.408 4.147-8.126 8.827-11.038 13.992-3.374 5.979-5.453 12.564-5.57 19.562-.026 1.549.139 3.1.313 4.735.083.784.168 1.587.236 2.418.719-1.293 1.401-2.543 2.066-3.761l.001-.001c1.376-2.522 2.676-4.902 4.06-7.231 3.889-6.532 9.383-11.689 15.275-16.267a103.4 103.4 0 0 1 18.918-11.648c8.569-4.093 17.423-7.319 26.56-9.796 11.511-3.12 23.243-4.95 35.133-5.884 16.18-1.269 32.254-.42 48.246 2.147 12.064 1.935 23.818 5.149 35.132 9.758 7.668 3.124 15.067 6.831 21.948 11.557 6.634 4.555 12.776 9.629 17.699 15.998q.441.57.887 1.14c2.408 3.078 4.84 6.189 6.114 10.005.311.929.701 1.834 1.092 2.738q.272.626.533 1.257zm-36.795 42.767.193.218.193.217q.343-.153.692-.296c.513-.214 1.025-.426 1.489-.718 1.096-.689 2.18-1.398 3.263-2.107 1.435-.94 2.87-1.879 4.333-2.771 5.756-3.499 10.664-8.058 15.09-13.011 4.559-5.1 8.134-10.943 10.463-17.502.791-2.226.788-4.036-.038-6.259-2.719-7.301-6.926-13.587-12.22-19.214-5.778-6.142-12.541-11.079-19.762-15.271-8.948-5.195-18.528-9.149-28.461-12.068-8.91-2.621-17.964-4.624-27.203-5.885-10.213-1.393-20.452-2.113-30.733-1.927-19.081.344-37.817 2.987-55.978 9.111-11.042 3.722-21.539 8.478-31.225 15.067-5.99 4.074-11.375 8.77-16.059 14.234a50.9 50.9 0 0 0-9.755 17.316c-.352 1.068-.378 2.458-.011 3.507 2.954 8.505 7.52 16.013 14.139 22.197.689.643 1.367 1.298 2.045 1.952h.001c1.198 1.157 2.397 2.313 3.65 3.406.954.833 2.016 1.546 3.075 2.258q.435.292.867.586c.868.596 1.753 1.168 2.724 1.796.459.297.939.607 1.445.938a350 350 0 0 0-1.583-2.307c-3.039-4.405-5.922-8.584-7.585-13.586-1.833-5.509-2.363-11.129-1.48-16.646a37.7 37.7 0 0 1 4.896-13.48c3.552-5.923 8.096-10.929 13.37-15.143 8.009-6.404 17.018-11.186 26.696-14.681a145 145 0 0 1 32.263-7.634c16.26-1.946 32.421-1.534 48.537 1.352 9.74 1.745 19.214 4.392 28.313 8.262 3.995 1.7 7.994 3.529 11.663 5.82 5.782 3.613 11.322 7.559 16.131 12.546 3.855 3.995 7.013 8.463 9.251 13.363 2.295 5.021 3.397 10.477 3.245 16.233-.128 4.987-1.401 9.656-3.37 13.928-2.253 4.888-5.157 9.621-9.387 13.268-.756.651-1.485 1.337-2.212 2.021l-.001.001q-.483.455-.968.905zm-25.424 10.599.122.386q.119-.025.239-.047c.185-.035.37-.07.544-.131q1.71-.587 3.414-1.182h.002c1.87-.651 3.74-1.302 5.619-1.931 5.79-1.931 10.993-4.71 15.401-9.107 5.396-5.384 10.182-11.087 12.59-18.452.17-.518.355-1.038.54-1.56l.001-.001c.622-1.749 1.25-3.517 1.326-5.293.212-4.892.284-9.75-1.234-14.635-1.644-5.29-4.34-9.925-7.63-14.125-5.196-6.63-11.921-11.715-19.176-15.892-8.369-4.821-17.354-8.373-26.673-10.925a149.3 149.3 0 0 0-32.626-5.138c-15.908-.735-31.691.545-47.152 4.54-8.546 2.208-16.797 5.245-24.723 9.236a82.8 82.8 0 0 0-15.154 9.796c-5.389 4.392-10.175 9.561-13.272 15.923-1.458 2.999-2.53 6.225-3.427 9.447-1.25 4.476-1.106 9.111-.193 13.61 1.189 5.861 3.597 11.329 7.402 15.942 2.776 3.358 5.817 6.691 9.342 9.186 2.565 1.814 5.498 3.105 8.429 4.395 1.179.519 2.359 1.039 3.514 1.592.388.186.824.27 1.26.354h.001c.202.039.405.078.602.127-1.889-1.572-3.828-2.924-5.808-4.211-5.983-3.893-11.175-8.592-15.295-14.473-4.468-6.373-6.865-13.276-6.543-21.171.174-4.302 1.31-8.338 3.135-12.03 3.617-7.32 9.103-13.144 15.666-18.047 6.138-4.586 12.84-8.127 19.842-11.058 9.069-3.801 18.566-6.32 28.267-7.868 13.352-2.128 26.787-2.496 40.279-1.382a139 139 0 0 1 25.003 4.366c7.347 1.991 14.541 4.669 21.429 8.145 5.218 2.632 10.129 5.729 14.647 9.288 4.938 3.889 9.194 8.558 12.432 14.136 2.211 3.809 3.68 7.88 4.256 12.057.984 7.168-.633 13.976-4.29 20.376-3.03 5.297-7.025 9.762-11.637 13.48-3.424 2.759-7.254 5.02-11.077 7.278-1.225.723-2.45 1.446-3.661 2.185-1.243.76-2.58 1.366-3.916 1.972h-.001c-.608.276-1.216.552-1.816.842M248.1 180.939c8.629 3.605 17.725 4.983 27.385 5.101h.003c8.062-.137 16.313-1.208 24.258-4.12 7.418-2.719 14.132-6.464 18.82-13.102.204-.289.373-.625.541-.959.298-.594.593-1.18 1.076-1.476 1.325-.814 1.601-2.071 1.73-3.275.954-9.009-2.783-15.87-9.91-21.1-8.349-6.13-17.952-8.929-28.044-9.974-13.867-1.435-27.385.042-39.983 6.54-6.252 3.226-11.826 7.418-14.185 14.351-1.568 4.609-2.567 9.236.75 14.083 4.498 6.577 10.436 10.955 17.559 13.931m30.934 3.66c-1.281.128-2.562.257-3.841.399l.004-.007c-9.228-.318-18.184-1.784-26.704-5.324-6.289-2.613-11.996-6.135-15.798-12.034-2.946-4.571-3.612-9.493-1.59-14.605 2.442-6.18 7.293-10.164 12.973-13.023 16.794-8.455 34.349-9.001 52.199-4.154 6.941 1.886 13.322 5.071 18.498 10.285 4.4 4.434 6.65 9.644 5.4 15.927-.742 3.729-2.798 6.846-5.536 9.462-7.615 7.271-17.033 10.55-27.185 12.084-2.792.424-5.606.707-8.42.99" clip-rule="evenodd"/>
</svg>
