<svg xmlns="http://www.w3.org/2000/svg" width="550" height="550" fill="none" viewBox="0 0 550 550">
    <path fill="#fff" d="M274.771 114.993c8.458-.063 16.975 1.681 23.505 5.274l120.002 66.046h-.001c2.046 1.125 3.833 2.598 5.052 3.994.609.697 1.09 1.39 1.387 2.024.287.614.445 1.267.259 1.827l-.95-.317c.064-.189.038-.544-.215-1.086-.245-.523-.664-1.137-1.234-1.79-1.068-1.222-2.624-2.53-4.418-3.571l-.362-.205-120.002-66.046c-6.344-3.491-14.681-5.212-23.015-5.15-8.333.062-16.606 1.906-22.821 5.489l-117.266 67.585-.272.156c-3.517 2.074-5.964 4.495-7.399 7.024l-.434-.247-.435-.246c1.579-2.784 4.261-5.382 8.041-7.558l.75-.432v.003l116.515-67.151c6.402-3.691 14.856-5.56 23.313-5.623M482.5 188v1h-1v-1zM224.32 410.257l.256.143v34.716h-.005v4.695l-121.43-67.874-.256-.144v-39.41zm-120.435-29.051 119.686 66.899v-3.989h.005v-33.13l-119.691-66.899zm378.61-21.157-.125.052c-.77 5.986-5.089 11.767-12.835 16.264L308.679 469.75c-8.794 5.106-20.426 7.685-32.07 7.749-11.643.064-23.356-2.385-32.312-7.392L80.984 378.824c-9.048-5.059-13.621-11.877-13.472-18.794l-.012-.005V303.69h.518v.5h.482v55.216l.031.017-.013.323c-.28 6.513 3.951 13.171 12.954 18.205l163.313 91.283c8.769 4.902 20.301 7.329 31.819 7.265s22.968-2.617 31.573-7.613L469.033 375.5c7.705-4.474 11.763-10.134 12.381-15.803l.032-.293.049-.021v-.865c.005-.258.008-.506 0-.747V303h1v54.755c.009.265.004.531 0 .779zM107.248 265.93l-3.5 2.005-.496-.869 3.5-2.004z"/>
    <path fill="#fff" d="M468.63 284.477c8.965 4.971 13.682 11.641 13.87 18.455v.797c-.155 6.369-4.263 12.622-12.177 17.48l-.778.466-160.864 94.022c-8.794 5.141-20.426 7.737-32.071 7.802s-23.358-2.401-32.315-7.442L80.975 324.15c-9.192-5.174-13.768-12.179-13.46-19.252.283-6.532 4.724-12.931 13.134-17.819l4.09-2.506.523.854-4.09 2.505-.01.006c-8.24 4.787-12.385 10.927-12.649 17.004-.284 6.561 3.95 13.269 12.953 18.337l163.319 91.906c8.769 4.935 20.301 7.378 31.819 7.314s22.968-2.635 31.573-7.665h.001l160.862-94.022h.001c8.243-4.816 12.31-10.998 12.459-17.107v-.746c-.175-6.332-4.568-12.735-13.356-17.607l.243-.438z"/>
    <path fill="#fff" d="M272.647 71.502c11.533-.086 23.137 2.297 32.023 7.2l163.959 90.452c8.965 4.946 13.683 11.585 13.871 18.367l.014.514h-.023v.28c-.16 6.544-4.534 12.963-12.956 17.86l-160.856 93.561c-8.794 5.115-20.427 7.699-32.071 7.763s-23.357-2.39-32.314-7.406L80.975 208.639c-9.191-5.149-13.768-12.12-13.46-19.161.284-6.506 4.73-12.88 13.146-17.74l160.221-92.559c8.713-5.033 20.232-7.59 31.765-7.677m.007 1c-11.409.086-22.746 2.617-31.272 7.542l-160.221 92.56c-8.24 4.758-12.384 10.872-12.648 16.918-.284 6.525 3.949 13.201 12.952 18.244l163.317 91.455c8.77 4.911 20.302 7.342 31.82 7.278 11.519-.063 22.968-2.622 31.574-7.628l160.857-93.561c8.243-4.793 12.309-10.943 12.458-17.02v-.925c-.254-6.239-4.643-12.534-13.346-17.335L304.186 79.577c-8.699-4.8-20.123-7.16-31.532-7.075"/>
    <path fill="#fff" d="M468.497 262v41.379l-.116.048c-.721 5.568-4.725 10.937-11.888 15.112L307.68 405.296c-8.144 4.748-18.913 7.144-29.69 7.203s-21.619-2.217-29.912-6.872l-151.09-84.803c-8.387-4.705-12.627-11.057-12.48-17.508l-.008-.004v-37.195h1v36.66l.024.017-.011.28c-.259 6.035 3.643 12.21 11.964 16.878l151.09 84.803c8.106 4.55 18.767 6.803 29.418 6.744s21.236-2.43 29.191-7.067l148.813-86.757c7.122-4.151 10.867-9.399 11.436-14.654l.031-.294.041-.018V262z"/>
    <path fill="#fff" d="m223.565 296.992-119.689-66.896v37.117l119.689 66.897zm1 38.823-121.433-67.872-.256-.143v-39.409l121.434 67.872.255.143zm257.93-89.768-.125.052c-.745 5.796-4.818 11.399-12.107 15.832l-.728.432-160.854 93.388c-8.794 5.106-20.426 7.684-32.07 7.748-11.643.064-23.355-2.385-32.311-7.392l-163.317-91.28c-9.048-5.059-13.62-11.877-13.471-18.794l-.012-.005v-56.334h.518v.5h.482v55.215l.031.017-.013.323c-.28 6.512 3.95 13.171 12.954 18.205l163.315 91.28c8.769 4.902 20.301 7.329 31.819 7.265s22.968-2.617 31.573-7.613l160.853-93.387.001-.001c7.705-4.473 11.763-10.133 12.381-15.802l.032-.293.049-.021v-.866a14 14 0 0 0 0-.745V189h1v54.753c.009.265.004.532 0 .78z"/>
    <path fill="#fff" d="M107.5 231v34.436l7.165 3.96 109.577 60.614-.484.875L106.5 266.027V231zm0 115v33.778l116.849 65.285-.244.437-.244.437-117.105-65.428-.256-.143V346z"/>
    <path fill="#fff" d="M107.5 345.804v33.977l-.251.145-3.5 2.008-.498-.868 3.249-1.864v-33.398zm193-154.304v10.101h-.02c-.079.843-.475 1.686-1.218 2.515-.892.995-2.297 1.99-4.313 2.99-11.681 5.795-54.938 27.553-62.795 31.246-3.978 1.87-8.001 2.842-11.546 3.086-3.533.243-6.635-.235-8.745-1.311h-.001c-.971-.497-1.914-1.141-2.624-1.882-.703-.734-1.227-1.616-1.238-2.579V226.5h1v9.155l.005.114c.044.57.375 1.179.955 1.784.612.638 1.455 1.222 2.357 1.683l.367.175c1.889.846 4.639 1.251 7.855 1.029 3.42-.235 7.322-1.175 11.19-2.994 7.844-3.686 51.074-25.432 62.776-31.236 1.958-.972 3.238-1.899 4.012-2.762.765-.854 1.018-1.625.975-2.317l-.033-.53h.041V192h.491v-.5zM205.515 156v8.98l-.002.023c-.163 1.792 1.239 3.594 3.572 4.884 4.989 2.756 36.628 17.287 52.744 24.658l-.416.91c-16.083-7.356-47.777-21.911-52.812-24.692-2.428-1.342-4.278-3.424-4.086-5.806V156z"/>
    <path fill="#fff" d="M209.402 151.778c4.653-2.343 11.066-1.248 17.138 1.516 6.036 2.747 58.329 27.299 63.891 29.889 1.831.852 4.261 1.988 6.258 3.343 1 .678 1.913 1.424 2.593 2.235s1.154 1.717 1.215 2.706l.033.531h-.045c-.167 1.893-1.891 3.756-5.559 5.592-11.742 5.882-55.221 27.967-63.118 31.714-3.999 1.899-8.044 2.885-11.607 3.132-3.552.247-6.67-.237-8.791-1.33v-.001c-1.988-1.019-3.397-2.6-3.376-4.492.021-2.087 1.779-4.213 5.548-6.07 5.151-2.539 33.044-17.685 47.963-25.805l6.811-3.71 1.697-.926-1.463-.638c-1.532-.668-3.73-1.626-6.387-2.788a7579 7579 0 0 1-19.839-8.704c-14.723-6.487-30.331-13.438-33.744-15.24-2.186-1.156-3.906-2.875-4.101-4.893l-.001.001a3.7 3.7 0 0 1-.003-.683v-.036l.003-.024c.164-1.771 1.529-3.495 4.309-5.017zm16.724 2.426c-5.995-2.729-12.041-3.665-16.274-1.533-3.051 1.536-4.203 3.138-4.337 4.503v.003l-.001.022a4 4 0 0 0-.014.277l.012.258.001.006c.144 1.511 1.488 3.004 3.575 4.107h-.001c3.372 1.781 18.932 8.712 33.681 15.21a7287 7287 0 0 0 26.221 11.491l1.775.774.466.203.119.052.038.016h.002l-.2.459.201-.458.936.408-.897.49-.002.001-.009.005-.032.017-.13.071-.506.276-1.915 1.044-6.813 3.71c-14.902 8.111-42.823 23.272-47.998 25.823-3.694 1.821-4.975 3.698-4.99 5.185v.001c-.014 1.339.993 2.649 2.833 3.591h.001c1.9.979 4.816 1.462 8.264 1.223 3.437-.239 7.36-1.192 11.247-3.038l1.879-.908c11.314-5.53 50.194-25.274 61.221-30.797 3.986-1.995 5.106-3.765 5.016-5.166l-.006-.08c-.063-.676-.397-1.358-.973-2.045-.599-.713-1.428-1.401-2.388-2.052-1.921-1.303-4.276-2.407-6.119-3.264h-.001c-5.575-2.596-57.85-27.14-63.882-29.885M376 191v10.101h-.02c-.079.843-.475 1.686-1.218 2.515-.892.995-2.297 1.99-4.313 2.99-11.681 5.795-54.938 27.553-62.795 31.246-3.978 1.87-8.001 2.842-11.546 3.086-3.533.243-6.635-.235-8.745-1.311h-.001c-.971-.497-1.914-1.141-2.624-1.882-.703-.734-1.227-1.616-1.238-2.579V226h1v9.155l.005.114c.044.57.375 1.179.955 1.784.612.638 1.455 1.222 2.357 1.683l.367.175c1.889.846 4.639 1.251 7.855 1.029 3.42-.235 7.322-1.175 11.19-2.994 7.844-3.686 51.074-25.432 62.776-31.236 1.958-.972 3.238-1.899 4.012-2.762.765-.854 1.018-1.625.975-2.317l-.033-.53H375V191.5h.491v-.5zm-94.985-35.5v8.98l-.002.023c-.163 1.792 1.239 3.594 3.572 4.884 4.989 2.756 36.628 17.287 52.744 24.658l-.416.91c-16.083-7.356-47.777-21.911-52.812-24.692-2.428-1.342-4.278-3.424-4.086-5.806V155.5z"/>
    <path fill="#fff" d="M284.902 151.278c4.653-2.343 11.066-1.248 17.138 1.516 6.036 2.747 58.329 27.299 63.891 29.889 1.831.852 4.261 1.988 6.258 3.343 1 .678 1.913 1.424 2.593 2.235s1.154 1.717 1.215 2.706l.033.531h-.045c-.167 1.893-1.891 3.756-5.559 5.592-11.742 5.882-55.221 27.967-63.118 31.714-3.999 1.899-8.044 2.885-11.607 3.132-3.552.247-6.67-.237-8.791-1.33v-.001c-1.988-1.019-3.397-2.6-3.376-4.492.021-2.087 1.779-4.213 5.548-6.07 5.151-2.539 33.044-17.685 47.963-25.805l6.811-3.71 1.697-.926-1.463-.638c-1.532-.668-3.73-1.626-6.387-2.788a7579 7579 0 0 1-19.839-8.704c-14.723-6.487-30.331-13.438-33.744-15.24-2.186-1.156-3.906-2.875-4.101-4.893l-.001.001a3.7 3.7 0 0 1-.003-.683v-.036l.003-.024c.164-1.771 1.529-3.495 4.309-5.017zm16.724 2.426c-5.995-2.729-12.041-3.665-16.274-1.533-3.051 1.536-4.203 3.138-4.337 4.503v.003l-.001.022a4 4 0 0 0-.014.277l.012.258.001.006c.144 1.511 1.488 3.004 3.575 4.107h-.001c3.372 1.781 18.932 8.712 33.681 15.21a7287 7287 0 0 0 26.221 11.491l1.775.774.466.203.119.052.038.016h.002l-.2.459.201-.458.936.408-.897.49-.002.001-.009.005-.032.017-.13.071-.506.276-1.915 1.044-6.813 3.71c-14.902 8.111-42.823 23.272-47.998 25.823-3.694 1.821-4.975 3.698-4.99 5.185v.001c-.014 1.339.993 2.649 2.833 3.591h.001c1.9.979 4.816 1.462 8.264 1.223 3.437-.239 7.36-1.192 11.247-3.038l1.879-.908c11.314-5.53 50.194-25.274 61.221-30.797 3.986-1.995 5.106-3.765 5.016-5.166l-.006-.08c-.063-.676-.397-1.358-.973-2.045-.599-.713-1.428-1.401-2.388-2.052-1.921-1.303-4.276-2.407-6.119-3.264h-.001c-5.575-2.596-57.85-27.14-63.882-29.885"/>
    <path fill="#fff" d="M273.282 103.502c8.43-.063 16.919 1.673 23.426 5.255l119.603 65.818c6.563 3.612 10.05 8.479 10.189 13.48l.014.514h-.021v.071c-.118 4.827-3.35 9.534-9.518 13.111l-117.34 68.081c-6.441 3.737-14.95 5.62-23.461 5.667s-17.08-1.742-23.639-5.407L133.4 203.545c-6.73-3.761-10.117-8.874-9.889-14.068.21-4.797 3.495-9.47 9.658-13.02l116.876-67.352c6.381-3.677 14.808-5.54 23.237-5.603m.008 1c-8.306.062-16.552 1.9-22.746 5.469l-116.876 67.352c-5.988 3.449-8.969 7.862-9.158 12.198-.205 4.678 2.836 9.495 9.378 13.151l119.135 66.547c6.372 3.56 14.76 5.326 23.145 5.28 8.386-.047 16.713-1.905 22.965-5.532l117.341-68.081c5.983-3.47 8.907-7.904 9.019-12.257v-.688c-.187-4.471-3.344-9.012-9.664-12.49l-119.603-65.818c-6.321-3.479-14.63-5.194-22.936-5.131"/>
</svg>
