<svg xmlns="http://www.w3.org/2000/svg" width="550" height="550" fill="none" viewBox="0 0 550 550">
    <path fill="#fff" d="M494.332 212.353c-.556 4.504-.264 9.503.031 14.568.699 11.994 1.42 24.353-9.042 31.351-.836.894-2.101 1.526-3.369 2.159-2.11 1.054-4.231 2.113-4.402 4.397l.003.466c.039 6.477.079 12.952-.029 19.426.21 2.547 2.865 4.043 5.529 5.543 1.651.93 3.306 1.862 4.384 3.048 6.781 5.038 7.486 12.823 6.821 20.734.007 5.151-.003 10.301-.012 15.452-.023 12.874-.047 25.748.175 38.619.291 13.579-11.033 19.48-21.88 25.132-3.727 1.942-7.398 3.855-10.522 6.04-4.461 2.59-8.928 5.173-13.395 7.757l-.016.009-.017.01-7.121 4.12c-18.052 10.301-36.018 20.766-53.985 31.231l-.005.002-.001.001-.001.001c-28.892 16.828-57.786 33.657-87.038 49.811-31.033 13.125-52.916.027-77.902-14.928-2.619-1.567-5.271-3.155-7.972-4.735a149405 149405 0 0 0-125.141-72.315c-3.3-2.377-7.301-4.443-11.383-6.55-11.061-5.712-22.713-11.729-22.6-25.051.114-8.141.04-16.303-.035-24.466-.124-13.6-.248-27.205.497-40.732.938-4.772 3.956-8.332 7.745-11.191.945-1.021 2.334-1.736 3.72-2.45 2.339-1.204 4.67-2.404 4.856-5.066-.115-6.629-.074-13.263-.026-19.892-.167-2.094-2.3-3.351-4.97-4.925-2.94-1.731-6.531-3.847-8.876-7.887-1.814-2.759-2.929-5.718-2.929-9.06q0-7.482.006-14.964c.009-14.963.018-29.927-.054-44.89-.92-9.51 5.119-17.355 13.31-21.543a20212 20212 0 0 0 13.584-7.864l.005-.002.005-.003.005-.003c6.43-3.724 12.86-7.449 19.295-11.164 29.329-16.873 58.619-33.814 87.91-50.756l.023-.013a106248 106248 0 0 1 35.032-20.257c2.528-1.427 5.045-2.926 7.57-4.43l.001-.001c12.07-7.191 24.318-14.49 38.818-14.431 19.656-2.117 36.239 7.893 52.488 17.701 4.109 2.48 8.197 4.948 12.307 7.203 16.662 9.654 33.342 19.275 50.022 28.897l.002.001.001.001.015.008 10.494 6.054c13.052 7.6 26.139 15.14 39.227 22.68l.002.001c15.869 9.142 31.737 18.284 47.542 27.534 6.586 3.553 11.413 10.16 11.383 17.824.12 7.774.102 15.552.084 23.329v.005q-.012 4.227-.014 8.454h-.151zm-218.431 92.976c16.831.616 31.769-8.468 46.247-17.271 4.811-2.925 9.57-5.819 14.331-8.316 17.623-10.248 35.28-20.434 52.938-30.621l.006-.003.015-.009.003-.002.004-.002.003-.002c11.868-6.847 23.736-13.693 35.594-20.558a22419 22419 0 0 1 43.616-25.182h.001l.001-.001.001-.001 10.292-5.933c15.475-7.209 20.424-23.718 4.015-33.443-35.421-20.631-70.928-41.12-106.435-61.608l-.001-.001-.002-.001-.005-.003-.011-.006c-15.534-8.964-31.068-17.927-46.594-26.903-3.301-1.838-6.581-3.81-9.874-5.788-13.989-8.404-28.198-16.94-45.087-16.046-17.119-.93-31.504 7.758-45.678 16.32-3.834 2.315-7.652 4.622-11.506 6.726-27.673 16.056-55.386 32.044-83.099 48.033l-.003.002-.01.005a49961 49961 0 0 0-64.104 37.025c-15.039 7.121-20.021 23.249-4.025 32.985 10.94 6.579 22.018 12.935 33.095 19.291a3576 3576 0 0 1 17.507 10.089l28.18 16.274c20.918 12.08 41.837 24.159 62.75 36.246 6.017 3.071 11.816 6.671 17.604 10.265 15.5 9.622 30.92 19.195 50.231 18.439m190.568-99.118c9.841-5.104 19.398-10.06 26.84-19.821.131 8.486.096 16.952.062 25.416v.004c-.039 9.476-.078 18.948.116 28.443.129 8.254-3.535 14.049-10.179 18.097-35.493 20.798-71.144 41.338-106.793 61.877l-.022.012c-14.367 8.278-28.734 16.555-43.09 24.849-55.878 36.565-70.832 27.673-119.307-1.155l-.002-.001c-3.087-1.836-6.31-3.752-9.688-5.743-18.751-11.135-37.717-21.94-56.682-32.745l-.001-.001c-28.406-16.183-56.813-32.368-84.502-49.66-4.602-3.582-6.818-8.45-6.77-14.5.24-7.691.14-15.522.038-23.344-.137-10.677-.274-21.34.457-31.616 2.334 5.144 6.832 8.476 11.545 11.231 12.48 7.244 24.987 14.442 37.495 21.641 7.051 4.058 14.102 8.116 21.148 12.183 15.805 8.953 31.495 18.141 47.186 27.329l.001.001.002.001.001.001c25.317 14.825 50.638 29.653 76.455 43.502 19.235 7.878 41.927 5.352 59.415-5.706 13.941-8.171 27.944-16.241 41.948-24.311 12.214-7.039 24.428-14.078 36.602-21.184 20.889-12.003 41.775-24.014 62.587-36.15 4.956-3.369 10.084-6.029 15.138-8.65m17.736 116.794c3.825-2.185 6.395-5.385 8.868-9.065.207 8.864.202 17.704.198 26.542-.005 8.993-.01 17.985.208 26.999.753 12.47-9.484 18.153-19.003 23.437-1.775.985-3.524 1.956-5.173 2.955q-26.26 15.178-52.525 30.344l-.025.015-.025.014-.026.015-.09.052a81696 81696 0 0 0-91.7 53.011c-31.431 20.753-57.417 27.586-90.657 5.355-25.082-14.48-50.156-28.973-75.23-43.466a149755 149755 0 0 0-89.577-51.748c-6.442-3.446-12.524-9.104-12.853-16.852-.01-5.209-.033-10.415-.058-15.62-.063-13.779-.127-27.551.087-41.335 3.594 5.979 8.853 9.698 14.8 12.875a31894 31894 0 0 1 84.484 48.825 14226 14226 0 0 1 62.163 35.874c4.18 2.217 8.289 4.716 12.41 7.222 12.195 7.416 24.5 14.898 39.086 15.359 13.75 1.119 27.763-1.932 39.445-9.381a15219 15219 0 0 1 53.594-31.024 41059 41059 0 0 0 54.276-31.326c12.182-7.039 24.363-14.078 36.55-21.108 10.279-5.958 20.554-11.915 30.773-17.969M73.179 290.408c-.325 10.437-.517 16.609 1.807 21.612 3.361 7.239 11.99 12.032 33.099 23.76h.001l.005.004q2.225 1.235 4.639 2.578c21.314 12.269 42.6 24.588 63.885 36.907l.003.002.026.015c20.162 11.668 40.323 23.337 60.51 34.963 18.571 13.182 43.899 17.551 64.479 6.346a54426 54426 0 0 0 80.065-46.208l.027-.016.042-.024a62463 62463 0 0 1 66.798-38.566c2.743-1.978 6.022-3.683 9.353-5.415 8.868-4.61 18.107-9.413 18.609-20.077-.055-5.347-.019-10.693.018-16.037v-.012c.058-8.681.117-17.358-.214-26.036-25.855 14.744-51.606 29.66-77.359 44.576l-.002.002-.002.001-.007.004-.006.003-.006.003-.005.004c-19.394 11.233-38.789 22.467-58.229 33.628-5.039 2.701-10.042 5.747-15.076 8.812l-.004.002h-.001c-17.925 10.914-36.237 22.062-57.958 18.723-13.671-.904-25.246-7.944-36.743-14.936h-.001c-4.179-2.541-8.347-5.077-12.603-7.308-23.904-13.728-47.738-27.515-71.573-41.304l-.002-.001-.001-.001c-24.446-14.141-48.893-28.284-73.42-42.363.32 11.116.055 19.625-.154 26.359m404.79 6.973c-.018-2.648-.038-5.626.039-9.021 11.067 4.625 20.763 17.388 11.582 28.182-6.617 6.506-14.805 10.929-22.984 15.348-4.363 2.356-8.723 4.712-12.841 7.381-21.529 12.386-43.031 24.817-64.533 37.247l-.014.009-.014.008-.014.008-.004.002c-26.511 15.326-53.023 30.653-79.583 45.896-20.155 13.44-47.888 13.776-68.29.672-25.037-14.438-50.061-28.904-75.085-43.37l-.022-.013-.022-.013-.013-.007a81110 81110 0 0 0-76.17-43.996c-3.422-2.384-7.275-4.404-11.151-6.436-7.816-4.097-15.726-8.245-20.397-15.528-6.205-10.862 3.73-21.03 13.414-25.373l-.006.472c-.16 14.222-.237 21.078 2.755 26.109 2.786 4.683 8.232 7.783 18.748 13.77q1.481.843 3.1 1.768c44.121 25.52 88.26 51.004 132.406 76.474 34.503 22.559 55.951 23.774 90.782.831 21.362-12.408 42.761-24.749 64.16-37.09l.017-.01.008-.004c25.048-14.445 50.094-28.89 75.08-43.44 19.183-10.282 19.154-14.56 19.052-29.876M273.626 87.644l.79.103c6.781.88 12.138 1.576 17.547 5.648 30.437 17.632 60.878 35.26 91.366 52.807 5.772 3.286 11.507 6.643 17.242 10 8.323 4.872 16.646 9.745 25.08 14.398 2.674 1.341 4.34 3.527 6.016 5.806 1.648 2.24 1.615 2.311.597 4.475l-.158.336-.099.212c-1.821 3.926-4.975 6.179-8.594 8.24-25.914 14.906-51.798 29.865-77.684 44.824l-.001.001-.002.001-27.089 15.652c-3.828 2.038-7.638 4.379-11.458 6.726-16.121 9.906-32.425 19.924-51.03 7.733-24.81-14.582-49.758-28.939-74.705-43.297l-.002-.001-.001-.001-.003-.002c-17.165-9.878-34.329-19.757-51.449-29.708-1.232-.888-2.642-1.594-4.054-2.301-2.881-1.443-5.769-2.888-7.152-5.888-3.981-6.799 4.506-12.261 9.562-15.161q8.281-4.78 16.56-9.565l.022-.013.022-.013.039-.022q8.28-4.785 16.56-9.566a53088 53088 0 0 0 66.99-38.695c4.765-2.447 9.432-5.341 14.12-8.248 9.857-6.113 19.807-12.284 30.964-14.474zm77.785 62.676c2.948 2.681 6.091 7.97 1.075 10.423-2.826 1.439-5.352 3.063-7.948 4.732h-.002l-.001.001c-1.359.874-2.738 1.76-4.189 2.638.897.383 1.711.961 2.499 1.521 1.561 1.108 3.02 2.143 4.821 1.449 2.296-1.324 4.547-2.719 6.797-4.114 4.29-2.659 8.575-5.315 13.158-7.468-13.451-7.706-26.895-15.509-40.343-23.314l-.004-.003-.005-.002c-12.816-7.439-25.635-14.879-38.467-22.239-3.536-2.502-7.71-3.078-11.873-3.652q-.917-.126-1.829-.259c-10.714.874-19.932 6.721-29.085 12.528-4.27 2.708-8.525 5.408-12.912 7.59 3.733 2.29 7.54 4.414 11.349 6.539l.001.001c3.076 1.716 6.153 3.433 9.192 5.238 1.385.801 2.427.41 3.59-.274 1.915-.916 3.856-2.167 5.83-3.441 5.565-3.591 11.403-7.357 17.73-4.285a352 352 0 0 1 6.155 3.466c4.533 2.597 6.51 3.73 8.352 3.541 1.425-.146 2.768-1.083 5.151-2.746 2.456-1.714 6.017-4.199 11.909-7.382 3.612-2.109 7.109 2.305 7.523 5.669.978 2.963-4.48 5.905-9.109 8.399v.001c-2.14 1.153-4.102 2.211-5.169 3.131.866.385 1.668.946 2.449 1.492 1.886 1.32 3.645 2.55 5.857.982 3.199-2.009 6.434-3.964 9.67-5.918l.006-.004c1.989-1.202 3.978-2.403 5.958-3.617 3.763-2.534 7.475 1.927 7.974 5.48.962 2.847-4.674 5.921-9.383 8.489-2.158 1.177-4.122 2.248-5.165 3.142.963.378 1.825 1.001 2.654 1.6 1.679 1.212 3.226 2.329 5.216 1.133 1.71-.775 4.036-2.34 6.554-4.034 5.031-3.383 10.828-7.283 14.018-6.437zm-35.529 99.805c-3.699-2.622-7.736-4.742-11.766-6.859-5.16-2.71-10.311-5.415-14.73-9.163l.205-.237.001-.001.207-.238 12.66 7.115.25.14 11.636 6.539c.059-3.379 1.662-5.506 3.956-7.479-8.251-4.664-16.266-9.192-24.28-13.72l.11-.259.025-.058.134-.315c5.601 2.057 10.786 5.141 15.969 8.224h.001l.001.001c3.313 1.97 6.627 3.941 10.049 5.644 2.848 1.447 2.185 3.994 1.515 6.563q-.11.414-.211.827c2.139-1.242 4.229-2.453 6.322-3.667l.032-.018 5.726-3.321c-3.424-2.118-6.947-3.991-10.441-5.849h-.001c-5.737-3.05-11.397-6.059-16.419-10.044l.206-.264q.105-.13.207-.264l10.298 5.791c4.57 2.57 9.166 5.154 13.824 7.775.273-3.202 1.691-5.489 4.14-7.391-6.032-3.408-11.915-6.729-17.76-10.03h-.001v-.001l-6.227-3.516c.092-.218.188-.432.28-.65 5.412 1.939 10.419 4.939 15.423 7.936 3.135 1.878 6.268 3.755 9.5 5.371 3.704 1.721 3.18 4.827 1.71 8.022l.303.218.051-.03c4.138-2.394 8.277-4.789 12.632-7.305-2.512-1.405-5.082-2.752-7.656-4.1v-.001h-.001c-6.85-3.589-13.733-7.196-19.663-11.98l.181-.219.181-.22 10.601 5.956 13.458 7.561c.332-3.194 1.684-5.462 4.114-7.386-4.528-2.558-8.966-5.064-13.364-7.546-3.495-1.973-6.964-3.931-10.432-5.891q.114-.3.229-.594c5.474 1.887 10.517 4.895 15.557 7.902 3.138 1.871 6.274 3.742 9.513 5.342 4.258 2.098 2.452 5.88.576 9.293l7.235-4.189 3.141-1.819 2.066-1.196 2.365-1.369c-5.964-2.09-11.386-5.342-16.813-8.597-3.049-1.828-6.099-3.658-9.247-5.282-.544-.313-.966-.838-1.388-1.363l-.001-.001c-.197-.244-.393-.489-.602-.712l.184-.171.185-.172 13.737 7.726.978.55.418.235 8.46 4.759c.831-3.169 1.928-5.093 4.155-7.38-7.929-4.48-15.77-8.908-23.615-13.336l.062-.128.041-.082.027-.055.011-.023.085-.172.055-.113c2.31.329 4.257 1.511 6.228 2.709 1.467.891 2.948 1.79 4.601 2.351v-15.756c-14.412 8.176-28.735 16.492-43.059 24.809l-.003.002c-10.381 6.027-20.762 12.054-31.178 18.028-4.539 2.626-9.112 2.807-13.71.185-10.229-5.864-20.407-11.776-30.582-17.686-14.681-8.528-29.357-17.053-44.178-25.43v16.764l-.606.118c-.981-3.89-.845-7.967-.709-12.035.075-2.222.149-4.442.041-6.627.011-1.167-.388-1.898-1.389-2.452-2.728-1.516-5.448-3.047-8.169-4.578a2290 2290 0 0 0-5.744-3.226c-4.269-2.032-2.814-6.05-.624-9.189l-.126-.13-.125-.129c-14.499 8.378-28.999 16.753-43.799 25.302l-3.48 2.01q23.219 13.413 45.262 26.149c1.917-3.654 4.987-5.36 8.229-7.162.919-.511 1.853-1.029 2.777-1.602 2.555-1.292 5.012-2.925 7.471-4.559 3.994-2.653 7.994-5.311 12.433-6.525l.001.005q.055.263.106.527l-11.414 6.911-14.753 8.933c2.751 1.766 3.974 4.17 4.587 7.121l25.912-15.638.429.473c-4.795 4.181-10.235 7.259-15.745 10.376-3.606 2.04-7.242 4.097-10.748 6.492 3.066 1.764 5.813 3.346 8.766 5.047l.342.197c-.398-3.748 3.458-5.729 7.092-7.597 1.692-.869 3.335-1.714 4.479-2.7l3.873-2.34.004-.003a3697 3697 0 0 1 12.235-7.377l.125-.08c.657-.422 1.377-.884 2.282.161l-13.262 8.028-.204.123-.015.009-12.546 7.595c2.714 1.773 3.955 4.17 4.45 7.202l12.811-7.722.288-.173 12.814-7.724.076.103.127.17.001.002.206.276c-4.69 3.981-9.963 6.979-15.278 10.002-3.798 2.159-7.618 4.332-11.263 6.883l.987.564 8.509 4.855c-.358-2.708.414-4.148 2.36-5.289 3.673-1.892 7.213-4.168 10.755-6.444 5.315-3.417 10.63-6.833 16.391-8.95l.019.09.04.186.032.151.027.127-9.211 5.577c-5.476 3.314-10.98 6.647-16.568 10.031 2.655 1.751 3.977 4.037 4.461 7.187l3.584-2.159.018-.011c7.428-4.475 14.703-8.858 21.978-13.238l.196.24.196.24c-4.579 3.996-9.872 6.997-15.204 10.019-3.793 2.151-7.606 4.312-11.196 6.852l3.472 1.999.022.013 6.315 3.635c-.857-3.468.883-4.831 3.199-6.183 3.557-1.819 6.981-4.032 10.404-6.244h.001c5.045-3.261 10.089-6.52 15.555-8.518l.159.591-25.514 15.453c2.56 1.883 3.985 4.114 4.384 7.231 8.658-5.218 17.108-10.311 25.558-15.401l.003.004q.197.236.4.473c-4.614 4.061-9.992 7.097-15.399 10.149-3.773 2.13-7.559 4.267-11.108 6.766 37.676 23.708 40.093 22.26 73.568 2.205l.01-.006.034-.02c1.854-1.111 3.802-2.278 5.857-3.501zM273.187 89.088c-6.892 1.293-14.97 5.045-21.1 9.24-14.955 8.602-29.884 17.247-44.814 25.892l-.009.005a17154 17154 0 0 1-45.52 26.298q-4.42 2.549-8.843 5.092l-.007.004c-7.196 4.139-14.393 8.278-21.554 12.477-9.835 4.798-19.271 13.1-4.565 20.158 1.027.635 1.951.643 3.007.03a8023 8023 0 0 1 17.762-10.272l.004-.003.026-.015.009-.005q4.61-2.66 9.219-5.324a50241 50241 0 0 1 34.095-19.725c13.6-7.864 27.201-15.727 40.791-23.606 4.622-2.261 9.101-5.059 13.594-7.866 9.327-5.826 18.714-11.69 29.559-12.864 10.247.78 18.874 6.173 27.489 11.558 3.906 2.442 7.809 4.882 11.86 6.89 14.587 8.221 29.1 16.718 43.613 25.215 21.248 12.44 42.496 24.88 63.977 36.456 4.388-2.009 8.839-5.06 9.755-10.038a39 39 0 0 1-1.238-1.711l-.001-.001c-1.037-1.486-2.079-2.981-3.485-3.928-9.1-5.579-18.387-10.881-27.673-16.183l-.001-.001c-6.241-3.563-12.482-7.126-18.667-10.774a13790 13790 0 0 1-56.279-32.49c-5.873-2.791-11.346-6.275-16.789-9.74-10.605-6.751-21.097-13.43-34.223-14.773zm2.629 45.21-.144-.495c-16.57 7.489-32.282 16.936-47.993 26.382-10.301 6.193-20.602 12.386-31.144 18.027-2.748 1.584-2.788 3.789-.018 5.422 5.686 3.347 11.403 6.643 17.118 9.937l.484.279c9.358 5.343 18.685 10.743 28.012 16.143l.004.003.005.002.004.003.002.001h.001l.001.001c9.51 5.506 19.02 11.012 28.564 16.459 3.235 1.828 6.866 1.809 10.116.022 11.228-6.296 22.357-12.769 33.487-19.241a4329 4329 0 0 1 18.988-11q3.372-1.952 6.746-3.899a2210 2210 0 0 0 15.266-8.865c2.486-1.459 2.442-3.708-.04-5.149a25294 25294 0 0 0-70.831-40.922c-.389-.223-.775-.455-1.161-.686-2.277-1.366-4.568-2.739-7.467-2.424m94.893 84.186 18.84-10.885 30.673-17.723-17.819-10.293-.054-.032-.356-.205-.314-.182-.08-.046c-10.383-5.997-20.672-11.942-30.964-17.884q.16.332.323.665c1.612 3.309 3.23 6.63-.965 8.734-3.757 2.22-8.392 5.005-11.867 7.25.544 5.272.471 10.33.398 15.401v.004c-.037 2.537-.073 5.077-.033 7.649a862 862 0 0 0 12.683 7.117c5.064 2.486 2.102 6.995-.469 10.43zm-127.2-80.793.003.001c3.392 1.92 6.792 3.844 10.322 5.849q-1.038.602-2.011 1.17h-.001c-2.12 1.237-4.052 2.363-6.018 3.422-3.669-1.081-7.157-3.234-10.62-5.37-1.989-1.228-3.969-2.45-5.97-3.46-2.46-1.913-.953-5.522 1.167-7.11.975-.846 2.068-.768 3.158-.151 3.383 1.921 6.662 3.776 9.947 5.636l.005.002zm-19.849 8.796c-2.514-1.366-5.03-2.732-7.486-4.193-3.254-2.278-7.657 5.851-4.233 7.391l2.97 1.67c3.938 2.216 7.876 4.431 11.837 6.606 1.903.531 3.983-.857 6.031-2.225 1.116-.745 2.223-1.484 3.287-1.904h.004c-3.938-2.744-8.172-5.043-12.409-7.345m-17.223 10.334c-2.516-1.352-5.032-2.705-7.464-4.171-3.332-2.216-7.535 5.921-4.185 7.42l2.389 1.348.029.016.029.016c3.855 2.175 7.71 4.35 11.584 6.487 1.88.932 4.222-.621 6.438-2.092 1.132-.75 2.232-1.479 3.22-1.845h.004c-3.762-2.725-7.902-4.951-12.044-7.179m-5.607 17.21c-3.809-2.662-7.986-4.912-12.157-7.158v-.001c-2.315-1.246-4.628-2.492-6.874-3.806-.68-.37-1.98-.281-2.648.14-1.633 1.03-2.523 2.685-2.733 4.65-.282 2.008 1.464 2.845 3.14 3.648.7.335 1.389.665 1.912 1.072l.066.037c3.904 2.189 7.807 4.377 11.431 6.412l5.07-3.216 2.797-1.774zm-7.22-20.612-.277-.333c-4.425 2.556-8.849 5.112-13.436 7.764 4.756 2.011 9.123 4.569 13.508 7.138 2.66 1.558 5.326 3.12 8.09 4.566 1.698.693 3.193-.373 4.726-1.465.812-.579 1.634-1.165 2.502-1.501-2.997-1.985-6.074-3.658-9.17-5.341a232 232 0 0 1-4.89-2.71c-3.69-1.714-2.623-5.23-1.057-8.118zm23.31.594c3.141 1.732 6.255 3.448 9.365 5.438-.912.359-1.75.944-2.566 1.513-1.527 1.065-2.974 2.075-4.68 1.444-2.889-1.579-5.704-3.183-8.511-4.783v-.001h-.001c-4.198-2.393-8.381-4.777-12.777-7.057l10.984-6.394.024-.014 1.668-.971c-1.149 3.302-2.15 6.279 1.503 8.033a305 305 0 0 0 4.99 2.791zm131.034 18.5c1.153.435 2.307 1.251 3.454 2.061 2.174 1.535 4.322 3.053 6.389 1.939 3.915-2.46 7.856-4.875 11.852-7.198 1.47-.857 1.884-1.936 1.573-3.516-.742-3.76-3.649-5.141-6.865-3.217-5.659 3.375-10.652 6.363-16.399 9.927zm-127.211-35.254 6.273-3.623c-.957 5.584-.517 5.822 3.005 7.729.446.241.942.509 1.49.819 2.75 1.551 5.491 3.113 8.358 4.746l4.085 2.326c-.901.35-1.78.941-2.646 1.523-1.512 1.018-2.98 2.006-4.442 1.62a9489 9489 0 0 1-18.94-10.622l-2.536-1.425 5.288-3.055.001-.001zM330.6 162.515c1.108.423 2.271 1.22 3.435 2.018 2.205 1.512 4.415 3.027 6.257 1.997q2.136-1.296 4.278-2.579l.003-.002.007-.004.001-.001h.001l.001-.001c2.343-1.407 4.686-2.813 7.01-4.253 2.468-1.529 2.826-3.546 1.075-5.924-1.991-2.707-3.113-2.907-5.61-1.33-2.496 1.571-4.916 3.021-7.334 4.469-2.999 1.796-5.993 3.59-9.124 5.61m-14.147-8.141c2.142 1.423 4.375 2.907 6.026 2.28 1.589-1.141 3.399-2.101 5.216-3.066 3.15-1.671 6.322-3.355 8.409-6.009.609-3.168-3.524-8.051-6.759-4.963l-1.648 1c-4.882 2.965-9.43 5.727-14.511 8.853.994.394 2.117 1.14 3.266 1.904zm-20.315-12.139c1.302 1.376 3.037 2.275 4.765 3.17v.001h.001c.898.465 1.794.93 2.628 1.461.414.218 1.223.026 1.692-.251a784 784 0 0 0 8.013-4.833h.001l.001-.001q1.788-1.088 3.578-2.173c3.091-1.44 1.599-4.687-.111-6.655-2.067-2.508-4.595-.705-6.972.99-.995.709-1.963 1.399-2.86 1.747-3.56 2.168-7.117 4.339-10.732 6.548zm53.919 83.662c.905 5.495 7.372-2.778 4.687-5.071-2.711-.82-4.58 2.84-4.687 5.071m-11.808 6.895c-.816-4.979-5.946 1.086-5.381 3.767.905 4.458 5.736-1.547 5.381-3.767m-17.126 9.968c-.048-1.381-1.617-1.706-2.637-1.03-2.4.916-4.59 8.195-.262 6.364 1.732-1.168 2.645-2.878 2.899-5.334m46.093-26.898c.192 1.448 1.647 1.939 2.722.923.218-.458.569-.973.939-1.519 1.068-1.571 2.304-3.389 1.015-4.771-2.885-.661-4.439 2.501-4.672 5.367zm-131.76 33.676c.056-2.006-1.554-4.894-2.973-5.526-1.451-.69-2.762-.118-2.53 1.666.148 2.013 3.612 6.113 5.507 3.86zm-23.123-13.61c-.111 1.815 1.321 2.581 2.792 3.368.402.215.808.432 1.185.672 1.16.743 1.592.122 1.492-.975.351-2.766-5.06-8.55-5.466-3.065zm-12.528-5.522c1.215-2.264-1.891-8.059-4.477-6.36-1.555 3.068.844 4.369 3.22 5.656.428.232.854.463 1.257.704m-20.82-16.468c2.057.406 3.999 3.835 3.351 6.35-.448-.258-.894-.496-1.329-.729h-.001c-1.025-.548-1.996-1.067-2.822-1.758-1.156-1.023-1.773-4.502.801-3.863m35.05 116.82v-17.507h.015q0-2.076.004-4.151c.006-4.566.013-9.132-.052-13.695-.011-.75-.462-1.821-1.053-2.183-36.582-21.281-73.198-42.521-109.895-63.606-1.433-.82-1.743-.624-1.784 1.027-.014 11.896-.026 23.796.03 35.692.241 2.444 2.471 3.507 4.651 4.546 1.028.49 2.044.974 2.835 1.596a29264 29264 0 0 1 52.911 30.584 31549 31549 0 0 0 50.17 29.004c1.858 1.068 2.168.861 2.168-1.307m-109.681-98.61c-.427 6.897-.361 13.84-.295 20.784.039 4.11.078 8.22.015 12.321.723 2.113 3.722 3.618 6.496 5.01 1.487.746 2.909 1.46 3.882 2.218a23659 23659 0 0 1 36.261 21.018c20.549 11.927 41.084 23.847 61.752 35.7-.294-1.926-.147-6.567.023-11.889v-.001c.331-10.424.745-23.458-1.917-23.81-18.602-10.608-37.091-21.348-55.584-32.089l-.001-.001-.002-.001-.003-.002c-16.844-9.784-33.69-19.569-50.627-29.258m-3.161 141.094c.118-2.449.05-4.93-.018-7.411-.112-4.081-.225-8.164.494-12.119 21.607 11.688 42.876 24.158 64.148 36.63l.002.001c15.44 9.052 30.881 18.105 46.454 26.861 1.219.698 1.766 1.474 1.758 2.929-.205 4.89-.106 9.835-.007 14.781.15 7.471.3 14.942-.602 22.222-18.498-10.082-36.734-20.753-54.972-31.425-12.641-7.397-25.282-14.794-38.011-21.995-5.508-3.532-9.468-5.528-12.31-6.959-3.021-1.522-4.778-2.408-5.786-3.825-1.403-1.971-1.358-4.971-1.251-12.143.031-2.123.068-4.613.075-7.55h.026zm2.512-7.944v.002c.004 7.296.008 14.533-.152 21.881-.063 2.903.509 4.942 3.446 5.883 14.741 8.458 29.43 17.018 44.12 25.579l.003.002c20.316 11.838 40.634 23.678 61.096 35.252.351-6.982.283-14.031.216-21.079v-.002c-.041-4.229-.081-8.458-.031-12.672 0-.525-.51-1.256-.99-1.537a4607 4607 0 0 0-20.195-11.717l-.015-.009-6.796-3.93c-9.11-5.266-18.182-10.531-27.247-15.79l-.001-.001c-17.774-10.313-35.517-20.608-53.447-30.866v.003c-.01 3.018-.008 6.015-.007 9.001m138.514-191.441c-5.008 18.774 16.228 25.739 31.116 25.773v.003c56.56-.129 29.957-62.956-9.602-50.687-11.834 4.066-19.136 12.531-21.514 24.911m62.247 5.784c-.764 13.95-18.134 18.282-29.676 18.541-53.379 2.183-31.773-58.809 8.447-48.051 12.687 4.13 21.241 16.14 21.229 29.51"/>
</svg>
