<svg xmlns="http://www.w3.org/2000/svg" width="550" height="550" fill="none" viewBox="0 0 550 550">
    <path fill="#fff" d="M142.108 248.916v92.116l-.002 7.03v.063c-.003 10.248-.007 20.496.058 30.743.004.952.516 2.348 1.244 2.776 7.556 4.467 15.162 8.847 22.769 13.228q2.978 1.715 5.955 3.432 8.392 4.841 16.785 9.679l.021.012.021.012.004.002q12.995 7.488 25.981 14.987c7.603 4.39 15.199 8.791 22.795 13.192q6.308 3.656 12.617 7.308 5.85 3.386 11.703 6.764l.002.001c10.424 6.02 20.848 12.039 31.223 18.139 1.94 1.14 3.288 1.08 5.152-.036 5.142-3.074 10.335-6.063 15.528-9.051l.002-.001c2.231-1.285 4.463-2.569 6.69-3.86q5.787-3.353 11.568-6.712 6.698-3.89 13.4-7.772 4.039-2.335 8.082-4.665l.039-.023.005-.003c4.197-2.42 8.395-4.841 12.586-7.277.976-.564 1.664-.524 2.34.452.42.606.878 1.187 1.336 1.768.523.662 1.045 1.325 1.512 2.024.644.968 1.16 1.152 2.228.492 3.64-2.252 7.34-4.408 11.048-6.548q10.318-5.947 20.642-11.886t20.642-11.886c7.431-4.286 14.856-8.584 22.28-12.881l.054-.032 10.346-5.987 2.258-1.306 2.152-1.245.235-.137c6.61-3.825 13.219-7.649 19.843-11.448 1.028-.588 1.48-1.244 1.436-2.5-.081-2.344-.072-4.691-.064-7.038q.008-1.531.004-3.062c-.084-24.828-.168-49.652-.248-74.48q0-.298.005-.594c.017-1.35.033-2.652-.937-3.902-7.031-9.053-14.022-18.138-21.013-27.222l-6.279-8.158-19.799-25.711-.289-.375-20.088-26.086-12.301-15.985-.173-.226-12.482-16.221q-4.023-5.222-8.048-10.443l-.008-.011-.009-.011-.036-.047-.005-.006c-5.869-7.615-11.738-15.229-17.594-22.854q-5.04-6.561-10.075-13.125l-.006-.009-.016-.02-.009-.012a11668 11668 0 0 0-23.63-30.726c-.396-.516-1.44-.848-2.124-.768-2.332.274-4.652.63-6.973.985-1.135.173-2.27.347-3.407.511q-10.809 1.56-21.617 3.11l-.005.002h-.002c-10.94 1.572-21.879 3.143-32.816 4.732-6.25.907-12.498 1.834-18.745 2.76l-.001.001c-6.538.97-13.076 1.94-19.618 2.887a7402 7402 0 0 1-17.542 2.51c-9.758 1.388-19.515 2.776-29.262 4.226-1.828.272-3.656 1.104-5.28 2.032a5323 5323 0 0 0-24.409 14.09l-.009.005-.002.002q-6.274 3.638-12.552 7.267c-6.482 3.747-12.971 7.484-19.461 11.22l-.005.004-.006.003q-8.509 4.897-17.012 9.805-5.284 3.052-10.563 6.11a4904 4904 0 0 1-23.173 13.358c-1.1.628-1.692 1.176-1.692 2.516q.06 42.989.024 85.972c0 1.644.572 2.028 2.14 1.78 6.512-1.024 13.036-1.972 19.564-2.916 17.364-2.508 34.728-5.004 52.092-7.5 2.932-.424 2.976-.388 2.976 2.656m229.09 181.322.574-.094v-2.484q-.024-9.684-.054-19.368v-.135c-.058-19.115-.116-38.23-.062-57.345.012-3.88-.868-6.944-3.34-10.076-7.273-9.211-14.397-18.537-21.521-27.864-3.157-4.132-6.313-8.265-9.483-12.388-4.118-5.354-8.249-10.699-12.38-16.044a8669 8669 0 0 1-12.38-16.044c-7.142-9.281-14.274-18.568-21.407-27.856q-7.965-10.373-15.937-20.744-8.687-11.3-17.381-22.595l-10.219-13.281-5.617-7.3c-7.29-9.472-14.579-18.943-21.835-28.44-.976-1.276-2.004-1.612-3.56-1.364-4.685.745-9.382 1.418-14.077 2.091h-.002l-3.929.565q-11.642 1.678-23.285 3.352c-15.349 2.208-30.699 4.415-46.043 6.644a18592 18592 0 0 0-34.671 5.075l-.024.003q-11.43 1.681-22.861 3.354l-.057.009c-2.375.347-3.57.522-4.17 1.213-.609.699-.609 1.927-.609 4.398v.012l.01 39.118.01 39.118q.001.298.007.596c.007.396.014.791-.007 1.188-.06 1.268.584 1.604 1.736 1.432 5.665-.834 11.331-1.66 16.997-2.487q5.196-.757 10.391-1.517 4.098-.6 8.193-1.209l.007-.001.007-.001c3.849-.57 7.698-1.14 11.549-1.697q5.257-.754 10.516-1.493c4.913-.693 9.827-1.385 14.736-2.107 2.328-.34 2.668-.136 2.668 2.248v102.6q0 3.616.003 7.232c.003 7.229.007 14.458-.023 21.684-.004 1.316.336 2.132 1.572 2.832 3.601 2.032 7.171 4.12 10.741 6.207h.001c2.172 1.27 4.343 2.54 6.522 3.797 5.965 3.444 11.936 6.879 17.906 10.314l.012.007.017.01.012.006c6.408 3.687 12.816 7.373 19.217 11.071 7.949 4.592 15.89 9.195 23.831 13.799l.038.021a20422 20422 0 0 0 47.955 27.729l.002.001.003.002 12.011 6.932c2.968 1.714 5.939 3.419 9.029 5.192l2.243 1.288c.028-.324.058-.606.085-.861.048-.451.087-.818.087-1.183l-.006-21.747v-.06c-.012-36.239-.023-72.478-.006-108.717 0-.416.225-.831.448-1.246h.001c.103-.192.206-.383.287-.574.169.1.354.187.539.274.394.185.788.371 1.025.678 2.596 3.353 5.166 6.725 7.736 10.097l.002.003q2.195 2.882 4.398 5.76c9.66 12.612 19.32 25.224 29.004 37.816a8824 8824 0 0 0 14.267 18.493l.017.021.019.025.02.025q3.892 5.034 7.781 10.072 3.566 4.625 7.126 9.254zm5.374.069-2.996 1.689h-.004v-2.664l-.027-14.813v-.053c-.041-22.17-.081-44.342-.169-66.514-.008-1.944.564-3.052 2.324-4.056 13.912-7.937 27.773-15.962 41.635-23.987l4.769-2.761c7.672-4.441 15.34-8.89 23.008-13.338l.012-.007.011-.006.062-.036.011-.006q9.985-5.795 19.976-11.583a3995 3995 0 0 1 16.096-9.268c.254-.145.529-.251.882-.387.192-.075.407-.158.654-.261q.038.425.081.804c.054.498.103.95.103 1.4q.024 12.976.044 25.953v.009c.031 18.736.061 37.473.116 56.21.004 1.508-.484 2.404-1.796 3.16a13200 13200 0 0 0-30.94 17.882q-6.427 3.723-12.856 7.442a92583 92583 0 0 1-54.74 31.64 655 655 0 0 1-6.256 3.551m105.649-150.402.199.291-2.79 1.607c-2.309 1.33-4.581 2.637-6.85 3.949l-12.453 7.21q-11.3 6.546-22.607 13.082-11.231 6.49-22.47 12.973l-15.022 8.671c-8.332 4.812-16.66 9.628-24.984 14.456l-.067.039c-2.449 1.422-2.469 1.433-4.201-.819q-8.249-10.723-16.495-21.448l-.005-.006-.005-.006a46453 46453 0 0 0-21.103-27.436 33849 33849 0 0 0-16.502-21.406l-.007-.01a25963 25963 0 0 1-20.435-26.516c-6.77-8.798-13.53-17.605-20.29-26.412l-.039-.05a37761 37761 0 0 0-16.403-21.358 53767 53767 0 0 0-23.736-30.84q-7.371-9.573-14.74-19.148a4 4 0 0 1-.296-.478v-.001c-.071-.127-.156-.28-.268-.469q1.218-.716 2.424-1.429h.001a717 717 0 0 1 5.015-2.943l13.619-7.882.122-.071.004-.002.003-.002c14.356-8.309 28.71-16.618 43.076-24.911q8.098-4.67 16.202-9.329h.002l.006-.004h.001a7271 7271 0 0 0 27.297-15.75c1.476-.857 2.324-.673 3.304.607 6.237 8.148 12.495 16.282 18.753 24.417l.01.014.019.024 6.274 8.157 11.229 14.616.004.005.003.004q9.197 11.974 18.4 23.943a71997 71997 0 0 0 34 44.18q5.709 7.41 11.424 14.815l.004.005.006.008c5.569 7.218 11.138 14.436 16.694 21.664a27353 27353 0 0 1 24.78 32.282l.003.004.003.004 8.07 10.522c.207.269.397.551.627.895zm-152.909 98.819c12.411 16.139 24.806 32.258 37.28 48.476l-32.5 18.779-.453.262-3.962 2.29-32.705 18.897V336.672zm-4.485-295.285v-.002a22 22 0 0 1-.175-.44l-.248.025q-.248.024-.496.058l-10.532 1.554c-7.972 1.177-15.943 2.355-23.916 3.518a32149 32149 0 0 1-51.688 7.5q-8.711 1.255-17.424 2.502h-.001c-13.19 1.89-26.379 3.779-39.559 5.734-2.08.308-4.188 1.104-6.044 2.116-3.908 2.132-7.755 4.376-11.601 6.62v.001h-.002a1022 1022 0 0 1-4.857 2.823q-6.874 3.963-13.752 7.922l-.01.006-.01.005c-7.117 4.098-14.234 8.196-21.344 12.303-9.054 5.23-18.104 10.47-27.154 15.71l-13.574 7.858q-3.92 2.274-7.836 4.552l-.045.026-.213.123q-1.385.807-2.77 1.611c.476.276.844.276 1.208.224q4.54-.654 9.077-1.314l.004-.001h.004l.003-.001c4.472-.65 8.942-1.299 13.416-1.936q7.46-1.059 14.923-2.106c7.034-.989 14.068-1.978 21.097-2.99 4.402-.633 8.801-1.296 13.199-1.96h.005l.003-.001c3.68-.555 7.36-1.109 11.041-1.647 6.347-.927 12.696-1.834 19.046-2.741q4.275-.61 8.55-1.223 3.675-.527 7.352-1.05c7.076-1.008 14.152-2.015 21.22-3.094a72 72 0 0 1 1.908-.255c2.532-.315 5.063-.63 7.412-2.021 6.416-3.799 12.882-7.512 19.348-11.225v-.001h.001l.003-.001.002-.002a3775 3775 0 0 0 8.022-4.615l15.28-8.826.017-.009.007-.005q11.17-6.454 22.344-12.904 6.062-3.497 12.127-6.993l.025-.015.011-.006a21409 21409 0 0 0 18.141-10.466 894 894 0 0 0 5.636-3.289l.005-.003 2.814-1.65Zm-167.084 222.92-.003 11.664q0 6.175.007 12.352v.001c.01 12.648.021 25.298-.067 37.947-.016 2.524.58 3.928 2.928 5.248 9.296 5.237 18.524 10.595 27.752 15.953l.005.003c4.163 2.417 8.326 4.834 12.495 7.24 6.343 3.662 12.694 7.312 19.045 10.963 7.073 4.065 14.146 8.131 21.211 12.213 7.859 4.543 15.708 9.105 23.556 13.667l.032.018.047.028.024.014q6.803 3.956 13.609 7.905c1.716.996 2.372.596 2.372-1.436.005-3.091.001-6.18-.003-9.269q-.004-3.09-.005-6.179v-11.736c.001-25.397.002-50.796-.036-76.192 0-1.108-.216-2.452-.852-3.292-10.4-13.696-20.876-27.336-31.36-40.972q-5.504-7.156-11.016-14.304c-5.619-7.289-11.238-14.577-16.832-21.884-.756-.988-1.48-1.26-2.672-1.076-6.776 1.036-13.56 2.012-20.344 2.984l-3.375.484c-11.399 1.636-22.799 3.271-34.205 4.84-1.82.248-2.364.968-2.356 2.796.053 13.337.048 26.676.043 40.014zM278.812 425.41l-.001.003c-.025.281-.054.603-.083.99v-.004l-3.382-1.928-.08-.045-.012-.007c-2.288-1.303-4.458-2.538-6.622-3.788a52543 52543 0 0 1-38.262-22.118l-.058-.034q-6.92-4.003-13.834-8.011l-.055-.032q-8.189-4.745-16.383-9.485l-2.035-1.176-1.485-.858c-7.837-4.531-15.67-9.059-23.54-13.534-1.384-.784-1.928-1.684-1.928-3.284.04-31.948.048-63.896-.012-95.844-.004-1.988.752-2.616 2.564-2.868 9.66-1.335 19.313-2.717 28.966-4.099l7.662-1.097 1.315-.184.001-.001c1.718-.239 3.435-.479 5.136-.807 1.552-.3 2.592.168 3.548 1.428 5.803 7.643 11.654 15.252 17.503 22.861l.002.002.009.012.874 1.137q7.317 9.519 14.638 19.034a68525 68525 0 0 1 15.701 20.415l.565.734.01.013c2.829 3.673 5.659 7.347 8.422 11.072.544.732.904 1.792.904 2.7.044 29.176.04 58.352.032 87.528 0 .377-.034.753-.08 1.274m-.518 14.005.606-.323c0-.771-.013-1.544-.026-2.317v-.001c-.031-1.783-.061-3.566.07-5.338.16-2.168-.74-3.308-2.56-4.344-8.981-5.109-17.925-10.282-26.869-15.456l-.028-.015-.027-.016q-4.255-2.462-8.512-4.921l-9.445-5.453-.241-.14q-12.782-7.38-25.562-14.763-3.803-2.197-7.609-4.389l-.001-.001-.003-.002c-8.421-4.854-16.841-9.707-25.207-14.656-2.016-1.192-3.556-1.424-5.472.016-.945.71-2 1.272-3.055 1.834h-.001c-.579.309-1.159.617-1.72.95-.388.23-.747.511-1.189.855-.219.171-.458.357-.731.561zM159.82 369.646c.767-.445 1.496-.89 2.203-1.322l.003-.002c1.562-.954 3.021-1.846 4.57-2.534 2.188-.972 2.668-2.448 2.664-4.672-.048-24.98-.045-49.96-.042-74.94l.002-18.732q-.001-.233-.007-.464c-.007-.309-.014-.616.007-.92.096-1.348-.356-1.948-1.832-1.668-1.748.336-3.52.58-5.292.704-1.912.132-2.488.992-2.484 2.916.042 24.806.043 49.611.045 74.416q0 12.4.003 24.8c0 .457.038.911.085 1.466v.002c.024.286.05.598.075.95m301.028-99.598-.002.002c-.149-.218-.279-.413-.399-.591a19 19 0 0 0-.623-.895l-2.545-3.338-.024-.033c-2.818-3.698-5.636-7.396-8.471-11.081a63827 63827 0 0 0-20.319-26.385l-.076-.099q-12.192-15.824-24.373-31.656-9.26-12.044-18.511-24.096c-7.037-9.165-14.074-18.33-21.121-27.488-5.172-6.72-10.356-13.433-15.539-20.146l-.033-.042-.011-.015a16928 16928 0 0 1-13.765-17.841l-.086-.112c-2.282-2.965-2.315-3.008-5.63-1.104a12892 12892 0 0 0-32.192 18.572q-15.259 8.823-30.513 17.657-11.348 6.57-22.695 13.135l-.059.034c-1.997 1.158-2.002 1.161-.509 3.102q6.813 8.842 13.628 17.681l.004.004c8.412 10.91 16.824 21.821 25.22 32.743 7.179 9.337 14.347 18.684 21.515 28.031a29588 29588 0 0 0 22.665 29.525c5.603 7.286 11.215 14.566 16.826 21.846a16177 16177 0 0 1 25.63 33.31c1.04 1.36 1.744 1.944 3.456.94 9.917-5.804 19.868-11.551 29.819-17.298q3.991-2.304 7.981-4.61l5.764-3.331.037-.021q13.53-7.818 27.063-15.632 2.85-1.644 5.7-3.283c3.47-1.997 6.939-3.993 10.4-6.009.436-.253.816-.601 1.213-.964q.276-.257.573-.51l.002.002zm-9.264 2.932v-.001a9 9 0 0 0-.448-.675q-4.168-5.423-8.341-10.844l-.029-.038q-4.193-5.447-8.382-10.898l-14.392-18.737q-14.364-18.705-28.736-37.399a21821 21821 0 0 0-16.676-21.64l-.027-.036-.01-.013a25131 25131 0 0 1-15.375-19.951 11940 11940 0 0 1-30.212-39.38c-1.02-1.336-1.796-1.704-3.388-.772-6.836 4.004-13.703 7.953-20.57 11.902l-.01.006a6535 6535 0 0 0-8.86 5.1c-13.812 7.976-27.62 15.96-41.424 23.944-1.774 1.026-3.538 2.066-5.316 3.114q-1.494.882-3.008 1.77c.103.16.185.292.255.405.118.19.203.327.301.455l6.718 8.726q6.712 8.714 13.418 17.434 10.064 13.094 20.124 26.192l.044.057a73200 73200 0 0 0 39.895 51.899l.072.093q8.437 10.965 16.869 21.931l4.608 5.993.02.026a14540 14540 0 0 1 20.904 27.225c.868 1.136 1.588 1.42 2.94.588 2.929-1.807 5.918-3.514 8.906-5.221l.002-.001a897 897 0 0 0 2.7-1.546q6.136-3.529 12.275-7.051l.042-.024c5.778-3.317 11.556-6.633 17.327-9.961a7205 7205 0 0 0 19.58-11.339l.016-.01 3.32-1.927c3.132-1.818 6.262-3.64 9.44-5.49l.065-.037 5.707-3.321h.004c-.137-.211-.249-.391-.348-.548M331.641 106.945c-.498.616-.935 1.156-1.425 1.643-1.224 1.216-1.1 2.24-.032 3.564 2.704 3.347 5.321 6.765 7.935 10.18l.072.094.973 1.27q6.549 8.542 13.092 17.087l.035.046c6.923 9.04 13.846 18.08 20.785 27.107 7.003 9.111 14.021 18.211 21.039 27.31l.002.003q8.007 10.378 16.003 20.763a31341 31341 0 0 1 42.288 55.02c.92 1.2 1.712 1.36 2.976.588l.119-.072c1.475-.898 2.214-1.348 2.33-1.924.117-.579-.396-1.286-1.426-2.702l-.007-.01-.001-.001a9 9 0 0 0-.231-.319l-10.917-14.137-.031-.04a29658 29658 0 0 1-25.884-33.547c-6.167-8.011-12.319-16.032-18.472-24.053q-6.047-7.885-12.1-15.767-6.205-8.075-12.419-16.142c-4.138-5.375-8.277-10.75-12.409-16.13a24625 24625 0 0 1-11.701-15.246q-7.264-9.472-14.539-18.938c-1.12-1.456-2.27-2.889-3.467-4.382l-.002-.002a568 568 0 0 1-1.791-2.24v.008c-.289.344-.55.666-.795.969m-86.564 48.939-.125.072-.16.092c2.076.412 82.032-45.924 83.136-48.052-27.935 16.148-55.394 32.018-82.851 47.888M89.804 160.35c.11.067.208.127.272.178l.004-.008.466-.085c.21-.038.333-.061.458-.079l11.601-1.71a29423 29423 0 0 1 74.119-10.842q6.965-1.005 13.931-2a5010 5010 0 0 0 24.057-3.48c1.532-.228 3.144-.64 4.476-1.396 7.841-4.462 15.65-8.981 23.459-13.501q4.539-2.627 9.081-5.251a22877 22877 0 0 1 35.532-20.475c6.37-3.664 12.739-7.328 19.096-11.017.333-.193.563-.56.794-.927.108-.171.216-.343.334-.497-.194-.063-.391-.15-.589-.236-.43-.19-.861-.379-1.259-.324a4385 4385 0 0 0-32.296 4.588c-6.109.894-12.215 1.806-18.321 2.717-5.756.86-11.512 1.719-17.271 2.563a9852 9852 0 0 1-24.579 3.57l-11.033 1.594q-2.601.375-5.202.744c-4.792.68-9.582 1.361-14.358 2.136-2.04.332-4.188.8-5.964 1.792-6.811 3.803-13.56 7.716-20.31 11.63a5316 5316 0 0 1-6.082 3.522q-9.181 5.31-18.356 10.622-12.633 7.314-25.272 14.618a2012 2012 0 0 1-7.119 4.085c-3.173 1.815-6.346 3.63-9.505 5.467-.432.252-.912.888-.88 1.312.02.264.414.505.716.69m5.817-3.102.115.278.116.282q1.236-.194 2.473-.395c1.768-.286 3.536-.571 5.307-.825q4.304-.62 8.61-1.232c5.092-.725 10.184-1.449 15.27-2.212 1.076-.16 2.16-.584 3.124-1.104 2.291-1.241 4.548-2.547 6.805-3.853l1.611-.931q5.908-3.415 11.813-6.835c9.581-5.547 19.162-11.094 28.767-16.597l.707-.408c1.993-1.156 4.083-2.369 6.249-2.712 10.545-1.675 21.118-3.175 31.692-4.674q4.698-.666 9.396-1.338 6.194-.887 12.39-1.765c8.596-1.222 17.193-2.444 25.782-3.711q.6-.088 1.213-.169c2.226-.302 4.522-.613 6.415-1.611 5.24-2.761 10.357-5.755 15.472-8.75 1.711-1 3.421-2.002 5.136-2.994 1.427-.826 2.837-1.682 4.247-2.537q1.027-.623 2.057-1.243-.091-.242-.176-.484-.526.052-1.053.099c-.804.072-1.608.144-2.407.261q-5.272.78-10.542 1.572c-5.293.793-10.586 1.585-15.882 2.352-7.866 1.138-15.734 2.262-23.602 3.386s-15.736 2.248-23.602 3.386c-4.338.628-8.673 1.275-13.008 1.921-8.061 1.201-16.122 2.403-24.196 3.487-3.908.524-7.512 1.364-10.972 3.436-7.992 4.778-16.066 9.415-24.14 14.051q-4.092 2.349-8.18 4.705-9.928 5.727-19.858 11.446-9.002 5.183-18.002 10.374a914 914 0 0 0-6.032 3.519q-1.557.914-3.115 1.825m40.123-5.606-.12-.314v-.004l2.757-1.612a1438 1438 0 0 1 6.387-3.724q4.201-2.432 8.399-4.868c10.023-5.812 20.047-11.626 30.137-17.32 1.898-1.073 4.29-1.426 6.513-1.754l.091-.014c10.565-1.56 21.137-3.073 31.708-4.587q7.93-1.134 15.86-2.277a5660 5660 0 0 0 17.814-2.603q4.793-.707 9.586-1.409c.628-.092 1.26-.14 2.02.152l-2.736 1.594a2014 2014 0 0 1-7.256 4.218q-4.333 2.506-8.662 5.015c-9.825 5.693-19.649 11.385-29.542 16.953-1.956 1.104-4.409 1.478-6.693 1.825l-.099.015c-9.125 1.386-18.264 2.688-27.4 3.989l-4.876.695q-8.951 1.276-17.904 2.54-8.955 1.264-17.908 2.54c-1.831.262-3.657.562-5.484.862q-1.236.204-2.472.402z"/>
</svg>
