<svg xmlns="http://www.w3.org/2000/svg" width="550" height="550" fill="none" viewBox="0 0 550 550">
    <path fill="#fff" fill-rule="evenodd" d="M210.116 398.71q0-2.86.006-5.672c.007-4.54.015-9.001-.022-13.462-.015-1.645-.087-3.289-.159-4.932a151 151 0 0 1-.156-4.659c-.012-1.194-.577-1.795-1.513-2.32-1.807-1.016-3.618-2.04-5.352-3.17-1.565-1.016-2.936-1.012-4.598-.068a6039 6039 0 0 1-27.628 15.601l-.016.01q-4.605 2.588-9.208 5.181-1.512.85-3.028 1.696l-.002.002-.003.001-.002.001-.002.002-.007.003-.006.004-.01.005-.004.002-.002.002-.003.001-.002.002-.003.001-.002.001-.003.002-.001.001c-1.652.924-3.305 1.848-4.951 2.783-.451.256-.879.549-1.402.908-.277.19-.581.398-.929.629 3.14 2.149 6.308 3.952 9.367 5.693h.001l.001.001.003.002c1.905 1.084 3.768 2.145 5.555 3.249v37.519c-1.235.701-2.445 1.39-3.638 2.069-2.202 1.253-4.347 2.475-6.497 3.686a847771 847771 0 0 1-78.533 44.173q-.736.413-1.475.821c-1.323.732-2.646 1.464-3.93 2.261-.904.556-1.573.512-2.489-.025-10.014-5.884-20.037-11.757-30.12-17.52-1.48-.847-1.808-1.799-1.791-3.368.178-15.095.307-30.19.435-45.285l.069-7.992c.008-.933.005-1.868.002-2.802l-.002-1.4a368 368 0 0 1 6.103-3.436l.002-.001.002-.001c3.508-1.946 7.065-3.919 10.692-6.182-1.934-1.372-3.852-2.468-5.738-3.545l-.001-.001h-.001c-1.45-.828-2.88-1.645-4.283-2.568.482-54.32.962-108.661 1.443-163.061v-.097l.001-.022v-.096l.001-.034v-.04l.001-.047.002-.229.005-.584.001-.133.756-85.458.674-.404v-.001l.002-.001a63 63 0 0 1 1.546-.913q19.948-11.218 39.9-22.433l.02-.012.035-.02.062-.035.076-.042q19.986-11.235 39.969-22.474l9.432-5.304.012-.007.012-.007.013-.007.012-.007.004-.002h.001v-.001c18.099-10.179 36.199-20.358 54.269-30.59 1.67-.947 2.916-.915 4.55.057 6.514 3.874 13.069 7.67 19.627 11.469h.001l.003.002 4.879 2.827c.563.327 1.147.617 1.836.959h.002c.332.166.688.343 1.078.541-.205-2.276 1.12-2.968 2.449-3.662q.285-.149.564-.302l2.002-1.12h.001c5.126-2.864 10.254-5.73 15.332-8.681 1.473-.855 2.606-.867 4.082.016 4.699 2.813 9.44 5.56 14.228 8.334h.002q2.495 1.446 5.009 2.907v21.643l-10.079 5.664-12.068 6.782-3.456-1.722c-.763 2.021-1.11 22.345-.444 24.902.223-.088.448-.166.671-.244.451-.157.895-.312 1.297-.538 5.916-3.333 11.827-6.673 17.738-10.012 6.514-3.68 13.027-7.36 19.546-11.03 3.257-1.835 6.522-3.657 9.786-5.479 5.14-2.868 10.28-5.736 15.39-8.654 1.44-.823 2.436-.42 3.646.29 8.698 5.078 17.409 10.138 26.118 15.196h.001l.001.001.001.001h.001l.001.001.001.001h.002l.001.001.008.005.079.046.078.045.004.002.005.003.004.003.005.002.005.003.004.003 5.525 3.208q21.418 12.44 42.842 24.862c.44.254.906.467 1.476.729h.001l.002.001c.306.14.643.294 1.021.476.031-.467.063-.879.093-1.255v-.002c.053-.67.097-1.227.105-1.784l.026-2.381v-.018c.038-3.267.075-6.535.026-9.798-.02-1.267.44-1.888 1.517-2.493 23.885-13.386 47.759-26.793 71.592-40.273 1.734-.98 3.012-1.016 4.751.005 11.684 6.849 23.398 13.64 35.112 20.431q5.576 3.232 11.15 6.467c.242.14.478.291.727.451l.002.001.167.107.111.07.082.052q0 1.901.007 3.797v.032c.007 2.705.014 5.406-.011 8.106-.036 3.952-.081 7.904-.126 11.856-.074 6.587-.149 13.174-.184 19.761-.008 1.497-.44 2.364-1.795 3.118-11.665 6.516-23.307 13.068-34.951 19.621l-.004.002-.004.003-.004.002-.005.002-.004.003-.004.002-.004.002-.004.003-.01.005-.061.035-.02.011-12.668 7.127q-1.813 1.02-3.623 2.044v.001c-3.199 1.808-6.397 3.617-9.626 5.368-1.581.855-2.19 1.976-2.19 3.779a709 709 0 0 1-.096 9.783v.005c-.054 3.707-.107 7.414-.094 11.121.004 1.666-.561 2.485-1.968 3.271-17.472 9.77-34.914 19.6-52.354 29.428l-2.54 1.431c-.821.462-1.623.959-2.544 1.531h-.001c-.431.268-.889.552-1.387.857.337.244.63.466.896.668v.001c.495.375.899.682 1.334.936 12.857 7.483 25.721 14.957 38.583 22.43l5.316 3.089q3.982 2.313 7.968 4.62c6.965 4.033 13.931 8.067 20.85 12.175 2.033 1.206 3.686 1.432 5.691.056 1.599-1.097 3.339-2 5.07-2.898l.778-.405c3.162-1.658 6.216-1.746 9.402.246 2.68 1.676 5.457 3.202 8.234 4.727h.001v.001h.001a397 397 0 0 1 3.445 1.907c1.669.94 2.875 2.343 3.396 4.13.48 1.646.794 3.408.794 5.118l.002 3.14v.002c.005 7.501.01 15.006-.252 22.498-.331 9.567-4.63 17.13-12.971 21.893-13.825 7.897-27.713 15.683-41.6 23.468-6.087 3.413-12.173 6.825-18.255 10.247a290518 290518 0 0 0-78.529 44.177l-.874.491-.012.007c-5.852 3.291-11.706 6.583-17.538 9.904-3.973 2.267-7.72 2.371-11.624-.387-3.037-2.146-6.324-3.985-9.648-5.675-3.666-1.864-5.009-4.881-5.058-8.716-.021-1.789-.004-3.579.013-5.369v-.036q.013-1.281.02-2.561l.001-.223.004-.276a13 13 0 0 0-.021-1.244c-.182-2.081-1.569-2.948-3.453-2.024-1.353.663-2.663 1.416-3.973 2.169q-.735.423-1.472.84-2.323 1.306-4.65 2.609h-.001v.001h-.002v.001H289c-4.384 2.457-8.768 4.913-13.117 7.427-1.23.71-2.113.771-3.384.029-16.16-9.437-32.348-18.834-48.533-28.23l-11.067-6.425c-.932-.54-1.864-1.077-2.783-1.605m142.571-126.668.274.189c-.312.202-.599.393-.87.574-.55.367-1.036.691-1.543.977a61940 61940 0 0 1-20.93 11.784q-11.765 6.62-23.525 13.246c-.538.302-1.054.647-1.687 1.07-.325.218-.681.457-1.088.721.463.31.873.592 1.25.851v.001l.002.001c.735.506 1.346.925 1.983 1.301 1.493.878 2.992 1.745 4.492 2.613h.001v.001h.001c2.592 1.499 5.183 2.998 7.743 4.553 1.383.839 2.488.831 3.892.033a10677 10677 0 0 1 33.817-19.126l4.963-2.8q5.872-3.312 11.748-6.619 5.177-2.914 10.351-5.832c.556-.315 1.099-.65 1.787-1.076.341-.21.718-.443 1.149-.706l-7.652-4.509-7.332-4.32c.315-.22.587-.418.833-.598h.001c.464-.338.839-.611 1.24-.838 1.173-.666 2.354-1.32 3.534-1.975l.001-.001h.001l.001-.001.001-.001h.002l.001-.001.001-.001h.001c2.227-1.236 4.453-2.471 6.637-3.78 1.698-1.016 3.065-.98 4.803.041 11.772 6.908 23.578 13.761 35.384 20.615l.003.001 9.783 5.681 5.764 3.349c7.118 4.135 14.238 8.271 21.352 12.409.508.297 1.004.612 1.606.995l.001.001.003.002c.314.199.656.417 1.044.66-.315.216-.593.415-.85.599-.5.359-.919.659-1.364.909a91783 91783 0 0 1-49.608 27.909l-.067.038q-12.967 7.29-25.935 14.577l-.22.123-.026.015-.025.014-.008.004-.008.005-.008.004-.008.005-.008.004-.008.004-.008.005c-23.07 12.963-46.14 25.926-69.183 38.94-8.974 5.07-13.463 12.975-13.689 23.272a348 348 0 0 0-.058 6.218v.005c-.004 1.327-.008 2.655-.023 3.982-.005.531-.042 1.06-.087 1.71v.007l-.022.315-.013.197-.012.18-.009.13-.005.085-.005.078-.008.137a53 53 0 0 0-.944-.423h-.001c-.557-.245-1.026-.451-1.467-.706a23577 23577 0 0 1-33.589-19.477q-21.942-12.745-43.882-25.497l-31.655-18.394-12.454-7.238-.03-.018c-14.776-8.589-29.551-17.177-44.358-25.712-2.678-1.545-4.005-3.687-4.013-6.643l-.003-1.033-.003-.881v-.004c-.018-5.332-.035-10.672.188-15.998.197-4.703 2.218-8.833 5.195-12.423.863-1.04 2.158-1.78 3.368-2.471v-.001h.001l.015-.008c4.214-2.403 8.441-4.781 12.668-7.159q3.963-2.229 7.922-4.465c.872-.491 1.584-1.173 2.302-1.862q.233-.224.469-.446c1.441-1.353 3.339-2.257 5.179-3.133l.532-.255c.476-.229 1.416.275 2.037.626l.459.257c2.598 1.454 5.198 2.91 7.708 4.506 1.356.863 2.38.92 3.832.081 3.055-1.762 6.158-3.442 9.261-5.122h.001v-.001h.002v-.001h.001l.001-.001.002-.001.003-.001.002-.002.002-.001.003-.001.002-.002.003-.001.002-.001.003-.002a602 602 0 0 0 5.744-3.136c1.552-.86 3.045-1.826 4.533-2.789l.327-.211c1.565-1.009 2.965-.936 4.606.04 3.517 2.087 7.054 4.14 10.592 6.192 4.214 2.444 8.428 4.888 12.604 7.392 1.827 1.097 3.174.98 4.969-.036a13198 13198 0 0 1 30.695-17.325l.018-.01c9.777-5.507 19.555-11.014 29.319-16.545 1.658-.936 2.912-.972 4.558-.008 12.442 7.272 24.903 14.508 37.364 21.745q7.352 4.269 14.702 8.541c.373.217.726.465 1.169.775l.002.002.008.005.218.153.171.119zM74.451 391.551c1.535-.862 3.035-1.713 4.513-2.552 3.531-2.004 6.937-3.938 10.398-5.769 1.924-1.016 2.694-2.214 2.706-4.449.107-16.79.273-33.581.439-50.37v-.011q.109-10.908.21-21.815c.213-23.145.416-46.289.619-69.432v-.008l.245-27.901c.027-3.091.046-6.183.066-9.274.047-7.448.094-14.895.248-22.343.049-2.331-.665-3.731-2.739-4.675-1.004-.456-1.952-1.037-2.9-1.618h-.001c-.4-.245-.8-.49-1.204-.725l-5.828-3.389-.014-.008c-10.032-5.834-20.065-11.669-30.104-17.492-.585-.339-1.198-.625-1.948-.977h-.001l-.002-.001a83 83 0 0 1-1.303-.619c0 .543 0 1.017.002 1.447v.001c.001.75.003 1.367-.002 1.984l-.21 22.411v.005c-.174 18.668-.348 37.336-.512 56.005q-.621 69.667-1.23 139.333v.083c-.022 2.489-.034 4.979-.045 7.468-.026 5.478-.051 10.955-.181 16.429-.053 2.227.637 3.574 2.617 4.514a34.6 34.6 0 0 1 4.941 2.879c1.726 1.206 3.328 1.319 4.981.025 1.23-.96 2.311-.779 3.606.024 2.54 1.574 5.141 3.056 7.74 4.538h.002q1.077.613 2.152 1.229c.504.29 1.028.544 1.668.853h.001c.323.156.676.327 1.07.523zm59.521-106.969-.001-.001c-.48-.341-.921-.654-1.388-.926a1168 1168 0 0 1-3.271-1.92l-.003-.002h-.001c-3.701-2.177-7.401-4.352-11.16-6.427-1.654-.911-2.283-1.899-2.259-3.868.27-20.905.436-41.813.557-62.722.008-1.307.455-1.924 1.532-2.477 1.111-.57 2.196-1.19 3.282-1.81a98 98 0 0 1 2.813-1.565c1.165-.618 1.637-1.469 1.649-2.788.056-7.867.127-15.735.198-23.604v-.023a16371 16371 0 0 0 .149-17.19c.003-.351-.084-.703-.188-1.128-.055-.22-.113-.459-.167-.727-.312.157-.597.296-.863.426-.471.23-.883.431-1.283.655a3162 3162 0 0 0-7.383 4.16l-.002.001c-6.136 3.464-12.274 6.928-18.46 10.302-2.094 1.142-2.872 2.485-2.876 4.869-.01 11.607-.117 23.218-.224 34.827v.041q-.037 3.845-.07 7.691-.703 78.402-1.412 156.804a221 221 0 0 0-.002 2.143v.005l.002.927v.551c.395-.186.742-.342 1.054-.484l.003-.001c.589-.266 1.058-.479 1.508-.729a630 630 0 0 1 3.415-1.892l.002-.001v-.001c3.219-1.776 6.439-3.552 9.574-5.467 1.892-1.153 3.312-1.117 5.183.041 3.63 2.245 7.334 4.372 11.037 6.498q2 1.147 3.996 2.302.16.094.32.195c.68.421 1.388.86 2.196.309 1.347-.919 2.436-.419 3.655.307 2.13 1.263 4.275 2.502 6.42 3.741l.002.001.003.002.002.001.003.001.001.001.002.001.001.001.002.001.002.001c2.303 1.331 4.606 2.661 6.892 4.021 1.21.722 2.19.767 3.44.057a15051 15051 0 0 1 28.5-16.053q8.629-4.85 17.254-9.708c.313-.176.579-.436.852-.702h.001q.19-.19.394-.371c-.104-.121-.186-.232-.258-.329-.124-.167-.218-.295-.343-.369a60914 60914 0 0 0-51.421-29.899c-.226-.132-.478-.218-.726-.303l-.048-.016-.059-.02-.052-.018-.027-.01c-.062-.023-.15.009-.224.037l-.01.003a1.4 1.4 0 0 0-.208.122l-.352.221.002 1.589v.001a391 391 0 0 1-.002 3.585c-.061 9.208-.13 18.42-.198 27.628q0 .27.011.549c.019.581.039 1.169-.16 1.662-.19.471-.896.943-1.416 1-.335.036-.956-.621-1.081-1.073-.148-.532-.126-1.119-.104-1.7q.011-.266.015-.526.106-10.714.217-21.427l.11-10.679q.004-.255.012-.513c.018-.58.036-1.163-.077-1.717-.061-.309-.288-.585-.516-.861h-.001c-.103-.125-.206-.25-.293-.377l-.549.133q-.025.43-.056.863a30 30 0 0 0-.089 1.726q-.124 11.677-.242 23.354l-.001.047-.12 11.689c-.008.666-.02 1.327-.04 1.993-.029.826-.307 1.52-1.243 1.56-1.113.049-1.343-.766-1.383-1.665-.02-.496-.016-.997-.012-1.493l.032-2.893q.025-2.162.045-4.326.031-4.14.057-8.279v-.004c.046-7.361.093-14.721.225-22.08.04-2.13-.637-3.433-2.541-4.288-.725-.323-1.407-.744-2.09-1.164-.38-.235-.761-.469-1.149-.687-1.851-1.049-2.968-2.65-3.376-4.695a19.3 19.3 0 0 1-.375-3.698c-.004-2.364.019-4.728.043-7.091v-.002c.024-2.448.048-4.895.042-7.343-.012-5.078 1.593-9.607 4.42-13.757.314-.461.617-.932.962-1.469v-.001l.498-.773q-.384-.265-.732-.513M49.891 147.694l.001.001a48 48 0 0 0 1.572.977q5.444 3.165 10.892 6.326c9.856 5.72 19.71 11.44 29.523 17.228 1.923 1.138 3.31 1.025 5.19-.04 17.813-10.086 35.658-20.119 53.503-30.151l13.705-7.706 6.303-3.546.025-.014a51520 51520 0 0 1 52.022-29.239c1.299-.726 2.299-1.428 2.291-3.158-.019-4.657.065-9.314.148-13.97l.017-.962c.025-1.294-.431-2.161-1.585-2.827a4513 4513 0 0 1-26.676-15.504c-1.065-.625-1.973-.661-2.993.012-.505.334-1.043.62-1.581.907q-.405.214-.803.436l-66.53 37.421-.266.15a379757 379757 0 0 0-73.084 41.112c-.57.32-1.129.665-1.823 1.094h-.001c-.327.202-.685.423-1.088.668.477.299.88.556 1.238.785m187.124 16.703c.024-.378.051-.789.075-1.252 3.529 1.68 6.735 3.596 9.891 5.481l.001.001c1.54.92 3.068 1.833 4.616 2.708a833 833 0 0 1 9.996 5.77h.001l.001.001.001.001h.001l.001.001.002.001a2203 2203 0 0 0 4.215 2.454q7.176 4.161 14.352 8.328l.004.002.005.003.004.003.005.002.004.003.004.002.005.003.004.002.005.003.031.018 14.206 8.252 10.601 6.157 3.947 2.293c.041-.356.085-.67.125-.957v-.001c.074-.532.136-.97.141-1.409.031-3.573.054-7.145.077-10.718v-.037q.022-3.583.048-7.166c.003-.59.034-1.179.072-1.905.019-.369.041-.774.061-1.232a55 55 0 0 0 1.082.508c.594.275 1.097.507 1.572.782 8.395 4.864 16.78 9.736 25.167 14.61l3.03 1.761q1.937 1.13 3.871 2.265l.003.002.003.002.003.002.003.001.003.002.003.002.001.001h.002l.001.001.001.001.002.001.001.001h.001l.002.001.001.001c3.136 1.841 6.273 3.681 9.449 5.449 1.509.843 2.033 1.872 2.013 3.582-.162 14.062-.287 28.126-.411 42.189l-.001.009v.071q-.073 8.234-.149 16.468c-.002.515-.04 1.027-.078 1.536l-.001.004-.029.408-.017.251c-.993.467-1.671-.001-2.311-.442-.161-.111-.319-.22-.48-.313a6002 6002 0 0 1-20.897-12.103l-.003-.002-.004-.002-.003-.002-.003-.002-.004-.002-.003-.002-.004-.002-.003-.002-.003-.002-1.901-1.104-20.292-11.788-.031-.018-.032-.019-.031-.018-.031-.018-.032-.018-.005-.003-.005-.003-.005-.003-.006-.003-.005-.003-.005-.003-.005-.003-.006-.003-.005-.003c-23.222-13.493-46.445-26.986-69.694-40.43-1.883-1.089-2.71-2.247-2.67-4.481.145-7.977.209-15.953.274-23.93q.04-5.084.089-10.168c.005-.573.042-1.146.086-1.828m-.013-7.973c0 .231.008.451.016.661.016.426.031.814-.028 1.19-.375 2.368.625 3.723 2.714 4.929 16.343 9.42 32.65 18.898 48.958 28.376l.001.001.001.001h.001l.001.001h.001v.001h.001l.011.006q8.655 5.032 17.313 10.059c.341.199.715.339 1.2.519l.001.001c.271.101.578.215.933.36l.056-4.8.05-4.24.164-13.878 3.656-2.06c3.096-1.745 6.153-3.469 9.214-5.188l10.503-5.9.021-.011q9.055-5.083 18.105-10.178c.494-.279.96-.61 1.494-.99.267-.19.552-.393.865-.607-.352-.226-.662-.43-.944-.615-.563-.369-1.018-.668-1.488-.942q-2.479-1.448-4.967-2.883-1.714-.99-3.426-1.985l-12.493-7.26-.19-.111a27328 27328 0 0 1-44.094-25.658c-1.44-.839-2.618-.976-4.135-.117-12.814 7.253-25.642 14.478-38.471 21.705l-.003.001-.003.002q-8.719 4.91-17.437 9.825c-.348.196-.668.439-1.085.757-.236.18-.502.383-.822.614l12.366 7.282 1.936 1.14zM136.471 283.748c.42-.191.777-.347 1.09-.483l.001-.001c.584-.254 1.013-.441 1.418-.67q3.196-1.797 6.388-3.605l.002-.001c4.37-2.473 8.74-4.945 13.139-7.364 1.521-.835 2.178-1.868 2.049-3.57a20 20 0 0 1 .032-3.731c.19-1.762-.601-2.77-2.097-3.541-1.657-.852-3.248-1.835-4.838-2.818l-.107-.066c-.23-.141-.391-.393-.552-.644h-.001a5 5 0 0 0-.225-.332c.984-.016 1.694.319 2.371.71q3.295 1.91 6.587 3.822c4.908 2.85 9.816 5.7 14.738 8.528.156.09.309.195.466.303h.001c.642.442 1.338.92 2.453.476l-.001-.839v-.02c-.001-.589-.002-1.192.001-1.795l.064-9.97.001-.079v-.045c.042-6.676.084-13.353.14-20.027l.061-7.428.001-.148c.104-12.991.208-25.982.414-38.973.037-2.323-.722-3.59-2.734-4.666-3.072-1.642-6.072-3.415-9.072-5.188l-.001-.001h-.001l-.001-.001-.001-.001h-.002l-.001-.001-.001-.001-.002-.001-.001-.001h-.001l-.002-.001c-1.21-.715-2.42-1.431-3.635-2.137l-3.78-2.196-.005-.003-.004-.002-.005-.003-.004-.003-.004-.002-.005-.003-.004-.002-.005-.003-.004-.002a31328 31328 0 0 0-30.839-17.903c-.499-.289-1.025-.532-1.57-.784h-.001q-.392-.18-.796-.374c-.626 2.71-.888 40.592-.339 42.556 1.037-.124 1.922-.659 2.809-1.195 1.085-.656 2.173-1.314 3.547-1.221-2.47 1.739-5.092 3.227-7.756 4.738-2.451 1.39-4.937 2.801-7.373 4.446.36.23.674.434.959.62l.002.001.001.001c.567.37 1.019.664 1.482.935q2.023 1.176 4.053 2.338l.001.001.002.001.003.002.002.001.003.002.002.001.003.001.002.002.003.001v.001c3.101 1.781 6.202 3.562 9.245 5.441 1.649 1.02 2.92.984 4.549.008 3.192-1.907 6.446-3.711 9.7-5.515l.013-.008q1.317-.73 2.633-1.463c.338-.189.716-.308 1.094-.427q.266-.081.528-.174.145.275.286.549-.304.205-.604.416c-.437.305-.874.611-1.336.87q-1.331.757-2.661 1.518l-.003.002h-.001c-3.002 1.717-6.005 3.434-9.068 5.031-1.783.931-2.416 2.093-2.428 4.106-.077 14.833-.211 29.667-.345 44.501v.006q-.065 7.119-.127 14.238c-.005.564-.004 1.127-.002 1.833v.007l.002 1.415zm219.756-12.431q.333.147.666.287.444-.238.891-.471l.001-.001c.572-.3 1.143-.6 1.705-.916a69194 69194 0 0 0 45.137-25.353q6.686-3.761 13.369-7.525c8.918-5.023 17.835-10.045 26.767-15.042 1.488-.835 2.448-1.722 2.44-3.622-.021-4.214.019-8.428.058-12.641v-.021q.035-3.5.055-7c0-.388-.082-.777-.184-1.256-.056-.263-.118-.553-.175-.886-.819.456-1.615.888-2.392 1.31-1.842.999-3.576 1.94-5.235 2.998-1.262.802-2.138.713-3.352-.057-1.976-1.251-4.006-2.412-6.037-3.573q-1.276-.727-2.546-1.465c-.251-.146-.5-.301-.749-.457-1.537-.959-3.078-1.922-5.244-.748-.047-3.218-.008-6.376.03-9.523v-.009c.056-4.523.111-9.021-.087-13.636-.349.16-.657.296-.936.419-.549.242-.985.433-1.399.666-2.264 1.269-4.525 2.546-6.785 3.822l-.005.003c-5.252 2.966-10.505 5.932-15.805 8.807-1.96 1.065-2.593 2.34-2.601 4.518-.038 11.849-.154 23.698-.271 35.547l-.096 9.997c-.002.196.005.397.012.598v.001c.02.563.04 1.129-.141 1.619-.182.493-.871 1.118-1.311 1.102-.436-.017-1.057-.694-1.218-1.206-.161-.503-.131-1.068-.1-1.629.01-.199.021-.398.023-.594l.208-21.654.208-21.656c.005-.636.003-1.272.001-1.923v-.025l-.001-1.02c-2.771.548-3.009.819-3.033 3.509q-.075 9.147-.14 18.293-.064 9.146-.139 18.293c-.022 2.869-.072 5.738-.121 8.607l-.04 2.344c-.016.943-.085 1.984-1.319 2.012-1.262.029-1.339-1-1.335-1.956q.011-2.986.04-5.973l.089-9.774.001-.088c.089-9.739.178-19.477.253-29.217.006-.643-.062-1.285-.133-1.95v-.002l-.001-.001v-.006q-.05-.455-.092-.929c-2.629.851-2.698.932-2.779 3.118-.013.369-.014.738-.015 1.108q-.001.317-.005.634l-.143 15.287-.001.024c-.095 10.16-.189 20.321-.291 30.48-.021 1.871-.388 2.46-1.384 2.448-.984-.008-1.335-.601-1.327-2.485.018-3.434.052-6.866.087-10.299v-.005l.038-3.885.054-5.535v-.017c.08-8.272.16-16.542.216-24.815.002-.195.019-.397.035-.6.063-.761.128-1.548-.579-2.147-2.42.916-2.456.936-2.481 3.646q-.123 13.162-.238 26.325l-.177 19.72-.001.238.001.137v.069c.003.688.005 1.386-.194 2.016-.125.396-.818.787-1.29.831-.327.028-.904-.472-1.025-.847-.158-.499-.146-1.06-.135-1.611l.002-.073.002-.097.002-.191.134-17.75v-.125q.102-13.215.197-26.431c.005-.578-.039-1.154-.091-1.825v-.001c-.026-.34-.054-.705-.079-1.107-.337.156-.636.288-.908.409l-.002.001h-.001c-.548.243-.988.437-1.408.671a864 864 0 0 0-4.189 2.368c-2.79 1.584-5.581 3.167-8.407 4.687-1.512.814-2.061 1.843-2.073 3.553-.093 15.132-.228 30.264-.362 45.393v.016l-.001.019-.117 13.314c-.005.529-.003 1.059-.002 1.589l.002.488v.306zM71.494 489.875c.389-.193.738-.363 1.06-.519.623-.302 1.144-.554 1.646-.836 22.059-12.398 44.113-24.805 66.167-37.211l4.913-2.766.018-.01c5.874-3.308 11.749-6.617 17.636-9.901 1.319-.738 2.178-1.549 2.182-3.255.023-6.755.088-13.508.152-20.262v-.01q.057-5.67.102-11.341c.002-.395-.076-.792-.173-1.277a24 24 0 0 1-.162-.881c-2.609 1.436-4.925 2.706-7.24 3.977l-.539.296-1.02.562-.03.017-.006.003c-1.721.948-3.442 1.896-5.177 2.82-.641.343-1.274.704-1.917 1.071-1.657.945-3.378 1.927-5.468 2.721v-7.357q.001-1.119.015-2.239c.014-1.494.028-2.988-.015-4.481-.02-.682.002-1.368.024-2.063.052-1.614.106-3.278-.371-5.059-.313.155-.604.294-.879.426h-.001c-.533.255-1.006.481-1.463.739a6750 6750 0 0 0-8.287 4.666l-.013.007-.02.011c-7.057 3.978-14.114 7.956-21.208 11.865-1.972 1.085-2.807 2.303-2.799 4.642.022 6.797-.04 13.594-.102 20.392v.006c-.042 4.568-.084 9.136-.1 13.704-.004 1.355-.439 2.077-1.625 2.719-2.914 1.58-5.801 3.211-8.687 4.843v.001h-.002v.001h-.002v.001l-.002.001-.005.002-.004.002-.003.003-.003.001q-2.268 1.284-4.542 2.558c-.208.115-.442.182-.778.277-.192.055-.417.119-.69.207-.122-1.905-.08-3.687-.039-5.43.017-.731.034-1.454.04-2.177q.02-2.41.053-4.819v-.003a1631 1631 0 0 0 .103-10.359l.007-.858c.019-2.287.037-4.574.03-6.858-.001-.72.01-1.44.023-2.17.029-1.756.06-3.563-.092-5.538-.348.151-.657.278-.939.393v.001l-.003.001c-.536.219-.97.397-1.373.622-1.818 1.016-3.631 2.042-5.445 3.068v.001h-.001l-.001.001h-.001l-.002.001-.006.004c-3.528 1.995-7.055 3.99-10.617 5.923-1.537.835-2.029 1.875-2.037 3.561-.077 12.461-.188 24.924-.3 37.385v.013q-.07 7.688-.135 15.374c-.005.515.034 1.027.082 1.656.025.337.054.709.08 1.131zm439.253-376.772.012.008c.335.219.7.456 1.111.719-.386.242-.731.463-1.05.668-.647.414-1.187.761-1.746 1.076q-30.358 17.072-60.717 34.138c-.762.429-1.529.85-2.296 1.272l-.002.001-.004.002c-1.921 1.057-3.843 2.113-5.692 3.283-1.618 1.024-2.876.976-4.534-.004-8.125-4.798-16.288-9.531-24.451-14.264l-.002-.001q-3.68-2.132-7.358-4.268-2.428-1.41-4.857-2.818l-.025-.014-.011-.007q-3.367-1.949-6.727-3.905c-.442-.259-.874-.536-1.402-.874-.31-.198-.653-.417-1.05-.667.331-.219.63-.423.908-.613l.002-.002.004-.002.003-.003.003-.002.001-.001c.542-.371 1.008-.69 1.499-.966a18676 18676 0 0 1 29.036-16.371q5.786-3.257 11.577-6.506l.005-.003c9.371-5.262 18.743-10.523 28.078-15.848 1.895-1.08 3.307-1.125 5.211-.004 10.412 6.125 20.864 12.189 31.314 18.252l.001.001h.001l.001.001h.001v.001h.001l.001.001h.001l.001.001q5.731 3.323 11.459 6.653a37 37 0 0 1 1.68 1.058l.004.002.007.005zm-90.96 56.78-.002-.001h-.001v-.001h-.001a18 18 0 0 0-1.176-.785q-5.83-3.39-11.662-6.778l-.014-.008c-10.017-5.818-20.035-11.637-30.021-17.51-1.666-.98-2.892-.96-4.529 0-5.185 3.019-10.417 5.954-15.65 8.89l-.001.001-.005.002-3.821 2.146-16.632 9.351q-11.96 6.72-23.915 13.449c-.404.227-.785.492-1.23.801-.236.164-.49.34-.775.53.3.205.565.393.81.566v.001l.003.001c.458.325.845.599 1.252.836q6.295 3.661 12.592 7.318l.009.005.001.001.014.008.019.011.001.001.014.008.019.011a8803 8803 0 0 1 29.254 17.043c1.403.822 2.428.798 3.859.032 2.941-1.577 5.813-3.273 8.684-4.97 3.666-2.165 7.331-4.331 11.14-6.247.353-.178.659-.441.967-.706.195-.168.39-.337.598-.484.46-.322.944-.621 1.44-.887q1.786-.946 3.574-1.889l.001-.001c1.989-1.049 3.978-2.098 5.96-3.16.154-.082.273-.225.393-.369h.001c.097-.117.195-.234.312-.32a7.6 7.6 0 0 1 1.25-.763c.478-.223.966-.428 1.453-.633h.001c.804-.338 1.607-.675 2.366-1.097a4709 4709 0 0 0 20.327-11.406l1.582-.892a29 29 0 0 0 1.49-.924h.001l.003-.003.005-.003.005-.003c.269-.174.562-.363.892-.571l-.005-.008-.08-.055-.094-.065-.129-.089-.207-.144-.337-.236zM129.02 157.382c.519.376.947.686 1.404.949q7.097 4.125 14.198 8.248h.001c11.405 6.624 22.811 13.247 34.201 19.897 1.331.779 2.36.722 3.658-.024 3.988-2.299 8.005-4.549 12.023-6.799l.002-.001.001-.001h.001l.002-.001.001-.001.002-.001.001-.001.002-.001h.001q2.11-1.181 4.219-2.366l4.062-2.284.026-.014c9.842-5.534 19.687-11.07 29.525-16.614.554-.312 1.086-.663 1.711-1.075l.001-.001.003-.001.001-.001c.302-.2.627-.413.987-.644-.41-.261-.767-.493-1.092-.704-.592-.384-1.077-.699-1.574-.99q-6.368-3.701-12.738-7.398l-.024-.014-.025-.014-.024-.014-.024-.014-.004-.003-.004-.002c-11.644-6.76-23.289-13.52-34.908-20.323-1.569-.92-2.755-.899-4.312-.016-11.699 6.621-23.417 13.208-35.134 19.795l-.003.002q-7.368 4.142-14.735 8.287c-.454.255-.883.554-1.4.915-.268.187-.559.391-.891.614h-.004c.32.222.602.427.861.614zm310.618 42.278c-.396.204-.843.435-1.365.709v-.531l-.002-.862v-.009c-.002-.658-.003-1.16.002-1.661q.047-5.142.098-10.283c.091-9.342.182-18.684.209-28.026.004-1.928.702-2.977 2.351-3.9a29546 29546 0 0 0 53.544-30.067l.014-.008.102-.057.051-.029 15.041-8.458a52 52 0 0 1 1.637-.87l.003-.002c.326-.169.68-.352 1.075-.56.04.356.083.671.122.958.076.556.139 1.01.136 1.462q-.052 6.47-.112 12.939v.006c-.078 8.622-.156 17.243-.191 25.863-.008 1.892-.673 2.977-2.343 3.909-15.094 8.42-30.154 16.891-45.215 25.363l-.003.001-.002.002-.002.001-.003.001-.002.002-.003.001-.002.001-.003.002-.002.001-8.559 4.814q-3.68 2.071-7.356 4.149l-.009.006q-3.682 2.08-7.365 4.154c-.549.308-1.11.598-1.843.977h-.001zm50.765 102.586-.062-.077c-.138-.172-.277-.347-.457-.453l-1.155-.678-.003-.002v-.001h-.002v-.001h-.002v-.001h-.001c-2.544-1.497-5.088-2.993-7.674-4.411-.608-.332-1.38-.408-2.112-.48l-.28-.028c-2.368-.246-4.344.839-6.308 1.944l-10.392 5.85-.18.101-.418.235-.407.23-.004.002-.003.002-.004.002-.003.002-.004.002-.004.002q-13.913 7.833-27.83 15.663l-36.827 20.717-.167.094a211689 211689 0 0 0-79.246 44.589c-8.7 4.901-13.06 12.488-13.294 22.389-.145 6.066-.17 12.134-.195 18.201q-.012 3.093-.031 6.185c-.008 1.077.008 2.166.161 3.227.367 2.516 1.569 4.472 3.889 5.731 1.458.791 2.889 1.633 4.321 2.476.999.588 1.999 1.176 3.007 1.747.309.176.673.255.978.321h.001c.121.026.233.051.328.078q-.017-1.882-.037-3.724v-.029c-.031-2.979-.062-5.896-.056-8.811l.004-1.933c.009-5.164.018-10.327.129-15.487.218-10.176 4.707-17.928 13.431-23.199a58 58 0 0 1 2.388-1.345 98 98 0 0 0 1.307-.716l28.959-16.288.147-.083a682428 682428 0 0 1 118.594-66.692c2.194-1.233 4.419-2.415 6.668-3.61l.002-.001q1.482-.786 2.978-1.588h-.004a3 3 0 0 1-.13-.152m-301.188-78.869c-.027-.452-.054-.814-.076-1.118v-.001a15 15 0 0 1-.061-1.208q.045-3.811.096-7.623v-.016l.001-.003v-.005c.081-6.159.162-12.319.185-18.481.008-1.686.492-2.686 2.025-3.533 7.467-4.145 14.909-8.334 22.351-12.522q5.75-3.239 11.505-6.467c.394-.222.829-.365 1.323-.528.253-.084.521-.172.806-.279.039.296.081.546.117.766.065.393.114.693.109.993q-.052 4.374-.11 8.748c-.08 6.126-.159 12.253-.2 18.38-.009 1.355-.525 2.057-1.686 2.694a1069 1069 0 0 0-9.528 5.337l-.001.001h-.001l-.001.001h-.001l-.001.001h-.001l-.001.001-.001.001-.004.002c-2.966 1.674-5.932 3.349-8.913 4.998-1.375.758-2.049 1.633-2.057 3.295-.035 8.512-.113 17.027-.191 25.541v.047q-.06 6.368-.111 12.736c-.003.464.053.925.122 1.487v.002c.036.294.076.616.112.98.34-.163.649-.306.936-.439h.001v-.001c.564-.26 1.042-.481 1.499-.738q3.698-2.075 7.392-4.158c5.847-3.295 11.695-6.59 17.586-9.805 2.005-1.093 2.811-2.356 2.803-4.679-.019-8.886.068-17.772.156-26.658l.07-7.44q.082-9.453.168-18.907v-.003q.108-11.823.207-23.645c.006-.616-.049-1.233-.113-1.964v-.002c-.033-.379-.069-.789-.101-1.245-.471.243-.893.457-1.283.653l-.001.001c-.727.367-1.338.676-1.934 1.012q-6.533 3.674-13.064 7.353l-.021.012c-11.83 6.663-23.66 13.326-35.525 19.924-1.924 1.069-2.67 2.223-2.678 4.441-.06 14.363-.206 28.726-.352 43.089q-.05 4.712-.096 9.425-.057 5.635-.121 11.271v.078l-.001.01v.015c-.049 4.421-.099 8.843-.14 13.266-.005.577.041 1.155.086 1.724v.001q.035.41.059.812c.2 0 .352.009.47.016.185.011.287.017.361-.024l2.213-1.218c3.332-1.832 6.665-3.665 9.944-5.587.576-.338 1.036-1.298 1.105-2.012.218-2.307.298-4.635.31-6.95.038-8.161.051-16.321.064-24.48v-.028l.001-.164q.005-3.592.012-7.183v-2.799l-1.608.776-.011.005-.004.002c-1.404.678-2.69 1.298-4.197 2.028zm127.974 204.192h-.259v11.327l-.002.18-.002.09-.002.098v.003c-.006.332-.012.664.006.994q.02.423.032.847c.026.798.051 1.596.182 2.376.851 5.086 4.554 7.163 9.317 5.167 1.386-.581 2.706-1.334 4.021-2.084l.013-.007.371-.212.181-.102.254-.144q25.258-14.208 50.512-28.421l41.436-23.315q13.24-7.449 26.482-14.893l.168-.095.13-.073.008-.004.008-.005.008-.004.007-.005.008-.004.008-.005.008-.004.008-.005a64903 64903 0 0 0 34.532-19.424c8.64-4.864 12.923-12.419 13.226-22.187.2-6.564.223-13.135.246-19.705v-.004q.008-2.837.024-5.673c.008-1.23-.117-2.501-.428-3.687-.939-3.601-4.061-5.425-7.651-4.396-1.496.427-2.928 1.162-4.295 1.92-4.974 2.755-9.93 5.546-14.884 8.337l-3.783 2.129q-17.14 9.642-34.28 19.281l-.025.014c-34.258 19.265-68.516 38.531-102.747 57.851-8.228 4.642-12.415 11.983-12.798 21.401-.117 2.847-.086 5.699-.056 8.551.014 1.297.028 2.594.028 3.892zm-33.207-314.165c.344.232.644.441.918.631.536.373.969.674 1.425.938q9.24 5.37 18.479 10.737l.027.015.024.014a30588 30588 0 0 1 46.653 27.139c1.545.9 2.755.981 4.332.065 3.078-1.788 6.184-3.526 9.29-5.265h.001v-.001h.002a796 796 0 0 0 7.816-4.414c1.227-.706 2.182-.77 3.413-.008 2.279 1.413 4.614 2.742 6.949 4.07q.935.53 1.867 1.064c.451.259.917.491 1.397.73q.37.183.753.379c.996-3.541.775-4.126-1.944-5.703l-.035-.02-.009-.005-.008-.005q-7.077-4.104-14.153-8.214l-12.438-7.224-.02-.012-.002-.001c-16.003-9.294-32.006-18.588-47.992-27.913-1.367-.799-2.416-.936-3.86-.105-4.732 2.729-9.501 5.399-14.269 8.068l-.001.001a2965 2965 0 0 0-6.538 3.668c-.358.2-.697.433-1.145.741a64 64 0 0 1-.932.63M38.993 414.581c.033-.216.071-.472.113-.793.329.155.623.288.892.409H40c.527.238.958.432 1.366.667q4.2 2.434 8.395 4.876l.009.005.009.005.012.007.015.009.02.012h.001l.001.001.002.001c6.208 3.611 12.416 7.222 18.656 10.777 1.654.944 2.3 2.013 2.275 3.937a9098 9098 0 0 0-.381 37.486q-.065 7.493-.135 14.987c-.005.521-.045 1.044-.09 1.652v.002c-.025.328-.052.682-.076 1.073-.302-.117-.574-.21-.822-.296-.464-.16-.845-.291-1.186-.491a8242 8242 0 0 1-10.688-6.217l-.033-.019c-5.666-3.3-11.333-6.6-17.012-9.881-1.263-.73-1.973-1.54-1.957-3.109.142-12.655.255-25.308.369-37.961v-.001q.072-8.127.148-16.254c.002-.256.04-.509.096-.884ZM207.51 260.008c-.142-.14-.297-.294-.477-.458.287-.179.553-.35.807-.513l.002-.001h.001v-.001c.495-.317.944-.606 1.41-.866q8.387-4.722 16.778-9.44l.005-.003.005-.002.005-.003.005-.003.006-.003.005-.003.005-.003.005-.002.005-.003a15727 15727 0 0 0 41.453-23.367c1.783-1.008 3.178-1.157 5.001-.06 4.598 2.764 9.242 5.452 13.886 8.139l.001.001.001.001h.001l.001.001h.001q3.257 1.882 6.506 3.776c.399.232.776.5 1.244.832l.001.001c.256.181.539.382.869.607-.335.216-.63.413-.902.595h-.001c-.505.337-.929.62-1.372.869-18.199 10.241-36.405 20.473-54.612 30.706q-.685.382-1.371.759l-.003.001c-1.14.628-2.279 1.254-3.389 1.93-1.024.625-1.908.686-2.989.053-4.608-2.707-9.231-5.392-13.853-8.077q-4.141-2.403-8.278-4.814c-.263-.154-.487-.376-.762-.649m4.09 111.985q-.26.218-.524.436c.013.144.011.303.008.463-.006.352-.011.706.161.9l.141.16c.76.856 1.552 1.751 2.517 2.317a4055 4055 0 0 0 20.687 12.068l.021.012q3.94 2.287 7.876 4.577c3.227 1.876 6.445 3.767 9.66 5.659.859.504 1.682 1.045 1.129 2.585l-6.162-3.579c-4.966-2.885-9.881-5.741-14.807-8.581a1384 1384 0 0 1-7.28-4.236c-4.524-2.644-9.11-5.323-13.923-8.013-.035.467-.07.876-.102 1.246-.064.742-.115 1.326-.12 1.908-.018 1.649-.024 3.298-.03 4.947-.013 3.413-.025 6.824-.148 10.234-.08 2.186.61 3.477 2.558 4.558 4.49 2.502 8.924 5.1 13.359 7.699l.003.001q2.792 1.638 5.59 3.267a42543 42543 0 0 0 38.966 22.602c.449.259.931.457 1.407.654h.002c.222.092.442.182.656.278.083-.17.143-.282.185-.36q.043-.078.062-.12a.2.2 0 0 0 .02-.077l.132-10.426.001-.041q.097-7.825.201-15.652c.012-1.029-.443-1.711-1.323-2.203a187 187 0 0 1-3.027-1.756q-.85-.502-1.704-.998l-4.849-2.811-.469-.272-.185-.107-7.912-4.587c-.439.464-.802.847-1.258 1.323l-24.473-14.194-.276-.16-16.766-9.725zm-28.161-246.997c.307.23.558.427.778.598.389.305.675.53.985.713q5.558 3.23 11.117 6.455l.007.004.006.004.007.004.006.003.007.004.006.004.007.004.005.003.005.003c7.685 4.46 15.37 8.919 23.042 13.404 1.294.754 2.339.827 3.666.065a856 856 0 0 1 16.488-9.273c1.428-.782 1.952-1.779 1.952-3.376.004-7.3.069-14.604.21-21.905.032-1.658-.637-2.569-2.013-3.339-3.622-2.021-7.248-4.05-10.744-6.276-1.864-1.186-3.32-1.122-5.228-.033-8.893 5.081-17.82 10.1-26.747 15.119H197l-.003.002-.003.002-.004.002-.003.002-.004.002-.003.002q-5.585 3.138-11.165 6.282c-.451.253-.883.54-1.409.888-.288.191-.604.4-.967.633m238.963 45.056q.001 2.669.005 5.297v.01c.007 4.822.014 9.558-.033 14.291-.016 1.593.472 2.622 1.9 3.413 2.278 1.264 4.525 2.583 6.772 3.903 1.329.779 2.657 1.559 3.993 2.328.348.201.733.332 1.171.482h.001l.003.001c.221.075.455.155.704.251.031-.311.066-.591.097-.85v-.001c.062-.506.114-.932.117-1.359q.06-6.162.113-12.324v-.027c.079-8.987.158-17.973.282-26.958.024-1.69-.718-2.529-2.061-3.291-4.145-2.361-8.267-4.76-12.388-7.159l-.003-.001-4.404-2.561-5.836-3.387c-7.02-4.076-14.04-8.151-21.07-12.209a7 7 0 0 1-.403-.26c-.602-.409-1.253-.851-2.324-.37l.001.66v.08c.001.523.002 1.07-.001 1.62-.009 1.516-.01 3.033-.012 4.55v.003c-.003 3.791-.006 7.583-.133 11.37-.072 2.186.617 3.449 2.553 4.55 7.841 4.466 15.634 9.015 23.416 13.559h.002l.026.016q3.757 2.194 7.512 4.381zM141.826 389.914c.275.181.574.379.912.597-.286.206-.517.38-.715.529-.34.257-.584.441-.849.592q-4.65 2.62-9.302 5.237l-.001.001-.013.007-.013.007-.012.008-.013.007-.025.014-.036.02-.047.027-.06.033c-7.224 4.066-14.449 8.131-21.656 12.228-1.311.746-2.343.766-3.654-.004-6.143-3.611-12.305-7.189-18.466-10.768q-4.623-2.684-9.243-5.373c-.373-.217-.72-.478-1.127-.787v-.001q-.298-.226-.656-.487c.191-.153.36-.299.519-.436l.001-.001c.313-.269.581-.501.884-.672q5.666-3.196 11.335-6.386l.013-.007a7741 7741 0 0 0 20.051-11.314c1.142-.645 2.065-.669 3.211.013 5.691 3.396 11.418 6.739 17.146 10.071a709 709 0 0 0 6.16 3.528l.002.001.002.001.001.001.002.001.002.001.002.001.002.001.001.001.002.001.018.01q2.084 1.182 4.163 2.374c.465.267.913.563 1.457.922zM117.677 209.7v-.002c.03-.279.065-.599.099-.982.334.158.631.294.901.418h.002c.536.246.969.444 1.38.679q2.383 1.374 4.758 2.758l.001.001.001.001h.001l.001.001h.001l.001.001h.001l.001.001h.001c3.07 1.786 6.14 3.572 9.237 5.308 1.412.79 1.94 1.774 1.92 3.388a18334 18334 0 0 0-.419 39.957v.074q-.097 9.948-.198 19.896c-.003.475-.07.949-.151 1.516-.04.28-.083.583-.123.92a45 45 0 0 0-.896-.408c-.503-.225-.927-.414-1.327-.645a1247 1247 0 0 1-4.851-2.823 731 731 0 0 0-8.919-5.151c-1.448-.818-2.109-1.794-2.089-3.545.167-14.322.293-28.646.419-42.97v-.008q.075-8.6.154-17.199c.005-.357.043-.714.094-1.186m262.935 64.708-.002-.002a39 39 0 0 0-1.494-.931c-.89-.521-1.787-1.031-2.684-1.541l-.004-.002c-1.84-1.046-3.68-2.093-5.463-3.228-1.529-.972-2.755-.9-4.316-.016-13.421 7.597-26.86 15.16-40.299 22.724l-.014.008q-7.897 4.443-15.79 8.889c-.509.285-1 .603-1.576.976-.287.185-.595.385-.937.601.318.213.596.404.848.577.492.337.887.608 1.298.851.883.52 1.777 1.025 2.67 1.53l.001.001h.001l.001.001h.001v.001h.001c1.849 1.046 3.699 2.092 5.46 3.266 1.787 1.19 3.166.997 4.961-.02 14.286-8.092 28.601-16.132 42.918-24.173l.015-.008.015-.009q5.933-3.331 11.865-6.665c.68-.381 1.351-.782 2.139-1.254.445-.266.928-.555 1.471-.875v-.008l-.559-.356zM75.987 392.898c-.034.453-.067.843-.097 1.192-.06.687-.105 1.214-.113 1.74a541 541 0 0 0-.072 8.45c0 .698-.01 1.285-.018 1.783-.024 1.435-.036 2.132.266 2.642.285.48.849.795 1.943 1.406a65 65 0 0 1 1.794 1.03c3.168 1.893 6.368 3.734 9.582 5.583l.002.001.001.001q2.09 1.2 4.185 2.413v1.307a2534 2534 0 0 0-.046 4.703v.006c-.04 4.396-.08 8.791-.18 13.187-.04 1.69.476 2.766 2.008 3.589 2.101 1.131 4.16 2.342 6.22 3.553 1.084.637 2.168 1.274 3.259 1.9.451.259.927.478 1.482.732l.002.001.004.002c.282.13.585.268.915.427.027-.386.056-.725.082-1.033.048-.57.087-1.036.092-1.504q.042-4.574.076-9.148v-.013c.059-7.635.118-15.269.259-22.904.04-2.138-.755-3.267-2.541-4.283-6.282-3.578-12.526-7.218-18.772-10.859l-.025-.014a4841 4841 0 0 0-7.226-4.208c-.573-.333-1.157-.647-1.898-1.046-.353-.19-.743-.4-1.184-.64zm15.412 26.58a37 37 0 0 1-.692-.527c-.37-.287-.659-.511-.97-.691q-4.56-2.658-9.123-5.309l-.01-.006a4063 4063 0 0 1-18.988-11.085c-1.27-.746-2.238-.605-3.432.077a1480 1480 0 0 1-9.9 5.602 2075 2075 0 0 0-6.758 3.812c-.345.195-.65.461-.992.761-.173.152-.357.313-.56.477.213.158.396.3.561.428l.001.001c.317.245.569.44.841.599q4.344 2.524 8.69 5.041a3905 3905 0 0 1 19.455 11.323c1.339.786 2.371.673 3.65-.057a1148 1148 0 0 1 10.804-6.103l.024-.014.019-.01.015-.008.01-.006.007-.004.005-.003q2.57-1.438 5.136-2.883a21 21 0 0 0 1.309-.827c.264-.176.556-.371.893-.588zm128.485-242.202c-.245.078-.447.134-.617.181-.296.083-.497.139-.673.239q-4.41 2.474-8.818 4.953l-.006.003a6467 6467 0 0 1-17.639 9.89c-1.113.621-1.396 1.48-1.404 2.65a1438 1438 0 0 1-.106 9.054v.015c-.035 2.614-.071 5.228-.095 7.843-.003.409.081.821.172 1.266q.068.317.126.662c.209-.075.386-.132.541-.18v-.001h.001c.259-.082.455-.144.632-.243q3.852-2.16 7.702-4.323l.006-.003.005-.003.006-.003.005-.003.005-.003.006-.003.005-.003.006-.003.005-.003a4647 4647 0 0 1 18.502-10.355c1.266-.702 1.678-1.638 1.682-3.021.01-3.376.052-6.75.094-10.125v-.013c.026-2.092.053-4.185.071-6.278.003-.418-.049-.836-.111-1.338-.032-.258-.067-.538-.099-.852zm47.271-99.232c-.204-.138-.36-.246-.486-.334h-.001a8 8 0 0 0-.481-.32l-5.378-3.126-.001-.001-.005-.003-.003-.001h-.001v-.001c-4.081-2.37-8.163-4.742-12.23-7.136-1.064-.626-1.867-.214-2.758.29a5131 5131 0 0 1-8.028 4.517l-.004.002-.007.004-.003.002a4243 4243 0 0 0-9.08 5.11c-.305.174-.576.406-.895.68-.171.146-.355.303-.565.47.237.172.448.334.646.484l.001.002h.001c.393.3.73.557 1.094.769a1468 1468 0 0 0 5.153 2.99h.001v.001c3.591 2.078 7.183 4.156 10.734 6.297 1.424.86 2.504.73 3.868-.056 3.678-2.123 7.382-4.2 11.087-6.275h.001l.001-.002h.003v-.001q2.685-1.503 5.368-3.015c.361-.205.701-.449 1.148-.768.237-.17.504-.36.82-.579m-.326 1.776c.282-.13.601-.276.976-.455.031.405.065.757.096 1.073.055.576.1 1.036.097 1.494q-.02 2.664-.052 5.328v.01a628 628 0 0 0-.061 9.312c.008 1.739-.484 2.896-2.13 3.779-3.665 1.97-7.29 4.017-10.916 6.065l-.002.001h-.001l-.001.001h-.001a1121 1121 0 0 1-5.341 3.004c-.397.222-.825.39-1.327.588-.273.107-.567.222-.891.36-.023-.368-.049-.696-.072-.997-.044-.556-.08-1.02-.077-1.483q.017-2.355.046-4.71c.037-3.313.075-6.625.042-9.94-.016-1.774.533-2.875 2.15-3.75 3.732-2.018 7.424-4.105 11.116-6.192a1454 1454 0 0 1 5.138-2.895c.357-.199.729-.37 1.211-.592m-21.164 30.535c.058-.214.114-.391.162-.544.088-.276.15-.474.153-.674q.036-3.309.065-6.618c.03-3.432.061-6.864.113-10.294.02-1.282-.674-1.936-1.674-2.513a3559 3559 0 0 1-8.274-4.792h-.001l-.003-.002-.008-.005h-.002l-.001-.002h-.002a3747 3747 0 0 0-8.282-4.798c-.259-.151-.562-.23-.893-.316h-.001c-.163-.043-.334-.088-.51-.144-.047.167-.097.313-.142.445-.085.25-.154.451-.156.652a2507 2507 0 0 0-.065 7.25c-.025 3.222-.051 6.444-.093 9.666-.016 1.27.67 1.944 1.67 2.517 3.477 2.003 6.949 4.018 10.422 6.033l.003.002q3.073 1.784 6.148 3.564c.231.133.481.229.803.353.168.064.355.136.568.224zm53.232 310.696c-2.541-2.202-21.78-13.193-23.841-13.629-.181 3.462-.181 6.902-.181 10.331v.01q.001 1.504-.004 3.005a245 245 0 0 1-.057 3.817v.001c-.064 3.18-.129 6.434.101 9.936l13.616-7.649.047-.026zM265.96 221.52q.007.365.008.731l-27.538 15.494-.018.009-.789.444-.523.295-.434.244a22 22 0 0 0-.198-.864c-.112-.46-.197-.807-.197-1.153-.008-1.069.006-2.138.019-3.207v-.004c.015-1.247.03-2.494.013-3.742-.016-1.299.468-2.158 1.625-2.799 4.568-2.532 9.116-5.097 13.665-7.662l1.847-1.042 1.812-1.021.016-.009c.801-.449 1.619-.907 2.545-.382a1150 1150 0 0 1 6.09 3.481l.003.002.003.002.003.002.003.001.003.002.003.002.003.002.021.011.02.012 1.995 1.146zM132.546 382.544l-.05.097-.121.236-.066.131c2.197 1.344 4.432 2.63 6.651 3.906l.003.002.003.002.003.001.003.002.003.002.001.001h.001c1.931 1.11 3.85 2.214 5.722 3.344v7.147q-.003 1.147-.017 2.295c-.016 1.475-.031 2.949.001 4.421.016.717-.007 1.437-.03 2.159-.051 1.563-.102 3.135.252 4.706 2.577-.763 17.908-9.265 19.436-10.846l-4.329-2.512c-8.767-5.085-17.486-10.143-26.211-15.186-.208-.121-.476-.135-.743-.15-.127-.007-.254-.014-.374-.032v.004zm69.68-165.689c-3.904 1.049-4.295 1.505-4.319 4.699-.101 12.257-.194 24.511-.287 36.768-.005.638-.003 1.276-.001 1.929v.003l.001 1.012c3.626-.609 4.372-1.416 4.389-4.445q.113-18.633.221-37.268c.003-.526.002-1.051.001-1.646l-.001-1.052zm23.043-15.105a78 78 0 0 0-1.24-.743c-.67-.396-1.169-.691-1.632-1.035-1.303-.968-2.509-.956-3.876-.065-1.055.689-2.165 1.292-3.276 1.894q-.743.4-1.479.812l-5.964 3.358c-5.094 2.867-10.187 5.734-15.276 8.609q-.213.119-.437.232h-.001c-.745.381-1.513.775-1.57 1.773-.055.918-.045 1.842-.033 2.948v.004c.006.525.013 1.092.013 1.718l31.167-17.483.266-.149.343-.193zm16.468 21.454c2.174-.291 12.455-6.03 13.943-7.849l-1.248-.76-.008-.005c-1.055-.643-2.098-1.28-3.148-1.901l-.993-.591v-.001h-.002v-.001c-1.233-.737-2.466-1.474-3.744-2.126-.429-.218-.837-.489-1.25-.762-1.019-.676-2.069-1.372-3.55-1.363zm-16.545-22.938.329-.155.116-.055.097-.045.073-.035.043-.021v-26.192c-.399.208-.791.396-1.172.58-.863.414-1.673.803-2.378 1.332-.564.427-1.069 1.331-1.085 2.029a736 736 0 0 0-.125 18.613c0 .722.424 1.65.964 2.11.642.542 1.408.935 2.176 1.328l.001.001c.322.165.644.33.957.506zM93.976 442.399q-.304.189-.61.371v13.927c2.086-.338 11.258-5.497 12.73-7.231-4.07-2.372-8.095-4.719-12.12-7.067m142.699-216.312c3.9-1.399 4.017-1.56 4.042-5.142q.016-2.445.035-4.889.027-3.261.045-6.521c.016-2.868-.794-3.759-4.122-4.316zm69.761 74.157.326.799q.393-.197.788-.39c.582-.286 1.165-.572 1.729-.889q13.027-7.303 26.047-14.625l.872-.489c5.639-3.169 11.28-6.338 16.903-9.537l.115-.062q.09-.046.183-.091l.001-.001c.587-.288 1.264-.621 1.363-1.924l-20.968 11.805-.842.475zm-38.027-77.169c-.239.031-.437.044-.604.055-.284.019-.477.032-.63.118a12351 12351 0 0 0-30.109 16.98c-.111.061-.168.216-.237.4a3 3 0 0 1-.126.306c.111.008.216.027.313.044.187.034.345.062.454.001q15.087-8.442 30.149-16.924c.152-.087.263-.247.427-.483.096-.139.211-.305.363-.497m-71.628-2.473q-.206.001-.407-.004-.136 10.194-.27 20.389l-.27 20.388h.371l.288-20.388zm-34.948 47.723q.38-.17.741-.325c1.547-.671 2.813-1.22 3.756-2.515a20 20 0 0 1-1.148-.74h-.001v-.001h-.002c-1.018-.69-1.999-1.355-3.346-1.493zm208.349-2.408-.007.011-.017.026-.236.36-.223.345 1.283.779.004.003.005.002c1.008.614 2.018 1.227 3.035 1.829.78.462 1.563.916 2.347 1.37l.001.001h.001q1.177.68 2.35 1.372 3.239 1.92 4.767 1.597l-13.31-7.699zm-166.991-17.964-.001.04-.002.097-.191 9.034c.75-6.159.617-12.342.391-18.497zm.201-12.161.004.001.001.001h.002l.089.033.166.061v-19.214h-.262zm158.329 111.792c-.24.173-.453.335-.65.485-.39.297-.72.548-1.077.749a22122 22122 0 0 1-40.281 22.752c-.404.227-.814.485-1.226.745-1.269.8-2.566 1.617-3.848 1.626-1.152.009-2.321-.788-3.475-1.575-.442-.301-.881-.6-1.316-.853a74363 74363 0 0 1-61.504-35.731c-.791-.46-1.552-.968-2.394-1.531h-.001l-.001-.001c-.433-.289-.888-.593-1.38-.912.268-.206.497-.394.704-.564.392-.322.706-.58 1.055-.775q7.186-4.051 14.375-8.096c9.585-5.395 19.17-10.79 28.737-16.213 1.46-.827 2.565-.908 4.078-.024 16.379 9.575 32.788 19.102 49.198 28.629l.013.007.012.007.013.008.013.007.013.008.012.007.013.008.013.007.012.007 10.458 6.072 2.294 1.327c1.533.885 3.065 1.77 4.591 2.666.302.177.579.396.92.666l.001.001.001.001v.001c.187.147.392.31.631.489zm-5.509.672.01.007.135.092c.228.156.486.332.786.533l-.549.315-.734.422-.787.453a501 501 0 0 1-3.892 2.225 10867 10867 0 0 1-9.434 5.311c-8.206 4.616-16.41 9.231-24.583 13.899-1.718.985-3.017 1.009-4.759-.012a17937 17937 0 0 0-45.542-26.517q-7.876-4.575-15.753-9.154c-.357-.209-.689-.458-1.09-.76h-.001v-.001c-.21-.157-.438-.329-.699-.517.274-.19.518-.368.746-.534l.002-.001.001-.001c.439-.32.817-.595 1.223-.823q6.012-3.39 12.028-6.775l.083-.047.007-.004a9248 9248 0 0 0 26.247-14.813c1.323-.75 2.335-.746 3.646.016a30187 30187 0 0 0 46.707 27.182l15.027 8.735c.361.211.704.446 1.171.766l.001.001zm-108.617-14.971.075.109q.098.144.198.287.306-.14.614-.273h.002v-.001h.001c.45-.196.901-.392 1.327-.63 3.408-1.895 6.804-3.811 10.2-5.727q3.501-1.972 7.004-3.941l.005-.003c7.353-4.133 14.707-8.267 22.019-12.476 1.831-1.053 3.251-1.069 4.985.089 1.568 1.048 3.218 1.978 4.867 2.907h.001v.001h.001l.001.001q1 .56 1.991 1.132l8.546 4.963.253.146.046.027q23.447 13.617 46.899 27.224c.382.221.79.396 1.312.622l.003.001h.001l.001.001c.288.124.61.263.982.432-.448-1.229-1.176-1.593-1.824-1.918h-.001c-.138-.07-.273-.137-.401-.211q-10.193-5.93-20.389-11.855c-14.219-8.264-28.439-16.528-42.64-24.824-1.561-.912-2.726-.944-4.299-.049-9.457 5.383-18.94 10.72-28.424 16.058q-5.73 3.223-11.458 6.452c-.469.265-.92.561-1.371.857l-.111.073-.202.132-.054.035-.098.064-.185.118zm189.029-27.949a305 305 0 0 1 1.855-1.123c-.392-.274-.715-.509-.997-.713-.488-.355-.851-.619-1.238-.844a964 964 0 0 0-4.518-2.618c-3.017-1.741-6.033-3.481-9.009-5.283-1.331-.803-2.315-.686-3.618.052a6070 6070 0 0 1-24.907 14.039l-.005.003q-4.77 2.678-9.537 5.359c-8.813 4.957-17.626 9.914-26.426 14.891-.578.328-1.123.715-1.726 1.142-.315.223-.645.458-1.005.701.248.184.445.338.612.468l.001.001h.001c.273.214.467.364.677.487l.655.385 1.251.735.007.004.006.004.021.013c3.068 1.803 6.136 3.606 9.22 5.385.43.248.863.54 1.299.834l.001.001c1.159.782 2.335 1.575 3.496 1.569 1.297-.006 2.614-.825 3.897-1.623.396-.246.788-.491 1.177-.709a47702 47702 0 0 0 55.922-31.443c.925-.522 1.835-1.076 2.888-1.717m-75.691 27.37.002.001.002.001c.435.317.768.559 1.122.767.861.505 1.736.991 2.61 1.477 1.814 1.006 3.626 2.013 5.316 3.194 2.093 1.464 3.723 1.21 5.84.008 13.623-7.746 27.278-15.431 40.934-23.116l.016-.008.031-.018.008-.004.032-.018.008-.005q7.222-4.063 14.442-8.13c.468-.263.922-.55 1.468-.893v-.001c.281-.177.587-.37.931-.582-.321-.214-.613-.413-.887-.599a28 28 0 0 0-1.581-1.027 179 179 0 0 0-2.693-1.543h-.001c-1.772-1.002-3.544-2.004-5.24-3.119-1.702-1.121-3.037-.968-4.759.012a10267 10267 0 0 1-35.431 19.974l-.009.005-.039.022q-6.651 3.738-13.3 7.478c-2.141 1.206-4.274 2.423-6.549 3.721l-.013.008-.015.008-.005.003-.103.059-2.996 1.709c.332.232.61.434.856.613zm73.951-28.251.187-.28.092-.137.097-.148q-.283-.196-.561-.398l-.001-.001c-.389-.281-.777-.56-1.188-.802-1.129-.662-2.265-1.313-3.402-1.965-2.319-1.328-4.639-2.658-6.899-4.081-1.634-1.033-2.9-.928-4.542.008-7.418 4.235-14.869 8.414-22.319 12.592l-.001.001h-.001l-.001.001-.001.001h-.001l-.005.003-.01.006q-4.223 2.367-8.443 4.739l-4.78 2.688a7585 7585 0 0 0-22.094 12.457q-.081.046-.164.09l-.191.097-.23.112-.001.001c-.727.352-1.505.73-1.992 1.693 1.124.101 1.868-.379 2.567-.83a10 10 0 0 1 .563-.348c19.167-10.757 38.329-21.522 57.455-32.347 1.42-.803 2.481-.843 3.86.012 2.481 1.533 5.019 2.98 7.555 4.425l.006.004a667 667 0 0 1 2.329 1.33c.457.264.932.495 1.407.726l.359.176.144.071zm-105.293 11.281.003-.002c.193.169.357.323.505.462.29.272.519.487.783.641q2.428 1.43 4.866 2.845c3.108 1.809 6.217 3.618 9.287 5.488 1.415.863 2.492.759 3.872-.044 6.671-3.872 13.39-7.672 20.114-11.455 10.517-5.918 21.042-11.823 31.566-17.728l10.514-5.899c.28-.158.569-.299.958-.489.198-.097.422-.207.683-.338-.462-.308-.833-.561-1.148-.776-.54-.368-.916-.624-1.308-.853-1.345-.785-2.695-1.561-4.045-2.338-3.037-1.748-6.074-3.495-9.059-5.33-1.537-.943-2.695-.956-4.276-.06-14.301 8.085-28.625 16.132-42.948 24.179q-9.222 5.181-18.443 10.366c-.414.233-.8.516-1.236.835l-.002.002c-.213.156-.438.321-.683.492l-.003-.002zm78.073-25.434-.385-.268-.466-.33-.005-.003-.001-.001c-.516-.367-.949-.674-1.405-.943-.957-.563-1.921-1.114-2.884-1.665h-.001l-.001-.001h-.001l-.001-.001h-.001l-.001-.001h-.001c-1.842-1.054-3.684-2.106-5.471-3.244-1.456-.924-2.617-.908-4.093-.041-3.892 2.272-7.823 4.475-11.754 6.678l-.002.001h-.001l-.001.001h-.001l-.001.001h-.001l-.001.001q-1.91 1.07-3.819 2.143l-11.282 6.343-.032.018c-9.887 5.559-19.774 11.117-29.657 16.682-.45.253-.874.549-1.359.888-.241.168-.497.347-.778.536l.277.195.258.185.228.165c.444.32.793.573 1.165.79.953.559 1.914 1.106 2.875 1.652 1.923 1.094 3.845 2.187 5.703 3.381 1.525.98 2.711.952 4.284.065 14.231-8.059 28.484-16.08 42.736-24.101q6.795-3.824 13.589-7.65c.458-.257.897-.549 1.421-.897.265-.176.552-.367.874-.575zm1.234-.879.192-.313.192-.312-.276-.191-.279-.197-.008-.006c-.4-.282-.8-.565-1.22-.812a356 356 0 0 0-3.336-1.93c-2.34-1.344-4.681-2.687-6.957-4.132-1.65-1.049-2.904-.884-4.538.048-10.031 5.71-20.094 11.362-30.157 17.014l-8.216 4.617q-3.195 1.794-6.392 3.586l-.001.001a3798 3798 0 0 0-13.35 7.508q-.17.094-.357.184c-.628.307-1.344.658-1.623 1.898.398-.194.748-.358 1.064-.507l.002-.001c.58-.272 1.048-.492 1.499-.743q2.889-1.619 5.77-3.251l.007-.004q1.989-1.125 3.979-2.246 6.152-3.457 12.304-6.91l.007-.004.007-.004.007-.003.007-.004.007-.004.007-.004.007-.004c11.869-6.663 23.737-13.325 35.58-20.03 1.557-.883 2.762-.968 4.307.012 2.311 1.464 4.69 2.819 7.07 4.175q1.19.676 2.376 1.359c.507.293 1.031.556 1.554.82q.385.193.765.39m-237.659 39.172c.108-.313.221-.638.31-.98l.004-.004-7.611-4.425a13284 13284 0 0 0-23.067-13.395c-.193-.112-.435-.14-.811-.185-.22-.025-.485-.057-.814-.113l.437.626.983 1.407c-.13.318-.279.62-.423.912-.314.635-.602 1.219-.602 1.802-.003.585.283 1.17.588 1.798.139.284.282.578.404.884l-.514.669-.273.356-.58.754a2903 2903 0 0 0 31.033 18.013c.143.082.342.066.632.044.167-.013.364-.028.598-.028-.904-1.254-.835-2.348-.295-3.505.226-.48.331-1.319.065-1.678-.742-.999-.426-1.91-.064-2.952m127.732 83.369h-.002c-.485-.236-.906-.44-1.31-.674q-4.306-2.5-8.61-5.005l-.011-.007-.007-.004-.008-.004-.007-.004-.008-.005-.007-.004a4142 4142 0 0 0-19.724-11.427c-1.243-.714-1.759-1.48-1.642-2.936.097-1.24.086-2.487.075-3.735a66 66 0 0 1 .01-2.477c.048-1.71.665-2.032 2.178-1.145q5.002 2.928 10.003 5.861l.006.004.006.003.006.004a6276 6276 0 0 0 18.934 11.072c1.069.621 1.504 1.351 1.452 2.581a86 86 0 0 0-.047 3.691v.004c.002.922.003 1.845-.017 2.767-.009.349-.108.697-.231 1.124v.002a16 16 0 0 0-.197.729l-.507-.252-.203-.098zm-27.968-24.91c-.023.45-.039.842-.054 1.194-.029.697-.051 1.24-.107 1.778-.158 1.509.5 2.453 1.802 3.203a4042 4042 0 0 1 15.491 8.964q4.524 2.627 9.052 5.249c.257.148.548.239.882.344.175.054.362.112.562.185l.124-.744.072-.432.074-.442c.412-2.351-.532-3.727-2.674-4.916-5.361-2.978-10.659-6.074-15.956-9.17h-.001l-.001-.001h-.001l-.001-.001c-2.221-1.297-4.441-2.595-6.667-3.884a28 28 0 0 0-1.54-.802l-.004-.002-.003-.001h-.001c-.31-.154-.654-.325-1.049-.526zm-1.726 3.42h.092v-2.843h-.092zm53.711 36.966v.004l-.004-.004zm0 0c0-1.062-.008-2.124-.016-3.186v-.013c-.018-2.336-.037-4.672.033-7.006.229-7.643 3.561-13.6 10.228-17.383 14.034-7.96 28.102-15.861 42.17-23.762l.024-.013.054-.03q8.704-4.887 17.405-9.781l21.777-12.25c18.993-10.685 37.987-21.37 56.986-32.044 5.461-3.068 10.955-6.075 16.453-9.083l.002-.002.006-.003 1.407-.77c1.875-1.028 3.993-.855 5.368.718.944 1.077 1.65 2.473 2.093 3.844.314.968.299 2.058.285 3.119v.001q-.005.291-.006.579c-.012 5.892-.024 11.785-.109 17.674-.109 7.893-3.699 13.826-10.467 17.746-5.422 3.143-10.895 6.201-16.367 9.258h-.001l-.001.001h-.001l-.001.001-.026.014-.002.002-.002.001-.002.001a2519 2519 0 0 0-7.014 3.928l-19.289 10.85q-54.253 30.519-108.511 61.028l-.092.051c-1.341.753-2.691 1.512-4.091 2.147-2.005.907-4.037.863-5.99-.214-1.456-.803-2.371-1.827-2.299-3.735.106-2.755.084-5.514.063-8.273-.009-1.139-.018-2.277-.018-3.415zm.92-1.081h.178c0-.982-.011-1.963-.022-2.945v-.001c-.025-2.173-.049-4.346.046-6.513.302-6.969 3.327-12.503 9.426-15.972 11.973-6.809 23.986-13.55 35.998-20.29 5.354-3.005 10.709-6.009 16.06-9.02q29.6-16.655 59.2-33.316l.145-.082.147-.082.146-.082.601-.339.903-.508.881-.496 34.942-19.666q.78-.44 1.556-.885c1.139-.653 2.277-1.305 3.442-1.91.951-.492 1.956-.96 2.992-1.182 2.388-.516 4.554.759 5.207 3.102.327 1.174.408 2.452.408 3.682 0 5.974-.029 11.951-.113 17.925-.109 7.594-3.38 13.406-10.031 17.157a35815 35815 0 0 1-41.476 23.342q-9.526 5.354-19.048 10.712l-8.013 4.509c-27.915 15.707-55.832 31.417-83.754 47.113-1.149.65-2.335 1.295-3.581 1.707-2.691.891-5.03-.339-5.841-3.058-.302-1.016-.367-2.125-.383-3.194-.032-2.329-.026-4.66-.02-6.99q.004-1.36.004-2.718m51.546-22.208c.108-.337.22-.633.322-.902v-.001c.192-.508.349-.922.376-1.343.351-5.756 2.964-10.084 8.002-12.919 30.948-17.408 61.896-34.816 92.835-52.236.462-.261.879-.597 1.404-1.02l.001-.001c.287-.231.607-.489.983-.774 3.001-.048 5.393 2.057 5.36 5.667-.044 5.594-2.65 9.874-7.453 12.677-4.211 2.457-8.47 4.834-12.729 7.212q-2.633 1.468-5.26 2.944-22.66 12.746-45.323 25.491l-28.87 16.238-.387.222c-.375.216-.75.433-1.134.625-3.235 1.625-5.965.948-8.131-1.88zm108.271-62.617c-.065-4.199-2.444-5.651-5.715-4.054-.535.261-1.055.556-1.575.851l-.394.222-17.69 9.952-17.456 9.819-13.495 7.594a18236 18236 0 0 1-42.492 23.866c-3.694 2.065-6.135 5.034-7.215 9.071-.335 1.251-.452 2.646-.287 3.925.327 2.545 2.364 3.634 4.751 2.706.67-.261 1.309-.62 1.941-.976h.001l.273-.153q39.596-22.263 79.186-44.532 1.622-.911 3.247-1.818c3.408-1.905 6.815-3.81 10.176-5.793 4.255-2.509 6.292-6.433 6.74-10.68zm-130.184 82.223c5.409-3.428 8.135-8.514 8.716-13.955v.004c.024-3.098-.456-5.127-2.218-6.696-2.057-1.827-3.102-1.936-5.53-.467a3 3 0 0 1-.374.18h-.001c-.101.043-.202.086-.299.138-5.505 3.005-8.357 7.849-9.43 13.847-.11.628-.063 1.285-.015 1.941.049.681.098 1.361-.029 2.007-.278 1.404.286 2.174 1.275 2.892 2.609 1.896 5.328 1.743 7.905.109m7.675-14.92.029.4h-.004c-.702 5.57-3.167 10.241-8.047 13.471-.678.448-1.476.771-2.263.985-2.512.677-4.711-.597-5.255-3.159a11 11 0 0 1-.129-3.686c.657-4.816 3.045-8.676 6.784-11.733.319-.258.678-.48 1.032-.686 1.88-1.089 3.8-1.706 5.837-.407 1.757 1.12 1.882 2.9 2.016 4.815m120.065-65.355c-.222 2.452-1.521 4.646-4.014 6.07-2.789 1.595-5.591 3.17-8.392 4.745l-.001.001-2.432 1.368q-39.99 22.499-79.985 44.992l-.329.187c-.395.225-.791.452-1.208.632-2.4 1.02-4.206-.186-4.045-2.803.169-2.771 1.609-4.832 3.973-6.236 1.043-.621 2.106-1.21 3.169-1.797q.692-.382 1.38-.768l42.006-23.615 1.256-.707 43.447-24.425c.136-.075.268-.159.4-.241l.001-.001c.22-.138.439-.276.676-.379 2.238-.976 4.037.169 4.102 2.981zm-1.448.113c.012-1.751-.658-2.291-2.025-1.767-.749.288-1.456.69-2.159 1.09l-.293.166-.198.111q-25.235 14.189-50.469 28.381l-.055.031-18.236 10.256q-3.142 1.768-6.282 3.541h-.002c-4.77 2.692-9.539 5.383-14.327 8.043-1.706.947-2.819 2.274-3.367 4.105-.271.892-.452 1.82.387 2.533.724.616 1.385.231 2.007-.131l.152-.088.12-.067a527 527 0 0 0 5.772-3.227l.005-.002a358 358 0 0 1 1.604-.905l35.654-20.047 35.054-19.71a4510 4510 0 0 0 5.645-3.183c2.526-1.425 5.052-2.851 7.58-4.27 2.025-1.138 3.207-2.816 3.441-4.86zm-126.09 76.726c3.505-2.227 5.287-5.554 5.598-9.011h-.004c.04-4.509-2.307-6.13-5.844-4.691-.529.218-1.081.46-1.513.823-2.924 2.449-4.719 5.526-4.687 9.41.033 3.961 3.086 5.606 6.45 3.469m.351-11.12c1.613-.577 2.666.226 2.71 2.404l.004.004c-.327 2.496-1.504 4.856-4.078 6.292-1.452.81-2.565.189-2.871-1.44-.436-2.315 1.984-6.458 4.235-7.26" clip-rule="evenodd"/>
</svg>
