<svg xmlns="http://www.w3.org/2000/svg" width="20" height="20" fill="none" viewBox="0 0 20 20">
    <path d="M10 4a2 2 0 1 0-4 0 2 2 0 0 0 4 0m7.25.75a.75.75 0 0 0 0-1.5h-5.5a.75.75 0 0 0 0 1.5zM5 4a.75.75 0 0 1-.75.75h-1.5a.75.75 0 0 1 0-1.5h1.5A.75.75 0 0 1 5 4m-.75 13.25a.75.75 0 0 0 0-1.5h-1.5a.75.75 0 0 0 0 1.5zm13 0a.75.75 0 0 0 0-1.5h-5.5a.75.75 0 0 0 0 1.5zm-8.25-7a.75.75 0 0 1-.75.75h-5.5a.75.75 0 0 1 0-1.5h5.5a.75.75 0 0 1 .75.75m8.25.75a.75.75 0 0 0 0-1.5h-1.5a.75.75 0 0 0 0 1.5zM14 10.25a2 2 0 1 0-4 0 2 2 0 0 0 4 0m-4 6.25a2 2 0 1 0-4 0 2 2 0 0 0 4 0"/>
</svg>
