<svg xmlns="http://www.w3.org/2000/svg" width="20" height="20" fill="none" viewBox="0 0 20 20">
    <path fill="#727683" d="M10.75 16.91C11.958 16.077 13.421 15.59 15 15.59 15.71 15.59 16.396 15.689 17.046 15.873 17.272 15.937 17.515 15.891 17.702 15.749 17.89 15.607 18 15.386 18 15.151V4.151C18 3.815 17.777 3.521 17.454 3.429 16.673 3.208 15.85 3.09 15 3.09 13.464 3.09 12.016 3.476 10.75 4.155V16.91ZM9.25 4.155C7.984 3.476 6.536 3.09 5 3.09 4.15 3.09 3.327 3.208 2.546 3.429 2.223 3.521 2 3.815 2 4.151V15.151C2 15.386 2.11 15.607 2.298 15.749 2.485 15.891 2.728 15.937 2.954 15.873 3.604 15.689 4.29 15.59 5 15.59 6.579 15.59 8.042 16.077 9.25 16.91V4.155Z"/>
</svg>
