<svg xmlns="http://www.w3.org/2000/svg" width="20" height="20" fill="none" viewBox="0 0 20 20">
    <path d="M10 2q-2.29.002-4.507.276a1.965 1.965 0 0 0-1.715 1.961V16a2 2 0 0 0 2 2h8.444a2 2 0 0 0 2-2V4.237c0-.98-.716-1.838-1.715-1.961A37 37 0 0 0 10 2M6.436 8.889c0-.368.298-.667.666-.667h.01c.368 0 .666.299.666.667v.009a.667.667 0 0 1-.667.666h-.009a.667.667 0 0 1-.666-.666zm.666 1.26a.667.667 0 0 0-.666.666v.009c0 .368.298.666.666.666h.01a.667.667 0 0 0 .666-.666v-.01a.667.667 0 0 0-.667-.666zm-.666 2.592c0-.368.298-.667.666-.667h.01c.368 0 .666.299.666.667v.009a.667.667 0 0 1-.667.666h-.009a.667.667 0 0 1-.666-.666zM7.102 14a.667.667 0 0 0-.666.667v.008c0 .369.298.667.666.667h.01a.667.667 0 0 0 .666-.667v-.008A.667.667 0 0 0 7.111 14zm1.26-5.111c0-.368.298-.667.666-.667h.01c.367 0 .666.299.666.667v.009a.667.667 0 0 1-.667.666h-.009a.667.667 0 0 1-.666-.666zm.666 1.26a.667.667 0 0 0-.666.666v.009c0 .368.298.666.666.666h.01a.667.667 0 0 0 .666-.666v-.01a.667.667 0 0 0-.667-.666zm-.666 2.592c0-.368.298-.667.666-.667h.01c.367 0 .666.299.666.667v.009a.667.667 0 0 1-.667.666h-.009a.667.667 0 0 1-.666-.666zM9.028 14a.667.667 0 0 0-.666.667v.008c0 .369.298.667.666.667h.01a.667.667 0 0 0 .666-.667v-.008A.667.667 0 0 0 9.037 14zm1.263-5.111c0-.368.298-.667.666-.667h.01c.367 0 .666.299.666.667v.009a.667.667 0 0 1-.667.666h-.009a.667.667 0 0 1-.666-.666zm.666 1.26a.667.667 0 0 0-.666.666v.009c0 .368.298.666.666.666h.01a.667.667 0 0 0 .666-.666v-.01a.667.667 0 0 0-.667-.666zm-.666 2.592c0-.368.298-.667.666-.667h.01c.367 0 .666.299.666.667v.009a.667.667 0 0 1-.667.666h-.009a.667.667 0 0 1-.666-.666zM10.957 14a.667.667 0 0 0-.666.667v.008c0 .369.298.667.666.667h.01a.667.667 0 0 0 .666-.667v-.008a.667.667 0 0 0-.667-.667zm1.265-5.111c0-.368.299-.667.667-.667h.009c.368 0 .667.299.667.667v.009a.667.667 0 0 1-.667.666h-.009a.667.667 0 0 1-.666-.666zm.667 1.26a.667.667 0 0 0-.666.666v.009c0 .368.298.666.666.666h.009a.667.667 0 0 0 .667-.666v-.01a.667.667 0 0 0-.667-.666zm0 1.925c.368 0 .667.299.667.667v1.926a.667.667 0 1 1-1.333 0V12.74c0-.368.298-.667.666-.667M7.111 4.667a.667.667 0 0 0-.667.666v.445c0 .368.299.666.667.666h5.778a.667.667 0 0 0 .667-.666v-.445a.667.667 0 0 0-.667-.666z" clip-rule="evenodd"/>
</svg>
