<svg xmlns="http://www.w3.org/2000/svg" width="20" height="20" fill="none" fill-rule="evenodd" viewBox="0 0 20 20">
    <path d="M8.889 2a2.444 2.444 0 0 0-2.444 2.444v.394a37 37 0 0 0-2.103.265.667.667 0 0 0 .205 1.318l.132-.02.748 9.35A2.444 2.444 0 0 0 7.863 18h4.273c1.275 0 2.336-.98 2.437-2.25l.748-9.35.132.02a.667.667 0 1 0 .205-1.317 37 37 0 0 0-2.102-.265v-.394A2.444 2.444 0 0 0 11.11 2zM10 4.667q1.12 0 2.222.066v-.289a1.11 1.11 0 0 0-1.11-1.11H8.888a1.11 1.11 0 0 0-1.111 1.11v.29A37 37 0 0 1 10 4.666M8.737 7.973a.667.667 0 0 0-1.332.054l.267 6.666a.667.667 0 0 0 1.332-.053zm3.858.054a.667.667 0 0 0-1.332-.054l-.267 6.667a.667.667 0 0 0 1.332.053z" clip-rule="evenodd"/>
</svg>
