<svg xmlns="http://www.w3.org/2000/svg" width="20" height="20" fill="none" viewBox="0 0 20 20">
    <path fill="#727683" fill-rule="evenodd" d="M5.143 2a1.43 1.43 0 0 0-1.429 1.429V16.57c0 .79.64 1.429 1.429 1.429h9.714c.79 0 1.429-.64 1.429-1.429v-6a2.857 2.857 0 0 0-2.857-2.857H12c-.789 0-1.428-.64-1.428-1.428V4.857A2.857 2.857 0 0 0 7.714 2zm1.429 10.286a.57.57 0 0 1 .57-.572h5.715a.571.571 0 1 1 0 1.143H7.143a.57.57 0 0 1-.571-.571M7.142 14a.571.571 0 1 0 0 1.143H10A.571.571 0 0 0 10 14z" clip-rule="evenodd"/>
    <path fill="#727683" d="M10.74 2.24c.607.702.974 1.617.974 2.617v1.429c0 .158.128.285.286.285h1.429c1 0 1.915.368 2.616.975A7.44 7.44 0 0 0 10.74 2.24"/>
</svg>
