<svg width="20" height="20" viewBox="0 0 20 20" fill="none" xmlns="http://www.w3.org/2000/svg">
<path d="M2.5 1.75C2.91421 1.75 3.25 2.08579 3.25 2.5V16.75H17.5C17.9142 16.75 18.25 17.0858 18.25 17.5C18.25 17.9142 17.9142 18.25 17.5 18.25H2.5C2.08579 18.25 1.75 17.9142 1.75 17.5V2.5C1.75 2.08579 2.08579 1.75 2.5 1.75Z" fill="#727683"/>
<path d="M14 10C15.3807 10 16.5 11.1193 16.5 12.5C16.5 13.8807 15.3807 15 14 15C12.6193 15 11.5 13.8807 11.5 12.5C11.5 11.1193 12.6193 10 14 10Z" fill="#727683"/>
<path d="M7 7.5C8.38071 7.5 9.5 8.61929 9.5 10C9.5 11.3807 8.38071 12.5 7 12.5C5.61929 12.5 4.5 11.3807 4.5 10C4.5 8.61929 5.61929 7.5 7 7.5Z" fill="#727683"/>
<path d="M11 2.5C12.3807 2.5 13.5 3.61929 13.5 5C13.5 6.38071 12.3807 7.5 11 7.5C9.61929 7.5 8.5 6.38071 8.5 5C8.5 3.61929 9.61929 2.5 11 2.5Z" fill="#727683"/>
</svg>
