<svg xmlns="http://www.w3.org/2000/svg" width="20" height="20" fill="none" viewBox="0 0 20 20">
    <path fill="#727683" d="M2.5 1.75C2.91421 1.75 3.25 2.08579 3.25 2.5V16.75H17.5C17.9142 16.75 18.25 17.0858 18.25 17.5C18.25 17.9142 17.9142 18.25 17.5 18.25H2.5C2.08579 18.25 1.75 17.9142 1.75 17.5V2.5C1.75 2.08579 2.08579 1.75 2.5 1.75Z"/>
    <path fill="#727683" d="M14 10C15.381 10 16.5 11.119 16.5 12.5 16.5 13.881 15.381 15 14 15 12.619 15 11.5 13.881 11.5 12.5 11.5 11.119 12.619 10 14 10ZM7 7.5C8.381 7.5 9.5 8.619 9.5 10 9.5 11.381 8.381 12.5 7 12.5 5.619 12.5 4.5 11.381 4.5 10 4.5 8.619 5.619 7.5 7 7.5ZM11 2.5C12.381 2.5 13.5 3.619 13.5 5 13.5 6.381 12.381 7.5 11 7.5 9.619 7.5 8.5 6.381 8.5 5 8.5 3.619 9.619 2.5 11 2.5Z"/>
</svg>
