<svg xmlns="http://www.w3.org/2000/svg" width="20" height="20" fill="none" viewBox="0 0 20 20">
    <path d="M4.309 3.41a.635.635 0 1 0-.898.899l12.28 12.28a.635.635 0 1 0 .9-.898l-1.479-1.478a8.5 8.5 0 0 0 2.795-3.708 1.4 1.4 0 0 0 0-1.005A8.473 8.473 0 0 0 5.982 5.083zm3.787 3.788.925.924a2.118 2.118 0 0 1 2.857 2.857l.925.925a3.388 3.388 0 0 0-4.707-4.707" clip-rule="evenodd"/>
    <path d="m10.634 13.329 2.137 2.137c-.868.3-1.8.463-2.77.463A8.47 8.47 0 0 1 2.093 10.5a1.4 1.4 0 0 1 0-1.005A8.5 8.5 0 0 1 3.935 6.63l2.738 2.737q-.06.309-.06.634a3.388 3.388 0 0 0 4.022 3.329"/>
</svg>
