<svg xmlns="http://www.w3.org/2000/svg" width="20" height="20" fill="none" fill-rule="evenodd" viewBox="0 0 20 20">
    <path d="M2 6.667A2.667 2.667 0 0 1 4.667 4h10.666A2.667 2.667 0 0 1 18 6.667v7.11a2.667 2.667 0 0 1-2.667 2.667H4.667A2.667 2.667 0 0 1 2 13.778zM5.556 8A1.778 1.778 0 1 1 9.11 8a1.778 1.778 0 0 1-3.555 0m1.777 2.667a3.56 3.56 0 0 0-3.257 2.129.667.667 0 0 0 .37.889c.896.347 1.87.537 2.887.537s1.991-.19 2.888-.537a.667.667 0 0 0 .37-.89 3.56 3.56 0 0 0-3.258-2.128m4.445-3.334c0-.368.298-.666.666-.666h2.223a.667.667 0 1 1 0 1.333h-2.223a.667.667 0 0 1-.666-.667m0 5.778c0-.368.298-.667.666-.667h2.223a.667.667 0 0 1 0 1.334h-2.223a.667.667 0 0 1-.666-.667m.666-3.555a.667.667 0 0 0 0 1.333h2.223a.667.667 0 0 0 0-1.333z" clip-rule="evenodd"/>
</svg>
