<svg xmlns="http://www.w3.org/2000/svg" width="20" height="20" fill="none" viewBox="0 0 20 20">
    <path fill="#727683" fill-rule="evenodd" d="M2 5.929C2 4.863 2.895 4 4 4h12c1.105 0 2 .863 2 1.929v8.142C18 15.137 17.105 16 16 16H4c-1.105 0-2-.864-2-1.929zm1.333 4.98v3.162c0 .356.299.643.667.643h12a.655.655 0 0 0 .667-.643v-2.305l-1.973-1.902a.684.684 0 0 0-.943 0L12.054 11.5l.417.403c.26.25.26.658 0 .909a.684.684 0 0 1-.942 0L6.916 8.364a.684.684 0 0 0-.943 0zm8.445-3.48c0 .473-.398.857-.89.857-.49 0-.888-.384-.888-.857 0-.474.398-.858.889-.858.49 0 .889.384.889.858" clip-rule="evenodd"/>
</svg>
