<svg xmlns="http://www.w3.org/2000/svg" width="20" height="20" fill="none" viewBox="0 0 20 20">
    <path d="M9.6 1a6.6 6.6 0 0 0-3.308 12.312c.548.319.892.807.907 1.298a.6.6 0 0 0 .462.565q.422.1.859.156a.43.43 0 0 0 .48-.435v-3.729a5.4 5.4 0 0 1-.75-.137.6.6 0 1 1 .3-1.162 4.2 4.2 0 0 0 2.1 0 .6.6 0 0 1 .3 1.162 5.4 5.4 0 0 1-.75.137v3.729a.43.43 0 0 0 .48.435q.438-.056.859-.156A.6.6 0 0 0 12 14.61c.015-.491.359-.98.907-1.298A6.6 6.6 0 0 0 9.6 1"/>
    <path d="M7.21 16.32a.6.6 0 0 1 .702-.478 9 9 0 0 0 3.376 0 .6.6 0 0 1 .224 1.179 10.3 10.3 0 0 1-3.824 0 .6.6 0 0 1-.477-.701m.592 1.955a.6.6 0 0 1 .66-.534 11 11 0 0 0 2.275 0 .6.6 0 1 1 .124 1.193 12 12 0 0 1-2.524 0 .6.6 0 0 1-.535-.659" clip-rule="evenodd"/>
</svg>
