<svg xmlns="http://www.w3.org/2000/svg" width="20" height="20" fill="none" viewBox="0 0 20 20">
    <path fill="#727683" fill-rule="evenodd" d="M15.295 2.114a.57.57 0 0 1 .225.453v10.624a2.27 2.27 0 0 1-1.645 2.18l-.998.286a1.93 1.93 0 1 1-1.06-3.712l1.747-.499c.487-.139.822-.584.822-1.09V6.154L7.582 8.098v7.36a2.27 2.27 0 0 1-1.644 2.182l-.998.285a1.93 1.93 0 0 1-1.06-3.712l1.746-.499c.487-.139.822-.584.822-1.09V4.835c0-.253.168-.476.412-.545l7.938-2.268a.57.57 0 0 1 .497.092" clip-rule="evenodd"/>
</svg>
