<svg xmlns="http://www.w3.org/2000/svg" width="20" height="20" fill="none" fill-rule="evenodd" viewBox="0 0 20 20">
    <path d="M5.205 12.64a.667.667 0 0 1-.119.934 2.22 2.22 0 0 0-.827 2.167q.198.037.408.037c.715 0 1.351-.337 1.759-.864a.667.667 0 0 1 1.054.816 3.55 3.55 0 0 1-3.984 1.184.67.67 0 0 1-.41-.41A3.55 3.55 0 0 1 4.27 12.52a.667.667 0 0 1 .935.12" clip-rule="evenodd"/>
    <path d="M6.224 11.778a11.6 11.6 0 0 0 1.998 1.998v3.557c0 .369.299.667.667.667a4.444 4.444 0 0 0 4.264-5.701 11.54 11.54 0 0 0 4.845-9.643.667.667 0 0 0-.654-.654L17.111 2a11.54 11.54 0 0 0-9.41 4.847A4.444 4.444 0 0 0 2 11.111c0 .368.298.667.667.667zm6.443-2.667a1.778 1.778 0 1 0 0-3.555 1.778 1.778 0 0 0 0 3.555" clip-rule="evenodd"/>
</svg>
