<svg xmlns="http://www.w3.org/2000/svg" width="20" height="20" fill="none" viewBox="0 0 20 20">
    <path d="M7.429 3.571c.287 0 .539.19.618.467l.697 2.44a3.21 3.21 0 0 0 2.207 2.207l2.44.697a.643.643 0 0 1 0 1.236l-2.44.697a3.21 3.21 0 0 0-2.207 2.208l-.697 2.44a.643.643 0 0 1-1.237 0l-.697-2.44a3.21 3.21 0 0 0-2.207-2.208l-2.44-.697a.643.643 0 0 1 0-1.236l2.44-.697a3.21 3.21 0 0 0 2.207-2.208l.697-2.44a.64.64 0 0 1 .619-.466M15.143 1c.295 0 .552.2.623.487l.222.887a2.25 2.25 0 0 0 1.637 1.638l.888.221a.643.643 0 0 1 0 1.248l-.888.222a2.25 2.25 0 0 0-1.637 1.637l-.222.887a.643.643 0 0 1-1.247 0l-.222-.887a2.25 2.25 0 0 0-1.637-1.637l-.887-.222a.643.643 0 0 1 0-1.248l.887-.221a2.25 2.25 0 0 0 1.637-1.638l.222-.887A.64.64 0 0 1 15.143 1m-1.286 11.571c.277 0 .523.178.61.44l.338 1.014c.128.384.43.685.813.813l1.014.338a.643.643 0 0 1 0 1.22l-1.014.338a1.29 1.29 0 0 0-.813.813l-.338 1.013a.643.643 0 0 1-1.22 0l-.338-1.013a1.29 1.29 0 0 0-.813-.813l-1.014-.338a.643.643 0 0 1 0-1.22l1.014-.338c.384-.128.685-.43.813-.813l.338-1.014a.64.64 0 0 1 .61-.44" clip-rule="evenodd"/>
</svg>
