<svg xmlns="http://www.w3.org/2000/svg" width="20" height="20" fill="none" viewBox="0 0 20 20">
    <path d="M10 2a.75.75 0 0 1 .75.75v1.5a.75.75 0 0 1-1.5 0v-1.5A.75.75 0 0 1 10 2m0 13a.75.75 0 0 1 .75.75v1.5a.75.75 0 0 1-1.5 0v-1.5A.75.75 0 0 1 10 15m0-8a3 3 0 1 0 0 6 3 3 0 0 0 0-6m5.657-1.596a.75.75 0 1 0-1.06-1.06l-1.061 1.06a.75.75 0 0 0 1.06 1.06zm-9.193 9.192a.75.75 0 1 0-1.06-1.06l-1.06 1.06a.75.75 0 0 0 1.06 1.06zM18 10a.75.75 0 0 1-.75.75h-1.5a.75.75 0 0 1 0-1.5h1.5A.75.75 0 0 1 18 10M5 10a.75.75 0 0 1-.75.75h-1.5a.75.75 0 0 1 0-1.5h1.5A.75.75 0 0 1 5 10m9.596 5.657a.75.75 0 0 0 1.06-1.06l-1.06-1.061a.75.75 0 1 0-1.06 1.06zM5.404 6.464a.75.75 0 0 0 1.06-1.06l-1.06-1.06a.75.75 0 1 0-1.061 1.06z"/>
</svg>
