<svg xmlns="http://www.w3.org/2000/svg" width="20" height="20" fill="none" viewBox="0 0 20 20">
    <path d="M2 5.714c0-.789.64-1.428 1.429-1.428H16.57c.79 0 1.429.64 1.429 1.428V8.02a.57.57 0 0 1-.285.495 1.713 1.713 0 0 0 0 2.97c.176.102.285.29.285.495v2.306c0 .789-.64 1.428-1.429 1.428H3.43c-.79 0-1.429-.64-1.429-1.428V11.98c0-.204.109-.393.285-.495a1.713 1.713 0 0 0 0-2.97A.57.57 0 0 1 2 8.02zm11.429-.857c.315 0 .571.256.571.571V6a.571.571 0 1 1-1.143 0v-.572a.57.57 0 0 1 .572-.57M14 8.286a.571.571 0 1 0-1.143 0v.571a.571.571 0 0 0 1.143 0zm-.571 2.285c.315 0 .571.256.571.572v.571a.571.571 0 1 1-1.143 0v-.571c0-.316.256-.572.572-.572M14 14a.571.571 0 1 0-1.143 0v.571a.571.571 0 0 0 1.143 0zm-8.571-4c0-.316.255-.572.571-.572h4a.571.571 0 0 1 0 1.143H6A.57.57 0 0 1 5.429 10M6 11.714a.571.571 0 0 0 0 1.143h2.286a.571.571 0 0 0 0-1.143z" clip-rule="evenodd"/>
</svg>
