<svg xmlns="http://www.w3.org/2000/svg" width="20" height="20" fill="none" fill-rule="evenodd" viewBox="0 0 20 20">
    <path d="M3.17 2.2a.686.686 0 0 0-.976.963L16.4 17.37l.007.007.422.422a.686.686 0 0 0 .97-.97l-4.292-4.292 2.853-2.854a1.6 1.6 0 0 0 0-2.266L12.583 3.64a1.6 1.6 0 0 0-2.266 0L7.463 6.493zm9.297 13.176L4.624 7.533a7 7 0 0 0-1.767.63c-.822.425-.853 1.515-.199 2.17l2.75 2.749-2.268 2.267a1.068 1.068 0 1 0 1.511 1.51l2.267-2.267 2.75 2.75c.654.654 1.744.623 2.17-.199.292-.565.502-1.16.629-1.767"/>
</svg>
