<svg xmlns="http://www.w3.org/2000/svg" width="20" height="20" fill="none" viewBox="0 0 20 20">
    <path fill="#727683" d="M4 4.667C2.895 4.667 2 5.562 2 6.667V13.333C2 14.438 2.895 15.333 4 15.333H10.667C11.771 15.333 12.667 14.438 12.667 13.333V6.667C12.667 5.562 11.771 4.667 10.667 4.667H4ZM18 5.333C18 5.064 17.838 4.821 17.589 4.718 17.339 4.614 17.053 4.671 16.862 4.862L14.195 7.529C14.07 7.654 14 7.823 14 8V12C14 12.177 14.07 12.347 14.195 12.472L16.862 15.138C17.053 15.329 17.339 15.386 17.589 15.283 17.838 15.18 18 14.936 18 14.667V5.333Z"/>
</svg>
