<svg xmlns="http://www.w3.org/2000/svg" width="550" height="550" fill="none" viewBox="0 0 550 550">
    <path fill="#fff" d="M294.965 165.157c.492-.119.95-.232 1.385-.34.895-.221 1.696-.419 2.504-.591 2.841-.601 5.456-.175 7.876 1.549 1.64 1.166 1.819 1.058 2.356-.828 1.994-7.013 5.994-12.959 10.098-18.822 5.229-7.466 11.398-14.073 18.71-19.573 5.265-3.964 10.929-7.184 17.301-8.963 5.834-1.632 11.745-2.014 17.392.589 2.661 1.226 5.196 2.728 7.728 4.228l.002.001q1.132.673 2.268 1.335c2.352 1.366 4.695 2.745 7.039 4.125 3.618 2.129 7.236 4.259 10.883 6.338.927.53 2.177.792 3.244.717 4.728-.347 9.297.262 13.428 2.583 5.975 3.354 11.898 6.8 17.82 10.247l.002.001q3.606 2.1 7.216 4.191c1.842 1.066 3.691 2.121 5.539 3.177 4.366 2.493 8.734 4.987 13.02 7.613 5.206 3.192 8.684 7.872 10.838 13.608 3.044 8.115 3.092 16.485 2.145 24.89-.613 5.445-1.986 10.758-3.702 15.996a107.7 107.7 0 0 1-9.727 21.448c-3.458 5.839-7.044 11.654-12.055 16.286-2.63 2.433-5.747 4.383-8.815 6.303l-.39.244-.224.14a959 959 0 0 1-20.783 12.636c-4.899 2.898-9.832 5.733-14.767 8.568-2.263 1.3-4.525 2.599-6.785 3.906-.721.418-1.438.842-2.194 1.289-.475.281-.966.572-1.484.876l2.544 1.461.002.001c1.957 1.123 3.834 2.201 5.705 3.29q2.824 1.645 5.645 3.296l.019.011c4.784 2.797 9.568 5.594 14.383 8.334.979.558 2.261.916 3.371.844 5.445-.346 10.527.725 15.244 3.467q7.587 4.415 15.172 8.836l.034.02q8.41 4.903 16.825 9.798c1.143.665 2.296 1.312 3.449 1.96 2.05 1.152 4.099 2.303 6.091 3.548 5.819 3.638 9.619 8.864 11.693 15.387 2.547 8.012 2.531 16.191 1.421 24.385-.943 6.969-2.933 13.68-5.461 20.259-3.904 10.149-9.345 19.382-15.84 28.059-3.339 4.465-7.721 7.601-12.426 10.395q-6.66 3.957-13.315 7.924l-.008.005-.007.004-.006.004c-8.176 4.871-16.351 9.742-24.553 14.566-10.567 6.217-21.186 12.342-31.812 18.46-7.54 4.341-15.099 8.648-22.658 12.956h-.001l-.016.009-8.262 4.71a2216 2216 0 0 0-6.867 3.94c-5.898 3.394-11.796 6.788-17.773 10.038-4.681 2.543-9.48 4.99-14.467 6.821-7.921 2.902-15.61 1.986-22.893-2.543-4.459-2.773-9.004-5.4-13.55-8.029h-.001l-.01-.006a1125 1125 0 0 1-5.921-3.439q-3.286-1.924-6.58-3.837c-5.227-3.041-10.455-6.082-15.621-9.222-3.55-2.157-5.918-5.48-7.749-9.185-2.977-6.022-3.96-12.43-3.614-19.057.199-3.856.406-7.737 1.047-11.534.621-3.701 1.644-7.355 2.766-10.945 1.91-6.113 4.478-11.968 7.578-17.579q.338-.61.683-1.219c.848-1.501 1.707-3.021 2.417-4.744a71 71 0 0 1-.914.469c-.662.335-1.324.671-1.963 1.044q-5.835 3.396-11.668 6.8l-.032.019a9163 9163 0 0 1-13.147 7.66l-4.048 2.351-.018.011a7345 7345 0 0 1-27.635 16.002c-7.616 4.38-15.25 8.731-22.883 13.081l-.002.002-.025.014-.077.043-8.204 4.678q-3.327 1.9-6.652 3.808l-.002.001-.001.001c-5.935 3.403-11.869 6.806-17.858 10.112-4.171 2.301-8.402 4.601-12.836 6.301-6.602 2.531-13.46 3.088-20.075-.068-2.834-1.352-5.544-2.962-8.252-4.57l-.004-.002-.004-.002a301 301 0 0 0-2.561-1.511 5284 5284 0 0 1-27.18-15.889l-1.397-.82-.002-.001c-2.823-1.654-5.656-3.313-8.272-5.26-3.614-2.686-5.696-6.571-7.323-10.734-2.985-7.634-3.033-15.55-2.074-23.462 1.127-9.293 4.012-18.125 7.972-26.618 4.016-8.617 8.931-16.677 15.235-23.765 2.958-3.327 6.488-6.201 10.014-8.951 2.26-1.763 3.522-3.9 4.283-6.519q.421-1.458.835-2.919c.791-2.787 1.583-5.574 2.512-8.317 3.052-9.022 7.892-17.01 14.348-24.019 4.342-4.712 9.205-8.752 15.12-11.339 3.295-1.441 6.73-2.233 10.232-.573.816.386 1.584.879 2.333 1.385.696.473 1.142.378 1.401-.43q.17-.54.331-1.083c.206-.689.412-1.38.668-2.053 2.794-7.347 7.148-13.779 11.884-19.956 4.895-6.392 10.531-12.067 17.05-16.831a4 4 0 0 0 .458-.414c.102-.101.221-.218.37-.358q-.552-.33-1.068-.646l-.002-.001-.001-.001-.001-.001c-.692-.421-1.348-.822-2.024-1.19-.764-.415-1.344-.771-1.804-1.052-.813-.498-1.248-.765-1.648-.719-.462.054-.876.525-1.769 1.542-.319.363-.699.796-1.163 1.303-3.962 4.323-7.903 8.663-11.844 13.003a4736 4736 0 0 1-9.557 10.503c-1.616 1.771-5.584 2.149-7.645.884a1125 1125 0 0 0-13.091-7.944c-.875-.522-1.09-1.103-1.046-2.094.183-4.143 2.344-7.239 4.827-10.356 4.306-5.402 8.531-10.87 12.757-16.338 2.601-3.366 5.203-6.733 7.824-10.085.673-.86.689-1.608.31-2.499-2.364-5.58-3.578-11.415-4.294-17.433-.637-5.353-.665-10.678-.362-16.015.173-3.035.63-6.059 1.085-9.072l.045-.301c.159-1.063-.227-1.29-1.106-1.278-.551.008-1.104-.003-1.657-.014h-.002c-1.224-.023-2.448-.047-3.643.126-2.619.378-4.808-.299-6.989-1.712-3.8-2.463-7.701-4.78-11.609-7.072-.844-.494-1.23-1.231-1.62-1.979-.142-.272-.284-.544-.45-.807-1.281-2.034-1.019-3.674.912-5.087.226-.167.418-.398.581-.628 1.333-1.899 3.108-2.826 5.452-3.192 4.976-.777 9.931-1.675 14.888-2.573q2.848-.518 5.697-1.025c1.596-.283 3.192-.566 4.784-.88.991-.195 1.62-.7 2.014-1.759a168.5 168.5 0 0 1 10.682-23.251 174 174 0 0 1 19.426-28.075c.794-.936 1.623-1.844 2.451-2.751.911-.998 1.822-1.996 2.688-3.032.374-.45.585-1.29.461-1.863-.786-3.643-1.633-7.276-2.481-10.907v-.003l-.611-2.622q-.403-1.737-.803-3.476v-.002c-.751-3.255-1.501-6.51-2.282-9.76-.254-1.054-.346-1.97.203-3.012.402-.767.718-1.577 1.034-2.388.291-.748.582-1.495.94-2.209.223-.446.932-.804 1.477-.911 3.12-.63 5.588.915 8.079 2.48a398 398 0 0 0 6.287 3.839h.001c1.614.972 3.229 1.944 4.832 2.934.367.227.653.697.82 1.114a350 350 0 0 1 1.912 4.9l.001.004q.441 1.15.885 2.296c.39 1.003.872 1.214 1.946.621a661 661 0 0 0 2.461-1.36c3.975-2.202 7.954-4.406 12.078-6.293 4.418-2.022 9.087-3.535 13.99-3.957 1.816-.156 3.639-.243 5.461-.33h.001c1.74-.083 3.481-.166 5.216-.31.597-.052 1.37-.68 1.668-1.25 2.289-4.37 4.515-8.774 6.74-13.177h.001v-.001l.017-.034.991-1.96q1.563-3.086 3.123-6.173c2.186-4.325 4.372-8.648 6.572-12.963.18-.354.546-.64.88-.88.33-.237.679-.456 1.028-.675.629-.396 1.258-.791 1.778-1.298 1.281-1.25 2.316-1.147 3.793-.187 2.47 1.6 4.986 3.13 7.503 4.657a399 399 0 0 1 5.643 3.47c.593.374 1.055 1.138 1.305 1.823.341.942.503 1.952.664 2.952l.041.256c.071.445.071.97-.096 1.38-1.727 4.238-3.479 8.465-5.23 12.693l-1.536 3.71-3.214 7.76-.012.03-3.233 7.807-.027.08-.017.055-.008.023c-1.17 3.249-1.183 3.284 1.783 4.928 4.72 2.611 9.011 5.779 12.298 10.082 1.843 2.412 3.387 5.066 4.915 7.697.605 1.039 1.111 1.266 2.126.688a885 885 0 0 1 4.847-2.728c3.294-1.845 6.588-3.69 9.831-5.618 1.317-.784 2.225-.362 3.248.255q3.22 1.936 6.433 3.881 3.215 1.945 6.434 3.88a159 159 0 0 0 4.087 2.36c.816.454 1.115.971.506 1.835-.354.502-.669 1.067-.852 1.648-1.075 3.438-3.786 5.314-6.53 7.211l-.391.271c-3.46 2.401-6.906 4.82-10.352 7.238l-.003.002-.005.004a2086 2086 0 0 1-11.578 8.087c-1.162.804-1.564 1.791-1.667 3.109q-.592 7.636-1.286 15.267c-.082.887-.242 1.768-.41 2.693q-.116.629-.227 1.294m-130.753 95.826-.002-.003a7 7 0 0 1-.111-.261c-.072-.176-.143-.352-.247-.503-4.461-6.511-6.865-13.822-8.171-21.508-1.317-7.769-1.305-15.609-.561-23.442.808-8.533 2.547-16.899 5.043-25.09 2.451-8.04 5.536-15.844 9.182-23.43a171 171 0 0 1 19.175-30.977c5.548-7.136 11.634-13.794 18.432-19.784 9.444-8.326 19.693-15.347 31.597-19.729 6.28-2.312 12.744-3.666 19.446-3.654 1.258 0 1.903-.473 2.428-1.512a8726 8726 0 0 1 16.37-32.302c.597-1.166.445-1.894-.717-2.547-1.247-.7-2.466-1.45-3.684-2.2h-.001a242 242 0 0 0-1.831-1.12c-1.625-.975-3.252-1.947-4.935-2.952l-.003-.001-2.19-1.309-.552 1.06c-.315.606-.608 1.167-.897 1.73q-1.677 3.298-3.356 6.594l-.01.02-.014.028c-4.193 8.239-8.386 16.476-12.54 24.737l-.073.145c-.666 1.334-1.219 2.441-3.035 1.554-.208-.102-.471-.087-.735-.072-.137.008-.274.016-.404.008-7.597-.422-14.885 1.135-21.778 4.1-3.361 1.444-6.587 3.2-9.814 4.954-1.76.958-3.52 1.915-5.302 2.823-1.202.608-1.242 1.241-.772 2.38a469 469 0 0 1 5.026 12.787c.109.287-.032.666-.172 1.045-.065.174-.13.347-.17.512l-.12-.097-.16-.128a12 12 0 0 1-.798-.675c-.097-.094-.148-.238-.198-.38l-.049-.133-2.113-5.325c-2.253-5.672-4.506-11.344-6.719-17.031-.398-1.023-.943-1.385-2.006-1.385l-.501.005c-.992.013-2.058.028-2.826-.407-3.026-1.716-5.995-3.535-8.964-5.353a820 820 0 0 0-3.549-2.165 35 35 0 0 0-1.149-.654l-.001-.001q-.333-.184-.717-.4c-.165.386-.31.758-.45 1.115-.293.748-.562 1.434-.931 2.061-.672 1.138-.207 1.723.74 2.293 4.335 2.603 8.669 5.205 12.959 7.872.546.338 1.067 1.01 1.222 1.628.6 2.385 1.142 4.784 1.683 7.183v.001l.001.001v.001q.35 1.558.708 3.114.451 1.959.907 3.916c.549 2.362 1.098 4.723 1.628 7.089.47 2.093.908 4.195 1.274 6.304.047.261-.098.555-.241.849-.065.132-.13.264-.177.393q-.161-.134-.326-.265h-.001c-.264-.211-.528-.421-.755-.662-.109-.118-.142-.312-.174-.5l-.009-.054-.008-.04-.016-.083-1.386-6.047a3665 3665 0 0 0-4.656-20.173c-.147-.621-.621-1.326-1.15-1.664-2.256-1.447-4.558-2.826-6.859-4.204h-.001l-1.451-.87c-.9-.54-1.808-1.068-2.777-1.63l-.003-.002-.002-.001-1.468-.855 1.125 4.911.001.004.001.003v.002c.939 4.106 1.846 8.071 2.785 12.027.412 1.739.856 3.47 1.3 5.201v.002c.431 1.679.862 3.358 1.263 5.045.096.41-.087 1.023-.366 1.358-.677.825-1.407 1.606-2.137 2.387q-.374.399-.744.801c-8.545 9.273-15.916 19.414-21.878 30.514-2.777 5.172-5.257 10.506-7.735 15.838v.001q-.773 1.665-1.551 3.329c-.687 1.469-1.237 3.003-1.788 4.538a92 92 0 0 1-.934 2.53c-.259.665-.685 1.608-1.493.904-.765-.666-1.422-.531-2.166-.378h-.001l-.197.039q-2.53.496-5.066.956l-6.589 1.186q-5.37.963-10.74 1.938c-.329.06-.65.164-1.003.279q-.246.08-.518.163c.089.1.153.181.206.247l.001.001a1 1 0 0 0 .207.217l2.305 1.421.002.002c3.089 1.905 6.175 3.81 9.295 5.658.549.322 1.389.358 2.05.251 2.25-.36 4.488-.776 6.727-1.192h.004l.018-.004 1.971-.365q1.6-.295 3.199-.598h.002l.001-.001c1.742-.328 3.483-.656 5.228-.965 2.817-.497 5.643-.967 8.473-1.381.254-.038.534.104.814.247.133.067.266.135.396.183-.093.112-.18.242-.267.372-.196.292-.392.584-.656.667-.547.173-1.122.248-1.698.324h-.001c-.325.042-.651.085-.972.145q-3.282.621-6.563 1.248c-4.939.943-9.877 1.885-14.826 2.776l-.219.04c-1.651.3-3.275.594-4.99-.549-3.373-2.247-6.874-4.297-10.375-6.346l-.014-.008q-.983-.575-1.965-1.152c-.422-.247-1.31-.311-1.612-.044-.698.618-1.307 1.335-1.952 2.096-.26.306-.526.62-.806.937.191.127.359.242.513.347.321.219.579.395.848.556l2.17 1.319.003.002c3.227 1.961 6.455 3.922 9.699 5.863 1.103.657 1.879 1.433 2.305 2.738q.057.176.11.359c.297.994.618 2.066 2.341 2.013 5.857-.179 11.715-.24 17.574-.301h.002q2.757-.028 5.512-.061c.37-.005.742.03 1.13.067q.268.027.55.048c-.139 1.362-.991 1.425-1.879 1.445l-3.196.07-.015.001c-2.848.065-5.696.13-8.546.144-1.229.004-1.691.486-1.783 1.668-.067.87-.182 1.737-.296 2.604-.13.981-.259 1.961-.321 2.948l-.1 1.612c-.197 3.134-.395 6.272-.357 9.404.04 3.379.37 6.766.752 10.13.525 4.604 1.588 9.106 3.315 13.42.574 1.432 1.187 2.851 1.799 4.27q.433 1 .86 2.003l-.041.085-.047.097-.083.168-1.538-.657-.942-.402-9.533 12.294-.107.137-.019.026-13.938 17.974q.181.14.311.246c.161.13.28.226.409.303 3.227 1.969 6.454 3.932 9.683 5.897l.004.002 1.923 1.17q1.759 1.07 3.053-.589l4.496-5.791.033-.042a8184 8184 0 0 1 17.798-22.871c.197-.254.565-.374.933-.494.175-.057.351-.115.508-.186-.018.17-.015.357-.013.543.006.396.011.791-.178 1.037a5145 5145 0 0 1-22.869 29.543c-1.361 1.743-1.552 3.686-1.62 5.883l.098-.01.218-.021c1.457-.14 2.69-.258 3.768-1.462 8.151-9.102 16.373-18.141 24.596-27.171.262-.287.638-.467 1.016-.648.172-.082.344-.165.506-.257m2.593 3.133c-2.164-.36-2.519-.814-2.574-3.111l1.228 1.485.003.003zm80.293 41.436c2.714 5.377 3.096 11.136 2.865 17.381v-.008l-2.164-1.263-1.707-.996-.04-.024-.275-.16-6.715-3.917q-.248-.147-.493-.302c-.405-.253-.809-.505-1.246-.681-.25-.1-.547-.08-.845-.06-.13.009-.259.017-.385.016.043.152.071.328.098.503.058.376.116.749.328.882 1.609 1.01 3.252 1.961 4.896 2.913l.052.03.663.384 1.04.605q.907.534 1.811 1.075l.006.003.005.004c1.565.934 3.129 1.868 4.741 2.711.597.311 1.619.359 2.197.052 2.61-1.377 5.185-2.838 7.669-4.434 2.985-1.918 6.034-3.789 9.484-4.605 9.608-2.272 18.559.749 22.734 10.866 2.866 6.945 3.005 14.169 1.883 21.416-.649 4.179-1.704 8.326-2.989 12.358-.563 1.773-1.368 3.466-2.174 5.162-.652 1.372-1.305 2.746-1.83 4.163-2.249 6.078-5.795 11.363-9.612 16.505-1.397 1.883-1.437 1.883-3.395.745-1.327-.77-2.65-1.547-3.973-2.323l-.001-.001-.002-.001a538 538 0 0 0-6.531-3.793c-.9-.509-1.019-.847-.338-1.707 3.92-4.947 7.192-10.304 9.711-16.135l-.098.122-.095.113-.001.001a3.5 3.5 0 0 0-.387.52c-.087.151-.151.315-.215.479a3 3 0 0 1-.267.56 526 526 0 0 0-2.48 3.739c-2.224 3.372-4.447 6.743-6.869 9.964-.995 1.32-2.553 2.255-4.063 3.161q-.481.288-.948.576c-6.921 4.311-13.85 8.609-20.851 12.788-4.52 2.699-9.089 5.318-13.658 7.938l-.001.001q-3.012 1.725-6.018 3.46l-4.147 2.396q-7.34 4.244-14.686 8.477-13.14 7.563-26.292 15.108a3007 3007 0 0 0-7.774 4.483l-.001.001-.002.001c-6.202 3.585-12.405 7.171-18.67 10.643-8.51 4.716-17.083 9.317-25.759 13.707-2.75 1.393-5.994 1.537-9.122 1.182-.43-.047-.955-.593-1.17-1.038-1.6-3.332-2.145-6.945-2.36-10.559-.347-5.811.617-11.503 2.121-17.114 3.128-11.678 8.764-22.034 16.521-31.231 3.697-4.382 8.45-7.391 13.687-9.664a98 98 0 0 0 2.925-1.347c.97-.46 1.941-.919 2.926-1.347 1.151-.499 1.035-1.343.913-2.234l-.042-.314q-.105-.875-.219-1.749v-.002c-.216-1.687-.432-3.372-.521-5.066-.314-5.978 1.413-11.53 3.96-16.82 2.91-6.037 6.858-11.323 12.135-15.55l.14-.111c1.741-1.393 1.808-1.447 3.864-.291 1.714.963 3.41 1.959 5.106 2.954h.001v.001c1.431.839 2.861 1.679 4.302 2.498.458.263 1.114.49 1.58.366a114 114 0 0 0 7.407-2.205c.505-.171 1.102-.812 1.198-1.321.979-5.226 2.531-10.272 4.589-15.16 2.189-5.198 4.823-10.189 8.183-14.722l.113-.153c2.455-3.314 4.951-6.684 7.93-9.494l.783-.74c4.376-4.135 8.797-8.312 14.532-10.671 4.629-1.903 9.293-3.419 14.436-2.567 5.528.915 9.408 3.94 11.896 8.867m54.358 7.819-1.563.886.003.007q-.535-.702-1.045-1.384h-.001v-.001c-.717-.954-1.411-1.879-2.141-2.774-2.501-3.06-5.845-4.98-9.187-6.9h-.001q-.691-.396-1.379-.797-.95-.556-1.898-1.118l-.001-.001c-1.789-1.059-3.579-2.119-5.417-3.084-1.214-.637-1.564-1.417-1.202-2.651.389-1.323.752-2.656 1.116-3.988v-.001c.803-2.942 1.605-5.883 2.673-8.727 3.113-8.274 7.682-15.76 13.337-22.558 3.96-4.764 9.027-8.016 14.675-10.444a82 82 0 0 0 5.564-2.627c.378-.199.736-.855.728-1.297a18.7 18.7 0 0 0-.406-3.55c-.959-4.502-.625-8.971.601-13.321 2.535-8.987 7.264-16.661 14.368-22.798 2.601-2.248 2.607-2.245 5.493-.537l.047.028c2.79 1.652 5.588 3.299 8.426 4.867.577.319 1.409.506 2.029.359 2.46-.581 4.888-1.298 7.308-2.034.366-.112.808-.569.883-.935 1.151-5.672 2.77-11.188 5.111-16.49 4.374-9.902 10.36-18.658 18.308-26.041 3.944-3.665 8.234-6.865 13.201-8.951 2.699-1.134 5.612-1.803 8.482-2.459 2.455-.562 2.961-.187 3.852 2.173 1.974 5.237 2.544 10.666 1.966 16.202-.111 1.067.235 1.588 1.059 2.062q2.203 1.263 4.402 2.534c3.035 1.751 6.07 3.502 9.126 5.211.454.255 1.31.215 1.775-.048a412 412 0 0 0 5.577-3.234h.002c2.501-1.468 5.002-2.935 7.543-4.332 2.922-1.608 6.133-2.328 9.501-2.332 1.01 0 1.619.386 2.033 1.238 1.668 3.419 2.591 7.024 3.164 10.793.975 6.432.032 12.709-1.405 18.886-1.922 8.262-5.181 16.055-9.615 23.318-.737 1.207-1.516 2.387-2.295 3.567l-.001.001c-.718 1.088-1.437 2.177-2.122 3.286-2.412 3.904-5.982 6.452-9.835 8.744-4.933 2.932-9.852 5.889-14.771 8.845l-.001.001c-6.405 3.85-12.811 7.7-19.249 11.496-5.391 3.176-10.83 6.274-16.268 9.372l-.002.001-.003.002c-3.263 1.859-6.526 3.718-9.78 5.594a6725 6725 0 0 0-13.484 7.797c-5.744 3.327-11.488 6.654-17.245 9.961-5.337 3.066-10.693 6.096-16.049 9.127a5374 5374 0 0 0-6.964 3.944c-3.003 1.703-6.007 3.404-9.023 5.112m-135.187 17.778q.863.524 1.75 1.057h-.004q-.976.57-1.915 1.109h-.002a146 146 0 0 0-4.009 2.366c-4.923 3.049-8.959 7.088-12.621 11.522-4.031 4.883-7.398 10.217-9.826 16.059-1.093 2.628-1.949 5.355-2.804 8.082-.345 1.097-.689 2.194-1.049 3.285-.3.906-.582 1.82-.864 2.733v.002c-.604 1.958-1.208 3.915-1.99 5.798-.313.758-1.071 1.342-1.818 1.917-.277.214-.553.427-.804.646a167 167 0 0 1-3.07 2.606l-.002.002c-2.083 1.739-4.166 3.478-6.058 5.408-4.836 4.931-8.542 10.738-12.036 16.672a98 98 0 0 0-9.301 21.166c-2.253 7.379-3.757 14.937-3.558 22.694.19 7.379 1.492 14.523 5.806 20.787.136.199.235.418.331.637.021.047.013.105.001.189q-.01.067-.017.157l-3.851-2.241-.052-.03-.037-.022a5331 5331 0 0 1-9.162-5.34c-2.16-1.26-4.311-2.534-6.463-3.808-4.618-2.734-9.236-5.469-13.93-8.064-6.886-3.809-10.58-9.728-12.414-17.142-1.636-6.615-1.525-13.321-.581-19.928 1.723-12.072 6.033-23.307 12.254-33.798 3.78-6.38 7.84-12.573 13.301-17.664 1.703-1.586 3.508-3.061 5.314-4.536h.001c1.225-1.001 2.45-2.002 3.644-3.038.645-.561 1.234-1.353 1.496-2.153.83-2.509 1.623-5.031 2.415-7.553v-.001c.836-2.657 1.67-5.314 2.549-7.956 1.707-5.142 4.286-9.874 7.275-14.376 3.94-5.93 8.629-11.195 14.491-15.283 1.499-1.045 3.137-1.891 4.775-2.737.819-.423 1.638-.846 2.441-1.294 1.11-.621 2.101-.323 3.104.262 3.25 1.906 6.506 3.804 9.762 5.702l2.35 1.371 5.979 3.484.007.004q7.887 4.593 15.768 9.196c1.141.669 2.271 1.353 3.424 2.051m191.146 28.827q.635.4 1.314.823l-.016-.004c-.782.46-1.547.891-2.294 1.312h-.002c-1.571.885-3.061 1.725-4.458 2.696-8.159 5.667-14.233 13.185-19.009 21.814-3.283 5.926-5.464 12.254-7.012 18.841-.498 2.122-1.226 4.255-2.265 6.161-.689 1.266-2.002 2.281-3.22 3.152-9.154 6.548-15.498 15.443-21.002 25.035-4.243 7.394-7.391 15.235-9.704 23.462-2.252 8.027-2.988 16.159-2.372 24.401.426 5.684 2.189 11.033 5.338 15.86.167.255.298.526.266.987l-2.38-1.373-.006-.004c-1.699-.98-3.398-1.96-5.092-2.949-2.539-1.484-5.072-2.981-7.605-4.477-5.72-3.381-11.441-6.762-17.242-9.998-5.393-3.009-9.429-7.057-11.702-12.816-1.301-3.299-1.997-6.722-2.459-10.24-.677-5.134-.346-10.245.497-15.268.812-4.823 2.078-9.599 3.543-14.272 2.228-7.12 5.508-13.81 9.38-20.186 5.115-8.422 11.105-16.099 19.204-21.922.194-.14.397-.276.6-.413.689-.464 1.39-.935 1.82-1.577.931-1.393 1.747-2.926 2.276-4.514.662-1.986 1.235-4.001 1.808-6.017.417-1.466.834-2.932 1.285-4.386 2.117-6.85 5.393-13.126 9.568-18.941 4.414-6.153 9.631-11.462 16.186-15.359.355-.212.72-.406 1.083-.6.395-.211.789-.422 1.17-.654 2.217-1.345 4.107-1.13 6.44.271 7.932 4.767 15.942 9.405 23.953 14.044l.005.003.003.002.016.009q4.757 2.752 9.506 5.516a86 86 0 0 1 2.576 1.58zM158.917 245.299c-1.887-6.67-2.655-13.464-2.774-20.401.131-1.564.238-3.131.344-4.699.238-3.482.475-6.965.977-10.41 1.131-7.784 3.037-15.41 5.517-22.9 3.597-10.866 8.298-21.222 14.033-31.112 7.072-12.195 15.49-23.351 25.468-33.337 7.22-7.231 15.12-13.587 23.952-18.721 7.184-4.175 14.813-7.34 23.048-8.72 7.657-1.282 15.219-.984 22.495 2.18 8.338 3.622 14.085 9.807 17.91 17.906 2.985 6.329 4.493 13.031 5.241 19.976.956 8.871.363 17.667-1.05 26.411-1.067 6.595-2.731 13.067-4.796 19.443a166.5 166.5 0 0 1-11.387 26.829 168.5 168.5 0 0 1-15.08 23.45c-6.758 8.828-14.304 16.895-22.909 23.956-6.292 5.162-13.027 9.647-20.37 13.189-5.046 2.432-10.316 4.303-15.796 5.405-6.874 1.381-13.771 1.365-20.545-.764-4.279-1.345-8.111-3.51-11.522-6.42-6.635-5.655-10.424-13.01-12.756-21.261m290.937 85.615.168-.101-.004-.004q.871.506 1.746 1.006l.005.003c1.469.843 2.939 1.685 4.374 2.585.868.546 1.604.581 2.54.195 5.743-2.38 11.661-2.977 17.655-1.198 6.022 1.787 10.396 5.68 13.249 11.26 2.774 5.42 3.881 11.259 4.052 17.281.247 8.684-1.282 17.102-3.896 25.368-3.961 12.518-10.146 23.821-18.137 34.204-3.32 4.315-7.686 7.22-12.235 9.962a3438 3438 0 0 0-9.382 5.68l-.007.005c-6.699 4.066-13.397 8.132-20.158 12.09-8.518 4.989-17.086 9.892-25.655 14.796-4.14 2.37-8.28 4.739-12.414 7.118q-4.456 2.566-8.906 5.141c-5.043 2.914-10.085 5.828-15.141 8.717l-1.588.908-1.486.848-.005.003c-8.951 5.115-17.902 10.23-26.915 15.236-4.835 2.686-9.715 5.349-14.781 7.542-6.715 2.906-13.672 3.447-20.541.283-4.501-2.074-7.709-5.513-9.886-9.938-3.371-6.85-4.167-14.149-3.495-21.624.382-4.258.872-8.561 1.895-12.7 1.15-4.653 2.766-9.214 4.513-13.687 3.299-8.45 7.988-16.143 13.409-23.399 3.339-4.469 7.116-8.565 11.772-11.601 4.406-2.874 6.062-7.12 7.164-11.821 2.17-9.257 5.935-17.767 11.574-25.452 4.02-5.48 8.677-10.296 14.38-14.021 3.626-2.369 7.427-4.422 11.996-3.885 1.683.195 3.391.494 4.983 1.043 1.532.525 2.033-.187 2.583-1.349q.383-.811.764-1.624c1.166-2.482 2.332-4.967 3.666-7.355 5.826-10.432 13.189-19.622 22.498-27.184 4.47-3.629 9.318-6.67 14.687-8.792 5.52-2.181 11.275-3.275 17.122-1.962 6.192 1.389 10.805 5.138 13.643 10.866 1.986 4.012 3.136 8.29 3.534 12.76.032.37.1.804.319 1.07.203.247.633.422.955.41.159-.004.454-.513.43-.768a89 89 0 0 0-.593-4.676 37 37 0 0 0-.42-2.178q-.104-.478-.201-.959zM337.471 189.23l.49.313h.008c-.752.439-1.493.854-2.221 1.26l-.001.001-.002.001c-1.521.851-2.982 1.669-4.363 2.603-6.209 4.195-11.207 9.608-15.438 15.757-3.622 5.261-6.507 10.901-8.537 16.95-.63 1.879-1.146 3.795-1.662 5.712a142 142 0 0 1-1.136 4.055l-.054.18-.084.278c-.434 1.452-.88 2.942-1.665 4.195-.752 1.198-1.974 2.177-3.156 3.021-10.149 7.251-16.836 17.289-22.65 28.031-3.125 5.771-5.485 11.86-7.431 18.117-.811 2.602-.813 2.601-3.058 1.291l-.214-.125-1.624-.946-.859-.501-.002-.001c-5.801-3.382-11.605-6.766-17.494-9.99-3.415-1.871-7.272-2.556-11.116-2.078-2.914.363-5.056-.953-7.239-2.295q-.385-.236-.773-.471c-.303-.183-.549-.844-.47-1.21l.199-.925c.483-2.255.967-4.519 1.692-6.697.23-.697 1.1-1.241 1.864-1.718l.317-.2c9.548-6.133 17.942-13.628 25.372-22.145 3.444-3.946 6.628-8.12 9.81-12.291l.002-.003a859 859 0 0 1 2.693-3.518c.796-1.031 1.326-1.262 2.548-.585 4.041 2.243 8.122 4.415 12.204 6.588h.001l.001.001q2.089 1.11 4.175 2.226c.207.112.426.215.653.291 1.572.525 6.312-2.432 6.531-4.068q.705-5.349-3.399-8.804c-1.57-1.321-3.132-2.653-4.695-3.985a663 663 0 0 0-7.213-6.088c-.939-.78-.971-1.397-.418-2.42 3.925-7.267 7.427-14.734 10.05-22.574 1.27-3.8 2.409-7.642 3.548-11.485q.644-2.181 1.299-4.36c.143-.467.211-.963.278-1.45l.013-.094c.342-2.539 2.468-3.63 4.688-2.344 7.307 4.23 14.602 8.48 21.896 12.731l.002.001a5774 5774 0 0 1 12.002 7.015l2.199 1.287 1.488.872c.308.181.608.374.95.593zm92.682 122.976q-1.142-.646-2.286-1.289a361 361 0 0 1-5.136-2.925c-2.276-1.333-4.558-2.656-6.84-3.98l-.007-.004c-6.174-3.581-12.348-7.162-18.414-10.921-5.663-3.51-11.653-4.752-18.077-3.55-7.606 1.421-14.24 5.066-20.346 9.723-8.76 6.682-15.741 14.969-21.536 24.262-2.718 4.362-5.412 8.772-6.495 13.922-.163.768-.219 1.369.585 1.831a2975 2975 0 0 1 13.592 7.876l.008.004q3.067 1.784 6.131 3.574a2603 2603 0 0 0 9.435 5.489l.662.383.001.001c2.29 1.326 4.582 2.653 6.934 3.858 2.17 1.111 3.153.832 3.929-.923 2.435-5.512 5.424-10.714 8.823-15.685 6.742-9.871 14.79-18.44 25.023-24.776 7.311-4.527 15.1-7.456 24.014-6.87m-20.986-171.314-.618-.36c-2.489-1.45-5.021-2.926-7.553-4.408l-5.702-3.336-.046-.027-.004-.002c-6.237-3.648-12.472-7.294-18.701-10.959-2.814-1.656-5.691-3.22-8.963-3.654-5.301-.7-10.471.02-15.466 1.938-6.495 2.496-12.214 6.261-17.436 10.794-4.92 4.267-9.325 9.027-13.138 14.312-4.752 6.583-9.349 13.25-11.494 21.249-.203.76-.088 1.123.565 1.497 2.565 1.472 5.123 2.955 7.681 4.438q2.222 1.289 4.446 2.575c4.541 2.624 9.089 5.243 13.635 7.861l2.472 1.424q1.166.673 2.329 1.352c2.105 1.226 4.209 2.452 6.355 3.595 2.265 1.206 3.144.704 4.279-1.532l.819-1.62c1.77-3.504 3.544-7.015 5.62-10.336 5.656-9.047 12.525-17.074 20.979-23.657 6.233-4.852 12.971-8.784 20.807-10.332 2.035-.402 4.129-.515 6.244-.629.96-.051 1.924-.103 2.89-.183m12.864 39.374-.41-.283v-.004c0-.613.011-1.227.022-1.84v-.006c.024-1.339.048-2.679-.042-4.012-.334-5.011-1.389-9.855-4.294-14.058-4.279-6.185-10.197-8.668-17.692-7.737-7.227.9-13.281 4.219-18.877 8.605-9.822 7.693-16.915 17.492-22.148 28.736-2.448 5.261-4.219 10.734-5.413 16.397-.207.975-.633 1.457-1.64 1.656-1.353.267-2.714.613-3.98 1.146-1.389.581-2.515.378-3.761-.39-2.072-1.276-4.181-2.496-6.305-3.724q-1.295-.748-2.594-1.506c1.417-1.269 2.626-1.424 4.27-.505.949.53 1.887 1.084 2.824 1.637a115 115 0 0 0 3.242 1.869c.266.147.622.131.98.114.167-.007.334-.015.492-.006a5 5 0 0 1-.101-.559c-.06-.421-.12-.842-.356-.997l-.922-.606-.007-.005c-1.837-1.212-3.687-2.433-5.682-3.302-1.513-.656-3.304-.585-4.971.342-6.71 3.742-11.558 9.29-15.419 15.781-2.905 4.884-4.907 10.129-5.815 15.757-.585 3.622-.417 7.244.319 10.834l.002.008c.218 1.075.325 1.598.136 1.974-.178.357-.621.582-1.485 1.019l-.078.039q-1.343.676-2.693 1.345l-.002.001c-2.685 1.332-5.37 2.665-7.963 4.159-4.016 2.312-7.168 5.659-9.982 9.309-4.386 5.695-8.203 11.773-10.862 18.443-1.323 3.314-2.342 6.749-3.361 10.184-.446 1.503-.892 3.006-1.363 4.498-.11.346-.205.696-.319 1.113q-.07.259-.155.559-.654-.377-1.285-.729l-.001-.001c-1.147-.644-2.232-1.253-3.251-1.96-.334-.235-.465-1.135-.322-1.62l.319-1.09c.789-2.704 1.579-5.412 2.586-8.036 2.746-7.141 6.344-13.847 10.547-20.247 4.605-7.009 9.958-13.317 16.907-18.057 3.049-2.082 4.187-5.071 5.123-8.266.342-1.167.668-2.339.994-3.51l.001-.002v-.002c1.143-4.102 2.285-8.201 4.099-12.092 4.995-10.718 11.856-19.904 21.822-26.495 3.403-2.249 7.057-4.135 11.339-3.741 1.628.149 3.237.56 4.836.968h.001l.715.182c1.043.267 1.616.084 2.146-.955q.703-1.38 1.4-2.766l.002-.003.002-.004c1.894-3.755 3.791-7.514 5.959-11.109 4.33-7.184 9.647-13.62 15.844-19.303 4.991-4.577 10.408-8.533 16.597-11.343 5.986-2.719 12.262-4.263 18.797-2.91 6.535 1.354 11.319 5.25 14.241 11.343 1.926 4.016 2.829 8.287 3.474 12.649.047.316.313.601.579.884h.001c.122.131.243.261.344.393.077-.154.181-.312.285-.47.226-.343.452-.686.411-.994-.206-1.525-.495-3.038-.785-4.552v-.002l-.001-.001q-.172-.893-.336-1.785c-.04-.217-.075-.435-.119-.713l-.096-.597c.686.397 1.357.777 2.015 1.15h.001c1.55.879 3.026 1.715 4.451 2.631.991.637 1.791.557 2.806.159 6.157-2.427 12.41-2.981 18.73-.648 6.344 2.34 10.511 6.909 13.023 13.066 2.881 7.06 3.363 14.435 2.817 21.954-.394 5.408-1.416 10.694-2.897 15.888a99.4 99.4 0 0 1-6.985 17.834c-3.745 7.379-8.139 14.344-13.5 20.688-2.575 3.049-5.815 5.186-9.166 7.22q-4.15 2.517-8.293 5.045l-.009.006h-.001c-5.946 3.624-11.893 7.248-17.877 10.809-5.801 3.453-11.663 6.803-17.525 10.154l-4.147 2.371a3.33 3.33 0 0 1-1.747.402c-.859-.049-1.716-.139-2.573-.229l-.001-.001c-1.136-.119-2.273-.238-3.412-.263-1.366-.03-2.734.054-4.203.145h-.001c-.67.041-1.362.084-2.084.117l1.335-.792.003-.001a283 283 0 0 1 3.155-1.857q4.484-2.596 8.971-5.187l.005-.003.005-.003c6.34-3.663 12.681-7.326 19.007-11.014 7.418-4.326 14.825-8.668 22.188-13.086 2.441-1.465 4.837-3.01 7.233-4.556l.001-.001c1.334-.86 2.668-1.721 4.01-2.567 2.295-1.447 3.81-3.602 5.316-5.746l.214-.304q.219-.312.44-.621c4.935-6.909 8.923-14.344 11.721-22.363a76 76 0 0 0 3.856-17.11c.558-5.23.247-10.301-1.034-15.315-1.744-6.822-5.286-12.342-12.068-15.184-4.175-1.751-8.513-2.014-12.915-.983-4.489 1.054-8.382 3.319-12.135 5.914-1.195.827-2.472 1.535-3.749 2.244l-.001.001a94 94 0 0 0-1.75.987m-218.17 127.431q.575.367 1.18.745l.008.012q-.697.784-1.363 1.528l-.014.017-.002.002-.003.003a305 305 0 0 0-2.801 3.166c-6.611 7.626-11.518 16.258-14.881 25.743-.708 1.998-1.241 4.059-1.775 6.121l-.001.001c-.34 1.314-.68 2.628-1.066 3.927-.159.541-.664 1.21-1.162 1.377-1.698.571-3.435 1.014-5.172 1.456l-.001.001h-.001l-.748.191a1.36 1.36 0 0 1-.924-.131c-2.865-1.647-5.722-3.31-8.708-5.05h-.001l-1.491-.869c1.19-1.027 2.284-1.46 3.514-.804a157 157 0 0 1 3.739 2.087v.001h.001l.004.002c1.076.614 2.152 1.227 3.241 1.819.24.13.558.119.876.109.147-.006.294-.011.433-.002a5 5 0 0 1-.026-.568c-.006-.429-.012-.859-.204-.976l-.503-.304-.269-.163h-.001c-2.215-1.343-4.444-2.694-6.793-3.76-2.279-1.031-4.218.316-5.978 1.538l-.128.089-.215.148c-7.789 5.349-13.098 12.641-16.624 21.361-1.783 4.406-2.774 8.943-2.882 13.643-.044 1.858.263 3.729.566 5.584l.001.003.154.952c.219 1.378-.072 2.098-1.497 2.703-6.75 2.854-13.273 6.113-18.192 11.809-4.199 4.863-7.845 10.133-10.643 15.896-2.181 4.489-4.191 9.118-5.711 13.866-2.691 8.402-3.992 17.038-2.03 25.826 1.19 5.325 3.455 10.145 7.98 13.536 3.928 2.941 8.398 3.829 13.249 3.53 4.87-.297 8.977-2.55 13.055-4.786l.366-.2c10.957-6.006 21.846-12.139 32.719-18.297 11.208-6.352 22.376-12.767 33.536-19.199l5.634-3.247c11.349-6.54 22.7-13.081 33.983-19.73 5.46-3.217 10.862-6.528 16.264-9.839l.001-.001h.001l.003-.002.003-.002c3.624-2.221 7.249-4.443 10.891-6.637 2.872-1.729 4.695-4.344 6.522-6.965.401-.576.803-1.152 1.216-1.719l.185-.257.122-.17c.534-.749 1.074-1.506 1.87-2.164-.157.471-.326.941-.494 1.41-.373 1.036-.746 2.074-.987 3.139-.534 2.352-2.29 3.597-4.003 4.812-.316.224-.631.447-.936.676-5.564 4.175-10.229 9.162-14.093 14.906-1.381 2.05-3.398 3.18-5.408 4.307-.464.26-.927.52-1.382.791-6.538 3.885-13.121 7.695-19.705 11.505l-.003.002-.003.002-.068.039-1.854 1.074-1.105.639a10457 10457 0 0 1-22.276 12.859l-4.235 2.44-7.887 4.551-.006.003a6233 6233 0 0 1-27.149 15.603c-8.42 4.816-16.84 9.632-25.342 14.298-5.345 2.93-10.758 5.855-16.426 8.048-7.355 2.846-14.75 2.328-21.456-2.249-3.857-2.635-6.324-6.451-7.968-10.758-2.141-5.612-2.901-11.486-2.56-17.444a79 79 0 0 1 1.462-11.192c3.271-16.023 10.507-30.152 20.712-42.853 2.667-3.32 5.906-5.975 9.149-8.631l.001-.001c1.141-.935 2.282-1.87 3.398-2.834.952-.824 1.772-2.018 2.181-3.204.774-2.238 1.471-4.506 2.168-6.773 1.168-3.799 2.335-7.595 3.858-11.244 4.88-11.702 12.342-21.464 23.216-28.33 2.774-1.751 5.755-3.037 9.082-3.2.903-.043 1.825.125 2.734.291l.009.002.007.001.49.088c.565.098 1.127.218 1.689.339.927.198 1.853.396 2.792.493.394.044 1.067-.541 1.266-.991 2.638-5.994 5.695-11.761 9.488-17.098 1.98-2.784 4.133-5.447 6.285-8.108l.001-.001.002-.002.002-.003q.683-.843 1.364-1.689c.278-.342 1.082-.664 1.389-.505 1.046.539 2.041 1.172 3.092 1.841h.001zm-93.134 156.7q.088.175.159.325v.001c.093.196.173.363.275.515 4.987 7.474 14.607 8.792 21.886 5.381 7.854-3.683 15.452-7.929 23.035-12.168l.036-.02.036-.02 2.528-1.412c8.016-4.47 15.965-9.061 23.914-13.652l.002-.002.004-.002q3.678-2.125 7.359-4.246c7.994-4.6 15.979-9.218 23.964-13.835l3.572-2.066 3.062-1.77q3.648-2.106 7.302-4.204l.023-.014.023-.013c6.109-3.51 12.218-7.022 18.271-10.626 6.393-3.81 12.732-7.716 19.069-11.621l.002-.001q3.702-2.283 7.408-4.557c.335-.207.65-.447.994-.711h.001l.001-.002q.237-.182.501-.378c-.161-.138-.294-.26-.41-.367-.207-.192-.363-.336-.541-.441a535 535 0 0 0-3.365-1.953c-2.348-1.354-4.696-2.709-6.995-4.144-1.33-.832-2.253-.573-3.447.203-4.398 2.862-8.804 5.715-13.309 8.402-6.55 3.904-13.145 7.73-19.739 11.555h-.001l-.002.002-.051.029-4.183 2.427a8495 8495 0 0 1-29.356 16.987l-3.754 2.161c-9.869 5.681-19.74 11.364-29.654 16.959a2817 2817 0 0 1-34.77 19.311c-2.439 1.333-5.122 2.308-7.792 3.116-1.289.391-2.656.515-4.078.645h-.001c-.649.059-1.31.119-1.979.206m87.56-160.07.002.001.129.094c-.996 1.362-2.004 2.697-3.005 4.024v.001c-2.265 3.002-4.496 5.959-6.491 9.069-2.151 3.354-4.007 6.904-5.862 10.451q-.734 1.404-1.473 2.803c-.923 1.735-1.62 2.204-3.455 1.301-2.559-1.258-5.042-2.671-7.514-4.095a6049 6049 0 0 1-17.07-9.895l-4.951-2.877a847 847 0 0 1-3.324-1.939l-.011-.007c-1.439-.842-2.879-1.685-4.323-2.516-.851-.485-1.142-1.015-.887-2.081 1.19-5.011 3.745-9.365 6.404-13.668 4.915-7.956 10.781-15.144 17.842-21.309.987-.864 2.033-1.663 3.079-2.462l.001-.001a75 75 0 0 0 2.412-1.895c.741-.617 1.306-.457 2.05-.047q.883.49 1.761.993h.001l.001.001c1.945 1.107 3.892 2.214 5.946 3.061 2.492 1.031 5.162 1.66 7.801 2.273 1.688.39 1.922.445 1.759 2.233a1983 1983 0 0 1-1.58 16.835c-.139 1.421-.02 2.539 1.377 3.411 2.137 1.331 4.223 2.743 6.308 4.156l.003.002q1.304.884 2.612 1.76c.168.11.329.228.458.323m243.393-59.348.069.041.107.062 2.57 1.499h.004c-.827.535-1.62 1.054-2.392 1.559-1.728 1.131-3.347 2.191-4.999 3.201l-3.003 1.838c-5.465 3.348-10.931 6.696-16.455 9.942-5.978 3.515-11.992 6.972-18.005 10.428q-4.126 2.37-8.247 4.748l-7.235 4.183c-4.235 2.45-8.468 4.9-12.709 7.339q-11.649 6.706-23.315 13.381l-5.737 3.288c-6.82 3.91-13.639 7.82-20.503 11.653-3.517 1.961-7.083 3.833-10.65 5.705-1.964 1.031-3.927 2.061-5.883 3.107-.955.509-1.393.075-1.508-.768-.498-3.682-1.66-7.145-3.323-10.448-.406-.8.123-1.098.704-1.425a2089 2089 0 0 0 12.087-6.837 28638 28638 0 0 0 31.156-17.843l7.229-4.141.006-.003c6.78-3.882 13.56-7.764 20.318-11.68l1.508-.874 2.325-1.347.216-.125c11.324-6.559 22.65-13.12 33.909-19.795 4.493-2.666 8.917-5.452 13.34-8.238h.002l.001-.001a1141 1141 0 0 1 6.963-4.362c.266-.163.76-.282.995-.147 3.434 1.965 6.855 3.961 10.451 6.058zm-229.081 57.166-.366-.179h-.004q.207-1.076.403-2.156l.001-.003c.356-1.941.712-3.882 1.2-5.789.179-.692 1.031-1.321 1.715-1.755 4.259-2.69 8.776-4.844 13.696-6.014 7.466-1.775 14.55-1.154 20.64 4.012 3.148 2.671 5.357 6.089 6.435 10.105.576 2.145 1.042 4.32 1.508 6.495.202.941.404 1.881.614 2.819q.017.088.025.185c.015.139.03.279.106.364.221.251.47.48.718.708q.158.144.313.291c.071-.132.164-.266.257-.401v-.001c.206-.297.411-.593.376-.856-.194-1.418-.455-2.824-.716-4.231v-.002q-.157-.839-.307-1.677a31 31 0 0 1-.171-1.104v-.001l-.052-.356q-.035-.246-.08-.541c.648.37 1.267.704 1.858 1.022 1.246.671 2.372 1.278 3.392 2.03 1.723 1.274 3.288 1.087 5.182.434 8.199-2.826 16.071-2.356 23.275 2.894 3.67 2.67 5.946 6.447 7.542 10.579 3.128 8.099 3.196 16.513 2.173 25.002-.167 1.381-.748 2.472-1.683 3.526-1.615 1.818-3.161 3.697-4.655 5.512l-.006.007a492 492 0 0 1-1.795 2.171c.143-.888.3-1.796.46-2.72v-.002c.37-2.136.753-4.354 1.009-6.588.525-4.569.481-9.118-.446-13.679-.812-3.988-2.062-7.729-4.485-11.013-3.475-4.7-8.064-7.319-13.974-7.84-7.443-.653-13.548 2.352-19.383 6.424-1.121.782-2.321 1.454-3.651 2.199-.639.357-1.308.732-2.012 1.144a122 122 0 0 0-.005-1.18 46 46 0 0 1 .005-1.594c.115-4.725-.458-9.341-2.281-13.727-2.097-5.055-5.429-8.955-10.738-10.822-3.451-1.214-6.985-1.293-10.583-.657-5.763 1.019-10.75 3.722-15.51 6.965m234.782-129.22-.165-.476.004.004c5.27.649 9.246 3.001 12.175 7.096 3.224 4.51 4.382 9.696 4.732 15.101.466 7.136-.684 14.057-2.734 20.891-3.136 10.459-8.171 19.904-14.818 28.524-.22.287-.456.559-.712.853v.001q-.164.187-.338.392l-1.956-1.14-3.066-1.787-.044-.025-8.359-4.873q.865-1.23 1.725-2.426c1.257-1.755 2.491-3.479 3.636-5.259 3.331-5.178 6.388-10.523 8.33-16.398 1.477-4.461 2.954-8.947 4.008-13.516 1.294-5.6 1.668-11.359.657-17.042-.386-2.168-1.127-4.269-1.869-6.371a94 94 0 0 1-.973-2.859c-.066-.209-.138-.415-.233-.69M205.168 275.27c.104.014.239.031.422.05h.004c-.749 8.955-1.495 17.83-2.267 27.005l-.18 2.149c-.441-.259-.852-.498-1.242-.725l-.003-.002c-.896-.52-1.68-.977-2.453-1.45l-.867-.533-.612-.374c-2.633-1.614-5.267-3.228-7.858-4.904-.446-.287-.875-1.051-.84-1.56.253-3.703.589-7.396.925-11.091v-.002l.118-1.305.031-.341c.148-1.642.297-3.29.554-4.917.06-.386.617-.955.987-.991 3.648-.337 7.301-.611 10.955-.885l1.98-.149c.085-.008.172.003.345.025zm117.085-159.895c.082.079.182.175.314.295v.004c-2.982 1.676-5.815 3.267-8.646 4.856l-.079.044-5.363 3.005-.04.023a6339 6339 0 0 0-10.799 6.058c-1.254.705-1.365.537-1.72-.852-.935-3.685-1.942-7.355-3.104-10.972-.382-1.186-.179-1.732.832-2.289 4.545-2.511 9.074-5.055 13.6-7.602.895-.505 1.775-.692 2.702-.131 3.992 2.42 7.98 4.848 11.968 7.275.102.062.189.146.335.286M305.12 336.778c-.196.049-.438.109-.75.196l-.008-.004-.001-.78-.003-1.048v-.001c-.006-1.878-.013-3.644.048-5.41.012-.323.537-.721.911-.92a490 490 0 0 1 4.719-2.453l.003-.001c2.661-1.371 5.322-2.742 7.939-4.196 5.787-3.217 11.542-6.495 17.296-9.772h.001l.014-.008.013-.008q3.168-1.805 6.337-3.605l.41-.233c3.123-1.773 6.249-3.549 9.548-5.124q-.438.453-.883.899c-.648.654-1.297 1.308-1.887 2.01a758 758 0 0 0-3.891 4.671l-.004.004c-1.716 2.07-3.431 4.141-5.176 6.187a9.6 9.6 0 0 1-2.495 2.081 2625 2625 0 0 1-24.032 13.572c-1.755.979-3.567 1.857-5.379 2.735h-.001q-1.017.491-2.03.99c-.178.089-.376.138-.698.218zm-69.662-57.508.1.14c.103.147.171.243.264.296a284 284 0 0 1 2.648 1.573c2.187 1.31 4.374 2.62 6.638 3.78 5.381 2.758 9.349 6.782 11.928 12.247.505 1.074 1.182 2.244 2.109 2.901 2.018 1.421 4.211 2.611 6.416 3.741.669.343 1.711.478 2.384.207 4.076-1.632 8.298-2.093 12.633-1.894.258.013.519-.006.861-.03.19-.014.405-.029.659-.042-.185-.144-.331-.266-.456-.369l-.004-.003-.001-.001-.001-.001c-.206-.171-.354-.294-.517-.39a1432 1432 0 0 0-6.786-3.976q-3.656-2.138-7.313-4.279l-.005-.003c-6.365-3.727-12.73-7.455-19.121-11.141-3.786-2.183-7.867-3.361-12.559-2.918q.069.087.123.162m190.513 28.437.119-.216c4.275.091 8.418.78 12.195 2.961 4.978 2.872 9.944 5.764 14.91 8.657l.036.02q3.598 2.096 7.199 4.19 2.477 1.439 4.954 2.875l.015.008.014.009.011.006q3.195 1.85 6.389 3.709c.282.165.553.35.919.6l.004.002.001.001c.206.141.442.302.727.491-.915 0-1.792-.024-2.641-.047h-.002c-1.849-.051-3.563-.098-5.245.115-1.488.189-2.943.616-4.401 1.044h-.002c-.873.257-1.747.513-2.63.719-.609.143-1.405.123-1.938-.155-1.299-.678-2.565-1.421-3.831-2.164l-.005-.003c-.665-.39-1.329-.78-1.999-1.16-1.253-.713-2.232-1.513-2.845-2.993-2.313-5.58-6.273-9.676-11.65-12.482-2.324-1.213-4.581-2.553-6.837-3.894l-.002-.002-.005-.002a316 316 0 0 0-3.07-1.809c-.163-.096-.338-.175-.509-.263zM405.19 136.542v-.002c-.041-.081-.091-.182-.162-.305l.004-.004c5.134-.024 9.699 1.246 13.958 3.753a4923 4923 0 0 0 17.754 10.387l.003.002.003.002.013.008q4.026 2.347 8.049 4.697c2.46 1.441 4.912 2.894 7.296 4.617a27 27 0 0 1-.747-.097c-.567-.079-1.134-.158-1.701-.158-4.036-.004-7.968.562-11.753 2.066-.629.251-1.6.187-2.205-.127-2.324-1.21-4.629-2.48-6.798-3.94-.824-.558-1.433-1.612-1.85-2.568-2.576-5.858-6.886-9.918-12.545-12.771-2.205-1.111-4.322-2.396-6.439-3.681v-.001c-.902-.547-1.803-1.094-2.711-1.628-.064-.039-.104-.119-.169-.25M281.285 56.074c.518-.363 1.047-.735 1.549-1.182l-.004.008.076.21c.59 1.618 1.041 2.857.342 4.506-3.119 7.344-6.155 14.727-9.19 22.11l-.002.004v.002q-1.614 3.928-3.233 7.853c-.19.457-.392.908-.594 1.359-.325.725-.649 1.448-.919 2.192-.258.716-.597.987-1.365.84-1.3-.252-2.604-.473-3.907-.694q-.86-.145-1.717-.294c-.843-.147-.808-.589-.477-1.237 1.366-2.67 2.722-5.346 4.078-8.022l.001-.001v-.002a2005 2005 0 0 1 5.598-10.984l.006-.011v-.001c2.359-4.6 4.718-9.199 6.989-13.842.647-1.323 1.684-2.051 2.769-2.814m123.23 99.996a61 61 0 0 1-.725-2.128h.004c4.012.199 7.403 1.636 10.114 4.466 4.043 4.218 5.46 9.536 5.946 15.156.12 1.397.091 2.807.059 4.344-.015.744-.031 1.518-.031 2.334l-1.702-.984-.004-.003c-1.276-.737-2.44-1.409-3.6-2.09q-1.045-.614-2.085-1.238l-.003-.002-.002-.001c-1.474-.882-2.948-1.764-4.457-2.583-1.039-.566-1.325-1.33-1.397-2.424q-.062-.981-.121-1.964c-.172-2.859-.344-5.72-.758-8.547-.212-1.449-.712-2.858-1.238-4.336M297.44 141.825q.208-.128.386-.234c.247-.148.459-.275.662-.417q3.165-2.22 6.325-4.447l.008-.005c4.985-3.51 9.971-7.019 14.987-10.481l.288-.198c2.554-1.76 5.061-3.488 5.993-6.695.04-.136.095-.298.151-.464v-.001c.157-.461.324-.956.219-1.024-.681-.449-1.485-.831-2.285-.947-.397-.056-.863.22-1.293.474q-.137.082-.267.155c-2.136 1.19-4.267 2.388-6.399 3.585l-.002.002-.007.004h-.001l-.002.001q-2.657 1.495-5.318 2.983-1.907 1.066-3.818 2.129l-.004.003c-3.1 1.727-6.201 3.454-9.284 5.211-.47.267-1.102.864-1.078 1.278.121 2.283.329 4.563.543 6.91v.004h.001q.098 1.076.195 2.174m-20.142 70.551.283-.425-.004-.004c4.278 3.649 8.409 7.172 12.541 10.694q.108.095.211.199c.139.137.277.273.441.358 2.627 1.341 2.958 3.63 2.468 6.173-.119.609-.533 1.345-1.039 1.668-3.136 2.002-3.191 1.972-6.429.208l-.178-.097a947 947 0 0 0-13.492-7.2c-1.118-.585-1.417-1.007-.585-2.232 1.368-2.02 2.621-4.117 3.874-6.215l.001-.001a295 295 0 0 1 1.53-2.544c.109-.179.226-.354.378-.582m-69.447 93.813-.001.001q-.426.517-.855 1.054l-.004-.004c-2.264-1.21-2.471-1.724-2.121-4.012.295-1.93.462-3.885.625-5.831q.345-4.13.683-8.263v-.007l.001-.007c.366-4.466.733-8.933 1.119-13.398.04-.438.354-1.106.696-1.23 1.887-.672 3.795-1.282 5.806-1.923l.002-.001q.978-.312 1.993-.639c0 .215.008.41.015.59v.001c.014.353.026.65-.027.938a2002 2002 0 0 1-1.451 7.762l-.001.007-.001.003-.001.004c-.571 3.034-1.142 6.069-1.698 9.107-.309 1.684-.6 3.372-.892 5.06v.001a407 407 0 0 1-1.106 6.21c-.143.768-.493 1.552-.939 2.197-.562.817-1.194 1.588-1.843 2.379zm8.368-25.999.018-.098.025-.137 1.619-8.854 14.658 8.573 6.213 3.634-.036.374c-8.939-.414-16.824 2.627-24.509 7.514zm120.803 40.821.121.149.122.149h.004l-.371.606c-3.08 5.026-6.161 10.057-7.474 16.106a17 17 0 0 0-.706-.315c-.386-.165-.69-.295-.946-.489-3.367-2.575-7.028-2.368-10.734-1.055-4.378 1.549-8.131 4.16-11.637 7.149q-.194.166-.384.333c-.23.202-.46.403-.699.598-.036.031-.093.038-.228.053-.091.011-.216.026-.393.054.085-.566.136-1.14.186-1.707.116-1.319.228-2.603.766-3.678.359-.715 1.331-1.132 2.296-1.545.404-.174.806-.346 1.162-.54q5.803-3.173 11.608-6.342l11.608-6.342a351 351 0 0 0 3.977-2.217q.861-.485 1.722-.967m-204.76-31.734c-.054.347-.112.717-.182 1.119l-.004.004-2.474-1.483-.004-.002-.017-.011a1108 1108 0 0 1-5.206-3.132l-.688-.416-.001-.001c-1.52-.918-3.044-1.839-4.513-2.835-.43-.291-.852-.955-.852-1.445.003-.745.139-1.492.29-2.311v-.001c.064-.353.132-.72.192-1.107q.274.123.511.222c.321.136.598.253.854.407q2.232 1.357 4.461 2.721l.005.003c2.368 1.447 4.737 2.895 7.115 4.325.808.485 1.155 1.015.892 1.978-.167.607-.265 1.235-.379 1.965M264.96 47.423c-.024-.058-.053-.131-.095-.22l.004-.005q.37-.259.742-.523c.734-.52 1.478-1.048 2.25-1.526.188-.116.637.056.896.21q6.192 3.72 12.366 7.475c.146.09.261.23.416.417.085.104.183.222.304.355l-.801.569h-.001c-.733.522-1.434 1.022-2.155 1.485-.179.115-.573.056-.78-.068a2933 2933 0 0 1-13.038-7.983c-.043-.026-.067-.084-.108-.186m76.798 140.914q-.154.309-.302.617v.004c-.227-.055-.463-.093-.699-.132-.502-.081-1.003-.163-1.415-.401a7594 7594 0 0 1-21.718-12.701l-.047-.027-8.232-4.824a807 807 0 0 0-4.694-2.72 1081 1081 0 0 1-3.473-2.008c-.128-.073-.24-.175-.381-.303q-.11-.101-.252-.223c1.52-.488 2.681.198 3.749.829l.155.091.164.095c4.579 2.643 9.134 5.33 13.689 8.016a3089 3089 0 0 0 7.039 4.143c3.48 2.038 6.968 4.064 10.455 6.091l5.234 3.043.154.088.333.188.118.066zm20.684 171.331-.159.558.004.003c-.213-.053-.435-.093-.657-.133h-.001c-.481-.086-.962-.172-1.36-.404a7821 7821 0 0 1-21.713-12.658l-.005-.004-.006-.003-.089-.052-4.096-2.394-2.516-1.469a2004 2004 0 0 0-5.272-3.07q-2.127-1.235-4.252-2.475a4 4 0 0 1-.504-.37 13 13 0 0 0-.348-.274c1.482-.487 2.573.164 3.586.769l.002.001q.206.123.408.241c5.628 3.225 11.221 6.511 16.816 9.798l.003.002.009.005 2.089 1.227c4.07 2.39 8.134 4.791 12.198 7.192l.032.019.032.019 4.613 2.724c.291.173.575.356.86.539zm-190.514-28.481-.14.45v-.004c-.246-.054-.503-.09-.76-.126h-.001c-.553-.077-1.107-.154-1.555-.415-8.616-4.995-17.215-10.026-25.814-15.056l-4.315-2.524-9.154-5.349c2.066-.227 3.495.51 4.86 1.31a17388 17388 0 0 1 27.888 16.419l7.713 4.547.208.122.362.212.064.038zm53.157-57.56.345-1.397.342-1.387c.394-1.598.773-3.135 1.191-4.82-2.738 1.433-5.142 2.69-7.892 4.127zm-105.463-82.603q-5.874-3.646-5.993-4.904l.003.004q.336.176.649.336h.001c.44.225.853.435 1.249.675l.297.18.932.561.003.002c2.894 1.746 5.789 3.492 8.65 5.287.369.23.648.607.927.985.127.172.255.345.391.504q-.084.098-.165.197l-.096.114-.07.083a383 383 0 0 0-2.232-1.313l-.001-.001-.002-.001a218 218 0 0 1-4.543-2.709M192.02 84.138c.998.659 1.996 1.318 3.007 1.957-3.633-1.514-6.912-3.666-10.196-5.821h-.001c-.867-.57-1.735-1.14-2.61-1.697 3.514 1.411 6.652 3.483 9.799 5.56zm85.998 89.219c1.473-6.492 2.472-13.019 2.722-19.713h.004a565 565 0 0 1-.324-3.19v-.005c-.233-2.346-.466-4.693-.778-7.03-.796-5.986-2.722-11.578-6.105-16.624-5.664-8.45-13.691-12.446-23.753-12.438-6.905.004-13.377 1.97-19.538 4.935-8.159 3.929-15.331 9.294-21.806 15.57-9.246 8.963-16.832 19.196-22.929 30.543-6.165 11.47-10.702 23.49-12.831 36.389-1.437 8.696-1.76 17.349.023 26.053 1.397 6.821 4.02 13.002 8.76 18.153 3.861 4.194 8.677 6.877 14.249 7.999 7.805 1.572 15.295.08 22.554-2.833 7.336-2.942 13.851-7.24 19.877-12.295 10.905-9.146 19.653-20.115 26.697-32.421 5.946-10.391 10.512-21.36 13.178-33.093m-12.224 27.355a5 5 0 0 1 .211-.203c.171-.158.342-.315.427-.51a522 522 0 0 1 1.768-3.975v-.002l.001-.002.001-.001c1.548-3.457 3.096-6.915 4.451-10.448 2.691-7.009 4.466-14.28 5.417-21.743.18-1.414.332-2.832.498-4.372v-.002c.08-.743.163-1.515.254-2.328a73 73 0 0 1-.782.478l-.001.001h-.001c-.331.2-.571.345-.8.504q-2.462 1.724-4.918 3.456c-3.973 2.798-7.946 5.596-11.973 8.313-1.5 1.011-1.998 2.348-2.217 3.9-.692 4.84-2.117 9.477-3.964 13.974-.501 1.222-.283 1.915.653 2.695a593 593 0 0 1 10.101 8.644c.301.263.47.676.64 1.089.074.182.148.363.234.532m-1.742-.268c.564.486 1.056.741 1.713.318a94 94 0 0 0-.824 1.755c-.597 1.293-1.194 2.587-1.912 3.81-3.868 6.599-8.246 12.839-13.213 18.666-5.982 7.017-12.696 13.222-20.346 18.376-5.166 3.478-10.73 6.24-16.712 7.992-5.608 1.643-11.375 2.125-17.134.919-4.867-1.019-9.114-3.343-12.553-7.009-.053-.056-.078-.138-.123-.283a7 7 0 0 0-.119-.362c4.047.168 7.92-.262 11.303-1.261-.016-.528-.041-1.019-.064-1.484-.048-.953-.091-1.801-.04-2.643.187-3.049.406-6.098.764-9.131.096-.823.609-1.675 1.135-2.356.599-.775 1.266-1.495 1.932-2.215.374-.403.747-.807 1.108-1.219.57-.649 1.135-.613 1.907-.307l.185.074h.001c2.402.955 4.809 1.911 7.276 2.656 1.107.335 1.278.78 1.186 1.799-.648 7.14-1.257 14.281-1.803 21.425-.024.329.231.68.486 1.033.118.163.236.326.326.487.098-.141.219-.281.339-.421.267-.31.533-.619.561-.948.306-3.661.578-7.324.851-10.986v-.002q.233-3.147.474-6.293c.124-1.616.295-3.236.545-4.836.056-.342.534-.848.856-.88 4.374-.449 8.482-1.767 12.573-3.892q-.061.563-.106 1.065l-.001.001v.001c-.065.691-.123 1.313-.235 1.926-.61 3.282-1.229 6.562-1.848 9.842v.005l-.001.004-.002.01-.002.01q-.677 3.579-1.347 7.159c-.152.796-.283 1.604-.307 2.412-.008.24.122.485.252.731.06.113.12.227.166.34.113-.07.249-.135.386-.199.305-.145.611-.29.669-.502.34-1.248.568-2.528.795-3.807l.045-.248c.464-2.607.92-5.214 1.377-7.821l.003-.015q.41-2.35.825-4.701.106-.606.206-1.214c.207-1.242.415-2.485.733-3.698.167-.64.708-1.241 1.21-1.723a928 928 0 0 1 5.083-4.83v-.001c1.768-1.672 3.537-3.344 5.293-5.031.798-.769 1.55-1.588 2.325-2.433l.001-.001.005-.006q.525-.575 1.076-1.162c3.422 1.839 6.817 3.661 10.216 5.484.237.128.471.266.705.404.554.328 1.108.656 1.707.838.386.12.834.041 1.283-.038.204-.036.409-.072.608-.089-.117-.137-.225-.29-.334-.443-.231-.327-.462-.654-.777-.827-2.734-1.502-5.487-2.97-8.239-4.439l-.004-.001-.005-.003-.005-.003q-1.61-.858-3.217-1.719a8 8 0 0 1-.405-.237l-.371-.225q.343-.493.683-.963c.475-.662.935-1.304 1.343-1.978 2.543-4.191 5.082-8.39 7.558-12.621.78-1.333.867-1.452 2.045-.465a997 997 0 0 1 9.93 8.429m-6.902-37.217q.161 1.206.327 2.412l.004.004c-.274 6.126-1.532 11.984-3.45 17.723-3.379 10.102-8.677 19.088-15.837 26.957-5.229 5.743-11.164 10.575-18.543 13.337-4.72 1.767-9.563 2.44-14.411.637-4.454-1.656-7.367-4.975-9.15-9.322-2.221-5.408-2.416-11.04-1.815-16.755 1.369-13.039 6.655-24.465 14.416-34.849 4.994-6.683 10.909-12.378 18.276-16.442 3.637-2.009 7.502-3.418 11.637-3.745 7.518-.593 14.062 3.324 16.808 11.096l.066.188c.33.926.665 1.867.821 2.829.32 1.973.585 3.951.851 5.929zm-75.519 14.968a7 7 0 0 0-.375-.058l-.008-.008c5.167-12.482 12.04-23.761 20.955-34.272l.58 2.453.002.007c.352 1.488.68 2.872.998 4.258q.339 1.478.669 2.959l.001.001c.478 2.133.957 4.265 1.487 6.385.116.454.761 1.15 1.083 1.111.865-.106.706-.688.55-1.264a5 5 0 0 1-.076-.297c-.334-1.462-.644-2.93-.955-4.398v-.001c-.677-3.196-1.353-6.392-2.261-9.523-.76-2.626-.072-4.306 1.787-6.013 2.084-1.912 4.105-3.895 6.223-5.973l.001-.001.001-.001.001-.001c.91-.893 1.838-1.803 2.796-2.733.333.83.647 1.609.948 2.355.533 1.324 1.026 2.547 1.512 3.771q.566 1.428 1.13 2.858l.004.009.001.003a503 503 0 0 0 2.622 6.558c.135.322.405.591.68.865h.001c.129.129.26.259.378.397q-.909.736-1.842 1.477l-.001.001c-1.388 1.106-2.798 2.229-4.151 3.417-5.313 4.669-9.644 10.161-13.353 16.159-3.63 5.874-6.467 12.119-8.398 18.75-2.201 7.566-3.124 15.251-1.628 23.072.828 4.326 2.679 8.219 5.648 11.733l-18.089 19.908a22 22 0 0 0-.549-.69c-.351-.428-.665-.811-.888-1.24-.77-1.494-1.494-3.01-2.217-4.525l-.601-1.254c-.485-1.007-.302-1.863.406-2.767a2876 2876 0 0 0 14.639-18.893c.089-.116.201-.235.316-.356.476-.505 1-1.06.169-1.737-.167-.139-1.313.613-1.743 1.158a2558 2558 0 0 0-10.037 12.903l-.012.015-3.829 4.94c-.147.19-.316.362-.53.579-.122.125-.259.263-.413.428a14 14 0 0 0-.255-.562v-.001c-.171-.363-.326-.692-.398-1.037a66 66 0 0 1-.963-21.782c.266-2.189 1.914-4.131 4.163-4.72l-.101-.574-.099-.566c-.156-.902-.314-1.808-.493-2.709-.219-1.107.259-1.429 1.31-1.429 1.888.004 3.776-.013 5.664-.03 1.793-.016 3.587-.032 5.38-.03.995.004 1.66-.278 1.879-1.616-3.562-.245-7.101-.112-10.703.025h-.001c-1.703.064-3.42.129-5.161.155a355 355 0 0 0 .607-2.277v-.002c.435-1.65.85-3.226 1.328-4.782.383-1.247.813-2.479 1.243-3.712.37-1.061.741-2.122 1.081-3.193.366-1.154.959-1.827 2.241-2.042 3.309-.551 6.609-1.159 9.91-1.767h.003l.015-.003 3.456-.634q.071-.013.145-.022l.126-.016c.255-.031.514-.062.693-.197.286-.211.524-.486.762-.762q.153-.18.312-.352a5 5 0 0 1-.457-.177c-.328-.14-.656-.281-.952-.229-3.317.574-6.627 1.181-9.937 1.788l-.002.001h-.003q-2.06.379-4.123.754c-.077.015-.16 0-.302-.025m79.253-60.097c9.962 4.514 14.352 12.935 16.68 22.81v.004c-7.06 3.936-13.914 7.761-20.735 11.569q-.558-.793-1.097-1.57c-.886-1.272-1.747-2.51-2.653-3.715-.505-.677-1.134-1.313-1.83-1.783-1.236-.832-1.006-1.715-.704-2.875l.079-.305c.807-3.207 3.266-4.498 5.777-5.816l.527-.277c.844-.448 1.675-.921 2.506-1.393h.001c.705-.401 1.409-.801 2.122-1.186.752-.406.971-.912.704-1.76-.317-1-.605-2.011-.893-3.021-.495-1.739-.99-3.476-1.634-5.157-.716-1.865-.004-3.258.791-4.811v-.001l.001-.001q.18-.349.358-.712m-40.073 22.503-2.807-7.084.004.004c2.279.534 2.847-.752 3.394-1.989.118-.266.234-.53.367-.773.727-1.338 1.389-2.71 2.051-4.081l.002-.003v-.001q.404-.837.812-1.67c.76-1.541 2.178-2.196 3.577-2.843.368-.17.735-.34 1.088-.525 4.282-2.248 8.784-3.948 13.54-4.895.992-.198 2-.315 3.113-.444.543-.063 1.111-.129 1.715-.209l-1.037 2.047c-.946 1.864-1.828 3.605-2.708 5.348l-1.44 2.848a4667 4667 0 0 1-7.675 15.138 1.86 1.86 0 0 1-.859.808 983 983 0 0 1-8.244 3.42l-.006.003h-.001l-2.464 1.014zm27.678 2.638.09-.219.447-1.088c.621-1.51 1.211-2.946 1.809-4.379 2.623-6.289 5.245-12.573 7.876-18.858.335-.804.291-1.401-.728-1.564l-1.552-.249-.006-.001a186 186 0 0 1-4.922-.828c-1.42-.267-2.189.358-2.802 1.576-1.923 3.844-3.87 7.677-5.817 11.509v.001l-.002.004a4124 4124 0 0 0-3.53 6.961c-.602 1.191-1.184 2.395-1.816 3.702-.299.619-.609 1.26-.938 1.933 4.31-.736 8.09.06 11.891 1.5m28.738-.232c.187-.083.396-.175.636-.284h.008q.141.978.288 1.903c.211 1.345.411 2.622.512 3.907.139 1.803.111 3.626.04 5.437-.024.537-.307 1.262-.717 1.552-5.822 4.15-11.677 8.254-17.533 12.358l-.001.001-.002.001-.911.639c-.065.045-.153.057-.269.073q-.102.012-.232.038l-.036-.259-.015-.099c-.039-.265-.077-.515-.069-.764.139-4.267-.219-8.465-1.508-12.569-.112-.346.418-1.122.839-1.365 2.598-1.497 5.217-2.952 7.837-4.408h.001l.001-.001q1.628-.904 3.254-1.812 1.637-.917 3.275-1.842l.007-.003.005-.004h.001q1.84-1.04 3.685-2.071c.265-.147.543-.27.904-.428m-95.134 99.56q.056.123.113.243l.002.004.052.11.063.138c3.069.271 6.129.084 9.138-.605.454-.103.943-1.023 1.023-1.62.155-1.147.216-2.307.277-3.467l.001-.001c.031-.601.063-1.202.108-1.801.087-1.182.193-2.365.3-3.547l.106-1.181-.173-.09-.01-.006-.183-.095-.081.089q-5.368 5.912-10.736 11.829m71.158-105.966-.311-.362h-.004l2.539-6.073.065-.155.053-.128 2.438-5.831.453-.028q.125.335.258.668c.194.493.388.986.53 1.494.478 1.691.94 3.391 1.314 5.106.083.394-.064 1.098-.343 1.27-1.806 1.099-3.649 2.143-5.493 3.188h-.001l-.001.001q-.75.424-1.497.85m-30.452-10.885-.004.004q-.453.855-.895 1.714v.001h-.001c-.716 1.385-1.431 2.768-2.237 4.1-.497.824-1.982.84-2.547.239-.692-.741-.704-2.006.104-2.639 1.164-.915 2.36-1.788 3.556-2.662q.775-.566 1.546-1.135.238.186.476.377h.001zm-48.929 77.311c2.316-2.169 2.511-3.18 1.022-5.496q-.514 2.746-1.022 5.496m270.253 147.776.002-.001c1.145-.564 2.233-1.1 3.211-1.792 3.327-2.348 6.746-4.509 10.594-5.882 4.199-1.497 8.478-1.728 12.816-.605 8.219 2.125 12.445 7.971 14.63 15.697 1.584 5.599 1.612 11.271.968 17.034-1.171 10.475-4.749 20.139-9.835 29.225-2.71 4.844-6.081 9.345-9.429 13.795-.873 1.16-2.267 1.96-3.622 2.738-.337.193-.671.385-.994.581l-2.462 1.491-1.584.959-.009.005c-8.931 5.409-17.863 10.818-26.854 16.128-10.055 5.939-20.171 11.769-30.29 17.602l-.007.004-1.515.873c-11.374 6.555-22.773 13.065-34.169 19.574l-1.225.7q-2.2 1.257-4.4 2.517l-1.524.872-.005.003c-7.674 4.394-15.346 8.787-23.082 13.069-4.039 2.233-8.171 4.434-12.501 5.974-5.97 2.126-11.976 1.688-17.472-1.846-3.765-2.42-6.129-5.994-7.622-10.106-2.603-7.168-2.408-14.531-1.098-21.906 2.467-13.87 8.708-25.977 17.512-36.822 3.757-4.629 8.553-7.996 13.993-10.436l.58-.26c1.722-.772 3.445-1.544 5.12-2.407.394-.203.768-.859.78-1.317a12.5 12.5 0 0 0-.326-3.124c-.991-4.128-.466-8.215.561-12.199 2.543-9.878 7.617-18.268 15.442-24.879 1.333-1.125 2.834-2.059 4.33-2.99q.558-.346 1.111-.696c1.504-.955 3.244-.863 4.696-.167 2.062.987 4.012 2.219 5.953 3.447l.001.001.92.58c.176.111.199.46.222.81.011.164.022.328.048.468-.137.018-.285.056-.433.094-.325.083-.651.166-.864.049-1.425-.783-2.821-1.616-4.218-2.449l-.004-.003q-.852-.51-1.708-1.015c-1.807-1.062-3.117-.995-4.681.307q1.317.774 2.624 1.547h.001c2.506 1.48 4.996 2.95 7.508 4.379.394.227 1.043.183 1.521.056l.54-.142c1.665-.436 3.337-.874 4.928-1.51.589-.235 1.095-1.114 1.302-1.799.415-1.377.783-2.77 1.152-4.162v-.001c.461-1.741.922-3.482 1.474-5.194 1.895-5.89 4.713-11.363 7.996-16.589 3.829-6.093 8.374-11.601 13.771-16.381 5.27-4.665 11.052-8.494 17.918-10.384 6.997-1.926 13.584-1.293 19.116 3.877 3.224 3.012 4.891 6.941 5.974 11.199.838 3.296.835 6.609.832 9.938v.88c0 .234.02.467.049.786.016.184.035.396.054.655l.012-.004c.566-.302 1.125-.577 1.671-.846m26.559 12.424c0-8.673-1.122-13.728-3.367-18.233-.529-1.063-1.21-1.397-2.348-1.413-4.585-.075-8.565 1.708-12.398 3.936-1.26.733-2.514 1.476-3.768 2.22-2.065 1.225-4.129 2.449-6.222 3.623-.489.275-1.408.251-1.906-.028a693 693 0 0 1-8.585-4.896l-.001-.001q-2.351-1.357-4.707-2.705c-.836-.477-1.194-1.062-1.15-2.077.091-2.241.127-4.49.02-6.726-.184-3.797-.924-7.487-2.779-10.858-.254-.465-1.002-.963-1.492-.935-1.616.095-3.256.275-4.812.692-5.138 1.381-9.731 3.897-13.942 7.113-7.418 5.663-13.305 12.664-18.073 20.66-3.164 5.309-5.811 10.853-7.574 16.784-.439 1.478-.817 2.977-1.194 4.476-.344 1.365-.688 2.73-1.078 4.081-.152.521-.725 1.13-1.238 1.301a81 81 0 0 1-6.878 1.974c-.656.155-1.54-.036-2.145-.374a337 337 0 0 1-10.022-5.827c-.823-.497-1.436-.577-2.169.08-.491.438-1 .857-1.509 1.276h-.001c-.744.613-1.488 1.225-2.175 1.896-5.895 5.751-9.974 12.609-12.211 20.537-1.214 4.302-1.97 8.644-.951 13.134.197.866.264 1.762.331 2.658.033.442.066.884.115 1.322.091.847-.14 1.413-1.027 1.787-.986.412-1.949.877-2.913 1.343-.755.364-1.511.729-2.277 1.069-4.525 2.002-8.764 4.429-12.314 7.948-3.582 3.554-6.424 7.665-9.106 11.908-3.59 5.675-6.444 11.717-8.386 18.125-1.198 3.952-2.118 8.039-2.643 12.131-.377 2.94-.258 5.959-.139 8.952l.051 1.336c.128 3.574 1.21 6.933 2.878 10.089.227.426.808.892 1.262.936 2.619.25 5.217-.211 7.506-1.381 7.295-3.734 14.555-7.55 21.723-11.526 8.653-4.8 17.236-9.731 25.816-14.66l2.306-1.324a5738 5738 0 0 0 19.107-11.037c4.203-2.435 8.407-4.871 12.614-7.299 3.427-1.978 6.86-3.945 10.294-5.913l.009-.005c6.413-3.674 12.827-7.349 19.197-11.097 6.327-3.722 12.597-7.543 18.865-11.364q3.122-1.905 6.249-3.803c2.929-1.779 5.834-3.598 7.924-6.432 6.153-8.362 11.084-17.345 14.169-27.311 1.878-6.065 2.969-12.23 3.068-16.151zM301.699 493.723c.301.341.579.678.849 1.006.545.663 1.058 1.286 1.655 1.816 5.222 4.632 11.395 5.381 17.707 3.327 4.402-1.429 8.585-3.678 12.672-5.914 8.456-4.631 16.823-9.42 25.19-14.209l2.085-1.194a4874 4874 0 0 0 19.694-11.357l.003-.001q5.51-3.19 11.025-6.373c3.701-2.135 7.409-4.259 11.117-6.383l.01-.005c7.376-4.225 14.75-8.449 22.074-12.76 8.942-5.263 17.828-10.621 26.714-15.979h.001l.022-.013q4.54-2.74 9.083-5.472c.757-.455 1.488-.954 2.239-1.466q.536-.368 1.092-.739a6 6 0 0 1-.246-.308c-.103-.136-.173-.227-.263-.281a1400 1400 0 0 0-12.346-7.224c-.239-.139-.745-.039-1.015.128a967 967 0 0 0-6.62 4.169l-.002.001c-4.12 2.61-8.24 5.219-12.43 7.714-10.588 6.301-21.251 12.474-31.911 18.645l-1.454.841-.003.002c-12.174 7.052-24.347 14.104-36.585 21.048a5279 5279 0 0 1-46.184 25.93c-2.718 1.509-5.666 2.631-8.589 3.744l-.692.264c-.963.369-2.001.54-3.144.729h-.001a46 46 0 0 0-1.751.314zm166.493-149.576c-.055-.137-.116-.29-.191-.47 3.064.438 5.718 1.321 8.086 3.025 5.075 3.653 7.335 8.927 8.346 14.825 1.517 8.863.195 17.48-2.428 25.993-3.16 10.249-8.194 19.479-14.682 27.968-.585.768-1.094 1.051-2.022.501-2.878-1.709-5.771-3.392-8.729-5.113q-1.813-1.053-3.664-2.134l1.174-1.638q.72-1.002 1.424-1.987l.908-1.271c4.848-6.801 8.724-14.125 11.347-22.045.81-2.45 1.388-4.975 1.966-7.501.334-1.459.668-2.918 1.047-4.363 1.293-4.943.975-9.986.66-14.965-.222-3.542-1.361-6.997-2.985-10.221a8 8 0 0 1-.257-.604m-43.01-17.156.001.001v.001c.476 1.306.941 2.581 1.27 3.892a31.5 31.5 0 0 1 .855 10.36c-.147 1.779.553 2.85 2.042 3.673 1.679.928 3.332 1.9 4.987 2.872q1.094.644 2.193 1.284l1.767 1.029.913.532 1.427.831c.025-.278.055-.521.082-.741.053-.418.094-.752.066-1.078-.083-.898-.156-1.798-.229-2.698-.199-2.471-.399-4.944-.81-7.38-.725-4.298-2.719-8.027-6.09-10.881-2.619-2.217-5.695-3.355-9.126-3.538h-.004c.213.624.436 1.236.656 1.841M234.556 197.34c5.334-6.694 8.828-14.125 9.083-23.49-.04-.317-.069-.69-.1-1.099-.081-1.036-.179-2.305-.513-3.51-1.763-6.344-6.985-9.389-12.872-7.709-3.51 1.003-6.543 2.814-9.257 5.206-5.146 4.537-8.852 10.037-11.204 16.489-1.552 4.263-2.563 8.597-2.077 13.162.346 3.255 1.317 6.308 3.86 8.545 3.503 3.084 7.511 2.961 11.57 1.357 4.689-1.855 8.398-5.047 11.51-8.951m-2.74-34.387q.708-.194 1.415-.39c5.09.259 7.817 3.809 8.426 8.274 1.233 9.075-2.082 16.879-7.248 24.039-3.057 4.231-6.818 7.694-11.701 9.811-4.02 1.743-8.215 1.21-10.73-1.54-2.014-2.205-2.436-5.019-2.81-7.813-.048-.366.426-.939.808-1.206 7.474-5.261 12.238-12.465 14.985-21.058a26.4 26.4 0 0 0 1.202-6.292c.091-1.477.525-2.357 1.882-2.759 1.251-.373 2.511-.719 3.771-1.066m-22.572 29.846c9.078-5.524 16.107-19.84 15.422-27.008-8.195 4.298-16.067 19.334-15.422 27.008"/>
</svg>
