<svg xmlns="http://www.w3.org/2000/svg" width="550" height="550" fill="none" viewBox="0 0 550 550">
    <path fill="#fff" fill-rule="evenodd" d="M176.76 368.626c-.093.449-.172.893-.251 1.33-.443 2.472-.843 4.7-3.269 5.986-2.197 1.296-4.41 2.571-6.622 3.846-3.584 2.065-7.169 4.131-10.69 6.285-4.953 3.401-10.073-.226-14.899-3.644-2.121-1.502-4.185-2.963-6.153-3.771-11.957-7.28-23.905-14.566-35.854-21.851-9.636-5.918-19.303-11.789-28.97-17.661l-.002-.001-.003-.002-.005-.003c-11.663-7.084-23.326-14.169-34.938-21.336-6.02-3.792-9.232-9.348-9.205-16.589-.142-4.842 7.244-8.524 13.703-11.744 3.11-1.55 6.005-2.993 7.741-4.407 4.062-2.314 7.79.228 11.364 2.666 1.394.951 2.764 1.885 4.122 2.511 8.59 5.2 17.155 10.447 25.72 15.693l.002.002c13.972 8.559 27.944 17.118 42.028 25.478l.101-.071.023-.016.207-.149c-4.025-8.63-7.357-17.72-7.339-27.39-.225-19.636-.432-39.271-.638-58.907-.472-44.752-.944-89.503-1.627-134.254-.942-15.684 8.846-21.293 19.939-27.65 2.056-1.178 4.156-2.381 6.241-3.68 3.723-1.764 7.41-4.334 11.148-6.94 7.831-5.458 15.887-11.072 24.969-9.769 8.819 2.211 16.746 6.8 24.658 11.38 4.267 2.47 8.529 4.936 12.925 7.027 25.567 13.84 51.148 27.653 76.729 41.466l.004.002.012.007q15.318 8.27 30.633 16.543c17.313 9.384 34.644 18.733 51.974 28.082 4.46 2.677 9.169 5.073 13.89 7.474 12.011 6.11 24.095 12.258 32.309 23.162 15.566 17.691 15.279 40.533 14.998 62.889-.082 6.544-.163 13.046.153 19.365.417 2.359-2.218 3.659-4.892 4.979-2.592 1.28-5.221 2.577-5.145 4.875.309 22.145.603 44.287.84 66.432.018 1.586.621 2.502 1.912 3.279 2.309 1.594 4.875 3.042 7.465 4.505 8.157 4.604 16.568 9.352 18.053 19.271 1.464 6.525-4.14 9.375-9.399 12.05l-.001.001c-1.833.932-3.624 1.843-5.059 2.881-2.912 1.474-2.538 6.913-2.199 11.847.176 2.556.342 4.977.038 6.64-.014 1.488.509 2.413 1.768 3.167 4.326 2.596 8.629 5.226 12.932 7.856l14.277 8.719c8.75 5.345 17.5 10.691 26.262 16.01 5.972 3.113 10.769 8.866 11.327 15.763.188 2.979-.187 6.44-3.26 7.847a497 497 0 0 1-6.373 3.691c-3.728 2.135-7.456 4.27-11.083 6.569-4.125 2.863-8.176.135-11.997-2.439-1.413-.951-2.794-1.882-4.137-2.501l-13.211-8.045-.101-.061c-10.109-6.155-20.219-12.31-30.314-18.484-2.411-1.209-10.588 4.247-17.437 8.816-3.628 2.421-6.884 4.593-8.711 5.393-12.774 9.911-22.199 10.979-36.206 2.287-24.199-13.017-48.36-26.111-72.521-39.205l-.01-.006-.011-.005-.01-.006-.002-.001c-39.254-21.274-78.508-42.548-117.923-63.488zm-34.201-204.39c.371 47.706 1.007 95.391 1.643 143.091l.09 6.721c.163 15.6 13.772 22.08 26.768 28.269 4.794 2.283 9.506 4.527 13.428 7.174 32.095 17.371 64.206 34.711 96.316 52.051l.022.011.022.012.043.023.11.06.268.144.037.021c19.872 10.731 39.745 21.462 59.613 32.201q4.476 2.424 8.95 4.852l.003.002.004.002.003.002a7143 7143 0 0 0 17.018 9.212c5.78 3.738 14.696 7.044 15.196-3.234-.263-1.515-.154-4.042-.035-6.8v-.001c.232-5.352.501-11.573-1.837-12.955-1.616-1.058-3.33-2.043-5.052-3.033-6.041-3.472-12.187-7.004-14.592-13.927-1.778-4.27-2.278-10.354 2.407-12.998 1.16-.92 3.683-2.225 6.5-3.683 5.475-2.832 12.061-6.239 11.908-8.507-.281-1.355-.161-2.935-.04-4.529.216-2.846.435-5.736-1.618-7.459-8.248-5.413-16.852-10.409-25.461-15.408-14.025-8.143-28.06-16.293-40.587-26.262-9.797-14.221-1.735-18.386 8.098-23.465 2.931-1.514 6.02-3.109 8.839-5.077 5.113-2.768 9.794.569 14.329 3.801 2.058 1.467 4.086 2.913 6.111 3.757 3.888 2.268 7.707 4.655 11.524 7.041h.001v.001h.001c5.899 3.687 11.794 7.371 17.936 10.615.218-6.421.095-12.803-.028-19.194v-.001c-.068-3.564-.137-7.131-.146-10.71-.01-.624-.003-1.137.003-1.566.014-.975.022-1.51-.199-1.923-.268-.501-.875-.821-2.217-1.531l-.419-.221-.465-.248a4579 4579 0 0 1-16.584-8.963q-5.6-3.04-11.207-6.068c-28.337-15.174-56.604-30.493-84.871-45.812l-.001-.001-.008-.004-.011-.006c-40.537-21.97-81.074-43.939-121.813-65.477m241.038 270.355c.345 10.129.775 22.752-12.063 17.62-17.495-9.311-34.922-18.747-52.349-28.182l-.014-.008c-13.408-7.259-26.816-14.518-40.254-21.721a35110 35110 0 0 0-78.501-42.411c-5.092-3.622-12.165-6.973-19.62-10.504-18.283-8.662-38.863-18.412-38.152-35.927-.412-29.685-.716-59.372-1.021-89.06v-.017c-.204-19.931-.409-39.861-.645-59.792l-.004-.116-.003-.088v-.003c-.044-1.235-.118-3.319 1.659-2.196a58265 58265 0 0 1 76.92 41.594l.012.006c53.421 28.922 106.844 57.844 160.44 86.414-.002-.554.037-1.548.087-2.799.212-5.317.609-15.279-1.257-15.858-6.594-3.54-13.177-7.102-19.761-10.664l-.008-.004-.023-.013c-4.796-2.594-9.592-5.189-14.391-7.775-24.739-13.329-49.461-26.69-74.184-40.051l-.055-.03-.038-.021-9.795-5.293a38191 38191 0 0 0-38.839-20.958l-.007-.003c-16.282-8.778-32.564-17.556-48.83-26.363l-6.345-3.43-.027-.015-.005-.002-.001-.001a5941 5941 0 0 0-24.219-13.048c-1.134-.607-1.63-1.322-1.639-2.599-.024-2.847-.068-5.693-.111-8.539v-.003c-.06-3.913-.12-7.827-.13-11.741-.492-7.357 6.11-12.159 12.694-8.009 50.098 26.98 100.158 54.037 150.218 81.094q30.923 16.715 61.85 33.422c9.541 4.378 16.353 13.146 16.228 23.968.08 13.7.183 27.403.558 41.098.121 10.917.224 21.833.277 32.75.009 1.398.447 2.291 1.662 3.019 2.213 1.211 4.339 2.566 6.463 3.92h.001l.001.001.001.001c3.156 2.011 6.306 4.019 9.725 5.543-.205-25.393-.513-50.728-.853-76.116-.437-22.606-14.539-44.167-34.59-54.489-10.229-5.339-20.361-10.872-30.494-16.405-7.653-4.179-15.307-8.358-23.003-12.454a82561 82561 0 0 1-39.313-21.232l-.029-.016a67935 67935 0 0 0-46.69-25.21q-9.642-5.213-19.28-10.431a21485 21485 0 0 0-34.678-18.745c-3.331-1.515-6.566-3.412-9.81-5.315-6.974-4.09-13.991-8.206-22.1-8.599-11.765-.389-17.46 11.765-16.669 22.195.432 30.938.777 61.876 1.123 92.816q.166 15 .337 29.999c.472 10.259.368 20.586.264 30.916-.174 17.154-.347 34.317 2.117 51.195 1.215 4.578 2.944 8.942 5.007 13.19 1.121 2.309 2.528 4.239 4.873 5.637 5.664 3.369 11.283 6.81 16.903 10.252l.005.003.005.003.005.004c4.463 2.733 8.926 5.466 13.411 8.163 4.762 2.863 7.884 6.892 9.42 12.176 5.534 5.202 12.828 8.746 20.107 12.284 4.665 2.267 9.324 4.531 13.509 7.227a100363 100363 0 0 1 106.17 57.345l23.641 12.781c4.289 1.631 9.472 4.785 15.026 8.164 16.016 9.744 35.111 21.362 44.715 3.744 2.646-6.146 2.408-12.747 2.17-19.321-.095-2.651-.191-5.297-.097-7.907.096-2.316-6.424-5.919-11.731-8.852h-.001c-2.564-1.417-4.846-2.678-5.961-3.561l-.004.004c-.193 1.984-.105 4.573-.01 7.349m-245.992-347.7c5.789.594 11.073 1.653 16.112 4.641 19.99 10.86 40.013 21.657 60.036 32.454l.002.001.002.001.007.004a28568 28568 0 0 1 46.541 25.133c14.951 8.046 29.882 16.131 44.813 24.215l.003.002.004.002.01.005c11.645 6.305 23.29 12.61 34.944 18.897 4.421 2.646 9.052 5.006 13.688 7.367 9.662 4.922 19.34 9.852 27.151 17.401 10.197 10.537 17.934 24.111 19.515 38.833.726 16.053.812 32.13.898 48.205.048 9.049.096 18.096.259 27.139.188.975.103 2.09.017 3.213-.162 2.133-.327 4.292 1.376 5.56 1.849 1.013 3.633 2.159 5.415 3.303 2.82 1.812 5.636 3.621 8.705 4.902-.003-9.952-.12-19.894-.236-29.837v-.022l-.001-.012c-.081-6.978-.163-13.958-.206-20.942-.113-1.832 1.337-2.618 2.762-3.39.535-.289 1.065-.576 1.508-.916 1.267-1.094 4.019-2.61 7.082-4.298 6.014-3.313 13.224-7.284 12.724-10.013-.49-6.861-.345-13.848-.199-20.845.286-13.738.573-27.516-3.946-40.46-8.06-24.003-28.002-34.341-48.603-45.02a836 836 0 0 1-6.739-3.519c-15.232-8.267-30.484-16.496-45.736-24.726l-.001-.001-.002-.001-.001-.001a21248 21248 0 0 1-46.314-25.039 26037 26037 0 0 1-59.853-32.339c-5.646-2.664-11.113-5.838-16.584-9.015-9.618-5.586-19.251-11.18-29.896-14.024-4.154-.58-8 .134-11.587 2.35a2803 2803 0 0 1-14.966 9.226h-.001l-.004.002-.002.002c-6.207 3.808-12.409 7.613-18.692 11.553l-.005.01m242.272 183.263c.023-1.463.068-2.967.114-4.498.396-13.215.851-28.379-12.531-35.184-21.211-11.407-42.392-22.868-63.572-34.329l-.004-.002-.004-.002-.017-.01c-17.228-9.322-34.454-18.644-51.697-27.936a44699 44699 0 0 1-46.232-24.972 52280 52280 0 0 0-39.626-21.41c-1.449-.642-3.27-1.713-5.259-2.884-7.781-4.578-18.146-10.676-19.004 1.384.257 1.492.154 4.458.039 7.765-.219 6.306-.481 13.856 1.623 14.814 32.646 17.52 65.235 35.161 97.823 52.802l.003.001c46.062 24.935 92.124 49.869 138.344 74.461m69.561 124.56c2.105-1.267 4.211-2.534 6.379-3.669 2.675-1.483 3.56-3.774 3.211-6.539-.589-9.507-8.665-14.18-16.114-18.491a270 270 0 0 1-2.195-1.278 41685 41685 0 0 0-30.619-18.68c-9.451-5.714-18.871-11.481-28.292-17.248l-.001-.001h-.001c-14.829-9.079-29.659-18.157-44.611-27.029-1.791-.987-3.591-1.023-5.458.098-2.062 1.31-4.179 2.5-6.294 3.69-2.892 1.626-5.78 3.25-8.517 5.172 15.053 8.868 29.925 17.999 44.801 27.132 9.012 5.533 18.025 11.067 27.081 16.543q9.507 5.794 19.021 11.581c7.997 4.865 15.995 9.73 23.984 14.607 6.727 3.926 9.353 11.06 9.661 18.582v-.005c2.73-1.317 5.345-2.89 7.961-4.464m-282.432-16.548c2.008-1.248 4.015-2.495 6.055-3.55.938-.554 1.594-1.434 1.76-2.515 1.71-8.589-4.784-16.017-12.074-19.51a8155 8155 0 0 0-22.463-13.702q-5.029-3.06-10.054-6.121c-9.423-5.713-18.824-11.466-28.224-17.218l-.009-.006-.002-.001-.001-.001c-16.16-9.888-32.318-19.777-48.595-29.464-3.264-2.108-9.371 1.941-14.493 5.338-2.238 1.484-4.288 2.843-5.83 3.51 26.603 16.085 52.992 32.2 79.502 48.401 3.775 2.302 7.559 4.593 11.342 6.883 8.027 4.861 16.054 9.721 24.011 14.691 6.736 4.078 9.671 10.555 9.456 18.416 3.296-1.223 6.459-3.188 9.618-5.151M493.809 482.1l.003-.002c5.43-2.735 15.34-7.727 14.991-10.774.688-7.29-3.524-13.659-9.737-17.255-13.362-8.016-26.658-16.147-39.954-24.277l-.014-.008c-8.051-4.923-16.103-9.847-24.169-14.745-5.682-3.455-11.358-6.92-17.034-10.385l-.005-.003-.004-.003-.005-.003c-9.969-6.085-19.938-12.171-29.937-18.206-2.037-1.219-4.136-1.545-6.329-.25-1.911 1.206-3.887 2.312-5.862 3.417-2.994 1.676-5.986 3.351-8.744 5.369a71903 71903 0 0 1 91.665 55.82c3.174 2.336 6.969 4.396 10.83 6.491 11.059 6.002 22.647 12.291 21.66 26.174.609-.335 1.532-.8 2.642-1.359h.001zM27.033 302.609c1.058 11.02 10.947 16.325 20.445 21.421 3.86 2.07 7.656 4.107 10.768 6.478q10.397 6.339 20.793 12.686l.094.057 15.114 9.224q6.539 3.986 13.073 7.979l.042.026c13.546 8.274 27.093 16.547 40.695 24.726 4.637 3.064 8.715-.647 7.638-5.766-.857-5.851-3.801-10.39-8.879-13.485-22.557-13.695-45.078-27.452-67.594-41.218-5.872-3.514-11.7-7.106-17.53-10.698h-.001v-.001c-9.365-5.77-18.73-11.541-28.27-16.986-3.708-1.657-6.794 1.488-6.392 5.552zm333.807 99.593c.46 5.744 2.948 10.501 7.705 13.914 11.277 7.004 22.632 13.912 33.987 20.819l.006.004a6090 6090 0 0 1 23.855 14.562c7.34 4.399 14.632 8.887 21.924 13.376 11.596 7.137 23.191 14.274 34.977 21.053 3.261 1.487 5.968-.751 6.191-3.426.581-6.544-2.729-12.538-8.156-16.085-11.319-7.014-22.713-13.913-34.106-20.813l-.004-.002c-8.479-5.134-16.957-10.268-25.404-15.45-7.173-4.37-14.341-8.748-21.509-13.125l-.003-.002-.004-.002-.004-.003c-10.116-6.178-20.232-12.356-30.36-18.514-4.016-2.975-9.34-2.314-9.095 3.694m78.828-5.565c-.341-10.671-9.274-15.644-17.828-20.404-2.749-1.531-5.46-3.039-7.833-4.708q-8.096-4.932-16.194-9.857-8.892-5.408-17.779-10.824-10.159-6.198-20.314-12.404l-.005-.003-.006-.004-.006-.003-.007-.004-.007-.005-.008-.004c-12.247-7.482-24.495-14.965-36.758-22.422-3.623-2.479-10.693-6.767-11.913.362-.446 6.383 2.801 12.498 8.192 15.91 11.174 6.902 22.4 13.719 33.628 20.537l.002.002.003.002.003.001.001.001h.001l.001.001a8191 8191 0 0 1 21.404 13.028c7.326 4.454 14.646 8.919 21.966 13.384l.018.011.018.011.019.011.007.005.008.005c11.851 7.228 23.702 14.457 35.579 21.641 3.565 2.568 8.268.321 7.813-4.27zm-15.88-103.286c2.202-1.431 4.394-2.856 6.844-3.868l.023 1.37c.368 22.043.732 43.908.745 65.945-2.357-.748-4.426-2.114-6.502-3.486-1.381-.912-2.766-1.826-4.24-2.562-1.233-.719-1.626-1.621-1.639-3.01-.113-12.564-.268-25.127-.424-37.69l-.072-5.806c.154-.915.042-1.968-.07-3.032-.211-1.998-.425-4.033 1.102-5.254 1.459-.804 2.848-1.706 4.233-2.607m-21.468 94.341c-.251 2.689-.51 5.469 1.932 6.903 5.22 3.083 10.37 6.259 15.517 9.433l.002.001c7.448 4.592 14.891 9.182 22.537 13.485-.062-1.951-.04-3.824-.018-5.667.043-3.572.085-7.026-.496-10.695l-.215.116-.236.127c-3.378 1.823-6.432 3.471-10.059.99-6.011-3.344-11.702-6.905-17.434-10.491h-.001v-.001c-3.745-2.342-7.507-4.696-11.388-7.008.039.878-.05 1.836-.141 2.806zm-2.32 81.59c1.679-.388 25.049-14.793 26.143-16.151-2.802-1.685-5.507-3.359-8.195-5.022l-.011-.007-.015-.01h-.001l-.004-.002c-4.834-2.992-9.618-5.952-14.826-8.891-.235 3.127-.178 6.272-.121 9.407.128 7.072.255 14.084-2.97 20.676m.482-77.094c.008-.676.086-1.447.167-2.255.271-2.687.583-5.781-1.485-7.148-2.138-1.201-4.223-2.517-6.308-3.833h-.001c-3.138-1.98-6.275-3.96-9.592-5.551-.585 1.706-.514 8.612.121 10.318 4.262.208 7.696 2.536 11.187 4.902 1.905 1.292 3.828 2.595 5.911 3.571zM190.633 271.761c-3.176-5.173-6.353-10.346-9.496-15.543-1.041-2.065-2.411-4.084-3.791-6.119-3.45-5.086-6.966-10.27-5.598-16.523 2.148-4.242 8.494-7.595 14.419-10.725 3.278-1.732 6.427-3.396 8.665-5.105 2.372-1.585 4.962-2.278 7.468-.768l.223.123.313.171.011.006v.001c1.857 1.014 3.844 2.101 4.929 3.978 9.069 14.892 18.161 29.77 27.254 44.647l.005.01.014.022.024.04c6.621 10.834 13.242 21.667 19.853 32.505.854 1.425.818 1.658-.553 2.52-14.651 9.389-29.646 18.21-44.783 26.782-7.397 4.283-14.789 8.571-22.141 12.931-1.202.714-2.211.728-3.493.304-6.544-2.162-10.546-8.434-12.177-14.834l-.046-.494c-.257-2.679-.587-6.125 2.074-7.537 4.427-2.859 8.917-5.615 13.406-8.37v-.001h.001c6.431-3.947 12.859-7.893 19.093-12.136-5.12-8.697-10.396-17.289-15.673-25.884zm16.047-1.694c-6.85-11.099-13.701-22.198-20.353-33.404-5.793-9.974-17.187-6.477-12.162 5.19 7.718 12.731 15.491 25.428 23.264 38.125q5.121 8.362 10.236 16.73c.813 1.331.777 1.581-.626 2.461a13055 13055 0 0 1-32.137 20.091c-5.463 5.535 2.635 18.43 9.313 20.181 2.852.266 5.524-1.564 8.151-3.364 1.519-1.04 3.023-2.071 4.538-2.68a1599 1599 0 0 1 8.675-5.108c8.925-5.232 17.784-10.424 26.483-16.247v-.004c-8.197-14.129-16.789-28.049-25.382-41.971m-27.191-41.087c7.264 3.597 12.288 12.795 17.065 21.543 2.489 4.559 4.912 8.996 7.551 12.453l10.129 16.581.214.35.029.047q9.145 14.978 18.304 29.953c.741 1.193.982 1.202 2.184.465 3.068-1.854 6.147-3.688 9.226-5.523h.001c2.686-1.6 5.372-3.2 8.05-4.813 1.193-.719 1.206-.813.59-2.037-2.483-4.156-5.014-8.285-7.545-12.414l-.001-.002-.002-.002-.001-.003c-1.675-2.733-3.351-5.465-5.012-8.206-5.073-7.357-9.567-15.265-14.063-23.179-7.085-12.466-14.176-24.945-23.55-35.303-2.27-1.251-4.32-1.541-6.607-.125-2.27 1.457-4.574 2.812-6.874 4.165-3.272 1.924-6.538 3.845-9.693 6.05zm46.382 110.93c-3.176 1.702-4.708 4.051-4.583 7.607h.005c.232 8.451 6.173 14.565 13.324 18.237 4.403 2.659 8.785 5.358 13.166 8.057l.003.002.001.001h.001c8.116 4.999 16.232 9.999 24.492 14.747 3.612 2.472 10.914-2.283 17.134-6.334 2.919-1.9 5.599-3.646 7.549-4.417 3.082-1.608 4.118-5.477 3.479-8.702-1.152-6.079-4.154-10.961-9.505-14.23-5.962-3.641-11.929-7.274-17.896-10.907-7.307-4.449-14.614-8.898-21.911-13.361-4.967-3.504-11.309.74-17.209 4.688-2.855 1.91-5.607 3.751-8.05 4.612m62.39 41.112c-2.304 1.392-4.608 2.784-7.034 3.97l-.005.004c.089-8.241-2.698-14.69-9.867-18.938-4.235-2.576-8.445-5.172-12.652-7.765l-.006-.003-.001-.001-.001-.001c-9.942-6.129-19.862-12.245-30.046-18.057 3.374-1.921 6.013-3.577 8.177-4.934l.001-.001c4.181-2.623 6.584-4.131 9.073-4.286 3.365-.211 6.885 2.052 15.165 7.375l1.58 1.016c3.37 2.639 7.867 5.066 12.546 7.592 10.922 5.896 22.839 12.329 23.737 23.246.299 3.171-.844 5.377-3.828 6.909-2.353 1.164-4.596 2.519-6.839 3.874m-26.383-19.038c8.361 4.665 17.111 9.547 17.799 19.823l-.005.005c.407 4.962-3.792 7.754-8.098 4.676q-20-12.139-39.981-24.325c-4.717-2.881-7.442-7.205-8.54-12.52-1.336-5.231 2.304-10.086 7.575-6.589a6554 6554 0 0 1 19.854 12.059l1.101.67 2.701 1.645c2.31 1.608 4.932 3.071 7.594 4.556m52.406-193.974c-14.089-7.5-28.121-15.118-42.153-22.736-14.755-8.01-29.511-16.02-44.335-23.896-2.74-1.479.825-3.328 3.732-4.836 1.306-.678 2.479-1.286 2.888-1.761q1.835-1.129 3.673-2.255a900 900 0 0 0 10.218-6.33c1.036-.657 1.836-.634 2.89-.058 7.93 4.321 15.878 8.613 23.825 12.904l8.491 4.587a53298 53298 0 0 0 49.303 26.635c.362.326 1.069.635 1.819.964 1.679.734 3.57 1.562 2.264 2.869-6.025 3.846-12.151 7.561-18.271 11.272l-.002.001q-2.173 1.316-4.342 2.636zm-30.365-32.13c-10.832-5.845-21.666-11.691-32.475-17.597-2.201-1.173-6.49 1.913-9.86 4.339-1.288.928-2.443 1.758-3.295 2.218 11.466 6.493 23.083 12.713 34.701 18.934h.002v.001c7.06 3.78 14.121 7.56 21.148 11.402l1.956 1.055.002.001c5.61 3.025 11.222 6.05 16.811 9.111 1.971.849 5.401-1.568 8.528-3.772 1.693-1.193 3.297-2.323 4.533-2.839h.004c-13.979-7.705-28.016-15.278-42.054-22.853m-54.586-15.744c1.036.365 2.005 1.016 2.953 1.652 1.894 1.272 3.701 2.485 5.779 1.234 1.169-.483 2.708-1.574 4.356-2.742 3.136-2.223 6.663-4.723 8.771-3.833l20.483 11.072.055.03c14.458 7.814 28.918 15.629 43.367 23.452q1.46.79 2.921 1.573c2.573 1.382 5.144 2.763 7.687 4.198 2.419 1.354 4.632-.37 6.684-1.968.65-.505 1.283-.998 1.901-1.377-15.443-8.769-31.126-17.154-46.812-25.54h-.001c-12.12-6.48-24.241-12.96-36.253-19.618-1.974-1.188-8.866 3.453-14.633 7.337-3.017 2.031-5.726 3.856-7.263 4.53zm91.945 99.328c4.529 2.495 8.997 4.901 13.449 7.297 5.849 3.149 11.67 6.283 17.564 9.585 4.864 2.68 6.994 7.687 6.735 13.176 2.624-.949 4.634-2.135 6.762-3.391 1.276-.753 2.595-1.532 4.115-2.299-1.533 3.216-4.715 4.733-7.901 6.251-1.726.823-3.453 1.646-4.919 2.74-3.971 1.765-8.97-1.38-13.571-4.275-2.27-1.429-4.444-2.797-6.35-3.483-2.17-1.447-4.736-2.683-7.343-3.94-7.184-3.464-14.689-7.081-15.138-15.665-.219-2.845.88-5.069 3.721-6.423 1.632-.476 3.239-1.544 4.85-2.614 2.57-1.707 5.152-3.422 7.867-2.763-1.526 1.036-3.097 1.886-4.682 2.743-1.718.929-3.452 1.867-5.159 3.061m29.914 17.985c4.046 2.215 5.851 5.855 6.378 9.875-.134 7.491-6.456 3.795-10.871 1.214-.828-.484-1.589-.929-2.229-1.253q-3.05-1.652-6.103-3.296c-5.373-2.896-10.746-5.792-16.066-8.782-5.534-1.68-9.969-16.665-.839-13.829 9.943 5.293 19.841 10.675 29.73 16.071" clip-rule="evenodd"/>
</svg>
