<svg xmlns="http://www.w3.org/2000/svg" width="20" height="20" fill="none" viewBox="0 0 20 20">
    <path fill="#521094" fill-rule="evenodd" d="M6.707 18.707a1 1 0 0 1-1.414 0l-2-2a1 1 0 0 1 0-1.414l2-2a1 1 0 0 1 1.414 1.414L6.414 15H16a1 1 0 1 1 0 2H6.414l.293.293a1 1 0 0 1 0 1.414m6.586-17.414a1 1 0 0 1 1.414 0l2 2a1 1 0 0 1 0 1.414l-2 2a1 1 0 1 1-1.414-1.414L13.586 5H4a1 1 0 1 1 0-2h9.586l-.293-.293a1 1 0 0 1 0-1.414" clip-rule="evenodd"/>
    <path fill="#A060F6" fill-rule="evenodd" d="M4 7.25a.75.75 0 0 1 .75.75v4a.75.75 0 0 1-1.5 0V8A.75.75 0 0 1 4 7.25m3 0a.75.75 0 0 1 .75.75v4a.75.75 0 0 1-1.5 0V8A.75.75 0 0 1 7 7.25m4 0a.75.75 0 0 1 .75.75v4a.75.75 0 0 1-1.5 0V8a.75.75 0 0 1 .75-.75m5 0a.75.75 0 0 1 .75.75v4a.75.75 0 0 1-1.5 0V8a.75.75 0 0 1 .75-.75" clip-rule="evenodd"/>
</svg>
