<svg>
  <g className="Baremetal">
    <path
      fill="#A365F6"
      fillRule="evenodd"
      className="fillStrong"
      clipRule="evenodd"
      d="M11.167 11.167H8.834v3.5H5.167a1 1 0 0 0-1 1V16a1 1 0 0 0 1 1h9.666a1 1 0 0 0 1-1v-.333a1 1 0 0 0-1-1h-3.666v-3.5Z"
    />
    <g>
      <path
        fill="#4F0599"
        fillRule="evenodd"
        className="fill"
        clipRule="evenodd"
        d="M13 5H7a2 2 0 0 0-2 2v1.333a2 2 0 0 0 2 2h6a2 2 0 0 0 2-2V7a2 2 0 0 0-2-2ZM7 3a4 4 0 0 0-4 4v1.333a4 4 0 0 0 4 4h6a4 4 0 0 0 4-4V7a4 4 0 0 0-4-4H7Z"
      />
      <path
        className="fill"
        fill="#4F0599"
        d="M8.833 7.5a1 1 0 0 1 1-1H12.5a1 1 0 0 1 1 1v.333a1 1 0 0 1-1 1H9.833a1 1 0 0 1-1-1V7.5Z"
      />
    </g>
  </g>
</svg>
