<svg>
  <g className="Billing">
    <g className="Icon">
      <path
        fill="#A365F6"
        fillRule="evenodd"
        d="M6.25 7A.75.75 0 0 1 7 6.25h5a.75.75 0 0 1 0 1.5H7A.75.75 0 0 1 6.25 7Zm0 3A.75.75 0 0 1 7 9.25h6a.75.75 0 0 1 0 1.5H7a.75.75 0 0 1-.75-.75ZM7 12.25a.75.75 0 0 0 0 1.5h2.5a.75.75 0 0 0 0-1.5H7Z"
        className="fillStrong"
        clipRule="evenodd"
      />
      <path
        fill="#4F0599"
        fillRule="evenodd"
        d="M5 2a2 2 0 0 0-2 2v12a2 2 0 0 0 2 2h10a2 2 0 0 0 2-2V5.732L12.812 2H5Zm0 2h7.05L15 6.629V16H5V4Zm7.5 10.25a1.25 1.25 0 1 0 0-2.5 1.25 1.25 0 0 0 0 2.5Z"
        className="fill"
        clipRule="evenodd"
      />
    </g>
  </g>
</svg>
