<svg xmlns="http://www.w3.org/2000/svg" width="20" height="20" fill="none" viewBox="0 0 20 20">
    <path fill="#a060f6" d="M10 8a1.5 1.5 0 1 1 0 3 1.5 1.5 0 0 1 0-3m1-6.5c1.279 0 2.15.49 2.615 1.291.402.693.385 1.454.385 1.709v1h-2v-1c0-.297-.017-.536-.115-.705a.42.42 0 0 0-.186-.171c-.108-.055-.318-.124-.7-.124H9c-.38 0-.59.069-.698.124-.1.05-.15.11-.186.17-.098.17-.115.41-.115.706v1H6v-1c0-.255-.017-1.016.385-1.709C6.849 1.99 7.72 1.5 9 1.5z" className="fillStrong"/>
    <path fill="#521094" d="M16 8.167c0-.418-.281-.708-.581-.754A35.4 35.4 0 0 0 10 7a36 36 0 0 0-5.419.413c-.3.046-.581.336-.581.754v2.018c0 .167.028.37.082.544.06.193.119.248.106.238l.09.064a.5.5 0 0 0 .098.045 17.2 17.2 0 0 0 5.57.924 17.2 17.2 0 0 0 5.569-.924.6.6 0 0 0 .187-.11 1 1 0 0 0 .19-.318c.076-.186.108-.36.108-.463zm-.613 5.048c-1.73.51-3.555.785-5.442.785a19.2 19.2 0 0 1-5.391-.77l.029 1.671v.017c0 .424.289.713.592.755a35.6 35.6 0 0 0 9.65 0c.265-.036.519-.263.578-.603l.014-.152zM18 10.185c0 .416-.104.848-.256 1.22-.091.223-.216.46-.376.68l.049 2.816v.017c0 1.329-.936 2.547-2.32 2.736a37.6 37.6 0 0 1-10.194 0c-1.379-.188-2.312-1.398-2.319-2.72h-.001l-.047-2.845a2.9 2.9 0 0 1-.364-.767A4 4 0 0 1 2 10.185V8.167c0-1.313.913-2.52 2.276-2.73A37.4 37.4 0 0 1 10 5a38 38 0 0 1 5.724.437C17.087 5.647 18 6.854 18 8.167z" className="fill"/>
</svg>
