<svg>
  <g className="Compute">
    <path
      fill="#A365F6"
      d="M11 16a1 1 0 1 1 2 0v1a1 1 0 1 1-2 0v-1Zm-4 0a1 1 0 1 1 2 0v1a1 1 0 1 1-2 0v-1Zm8-4a1 1 0 0 1 1-1h1a1 1 0 1 1 0 2h-1a1 1 0 0 1-1-1ZM2 12a1 1 0 0 1 1-1h1a1 1 0 1 1 0 2H3a1 1 0 0 1-1-1Zm13-4a1 1 0 0 1 1-1h1a1 1 0 1 1 0 2h-1a1 1 0 0 1-1-1ZM2 8a1 1 0 0 1 1-1h1a1 1 0 0 1 0 2H3a1 1 0 0 1-1-1Zm9-5a1 1 0 1 1 2 0v1a1 1 0 1 1-2 0V3ZM7 3a1 1 0 0 1 2 0v1a1 1 0 0 1-2 0V3Z"
      className="fillStrong"
    />
    <path
      fill="#4F0599"
      fillRule="evenodd"
      d="M14 6H6v8h8V6ZM6 4a2 2 0 0 0-2 2v8a2 2 0 0 0 2 2h8a2 2 0 0 0 2-2V6a2 2 0 0 0-2-2H6Z"
      className="fill"
      clipRule="evenodd"
    />
    <path
      fill="#A365F6"
      d="M8 9a1 1 0 0 1 1-1h2a1 1 0 0 1 1 1v2a1 1 0 0 1-1 1H9a1 1 0 0 1-1-1V9Z"
      className="fillStrong"
    />
  </g>
</svg>
