<svg>
  <g className="Console">
    <g className="Console-icon">
      <path
        fill="#4F0599"
        fillRule="evenodd"
        d="M5 4a1 1 0 0 0-1 1v6a1 1 0 0 0 1 1h3a1 1 0 0 0 1-1V5a1 1 0 0 0-1-1H5Zm7 4a1 1 0 0 0-1 1v6a1 1 0 0 0 1 1h3a1 1 0 0 0 1-1V9a1 1 0 0 0-1-1h-3Z"
        className="fill"
        clipRule="evenodd"
      />
      <path
        fill="#A365F6"
        fillRule="evenodd"
        d="M12 4a1 1 0 0 0-1 1v1a1 1 0 0 0 1 1h3a1 1 0 0 0 1-1V5a1 1 0 0 0-1-1h-3Zm-7 9a1 1 0 0 0-1 1v1a1 1 0 0 0 1 1h3a1 1 0 0 0 1-1v-1a1 1 0 0 0-1-1H5Z"
        className="fillStrong"
        clipRule="evenodd"
      />
    </g>
  </g>
</svg>
