<svg>
  <g className="Dedicated-Server">
    <path
      fill="#A365F6"
      fillRule="evenodd"
      d="M10.25 14a.75.75 0 0 1 .75-.75h2.5a.75.75 0 0 1 0 1.5H11a.75.75 0 0 1-.75-.75Zm0-7.7a.75.75 0 0 1 .75-.75h2.5a.75.75 0 0 1 0 1.5H11a.75.75 0 0 1-.75-.75Z"
      className="fillStrong"
      clipRule="evenodd"
    />
    <path
      fill="#4F0599"
      fillRule="evenodd"
      d="M3 13.5a3 3 0 0 1 3-3h8a3 3 0 0 1 3 3v1a3 3 0 0 1-3 3H6a3 3 0 0 1-3-3v-1Zm3-1a1 1 0 0 0-1 1v1a1 1 0 0 0 1 1h8a1 1 0 0 0 1-1v-1a1 1 0 0 0-1-1H6ZM3 5.8a3 3 0 0 1 3-3h8a3 3 0 0 1 3 3v1a3 3 0 0 1-3 3H6a3 3 0 0 1-3-3v-1Zm3-1a1 1 0 0 0-1 1v1a1 1 0 0 0 1 1h8a1 1 0 0 0 1-1v-1a1 1 0 0 0-1-1H6Z"
      className="fill"
      clipRule="evenodd"
    />
  </g>
</svg>
