<svg>
  <g className="Documentation">
    <g className="Icon">
      <path
        fill="#A365F6"
        fillRule="evenodd"
        d="M10 7.5a1 1 0 1 0 0-2 1 1 0 0 0 0 2Zm-1 1a1 1 0 0 0 0 2v3a1 1 0 1 0 2 0v-5H9Z"
        className="fillStrong"
        clipRule="evenodd"
      />
      <path
        fill="#4F0599"
        fillRule="evenodd"
        d="M10 4.5a5.5 5.5 0 0 0-4.582 8.544 1 1 0 0 1 .146.764L5.29 15.08l1.27-.363a1 1 0 0 1 .763.088A5.5 5.5 0 1 0 10 4.5ZM2.5 10a7.5 7.5 0 1 1 4.228 6.75l-2.489.712a1 1 0 0 1-1.253-1.171l.538-2.507A7.47 7.47 0 0 1 2.5 10Z"
        className="fill"
        clipRule="evenodd"
      />
    </g>
  </g>
</svg>
