<svg>
    <g className="Application-Integration">
        <g className="Icon">
            <path fill="#521094" d="M6.707 18.707a1 1 0 0 1-1.414 0l-2-2a1 1 0 0 1 0-1.414l2-2a1 1 0 0 1 1.414 1.414L6.414 15H16a1 1 0 1 1 0 2H6.414l.293.293a1 1 0 0 1 0 1.414m6.586-17.414a1 1 0 0 1 1.414 0l2 2a1 1 0 0 1 0 1.414l-2 2a1 1 0 1 1-1.414-1.414L13.586 5H4a1 1 0 1 1 0-2h9.586l-.293-.293a1 1 0 0 1 0-1.414" className="fillStrong" clipRule="evenodd" fillRule="evenodd"/>
            <path fill="#A060F6" d="M4 7.25a.75.75 0 0 1 .75.75v4a.75.75 0 0 1-1.5 0V8A.75.75 0 0 1 4 7.25m3 0a.75.75 0 0 1 .75.75v4a.75.75 0 0 1-1.5 0V8A.75.75 0 0 1 7 7.25m4 0a.75.75 0 0 1 .75.75v4a.75.75 0 0 1-1.5 0V8a.75.75 0 0 1 .75-.75m5 0a.75.75 0 0 1 .75.75v4a.75.75 0 0 1-1.5 0V8a.75.75 0 0 1 .75-.75" className="fill" clipRule="evenodd" fillRule="evenodd"/>
        </g>
    </g>
</svg>
