<svg xmlns="http://www.w3.org/2000/svg" width="20" height="20" fill="none" viewBox="0 0 20 20">
    <path fill="#521094" d="M9.701 6.5a.5.5 0 0 0-1 0v7.685a1 1 0 0 1-1.5.867l-1.2-.694a.5.5 0 1 0-.5.866l2.961 1.71a.5.5 0 0 0 .1.043l.111.02.03.003H12.7a2 2 0 0 0 2-2v-4h-4a1 1 0 0 1-1-1zm2 2.5h3a2 2 0 0 1 2 2v4a4 4 0 0 1-4 4H8.706c-.072 0-.136-.005-.18-.008a1 1 0 0 1-.11-.015 2.5 2.5 0 0 1-.954-.311L4.5 16.956a2.498 2.498 0 0 1 2.201-4.475V6.5a2.5 2.5 0 0 1 5 0z" className="fill"/>
    <path fill="#a060f6" d="M9.25 1a5.5 5.5 0 0 1 5.292 7H12.75V6.5A3.5 3.5 0 0 0 9.25 3h-.049a3.5 3.5 0 0 0-3.5 3.5v4.2A5.5 5.5 0 0 1 9.25 1" className="fillStrong"/>
</svg>
