<svg xmlns="http://www.w3.org/2000/svg" width="20" height="20" fill="none" viewBox="0 0 20 20">
    <path fill="#521094" fill-rule="evenodd" d="M9.628 2.072a1 1 0 0 1 .746 0l6 2.414a1 1 0 0 1 .626.928v.053c0 2.567.001 9.264-6.564 12.434a1 1 0 0 1-.87 0C3 14.73 3 8.036 3 5.469v-.055a1 1 0 0 1 .627-.928zM5.004 6.088c.036 2.713.443 7.33 4.997 9.79 4.55-2.461 4.96-7.077 4.996-9.79L10 4.078z" className="fill" clip-rule="evenodd"/>
    <path fill="#a060f6" fill-rule="evenodd" d="M10.108 7.67c.106-.397.537-.662.992-.54s.695.566.589.963c-.106.396-.537.66-.992.539-.455-.122-.695-.566-.59-.963m1.38-1.989c-1.219-.326-2.499.367-2.829 1.6-.262.977.163 1.96.957 2.487l-.137.513-.462-.123a.75.75 0 1 0-.388 1.449l.461.123-.105.395-.462-.123a.75.75 0 1 0-.388 1.449l1.186.317a.75.75 0 0 0 .918-.53l.826-3.081a2.28 2.28 0 0 0 2.073-1.676c.33-1.233-.432-2.473-1.65-2.8" className="fillStrong" clip-rule="evenodd"/>
</svg>
