<svg>
  <g className="Network">
    <g className="fillStrong">
      <path
        fill="#A365F6"
        fillRule="evenodd"
        d="M9.955 6.883c-4.372 0-7.917 1.375-7.917 3.072 0 1.696 3.545 3.072 7.917 3.072 4.373 0 7.917-1.376 7.917-3.072 0-1.697-3.544-3.072-7.917-3.072Zm0 1.5c3.773 0 5.97 1.058 6.377 1.572-.408.513-2.604 1.572-6.377 1.572-3.773 0-5.968-1.059-6.377-1.572.41-.514 2.604-1.572 6.377-1.572Z"
        className="fillStrong"
        clipRule="evenodd"
      />
      <path
        fill="#A365F6"
        fillRule="evenodd"
        d="M9.955 2.039c-1.696 0-3.072 3.544-3.072 7.917 0 4.372 1.376 7.916 3.072 7.916 1.697 0 3.072-3.544 3.072-7.916 0-4.373-1.375-7.917-3.072-7.917Zm0 1.539c.514.409 1.572 2.604 1.572 6.378 0 3.773-1.058 5.968-1.572 6.376-.514-.408-1.572-2.603-1.572-6.376 0-3.774 1.058-5.97 1.572-6.378Z"
        className="fillStrong"
        clipRule="evenodd"
      />
    </g>
    <g>
      <path
        fill="#4F0599"
        fillRule="evenodd"
        d="M10 2a8 8 0 1 0 .001 16.001A8 8 0 0 0 10 2Zm0 2.011A5.995 5.995 0 0 1 15.989 10 5.996 5.996 0 0 1 10 15.989 5.996 5.996 0 0 1 4.011 10 5.995 5.995 0 0 1 10 4.011Z"
        className="fill"
        clipRule="evenodd"
      />
    </g>
  </g>
</svg>
