<svg xmlns="http://www.w3.org/2000/svg" width="20" height="20" fill="none" viewBox="0 0 20 20">
    <path fill="#a060f6" d="M12.4 9.889c-.888 0-1.6.692-1.6 1.555 0 .86.716 1.556 1.6 1.556s1.6-.696 1.6-1.556c0-.863-.72-1.555-1.6-1.555m-.8-2.333C11.6 6.692 10.88 6 10 6c-.888 0-1.6.692-1.6 1.556 0 .859.716 1.555 1.6 1.555s1.6-.696 1.6-1.555m-4 2.333c-.884 0-1.6.696-1.6 1.555C6 12.304 6.716 13 7.6 13s1.6-.696 1.6-1.556c0-.863-.72-1.555-1.6-1.555" className="fillStrong"/>
    <path fill="#521094" fill-rule="evenodd" d="M10 2a8 8 0 1 0 .001 16.001A8 8 0 0 0 10 2m0 2.011A5.995 5.995 0 0 1 15.989 10 5.996 5.996 0 0 1 10 15.989 5.996 5.996 0 0 1 4.011 10 5.995 5.995 0 0 1 10 4.011" className="fill" clip-rule="evenodd"/>
</svg>
