<svg xmlns="http://www.w3.org/2000/svg" width="20" height="20" fill="none" viewBox="0 0 20 20">
    <path fill="#a060f6" d="M7.6 9.889c.88 0 1.6.692 1.6 1.555 0 .86-.717 1.556-1.6 1.556S6 12.303 6 11.444 6.716 9.89 7.6 9.89m4.8 0c.88 0 1.6.692 1.6 1.555 0 .86-.716 1.556-1.6 1.556-.883 0-1.6-.697-1.6-1.556 0-.863.712-1.555 1.6-1.555m-2.3-3.885a5 5 0 0 0 1.239 2.4A1.61 1.61 0 0 1 10 9.111c-.884 0-1.6-.696-1.6-1.555C8.4 6.692 9.112 6 10 6q.05 0 .1.004" className="fillStrong"/>
    <path fill="#521094" d="M10 2q.486 0 .957.059a5 5 0 0 0-.86 1.955L10 4.012A5.994 5.994 0 0 0 4.012 10 5.995 5.995 0 0 0 10 15.988 5.995 5.995 0 0 0 15.988 10l-.003-.099a5 5 0 0 0 1.954-.858Q18 9.514 18 10a8 8 0 1 1-8-8m5-1a4 4 0 1 1-4 4c0-2.22 1.78-4 4-4m.339 2.05a.67.67 0 0 0-.727.145l-.667.667A.666.666 0 0 0 14.417 5v1.333a.667.667 0 1 0 1.333 0V3.667a.67.67 0 0 0-.411-.616" className="fill"/>
</svg>
