<svg xmlns="http://www.w3.org/2000/svg" width="20" height="20" fill="none" viewBox="0 0 20 20">
    <path fill="#a060f6" d="M12 5.413C12 3.91 11.087 3 10 3s-2 .91-2 2.413V6H6v-.587C6 3.103 7.533 1 10 1s4 2.103 4 4.413V6h-2z" className="fillStrong"/>
    <path fill="#521094" d="M14.4 6C15.952 6 17 7.386 17 8.818v6.364C17 16.614 15.952 18 14.4 18H5.6C4.048 18 3 16.614 3 15.182V8.818C3 7.386 4.048 6 5.6 6zM5.6 8c-.216 0-.6.243-.6.818v6.364c0 .575.384.818.6.818h8.8c.216 0 .6-.243.6-.818V8.818c0-.575-.384-.818-.6-.818zM10 9.5c1.47 0 2.8.805 3.546 2.1a.8.8 0 0 1 0 .8C12.8 13.695 11.47 14.5 10 14.5s-2.802-.805-3.547-2.1a.8.8 0 0 1 0-.8C7.198 10.305 8.53 9.5 10 9.5m0 1.25a1.25 1.25 0 1 0 0 2.5 1.25 1.25 0 0 0 0-2.5" className="fill"/>
</svg>
