<svg xmlns="http://www.w3.org/2000/svg" width="20" height="20" fill="none" viewBox="0 0 20 20">
    <path fill="#a060f6" fill-rule="evenodd" d="M10 10a2 2 0 1 0 0-4 2 2 0 0 0 0 4m-3 2.91A1.91 1.91 0 0 1 8.91 11h2.18A1.91 1.91 0 0 1 13 12.91V16l-3 1-3-1z" className="fillStrong" clip-rule="evenodd"/>
    <path fill="#521094" fill-rule="evenodd" d="M10 2a8 8 0 1 0 .001 16.001A8 8 0 0 0 10 2m0 2.011A5.995 5.995 0 0 1 15.989 10 5.996 5.996 0 0 1 10 15.989 5.996 5.996 0 0 1 4.011 10 5.995 5.995 0 0 1 10 4.011" className="fill" clip-rule="evenodd"/>
</svg>
