<svg>
  <g className="Security-and-Identity">
    <g className="Icon">
      <path
        fill="#A365F6"
        fillRule="evenodd"
        d="M10 10a2 2 0 1 0 0-4 2 2 0 0 0 0 4Zm-3 2.91A1.91 1.91 0 0 1 8.91 11h2.18A1.91 1.91 0 0 1 13 12.91V15l-3 2-3-2v-2.09Z"
        className="fillStrong"
        clipRule="evenodd"
      />
      <path
        fill="#4F0599"
        fillRule="evenodd"
        d="m10 1.917 7 2.904v4.712c0 2.158-.913 4.057-2.183 5.502-1.264 1.439-2.93 2.485-4.553 2.93l-.262.071-.263-.07c-1.626-.44-3.292-1.488-4.556-2.928C3.913 13.591 3 11.691 3 9.533V4.821l7-2.904Zm-5 4.24v3.376c0 1.576.666 3.024 1.686 4.185.952 1.085 2.17 1.868 3.313 2.239 1.145-.374 2.364-1.159 3.316-2.242C14.334 12.555 15 11.109 15 9.533V6.157l-5-2.074-5 2.074Z"
        className="fill"
        clipRule="evenodd"
      />
    </g>
  </g>
</svg>
