<svg>
  <g className="VPC">
    <path
      fill="#A365F6"
      fillRule="evenodd"
      d="M9.087 10.408a.993.993 0 0 1 .51-1.32.997.997 0 0 1 1.317.503 1.008 1.008 0 0 1-.51 1.327 1.086 1.086 0 0 1-.407.082.988.988 0 0 1-.91-.592Z"
      className="fillStrong"
      clipRule="evenodd"
    />
    <path
      fill="#4F0599"
      fillRule="evenodd"
      d="m10 2.345 6.63 3.828v7.654L10 17.655l-6.63-3.828V6.173L10 2.345Zm0 2.31L5.37 7.327v5.346L10 15.345l4.63-2.672V7.327L10 4.655Z"
      className="fill"
      clipRule="evenodd"
    />
    <path
      fill="#A365F6"
      fillRule="evenodd"
      d="M8.63 17.112a1.49 1.49 0 0 1 .765-1.981c.753-.338 1.639 0 1.976.756a1.513 1.513 0 0 1-.764 1.99 1.63 1.63 0 0 1-.612.123c-.57 0-1.121-.326-1.365-.888Z"
      className="fillStrong"
      clipRule="evenodd"
    />
    <path
      fill="#A365F6"
      fillRule="evenodd"
      d="M10 17.5a.5.5 0 0 1-.5-.5v-4a.5.5 0 0 1 1 0v4a.5.5 0 0 1-.5.5Zm4.13-3.388a1.49 1.49 0 0 1 .765-1.981c.753-.338 1.639 0 1.976.756a1.513 1.513 0 0 1-.764 1.99 1.63 1.63 0 0 1-.612.123c-.57 0-1.121-.326-1.365-.888Zm-11 0a1.49 1.49 0 0 1 .765-1.981c.753-.338 1.639 0 1.976.756a1.513 1.513 0 0 1-.764 1.99 1.63 1.63 0 0 1-.612.123c-.57 0-1.121-.326-1.365-.888Z"
      className="fillStrong"
      clipRule="evenodd"
    />
    <path
      fill="#A365F6"
      fillRule="evenodd"
      d="M16.416 14.277a.5.5 0 0 1-.693.139l-3-2a.5.5 0 0 1 .554-.832l3 2a.5.5 0 0 1 .139.693Zm-12.832 0a.5.5 0 0 1 .139-.693l3-2a.5.5 0 1 1 .554.832l-3 2a.5.5 0 0 1-.693-.139ZM14.13 7.112a1.49 1.49 0 0 1 .765-1.981c.753-.338 1.639 0 1.976.756a1.513 1.513 0 0 1-.764 1.99 1.63 1.63 0 0 1-.612.123c-.57 0-1.121-.326-1.365-.888Z"
      className="fillStrong"
      clipRule="evenodd"
    />
    <path
      fill="#A365F6"
      fillRule="evenodd"
      d="M16.416 5.723a.5.5 0 0 1-.139.693l-3 2a.5.5 0 1 1-.554-.832l3-2a.5.5 0 0 1 .693.139ZM3.13 7.112a1.49 1.49 0 0 1 .765-1.981c.753-.338 1.639 0 1.976.756a1.513 1.513 0 0 1-.764 1.99A1.63 1.63 0 0 1 4.495 8c-.57 0-1.121-.326-1.365-.888Z"
      className="fillStrong"
      clipRule="evenodd"
    />
    <path
      fill="#A365F6"
      fillRule="evenodd"
      d="M3.584 5.723a.5.5 0 0 1 .693-.139l3 2a.5.5 0 0 1-.554.832l-3-2a.5.5 0 0 1-.139-.693ZM8.63 4.112a1.49 1.49 0 0 1 .765-1.981c.753-.338 1.639 0 1.976.756a1.513 1.513 0 0 1-.764 1.99A1.63 1.63 0 0 1 9.995 5c-.57 0-1.121-.326-1.365-.888Z"
      className="fillStrong"
      clipRule="evenodd"
    />
    <path
      fill="#A365F6"
      fillRule="evenodd"
      d="M10 3.5a.5.5 0 0 1 .5.5v3a.5.5 0 0 1-1 0V4a.5.5 0 0 1 .5-.5Z"
      className="fillStrong"
      clipRule="evenodd"
    />
  </g>
</svg>
