<svg width="24" height="24" viewBox="0 0 24 24" fill="none" xmlns="http://www.w3.org/2000/svg">
<g>
<path d="M12 24C18.6274 24 24 18.6274 24 12C24 5.37258 18.6274 0 12 0C5.37258 0 0 5.37258 0 12C0 18.6274 5.37258 24 12 24Z" fill="#005293"/>
<g mask="url(#mask0_3023_239)">
<path d="M12 24C18.6274 24 24 18.6274 24 12C24 5.37258 18.6274 0 12 0C5.37258 0 0 5.37258 0 12C0 18.6274 5.37258 24 12 24Z" fill="#005293"/>
<path d="M7 -1.25H12V25.75H7V-1.25Z" fill="#FECB00"/>
<path d="M-1 9.75H27V14.75H-1V9.75Z" fill="#FECB00"/>
</g>
</g>
<defs>
<clipPath>
<rect width="24" height="24" fill="white"/>
</clipPath>
</defs>
</svg>
