<svg xmlns="http://www.w3.org/2000/svg" width="550" height="550" fill="none" viewBox="0 0 550 550">
    <g class="objectStorageGlacierWire">
        <path fill="#fff" d="m375.099 189.845-.029.037-.007-.004.019-.018zm.231-.205q-.118.101-.231.205c3.404-4.428 6.74-8.869 9.156-13.948 3.135-6.592 4.177-13.57 4.063-20.797-.076-4.86-.112-9.722-.149-14.585v-.003q-.026-3.644-.06-7.287c-.004-.547-.07-1.093-.411-1.661-.233.603-.456 1.212-.679 1.82l-.001.001c-.494 1.349-.989 2.699-1.6 3.99-3.183 6.718-7.598 12.529-12.969 17.67-7.11 6.805-15.151 12.239-23.999 16.46-4.913 2.343-9.889 4.616-15 6.46-5.254 1.896-10.67 3.377-16.089 4.767-4.958 1.272-9.977 2.405-15.034 3.179-5.696.872-11.457 1.38-17.205 1.887l-.226.02c-10.446.92-20.911.7-31.332-.246-6.761-.612-13.493-1.749-20.181-2.977-5.361-.987-10.706-2.208-15.917-3.788a137 137 0 0 1-15.594-5.775c-5.361-2.369-10.601-5.071-15.694-7.982-7.095-4.059-13.332-9.277-18.784-15.375-3.81-4.26-6.871-9.053-9.244-14.259-.245-.537-.455-1.09-.667-1.646-.358-.941-.72-1.892-1.261-2.795q-.013.19-.029.379c-.022.273-.045.547-.045.82q.013 3.185.022 6.371c.021 6.369.042 12.74.099 19.109.044 4.979 1.067 9.783 2.868 14.428 2.992 7.73 7.887 14.128 13.834 19.771 5.922 5.617 12.536 10.314 19.851 13.933 5.134 2.541 10.307 5.06 15.657 7.081 5.309 2.009 10.82 3.531 16.317 4.99 4.803 1.272 9.676 2.38 14.582 3.157 4.284.681 8.603 1.124 12.923 1.567h.001q2.1.213 4.199.439c1.733.186 3.474.285 5.214.385h.001l.953.055.258.017c.738.053 1.442.104 2.066-.681.532-.671 1.001-.132 1.1.576l.115.771.001.004c.14.928.279 1.856.354 2.789.066.817.33 1.224 1.224 1.162 2.306-.158 4.613-.297 6.92-.437l.005-.001h.006c4.771-.289 9.542-.578 14.299-1.025 5.097-.48 10.172-1.276 15.217-2.171a174 174 0 0 0 26.246-6.776c14.19-4.876 27.584-11.322 39.38-20.742 7.847-6.266 14.557-13.559 19.078-22.627 2.819-5.65 4.836-11.568 4.726-18.014a10 10 0 0 0-.013-.342c-.019-.377-.038-.759.083-1.085.109-.295.345-.543.58-.791a6 6 0 0 0 .3-.331c.051.124.117.248.182.372.143.274.287.548.287.82a425 425 0 0 1-.07 5.756c-.022 1.343-.045 2.686-.058 4.03q-.142 15.308-.28 30.617l-.003.251q-.14 15.435-.282 30.868l-.215 23.46v.07c-.214 23.481-.428 46.961-.672 70.439-.187 17.989-.404 35.978-.774 53.959-.043 2.065-.448 4.123-.854 6.183-.216 1.096-.432 2.193-.594 3.292a26 26 0 0 0-.286 3.714c.014 13.526.047 27.056.091 40.583.015 5.012-1.177 9.76-3.069 14.358-4.205 10.227-11.341 18.092-19.906 24.835-7.029 5.533-14.696 10.013-22.895 13.486-6.281 2.658-12.694 5.126-19.242 7.003-6.883 1.973-13.952 3.392-21.014 4.613-16.192 2.801-32.494 3.307-48.873 1.851-7.887-.7-15.69-1.826-23.434-3.465-7.175-1.518-14.193-3.523-21.105-5.969a125 125 0 0 1-21.05-9.698c-7.818-4.529-14.931-9.999-20.941-16.775-3.626-4.089-6.724-8.628-8.873-13.651-2.405-5.618-3.674-11.532-3.667-17.729.015-9.164-.047-18.326-.108-27.489-.034-5.132-.068-10.264-.09-15.396l-.01-1.855c-.021-3.169-.042-6.344.161-9.501.267-4.125 1.151-8.198 3.032-11.894 1.215-2.388 2.578-4.699 3.942-7.011.837-1.42 1.675-2.841 2.478-4.279.31-.556.481-1.189.652-1.822.076-.281.151-.562.239-.836.01-.03.007-.062.004-.095l-.004-.048c.44-3.982-.755-7.224-3.208-10.553-4.173-5.661-6.706-12.21-7.495-19.312q-.059-.523-.128-1.046c-.12-.935-.24-1.87-.246-2.804-.021-3.482-.025-6.963-.028-10.444-.006-5.44-.011-10.88-.085-16.319-.043-3.124.537-6.123 1.12-9.137q.175-.897.343-1.797c.217-1.17.03-2.443-.149-3.659l-.035-.239c-.147-1.012-.353-2.02-.559-3.028-.351-1.722-.703-3.441-.761-5.174-.282-8.437-.366-16.882-.399-25.322-.019-4.602.066-9.27 1.488-13.666 1.185-3.656 2.871-7.172 4.584-10.63.603-1.218 1.391-2.343 2.181-3.469.555-.793 1.111-1.585 1.603-2.412.443-.741.726-1.701.729-2.559a692 692 0 0 0-.146-17.699c-.022-.924-.437-1.995-1.012-2.728-4.078-5.189-6.916-11.008-8.698-17.307-.711-2.508-1.067-5.192-1.111-7.803-.223-12.422-.311-24.845-.392-37.271-.029-4.701.106-9.435 1.415-13.974a48.4 48.4 0 0 1 5.412-12.14c4.499-7.242 10.359-13.19 17.098-18.323 7.605-5.797 15.862-10.468 24.754-13.962l2.038-.806c4.522-1.792 9.058-3.59 13.725-4.896 6.673-1.866 13.493-3.238 20.299-4.594 8.902-1.771 17.94-2.538 27.004-2.761 8.679-.213 17.355-.03 26.008.865 7.638.792 15.217 1.914 22.693 3.634 4.565 1.052 9.137 2.181 13.567 3.688 5.694 1.936 11.381 4 16.826 6.538 5.174 2.413 10.116 5.372 15.004 8.342 5.786 3.516 10.875 7.964 15.36 13.016 4.686 5.28 8.455 11.136 10.732 17.941 2.108 6.3 2.442 12.691 2.332 19.25-.091 5.527-.028 11.057.035 16.586v.004c.043 3.824.086 7.648.079 11.471-.011 5.082-.308 10.186-1.808 15.074-1.247 4.063-2.926 8.001-5.386 11.51-1.448 2.062-2.997 4.054-4.545 6.046a432 432 0 0 0-1.678 2.167c-.152.2-.348.37-.543.539m14.379 202.133a171 171 0 0 0-1.349 2.556c-.906 1.741-1.768 3.398-2.759 4.971-7.605 12.063-18.249 20.867-30.529 27.76-5.448 3.058-11.117 5.772-16.859 8.236-4.998 2.141-10.19 3.89-15.396 5.478-4.939 1.503-9.974 2.739-15.03 3.791-5.859 1.217-11.752 2.42-17.692 3.054-5.897.629-11.824.983-17.752 1.338h-.006c-2.304.138-4.608.276-6.911.43-2.09.139-2.145.106-2.196-2.024-.033-1.302-.484-1.881-1.867-1.922-2.827-.084-5.665-.183-8.466-.539-5.181-.656-10.369-1.327-15.492-2.31-5.635-1.081-11.256-2.321-16.778-3.864-4.738-1.32-9.365-3.062-13.974-4.8a105.7 105.7 0 0 1-17.626-8.613c-8.418-5.119-16.115-11.11-22.183-18.997-3.102-4.033-5.779-8.301-7.502-13.119a50 50 0 0 0-.778-1.993l-.348-.86c-.304.594-.308 1.071-.304 1.547q.035 5.215.073 10.429c.066 9.042.131 18.084.147 27.129.011 5.845 1.25 11.433 3.513 16.757 2.104 4.953 5.115 9.434 8.668 13.453 5.958 6.735 12.994 12.243 20.819 16.624a144 144 0 0 0 14.806 7.183c5.152 2.153 10.435 4.078 15.803 5.592 5.973 1.687 12.064 3.087 18.191 4.081a220 220 0 0 0 20.977 2.38c6.779.44 13.607.465 20.401.286 5.401-.143 10.809-.693 16.177-1.379 5.933-.759 11.858-1.672 17.707-2.9 4.854-1.02 9.658-2.402 14.366-3.979 5.701-1.906 11.414-3.89 16.877-6.376 7.477-3.403 14.59-7.517 21.054-12.672 8.441-6.728 15.562-14.48 19.65-24.669 1.764-4.393 2.944-8.921 2.937-13.666-.011-9.506-.075-19.013-.139-28.518v-.003q-.029-4.158-.055-8.314c0-.283-.04-.564-.09-.908-.027-.193-.058-.406-.085-.65m3.57-222.582q.192.06.385.114l.004-.011q.01.213.023.426c.017.282.034.563.032.846l-.276 31.233c-.162 18.223-.324 36.447-.476 54.67-.059 7.017-.104 14.036-.149 21.055-.053 8.185-.106 16.372-.181 24.558-.11 11.948-.234 23.896-.357 35.843-.124 11.938-.248 23.876-.358 35.815-.11 11.711-4.469 21.809-11.678 30.792-8.059 10.047-18.268 17.432-29.543 23.467-6.757 3.619-13.739 6.754-21.013 9.119-6.446 2.094-13.002 3.912-19.591 5.515-5.434 1.32-10.96 2.332-16.497 3.146-9.064 1.334-18.183 2.17-27.364 2.108-1.247-.011-1.401-.532-1.393-1.547.028-4.577.043-9.153.059-13.73v-.001c.021-6.263.042-12.527.095-18.789q.45-53.67.949-107.342c.157-16.786.332-33.572.508-50.358v-.001q.12-11.439.237-22.879v-.012c.018-1.873.019-1.913 1.947-1.92a184.6 184.6 0 0 0 27.654-2.171c6.57-1.023 13.134-2.273 19.569-3.93 6.985-1.797 13.948-3.843 20.694-6.377 16.035-6.024 30.775-14.274 42.772-26.788 5.75-5.995 10.263-12.823 13.226-20.622.19-.505.349-1.023.508-1.541l.001-.002q.104-.344.213-.686m-149.16-113.15c9.592-1.349 19.243-2.27 28.959-2.016l-.003-.004c9.665-.235 19.286.58 28.805 2.072 6.347.995 12.619 2.49 18.88 3.984q1.368.327 2.735.65c7.795 1.848 15.257 4.77 22.488 8.159 8.019 3.762 15.587 8.334 22.366 14.124 4.851 4.143 9.174 8.767 12.61 14.138 3.788 5.915 6.464 12.339 6.787 19.423.176 3.842-.066 7.799-.792 11.572-2.009 10.428-7.913 18.674-15.393 25.919-7.102 6.879-15.264 12.24-24.141 16.504l-.237.114c-4.223 2.027-8.477 4.069-12.893 5.591-6.182 2.131-12.485 3.964-18.832 5.544-5.519 1.375-11.132 2.483-16.764 3.245-14.385 1.951-28.835 2.725-43.322 1.21l-1.648-.171c-5.548-.577-11.106-1.156-16.594-2.113-6.068-1.06-12.118-2.409-18.04-4.103-5.316-1.522-10.538-3.476-15.638-5.621-4.961-2.086-9.845-4.44-14.538-7.073-7.759-4.352-14.755-9.79-20.629-16.507-4.69-5.365-8.375-11.363-10.479-18.264-1.548-5.075-2.149-10.281-1.507-15.473.465-3.755 1.536-7.524 2.918-11.059 4.1-10.472 11.572-18.308 20.332-25.08 6.16-4.767 12.881-8.602 19.892-11.887 6.229-2.919 12.705-5.277 19.316-7.264 8.319-2.504 16.779-4.404 25.362-5.614m-76.74 134.582.345-.195-.004.004q.683.693 1.357 1.393h.001c.957.989 1.915 1.978 2.914 2.923 4.14 3.912 8.683 7.3 13.475 10.387 6.992 4.507 14.461 8.067 22.216 10.931 6.003 2.218 12.214 3.912 18.411 5.522 5.089 1.323 10.263 2.475 15.469 3.179 5.12.69 10.278 1.108 15.436 1.527 1.772.143 3.544.287 5.314.442l.186.016c1.685.143 1.698.144 1.684 1.967q-.23 31.96-.466 63.92l-.003.397c-.015 1.852-.037 1.87-1.874 1.694-1.611-.154-3.225-.29-4.838-.426-3.833-.324-7.666-.648-11.464-1.213-5.104-.759-10.171-1.862-15.176-3.131-5.185-1.316-10.362-2.761-15.371-4.62-4.715-1.752-9.267-3.982-13.794-6.201h-.001l-.179-.087c-5.943-2.915-11.381-6.666-16.353-11.022-5.28-4.631-9.801-9.919-12.987-16.266-2.941-5.859-4.169-12.059-4.18-18.582-.015-9.492-.065-18.982-.115-28.473v-.002q-.035-6.406-.065-12.816c-.002-.289.018-.58.037-.87q.015-.2.025-.398m.972 154.04c0 1.098-.002 2.143-.003 3.155v.001c-.003 1.933-.006 3.741.003 5.549q.02 3.223.033 6.448c.027 6.34.054 12.68.202 19.017.066 2.753.487 5.547 1.14 8.228 1.613 6.625 4.987 12.393 9.39 17.534 4.144 4.836 8.962 8.939 14.249 12.51 7.091 4.793 14.725 8.536 22.719 11.473a145 145 0 0 0 23.635 6.465c7.033 1.301 14.091 2.222 21.219 2.717 1.06.073 1.434-.239 1.441-1.335.143-17.886.308-35.776.506-53.662.015-1.202-.411-1.51-1.566-1.584-11.352-.7-22.59-2.163-33.66-4.88-7.491-1.841-14.839-4.066-21.992-6.963-6.659-2.699-13.072-5.856-19.155-9.691-4.862-3.065-9.416-6.527-13.589-10.476a154 154 0 0 1-2.943-2.887l-.003-.003h-.001l-.003-.004-.002-.001c-.51-.51-1.046-1.044-1.62-1.611m-11.203-95.88h.003l.178-.025-.004.003c.213.572.411 1.151.609 1.73.418 1.221.836 2.441 1.386 3.598 4.349 9.148 10.857 16.511 18.784 22.733 5.592 4.389 11.631 8.027 17.96 11.217 7.714 3.89 15.788 6.897 24.082 9.232 9.365 2.637 18.884 4.65 28.601 5.537 4.77.436 9.544.851 14.321 1.217 1.093.085 1.43.444 1.408 1.584-.146 7.099-.223 14.198-.264 21.296-.007 1.218-.256 1.68-1.62 1.537a346 346 0 0 0-7.132-.655c-4.118-.35-8.235-.699-12.316-1.303-6.091-.906-12.148-2.219-18.117-3.755a183 183 0 0 1-17.109-5.32c-8.591-3.143-16.687-7.326-24.262-12.496-5.284-3.605-10.124-7.733-14.33-12.522-3.949-4.492-7.278-9.453-9.416-15.11-1.837-4.866-2.955-9.871-2.893-15.114.031-2.768.005-5.537-.021-8.306a881 881 0 0 1-.03-3.637v-1.415zm.432 51.635.002-.001.205-.007.008.004c2.031 7.036 5.874 13.082 10.615 18.491 5.503 6.273 12.015 11.425 19.169 15.766 6.23 3.781 12.771 6.901 19.54 9.578 8.165 3.23 16.577 5.668 25.157 7.432 9.863 2.028 19.825 3.476 29.92 3.725 1.426.037 1.884.451 1.855 1.914-.136 7.004-.187 14.003-.205 21.007 0 1.283-.396 1.646-1.687 1.51-2.414-.251-4.833-.465-7.251-.679-4.359-.385-8.716-.77-13.044-1.374-5.108-.711-10.168-1.888-15.169-3.164-5.276-1.342-10.534-2.827-15.657-4.657-4.755-1.701-9.372-3.824-13.962-5.955-5.559-2.577-10.762-5.804-15.683-9.449-4.158-3.08-8.074-6.468-11.458-10.391-4.517-5.24-8.298-10.923-10.443-17.618-1.481-4.624-2.167-9.306-2.156-14.128.005-2.101-.011-4.202-.026-6.303q-.016-2.101-.025-4.202c0-.332.029-.662.059-.993q.022-.25.04-.499zm11.168-6.512c.021.246.035.445.046.615.018.284.032.486.07.682.957 4.906 3.036 9.38 5.757 13.494 3.795 5.734 8.598 10.574 14.091 14.736 8.609 6.527 18.132 11.286 28.285 14.883 7.318 2.592 14.784 4.561 22.418 6.021 7.359 1.408 14.758 2.277 22.22 2.75 1.18.073 1.613-.224 1.606-1.467q-.063-7.12.062-14.241c.022-1.232-.337-1.713-1.588-1.753l-.34-.01-.617-.019h-.001c-2.509-.074-5.023-.149-7.508-.451l-.207-.026h-.003c-5.444-.666-10.896-1.333-16.283-2.343-5.544-1.041-11.077-2.273-16.489-3.843a153 153 0 0 1-15.957-5.595c-5.108-2.116-10.164-4.473-14.945-7.234-7.176-4.14-13.842-9.042-19.485-15.199a7 7 0 0 0-.63-.571l-.002-.002-.001-.001a33 33 0 0 1-.499-.426m95.253 7.232v.002c.068.575.139 1.176.204 1.815v.003c-1.808-.176-3.592-.334-5.359-.491h-.004c-3.94-.35-7.792-.691-11.621-1.203-5.735-.766-11.44-1.793-17.127-2.867-2.379-.449-4.725-1.097-7.067-1.744q-.85-.236-1.7-.467c-7.678-2.079-15.18-4.704-22.304-8.206-5.427-2.666-10.7-5.727-15.767-9.031-7.586-4.95-14.043-11.202-19.07-18.766a44.8 44.8 0 0 1-5.427-11.352c-1.639-5.203-2.163-10.527-1.69-15.899.333-3.809 1.191-7.593 2.86-11.077 1.154-2.407 2.434-4.758 3.713-7.108q.581-1.065 1.156-2.132c.156-.29.383-.542.679-.869.156-.173.33-.366.524-.597.021.32.044.6.064.854v.001c.04.489.071.882.071 1.275q.019 2.97.042 5.938c.039 5.023.077 10.045.054 15.068-.041 7.572 2.009 14.524 5.874 20.992 4.114 6.879 9.665 12.408 15.994 17.222 4.884 3.718 10.167 6.784 15.656 9.504 6.274 3.11 12.808 5.603 19.507 7.561 8.833 2.581 17.816 4.561 27.005 5.441q6.008.579 12.027 1.031c1.034.077 1.364.436 1.389 1.492.028 1.161.165 2.321.317 3.61m-97.629 52.343c.168-.211.356-.448.567-.729l.004-.004c.024.313.048.578.068.81.04.443.069.771.071 1.1q.045 4.614.082 9.228c.043 5.126.085 10.253.149 15.379.077 6.157 1.837 11.866 4.716 17.267 4.51 8.462 11.168 14.974 18.857 20.46 6.314 4.506 13.094 8.257 20.376 11.014 1.019.386 2.036.781 3.053 1.176h.001c3.398 1.319 6.799 2.639 10.289 3.646 5.232 1.511 10.578 2.71 15.939 3.685 4.262.776 8.566 1.327 12.869 1.877h.001l.001.001c1.449.185 2.897.37 4.344.564.611.081 1.23.099 1.849.117a19 19 0 0 1 1.737.103c.363.044.931.433.979.733.161.991.241 1.995.329 3.086q.047.604.104 1.248-.953-.05-1.88-.092h-.002a111 111 0 0 1-4.033-.238c-8.891-.751-17.724-1.972-26.403-4.011-5.669-1.331-11.264-3.047-16.79-4.895-4.752-1.588-9.486-3.337-13.996-5.5-7.498-3.597-14.637-7.825-21.101-13.152-5.137-4.235-9.669-9.006-13.358-14.506-2.475-3.688-4.356-7.733-5.654-12.03-1.518-5.027-2.108-10.193-1.478-15.341.451-3.66 1.537-7.315 2.849-10.78.87-2.292 2.085-4.451 3.3-6.609.477-.847.953-1.693 1.408-2.547.184-.345.43-.654.752-1.059zm-7.725-75.17c-.102.423-.197.801-.284 1.149a35 35 0 0 0-.418 1.781c-.803 4.073-.733 8.118-.264 12.268.77 6.82 3.428 12.83 7.084 18.433 4.723 7.238 10.974 13.071 18.011 18.003 8.811 6.175 18.399 10.857 28.556 14.432 7.597 2.673 15.308 4.895 23.224 6.347 4.991.917 10.018 1.646 15.052 2.273 3.455.43 6.932.697 10.405.963q1.238.095 2.472.192c1.243.099 1.5-.377 1.174-1.58l-.007-.026c-.229-.846-.47-1.735-.437-2.596.048-1.162-.418-1.408-1.485-1.525l-1.205-.133-1.147-.126c-6.023-.662-12.047-1.324-18.042-2.165-7.172-1.004-14.142-2.904-21.036-5.133-8.818-2.853-17.248-6.523-25.135-11.392-7.527-4.65-14.318-10.15-19.657-17.296-4.117-5.507-7.157-11.473-8.297-18.348-.246-1.485-1.06-2.926-1.83-4.257-.752-1.303-1.575-2.564-2.398-3.825-.608-.933-1.217-1.866-1.797-2.815-.57-.934-1.085-1.902-1.668-3.001h-.001c-.271-.51-.556-1.048-.87-1.623m233.954-90.101c.018-1.122-.374-1.368-1.357-1.129q-.259.631-.498 1.237l-.001.001a48 48 0 0 1-1.03 2.454c-3.476 7.462-8.393 13.853-14.344 19.518-9.471 9.016-20.463 15.645-32.406 20.742-5.529 2.361-11.209 4.415-16.921 6.292a143 143 0 0 1-14.682 3.978c-5.264 1.128-10.588 1.988-15.908 2.847l-2.616.424c-1.312.216-1.826.821-1.884 2.031q-.051 1.038-.114 2.074c-.082 1.417-.165 2.834-.18 4.251-.199 19.37-.378 38.74-.558 58.109l-.076 8.232q-.114 12.327-.223 24.648v.003l-.001.103-.201 22.714v.052l-.001.052c-.169 19.067-.338 38.134-.498 57.2-.015 1.822.026 3.648.176 5.463.147 1.756.466 1.987 2.204 1.683l1.487-.26c5.261-.921 10.52-1.841 15.764-2.857 8.573-1.661 16.915-4.187 25.08-7.249 9.963-3.736 19.496-8.363 28.322-14.377 10.145-6.911 18.949-15.11 25.039-25.927 2.072-3.681 3.777-7.392 3.806-11.847.127-20.562.326-41.125.525-61.688.099-10.281.199-20.562.289-30.844.087-9.923.155-19.846.223-29.768v-.048c.06-8.867.121-17.733.195-26.599.088-10.505.224-21.01.389-31.515m-57.057 47.396q.216-.065.477-.147l-.011.011q.103.486.208.942v.001c.154.676.299 1.311.382 1.953l.055.417c.268 2.047.537 4.097.671 6.154.047.7-.048 1.408-.143 2.117-.054.405-.108.811-.136 1.216-.015.196.04.394.096.593l.042.156.027.12c.115-.044.244-.078.373-.111.277-.072.553-.144.691-.322 1.185-1.548 2.332-3.125 3.479-4.702l.537-.737.325-.446 1.01-1.374.001-.001.001-.001a191 191 0 0 0 3.029-4.19c.575-.825 1.037-1.074 1.925-.348 1.551 1.269 3.182 2.449 4.818 3.608.817.579.85 1.111.286 1.903-2.115 2.965-4.199 5.955-6.282 8.943l-.003.005-.865 1.242c-.323.465-.642.949-.858 1.47-.084.194-.059.434-.035.674.011.109.022.218.024.323.106-.017.216-.026.325-.036.246-.021.491-.043.694-.147.252-.128.492-.303.73-.476.38-.277.756-.551 1.173-.628a412 412 0 0 1 7.097-1.229c1.837-.307 3.675-.615 5.509-.941 1.1-.195 1.683.183 1.833 1.221.297 2.035.561 4.077.803 6.119.103.873-.216 1.416-1.21 1.584-1.901.325-3.799.678-5.696 1.03-1.766.328-3.531.656-5.3.961-2.461.428-4.929.82-7.398 1.213l-.011.002q-1.534.244-3.067.49l-.048.012c-.033.009-.065.018-.095.01-2.453-.53-3.56 1.056-4.734 2.738l-.131.188c-2.126 3.031-4.287 6.037-6.448 9.044-1.569 2.184-3.139 4.368-4.695 6.562-.264.374-.371.964-.305 1.419.026.179.704.344 1.1.388a4176 4176 0 0 0 21.443 2.27c.345.037.818-.033 1.052-.249.879-.813 1.742-1.643 2.605-2.472l.002-.002c1.254-1.206 2.509-2.412 3.81-3.565 3.784-3.354 7.623-6.638 11.464-9.923l.002-.002.344-.294c1.581-1.35 1.654-1.32 3.044.337a160 160 0 0 1 3.072 3.78c.723.921.961 1.727-.183 2.666a404 404 0 0 0-5.546 4.675h-.001v.001h-.001l-.001.001a414 414 0 0 1-5.374 4.534c-.427.351-1.003.524-1.579.696-.266.08-.531.16-.782.257l.005.101.007.125q.008.112.013.225.214.06.427.127c.315.098.631.196.952.236l1.869.229c3.517.433 7.034.865 10.557 1.223 1.141.114 1.456.59 1.423 1.643-.07 2.06-.103 4.125-.059 6.185.026 1.126-.341 1.551-1.499 1.427a541 541 0 0 0-11.734-1.159 8 8 0 0 1-.593-.084c-.761-.129-1.548-.262-2.061.498.392.367.789.718 1.182 1.065.847.747 1.673 1.476 2.382 2.305 1.481 1.733 2.912 3.509 4.342 5.285.902 1.12 1.805 2.241 2.72 3.35.7.847.612 1.533-.176 2.215q-.81.704-1.62 1.411l-.004.004c-.967.844-1.935 1.689-2.908 2.526-.895.77-1.599.668-2.369-.315-2.994-3.82-6.011-7.62-9.028-11.419l-.002-.003-.003-.003-.002-.003a4046 4046 0 0 1-4.84-6.102c-.172-.217-.355-.499-.366-.756-.041-1.015-.697-1.276-1.529-1.356l-4.608-.455c-7.719-.762-15.438-1.524-23.156-2.273-1.5-.147-2.688 1.576-2.127 2.926 1.537 3.709 3.056 7.426 4.575 11.142l1.889 4.621 1.5 3.67q1.06 2.601 2.127 5.199c.344.836.872 1.232 1.87 1.467 1.513.358 2.978.939 4.438 1.518h.001l.007.003q.612.244 1.226.481c3.717 1.427 7.428 2.866 11.139 4.305l3.715 1.441q.106.04.216.065.101.025.198.059c2.262.884 2.515 1.489 1.577 3.744l-.644 1.546q-.643 1.543-1.281 3.085c-.433 1.049-1.174 1.305-2.2.891l-1.876-.756-1.186-.476c-3.19-1.284-6.382-2.568-9.563-3.879-.231-.095-.407-.311-.587-.532a2.7 2.7 0 0 0-.41-.436c-.23-.179-.497-.313-.764-.448l-.091-.046-.056-.028-.2-.105a4 4 0 0 1-.063.394c-.056.293-.112.586-.021.823 1.477 3.845 2.983 7.681 4.56 11.7l.001.003.012.03 1.018 2.596q-.802.365-1.603.733l-.002.001-.002.001c-1.922.88-3.842 1.76-5.792 2.565-.253.107-1.019-.414-1.188-.799-1.285-2.943-2.529-5.905-3.774-8.867l-.001-.003q-.716-1.706-1.435-3.41l-.018-.041c-.129-.299-.324-.751-.485-.751-.348 0-1.012.371-.997.422.479 1.561-.133 2.866-.739 4.158-.261.556-.52 1.109-.691 1.679-.617 2.056-1.418 4.056-2.22 6.055v.001c-.338.843-.676 1.685-.999 2.532-.73 1.906-.917 1.98-2.842 1.202a97 97 0 0 1-1.158-.477c-1.117-.464-2.234-.928-3.381-1.294-1.518-.48-1.427-1.422-.983-2.57l.63-1.635c.667-1.732 1.333-3.464 2.025-5.185 1.903-4.748 3.824-9.489 5.753-14.23.063-.157.163-.301.263-.444.115-.164.23-.327.287-.51q.047-.148.102-.305c.162-.467.338-.977.195-1.334-1.554-3.84-3.154-7.663-4.754-11.487v-.001q-.868-2.072-1.733-4.146c-.29-.694-.566-1.394-.843-2.093v-.002l-.001-.003a141 141 0 0 0-.707-1.763c-.689-1.68-1.265-1.786-2.332-.36a348 348 0 0 0-3.314 4.531q-.866 1.2-1.738 2.396c-2.556 3.501-5.115 7.007-7.682 10.505-.502.685-.693 1.279-.403 2.225.469 1.541.722 3.153.973 4.758l.112.709q1.275 7.993 2.479 16.002c.15.99.245 2.013.154 3.003-.041.432-.539 1.081-.946 1.184-1.9.48-3.832.847-5.772 1.14-.256.037-.832-.557-.88-.909-.078-.577-.047-1.17-.017-1.763.014-.274.028-.547.032-.818q.047-4.15.097-8.301c.098-8.311.196-16.624.251-24.938.011-1.719.495-3.127 1.507-4.499 3.335-4.522 6.625-9.077 9.915-13.632l.05-.07.049-.067 1.61-2.228c.336-.468.261-.912.172-1.438q-.032-.181-.059-.377c-.221-1.664-1.193-1.668-2.139-1.671-.244 0-.486-.001-.713-.031-2.849-.366-5.717-.641-8.58-.88-1.199-.099-1.647-.561-1.584-1.804.113-2.247.102-4.506.058-6.761-.022-1.056.389-1.364 1.372-1.225 1.708.239 3.424.462 5.14.635 1.551.154 1.881-.257 1.302-1.705l-.894-2.246c-1.203-3.031-2.406-6.062-3.755-9.026-2.006-4.411-3.579-8.836-2.952-13.819.183-1.46.241-2.934.3-4.409.046-1.16.092-2.321.199-3.475.044-.491.649-1.25 1.096-1.331 2.505-.452 5.03-.813 7.553-1.175l1.823-.262c.077-.011.161.017.286.06.075.026.165.056.278.087q-.224.633-.44 1.26a63 63 0 0 1-1.052 2.887c-.326.813-.673 1.618-1.019 2.423l-.001.001v.001c-.478 1.111-.957 2.222-1.382 3.353-.172.462-.029 1.141.173 1.636 3.203 7.832 6.436 15.658 9.667 23.48l.581 1.405.018.043c.159.383.325.783.591 1.09.181.21.431.364.68.517q.165.1.321.206a4 4 0 0 1 .148-.425c.124-.316.248-.633.145-.837-.6-1.202.002-2.028.636-2.897l.064-.087.917-1.263 1.192-1.639c3.959-5.448 7.917-10.894 11.825-16.378.41-.575.583-1.51.491-2.229-.469-3.59-.993-7.171-1.518-10.754q-.266-1.811-.528-3.623a20 20 0 0 0-.127-.754c-.11-.604-.219-1.207-.188-1.805.015-.289.274-.564.534-.84.119-.126.239-.253.335-.381.079.107.175.211.271.316.207.224.413.449.451.699.356 2.462.699 4.925 1.041 7.388v.001c.482 3.466.964 6.933 1.485 10.395.202 1.334-.278 2.299-.997 3.289a4373 4373 0 0 0-14.769 20.434c-.18.25-.204.611-.227.972-.011.168-.022.337-.048.495.143-.08.301-.149.46-.218.344-.149.687-.299.878-.56a4120 4120 0 0 0 16.097-22.128c.231-.319.443-.803.385-1.166-.228-1.382-.482-2.759-.735-4.136h-.001c-.298-1.62-.596-3.239-.852-4.866-.264-1.678-.489-3.363-.715-5.048-.219-1.639-.438-3.279-.693-4.914-.172-1.096.037-1.661 1.192-1.998 1.43-.417 2.834-.922 4.239-1.427h.002v-.001q.932-.336 1.867-.662c.221-.078.446-.147.707-.226zm55.147-43.766q.198.09.403.18l.004-.004v.517q.002.52 0 1.041l-.217 23.536c-.169 18.298-.338 36.596-.495 54.894-.054 6.27-.092 12.54-.131 18.81-.051 8.265-.102 16.53-.188 24.794-.19 18.561-.392 37.125-.777 55.686-.044 2.079-1.06 4.246-2.02 6.178-5.178 10.414-13.054 18.51-22.301 25.363-8.03 5.951-16.779 10.644-25.975 14.483-8.085 3.377-16.368 6.222-24.937 8.107-6.636 1.459-13.31 2.768-19.979 4.066-3.264.635-3.297.554-3.583-2.728-.058-.67-.073-1.344-.089-2.018-.013-.524-.025-1.048-.057-1.571-.055-.924.282-1.379 1.246-1.537l.631-.103c2.296-.375 4.599-.751 6.853-1.308l1.972-.486.045-.011.004-.001c5.874-1.445 11.754-2.891 17.566-4.559 7.418-2.13 14.491-5.195 21.304-8.818 11.799-6.27 22.341-14.065 29.861-25.351 1.65-2.475 2.97-5.179 4.281-7.863l.28-.574c.462-.943.565-2.134.576-3.216.172-16.566.322-33.133.473-49.699q.081-9.042.165-18.083c.275-29.693.554-59.385.876-89.078.008-.733.323-1.654.825-2.16 5.302-5.324 9.864-11.179 13.109-17.996.052-.109.114-.214.176-.32q.05-.084.099-.171M290.455 400.29h.345q-.001-2.717-.008-5.435c-.01-4.229-.019-8.459.022-12.689.025-2.585.099-5.17.173-7.755.056-1.954.112-3.909.146-5.863.014-.91-.068-1.822-.15-2.733v-.003l-.001-.003q-.038-.42-.072-.84c-.074-.946.344-1.324 1.272-1.214 1.411.166 2.824.32 4.237.475h.006l.001.001c3.062.334 6.125.669 9.172 1.116 3.597.528 7.187 1.202 10.718 2.068 5.108 1.25 10.223 2.522 15.206 4.18 5.478 1.818 10.945 3.791 16.162 6.24 3.446 1.617 6.742 3.549 10.04 5.481 1.609.943 3.217 1.885 4.843 2.791 1.064.591.862 1.064.147 1.823-5.251 5.566-11.275 10.145-17.794 14.109-6.762 4.11-13.879 7.524-21.344 10.08-6.186 2.115-12.522 3.813-18.843 5.5-2.657.708-5.364 1.226-8.071 1.744-1.103.211-2.207.422-3.307.646a7 7 0 0 1-.838.106c-.245.021-.49.042-.731.085-1.126.202-1.36-.293-1.353-1.353.035-4.582.03-9.164.025-13.746zm31.296-54.575.203-.482.148-.354.011.008c.295.678.579 1.315.851 1.925.555 1.247 1.062 2.385 1.518 3.542 1.151 2.933 3.531 4.418 6.515 3.604 2.853-.777 5.57-1.918 7.535-4.374.613-.77.668-1.331.308-2.186a436 436 0 0 1-3.106-7.643l-.001-.001v-.001l-.017-.043-.645-1.614c-.051-.127-.064-.269-.083-.48v-.001a10 10 0 0 0-.049-.45l1.12.457c1.503.615 2.904 1.187 4.307 1.75q.704.283 1.406.571c1.303.532 2.606 1.064 3.932 1.53 2.49.876 3.451.484 4.833-1.859.311-.525.588-1.068.913-1.706q.223-.44.488-.949c.837.617 1.665 1.219 2.484 1.814l.007.005c1.862 1.354 3.676 2.673 5.447 4.044 4.877 3.781 8.976 8.302 12.481 13.373.917 1.327 1.562 2.68 1.46 4.378-.121 2.005-.198 4.04-.033 6.039.282 3.355-.635 6.358-2.391 9.122a267 267 0 0 1-3.476 5.282l-.002.003-.001.001c-.869 1.297-1.738 2.594-2.589 3.903-.536.821-1.06.788-1.771.282-4.763-3.388-9.864-6.24-15.191-8.58-5.548-2.438-11.242-4.579-16.984-6.519-4.752-1.606-9.629-2.889-14.52-4.011-4.426-1.016-8.936-1.705-13.431-2.384-2.216-.334-4.443-.587-6.67-.84h-.006l-.003-.001a249 249 0 0 1-4.871-.585c-.345-.048-.869-.616-.884-.961-.056-1.233-.043-2.47-.03-3.707q.01-.808.012-1.617c0-.887.55-1.059 1.301-1.18l.157-.025.258-.041c1.42-.226 2.852-.454 4.209-.891 1.026-.331 1.969-.956 2.886-1.564l.209-.138c.275-.183.469-.744.429-1.103-.367-3.286-.745-6.567-1.214-9.838-.297-2.065-.648-4.12-.999-6.175v-.002l-.001-.002v-.002q-.249-1.447-.489-2.894-.143-.88-.279-1.76a125 125 0 0 0-.553-3.344c-.315-1.709.29-3.043 1.173-4.528 1.504-2.527 3.22-3.528 6.16-2.589 1.292.414 2.647.623 4.004.833.831.128 1.662.257 2.479.432 2.064.444 3.527 3.095 2.765 5.086a494 494 0 0 1-2.583 6.547l-.001.002a571 571 0 0 0-2.264 5.719 606 606 0 0 0-4.381 11.682c-.125.349-.008.961.234 1.251 3.018 3.63 6.817 5.408 11.62 4.873 1.056-.118 1.65-.517 2.017-1.478.802-2.095 1.633-4.177 2.464-6.261l.214-.538.321-.806c.185-.471.381-.937.639-1.551m41.63-45.415-.084-.179-.128-.263-.063-.126-.003-.004q1.48.14 2.898.27c2.565.239 4.997.465 7.427.709.93.092.906.763.883 1.386l-.005.145-.002.134c-.014 4.7-.029 9.397-.08 14.098q-.144 13.242-.302 26.483v.043l-.124 10.588c-.007.55 0 1.1 0 1.65l-.177.057-.178.057q-1.468-1.881-2.93-3.762c-4.448-5.717-9.922-10.296-15.906-14.304-.163-.109-.344-.203-.524-.297-.346-.18-.688-.358-.895-.638-.337-.455-.495-1.115-.528-1.698-.016-.277.077-.558.172-.841.075-.226.151-.454.173-.684.253-2.816.011-3.326-2.585-4.382-5.262-2.137-10.557-4.209-15.851-6.273-.994-.389-1.537-.873-1.537-2.072-.007-7.286-.073-14.575-.187-21.864-.022-1.309.279-1.812 1.694-1.614 1.159.161 2.325.266 3.491.371h.001c1.365.123 2.729.246 4.08.458.843.132 1.811.675 2.35 1.331 2.638 3.215 5.243 6.457 7.849 9.699v.001l.002.002c2.177 2.71 4.355 5.42 6.552 8.114 1.877 2.303 3.667 2.714 6.145 1.17 2.296-1.426 4.448-3.12 5.856-5.559.649-1.125.693-2.024-.231-3.102-1.798-2.101-3.525-4.265-5.251-6.428l-.002-.002-.001-.002-.001-.001q-.847-1.063-1.697-2.121c-.106-.131-.18-.29-.3-.547zm11.228-33.778q-.017.3-.033.65v.003a893 893 0 0 1-1.609-2.189l-.002-.002-.002-.003v-.001c-1.158-1.578-2.273-3.098-3.407-4.603l-.238-.318c-.577-.774-1.164-1.562-1.892-2.168-1.467-1.221-2.098-2.735-2.332-4.583-.25-1.965-1.144-3.674-3.058-4.506-.737-.319-1.713-.455-2.475-.264-1.441.359-2.6.143-3.737-.796-.545-.45-1.151-.829-1.781-1.224q-.435-.27-.881-.562.266-.396.514-.77l.003-.004.001-.001a89 89 0 0 1 1.327-1.956c1.21-1.713.905-3.894-.664-5.343-.517-.479-.971-1.024-1.424-1.569a33 33 0 0 0-.732-.858l-.09-.103c-.162-.188-.338-.391-.544-.447l-.608-.162h-.001c-1.997-.534-3.993-1.068-6.013-1.481-.404-.084-1.06.363-1.379.748a33 33 0 0 0-1.337 1.77 33 33 0 0 1-1.336 1.769c-.348.418-1.019.942-1.423.858-.777-.162-1.591-.473-1.701-1.632-.125-1.346.073-2.079 1.496-2.724 3.323-1.506 6.609-3.093 9.895-4.681h.001a621 621 0 0 1 6.795-3.25c.476-.22 1.356-.118 1.785.194 5.489 4.019 10.106 8.914 13.923 14.52 2.024 2.974 3.439 6.112 3.142 10.006-.258 3.384-.215 6.791-.173 10.198.018 1.492.037 2.983.03 4.473-.002.322-.02.644-.04 1.01zm-22.009 9.733c.014.059.035.146.071.274l-.004-.007q-.944.82-1.887 1.646c-1.974 1.723-3.956 3.453-5.963 5.152-.315.267-.895.355-1.331.315a457 457 0 0 1-5.465-.536h-.003a588 588 0 0 0-3.955-.395c-.965-.092-1.533-.477-1.401-1.537.01-.061.006-.125.003-.189l-.003-.097q-.143-6.717 4.235-11.997c.29-.352 1.067-.711 1.386-.565 4.939 2.266 9.867 4.565 14.271 7.81.019.013.026.041.046.126m-46.562-9.149-3.798-9.189.003.004c.619.105 1.197.196 1.746.282h.002c1.129.177 2.137.335 3.129.565 4.569 1.056 9.13 2.152 13.684 3.267 1.445.355.972 1.404.517 2.148-.666 1.091-1.426 2.126-2.185 3.161v.001q-.347.471-.69.945c-1.61 2.232-3.226 4.462-4.901 6.775l-.952 1.314-1.733 2.394zm19.111-13.457.002.014.339 2.3a92 92 0 0 0-2.066-1.239c-1.384-.813-2.639-1.55-3.764-2.446-2.468-1.964-5.36-2.484-8.288-3.01l-.351-.063q-2.89-.52-5.783-1.028l-.014-.002c-1.008-.176-1.052-.609-.81-1.61.488-2.017 1.646-2.827 3.608-3.245 3.963-.846 7.896-1.84 11.827-2.833l.008-.002.008-.002 2.244-.566c.862-.212 1.133.107 1.236.869q.604 4.483 1.236 8.965c.177 1.26.363 2.52.568 3.898m-22.246 3.007c-.832-.18-1.617-.363-1.668-1.786h.004l.254-.642.15-.38.001-.001v-.003c.522-1.322 1.1-2.789 1.751-4.221.11-.242.861-.337 1.272-.264.84.15 1.684.287 2.529.425 2.466.401 4.936.804 7.312 1.511 1.644.489 3.165 1.407 4.679 2.321.496.299.991.597 1.489.88.794.451 1.559.956 2.324 1.462a56 56 0 0 0 1.658 1.068c.982.601 1.085 1.294.282 2.079-1.225 1.195-2.435 1.921-4.415 1.43-4.319-1.072-8.678-1.99-13.038-2.907q-2.293-.481-4.584-.972m58.307-29.319a220 220 0 0 1-2.818-2.602h.004q.717-.458 1.427-.917c1.343-.865 2.673-1.722 4.04-2.519.326-.191 1.067-.106 1.364.147a451 451 0 0 1 9.126 7.978c.341.308.568.935.568 1.412 0 3.489-.053 6.975-.107 10.463l-.017 1.171c0 .121-.11.246-.11.246-.749-.969-1.481-1.955-2.214-2.942v-.001c-1.657-2.231-3.318-4.468-5.178-6.524-1.882-2.075-3.96-3.972-6.084-5.911m-22.432 39.596-.221-.182-.248-.199c.36-.085.682-.165.978-.24.577-.145 1.057-.265 1.544-.343q1.158-.186 2.317-.379c2.483-.411 4.969-.823 7.47-1.058 1.074-.099 2.31.458 3.329.99 1.58.822 3.116 1.733 4.75 2.703l.003.002c.667.396 1.35.801 2.06 1.214-.498.44-.956.847-1.391 1.233-.664.59-1.275 1.133-1.891 1.671-.27.237-.545.465-.821.693-.276.229-.552.457-.822.693-1.757 1.544-1.787 1.528-3.653.486l-.002-.002-.29-.161c-2.832-1.573-5.696-3.091-8.561-4.61l-.004-.002a908 908 0 0 1-4.136-2.201c-.121-.066-.229-.156-.411-.308m15.433-2.993 1.828 1.128c1.784 1.105 3.471 2.148 5.19 3.134.33.187 1.001-.004 1.408-.22.265-.14.498-.348.73-.555.278-.248.554-.494.88-.618.777-.297 1.73-.62 2.478-.429 2.758.707 4.789 2.471 6.289 4.876.263.424.57.818.904 1.249l.001.001q.237.303.492.642c.623-3.168-5.167-12.917-8.555-14.56a5 5 0 0 1-.177.416c-.133.295-.266.587-.296.889-.157 1.581-1.07 2.105-2.563 2.336-1.96.305-3.902.718-5.928 1.149h-.001l-.004.001-.007.002c-.871.185-1.758.374-2.669.559m-47.047 86.974q.118-.223.245-.448c.186-.336.376-.675.518-1.033l.621-1.562c2.385-6.002 4.771-12.006 7.126-18.021l.195-.491c.678-1.693 1.325-3.308.311-5.365-1.234-2.503-2.247-5.113-3.26-7.724a198 198 0 0 0-1.444-3.654c-.478-1.164-.981-2.32-1.485-3.475q-.347-.793-.689-1.588l-.554.077c0 .164-.015.335-.031.505-.033.37-.066.741.057 1.049a432 432 0 0 0 2.073 5.078l.002.004c.999 2.416 1.997 4.832 2.933 7.271.15.389.337.768.524 1.148.612 1.241 1.228 2.491.565 4.11-1.699 4.16-3.346 8.34-4.992 12.52a1403 1403 0 0 1-3.859 9.722c-.495 1.228-.114 1.675 1.144 1.877m24.23-30q.024-.119.054-.24c.046-.187.092-.378.092-.567q-.008-3.926-.021-7.854v-.001c-.015-4.8-.029-9.602-.027-14.401 0-1.316-.743-1.292-1.478-1.267-.233.007-.466.015-.674-.02-1.095-.183-1.083.586-1.071 1.32v.047q.036 3.357.068 6.714v.015c.044 4.457.088 8.916.141 13.372.03 2.364.422 2.731 2.916 2.882m-4.32-3.763q-.022.086-.04.173c-.357-.816-.746-1.618-1.133-2.418-1.414-2.918-2.811-5.801-2.552-9.234.133-1.771.087-3.554.04-5.337-.025-.953-.05-1.907-.048-2.858.001-.104-.006-.216-.012-.33-.036-.607-.075-1.28.925-1.203l.389.029c1.895.142 2.38.179 2.38 1.566 0 2.684.018 5.37.037 8.055l.004.609.01 1.405.024 3.654v.03q.02 2.759.035 5.519c0 .114-.029.227-.059.34m44.137-92.551-.014-.012-5.425-4.595 3.041-2.353 3.372-2.608c3.347 3.313 3.084 7.354 2.809 11.59l-.033.52-.037.602zm-75.788 68.502.086.008h.001l4.68.429-4.758 6.627-.023.032-.055.077-3.645 5.078v-12.592zm12.038 16.592c1.489 3.597 2.823 6.827 4.272 10.336l-.004.004c-2.816-.538-5.46-1.041-8.237-1.568l-.07-.013-2.018-.384 3.41-4.716zm40.798-25.292c-.742.666-1.557 1.397-3.053.483l.003-.003q.717-.641 1.396-1.252l.004-.004c1.101-.989 2.144-1.927 3.206-2.84a4508 4508 0 0 1 14.457-12.382c.737-.627 1.537-1.258 2.538-.081l-.608.526-.805.698-.006.004a3573 3573 0 0 0-6.63 5.756h-.001v.001a2106 2106 0 0 1-10.247 8.87q-.126.108-.254.224m26.333-1.512c-.017.213-.035.426-.035.631l.004-.003v.01c-.018 1.808-.027 2.709-.477 3.088-.446.376-1.327.236-3.083-.043l-.055-.008c-.429-.069-.867-.093-1.304-.117-.619-.035-1.235-.069-1.82-.228-.461-.126-.863-.459-1.266-.791-.181-.149-.363-.299-.549-.43.109-.145.213-.299.316-.452v-.001c.227-.337.454-.675.754-.929a92 92 0 0 1 4.342-3.484c.48-.363 1.411-.88 1.62-.707.642.535 1.166 1.316 1.474 2.104.157.404.118.882.079 1.36m-82.8 27.614q.917-1.232 1.835-2.46c3.537-4.735 7.058-9.449 10.215-14.425-1.599.063-2.636.708-3.487 1.947a385 385 0 0 1-8.078 11.275c-.864 1.169-.774 2.345-.485 3.663m47.019-65.305-.147-.051-.187-.064c.066-.296.11-.607.153-.917.096-.689.193-1.378.537-1.907.921-1.414 1.93-2.769 2.94-4.125.61-.819 1.221-1.638 1.812-2.471.7-.983 1.375-1.019 2.317-.044l-1.514 2.07-.068.093q-2.753 3.762-5.509 7.532l-.178-.062zm-17.193 59.735.326-.065.001-1.698c.002-2.268.004-4.533-.023-6.802 0-.198-.3-.539-.498-.568a57 57 0 0 0-2.676-.341l-.593-.067-.471-.054 2.121 5.174.886 2.161zm-29.872-38.815.462-.176v.004c1.932 4.697 3.864 9.394 5.874 14.274h-1.654c-.421-2.206-1.336-4.243-2.247-6.275v-.001c-1.129-2.514-2.253-5.019-2.435-7.826m53.815 32.146.495-.418v.004q6.531 8.302 13.062 16.611l.039.05-.473.378q-6.56-8.315-13.123-16.625m-17.651 53.966c-1.54-3.667-2.959-7.047-4.426-10.549-1.023 1.555 2.365 9.9 4.426 10.549m3.091-75.17.407.139-.001.587-.001.586v.003c-.003.975-.006 1.951.009 2.927.011.755-.315 1.045-1.048.931l-.117-.017a15 15 0 0 0-1.159-.14c-.972-.066-1.174-.583-.686-1.328.587-.894 1.213-1.763 1.838-2.631l.001-.001q.38-.527.757-1.056m-39.241-4.393q.2-.045.4-.095h.004c.629 1.537 1.26 3.071 1.901 4.63l.003.008.003.006.472 1.149c-2.607.451-2.794.297-2.783-2.039q.003-1.219.001-2.438zm61.034-22.992-2.371.504c1.846-3.413 1.91-3.361 4.275-1.455q.251.203.54.432l-1.07.227zm-3.478 2.591-.081-.554 2.775-.492 2.932-.52 5.708-1.012.099.565-5.705 1.004-2.987.526zm25.663-35.934v-3.578c-1.65 1.092-1.65 1.342 0 3.578m-103.77-41.609c-9.013-.246-17.945-.968-26.793-2.534-7.362-1.301-14.586-3.146-21.648-5.654-6.061-2.152-11.891-4.781-17.438-8.008-6.109-3.549-11.682-7.832-16.387-13.13-4.37-4.924-7.7-10.52-9.28-16.94-1.522-6.171-1.126-12.327 1.041-18.366 3.572-9.963 10.513-17.193 18.836-23.254 5.966-4.345 12.511-7.667 19.353-10.472 6.981-2.86 14.186-4.961 21.523-6.556 4.763-1.034 9.629-1.654 14.472-2.266 9.064-1.144 18.161-1.148 27.28-.723 8.793.411 17.454 1.69 25.993 3.711 6.795 1.61 13.431 3.758 19.87 6.538 6.171 2.665 12.027 5.848 17.45 9.797 5.203 3.788 9.823 8.206 13.434 13.57 5.086 7.557 7.433 15.859 5.918 24.941-1.056 6.332-3.945 11.902-7.894 16.973-4.917 6.314-11.048 11.183-17.827 15.29-6.776 4.103-13.992 7.231-21.527 9.691-9.053 2.955-18.275 5.067-27.753 5.958-4.231.398-8.472.701-12.713 1.003q-2.956.208-5.91.431m1.804-94.016.021-.122c2.397.214 4.798.398 7.198.583h.001c5.435.417 10.869.835 16.257 1.588 7.766 1.085 15.393 2.98 22.855 5.533 6.361 2.174 12.518 4.774 18.311 8.136 8.265 4.796 15.613 10.696 20.863 18.854 1.977 3.069 3.586 6.358 4.378 9.915.312 1.393-.044 3.072-.52 4.477-2.934 8.653-8.577 15.337-15.562 21.013-5.448 4.426-11.469 7.935-17.834 10.824-6.054 2.747-12.273 5.097-18.781 6.582-1.148.262-2.294.534-3.44.806-3.324.79-6.648 1.579-10.013 2.127-5.009.814-10.072 1.331-15.129 1.753a129.4 129.4 0 0 1-29.274-.858c-6.026-.871-12-2.157-17.961-3.439l-1.605-.345c-6.856-1.474-13.361-4.033-19.686-7.011-8.716-4.106-16.672-9.342-23.14-16.573-3.957-4.426-6.952-9.467-8.65-15.202-.642-2.176.138-4.158.913-6.129l.209-.533c3.285-8.47 9.181-14.858 16.24-20.31a79.6 79.6 0 0 1 22.315-12.144c6.263-2.204 12.613-4.257 19.063-5.782a119.3 119.3 0 0 1 22.469-3.077c2.417-.101 4.831-.234 7.246-.367h.001q1.616-.09 3.233-.175zm90.755 41.469c-.04.151-.086.325-.13.534-1.726-4.538-3.949-8.437-6.802-12.007-3.982-4.983-8.752-9.046-14.006-12.599-6.296-4.257-13.101-7.52-20.204-10.123-7.01-2.567-14.223-4.459-21.589-5.805-11.466-2.093-23.012-2.992-34.639-2.313a242 242 0 0 0-19.441 1.914c-3.625.507-7.201 1.388-10.77 2.268q-1.345.334-2.69.658c-6.483 1.55-12.738 3.824-18.777 6.596-9.493 4.356-18.253 9.878-25.296 17.732-3.649 4.07-6.718 8.562-8.441 13.842-.084.249-.264.469-.543.674-.179-2.801-.322-5.558.253-8.345 2.263-10.974 8.932-18.931 17.439-25.63 6.739-5.31 14.197-9.409 22.249-12.29 6.116-2.193 12.32-4.258 18.631-5.761 9.856-2.35 19.924-3.425 30.066-3.681 9.328-.235 18.609.41 27.816 1.83 4.77.736 9.489 1.873 14.168 3.076a127 127 0 0 1 11.641 3.63c6.439 2.339 12.573 5.327 18.345 9.06 4.807 3.11 9.21 6.688 13.02 10.949 4.228 4.73 7.491 10.079 8.932 16.298.466 2.019.585 4.119.703 6.217.05.873.099 1.746.173 2.612.017.192-.036.39-.108.664M248.385 166.13c7.619 1.845 15.37 2.772 22.645 2.699l.004.004c6.545.029 12.444-.547 18.318-1.577 9.468-1.661 18.473-4.561 26.708-9.618 6.553-4.022 12.042-9.038 15.1-16.313 1.84-4.378 2.027-8.921.865-13.398-1.419-5.459-4.712-9.863-8.914-13.574-5.932-5.239-12.848-8.701-20.313-11.198-6.897-2.306-13.963-3.685-21.197-4.308-11.616-1.005-23.093-.18-34.368 2.779-7.384 1.94-14.435 4.756-20.801 9.072-6.002 4.066-10.989 8.983-13.607 15.964-2.068 5.519-1.719 10.938.675 16.185 2.523 5.522 6.666 9.724 11.587 13.2 7.062 4.99 14.971 8.067 23.298 10.083m46.72-1.463c-7.769 1.947-15.649 2.728-24.005 2.783v.004c-6.05-.121-12.419-.616-18.759-1.863-7.957-1.565-15.554-4.066-22.568-8.092-5.992-3.439-11.162-7.832-14.542-14.076-1.064-1.966-.961-3.634.069-5.511 3.997-7.293 10.252-12.023 17.454-15.789 5.863-3.065 12.074-5.126 18.48-6.552 8.411-1.87 16.969-2.673 25.575-2.079 5.628.388 11.293.924 16.808 2.053 4.843.99 9.577 2.691 14.215 4.451 5.068 1.922 9.68 4.745 13.831 8.276 3.315 2.82 5.98 6.149 7.949 10.036.704 1.389.363 2.68-.289 3.956-2.263 4.422-5.471 8.041-9.376 11.07-7.388 5.734-15.847 9.078-24.842 11.333m35.747-27.27q.065-.2.116-.346c.07-.206.12-.353.148-.503.997-5.603-.58-10.612-3.634-15.232-3.146-4.763-7.487-8.253-12.331-11.139-5.416-3.223-11.235-5.452-17.314-7.128-5.573-1.54-11.235-2.497-16.962-2.952-12.54-.993-24.882.14-36.938 3.92-6.989 2.193-13.574 5.17-19.389 9.665-4.972 3.847-8.991 8.441-10.857 14.605-.972 3.201-.965 6.431-.363 9.742.103-.038.184-.062.247-.081.104-.032.162-.049.196-.088.121-.143.217-.304.305-.469 2.779-5.214 6.812-9.28 11.623-12.606 6.684-4.62 14.084-7.616 21.93-9.662 8.122-2.119 16.365-3.208 24.736-3.153 4.304.026 8.638.26 12.899.851 4.869.678 9.72 1.65 14.483 2.874 4.91 1.262 9.6 3.216 14.066 5.673 5.155 2.834 9.881 6.196 13.478 10.934.816 1.073 1.575 2.189 2.375 3.365.382.562.774 1.138 1.186 1.73" class="Union"/>
    </g>
</svg>
