<svg xmlns="http://www.w3.org/2000/svg" width="550" height="550" fill="none" viewBox="0 0 550 550">
    <path fill="#fff" d="M129.337 42.133c-.115.134-.21.25-.295.354a5 5 0 0 1-.408.46q-4.573 4.38-9.138 8.768h-.002v.001h-.001v.001h-.001v.001c-8.438 8.106-16.877 16.213-25.437 24.189-1.897 1.767-4.17 3.135-6.44 4.5-.95.572-1.899 1.142-2.82 1.742-2.176 1.416-4.365 2.815-6.555 4.215h-.001q-2.17 1.385-4.337 2.779c-1.137.732-1.494.578-1.653-.675a5976 5976 0 0 0-1.645-12.824q-.497-3.847-.991-7.695-.572-4.456-1.137-8.915c-.687-5.41-1.374-10.818-2.083-16.221a1676 1676 0 0 0-2.338-17c-.173-1.24.164-1.615 1.374-1.287 2.557.7 5.113 1.409 7.668 2.116a1918 1918 0 0 0 11.785 3.239c5.74 1.553 11.486 3.077 17.232 4.6l.008.003 5.974 1.585 3.746 1h.003a5582 5582 0 0 1 16.364 4.38c.243.063.46.218.71.396.128.091.265.189.418.283zM73.454 87.287c.196-.125.337-.21.443-.274.158-.096.236-.142.3-.203q10.429-10 20.853-20.003l.003-.002.002-.003.003-.002.002-.002.012-.011 10.651-10.218q1.76-1.687-.26-3.046L91.5 44.073l-.02-.014-.002-.002-.006-.003-.002-.002-.002-.001A42113 42113 0 0 0 71.55 30.575a512 512 0 0 0-3.54-2.367c-.794-.529-1.627-1.083-2.523-1.682l6.24 47.6.006.04 1.721 13.126zm-3.282-60.081q-.123.268-.246.53l.223.143q.225.142.442.29l7.182 4.866.008.005.003.002c9.819 6.65 19.637 13.301 29.434 19.98 1.041.708 1.832.68 2.854.014a487 487 0 0 1 6.649-4.21q1.882-1.176 3.757-2.36c1.38-.872 2.75-1.759 4.26-2.736h.001l.001-.002c.642-.415 1.31-.847 2.014-1.3-9.469-2.55-18.828-5.068-28.132-7.571l-.005-.002-28.445-7.654zm12.13 55.067-1.482.91c.529-.572 1.054-1.156 1.582-1.743 1.22-1.355 2.453-2.726 3.772-4.005q1.733-1.68 3.465-3.362c6.005-5.833 12.009-11.663 18.182-17.311 1.885-1.724 4.078-3.11 6.27-4.495.884-.56 1.769-1.118 2.632-1.699 1.456-.978 2.974-1.865 4.681-2.569q-.355.365-.707.734a51 51 0 0 1-1.511 1.536q-3.348 3.223-6.69 6.453l-.001.001h-.001c-6.399 6.182-12.798 12.363-19.311 18.422-1.572 1.463-3.461 2.587-5.349 3.709a75 75 0 0 0-2.354 1.439c-1.055.68-2.128 1.337-3.178 1.98m119.095-3.628-8.474-3.133c3.504-6.42 7.471-12.205 13.559-16.374 2.444-1.67 4.704-3.608 6.965-5.547a164 164 0 0 1 3.46-2.912c.333-.27.907-.516 1.258-.41.304.092.526.68.656 1.09a488 488 0 0 1 1.283 3.99l.001.002.001.001v.001l.001.002c.562 1.765 1.124 3.53 1.712 5.287.621 1.853 1.258 3.7 1.896 5.546v.002c.876 2.54 1.752 5.079 2.587 7.635.376 1.147.968 1.556 2.111 1.407l.073-.01.192-.026h.002c.71-.097 1.431-.196 2.133-.128.694.073 1.678.212 1.991.685 1.653 2.506 3.89 2.106 6.256 1.556 15.646-3.61 31.509-4.815 47.521-4.14 10.652.448 21.198 1.755 31.628 4.092 8.681 1.943 17.169 4.468 25.349 7.93 12.744 5.393 24.442 12.396 33.701 22.928 5.259 5.977 9.293 12.696 10.879 20.562.776 3.846 1.056 7.837 1.104 11.77.097 7.687.043 15.374-.01 23.063q-.024 3.328-.043 6.658c-.005 1.103.299 1.769 1.46 2.096 2.025.567 4.04 1.167 6.055 1.767l.002.001h.001l.001.001h.003l.002.001.002.001h.002c1.872.558 3.745 1.116 5.626 1.647 1.778.501 2.072.212 2.487-1.639.472-2.082.983-4.165 1.59-6.208.116-.386.767-.863 1.176-.868.983-.013 1.967.026 2.951.066h.002c1.482.059 2.961.118 4.427-.003 4.198-.352 7.986.944 11.804 2.357 4.304 1.595 8.628 3.138 12.99 4.569 1.484.487 1.928 1.007 1.393 2.598-.523 1.548-.928 3.135-1.334 4.723v.001l-.001.003a93 93 0 0 1-.887 3.303c-.323 1.101.373 1.305 1.058 1.506l.06.017 2.166.647c2.911.873 5.822 1.745 8.761 2.506 1.523.395 2.135.959 2.116 2.67-.09 8.072-.099 16.144-.108 24.218v.001q-.003 4.037-.013 8.075c-.014 5.567-.954 10.989-3.099 16.118-2.535 6.059-6.256 11.385-10.821 16.118-.22.229-.415.423-.584.591-.521.519-.793.789-.799 1.066-.007.301.301.609.944 1.253q.22.22.492.498c4.854 4.974 8.84 10.546 11.404 17.034 1.393 3.533 2.555 7.162 2.598 11.018.125 11.976.221 23.958.317 35.934v.043l.001.01.001.125v.014c.024 2.849.024 2.918-2.56 3.827a2179 2179 0 0 1-20.572 7.095 3220 3220 0 0 1-21.863 7.317l-2.236.741c-5.033 1.67-10.068 3.34-15.135 4.889-1.596.487-1.9 1.335-1.895 2.786.039 11.568.029 23.136.015 34.704 0 1.572-.028 3.144-.056 4.717a251 251 0 0 0-.055 4.913c.002 2.876.024 5.752.046 8.628v.007c.04 5.144.079 10.289.002 15.431-.159 10.315-4.266 19.141-10.7 27.007-5.673 6.936-12.614 12.368-20.254 16.942-8.42 5.037-17.4 8.797-26.751 11.761-9.722 3.08-19.646 5.114-29.735 6.401-13.327 1.696-26.707 1.725-40.078.655a160.3 160.3 0 0 1-26.553-4.42c-9.014-2.284-17.849-5.133-26.216-9.268a236 236 0 0 1-4.719-2.427h-.001l-.001-.001h-.001l-.001-.001c-1.455-.762-2.909-1.524-4.377-2.256-.645-.323-1.351-.525-2.052-.727a34 34 0 0 1-.662-.194c-4.058-1.248-7.341-3.495-9.799-7.047-1.165-1.688-2.63-3.183-4.081-4.664l-.206-.21-.249-.254c-4.825-4.926-8.806-10.416-11.505-16.793-2.159-5.1-3.061-10.455-3.119-15.959-.038-3.427-.033-6.854.005-10.281.015-1.191-.337-1.89-1.528-2.454-8.931-4.208-14.151-14.103-12.445-23.777.313-1.774.858-3.514 1.403-5.234.279-.887.192-1.364-.767-1.702a1326 1326 0 0 1-8.775-3.119l-.002-.001-.003-.001-.004-.001-.003-.001-.004-.001a1639 1639 0 0 0-6.744-2.404l-4.104-1.458-.004-.002c-4.566-1.624-9.131-3.248-13.726-4.787-4.704-1.576-9.452-3.032-14.214-4.42l-.234-.068c-2.165-.629-2.224-.646-2.229-3.157-.002-2.936-.013-5.872-.023-8.809v-.003c-.028-7.881-.056-15.762.067-23.641.038-2.506.838-5.061 1.61-7.49 2.289-7.201 6.362-13.347 11.568-18.769.795-.829.8-1.528.077-2.367a48 48 0 0 1-7.688-12.103c-1.764-3.976-3.157-8.136-3.244-12.488-.154-7.529-.156-15.063-.159-22.596q0-3.964-.01-7.929l-.002-.77-.002-.365c-.01-2.933-.021-5.866.086-8.799.299-8.218 3.432-15.444 7.996-22.119.285-.415.926-.772 1.432-.825 10.387-1.017 20.774-2 31.166-2.959 6.237-.574 12.474-1.123 18.721-1.624 1.359-.111 1.803-.675 1.803-2.02a9044 9044 0 0 1 0-44.503c0-1.677-.781-2.747-1.952-3.803-2.332-2.101-4.643-4.226-6.955-6.351a961 961 0 0 0-6.749-6.167c-1.089-.983-1.475-2.058-1.47-3.509.021-5.236.022-10.473.022-15.71.001-5.528.002-11.056.026-16.584 0-.631.367-1.489.854-1.865 8.782-6.748 18.431-11.968 28.905-15.53 4.288-1.456 8.645-2.704 13.003-3.952a580 580 0 0 0 6.306-1.832c.209-.063.405-.17.694-.325.171-.092.374-.202.632-.33zm-31.918 70.186.1-.033q.401.912.795 1.826l.001.002.001.002.001.002a123 123 0 0 0 1.839 4.108c3.418 7.143 8.503 12.961 14.436 18.099 7.659 6.632 16.321 11.616 25.585 15.626 8.907 3.856 18.133 6.618 27.599 8.739 18.143 4.063 36.488 4.849 54.924 3.408 7.49-.583 14.961-1.938 22.336-3.456 6.42-1.326 12.812-3.017 19-5.172 13.559-4.724 26.173-11.274 36.792-21.145 5.677-5.273 10.285-11.39 13.423-18.533.34-.776.603-1.582.893-2.47v-.001l.001-.001v-.002c.146-.446.298-.912.47-1.406.059.194.117.353.167.489.085.232.147.399.147.566-.03 2.419-.049 4.838-.068 7.258-.051 6.361-.102 12.722-.332 19.074-.237 6.565-2.835 12.44-6.344 17.916-5.557 8.666-13.057 15.342-21.796 20.596-3.881 2.334-7.951 4.365-12.016 6.394h-.001q-1.634.814-3.262 1.636c-1.166.593-1.6 1.268-1.595 2.574.024 5.383.027 10.765.031 16.147v.025c.003 5.374.007 10.748.031 16.122.003.5.225 1.001.446 1.501.103.232.206.465.287.697.077-.229.175-.458.274-.688.214-.501.43-1.003.43-1.505.039-8.177.037-16.356.034-24.536l-.001-5.667v-2.275c.686.189 1.342.367 1.979.541h.002c1.24.337 2.405.655 3.567.983q2.543.719 5.082 1.447c2.365.677 4.73 1.353 7.098 2.013 3.698 1.032 7.4 2.048 11.101 3.063q2.41.66 4.82 1.324l4.373 1.204.005.001c3.847 1.059 7.692 2.117 11.533 3.2 1.986.561 3.964 1.148 5.942 1.734l.003.001.002.001c1.759.521 3.519 1.043 5.283 1.546 1.089.309 1.499.897 1.494 2.063-.031 7.234-.03 14.465-.028 21.698q.001 4.172-.001 8.345c0 .34-.032.68-.071 1.104a35 35 0 0 0-.064.714l-1.29-.355-.947-.259c-1.354-.37-2.647-.724-3.937-1.088q-4.182-1.184-8.362-2.373c-4.813-1.368-9.627-2.737-14.446-4.086-8.638-2.419-17.275-4.825-25.937-7.153-.732-.192-1.672.131-2.443.41-2.4.865-4.786 1.774-7.172 2.684-5.045 1.921-10.089 3.843-15.256 5.351-5.883 1.715-11.961 2.801-18.021 3.884v.001h-.001l-2.82.506c-12.397 2.246-24.948 2.362-37.461 1.711-7.276-.379-14.538-1.485-21.759-2.586l-.364-.055c-10.493-1.596-20.577-4.709-30.468-8.565-11.11-4.329-21.121-10.368-29.927-18.369-5.953-5.413-10.671-11.747-13.655-19.285-1.88-4.743-2.579-9.703-2.584-14.764-.017-13.821-.014-27.639-.011-41.459v-.018l.002-15.548v-5.447zM376.151 303.69c5.126-5.478 9.092-11.665 11.724-18.814l.032.289.021.172c.043.34.085.681.085 1.021q-.008 13.146-.023 26.294v.004c-.013 11.692-.025 23.384-.025 35.075 0 3.09-.007 6.18-.013 9.27v.004c-.02 9.12-.039 18.239.109 27.358.212 13.057-4.671 23.902-13.602 33.142-6.7 6.936-14.552 12.277-23.088 16.687-7.572 3.909-15.467 7.032-23.666 9.24-6.488 1.75-13.111 3.036-19.719 4.285-11.462 2.164-23.063 2.718-34.694 2.362-7.915-.241-15.834-.704-23.623-2.275q-1.761-.356-3.524-.705h-.001v-.001h-.002c-5.322-1.059-10.645-2.119-15.888-3.473-3.535-.915-6.972-2.202-10.406-3.487-1.02-.382-2.039-.764-3.061-1.136-.622-.221-1.152-.911-1.542-1.504-3.75-5.692-9.067-8.063-15.791-7.808-1.147.043-2.458-.627-3.47-1.306-7.996-5.37-15.12-11.655-20.254-19.945a5 5 0 0 1-.248-.479l-.001-.001a27 27 0 0 0-.3-.614c8.117.173 14.392-3.162 19.501-9.467.035.278.07.506.099.703.052.346.089.594.089.839q.007.718.022 1.435c.026 1.345.052 2.69-.041 4.026-.125 1.818.4 2.864 2.217 3.678 7.573 3.389 15.256 6.459 23.344 8.329l1.37.317c6.68 1.546 13.379 3.097 20.146 4.103 11.25 1.673 22.606 1.894 33.976 1.461 9.115-.347 18.123-1.543 27.079-3.187 1.311-.24 2.614-.536 3.916-.832h.002l.007-.002.006-.001q.933-.214 1.868-.418c.915-.197 1.364-.646 1.609-1.672.634-2.633 1.346-5.245 2.059-7.857v-.002l.002-.005v-.003l.001-.001c.425-1.559.851-3.119 1.259-4.684 1.037-3.973 2.033-7.958 3.029-11.944l.278-1.113q.424-1.692.854-3.382c.859-3.381 1.717-6.762 2.462-10.167.593-2.704 1.152-5.471 1.191-8.218.105-7.046.088-14.097.07-21.148q-.011-3.966-.013-7.931c0-.8.005-1.605.068-2.405.149-1.914-.265-2.295-2.184-1.837-15.983 3.808-32.216 5.264-48.595 4.464-6.675-.327-13.326-1.221-19.966-2.113h-.001l-3.309-.442c-9.35-1.229-18.402-3.793-27.261-6.979-2.966-1.069-5.859-2.346-8.751-3.623a328 328 0 0 0-3.343-1.462c-1.422-.613-1.687-.425-2.019 1.07a804 804 0 0 1-3.413 14.672c-1.403 5.76-2.849 11.51-4.324 17.25a572 572 0 0 1-2.414 8.986l-.001.004-.288 1.049-.26.946-.17.622c-.063.227-.171.442-.297.691v.001h-.001q-.1.195-.208.426c-6.637-8.155-14.951-11.279-25.348-8.719a40 40 0 0 0-.055-.685c-.039-.465-.075-.885-.075-1.306q-.006-21.33-.005-42.662v-.067q.001-2.223.01-4.446c.013-3.762.025-7.523-.044-11.282-.029-1.643.294-2.458 2.136-2.419.768.017 1.541-.09 2.313-.196s1.545-.212 2.314-.195c.776.015 1.783.448 2.27 1.037 6.449 7.803 14.262 13.973 23.126 18.691 6.059 3.23 12.354 6.122 18.789 8.513 5.792 2.148 11.841 3.643 17.855 5.129l.62.153c12.691 3.133 25.642 4.28 38.675 4.42 10.238.111 20.452-.53 30.53-2.405 6.666-1.239 13.357-2.506 19.888-4.304 9.432-2.593 18.508-6.213 27.098-10.99 7.847-4.362 15.053-9.519 21.208-16.099m-247.049-1.518 1.232-.111.011-.001h.001l.005-.001.028-.002a301 301 0 0 0 1.995-.184q3.084-.298 6.167-.601h.006l.007-.001.006-.001h.006c3.791-.372 7.582-.744 11.377-1.093a1780 1780 0 0 1 15.993-1.389l.012-.001c6.233-.52 12.466-1.04 18.704-1.469.699-.048 1.595.28 2.135.743 5.028 4.333 10.455 8.078 16.253 11.298 8.488 4.714 17.463 8.295 26.795 10.845 4.895 1.339 9.887 2.321 14.877 3.302h.003l.001.001h.003c1.508.297 3.016.593 4.521.9 7.625 1.552 15.376 2.048 23.126 2.318 12.113.42 24.192-.14 36.126-2.4 6.502-1.229 13.019-2.487 19.386-4.256 8.749-2.43 17.184-5.755 25.204-10.122 9.688-5.273 18.504-11.583 25.358-20.365 3.745-4.8 6.565-10.059 8.213-15.954.468-1.672-.298-2.015-1.614-2.347-2.319-.591-4.623-1.238-6.929-1.885h-.002l-.002-.001h-.003q-1.168-.33-2.338-.654-1.262-.35-2.522-.702l-1.453-.406c-3.667-1.023-7.333-2.047-11.015-3.014-.689-.183-1.658-.081-2.261.28-6.801 4.092-13.987 7.36-21.425 10.055-10.03 3.629-20.359 6.304-30.925 7.596a279 279 0 0 1-28.158 2 148 148 0 0 1-35.384-3.567c-6.815-1.532-13.674-3.113-20.258-5.398-6.58-2.28-12.956-5.239-19.218-8.319-7.259-3.572-13.756-8.344-19.588-13.988-4.507-4.357-8.286-9.269-11.428-14.72.809 2.174 1.711 4.299 2.868 6.28 3.61 6.184 8.357 11.409 13.905 15.911.969.786 1.528 1.634 1.519 2.969-.021 5.244-.024 10.489-.027 15.733-.003 5.572-.006 11.144-.031 16.715 0 .429-.237.858-.473 1.285-.109.197-.218.394-.303.59-.075-.196-.171-.392-.267-.589-.205-.42-.41-.841-.413-1.262-.035-8.227-.032-16.455-.03-24.683l.001-6.16v-1.923q-.433-.001-.791-.01h-.001c-.453-.009-.834-.017-1.208.015-1.778.153-3.555.316-5.332.478l-.006.001h-.005l-.005.001h-.005l-.004.001q-2.278.21-4.558.411l-3.788.331-.001.001h-.004c-14.034 1.23-28.069 2.459-42.108 3.644-1.455.121-2.005.53-1.99 2.102.054 7.554.048 15.111.042 22.667v.002q-.004 3.606-.004 7.21v1.88zm153.439-102.237c1.371-.122 3.023-.251 4.88-.396 5.101-.399 11.75-.919 18.358-1.749 8.266-1.036 16.378-2.993 24.365-5.456 9.476-2.926 18.581-6.666 27.093-11.751 9.52-5.688 17.911-12.624 24.042-22.061 4.41-6.787 6.637-14.2 6.608-22.235-.024-6.252-1.764-12.137-4.728-17.641-3.861-7.163-9.269-13.014-15.564-18.08-9.596-7.722-20.47-13.149-32.038-17.106-6.252-2.14-12.696-3.847-19.174-5.172-7.216-1.48-14.533-2.704-21.869-3.33-12.011-1.032-24.076-1.143-36.068.486-6.83.926-13.684 1.865-20.412 3.326-8.831 1.918-17.439 4.68-25.72 8.367-9.009 4.01-17.511 8.855-24.953 15.405-8.435 7.423-14.957 16.07-17.241 27.368-1.176 5.823-.959 11.645.689 17.314 2.617 9.003 7.939 16.378 14.735 22.673 10.064 9.322 21.993 15.564 34.776 20.205 8.946 3.249 18.157 5.538 27.575 7.105 10.17 1.687 20.389 2.502 34.637 2.738zm-86.215 173.236c.112.441.2.829.279 1.179.153.674.273 1.207.473 1.708 2.261 5.615 2.309 11.245.202 16.913l-.047.128c-.32.854-.657 1.758-.68 2.644a189 189 0 0 0 0 9.799c.014.511.453 1.272.896 1.465q1.038.458 2.075.919c3.161 1.405 6.325 2.812 9.58 3.959 8.927 3.152 18.065 5.48 27.426 7.037 9.799 1.629 19.641 2.531 29.551 2.574 5.823.029 11.684-.198 17.473-.848 5.221-.588 10.411-1.417 15.603-2.246 2.511-.401 5.022-.803 7.537-1.176 1.422-.213 1.847-.897 1.837-2.348-.047-6.971-.045-13.944-.043-20.916q.002-4.482-.001-8.963c0-.375-.037-.751-.075-1.128v-.001a24 24 0 0 1-.05-.539c-38.333 7.963-75.549 5.77-112.036-10.16m6.455 90.451c.122.163.2.268.303.319 1.002.495 1.996 1.011 2.991 1.526 2.328 1.208 4.655 2.416 7.087 3.352 6.016 2.318 12.108 4.468 18.273 6.353 4.487 1.368 9.1 2.434 13.723 3.21 5.952 1.002 11.968 1.672 17.973 2.318 8.749.94 17.54 1.075 26.298.337 6.975-.588 13.954-1.354 20.856-2.501 6.204-1.032 12.417-2.319 18.418-4.174 6.56-2.029 12.98-4.599 19.27-7.36 9.592-4.208 18.234-9.934 25.652-17.41 6.714-6.763 11.958-14.475 13.515-24.009.606-3.705.659-7.502.712-11.298v-.004c.023-1.673.047-3.347.117-5.013.006-.121-.042-.241-.116-.424v-.001c-.044-.11-.098-.242-.154-.409-2.458 7.615-6.613 13.92-11.9 19.521-4.565 4.829-9.761 8.888-15.352 12.46-7.871 5.027-16.282 8.97-25.127 11.866-6.202 2.032-12.573 3.573-18.922 5.108h-.001l-.001.001-.563.136c-8.555 2.067-17.289 3.065-26.057 3.499-16.47.814-32.838-.044-49.019-3.577-7.481-1.634-14.836-3.648-22.003-6.314-1.162-.434-1.393-.019-1.871.877l-.422.799v.001l-.001.001c-.949 1.802-1.91 3.628-3.216 5.147-2.699 3.143-6.299 4.844-10.748 5.307h.005c.118.14.207.259.28.356m249.275-170.974q-.252.071-.46.127c-.276.075-.505.137-.726.22-.925.348-1.848.704-2.771 1.06l-.001.001-.002.001h-.001c-1.915.74-3.831 1.48-5.775 2.143-2.543.868-5.1 1.69-7.658 2.512l-.008.003-.009.003-.008.003-.009.002c-1.804.58-3.609 1.161-5.409 1.757a1974 1974 0 0 0-8.51 2.843 1674 1674 0 0 1-10.491 3.496 2362 2362 0 0 1-19.053 6.155c-1.229.39-1.745 1.022-1.735 2.419.049 7.211.044 14.421.04 21.632q-.002 4.12-.002 8.243c0 .339.019.681.041 1.062l.018.322.014.288q.175-.03.328-.053l.166-.025.011-.002a5 5 0 0 0 .743-.146c4.218-1.355 8.435-2.714 12.648-4.092 4.959-1.624 9.912-3.258 14.867-4.893l.007-.003.008-.003.008-.002 2.455-.81 1.814-.599 2.968-.977a719 719 0 0 0 9.935-3.322c2.543-.879 5.075-1.784 7.608-2.689l.008-.003.008-.003c2.532-.905 5.065-1.81 7.608-2.689 1.161-.4 1.45-1.065 1.446-2.241-.035-7.149-.032-14.298-.03-21.446q.002-4.294.001-8.588c0-.344-.026-.688-.054-1.073q-.022-.295-.043-.628zm-345.96 30.173c-.026.258-.052.477-.075.67a7 7 0 0 0-.075.887l-.001 8.141c0 7.461.001 14.921-.028 22.379 0 1.147.458 1.634 1.485 1.89l1.002.249.02.005c1.734.43 3.469.86 5.157 1.428 3.787 1.273 7.552 2.603 11.318 3.933h.001v.001h.003q1.746.618 3.495 1.233l3.998 1.405.003.001.003.001.002.001.003.001.003.001c7.571 2.662 15.143 5.324 22.7 8.027.964.347 1.456.14 1.952-.684 2.266-3.779 5.548-6.444 9.476-8.319.844-.405 1.22-.801 1.215-1.75a1730 1730 0 0 1-.005-17.347c0-.911-.231-1.384-1.2-1.711a2707 2707 0 0 1-24.996-8.599c-3.73-1.302-7.456-2.617-11.182-3.931l-.015-.005a2401 2401 0 0 0-16.918-5.921c-1.614-.557-3.279-.968-4.987-1.39h-.003v-.001c-.775-.191-1.559-.385-2.351-.595m301.727-47.275c.336-.121.624-.216.879-.3.456-.15.806-.265 1.131-.432 1.157-.605 2.322-1.199 3.486-1.793h.001l.001-.001c2.965-1.512 5.931-3.026 8.793-4.718 7.196-4.261 13.646-9.471 18.991-15.964 5.803-7.042 9.948-14.899 10.387-24.143.281-5.971.255-11.958.229-17.943v-.003c-.011-2.422-.022-4.843-.012-7.263 0-.161-.08-.322-.185-.535q-.058-.115-.121-.252l-.07-.162c-2.126 6.266-5.307 11.65-9.433 16.479-8.83 10.329-19.988 17.381-32.279 22.808-1.316.579-1.837 1.292-1.832 2.753.045 7.572.041 15.144.036 22.716l-.002 6.681zm-252.761 109.01c-.019 12.078 9.438 21.116 20.548 21.289 12.614.198 21.444-9.664 21.67-20.456.266-12.638-9.529-21.699-20.576-21.931-12.71-.269-22.013 10.195-21.637 21.102zm164.593-47c-.671.144-1.294.286-1.885.422-1.21.276-2.287.523-3.378.691-1.394.216-2.787.445-4.18.674-3.994.656-7.99 1.312-12.01 1.659-7.081.612-14.205 1.027-21.31 1.046-9.529.024-19.053-.617-28.433-2.415l-1.269-.243c-5.982-1.146-11.988-2.296-17.804-4.047-5.6-1.683-11.062-3.84-16.517-5.995a990 990 0 0 0-3.592-1.413c-1.484-.578-1.735-.096-1.971 1.138a128 128 0 0 1-1.441 6.574 2098 2098 0 0 1-3.336 13.172l-1.041 4.079q-.57 2.236-1.135 4.471v.001l-.001.002v.002l-.001.001v.001a898 898 0 0 1-3.051 11.823l-.07.257c-.57 2.114-.575 2.13 1.689 3.03 1.311.521 2.616 1.059 3.921 1.597 3.033 1.252 6.068 2.504 9.175 3.532 5.114 1.692 10.301 3.273 15.569 4.352 6.584 1.355 13.269 2.27 19.935 3.172 11.351 1.533 22.765 1.398 34.14.549 5.621-.422 11.215-1.274 16.799-2.125q1.854-.283 3.706-.559c6.423-.954 6.449-1.041 7.976-6.102l.03-.097c.077-.255.139-.516.202-.776l1.186-4.769.014-.057.001-.006.002-.006.001-.006.002-.006.001-.006c.963-3.876 1.925-7.751 2.905-11.624.598-2.36 1.205-4.719 1.813-7.078l.002-.009v-.002l.001-.003.001-.003.001-.002c.882-3.429 1.765-6.859 2.621-10.293.228-.915.353-1.856.494-2.913v-.001c.071-.53.145-1.089.238-1.689m-132.653-76.311-.005-.006-.001-.001-.003-.003c-.26-.287-.4-.44-.543-.587-.805-.82-1.625-1.626-2.446-2.432v-.001l-.001-.001h-.001v-.001h-.001c-1.764-1.734-3.528-3.467-5.133-5.335-8.237-9.568-11.741-20.731-11.158-33.326.178-3.864.115-7.738.052-11.611-.027-1.692-.055-3.384-.062-5.075 0-.089-.05-.177-.117-.296q-.06-.102-.129-.244-2.27.193-4.547.384c-2.73.229-5.466.459-8.202.7l-2.425.216-.012.001h-.005l-.003.001h-.002c-11.446 1.016-22.887 2.032-34.329 3.103-.805.077-1.928.477-2.275 1.085l-.647 1.133c-1.61 2.811-3.23 5.642-4.39 8.642-4.343 11.221-2.883 22.037 2.901 32.39 3.587 6.425 8.517 11.722 14.181 16.345.598.487 1.663.65 2.477.583 1.34-.109 2.674-.286 4.009-.464h.001c1.211-.161 2.423-.323 3.64-.433 5.822-.522 11.648-1.004 17.472-1.485l.005-.001.048-.003a5573 5573 0 0 1 12.482-1.023l.009-.001c3.913-.316 7.827-.633 11.739-.962 1.609-.134 3.215-.301 4.943-.48.94-.098 1.916-.199 2.948-.301l-.01-.004zm215.663-80.706c.084-.236.182-.461.277-.68.207-.477.399-.919.389-1.358-.01-.526-.425-1.384-.839-1.509-2.139-.649-4.294-1.247-6.449-1.846h-.001l-.001-.001h-.003c-1.704-.474-3.408-.947-5.104-1.445-1.316-.386-1.495.149-1.625 1.292l-.036.316-.039.349-.001.001c-.251 2.219-.505 4.463-1.109 6.592a45.7 45.7 0 0 1-7.124 14.6c-7.471 10.233-17.386 17.492-28.496 23.271-1.35.703-2.717 1.376-4.159 2.087l-.005.002-.01.005c-.787.388-1.597.787-2.439 1.208.244.108.439.203.607.283.279.134.479.23.689.291 4.054 1.166 8.108 2.332 12.166 3.475 4.79 1.348 9.59 2.673 14.385 3.998l.008.002.732.203q3.88 1.071 7.76 2.133l.003.001.004.001.003.001.003.001.004.001c3.843 1.054 7.685 2.107 11.522 3.178 1.59.444 3.175.907 4.76 1.371 2.412.706 4.825 1.412 7.257 2.047.882.231 2.019.077 2.872-.29a107 107 0 0 0 7.491-3.6c9.428-4.955 17.993-11.033 24.861-19.29 5.543-6.661 9.385-14.108 10.392-22.842l.007-.059c.384-3.324.384-3.331-2.735-4.38l-.022-.008-.029-.01-.012-.005-.049-.019-.046-.018-.036-.015q-.072-.03-.142-.056l-.075-.026-.037-.012q-1.565-.457-3.133-.912l-.016-.004-.001-.001h-.001q-2.582-.747-5.154-1.507c-1.189-.354-1.379.332-1.575 1.037a4.4 4.4 0 0 1-.189.578c-.42.968.043 1.397.891 1.629q.523.14 1.049.269h.002v.001c.634.158 1.269.317 1.89.515l.022.008c.697.224 1.407.452 1.178 1.525-1.08 5.095-2.666 10.002-5.273 14.537-3.967 6.893-9.283 12.614-15.458 17.56-5.138 4.116-10.71 7.557-16.542 10.608-1.321.69-2.391.829-3.755.29-.973-.387-1.999-.642-3.023-.897l-.001-.001c-.431-.107-.863-.214-1.29-.332l-6.2-1.687-.016-.004-.005-.002-.006-.001-.005-.002-.005-.001a3356 3356 0 0 1-12.787-3.494 2465 2465 0 0 1-19.603-5.485c-.42-.12-.897-.53-1.046-.92-.082-.213.409-.791.766-.989a134 134 0 0 1 2.875-1.544h.001v-.001h.001l.002-.001c1.44-.758 2.879-1.516 4.274-2.353 7.543-4.516 14.388-9.895 20.013-16.721 5.085-6.164 8.652-13.067 9.972-21 .232-1.388.752-1.581 1.904-1.239 1.128.331 2.263.638 3.426.952l1.249.34zM179.422 299.28c.222.298.408.557.573.789.296.413.529.738.791 1.038 4.835 5.466 10.407 10.04 16.543 13.983 7.813 5.022 16.2 8.854 24.938 11.876 7.934 2.743 16.022 5.018 24.365 6.126q1.944.26 3.889.526h.003l.003.001h.006c6.653.907 13.318 1.815 20.007 2.129 15.279.714 30.51-.183 45.467-3.702 6.487-1.527 12.985-3.147 19.309-5.229a107 107 0 0 0 23.83-11.226c10.531-6.671 19.603-14.744 25.054-26.235 1.894-4.001 3.355-8.165 3.442-13.154q-.127.25-.235.455l-.143.271-.004.008c-.201.377-.343.645-.443.929-2.178 6.141-5.745 11.467-10.155 16.142-2.574 2.729-5.431 5.196-8.283 7.659q-1.164 1.002-2.317 2.01c-4.661 4.082-9.538 7.881-14.917 10.999-8.971 5.191-18.504 8.975-28.477 11.771-9.669 2.713-19.511 4.502-29.498 5.2-7.25.507-14.552.478-21.83.396-10.638-.121-21.117-1.769-31.451-4.184-7.697-1.798-15.226-4.237-22.471-7.461-6.01-2.676-11.891-5.616-17.149-9.592-3.061-2.316-6.036-4.745-9.011-7.175l-.004-.003-.003-.002-.001-.002h-.001l-.001-.001a584 584 0 0 0-4.827-3.913c-.477-.381-1.104-.824-1.653-.824-1.172.007-2.341.119-3.662.246-.532.051-1.088.104-1.679.154zm-9.052-73.071-.301.089-.003.001-.164.049-.134.039c.235.793.454 1.592.673 2.392.478 1.741.956 3.483 1.597 5.161 2.69 7.052 7.1 12.976 12.479 18.196 5.505 5.34 11.621 9.91 18.48 13.322 6.102 3.032 12.277 6.025 18.673 8.319 6.256 2.247 12.773 3.905 19.294 5.254 7.052 1.461 14.209 2.719 21.382 3.249 8.579.631 17.246.858 25.83.414 8.628-.443 17.251-1.629 25.782-3.055 4.7-.787 9.31-2.128 13.912-3.467q1.727-.506 3.455-.997c7.678-2.169 14.956-5.364 22.003-9.085a62 62 0 0 0 2.553-1.461c.458-.272.935-.554 1.443-.848-.468-.157-.879-.293-1.256-.418l-.008-.003-.002-.001-.008-.002-.01-.004-.009-.003c-.628-.208-1.159-.385-1.691-.567-2.313-.8-4.507-.978-6.623.68-1.074.843-2.342 1.508-3.615 2.034-1.295.536-2.585 1.09-3.876 1.644-3.719 1.596-7.441 3.193-11.287 4.381-6.83 2.106-13.776 3.996-20.803 5.258-6.98 1.254-14.109 1.856-21.199 2.304-10.816.69-21.637.198-32.366-1.34-8.204-1.176-16.359-2.762-24.201-5.514l-.135-.047c-5.489-1.922-11.018-3.858-16.253-6.359-8.136-3.884-15.824-8.632-23.049-14.04-9.014-6.753-16.369-14.899-20.558-25.575zm38.681-144.152q.056-.23.12-.463c-.68-.16-1.366-.378-2.053-.596-1.528-.486-3.056-.972-4.516-.816-3.688.39-7.365 1.374-10.913 2.526-5.933 1.933-11.833 4.005-17.607 6.357-7.288 2.965-14.051 6.941-20.384 11.631-.81.603-.829 1.138-.096 1.808q8.74 7.975 17.458 15.959c.723.66 1.06.602 1.663-.314q.728-1.106 1.448-2.223c1.867-2.886 3.74-5.781 5.994-8.337 8.025-9.11 18.017-15.588 28.992-20.62a630 630 0 0 0 4.039-1.88l.004-.001q.83-.39 1.698-.794c-1.649-1.23-3.191-1.138-4.792-.752-1.131.272-2.269.525-3.406.777-2.362.524-4.723 1.047-7.029 1.753l-.736.225h-.001c-6.084 1.858-12.179 3.718-18.104 5.993-6.478 2.487-12.58 5.823-18.417 9.611-.283.184-.683.187-1.083.19h-.001c-.187.001-.375.002-.55.022.089-.153.167-.326.245-.499.17-.379.341-.759.632-.928 1.14-.653 2.273-1.323 3.406-1.994 3.233-1.914 6.47-3.83 9.878-5.346 6.126-2.724 12.445-5.071 18.807-7.192 3.453-1.152 7-2.026 10.546-2.9h.001c1.587-.39 3.174-.781 4.752-1.197zm178.817 318.65-.694-.188q-.076.151-.157.298c-.116.215-.231.428-.311.652-1.489 4.16-3.759 7.885-6.347 11.428-2.76 3.787-6.163 6.946-9.573 10.112-.848.787-1.696 1.574-2.535 2.372-6.859 6.526-14.374 12.06-22.823 16.296-11.158 5.601-22.987 9.255-35.205 11.588-9.689 1.851-19.502 2.805-29.364 2.911-12.233.13-24.36-.998-36.357-3.504-7.818-1.629-15.472-3.741-22.876-6.734-.791-.319-1.604-.592-2.497-.891l-.006-.002q-.615-.204-1.29-.437c0 .433-.007.84-.013 1.229-.015.935-.029 1.762.056 2.579.044.4.506.944.902 1.094 2.699 1.007 5.398 2.01 8.15 2.853 8.03 2.459 16.205 4.358 24.529 5.471 5.722.766 11.481 1.297 17.241 1.682 14.162.95 28.241-.043 42.199-2.482 9.216-1.61 18.239-4.001 27.026-7.288 9.288-3.475 18.119-7.784 26.163-13.612 9.91-7.181 18.085-15.78 21.984-27.71.559-1.706.921-3.476 1.282-5.245.169-.825.337-1.649.526-2.467zM200.91 431.213c-8.001-.12-15.602 6.965-15.048 16.272.463 7.746 7.48 14.523 15.279 14.326 8.994-.232 15.472-7.235 15.217-15.651-.26-8.662-7.119-15.091-15.448-14.947m227.191-231.124v-.144q-.16 0-.32.003h-.003c-.213.003-.426.006-.641-.003a33 33 0 0 0-2.072-.003h-.001c-1.534.03-3.069.06-4.458-.378-4.19-1.319-8.327-2.801-12.464-4.283l-.002-.001-.001-.001h-.002l-.001-.001h-.002c-2.243-.804-4.485-1.608-6.736-2.385-1.316-.453-1.62-1.195-1.263-2.424.227-.774.443-1.55.659-2.326l.001-.003.001-.003v-.003l.001-.002.001-.003c.255-.916.51-1.832.783-2.746l.006-.021c.487-1.628.726-2.427.444-2.94-.271-.495-1.025-.724-2.505-1.174l-.157-.048c-1.249-.381-1.548.067-1.538 1.171.01.892.006 1.782.003 2.673v.003l-.003 1.339.003 5.655c.004 5.181.007 10.362-.017 15.543-.005 1.201.231 1.938 1.59 2.271 2.454.599 4.889 1.286 7.323 1.973q1.512.428 3.026.846l3.562.986h.001c4.575 1.266 9.148 2.533 13.736 3.738.568.149 1.523-.096 1.923-.516 5.909-6.222 10.242-13.342 12.137-21.805.503-2.263.454-2.276-1.746-2.858l-.096-.025c-1.518-.4-2.164.101-2.453 1.547-.16.793-.36 1.578-.56 2.364-.222.871-.444 1.743-.611 2.625-.203 1.075-.757 1.398-1.774 1.374a153 153 0 0 0-4.124-.019h-.002q-.825.004-1.648.004m.043 94.063c-2.367-6.801-28.862-21.343-38.714-21.126 0 .753-.008 1.509-.016 2.265-.02 1.894-.039 3.793.064 5.688.058 1.046.439 2.222 1.056 3.065 3.658 5.003 6.463 10.397 8.03 16.422.862 3.313.886 3.305 4.005 2.216l.275-.095c3.615-1.26 7.253-2.447 10.892-3.634 1.736-.566 3.472-1.132 5.207-1.707 1.965-.651 3.928-1.312 5.891-1.972q1.655-.558 3.31-1.113zm-319.959-51.883.128-.028q.37.855.735 1.711c.503 1.176 1.006 2.353 1.535 3.518 3.427 7.534 8.662 13.665 14.928 18.943 1.489 1.258 2.12 2.53 2.101 4.487-.065 6.802-.057 13.607-.049 20.411v.004q.007 4.082.006 8.163c0 .462-.058.92-.482 1.667a253 253 0 0 0-1.77-1.661l-.001-.001h-.001c-1.286-1.2-2.572-2.4-3.8-3.654-4.406-4.502-7.934-9.635-10.397-15.429-1.918-4.507-2.983-9.278-3.041-14.19-.065-5.597-.05-11.192-.036-16.788q.01-3.561.012-7.124zm281.898 69.403c-.153.008-.315.016-.485.033v-25.714l.193-.093.193-.095c.327.515.663 1.025.998 1.534l.001.002.001.001.001.002.001.001c.775 1.178 1.55 2.357 2.223 3.594 2.202 4.058 3.75 8.372 4.521 12.937.222 1.325.829 1.672 2.116 1.238a996 996 0 0 1 10.158-3.337l.011-.004.002-.001h.002l.002-.001.002-.001h.002l3.22-1.047 5.409-1.757c3.782-1.227 7.566-2.455 11.346-3.699a922 922 0 0 0 11.992-4.034c.752-.256 1.465-.569 1.248-1.707-1.373-7.258-4.299-13.828-8.69-19.747-.849-1.143-1.765-2.236-2.715-3.369l-.003-.003-.001-.001c-.467-.558-.942-1.125-1.422-1.712l.768-.666.529-.461.033-.028c1.452-1.265 2.888-2.516 4.377-3.699.265-.212 1.176-.01 1.495.299 6.237 6.044 10.897 13.115 13.288 21.507.501 1.759.701 3.602.902 5.446.095.874.191 1.748.318 2.613.135.896-.27 1.378-1.104 1.663a5691 5691 0 0 0-10.773 3.688l-.016.005h-.001l-.001.001h-.002l-.001.001h-.002a4728 4728 0 0 1-15.266 5.217c-6.999 2.37-14.011 4.7-21.019 7.028l-.695.231a1395 1395 0 0 1-12.325 4.024c-.251.083-.526.097-.831.111m-264.286-9.206c.102-.08.228-.179.389-.314 1.135 2.039 2.708 1.757 4.315 1.468l.001-.001h.001c.378-.068.757-.136 1.134-.174 5.069-.521 10.142-.983 15.215-1.444l.011-.001 1.38-.126 1.276-.116c4.849-.444 9.693-.882 14.542-1.268.137-.011.284-.036.435-.063.67-.116 1.416-.246 1.628.863.39 2.02-.024 3.157-1.369 3.639-8.763 3.152-17.058 7.245-24.755 12.498-2.055 1.402-3.992 2.972-5.927 4.54q-.632.513-1.265 1.023c-.949.761-1.754 1.046-3.027.559-2.789-1.06-5.616-2.02-8.445-2.98h-.001v-.001h-.001q-1.74-.59-3.478-1.188c-.708-.246-1.219-.545-.896-1.509 1.865-5.582 4.738-10.59 8.493-15.101.082-.097.183-.177.344-.304m235.733-79.523-.13-.077-.223-.126c15.194-8.29 28.196-18.436 35.03-34.927v1.658c0 1.678-.013 3.356-.025 5.035-.029 3.837-.057 7.674.063 11.507.198 6.141-1.6 11.703-4.367 17.029-.672 1.294-1.456 2.532-2.24 3.771v.001a93 93 0 0 0-1.225 1.969c-.593.983-1.331 1.398-2.531 1.055-2.011-.574-4.031-1.118-6.051-1.662h-.002l-.004-.001a487 487 0 0 1-4.908-1.34c-3.513-.984-7.023-1.994-10.532-3.004l-.003-.001-.003-.001h-.003l-.003-.001-.003-.001-1.643-.473-.901-.259c-.084-.026-.163-.073-.296-.152m-194.018-72.791.116-.049.096-.04c0-.995.007-1.989.013-2.983v-.001c.015-2.201.029-4.402-.027-6.603-.164-6.281.795-12.378 3.08-18.22.511-1.311.149-1.904-.738-2.704a2711 2711 0 0 1-10.944-9.981q-2.732-2.501-5.468-5c-.243-.223-.52-.411-.815-.611q-.198-.134-.404-.28c-.04.12-.073.208-.099.278a.7.7 0 0 0-.065.233l-.005 4.471v.002c-.009 8.949-.019 17.899.014 26.852 0 .549.391 1.219.805 1.624a373 373 0 0 0 7.245 6.806 574 574 0 0 0 4.986 4.509l.005.004 1.988 1.787.005-.005zm-.196 167.806c-.139.091-.219.144-.276.216-3.606 4.497-6.425 9.423-8.103 14.961-.583 1.928-.906 2.068-2.694 1.417a1840 1840 0 0 0-17.646-6.319 2788 2788 0 0 0-8.554-2.989l-.004-.002-.019-.007-.009-.003a1896 1896 0 0 1-14.083-4.947c-.4-.145-.891-1.037-.78-1.417a46 46 0 0 1 1.923-5.418 45.4 45.4 0 0 1 6.945-11.264c.579-.695.632-1.283-.086-1.933l-.481-.434c-.988-.89-1.98-1.783-2.826-2.791-.829-.983-1.354-.742-2.024.058-.4.476-.812.942-1.223 1.408h-.001v.001l-.002.002a63 63 0 0 0-1.396 1.616c-4.772 5.77-8.146 12.233-9.645 19.617l-.047.214c-.144.638-.268 1.19.765 1.502 4.902 1.48 9.789 3.008 14.643 4.647 5.153 1.739 10.283 3.539 15.414 5.339l.002.001q2.498.877 4.997 1.75 4.436 1.554 8.869 3.115c3.94 1.387 7.881 2.774 11.828 4.149 1.072.371 2.16.692 3.304 1.029l.006.002.018.005q.742.218 1.521.453v-24.201h-.01c-.135.097-.241.166-.326.222m221.685-87.281 3.464.968c3.647 1.021 7.164 2.006 10.692 2.946.564.149 1.321.038 1.846-.227 6.3-3.176 12.243-6.926 17.685-11.433.922-.764 1.803-1.58 2.763-2.468l.001-.001.001-.001.002-.002h.001c.449-.416.915-.847 1.411-1.297a60 60 0 0 1-.716-.251l-.273-.098-.044-.016h-.001c-.549-.197-.991-.356-1.444-.483a2751 2751 0 0 0-12.97-3.586q-2.261-.618-4.524-1.229h-.002c-2.615-.708-5.23-1.415-7.838-2.145-1.181-.333-1.648.091-1.851 1.238-.973 5.563-3.354 10.542-6.401 15.236-.344.53-.68 1.066-1.066 1.68-.225.358-.466.743-.736 1.169m44.623-32.477c.093-.141.203-.283.316-.429.258-.333.53-.683.634-1.075.703-2.66 1.389-5.326 2.076-7.991v-.001l.001-.002.001-.004.001-.003.001-.004v-.003l.001-.001v-.003c1.016-3.943 2.032-7.885 3.1-11.813.347-1.267-.091-1.624-1.099-1.947-1.278-.416-2.548-.87-3.815-1.323l-.87-.311-1.013-.36c-3.534-1.254-7.07-2.508-10.598-3.775-1.113-.4-1.73-.232-2.058 1.094-1.658 6.632-3.35 13.255-5.172 19.839-.381 1.369.154 1.677 1.186 2.034 2.322.798 4.635 1.617 6.948 2.436l.004.001.007.003.013.004.013.005q1.56.553 3.122 1.103l.03.011.018.006c2.249.79 4.502 1.58 7.153 2.514zM133.666 324.801c-.091-.081-.193-.172-.317-.269q.386-.352.745-.692l.005-.005c.514-.483 1.003-.943 1.529-1.351 6.637-5.153 13.771-9.486 21.511-12.783a767 767 0 0 1 8.262-3.451c1.928-.795 2.111-.473 2.396 1.571.694 4.945-.998 8.869-4.16 12.619-2.743 3.253-4.55 7.187-5.794 11.312-.323 1.056-.891 1.461-2.029 1.056-4.127-1.472-8.259-2.933-12.39-4.394a5381 5381 0 0 1-9.314-3.299c-.15-.053-.277-.166-.444-.314m275.224-47.576.121.11c.147.133.245.222.359.284 7.452 4.131 14.287 9.076 20.278 15.169.347.356 1.248.462 1.774.303 1.353-.401 2.694-.848 4.036-1.294 1.443-.481 2.887-.961 4.346-1.386 1.523-.443 1.831-1.171 1.494-2.689-1.784-7.963-5.765-14.73-11.004-20.861-.959-1.123-1.678-.983-2.825-.275a453 453 0 0 1-12.913 7.645c-1.24.708-2.545 1.306-3.893 1.924h-.001c-.642.294-1.293.593-1.952.91h-.005zM216.753 53.106c-.33.218-.558.367-.747.556a15330 15330 0 0 0-19.969 20.129c-.733.742-.8 1.292.371 1.725a3648 3648 0 0 1 19.916 7.452c2.001.752 2.815.135 2.695-1.962-.255-4.427-.495-8.856-.735-13.285l-.001-.015q-.224-4.162-.455-8.322c-.074-1.348-.161-2.695-.254-4.139l-.001-.008-.001-.019-.001-.01-.002-.035-.003-.048c-.051-.786-.104-1.601-.157-2.46-.258.18-.473.321-.656.441m.603 387.892-.429.443c.154.165.298.357.442.549v.001h.001c.305.407.61.813 1.012.964 1.248.473 2.491.961 3.736 1.449h.001c3.827 1.502 7.659 3.005 11.605 4.074 6.43 1.745 13 3.056 19.579 4.126 5.688.926 11.462 1.548 17.217 1.784 13.395.554 26.775.096 39.92-2.83 6.815-1.513 13.645-3.157 20.253-5.388 4.467-1.511 8.767-3.533 13.06-5.553 1.215-.571 2.429-1.142 3.646-1.701 1.39-.639 2.701-1.458 4.011-2.276l.001-.001a82 82 0 0 1 1.801-1.102l-.197-.41c-21.117 10.705-43.674 15.525-67.153 16.402-23.487.878-46.402-2.222-68.506-10.531m-47.869-29.454v.003c-.15 6.758-.3 13.495 2.209 19.97 2.776 7.177 6.989 13.346 12.758 18.509-.968-5.837.709-10.821 4.444-15.241-8.685-7.095-15.645-15.304-19.357-25.98-.013.913-.034 1.826-.054 2.739m140.845-.871.061.01.133.021q.304-1.27.602-2.541l.003-.01c.435-1.845.869-3.689 1.338-5.527.736-2.892 1.48-5.782 2.224-8.672 1.4-5.439 2.801-10.88 4.148-16.334.573-2.324 1.089-4.729 1.133-7.105.101-5.652.083-11.303.066-16.955v-.004q-.012-3.247-.013-6.495v-1.62l-.439-.014q-.28 1.178-.553 2.359v.002l-.001.001v.003l-.001.001v.001a216 216 0 0 1-1.185 4.925c-.962 3.763-1.933 7.523-2.905 11.283-1.181 4.57-2.362 9.14-3.525 13.714q-.155.602-.32 1.206v.003c-.438 1.619-.881 3.257-.904 4.888-.099 6.557-.084 13.114-.069 19.67q.01 3.577.011 7.154v.004zm108.277-242.216-.001-.001a8 8 0 0 0-1.034-.126c-1.01-.026-2.021-.042-3.032-.058-1.767-.028-3.536-.056-5.302-.139-1.113-.053-1.668.327-1.938 1.388-.45 1.781-.929 3.552-1.408 5.324l-.01.037-.001.006-.001.001a553 553 0 0 0-.594 2.209q-.433 1.625-.863 3.248l-.001.002v.003l-.001.002-.001.002v.002a1360 1360 0 0 1-2.398 8.955c-.366 1.34.073 1.827 1.471 1.807 2.776-.038 5.557.034 8.333.116 1.017.029 1.495-.275 1.764-1.345.722-2.894 1.503-5.775 2.285-8.656.376-1.389.753-2.779 1.123-4.17.494-1.854.973-3.712 1.468-5.63l.002-.008c.243-.942.489-1.897.743-2.874h.009q-.325-.046-.613-.095m-69.452 145.59q-.079-.128-.153-.259c-22.138 10.228-45.539 14.47-69.779 14.542-24.23.073-47.67-4.029-69.962-13.91.313.385.646.65 1.017.853a106 106 0 0 0 22.061 8.927c5.905 1.643 11.906 3.07 17.955 4.034a216 216 0 0 0 21.188 2.333c9.949.588 19.888-.01 29.783-1.34 7.645-1.027 15.212-2.401 22.553-4.738 5.683-1.808 11.279-3.924 16.822-6.117 2.03-.803 3.974-1.827 5.918-2.852.88-.463 1.759-.927 2.647-1.37l.009-.005-.036-.06zm-177.938 92.642-.617.631c.43.964.837 1.941 1.245 2.918.902 2.165 1.805 4.33 2.958 6.356 3.6 6.329 8.464 11.64 14.108 16.229.4.323 1.171.675 1.509.501 1.09-.561 2.129-1.222 3.211-1.911q.578-.37 1.18-.745c-.494-.46-.972-.915-1.443-1.364-1.036-.987-2.036-1.939-3.083-2.834-6.348-5.432-12.315-11.192-16.697-18.417-.283-.464-.907-.721-1.533-.979a9 9 0 0 1-.838-.38zM320.465 272.36c-27.908 6.088-55.82 6.069-83.738-.014 27.923 7.288 55.835 7.322 83.738.014M220.648 81.633l.005.001.549.144q.47-.747.936-1.497c.777-1.249 1.554-2.497 2.38-3.709.762-1.113.911-2.116.28-3.384-.369-.738-.594-1.55-.818-2.362-.119-.43-.238-.858-.378-1.277q-1.165-3.49-2.34-6.979l-1.641-4.888-.371.068 1.403 23.883zm186.063 110.858q-.044.263-.083.527 2.01.726 4.017 1.462v.001h.002l.001.001c3.156 1.155 6.312 2.31 9.5 3.366 2.733.906 5.596.656 8.435.39l-.656-.265h-.001c-4.313-1.743-8.601-3.476-13.027-4.728-1.791-.506-3.703-.591-5.616-.677-.856-.038-1.713-.076-2.559-.152zM233.464 78.5c-1.385-2.576-3.329-2.29-5.145-2.024-.434.064-.86.127-1.27.149-1.24.065-1.676 1.068-2.103 2.05-.139.32-.277.637-.442.92l.09.15q.074.12.146.244l8.499-1.447.22-.037zm-31.547-13.28.006-.006.024-.022.049-.045.044-.04 2.128-1.968c-2.289 1.267-4.362 2.737-5.095 4.709.826-.761 1.786-1.65 2.805-2.592l.026-.024zM528.28 212.717l-.001-.581v-.84h.699v-1.622l-.002-1.676-.001-1.728c-.005-4.692-.01-9.384.022-14.076.005-1.292-.26-2.039-1.74-2-.481.009-.966-.11-1.453-.229h-.001l-.376-.09a8 8 0 0 0-.372-.076l-7.188-1.282c-9.18-1.637-18.36-3.275-27.545-4.888-.477-.082-1.123-.01-1.494.26-5.601 4.078-11.183 8.17-16.711 12.34-.588.438-1.051 1.364-1.114 2.106-.149 1.78-.168 3.573-.186 5.363v.001l-.016 1.374a5091 5091 0 0 0-.131 8.75c-.107 7.411-.213 14.825-.39 22.233-.038 1.514.193 2.092 1.812 2.348 5.179.815 10.34 1.731 15.502 2.648q2.513.448 5.027.889 2.064.363 4.128.73l.022.004c3.927.697 7.857 1.395 11.799 2.019.781.125 1.813-.193 2.473-.666a1042 1042 0 0 0 16.383-11.987c.448-.332.815-1.084.819-1.643.042-5.023.039-10.045.036-15.067v-.01zm-.984-1.72h-.111v.005q0 2.837.003 5.672v.002c.003 3.78.007 7.559-.003 11.34-.01 2.237-.034 2.256-2.261 1.88a6504 6504 0 0 1-19.742-3.369q-2.794-.482-5.582-.979c-2.926-.517-5.85-1.034-8.782-1.518-1.099-.183-1.214-.79-1.2-1.682.033-2.155.055-4.31.078-6.466v-.003c.03-2.873.06-5.746.115-8.617.056-2.915.127-5.83.197-8.743l.001-.011c.092-3.823.185-7.645.245-11.466.024-1.408.275-2.034 1.909-1.731 5.383.999 10.774 1.936 16.168 2.873l4.51.786q1.328.233 2.654.468c3.485.618 6.968 1.235 10.466 1.754 1.422.212 1.909.742 1.855 2.159-.153 4.163-.266 8.329-.378 12.494q-.069 2.577-.142 5.152m-39.249-24.867c.166-.085.343-.177.535-.284v-.009q.001 2.103.01 4.142c.011 3.038.022 5.99-.025 8.939-.059 3.792-.143 7.583-.227 11.375a1625 1625 0 0 0-.235 11.891c-.02 1.306-.439 2.145-1.524 2.916-3.156 2.248-6.279 4.542-9.403 6.836l-.001.001h-.001v.001a2004 2004 0 0 1-4.153 3.043c-.238.173-.489.322-.838.529l-.006.004-.131.078-.138.081q-.192.115-.425.258l-.001-.386-.002-.487v-.03l-.001-.04v-.001c-.003-.476-.005-.86.004-1.244l.117-5.53c.204-9.76.409-19.523.669-29.285.019-.704.501-1.629 1.065-2.058 3.788-2.869 7.621-5.675 11.455-8.481l.039-.029.475-.348 1.258-.921.659-.483c.243-.177.513-.316.825-.478m37.158 45.576-.386-.105a14 14 0 0 0-1.22-.297 8433 8433 0 0 0-19.588-3.466 540 540 0 0 0-4.005-.682c-2.989-.501-5.978-1.003-8.947-1.612-1.465-.304-2.554-.063-3.702.795-1.719 1.286-3.462 2.544-5.204 3.803l-.006.004-.003.002-.002.001c-1.238.894-2.477 1.788-3.706 2.692-1.172.862-2.328 1.747-3.597 2.718l-.005.004-.002.002-.002.001-.006.004c-.643.492-1.315 1.007-2.033 1.551.655.13 1.247.251 1.799.364h.002c1.05.214 1.956.399 2.865.557q4.214.729 8.428 1.447 3.37.575 6.741 1.156 2.139.37 4.276.747c3.839.675 7.676 1.35 11.528 1.947.772.121 1.75-.26 2.454-.704 1.169-.733 2.28-1.561 3.39-2.389a177 177 0 0 1 1.16-.859c3.3-2.418 6.595-4.842 10.275-7.549l-.215-.055zM460.317 97.693l2.455.21h.002c3.079.263 6.112.521 9.145.807.39.039.819.236 1.128.487q3.983 3.184 7.961 6.374c5.079 4.07 10.158 8.14 15.262 12.183.79.627.66.993.216 1.668q-2.775 4.205-5.547 8.411c-3.87 5.871-7.739 11.742-11.631 17.597-.241.362-.897.685-1.33.651-4.213-.313-8.426-.67-12.624-1.113-.839-.087-1.778-.405-2.434-.916a2510 2510 0 0 1-22.871-18.249c-.289-.231-.381-1.156-.159-1.499 2.058-3.15 4.134-6.289 6.21-9.428l.001-.002.004-.007.001-.001c3.538-5.349 7.075-10.698 10.524-16.103.802-1.255 1.698-1.162 2.57-1.07.38.039.756.078 1.117.005zm11.792 3.287c-.266.33-.485.603-.676.896q-3.381 5.163-6.757 10.33l-.001.002-.002.003-.002.003a9902 9902 0 0 1-8.031 12.273l-.048.074c-.567.862-.853 1.296-.793 1.677.061.386.477.717 1.316 1.383l.041.032q4.404 3.503 8.799 7.013l.008.006.007.006.007.006q3.149 2.514 6.3 5.024c1.774 1.414 3.556 2.82 5.425 4.295l.008.006.755.596 16.996-25.898-22.9-18.292h-.005c-.161.208-.307.391-.442.558zm-4.553-1.347c1.072.096 2.174.195 3.318.306l-.467.722-.621.961c-.914 1.416-1.758 2.724-2.61 4.024a6738 6738 0 0 1-4.485 6.85 4576 4576 0 0 0-7.777 11.895c-.578.892-1.21 1.33-2.352 1.196-2.499-.291-5.004-.531-7.633-.783h-.003c-1.158-.111-2.34-.224-3.556-.345l1.056-1.669.005-.008.004-.006.003-.004.001-.002.005-.009c.768-1.215 1.496-2.367 2.242-3.508q2.007-3.06 4.018-6.116c2.79-4.243 5.581-8.486 8.345-12.745.781-1.205 1.625-1.735 3.148-1.528 2.384.323 4.784.539 7.359.77m-24.231 27.156c-.125-.151-.274-.332-.466-.551 1.11.091 2.183.161 3.228.229 2.484.163 4.81.315 7.092.715 1.211.21 2.349 1.122 3.409 1.972l.003.002q.237.191.468.373c4.279 3.361 8.529 6.758 12.78 10.156l.012.01q2.286 1.828 4.574 3.653c.208.165.425.316.641.467q.19.131.376.266l-.202.52q-.483-.023-.965-.041c-.644-.026-1.288-.052-1.927-.103-.541-.044-1.081-.113-1.621-.182-1.002-.127-2.003-.254-3.002-.223-2.222.067-3.966-.713-5.663-2.097-4.123-3.361-8.281-6.674-12.441-9.988q-2.879-2.292-5.755-4.592c-.175-.142-.32-.318-.541-.586m-191.318 58.43a156.4 156.4 0 0 0 26.688 2.636l.005-.005q2.83-.217 5.661-.424h.007l.008-.001c4.136-.304 8.272-.608 12.399-.992 7.153-.665 14.166-2.207 21.044-4.217 7.081-2.068 13.949-4.709 20.422-8.32 7.283-4.063 13.954-8.868 19.232-15.424 3.876-4.81 6.753-10.122 7.775-16.277 1.537-9.293-.959-17.607-6.517-25.04-7.62-10.194-18.08-16.547-29.595-21.367-6.714-2.81-13.659-4.94-20.812-6.3-4.671-.886-9.366-1.773-14.089-2.27-11.65-1.219-23.334-1.286-34.916.54-7.057 1.114-14.108 2.526-20.991 4.43-8.243 2.28-16.089 5.702-23.348 10.315-9.742 6.189-17.931 13.722-21.835 25.02-1.634 4.724-1.971 9.592-1.142 14.412 1.557 9.057 6.55 16.239 13.255 22.283 7.259 6.545 15.66 11.182 24.736 14.739 7.148 2.806 14.503 4.864 22.013 6.262m30.84.813c-.952.041-1.814.077-2.549.122-12.057-.203-22.466-.897-32.624-3.528a236 236 0 0 1-17.463-5.24c-4.061-1.397-6.512-4.796-8.917-8.132l-.501-.693c-.196-.27-.357-.565-.519-.861a7.5 7.5 0 0 0-.561-.918c-2.27-3.027-1.152-5.702.617-8.497 4.502-7.12 11.062-11.694 18.431-15.338 6.271-3.099 12.908-5.157 19.743-6.454 9.876-1.87 19.83-2.463 29.884-1.465 8.078.805 15.974 2.352 23.589 5.148 7.944 2.916 15.27 6.883 21.165 13.139 2.405 2.55 4.381 5.384 5.654 8.652.241.627.274 1.513.029 2.126-1.981 4.911-5.114 9.085-9.419 12.054-2.188 1.513-4.899 2.351-7.526 3.164l-.88.273c-3.967 1.248-7.982 2.434-12.059 3.21-5.823 1.109-11.703 1.957-17.589 2.651-3.014.354-6.057.483-8.505.587m-60.228-12.405-.217.303-.004-.005q-.663-.336-1.332-.661c-1.005-.492-2.009-.985-2.968-1.556-5.61-3.35-10.883-7.133-15.294-12.021-3.022-3.35-5.49-7.047-7.341-11.182-.79-1.769-.274-3.206.434-4.729 3.239-6.936 8.286-12.373 14.292-16.966 7.234-5.538 15.327-9.505 23.892-12.46 9.12-3.147 18.509-5.133 28.12-6.227 9.679-1.099 19.352-1.181 29.021-.41a129.4 129.4 0 0 1 23.985 4.218c8.497 2.332 16.638 5.451 24.268 9.852 7.187 4.145 13.627 9.196 18.413 16.06 1.605 2.304 2.882 4.863 4.087 7.408.371.786.294 2.029-.048 2.873-2.555 6.251-6.705 11.341-11.761 15.761-4.449 3.885-9.384 7.013-14.6 9.737-.161.082-.346.118-.612.17h-.001c-.155.03-.337.066-.558.119.39-.528.763-1.024 1.122-1.502l.004-.005c.728-.969 1.399-1.861 2.031-2.783 6.7-9.78 5.394-20.138-1.407-28.766-4.729-6.001-10.85-10.281-17.805-13.221-5.196-2.193-10.561-4.102-16.003-5.553-6.459-1.72-13.139-2.41-19.848-2.598-7.462-.207-14.904.082-22.235 1.471-12.788 2.414-24.891 6.526-34.863 15.375-4.406 3.909-7.847 8.556-9.298 14.301-1.629 6.459-.53 12.634 3.133 18.263.716 1.098 1.497 2.154 2.277 3.209v.001l.001.001q.563.758 1.115 1.523m-28.259-30.309-.362.569v.005c-1.716-7.129-.843-13.573 2.126-19.748 4.367-9.085 11.626-15.395 19.998-20.6 7.538-4.685 15.699-8.001 24.192-10.411 16.706-4.743 33.764-6.088 51.034-4.661 8.541.708 16.981 2.164 25.218 4.555 11.886 3.446 23.102 8.314 32.708 16.334 5.336 4.454 9.809 9.631 12.503 16.138 2.415 5.822 3.312 11.799 1.196 18.306l-.115-.27a20 20 0 0 0-.232-.54c-3.504-7.639-9.202-13.389-15.877-18.263-7.92-5.779-16.716-9.774-26.028-12.744-15.771-5.032-31.947-6.907-48.432-6.203-8.449.362-16.821 1.422-25.097 3.307-10.792 2.463-21.117 6.078-30.68 11.707-7.186 4.232-13.582 9.385-18.412 16.273-.842 1.202-1.565 2.486-2.289 3.77v.001a96 96 0 0 1-1.061 1.849c-.11.187-.228.371-.39.626m145.623 16.903c1.193-5.811-.47-12.301-4.123-17.283-5.302-7.23-12.614-11.742-20.658-15.169-9.033-3.851-18.562-5.832-28.318-6.555-16.026-1.181-31.604.776-46.436 7.312-6.217 2.738-11.89 6.304-16.508 11.351-4.728 5.167-7.553 11.105-6.979 18.306.033.433.149.857.253 1.235.046.169.09.329.123.476.612-.815 1.198-1.639 1.778-2.456h.001c1.241-1.747 2.459-3.462 3.874-4.995 7.124-7.741 16.306-12.074 26.154-15.14 8.054-2.506 16.34-3.764 24.775-4.126 9.36-.4 18.619.328 27.748 2.372 5.635 1.258 11.125 3.031 16.369 5.514 7.177 3.393 13.723 7.615 18.547 14.089.778 1.042 1.487 2.137 2.245 3.307h.001c.369.569.749 1.156 1.154 1.762m-71.188 221.634c-2.486-.188-4.976-.342-7.466-.497-5.685-.354-11.371-.707-17.005-1.455-7.24-.964-14.436-2.54-21.512-4.376-4.231-1.096-8.373-2.533-12.516-3.97-1.964-.681-3.928-1.362-5.901-2.007-.776-.255-.969-.598-.762-1.412a4765 4765 0 0 0 6.252-24.539q1.113-4.425 2.125-8.878c.319-1.406 1.2-1.077 1.935-.803q.165.063.316.113c.847.273 1.671.614 2.495.954.955.394 1.909.788 2.894 1.076q1.648.482 3.297.967h.002c5.502 1.618 11.006 3.236 16.574 4.59 4.82 1.171 9.751 1.952 14.672 2.617 12.402 1.668 24.876 1.837 37.336.902 4.517-.342 9.007-1.001 13.498-1.66 1.912-.281 3.824-.562 5.738-.818 1.432-.193 1.856.251 1.495 1.735-1.008 4.102-2.044 8.194-3.08 12.287q-.92 3.637-1.846 7.272c-.924 3.636-1.848 7.272-2.762 10.913l-.025.099c-.857 3.425-.867 3.464-4.395 4.032-10.378 1.663-20.813 2.588-31.335 2.463-.01.13-.015.26-.024.395m-54.789-46.151c31.275 11.895 63.345 14.223 96.577 8.677-.183.778-.352 1.514-.515 2.222a174 174 0 0 1-.906 3.821q-.937 3.69-1.883 7.377c-1.199 4.681-2.399 9.363-3.558 14.053-.246 1.002-.627 1.446-1.649 1.562-10.7 1.224-21.425 1.908-32.197 1.378-.954-.047-1.907-.112-2.861-.177h-.005c-1.074-.073-2.148-.146-3.222-.194-.858-.039-1.138-.41-.979-1.224.81-4.068-.4-7.77-2.829-10.836-2.617-3.301-6.329-5.099-10.667-4.868-6.709.357-11.095 4.059-12.806 10.551l-.273 1.048-.286 1.102c-.831-.218-1.657-.422-2.477-.625-1.798-.444-3.568-.882-5.303-1.438-2.867-.919-5.71-1.911-8.554-2.903h-.001a645 645 0 0 0-4.31-1.493c-.949-.323-1.508-.81-1.503-1.947.025-5.496.025-10.994.025-16.491q-.001-4.12.004-8.241c0-.24.039-.478.09-.789.027-.164.058-.349.088-.565m47.308 35.292c.304-6.237-4.733-11.399-10.368-11.978-8.526-.877-15.106 6.927-12.739 15.154.603 2.102 1.494 3.885 4.222 4.059 2.647.165 5.286.437 7.926.709 1.985.204 3.971.409 5.961.568.679.053 1.6-.323 2.077-.819 2.087-2.169 3.114-4.796 2.921-7.693m-24.067 4.883c.145.497.297 1.019.463 1.575-.91-.187-1.793-.358-2.655-.524-1.891-.365-3.68-.71-5.437-1.167-2.985-.777-5.958-1.604-8.931-2.43h-.002c-2.316-.644-4.632-1.288-6.954-1.908-1.455-.391-1.928-1.08-1.378-2.54.257-.689.415-1.415.573-2.141q.102-.482.217-.958c.207-.844.632-1.075 1.523-.786 3.55 1.15 7.104 2.284 10.659 3.418l.02.007h.002c3.292 1.051 6.584 2.101 9.872 3.164.38.12.838.501.964.863.376 1.074.696 2.169 1.064 3.427m23.42 3.907h.001c.46.055.827.098 1.196.098 1.565 0 3.132.026 4.7.052h.001c3.684.06 7.368.121 11.026-.153 5.675-.424 11.33-1.089 16.986-1.754l.001-.001h.002a1104 1104 0 0 1 6.769-.781c1.422-.159 1.432-1.137 1.302-2.231a4 4 0 0 1-.214-.047 1 1 0 0 0-.331-.045c-12.951 1.634-25.932 1.899-38.951 1.032-.385-.024-.968.053-1.152.303-.529.729-.994 1.505-1.518 2.383q-.3.502-.636 1.054c.308.03.576.062.818.09m-50.011-9.537c.165-.878.358-1.728.547-2.56.404-1.785.79-3.486.846-5.196.144-4.458.114-8.921.083-13.385-.011-1.64-.023-3.281-.025-4.921 0-.329-.034-.661-.068-.992q-.024-.23-.043-.459c-.55.704-.733 1.408-.911 2.111q-.371 1.476-.74 2.953t-.74 2.952q-.53 2.091-1.065 4.182c-1.031 4.042-2.063 8.085-3.041 12.138-.102.425.294 1.268.684 1.456.908.444 1.866.783 2.99 1.182.464.164.955.338 1.483.534zm-49.613-164.531c-.159-.019-.332 0-.332 0l-.01-.005q-.273.018-.514.031c-.393.023-.735.043-1.076.071l-7.617.628c-5.087.419-10.173.838-15.259 1.266-2.239.185-4.478.381-6.717.576s-4.478.39-6.716.576c-1.018.082-1.562.535-2.025 1.489-2.068 4.247-3.678 8.618-4.439 13.308-1.147 7.066-.164 13.911 2.468 20.437 2.844 7.061 7.345 13.091 12.884 18.316.544.511 1.489.93 2.207.872 6.74-.536 13.475-1.122 20.211-1.708q4.05-.353 8.102-.702 2.048-.174 4.098-.334c2.05-.162 4.1-.325 6.144-.519.463-.043 1.147-.337 1.273-.684.125-.342-.246-.95-.535-1.345-.217-.296-.493-.545-.769-.794-.16-.145-.321-.29-.47-.445-6.415-6.632-11.341-14.089-13.197-23.319-1.788-8.902-.458-17.313 3.706-25.334.221-.422.311-.911.402-1.402.042-.227.083-.454.138-.675l-.614-.097q-.672-.107-1.343-.207m-.228 1.774q-.26-.001-.515-.008c-.359-.008-.71-.017-1.059.013q-5.084.418-10.166.84c-8.233.683-16.465 1.366-24.697 2.008-1.345.106-1.702.569-1.697 1.842q.065 11.879 0 23.757c-.01 1.321.352 1.779 1.735 1.663 4.925-.411 9.852-.797 14.779-1.184 4.669-.366 9.339-.733 14.006-1.12 3.046-.25 3.114-.332 3.018-3.456-.159-5.263.11-10.493 1.499-15.578.541-1.984 1.274-3.914 2.033-5.915.354-.934.715-1.884 1.064-2.862m-4.589 39q-.078.007-.157.008l-.005.005q.078 1.703.154 3.407c.124 2.815.249 5.633.41 8.445.058 1.008-.236 1.475-1.272 1.557q-3.797.304-7.593.617c-4.558.373-9.116.747-13.678 1.085-.588.043-1.374-.299-1.812-.723-4.786-4.652-8.691-9.944-11.501-16.027-.555-1.201-.049-2.089.457-2.977.219-.384.437-.768.57-1.178.323-.997 1.06-1.349 2.179-1.441 8.143-.653 16.28-1.364 24.418-2.076l5.485-.478.029-.003c2.328-.205 2.328-.205 2.328 2.07v7.708zm1.742-7.858c0-.13.121-.256.097-.207.562 1.047 1.108 2.114 1.656 3.184 1.264 2.47 2.539 4.961 4.055 7.294 1.52 2.339 3.278 4.521 5.071 6.746.783.972 1.573 1.952 2.352 2.957q-.665.052-1.336.101c-.841.062-1.686.124-2.53.203-2.602.236-5.21.487-7.813.747-.872.087-1.441-.101-1.441-1.157-.014-3.973-.039-7.947-.064-11.92a7033 7033 0 0 1-.047-7.948m-37.89 2.93c-3.899-5.157-3.075-22.62 1.229-27.965v12.04q.002 1.57.019 3.14c.022 2.594.045 5.187-.072 7.773-.049 1.065-.358 2.12-.696 3.274-.161.553-.33 1.128-.48 1.738"/>
</svg>
