<svg xmlns="http://www.w3.org/2000/svg" width="550" height="550" fill="none" viewBox="0 0 550 550">
    <path fill="#fff" fill-rule="evenodd" d="M430.376 391.87q-5.439-3.326-10.919-6.666c4.269-2.742 8.636-5.227 13.01-7.715l.003-.002c3.152-1.794 6.308-3.589 9.431-5.483.897-.53 1.534-.497 2.383.026 15.122 9.108 30.202 18.282 45.284 27.458l.01.005 3.494 2.126 4.893 2.976c7.941 5.366 18.043-10.643 10.205-15.675-6.649-4.084-13.318-8.103-19.986-12.122l-.002-.001c-8.795-5.3-17.587-10.598-26.329-16.044 11.854-7.5 12.677-12.066 12.336-25.28a5321 5321 0 0 0 .144-15.473v-.007c.104-12.491.209-24.983.516-37.471.159-6.548-1.46-11.999-6.444-16.346-1.89-1.645-1.846-1.705.37-2.939l11.256-6.256.152-.085c9.173-5.097 18.345-10.194 27.506-15.307 2.208-1.234 3.227-3.276 3.083-5.759-.111-5.703-6.178-14.026-12.144-10.61-6.025 3.275-12.005 6.634-17.986 9.993a3864 3864 0 0 1-5.63 3.159 9354 9354 0 0 0-25.581 14.363c-1.915.935-3.609-.224-5.275-1.362-.758-.518-1.509-1.032-2.273-1.343a9568 9568 0 0 1-17.21-10.128c-1.085-.641-1.078-1.104-.003-1.712 8.626-4.718 17.207-9.526 25.787-14.334 4.862-2.724 9.724-5.448 14.594-8.156 2.22-1.241 3.302-3.264 3.172-5.721-.059-5.711-6.144-14.078-12.11-10.706-4.182 2.217-8.304 4.549-12.425 6.882l-.009.005q-2.37 1.344-4.746 2.677-3.385 1.898-6.769 3.799l-6.757 3.791c-.804.448-1.412.437-1.412-.708-.001-1.401-.028-2.804-.055-4.208-.066-3.391-.131-6.783.17-10.141.308-3.405-.533-5.884-3.15-7.933-1.067-.834-.982-2.002.097-2.817 2.935-1.541 5.443-4.013 4.413-7.508-1.466-5.416-1.236-10.889-1.006-16.359.039-.933.079-1.866.109-2.799.518-5.335-4.523-7.952-8.515-10.025l-.119-.062c-16.143-9.474-32.305-18.918-48.466-28.363l-.005-.002-.004-.003-.018-.01c-18.213-10.644-36.426-21.287-54.615-31.973l-4.118-2.414a3701 3701 0 0 1-17.456-10.275c-6.8-4.624-16.013-6.844-23.561-2.757-23.135 13.193-46.186 26.549-69.236 39.905a22693 22693 0 0 1-34.387 19.898c-4.575 2.643-9.156 5.275-13.737 7.907-5.273 3.03-10.547 6.06-15.812 9.106-2.283 1.319-4.177 3.072-4.462 5.881.159 7.326.215 14.701.204 22.042-.113 1.676.989 2.923 2.026 4.096 1.473 1.667 2.815 3.185.353 5.575-2.338 2.072-3.187 4.792-2.779 7.868-.071 1.567-.075 3.114-.08 4.655v.001c-.009 2.824-.017 5.627-.432 8.488-7.237-4.323-14.277-8.583-21.371-12.875l-.005-.003-.004-.003-.017-.01-.012-.007c-2.916-1.764-5.841-3.534-8.792-5.316-5.27-3.124-10.702 2.831-12.007 7.593-1.078 3.788-.674 6.53 2.702 8.568 5.047 3.081 10.1 6.118 15.148 9.153l.005.003c9.009 5.415 18.005 10.823 26.94 16.458-4.937 3.18-10.012 6.03-15.101 8.886l-.001.001a583 583 0 0 0-7.44 4.224c-.571.318-1.638.303-2.205-.023-10.904-6.529-21.769-13.129-32.633-19.73-5.89-3.578-11.78-7.156-17.676-10.723-8.37-6.637-19.977 10.802-10.09 15.794 4.517 2.742 9.02 5.471 13.519 8.198l.003.001.005.003.005.004A9669 9669 0 0 1 89.7 261.536c-7.571 5.17-10.465 10.651-9.806 19.796.103 8.283-.08 16.595-.264 24.909-.292 13.217-.584 26.437.275 39.552 1.212 4.721 4.488 7.953 8.279 10.71 1.976 1.253 1.515 1.526.122 2.35q-.258.15-.556.333l-6.848 3.807-.008.005-.006.003a28853 28853 0 0 0-33.8 18.812c-6.937 3.12-3.187 13.507 2.308 16.609 3.702 2.045 7.18-.181 10.556-2.342 1.45-.928 2.882-1.844 4.304-2.405l9.194-5.134.082-.046.02-.011c11.248-6.28 22.496-12.561 33.731-18.859 1.138-.638 2.149-.634 3.298.048 2.955 1.848 5.995 3.581 9.035 5.315h.001c4.555 2.598 9.11 5.195 13.376 8.177-8.341 5.369-17.14 10.134-25.938 14.898h-.001c-5.793 3.137-11.586 6.273-17.247 9.582-2.186 1.216-3.776 2.798-3.965 5.447-.411 5.737 5.358 14.093 11.684 11.603 9.824-5.312 19.565-10.78 29.306-16.247l.003-.002c8.068-4.528 16.135-9.057 24.25-13.497.656-.363 1.882-.318 2.549.06l1.613.924.215.124.106.061c7.209 4.133 14.188 8.134 21.36 12.55-8.898 5.14-17.871 10.119-26.846 15.099l-.002.001h-.001l-.001.001c-6.196 3.437-12.393 6.876-18.567 10.368-2.242 1.256-3.228 3.235-3.068 5.766.263 5.789 5.751 13.786 12.188 10.495q7.042-3.926 14.09-7.844a8344 8344 0 0 0 25.476-14.209l1.49-.832h.001l.001-.001h.001c4.33-2.418 8.659-4.834 13.029-7.167.582-.308 1.598-.234 2.231.055 13.332 7.592 26.567 15.395 39.795 23.193a9437 9437 0 0 0 12.17 7.168c10.688 6.418 23.387 8.267 35.657 6.904 6.866-.793 13.403-2.568 19.418-6.004 6.177-3.557 12.345-7.13 18.514-10.704l.036-.021h.001l.002-.001.001-.001c11.533-6.681 23.066-13.362 34.656-19.941.582-.33 1.675-.378 2.231-.052 5.911 3.483 11.782 7.038 17.653 10.594h.001v.001h.001l1.305.791.91.55a28193 28193 0 0 1 31.895 19.351c2.52 1.531 5.221.931 7.067-.429 4.476-3.184 8.526-11.559 2.864-15.387-7.474-4.587-14.978-9.125-22.483-13.664l-.008-.005a4423 4423 0 0 1-20.143-12.23c-1.301-.793-1.256-1.174.096-1.953l2.696-1.555.012-.007c5.924-3.418 11.848-6.835 17.751-10.288 1.216-.712 2.228-.667 3.417.059 9.712 5.931 19.447 11.828 29.182 17.725l.009.005.009.006.02.012.02.012.002.001c7.621 4.617 15.242 9.233 22.853 13.867 8.475 5.025 18.755-11.988 8.712-16.624-11.067-6.562-21.927-13.199-32.864-19.883zm11.127-21.08-.028-.055q-.05-.102-.104-.203c-.124.034-.26.057-.395.079-.293.047-.585.095-.765.262-3.483 2.869-8.356 4.169-12.38 2.035-1.216-.404-2.315-1.211-3.394-2.003q-.325-.24-.649-.473-.618-.359-1.189-.686c-3.767-2.167-6.086-3.5-8.798-7.7a70 70 0 0 0 11.195 7.716c-1.219-14.43 4.695-24.232 18.036-29.75a96 96 0 0 1-3.167-1.964c-5.282-3.374-8.955-5.72-15.907-1.219 4.647-5.129 11.836-3.443 16.739.359 6.207 2.972 12.555 7.505 10.376 15.32-.256 1.093.17 1.641.982 2.134.821.323 1.94 1.088 3.157 1.921 2.602 1.78 5.652 3.867 7.189 2.582 5.299-3.321 10.636-7.704 10.728-14.549.016-7.594.139-15.184.262-22.772v-.005c.198-12.256.396-24.508.142-36.766-4.179 6.145-10.373 9.667-16.629 13.224q-1.091.62-2.181 1.247c-18.018 10.483-36.08 20.89-54.143 31.298l-.008.005-.019.01-.005.003c-14.068 8.106-28.137 16.212-42.185 24.354-7.837 4.557-15.691 9.086-23.545 13.615l-.006.003-.013.008c-8.739 5.039-17.479 10.078-26.196 15.157-10.276 6.588-22.519 9.553-34.678 8.623-9.92-.389-19.229-3.88-27.596-9.12-11.406-6.603-22.772-13.273-34.139-19.942l-.001-.001-.001-.001h-.001q-7.471-4.386-14.948-8.764c-11.442-6.681-22.874-13.379-34.306-20.077l-.008-.005-.013-.008-.01-.006-.01-.006c-15.123-8.86-30.246-17.721-45.392-26.542q-12.474-7.287-24.936-14.6c-4.313-2.531-8.382-5.344-10.913-9.861-.072-.13-.223-.215-.456-.347a8 8 0 0 1-.508-.305c.028 10.463-.071 20.819-.17 31.173v.001c-.089 9.341-.178 18.68-.174 28.095.189 6.01 4.317 11.128 9.36 14.067.62.389 1.853.355 2.531 0 .65-.448 2.026-1.149 3.64-1.971 3.875-1.974 9.122-4.647 8.978-6.193-.46-1.561-.181-3.027.099-4.5.099-.52.198-1.04.264-1.566.341-2.691 2.224-4.34 4.125-5.626a92 92 0 0 0 2.622-1.572c2.855-1.755 5.796-3.562 9.014-4.194l.068.261.001.002v.001l.068.259-3.882 2.236-1.896 1.093-1.986 1.144.024.227.014.123.011.105c11.999 3.247 20.044 17.758 16.486 29.687l.456.141 3.938-2.151.011-.006.012-.007.012-.006.011-.006.011-.006 3.95-2.158.174.226q.088.112.174.226c-1.763 1.976-4.162 3.165-6.495 4.322l-.208.103c-5.574 3.443-9.924 5.006-15.768.93-1.699-1.722-2.449-1.21-3.702-.354-.57.389-1.245.849-2.16 1.203 4.816 3.167 9.784 6.006 14.76 8.849 2.819 1.611 5.642 3.224 8.441 4.899 1.338.607 5.653-2.005 9.088-4.083l.001-.001c1.616-.978 3.038-1.839 3.862-2.19.501-.293 1.116-1.212.99-1.627-.516-1.67-.199-3.238.121-4.818.094-.463.187-.928.261-1.396.411-2.646 2.23-4.302 4.172-5.577.82-.469 1.639-.964 2.463-1.461 3.025-1.826 6.116-3.692 9.533-4.476.059.163.114.326.174.489l-3.365 1.928-.164.094-.042.024-4.593 2.631c12.996 6.166 18.536 16.112 16.883 30.361 1.811-.999 3.609-1.993 5.403-2.984l.049-.027 1.509-.834 1.559-.861c.115.111.226.222.341.329a9.4 9.4 0 0 1-3.606 2.835c-11.68 8.313-15.93 5.32-18.833 3.275-1.839-1.295-3.138-2.21-5.443.368q2.903 1.694 5.805 3.391l.038.022.006.004c5.609 3.28 11.217 6.559 16.859 9.779.63.36 1.787.378 2.431.045.615-.417 1.832-1.035 3.242-1.75 3.326-1.686 7.723-3.916 7.801-5.339-.881-4.381.567-9.728 4.544-11.937 1.213-.825 2.533-1.496 3.853-2.167 1.381-.702 2.763-1.404 4.021-2.283 1.827-1.276 3.801-1.518 5.619-1.742a26 26 0 0 0 1.782-.259c-3.628 1.452-7.89 3.62-11.355 5.699 13.093 6.085 18.592 16.094 16.961 30.417 1.234-.81 2.54-1.489 3.84-2.165 2.86-1.488 5.692-2.96 7.659-5.773-1.026 3.146-4.058 5.358-6.974 6.789-1.255.558-2.449 1.315-3.642 2.072-1.522.966-3.044 1.932-4.692 2.482-5.016 1.531-7.876-.457-9.938-1.89-1.715-1.193-2.878-2.001-4.27-.078 8.426 5.193 17.005 10.15 25.584 15.108l.001.001h.001l.001.001h.001l.002.001.001.001c7.681 4.438 15.362 8.877 22.935 13.485 11.948 7.779 26.459 10.725 40.526 8.55 10.157-1.201 18.864-6.475 27.524-11.721 3.477-2.105 6.945-4.206 10.497-6.037 3.001-1.735 5.988-3.453 8.968-5.167l.019-.011.002-.001c7.878-4.53 15.704-9.031 23.606-13.739-3.151-2.436-4.883-1.382-6.928-.138-2.926 1.78-6.493 3.951-15.777-3.156-.366-.258-.773-.474-1.187-.693-1.202-.637-2.453-1.3-2.878-3.098l2.503 1.47 1.718 1.01 3.19 1.874c-1.022-14.352 4.759-24.161 18.051-29.664l-2.719-1.682-4.718-2.917.028-.069.07-.171.098-.238c4.647 1.571 13.103 5.907 14.878 10.635 1.191 2.625.853 4.655.602 6.158-.226 1.356-.38 2.284.721 2.836.945.402 2.34 1.334 3.882 2.364 3.226 2.154 7.091 4.735 8.803 3.78 2.037-1.174 4.079-2.33 6.119-3.485l.003-.001.003-.002.002-.002c5.283-2.99 10.555-5.975 15.696-9.243-1.634-1.581-2.372-1.058-3.704-.115-1.074.761-2.536 1.796-5.168 2.22-4.081.893-7.534-1.426-10.875-3.669-1.164-.782-2.314-1.554-3.473-2.178-.21-.135-.434-.259-.66-.385-.995-.555-2.042-1.138-2.223-2.732l1.323.789 1.474.881 1.511.902 3.922 2.342c-1.241-14.363 4.677-24.21 18.069-29.761l-9.052-5.413-.268-.16c2.743.445 5.311 1.467 7.553 3.116 5.951 2.765 11.55 7.13 9.875 14.464-.211 1.167-.274 2.001.949 2.694.909.354 2.236 1.235 3.677 2.191 2.737 1.815 5.884 3.903 7.355 3.175 2.58-1.512 5.194-2.977 7.808-4.441l.001-.001.001-.001c4.803-2.691 9.608-5.383 14.213-8.375l-.004-.011zM159.492 236.988c6.253 3.52 12.509 7.042 18.251 11.079a10636 10636 0 0 1-17.991 10.409l-.008.005-.016.009-.023.014a9673 9673 0 0 0-18.566 10.744c-2.434.96-3.515 3.002-4.594 5.044-.492.93-.983 1.859-1.602 2.686-.152.2.122.849.352 1.182 2.516 3.839 4.572 6.107 8.678 7.942 22.146 13.049 44.344 26.01 66.543 38.971 13.815 8.066 27.629 16.131 41.431 24.218 2.391 1.39 4.779 2.798 7.167 4.204l.003.002.002.001.003.002c2.823 1.663 5.645 3.326 8.47 4.959 11.195 3.587 19.14 1.46 28.712-5.028 23.188-13.291 46.324-26.676 69.459-40.06l.003-.002.003-.002.004-.002.002-.001c12.739-7.37 25.477-14.739 38.224-22.093 1.546-.958 2.956-1.725 4.264-2.436 3.981-2.164 7.021-3.817 10.092-8.818 1.206-1.204.749-2.179.229-3.287-.212-.452-.434-.925-.559-1.445-.603-2.69-2.688-3.805-4.749-4.907a35 35 0 0 1-1.321-.73 2926 2926 0 0 0-16.544-9.71l-.007-.004c-6.387-3.73-12.774-7.459-19.183-11.279 5.765-3.437 11.471-6.708 17.188-9.986h.001v-.001h.001l.001-.001a1562 1562 0 0 0 12.57-7.258c.826-.482 1.415-.489 2.238-.004 6.742 3.967 13.504 7.901 20.265 11.835 9.755 5.675 19.511 11.35 29.206 17.125 23.035 12.037 20.452 26.163-1.445 36.928-9.339 5.465-18.719 10.858-28.1 16.251l-.003.002-.003.002-.003.001a5945 5945 0 0 0-20.165 11.629l-6.98 4.035-4.322 2.497c-27.79 16.064-55.582 32.128-83.405 48.135l-.073.043c-8.418 5.045-16.987 10.18-26.994 11.048-20.234 3.367-35.07-5.618-50.922-15.219-2.888-1.749-5.809-3.518-8.802-5.237-18.645-10.949-37.312-21.863-55.979-32.777a44167 44167 0 0 1-40.514-23.705c-4.73-2.799-9.479-5.565-14.228-8.331l-.003-.002-.005-.003h-.001l-.002-.001c-8.874-5.169-17.748-10.338-26.49-15.717-8.41-4.739-11.44-16.483-3.933-23.479 2.605-2.744 5.817-4.59 9.03-6.436q.57-.327 1.139-.657l2.311-1.338c16.076-9.312 32.155-18.625 48.29-27.829.43-.245 1.245-.271 1.668-.026 3.823 2.356 7.779 4.582 11.735 6.809m118.057 9.436c4.373.312 8.071-1.171 11.647-3.264 7.595-4.448 15.219-8.849 22.843-13.25l.006-.003 5.055-2.919a89363 89363 0 0 1 29.969-17.282l.064-.037.041-.024a57783 57783 0 0 0 41.372-23.864l.021-.012.008-.005.002-.001.002-.001c7.79-4.5 15.579-9 23.358-13.522.835-.537 1.893-1.107 3.029-1.718 5.261-2.832 12.194-6.564 6.413-12.138-23.387-14.129-47.026-27.877-70.665-41.624-13.832-8.044-27.663-16.088-41.444-24.208-5.021-2.803-9.142-5.299-12.657-7.428-18.243-11.05-20.204-12.239-47.372 4.638-14.186 8.21-28.388 16.396-42.589 24.583-24.193 13.945-48.385 27.89-72.506 41.957-7.666 5.773.52 10.197 6.708 13.542h.001c1.58.854 3.03 1.637 4.052 2.355q6.303 3.683 12.61 7.357l.006.003h.001v.001q6.697 3.9 13.386 7.81c14.024 8.246 28.066 16.461 42.108 24.676a33362 33362 0 0 1 30.113 17.632c3.031 1.44 6.676 3.754 10.543 6.21 8.199 5.206 17.4 11.049 23.879 10.54zm79.057-4.621c22.208-12.758 44.411-25.514 66.441-38.622q.001 2.137.015 4.232v.049c.019 3.467.038 6.862-.06 10.251-.059 2.071-1.656 3.39-3.302 4.358-5.371 3.155-10.766 6.266-16.16 9.377l-.003.002-.003.002-.003.002a5098 5098 0 0 0-6.424 3.709c-22.754 13.173-45.533 26.303-68.312 39.433l-.013.007-.012.007-.012.007-.018.01-.018.011-.018.01a87151 87151 0 0 0-26.571 15.319 259 259 0 0 0-5.814 3.433c-12.081 7.275-20.395 12.282-35.238 1.692-32.832-19.2-65.654-38.425-98.464-57.661-3.608-2.232-7.315-4.324-11.024-6.417-6.764-3.817-13.534-7.636-19.711-12.316-1.737-1.694-1.524-6.994-1.344-11.482v-.001c.086-2.139.164-4.093.021-5.385l.089-.033.063-.023.237-.088.104-.038c17.445 10.857 35.245 21.169 53.046 31.481l.001.001c12.124 7.024 24.248 14.047 36.26 21.243a4207 4207 0 0 1 17.176 10.053l.007.004.002.002.002.001c9.957 5.849 19.913 11.698 29.953 17.4 4.269 2.375 8.931 2.783 13.771 2.023 3.708-.582 6.796-2.417 9.884-4.252h.001v-.001a126 126 0 0 1 2.066-1.209c5.12-2.914 10.216-5.873 15.313-8.833l.002-.002h.001q3.983-2.316 7.97-4.621c13.344-7.764 26.722-15.45 40.099-23.135m-225.384-76.352c-.185 2.685-.197 5.413-.209 8.14a188 188 0 0 1-.073 5.375c.021 3.853 3.817 5.822 7.322 7.64 1.43.742 2.812 1.459 3.87 2.269 21.695 12.643 43.357 25.342 65.02 38.041l.008.004.001.001.004.003.002.001.002.001.002.001a34328 34328 0 0 0 54.651 31.993c7.019 4.962 16.583 8.331 24.658 3.817 24.441-13.98 48.817-28.092 73.191-42.204 11.735-6.794 23.47-13.588 35.212-20.367l4.114-2.383c7.088-4.108 14.176-8.215 21.259-12.332 2.12-1.231 3.209-3.057 3.187-5.555-.058-1.746-.035-3.494-.012-5.242.035-2.609.069-5.217-.166-7.813-21.346 12.676-42.855 25.039-64.366 37.403l-.002.001c-14.667 8.43-29.335 16.861-43.953 25.393l-8.311 4.803-.046.027c-5.065 2.927-10.132 5.854-15.193 8.788l-.123.071c-3.471 2.011-6.926 4.012-11.102 4.265-7.933 1.063-14.529-3.081-21.042-7.173-2.337-1.468-4.663-2.929-7.036-4.141l-9.758-5.695-.342-.199-.002-.002h-.001c-36.977-21.579-73.898-43.126-110.77-64.935zm3.593 23.758v.001c.038 2.284.074 4.427-.084 6.557-.259 3.48 1.371 5.533 4.21 7.152 4.71 2.694 9.385 5.448 14.058 8.202l.007.004.007.004.007.005q2.768 1.632 5.539 3.258 18.108 10.595 36.208 21.205l.023.013.004.002.003.002.003.002c22.239 13.032 44.48 26.065 66.756 39.035 14.724 10.295 21.962 5.935 34.985-1.91l.005-.003 2.126-1.278a65591 65591 0 0 0 96.43-55.656c1.423-1.074 4.456-2.7 7.906-4.549 7.287-3.905 16.431-8.806 16.185-11.608.133-2.737.106-5.479.079-8.296-.012-1.184-.024-2.38-.024-3.595-20.887 11.636-41.583 23.669-62.281 35.702l-.003.001c-13.735 7.985-27.47 15.97-41.261 23.84q-3.33 1.927-6.655 3.862l-.003.002-.002.001-.002.001c-5 2.907-9.999 5.813-15.035 8.659-.868.492-1.722 1.014-2.578 1.537-2.731 1.669-5.469 3.343-8.683 4.015-9.428 2.497-17.408-2.548-25.19-7.466-2.507-1.585-4.994-3.157-7.502-4.459-13.539-7.926-27.047-15.84-40.548-23.751-24.882-14.578-49.74-29.143-74.725-43.734 0 1.118.018 2.195.035 3.242zm159.54 163.881c-.723-.438-1.474-.883-2.24-1.337-8.611-5.101-19.233-11.394-15.425-22.858 2.136-7.574 12.776-12.981 22.153-17.747 3.974-2.019 7.721-3.924 10.498-5.829 9.448-5.369 18.912-10.622 28.376-15.875l.002-.001.002-.001.002-.001.001-.001h.001l.001-.001c11.334-6.291 22.667-12.58 33.967-19.068-1.374-.802-2.731-1.602-4.082-2.397l-.003-.002c-3.197-1.884-6.36-3.747-9.634-5.576-.63-.352-1.786-.333-2.431.015-11.536 6.388-23.038 12.836-34.541 19.284l-.003.002-.002.001-.003.002c-11.289 6.328-22.579 12.657-33.899 18.928a43275 43275 0 0 0-27.378 15.29c-8.096 4.094-18.517 12.243-12.914 22.427 3.484 5.971 9.493 9.321 15.46 12.648 2.665 1.486 5.322 2.968 7.742 4.676l.528.321c1.399.851 2.799 1.703 4.241 2.473 6.574 2.223 14.015-1.764 19.588-5.37zm110.133-63.49-1.41-.83-.001-.001c-6.603-3.885-13.129-7.726-19.782-11.528-1.423-.611-3.227.045-4.465.978-15.619 8.802-31.278 17.532-46.937 26.262-12.349 6.885-24.698 13.77-37.027 20.69-15.563 7.409-6.592 12.517 2.346 17.607 2.099 1.195 4.196 2.389 5.973 3.612 1.116.693 2.016.622 3.106-.015 4.681-2.736 9.377-5.443 14.073-8.15l4.27-2.463a18310 18310 0 0 1 31.249-18.042l.066-.038.011-.007c16.165-9.319 32.314-18.63 48.528-28.075m-7.313-5.666.002.001c2.567 1.46 5.132 2.92 7.66 4.427 1.37.424 2.635-.383 3.874-1.175.665-.425 1.322-.844 1.984-1.067 3.302-1.619 5.659-4.758 7.093-7.897-.197-.473-.365-.958-.533-1.443-.6-1.735-1.195-3.456-3.121-4.516-7.769-4.42-15.469-8.967-23.169-13.513a2618 2618 0 0 0-14.64-8.602c-.915-.541-1.734-.645-2.713-.071-2.016 1.301-4.152 2.482-6.287 3.662v.001h-.001c-3.121 1.726-6.241 3.451-8.983 5.546l.26-.072 1.126-.313-.895 1.535-.394.677c2.899 2.035 6.03 3.788 9.151 5.536 1.47.823 2.938 1.645 4.378 2.494.534.297 1.497.237 2.083-.037.823-.303 1.591-.784 2.357-1.265 1.316-.825 2.626-1.647 4.202-1.551l.035.244.035.245c-13.209 7.436-26.452 14.814-39.694 22.193l-.002.001-.001.001-.001.001c-12.713 7.083-25.426 14.167-38.111 21.302q-2.265 1.27-4.534 2.534c-4.487 2.5-8.974 5-13.372 7.649-9.872 5.284-10.242 19.255-.663 25.006 2.598 1.852 5.369 3.464 8.136 5.075q1.031.598 2.059 1.202c1.519.854 3.895-.687 6.124-2.133v-.001c1.071-.694 2.107-1.367 2.999-1.742-2.358-1.208-4.522-2.535-6.707-3.875a184 184 0 0 0-3.732-2.247q-.552-.333-1.109-.66c-2.1-1.238-4.2-2.475-5.702-4.513-3.068-3.661-.193-7.596 3.131-9.609 6.997-4.061 14.049-8.022 21.104-11.976 10.854-6.011 21.678-12.076 32.501-18.142l.005-.003c13.867-7.771 27.733-15.542 41.664-23.196.07.107.145.218.215.326a476 476 0 0 0-1.304 1.89v.007c4.359 2.87 8.926 5.468 13.49 8.064m-206.479-21.018.004.002c6.522 3.624 13.076 7.267 18.75 12.115 4.758 4.094 1.245 9.59-2.917 12.125-5.642 3.308-11.237 6.453-16.855 9.611l-.003.001-.001.001c-4.228 2.377-8.47 4.761-12.757 7.229.789.342 1.837 1.03 2.944 1.757h.001c2.196 1.443 4.628 3.04 5.734 2.39 2.94-2.093 6.894-4.058 11.061-6.128 11.541-5.735 24.725-12.286 22.602-24.652-.504-3.261-1.813-6.233-4.785-8.049a2193 2193 0 0 0-33.918-19.933c-.689-.392-1.956-.318-2.705.049-6.277 3.49-12.489 7.112-18.701 10.734l-.001.001a1484 1484 0 0 1-13.26 7.671l-.182.099c-3.845 2.097-8.921 4.864-9.038 9.847 2.027 4.345 6.271 6.581 10.353 8.732l.516.273c2.104.676 4.295-.791 6.359-2.174.989-.662 1.95-1.306 2.857-1.684q4.652-2.687 9.299-5.363l.002-.001.001-.001h.001c7.857-4.528 15.706-9.05 23.545-13.653l-.423-.958-.007-.014-.006-.015-.505-1.143-.004-.004zm-61.342 176.802c.263 5.01 4.84 12.562 10.595 10.028q6.273-3.493 12.547-6.983l.004-.003.005-.002.03-.017.003-.002c17.176-9.556 34.352-19.113 51.464-28.779 7.482-4.551-1.797-19.374-8.593-14.408-8.345 4.642-16.685 9.299-25.025 13.956l-.002.001-.002.001-.003.002-.016.009a12202 12202 0 0 1-37.89 21.098c-1.968 1.097-3.246 2.672-3.117 5.099m-10.646-27.768.001-.001h.001v-.001c4.961-2.844 9.92-5.688 14.962-8.335l1.691-.942 1.591-.886c8.16-4.543 16.318-9.085 24.421-13.728 1.086-.623 2.076-1.875 2.531-3.058 1.179-3.068-.9-8.126-4.131-10.75-2.235-1.816-4.44-2.053-6.923-.674-5.836 3.244-11.669 6.498-17.5 9.752l-5.709 3.184-19.848 11.078-.057.032-.378.21-.236.132-.151.085-19.036 10.624c-6.986 3.583-1.138 15.141 5.228 15.849 8.057-3.691 15.8-8.131 23.543-12.571m-66.017-13.388c8.014-3.69 15.718-8.108 23.423-12.527 5.007-2.871 10.013-5.742 15.105-8.414 4.412-2.464 8.817-4.941 13.223-7.417l.013-.007.017-.01.023-.013c4.684-2.632 9.367-5.264 14.057-7.883 2.376-1.327 3.447-3.257 3.046-5.944-.533-3.565-2.193-6.511-5.165-8.583-1.153-.804-2.509-1.552-4.006-.822l-1.178.57-.028.014c-2.54 1.229-5.084 2.46-7.551 3.826l-7.848 4.39-.217.122c-16.092 9.004-32.187 18.01-48.317 26.945-6.915 3.602-.967 15.246 5.403 15.761zm381.295-37.22c-.382 3.427 2.421 4.938 5.067 6.364l.001.001c.744.401 1.476.796 2.121 1.225 13.256 8.22 26.607 16.283 39.959 24.347a9289 9289 0 0 1 17.646 10.675c5.003 2.968 9.631-2.846 10.925-7.196 1.059-3.358.222-5.689-2.572-7.441q-9.101-5.511-18.207-11.013l-.072-.043-.071-.043q-9.106-5.504-18.207-11.013a38874 38874 0 0 1-25.377-15.349c-5.729-3.198-10.987 4.269-11.209 9.483zm-19.763 91.035c5.985-.678 12.255-10.991 6.4-15.146-6.392-3.917-12.815-7.785-19.238-11.654l-.004-.002-.004-.002-.004-.003-.007-.004c-4.399-2.65-8.798-5.299-13.186-7.964-3.771-2.301-7.55-4.59-11.329-6.878l-.003-.002-.003-.002-.003-.002c-6.112-3.701-12.223-7.402-18.301-11.159-5.54-3.72-11.113 3.198-11.654 8.471-.323 2.709.441 4.462 2.698 5.822 8.847 5.118 17.565 10.505 26.284 15.892l.002.001c12.655 7.819 25.309 15.637 38.352 22.632m52.292-34.374c.055-2.176-.956-3.732-2.776-4.818-13.184-7.901-26.321-15.883-39.457-23.866h-.001l-.002-.001-.001-.001-.008-.005-.007-.004-.007-.004c-7.494-4.554-14.988-9.108-22.491-13.647-7.301-4.209-15.512 9.735-9.016 14.234 20.726 12.592 41.467 25.165 62.256 37.65 5.907 3.598 11.513-4.814 11.51-9.538M163.609 296.219c3.409 1.954 6.82 3.908 10.169 5.976 1.323.79 2.305.875 3.662.104 3.628-2.172 7.369-4.188 11.112-6.205h.001c6.817-3.673 13.641-7.35 19.803-11.986 6.52-6.4-3.522-11.839-10.846-15.804-2.179-1.18-4.117-2.23-5.307-3.136-.626-.359-1.845-.215-2.538.156a1800 1800 0 0 1-14.206 8.163c-8.453 4.823-16.9 9.643-25.227 14.719h-.003c4.36 2.846 8.869 5.429 13.38 8.013m-56.648-44.866c-10.481-6.576-21.066-12.956-31.655-19.338l-.004-.003c-6.725-4.053-13.452-8.107-20.155-12.213-1.841-1.108-3.79-.952-5.647.245-4.399 2.645-8.13 10.854-3.087 14.166l7.417 4.48.004.003c11.67 7.047 23.342 14.094 34.958 21.228 1.26.774 2.253.778 3.502 0 2.661-1.615 5.23-3.091 7.83-4.583 2.231-1.282 4.485-2.576 6.837-3.981zm342.581 2.435c2.845 2.392 6.217 4.235 9.586 6.076 2.037 1.113 4.072 2.225 5.99 3.459.415.237 1.208.159 1.66-.082 13.522-7.471 27.029-14.971 40.488-22.553 4.762-3.246 2.294-10.28-2.197-13.83-2.65-2.008-3.973-1.841-6.37-.596-4.482 2.498-8.968 4.986-13.454 7.474l-.002.001c-11.935 6.618-23.867 13.236-35.704 20.047zm-41.2-23.724c1.387.815 2.749 1.624 4.102 2.427 2.983 1.772 5.925 3.519 8.994 5.255.556.311 1.579.3 2.15-.004 7.929-4.346 15.817-8.773 23.704-13.2 5.725-3.213 11.45-6.426 17.192-9.609 7.508-4.246-1.671-19.607-9.083-14.207-5.048 2.9-10.144 5.713-15.241 8.526v.001h-.001l-.001.001a1459 1459 0 0 0-10.385 5.768l-.661.368c-2.439 1.356-4.818 2.678-6.395 5.428-.815 1.42-2.51 2.371-4.162 3.297-.534.3-1.063.596-1.556.905-1.879 1.174-3.807 2.273-5.899 3.465-.887.505-1.803 1.027-2.758 1.579m-262.731-1.034c-1.294-1.1-3.493-2.289-5.855-3.567-4.729-2.558-10.113-5.471-10.209-8.729-.108-2.292-1.684-3.136-3.318-4.011-.601-.321-1.209-.647-1.755-1.051l-7.345-4.439-.011-.007-.011-.006c-6.089-3.682-12.179-7.365-18.277-11.03-2.164-1.301-4.224-1.078-6.296.485-4.294 3.098-7.756 11.303-1.849 14.238a9534 9534 0 0 0 41.141 24.843c1.6.881 5.854-1.851 9.433-4.149 1.736-1.115 3.314-2.128 4.352-2.577m40.689 80.088c2.087 1.919 4.652 3.272 7.215 4.623 1.45.765 2.9 1.529 4.262 2.395.463.256 1.323.2 1.808-.063 8.121-4.439 16.197-8.961 24.273-13.484h.001l.001-.001h.001q5.561-3.117 11.128-6.222c.223-.14.661-.389 1.24-.716v-.001c3.61-2.044 12.673-7.178 8.825-8.554a1146 1146 0 0 1-9.456-5.553h-.001l-.004-.002c-5.479-3.241-10.958-6.481-16.527-9.565 3.446 8.927 1.208 17.443-7.093 22.516-5.357 3.265-10.8 6.295-16.26 9.335l-.001.001h-.001c-3.134 1.745-6.274 3.493-9.407 5.291zm74.124-5.406c-14.054 7.73-27.853 15.318-25.228 34.425l-22.388-13.112-.549-.322-3.365-1.971c3.861-2.189 7.687-4.338 11.492-6.476l.002-.001.004-.002c8.942-5.025 17.775-9.987 26.708-15.258 2.242-1.33 4.175-3.229 6.08-5.101q.55-.544 1.101-1.077c1.086-1.048 1.749-1.437 3.191-.478 1.361.99 2.821 1.775 4.277 2.558 1.766.95 3.528 1.897 5.106 3.205-2.111 1.235-4.274 2.424-6.431 3.61m20.89-1.287-.059-.152v-.001l-.059-.151c-3.902.245-7.719.378-11.51-.941-.838-.267-2.053-.015-2.872.419-2.23 1.318-4.548 2.545-6.873 3.777-7.456 3.948-14.979 7.932-19.86 15.037-3.502 5.303-6.311 14.296-1.671 19.54 6.966 4.231 14.019 8.328 21.072 12.424l.002.001c2.817 1.637 5.634 3.273 8.445 4.918.534.307 1.174.433 1.815.559.302.059.603.118.894.197-2.95-2.73-6.565-4.743-10.197-6.767-5.274-2.937-10.585-5.894-13.953-11.095-5.862-7.993-.063-18.254 7.689-22.345 4.658-2.77 9.395-5.405 14.131-8.039h.001l.001-.001c4.355-2.422 8.71-4.845 13.004-7.372zm-26.714-9.716c-.59-.228-1.452-.796-2.392-1.415-1.946-1.283-4.232-2.789-5.157-1.972-3.349 3.545-7.534 5.867-11.726 8.193l-.321.178q-4.193 2.342-8.355 4.661l-.023.012-.097.054-.011.007h-.002c-8.897 4.96-17.72 9.877-26.668 14.984.954.385 2.003 1.103 3.075 1.836 2.248 1.538 4.598 3.145 6.382 1.903 6.418-3.702 12.887-7.314 19.355-10.926l.002-.001c5.452-3.045 10.904-6.09 16.325-9.187 3.662-2.079 6.745-4.888 9.613-8.327m-121.229-90.827c-3.452-2.252-3.357-6.908.178-8.825-.278 4.496-.068 8.296 4.147 10.515 4.977 2.929 9.964 5.84 14.951 8.751h.002l.001.001.001.001.023.013.023.014q4.504 2.627 9.004 5.261c14.309 8.282 28.56 16.682 42.811 25.081 21.319 12.566 42.639 25.132 64.155 37.308 6.303 2.794 12.762 2.672 18.843-.738 6.922-3.881 13.784-7.866 20.646-11.851l.002-.001.002-.001q3.857-2.24 7.718-4.474a41123 41123 0 0 1 54.418-31.443c9.241-5.322 18.471-10.665 27.7-16.008l.018-.01.017-.01q9.079-5.257 18.16-10.505c4.225-2.112 4.536-5.851 4.276-10.157 3.147 1.093 3.58 5.736 1.023 7.76-1.834 1.449-3.883 2.653-5.914 3.835a4081 4081 0 0 1-17.079 9.851l-.007.004-6.186 3.556a62803 62803 0 0 0-104.727 60.529c-8.178 4.851-18.139 2.357-25.388-2.883a6323 6323 0 0 1-24.921-14.556c-14.984-8.837-30.003-17.613-45.023-26.39l-.004-.002-.004-.002-.013-.008c-15.853-9.263-31.706-18.525-47.517-27.861a453 453 0 0 0-3.177-1.847h-.001l-.003-.002-.003-.002c-2.748-1.588-5.496-3.176-8.152-4.904M349.667 415.3c-2.293-1.286-4.608-2.584-5.463-5.046-.993-4.921 1.189-8.742 4.662-11.981 3.549-3.764 6.912-1.759 10.353.292 1.114.664 2.237 1.334 3.376 1.813 2.539-12.896-8.86-14.015-16.049-5.947-5.555 5.254-12.107 19.543-4.262 25.102 3.306 1.56 7.486.363 10.15-2.531h.004c-.846-.622-1.806-1.161-2.771-1.702m90.129-45.594c-1.021-.841-2.191-1.483-3.337-2.113-2.258-1.24-4.426-2.431-5.201-4.995-1.037-5.08 2.617-10.868 6.719-13.181 2.94-1.834 5.843.053 8.591 1.84 1.048.681 2.074 1.348 3.071 1.788l.291-.15.009-.004.282-.146c.467-20.292-18.255-8.382-22.316 3.024-5.34 9.946.059 23.231 11.895 13.937zm-33.677 7.063c1.616-5.103-.797-11.817-6.77-11.269-7.026 1.371-11.922 7.337-14.842 13.533-2.835 5.514-4.358 17.614 4.621 17.48 2.528-.252 4.996-1.008 6.822-3.061-.916-.94-2.135-1.645-3.362-2.355-2.017-1.167-4.055-2.346-4.809-4.604-1.337-4.899 2.387-10.932 6.419-13.215 2.983-1.914 5.646-.211 8.353 1.52 1.17.749 2.348 1.502 3.564 1.971zM195.135 398.41c-1.221.717-2.455 1.441-3.744 1.837-.607-3.442-.488-6.547 1.909-9.192 8.023-5.967 16.817 5.68 19.533 12.451 3.324 6.248 2.901 20.185-7.33 16.594-.282-.12-.569-.231-.857-.343h-.001c-1.372-.531-2.757-1.067-3.633-2.596.931-.748 2.081-1.366 3.239-1.987 2.744-1.473 5.531-2.97 5.554-6.295.319-4.247-3.361-10.265-7.278-12.055-2.629-1.208-4.986.175-7.392 1.586m-36.706-7.185c1.04 1.787 2.676 2.335 4.26 2.866h.001l.001.001q.369.122.73.25c11.536 2.808 9.746-13.967 5.444-19.893-3.032-5.517-10.21-13.866-17.265-10.098-2.835 1.931-3.895 6.519-2.594 9.88 1.196-.356 2.39-1.061 3.591-1.77 2.368-1.398 4.765-2.812 7.255-1.595 4.014 1.99 6.037 5.51 7.108 9.69 1.317 5.018-1.836 6.771-5.315 8.705-1.082.602-2.195 1.22-3.216 1.96zm-42.556-25.91c2.687 3.554 8.571 4.936 11.784 1.434 3.991-5.325 1.534-12.948-1.33-18.188-3.157-5.506-10.424-14.211-17.484-9.957-3.161 2.52-3.168 6.018-2.642 9.82 1.3-.394 2.55-1.133 3.787-1.865 2.462-1.457 4.871-2.882 7.516-1.489 3.902 2.053 5.888 5.533 6.896 9.665 1.284 4.914-1.854 6.666-5.272 8.576-1.101.615-2.231 1.246-3.251 2.004zm308.726-181.439c-.363.297-.803.59-1.258.892-1.698 1.127-3.607 2.395-2.54 4.611 3.157-1.112 4.654-3.78 3.798-5.503M116.914 346.375c3.676 2.935 5.815 6.666 6.074 11.78 1.212-3.92-2.405-10.683-6.074-11.78m278.684 27.945c-3.413.652-7.937 7.537-6.625 11.439.478-4.777 2.49-8.504 6.625-11.439m-229.983 9.142c1.123-3.547-2.802-10.528-6.448-11.273 3.876 2.946 6.059 6.6 6.448 11.273m36.023 14.585c4.002 2.972 6.066 6.663 6.615 11.214.819-3.976-2.92-10.269-6.615-11.214m143.659 11.355c.46-4.655 2.939-8.361 6.467-11.496-4.24 1.872-6.989 7.008-6.467 11.496m87.258-48.075c.441-3.52 2.061-6.485 4.692-9.39-2.816 1.134-5.362 6.519-4.692 9.39m-300.74-177.199-.363.311 1.716 1.99c.468-1.529-.407-1.9-1.28-2.27zm53.288-38.743c-.137.604-.248 1.086-.359 1.567q-.2.073-.404.145c-.664-.927-1.219-3.224.196-3.91 4.626-2.61 9.226-5.269 13.825-7.928 5.064-2.928 10.128-5.855 15.228-8.718.396-.226 1.149-.233 1.538-.007a4756 4756 0 0 1 35.278 20.604q.219.12.439.234c1.126.588 2.205 1.152 1.707 2.975l.37.137c.424-.297 1.024-.61 1.669-.945 2.365-1.231 5.332-2.774 2.385-5.025-4.278-2.48-8.543-4.996-12.808-7.512-7.301-4.307-14.603-8.614-21.981-12.747l-.377.513-.143.194c-.245.333-.477.646-.706.96-.059-.25-.139-.513-.22-.781v-.001c-.375-1.239-.78-2.581.712-3.224 4.854-2.786 9.697-5.59 14.539-8.393a4615 4615 0 0 1 15.1-8.716c4.839 2.852 9.699 5.675 14.559 8.499h.001l.001.001c7.708 4.478 15.418 8.958 23.052 13.553.38.238.568.789.768 1.376.095.281.194.57.317.836l.323-.181c2.003-1.122 2.846-1.595 5.125-.115 6.161 3.69 12.364 7.312 18.567 10.934l.004.003.028.016q2.75 1.606 5.499 3.214c1.08.632 2.167 1.254 3.253 1.877l.002.001c2.511 1.44 5.023 2.881 7.462 4.432.51.325.79 1.011 1.093 1.751.146.356.297.726.482 1.073.629.351 1.288.715 1.968 1.09l.003.002c1.55.855 3.204 1.768 4.836 2.718 3.61 2.104 7.212 4.219 10.814 6.334l.005.002.001.001c6.814 4 13.627 8 20.486 11.924.5.289.804 3.202.319 3.528-.867.199-1-.411-1.164-1.171l-.03-.139-.024-.102-.027-.118c-5.353 2.974-10.572 6.012-15.797 9.055l-.002.001c-3.669 2.136-7.341 4.274-11.064 6.393-1.351.645-1.475 1.219-1.621 1.898-.094.437-.198.918-.643 1.489-.467-.546-.595-1.046-.713-1.51-.176-.688-.331-1.296-1.544-1.859-4.741-2.746-9.485-5.54-14.232-8.335-6.696-3.942-13.397-7.888-20.098-11.709l-.477.637-.04.053-.698.933c-.046-.192-.1-.389-.154-.586-.356-1.309-.728-2.679.865-3.419 7.866-4.461 15.69-8.991 23.515-13.521l2.051-1.187.171-.099c.959-.545 1.985-1.129 1.163-2.877-11.954 6.676-23.785 13.566-35.617 20.455l-.001.001c-9.84 5.73-19.68 11.46-29.591 17.068-1.633.797-1.709 1.342-1.807 2.04-.061.434-.129.927-.587 1.577-.571-.628-.658-1.127-.739-1.588-.118-.674-.222-1.268-1.8-2.066-4.575-2.598-9.105-5.291-13.636-7.984h-.001v-.001h-.001c-6.816-4.051-13.633-8.103-20.602-11.833-.312.684-.56 1.223-.915 1.995l-.001.001-.048.105c-1.063-2.576-.689-3.724 1.145-4.784q5.286-3.064 10.568-6.134l.008-.005c4.798-2.788 9.596-5.575 14.401-8.351.804-.463 1.33-.9.759-2.012-5.29 2.962-10.48 5.981-15.673 9.002a1490 1490 0 0 1-11.408 6.592c-1.017.426-1.199 1.163-1.394 1.952-.129.522-.263 1.066-.648 1.557-.413-.518-.543-1.073-.666-1.602-.183-.789-.353-1.52-1.431-1.981-4.913-2.784-9.774-5.668-14.635-8.552-6.652-3.947-13.302-7.893-20.08-11.578zm40.444 22.353c7.614 4.734 15.335 9.182 23.068 13.637 4.078 2.349 8.158 4.7 12.229 7.096.519.3 1.519.274 2.049-.03 8.776-5.09 17.56-10.135 26.342-15.179 13.301-7.639 26.596-15.275 39.85-23.06-3.74-2.433-7.534-4.618-11.341-6.81h-.002l-.001-.001-.003-.002c-2.296-1.322-4.596-2.646-6.893-4.03-1.074-.431-3.424-1.9-6.126-3.588l-.001-.001c-5.312-3.32-11.983-7.49-12.983-6.286l-12.611 7.268c-17.876 10.301-35.699 20.57-53.577 30.986m98.467 14.72h.001c4.65 2.668 9.302 5.337 13.878 8.124 1.153.675 2.12.867 3.365.134 3.84-2.278 7.692-4.493 11.541-6.706l.003-.001c5.18-2.979 10.358-5.956 15.5-9.083-6.542-4.09-13.23-7.945-19.92-11.802h-.001c-4.98-2.871-9.962-5.743-14.886-8.713-1.046-.615-1.764-.656-2.791-.056-3.806 2.224-7.593 4.395-11.376 6.564l-.004.002-.003.002-.001.001c-5.279 3.027-10.552 6.049-15.86 9.206h.003c6.68 4.368 13.614 8.347 20.551 12.327m-36.559-54.92c-7.015-4.266-14.017-8.34-21.032-12.422-4.673-2.72-9.352-5.442-14.043-8.226-.908-.534-1.656-.526-2.568.007-3.664 2.156-7.33 4.256-10.991 6.354h-.002c-5.446 3.121-10.885 6.237-16.303 9.525 6.299 4.057 12.79 7.784 19.284 11.514h.001c5.02 2.883 10.042 5.767 14.978 8.805 1.449.867 2.52.789 3.891-.019 4.744-2.786 9.336-5.433 13.956-8.096l.001-.001.005-.002.009-.006c4.205-2.424 8.434-4.861 12.821-7.429zm-101.911 16.531c4.153 2.44 8.244 4.837 12.311 7.22l.002.001.018.011a7264 7264 0 0 1 22.421 13.176c1.153.681 2.12.704 3.28.025 3.884-2.28 7.733-4.498 11.578-6.714l.001-.001c5.164-2.976 10.32-5.948 15.543-9.06-6.66-3.983-13.23-7.815-19.808-11.65v-.001l-.002-.001h-.001c-5.005-2.919-10.015-5.84-15.071-8.833-1.086-.641-1.931-.608-2.987.008-3.91 2.281-7.739 4.486-11.56 6.687l-.001.001c-5.192 2.991-10.372 5.974-15.728 9.131zm73.603 1.909.11.11.088.091.045.045q.12.124.242.246c5.685-2.992 11.23-6.261 16.774-9.53l.001-.001c3.552-2.095 7.104-4.189 10.692-6.21.782-.452 1.145-.923.737-1.827-2.782 1.609-5.665 3.168-8.566 4.737-6.98 3.774-14.068 7.606-20.119 12.339zm59.902-5.624.427-.407.603-.573.223-.211c.61.518 1.675 1.062 2.822 1.649 2.365 1.209 5.077 2.595 4.867 4.295-.012.169.154.352.321.536.078.086.157.172.217.257.068-.076.156-.154.244-.232.19-.168.38-.335.367-.487-.057-1.84 1.665-2.634 3.345-3.409.834-.384 1.657-.764 2.247-1.264.635 1.658-.285 2.081-1.387 2.587-1.245.572-2.721 1.25-2.448 3.935.556-.156 1.111-.311 1.916-.534.461.38 1.366.845 2.393 1.373 2.441 1.255 5.573 2.866 5.077 4.527-.015.122.401.445.501.404.237-.1.504-.334.578-.567.061-.193.074-.435.087-.667.018-.344.035-.666.205-.778 1.251-.833 2.553-1.591 3.857-2.351q.646-.375 1.291-.755c.902 1.543-.437 2.226-1.79 2.916-1.614.824-3.249 1.657-1.127 3.973.367-1.47 1.115-1.012 1.885-.541l.165.1c.301.181.613.346.925.511.598.316 1.195.632 1.709 1.053.428.351.957.6 1.487.85 1.216.573 2.437 1.148 2.452 2.959.297.564.838.101 1.005-.303.07-.178.103-.398.135-.612.051-.339.1-.663.291-.785 1.224-.795 2.493-1.519 3.774-2.25h.001q.661-.377 1.324-.759c.892 1.565-.384 2.19-1.617 2.793-.457.223-.908.444-1.24.708-1.931 1.071-.964 5.192.563 2.216.602.491 1.665 1.036 2.82 1.628l.001.001c2.507 1.285 5.449 2.793 5.069 4.46-.016.125.139.271.295.418.074.07.149.14.205.208.46-.255.528-.798.59-1.287.041-.327.079-.63.229-.807 1.277-.859 2.603-1.645 3.924-2.427l.002-.001q.675-.398 1.343-.799c1.097 1.569-.294 2.222-1.641 2.855-.574.269-1.139.534-1.501.865-.913.485-.802 1.179-.69 1.874.046.292.093.584.064.861.696.071 1.197-.018 1.549-.693.577.486 1.659 1.047 2.836 1.657 2.406 1.247 5.211 2.701 4.927 4.146-.015.14.128.297.271.454.066.072.131.144.181.213.483-.246.647-.76.8-1.239.098-.306.191-.598.36-.795 1.193-.796 2.433-1.526 3.54-2.177q.56-.327 1.063-.628l1.09.641.006.004.254.15.173.101c.955-2.502 2.316-3.218 4.047-4.129.499-.263 1.029-.542 1.589-.884.268.131.53.288.769.431l.001.001c.456.273.826.495.986.39.727-.467.26-2.668-.541-3.131l-1.594-.925a403 403 0 0 1-6.747-3.97c-.66-.4-1.056-.426-1.76 0-1.949 1.177-3.942 2.282-5.95 3.396l-.001.001q-1.085.6-2.172 1.209c-.33-1.445-.256-1.657.782-2.253.663-.48 1.463-.877 2.27-1.277h.001c1.356-.673 2.732-1.355 3.517-2.459-.831-1.287-2.686-2.243-4.508-3.182-1.257-.649-2.499-1.289-3.378-2.024-1.349-.901-2.353-.886-3.698-.026-1.608 1.026-3.283 1.95-4.976 2.884-.734.405-1.472.811-2.209 1.229-1.085-1.537 1.31-2.725 3.505-3.815 2.239-1.111 4.269-2.119 2.187-3.288-1.362-.799-2.494-1.491-3.456-2.078-2.789-1.705-4.14-2.531-5.486-2.522-1.265.009-2.526.757-4.971 2.209-1.074.637-2.376 1.41-4.008 2.316l-.09-.085-.084-.079-.06-.056-.141-.134-.092-.087c.149-1.229 2.2-2.307 4.064-3.287 2.255-1.186 4.236-2.228 2.25-3.22-1.633-.953-2.935-1.76-4.005-2.422-2.5-1.55-3.733-2.313-4.971-2.322-1.204-.007-2.413.7-4.799 2.097a144 144 0 0 1-4.316 2.451c-.56-1.264.107-1.779.826-2.198l.49-.263c3.754-2.023 5.401-2.911 5.356-3.7-.036-.617-1.107-1.173-3.014-2.165-1.654-.86-3.936-2.048-6.719-3.885l-4.203 2.366-.036.021-.07.039-.097.055q-2.336 1.314-4.717 2.656c-.345-1.512-.286-1.649.982-2.383.655-.472 1.429-.857 2.208-1.245 1.358-.677 2.734-1.362 3.532-2.528-.785-1.074-2.128-1.728-3.472-2.383-1.081-.527-2.163-1.054-2.958-1.8-3.076-2.68-5.834-.842-8.686 1.059-1.273.849-2.565 1.71-3.913 2.187a7 7 0 0 0-.074-.571c-.051-.317-.091-.565 0-.63a374 374 0 0 1 5.968-4.106l.001-.001.495-.336.289-.196.492-.334c-1.076-.902-2.269-1.558-3.46-2.212-1.053-.579-2.105-1.157-3.074-1.905-2.453-1.838-4.747-2.257-7.152-.033-1.065.682-2.197 1.28-3.329 1.877v.001a70 70 0 0 0-2.159 1.172q-.119-.128-.241-.254l-.241-.254c.146-1.12 2.122-2.17 3.951-3.142 2.231-1.186 4.242-2.254 2.442-3.191a126 126 0 0 1-4.538-2.751h-.001c-2.19-1.377-3.312-2.082-4.449-2.108-1.196-.027-2.408.697-4.894 2.182-1.104.66-2.461 1.471-4.18 2.432-.99-1.66 1.236-2.747 3.371-3.789 1.413-.691 2.787-1.361 3.159-2.166-.838-1.305-2.305-2.052-3.774-2.799-1.033-.526-2.067-1.053-2.882-1.774-2.075-1.497-3.972-1.771-6.044-.1-1.353.992-2.812 1.748-4.294 2.517-.641.332-1.285.666-1.928 1.022-.174-1.575-.085-1.741 1.331-2.56.296-.307 1.112-.71 2.024-1.16 2.13-1.051 4.788-2.363 2.611-3.328-.783-.319-1.896-1.05-3.115-1.85-2.508-1.65-5.463-3.591-6.905-2.823-2.318 1.308-4.617 2.65-6.918 3.992a743 743 0 0 1-5.266 3.053c-1.716.985-2.02 1.734-1.179 3.928l.056-.053.003-.002c.442-.418.834-.788 1.327-1.25.738.474 1.514.905 2.291 1.337 2.317 1.287 4.638 2.577 5.962 5 .308-.308.49-.76.666-1.195.156-.387.306-.76.535-1.006 1.149-.726 2.339-1.386 3.539-2.053q.627-.347 1.256-.701c.856 1.513-.097 1.962-1.258 2.511-1.227.579-2.686 1.268-2.496 3.433-.028.172.124.373.276.574.068.09.136.18.187.268.352-.304.704-.608 1.175-1.019.568.472 1.604.996 2.738 1.569 2.367 1.197 5.16 2.608 4.999 4.219-.012.164.154.342.321.52.078.084.156.168.217.251.423-.295.556-.836.68-1.338.091-.369.177-.717.368-.93 1.173-.777 2.397-1.474 3.624-2.171l.001-.001a152 152 0 0 0 1.352-.774c.952 1.448-.042 1.936-1.25 2.529-1.261.619-2.755 1.352-2.511 3.411-.02.14.125.306.269.47.065.074.13.148.179.219.352-.278.708-.556 1.142-.893q.88.509 1.774 1.019h.001c1.678.958 3.38 1.931 5.032 2.983.335.235.52.676.71 1.13.196.47.399.954.78 1.235.055.04.456-.167.456-.264-.12-1.836 2.077-2.846 3.954-3.709.688-.316 1.332-.613 1.804-.923l.486.497c-.521 1.412-1.706 2.012-2.932 2.632q-.295.148-.589.303c-.948.478-1.715 3.72.037 3.09.43-1.097.997-.735 1.574-.367q.119.078.238.149.739.438 1.473.882c1.265.762 2.529 1.523 3.83 2.223 1.009.419 1.13.971 1.266 1.587.092.42.191.871.583 1.33.359-.338.55-.853.733-1.349.165-.446.324-.877.594-1.145 1.113-.727 2.283-1.363 3.452-1.999h.001q.654-.354 1.301-.714c1.032 1.381.048 1.865-1.181 2.47-1.292.636-2.854 1.404-2.632 3.485-.025.139.113.305.252.472.065.078.13.157.178.232l1.282-.911q.648.366 1.323.734c1.075.589 2.182 1.196 3.228 1.897.309.207.662.379 1.018.553 1.138.554 2.3 1.12 2.117 2.893-.011.107.441.404.574.352.241-.093.478-.356.578-.604.08-.195.121-.434.161-.668.064-.373.125-.732.34-.874 1.207-.796 2.469-1.512 3.744-2.235q.676-.382 1.355-.774c.931 1.568-.295 2.112-1.575 2.68-.739.327-1.495.663-1.868 1.208-.511.726-.967 2.375-.063 3.146zm-32.4-30.863c-.741-.078-1.441-.539-2.619-1.315-1.135-.748-2.713-1.787-5.198-3.058.713-.299 1.514-.827 2.322-1.36 1.504-.991 3.034-2 4.077-1.593.876.577 1.807 1.079 2.736 1.58 1.61.867 3.216 1.732 4.524 2.982l-.694.42c-2.891 1.749-4.063 2.458-5.148 2.344m73.162 42.838c-.71-.072-1.383-.518-2.533-1.28a51 51 0 0 0-5.314-3.137l.818-.483c3.076-1.817 4.299-2.539 5.42-2.406.74.088 1.436.549 2.591 1.313 1.128.746 2.693 1.782 5.163 3.043-.541.318-1.03.609-1.475.873l-.001.001c-2.592 1.539-3.668 2.178-4.669 2.076m-38.208-28.765c.703.075 1.367.519 2.505 1.28 1.126.753 2.716 1.817 5.266 3.139q-.555.325-1.042.613h-.001c-2.912 1.717-4.087 2.409-5.17 2.286-.732-.083-1.422-.54-2.579-1.307-1.129-.748-2.702-1.79-5.194-3.067.594-.342 1.126-.653 1.605-.933 2.558-1.494 3.622-2.116 4.61-2.011m-47.111-21.182c-.695-.063-1.356-.5-2.509-1.262-1.143-.756-2.769-1.832-5.391-3.18l.264-.157c3.475-2.065 4.813-2.86 6.027-2.703.761.099 1.472.57 2.63 1.337 1.122.743 2.662 1.764 5.071 2.991-.688.401-1.291.76-1.824 1.077-2.337 1.389-3.333 1.982-4.268 1.897m33.672 19.909c-1.672-.896-3.34-1.791-4.686-3.098h-.003c5.256-3.568 6.218-2.952 9.569-.807.811.519 1.762 1.128 2.948 1.789 1.667.662-.604 1.817-2.326 2.693-.705.359-1.318.671-1.531.883-.349.185-.949.263-1.264.089-.868-.563-1.788-1.056-2.707-1.549m69.426 34.14c.039.09.087.201.158.338l-.765.429h-.001c-1.461.82-2.917 1.636-4.381 2.431-.141.078-.412.023-.571-.066a1484 1484 0 0 1-6.969-3.991l-.857-.493c.776-.333 1.56-.861 2.336-1.384 1.408-.947 2.787-1.875 4.034-1.588 2.23 1.275 4.432 2.598 6.636 3.923h.001l.001.001.21.126c.066.041.104.129.168.274m-26.861-15.952c1.115.717 2.166 1.393 2.999 1.734-5.616 3.733-5.951 3.515-9.022 1.526-.907-.588-2.053-1.33-3.644-2.171-1.673-.97.428-1.978 2.008-2.737.563-.27 1.06-.508 1.297-.702 1.458-.803 4.046.861 6.362 2.35m-36.17-12.644c.722.099 1.395.554 2.501 1.301 1.092.737 2.606 1.76 5.006 3.008-5.73 3.649-5.793 3.607-8.887 1.522-1.126-.758-2.654-1.788-5.002-3.008l.873-.493c3.154-1.784 4.39-2.484 5.509-2.33m28.506 16.574c1.108.796 2.236 1.606 3.425 2.069-5.786 3.493-5.812 3.475-8.876 1.455-1.119-.739-2.645-1.745-5.005-2.945.399-.223.774-.407 1.123-.579.688-.337 1.27-.623 1.715-1.051 2.751-2.445 5.134-.734 7.618 1.051m-45.775-35.076c.74.091 1.434.556 2.579 1.322 1.115.747 2.659 1.78 5.092 3.035-5.836 3.671-6.032 3.538-9.101 1.454-1.104-.749-2.579-1.751-4.822-2.918l.716-.424c3.156-1.872 4.4-2.61 5.536-2.469m36.585 21.405c.767.098 1.485.581 2.653 1.368 1.12.754 2.654 1.787 5.041 3.025l-.535.314c-3.293 1.936-4.576 2.69-5.742 2.54-.743-.096-1.439-.558-2.579-1.316-1.116-.743-2.659-1.768-5.088-3.009l.175-.107c3.501-2.145 4.851-2.971 6.075-2.815m51.517 29.972c1.109.748 2.61 1.759 4.918 2.955l-.253.154c-3.455 2.106-4.788 2.917-5.995 2.762-.758-.098-1.467-.577-2.621-1.357-1.112-.751-2.636-1.782-5.016-3.019 5.827-3.61 5.905-3.557 8.967-1.495m-113.839-58.141 1.798 1.052v.004c-.752.297-1.538.807-2.327 1.318-1.52.985-3.048 1.974-4.343 1.454-.816-.571-1.737-1.051-2.66-1.532-1.578-.822-3.161-1.646-4.229-2.93.67-.275 1.347-.741 2.034-1.215 1.248-.86 2.529-1.744 3.865-1.538 1.903 1.065 3.785 2.169 5.852 3.38v.001zm53.698 38.082c-1.634-.87-3.263-1.738-4.467-3.071l.004-.003q.68-.385 1.337-.762h.001c1.199-.687 2.355-1.349 3.546-1.943 1.574.063 3.496 1.296 5.409 2.522 1.109.711 2.214 1.42 3.247 1.899-.71.296-1.541.824-2.383 1.36-1.412.897-2.855 1.815-3.809 1.689-.9-.634-1.893-1.163-2.885-1.691m-20.116-18.427c1.627.86 3.252 1.719 4.439 3.05h-.004c-.635.239-1.354.694-2.095 1.163v.001c-1.318.834-2.706 1.713-3.823 1.504-1.844-1.039-3.68-2.096-5.682-3.247l-1.951-1.122c.732-.31 1.52-.836 2.311-1.364 1.439-.96 2.886-1.925 4.014-1.604.872.604 1.832 1.112 2.791 1.619m56.663 39.853c-1.608-.878-3.205-1.749-4.572-2.992.738-.307 1.433-.773 2.118-1.232 1.293-.867 2.554-1.712 4.015-1.429 1.768.951 3.508 1.952 5.415 3.049l.002.001.001.001c.686.394 1.393.801 2.13 1.222-.685.286-1.498.816-2.327 1.357-1.52.991-3.091 2.016-4.017 1.63-.896-.587-1.833-1.098-2.765-1.607m15.114 8.672c-.734-.086-1.423-.546-2.571-1.31-1.119-.745-2.674-1.781-5.131-3.043q.855-.514 1.546-.936c2.491-1.514 3.537-2.15 4.512-2.056.705.068 1.373.518 2.524 1.292a51 51 0 0 0 5.289 3.171l-.838.498c-3.021 1.797-4.226 2.514-5.331 2.384m-105.301-61.492 1.751 1.032a469 469 0 0 0 5.933 3.46c1.237.185 2.544-.713 3.803-1.578.706-.485 1.397-.96 2.052-1.227-1.059-1.261-2.61-2.07-4.154-2.875-.86-.449-1.718-.896-2.487-1.42-1.657-.671-3.046.255-4.544 1.254-.742.496-1.512 1.009-2.354 1.354m80.769 47.173c-.711-.094-1.375-.541-2.477-1.283a47 47 0 0 0-5.069-3.033c5.727-3.619 5.769-3.59 8.876-1.515 1.131.755 2.667 1.781 5.031 3.001l-1.118.628c-2.981 1.678-4.166 2.345-5.243 2.202m-60.842-35.627c-.68-.074-1.322-.505-2.431-1.249a50 50 0 0 0-5.258-3.144l1.231-.742c2.704-1.632 3.817-2.304 4.849-2.197.722.075 1.404.532 2.564 1.308 1.133.759 2.723 1.824 5.252 3.135-.707.395-1.327.747-1.874 1.059-2.391 1.359-3.399 1.931-4.333 1.83m-15.792 96.274-.001.001c-1.198.675-2.395 1.35-3.539 2.106-.196.207-.291.535-.392.88-.15.512-.31 1.061-.824 1.314a3 3 0 0 0-.207-.201c-.163-.148-.328-.297-.323-.437.222-1.519-2.501-2.941-4.767-4.124h-.001c-1.1-.574-2.092-1.092-2.587-1.538l-.068.018-.012.003c-.798.211-1.354.358-1.914.501-.293-2.596 1.362-3.374 2.679-3.993 1.18-.554 2.089-.981 1.086-2.473q-.664.393-1.33.78c-1.227.716-2.45 1.429-3.628 2.211-.168.236-.281.561-.399.903-.18.524-.375 1.088-.806 1.431-.231-.333-.402-.759-.573-1.184v-.001c-.235-.584-.469-1.167-.857-1.505-1.591-1.026-3.23-1.977-4.896-2.943l-.003-.002q-.94-.544-1.89-1.102c-.356.474-.645.864-.938 1.26-1.894-2.388-.12-3.306 1.539-4.164 1.395-.722 2.708-1.401 1.697-2.877q-.68.4-1.356.794c-1.305.761-2.598 1.514-3.851 2.326-.14.19-.218.467-.301.761-.131.465-.273.972-.696 1.241-.421-.457-.477-.829-.529-1.176-.078-.515-.147-.978-1.387-1.589-.803-.32-1.57-.862-2.339-1.405-1.525-1.078-3.057-2.161-4.89-1.522-1.976-1.846-.36-2.696 1.262-3.549 1.433-.753 2.87-1.509 1.839-2.955q-.63.366-1.261.728l-.002.001c-1.288.74-2.573 1.478-3.81 2.287-.182.211-.27.554-.364.917-.121.466-.25.965-.596 1.262-.06-.076-.137-.153-.213-.23-.17-.17-.34-.341-.335-.507.163-1.517-2.561-2.934-4.885-4.144-1.157-.601-2.214-1.152-2.767-1.637l-1.401.964a2 2 0 0 0-.149-.197c-.117-.142-.233-.284-.218-.411-.282-2.382 1.186-3.035 2.434-3.59 1.16-.516 2.129-.948 1.324-2.602q-.654.388-1.302.768l-.002.002c-1.255.738-2.488 1.463-3.684 2.246-.145.189-.233.458-.325.741-.146.449-.304.934-.72 1.193a3 3 0 0 0-.2-.194c-.16-.145-.319-.29-.312-.428.115-1.463-2.657-2.887-5.047-4.114-1.168-.6-2.246-1.153-2.85-1.641-.181.693-.596 1.378-1.304 1.126-.563-.418-.2-2.775.437-3.157.375-.356.949-.629 1.524-.903 1.285-.612 2.578-1.228 1.682-2.784q-.636.363-1.271.721l-.001.001c-1.313.742-2.614 1.478-3.876 2.28-.157.1-.185.383-.216.683-.021.209-.043.426-.11.595-.093.233-.255.439-.417.645a7 7 0 0 0-.205.27c-1.182-2.586-3.882-4.067-6.221-5.349-.536-.294-1.053-.577-1.528-.861-.351.055-.681.136-.973.208-.548.134-.964.236-1.135.077-.69-.649-.245-2.364.581-2.831.29-.163.588-.311.884-.458 1.217-.606 2.399-1.194 2.793-2.67l-.49-.411q-.683.381-1.371.755l-.002.001c-1.226.67-2.453 1.339-3.615 2.105-.218.221-.306.601-.399 1.004-.126.541-.261 1.125-.734 1.427-.066-.075-.151-.152-.235-.229-.187-.17-.375-.341-.362-.494.226-1.739-2.554-3.142-4.91-4.33-1.119-.565-2.142-1.081-2.702-1.562l-.296.22c-.442.328-.779.579-1.134.799-.741-.397-.315-2.472.059-2.887.369-.545 1.132-.878 1.878-1.203 1.315-.574 2.576-1.123 1.517-2.777q-.647.392-1.298.781c-1.277.766-2.56 1.535-3.801 2.362-.148.205-.209.455-.272.711-.11.446-.224.91-.803 1.19a2 2 0 0 0-.19-.21c-.149-.154-.3-.309-.284-.446.4-1.34-2.496-2.867-4.851-4.108-1.129-.595-2.133-1.124-2.59-1.536-.707.255-1.236.448-1.765.64h-.001l-.002.001c-.355-2.692 1.335-3.48 2.661-4.098 1.165-.543 2.048-.955 1.011-2.413q-.665.39-1.332.773c-1.234.712-2.464 1.422-3.652 2.196-.203.245-.323.622-.448 1.016-.149.468-.305.961-.619 1.288a3 3 0 0 0-.218-.293c-.169-.21-.337-.419-.319-.611.196-1.499-2.578-2.915-4.972-4.136-1.168-.596-2.246-1.146-2.844-1.637-1.693 2.931-2.164-1.108-.967-2.116q2.983-1.713 5.966-3.419l.015-.009h.001q3.47-1.986 6.936-3.976c.741-.426 1.39-.619 2.246-.097 2.343 1.617 4.421 2.652 5.967 3.421 3.929 1.957 4.418 2.2-2.917 5.929-.838.482-1.575 1.045-.934 2.338 1.947-1.049 3.427-1.92 4.601-2.61 2.245-1.32 3.366-1.979 4.48-1.967 1.112.011 2.217.691 4.425 2.049 1.161.714 2.627 1.616 4.559 2.706 1.859 1.05-.133 2.085-2.368 3.245-1.868.971-3.906 2.03-4.002 3.259l.229.205.23.206c1.953-1.023 3.432-1.882 4.61-2.566 2.125-1.233 3.266-1.896 4.422-1.922 1.341-.03 2.701.797 5.641 2.584.938.57 2.037 1.238 3.348 2.008 2.211.936.2 2.008-2.123 3.247-1.926 1.027-4.067 2.168-4.195 3.442l.23.198q.116.098.23.198c2.694-1.401 5.362-2.85 7.922-4.488.83-.518 1.59-.489 2.428.008 1.214.725 2.435 1.438 3.655 2.151v.001c1.386.809 2.772 1.619 4.149 2.447.363.218.8.633.83.985-.842 1.065-2.217 1.757-3.575 2.44-.836.421-1.665.838-2.358 1.336-1.037.608-1.138.938-.756 2.272l2.888-1.638.055-.032 6.077-3.448c2.629 1.743 4.883 2.891 6.561 3.745 4.468 2.276 4.85 2.471-2.644 6.261-.871.463-1.182 1.056-.775 2.179 1.365-.546 2.61-1.366 3.808-2.155 2.911-1.917 5.549-3.655 8.97-.843.716.641 1.664 1.128 2.616 1.617 1.343.691 2.693 1.384 3.409 2.519-.368 1.009-1.86 1.732-3.352 2.456-2.009.974-4.017 1.948-3.277 3.617a139 139 0 0 0 4.559-2.56c2.38-1.382 3.577-2.077 4.757-2.048 1.193.029 2.369.8 4.734 2.35 1.287.845 2.928 1.92 5.115 3.233-.897 1.091-2.167 1.708-3.423 2.318-1.606.781-3.189 1.55-3.936 3.285q.103.136.207.27l.208.271c1.291-.474 2.541-1.297 3.779-2.112 2.939-1.934 5.808-3.823 8.983-.882.749.734 1.772 1.233 2.793 1.732 1.295.633 2.587 1.264 3.318 2.37-.338.894-1.812 1.593-3.314 2.306-2.138 1.014-4.333 2.055-3.393 3.727.686-.383 1.383-.745 2.078-1.106 1.574-.818 3.138-1.631 4.544-2.659 1.842-1.345 3.205-1.179 4.958.052 1.038.795 2.199 1.424 3.36 2.053 1.441.78 2.88 1.56 4.081 2.657-.84 1.18-2.151 1.819-3.451 2.453-1.573.767-3.128 1.525-3.808 3.224l.452.422c.938-.321 2.265-1.156 3.664-2.036 2.345-1.476 4.893-3.079 6.156-2.603.567.443 1.632.991 2.846 1.617 3.288 1.695 7.67 3.953 6.233 6.202-.094.124-.508.003-.923-.119-.193-.056-.387-.113-.548-.144l-.022-.516q-.654.383-1.31.762c-1.145.662-2.29 1.325-3.4 2.044-.251.335-.429.799-.611 1.273-.177.46-.357.928-.609 1.295l-1.334-1.142q-.513.288-1.065.592c-1.142.632-2.385 1.319-3.585 2.077-.186.221-.309.542-.439.878-.187.483-.386.999-.799 1.3-1.338-2.477-3.459-3.643-5.792-4.924-.866-.476-1.762-.968-2.657-1.549-.145.674-.567.97-1.13 1.271-1.441-2.289-.07-3.045 1.464-3.891 1.087-.599 2.255-1.243 2.564-2.509l-.623-.46v.012q-.655.375-1.314.746m18.513-.224-.024-.014-.003-.002a405 405 0 0 0-5.514-3.156c-1.213-.382-2.657.566-4.034 1.469-.733.481-1.448.95-2.099 1.199 1.335 1.281 2.972 2.173 4.612 3.067.937.51 1.875 1.021 2.759 1.606 1.183.199 2.542-.71 3.926-1.636.784-.525 1.575-1.054 2.348-1.392h.004q-1.017-.586-1.975-1.141m-33.708-12.985c3.252 2.139 6.322 4.159 9.828.744 1.004-.463 1.304-1.071.167-1.682-1.42-.755-2.49-1.433-3.364-1.987-3.209-2.034-3.766-2.386-9.225 1.316v.004c.885.48 1.745 1.046 2.594 1.604m-70.798-41.42c1.147.775 1.857 1.254 2.617 1.357 1.232.165 2.598-.659 6.18-2.822l.131-.079c-2.35-1.202-3.878-2.216-5.003-2.963-3.094-2.054-3.155-2.094-8.923 1.503 2.37 1.229 3.889 2.255 4.998 3.004m44.296 25.655c.038.131.056.191.095.215l.265.159.002.001a454 454 0 0 0 6.722 3.979c1.095.312 2.563-.684 4.007-1.663.79-.536 1.572-1.066 2.282-1.375l-2.077-1.196c-1.888-1.089-3.639-2.1-5.412-3.07-1.402-.277-2.694.57-3.966 1.405-.683.447-1.359.891-2.045 1.156l.004.004c.06.17.096.294.123.384m-31.793-18.332c1.135.769 1.786 1.209 2.473 1.275.924.087 1.912-.504 4.23-1.892.555-.332 1.185-.71 1.91-1.135-.757-.433-1.48-.852-2.181-1.259h-.001c-1.84-1.066-3.525-2.042-5.248-2.954-1.605-.336-2.866.504-4.243 1.422-.706.47-1.443.961-2.272 1.324v.003c2.596 1.365 4.203 2.453 5.332 3.216m48.669 28.453c1.14.759 1.815 1.207 2.531 1.288 1.037.116 2.161-.541 4.913-2.15q.597-.35 1.304-.761c-2.496-1.282-4.079-2.329-5.217-3.081-1.18-.781-1.88-1.244-2.621-1.322-1.08-.115-2.248.587-5.117 2.312l-1.027.616a50 50 0 0 1 5.234 3.098m-29.041-17.23c-.041-.092-.092-.209-.168-.351.708-.292 1.391-.763 2.073-1.235 1.267-.875 2.532-1.749 3.952-1.465 1.826 1.023 3.626 2.087 5.595 3.25l.003.001q.927.549 1.913 1.129c-.745.302-1.514.812-2.284 1.325-1.531 1.017-3.07 2.04-4.453 1.436-1.796-1.011-3.562-2.073-5.328-3.135l-.005-.003-1.126-.675c-.068-.041-.107-.129-.172-.276zm17.956 12.917c-1.123-1.317-2.79-2.195-4.449-3.068-1.002-.527-2-1.052-2.873-1.672-.989-.207-2.457.738-3.891 1.662-.824.53-1.638 1.054-2.342 1.347q1.032.597 1.996 1.157h.001c1.908 1.107 3.648 2.117 5.41 3.086 1.447.403 2.739-.453 4.043-1.318.69-.457 1.383-.917 2.105-1.194m-16.805-18.699c-2.247-1.125-3.705-2.146-4.81-2.919-2.867-2.006-3.352-2.346-9.039 1.492 2.305 1.165 3.805 2.155 4.917 2.888 3.054 2.014 3.169 2.09 8.932-1.461m-40.307-8.493c1.129.756 1.794 1.201 2.501 1.281 1.016.115 2.116-.526 4.797-2.086q.633-.369 1.392-.808c-2.515-1.312-4.095-2.377-5.221-3.136-1.152-.776-1.83-1.233-2.548-1.309-1.025-.108-2.132.562-4.822 2.187q-.589.357-1.287.776a49 49 0 0 1 5.188 3.095m88.755 45.174c-1.123-.757-1.771-1.194-2.457-1.264-.938-.094-1.947.5-4.334 1.907-.526.31-1.118.659-1.791 1.049 2.45 1.267 4.006 2.312 5.129 3.067 1.156.776 1.854 1.245 2.597 1.333 1.134.133 2.372-.622 5.5-2.528l.641-.39a50 50 0 0 1-5.285-3.174m-85.331-57.885c-1.206-1.366-2.848-2.22-4.493-3.076-.943-.491-1.888-.982-2.752-1.571-1.248-.304-2.639.637-4.051 1.593-.772.522-1.55 1.049-2.315 1.379l1.968 1.128.008.004.001.001a406 406 0 0 0 5.834 3.306c1.294-.042 2.446-.779 3.63-1.536.701-.449 1.414-.905 2.174-1.228zm64.924 52.169c1.19 1.328 2.833 2.213 4.478 3.098 1.007.543 2.015 1.086 2.918 1.73.156.093.445.126.59.045 1.399-.774 2.79-1.568 4.355-2.461l.001-.001 1.18-.673c-.725-.419-1.419-.823-2.091-1.215-1.823-1.061-3.486-2.029-5.172-2.958-1.476-.509-2.846.39-4.191 1.274-.692.454-1.378.904-2.068 1.157zm-85.765-49.712 1.998 1.176.001.001a544 544 0 0 0 5.79 3.381c1.241.011 2.452-.807 3.657-1.622.71-.48 1.418-.959 2.128-1.265-1.175-1.275-2.738-2.099-4.299-2.922v-.001c-.812-.428-1.623-.855-2.379-1.346-1.735-.664-3.103.256-4.592 1.257-.721.485-1.471.989-2.304 1.341m57.425 26.932c-1.154-.759-1.825-1.201-2.535-1.272-.988-.099-2.049.522-4.588 2.008q-.68.4-1.516.884c2.559 1.328 4.156 2.398 5.288 3.156 1.148.768 1.817 1.216 2.524 1.288.987.1 2.049-.533 4.595-2.051q.685-.41 1.526-.907c-2.559-1.308-4.159-2.36-5.294-3.106m-19.115-11.142-1.946-1.15a359 359 0 0 0-5.673-3.312c-1.336-.208-2.616.68-3.862 1.545h-.001c-.683.474-1.356.94-2.022 1.216 1.092 1.294 2.698 2.131 4.295 2.964.897.468 1.791.934 2.59 1.479 1.566.461 2.878-.426 4.289-1.38.733-.496 1.493-1.01 2.33-1.362m80.384 38.613c-2.288-1.177-3.774-2.177-4.876-2.918-3.034-2.04-3.15-2.119-9.035 1.451 2.404 1.25 3.948 2.29 5.073 3.048 1.177.794 1.896 1.278 2.662 1.37 1.202.145 2.52-.675 5.906-2.783zm-68.226-31.524c-.845-.354-1.906-1.043-3.025-1.768-2.228-1.444-4.682-3.035-6.106-2.431-.223.183-.723.425-1.301.704-1.634.789-3.891 1.879-2.245 2.791 1.621.852 2.781 1.609 3.697 2.208 3.018 1.971 3.4 2.22 8.98-1.504m68.13 39.811c-1.159-.782-1.859-1.255-2.606-1.346-1.141-.138-2.392.618-5.554 2.531l-.282.171c.08.148.135.268.178.363.069.152.109.24.178.281l1.006.603c1.809 1.084 3.62 2.169 5.467 3.188 1.541.543 2.936-.404 4.391-1.392.739-.502 1.494-1.014 2.291-1.346h-.004c-2.412-1.261-3.951-2.3-5.065-3.053m-40.352-16.821c1.144.768 1.841 1.237 2.586 1.332 1.163.149 2.442-.612 5.718-2.56l.189-.113c-1.164-1.329-2.766-2.168-4.37-3.009-.902-.472-1.804-.945-2.63-1.505-1.405-.467-2.818.501-4.262 1.489-.745.511-1.499 1.026-2.263 1.353 2.396 1.242 3.924 2.268 5.032 3.013m72.653 4.134c5.247-3.047 10.484-6.089 15.932-9.159v.004c.044.893.27 2.486 1.23 1.497.578-.956.011-3.061-.956-3.628a8783 8783 0 0 0-15.207-8.946c-6.795-3.992-13.591-7.984-20.371-11.999-1.12-.663-2.031-.596-3.106.03l-.789.46c-8.975 5.231-17.952 10.463-26.978 15.604-1.752.801-1.373 2.289-1.006 3.732q.057.22.109.437c.155-.202.284-.419.412-.636.231-.387.459-.771.822-1.054 6.565 3.708 13.067 7.542 19.57 11.376 4.869 2.872 9.739 5.743 14.634 8.561 1.627.827 1.702 1.372 1.793 2.032.059.428.125.906.627 1.54.455-.563.531-1.049.602-1.498.105-.672.198-1.262 1.521-1.903 3.777-2.161 7.471-4.307 11.161-6.45m15.332-10.273c-6.775-4.319-13.754-8.335-20.735-12.353-4.763-2.742-9.528-5.484-14.229-8.322-.911-.534-1.634-.519-2.557.014-3.638 2.133-7.246 4.197-10.847 6.257-5.526 3.162-11.033 6.313-16.605 9.685 5.813 3.462 11.512 6.786 17.202 10.104 5.645 3.293 11.28 6.58 17.006 9.989 1.545.922 2.712.974 4.287.033 4.478-2.667 8.946-5.237 13.419-7.81 4.344-2.499 8.692-5.001 13.059-7.597" clip-rule="evenodd"/>
</svg>
