<svg xmlns="http://www.w3.org/2000/svg" width="550" height="550" fill="none" viewBox="0 0 550 550">
    <path fill="#fff" fill-rule="evenodd" d="M128.597 210.577v-.002c.027-2.887.053-5.626-.068-8.36-.13-2.944.915-5.129 3.152-6.941.519-.421.901-1.239.986-1.919.304-2.348 0-4.459-1.867-6.33-1.486-1.49-2.104-3.55-2.03-5.787.129-2.746.146-5.506.163-8.266.02-3.337.04-6.674.259-9.986.359-2.107 1.841-3.516 3.608-4.544 7.948-4.626 15.916-9.22 23.885-13.815l1.775-1.024c15.1-8.685 30.185-17.397 45.27-26.109l.009-.005c19.046-11 38.091-21.999 57.167-32.944 7.701-5.273 17.473-7.554 25.87-2.367 6.956 4.041 13.897 8.103 20.839 12.165l.008.005 5.276 3.087 21.418 12.525.017.011c28.159 16.469 56.318 32.939 84.508 49.355 2.897 1.671 5.216 4.503 4.534 8.889-.402 2.595-.262 5.287-.124 7.959q.05.943.091 1.88c.238.816.513 1.635.786 2.449 1.594 4.748 3.13 9.324-3.064 12.016-2.353 1.243-2.571 2.888-.56 4.56 1.923 1.597 2.678 3.56 2.604 6.064 0 1.669-.04 3.335-.081 4.998v.003c-.09 3.702-.18 7.396.178 11.094 6.941-3.727 13.748-7.536 20.57-11.354l.003-.001c3.632-2.033 7.269-4.068 10.932-6.094 3.482-2.47 6.886-1.863 9.901 1.539 3.516 3.679 5.864 11.166.367 14.261a55644 55644 0 0 0-40.125 22.315c-1.215.677-1.23 1.073-.059 1.757l.025.015.003.002c7.185 4.22 14.369 8.441 21.56 12.651 1 .588 1.982.606 3.049.011a31163 31163 0 0 1 33.503-18.676l.087-.049 12.832-7.147c.379-.211.749-.438 1.12-.665l.001-.001c.416-.255.832-.51 1.261-.743 6.194-3.709 12.295 4.552 12.602 10.472.226 2.277-1.182 4.747-3.334 5.942-5.209 2.942-10.442 5.824-15.673 8.705l-.001.001c-8.363 4.606-16.721 9.21-24.973 14.053 4.482 4.145 8.346 8.859 8.012 15.245-.067 6.225-.155 12.449-.243 18.674v.002c-.201 14.313-.403 28.626-.357 42.941.211 9.292-5.104 14.624-12.317 19.121 10.594 6.576 21.24 12.97 31.9 19.374l.007.004a6297 6297 0 0 1 13.26 7.98c9.49 4.29-.396 21.458-8.613 16.769a13943 13943 0 0 1-54.401-32.853c-.733-.451-1.304-.459-2.1.003-4.988 2.92-9.994 5.81-14.999 8.7a5388 5388 0 0 0-6.127 3.54c-1.155.669-1.159 1.065 0 1.767a19294 19294 0 0 0 31.457 18.986l.02.013q6.018 3.626 12.034 7.254c5.942 3.517 2.211 12.668-2.708 15.837-2.241 1.546-4.867 1.635-7.201.215-6.571-3.991-13.149-7.967-19.728-11.944l-.017-.01q-5.1-3.082-10.201-6.168-2.116-1.282-4.234-2.562c-5.987-3.622-11.975-7.244-17.943-10.898-1.152-.706-2.112-.717-3.275-.037a3275 3275 0 0 1-20.199 11.688c-1.623.932-1.667 1.202-.089 2.16q10.19 6.164 20.386 12.317l.086.052 11.314 6.833q1.34.808 2.681 1.612l.001.001c2.661 1.596 5.321 3.193 7.935 4.861 2.089 1.331 2.967 3.428 2.663 5.846-.459 5.783-6.467 13.578-12.731 10.024-7.092-4.246-14.154-8.545-21.217-12.843-10.162-6.186-20.325-12.372-30.573-18.401-.537-.267-1.452-.315-1.949-.034-7.962 4.563-15.91 9.15-23.858 13.738l-.004.002c-5.526 3.189-11.051 6.378-16.581 9.559-16.977 10.527-29.082 16.144-49.697 13.053-7.901-1.154-14.95-4.426-21.737-8.516-7.85-4.706-15.768-9.302-23.685-13.9h-.002c-8.016-4.655-16.032-9.309-23.979-14.076-1.345-.806-2.475-.873-3.846-.1-5.661 3.159-11.313 6.333-16.966 9.507l-.004.002c-12.197 6.848-24.395 13.697-36.675 20.397-6.509 2.903-12.121-5.698-11.887-11.536.007-2.404 1.27-4.046 3.278-5.17a9170 9170 0 0 1 15.746-8.771l.018-.01c9.781-5.44 19.54-10.867 29.354-16.418-7.141-4.349-14.083-8.349-21.235-12.471l-.002-.001-2.155-1.242c-.548-.311-1.575-.3-2.138.003-9.179 5.043-18.325 10.151-27.471 15.259h-.001a6910 6910 0 0 1-16.812 9.371q-1.11.615-2.225 1.221h-.001c-1.774.966-3.548 1.933-5.268 2.991-7.383 4.81-13.35-3.483-13.684-10.025-.078-2.466.886-4.396 3.06-5.616 6.083-3.541 12.275-6.915 18.465-10.288 8.721-4.751 17.439-9.501 25.846-14.716-4.304-2.627-8.594-5.123-12.888-7.621l-.001-.001-.002-.001c-3.174-1.847-6.351-3.695-9.539-5.599-1.245-.744-2.33-.795-3.578-.097-10.383 5.813-20.772 11.614-31.162 17.417l-.02.01-9.302 5.196c-1.297.578-2.819 1.516-4.437 2.514-3.843 2.368-8.231 5.072-11.447 4.104-4.564-1.268-8.42-8.234-7.431-12.871.463-2.174 1.93-3.42 3.726-4.419 5.64-3.215 11.335-6.339 17.029-9.464 8.602-4.72 17.202-9.439 25.611-14.467-4.267-3.073-8.334-6.408-9.812-11.647-.909-12.929-.626-25.985-.342-39.038.18-8.285.36-16.568.234-24.817-.63-9.61 1.778-15.016 9.79-20.522-6.18-3.739-12.314-7.461-18.438-11.179l-.013-.007-.003-.002a10399 10399 0 0 0-24.496-14.839c-7.087-3.631-2.782-13.086 2.355-16.266 2.167-1.383 4.453-1.579 6.683-.233 8.817 5.325 17.623 10.669 26.43 16.013l.001.001 12.308 7.466q2.006 1.214 4.013 2.421h.002c2.738 1.649 5.475 3.297 8.195 4.978 1.13.699 2.111.758 3.271.085a4210 4210 0 0 1 16.003-9.25l.005-.003 4.739-2.731c.926-.533 1.071-1.054.063-1.66q-6.803-4.111-13.614-8.213c-9.311-5.611-18.622-11.223-27.903-16.883-5.312-3.587-1.656-12.328 2.982-15.386 2.222-1.579 4.76-1.841 7.053-.466 3.896 2.274 7.72 4.619 11.54 6.96v.001c5.831 3.575 11.652 7.143 17.709 10.448l.015.007c0-1.34.012-2.639.023-3.91m344.913 76.705c-4.167 5.896-10.279 9.24-16.408 12.594-2.398 1.312-4.798 2.626-7.085 4.094-16.876 9.759-33.767 19.498-50.656 29.236l-.204.117-22.074 12.729q-9.4 5.415-18.802 10.828l-.038.022a48438 48438 0 0 0-27.763 15.991c-3.564 1.995-6.961 4.023-10.267 5.997-16.867 10.072-31.375 18.735-53.721 14.289-10.279-1.792-19.139-7.283-27.967-12.754h-.001c-4.019-2.491-8.031-4.978-12.168-7.11q-12.56-7.326-25.112-14.665l-.055-.032-.047-.027c-9.02-5.272-18.04-10.543-27.065-15.804-22.071-12.904-44.15-25.793-66.228-38.682l-.093-.054-13.555-7.913c-5.193-2.843-9.801-6.108-13.01-11.311-.387 13.219-.464 26.425-.54 39.638v.001c-.035 5.97-.07 11.94-.133 17.915-.011 2.288.515 4.707 1.363 6.84.84 2.77 7.65 10.701 10.724 8.435 3.49-2.042 7.034-3.994 10.59-5.924l.06-.032c1.093-.595 1.639-.893 1.897-1.352s.229-1.079.17-2.32l-.008-.153c-.584-7.439 4.434-10.199 9.829-13.167.829-.457 1.667-.918 2.495-1.401 1.46-.958 3.019-1.025 4.574-1.091.798-.034 1.595-.068 2.376-.222-3.391 1.008-6.416 2.679-9.463 4.361h-.001c-.921.509-1.844 1.018-2.779 1.511-4.367 2.167-6.608 6.914-5.353 11.529l.097.036q.171.065.344.127c.917-1.063 2.16-1.505 3.403-1.947 1.215-.431 2.43-.863 3.343-1.873.078-.088.22-.12.363-.151.073-.016.146-.032.211-.056 5.571-1.128 10.479 7.554 10.609 12.365.348 2.625-1.004 4.415-3.571 5.058-1.763 1.394-3.304 2.555-5.379 3.679 6.152 5.447 10.713 2.813 16.438-.492q.617-.357 1.254-.72c2.852-1.502 5.553-3.173 7.312-6.013-1.954 5.685-7.864 8.228-13.126 10.492-.703.303-1.395.601-2.065.901-3.738 1.09-7.031-.33-10.046-2.537-.456-.333-1.189-.813-1.556-.658-.95.402-1.849.925-2.845 1.504-.407.236-.829.482-1.278.733 5.621 3.46 11.227 6.679 16.877 9.924 1.996 1.145 3.996 2.294 6.005 3.458.533.303 1.522.307 2.07.018 1.725-.905 3.43-1.851 5.134-2.797l.002-.001c1.966-1.092 3.932-2.183 5.929-3.211 1.371-.706 1.552-1.571 1.441-2.939-.789-5.225 2.182-9.91 6.983-12.047l.333-.201c5.754-3.47 10.717-6.463 17.495-2.676-1.495-.173-2.516-.496-3.385-.769-1.85-.584-3.005-.948-6.568.814-1.527.715-2.995 1.559-4.462 2.402-1.156.664-2.312 1.329-3.499 1.931-4.315 2.171-6.464 6.804-5.389 11.4.147 0 .257.007.341.012.129.008.193.012.229-.019.919-.764 2.032-1.165 3.145-1.566 1.299-.468 2.599-.936 3.593-1.984 1.767-.902 3.619-.063 4.975 1.006 3.716 2.725 5.646 6.511 6.186 11.037.308 2.563-.685 4.053-3.245 4.948-1.83 1.305-3.697 2.625-5.586 3.864l-.066.554q.726.32 1.454.638c1.164.508 2.327 1.016 3.472 1.559 3.806 1.55 8.082-1.087 11.906-3.445 1.42-.876 2.778-1.713 4.026-2.283 5.535-3.827 4.816-9.059 3.883-14.724 4.923 12.439-4.431 17.571-14.71 21.864-3.782 1.143-7.146-.155-10.217-2.414l-.119-.089-.007-.004c-.461-.341-1.069-.791-1.415-.665-.768.277-1.484.702-2.305 1.188-.35.208-.718.426-1.117.649 7.102 4.264 14.207 8.348 21.37 12.465l1.544.887c.601.341 1.741.226 2.405-.118 1.605-.832 3.182-1.719 4.76-2.606h.001c1.59-.894 3.18-1.787 4.799-2.626 1.493-.773 1.912-1.671 1.752-3.369-.44-4.692 1.197-8.538 5.423-10.978 1.01-.483 2.189-1.2 3.461-1.973 4.085-2.485 9.137-5.557 12.679-3.366 3.701 1.113 6.653 3.335 9.027 6.278 4.694 5.436 7.465 12.691 6.742 19.945-.707 4.734-4.664 6.798-8.532 8.815-1.356.708-2.701 1.41-3.892 2.219-6.338 3.804-10.12 1.514-12.841-.135-1.987-1.203-3.409-2.065-4.847.039 8.377 5.178 16.923 10.105 25.47 15.032 7.724 4.452 15.449 8.906 23.053 13.547 11.579 7.488 25.544 10.357 39.187 8.527 10.621-.979 19.681-6.456 28.685-11.899 3.45-2.086 6.892-4.166 10.41-5.987a8912 8912 0 0 0 32.435-18.751c-.491-.244-.942-.573-1.377-.892-.987-.723-1.896-1.387-3.027-.864-2.641 1.952-6.086 3.398-9.376 2.833-2.319-.324-4.186-1.491-6.054-2.659v-.001c-.72-.449-1.439-.899-2.184-1.301-2.4-1.294-4.653-2.688-5.56-5.006 1.643.843 3.273 1.922 4.905 3.004 5.527 3.662 11.092 7.349 17.383 1.976l-1.778-1.421c-1.196-.955-2.34-1.87-3.485-2.779-1.997-.392-2.716-.973-3.038-2.962-.937-4.951 2.79-10.838 6.738-13.263 2.327-1.428 3.471-1.243 5.649.569 2.26.754 4.001 1.716 6.168 3.017 1.811-6.178-2.086-11.048-7.46-13.322q-.682-.425-1.353-.857l-.005-.003c-2.601-1.664-5.168-3.306-8.388-3.729l.374-.628c5.389 1.002 10.286 3.509 14.572 6.836 3.482 2.759 4.557 6.704 3.912 11.034-.196 1.317.256 1.967 1.311 2.581 3.316 1.934 6.62 3.89 9.865 5.939 1.078.68 1.874.624 2.949-.004 3.081-1.821 6.182-3.591 9.282-5.361 4.047-2.31 8.093-4.621 12.095-7.041-1.529-2.03-2.966-1.156-4.866-.002-2.066 1.256-4.679 2.845-8.555 1.392-1.972-.767-3.838-1.814-5.699-2.859l-.001-.001q-.747-.42-1.497-.834c-4.734-2.133-8.664-6.123-8.12-11.888.025 5.7 4.371 8.222 8.615 10.686.828.48 1.652.958 2.439 1.457 3.022 1.868 6.104 3.391 9.787 1.979q.256-.098.516-.189l.323-.111c1.229-.424 2.444-.843 3.131-1.974l-1.362-1.098a702 702 0 0 0-3.616-2.903c-1.837-.618-3.104-1.243-3.289-3.347-.904-5.42 5.152-15.689 11.438-13.525 1.256 1.14 2.766 1.848 4.283 2.56.918.43 1.839.862 2.707 1.392 2.57-7.786-3.643-11.282-9.509-14.582l-.001-.001c-.881-.495-1.754-.986-2.588-1.487-3.704-2.298-5.772-1.709-9.275-.711-.46.131-.944.269-1.46.408 6.341-4.22 10.96-1.339 16.044 1.833l.003.002a99 99 0 0 0 2.552 1.556c5.027 2.551 6.705 7.587 6.079 12.949.037.573.278 1.379.7 1.649 1.903 1.2 3.833 2.354 5.765 3.509 1.276.764 2.553 1.527 3.822 2.304.796.488 1.422.492 2.256.007 2.879-1.787 5.873-3.445 8.867-5.103 4.391-2.432 8.782-4.863 12.81-7.702l-.155-.399c-1.429.148-2.652.827-3.877 1.507-.675.375-1.35.75-2.061 1.037-5.167 2.132-9.926-1.072-14.319-4.031h-.001c-1.213-.817-2.399-1.615-3.557-2.277-1.419-.995-3.164-2.455-3.434-3.946-3.245-11.27 4.534-24.644 15.325-28.811 4.573-1.358 8.372 1.18 12.072 3.652 1.29.861 2.569 1.715 3.863 2.393 3.131 1.919 5.275 4.504 5.472 8.327.093.626.044 1.327-.005 2.038-.098 1.405-.198 2.847.794 3.812 2.748 1.782 5.53 3.52 8.386 5.117 1.92.654 3.931-.977 5.647-2.367l.001-.001c.536-.434 1.043-.845 1.509-1.155 3.393-2.929 5.953-6.412 6.005-11.127.044-7.296.137-14.595.23-21.894.156-12.293.313-24.587.236-36.872zm-75.918-24.424v.001h.002c4.891 2.807 9.783 5.615 14.614 8.531.411.241.838.469 1.266.696 1.989 1.058 4.002 2.129 4.594 4.739.103.374.294.778.491 1.194.421.889.868 1.832.535 2.656-.643.78-1.208 1.624-1.772 2.469h-.001c-1.322 1.978-2.644 3.957-4.973 5.107-1.948.964-3.818 2.084-5.689 3.204-.857.514-1.714 1.027-2.579 1.525a28077 28077 0 0 0-43.92 25.326c-21.203 12.243-42.405 24.485-63.652 36.647-.963.542-1.903 1.136-2.844 1.731h-.001c-2.482 1.57-4.97 3.143-7.898 3.778-.79.171-1.574.388-2.359.605-2.322.642-4.652 1.285-7.157.752-.995-.222-2.017-.372-3.041-.523-2.135-.315-4.278-.631-6.209-1.596q-24.351-14.23-48.713-28.45c-23.782-13.884-47.566-27.768-71.332-41.679a103 103 0 0 0-2.029-1.154l-.001-.001c-3.311-1.85-6.622-3.701-8.727-7.198q-.22-.365-.401-.654c-.979-1.58-1.068-1.724.182-3.683.226-.354.444-.71.662-1.065 1.188-1.939 2.353-3.841 4.617-5.088 8.951-4.96 17.67-10.046 26.466-15.177 2.79-1.628 5.587-3.26 8.403-4.894-5.804-3.715-11.769-7.139-17.738-10.565l-.002-.001c-3.947-2.265-7.895-4.531-11.798-6.883-.86-.507-1.516-.525-2.397-.015-4.067 2.362-8.148 4.7-12.23 7.038l-.016.009a3403 3403 0 0 0-7.868 4.516 12610 12610 0 0 0-28.35 16.358c-6.564 3.565-14.365 8.353-14.546 16.736-.28 9.937 10.33 15.6 19.645 20.573 3.275 1.748 6.389 3.411 8.815 5.144a68800 68800 0 0 1 65.387 38.201l.034.02.018.01a61368 61368 0 0 0 73.113 42.706c7.59 4.437 15.854 7.706 24.737 8.083 13.561 1.657 26.419-2.792 37.791-9.891 7.498-4.228 14.948-8.543 22.398-12.859l.001-.001.03-.017q4.553-2.64 9.113-5.271a77760 77760 0 0 1 71.893-41.439l.064-.037 16.794-9.673q9.445-5.447 18.883-10.899l9.444-5.452c7.52-3.864 16.451-10.479 13.817-20.112-1.23-4.64-4.297-7.946-8.22-10.331-7.849-4.766-15.777-9.404-23.704-14.04v-.001q-2.962-1.732-5.923-3.467c-3.733-2.19-7.472-4.368-11.211-6.547l-.009-.005-.007-.004c-4.974-2.898-9.948-5.795-14.907-8.719-1.122-.662-1.981-.684-3.111-.022-4.741 2.764-9.406 5.442-14.075 8.123-4.973 2.855-9.952 5.713-15.034 8.682 6.756 4.289 13.694 8.27 20.635 12.253M276.501 249.4c5.472.309 10.084-2.443 14.625-5.153l.002-.001c.896-.535 1.79-1.068 2.687-1.576 34.791-19.984 69.544-40.044 104.292-60.102l1.606-.927q2.707-1.56 5.418-3.115c4.674-2.683 9.348-5.366 13.989-8.107 4.563-2.478 3.789-7.965-.767-10.073-17.146-10.034-34.3-20.055-51.454-30.077a83143 83143 0 0 1-46.562-27.214c-7.967-4.508-14.311-8.364-19.546-11.546-11.557-7.024-17.705-10.76-23.975-10.976-7.128-.245-14.412 4.062-29.978 13.265a1439 1439 0 0 1-13.4 7.852q-12.426 7.159-24.856 14.313l-.02.011c-25.083 14.439-50.167 28.879-75.203 43.396-4.708 2.548-3.685 8.172.664 10.12 2.338 1.384 4.689 2.747 7.04 4.111h.001q2.386 1.381 4.764 2.771c17.885 10.491 35.79 20.948 53.695 31.406l.012.007.007.004c11.39 6.653 22.779 13.305 34.163 19.965q4.285 2.504 8.573 5.002l.012.007c6.954 4.053 13.907 8.105 20.827 12.215 4.156 2.466 8.331 4.685 13.376 4.418zm-146.806-38.603c-.006 2.011-.012 4.023-.166 6.016-.241 3.501 1.371 5.687 4.26 7.332 37.626 21.968 75.24 43.955 112.856 65.942l.083.048 19.101 11.165c7.879 4.785 17.088 2.655 24.292-2.282 24.243-13.915 48.461-27.875 72.679-41.834l.022-.013c18.169-10.472 36.337-20.945 54.516-31.399 2.408-1.39 4.601-2.984 4.601-6.179-.072-1.668-.031-3.34.009-5.01.066-2.745.132-5.484-.298-8.194-19.524 11.908-39.41 23.238-59.298 34.57l-.002.001h-.001c-14.275 8.134-28.552 16.268-42.697 24.617a5136 5136 0 0 0-8.549 4.945l-.003.002c-8.185 4.74-16.371 9.481-24.627 14.1-6.064 3.39-12.587 3.509-18.87.765-33.589-19.153-66.907-38.726-100.249-58.313l-.016-.009c-12.491-7.338-24.985-14.678-37.498-21.998v-.007c-.133 1.899-.139 3.816-.145 5.735m292.396-40.781c-21.705 13.056-43.691 25.63-65.679 38.206l-.002.001c-14.503 8.295-29.007 16.591-43.433 25.026l-8.721 5.026q-8.221 4.734-16.435 9.48c-6.279 3.631-12.843 4.17-19.525 1.449-32.482-18.392-64.679-37.342-96.873-56.291l-.001-.001c-13.696-8.061-27.391-16.122-41.107-24.139-.264 2.873-.263 5.799-.261 8.72.001 1.628.002 3.254-.043 4.869-.034 2.873 2.396 4.548 4.686 5.735 23.327 13.695 46.686 27.337 70.044 40.978l.004.002.013.008a39934 39934 0 0 1 60.363 35.298c10.406 6.718 20.7 1.893 29.909-4.286 17.794-10.294 35.611-20.55 53.427-30.806l.008-.004a26314 26314 0 0 0 57.116-32.941c4.264-2.692 7.444-4.367 9.812-5.615 2.996-1.578 4.692-2.472 5.64-3.872 1.237-1.827 1.201-4.517 1.116-10.718-.023-1.744-.051-3.766-.055-6.125zm-3.99 20.954c-19.907 11.041-39.643 22.499-59.38 33.957l-.004.003c-13.404 7.782-26.809 15.564-40.269 23.216q-2.937 1.696-5.876 3.39l-.07.041-.009.005a6469 6469 0 0 0-22.109 12.79c-3.696 2.152-7.378 4.23-11.798 4.533-4.074.281-8.097-.018-11.672-2.041-7.802-4.414-15.538-8.94-23.275-13.466l-4.904-2.867c-12.821-7.46-25.608-14.959-38.394-22.456-22.129-12.976-44.251-25.948-66.53-38.713 0 1.116.013 2.189.025 3.231v.001c.028 2.288.053 4.429-.062 6.563-.166 3.065 1.204 5.032 3.742 6.489 19.81 11.535 39.595 23.116 59.38 34.697l.005.002c20.543 12.024 41.086 24.049 61.656 36.022 7.838 4.836 17.062 10.268 26.182 5.217 20.488-11.645 40.904-23.433 61.32-35.219a17264 17264 0 0 1 37.714-21.732c2.758-1.589 5.51-3.19 8.262-4.791l.01-.005v-.001c6.714-3.905 13.428-7.811 20.233-11.55 6.234-3.103 6.065-7.117 5.85-12.209-.067-1.595-.139-3.295-.02-5.107zm-46.537 81.119c-2.624-2.04-5.607-3.685-8.584-5.327l-.001-.001c-1.615-.891-3.229-1.781-4.784-2.733-.626-.348-1.796-.289-2.448.066-13.396 7.414-26.759 14.885-40.122 22.357l-.001.001a12581 12581 0 0 1-33.274 18.56q-11.208 6.246-22.415 12.48c-4.175 2.322-8.349 4.659-11.357 8.508-6.349 7.007-2.234 16.614 5.075 21.043 4.071 2.658 8.258 5.151 12.441 7.642a757 757 0 0 1 5.91 3.544c6.83 5.062 15.81.417 22.148-3.609-1.267-.827-2.622-1.637-4.001-2.46-7.066-4.221-14.749-8.811-14.228-18.003.23-5.724 3.345-10.161 8.142-13.001 7.306-4.322 14.725-8.453 22.145-12.585l.019-.01q3.619-2.014 7.233-4.037c8.738-4.908 17.486-9.769 26.232-14.629 10.631-5.907 21.261-11.814 31.874-17.806zm32.798 19.113c-4.429-2.956-9.053-5.594-13.68-8.232a439 439 0 0 1-7.223-4.181c-.619-.355-1.764-.289-2.438.04-23.86 13.215-47.679 26.526-71.493 39.834l-14.539 8.125c-.491.299-.999.599-1.51.901l-.002.001c-5.207 3.075-10.852 6.408-3.537 11.977 1.719 1.137 3.495 2.192 5.271 3.245 2.188 1.299 4.375 2.597 6.453 4.05 2.493 1.742 4.316 1.094 6.605-.263 16.225-9.464 32.495-18.816 48.766-28.169 15.786-9.074 31.573-18.149 47.323-27.328zm-108.293 53.847c2.378 1.423 4.763 2.85 7.155 4.434-.781.347-1.697.952-2.655 1.585-2.106 1.393-4.415 2.92-5.939 2.117q-.888-.517-1.78-1.03l-.014-.007v-.001c-2.862-1.65-5.728-3.303-8.412-5.211-9.624-5.894-9.201-19.56.741-24.911 4.808-2.875 9.711-5.598 14.613-8.321l.017-.009q2.446-1.356 4.888-2.722 17.587-9.804 35.172-19.614l.06-.033a109529 109529 0 0 1 40.984-22.854l-.052-.532c-1.78-.201-3.238.69-4.702 1.585-.693.424-1.387.849-2.118 1.159-.392.199-1.059.295-1.404.099-3.65-2.084-7.278-4.209-11.123-6.46l-2.957-1.73c.307-.343.583-.697.849-1.04.551-.707 1.062-1.364 1.726-1.77 4.367-2.666 8.816-5.21 13.291-7.699.541-.299 1.571-.247 2.122.071 6.96 4.03 13.907 8.082 20.853 12.135l.024.014c5.609 3.271 11.217 6.543 16.833 9.804 1.849 1.074 2.428 2.826 3.01 4.586.129.391.258.783.402 1.167.096.259-.119.714-.315.987-3.278 4.715-9.679 11.848-15.754 7.022-3.237-2.234-6.667-4.146-10.11-6.066-2.479-1.382-4.964-2.768-7.389-4.28l1.059-2.189c-.067-.077-.133-.159-.2-.236l-4.355 2.415-.003.002c-30.457 16.894-60.922 33.793-91.205 50.998-5.246 2.655-5.879 8.978-.623 11.996 2.431 1.619 4.867 3.077 7.31 4.538zm-115.093-37.211c.931.514 1.867 1.031 2.791 1.663.771.496 1.323.492 2.093.041a211 211 0 0 1 4.428-2.486c.982-.541 1.965-1.082 2.94-1.633 2.433-1.658 5.337-3.133 8.312-4.643 8.443-4.286 17.456-8.862 17.878-18.748.337-4.097-.971-7.743-5.279-9.359l-7.41-4.336c-9.243-5.411-18.487-10.821-27.762-16.179-.652-.377-1.856-.347-2.553 0-6.03 3.353-12.003 6.82-17.976 10.286h-.001l-.002.002c-4.038 2.343-8.076 4.687-12.133 6.995q-.685.394-1.381.778c-3.192 1.778-6.39 3.558-7.765 7.353-.226.625-.555 1.568-.27 1.964.298.418.582.851.865 1.284.997 1.525 1.999 3.056 3.695 3.992.699.272 1.608.863 2.581 1.495 1.899 1.233 4.042 2.625 5.35 2.121 3.594-2.024 7.166-4.09 10.738-6.155l.004-.002q2.018-1.168 4.038-2.332l3.488-2.01.028-.016a6476 6476 0 0 1 19.78-11.367l.09-.051c1.182-.675 2.269-1.295.925-3.225 3.235 1.576 6.192 3.41 9.167 5.255 1.855 1.151 3.717 2.305 5.658 3.405l.621.37c2.436 1.447 4.868 2.893 6.521 5.313 3.422 4.223-.06 8.545-3.608 11.137-6.427 3.817-12.856 7.409-19.325 11.024h-.001c-3.389 1.895-6.79 3.795-10.209 5.738 1.197.952 2.436 1.637 3.684 2.326m-2.336 121.653.002-.001c8.426-4.785 16.85-9.569 25.351-14.151 4.897-2.592 2.626-9.326-.4-12.528-2.819-2.903-4.853-3.698-8.509-1.527-1.511.898-3.059 1.735-4.607 2.573l-.002.001q-1.254.675-2.499 1.364a29686 29686 0 0 1-41.592 23.158l-.562.314-.008.004c-4.593 2.564-9.188 5.129-13.758 7.728-2.008 1.143-2.723 2.988-2.46 5.21.648 4.533 3.393 9.218 8.394 9.939v.008c13.767-6.825 27.211-14.46 40.65-22.092m-14.364-44.839c-.315-3.498-1.686-6.552-4.472-8.882-3.075-3.033-6.344-1.013-9.38.863-.369.228-.734.454-1.095.668-20.066 10.923-39.992 22.097-59.899 33.305-6.638 3.941 1.552 17.715 7.876 14.561 8.86-4.89 17.695-9.826 26.53-14.762l.014-.008a9754 9754 0 0 1 15.859-8.847q4.525-2.517 9.056-5.023l.011-.006.004-.002c4.311-2.387 8.623-4.775 12.925-7.182 1.752-.98 2.493-2.637 2.578-4.681zm-42.567-25.932c-.207-5.213-5.445-13.074-11.361-9.414-10.564 5.838-21.103 11.723-31.641 17.607l-.014.008-.015.008a8212 8212 0 0 1-30.88 17.187c-5.85 2.766-3.105 10.527.874 13.792 2.712 2.274 4.241 2.422 7.264.78 1.512-.821 3.01-1.671 4.509-2.521l.004-.002q1.29-.734 2.584-1.459c18.663-10.465 37.369-20.844 56.076-31.219 1.767-.984 2.512-2.626 2.6-4.763zm225.203 52.137c-.174 1.675.83 3.154 2.608 4.215a30925 30925 0 0 1 62.024 37.468c6.816 4.423 15.673-10.161 8.676-14.113-12.518-7.536-25.011-15.112-37.504-22.687l-.002-.002-.002-.001c-8.207-4.977-16.414-9.954-24.628-14.919-5.549-3.443-11.272 4.485-11.172 10.039m43.577-23.835c-.192 1.823.812 3.28 2.501 4.312 5.491 3.354 10.998 6.686 16.505 10.018l.016.009q9.83 5.941 19.663 11.879l.101.061q12.921 7.802 25.839 15.612c1.908 1.153 3.86 1.164 5.653-.015 4.375-2.692 8.483-10.797 2.934-14.258-7.772-4.681-15.532-9.38-23.292-14.079l-.032-.02c-12.938-7.836-25.877-15.671-38.867-23.417-5.379-2.84-10.947 3.719-11.021 9.898m43.518-24.042c-.089 2.067.752 3.557 2.515 4.611 11.854 7.155 23.69 14.34 35.525 21.524l.004.002c8.77 5.323 17.539 10.646 26.315 15.957 5.078 3.461 10.368-2.84 11.316-7.554.8-3.273.104-4.97-2.63-6.656-5.87-3.579-11.757-7.132-17.644-10.685l-.013-.008a5244 5244 0 0 1-14.537-8.794l-5.14-3.104-.038-.023a6308 6308 0 0 0-24.934-15.009c-5.645-2.711-10.442 4.829-10.739 9.739m-269.903-64.972.001.001c3.376 1.943 6.756 3.888 10.109 5.924 1.06.625 1.886.676 2.978.066 3.228-1.814 6.467-3.61 9.705-5.406l.001-.001c4.819-2.673 9.638-5.345 14.42-8.078.671-.481 1.498-.98 2.377-1.511 3.653-2.205 8.212-4.956 6.28-9.26-1.808-3.694-7.432-6.835-12.392-9.606-2.131-1.19-4.139-2.312-5.67-3.38-.563-.333-1.678-.233-2.293.103-13.291 7.591-26.245 15.087-39.532 22.792h-.004c4.616 2.943 9.315 5.648 14.02 8.356M75.77 234.092c10.416 6.262 20.83 12.522 31.162 18.949a683 683 0 0 1-7.82 4.566h-.001c-2.29 1.324-4.574 2.643-6.932 4.04-1.104.665-2.004.613-3.112-.06-7.736-4.706-15.488-9.385-23.241-14.065l-.002-.001c-6.39-3.858-12.782-7.715-19.163-11.588-5.094-3.209-1.338-11.355 2.978-13.999 1.73-1.143 4.011-1.209 5.786-.133a3676 3676 0 0 0 20.343 12.289zm383.383 27.399c-3.335-1.823-6.673-3.648-9.533-5.984 6.902-3.916 13.805-7.751 20.715-11.589l.002-.001.003-.001a4992 4992 0 0 0 17.384-9.692l.014-.007c3.706-2.076 7.412-4.151 11.135-6.197 2.019-1.109 4.034-.976 5.871.511 4.116 2.961 7.631 10.782 2.142 14.036-4.571 2.534-9.129 5.09-13.688 7.645l-.003.002c-8.788 4.926-17.576 9.853-26.449 14.627-.452.237-1.249.296-1.667.059-1.904-1.21-3.914-2.309-5.926-3.409m-50.15-29.374c1.075.633 2.131 1.232 3.167 1.819 2.32 1.315 4.537 2.571 6.616 4.024 2.608 1.819 4.905 2.163 7.368.007 12.802-7.026 25.575-14.214 38.31-21.395 7.179-4.607-1.834-19.19-9.124-13.899-5.021 2.878-10.093 5.673-15.167 8.468l-.001.001c-5.237 2.886-10.475 5.772-15.659 8.751-.541.307-1.204.813-1.345 1.346-1.029 3.784-5.402 6.071-9.501 8.214-1.685.881-3.323 1.738-4.664 2.664m-272.932-5.129c2.633 1.507 5.231 2.993 7.8 4.749-.803.356-2.098 1.181-3.549 2.105-3.084 1.964-6.876 4.378-8.163 3.714-9.232-5.561-18.45-11.148-27.669-16.735l-.009-.006q-7.11-4.31-14.225-8.617c-1.64-.991-2.56-2.403-2.452-4.285.022-5.521 5.716-13.341 11.628-9.585a13672 13672 0 0 0 27.597 16.706c.885.536 1.33 1.228 1.241 2.271-.311 3.686 1.522 6.093 4.597 7.831 1.074.633 2.142 1.244 3.204 1.852m84.073 49.19c4.105 14.759-9.061 21.446-21.219 27.621-4.57 2.321-8.998 4.57-12.313 7.148 1.833 1.392 3.837 2.514 5.843 3.637h.001c1.542.863 3.086 1.727 4.554 2.716 1.389.872 2.438.477 3.668-.222 5.515-3.306 11.169-6.351 16.819-9.394 9.579-5.158 19.144-10.309 27.991-16.712-8.575-5.002-16.765-9.783-25.344-14.794M191.85 401.269c.291-.122.539-.207.748-.28.363-.125.612-.212.778-.378.789-.786 1.827-1.096 2.865-1.407 1.19-.356 2.38-.712 3.199-1.784 1.067-.888 3.786.444 4.816 1.017 3.782 2.721 5.734 6.559 6.242 11.155.277 2.493-.797 4.105-3.186 4.848l-.799.592-.001.001c-1.712 1.272-3.053 2.268-5.275 3.493 7.307 4.756 10.523 2.894 15.894-.217 1.189-.689 2.483-1.438 3.95-2.19 12.243-6.172 3.593-24.334-5.123-29.951-4.939-3.915-9.158-1.621-13.773.889-.629.342-1.265.688-1.911 1.023-6.283 3.028-9.068 5.82-8.427 13.185zm257.293-47.355c1.145-4.268-.396-8.83-4.312-11.219a227 227 0 0 1-2.435-1.5l-.006-.003c-2.147-1.334-4.294-2.668-6.538-3.811-7.601-3.827-14.762 3.454-18.388 9.485-3.649 6.075-6.086 16.096 1.226 20.481 1.129.641 2.24 1.349 3.345 2.052 5.428 3.454 10.674 6.793 16.818 1.579-.839-.609-1.589-1.25-2.316-1.87-1.131-.966-2.203-1.882-3.46-2.549-1.837-.092-2.43-1.412-2.578-2.88-.511-4.97 1.749-8.789 5.29-11.988 2.219-2.152 5.038-2.906 7.398-.466 1.308.64 2.642 1.228 4.07 1.857h.001c.61.269 1.236.544 1.885.835zm-229.35-23.388-10.661-6.228.585-.327c12.782-7.158 25.003-14.001 37.594-21.344 1.789-1.051 3.347-2.516 4.894-3.97.439-.412.876-.824 1.318-1.225.785-.71 1.36-1.013 2.367-.399 2.115 1.291 4.259 2.532 6.497 3.827l.004.003q1.333.77 2.715 1.576c-2.261 1.41-4.606 2.753-6.943 4.091-13.048 7.473-25.87 14.815-22.772 33.107-5.252-3.069-10.402-6.077-15.598-9.111m50.555 29.134.289-.647c-2.121-1.453-4.687-2.892-7.378-4.4-10.427-5.845-22.717-12.734-18.13-25.511 1.86-4.374 5.186-7.465 9.157-9.817 4.49-2.648 8.969-5.152 13.463-7.664l.001-.001c3.533-1.975 7.075-3.956 10.64-6.016-.159-.063-.276-.118-.368-.161-.145-.068-.227-.106-.306-.102-3.538.159-6.949-.347-10.265-1.645-.537-.211-1.407.074-1.989.381-1.963 1.141-3.98 2.214-5.998 3.289h-.001c-5.863 3.122-11.747 6.254-16.39 11.084-5.304 5.757-7.968 12.324-6.275 20.251.271 1.265.756 2.219 1.963 2.918 3.978 2.227 7.895 4.569 11.812 6.911 6.496 3.885 12.993 7.771 19.771 11.13zm-16.988-64.066a201 201 0 0 0-1.742-1.003c-1.31-.749-2.544-1.455-3.729-2.232-1.045-.684-1.73-.311-2.575.318-8.526 6.14-17.753 11.107-26.993 16.082h-.001c-6.13 3.301-12.267 6.605-18.209 10.256.793.361 1.7.957 2.647 1.579 2.245 1.476 4.713 3.098 6.41 2.071 12.009-6.704 24.044-13.423 36.02-20.204 3.019-1.716 5.686-3.96 8.176-6.87zm-121.053-99.177c-4.641 3.542-1.726 8.164 2.538 10.057 4.194 2.459 8.393 4.906 12.592 7.353l.006.003q4.308 2.51 8.613 5.024a74784 74784 0 0 0 47.56 27.83q17.753 10.382 35.505 20.772 6.015 3.513 12.037 7.02l.014.008.018.011q7.161 4.17 14.313 8.35c5.886 3.443 12.068 3.92 18.343 1.472 7.542-3.853 14.879-8.166 22.213-12.478 4.633-2.723 9.264-5.446 13.945-8.052a23123 23123 0 0 1 71.293-41.091l5.064-2.913.022-.013a3329 3329 0 0 0 18.31-10.578l.358-.209c1.913-1.115 3.859-2.249 5.48-3.714 2.367-2.145 1.789-5.92-1.13-7.166.145 3.953.215 7.491-3.671 9.554-13.507 7.952-27.104 15.753-40.701 23.554l-.001.001-.008.005a8068 8068 0 0 0-20.21 11.62q-11.139 6.43-22.272 12.875c-15.181 8.783-30.362 17.566-45.58 26.283-5.938 3.401-12.228 3.986-18.51 1.353-26.093-14.597-51.89-29.781-77.686-44.964l-.001-.001c-17.718-10.429-35.436-20.857-53.249-31.095-4.445-2.382-5.768-5.868-5.205-10.868zm291.347-13.693c.134 3.335-1.539 4.9-2.797 6.076-1.028.961-1.778 1.662-1.037 2.858 4.197-1.161 5.953-4.667 3.834-8.934m-26.66 192.118c-5.723.093-10.842 9.762-7.957 13.567-.118-6.179 2.53-10.653 7.957-13.567m-273.962-14.214c3.404-2.921-3.186-15.03-7.531-13.459 5.316 2.903 7.812 7.381 7.531 13.459m42.455 26.035c3.074-3.579-1.656-13.64-7.29-13.725 4.889 2.703 8.038 7.968 7.29 13.725m35.091 12.199c5.363 2.936 7.853 7.447 7.623 13.552 3.352-3.262-3.189-14.928-7.623-13.552m231.836-34.273c.089-6.061 2.779-10.483 8.172-13.249-4.853-.836-10.346 8.471-8.172 13.249m-79.023 33.936c-4.918 2.525-8.377 7.781-7.998 13.403-1.554-2.047-.736-4.205.067-6.115 1.493-3.564 3.567-6.722 7.931-7.288m-77.22-172.176a38266 38266 0 0 1-104.261-60.464c-1.152-.673-1.178-1.394-.03-2.059a30809 30809 0 0 1 81.054-47.034 4757 4757 0 0 0 21.192-12.365c.789-.462 1.393-.577 2.249-.081a47398 47398 0 0 1 84.761 49.263c3.026 1.759 6.06 3.504 9.093 5.25l.009.005c3.037 1.747 6.073 3.494 9.101 5.254 1.478.872 1.493 1.645-.059 2.573-13.404 7.694-26.747 15.52-40.09 23.345h-.001c-20.925 12.272-41.852 24.545-63.014 36.313zm63.573-74.008c10.292 5.817 20.583 11.633 30.746 17.643-16.118 9.522-32.316 18.872-48.514 28.223-14.763 8.521-29.525 17.043-44.227 25.694-.985.592-1.834.592-2.819.015a6098 6098 0 0 0-22.8-13.297 6452 6452 0 0 0-23.422-13.567c-15.585-8.999-31.17-17.998-46.593-27.244 14.845-8.682 29.719-17.262 44.592-25.84l.003-.002c15.838-9.136 31.674-18.27 47.468-27.525.815-.481 1.423-.507 2.252-.034 8.312 4.727 16.633 9.44 24.954 14.153l.031.018q9.236 5.229 18.467 10.467c6.597 3.799 13.228 7.547 19.859 11.294l.002.002zm-14.951-17.981c17.883 10.273 35.763 20.546 53.38 31.216-.764.336-1.501.837-2.236 1.336-1.645 1.117-3.279 2.227-5.173 1.465a3694 3694 0 0 1-17.864-10.14l-.007-.004-.011-.007a6095 6095 0 0 0-10.552-6.007l-6.873-3.888c-19.539-11.053-39.078-22.105-58.56-33.255-1.082-.647-2.011-.654-3.108-.007a5713 5713 0 0 1-22.871 13.28c-5.086 2.943-10.173 5.885-15.253 8.839-7.29 4.246-14.597 8.464-21.904 12.682v.001c-10.293 5.942-20.586 11.884-30.831 17.904-1.726 1.024-3.063 1.235-4.7-.026-.198-.357-1.053-.757-1.96-1.182-1.656-.775-3.484-1.631-1.797-2.453 17.057-9.825 34.076-19.715 51.094-29.605a17509 17509 0 0 1 44.981-26.081 50 50 0 0 0 1.163-.728c2.251-1.441 3.645-2.333 6.66-.37 15.363 9.185 30.893 18.108 46.422 27.03m-42.258 6.215c-19.188-1.949-52.179 4.959-50.641 29.548-.43 31.685 56.375 33.201 75.56 18.68 3.9-2.644 7.175-5.931 9.168-10.298 2.678-6.759 2-15.718-1.523-21.978-6.96-10.894-20.407-14.532-32.564-15.952m34.054 30.498c-.367 19.605-27.446 25.558-44.148 25.318h-.004c-12.865-.185-34.972-4.999-38.647-20.696-1.23-10.276-.53-18.407 8.735-24.589 16.399-11.111 38.784-12.147 56.968-4.94 8.261 3.424 17.077 9.898 17.047 19.671q-.004.61-.014 1.22c-.02 1.341-.04 2.683.063 4.016" clip-rule="evenodd"/>
</svg>
