<svg xmlns="http://www.w3.org/2000/svg" width="550" height="550" fill="none" viewBox="0 0 550 550">
    <path fill="#fff" d="M466.791 266.257c.53.573 1.048 1.119 1.552 1.65 1.093 1.151 2.122 2.234 3.068 3.385 2.449 2.979 3.446 6.51 3.405 10.315-.173 16.016-.367 32.032-.562 48.048l-.001.065-.13 10.697c-.008.641-.027 1.282-.046 1.923-.033 1.108-.066 2.216-.043 3.323.108 5.399-2.578 9.378-6.484 12.683-1.154.976-2.4 1.846-3.726 2.772-.636.444-1.29.901-1.961 1.388l.926.584.712.451c1.16.735 2.29 1.451 3.434 2.144 7.403 4.485 14.809 8.96 22.215 13.436l4.836 2.922q1.846 1.116 3.691 2.237l.006.003a913 913 0 0 0 9.322 5.607c3.609 2.131 4.687 4.569 3.579 8.655-.889 3.279-2.723 5.969-5.561 7.84-2.301 1.519-4.702 1.49-7.11.019a11958 11958 0 0 0-34.375-20.908 2034 2034 0 0 0-8.22-4.95l-.008-.005c-3.662-2.198-7.323-4.395-10.968-6.623-.963-.589-1.626-.634-2.63-.045-4.983 2.931-9.99 5.819-14.996 8.706a5393 5393 0 0 0-6.131 3.54c-.186.107-.353.248-.579.438-.124.105-.267.225-.439.362q.43.289.809.551c.462.317.882.606 1.317.872 9.444 5.75 18.888 11.496 28.344 17.228 1.998 1.21 4.003 2.408 6.008 3.607l.016.009.003.002c2.777 1.66 5.556 3.32 8.315 5.011 2.882 1.767 3.764 4.998 2.445 8.699-1.037 2.905-2.667 5.395-5.313 7.125-2.164 1.416-4.457 1.697-6.676.371-5.123-3.06-10.22-6.165-15.316-9.269l-.004-.002a3929 3929 0 0 0-16.572-10.044h-.001l-.003-.002c-6.624-3.997-13.248-7.994-19.827-12.065-1.767-1.093-3.03-1.152-4.846-.063-4.633 2.784-9.332 5.461-14.031 8.137l-.003.002a1654 1654 0 0 0-5.78 3.302c-1.238.712-1.241 1.097.018 1.864a25066 25066 0 0 0 27.292 16.565q2.365 1.432 4.736 2.854l.004.002.003.003c3.552 2.133 7.104 4.267 10.61 6.474 2.197 1.382 3.031 3.612 2.638 6.158-.578 3.746-2.36 6.821-5.413 9.151-1.878 1.438-4.831 2.012-7.321.493-9.422-5.737-18.858-11.445-28.295-17.154l-.011-.007a19033 19033 0 0 1-12.548-7.596l-.003-.002c-3.583-2.176-7.166-4.35-10.787-6.463-.541-.315-1.564-.36-2.094-.056-8.127 4.66-16.238 9.347-24.35 14.034-5.407 3.125-10.815 6.25-16.227 9.367q-1.454.839-2.904 1.681c-4.348 2.522-8.698 5.045-13.165 7.333-4.828 2.472-10.111 3.65-15.506 4.276a67.5 67.5 0 0 1-15.079.056c-7.566-.815-14.628-3.035-21.178-6.895a7523 7523 0 0 0-21.452-12.605c-4.926-2.887-9.855-5.767-14.784-8.648l-.012-.006q-5.66-3.307-11.317-6.618-.422-.248-.846-.492h-.001c-.96-.556-1.921-1.113-2.84-1.731-1.267-.852-2.412-.752-3.709-.022a7134 7134 0 0 1-23.733 13.303l-.023.013-3.309 1.848q-3.06 1.71-6.119 3.424l-.045.025c-6.834 3.826-13.67 7.653-20.538 11.416-1.938 1.063-4.087.73-5.861-.519-3.85-2.708-5.951-6.435-5.865-11.222.037-2.12 1.104-3.724 2.923-4.75 5.521-3.117 11.056-6.209 16.592-9.302l.018-.01 2.823-1.577q4.984-2.785 9.969-5.565l.051-.029q7.466-4.162 14.926-8.337c.184-.103.34-.264.539-.47.108-.112.23-.238.376-.375-.697-.42-1.376-.833-2.046-1.24l-.004-.002-.005-.003a270 270 0 0 0-3.962-2.378q-3-1.753-6.006-3.498l-.008-.005c-3.615-2.101-7.229-4.201-10.825-6.334-1.023-.608-1.875-.601-2.868-.048q-10.634 5.928-21.273 11.848l-14.818 8.251-1.308.729-.008.005c-5.152 2.871-10.303 5.741-15.438 8.64-2.282 1.289-4.542 1.052-6.532-.359-3.438-2.435-5.402-5.843-5.713-10.097-.19-2.586.83-4.601 3.13-5.891l1.394-.781.005-.003c5.92-3.321 11.84-6.641 17.771-9.945q5.94-3.309 11.883-6.607 5.944-3.298 11.881-6.605c.274-.152.516-.363.813-.622.161-.141.339-.296.547-.464-.68-.408-1.333-.804-1.97-1.189l-.005-.004h-.001a274 274 0 0 0-3.426-2.053q-2.72-1.595-5.444-3.184c-3.888-2.27-7.776-4.541-11.64-6.849-1.3-.778-2.4-.789-3.705-.059-11.512 6.443-23.034 12.866-34.557 19.29l-8.629 4.811q-1.026.572-2.056 1.142c-2.045 1.135-4.091 2.269-6.117 3.437-2.112 1.219-4.231 1.286-6.258-.007-4.116-2.627-6.206-6.473-6.176-11.341.015-2.571 1.686-4.165 3.827-5.358 9.332-5.191 18.656-10.394 27.98-15.596l.02-.011 8.358-4.663 1.302-.724.014-.008.007-.004c1.26-.7 2.52-1.4 3.771-2.117 1.267-.722 1.171-.926.056-1.882q-.506-.434-1.016-.866c-1.802-1.533-3.617-3.077-5.123-4.869-2.342-2.786-3.227-6.173-3.183-9.882.154-12.94.267-25.883.381-38.825q.09-10.456.19-20.911l.003-.372.003-.35c.017-2.011.034-4.029.25-6.021.485-4.513 3.134-7.799 6.435-10.644.628-.541 1.286-1.046 2.016-1.608.342-.263.7-.538 1.078-.834l-2.047-1.265a585 585 0 0 0-4.445-2.733 28192 28192 0 0 0-15.962-9.682l-.06-.036q-5.515-3.343-11.028-6.688a357 357 0 0 1-3.011-1.853l-.002-.001c-2.13-1.32-4.26-2.64-6.442-3.87-3.887-2.19-4.065-4.646-3.224-8.503.567-2.594 2.079-4.846 4.187-6.647 3.405-2.908 5.902-2.671 9.344-.578a14263 14263 0 0 0 23.62 14.318l.02.011q8.017 4.852 16.03 9.709c3.327 2.016 6.647 4.046 9.926 6.14 1.237.789 2.278.733 3.527 0 4.567-2.673 9.151-5.316 13.735-7.959q3.438-1.982 6.872-3.968c.217-.123.405-.293.653-.515.138-.124.295-.264.485-.422q-.71-.454-1.372-.882c-.897-.578-1.743-1.124-2.604-1.645-9.902-6-19.807-11.992-29.713-17.986l-8.252-4.993c-3.46-2.093-3.835-4.535-2.801-8.532.77-2.976 2.552-5.473 5.16-7.255 2.202-1.504 4.506-1.923 6.914-.47q6.806 4.108 13.611 8.218l.042.026q6.782 4.097 13.565 8.191c.569.344 1.144.678 1.783 1.049.38.22.783.454 1.221.711.04-.296.084-.558.124-.799.075-.455.138-.832.136-1.205-.009-1.285-.036-2.57-.063-3.856-.051-2.411-.101-4.823-.034-7.23.06-2.171 1.093-4.083 2.883-5.376 1.152-.833 1.56-1.812 1.441-3.153a6 6 0 0 1 .014-.896c.028-.431.056-.858-.051-1.253-.226-.83-.53-1.826-1.145-2.326-1.949-1.586-2.856-3.535-2.797-6.014.086-3.669.153-7.336.22-11.004v-.015l.05-2.715q.005-.208.02-.418c.021-.329.042-.659-.023-.968-1.001-4.809 1.685-7.421 5.454-9.574a4914 4914 0 0 0 22.906-13.178q5.253-3.035 10.509-6.066 6.561-3.782 13.124-7.559c6.052-3.483 12.104-6.966 18.15-10.458q7.649-4.422 15.29-8.86l.008-.005c5.311-3.081 10.622-6.163 15.94-9.234 8.202-4.74 16.412-9.458 24.624-14.177l.083-.048 4.981-2.863c.657-.377 1.307-.77 1.958-1.164 1.636-.988 3.272-1.977 5.011-2.719 6.399-2.73 12.923-2.745 19 .715 10.478 5.965 20.874 12.075 31.27 18.184l.001.001.015.009q4.786 2.814 9.576 5.622c7.253 4.249 14.5 8.507 21.748 12.766l.023.013c7.754 4.556 15.508 9.112 23.268 13.657a9296 9296 0 0 0 19.078 11.128l.018.011.016.009c5.484 3.193 10.967 6.386 16.445 9.589 4.064 2.375 8.133 4.757 12.138 7.228 2.808 1.734 3.92 4.205 3.731 7.647-.301 5.413-.589 10.86.926 16.228.815 2.887-.597 5.369-3.235 6.773-2.589 1.382-2.882 4.561-.648 6.517 2.156 1.886 2.901 4.157 2.538 7.118-.299 2.428-.237 4.906-.176 7.378.019.779.038 1.557.046 2.333.008.785.128 1.569.247 2.352.053.347.106.694.15 1.041q.48-.22.963-.432l.001-.001c.692-.305 1.384-.611 2.04-.975 6.846-3.798 13.685-7.61 20.523-11.421l.27-.15 6.588-3.671.34-.191c.512-.288 1.024-.576 1.56-.809 2.99-1.319 5.588.074 7.896 2.523 2.208 2.341 3.464 5.235 3.646 8.458.137 2.475-.927 4.513-3.142 5.747-10.898 6.084-21.802 12.15-32.708 18.218l-.147.082-7.404 4.119c-1.253.697-1.256 1.097.015 1.849q8.893 5.24 17.789 10.475l3.655 2.152c1.049.618 2.071.685 3.19.055 11.067-6.22 22.144-12.422 33.22-18.623l.02-.011 5.622-3.148q1.518-.852 3.031-1.712l.008-.005c2.329-1.322 4.658-2.643 7.024-3.896 3.398-1.801 5.932-.796 8.833 2.275 2.175 2.301 3.375 5.165 3.553 8.333.141 2.478-.915 4.52-3.123 5.75-7.429 4.148-14.865 8.279-22.302 12.411l-.002.001q-7.437 4.131-14.872 8.269c-.785.436-1.551.903-2.359 1.394l-.001.001-.002.001q-.628.383-1.303.787zM351.594 418.593l-.616-.492a1116 1116 0 0 0-4.679-3.72c-.107-.086-.285-.115-.429-.119-1.745-.082-2.249-1.33-2.512-2.734-.923-4.91 2.778-10.86 6.761-13.272 2.383-1.445 3.498-1.248 5.506.556.14.125.341.181.542.236.102.028.204.056.299.094q.285.109.573.212l.004.002c.474.171.948.343 1.39.575.768.402 1.518.839 2.308 1.299q.53.31 1.09.631c.067-.198.144-.378.215-.546.139-.331.259-.615.252-.895q-.009-.404-.013-.809c-.03-2.341-.061-4.718-1.821-6.564-1.208-1.271-2.575-2.482-4.083-3.361-.977-.569-1.921-1.206-2.865-1.843-2.488-1.677-4.98-3.357-8.087-3.833-.06-.008-.11-.085-.228-.262-.079-.119-.188-.284-.35-.505.792.226 1.556.41 2.29.587l.002.001c1.552.374 2.969.716 4.24 1.35 2.919 1.46 5.843 3.083 8.369 5.124 3.413 2.757 4.35 6.703 3.724 10.971-.159 1.074.052 1.741.993 2.301 1.352.804 2.696 1.622 4.039 2.441l.003.002h.001c2.152 1.311 4.304 2.622 6.49 3.874.589.337 1.69.37 2.275.044 5.374-3.014 10.706-6.106 16.036-9.198l1.682-.976c.95-.552 1.885-1.131 2.924-1.774l.004-.002 1.098-.678.39-.239c-.447-.175-.809-.426-1.143-.658-.681-.474-1.247-.867-2.184-.358-1.192.649-2.422 1.227-3.651 1.806h-.001l-.003.002q-.768.359-1.532.727c-2.727 1.319-5.28.252-7.692-.819-1.066-.472-2.055-1.115-3.045-1.76-.908-.591-1.817-1.182-2.786-1.641-2.567-1.216-4.218-3.305-5.883-5.414l-.29-.366c-.129-.165-.193-.382-.287-.701v-.001c-.054-.183-.118-.401-.209-.662.479.48.909.946 1.317 1.388.841.911 1.586 1.719 2.469 2.325 1.879 1.287 3.833 2.462 5.786 3.638.943.568 1.886 1.135 2.821 1.716 3.572 2.215 7.125 1.619 10.648-.078.411-.198.751-.542 1.076-.871.143-.145.283-.286.425-.411l-1.347-1.08c-1.301-1.043-2.539-2.037-3.781-3.022a1.6 1.6 0 0 0-.556-.252c-1.793-.474-2.445-1.307-2.701-3.13-.67-4.772 3.031-10.801 7.151-13.079 1.226-.678 2.719-1.1 4.142-.363.323.167.603.415.883.663.267.236.535.473.84.641.627.346 1.273.659 1.919.972h.001c.778.376 1.555.753 2.3 1.188 1.041.608 1.552.511 1.815-.73.679-3.201-1.578-8.299-4.427-9.985-1.089-.643-2.168-1.305-3.246-1.966l-.001-.001-.002-.001c-1.715-1.052-3.43-2.104-5.187-3.082-2.531-1.408-5.206-2.238-8.085-.871-.278.133-.594.185-.91.236a8 8 0 0 0-.45.083l-.057-.226-.057-.226c.477-.14.962-.331 1.446-.521 1.079-.425 2.158-.849 3.163-.716q.548.07 1.103.132c2.106.24 4.261.485 6.114 1.913 1.539 1.184 3.271 2.134 4.989 3.077l.65.357c2.36 1.304 4.483 3.057 5.298 5.521.506 1.53.574 3.201.642 4.878.035.853.07 1.706.162 2.543.067.589.241 1.415.656 1.678a247 247 0 0 0 9.867 5.943c.485.278 1.408.248 1.908-.029 5.661-3.169 11.286-6.402 16.907-9.633l.006-.003.304-.175c1.121-.643 2.227-1.313 3.378-2.01l.001-.001q.75-.455 1.53-.924c-1.13-.993-1.878-.507-2.619.089-2.112 1.708-4.654 2.546-7.247 2.553-2.564.007-4.969-1.037-7.144-2.553-1.804-1.256-3.72-2.367-5.657-3.416-2.186-1.182-4.443-2.745-4.983-4.968-.586-2.409-1.171-4.98-.719-7.696.67-4.034 1.982-7.773 4.238-11.081 2.99-4.383 6.521-8.248 11.816-10.067 2.708-.93 5.105-.163 7.384.952 1.571.769 3.058 1.707 4.546 2.646h.001l.003.002a80 80 0 0 0 2.712 1.661c3.731 2.149 6.539 4.928 6.743 9.541.052 1.174.059 2.363-.067 3.531-.104.963.019 1.611.952 2.152 1.17.677 2.322 1.385 3.474 2.093l.001.001c1.552.954 3.104 1.908 4.699 2.786.618.341 1.774.296 2.393-.063 1.76-1.023 3.498-2.164 5.017-3.513 3.264-2.893 5.82-6.295 5.872-10.904.203-16.993.363-33.984.522-50.977l.064-6.751c.002-.353-.061-.709-.111-.99q-.031-.172-.049-.299c-.649.659-1.264 1.355-1.876 2.045-1.325 1.497-2.631 2.972-4.219 4.016-5.285 3.479-10.762 6.679-16.23 9.874l-.002.001-.013.008-2.013 1.177c-5.363 3.138-10.752 6.234-16.141 9.331l-.003.002-.016.009q-4.37 2.509-8.738 5.03-7.008 4.052-14.011 8.112l-.001.001-.006.003q-7.752 4.495-15.511 8.979c-4.949 2.857-9.903 5.705-14.856 8.553a8770 8770 0 0 0-14.851 8.549c-5.473 3.161-10.942 6.331-16.411 9.502l-.012.006q-6.617 3.837-13.239 7.669a4439 4439 0 0 0-6.671 3.866l-.004.002c-6.683 3.878-13.367 7.757-20.105 11.537-3.831 2.149-7.74 4.298-11.849 5.787-6.469 2.346-13.275 3.153-20.178 2.961-8.532-.237-16.824-1.708-24.334-5.88-6.903-3.837-13.709-7.851-20.514-11.865l-.004-.002-.005-.003c-2.814-1.66-5.627-3.319-8.447-4.966q-9.48-5.538-18.958-11.081l-.101-.059-7.08-4.139-8.069-4.716-.025-.014-.039-.023q-8.876-5.186-17.747-10.379-8.227-4.818-16.45-9.643-5.696-3.342-11.393-6.681-6.498-3.805-12.999-7.604a19126 19126 0 0 1-21.533-12.606c-5.379-3.155-10.758-6.311-16.15-9.445-3.878-2.257-7.517-4.776-10.166-8.492-.293-.413-.57-.838-.849-1.262v-.001l-.347-.527c-.367.634-.415 1.127-.423 1.623q-.037 3.444-.066 6.888-.023 2.576-.049 5.154l-.088 8.784v.007c-.116 11.734-.233 23.467-.379 35.198-.03 2.416.367 4.698 1.408 6.87 1.764 3.682 4.65 6.331 8.026 8.451.615.385 1.848.341 2.526-.019 1.596-.84 3.161-1.739 4.727-2.638 1.989-1.143 3.977-2.285 6.025-3.305 1.916-.952 2.409-2.037 2.286-4.138-.177-3.027.449-5.925 2.768-8.325 1.463-1.515 3.252-2.467 5.034-3.416 1.182-.629 2.361-1.256 3.439-2.046 2.129-1.556 4.493-1.715 7-1.885h.002q.402-.026.809-.056c-.479.161-.952.303-1.415.442-1.005.302-1.966.59-2.846 1.036-1.375.696-2.716 1.458-4.058 2.221-1.288.732-2.576 1.463-3.893 2.136-3.768 1.927-5.398 5.136-5.724 9.152-.046.55.093 1.114.227 1.655.061.246.121.487.162.72.158 0 .275.007.363.012.133.008.197.012.233-.02.928-.812 2.067-1.232 3.205-1.652 1.262-.466 2.524-.932 3.501-1.93.082-.084.219-.112.358-.141.076-.015.152-.031.22-.056 1.608-.589 3.001.2 4.154 1.023 3.89 2.775 5.928 6.695 6.394 11.419.245 2.464-.796 3.901-3.193 4.675-.204.067-.375.232-.548.398a3 3 0 0 1-.29.258q-.266.202-.531.407l-.003.003c-.466.36-.931.72-1.422 1.039-.64.421-1.297.813-2.023 1.247h-.001q-.492.293-1.033.62c2.272 1.968 4.724 3.19 7.436 3.161 1.805-.019 3.78-.682 5.362-1.608 1.052-.615 2.144-1.173 3.238-1.731 3.004-1.533 6.015-3.07 8.218-5.813.047-.06.137-.085.227-.109q.065-.017.125-.039l-.296.489c-.907 1.505-1.842 3.057-3.202 3.976-2.92 1.974-6.054 3.671-9.244 5.187-4.127 1.96-7.984.841-11.586-1.627a15 15 0 0 1-.311-.22l-.002-.001c-.555-.399-1.211-.87-1.598-.727-.998.365-1.926.915-2.913 1.501-.395.234-.8.474-1.222.711.19.15.349.283.489.4h.001c.267.223.468.391.692.522l1.376.807h.001c6.828 4.003 13.656 8.006 20.519 11.953.449.256 1.308.182 1.794-.081 1.629-.867 3.242-1.763 4.855-2.658 2.102-1.167 4.205-2.334 6.341-3.437 1.386-.715 1.497-1.634 1.404-2.983-.252-3.59.319-6.991 3.253-9.485a22.8 22.8 0 0 1 3.768-2.578c.77-.419 1.525-.872 2.28-1.325 2.807-1.682 5.617-3.367 9.162-3.318 1.207.019 3.156.338 4.59 1.453-3.386-1.697-6.287-.819-9.125.77a362 362 0 0 1-3.655 2.011h-.001c-1.253.684-2.506 1.367-3.751 2.065-4.579 2.564-5.483 6.306-5.302 10.37.01.239.129.473.254.719.061.121.124.245.176.374.126-.047.237-.08.333-.109h.001c.167-.05.292-.087.381-.165.907-.805 2.028-1.207 3.148-1.609 1.241-.446 2.482-.892 3.432-1.885.059-.061.16-.082.262-.103a1 1 0 0 0 .172-.045c1.615-.604 3.001.215 4.146 1.034 3.883 2.775 5.924 6.687 6.38 11.422.237 2.475-.749 3.868-3.19 4.676-.186.063-.345.206-.504.349a4 4 0 0 1-.23.196l-.323.25-.306.24c-.469.369-.936.738-1.431 1.066-.611.407-1.241.785-1.988 1.233l-.003.002c-.38.228-.79.474-1.243.751.473.269.906.522 1.316.762.797.465 1.503.878 2.229 1.25 3.079 1.582 6.099 1.315 9.07-.352 1.418-.795 2.844-1.575 4.27-2.356l.001-.001a473 473 0 0 0 4.47-2.467c3.027-1.701 5.175-6.84 4.39-10.245-.152-.656-.21-1.334-.269-2.013a33 33 0 0 0-.09-.94c.392.823.578 1.668.759 2.512.586 2.724.371 5.569-1.004 7.796-1.463 2.375-3.353 4.739-6.284 5.731-.229.079-.44.211-.651.342q-.144.09-.29.173c-.584.328-1.163.666-1.742 1.005-1.282.751-2.564 1.501-3.904 2.126-4.194 1.964-8.081.975-11.753-1.5-.145-.098-.3-.215-.459-.335-.508-.384-1.054-.796-1.438-.692-.79.215-1.52.661-2.305 1.141-.326.199-.661.404-1.014.601.171.15.307.276.422.384.203.189.342.318.5.412l3.521 2.067.002.002c6.067 3.563 12.133 7.126 18.248 10.606.671.382 1.934.263 2.671-.115 1.538-.785 3.043-1.637 4.548-2.489h.001c1.57-.888 3.14-1.777 4.747-2.59 1.616-.815 2.079-1.775 1.923-3.583-.4-4.639 1.238-8.444 5.402-10.874q.92-.538 1.838-1.085l.006-.003c2.253-1.338 4.51-2.678 6.885-3.744 2.349-1.052 4.932-2.149 7.555-.455.211.137.467.226.711.292 3.464.956 5.902 3.361 8.162 5.936a26.8 26.8 0 0 1 5.276 9.096c1.186 3.486 1.812 7.028 1.419 10.774-.348 3.305-2.434 5.191-4.916 6.78-1.415.904-2.888 1.718-4.362 2.531l-.001.001-.002.001c-.995.549-1.99 1.098-2.968 1.676-5.498 3.253-9.344 2.642-14.26-.8-1.39-.975-2.19-.86-3.727.885l.785.484c.564.348 1.122.692 1.69 1.024l9.1 5.316.056.033c5.215 3.045 10.43 6.089 15.641 9.142q2.805 1.64 5.615 3.272c5.254 3.056 10.509 6.113 15.693 9.284 6.814 4.168 13.957 7.351 21.926 8.462 6.151.86 12.32.915 18.459.026 4.887-.711 9.729-1.841 14.112-4.19 5.173-2.768 10.262-5.697 15.348-8.624l2.044-1.176c10.147-5.832 20.28-11.692 30.411-17.551l.008-.005 4.701-2.718c.837-.485 1.66-.997 2.501-1.522q.618-.387 1.256-.779c-2.92-2.501-3.383-2.582-5.41-1.096-3.456 2.534-8.795 2.808-12.437.629q-.59-.35-1.183-.698c-1.152-.677-2.305-1.355-3.412-2.103-.39-.263-.806-.502-1.221-.741-1.431-.823-2.86-1.645-3.236-3.456q1.546.927 3.103 1.87l.008.005h.001c2.468 1.493 4.961 3 7.488 4.449 3.513 2.016 9.152.508 11.067-1.927zm-175.922-167.63c-.179-.155-.307-.274-.408-.367-.148-.137-.236-.219-.337-.278l-10.19-5.973-.119-.069q-9.234-5.41-18.464-10.827c-.949-.556-1.838-.493-2.757.041l-1.526.887a6879 6879 0 0 1-15.095 8.757q-4.441 2.565-8.887 5.123l-.003.002c-6.36 3.662-12.719 7.323-19.05 11.033l-1.297.758v.001c-3.546 2.07-7.11 4.151-10.362 6.621-3.98 3.02-6.462 7.054-6.117 12.427.289 4.494 2.445 7.999 5.787 10.618 3.18 2.495 6.691 4.586 10.175 6.662l.336.2c7.052 4.196 14.138 8.334 21.223 12.471l.006.004q3.362 1.962 6.722 3.927 5.186 3.033 10.377 6.058l.006.003c4.632 2.702 9.264 5.403 13.889 8.115 3.82 2.24 7.636 4.489 11.451 6.738q5.721 3.375 11.45 6.737a7142 7142 0 0 0 14.424 8.433q4.462 2.602 8.921 5.209 6.847 4.005 13.692 8.016l.007.004.043.026q6.05 3.546 12.101 7.085 3.767 2.208 7.53 4.425l.003.002c6.757 3.978 13.514 7.955 20.343 11.805 3.546 1.997 7.299 3.798 11.171 5.013 3.835 1.204 7.91 1.749 11.923 2.238 7.176.87 14.249.026 21.222-1.827 4.609-1.223 8.781-3.346 12.871-5.739 6.154-3.602 12.336-7.155 18.518-10.709l.007-.004q4.108-2.36 8.211-4.726l13.203-7.617 13.14-7.581q4.436-2.555 8.873-5.108c4.766-2.742 9.531-5.484 14.291-8.234q6.022-3.48 12.041-6.968l.002-.001q6.47-3.75 12.947-7.492 5.787-3.34 11.576-6.673 5.793-3.337 11.584-6.679 6.128-3.543 12.252-7.09l.023-.013q7.955-4.608 15.913-9.203l1.018-.585c3.392-1.942 6.784-3.884 9.401-6.892 3.471-3.99 4.942-8.514 3.186-13.679-1.393-4.098-4.25-7.184-7.866-9.374-7.399-4.487-14.866-8.865-22.333-13.242l-.022-.013q-2.91-1.706-5.818-3.414c-3.388-1.991-6.782-3.973-10.174-5.955a3126 3126 0 0 1-15.813-9.28c-1.223-.722-2.178-.778-3.409-.059-5.115 2.983-10.246 5.939-15.377 8.896l-.006.003-.007.004q-4.016 2.313-8.029 4.631c-1.303.752-2.596 1.521-3.929 2.312l-.001.001-1.135.674-.563.333c.175.141.328.273.469.394.277.238.507.436.765.588q5.787 3.38 11.579 6.756l.006.004.008.005c6.882 4.013 13.766 8.027 20.637 12.06.359.211.724.413 1.088.615 2.132 1.184 4.245 2.357 5.144 5.117l.095.291.005.013c.669 2.036 1.231 3.744-.697 5.439-.314.276-.538.65-.763 1.026-.176.295-.353.59-.574.841-.22.249-.435.511-.65.774h-.001c-.668.814-1.345 1.639-2.202 2.146-6.593 3.893-13.23 7.711-19.867 11.528l-4.472 2.573q-6.276 3.613-12.556 7.219l-.028.016-.018.01c-5.706 3.278-11.413 6.556-17.112 9.846-5.482 3.166-10.958 6.345-16.433 9.523h-.001l-.015.009c-4.931 2.862-9.863 5.725-14.799 8.578l-5.928 3.429c-8.58 4.964-17.159 9.927-25.784 14.811a72 72 0 0 0-2.796 1.698c-2.498 1.569-5 3.14-7.944 3.838-.413.097-.829.18-1.246.264-.744.15-1.488.299-2.208.525-4.121 1.3-8.03.328-11.941-.644a93 93 0 0 0-2.708-.646c-.137-.029-.263-.112-.389-.195a3 3 0 0 0-.152-.097l-9.97-5.854c-9.047-5.313-18.094-10.627-27.147-15.924-7.56-4.424-15.126-8.838-22.693-13.252l-.034-.02-.032-.019q-8.799-5.132-17.593-10.27l-7.62-4.452-.059-.034c-11.592-6.771-23.184-13.542-34.743-20.371-.721-.426-1.456-.833-2.191-1.241-3.306-1.834-6.618-3.671-8.71-7.188a53 53 0 0 0-.43-.707c-.965-1.564-1.063-1.724.19-3.62.284-.431.553-.869.821-1.306 1.106-1.804 2.199-3.585 4.332-4.763 7.065-3.893 14.036-7.954 21.006-12.015q3.745-2.184 7.497-4.358c1.34-.774 2.672-1.561 4.065-2.385l.003-.001q.988-.585 2.027-1.196zM276.734 81.335a16.87 16.87 0 0 0-9.248 2.153c-7.034 3.987-14.029 8.04-21.024 12.094h-.001l-.015.01-4.799 2.779q-7.283 4.218-14.56 8.447l-.005.003-.009.005c-5.553 3.225-11.107 6.45-16.667 9.666-7.685 4.443-15.378 8.875-23.071 13.305l-8.751 5.042q-4.754 2.74-9.51 5.474l-.003.002a8957 8957 0 0 0-13.792 7.944l-3.863 2.226c-5.639 3.247-11.276 6.494-16.874 9.812-1.919 1.137-3.523 2.627-3.32 5.265.178 2.341 1.63 3.708 3.427 4.768a3381 3381 0 0 0 15.477 9.077q4.389 2.562 8.773 5.132 5.75 3.374 11.501 6.753l.01.006c5.434 3.192 10.868 6.385 16.306 9.569 5.069 2.969 10.142 5.929 15.214 8.89l.033.019a19796 19796 0 0 1 35.531 20.787q3.925 2.302 7.845 4.614c5.59 3.293 11.181 6.586 16.801 9.828.707.408 1.407.833 2.107 1.258l.001.001c2.922 1.775 5.849 3.553 9.366 4.121 4.713.759 9.248.422 13.446-1.949 4.191-2.365 8.354-4.781 12.517-7.197 2.346-1.362 4.693-2.725 7.045-4.078q8.102-4.664 16.207-9.322c8.224-4.727 16.448-9.455 24.663-14.197a9730 9730 0 0 0 18.559-10.751c5.86-3.4 11.72-6.801 17.588-10.19 4.046-2.337 8.097-4.666 12.148-6.996 7.932-4.561 15.865-9.123 23.765-13.741 1.341-.786 2.701-2.034 3.353-3.401 1.415-2.968.033-4.998-2.497-6.562-3.884-2.403-7.832-4.706-11.779-7.009h-.001q-1.913-1.115-3.822-2.235c-8.214-4.828-16.436-9.644-24.657-14.457q-7.531-4.404-15.065-8.804l-9.355-5.464a74459 74459 0 0 1-26.136-15.287l-8.336-4.882-.084-.05c-5.901-3.457-11.802-6.914-17.707-10.359a430 430 0 0 0-4.942-2.822h-.001c-3.255-1.841-6.509-3.681-9.663-5.684-3.679-2.338-7.506-3.728-12.119-3.605zM130.918 206.212l-.015.067a2.4 2.4 0 0 0-.07.479c-.089 4.168-.174 8.332-.248 12.501-.033 1.926.697 3.556 2.227 4.69 1.434 1.064 2.982 1.982 4.527 2.886 4.198 2.461 8.401 4.911 12.605 7.362l.007.004q5.836 3.399 11.664 6.81c4.285 2.509 8.563 5.028 12.841 7.548l.003.001a6050 6050 0 0 0 10.194 5.996q6.229 3.65 12.464 7.29 5.307 3.1 10.611 6.204 6.496 3.805 12.992 7.614 6.488 3.806 12.98 7.607 3.669 2.147 7.336 4.299l.001.001c6.874 4.031 13.749 8.064 20.647 12.054.699.404 1.391.824 2.082 1.244 2.974 1.807 5.95 3.616 9.548 4.154 4.665.696 9.163.367 13.309-1.968 4.63-2.61 9.225-5.28 13.82-7.95l.005-.003q3.661-2.13 7.33-4.247 5.21-2.998 10.423-5.986c4.299-2.466 8.597-4.931 12.889-7.408 4.674-2.696 9.343-5.403 14.011-8.11l.005-.003q5.483-3.181 10.971-6.355 6.177-3.565 12.356-7.12l.028-.016.008-.004q5.387-3.1 10.772-6.206a17789 17789 0 0 0 24.994-14.46l3.196-1.851.039-.022c4.197-2.428 8.393-4.855 12.552-7.346 2.016-1.204 3.09-3.008 3.02-5.513-.073-2.587-.059-5.176-.045-7.765.007-1.219.014-2.438.012-3.657 0-.317-.029-.634-.062-1.003a27 27 0 0 1-.053-.642c-.34.238-.655.469-.958.691-.63.462-1.203.883-1.814 1.235-4.9 2.843-9.805 5.674-14.711 8.504q-4.093 2.36-8.182 4.723-7.128 4.118-14.254 8.243l-.032.018-.079.046-10.781 6.236q-6.951 4.015-13.903 8.025-6.962 4.016-13.922 8.036-7.676 4.437-15.347 8.882l-.012.007q-5.556 3.219-11.113 6.435-5.588 3.23-11.177 6.457-7.724 4.456-15.44 8.926l-.186.108c-3.542 2.053-7.054 4.09-11.326 4.316-4.172.222-8.251 0-11.982-2.06-3.694-2.043-7.336-4.178-10.979-6.312l-1.14-.668q-6.89-4.036-13.775-8.085l-.012-.007-.011-.007q-6.885-4.048-13.775-8.085c-6.35-3.72-12.705-7.429-19.061-11.139l-.001-.001-8.811-5.143a26812 26812 0 0 1-26.272-15.362 20885 20885 0 0 1-27.718-16.257c-3.388-1.992-6.772-3.996-10.163-6.004l-.033-.019q-2.495-1.478-4.998-2.958zm.33-36.408c.008-.019-.096.159-.096.341a556 556 0 0 1-.053 3.417v.001c-.059 3.337-.117 6.675-.006 10.009.037 1.189.744 2.616 1.604 3.46 1.173 1.153 2.65 2.025 4.096 2.878l.218.128.199.118a9917 9917 0 0 0 30.737 18.036q7.723 4.517 15.454 9.026l.045.026c5.138 2.998 10.275 5.995 15.408 8.999 6.154 3.602 12.306 7.213 18.456 10.824l.007.004q7.727 4.538 15.457 9.068 5.992 3.509 11.989 7.012l.005.003.006.003a6983 6983 0 0 1 19.422 11.377c3.509 2.068 6.988 4.076 11.223 4.276 3.853.181 7.624-.011 11.07-1.949 5.265-2.96 10.504-5.976 15.735-8.996a9069 9069 0 0 0 14.226-8.233l.021-.012.015-.009a8762 8762 0 0 1 31.836-18.377l8.581-4.939 4.799-2.763c6.166-3.55 12.33-7.098 18.487-10.661 6.4-3.702 12.791-7.421 19.181-11.14l2.472-1.438q2.792-1.627 5.579-3.261l.002-.001c4.102-2.402 8.203-4.804 12.336-7.15 2.323-1.315 3.594-3.09 3.572-5.791-.019-2.233-.019-4.469-.019-6.704q.003-2.514-.007-5.029c0-.241-.047-.482-.107-.787a16 16 0 0 1-.101-.555c-.22.166-.416.321-.599.465h-.001c-.372.294-.687.542-1.03.743a2499 2499 0 0 1-13.138 7.673 18152 18152 0 0 1-31.248 18.122 13442 13442 0 0 1-21.134 12.187 18145 18145 0 0 0-10.566 6.086 24361 24361 0 0 0-28.092 16.206c-2.646 1.53-5.288 3.069-7.929 4.608l-.007.004c-5.103 2.974-10.207 5.949-15.35 8.856-.845.478-1.676.986-2.509 1.495-2.669 1.632-5.345 3.268-8.48 3.929-5.332 1.122-10.637.989-15.443-1.76-8.532-4.881-17.004-9.864-25.476-14.848a6267 6267 0 0 0-9.299-5.463q-7.74-4.537-15.477-9.079c-6.685-3.923-13.37-7.847-20.058-11.762-4.883-2.859-9.772-5.708-14.66-8.558l-.004-.002a8215 8215 0 0 1-16.266-9.498c-8.151-4.777-16.294-9.567-24.451-14.364l-.005-.003zm4.009 20.752-.232.135q-.114.068-.231.135.002 1.507.019 3.013v.001c.022 2.332.043 4.664-.052 6.99-.104 2.593 1.115 4.316 3.13 5.606 1.083.691 2.201 1.323 3.32 1.955.619.35 1.239.7 1.853 1.06q5.671 3.333 11.342 6.669c7.562 4.447 15.124 8.894 22.692 13.327a8287 8287 0 0 0 15.457 9.021c5.153 3.003 10.306 6.005 15.454 9.019 5.174 3.029 10.341 6.068 15.508 9.107q6.877 4.048 13.762 8.085 14.777 8.657 29.57 17.287c5.576 3.253 11.5 3.931 17.454 1.523 2.685-1.085 5.207-2.59 7.722-4.091.835-.498 1.669-.996 2.508-1.478a20129 20129 0 0 0 37.817-21.744 35594 35594 0 0 0 30.077-17.36l.032-.019 11.532-6.66 8.48-4.892.003-.002c10.523-6.07 21.046-12.139 31.539-18.266 1.637-.956 3.468-2.134 4.338-3.697.718-1.292.773-3.001.825-4.636v-.004q.015-.507.039-1c.087-1.728.067-3.459.047-5.254-.009-.795-.018-1.602-.018-2.426q-.34.139-.622.245c-.362.138-.666.254-.945.414a9667 9667 0 0 0-14.593 8.431l-2.046 1.184-9.767 5.653-.057.033a13016 13016 0 0 1-32.998 19.064l-.02.011q-5.933 3.417-11.863 6.839-8.201 4.736-16.398 9.48l-.022.013q-5.694 3.295-11.39 6.587l-5.875 3.399c-6.424 3.718-12.849 7.437-19.297 11.114-.672.383-1.338.779-2.004 1.174l-.001.001c-3.11 1.847-6.218 3.693-9.944 4.297-4.679.76-9.207.367-13.364-1.793-3.641-1.892-7.174-3.995-10.707-6.097a593 593 0 0 0-3.683-2.18q-6.929-4.06-13.852-8.129-6.922-4.07-13.851-8.129-6.346-3.71-12.699-7.409l-.005-.002a7981 7981 0 0 1-13.32-7.772 19477 19477 0 0 1-19.304-11.312l-.015-.009-.044-.026q-5.103-2.994-10.207-5.985l-6.394-3.751-.019-.011q-11.443-6.714-22.89-13.419a424 424 0 0 0-3.816-2.197h-.001q-.99-.565-1.981-1.133zm267.798 99.508 1.742 1.02c-.748.441-1.452.86-2.13 1.263-1.181.702-2.281 1.356-3.389 1.998-9.485 5.483-18.97 10.967-28.459 16.443q-7.368 4.252-14.737 8.501l-14.673 8.464-10.745 6.203-.034.02q-8.641 4.99-17.287 9.976l-.451.26c-2.424 1.399-4.845 2.796-7.315 4.108-.477.255-1.341.289-1.793.026-4.404-2.589-8.771-5.244-13.138-7.898l-1.204-.731c-.22-.136-.41-.323-.599-.51q-.103-.103-.209-.202c-3.13-2.89-3.138-5.85.278-8.369 2.07-1.526 4.337-2.795 6.592-4.059h.001l1.006-.565c6.297-3.543 12.608-7.06 18.919-10.578l6.846-3.816 5.059-2.82a21035 21035 0 0 0 39.393-22.004l.051-.029 7.03-3.935q1.032-.576 2.067-1.148c1.73-.958 3.462-1.916 5.166-2.921 1.007-.592 1.863-.559 2.845.023 3.734 2.218 7.48 4.418 11.226 6.618q1.87 1.097 3.739 2.196a1699 1699 0 0 0 4.189 2.458zm-110.462 63.765 1.644.999c-3.945 2.711-7.912 4.44-12.324 5.555-3.894.986-7.013.26-10.107-1.923-.638-.449-1.325-.831-2.012-1.212l-.001-.001c-.433-.24-.867-.481-1.288-.739q-2.032-1.24-4.07-2.47l-.008-.005-.003-.002c-3.675-2.225-7.352-4.45-10.962-6.778-2.763-1.779-4.987-4.168-6.617-7.095-2.83-5.084-1.756-9.693 1.616-14.013 2.904-3.72 6.913-6.039 10.941-8.295 6.391-3.579 12.786-7.151 19.225-10.645.996-.54 2.173-.791 3.308-1.033l.193-.041c3.309-.709 6.128-2.415 8.943-4.119v-.001c.775-.469 1.55-.938 2.335-1.386 8.975-5.122 17.924-10.295 26.87-15.466l4.96-2.867c6.564-3.792 13.125-7.594 19.686-11.396l9.836-5.699c.194-.112.385-.237.575-.361.419-.275.837-.55 1.296-.687.637-.193 1.515-.36 2.023-.071 3.373 1.915 6.708 3.896 10.043 5.877l.001.001.043.025q1.381.821 2.766 1.641c.048.028.081.08.139.173.041.064.093.148.172.257l-1.811 1.024-.004.003c-1.689.955-3.371 1.908-5.058 2.852l-2.981 1.67c-8.161 4.571-16.32 9.141-24.488 13.702q-6.415 3.584-12.836 7.16l-.003.002a8533 8533 0 0 0-17.739 9.903q-2.6 1.456-5.205 2.905h-.001c-5.913 3.292-11.827 6.584-17.624 10.067-4.157 2.493-6.984 6.232-7.936 11.182-.897 4.664.708 8.577 3.531 12.126 2.266 2.847 5.324 4.646 8.379 6.444q.654.385 1.306.774c1.067.639 2.13 1.284 3.247 1.963m8.365-5.571c.769.454 1.561.923 2.386 1.416-.675.397-1.32.783-1.944 1.156l-.007.004c-1.678 1.002-3.208 1.917-4.785 2.74-.534.277-1.501.233-2.031-.075a399 399 0 0 0-1.919-1.108v-.001c-2.868-1.65-5.741-3.303-8.418-5.226-4.998-3.59-7.925-8.359-6.739-14.809.833-4.524 3.653-7.803 7.432-10.096 4.542-2.757 9.186-5.345 13.829-7.932h.001q1.965-1.094 3.928-2.194a6136 6136 0 0 1 17.895-9.995l.048-.027 6.344-3.535q4.883-2.722 9.766-5.439c4.804-2.673 9.606-5.346 14.405-8.029a10821 10821 0 0 0 17.59-9.865l.003-.002 8.143-4.571c1.281-.719 2.567-1.43 3.853-2.142a23 23 0 0 0-.1-.456l-.019-.085c-.172.012-.351.008-.53.005-.392-.009-.785-.017-1.1.136-.847.414-1.674.868-2.501 1.323-.744.409-1.488.818-2.245 1.196-.408.204-1.075.33-1.423.134-3.5-1.983-6.976-4.003-10.58-6.099l-.007-.003q-1.6-.931-3.24-1.882l2.349-1.379c1.745-1.024 3.393-1.992 5.046-2.949q1.636-.945 3.278-1.879l.003-.002c1.976-1.128 3.951-2.255 5.904-3.421.963-.578 1.764-.585 2.716-.026l.923.542.01.005c11.663 6.843 23.324 13.684 35.02 20.468 1.782 1.032 2.349 2.696 2.919 4.369v.001c.16.47.321.941.509 1.399.1.248-.115.711-.312.985l-.05.071c-1.868 2.62-3.685 5.169-6.63 6.925-3.123 1.856-5.543 2.319-8.825.118-3.986-2.67-8.161-5.055-12.365-7.457l-.003-.002a489 489 0 0 1-5.361-3.093c.261-.599.493-1.138.825-1.91l.205-.476-1.428.783-1.173.641c-1.632.892-3.158 1.726-4.675 2.574q-7.586 4.238-15.167 8.485l-.009.006-5.732 3.209-8.556 4.794-.042.023q-7.755 4.349-15.518 8.688a5162 5162 0 0 1-9.462 5.27l-.024.014a4088 4088 0 0 0-12.789 7.132l-1.806 1.013c-6.453 3.618-12.906 7.237-19.298 10.958-1.326.774-2.545 1.949-3.438 3.205-1.841 2.586-1.419 5.431 1.46 7.743 2.066 1.661 4.339 3.061 6.61 4.46l.003.001q1.047.643 2.086 1.297c1.53.966 3.089 1.888 4.761 2.875zm-121.839-41.242c-.698-.403-1.422-.822-2.181-1.267l3.557-2.006.001-.001c1.112-.626 2.173-1.224 3.234-1.824l4.613-2.605a5748 5748 0 0 0 18.266-10.34c.748-.427 1.411-1.027 2.048-1.616 4.083-3.783 4.132-8.029-.144-11.578-1.911-1.585-4.053-2.897-6.188-4.204q-.728-.445-1.452-.894c-2.827-1.759-5.688-3.461-8.55-5.164q-1.187-.705-2.372-1.413c-.209-.124-.442-.205-.798-.328-.206-.072-.454-.158-.762-.276 1.141 1.427.585 1.953-.434 2.535-4.789 2.745-9.563 5.522-14.337 8.298l-.004.002-.001.001q-3.726 2.168-7.454 4.329c-2.188 1.266-4.379 2.525-6.57 3.785-3.403 1.955-6.805 3.91-10.192 5.889-.819.478-1.43.53-2.249.019-1.863-1.164-3.779-2.253-5.706-3.316-1.902-1.053-3.014-2.796-4.117-4.524q-.312-.493-.632-.978c-.238-.361.063-1.136.313-1.779l.058-.15.062-.165c1.367-3.702 4.49-5.427 7.609-7.15.498-.276.996-.551 1.487-.834l16.206-9.347 10.289-5.933c.352-.204.701-.418 1.049-.632v-.001c.789-.485 1.578-.97 2.419-1.338.559-.244 1.47-.263 1.982.034a6515 6515 0 0 1 25.282 14.8l.011.006 6.666 3.915c.62.364 1.236.736 1.852 1.108 1.492.902 2.983 1.803 4.536 2.582 1.941.971 2.445 2.631 2.723 4.506.978 6.565-1.797 11.574-6.891 15.279-2.631 1.91-5.494 3.506-8.352 5.1l-.003.002q-1.152.64-2.297 1.289c-2.715 1.545-5.447 3.06-8.179 4.576h-.001l-.003.002a947 947 0 0 0-7.634 4.266c-.815.463-1.404.556-2.238.03-1.436-.907-2.909-1.758-4.522-2.69m-14.892 77.895c-.323-3.464-1.712-6.503-4.461-8.878-2.097-1.811-4.346-2.115-6.784-.752q-1.303.731-2.604 1.467t-2.605 1.468l-5.256 2.948c-4.546 2.551-9.093 5.103-13.647 7.641q-8.715 4.852-17.432 9.699l-.086.047c-7.144 3.973-14.287 7.945-21.426 11.924-2.579 1.438-3.48 3.361-2.975 6.299a12.94 12.94 0 0 0 3.486 6.899c2.416 2.508 4.817 3.005 7.288 1.623l8.828-4.942.023-.013.025-.014c6.465-3.62 12.929-7.24 19.401-10.844 5.476-3.05 10.957-6.092 16.438-9.134 6.368-3.534 12.735-7.068 19.097-10.614 1.804-1.008 2.604-2.679 2.693-4.824zm-34.805 57.287c.292 3.068 1.911 6.339 5.124 8.673 1.837 1.334 3.82 1.553 5.902.267 1.295-.801 2.641-1.522 3.985-2.242.732-.392 1.464-.784 2.187-1.189q5.347-2.992 10.693-5.986l.025-.014.021-.012c5.977-3.348 11.955-6.697 17.938-10.034 4.28-2.386 8.566-4.763 12.851-7.139l.01-.006a5643 5643 0 0 0 15.968-8.879c1.979-1.105 2.831-2.965 2.623-5.176-.263-2.772-1.263-5.328-3.216-7.34-3.008-3.097-4.838-3.538-8.121-1.83-1.219.632-2.412 1.311-3.605 1.99l-.94.534-.412.232-5.875 3.305-.018.01a3745 3745 0 0 1-14.744 8.271 18132 18132 0 0 1-21.07 11.713l-.057.031q-8.11 4.502-16.216 9.011c-1.923 1.071-3.146 2.616-3.053 5.806zm-7.766-83.13c-.271-3.246-1.39-6.013-3.598-8.136-3.001-2.886-4.783-3.246-8.325-1.115a96 96 0 0 1-3.183 1.848q-3.881 2.142-7.767 4.278l-.016.009-.018.009a3392 3392 0 0 0-11.839 6.531c-4.985 2.768-9.962 5.551-14.939 8.334l-.009.006a7467 7467 0 0 1-9.198 5.138q-2.562 1.428-5.126 2.851h-.002c-3.485 1.934-6.97 3.868-10.437 5.834-2.486 1.408-3.32 3.346-2.812 6.217.449 2.534 1.512 4.794 3.305 6.654 2.183 2.264 4.498 3.791 8.589 1.301 3.006-1.828 6.092-3.529 9.178-5.229v-.001c1.086-.598 2.17-1.195 3.252-1.799q7.236-4.033 14.477-8.056 5.776-3.209 11.547-6.423 4.364-2.433 8.723-4.871c5.087-2.843 10.174-5.686 15.271-8.508 2.019-1.119 2.856-2.827 2.923-4.868zm312.275 4.205c-.085 2.064.737 3.561 2.501 4.628 3.96 2.399 7.912 4.812 11.864 7.225l.027.016.02.012c3.375 2.061 6.75 4.122 10.13 6.174q8.35 5.066 16.704 10.123l.044.027c7.688 4.656 15.377 9.312 23.059 13.984 2.164 1.316 4.231 1.416 6.332-.033 2.749-1.897 4.431-4.527 5.135-7.754.693-3.183-.093-4.969-2.805-6.632a895 895 0 0 0-6.306-3.818l-.005-.003q-1.58-.95-3.159-1.904l-15.824-9.574-15.739-9.521-1.669-1.01c-6.495-3.928-12.993-7.859-19.494-11.777-1.375-.829-2.842-.915-4.279-.192-4.131 2.075-6.088 5.58-6.536 10.033zm32.471 56.98c.026-2.608-.863-4.153-2.579-5.191q-8.752-5.303-17.507-10.596-7.466-4.514-14.927-9.033-14.909-9.031-29.807-18.073c-1.778-1.078-4.031-.963-5.798.159-2.512 1.597-4.22 3.894-4.954 6.636-.974 3.646-.882 5.909 2.661 7.884a99 99 0 0 1 3.328 1.975l.001.001.879.536 5.058 3.057c6.064 3.667 12.128 7.332 18.188 11.011q5.06 3.072 10.117 6.151l.01.006c7.99 4.862 15.981 9.724 24.004 14.532 1.015.608 2.512 1.004 3.623.76 4.724-1.049 7.544-6.595 7.703-9.808zm-51.222 33.534h.001c.708-.22 1.413-.438 2.018-.819 3.335-2.104 5.087-5.276 5.595-9.11.266-2.019-.497-3.757-2.268-4.876-1.791-1.131-3.607-2.22-5.423-3.31q-1.097-.657-2.191-1.318l-7.734-4.667-.018-.01c-5.696-3.436-11.393-6.872-17.079-10.321a8364 8364 0 0 1-12.778-7.771l-.018-.011a6676 6676 0 0 0-17.129-10.406c-1.419-.859-2.898-1.363-4.665-.585-3.427 1.512-5.38 4.261-6.35 7.64-1.042 3.62-.152 5.776 2.434 7.336q4.31 2.6 8.624 5.195l.025.015v.001c4.521 2.721 9.042 5.442 13.555 8.175q6.98 4.227 13.957 8.457l.029.018.03.018c8.633 5.233 17.267 10.467 25.909 15.686.484.291 1.036.471 1.63.664.29.094.59.191.897.307v.003c.311-.113.63-.212.949-.311M149.696 289.636c.211.15.399.29.575.42.335.25.622.463.929.643q3.367 1.97 6.737 3.938l.008.005.005.003a2756 2756 0 0 1 16.039 9.414c1.171.693 2.079.723 3.265.052 3.212-1.817 6.437-3.609 9.661-5.402l.002-.001c4.291-2.386 8.581-4.771 12.841-7.212 2.964-1.697 5.884-3.539 8.555-5.654 1.904-1.508 2.79-3.831 1.552-6.221-.707-1.363-1.737-2.782-2.993-3.601-4.972-3.238-10.071-6.291-15.195-9.289-.626-.367-1.845-.233-2.545.134-2.019 1.066-3.99 2.224-5.962 3.383l-.001.001c-.856.503-1.713 1.007-2.573 1.503q-5.857 3.382-11.716 6.761l-.061.035q-5.826 3.36-11.65 6.723c-1.591.919-3.175 1.848-4.816 2.809l-.006.004zm-45.245-38.126-.005-.003-.002-.001c-1.532-.91-2.962-1.759-4.385-2.622q-6.638-4.031-13.274-8.067c-10.543-6.41-21.086-12.82-31.646-19.198-1.837-1.108-3.794-.949-5.646.263-2.523 1.652-4.053 4.023-5.039 6.787-1.034 2.901-.185 5.94 1.979 7.277 1.044.644 2.093 1.277 3.143 1.911l1.455.879 8.233 4.985c9.912 6.001 19.823 12.001 29.72 18.031 1.124.685 2.046.644 3.124 0 1.645-.99 3.307-1.949 4.968-2.908l.001-.001a550 550 0 0 0 2.59-1.5c2.312-1.35 4.621-2.703 7.289-4.266l.006-.004.055-.032-.003-.007c-.893-.533-1.743-1.037-2.563-1.524m345.078 4.014c.093.153.156.275.206.371.077.148.121.233.191.273l1.287.761.002.001c4.634 2.74 9.265 5.478 13.931 8.164.374.215 1.097.103 1.53-.112 2.012-1.011 3.99-2.089 5.958-3.186l4.735-2.642h.001c9.902-5.524 19.806-11.049 29.661-16.654 1.008-.574 1.931-1.756 2.331-2.86 1.211-3.327-.882-8.184-4.435-11.045-1.934-1.556-3.991-1.8-6.132-.622a1855 1855 0 0 0-11.269 6.281l-.007.004q-2.947 1.653-5.897 3.3-6.438 3.593-12.879 7.182t-12.878 7.182c-1.43.799-2.852 1.61-4.305 2.439l-2.035 1.159zm-38.534-22.252v.001h.001c.183.153.304.254.438.335.752.451 1.513.889 2.274 1.326 1.639.942 3.278 1.883 4.821 2.961 2.608 1.827 5.057 2.471 7.647.104.138-.126.317-.203.498-.281.107-.046.215-.093.314-.149l8.068-4.51.159-.088q14.581-8.153 29.168-16.295c1.433-.8 2.449-1.93 2.641-3.568.452-3.801-1.063-6.928-3.664-9.551-2.623-2.649-5.054-2.909-8.114-.941-1.098.707-2.257 1.318-3.417 1.93-.609.321-1.218.643-1.818.978l-3.658 2.046c-7.006 3.918-14.012 7.835-20.996 11.796-.489.278-1.011.993-1.026 1.519-.092 3.353-2.071 5.328-4.739 6.869-1.988 1.147-3.972 2.303-6.032 3.502l-.016.009-2.925 1.702h.004c.151.121.271.221.372.305m-269.914-2.767-.002-.001c-1.671-.995-3.242-1.931-4.848-2.802-4.16-2.252-7.765-4.801-6.924-10.403.063-.43-.471-1.149-.915-1.423-6.521-3.971-13.056-7.918-19.591-11.866q-5.053-3.052-10.102-6.107c-1.6-.971-3.215-1.023-4.83-.171-3.413 1.797-5.329 4.758-6.066 8.433-.648 3.242.278 4.939 3.134 6.625a661 661 0 0 1 6.98 4.179q4.016 2.433 8.03 4.869l.004.002h.001a9845 9845 0 0 0 25.982 15.722c.444.266 1.267.37 1.682.14 2.435-1.355 4.837-2.769 7.405-4.28q1.221-.72 2.502-1.47h.004c-.847-.495-1.658-.978-2.446-1.447m78.984 46.226c.068.331.133.604.19.841.103.434.177.744.184 1.056.012.533.04 1.07.068 1.607.074 1.409.148 2.823-.082 4.18-.901 5.284-4.08 9.226-8.503 11.886-5.513 3.314-11.127 6.459-16.741 9.605a1406 1406 0 0 0-7.668 4.319c-.228.13-.426.311-.624.493a6 6 0 0 1-.288.255c.094.103.182.217.27.33.186.24.372.48.616.626 1.117.666 2.243 1.318 3.369 1.969l.001.001c1.93 1.117 3.861 2.234 5.744 3.424 1.464.927 2.616.801 4.065-.037 4.016-2.318 8.066-4.578 12.116-6.839l.002-.001.016-.009q2.627-1.464 5.25-2.936 2.537-1.423 5.076-2.843h.001c5.628-3.15 11.255-6.3 16.849-9.513 1.166-.67 2.235-1.508 3.389-2.411v-.001c.555-.434 1.129-.884 1.743-1.337-8.076-4.728-15.785-9.243-23.872-13.98l-.064-.037-1.099-.644zm229.202 77c-.072.219-.149.452-.218.708a83 83 0 0 1-1.07-.626c-.666-.394-1.271-.752-1.896-1.069-.515-.263-1.056-.477-1.597-.691q-.39-.153-.777-.313a4 4 0 0 0-.315-.116l-.001-.001c-.243-.082-.485-.165-.655-.324-1.627-1.516-2.727-1.731-4.691-.856-4.505 2.008-8.232 8.532-7.584 13.423.196 1.464.737 2.812 2.579 2.92.148.007.318.044.43.133 1.305 1.034 2.604 2.074 3.966 3.164l1.398 1.119a8 8 0 0 0-.299.279l-.06.058c-.279.27-.574.556-.919.76-3.938 2.312-7.829 2.327-11.719-.208-1.821-1.186-3.691-2.301-5.559-3.415h-.001l-.328-.196q-.858-.512-1.715-1.027c-2.938-1.775-4.883-6.61-4.364-10.186.856-5.872 3.301-10.966 7.277-15.29 2.608-2.835 5.805-5.028 9.673-5.55 1.638-.219 3.587.433 5.128 1.215 2.119 1.072 4.146 2.328 6.173 3.585.851.527 1.702 1.055 2.56 1.569 3.698 2.215 4.898 5.683 4.854 9.748-.003.376-.127.752-.27 1.187m-257.308 47.901a9 9 0 0 1 .468-.189c.232-.089.387-.148.499-.252.864-.803 1.96-1.164 3.057-1.524 1.245-.41 2.491-.819 3.393-1.878.078-.09.227-.119.375-.148.07-.014.141-.028.203-.048 1.619-.496 2.968.304 4.124 1.152 3.801 2.786 5.824 6.636 6.258 11.319.237 2.56-.704 3.924-3.146 4.709-.206.068-.381.232-.558.397v.001c-.092.086-.185.173-.283.247q-.256.193-.509.39l-.005.003-.001.001c-.472.364-.943.727-1.441 1.051a59 59 0 0 1-2.048 1.25h-.001c-.378.224-.787.467-1.241.74q.449.252.859.486l.418.239c.875.5 1.641.937 2.424 1.342 3.038 1.567 6.01 1.215 8.918-.397l1.635-.908.002-.001a290 290 0 0 1 5.762-3.151c2.142-1.127 4.072-2.627 4.98-4.806 1.426-3.427 1.104-7.124.063-10.57-1.756-5.791-4.935-10.711-9.863-14.439-2.983-2.256-7.71-2.986-10.878-1.274a322 322 0 0 0-9.233 5.213c-3.468 2.026-4.472 5.38-4.646 9.099-.017.38.093.765.219 1.205.065.227.134.468.192.729zm70.397-100.131-.01-.006h-.001c-2.491-1.48-4.842-2.877-7.238-4.194-.4-.218-1.326.145-1.811.508-1.057.785-2.082 1.622-3.106 2.459-1.872 1.53-3.744 3.059-5.809 4.262-6.979 4.066-14.041 7.99-21.104 11.914v.001a2835 2835 0 0 0-9.018 5.024c-1.124.63-2.235 1.283-3.446 1.994h-.001l-.006.004c-.574.337-1.172.688-1.804 1.055l10.269 6.014.082.048c5.328 3.12 10.604 6.21 15.959 9.348 0-.199.006-.364.011-.508.01-.255.017-.439-.019-.615-1.456-7.44.723-13.872 5.421-19.603 3.949-4.821 9.158-7.951 14.534-10.875 2.1-1.143 4.183-2.32 6.378-3.561h.001a1009 1009 0 0 1 3.192-1.8v-.004c-.844-.497-1.666-.985-2.474-1.465m13.843 5.435-.013-.043-.09-.303c-3.345-.1-6.468-.967-9.425-2.512-.374-.193-1.089.007-1.527.245a864 864 0 0 0-9.093 5.003l-1.807 1.002c-5.509 3.057-10.648 6.555-14.216 11.927-3.561 5.361-4.857 11.152-3.149 17.443.204.749.848 1.575 1.519 1.975a3387 3387 0 0 0 26.739 15.709c.314.183.623.38.935.578h.001c1.362.865 2.76 1.754 4.71 1.612-.163-.135-.306-.261-.439-.377v-.001c-.262-.23-.482-.423-.728-.571q-2.743-1.635-5.492-3.259l-.007-.004c-1.998-1.183-3.997-2.366-5.99-3.557-4.446-2.657-8.803-5.41-11.745-9.878-2.282-3.464-3.031-7.221-1.863-11.16 1.174-3.96 3.69-7.191 7.113-9.385 4.172-2.671 8.466-5.152 12.76-7.633 1.506-.87 3.012-1.74 4.513-2.618a302 302 0 0 1 4.83-2.744h.001q1.24-.692 2.475-1.391l.004-.004zm-76.322 12.229c.694.409 1.359.795 2.002 1.168h.001c1.474.854 2.83 1.64 4.143 2.489 1.141.737 2.123.719 3.253.037 1.678-1.012 3.389-1.969 5.097-2.924l.635-.355c2.869-1.612 5.742-3.216 8.616-4.82l.002-.001c7.181-4.009 14.363-8.018 21.478-12.141 1.817-1.052 3.44-2.447 5.059-3.839h.001a92 92 0 0 1 1.928-1.626c.615-.496.981-1.126-.008-1.697-.48-.279-.956-.568-1.432-.857-1.058-.642-2.116-1.285-3.225-1.821-.585-.282-1.697-.356-2.097 0-3.023 2.687-6.519 4.608-10.015 6.529q-.947.518-1.889 1.044l-10.519 5.874q-7.756 4.33-15.509 8.664c-1.701.95-3.392 1.917-5.207 2.954l-.003.002c-.747.427-1.514.866-2.311 1.32m220.712-120.084c-.016.289-.041.569-.066.841-.05.561-.099 1.092-.056 1.615.304 3.702-1.49 6.08-4.587 7.833-5.295 2.993-10.559 6.047-15.823 9.101l-3.754 2.177q-7.164 4.15-14.323 8.309c-5.637 3.272-11.273 6.545-16.915 9.809-5.827 3.372-11.663 6.731-17.498 10.09l-.022.012q-3.891 2.239-7.781 4.481l-8.839 5.089-.051.03q-7.209 4.146-14.411 8.304c-2.681 1.548-5.357 3.105-8.033 4.661-5.029 2.926-10.059 5.851-15.12 8.722-.818.464-1.624.953-2.431 1.443h-.001c-2.779 1.688-5.563 3.379-8.853 4.036-5.01 1.001-9.952.749-14.383-1.8-10.203-5.87-20.348-11.84-30.494-17.811a9029 9029 0 0 0-12.74-7.487 34798 34798 0 0 0-37.929-22.201 45141 45141 0 0 0-48.317-28.188c-3.242-1.889-5.161-4.475-4.713-8.421.052-.446.04-.898.026-1.419-.007-.264-.015-.545-.015-.852-1.708 1.018-2.445 2.178-2.519 3.816-.108 2.378 1.007 4.046 2.949 5.19a13839 13839 0 0 0 33.093 19.452c5.1 2.988 10.207 5.965 15.314 8.941 5.108 2.978 10.215 5.955 15.316 8.943 5.8 3.399 11.595 6.808 17.389 10.217a13897 13897 0 0 0 16.63 9.772c4.223 2.475 8.451 4.941 12.679 7.407l.008.004.005.003c7.217 4.209 14.436 8.419 21.624 12.674 6.595 3.906 13.376 4.424 20.304 1.249 2.135-.976 4.156-2.198 6.178-3.42.834-.505 1.668-1.009 2.51-1.497q5.896-3.408 11.79-6.821l.031-.018.004-.002q6.577-3.808 13.158-7.612 5.788-3.34 11.582-6.671l.026-.015a8229 8229 0 0 0 11.549-6.652c4.408-2.545 8.813-5.098 13.218-7.65l.024-.014.01-.006q5.86-3.397 11.723-6.787 6.185-3.572 12.374-7.133 5.392-3.103 10.779-6.213l4.934-2.845.009-.005c6.198-3.574 12.396-7.148 18.569-10.766 2.372-1.389 4.772-2.808 6.895-4.535 2.279-1.848 1.883-6.024-1.033-7.384zM206.368 404.948c-1.41-2.488-3.253-4.539-5.91-5.832 3.43-.019 5.192 2.395 6.658 4.913 1.597 2.738 2.779 5.691 1.064 8.921.125-2.845-.408-5.528-1.812-8.002m138.961 7.639c-.152-6.306 2.716-10.789 8.173-13.808-3.653.181-5.691 2.619-7.188 5.32-1.422 2.568-2.904 5.406-.985 8.488m95.43-60.988c-1.808-.901-5.02 1.289-7.262 4.916-2.037 3.298-2.456 7.188-.889 8.392-.055-6.087 2.509-10.563 8.148-13.305zm-51.87 37.15c-.048-6.276 2.745-10.752 8.27-13.653-3.639 0-5.614 2.486-7.159 5.128-1.504 2.579-2.904 5.424-1.111 8.525m-230.875-15.616c5.25 3.101 7.706 7.691 7.684 13.749 1.448-3.042.526-5.799-.949-8.4-1.504-2.655-3.259-5.133-6.735-5.349m-35.069-12.079c1.975-1.945.597-7.347-2.397-11.008-1.952-2.386-3.857-3.33-5.165-2.593 5.58 3.46 6.91 5.832 7.562 13.601m301.397-173.729a1841 1841 0 0 1-3.379 3.69c1.89-.659 2.95-1.634 3.379-3.69m-138.936-77.338.031.017c7.099 4.109 14.187 8.211 21.267 12.327 5.152 2.996 10.297 6.002 15.442 9.007l.016.009c5.14 3.003 10.28 6.006 15.427 8.998a10654 10654 0 0 0 16.701 9.683l.021.013q7.236 4.186 14.467 8.385c4.065 2.362 8.112 4.754 12.159 7.146l.003.001.005.004c1.164.685 1.171 1.204.093 1.83l-7.086 4.107q-5.621 3.256-11.239 6.515a49842 49842 0 0 0-30.022 17.44q-4.568 2.66-9.134 5.327c-4.075 2.38-8.15 4.76-12.233 7.129a5750 5750 0 0 1-12.98 7.497q-5.152 2.969-10.299 5.945a630 630 0 0 0-3.371 1.97 358 358 0 0 1-6.317 3.651c-.46.255-1.297.311-1.734.062-4.903-2.775-9.775-5.603-14.648-8.431l-2.396-1.391c-6.695-3.886-13.382-7.776-20.07-11.67l-7.559-4.406-.012-.007a6679 6679 0 0 0-12.191-7.099q-6.855-3.978-13.717-7.947l-.017-.01-.002-.001q-5.564-3.22-11.125-6.443a6458 6458 0 0 1-21.889-12.742c-.397-.233-.945-.689-.93-1.019.018-.367.537-.815.941-1.048 5.383-3.136 10.775-6.26 16.166-9.383a14460 14460 0 0 0 30.387-17.649c4.192-2.444 8.379-4.895 12.567-7.345 5.653-3.307 11.305-6.614 16.966-9.906a6396 6396 0 0 1 19.676-11.382l.003-.002 7.624-4.399.003.003zm-45.741 25.549 4.32 2.39q1.415.784 2.83 1.565l.001.001c3.089 1.707 6.178 3.414 9.244 5.162.286.163.467.512.647.862h.001a5 5 0 0 0 .259.465c-.16-.021-.329-.028-.497-.035h-.001c-.363-.016-.727-.031-1.013-.188a1588 1588 0 0 1-13.55-7.576c-1.022-.575-1.908-.393-2.886.181a1618 1618 0 0 1-10.103 5.876l-.006.004q-2.654 1.535-5.307 3.075c-1.16.675-2.31 1.363-3.544 2.101l-1.944 1.16c1.166.652 2.304 1.296 3.425 1.928l.003.003c2.966 1.675 5.805 3.279 8.684 4.801 1.03.544 2.308.841 3.479.863 4.124.077 8.248.073 12.373.068h.001q1.84-.002 3.68-.001c.333 0 .668-.021 1.089-.048.192-.012.402-.025.638-.038-.15-.142-.269-.265-.37-.37-.177-.184-.304-.316-.457-.4l-1.367-.766-.004-.003c-1.912-1.073-3.825-2.147-5.787-3.125-.637-.319-1.552-.334-2.275-.174-3.219.704-6.346.826-9.147-1.242-2.649-1.956-2.568-5.112.203-6.85 2.764-1.734 5.736-2.016 8.874-1.001 3.109 1.005 4.883 3.235 3.953 6.047-.126.382.145 1.189.475 1.382a268 268 0 0 0 8.869 4.909c1.427.756 3.528-.496 3.542-2.078.023-2.831.034-5.662-.074-8.489-.018-.54-.463-1.293-.93-1.559-3.904-2.225-7.829-4.411-11.754-6.597l-.011-.006q-2.432-1.354-4.863-2.712c-.165-.091-.311-.22-.543-.423-.143-.125-.318-.279-.55-.47.357 0 .671-.025.945-.048.501-.04.869-.07 1.123.085 1.135.698 1.99.197 2.923-.35l.041-.024 4.631-2.704.027-.016.001-.001c7.733-4.517 15.465-9.033 23.243-13.47 1.453-.826 2.094-1.704 2.045-3.368-.02-.726.183-1.459.387-2.192.09-.325.18-.651.251-.976l.681.1v22.208h.582V110.42c1.447.831 1.393 1.908 1.342 2.933-.011.24-.023.478-.016.709l.004.117c.03.952.057 1.792 1.086 2.376 6.175 3.488 12.34 6.993 18.505 10.498l.004.002.002.001q5.368 3.053 10.74 6.102 5.894 3.341 11.792 6.676l.029.017.004.002c5.594 3.165 11.189 6.329 16.774 9.507 4.328 2.462 8.651 4.934 12.974 7.405l.005.003c6.744 3.855 13.487 7.71 20.248 11.532 3.249 1.837 6.58 1.011 9.552-1.96l-1.239-.74-.002-.002a204 204 0 0 0-2.72-1.611 95233 95233 0 0 0-40.676-23.615l-.026-.015-.019-.011q-8.479-4.916-16.952-9.841-5.216-3.036-10.427-6.081l-.016-.009a6384 6384 0 0 0-11.064-6.452 4512 4512 0 0 0-7.922-4.591l-.002-.001a2908 2908 0 0 1-10.683-6.201c-.756-.44-1.308-.47-2.101 0-2.003 1.191-4.028 2.343-6.053 3.495-1.492.849-2.985 1.698-4.469 2.563a9884 9884 0 0 0-14.163 8.267c-5.096 2.978-10.191 5.956-15.292 8.925-4.917 2.859-9.842 5.706-14.766 8.553l-.007.004a8416 8416 0 0 0-11.555 6.689 18713 18713 0 0 0-28.296 16.446 410 410 0 0 0-4.287 2.547l-.009.005c-.693.416-1.406.843-2.15 1.287.646.377 1.268.734 1.872 1.08l.001.001c1.439.826 2.769 1.589 4.058 2.416 1.016.649 1.853.567 2.827-.022a242 242 0 0 1 4.548-2.661v-.001a539 539 0 0 0 1.821-1.05l4.657-2.708.006-.003a4151 4151 0 0 1 16.867-9.775q.199-.113.399-.221c1.143-.622 2.202-1.198.957-3.077.23.05.411.082.558.107.245.042.396.068.521.138q2.26 1.272 4.515 2.552c3.129 1.774 6.258 3.548 9.415 5.269q.354.193.715.397c1.387.777 2.85 1.598 4.306 1.67 4.094.202 8.198.169 12.302.136a657 657 0 0 1 4.211-.024c.26 0 .522-.053.784-.105q.188-.039.376-.069l-.041-.438q-.232-.016-.464-.035a16 16 0 0 0-1.159-.065q-2.623-.017-5.248-.029h-.001c-3.498-.018-6.997-.035-10.493-.082-.786-.011-1.66-.174-2.342-.545-5.053-2.748-10.074-5.551-15.095-8.355l-1.04-.581c-.247-.137-.462-.33-.678-.524q-.148-.135-.301-.262l.189-.455c.188.036.386.056.584.076.437.044.875.088 1.198.302 1.29.852 2.361.47 3.542-.219 2.606-1.524 5.216-3.037 7.827-4.549 3.723-2.157 7.446-4.314 11.151-6.503.479-.284.85-.752 1.281-1.297v-.001c.222-.281.461-.582.738-.888zm127.931 33.416H347.49c1.82-3.998.784-6.207-3.417-7.547-.048-.019-.097-.048-.145-.056-3.249-.541-6.465-.819-9.229 1.519-1.504 1.271-1.767 2.62-.923 4.368.719 1.486.593 1.812-1.096 1.831-3.522.037-7.044.036-10.566.035q-3.048-.003-6.096.005c-1.041.004-1.385-.544-1.263-1.467.133-1.022-.297-1.515-1.212-2.012-2.671-1.44-5.304-2.952-7.955-4.475h-.001q-1.433-.825-2.877-1.649c.711-1.206 1.607-.976 2.577-.727l.031.008c3.005.775 5.928.649 8.544-1.219 2.279-1.623 2.327-4.068.344-5.998-2.767-2.697-9.573-2.634-12.245-.423-1.237 1.023-1.734 2.331-1.396 3.987.103.504-.138 1.364-.512 1.604-.481.308-1.408.423-1.886.156-3.557-1.976-7.097-3.983-10.638-5.989a1781 1781 0 0 0-8.624-4.867c-1.234-.689-1.804-1.548-1.634-2.96.089-.763.122-1.556.015-2.312-.348-2.475.448-4.168 2.86-5.209 1.067-.463 1.864-.471 2.894-.078 3.145 1.204 6.276 1.026 9.21-.615 1.52-.852 2.69-2.197 2.524-4.105-.175-2.005-1.571-3.25-3.287-3.935-3.342-1.334-6.643-1.119-9.729.845-1.364.867-2.097 2.104-2.353 3.76-.074.484-.482.917-.89 1.35a8 8 0 0 0-.525.595l-.456-.266V117.37l39.293 22.337.236.134.826.469 49.777 28.297-.035.173v.001zm-54.923-2.116c-.191-.141-.359-.275-.516-.4-.299-.237-.555-.44-.837-.6a8733 8733 0 0 0-33.682-19.074c-.467-.263-1.327-.292-1.775-.037-10.033 5.758-20.04 11.567-30.044 17.377-1.027.595-2.04 1.21-3.145 1.882h-.001c-.526.32-1.073.652-1.652 1l.357.219.005.003c.227.139.346.213.468.282l6.319 3.599c9.229 5.258 18.458 10.516 27.719 15.719.619.349 1.741.297 2.408-.026 1.284-.621 2.509-1.361 3.734-2.103q.792-.482 1.59-.949 4.147-2.405 8.293-4.806 6.677-3.867 13.349-7.74c1.668-.969 3.331-1.947 5.048-2.957l.027-.016 2.342-1.376zm-102.004 20.271 42.086 24.47 23.605 13.725.209-.141.231-.156-.726-9.923-.019-.26-.511-6.978c-.289.138-.596.234-.889.326-.901.283-1.667.524-1.382 1.808.519 2.315.078 3.649-1.867 5.02-3.149 2.219-8.351 2.06-11.286-.345-2.019-1.652-2.538-4.16-.911-5.935.915-1 2.297-1.96 3.583-2.145 1.741-.251 3.537-.152 5.325-.054.513.028 1.026.056 1.536.076 1.093.041 5.069-1.967 5.465-2.945.128-.319.1-.713.075-1.082l-.008-.115q-.035-.555-.067-1.112c-.072-1.273-.145-2.547-.341-3.801-.103-.671-.514-1.519-1.052-1.853-1.751-1.078-3.558-2.066-5.364-3.054v-.001h-.001q-.913-.498-1.822-1.002l-5.806-3.224-.045-.024-2.03-1.127c-2.176 1.295-4.348 2.591-6.56 3.91l-2.743 1.636c.153.272.316.524.473.766.335.516.638.984.749 1.494.103.477-.011 1.002-.124 1.527-.05.23-.1.46-.131.685l-.456-.078c-.048-2.953-2.979-4.16-5.862-4.457-3.942-.407-6.335 1.264-7.18 4.535-.982-2.067-.863-2.642.775-3.983 1.959-1.608 4.334-2.204 6.657-1.682 2.979.667 5.369-.063 7.67-1.808.407-.309.862-.553 1.318-.797.27-.144.54-.289.801-.448.686-.42 1.366-.85 2.086-1.305l1.197-.755a27 27 0 0 1-.394-.275c-.149-.105-.244-.173-.343-.232l-2.257-1.308a3994 3994 0 0 0-15.55-8.985c-.374-.215-.878-.27-1.323-.274-5.502-.022-11.007-.037-16.509-.019-1.805.008-3.338.719-4.698 1.997q.094.126.166.231c.09.131.163.237.26.314 2.76 2.249 2.186 6.01-1.082 7.521-.989.457-2.042.771-3.195 1.115-.55.163-1.122.334-1.722.53zm88.725-1.872a19 19 0 0 0-.118-.391l1.055-.615.976-.568a1587 1587 0 0 1 5.356-3.112l.767-.445c2.049-1.186 4.097-2.373 6.169-3.512 1.03-.567 1.241-1.423 1.119-2.46-.163-1.397.389-1.909 1.834-1.883 4.372.082 8.744.108 13.116.011 1.756-.04 3.153.732 4.553 1.506.416.23.833.46 1.26.669.204.104.311.841.167 1.149-1.186 2.53-.879 4.313 1.474 5.617 3.594 1.993 7.362 2.13 11.037.122 1.345-.737 2.086-2.001 1.92-3.598-.226-2.189-1.801-3.371-3.635-3.942-1.136-.354-2.356-.445-3.575-.536a39 39 0 0 1-1.571-.138 46 46 0 0 0-1.053-.104l-.388-.036-.234-.023.013-.232.013-.216h29.411c-.339.217-.643.416-.926.602-.537.352-.998.655-1.472.931q-9.475 5.53-18.954 11.055l-.039.023-7.368 4.295a1 1 0 0 1-.104.051c-.06.028-.12.055-.166.097-2.913 2.627-5.751 2.145-8.804.085-1.768-1.193-3.7-2.15-5.625-3.105q-.7-.346-1.396-.696c-.696-.352-1.53-.589-2.304-.593-5.556-.03-11.115-.021-16.672-.013l-4.162.005zm-95.23-13.522c-.126-.174-.197-.27-.286-.342-3.235-2.541-1.849-6.283 1.123-7.695 2.252-1.067 4.512-1.152 6.906-.83 3.323.445 6.724 3.427 4.764 7.347 1.686 1.571 2.716 1.99 4.954 1.993l13.272.011c4.075 0 4.108 0 4.086-4.138-.007-1.126.374-1.76 1.378-2.293 1.617-.86 3.192-1.79 4.768-2.721q.969-.573 1.942-1.14-.037-.166-.08-.331l-.016-.066-.258-.021-.221-.02c-.376-.035-.752-.07-1.129-.07q-2.131-.01-4.263-.011c-2.951-.005-5.902-.009-8.853-.059-.889-.015-1.871-.208-2.642-.626a555 555 0 0 1-6.355-3.53l-.002-.001h-.001a479 479 0 0 0-7.35-4.068c-.586-.315-1.667-.282-2.253.055-8.143 4.647-16.252 9.355-24.36 14.063l-.002.001-2.381 1.383a91 91 0 0 0-2.547 1.553q-.575.36-1.154.718l.033.296.034.297c.363.073.727.164 1.091.255.796.199 1.593.399 2.391.411 3.423.059 6.845.053 10.269.046q1.965-.006 3.929-.005h3.561l-.004-.003a17 17 0 0 1-.344-.459m109.379-3.591c-.26.094-.486.166-.686.23-.358.114-.633.202-.877.344a10919 10919 0 0 0-33.735 19.626c-.889.522-1.515.467-2.382-.03a9169 9169 0 0 0-31.241-17.806c-.864-.49-1.741-.957-2.727-1.482-.506-.269-1.04-.553-1.615-.864l.232 3.702.098 1.56h-1.571q-2.752-.003-5.503.005h-.008c-4.387.008-8.774.017-13.159-.054-1.897-.03-3.217.95-4.537 1.93-.623.463-1.247.926-1.932 1.283a2.36 2.36 0 0 0 1.512-.426c2.175-1.549 4.49-2.205 7.247-2.105 4.128.15 8.263.121 12.397.091 1.68-.012 3.359-.024 5.039-.024h1.645l-.181 1.066-.134.794 32.978 18.732q.445-3.204 1.186-3.293.516 5.869 1.037 11.737l.53-.037-.685-10.893c1.171.288 1.244 1.052 1.317 1.812.047.492.094.983.439 1.341q.113-.027.242-.049c.193-.034.399-.071.569-.169q6.52-3.763 13.016-7.559c.66-.385 1.178-.789 1.037-1.808-.151-1.081.793-1.467 1.838-1.115.626.211 1.53.289 2.064-.011a851 851 0 0 0 10.261-5.917q2.377-1.387 4.759-2.768c1.66-.959 2.086-2.256 1.223-3.931a9 9 0 0 0-.281-.494c-.072-.122-.155-.261-.253-.432q.38-.02.697-.042c.433-.029.799-.053 1.163-.05q2.34.014 4.68.035c3.12.026 6.239.051 9.359.053.705 0 1.411-.086 2.117-.172.317-.039.633-.078.95-.109l-.033-.556h-18.251l.02-.266.001-.001c.048-.636.087-1.138.146-1.882zm-49.194-44.409 9.595-5.566v14.255q-.252.122-.504.252c-.145-.178-.306-.349-.467-.52-.355-.377-.71-.754-.896-1.203-.73-1.76-2.057-2.738-3.791-3.283-2.323-.73-4.635-.682-6.976.026-2.586.778-4.309 2.642-4.246 4.794.059 2.012 1.912 3.976 4.449 4.435 3.09.56 6.129.56 8.841-1.452.993-.737 3.505.533 3.538 1.823.074 2.771.044 5.55-.03 8.325-.011.415-.403.978-.781 1.2a1334 1334 0 0 1-10.446 6.091l-.002.002-.019.011-3.157 1.829q-.056-.361-.111-.664c-.072-.402-.133-.744-.141-1.089-.044-2.467-.085-4.935-.066-7.402.007-1.045-.367-1.671-1.316-2.19a791 791 0 0 1-9.984-5.567l-3.009-1.695c-.13-.073-.251-.163-.442-.304v-.001c-.108-.08-.237-.176-.403-.295 6.836-3.964 13.578-7.875 20.346-11.802zm30.369 64.068c-.191.052-.36.088-.512.121-.28.06-.5.108-.685.216l-1.181.683c-4.394 2.54-8.79 5.08-13.135 7.701-.519.312-.915 1.212-.952 1.86-.056.939.021 1.883.098 2.828.036.442.072.884.094 1.326.138 2.638 3.435 4.527 5.917 3.616 3.45-1.26 6.866-1.193 9.9 1.219 2.405 1.915 2.383 4.735-.018 6.669-2.505 2.019-5.45 2.175-8.351 1.467-2.738-.671-5.05-2.041-5.147-5.457-.01-.372-.418-.732-.825-1.092a6 6 0 0 1-.527-.502l-.238.157-.236.155 1.089 15.661 13.179-7.674.269-.157.174-.101 13.173-7.67c-.15-.106-.272-.194-.376-.269l-.119-.087a5 5 0 0 0-.446-.304q-1.243-.679-2.481-1.364c-2.359-1.302-4.718-2.604-7.119-3.823-1.123-.566-1.419-1.322-1.415-2.441.006-2.828-.014-5.653-.033-8.479v-.003l-.015-2.318a28 28 0 0 0-.048-1.257v-.004q-.017-.32-.034-.681zm3.312 1.552c0 .94-.003 1.848-.006 2.733-.01 2.563-.019 4.925.058 7.286.015.518.604 1.2 1.108 1.485 1.144.643 2.31 1.247 3.477 1.852 1.787.926 3.574 1.853 5.278 2.913 1.778 1.108 3.168.945 4.761-.144.941-.644 1.923-1.223 2.964-1.838h.001a134 134 0 0 0 1.503-.897c-.517-.103-.997-.194-1.451-.28-.985-.188-1.845-.352-2.695-.557-3.212-.774-4.449-2.66-4.101-5.898.048-.445-.53-1.142-1.001-1.427-1.338-.812-2.727-1.537-4.117-2.261l-.736-.384c-1.01-.531-2.028-1.048-3.136-1.612-.603-.307-1.233-.627-1.903-.971zm31.955 3.244c.801.421 1.629.856 2.489 1.318l-8.457 4.905c-.074-2.138-.804-3.639-2.504-4.613-2.416-1.382-4.995-1.986-7.666-1.234-1.641.46-2.997.508-4.487-.411a81 81 0 0 0-2.12-1.25c-1.41-.812-2.834-1.633-4.204-2.637q.24-.016.48-.036c.316-.027.631-.053.946-.053q2.442-.009 4.884-.009c3.459-.002 6.917-.004 10.374-.065 1.852-.029 3.501.289 5.12 1.26 1.633.98 3.322 1.867 5.145 2.825m-126.837-9.861c.21-5.095 3.435-5.87 6.678-6.649.709-.17 1.42-.341 2.099-.557h-20.522l-.1.322 6.398 3.719.006.003.157.091zm168.961-12.267h-36.432c1.645.933 34.939 1.019 36.432 0m-161.377 13.267c.42-.147.829-.277 1.225-.404.89-.284 1.719-.548 2.48-.94.93-.478.941-1.249.037-1.938-1.715-1.312-5.839-1.238-7.425.133-.703.611-.8 1.323.015 1.742.802.41 1.664.707 2.539 1.009.374.129.75.259 1.126.398zm56.517 29.414c.826-.249 1.592-.48 2.292-.837 1.049-.529.782-1.319-.029-1.93-1.82-1.375-5.28-1.456-7.17-.182-.896.608-1.022 1.42-.044 1.916.828.424 1.724.715 2.616 1.004.393.127.785.255 1.171.393.4-.134.788-.251 1.163-.364m21.082-.311c.422-.116.819-.215 1.196-.309.795-.198 1.502-.374 2.168-.65 1.115-.463 1.219-1.423.366-2.179-1.515-1.345-5.724-1.434-7.317-.148-.719.582-1.056 1.301-.044 1.816.85.432 1.751.765 2.602 1.081h.001q.531.195 1.028.389m-78.962-42.73.739-.371.001-.001c.521-.262 1.025-.516 1.531-.761.232-.114.469-.217.705-.321h.001q.308-.134.613-.276c.072-.033.157-.068.245-.104h.001c.268-.11.561-.23.558-.333-.011-.367-.152-.837-.415-1.071-1.656-1.463-5.921-1.374-7.543.111-.656.6-.797 1.316.055 1.753.732.373 1.51.651 2.338.946.38.135.77.274 1.171.428m28.451-19.373q.476-.124.949-.238c.791-.192 1.571-.382 2.315-.663.404-.152.834-.681.911-1.1.052-.267-.459-.797-.826-.96-2.208-.978-4.472-1.07-6.699-.085-.403.178-.97.808-.9 1.075.122.452.63.956 1.093 1.13.71.27 1.457.441 2.223.617l.001.001q.46.103.925.219zm26.546-16.462c.373-.107.737-.201 1.094-.294.78-.203 1.522-.396 2.23-.684.945-.385.933-1.83.059-2.353-1.489-.885-5.383-.596-6.784.493-.841.656-.793 1.375.1 1.786.729.336 1.515.551 2.296.765.337.093.674.185 1.005.287m18.707-3.371c.238.221.457.463.669.697.443.49.859.95 1.373 1.133 1.871.667 3.768.289 5.487-.656 1.182-.648 1.137-1.304 0-2.019-1.771-1.115-5.573-.793-7.529.845m16.343 55.627.033.504q.352.018.703.04c.524.032 1.047.064 1.572.064q3.207-.001 6.412-.01h.01c4.28-.01 8.559-.02 12.837.01.923.007 1.923.27 2.749.689 1.82.914 3.612 1.884 5.404 2.854q1.492.81 2.992 1.607c.389.206.806.364 1.223.522q.274.102.544.211c-.204-.615-.53-.93-.915-1.137-.847-.45-1.702-.884-2.557-1.319-1.746-.887-3.492-1.774-5.161-2.786-1.767-1.071-3.564-1.36-5.561-1.316-2.865.064-5.731.062-8.599.059q-1.478-.002-2.957.001-2.908.006-5.817.001l-2.912-.001zm47.428-8.462c-1.148-1.89-5.798-2.234-7.873-1.112-.715.386-.771 1.071-.156 1.49 1.99 1.352 6.232 1.719 8.029-.378m-35.257 19.081c2.06 2.03 6.187 2.593 8.062 1.485 1.03-.607 1.093-1.341-.048-1.711a15.7 15.7 0 0 0-4.635-.734c-.686-.007-1.374.247-2.159.538-.38.14-.783.29-1.22.422m.73-42.727c-2.16-2.175-6.706-2.275-8.499-.263 1.622 2.168 6.769 2.368 8.499.263m-15.695 32.712-.396-.022q-.027.04-.062.08c-.045.053-.09.106-.09.161v1.592c-.001 3.889-.003 7.778.059 11.668.008.437.452 1.03.86 1.267 2.123 1.234 4.29 2.393 6.458 3.549 1.103.588 2.217 1.151 3.332 1.714q.787.398 1.573.798l.067-.128.076-.146q.062-.12.128-.241c-4.054-2.2-8.103-4.401-12.005-6.524v-13.764zm-82.434-8.466-.404-.303c1.744.184 3.121.97 3.362 2.737.229 1.701-.915 2.753-2.379 3.394-2.89 1.263-5.798 1.289-8.562-.296-2.36-1.356-2.308-4.057.022-5.462 1.404-.844 2.89-1.371 4.598-.696a46 46 0 0 1-.738.152c-.625.126-1.25.252-1.856.441-.618.192-1.252.466-1.774.848-1.697 1.241-1.679 2.786-.008 4.027 2.027 1.508 6.206 1.605 8.355.193 2.179-1.434 2.231-2.945.156-4.461-.259-.188-.516-.382-.772-.574m125.622-14.436c-.691.147-1.364.291-1.999.535-.281.109-.491.401-.701.694-.098.135-.195.27-.299.388.172.065.343.138.513.21.379.162.758.323 1.154.405.23.047.509.023.777 0 .377-.032.732-.062.894.111 1.342 1.422 2.698.825 4.062.224l.021-.009c.25-.111.452-.333.654-.554.094-.103.188-.207.287-.299-.096-.101-.187-.218-.279-.335-.2-.258-.401-.517-.658-.606-.815-.276-1.654-.483-2.499-.692q-.53-.129-1.062-.267l-.003.003c-.289.07-.577.131-.862.192m-96.533-13.978c1.197-1.241 1.064-2.493-.233-3.635-2.327-2.048-8.04-2.086-10.448-.07-1.623 1.36-1.642 3.12.081 4.387.804.589 1.775 1.074 2.738 1.289 2.131.471 4.28.519 6.217-.8-.378-.126-.733-.089-1.07.007-2.368.693-4.669.586-6.873-.578-1.994-1.052-2.101-2.819-.197-4.035 1.916-1.226 4.057-1.3 6.243-.944 2.535.411 3.653 1.715 3.539 4.379zm68.325 49.67c-2.033-1.211-2.23-3.2-.214-4.382-1.09 2.383-.648 3.538 1.618 4.326 2.242.782 4.576.956 6.788.026.837-.352 1.756-1.23 1.982-2.049.144-.519-.808-1.782-1.49-1.989-1.45-.442-2.976-.652-4.497-.86q-.569-.077-1.134-.159a3 3 0 0 0-.544-.011c-.285.011-.577.023-.868-.089 2.023-.89 4.072-.734 6.121-.093.128.041.247.106.365.171.108.059.217.118.331.159 1.397.507 2.568 1.315 2.498 2.938-.074 1.715-1.508 2.497-2.887 2.812-2.73.622-5.505.73-8.069-.8m-41.526-69.676c.039.108.089.249.167.435l-.594-.256a21 21 0 0 1-.911-.406c-2.901-1.412-5.768-1.26-8.473.419-1.793 1.115-1.682 2.801.141 3.853 2.397 1.385 4.898 1.248 7.41.359q.227-.082.454-.178c.445-.184.907-.375 1.509-.389-.103.101-.201.215-.299.328-.21.243-.421.486-.686.61-2.857 1.326-5.761 1.452-8.607.029-2.364-1.182-2.53-3.642-.437-5.179 2.549-1.875 7.695-1.842 10.178.077.06.047.09.134.148.298m-9.244 78.605c1.805-1.576 5.966-2.007 8.125-.548-.575-.001-1.119-.004-1.641-.008h-.002c-1.282-.009-2.432-.016-3.577.033-.47.02-.943.238-1.395.446l-.184.084c-1.037.471-2.075 1.267-1.767 2.39.259.952 1.122 2.016 2.008 2.468 2.29 1.17 4.739 1.207 7.151.148 1.571-.689 1.956-1.43 1.915-3.813.964.771 1.123 2.316.019 3.164a10.7 10.7 0 0 1-3.765 1.831c-2.267.589-4.494.129-6.469-1.164-1.974-1.293-2.134-3.538-.418-5.031m-45.665-39.555c1.249-1.371.893-3.194-.956-4.202-2.941-1.604-5.972-1.708-8.97-.118-1.763.934-2.445 2.979-1.552 4.405 1.356 2.16 6.106 3.235 8.347 1.875.026-.016.021-.081.014-.18-.004-.06-.01-.134-.01-.217-2.108.564-4.224.556-6.087-.559-.819-.489-1.727-1.508-1.797-2.356-.063-.741.83-2.009 1.578-2.283 1.579-.578 3.353-.956 5.024-.889 3.416.137 4.446 1.36 4.402 4.524zm67.117 40.451c-.537 1.386.126 2.338 1.011 3.128 2.461 2.193 7.603 2.237 10.215.148 1.619-1.297 1.779-3.457.026-4.554-1.467-.915-3.249-1.511-4.961-1.778-.884-.139-1.823.085-2.762.308-.418.099-.837.199-1.25.266l.064.307.065.308q.165-.038.328-.078c.249-.062.497-.123.747-.159l.121-.018c2.254-.336 4.549-.677 6.522.837.715.548 1.604 1.526 1.548 2.245-.059.808-.933 1.845-1.73 2.264-4.038 2.127-7.551.948-9.944-3.224m29.522-52.478c-2.162.889-4.483 1.041-6.707-.347q.168.01.338.012c.252.005.504.01.741.076 2.03.559 4.012.348 5.839-.604.678-.356 1.434-1.171 1.519-1.852.07-.571-.652-1.456-1.252-1.86-2.509-1.686-5.265-1.471-7.981-.608-1.449.459-2.208 1.564-1.634 3.52-1.315-1.378-1.126-2.653.237-3.576 2.734-1.848 7.621-1.656 10.182.36.655.515 1.374 1.841 1.137 2.404-.426 1.004-1.412 2.064-2.419 2.475m-28.674-23.634-.031.23-.032.229c2.838 1.368 5.665 1.171 8.448-.274 1.204-.626 1.989-1.548 1.882-3.071-.1-1.427-1.082-2.049-2.156-2.542-2.464-1.137-5.032-.997-7.51-.144-1.301.448-2.62 1.167-2.735 3.075.104-.088.197-.156.278-.216.141-.104.244-.179.3-.281 1.593-2.849 7.081-3.186 9.363-1.841.756.445 1.641 1.371 1.682 2.123.041.745-.737 1.83-1.456 2.264-2.219 1.326-4.661 1.415-7.129.622-.199-.064-.41-.096-.62-.128l-.28-.046zm-67.776 40.34c-1.523-.83-26.143-.767-27.161 0zm130.605 1.711c.501.318 1.001.635 1.445 1.02 1.004.878.915 2.097-.126 2.864-2.182 1.608-7.287 1.515-9.366-.174-1.312-1.064-1.345-1.912-.137-3.183.175-.182.34-.372.506-.561l.22-.25-.206-.177-.261-.22c-.184.237-.401.468-.618.7-.499.532-.998 1.064-1.093 1.66-.119.745.515 1.846 1.148 2.427 2.353 2.149 7.61 2.29 10.133.423 1.286-.953 1.675-2.231.923-3.32s-1.767-1.801-3.238-1.638h.007q.327.219.662.429m-9.969-8.213-.01-.022c-.541-1.223-1.082-2.444.299-3.401 2.038-1.416 6.999-1.742 9.303.3 1.356 1.2 1.386 2.556-.259 3.268-1.088.469-2.268.725-3.449.981a43 43 0 0 0-1.538.352c.836-.122 1.713-.057 2.598.008h.001l.406.029c1.663.119 3.534-1.115 3.812-2.489.293-1.453-.648-2.783-2.434-3.431l-.327-.12c-.373-.138-.748-.277-1.129-.38-2.779-.767-5.42-.478-7.74 1.289-1.3.989-1.078 2.742.467 3.616m-58.606 38.24-.339.024-.339.024q.683 9.597 1.371 19.196l.007-.001.392-.027.256-.021-1.348-19.199zm-1.919-60.792q.162 0 .326-.004v-9.063q-.164 0-.326-.007zm62.6 29.317.067-.174.046-.117.109-.283-2.56-1.299-2.556-1.298-.085.17-.051.103-.135.272 2.582 1.313q1.29.657 2.583 1.313m-60.648-39.217.356.533q2.372-1.428 4.75-2.856l-.171-.276-.102-.166-.068-.11-2.386 1.439zm1.678 71.315-.077.143-.028.051-.161.298q2.001 1.061 3.998 2.123l.131-.247q.065-.124.132-.246l-1.045-.59q-1.448-.816-2.894-1.637zm-8.917-74.202q-.084.14-.165.28l-.165.28 1.877 1.108.018.011 1.895 1.119.154-.261.154-.262-1.884-1.137-.019-.011zm-57.265 37.592-.312.544 1.71.995 1.71.995.3-.534-2.414-1.419-.994-.585zm58.939 37.824.119.209.011.02.133.235q.324-.164.655-.317c.92-.433 1.841-.867 2.424-1.788l-.23-.341-1.057.674-.498.317zm-23.476-12.166-.002-.005h.003zm0 0c-.041.186-.062.39-.083.589-.046.424-.088.828-.312 1.007-1.556 1.241-3.357 1.934-5.398 1.723-2.538-.263-4.032-1.412-4.246-3.22-1.001 1.241-.753 2.412.722 3.394 2.249 1.497 6.317 1.486 8.525-.022 1.429-.978 1.678-2.043.792-3.471"/>
</svg>
