<svg xmlns="http://www.w3.org/2000/svg" width="550" height="550" fill="none" viewBox="0 0 550 550">
    <path fill="#fff" d="M89.691 354.856c-5.499-4.421-10.692-9.128-10.34-16.728.154-13.438.247-26.877.34-40.316v-.007c.046-6.719.092-13.438.146-20.156-.76-9.391 2.962-13.594 9.461-19.292-7.816-4.839-15.704-9.6-23.59-14.36l-.002-.001c-6.34-3.827-12.679-7.653-18.978-11.518-9.345-4.758.824-21.32 9.216-16.594a35058 35058 0 0 0 50.846 30.864c1.078.667 2.046.769 3.156.125 2.869-1.776 5.804-3.411 8.734-5.043 4.505-2.511 9-5.015 13.23-8.019-8.68-4.959-17.222-10.174-25.764-15.388l-.002-.001c-5.273-3.219-10.546-6.438-15.85-9.596-6.874-3.648-3.079-12.757 2.013-16.196 2.319-1.569 4.698-1.916 7.193-.407 3.85 2.291 7.671 4.624 11.492 6.956l.001.001h.001c6.041 3.688 12.08 7.374 18.226 10.895.576-2.376.414-5.037.251-7.699-.281-4.612-.563-9.228 2.994-12.38 1.666-1.426 1.717-4.379.028-5.763-3.718-2.94-3.041-12.991-2.533-20.539.17-2.516.32-4.754.283-6.358.532-2.728 2.776-4.01 4.951-5.254l.46-.263a23116 23116 0 0 1 33.012-19.061 15707 15707 0 0 0 41.563-23.988c16.445-9.513 32.889-19.025 49.376-28.469 12.225-8.507 21.237-8.85 33.688-.486a120366 120366 0 0 1 108.032 63.26l12.67 7.425c.784.479 1.625.94 2.478 1.407 4.186 2.292 8.647 4.736 8.001 10.285-.245 4.457-.116 8.938.037 13.404q.112.473.23.955c.973 3.99 2.035 8.343-2.669 10.511-2.518 1.43-2.625 2.689-.463 4.656 3.073 2.859 2.719 8.033 2.374 13.079-.223 3.254-.442 6.456.264 8.949 8.166-4.398 16.236-8.937 24.311-13.479q3.26-1.834 6.526-3.666c7.031-4.693 14.321 5.504 12.923 12.289-.287 1.824-1.458 3.041-2.981 3.888-5.494 3.154-11.054 6.203-16.613 9.252-8.281 4.542-16.56 9.083-24.619 13.966 4.624 3.198 9.55 5.99 14.473 8.781 2.715 1.539 5.429 3.078 8.092 4.684.712.407 2.018.495 2.712.115 9.806-5.395 19.568-10.869 29.331-16.343l.006-.004c6.594-3.697 13.188-7.395 19.796-11.068 7.059-3.675 13.544 6.045 12.368 12.539-.264 1.87-1.463 3.133-3.046 4.018-7.211 4.039-14.427 8.07-21.642 12.101q-5.412 3.023-10.823 6.048a737 737 0 0 0-6.832 3.841c-1.38.791-1.303.878-.298 2.003l.039.043c3.698 3.962 7.457 8.341 6.855 14.141l-.156 16.944q-.151 16.908-.316 33.814a299 299 0 0 0-.002 4.23c.048 11.497.077 18.454-12.25 25.727l1.619.99.006.003c14.409 8.811 28.82 17.623 43.287 26.353 9.581 4.355-.023 21.583-8.684 16.899-11.742-7.044-23.45-14.144-35.156-21.244h-.001q-9.44-5.729-18.887-11.444c-1.599-1.207-7.814 2.719-13.003 5.996v.001c-2.771 1.75-5.249 3.315-6.576 3.816-.31.305-1.022.652-1.792 1.029-1.829.894-3.991 1.951-1.907 2.98l1.351.825.006.003c3.089 1.886 6.179 3.773 9.28 5.643 5.66 3.344 11.272 6.77 16.885 10.195l.003.002c5.058 3.087 10.115 6.174 15.207 9.201 6.985 3.99 3.023 12.586-1.935 16.187-2.42 1.699-4.966 1.856-7.452.347a7518 7518 0 0 0-20.531-12.442l-.018-.01c-10.55-6.379-21.1-12.757-31.602-19.213-1.116-.699-2.018-.643-3.124 0-2.892 1.819-5.846 3.464-8.794 5.105-4.435 2.47-8.855 4.931-13.026 7.962 8.216 4.589 16.264 9.538 24.314 14.489 6.185 3.804 12.371 7.609 18.636 11.251 7.007 4.036 2.994 12.326-1.722 16.048-2.222 1.666-4.995 2.101-7.702.458-8.327-5.074-16.676-10.111-25.024-15.148-8.757-5.284-17.514-10.567-26.244-15.892-.865-.532-1.476-.532-2.37-.019a3478 3478 0 0 0-20.039 11.579l-.002.001-.004.003c-11.934 6.93-23.869 13.861-35.938 20.531-16.974 7.837-38.094 6.429-54.04-3.365-8.912-5.39-17.919-10.624-26.927-15.859-7.47-4.341-14.939-8.682-22.355-13.112-1.351-.805-2.476-.837-3.846-.069a9851 9851 0 0 1-25.407 14.188l-.008.005q-5.41 3.013-10.818 6.03c-1.744.661-4.161 2.173-6.813 3.832-6.053 3.786-13.333 8.339-16.641 5.314-3.791-2.671-5.869-6.337-5.846-11.081-.089-4.21 5.882-7.111 11.071-9.632h.001c2.376-1.155 4.589-2.23 5.98-3.315 4.074-2.358 8.202-4.609 12.328-6.86 6.314-3.444 12.623-6.885 18.726-10.701-4.364-2.717-8.738-5.249-13.118-7.783l-.001-.001c-3.193-1.847-6.388-3.696-9.585-5.62-1.046-.621-1.819-.579-2.823-.014a8074 8074 0 0 0-18.597 10.399l-.001.001c-11.458 6.42-22.917 12.841-34.428 19.158-8.383 3.976-17.154-12.344-8.702-16.834 4.704-2.633 9.4-5.247 14.092-7.86l.02-.011c9.979-5.556 19.939-11.101 29.911-16.781-4.43-2.7-8.768-5.234-13.117-7.774l-.002-.001c-3.129-1.828-6.263-3.658-9.441-5.556-1.203-.717-2.254-.708-3.453-.037-7.473 4.184-14.952 8.354-22.432 12.525-9.657 5.385-19.314 10.769-28.955 16.182-8.42 4.786-17.677-11.729-9.369-16.483 6.642-3.746 13.307-7.448 19.973-11.151l.002-.001.012-.006c7.734-4.297 15.469-8.593 23.166-12.957zm77.785-135.648c-3.335-2.055-6.71-4.035-10.084-6.016-3.613-2.12-7.225-4.24-10.786-6.449-.919-.53-1.889-1.045-2.871-1.567h-.001c-5.665-3.009-11.726-6.227-10.649-13.699-5.613 4.884.965 8.512 5.559 11.046.683.377 1.322.729 1.87 1.058 6.812 4.357 13.797 8.317 20.805 12.291 2.016 1.143 4.034 2.287 6.051 3.442q5.698 3.364 11.392 6.731l.016.009c16.195 9.576 32.382 19.147 48.76 28.447 7.248 4.532 14.656 8.798 22.067 13.065 6.252 3.6 12.506 7.201 18.665 10.963 9.327 4.892 19.149.037 26.935-5.508 7.951-4.219 15.692-8.799 23.445-13.387 2.369-1.402 4.739-2.804 7.118-4.198 15.897-8.881 31.67-18.091 47.436-27.296 6.097-3.56 12.193-7.119 18.295-10.659 4.763-2.231 9.327-5.061 13.852-7.868a480 480 0 0 1 3.742-2.306c1.014-.752 2.619-1.587 4.383-2.505 5.85-3.044 13.441-6.994 6.957-11.834 1.557 7.99-6.256 11.639-12.287 14.455l-.039.019c-4.498 2.501-8.905 5.15-13.313 7.798l-.001.001-.002.001c-3.275 1.968-6.551 3.937-9.864 5.845-11.411 6.236-22.683 12.848-33.953 19.459h-.001c-10.847 6.363-21.691 12.724-32.653 18.746-4.133 2.323-8.205 4.753-12.277 7.183-5.641 3.366-11.28 6.731-17.078 9.809-9.192 6.175-20.315 3.194-28.61-2.967-15.644-8.957-31.179-18.085-46.715-27.214-15.35-9.019-30.701-18.039-46.159-26.895zm13.229 144.155.016.022c3.298 6.527 6.589 16.58-.919 21.529-1.215.665-2.358 1.352-3.456 2.011h-.001c-5.634 3.383-10.092 6.06-17.149 1.563l.046-.584c1.054-.595 2.029-1.225 3.002-1.853 1.244-.804 2.485-1.606 3.885-2.331 4.981-3.629-.333-13.099-4.434-15.849-1.245-.8-3.499-1.925-4.837-.916-.846 1.039-2.03 1.403-3.21 1.765-1.053.323-2.103.646-2.904 1.447-.12.12-.31.173-.575.248a7 7 0 0 0-.541.169c-2.15-7.785 5.107-11.511 11.112-14.595.757-.389 1.495-.767 2.191-1.143 3.772-2.235 7.758-.694 11.285 1.352-4.661-5.448-12.84-3.064-17.77.541-5.059 1.958-9.308 6.735-8.6 12.391l.013.364.007.197c.079 2.026.082 2.097-1.992 3.244l-.371.206a711 711 0 0 0-9.011 5.048c-1.217.699-2.282 1.064-3.68.222-4.05-2.445-8.022-4.766-12.013-7.099l-.003-.002c-3.361-1.965-6.736-3.937-10.183-5.998.673-.225 1.303-.652 1.909-1.064 1.154-.782 2.224-1.508 3.349-.677 5.221 3.875 9.725 4.088 15.053.718a77 77 0 0 1 2.009-1.104h.001c3.803-2.041 7.889-4.233 8.524-8.926-1.45 3.287-4.37 4.884-7.291 6.482l-.267.146c-5.388 3.578-12.164 6.494-17.265 1.134 2.004-1.079 3.782-2.361 5.517-3.773 2.977-1.208 3.768-2.763 3.203-6.008-.726-4.175-2.638-7.669-6.1-10.113l-.187-.094c-1.633-.825-3.956-1.999-5.405-.226-1.142.849-2.509 1.279-3.921 1.723-.859.271-1.735.547-2.587.925-2.692-9.46 9.726-14.067 17.056-16.787l.788-.293c-4.134-.632-7.642 1.391-11.104 3.387-.945.545-1.887 1.089-2.838 1.575-3.749 1.986-6.248 6.739-5.776 11.035.273 2.451.26 2.458-1.855 3.609l-.103.057c-1.401.763-2.795 1.541-4.189 2.318-2.23 1.244-4.462 2.488-6.72 3.676-5.329 1.449-11.961-8.725-11.72-13.632.024-9.486.124-18.972.224-28.458.106-10.036.212-20.071.229-30.108q.196-.043.398-.093c3.036 4.856 7.651 7.994 12.525 10.711 13.712 8.04 27.432 16.063 41.152 24.087l.008.004c12.913 7.552 25.826 15.103 38.731 22.668q10.09 5.9 20.18 11.806l.016.01a26712 26712 0 0 0 33.561 19.622c3.855 2.014 7.6 4.329 11.351 6.649 8.664 5.356 17.356 10.731 27.479 12.44 21.671 4.885 38.981-5.466 56.497-15.94l.001-.001c3.061-1.83 6.127-3.664 9.225-5.421a29591 29591 0 0 1 48.073-27.758c11.724-6.805 23.47-13.575 35.217-20.345l.013-.008c13.607-7.842 27.214-15.684 40.787-23.582 6.24-3.555 12.433-7.087 17.001-12.78.067 12.791-.089 25.609-.245 38.421-.082 6.743-.164 13.484-.213 20.22.685 5.248-8.096 15.399-13.145 14.46-1.471-.817-2.91-1.692-4.35-2.568h-.001l-.002-.001a156 156 0 0 0-3.581-2.134c-1.382-.732-1.229-2.027-1.073-3.351.078-.653.156-1.314.05-1.917-.023-4.753-2.726-7.73-6.591-9.965-1.152-.603-2.295-1.34-3.447-2.084-3.617-2.334-7.334-4.733-11.768-3.248-13.395 4.901-24.314 28.748-7.179 35.677 5.328 3.805 10.993 6.11 16.895 1.907.159-.097.311-.218.464-.341.549-.438 1.113-.889 2.049-.274-4.01 2.789-8.334 5.208-12.658 7.627-2.931 1.64-5.863 3.281-8.698 5.037-.958.56-1.759.583-2.699 0a357 357 0 0 0-3.717-2.258l-.002-.002c-1.873-1.128-3.747-2.256-5.589-3.433-.885-.914-.789-2.309-.698-3.64.041-.599.082-1.184.031-1.707-.101-4.221-2.439-7.04-5.864-9.132-6.425-4.851-15.071-8.73-21.487-1.62a87 87 0 0 0 1.32-.644c3.643-1.8 7.775-3.842 11.46-1.143.485.271.993.549 1.516.835 5.986 3.272 13.974 7.638 11.19 15.5-1.033-.451-2.09-1.153-3.164-1.866-2.765-1.838-5.646-3.752-8.547-1.652-3.948 2.676-6.484 6.36-6.887 11.248-.231 1.75.125 3.712 1.699 4.828 1.385.258 2.386 1.117 3.385 1.976.99.85 1.979 1.7 3.34 1.963.005.162.014.328.014.49-4.194 3.458-9.452 3.365-13.733.208a94 94 0 0 0-2.114-1.27c-4.401-2.593-8.937-5.266-9.037-11.06l-.518.12c.356 8.67 8.53 12.789 15.524 15.682 3.541 1.541 6.943.171 9.975-1.912 1.537-1.06 2.009-1.087 3.657.5a979 979 0 0 1-21.556 12.461c-2.381.626-5.531-1.547-8.422-3.542-1.531-1.057-2.99-2.063-4.223-2.577-1.399-1.144-1.352-3.053-1.305-4.986.037-1.508.075-3.031-.575-4.216-3.383-6.277-11.169-10.211-18.112-11.095-.046.134-.092.273-.139.407.065.052.13.117.195.182.144.144.288.289.435.295 2.229.073 4.005 1.176 5.78 2.278l.001.001c.488.303.975.606 1.472.887 5.573 2.847 11.706 7.068 9.308 14.33-1.24-.78-2.368-1.376-3.49-1.968v-.001c-1.135-.599-2.263-1.195-3.494-1.974-5.49-2.759-11.655 6.933-11.665 11.868-.226 1.712.269 3.735 1.884 4.739 1.525.477 2.775 1.468 4.007 2.445.776.616 1.545 1.226 2.372 1.698-6.262 6.741-15.481-.313-21.689-5.063-.634-.485-1.237-.946-1.802-1.366 2.5 4.684 6.976 7.012 11.391 9.29 4.641 2.981 7.951 1.342 10.708-.023 2.435-1.205 4.438-2.197 6.543.397-9.723 5.734-19.484 11.354-29.253 16.979l-.004.002-.006.004a7409 7409 0 0 0-12.608 7.27q-.983.578-1.97 1.162c-9.06 5.355-18.301 10.817-29.107 11.261-11.742 1.083-23.916-.713-34.122-6.897-7.243-4.349-14.554-8.57-21.862-12.789l-.001-.001c-10.097-5.829-20.191-11.657-30.099-17.819.458-.111.823-.37 1.167-.613.658-.465 1.238-.875 2.235-.091 6.797 6.244 14.29 1.592 20.864-2.489l.003-.002q.688-.428 1.36-.841c9.568-5.906 3.541-20.385-2.286-27.06-9.278-10.221-15.015-6.702-25.132-.495l-.039.023c-3.703 2.125-5.915 6.8-5.244 11.1.213 1.37.014 2.236-1.384 2.948-1.877.958-3.713 1.993-5.549 3.028l-.002.001c-1.51.852-3.02 1.704-4.554 2.512-.569.296-1.573.338-2.11.032-2.738-1.642-5.521-3.219-8.304-4.796l-.001-.001c-4.862-2.755-9.723-5.509-14.339-8.612 2.741-2.327 4.409-1.299 6.44-.046.95.585 1.979 1.22 3.234 1.583 3.958 1.366 7.511-.738 10.934-2.764 1.089-.644 2.164-1.281 3.235-1.795 9.853-4.569 7.988-16.788 2.677-24.256l-.007-.013zm216.856-105.297c-6.875-3.952-13.747-7.901-20.433-12.175 5.427-3.205 10.791-6.287 16.16-9.371l.006-.004.003-.001c4.286-2.463 8.576-4.927 12.903-7.457 1.037-.607 1.801-.57 2.819.032 6.722 3.971 13.47 7.9 20.218 11.83 11.902 6.931 23.804 13.862 35.567 21.02 7.558 4.013 11.641 14.483 5.781 21.666-7.601 7.466-17.144 12.545-26.672 17.615-5.506 2.93-11.007 5.857-16.125 9.241a37908 37908 0 0 0-76.137 43.954c-6.755 3.851-13.479 7.761-20.202 11.67l-.001.001-.003.002c-9.754 5.672-19.508 11.344-29.358 16.835-28.34 14.2-54.435-2.182-79.126-17.683-7.341-4.608-14.558-9.139-21.672-12.765-15.06-9.142-30.371-17.924-45.683-26.707h-.001c-23.378-13.409-46.756-26.818-69.237-41.51-11.544-11.724-2.009-21.949 9.517-27.827 16.367-9.582 32.817-19.029 49.272-28.453.588-.333 1.689-.356 2.263-.028 3.572 2.139 7.19 4.2 10.806 6.261 6.299 3.589 12.594 7.176 18.637 11.166-7.171 4.258-14.352 8.374-21.538 12.494-5.12 2.936-10.242 5.872-15.366 8.863-1.528.976-2.458 2.617-3.355 4.198-.217.384-.432.764-.654 1.13-1.253 2.114-1.194 2.21-.156 3.895h.001q.167.27.368.604c2.113 3.499 5.422 5.357 8.732 7.216h.001c.678.381 1.356.762 2.024 1.157a4910 4910 0 0 0 23.058 13.531l.001.001 3.195 1.867c17.147 9.972 34.257 20.004 51.367 30.036l.018.01c11.581 6.79 23.162 13.58 34.755 20.351 9.502 7.078 22.305 9.207 32.572 2.412 19.005-11.078 38.074-22.05 57.143-33.022 21.54-12.394 43.08-24.788 64.526-37.334.937-.589 1.634-1.541 2.339-2.502.496-.678.997-1.36 1.586-1.923 2.171-2.078 1.477-4.045.583-6.475-.92-2.498-2.855-3.571-4.801-4.65a50 50 0 0 1-1.082-.613c-4.831-2.933-9.726-5.746-14.619-8.558M277.014 74.918c-7.752.303-14.23 4.468-20.688 8.62-3.198 2.055-6.391 4.108-9.732 5.687a25222 25222 0 0 1-55.274 31.937l-.01.006-.007.004c-14.95 8.621-29.9 17.242-44.836 25.889-1.245 1.03-3.272 2.042-5.444 3.126-5.603 2.797-12.174 6.077-8.785 11.408 4.861 4.015 10.487 7.116 16.107 10.214 3.488 1.922 6.973 3.844 10.272 5.981a90587 90587 0 0 1 42.844 25.1l.01.005.043.026c20.174 11.823 40.348 23.647 60.535 35.449 14.169 10.267 23.301 5.106 36.502-3.244 36.409-20.959 72.777-41.982 109.144-63.015 1.435-1.099 3.461-2.132 5.576-3.21 4.15-2.117 8.644-4.409 9.69-7.714.481-2.814-.982-4.522-3.129-5.799a2799 2799 0 0 0-15.243-8.955l-.006-.004a5568 5568 0 0 1-5.835-3.414c-15.128-8.906-30.286-17.759-45.444-26.611l-.001-.001a17342 17342 0 0 1-39.348-23.026c-2.722-1.593-5.45-3.177-8.177-4.76l-.001-.001c-5.827-3.384-11.654-6.767-17.428-10.245-3.587-2.162-7.35-3.337-11.331-3.448zM131.049 199.98c.126 1.64-.049 3.544-.23 5.51-.46 5.008-.957 10.419 3.4 12.898q3.72 2.177 7.443 4.348l.005.004q4.44 2.589 8.878 5.188c14.007 8.226 28.026 16.433 42.045 24.641 15.248 8.928 30.497 17.855 45.733 26.807 4.291 1.89 8.749 4.842 13.323 7.871 11.517 7.626 23.763 15.735 35.912 8.588l28.143-16.263.008-.005.026-.015c23.567-13.621 47.133-27.242 70.715-40.834q6.469-3.73 12.944-7.455a9309 9309 0 0 0 19.419-11.194c2.666-1.542 4.236-3.689 4.041-7.027-.151-1.939-.115-3.855-.079-5.772.038-2.009.076-4.02-.101-6.063-22.374 13.317-44.942 26.279-67.514 39.244l-.003.002c-12.991 7.461-25.982 14.923-38.938 22.454-4.41 2.203-8.646 4.847-12.884 7.492-7.309 4.563-14.625 9.129-22.85 11.444-7.823 1.442-14.397-2.58-20.821-6.509v-.001c-1.619-.99-3.228-1.974-4.845-2.863-17.177-10.076-34.338-20.109-51.496-30.142l-.019-.01c-24.076-14.078-48.147-28.152-72.251-42.333zm.06-36.562c-.431 16.824-.259 16.915 7.583 21.063 2.446 1.294 5.637 2.982 9.788 5.696a94564 94564 0 0 1 52.469 30.714l.027.016c20.472 11.989 40.943 23.978 61.425 35.95 6.823 4.851 16.113 7.61 23.977 3.356 23.01-13.184 45.971-26.466 68.931-39.746l.01-.006 16.254-9.4q6.816-3.937 13.634-7.871l.007-.004c11.598-6.694 23.196-13.387 34.77-20.124 1.861-1.083 3.097-2.731 3.018-5.179-.104-2.009-.076-4-.049-5.99v-.001c.033-2.343.065-4.685-.117-7.053-18.51 11.198-37.287 21.947-56.066 32.698-13.024 7.455-26.048 14.911-38.984 22.518a5793 5793 0 0 0-10.777 6.246l-.002.001c-9.573 5.556-19.147 11.113-28.796 16.535-7.101 3.99-14.488 3.87-21.616-.106-45.324-26.388-90.218-52.693-135.486-79.313m3.93 20.677c.143 1.495.014 3.175-.117 4.885-.327 4.256-.668 8.698 3.139 10.94a23345 23345 0 0 0 25.545 14.985q9.236 5.411 18.469 10.829c11.987 6.99 23.955 14.013 35.923 21.034l.007.005c14.672 8.609 29.344 17.217 44.049 25.766.714.413 1.419.843 2.125 1.274 3 1.831 6.004 3.664 9.669 4.114 4.18.514 8.304.389 11.997-1.699 17.417-9.877 34.734-19.926 52.051-29.975l.004-.002.002-.002c9.047-5.249 18.093-10.499 27.154-15.724 8.363-4.83 16.73-9.648 25.098-14.467 8.369-4.821 16.739-9.641 25.104-14.472 4.4-2.243 4.024-7.49 3.693-12.124-.087-1.207-.17-2.373-.166-3.433-20.995 11.127-41.559 23.306-62.126 35.488l-.001.001c-24.507 14.515-49.019 29.034-74.275 41.778-10.179 2.26-18.772-3.355-27.216-8.872-3.525-2.303-7.023-4.589-10.6-6.278-19.132-11.122-38.15-22.274-57.176-33.431-17.412-10.21-34.831-20.424-52.352-30.625zm155.218 163.639c1.273.757 2.526 1.502 3.708 2.259-8.316 5.641-16.906 8.44-25.26 1.623-1.375-.873-2.954-1.792-4.629-2.767v-.001c-10.604-6.175-25.023-14.571-15.621-27.231 2.578-3.383 6.054-5.661 9.692-7.702a23028 23028 0 0 0 66.153-36.974 21649 21649 0 0 1 31.549-17.617c.885-.495 1.718-.944 2.833-.263 1.851 1.185 3.746 2.261 5.638 3.336h.001c2.568 1.458 5.132 2.914 7.576 4.639-15.99 9.113-32.046 18.034-48.107 26.957l-.008.005a8401 8401 0 0 0-28.985 16.154c-1.205.719-2.487 1.425-3.794 2.145-7.192 3.965-15.132 8.341-15.183 17.425-.353 9.222 7.355 13.803 14.437 18.012m103.33-68.227-.001-.001c-2.973-1.724-5.948-3.448-8.909-5.259-1.342-.805-2.398-.865-3.791-.069-14.52 8.245-29.115 16.356-43.711 24.468l-.003.002h-.001c-12.869 7.152-25.738 14.305-38.555 21.548-18.968 9.046-12.296 12.952-1.38 19.342l.001.001c1.931 1.13 3.994 2.338 6.072 3.666 1.232.764 2.162.343 3.245-.282 8.11-4.702 16.231-9.387 24.353-14.073l10.246-5.914c10.19-5.917 20.34-11.767 30.491-17.618l.007-.004a9674 9674 0 0 0 33.11-19.139v-.004c-3.702-2.333-7.437-4.498-11.174-6.664m-8.42-9.218.255.024c-1.491 1.854-.401 2.477.809 3.168l.214.123a1655 1655 0 0 1 8.053 4.689l.009.005.001.001c3.595 2.102 7.189 4.203 10.803 6.27 4.636.564 8.002-3.692 10.798-7.228v-.001c.443-.559.871-1.101 1.288-1.602.058-4.814-4.229-7.059-8.294-9.188-1.462-.765-2.895-1.516-4.088-2.365l-7.167-4.203c-7.161-4.2-14.323-8.401-21.507-12.563-.491-.282-1.403-.203-1.958.061-3.097 1.668-6.139 3.457-9.179 5.243l-.002.001a536 536 0 0 1-4.543 2.652c-1.727 1.023-1.718 2.037-.024 3.05.962.577 1.941 1.129 2.92 1.682h.001c2.017 1.138 4.035 2.277 5.902 3.623 3.328 2.657 6.105 1.962 9.266-.454.847-.62 1.574-.5 2.319.315-15.554 8.974-31.278 17.683-47.004 26.394l-.002.001-.002.001c-12.005 6.649-24.01 13.298-35.942 20.067-1.852 1.218-3.95 2.318-6.082 3.435-6.779 3.555-13.899 7.289-14.544 15.561-.818 8.944 6.675 13.312 13.507 17.293l.001.001c1.317.768 2.609 1.521 3.813 2.29 1.649.433 3.456-.778 5.274-1.997 1.034-.693 2.071-1.389 3.085-1.785-1.328-.891-3.047-1.864-4.898-2.912-8.748-4.952-20.436-11.569-7.645-18.995q12.906-7.219 25.81-14.442c22.81-12.767 45.62-25.534 68.462-38.242h.014zm-207.864 30.638c.946.389 1.989 1.105 3.043 1.828 1.865 1.28 3.766 2.584 5.233 2.153 3.09-2.231 7.183-4.231 11.451-6.317 11.19-5.467 23.578-11.52 22.204-23.858-.356-2.897-1.324-5.614-4.073-7.23q-4.027-2.36-8.053-4.724c-8.276-4.859-16.551-9.718-24.866-14.503-.752-.433-1.324-.79-1.778-1.073-.889-.555-1.324-.826-1.761-.829-.418-.003-.838.24-1.661.717-.474.274-1.08.625-1.896 1.051-5.761 3.396-11.564 6.729-17.368 10.062l-.001.001-.002.001c-3.75 2.154-7.5 4.307-11.239 6.478-12.345 6.268-12.567 11.91-.037 18.302 1.065.653 2.046.704 3.148.033 9.524-5.571 19.083-11.089 28.641-16.605l.037-.022q4.61-2.66 9.217-5.323l.073-.042c.923-.532 1.716-.989.936-2.522 3.228 1.553 6.193 3.39 9.175 5.238h.001c1.649 1.022 3.303 2.047 5.011 3.029q.536.326 1.076.647c2.456 1.466 4.914 2.933 6.626 5.352 3.443 4.004.111 8.919-3.514 11.317-6.253 3.694-12.449 7.169-18.697 10.673-3.616 2.028-7.25 4.066-10.921 6.161zm-47.699 135.379c.014 2.991 1.977 6.999 4.282 8.883 3.249 3.281 6.47 1.284 9.645-.683v-.001c.951-.589 1.897-1.175 2.839-1.617 9.541-5.371 19.108-10.695 28.675-16.02h.001c9.666-5.38 19.331-10.759 28.969-16.186 5.036-3.49 2.069-10.526-1.893-13.636-2.902-2.809-6.133-.829-9.001.93-.416.255-.825.506-1.224.736q-3.256 1.801-6.518 3.59c-2.718 1.493-5.435 2.985-8.145 4.492-11.358 6.301-22.69 12.649-34.021 18.996q-5.528 3.098-11.058 6.193c-1.778.991-2.338 2.606-2.555 4.328zm-42.49-25.883c.032 6.221 6.567 14.103 12.39 8.924 6.35-3.54 12.704-7.071 19.059-10.602 14.241-7.914 28.483-15.827 42.665-23.845 7.234-4.244-.676-18.389-7.957-14.399-8.644 4.794-17.27 9.621-25.897 14.448l-.004.002q-6.645 3.72-13.295 7.434c-1.642 1.267-5.163 3.059-9.135 5.081-8.265 4.207-18.486 9.41-17.827 12.952zm-20.887-22.091c2.683-1.569 5.372-3.14 8.157-4.556 5.877-3.743 12.243-7.024 18.616-10.309 9.998-5.153 20.013-10.315 28.185-17.283 1.227-4.439-.815-7.883-3.934-10.771-2.927-3.108-6.321-1.03-9.337.816-.384.235-.763.467-1.134.684a5093 5093 0 0 0-40.33 22.384c-1.77 1.264-4.643 2.726-7.731 4.299-5.803 2.954-12.366 6.296-13.82 9.434-1.272 5.518 2.653 10.382 7.462 12.405l.005.005c4.894-1.866 9.37-4.483 13.861-7.108m376.651-40.489c-4.828.838-7.707 4.513-8.67 9.003-.713 3.152.07 4.809 2.805 6.48 4.906 2.997 9.826 5.966 14.745 8.936l.004.002a9867 9867 0 0 1 25.279 15.309l.022.013.012.008c7.15 4.34 14.3 8.682 21.463 13.002 5.383 3.361 10.386-3.652 11.155-8.47 1.105-4.241-4.676-7.29-9.644-9.91-2.168-1.144-4.182-2.206-5.4-3.25-6.788-4.035-13.546-8.171-20.307-12.309l-.002-.001c-10.438-6.388-20.884-12.781-31.462-18.817zm-43.862 23.685c-6.281 1.046-12.09 11.1-6.04 15.228 9.908 5.953 19.791 11.948 29.674 17.942 10.828 6.568 21.656 13.136 32.517 19.648 4.573 2.411 9.03-1.995 10.308-6.161 2.64-5.512-1.41-7.822-5.521-10.166l-.001-.001c-.652-.372-1.306-.745-1.935-1.131-7.801-4.585-15.516-9.345-23.233-14.106-11.816-7.291-23.636-14.584-35.769-21.248zm-26.753 52.769c5.78 3.278 10.748 6.096 12.525 7.566q5.068 3.065 10.138 6.127l.002.001a7892 7892 0 0 1 16.808 10.169c1.856 1.13 3.666.949 5.369-.162 4.189-2.573 8.193-10.146 3.361-13.798-5.704-3.477-11.423-6.933-17.141-10.389-5.061-3.059-10.122-6.117-15.172-9.19l-7.675-4.659a5750 5750 0 0 0-22.555-13.652c-5.415-3.235-11.113 4.569-10.975 9.78h-.004c-1.445 3.026 13.603 11.561 25.319 18.207M166.776 294.798l.002.001c2.596 1.491 5.195 2.984 7.789 4.502.602.347 1.736.343 2.352.005 1.576-1.222 5.202-3.06 9.51-5.245 11.311-5.735 27.327-13.856 23.321-19.468-2.833-3.95-7.212-6.339-11.569-8.717-2.392-1.305-4.777-2.606-6.895-4.16-.949-.579-1.66-.141-2.362.29q-.159.099-.318.192a11834 11834 0 0 0-38.904 22.491v.004c5.628 3.529 11.344 6.813 17.074 10.104m-60.014-46.476c-10.617-6.751-21.4-13.215-32.185-19.68-6.443-3.862-12.888-7.725-19.3-11.651-1.773-1.07-3.666-.982-5.401.111-4.36 2.457-8.207 10.886-3.153 13.992l10.448 6.315.003.001c10.715 6.475 21.43 12.949 32.12 19.47 1.695 1.276 7.207-2.267 11.803-5.22 2.328-1.496 4.422-2.842 5.665-3.333zm342.781 2.532c2.836 1.963 5.793 3.663 8.755 5.366l.002.001c2.109 1.213 4.22 2.427 6.291 3.738 1.027.62 1.833.333 2.708-.158a9555 9555 0 0 1 12.951-7.233c8.872-4.948 17.744-9.897 26.582-14.906 7.031-4.323-1.435-18.024-7.933-14.418-5.146 2.876-10.281 5.737-15.412 8.596-11.318 6.305-22.612 12.598-33.944 19.009zm-40.274-23.542c1.728 1.242 3.468 2.224 5.221 3.214 1.215.686 2.435 1.375 3.661 2.156l.099.061c4.025 2.471 4.041 2.48 8.164.244 7.769-4.357 15.546-8.704 23.323-13.051q7.245-4.049 14.488-8.102c7.193-4.217-1.203-18.528-8.493-14.154-4.533 2.581-9.095 5.109-13.657 7.637l-.007.004a1488 1488 0 0 0-12.1 6.754c-.43.243-.868.474-1.305.705-2.274 1.198-4.532 2.388-5.591 5.303-1.543 2.712-4.99 4.439-8.38 6.138-1.951.977-3.883 1.946-5.423 3.087zm-264.686-.833c-1.702-1.571-3.975-2.731-6.254-3.894-4.483-2.289-8.988-4.588-9.215-10.047 0-.537-.639-1.259-1.167-1.588a1608 1608 0 0 0-13.644-8.336l-2.616-1.588c-1.535-.626-3.434-1.938-5.464-3.339-4.344-2.999-9.286-6.412-12.542-4.418-4.457 2.569-8.665 10.511-3.35 14.085 5.773 3.533 11.562 7.041 17.35 10.549l.002.001c7.649 4.635 15.298 9.271 22.912 13.963 1.726 1.069 3.11 1.412 4.758.009 1.593-.998 3.19-1.903 4.806-2.819 1.455-.825 2.926-1.659 4.424-2.578m41.977 79.655c1.996 1.525 4.137 2.729 6.286 3.938 1.505.846 3.014 1.695 4.481 2.658 1.189.727 2.115.301 3.129-.278 5.508-3.307 11.141-6.344 16.766-9.376 9.898-5.335 19.769-10.656 28.886-17.414l-21.173-12.402-.214-.126-4.871-2.854c5.232 15.88-8.935 22.992-21.829 29.465-4.191 2.104-8.248 4.141-11.461 6.389m5.444 90.435c.218-.08.395-.135.54-.18.256-.08.413-.128.52-.232.833-.797 1.907-1.138 2.984-1.48 1.243-.395 2.488-.79 3.366-1.889 1.338-.778 3.518.296 4.731.916 3.892 2.833 6.003 6.776 6.443 11.567.227 2.472-.907 4.032-3.231 4.745-.652.433-1.288.904-1.927 1.377-1.174.869-2.356 1.745-3.66 2.404l-.023.593c7.118 4.403 11.226 1.952 17.149-1.581q.9-.54 1.866-1.104c12.344-6.202 4.156-23.972-4.648-29.85-4.68-4.354-10.315-1.258-15.094 1.367l-.671.368c-5.48 2.111-9.54 6.68-8.35 12.97zm245.29-62.868c5.788 3.094 14.379 7.687 11.621 15.461-2.134-.638-3.661-1.596-4.97-2.416-2.761-1.732-4.549-2.853-9.001.931-3.106 3.087-5.152 6.781-4.591 11.418.18 1.537.837 2.727 2.531 3.028 1.275.621 2.379 1.539 3.509 2.479l.001.001c.712.591 1.435 1.192 2.216 1.732-5.561 5.521-12.084 1.377-17.669-2.171-.872-.553-1.721-1.093-2.54-1.579-8.553-6.285-3.068-18.982 2.764-25.309 3.846-4.559 10.109-7.35 15.612-3.851zm-175.122-38.663c1.468.983 2.846 1.904 3.869 2.308q-1.115.595-2.26 1.202l-.004.002c-14.557 7.723-32.208 17.086-28.606 36.263-7.833-4.579-15.543-9.09-23.555-13.777l-.099-.058-2.207-1.291c5.315-3.341 10.854-6.288 16.38-9.228 10.075-5.361 20.108-10.699 28.667-18.364 1.544-1.254 4.863.968 7.815 2.943m16.642 5.375-.009-.028-.051-.148c-1.773.114-3.618-.312-5.456-.736-2.634-.608-5.251-1.212-7.615-.217-2.21 1.341-4.507 2.576-6.806 3.813-6.222 3.345-12.464 6.701-17.05 12.207-4.597 5.735-8.355 15.302-3.074 21.546 3.861 2.143 7.658 4.461 11.457 6.781 6.386 3.9 12.778 7.803 19.491 10.882l.138-.454c-2.22-1.547-4.843-3.011-7.55-4.523-9.199-5.137-19.38-10.822-18.125-22.165.843-4.689 3.555-8.253 7.304-10.781 7.055-4.617 14.443-8.745 21.818-12.865a1368 1368 0 0 0 5.593-3.136h-.004zm-78.594 13.932c1.144.431 2.193 1.187 3.213 1.923 1.885 1.358 3.674 2.647 5.794 1.692a649 649 0 0 1 8.481-4.81q1.044-.584 2.086-1.17c3.333-1.993 6.77-3.836 10.206-5.678 8.133-4.359 16.266-8.719 23.023-15.086.81-.671.704-1.19-.296-1.703-.717-.208-1.458-.749-2.207-1.297-1.455-1.062-2.943-2.15-4.361-.87-8.869 6.665-18.617 11.902-28.392 17.154-5.902 3.171-11.813 6.347-17.547 9.845m-34.392 67.334c1.986-4.976-2.069-12.225-7.29-13.308 4.814 3.143 7.452 7.406 7.29 13.308m34.952 12.618c5.211 3.138 7.734 7.503 7.438 13.566 2.745-3.221-2.56-13.705-7.438-13.566m196.042-24.023c-5.373.245-10.479 9.572-7.989 13.145.088-5.878 2.648-10.313 7.989-13.145m-273.559-14.46c2.435-4.661-3.24-13.752-7.383-13.206 5.009 2.995 7.527 7.337 7.383 13.206m316.953-9.151c-5.429.44-10.021 9.04-7.79 13.187 0-5.957 2.611-10.294 7.79-13.187m-87.671 47.726c-4.203-.569-10.082 10.16-7.267 12.766-.051-5.527 2.471-9.711 7.267-12.766m68.009-208.1c2.939-1.065 4.406-3.398 3.328-5.481-.166 1.053-.905 1.693-1.645 2.335-.91.789-1.824 1.581-1.683 3.146M273.168 97.886c33.831.264 90.175 12.756 93.212 53.896 3.157 34.97-34.942 52.623-64.14 57.544-32.572 5.864-68.708 1.291-96.114-18.154-16.052-10.03-22.135-26.152-19.288-44.509 8.179-36.595 54.109-46.347 86.33-48.777m83.843 56.849c-.148-.014-.301-.032-.449-.046 8.364-74.327-172.02-72.67-160.786 1.898-5.119-15.983 1.62-27.837 13.238-38.006-5.943 2.818-10.988 8.613-14.96 14.057-8.341 12.405-8.692 30.308-1.092 43.13 16.969 25.231 50.221 32.891 78.896 34.266 30.262.379 64.759-6.017 85.065-30.392 8.943-11.1 10.026-27.402 5.147-40.469-3.633-8.419-9.974-14.959-17.422-20.097 10.456 9.752 15.802 21.162 12.368 35.659zM217.72 170.264c16.427 12.372 37.44 16.26 57.602 16.89h-.002.004-.002c21.296-.866 43.758-4.897 60.569-18.94 6.119-5.541 12.529-13.303 11.344-22.079-11.034-31.457-61.01-37.678-89.615-32.711-19.283 3.555-41.404 10.512-50.846 29.272-5.93 10.275 3.013 21.305 10.946 27.568m73.97 12.037c.881.496 1.714.965 2.468 1.409h.005c-8.665 2.68-16.765-4.489-22.537-10.09-1.534-1.501-2.003-3.354-2.473-5.211-.324-1.28-.648-2.562-1.322-3.732-1.285 2.549-.841 7.241-.43 11.595.232 2.454.454 4.801.351 6.596.111 2.212.116 2.305-2.12 2.129-.75-.201-1.893-.25-3.136-.304-2.797-.122-6.099-.265-6.547-2.205-.551-6.336 1.749-11.539 6.48-15.719 1.004-.722 1.898-1.365 1.99-2.703-7.563 2.939-10.595 11.6-10.063 19.468l-1.598-.332c-1.674-.344-3.255-.67-4.817-1.079-2.819-6.508.625-13.683 5.647-18.186.518-.719 1.531-1.268 2.551-1.82 1.635-.886 3.286-1.781 2.939-3.397-.17-.544-.127-1.155-.085-1.761.019-.271.038-.54.038-.803 9.975 7.521 25.453 5.068 31.934-1.833.088 1.217.166 2.259.268 3.592.959-.412 1.224-.926 1.455-1.374.296-.573.536-1.037 2.1-1.042 14.159-1.579 26.263-7.554 36.659-17.164 1.833-1.694 2.194-1.661 3.43.403-1.148 6.79-19.704 15.358-26.472 17.376-5.378 1.671-10.928 2.342-16.552 2.467-.34.01-.675.223-1.01.438-.156.1-.313.2-.471.28 15.64 2.874 33.493-6.814 45.009-17.182.626 4.074.702 8.165.779 12.264.05 2.663.099 5.329.3 7.996.055 1.268-.306 1.847-1.62 2.023-15.715 2.818-31.656 1.633-46.926-2.5l-.18.787c15.205 6.665 32.058 5.203 48.073 3.157l.121.185.12.185c-7.6 4.526-19.667 4.142-29.362 3.834-1.459-.046-2.864-.091-4.191-.117-5.541-.482-11.003-1.426-16.201-3.499-.607-.204-1.182-.52-1.755-.834-1.094-.601-2.182-1.199-3.48-1.004 12.8 9.879 33.444 7.468 48.856 5.668l.06-.007.099.223.1.226c-8.517 5.767-18.241 9.067-28.119 11.738-8.128 1.884-17.154-5.203-21.977-11.099-.505-.666-.839-1.45-1.173-2.233-.492-1.155-.984-2.307-2.021-3.077-.688 7.548 8.347 12.633 14.806 16.268m-85.314-30.78c14.539-31.265 55.234-34.917 85.57-32.533 3.838-1.146 7.067.289 10.341 1.743 1.211.538 2.428 1.078 3.684 1.492 15.862 4.652 32.373 12.696 39.547 28.545-.162-26.994-42.042-34.729-63.343-36.067-25.188-1.305-72.66 5.623-75.799 36.82m68.527-10.07c-13.298-.954-25.578 12.478-7.068 16.978 20.644 5.383 35.914-15.826 7.068-16.978m-62.723 14.538h-.389c.177-.691.082-1.664-.017-2.669-.191-1.937-.393-3.992 1.322-4.376 13.961-2.444 28.217-2.93 42.112.153 1.981.088 1.828 2.088-.139 2.176-14.062.541-26.527 7.044-37.381 15.575-.787.56-1.185.546-1.777-.088-3.949-2.865-4.041-6.267-3.731-10.771m42.716-33.962c1.715.767 3.46 1.492 5.203 2.216 8.639 3.591 17.239 7.165 22.076 15.717 1.418 1.181 3.107 1.899 4.867 2.648 1.089.463 2.206.938 3.302 1.541 2.693-3.039 2.103-9.395 1.577-15.066-.239-2.578-.465-5.015-.364-6.934-5.275-3.961-29.451-1.765-36.661-.122m76.382 14.131c-8.428-6.192-17.694-10.191-28.163-12.718 2.263 6.342 2.339 12.498 2.415 18.772.038 3.04.075 6.107.362 9.236 7.396-1.624 19.96-8.935 25.386-15.29m-74.13 22.98c-12.594.84-23.495 5.542-33.489 13.357 6.906 4.198 13.988 7.077 21.852 9.012-.865-10.165 3.399-17.269 11.637-22.369m-12.465-32.536c9.178 2.805 17.991 6.674 24.906 13.58v.005c-1.063.276-2.023.679-2.943 1.065-1.783.749-3.412 1.433-5.342.999-5.346-1.606-10.803-2.495-16.381-2.578-1.226-.018-1.694-.403-1.726-1.689-.049-2.015-.163-4.029-.277-6.043-.072-1.272-.145-2.544-.2-3.816-.088-2.074-.037-2.134 1.963-1.523m-30.263 15.075c2.771-.234 5.548-.587 8.334-.941 5.766-.733 11.568-1.47 17.425-1.165 2.058.714 1.433-6.343 1.033-10.848-.137-1.542-.247-2.785-.214-3.315-10.204 3.554-19.298 8.223-26.578 16.269m42.528 13.776c.004.566.008 1.107.116 1.499v.005c-10.012 1.745-19.755 4.281-28.244 10.025-1.168.673-2.111 1.426-2.949 2.096-2.458 1.963-4.024 3.214-7.762-.365 10.049-9.576 23.37-14.77 37.094-15.955 1.723-.325 1.734 1.261 1.745 2.695m-45.231-8.037c1.673-.173 3.349-.357 5.026-.542 13.106-1.444 26.305-2.898 39.238.955 1.579.3 2.395-.984 3.219-2.279.422-.664.847-1.331 1.377-1.79-14.487-4.383-30.128-2.425-44.912-.384-1.356.38-2.062 1.413-2.838 2.548-.337.493-.687 1.006-1.11 1.492m89.732-23.962c4.624 9.795 1.134 21.815-8.596 26.689-2.208-3.738-.992-5.808.582-8.49 2.241-3.818 5.208-8.873.062-21.735.987.336 2.043.457 3.057.573 2.238.256 4.27.488 4.895 2.963m-51.376 3.406c-2.006-.816-4.023-1.636-6.02-2.522 5.249-2.772 10.346-.727 15.395 1.299.971.389 1.939.778 2.907 1.131 7.225 2.791 13.465 6.888 18.334 13.086-2.453.407-7.952.629-9.998-.57-5.587-6.315-13.025-9.338-20.618-12.424m88.433 36.799c-.176-.074-.347-.153-.523-.231l-.764-21.26.273-.137q.137-.067.273-.136.567.81 1.094 1.557c5.856 8.31 7.882 11.185-.353 20.207m-68.378 21.138c-1.296-1.188-.839-4.287-.826-11.672 3.893 5.392 9.434 8.646 15.21 11.807-9.189.101-12.914 1.213-14.384-.135m33.079-43.235.459.083h.004c-.127.847.01 2.227.159 3.727.296 2.98.639 6.436-.95 7.132-1.133.108-2.296.395-3.466.683-2.337.576-4.698 1.157-6.889.331.098-.201.178-.428.257-.656.171-.487.342-.974.683-1.191 4.073-2.518 7.596-5.763 9.743-10.109m-92.831 13.533.239 4.708c-3.378-3.101-3.545-7.457-.569-11.164.116 2.241.224 4.372.33 6.456m83.516-18.72q-.113.012-.224.026v-10.683c1.12 1.337 1.444 6.359.449 10.632z"/>
</svg>
