<svg xmlns="http://www.w3.org/2000/svg" width="550" height="550" fill="none" viewBox="0 0 550 550">
    <path fill="#fff" d="M281.4 402.9c-5.2 0-10.5-1.1-14.5-3.3l-47.2-26q-.3-.15-.3-.6c0-.2.1-.5.3-.6l3.5-2c.2-.1.5-.1.7 0 3 2.4 6.1 3.2 8.2 2l7.9-4.9c1-.6 1.8-1.7 2.1-3.1.7-3-.2-7.2-2.5-10.9-3.5-5.8-9.1-8.9-12.5-6.9l-7.9 4.9c-2 1.2-2.8 4.2-2.1 7.8 0 .3 0 .6-.3.7l-10.3 5.9q-.3.15-.6 0L188 356q-.3-.15-.3-.6c0-.2.1-.5.3-.6l3.2-1.8c.2-.1.5-.1.7 0 3 2.4 6.1 3.2 8.2 2l7.9-4.9c1-.6 1.8-1.7 2.1-3.1.7-3-.2-7.2-2.5-10.9-3.5-5.8-9.1-8.9-12.5-6.9l-7.9 4.9c-2 1.2-2.8 4.2-2.1 7.8 0 .3 0 .6-.3.7l-10 5.7q-.3.15-.6 0l-19.4-10.7q-.3-.15-.3-.6c0-.2.1-.5.3-.6l3.8-2.2c.2-.1.5-.1.7 0 3 2.4 6.1 3.2 8.2 2l7.9-4.9c1-.6 1.8-1.7 2.1-3.1.7-3-.2-7.2-2.5-10.9-3.5-5.8-9.1-8.9-12.5-6.9l-7.9 4.9c-2 1.2-2.8 4.2-2.1 7.8 0 .3 0 .6-.3.7l-10.6 6.1q-.3.15-.6 0l-2.1-1.1c-3.7-2.1-5.9-4.8-6.1-7.9v-50.2c0-.4.3-.7.6-.7.4 0 .6.3.6.6 0 2.7 2 5.3 5.5 7.3l127.8 70.4c7.8 4.3 20.4 4.2 28.1-.2L420 276.4c3.3-1.9 5.1-4.3 5.2-6.9v-.2c0-.4.3-.6.6-.6.4 0 .6.3.6.6v49.8c0 3.2-2 6.1-5.8 8.3l-1.7 1q-.3.15-.6 0l-10-5.6c-.2-.1-.4-.4-.3-.7.9-4 0-7.4-2.2-8.6l-8-4.2c-1.6-.9-3.7-.7-6 .5-2.4 1.3-4.6 3.7-6.3 6.5-3.4 5.9-3.4 12.2 0 14.2l7.9 4.2h.1c2.2 1.3 5.5.3 8.6-2.4.2-.2.5-.2.8 0l3.8 2.2q.3.15.3.6c0 .2-.1.5-.3.6l-19 10.9q-.3.15-.6 0l-9.9-5.6c-.2-.1-.4-.4-.3-.7.9-4 0-7.4-2.2-8.6l-8-4.2c-1.6-.9-3.7-.7-6 .5-2.4 1.3-4.6 3.7-6.3 6.5-3.4 5.9-3.4 12.2 0 14.2l8 4.2c2.2 1.3 5.5.4 8.6-2.4.2-.2.5-.2.8 0l3.7 2.1q.3.15.3.6t-.3.6l-20.2 11.6q-.3.15-.6 0l-10.4-5.9c-.2-.1-.4-.4-.3-.7.9-4 0-7.4-2.2-8.6l-8-4.2c-1.6-.9-3.7-.7-6 .5-2.4 1.3-4.6 3.7-6.3 6.5-3.4 5.9-3.4 12.2 0 14.2l8 4.2c2.2 1.3 5.5.4 8.6-2.4.2-.2.5-.2.8 0l4.3 2.4q.3.15.3.6c0 .2-.1.5-.3.6l-46.9 27c-4.1 2.3-9.5 3.5-14.9 3.5zm-60-29.9 46.2 25.4c7.8 4.3 20.4 4.2 28.1-.2l45.9-26.4-2.9-1.6c-3.4 2.9-7.1 3.8-9.7 2.3l-8-4.2c-4-2.3-4.2-9.5-.5-16 1.8-3.1 4.2-5.6 6.8-7 2.7-1.5 5.3-1.7 7.3-.5l8 4.2c2.7 1.5 3.7 5.2 2.9 9.6l9.7 5.5 18.9-10.9-2.3-1.3c-3.4 2.9-7.1 3.8-9.7 2.3l-8-4.2c-4-2.3-4.2-9.5-.5-16 1.8-3.1 4.2-5.6 6.8-7 2.7-1.5 5.3-1.7 7.3-.5l8 4.2c2.7 1.5 3.7 5.2 2.9 9.6l9.2 5.2 17.7-10.2-2.4-1.4c-3.4 2.9-7 3.8-9.6 2.4l-8-4.2c-4-2.3-4.2-9.5-.5-16 1.8-3.1 4.2-5.6 6.8-7 2.7-1.5 5.3-1.7 7.3-.5l8 4.2c2.7 1.5 3.7 5.2 2.9 9.6l9.3 5.2 1.4-.8c3.4-1.9 5.2-4.5 5.2-7.1v-45.5c-1 1.5-2.5 2.9-4.5 4l-124.6 71.7c-8 4.6-21.2 4.7-29.4.2l-127.8-70.4c-2.2-1.2-3.8-2.6-4.9-4.2v45.8c.1 2.6 2.1 5.1 5.5 6.9l1.8 1 9.8-5.6c-.7-4.1.3-7.3 2.8-8.8l7.9-4.9c4-2.4 10.3.9 14.2 7.3 2.5 4.1 3.5 8.5 2.7 11.9-.4 1.8-1.4 3.1-2.7 3.9l-7.9 4.9c-2.5 1.5-6 .8-9.3-1.8l-2.4 1.4 18.1 9.9 9.3-5.3c-.7-4.1.3-7.3 2.8-8.8l7.9-4.9c4-2.4 10.3.9 14.2 7.4 2.5 4.1 3.5 8.5 2.7 11.9-.4 1.8-1.4 3.1-2.7 3.9l-7.9 4.9c-2.5 1.5-6 .8-9.3-1.8l-1.8 1 16.6 9.1 9.5-5.5c-.7-4.1.3-7.3 2.8-8.8l7.9-4.9c4-2.4 10.3.9 14.2 7.3 2.5 4.1 3.5 8.5 2.7 11.9-.4 1.8-1.4 3.1-2.7 3.9l-7.9 4.9c-2.5 1.5-6 .8-9.3-1.8l-2.1 1.2z"/>
    <path fill="#fff" d="M183.2 279.7h-.3l-4.2-2.3c-2.9-1.6-4.5-3.8-4.5-6.2s1.6-4.6 4.6-6.3l32.5-18q.3-.15.6 0l14.2 8q.3.15.3.6c0 .2-.1.5-.3.6l-42.7 23.7h-.3zm28.5-31.5-32.2 17.9c-2.5 1.4-3.9 3.2-3.9 5.1s1.4 3.7 3.8 5l3.8 2.1 41.3-22.9-12.9-7.2zm68.9 23.5c-2.3 0-4.7-.5-6.5-1.5l-100.3-56.3c-1.7-.9-2.7-2.2-2.7-3.7 0-1.6.9-3.1 2.9-4.2h.1q.3-.3.6 0 .3.15.3.6v.8c0 .9.8 1.8 2 2.5l97.8 54.9c3.1 1.7 8.3 1.7 11.4 0l98.6-55.8c1.4-.8 2.1-1.8 2.1-2.8v-.7q0-.3.3-.6c.2 0 .4-.1.5 0h.1c1.9 1 2.9 2.5 3 4 0 1.5-1 2.9-2.8 3.9l-101 57.1c-1.8 1-4.1 1.5-6.5 1.5zm-106.8-64c-.9.7-1.4 1.6-1.4 2.5 0 1 .8 1.9 2.1 2.6l100.3 56.3c3.2 1.8 8.5 1.8 11.7 0l101-57.1c1.4-.8 2.1-1.8 2.1-2.8 0-.8-.5-1.6-1.4-2.3-.1 1.3-1.1 2.6-2.7 3.5l-98.6 55.8c-3.5 2-9.2 2-12.7 0l-97.8-54.9c-1.6-.9-2.5-2.1-2.7-3.4z"/>
    <path fill="#fff" d="M280.6 267.5c-2.3 0-4.6-.5-6.3-1.5l-97.8-54.9c-1.6-.9-2.5-2.1-2.7-3.5v-8.9q0-.3.3-.6.3-.15.6 0l100 56.1c3.2 1.8 8.5 1.8 11.7 0l93.9-53.1 6.9-3.9q.3-.15.6 0t.3.6v8.5c0 1.5-.9 2.9-2.7 3.9L286.8 266c-1.8 1-4.1 1.5-6.4 1.5zM175 207.4c0 .9.8 1.8 2 2.5l97.8 54.9c3.1 1.7 8.3 1.7 11.4 0l98.6-55.8c1.4-.8 2.1-1.8 2.1-2.8v-7.4l-6 3.4-93.8 53c-3.6 2-9.4 2-13 0L175 199.6z"/>
    <path fill="#fff" d="M280.6 257c-2.3 0-4.7-.5-6.5-1.5l-100.3-56.3c-1.6-.9-2.6-2.2-2.7-3.5v-13.2c0-.4.3-.6.6-.6s.6.3.7.6c0 1 .8 1.9 2.1 2.6l100.3 56.3c3.2 1.8 8.5 1.8 11.7 0l101-57.1c1.4-.8 2.1-1.8 2.1-2.8 0-.1 0-.3.1-.4.2-.2.5-.3.7-.2.3 0 .4.3.4.6v12.9c0 1.5-.9 3-2.8 4h-.2c0 .1-100.9 57.1-100.9 57.1-1.8 1-4.1 1.5-6.5 1.5zm-108.2-61.6c0 1 .8 1.9 2.1 2.6h.2c0 .1 100 56.3 100 56.3 3.2 1.8 8.5 1.8 11.7 0l101.1-57.1c1.4-.8 2.2-1.8 2.1-2.9v-10.1c-.4.4-.9.8-1.5 1.1l-101 57.1c-3.6 2-9.4 2-13 0l-100.3-56.3c-.6-.3-1.1-.7-1.5-1.1v10.2z"/>
    <path fill="#fff" d="M280.6 244c-2.3 0-4.7-.5-6.5-1.5l-100.3-56.3c-1.7-.9-2.7-2.2-2.7-3.7-.1-1.6.9-3.1 2.9-4.2l99.9-55.8c3.5-2 9.2-2 12.7 0l101.4 55c1.9 1 2.9 2.4 2.9 4 0 1.5-1 2.9-2.8 3.9l-101 57.1c-1.8 1-4.1 1.5-6.5 1.5m-.2-121.7c-2.1 0-4.2.4-5.8 1.3l-99.9 55.8c-1.5.8-2.3 1.9-2.2 3 0 1 .8 1.9 2.1 2.6l100.3 56.3c3.2 1.8 8.5 1.8 11.7 0l101-57.1c1.4-.8 2.1-1.8 2.1-2.8 0-1.1-.8-2.1-2.3-2.9l-101.3-54.9c-1.5-.8-3.6-1.2-5.6-1.2zm2.1 104h-.3l-78.3-43.1q-.3-.15-.3-.6t.3-.6l76.8-44.4q.3-.15.6 0l78.3 43.1q.3.15.3.6c0 .2-.1.5-.3.6l-42.9 24.8-33.9 19.6zm-76.9-43.8 77 42.4 75.4-43.6-77-42.4z"/>
    <path fill="#fff" d="M210.9 186.8h-.3l-6.6-3.6q-.3-.15-.3-.6t.3-.6l76.7-44.3q.3-.15.6 0l78.3 43.1q.3.15.3.6c0 .2-.1.5-.3.6l-8.1 4.7q-.3.15-.6 0l-65-35.2c-3.1-1.7-8.3-1.6-11.4 0l-63.3 35.4h-.3zm-5.3-4.3 5.3 2.9 63-35.2c3.5-1.9 9.2-2 12.7 0l64.6 35 6.8-3.9-77-42.4z"/>
    <path fill="#fff" d="M282.5 226.3h-.3l-71.7-39.4q-.3-.15-.3-.6c0-.2.1-.5.3-.6l63.3-35.4c3.5-1.9 9.2-2 12.7 0l64.9 35.2q.3.15.3.6c0 .2-.1.5-.3.6l-68.7 39.7h-.3zm-70.3-40.1 70.3 38.7 67.4-38.9-63.9-34.7c-3.1-1.7-8.3-1.6-11.4.1l-62.3 34.8zm69.6 21.2c-10.6 0-20.4-3.2-26.2-8.4-3.3-3-5.1-6.6-5.1-10.2 0-10.3 14-18.6 31.2-18.6s31.2 8.4 31.2 18.6-2.5 8.6-7.2 11.9c-5.9 4.3-14.7 6.7-24.1 6.7zm0-36c-16.5 0-29.9 7.8-29.9 17.3s1.6 6.5 4.6 9.2c5.5 5.1 15 8.1 25.3 8.1s17.6-2.4 23.3-6.5c4.3-3.1 6.6-6.9 6.6-10.8 0-9.6-13.4-17.3-29.9-17.3"/>
    <path fill="#fff" d="M281.8 207.4c-10.6 0-20.4-3.2-26.2-8.4-3.3-3-5.1-6.6-5.1-10.2 0-10.3 14-18.6 31.2-18.6s31.2 8.4 31.2 18.6-2.5 8.6-7.2 11.9c-5.9 4.3-14.7 6.7-24.1 6.7zm0-36c-16.5 0-29.9 7.8-29.9 17.3s1.6 6.5 4.6 9.2c5.5 5.1 15 8.1 25.3 8.1s17.6-2.4 23.3-6.5c4.3-3.1 6.6-6.9 6.6-10.8 0-9.6-13.4-17.3-29.9-17.3m111.7 164.8h-.3l-8-4.2c-4-2.3-4.2-9.5-.5-16s10-9.9 14-7.6l7.7 4.1c.1 0 .2.1.3.2.3.2.4.6.2.9s-.6.4-.9.3l-.3-.2c-1.5-.7-3.6-.5-5.7.7-2.4 1.3-4.6 3.7-6.3 6.5-3.4 5.9-3.4 12.2 0 14.2.3.2.4.6.2.9q-.15.3-.6.3zm2.3-27.3c-3.3 0-7.3 3-10 7.7-3.4 5.9-3.4 12.2 0 14.2l5 2.6c-1.5-3.3-.9-8.4 1.9-13.2 1.8-3.1 4.2-5.6 6.8-7q1.65-.9 3.3-1.2l-4.6-2.4c-.7-.4-1.4-.6-2.3-.6z"/>
    <path fill="#fff" d="M396 336.8c-1 0-2-.2-2.9-.7-4-2.3-4.2-9.5-.5-15.9 3.7-6.5 10-9.9 14-7.6 2.7 1.6 3.8 5.4 2.8 10 0 .2-.2.4-.4.5s-.4 0-.6 0l-6-3.4c-.6-.4-1.5-.3-2.5.3-1.1.6-2.1 1.6-2.8 2.9-.8 1.3-1.2 2.7-1.1 3.9 0 1.1.4 1.9 1 2.3l6 3.4c.2.1.3.3.3.5s0 .4-.2.6c-2.4 2.2-5 3.3-7.2 3.3zm7.8-23.7c-3.2 0-7.3 3-10 7.7-3.4 5.9-3.4 12.2 0 14.2 2.1 1.2 5 .5 7.9-1.8l-5.2-2.9c-1.1-.6-1.6-1.8-1.7-3.4 0-1.5.4-3.1 1.3-4.6s2-2.7 3.3-3.4c1.4-.8 2.7-.9 3.8-.3l5.2 2.9c.6-3.6-.3-6.5-2.3-7.7-.7-.4-1.4-.6-2.2-.6z"/>
    <path fill="#fff" d="M444.8 357.3h-.3l-48.1-27.1c-2.1-1.2-2.2-4.7-.4-8 .9-1.5 2-2.7 3.3-3.4 1.4-.8 2.7-.9 3.8-.3l16 9 32 18c.3.2.4.6.2.9s-.6.4-.9.2c-.6-.4-1.5-.3-2.4.3-1.1.6-2.1 1.6-2.8 2.9-1.5 2.5-1.5 5.4-.1 6.2.3.2.4.6.2.9q-.15.3-.6.3zm-43.2-37.9c-.5 0-1 .2-1.6.5-1.1.6-2.1 1.6-2.8 2.9-1.5 2.5-1.5 5.4-.1 6.2l45.9 25.8c-.3-1.6 0-3.6 1.2-5.6.9-1.5 2-2.7 3.3-3.4.3-.2.6-.3.9-.4l-29.8-16.8-16-9c-.3-.1-.6-.2-.9-.2z"/>
    <path fill="#fff" d="M446 357.6c-.6 0-1.1-.1-1.5-.4-2.1-1.2-2.2-4.7-.3-8 .9-1.5 2-2.7 3.3-3.4 1.4-.8 2.7-.9 3.8-.3 2.1 1.2 2.2 4.7.3 8-1.2 2-2.9 3.5-4.5 3.9-.3 0-.7.1-1 .1zm3.7-11.1c-.5 0-1 .2-1.6.5-1.1.6-2.1 1.6-2.8 2.9-1.5 2.5-1.5 5.4-.1 6.2.4.2.9.3 1.5.1 1.3-.4 2.8-1.6 3.8-3.3 1.5-2.5 1.5-5.4.1-6.2-.3-.1-.5-.2-.9-.2m-87.4 7.7h-.3l-8-4.2c-4-2.3-4.2-9.5-.5-16s10-9.9 14-7.6l7.7 4.1c.1 0 .2.1.3.2.3.2.4.6.2.9s-.6.4-.9.3l-.3-.2c-1.6-.7-3.6-.5-5.7.7-2.4 1.3-4.6 3.7-6.3 6.5-3.4 5.9-3.4 12.2 0 14.2.3.2.4.6.2.9q-.15.3-.6.3zm2.3-27.2c-3.3 0-7.3 3-10 7.7-3.4 5.9-3.4 12.2 0 14.2l5 2.6c-1.5-3.3-.9-8.4 1.9-13.2 1.8-3.1 4.2-5.6 6.8-7q1.65-.9 3.3-1.2l-4.6-2.4c-.7-.4-1.4-.6-2.3-.6z"/>
    <path fill="#fff" d="M364.8 354.9c-1 0-2-.2-2.9-.7-4-2.3-4.2-9.5-.5-15.9 3.7-6.5 10-9.9 14-7.6 2.7 1.6 3.8 5.4 2.8 10 0 .2-.2.4-.4.5h-.6l-6-3.4c-1.4-.8-3.8.6-5.3 3.1-.8 1.3-1.2 2.7-1.1 3.9 0 1.1.4 1.9 1 2.3l6 3.4c.2.1.3.3.3.5s0 .4-.2.6c-2.4 2.2-5 3.3-7.2 3.3zm7.8-23.7c-3.2 0-7.3 3-10 7.7-3.4 5.9-3.4 12.2 0 14.2 2.1 1.2 5 .5 7.9-1.8l-5.2-2.9c-1.1-.6-1.6-1.8-1.7-3.4 0-1.4.4-3 1.3-4.5 1.9-3.3 5-4.9 7.1-3.7l5.2 2.9c.6-3.6-.3-6.6-2.3-7.8-.7-.4-1.4-.6-2.2-.6z"/>
    <path fill="#fff" d="M412.6 374.8h-.3l-47-26.5c-2.1-1.2-2.2-4.7-.4-8 .9-1.5 2-2.7 3.3-3.4 1.4-.8 2.7-.9 3.8-.3l15.9 9 32 18c.3.2.4.6.2.9s-.6.4-.9.2c-.6-.4-1.5-.3-2.4.3-1.1.6-2.1 1.6-2.8 2.9-.8 1.4-1.2 2.9-1.1 4.1 0 .7 0 1.3.2 1.8 0 .3 0 .5-.2.7-.1.1-.3.2-.4.2zm-42.1-37.3c-.5 0-1 .2-1.6.5-1.1.6-2.1 1.6-2.8 2.9-1.5 2.5-1.5 5.4-.1 6.2l45.8 25.8v-.8c0-1.4.4-3.2 1.3-4.8.9-1.5 2-2.7 3.3-3.4.3-.2.6-.3.9-.4l-29.9-16.8-15.8-8.9c-.3-.1-.6-.2-.9-.2z"/>
    <path fill="#fff" d="M414.9 376.4c-.5 0-1.1-.1-1.5-.4-.6-.3-1.1-.9-1.3-1.7v-.6c-.2-.5-.3-1-.4-1.6 0-1.4.5-2.8 1.3-4.1.9-1.5 2-2.7 3.3-3.4 1.4-.8 2.7-.9 3.8-.3 2.1 1.2 2.2 4.7.3 8-.9 1.5-2 2.7-3.3 3.4-.8.4-1.5.6-2.2.6zm-.6-1.4c.6.2 1.4 0 2.2-.4 1.1-.6 2.1-1.6 2.8-2.9 1.5-2.5 1.5-5.4.1-6.2-.6-.4-1.5-.3-2.5.3-1.1.6-2.1 1.6-2.8 2.9-.7 1.1-1.1 2.4-1.1 3.5 0 .9.4 1.7 1 2q.45.3.3.9z"/>
    <path fill="#fff" d="M413.7 375.4h-.3l-1.1-.6c-.1 0-.2-.2-.3-.3-.3-.7-.4-1.4-.3-2.3 0-.3.3-.6.6-.6s.6.3.6.6c0 1 .4 1.7 1 2.1.3.2.4.6.2.9q-.15.3-.6.3zm-84.4-2.8h-.3l-8-4.2c-4-2.3-4.2-9.5-.5-16s10-9.9 14-7.6l7.7 4.1c.1 0 .2.1.3.2.3.2.4.6.2.9s-.6.4-.9.3l-.3-.2c-1.6-.7-3.6-.5-5.7.7-2.4 1.3-4.6 3.7-6.3 6.5-3.4 5.9-3.4 12.2 0 14.2.3.2.4.6.2.9q-.15.3-.6.3zm2.4-27.3c-3.3 0-7.3 3-10 7.7-3.4 5.9-3.4 12.2 0 14.2l5 2.6c-1.5-3.3-.9-8.4 1.9-13.2 1.8-3.1 4.2-5.6 6.8-7q1.65-.9 3.3-1.2l-4.6-2.4c-.7-.4-1.4-.6-2.3-.6z"/>
    <path fill="#fff" d="M331.8 373.3c-1 0-2-.2-2.9-.7-4-2.3-4.2-9.5-.5-15.9 3.7-6.5 10-9.9 14-7.6 2.7 1.6 3.8 5.4 2.8 10 0 .2-.2.4-.4.5h-.6l-6-3.4c-.6-.4-1.5-.3-2.5.3-1.1.6-2 1.6-2.8 2.9-1.5 2.5-1.5 5.4-.1 6.2l6 3.4c.2.1.3.3.3.5s0 .4-.2.6c-2.4 2.2-5 3.3-7.2 3.3zm7.9-23.7c-3.2 0-7.3 3-10 7.7-3.4 5.9-3.4 12.2 0 14.2 2.1 1.2 5 .5 7.9-1.8l-5.2-2.9c-2.1-1.2-2.2-4.7-.4-7.9.9-1.5 2-2.7 3.3-3.4 1.4-.8 2.7-.9 3.8-.3l5.2 2.9c.6-3.6-.3-6.6-2.3-7.8-.7-.4-1.4-.6-2.2-.6z"/>
    <path fill="#fff" d="M380.7 393.8h-.3l-48.1-27.1c-2.1-1.2-2.2-4.7-.4-8 .9-1.5 2-2.7 3.3-3.4 1.4-.8 2.7-.9 3.8-.3l48 27c.3.2.4.6.2.9s-.6.4-.9.2c-1.4-.8-3.8.7-5.3 3.2-.8 1.3-1.2 2.7-1.1 3.9 0 1.1.4 1.9 1 2.3.3.2.4.6.2.9q-.15.3-.6.3zm-43.2-37.9c-.5 0-1 .2-1.6.5-1.1.6-2.1 1.6-2.8 2.9-1.5 2.5-1.5 5.4-.1 6.2l45.9 25.8c0-.3 0-.7-.1-1 0-1.5.4-3.1 1.3-4.6 1.1-1.9 2.7-3.3 4.2-3.8l-29.4-16.5-16.5-9.3c-.3-.1-.6-.2-.9-.2M142.7 262h-.3l-33.6-18.9c-2.1-1.2-2.2-4.7-.4-8 .9-1.5 2-2.7 3.3-3.4 1.4-.8 2.7-.9 3.8-.3l39.9 22.5q.3.15.3.6c0 .2-.1.5-.3.6l-12.5 6.9h-.3zM114 232.3c-.5 0-1 .2-1.6.5-1.1.6-2.1 1.6-2.8 2.9-1.5 2.5-1.5 5.4-.1 6.2l33.3 18.7 11.1-6.2-39-21.9c-.2-.1-.5-.2-.8-.2zm59.4 12.7h-.3l-33.3-18.8c-2.1-1.2-2.2-4.7-.4-8 .9-1.5 2-2.7 3.3-3.4 1.4-.8 2.7-.9 3.8-.3l39.7 22.4q.3.15.3.6c0 .2-.1.5-.3.6l-12.5 6.9zM145 215.4c-.5 0-1 .2-1.6.5-1.1.6-2.1 1.6-2.8 2.9-1.5 2.5-1.5 5.4-.1 6.2l33 18.6 11.1-6.2-38.7-21.8c-.3-.1-.5-.2-.9-.2"/>
    <path fill="#fff" d="M381.9 394.1c-.5 0-1.1-.1-1.5-.4-1-.6-1.6-1.8-1.7-3.4 0-1.5.4-3.1 1.3-4.6 1.9-3.3 5-4.9 7.1-3.7s2.2 4.7.3 8c-.9 1.5-2 2.7-3.3 3.4-.8.4-1.5.6-2.2.6zm3.7-11.2c-1.4 0-3.2 1.4-4.4 3.4-.8 1.3-1.2 2.7-1.1 3.9 0 1.1.4 1.9 1 2.3s1.5.3 2.5-.3c1.1-.6 2.1-1.6 2.8-2.9 1.5-2.5 1.5-5.4.1-6.2-.3-.2-.6-.2-.9-.2m-153.1-9.2q-.3 0-.6-.3c-.2-.3 0-.7.2-.9h.1c1-.7 1.6-1.7 2-3.1.7-3-.2-7.2-2.5-10.9-3.5-5.8-9.1-8.9-12.5-6.9-.3.2-.7 0-.9-.2-.2-.3 0-.7.2-.9l7.9-4.9c3.9-2.3 10.3 1 14.2 7.3 2.5 4.1 3.5 8.5 2.7 11.9-.4 1.8-1.4 3.1-2.7 3.9l-7.8 4.8s-.1 0-.2.1h-.3zm.3-15.9c2.5 4.1 3.5 8.5 2.7 11.9 0 .3-.2.6-.3.9l4.8-3c1-.6 1.8-1.7 2.1-3.1.7-3-.2-7.2-2.5-10.9-3.5-5.8-9.1-8.9-12.5-6.9l-4.9 3c3.6.4 7.7 3.4 10.6 8.1"/>
    <path fill="#fff" d="M229.9 374.4c-2.1 0-4.4-1-6.8-2.8-.2-.1-.3-.3-.2-.6s.1-.4.3-.5l6.1-3.5c.5-.3.8-.7.9-1.4.4-1.5-.1-3.6-1.3-5.4-1.7-2.8-4.5-4.4-6-3.5l-6 3.5q-.3.15-.6 0c-.2 0-.3-.3-.4-.5-.9-4.3.2-7.7 2.7-9.2 3.9-2.3 10.3 1 14.2 7.4 2.5 4.1 3.5 8.5 2.7 11.9-.4 1.8-1.4 3.1-2.7 3.9-.9.5-1.8.8-2.9.8zm-5.2-3.3c2.8 2 5.5 2.5 7.4 1.4 1-.6 1.8-1.7 2.1-3.1.7-3-.2-7.2-2.5-10.9-3.5-5.8-9.1-8.9-12.5-6.9-1.9 1.1-2.7 3.7-2.2 6.9l5.2-3c2.2-1.3 5.7.4 7.8 3.9 1.3 2.2 1.9 4.6 1.4 6.4-.2 1-.8 1.8-1.6 2.2l-5.2 3z"/>
    <path fill="#fff" d="M182.1 395.4q-.3 0-.6-.3c-.2-.3 0-.7.2-.9.5-.3.8-.7 1-1.4.4-1.5-.1-3.5-1.3-5.4-1.7-2.8-4.4-4.4-6-3.5-.3.2-.7 0-.9-.2-.2-.3 0-.7.2-.9l47.5-27.3c2.2-1.3 5.6.4 7.8 3.9 1.3 2.2 1.9 4.6 1.4 6.4-.2 1-.8 1.8-1.6 2.2l-47.5 27.3h-.3zm-4.4-12.9c1.7.5 3.5 2 4.8 4.2 1.3 2.1 1.8 4.4 1.5 6.2l45.3-26c.5-.3.8-.7.9-1.4.4-1.5-.1-3.5-1.2-5.4-1.7-2.8-4.5-4.4-6-3.5l-45.2 25.9zM416 260.3h-.3l-13.9-7.5q-.3-.15-.3-.6c0-.2.1-.5.3-.6l39.6-22.7c2.2-1.3 5.7.4 7.8 3.9 1.3 2.2 1.9 4.6 1.4 6.4-.2 1-.8 1.8-1.6 2.2l-32.7 18.8h-.3zm-12.6-8.2 12.6 6.8 32.4-18.6c.5-.3.8-.8.9-1.4.4-1.5-.1-3.5-1.3-5.4-1.7-2.8-4.5-4.4-6-3.5zm-19.6-9.2h-.3l-13.2-7.1q-.3-.15-.3-.6c0-.2.1-.5.3-.6l17.1-9.7c1-.5 1.6-1.2 1.9-1.9 0-.1.2-.2.3-.3l19.8-11.4c2.2-1.3 5.7.4 7.8 3.9 1.3 2.2 1.9 4.6 1.4 6.4-.2 1-.8 1.8-1.6 2.2l-33.1 19h-.3zm-11.9-7.7 11.8 6.4 32.8-18.8c.5-.3.8-.7.9-1.4.4-1.5-.1-3.5-1.3-5.4-1.7-2.8-4.5-4.4-6-3.5l-19.6 11.3c-.4.9-1.2 1.7-2.3 2.3l-16.2 9.1z"/>
    <path fill="#fff" d="M281.5 353.2c-5.2 0-10.5-1.1-14.5-3.3l-127.8-70.4c-4-2.2-6.2-5.2-6.2-8.4s2.2-6.3 6.3-8.5l50.4-27.9q.3-.15.6 0l21.8 12.2q.3.15.3.6c0 .2-.1.5-.3.6l-32.5 18c-2.5 1.4-3.9 3.2-3.9 5.1s1.4 3.7 3.8 5l91.7 50.5c5.6 3.1 14.5 3 20-.1l89.4-51.4c2.4-1.4 3.6-3.1 3.6-5s-1.5-3.8-4.1-5.1l-31.6-17q-.3-.15-.3-.6c0-.2.1-.5.3-.6l21.8-12.3q.3-.15.6 0l49.3 26.5c4.1 2.2 6.4 5.2 6.5 8.5 0 3.2-2 6.1-5.8 8.3l-124.6 71.7c-4.1 2.3-9.5 3.5-14.9 3.5zm-91.6-117.3-50 27.8c-3.6 2-5.6 4.6-5.6 7.4 0 2.7 1.9 5.3 5.5 7.3l127.8 70.4c7.8 4.3 20.4 4.2 28.1-.2l124.6-71.7c3.4-1.9 5.2-4.5 5.2-7.1 0-2.8-2.1-5.4-5.8-7.4l-49-26.4-20.4 11.6 30.5 16.4c3 1.6 4.7 3.8 4.7 6.3 0 2.3-1.5 4.5-4.3 6.1l-89.4 51.4c-5.8 3.3-15.3 3.4-21.3.1l-91.7-50.5c-2.9-1.6-4.5-3.8-4.5-6.2s1.6-4.6 4.6-6.3l31.5-17.5z"/>
    <path fill="#fff" d="M280.6 284.7c-2.3 0-4.7-.5-6.5-1.5l-100.3-56.3c-1.6-.9-2.6-2.2-2.7-3.5v-13.2c0-.4.3-.6.6-.6s.6.3.7.6c0 1 .8 1.9 2.1 2.6l100.3 56.3c3.2 1.8 8.5 1.8 11.7 0l101-57.1c1.4-.8 2.1-1.8 2.1-2.8 0-.4.3-.7.6-.7.4 0 .6.3.7.6V222c0 .5 0 1-.3 1.5-.4 1-1.3 1.9-2.5 2.5h-.2c0 .1-100.9 57.1-100.9 57.1-1.8 1-4.1 1.5-6.5 1.5zm-108.2-61.6c0 1 .8 1.9 2.1 2.6l15.7 8.8 84.5 47.5c3.2 1.8 8.5 1.8 11.7 0l101-57.1c1-.5 1.6-1.2 1.9-1.9.1-.3.2-.6.2-.9V212c-.4.4-.9.8-1.5 1.1l-101 57.1c-3.6 2-9.4 2-13 0l-100.3-56.3c-.6-.3-1.1-.7-1.5-1.1V223zm8.3 172.7c-2 0-4.5-1.6-6.1-4.4-1.3-2.2-1.9-4.6-1.4-6.4.2-1 .8-1.8 1.6-2.2 2.2-1.3 5.7.4 7.8 3.9 1.3 2.2 1.9 4.6 1.4 6.4-.2 1-.8 1.8-1.6 2.2-.5.3-1.1.4-1.7.4zm-4.3-12.2c-.4 0-.7 0-1 .3-.5.3-.8.8-1 1.4-.4 1.5.1 3.5 1.3 5.4 1.7 2.8 4.5 4.4 6 3.5.5-.3.8-.8 1-1.4.4-1.5-.1-3.5-1.3-5.4-1.4-2.3-3.5-3.7-5-3.7zm24.1-27.2q-.3 0-.6-.3c-.2-.3 0-.7.2-.9h.1c1-.7 1.6-1.7 2-3.1.7-3-.2-7.2-2.5-10.9-3.5-5.8-9.1-8.9-12.5-6.9-.3.2-.7 0-.9-.2-.2-.3 0-.7.2-.9l7.9-4.9c4-2.4 10.3.9 14.2 7.3 2.5 4.1 3.5 8.5 2.7 11.9-.4 1.8-1.4 3.1-2.7 3.9l-7.8 4.8s-.1 0-.2.1h-.3zm-10.1-24c3.6.4 7.7 3.4 10.6 8.1 2.5 4.1 3.5 8.5 2.7 11.9 0 .3-.2.6-.3.9l4.8-3c1-.6 1.8-1.7 2.1-3.1.7-3-.2-7.2-2.5-10.9-3.5-5.8-9.1-8.9-12.5-6.9z"/>
    <path fill="#fff" d="M198 357.1c-2.1 0-4.4-1-6.8-2.8-.2-.1-.3-.3-.2-.6s.1-.4.3-.5l6.1-3.5c.5-.3.8-.7.9-1.4.4-1.5-.1-3.5-1.3-5.4-1.7-2.8-4.5-4.4-6-3.5l-6 3.5q-.3.15-.6 0c-.2-.1-.3-.3-.4-.5-.9-4.3.2-7.7 2.7-9.2 4-2.3 10.2.9 14.2 7.4 2.5 4.1 3.5 8.5 2.7 11.9-.4 1.8-1.4 3.1-2.7 3.9-.9.5-1.8.8-2.9.8zm-5.2-3.3c2.8 2 5.5 2.5 7.4 1.4 1-.6 1.8-1.7 2.1-3.1.7-3-.2-7.2-2.5-10.9-3.5-5.8-9.1-8.9-12.5-6.9-1.8 1.1-2.7 3.7-2.2 6.9l5.2-3c2.2-1.3 5.7.4 7.8 3.9 1.3 2.2 1.9 4.6 1.4 6.4-.2 1-.8 1.8-1.6 2.2l-5.2 3z"/>
    <path fill="#fff" d="M150.2 378.1q-.3 0-.6-.3c-.2-.3 0-.7.2-.9.5-.3.8-.7 1-1.4.4-1.5-.1-3.6-1.3-5.4-1.7-2.8-4.4-4.4-6-3.5-.3.2-.7 0-.9-.2-.2-.3 0-.7.2-.9l47.5-27.2c2.2-1.3 5.7.4 7.8 3.9 1.3 2.2 1.9 4.6 1.4 6.4-.2 1-.8 1.8-1.6 2.2l-47.5 27.3h-.3zm-4.4-12.8c1.7.5 3.5 2 4.8 4.2 1.3 2.1 1.8 4.4 1.5 6.2l45.3-26c.5-.3.8-.7.9-1.4.4-1.5-.1-3.5-1.3-5.4-1.7-2.8-4.5-4.4-6-3.5z"/>
    <path fill="#fff" d="M148.8 378.5c-2 0-4.5-1.6-6.1-4.4-1.3-2.2-1.9-4.6-1.4-6.4.2-1 .8-1.8 1.6-2.2 2.2-1.3 5.7.4 7.8 3.9 1.3 2.2 1.9 4.6 1.4 6.4-.2 1-.8 1.8-1.6 2.2-.5.3-1.1.4-1.7.4zm-4.3-12.2c-.4 0-.7 0-1 .3-.5.3-.8.8-1 1.4-.4 1.5.1 3.5 1.3 5.4 1.7 2.8 4.5 4.4 6 3.5.5-.3.8-.8 1-1.4.4-1.5-.1-3.5-1.3-5.4-1.4-2.3-3.5-3.7-5-3.7zm23.5-28.5q-.3 0-.6-.3c-.2-.3 0-.7.2-.9h.1c1-.7 1.6-1.7 2-3.1.7-3-.2-7.2-2.5-10.9-3.5-5.8-9.1-8.9-12.5-6.9-.3.2-.7 0-.9-.2-.2-.3 0-.7.2-.9l7.9-4.9c4-2.4 10.3.9 14.2 7.3 2.5 4.1 3.5 8.5 2.7 11.9-.4 1.8-1.4 3.1-2.7 3.9l-7.8 4.8s-.1 0-.2.1h-.3zm-10.2-23.9c3.6.4 7.7 3.4 10.6 8.1 2.5 4.1 3.5 8.5 2.7 11.9 0 .3-.2.6-.3.9l4.8-3c1-.6 1.8-1.7 2.1-3.1.7-3-.2-7.2-2.5-10.9-3.5-5.8-9.1-8.9-12.5-6.9z"/>
    <path fill="#fff" d="M165.4 338.5c-2.1 0-4.4-1-6.8-2.8-.2-.1-.3-.3-.2-.6s.1-.4.3-.5l6.1-3.5c.5-.3.8-.7.9-1.4.4-1.5-.1-3.5-1.3-5.4-1.7-2.8-4.5-4.4-6-3.5l-6 3.5q-.3.15-.6 0c-.2 0-.3-.3-.4-.5-.9-4.3.2-7.7 2.7-9.2 4-2.4 10.2.9 14.2 7.4 2.5 4.1 3.5 8.5 2.7 11.9-.4 1.8-1.4 3.1-2.7 3.9-.9.5-1.8.8-2.9.8zm-5.2-3.3c2.8 2 5.5 2.5 7.4 1.4 1-.6 1.8-1.7 2.1-3.1.7-3-.2-7.2-2.5-10.9-3.5-5.8-9.1-8.9-12.5-6.9-1.9 1.1-2.7 3.7-2.2 6.9l5.2-3c2.2-1.3 5.7.4 7.8 3.9 1.3 2.2 1.9 4.6 1.4 6.4-.2 1-.8 1.8-1.6 2.2l-5.2 3z"/>
    <path fill="#fff" d="M117.6 359.6q-.3 0-.6-.3c-.2-.3 0-.7.2-.9.5-.3.8-.7 1-1.4.4-1.5-.1-3.6-1.3-5.4-1.7-2.8-4.4-4.4-6-3.5-.3.2-.7 0-.9-.2s0-.7.2-.9l47.5-27.2c2.2-1.3 5.7.4 7.8 3.9 1.3 2.2 1.9 4.6 1.4 6.4-.2 1-.8 1.8-1.6 2.2l-47.5 27.3h-.3zm-4.3-12.9c1.7.5 3.5 2 4.8 4.2 1.3 2.1 1.8 4.4 1.5 6.2l45.3-26c.5-.3.8-.7.9-1.4.4-1.5-.1-3.5-1.3-5.4-1.7-2.8-4.5-4.4-6-3.5z"/>
    <path fill="#fff" d="M116.3 359.9c-2 0-4.5-1.6-6.1-4.4-1.3-2.2-1.9-4.6-1.4-6.4.2-1 .8-1.8 1.6-2.2 2.2-1.3 5.7.4 7.8 3.9 1.3 2.2 1.9 4.6 1.4 6.4-.2 1-.8 1.8-1.6 2.2-.5.3-1.1.4-1.7.4zm-4.4-12.1c-.4 0-.7 0-1 .3-.5.3-.8.8-1 1.4-.4 1.5.1 3.5 1.3 5.4 1.7 2.8 4.5 4.4 6 3.5.5-.3.8-.8 1-1.4.4-1.5-.1-3.5-1.3-5.4-1.4-2.3-3.5-3.7-5-3.7zm174.3-132-.2-1.3c2.1-.4 4-1 5.5-1.9l2.9-1.7.7 1.1-2.9 1.7q-2.55 1.5-6 2.1m-9.8-.3c-1.5-.4-2.9-.9-4.1-1.6l-4.6-2.6.6-1.1 4.6 2.6c1.1.6 2.4 1.1 3.8 1.5l-.3 1.3zm26.8-8.3-.7-1.1 8.2-4.8.7 1.1zm-43.7-.6-8.3-4.7.6-1.1 8.3 4.7zm60.1-9-.7-1.1 8.2-4.8.7 1.1zm-76.7-.3-8.3-4.7.6-1.1 8.3 4.7zm-16.5-9.4-8.3-4.7.6-1.1 8.3 4.7zm109.6 0-.7-1.1 8.2-4.8.7 1.1zm-126.2-9.3-8.3-4.7.6-1.1 8.3 4.7zm142.6-.4-.7-1.1 8.2-4.8.7 1.1zm-159.2-9-5.9-3.3q-1.35-.75-2.4-1.8l.9-.9c.6.6 1.2 1.1 2.1 1.5l5.9 3.3-.6 1.1zm175.6-.6-.7-1.1 6.2-3.7c.7-.4 1.2-.8 1.7-1.3l.9.9c-.5.5-1.2 1-2 1.5l-6.2 3.7zm-184.3-14h-1.3v-9.5h1.3zM379 154h-1.3v-9.5h1.3zm-194.5-18.4h-1.3v-9.5h1.3zM379 135h-1.3v-9.5h1.3z"/>
    <path fill="#fff" d="M281.9 182.3c-3.6 0-6.9-.8-9.5-2.3l.6-1.1c2.4 1.3 5.5 2.1 8.9 2.1zm9.5-2-.6-1.2.6-.3 7.5-4.4.7 1.1-7.5 4.4c-.2.1-.5.3-.7.4m-27.2-4.9-8.3-4.7.6-1.1 8.3 4.7zm43.7-4.8-.7-1.1 8.2-4.8.7 1.1zm-60.3-4.6-8.3-4.7.6-1.1 8.3 4.7zm76.6-5.1-.7-1.1 8.2-4.8.7 1.1zm-93.2-4.2-8.3-4.7.6-1.1 8.3 4.7zm109.6-5.4-.7-1.1 8.2-4.8.7 1.1zm-126.1-4-8.3-4.7.6-1.1 8.3 4.7zm142.5-5.7-.7-1.1 8.2-4.8.7 1.1zM197.9 138l-8.3-4.7.6-1.1 8.3 4.7zm175.5-6-.7-1.1 1.6-.9c2.1-1.3 3.3-2.9 3.3-4.6 0-.3 0-.6-.1-.9l1.3-.3c0 .4.1.7.1 1.1 0 2.3-1.4 4.3-4 5.8l-1.6.9zm-188.9-5.9h-1.3c0-2.3 1.5-4.4 4.3-6l2.2-1.2.6 1.1-2.2 1.2c-2.3 1.3-3.6 3-3.6 4.9m189.4-5.8-8.3-4.6.6-1.1 8.3 4.6zm-175.4-5-.6-1.1 8.3-4.7.6 1.1zm158.8-4.1-8.3-4.6.6-1.1 8.3 4.6zM215 105.9l-.6-1.1 8.3-4.7.6 1.1zm125.6-3.9-8.3-4.6.6-1.1 8.3 4.6zm-109-5.5-.6-1.1 8.3-4.7.6 1.1zm92.4-3.7-8.3-4.6.6-1.1 8.3 4.6zm-75.9-5.7-.6-1.1 8.3-4.7.6 1.1zm59.2-3.5L299 79l.6-1.1 8.3 4.6zm-42.7-5.9-.6-1.1 6.9-3.9c.5-.3 1-.5 1.5-.7l.5 1.2c-.5.2-.9.4-1.4.7l-6.9 3.9zm26.1-3.3-1.2-.6c-2-1.1-4.7-1.8-7.6-2v-1.3c3.2.2 6 .9 8.2 2.2l1.2.6zM281 330.2c-3.8 0-7.6-.8-10.5-2.4l-6.4-3.5c-.2 0-.4-.3-.4-.5 0-.3.2-.6.5-.7 3.6-.6 7.4-1 11.3-1s10.6 1.5 16 4.5q.3.15.3.6c0 .2-.1.5-.3.6-2.9 1.6-6.8 2.4-10.6 2.4zm-14.6-6.1 4.8 2.6c5.1 2.8 13.2 3 18.7.5-4.8-2.5-9.6-3.8-14.2-3.8s-6.3.2-9.3.6zM228 304.3h-.3l-13-7.2q-.3-.15-.3-.6c0-.2.1-.5.3-.6l43.4-22.9c.2-.1.4 0 .6 0l12.9 7.2q.3.15.3.6c0 .2-.1.5-.3.6l-43.3 22.9zm-11.7-7.8 11.6 6.4 41.9-22.1-11.5-6.5zM317 313.1h-.3l-7.2-4.3c-5.5-3.3-12-8.5-11.8-14.6.2-5.8 6.1-10.8 11.6-13.5 9.8-4.9 31.7-17.1 36-19.5q.3-.15.6 0l10.9 5.9q.3.15.3.6t-.3.6c-7.4 4.4-20.8 12.3-26.7 15.4-5.6 3-6.4 6.9-6.4 9 0 2.7 1.4 6.8 7.8 11.3q.3.15.3.6c0 .3-.1.4-.3.5l-14.2 8.1h-.3zm28.6-50.7c-4.9 2.8-26.1 14.6-35.7 19.4-5.1 2.6-10.7 7.2-10.9 12.4-.2 5.5 5.9 10.3 11.1 13.4l6.9 4.1 13-7.4c-6.2-4.6-7.5-8.9-7.5-11.7 0-2.3.9-6.8 7.1-10.1 5.6-3 18.1-10.4 25.6-14.8l-9.6-5.2z"/>
    <path fill="#fff" d="M336.9 301.6h-.3c-7.4-4.3-8.3-7.8-8.3-9.1 0-1.8 1.4-3.5 4-4.9 7.2-3.9 24.7-14.2 29.9-17.3q.3-.15.6 0l13.9 7.5q.3.15.3.6c0 .2-.1.5-.3.6l-39.5 22.7h-.3zm25.7-30.1c-5.6 3.3-22.5 13.4-29.6 17.2-1.3.7-3.4 2.1-3.3 3.8 0 .6.4 3.7 7.3 7.8l38.2-22zm-65.5 53c-.1 0-.2 0-.4-.1-3.9-2.6-11.9-6.8-21.1-6.8s-14.9 1.4-18.6 2.6h-.5l-22.7-12.5q-.3-.15-.3-.6c0-.2.1-.5.3-.6l44-23.2h.4c3 .5 6.1 0 8.3-1.2l47.7-27q.3-.15.6 0l5 2.7q.3.15.3.6c0 .2-.1.5-.3.6-5.4 3-23.9 13.3-32.5 17.6-2.6 1.3-6.3 3.5-9.3 6.9-3 3.3-4.7 6.9-4.8 10.6-.2 6.7 4.5 13 14 18.7l4.4 2.6q.3.15.3.6 0 .3-.3.6l-14.1 8.1h-.3zm-21.5-8.2c9.3 0 17.3 4.2 21.5 6.8l12.8-7.4-3.4-2c-10-5.9-14.9-12.6-14.6-19.8.1-3.9 1.9-7.9 5.1-11.4s7-5.8 9.7-7.1c8.1-4.1 25-13.4 31.4-17l-3.7-2-47.4 26.8c-2.3 1.3-5.7 1.8-8.9 1.3l-42.7 22.6 21.4 11.8c3.9-1.2 10.2-2.6 18.7-2.6zm-66.8-22.5h-.3l-25.6-14.1q-.3-.15-.3-.6t.3-.6l42.7-23.7q.3-.15.6 0l26.4 14.8q.3.15.3.6c0 .2-.1.5-.3.6l-43.5 23zm-24.2-14.7 24.2 13.3 42.1-22.2-25-14z"/>
    <path fill="#fff" d="M215 297.2h-.3l-6.1-3.4q-.3-.15-.3-.6c0-.2.1-.5.3-.6l43.5-23q.3-.15.6 0l6.1 3.4q.3.15.3.6t-.3.6l-43.4 22.9h-.3zm-4.8-4 4.8 2.6 42-22.2-4.7-2.7-42.1 22.2zm23.9 14.5h-.3l-6.1-3.4q-.3-.15-.3-.6c0-.2.1-.5.3-.6l43.3-22.9c.2-.1.4 0 .6 0l3.1 1.8c.9.5 2.1.9 3.4 1.1.3 0 .5.3.5.5 0 .3 0 .5-.3.7l-44 23.2h-.3zm-4.8-4 4.8 2.6 42.1-22.3q-1.05-.3-2.1-.9l-2.9-1.6-41.9 22.1zm61.9 24.2h-.3c-5.2-2.9-10.4-4.4-15.3-4.4s-7.6.3-11.1.9h-.4l-7.6-4.2c-.3-.1-.4-.4-.3-.7 0-.2.2-.4.5-.5 5.6-1.8 11.9-2.7 19-2.7s16.9 3.8 21.8 7.1q.3.15.3.6c0 .2-.1.4-.3.5l-5.8 3.3h-.4zm-15.6-5.7c5.1 0 10.3 1.5 15.6 4.3l4.6-2.6c-4.8-3-12-6.3-20.2-6.3s-12 .7-17.1 2.2l6 3.3q5.25-.9 11.1-.9m100.9-43.3h-.3l-13.9-7.5q-.3-.15-.3-.6c0-.2.1-.5.3-.6l2.2-1.3h.1c.2 0 .3-1.1-.5-2.4-.3-.6-.8-1.1-1.2-1.4-.3-.2-.5-.2-.6-.2h-.1c-.5.3-2.4 1.4-5.2 3.1q-.3.15-.6 0l-10.9-5.9q-.3-.15-.3-.6c0-.2.1-.5.3-.6.4-.2.7-.4.7-.4.2-.2.3-1.1-.4-2.4s-1.6-1.7-1.8-1.6c0 0-1.6.9-4 2.2q-.3.15-.6 0l-5-2.7q-.3-.15-.3-.6c0-.2.1-.5.3-.6l14.4-8.1q.3-.15.6 0l31.5 17c3 1.6 4.7 3.9 4.7 6.3 0 2.3-1.5 4.5-4.3 6.1l-4.4 2.5h-.3zm-12.6-8.2 12.6 6.8 4.1-2.3c2.4-1.4 3.6-3.1 3.6-5s-1.5-3.7-4-5.1L349 248.3l-13 7.4 3.7 2c2.2-1.2 3.6-2 3.7-2.1 1.1-.6 2.6.3 3.6 2.1.9 1.6 1 3.3.2 4l9.6 5.1c2.9-1.7 4.9-2.9 5-3h.1c.5-.3 1.2-.2 1.9.3.6.4 1.2 1 1.6 1.8 1 1.8 1 3.6 0 4.2h-.1l-1.1.7z"/>
    <path fill="#fff" d="M311.2 316.4h-.3l-4.4-2.6c-10-5.9-14.9-12.6-14.6-19.8.1-3.9 1.9-7.9 5.1-11.4s7-5.8 9.7-7.1c8.2-4.1 25.4-13.7 32.5-17.6l2.9-1.6c.7-.4 1.1-.6 1.1-.6 1.1-.5 2.6.3 3.6 2.1s1 3.6 0 4.2c0 0-.2.1-.5.3h-.3c-2.6 1.6-25.9 14.6-36 19.7-5.1 2.6-10.7 7.2-10.9 12.4-.2 5.5 5.9 10.3 11.1 13.4 2.4 1.4 4.7 2.8 6.8 4.1l.4.2q.3.15.3.6 0 .3-.3.6l-5.8 3.4h-.3zm32.7-59.7s-.4.2-1.1.6l-2.9 1.6c-7 3.9-24.3 13.5-32.5 17.6-2.6 1.3-6.2 3.5-9.3 6.9-3 3.3-4.7 6.9-4.8 10.6-.2 6.7 4.5 13 14 18.7l4.1 2.4 4.5-2.6c-2-1.2-4.1-2.4-6.3-3.7-5.5-3.3-12-8.5-11.8-14.6.2-5.8 6.1-10.8 11.6-13.5 10.1-5.1 33.3-18.1 36-19.5h.3c.3-.3.4-.4.5-.4.3-.1.4-1.1-.4-2.4-.7-1.1-1.4-1.6-1.8-1.6z"/>
    <path fill="#fff" d="M331.2 304.9c-.1 0-.3 0-.4-.1-6.9-4.8-8.3-9.3-8.4-12.3 0-2.3.9-6.8 7.1-10.1 5.8-3.2 19.2-11 26.6-15.4 2.4-1.4 4.2-2.5 5-2.9l.3-.2h.2c.5-.2 1.2-.1 1.9.3.6.4 1.2 1 1.6 1.8 1 1.8 1 3.5 0 4.1h-.1c-.2.2-1 .6-2.1 1.3-5.2 3.1-22.7 13.5-29.9 17.4-1.3.7-3.4 2.1-3.3 3.8 0 .6.4 3.8 7.6 8q.3.15.3.6 0 .3-.3.6l-5.7 3.3h-.3zM362 265h-.2c-.7.6-2.5 1.6-5 3.1-7.4 4.4-20.8 12.3-26.7 15.4-5.6 3-6.4 6.9-6.4 9 0 2.6 1.3 6.6 7.5 11l4.4-2.5c-6.6-4.1-7.3-7.3-7.3-8.5 0-1.8 1.4-3.5 4-4.9 7.2-3.9 24.7-14.2 29.9-17.3 1.1-.7 1.9-1.1 2.2-1.3h.1c.2-.1.3-1.1-.5-2.4-.3-.6-.8-1-1.2-1.3-.3-.2-.5-.2-.6-.2h-.1zm-74.9-67.3-.2-1.3c2.5-.4 4.9-1.2 6.7-2.3l3.5-2 .7 1.1-3.5 2c-2 1.2-4.5 2-7.1 2.5zm-11.6-.4c-1.8-.5-3.4-1.1-4.8-1.9l-5.5-3.1.6-1.1 5.5 3.1q1.95 1.05 4.5 1.8l-.3 1.3zm32.1-9.9-.7-1.1 9.8-5.8.7 1.1zm-52.4-.8-9.9-5.6.6-1.1 9.9 5.6zm72-10.8-.7-1.1 9.8-5.8.7 1.1zm-91.8-.4-9.9-5.6.6-1.1 9.9 5.6zm-19.9-11.2-9.9-5.6.6-1.1 9.9 5.6zm131.4 0-.7-1.1 9.8-5.8.7 1.1zM195.6 153l-9.9-5.6.6-1.1 9.9 5.6zm171-.4-.7-1.1 9.8-5.8.7 1.1zm-190.9-10.9-7-4c-1.1-.6-2-1.3-2.8-2.1l.9-.9c.7.7 1.5 1.3 2.5 1.9l7 4zm210.5-.7-.7-1.1 7.5-4.4q1.2-.75 2.1-1.5l.9.9c-.6.6-1.4 1.2-2.3 1.7zM165 124.4h-1.3V113h1.3zm233.4-.8h-1.3v-11.4h1.3zm-233.4-22h-1.3V90.2h1.3zm233.4-.8h-1.3V89.4h1.3z"/>
    <path fill="#fff" d="M282 157.4c-4.2 0-8.3-1-11.3-2.7l.6-1.1c2.9 1.6 6.6 2.5 10.7 2.5zm11.4-2.4-.6-1.2c.3-.1.5-.3.8-.4l9-5.3.7 1.1-9 5.3c-.3.2-.6.3-.9.5m-32.6-5.9-9.9-5.6.6-1.1 9.9 5.6zm52.3-5.7-.7-1.1 9.8-5.8.7 1.1zm-72.2-5.5-9.9-5.6.6-1.1 9.9 5.6zm91.9-6.1-.7-1.1 9.8-5.8.7 1.1zm-111.7-5.1-9.9-5.6.6-1.1 9.9 5.6zm131.3-6.4-.7-1.1 9.8-5.8.7 1.1zm-151.2-4.8-9.9-5.6.6-1.1 9.9 5.6zm170.9-6.8-.7-1.1 9.8-5.8.7 1.1zm-190.8-4.5-9.9-5.6.6-1.1 9.9 5.6zm210.4-7.1L391 96l2-1.2c2.6-1.5 4.1-3.6 4.1-5.7 0-.4 0-.7-.1-1l1.3-.3c0 .4.1.8.1 1.2 0 2.7-1.7 5.1-4.7 6.9zm-226.7-7h-1.3c0-2.7 1.8-5.2 5.1-7l2.6-1.5.6 1.1-2.6 1.5c-2.8 1.6-4.4 3.7-4.4 5.9m227.5-7-10-5.5.6-1.1 10 5.5zm-210.5-6-.6-1.1 9.9-5.6.6 1.1zm190.6-5-10-5.5.6-1.1 10 5.5zm-170.8-6.3-.6-1.1 9.9-5.6.6 1.1zm150.8-4.7-10-5.5.6-1.1 10 5.5zm-131-6.6-.6-1.1 9.9-5.6.6 1.1zm111-4.5-10-5.5.6-1.1 10 5.5zm-91.1-6.8-.6-1.1 9.9-5.6.6 1.1zm71.1-4.2-10-5.5.6-1.1 10 5.5zm-51.3-7-.6-1.1 8.2-4.7 1.8-.9.5 1.2c-.6.2-1.1.5-1.7.8zm31.3-4-1.4-.8c-2.4-1.4-5.7-2.2-9.1-2.4v-1.3c3.8.2 7.1 1.1 9.8 2.6l1.4.8-.6 1.1zM379 368h-1.3v9.5h1.3zm-96.8 83.4v-1.3c3.3 0 6.5-.7 8.9-2l.6 1.1c-2.6 1.4-6 2.2-9.5 2.2m-9.5-2.2-.3-.2-8-4.5.6-1.1 8.3 4.7zm27.2-4.8-.7-1.1 8.2-4.8.7 1.1zm-43.8-4.5-8.3-4.7.6-1.1 8.3 4.7zm60.2-5.2-.7-1.1 8.2-4.8.7 1.1zm-76.8-4.2-8.3-4.7.6-1.1 8.3 4.7zm93.1-5.5-.7-1.1 8.2-4.8.7 1.1zM223 421.2l-8.3-4.7.6-1.1 8.3 4.7zm126-5.8-.7-1.1 8.2-4.8.7 1.1zm-142.6-3.6-8.3-4.7.6-1.1 8.3 4.7zm159-6.1-.7-1.1 8.2-4.8.7 1.1zm-175.6-3.2-2.5-1.4c-2.6-1.5-4.1-3.5-4.2-5.6h.6v-.7h.6v.6c.1 1.7 1.4 3.3 3.6 4.6l2.5 1.4zm189.2-9.4h-1.3v-1.3h1.3zm-194.5-31.8h-1.3v9.5h1.3zm97.6 56.2q-3.3 0-6.3-.9l.4-1.2c2.8.8 6.1 1 9.2.6l.2 1.3c-1.1.2-2.3.2-3.4.2zm12.4-3.9-.7-1.1 8.2-4.8.7 1.1zm-27.2-1.3-8.3-4.7.6-1.1 8.3 4.7zm43.6-8.3-.7-1.1 8.2-4.8.7 1.1zm-60.2-1.1-8.3-4.7.6-1.1 8.3 4.7zm76.6-8.6-.7-1.1 8.2-4.8.7 1.1zm-93.2-.7-8.3-4.7.6-1.1 8.3 4.7zm109.6-9-.7-1.1 8.2-4.8.7 1.1zm-126.1-.4-8.3-4.7.6-1.1 8.3 4.7z"/>
    <path fill="#fff" d="m195.7 371.9-3.9-2.2.6-1.1 3.9 2.2zm-11.8-7.9c-.5-.9-.7-1.8-.7-2.7 0-2.3 1.5-4.4 4.3-6l.6 1.1c-2.3 1.3-3.6 3-3.6 4.9 0 .7.2 1.4.6 2l-1.1.6zm182.3 7.4-.7-1.1 8.2-4.8.7 1.1zm11-12.8c-.6-1.2-1.7-2.2-3.3-3.1l.6-1.1c1.8 1 3.1 2.3 3.8 3.7l-1.2.6zm-89.4 160.6-.2-1.3c2.8-.5 5.3-1.4 7.3-2.6l3.9-2.3.7 1.1-3.9 2.3c-2.1 1.3-4.8 2.2-7.8 2.7zm-12.7-.4c-2-.5-3.8-1.2-5.3-2.1l-6-3.4.6-1.1 6 3.4c1.5.8 3.1 1.5 5 2l-.3 1.3zm35-10.9-.7-1.1 10.8-6.3.7 1.1zm-57.3-.8-10.9-6.1.6-1.1 10.9 6.1zm78.9-11.9-.7-1.1 10.8-6.3.7 1.1zm-100.6-.4-10.9-6.1.6-1.1 10.9 6.1zm-21.8-12.3-10.9-6.1.6-1.1 10.9 6.1zm143.9 0-.7-1.1 10.8-6.3.7 1.1zm-165.7-12.3-10.9-6.1.6-1.1 10.9 6.1zm187.2-.4-.7-1.1 10.8-6.3.7 1.1zm-209-11.9-7.7-4.4c-1.2-.7-2.2-1.4-3-2.3l.9-.9c.7.8 1.7 1.4 2.8 2.1l7.7 4.4-.6 1.1zm230.6-.8-.7-1.1 8.1-4.8c.9-.5 1.7-1.1 2.3-1.7l.9.9c-.7.7-1.6 1.4-2.6 1.9l-8.1 4.8zM153.9 439h-1.3v-12.5h1.3zm255.6-.9h-1.3v-12.5h1.3zM153.9 414h-1.3v-12.5h1.3zm255.6-.9h-1.3v-12.5h1.3z"/>
    <path fill="#fff" d="M282.5 475.1h-2v-1.3c4.4.3 8.6-.4 12.1-1.8l.5 1.2c-3.1 1.3-6.7 1.9-10.5 1.9zm-14.2-3.8-10.9-6.1.6-1.1 10.9 6.1zm35.6-4.3-.7-1.1 10.8-6.3.7 1.1zm-57.3-8-10.9-6.1.6-1.1 10.9 6.1zm78.9-4.7-.7-1.1 10.8-6.3.7 1.1zm-100.7-7.6-10.9-6.1.6-1.1 10.9 6.1zm122.2-5.1-.7-1.1 10.8-6.3.7 1.1zm-144-7.1-10.9-6.1.6-1.1 10.9 6.1zm165.5-5.6-.7-1.1 10.8-6.3.7 1.1zm-187.3-6.7-10.9-6.1.6-1.1 10.9 6.1zm208.9-6-.7-1.1 10.8-6.3.7 1.1zm-230.6-6.3-1.4-.8c-3.5-2-5.4-4.7-5.4-7.6 0-.6.1-1.3.3-1.9l1.2.4c-.2.5-.2 1-.2 1.5 0 2.4 1.7 4.7 4.8 6.4l1.4.8-.6 1.1zm250-9.1h-1.3v-.4c0-2.6-1.8-4.9-5-6.7l-2.4-1.3.6-1.1 2.4 1.3c3.6 2 5.6 4.7 5.7 7.7zm-246.4-8.4-.6-1.1 10.9-6.2.6 1.1zm226.8-6-2.1-1.1.6-1.1 2.1 1.1z"/>
</svg>
