<svg xmlns="http://www.w3.org/2000/svg" width="550" height="550" fill="none" viewBox="0 0 550 550">
    <path fill="#fff" d="M176.841 414.855c-7.814-4.759-15.266-8.929-23.047-13.562-.97-.578-1.763-.619-2.715-.089-13.94 7.796-27.888 15.581-41.835 23.369-3.8 2.123-7.578 4.278-11.41 6.333-1.508.808-3.16.823-4.775.186-5.574-2.171-10.64-12.666-4.325-16.6 14.717-8.596 30.009-16.24 44.505-25.147-7.525-4.611-15.081-8.874-22.632-13.399-1.219-.726-2.274-.585-3.445.07-16.77 9.444-33.68 18.651-50.387 28.21-7.21 4.585-13.036-3.629-13.473-9.933-.14-2.585.844-4.607 3.137-5.896a9463 9463 0 0 1 19.17-10.725c7.6-4.245 15.206-8.482 22.802-12.733 1.485-.834 1.485-1.1.104-2.015-4.87-3.226-9.137-8.359-9.144-14.474.174-19.803.322-39.605.496-59.405-.518-9.996 1.26-15.403 9.796-21.229a8959 8959 0 0 0-43.006-26.128c-6.93-3.593-2.766-12.855 2.23-16.114 2.226-1.504 4.803-1.63 7.07-.26 11.033 6.689 22.077 13.359 33.11 20.048a2508 2508 0 0 1 17.562 10.725c1.17.722 2.174.808 3.404.089 6.848-4.011 13.732-7.962 20.603-11.936 1.155-.671 1.133-1.052-.067-1.778-13.396-8.115-26.773-16.266-40.199-24.332-4.01-2.412-4.248-4.919-3.24-8.919 1.192-4.899 6.91-10.877 12.233-7.644 9.759 5.837 19.306 11.829 29.154 17.533.659-4.53.041-9.063.241-13.633.018-2.285 1.115-4.111 2.84-5.555 1.7-1.426 2.104-4.948.626-6.6-2.311-2.585-3.329-5.526-3.148-9.015.245-5.277.3-10.595.086-15.869.37-7.307 12.362-7.5 11.91-12.433.215-1.859-.878-4.726 1.111-5.785 22.088-12.829 44.225-25.577 66.276-38.465 3.755-2.663 4.747 5.377 12.44.333 15.081-9.166 30.532-17.792 45.872-26.529 8.211-4.47 17.973-1.41 25.14 3.652 27.043 15.725 53.92 31.736 81.015 47.38 3.289 1.348 6.944-4.322 10.033-3.407 11.003 6.436 21.892 13.073 32.903 19.502.87.497 1.259 1.041 1.196 2.074-.1 1.641.085 3.304-.085 4.934-.548 5.181 5.944 3.614 6.688 9.903-.148 4.381-.214 8.829-.1 13.229 1.345 5.626 4.582 10.944-2.544 14.14-2.218 1.178-2.381 2.659-.496 4.282 2.826 2.225 3.259 5.199 2.548 8.592.103 4.577-.193 9.007.248 13.592 11.036-5.37 21.432-11.985 32.284-17.759 6.051-3.792 12.436 4.593 12.559 10.504.155 2.555-.926 4.599-3.2 5.87-12.596 7.055-25.199 14.092-37.806 21.132-.978.704-4.867 1.722-2.519 2.978 6.359 3.729 12.848 7.259 19.04 11.251 3.015 1.945 5.226 1.9 8.293.056 15.262-8.881 30.869-17.196 46.231-25.906 6.078-3.734 12.429 4.677 12.511 10.581.133 2.54-.963 4.57-3.237 5.844-13.196 7.337-26.351 14.788-39.562 22.08-1.348.637-.896 1.163-.181 1.9 4.174 3.667 7.385 8.415 7.044 14.192-.233 20.522-.678 41.043-.6 61.565.23 9.347-5.085 14.71-12.307 19.247 15.566 9.852 31.555 18.885 47.065 28.762 4.663 4.204.563 11.996-3.663 14.91-2.144 1.475-4.425 1.956-6.788.545a5016 5016 0 0 1-20.918-12.592c-11.233-6.744-22.351-13.689-33.64-20.336-.488-.278-1.411-.271-1.903.011-7.078 4.025-14.114 8.114-21.159 12.199-1.27.737-1.274 1.093-.018 1.852 14.455 8.744 28.914 17.477 43.372 26.214 6.045 3.54 2.297 12.755-2.685 15.947-2.163 1.485-4.829 1.589-7.077.223-11.552-7.015-23.118-14.007-34.673-21.014-5.863-3.556-11.729-7.111-17.566-10.711-1.1-.678-2.041-.685-3.144-.041-6.811 3.967-13.644 7.9-20.47 11.84-1.363.786-1.392 1.141-.089 1.934 10.629 6.451 21.266 12.892 31.895 19.336 3.589 2.178 7.219 4.292 10.752 6.559 2.026 1.3 2.896 3.366 2.618 5.729-.415 5.796-6.374 13.652-12.659 10.167-17.288-10.385-34.424-21.029-51.787-31.288-.54-.304-1.544-.333-2.073-.033-18.903 10.658-37.503 21.891-56.513 32.335-17.581 8.019-39.225 5.963-55.354-4.54-15.743-9.478-31.772-18.477-47.527-27.936-1.471-.885-2.652-.837-4.108-.022-14.825 8.307-29.68 16.569-44.524 24.843-2.818 1.57-5.648 3.119-8.444 4.726-2.196 1.263-4.404 1.167-6.4-.196-3.948-2.693-6.033-6.471-5.929-11.33.052-2.355 1.392-3.892 3.333-4.981 15.055-8.462 30.017-16.655 45.046-25.217zm236.154-52.209c.737 2.207.23 4.915 2.163 6.555 2.885 2.66 6.207 4.686 9.611 6.608.126-.041.252-.086.377-.126-3.011-12.004 5.641-26.284 17.685-29.207-2.367-1.625-4.655-2.888-6.829-4.322-6.748-4.459-13.392 1.408-17.459 6.489 3.563-6.218 11.237-11.303 18.262-7.544 3.567 2.055 7.459 4.059 10.752 6.503 6.959 6 1.585 11.678 4.496 13.237 2.496 1.111 7.451 5.707 9.911 4.511 5.396-3.137 10.866-7.733 10.973-14.511.063-19.836.722-39.609.4-59.442-5.407 8.896-15.144 11.763-23.34 17.148a83283 83283 0 0 0-48.424 28.013c-23.688 13.689-47.402 27.325-71.075 41.032-13.503 6.955-25.784 17.388-40.954 20.336-12.021 2.097-25.117 1.348-36.135-4.211-18.874-10.751-37.584-21.788-56.339-32.743a64340 64340 0 0 0-79.723-46.65c-8.225-4.811-16.436-9.651-24.67-14.44-4.484-2.544-8.629-5.678-11.262-10.222-1.27 19.022-.5 38.439-.933 57.602-.111 6.518 3.878 12.151 9.418 15.303.53.34 1.581.381 2.137.085 1.911-1.333 13.477-6.492 12.818-8.215-.667-2.159.089-4.14.385-6.21.374-2.63 2.204-4.245 4.041-5.504 3.066-2.1 6.481-3.7 9.792-5.429.633-.33 1.459-.289 2.2-.419l.178.567c-2.626 1.511-5.248 3.018-7.781 4.477 12.895 6.189 18.495 16.092 16.803 30.199 2.751-1.526 5.455-3.022 8.155-4.522l.381.433c-3.022 3.323-7.392 5.015-11.288 7.089-4.059 2.13-8.829 1.289-12.163-1.855-1.692-1.623-3.27.592-5.192 1.34a2184 2184 0 0 0 22.884 13.359c.5.289 1.363.485 1.808.252 3.937-2.085 7.825-4.263 11.695-6.47.36-.204.789-.893.689-1.197-.737-2.303.023-4.451.423-6.67.455-2.511 2.296-3.974 4.055-5.311 1.892-1.437 4.133-2.444 6.3-3.481 2.137-1.022 3.944-3.096 6.77-2.248-2.945 1.667-5.881 3.33-8.774 4.963 12.877 6.181 18.473 16.099 16.785 30.465 3.792-2.37 7.418-4.64 10.64-6.655-1.559 2.267-3.885 4.767-7.029 5.989-5.752 3.855-11.674 7.07-17.911 2.04-1.911-1.448-2.715-1.429-4.47.515 7.255 4.722 14.985 8.818 22.444 13.252.562.322 1.581.396 2.133.103 1.766-1.189 11.336-5.488 11.188-7.003-.748-2.359.022-4.559.448-6.826 1.286-4.944 6.448-6.514 10.393-8.788 2.959-1.8 6.088-3.323 9.703-2.963q.062.198.118.396c-4.685.418-8.04 3.418-11.888 5.389 12.9 6.225 18.462 16.11 16.814 30.221 6.818-4.093 12.5-5 12.059-14.481 1.352 4.929-.863 9.336-4.837 12.01-5.052 2.308-9.788 7.304-15.67 6.611-6.307-.729-7.014-5.955-9.436-2.455 15.929 9.825 32.413 18.803 48.416 28.528 11.555 7.526 25.522 10.444 39.158 8.604 12.514-.982 22.721-8.693 33.347-14.618 12.762-7.441 25.584-14.496 38.25-22.14-5.674-4.722-8.07 5.314-16.488.492-3.578-2.181-7.714-3.929-10.396-7.247l.367-.36 7.17 4.245q.201-.102.396-.204c-2.689-11.929 5.707-25.992 17.666-28.929l-.178-.44-7.525-4.645.196-.414c4.152.551 7.196 3.818 10.874 5.573 4.225 2.33 5.948 7.215 5.003 11.785-.229 1.115-.066 1.785.989 2.4 3.318 1.926 6.589 3.941 9.844 5.978.959.6 1.745.555 2.704-.004 7.14-4.215 14.421-8.192 21.484-12.544l-.181-.704c-.819 0-1.945-.344-2.408.063-1.777 1.574-3.925 2.137-6.081 2.8-2.17.667-4.278.052-6.059-.859-3.363-1.722-6.515-3.863-9.7-5.918-.7-.452-1.151-1.282-1.718-1.934l.389-.366 7.948 4.726q.194-.077.389-.152c-2.911-12.17 5.603-25.966 17.64-29.21-3.785-2.156-6.882-5.126-11.096-6.133 2.396.596 5.018.181 7.096 1.903 2.826 2.056 6.363 3.311 8.985 5.593 6.233 5.718 1.988 10.51 3.996 12.751a210 210 0 0 0 9.329 5.652c.493.281 1.422.266 1.926-.015 6.348-3.563 12.681-7.163 18.932-10.904-1.333.167-2.577.46-3.725.971-4.093 1.492-7.959-1.037-11.159-3.293-5.826-3.444-10.837-6.281-10.492-13.999zM176.304 255.095c-9.648-6.263-19.769-11.659-29.658-17.537-.511-.296-1.448-.392-1.929-.122-6.959 3.93-13.878 7.937-20.8 11.933-8.829 5.096-17.692 10.137-26.462 15.336-6.773 4.408-16.284 8.274-16.306 17.722-.412 13.451 19.117 19.099 28.436 25.769 46.194 26.992 92.329 54.091 138.531 81.075 7.589 4.444 15.851 7.715 24.733 8.1 12.795 1.437 25.232-2.156 36.061-8.896 11.041-6.27 21.985-12.718 32.977-19.07 29.706-17.062 59.308-34.299 89.022-51.35q14.24-8.205 28.462-16.444c7.763-3.929 16.885-11.177 13.455-20.965-1.389-4.163-4.307-7.256-7.974-9.47-9.822-5.933-19.732-11.715-29.628-17.529-8.704-5.115-17.44-10.167-26.132-15.3-1.067-.629-1.889-.692-2.971-.063-9.81 5.752-19.492 11.152-29.295 16.989 11.789 6.947 23.488 13.725 35.247 20.684 4.403 2.311 4.859 2.437 6.777 7.548 1.189 2-1.829 4.085-2.674 5.763-.87 1.048-1.729 2.236-2.859 2.914-5.888 3.526-11.866 6.907-17.814 10.337-33.076 18.944-65.949 38.247-99.055 57.135-4.408 2.814-8.885 5.57-14.181 6.359-5.23 1.563-10.463-.089-15.337-1.563-41.028-24.107-82.156-48.043-123.195-72.134-2.081-1.23-4.478-2.082-5.874-4.319-.848-1.603-3.022-3.055-2.837-4.926 1.908-2.696 2.893-5.951 6.196-7.762 11.922-6.563 23.225-13.411 35.084-20.218zm-35.691-95.548c-10.463 5.622-15.766 9.714-2.237 16.64 30.236 17.777 60.542 35.424 90.785 53.187 10.385 6.081 20.77 12.158 31.166 18.217 8.466 6.141 18.781 8.963 28.188 2.815 31.936-18.714 64.134-36.999 96.155-55.579 11.759-6.867 23.681-13.474 35.303-20.57 4.766-3.059 2.092-8.596-2.648-10.222-.441 2.452.688 5.011-.96 6.959-.311-.607-.892-1.129-.714-1.866-.012-4.685.451-9.296.14-13.981-10.699 5.596-20.914 12.096-31.461 18.003-.926.537-1.345 1.2-1.341 2.34.018 4.526-.048 9.052-.167 13.578-.015.57-.522 1.129-.804 1.692-.225-.589-.648-1.174-.644-1.763-.044-4.788.359-9.314.126-14.136-10.577 6.148-20.892 12.151-31.469 18.221-.996.571-1.322 1.211-1.326 2.315a574 574 0 0 1-.193 13.885c-.011.496-.492.981-.755 1.47-.233-.489-.67-.978-.67-1.463-.06-4.822.355-9.488.085-14.325-10.681 5.596-20.859 12.062-31.384 17.962-.926.533-1.367 1.174-1.367 2.322.007 4.578-.078 9.155-.204 13.729-.014.526-.5 1.037-.766 1.552-.226-.537-.645-1.074-.641-1.607-.07-4.711.315-9.352.052-14.07-10.648 5.689-20.922 12.162-31.473 18.077-.948.548-1.233 1.174-1.237 2.204-.155 4.962.111 10.01-.381 14.936-.293.581-1.074.537-1.23-.163-.093-4.863.096-9.774.126-14.651.018-1.059-.274-1.767-1.278-2.359-10.644-6.2-20.892-12.63-31.647-18.7-.24 4.996-.203 9.618-.4 14.566-.018.493-.444.967-.681 1.452-.189-.478-.537-.952-.537-1.429 0-4.474-.026-8.952.152-13.422.066-1.689-.548-2.567-1.941-3.385-10.492-6.096-20.533-12.411-31.147-18.381-.248 5.159-.144 9.992-.315 15.111-.011.485-.44.959-.678 1.437-.429-.878-.777-1.737-.603-2.737.07-4.271.078-8.541.252-12.804.063-1.529-.593-2.314-1.804-3.029-10.514-6.166-20.707-12.477-31.314-18.54-.24 5.089-.126 9.985-.226 15.055.089.63-.022 1.567-.718 1.696-.889-.192-.774-1.285-.737-2.007.085-4.681.126-9.363.289-14.037.044-1.289-.515-1.948-1.526-2.548-10.637-6.277-20.87-12.47-31.58-18.74-.008 5.37-.16 10.411-.237 15.737-.015.811.044 1.714-1.389 1.574v-10.233zm281.419 51.138c-33.854 20.437-68.442 39.525-102.548 59.543-8.826 5.099-17.629 10.24-26.492 15.277-3.637 2.066-7.036 4.67-11.251 5.559-5.233 1.107-10.448.959-15.148-1.7-10.251-5.804-20.358-11.866-30.524-17.825-35.295-20.703-70.553-41.262-105.848-61.994-.345 4.214-.13 8.581-.311 12.825-.137 5.655 6.573 7.037 10.31 9.807 34.332 19.992 68.561 40.158 102.859 60.205 7.204 4.215 14.459 8.341 21.581 12.685 8.148 5.315 17.836 3.918 25.518-1.419 34.295-19.651 68.482-39.483 102.692-59.279 8.6-4.97 17.222-9.899 25.799-14.91 2.252-1.315 3.574-3.204 3.407-6.059-.248-4.322.037-8.311-.044-12.711zm.303-36.402c-32.343 19.584-65.453 37.865-98.077 56.998-10.515 6.07-21.029 12.148-31.562 18.181-3.807 2.181-7.415 4.759-11.937 5.488-10.288 2.241-18.517-4.955-26.924-9.614l-27.999-16.366c-31.903-18.448-63.776-37.632-95.552-55.946 0 4.818-.056 9.592.052 14.362.018.83.529 1.878 1.163 2.419 9.655 7.203 20.71 12.399 30.935 18.751 32.792 19.184 65.535 38.458 98.367 57.575 16.988 12.067 25.232 3.556 40.628-5.144 32.106-18.533 64.216-37.065 96.315-55.613a5740 5740 0 0 0 21.625-12.629c1.633-.955 2.881-2.333 2.929-4.259.115-4.614.037-9.236.037-14.207zm-288.318 19.284c0 3.678.144 6.859-.041 10.022-.174 2.963 1.171 4.9 3.541 6.3 31.073 18.266 62.22 36.402 93.3 54.65 49.483 26.61 34.632 34.036 84.263 4.263 32.918-19.066 65.905-38.014 98.848-57.035 2.971-1.704 4.748-3.885 4.415-7.548-.318-3.037.178-5.937-.148-9.018-33.203 18.992-66.249 38.187-99.363 57.335-10.511 6.073-20.977 12.229-31.58 18.143-7.078 3.948-14.433 3.9-21.47-.085-44.05-25.551-87.7-51.457-131.765-77.027m84.104-78.708-.122.519c8.503 4.796 16.814 10 25.225 14.977 1.103.667 1.952.419 2.948-.163a7362 7362 0 0 1 32.025-18.562c.348-.2 1.033-.174 1.388.037 9.382 5.552 18.74 11.144 28.107 16.725 12.884 7.678 25.773 15.351 38.646 23.044 1.045.626 1.956.663 2.993-.008 7.326-4.399 14.799-8.566 22.173-12.888.956-.552.785-1.033-.085-1.541-14.64-8.551-29.262-17.125-43.906-25.677-13.362-7.877-26.862-15.54-40.158-23.525-5.847-3.596-13.54-4.41-19.773-1.459-16.584 9.326-32.98 19.011-49.468 28.514zm153.172 161.872c-3.97-3.263-9.003-5.389-13.411-8.155-.555-.311-1.592-.267-2.17.052-24.562 13.584-48.968 27.447-73.508 41.072-7.47 4.167-14.951 8.322-22.422 12.492-8.107 4.037-18.566 12.4-12.884 22.429 1.859 3.363 4.563 5.926 7.755 7.914a758 758 0 0 0 19.607 11.796c1.811 1.056 3.859 1.522 6.07.767 5.248-.889 9.259-3.026 14.144-5.607-10.067-5.8-23.329-12.741-17.037-26.455 2.034-4.14 5.441-6.833 9.337-9.011 8.537-4.773 17.096-9.499 25.632-14.269 19.577-11.107 39.347-21.851 58.891-33.018zm32.914 19.14c-6.797-4.422-13.896-8.252-20.877-12.37-.656-.374-1.852-.33-2.563.011-28.684 15.859-57.254 31.958-85.867 47.954-2.389 1.355-4.778 2.811-6.863 4.577-3.263 2.512-1.13 6.548 1.822 8.359 4.437 2.748 8.926 5.411 13.363 8.163 1.062.659 1.948.578 2.977-.022 5.481-3.204 10.989-6.363 16.488-9.54 27.211-15.748 54.306-31.344 81.523-47.125zm-101.019 58.32c-4.859-3.159-9.655-5.778-14.447-8.952-5.241-3.003-4.741-9.355.522-12.021 31.706-18.114 63.697-35.732 95.574-53.543q.121.126.248.252l-1.2 2.248c6.833 4.011 13.629 8.074 20.503 12.011.574.326 1.533.537 2.067.281 4.307-2.177 10.27-5.188 10.958-10.499-.785-2.311-1.651-4.382-4.099-5.782-12.367-7.062-24.599-14.358-36.914-21.514-.533-.307-1.555-.262-2.115.045-3.729 2.044-7.407 4.181-11.073 6.333-1.819 1.067-3.919 1.874-4.526 4.378 4.548 2.677 9.122 5.388 13.737 8.044.34.196 1.003.103 1.396-.097 2.3-1.04 4.263-2.959 6.903-2.97l.122.522c-20.684 11.774-41.572 23.24-62.319 34.918-7.47 4.17-14.963 8.299-22.411 12.51-4.188 2.37-8.484 4.607-12.421 7.355-8.115 5.671-8.722 15.933-1.156 22.34 3.715 3.145 8.167 5.419 12.337 8.011 1.896.826 6.04-2.863 8.318-3.874zm-126.136-43.954c2.478 1.441 4.578 2.585 6.596 3.863.815.515 1.382.526 2.222.048 4.667-2.663 9.396-5.218 14.063-7.881 8.785-5.041 21.34-10.089 19.314-22.459-.37-2.636-1.311-4.848-3.918-6.184-12.13-6.826-24.025-14.107-36.069-21.096-.93-.548-1.811-.552-2.752.004-10.078 5.892-20.218 11.684-30.332 17.514-3.885 2.155-9.259 4.885-9.363 10.014 2.5 4.822 6.252 6.382 10.789 8.893 2.048.892 3.825-1.137 5.559-1.963 12.11-6.978 24.128-13.863 36.206-20.948-.245-.666-.46-1.259-.767-2.096 4.892 2.348 9.259 5.418 13.948 8.129 2.822 1.73 5.844 3.23 7.799 6.089 3.474 4.274-.063 8.644-3.674 11.24-9.899 5.878-19.517 11.111-29.621 16.829zm-39.039 146.194c22.299-11.114 43.817-24.273 65.735-36.257 5.381-3.345 2.533-10.607-1.53-13.785-2.033-1.807-4.311-1.963-6.663-.652a22408 22408 0 0 1-49.398 27.562 1636 1636 0 0 0-14.192 8.007c-1.948 1.115-2.659 2.926-2.433 5.093.618 4.581 3.381 9.451 8.477 10.036zm-85.234-51.82c22.44-11.007 44.02-24.377 66.061-36.339 5.074-3.341 2.348-10.452-1.556-13.563-3.533-3.685-7.388-.374-10.896 1.552-13.97 7.77-27.95 15.514-41.902 23.314-5.903 3.3-11.8 6.615-17.68 9.952-1.915 1.085-2.552 2.885-2.374 4.959.544 4.585 3.3 9.414 8.351 10.125zm42.643 25.921c13.126-5.973 25.466-14.092 38.276-20.828 9.167-5.119 18.348-10.207 27.459-15.418 1.092-.626 2.288-1.789 2.603-2.934 1.215-4.414-.789-7.914-3.955-10.755-2.522-2.263-4.133-2.018-7.03-.607-7.062 4.033-14.243 7.9-21.358 11.862-14.044 7.845-28.103 15.667-42.091 23.607-5.859 3.704.082 14.77 6.092 15.073zm318.743 28.051c4.841-1.37 7.985-5.388 8.526-10.292.252-1.963-.474-3.667-2.152-4.792-10.833-6.611-21.751-13.104-32.591-19.707-9.985-6.055-19.947-12.151-29.936-18.199-4.604-2.919-9.633 2.503-10.748 6.714-.97 3.511-.759 5.852 2.411 7.748 21.666 12.54 42.502 26.629 64.487 38.532zm95.73-57.909c-.085-2.088-.733-3.651-2.452-4.685-5-3.014-9.977-6.066-14.966-9.096-15.51-9.484-31.125-18.799-46.628-28.299-7.473-5.57-16.955 10.17-8.662 14.3 20.417 12.222 40.706 24.662 61.057 36.995 5.814 3.718 11.214-4.082 11.651-9.211zm-119.518-8.929c-.196 1.83.863 3.341 2.578 4.385a27205 27205 0 0 1 62.12 37.658c6.77 4.292 15.525-10.133 8.714-14.185-12.077-7.333-24.188-14.618-36.261-21.954-8.755-5.308-17.485-10.663-26.284-15.896-5.504-2.574-10.722 4.066-10.863 9.992zm-43.828-198.207c-10.566-6.615-21.239-12.64-31.872-19.103-.893-.537-1.534-.485-2.385.015-5.122 3.007-10.278 5.959-15.415 8.944-5.003 2.907-9.984 5.851-14.995 8.748-1 .577-1.067.918.003 1.514 9.963 5.971 19.97 11.885 29.91 17.892 1.422.863 2.474.826 3.893-.015 10.396-6.151 20.377-11.769 30.861-17.995M177.23 131.237c10.507 6.566 21.125 12.562 31.688 18.995.989.593 1.685.608 2.655.041 10.592-6.207 20.899-12.048 31.514-18.362-10.359-6.385-20.766-12.374-31.136-18.703-1.352-.819-2.393-.86-3.752-.06-10.373 6.126-20.551 11.926-30.969 18.085zm134.691 1.292c-10.629-6.474-21.243-12.651-31.891-19.062-.852-.511-1.5-.537-2.393-.019-10.547 6.241-21.151 12.111-31.643 18.485 10.366 6.218 20.551 12.199 30.851 18.458 1.607.978 2.803.978 4.426.004 10.281-6.126 20.247-11.725 30.646-17.866zm-134.532 39.176c10.281 6.393 20.677 12.304 30.992 18.611 1.511.911 2.692.87 4.185-.011 10.218-6.056 20.443-11.833 30.665-17.926-10.388-6.651-21.177-12.573-31.687-19.028-1.015-.608-1.7-.512-2.648.04-10.552 6.181-20.952 12.052-31.507 18.314m34.577 20.463c10.407 6.807 21.325 12.706 31.913 19.24.782.466 1.315.47 2.085.022 10.652-6.252 21.155-12.244 31.821-18.555-10.344-6.363-20.632-12.274-30.972-18.573-1.508-.912-2.682-.908-4.189-.015-10.289 6.092-20.266 11.784-30.658 17.881m-.297-40.343c10.57 6.37 20.963 12.444 31.499 18.799 1.119.674 1.948.726 3.093.055 10.492-6.166 20.814-12.01 31.336-18.24-10.352-6.459-20.874-12.388-31.281-18.725-1.277-.766-2.3-.77-3.551-.037-10.415 6.126-20.692 11.9-31.088 18.148zm100.6 61.616c-10.429-6.493-20.854-12.433-31.324-18.796-1.263-.759-2.252-.726-3.519.019-10.088 6.177-20.758 11.596-30.584 18.11 9.918 6.944 20.962 12.514 31.247 19.014.982.589 1.711.571 2.678.004 10.644-6.226 20.743-12.018 31.506-18.351zm-103.525-61.583c-10.418-6.666-21.192-12.618-31.732-19.084-.93-.556-1.582-.541-2.515.003-10.763 6.326-20.992 12.085-31.817 18.537 10.632 5.777 20.825 12.329 31.269 18.469 1.455.885 2.566.893 4.033.022 10.314-6.103 20.407-11.777 30.765-17.947zm71.782.511c10.481 6.689 21.292 12.663 31.891 19.151.826.496 1.371.522 2.212.03 10.644-6.267 21.132-12.152 31.769-18.525-10.348-6.289-20.363-11.993-30.603-18.285-1.766-1.089-3.018-1.2-4.822-.122-10.166 6.07-20.192 11.722-30.451 17.747zm134.606 1.337c-10.107-6.381-20.37-12.081-30.499-18.377-1.903-1.167-3.281-1.074-5.114.015-10.078 6.063-20.214 11.562-30.244 17.769 10.463 6.289 20.514 12.096 30.851 18.411 1.559.955 2.663 1.074 4.27.118 10.281-6.122 20.396-11.792 30.736-17.936m-34.436 19.999c-10.173-6.759-21.006-12.577-31.402-19.043-1.119-.674-2.052-.545-3.126.081-10.422 6.115-20.658 11.97-31.099 18.144 10.274 6.744 21.118 12.551 31.573 19.032 1.056.634 1.789.586 2.793-.003 10.518-6.133 20.677-11.952 31.261-18.207zm-68.63-.733c-10.474-6.518-21.029-12.488-31.555-18.884-1.081-.649-1.903-.656-2.966-.034-10.526 6.189-20.874 11.978-31.381 18.314 10.585 6.407 20.844 12.4 31.373 18.759 1.208.729 2.141.744 3.363.026 10.452-6.167 20.707-11.911 31.166-18.185zM150.19 294.378c7.9 4.978 16.029 9.385 24.011 14.222 1.074.637 1.903.622 2.977.015 10.333-6.181 21.581-11.04 31.184-18.34 3.545-2.548 1.767-7.522-1.359-9.622-4.959-3.255-10.059-6.307-15.166-9.333-.519-.307-1.57-.17-2.148.159-13.214 7.648-26.414 14.992-39.502 22.896zm-43.283-36.776c-17.055-10.644-34.343-20.803-51.494-31.284a5.43 5.43 0 0 0-5.785.107c-4.33 2.626-8.078 10.811-3.019 14.03 14.125 8.584 28.288 17.103 42.406 25.699 1.1.67 2.004.751 3.11.077 5.012-2.974 9.656-5.581 14.782-8.633zm342.59 2.459c4.437 3.633 10.474 6.237 15.422 9.396.426.245 1.211.219 1.667-.007 13.547-7.226 26.858-14.907 40.25-22.425 5.003-3.322 2.485-10.226-2.152-13.948-1.855-1.455-3.848-1.67-5.874-.57-4.548 2.47-9.047 5.029-13.562 7.551-11.944 6.685-23.807 13.274-35.747 20.007zm-40.368-23.477c3.022 2.241 6.51 3.652 9.525 5.893 2.585 1.822 4.893 2.229 7.367.04 12.795-7.051 25.584-14.236 38.317-21.432 7.166-4.618-1.719-19.014-8.948-14.025-8.496 4.848-17.111 9.481-25.618 14.31-2.892 1.641-6.203 2.711-7.555 6.455-.841 2.326-3.5 3.174-5.559 4.393-2.456 1.455-4.937 2.863-7.533 4.366zm-265.087-.403c-4.688-4.219-16.447-6.548-15.51-14.222.159-1.3-.582-1.841-1.478-2.385-9.196-5.578-18.395-11.152-27.588-16.74-1.822-1.108-3.685-1.615-5.662-.445-4.504 2.334-9.015 10.785-3.656 14.263 13.581 8.314 27.244 16.488 40.802 24.836 1.456.904 2.541.955 3.997.03 2.881-1.837 5.892-3.474 9.099-5.337zm75.89 44.205c2.326 7.907-.704 16.407-7.903 20.418-8.267 5.381-17.77 9.411-25.696 15.033 3.704 1.844 7.219 4.096 10.778 6.207 1.292.804 2.292.404 3.4-.226 14.962-9.077 30.932-16.062 45.131-26.377-8.733-5.114-17.051-9.988-25.706-15.058zm-10.866 48.587c8.907 5.215 17.44 10.211 25.995 15.218-2.692-21.151 14.781-28.376 30.392-37.154-3.256-1.9-6.267-3.544-9.148-5.388-1.308-.837-1.945-.452-2.93.496-1.911 1.833-3.84 3.774-6.096 5.107-12.814 7.515-25.143 14.37-38.217 21.725zm69.368-18.78c-3.837 0-7.396-.793-10.915-1.971-.57-.189-1.426.097-2.015.411-7.655 4.482-16.117 7.922-22.395 14.389-5.329 5.744-8.048 12.284-6.407 20.243.285 1.389.829 2.404 2.126 3.156 10.596 5.752 20.521 12.922 31.521 17.833.074-.171.144-.341.218-.508-10.34-7.096-31.269-13.855-25.506-29.958 1.833-4.341 5.114-7.433 9.025-9.763 8.015-4.777 16.27-9.147 24.344-13.829zM200 323.648c2.703 1.237 6.61 5.118 9.07 3.718 11.958-6.7 23.951-13.396 35.883-20.162 3.197-1.819 6.026-4.17 8.5-7.167-2.118-1.251-4.078-2.451-6.092-3.551-1.648-.308-2.719 1.822-4.071 2.466-14.262 8.781-28.706 16.329-43.29 24.696M419.773 202.33c-.104 4.281-.03 7.704-4.178 9.922-4.252 2.47-8.507 4.929-12.759 7.396-28.11 16.347-56.346 32.48-84.474 48.798a76140 76140 0 0 0-28.051 16.251c-6.648 4.508-15.766 6.593-23.136 2.522-43.147-24.921-85.982-50.386-129.095-75.371-5.059-2.863-5.633-5.444-5.522-11.214-3.874 2.689-2.567 7.64 1.2 9.418 6.029 3.578 12.081 7.115 18.129 10.659 28.169 16.507 56.368 32.965 84.522 49.494 9.759 5.715 19.5 11.459 29.299 17.103 7.067 4.067 14.255 4.093 21.359.067 14.977-8.559 29.88-17.244 44.828-25.851 24.321-14.17 48.772-28.114 73.119-42.239 4.737-2.748 9.477-5.496 14.181-8.296 3.281-1.648 4.233-6.648.574-8.663zM352.29 423.296c-2.885-2.148-6.596-3.348-8.174-6.559-1.626-5.104 2.404-11.629 6.815-13.896 3.677-2.089 7.163 1.448 10.262 3.148 2.756 1.985 1.093-5.129 1.037-6.3-5.696-11.196-18.769 2.37-21.425 9.552-2.203 5.144-4.311 13.895 2.245 16.736 3.381.993 6.81-.478 9.24-2.681m43.669-23.648c-2.841-2.314-7.748-3.677-8.463-7.121-1.152-5.959 4.685-15.667 11.533-13.585 2.404 1.004 4.47 2.781 6.885 3.826l.507-.215c-.163-2.011-.181-4.048-.518-6.033-2.27-8.293-12.433-3.871-16.159.837-4.985 5.614-9.44 14.151-6.581 21.714 2.574 5.244 8.881 3.963 12.799.574zm53.461-40.568.611-.171c-.211-2.214-.245-4.466-.682-6.637-.489-2.44-4.307-4.677-6.74-4.181-9.455 2.267-15.292 11.811-16.733 20.959-.804 5.196 2.033 11.57 8.489 9.514 1.792-.492 3.629-.978 4.925-2.778-2.774-2.029-6.603-3.311-8.051-6.514-1.496-5.189 2.3-11.355 6.603-13.707 1.922-1.048 3.882-1.122 5.878.348 1.737 1.278 3.792 2.13 5.703 3.17zm-343.135-4.548c4.299-1.574 8.562-6.041 12.77-2.526 2.633 2.133 4.34 4.866 5.336 8.07 2.223 5.789-3.118 8.4-7.403 10.837-2.618 1.44 2.618 2.833 3.592 3.507 5.315 2.433 9.607-3.074 8.948-8.063-.496-9.466-6.118-19.399-15.599-22.414-6.252-1.57-8.726 5.526-7.648 10.589zm42.579 25.906c4.223-1.522 8.545-6.055 12.756-2.515 2.674 2.167 4.403 4.948 5.362 8.215 2.145 5.844-3.303 8.288-7.551 10.751-2.348 1.308 2.663 2.745 3.544 3.367 4.415 2.303 8.463-1.419 8.937-5.804 1.044-9.877-5.578-21.48-15.337-24.573-6.162-1.689-8.933 5.53-7.707 10.559zm52.21 42.998c1.955 2.271 4.418 3.026 7.014 3.3 8.485-.066 7.267-11.829 4.626-17.218-3.033-6.859-9.778-16.254-18.373-13.029-2.837 1.634-3.989 6.656-2.656 9.722 3.981-1.47 8.455-5.892 12.488-2.378 2.637 2.13 4.348 4.86 5.308 8.082 2.377 6.429-3.996 8.588-8.407 11.521m218.55-227.617c4.278-1.203 5.734-4.07 4.389-7.511-1.152 4.43-3.5 3.863-4.389 7.511M165.271 386.39c-.326-1.811-.822-3.574-2.537-5.126.963 1.948 1.752 3.537 2.537 5.126m267.69-23.199.352.222c.822-1.333 1.64-2.667 2.463-4.004l-.36-.215zm-87.052 47.172.341.285q1.25-1.977 2.496-3.955l-.348-.215q-1.244 1.942-2.493 3.885z"/>
</svg>
