<svg xmlns="http://www.w3.org/2000/svg" width="550" height="550" fill="none" viewBox="0 0 550 550">
    <path fill="#fff" fill-rule="evenodd" d="M474.799 278.521c.326-6.604-3.511-10.729-8.009-15.202h-.011c8.328-4.787 16.721-9.374 25.121-13.965 5.246-2.867 10.495-5.735 15.731-8.655 2.001-1.1 3.364-3.729 3.116-5.87-.389-5.65-6.142-13.691-12.265-10.424-.555.285-1.09.604-1.624.924-.387.232-.775.463-1.17.682l-14.965 8.267a30726 30726 0 0 0-31.314 17.311c-1.122.62-2.133.565-3.185-.047-2.869-1.793-5.846-3.457-8.823-5.122-4.648-2.599-9.297-5.199-13.537-8.287 7.952-4.987 16.294-9.479 24.636-13.97 5.519-2.971 11.037-5.943 16.442-9.057 2.115-1.166 3.497-3.667 3.241-5.947-.344-5.805-6.493-13.952-12.565-10.249a7081 7081 0 0 0-20.377 11.288q-5.09 2.828-10.184 5.652c-1.664.921-1.975.73-1.99-1.213.037-1.39-.001-2.792-.04-4.195-.066-2.382-.132-4.766.174-7.095.474-3.223-.334-5.625-2.816-7.671-.548-.451-.855-1.316-1.037-2.049-.52-2.201.942-3.067 2.585-4.039 2.016-1.194 4.304-2.548 3.535-6.73-.196-.888-.517-1.757-.838-2.625-.444-1.2-.885-2.395-.988-3.623-.207-2.241-.127-4.505-.047-6.77.063-1.801.127-3.603.047-5.393-.386-2.915-2.382-4.634-4.746-6.009-13.942-8.117-27.915-16.184-41.889-24.251-10.531-6.08-21.062-12.159-31.58-18.261-.834-.484-1.734-1.235-2.093-2.079-1.267-2.981-2.893-5.683-5.209-7.975-7.416-7.344-16.781-10.626-26.771-12.639a55 55 0 0 0-2.296-.395c-2.045-.323-4.102-.648-5.858-1.537-2.708-1.308-5.395-2.94-8.098-4.581-8.698-5.283-17.557-10.663-27.82-5.653-27.785 15.563-55.424 31.424-83.061 47.284-16.981 9.744-33.961 19.488-50.975 29.163-4.379 2.671-4.254 4.795-3.988 9.344l.021.35-.052 3.36c-.051 3.361-.101 6.722-.171 10.082-.048 2.274.66 4.261 2.479 5.654 1.534 1.03 1.495 2.487 1.453 4.016-.009.36-.019.725-.009 1.088.164 1.774-.742 2.575-1.759 3.474-1.153 1.018-2.448 2.163-2.493 4.993-.088 1.639-.036 3.268.015 4.893.08 2.494.159 4.979-.267 7.474-5.907-3.43-11.715-6.919-17.53-10.412-3.918-2.353-7.839-4.708-11.794-7.048-2.4-1.43-4.709-1.02-6.916.469-5.013 3.271-8.791 12.375-2.004 15.899a8815 8815 0 0 1 28.433 17.044q5.877 3.534 11.756 7.064c1.378.825 1.385 1.111.029 1.888q-1.463.84-2.919 1.689-1.456.848-2.919 1.688a2482 2482 0 0 1-4.495 2.565 1084 1084 0 0 0-10.26 5.894c-1.196.701-2.178.561-3.263-.139-10.333-6.366-20.763-12.58-31.194-18.794-6.547-3.9-13.093-7.8-19.616-11.738-2.2-1.32-4.771-1.174-6.938.275-2.667 1.782-4.538 4.238-5.327 7.216-.993 3.736-.852 6.585 3.075 8.737 2.18 1.198 4.3 2.508 6.419 3.817 1.052.65 2.104 1.3 3.164 1.936 4.018 2.418 8.016 4.815 12.008 7.209a4581 4581 0 0 1 21.435 12.903c-10.087 7.077-10.257 12.401-9.831 23.749q-.062 7.643-.132 15.287c-.12 13.491-.24 26.982-.272 40.476.044 6.182 3.975 11.557 9.187 14.725 1.245.818 1.245 1.126-.033 1.833q-6.604 3.659-13.211 7.308-4.93 2.724-9.86 5.452l-2.768 1.533c-5.468 3.027-10.937 6.054-16.395 9.101-5.45 3.069-2.797 10.809.837 14.281 2.604 2.615 5.368 3.803 9.535 1.313 9.796-5.549 19.664-10.975 29.531-16.401 6.962-3.829 13.924-7.657 20.86-11.528 1.308-.722 2.404-.708 3.704.062 3.635 2.156 7.247 4.247 10.861 6.339 3.847 2.227 7.697 4.456 11.581 6.766-8.378 5.165-17.073 9.862-25.771 14.561-6.263 3.383-12.528 6.767-18.678 10.328-7.724 4.221 1.137 20.097 8.805 16.365 9.745-5.261 19.428-10.636 29.111-16.011 8.136-4.516 16.271-9.032 24.443-13.48.645-.349 1.856-.272 2.523.102l1.354.769c7.374 4.185 14.482 8.219 21.817 12.67-8.262 4.675-16.517 9.218-24.774 13.762-6.89 3.791-13.781 7.583-20.679 11.453-1.919 1.078-2.978 2.769-2.967 4.994-.23 5.9 5.783 14.66 12.376 11.052a7112 7112 0 0 1 12.427-6.821c13.01-7.131 26.023-14.263 38.902-21.622 2.819-1.613 4.83-1.404 7.482.198 9.267 5.548 18.634 10.936 28.001 16.323 7.056 4.058 14.113 8.117 21.127 12.244 6.594 3.876 13.688 6.098 21.301 6.919 20.092 1.936 29.361-2.83 45.834-12.774q6.078-3.462 12.153-6.928a9820 9820 0 0 1 29.255-16.642c.53-.3 1.541-.275 2.082.03 10.806 6.308 21.522 12.768 32.237 19.227 6.468 3.899 12.936 7.799 19.424 11.664 5.509 3.344 11.162-2.841 12.395-7.872.978-3.527.145-6.321-2.241-7.773a8598 8598 0 0 0-22.949-13.783 9341 9341 0 0 1-19.714-11.833c-1.278-.77-1.278-1.14-.049-1.844q4.017-2.302 8.036-4.6c4.236-2.422 8.472-4.845 12.702-7.28 1.059-.609 1.989-.557 3.015.073 11.989 7.305 24.037 14.514 36.086 21.722 5.431 3.25 10.862 6.499 16.287 9.757 2.23 1.334 4.493 1.268 6.683-.077 2.819-1.735 4.634-4.29 5.601-7.374 1.126-3.586.774-6.67-3.271-8.928-2.683-1.499-5.304-3.107-7.926-4.715-1.078-.661-2.157-1.323-3.239-1.977-10.521-6.38-21.045-12.756-31.673-18.964-1.145-.682-1.122-1.074.07-1.76q3.14-1.802 6.282-3.599c4.864-2.783 9.728-5.566 14.57-8.391.99-.576 1.653-.609 2.631 0l5.773 3.467c16.194 9.725 32.39 19.452 48.633 29.093 5.39 2.849 10.802-3.542 11.888-8.294 1.107-3.964.003-6.362-3.553-8.433-15.132-8.973-30.172-17.919-45.179-27.126 8.613-5.691 12.98-9.71 12.225-20.622.285-19.811.504-39.618.718-59.429M226.621 433.594c-9.76-5.605-19.519-11.209-29.159-17.012 2.046-1.813 2.221-1.701 4.127-.479l.222.142c4.123 2.632 7.583 3.564 12.413.979 1.024-.627 2.239-1.242 3.513-1.887 4.29-2.172 9.258-4.688 9.938-9.146 1.385-10.949-6.26-24.472-17.351-27.141-4.06-.08-7.735 2.091-11.259 4.172-1.019.602-2.026 1.197-3.026 1.728-4.2 2.405-5.93 6.134-5.641 10.824.078 1.27.134 1.887-.114 2.337-.24.438-.765.718-1.831 1.289l-.557.297c-2.834 1.514-5.67 3.029-8.434 4.657-1.237.729-2.16.682-3.386-.041-3.203-1.937-6.437-3.784-9.669-5.631-4.212-2.406-8.421-4.811-12.557-7.411.37-.204.718-.41 1.052-.609.799-.473 1.523-.902 2.304-1.158.369-.122.973.319 1.463.677l.204.148c3.141 2.24 6.561 3.49 10.387 2.24 1.759-.593 3.406-1.531 5.047-2.464 1.086-.618 2.17-1.235 3.281-1.749 2.829-1.013 4.504-3.329 6.1-5.536l.064-.089c2.022-3.344 1.033-7.791.104-11.425.023.336.029.678.034 1.02.012.773.025 1.547.251 2.254.511 1.588.234 3.096-.045 4.613a52 52 0 0 0-.14.788c-.512 3.047-2.686 4.771-5.175 6.19-1.212.572-2.438 1.302-3.684 2.044-4.024 2.397-8.241 4.91-12.768 2.546a74 74 0 0 1-2.441-1.317c-.408-.226-.84-.465-1.308-.721 2.508-1.383 3.953-2.464 6.031-4.045 2.464-.825 3.482-2.306 3.208-4.774-.511-4.554-2.467-8.352-6.231-11.077-1.296-1.012-3.134-1.815-4.841-.968-.935 1.036-2.194 1.466-3.455 1.896-1.118.382-2.236.764-3.128 1.569-.082.074-.21.097-.403.132-.113.02-.248.044-.408.085-1.141-4.609 1.018-9.248 5.349-11.462 1.173-.598 2.319-1.251 3.464-1.903 1.477-.842 2.954-1.683 4.489-2.406 2.364-1.114 4.868-1.983 7.52-.586.723.381 1.575.531 2.449.531q-.648-.256-1.294-.514c-1.205-.48-2.41-.96-3.629-1.403-4.659-.089-8.494 2.197-12.272 4.45l-.779.463c-4.931 2.457-7.442 6.505-6.76 11.931.107 1.32-.16 2.134-1.404 2.787a342 342 0 0 0-6.076 3.283c-1.7.933-3.4 1.866-5.112 2.774-.467.246-1.274.371-1.682.14-2.843-1.696-5.731-3.327-8.618-4.956-4.919-2.778-9.837-5.554-14.534-8.655.41-.216.809-.437 1.202-.654 1.05-.582 2.058-1.139 3.128-1.531.279-.103.738.265 1.188.627.189.152.377.304.55.418 3.567 2.354 7.386 3.494 11.461 1.569 3.234-1.525 6.416-3.23 9.383-5.203 1.348-.896 2.259-2.432 3.156-3.944l.282-.474a3 3 0 0 1-.254.138c-.184.092-.368.185-.476.331-1.457 1.989-3.539 3.088-5.62 4.187-.712.376-1.424.751-2.111 1.163-.584.308-1.17.65-1.761.995-2.234 1.304-4.546 2.653-7.129 2.429-2.582-.128-5.027-1.136-7.191-3.138 2.123-1.181 3.916-2.479 5.716-3.887 2.601.356 3.219-2.882 3.231-4.745-.408-4.682-2.516-8.547-6.405-11.282-1.149-.807-2.549-1.606-4.16-.975a2 2 0 0 1-.232.063c-.135.029-.267.058-.346.138-.904.916-2.056 1.359-3.237 1.814-1.302.501-2.638 1.015-3.713 2.19-1.867-3.641.497-8.965 3.701-11.022 1.019-.56 2.023-1.145 3.027-1.73 3.337-1.945 6.662-3.883 10.454-4.875l.107-.028-.107.028c-.803.2-1.627.22-2.453.241-1.368.034-2.744.068-4.045.916-1.343.875-2.768 1.63-4.193 2.385a82 82 0 0 0-2.757 1.505c-5.435 3.35-5.481 6.935-5.517 9.792-.027 2.115-.049 3.83-2.251 4.754-1.947.992-3.852 2.064-5.757 3.136-1.657.932-3.315 1.865-5 2.745-.693.363-1.92.477-2.523.106-5.568-3.072-9.52-8.701-9.41-15.139.028-11.4.16-22.799.291-34.198.082-7.087.164-14.173.22-21.261.008-.491.053-.982.412-1.613 2.645 4.481 6.764 7.59 11.232 10.109q6.781 3.928 13.56 7.864a11098 11098 0 0 0 16.016 9.285c14.816 8.519 29.597 17.097 44.379 25.676 13.95 8.096 27.901 16.192 41.882 24.238a2271 2271 0 0 1 15.98 9.276c9.642 5.632 19.285 11.264 29.076 16.633 10.947 5.357 23.782 6.215 35.703 4.195 10.574-1.941 19.735-7.5 28.864-13.039 4.102-2.489 8.197-4.973 12.411-7.124l8.648-4.942c14.735-8.421 29.469-16.841 44.199-25.272 11.562-6.661 23.159-13.263 34.758-19.864 15.718-8.947 31.437-17.894 47.068-26.992 3.556-1.98 6.024-4.873 8.324-8.243.18 12.051.004 24.088-.172 36.13-.11 7.542-.22 15.086-.243 22.636-.107 6.725-5.512 11.293-10.917 14.41-.618.352-1.77.381-2.393.044-1.531-.831-3.021-1.735-4.511-2.639a137 137 0 0 0-3.542-2.102c-1.287-.683-1.119-1.871-.949-3.083.084-.595.169-1.196.082-1.746-.044-4.836-2.671-7.99-6.746-10.263-1.135-.59-2.256-1.308-3.384-2.031-3.498-2.242-7.072-4.532-11.407-3.212-10.617 3.908-18.656 17.673-15.307 28.581.267 1.471 2.041 2.901 3.464 3.891 1.467 1.022 3.026 1.914 4.586 2.806 1.237.707 2.474 1.414 3.667 2.188 4.401 2.856 9.246 2.324 13.44-.682 1.081-.774 1.148-.796 2.437.003-5.866 3.501-11.744 6.794-17.663 10.111q-2.216 1.24-4.441 2.492c-.445.249-1.245.355-1.648.128a292 292 0 0 1-10.136-6.035c-.385-.239-.537-1.009-.592-1.555q-.025-.567-.046-1.107c-.211-5.268-.346-8.654-5.859-11.66q-.659-.407-1.335-.833c-5.158-3.24-11.028-6.926-16.858-2.856.168-.03.341-.049.515-.068.37-.04.74-.081 1.052-.233 4.56-2.183 8.86.628 12.891 3.264 1.386.906 2.739 1.791 4.061 2.445 2.834 1.683 5.038 6.545 4.415 9.743-.207 1.07-.552 1.562-1.741.854a32 32 0 0 0-2.031-1.053c-1.382-.677-2.761-1.353-3.911-2.397-5.99-2.255-12.38 8.275-11.368 13.354.196 2.013 1.285 2.706 3.148 3.252 1.808 1.65 3.238 2.724 5.52 4.033-4.301 3.634-9.62 3.634-14.095.44-.984-.656-2.009-1.25-3.034-1.844-1.1-.637-2.199-1.274-3.245-1.987-1.373-1.004-2.576-2.302-3.746-3.566l-.362-.391c-.104.07-.212.136-.315.206 1.947 4.122 5.73 6.239 9.455 8.322.711.398 1.42.795 2.114 1.204 4.515 2.838 8.946 2.258 13.169-.767 1.367-.975 2.037-.865 3.634.756-6.524 3.933-13.13 7.642-19.763 11.366l-2.012 1.13c-.592.33-1.693.352-2.271.022-2.353-1.334-4.669-2.734-6.985-4.134-1.223-.74-2.447-1.48-3.676-2.21-.822-.487-.904-1.103-.937-2.02a74 74 0 0 1-.033-1.433c-.033-2.036-.067-4.116-.801-5.889-1.944-3.733-6.036-6.009-9.806-8.105-.733-.408-1.453-.809-2.144-1.212-1.052-.331-2.031-.492-3.051-.66-.917-.151-1.868-.308-2.935-.598.15.178.252.316.328.418.112.15.166.222.227.231 3.176.401 5.697 2.084 8.215 3.765.958.639 1.914 1.278 2.906 1.845 4.701 2.996 6.146 5.053 5.916 10.622-.048.506-.222.895-.593 1.324-1.911-1.155-3.852-2.244-5.982-2.893-2.271-1.83-3.064-2.009-5.49-.627-4.02 2.288-7.868 8.276-6.835 13.369.378 1.833.956 2.383 2.93 2.673 1.408 1.097 2.808 2.204 4.298 3.382l1.088.86c-5.93 5.482-12.552 1.267-18.361-2.43-1.204-.767-2.373-1.511-3.495-2.142.485 1.937 2.023 2.815 3.558 3.691.376.215.753.431 1.114.661.732.468 1.481.908 2.23 1.349.66.389 1.321.777 1.971 1.185 3.741 2.346 9.116 2.178 12.683-.426 2.049-1.496 2.464-1.426 5.405 1.042-8.339 4.976-16.771 9.762-25.207 14.549a2447 2447 0 0 0-13.671 7.795c-2.065 1.128-4.116 2.322-6.173 3.52-8.37 4.875-16.831 9.802-26.722 10.476-12.328 1.441-25.219-.396-35.936-6.86-7.447-4.398-14.947-8.705-22.447-13.011m-70.146-196.246c6.319 3.583 12.631 7.163 18.753 11.095l.004.004a1619 1619 0 0 0-12.416 7.14c-7.151 4.14-14.257 8.253-21.594 12.246-2.402 1.3-3.594 3.349-4.79 5.402-.473.814-.947 1.628-1.497 2.397-.174.242.1.946.352 1.312q.464.635.854 1.175c2.642 3.648 3.119 4.306 7.7 6.595 13.766 8.018 27.557 15.995 41.349 23.973 15.09 8.728 30.18 17.457 45.237 26.238 5.486 3.181 10.978 6.35 16.471 9.52q4.775 2.755 9.549 5.514c1.638.931 3.267 1.887 4.896 2.843a329 329 0 0 0 6.114 3.529c.83.187 1.658.393 2.486.599 3.982.993 7.962 1.985 12.161.725 5.66-1.023 8.153-2.556 12.876-5.493 9.668-5.451 19.292-10.978 28.916-16.506a6836 6836 0 0 1 17.667-10.125c9.397-5.394 18.813-10.758 28.228-16.122 14.298-8.145 28.596-16.29 42.83-24.541 2.295-1.414 3.933-3.689 5.499-5.862l.487-.676c.959-1.018.455-1.998-.061-3.003-.246-.478-.495-.962-.591-1.459-.609-2.63-2.666-3.69-4.698-4.738a31 31 0 0 1-1.444-.777c-5.186-3.059-10.397-6.068-15.608-9.075-6.048-3.491-12.094-6.981-18.102-10.552 5.622-3.651 11.472-6.923 17.326-10.197 3.929-2.197 7.859-4.396 11.724-6.71 1.26-.726 2.26-.473 3.408.194 6.608 3.848 13.221 7.686 19.835 11.525 7.309 4.241 14.617 8.483 21.918 12.737 1.814 1.213 3.861 2.339 5.951 3.489 6.1 3.356 12.564 6.911 14.653 13.4 3.352 9.713-5.742 16.845-13.514 20.735q-14.218 8.159-28.457 16.284c-17.664 10.021-35.286 20.117-52.907 30.213-14.067 8.06-28.134 16.12-42.222 24.141a5882 5882 0 0 1-8.428 4.805c-7.174 4.086-14.348 8.172-21.482 12.33-14.336 8.29-32.058 9.397-47.583 3.985-3.541-1.437-6.986-3.164-10.317-5.034-8.192-4.674-16.346-9.416-24.501-14.159A4273 4273 0 0 0 203.715 355c-16.052-9.343-32.128-18.647-48.204-27.951-19.373-11.213-38.747-22.425-58.08-33.707-1.115-.716-2.294-1.409-3.488-2.111-5.572-3.276-11.456-6.736-12.655-13.491-2.105-9.72 6.625-14.848 13.987-19.173.722-.425 1.431-.841 2.116-1.254 15.292-8.877 30.661-17.626 46.042-26.349.534-.3 1.574-.212 2.138.11 3.613 2.138 7.26 4.207 10.904 6.274M301.134 91.594c-2.757-1.85-5.587-3.451-8.427-5.057-1.812-1.025-3.628-2.052-5.432-3.149-2.823-1.65-5.79-2.783-9.098-3.047-5.164-.41-9.743.965-14.195 3.59-11.313 6.594-22.702 13.066-34.09 19.537-8.477 4.817-16.954 9.633-25.399 14.501a65323 65323 0 0 1-53.125 30.349q-2.273 1.298-4.549 2.593c-4.391 2.499-8.782 4.999-13.132 7.563-4.371 2.2-4.471 7.469.033 9.838 11.64 6.878 23.362 13.62 35.085 20.363 7.45 4.285 14.9 8.57 22.33 12.89q12.127 7.04 24.247 14.091c16.909 9.834 33.819 19.668 50.771 29.429 9.668 5.859 18.862 1.987 27.505-3.605 20.113-11.567 40.271-23.061 60.429-34.555 21.508-12.264 43.017-24.528 64.472-36.882 1.315-.759 2.649-1.892 3.367-3.183 1.401-2.508.456-4.983-2.337-6.695a8697 8697 0 0 0-73.503-42.596c14.076 12.866 13.518 19.543 12.016 37.512l-.002.031c-5.931 33.579-63.738 36.978-89.784 27.104-14.992-5.016-32.299-15.921-31.254-33.638.108-1.745.124-3.514.14-5.286.048-5.43.096-10.891 2.816-15.79 2.778-5.218 6.912-9.152 11.813-12.349 1.178-.77 1.964-1.698 2.36-3.011 4.268-11.322 16.822-16.39 27.835-18.85 5.24-1.287 10.536-1.44 15.868-1.594q1.617-.045 3.24-.103Zm-170.914 84.42c-.002-2.736-.003-5.474.174-8.175l-.004-.004c18.804 11.037 37.641 21.926 56.478 32.815 16.073 9.291 32.145 18.582 48.197 27.964 2.961 1.718 5.911 3.454 8.862 5.191 7.579 4.46 15.159 8.92 22.907 13.069 7.127 3.817 14.558 3.179 21.623-.895 18.069-10.465 36.228-20.785 54.386-31.104 26.583-15.108 53.165-30.214 79.465-45.778.193 1.865.156 3.715.119 5.563-.037 1.833-.074 3.663.114 5.503.319 4.037-1.485 6.482-4.915 8.415-23.087 13.055-46.097 26.242-69.107 39.43-20.905 11.981-41.809 23.962-62.77 35.843-3.453 1.91-7.205 2.119-11.061 1.987-4.408-.147-7.967-2.256-11.532-4.368q-.774-.46-1.552-.912-20.32-11.77-40.636-23.546c-28.478-16.504-56.956-33.009-85.451-49.483l-.365-.212c-2.319-1.345-4.991-2.895-4.981-5.904.05-1.792.05-3.595.049-5.399m-.282 34.737c.007-2.311.015-4.622.2-6.924h.004c22.382 13.274 44.906 26.268 67.435 39.264 13.732 7.922 27.467 15.845 41.17 23.832l5.635 3.258c7.634 4.417 15.267 8.832 22.952 13.158 3.156 1.778 6.753 1.965 10.339 1.903 4.712-.081 8.669-2.152 12.603-4.437 6.66-3.868 13.348-7.69 20.037-11.511q4.013-2.292 8.024-4.589c13.799-8.038 27.707-15.898 41.613-23.758 20.789-11.749 41.576-23.498 61.999-35.836.179 2.043.138 4.072.096 6.098s-.083 4.05.096 6.082c.245 3.436-1.5 5.42-4.212 6.967a444601 444601 0 0 0-69.758 39.832q-31.252 17.848-62.504 35.69c-4.082 2.197-8.468 2.541-13.021 1.918-3.661-.501-6.686-2.32-9.708-4.137-.689-.414-1.379-.829-2.075-1.227a326459 326459 0 0 1-124.357-72.039l-.473-.258c-3.076-1.674-6.499-3.537-6.214-7.578.106-1.9.112-3.804.119-5.708m4.058-17.099c-.025-1.749-.051-3.5.124-5.349l.004-.004c22.226 12.712 44.35 25.564 66.475 38.416 18.694 10.859 37.388 21.718 56.144 32.494.841.494 1.676.999 2.51 1.504 6.668 4.031 13.241 8.005 21.528 6.199 3.634-.607 6.674-2.406 9.714-4.204.688-.407 1.375-.814 2.07-1.208a6151 6151 0 0 0 24.622-14.04l6.939-3.97 15.527-8.879c26.196-14.981 52.351-29.94 78.602-44.9.161 1.994.126 3.908.09 5.826-.028 1.526-.056 3.054.014 4.627.048 2.153-.878 3.788-2.63 4.855-25.366 14.755-50.871 29.279-76.377 43.802-15.192 8.65-30.384 17.301-45.546 26q-1.326.758-2.648 1.523c-1.905 1.102-3.809 2.203-5.746 3.24-7.194 3.887-15.929 2.006-22.36-2.427-20.023-11.681-40.094-23.285-60.166-34.889-21.881-12.65-43.762-25.3-65.584-38.052-2.237-1.309-3.523-3.117-3.378-5.856.116-1.613.094-3.16.072-4.708m163.52-60.635c.491 3.41.981 6.815 1.172 10.248h-.003c-14.696-.484-31.191-4.092-40.66-16.166-10.017-13.34 3.445-26.272 16.429-30.298 9.206-3.315 18.722-4.198 28.391-3.538 17.036.337 50.302 13.222 37.222 34.727-6.72 9.21-18.456 12.811-29.299 14.611-2.115.345-2.23.18-2.526-1.899-.715-5.034-1.437-10.065-2.249-15.085-.074-.465-.777-1.162-1.211-1.18-2.348-.099-4.701-.063-7.049.025-1.267.048-1.208 1.016-1.089 1.922.237 2.218.555 4.426.872 6.633m-7.882 215.158c1.554.948 3.118 1.903 4.665 2.935l.003.004c-1.139.532-2.182 1.175-3.209 1.808-1.802 1.111-3.553 2.191-5.685 2.581-1.177.145-2.312.471-3.425.791-2.577.741-5.029 1.446-7.588-.227-7.064-4.106-14.099-8.272-20.989-12.657-3.523-2.24-6.25-5.32-7.602-9.431-2.822-9.361 6.535-15.858 13.755-19.646q1.675-.929 3.351-1.861c5.274-2.931 10.548-5.863 15.882-8.677.964-.508 2.03-.828 3.096-1.147 1.056-.317 2.112-.633 3.068-1.133 3.91-2.046 7.748-4.232 11.583-6.418l2.479-1.411c8.266-4.664 16.511-9.386 24.756-14.108 10.785-6.176 21.569-12.352 32.396-18.397.833-.168 1.904-.33 2.574.037 1.408.832 2.84 1.627 4.272 2.423 3.028 1.681 6.055 3.362 8.849 5.383a9719 9719 0 0 1-30.984 17.149c-9.14 5.045-18.281 10.089-27.438 15.177q-4.02 2.228-8.04 4.461c-5.358 2.975-10.716 5.951-16.087 8.904l-.537.295c-3.133 1.719-6.247 3.428-8.676 6.158-5.997 6.743-5.716 15.506 1.186 21.347 2.619 2.166 5.463 3.902 8.345 5.66m105.135-66.094c3.316 1.91 6.637 3.823 9.976 5.834l-12.426 7.131c-28.919 16.596-57.751 33.142-86.815 49.523-.444.234-1.248.26-1.667.014l-2.111-1.232c-4.149-2.418-8.298-4.836-12.336-7.428-2.845-1.826-3.767-4.331-2.493-6.446.804-1.331 2.056-2.589 3.405-3.377 9.179-5.274 18.453-10.39 27.726-15.505 4.782-2.638 9.564-5.277 14.333-7.936a9266 9266 0 0 1 18.247-10.088c9.982-5.51 19.965-11.02 29.914-16.587 1.415-.796 2.497-.803 3.92.051 3.447 2.084 6.884 4.064 10.327 6.046m-97.821 60.027c2.109 1.209 4.21 2.413 6.163 3.905l-.007-.003q-.903.522-1.775 1.032c-1.65.965-3.237 1.891-4.863 2.748-.46.242-1.308.209-1.756-.059-.922-.553-1.851-1.096-2.78-1.641-2.953-1.729-5.91-3.46-8.637-5.49-4.468-3.322-6.798-7.869-5.823-13.585.789-4.617 3.634-7.964 7.519-10.274 4.737-2.811 9.567-5.47 14.398-8.129 1.754-.966 3.508-1.931 5.258-2.904 16.505-9.16 33.023-18.292 49.542-27.425q13.262-7.33 26.521-14.669l-.046-.301-.04-.267-.412.017c-.845.03-1.729.061-2.384.643-2.968 2.545-5.709 2.284-8.858-.015-2.107-1.536-4.419-2.796-6.849-4.12a158 158 0 0 1-3.386-1.882c3.512-2.241 6.996-4.211 10.51-6.197 1.912-1.081 3.832-2.166 5.771-3.303.967-.554 1.874-.627 2.889-.033 4.186 2.42 8.359 4.863 12.532 7.307 7.867 4.607 15.734 9.214 23.69 13.662 1.906 1.016 2.478 2.757 3.051 4.501.145.442.29.884.457 1.315.082.212-.119.597-.285.836-3.208 4.715-9.387 11.491-15.485 7.04-4.851-3.169-9.942-5.989-15.023-8.804l-1.25-.693c-1.541-.854-1.341-1.698-.789-3.069a22527 22527 0 0 1-22.101 12.171c-24.498 13.48-48.998 26.96-73.321 40.735-8.509 5.911-3.234 10.96 3.708 14.652 1.269.814 2.566 1.557 3.861 2.299m-42.521-217.652c-.131 2.066-.153 4.14-.176 6.213-.028 2.648-.057 5.295-.312 7.925-.378 4.224 1.286 7.494 3.938 10.497 12.202 13.182 31.754 15.422 48.861 14.645 3.46-.191 6.931-.917 10.298-1.778 6.535-1.573 12.766-4.045 18.13-8.148 4.178-2.823 6.982-6.552 7.216-11.762.033-1.881.132-3.74.231-5.594.18-3.36.359-6.702.139-10.118-7.942 12.078-18.963 15.349-31.739 17.461l-.029.003c-1.067.13-1.86.227-1.827 1.749.059 2.688-2.608 4.826-5.679 4.844-3.137.018-4.99-1.584-5.145-4.605-.048-.954-.397-1.203-1.282-1.236-16.161-.686-33.54-5.887-42.624-20.096m-15.602 12.374c.437-9.167 6.564-16.1 14.295-20.922v-.004l.002.693c.012 6.532.023 12.385-1.28 18.792-1.926 10.879 8.332 19.635 17.389 23.782 21.093 9.816 56.285 9.706 71.647-9.878 2.36-3.421 3.434-7.121 3.367-11.301.023-1.784.016-3.57.009-5.357-.018-4.633-.036-9.266.462-13.86 11.831 7.814 17.362 23.133 7.382 34.665-16.21 17.996-43.504 20.621-66.412 17.904-18.718-2.64-46.342-12.316-46.861-34.514m49.706 48.426c-21.389-2.34-53.369-13.365-49.795-39.795v.004c17.296 36.01 99.045 38.306 118.078 3.113l.246.042.247.042c.948 32.128-43.79 39.501-68.776 36.594m-88.95 81.626c-3.643-2.222-7.183-4.381-11.08-6.383h-.004c.834 1.456.4 2.024-.626 2.607-12.862 7.334-25.712 14.7-38.555 22.066-.852.495-1.441.433-2.234-.055a114 114 0 0 0-5.579-3.193c-1.862-1.004-2.951-2.671-4.036-4.33a50 50 0 0 0-.735-1.104c.138-4.866 5.052-7.547 8.888-9.64l.495-.271 6.159-3.507c7.407-4.214 14.813-8.428 22.18-12.711 1.604-.935 2.797-1.038 4.445-.066 7.13 4.201 14.3 8.339 21.47 12.478a6228 6228 0 0 1 8.225 4.752c.902.522 1.799 1.052 2.697 1.582 1.83 1.081 3.66 2.161 5.526 3.177 1.63.887 2.216 2.211 2.449 3.934.874 6.446-1.863 11.352-6.905 14.982-5.33 3.544-10.992 6.602-16.651 9.657-3.293 1.778-6.585 3.556-9.81 5.428-.911.513-1.507.473-2.359-.062-1.42-.89-2.88-1.718-4.46-2.614-.659-.374-1.339-.76-2.045-1.167 5.336-3.101 10.627-6.011 15.925-8.925 4.136-2.274 8.276-4.551 12.443-6.922 4.871-2.629 9.176-8.338 4.053-12.899-1.966-1.903-4.362-3.404-6.718-4.881l-.695-.436q-1.243-.753-2.463-1.497m-58.537 179.143c-5.701 3.982-11.369-4.011-11.606-8.84h-.004c-.048-2.882 1.163-4.396 3.097-5.46q6.752-3.717 13.506-7.432c14.797-8.139 29.591-16.278 44.349-24.49a120 120 0 0 0 1.745-.988c1.147-.656 2.294-1.313 3.475-1.905 5.464-3.366 10.932 4.023 11.132 9.233.181 2.182-.708 3.978-2.697 5.078q-11.522 6.368-23.052 12.727-9.05 4.992-18.097 9.988-5.022 2.777-10.04 5.557-5.902 3.27-11.808 6.532m-64.896-62.502c-7.607 4.299-15.221 8.602-23.036 12.287l.004-.007c-5.32-.106-8.65-5.988-8.813-10.604-.096-2.292 1.308-3.806 3.3-4.902 10.494-5.769 20.973-11.56 31.45-17.351l6.528-3.608c3.035-1.671 6.064-3.351 9.093-5.031a1899 1899 0 0 1 15.586-8.583c6.35-4.158 12.921 6.38 10.999 11.238-.426 1.133-1.393 2.332-2.442 2.926-8.05 4.555-16.15 9.018-24.253 13.481l-3.456 1.904c-5.02 2.633-9.988 5.441-14.96 8.25m24.681 35.479c-1.766 1.029-3.61 2.103-5.438 2.534v.003c-4.886-.597-7.535-4.986-8.39-9.262-.505-2.904.407-4.785 2.996-6.215q8.256-4.548 16.513-9.091c7.479-4.115 14.957-8.23 22.431-12.355 3.673-2.021 7.334-4.064 10.994-6.107 4.322-2.411 8.643-4.823 12.985-7.199 2.578-1.397 4.46-1.214 6.79.638 4.223 3.461 6.59 10.508 1.712 13.588-13.31 7.472-26.694 14.817-40.078 22.161-6.169 3.386-12.338 6.771-18.5 10.168-.656.346-1.33.738-2.015 1.137m341.5-70.226.127-.163h.008c13.691 7.593 27.082 15.727 40.473 23.86 8.026 4.875 16.052 9.75 24.143 14.508 2.626 1.584 3.326 3.315 2.641 6.336-.819 4.374-5.705 10.901-10.721 8.111a24228 24228 0 0 1-44.83-26.837q-2.498-1.498-4.992-3.003c-4.111-2.478-8.222-4.955-12.364-7.381-2.356-1.382-3.189-3.336-2.763-5.892.696-4.488 3.601-8.334 8.19-9.427zm-92.55 62.453c-1.896-1.13-3.174-2.567-2.974-4.36-.119-5.592 5.712-13.559 11.306-10.003a38659 38659 0 0 0 62.374 37.419c6.554 3.978-2.341 18.278-8.964 13.889a13672 13672 0 0 0-61.742-36.945m43.131-23.771c-1.826-1.104-2.738-2.684-2.508-4.547h.004c.248-6.109 5.76-12.43 11.109-9.563 12.754 7.558 25.463 15.187 38.172 22.816 8.033 4.823 16.066 9.645 24.11 14.449 5.431 3.428 1.241 11.418-3.019 14.061-1.852 1.221-3.838 1.192-5.782.026l-22.786-13.653q-11.394-6.824-22.786-13.653a6684 6684 0 0 1-16.514-9.936m-228.974-92.573c-4.79-2.728-9.575-5.454-14.25-8.429h-.004c4.614-2.634 9.18-5.255 13.732-7.869 8.56-4.915 17.068-9.8 25.739-14.674.756-.308 1.919-.458 2.552-.092 5.12 2.967 10.221 5.984 15.181 9.2 1.289.836 2.33 2.31 3.03 3.714 1.156 2.325.167 4.507-1.641 6.01-6.172 4.616-13.014 8.249-19.85 11.88-3.774 2.004-7.546 4.007-11.204 6.175-1.122.627-2 .645-3.123-.015-3.365-2.028-6.764-3.965-10.162-5.9m-88.335-63.463c10.473 6.214 20.943 12.428 31.262 18.899a1107 1107 0 0 1-8.432 4.881c-2.095 1.205-4.192 2.41-6.363 3.673-1.019.598-1.908.656-2.986.007-7.431-4.483-14.877-8.94-22.324-13.398a8649 8649 0 0 1-20.225-12.133c-5.008-3.149-1.426-11.168 2.849-13.812 1.915-1.272 4.079-1.36 6.03-.191 6.705 4.071 13.447 8.073 20.19 12.074m374.143 21.672a6 6 0 0 0-.223-.331l.003-.008c8.618-4.928 17.326-9.685 26.032-14.442 7.473-4.082 14.945-8.164 22.359-12.354 2.767-1.8 5.331-1.653 7.853.88 3.568 3.227 6.038 9.875 1.108 13.01l-.372.208c-13.23 7.411-26.469 14.826-39.843 21.986-.448.235-1.241.271-1.663.033-4.712-2.667-9.388-5.393-14.065-8.119l-.916-.534c-.101-.058-.171-.168-.273-.329m-39.233-23.069c.068.138.115.251.152.342.062.149.098.237.165.278l1.793 1.058c3.005 1.774 6.011 3.549 9.061 5.249.456.253 1.341.114 1.856-.161 6.58-3.677 13.185-7.313 19.791-10.95 7.076-3.894 14.152-7.79 21.198-11.736 4.712-3.179 2.141-9.691-1.274-12.87-1.804-1.852-3.92-2.75-6.501-1.676-8.003 4.291-15.94 8.72-23.875 13.148a5120 5120 0 0 1-7.913 4.408c-.678.382-1.278 1.313-1.445 2.087-.478 2.218-1.559 3.967-3.456 5.188-2.033 1.272-4.115 2.476-6.195 3.679a359 359 0 0 0-3.357 1.956m-267.435-.405a604 604 0 0 1-3.004-1.761c-2.126-1.252-4.14-2.438-6.193-3.557-3.615-1.973-6.012-4.602-5.393-9.005.181-1.295-.371-2.035-1.456-2.681a5274 5274 0 0 1-27.594-16.562c-2.138-1.291-4.212-1.518-6.35-.103-2.733 1.808-4.411 4.375-5.174 7.477-.827 3.362.096 5.221 3.093 6.988 3.72 2.195 7.42 4.417 11.123 6.639l.583.35q3.293 1.977 6.587 3.95c7.176 4.301 14.353 8.601 21.492 12.964 1.504.921 2.638 1.031 4.142.055 1.757-1.135 3.585-2.168 5.535-3.269.845-.478 1.714-.968 2.609-1.485m66.125 65.24c7.509-3.828 13.469-11.723 11.169-20.449 5.059 2.884 9.759 5.615 14.518 8.38 2.676 1.555 5.372 3.121 8.16 4.732 1.512.876 1.638 1.122.2 2.031-8.796 5.622-17.952 10.644-27.108 15.665a1261 1261 0 0 0-10.258 5.668c-.502.209-1.298.68-2.203 1.216-2.119 1.254-4.841 2.866-5.817 2.318-3.585-1.965-7.123-4.01-10.66-6.056l-.001-.001c-.867-.502-.704-.983.111-1.43l2.144-1.18c6.586-3.625 13.172-7.249 19.745-10.894m7.309 119.637c-5.12 2.961-7.967 4.609-15.37-.108v-.007c2.427-1.332 3.827-2.38 5.785-3.845l.272-.203c2.46-.803 3.438-2.171 3.197-4.638-.456-4.683-2.482-8.558-6.361-11.308-1.244-.972-3.059-1.746-4.715-.873-.973 1.062-2.274 1.513-3.573 1.964-1.12.389-2.24.777-3.151 1.556-.059.052-.155.059-.315.072a5 5 0 0 0-.385.042c-1.059-4.576 1.056-9.215 5.36-11.411 2.47-1.264 4.886-2.625 7.301-3.984l.634-.357c9.902-4.661 18.563 7.073 20.986 15.425 1.841 5.72 1.078 12.471-5.101 15.191-1.754.858-3.236 1.715-4.564 2.484m228.198-75.362c3.979 2.387 5.583 6.952 4.398 11.249l.003.004q-.982-.435-1.905-.835c-1.423-.618-2.751-1.196-4.051-1.831-.319-.156-.597-.413-.873-.668-.339-.314-.673-.623-1.072-.733-2.164-.597-3.919.455-5.446 1.819-3.5 3.135-5.756 6.879-5.315 11.744.137 1.5.714 2.89 2.637 2.97 1.22.682 2.299 1.591 3.416 2.533.722.608 1.46 1.23 2.263 1.812-3.667 3.451-8.876 3.616-13.047.789-2.016-1.321-4.104-2.536-6.189-3.749l-1.157-.673c-8.683-6.208-3.123-19.001 2.801-25.293 3.6-3.931 9.453-7.293 14.68-4.327 2.155 1.092 4.22 2.359 6.284 3.625.856.526 1.711 1.051 2.573 1.564m-235.707-18.17c4.176 2.421 8.272 4.794 12.357 7.16l14.011 8.12c-2.809-18.58 9.539-25.477 22.969-32.979a291 291 0 0 0 5.699-3.24 7 7 0 0 1-.232-.31c-.096-.133-.149-.208-.223-.251l-1.406-.828c-2.479-1.461-4.959-2.923-7.474-4.32-.322-.18-1.052.015-1.396.282-.738.576-1.444 1.199-2.15 1.822-1.252 1.106-2.502 2.209-3.918 3.037-10.853 6.287-21.326 12.107-32.221 18.161q-2.984 1.658-6.016 3.346m67.016-17.745.16.421h.003a1080 1080 0 0 1-7.652 4.307c-5.263 2.943-10.526 5.886-15.678 9.003-3.478 2.123-6.238 5.086-7.835 8.94-4.337 12.312 7.033 18.744 17.106 24.443 3.177 1.797 6.225 3.521 8.61 5.334-1.921.13-3.311-.747-4.665-1.602-.319-.201-.636-.402-.958-.587a2681 2681 0 0 1-26.605-15.492c-.741-.44-1.426-1.379-1.637-2.211-1.897-7.407.281-13.827 5.115-19.525 4.378-5.104 10.272-8.267 16.14-11.416 1.948-1.046 3.893-2.09 5.779-3.203.956-.528 1.845-.939 3.019-.359 2.845 1.4 5.887 2.075 9.098 1.947m-74.035 13.689c-.663-.386-1.343-.782-2.049-1.186 5.817-3.436 11.74-6.631 17.654-9.82 8.669-4.677 17.318-9.342 25.583-14.739 2.29-1.735 3.827-1.804 5.909-.132.699.563 1.508.995 2.466 1.506.469.25.974.52 1.52.833-.928.701-1.803 1.408-2.655 2.096-1.781 1.438-3.463 2.796-5.317 3.855-7.952 4.531-15.969 8.968-23.982 13.402-4.002 2.215-8.003 4.429-11.995 6.655-.626.3-1.582.583-2.104.322-1.674-.838-3.293-1.781-5.03-2.792M414.93 207.113c4.567-2.34 4.975-5.574 4.708-10.3l.004-.004c2.863 1.192 3.382 5.673 1.078 7.389-2.156 1.606-4.453 3.039-6.783 4.392a1831 1831 0 0 1-14.016 8.031q-3.099 1.763-6.195 3.53a58392 58392 0 0 1-86.053 49.152c-2.629 1.501-5.252 3.01-7.876 4.518-4.502 2.589-9.004 5.178-13.529 7.729-9.831 5.474-19.036 1.125-27.449-4.521-5.672-3.196-11.299-6.472-16.926-9.748q-3.14-1.83-6.286-3.654c-9.433-5.474-18.872-10.939-28.311-16.405-17.73-10.266-35.461-20.532-53.156-30.855q-3.618-2.1-7.239-4.196a3507 3507 0 0 1-13.687-7.955c-3.486-1.69-4.42-6.835-.645-8.965l.007.707c.04 4.824.059 7.082 4.638 9.802a41578 41578 0 0 0 40.433 23.385c28.678 16.573 57.356 33.146 85.947 49.86 8.09 5.218 17.722 5.335 25.738-.04a6257 6257 0 0 1 21.138-12.125l7.056-4.038c12.953-7.429 25.923-14.828 38.893-22.228 16.188-9.235 32.376-18.47 48.531-27.763 1.022-.586 2.039-1.181 3.056-1.775 2.291-1.338 4.582-2.676 6.924-3.923m-115.224-68.975c-.298-1.957-.595-3.916-.657-5.847l.003.003 2.433-.484 3.665-.729c.358 2.331.81 4.755 1.263 7.185.414 2.221.829 4.448 1.174 6.612.393 3.003-3.404 4.829-5.949 3.619-2.029-.953-1.793-2.337-1.531-3.876.124-.728.254-1.49.153-2.258-.126-1.4-.34-2.812-.554-4.225m-1.469-11.113c-.04-1.012.923-1.422 3.379-1.43 2.508-.007 3.019.429 3.06 2.626.026 1.338-1.808 2.559-3.834 2.555-1.979-.003-2.479-.722-2.605-3.751m-90.002 281.49c.152-6.053-2.319-10.633-7.809-13.618 2.182-.451 4.238.847 6.431 4.367 1.752 2.813 3.067 5.827 1.378 9.251m-87.427-61.933c2.226 3.142 3.897 6.427 2.374 10.376.011-5.947-2.456-10.409-7.783-13.28 1.512-.624 3.731.531 5.409 2.904m44.704 36.109c3.505-3.285-3.241-14.879-7.649-13.427 5.419 2.904 7.879 7.403 7.649 13.427m231.537-11.62c-5.446 2.886-8.213 7.293-8.187 13.442v.004c-1.693-3.051-.352-5.863 1.171-8.408 1.529-2.555 3.456-4.986 7.016-5.038m-43.275 23.507c-4.131-1.331-12.117 9.446-8.376 13.358-.104-6.076 2.608-10.494 8.376-13.358m81.304-43.989c1.726-2.174 4.149-3.406 5.501-2.79-5.449 2.732-8.12 7.143-7.99 13.328-1.838-2.31-.808-6.383 2.489-10.538m-15.195-161.417c3.926-.862 5.601-4.1 4.037-7.532.26 3.348-1.789 5.482-4.037 7.532m-164.48-1.909c-7.634-4.476-15.264-8.95-22.878-13.484h-.004c.76-1.727 1.019-3.307-.518-4.576-1.872-1.473-3.009-.801-4.101-.155-.949.562-1.864 1.103-3.197.199l-3.988-2.349c-5.134-3.025-10.266-6.05-15.416-9.047a33 33 0 0 1-1.189-.737c-1.24-.792-2.503-1.6-3.826-1.752-5.079-.583-10.165-.349-14.863 2.101-4.052 1.653-8.108 7.997-3.404 11.143q3.062 1.808 6.129 3.605c2.317 1.359 4.634 2.718 6.944 4.087a4491 4491 0 0 0 32.762 19.43c5.637 3.156 11.194 6.526 16.752 9.896 8.577 5.201 17.159 10.405 26.048 14.832 6.983.942 17.648-.33 20.256-8.067.756-2.427.182-4.209-2.026-5.492-5.7-3.317-11.385-6.658-17.071-9.999l-5.382-3.161a7361 7361 0 0 0-11.028-6.474m-9.104 17.572c-11.34-6.609-22.68-13.217-33.793-20.162h-.003l2.613-1.438a646 646 0 0 1 8.593-4.676 378 378 0 0 0 6.064-3.298c.922-.517 1.585-.488 2.522.069 8.317 4.902 16.642 9.788 24.967 14.675 9.952 5.842 19.905 11.684 29.844 17.552q.28.16.568.309c.96.504 1.894.995 1.928 2.43.104 5.118-5.549 7.769-9.946 8.396-1.479.183-2.979.192-4.48.2-1.056.006-2.112.012-3.162.079-1.776.112-3.119-.75-4.444-1.601-.328-.21-.655-.42-.987-.614-6.729-4.021-13.507-7.971-20.284-11.921m-21.932-33.901c-4.186-2.842-8.579-5.362-12.976-7.883-2.645-1.517-5.291-3.035-7.894-4.624-4.434-3.274-11.691-2.068-16.51-.04-2.497 1.129-4.601 2.68-5.364 5.492-.363 1.342-.245 2.629 1.018 3.381 5.095 3.033 10.206 6.04 15.316 9.046q4.002 2.352 8 4.711c.73.429 1.211.521 1.752-.337 1.309-1.615 3.228-2.56 5.131-3.497.962-.474 1.92-.946 2.793-1.501 1.659-.9 3.317-1.803 5.009-2.722zm.926 5.285c-4.954 2.779-9.882 5.544-15.072 7.974-1.367-1.071-2.404-2.769-.419-3.858a910 910 0 0 1 19.341-10.288c2.059-1.273 3.841 2.108 1.7 3.083-1.863 1.021-3.708 2.056-5.55 3.089" clip-rule="evenodd"/>
</svg>
