<svg xmlns="http://www.w3.org/2000/svg" width="550" height="550" fill="none" viewBox="0 0 550 550">
    <path fill="#fff" fill-rule="evenodd" d="M187.494 436.478c-9.862 5.421-18.784 10.513-28.408 16.051-1.277.734-2.291.809-3.643.041q-14.056-7.94-28.111-15.885l-.079-.045-.027-.015-.027-.015-.027-.016-.027-.015-.115-.065-.019-.01-.019-.011-.031-.018c-18.336-10.363-36.672-20.727-55.018-31.072-1.465-.813-1.632-1.798-1.644-3.196l-.115-11.696v-.003c-.28-28.789-.559-57.576-1.029-86.362-.02-1.302.434-2.041 1.527-2.655 14.24-7.991 28.467-16 42.689-24.021a2936 2936 0 0 0 18.441-10.439h.001l.001-.001.003-.001.002-.002.002-.001.002-.001.002-.001.003-.001c8.047-4.581 16.094-9.162 24.195-13.642 1.985-.693 4.724 1.039 7.285 2.658 1.245.788 2.449 1.549 3.503 1.991-.255-30.098-.626-60.13-.996-90.203l-.16-12.999c-.025-2.02.605-3.084 2.358-4.065q13.177-7.425 26.332-14.829c27.388-15.419 54.724-30.808 82.108-46.398-14.916-10.304-17.011-32.84-3.548-45.013 29.243-25.712 66.778 16.163 38.908 42.697 18.236 10.435 36.522 20.712 54.806 30.988l.003.002c19.068 10.717 38.134 21.433 57.137 32.324.634.363 1.114 1.548 1.127 2.362.119 6.86.191 13.722.262 20.584v.003q.053 5.146.113 10.291.16 13.083.326 26.167c.247 19.652.494 39.306.705 58.961.021 1.736.534 2.771 2.083 3.639a6550 6550 0 0 0 15.336 8.611l.005.004.006.003.005.003.006.003.005.003.006.003.005.003.006.003.005.003c11.597 6.499 23.194 12.998 34.703 19.644.618.38 1.01 1.586 1.022 2.42.172 9.471.295 18.941.417 28.413v.034l.097 7.44.147 11.508c.214 16.819.429 33.64.704 50.457.029 1.791-.555 2.734-2.07 3.581a42877 42877 0 0 0-84.418 47.647c-1.252.71-2.174.697-3.43-.025-3.507-1.92-6.96-3.936-10.41-5.952-5.942-3.47-11.879-6.938-18.078-9.902.053 9.589.181 19.076.31 28.634l.041 2.999c.021 1.365-.259 2.25-1.603 3.001-28.337 15.955-56.644 31.968-84.948 47.985-1.11.634-1.953.609-3.063-.021-11.359-6.451-22.739-12.865-34.119-19.279l-.008-.004-.007-.004-.008-.004-.008-.005-.007-.004-.008-.004-.008-.005-.007-.004-.014-.008-.012-.007c-16.56-9.332-33.12-18.666-49.616-28.114-.788-.455-1.431-1.87-1.452-2.855-.213-10.846-.367-21.363-.413-32.26zm-19.531-283.841c17.462 9.922 34.793 19.69 52.134 29.463l.013.007.005.003c13.206 7.443 26.419 14.889 39.699 22.41q3.662 2.068 7.327 4.134c8.207 4.629 16.413 9.257 24.582 13.949 1.845 1.06 3.28 1.106 5.158.012 19.422-11.188 38.959-22.145 58.494-33.102h.002l.001-.001.001-.001.002-.001.001-.001.002-.001h.001l.002-.001.003-.002c22.374-12.549 44.747-25.097 66.946-37.991-17.861-10.281-35.794-20.373-53.734-30.47a12389 12389 0 0 1-27.513-15.516l-1.641-.926-2.265-1.278-.028-.015c-8.491-4.792-16.984-9.584-25.504-14.32-1.783-.566-4.769 1.107-7.333 2.544-1.176.659-2.264 1.268-3.105 1.588-.697.367-1.736 1.11-1.698 1.611.071.947.567 2.262 1.31 2.692 7.486 4.339 15.024 8.585 22.561 12.831h.001l.001.001.002.001h.001l.001.001h.001l.001.001h.001l.001.001 4.431 2.497c9.09 5.328 18.39 10.452 27.691 15.576 13.667 7.53 27.335 15.06 40.338 23.24-18.645 11.592-38.111 22.39-57.582 33.191v.001h-.002c-13.803 7.657-27.609 15.316-41.128 23.26-1.961 1.119-3.414 1.056-5.333-.05-8.034-4.635-16.114-9.193-24.194-13.751l-.002-.001-.002-.002-.002-.001-.002-.001-.002-.001-.002-.001-.002-.002-.002-.001-.003-.001-.048-.027-6.918-3.906c-8.936-5.277-18.075-10.297-27.212-15.317v-.001h-.001c-13.154-7.227-26.307-14.453-38.851-22.442 17.431-10.758 35.433-20.761 53.438-30.765h.001c12.669-7.039 25.34-14.08 37.815-21.385.668-.38 1.102-1.423 1.335-2.24.009-.258.029-.533.05-.816.119-1.604.257-3.471-1.69-3.826-.92-.286-1.818-.65-2.715-1.012-1.038-.42-2.076-.841-3.148-1.141-1.002-.28-2.362-.346-3.226.117-3.666 1.959-7.28 4.013-10.895 6.067h-.001q-2.188 1.247-4.383 2.484l-9.326 5.25-.001.001c-28.028 15.777-55.783 31.4-83.859 47.379zm136.873 183.33c.307-7.117.112-14.193-.083-21.284-.094-3.419-.188-6.842-.226-10.274-.054-1.832.421-2.918 2.078-3.473 1.941-.651 2.529-1.915 2.496-3.968-.181-10.968-.331-21.936-.481-32.905v-.027c-.133-9.745-.266-19.49-.421-29.234-.021-1.428.464-2.062 1.657-2.701 11.192-6.183 22.313-12.499 33.435-18.814a5805 5805 0 0 1 18.665-10.57q23.293-13.211 46.566-26.446c1.482-.843 2.028-.58 2.049 1.097.122 9.238.218 18.477.315 27.717.195 18.646.389 37.292.791 55.933.025.935.593 2.246 1.331 2.705 1.199.657 2.37 1.376 3.541 2.094 2.657 1.63 5.314 3.26 8.295 4.178l-.785-60.893-.722-56.035c-23.402 12.8-46.593 25.991-69.786 39.182l-.002.001c-18.712 10.643-37.425 21.286-56.25 31.726-1.62.91-2.187 1.941-2.158 3.789.159 11.026.274 22.053.389 33.08v.033l.001.005v.005a13400 13400 0 0 0 .866 68.056c.013.889.23 2.186.826 2.587 1.677 1.131 3.451 2.115 5.341 3.164l.003.002c.738.409 1.494.829 2.269 1.27M180.763 228.8c-.34-17.279-.679-34.544-.126-51.762 19.069 9.904 37.811 20.652 56.556 31.402 13.735 7.877 27.473 15.755 41.342 23.303 1.824 1.014 2.496 2.115 2.517 4.21.147 14.877.328 29.753.508 44.63v.032l.001.016v.066l.001.017v.018c.16 13.241.321 26.481.458 39.723.021 2.016.655 3.201 2.462 4.052 1.569.821 2.982 1.637 4.396 2.453 1.857 1.072 3.714 2.144 5.925 3.227-.179-18.646-.413-37.263-.647-55.881v-.006c-.197-15.728-.395-31.456-.559-47.202-.013-1.261-.38-2.029-1.507-2.655-17.493-9.825-34.94-19.687-52.385-29.549l-.005-.002-.011-.007-.004-.002c-24.133-13.642-48.263-27.282-72.507-40.819.172 16.651.391 33.275.611 49.897v.012c.232 17.645.465 35.287.641 52.956.013.772.13 1.944.622 2.245 2.894 1.772 5.847 3.449 9.005 5.241l.001.001.003.001.012.007q1.512.858 3.094 1.761l-.004-.004c.089-12.459-.156-24.922-.4-37.377zm297.091 74.574c-15.162 8.345-30.2 16.873-45.239 25.403l-.003.002-.003.002-.004.001-.003.002-.003.002-.003.002-.003.002-.004.002-.003.001c-12.621 7.158-25.243 14.317-37.94 21.368-1.87 1.047-2.442 2.187-2.412 4.244.242 14.107.407 28.211.573 42.315v.019c.211 17.972.422 35.944.791 53.92 16.379-8.718 32.536-17.957 48.695-27.197 11.64-6.657 23.282-13.314 35.01-19.778 1.481-.826 1.99-1.753 1.965-3.431-.247-13.507-.391-27.007-.534-40.505-.2-18.79-.399-37.577-.88-56.374m-117.859 66.585c-15.521 8.516-30.914 17.26-46.309 26.006l-.002.001-.003.001-.002.001-.002.002-.002.001-.002.001-.002.001-.003.001-.002.001c-12.445 7.07-24.892 14.141-37.409 21.093-1.544.868-1.949 1.844-1.928 3.464.26 13.088.364 26.18.468 39.271v.004c.153 19.236.307 38.47.955 57.688 11.014-6.205 22.006-12.423 32.996-18.639l.002-.001c16.797-9.502 33.587-18.999 50.439-28.439 1.544-.864 2.112-1.858 2.087-3.619-.225-13.596-.36-27.187-.495-40.776l-.001-.005v-.044c-.186-18.668-.372-37.334-.79-56.009zm-103.361-89.672v-.002c-.143-8.796-.286-17.593-.234-26.411 0-3.898-.964-6.106-4.612-8.076-7.198-3.769-14.233-7.82-21.266-11.87h-.001c-8.033-4.626-16.064-9.25-24.335-13.453-.145 11.22.039 22.425.223 33.634v.005c.129 7.803.257 15.609.274 23.423.013 1.322.576 1.953 1.657 2.558 6.674 3.726 13.286 7.481 19.895 11.233l.001.001.008.004c9.492 5.39 18.976 10.775 28.619 16.064v.004c.064-9.054-.083-18.083-.229-27.111v-.002zm-67.845 138.207v.003c.188 16.239.375 32.475.504 48.743.016 2.015.651 3.134 2.383 4.077 13.575 7.424 26.986 15.062 40.399 22.701l.004.002c13.879 7.904 27.76 15.809 41.824 23.479-.317-32.531-.693-64.945-1.227-97.464-.017-.822-.442-2.024-1.064-2.383-18.837-10.773-37.476-21.263-56.238-31.824l-.016-.008c-8.983-5.057-17.995-10.129-27.071-15.256l.004.004c.128 16 .313 31.964.498 47.926M70.703 304.229c.087 7.422.167 14.838.248 22.25.272 25.097.544 50.151 1.05 75.264.03.923.643 2.175 1.386 2.663 9.334 5.233 18.644 10.538 27.956 15.845 18.265 10.409 36.539 20.823 55.022 30.704-.136-17.615-.34-35.212-.545-52.809v-.034c-.171-14.727-.342-29.455-.473-44.195-.013-1.298-.309-2.204-1.532-2.888-12.777-7.141-25.437-14.307-38.096-21.473l-.006-.004-.006-.003c-14.939-8.457-29.877-16.912-45.004-25.324zm.918-1.381c17.205 9.877 34.468 19.579 51.738 29.285l.015.009c10.424 5.858 20.85 11.718 31.268 17.618.688.384 1.953.405 2.633.029 28.212-15.8 56.202-31.608 84.314-47.642-14.867-8.566-29.805-16.971-44.745-25.377l-.002-.001h-.001c-12.647-7.116-25.295-14.233-37.901-21.447-1.231-.697-2.216-.722-3.46.012-13.709 7.905-27.468 15.628-41.228 23.353l-.003.001-.001.001-.002.001-.001.001h-.001l-.002.001c-14.223 7.984-28.447 15.969-42.62 24.156m146.262 82.659.003.002.007.004a4344 4344 0 0 1 17.185 9.67q4.821 2.716 9.639 5.436l.019.01.019.011.002.001c9.117 5.144 18.233 10.288 27.376 15.383.689.384 1.945.439 2.617.067 28.116-15.767 56.115-31.483 84.118-47.484-14.869-9.047-30.143-17.525-45.422-26.005l-.001-.001h-.001v-.001h-.001l-.001-.001c-12.397-6.881-24.798-13.764-36.989-20.954-1.227-.702-2.262-.672-3.472.016a19616 19616 0 0 1-35.896 20.324l-.006.003-2.188 1.237c-5.445 3.084-10.842 6.127-16.226 9.164l-.066.037-.022.012-.012.007c-9.808 5.531-19.575 11.038-29.514 16.73h-.005c9.689 5.596 19.245 10.954 28.837 16.332m214.504-108.98-.002-.002c-12.547-7.049-25.094-14.099-37.576-21.278-1.382-.785-2.55-.981-4.044-.125-12.396 7.083-24.812 14.073-37.227 21.062l-.004.002-.006.003-.002.001c-15.477 8.713-30.952 17.424-46.383 26.316 18.201 10.657 36.59 20.941 54.985 31.228 9.286 5.193 18.574 10.387 27.839 15.63.739.413 2.083.471 2.801.075a16950 16950 0 0 0 84.272-47.547h-.004c-14.808-8.599-29.728-16.982-44.649-25.365M299.771 127.976l-.006-1.821 3.233 1.825 42.786 24.144-1.699.97-1.964 1.121h-.001l-.006.003-.003.002-.007.005c-15.388 8.783-30.407 17.356-45.932 25.873-.722.342-1.92.404-2.588.033-16.405-9.177-32.489-18.267-48.886-27.552l38.122-21.533 1.275-.72.118-.067 3.103-1.752c.316 3.441.328 6.711.34 10.016.007 1.889.014 3.79.077 5.742-.396 5.376 5.167 5.901 9.152 4.75 2.125-.551 3.11-2.045 3.051-4.357-.132-5.708-.148-10.992-.165-16.677zm-7.359-35.151c36.191-.347 36.191-53.836.542-54.662-35.732.125-36.5 53.752-.542 54.662M205.06 279.59c.169-12.26-.064-24.495-.296-36.734-.146-7.685-.292-15.371-.339-23.066-.021-1.335.413-1.903 1.841-1.74 13.088.924 14.33 1.653 21.657 5.955a271 271 0 0 0 6.35 3.643l5.952 3.358c7.213 4.069 14.426 8.138 21.646 12.197 1.273.713 2.095 1.477 2.108 3.192.053 9.358.147 18.716.241 28.074.068 6.776.136 13.552.189 20.328-.303 3.04-1.73 5.788-3.154 8.529v.001c-.836 1.609-1.671 3.217-2.276 4.879-.618 1.415-1.285 1.553-2.516.831-1.047-.592-2.087-1.197-3.128-1.801-2.882-1.674-5.765-3.349-8.779-4.772l-.178.203-.369.419c.174.195.336.409.498.624v.001c.345.455.689.911 1.142 1.178 3.343 2.115 6.879 4.002 10.412 5.887 4.17 2.225 8.336 4.448 12.174 7.042 1.6 1.376 3.387 1.498 5.188 1.621 1.545.106 3.1.212 4.557 1.112-.139-14.941-.345-29.856-.55-44.772v-.007c-.175-12.708-.35-25.417-.485-38.141-.016-1.365-.463-2.137-1.644-2.796-10.092-5.652-20.149-11.351-30.206-17.049l-.004-.002-.014-.008-.003-.001-.002-.002-.003-.001-.002-.002-.006-.003c-13.85-7.847-27.699-15.694-41.633-23.418-.872 3.164.463 83.805 1.632 85.245zm119.111-142.951-.355-.201-23.667-13.357-.488.614c9.045 6.2 18.828 11.505 28.606 16.807 6.129 3.323 12.256 6.645 18.198 10.186 1.502.839 1.928 1.553.834 3.038-1.024 1.287-1.954 2.741-2.89 4.206-1.654 2.587-3.329 5.206-5.586 7-9.342 5.403-18.744 10.705-28.146 16.008l-.002.001-.012.007-.013.008a6267 6267 0 0 0-14.069 7.951c-1.11.631-1.937.626-3.051-.008-6.681-3.789-13.374-7.561-20.066-11.333l-.008-.004c-6.38-3.596-12.76-7.192-19.13-10.802-3.789-1.816-6.046-5.239-8.294-8.648-.827-1.254-1.653-2.507-2.553-3.676-1.431-2.033-1.373-2.187.814-3.414 5.593-3.308 11.324-6.445 17.056-9.583 8.83-4.833 17.663-9.668 25.996-15.132l-.126-.155-.002-.002q-.142-.175-.281-.352c-12.215 6.904-24.432 13.806-36.709 20.743l-.14.079-.427.241-.738.417-.083.047-.046.026-27.821 15.719c8.297 4.966 16.665 9.628 25.045 14.298h.001v.001h.001l.004.002.001.001h.001c5.456 3.041 10.918 6.084 16.368 9.215q4.814 2.717 9.624 5.44h.001l.001.001.001.001h.001l.001.001h.001a3856 3856 0 0 0 21.419 12.06c.631.351 1.799.346 2.433-.004 18.204-10.182 35.986-20.254 53.981-30.447 6.597-3.736 13.223-7.489 19.908-11.27h-.004c-15.304-8.639-30.399-17.157-45.421-25.636l-.099-.055zm27.447 76.981.003-.002.003-.002.003-.001.003-.002.003-.002.003-.001.003-.002.003-.002c12.062-6.825 24.126-13.653 36.276-20.42.417 12.057.533 24.075.65 36.102v.02c.075 7.744.151 15.492.306 23.255l.002.102c.018 1.085.035 2.163-1.705 2.398-.31-8.016-.366-16.023-.421-24.034V231c-.028-3.937-.055-7.875-.113-11.815-.008-1.59-.476-2.112-2.053-1.911-1.38.176-2.768.306-4.156.436h-.007c-2.493.234-4.984.467-7.422.966-8.34 3.579-16.239 8.239-24.139 12.9-5.889 3.475-11.779 6.95-17.853 9.978-3.423 1.832-4.382 3.81-4.27 7.529.248 8.032.316 16.067.383 24.102.038 4.549.076 9.097.147 13.646.03 1.823-.463 2.883-2.182 3.739-1.84.878-3.537 1.889-5.234 2.9l-.002.001-.001.001c-2.022 1.205-4.043 2.409-6.303 3.387-.335-11.206-.462-22.388-.588-33.574v-.003c-.096-8.423-.191-16.847-.376-25.284-.025-1.677.48-2.683 1.941-3.501 12.42-6.913 24.753-13.893 37.09-20.874h.001v-.001h.002zm-109.215 90.092c-15.753 8.548-31.335 17.419-46.919 26.291-12.14 6.912-24.28 13.824-36.502 20.584-1.624.901-2.27 1.865-2.241 3.726.236 13.63.383 27.259.529 40.887v.002c.199 18.586.398 37.17.827 55.753 5.932-2.764 11.629-6.095 17.328-9.427h.001v-.001c3.551-2.076 7.102-4.152 10.712-6.092.492-.284 1.122-.881 1.139-1.353.081-2.085.071-4.175.061-6.373v-.001q-.006-1.123-.007-2.289c-3.659 1.492-7.01 3.499-10.358 5.504-3.363 2.015-6.725 4.028-10.396 5.517-.823-13.821-.877-27.717-.93-41.617-.042-10.893-.084-21.788-.497-32.651-.092-4.124.755-6.74 4.733-8.026 12.485-7.138 25.027-14.202 37.57-21.266l.003-.001.003-.002.002-.001.003-.002.003-.002.002-.001.003-.002.003-.001.004-.003.004-.002.004-.002.004-.002.004-.002.003-.003.004-.002c8.207-4.622 16.414-9.244 24.605-13.887 1.857-1.047 2.387-.734 2.408 1.402.074 2.593.078 5.16.083 7.722v.001c.009 4.411.017 8.802.376 13.269.879-.647 2.005-1.166 3.135-1.688 2.536-1.17 5.095-2.351 4.945-5.01-.157-4.473-.194-8.932-.231-13.388v-.005c-.048-5.848-.097-11.692-.416-17.561zm149.263 147.156c.016-20.196-.245-40.222-.506-60.274-.16-12.28-.32-24.57-.416-36.915-.017-1.49-.451-2.375-1.832-3.122-12.885-7.129-25.68-14.402-38.476-21.675l-.001-.001-.002-.001-.002-.001-.001-.001-.002-.001-.001-.001-.002-.001-.002-.001-.007-.004c-14.597-8.297-29.194-16.594-43.924-24.678-.462 6.384-.289 12.851-.115 19.321.108 4.04.216 8.082.17 12.104-.063 1.569 2.604 2.916 5.036 4.144 1.138.575 2.224 1.123 2.956 1.657-.007-3.94-.034-7.722-.062-11.51v-.005c-.022-3.093-.044-6.189-.055-9.377-.009-1.986.517-2.27 2.17-1.327 19.363 11.008 38.774 21.933 58.183 32.857l.002.001 5.7 3.208c1.615.906 2.35 1.945 2.362 3.919.117 18.917.338 37.835.56 56.753.039 3.258.106 6.516.174 9.774.062 2.998.124 5.995.164 8.993-.042 1.64-1.073 1.645-2.266.956-2.04-1.144-4.025-2.278-5.997-3.403l-.018-.011-.015-.008-.016-.009-.001-.001-.001-.001h-.001c-4.283-2.446-8.501-4.855-13.061-7.247 0 .767.018 1.489.036 2.179v.008c.037 1.462.071 2.78-.082 4.078-.292 2.499.889 3.735 2.938 4.845 4.733 2.575 9.305 5.166 13.896 7.767l.005.003c4.111 2.329 8.236 4.666 12.504 7.008zM355.49 235.95l-.002.001-.001.001-.002.001-.002.001-.002.001-.002.001-.002.001-.001.001-.002.001c-6.57 3.767-13.141 7.535-19.78 11.166-1.231.693-1.711 1.574-1.686 3.018.156 4.763.185 9.519.215 14.272.042 6.841.084 13.677.503 20.525 9.566-5.105 18.964-10.478 28.364-15.853 6.86-3.922 13.722-7.845 20.652-11.666 1.302-.73 1.715-1.519 1.694-2.925-.109-4.825-.138-9.631-.168-14.434-.041-6.796-.083-13.586-.349-20.418-9.951 5.138-19.686 10.72-29.422 16.302l-.001.001h-.001l-.001.001h-.001l-.001.001zm-25.038 95.097c-.207 3.499-.122 6.869-.038 10.253.059 2.363.119 4.733.079 7.158 0 1.423.464 2.266 1.732 2.976 4.16 2.326 8.309 4.674 12.457 7.023 5.037 2.85 10.074 5.702 15.133 8.514 1.352.751 1.828 1.569 1.841 3.08.048 6.062.127 12.123.205 18.183v.007c.069 5.336.138 10.673.187 16.01.017 1.595.284 2.751 1.936 3.473 1.116.488 2.164 1.13 3.214 1.772v.001c.556.34 1.111.68 1.677.998 2.535 1.424 5.075 2.837 7.737 4.319l.015.008 3.45 1.92c.144-9.411-.022-18.787-.188-28.163v-.032c-.146-8.27-.292-16.542-.226-24.839 0-3.711-.696-6.298-4.448-7.487a3129 3129 0 0 1-17.092-9.664c-9.162-5.205-18.31-10.402-27.663-15.518zm-111.687-.33c-9.503 5.018-18.828 10.329-28.155 15.643l-.004.002c-6.675 3.802-13.352 7.605-20.097 11.303-1.44.805-2.008 1.782-1.979 3.48.181 7.857.245 15.697.309 23.536.089 10.819.178 21.632.572 32.479l8.197-4.647.039-.022 9.471-5.368q-.193-.358-.388-.71c-.283.146-.597.338-.929.542-1.231.757-2.711 1.666-3.828.877-.397-.901-.858-1.802-1.32-2.705-1.19-2.329-2.389-4.674-2.524-7.073-.486-8.581-.499-17.191-.512-25.797-.004-2.176-.007-4.351-.018-6.525 0-.76.626-1.849 1.285-2.233 5.818-3.397 11.673-6.736 17.591-9.954 1.18-.641 2.34-1.328 3.5-2.015v-.001c4.655-2.758 9.307-5.514 15.213-5.27 2.922-.133 2.962.415 3.08 2.045.038.525.084 1.164.238 1.928l.128-.013.127-.012v-19.481zm120.173-199.554 43.078 24.311c-.991.553-1.941 1.09-2.864 1.612l-.002.001-.001.001c-2.537 1.434-4.865 2.75-7.256 3.946-.589.296-1.741-.18-2.471-.589-4.977-2.785-9.939-5.599-14.901-8.412l-.001-.001h-.001l-.001-.001-.003-.002-.01-.005q-4.324-2.454-8.654-4.9-7.61-4.287-15.215-8.586l-.003-.002a6584 6584 0 0 0-27.963-15.738c-2.333-.931-3.352-2.488-3.084-5.134.182-1.819.143-3.662.099-5.696-.02-.946-.041-1.934-.041-2.98zm-148.005 56.104c.077 10.492.205 20.957.333 31.416.195 15.982.39 31.948.406 47.969-.312 5.873 2.841 7.393 6.746 9.276 1.276.615 2.633 1.269 3.975 2.126-.242-27.657-.534-55.171-.948-82.816-.016-.826-.233-2.053-.788-2.403-2.192-1.377-4.455-2.636-6.936-4.016h-.001a538 538 0 0 1-2.783-1.556zm17.632-31.045c.964.414 2.297 1.231 3.735 2.113 3.102 1.901 6.693 4.103 8.13 3.208 8.602-4.713 17.134-9.56 25.666-14.408h.001l.001-.001h.001v-.001h.001l.001-.001c5.536-3.145 11.071-6.29 16.626-9.398l5.138-2.9.006-.003c5.966-3.366 11.933-6.732 17.884-10.126.618-.351 1.494-.989 1.515-1.519.1-2.73.09-5.465.079-8.435v-.006q-.007-1.465-.008-3.019l-38.917 21.981-.314.178-.166.093-.021.012-39.354 22.228zm184.053-4.507-.059-.693c-30.874-17.428-61.753-34.856-93.053-52.521.14 1.007.065 2.204-.011 3.414-.164 2.611-.332 5.282 1.656 6.234 5.511 3.069 11 6.176 16.489 9.283l.008.005.006.003 6.003 3.396q29.122 16.44 58.256 32.861l.137.079.107.063.083.05c.527.316 1.122.672 1.555.555 2.25-.614 4.472-1.329 6.696-2.044q1.062-.343 2.127-.681zm-195.392.546c1.421.299 2.749.825 4.029 1.332 2.841 1.126 5.445 2.159 8.299.392a3503 3503 0 0 1 24.08-13.709q9.748-5.504 19.497-11.004c10.98-6.194 21.96-12.387 32.929-18.598 1.532-.821 1.382-3.475 1.238-6.005v-.001c-.067-1.183-.133-2.339-.024-3.267l-59.061 33.359-.078.044-.509.288zm200.01 35.616-.004.002-.001.001c-2.059 1.177-3.953 2.26-5.886 3.264-1.378.714-1.766 1.661-1.745 3.155.196 8.006.253 16.025.31 24.045v.003c.082 11.587.164 23.175.667 34.721 2.582-.72 4.413.447 6.255 1.621 1.253.799 2.511 1.601 4.015 1.814l-.411-32.476-.018-1.4-.027-2.165-.027-2.122-.01-.755-.002-.15-.394-31.107c-.942.531-1.84 1.045-2.708 1.541l-.007.004zm-207.054 83.387c.099-16.984-.187-33.935-.472-50.892v-.005c-.182-10.783-.364-21.568-.446-32.365-.002-.144.003-.3.009-.46.02-.532.042-1.1-.218-1.36-1.67-1.657-3.404-3.248-5.137-4.838v-.001h-.001l-.001-.001-.001-.001-.001-.001-.001-.001-.001-.001-.001-.001q-.848-.776-1.692-1.557-.178.109-.359.215l-.004.003-.003.001-.152.09q.563 42.487 1.106 84.973c.013.768.146 1.895.643 2.233 1.467.998 3.017 1.87 4.703 2.818l.002.001.003.002c.653.367 1.327.746 2.024 1.148m218.563-92.208.031.015.091.044.084.039.085.04.017 1.324c.349 26.975.698 53.959 1.055 81.677-.766-.453-1.497-.876-2.199-1.282-1.872-1.083-3.536-2.046-5.109-3.141-.427-.298-.432-1.337-.436-2.129v-.021l-.001-.011v-.021l-.001-.164c-.122-10.348-.23-20.698-.337-31.048v-.018l-.001-.019v-.073l-.001-.018v-.037q-.069-6.707-.141-13.412l-.033-3.308c-.067-6.611-.133-13.224-.255-19.838-.148-2.785 1.961-4.475 4.057-6.155 1.025-.821 2.047-1.64 2.8-2.584zm-161.956-23.237.173-.163q6.026 3.4 12.055 6.795l.007.004c11.222 6.321 22.444 12.642 33.621 19.045 1.574.901 2.842.922 4.412.025 5.144-2.885 10.256-5.816 15.366-8.746l.004-.002.001-.001c10.471-6.003 20.936-12.003 31.662-17.597-.603.858-1.157 1.742-1.708 2.623v.001c-1.776 2.836-3.529 5.638-6.847 7.421-9.79 5.259-19.434 10.786-29.076 16.312l-.019.01-.019.011-.019.011q-3.136 1.797-6.274 3.592l-.174.1h-.001c-2.43 1.39-3.654 2.09-4.881 2.096-1.246.005-2.494-.704-5.01-2.132l-.046-.027c-12.019-6.827-24.042-13.651-36.124-20.361-2.656-1.703-4.281-4.236-5.901-6.759a71 71 0 0 0-1.378-2.093l.053-.049.066-.063zm42.277-30.321c.125 6.441.249 12.883.262 19.318-.076 3.418 4.377 3.773 7.224 2.78 1.867-.747 1.845-2.239 1.822-3.805l-.003-.185c-.122-6.591-.186-13.185-.25-19.78v-.003c-.095-9.852-.19-19.704-.48-29.546h-8.706c-.271 10.386-.07 20.801.131 31.217v.003zm-30.29 178.833h.003l.002.001.569.127c.374-1.059.846-2.116 1.318-3.173 1.02-2.285 2.04-4.57 2.063-6.864.147-13.291-.102-26.589-.351-39.884l-.142-7.68c-.016-.826-.692-1.994-1.406-2.403a2113 2113 0 0 0-13.67-7.747l-.003-.001c-7.544-4.25-15.088-8.5-22.543-12.902-4.683-2.508-9.549-4.224-14.79-3.322 6.805 3.817 13.516 7.615 20.213 11.404 8.494 4.806 16.966 9.599 25.576 14.404 1.59.889 2.291 1.836 2.296 3.714.022 6.997.087 13.994.151 20.99.103 11.07.205 22.14.141 33.209h.004zm12.289 16.708-.801-.451-.23-.13c-8.748-4.932-17.074-9.626-25.728-14.509q-.001 1.552-.007 3.014v.009c-.01 2.914-.019 5.599.065 8.282.017.513.755 1.156 1.31 1.473 4.253 2.199 7.082 3.947 9.138 5.217 2.526 1.561 3.883 2.4 5.275 2.463 1.615.073 3.278-.899 6.871-3 1.15-.673 2.499-1.461 4.107-2.368m-54.508 27.453c-6.492 3.231-12.795 6.874-19.1 10.517-4.321 2.498-8.642 4.995-13.026 7.361-1.131.634-1.49 1.432-1.473 2.684.14 4.978.16 9.968.181 14.957.029 7.298.059 14.597.465 21.86 3.168-.777 3.51-1.169 3.477-3.969l-.095-7.639v-.003c-.101-7.947-.202-15.893-.243-23.842-.004-.797.471-1.978 1.093-2.337 8.902-5.129 17.837-10.216 26.851-15.141 1.916-1.047 2.421-2.257 1.87-4.448m164.488-128.727-.121-.401-.032-.105-.067-.223-.022-.072c-1.062.22-2.16.371-3.258.522-2.405.332-4.812.663-6.846 1.715-9.237 4.847-18.246 10.008-27.277 15.182-4.661 2.67-9.328 5.344-14.035 7.98 3.218 2.621 3.544 2.621 6.749.809 5.65-3.204 11.311-6.388 16.972-9.572 9.33-5.248 18.659-10.496 27.937-15.831zM279.762 321.761l.25-.031.148-.019.399-.05c-.404-28.491-.784-56.987-1.076-85.482-.017-1.503-.434-2.421-1.803-3.126-12.957-7.24-25.871-14.562-38.786-21.883l-.001-.001-.001-.001-.002-.001h-.001l-.001-.001-.002-.001-.001-.001h-.001l-.002-.001c-16.626-9.426-33.254-18.853-49.973-28.107l-.301.489c17.406 10.924 35.476 20.911 53.542 30.896v.001h.001l.001.001h.001l.001.001h.001c11.304 6.248 22.608 12.496 33.747 18.972 1.999 1.106 2.675 2.304 2.692 4.532.176 10.371.237 20.752.297 31.134.103 17.576.205 35.153.871 52.684zM204.5 156.222l-.039.096q-.069.168-.14.334c13.945 8.106 28.016 16.007 42.087 23.908l.002.001.01.006.001.001.002.001.002.001.009.005.002.001.002.001.001.001c7.471 4.195 14.942 8.39 22.393 12.615l5.859 3.298.03.017.03.016.03.017.03.017.031.017.03.018.031.017c6.026 3.39 12.053 6.78 18.064 10.201 1.089.618 1.965.672 3.071.025 13.429-7.64 26.894-15.218 40.359-22.797l.005-.003.008-.004.003-.002c16.398-9.229 32.796-18.458 49.131-27.8l-.044-.092-.073-.158-.117-.251c-17.786 9.341-35.252 19.333-52.72 29.326-12.157 6.955-24.315 13.91-36.581 20.646-.714.401-2.024.355-2.775-.029-12.446-6.751-24.753-13.805-37.06-20.859l-.001-.001h-.001v-.001h-.001l-.001-.001c-17.099-9.801-34.198-19.602-51.67-28.588m124.232 90.065v41.766c3.785-1.081 4.286-1.719 4.249-4.903l-.182-15.444v-.019l-.005-.444q-.091-7.894-.185-15.79c-.042-3.589-.3-3.927-3.877-5.166m-17.728-13.021.288.851c30.711-16.526 61.636-33.562 91.367-51.82l-.414-.576-24.215 13.68q-33.512 18.932-67.026 37.861zm69.265 192.895c-.044-.839-.002-1.671.038-2.478.114-2.301.219-4.401-1.678-5.918-5.488-3.326-10.609-6.085-16.389-9.161.099.861.038 1.852-.022 2.847-.126 2.066-.253 4.146 1.048 5.095 4.417 2.535 8.856 5.032 13.565 7.681l.023.013.015.009h.002l.003.002zm-200.367-5.656c-3.425 2.013-6.826 4.013-10.57 5.627.095-.795.038-1.75-.02-2.722-.119-1.988-.242-4.042.929-4.919a1914 1914 0 0 1 13.459-7.654l.108-.062.049-.027.293-.166.037-.021 1.83-1.035 1.076-.609c-.088.698-.038 1.695.015 2.753.115 2.293.244 4.871-.987 5.302-2.133 1.13-4.18 2.333-6.218 3.532h-.001zm148.809-71.116.001-1.616v-2.224c.002-4.991.004-9.755-.026-14.519-.092-1.341-2.084-2.331-3.873-3.219-.882-.439-1.714-.852-2.245-1.271a7 7 0 0 1-.208.426c-.092.175-.149.284-.147.392.046 5.772.096 11.543.192 17.311-.008 1.532 2.065 2.526 3.968 3.438.895.43 1.753.841 2.338 1.282m-101.683-23.534c-.87.65-1.877 1.115-2.84 1.559-2.049.946-3.898 1.799-3.804 4.146.101 2.527.103 4.998.105 7.462.003 3.425.005 6.837.275 10.371.613-.449 1.472-.859 2.357-1.281 1.877-.896 3.871-1.847 3.882-3.347.032-4.721.03-9.444.027-14.448v-.015l-.002-4.442zm138.125 98.817c-3.217-1.882-3.435-2.438-2.576-6.709l3.499 1.959 4.057 2.272 4.439 2.486.649.333c4.065 2.078 6.455 3.3 6.154 8.794a1843 1843 0 0 0-5.946-3.335 1012 1012 0 0 1-10.276-5.8m-177.951-6.331c-2.745 1.242-5.28 2.735-7.814 4.226-2.402 1.414-4.802 2.826-7.377 4.024-3.174 1.556-3.421 4.141-3.695 7.017l-.003.028c3.88-1.485 7.583-3.709 11.281-5.929h.001l.001-.001h.001c2.276-1.367 4.55-2.732 6.862-3.923.927-.95.849-2.157.763-3.483-.041-.631-.083-1.289-.02-1.959m45.898-96.813-.147-.058-.107-.043-.204-.081-.21-.085c-.415.415-.912.779-1.41 1.143-1.234.904-2.476 1.813-2.5 3.522-.061 4.485.047 8.974.154 13.461q.06 2.42.109 4.839c0 .054.068.106.183.193.074.056.166.126.272.221.412-.318.941-.53 1.472-.742 1.137-.454 2.284-.913 2.321-2.426.12-4.766.098-9.536.076-14.306v-.002c-.008-1.879-.017-3.758-.017-5.636zm25.75 6.402-14.302-8.088q-.001 1.163-.009 2.256v.003c-.012 2.069-.022 3.976.067 5.879.021.459.718.993 1.219 1.306 5.158 3.443 6.016 2.893 9.04.951 1.008-.647 2.256-1.448 3.985-2.307m57.286 5.384c.047 2.209.094 4.424.093 6.668.042 2.704 1.415 4.048 4.394 4.32 0-1.537-.022-3.075-.045-4.612-.054-3.603-.107-7.203.133-10.784.242-3.627-1.728-5.409-4.553-7.374-.189 3.985-.106 7.872-.022 11.78v.001zm-136.242 32.864-.584.326c-.324 7.01-.135 14.089.054 21.158v.001c.093 3.477.186 6.953.217 10.416.031 1.102.492 2.192 1.008 3.409.257.608.528 1.248.766 1.937.149-.297.264-.502.349-.653.125-.222.184-.326.181-.428l-.011-.784-.045-3.343v-.001c-.134-9.943-.268-19.888-.495-29.83-.011-.509-.443-1.008-.875-1.508-.202-.234-.405-.469-.565-.704zm130.68-68.075c.292.058.58.121.872.179.618-20.791.251-42.092-.797-62.871q-.356.058-.718.108l.643 62.58zm-130.221 66.381c1.451 1.798 2.668 1.051 3.814.348.173-.106.344-.211.514-.306q3.08-1.736 6.164-3.465l.003-.002c7.275-4.084 14.549-8.167 21.736-12.401a61 61 0 0 0-.317-.763c-.613.183-1.243.335-1.872.487-1.368.331-2.737.661-3.937 1.307-8.806 4.816-17.457 9.662-26.105 14.795m64.286-28.529 2.392-1.372 2.571-1.474-3.305-1.757-1.102-.585-.556-.296zm155.97 22.027c.005-.752.664-1.812 1.328-2.195 13.72-7.821 27.467-15.596 41.214-23.372l.006-.003.005-.003c8.197-4.636 16.395-9.273 24.588-13.92 1.331-.763 2.241-.413 2.212 1.273.334 25.52.647 51.04.901 76.56.009.664-.496 1.644-1.056 1.962-8.947 5.075-17.914 10.115-26.88 15.155-13.08 7.351-26.159 14.703-39.175 22.163-1.707.972-2.195.73-2.195-1.273-.009-9.091-.008-18.182-.006-27.273l.001-4.054v-4.908l.001-1.939zm31.954 43.254.002-.002.002-.001.001-.001.002-.001.002-.001.002-.001.002-.001.002-.001.001-.001.002-.001c6.844-3.886 13.689-7.773 20.592-11.576 1.452-.814 1.798-1.832 1.777-3.372-.174-7.612-.23-15.228-.286-22.843v-.014c-.081-11.001-.162-22-.598-32.982-9.448 5.055-18.768 10.363-28.09 15.671v.001h-.001v.001h-.002v.001l-.003.001-.002.001-.002.001-.002.001-.001.001-.002.001-.002.001-.002.001-.001.001-.002.001c-6.73 3.833-13.46 7.666-20.241 11.405-1.377.772-1.69 1.757-1.669 3.213.15 7.694.211 15.373.273 23.049.088 10.962.176 21.919.52 32.907 9.327-5.012 18.521-10.233 27.718-15.456l.002-.001.002-.001.002-.001zm30.119-43.907.386 34.912c-.816-.595-1.738-1.034-2.626-1.458-2.026-.967-3.878-1.85-3.902-4.293-.131-8.722-.224-17.444-.317-26.166l-.003-.266-.039-3.726-.033-2.995q-.03-2.865-.055-5.73c-.047-5.318-.094-10.636-.229-15.955-.146-2.753 1.736-3.607 3.831-4.557.887-.403 1.813-.822 2.638-1.411l.283 25.624zm-.428 36.36c-.885-.414-1.695-.979-2.48-1.526-1.945-1.355-3.734-2.602-6.101-1.174a11540 11540 0 0 1-29.026 16.431q-9.053 5.111-18.099 10.232c-.626.355-1.511.964-1.557 1.511-.132 1.543-.113 3.102-.091 4.822v.004c.008.669.016 1.362.016 2.089l14.478-8.179.315-.178.69-.389.128-.073.324-.183c13.822-7.809 27.51-15.541 41.403-23.387m-20.348 18.562-38.104 21.527c.139-3.568.875-5.982 4.115-7.771 12.49-6.889 24.899-13.926 37.308-20.964l.002-.001.002-.001.001-.001.002-.001.002-.001.002-.001.001-.001.002-.001.002-.001.025-.014.025-.014.025-.014c4.482-2.542 8.963-5.084 13.449-7.618.679-.349 1.274-.689 1.814-.997 2.777-1.585 4.074-2.326 7.659.997l-20.347 11.495-2.755 1.557-2.934 1.658zm27.351-16.734c-.226-20.154-.452-40.176-.681-60.394l-.162-14.43c-2.905 2.057-4.691 3.794-4.62 7.324.318 15.444.489 30.888.66 46.333v.036l.001.006q.08 7.451.169 14.902.054 4.453 4.633 6.227zm-117.559 69.444c.609-.346 1.16-1.398 1.16-2.124l-.885-38.178v-38.182c0-1.824-.651-2.312-2.007-1.536-17.001 9.777-34.093 19.399-51.184 29.02l-.001.001-.001.001h-.002l-.001.001-.001.001h-.002l-.001.001-.011.006q-7.317 4.118-14.631 8.241c-1.135.635-1.51 1.319-1.485 2.609.339 11.042.38 22.119.422 33.195v.008c.055 14.929.111 29.854.896 44.688 13.982-7.1 27.672-14.97 41.359-22.837l.002-.001.002-.001.002-.002c8.765-5.038 17.53-10.076 26.369-14.911m-64.416 18.225c-.242-.088-.484-.18-.726-.267v-.004c.08-17.736-.209-35.468-.498-53.2l-.036-2.218c-.033-1.803.634-2.755 2.145-3.598a7368 7368 0 0 0 28.584-16.085l.011-.006.012-.007.046-.026a11308 11308 0 0 1 19.353-10.91c.439 10.887.507 21.764.576 32.644v.002c.049 7.74.097 15.481.279 23.23.025 1.762-.517 2.805-2.04 3.652-6.936 3.852-13.837 7.765-20.738 11.679h-.001l-.001.001c-8.964 5.083-17.928 10.166-26.966 15.113m54.339-89.427c.922-.417 1.879-.85 2.702-1.456v.004l.595 44.318.298 22.318c-.694-.523-1.609-.986-2.535-1.455-2.083-1.056-4.226-2.142-4.058-4-.132-8.874-.253-17.747-.375-26.62v-.073c-.132-9.663-.264-19.327-.41-28.991-.023-2.323 1.799-3.147 3.783-4.045m.183 65.014c.785.527 1.609 1.08 2.528 1.518a245539 245539 0 0 0-57.409 32.427c.105-.886.038-1.886-.03-2.885-.152-2.256-.305-4.509 1.529-5.437 6.695-3.803 13.396-7.595 20.098-11.387l.002-.001.002-.001.001-.001.002-.001h.002l.001-.001.002-.001.014-.008c8.934-5.055 17.868-10.11 26.788-15.191 2.567-1.648 4.378-.434 6.47.969m9.576 3.325c-4.407-1.523-4.686-1.895-4.736-5.897q-.1-8.048-.197-16.097c-.188-15.564-.375-31.127-.63-46.691-.041-2.601 1.608-3.656 3.414-4.811.385-.247.776-.497 1.16-.768l.023 1.708.025 1.863.003.238.001.037v.012c.312 23.381.625 46.772.937 70.406m-65.608 38.342 49.806-28.136 14.684-8.295c-3.18-2.683-4.077-3.029-5.684-2.132a1247 1247 0 0 0-7.824 4.413l-.008.004q-1.798 1.02-3.599 2.039c-3.79 2.139-7.576 4.285-11.363 6.43l-.012.007c-10.658 6.038-21.316 12.077-32.044 17.981-3.092 1.702-3.66 4.147-3.956 7.689m-.81-21.766h-.063v-17.081h.063zm-19.569 23.955c-13.185-6.226-26.056-13.723-38.931-21.221h-.001c-8.914-5.193-17.83-10.385-26.852-15.158-1.753-.98-2.22-2.007-2.237-3.868.064-10.355-.158-20.745-.38-31.135v-.003c-.327-15.338-.655-30.677-.062-45.898 13.223 6.72 26.141 14.154 39.06 21.588h.001v.001h.002l.001.001c9.049 5.208 18.099 10.415 27.254 15.378 1.327.738 1.519 1.802 1.519 3.134-.016 9.787-.015 19.577-.013 29.366v.001l.001 8.397zm-50.751-63.279c.103 4.463.207 8.928.225 13.396.016.801.847 1.886 1.602 2.32q2.252 1.286 4.482 2.562c9.018 5.158 17.834 10.201 27.123 15.191-.019-5.436-.095-10.809-.171-16.172v-.01c-.094-6.65-.188-13.284-.171-20.005 0-2.216-.781-3.351-2.613-4.357-5.423-2.985-10.705-5.969-16.004-8.963a1821 1821 0 0 0-14.524-8.147h-.004c-.32 8.056-.133 16.116.055 24.182zm47.205 7.268c-.112-6.559-.224-13.121-.281-19.688-.012-.872-.839-2.053-1.627-2.529-4.402-2.489-8.79-4.995-13.177-7.5l-.002-.001-.003-.002-.003-.001-.002-.002-.003-.001-.002-.002-.007-.004h-.002l-.001-.001-.001-.001h-.001l-.001-.001c-11.338-6.475-22.667-12.945-34.2-19.101v15.082c1.457.217 2.901.284 4.321.349 2.628.121 5.174.239 7.577 1.295q5.197 2.918 10.386 5.849a2785 2785 0 0 0 16.682 9.363c1.348.747 1.841 1.64 1.849 3.13.047 5.864.118 11.727.189 17.59v.009c.057 4.632.113 9.265.157 13.897-.106 2.323-1.184 4.401-2.259 6.473-.571 1.1-1.141 2.198-1.564 3.331-.459 1.022-.98 1.11-1.94.559-3.98-2.187-7.915-4.481-11.85-6.775h-.001l-.001-.001h-.001v-.001h-.001l-.001-.001h-.001c-6.426-3.746-12.855-7.493-19.482-10.779q-.071.15-.145.297l-.029.059-.043.09 13.748 7.761c10.573 5.97 21.195 11.967 31.984 18.055l.004.005c.152-12.276-.057-24.535-.266-36.8v-.001zm.451 43.239c-.066.977-.134 1.967-.031 2.886-10.089-5.63-19.97-11.224-29.852-16.817l-.006-.004-.022-.012c-8.459-4.788-16.919-9.577-25.508-14.388-1.24-.697-1.891-1.431-1.907-2.88-.048-8.837-.2-17.681-.351-26.525v-.007c-.221-12.849-.441-25.698-.342-38.526 3.785.259 6.443 2.918 6.489 6.406q.077 5.966.156 11.93v.016c.183 13.891.366 27.781.495 41.673.021 2.087.589 3.335 2.55 4.42 8.752 4.835 17.449 9.767 26.147 14.7l.002.001.001.001q4.633 2.628 9.269 5.251 1.897 1.071 3.796 2.135c2.612 1.465 5.225 2.93 7.81 4.442 1.586 1.135 1.447 3.186 1.304 5.298m-63.357-27.2c.536-.343 1.147-.566 1.741-.783 1.438-.526 2.783-1.017 2.754-3.09-.174-12.423-.332-24.847-.49-37.273v-.034q-.176-13.959-.362-27.918c-.029-2.095-2.245-4.494-4.615-4.983l.442 33.737.003.201.002.167.002.132.002.114.002.2.003.237.004.276.004.351zm1.006 1.983 20.159 11.376 43.142 24.347c.413-3.572-.576-5.65-3.276-7.174q-5.89-3.324-11.786-6.639h-.002l-.001-.001-.001-.001h-.001l-.001-.001-.025-.014-.008-.004q-4.617-2.596-9.23-5.196-5.293-2.986-10.582-5.978c-7.053-3.987-14.106-7.975-21.181-11.926-3.393-1.894-3.676-1.769-7.207 1.206zm18.664-49.76-.074.197-.14.376c7.434 4.392 14.983 8.596 22.529 12.798l.01.005.01.006.01.005.009.006q3.074 1.71 6.145 3.426c1.648.91 2.17 1.974 2.178 3.781.037 3.33.059 6.661.081 9.992v.008c.053 8.049.106 16.1.366 24.138l.935.088c1.889-7.376 1.591-15.006 1.293-22.635-.168-4.302-.337-8.604-.112-12.859.004-2.074-.81-3.076-2.496-4.007-3.656-1.78-7.177-3.901-10.699-6.023-6.382-3.845-12.766-7.691-19.962-9.514h-.005l-.02.057-.027.07zM80.898 319.357c-1.402-.788-2.07-.346-2.07 1.177l.993 38.362v6.581c-.004 10.526-.007 21.053.059 31.58.004.763.66 1.815 1.327 2.224 11.535 6.641 23.138 13.172 34.741 19.702l.001.001.011.006c10.061 5.663 20.123 11.326 30.142 17.062 2.453 1.535 2.267-1.017 2.12-3.039-.042-.579-.081-1.114-.054-1.497l-.137-11.456c-.244-20.302-.488-40.603-.685-60.906-.017-1.594-.493-2.533-1.891-3.301-14.427-8.086-28.814-16.243-43.202-24.4h-.001l-.001-.001h-.001l-.001-.001h-.001l-.001-.001q-10.672-6.052-21.349-12.093m49.558 71.258c.071 5.283.143 10.577.163 15.94-9.025-4.894-17.462-9.731-26.142-14.706l-.003-.002-.005-.003-.004-.002-.007-.004-.074-.042q-2.863-1.642-5.774-3.307c-.589-.338-1.215-1.223-1.227-1.866.01-4.695-.1-9.406-.208-14.118-.182-7.885-.364-15.772.007-23.588 5.185 2.807 10.256 5.689 15.323 8.569l.001.001c4.947 2.812 9.891 5.622 14.933 8.357 2.124 1.152 2.85 2.492 2.85 4.879-.011 6.687.078 13.279.167 19.89zm14.14 26.463c.186-10.95-.017-21.85-.22-32.758-.143-7.694-.287-15.391-.294-23.112-.016-1.691-.596-2.63-2.045-3.443-6.411-3.486-12.74-7.125-19.069-10.762l-.001-.001c-9.247-5.315-18.491-10.629-27.98-15.463v14.958c1.383.205 2.773.269 4.155.334 2.975.138 5.91.274 8.637 1.807l4.731 2.655c7.264 4.075 14.528 8.15 21.736 12.327 1.904.878 1.799 9.993 1.713 17.551-.046 4.039-.088 7.633.186 9.288.2 5.554.137 10.963-3.122 15.796-.073.174-.142.357-.212.541v.001l-.001.001c-.468 1.237-.95 2.51-2.596 1.406l-5.905-3.366-.001-.001c-9.491-5.412-18.983-10.825-28.557-16.085l-.209.38-.104.191 22.561 12.738.128.073.19.106c8.686 4.904 17.426 9.838 26.279 14.838m-57.447-49.081c-.242-13.74-.483-27.478-.17-41.203h.004c.573.323 1.135.629 1.685.928 1.424.775 2.768 1.506 4.011 2.382.484.338.539 1.49.551 2.274.246 18.284.493 36.567.63 54.855.013 2.132.647 3.384 2.538 4.44a7756 7756 0 0 1 27.572 15.481l.003.002.003.002h.001l.003.002c6.248 3.52 12.496 7.039 18.75 10.546 2.44 1.198 2.3 3.302 2.145 5.632-.065.99-.134 2.021-.008 3.04-18.793-10.395-37.356-20.762-55.881-31.542-.76-.538-1.51-1.702-1.523-2.591-.03-8.082-.172-16.166-.314-24.248m-6.206-7.042c-.15-12.999-.3-26.041-.454-39.21 3.076 1.978 4.645 3.856 4.666 7.315.089 15.45.323 30.897.556 46.343v.001q.128 8.325.245 16.649c.03 2.262-.901 3.176-4.603 4.332l-.41-35.407zm29.807 53.328-28.103-15.862-.005.004c2.07-2.62 3.86-3.113 6.29-1.744 6.754 3.808 13.502 7.627 20.25 11.445q7.725 4.375 15.457 8.741a764 764 0 0 1 4.901 2.799l.005.003.001.001c4.267 2.451 8.533 4.902 12.921 7.117 2.715 1.369 3.02 3.472 3.4 6.093.063.433.128.88.206 1.34-11.892-6.71-23.637-13.34-35.323-19.937m21.491-11.024-.028-.005h.005c-.283-7.928-.352-15.866-.422-23.803v-.007c-.031-3.558-.062-7.117-.113-10.674-.012-1.69-.634-2.609-2.099-3.418-3.429-1.972-6.895-3.875-10.359-5.778-6.258-3.437-12.512-6.872-18.537-10.703 3.287-.723 5.766.691 8.23 2.095l.455.259q3.073 1.739 6.144 3.484l.03.017c5.309 3.015 10.618 6.03 15.965 8.977 1.882 1.035 2.821 2.179 2.817 4.491-.01 4.673.048 9.347.105 14.021.064 5.194.128 10.388.1 15.58-.009 1.275-.493 2.546-.977 3.817-.224.589-.449 1.178-.626 1.767l-.686-.119h-.001zm-36.757-29.798h.038v9.92h-.038zm129.419-71.227c-12.368 7.511-25.056 14.557-37.747 21.604l-.001.001h-.001c-9.761 5.421-19.524 10.842-29.145 16.477-1.394.826-2.5.739-3.844-.029a22218 22218 0 0 0-33.303-18.82l-.057-.032-.038-.022c-8.593-4.85-17.187-9.7-25.776-14.559-.409-.344-1.27-.748-2.224-1.196-2.501-1.174-5.634-2.644-2.876-4.104a26518 26518 0 0 0 47.499-26.802l.019-.01.002-.001q9.365-5.294 18.732-10.584c.509-.288 1.477-.242 2.003.05 8.781 5.075 17.661 10.025 26.542 14.975 13.522 7.538 27.044 15.074 40.211 23.052zm-34.931.338c-5.99-3.613-12.043-6.993-18.102-10.377-4.444-2.481-8.892-4.965-13.319-7.543-1.256-.718-2.195-.684-3.435.025-4.303 2.485-8.588 4.888-12.866 7.287-6.313 3.541-12.613 7.074-18.939 10.85 5.963 3.62 11.978 6.977 17.998 10.339h.001l.001.001h.001v.001h.001l.002.001.002.001.002.002.002.001.003.001c4.437 2.477 8.878 4.957 13.304 7.545 1.352.772 2.316.634 3.606-.109 5.285-3.041 10.48-5.971 15.685-8.907l.009-.005c5.301-2.99 10.613-5.987 16.044-9.113m.918 2.528.001-.001v-.001l.001-.002c.673-1.053 1.354-2.12 2.113-3.152l1.159.655 11.942 6.747c-11.106 6.546-22.268 12.779-33.458 19.028l-.006.003c-5.059 2.826-10.124 5.655-15.193 8.517-.663.367-1.907.317-2.587-.063-5.955-3.442-11.984-6.766-18.012-10.088v-.001c-9.946-5.482-19.888-10.962-29.489-16.975l7.027-3.988 5.935-3.369a77 77 0 0 1 1.73 2.574c1.267 1.942 2.504 3.838 4.084 5.38 5.207 3.87 11.007 7.001 16.8 10.128 3.77 2.035 7.538 4.068 11.136 6.302 1.69.981 2.959 1.09 4.741.05 4.769-2.78 9.575-5.499 14.381-8.217l.002-.001.001-.001h.001v-.001c4.079-2.307 8.157-4.613 12.212-6.958 2.378-1.706 3.906-4.1 5.479-6.565zm-54.982-20.795-.808.457-.592.334-35.648 20.139c1.037.408 1.97 1.053 2.863 1.671 1.858 1.286 3.547 2.456 5.667 1.125 4.18-2.438 8.399-4.808 12.617-7.179l.001-.001h.001l.006-.004.015-.008.012-.007q2.007-1.128 4.012-2.258l5.715-3.223.009-.005c8.373-4.723 16.749-9.447 25.096-14.212 1.756-1.237 1.621-3.169 1.471-5.317-.068-.983-.14-2.011-.035-3.038zm21.941-8.496c.052-.957.107-1.966.014-2.998 9.989 5.64 19.85 11.205 29.711 16.769l26.85 15.154c-.834.35-1.699.918-2.566 1.488-1.851 1.215-3.715 2.439-5.318 1.575-8.702-4.876-17.39-9.78-26.078-14.685l-7.484-4.224a604 604 0 0 1-3.493-1.992h-.001l-.002-.002-.002-.001h-.001l-.001-.001c-2.931-1.679-5.862-3.359-8.857-4.915-3.036-1.282-2.914-3.532-2.772-6.168m-64.933 27.24c2.484.959 4.39 1.694 6.996-.13 2.482-1.597 5.076-3.017 7.672-4.437h.001v-.001h.001c1.121-.614 2.243-1.227 3.356-1.856l10.491-5.912.088-.049.007-.004a16001 16001 0 0 0 32.019-18.073c3.122-1.769 3.301-2.383 2.433-6.594l-21.041 11.882-43.558 24.597-.004.004c.54.187 1.048.384 1.534.571l.003.001zm100.819-16.999 28.065 15.839-.416.164-.003.001c-3.015 1.192-5.221 2.065-8.122.393-12.175-7.023-24.424-13.923-36.673-20.824l-.002-.001a9003 9003 0 0 1-16.021-9.039c-3.022-1.711-3.272-2.479-2.321-6.565 11.823 6.674 23.618 13.33 35.493 20.032m-24.686 30.103-.001.001c-3.656 2.116-7.31 4.232-10.994 6.263-1.285.738-2.195.684-3.418-.017-3.371-1.885-6.723-3.81-10.075-5.735l-.001-.001c-6.377-3.663-12.756-7.326-19.275-10.715 1.081 2.228 2.196 4.123 4.441 5.341a784 784 0 0 1 23.771 13.43c2.104 1.236 3.673 1.402 5.851.113 4.402-2.612 8.87-5.111 13.34-7.61l.001-.001h.002l.001-.001.001-.001.001-.001a1013 1013 0 0 0 7.679-4.322q.63-.356 1.271-.702h.001l.001-.001c2.788-1.517 5.611-3.053 6.711-6.679-6.545 3.25-12.928 6.945-19.308 10.638m134.231 74.862c13.172-7.303 26.342-14.605 39.149-22.429l.004-.004c-12.392-7.667-25.205-14.755-38.021-21.846l-.001-.001-.003-.001c-9.368-5.183-18.738-10.367-27.947-15.779-1.402-.797-2.491-.993-3.756.046-9.108 5.354-18.381 10.486-27.654 15.62h-.001l-.001.001c-13.143 7.275-26.288 14.551-38.967 22.457 12.28 7.805 25.118 14.868 37.96 21.932 9.355 5.147 18.713 10.295 27.858 15.732 1.231.701 2.27.718 3.484-.004 9.214-5.366 18.555-10.546 27.896-15.724m-42.263-10.335c-6.789-3.763-13.573-7.524-20.15-11.631 5.937-3.469 11.795-6.764 17.658-10.061l.003-.002c4.546-2.556 9.094-5.114 13.685-7.757 1.506-.868 2.721-.926 4.227-.067 4.141 2.465 8.359 4.788 12.575 7.109 6.207 3.418 12.409 6.833 18.354 10.695-10.884 6.235-21.526 12.219-32.435 18.312-.543.305-1.532.364-2.054.071-3.928-2.269-7.894-4.468-11.859-6.666zm-21.505 4.036c-4.948-2.767-9.869-5.518-14.817-8.53l.004-.004 6.817-3.858.092-.052.08-.045.016-.01 2.907-1.645 3.163-1.79c4.236 6.323 6.619 9.582 13.647 12.963 7.028 3.789 13.96 7.754 20.879 11.743 1.273.735 2.191.689 3.422-.012a4452 4452 0 0 1 20.037-11.346q3.763-2.122 7.524-4.246.124-.068.257-.132c.236-.117.474-.234.611-.423a1135 1135 0 0 0 5.386-7.616l1.008-1.432 6.836 3.863 2.038 1.152 4.088 2.31c-11.654 7.052-23.536 13.65-35.428 20.254-4.315 2.397-8.633 4.794-12.941 7.214-.772.376-2.061.426-2.788.03-7.516-4.117-14.98-8.321-22.445-12.526l-.002-.001h-.001l-.001-.001-.001-.001-2.097-1.181c-2.779-1.596-5.539-3.139-8.291-4.678m-20.404-11.562c-.913-.6-1.839-1.209-2.76-1.584 19.306-10.901 38.111-21.522 57.396-32.414 0 .753.007 1.466.014 2.15v.003c.018 1.767.034 3.339-.08 4.9-.034.488-.869 1.026-1.444 1.352a9378 9378 0 0 1-27.532 15.591q-3.354 1.891-6.712 3.777a1837 1837 0 0 0-13.408 7.579c-1.634 1.169-3.523-.072-5.474-1.354m82.575-19.164.523.295.472.267 29.276 16.517c-.993.441-1.859 1.014-2.674 1.555-1.795 1.19-3.346 2.218-5.481 1.308-6.258-3.453-12.485-6.968-18.711-10.481l-.003-.002-.003-.001-.003-.002-.009-.005-1.319-.744-1.382-.78c-2.285-1.288-4.564-2.588-6.842-3.887-5.5-3.136-11-6.272-16.583-9.255-3.856-1.856-3.779-3.871-3.66-6.996.031-.809.065-1.692.034-2.665l26.088 14.719zm-92.274 14.529.099.693c.821.022 1.578.302 2.339.583 1.387.512 2.785 1.028 4.593-.007 12.889-7.371 25.82-14.666 38.752-21.962q8.005-4.515 16.007-9.038c2.846-1.61 3.342-3.075 2.136-6.385l-1.502.849-.522.295-.009.005-.009.005-.009.005c-20.644 11.661-41.262 23.307-61.875 34.957m105.671-13.974-1.747-.986-37.485-21.156-.564.393c.192.611.115 1.271.037 1.932-.144 1.232-.289 2.464 1.32 3.38l1.017.582c2.074 1.184 4.147 2.368 6.227 3.537q6.06 3.412 12.126 6.814l.004.002c11.519 6.465 23.038 12.93 34.47 19.543 3.12 1.806 5.548 1.132 8.739-.415zm-72.482 17.929.284-.27v.005c3.81 2.118 7.602 4.272 11.394 6.425l.001.001.003.002.003.001.002.001.002.001.003.002c6.041 3.43 12.082 6.861 18.194 10.151.747.388 2.053.401 2.775 0 4.698-2.564 9.355-5.207 14.012-7.85 5.424-3.078 10.848-6.157 16.337-9.11l.171.149.088.077.147.127.065.057.046.041c-.407.464-.788.973-1.17 1.482-.825 1.103-1.651 2.206-2.744 2.854-3.681 2.183-7.413 4.279-11.145 6.376l-.002.001c-4.379 2.46-8.758 4.92-13.055 7.52-2.933 1.774-5.033 1.828-8.008.012-4.351-2.655-8.805-5.139-13.258-7.624h-.001v-.001h-.001c-3.491-1.948-6.982-3.895-10.424-5.925-1.101-.65-1.953-1.724-2.805-2.798a25 25 0 0 0-1.197-1.438l.204-.194zm149.034-31.524c7.996-4.584 16.116-9.069 24.243-13.558h.001c14.949-8.257 29.922-16.527 44.195-25.45-12.637-8.034-26.012-15.39-39.386-22.745-9.072-4.989-18.143-9.978-26.983-15.178-.588-.33-1.661-.35-2.249-.033-10.41 5.758-20.761 11.626-31.111 17.495l-.008.005c-6.51 3.691-13.02 7.382-19.545 11.045a2921 2921 0 0 1-5.451 3.07c-3.33 1.872-6.66 3.745-9.978 5.64-.484.276-1.115.868-1.102 1.302 14.849 9.253 30.504 17.913 46.101 26.54 7.131 3.945 14.249 7.883 21.273 11.867l-.008.004zm15.359-49.261c-4.315-2.39-8.633-4.782-12.9-7.304-1.348-.768-2.408-.639-3.668.079-4.185 2.456-8.425 4.807-12.663 7.158-6.348 3.52-12.692 7.038-18.846 10.904 6.883 4.266 13.947 8.168 21.018 12.074 3.583 1.979 7.168 3.959 10.733 5.989.689.379 2.016.158 2.788-.263 8.533-4.673 16.588-9.269 24.95-14.04 2.287-1.305 4.597-2.623 6.947-3.96h.004c-6.004-3.792-12.179-7.212-18.361-10.636zm34.675 17.419-4.827-2.725-.021-.012-.051-.029c-2.889-1.631-5.643-3.184-8.338-4.709-.795 1.069-1.498 2.178-2.192 3.271-1.617 2.547-3.181 5.012-5.721 6.699a1899 1899 0 0 1-27.202 15.388c-.722.4-2.057.358-2.796-.046-8.451-4.662-16.856-9.411-25.245-14.194-3.402-1.629-5.364-4.552-7.387-7.564-.687-1.023-1.381-2.056-2.14-3.053-4.27 2.425-8.522 4.841-13.117 7.454 8.62 5.032 17.297 9.893 25.975 14.756h.002c7.098 3.978 14.198 7.956 21.269 12.028 1.307.743 2.287.747 3.61-.004 7.321-4.171 14.519-8.221 21.715-12.271l.01-.005c8.75-4.924 17.497-9.847 26.456-14.98zm-84.358-17.155-.309.174-8.717 4.924-14.008 7.913c.606.34 1.179.644 1.723.934l.005.002.001.001h.001l.001.001c1.175.624 2.214 1.177 3.16 1.858 1.294.93 2.295.743 3.585.004 6.043-3.459 12.11-6.875 18.177-10.292l.002-.001h.001l.001-.001 5.928-3.34 4.037-2.279.002-.001.002-.001.002-.002c6.39-3.606 12.78-7.212 19.149-10.855 1.984-1.034 1.832-3.192 1.673-5.474-.07-.997-.142-2.017-.037-2.977l-.005-.004-31.592 17.844-2.106 1.19zm83.535 7.382 8.796 4.964c-3.588 3.703-7.469 3.694-12.042.911-10.93-6.559-22.082-12.746-33.233-18.933a3949 3949 0 0 1-8.796-4.888c-2.526-1.306-2.386-3.37-2.226-5.724.068-1.004.139-2.06.01-3.132zm-113.831 2.753c3.381 1.665 5.972 2.179 9.027.246 4.028-2.545 8.202-4.859 12.375-7.173l.002-.001c1.539-.853 3.078-1.706 4.609-2.57q6.504-3.673 13.011-7.342l.047-.027c7.687-4.336 15.375-8.671 23.054-13.022 2.783-1.578 3.238-3.026 2.086-6.381a368797 368797 0 0 1-64.211 36.27m129.52-.179.1-.664-62.792-35.436-.451.351c.138.593.051 1.229-.036 1.865-.175 1.272-.349 2.542 1.276 3.46q8.147 4.613 16.299 9.216l.06.034.026.014c12.676 7.162 25.351 14.322 37.985 21.552 2.662 1.522 4.791.684 7.039-.201l.49-.191zm-96.304 3.334c1.502 3.485 3.819 5.15 6.51 6.623 4.36 2.39 8.686 4.843 13.012 7.296l.002.001.006.004c3.59 2.035 7.18 4.071 10.789 6.071.706.392 1.978.467 2.654.092 9.057-5.021 18.1-10.058 27.014-15.321 1.087-.642 1.892-1.763 2.696-2.885.372-.519.744-1.038 1.144-1.509l-.522-.422c-6.755 3.696-13.452 7.506-20.148 11.317a2659 2659 0 0 1-9.979 5.66c-1.089.622-1.957.706-3.076.059a2673 2673 0 0 0-16.876-9.533h-.001l-.001-.001-.009-.005c-4.295-2.413-8.645-4.855-13.215-7.447m-29.41 41.082-.25-.016.009.004c.281.355.505.681.703.969.363.529.638.929 1.016 1.143a5344 5344 0 0 0 31.621 17.732c1.328.739 1.762 1.699 1.762 3.189-.004 4.84.06 9.677.124 14.516q.031 2.337.059 4.673c.173 2.441.124 4.952.074 7.47v.001c-.082 4.176-.164 8.368.765 12.281 2.208-1.895 4.303-7.103 4.816-9.945-.025-10.917-.175-21.831-.392-32.744-.017-.776-.701-1.849-1.386-2.245-2.754-1.588-5.54-3.124-8.326-4.659l-.001-.001h-.001l-.001-.001c-5.065-2.792-10.128-5.583-14.996-8.681-4.712-3.001-9.688-3.314-15.596-3.686m24.915 13.557c-6.678-3.694-13.338-7.378-19.848-11.457h.004c2.934.012 5.234.35 7.525 1.694 7.85 4.607 15.804 9.04 23.788 13.409 1.878 1.027 2.629 2.187 2.629 4.386-.017 9.666.117 19.331.338 28.997.041 1.788-.642 3.185-1.33 4.591-.235.48-.47.962-.677 1.46l-.254-.043-.264-.045c-.265-7.642-.327-15.294-.388-22.944v-.004c-.031-3.792-.061-7.583-.117-11.373-.016-1.632-.492-2.588-2.028-3.435a893 893 0 0 0-9.378-5.236m98.486 7.394q0 2.459-.004 4.918c-.006 4.688-.011 9.375.029 14.062.008 1.173-.28 1.82-1.386 2.437a3410 3410 0 0 0-33.378 18.876c-1.874 1.198-2.342-.131-2.864-1.615l-.028-.079c-3.281-4.966-3.364-10.546-3.331-16.226.044-6.889-.087-13.777-.217-20.663v-.01l-.062-3.311c-.025-1.269.334-1.949 1.502-2.6 3.744-2.085 7.472-4.199 11.201-6.312l.009-.006.003-.001c5.453-3.091 10.906-6.182 16.406-9.185 1.857-.864 4.051-1.062 6.211-1.256 1.136-.102 2.262-.204 3.325-.401 1.787-.396 2.212.38 2.204 1.974-.028 4.765-.024 9.531-.02 14.297l.003 5.101h.393zm-1.908-19.269c-6.426 3.259-12.602 6.804-18.787 10.355h-.001c-4.358 2.503-8.721 5.007-13.179 7.415-1.428.798-1.87 1.749-1.849 3.327.119 5.173.143 10.325.166 15.474v.001c.032 7.091.064 14.177.347 21.304 6.27-3.215 12.318-6.686 18.373-10.162l.001-.001c4.343-2.492 8.688-4.986 13.122-7.39 1.54-.855 2.225-1.79 2.183-3.576-.25-12.44-.43-24.166-.376-36.747m-36.045 54.621q.2-.05.399-.102.198-.053.398-.102c.13-7.676.003-15.438-.124-23.189-.062-3.724-.123-7.445-.155-11.154-.009-.509-.443-1.012-.876-1.515-.199-.231-.398-.461-.556-.693l-.381.17-.378.168c.185 4.036.129 8.102.073 12.17-.111 8.153-.223 16.312 1.6 24.247m-.505-38.445c1.302 1.632 2.354 1.211 3.544.534 3.623-2.071 7.263-4.115 10.902-6.16h.001c5.958-3.347 11.918-6.695 17.809-10.161l-.083-.22-.05-.133-.003-.006-.131-.347c-.557.138-1.132.242-1.707.347-1.257.229-2.514.458-3.585 1.03-9.052 4.908-17.745 9.925-26.697 15.112zm-80.591 90.916c.576-.329 1.023-1.398 1.031-2.128l-.405-19.193q0-2.649-.006-5.298c-.008-4.77-.016-9.539.036-14.309.016-1.615-.656-1.898-2.041-1.686-1.053.185-2.158.283-3.27.381-2.11.187-4.246.376-6.108 1.164-5.171 2.855-10.312 5.767-15.454 8.678a2131 2131 0 0 1-12.34 6.951c-1.177.655-1.498 1.389-1.482 2.633.248 4.521.197 9.094.146 13.669-.081 7.146-.161 14.296.898 21.258.375.907.81 1.79 1.244 2.674.517 1.051 1.034 2.103 1.452 3.193.659 1.724 1.423 1.824 2.95.952a4309 4309 0 0 1 15.378-8.727c5.996-3.393 11.993-6.786 17.971-10.212m-1.018-40.45c-6.355 3.354-12.54 6.881-18.731 10.412-4.293 2.448-8.59 4.898-12.949 7.294-1.343.751-2.032 1.602-2.003 3.259.17 5.06.196 10.112.222 15.162.037 7.229.074 14.453.534 21.684 6.15-3.259 12.141-6.668 18.137-10.079 4.383-2.493 8.769-4.989 13.221-7.428 1.561-.868 2.295-1.849 2.254-3.747-.161-5.361-.211-10.697-.26-16.03-.064-6.831-.127-13.658-.425-20.527m-36.938 18.077.288-.154c.152.239.344.477.536.715.413.513.826 1.025.837 1.547-.089 4.292.07 8.791.229 13.318.26 7.353.522 14.781-.271 21.521-.233-.661-.499-1.278-.752-1.866-.519-1.202-.985-2.283-1.013-3.376-.014-3.525-.1-7.064-.186-10.606-.171-7.002-.341-14.014.044-20.944q.144-.079.288-.155m26.246-16.53c2.045-1.182 4.14-1.77 7.086-1.44v.004c-6.004 3.487-11.777 6.745-17.58 10.019-3.886 2.193-7.785 4.393-11.775 6.674-1.239.706-2.291.914-3.389-.651 4.8-2.8 9.614-5.514 14.427-8.229 3.746-2.112 7.491-4.224 11.231-6.377" clip-rule="evenodd"/>
</svg>
