<svg xmlns="http://www.w3.org/2000/svg" width="550" height="550" fill="none" viewBox="0 0 550 550">
    <path fill="#fff" d="m411.794 322.532-7.656-9.844h-4.023l23.887-5.962-.67 1.093c-2.999 4.869-6.739 9.668-11.079 14.255l-.424.458zm-6.492-10.055 6.563 8.432c3.81-4.057 7.092-8.256 9.844-12.525zM293.595 433.11l1.659-3.458.388.071c2.505.423 4.975.776 7.409.988l4.199.388-4.164.67c-2.716.424-5.574.847-8.503 1.2l-.953.106zm2.258-2.258-.458.953c1.199-.141 2.399-.318 3.599-.494-1.024-.141-2.082-.318-3.141-.494zm-34.648 4.235v-.53h-.529v-11.184h.529c3.528 0 7.057-.177 10.585-.424h.282l9.033 11.361-.988.071c-6.175.423-12.561.67-18.912.67zm.529-10.656v9.597c5.822 0 11.608-.247 17.289-.6l-7.445-9.385a132 132 0 0 1-9.844.388m158.528-90.961-1.658-2.117.176-.317c4.304-8.115 7.692-16.619 10.02-25.228l.071-.317 2.717-.671-.212.847c-2.434 9.28-6.069 18.383-10.726 27.062l-.388.706zm-.388-2.258.247.318a123.3 123.3 0 0 0 10.02-25.228l-.388.106c-2.329 8.468-5.645 16.83-9.879 24.839z"/>
    <path fill="#fff" d="m412.888 323.944-1.764-2.258.318-.318c4.304-4.516 8.009-9.279 10.973-14.078l.106-.176 3.845-.953-.635 1.094c-3.246 5.61-7.444 11.079-12.419 16.301l-.424.458zm-.353-2.188.424.565c4.41-4.658 8.185-9.562 11.185-14.537l-.988.247c-2.894 4.693-6.493 9.315-10.656 13.761zm-7.903-8.398-.777-1.023v-.6l1.235-.282-.176.882zm-104.298 105.71 15.878-33.095 16.16 20.041-.565.317c-9.632 5.257-19.829 9.456-30.343 12.42zm16.09-31.119L302.31 417.41c9.844-2.893 19.371-6.845 28.439-11.714zm-55.748-90.644v-8.538h3.74l-.318.741-3.457 7.797zm1.058-7.445v2.47l1.094-2.47zm-1.058 134.605v-15.772l1.164 1.376 11.009 13.902-.988.071a135 135 0 0 1-10.656.423zm1.058-12.843v11.784c2.999 0 6.034-.141 9.068-.352zm-116.328-242.89h-.918l.247-.706c.953-2.646 2.047-5.222 3.176-7.691 2.964-6.351 6.598-12.032 10.761-16.972l.071-.07h.106c19.652-10.585 43.892-17.854 70.143-21.1h.176c5.399 1.165 11.009 2.823 16.619 4.975l2.081.812-2.223.212c-20.076 2.011-39.164 7.974-56.77 17.747h-.071c-15.701 5.786-30.238 13.408-43.222 22.687l-.141.106zm14.007-24.628c-4.057 4.834-7.621 10.479-10.514 16.689a77 77 0 0 0-2.541 5.998c12.702-8.856 26.816-16.195 42.023-21.769 17.077-9.456 35.53-15.384 54.9-17.607-4.833-1.729-9.632-3.14-14.254-4.128-26.039 3.211-50.102 10.444-69.579 20.853z"/>
    <path fill="#fff" d="m188.733 145.975-.423-.953c17.747-9.844 36.976-15.842 57.194-17.888h.247c3.987 1.517 8.044 3.316 12.067 5.292l1.976.988h-2.188c-22.511.318-44.386 4.058-64.992 11.15-1.164.388-2.399.847-3.846 1.376zm56.736-17.783c-17.642 1.764-34.543 6.634-50.35 14.431 19.194-6.28 39.412-9.703 60.229-10.161-3.317-1.588-6.633-3-9.879-4.234zm-86.056 14.148 2.117-2.223c4.269-4.446 9.067-8.221 14.325-11.255 10.091-5.822 21.593-8.786 34.119-8.786s4.763.106 7.127.318h.494c2.187.247 4.481.529 6.739.917l3.422.565-3.422.494c-22.864 3.246-44.351 9.667-62.134 18.629l-2.752 1.376zm50.596-21.205c-12.349 0-23.64 2.893-33.59 8.644a62.5 62.5 0 0 0-11.82 8.821c16.372-7.833 35.601-13.584 56.03-16.795-1.2-.141-2.399-.282-3.564-.388h-.493a68 68 0 0 0-6.563-.318zM126.07 337.387l-1.588-1.129a123 123 0 0 1-6.809-5.257l-.353-.282.212-.389a64 64 0 0 1 2.893-4.445l.6-.812.352.953a148 148 0 0 0 3.882 9.597l.811 1.799zm-7.374-6.915c1.517 1.27 3.14 2.505 4.834 3.74-.988-2.294-1.906-4.623-2.788-6.916a53 53 0 0 0-2.046 3.176m-1.694-.037-.459-.388c-18.806-15.948-29.144-35.354-29.144-54.618s9.421-37.118 27.239-52.925l.565-.494.282.705c1.023 2.647 2.329 5.293 3.811 7.904l.07.106v.317a147.4 147.4 0 0 0-6.81 44.387c0 15.136 2.788 33.201 8.257 48.867l.106.247-.177.212a64 64 0 0 0-3.387 5.08l-.318.53zm-2.293-106.626c-17.219 15.49-26.322 33.308-26.322 51.62s10.056 37.718 28.298 53.383a69 69 0 0 1 2.963-4.41c-5.469-15.701-8.221-32.178-8.221-48.973s2.258-30.132 6.739-44.493c-1.34-2.364-2.54-4.763-3.493-7.162z"/>
    <path fill="#fff" d="m137.431 344.584-.812-.494a150 150 0 0 1-12.137-7.868l-.106-.071-.07-.141a145 145 0 0 1-3.917-9.667c-.212-.6-.423-1.165-.6-1.694-5.539-15.772-8.327-32.355-8.327-49.22s2.294-30.273 6.81-44.704l.353-1.164.6 1.058a67 67 0 0 0 4.375 6.633c4.904 6.563 11.255 12.773 18.876 18.418l.636.459c.352.282.74.529 1.129.811 2.54 1.8 5.257 3.599 8.115 5.293l.388.212-.177.423a293 293 0 0 0-3.74 10.409c-.247.776-.494 1.517-.741 2.293a232 232 0 0 0-7.621 30.167c-.106.706-.247 1.376-.353 2.047v.07c-2.046 12.032-2.928 23.781-2.681 34.931zm-12.208-9.103a151 151 0 0 0 11.114 7.233c-.247-11.185.671-22.969 2.717-35.036v-.071c.141-.705.247-1.376.353-2.082 1.799-9.949 4.375-20.146 7.656-30.308.247-.776.494-1.517.741-2.293a273 273 0 0 1 3.599-10.056 149 149 0 0 1-7.798-5.116 79 79 0 0 1-1.764-1.27l-1.199-.882c-7.198-5.469-13.232-11.467-17.924-17.748a67 67 0 0 1-3.811-5.68c-4.269 13.972-6.421 28.508-6.421 43.257s2.787 33.201 8.256 48.867c.176.565.388 1.129.6 1.659a140 140 0 0 0 3.846 9.491zm135.982-47.138h-.529V133.908l.776.424c.706.352 1.411.741 2.082 1.129 19.653 10.761 38.247 26.109 55.324 45.621.635.741 1.305 1.482 1.94 2.223 10.585 12.384 20.218 26.074 28.686 40.717a286 286 0 0 1 6.139 11.185l.247-.071v2.823l-.811-1.553-74.977 16.936-15.419 34.895h-.353c-.917 0-2.011.036-3.105.036zm.529-152.671v151.613h2.223l15.348-34.79 75.224-17.006a364 364 0 0 0-5.963-10.903c-8.432-14.607-18.029-28.226-28.544-40.576-.635-.74-1.27-1.481-1.94-2.222-16.972-19.406-35.495-34.684-55.042-45.41-.424-.247-.882-.459-1.306-.706m-122.609 55.042.352-2.187c1.024-6.387 2.505-12.491 4.411-18.171l.07-.177.141-.106c11.115-8.15 23.464-15.066 36.73-20.64l.494.952c-16.018 10.162-29.779 23.111-40.893 38.53zm5.715-19.864c-1.658 4.904-2.963 10.161-3.951 15.63 9.738-13.055 21.381-24.345 34.754-33.59-11.009 5.046-21.347 11.079-30.803 17.96"/>
    <path fill="#fff" d="m115.238 220.917-.247-.741a49.3 49.3 0 0 1-2.646-15.878c0-5.327.035-2.258.106-3.387v-.141l.105-.141c6.987-9.139 15.313-17.642 24.769-25.369a214 214 0 0 1 4.764-3.74l1.305-.988-.494 1.588c-1.87 5.963-3.317 12.384-4.234 19.088v.141l-.106.106a146 146 0 0 0-11.502 19.794h.882l-1.411.953a133 133 0 0 0-10.727 8.186l-.599.493zm-1.729-19.759a46 46 0 0 0-.106 3.14c0 4.975.776 9.95 2.364 14.819 3.105-2.611 6.528-5.186 10.091-7.656 3.387-7.092 7.339-13.972 11.82-20.464.847-6.14 2.117-12.032 3.775-17.572a118 118 0 0 0-3.422 2.717c-9.35 7.621-17.606 16.019-24.522 25.051zm6.033 29.073-.599-1.058a56.5 56.5 0 0 1-3.317-7.163v-.458l.176-.141c2.682-2.329 5.61-4.623 8.68-6.845l1.588-1.129-.812 1.799a146 146 0 0 0-5.363 13.831l-.388 1.164zm-2.752-8.256c.706 1.87 1.588 3.74 2.541 5.61a171 171 0 0 1 4.198-10.973 137 137 0 0 0-6.739 5.363"/>
    <path fill="#fff" d="m152.885 262.021-.529-.317c-3.246-1.976-6.351-4.023-9.28-6.175-.599-.423-1.164-.882-1.728-1.305-9.915-7.622-17.466-16.019-22.37-25.052l-.106-.211.071-.212a146 146 0 0 1 5.398-13.937l.459-1.023q.476-1.059 1.058-2.223a146 146 0 0 1 11.961-20.711c.529-.776 1.094-1.588 1.8-2.576a149.2 149.2 0 0 1 41.175-38.776h.071c3.952-1.694 7.974-3.211 11.89-4.587 20.57-7.092 42.411-10.832 64.922-11.114h2.187l-1.94.988c-.212.106-.389.211-.6.317-19.865 10.903-39.447 27.168-56.63 47.103-.635.741-1.27 1.482-1.905 2.259-10.127 12.031-19.406 25.298-27.521 39.376-7.022 12.172-13.126 24.839-18.101 37.576l-.211.6zm-32.884-33.166c4.869 8.821 12.243 17.042 21.982 24.522.564.423 1.129.882 1.729 1.305 2.716 2.011 5.645 3.952 8.644 5.787 4.94-12.596 10.973-25.087 17.959-37.118 8.151-14.149 17.465-27.451 27.627-39.553.635-.741 1.27-1.517 1.905-2.258 16.901-19.582 36.095-35.707 55.642-46.644-21.629.493-42.622 4.198-62.451 11.008-3.882 1.341-7.833 2.858-11.785 4.481-15.983 10.161-29.744 23.11-40.858 38.494a78 78 0 0 0-1.8 2.54 147.5 147.5 0 0 0-11.89 20.571c-.565 1.164-1.023 2.222-1.482 3.21l-.459 1.024a152 152 0 0 0-4.833 12.596zm23.464 151.435-1.341-.988a146 146 0 0 1-4.763-3.74c-10.091-8.221-18.877-17.359-26.18-27.203l-.141-.176v-.212c.882-5.434 2.752-10.832 5.61-16.019l.317-.564.494.423a119 119 0 0 0 9.138 6.845l.106.071.071.141a147.5 147.5 0 0 0 11.89 20.57l.071.106v.141c.953 6.704 2.364 13.125 4.234 19.088l.494 1.588zm-31.296-32.39c7.197 9.703 15.912 18.736 25.862 26.851 1.059.847 2.153 1.729 3.423 2.717-1.659-5.505-2.929-11.432-3.776-17.571a153.4 153.4 0 0 1-11.819-20.465c-3-2.081-5.893-4.234-8.574-6.421-2.576 4.834-4.305 9.844-5.116 14.889"/>
    <path fill="#fff" d="m139.019 361.803-1.27-1.834a149 149 0 0 1-11.961-20.712l-.847-1.764 1.623 1.129a156 156 0 0 0 10.656 6.669l.247.141v.282c.212 4.763.635 9.421 1.235 13.866zm-11.396-21.205a141.5 141.5 0 0 0 9.773 16.936c-.458-3.74-.776-7.586-.952-11.467a178 178 0 0 1-8.821-5.469M112.486 200.17l.247-1.87c2.505-20.041 17.712-38.953 42.834-53.243l2.258-1.27-1.588 2.082c-3.281 4.304-6.174 9.138-8.644 14.395-1.412 2.999-2.717 6.246-3.881 9.633l-.071.141-.141.106a190 190 0 0 0-6.386 4.939c-8.857 7.198-16.76 15.172-23.464 23.64l-1.164 1.482zm41.387-52.96c-22.687 13.478-36.73 30.872-39.835 49.255 6.492-7.974 14.008-15.454 22.405-22.299a130 130 0 0 1 6.316-4.869 104 104 0 0 1 3.846-9.562c2.117-4.481 4.551-8.715 7.233-12.525zm228.001 43.504-1.305-1.799c-11.115-15.384-24.875-28.368-40.894-38.53l.494-.952c13.267 5.539 25.616 12.49 36.73 20.64l.141.106.071.177c1.905 5.645 3.387 11.784 4.41 18.171zm-36.553-37.824c13.337 9.245 25.015 20.535 34.754 33.59a115 115 0 0 0-3.952-15.63c-9.421-6.881-19.759-12.914-30.802-17.96"/>
    <path fill="#fff" d="M406.925 220.564h-2.188l.106-.353c-3.211-2.717-6.739-5.398-10.444-7.974l-.106-.07-.07-.142a147.5 147.5 0 0 0-11.891-20.57l-.07-.106v-.141c-.953-6.739-2.364-13.16-4.269-19.088l-.494-1.588 1.34.988a147 147 0 0 1 4.764 3.74c9.455 7.692 17.782 16.23 24.768 25.369l.106.141v.141c.106 1.129.141 2.258.141 3.387 0 5.222-.846 10.444-2.54 15.525l.812.706zm-11.785-9.138a130 130 0 0 1 10.091 7.656c1.553-4.869 2.364-9.844 2.364-14.784 0-4.939 0-2.117-.106-3.14-6.915-8.997-15.171-17.43-24.522-25.051-1.058-.847-2.152-1.729-3.422-2.717 1.658 5.504 2.928 11.397 3.775 17.571a148 148 0 0 1 11.82 20.465m4.94 14.818-.141-.458c-1.27-3.599-2.717-7.127-4.234-10.585l-.811-1.8 1.587 1.129a116 116 0 0 1 8.68 6.845l.282.247-.141.353c-.388 1.059-.882 2.153-1.376 3.282l-.353.741-.423-.494-3.105.705zm-2.611-9.632a172 172 0 0 1 3.317 8.398l2.399-.53c.388-.846.741-1.693 1.023-2.505a105 105 0 0 0-6.739-5.363"/>
    <path fill="#fff" d="m356.434 236.123-.176-.353a320 320 0 0 0-6.492-11.89c-8.151-14.113-17.395-27.345-27.521-39.376-.635-.741-1.27-1.517-1.905-2.258-17.183-19.935-36.766-36.201-56.63-47.103l-.247-.142a1.7 1.7 0 0 0-.353-.176l-1.835-1.023h2.117c22.511.317 44.316 4.057 64.922 11.149a198 198 0 0 1 11.89 4.517h.071c16.124 10.267 29.99 23.322 41.175 38.846.671.918 1.27 1.765 1.8 2.576a153 153 0 0 1 11.961 20.711c.564 1.165 1.023 2.223 1.482 3.246l1.023 2.294h-.035a157 157 0 0 1 3.281 8.327l.212.564-44.669 10.091zm-90.925-101.192c19.547 10.938 38.741 27.027 55.642 46.644a129 129 0 0 1 1.905 2.258c10.162 12.067 19.477 25.369 27.627 39.553a260 260 0 0 1 6.316 11.573l42.728-9.668c-1.235-3.387-2.576-6.774-4.022-10.02l-.388-.847c-.353-.741-.706-1.517-1.094-2.364a147.4 147.4 0 0 0-11.891-20.57 96 96 0 0 0-1.799-2.54c-11.114-15.384-24.84-28.333-40.858-38.495-3.917-1.658-7.904-3.14-11.785-4.481-19.829-6.809-40.823-10.514-62.451-11.008zm6.881-7.022h-.141c-3.67-.282-7.375-.458-11.044-.458h-.529v-7.198h.529c8.962 0 17.924.494 26.674 1.447l2.929.317-2.858.741a120 120 0 0 0-15.454 5.116h-.106zm-10.656-1.517c3.493 0 7.022.177 10.479.459a123 123 0 0 1 12.702-4.375 265 265 0 0 0-23.181-1.129v5.081z"/>
    <path fill="#fff" d="M260.676 133.343v-6.421h.529v-.529c3.74 0 7.48.176 11.15.458l2.222.177-2.081.846a139 139 0 0 0-11.044 5.046l-.776.388zm1.058-5.892v4.164a144 144 0 0 1 8.292-3.846 129 129 0 0 0-8.292-.283zm115.13 42.163-1.376-.988c-12.949-9.244-27.451-16.865-43.116-22.616h-.036l-.106-.071c-17.606-9.773-36.729-15.736-56.77-17.747l-2.223-.212 2.082-.812c5.61-2.152 11.22-3.81 16.618-4.975h.176c26.251 3.246 50.491 10.515 70.144 21.029h.105a.5.5 0 0 0 .071.141c4.163 4.94 7.762 10.656 10.726 16.972 1.164 2.434 2.223 5.045 3.176 7.691l.599 1.623zm-44.245-24.628c15.242 5.61 29.355 12.914 42.022 21.77-.776-2.046-1.658-4.057-2.54-5.998-2.929-6.21-6.457-11.82-10.515-16.689-19.511-10.444-43.539-17.642-69.578-20.852-4.658.988-9.456 2.399-14.255 4.128 19.371 2.223 37.824 8.15 54.901 17.606z"/>
    <path fill="#fff" d="M332.23 145.975a152 152 0 0 0-3.846-1.376c-20.605-7.092-42.481-10.832-64.991-11.114h-2.188l1.976-.988c4.022-1.976 8.08-3.776 12.067-5.293h.106c0-.035.141 0 .141 0 20.217 2.011 39.447 8.045 57.194 17.889l-.423.952zm-66.615-13.514c20.818.494 41.035 3.917 60.229 10.162-15.807-7.798-32.708-12.631-50.349-14.431a149 149 0 0 0-9.88 4.234zm95.936 9.88-2.752-1.376c-17.783-8.962-39.271-15.384-62.134-18.63l-3.423-.494 3.423-.564c2.434-.389 4.833-.706 7.197-.918 15.384-1.305 29.25 1.553 41.247 8.468 5.257 3.035 10.055 6.81 14.325 11.256l2.117 2.222zm-61.182-20.535c20.429 3.211 39.659 8.962 56.03 16.795a62.5 62.5 0 0 0-11.82-8.821c-11.82-6.81-25.474-9.633-40.611-8.327-1.164.106-2.364.212-3.563.388zm108.109 78.364-1.165-1.482c-6.703-8.468-14.607-16.442-23.463-23.64-1.623-1.305-3.317-2.646-5.046-3.916l.247.67-1.658-1.764.282-.318-.423.142a104 104 0 0 0-3.881-9.633c-2.47-5.257-5.399-10.091-8.645-14.395l-1.587-2.082 2.258 1.27c25.086 14.29 40.293 33.202 42.834 53.243l.247 1.87zm-30.273-30.838c2.152 1.588 4.269 3.246 6.315 4.869 8.398 6.845 15.913 14.325 22.405 22.299-3.069-18.417-17.112-35.777-39.835-49.255 2.717 3.811 5.116 8.009 7.233 12.526a93 93 0 0 1 3.846 9.561zm-59.841 261.097-.176-1.058c7.903-1.764 15.595-3.917 22.863-6.422l.423.988c-7.091 3.493-14.854 5.681-23.075 6.457zM88.176 262.233l-1.059-.176c1.658-14.396 5.998-28.438 12.914-41.74a135 135 0 0 1 10.902-17.501l.988-1.34v1.658c-.035.388-.035.776-.035 1.2 0 5.61.953 11.184 2.858 16.618l.106.353-.282.247c-5.505 4.834-10.303 9.985-14.255 15.313-6.069 8.15-10.162 16.689-12.173 25.439zm22.687-57.476c-3.705 5.151-6.986 10.55-9.844 16.019-5.68 10.937-9.633 22.369-11.714 34.083 2.328-6.386 5.75-12.666 10.232-18.7 3.952-5.292 8.68-10.409 14.149-15.242-1.8-5.293-2.753-10.726-2.788-16.16zm149.459 83.586h-.529c-20.006-.071-39.411-2.329-57.653-6.774-1.058-.247-2.117-.53-3.211-.812-17.077-4.446-32.319-10.585-45.374-18.312l-.388-.212.176-.423c4.975-12.808 11.115-25.51 18.171-37.753 8.468-14.643 18.101-28.368 28.686-40.717.635-.741 1.27-1.482 1.94-2.223 17.077-19.512 35.672-34.86 55.324-45.621.706-.388 1.412-.741 2.082-1.129l.776-.424v154.435zm-105.814-26.568c12.878 7.55 27.909 13.584 44.704 17.959 1.058.282 2.152.564 3.175.811 17.995 4.376 37.118 6.669 56.877 6.74V135.672c-.424.247-.882.459-1.306.706-19.547 10.691-38.07 25.968-55.042 45.41-.635.74-1.305 1.481-1.94 2.222-10.515 12.314-20.147 25.969-28.544 40.576-6.951 12.067-12.985 24.557-17.924 37.189m94.101-133.864h-.106c-5.221-2.153-10.408-3.882-15.454-5.187l-2.858-.741 2.929-.318a267 267 0 0 1 26.674-1.446h.529v7.162h-.529c-3.705 0-7.445.177-11.044.459h-.141zm-12.525-5.434c4.163 1.164 8.432 2.646 12.702 4.375 3.422-.282 6.951-.423 10.479-.459v-5.08c-7.762.035-15.56.423-23.181 1.129z"/>
    <path fill="#fff" d="M259.547 132.955c-3.705-1.87-7.41-3.599-11.044-5.045l-2.082-.847 2.223-.177c3.705-.282 7.445-.458 11.114-.458h.53v6.068h-.53l-.247.459zm-8.574-5.186a145 145 0 0 1 8.292 3.845v-4.163c-2.753 0-5.54.106-8.292.282zM170.28 418.927l-3.493-1.517c-35.707-15.384-56.206-38.248-56.206-62.769s.07-3.105.247-4.658l.141-1.341.811 1.059c7.127 9.421 15.666 18.206 25.369 26.11 2.046 1.658 4.199 3.351 6.386 4.939l.141.106.071.141a94 94 0 0 0 3.669 9.174l.212.458c4.94 10.55 11.573 19.265 19.723 25.863l2.964 2.399zm-58.535-67.497a49 49 0 0 0-.106 3.211c0 23.322 19.018 45.197 52.29 60.334-6.492-5.892-11.961-13.231-16.266-21.805v.07l-1.023-2.152a93 93 0 0 1-3.846-9.562c-2.152-1.587-4.269-3.246-6.315-4.869-9.386-7.656-17.713-16.124-24.699-25.192z"/>
    <path fill="#fff" d="m110.686 347.654-.705-1.023a136 136 0 0 1-9.915-16.125c-6.916-13.301-11.255-27.344-12.914-41.74l1.059-.176c2.046 8.75 6.14 17.289 12.173 25.439l.105.141c4.34 5.822 9.668 11.397 15.807 16.619l.318.282-.212.388c-2.717 4.869-4.551 9.915-5.504 14.995l-.212 1.235zm-21.417-51.69c2.117 11.714 6.034 23.146 11.714 34.084 2.682 5.116 5.716 10.161 9.139 14.995.988-4.657 2.717-9.244 5.151-13.725-6.139-5.222-11.432-10.832-15.772-16.654l-.105-.141c-4.446-5.998-7.833-12.208-10.127-18.594zm113.366 134.464c-8.256-.811-16.019-2.964-23.075-6.457l.423-.988c7.233 2.47 14.925 4.622 22.864 6.422l-.177 1.058z"/>
    <path fill="#fff" d="M211.808 430.746h-.071c-14.184-2.646-27.521-6.386-39.658-11.149l-.106-.071c-10.162-6.88-18.241-16.654-24.063-29.038-1.129-2.434-2.223-5.01-3.176-7.692v-1.199l.847.599c12.949 9.28 27.486 16.901 43.222 22.652h.071c17.606 9.809 36.73 15.772 56.771 17.783l2.222.212-2.081.811c-9.774 3.705-19.406 5.999-28.615 6.775a86 86 0 0 1-5.257.282h-.071zm-39.27-12.102c12.066 4.728 25.298 8.433 39.376 11.044a80 80 0 0 0 5.116-.282c8.468-.706 17.289-2.717 26.215-5.928-19.37-2.223-37.823-8.15-54.9-17.606-15.208-5.61-29.356-12.914-42.023-21.77a133 133 0 0 0 2.541 5.998c5.715 12.208 13.689 21.805 23.675 28.579zm86.973-.529s-.07 0-.106-.035a.49.49 0 0 1-.282-.459v-.317l.247-.177c.212-.141.388-.07.529 0h.071l-.247.459-.247.459z"/>
    <path fill="#fff" d="M180.829 401.391c-13.266-5.54-25.615-12.49-36.73-20.641l-.141-.106-.07-.176c-1.906-5.645-3.387-11.749-4.411-18.171l-.352-2.188 1.305 1.8c11.114 15.383 24.875 28.368 40.893 38.529zm-35.989-21.382c9.421 6.88 19.759 12.914 30.803 17.959-13.337-9.244-25.016-20.535-34.754-33.589.988 5.469 2.328 10.726 3.951 15.63m115.483 55.077h-.529c-14.255-.035-28.333-1.129-41.882-3.317l-.458-.07v-.953h.494c9.844-.953 20.146-3.564 30.555-7.833h.106c0-.035.141-.035.141-.035 3.669.282 7.374.423 11.044.459h.529zm-38.353-3.74a270 270 0 0 0 37.294 2.681v-9.597c-3.493 0-7.021-.176-10.479-.458-9.103 3.704-18.1 6.139-26.78 7.339z"/>
    <path fill="#fff" d="M260.323 424.465h-.529c-3.74 0-7.481-.176-11.15-.458a71 71 0 0 1-3.14-.282c-20.217-2.012-39.447-8.045-57.194-17.889a163 163 0 0 1-7.551-4.481 149.2 149.2 0 0 1-41.176-38.776l-.07-.106v-.141a138 138 0 0 1-1.623-15.737v-.952c-.035 0 .776.458.776.458 17.818 9.95 38.565 17.466 61.675 22.335.741.141 1.517.317 2.258.458l.424.106a286 286 0 0 0 27.45 4.058h.212l.141.176 29.462 35.036v16.195zm-119.822-62.451c11.114 15.348 24.839 28.262 40.787 38.424 2.47 1.552 4.975 3.069 7.516 4.445 17.606 9.774 36.729 15.737 56.77 17.748.988.106 2.012.176 3.141.282 3.457.282 6.986.423 10.514.459v-5.469q-.106-.107-.106-.318v-.317l.106-.071v-8.609l-29.073-34.578a281 281 0 0 1-27.768-4.128l-.424-.106c-.635-.141-1.235-.247-1.834-.388-22.864-4.798-43.434-12.173-61.146-21.981.282 5.01.776 9.914 1.517 14.536zm119.046 56.101.459-.953z"/>
    <path fill="#fff" d="m230.05 372.283-1.306-.142c-9.632-1.023-19.123-2.505-28.262-4.445-.776-.177-1.517-.318-2.258-.494-22.652-4.975-42.904-12.455-60.158-22.264l-.247-.141v-.953c-.035-.353-.07-.705-.07-1.058-.247-11.608.705-23.817 2.928-36.272.106-.493.176-1.023.282-1.517l.106-.6a234 234 0 0 1 6.739-26.85c.247-.776.494-1.517.741-2.294a247 247 0 0 1 4.269-12.031l.212-.6.529.318c.636.388 1.271.741 1.906 1.093 11.925 6.775 25.615 12.314 40.646 16.407.953.247 1.941.529 3.034.812 19.053 4.904 39.482 7.444 60.652 7.48h.53v9.42c-.036 0-31.896 72.119-31.896 72.119l1.623 1.941zm-91.208-28.121c17.113 9.667 37.154 17.077 59.594 22.017.741.176 1.482.317 2.223.494a272 272 0 0 0 26.85 4.269l-.353-.424.141-.317 31.932-72.331v-8.044c-21.1-.106-41.387-2.611-60.405-7.516-1.094-.282-2.082-.529-3.034-.811-15.102-4.129-28.862-9.703-40.859-16.513-.458-.247-.917-.529-1.376-.811a245 245 0 0 0-4.022 11.396c-.247.776-.494 1.517-.741 2.293-2.822 8.927-5.081 17.924-6.704 26.71l-.105.6c-.106.494-.177.988-.283 1.517-2.187 12.384-3.14 24.522-2.893 36.059v1.412zm154.012 90.536 1.306-2.716h.282l4.552-.636c-1.165-.176-2.364-.352-3.529-.564l-.705-.106 1.093-2.329.388.071c2.611.459 5.187.776 7.657.988 1.694.141 3.422.247 5.116.282 11.926-2.187 23.322-5.222 33.872-8.997l.353-.141.247.282a9.5 9.5 0 0 0 1.87 1.694l.705.494-.741.423c-10.196 5.786-21.769 8.715-34.401 8.715h-1.235a279 279 0 0 1-15.948 2.435l-.952.105zm2.011-1.728-.211.458a283 283 0 0 0 14.995-2.293h1.376c12.138 0 23.287-2.752 33.166-8.186a9 9 0 0 1-1.164-1.129c-10.55 3.74-21.876 6.739-33.731 8.927h-.141a89 89 0 0 1-5.257-.283 120 120 0 0 1-7.374-.917l-.177.318c2.223.388 4.481.67 6.704.882v.282l.035.776c-2.716.424-5.504.812-8.221 1.165m23.499-2.541-.176-1.058c7.903-1.765 15.595-3.917 22.863-6.422l.424.988c-7.092 3.493-14.855 5.681-23.076 6.457z"/>
    <path fill="#fff" d="M260.499 447.894a1.25 1.25 0 0 1-1.235-1.235v-10.091c-16.477-.07-32.637-1.552-48.02-4.41h-1.235c-12.808 0-24.522-3.035-34.825-8.962a91 91 0 0 1-3.422-2.117c-6.387-2.505-12.455-5.293-17.995-8.292-13.937-7.48-24.91-16.23-32.566-25.968-8.01-10.162-12.067-20.994-12.067-32.179 0-11.184.141-4.163.423-6.174-4.022-5.54-7.656-11.361-10.726-17.254C89.657 313.571 85 294.8 85 275.465s4.657-38.106 13.831-55.748c3.458-6.668 7.551-13.125 12.208-19.265.812-10.267 4.763-20.252 11.749-29.638 7.586-10.161 18.418-19.299 32.179-27.132a79 79 0 0 1 3.069-1.694c4.94-5.751 10.727-10.585 17.148-14.29 12.243-7.092 26.427-9.985 42.058-8.644 3.74.317 7.621.882 11.537 1.694 9.95-1.235 20.182-1.871 30.485-1.906v-14.607c0-.67.565-1.235 1.235-1.235s1.235.565 1.235 1.235v14.607c10.267.035 20.535.706 30.485 1.906a96 96 0 0 1 11.537-1.694c15.666-1.341 29.815 1.588 42.058 8.644 6.457 3.705 12.208 8.539 17.148 14.29.847.459 1.976 1.059 3.069 1.694 13.761 7.833 24.593 16.971 32.179 27.132 7.021 9.386 10.973 19.371 11.749 29.638a136 136 0 0 1 12.208 19.265c6.633 12.808 10.938 26.286 12.808 40.082l.212 1.694-2.047-2.294-4.975-5.575v-.07c-4.34-10.515-11.714-20.5-21.911-29.673-.352.882-.776 1.799-1.199 2.752l-.353.741-1.87-2.082.141-.318a74 74 0 0 0 1.2-2.858c-2.576-2.222-5.399-4.41-8.327-6.527l-.106-.071-.071-.141a109 109 0 0 0-1.482-3.21l-.846-1.765 1.623 1.094a141 141 0 0 1 10.232 7.762c1.552-4.869 2.364-9.844 2.364-14.819 0-4.974 0-2.117-.106-3.14-6.916-8.997-15.172-17.43-24.522-25.051a117 117 0 0 0-3.422-2.717c1.658 5.575 2.928 11.503 3.775 17.677l.317 2.188-1.27-1.835a96 96 0 0 0-1.799-2.54l-.071-.106v-.141c-1.023-6.281-2.47-12.279-4.34-17.854-11.008-8.044-23.251-14.924-36.377-20.393a196 196 0 0 0-11.82-4.517c-19.829-6.809-40.822-10.514-62.451-11.008 19.547 10.938 38.741 27.027 55.642 46.644.635.741 1.27 1.482 1.905 2.259 10.162 12.102 19.476 25.404 27.627 39.552 2.258 3.952 4.481 7.939 6.527 11.926l.318.6-2.505.564-.177-.353a262 262 0 0 0-6.28-11.502c-8.433-14.607-18.03-28.262-28.544-40.576-.635-.741-1.27-1.482-1.941-2.223-16.971-19.441-35.495-34.718-55.042-45.409-.423-.247-.882-.459-1.305-.706V287.39h3.387l-1.129 2.576h-2.258v5.081l-2.47 5.61v-10.656c-21.1-.105-41.423-2.611-60.405-7.515-1.023-.282-2.047-.529-3.034-.811-15.102-4.129-28.862-9.703-40.859-16.513a28 28 0 0 1-1.376-.812 245 245 0 0 0-4.022 11.397c-.247.776-.494 1.517-.741 2.293-2.822 8.927-5.081 17.924-6.704 26.71l-.105.564c-.106.494-.177 1.024-.283 1.518-2.187 12.384-3.14 24.521-2.893 36.059v1.411c17.112 9.668 37.153 17.078 59.593 22.017.741.177 1.482.318 2.259.494 9.103 1.905 18.559 3.387 28.156 4.411h.211l2.611 3.14-1.305-.141a275 275 0 0 1-27.98-4.164c-.776-.141-1.517-.317-2.258-.458-22.899-4.799-43.469-12.173-61.146-21.982.282 5.081.776 9.985 1.553 14.678 1.023 6.28 2.469 12.279 4.339 17.853 11.009 8.045 23.252 14.925 36.378 20.394h.07c2.47 1.623 5.01 3.105 7.515 4.516l-.423.953c-15.207-5.575-29.356-12.914-42.058-21.805.777 2.046 1.659 4.057 2.541 5.998 5.716 12.208 13.69 21.805 23.675 28.579 12.067 4.728 25.298 8.433 39.376 11.044a80 80 0 0 0 5.116-.282c9.138-.776 18.665-3.034 28.333-6.739h.105c0-.036.142 0 .142 0 1.164.106 2.187.211 3.14.282l2.223.176-2.082.847c-9.138 3.705-18.171 6.175-26.886 7.374a270 270 0 0 0 37.259 2.682v-27.062l2.47 2.928v24.099c6.104 0 12.243-.247 18.277-.671h.282l1.905 2.4-.988.07c-6.456.459-13.019.741-19.476.741v10.091a1.25 1.25 0 0 1-1.235 1.235zm-49.185-16.795h.035c15.525 2.894 31.826 4.375 48.409 4.411h.529v11.149c0 .106.071.177.177.177s.176-.071.176-.177V435.51h.671l-1.024-1.129v.705h-.529c-14.254-.035-28.332-1.129-41.881-3.316l-4.128-.671 4.163-.388c9.209-.847 18.771-3.211 28.474-6.951-.247 0-.529-.035-.776-.07-9.739 3.705-19.3 5.963-28.509 6.739a86 86 0 0 1-5.258.282h-.141c-14.184-2.611-27.521-6.351-39.658-11.149l-.106-.071c-10.162-6.88-18.277-16.654-24.063-29.038-1.165-2.435-2.223-5.046-3.176-7.692l-.599-1.623 1.376.988c11.255 8.045 23.71 14.854 37.047 20.288-.6-.388-1.2-.741-1.799-1.129-13.232-5.54-25.581-12.49-36.695-20.605l-.141-.106-.071-.177c-1.905-5.68-3.387-11.784-4.41-18.171-.812-5.01-1.341-10.302-1.588-15.736v-.953c-.035 0 .776.459.776.459 17.783 9.95 38.565 17.465 61.676 22.334.74.141 1.517.318 2.258.459a278 278 0 0 0 26.568 3.987l-.67-.776c-9.562-1.023-18.983-2.505-28.051-4.411-.741-.176-1.517-.317-2.258-.494-22.652-4.975-42.904-12.455-60.158-22.263l-.247-.141v-.988c-.035-.353-.07-.706-.07-1.059-.247-11.608.705-23.816 2.928-36.271.106-.494.177-1.023.282-1.553l.106-.564a234 234 0 0 1 6.739-26.851c.247-.776.494-1.517.741-2.293a246 246 0 0 1 4.27-12.032l.211-.6.53.318c.635.388 1.27.741 1.905 1.094 11.926 6.774 25.616 12.314 40.646 16.407.988.282 2.011.529 3.035.811 19.053 4.904 39.446 7.445 60.652 7.48h.529v6.704l.353-.812v-5.892h2.611l.211-.459h-2.822V133.696l.776.424c.706.353 1.376.741 2.082 1.129 19.652 10.761 38.247 26.11 55.324 45.621.635.741 1.305 1.482 1.94 2.223 10.585 12.385 20.218 26.074 28.686 40.717a288 288 0 0 1 6.139 11.185l.353-.071a272 272 0 0 0-6.175-11.29c-8.15-14.078-17.394-27.345-27.521-39.377-.635-.741-1.27-1.517-1.905-2.258-17.183-19.935-36.765-36.2-56.63-47.103-.211-.106-.388-.212-.6-.317l-1.94-1.024h2.187c22.511.318 44.316 4.058 64.922 11.15a199 199 0 0 1 11.89 4.516c13.267 5.54 25.616 12.49 36.73 20.641l.141.106.071.176c1.905 5.645 3.387 11.714 4.41 18.03.141.212.318.423.459.635-.917-5.928-2.223-11.608-3.917-16.901l-.494-1.587 1.306.987c1.764 1.341 3.317 2.541 4.763 3.74 9.456 7.692 17.783 16.231 24.769 25.369l.106.141v.141a36 36 0 0 1 .141 3.388c0 5.327-.882 10.69-2.646 15.877l-.247.741-.6-.494a120 120 0 0 0-9.138-7.057c.211.459.423.883.599 1.341a132 132 0 0 1 8.574 6.739l.283.247-.142.353c-.352.953-.776 1.905-1.235 2.964l.353.388c.424-.917.777-1.799 1.129-2.646l.283-.706.564.494c10.585 9.385 18.242 19.653 22.687 30.485l1.376 1.552c-2.293-6.068-5.574-12.031-9.844-17.747-3.951-5.328-8.75-10.479-14.254-15.313l-.282-.247.105-.353c1.906-5.434 2.858-11.008 2.858-16.618v-2.858l.953 1.34c4.128 5.61 7.798 11.468 10.903 17.501 6.21 11.926 10.338 24.487 12.314 37.33l.423.494c-1.941-13.09-6.139-25.863-12.455-38a133.7 133.7 0 0 0-12.208-19.23l-.106-.141v-.141c-.776-10.126-4.657-19.97-11.573-29.25-7.48-10.056-18.206-19.088-31.861-26.851a239 239 0 0 0-3.105-1.728h-.07c0-.036-.071-.106-.071-.106-4.869-5.716-10.585-10.479-16.936-14.149-12.067-6.951-26.004-9.844-41.458-8.538a95 95 0 0 0-11.502 1.693h-.141c-10.091-1.235-20.535-1.87-30.979-1.905h-.529v-15.666c0-.106-.071-.176-.176-.176-.106 0-.177.07-.177.176v15.666h-.529c-10.444 0-20.853.67-30.979 1.905h-.141a96 96 0 0 0-11.502-1.693c-15.454-1.306-29.391 1.552-41.458 8.538-6.351 3.67-12.067 8.433-16.936 14.149l-.071.07h-.07c-.882.53-2.011 1.129-3.141 1.764-13.654 7.763-24.38 16.795-31.86 26.851-6.916 9.28-10.797 19.124-11.573 29.25v.141l-.106.141a133.6 133.6 0 0 0-12.208 19.23c-9.103 17.5-13.725 36.094-13.725 55.288 0 19.195 4.622 37.754 13.725 55.289 3.069 5.928 6.704 11.75 10.761 17.289l.141.177v.211a41 41 0 0 0-.458 6.245c0 10.938 3.987 21.559 11.855 31.544 7.586 9.632 18.418 18.276 32.249 25.686 5.539 2.964 11.573 5.751 17.924 8.256h.106c1.129.812 2.293 1.517 3.422 2.188 10.162 5.857 21.699 8.821 34.295 8.821h1.341zm50.42 3.987v.424c6.104 0 12.314-.247 18.418-.671l-.318-.388c-5.998.424-12.067.635-18.1.671zm-1.411-25.192v24.134h.353v-15.983l-.106-.071v-.318a.32.32 0 0 1 .106-.247v-7.092zm147.025-188.977c5.469 4.798 10.197 9.95 14.149 15.242 4.481 5.998 7.903 12.279 10.232 18.665-2.117-11.714-6.034-23.146-11.714-34.048a132 132 0 0 0-9.844-16.019c-.036 5.434-.988 10.903-2.788 16.16zM202.634 430.429c-8.256-.812-16.018-2.964-23.075-6.457l.424-.988c7.233 2.47 14.924 4.622 22.863 6.422l-.176 1.058zm-32.354-11.502-3.493-1.518c-35.707-15.383-56.207-38.247-56.207-62.769 0-1.552.071-3.104.247-4.657l.142-1.341.811 1.059c7.127 9.42 15.666 18.206 25.369 26.109 2.046 1.659 4.198 3.352 6.386 4.94l.141.106.071.141a96 96 0 0 0 3.881 9.632c4.975 10.55 11.608 19.265 19.723 25.863l2.964 2.399zm-58.535-67.497a49 49 0 0 0-.106 3.21c0 23.323 19.018 45.198 52.29 60.335-7.022-6.351-12.808-14.396-17.289-23.887a90 90 0 0 1-3.846-9.562c-2.152-1.587-4.269-3.246-6.316-4.869-9.42-7.656-17.712-16.124-24.698-25.192zm31.719 28.861-1.305-.988a152 152 0 0 1-4.763-3.74c-10.091-8.221-18.912-17.359-26.181-27.203l-.141-.176v-.212c.882-5.434 2.752-10.832 5.61-16.019l.318-.564.494.423a118 118 0 0 0 9.138 6.845c3.387 2.329 6.986 4.552 10.656 6.669l.247.141v.282c.212 4.763.635 9.421 1.235 13.866.917 6.704 2.364 13.126 4.234 19.089l.494 1.587zm-31.296-32.39c7.198 9.703 15.878 18.736 25.863 26.851a117 117 0 0 0 3.422 2.717c-1.658-5.575-2.928-11.503-3.775-17.677-.6-4.411-1.023-8.997-1.235-13.69a182 182 0 0 1-10.479-6.563 122 122 0 0 1-8.715-6.492c-2.576 4.834-4.305 9.844-5.116 14.89zm-1.482-.247-.741-1.023c-3.281-4.587-6.28-9.35-8.926-14.254 0 .035-.988-1.87-.988-1.87-6.916-13.302-11.256-27.345-12.914-41.74l1.058-.177c2.047 8.715 6.14 17.289 12.173 25.439 4.34 5.857 9.703 11.503 15.913 16.725l.318.282-.212.388c-2.717 4.869-4.552 9.915-5.504 14.995l-.212 1.235zm-9.985-18.171.282.565c2.682 5.151 5.752 10.162 9.139 14.995.988-4.657 2.717-9.244 5.151-13.725-6.139-5.222-11.432-10.832-15.772-16.654-4.48-6.033-7.903-12.313-10.232-18.7 2.082 11.503 5.893 22.758 11.432 33.519m36.765 15.102-.811-.494c-4.27-2.505-8.362-5.152-12.138-7.868a145 145 0 0 1-6.809-5.258l-.353-.282.247-.388c.847-1.411 1.764-2.858 2.752-4.234-.071-.176-.106-.318-.177-.494-1.023 1.411-1.94 2.858-2.822 4.269l-.318.53-.458-.389c-19.089-16.195-29.144-35.071-29.144-54.618s2.399-19.335 7.162-28.333c4.516-8.503 11.255-16.794 20.041-24.592l.564-.494.283.706c1.023 2.646 2.328 5.292 3.81 7.903a68 68 0 0 0 4.375 6.633c4.905 6.563 11.256 12.773 18.877 18.418.565.424 1.164.847 1.764 1.27a124 124 0 0 0 8.115 5.293l.388.212-.141.423a293 293 0 0 0-3.74 10.409c-.247.776-.494 1.552-.741 2.293a232 232 0 0 0-7.621 30.167c-.106.671-.247 1.306-.353 1.976v.141c-2.046 12.032-2.963 23.781-2.716 34.931v1.799zm-18.77-14.114c2.046 1.694 4.198 3.317 6.386 4.905 3.528 2.54 7.303 5.01 11.22 7.339-.247-11.185.67-22.97 2.717-35.037v-.141c.141-.67.247-1.305.353-1.976 1.799-9.95 4.375-20.146 7.656-30.308.247-.776.494-1.517.741-2.293a232 232 0 0 1 3.599-10.056c-2.717-1.658-5.328-3.352-7.798-5.116-.6-.424-1.199-.847-1.764-1.27-7.727-5.716-14.149-11.997-19.088-18.63a60 60 0 0 1-4.411-6.739 59 59 0 0 1-3.598-7.339c-8.433 7.586-14.925 15.595-19.265 23.781-4.657 8.821-7.057 18.206-7.057 27.838 0 19.053 9.774 37.507 28.297 53.384a64 64 0 0 1 3.141-4.657l.599-.812.318.953c.212.564.388 1.129.6 1.693l.106.247-.177.212a71 71 0 0 0-2.611 3.987zm141.627-42.128h-.53c-20.005-.07-39.376-2.329-57.652-6.774-1.094-.283-2.188-.53-3.211-.812-17.042-4.445-32.32-10.585-45.375-18.312l-.388-.211.177-.424c4.975-12.808 11.114-25.51 18.171-37.753 8.468-14.643 18.1-28.368 28.685-40.717.635-.741 1.27-1.482 1.941-2.223 17.077-19.511 35.671-34.86 55.324-45.621.705-.388 1.411-.741 2.081-1.129l.777-.424v154.435zm-105.815-26.568c12.878 7.55 27.909 13.619 44.704 17.959 1.023.247 2.082.529 3.176.812 18.029 4.375 37.153 6.668 56.876 6.739V135.672c-.423.247-.882.459-1.305.706-19.547 10.691-38.071 25.969-55.042 45.41-.635.741-1.306 1.481-1.941 2.222-10.514 12.314-20.147 25.969-28.544 40.576-6.951 12.067-12.984 24.557-17.924 37.189m-66.333.459-1.058-.177c1.658-14.396 5.998-28.438 12.914-41.74a135 135 0 0 1 10.902-17.501l.988-1.376v1.694c-.07.388-.07.776-.07 1.164 0 5.61.952 11.185 2.858 16.619l.105.353-.282.247c-5.504 4.833-10.303 9.985-14.254 15.313-6.034 8.15-10.162 16.689-12.173 25.439zm22.688-57.477c-3.705 5.151-6.986 10.55-9.844 16.019-5.681 10.937-9.633 22.369-11.714 34.083 2.328-6.421 5.75-12.666 10.232-18.735 3.916-5.293 8.679-10.409 14.148-15.243-1.799-5.292-2.752-10.726-2.787-16.159zm42.022 57.265-.529-.318a141 141 0 0 1-9.28-6.174c-.6-.424-1.164-.882-1.729-1.306-9.914-7.621-17.465-16.054-22.369-25.051a57 57 0 0 1-3.317-7.162l-.141-.353.282-.247c2.647-2.294 5.54-4.552 8.574-6.739.212-.424.388-.882.6-1.341-3.246 2.293-6.316 4.657-9.138 7.057l-.6.493-.247-.74a49.3 49.3 0 0 1-2.646-15.878c0-5.328.035-2.258.105-3.387l.071-.812.318.177c6.95-8.997 15.171-17.395 24.521-25.016a146 146 0 0 1 4.764-3.74l1.305-.988-.494 1.588a116 116 0 0 0-3.916 16.9c.141-.211.282-.423.458-.635 1.024-6.351 2.506-12.419 4.411-18.029l.07-.177.142-.106c11.114-8.15 23.463-15.101 36.729-20.64a174 174 0 0 1 11.891-4.517c20.57-7.092 42.41-10.832 64.921-11.114h2.117l-1.835.988a1.6 1.6 0 0 1-.352.176l-.247.142c-19.865 10.902-39.447 27.168-56.63 47.103-.635.741-1.27 1.482-1.905 2.258-10.127 12.031-19.371 25.263-27.521 39.376-7.057 12.208-13.126 24.839-18.101 37.577l-.211.6zm-36.13-40.047a54 54 0 0 0 3.105 6.669c4.834 8.891 12.278 17.183 22.087 24.698.565.424 1.129.882 1.729 1.306 2.717 2.011 5.645 3.951 8.645 5.786 4.939-12.596 10.973-25.086 17.959-37.118 8.185-14.149 17.465-27.45 27.627-39.553.635-.741 1.27-1.517 1.905-2.258 16.865-19.582 36.095-35.706 55.642-46.644-21.629.494-42.623 4.199-62.452 11.008a173 173 0 0 0-11.82 4.516c-13.125 5.505-25.368 12.35-36.377 20.394-1.87 5.54-3.316 11.538-4.34 17.854v.105l-.106.106c-.705.988-1.27 1.8-1.799 2.541l-1.27 1.834.317-2.187c.847-6.175 2.117-12.138 3.776-17.677-1.271.988-2.4 1.87-3.423 2.717-9.35 7.586-17.606 16.018-24.522 25.051a46 46 0 0 0-.106 3.14c0 4.975.777 9.95 2.364 14.819a127 127 0 0 1 10.233-7.762l1.623-1.129-.847 1.764a122 122 0 0 0-1.482 3.211l-.071.141-.105.07a134 134 0 0 0-8.327 6.528zm-4.269-21.805.247-1.87c2.505-20.041 17.712-38.953 42.834-53.242l.211.353.494.423c-3.246 4.269-6.174 9.138-8.644 14.396a100 100 0 0 0-3.881 9.632l-.071.141-.141.106a190 190 0 0 0-6.386 4.939c-8.856 7.198-16.76 15.172-23.464 23.64l-1.164 1.482zm41.387-52.925c-22.722 13.478-36.73 30.873-39.835 49.256 6.492-7.974 14.008-15.454 22.405-22.299 2.011-1.659 4.163-3.282 6.316-4.869 1.164-3.352 2.434-6.563 3.846-9.562 2.117-4.516 4.551-8.715 7.233-12.526zm253.475 51.479-.141-.142c-6.669-8.432-14.537-16.336-23.358-23.534-2.046-1.658-4.198-3.351-6.386-4.939l-.141-.106-.071-.141c-1.164-3.387-2.469-6.633-3.881-9.632-2.47-5.258-5.363-10.092-8.644-14.396l-1.2-1.588h-.494c3.846 4.728 7.233 10.162 10.021 16.125 1.164 2.434 2.223 5.045 3.175 7.691l.6 1.623-1.376-.988c-12.984-9.279-27.521-16.9-43.222-22.651-1.447-.53-2.682-.988-3.846-1.376-20.605-7.092-42.481-10.832-64.992-11.115h-2.187l1.976-.988c4.022-1.975 8.079-3.775 12.066-5.292 5.611-2.152 11.221-3.811 16.619-4.975h.176c26.216 3.246 50.491 10.514 70.144 21.029l1.023.529.847.459 1.411.811c25.086 14.29 40.293 33.202 42.834 53.243l-.459.07-.423.388zm-29.144-29.391c2.152 1.587 4.269 3.246 6.316 4.869 8.397 6.809 15.913 14.325 22.405 22.299-3.07-18.418-17.113-35.778-39.835-49.256 2.717 3.811 5.151 8.01 7.233 12.526a90 90 0 0 1 3.846 9.562zm-112.589-36.871c21.841.494 43.081 4.269 63.122 11.149 1.164.388 2.399.847 3.846 1.376 15.242 5.61 29.356 12.914 42.058 21.805-.777-2.046-1.659-4.057-2.541-5.998-2.928-6.21-6.457-11.82-10.55-16.689-19.511-10.444-43.539-17.642-69.578-20.852a114.4 114.4 0 0 0-16.372 4.904 135 135 0 0 0-9.985 4.305m-121.48 37.153.6-1.623a117 117 0 0 1 3.175-7.692c2.787-5.963 6.175-11.396 10.021-16.124h-.988l1.87-.988c19.652-10.515 43.892-17.818 70.143-21.029h.176c5.399 1.164 11.009 2.822 16.619 4.975 4.022 1.517 8.08 3.316 12.067 5.292l1.975.988h-2.187c-22.511.318-44.387 4.058-64.992 11.15-1.129.388-2.329.811-3.846 1.376-15.701 5.786-30.238 13.407-43.222 22.652l-1.376.988zm15.277-25.51c-4.057 4.869-7.621 10.479-10.549 16.689-.882 1.905-1.764 3.916-2.541 5.963 12.667-8.856 26.816-16.195 42.058-21.805 1.517-.565 2.717-.988 3.881-1.376 20.041-6.88 41.282-10.656 63.122-11.15a130 130 0 0 0-10.02-4.304c-5.54-2.117-11.044-3.776-16.372-4.905-26.039 3.211-50.102 10.444-69.579 20.853zm202.138-1.764-2.752-1.376c-17.782-8.962-39.305-15.384-62.134-18.63l-3.422-.494 3.422-.564c2.435-.388 4.87-.706 7.198-.918 15.384-1.305 29.25 1.553 41.246 8.468 5.258 3.035 10.056 6.81 14.325 11.256l2.117 2.223zm-61.181-20.535c20.429 3.211 39.659 8.962 56.03 16.795a62.5 62.5 0 0 0-11.82-8.821c-11.82-6.81-25.474-9.632-40.611-8.327-1.164.106-2.364.212-3.564.388zm-140.957 20.535 2.117-2.223c4.27-4.446 9.068-8.221 14.325-11.255l.777-.459c9.914-5.504 21.099-8.327 33.307-8.327s4.728.106 7.127.318c2.364.211 4.799.494 7.198.917l3.423.565-3.423.494c-22.863 3.246-44.351 9.667-62.134 18.629l-2.752 1.376zm16.442-12.243a64.4 64.4 0 0 0-11.29 8.503c16.371-7.798 35.601-13.584 56.03-16.795-1.2-.141-2.4-.282-3.564-.388a80 80 0 0 0-7.021-.318c-12.349 0-23.64 2.894-33.59 8.645l-.529.317zm84.469 3.246-.777-.388a145 145 0 0 0-11.043-5.046c-5.187-2.117-10.409-3.846-15.454-5.116l-2.858-.741 2.928-.318a267 267 0 0 1 26.674-1.446v.529h.53zm-24.24-10.868c4.234 1.2 8.503 2.682 12.808 4.411 3.422 1.411 6.915 2.964 10.373 4.728v-10.268c-7.762.036-15.56.424-23.181 1.129m24.593 10.868v-13.055h.529c8.962 0 17.924.494 26.674 1.446l2.928.318-2.858.741c-5.045 1.27-10.232 2.999-15.454 5.116a145 145 0 0 0-11.043 5.046zm1.058-6.422v4.693a141 141 0 0 1 10.373-4.693 131 131 0 0 1 12.808-4.41 265 265 0 0 0-23.181-1.129v5.574z"/>
    <path fill="#fff" d="M261.099 418.22c-.07 0-.176 0-.282-.07l-.247-.177v-.317c0-.247.176-.388.317-.459h.071l.247.459.247.459h-.035c-.071 0-.177.07-.247.07zm.459-6.844-2.188-2.576-32.178-38.247.141-.318 52.184-118.234 26.004 29.567 9.667 10.973-.141.318zm-33.131-41.035 2.399 2.858 30.45 36.201 52.642-116.682-3.81-4.34-30.309-34.472-51.407 116.435zm34.119 26.18-27.662-30.167 44.668-99.675 27.662 30.626-34.154 75.894-10.479 23.287zm-26.427-30.343 26.109 28.473 9.809-21.84 33.872-75.259-26.11-28.933-19.547 43.646-24.133 53.877z"/>
    <path fill="#fff" d="m314.377 293.248-35.707-40.611 124.867-28.227.283.353 34.295 38.459-29.179 7.092-94.63 22.969zm-33.696-39.976 34.084 38.776 121.445-29.497-33.025-37.012-2.647.6-119.892 27.098zm38.812 33.025-27.98-31.578 106.767-24.452 6.175 6.951 20.852 23.358-54.018 13.125zm-25.969-30.943 26.357 29.779 95.653-23.252 7.868-1.905-25.439-28.509-104.439 23.922zM264.31 392.641l-24.946-27.168 42.905-95.759 24.945 27.627zm-23.711-27.38 23.393 25.475 8.08-17.96 33.872-75.259-23.393-25.898z"/>
    <path fill="#fff" d="m319.493 286.296-24.805-28.015 102.322-23.428 1.588 1.764 22.334 25.016zm-22.829-27.38 23.217 26.215 52.572-12.772 46.503-11.291-22.299-24.981-99.993 22.899zm62.558 162.268-31.226-39.094 20.147-46.644 50.279-12.349 31.896 39.799zm-30.026-39.27 30.167 37.788 69.437-56.947-30.802-38.459-49.114 12.067-19.688 45.586z"/>
    <path fill="#fff" d="m362.997 425.913-4.446-5.575 71.096-58.288 4.446 5.575zm-2.964-5.399 3.14 3.917 69.438-56.948-3.14-3.916zm-97.487-23.993-28.086-30.59 5.681-1.129 24.593 26.815-2.223 4.94zm-26.039-29.92 25.721 28.015 1.271-2.823-23.711-25.862z"/>
    <path fill="#fff" d="m234.601 366.989 44.951-100.275 3.493 3.881-22.758 50.808-19.935 44.457-5.751 1.164zm45.233-98.37-43.433 96.923 3.21-.635 42.164-94.136zm15.666-9.421-3.952-4.481L398.88 230.16l-1.588 5.751-101.757 23.287zm-1.976-3.846 2.364 2.682 63.369-14.501 1.411-.318 35.778-8.186.952-3.422-39.764 9.103-64.075 14.678z"/>
    <path fill="#fff" d="m419.768 261.916-23.498-26.357 1.623-5.787 27.485 30.803-5.574 1.341zm-22.334-26.604 1.164 1.305 21.523 24.099 3.246-.776-25.016-28.015-.952 3.387zm-34.437 190.6-35.036-43.857 20.147-46.644 50.278-12.349 35.672 44.527-71.096 58.288zm-33.801-43.998 33.942 42.516 69.438-56.947-3.458-4.34-31.12-38.847-49.114 12.067-19.688 45.586z"/>
    <path fill="#fff" d="m288.761 445.706-27.944-35.248 53.384-118.269 123.209-29.92 28.262 35.177-60.37 15.031 14.466 18.629 27.415 35.248-.388.318-88.138 73.671-42.234-52.395zm-26.709-35.389 26.498 33.414 27.662-57.759 42.622 52.854 86.903-72.648-27.027-34.754-15.243-19.653.812-.176 59.523-14.855-26.816-33.342-27.979 6.809-94.066 22.829-36.871 81.68-16.053 35.566zm100.945 15.595-35.036-43.857 20.147-46.644 50.278-12.349 2.117 2.646 33.908 42.34h-.918l-70.531 57.829zm-33.801-43.998 33.942 42.517 69.438-56.948-34.578-43.186-49.114 12.066-19.688 45.586z"/>
</svg>
