<svg xmlns="http://www.w3.org/2000/svg" width="550" height="550" fill="none" viewBox="0 0 550 550">
    <g fill="#fff" clip-path="url(#a)">
        <path d="m401.4 255.5-.2-.6.9-.4.2.7zm.6 1.7-.2-.7.9-.3c0 .2.1.3.2.5v.2zm.5 1.7-.2-.6 1-.3c0 .2.1.4.2.6zm-1.7-5-.3-.7.9-.4c0 .2.1.3.2.5v.2zm2.2 6.6-.2-.6 1-.3c0 .1 0 .3.1.4v.2zm-5.3-13.1-.3-.7.8-.5.4.7zm.9 1.6-.4-.7.9-.4.4.7zm1.28.43-.904.427.342.723.904-.427zm.22 2.87c0-.2-.2-.4-.3-.7l.9-.4c.1.2.2.5.3.7zm4 13.3-.1-.6 1-.2.1.6zm.7 5v-.4l1-.1v.3c0 .1-1 .2-1 .2m.1 1.6v-.2l1-.1v.3zM308.8 404l-.7-.4.4-.9.8.4zm95.8-135.1v-.4l1-.1v.4zm-.2-1.6v-.5l.9-.2v.6l-1 .1zm-1-5.1v-.6h-.1l1-.2c0 .2 0 .4.1.6zm.4 1.7v-.6c-.1 0 .9-.2.9-.2 0 .2 0 .4.1.6zm-6.9-18.1-.4-.7.9-.5c.1.2.3.5.4.7zm-17.2-21.1c-.5-.5-1-.9-1.6-1.4l.7-.7c.5.5 1.1.9 1.6 1.4zm16.2 19.5c-.1-.2-.3-.5-.4-.7l.8-.5c.2.2.3.5.4.7l-.9.5zM384.1 229l-.8-.8.7-.7.2.3.6.6-.7.7zm2.8 2.9c-.2-.3-.5-.5-.7-.8l.7-.7.7.7-.7.7zm-1.4-1.4-.7-.8.7-.7.8.8zm-2.8-2.9-.9-.9.7-.7.9.9zm-1.5-1.5-.7-.7-.3-.3.7-.7c.3.3.7.6 1 1zm7 7.3c-.2-.2-.4-.5-.6-.7l.3-.4.4-.3c.2.2.4.5.6.7l-.8.6zm4.7 6.1-.5-.7.8-.6.5.7zm1 1.6-.5-.7.8-.6v.2c.3.2.4.4.5.5zm1.1 1.5c-.2-.2-.3-.5-.5-.7l.8-.6c.2.2.3.5.5.7l-.8.5zm-4.4-6.2-.6-.7.8-.6c.2.2.4.5.6.8l-.8.6zm1.2 1.6-.6-.7.8-.6v.2c.3.2.4.4.6.6l-.8.6zm-2.4-3.1c-.2-.2-.3-.4-.5-.6v-.2c-.1 0 .6-.6.6-.6v.2q.45.3.6.6l-.8.6zm86.3 70h-.2l-2.3-1h2.7l.1.1 2.2.9zm-8.4 22.7-.8-.5.5-.9.9.6z"/>
        <path d="M467.6 327.7h-.2l-.2-.2.4-.4v-.4.4l.2-.4 1.4 1zm-88 61.7-2.4-.9c-.5 0-1-.3-1.4-.6-1-.8-1.5-2.3-1.5-4.1 0-3.8 2.3-8.3 5.1-10.1l78.7-49.1c1.8-1.1 3.5-1.2 4.7-.2l2.8 1.9-.5.9c-1.2-.6-2.6-.4-4.1.6l-77.9 48.6c-4 2.4-4.6 5.8-4.7 9v.3c0 1.4.6 2.5 1.6 2.9l-.4.9zm-3.2-2.4c.3.3.6.4 1 .4h.1l.2.1c-.2-.5-.4-1.1-.4-1.7v-.3c0-3.5.6-7.4 5.2-10.1l77.8-48.6c.9-.6 1.9-.9 2.8-1l-1-.7c-.9-.7-2.2-.6-3.6.3l-78.7 49.1c-2.6 1.6-4.7 5.8-4.7 9.2s.4 2.7 1.1 3.3z"/>
        <path d="M382.1 389.8h-.2c-.7 0-1.4 0-2-.3h-.3c-1.4-.7-2.3-2.1-2.3-4 0-3.5.6-7.4 5.2-10.1l77.8-48.6c1.8-1.1 3.6-1.4 5.1-.6l.9.6c.8.7 1.3 1.7 1.6 3.1.2 1.1.3 2.4 0 3.8v.8-.4c-.7 2.3-2.3 4.7-5.8 6.8l-78 47.9c-.7.4-1.4.7-2.1.8zm-.5-1v-.4l.3.1c.6-.1 1.1-.3 1.6-.7l78-47.9c4.3-2.6 6.1-6 5.4-10-.2-1.1-.7-2-1.3-2.6l-.8-.5c-1.1-.5-2.6-.3-4.1.6L382.8 376c-4.1 2.5-4.7 6-4.7 9.3s.6 2.5 1.6 2.9h.2c.4.2.8.3 1.3.2v-.2h.3v.4zm1.5-2.9h-.4c-1.2-.3-1.7-1.5-1.7-2.7v-.2c.1-1.3.3-3.6 3.1-5.4l4.9-3.1c17.2-10.9 69.6-43.9 71.7-45.1 1.2-.7 2.3-.7 3.2-.2.5.3.9.8 1.1 1.3l.4-.6-.2 1.9c-.2 1.4-.4 3.4-4.4 5.8l-20.5 12.8c-16 10-53.5 33.4-55.4 34.7-.7.5-1.4.7-2 .7zm77.9-56.1.2.4c-2.1 1.2-54.5 34.2-71.7 45l-4.9 3.1c-2.4 1.5-2.5 3.4-2.6 4.6v.2c0 .6.2 1.5.8 1.7.4 0 1 0 1.7-.5 1.9-1.2 39.4-24.7 55.4-34.7l20.5-12.8c3.2-2 3.7-3.5 3.9-4.7v-.4c.1-.6-.2-1.3-.8-1.7s-1.4-.3-2.2.1l-.4-.4z"/>
        <path d="m382.1 389.8-.8-.4.2-.4h-.4.4l.2-.5.3.1.1.4zm1-3.9h-.4c-1.2-.3-1.7-1.5-1.7-2.7v-.3l.2-.1c6.2-4 71.9-45 75.5-47.2s3.8-3.8 3.9-5.1v-1l.3-.2c.8-.4 1.7-.6 2.4-.4 0-.1.8.3.8.3.9.6 1.5 1.6 1.3 2.7-.2 1.8-.7 3.6-4.4 5.8l-1.1.7c-2.8 1.8-10.3 6.4-19.4 12.1-25.7 16.1-53.8 33.6-55.4 34.7-.7.5-1.4.7-2 .7m-1.1-2.4c0 .6.3 1.3.9 1.4.4 0 1 0 1.7-.5 1.6-1.1 29.7-18.6 55.4-34.7 9.1-5.7 16.5-10.3 19.4-12.1l1.1-.7c3.6-2.2 3.8-3.8 3.9-5.1 0-.6-.2-1.3-.8-1.6-.5-.4-1.1-.4-1.9 0v.5c-.2 1.4-.4 3.4-4.4 5.8-3.5 2.2-67.8 42.3-75.2 47z"/>
        <path d="M381 384.1v-1.2c.1-1.3.3-3.6 3.1-5.4l5.5-3.5c17.1-10.8 69-43.5 71.1-44.7l.7-.3.2.6v1c-.3 1.8-.8 3.6-4.5 5.8-3.5 2.2-69.3 43.3-75.5 47.2l-.8.5zm79.7-53.5c-6.2 3.8-54.2 34-70.5 44.3l-5.5 3.5c-1.9 1.2-2.4 2.7-2.6 3.8 10-6.3 71.1-44.5 74.6-46.6 3.3-2.1 3.7-3.5 3.9-4.8zm-155.4 74.9-.5-.9c.6-.3 1.1-.6 1.7-.9l.5.9c-.6.3-1.1.6-1.7 1zm3.4-2-.7-.7zm-.4.2h-1.2l1-1 2.2-.8-1.8 1.8z"/>
        <path d="M233.4 424.1v-49.8h.5c6.2 0 12.5-.2 18.7-.6h.3l.1.3c1.1 2.2 3.3 3.5 6.6 5 3.2 1.4 23.4 11.3 39.6 19.3l2.5 1.2c2.4 1.2 4.6 2.3 6.7 3.3l.7.4-.8.6c-.4.2-.9.5-1.3.7h-.2c-.6.5-1.1.8-1.7 1.1-17.7 9.8-36.9 15.8-57.1 17.8-1 .1-2.1.2-3.1.3-3.7.3-7.4.4-11.1.5h-.5zm1-48.8v47.8c3.5 0 7-.2 10.5-.5 1 0 2.1-.2 3.1-.3 20-2 39.1-8 56.7-17.7.5-.3.9-.5 1.4-.8h.3c.3-.3.5-.5.8-.6l-5.9-2.9c-16.6-8.2-38.8-19-42.1-20.5s-5.6-2.9-6.9-5.1c-5.9.4-12 .6-17.9.6m119.7-63.2v-.9c-.3-1.2-.5-2.4-.7-3.5-.1-.7-.2-1.4-.4-2.1-1.8-9.9-4.3-20-7.6-30.1-.2-.8-.5-1.5-.8-2.3-1.1-3.4-2.4-6.9-3.7-10.4v-.4c-.1 0 .2-.2.2-.2 2.8-1.7 5.5-3.5 8.1-5.3.6-.4 1.2-.8 1.7-1.3 7.6-5.6 14-11.8 18.9-18.4 1.6-2.1 3-4.3 4.4-6.6l.6-1 .3 1.1c3.1 9.9 5.2 20.1 6.1 30.4-.5 4.6-1.3 9-2.6 13.2l-.6 1.8c-1.2 3.6-2.8 7.2-4.6 10.7v2c0 .1-4.7 11.2-18.7 22.7l-.7.6zm-12-49.2c1.3 3.4 2.5 6.8 3.6 10.1.3.8.5 1.5.8 2.3 3.3 10.1 5.8 20.3 7.6 30.2.1.7.2 1.4.4 2.1.2.9.3 1.8.4 2.7 12.6-10.6 17.2-20.7 17.7-21.7v-2c1.9-3.6 3.4-7.1 4.6-10.8.2-.6.4-1.2.5-1.7 1.2-4.2 2.1-8.5 2.6-12.9-.9-9.8-2.9-19.6-5.8-29-1.2 2-2.5 3.9-3.8 5.7-4.9 6.6-11.4 12.9-19.1 18.6-.6.4-1.2.9-1.8 1.3q-3.75 2.7-7.8 5.1z"/>
        <path d="M233.4 373.5v-84.8h.5c21.2 0 41.5-2.6 60.6-7.5 1-.3 2-.5 3-.8 15-4.1 28.7-9.6 40.6-16.4.6-.4 1.3-.7 1.9-1.1l.5-.3.2.6c1.5 4 3 8 4.3 12 .2.8.5 1.5.7 2.3 2.8 9 5.1 18 6.7 26.8v.4c.2.6.3 1.1.4 1.7q.45 2.7.9 5.7v.3l-.2.2c-3 2.4-6.3 4.7-9.7 6.7h-.2c0 .1-1.5-.6-1.5-.6-3 1.9-6.2 3.7-9.5 5.4v2h-.3c-.2.3-19.5 11.2-49.2 16.7l40.7 19.6-.4.9-.3-.2-45-21.6c-2 .3-7.1 1-13.6 2.2-8.7 1.6-12.3 9-12.3 12.6V369c0 1.2.1 2.2.3 3.1v.6h-.5c-6 .4-12.1.6-18.2.6h-.5zm1-83.8v82.8c5.7 0 11.4-.2 17-.5-.1-.8-.2-1.7-.2-2.7v-13.2c.3-4.7 4.9-11.6 13.1-13.1 6.7-1.2 11.9-2 13.8-2.3h.1l3.4 1.6c28.4-5.1 47.5-15.2 49.9-16.6v-2h.3c3.5-1.9 6.8-3.8 9.9-5.8h.2c0-.1 1.5.6 1.5.6 3.2-2 6.3-4.1 9.2-6.4q-.45-2.85-.9-5.4c0-.6-.2-1.1-.3-1.7v-.4c-1.7-8.8-4-17.8-6.8-26.7-.2-.8-.5-1.5-.7-2.3-1.2-3.8-2.6-7.6-4-11.4-.5.3-.9.5-1.4.8-12 6.8-25.7 12.4-40.8 16.5-1 .3-2 .5-3 .8-19 4.9-39.2 7.4-60.3 7.5zm80.8 131.9-.2-.3c-.6-.9-1.1-2-1.4-3.3l1-.2c.3 1 .8 2 1.5 2.8l.5.6-1.3.5zm85.2-133.4-14.6-7.5v-3.2l17.4 8.9-2.8 1.7zm-13.6-8.1 13.6 6.9.8-.5-14.4-7.3zm-112.3 91.4h-1s0-.2-.2-.3l.5-.8c.4.3.7.7.7 1.2z"/>
        <path d="M372.5 289.6v-3.1l14.3-9v3.2l-14.3 8.8zm1-2.6v.8l12.3-7.6v-.9z"/>
        <path d="M354.8 316.7v-.8c-.3-1.6-.5-3.1-.8-4.7v-.3l.2-.2c13.8-11.3 18.3-22.2 18.4-22.3v-.2l13.8-8.5 15.1 7.7-46.7 29.2zm.2-5.3c.2 1.2.4 2.4.5 3.7l43.9-27.4-13-6.7-13 8c-.6 1.4-5.4 11.7-18.4 22.4m-8.1 10.3v-.6l-4.4-2.1.8-.5c3.4-2.1 6.6-4.3 9.6-6.7l.7-.5v.9c.3 1.5.5 3 .7 4.5v.3l-7.5 4.7zm-2.3-2.8 2.8 1.3 5.9-3.7c-.1-1.1-.3-2.2-.4-3.3-2.6 2-5.4 3.9-8.3 5.7"/>
        <path d="m386.429 279.796-.454.892 14.078 7.173.453-.891zM347.2 321.2l-3.9-1.8.5-.9 3.8 1.8zm13.7 19.1h-.2c0-.1-29-14.1-29-14.1v-3.1l32.1 15.4-2.8 1.8zm-28.3-14.7 28.2 13.5.8-.5-29-13.9z"/>
        <path d="m323.7 363.5-43.8-21 1.5-.3c30.3-5.4 50.2-16.6 50.3-16.7h.2c0-.1.2 0 .2 0l29.6 14.2-38.1 23.8zm-40.5-20.6 40.5 19.4 36.1-22.6-27.7-13.3c-2.3 1.3-21 11.2-48.9 16.4zm30.4 75.1c-.2-.9-.4-1.8-.4-2.7v-1h1c0 1.3.1 2.5.3 3.5l-1 .2zm-8.4-12.5-.4-.9h.2q.75-.6 1.5-.9c.5-.3 1.1-.6 1.6-.9h.2c0-.1 2 .8 2 .8l-1.1.4c-1.3.5-2.7 1-4 1.5"/>
        <path d="m306.9 404.6-.5-.9 1.5-.9.5.9c-.5.3-1.1.6-1.6.9zm-196.5-60.3-.8-.5c-4.2-2.5-8.3-5.1-12.1-7.8h-.1v-.2c-1.4-3.1-2.7-6.4-3.9-9.6-.2-.6-.4-1.2-.6-1.7-5.5-15.8-8.3-32.3-8.3-49.1s2.3-30.2 6.8-44.6l.3-1.1.6 1c1.3 2.3 2.8 4.5 4.4 6.6 4.9 6.6 11.2 12.7 18.9 18.4.6.4 1.2.8 1.7 1.3 2.5 1.8 5.3 3.6 8.1 5.3l.4.2v.4c-1.5 3.5-2.8 7-3.9 10.4-.3.8-.5 1.5-.7 2.3-3.3 10.1-5.8 20.2-7.6 30.1v.4c-.2.6-.3 1.1-.4 1.7-2 12.1-2.9 23.8-2.7 34.9v1.7zm-12.2-9c3.5 2.5 7.3 5 11.2 7.3-.2-11.2.7-23 2.7-35 .1-.7.2-1.4.4-2.1v-.4c1.9-9.8 4.4-19.8 7.6-29.8.2-.8.5-1.5.8-2.3 1.1-3.3 2.3-6.6 3.6-10.1-2.7-1.6-5.3-3.4-7.8-5.1-.6-.4-1.2-.8-1.8-1.3-7.7-5.7-14.1-12-19.1-18.6-1.4-1.8-2.7-3.8-3.8-5.7-4.3 14-6.4 28.5-6.4 43.2s2.8 33.2 8.3 48.8c.2.5.4 1.1.6 1.6 1.2 3.3 2.4 6.5 3.8 9.6zm135.2-47.1v-154l.7.4c.7.4 1.4.7 2.1 1.1 19.6 10.7 38.2 26.1 55.2 45.5.6.7 1.3 1.5 1.9 2.2 10.5 12.4 20.2 26 28.6 40.7 7.1 12.2 13.2 24.9 18.1 37.7l.2.4-.4.2c-13 7.7-28.3 13.9-45.3 18.3-1.1.3-2.1.5-3.2.8-18.2 4.4-37.6 6.7-57.5 6.8h-.5zm1-152.4v151.4c19.7 0 38.8-2.4 56.8-6.7 1.1-.3 2.1-.5 3.2-.8 16.8-4.4 31.8-10.4 44.6-18-4.9-12.6-11-25.1-17.9-37.1-8.4-14.6-18-28.2-28.5-40.5-.6-.7-1.3-1.5-1.9-2.2-17-19.4-35.4-34.6-54.9-45.3-.4-.2-.9-.5-1.3-.7z"/>
        <path d="m125.8 262-.5-.3c-3.2-2-6.3-4-9.2-6.2-.6-.4-1.2-.9-1.7-1.3-9.9-7.6-17.4-16-22.3-25v-.2c-.1 0 0-.2 0-.2 1.5-4.7 3.4-9.4 5.4-13.9l.4-1c.3-.8.7-1.5 1.1-2.3 3.4-7.1 7.4-14.1 11.9-20.7.6-.9 1.2-1.7 1.8-2.6 11.2-15.5 25-28.5 41.1-38.7 4-1.7 8-3.2 11.9-4.6 20.5-7.1 42.3-10.8 64.8-11.1h2.1l-1.8.9-.6.3c-19.8 10.9-39.4 27.1-56.5 47-.6.7-1.3 1.5-1.9 2.2a270.3 270.3 0 0 0-27.5 39.3c-7 12.2-13.1 24.8-18.1 37.5l-.2.6zM93 228.9c4.8 8.8 12.2 17 22 24.5.6.4 1.1.9 1.7 1.3 2.7 2 5.6 4 8.7 5.8 4.9-12.6 11-25 17.9-37.1 8.1-14.1 17.4-27.4 27.6-39.5.6-.8 1.3-1.5 1.9-2.2 16.9-19.6 36.1-35.7 55.6-46.6-21.6.5-42.6 4.2-62.4 11-3.9 1.3-7.9 2.8-11.8 4.5-15.9 10.1-29.6 23-40.7 38.4-.6.8-1.2 1.7-1.8 2.5-4.5 6.5-8.5 13.4-11.9 20.5-.5 1.1-1 2.1-1.5 3.2l-.4 1c-1.8 4.1-3.4 8.4-4.8 12.6zm18.9 132.6-1.2-1.7c-4.5-6.5-8.5-13.5-11.9-20.7l-.8-1.7 1.5 1.1c3.4 2.3 6.9 4.5 10.6 6.7h.2v.4c.2 4.7.6 9.4 1.2 13.9l.3 2.1zm-11.4-21.2c2.9 5.9 6.2 11.7 9.9 17.1-.5-3.8-.8-7.6-1-11.6-3.1-1.8-6.1-3.6-8.9-5.5m240.2-78.4-.2-.6c-5-12.7-11-25.3-18.1-37.5a270.3 270.3 0 0 0-27.5-39.3c-.6-.8-1.3-1.5-1.9-2.2-17.1-19.9-36.7-36.2-56.5-47l-2.3-1.3h2c22.5.3 44.2 4.1 64.8 11.1 3.9 1.3 7.9 2.9 11.9 4.5 15.7 10 29.3 22.6 40.3 37.5l.9 1.2c.6.8 1.2 1.7 1.8 2.6 4.5 6.6 8.5 13.5 11.9 20.7.5 1.1 1 2.2 1.5 3.2 2 4.5 3.8 9.2 5.4 13.9v.4c-4.9 9-12.4 17.4-22.3 25-.6.4-1.2.9-1.7 1.3-2.9 2.1-6 4.2-9.2 6.2l-.5.3zM238.1 135.1c19.5 10.9 38.7 27 55.6 46.6.6.7 1.3 1.5 1.9 2.2 10.1 12.1 19.4 25.3 27.6 39.5 7 12 13 24.5 17.9 37.1 3-1.9 5.9-3.8 8.7-5.8.6-.4 1.2-.9 1.7-1.3 9.7-7.5 17.1-15.7 22-24.5-1.5-4.6-3.3-9.2-5.3-13.6-.5-1.1-1-2.2-1.5-3.2-3.4-7.1-7.4-14-11.9-20.5l-1.5-2.1-.3-.4c-11.1-15.4-24.8-28.3-40.8-38.5q-5.85-2.4-11.7-4.5c-19.8-6.8-40.8-10.5-62.4-11m93.8 294.6q-1.35 0-2.4-.6c-2.3-1.2-3.5-4.1-3.5-8.6v-22.9c0-.7 0-1.4.1-2.2 0-.6.2-1.2.3-1.8q.75-3.15 2.7-6c2.1-3.1 5-5.9 8.8-8.3l.4-.2c2-1.3 6.6-4.2 13-8.2l1.7-1.1c5.9-3.7 13.1-8.2 21-13.2l9.2-5.8c34.6-21.7 77.7-48.7 82.8-52.1 4-2.7 7-3.5 9.1-2.7h.1c2.5 1.1 3.7 4.4 3.7 10.1v20.5c0 6.4-1.6 14.7-13.8 22.1-8.6 5.2-61.5 38.1-96.6 59.8-15.5 9.6-27.7 17.2-30.1 18.7q-3.9 2.4-6.6 2.4zm141.6-132.9c-1.7 0-4 1-6.9 2.8-5.1 3.4-48.2 30.4-82.8 52.1l-9.2 5.8c-7.9 5-15.1 9.5-21 13.2l-1.7 1.1c-6.3 4-11 6.9-13 8.2l-.4.2c-3.6 2.3-6.5 5.1-8.5 8-1.2 1.8-2.1 3.7-2.5 5.7-.1.6-.2 1.1-.3 1.7 0 .7-.1 1.4-.1 2.1v22.9c0 4.1 1 6.7 2.9 7.7 1.8 1 4.6.3 8.1-1.8 2.4-1.5 14.6-9.1 30.1-18.7 35-21.8 87.9-54.6 96.6-59.9 11.8-7.1 13.3-15.1 13.3-21.2v-20.5c0-5.2-1-8.2-3-9.1-.4-.2-.9-.3-1.4-.3zM337.4 423.9c-.4 0-.8 0-1.1-.1-.4-.1-.8-.3-1.1-.6l-.9-.4c-1.7-.4-3.7-1.9-3.7-7.1V398c0-1.9.4-3.8 1.2-5.6.4-.8.9-1.7 1.4-2.5 1.6-2.3 3.8-4.4 6.6-6.2 1.2-.7 4.7-3 9.8-6.2l16.4-10.3c4.8-3 10-6.3 15.5-9.8l.6-.4c37.9-23.9 78.7-49.6 82.6-52.2 3.3-2.2 5.7-2.8 7.4-2l2.5 1.1c1.7 1 2.6 3.5 2.6 7.7v15.8c0 5-1.2 11.5-10.7 17.2-6.2 3.8-53.1 33.1-87.4 54.6-19.2 12-34.3 21.5-36.4 22.8-2 1.2-3.7 1.8-5.2 1.8zm-1-1.1c1.4.4 3.3-.1 5.6-1.6 2.1-1.3 17.3-10.8 36.4-22.8 34.2-21.4 81.1-50.8 87.4-54.6 8.9-5.4 10.2-11.4 10.2-16.1v-16c0-3.7-.7-6-2-6.8h-.2l-2.4-1.1c-1.4-.7-3.5 0-6.4 1.9-3.9 2.6-44.7 28.3-82.6 52.2l-.6.4c-5.5 3.4-10.7 6.7-15.5 9.8l-16.4 10.3c-5.1 3.2-8.6 5.5-9.8 6.2-2.7 1.7-4.8 3.7-6.4 5.9-.5.8-1 1.5-1.3 2.3-.8 1.7-1.2 3.4-1.2 5.2v17.7c0 2.5.5 5.6 3 6.1h.1l1.1.5c.3.2.6.3.9.4z"/>
        <path d="m335.1 423.3-1-.5c-1.7-.4-3.7-1.9-3.7-7.1V398c0-1.9.4-3.8 1.2-5.6.4-.9.9-1.7 1.4-2.5 1.6-2.3 3.8-4.4 6.6-6.2 1.2-.7 4.7-3 9.8-6.2l9.4-5.9c2.2-1.4 4.5-2.8 6.9-4.4l16.1-10.2c27.4-17.3 78.3-49.4 82.6-52.2 3.2-2.1 5.6-2.8 7.3-2.1l2 .9-.4.9c-1.4-.5-3.4.2-6.2 2-3.9 2.6-46 29.2-85.2 53.9l-26.1 16.5c-7.2 4.5-12.1 7.7-13.6 8.6-2.1 1.4-3.9 2.9-5.3 4.6-2.3 2.8-3.5 5.7-3.5 8.9v17.7c0 2.9.7 4.8 1.9 5.7l-.5.9zm135.2-119.7c-1.3 0-3.1.7-5.2 2.2-4.2 2.8-55.2 35-82.6 52.2l-16.1 10.2c-2.4 1.5-4.7 3-6.9 4.4l-9.4 5.9c-5.1 3.2-8.6 5.5-9.8 6.2-2.7 1.7-4.8 3.7-6.4 5.9-.5.7-1 1.5-1.3 2.3-.8 1.7-1.2 3.4-1.2 5.2v17.7c0 2.3.4 5 2.3 5.9-.6-1.2-.9-2.8-.9-4.9v-17.7c0-3.4 1.3-6.6 3.8-9.5 1.5-1.7 3.3-3.3 5.6-4.8 1.4-.9 6.4-4.1 13.6-8.6l26.1-16.5c39.1-24.7 81.2-51.2 85.2-53.8 1.7-1.2 3.2-1.9 4.5-2.2-.3-.1-.7-.2-1-.2z"/>
        <path d="M337.4 423.9c-.4 0-.8 0-1.1-.1-.4-.1-.8-.3-1.1-.6-1.5-1.1-2.3-3.2-2.3-6.5V399c0-3.4 1.3-6.6 3.8-9.5 1.5-1.7 3.3-3.3 5.6-4.8 1.4-.9 6.4-4.1 13.6-8.6l26.1-16.5c34.2-21.6 81.1-51.1 85.2-53.8 3.1-2 5.4-2.7 7.1-2.1l.5.2.6.4c1.3 1.2 2 3.6 2 7.3v15.8c0 5-1.2 11.5-10.7 17.2-6.3 3.8-54.1 33.7-89 55.6-18.3 11.4-32.7 20.5-34.8 21.7-2 1.2-3.7 1.8-5.2 1.8zm-1-1.1c1.4.4 3.3-.1 5.6-1.6 2.1-1.3 16.5-10.3 34.8-21.7 34.9-21.9 82.7-51.8 89-55.6 9-5.5 10.2-11.6 10.2-16.3v-15.8c0-3.8-.7-6.1-2.1-6.8l-.4-.2c-1.3-.5-3.4.2-6.1 2-4.1 2.7-51 32.3-85.2 53.9l-26.1 16.5c-7.2 4.5-12.1 7.7-13.6 8.6-2.1 1.4-3.9 2.9-5.3 4.6-2.3 2.8-3.5 5.7-3.5 8.9V417c0 2.9.7 4.8 1.9 5.7.2.2.5.3.8.4zm19.1-15.9c-.6 0-1.2-.1-1.7-.4l-3.3-1.5c-.3-.2-.7-.4-1-.6-2.3-2-2.5-6.8-.4-11.4 2.4-5.2 6.9-8.2 10-6.8l3.3 1.5c1.4.7 2.4 2.1 2.7 4.2.4 2.3-.1 5.2-1.3 7.8-2 4.3-5.4 7.1-8.3 7.1zm1.9-20c-2.5 0-5.5 2.6-7.3 6.5-1.9 4.1-1.8 8.5.2 10.2.2.2.5.4.7.5l3.3 1.5c2.6 1.2 6.5-1.6 8.7-6.3 1.1-2.5 1.6-5.1 1.2-7.2-.3-1.7-1-2.9-2.2-3.4l-3.3-1.5c-.4-.2-.9-.3-1.3-.3m23.9 2.8c-.5 0-.9 0-1.4-.2h-.3c0-.1-2.4-1.1-2.4-1.1-.5 0-.9-.2-1.3-.5h-.3v-.3c-.9-.8-1.4-2.2-1.4-3.9 0-3.8 2.3-8.3 5.1-10.1l78.7-49.1c1.7-1.1 3.5-1.2 4.7-.2l3.6 2.5.1.1.5-.8.9.6 1.3.9h-1.9c0-.1-.5-.5-.5-.5q.9 1.05 1.2 2.7c.6 2.8.2 6.8-4.4 10.1h.1l-1.5.9-78 47.9c-.9.6-2 .9-2.9.9zm-4.9-2.7c.3.3.6.4 1 .4h.1l2.6 1.1c1.1.4 2.4.2 3.5-.5l76.5-47 1.5-.9c4.3-2.6 6.1-6 5.3-10-.2-1.1-.7-1.9-1.3-2.5l-3.5-2.5c-.9-.7-2.2-.6-3.6.3l-78.7 49.1c-2.6 1.6-4.7 5.8-4.7 9.2s.4 2.7 1.1 3.3z"/>
        <path d="M356.5 403.5c-.4 0-.8 0-1.2-.2-.8-.4-1.4-1.1-1.7-2.1 0-.2-.1-.4-.1-.6l-.2-.9 3 1.3q.45.3 1.2 0c1-.4 2-1.5 2.6-2.8.4-1 .7-2 .6-2.9 0-.9-.4-1.6-.9-1.9l-3.1-1.3.8-.5c1.2-.7 2.4-.9 3.4-.5.4.2.7.4 1 .7q.75.9.9 2.4v1.1c0 1.2-.4 2.4-.9 3.6-1.3 2.7-3.4 4.6-5.4 4.6m-1.7-2.1c.2.4.5.8.9 1 .2.1.5.2.8.2.8 0 1.7-.5 2.6-1.3-.4.3-.8.5-1.2.7-.7.3-1.4.3-1.9 0l-1.1-.5zm4.3-9.4 1.2.5c.9.4 1.5 1.4 1.5 2.8v.2-1.3c-.1-.7-.3-1.3-.7-1.7-.2-.2-.4-.4-.6-.5-.4-.2-.9-.2-1.4 0"/>
        <path d="m353.8 406.6-3.3-1.5c-.3-.2-.7-.4-1-.6-2.3-2-2.5-6.8-.4-11.4 1.1-2.5 2.8-4.5 4.6-5.8 1.6-1.1 3.3-1.5 4.7-1.2l4 1.8-.4.9c-2.6-1.2-6.5 1.6-8.7 6.3-.1.3-.2.5-.3.8-.4 1-.7 2-.8 3-.2 1.4-.2 2.8 0 3.9.2 1 .8 2.4 2.1 2.9l-.4.9zm3.6-19.7c-1 0-2 .4-3.1 1.1-1.7 1.2-3.2 3.1-4.3 5.4-1.9 4.1-1.8 8.5.2 10.2.2.2.5.4.7.5l.8.4c-.2-.5-.4-1-.6-1.6-.3-1.3-.3-2.8 0-4.3.2-1 .5-2.1.9-3.2.1-.3.2-.6.4-.9 1.7-3.7 4.5-6.3 7.1-7l-.8-.4c-.4-.2-.8-.3-1.3-.3z"/>
        <path d="M355.6 406.9c-.6 0-1.2-.1-1.7-.4-1.3-.6-2.2-1.9-2.6-3.6-.3-1.3-.3-2.8 0-4.3.2-1.1.5-2.1.9-3.2.1-.3.2-.6.4-.9 1.1-2.5 2.8-4.5 4.6-5.8 1.9-1.3 3.8-1.7 5.4-1 1.4.7 2.4 2.1 2.7 4.2.4 2.3-.1 5.2-1.3 7.8-1.1 2.5-2.8 4.5-4.6 5.8-1.3.9-2.5 1.3-3.7 1.3zm5.1-18.4c-1 0-2 .4-3.1 1.1-1.7 1.2-3.2 3.1-4.3 5.4-.1.3-.2.5-.3.8-.4 1-.7 2-.8 3-.2 1.4-.2 2.8 0 3.9.2 1 .8 2.4 2.1 2.9 1.2.6 2.8.3 4.4-.9 1.7-1.2 3.2-3.1 4.3-5.4 1.1-2.5 1.6-5.1 1.2-7.2-.3-1.7-1-2.9-2.2-3.4-.4-.2-.8-.3-1.3-.3zm-4.2 15c-.4 0-.8 0-1.2-.2-.8-.4-1.4-1.1-1.7-2.1 0-.2-.1-.4-.1-.6-.3-1.5 0-3.4.8-5.1s1.9-3.1 3.2-3.9c1.2-.7 2.4-.9 3.4-.5.4.2.7.4 1 .7.5.6.8 1.4.9 2.5.1 1.4-.2 3.1-.9 4.6l-.3.6c-1.3 2.4-3.3 4-5.1 4m3.3-11.6c-.5 0-1.1.2-1.7.6-1.1.7-2.1 2-2.8 3.5-.7 1.6-1 3.2-.8 4.5 0 .2 0 .3.1.5.2.5.5 1.2 1.1 1.5.2.1.5.2.8.2 1.5 0 3.4-1.7 4.5-4v-.3c.7-1.3.9-2.7.8-3.8 0-.8-.3-1.5-.7-1.9-.2-.2-.4-.4-.6-.5s-.5-.2-.7-.2z"/>
        <path d="m356 401.9-2.4-1.1v-.3c-.3-1.5 0-3.4.8-5.1s1.9-3.1 3.2-3.9h.2c0-.1 2.4.9 2.4.9h.1l-.4.9c-.3-.2-.7-.1-1.1 0-1 .4-2 1.5-2.6 2.8-.6 1.4-.8 2.9-.4 3.9.1.3.3.7.7.9l-.4.9zm-1.5-1.8h.2c-.1-.3-.2-.8-.2-1.3zm3.4-7.6c-.3.2-.5.4-.8.7q.45-.45.9-.6h-.1z"/>
        <path d="M356.9 402.1c-.3 0-.6 0-.9-.2-.6-.3-1-.8-1.3-1.5-.5-1.3-.3-3 .5-4.6 1.2-2.6 3.5-4.1 5.1-3.4.9.4 1.4 1.4 1.5 2.7 0 1-.2 2.2-.7 3.3-.6 1.2-1.4 2.2-2.3 2.9-.6.5-1.3.7-1.9.7zm2.5-8.8c-1.1 0-2.5 1.2-3.3 3-.6 1.4-.8 2.9-.4 3.9.1.3.3.7.7.9.5.2 1.2 0 1.9-.4.8-.5 1.5-1.4 2-2.5.4-1 .7-2 .6-2.9 0-.9-.4-1.6-.9-1.9-.2 0-.3-.1-.5-.1z"/>
        <path d="m329.5 429.1-12.1-6.1c-.9-.6-1.6-1.2-2.1-1.9-.8-1-1.3-2-1.7-3.2-.2-1.1-.4-2.4-.4-3.8v-22.9c0-6.9 4.2-13.4 12-18.3 3.3-2.1 17.1-10.8 34.9-21.9l31.7-19.9c22.4-14.1 46.7-29.3 57-35.9 2.2-1.4 3.7-2.4 4.5-2.9 4-2.7 7-3.6 9.2-2.7 0 0 .1 0 .2.1l.5.3 12.1 6-.4.9c-1.8-.8-4.6.1-8.3 2.6-5.1 3.4-48.1 30.3-82.6 52l-5.5 3.5c-1.3.8-2.7 1.7-4 2.5-7.9 5-15.1 9.5-21 13.2l-1.7 1.1c-6.4 4-11 6.9-13 8.2l-.3.2c-3.7 2.4-6.6 5.1-8.6 8.1-1.2 1.8-2.1 3.7-2.5 5.7-.1.6-.2 1.1-.3 1.7 0 .7-.1 1.4-.1 2.1v22.9c0 4.1 1 6.7 2.9 7.7l-.5.9zm131.3-138.7c-1.7 0-4 1-6.9 2.8-.7.5-2.3 1.5-4.5 2.9-10.3 6.6-34.6 21.8-57 35.9l-31.7 19.9c-17.7 11.1-31.6 19.8-34.9 21.9-7.4 4.7-11.5 10.9-11.5 17.5v22.9c0 1.3.1 2.5.3 3.5.3 1 .8 2 1.5 2.8.5.6 1.1 1.2 1.9 1.7l9.4 4.7c-.8-1.5-1.3-3.7-1.3-6.4v-22.9c0-.7 0-1.5.1-2.2 0-.6.2-1.2.3-1.8q.75-3.15 2.7-6c2.1-3.1 5-5.9 8.8-8.3l.4-.2c2-1.3 6.6-4.2 13-8.2l1.7-1.1c5.9-3.7 13.1-8.2 21-13.2 1.3-.8 2.6-1.6 4-2.5l5.5-3.5c34.5-21.6 77.5-48.6 82.6-52 2.5-1.7 4.7-2.7 6.5-2.9l-10.4-5.2c-.4-.2-.8-.2-1.3-.2zm-103.3 35.8-1.9-.9v-1.1l.2-.2 54.9-34.3v.6l16.6 8.5-2.8 1.7-14.3-7.3-52.8 33zm-.8-1.5.8.4 52.8-33 14.3 7.3.8-.5-15.1-7.7z"/>
        <path d="m372.2 333.2-15.8-7.6 53.8-33.6 15.4 7.8-53.4 33.3zm-13.7-7.7 13.7 6.6 51.4-32.1-13.3-6.8z"/>
        <path d="m314.3 406.7-6.2-3c-16.6-8.2-45-22.1-48.8-23.8-3.4-1.5-5.8-3-7.1-5.4l-.3-.7h.8q10.5-.75 20.7-2.1s.1 0 .1-.2c0 0 0-.2-.2-.3-.1 0-.3-.2-.6-.2-6.7.9-13.7 1.6-20.6 2h-.4v-.4q-.3-1.5-.3-3.3v-12.7c0-4.7 4.6-12 13.1-13.6 6.3-1.2 11.4-1.9 13.8-2.3h.2l45.2 21.7 38-23.7L331 324l.9-.5q5.25-2.7 9.9-5.7h.2c0-.1 5.3 2.4 5.3 2.4l6.9-4.3v.8c.6 4.3 1 8.6 1.2 12.7 0 0 .2.1.3 0 0-1.5-.2-2.9-.3-4.4v-.8c-.3-2.7-.6-5.4-.9-8.2v-.3l.2-.2 46.3-28.9-14.8-7.6-14.7 9.2.9-1.7c1.9-3.4 3.4-7 4.6-10.6.2-.6.4-1.2.5-1.7 1.3-4.2 2.1-8.5 2.6-12.9v-.8l.7.4 69.1 35-.7.5c-8.3 5.3-27 17-57 35.9l-31.7 19.9c-15.8 9.9-31.4 19.7-34.9 21.9-7.4 4.7-11.5 10.9-11.5 17.5V407zm-60.8-32.1c1.2 1.8 3.2 3 6.2 4.3 3.8 1.7 32.3 15.7 48.9 23.8l4.8 2.3v-13.7c0-6.9 4.2-13.4 12-18.3 3.4-2.2 19.1-12 34.9-21.9l31.7-19.9c29.2-18.3 47.6-29.9 56.3-35.4l-42.8-21.7.2-.5-.2.4-24.1-12.2c-.5 4.3-1.3 8.4-2.5 12.4l-.6 1.8c-1 3.1-2.3 6.2-3.8 9.2l12-7.5 16.9 8.6-47.5 29.7c.3 2.5.6 5 .8 7.4l53.7-33.6 17.2 8.8-55.1 34.5-15.6-7.5c0 1.2.2 2.4.2 3.7v.2c-.2.6-.7.9-1.3.8-.5 0-1-.5-1.1-.9-.2-3.9-.6-7.9-1-11.9l-6 3.8-5.3-2.5c-2.8 1.8-5.8 3.5-8.9 5.1l30.5 14.6-40 25-45.6-21.9c-2.5.4-7.5 1.1-13.6 2.2-8.7 1.6-12.3 9-12.3 12.6v12.7c0 1 0 1.9.2 2.7 6.8-.4 13.6-1.1 20.2-2 .4 0 .7.2 1 .3.4.3.7.7.7 1.2 0 .4-.2.8-.6 1 0 0-.2 0-.2.1h-.1c-6.5.9-13.3 1.6-20 2zm103.1-49.9 15.5 7.4 53.2-33.2-15.1-7.7zM233 288.2h-.5c-20 0-39.3-2.3-57.5-6.8-1.1-.3-2.1-.5-3.2-.8-17-4.4-32.3-10.6-45.3-18.3l-.4-.2.2-.4c5-12.8 11.1-25.4 18.1-37.7 8.4-14.6 18.1-28.3 28.6-40.7.6-.7 1.3-1.5 1.9-2.2 17-19.5 35.6-34.8 55.2-45.5.7-.4 1.4-.8 2.1-1.1l.7-.4v154.1zm-105.6-26.5c12.8 7.5 27.9 13.6 44.6 17.9 1.1.3 2.1.5 3.2.8 18 4.4 37.1 6.7 56.8 6.7V135.8c-.4.2-.9.5-1.3.7-19.5 10.7-38 25.9-54.9 45.3-.6.7-1.3 1.5-1.9 2.2-10.5 12.3-20.1 25.9-28.5 40.5-7 12.1-13 24.5-17.9 37.1zm104.9 156.1h-.1l.5-.9-.1.3.1-.3zl.2-.4z"/>
        <path d="M233 424.1h-.5c-3.7 0-7.5-.2-11.1-.5-1.1 0-2.1-.2-3.1-.3-20.2-2-39.4-8-57.1-17.8-2.5-1.4-5.1-2.9-7.5-4.5-16.1-10.2-29.9-23.2-41.1-38.7v-.2c-.8-5-1.3-10.3-1.6-15.7v-.9l.7.4c17.8 9.9 38.5 17.4 61.5 22.3h.3c.7.2 1.4.3 2 .5 18.2 3.7 37.4 5.5 57.1 5.6h.5v49.8zm-119.6-62.3c11.1 15.3 24.8 28.2 40.7 38.4 2.4 1.6 5 3.1 7.5 4.5 17.6 9.8 36.7 15.7 56.7 17.7 1 .1 2.1.2 3.1.3 3.4.3 7 .4 10.5.5v-5.5s-.1-.2-.1-.3v-.3h.1v-41.6c-19.5 0-38.6-2-56.8-5.6-.7-.1-1.4-.3-2-.4h-.2c-22.8-4.8-43.4-12.2-61.1-22 .3 5 .8 9.9 1.5 14.6z"/>
        <path d="M233 373.5h-.5c-20.4 0-40.3-2.1-59.2-6.1h-.2c-.7-.2-1.3-.3-2-.5-22.6-5-42.8-12.4-60-22.2h-.2v-2.1c-.3-11.6.7-23.8 2.9-36.2 0-.5.2-1 .3-1.5v-.6c1.8-8.8 4-17.8 6.8-26.8.2-.7.5-1.4.7-2.2 1.3-4.1 2.7-8.1 4.3-12.1l.2-.6.5.3c.6.4 1.3.7 1.9 1.1 11.9 6.8 25.6 12.3 40.6 16.4h.4c.9.3 1.8.6 2.7.8 19 4.9 39.4 7.4 60.6 7.5h.5v84.8zM111.8 344c17.1 9.7 37.1 17.1 59.5 22 .7.1 1.3.3 2 .4h.2c18.7 4 38.4 6 58.5 6.1v-82.8c-21.1 0-41.3-2.6-60.3-7.5-1-.3-2-.5-3-.8h-.4c-14.9-4.2-28.5-9.7-40.4-16.5-.5-.3-.9-.5-1.4-.8-1.4 3.8-2.8 7.6-4 11.4-.2.8-.5 1.6-.7 2.3-2.8 8.9-5.1 17.9-6.7 26.7v.6c-.2.5-.3 1-.4 1.5-2.2 12.4-3.2 24.5-2.9 36zm205.6 79.1c-.4-.2-.9-.4-1.2-.6q-.75-.45-1.2-1.2l-.4-.5 1.3-.4.2.3c.5.6 1.1 1.2 1.9 1.7l-.5.9zm-43.5-50.6-.5-.8h1.1c0 .2 0 .4-.2.6-.1.2-.3.3-.4.4z"/>
        <path d="M233.2 447.5c-.7 0-1.2-.5-1.2-1.2v-10.1c-16.5 0-32.6-1.5-48-4.4h-1.2c-12.8 0-24.5-3-34.7-9-1.1-.6-2.3-1.4-3.4-2.1-6.4-2.5-12.4-5.3-18-8.3-13.9-7.5-24.9-16.2-32.5-25.9-8-10.1-12-21-12-32.1s.1-4.1.4-6.2c-4-5.5-7.6-11.3-10.7-17.2-9.2-17.6-13.9-36.3-13.9-55.6s4.6-38 13.8-55.6c3.5-6.6 7.6-13.1 12.2-19.2.8-10.2 4.7-20.2 11.7-29.6 7.6-10.2 18.4-19.3 32.1-27.1 1-.6 2-1.1 3.1-1.7 4.9-5.8 10.7-10.6 17.1-14.3 12.2-7.1 26.4-10 42-8.6 3.7.3 7.6.9 11.5 1.7 9.9-1.2 20.2-1.9 30.4-1.9v-14.7c0-.7.5-1.2 1.2-1.2s1.2.5 1.2 1.2V119c10.3 0 20.5.7 30.4 1.9 3.9-.8 7.7-1.4 11.5-1.7 15.6-1.3 29.8 1.6 42 8.6 6.4 3.7 12.2 8.5 17.1 14.3 1 .6 2.1 1.1 3.1 1.7 13.7 7.8 24.6 16.9 32.1 27.1 7 9.4 10.9 19.3 11.7 29.6 4.6 6.1 8.7 12.6 12.2 19.2 9 17.4 13.7 35.8 13.8 54.9l.4.2-1.4 1.1v-.7l-2.4-1.2v-2c0-.5 0-1-.1-1.5v-.3c0-.5 0-1-.1-1.4v-.5c-.1-.4-.2-.8-.2-1.2v-.5c-.1-.3-.2-.6-.2-1v-.8c-.2-.4-.3-.8-.4-1.1v-.6c0-.3-.1-.6-.2-.9l-.2-.8c0-.4-.2-.7-.3-1.1v-.2c0-.1-.1-.3-.2-.4-.1-.4-.2-.7-.3-1.1l-.2-.6c-.1-.3-.2-.7-.3-1l-.2-.6c-.1-.3-.2-.7-.4-1 0-.2-.2-.4-.2-.7-.1-.3-.3-.7-.4-1l-1-2.3c-.1-.3-.3-.6-.4-1l-.3-.7c-.1-.3-.3-.6-.4-.8l-.9-1.7c-.1-.2-.3-.5-.4-.7-.2-.3-.3-.6-.5-.9l-.4-.7c-.2-.3-.3-.5-.5-.8s-.3-.4-.4-.6l-1.6-2.6c-.1-.2-.2-.3-.3-.5l-3-4.1c-.1-.2-.2-.3-.4-.5l-.4-.4c-.2-.2-.3-.4-.5-.6s-.3-.4-.5-.6v-.2c-.3-.3-.6-.5-.8-.8s-.4-.5-.7-.8l-.6-.7c-.2-.3-.5-.5-.7-.8l-1.4-1.5c-.2-.2-.4-.4-.6-.7l-.6-.6-1.8-1.8-.5-.5c-.3-.3-.7-.6-1-1l-.5-.5c-.3-.3-.7-.6-1-.9-1 2.5-2.2 4.9-3.6 7.4-1.3 2.3-2.8 4.6-4.4 6.7-4.9 6.6-11.4 12.9-19.1 18.6-.6.4-1.2.9-1.8 1.3-2.5 1.7-5.1 3.5-7.8 5.1 1.3 3.4 2.5 6.8 3.6 10.1.3.8.5 1.5.8 2.3 3.3 10.1 5.8 20.3 7.6 30.2.1.7.2 1.4.4 2.1l.6 3.6c.2 1.6.5 3.2.7 4.7.4 2.8.7 5.7.9 8.6v.5c.2 1.5.3 3 .4 4.5v.2c-.2.6-.7.9-1.3.8-.5 0-1-.4-1.1-.9-.2-4.1-.6-8.4-1.1-12.7l-.6-4.5q-.45-3-.9-5.7l-.3-1.8v-.3c-1.7-8.8-4-17.8-6.8-26.7-.2-.6-.4-1.3-.6-1.9v-.3c-1.3-3.8-2.7-7.6-4.1-11.4-.5.3-.9.5-1.4.8-12 6.8-25.7 12.4-40.8 16.5-1 .3-2 .5-3 .8-19 4.9-39.2 7.4-60.3 7.5v82.8c5.9 0 11.8-.2 17.6-.6 6.9-.4 13.9-1.1 20.6-2 .4 0 .8.2 1 .3.4.3.7.7.7 1.2 0 .4-.2.8-.6 1 0 0-.2 0-.2.1h-.1c-6.8.9-13.8 1.6-20.8 2.1q-9.15.6-18.3.6v58.4c12.7 0 25.3-1 37.4-2.7-8.8-1.2-17.9-3.7-27-7.4l-2-.8 2.1-.2c1 0 2.1-.2 3.1-.3h.2c9.7 3.7 19.2 5.9 28.3 6.7l5.1.3c11.8-2.2 23.1-5.2 33.5-8.9h.4c0-.1.2.2.2.2.3.4.6.7 1 1 .3.2.6.4 1 .5h.2s0 .1.1.2l.5.5-.6.3c-10.5 6-22.5 8.9-35.6 8.7-15.3 2.8-31.5 4.3-47.9 4.4V446c0 .7-.5 1.2-1.2 1.2zm-49.1-16.7c15.5 2.9 31.8 4.4 48.3 4.4h.5v11.1c0 .2.4.2.4 0v-11.1h.5c16.6 0 32.8-1.5 48.3-4.4h1.4c12 0 23.1-2.7 33-8.1-.1 0-.3-.2-.4-.2-.4-.3-.7-.6-1-.9-10.4 3.7-21.6 6.6-33.4 8.8-1.7 0-3.5-.1-5.2-.3-9.2-.8-18.7-3-28.4-6.7h-.9c9.7 3.8 19.3 6.1 28.5 7l4 .4-3.9.6c-13.5 2.1-27.6 3.3-41.8 3.3h-.5v-60.4h.5c6.2 0 12.5-.2 18.7-.6 7-.4 13.9-1.1 20.7-2 0 0 .1 0 .1-.2 0 0 0-.2-.2-.3-.1 0-.3-.2-.6-.2-6.7.9-13.7 1.6-20.6 2-6 .4-12.1.6-18.2.6h-.5v-84.8h.5c21.2 0 41.5-2.6 60.6-7.5 1-.3 2-.5 3-.8 15-4.1 28.6-9.6 40.6-16.4.6-.4 1.3-.7 1.9-1.1l.5-.3.2.6c1.5 4 3 8 4.3 12v.3c.3.6.5 1.3.7 1.9 2.8 9 5.1 18 6.7 26.8v.3c.2.6.3 1.2.4 1.8q.45 2.7.9 5.7l.6 4.5c.5 4.3.9 8.6 1.1 12.7 0 0 .2.1.3 0 0-1.5-.2-2.9-.3-4.4v-.5c-.3-2.9-.6-5.7-.9-8.5-.2-1.6-.4-3.1-.7-4.7-.2-1.2-.4-2.4-.6-3.5-.1-.7-.2-1.4-.4-2.1-1.8-9.9-4.3-20-7.6-30.1-.2-.8-.5-1.5-.7-2.3-1.1-3.4-2.4-6.9-3.7-10.4l-.2-.4.4-.2c2.8-1.7 5.5-3.5 8.1-5.3.6-.4 1.2-.8 1.7-1.3 7.6-5.7 14-11.8 18.9-18.4 1.6-2.1 3-4.3 4.4-6.6 1.5-2.6 2.8-5.3 3.8-7.9l.3-.7.5.5c.5.5 1.1.9 1.6 1.4l.5.5c.3.3.7.6 1 1 .2.2.4.3.5.5l1.8 1.8.6.6c.2.2.4.5.6.7l1.4 1.5c.2.3.5.5.7.8l.6.7c.2.3.4.5.7.8.2.3.4.5.6.8v.2q.45.3.6.6c.2.2.3.4.5.6l.4.4c.1.2.3.3.4.5l3 4.2c.1.2.2.3.4.5.1.2.2.3.3.5l1.3 2.1c.1.2.2.4.4.6.2.3.4.6.5.9l.4.7c.2.3.3.6.5.9.1.2.3.5.4.7l.8 1.6c.2.4.3.7.5.9l.3.7c.1.3.3.6.4 1l1 2.3c.1.3.3.7.4 1 0 .2.2.5.2.7.1.3.2.7.4 1l.2.7c.1.4.2.7.3 1l.2.6c.1.4.2.7.3 1.1 0 .1 0 .3.1.4v.2c.2.4.2.7.3 1.1l.2.8c0 .3.1.6.2.9 0 .2 0 .3.1.5 0 .5.2.9.2 1.3v.8c.2.3.2.6.3 1v.5c.1.4.2.8.2 1.2v.5c.1.4.2.9.2 1.3v.4c0 .5.1.9.1 1.4v1.5l1.4.7c-.2-18.7-4.8-36.8-13.7-53.9-3.5-6.6-7.5-13.1-12.2-19.2v-.3c-.8-10.1-4.6-19.9-11.5-29.2-7.5-10-18.2-19.1-31.8-26.8-1-.6-2.1-1.2-3.1-1.7h-.1c-4.9-5.8-10.6-10.6-16.9-14.2-12-7-26-9.8-41.4-8.5-3.8.3-7.6.9-11.5 1.7-10.1-1.2-20.5-1.9-30.9-1.9h-.5v-15.7c0-.2-.4-.2-.4 0V120h-.5c-10.4 0-20.8.7-30.9 1.9-3.9-.8-7.7-1.4-11.5-1.7-15.4-1.3-29.3 1.6-41.4 8.5-6.4 3.7-12.1 8.4-16.9 14.1h-.1c-1 .7-2.1 1.2-3.1 1.8-13.6 7.7-24.3 16.8-31.8 26.8-6.9 9.3-10.8 19.1-11.5 29.2v.3c-4.6 6.1-8.7 12.6-12.2 19.2-9.1 17.5-13.7 36-13.7 55.2s4.6 37.7 13.7 55.2c3.1 5.9 6.7 11.7 10.7 17.3v.2c.1 0 0 .2 0 .2-.3 2.1-.4 4.2-.4 6.2 0 10.9 4 21.5 11.8 31.5 7.6 9.6 18.4 18.2 32.2 25.7 5.5 3 11.5 5.7 17.9 8.2 1.2.8 2.3 1.5 3.4 2.2 10.5 6 22.5 9 35.5 8.8zm48.9 3.9h-.5c-14.2 0-28.3-1.1-41.8-3.3l-3.9-.6 3.9-.4c9.2-.9 18.8-3.2 28.5-7h-.9c-9.7 3.7-19.3 6-28.4 6.7-1.7.1-3.5.2-5.2.3-14.2-2.6-27.5-6.4-39.6-11.1-10.1-6.9-18.2-16.7-24-29-1.1-2.5-2.2-5-3.2-7.7l-.6-1.5 1.3.9c11.3 8.1 23.9 14.9 37.3 20.4-.7-.4-1.4-.9-2.1-1.3-13.2-5.5-25.5-12.4-36.6-20.6h-.1v-.2c-1.9-5.7-3.4-11.8-4.4-18.1-.8-5-1.3-10.3-1.6-15.7v-.9l.7.4c17.8 9.9 38.5 17.4 61.6 22.3.8.2 1.5.3 2.3.5 18.2 3.7 37.4 5.5 57.1 5.6h.5v60.4zm-38.4-3.7c12.2 1.7 24.7 2.7 37.4 2.7v-58.4c-19.5 0-38.6-2-56.8-5.6-.8-.2-1.5-.3-2.3-.5-22.9-4.8-43.4-12.2-61.1-22q.45 7.65 1.5 14.7c1 6.3 2.5 12.3 4.3 17.8 11 8 23.2 14.9 36.3 20.4 2.6 1.6 5.1 3.1 7.6 4.5l-.4.9c-15.2-5.6-29.4-12.9-42.1-21.8.8 2.1 1.7 4.1 2.6 6.1 5.7 12.2 13.7 21.8 23.6 28.5 12 4.7 25.3 8.4 39.3 11q2.55 0 5.1-.3c9.1-.8 18.6-3 28.3-6.7h.2c1 .1 2.1.2 3.1.3l2.1.2-2 .8c-9.2 3.7-18.3 6.2-27 7.4zm96.4-1-.2-1c7.9-1.8 15.6-3.9 22.8-6.4l.4.9c-7.1 3.5-14.8 5.7-23 6.5m-115.5 0c-8.2-.8-16-3-23-6.5l.4-.9c7.2 2.5 14.9 4.6 22.8 6.4zM143 418.5l-3.3-1.4c-35.6-15.3-56.1-38.2-56.1-62.6 0-1.5 0-3.1.2-4.7v-1.3c.1 0 .9 1 .9 1 7.1 9.4 15.6 18.2 25.3 26.1 2 1.7 4.2 3.3 6.4 4.9h.1v.2q1.8 5.1 3.9 9.6c5 10.5 11.6 19.2 19.7 25.8l2.8 2.3zm-58.3-67.3c0 1.1-.1 2.2-.1 3.3 0 23.3 19 45.2 52.4 60.3q-10.65-9.6-17.4-24-2.1-4.5-3.9-9.6c-2.2-1.6-4.3-3.2-6.3-4.9-9.4-7.7-17.7-16.1-24.7-25.2zm31.6 28.7-1.2-.9c-1.8-1.3-3.3-2.6-4.8-3.7-10.1-8.2-18.9-17.3-26.1-27.1v-.2c-.1 0 0-.2 0-.2.8-5.4 2.7-10.8 5.5-16l.3-.5.5.4c2.8 2.3 5.9 4.6 9.1 6.8 3.4 2.3 7 4.6 10.6 6.7h.2v.4c.2 4.7.6 9.4 1.2 13.9.9 6.7 2.4 13.1 4.2 19.1l.5 1.5zm-31.2-32.2c7.2 9.7 15.9 18.7 25.8 26.8 1.1.9 2.2 1.8 3.5 2.8-1.7-5.6-2.9-11.5-3.8-17.7-.6-4.4-1-9-1.2-13.7q-5.4-3.15-10.5-6.6c-3.1-2.1-6-4.3-8.7-6.5-2.6 4.9-4.3 9.9-5.1 14.9m147.4 25.8c-20.3 0-40.3-2.1-59.2-6.1-.8-.2-1.5-.3-2.2-.5-22.6-5-42.8-12.4-60-22.2h-.2v-2.1c-.3-11.6.7-23.8 2.9-36.2 0-.5.2-1 .3-1.6v-.5c1.7-8.8 4-17.8 6.8-26.8.2-.8.5-1.5.7-2.3 1.3-4 2.7-8 4.3-12l.2-.6.5.3c.6.4 1.3.7 1.9 1.1 11.9 6.8 25.6 12.3 40.6 16.4 1 .3 2 .5 3 .8 19 4.9 39.4 7.4 60.6 7.5h.5v84.8zM111.8 344c17.1 9.7 37.1 17.1 59.5 22 .7.2 1.5.3 2.2.5 18.7 3.9 38.4 6 58.5 6.1v-82.8c-21.1 0-41.3-2.6-60.3-7.5-1-.3-2-.5-3-.8-15.1-4.1-28.8-9.7-40.8-16.5-.5-.3-.9-.5-1.4-.8-1.4 3.8-2.8 7.6-4 11.4-.2.8-.5 1.5-.7 2.3-2.8 8.9-5.1 17.9-6.7 26.7v.5c-.2.5-.3 1-.4 1.5-2.2 12.4-3.2 24.5-2.9 36zm-28.1 3.4-.7-1c-3.3-4.6-6.3-9.4-8.9-14.3l-.9-1.8C66.3 317 62 303 60.3 288.7l1-.2c2 8.7 6.1 17.3 12.2 25.4 4.3 5.8 9.7 11.5 15.9 16.7l.3.3-.2.4c-2.7 4.9-4.6 9.9-5.5 15l-.2 1.2zm-10-18 .3.5c2.7 5.1 5.7 10.2 9.1 15 1-4.7 2.7-9.3 5.2-13.8-6.1-5.2-11.4-10.8-15.7-16.6-4.6-6.1-8-12.5-10.3-19 2.1 11.6 5.9 23 11.5 33.8zm36.7 14.9-.8-.5c-4.3-2.5-8.3-5.1-12.1-7.8-2.3-1.7-4.6-3.4-6.8-5.2l-.3-.3.2-.4c.8-1.4 1.8-2.8 2.7-4.2 0-.2-.1-.4-.2-.6-1 1.4-2 2.9-2.8 4.3l-.3.5-.5-.4c-19-16.2-29.1-35-29.1-54.5s9.1-36.8 27.2-52.8l.5-.5.3.7c1 2.6 2.3 5.3 3.8 7.9 1.3 2.3 2.8 4.5 4.4 6.6 4.9 6.6 11.2 12.8 18.9 18.4.6.4 1.2.8 1.7 1.3 2.6 1.8 5.3 3.6 8.1 5.3l.4.2v.4c-1.5 3.5-2.8 7-3.9 10.4-.3.8-.5 1.5-.7 2.3-3.3 10.1-5.8 20.2-7.6 30.1-.1.6-.2 1.3-.3 1.9v.2c-2.1 12-3 23.7-2.7 34.9v1.7zm-18.7-14c2.1 1.7 4.2 3.3 6.4 4.9 3.5 2.5 7.3 5 11.3 7.3-.2-11.2.7-22.9 2.7-34.9v-.2c.1-.6.3-1.3.4-1.9 1.8-9.9 4.4-20.1 7.6-30.2.2-.8.5-1.5.8-2.3 1.1-3.3 2.3-6.6 3.6-10.1-2.7-1.6-5.3-3.4-7.8-5.1-.6-.4-1.2-.9-1.8-1.3-7.7-5.7-14.1-12-19.1-18.6-1.6-2.2-3.1-4.4-4.4-6.7-1.4-2.4-2.6-4.9-3.6-7.4-17.4 15.7-26.3 33-26.3 51.6s9.8 37.5 28.3 53.3c1-1.6 2-3.1 3.1-4.7l.6-.8.3.9c.2.6.4 1.1.6 1.7v.4c-.9 1.3-1.8 2.6-2.6 4zm141.7-42.1v-154l.7.4c.7.4 1.4.7 2.1 1.1 19.6 10.7 38.2 26.1 55.2 45.5.6.7 1.3 1.5 1.9 2.2 10.5 12.3 20.2 26 28.6 40.7 7.1 12.2 13.2 24.9 18.1 37.7l.2.4-.4.2c-13 7.7-28.2 13.8-45.3 18.3-1.1.3-2.1.5-3.2.8-18.2 4.4-37.6 6.7-57.5 6.8h-.5zm1-152.4v151.4c19.7 0 38.8-2.4 56.8-6.7 1.1-.3 2.1-.5 3.2-.8 16.8-4.4 31.8-10.4 44.6-17.9-4.9-12.6-11-25.1-17.9-37.1-8.4-14.6-18-28.2-28.5-40.5-.6-.7-1.3-1.5-1.9-2.2-17-19.4-35.4-34.6-54.9-45.3-.4-.2-.9-.5-1.3-.7zM233 288.2h-.5c-20 0-39.3-2.3-57.5-6.8-1.1-.3-2.1-.5-3.2-.8-17-4.4-32.3-10.6-45.3-18.3l-.4-.2.2-.4c5-12.8 11.1-25.4 18.1-37.7 8.4-14.6 18.1-28.3 28.6-40.7.6-.7 1.3-1.5 1.9-2.2 17-19.5 35.6-34.8 55.2-45.5.7-.4 1.4-.8 2.1-1.1l.7-.4v154.1zm-105.6-26.5c12.9 7.6 27.9 13.6 44.7 17.9 1.1.3 2.1.5 3.2.8 18 4.4 37.1 6.7 56.8 6.7V135.8c-.4.2-.9.5-1.3.7-19.5 10.7-38 25.9-54.9 45.3-.6.7-1.3 1.5-1.9 2.2-10.5 12.3-20.1 25.9-28.5 40.5-7 12.1-13 24.5-17.9 37.1zm-66.2.5-1-.2c1.6-14.4 6-28.4 12.9-41.6 3.1-6 6.8-11.9 10.9-17.5l.9-1.3v2.8c0 5.6 1 11.2 2.9 16.6v.3c.1 0-.1.2-.1.2-5.5 4.8-10.3 10-14.2 15.3-6 8.1-10.1 16.7-12.2 25.4zm22.7-57.5c-3.7 5.2-7 10.6-9.9 16.1-5.7 11-9.7 22.5-11.8 34.4 2.3-6.5 5.8-12.9 10.3-19 3.9-5.3 8.7-10.4 14.1-15.2-1.8-5.3-2.8-10.8-2.8-16.2zm321.3 57.5c-2-8.7-6.1-17.3-12.2-25.4l-.4-.5c-3.9-5.1-8.5-10.1-13.8-14.8l-.3-.2v-.3c2-5.4 3-11 3-16.6v-2.8l.9 1.3c4.1 5.6 7.8 11.5 10.9 17.5 6.9 13.3 11.2 27.3 12.9 41.6zM394.5 237c4.3 5.9 7.5 12 9.8 18.2-2.1-11.8-6-23.3-11.8-34.4-2.9-5.5-6.2-10.9-9.9-16.1 0 5.5-1 10.9-2.8 16.2 5.4 4.8 10.2 9.9 14.1 15.2l.6.8zm-53.8 24.9-.2-.6c-5-12.7-11-25.3-18.1-37.5a270.3 270.3 0 0 0-27.5-39.3c-.6-.8-1.3-1.5-1.9-2.2-17.1-19.9-36.7-36.2-56.5-47l-.6-.3-1.8-1h2.1c22.5.3 44.2 4.1 64.8 11.1 3.9 1.3 7.9 2.9 11.9 4.5 13.2 5.5 25.6 12.5 36.7 20.6h.1v.2c1.9 5.6 3.4 11.7 4.4 18 .2.2.4.5.5.7-.9-6-2.2-11.7-3.9-17l-.5-1.5 1.2.9c1.8 1.3 3.3 2.6 4.8 3.7 9.4 7.7 17.8 16.2 24.7 25.3v.3c0 1.1.1 2.3.1 3.4 0 5.2-.9 10.4-2.5 15.5l.4.3-1.8.8.3-.7c-2.8-2.4-5.8-4.7-8.9-6.9.2.5.4 1 .6 1.4 3 2.2 5.9 4.4 8.5 6.7l.3.2v.3c-1 2.4-2.1 4.8-3.4 7.1-4.9 9-12.4 17.4-22.3 25-.6.4-1.1.9-1.7 1.3-2.9 2.1-6 4.2-9.2 6.2l-.5.3zM238.1 135.1c19.5 10.9 38.8 27 55.6 46.6.6.7 1.3 1.5 1.9 2.2 10.2 12.1 19.4 25.3 27.6 39.5 6.9 12 13 24.5 17.9 37.1 3-1.8 5.9-3.8 8.7-5.8.6-.4 1.2-.9 1.7-1.3 9.8-7.5 17.2-15.8 22.1-24.7 1.2-2.2 2.2-4.4 3.1-6.7-2.6-2.2-5.4-4.4-8.3-6.5h-.1v-.2c-.5-1.1-1-2.2-1.5-3.2l-.8-1.7 1.5 1c3.6 2.5 7.1 5.1 10.2 7.8 1.6-4.9 2.4-9.8 2.4-14.8s0-2.1-.1-3.2c-6.9-9-15.1-17.4-24.5-25-1.1-.9-2.2-1.8-3.5-2.8 1.7 5.6 2.9 11.5 3.8 17.7l.3 2.1-1.2-1.7c-.6-.9-1.2-1.7-1.8-2.5v-.2c-1-6.3-2.5-12.3-4.3-17.8-11-8-23.2-14.9-36.3-20.4-3.9-1.6-7.9-3.2-11.8-4.5-19.8-6.8-40.8-10.5-62.4-11zM125.8 261.9l-.5-.3c-3.2-2-6.3-4-9.2-6.2-.6-.4-1.2-.9-1.7-1.3-9.9-7.6-17.4-16-22.3-25-1.3-2.4-2.4-4.8-3.3-7.1v-.3c-.1 0 .1-.2.1-.2 2.7-2.3 5.5-4.6 8.6-6.7.2-.5.4-1 .6-1.4-3.3 2.3-6.4 4.7-9.2 7.1l-.6.5-.2-.7c-1.8-5.2-2.6-10.5-2.6-15.8s0-2.3.1-3.4v-.7l.4.1c6.9-9 15.2-17.4 24.5-25 1.4-1.1 2.9-2.3 4.8-3.7l1.2-.9-.5 1.5c-1.7 5.3-3 11-3.9 17 .2-.2.3-.5.5-.7 1-6.3 2.5-12.4 4.4-18v-.2h.2c11.1-8.1 23.4-15.1 36.7-20.6 3.9-1.6 7.9-3.2 11.9-4.5 20.5-7.1 42.3-10.8 64.8-11.1h2l-2.3 1.3c-19.8 10.9-39.4 27.1-56.5 47-.6.7-1.3 1.5-1.9 2.2a270.3 270.3 0 0 0-27.5 39.3c-7 12.2-13.1 24.8-18.1 37.5l-.2.6zM89.7 222c.9 2.2 1.9 4.5 3.1 6.7 4.8 8.9 12.3 17.2 22.1 24.7.6.4 1.1.9 1.7 1.3 2.7 2 5.6 4 8.7 5.8 4.9-12.6 11-25 17.9-37.1 8.2-14.1 17.4-27.4 27.6-39.5.6-.8 1.3-1.5 1.9-2.2 16.9-19.6 36.1-35.7 55.6-46.6-21.6.5-42.6 4.2-62.4 11-3.9 1.4-7.9 2.9-11.8 4.5-13.1 5.5-25.3 12.3-36.3 20.4-1.9 5.5-3.3 11.5-4.3 17.8v.2c-.6.8-1.2 1.7-1.8 2.5l-1.2 1.7.3-2.1c.9-6.2 2.1-12.2 3.8-17.7-1.3 1-2.4 1.9-3.5 2.8-9.3 7.6-17.6 16-24.5 25 0 1-.1 2.1-.1 3.1 0 5 .8 10 2.4 14.8 3.1-2.6 6.6-5.3 10.2-7.8l1.5-1.1-.8 1.7c-.5 1.1-1 2.1-1.5 3.2 0 .1-.1.2-.1.2-2.9 2.1-5.7 4.3-8.3 6.5zm-4.2-21.9.2-1.8c2.5-20 17.7-38.9 42.7-53.1l.2.4.4.3c-3.3 4.3-6.2 9.1-8.6 14.4q-2.1 4.5-3.9 9.6c0 .1-.1.2-.1.2-2.2 1.6-4.3 3.3-6.4 4.9-8.8 7.2-16.7 15.1-23.4 23.6l-1.1 1.4zm41.4-52.8c-22.8 13.5-36.8 30.9-39.9 49.4 6.5-8 14-15.5 22.4-22.3 2-1.6 4.1-3.3 6.3-4.9 1.1-3.3 2.4-6.6 3.9-9.6 2.1-4.5 4.6-8.8 7.3-12.6m253 51.5-.2-.2c-6.7-8.4-14.5-16.3-23.3-23.5-2.1-1.7-4.2-3.3-6.4-4.9h-.1v-.2q-1.8-5.1-3.9-9.6c-2.5-5.2-5.4-10.1-8.6-14.4l-1.2-1.6h-.6c3.9 4.7 7.2 10.2 10 16.1 1.1 2.4 2.2 5 3.2 7.7l.6 1.5-1.3-.9c-12.9-9.3-27.5-16.9-43.1-22.6-1.3-.5-2.6-.9-3.8-1.4-20.6-7.1-42.4-10.8-64.9-11.1h-2.1l1.9-.9c4-2 8.1-3.8 12.1-5.3 5.6-2.1 11.2-3.8 16.6-5 26.2 3.2 50.4 10.5 70 21l1.1.6.6.3 1.5.9c25 14.3 40.2 33.1 42.7 53.1h-.4zm-29.2-29.3c2.2 1.6 4.3 3.2 6.3 4.9 8.4 6.8 15.9 14.3 22.4 22.3-3-18.5-17.1-35.9-39.9-49.4 2.7 3.8 5.2 8.1 7.3 12.6q2.1 4.5 3.9 9.6m-112.5-36.8c21.9.5 43.1 4.2 63.1 11.1 1.3.4 2.6.9 3.9 1.4 15.2 5.6 29.4 12.9 42.1 21.8-.8-2.1-1.7-4.1-2.6-6.1-2.9-6.2-6.5-11.8-10.5-16.7-19.5-10.4-43.5-17.6-69.5-20.8-5.3 1.1-10.8 2.8-16.4 4.9-3.3 1.3-6.7 2.7-10.1 4.3zm-121.1 37 .6-1.5c1-2.6 2-5.2 3.2-7.7 2.8-6 6.2-11.4 10-16.1h-.9l1.8-.9c19.6-10.5 43.8-17.8 70-21 5.4 1.2 11 2.8 16.6 5 4 1.5 8.1 3.3 12.1 5.3l1.9.9h-2.1c-22.5.3-44.3 4.1-64.9 11.1-1.3.4-2.6.9-3.8 1.4-15.7 5.8-30.2 13.4-43.1 22.6l-1.3.9zm15.2-25.4c-4.1 4.8-7.6 10.5-10.5 16.7-.9 1.9-1.8 4-2.6 6.1 12.7-8.9 26.8-16.2 42.1-21.8 1.3-.5 2.6-.9 3.9-1.4 20-6.9 41.3-10.6 63.1-11.1-3.4-1.6-6.7-3.1-10.1-4.3-5.5-2.1-11-3.8-16.4-4.9-26 3.2-50 10.4-69.5 20.8zm201.7-1.9-2.6-1.3c-17.8-8.9-39.2-15.4-62-18.6l-3.2-.5 3.2-.5q3.6-.6 7.2-.9c15.3-1.3 29.2 1.5 41.2 8.5 5.2 3 10 6.8 14.3 11.2l2 2.1zM272.8 122c20.5 3.2 39.8 9 56.3 16.9-3.6-3.5-7.6-6.5-11.9-8.9-11.8-6.8-25.4-9.6-40.6-8.3-1.2.1-2.5.2-3.8.4zm-140.3 20.4 2-2.1c4.2-4.4 9.1-8.2 14.3-11.2l.8-.4c9.9-5.5 21.1-8.3 33.3-8.3s4.7.1 7.1.3q3.6.3 7.2.9l3.2.5-3.2.5c-22.8 3.2-44.3 9.7-62 18.6l-2.6 1.3zm16.2-12.1c-4.1 2.4-7.9 5.3-11.4 8.6 16.4-7.9 35.7-13.7 56.3-16.9-1.3-.2-2.5-.3-3.8-.4-2.4-.2-4.7-.3-7-.3-12.3 0-23.6 2.9-33.5 8.6l-.5.3zm84.3 3.2-.7-.4c-3.7-1.9-7.4-3.6-11-5.1-5.2-2.1-10.4-3.8-15.4-5.1l-2.7-.7 2.8-.3c8.7-.9 17.7-1.4 26.6-1.4h.5v13zm-24.3-10.8q6.45 1.8 12.9 4.5c3.4 1.4 6.9 3 10.4 4.7v-10.3c-7.8 0-15.6.4-23.3 1.2zm24.7 10.8v-13h.5c8.9 0 17.9.5 26.6 1.4l2.8.3-2.7.7c-5 1.3-10.2 3-15.4 5.1-3.6 1.5-7.4 3.2-11 5.1l-.7.4zm1-6.4v4.7c3.5-1.7 7-3.3 10.4-4.7 4.3-1.8 8.7-3.3 12.9-4.5-7.7-.7-15.5-1.1-23.3-1.2z"/>
        <path d="m386.2 231.2-.7-.7.8-.7.6.7zm18.4 37.3c0-.4-.1-.7-.2-1.1 0-.1 1-.3 1-.3 0 .5.1.9.2 1.2h-1zm-17.1-35.8-.6-.7.7-.7c.2.2.4.5.6.7l-.8.7zm1.3 1.5-.6-.8.8-.6c.2.2.4.4.6.7 0 .1-.8.7-.8.7m13.5 24c-.1-.3-.2-.7-.3-1l.9-.3c.1.3.2.7.3 1.1l-1 .3zm-20.5-31.5-.6-.6.7-.7c.2.1.3.3.4.4l.2.2zm23.1 45.3c0-.5 0-.9-.1-1.4h1c0 .4 0 .8.1 1.3h-1zm.1 1.7v-1.5h1v1.5zm-1.7-12.1c0-.3-.2-.6-.2-.9v-.2l.9-.3v.2l.3.9-1 .2zm-.5-1.7c-.1-.4-.2-.7-.3-1.1l1-.3c.1.4.2.7.3 1.1zm-19.5-31.7-.2-.3c-.1-.1-.2-.3-.4-.4l.7-.7.5.5h.1c0 .1-.7.8-.7.8zm1.5 1.5-.6-.7.7-.7c.2.2.4.5.6.7zm-4.6-4.5-.5-.5.7-.7.5.4zm16.3 19.9c-.2-.3-.3-.6-.5-.9l.9-.5c.2.3.4.6.5.9zm3.3 6.5-.4-1 .9-.4c.1.3.3.6.4 1zM404 265c0-.4-.2-.8-.2-1.1l1-.2c0 .4.2.8.2 1.2l-1 .2zm-8.5-21.5c-.2-.4-.3-.6-.5-.9l.8-.5c.2.3.3.5.5.8zm2.7 4.8-.4-.9.9-.5c.2.3.3.6.5.9l-.9.5zm.4-1.3-.4.2h.1l.2-.2zm1.9 6.2v-.2c-.2-.3-.3-.5-.4-.8l.9-.4c.1.3.3.7.4 1zm-1.5-3.3-.5-.9.9-.4c.1.3.3.6.4.8l-.9.5zm-1.6-3.2-.5-.9.9-.5c.2.3.3.6.5.9zm6.9 20.1c0-.3-.1-.7-.2-1v-.2l1-.2c0 .4.1.8.2 1.2zm-13.1-29.6-.6-.8.8-.6c.2.2.3.4.5.6v.2c.1 0-.6.6-.6.6zm12.5 26.1c0-.3-.1-.6-.2-.9v-.3l.9-.2v.3l.3.9zM390 235.7c-.2-.3-.3-.6-.5-.8l.8-.6c.2.2.4.4.5.7 0 .1-.8.7-.8.7m2.4 3.1-.6-.8.8-.6.6.8zm9.4 17.8-.4-1 .9-.3c.1.3.2.7.4 1zm-8.3-16.3-.6-.8.8-.6c.2.3.4.6.6.8zm11.3 29.9c0-.4 0-.8-.1-1.1v-.2l1-.1c0 .4.1.9.1 1.3h-1zm-3.6-15.3c-.1-.3-.3-.7-.4-1l.9-.4c.1.3.3.7.4 1zm-6.7-13-.2-.3c-.1-.2-.2-.4-.4-.6l.8-.6.6.9-.8.5z"/>
    </g>
    <defs>
        <clipPath id="a">
            <path fill="#fff" d="M58 103h421v345H58z"/>
        </clipPath>
    </defs>
</svg>
