<svg xmlns="http://www.w3.org/2000/svg" width="550" height="550" fill="none" viewBox="0 0 550 550">
    <path fill="#fff" d="m286.959 416.185-1.694-.247c-7.798-1.059-15.844-3.176-23.995-6.282l.176-.423v-.6c4.8-.494 9.669-1.2 14.398-2.152h.247c0-.036 10.868 9.704 10.868 9.704m-23.219-6.705c6.74 2.435 13.445 4.164 19.938 5.187l-7.905-7.057a171 171 0 0 1-12.033 1.905zm155.899-150.077-17.114-16.867-11.08-11.045v-.141a161 161 0 0 0-3.741-14.327l-.07-.212.106-.212a56 56 0 0 0 3.811-7.904l.282-.706.565.494c16.691 14.821 26.077 31.935 27.136 49.579l.07 1.376zm-16.055-17.291 14.82 14.574c-1.411-16.656-10.409-32.817-26.112-46.932a64 64 0 0 1-3.494 7.163c1.447 4.587 2.647 9.316 3.635 14.08z"/>
    <path fill="#fff" d="M295.181 416.75h-.071a89 89 0 0 1-5.258-.282c-.846-.071-1.729-.177-2.752-.283l-.635-.07 2.646-8.011 7.94 8.293-1.905.353zm-7.269-1.553c.741.071 1.411.141 2.046.212 1.659.141 3.317.247 4.976.282l-5.364-5.575-1.694 5.117z"/>
    <path fill="#fff" d="M247.225 421.09v-.529h-.529v-11.186h.529c3.705 0 7.446-.177 11.045-.459h.141l.106.035c10.41 4.235 20.714 6.846 30.559 7.764l4.164.388-4.129.67c-13.55 2.153-27.63 3.247-41.886 3.282zm.529-10.657v9.599c12.633-.071 25.16-.953 37.264-2.682-8.716-1.2-17.714-3.67-26.783-7.34-3.423.282-6.952.423-10.481.459zm61.78-6.658-3.51 10.137 1 .347 3.51-10.137zm-62.838-114.307v-14.68h4.94l-4.94 14.715zm1.058-13.621v7.128l2.4-7.164h-2.4zm145.067-42.98-9.528-9.528.283-.353a64 64 0 0 0 4.199-6.387l.988-1.729v1.906c1.447 4.658 2.717 9.492 3.705 14.362zm-8.116-9.598 6.387 6.351a152 152 0 0 0-2.999-11.468c-1.024 1.729-2.188 3.423-3.388 5.081z"/>
    <path fill="#fff" d="M246.696 410.469v-32.006l11.009 11.468 19.409 17.397-1.024.212a156 156 0 0 1-14.538 2.188c-1.165.105-2.188.211-3.141.282-3.705.282-7.445.459-11.151.459zm1.058-29.395v28.301c3.494 0 7.023-.177 10.516-.459.953-.071 1.976-.177 3.141-.282 4.481-.459 8.963-1.094 13.409-1.976l-18.032-16.197-8.998-9.422zM131.412 154.705h-.917l.247-.706c.952-2.646 2.046-5.222 3.176-7.692 2.964-6.352 6.598-12.033 10.762-16.973l.071-.071h.106c19.655-10.586 43.897-17.855 70.151-21.102h.176c5.399 1.165 11.01 2.823 16.621 4.976l2.082.811-2.223.212c-20.079 2.011-39.169 7.975-56.778 17.75h-.07c-15.703 5.787-30.242 13.409-43.227 22.689l-.142.106zm14.009-24.63c-4.058 4.834-7.622 10.48-10.515 16.691a76 76 0 0 0-2.541 5.998c12.703-8.857 26.818-16.196 42.027-21.772 17.079-9.457 35.535-15.385 54.907-17.608-4.834-1.729-9.633-3.141-14.256-4.129-26.042 3.211-50.108 10.445-69.587 20.855z"/>
    <path fill="#fff" d="m174.745 131.944-.424-.953c17.75-9.845 36.982-15.844 57.201-17.89h.247c3.988 1.517 8.046 3.317 12.069 5.293l1.976.988h-2.188c-22.514.317-44.392 4.058-65 11.151-1.164.388-2.399.846-3.846 1.376zm56.742-17.785c-17.644 1.765-34.546 6.634-50.355 14.433 19.196-6.281 39.416-9.704 60.235-10.163a130 130 0 0 0-9.88-4.235zm-86.066 14.151 2.117-2.223c4.27-4.446 9.069-8.222 14.327-11.257 10.092-5.822 21.596-8.787 34.123-8.787s4.764.106 7.128.318h.494c2.188.247 4.481.529 6.74.918l3.423.564-3.423.494c-22.866 3.247-44.357 9.669-62.141 18.632l-2.753 1.376zm50.602-21.208c-12.351 0-23.643 2.894-33.594 8.645a62.5 62.5 0 0 0-11.821 8.822c16.374-7.833 35.605-13.585 56.037-16.796-1.2-.142-2.4-.283-3.564-.389h-.494a68 68 0 0 0-6.564-.317zm-93.017 209.325-.459-.388c-18.808-15.95-29.148-35.358-29.148-54.625s9.422-37.122 27.242-52.931l.565-.494.282.706c1.024 2.647 2.329 5.293 3.811 7.904l.071.106v.318a147.4 147.4 0 0 0-6.81 44.391c0 15.139 2.787 33.206 8.257 48.873l.105.247-.176.212a64 64 0 0 0-3.388 5.082l-.317.529zm-2.294-106.638c-17.22 15.491-26.325 33.311-26.325 51.625 0 18.315 10.057 37.723 28.301 53.39a69 69 0 0 1 2.964-4.411c-5.469-15.703-8.222-32.182-8.222-48.979s2.258-30.135 6.74-44.497c-1.341-2.364-2.541-4.764-3.493-7.163zm11.363 113.59-1.588-1.129a123 123 0 0 1-6.811-5.258l-.353-.283.212-.388a63 63 0 0 1 2.894-4.446l.599-.812.353.953a147 147 0 0 0 3.882 9.598l.812 1.8zm-7.376-6.917c1.518 1.271 3.141 2.506 4.835 3.741-.988-2.294-1.906-4.623-2.788-6.916a54 54 0 0 0-2.047 3.175"/>
    <path fill="#fff" d="m123.437 330.578-.812-.494a150 150 0 0 1-12.139-7.869l-.105-.071-.071-.141a145 145 0 0 1-3.917-9.669c-.212-.599-.423-1.164-.6-1.693-5.54-15.774-8.328-32.359-8.328-49.226 0-16.868 2.294-30.277 6.811-44.709l.353-1.165.6 1.059a67 67 0 0 0 4.375 6.634c4.905 6.563 11.257 12.774 18.879 18.42l.635.458c.353.283.741.53 1.129.812 2.541 1.8 5.258 3.599 8.116 5.293l.389.212-.177.423a292 292 0 0 0-3.74 10.41c-.247.776-.494 1.517-.741 2.294a232 232 0 0 0-7.622 30.171c-.106.705-.247 1.376-.353 2.046v.071c-2.047 12.033-2.929 23.784-2.682 34.934zm-12.21-9.104a151 151 0 0 0 11.116 7.234c-.247-11.186.67-22.972 2.717-35.041v-.07c.141-.706.247-1.376.353-2.082 1.8-9.951 4.376-20.149 7.657-30.312.247-.776.494-1.517.741-2.294a272 272 0 0 1 3.6-10.057 149 149 0 0 1-7.799-5.116c-.6-.424-1.2-.847-1.764-1.271l-1.2-.882c-7.199-5.469-13.233-11.468-17.926-17.749a66 66 0 0 1-3.811-5.682c-4.27 13.974-6.422 28.513-6.422 43.263s2.787 33.205 8.257 48.873c.176.564.388 1.129.6 1.658a140 140 0 0 0 3.846 9.493zm135.469-47.144V119.877l.776.423a38 38 0 0 1 2.082 1.13c19.655 10.762 38.252 26.112 55.331 45.626.635.741 1.306 1.482 1.941 2.223 10.586 12.386 20.219 26.078 28.688 40.722a224 224 0 0 1 4.305 7.763l.353-.141-.247 2.576-.6-1.129-78.549 28.336-8.999 26.853h-.388c-1.552 0-2.929.036-4.199.036h-.529zm1.059-152.689v151.63c.988 0 2.082 0 3.246-.035l8.928-26.642.247-.071 78.62-28.371a252 252 0 0 0-4.234-7.586c-8.434-14.609-18.032-28.23-28.548-40.581-.635-.741-1.27-1.482-1.941-2.223-16.973-19.408-35.499-34.688-55.048-45.415-.424-.247-.882-.459-1.306-.706zM125.131 176.69l.353-2.188c1.023-6.387 2.505-12.492 4.411-18.173l.07-.177.141-.106c11.116-8.151 23.467-15.067 36.735-20.643l.494.953c-16.021 10.163-29.783 23.113-40.899 38.534zm5.716-19.867c-1.658 4.905-2.964 10.163-3.952 15.632 9.74-13.056 21.384-24.348 34.758-33.594-11.009 5.047-21.349 11.081-30.806 17.962"/>
    <path fill="#fff" d="m101.241 206.895-.247-.741a49.3 49.3 0 0 1-2.646-15.879c0-5.328.035-2.258.106-3.388v-.141l.105-.141c6.987-9.139 15.315-17.644 24.772-25.372 1.447-1.164 3-2.399 4.764-3.74l1.306-.988-.494 1.588c-1.871 5.963-3.317 12.386-4.235 19.09v.141l-.106.106a146 146 0 0 0-11.503 19.797h.882l-1.412.952a134 134 0 0 0-10.727 8.187l-.6.494zm-1.729-19.761a46 46 0 0 0-.106 3.141c0 4.975.777 9.951 2.365 14.821 3.105-2.612 6.528-5.188 10.092-7.658 3.387-7.092 7.34-13.974 11.821-20.466.847-6.14 2.117-12.033 3.776-17.574a117 117 0 0 0-3.423 2.718c-9.351 7.622-17.609 16.02-24.525 25.054zm6.034 29.077-.6-1.059a57 57 0 0 1-3.317-7.163v-.459l.177-.141c2.682-2.329 5.611-4.623 8.681-6.846l1.587-1.129-.811 1.8a146 146 0 0 0-5.364 13.832l-.388 1.165zm-2.752-8.257c.706 1.87 1.588 3.74 2.541 5.61a171 171 0 0 1 4.199-10.974 136 136 0 0 0-6.74 5.364"/>
    <path fill="#fff" d="m138.893 248.005-.53-.318c-3.246-1.976-6.351-4.022-9.28-6.175-.6-.423-1.165-.882-1.729-1.306-9.916-7.622-17.468-16.02-22.373-25.054l-.106-.211.071-.212a146 146 0 0 1 5.399-13.939l.459-1.023q.476-1.059 1.058-2.223a146 146 0 0 1 11.963-20.714c.529-.776 1.094-1.588 1.799-2.576a149.2 149.2 0 0 1 41.181-38.781h.07c3.953-1.693 7.975-3.211 11.892-4.587 20.573-7.093 42.416-10.833 64.929-11.115h2.188l-1.941.988c-.212.105-.388.211-.6.317-19.867 10.904-39.451 27.171-56.636 47.109-.635.741-1.27 1.482-1.906 2.258-10.127 12.033-19.408 25.301-27.524 39.381-7.022 12.174-13.127 24.842-18.102 37.581l-.212.6zm-32.888-33.17c4.869 8.822 12.244 17.044 21.984 24.525.564.423 1.129.882 1.729 1.305 2.717 2.012 5.646 3.952 8.645 5.787 4.94-12.597 10.975-25.089 17.962-37.122 8.151-14.15 17.467-27.454 27.63-39.557.635-.741 1.27-1.518 1.905-2.259 16.903-19.584 36.099-35.71 55.648-46.65-21.631.494-42.627 4.2-62.458 11.01-3.882 1.341-7.834 2.858-11.786 4.482-15.986 10.162-29.748 23.113-40.863 38.498a77 77 0 0 0-1.8 2.541 147.5 147.5 0 0 0-11.892 20.572c-.564 1.165-1.023 2.224-1.482 3.212l-.459 1.023a152 152 0 0 0-4.834 12.598zm23.466 151.454-1.341-.988a147 147 0 0 1-4.764-3.74c-10.092-8.222-18.878-17.362-26.183-27.207l-.141-.176v-.212c.882-5.434 2.752-10.833 5.611-16.021l.317-.564.494.423a119 119 0 0 0 9.14 6.846l.106.071.07.141a147.5 147.5 0 0 0 11.892 20.572l.071.106v.141c.952 6.705 2.364 13.127 4.234 19.091l.494 1.588zm-31.3-32.394c7.199 9.704 15.915 18.738 25.866 26.854 1.058.847 2.152 1.729 3.423 2.717-1.659-5.505-2.929-11.433-3.776-17.573a153 153 0 0 1-11.821-20.467c-3-2.082-5.893-4.234-8.575-6.422-2.576 4.834-4.305 9.845-5.117 14.891"/>
    <path fill="#fff" d="m125.025 347.798-1.27-1.835a149 149 0 0 1-11.962-20.713l-.847-1.765 1.623 1.13a157 157 0 0 0 10.657 6.669l.247.141v.282c.212 4.764.635 9.422 1.235 13.868zm-11.397-21.207a142 142 0 0 0 9.774 16.938 151 151 0 0 1-.953-11.469 178 178 0 0 1-8.821-5.469M98.489 186.146l.247-1.87c2.505-20.043 17.714-38.957 42.839-53.249l2.258-1.27-1.588 2.082c-3.282 4.305-6.175 9.139-8.645 14.397-1.412 2.999-2.717 6.246-3.882 9.634l-.07.141-.142.106a190 190 0 0 0-6.387 4.94c-8.857 7.198-16.761 15.173-23.466 23.642l-1.164 1.482zm41.392-52.966c-22.69 13.48-36.734 30.876-39.84 49.261 6.493-7.975 14.01-15.456 22.408-22.302a130 130 0 0 1 6.316-4.869 104 104 0 0 1 3.847-9.563c2.117-4.482 4.552-8.716 7.234-12.527zm253.081 73.362h-2.188l.106-.352c-3.211-2.718-6.74-5.399-10.445-7.975l-.106-.071-.071-.141a147.5 147.5 0 0 0-11.891-20.573l-.071-.106v-.141c-.953-6.74-2.364-13.162-4.27-19.09l-.494-1.588 1.341.988a146 146 0 0 1 4.764 3.74c9.457 7.693 17.785 16.233 24.772 25.372l.106.141v.141c.105 1.13.141 2.259.141 3.388 0 5.222-.847 10.445-2.541 15.526l.812.706zm-11.786-9.139a130 130 0 0 1 10.092 7.657c1.553-4.869 2.364-9.845 2.364-14.785s0-2.117-.105-3.141c-6.917-8.998-15.174-17.432-24.525-25.054-1.059-.847-2.153-1.729-3.423-2.717 1.658 5.505 2.929 11.398 3.776 17.573a148 148 0 0 1 11.821 20.467"/>
    <path fill="#fff" d="m367.908 176.69-1.305-1.8c-11.116-15.385-24.878-28.371-40.898-38.534l.494-.953c13.268 5.54 25.618 12.492 36.734 20.643l.141.106.071.177c1.905 5.646 3.387 11.786 4.41 18.173zm-36.557-37.829c13.338 9.246 25.018 20.538 34.758 33.594a115 115 0 0 0-3.953-15.632c-9.421-6.881-19.76-12.915-30.805-17.962m56.107 77.35-.389-1.165a135 135 0 0 0-5.363-13.832l-.812-1.8 1.588 1.129a116 116 0 0 1 8.681 6.846l.282.247-.141.353a57 57 0 0 1-3.317 7.163l-.6 1.059zm-3.953-13.621a138 138 0 0 1 4.2 10.974 71 71 0 0 0 2.54-5.575 104 104 0 0 0-6.74-5.364z"/>
    <path fill="#fff" d="m382.976 223.021-.423-.423-14.08-14.044-27.806 10.021-.212-.388c-1.482-2.823-3.07-5.611-4.623-8.328-8.151-14.115-17.396-27.347-27.524-39.38-.635-.742-1.27-1.518-1.905-2.259-17.185-19.937-36.77-36.205-56.637-47.109l-.247-.141a1.6 1.6 0 0 0-.353-.176l-1.834-1.023h2.117c22.513.317 44.321 4.058 64.929 11.15a199 199 0 0 1 11.891 4.517h.071c16.126 10.269 29.994 23.325 41.18 38.852a58 58 0 0 1 1.8 2.576 153 153 0 0 1 11.963 20.713c.564 1.165 1.023 2.223 1.482 3.247a148 148 0 0 1 5.399 13.938l.07.212-.106.212c-1.341 2.47-2.929 4.94-4.728 7.375l-.353.494zm-14.256-15.702 14.115 14.079a62 62 0 0 0 4.164-6.563 141 141 0 0 0-5.293-13.621 218 218 0 0 0-1.482-3.211 147.6 147.6 0 0 0-11.892-20.573 95 95 0 0 0-1.8-2.541c-11.115-15.385-24.842-28.335-40.862-38.498-3.917-1.659-7.905-3.141-11.786-4.482-19.832-6.81-40.828-10.515-62.459-11.009 19.549 10.939 38.745 27.03 55.648 46.65.635.741 1.27 1.482 1.906 2.258 10.162 12.068 19.478 25.372 27.63 39.557a292 292 0 0 1 4.446 7.975l27.595-9.951zm-110.309-93.441h-.141c-3.67-.282-7.375-.459-11.045-.459h-.529v-7.198h.529c8.963 0 17.926.494 26.677 1.446l2.929.318-2.858.741a120 120 0 0 0-15.456 5.117h-.106zm-10.657-1.517c3.494 0 7.023.176 10.481.458a123 123 0 0 1 12.703-4.375 265 265 0 0 0-23.184-1.129v5.081z"/>
    <path fill="#fff" d="M246.696 119.312v-6.422h.529v-.53c3.741 0 7.481.177 11.151.459l2.223.177-2.082.846a139 139 0 0 0-11.045 5.047l-.776.388zm1.058-5.893v4.164a145 145 0 0 1 8.293-3.846 129 129 0 0 0-8.293-.283zm171.074 134.798c-2.047-8.751-6.14-17.291-12.174-25.442l-.424-.565c-3.881-5.116-8.504-10.057-13.832-14.714l-.283-.247.106-.353c1.906-5.435 2.858-11.01 2.858-16.621v-2.858c-.035 0 .953 1.376.953 1.376 4.093 5.576 7.799 11.469 10.904 17.503 6.916 13.303 11.257 27.348 12.915 41.745l-1.058.176zm-10.692-25.23q6.298 8.68 9.633 17.89c-2.117-11.715-6.034-23.148-11.715-34.087a132 132 0 0 0-9.845-16.021c-.036 5.435-.988 10.904-2.788 16.162 5.469 4.799 10.198 9.951 14.15 15.244l.635.847zm-45.239-67.4-1.376-.988c-12.95-9.245-27.453-16.867-43.121-22.619h-.035l-.106-.07c-17.609-9.775-36.734-15.739-56.778-17.75l-2.223-.212 2.082-.811c5.611-2.153 11.222-3.811 16.621-4.976h.176c26.254 3.247 50.496 10.516 70.151 21.031h.106c0 .036.071.142.071.142 4.164 4.94 7.763 10.656 10.727 16.973 1.165 2.435 2.223 5.046 3.176 7.692l.6 1.624zm-44.25-24.63c15.244 5.611 29.359 12.915 42.027 21.772-.776-2.047-1.658-4.058-2.54-5.999-2.929-6.21-6.458-11.821-10.516-16.691-19.514-10.445-43.545-17.643-69.587-20.855-4.658.989-9.457 2.4-14.256 4.129 19.373 2.223 37.828 8.151 54.907 17.609z"/>
    <path fill="#fff" d="M318.259 131.944a158 158 0 0 0-3.847-1.376c-20.608-7.093-42.486-10.833-64.999-11.115h-2.188l1.976-.988c4.023-1.977 8.081-3.776 12.068-5.294h.106c0-.035.142 0 .142 0 20.219 2.012 39.451 8.046 57.2 17.891l-.423.953zm-66.623-13.515c20.82.494 41.039 3.917 60.236 10.163-15.809-7.798-32.712-12.633-50.355-14.433a149 149 0 0 0-9.881 4.235zm95.947 9.881-2.752-1.376c-17.785-8.963-39.275-15.385-62.142-18.632l-3.422-.494 3.422-.565c2.435-.388 4.835-.705 7.199-.917 15.385-1.306 29.253 1.553 41.251 8.469 5.258 3.035 10.057 6.81 14.327 11.257l2.117 2.223zm-61.188-20.537c20.431 3.211 39.663 8.963 56.036 16.797a62.5 62.5 0 0 0-11.821-8.822c-11.821-6.811-25.478-9.634-40.616-8.328-1.165.106-2.364.212-3.564.388zm108.12 78.374-1.164-1.482c-6.705-8.469-14.609-16.444-23.466-23.643-1.624-1.306-3.317-2.646-5.046-3.917l.247.671-1.659-1.765.282-.317-.423.141a104 104 0 0 0-3.882-9.634c-2.47-5.257-5.399-10.092-8.645-14.397l-1.588-2.082 2.258 1.271c25.09 14.291 40.299 33.205 42.839 53.248l.247 1.87zm-30.276-30.841c2.152 1.587 4.269 3.246 6.316 4.869 8.398 6.846 15.915 14.327 22.408 22.302-3.07-18.42-17.115-35.782-39.84-49.261 2.717 3.811 5.117 8.01 7.234 12.527a93 93 0 0 1 3.846 9.563zM74.176 248.217l-1.059-.176c1.659-14.398 6-28.442 12.915-41.745a135 135 0 0 1 10.904-17.503l.988-1.341v1.659c-.035.388-.035.776-.035 1.199 0 5.611.953 11.187 2.858 16.621l.106.353-.282.247c-5.505 4.834-10.304 9.986-14.256 15.314-6.07 8.152-10.163 16.691-12.174 25.443zm22.69-57.483c-3.706 5.152-6.987 10.551-9.846 16.02-5.68 10.939-9.633 22.373-11.715 34.088 2.329-6.387 5.752-12.668 10.233-18.702 3.953-5.293 8.681-10.41 14.15-15.244-1.799-5.294-2.752-10.728-2.787-16.162zm149.477 83.595h-.529c-20.008-.07-39.416-2.329-57.66-6.775-1.058-.247-2.117-.529-3.211-.811-17.079-4.447-32.323-10.587-45.38-18.315l-.388-.211.177-.424c4.975-12.809 11.115-25.513 18.173-37.757 8.469-14.645 18.102-28.371 28.688-40.722.636-.741 1.271-1.482 1.941-2.223 17.079-19.514 35.676-34.864 55.331-45.627.706-.388 1.411-.741 2.082-1.129l.776-.423v154.453zm-105.827-26.571c12.88 7.551 27.913 13.586 44.709 17.961 1.059.283 2.153.565 3.176.812 17.997 4.375 37.123 6.669 56.884 6.74v-151.63c-.424.247-.883.458-1.306.705-19.549 10.693-38.075 25.972-55.048 45.415-.636.741-1.306 1.482-1.941 2.223-10.516 12.316-20.149 25.972-28.548 40.581-6.951 12.068-12.986 24.56-17.926 37.193m94.112-133.881h-.106c-5.223-2.152-10.41-3.881-15.456-5.187l-2.858-.741 2.928-.318a267 267 0 0 1 26.678-1.446h.529v7.163h-.529c-3.706 0-7.446.176-11.045.459h-.141zm-12.527-5.434c4.163 1.164 8.433 2.647 12.703 4.376 3.423-.283 6.952-.424 10.48-.459v-5.082c-7.763.036-15.561.424-23.183 1.13z"/>
    <path fill="#fff" d="M245.567 118.924c-3.705-1.871-7.41-3.6-11.045-5.046l-2.082-.847 2.223-.177c3.705-.282 7.446-.458 11.116-.458h.529v6.069h-.529l-.247.459zm-8.575-5.188a146 146 0 0 1 8.293 3.847v-4.164c-2.753 0-5.541.106-8.293.282zM156.29 404.929l-3.494-1.518c-35.711-15.385-56.212-38.251-56.212-62.776s.07-3.105.246-4.658l.142-1.341.811 1.059c7.128 9.422 15.668 18.208 25.372 26.113 2.047 1.658 4.199 3.352 6.387 4.94l.141.106.071.141a94 94 0 0 0 3.67 9.175l.211.458c4.941 10.551 11.575 19.267 19.726 25.866l2.964 2.399zm-58.542-67.505a49 49 0 0 0-.106 3.211c0 23.325 19.02 45.203 52.296 60.342-6.493-5.893-11.962-13.233-16.267-21.808v.071l-1.024-2.153a93 93 0 0 1-3.846-9.563c-2.153-1.588-4.27-3.246-6.317-4.87-9.386-7.657-17.714-16.126-24.7-25.195z"/>
    <path fill="#fff" d="m96.689 333.648-.706-1.023a136.5 136.5 0 0 1-9.916-16.126c-6.916-13.304-11.256-27.348-12.915-41.745l1.059-.177c2.047 8.751 6.14 17.291 12.174 25.442l.106.142c4.34 5.822 9.669 11.397 15.809 16.62l.317.282-.211.388c-2.718 4.87-4.553 9.916-5.505 14.998l-.212 1.235zm-21.42-51.696c2.118 11.716 6.035 23.149 11.716 34.088 2.682 5.117 5.717 10.163 9.14 14.997.987-4.658 2.717-9.245 5.151-13.727-6.14-5.222-11.433-10.833-15.773-16.655l-.106-.142c-4.446-5.998-7.834-12.209-10.127-18.596zm113.379 134.48c-8.257-.812-16.021-2.964-23.078-6.458l.423-.988c7.234 2.47 14.927 4.623 22.867 6.423l-.177 1.058zm57.695 4.657h-.529c-14.256-.035-28.336-1.129-41.887-3.317l-.458-.07v-.953h.494c9.845-.953 20.149-3.564 30.559-7.834h.106c0-.035.141-.035.141-.035 3.67.282 7.375.423 11.045.459h.529zm-38.357-3.74a270 270 0 0 0 37.298 2.682v-9.598c-3.493 0-7.022-.177-10.48-.459-9.104 3.705-18.102 6.14-26.783 7.34zm-41.145-29.958c-13.268-5.54-25.619-12.492-36.735-20.643l-.141-.106-.07-.177c-1.906-5.646-3.388-11.75-4.411-18.173l-.353-2.188 1.305 1.8c11.116 15.385 24.878 28.371 40.899 38.534zm-35.994-21.384c9.422 6.881 19.761 12.915 30.806 17.961-13.338-9.245-25.018-20.537-34.758-33.594a115 115 0 0 0 3.952 15.633m114.685 38.109s-.071 0-.106-.035a.49.49 0 0 1-.282-.459v-.317l.247-.177c.211-.141.388-.07.529 0h.07l-.247.459-.247.459z"/>
    <path fill="#fff" d="M197.823 416.75h-.071c-14.186-2.646-27.524-6.387-39.663-11.151l-.106-.07c-10.163-6.881-18.243-16.656-24.066-29.042-1.129-2.435-2.223-5.011-3.176-7.692v-1.2l.847.6c12.951 9.28 27.489 16.902 43.227 22.654h.071c17.608 9.81 36.734 15.774 56.777 17.785l2.223.212-2.082.811c-9.774 3.705-19.408 5.999-28.618 6.776a86 86 0 0 1-5.258.282h-.07zm-39.275-12.103c12.068 4.728 25.301 8.433 39.38 11.044a80 80 0 0 0 5.117-.282c8.469-.706 17.291-2.717 26.219-5.928-19.373-2.223-37.828-8.151-54.908-17.609-15.208-5.61-29.359-12.915-42.027-21.772a134 134 0 0 0 2.541 5.999c5.716 12.209 13.691 21.808 23.678 28.583z"/>
    <path fill="#fff" d="M246.343 410.468h-.529c-3.74 0-7.481-.177-11.151-.459a68 68 0 0 1-3.14-.282c-20.22-2.012-39.452-8.046-57.201-17.891a163 163 0 0 1-7.552-4.481 149.2 149.2 0 0 1-41.18-38.781l-.071-.106v-.141a138 138 0 0 1-1.623-15.738v-.953c-.035 0 .776.458.776.458 17.821 9.952 38.57 17.468 61.683 22.337.741.142 1.517.318 2.258.459 12.915 2.576 26.431 4.305 40.193 5.082h.211l17.326 18.102zm-119.836-62.459c11.116 15.35 24.843 28.265 40.793 38.428 2.47 1.553 4.975 3.07 7.516 4.446 17.608 9.775 36.734 15.739 56.777 17.75.988.106 2.012.176 3.141.282 3.458.282 6.987.424 10.516.459v-5.47q-.106-.105-.106-.317v-.318l.106-.07v-24.737l-16.727-17.467c-13.726-.776-27.206-2.506-40.121-5.081-.777-.142-1.518-.318-2.259-.459-22.866-4.799-43.439-12.174-61.153-21.984.282 5.011.776 9.915 1.517 14.538m119.059 56.107.459-.953z"/>
    <path fill="#fff" d="m228.311 359.267-1.34-.071c-13.833-.882-27.454-2.717-40.475-5.469-.776-.177-1.517-.318-2.259-.494-22.654-4.976-42.909-12.457-60.165-22.267l-.247-.141v-.953c-.035-.353-.07-.706-.07-1.058-.247-11.61.706-23.819 2.929-36.276.106-.494.176-1.023.282-1.517l.106-.6a233 233 0 0 1 6.74-26.854c.247-.776.494-1.517.741-2.293a245 245 0 0 1 4.27-12.034l.211-.599.53.317c.635.388 1.27.741 1.905 1.094 11.927 6.775 25.619 12.315 40.651 16.409.953.247 1.941.529 3.035.811 19.055 4.905 39.487 7.446 60.659 7.481h.529v15.844l-.07.071-21.667 64.682 3.705 3.881zm-103.462-29.112c17.114 9.668 37.157 17.079 59.6 22.019.741.176 1.482.317 2.223.494 12.563 2.646 25.654 4.446 38.958 5.364l-2.259-2.365.106-.317 21.772-65v-14.503c-21.101-.106-41.392-2.611-60.412-7.516-1.094-.282-2.082-.529-3.034-.812-15.103-4.128-28.865-9.704-40.863-16.514a27 27 0 0 1-1.376-.812 244 244 0 0 0-4.023 11.398c-.247.776-.494 1.517-.741 2.294-2.823 8.927-5.082 17.926-6.705 26.712l-.106.6c-.106.494-.176.988-.282 1.518-2.188 12.385-3.141 24.524-2.894 36.063v1.412z"/>
    <path fill="#fff" d="M246.52 433.934a1.25 1.25 0 0 1-1.235-1.235v-10.092c-16.48-.07-32.641-1.552-48.027-4.411h-1.235c-12.809 0-24.524-3.034-34.828-8.963a89 89 0 0 1-3.423-2.117c-6.387-2.505-12.457-5.293-17.997-8.292-13.938-7.481-24.913-16.233-32.57-25.972-8.01-10.163-12.068-20.996-12.068-32.182s.14-4.164.423-6.175c-4.023-5.541-7.657-11.363-10.727-17.256C75.658 299.595 71 280.822 71 261.485c0-19.338 4.658-38.111 13.833-55.754 3.458-6.67 7.551-13.127 12.21-19.267.81-10.269 4.763-20.255 11.75-29.642 7.587-10.162 18.42-19.302 32.182-27.136a78 78 0 0 1 3.07-1.693c4.94-5.752 10.727-10.587 17.15-14.292 12.244-7.093 26.43-9.986 42.062-8.645 3.741.317 7.622.882 11.539 1.694 9.951-1.235 20.185-1.871 30.489-1.906V90.235c0-.67.564-1.235 1.235-1.235.67 0 1.235.565 1.235 1.235v14.609c10.268.035 20.537.706 30.488 1.906a96 96 0 0 1 11.539-1.694c15.668-1.341 29.818 1.588 42.063 8.645 6.457 3.705 12.209 8.54 17.149 14.292.847.458 1.941 1.058 3.07 1.693 13.762 7.834 24.596 16.974 32.182 27.136 7.023 9.387 10.975 19.373 11.751 29.642a136 136 0 0 1 12.21 19.267c9.033 17.396 13.691 35.852 13.832 54.907v1.27l-3.529-3.493v-.212c-1.023-17.114-10.092-33.84-26.218-48.344-.988 2.471-2.223 4.941-3.599 7.34a74 74 0 0 1-4.27 6.493l-.353.494-1.835-1.835.282-.353a70 70 0 0 0 4.658-7.269 54 54 0 0 0 3.106-6.669c-2.576-2.223-5.399-4.411-8.328-6.528l-.106-.071-.071-.141a199 199 0 0 0-1.482-3.211l-.847-1.765 1.623 1.094a142 142 0 0 1 10.234 7.763c1.553-4.869 2.364-9.845 2.364-14.82 0-4.976 0-2.117-.106-3.141-6.916-8.998-15.173-17.432-24.524-25.054a118 118 0 0 0-3.423-2.717c1.658 5.575 2.928 11.504 3.775 17.679l.318 2.188-1.27-1.835c-.565-.812-1.13-1.623-1.8-2.541l-.071-.106v-.141c-1.023-6.281-2.47-12.28-4.34-17.855-11.01-8.046-23.254-14.927-36.381-20.396a196 196 0 0 0-11.822-4.517c-19.831-6.811-40.827-10.516-62.458-11.01 19.549 10.939 38.745 27.03 55.648 46.65a129 129 0 0 1 1.905 2.258c10.163 12.104 19.479 25.407 27.631 39.558a388 388 0 0 1 4.657 8.363l.283.529-2.364.847-.212-.388a247 247 0 0 0-4.517-8.116c-8.434-14.609-18.032-28.265-28.548-40.581a110 110 0 0 0-1.94-2.223c-16.974-19.443-35.499-34.723-55.049-45.415-.423-.247-.882-.459-1.305-.706v151.63c1.094 0 2.293 0 3.634-.035h.741l-.882 2.576h-.388c-1.023 0-2.082.035-3.141.035v10.481l-2.47 7.375v-17.856c-21.102-.105-41.392-2.611-60.412-7.516-1.023-.282-2.046-.529-3.035-.811-15.103-4.129-28.865-9.704-40.862-16.515a28 28 0 0 1-1.377-.812 245 245 0 0 0-4.022 11.398c-.247.777-.494 1.518-.741 2.294-2.823 8.928-5.082 17.926-6.705 26.713l-.106.564c-.106.494-.176 1.024-.282 1.518-2.188 12.385-3.141 24.524-2.894 36.063v1.412c17.115 9.669 37.158 17.079 59.601 22.019.741.177 1.482.318 2.258.494 12.951 2.717 26.536 4.552 40.298 5.434h.212l2.858 3-1.341-.071c-13.832-.776-27.383-2.505-40.333-5.116-.776-.142-1.517-.318-2.258-.459-22.902-4.799-43.475-12.174-61.154-21.984.283 5.081.777 9.986 1.553 14.679 1.023 6.282 2.47 12.28 4.34 17.856 11.01 8.045 23.255 14.926 36.382 20.396h.07c2.47 1.623 5.011 3.105 7.517 4.517l-.424.952c-15.209-5.575-29.359-12.915-42.062-21.807.776 2.046 1.658 4.058 2.54 5.999 5.717 12.209 13.692 21.807 23.678 28.582 12.068 4.729 25.301 8.434 39.381 11.045a80 80 0 0 0 5.117-.282c9.139-.776 18.667-3.035 28.335-6.74h.106c0-.035.141 0 .141 0 1.165.106 2.188.212 3.141.283l2.223.176-2.082.847c-9.139 3.705-18.173 6.175-26.889 7.375a270 270 0 0 0 37.264 2.682v-43.086l2.47 2.576v40.475c12.633-.071 25.16-.953 37.263-2.682-8.751-1.2-17.749-3.67-26.889-7.375l-2.082-.847 2.223-.177c1.13-.07 2.153-.176 3.141-.282h.247c8.045 3.07 16.056 5.152 23.748 6.211h.177l1.023.952.247-.741h.424c.988.177 1.87.247 2.717.318a84 84 0 0 0 5.152.282l1.094-.212 2.576 2.718h-3.035c-15.385 2.858-31.547 4.34-48.026 4.411v10.092a1.25 1.25 0 0 1-1.235 1.235zm-49.191-16.832h.035c15.527 2.894 31.794 4.376 48.415 4.411h.529v11.151c0 .106.07.177.176.177s.177-.071.177-.177v-11.151h.529c16.62-.035 32.923-1.517 48.414-4.411h.671l-.459-.494-.882.177h-.035c-1.659-.106-3.353-.177-5.046-.318-.706-.07-1.483-.141-2.329-.247l-.106.353c.529.071 1.094.106 1.623.177l4.164.388-4.164.67c-13.55 2.153-27.63 3.247-41.886 3.282h-.53v-17.044l-.105-.071v-.317a.32.32 0 0 1 .105-.247V379.98l-.352-.353v41.498h-.53c-14.256-.035-28.336-1.129-41.886-3.317l-4.129-.67 4.164-.388c9.21-.847 18.773-3.212 28.477-6.952-.247 0-.529-.035-.776-.071-9.739 3.706-19.302 5.964-28.512 6.74a87 87 0 0 1-5.258.283h-.141c-14.186-2.612-27.524-6.352-39.663-11.151l-.106-.071c-10.163-6.881-18.279-16.656-24.066-29.041-1.165-2.435-2.223-5.047-3.176-7.693l-.6-1.623 1.376.988c11.257 8.045 23.713 14.856 37.052 20.29-.6-.388-1.2-.741-1.8-1.129-13.232-5.54-25.583-12.492-36.698-20.608l-.142-.106-.07-.176c-1.906-5.682-3.388-11.786-4.411-18.173-.812-5.011-1.341-10.304-1.588-15.739v-.952c-.035 0 .776.458.776.458 17.785 9.951 38.569 17.468 61.683 22.337.741.142 1.517.318 2.258.459 12.457 2.506 25.513 4.199 38.852 5.011l-.706-.741c-13.762-.882-27.313-2.717-40.263-5.434-.741-.177-1.518-.318-2.259-.494-22.654-4.976-42.909-12.457-60.165-22.267l-.247-.141v-.988c-.035-.353-.07-.706-.07-1.059-.247-11.609.706-23.819 2.929-36.275.106-.494.176-1.023.282-1.517l.106-.565a233 233 0 0 1 6.74-26.854c.247-.776.494-1.517.741-2.293a244 244 0 0 1 4.27-12.033l.211-.6.53.317c.635.388 1.27.741 1.905 1.094 11.927 6.775 25.619 12.316 40.651 16.409.988.282 2.012.529 3.035.811 19.055 4.905 39.487 7.446 60.659 7.481h.529v12.422l.353-1.059v-11.363h3.811l.141-.458h-3.952V119.771l.777.423c.705.353 1.376.741 2.081 1.129 19.656 10.763 38.252 26.113 55.331 45.627.635.741 1.306 1.482 1.941 2.223 10.586 12.386 20.22 26.077 28.689 40.722a266 266 0 0 1 4.305 7.763l.317-.106c-1.411-2.611-2.858-5.258-4.34-7.798-8.151-14.08-17.397-27.348-27.524-39.381-.635-.741-1.271-1.518-1.906-2.259-17.185-19.937-36.769-36.204-56.636-47.108-.212-.106-.388-.212-.6-.318l-1.941-1.023h2.188c22.513.317 44.356 4.058 64.929 11.151a199 199 0 0 1 11.892 4.516c13.268 5.54 25.618 12.492 36.734 20.644l.141.105.071.177c1.905 5.646 3.387 11.715 4.411 18.032.141.211.317.423.458.635-.917-5.928-2.223-11.61-3.917-16.903l-.494-1.588 1.306.988c1.764 1.341 3.352 2.541 4.764 3.741 9.457 7.692 17.785 16.232 24.772 25.371l.105.142v.141a36 36 0 0 1 .142 3.387c0 5.329-.883 10.692-2.647 15.88l-.247.741-.6-.494a120 120 0 0 0-9.139-7.058c.211.459.423.882.6 1.341a132 132 0 0 1 8.574 6.74l.283.247-.141.353a57 57 0 0 1-3.317 7.163c-1.271 2.329-2.788 4.693-4.447 7.022l.318.318a73 73 0 0 0 3.846-5.893 57.6 57.6 0 0 0 3.811-7.904l.283-.706.564.494c16.621 14.75 26.007 31.829 27.101 49.367l1.447 1.412c-.318-18.421-4.941-36.276-13.692-53.108a133.6 133.6 0 0 0-12.209-19.232l-.106-.141v-.141c-.776-10.128-4.658-19.973-11.574-29.253-7.481-10.057-18.209-19.091-31.865-26.854a253 253 0 0 0-3.105-1.729h-.071c0-.035-.07-.106-.07-.106-4.87-5.717-10.587-10.48-16.938-14.15-12.069-6.952-26.007-9.845-41.463-8.54a95 95 0 0 0-11.504 1.694h-.141c-10.092-1.235-20.537-1.87-30.982-1.905h-.53V90.094c0-.106-.07-.176-.176-.176s-.176.07-.176.176v15.668h-.53c-10.445 0-20.855.67-30.982 1.905h-.141a96 96 0 0 0-11.504-1.694c-15.456-1.305-29.394 1.553-41.463 8.54-6.351 3.67-12.068 8.433-16.938 14.15l-.07.071h-.071c-.847.494-2.011 1.129-3.105 1.764-13.656 7.763-24.384 16.797-31.865 26.854-6.916 9.28-10.797 19.125-11.574 29.253v.141l-.106.141a133.7 133.7 0 0 0-12.21 19.232c-9.103 17.503-13.726 36.099-13.726 55.295s4.623 37.758 13.727 55.296c3.07 5.928 6.704 11.75 10.763 17.291l.14.176v.212a41 41 0 0 0-.458 6.246c0 10.939 3.987 21.56 11.856 31.547 7.587 9.633 18.421 18.278 32.253 25.689 5.54 2.964 11.574 5.752 17.926 8.257h.106a55 55 0 0 0 3.423 2.188c10.163 5.858 21.702 8.822 34.299 8.822h1.306zm63.27-7.304c8.469 3.282 16.868 5.469 24.984 6.563l-.459-.423c-7.693-1.059-15.668-3.141-23.713-6.211-.247 0-.529.036-.776.071zm-71.951 6.634c-8.257-.812-16.02-2.964-23.078-6.458l.424-.988c7.234 2.47 14.926 4.623 22.866 6.423l-.176 1.058zm-32.358-11.504-3.494-1.517c-35.711-15.385-56.213-38.252-56.213-62.776 0-1.553.07-3.106.247-4.658l.142-1.341.811 1.058c7.128 9.422 15.668 18.209 25.372 26.113 2.046 1.659 4.199 3.352 6.387 4.94l.141.106.071.141a96 96 0 0 0 3.881 9.634c4.976 10.551 11.61 19.267 19.726 25.865l2.964 2.4zm-58.542-67.505a49 49 0 0 0-.106 3.212c0 23.325 19.02 45.203 52.296 60.341-7.022-6.352-12.809-14.397-17.291-23.89a90 90 0 0 1-3.846-9.562c-2.153-1.588-4.27-3.247-6.317-4.87-9.421-7.657-17.714-16.126-24.7-25.195zm31.723 28.866-1.305-.989a152 152 0 0 1-4.764-3.74c-10.092-8.222-18.914-17.361-26.183-27.207l-.142-.176v-.212c.883-5.434 2.753-10.833 5.611-16.02l.318-.565.494.424a118 118 0 0 0 9.139 6.845c3.388 2.329 6.987 4.552 10.657 6.67l.247.141v.282c.212 4.764.635 9.422 1.235 13.868.917 6.705 2.364 13.127 4.235 19.091l.494 1.588zm-31.3-32.394c7.199 9.704 15.88 18.737 25.866 26.853 1.059.883 2.188 1.765 3.423 2.718-1.659-5.576-2.929-11.504-3.776-17.679-.6-4.411-1.023-8.999-1.235-13.692a182 182 0 0 1-10.48-6.563 122 122 0 0 1-8.716-6.493c-2.576 4.834-4.305 9.845-5.117 14.891zm-1.482-.247-.74-1.024c-3.282-4.587-6.282-9.351-8.928-14.256 0 .035-.989-1.87-.989-1.87-6.916-13.303-11.256-27.348-12.915-41.745l1.059-.176c2.046 8.716 6.14 17.29 12.174 25.442 4.34 5.857 9.704 11.503 15.915 16.726l.317.282-.211.388c-2.718 4.87-4.553 9.916-5.505 14.998l-.212 1.235zm-9.986-18.173.282.564c2.682 5.152 5.752 10.163 9.14 14.997.988-4.658 2.717-9.245 5.152-13.726-6.14-5.223-11.433-10.834-15.774-16.656-4.481-6.034-7.904-12.315-10.233-18.702 2.082 11.503 5.893 22.76 11.433 33.523m36.769 15.103-.811-.494c-4.27-2.506-8.363-5.152-12.139-7.869a146 146 0 0 1-6.811-5.258l-.352-.283.247-.388a62 62 0 0 1 2.752-4.234c-.071-.177-.106-.318-.176-.494-1.024 1.411-1.941 2.858-2.823 4.269l-.318.53-.459-.388c-19.09-16.197-29.147-35.076-29.147-54.625s2.4-19.338 7.163-28.336c4.517-8.504 11.257-16.797 20.043-24.595l.565-.494.282.705c1.024 2.647 2.329 5.293 3.811 7.905a67 67 0 0 0 4.376 6.634c4.905 6.563 11.257 12.774 18.879 18.42.564.423 1.164.847 1.764 1.27a124 124 0 0 0 8.116 5.293l.388.212-.141.423a292 292 0 0 0-3.74 10.41c-.247.777-.494 1.553-.741 2.294a232 232 0 0 0-7.622 30.171c-.106.67-.247 1.305-.353 1.976v.141c-2.047 12.033-2.964 23.784-2.717 34.934v1.8zm-18.773-14.115c2.047 1.693 4.2 3.317 6.388 4.905 3.528 2.54 7.304 5.01 11.221 7.339-.247-11.186.67-22.972 2.717-35.04v-.141c.141-.671.247-1.306.353-1.976 1.8-9.951 4.376-20.149 7.657-30.312.247-.776.494-1.517.741-2.294a232 232 0 0 1 3.6-10.057c-2.717-1.658-5.329-3.352-7.799-5.116-.6-.424-1.2-.847-1.764-1.271-7.728-5.716-14.151-11.997-19.091-18.631a60 60 0 0 1-4.411-6.74 59 59 0 0 1-3.599-7.34c-8.434 7.587-14.927 15.597-19.267 23.784-4.658 8.821-7.057 18.208-7.057 27.841 0 19.056 9.774 37.511 28.3 53.39a64 64 0 0 1 3.141-4.658l.6-.811.317.952c.212.565.388 1.13.6 1.694l.106.247-.177.212a71 71 0 0 0-2.611 3.987zm141.644-42.133h-.529c-20.008-.071-39.381-2.329-57.66-6.776-1.094-.282-2.188-.529-3.211-.811-17.044-4.446-32.323-10.587-45.38-18.314l-.388-.212.177-.424c4.975-12.809 11.115-25.512 18.173-37.757 8.469-14.644 18.102-28.371 28.688-40.722.636-.741 1.271-1.482 1.941-2.223 17.079-19.514 35.676-34.864 55.331-45.627.706-.388 1.411-.741 2.082-1.129l.776-.423v154.453zm-105.827-26.572c12.88 7.552 27.913 13.621 44.709 17.961 1.024.247 2.082.53 3.176.812 18.032 4.376 37.158 6.669 56.884 6.74v-151.63c-.424.247-.883.459-1.306.706-19.549 10.692-38.075 25.971-55.048 45.415-.636.741-1.306 1.482-1.941 2.223-10.516 12.315-20.149 25.971-28.548 40.58-6.951 12.068-12.986 24.56-17.926 37.193m-66.34.459-1.059-.177c1.659-14.397 6-28.441 12.915-41.745a135 135 0 0 1 10.904-17.502l.988-1.376v1.693c-.07.389-.07.777-.07 1.165 0 5.611.953 11.186 2.858 16.62l.106.353-.282.247c-5.505 4.835-10.304 9.986-14.257 15.315-6.034 8.151-10.162 16.691-12.174 25.442zm22.69-57.483c-3.706 5.152-6.987 10.551-9.846 16.02-5.68 10.939-9.633 22.372-11.715 34.088 2.329-6.423 5.752-12.668 10.233-18.738 3.917-5.293 8.681-10.41 14.15-15.244-1.799-5.293-2.752-10.727-2.787-16.162zm321.962 57.483c-2.047-8.751-6.14-17.291-12.174-25.442-3.952-5.329-8.751-10.481-14.256-15.315l-.283-.247.106-.353c1.906-5.434 2.859-11.01 2.859-16.62v-1.729h.811l.177.211c4.093 5.611 7.798 11.469 10.903 17.503 6.917 13.303 11.257 27.348 12.916 41.745l-1.059.176zm-25.477-41.322c5.469 4.799 10.198 9.951 14.15 15.244 4.481 6.035 7.939 12.316 10.268 18.738-2.117-11.715-6.034-23.149-11.715-34.088a131 131 0 0 0-9.88-16.055c-.036 5.469-.989 10.903-2.788 16.161zm-254.458 41.11-.529-.317a142 142 0 0 1-9.281-6.176c-.6-.423-1.164-.882-1.729-1.305-9.916-7.623-17.467-16.056-22.372-25.054a57 57 0 0 1-3.317-7.164l-.141-.353.282-.247c2.646-2.293 5.54-4.552 8.575-6.74.211-.423.388-.882.6-1.341-3.247 2.294-6.317 4.658-9.14 7.058l-.6.494-.247-.741a49.3 49.3 0 0 1-2.646-15.879c0-5.329.035-2.259.106-3.388l.07-.812.318.177c6.951-8.998 15.173-17.397 24.525-25.019a146 146 0 0 1 4.763-3.74l1.306-.988-.494 1.587a116 116 0 0 0-3.917 16.903c.141-.212.282-.423.459-.635 1.023-6.352 2.505-12.421 4.411-18.032l.07-.176.141-.106c11.116-8.152 23.467-15.103 36.735-20.643a174 174 0 0 1 11.891-4.517c20.573-7.093 42.416-10.833 64.929-11.116h2.118l-1.835.988a1.6 1.6 0 0 1-.353.177l-.247.141c-19.867 10.904-39.452 27.171-56.637 47.109a129 129 0 0 0-1.905 2.258c-10.128 12.033-19.373 25.266-27.524 39.381-7.058 12.209-13.127 24.842-18.103 37.581l-.211.6zm-36.134-40.051a54 54 0 0 0 3.105 6.669c4.834 8.893 12.28 17.185 22.09 24.701.564.424 1.129.883 1.729 1.306 2.717 2.011 5.646 3.952 8.645 5.787 4.941-12.597 10.975-25.089 17.962-37.122 8.186-14.15 17.467-27.454 27.63-39.557.635-.741 1.27-1.518 1.905-2.259 16.868-19.584 36.099-35.711 55.648-46.65-21.631.494-42.627 4.199-62.458 11.01a173 173 0 0 0-11.822 4.517c-13.126 5.505-25.371 12.35-36.381 20.396-1.87 5.54-3.317 11.539-4.34 17.855v.106l-.106.106c-.706.988-1.27 1.8-1.8 2.541l-1.27 1.835.318-2.188c.846-6.175 2.117-12.139 3.775-17.679-1.27.988-2.399 1.87-3.423 2.717-9.351 7.587-17.608 16.02-24.524 25.054a46 46 0 0 0-.106 3.141c0 4.975.776 9.951 2.364 14.82 3.141-2.646 6.599-5.258 10.233-7.763l1.624-1.094-.847 1.765a114 114 0 0 0-1.482 3.211l-.071.141-.106.07a134 134 0 0 0-8.328 6.529zm-4.27-21.808.247-1.87c2.505-20.043 17.714-38.957 42.839-53.249l.212.353.494.424c-3.247 4.269-6.176 9.139-8.646 14.397a100 100 0 0 0-3.881 9.633l-.071.142-.141.105a190 190 0 0 0-6.387 4.941c-8.857 7.198-16.762 15.173-23.466 23.642l-1.165 1.482zm41.392-52.931c-22.725 13.48-36.734 30.877-39.839 49.261 6.492-7.975 14.009-15.456 22.407-22.301 2.011-1.659 4.164-3.282 6.317-4.87 1.164-3.352 2.434-6.563 3.846-9.563 2.117-4.517 4.552-8.716 7.234-12.527zm253.505 51.484-.141-.141c-6.67-8.433-14.539-16.338-23.361-23.536-2.046-1.659-4.199-3.353-6.387-4.941l-.141-.105-.07-.142c-1.165-3.387-2.47-6.634-3.882-9.633-2.47-5.258-5.364-10.092-8.645-14.397l-1.2-1.588h-.494c3.846 4.728 7.234 10.162 10.021 16.126 1.165 2.435 2.224 5.046 3.176 7.693l.6 1.623-1.376-.988c-12.986-9.281-27.524-16.903-43.227-22.655-1.447-.529-2.682-.988-3.846-1.376-20.608-7.093-42.486-10.833-65-11.115h-2.188l1.976-.988c4.023-1.977 8.081-3.776 12.069-5.294 5.61-2.152 11.221-3.811 16.62-4.975h.177c26.218 3.246 50.496 10.516 70.151 21.031l1.023.53.847.458 1.412.812c25.089 14.291 40.298 33.205 42.839 53.249l-.459.07-.424.388zm-29.148-29.394c2.153 1.588 4.27 3.246 6.317 4.87 8.398 6.81 15.915 14.326 22.407 22.301-3.07-18.42-17.114-35.781-39.839-49.261 2.717 3.811 5.152 8.01 7.234 12.527 1.411 3 2.717 6.211 3.846 9.563zM251.636 118.43c21.843.494 43.086 4.269 63.129 11.151 1.165.388 2.4.846 3.847 1.376 15.244 5.61 29.359 12.915 42.062 21.807-.776-2.046-1.658-4.058-2.54-5.998-2.929-6.211-6.458-11.822-10.551-16.691-19.514-10.446-43.545-17.644-69.587-20.855a114 114 0 0 0-16.373 4.905 135 135 0 0 0-9.987 4.305m-121.494 37.157.6-1.623a117 117 0 0 1 3.175-7.693c2.788-5.963 6.176-11.397 10.022-16.126h-.988l1.87-.988c19.655-10.516 43.898-17.82 70.152-21.031h.176c5.399 1.164 11.01 2.823 16.62 4.975 4.023 1.518 8.081 3.317 12.069 5.293l1.976.988h-2.188c-22.513.318-44.392 4.059-64.999 11.151-1.13.388-2.329.812-3.847 1.377-15.703 5.787-30.241 13.409-43.227 22.654l-1.376.988zm15.279-25.512c-4.058 4.869-7.622 10.48-10.551 16.691-.882 1.905-1.764 3.916-2.54 5.963 12.668-8.857 26.818-16.197 42.062-21.808 1.517-.564 2.717-.988 3.882-1.376 20.043-6.881 41.286-10.657 63.129-11.151a130 130 0 0 0-10.022-4.305c-5.54-2.117-11.045-3.775-16.373-4.905-26.042 3.212-50.108 10.445-69.587 20.855zm202.162-1.765-2.753-1.376c-17.784-8.963-39.31-15.385-62.141-18.632l-3.423-.494 3.423-.564a108 108 0 0 1 7.199-.918c15.385-1.306 29.253 1.553 41.251 8.469 5.258 3.035 10.057 6.811 14.327 11.257l2.117 2.223zm-61.189-20.537c20.432 3.211 39.663 8.963 56.037 16.797a62.5 62.5 0 0 0-11.821-8.822c-11.822-6.811-25.478-9.634-40.616-8.328-1.165.106-2.365.212-3.564.388zM145.421 128.31l2.117-2.223c4.27-4.446 9.069-8.222 14.327-11.257l.776-.458c9.916-5.505 21.102-8.328 33.312-8.328s4.728.106 7.128.317c2.364.212 4.799.494 7.198.918l3.423.564-3.423.494c-22.866 3.247-44.356 9.669-62.141 18.632l-2.752 1.376zm16.444-12.245a64.4 64.4 0 0 0-11.292 8.505c16.373-7.799 35.605-13.586 56.037-16.797-1.2-.141-2.4-.282-3.564-.388a80 80 0 0 0-7.023-.318c-12.35 0-23.642 2.894-33.593 8.646l-.53.317zm84.478 3.247-.776-.388a145 145 0 0 0-11.045-5.046c-5.187-2.118-10.41-3.847-15.456-5.117l-2.858-.741 2.929-.318a267 267 0 0 1 26.677-1.446v.529h.529zm-24.242-10.869c4.234 1.2 8.504 2.682 12.809 4.411 3.423 1.412 6.916 2.964 10.375 4.729v-10.269c-7.764.035-15.562.424-23.184 1.129m24.595 10.869v-13.056h.529c8.963 0 17.926.494 26.678 1.446l2.928.318-2.858.741c-5.046 1.27-10.233 2.999-15.456 5.117a145 145 0 0 0-11.045 5.046zm1.059-6.422v4.693a141 141 0 0 1 10.374-4.693 131 131 0 0 1 12.809-4.411 265 265 0 0 0-23.183-1.13v5.576z"/>
    <path fill="#fff" d="M247.12 404.223c-.071 0-.177 0-.283-.071l-.247-.176v-.318c0-.247.177-.388.318-.459h.071l.247.459.247.459h-.036c-.07 0-.176.07-.247.07zm69.874-130.606-22.619 8.322.366.994 22.619-8.322zm32.459 167.798-12.986-13.55.106-.318 26.289-79.149 2.258-.847 12.386 12.739zm-11.786-13.832 11.362 11.856 5.187-14.997 22.09-63.87-11.468-11.786-1.129.423-26.007 78.374z"/>
    <path fill="#fff" d="m376.766 361.065-11.292-11.609.282-.353c.106-.176.247-.318.353-.494.176-.212.317-.459.494-.671l.176-.211c.141-.177.247-.353.388-.53l.353-.494.141-.07 77.421-28.654 13.127 13.092-81.408 29.994zm-9.916-11.715 10.198 10.48 79.22-29.182-11.468-11.469-76.645 28.371-.141.212c-.176.247-.353.494-.529.776l-.176.212c-.106.141-.247.318-.353.459 0 .035-.071.07-.071.106z"/>
    <path fill="#fff" d="m366.215 350.198-2.188-2.258 3.423-1.271.07-.106h3.247l-2.612.953-.176.247-.529.741c-.212.283-.424.565-.6.847l-.6.812zm-.283-1.8.177.177c.106-.106.176-.247.282-.353zM371.366 461l-22.76-20.396 5.575-16.162 22.267-64.4.247-.07 80.631-29.712 21.173 20.855-.776.282-79.75 29.536L371.402 461zm-21.525-20.749 21.031 18.843 26.254-79.008.247-.071 79.22-29.324-19.478-19.196-79.75 29.394-27.453 79.397zm18.702 8.963-12.103-11.539 24.242-72.975.247-.106 72.234-26.889 13.091 11.575-73.433 27.63-24.242 72.304zm-10.868-11.857 10.41 9.916 23.466-69.905-1.553.6 3.564-3.246-.282.882 70.998-26.712-11.292-9.987-71.386 26.572-23.89 71.845z"/>
    <path fill="#fff" d="m376.526 360.534-22.216 64.155 1 .347 22.216-64.156zm-9.817 86.95-10.269-9.81 24.242-72.974.247-.106 72.234-26.889 11.221 9.916-73.398 27.595-24.242 72.233zm-9.034-10.127 8.575 8.186 23.854-71.139 72.233-27.171-9.421-8.328-71.387 26.571-23.889 71.845zm-54.343-12.914-14.538-15.209 2.117-6.387 31.159-93.865 1.341-.494 14.785 15.174-.106.317-24.313 70.328-10.409 30.136zm-13.338-15.491 12.915 13.479 34.088-98.522-13.833-14.221-.212.071-32.923 99.157z"/>
    <path fill="#fff" d="m337.42 324.402-15.103-15.526 100.675-37.264 15.597 15.562-101.134 37.264zm-13.198-15.103 13.48 13.868 98.946-36.452-13.938-13.903z"/>
    <path fill="#fff" d="m330.645 448.827-28.124-25.231 10.268-29.641 24.419-70.54.247-.071 100.357-36.981.247.247 25.901 25.548-18.808 6.952-77.103 28.548-4.27 1.587-33.064 99.617zm-26.925-25.549 26.395 23.678 32.712-98.557 4.764-1.765 94.358-34.934-24.489-24.137-99.511 36.664-34.264 99.051zm23.361 10.869-14.856-14.186 2.858-8.645 27.312-82.114.247-.106 89.877-33.452 16.056 14.221-9.245 3.493-82.079 30.877zm-13.621-14.468 13.162 12.562 29.818-88.818 90.159-33.911-14.291-12.633-89.066 33.135-28.547 85.819-1.271 3.846z"/>
    <path fill="#fff" d="m324.823 431.993-12.598-12.033 2.858-8.645 27.313-82.114.247-.106 89.877-33.452 13.762 12.138-91.289 34.335-30.135 89.842zm-11.363-12.315 10.904 10.41 29.783-88.748 90.124-33.911-11.963-10.551-89.065 33.135-29.818 89.665zm-55.966-28.406-34.088-35.605.106-.317 36.628-109.321 35.111 36.135-.105.317-26.995 78.021-10.657 30.806zm-32.888-35.887 32.464 33.911 36.946-106.85-33.452-34.405-35.958 107.379zm32.817 23.184-27.912-27.63 30.876-92.065 28.372 27.771-31.3 91.924zm-26.712-27.913 26.254 25.972 6.14-18.032 24.418-71.669-26.677-26.112z"/>
    <path fill="#fff" d="m294.51 282.904-35.111-36.099 109.356-39.451 23.325 23.289 11.963 11.927zm-33.205-35.676 33.488 34.441 107.344-39.522-33.664-33.558-107.168 38.675zm37.828 28.477-27.595-28.336 91.218-33.628 28.583 28.194zm-25.724-27.912 26.006 26.677 86.349-31.617 3.634-1.341-26.924-26.536-20.784 7.657zm-15.985 130.775-27.913-27.63 30.877-92.065 4.234 4.164-29.077 86.631 23.714 23.466-1.871 5.434zm-26.678-27.912L257 376.627l1.094-3.211-23.713-23.466 29.041-86.631-2.54-2.505z"/>
    <path fill="#fff" d="m258.906 374.228-24.56-24.278 29.429-87.76 24.949 24.455-.106.317-24.525 71.987-.6 1.799zm-23.325-24.56 22.866 22.619 29.077-85.36-23.29-22.796-28.689 85.502zm39.91-98.205-3.988-4.093 91.254-33.629 28.582 28.195-4.375 1.588-24.49-24.137-86.983 32.041zm-2.082-3.669 2.364 2.434 86.984-32.041 24.489 24.137 2.153-.776-26.925-26.536-20.784 7.657-68.281 25.16z"/>
    <path fill="#fff" d="m299.133 275.706-24.454-25.089 88.078-32.465 25.301 24.984zm-22.548-24.666 22.831 23.431 86.736-31.759-23.642-23.325-85.89 31.653zm10.48 166.662-11.503-10.304-18.915-16.973 37.546-108.544 22.831-8.399 86.137-31.723 17.785 17.538 10.48 10.339-65.352 24.207-43.227 15.985-33.029 99.475-2.823 8.434zm-29.147-27.595 28.688 25.725 4.306-12.986 31.158-93.865 1.024-.388 106.462-39.416-7.481-7.375-3.388-3.352-15.738-15.491-107.874 39.733-26.889 77.774zm25.336 11.68-16.02-15.315 32.676-98.346.247-.07 97.393-36.24 17.362 15.35-98.946 37.228-32.677 97.428zm-14.821-15.597 14.327 13.692 32.323-96.335 2.259-.847 95.523-35.922-15.562-13.763-2.329.883-94.253 35.075-32.323 97.217z"/>
    <path fill="#fff" d="m315.401 304.57-3.353-3.034 99.44-37.405 3.423 3.035-50.249 18.914-49.226 18.526zm-1.377-2.646 1.588 1.446 1.729-.635 95.524-35.922-1.624-1.447z"/>
    <path fill="#fff" d="m283.254 401.787-3.282-3.14.106-.318 32.747-97.534 3.317 3.035-32.888 97.993zm-2.082-3.422 1.588 1.517 32.111-95.77-1.623-1.482-32.111 95.699zm45.909 35.781-3.105-2.964 30.347-90.371 3.14 2.858zm-1.87-3.247 1.411 1.341 3.741-11.186 25.865-77.103-1.411-1.306-29.606 88.219z"/>
    <path fill="#fff" d="m356.722 344.411-3.176-2.859 91.818-34.546 3.211 2.858-91.888 34.547zm-1.164-2.471 1.411 1.271 89.63-33.7-1.411-1.27-89.595 33.699zm12.986 107.274-2.647-2.541 24.419-72.763 2.682 2.435-.106.318zm-1.447-2.823.952.917 23.714-70.645-.988-.883z"/>
    <path fill="#fff" d="m392.257 377.122-2.717-2.47 73.927-27.806 2.752 2.435-70.539 26.536v.247l-.318-.141-3.105 1.164zm-.706-2.082.953.883 2.505-.953.106-.283.176.071h.106l68.811-25.866-.953-.847-71.704 26.96z"/>
    <path fill="#fff" d="m395.68 376.062-.812-.317.177-.459.211-.529h.071l.353.141z"/>
</svg>
