<svg xmlns="http://www.w3.org/2000/svg" width="550" height="550" fill="none" viewBox="0 0 550 550">
    <path fill="#fff" d="m220.823 443.336.202.14.08.054.082.056.083.056.2.13h.004c-.436.346-.914.717-1.424 1.112-6.094 4.729-16.539 12.832-9.57 19.84 8.213 6.546 28.406 3.083 42.093.736 2.786-.477 5.302-.909 7.393-1.2 2.815-.459 5.524-.76 8.371.059 1.677.486 3.61.482 5.36.232 12.194-1.733 24.37-3.574 36.546-5.424 13.358-5.425 25.975-13.09 38.32-20.62 1.295-.841 2.509-1.668 3.114-3.164.918-2.282 2.714-3.574 4.824-4.76a551 551 0 0 0 19.037-11.203c1.673-1.028 2.887-.814 4.428.054 12.596 7.099 25.216 14.159 37.837 21.22l2.852 1.595q2.983 1.672 5.961 3.354c5.578 3.147 11.156 6.293 16.813 9.291 7.829 4.524 16.895 3.682 24.302-1.455q4.05-2.114 8.1-4.231l.002-.002c9.827-5.135 19.654-10.271 29.526-15.318 9.262-4.374 12.231-14.813 12.112-24.316l.049-5.089c.147-15.267.293-30.534.506-45.801.023-1.46-.396-2.174-1.7-2.751-.796-.349-1.548-.796-2.3-1.242h-.001v-.001h-.002c-.816-.485-1.631-.969-2.499-1.326-2.778-1.137-3.433-3.087-3.396-5.961.344-12.182.36-24.463.375-36.745.022-17.069.044-34.14.948-50.946 1.284-1.615 3.017-2.317 4.656-2.981 2.719-1.102 5.18-2.099 4.91-6.981-.173-14.031.041-28.071.359-42.102.337-22.952-11.257-46.326-31.203-58.197-24.266-13.678-48.566-27.295-72.865-40.911l-.065-.036-.006-.004c-14.522-8.138-29.045-16.275-43.559-24.426-13.462-7.3-26.779-14.91-40.097-22.52-20.806-11.887-41.614-23.776-62.976-34.49-8.382-3.215-14.767.237-21.743 4.008-.979.53-1.969 1.064-2.977 1.588a2690 2690 0 0 0-8.911 4.657h-.001c-7.584 3.975-15.17 7.95-22.842 11.748-9.903 4.355-13.572 15.013-13.345 25.125a92642 92642 0 0 0-.77 83.335v.011c-.354 39.57-.707 79.139-1.135 118.707-.304 11.685 2.942 22.302 7.716 32.805-2.711 1.608-5.633 3.173-8.62 4.773l-.002.001-.002.001-.001.001c-10.569 5.66-21.954 11.757-27.689 21.781-4.057 9.766 8.173 11.05 15.679 11.838h.002c.88.092 1.694.178 2.41.27-.088 7.721.43 15.063.96 22.579v.003c.129 1.83.259 3.671.381 5.53.209 2.637-.532 4.223-2.841 5.669-37.933 22.756-30.872 39.647 12.207 35.191 2.183-.154 3.538.514 4.729 2.356 2.094 3.232 4.25 6.425 6.405 9.619a731 731 0 0 1 5.362 8.017l.141.216c1.682 2.569 3.334 5.091 6.492 6.086.175.054.333.164.612.359zm158.619-26.014c14.415 8.343 28.924 16.424 43.447 24.513l.01.006.011.006.01.006c6.257 3.485 12.516 6.971 18.772 10.481 10.107 6.165 23.447 5.883 28.217-6.679 1.682-4.083 2.218-8.371 2.259-12.744q.235-25.596.46-51.19l.001-.014v-.056c.447-50.271.894-100.54 1.467-150.813.209-22.974-11.112-46.098-31.213-57.751-30.297-16.947-60.57-33.939-90.842-50.93-40.265-22.6-80.529-45.199-120.851-67.693-22.765-12.417-32.231 4.16-30.894 26.03q-.27 28.497-.536 56.993v.046c-.434 46.427-.867 92.854-1.351 139.281-.009 11.208 2.41 21.729 8.007 31.495 1.109-1.511 1.963-3.087 2.794-4.622 1.722-3.181 3.345-6.18 6.949-8.036-.168-56.188.096-112.566 1.582-168.658l238.573 133.803c-.357 21.72-.47 43.456-.582 65.191v.008c-.174 33.394-.347 66.785-1.405 100.114-1.287 5.56-5.847 7.87-11.112 5.71-8.744-4.483-17.28-9.371-25.815-14.26-9.245-5.294-18.489-10.588-27.995-15.366-.219 5.77-3.705 9.09-7.343 12.555l-.001.001h-.001c-.878.837-1.766 1.682-2.618 2.573m74.913-101.162v-.004c.068-16.944.136-33.891.509-50.813.031-2.66-.746-4.183-3.133-5.497-26.766-14.8-53.408-29.835-80.05-44.87l-.005-.003-.009-.005c-36.35-20.513-72.698-41.026-109.359-60.941-.094 12.049-.316 24.114-.538 36.183v.002c-.502 27.286-1.005 54.591-.021 81.774.686 3.128.968 3.196 4.132 2.737a4811 4811 0 0 1 24.293-3.451l.064-.009.086-.012.063-.009.183-.028h.001c.776-.116 1.589-.237 2.295-.047q.976.263 1.956.518h.001l.001.001h.001c2.957.776 5.924 1.554 8.735 2.705 2.546 1.041 4.928 1.409 7.629 1.068 1.653-.169 3.313-.366 4.979-.562 8.679-1.026 17.487-2.066 25.975.535 9.957 3.296 5.633 11.635.332 17 .226.179.413.346.58.494.313.279.552.492.834.593 1.905.686 3.06 2.069 4.151 3.728 2.538 3.863 5.116 7.698 7.695 11.533 2.492 3.707 4.985 7.414 7.441 11.146 1.186 1.8 2.523 2.51 4.728 2.46 9.289-.191 31.372-.523 26.621 14.272-1.634 3.746-4.267 6.367-6.975 9.062-1.256 1.251-2.528 2.517-3.723 3.918l26.889 15.07.35.197c13.986 7.838 27.967 15.674 42.116 23.602.98-24.058 1.077-48.199 1.173-72.344zM218.746 47.928l-.018-.334h.009c5.72-3.151 11.527-6.143 17.336-9.136 5.48-2.823 10.961-5.647 16.369-8.605 5.587-3.014 11.175-3.133 16.927-.941 45.007 24.42 89.639 49.603 134.269 74.785 27.927 15.757 55.853 31.514 83.871 47.084 19.678 11.744 30.881 34.927 30.426 57.583-.317 12.209-.34 24.428-.363 36.643l-.01 4.855c-.004 2.182-.627 3.469-2.646 4.483-3.153 1.583-6.271 3.235-9.389 4.887-3.568 1.891-7.137 3.782-10.757 5.57-2.31 1.141-3.224 2.492-3.228 5.074-.082 33.218-.478 66.441-.887 99.654.096 2.137.687 2.519 2.646 1.523 3.04-1.466 6.005-3.07 8.967-4.673h.001l.001-.001h.001c4.523-2.448 9.042-4.893 13.814-6.838.432 11.241.193 22.531-.047 33.82v.004c-.142 6.737-.285 13.473-.285 20.199-.069 4.188-1.192 8.18-3.288 11.854-1.536 2.696-3.591 4.896-6.342 6.338-4.673 2.335-9.291 4.808-13.908 7.28-7.328 3.924-14.655 7.848-22.197 11.22q.085-.304.145-.56c.085-.346.154-.632.291-.881 2.183-3.979 3.224-8.275 3.397-12.767.941-65.203 1.456-130.421 1.97-195.626v-.01l.089-11.247c.25-27.039-15.554-50.481-39.819-61.944-39.826-22.38-79.673-44.72-119.519-67.06l-.004-.002-.004-.003-.004-.002-.003-.002-.022-.012-.056-.031-.024-.014-.005-.003-.005-.003-.005-.003-.006-.002-.005-.003c-27.213-15.258-54.426-30.515-81.633-45.785-5.038-2.837-10.121-5.474-16.032-6.033zm8.398 357.165h-.001c-4.787.605-9.568 1.209-14.312 2.197h.005l.152 1.773.001.016.001.003.068.791c-.092.055-.179.119-.265.181-.18.131-.35.255-.535.282-2.008.294-4.017.577-6.025.861l-.007.001h-.006l-.006.001-.006.001-.006.001-.006.001q-2.66.373-5.318.757c-1.351.196-2.292-.254-3.051-1.423-1.661-2.557-3.373-5.087-5.085-7.614v-.001l-.001-.002-1.316-1.944c-.823-1.219-1.282-2.483-.586-4.279 2.459.2 4.831.857 7.253 1.528 2.491.69 5.035 1.395 7.783 1.632-.437-8.437-1.385-16.671-2.338-24.941v-.003c-.506-4.394-1.013-8.798-1.445-13.248-.045-.404-.079-.76-.109-1.076v-.002c-.113-1.179-.172-1.789-.495-2.178-.346-.416-.996-.58-2.338-.919l-.471-.119a1043 1043 0 0 0-7.092-1.843l-.005-.001-.023-.006q-1.742-.449-3.53-.912c-.382-3.133-.664-6.884 3.442-6.97 1.971-.147 3.923-.377 5.873-.606 3.249-.382 6.491-.764 9.799-.758l-.374 3.09-.062.515c4.813.046 9.577-.744 14.344-1.534 2.834-.47 5.669-.94 8.516-1.235 2.305-.336 2.387-.486 2.583-2.891.269-3.395.327-3.412 3.219-4.277l.432-.129c3.727-1.146 7.448-2.277 11.163-3.405 9.565-2.906 19.099-5.802 28.647-8.939.91 1.973 1.733 3.76 2.737 5.942 3.652-1.558 7.218-2.961 10.751-4.351l.002-.001c6.268-2.465 12.433-4.89 18.792-8.074l-2.215-2.576-.086-.1-.234-.271-.014-.017-1.557-1.81c4.495-2.588 9.044-4.976 13.593-7.364h.002l.001-.001.001-.001h.001l.001-.001.002-.001c3.951-2.074 7.902-4.148 11.819-6.354 2.565-1.575 3.618-.969 5.237-.037.642.369 1.374.79 2.325 1.147l5.128-8.939c2.151.368 3.519 1.409 4.579 2.983q3.968 5.91 7.944 11.82a7440 7440 0 0 1 17.026 25.394c2.693 3.66.549 7.499-1.471 11.115-.63 1.128-1.247 2.235-1.703 3.307-1.381 2.082-1.463 3.503-1.526 4.601-.075 1.297-.123 2.144-2.261 3.097-36.155 19.796-75.143 34.5-114.885 45.298-2.21.609-4.388 1.028-6.807.805-1.69-.158-3.429.175-5.167.508v.001h-.002c-.772.148-1.543.295-2.31.4-2.718.415-5.44.759-8.159 1.102l-.002.001h-.006l-.001.001zm-8.866-184.474v-.003c.205-30.12.41-60.238 1.037-90.363h.004c7.776 3.92 15.286 8.199 22.803 12.483h.001l.001.001h.001c5.281 3.01 10.566 6.021 15.95 8.912 1.937 1.069 2.605 2.41 2.582 4.588-.277 24.383-.515 48.764-.753 73.147v.044l-.001.017v.05l-.296 30.006q-.012.929-.029 1.859c-.08 4.429-.161 8.89 1.402 13.508-1.425.35-2.84.626-4.241.899h-.001v.001c-3.914.763-7.712 1.503-11.271 3.77l-.704.393-.605.339-1.815 1.015c-7.924 4.433-15.799 8.839-23.897 13.007-.814-1.864-.832-3.647-.814-5.424.337-22.754.491-45.502.646-68.249m130.911 149.415c5.925-3.079 11.845-6.156 17.96-8.834h.005c.714 5.62 1.118 11.214 1.522 16.816v.001c.256 3.563.514 7.13.851 10.709.017.202.016.414.014.628-.006.876-.012 1.802 1.237 2.35.975-.744 1.497-1.809 2.022-2.88.54-1.101 1.082-2.208 2.124-2.981-1.818 3.674-3.634 7.351-5.346 10.817l-2.206 4.465c-4.595 1.924-8.438 4.339-12.353 6.8-2.154 1.355-4.33 2.723-6.666 4.03-1.814 1.05-2.764 2.423-3.273 4.419-.736 2.895-1.54 5.772-2.343 8.647-.581 2.08-1.162 4.158-1.717 6.244-.414 1.555-1.082 2.737-2.692 3.36-4.242 1.534-8.439 3.229-12.635 4.924-6.135 2.477-12.267 4.953-18.528 6.924-1.112-2.37-1.722-4.933-2.347-7.56v-.001c-.594-2.496-1.202-5.051-2.268-7.552-10.384 2.974-20.692 5.924-31.626 9.053 2.371 3.002 5.019 5.236 7.705 7.503 2.078 1.754 4.179 3.527 6.194 5.691-4.734 1.644-9.236 2.728-13.835 3.835h-.001c-2.115.509-4.25 1.023-6.438 1.598-1.668.423-3.137.082-4.646-.709a490 490 0 0 0-6.73-3.448l-.004-.002-.004-.002c-4.058-2.052-8.114-4.104-12.058-6.355-5.188-2.959-10.818-4.395-16.47-5.837l-.894-.228c-3.333-.851-6.106-2.192-8.061-5.275-2.036-3.282-4.18-6.418-6.323-9.553h-.001v-.002h-.001c-2.451-3.586-4.903-7.172-7.193-10.977 2.338-.553 4.527-.828 6.723-1.104 1.691-.212 3.385-.425 5.153-.765 1.933-.387 2.938.314 3.906 1.9 1.874 3.067 3.782 6.112 5.69 9.158l.002.003c2.594 4.142 5.188 8.283 7.698 12.477 1.337 2.228 2.719 2.946 5.333 2.51 3.487-.663 6.958-1.093 10.424-1.522h.003c4.496-.557 8.983-1.112 13.489-2.175l-1.423-2.911-12.722-26.037a2726 2726 0 0 1 12.479-3.735h.001l.003-.001.002-.001c13.18-3.921 26.062-7.754 39.324-12.404 1.936 5.117 3.546 10.313 5.157 15.509 1.639 5.289 3.278 10.577 5.26 15.781 6.277-2.146 12.348-4.718 18.428-7.293h.001c3.749-1.588 7.501-3.178 11.306-4.669 2.15-.886 2.146-.909 1.736-3.279l-.013-.076q-2.435-14.024-4.842-28.053c-.455-2.646-.373-2.688 2.067-3.923l.002-.001c3.986-1.926 7.912-3.967 11.838-6.007m-44.958-88.455c-.723-.471-1.539-1.001-2.449.591l.004.005 17.166 10.69.248.155 7.716 4.804c-2.528 2.906-19.987 12.226-26.921 14.463-5.107-4.962-10.042-10.249-14.92-15.476h-.001v-.001h-.001v-.001l-.001-.001-1.518-1.625c-1.273-1.391-2.318-1.537-3.928-.832-2.335 1.023-4.699 1.988-7.062 2.952l-.002.001-.002.001-.002.001h-.002l-.002.001-.001.001a470 470 0 0 0-4.389 1.808c-2.569 1.077-2.642 1.236-1.669 3.81.927 2.573 1.91 5.085 2.891 7.59 1.614 4.121 3.22 8.223 4.552 12.547-13.476 4.938-26.966 9.175-41.174 12.708.041-4.571.298-9.014.553-13.41.246-4.24.489-8.435.533-12.661-2.593-.164-4.987.229-7.409.627-1.527.251-3.065.503-4.671.619-1.61.182-2.428.859-2.96 2.455a1028 1028 0 0 1-3.944 11.559v.002c-1.506 4.355-3.011 8.711-4.449 13.087-.696 2.119-1.792 3.119-4.006 3.323-1.924.134-3.764.4-5.591.664-2.891.419-5.751.832-8.863.71 3.621-8.17 7.69-16.063 11.763-23.965l.001-.001c2.766-5.364 5.533-10.733 8.164-16.195.996-1.992 2.424-3.328 4.265-4.515 9.252-5.972 19.007-11.031 28.762-16.088l.001-.001q2.165-1.122 4.328-2.248a14.9 14.9 0 0 1 4.546-1.509l1.731-.268 1.759-.273c11.004-1.705 22.011-3.41 33.047-4.874 4.665-.5 9.526 1.223 13.522 3.482.439 1.912 1.925 2.504 3.388 3.087.385.154.769.306 1.132.483 3.579 1.793 7.162 3.478 10.738 5.159l.001.001.002.001c5.355 2.517 10.695 5.028 15.988 7.888-.549.408-1.065.793-1.557 1.161-1.105.825-2.095 1.565-3.098 2.285-1.093.786-2.03.202-2.956-.375l-.1-.062c-4.369-2.714-8.748-5.428-13.121-8.138l-1.073-.665-1.631-1.013c-2.357-1.464-4.714-2.929-7.085-4.369a8 8 0 0 1-.242-.155zm111.199 132.78-.002-.001-.005-.003c-13.785-7.67-27.558-15.334-41.231-23.319 3.193-3.666 2.923-7.666 2.655-11.658q-.036-.518-.068-1.037c-.138-2.256-.265-4.513-.392-6.769v-.005c-.242-4.29-.483-8.581-.799-12.867-.159-2.146.505-3.551 2.269-4.815l.262-.188c4.267-3.057 4.327-3.1 9.14-.403q9.353 5.24 18.705 10.487l.042.024.034.018.001.001h.001l.001.001h.001l.001.001c14.862 8.337 29.725 16.674 44.613 24.959 1.941 1.078 2.664 2.314 2.619 4.51-.114 5.735-.156 11.471-.199 17.207v.02c-.026 3.44-.051 6.881-.092 10.322.391 8.675-4.424 12.689-12.144 7.743-8.461-4.796-16.939-9.513-25.412-14.228m80.935-58.129c-1.06.567-2.158 1.152-3.314 1.751v.005c-.192-17.373.062-34.697.317-52.027v-.009c.173-11.767.346-23.538.379-35.328.013-2.246.823-3.483 2.801-4.406 2.312-1.081 4.573-2.268 6.998-3.54l.003-.002.004-.002.013-.007.007-.003.002-.002a488 488 0 0 1 3.403-1.773c.298 16.453.077 32.882-.145 49.316v.019c-.166 12.366-.333 24.734-.278 37.116-.005 2.669-.75 4.301-3.265 5.41-2.295 1.01-4.515 2.196-6.924 3.482zm-185.553 58.346-2.806 1.157v-.004c-1.391-4.331-2.75-8.569-4.108-12.803l-.052-.163-3.655-11.391 14.852-5.88.181-.072 13.32-5.274c1.054 4.925 1.855 9.77 2.658 14.629v.003c.582 3.521 1.165 7.049 1.847 10.621-7.399 3.055-14.659 6.05-22.18 9.153zm-142.27-3.23c-15.018-5.443 13.308-23.998 19.287-26.78.734 5.435.855 8.614.938 10.804.06 1.566.1 2.625.331 3.642.485 2.129 1.807 4.068 5.899 10.069.651.954 1.372 2.011 2.171 3.188-9.025 1.777-19.824 1.75-28.626-.923m87.369 48.89v.718h.004l-.496.098c-13.129 2.587-27.132 5.347-40.328 1.898-2.997-1.018-3.815-3.001-2.042-5.597 2.842-4.155 6.707-7.47 10.799-10.371 1.373-1.173 2.632-1.063 4.146-.322 3.813 1.913 7.68 3.726 11.547 5.539l.002.001c5.507 2.582 11.015 5.165 16.368 8.036m-52.605-145.889.468.532c-2.138 4.796-4.537 9.48-6.937 14.164l-.001.001v.001l-.001.001v.001c-1.963 3.831-3.926 7.663-5.746 11.557-1.101 2.278-2.583 3.192-4.983 2.91-1.5-.27-3.047-.393-4.595-.515-2.695-.213-5.394-.426-7.863-1.422-10.612-6.502 24.547-24.847 29.658-27.23m29.814 109.295c-2.313-3.554-4.624-7.106-6.376-10.887l.004-.004c2.958-1.189 6.141-1.835 9.325-2.48 2.161-.438 4.324-.877 6.416-1.485 1.432-.346 2.255.023 2.892 1.346 1.188 2.69 2.527 5.328 3.865 7.964 1.973 3.888 3.945 7.773 5.432 11.818-2.76.814-5.637 1.144-8.515 1.475h-.001c-1.818.209-3.638.418-5.428.749-1.31.191-2.319.05-3.092-1.21-1.392-2.477-2.957-4.882-4.522-7.286m-46.173-41.654q.178.265.364.532v.004c-.826.618-2.051 1.452-3.522 2.453l-.001.001-.001.001c-8.983 6.116-27.113 18.46-19.21 25.757 19.264 12.658 84.054-6.028 106.574-12.689l.134-.045c37.153-12.328 89.796-29.796 117.675-57.243 13.335-15.718-11.108-16.291-21.556-16.036l-.018-.292v-.007l-.018-.302c11.203-1.304 36.159.787 22.56 16.941-31.99 31.181-95.416 51.014-138.269 63.549q-2.282.557-4.689 1.151c-23.557 5.801-55.503 13.668-77.864 8.342-13.636-4.219-5.393-15.367 1.996-21.128 5.078-3.892 10.357-7.684 15.845-10.989m184.107-50.424c-1.175-1.61-2.352-3.225-2.836-5.123 5.51-.8 17.404-.164 21.66 3.592 4.593 4.065-2.773 10.747-6.76 14.364-.509.461-.962.872-1.328 1.222-2.465 2.114-6.879.309-7.416-2.91a21 21 0 0 1-.296-3.915c.158-2.868-1.431-5.046-3.024-7.23m-59.333-54.315-.027-.267c7.153-1.386 41.501-5.61 33.872 9.144-14.599 20.192-63.157 37.073-87.141 45.166-1.495.438-3.098.913-4.792 1.415l-.007.002c-22.868 6.778-62.493 18.522-81.747 10.514-7.029-3.797.537-12.071 4.651-15.204 8.348-6.806 17.764-11.894 27.349-16.695.227-.114.527-.087 1.009.245-3.265 2.098-6.753 3.986-10.256 5.881-8.97 4.854-18.038 9.76-23.708 18.389-5.168 9.599 12.457 9.16 18.328 9.014l.273-.007c17.977-.877 35.596-4.847 52.877-9.707 28.526-8.484 84.287-26.353 102.396-49.477 6.136-11.99-19.964-9.416-30.212-8.405h-.001c-1.18.116-2.151.212-2.837.262zm-39.562 35.327-.002-.005c-.659-1.763-1.324-3.543-2.038-5.362l.005.004c.949-.395 1.867-.782 2.764-1.16l.007-.003.012-.005c2.457-1.037 4.752-2.005 7.083-2.883.614-.232 1.741-.077 2.178.359 2.892 2.892 5.724 5.844 8.754 9.002l.002.002.032.033q1.326 1.382 2.71 2.821c-3.764 1.501-7.308 2.916-10.845 4.329l-.064.025-6.7 2.675c-1.457-3.299-2.666-6.534-3.898-9.832m-1.949 150.661-.055-.641.005-.005c3.263-1.106 6.604-1.971 9.946-2.837h.002l.001-.001c2.11-.546 4.22-1.092 6.31-1.699l.018-.005c1.584-.435 3.061-.84 4.465.618.395.414 1.505.419 2.187.232 4.378-1.191 8.734-2.469 13.09-3.76 2.468-.729 2.468-.768 2.486-3.785l.001-.034q9.113-3.523 18.334-7.092l.25-.096 10.66-4.124c.477.659.936 1.291 1.487 2.041-3.515 2.536-7.448 4.564-11.377 6.591h-.001v.001h-.002c-2.439 1.258-4.877 2.516-7.212 3.893q-9.248 5.002-19.573 6.547c-3.835.476-7.664 1.09-11.495 1.704l-.002.001c-6.498 1.042-12.998 2.085-19.525 2.451m-75.659-69.872c-.869.178-1.761.361-2.535.699-.636-8.782-1.112-17.358-1.594-26.067l-.001-.007v-.005c-.2-3.601-.4-7.224-.614-10.895q.948.231 1.736.418l.002.001c2.967.707 4.294 1.024 4.893 1.861.484.677.492 1.694.507 3.535.011 1.475.027 3.48.295 6.261q.145 2.6.285 5.199c.283 5.21.567 10.419.911 15.625.203 2.539-1.772 2.943-3.885 3.375m28.562 52.11-.439-.557-.716.52c-5.317 3.846-16.671 12.06-10.296 18.326 12.538 7.842 44.679.036 61.704-4.098h.001l.001-.001c1.354-.328 2.612-.634 3.757-.907 27.399-7.465 95.162-29.157 109.675-52.823 3.092-7.925-8.457-9.752-13.976-9.007 1.141.364 2.613.607 4.164.862v.001c5.385.887 11.724 1.932 8.498 8.758-11.93 16.677-46.6 30.089-67.377 38.127l-.992.384-1.144.443-.801.311-2.237.755c-27.26 9.206-71.55 24.164-98.458 17.745-9.481-3.815.66-12.198 6.351-16.903l.001-.001c.907-.749 1.701-1.406 2.284-1.935m91.944-166.107c-.04-.112-.097-.274-.19-.508v-.004c8.707-1.36 16.941-1.642 25.434.168 7.493 1.823 2.378 8.198-1.4 11.044-.418.336-1.423.327-1.96.073-6.24-2.971-12.454-5.998-18.667-9.024l-1.133-.552-1.192-.581-.777-.378c-.038-.019-.058-.076-.115-.238m-18.379 155.596q2.015-.562 4.04-1.135h.005c.16.276.3.493.417.675.202.314.338.524.401.757.687 2.525 1.356 5.056 2.073 7.772l.004.014.248.937.239.907c-4.169 1.499-8.182 2.448-12.41 3.448h-.001l-.665.157-.454-.375-.003-.002c-3.463-2.858-6.248-5.158-9.764-8.434 5.477-1.813 10.666-3.265 15.867-4.72h.001zm70.93-24.136c-.771-.438-1.564-.888-2.391-1.351l1.448-2.858c1.086-2.143 2.1-4.143 3.099-6.149.468-.937 1.218-1.228 2.209-1.246 3.756.068 15.486.337 11.744 6.579-1.918 3.401-4.828 5.897-7.988 8.08-.537.372-1.628.473-2.205.182-1.949-.986-3.852-2.066-5.915-3.237zm146.958-54.083c-1.4 1.673-17.691 10.366-21.751 11.598l-.005-.004c.086-.814.032-1.796-.024-2.811-.131-2.384-.272-4.948 1.361-5.923a303 303 0 0 1 11.803-6.17c2.001-.754 4.127.607 6.115 1.879h.001c.867.555 1.708 1.093 2.5 1.431m-152.563 49.558q.142.177.286.351l-1.033 2.069-1.856 3.718-2.899 5.807a303 303 0 0 1-1.221 2.411c-.964 1.892-1.928 3.783-2.803 5.718-.864 1.914-2.378 2.896-4.187 3.674-2.16 1.077-4.742-1.619-3.31-3.629 1.058-1.892 2-3.879 2.943-5.867 1.447-3.052 2.896-6.107 4.768-8.827 2.203-1.451 4.431-2.862 6.659-4.274l.005-.003.005-.003.005-.003 1.098-.696.655-.415.598-.381.276.337.001.002zm-136.46-84.777c1.255-3.601 1.446-3.714 5.784-3.601.123 4.179-.083 8.113-.293 12.133v.001c-.069 1.33-.139 2.669-.198 4.03-.041 1.546-.582 2.419-2.16 2.737-1.937.391-3.861.846-5.985 1.348h-.002l-.003.001-.005.001-.033.008c-.874.207-1.781.421-2.738.642.936-4.056 2.254-7.715 3.594-11.435.69-1.918 1.387-3.852 2.039-5.865m8.216 116.536-.182.209c-3.126-5.006-6.161-9.86-9.191-14.708l-1.695-2.714-4.036-6.457c.289-.12.538-.233.764-.336l.003-.001.002-.001h.001c.423-.192.762-.346 1.117-.435 3.546-.891 3.619-.868 5.588 2.278.977 1.559 1.94 3.129 2.902 4.698 2.045 3.337 4.09 6.673 6.282 9.91 2.302 3.13.661 5.014-1.555 7.557m-22.204-97.759c.886-.242 1.739-.318 2.526-.388h.001c1.746-.155 3.166-.28 3.896-2.139q1.012-2.941 2.032-5.879c1.469-4.236 2.938-8.473 4.356-12.726.444-1.936-.788-2.881-2.203-3.966-.498-.382-1.02-.782-1.498-1.249l-2.498 7.223-.068.196-.025.071c-2.145 6.204-4.264 12.329-6.519 18.857m120.062 67.715c2.61-1.064 2.915-.928 5.383 1.932l-12.342 5.084-14.788 6.092-1.15-3.351c4.703-2.439 9.602-4.38 14.508-6.325h.001c2.805-1.112 5.613-2.225 8.388-3.432m41.539 7.62c-2.178 2.632-12.54 8.852-16.405 9.802l2.514-4.949.215-.422.015-.031.492-.968.069-.136.28-.55 3.913-7.702 2.986 1.662 2.519 1.401zm-79.278-95.389c3.439-1.374 3.446-1.376 6.226 2.264l-4.556 1.875-.289.119-15.828 6.517c-.592-1.423-1.101-2.655-1.683-4.069 3.275-1.75 6.661-3.027 10.064-4.311 2.008-.757 4.022-1.517 6.022-2.377zm78.966 37.406.025-.01c.33 3.777.51 7.359.689 10.926.174 3.463.348 6.912.657 10.511.264 2.756-.855 4.806-2.528 7.243-.103-.305-.205-.564-.295-.795-.168-.429-.297-.757-.323-1.092-.245-2.995-.479-5.991-.713-8.987l-.001-.008-.001-.008v-.008l-.001-.008-.001-.013c-.361-4.615-.721-9.23-1.12-13.842-.209-2.423 1.393-3.046 3.612-3.909m-130.745 80.45q-2.87.378-5.807.775c.95-2.882 2.05-4.692 4.997-4.956 2.618-.238 5.222-.624 7.826-1.01 1.375-.204 2.749-.408 4.127-.59 3.023-.4 3.269-.177 4.119 3.619-5.042.81-10.084 1.477-15.262 2.162m88.762-56.348c-.231-1.384-.485-2.898 2.288-3.188v-.005c1.687 9.489 3.324 18.814 4.87 28.54-2.205-.619-3.124-1.624-3.406-3.274q-.632-3.72-1.27-7.44c-.833-4.873-1.667-9.746-2.481-14.625zm-132.125-21.866q.342-.074.682-.141v.005c.065.093.144.185.223.277.172.199.343.399.368.614.941 8.46 1.861 16.92 2.782 25.387l.002.013.001.012.001.013.002.012.001.012.001.013.661 6.073c-2.828.169-2.987.11-3.146-2.132-.167-3.002-.36-6.004-.553-9.007v-.001c-.453-7.047-.907-14.098-1.025-21.15m83.176 88.471h-.001c-2.501-2.104-5.007-4.212-7.041-6.695 3.097-1.686 3.401-1.682 5.629.26a774 774 0 0 1 7.466 6.574l.258.228c.881.772 1.779 1.559 1.829 2.855-2.247 1.582-2.528 1.673-3.961.436-1.332-1.263-2.753-2.458-4.177-3.655v-.001h-.001zm.819-150.324c1.896.778 12.081 11.039 15.073 15.213l-.005.005c-1.414 1.368-2.51 1.209-3.724-.091a517 517 0 0 0-10.266-10.721c-1.291-1.31-1.591-2.714-1.078-4.406m-14.425 3.972-.288-.816h.005l1.627-.67 2.03-.835 1.856-.764.23-.095.316-.129.999-.411 2.561-1.054 2.502-1.03c.932 4.046.732 4.524-2.3 5.783a638 638 0 0 1-5.529 2.248c-.915.368-1.853.746-2.823 1.139-.279-.795-.527-1.497-.779-2.211l-.01-.027zm-50.919 44.872q1.592-.208 3.176-.406c2.404-.303 4.796-.604 7.176-.98 2.738-.432 2.965-.964 2.037-4.078q-1.512.33-3.032.654c-2.588.555-5.184 1.113-7.766 1.724-1.359.323-1.891 1.332-1.591 3.086m11.502-34.986c.896-.093 1.798-.186 2.72-.341v.005q.057.321.119.633c.286 1.469.536 2.755-.71 3.273-3.56 1.768-5.434.586-8.139-2.287 2.055-.876 4.016-1.078 6.01-1.283m-32.528 83.791-.612-.209c2.624-1.823 4.865-1.705 7.029-.614.391.197.622.712.909 1.354.15.335.316.705.528 1.083-3 .046-5.255-.725-7.854-1.614m174.273-46.937c.391-.659.797-1.344 1.167-2.094 1.505 4.637.559 6.642-2.997 6.861.067-1.794.905-3.207 1.83-4.767m-161.104-1.258c4.219.582 5.324.055 5.251-2.514-3.741-.177-4.696.282-5.251 2.514m90.006-29.171c2.082 3.401 2.728 3.642 4.96 1.823-2.459-3.301-2.646-3.369-4.96-1.823m-5.693 138.396-.218-.641q5.909-1.919 11.817-3.844l.026-.009.025-.008.026-.008c.073.213.15.431.228.645-1.112 1.013-2.517 1.325-3.919 1.637-.657.146-1.313.292-1.937.509-1.379.475-2.792.849-4.206 1.223q-.923.241-1.842.496m9.889-9.244c-3.846.742-7.647 1.637-11.143 3.465 3.928-.486 7.561-1.896 11.143-3.465m-87.578-38.741-.022-.169q1.095-.154 2.191-.305l2.178-.304c-1.237 1.359-2.701 1.618-4.265 1.432l-.035-.272-.017-.138-.002-.02-.014-.115zm159.035-60.661-.147-1.329.965.47.95.463.036.017.955.464-.453.466-.324.335-.267.275v.001l-.675.696-.106-.059-.171-.096-.253-.141q-.181-.101-.361-.204l-.098-.893zm-27.267 65.907q.286 1.9-1.146 3.401l.002-.007.001-.002c.317-.938.635-1.878 1.143-3.392m27.086-19.419-.025.128-.302-.095a22 22 0 0 1-1.289-.433c-.036-.013.045-.477.068-.477a34 34 0 0 1 1.696.095l-.082.443-.065.336zm-148.556 12.729.042.202h.004l-.581.181-.377.118-.983.306-.028-.126-.029-.127-.057-.252.297-.063h.001q.843-.18 1.689-.355zm117.072 23.45.055-.064.651.604-.705.741c-.637-.549-.51-.695-.001-1.281M30.215 268.071c25.484.887 24.466 38.574-.695 38.451-25.362-1.064-24.748-38.401.695-38.451m-.364 1.487c-23.597.6-23.315 35.018.187 35.55 23.179-.832 23.315-34.918-.187-35.55M328.43 513.727c-.381 13.981-20.941 13.672-21.11-.172.546-13.999 20.938-13.768 21.11.172m-1.454-.2c-.446-11.803-18.073-11.725-18.119.287.587 11.967 17.878 11.735 18.119-.287M452.15 206.004c1.755 4.229 2.578 7.343 3.219 12.054v-.005c1.581-1.224 1.401-2.312 1.243-3.263q-.023-.137-.043-.27c-1.245-8.447-5.096-15.29-12.662-19.614-43.706-24.617-87.469-49.137-131.232-73.658l-.019-.011c-26.786-15.009-53.573-30.018-80.346-45.049-4.856-3.274-11.722-3.455-13.768 2.996-1.084 4.51-.996 9.178-.908 13.844.061 3.242.121 6.483-.21 9.672-.241 3.623.895 5.46 4.11 7.238 44.622 24.839 89.154 49.839 133.687 74.839 33.478 18.795 66.955 37.589 100.471 56.314.141.079.281.168.425.258.762.484 1.606 1.019 3.053.288-43.631-25.643-87.965-50.27-132.306-74.901l-.003-.002c-35.489-19.714-70.984-39.431-106.127-59.674 5.29-3.074 10.652-5.818 16.018-8.564 4.396-2.25 8.794-4.501 13.158-6.936 2.35-1.273 4.105-1.16 6.392.137 21.581 12.296 43.274 24.386 64.965 36.477 27.805 15.498 55.608 30.995 83.175 46.922-.924.572-1.918 1.077-2.901 1.577-3.675 1.868-7.185 3.653-6.22 8.503.902 8.019 6.922 11.425 13.307 15.039l.156.088 6.123 3.694a3401 3401 0 0 1 15.392 9.314c2.473 1.514 4.755 1.619 7.361.082 1.332-.712 2.643-1.458 3.951-2.202 3.412-1.94 6.809-3.872 10.539-5.187M238.076 81.527c4.33 2.36 8.634 4.704 12.829 7.51-10.177 5.298-19.922 10.374-29.944 15.594l-1.232.642c-.54-4.494-.398-8.914-.254-13.36.079-2.475.159-4.959.122-7.468.027-1.396.168-2.837.541-4.179 1.137-5.028 6.302-5.42 10.207-3.06 2.575 1.512 5.158 2.92 7.731 4.321m192.195 116.721c3.67 2.241 6.348 6.997 6.307 10.794l.004-.005c-.032 3.233-2.164 4.501-5.06 2.814-6.97-4.093-13.88-8.294-20.789-12.496h-.001l-.001-.001h-.001l-.008-.005a3993 3993 0 0 0-7.144-4.338c-3.687-2.251-5.656-5.643-6.37-9.808-.491-2.323.577-5.656 3.528-4.642 6.371 3.523 12.598 7.35 18.823 11.176 3.563 2.19 7.125 4.379 10.712 6.511m12.031-2.187c3.378 1.896 6.374 4.178 8.457 8.188-4.097 2.183-7.884 4.197-11.922 6.343-.873-6.211-2.882-11.367-8.561-14.545-2.92-1.774-5.85-3.528-8.781-5.282l-.001-.001-.001-.001h-.001c-6.41-3.837-12.819-7.672-19.105-11.716 2.932-2.973 3.937-3.16 7.174-1.346q11.387 6.377 22.769 12.766zm-63.726 80.167c-19.782-.464-19.682-29.367.005-29.704 19.509.296 19.364 29.404-.005 29.704m-13.39-14.795c.382 17.623 26.362 17.495 26.735-.077-.564-17.473-26.362-17.719-26.735.077M319.053 76.241c-4.571 2.324-9.121 4.638-13.666 7.385h-.004c16.358 9.753 33 18.97 49.649 28.19l.001.001c11.138 6.169 22.279 12.339 33.34 18.672 1.196.677 2.273 1.064 3.665.327 4.155-2.195 8.325-4.36 12.495-6.525h.001v-.001c3.085-1.601 6.171-3.203 9.25-4.818.364-.19.663-.501 1.053-.907.214-.224.457-.476.752-.752-15.982-9.31-32.115-18.306-48.252-27.303l-.002-.001-.003-.002c-11.419-6.367-22.84-12.735-34.21-19.216-1.596-.9-2.851-.94-4.465-.081-3.214 1.782-6.414 3.41-9.604 5.031m44.166 19.324c14.768 8.194 29.532 16.386 44.046 25.04-2.591 1.455-5.084 2.684-7.569 3.909-2.297 1.131-4.586 2.259-6.94 3.561-1.719.959-3.046.882-4.738-.078-10.309-5.854-20.65-11.618-30.99-17.382l-.002-.001-.001-.001c-14.296-7.969-28.588-15.936-42.79-24.136 2.73-2.008 5.653-3.454 8.592-4.908 1.986-.983 3.979-1.969 5.926-3.135 1.532-.85 2.723-.686 4.187.137 10.043 5.765 20.162 11.38 30.279 16.994M313.904 84.13c-1.258.659-2.506 1.312-3.961-.362 3.561-2.31 7.35-4.216 11.143-6.123 2.672-1.343 5.345-2.688 7.944-4.176 1.473-.79 2.614-.5 3.937.246 12.613 7.128 25.242 14.201 37.871 21.275 13.48 7.55 26.961 15.101 40.423 22.718-1.103 2.272-2.858 1.207-4.463.233-.419-.254-.827-.502-1.211-.683l-13.235-7.423-.014-.008-.002-.001c-19.451-10.908-38.901-21.815-58.309-32.801-2.301-1.3-4.088-1.45-6.397-.128-3.126 1.79-6.336 3.433-9.546 5.077l-.003.001c-1.375.705-2.75 1.409-4.119 2.124zm-65.717 310.007c-2.032-7.789-3.599-15.65-5.167-23.517v-.002c-.982-4.927-1.965-9.857-3.062-14.774q-.642-3.074 2.387-3.941c3.784-1.061 7.567-2.163 11.352-3.265h.001c6.352-1.85 12.711-3.701 19.087-5.365 1.646 2.287 13.781 36.973 13.885 39.788zm36.228-13.804c-2.343-6.684-4.638-13.225-6.934-19.765l-.137-.39-4.414-12.581c-9.357 2.582-18.323 5.128-27.143 7.77.059 3.942 5.969 31.618 7.265 33.95l14.752-4.224 16.611-4.756zm-42.07-24.957c.091 2.896 3.742 26.384 7.343 35.578.961-1.226.713-2.275.485-3.242a12 12 0 0 1-.108-.482c-.712-3.555-1.455-7.1-2.198-10.646q-.437-2.083-.871-4.167-.42-2.021-.834-4.044v-.002c-.696-3.393-1.392-6.787-2.153-10.167-.047-.207-.073-.436-.101-.671-.105-.911-.222-1.916-1.563-2.161zm97.746-43.902-.003-.005.005.005zm11.47 18.407-11.47-18.407c-4.316 2.03-8.285 4.598-12.267 7.175-2.414 1.562-4.833 3.128-7.337 4.578-2.223 1.386-2.214 1.445-1.027 3.819 2.262 4.412 4.449 8.835 6.633 13.252 3.648 7.375 7.288 14.737 11.258 22.016 4.88-2.987 9.639-5.898 14.382-8.798 3.508-2.146 7.007-4.285 10.538-6.447zm-18.143-10.546c1.928 1.65 16.455 24.529 18.578 29.28v.005l-6.249 3.833-8.159 5.005c-1.851-1.786-14.964-27.566-15.755-30.84 2.23-1.739 4.724-3.191 7.198-4.632 1.49-.868 2.973-1.732 4.387-2.651m12.4 15.254c-3.485-5.535-6.961-11.058-10.286-16.773l2.442-2.295 1.569-1.474c3.933 6.312 7.777 12.487 11.588 18.606l8.108 13.021a8 8 0 0 0-.411.382c-.194.188-.328.319-.489.377q-4.175 1.532-6.47-2.146c-2.002-3.264-4.028-6.483-6.051-9.698"/>
</svg>
