<svg xmlns="http://www.w3.org/2000/svg" width="550" height="550" fill="none" viewBox="0 0 550 550">
    <g class="Wire/Quantum-as-a-service-Illustration-Wire">
        <path fill="#fff" fill-rule="evenodd" d="M440.176 197.579c21.665 12.999 38.657 28.122 50.552 44.944l.085.085c12.489 17.586 18.776 36.363 18.776 55.734 0 19.37-6.287 38.062-18.776 55.733-11.895 16.907-28.887 32.03-50.552 44.944-5.692 3.484-11.809 6.712-18.011 9.771-7.562 8.156-17.077 15.717-28.207 22.344-31.86 19.031-74.085 29.566-118.944 29.566s-87.084-10.535-118.944-29.566c-11.13-6.712-20.56-14.188-28.207-22.344-6.202-3.059-12.319-6.372-18.011-9.771-21.665-12.999-38.657-28.122-50.551-44.944-12.49-17.586-18.777-36.363-18.777-55.733 0-19.371 6.287-38.148 18.776-55.734 11.895-16.907 28.887-32.03 50.552-44.944a273 273 0 0 1 11.13-6.287c8.411-10.28 19.455-19.541 32.964-27.612 14.188-8.496 30.416-15.378 48.342-20.391l-8.666-9.77c-1.078.734-1.587 1.376-2.019 1.921-1.167 1.473-1.777 2.242-11.574 2.242-13.424 0-24.384-10.96-24.384-24.383C155.73 99.96 166.605 89 180.029 89s24.383 10.96 24.383 24.384a24.1 24.1 0 0 1-6.032 15.972l10.79 12.149c3.794-.944 6.871-1.804 9.644-2.579 12.437-3.476 18.738-5.237 56.115-5.237 45.709 0 88.698 10.705 121.068 30.076 13.509 8.071 24.554 17.332 32.965 27.527a229 229 0 0 1 11.214 6.287m-16.227 203.097c.319-.149.637-.297.935-.467l-.085-.255 1.019-.51c1.02-.51 1.954-1.02 2.889-1.614.085-.085.255-.255.34-.425 8.836-12.489 13.338-25.743 13.338-39.506-.085-13.679-4.502-26.933-13.338-39.422-4.418-6.287-9.941-12.234-16.313-17.842l-.085.085c-.554.485-1.107.913-1.707 1.377l-.417.323-.17.17c19.032 16.312 29.057 40.441 29.057 55.478 0 15.038-5.862 29.991-17.077 43.415.127-.042.233-.106.34-.17.106-.064.212-.127.34-.17.297-.17.615-.318.934-.467m-9.855-101.06c6.457 5.607 11.894 11.639 16.397 17.927 9.006 12.828 13.594 26.422 13.594 40.525v.085c0 13.254-4.078 26.083-12.065 38.147 44.519-25.233 71.027-62.275 71.027-98.043s-23.279-69.328-65.589-94.816c6.372 11.045 9.6 20.221 9.6 34.579s-4.673 28.207-13.848 41.206c-5.098 7.221-11.555 14.103-19.116 20.39m-287.76 101.187h.085v.085c.212.128.425.234.637.34s.425.213.637.34c-11.129-13.424-16.992-23.449-16.992-43.415s10.026-39.081 29.057-55.478c-.765-.595-1.53-1.19-2.379-1.87-6.372 5.608-11.895 11.555-16.312 17.842-8.836 12.489-13.339 25.828-13.339 39.506s4.503 27.018 13.339 39.507l.339.51a91 91 0 0 0 4.928 2.633m77.141-67.798c-.933-.255-1.867-.51-2.716-.764l-.17.085-2.549-.765a8 8 0 0 1-.552-.17 8 8 0 0 0-.552-.17c.28.337.598.636.928.948q.256.238.516.496l.085.085 2.039 1.785c.043.042.106.084.17.127s.128.085.17.127c.51.51 1.104 1.02 1.699 1.445.085.085.191.17.298.255s.212.17.297.254c.255.213.531.404.807.595s.552.383.807.595c.17.17.425.34.68.51.297.17.573.361.849.552.277.191.553.382.85.552.17.17.425.34.68.51.428.306.856.568 1.316.849q.268.163.553.34c.16.054.286.141.4.219.068.046.131.09.195.121.424.255.87.51 1.316.765s.893.51 1.317.764c.298.17.595.319.892.468.298.148.595.297.893.467 16.567 8.581 37.807 13.339 60.066 13.339 22.26 0 43.585-4.758 60.067-13.339.297-.17.595-.319.892-.467s.595-.298.892-.468c.16-.053.287-.14.401-.218.067-.046.131-.09.194-.121.481-.241.963-.525 1.414-.79q.28-.165.54-.315.19-.113.36-.21c.268-.154.506-.291.744-.469.213-.128.446-.277.68-.425.234-.149.467-.298.68-.425.17-.128.361-.255.552-.382.191-.128.382-.255.552-.383.213-.127.425-.276.638-.425.212-.148.424-.297.637-.424.425-.255.764-.51 1.104-.765.213-.127.404-.276.595-.425s.382-.297.595-.425l1.019-.764 1.275-1.02.202-.15c.244-.179.445-.328.647-.529l.226-.198c.587-.513 1.115-.974 1.643-1.502l.595-.594 1.019-1.02c-.254.085-.509.149-.764.213-.255.063-.51.127-.765.212-.51.17-1.104.34-1.699.51-1.189.339-2.462.679-3.736 1.019h-.002c-.257.074-.498.131-.731.187-.305.072-.594.142-.883.238-1.36.425-2.719.765-4.164 1.104-.424.17-.849.255-1.274.34-.892.213-1.805.425-2.719.638-.913.212-1.826.424-2.718.637-.255.127-.489.233-.722.34-.234.106-.468.212-.723.339-.594.34-1.189.595-1.784.85-15.972 7.052-35.088 10.79-55.139 10.79-20.05 0-39.166-3.738-55.139-10.79-.057-.028-.113-.066-.17-.104-.113-.075-.226-.151-.34-.151a42 42 0 0 0-.934-.406c-.623-.264-1.246-.528-1.869-.868-.183 0-.34-.049-.487-.094a1.2 1.2 0 0 0-.363-.076c-.722-.17-1.466-.34-2.209-.51s-1.487-.34-2.209-.51c-.475-.095-.924-.217-1.362-.335-.343-.093-.68-.185-1.017-.259-.51-.128-.998-.255-1.487-.383-.488-.127-.977-.255-1.486-.382-.85-.17-1.7-.425-2.549-.68zm71.539 100.593c51.996 0 102.887-10.705 143.328-30.161v.085c12.574-13.848 19.286-25.828 19.286-45.369 0-19.54-9.941-38.402-28.717-54.459-3.993 3.059-8.326 5.947-12.914 8.666-7.731 4.588-16.142 8.751-25.063 12.404l14.613 16.567c1.11-.666 1.504-1.238 1.832-1.716.803-1.168 1.215-1.767 10.742-1.767 13.424 0 24.384 10.96 24.384 24.384s-10.96 24.383-24.384 24.383-24.383-10.96-24.383-24.383c0-6.373 2.379-12.32 6.797-16.908l-15.973-18.096a5 5 0 0 0-.51.17 5 5 0 0 1-.509.17c-3.484 12.234-9.516 23.279-18.012 32.709-2.889 3.229-6.372 6.287-10.45 9.091-9.261 15.123-33.389 25.233-60.067 25.233s-50.806-10.11-60.067-25.233c-3.823-2.634-7.221-5.522-9.94-8.581a2 2 0 0 1-.212-.255c-.064-.085-.128-.17-.213-.255-8.411-9.43-14.528-20.475-18.011-32.709-11.81-4.248-22.685-9.431-32.54-15.293-4.588-2.719-8.921-5.607-12.914-8.666-18.776 16.058-28.716 38.657-28.716 54.459s6.626 31.521 19.286 45.369c40.441 19.456 91.332 30.161 143.327 30.161m-52.08-59.472-2.294-1.274h-.085c-.085-.085-.255-.17-.425-.255-.51-.255-1.02-.51-1.529-.85 10.195 12.829 32.2 21.155 56.328 21.155 24.129 0 46.049-8.411 56.329-21.155a77 77 0 0 1-4.503 2.464c-.085 0-.149.042-.213.085-.063.042-.127.085-.212.085-.85.51-1.784.934-2.719 1.359-12.234 8.581-29.906 13.509-48.682 13.509s-36.533-4.928-48.682-13.509l-2.549-1.274a3 3 0 0 1-.382-.17 3 3 0 0 0-.382-.17m18.725 7.035c-.305-.073-.594-.142-.884-.238h.255c-1.189-.34-2.294-.68-3.398-1.02-.085-.085-.255-.085-.34-.085.849.425 1.699.85 2.634 1.19.085 0 .17.042.255.085.084.042.169.085.254.085.383.127.765.276 1.147.424.383.149.765.298 1.147.425q.068.035.122.067c.1.058.179.103.303.103a54 54 0 0 0 5.607 1.784c.17.085.34.17.51.17.85.255 1.699.51 2.549.68.17.085.255.085.425.085 1.954.425 3.993.849 6.032 1.189h.51l.373.069c.791.145 1.537.283 2.345.356h.425c2.124.255 4.248.425 6.372.595h.51c.935.17 1.869.17 2.804.17h7.136c1.105-.085 2.209-.17 3.314-.17 2.209-.17 4.418-.425 6.627-.68 1.104-.17 2.209-.34 3.228-.51h.085a70 70 0 0 0 6.372-1.274c.51-.127.998-.255 1.487-.382.488-.128.977-.255 1.487-.383h.17l.935-.283c1.662-.502 3.354-1.014 4.927-1.586.467-.17.913-.34 1.359-.51s.892-.339 1.36-.509h.17c.906-.33 1.813-.74 2.72-1.152-.117.047-.187.047-.257.047-1.104.34-2.209.68-3.398 1.02-.255.085-.51.148-.765.212a10 10 0 0 0-.764.213h-.001c-.849.254-1.699.509-2.548.679-.212.043-.446.106-.68.17-.233.064-.467.128-.679.17l-3.569.765c-.447.149-.959.232-1.423.308l-.191.032a38 38 0 0 1-1.359.212c-.446.064-.892.127-1.36.212q-.297.045-.594.104c-.397.076-.793.151-1.19.151-.552.085-1.104.149-1.657.213a43 43 0 0 0-1.656.212c-.51.085-1.105.17-1.7.17-.298.027-.605.063-.915.099-.661.077-1.337.156-1.973.156-.68.085-1.36.17-2.039.17-1.02.085-2.124.17-3.144.17h-11.894c-1.02-.085-2.124-.17-3.144-.17-.679-.085-1.359-.17-2.039-.17-1.019-.085-1.954-.17-2.888-.255-.298 0-.595-.043-.892-.085a6 6 0 0 0-.893-.085c-1.104-.085-2.208-.255-3.313-.425l-1.784-.255c-.809-.073-1.555-.21-2.346-.356l-.373-.068a12 12 0 0 0-1.699-.34 235 235 0 0 1-1.742-.383c-.573-.127-1.147-.255-1.741-.382a7 7 0 0 1-.723-.17 7 7 0 0 0-.722-.17c-.425-.127-.849-.233-1.274-.34-.425-.106-.85-.212-1.275-.339a16 16 0 0 0-.73-.187m145.927-30.229h-1.274c-.595-.17-1.275-.51-1.699-1.02l-2.889-3.228c-.792.825-1.514 1.449-2.163 2.009-2.69 2.323-4.124 3.561-4.124 13.623 0 12.49 10.195 22.685 22.684 22.685s22.685-10.195 22.685-22.685-10.196-22.684-22.685-22.684c-3.993 0-7.901 1.02-11.384 3.059l2.633 2.973v.085c.085.085.17.255.17.255.085.085.17.17.17.255.085.085.085.17.085.255q.05.096.093.162c.045.073.077.125.077.178v.17c.085.339.085.679.085 1.019-.085.85-.425 1.614-1.104 2.209h-.085c-.085.085-.255.255-.34.255-.085.085-.255.255-.425.255-.17.17-.34.17-.51.17m-2.803-8.071-15.463-17.502-.085-.17c-.755.343-1.51.631-2.355.953l-.619.236 16.058 18.182 3.483 3.993q.05.05.101.107c.139.153.289.318.494.318.51.17 1.104.085 1.529-.255q.51-.383.51-1.02c.085-.424-.085-.764-.34-1.104zM194.09 330.456a2.2 2.2 0 0 1-.298-.339v-.255h-.17a8.4 8.4 0 0 1-1.359-.425c.085.085.255.255.255.34.042.085.106.17.17.255s.127.17.17.255c.085.127.191.254.297.382.106.127.213.255.297.382.085.085.255.255.34.425.128.127.234.255.34.382.106.128.213.255.34.383.042.085.106.148.17.212a.8.8 0 0 1 .17.212c.127.128.255.277.382.425.128.149.255.298.382.425l.34.34c.255.34.595.68.935 1.019l.255.255c.425.383.849.786 1.274 1.19s.85.807 1.275 1.189c.042.043.106.085.169.128s.128.085.17.127c.17.127.34.276.51.425s.34.297.51.425c.085.085.255.254.425.339.17.128.318.255.467.383.149.127.297.255.467.382.085.085.17.149.255.212.085.064.17.128.255.213.17.127.319.234.467.34s.298.212.468.34q.102.067.188.121c.158.1.282.179.406.303.17.128.319.234.468.34.148.106.297.213.467.34.085.085.191.149.297.212.106.064.213.128.298.213.159.159.35.285.555.419.123.081.251.165.379.261.085.084.191.148.298.212s.212.127.297.212c.17.128.34.234.51.34s.339.213.509.34c.085.042.17.106.255.17s.17.127.255.17c.34.255.765.51 1.19.765.085.042.148.084.212.127s.127.085.212.127c.298.17.574.34.85.51s.552.34.85.51c.17.085.361.191.552.297s.382.213.552.298c.1 0 .199.058.282.106.058.034.108.064.143.064 15.887 8.58 36.363 13.423 57.943 13.848h5.607c21.155-.34 41.206-4.928 57.008-12.999l2.039-1.019 1.105-.595c.255-.17.531-.319.807-.467s.552-.298.807-.468c.16-.053.286-.14.401-.218.067-.046.13-.09.194-.121q.19-.114.359-.21c.268-.154.507-.291.745-.47.128-.085.234-.149.34-.213.106-.063.212-.127.34-.212.17-.085.318-.191.467-.297.149-.107.297-.213.467-.298.179-.059.316-.161.47-.275q.097-.073.21-.15c.128-.084.276-.191.425-.297s.297-.212.425-.297c.127-.085.233-.17.34-.255a5 5 0 0 1 .339-.255c.128-.085.276-.191.425-.297.149-.107.298-.213.425-.298s.234-.17.34-.255.212-.17.34-.254c.127-.085.255-.192.382-.298s.255-.212.382-.297c.085-.085.191-.17.298-.255s.212-.17.297-.255c.127-.127.255-.234.382-.34.128-.106.255-.212.383-.34.085-.085.191-.17.297-.255s.212-.169.297-.254l.203-.15c.244-.18.445-.328.647-.53.085-.085.17-.149.255-.212.085-.064.17-.128.255-.213.17-.127.318-.276.467-.425s.297-.297.467-.424c.17-.085.255-.17.34-.255l1.19-1.19.424-.425.765-.764c.085-.17.255-.34.425-.51.255-.17.51-.425.68-.68.084-.17.254-.34.424-.509.17-.17.425-.425.595-.68.085-.085.149-.17.212-.255.064-.085.128-.17.213-.255.255-.255.425-.51.595-.765.085-.084.148-.169.212-.254s.127-.17.212-.255c.043-.085.107-.149.16-.202s.095-.096.095-.138l-1.529.51c-.425.509-.85.934-1.274 1.359-.17.255-.34.425-.51.595-.51.425-1.02.934-1.53 1.444l-.509.51-1.784 1.529a1 1 0 0 0-.08.096c-.065.084-.142.185-.26.244-.34.297-.701.573-1.062.85-.361.276-.722.552-1.062.849l-.17.17c-3.144 2.464-6.627 4.673-10.45 6.797-.595.255-1.19.595-1.784.934-16.738 8.751-38.317 13.509-60.832 13.509-14.103 0-27.782-1.869-40.186-5.437a55 55 0 0 1-1.784-.553c-.595-.191-1.19-.382-1.784-.552h-.085c-5.947-1.869-11.64-4.163-16.822-6.882h-.17c-.595-.255-1.19-.594-1.784-.934-3.739-2.039-7.052-4.248-10.111-6.542-.042 0-.085-.043-.127-.085-.043-.043-.085-.085-.128-.085a25 25 0 0 0-.892-.722c-.297-.234-.594-.467-.892-.722-.085-.085-.17-.149-.255-.213a2 2 0 0 1-.254-.212 22 22 0 0 1-.765-.68c-.255-.233-.51-.467-.765-.68-.116-.174-.272-.308-.413-.43-.065-.057-.128-.11-.181-.164l-1.275-1.275-.68-.679a17 17 0 0 1-.594-.637 17 17 0 0 0-.595-.638c-.085-.127-.191-.233-.297-.34m-4.206-1.359c-.17-.085-.255-.255-.34-.425v-.425l-.764-.254c-.085-.085-.255-.085-.34-.085 3.483 11.469 9.261 21.834 17.332 30.84l.424.425c2.634 2.974 5.948 5.777 9.771 8.411.103.103.237.175.383.253.096.051.196.105.297.172a83 83 0 0 0 9.43 5.267c.255.085.595.255.935.425 13.848 6.287 30.415 9.601 47.917 9.601s34.069-3.314 47.833-9.601a76 76 0 0 0 11.044-6.117c4.079-2.719 7.477-5.692 10.281-8.836 8.071-8.921 13.848-19.286 17.332-30.84-.17.085-.362.148-.553.212s-.382.127-.552.212c-.042.085-.106.17-.17.255s-.127.17-.17.255c-.085.128-.17.234-.255.34s-.17.212-.255.34c-.085.127-.17.234-.254.34a5 5 0 0 0-.255.34 5 5 0 0 1-.255.339c-.085.107-.17.213-.255.34s-.17.234-.255.34-.17.212-.255.34c-.085.127-.17.234-.255.34s-.17.212-.255.34c-.17.17-.425.424-.594.679-.085.085-.17.191-.255.298s-.17.212-.255.297c-.128.127-.234.255-.34.382a5 5 0 0 1-.34.383c-.085.085-.17.191-.255.297s-.17.212-.255.297c-.169.255-.424.51-.679.765l-.51.51-.765.764-.509.51c-.128.128-.277.255-.425.382-.149.128-.298.255-.425.383l-.51.51c-.17.127-.318.254-.467.382-.149.127-.297.255-.467.382-.085.085-.17.149-.255.213-.085.063-.17.127-.255.212l-1.02.765c-.085.085-.17.148-.254.212-.085.064-.17.127-.255.212-.425.34-.765.595-1.105.85-.085.085-.255.255-.425.34a6 6 0 0 0-.594.425c-.192.148-.383.297-.595.424-.17.17-.255.255-.425.34-.425.34-.849.68-1.274.935-.085.085-.255.255-.34.255l-1.529 1.019c-.085.085-.17.085-.17.085-1.19.765-2.379 1.444-3.568 2.124h-.001q-.178.108-.34.212c-.281.179-.543.346-.849.468-1.614.934-3.398 1.784-5.182 2.633l-.001.001c-15.462 7.221-34.408 11.299-54.374 11.639h-5.607c-20.646-.425-40.271-4.843-55.989-12.574a64 64 0 0 0-1.316-.682c-.656-.333-1.3-.66-1.913-1.017-.168-.101-.337-.189-.5-.274a5 5 0 0 1-.689-.406c-4.248-2.379-8.071-4.927-11.385-7.731h-.085c-.212-.17-.403-.34-.594-.51-.192-.17-.383-.34-.595-.51-.085 0-.255-.17-.255-.17-.34-.254-.68-.594-1.019-.934a.8.8 0 0 0-.244-.26q-.057-.042-.096-.08c-.17-.127-.319-.276-.468-.425-.148-.148-.297-.297-.467-.425l-.425-.424a8 8 0 0 1-.382-.425 7 7 0 0 0-.382-.425l-.425-.425-.765-.764c-.085-.17-.255-.34-.425-.51a6 6 0 0 1-.339-.382c-.107-.128-.213-.255-.34-.383-.085-.17-.255-.34-.425-.51-.085-.127-.191-.254-.297-.382a5 5 0 0 1-.298-.382c-.085-.085-.148-.17-.212-.255a2 2 0 0 0-.213-.255 5 5 0 0 0-.297-.382c-.106-.128-.212-.255-.297-.383q-.068-.101-.122-.188a2.2 2.2 0 0 0-.303-.406c-.17-.34-.34-.595-.51-.85m-83.94 28.971c0-14.103 4.587-27.697 13.593-40.525v.084c4.503-6.287 9.941-12.319 16.398-17.926-7.562-6.287-14.019-13.169-19.116-20.39-9.176-12.999-13.849-29.312-13.849-41.206s3.229-23.534 9.601-34.579c-42.905 25.828-65.59 58.538-65.59 94.816 0 19.201 6.712 37.892 19.966 55.309 12.234 16.057 29.396 30.415 51.061 42.649-7.986-12.149-12.064-24.128-12.064-38.232m118.434-20.305c14.953 5.947 32.37 9.091 50.636 9.091h.085c18.266 0 35.683-3.144 50.636-9.091-16.397 3.059-33.474 4.588-50.721 4.588s-34.324-1.529-50.636-4.588m182.239-40.356.085-.085 1.02-.765c-4.503-3.483-9.431-6.796-14.613-9.94-9.091-5.437-19.201-10.195-29.991-14.273.085.17.17.425.17.594.254.68.424 1.36.594 2.04a3 3 0 0 0 .116.348c.071.19.139.371.139.586 15.803 6.032 29.651 13.679 41.121 22.515.212-.17.446-.34.68-.51.233-.17.467-.34.679-.51m-51.231 26.168c.34-.107.68-.213 1.02-.34l-.17.255 2.294-.765c.212-.085.446-.17.68-.255.233-.085.467-.17.679-.255.085-.085.17-.255.255-.424.85-1.53 1.614-2.974 2.209-4.503.935-2.464 1.614-5.013 1.954-7.562l.026-.203c.075-.598.144-1.14.144-1.751v-.255c-.085-.34-.085-.764-.085-1.104v-.085c-.085.255-.191.488-.297.722s-.213.467-.298.722q-.034.068-.066.122c-.058.1-.104.179-.104.303l-.174.416c-.2.483-.412.993-.675 1.453a13 13 0 0 1-.578 1.127c-.15.272-.303.55-.442.827-.085.128-.17.276-.255.425s-.169.297-.254.425c-.128.17-.234.361-.34.552a5 5 0 0 1-.34.552c-.85 1.36-1.784 2.634-2.889 3.993-.51.595-.934 1.105-1.444 1.7-.043.042-.085.106-.128.169s-.084.128-.127.17c-.425.51-.934 1.02-1.444 1.53l-.085.085c-.337.393-.711.749-1.098 1.117-.198.189-.4.38-.601.582 0 .085-.17.17-.17.17-.445.445-.89.825-1.392 1.253l-.223.191c-.085 0-.17.085-.17.085.213-.085.447-.149.68-.212.234-.064.467-.128.68-.213.609-.135 1.165-.325 1.753-.525q.224-.077.456-.154c.34-.128.679-.234 1.019-.34m-160.149.255 3.313 1.019-.17.085c.096.032.18.076.261.119.134.07.26.136.419.136-.17-.17-.361-.34-.552-.51s-.383-.34-.553-.51a4 4 0 0 0-.297-.254 4 4 0 0 1-.297-.255c-1.445-1.36-2.804-2.719-3.993-4.078-.085-.17-.255-.34-.425-.51l-1.275-1.529c-.085-.128-.17-.234-.255-.34a5 5 0 0 1-.254-.34c-.425-.51-.765-1.02-1.105-1.529-.06-.179-.161-.316-.275-.47q-.073-.097-.15-.21a19 19 0 0 1-1.104-1.699l-.255-.51c-.425-.765-.85-1.529-1.19-2.294v-.17c-.262-.46-.474-.97-.675-1.453q-.088-.213-.174-.416-.031-.06-.071-.132c-.085-.154-.184-.333-.184-.463-.255-.51-.425-1.019-.595-1.529-.085-.085-.085-.255-.085-.255v1.954c0 .351.046.703.09 1.042.041.317.08.625.08.912.34 2.209.85 4.333 1.614 6.457v.085q.094.23.208.486c.134.305.278.632.387.958v.17l.112.287c.136.355.283.74.483 1.073.085.085.17.17.17.255.127.212.233.424.34.637.106.212.212.425.34.637q.049.096.092.162c.045.073.077.125.077.178.085.17.192.34.298.51s.212.339.297.509c.14 0 .255.052.358.098a.6.6 0 0 0 .237.072c.595.213 1.168.404 1.742.595.573.191 1.147.382 1.741.595.213.085.425.148.637.212s.425.128.638.213m-52.845-27.273.084.085h.17c.454.397.982.793 1.511 1.19.264.198.528.396.783.595 11.47-8.836 25.318-16.398 41.121-22.515.085-.17.085-.255.085-.425l.765-2.803c.085-.17.085-.255.085-.425-10.79 3.993-20.901 8.836-29.991 14.273a158 158 0 0 0-14.613 10.025m82.92-136.87c16.228-2.039 32.88-3.144 49.702-3.144h-.085c31.52 0 62.106 3.654 90.822 10.96 16.483 4.163 32.03 9.431 46.389 15.718-31.011-27.103-81.732-43.16-137.211-43.16-20.985 0-41.545 2.294-60.916 6.882zm137.976 144.772c.085-.17.17-.34.17-.51l.169.085c.17-.34.255-.765.34-1.19.085-.17.17-.424.17-.594.17-.68.34-1.36.425-1.954.084-.558.158-.622.221-.675.127-.108.204-.173.204-4.338 0-6.202-.765-12.404-2.209-18.436l-.001-.002c-.509-1.869-1.019-3.737-1.613-5.606-1.492-4.391-3.144-8.297-4.801-11.639.043.136.043.263.043.425l.052.15c.065.179.118.328.118.529.085.255.085.51.085.765.085.255.085.425.085.68.085.254.085.509.085.764v2.804c0 1.019-.085 2.124-.17 3.228-.17 1.615-.51 3.229-.935 4.843-.071.213-.127.411-.181.6a7 7 0 0 1-.244.759 21 21 0 0 1-1.274 3.229 3 3 0 0 1-.17.382 3 3 0 0 0-.17.383 23 23 0 0 1-1.529 2.803c-.043.085-.106.17-.17.255s-.128.17-.17.255c-2.379 3.908-5.692 7.561-9.77 10.96l-.383.301c-1.079.85-2.226 1.752-3.441 2.588-4.248 3.058-9.175 5.777-14.528 8.071-14.103 6.117-30.925 9.345-48.597 9.345s-34.494-3.228-48.597-9.345c-13.169-5.693-23.024-13.424-28.462-22.43a23 23 0 0 1-1.529-2.803 30.7 30.7 0 0 1-2.039-5.268c-.425-1.614-.765-3.228-.935-4.843-.169-1.104-.169-2.209-.169-3.228v-1.699c.084-.425.084-.85.084-1.275v-.34c.085-.424.17-.849.17-1.274v-.255l.255-1.529a84 84 0 0 0-4.842 11.894 59 59 0 0 0-1.53 5.523c-1.444 6.117-2.209 12.234-2.209 18.436 0 1.614.17 3.313.425 5.013.085.594.255 1.274.425 1.954a37 37 0 0 0 2.549 7.051 57 57 0 0 0 2.549 4.333c.084.085.084.17.084.17.227.397.529.793.831 1.19.151.198.302.396.444.594.042.085.085.149.127.213.043.064.085.127.128.212.252.442.598.836.933 1.219q.176.199.341.395c.17.255.34.425.51.595.212.255.446.489.68.722.233.234.467.468.679.723.17.254.34.424.595.679.286.344.611.649.922.941q.228.211.437.419l.765.764c.425.34.935.765 1.359 1.19.17.127.319.255.468.382.148.127.297.255.467.382.255.17.488.361.722.553.234.191.467.382.722.552l1.02.764c5.607 1.53 11.299 2.974 17.162 4.163.849.17 1.678.34 2.506.51s1.657.34 2.506.51c15.888 2.889 32.54 4.418 49.362 4.418s33.389-1.444 49.362-4.418c1.699-.34 3.398-.68 5.013-1.02 5.862-1.189 11.639-2.548 17.162-4.163.169-.127.361-.276.552-.424.191-.149.382-.298.552-.425 0-.085.17-.17.17-.17 3.313-2.634 6.202-5.438 8.581-8.411 1.019-1.19 1.954-2.549 2.804-3.823q.113-.19.209-.36a7 7 0 0 1 .47-.745 7 7 0 0 0 .255-.425c.085-.148.17-.297.255-.424.17-.298.34-.616.51-.935s.34-.637.51-.935c.594-1.104 1.019-2.208 1.444-3.312v-.171c.085-.212.148-.425.212-.637s.128-.425.213-.637m-140.524-137.89c-35.938 5.012-69.668 15.377-97.704 29.905h-.085c-10.45 13.084-15.718 20.731-15.718 41.546s10.96 40.611 31.605 57.433a143 143 0 0 1 15.123-10.365c9.516-5.693 20.136-10.705 31.52-14.868 4.928-15.208 12.659-24.129 12.999-24.469 3.653-4.673 8.581-9.006 14.698-12.829 5.183-6.032 19.371-20.22 44.095-24.978l-1.194-1.352c-.366-.016-.431-.03-.037-.042zm37.513 39.954-65.38-74.108s.085 0 .17-.085l.085.17c.127-.085.255-.192.382-.298s.255-.212.382-.297c.085-.085.17-.149.255-.213.085-.063.17-.127.255-.212.128-.127.255-.234.382-.34.128-.106.255-.212.383-.34 0 0 .085 0 .085-.085l10.96 12.405 3.568 3.993 12.489 14.103 3.568 4.078-.17.17h.34l36.177 41.045c-1.672.003-2.962.008-3.931.014m.116.132.688.779c.255-.085.424-.085.679-.085.383-.042.786-.106 1.19-.17.403-.063.807-.127 1.189-.17h.51l-.226-.256c-1.019-.029-2.201-.056-3.282-.081zm6.465.27-.065-.074c.273.024.326.048.065.074m-.371-.42-36.077-40.871c14.613-1.699 29.566-2.634 44.519-2.634 55.139 0 108.324 11.895 149.87 33.474 10.45 13.084 15.717 27.103 15.717 41.546 0 20.73-10.96 40.611-31.605 57.433a143 143 0 0 0-15.123-10.365h.17c-9.515-5.693-20.135-10.705-31.52-14.868-4.843-14.953-12.404-23.789-12.999-24.384-3.653-4.758-8.581-9.006-14.698-12.829-5.352-6.372-25.063-26.507-59.812-26.507-3.396 0-6.18.001-8.442.005m59.503 75.864c-.085.085-.17.17-.255.17l.255.17c-4.928 3.228-10.62 5.947-16.822 8.071-6.372 2.209-13.254 3.738-20.56 4.588a116.8 116.8 0 0 1-26.678 0c-21.58-2.549-40.016-11.3-49.277-23.449a23 23 0 0 1-1.784-2.549c-.17-.17-.255-.34-.34-.51a34 34 0 0 1-2.039-3.908c-1.444-3.398-2.209-7.731-2.209-10.45s.425-5.522 1.36-8.326c0-.085.042-.191.085-.297.042-.106.085-.213.085-.298v-.17c.085-.212.191-.446.297-.679s.212-.468.297-.68c.085-.085.085-.255.085-.255-.085.128-.191.255-.297.383a5 5 0 0 0-.297.382c-.255.255-.51.51-.68.764v.001c-.425.509-.85 1.019-1.189 1.529-.085.085-.17.255-.17.255-3.908 5.522-5.863 11.384-5.863 17.331 0 .935.085 1.955.17 2.974.17 1.529.51 3.059.935 4.503.255.935.595 1.954 1.019 2.974q.15.33.302.672c.328.738.668 1.502 1.058 2.216 4.927 9.261 15.038 17.417 28.376 23.024 12.744 5.353 27.697 8.157 43.245 8.157s30.501-2.804 43.245-8.157c6.117-2.548 11.469-5.607 16.057-9.09.595-.425 1.19-.935 1.784-1.445l1.785-1.529c3.738-3.398 6.711-7.137 8.75-10.96.51-.934.935-1.869 1.36-2.888.425-.935.764-1.955 1.019-2.974.425-1.444.765-2.974.935-4.503.093-.559.135.414.154.414.016-.001.016-.662.016-3.388q0-9.048-5.862-17.331l-.303-.407a26 26 0 0 0-1.142-1.462 1.3 1.3 0 0 1-.127-.17c-.043-.064-.085-.128-.128-.17-.17-.17-.318-.34-.467-.51s-.297-.34-.467-.51q.034.068.066.122c.058.1.104.179.104.303 0 .085.042.17.085.255.042.085.085.17.085.255.085.425.254.849.424 1.274.085.085.085.17.085.255.935 2.719 1.36 4.673 1.36 8.241s-.765 7.052-2.209 10.45c-.595 1.275-1.275 2.634-2.039 3.908-.17.17-.255.34-.34.51q-.765 1.275-1.784 2.549c-.255.297-.51.616-.765.934s-.51.638-.765.935l-.169.17c-.51.595-1.105 1.189-1.7 1.784l-.17.17c-.308.264-.616.551-.935.848a39 39 0 0 1-.934.851c0 .085-.17.17-.17.17-.339.298-.679.574-1.019.85s-.68.552-1.02.849c-.17.17-.424.34-.679.51-.935.765-1.954 1.444-2.974 2.124-.085.085-.17.17-.255.17m26.187-4.333c.075-.113.151-.226.151-.34l.085-.34a20.4 20.4 0 0 0 1.274-3.143c.17-.425.34-.85.425-1.275.425-1.444.765-2.973.935-4.502.094-.567.136.573.155.573.014 0 .014-.728.014-3.632 0-6.542-2.378-12.829-6.966-18.776-2.719-3.399-6.032-6.627-10.111-9.601.128.17.234.34.34.51s.213.34.34.51l.085.085c.68.594 1.274 1.189 1.869 1.784l.085.085.001.001c.594.594 1.189 1.189 1.698 1.783a42 42 0 0 1 3.144 3.823c4.078 5.778 6.202 11.895 6.202 18.267 0 .946-.073 1.892-.152 2.907l-.018.236c-.17 1.615-.51 3.229-.935 4.843-.339 1.105-.679 2.209-1.104 3.228s-.935 2.04-1.444 3.059c-2.124 3.993-5.183 7.816-9.091 11.385-.34.255-.765.594-1.104.934-.85.765-1.7 1.445-2.549 2.124-4.673 3.569-10.196 6.712-16.398 9.346-12.914 5.437-28.121 8.326-43.924 8.326-15.802 0-31.01-2.889-43.924-8.326-13.764-5.777-24.129-14.188-29.227-23.789-.509-1.019-1.019-2.039-1.444-3.059-.425-1.019-.765-2.039-1.104-3.143-.425-1.614-.765-3.228-.935-4.843-.093-.606-.135.427-.154.427-.016-.001-.016-.698-.016-3.57 0-6.372 2.124-12.489 6.202-18.267 1.445-2.039 3.144-3.993 5.013-5.862.297-.297.616-.573.934-.85.319-.276.638-.552.935-.849.127-.17.234-.34.34-.51s.212-.34.34-.51q-6.117 4.46-10.196 9.686c-.934 1.104-1.699 2.294-2.378 3.398-3.059 4.928-4.588 10.11-4.588 15.378 0 1.019.085 2.039.17 3.059.17 1.444.509 2.973.934 4.502.51 1.7 1.19 3.399 1.954 5.013.425.85.85 1.699 1.445 2.634 5.267 8.666 14.868 16.227 27.697 21.75 13.933 6.032 30.5 9.175 47.917 9.175s33.984-3.143 47.918-9.175c5.267-2.294 10.025-4.928 14.188-7.902 1.064-.665 2.023-1.434 2.961-2.184q.39-.314.777-.619c3.993-3.314 7.222-6.967 9.601-10.79l.085-.17c.594-.935 1.019-1.784 1.444-2.634.028-.057.066-.113.104-.17m-168.58 17.077c0-5.777.595-11.555 1.869-17.247v-.17c-15.038 5.863-28.206 13.169-39.251 21.58 10.96 7.986 23.958 14.953 38.487 20.56-.765-3.993-1.105-7.051-1.105-8.75v-5.608c0-1.699.17-3.398.425-5.182-.08-.532-.151-.673-.212-.792-.133-.262-.213-.42-.213-4.391m182.834 16.058c-.085 1.614-.34 4.163-.849 7.476v.085l.849.935c14.188-5.523 26.678-12.32 37.383-20.136-11.045-8.411-24.214-15.718-39.252-21.58 1.189 5.692 1.869 11.47 1.869 17.247 0 1.699-.17 3.398-.425 5.183.255 1.699.425 3.483.425 5.182zm-32.879-77.059c-5.098-6.117-24.384-25.998-58.538-25.998v-.255c-2.804 0-5.607.17-8.411.425-1.784.17-3.653.425-5.522.765-25.148 4.332-39.592 18.776-44.604 24.808-1.36 1.699-2.634 3.398-3.739 5.097-.764 1.19-1.359 2.294-1.954 3.399-.118.178-.195.355-.26.504l-.079.176c-.085.254-.17.424-.255.594-.34.68-.595 1.36-.85 2.039-.085.17-.17.425-.17.595-.85 2.634-1.274 4.503-1.274 7.816 0 3.314.679 6.627 2.039 9.771.595 1.274 1.189 2.549 1.954 3.738l.255.51a25 25 0 0 0 1.699 2.464c9.006 11.724 27.017 20.305 48.172 22.769a113 113 0 0 0 26.253 0 106 106 0 0 0 17.757-3.738c6.626-2.039 12.829-4.758 18.011-8.072a7.7 7.7 0 0 0 1.105-.679 60 60 0 0 0 3.738-2.719 41.5 41.5 0 0 0 7.476-7.476 19 19 0 0 0 1.7-2.549c0-.043.042-.106.084-.17s.085-.128.085-.17c.765-1.19 1.445-2.464 1.954-3.738 1.36-3.144 2.04-7.137 2.04-9.771 0-2.633-.425-5.182-1.275-7.731-.34-1.105-.849-2.209-1.359-3.314l-.34-.679c-.128-.213-.234-.404-.34-.595a19 19 0 0 0-.34-.595 6 6 0 0 0-.297-.509c-.106-.17-.213-.34-.297-.51a5 5 0 0 1-.34-.552c-.107-.192-.213-.383-.34-.553-1.105-1.699-2.294-3.398-3.738-5.097m-148.935-64.91c-18.182 4.588-35.259 10.535-50.806 17.672a101 101 0 0 0-5.948 6.202c27.103-13.509 59.387-23.194 93.541-28.037l-2.379-2.718c-11.639 1.784-23.279 4.078-34.408 6.881m-.425-1.699c10.875-2.719 22.089-5.013 33.474-6.712v-.085l-10.62-12.064c-28.122 7.561-51.91 19.456-69.242 34.579 14.358-6.287 29.906-11.555 46.388-15.718m44.944-3.483a390 390 0 0 1 45.878-2.719v.085c53.78 0 105.775 11.215 147.066 31.775a101 101 0 0 0-5.947-6.202c-15.548-7.137-32.625-13.084-50.721-17.672-28.632-7.306-59.048-10.96-90.398-10.96-16.312 0-32.54.935-48.342 2.974zm-49.107-73.406c-12.489 0-22.685 10.195-22.685 22.685h-.084c0 12.489 10.195 22.684 22.684 22.684 4.758 0 9.345-1.444 13.254-4.248a22.5 22.5 0 0 0 3.398-2.974c.787-.856 1.502-1.487 2.142-2.052 2.536-2.241 3.89-3.437 3.89-13.41 0-12.49-10.11-22.685-22.599-22.685m23.449 54.12c-18.012 5.097-34.409 11.979-48.682 20.475l.085.17c-13.424 7.986-24.384 17.162-32.625 27.272a122 122 0 0 0-3.993 5.268 92 92 0 0 0-2.464 3.653c-7.307 11.64-11.045 22.514-11.045 36.533 0 14.018 4.503 27.527 13.509 40.271 5.182 7.306 11.724 14.273 19.541 20.645a72 72 0 0 0 3.738 2.974c4.078 3.143 8.581 6.117 13.254 8.921 9.855 5.862 20.815 11.044 32.624 15.292.51.17.999.34 1.487.51s.977.34 1.487.51c.68.212 1.381.446 2.081.68.701.233 1.402.467 2.082.679a256 256 0 0 0 22.514 6.032c1.094.292 2.25.521 3.361.741l.548.109c17.331 3.398 35.513 5.183 53.949 5.183s36.618-1.785 53.95-5.268c1.093-.291 2.249-.521 3.361-.741l.547-.108a257 257 0 0 0 22.514-6.033c1.445-.424 2.804-.849 4.163-1.359l.003-.001c1.018-.339 2.037-.679 2.971-1.019l.192-.063c.463-.151.975-.318 1.422-.616h.255c.765-.298 1.551-.595 2.337-.892.785-.298 1.571-.595 2.336-.892 9.176-3.654 17.927-7.987 25.913-12.744 4.673-2.804 9.175-5.778 13.254-8.921h.169l3.569-2.804c7.816-6.372 14.358-13.339 19.541-20.645 8.92-12.744 13.508-27.697 13.508-40.271s-3.738-24.893-11.13-36.533l-.632-.954a90 90 0 0 0-1.831-2.699l-.001-.001c-1.274-1.784-2.548-3.568-3.993-5.267-8.241-10.195-19.285-19.371-32.624-27.357-32.115-19.201-74.765-29.821-120.134-29.821-22.344 0-44.009 2.549-64.484 7.562l2.294 2.548c5.376-1.292 8.121-2.409 10.434-3.35 6.203-2.524 9.304-3.786 51.756-3.786 58.283 0 111.383 17.671 142.223 47.152q4.97 4.716 8.921 9.686c10.705 13.424 16.143 21.24 16.143 42.735s-11.3 41.885-32.71 59.132c-.72.528-1.439 1.082-2.174 1.649-.567.437-1.142.881-1.734 1.325-11.13 8.326-24.299 15.462-39.167 21.24a43 43 0 0 1-.934.382c-.319.127-.637.255-.935.382h-.085c-.34.17-.679.34-1.019.425-.298.085-.574.191-.85.297a10 10 0 0 1-.849.298l-.85.255c-4.503 1.614-9.091 3.058-13.764 4.418a218 218 0 0 1-17.416 4.248c-1.614.339-3.313.679-5.011 1.019h-.002c-16.058 2.974-32.795 4.503-49.702 4.503s-33.644-1.529-49.701-4.503c-.85-.17-1.678-.34-2.507-.51-.828-.17-1.656-.339-2.506-.509a218 218 0 0 1-17.417-4.248c-4.673-1.36-9.26-2.804-13.763-4.418-.425-.17-.85-.319-1.275-.468a30 30 0 0 1-1.274-.467c-.149-.099-.326-.169-.515-.244-.136-.054-.278-.11-.42-.181h-.085c-15.717-5.947-29.566-13.338-41.205-22.004-.602-.442-1.185-.902-1.758-1.354a49 49 0 0 0-1.896-1.45v-.17l-.084-.085c-21.41-17.162-32.71-37.637-32.71-59.132 0-15.038 5.437-29.396 16.227-42.82 2.634-3.313 5.693-6.542 8.921-9.685 17.587-16.822 42.735-30.076 72.981-38.232zm-19.286 284.361c-13.169-3.313-25.743-7.391-37.552-12.064 30.84 23.364 78.248 37.212 128.374 37.212 50.127 0 97.534-13.848 128.375-37.212-11.81 4.673-24.469 8.751-37.553 12.064-28.801 7.307-59.302 10.96-90.822 10.96s-62.021-3.653-90.822-10.96m90.822 29.821c44.604 0 86.574-10.45 118.095-29.311l-.255-.085c9.515-5.692 17.756-11.98 24.723-18.776-.085.085-.255.17-.34.17-1.189.594-2.379 1.189-3.653 1.699-.112.037-.207.091-.293.139-.111.062-.206.116-.302.116-1.359.594-2.718 1.189-4.163 1.784-30.84 25.828-80.882 41.205-133.982 41.205s-103.141-15.377-133.982-41.205c-.679-.298-1.38-.595-2.081-.892s-1.402-.595-2.082-.892c-.085-.043-.191-.085-.297-.128a4 4 0 0 1-.298-.127 68 68 0 0 1-1.784-.807c-.594-.276-1.189-.553-1.784-.807-.085-.085-.255-.17-.34-.17 6.967 6.796 15.208 13.083 24.724 18.776 31.605 18.861 73.49 29.311 118.094 29.311m164.313-61.426c21.41-12.829 38.317-27.782 50.041-44.434l-.17.085c12.235-17.332 18.437-35.768 18.437-54.799 0-19.032-6.202-37.468-18.437-54.8-11.809-16.652-28.631-31.605-50.041-44.434-2.464-1.529-5.013-2.973-7.646-4.418.254.34.509.701.764 1.062s.51.722.765 1.062l1.274 1.784c.085.085.255.255.255.34.252.315.457.63.685.98l.25.38c44.604 25.997 69.157 60.066 69.157 97.959s-28.037 75.699-75.105 101.272c-1.614.935-3.313 1.869-5.097 2.719-.085.085-.255.085-.255.085a86 86 0 0 1-4.843 2.463c-.085.085-.17.085-.17.085-40.611 19.626-91.926 30.416-144.177 30.416s-103.481-10.79-144.177-30.416c-3.568-1.784-7.137-3.568-10.45-5.352-23.364-12.744-41.8-27.867-54.8-44.944-2.191-2.881-4.206-5.319-6.044-7.543-9.49-11.483-14.26-17.255-14.26-48.785 0-37.638 23.873-71.537 69.072-97.959a128 128 0 0 1 2.379-3.569c.254-.34.531-.701.807-1.062s.552-.722.807-1.062q-.801.454-1.61.908c-2.034 1.145-4.088 2.301-6.037 3.51-21.41 12.829-38.317 27.782-50.041 44.434-12.234 17.332-18.436 35.769-18.436 54.8s6.202 37.467 18.436 54.799c11.81 16.652 28.632 31.605 50.041 44.434 5.693 3.483 11.81 6.712 18.012 9.77 4.163 2.039 8.581 4.078 13.084 5.948 13.339 5.607 27.782 10.365 42.82 14.188 28.631 7.306 59.047 10.96 90.397 10.96s61.766-3.739 90.398-10.96c15.123-3.823 29.481-8.581 42.819-14.188 4.418-1.87 8.836-3.909 13.084-5.948a258 258 0 0 0 18.012-9.77M252.585 219.923l.085-.085c3.229-2.803 7.817-4.927 13.254-6.117 1.784-.425 3.738-.679 5.692-.849.699-.05-1.33-.071-1.33-.079 0-.006 1-.006 4.644-.006 8.836 0 17.162 2.633 22.259 7.051l.255.255c3.059 2.719 4.673 5.947 4.673 9.346v1.019c-.425 3.739-2.804 7.222-6.882 10.026-1.359.849-2.803 1.699-4.418 2.379-.467.169-.913.339-1.359.509s-.892.34-1.359.51c-3.994 1.359-8.581 2.039-13.169 2.039s-9.176-.68-13.169-2.039c-8.156-2.719-13.339-7.731-13.934-13.424v-1.104c0-3.399 1.615-6.627 4.673-9.431zm41.801 19.116c3.653-2.464 5.777-5.522 6.117-8.751l-.085.085c-.51-3.568-3.144-6.966-7.477-9.515h-.085s-.17-.085-.17-.17h-.085a7 7 0 0 0-.849-.51c-4.673-2.464-10.62-3.738-16.737-3.738h-1.53c-1.954.085-3.908.255-5.692.595-3.313.594-6.287 1.529-9.006 2.803-.509.17-.934.425-1.359.68-.085.085-.255.17-.255.17-4.503 2.549-7.137 6.032-7.561 9.6.594 5.013 5.352 9.431 12.829 11.98 3.823 1.274 8.241 1.954 12.659 1.954s8.835-.68 12.659-1.954l2.548-1.02c1.445-.594 2.889-1.359 4.079-2.209m-20.921-24.597c-.552.022-1.115.044-1.679.044h.17c-1.954.17-3.738.425-5.522.764-4.078.85-7.732 2.379-10.62 4.333.16-.053.286-.14.4-.218.068-.046.131-.09.194-.121.085-.085.17-.17.255-.17.255-.128.489-.255.722-.383.234-.127.468-.254.723-.382h.085c2.888-1.274 6.032-2.294 9.43-2.889 1.869-.339 3.823-.594 5.862-.594h1.615c6.372 0 12.659 1.444 17.501 3.908.34.17.595.34.935.595h.255c.16.053.286.14.4.218.068.046.131.09.195.121-4.928-3.313-11.895-5.267-19.371-5.267-.5 0-1.02.02-1.55.041" class="Union" clip-rule="evenodd"/>
    </g>
</svg>
