<svg xmlns="http://www.w3.org/2000/svg" viewBox="0 0 40 28">
    <style>
        .st0{fill:#4f0599}
    </style>
    <path id="Calque_1" d="M14 2v2.4h1.2v16.8c0 2.7 2.1 4.8 4.8 4.8s4.8-2.1 4.8-4.8V4.4H26V2H14m4.5 16.8c-.7 0-1.2-.5-1.2-1.2s.5-1.2 1.2-1.2 1.2.5 1.2 1.2-.5 1.2-1.2 1.2m2.4-4.8c-.7 0-1.2-.5-1.2-1.2s.5-1.2 1.2-1.2 1.2.5 1.2 1.2-.5 1.2-1.2 1.2m1.2-6h-4.8V4.4h4.8V8z" class="st0"/>
    <path id="Calque_2" d="m30.8 19 5.1-5.1-5.1-5.1 1.5-1.5 6.7 6.6-6.7 6.7-1.5-1.6M9.3 19l-5.1-5.1 5.1-5.1-1.6-1.5L1 13.9l6.7 6.7z" class="st0"/>
</svg>
