<svg xmlns="http://www.w3.org/2000/svg" width="20" height="20" fill="none" viewBox="0 0 20 20">
    <path fill="#fff" d="M18.389 11.266c.851-.066 1.539.492 1.605 1.344.066.887-.559 1.605-1.41 1.672a1.5 1.5 0 0 1-1.606-1.375c-.066-.887.524-1.543 1.41-1.64m-7.21-2.097c-.067-.098-.032-.196.066-.262 1.867-1.703 4.652-2.031 6.816-.36.559.458.918 1.41.622 1.965a.82.82 0 0 1-.493.395c-.457.195-.886.394-1.18.82-.296.426-.359.918-.23 1.442.098.425.262.886-.164 1.277-.23.23-1.344.426-1.637.23-.132-.097-.097-.195-.066-.328.098-.82-.098-1.574-.395-2.293-.097-.261-.066-.394.196-.457.457-.133.887-.36 1.21-.687.723-.688.56-1.574-.394-1.965-.754-.328-1.539-.262-2.293-.195-.715.027-1.402.222-2.058.418m-3.145 9.078c0-.852.656-1.508 1.441-1.508.786 0 1.54.723 1.54 1.543 0 .785-.657 1.476-1.41 1.508-.95 0-1.57-.59-1.57-1.543m2.719-8.223c.098-.098.164-.066.261 0 2.165 1.313 3.278 3.899 2.294 6.422-.262.656-1.114 1.312-1.739 1.148-.261-.066-.394-.195-.523-.359-.297-.395-.621-.754-1.113-.918-.524-.164-.985-.066-1.442.195-.394.23-.785.524-1.277.23-.297-.163-.785-1.179-.688-1.507.067-.133.196-.133.328-.133.82-.133 1.477-.523 2.098-1.047.195-.164.36-.164.523.067.262.394.59.722 1.016.949.852.492 1.672.066 1.77-.918.097-.82-.196-1.54-.457-2.262a13 13 0 0 0-1.051-1.867M4.33 3.337c.066 0 .23.03.394.066 1.211.23 1.965-.195 2.36-1.344.262-.754.82-.984 1.539-.59.031 0 .031.032.066.032.754.425.754.492.297 1.148-.394.523-.59 1.113-.687 1.738-.067.36-.196.426-.524.297a2.36 2.36 0 0 0-1.636 0c-.622.196-.887.754-.688 1.375.262.82.984 1.18 1.606 1.606.62.425 1.343.656 2.03.949.098.031.262.031.231.195-.031.098-.164.098-.297.098-1.476.066-2.882-.164-4.03-1.149-1.087-.882-1.876-1.964-1.743-3.472.098-.492.457-.852 1.082-.95M6.853 1.5c.098.851-.492 1.574-1.375 1.703-.754.097-1.539-.524-1.636-1.246-.098-.95.425-1.637 1.312-1.739.813-.093 1.598.528 1.7 1.282m2.848 8.718a4.9 4.9 0 0 1-.82 1.836c-1.18 1.77-2.883 2.492-4.98 2.293-.755-.066-1.376-.687-1.442-1.312a.8.8 0 0 1 .195-.656c.23-.297.426-.56.524-.919.195-.722-.067-1.312-.59-1.835-.723-.723-.621-1.375.23-1.903.098-.066.23-.133.36-.195.195-.098.359-.098.425.133.297.754.887 1.312 1.54 1.77.23.195.23.327.03.558-.394.426-.62.95-.656 1.539-.066.723.36 1.18 1.082 1.18.458 0 .887-.164 1.278-.36 1.015-.523 1.8-1.277 2.555-2.066.109-.031.14-.098.269-.063m-8.059 2.329c-.785.097-1.574-.56-1.636-1.376-.067-.785.59-1.574 1.343-1.636.852-.098 1.637.492 1.704 1.277.03.75-.461 1.668-1.41 1.734m8.715-3.868c-.132.067-.195-.031-.23-.133-1.211-2.261-.852-5.113 1.277-6.816.559-.457 1.606-.559 2.067-.098.195.164.23.36.261.59.067.492.164.985.493 1.375.359.426.82.59 1.343.559.457 0 .918-.067 1.211.457.164.297.098 1.441-.164 1.672-.133.097-.23.031-.328 0-.754-.297-1.54-.297-2.328-.164-.262.03-.395-.032-.395-.328-.03-.493-.133-.95-.394-1.375-.492-.887-1.41-.918-2-.098-.492.656-.621 1.441-.754 2.226-.125.688-.09 1.41-.059 2.133m5.047-7.8c.82-.067 1.606.59 1.672 1.41.066.785-.59 1.539-1.375 1.605-.851.067-1.605-.558-1.672-1.375-.066-.82.524-1.574 1.375-1.64"/>
</svg>
