<svg xmlns="http://www.w3.org/2000/svg" width="20" height="20" fill="none" viewBox="0 0 20 20">
    <path fill="#fff" d="M16.068 17.29c-.189-.325-.188-.98.002-1.324.082-.15.334-.483 1.434-.483.226 0 .391.012.513.028.267.036.47.127.47.376 0 .328-.483.33-.483.33h-1.025c-.436 0-.469.603-.469.603h1.493c.525 0 1.069-.235 1.069-.924 0-.457-.264-.765-.694-.883s-.597-.111-1.182-.1c-.47.008-.74.11-.91.164a1.24 1.24 0 0 0-.748.596c-.294.532-.291 1.412.006 1.922.318.545.863.836 1.522.837h2.006v-.604h-2.008c-.579.002-.866-.316-.996-.539M3.687 15.014c-.532-.295-1.412-.292-1.922.005-.727.425-1.003 1.254-.738 2.218.136.495.504.86 1.063 1.055.396.137.76.141.775.141l-.001-.607c-.01 0-1.05-.015-1.252-.75-.26-.948.175-1.367.459-1.533.324-.189.98-.188 1.323.002.364.201.39.621.39 1.29v1.231c0 .436.607.464.607.464v-1.695c0-.638 0-1.432-.704-1.822m7.873 3.419V16.54c0-.658.291-1.203.836-1.521.51-.297 1.39-.3 1.922-.006.705.39.705 1.183.705 1.821v1.694s-.607-.029-.607-.464v-1.23c0-.668-.027-1.088-.391-1.29-.344-.19-.999-.19-1.323-.001-.223.13-.54.417-.539.995v1.894zm-.9 0v-2.87s.602.034.602.47v2.4zm.602-3.463v.566s-.602-.033-.602-.469v-.097zm-3.658.059c.532-.294 1.413-.292 1.922.006.728.424 1.004 1.253.738 2.217-.136.495-.504.86-1.063 1.055-.395.138-.759.124-.774.124v-.602c.01 0 1.05-.003 1.252-.738.261-.948-.175-1.367-.458-1.532-.325-.19-.98-.189-1.323 0-.365.203-.391.623-.391 1.291v.638c0 .435-.607.463-.607.463v-1.1c0-.638 0-1.432.704-1.821"/>
    <path fill="#fff" d="M7.502 19.986V17.98s-.602.033-.602.468v1.538zm-2.226-6.531v2.1s-.602-.033-.602-.468v-1.632zm.081 3.623a2 2 0 0 1-.08-.511l-.001-.519c0-.435-.602-.463-.602-.463v.979q.002.322.098.675c.137.495.504.86 1.064 1.054.395.138.758.139.773.139v-.604c-.01 0-1.05-.015-1.252-.75m2.496-8.731v-1.63L6.679 7.892q.19.131.358.219.168.087.315.139.146.051.272.074.125.022.229.023m6.001-.136q.003.004.035.025t.093.048a1 1 0 0 0 .154.047q.093.019.219.02.104.001.23-.02a2 2 0 0 0 .275-.073q.15-.05.32-.14.17-.088.363-.221l-.891-.873-2.953-2.963-1.295 1.295-1.748-1.802-4.385 4.337q.192.133.362.222.17.088.32.14.148.05.274.072.126.02.23.02.126-.001.218-.02a.8.8 0 0 0 .248-.095l.035-.025 1.98-1.98.707-.679 1.961 1.96.685.705q.003.004.035.025a.8.8 0 0 0 .248.095q.092.019.217.02.105.001.231-.02.127-.021.275-.073.148-.05.319-.14.171-.088.363-.221l-1.573-1.541.293-.293 1.361 1.362zM13.837 0l3.868 6.7-3.868 6.702H6.1L2.231 6.7 6.1 0z"/>
    <path fill="#fff" d="m11.424 6.374-1.03-1.028.073-.073 1.037 1.026zM8.061 19.55v-1.12h-.1v1.12c0 .218.169.45.644.45h.771v-.101h-.771c-.505 0-.544-.267-.544-.348M9.712 20h.1v-1.152h-.1zm0-1.214h.1v-.151h-.1zm5.236.062h-.133l-.429.5-.428-.5h-.134l.496.578-.492.574h.132l.426-.497.426.497h.134l-.493-.575zm-1.531.709c0 .035-.018.342-.66.342-.636 0-.655-.307-.655-.342v-.71h-.1v.71c0 .045.02.443.755.443.74 0 .761-.398.761-.443v-.71h-.1zm-2.507-.709c-.74 0-.761.397-.761.443V20h.1v-.71c0-.034.02-.341.661-.341.636 0 .655.307.655.342V20h.1v-.71c0-.045-.02-.442-.755-.442"/>
</svg>
