<svg xmlns="http://www.w3.org/2000/svg" width="20" height="20" fill="none" viewBox="0 0 20 20">
    <path fill="#fff" fill-rule="evenodd" d="m18.295 10.053-.035-.074q-.374-.715-.754-1.43c-.025-.048-.022-.076.013-.117.399-.466.792-.934 1.192-1.398a.12.12 0 0 0 .032-.063l-.349.09c-.481.128-.966.255-1.443.385-.045.012-.065-.001-.088-.039a146 146 0 0 0-.824-1.365.2.2 0 0 0-.06-.067l-.066.365-.23 1.288c-.008.047-.02.093-.023.14-.004.044-.027.06-.067.073q-.851.267-1.701.538a.2.2 0 0 0-.076.042l1.398.556-.041.032-.87.563c-.035.023-.062.026-.101.009q-.521-.234-1.044-.464a1.1 1.1 0 0 1-.404-.296c-.247-.301-.198-.644.13-.857.108-.069.23-.12.352-.16q.836-.269 1.669-.53c.047-.015.068-.036.077-.087.075-.43.152-.863.23-1.288.041-.23.063-.465.175-.677.043-.08.094-.16.156-.228.221-.246.53-.255.766-.02.08.078.147.171.206.267q.385.63.767 1.27c.03.05.056.06.112.045q.931-.25 1.868-.496a.9.9 0 0 1 .39-.021c.287.053.413.272.316.55a1.1 1.1 0 0 1-.207.333L18.46 8.455c-.036.042-.036.072-.012.119l.78 1.475c.062.118.11.24.11.375a.604.604 0 0 1-.526.603 1.1 1.1 0 0 1-.49-.061q-.584-.18-1.172-.357c-.036-.01-.05-.025-.056-.064l-.142-.825q-.002-.008.002-.032l1.347.37" clip-rule="evenodd"/>
    <path fill="#fff" d="M8.848 9.57q.121-.001.234-.052l.029-.245a.4.4 0 0 1-.238.083c-.148 0-.242-.118-.242-.267a.37.37 0 0 1 .354-.366c.09 0 .164.035.209.085l.03-.247a.45.45 0 0 0-.216-.052.61.61 0 0 0-.603.602c0 .256.17.46.443.46"/>
    <path fill="#fff" fill-rule="evenodd" d="M5.159 9.332h-.353l-.112.22h-.25l.551-1.03h.241l.188 1.03h-.232zm-.246-.207h.212l-.05-.321z" clip-rule="evenodd"/>
    <path fill="#fff" d="m3.773 9.73-.006.005-.055-.075a7 7 0 0 0-.158-.208c-.245-.31-.562-.496-.96-.51-.696-.02-1.222.283-1.585.87a1.15 1.15 0 0 0-.163.78c.036.255.15.477.315.67q.231.268.473.526.136.145.268.292l.017.02c.098.107.196.216.276.336.147.222.11.468-.09.644a1 1 0 0 1-.22.144.61.61 0 0 1-.799-.227 2 2 0 0 1-.111-.21q-.022-.049-.046-.096l-.018-.043-.009-.023-.553.296-.349.187.043.11q.048.127.104.247c.156.32.399.548.747.65.262.078.53.086.8.043.611-.097 1.072-.416 1.365-.96.158-.296.225-.612.17-.947-.046-.285-.196-.516-.384-.722q-.172-.189-.35-.373l-.281-.297a6 6 0 0 1-.36-.422.32.32 0 0 1 .02-.42.54.54 0 0 1 .455-.178c.215.015.363.14.483.306q.045.067.087.136l.043.069.45-.336.375-.28.002.003zm13.747 4.35h.002l-.003.004zm0 0-.285-.001q-.383-.002-.77 0c-.047 0-.073-.014-.099-.053l-.5-.76-.75-1.141-.028-.042-.023-.031-.266 2.022h-.921l.01-.09.022-.172.159-1.214v-.002l.111-.846.065-.492.195-1.48a.1.1 0 0 1 .031-.054q.476-.31.954-.616l.012-.005q.006 0 .015-.004l-.287 2.19.011.009.467-.518.008-.008q.512-.57 1.033-1.143l.02.119.001.005v.001l.002.007v.002l.017.097.03.178q.038.225.078.447c.008.042-.003.068-.031.098q-.483.505-.967 1.018l-.026.029-.017.018.01.017q.008.015.02.03l1.108 1.56.553.779q.011.014.025.025l.012.013z"/>
    <path fill="#fff" fill-rule="evenodd" d="m4.168 14.019.03-.23.006.01.024.015.032.02c.4.28.846.36 1.32.288.458-.07.859-.275 1.192-.598.506-.496.77-1.088.69-1.803a1.57 1.57 0 0 0-.735-1.186c-.431-.278-.904-.328-1.398-.22-.85.186-1.58.92-1.726 1.777-.059.338-.1.677-.143 1.017l-.057.44-.136 1.031-.032.244-.03.242-.016.122.012.004.013.003h.295l.466.001c.032 0 .04-.013.045-.043q.044-.36.092-.714l.008-.059zm2.453-2.072.012.07h.005c-.028.506-.244.863-.644 1.102-.303.181-.63.232-.967.11a.916.916 0 0 1-.602-.972c.052-.57.45-1.005 1.006-1.134.504-.116.992.143 1.146.619.023.07.035.143.044.205" clip-rule="evenodd"/>
    <path fill="#fff" d="m10.49 12.92.009-.065.003-.005a1.3 1.3 0 0 1-.47.33c-.347.136-.686.136-1.004-.076-.328-.22-.468-.614-.38-1.025.13-.62.734-1.059 1.367-.992a.8.8 0 0 1 .676.461c.13.264.151.547.119.832q-.056.473-.121.945l-.057.427-.024.198-.008.07h.818l.002-.01.006-.035.039-.29v-.001q.06-.447.117-.895l.024-.185c.029-.216.058-.434.068-.652a1.57 1.57 0 0 0-.392-1.134c-.412-.474-.944-.638-1.553-.563-1.044.128-1.914 1.05-1.958 2.1-.02.451.108.86.41 1.205.561.64 1.463.685 2.153.366.014-.006.027-.03.03-.046zm3.488-2.558-.043.323-.07.527h-.513a.325.325 0 0 0-.306.22 1 1 0 0 0-.026.14l-.003.017-.258 1.958-.04.316-.024.182h-.857l.013-.103.034-.267.01-.079.158-1.19.039-.299q.05-.401.11-.802c.077-.49.564-.928 1.057-.947.162-.008.324-.006.488-.004l.227.002zm4.574 3.356v.361h.072v-.432h-.11l-.126.329-.13-.33h-.11v.433h.072v-.36h.002l.141.36h.046l.141-.36zm-.627.362v-.375h.136v-.058h-.342v.058h.135v.374z"/>
    <path fill="#fff" fill-rule="evenodd" d="M6.447 8.524h-.33l-.002-.002-.181 1.031h.215l.067-.377h.142c.225 0 .382-.15.382-.372 0-.177-.12-.28-.293-.28m-.152.208h.125c.057 0 .095.032.095.094 0 .094-.06.144-.136.144h-.126zm1.421.6h-.353l-.112.22h-.25l.551-1.03h.241l.188 1.03h-.232zm-.245-.207h.212l-.05-.321z" clip-rule="evenodd"/>
    <path fill="#fff" d="m9.987 9.138-.073.414h-.215l.182-1.03h.215l-.072.406h.448l.073-.407h.215l-.182 1.031h-.215l.072-.414zm1.403-.618-.182 1.03h.57l.037-.208h-.355l.036-.207h.326l.037-.208h-.327l.036-.2h.356l.036-.207z"/>
</svg>
