<svg xmlns="http://www.w3.org/2000/svg" width="20" height="20" fill="none" viewBox="0 0 20 20">
    <path fill="#fff" fill-rule="evenodd" d="M18.2946 10.0527C18.2773 10.0156 18.2695 9.99701 18.2601 9.97923C18.0095 9.50247 17.7595 9.02572 17.5064 8.54896C17.481 8.50116 17.4842 8.47294 17.5189 8.43171C17.9177 7.96591 18.3114 7.49753 18.7108 7.03366C18.7249 7.0173 18.7375 6.99997 18.7428 6.97078C18.6268 7.001 18.5108 7.03089 18.3942 7.06162C17.9129 7.18919 17.4278 7.3161 16.9511 7.4456C16.9063 7.45765 16.886 7.44457 16.8634 7.40733C16.5903 6.95055 16.3152 6.49248 16.0388 6.0415C16.0247 6.01785 16.0093 5.99492 15.9791 5.97514C15.957 6.0969 15.9345 6.21802 15.9128 6.33979C15.8361 6.76951 15.7594 7.19666 15.6834 7.62831C15.6751 7.67464 15.6638 7.72109 15.6598 7.76747C15.656 7.8118 15.6331 7.82816 15.5928 7.84092C15.0252 8.01938 14.4589 8.19913 13.8919 8.37888C13.867 8.38667 13.8426 8.39698 13.8159 8.42114C14.2798 8.6054 14.7436 8.78966 15.2139 8.97714C15.1968 8.99073 15.1855 9.0013 15.1729 9.00935C14.883 9.19683 14.5924 9.38431 14.3031 9.57244C14.2684 9.59512 14.241 9.59834 14.202 9.58075C13.8554 9.42484 13.5062 9.2715 13.1583 9.11688C13.0024 9.0473 12.8626 8.95517 12.7537 8.82116C12.5069 8.51965 12.5559 8.1769 12.8845 7.9643C12.9921 7.89536 13.1145 7.84446 13.2362 7.80452C13.7922 7.62348 14.3508 7.44889 14.9049 7.27365C14.9517 7.25877 14.9732 7.23789 14.9822 7.18732C15.0569 6.75695 15.1336 6.32401 15.2116 5.89879C15.253 5.66879 15.2749 5.43364 15.3868 5.22232C15.4296 5.14114 15.4809 5.0619 15.5427 4.99425C15.7643 4.74814 16.0729 4.73912 16.3094 4.97312C16.3886 5.05236 16.4563 5.14514 16.5149 5.24113C16.7726 5.66183 17.0264 6.08511 17.2816 6.51033C17.3115 6.56039 17.3385 6.57044 17.3937 6.55588C18.0154 6.38901 18.6371 6.22473 19.262 6.06044C19.3909 6.02649 19.5204 6.01418 19.6525 6.03886C19.9391 6.09246 20.0648 6.31073 19.9675 6.58841C19.9235 6.71469 19.847 6.82099 19.7613 6.92214C19.3271 7.43304 18.8916 7.94651 18.4599 8.45548C18.4244 8.49723 18.4237 8.52699 18.4483 8.57403C18.7086 9.06431 18.9663 9.5533 19.2279 10.0494C19.2898 10.1666 19.3374 10.2891 19.3387 10.4237C19.3417 10.7304 19.1171 10.9816 18.8123 11.0267C18.6416 11.0517 18.4831 11.0152 18.3227 10.9658C17.9329 10.8454 17.5431 10.7268 17.1501 10.6089C17.1139 10.5981 17.1 10.5837 17.0935 10.5448C17.0487 10.2697 16.9994 9.9952 16.9518 9.7201C16.9505 9.71257 16.9528 9.70451 16.9541 9.68763C17.3993 9.81069 17.8432 9.93181 18.3006 10.0587" clip-rule="evenodd"/>
    <path fill="#fff" d="M8.8484 9.57093C8.92894 9.57093 9.00882 9.55109 9.08162 9.51785L9.08201 9.51746L9.11068 9.27264C9.05141 9.32077 8.96379 9.35575 8.87295 9.35575C8.72477 9.35575 8.63071 9.23849 8.63071 9.08902C8.63071 8.89252 8.79757 8.72308 8.98505 8.72308C9.07525 8.72308 9.1485 8.75807 9.19379 8.80813L9.22401 8.56137C9.16345 8.52819 9.08936 8.50854 9.00753 8.50854C8.68025 8.50854 8.40515 8.78364 8.40515 9.11093C8.40515 9.3667 8.57588 9.57093 8.8484 9.57093Z"/>
    <path fill="#fff" fill-rule="evenodd" d="M5.15874 9.33231H4.80633L4.69423 9.552H4.44426L4.9951 8.52118H5.23606L5.42354 9.552H5.19225L5.15874 9.33231ZM4.91328 9.12485H5.12524L5.07512 8.80401L4.91328 9.12485Z" clip-rule="evenodd"/>
    <path fill="#fff" d="M3.773 9.73 3.767 9.735C3.749 9.709 3.73 9.684 3.712 9.66 3.659 9.588 3.608 9.519 3.554 9.452 3.309 9.142 2.992 8.956 2.594 8.942 1.898 8.923 1.372 9.225 1.009 9.812.863 10.046.807 10.311.846 10.591.882 10.847.995 11.069 1.161 11.261 1.314 11.441 1.474 11.615 1.634 11.788 1.724 11.885 1.813 11.982 1.902 12.08L1.919 12.099C2.017 12.207 2.115 12.316 2.195 12.436 2.342 12.658 2.304 12.904 2.106 13.08 2.041 13.138 1.964 13.188 1.885 13.224 1.579 13.362 1.275 13.277 1.086 12.997 1.042 12.932 1.009 12.859.975 12.787.96 12.755.945 12.723.929 12.691.923 12.678.917 12.664.911 12.648.908 12.641.905 12.633.902 12.625.717 12.724.534 12.822.349 12.921L0 13.108C.015 13.145.029 13.182.043 13.218.076 13.302.108 13.385.147 13.465.303 13.784.546 14.013.894 14.116 1.156 14.193 1.424 14.201 1.693 14.158 2.305 14.061 2.766 13.742 3.059 13.198 3.217 12.902 3.284 12.586 3.229 12.251 3.183 11.966 3.033 11.735 2.845 11.529 2.731 11.403 2.613 11.28 2.495 11.156 2.401 11.058 2.306 10.959 2.214 10.859 2.088 10.723 1.966 10.584 1.854 10.437 1.752 10.304 1.766 10.136 1.875 10.018 1.997 9.886 2.15 9.827 2.329 9.839 2.544 9.854 2.693 9.978 2.812 10.145 2.843 10.189 2.871 10.235 2.899 10.281 2.913 10.304 2.927 10.327 2.942 10.35 3.091 10.238 3.241 10.127 3.392 10.014 3.516 9.922 3.641 9.829 3.767 9.735L3.769 9.737 3.773 9.73ZM17.519 14.079 17.522 14.079 17.519 14.084V14.079ZM17.519 14.079C17.425 14.079 17.33 14.079 17.235 14.079H17.234C16.979 14.078 16.723 14.077 16.465 14.079 16.418 14.079 16.392 14.065 16.366 14.026 16.2 13.772 16.033 13.519 15.866 13.266 15.615 12.885 15.364 12.504 15.116 12.125 15.108 12.112 15.099 12.1 15.088 12.083L15.065 12.052C14.976 12.734 14.888 13.404 14.799 14.074L13.878 14.075C13.882 14.044 13.885 14.015 13.889 13.985 13.895 13.927 13.902 13.869 13.91 13.812 13.962 13.406 14.016 13.002 14.069 12.598L14.069 12.596C14.106 12.315 14.143 12.033 14.18 11.75L14.245 11.258C14.31 10.765 14.374 10.272 14.44 9.779 14.443 9.759 14.456 9.734 14.471 9.724 14.788 9.517 15.107 9.312 15.425 9.108 15.427 9.106 15.431 9.105 15.437 9.103 15.441 9.102 15.446 9.101 15.452 9.099 15.356 9.834 15.261 10.562 15.165 11.29L15.176 11.298C15.332 11.126 15.487 10.953 15.643 10.78L15.651 10.772C15.993 10.393 16.336 10.012 16.684 9.629 16.691 9.671 16.698 9.71 16.705 9.748L16.705 9.753 16.706 9.754 16.707 9.761 16.707 9.763 16.724 9.86C16.734 9.919 16.744 9.979 16.754 10.038 16.78 10.187 16.805 10.337 16.832 10.485 16.84 10.527 16.829 10.553 16.801 10.583 16.478 10.92 16.157 11.259 15.834 11.601 15.825 11.61 15.817 11.62 15.808 11.63L15.791 11.648C15.794 11.654 15.798 11.66 15.801 11.665 15.808 11.676 15.814 11.686 15.82 11.695 16.19 12.215 16.559 12.735 16.929 13.254L17.482 14.034C17.489 14.043 17.498 14.051 17.507 14.06 17.511 14.064 17.515 14.067 17.519 14.072V14.079Z"/>
    <path fill="#fff" fill-rule="evenodd" d="M4.16751 14.0187C4.17757 13.9435 4.18777 13.8673 4.19812 13.7893L4.20405 13.7992C4.21298 13.8049 4.22074 13.8096 4.22769 13.8139C4.24029 13.8217 4.25022 13.8278 4.25965 13.8344C4.65909 14.1142 5.10557 14.1933 5.58039 14.1217C6.03781 14.0522 6.43854 13.8473 6.77227 13.5245C7.27802 13.0284 7.54152 12.4357 7.46163 11.7206C7.40365 11.2181 7.15754 10.8122 6.72717 10.5351C6.29552 10.2568 5.82327 10.2072 5.32912 10.3142C4.4787 10.501 3.74939 11.2355 3.6025 12.0923C3.54441 12.4301 3.50206 12.769 3.4596 13.1089C3.44132 13.2552 3.42301 13.4017 3.40343 13.5484C3.35757 13.8923 3.31243 14.2362 3.26728 14.5802L3.26721 14.5807L3.23527 14.824C3.22476 14.9043 3.21468 14.9849 3.2046 15.0655L3.18921 15.188C3.19403 15.1894 3.19786 15.1907 3.20107 15.1918C3.20691 15.1938 3.21066 15.195 3.2144 15.195C3.31262 15.1952 3.41075 15.1953 3.50881 15.1954C3.66406 15.1955 3.81952 15.1957 3.97463 15.1962C4.00684 15.1965 4.01593 15.1832 4.01966 15.1532C4.04939 14.9136 4.0806 14.6762 4.11172 14.4394L4.11952 14.3801C4.13516 14.2604 4.15115 14.1409 4.16751 14.0187ZM6.62149 11.9474C6.62555 11.973 6.62932 11.9967 6.63343 12.0176H6.63788C6.61018 12.5233 6.3937 12.8796 5.99362 13.1193C5.69081 13.3003 5.36482 13.3512 5.02722 13.2294C4.60845 13.0813 4.38296 12.6754 4.42548 12.2566C4.47702 11.6877 4.87582 11.2516 5.43053 11.1227C5.93499 11.0074 6.4227 11.2657 6.57732 11.7418C6.59996 11.8117 6.6116 11.8851 6.62149 11.9474Z" clip-rule="evenodd"/>
    <path fill="#fff" d="M10.491 12.92 10.499 12.855 10.502 12.85C10.359 12.999 10.209 13.11 10.033 13.179 9.685 13.316 9.346 13.316 9.028 13.104 8.7 12.885 8.56 12.49 8.649 12.079 8.778 11.46 9.382 11.02 10.015 11.087 10.321 11.119 10.553 11.268 10.691 11.548 10.822 11.812 10.842 12.095 10.81 12.38 10.774 12.695 10.731 13.01 10.689 13.325 10.67 13.468 10.651 13.61 10.632 13.752 10.624 13.818 10.616 13.883 10.608 13.95L10.6 14.021H11.418L11.42 14.01C11.423 13.997 11.425 13.986 11.426 13.975 11.439 13.878 11.452 13.781 11.465 13.685L11.465 13.684C11.505 13.387 11.545 13.087 11.582 12.789 11.59 12.728 11.598 12.666 11.606 12.604 11.635 12.388 11.664 12.17 11.674 11.952 11.693 11.527 11.563 11.14 11.282 10.818 10.87 10.344 10.338 10.18 9.729 10.255 8.685 10.384 7.815 11.305 7.771 12.355 7.752 12.806 7.879 13.216 8.182 13.56 8.742 14.2 9.644 14.245 10.334 13.926 10.348 13.92 10.361 13.897 10.364 13.88 10.406 13.565 10.447 13.25 10.491 12.92ZM13.978 10.362 13.935 10.685C13.912 10.861 13.889 11.035 13.866 11.212 13.813 11.212 13.759 11.212 13.707 11.212 13.588 11.212 13.47 11.212 13.352 11.213 13.214 11.214 13.088 11.303 13.046 11.432 13.032 11.477 13.026 11.525 13.02 11.572L13.017 11.589C12.931 12.246 12.845 12.897 12.76 13.547 12.746 13.652 12.732 13.757 12.719 13.863L12.695 14.045H11.839L11.851 13.942C11.863 13.852 11.874 13.764 11.885 13.676L11.896 13.596C11.948 13.198 12 12.799 12.053 12.406 12.066 12.307 12.079 12.207 12.092 12.107L12.092 12.107C12.126 11.84 12.161 11.572 12.202 11.305 12.279 10.815 12.766 10.377 13.259 10.358 13.421 10.351 13.583 10.352 13.747 10.354 13.822 10.355 13.898 10.356 13.974 10.356L13.978 10.362ZM18.552 13.718V14.079H18.624V13.647H18.515L18.388 13.976 18.259 13.647H18.149V14.079H18.22V13.718H18.222L18.364 14.079H18.409L18.55 13.718H18.552ZM17.925 14.079V13.705H18.061V13.647H17.719V13.705H17.854V14.079H17.925Z"/>
    <path fill="#fff" fill-rule="evenodd" d="M6.447 8.524H6.117L6.115 8.522 5.934 9.553H6.149L6.216 9.176H6.358C6.583 9.176 6.74 9.027 6.74 8.804 6.74 8.627 6.619 8.524 6.447 8.524ZM6.295 8.732H6.42C6.477 8.732 6.515 8.764 6.515 8.826 6.515 8.92 6.455 8.97 6.379 8.97H6.253L6.295 8.732ZM7.716 9.332H7.363L7.251 9.552H7.001L7.552 8.521H7.793L7.981 9.552H7.749L7.716 9.332ZM7.471 9.125H7.683L7.633 8.804 7.471 9.125Z" clip-rule="evenodd"/>
    <path fill="#fff" d="M9.987 9.138 9.914 9.552H9.699L9.881 8.521H10.096L10.024 8.928H10.472L10.545 8.521H10.76L10.578 9.552H10.363L10.435 9.138H9.987ZM11.389 8.519 11.208 9.55 11.208 9.549H11.779L11.815 9.341H11.46L11.496 9.134H11.822L11.859 8.926H11.532L11.568 8.727H11.924L11.96 8.519H11.389Z"/>
</svg>
