<svg xmlns="http://www.w3.org/2000/svg" width="20" height="20" fill="none" viewBox="0 0 20 20">
    <path fill="#fff" d="M10 .063c-.871 2.175-1.43 3.539-2.422 5.652a13.7 13.7 0 0 0 2.547 2.234C8.82 7.453 7.949 6.895 7.328 6.336 6.023 9.008 4.04 12.734.063 20c3.105-1.863 5.59-2.98 7.886-3.418a4.8 4.8 0 0 1-.187-1.367v-.059c.062-2.05 1.117-3.601 2.36-3.476 1.241.062 2.233 1.8 2.175 3.851l-.125 1.055c2.234.434 4.66 1.613 7.765 3.355l-1.675-3.105c-.809-.621-1.676-1.43-3.418-2.36 1.18.313 2.05.684 2.734 1.055C12.234 5.652 11.801 4.348 10 0z"/>
</svg>
