<svg xmlns="http://www.w3.org/2000/svg" width="20" height="20" fill="none" viewBox="0 0 20 20">
    <path fill="url(#a)" d="M10 13.14a5.68 5.68 0 1 0 0-11.359 5.68 5.68 0 0 0 0 11.36" opacity=".2"/>
    <path fill="#5e6294" fill-rule="evenodd" d="M10 14.555a7.09 7.09 0 0 0 7.09-7.09A7.09 7.09 0 1 0 2.91 7.46 7.09 7.09 0 0 0 10 14.555m0-1.41a5.68 5.68 0 1 0 0-11.36 5.68 5.68 0 0 0 0 11.36" clip-rule="evenodd" opacity=".14"/>
    <path fill="#ef7b4d" d="M6.754 10.438a2.194 2.194 0 0 1-.148-3.953 3.434 3.434 0 0 1 3.433-3.516 3.43 3.43 0 0 1 3.43 3.52 2.194 2.194 0 0 1-.149 3.952l-.125 3.371c.035.872.301.946 1.29 1.22.093.027.199.054.308.085-.816.188-1.328.211-1.648.113l-.06 1.555c-.128 1.473-.116 1.473.876 1.735q.204.05.46.125c-2.136.488-2.163-.48-2.19-1.356a5 5 0 0 0-.032-.5h-.078q-.005.089-.016.172c-.101 1.223-.132 1.645.06 1.832.1.098.26.129.51.18a6 6 0 0 1 1.079.304c-2.52.352-2.52-.449-2.516-1.812q.002-.318-.008-.676h-.074c-.117 2.629.02 2.66.914 2.879.242.059.543.133.907.277-2.57.285-2.672-.445-2.829-1.57q-.039-.3-.101-.633c-.047.219-.074.434-.102.633-.16 1.125-.261 1.855-2.828 1.57.363-.144.664-.215.906-.277.895-.219 1.032-.254.915-2.879h-.075q-.01.355-.008.676c.004 1.363.004 2.164-2.515 1.812a6 6 0 0 1 1.078-.304c.246-.051.41-.082.512-.18.191-.184.156-.605.058-1.832q-.005-.083-.015-.172h-.078c-.024.156-.028.328-.032.5-.023.875-.054 1.844-2.191 1.355.172-.05.328-.09.46-.124.993-.258 1.009-.262.876-1.735l-.059-1.555c-.324.098-.836.07-1.648-.113l.308-.086c.989-.273 1.254-.344 1.29-1.219z"/>
    <path fill="#fefefe" d="M7.512 6.832a1.632 1.632 0 1 1 .001 3.264 1.632 1.632 0 0 1-.001-3.264m4.828 0a1.632 1.632 0 1 1 .001 3.264 1.632 1.632 0 0 1-.001-3.264m-3.567 4.68s.594.593 1.262.593 1.262-.593 1.262-.593v.742c0 .695-.567 1.262-1.262 1.262a1.264 1.264 0 0 1-1.262-1.262z"/>
    <path fill="#000" d="M7.477 7.648a.558.558 0 1 1 0 1.117.558.558 0 0 1 0-1.117m4.824 0a.558.558 0 1 1 0 1.117.558.558 0 0 1 0-1.117m-3.528 4.458s.594.593 1.262.593 1.262-.594 1.262-.594v.149c0 .695-.567 1.262-1.262 1.262a1.264 1.264 0 0 1-1.262-1.262z"/>
    <path fill="#5e6294" d="M5.285 11.238a.23.23 0 0 1-.18-.09A6.07 6.07 0 0 1 3.88 7.492a6.1 6.1 0 0 1 2.906-5.238.226.226 0 0 1 .309.07.226.226 0 0 1-.07.309 5.65 5.65 0 0 0-2.696 4.86 5.62 5.62 0 0 0 1.14 3.39.224.224 0 0 1-.042.312.3.3 0 0 1-.14.043" opacity=".16"/>
    <path fill="#5e6294" d="M7.66 2.227a.297.297 0 1 0 0-.594.297.297 0 0 0 0 .594" opacity=".45"/>
    <path fill="#5e6294" d="M2.54 5.793h.073c.164 0 .297.133.297.297v2.82a.297.297 0 0 1-.297.297H2.54a.297.297 0 0 1-.297-.297V6.09a.294.294 0 0 1 .297-.297m14.847 0h.074c.164 0 .297.133.297.297v2.82a.297.297 0 0 1-.297.297h-.074a.297.297 0 0 1-.297-.297V6.09c0-.164.133-.297.297-.297"/>
    <path fill="#5e6294" fill-opacity=".2" fill-rule="evenodd" d="M10 14.926a7.46 7.46 0 0 0 7.46-7.461A7.461 7.461 0 1 0 2.54 7.46 7.46 7.46 0 0 0 10 14.926m0-.371a7.09 7.09 0 0 0 7.09-7.09A7.09 7.09 0 1 0 2.91 7.46 7.09 7.09 0 0 0 10 14.555" clip-rule="evenodd"/>
    <path fill="#f77f4f" d="M9.254 4.649c-.074.347-.379.582-.676.515-.3-.062-.492-.344-.418-.691.074-.348.531-.719.832-.656.297.062.336.48.262.832"/>
    <defs>
        <linearGradient id="a" x1="8.476" x2="11.737" y1="2.226" y2="13.433" gradientUnits="userSpaceOnUse">
            <stop stop-color="#5e6294"/>
            <stop offset="1" stop-color="#878bb2"/>
        </linearGradient>
    </defs>
</svg>
