<svg xmlns="http://www.w3.org/2000/svg" width="20" height="20" fill="none" viewBox="0 0 20 20">
    <path fill="#a14f8c" d="M10 19.996c5.52 0 9.996-4.475 9.996-9.996 0-5.52-4.475-9.996-9.996-9.996C4.48.004.004 4.479.004 10c0 5.52 4.475 9.996 9.996 9.996"/>
    <path fill="#fff" d="M10 2.434 7.785 4.648H4.652v3.133L2.434 10l2.214 2.215v3.137h3.133l2.215 2.214 2.215-2.214h3.14v-3.133l2.215-2.215-2.214-2.219-3.137-3.137zm.672 2.214V7.04L10 7.715l-.672-.672V4.648zm-3.98 1.094 1.69 1.692v.949h-.948L5.742 6.69zm-2.04 3.586h2.391l.672.672-.672.672h-2.39zm8.254 0h2.39v1.344h-2.39L12.234 10zm-5.437 2.25h.949v.95l-1.688 1.69-.949-.948zm4.11 0h.948l1.692 1.692-.95.949-1.69-1.692zM10 12.234l.672.672v2.39H9.328v-2.39z"/>
    <path fill="#efa724" d="M10.672 8.453 10 9.051l-.672-.594v.871h-.871l.594.672-.594.672h.875v.871l.672-.594.672.594v-.871h.875L10.953 10l.594-.672h-.875zm1.547-3.8 1.09 1.09-1.692 1.69v.95h.95l1.69-1.692 1.095 1.094V4.648z"/>
</svg>
