<svg xmlns="http://www.w3.org/2000/svg" viewBox="0 0 20 20">
    <path fill="#fff" d="M6.683 5.257c.69-.471 1.58-.286 1.432-.144-.284.27.094.19.135.69.03.367-.09.57-.194.685a4.4 4.4 0 0 0-1.285.38 1 1 0 0 1-.126-.097c-.488-.422-.471-1.167.038-1.514m4.127 2.91c.125-.097.695-.28 1.222-.343.277-.032.672-.051.756-.004.167.092.167.378.053.642-.167.383-.403.807-.67.842-.435.057-.847-.179-1.317-.53-.168-.126-.271-.432-.044-.607m.794-3.733c.643.3.56.868.577 1.203a1 1 0 0 1-.005.205c-.089-.048-.23-.084-.453-.074q-.097.005-.19.02c-.237-.127-.379-.375-.509-.64l-.03-.067-.011-.03-.005-.012c-.07-.226-.023-.271.007-.34.031-.072.147-.13-.024-.19q-.023-.007-.054-.012c.114-.141.454-.175.697-.063M8.1 11.24c-.693-.445-1.41-1.083-1.724-1.436-.052-.04-.044-.215-.044-.215.283.22 1.457 1.058 2.698 1.44.438.136 1.11.187 1.692-.143.445-.253.981-.692 1.301-1.146l.059.102c-.003.067-.15.396-.225.528.136.077.236.098.387.14l1.027-.16c.37-.596.634-1.557.352-2.471-.161-.525-1-1.57-1.06-1.627-.21-.202.036-.984-.382-1.838-.441-.902-1.59-1.843-2.09-2.253.147.108 1.053.473 1.476.983.04-.053.056-.326.092-.396-.363-.475-.391-1.32-.391-1.546 0-.415-.21-.885-.21-.885s.362.288.456.783c.11.586.347 1.047.66 1.438.59.736 1.125 1.114 1.395.842.323-.327-.328-1.79-1.159-2.606-.97-.952-1.223-.83-1.793-.626-.454.162-.699 1.45-1.882 1.425a12 12 0 0 0-.973-.034c.133-.185.248-.329.248-.329s-.397.16-.736.363l-.026-.04c.114-.24.237-.392.237-.392s-.317.19-.607.419c.053-.287.252-.469.252-.469s-.4.072-.91.634c-.58.159-.72.263-1.183.467-.751-.163-1.106-.428-1.444-.915C3.335.905 2.877.848 2.41 1.04c-.682.282-1.545.668-1.545.668s.281-.012.575.001c-.402.152-.787.361-.787.361s.188-.007.42-.003c-.16.133-.25.197-.402.298-.367.267-.664.575-.664.575s.249-.114.472-.178c-.156.359-.466.623-.409 1.062.055.4.547 1.226 1.182 1.733.054.044.922.846 1.576.517.654-.33.912-.623 1.02-1.072.126-.517.054-.907-.216-2.028a34 34 0 0 0-.433-1.496l.025-.018c.214.451.761 1.641.982 2.44.344 1.247.236 1.879.079 2.11-.475.7-1.693.792-2.247.405-.084 1.341.215 1.932.317 2.23-.05.342.171.977.171.977s.025-.288.127-.44c.027.339.198.742.198.742s-.01-.249.067-.464c.11.185.19.23.294.369.104.363.312.628.312.628s-.034-.195-.015-.397c.507.488.595 1.2.645 1.746.143 1.504-2.37 2.7-2.858 3.64-.37.558-.59 1.44.035 1.959 1.511 1.255.93 1.6 1.687 2.152 1.038.757 2.337.418 2.778-.198.616-.857.458-1.666.23-2.422-.18-.592-.665-1.574-1.266-1.955a2.63 2.63 0 0 0-1.716-.41l.047-.053c.727-.145 1.487-.065 2.037.29.625.4 1.196 1.09 1.495 2.145.339-.049.387-.07.697-.115l-.699-5.436zm.403 6.814-.08-.754 1.57-2.395 1.783.52 1.533-2.56 1.838 1.212 1.396-2.928.497 5.333zm8.555-7.997-5.611 1.017c-.14.18-.483.494-.648.576-.709.357-1.188.253-1.602.146-.266-.068-.42-.106-.641-.205l-1.37.188.832 6.937 9.613-1.733z" class="st0"/>
</svg>
