<svg xmlns="http://www.w3.org/2000/svg" width="20" height="20" fill="none" viewBox="0 0 20 20">
    <path fill="#a80030" d="M9.81305 0.142578C9.65408 0.231468 9.49624 0.300708 9.34723 0.405273C9.95169 0.261074 9.92299 0.464256 10.5406 0.382812C10.3243 0.414314 10.0618 0.499765 10.1026 0.532715C10.7932 0.612752 10.8991 0.319408 11.5381 0.532227L11.4976 0.34375C12.3851 0.664213 12.5712 0.609545 13.5357 1.12109C13.8745 1.13743 13.9083 0.912919 14.42 1.12109C14.5097 1.27894 14.3996 1.30832 15.0274 1.68213C15.0975 1.65428 14.9026 1.47641 14.7481 1.33496C16.0111 2.01029 17.3841 3.44958 17.8028 4.98975C17.411 4.26739 17.7621 5.35837 17.6275 5.30176C17.8021 5.77291 17.9452 6.26001 18.0338 6.7627C17.9177 6.35027 17.665 5.35467 17.2217 4.7124C17.1856 5.12697 16.6504 4.42655 16.9429 5.33887C17.1659 5.6619 16.988 5.01136 17.2628 5.58545C17.267 5.85836 17.3712 6.12966 17.4317 6.48535C17.3377 6.4693 17.222 6.09223 17.1529 6.19727C17.2482 6.64435 17.4051 6.87756 17.4649 6.91211C17.4343 6.98698 17.355 6.84268 17.3497 7.14697C17.3862 7.84669 17.5458 7.55217 17.6212 7.58496C17.5448 7.92964 17.2364 8.33562 17.3887 8.92871C17.345 8.74914 17.2598 8.56813 17.1949 8.39795C17.1348 8.90428 17.3066 9.00299 17.0728 9.6167C17.2414 9.06348 17.2233 8.56432 17.0645 8.80469C17.1347 9.59097 16.4424 10.1947 16.5172 10.6919L16.316 10.4146C15.7707 11.2052 16.3031 10.8502 15.9317 11.4492C16.0678 11.2139 15.8604 11.3519 16.0377 11.0854C15.9199 11.0924 15.5128 11.5862 15.1402 11.8765C13.675 13.051 11.9258 13.2043 10.2325 12.5718C10.2309 12.5731 10.2301 12.5751 10.2291 12.5767C10.24 12.536 10.2292 12.492 10.1114 12.4126C8.67606 11.3125 7.82762 10.3774 8.12213 8.21289C8.34093 8.04745 8.39926 7.1449 8.90143 6.82861C9.20756 6.15217 10.125 5.52867 11.1055 5.51318C12.1065 5.45808 12.9512 6.04724 13.3755 6.60303C12.603 5.88314 11.3387 5.66445 10.2603 6.19824C9.15771 6.69413 8.50389 7.90849 8.59918 9.11768C8.64006 9.05763 8.67614 9.09456 8.69586 8.9458C8.66229 11.2959 11.2288 13.0181 13.0762 12.1489L13.0982 12.1978C13.8472 11.9934 13.7505 11.8246 14.2403 11.4883C14.2021 11.5672 13.9104 11.7685 14.084 11.7725C14.3223 11.7092 15.0668 11.0167 15.4327 10.6914C15.6005 10.3294 15.3438 10.4957 15.5782 10.0405L15.8643 9.89746C16.0235 9.43716 16.2 9.17701 16.1802 8.64111L16.0128 8.99365C16.2588 8.24881 16.1168 7.43796 16.1514 6.73682L16.0831 6.71826C16.0229 4.95435 14.4983 3.07955 13.1412 2.44531C11.9716 1.90499 10.1709 1.81228 9.33893 2.21924C9.45362 2.11791 9.90956 2.0752 9.77252 1.99707C8.47003 2.12653 8.76058 2.4515 7.76227 2.70654C7.48841 2.971 8.56155 2.49457 7.98395 2.8374C7.44847 2.98507 7.19878 2.74388 6.40533 3.56494C6.47596 3.67927 6.90907 3.22744 6.54791 3.68115C5.80213 3.58857 4.19158 5.38748 3.84967 5.98389L4.02838 6.01465C3.73479 6.75004 3.349 7.21912 3.29645 7.65967C3.22064 8.74314 2.84234 10.7187 3.36774 11.3262L3.31696 11.833C3.38906 11.9769 3.44315 12.1238 3.53278 12.2588L3.41608 12.2681C3.96876 14.0113 4.00959 12.3007 4.73932 14.1113C4.63347 14.0757 4.52629 14.0368 4.37213 13.8286C4.35396 13.9876 4.59697 14.4639 4.8858 14.8354L4.76373 14.9751C4.92455 15.2672 5.07257 15.3316 5.18414 15.4336C4.58371 15.1059 5.7411 16.5133 5.84576 16.6929L5.93805 16.5288C5.92486 16.765 6.10734 17.07 6.45026 17.4932L6.7359 17.4819C6.85356 17.7144 7.28354 18.1343 7.5445 18.1543L7.37116 18.3809C8.02621 18.5883 7.68952 18.656 8.49469 18.9409L8.33209 18.6538C8.74259 19.0101 8.86966 19.3218 9.44928 19.5947C10.2527 19.8748 10.3593 19.7642 11.1841 20C10.485 19.9797 9.6631 19.9872 9.11041 19.7896C5.33966 18.7683 1.88996 14.3449 2.14215 9.78906C2.08408 8.86687 2.23402 7.71445 2.08063 7.48438C2.29621 6.78248 2.54556 5.92626 3.04791 4.90771C3.01181 4.83996 3.13061 5.1071 3.3858 4.67236C3.54071 4.33211 3.66707 3.95713 3.86237 3.62646L3.96295 3.60303C4.06364 3.01958 5.32439 2.12485 5.69977 1.67432L5.72565 1.84619C6.54464 1.0783 8.00398 0.563396 8.82575 0.196777C8.60998 0.435599 9.30922 0.173192 9.81305 0.142578Z"/>
    <path fill="#a80030" d="M8.3692 11.3662C8.5448 11.4049 9.14532 12.3414 9.59479 12.4937C9.32905 12.2807 9.12318 12.0098 8.93268 11.731C9.29174 12.1437 9.72872 12.4808 10.2056 12.7041C10.1925 12.6543 10.2132 12.621 10.2252 12.5879C10.2216 12.6684 10.5551 12.9252 10.8057 13.0542C11.4508 13.2926 12.1804 13.302 12.7545 13.2808C11.5137 13.7997 9.14441 12.7539 8.3692 11.3662Z"/>
    <path fill="#a80030" d="M10.225 12.588C10.225 12.584 10.227 12.58 10.229 12.577 10.228 12.581 10.227 12.584 10.225 12.588ZM7.952 11.022C8.225 11.55 8.374 11.711 8.574 12.102 8.296 11.87 8.123 11.55 7.905 11.254L7.952 11.022ZM8.207 10.567C8.283 10.72 8.351 10.874 8.466 11.002L8.568 11.302C8.429 11.067 8.28 10.836 8.207 10.567ZM17.577 9.021C17.489 9.701 17.278 10.373 16.951 10.986 17.247 10.405 17.44 9.777 17.529 9.143L17.577 9.021ZM12.389 10.524C12.292 10.616 12.184 10.71 12.064 10.804 11.631 10.737 11.238 10.571 11.569 10.566 11.845 10.592 12.119 10.59 12.389 10.524ZM13.739 9.244C13.689 9.552 13.545 9.851 13.347 10.123 13.371 9.889 12.797 10.224 13.463 9.386 13.405 9.622 12.844 10.244 13.463 9.854 13.576 9.654 13.695 9.464 13.739 9.244ZM13.834 8.234C13.887 8.007 14.044 7.818 14.004 8.415 13.944 8.655 13.895 8.266 13.834 8.234ZM2.144 5.8C2.104 5.984 2.085 6.176 1.982 6.494 2.012 6.245 1.857 6.166 2.144 5.8ZM2.511 4.282C2.508 4.48 2.844 4.086 2.602 4.63 2.152 4.945 2.563 4.76 2.511 4.282ZM10.657.372 10.541.383 10.666.356 10.657.372ZM10.312.258C10.903.275 10.859.314 10.666.356 10.694.314 10.489.29 10.312.258ZM11.166 0C10.928.054 10.602.017 10.378.099L10.244.081C10.548.041 10.856.026 11.166 0Z"/>
</svg>
