<svg xmlns="http://www.w3.org/2000/svg" width="20" height="20" fill="none" viewBox="0 0 20 20">
    <path fill="#a80030" d="M9.813.143C9.654.23 9.496.3 9.347.405c.605-.144.576.06 1.194-.022-.217.031-.48.117-.438.15.69.08.796-.214 1.435 0l-.04-.19c.887.321 1.073.267 2.038.778.338.016.372-.208.884 0 .09.158-.02.187.607.561.07-.028-.124-.206-.279-.347 1.263.675 2.636 2.115 3.055 3.655-.392-.723-.04.368-.175.312.174.47.317.958.406 1.46-.116-.412-.369-1.407-.812-2.05-.036.415-.572-.285-.28.627.224.323.046-.328.32.246.005.273.11.545.17.9-.094-.016-.21-.393-.28-.288.096.447.253.68.313.715-.03.075-.11-.07-.115.235.036.7.196.405.271.438-.076.345-.385.75-.232 1.344-.044-.18-.13-.36-.194-.531-.06.506.112.605-.122 1.219.168-.554.15-1.053-.009-.812.07.786-.622 1.39-.547 1.887l-.201-.277c-.545.79-.013.435-.384 1.034.136-.235-.072-.097.106-.364-.118.007-.525.501-.898.791-1.465 1.175-3.214 1.328-4.908.696l-.003.005c.011-.041 0-.085-.118-.164-1.435-1.1-2.283-2.036-1.989-4.2.219-.166.277-1.068.78-1.384.306-.677 1.223-1.3 2.204-1.316 1-.055 1.845.534 2.27 1.09-.773-.72-2.037-.939-3.116-.405-1.102.496-1.756 1.71-1.66 2.92.04-.06.076-.023.096-.172-.034 2.35 2.533 4.072 4.38 3.203l.022.049c.75-.205.652-.373 1.142-.71-.038.08-.33.28-.156.285.238-.064.983-.756 1.349-1.082.168-.362-.09-.195.145-.65l.286-.144c.16-.46.336-.72.316-1.256l-.167.353c.246-.745.104-1.556.138-2.257l-.068-.019c-.06-1.764-1.585-3.638-2.942-4.273-1.17-.54-2.97-.633-3.802-.226.115-.101.57-.144.434-.222-1.303.13-1.012.454-2.01.71-.275.264.799-.212.221.13-.536.148-.785-.093-1.579.728.071.114.504-.338.143.116-.746-.092-2.356 1.706-2.698 2.303l.178.03c-.293.736-.679 1.205-.732 1.646-.075 1.083-.454 3.059.072 3.666l-.051.507c.072.144.126.29.216.426l-.117.01c.553 1.742.594.032 1.323 1.842-.106-.035-.213-.074-.367-.282-.018.159.225.635.514 1.006l-.122.14c.16.292.309.357.42.459-.6-.328.557 1.08.662 1.259l.092-.164c-.013.236.17.541.512.964l.286-.011c.118.232.548.652.809.672l-.174.227c.655.207.319.275 1.124.56l-.163-.287c.41.356.538.668 1.117.94.804.28.91.17 1.735.406-.699-.02-1.52-.013-2.074-.21-3.77-1.022-7.22-5.445-6.968-10-.058-.923.092-2.076-.061-2.306.215-.702.465-1.558.967-2.576-.036-.068.083.2.338-.236.155-.34.281-.715.476-1.046l.101-.023c.1-.583 1.361-1.478 1.737-1.929l.026.172c.819-.768 2.278-1.283 3.1-1.65-.216.24.483-.023.987-.053"/>
    <path fill="#a80030" d="M8.37 11.366c.175.039.775.975 1.225 1.128-.266-.213-.472-.484-.662-.763.359.413.796.75 1.273.973-.013-.05.007-.083.02-.116-.004.08.33.337.58.466.645.239 1.374.248 1.949.227-1.241.519-3.61-.527-4.386-1.915m1.856 1.222.004-.011zm-2.273-1.566c.273.527.422.689.622 1.08-.278-.232-.451-.552-.67-.848zm.255-.455c.076.153.144.307.26.434l.101.3c-.139-.234-.288-.465-.361-.734m9.37-1.546c-.088.68-.3 1.352-.626 1.965a5.9 5.9 0 0 0 .578-1.843zm-5.188 1.503a4 4 0 0 1-.325.28c-.433-.067-.826-.233-.495-.238.276.026.55.024.82-.042m1.351-1.28a2.1 2.1 0 0 1-.393.879c.024-.234-.55.101.116-.737-.058.236-.619.858 0 .468.113-.2.232-.39.276-.61m.095-1.01c.053-.227.21-.416.17.181-.06.24-.109-.149-.17-.18M2.144 5.8c-.04.184-.059.376-.162.694.03-.25-.125-.328.162-.694m.367-1.518c-.003.198.333-.196.091.348-.45.315-.04.13-.09-.348m8.145-3.91-.116.01.125-.026zm-.345-.114c.59.017.547.056.354.098.028-.042-.177-.066-.354-.098M11.166 0c-.238.054-.564.017-.789.1l-.133-.02c.304-.039.612-.054.922-.08"/>
</svg>
