<svg xmlns="http://www.w3.org/2000/svg" width="20" height="20" fill="none" viewBox="0 0 20 20">
    <path fill="#fff" d="M13.15 4.26C11.741 2.853 10.4 1.512 10 0c-.4 1.512-1.743 2.853-3.15 4.26-2.11 2.11-4.503 4.5-4.503 8.085a7.653 7.653 0 1 0 15.307 0c0-3.585-2.393-5.976-4.505-8.085M5.6 14.129c-.47-.016-2.202-3.002 1.011-6.18l2.126 2.322a.182.182 0 0 1-.014.272c-.507.52-2.67 2.689-2.938 3.438-.056.155-.137.15-.186.148m4.4 3.934a2.63 2.63 0 0 1-2.632-2.632c.01-.638.241-1.253.656-1.739C8.498 13.112 10 11.48 10 11.48s1.478 1.657 1.972 2.208c.43.478.666 1.1.66 1.744A2.63 2.63 0 0 1 10 18.063m5.038-4.269c-.057.124-.185.332-.36.338-.309.011-.342-.147-.57-.486-.503-.744-4.888-5.326-5.708-6.212-.721-.78-.101-1.33.186-1.617C8.946 5.455 10 4.403 10 4.403s3.139 2.979 4.447 5.014.857 3.796.591 4.377"/>
</svg>
