<svg xmlns="http://www.w3.org/2000/svg" width="20" height="20" fill="none" viewBox="0 0 20 20">
    <path fill="#00a9e5" d="M14.602 7H9.375c.023.125.074.25.102.352A9.3 9.3 0 0 1 9.824 10c0 .25 0 .523-.023.773a9.2 9.2 0 0 1-.324 1.875c-.024.125-.075.25-.102.352h5.227c1.648 0 2.976-1.352 2.976-3s-1.328-3-2.976-3"/>
    <path fill="#fff" d="M9.8 10.773c.024-.25.024-.523.024-.773s0-.523-.023-.773a9.2 9.2 0 0 0-.324-1.875c-.024-.125-.075-.25-.102-.352H1.301Q.85 8.425.85 10t.45 3h8.074c.023-.125.074-.25.102-.352a9.4 9.4 0 0 0 .324-1.875"/>
    <path fill="#00bfb3" d="M15.5 14H9q-.3.675-.676 1.273A9.6 9.6 0 0 1 7 16.973c-.176.175-.352.324-.523.5-.352.324-.75.601-1.149.875a9.9 9.9 0 0 0 5.5 1.648c3.477 0 6.524-1.773 8.324-4.45A5.12 5.12 0 0 0 15.5 14"/>
    <path fill="#019b8f" d="M8.324 15.273A10 10 0 0 0 9 14H1.676a9.9 9.9 0 0 0 3.676 4.352 13 13 0 0 0 1.148-.875c.176-.149.352-.325.523-.5a9.8 9.8 0 0 0 1.301-1.704"/>
    <path fill="#f9b110" d="M7 3.023c-.176-.175-.352-.324-.523-.5-.352-.324-.75-.601-1.149-.875C3.727 2.7 2.453 4.223 1.652 6h7.325q-.3-.676-.676-1.273A8 8 0 0 0 7 3.023"/>
    <path fill="#fed10a" d="M10.824 0a9.9 9.9 0 0 0-5.5 1.648c.399.274.774.551 1.149.875.175.149.351.325.523.5a9.7 9.7 0 0 1 1.328 1.704Q8.7 5.325 9 6h6.5a5.1 5.1 0 0 0 3.648-1.55A10 10 0 0 0 10.824 0"/>
</svg>
