<svg xmlns="http://www.w3.org/2000/svg" width="20" height="20" fill="none" viewBox="0 0 20 20">
    <path fill="#fff" d="M10.007.25C4.54.25.112 4.612.102 9.996H.1v7.544h.002c.003 1.222 1.008 2.21 2.25 2.21h7.653c5.467-.003 9.895-4.364 9.895-9.746 0-5.385-4.43-9.746-9.905-9.746zm2.011 4.013c1.663 0 3.232 1.253 3.232 2.983 0 .16.001.32-.025.502a.824.824 0 0 1-.938.726.815.815 0 0 1-.694-.955 2 2 0 0 0 .01-.274c0-.98-.814-1.358-1.584-1.358s-1.464.638-1.465 1.358c.013.835 0 1.662 0 2.495l1.43-.01c1.115-.023 1.128 1.632.012 1.624l-1.441.01c-.003.671.005.55.002.888 0 0 .012.82-.013 1.442-.173 1.827-1.752 3.287-3.65 3.287-2.013 0-3.67-1.619-3.67-3.605.06-2.042 1.714-3.649 3.798-3.63l1.162-.009v1.621l-1.162.01h-.006c-1.145.034-2.126.8-2.145 2.007 0 1.1.903 1.981 2.023 1.981 1.118 0 2.014-.801 2.014-1.979l-.002-6.139c0-.114.005-.204.017-.33.19-1.502 1.553-2.646 3.097-2.646z"/>
</svg>
