<svg xmlns="http://www.w3.org/2000/svg" width="20" height="20" fill="none" viewBox="0 0 20 20">
    <path stroke="#fff" stroke-linecap="round" stroke-linejoin="round" d="M2.91669 2.83823C2.91669 2.51031 3.27797 2.3109 3.55544 2.48569L5.68594 3.82778C5.94648 3.99191 5.9451 4.37219 5.68344 4.53444L3.55292 5.85548C3.27535 6.02756 2.91669 5.82794 2.91669 5.50136V2.83823Z"/>
    <path fill="#fff" fill-rule="evenodd" d="M4.167.833C2.326.833.833 2.326.833 4.167.833 6.008 2.326 7.5 4.167 7.5 6.008 7.5 7.5 6.008 7.5 4.167 7.5 2.326 6.008.833 4.167.833ZM0 4.167C0 1.865 1.865 0 4.167 0 6.468 0 8.333 1.865 8.333 4.167 8.333 6.468 6.468 8.333 4.167 8.333 1.865 8.333 0 6.468 0 4.167ZM9.583 15C8.433 15 7.5 15.933 7.5 17.083 7.5 18.234 8.433 19.167 9.583 19.167 10.734 19.167 11.667 18.234 11.667 17.083 11.667 15.933 10.734 15 9.583 15ZM6.667 17.083C6.667 15.473 7.973 14.167 9.583 14.167 11.194 14.167 12.5 15.473 12.5 17.083 12.5 18.694 11.194 20 9.583 20 7.973 20 6.667 18.694 6.667 17.083Z" clip-rule="evenodd"/>
    <path fill="#fff" fill-rule="evenodd" d="M3.75 7.5C3.98 7.5 4.167 7.687 4.167 7.917V14.167C4.167 15.546 5.302 16.667 6.667 16.667H7.083C7.313 16.667 7.5 16.853 7.5 17.083 7.5 17.314 7.313 17.5 7.083 17.5H6.667C4.845 17.5 3.333 16.009 3.333 14.167V7.917C3.333 7.687 3.52 7.5 3.75 7.5ZM9.583 8.333C8.433 8.333 7.5 9.266 7.5 10.417 7.5 11.567 8.433 12.5 9.583 12.5 10.734 12.5 11.667 11.567 11.667 10.417 11.667 9.266 10.734 8.333 9.583 8.333ZM6.667 10.417C6.667 8.806 7.973 7.5 9.583 7.5 11.194 7.5 12.5 8.806 12.5 10.417 12.5 12.028 11.194 13.333 9.583 13.333 7.973 13.333 6.667 12.028 6.667 10.417Z" clip-rule="evenodd"/>
    <path fill="#fff" fill-rule="evenodd" d="M10.727 9.542C10.889 9.705 10.889 9.968 10.726 10.131L9.447 11.408C9.285 11.571 9.022 11.571 8.859 11.409L8.238 10.79C8.075 10.627 8.074 10.363 8.237 10.2 8.399 10.037 8.663 10.037 8.826 10.199L9.153 10.525 10.137 9.541C10.3 9.379 10.564 9.379 10.727 9.542ZM17.083 8.333C15.933 8.333 15 9.266 15 10.417 15 11.567 15.933 12.5 17.083 12.5 18.234 12.5 19.167 11.567 19.167 10.417 19.167 9.266 18.234 8.333 17.083 8.333ZM14.167 10.417C14.167 8.806 15.473 7.5 17.083 7.5 18.694 7.5 20 8.806 20 10.417 20 12.028 18.694 13.333 17.083 13.333 15.473 13.333 14.167 12.028 14.167 10.417Z" clip-rule="evenodd"/>
    <path fill="#fff" fill-rule="evenodd" d="M18.2267 9.54178C18.3893 9.7046 18.3891 9.96842 18.2263 10.131L16.9475 11.4082C16.7849 11.5705 16.5217 11.5706 16.3589 11.4085L15.7378 10.7896C15.5748 10.6271 15.5743 10.3633 15.7368 10.2003C15.8992 10.0373 16.163 10.0368 16.326 10.1993L16.6527 10.5248L17.6374 9.54138C17.8003 9.37877 18.0641 9.37895 18.2267 9.54178Z" clip-rule="evenodd"/>
    <path fill="#fff" d="M7.06208 10.8333C7.29221 10.8333 7.47875 10.6468 7.47875 10.4167C7.47875 10.1865 7.29221 10 7.06208 10V10.8333ZM3.33333 7.93133C3.33333 9.53404 4.63263 10.8333 6.23533 10.8333V10C5.09283 10 4.16667 9.07383 4.16667 7.93133H3.33333ZM6.23533 10.8333H7.06208V10H6.23533V10.8333Z"/>
    <path fill="#fff" fill-rule="evenodd" d="M11.69 10.417C11.69 10.187 11.876 10 12.106 10H14.583C14.813 10 15 10.187 15 10.417 15 10.647 14.813 10.833 14.583 10.833H12.106C11.876 10.833 11.69 10.647 11.69 10.417ZM8.75 16.667C8.98 16.667 9.167 16.853 9.167 17.083 9.167 17.313 8.98 17.5 8.75 17.5 8.52 17.5 8.333 17.313 8.333 17.083 8.333 16.853 8.52 16.667 8.75 16.667ZM10.417 16.667C10.647 16.667 10.833 16.853 10.833 17.083 10.833 17.313 10.647 17.5 10.417 17.5 10.187 17.5 10 17.313 10 17.083 10 16.853 10.187 16.667 10.417 16.667ZM17.083 15C15.933 15 15 15.933 15 17.083 15 18.234 15.933 19.167 17.083 19.167 18.234 19.167 19.167 18.234 19.167 17.083 19.167 15.933 18.234 15 17.083 15ZM14.167 17.083C14.167 15.472 15.473 14.167 17.083 14.167 18.694 14.167 20 15.472 20 17.083 20 18.694 18.694 20 17.083 20 15.473 20 14.167 18.694 14.167 17.083Z" clip-rule="evenodd"/>
    <path fill="#fff" d="M14.1686 17.086L13.7467 17.0998L14.1686 17.086Z"/>
    <path fill="#fff" fill-rule="evenodd" d="M14.5851 17.0725C14.5926 17.3025 14.4122 17.495 14.1822 17.5025L13.7603 17.5162C13.5303 17.5237 13.3378 17.3434 13.3303 17.1134C13.3228 16.8834 13.5032 16.6908 13.7332 16.6834L14.1551 16.6696C14.3851 16.6621 14.5776 16.8425 14.5851 17.0725Z" clip-rule="evenodd"/>
</svg>
