<svg xmlns="http://www.w3.org/2000/svg" width="20" height="20" fill="none" viewBox="0 0 20 20">
    <path fill="#fff" fill-rule="evenodd" d="M10 .246c-5.523 0-10 4.477-10 10a9.995 9.995 0 0 0 6.836 9.488c.5.086.687-.21.687-.476 0-.238-.011-1.024-.011-1.863-2.512.46-3.164-.614-3.364-1.176-.113-.29-.601-1.176-1.023-1.414-.352-.188-.852-.649-.012-.664.79-.012 1.352.726 1.54 1.023.898 1.512 2.335 1.086 2.913.824.086-.648.352-1.086.637-1.336-2.226-.25-4.55-1.113-4.55-4.937 0-1.086.386-1.988 1.023-2.688-.102-.25-.45-1.273.101-2.648 0 0 .836-.262 2.75 1.023a9.2 9.2 0 0 1 2.5-.336c.852 0 1.7.114 2.5.336 1.914-1.3 2.75-1.023 2.75-1.023.551 1.375.2 2.398.102 2.648.637.7 1.023 1.586 1.023 2.688 0 3.836-2.336 4.687-4.562 4.937.363.313.676.914.676 1.852 0 1.336-.012 2.414-.012 2.75 0 .262.187.574.687.476A10.01 10.01 0 0 0 20 10.247c0-5.523-4.477-10-10-10" clip-rule="evenodd"/>
</svg>
