<svg xmlns="http://www.w3.org/2000/svg" width="20" height="20" fill="none" viewBox="0 0 20 20">
    <path fill="#e24329" d="m19.668 7.992-.029-.072L16.917.816a.71.71 0 0 0-.704-.446.73.73 0 0 0-.41.153.73.73 0 0 0-.24.367l-1.839 5.623H6.281L4.443.89a.7.7 0 0 0-.241-.368.73.73 0 0 0-.833-.045.7.7 0 0 0-.28.338L.36 7.916l-.027.072A5.055 5.055 0 0 0 2.01 13.83l.009.007.025.018 4.147 3.105 2.051 1.553 1.25.944a.84.84 0 0 0 1.016 0l1.25-.944 2.052-1.553 4.172-3.124.01-.008a5.06 5.06 0 0 0 1.675-5.836"/>
    <path fill="#fc6d26" d="m19.668 7.992-.029-.072a9.2 9.2 0 0 0-3.66 1.645L10 14.086l3.809 2.878 4.171-3.124.01-.008a5.06 5.06 0 0 0 1.678-5.84"/>
    <path fill="#fca326" d="m6.192 16.965 2.051 1.553 1.25.943a.84.84 0 0 0 1.016 0l1.25-.943 2.052-1.553L10 14.086z"/>
    <path fill="#fc6d26" d="M4.02 9.566a9.2 9.2 0 0 0-3.659-1.65l-.027.072a5.055 5.055 0 0 0 1.677 5.842l.009.007.025.018 4.147 3.105L10 14.083z"/>
</svg>
