<svg xmlns="http://www.w3.org/2000/svg" width="20" height="20" fill="none" viewBox="0 0 20 20">
    <path fill="#fff" d="m11.427 6.784.044.029c.516.34.886.808 1.13 1.373.058.087.019.136-.098.165l-.198.051c-.447.115-.802.212-1.243.327l-.252.066c-.09.022-.115.013-.212-.097l-.013-.016c-.138-.155-.24-.26-.423-.352l-.035-.018c-.613-.301-1.207-.214-1.762.146-.663.429-1.003 1.062-.994 1.85.01.78.546 1.422 1.315 1.53.662.087 1.217-.147 1.655-.643.088-.107.166-.224.263-.36H8.725c-.205 0-.253-.127-.185-.293l.034-.08c.125-.29.319-.709.445-.948l.028-.052a.26.26 0 0 1 .233-.137h3.134c.14-.446.369-.867.673-1.266.711-.935 1.568-1.421 2.727-1.626.993-.175 1.928-.078 2.775.497.77.526 1.247 1.236 1.373 2.171.166 1.315-.214 2.386-1.12 3.301-.642.653-1.431 1.062-2.337 1.247-.263.048-.525.058-.779.087-.886-.02-1.694-.272-2.376-.857a3.06 3.06 0 0 1-.973-1.516q-.17.345-.41.66c-.7.925-1.616 1.5-2.775 1.655-.954.127-1.84-.059-2.62-.643-.72-.545-1.129-1.266-1.236-2.162-.126-1.061.185-2.015.828-2.853.691-.905 1.607-1.48 2.726-1.684.899-.163 1.76-.063 2.537.447m4.632 1.395-.03.007c-.906.204-1.49.779-1.705 1.694-.175.76.195 1.529.896 1.84.536.234 1.071.205 1.587-.058.77-.4 1.188-1.022 1.237-1.86-.01-.126-.01-.224-.03-.321-.173-.953-1.04-1.497-1.955-1.302M4.547 9.959c.04 0 .059.028.059.067l-.02.234c0 .039-.038.068-.068.068l-2.123-.01c-.038 0-.048-.029-.029-.058l.137-.243c.02-.03.058-.059.097-.059zm.215-.897c.039 0 .058.03.048.059l-.077.233c-.01.04-.05.059-.088.059l-4.606.01c-.039 0-.049-.02-.03-.05l.205-.262c.02-.03.068-.049.107-.049zm.506-.896c.039 0 .049.03.03.059l-.166.253c-.02.03-.068.058-.098.058l-3.525-.01c-.039 0-.048-.019-.029-.048l.205-.263c.02-.03.068-.049.107-.049z"/>
</svg>
