<svg xmlns="http://www.w3.org/2000/svg" width="20" height="20" fill="none" viewBox="0 0 20 20">
    <path fill="url(#a)" d="M19.172 8.83a7.5 7.5 0 0 0-.2-1.152 7 7 0 0 0-.519-1.38 7.6 7.6 0 0 0-.965-1.476 8 8 0 0 0-.523-.562c.281-1.117-.34-2.09-.34-2.09-1.074-.066-1.758.336-2.012.52-.043-.016-.082-.04-.125-.055-.183-.07-.37-.145-.566-.203a7 7 0 0 0-.594-.164 6 6 0 0 0-.617-.122c-.04-.003-.07-.011-.11-.015C12.134.63 10.786.002 10.786.002 9.281.955 9 2.287 9 2.287l-.016.078c-.082.024-.164.051-.246.07-.117.032-.23.079-.34.122-.117.043-.226.09-.34.136a7.7 7.7 0 0 0-1.3.723l-.055-.023c-2.086-.79-3.933.164-3.933.164-.172 2.214.832 3.609 1.03 3.863q-.073.207-.136.414c-.152.5-.27 1.016-.34 1.547-.011.078-.023.152-.027.23C1.367 10.565.8 12.51.8 12.51c1.601 1.847 3.476 1.96 3.476 1.96l.004-.003q.358.639.82 1.207c.133.16.266.308.407.457-.586 1.676.082 3.062.082 3.062 1.785.067 2.957-.78 3.207-.976.176.062.36.117.539.16a7.7 7.7 0 0 0 1.676.246c.136.004.281.012.418.004h.199l.09-.004v.004c.844 1.2 2.32 1.371 2.32 1.371 1.05-1.11 1.113-2.21 1.113-2.445v-.098q.33-.229.63-.5a6.8 6.8 0 0 0 1.097-1.285l.082-.133c1.191.066 2.031-.738 2.031-.738-.199-1.239-.902-1.848-1.05-1.961l-.016-.012c-.012-.004-.012-.011-.012-.011a.1.1 0 0 0-.027-.016c.004-.078.011-.149.015-.227.012-.132.012-.27.012-.402v-.207l-.004-.082-.004-.11a.5.5 0 0 0-.011-.105c-.008-.035-.004-.07-.012-.106l-.012-.105-.015-.105c-.024-.137-.044-.27-.079-.407a5.4 5.4 0 0 0-.605-1.5 5 5 0 0 0-1.008-1.199 5.1 5.1 0 0 0-1.273-.82 5 5 0 0 0-1.407-.399 5 5 0 0 0-.71-.039h-.18l-.09.004c-.031 0-.066.004-.094.004a3.94 3.94 0 0 0-1.672.547c-.39.238-.734.527-1.008.86a3.85 3.85 0 0 0-.895 2.234q-.004.143-.003.285v.07l.004.078c.004.043.004.094.012.137a3.05 3.05 0 0 0 .578 1.512c.203.277.453.5.71.683.259.176.54.305.817.387s.55.117.809.117h.144c.02 0 .031 0 .051-.004l.082-.004c.004 0 .016 0 .024-.003l.027-.004c.015 0 .031-.004.05-.004.032-.004.063-.012.094-.016a.3.3 0 0 0 .09-.023 2.3 2.3 0 0 0 .484-.184c.098-.05.188-.11.278-.164.023-.016.05-.031.07-.055a.206.206 0 0 0-.226-.343c-.024.011-.043.023-.067.03a2 2 0 0 1-.496.164q-.066.01-.137.016c-.023 0-.043.005-.07.005h-.133q-.04.001-.082-.005h-.03q-.02 0-.04-.003c-.027-.004-.05-.004-.078-.012a2.3 2.3 0 0 1-.602-.176 2.13 2.13 0 0 1-1.25-1.965c0-.031.004-.066.004-.097v-.043l.004-.051c.004-.066.016-.133.027-.2.094-.527.36-1.046.766-1.437a3 3 0 0 1 .332-.27 2.5 2.5 0 0 1 1.211-.44c.07-.005.145-.012.219-.012h.172l.062.003a3.3 3.3 0 0 1 1.36.406 3.27 3.27 0 0 1 1.636 2.313q.02.123.028.246l.004.063.003.062v.243l-.003.144c-.004.09-.016.184-.028.27-.012.09-.027.175-.043.265s-.039.176-.062.258c-.043.172-.098.34-.164.512a4.24 4.24 0 0 1-2.184 2.3 4 4 0 0 1-1.035.313c-.176.031-.36.05-.54.055h-.273c-.097 0-.191-.004-.293-.016a5.7 5.7 0 0 1-1.14-.203 6 6 0 0 1-1.07-.43 5.64 5.64 0 0 1-2.38-2.418 5.6 5.6 0 0 1-.593-2.16l-.004-.07v-.477a7 7 0 0 1 .043-.562 7.4 7.4 0 0 1 .23-1.129c.106-.371.239-.727.391-1.063a6 6 0 0 1 1.21-1.754 5 5 0 0 1 .38-.34 5.3 5.3 0 0 1 .848-.55q.107-.061.226-.11.06-.021.117-.05.06-.023.117-.051c.153-.067.313-.121.48-.172q.062-.016.122-.04c.04-.01.082-.023.121-.03q.123-.034.246-.063c.04-.012.082-.015.125-.027s.082-.016.125-.028c.043-.003.082-.015.125-.023l.063-.012.066-.011.125-.016c.05-.004.094-.012.145-.016l.144-.015c.027-.004.063-.004.09-.012l.063-.004.027-.004h.031c.05-.004.094-.004.145-.012l.07-.003h.05l.122-.004q.242-.006.484 0c.32.011.633.05.938.105a6.76 6.76 0 0 1 3.101 1.477l.078.066c.024.024.051.043.07.066.052.043.094.09.145.133q.075.067.137.133a7 7 0 0 1 .606.688c.285.37.519.742.699 1.097.011.024.023.043.03.067q.02.033.032.066c.024.043.043.09.063.133.023.043.039.082.062.125.016.043.04.082.055.125.066.164.133.324.183.473q.122.363.192.644a.15.15 0 0 0 .164.117.15.15 0 0 0 .144-.152 4 4 0 0 0-.02-.715"/>
    <defs>
        <linearGradient id="a" x1="10" x2="10" y1="5.98" y2="19.856" gradientUnits="userSpaceOnUse">
            <stop stop-color="#f05a28"/>
            <stop offset="1" stop-color="#fbca0a"/>
        </linearGradient>
    </defs>
</svg>
