<svg width="20" height="20" viewBox="0 0 20 20" fill="none" xmlns="http://www.w3.org/2000/svg">
<path d="M17.0169 9.63723C17.0169 13.5984 13.8762 16.8127 9.99983 16.8127C6.12349 16.8127 2.98286 13.5984 2.98286 9.63723C2.98286 5.67596 6.12355 2.46169 9.99983 2.46169C13.8762 2.46169 17.0169 5.67596 17.0169 9.63723Z" fill="#D33833"/>
<path d="M3.27145 11.4141C3.27145 11.4141 2.76216 3.93308 9.66035 3.71796L9.17935 2.91439L5.4388 4.17067L4.3693 5.39867L3.43559 7.18689L2.9036 9.26938L3.06209 10.6615" fill="#EF3D3A"/>
<path d="M5.19553 4.74225C3.96759 6.00418 3.2036 7.74152 3.2036 9.66552C3.2036 11.5895 3.96759 13.3268 5.19553 14.5887C6.42917 15.8507 8.12123 16.6259 9.99995 16.6259C11.8787 16.6259 13.5707 15.8507 14.8044 14.5888C16.0324 13.3268 16.7963 11.5895 16.7963 9.66552C16.7963 7.74146 16.0324 6.00418 14.8044 4.74225C13.5708 3.48597 11.8787 2.7051 9.99995 2.7051C8.12688 2.7051 6.42923 3.48033 5.19553 4.74225ZM4.88431 14.8887C3.57716 13.5532 2.76788 11.7027 2.76788 9.66552C2.76788 7.62831 3.57716 5.77783 4.88431 4.43668C6.19152 3.10118 8.00238 2.26933 10 2.26933C11.9976 2.26933 13.8084 3.10118 15.1157 4.43668C16.4228 5.77218 17.2321 7.62261 17.2321 9.66552C17.2321 11.7027 16.4228 13.5532 15.1157 14.8887C13.8084 16.2298 11.9976 17.056 9.99995 17.056C8.00238 17.056 6.19152 16.2298 4.88431 14.8887Z" fill="#231F20"/>
<path d="M12.9539 9.67675L11.8843 9.83519L10.4413 9.99932L9.50762 10.022L8.59655 9.99368L7.90048 9.77867L7.28363 9.11084L6.80263 7.74706L6.69513 7.45278L6.0557 7.23777L5.68214 6.62099L5.41621 5.73815L5.71049 4.96293L6.40655 4.71958L6.96677 4.98557L7.23271 5.57413L7.55527 5.52314L7.66278 5.38735L7.55527 4.7705L7.52699 3.99523L7.68542 2.92573L7.67977 2.31459L8.16642 1.53366L9.02092 0.916818L10.5149 0.277388L12.173 0.520682L13.616 1.56195L14.2837 2.63145L14.7138 3.40673L14.8213 5.33072L14.4988 6.98878L13.9102 8.46012L13.3557 9.24669" fill="#F0D6B7"/>
<path d="M12.0484 14.3001L8.22863 14.4585V15.098L8.5512 17.3446L8.39271 17.5313L5.72172 16.6202L5.535 16.2977L5.26901 13.2758L4.64087 11.465L4.50508 11.0349L6.64414 9.56361L7.31192 9.29762L7.90042 10.0219L8.40971 10.4747L8.99827 10.6614L9.2642 10.7407L9.58677 12.1327L9.83012 12.427L10.4469 12.212L10.0168 13.0438L12.337 14.1416L12.0484 14.3001Z" fill="#335061"/>
<path d="M5.71052 4.97425L6.40659 4.73096L6.96681 4.99689L7.23275 5.58545L7.55532 5.53452L7.63459 5.21196L7.4761 4.59511L7.63453 3.12383L7.49874 2.32026L7.97974 1.76005L9.02096 0.933842L8.72668 0.53206L7.25539 1.25635L6.63859 1.73741L6.29338 2.48434L5.76145 3.20869L5.60302 4.06318L5.71052 4.97425Z" fill="#6D6B6D"/>
<path d="M6.80836 2.46168C6.80836 2.46168 7.21009 1.47139 8.81157 0.990391C10.413 0.50939 8.89084 0.645182 8.89084 0.645182L7.15346 1.31296L6.4858 1.98068L6.19152 2.51261L6.80836 2.46168ZM6.0048 4.78752C6.0048 4.78752 5.44453 2.91439 7.58358 2.64846L7.50437 2.32589L6.03309 2.6711L5.60302 4.06318L5.71052 4.97425L6.0048 4.78752Z" fill="#DCD9D8"/>
<path d="M6.85921 7.27179L7.21001 6.93223C7.21001 6.93223 7.3685 6.94922 7.39679 7.13594C7.42507 7.32272 7.50429 9.00906 8.65307 9.91449C8.76057 9.99935 7.79857 9.77864 7.79857 9.77864L6.94402 8.44315L6.85921 7.27179ZM11.7768 6.76245C11.7768 6.76245 11.839 5.95324 12.0597 6.01551C12.2804 6.07774 12.2804 6.29839 12.2804 6.29839C12.2804 6.29839 11.7485 6.63795 11.7768 6.76245ZM13.9951 3.79724C13.9951 3.79724 13.5537 3.88775 13.5141 4.27824C13.4744 4.66867 13.9951 4.35746 14.0743 4.32917L13.9951 3.79724ZM10.7639 3.82553C10.7639 3.82553 10.1753 3.90475 10.1753 4.27824C10.1753 4.65168 10.8431 4.62339 11.0298 4.46496L10.7639 3.82553ZM7.13079 5.5628C7.13079 5.5628 6.11792 4.94596 6.01041 5.53452C5.90291 6.12302 5.6652 6.54738 6.16885 7.16423L5.82364 7.05673L5.50112 6.23052L5.39356 5.42696L6.01041 4.78753L6.70642 4.83846L7.10821 5.16102L7.13079 5.5628ZM7.61185 3.87646C7.61185 3.87646 8.06451 1.52234 10.3621 1.06963C12.2521 0.696133 13.2481 1.1489 13.6216 1.57891C13.6216 1.57891 11.9352 -0.424295 10.3337 0.186847C8.73229 0.803693 7.55522 1.92412 7.58351 2.64282C7.62879 3.8764 7.61185 3.87646 7.61185 3.87646ZM13.8083 1.84491C13.8083 1.84491 13.0331 1.81662 13.0047 2.51262C13.0047 2.51262 13.0047 2.62018 13.0557 2.72769C13.0557 2.72769 13.6725 2.03162 14.046 2.40512" fill="#F7E4CD"/>
<path d="M10.4187 2.80126C10.4187 2.80126 10.2829 1.73739 9.3775 2.35419C8.78893 2.75598 8.84551 3.3162 8.94742 3.42376C9.05493 3.53127 9.02664 3.74628 9.10586 3.59919C9.18508 3.45205 9.16243 2.97105 9.45672 2.8352C9.7453 2.6994 10.232 2.55232 10.4187 2.80126Z" fill="#F7E4CD"/>
<path d="M7.9062 10.022L5.39352 11.1424C5.39352 11.1424 6.4348 15.2848 5.90281 16.5693L5.52937 16.4335L5.50108 14.8547L4.80502 11.8668L4.51074 11.0406L7.1308 9.27498L7.9062 10.022ZM8.16078 12.3138L8.51728 12.7496V14.351H8.09292C8.09292 14.351 8.04199 13.2306 8.04199 13.0948C8.04199 12.959 8.09292 12.478 8.09292 12.478L8.16078 12.3138ZM8.17213 14.5944L6.96678 14.6453L7.31199 14.8887L8.16643 15.0245" fill="#49728B"/>
<path d="M12.2862 14.3284L13.2764 14.3001L13.5198 16.756L12.5069 16.8919L12.2862 14.3284Z" fill="#335061"/>
<path d="M12.5521 14.3284L14.046 14.2491C14.046 14.2491 14.6629 12.6986 14.6629 12.6194C14.6629 12.5401 15.1948 10.3729 15.1948 10.3729L13.9894 9.11658L13.7461 8.90157L13.1067 9.541V12.0253L12.5521 14.3284Z" fill="#335061"/>
<path d="M13.2199 14.1416L12.2862 14.3284L12.422 15.0754C12.7672 15.2339 13.3557 14.8094 13.3557 14.8094L13.2199 14.1416ZM13.2482 9.4618L15.1213 10.8539L15.1722 10.2144L13.7575 8.90723L13.2482 9.4618Z" fill="#49728B"/>
<path d="M9.10017 19.5911L8.54561 17.3446L8.26832 15.6865L8.22304 14.4585L10.7299 14.3228H12.2861L12.1446 17.1295L12.3879 19.2969L12.3597 19.6986L10.3281 19.8571L9.10017 19.5911Z" fill="white"/>
<path d="M11.9409 14.3001C11.9409 14.3001 11.8051 17.0786 12.2069 19.0592C12.2069 19.0592 11.4033 19.5685 10.232 19.6986L12.4785 19.6194L12.7444 19.461L12.4219 15.081L12.337 14.1416" fill="#DCD9D8"/>
<path d="M13.5594 16.5467L14.6006 16.2524L16.5756 16.1449L16.8699 15.2338L16.3379 13.655L15.7211 13.5758L14.8666 13.8418L14.0517 14.2436L13.616 14.1643L13.2764 14.3001" fill="white"/>
<path d="M13.5423 16.0091C13.5423 16.0091 14.2384 15.6866 14.3459 15.7149L14.0517 14.2436L14.3968 14.1077C14.3968 14.1077 14.6402 15.4999 14.6402 15.6583C14.6402 15.6583 16.1341 15.7375 16.2699 15.7375C16.2699 15.7375 16.5924 15.1206 16.5132 14.4812L16.8075 15.3357L16.8358 15.8167L16.4057 16.4562L15.9247 16.5637L15.1212 16.5354L14.8552 16.1902L13.9215 16.326L13.6272 16.4336" fill="#DCD9D8"/>
<path d="M12.4898 14.1133L11.9013 12.6194L11.2845 11.7366C11.2845 11.7366 11.4203 11.3632 11.607 11.3632H12.2239L12.8125 11.5782L12.7615 12.5685L12.4898 14.1133Z" fill="white"/>
<path d="M12.6087 13.6041C12.6087 13.6041 11.8617 12.1611 11.8617 11.946C11.8617 11.946 11.9975 11.6234 12.1842 11.7027C12.371 11.7819 12.7728 11.997 12.7728 11.997V11.4876L11.8617 11.3009L11.2448 11.3801L12.2861 13.8475L12.5011 13.8758" fill="#DCD9D8"/>
<path d="M9.33788 10.0786L8.59658 9.99934L7.90051 9.78432V10.0277L8.24002 10.4012L9.30959 10.8822" fill="white"/>
<path d="M8.14376 10.1578C8.14376 10.1578 8.96992 10.503 9.24161 10.4238L9.26984 10.7463L8.52291 10.5879L8.07019 10.2653L8.14376 10.1578Z" fill="#DCD9D8"/>
<path d="M13.5593 11.4538C13.1066 11.4424 12.6935 11.3858 12.337 11.284C12.3596 11.1368 12.3143 10.9954 12.354 10.8878C12.4558 10.8143 12.6199 10.8143 12.7727 10.7973C12.6426 10.735 12.4558 10.7067 12.3087 10.7464C12.303 10.6445 12.2578 10.5822 12.2294 10.503C12.4841 10.4125 13.084 9.81831 13.4235 10.0107C13.5876 10.1069 13.6555 10.6388 13.6668 10.9048C13.6781 11.1198 13.6442 11.3349 13.5593 11.4538Z" fill="#D33833"/>
<path d="M11.3921 10.7124C11.3921 10.7464 11.3921 10.7802 11.3864 10.8142C11.245 10.9048 11.0185 10.9048 10.8601 10.984C11.0865 10.9953 11.2676 11.0519 11.426 11.1255C11.4203 11.2104 11.4203 11.3009 11.4147 11.3858C11.1544 11.5612 10.9167 11.8272 10.6112 11.9969C10.464 12.0762 9.9604 12.2799 9.80761 12.2403C9.72269 12.2177 9.7114 12.1102 9.67747 12.0083C9.6039 11.7933 9.43412 11.4424 9.41712 11.1142C9.40013 10.7011 9.3549 10.005 9.80191 10.0899C10.1641 10.1578 10.5828 10.3219 10.8601 10.4747C11.0355 10.5766 11.1318 10.6897 11.3921 10.7124Z" fill="#D33833"/>
<path d="M11.6467 11.2047C11.607 10.9783 11.5617 10.9162 11.5787 10.718C12.1843 10.3162 12.2919 11.4085 11.6467 11.2047Z" fill="#D33833"/>
<path d="M12.518 11.3858C12.518 11.3858 12.3313 11.1198 12.4671 11.0406C12.6029 10.9614 12.7331 11.0406 12.8123 10.9048C12.8916 10.769 12.8123 10.6898 12.8406 10.5313C12.8689 10.3729 12.999 10.3446 13.1349 10.3163C13.2707 10.288 13.6442 10.237 13.6951 10.3672L13.5367 9.88616L13.2141 9.77866L12.2012 10.3672L12.1502 10.6615V11.25L12.518 11.3858ZM9.71126 12.2686C9.67733 11.8498 9.64339 11.4367 9.6094 11.018C9.55283 10.3955 9.75654 10.503 10.2998 10.503C10.3847 10.503 10.809 10.5992 10.8374 10.6615C10.9845 10.9614 10.594 10.8935 11.0071 11.1198C11.3523 11.3066 11.9692 11.0067 11.8277 10.5822C11.7484 10.486 11.4202 10.5539 11.3014 10.4917L10.6733 10.1692C10.4073 10.0333 9.79612 9.82959 9.51319 10.022C8.79449 10.5087 9.55847 11.731 9.81312 12.2403" fill="#EF3D3A"/>
<path d="M10.4187 2.80126C9.68873 2.63148 9.32657 3.1069 9.10586 3.59919C8.90779 3.55397 8.98703 3.28225 9.03802 3.14646C9.1681 2.78996 9.69445 2.3089 10.1245 2.37683C10.3055 2.39947 10.5545 2.56926 10.4187 2.80126ZM13.9669 3.62741H14.0008C14.165 3.96697 14.3064 4.32917 14.5158 4.63475C14.3744 4.96296 13.4632 5.24589 13.4745 4.66868C13.6726 4.58382 14.0122 4.65168 14.1876 4.53853C14.0857 4.26125 13.9442 4.02349 13.9669 3.62741ZM10.7866 3.63881C10.945 3.92739 10.9959 4.22731 11.2166 4.44238C11.3185 4.53853 11.5109 4.65739 11.4147 4.92897C11.3921 4.99125 11.228 5.13274 11.1317 5.16103C10.7866 5.26289 9.97732 5.18367 10.249 4.74789C10.5375 4.75924 10.9224 4.93467 11.1375 4.72525C10.9733 4.46496 10.679 3.94433 10.7866 3.63881ZM13.8367 6.5474C13.3161 6.88131 12.7332 7.24916 11.8731 7.16425C11.692 7.00581 11.6185 6.64925 11.7995 6.41731C11.89 6.57574 11.8335 6.87002 12.0938 6.91525C12.5805 7.00017 13.1463 6.61532 13.4972 6.48523C13.7122 6.11738 13.4802 5.98724 13.2822 5.74953C12.8804 5.26853 12.3485 4.66868 12.3654 3.95003C12.5295 3.83118 12.5408 4.1311 12.5635 4.18203C12.7728 4.66868 13.2992 5.29682 13.6783 5.7156C13.7745 5.81746 13.9272 5.91931 13.9442 5.98724C13.9952 6.1796 13.8141 6.4172 13.8367 6.5474ZM6.94411 6.1966C6.78004 6.10039 6.74046 5.69296 6.54803 5.68161C6.27075 5.66467 6.32167 6.21359 6.32167 6.53611C6.13495 6.36638 6.10096 5.83439 6.23681 5.56281C6.07838 5.48354 6.0104 5.64767 5.91989 5.70425C6.03874 4.88374 7.12519 5.32511 6.94411 6.1966ZM14.165 6.89261C13.9216 7.35667 13.5764 7.86596 12.8634 7.88295C12.8464 7.73581 12.8351 7.50381 12.8634 7.41324C13.4123 7.35667 13.7518 7.07938 14.165 6.89261ZM10.747 7.19253C11.1997 7.43024 12.0372 7.45853 12.6597 7.44153C12.6936 7.57738 12.6936 7.7471 12.6936 7.91124C11.8957 7.94517 10.9563 7.7471 10.747 7.19253ZM10.6621 7.63395C10.979 8.42617 12.0598 8.33566 12.9709 8.31302C12.9313 8.41488 12.8464 8.53938 12.7332 8.57896C12.439 8.69781 11.6354 8.78838 11.228 8.57331C10.9733 8.43752 10.8035 8.12625 10.6621 7.94517C10.5998 7.86031 10.2603 7.6396 10.6621 7.63395Z" fill="#231F20"/>
<path d="M13.797 11.9969C13.4292 12.6307 13.0727 13.2815 12.637 13.8361C12.818 13.2985 12.8972 12.3931 12.9256 11.7027C13.3104 11.5216 13.6386 11.7422 13.797 11.9969Z" fill="#81B0C4"/>
<path d="M15.7834 14.2718C15.3703 14.3567 15.0817 14.7585 14.6742 14.7302C14.9006 14.4189 15.2854 14.2831 15.7834 14.2718ZM15.9644 14.9169C15.6249 14.9509 15.2288 15.0075 14.8893 14.9792C15.0534 14.7302 15.6759 14.8207 15.9644 14.9169ZM16.0833 15.4772C15.7041 15.4828 15.2344 15.4772 14.8723 15.4488C15.0873 15.2168 15.8399 15.364 16.0833 15.4772Z" fill="#231F20"/>
<path d="M13.0841 17.0051C13.1406 17.4804 13.3274 17.9615 13.3048 18.482C13.0954 18.5499 12.9766 18.6122 12.6936 18.6122C12.6766 18.1708 12.6144 17.4918 12.6314 17.0673C12.7671 17.0786 12.9709 16.9711 13.0841 17.0051Z" fill="#DCD9D8"/>
<path d="M12.4729 9.98806C12.2805 10.1125 12.1221 10.2653 11.9353 10.4012C11.5278 10.4238 11.3071 10.3729 11.0129 10.1409C11.0185 10.1239 11.0468 10.1295 11.0468 10.1069C11.4825 10.2993 12.0371 10.0277 12.4729 9.98806Z" fill="#F0D6B7"/>
<path d="M10.198 12.9476C10.3168 12.4326 10.7866 12.161 11.2109 11.8781C11.6466 12.4327 11.9126 13.1457 12.2069 13.8361C11.5108 13.6267 10.8035 13.2929 10.198 12.9476Z" fill="#81B0C4"/>
<path d="M12.6312 17.073C12.6143 17.4974 12.6708 18.1708 12.6935 18.6178C12.9765 18.6178 13.0953 18.5556 13.3047 18.4877C13.3273 17.967 13.1405 17.486 13.084 17.0107C12.9708 16.9711 12.767 17.0786 12.6312 17.073ZM8.26256 14.6736C8.44934 16.3769 8.71527 17.8029 9.20757 19.3139C10.2998 19.6478 11.6126 19.676 12.5803 19.3761C12.4049 18.5273 12.4785 17.4918 12.3766 16.5806C12.2973 15.8959 12.337 15.2112 12.2295 14.5151C11.0581 14.2718 9.40569 14.4586 8.26256 14.6736ZM12.5068 14.5265C12.4954 15.2565 12.5407 15.9808 12.5973 16.7108C12.8802 16.6712 13.067 16.6429 13.3273 16.5806C13.2424 15.8789 13.2537 15.0811 13.0783 14.4586C12.8802 14.4643 12.7048 14.4586 12.5068 14.5265ZM13.9271 14.4076C13.7913 14.3793 13.6385 14.4076 13.514 14.4076C13.5763 15.0018 13.7177 15.6583 13.7687 16.2864C13.9667 16.292 14.0742 16.1958 14.2384 16.1675C14.2497 15.6186 14.1931 14.8603 13.9271 14.4076ZM16.0832 16.3769C16.5019 16.2751 16.7622 15.7658 16.6434 15.2395C16.5642 14.8886 16.4284 14.2209 16.2755 13.9945C16.168 13.8304 15.8681 13.6097 15.6248 13.7625C15.2343 14.0115 14.5496 14.0851 14.2667 14.385C14.4081 14.8603 14.4534 15.5055 14.51 16.1053C14.9967 16.1336 15.5908 15.9695 15.9983 16.1449C15.7153 16.2355 15.3532 16.2355 15.1098 16.3713C15.3135 16.4675 15.7776 16.4505 16.0832 16.3769ZM12.2012 13.8361C11.9069 13.1457 11.641 12.4327 11.2052 11.8781C10.7808 12.161 10.3168 12.4327 10.1923 12.9476C10.8034 13.2928 11.5108 13.6267 12.2012 13.8361ZM12.9256 11.7027C12.8972 12.3931 12.818 13.2985 12.637 13.8361C13.0727 13.2759 13.4293 12.6307 13.797 11.9969C13.6386 11.7422 13.3104 11.5216 12.9256 11.7027ZM12.105 11.4141C11.9408 11.3971 11.7994 11.6065 11.5843 11.5159C11.5334 11.5725 11.4881 11.6291 11.4372 11.6857C11.9125 12.2629 12.1333 13.0778 12.5011 13.7512C12.6992 13.1005 12.6765 12.3931 12.7218 11.6857C12.4502 11.697 12.2974 11.4311 12.105 11.4141ZM11.6467 11.2047C11.607 10.9783 11.5617 10.9162 11.5787 10.718C12.1843 10.3162 12.2919 11.4085 11.6467 11.2047ZM10.86 10.4804C10.5827 10.3275 10.164 10.1634 9.80177 10.0956C9.35476 10.0107 9.39999 10.7067 9.41698 11.1198C9.43398 11.448 9.60376 11.7932 9.67733 12.0139C9.71126 12.1158 9.72256 12.2233 9.80748 12.2459C9.96026 12.2799 10.4695 12.0818 10.611 12.0026C10.9166 11.8385 11.1543 11.5726 11.4146 11.3914C11.4203 11.3066 11.4203 11.216 11.4259 11.1311C11.2675 11.0519 11.092 11.001 10.86 10.9897C11.0128 10.9104 11.2448 10.9104 11.3863 10.8199C11.3863 10.7859 11.3863 10.752 11.392 10.718C11.1316 10.6897 11.0354 10.5766 10.86 10.4804ZM8.20034 9.99936C7.96834 10.237 8.85107 10.5539 9.12841 10.5709C9.12841 10.4238 9.21327 10.2823 9.19627 10.1748C8.86241 10.1182 8.4267 10.1578 8.20034 9.99936ZM11.0525 10.1069C11.0525 10.1295 11.0241 10.1239 11.0185 10.1409C11.3184 10.3729 11.539 10.4237 11.9408 10.4011C12.122 10.271 12.286 10.1126 12.4785 9.98801C12.037 10.0276 11.4825 10.2993 11.0525 10.1069ZM13.6668 10.8991C13.6555 10.6388 13.5875 10.1012 13.4235 10.005C13.084 9.80694 12.4841 10.4068 12.2295 10.4974C12.2578 10.5766 12.303 10.6388 12.3087 10.7407C12.4615 10.7011 12.6425 10.7294 12.7727 10.7916C12.6199 10.8086 12.4558 10.8086 12.354 10.8821C12.32 10.9896 12.3653 11.1311 12.337 11.2783C12.6935 11.3801 13.1066 11.4311 13.5593 11.448C13.6442 11.3349 13.6781 11.1198 13.6668 10.8991ZM7.80985 10.2257C7.73628 10.1748 7.24399 9.5353 7.17607 9.56359C6.28764 9.9145 5.45578 10.52 4.71444 11.0972C5.42179 12.6194 5.71043 14.4812 5.76136 16.2751C6.57062 16.6542 7.28357 17.2031 8.38706 17.2597C8.25692 16.36 8.14377 15.5507 8.0702 14.7019C7.79291 14.5831 7.39678 14.7076 7.13649 14.6679C7.13649 14.3567 7.53257 14.5321 7.5665 14.3228C7.5892 14.1643 7.34579 14.153 7.42506 13.904C7.62878 13.9776 7.73628 14.1416 7.95134 14.2039C8.14941 13.7738 7.95134 13.0099 7.97963 12.6477C7.98534 12.5798 8.01357 12.2742 8.16635 12.3251C8.3022 12.3704 8.16071 13.1457 8.17205 13.4852C8.18335 13.8021 8.13242 14.1021 8.26256 14.3001C9.32648 14.153 10.4073 14.0624 11.5617 14.0285C11.307 13.921 11.0071 13.8191 10.6789 13.6323C10.4978 13.5305 9.93762 13.3211 9.88669 13.1514C9.80177 12.8797 10.1017 12.7383 10.1526 12.5062C9.61505 12.8005 9.5132 12.2233 9.38305 11.8215C9.26984 11.4537 9.20198 11.1764 9.17369 10.967C8.70398 10.7294 8.20599 10.5086 7.80985 10.2257ZM13.1971 9.63716C13.9385 9.28071 14.0742 10.9784 13.78 11.5273C13.8252 11.6914 13.978 11.7536 14.0403 11.9007C13.6272 12.6421 13.1689 13.3324 12.7444 14.0624C13.0557 13.8644 13.5084 14.0285 13.8762 13.8813C14.012 13.8304 14.1082 13.5192 14.2101 13.2702C14.493 12.5911 14.7872 11.7309 14.9174 11.0859C14.9457 10.9388 15.0306 10.6162 15.008 10.486C14.974 10.2484 14.6571 10.0729 14.493 9.93144C14.1931 9.6598 14.0063 9.42785 13.6894 9.17315C13.5706 9.35993 13.299 9.48431 13.1971 9.63716ZM6.11786 3.06719C5.767 3.45768 5.84057 4.18203 5.88021 4.70261C6.51964 4.30088 7.36284 4.7366 7.35714 5.41567C7.66271 5.40996 7.47035 5.03652 7.41377 4.79317C7.23264 4.0066 7.71934 3.15775 7.43636 2.4391C6.88749 2.48433 6.44042 2.70498 6.11786 3.06719ZM8.64171 0.809329C7.84384 1.03568 6.81956 1.61854 6.49135 2.33719C6.746 2.29761 6.92142 2.17311 7.17042 2.15612C7.26663 2.15047 7.39113 2.19575 7.49863 2.16746C7.71364 2.11089 7.90042 1.62419 8.06449 1.44311C8.22298 1.26769 8.41535 1.18847 8.54555 1.03004C8.63041 0.990402 8.75485 0.990402 8.76056 0.865903C8.72662 0.826267 8.68699 0.798037 8.64171 0.809329ZM12.801 1.02434C11.9692 0.554685 10.5658 0.20383 9.68298 0.645193C8.96992 1.00169 8.00798 1.5902 7.67971 2.3316C7.98528 3.05019 7.5892 3.70662 7.56085 4.43661C7.54956 4.82711 7.74198 5.16102 7.75892 5.58545C7.65142 5.76087 7.3345 5.77781 7.11384 5.76652C7.04028 5.39297 6.91013 4.97425 6.52529 4.92896C5.98207 4.86674 5.58028 5.31945 5.55764 5.78916C5.52935 6.34373 5.98207 7.26045 6.62714 7.19823C6.87614 7.17559 6.93842 6.92659 7.21 6.92659C7.35714 7.22087 6.9837 7.31138 6.94406 7.52074C6.93271 7.57737 6.97235 7.78673 7.00064 7.88859C7.11949 8.36959 7.37978 8.99773 7.63442 9.36558C7.96264 9.83523 8.60213 9.90315 9.29249 9.94843C9.41698 9.68244 9.8697 9.70508 10.1639 9.773C9.80747 9.63157 9.47926 9.29201 9.20762 8.99208C8.89635 8.64687 8.57948 8.27908 8.56249 7.82637C9.15669 8.64687 9.64334 9.36558 10.7185 9.72778C11.5334 9.99936 12.4841 9.60322 13.1122 9.16186C13.3725 8.98073 13.5253 8.68651 13.7121 8.42616C14.4025 7.43023 14.725 6.01546 14.6571 4.64039C14.6288 4.07452 14.6288 3.50861 14.4364 3.12946C14.2384 2.73333 13.565 2.37118 13.1688 2.73333C13.0953 2.34289 13.497 2.10519 13.9667 2.24668C13.6329 1.81096 13.282 1.29597 12.801 1.02434ZM14.3515 13.8191C15.0023 13.4966 16.2133 12.9533 16.6151 13.8191C16.7679 14.1416 16.9433 14.6793 17.0169 15.0131C17.1244 15.4772 16.898 16.4618 16.417 16.6146C15.9926 16.7504 15.5003 16.7448 14.991 16.6429C14.9287 16.592 14.8665 16.5071 14.8156 16.4165C14.4534 16.4052 14.1082 16.4335 13.8253 16.5863C13.8535 16.8579 13.6725 16.8975 13.497 16.9542C13.3725 17.4578 13.7517 18.1142 13.6612 18.5669C13.5989 18.8951 13.1971 18.946 12.9029 19.0026C12.8915 19.1837 12.9142 19.3365 12.9368 19.4893C12.869 19.7383 12.569 19.8798 12.2804 19.9137C11.3354 20.0269 9.90369 20.0778 8.99826 19.7496C8.74356 19.1272 8.54555 18.3745 8.33613 17.6672C7.45335 17.7633 6.7347 17.288 6.06128 16.9711C5.82928 16.8636 5.50671 16.8013 5.41615 16.6146C5.33128 16.4335 5.36522 16.0883 5.34258 15.7658C5.29165 14.9339 5.24072 14.1303 5.02571 13.2815C4.9295 12.8967 4.75407 12.5628 4.63522 12.1951C4.52207 11.8555 4.32965 11.4311 4.27872 11.0915C4.20515 10.5879 4.6805 10.5596 4.98043 10.3389C5.45014 9.99936 5.81793 9.81258 6.32722 9.50701C6.48006 9.4165 6.93271 9.19015 6.98364 9.08259C7.08556 8.87328 6.80827 8.579 6.7347 8.41487C6.61585 8.15458 6.55357 7.93387 6.53663 7.67917C6.11221 7.6113 5.784 7.35666 5.59163 7.07373C5.26901 6.59837 5.04265 5.72124 5.32564 5.05916C5.34828 5.00824 5.45578 4.90068 5.47278 4.82146C5.50671 4.66303 5.4105 4.45361 5.40485 4.28389C5.37657 3.41804 5.55199 2.67105 6.13485 2.41076C6.3725 1.46576 7.22129 1.15454 8.01927 0.68483C8.31919 0.509403 8.64741 0.396253 8.98691 0.271697C10.2036 -0.175312 12.0767 -0.0904496 13.0896 0.673481C13.5197 0.996048 14.2044 1.68076 14.4477 2.17876C15.0985 3.48596 15.0476 5.67595 14.5949 7.2718C14.5326 7.4868 14.4477 7.79802 14.3232 8.05837C14.2384 8.23944 13.9724 8.59594 14.0007 8.75437C14.0347 8.91851 14.6119 9.35423 14.7364 9.47308C14.9571 9.68809 15.3815 9.97107 15.4154 10.2427C15.455 10.5313 15.2909 10.9274 15.2061 11.2047C14.9344 12.1328 14.6628 12.9873 14.3515 13.8191Z" fill="#231F20"/>
<path d="M10.0226 7.39061C10.0565 7.34533 10.2489 7.27182 10.5205 7.40196C10.5205 7.40196 10.1979 7.45289 10.2262 7.99051L10.0904 7.96217C10.0961 7.96787 9.95464 7.48118 10.0226 7.39061Z" fill="#F7E4CD"/>
<path d="M12.3653 11.9856C12.3653 12.0648 12.2975 12.1328 12.2182 12.1328C12.139 12.1328 12.0711 12.0648 12.0711 11.9856C12.0711 11.9064 12.139 11.8385 12.2182 11.8385C12.3031 11.8385 12.3653 11.9064 12.3653 11.9856ZM12.5125 12.6703C12.5125 12.7496 12.4446 12.8175 12.3653 12.8175C12.2861 12.8175 12.2182 12.7496 12.2182 12.6703C12.2182 12.5911 12.2861 12.5232 12.3653 12.5232C12.4502 12.5232 12.5125 12.5855 12.5125 12.6703Z" fill="#1D1919"/>
</svg>
