<svg xmlns="http://www.w3.org/2000/svg" width="20" height="20" fill="none" viewBox="0 0 20 20">
    <path fill="#fff" d="M17.051 1.133C17.066 1.371 17.008 1.609 16.887 1.816 16.766 2.023 16.586 2.188 16.371 2.293 16.156 2.398 15.914 2.434 15.676 2.402 15.438 2.367 15.215 2.266 15.039 2.105 14.859 1.945 14.734 1.734 14.676 1.504 14.617 1.27 14.629 1.027 14.711.801 14.793.574 14.938.379 15.133.234 15.328.09 15.559.012 15.797 0 15.953-.008 16.109.016 16.258.066 16.406.117 16.543.199 16.66.305 16.777.41 16.871.539 16.938.68 17.004.824 17.043.977 17.051 1.133ZM5.598 18.387C5.617 18.688 5.547 18.988 5.395 19.25 5.242 19.512 5.016 19.719 4.742 19.852 4.469 19.984 4.164 20.031 3.867 19.988 3.566 19.945 3.289 19.816 3.063 19.613 2.84 19.41 2.68 19.148 2.605 18.856 2.531 18.563 2.547 18.254 2.648 17.969 2.75 17.684 2.934 17.438 3.176 17.258 3.418 17.078 3.711 16.977 4.012 16.961 4.211 16.949 4.406 16.981 4.594 17.043 4.781 17.109 4.953 17.211 5.098 17.344 5.246 17.477 5.363 17.637 5.449 17.816 5.539 17.992 5.59 18.188 5.598 18.387ZM2.898 3.648C2.727 3.652 2.555 3.605 2.41 3.515 2.266 3.426 2.148 3.289 2.078 3.133 2.008 2.976 1.984 2.801 2.012 2.629 2.039 2.457 2.117 2.301 2.234 2.176 2.352 2.051 2.504 1.961 2.672 1.922 2.84 1.883 3.016 1.894 3.18 1.953 3.34 2.012 3.48 2.121 3.582 2.258 3.684 2.398 3.742 2.562 3.75 2.738 3.758 2.972 3.672 3.199 3.512 3.367 3.352 3.539 3.129 3.637 2.898 3.648ZM10.012 15.078C6.809 15.078 3.992 13.93 2.535 12.231 3.102 13.758 4.121 15.078 5.457 16.008 6.793 16.938 8.383 17.438 10.012 17.438 11.641 17.438 13.231 16.938 14.566 16.008 15.902 15.078 16.922 13.758 17.488 12.231 16.035 13.93 13.231 15.078 10.012 15.078ZM10.012 4.035C13.215 4.035 16.031 5.184 17.488 6.883 16.922 5.355 15.902 4.035 14.566 3.105 13.231 2.176 11.641 1.676 10.012 1.676 8.383 1.676 6.793 2.176 5.457 3.105 4.121 4.035 3.102 5.355 2.535 6.883 3.988 5.18 6.793 4.035 10.012 4.035ZM2.164 10.457C2.164 11.082 2.113 11.281 1.984 11.434 1.84 11.563 1.656 11.633 1.465 11.633L1.516 11.988C1.813 11.992 2.102 11.887 2.328 11.691 2.449 11.543 2.539 11.371 2.594 11.188 2.648 11.004 2.664 10.813 2.641 10.621V8.266H2.164V10.457ZM5.723 10.176C5.723 10.441 5.723 10.68 5.742 10.887H5.32L5.293 10.465C5.203 10.613 5.078 10.738 4.926 10.824 4.773 10.91 4.602 10.953 4.43 10.949 4.016 10.949 3.523 10.727 3.523 9.809V8.289H4V9.715C4 10.211 4.152 10.539 4.582 10.539 4.672 10.539 4.758 10.523 4.84 10.488 4.922 10.453 4.996 10.406 5.059 10.344 5.121 10.281 5.172 10.207 5.203 10.125 5.238 10.043 5.254 9.953 5.254 9.867V8.273H5.73V10.164L5.723 10.176ZM6.625 9.137C6.625 8.805 6.625 8.535 6.605 8.289H7.031L7.051 8.734C7.146 8.572 7.284 8.44 7.449 8.352 7.613 8.262 7.801 8.219 7.984 8.227 8.617 8.227 9.094 8.758 9.094 9.547 9.094 10.481 8.52 10.941 7.902 10.941 7.742 10.949 7.586 10.914 7.445 10.844 7.305 10.773 7.184 10.664 7.094 10.531V11.957H6.625V9.137ZM7.094 9.832C7.094 9.898 7.102 9.961 7.113 10.023 7.152 10.18 7.246 10.32 7.375 10.422 7.504 10.523 7.664 10.574 7.824 10.574 8.328 10.574 8.621 10.164 8.621 9.57 8.621 9.051 8.344 8.605 7.84 8.605 7.641 8.621 7.457 8.711 7.316 8.852 7.18 8.996 7.098 9.184 7.09 9.383V9.832H7.094ZM9.945 8.285 10.52 9.82C10.578 9.992 10.645 10.199 10.688 10.352 10.738 10.195 10.789 9.996 10.856 9.809L11.375 8.285H11.875L11.164 10.137C10.809 11.027 10.59 11.484 10.262 11.766 10.098 11.918 9.895 12.023 9.68 12.07L9.563 11.672C9.715 11.621 9.855 11.543 9.98 11.441 10.152 11.301 10.293 11.121 10.383 10.914 10.402 10.879 10.414 10.84 10.422 10.801 10.418 10.758 10.406 10.715 10.391 10.676L9.422 8.281H9.941L9.945 8.285ZM13.145 7.539V8.285H13.828V8.641H13.145V10.043C13.145 10.363 13.238 10.547 13.5 10.547 13.594 10.547 13.688 10.539 13.777 10.516L13.797 10.871C13.66 10.918 13.516 10.941 13.375 10.934 13.281 10.941 13.184 10.926 13.094 10.891 13.004 10.856 12.926 10.805 12.856 10.734 12.711 10.539 12.645 10.297 12.672 10.059V8.633H12.266V8.277H12.68V7.645L13.145 7.539ZM14.707 9.672C14.699 9.793 14.715 9.914 14.758 10.027 14.801 10.141 14.867 10.246 14.953 10.328 15.039 10.414 15.141 10.481 15.254 10.523 15.367 10.566 15.488 10.582 15.609 10.574 15.856 10.578 16.098 10.535 16.32 10.438L16.402 10.793C16.125 10.906 15.828 10.961 15.531 10.953 15.356 10.965 15.184 10.938 15.02 10.879 14.856 10.816 14.707 10.719 14.586 10.598 14.465 10.473 14.371 10.324 14.309 10.16 14.25 9.996 14.227 9.82 14.242 9.648 14.242 8.863 14.707 8.246 15.469 8.246 16.324 8.246 16.535 8.992 16.535 9.473 16.539 9.547 16.539 9.621 16.535 9.695H14.695L14.707 9.672ZM16.102 9.316C16.117 9.223 16.109 9.125 16.082 9.031 16.055 8.938 16.008 8.852 15.945 8.781 15.883 8.707 15.805 8.648 15.719 8.609 15.633 8.57 15.535 8.547 15.441 8.547 15.246 8.563 15.063 8.648 14.926 8.789 14.789 8.93 14.715 9.117 14.711 9.316H16.102ZM17.262 9.098C17.262 8.793 17.262 8.527 17.242 8.285H17.668V8.793H17.688C17.731 8.637 17.824 8.496 17.953 8.395 18.082 8.293 18.238 8.234 18.398 8.223 18.441 8.215 18.488 8.215 18.535 8.223V8.668C18.481 8.66 18.426 8.66 18.371 8.668 18.211 8.676 18.055 8.738 17.938 8.852 17.82 8.965 17.746 9.113 17.734 9.273 17.723 9.348 17.715 9.422 17.715 9.496V10.883H17.246V9.102L17.262 9.098Z"/>
</svg>
