<svg xmlns="http://www.w3.org/2000/svg" width="20" height="20" fill="none" viewBox="0 0 20 20">
    <path fill="#fff" d="M17.05 1.133c.016.238-.042.476-.163.683a1.22 1.22 0 0 1-1.211.586A1.203 1.203 0 0 1 14.71.801a1.216 1.216 0 0 1 1.95-.496 1.2 1.2 0 0 1 .39.828M5.598 18.387a1.52 1.52 0 1 1-2.95-.418 1.52 1.52 0 0 1 1.364-1.008c.199-.012.394.02.582.082a1.5 1.5 0 0 1 .855.773c.09.176.14.372.149.57m-2.7-14.738a.9.9 0 0 1-.488-.133.878.878 0 0 1 .262-1.593.9.9 0 0 1 .508.03.88.88 0 0 1 .57.785.87.87 0 0 1-.238.63.9.9 0 0 1-.614.281m7.114 11.43c-3.203 0-6.02-1.148-7.477-2.847a7.976 7.976 0 0 0 12.031 3.777 8 8 0 0 0 2.922-3.777c-1.453 1.699-4.257 2.847-7.476 2.847m0-11.043c3.203 0 6.02 1.149 7.476 2.848A7.976 7.976 0 0 0 5.457 3.106a8 8 0 0 0-2.922 3.777c1.453-1.703 4.258-2.848 7.477-2.848m-7.848 6.422c0 .625-.05.824-.18.977a.78.78 0 0 1-.52.199l.052.355a1.22 1.22 0 0 0 .812-.297c.121-.148.211-.32.266-.504q.081-.276.047-.566V8.266h-.477zm3.559-.281c0 .265 0 .504.02.71H5.32l-.027-.421a1.03 1.03 0 0 1-.367.36.97.97 0 0 1-.496.124c-.414 0-.907-.222-.907-1.14v-1.52H4v1.426c0 .496.152.824.582.824q.135 0 .258-.05a.7.7 0 0 0 .219-.145.6.6 0 0 0 .144-.219.7.7 0 0 0 .05-.258V8.273h.477v1.891zm.902-1.04c0-.331 0-.6-.02-.847h.426l.02.445c.095-.162.233-.294.398-.382a1.03 1.03 0 0 1 .535-.125c.633 0 1.11.53 1.11 1.32 0 .933-.574 1.394-1.192 1.394a.92.92 0 0 1-.808-.41v1.426h-.469zm.469.696q.001.099.02.191a.726.726 0 0 0 .71.55c.504.001.797-.409.797-1.003 0-.52-.277-.965-.781-.965a.83.83 0 0 0-.524.247.82.82 0 0 0-.226.53v.45zm2.851-1.547.575 1.535c.058.172.125.38.168.532.05-.157.101-.356.167-.543l.52-1.524h.5l-.71 1.852c-.356.89-.575 1.347-.903 1.629a1.25 1.25 0 0 1-.582.304l-.117-.398q.229-.077.417-.23a1.4 1.4 0 0 0 .403-.528.4.4 0 0 0 .039-.113.5.5 0 0 0-.031-.125L9.42 8.28h.52zm3.2-.746v.746h.683v.356h-.683v1.402c0 .32.093.504.355.504q.142.002.277-.031l.02.355a1.1 1.1 0 0 1-.422.063.68.68 0 0 1-.52-.2.96.96 0 0 1-.183-.675V8.633h-.406v-.356h.414v-.632zm1.562 2.133a.846.846 0 0 0 .902.902c.246.004.489-.039.711-.136l.082.355a2.2 2.2 0 0 1-.87.16 1.3 1.3 0 0 1-.512-.074 1.2 1.2 0 0 1-.434-.281 1.3 1.3 0 0 1-.277-.438 1.2 1.2 0 0 1-.067-.512c0-.785.465-1.402 1.227-1.402.855 0 1.066.746 1.066 1.227a2 2 0 0 1 0 .222h-1.84zm1.395-.356a.64.64 0 0 0-.02-.285.65.65 0 0 0-.137-.25.65.65 0 0 0-.226-.172.7.7 0 0 0-.278-.062.8.8 0 0 0-.515.242.77.77 0 0 0-.215.527zm1.16-.218c0-.305 0-.57-.02-.813h.426v.508h.02a.77.77 0 0 1 .265-.398.8.8 0 0 1 .445-.172.4.4 0 0 1 .137 0v.445a.6.6 0 0 0-.164 0 .67.67 0 0 0-.433.184.66.66 0 0 0-.204.421q-.018.112-.02.223v1.387h-.468V9.102z"/>
</svg>
