<svg xmlns="http://www.w3.org/2000/svg" width="20" height="20" fill="none" viewBox="0 0 20 20">
    <path fill="#fff" d="M13.552 11.078a2.6 2.6 0 0 0-1.955.888l-1.226-.868c.13-.358.205-.742.205-1.145a3.3 3.3 0 0 0-.198-1.126l1.223-.858a2.6 2.6 0 0 0 1.95.884 2.61 2.61 0 0 0 2.608-2.608 2.61 2.61 0 0 0-2.607-2.607 2.61 2.61 0 0 0-2.499 3.348l-1.223.858a3.37 3.37 0 0 0-2.085-1.211V5.158a2.61 2.61 0 0 0 2.07-2.55A2.61 2.61 0 0 0 7.21 0 2.61 2.61 0 0 0 4.6 2.607a2.61 2.61 0 0 0 2.025 2.54V6.64A3.37 3.37 0 0 0 3.84 9.953a3.37 3.37 0 0 0 2.808 3.318v1.577A2.61 2.61 0 0 0 4.6 17.393 2.61 2.61 0 0 0 7.21 20a2.61 2.61 0 0 0 2.607-2.607 2.61 2.61 0 0 0-2.048-2.545V13.27a3.37 3.37 0 0 0 2.05-1.193l1.234.873a2.61 2.61 0 0 0 2.5 3.34 2.61 2.61 0 0 0 2.607-2.606 2.61 2.61 0 0 0-2.607-2.607m0-6.097c.697 0 1.264.567 1.264 1.264s-.567 1.264-1.264 1.264a1.266 1.266 0 0 1-1.264-1.264c0-.697.567-1.264 1.264-1.264M5.944 2.607a1.266 1.266 0 0 1 2.528 0c0 .697-.566 1.264-1.263 1.264a1.266 1.266 0 0 1-1.265-1.264m2.529 14.786c0 .697-.567 1.264-1.264 1.264a1.265 1.265 0 0 1-1.265-1.264 1.266 1.266 0 0 1 2.528 0m-1.265-5.677c-.972 0-1.763-.79-1.763-1.763S6.236 8.19 7.208 8.19c.973 0 1.764.791 1.764 1.763 0 .973-.791 1.763-1.764 1.763m6.344 3.233a1.266 1.266 0 0 1-1.264-1.264c0-.697.567-1.264 1.264-1.264s1.264.567 1.264 1.264-.567 1.264-1.264 1.264"/>
</svg>
