<svg width="20" height="20" viewBox="0 0 20 20" fill="none" xmlns="http://www.w3.org/2000/svg">
<path d="M2.5818 7.49092C5.23635 7.49092 7.74544 8.18183 9.92726 9.34546L17.7091 0H2.29089V18.5455V7.49092H2.5818Z" fill="#E9478B"/>
<path d="M9.92726 9.34546L2.29089 18.5455V20H17.6727C16.8 15.4182 13.8909 11.5273 9.92726 9.34546Z" fill="#3EBEB0"/>
<path d="M9.92726 9.34546L2.29089 18.5455V20H5.01818L12.4364 11.0545C12.4364 11.0545 11.9273 10.6545 11.2364 10.1454C10.7273 9.78181 9.92726 9.34546 9.92726 9.34546Z" fill="#37A595"/>
<path d="M2.5818 7.49092H2.29089V18.5455L9.92726 9.34546C7.74544 8.18183 5.23635 7.49092 2.5818 7.49092Z" fill="white"/>
</svg>
