<svg xmlns="http://www.w3.org/2000/svg" width="20" height="20" fill="none" viewBox="0 0 20 20">
    <path fill="#fff" d="M9.996 5.441c-2.07 0-3.823 1.398-4.377 3.296a2.97 2.97 0 0 0-2.663-1.695A2.966 2.966 0 0 0 0 9.998a2.973 2.973 0 0 0 2.96 2.96c1.171 0 2.183-.699 2.663-1.695.55 1.898 2.308 3.296 4.377 3.296s3.823-1.398 4.377-3.296a2.97 2.97 0 0 0 2.663 1.695A2.973 2.973 0 0 0 20 9.998a2.973 2.973 0 0 0-2.96-2.96c-1.171 0-2.182.7-2.663 1.695-.558-1.894-2.311-3.292-4.38-3.292m0 1.758c1.558 0 2.8 1.241 2.8 2.8a2.785 2.785 0 0 1-2.8 2.799 2.785 2.785 0 0 1-2.8-2.8c0-1.558 1.242-2.8 2.8-2.8m-7.036 1.6c.671 0 1.199.528 1.199 1.2 0 .67-.528 1.198-1.2 1.198a1.187 1.187 0 0 1-1.198-1.199c0-.671.523-1.199 1.199-1.199m14.072 0c.672 0 1.2.528 1.2 1.2 0 .67-.528 1.198-1.2 1.198a1.187 1.187 0 0 1-1.198-1.199c0-.671.527-1.199 1.198-1.199"/>
</svg>
