<svg xmlns="http://www.w3.org/2000/svg" width="20" height="20" fill="none" viewBox="0 0 20 20">
    <path fill="#019639" fill-rule="evenodd" d="M10.007 0q.356.168.695.379l7.758 4.46c.203.11.32.333.297.563-.004 3.137 0 6.27-.004 9.403a.6.6 0 0 1-.254.363l-8.25 4.746a.42.42 0 0 1-.468.027q-4.13-2.367-8.254-4.746a.49.49 0 0 1-.286-.476V5.242a.5.5 0 0 1 .278-.406C4.1 3.356 6.683 1.867 9.265.383c.23-.133.457-.27.695-.383zm3.746 5.004c-.547.047-.98.48-1.027 1.027 0 1.903-.012 3.801 0 5.703-1.676-1.976-3.332-3.968-5-5.953a2 2 0 0 0-1.89-.75 1.12 1.12 0 0 0-1.005 1.067v7.757c-.007.29.102.57.305.778.395.39 1.008.449 1.473.148.304-.207.488-.554.488-.922 0-1.87-.004-3.742 0-5.613q2.561 3.063 5.129 6.121a2.03 2.03 0 0 0 1.855.559c.48-.094.844-.492.895-.98q.006-3.96 0-7.915a1.13 1.13 0 0 0-1.223-1.027" clip-rule="evenodd"/>
</svg>
