<svg xmlns="http://www.w3.org/2000/svg" width="20" height="20" fill="none" viewBox="0 0 20 20">
    <path fill="url(#paint0_linear_378_512)" d="M10.4727 0.125C10.1797 -0.0429688 9.82031 -0.0429688 9.52734 0.125L1.74219 4.64844C1.44531 4.81641 1.28125 5.13281 1.28125 5.46875V14.5312C1.28125 14.8672 1.46484 15.1836 1.74219 15.3516L9.53125 19.875C9.82422 20.043 10.1836 20.043 10.4766 19.875L18.2578 15.3516C18.5547 15.1836 18.7188 14.8672 18.7188 14.5312V5.46875C18.7188 5.13281 18.5352 4.81641 18.2578 4.64844L10.4727 0.125Z"/>
    <path fill="url(#paint1_linear_378_512)" d="M18.2578 4.64864L10.4727 0.125204C10.2422 -0.0076089 9.96875 -0.0310464 9.71875 0.0470786L1.44531 15.0588C1.52344 15.176 1.62109 15.2775 1.73828 15.3518L9.52734 19.8752C9.76562 20.0119 10.043 20.0315 10.2969 19.9455L18.5469 4.9338C18.4727 4.82052 18.375 4.71895 18.2578 4.64864Z"/>
    <path fill="url(#paint2_linear_378_512)" d="M9.52734 0.125204L1.74219 4.64864C1.61328 4.71895 1.51562 4.82442 1.44141 4.94161L9.70312 19.9455C9.95703 20.0315 10.2344 20.0119 10.4727 19.8752L18.2578 15.3518C18.3789 15.2854 18.4727 15.1877 18.5469 15.0783L10.2813 0.0470786C10.0313 -0.0310464 9.75781 -0.0076089 9.52734 0.125204Z"/>
    <defs>
        <linearGradient id="paint0_linear_378_512" x1="12.919" x2="6.717" y1="3.164" y2="17.69" gradientUnits="userSpaceOnUse">
            <stop stop-color="#3f8b3d"/>
            <stop offset=".64" stop-color="#3f873f"/>
            <stop offset=".93" stop-color="#3da92e"/>
            <stop offset="1" stop-color="#3dae2b"/>
        </linearGradient>
        <linearGradient id="paint1_linear_378_512" x1="8.792" x2="28.567" y1="10.65" y2=".038" gradientUnits="userSpaceOnUse">
            <stop offset=".14" stop-color="#3f873f"/>
            <stop offset=".4" stop-color="#52a044"/>
            <stop offset=".71" stop-color="#64b749"/>
            <stop offset=".91" stop-color="#6abf4b"/>
        </linearGradient>
        <linearGradient id="paint2_linear_378_512" x1="1.379" x2="18.964" y1="10" y2="10" gradientUnits="userSpaceOnUse">
            <stop offset=".09" stop-color="#6abf4b"/>
            <stop offset=".29" stop-color="#64b749"/>
            <stop offset=".6" stop-color="#52a044"/>
            <stop offset=".86" stop-color="#3f873f"/>
        </linearGradient>
    </defs>
</svg>
