<svg xmlns="http://www.w3.org/2000/svg" width="20" height="20" fill="none" viewBox="0 0 20 20">
    <path fill="url(#a)" d="M10.473.125a.95.95 0 0 0-.946 0L1.742 4.648a.93.93 0 0 0-.46.82v9.063a.97.97 0 0 0 .46.82l7.79 4.524a.95.95 0 0 0 .945 0l7.78-4.523a.93.93 0 0 0 .462-.82V5.468a.97.97 0 0 0-.461-.82z"/>
    <path fill="url(#b)" d="M18.258 4.649 10.473.125a.94.94 0 0 0-.754-.078L1.445 15.06a1 1 0 0 0 .293.293l7.79 4.523a.93.93 0 0 0 .769.07l8.25-15.011a.9.9 0 0 0-.29-.285"/>
    <path fill="url(#c)" d="M9.527.125 1.742 4.65a.83.83 0 0 0-.3.293l8.261 15.003a.93.93 0 0 0 .77-.07l7.785-4.523a.84.84 0 0 0 .289-.274L10.28.048a.94.94 0 0 0-.754.077"/>
    <defs>
        <linearGradient id="a" x1="12.919" x2="6.717" y1="3.164" y2="17.69" gradientUnits="userSpaceOnUse">
            <stop stop-color="#3f8b3d"/>
            <stop offset=".64" stop-color="#3f873f"/>
            <stop offset=".93" stop-color="#3da92e"/>
            <stop offset="1" stop-color="#3dae2b"/>
        </linearGradient>
        <linearGradient id="b" x1="8.792" x2="28.567" y1="10.65" y2=".038" gradientUnits="userSpaceOnUse">
            <stop offset=".14" stop-color="#3f873f"/>
            <stop offset=".4" stop-color="#52a044"/>
            <stop offset=".71" stop-color="#64b749"/>
            <stop offset=".91" stop-color="#6abf4b"/>
        </linearGradient>
        <linearGradient id="c" x1="1.379" x2="18.964" y1="10" y2="10" gradientUnits="userSpaceOnUse">
            <stop offset=".09" stop-color="#6abf4b"/>
            <stop offset=".29" stop-color="#64b749"/>
            <stop offset=".6" stop-color="#52a044"/>
            <stop offset=".86" stop-color="#3f873f"/>
        </linearGradient>
    </defs>
</svg>
