<svg xmlns="http://www.w3.org/2000/svg" width="20" height="20" fill="none" viewBox="0 0 20 20">
    <path fill="#fff" d="M17.585 13.156C17.107 13.156 16.64 13.015 16.243 12.749 15.845 12.484 15.536 12.106 15.353 11.665 15.17 11.224 15.122 10.738 15.216 10.27 15.309 9.801 15.539 9.371 15.877 9.033 16.214 8.695 16.645 8.465 17.113 8.372 17.582 8.278 18.068 8.326 18.509 8.509 18.95 8.692 19.328 9.002 19.593 9.399 19.858 9.796 20 10.263 20 10.741 20 11.381 19.746 11.996 19.293 12.449 18.84 12.902 18.225 13.156 17.585 13.156ZM17.585 12.158C17.865 12.158 18.139 12.075 18.372 11.919 18.605 11.763 18.787 11.542 18.894 11.283 19.001 11.024 19.029 10.739 18.974 10.464 18.92 10.189 18.785 9.937 18.587 9.739 18.388 9.54 18.136 9.406 17.861 9.351 17.586 9.296 17.301 9.324 17.042 9.431 16.783 9.539 16.562 9.72 16.406 9.953 16.251 10.186 16.168 10.46 16.168 10.741 16.168 11.117 16.317 11.477 16.583 11.743 16.848 12.009 17.209 12.158 17.585 12.158ZM12.528 13.156C12.05 13.156 11.583 13.015 11.186 12.749 10.789 12.484 10.479 12.106 10.297 11.665 10.114 11.224 10.066 10.738 10.159 10.27 10.252 9.801 10.482 9.371 10.82 9.033 11.158 8.695 11.588 8.465 12.057 8.372 12.526 8.278 13.011 8.326 13.453 8.509 13.894 8.692 14.271 9.002 14.537 9.399 14.802 9.796 14.944 10.263 14.944 10.741 14.944 11.381 14.689 11.996 14.236 12.449 13.783 12.902 13.169 13.156 12.528 13.156ZM12.528 12.158C12.808 12.158 13.082 12.075 13.316 11.919 13.549 11.763 13.73 11.542 13.837 11.283 13.945 11.024 13.973 10.739 13.918 10.464 13.863 10.189 13.728 9.937 13.53 9.739 13.332 9.54 13.08 9.406 12.805 9.351 12.53 9.296 12.245 9.324 11.986 9.431 11.727 9.539 11.506 9.72 11.35 9.953 11.194 10.186 11.111 10.46 11.111 10.741 11.111 11.117 11.26 11.477 11.526 11.743 11.792 12.009 12.152 12.158 12.528 12.158ZM9.887 10.709C9.887 12.058 8.805 13.156 7.472 13.156 6.138 13.156 5.056 12.061 5.056 10.712 5.056 9.362 6.039 8.325 7.472 8.325 8 8.325 8.49 8.438 8.889 8.731V7.33C8.889 7.063 9.124 6.844 9.388 6.844 9.652 6.844 9.887 7.063 9.887 7.33V10.709ZM7.472 12.158C7.752 12.158 8.026 12.075 8.259 11.919 8.492 11.763 8.674 11.542 8.781 11.283 8.888 11.024 8.916 10.739 8.862 10.464 8.807 10.189 8.672 9.937 8.474 9.739 8.276 9.54 8.023 9.406 7.748 9.351 7.473 9.296 7.188 9.324 6.93 9.431 6.671 9.539 6.449 9.72 6.294 9.953 6.138 10.186 6.055 10.46 6.055 10.741 6.055 11.117 6.204 11.477 6.47 11.743 6.736 12.009 7.096 12.158 7.472 12.158ZM2.415 13.156C1.938 13.156 1.471 13.015 1.074 12.749.676 12.484.367 12.106.184 11.665.001 11.224-.047 10.738.046 10.27.14 9.801.37 9.371.707 9.033 1.045 8.695 1.476 8.465 1.944 8.372 2.413 8.278 2.898 8.326 3.34 8.509 3.781 8.692 4.158 9.002 4.424 9.399 4.689 9.796 4.831 10.263 4.831 10.741 4.831 11.381 4.576 11.996 4.123 12.449 3.67 12.902 3.056 13.156 2.415 13.156ZM2.415 12.158C2.696 12.158 2.97 12.075 3.203 11.919 3.436 11.763 3.617 11.542 3.725 11.283 3.832 11.024 3.86 10.739 3.805 10.464 3.751 10.189 3.616 9.937 3.417 9.739 3.219 9.541 2.967 9.406 2.692 9.351 2.417 9.296 2.132 9.324 1.873 9.432 1.614 9.539 1.393 9.72 1.237 9.953 1.082 10.187.998 10.46.998 10.741.998 11.117 1.148 11.477 1.413 11.743 1.679 12.009 2.04 12.158 2.415 12.158Z"/>
</svg>
