<svg width="20" height="20" viewBox="0 0 20 20" fill="none" xmlns="http://www.w3.org/2000/svg">
<path d="M17.5845 13.1562C17.1068 13.1562 16.6398 13.0145 16.2426 12.7491C15.8454 12.4837 15.5358 12.1064 15.3529 11.6651C15.1701 11.2237 15.1223 10.738 15.2155 10.2695C15.3087 9.80091 15.5387 9.37051 15.8765 9.0327C16.2144 8.6949 16.6448 8.46485 17.1133 8.37164C17.5819 8.27844 18.0675 8.32628 18.5089 8.5091C18.9503 8.69192 19.3275 9.00151 19.5929 9.39874C19.8583 9.79596 20 10.263 20 10.7407C20 11.3813 19.7455 11.9957 19.2925 12.4487C18.8395 12.9017 18.2252 13.1562 17.5845 13.1562ZM17.5845 12.1578C17.8648 12.1578 18.1388 12.0747 18.3718 11.9189C18.6049 11.7632 18.7865 11.5419 18.8937 11.283C19.001 11.024 19.0291 10.7391 18.9744 10.4642C18.9197 10.1894 18.7847 9.93685 18.5866 9.73867C18.3884 9.54049 18.1359 9.40553 17.861 9.35085C17.5861 9.29617 17.3012 9.32424 17.0422 9.43149C16.7833 9.53875 16.562 9.72038 16.4063 9.95341C16.2506 10.1864 16.1675 10.4604 16.1675 10.7407C16.1675 11.1165 16.3168 11.477 16.5825 11.7427C16.8483 12.0085 17.2087 12.1578 17.5845 12.1578ZM12.5282 13.1562C12.0504 13.1562 11.5834 13.0145 11.1862 12.7491C10.789 12.4837 10.4794 12.1064 10.2966 11.6651C10.1138 11.2237 10.0659 10.738 10.1591 10.2695C10.2523 9.80091 10.4824 9.37051 10.8202 9.0327C11.158 8.6949 11.5884 8.46485 12.0569 8.37164C12.5255 8.27844 13.0112 8.32628 13.4525 8.5091C13.8939 8.69192 14.2711 9.00151 14.5366 9.39874C14.802 9.79596 14.9436 10.263 14.9436 10.7407C14.9436 11.3813 14.6892 11.9957 14.2362 12.4487C13.7832 12.9017 13.1688 13.1562 12.5282 13.1562ZM12.5282 12.1578C12.8084 12.1578 13.0824 12.0747 13.3155 11.9189C13.5485 11.7632 13.7301 11.5419 13.8374 11.283C13.9446 11.024 13.9727 10.7391 13.918 10.4642C13.8633 10.1894 13.7284 9.93685 13.5302 9.73867C13.332 9.54049 13.0795 9.40553 12.8046 9.35085C12.5297 9.29617 12.2448 9.32424 11.9859 9.43149C11.7269 9.53875 11.5056 9.72038 11.3499 9.95341C11.1942 10.1864 11.1111 10.4604 11.1111 10.7407C11.1111 11.1165 11.2604 11.477 11.5262 11.7427C11.7919 12.0085 12.1523 12.1578 12.5282 12.1578ZM9.88727 10.7085C9.88727 12.0579 8.80515 13.1562 7.47181 13.1562C6.13848 13.1562 5.05635 12.0611 5.05635 10.7117C5.05635 9.36227 6.03864 8.32523 7.47181 8.32523C7.99999 8.32523 8.48952 8.43795 8.88888 8.73103V7.33006C8.88888 7.06275 9.12399 6.84375 9.38808 6.84375C9.65217 6.84375 9.88727 7.06275 9.88727 7.33006V10.7085ZM7.47181 12.1578C7.75208 12.1578 8.02606 12.0747 8.25909 11.9189C8.49213 11.7632 8.67376 11.5419 8.78101 11.283C8.88827 11.024 8.91633 10.7391 8.86165 10.4642C8.80697 10.1894 8.67201 9.93685 8.47383 9.73867C8.27565 9.54049 8.02315 9.40553 7.74827 9.35085C7.47338 9.29617 7.18846 9.32424 6.92952 9.43149C6.67059 9.53875 6.44927 9.72038 6.29356 9.95341C6.13785 10.1864 6.05474 10.4604 6.05474 10.7407C6.05474 11.1165 6.20404 11.477 6.46979 11.7427C6.73554 12.0085 7.09598 12.1578 7.47181 12.1578Z" fill="white"/>
<path d="M2.41546 13.1562C1.93773 13.1562 1.47072 13.0145 1.0735 12.7491C0.676283 12.4837 0.366688 12.1064 0.183867 11.6651C0.00104654 11.2237 -0.0467876 10.738 0.0464135 10.2695C0.139615 9.80092 0.369665 9.37053 0.707473 9.03272C1.04528 8.69491 1.47568 8.46486 1.94423 8.37166C2.41278 8.27846 2.89845 8.32629 3.33982 8.50912C3.78119 8.69194 4.15843 9.00153 4.42384 9.39875C4.68926 9.79597 4.83092 10.263 4.83092 10.7407C4.83092 11.3813 4.57644 11.9957 4.12345 12.4487C3.67046 12.9017 3.05608 13.1562 2.41546 13.1562ZM2.41546 12.1578C2.69573 12.1578 2.96971 12.0747 3.20274 11.919C3.43578 11.7633 3.61741 11.5419 3.72466 11.283C3.83192 11.0241 3.85998 10.7391 3.8053 10.4643C3.75062 10.1894 3.61566 9.93687 3.41748 9.73869C3.2193 9.54051 2.9668 9.40555 2.69192 9.35087C2.41703 9.29619 2.13211 9.32425 1.87317 9.43151C1.61424 9.53876 1.39292 9.72039 1.23721 9.95343C1.0815 10.1865 0.998392 10.4604 0.998392 10.7407C0.998392 11.1165 1.14769 11.477 1.41344 11.7427C1.67919 12.0085 2.03963 12.1578 2.41546 12.1578Z" fill="white"/>
</svg>
