<svg xmlns="http://www.w3.org/2000/svg" width="800" height="800" role="img" viewBox="0 0 24 24">
    <path fill="#fff" d="M18.568 8.184a5 5 0 0 0-.43-4.092 5.04 5.04 0 0 0-5.424-2.417 5.054 5.054 0 0 0-8.563 1.81A5 5 0 0 0 .819 5.9a5.04 5.04 0 0 0 .62 5.914 4.98 4.98 0 0 0 .425 4.093 5.04 5.04 0 0 0 5.429 2.416A5 5 0 0 0 11.05 20a5.05 5.05 0 0 0 4.81-3.505 5 5 0 0 0 3.331-2.417 5.05 5.05 0 0 0-.623-5.894M11.05 18.691a3.73 3.73 0 0 1-2.397-.867l.118-.067 3.982-2.299a.66.66 0 0 0 .327-.568V9.276l1.684.974a.06.06 0 0 1 .031.043v4.653a3.753 3.753 0 0 1-3.745 3.745M3 15.253a3.73 3.73 0 0 1-.446-2.511l.118.07 3.986 2.3a.64.64 0 0 0 .65 0l4.87-2.808v1.944a.07.07 0 0 1-.028.051l-4.033 2.326a3.75 3.75 0 0 1-5.118-1.372M1.95 6.58a3.74 3.74 0 0 1 1.972-1.644v4.73a.64.64 0 0 0 .323.564l4.845 2.796-1.683.973a.06.06 0 0 1-.06 0l-4.024-2.322A3.753 3.753 0 0 1 1.95 6.56zm13.83 3.213L10.92 6.97 12.6 6a.06.06 0 0 1 .058 0l4.026 2.326a3.745 3.745 0 0 1-.564 6.754v-4.731a.66.66 0 0 0-.34-.556m1.676-2.52-.118-.07-3.978-2.319a.65.65 0 0 0-.654 0L7.84 7.691V5.748a.06.06 0 0 1 .023-.051l4.026-2.323a3.75 3.75 0 0 1 5.567 3.884zM6.922 10.72 5.24 9.75a.07.07 0 0 1-.032-.047v-4.64a3.75 3.75 0 0 1 6.146-2.878l-.118.067L7.254 4.55a.66.66 0 0 0-.327.568zm.915-1.971 2.168-1.25 2.172 1.25v2.5l-2.164 1.25-2.172-1.25Z"/>
</svg>
