<svg xmlns="http://www.w3.org/2000/svg" width="20" height="20" fill="none" viewBox="0 0 20 20">
    <path fill="#ff7a24" d="M20 10.205C20 4.739 15.523.308 10 .308c-5.521 0-10 4.43-10 9.897 0 3.63 1.982 6.795 4.926 8.52l.641-4.243a5.85 5.85 0 0 1-1.533-3.944c0-3.26 2.672-5.905 5.966-5.905 3.296 0 5.966 2.644 5.966 5.905 0 1.532-.59 2.92-1.554 3.967l.639 4.234C18.008 17.019 20 13.847 20 10.205"/>
    <path fill="#fff" d="m11.097 13.199 1.215 6.494H7.619l1.21-6.483a3.16 3.16 0 0 1-2.052-2.95 3.17 3.17 0 0 1 3.17-3.164 3.166 3.166 0 0 1 3.17 3.164c0 1.34-.84 2.479-2.02 2.939"/>
</svg>
