<svg xmlns="http://www.w3.org/2000/svg" width="20" height="20" fill="none" viewBox="0 0 20 20">
    <path fill="#f80000" d="M8.325 10.375H9.6L8.926 9.3l-1.237 1.943h-.563L8.63 8.909a.36.36 0 0 1 .296-.152.35.35 0 0 1 .29.148l1.51 2.338h-.564l-.265-.434h-1.29zm5.847.434V8.78h-.478v2.226c0 .061.024.12.07.165a.24.24 0 0 0 .174.071h2.178l.281-.434zm-7.902-.364c.464 0 .84-.371.84-.83a.837.837 0 0 0-.84-.834H4.18v2.462h.478V9.215h1.58a.4.4 0 1 1 0 .798l-1.346-.002 1.426 1.232h.693l-.959-.798zm-5.028.798c-.686 0-1.242-.55-1.242-1.23s.556-1.232 1.242-1.232h1.443c.686 0 1.242.552 1.242 1.232s-.556 1.23-1.242 1.23zm1.411-.434a.8.8 0 0 0 .804-.796c0-.44-.36-.798-.804-.798h-1.38a.8.8 0 0 0-.803.798.8.8 0 0 0 .804.796zm9.07.434c-.687 0-1.244-.55-1.244-1.23s.557-1.232 1.243-1.232h1.714l-.28.434h-1.402a.8.8 0 0 0-.805.798.8.8 0 0 0 .805.796h1.722l-.282.434zm5.84-.434a.8.8 0 0 1-.773-.58h2.04l.282-.434H16.79a.804.804 0 0 1 .772-.58h1.401l.284-.434H17.53c-.686 0-1.243.552-1.243 1.232s.557 1.23 1.243 1.23h1.472l.282-.434zm1.94-1.767a.21.21 0 0 1 .134-.2.2.2 0 0 1 .084-.016.217.217 0 1 1 0 .434.217.217 0 0 1-.218-.218m.218.28a.278.278 0 1 0-.277-.277c0 .152.124.276.277.276m-.026-.443a.2.2 0 0 1 .081.01.09.09 0 0 1 .061.086L19.834 9a.08.08 0 0 1-.038.053l-.014.008.071.128h-.069l-.063-.118h-.044v.118h-.061v-.31zm.022.142c.02-.002.04-.002.051-.02a.04.04 0 0 0 .008-.028q-.002-.024-.024-.037c-.014-.006-.027-.006-.057-.006h-.018v.09z"/>
</svg>
