<svg xmlns="http://www.w3.org/2000/svg" width="20" height="20" fill="none" viewBox="0 0 20 20">
    <path fill="#fff" d="M9.04 4.602a2.679 2.679 0 0 0-2.122 4.32 4 4 0 0 1 3.078-1.399q.902.001 1.68.36c.039-.2.078-.399.078-.602.008-1.48-1.195-2.68-2.715-2.68M5.558 5.84c-.762 0-1.399.64-1.399 1.398 0 .239.078.48.16.68.48-.281 1-.398 1.602-.398h.16v-.24q-.001-.661.238-1.199a1.33 1.33 0 0 0-.761-.242m6.601.96H12c.04.16.04.321.04.481 0 .239-.04.48-.08.719a3.76 3.76 0 0 1 1.602 1.64c.399-.199.801-.32 1.282-.359-.125-1.402-1.242-2.48-2.684-2.48M10 7.8a3.76 3.76 0 0 0-3.762 3.763A3.756 3.756 0 0 0 10 15.324a3.756 3.756 0 0 0 3.762-3.761A3.76 3.76 0 0 0 10 7.8m-4.078.04A2.94 2.94 0 0 0 3 10.762c0 .96.441 1.8 1.16 2.32a1.76 1.76 0 0 1 1.559-.96c.078 0 .16 0 .238.038-.039-.2-.039-.36-.039-.558 0-.922.281-1.762.8-2.442-.32-.36-.519-.84-.6-1.32zm9.156 1.719c-.48 0-.96.12-1.36.32q.36.778.36 1.68a4.15 4.15 0 0 1-1.16 2.879c.52.601 1.32.96 2.16.96A2.94 2.94 0 0 0 18 12.477a2.937 2.937 0 0 0-2.922-2.918M2.68 9.96a2.679 2.679 0 1 0 0 5.36c.558 0 1.078-.16 1.52-.481-.16-.281-.282-.602-.282-.961 0-.2.039-.36.078-.52-.8-.601-1.36-1.558-1.36-2.601 0-.281.04-.52.122-.801.004.004-.04.004-.078.004m15.84 2.32c-.079 0-.16 0-.239.04v.199c0 .84-.32 1.64-.879 2.199.282.32.68.52 1.121.52.801 0 1.48-.641 1.48-1.481s-.683-1.477-1.483-1.477m-12.801.117c-.801 0-1.48.641-1.48 1.48 0 .84.64 1.481 1.48 1.481.64 0 1.16-.398 1.36-.921A3.9 3.9 0 0 1 6 12.476a.8.8 0 0 0-.281-.079"/>
</svg>
