<svg xmlns="http://www.w3.org/2000/svg" width="20" height="20" fill="none" viewBox="0 0 20 20">
    <path fill="#fff" d="M4.549 7.09q1.305.01 1.892.752.586.742.388 2.025a3.9 3.9 0 0 1-.343 1.151q-.255.565-.709 1.019-.553.575-1.184.73a5.5 5.5 0 0 1-1.306.155H1.959l-.42 2.103H0l1.583-7.936zm13.12 0q1.306.01 1.893.752t.387 2.025a3.9 3.9 0 0 1-.343 1.151q-.254.565-.708 1.019-.554.575-1.184.73t-1.306.155H15.08l-.42 2.103h-1.54l1.584-7.936zm-7.56-2.114-.432 2.113h1.372q1.129.022 1.682.465.565.442.332 1.683l-.741 3.685h-1.55l.709-3.52q.11-.552-.067-.785t-.763-.233l-1.229-.01-.907 4.548H6.987l1.594-7.946zM3.352 8.35a3 3 0 0 1-.254.011h-.224l-.662 3.31a1 1 0 0 0 .133.01H2.5q1.063.012 1.771-.21.708-.232.952-1.616.2-1.16-.399-1.339-.585-.177-1.472-.166m13.121 0a3 3 0 0 1-.254.011h-.224l-.662 3.31a1 1 0 0 0 .133.01h.155q1.063.012 1.77-.21.709-.232.953-1.616.2-1.16-.399-1.339-.585-.177-1.472-.166"/>
</svg>
