<svg xmlns="http://www.w3.org/2000/svg" width="20" height="20" fill="none" viewBox="0 0 20 20">
    <path fill="#fff" d="M10 9.443 3.375 2.157a2.85 2.85 0 0 1 2-.83 2.73 2.73 0 0 1 2.05.915L10 5.054l2.559-2.812q.397-.425.925-.668a2.75 2.75 0 0 1 1.142-.247q.589.003 1.101.224.513.22.898.606zm0 1.115 6.625 7.285a2.85 2.85 0 0 1-2 .83 2.73 2.73 0 0 1-2.05-.914L10 14.946 7.441 17.76a3 3 0 0 1-.925.667 2.75 2.75 0 0 1-1.142.248 2.85 2.85 0 0 1-2-.83z"/>
    <path fill="#e57000" d="m9.443 10-4.99-5.472a3.2 3.2 0 0 0-1.014-.73 3 3 0 0 0-1.25-.272q-.645.004-1.206.246-.561.24-.983.663L5.065 10 0 15.566a3.05 3.05 0 0 0 2.19.928 3.07 3.07 0 0 0 2.263-1.002zm1.114 0 4.99-5.472q.436-.465 1.014-.73a3 3 0 0 1 1.25-.272q.645.004 1.206.246.561.24.983.663L14.935 10 20 15.566a3.05 3.05 0 0 1-2.19.928 3.07 3.07 0 0 1-2.263-1.002z"/>
</svg>
