<svg xmlns="http://www.w3.org/2000/svg" width="20" height="20" fill="none" viewBox="0 0 20 20">
    <path fill="#fff" d="M10 9.443 3.375 2.157C3.632 1.9 3.932 1.698 4.273 1.551 4.615 1.404 4.982 1.33 5.375 1.327 5.791 1.33 6.173 1.412 6.52 1.574 6.867 1.737 7.169 1.959 7.425 2.242L10 5.054 12.559 2.242C12.824 1.959 13.132 1.737 13.484 1.574 13.836 1.412 14.217 1.33 14.626 1.327 15.018 1.33 15.385 1.404 15.727 1.551 16.069 1.698 16.368 1.9 16.625 2.157L10 9.443M10 10.558 16.625 17.844C16.368 18.101 16.069 18.302 15.727 18.449 15.385 18.596 15.018 18.671 14.626 18.674 14.209 18.671 13.827 18.588 13.48 18.426 13.133 18.264 12.831 18.042 12.575 17.759L10 14.946 7.441 17.759C7.176 18.042 6.868 18.264 6.516 18.426 6.164 18.588 5.783 18.671 5.374 18.674 4.982 18.671 4.615 18.596 4.273 18.449 3.931 18.302 3.632 18.101 3.375 17.844L10 10.558"/>
    <path fill="#e57000" d="M9.443 10 4.452 4.528C4.162 4.218 3.824 3.975 3.439 3.797 3.054 3.62 2.637 3.529 2.189 3.526 1.759 3.529 1.357 3.611.983 3.772.609 3.932.281 4.153 0 4.435L5.065 10 0 15.566C.281 15.856.609 16.083.983 16.245 1.357 16.408 1.759 16.491 2.189 16.494 2.638 16.49 3.057 16.4 3.446 16.222 3.835 16.045 4.17 15.801 4.452 15.492L9.443 10ZM10.557 10 15.548 4.528C15.838 4.218 16.176 3.975 16.561 3.797 16.946 3.62 17.363 3.529 17.811 3.526 18.241 3.529 18.643 3.611 19.017 3.772 19.391 3.932 19.719 4.153 20 4.435L14.935 10 20 15.566C19.719 15.856 19.391 16.083 19.017 16.245 18.643 16.408 18.241 16.491 17.811 16.494 17.362 16.49 16.943 16.4 16.554 16.222 16.165 16.045 15.83 15.801 15.548 15.492L10.557 10Z"/>
</svg>
