<svg xmlns="http://www.w3.org/2000/svg" width="20" height="20" fill="none" viewBox="0 0 20 20">
    <path fill="#fff" d="M9.883 0a13.7 13.7 0 0 0-2.281.195c-2.02.356-2.387 1.102-2.387 2.48v1.817h4.77v.606h-6.56c-1.386 0-2.6.832-2.98 2.418-.437 1.82-.457 2.953 0 4.851.34 1.414 1.149 2.418 2.535 2.418h1.641v-2.18c0-1.574 1.363-2.964 2.98-2.964h4.766c1.328 0 2.387-1.094 2.387-2.426v-4.54c0-1.292-1.09-2.265-2.387-2.48A15 15 0 0 0 9.883 0M7.3 1.461c.492 0 .894.41.894.91s-.402.907-.894.907a.896.896 0 0 1-.895-.903c0-.504.403-.914.895-.914m8.047 3.64V7.22c0 1.644-1.395 3.023-2.98 3.023H7.601c-1.305 0-2.387 1.117-2.387 2.426v4.543c0 1.293 1.125 2.055 2.387 2.426 1.511.445 2.957.523 4.765 0 1.203-.348 2.387-1.047 2.387-2.426v-1.82H9.988v-.606h7.153c1.386 0 1.902-.968 2.386-2.418.5-1.496.477-2.933 0-4.847-.343-1.38-.996-2.418-2.386-2.418zm-2.68 11.505a.9.9 0 0 1 .895.906c0 .504-.403.91-.895.91a.905.905 0 0 1-.895-.91c0-.5.403-.906.895-.906"/>
</svg>
