<svg xmlns="http://www.w3.org/2000/svg" width="20" height="20" fill="none" viewBox="0 0 20 20">
    <path fill="#f60" d="M18.675 8h-6.286a.57.57 0 0 1-.57-.571V.879A.88.88 0 0 0 10.94 0H8.696a.88.88 0 0 0-.878.879v6.51a.614.614 0 0 1-.61.614l-2.06.01a.614.614 0 0 1-.617-.615L4.544.88A.88.88 0 0 0 3.665 0H1.424a.88.88 0 0 0-.879.879V19.22c0 .43.35.78.78.78h17.35c.43 0 .78-.35.78-.78V8.78a.78.78 0 0 0-.78-.78m-2.948 6.887c0 .564-.458 1.022-1.022 1.022h-1.773a1.023 1.023 0 0 1-1.023-1.023v-1.773c0-.564.458-1.022 1.023-1.022h1.773c.564 0 1.022.458 1.022 1.022z"/>
</svg>
