<svg xmlns="http://www.w3.org/2000/svg" width="20" height="20" fill="none" viewBox="0 0 20 20">
    <path fill="#e00" d="M13.347 11.142c1.314 0 3.216-.27 3.216-1.817a2 2 0 0 0-.031-.353l-.778-3.364c-.179-.737-.336-1.08-1.65-1.723-1.02-.52-3.237-1.36-3.9-1.36-.62 0-.798.779-1.523.779-.704 0-1.22-.582-1.881-.582-.63 0-1.04.426-1.356 1.298 0 0-.883 2.46-.998 2.824a.6.6 0 0 0-.021.197c-.01.955 3.804 4.09 8.922 4.1m3.416-1.184c.179.852.179.945.179 1.049 0 1.453-1.65 2.263-3.826 2.263-4.918 0-9.217-2.844-9.217-4.724 0-.26.053-.518.158-.757C2.29 7.872 0 8.183 0 10.176c0 3.27 7.84 7.299 14.041 7.299 4.76 0 5.959-2.128 5.959-3.81 0-1.319-1.156-2.814-3.237-3.707"/>
    <path fill="#000" d="M16.763 9.959c.179.851.179.945.179 1.048 0 1.454-1.65 2.264-3.826 2.264-4.918 0-9.217-2.845-9.217-4.724 0-.26.053-.519.158-.758l.389-.945a.6.6 0 0 0-.021.197c0 .956 3.815 4.091 8.922 4.091 1.314 0 3.216-.27 3.216-1.817a2 2 0 0 0-.031-.353z"/>
</svg>
