<svg xmlns="http://www.w3.org/2000/svg" width="20" height="20" fill="none" viewBox="0 0 20 20">
    <path fill="#912626" d="M19.215 14.613c-1.067.555-6.598 2.828-7.774 3.442-1.175.613-1.832.609-2.761.164-.93-.446-6.813-2.82-7.875-3.328-.528-.25-.805-.465-.805-.668v-2.024s7.66-1.668 8.898-2.11c1.239-.445 1.665-.46 2.72-.073 1.05.386 7.343 1.52 8.386 1.902v1.992c-.004.203-.246.422-.79.703"/>
    <path fill="#c6302b" d="M19.215 12.605c-1.067.555-6.598 2.829-7.774 3.442-1.175.613-1.832.61-2.761.164-.93-.445-6.813-2.82-7.875-3.328-1.059-.508-1.082-.856-.04-1.262 1.044-.406 6.891-2.703 8.13-3.148 1.238-.446 1.664-.461 2.718-.075 1.051.387 6.547 2.575 7.59 2.954 1.04.382 1.082.695.012 1.253"/>
    <path fill="#912626" d="M19.215 11.344c-1.067.554-6.598 2.828-7.774 3.445-1.175.613-1.832.61-2.761.164-.93-.445-6.813-2.82-7.875-3.328-.528-.258-.805-.469-.805-.672V8.93s7.66-1.668 8.898-2.11c1.239-.445 1.665-.46 2.72-.074 1.05.387 7.343 1.52 8.386 1.902v1.993c-.004.199-.246.418-.79.703"/>
    <path fill="#c6302b" d="M19.215 9.332c-1.067.555-6.598 2.828-7.774 3.445-1.175.614-1.832.61-2.761.164-.926-.445-6.813-2.824-7.871-3.328-1.059-.508-1.082-.855-.04-1.261 1.043-.407 6.895-2.704 8.13-3.149 1.238-.445 1.664-.46 2.718-.074 1.051.387 6.547 2.574 7.59 2.953 1.035.383 1.078.695.008 1.25"/>
    <path fill="#912626" d="M19.215 7.953c-1.067.555-6.598 2.828-7.774 3.445-1.175.614-1.832.61-2.761.164-.93-.445-6.813-2.82-7.875-3.328C.277 7.976 0 7.762 0 7.562V5.54s7.66-1.668 8.898-2.11c1.239-.445 1.665-.46 2.72-.074 1.05.387 7.343 1.52 8.386 1.903V7.25c-.004.2-.246.418-.79.703"/>
    <path fill="#c6302b" d="M19.215 5.941c-1.067.555-6.598 2.828-7.774 3.442-1.175.613-1.832.61-2.761.164C7.75 9.1 1.867 6.727.805 6.219-.254 5.71-.277 5.363.762 4.957c1.043-.406 6.894-2.703 8.129-3.148 1.238-.446 1.664-.461 2.718-.075 1.051.387 6.547 2.575 7.59 2.953 1.043.383 1.086.7.016 1.254"/>
    <path fill="#fff" d="m12.445 3.977-1.718.18-.387.925-.621-1.035-1.989-.18 1.481-.535-.445-.82 1.39.543 1.309-.43-.352.848zm-2.207 4.492-3.21-1.332 4.597-.707zM5.79 4.489c1.36 0 2.457.425 2.457.952 0 .528-1.101.954-2.457.954s-2.457-.426-2.457-.954c-.004-.523 1.098-.953 2.457-.953"/>
    <path fill="#621b1c" d="M14.477 4.227 17.199 5.3 14.48 6.375z"/>
    <path fill="#9a2928" d="m11.465 5.418 3.012-1.191.003 2.148-.296.117z"/>
</svg>
