<svg width="20" height="20" viewBox="0 0 20 20" fill="none" xmlns="http://www.w3.org/2000/svg">
<path d="M9.09943 11.2338C9.25803 11.2338 9.39817 11.273 9.51985 11.351C9.64139 11.4291 9.73565 11.5387 9.80265 11.68C9.8695 11.8212 9.90307 11.9863 9.90307 12.1745C9.90307 12.3605 9.8695 12.5235 9.80265 12.6635C9.73551 12.8035 9.64139 12.912 9.51985 12.9888C9.39817 13.0657 9.25803 13.104 9.09929 13.104C8.94796 13.104 8.81845 13.0706 8.71048 13.0038C8.60265 12.9368 8.52139 12.8401 8.4667 12.7137V13.6804L8.466 13.6961C8.46468 13.7136 8.45782 13.7302 8.44642 13.7436C8.43895 13.7513 8.42992 13.7572 8.41996 13.7611C8.41 13.7649 8.39933 13.7666 8.38866 13.766C8.33649 13.766 8.31048 13.7375 8.31048 13.6804V11.3231L8.31132 11.3088C8.31288 11.292 8.31974 11.2762 8.3309 11.2636C8.33837 11.256 8.34739 11.25 8.35735 11.2462C8.36732 11.2423 8.37799 11.2406 8.38866 11.2412C8.41342 11.2412 8.43272 11.2488 8.44628 11.2636C8.46052 11.2801 8.46784 11.3014 8.4667 11.3231V11.6168L8.48391 11.5805C8.53443 11.4781 8.613 11.392 8.71048 11.3324C8.81845 11.2667 8.9481 11.2338 9.09943 11.2338ZM15.3467 11.2376C15.3741 11.2376 15.3951 11.2524 15.4101 11.2822L16.1281 12.8996L16.1357 12.881L16.8426 11.2934L16.8495 11.2794C16.8555 11.2678 16.8647 11.258 16.8759 11.2513C16.8872 11.2446 16.9002 11.2411 16.9133 11.2414C16.9326 11.2411 16.9513 11.2485 16.9653 11.2618C16.9803 11.2754 16.9877 11.2934 16.9877 11.3157C16.9868 11.3271 16.9843 11.3384 16.9803 11.3492L15.9123 13.7138L15.9056 13.7257C15.8993 13.736 15.8904 13.7444 15.8799 13.7501C15.8693 13.7558 15.8575 13.7587 15.8454 13.7584C15.8269 13.759 15.8089 13.7523 15.7951 13.7398C15.7884 13.7338 15.7831 13.7263 15.7795 13.718C15.776 13.7096 15.7744 13.7006 15.7747 13.6916L15.7821 13.6618L16.0501 13.0744L15.2687 11.3491L15.2653 11.3387C15.2603 11.3249 15.2598 11.3099 15.2637 11.2958C15.2676 11.2816 15.2759 11.2691 15.2873 11.2598C15.3037 11.2453 15.3248 11.2375 15.3467 11.2376ZM12.3067 11.2338C12.4656 11.2338 12.6057 11.2723 12.7273 11.3491C12.8488 11.426 12.9431 11.5351 13.0101 11.6764C13.0771 11.8176 13.1105 11.9812 13.1105 12.1673C13.1105 12.3555 13.0769 12.5204 13.0101 12.6617C12.9429 12.8029 12.8488 12.912 12.7273 12.9889C12.6056 13.0657 12.4656 13.104 12.3067 13.104C12.148 13.104 12.0078 13.0657 11.8863 12.9888C11.7647 12.9119 11.6705 12.8029 11.6035 12.6615C11.5365 12.5203 11.5031 12.3555 11.5031 12.1671C11.5031 11.9811 11.5366 11.8176 11.6035 11.6762C11.6706 11.535 11.7647 11.4259 11.8863 11.3491C12.008 11.2723 12.148 11.2338 12.3067 11.2338ZM11.2277 11.2414L11.2445 11.2419C11.2653 11.2438 11.2801 11.2491 11.2892 11.258C11.3003 11.2692 11.3059 11.286 11.3059 11.3082C11.3059 11.3503 11.2799 11.3752 11.2277 11.3826L11.1161 11.3938L11.0804 11.3979C10.9171 11.4203 10.7924 11.4859 10.7067 11.5945C10.6158 11.7085 10.5672 11.8503 10.5691 11.9961V13.0112L10.5682 13.0267C10.5671 13.0443 10.5602 13.061 10.5487 13.0743C10.535 13.0892 10.5158 13.0966 10.4909 13.0966C10.4661 13.0966 10.447 13.0892 10.4333 13.0743C10.4196 13.0594 10.4129 13.0384 10.4129 13.0112V11.3267L10.4136 11.3105C10.4183 11.2643 10.444 11.2412 10.4909 11.2412C10.5133 11.2412 10.5319 11.2487 10.5468 11.2635C10.5617 11.2783 10.5692 11.2994 10.5692 11.3267V11.5944L10.5842 11.5659C10.6936 11.3709 10.8821 11.2638 11.1495 11.2449L11.2017 11.2412L11.2277 11.2414ZM14.9561 11.2414C14.9759 11.2414 14.9938 11.2488 15.0101 11.2636C15.0261 11.2784 15.0343 11.2972 15.0343 11.3194C15.0343 11.3418 15.0256 11.3628 15.0081 11.3826L14.3459 12.1561L15.0267 12.948L15.0362 12.96C15.0469 12.9749 15.0527 12.9928 15.0529 13.0112C15.0529 13.0336 15.0453 13.052 15.0305 13.067C15.0238 13.0741 15.0157 13.0797 15.0068 13.0836C14.9978 13.0874 14.9882 13.0894 14.9785 13.0894C14.9561 13.0894 14.9351 13.0782 14.9151 13.0558L14.2453 12.2712L13.5793 13.0558L13.5659 13.0678C13.551 13.0809 13.5321 13.0885 13.5123 13.0892C13.5026 13.0893 13.4929 13.0873 13.484 13.0834C13.475 13.0796 13.4669 13.0739 13.4603 13.0668C13.4529 13.0596 13.4471 13.0509 13.4433 13.0413C13.4394 13.0318 13.4376 13.0215 13.4379 13.0112C13.4379 12.9888 13.4466 12.9678 13.464 12.948L14.1449 12.1559L13.4863 11.3825L13.4769 11.3706C13.4662 11.3557 13.4603 11.3378 13.4601 11.3194C13.4601 11.297 13.4677 11.2784 13.4825 11.2636C13.4892 11.2565 13.4973 11.2509 13.5063 11.2471C13.5153 11.2432 13.5249 11.2412 13.5347 11.2412C13.5571 11.2412 13.578 11.2524 13.5979 11.2748L14.2454 12.0407L14.8929 11.2748L14.9049 11.2628C14.9187 11.2495 14.9369 11.2419 14.9561 11.2414ZM12.3067 11.3863C12.1084 11.3863 11.9527 11.4551 11.8398 11.5927C11.727 11.7302 11.6706 11.9217 11.6706 12.1671C11.6706 12.42 11.7257 12.614 11.8361 12.7489C11.9466 12.884 12.1021 12.9517 12.3031 12.9517C12.5089 12.9517 12.6671 12.884 12.7775 12.7489C12.888 12.614 12.9431 12.42 12.9431 12.1671C12.9431 11.9217 12.8866 11.7302 12.7738 11.5927C12.6608 11.4551 12.5053 11.3863 12.3067 11.3863ZM9.09929 11.3863C8.89593 11.3863 8.73957 11.4538 8.63048 11.5891C8.52139 11.724 8.46684 11.9168 8.46684 12.1671C8.46684 12.4175 8.52139 12.6109 8.63048 12.7471C8.73957 12.8835 8.89467 12.9516 9.09565 12.9516C9.29649 12.9516 9.45286 12.884 9.56447 12.7491C9.67607 12.614 9.73188 12.4225 9.73188 12.1745C9.73188 11.9267 9.67607 11.7334 9.56447 11.5945C9.45286 11.4558 9.29775 11.3863 9.09929 11.3863ZM18.184 6.23439C18.2457 6.23439 18.2989 6.25495 18.3435 6.29607C18.3846 6.33271 18.4074 6.38139 18.412 6.44236L18.4129 6.46586V8.49831L19.5821 7.44446C19.6199 7.41229 19.6603 7.39635 19.7032 7.39635C19.7582 7.39635 19.8061 7.41733 19.8474 7.45971C19.8903 7.5018 19.9117 7.54922 19.9117 7.60153C19.9117 7.64208 19.8966 7.67943 19.8664 7.71383L19.8499 7.73062L18.9151 8.55411L19.9375 9.61299C19.9752 9.65187 19.9943 9.69579 19.9943 9.74474C19.9943 9.79887 19.9719 9.84684 19.9271 9.88922C19.9078 9.90932 19.8847 9.9253 19.859 9.93619C19.8334 9.94708 19.8058 9.95266 19.7779 9.95257C19.7253 9.95257 19.6793 9.93439 19.6399 9.89817L19.6233 9.88153L18.4129 8.61481V9.71845C18.4129 9.79048 18.3888 9.84796 18.3408 9.89076C18.2947 9.93201 18.2399 9.95257 18.1764 9.95257C18.113 9.95257 18.059 9.93285 18.0145 9.89341C17.975 9.85677 17.953 9.8067 17.9485 9.74306L17.9477 9.71845V6.46586C17.9477 6.39383 17.9708 6.33719 18.0171 6.29607C18.0632 6.25563 18.1227 6.23367 18.184 6.23439ZM17.254 7.34978C17.3155 7.34978 17.3687 7.37118 17.4131 7.41383C17.4543 7.45174 17.4772 7.50236 17.4817 7.56558L17.4826 7.58992V9.70978C17.4826 9.78446 17.4586 9.84404 17.4106 9.88852C17.3645 9.93118 17.3095 9.95257 17.2461 9.95257C17.1863 9.95388 17.1283 9.93186 17.0843 9.89118C17.0447 9.85327 17.0228 9.80125 17.0183 9.73523L17.0175 9.70978V7.58992C17.0175 7.51523 17.0405 7.45649 17.0868 7.41383C17.1324 7.37208 17.1921 7.34919 17.2538 7.34978H17.254ZM16.6289 6.23439L16.6288 6.23467L16.6398 6.23537C16.6809 6.23978 16.7187 6.25964 16.7457 6.29093C16.7727 6.32221 16.7867 6.36257 16.785 6.40383C16.7833 6.44508 16.7659 6.48414 16.7365 6.51309C16.7071 6.54204 16.6677 6.5587 16.6264 6.55971H16.385C16.313 6.55971 16.2568 6.56656 16.2166 6.58013C16.1764 6.59187 16.1403 6.62432 16.1085 6.66824C16.0783 6.71076 16.0674 6.79132 16.0557 6.87243C16.0467 6.94334 16.0417 7.03691 16.0408 7.15327L16.0406 7.19803V7.34978H16.4593C16.4952 7.35139 16.5291 7.36678 16.5539 7.39275C16.5788 7.41873 16.5926 7.45328 16.5926 7.48922C16.5926 7.52516 16.5788 7.55971 16.5539 7.58568C16.5291 7.61166 16.4952 7.62705 16.4593 7.62866H16.0407V9.71845C16.0407 9.7825 16.0218 9.83495 15.9839 9.87593L15.9688 9.89076C15.9226 9.93201 15.8677 9.95257 15.8043 9.95257C15.741 9.95257 15.6868 9.93285 15.6424 9.89341C15.6028 9.85677 15.5808 9.8067 15.5765 9.74306L15.5757 9.71845V7.6288H15.2033C15.1664 7.6288 15.1309 7.61411 15.1047 7.58796C15.0786 7.56181 15.0639 7.52634 15.0639 7.48936C15.0639 7.45238 15.0786 7.41691 15.1047 7.39076C15.1309 7.36461 15.1664 7.34992 15.2033 7.34992H15.5757V7.07341C15.5757 6.76992 15.6393 6.55481 15.7667 6.42768C15.8861 6.30684 16.0482 6.24264 16.2531 6.23509L16.2947 6.23439H16.6289ZM13.8817 7.34978C14.124 7.34978 14.3494 7.41229 14.5172 7.52558C14.6503 7.61537 14.7586 7.75383 14.8022 7.89034C14.8274 7.96866 14.8312 7.99761 14.8315 8.11132C14.8315 8.18222 14.8296 8.22992 14.8259 8.25215C14.7864 8.47579 14.6929 8.63076 14.5303 8.74111C14.3997 8.82992 14.2355 8.8818 14.0208 8.90236C13.9129 8.91257 13.7151 8.91173 13.5871 8.90013C13.4785 8.89034 13.345 8.87327 13.2881 8.86167C13.2405 8.85201 13.0773 8.82432 13.0759 8.82572C13.0754 8.82628 13.0675 8.87593 13.0587 8.93593C13.0445 9.03173 13.0425 9.05565 13.0422 9.13215V9.17174C13.0426 9.21621 13.0447 9.23076 13.0522 9.25943C13.0818 9.37481 13.1473 9.45201 13.2661 9.51173C13.3829 9.57048 13.5053 9.59579 13.6905 9.59985C13.7724 9.60153 13.8144 9.60027 13.8656 9.59481C13.9899 9.58139 14.0464 9.5667 14.2116 9.50502C14.2527 9.48964 14.2947 9.47565 14.3049 9.47397C14.3266 9.47034 14.3673 9.47789 14.3909 9.4902C14.4337 9.51215 14.4696 9.57104 14.4694 9.61859C14.4692 9.67425 14.4508 9.70796 14.3966 9.75173C14.267 9.85649 14.1015 9.92069 13.904 9.94292C13.8336 9.9509 13.6729 9.95201 13.5951 9.94516C13.3764 9.92586 13.2245 9.88782 13.0859 9.81775C12.9775 9.76292 12.895 9.69509 12.8331 9.61006C12.818 9.58908 12.8052 9.5716 12.8046 9.5709C12.7964 9.57921 12.7889 9.58819 12.7822 9.59775C12.7231 9.67234 12.6526 9.73723 12.5734 9.79006C12.4615 9.8639 12.3007 9.92041 12.1382 9.94278C12.0896 9.9495 11.9287 9.95495 11.8874 9.95132C11.6025 9.92642 11.3847 9.83915 11.2263 9.68628C11.0652 9.53076 10.9959 9.32796 11.0232 9.09104C11.0547 8.81831 11.1822 8.62572 11.4059 8.51341C11.5783 8.4267 11.7503 8.39383 12.0303 8.39383C12.2294 8.39383 12.3961 8.41034 12.6505 8.45523C12.7134 8.46642 12.7678 8.47537 12.7715 8.47551C12.7768 8.47551 12.781 8.45509 12.7924 8.37383C12.8134 8.22684 12.8171 8.17607 12.8115 8.11705C12.8047 8.04852 12.7961 8.01593 12.7706 7.96278C12.7046 7.82572 12.548 7.74181 12.2965 7.7088C12.2245 7.69943 12.0585 7.69803 11.9864 7.70628C11.8657 7.72027 11.7983 7.73789 11.648 7.79509C11.5601 7.82852 11.5599 7.82866 11.5246 7.82656C11.4645 7.82292 11.4232 7.79523 11.3968 7.74041C11.386 7.71789 11.3842 7.70852 11.3842 7.67817C11.3842 7.63243 11.3958 7.60824 11.4365 7.5695C11.528 7.48278 11.6817 7.40866 11.8369 7.37705C11.9362 7.35663 11.9852 7.35243 12.1161 7.35257C12.2517 7.35299 12.3383 7.36055 12.4587 7.38334C12.6589 7.42111 12.811 7.48782 12.9257 7.5881C12.9597 7.61775 13.011 7.67621 13.033 7.71048C13.0397 7.72097 13.0466 7.7295 13.0484 7.7295C13.0501 7.7295 13.0612 7.71691 13.073 7.70153C13.2467 7.47691 13.5392 7.34964 13.8817 7.34978ZM10.9695 7.34978C11.0275 7.34978 11.0729 7.37076 11.1054 7.41229C11.1399 7.45397 11.1571 7.5025 11.1571 7.55803C11.1571 7.61006 11.1417 7.65523 11.1109 7.69341C11.0801 7.72978 11.0357 7.74796 10.9778 7.74796C10.7333 7.74796 10.5663 7.8088 10.4305 7.9302C10.2993 8.04908 10.2295 8.20726 10.2267 8.40446V9.70978C10.2267 9.78446 10.2028 9.84404 10.1548 9.88852C10.1087 9.93118 10.0537 9.95257 9.99034 9.95257C9.93048 9.95388 9.87245 9.93186 9.82852 9.89118C9.78558 9.8502 9.76335 9.79271 9.76181 9.71873L9.76167 7.58992C9.76167 7.51523 9.78475 7.45649 9.83104 7.41383C9.87657 7.37208 9.93626 7.34919 9.99803 7.34978C10.0597 7.34978 10.1127 7.37118 10.1575 7.41383C10.2018 7.45481 10.2249 7.51048 10.2267 7.58097V7.91719C10.272 7.75579 10.3626 7.62139 10.4985 7.51383C10.6361 7.40446 10.7776 7.34978 10.9695 7.34978ZM8.57216 6.60614C8.62922 6.60614 8.67845 6.6246 8.72013 6.66153C8.76335 6.70013 8.78489 6.7516 8.78489 6.81621V7.34964L9.29677 7.34978C9.3681 7.34978 9.42712 7.40362 9.43523 7.47299L9.43607 7.48922C9.4361 7.52337 9.42358 7.55635 9.40089 7.58187C9.3782 7.6074 9.34692 7.6237 9.313 7.62768L9.29663 7.62866H8.78489V8.98894L8.78503 9.03369C8.78614 9.14992 8.79104 9.24348 8.79999 9.31439C8.81174 9.39565 8.82265 9.47621 8.85286 9.51859C8.88461 9.56264 8.92069 9.59495 8.96083 9.60684C8.99537 9.61845 9.04153 9.62502 9.09943 9.6267L9.12936 9.62712H9.37076C9.4103 9.6285 9.44798 9.64421 9.47678 9.67134C9.50558 9.69846 9.52353 9.73513 9.52728 9.77451C9.53103 9.8139 9.52033 9.8533 9.49716 9.88537C9.474 9.91744 9.43996 9.93998 9.40139 9.9488L9.38419 9.9516L9.373 9.95229L9.37328 9.95257H9.03887L8.99733 9.95174C8.79244 9.94418 8.63034 9.87999 8.5109 9.75929C8.3902 9.63887 8.3267 9.43929 8.32027 9.16069L8.31985 9.11355L8.31971 7.62852L7.99412 7.62866C7.95997 7.62865 7.92701 7.61612 7.90149 7.59344C7.87597 7.57075 7.85966 7.53949 7.85565 7.50558L7.85468 7.48922C7.85468 7.41775 7.90852 7.35887 7.97775 7.35076L7.99412 7.34978H8.32936L8.36628 6.81621C8.36628 6.74852 8.38628 6.69621 8.42642 6.65929C8.46657 6.62385 8.51862 6.60487 8.57216 6.60614ZM12.0675 8.73439C11.8944 8.74418 11.8238 8.75971 11.7198 8.81048C11.6666 8.83663 11.6298 8.86488 11.6007 8.90208C11.5596 8.95437 11.5307 9.01521 11.5162 9.08013C11.5035 9.13215 11.5022 9.26852 11.514 9.31243C11.534 9.38656 11.5578 9.42838 11.611 9.48376C11.684 9.55971 11.7803 9.61034 11.8997 9.63565C11.9607 9.64866 11.9589 9.64852 12.0611 9.64684C12.1352 9.64586 12.1631 9.64362 12.1934 9.63677C12.3221 9.60754 12.4371 9.54167 12.5204 9.44936C12.5964 9.36488 12.6587 9.23859 12.693 9.09929C12.7123 9.02083 12.7445 8.80222 12.7373 8.79775C12.725 8.79423 12.7124 8.79212 12.6996 8.79146C12.6616 8.78738 12.6237 8.78281 12.5859 8.77775C12.3211 8.74278 12.1586 8.72908 12.0675 8.73439ZM13.6828 7.68586C13.5884 7.70362 13.5087 7.73593 13.4385 7.78474C13.3084 7.87523 13.2189 8.01132 13.1689 8.19425C13.1494 8.26614 13.144 8.29369 13.1266 8.41747L13.1105 8.53173L13.1322 8.53425C13.1611 8.53747 13.2063 8.54292 13.255 8.54894L13.3292 8.55831C13.3661 8.56292 13.4014 8.56754 13.4299 8.57132C13.4836 8.57831 13.5496 8.586 13.5765 8.5881C13.6445 8.59369 13.7597 8.59397 13.8385 8.58922L13.8698 8.58698C13.9771 8.57719 14.0429 8.56013 14.124 8.52097C14.1915 8.48838 14.2306 8.45509 14.2677 8.39887C14.3222 8.31607 14.3436 8.23775 14.3431 8.12139C14.3426 8.03845 14.3358 8.0039 14.308 7.94432C14.2457 7.81118 14.0996 7.71593 13.908 7.68334C13.8601 7.67523 13.7317 7.67677 13.6828 7.68586ZM17.2524 6.23439C17.3351 6.23439 17.4019 6.25719 17.4527 6.30292C17.5036 6.34698 17.5291 6.40586 17.5291 6.47957C17.5291 6.5516 17.5036 6.61048 17.4527 6.65621C17.4019 6.70027 17.3343 6.72236 17.2499 6.72236C17.1657 6.72236 17.0982 6.70027 17.0473 6.65621C16.9964 6.61048 16.9709 6.5516 16.9709 6.47957C16.9709 6.4074 16.9964 6.34852 17.0473 6.30278C17.0997 6.25719 17.1681 6.23439 17.2524 6.23439Z" fill="white"/>
<path d="M3.23246 7.04785C3.52519 7.04785 3.78533 7.25429 3.78533 7.50855C3.78533 7.76282 3.53763 7.96925 3.23246 7.96925C3.19749 7.96925 3.15204 7.96366 3.09581 7.95219C3.05214 7.94325 3.0067 7.95051 2.96798 7.97261L0.985885 9.09988C0.971713 9.10797 0.95994 9.11968 0.951765 9.1338C0.94359 9.14792 0.939306 9.16396 0.939349 9.18028C0.939391 9.1966 0.943759 9.21262 0.952008 9.2267C0.960257 9.24078 0.972091 9.25242 0.986305 9.26044L3.13498 10.4666C3.19078 10.4979 3.25875 10.4981 3.3147 10.467L5.47498 9.26617C5.48928 9.25823 5.50121 9.24663 5.50955 9.23255C5.51789 9.21847 5.52233 9.20243 5.52241 9.18607C5.5225 9.16971 5.51823 9.15362 5.51004 9.13946C5.50185 9.12529 5.49004 9.11356 5.47582 9.10547L4.80169 8.72296C4.74575 8.69121 4.67749 8.69079 4.62127 8.72198L3.9098 9.11666C3.90101 9.12154 3.89351 9.12845 3.88794 9.13682C3.88237 9.1452 3.87888 9.15478 3.87777 9.16477L3.87749 9.17149C3.87749 9.42589 3.6298 9.63233 3.32463 9.63233C3.01945 9.63233 2.77176 9.42589 2.77176 9.17149C2.77176 8.91722 3.01945 8.71079 3.32463 8.71079C3.33595 8.71079 3.34896 8.71149 3.36379 8.71261L3.387 8.71498L3.41288 8.7182C3.45218 8.72352 3.49218 8.71596 3.527 8.6968L4.57931 8.11317C4.61887 8.09121 4.66322 8.0793 4.70846 8.0785C4.75369 8.07769 4.79844 8.08801 4.83875 8.10855L4.84994 8.11442L6.31931 8.94869C6.50351 9.05317 6.50561 9.31624 6.327 9.42491L6.31721 9.43065L5.334 9.97708C5.31953 9.98521 5.30753 9.99708 5.29924 10.0115C5.29095 10.0258 5.28669 10.0422 5.28691 10.0588C5.28712 10.0753 5.2918 10.0916 5.30046 10.1057C5.30912 10.1199 5.32143 10.1314 5.33609 10.1392L6.30952 10.6512C6.50295 10.7529 6.50756 11.028 6.31791 11.1361L3.36099 12.8211C3.31925 12.8449 3.27204 12.8574 3.224 12.8574C3.17596 12.8574 3.12874 12.8449 3.087 12.8211L0.147004 11.143C-0.0429262 11.0346 -0.0376115 10.7589 0.156235 10.6578L1.14043 10.1444C1.15516 10.1367 1.16754 10.1252 1.17626 10.111C1.18498 10.0969 1.18973 10.0807 1.18998 10.0641C1.19024 10.0474 1.18601 10.0311 1.17773 10.0167C1.16945 10.0023 1.15743 9.99039 1.14295 9.98226L0.146864 9.4231C-0.0373318 9.3196 -0.0413877 9.05764 0.135675 8.94757L0.145465 8.9417L2.5919 7.55051C2.63054 7.52851 2.65994 7.49329 2.6747 7.45135L2.67777 7.44156C2.76379 7.18589 2.95903 7.04785 3.23246 7.04785ZM4.59749 10.4418L3.38952 11.1364L3.37833 11.1425C3.33779 11.1634 3.29269 11.1739 3.24709 11.1731C3.20148 11.1722 3.15681 11.16 3.11707 11.1376L1.91288 10.4588C1.88622 10.4437 1.85622 10.4356 1.82561 10.4351C1.795 10.4346 1.76476 10.4418 1.73763 10.456L1.04351 10.8189C1.02886 10.8266 1.01656 10.8381 1.00787 10.8522C0.999189 10.8662 0.99445 10.8824 0.994149 10.8989C0.993849 10.9155 0.997999 10.9318 1.00617 10.9462C1.01433 10.9606 1.02621 10.9725 1.04057 10.9807L3.16127 12.1941C3.21777 12.2263 3.287 12.2265 3.34351 12.1941L5.48253 10.972C5.49691 10.9639 5.50882 10.952 5.51702 10.9377C5.52522 10.9233 5.52941 10.907 5.52913 10.8905C5.52886 10.874 5.52414 10.8578 5.51548 10.8437C5.50681 10.8297 5.49451 10.8182 5.47987 10.8105L4.77456 10.4385C4.71889 10.4091 4.65218 10.4105 4.59749 10.4418Z" fill="white"/>
</svg>
