<svg xmlns="http://www.w3.org/2000/svg" width="20" height="20" fill="none" viewBox="0 0 20 20">
    <path fill="#fff" d="M9.099 11.234C9.258 11.234 9.398 11.273 9.52 11.351 9.641 11.429 9.736 11.539 9.803 11.68 9.87 11.821 9.903 11.986 9.903 12.175 9.903 12.361 9.87 12.524 9.803 12.664 9.736 12.804 9.641 12.912 9.52 12.989 9.398 13.066 9.258 13.104 9.099 13.104 8.948 13.104 8.818 13.071 8.71 13.004 8.603 12.937 8.521 12.84 8.467 12.714V13.68L8.466 13.696C8.465 13.714 8.458 13.73 8.446 13.744 8.439 13.751 8.43 13.757 8.42 13.761 8.41 13.765 8.399 13.767 8.389 13.766 8.336 13.766 8.31 13.738 8.31 13.68V11.323L8.311 11.309C8.313 11.292 8.32 11.276 8.331 11.264 8.338 11.256 8.347 11.25 8.357 11.246 8.367 11.242 8.378 11.241 8.389 11.241 8.413 11.241 8.433 11.249 8.446 11.264 8.461 11.28 8.468 11.301 8.467 11.323V11.617L8.484 11.581C8.534 11.478 8.613 11.392 8.71 11.332 8.818 11.267 8.948 11.234 9.099 11.234ZM15.347 11.238C15.374 11.238 15.395 11.252 15.41 11.282L16.128 12.9 16.136 12.881 16.843 11.293 16.85 11.279C16.856 11.268 16.865 11.258 16.876 11.251 16.887 11.245 16.9 11.241 16.913 11.241 16.933 11.241 16.951 11.249 16.965 11.262 16.98 11.275 16.988 11.293 16.988 11.316 16.987 11.327 16.984 11.338 16.98 11.349L15.912 13.714 15.906 13.726C15.899 13.736 15.89 13.744 15.88 13.75 15.869 13.756 15.858 13.759 15.845 13.758 15.827 13.759 15.809 13.752 15.795 13.74 15.788 13.734 15.783 13.726 15.78 13.718 15.776 13.71 15.774 13.701 15.775 13.692L15.782 13.662 16.05 13.074 15.269 11.349 15.265 11.339C15.26 11.325 15.26 11.31 15.264 11.296 15.268 11.282 15.276 11.269 15.287 11.26 15.304 11.245 15.325 11.238 15.347 11.238ZM12.307 11.234C12.466 11.234 12.606 11.272 12.727 11.349 12.849 11.426 12.943 11.535 13.01 11.676 13.077 11.818 13.111 11.981 13.111 12.167 13.111 12.356 13.077 12.52 13.01 12.662 12.943 12.803 12.849 12.912 12.727 12.989 12.606 13.066 12.466 13.104 12.307 13.104 12.148 13.104 12.008 13.066 11.886 12.989 11.765 12.912 11.671 12.803 11.604 12.662 11.537 12.52 11.503 12.356 11.503 12.167 11.503 11.981 11.537 11.818 11.604 11.676 11.671 11.535 11.765 11.426 11.886 11.349 12.008 11.272 12.148 11.234 12.307 11.234ZM11.228 11.241 11.245 11.242C11.265 11.244 11.28 11.249 11.289 11.258 11.3 11.269 11.306 11.286 11.306 11.308 11.306 11.35 11.28 11.375 11.228 11.383L11.116 11.394 11.08 11.398C10.917 11.42 10.792 11.486 10.707 11.595 10.616 11.709 10.567 11.85 10.569 11.996V13.011L10.568 13.027C10.567 13.044 10.56 13.061 10.549 13.074 10.535 13.089 10.516 13.097 10.491 13.097 10.466 13.097 10.447 13.089 10.433 13.074 10.42 13.059 10.413 13.038 10.413 13.011V11.327L10.414 11.311C10.418 11.264 10.444 11.241 10.491 11.241 10.513 11.241 10.532 11.249 10.547 11.264 10.562 11.278 10.569 11.299 10.569 11.327V11.594L10.584 11.566C10.694 11.371 10.882 11.264 11.15 11.245L11.202 11.241 11.228 11.241ZM14.956 11.241C14.976 11.241 14.994 11.249 15.01 11.264 15.026 11.278 15.034 11.297 15.034 11.319 15.034 11.342 15.026 11.363 15.008 11.383L14.346 12.156 15.027 12.948 15.036 12.96C15.047 12.975 15.053 12.993 15.053 13.011 15.053 13.034 15.045 13.052 15.031 13.067 15.024 13.074 15.016 13.08 15.007 13.084 14.998 13.087 14.988 13.089 14.979 13.089 14.956 13.089 14.935 13.078 14.915 13.056L14.245 12.271 13.579 13.056 13.566 13.068C13.551 13.081 13.532 13.089 13.512 13.089 13.503 13.089 13.493 13.087 13.484 13.083 13.475 13.08 13.467 13.074 13.46 13.067 13.453 13.06 13.447 13.051 13.443 13.041 13.439 13.032 13.438 13.022 13.438 13.011 13.438 12.989 13.447 12.968 13.464 12.948L14.145 12.156 13.486 11.383 13.477 11.371C13.466 11.356 13.46 11.338 13.46 11.319 13.46 11.297 13.468 11.278 13.483 11.264 13.489 11.257 13.497 11.251 13.506 11.247 13.515 11.243 13.525 11.241 13.535 11.241 13.557 11.241 13.578 11.252 13.598 11.275L14.245 12.041 14.893 11.275 14.905 11.263C14.919 11.25 14.937 11.242 14.956 11.241ZM12.307 11.386C12.108 11.386 11.953 11.455 11.84 11.593 11.727 11.73 11.671 11.922 11.671 12.167 11.671 12.42 11.726 12.614 11.836 12.749 11.947 12.884 12.102 12.952 12.303 12.952 12.509 12.952 12.667 12.884 12.778 12.749 12.888 12.614 12.943 12.42 12.943 12.167 12.943 11.922 12.887 11.73 12.774 11.593 12.661 11.455 12.505 11.386 12.307 11.386ZM9.099 11.386C8.896 11.386 8.74 11.454 8.63 11.589 8.521 11.724 8.467 11.917 8.467 12.167 8.467 12.418 8.521 12.611 8.63 12.747 8.74 12.884 8.895 12.952 9.096 12.952 9.296 12.952 9.453 12.884 9.564 12.749 9.676 12.614 9.732 12.423 9.732 12.175 9.732 11.927 9.676 11.733 9.564 11.595 9.453 11.456 9.298 11.386 9.099 11.386ZM18.184 6.234C18.246 6.234 18.299 6.255 18.344 6.296 18.385 6.333 18.407 6.381 18.412 6.442L18.413 6.466V8.498L19.582 7.444C19.62 7.412 19.66 7.396 19.703 7.396 19.758 7.396 19.806 7.417 19.847 7.46 19.89 7.502 19.912 7.549 19.912 7.602 19.912 7.642 19.897 7.679 19.866 7.714L19.85 7.731 18.915 8.554 19.938 9.613C19.975 9.652 19.994 9.696 19.994 9.745 19.994 9.799 19.972 9.847 19.927 9.889 19.908 9.909 19.885 9.925 19.859 9.936 19.833 9.947 19.806 9.953 19.778 9.953 19.725 9.953 19.679 9.934 19.64 9.898L19.623 9.882 18.413 8.615V9.718C18.413 9.79 18.389 9.848 18.341 9.891 18.295 9.932 18.24 9.953 18.176 9.953 18.113 9.953 18.059 9.933 18.015 9.893 17.975 9.857 17.953 9.807 17.949 9.743L17.948 9.718V6.466C17.948 6.394 17.971 6.337 18.017 6.296 18.063 6.256 18.123 6.234 18.184 6.234ZM17.254 7.35C17.316 7.35 17.369 7.371 17.413 7.414 17.454 7.452 17.477 7.502 17.482 7.566L17.483 7.59V9.71C17.483 9.784 17.459 9.844 17.411 9.889 17.365 9.931 17.31 9.953 17.246 9.953 17.186 9.954 17.128 9.932 17.084 9.891 17.045 9.853 17.023 9.801 17.018 9.735L17.018 9.71V7.59C17.018 7.515 17.041 7.456 17.087 7.414 17.132 7.372 17.192 7.349 17.254 7.35H17.254ZM16.629 6.234 16.629 6.235 16.64 6.235C16.681 6.24 16.719 6.26 16.746 6.291 16.773 6.322 16.787 6.363 16.785 6.404 16.783 6.445 16.766 6.484 16.737 6.513 16.707 6.542 16.668 6.559 16.626 6.56H16.385C16.313 6.56 16.257 6.567 16.217 6.58 16.176 6.592 16.14 6.624 16.109 6.668 16.078 6.711 16.067 6.791 16.056 6.872 16.047 6.943 16.042 7.037 16.041 7.153L16.041 7.198V7.35H16.459C16.495 7.351 16.529 7.367 16.554 7.393 16.579 7.419 16.593 7.453 16.593 7.489 16.593 7.525 16.579 7.56 16.554 7.586 16.529 7.612 16.495 7.627 16.459 7.629H16.041V9.718C16.041 9.783 16.022 9.835 15.984 9.876L15.969 9.891C15.923 9.932 15.868 9.953 15.804 9.953 15.741 9.953 15.687 9.933 15.642 9.893 15.603 9.857 15.581 9.807 15.577 9.743L15.576 9.718V7.629H15.203C15.166 7.629 15.131 7.614 15.105 7.588 15.079 7.562 15.064 7.526 15.064 7.489 15.064 7.452 15.079 7.417 15.105 7.391 15.131 7.365 15.166 7.35 15.203 7.35H15.576V7.073C15.576 6.77 15.639 6.555 15.767 6.428 15.886 6.307 16.048 6.243 16.253 6.235L16.295 6.234H16.629ZM13.882 7.35C14.124 7.35 14.349 7.412 14.517 7.526 14.65 7.615 14.759 7.754 14.802 7.89 14.827 7.969 14.831 7.998 14.832 8.111 14.832 8.182 14.83 8.23 14.826 8.252 14.786 8.476 14.693 8.631 14.53 8.741 14.4 8.83 14.236 8.882 14.021 8.902 13.913 8.913 13.715 8.912 13.587 8.9 13.479 8.89 13.345 8.873 13.288 8.862 13.241 8.852 13.077 8.824 13.076 8.826 13.075 8.826 13.068 8.876 13.059 8.936 13.045 9.032 13.043 9.056 13.042 9.132V9.172C13.043 9.216 13.045 9.231 13.052 9.259 13.082 9.375 13.147 9.452 13.266 9.512 13.383 9.57 13.505 9.596 13.691 9.6 13.772 9.602 13.814 9.6 13.866 9.595 13.99 9.581 14.046 9.567 14.212 9.505 14.253 9.49 14.295 9.476 14.305 9.474 14.327 9.47 14.367 9.478 14.391 9.49 14.434 9.512 14.47 9.571 14.469 9.619 14.469 9.674 14.451 9.708 14.397 9.752 14.267 9.856 14.102 9.921 13.904 9.943 13.834 9.951 13.673 9.952 13.595 9.945 13.376 9.926 13.225 9.888 13.086 9.818 12.978 9.763 12.895 9.695 12.833 9.61 12.818 9.589 12.805 9.572 12.805 9.571 12.796 9.579 12.789 9.588 12.782 9.598 12.723 9.672 12.653 9.737 12.573 9.79 12.462 9.864 12.301 9.92 12.138 9.943 12.09 9.95 11.929 9.955 11.887 9.951 11.603 9.926 11.385 9.839 11.226 9.686 11.065 9.531 10.996 9.328 11.023 9.091 11.055 8.818 11.182 8.626 11.406 8.513 11.578 8.427 11.75 8.394 12.03 8.394 12.229 8.394 12.396 8.41 12.651 8.455 12.713 8.466 12.768 8.475 12.772 8.476 12.777 8.476 12.781 8.455 12.792 8.374 12.813 8.227 12.817 8.176 12.812 8.117 12.805 8.049 12.796 8.016 12.771 7.963 12.705 7.826 12.548 7.742 12.297 7.709 12.225 7.699 12.059 7.698 11.986 7.706 11.866 7.72 11.798 7.738 11.648 7.795 11.56 7.829 11.56 7.829 11.525 7.827 11.465 7.823 11.423 7.795 11.397 7.74 11.386 7.718 11.384 7.709 11.384 7.678 11.384 7.632 11.396 7.608 11.437 7.57 11.528 7.483 11.682 7.409 11.837 7.377 11.936 7.357 11.985 7.352 12.116 7.353 12.252 7.353 12.338 7.361 12.459 7.383 12.659 7.421 12.811 7.488 12.926 7.588 12.96 7.618 13.011 7.676 13.033 7.71 13.04 7.721 13.047 7.73 13.048 7.73 13.05 7.73 13.061 7.717 13.073 7.702 13.247 7.477 13.539 7.35 13.882 7.35ZM10.97 7.35C11.028 7.35 11.073 7.371 11.105 7.412 11.14 7.454 11.157 7.503 11.157 7.558 11.157 7.61 11.142 7.655 11.111 7.693 11.08 7.73 11.036 7.748 10.978 7.748 10.733 7.748 10.566 7.809 10.431 7.93 10.299 8.049 10.23 8.207 10.227 8.404V9.71C10.227 9.784 10.203 9.844 10.155 9.889 10.109 9.931 10.054 9.953 9.99 9.953 9.93 9.954 9.872 9.932 9.829 9.891 9.786 9.85 9.763 9.793 9.762 9.719L9.762 7.59C9.762 7.515 9.785 7.456 9.831 7.414 9.877 7.372 9.936 7.349 9.998 7.35 10.06 7.35 10.113 7.371 10.158 7.414 10.202 7.455 10.225 7.51 10.227 7.581V7.917C10.272 7.756 10.363 7.621 10.499 7.514 10.636 7.404 10.778 7.35 10.97 7.35ZM8.572 6.606C8.629 6.606 8.678 6.625 8.72 6.662 8.763 6.7 8.785 6.752 8.785 6.816V7.35L9.297 7.35C9.368 7.35 9.427 7.404 9.435 7.473L9.436 7.489C9.436 7.523 9.424 7.556 9.401 7.582 9.378 7.607 9.347 7.624 9.313 7.628L9.297 7.629H8.785V8.989L8.785 9.034C8.786 9.15 8.791 9.243 8.8 9.314 8.812 9.396 8.823 9.476 8.853 9.519 8.885 9.563 8.921 9.595 8.961 9.607 8.995 9.618 9.042 9.625 9.099 9.627L9.129 9.627H9.371C9.41 9.629 9.448 9.644 9.477 9.671 9.506 9.698 9.524 9.735 9.527 9.775 9.531 9.814 9.52 9.853 9.497 9.885 9.474 9.917 9.44 9.94 9.401 9.949L9.384 9.952 9.373 9.952 9.373 9.953H9.039L8.997 9.952C8.792 9.944 8.63 9.88 8.511 9.759 8.39 9.639 8.327 9.439 8.32 9.161L8.32 9.114 8.32 7.629 7.994 7.629C7.96 7.629 7.927 7.616 7.901 7.593 7.876 7.571 7.86 7.539 7.856 7.506L7.855 7.489C7.855 7.418 7.909 7.359 7.978 7.351L7.994 7.35H8.329L8.366 6.816C8.366 6.749 8.386 6.696 8.426 6.659 8.467 6.624 8.519 6.605 8.572 6.606ZM12.068 8.734C11.894 8.744 11.824 8.76 11.72 8.81 11.667 8.837 11.63 8.865 11.601 8.902 11.56 8.954 11.531 9.015 11.516 9.08 11.504 9.132 11.502 9.269 11.514 9.312 11.534 9.387 11.558 9.428 11.611 9.484 11.684 9.56 11.78 9.61 11.9 9.636 11.961 9.649 11.959 9.649 12.061 9.647 12.135 9.646 12.163 9.644 12.193 9.637 12.322 9.608 12.437 9.542 12.52 9.449 12.596 9.365 12.659 9.239 12.693 9.099 12.712 9.021 12.745 8.802 12.737 8.798 12.725 8.794 12.712 8.792 12.7 8.791 12.662 8.787 12.624 8.783 12.586 8.778 12.321 8.743 12.159 8.729 12.068 8.734ZM13.683 7.686C13.588 7.704 13.509 7.736 13.439 7.785 13.308 7.875 13.219 8.011 13.169 8.194 13.149 8.266 13.144 8.294 13.127 8.417L13.111 8.532 13.132 8.534C13.161 8.537 13.206 8.543 13.255 8.549L13.329 8.558C13.366 8.563 13.401 8.568 13.43 8.571 13.484 8.578 13.55 8.586 13.577 8.588 13.645 8.594 13.76 8.594 13.839 8.589L13.87 8.587C13.977 8.577 14.043 8.56 14.124 8.521 14.192 8.488 14.231 8.455 14.268 8.399 14.322 8.316 14.344 8.238 14.343 8.121 14.343 8.038 14.336 8.004 14.308 7.944 14.246 7.811 14.1 7.716 13.908 7.683 13.86 7.675 13.732 7.677 13.683 7.686ZM17.252 6.234C17.335 6.234 17.402 6.257 17.453 6.303 17.504 6.347 17.529 6.406 17.529 6.48 17.529 6.552 17.504 6.61 17.453 6.656 17.402 6.7 17.334 6.722 17.25 6.722 17.166 6.722 17.098 6.7 17.047 6.656 16.996 6.61 16.971 6.552 16.971 6.48 16.971 6.407 16.996 6.349 17.047 6.303 17.1 6.257 17.168 6.234 17.252 6.234ZM3.232 7.048C3.525 7.048 3.785 7.254 3.785 7.509 3.785 7.763 3.538 7.969 3.232 7.969 3.197 7.969 3.152 7.964 3.096 7.952 3.052 7.943 3.007 7.951 2.968 7.973L.986 9.1C.972 9.108.96 9.12.952 9.134.944 9.148.939 9.164.939 9.18.939 9.197.944 9.213.952 9.227.96 9.241.972 9.252.986 9.26L3.135 10.467C3.191 10.498 3.259 10.498 3.315 10.467L5.475 9.266C5.489 9.258 5.501 9.247 5.51 9.233 5.518 9.218 5.522 9.202 5.522 9.186 5.523 9.17 5.518 9.154 5.51 9.139 5.502 9.125 5.49 9.114 5.476 9.105L4.802 8.723C4.746 8.691 4.677 8.691 4.621 8.722L3.91 9.117C3.901 9.122 3.894 9.128 3.888 9.137 3.882 9.145 3.879 9.155 3.878 9.165L3.877 9.171C3.877 9.426 3.63 9.632 3.325 9.632 3.019 9.632 2.772 9.426 2.772 9.171 2.772 8.917 3.019 8.711 3.325 8.711 3.336 8.711 3.349 8.711 3.364 8.713L3.387 8.715 3.413 8.718C3.452 8.724 3.492 8.716 3.527 8.697L4.579 8.113C4.619 8.091 4.663 8.079 4.708 8.079 4.754 8.078 4.798 8.088 4.839 8.109L4.85 8.114 6.319 8.949C6.504 9.053 6.506 9.316 6.327 9.425L6.317 9.431 5.334 9.977C5.32 9.985 5.308 9.997 5.299 10.012 5.291 10.026 5.287 10.042 5.287 10.059 5.287 10.075 5.292 10.092 5.3 10.106 5.309 10.12 5.321 10.131 5.336 10.139L6.31 10.651C6.503 10.753 6.508 11.028 6.318 11.136L3.361 12.821C3.319 12.845 3.272 12.857 3.224 12.857 3.176 12.857 3.129 12.845 3.087 12.821L.147 11.143C-.043 11.035-.038 10.759.156 10.658L1.14 10.144C1.155 10.137 1.168 10.125 1.176 10.111 1.185 10.097 1.19 10.081 1.19 10.064 1.19 10.047 1.186 10.031 1.178 10.017 1.169 10.002 1.157 9.99 1.143 9.982L.147 9.423C-.037 9.32-.041 9.058.136 8.948L.145 8.942 2.592 7.551C2.631 7.529 2.66 7.493 2.675 7.451L2.678 7.442C2.764 7.186 2.959 7.048 3.232 7.048ZM4.597 10.442 3.39 11.136 3.378 11.143C3.338 11.163 3.293 11.174 3.247 11.173 3.201 11.172 3.157 11.16 3.117 11.138L1.913 10.459C1.886 10.444 1.856 10.436 1.826 10.435 1.795 10.435 1.765 10.442 1.738 10.456L1.044 10.819C1.029 10.827 1.017 10.838 1.008 10.852.999 10.866.994 10.882.994 10.899.994 10.916.998 10.932 1.006 10.946 1.014 10.961 1.026 10.973 1.041 10.981L3.161 12.194C3.218 12.226 3.287 12.227 3.344 12.194L5.483 10.972C5.497 10.964 5.509 10.952 5.517 10.938 5.525 10.923 5.529 10.907 5.529 10.891 5.529 10.874 5.524 10.858 5.515 10.844 5.507 10.83 5.495 10.818 5.48 10.811L4.775 10.439C4.719 10.409 4.652 10.411 4.597 10.442Z"/>
</svg>
