<svg xmlns="http://www.w3.org/2000/svg" width="20" height="20" fill="none" viewBox="0 0 20 20">
    <path fill="#fff" d="M9.1 11.234q.237 0 .42.117a.8.8 0 0 1 .283.329q.1.212.1.495 0 .278-.1.489a.77.77 0 0 1-.283.325.77.77 0 0 1-.42.115.7.7 0 0 1-.39-.1.62.62 0 0 1-.243-.29v.966l-.001.016a.1.1 0 0 1-.02.048.08.08 0 0 1-.057.022q-.08 0-.079-.086v-2.357l.001-.014a.1.1 0 0 1 .02-.045.07.07 0 0 1 .058-.023q.037 0 .057.023a.08.08 0 0 1 .02.06v.293l.018-.037a.6.6 0 0 1 .226-.248.73.73 0 0 1 .39-.098m6.247.004q.04 0 .063.044l.718 1.618.008-.019.707-1.588.006-.014a.07.07 0 0 1 .064-.038q.03.001.052.02a.07.07 0 0 1 .023.055.1.1 0 0 1-.008.033l-1.068 2.365-.006.012a.07.07 0 0 1-.06.032.07.07 0 0 1-.05-.018.06.06 0 0 1-.021-.048l.007-.03.268-.588-.781-1.725-.004-.01a.07.07 0 0 1 .022-.08.1.1 0 0 1 .06-.021m-3.04-.004a.77.77 0 0 1 .42.115.76.76 0 0 1 .283.327q.1.212.1.491 0 .282-.1.495a.77.77 0 0 1-.283.327.77.77 0 0 1-.42.115.77.77 0 0 1-.42-.115.76.76 0 0 1-.284-.328 1.14 1.14 0 0 1-.1-.494q0-.28.1-.49a.76.76 0 0 1 .283-.328.77.77 0 0 1 .42-.115m-1.08.007h.018q.03.004.044.017.017.017.017.05 0 .063-.078.075l-.112.01-.036.005a.55.55 0 0 0-.373.197.63.63 0 0 0-.138.401v1.031a.1.1 0 0 1-.02.047.07.07 0 0 1-.058.023.07.07 0 0 1-.058-.023q-.02-.023-.02-.063V11.31q.008-.069.078-.069.032 0 .056.023.022.021.022.063v.267l.015-.028q.165-.293.566-.321l.052-.004zm3.73 0q.029 0 .053.023a.07.07 0 0 1 .024.055.1.1 0 0 1-.026.064l-.662.773.68.792.01.012a.1.1 0 0 1 .017.051q0 .034-.023.056a.07.07 0 0 1-.051.022q-.034 0-.064-.033l-.67-.785-.666.785-.013.012a.1.1 0 0 1-.054.021.07.07 0 0 1-.052-.022.07.07 0 0 1-.022-.056q0-.033.026-.063l.68-.792-.658-.774-.01-.011a.1.1 0 0 1-.016-.052q0-.033.022-.055a.07.07 0 0 1 .052-.022q.034 0 .064.033l.647.766.648-.766.012-.012a.08.08 0 0 1 .051-.022m-2.65.145a.57.57 0 0 0-.467.207q-.17.206-.17.574 0 .38.166.582a.57.57 0 0 0 .467.203q.309 0 .474-.203.166-.202.166-.582 0-.368-.17-.574a.57.57 0 0 0-.466-.207m-3.208 0q-.305 0-.469.203t-.163.578.163.58q.165.204.466.205.3 0 .468-.203t.168-.575q0-.37-.168-.58a.56.56 0 0 0-.465-.208m9.085-5.152q.093 0 .16.062a.2.2 0 0 1 .068.146v2.056l1.17-1.054a.18.18 0 0 1 .121-.048q.082 0 .144.064.065.063.065.142 0 .06-.046.112l-.016.017-.935.823 1.023 1.059a.2.2 0 0 1 .056.132.2.2 0 0 1-.067.144.206.206 0 0 1-.287.01l-.017-.017-1.21-1.267v1.103a.22.22 0 0 1-.072.173.24.24 0 0 1-.165.062.24.24 0 0 1-.161-.06.22.22 0 0 1-.067-.15V6.466q0-.108.07-.17a.25.25 0 0 1 .166-.062m-.93 1.116q.092 0 .16.064a.22.22 0 0 1 .068.152V9.71a.23.23 0 0 1-.236.243.23.23 0 0 1-.162-.062.23.23 0 0 1-.066-.156V7.59a.23.23 0 0 1 .236-.24m-.625-1.116.01.001a.163.163 0 0 1-.013.325h-.241a.6.6 0 0 0-.168.02.22.22 0 0 0-.108.088.5.5 0 0 0-.053.204q-.014.107-.015.281v.197h.418a.14.14 0 0 1 0 .279h-.418v2.09a.22.22 0 0 1-.057.157l-.015.015a.24.24 0 0 1-.165.062.24.24 0 0 1-.162-.06.22.22 0 0 1-.066-.15V7.628h-.373a.14.14 0 0 1 0-.278h.373v-.277q0-.454.19-.645a.7.7 0 0 1 .487-.193zM13.882 7.35c.242 0 .467.062.635.176.133.09.242.228.285.364a.6.6 0 0 1 .03.221q0 .107-.006.141c-.04.224-.133.379-.296.49a1.06 1.06 0 0 1-.51.16 3 3 0 0 1-.732-.04 5 5 0 0 0-.212-.036l-.017.11c-.014.096-.016.12-.017.196v.04a.37.37 0 0 0 .224.34c.117.058.24.084.425.088a1.2 1.2 0 0 0 .521-.095 1 1 0 0 1 .093-.031.2.2 0 0 1 .086.016.16.16 0 0 1 .078.129c0 .055-.018.089-.072.133a.93.93 0 0 1-.493.19 2 2 0 0 1-.309.003 1.3 1.3 0 0 1-.51-.127.7.7 0 0 1-.28-.247l-.023.027a1 1 0 0 1-.209.192 1.1 1.1 0 0 1-.435.153 2 2 0 0 1-.25.008c-.286-.025-.503-.112-.662-.265a.68.68 0 0 1-.203-.595q.048-.409.383-.578c.172-.086.344-.12.624-.12.2 0 .366.017.62.062l.121.02c.006 0 .01-.02.021-.101.021-.147.025-.198.02-.257a.4.4 0 0 0-.041-.154q-.098-.205-.475-.254a2 2 0 0 0-.31-.003 1.2 1.2 0 0 0-.338.09c-.088.033-.088.033-.123.03a.14.14 0 0 1-.128-.086.1.1 0 0 1-.013-.062c0-.046.012-.07.053-.109a.86.86 0 0 1 .4-.192c.1-.02.148-.025.28-.024.135 0 .221.008.342.03.2.038.352.105.467.205a.7.7 0 0 1 .122.141l.025-.027c.174-.225.466-.352.809-.352m-2.912 0q.086 0 .135.062.052.063.052.146a.2.2 0 0 1-.046.135q-.045.055-.133.055c-.245 0-.412.06-.547.182a.62.62 0 0 0-.204.474V9.71a.23.23 0 0 1-.237.243.23.23 0 0 1-.161-.062.23.23 0 0 1-.067-.172v-2.13a.23.23 0 0 1 .236-.24q.093 0 .16.065a.23.23 0 0 1 .069.167v.336a.77.77 0 0 1 .271-.403.7.7 0 0 1 .472-.164m-2.398-.744q.085 0 .148.056.065.058.065.154v.534h.512a.14.14 0 0 1 .138.123l.001.016a.14.14 0 0 1-.123.139h-.528v1.406q.002.175.015.28c.012.082.023.162.053.205a.22.22 0 0 0 .108.088q.051.017.138.02h.272a.163.163 0 0 1 .03.322l-.017.003h-.387a.7.7 0 0 1-.486-.193q-.18-.18-.19-.598l-.001-.047V7.629h-.326a.14.14 0 0 1-.138-.123l-.001-.017a.14.14 0 0 1 .123-.138l.016-.001h.335l.037-.534q0-.101.06-.157a.2.2 0 0 1 .146-.053m3.496 2.128c-.174.01-.244.026-.348.076a.3.3 0 0 0-.12.092.45.45 0 0 0-.084.178.7.7 0 0 0-.002.232c.02.075.044.116.097.172q.11.114.289.152c.06.013.059.013.161.01a.6.6 0 0 0 .132-.01.63.63 0 0 0 .327-.187.8.8 0 0 0 .173-.35c.02-.078.052-.297.044-.301a3.3 3.3 0 0 0-.67-.063m1.615-1.048a.6.6 0 0 0-.245.099.7.7 0 0 0-.27.41 1.5 1.5 0 0 0-.041.222l-.017.115.022.002.123.015.074.01.1.012a2 2 0 0 0 .409.018l.032-.002a.7.7 0 0 0 .254-.066.3.3 0 0 0 .144-.122.46.46 0 0 0 .075-.278.35.35 0 0 0-.035-.177c-.062-.133-.208-.228-.4-.26a1 1 0 0 0-.225.002m3.57-1.452q.123 0 .2.069.075.066.076.177 0 .108-.076.176a.3.3 0 0 1-.203.066.3.3 0 0 1-.203-.066.23.23 0 0 1-.076-.176q0-.109.076-.177a.3.3 0 0 1 .205-.069m-14.019.813c.293 0 .553.206.553.46 0 .255-.247.461-.553.461a1 1 0 0 1-.136-.017.2.2 0 0 0-.128.02L.986 9.1a.092.092 0 0 0 0 .16l2.149 1.207a.18.18 0 0 0 .18 0l2.16-1.2a.092.092 0 0 0 0-.162l-.673-.382a.18.18 0 0 0-.18-.001l-.712.395a.06.06 0 0 0-.032.048v.006c0 .255-.248.461-.553.461s-.553-.206-.553-.46c0-.255.247-.461.553-.461l.039.002.023.002.026.003q.062.008.114-.021l1.052-.584a.28.28 0 0 1 .26-.004l.01.005 1.47.835a.276.276 0 0 1 .008.476l-.01.006-.983.546a.092.092 0 0 0 .002.162l.974.512a.276.276 0 0 1 .008.485L3.36 12.821a.28.28 0 0 1-.274 0l-2.94-1.678a.276.276 0 0 1 .01-.485l.983-.514a.092.092 0 0 0 .003-.162l-.996-.559a.276.276 0 0 1-.011-.475l.01-.006L2.591 7.55a.2.2 0 0 0 .083-.1l.003-.01a.546.546 0 0 1 .554-.393m1.365 3.394-1.207.694-.012.007a.28.28 0 0 1-.26-.005l-1.205-.68a.18.18 0 0 0-.175-.002l-.694.363a.092.092 0 0 0-.003.162l2.12 1.213a.18.18 0 0 0 .183 0l2.139-1.222a.092.092 0 0 0-.003-.162l-.705-.372a.18.18 0 0 0-.178.004"/>
</svg>
