<svg xmlns="http://www.w3.org/2000/svg" width="20" height="20" fill="none" viewBox="0 0 20 20">
    <path fill="#fff" d="M2.836 6.617a2.836 2.836 0 1 1 0 5.672 2.836 2.836 0 0 1 0-5.672M14.645.398a2.836 2.836 0 1 1 0 5.672 2.836 2.836 0 0 1 0-5.672m-12.622 13a9.31 9.31 0 0 0 8.813 5.88 4 4 0 0 1-.871-2.446 12 12 0 0 1-.73-.125 6.84 6.84 0 0 1-4.696-3.617 4 4 0 0 1-2.516.308m11.985.532a2.836 2.836 0 1 1 0 5.671 2.836 2.836 0 0 1 0-5.671m2.531-.325a4.05 4.05 0 0 1 1.398 2.184 9.31 9.31 0 0 0 .477-11.047 4 4 0 0 1-1.64 1.934 6.9 6.9 0 0 1-.235 6.93M2.844 5.416q.422-.002.84.085c.468.102.914.281 1.316.54a6.88 6.88 0 0 1 5.586-2.99q.013-.334.078-.663A4.1 4.1 0 0 1 11.48.681a9.39 9.39 0 0 0-8.937 4.746q.152-.012.3-.012"/>
</svg>
