<svg xmlns="http://www.w3.org/2000/svg" width="20" height="20" fill="none" viewBox="0 0 20 20">
    <path fill="#fff" d="M0 0.566406H20L10 19.4336L0 0.566406Z"/>
    <path fill="#00adcc" d="M12.4219 5.58203C12.4219 5.89453 12.168 6.14844 11.8555 6.14844C11.543 6.14844 11.2891 5.89453 11.2891 5.58203C11.2891 5.26953 11.543 5.01562 11.8555 5.01562C12.168 5.01562 12.4219 5.26953 12.4219 5.58203Z"/>
    <path fill="#005766" d="M12.4219 7.13672C12.4219 7.44922 12.168 7.70312 11.8555 7.70312C11.543 7.70312 11.2891 7.44922 11.2891 7.13672C11.2891 6.82422 11.543 6.57031 11.8555 6.57031C12.168 6.57031 12.4219 6.82422 12.4219 7.13672Z"/>
    <path fill="#00d8fe" d="M12.4219 8.67969C12.4219 8.99219 12.168 9.24609 11.8555 9.24609C11.543 9.24609 11.2891 8.99219 11.2891 8.67969C11.2891 8.36719 11.543 8.11328 11.8555 8.11328C12.168 8.11719 12.4219 8.36719 12.4219 8.67969Z"/>
    <path fill="#008da6" d="M9.02734 8.67969C9.02734 8.99219 8.77344 9.24609 8.46094 9.24609C8.14844 9.24609 7.89453 8.99219 7.89453 8.67969C7.89453 8.36719 8.14844 8.11328 8.46094 8.11328C8.77344 8.11719 9.02734 8.36719 9.02734 8.67969Z"/>
    <path fill="#00d8fe" d="M9.02734 7.13672C9.02734 7.44922 8.77344 7.70312 8.46094 7.70312C8.14844 7.70312 7.89453 7.44922 7.89453 7.13672C7.89453 6.82422 8.14844 6.57031 8.46094 6.57031C8.77344 6.57031 9.02734 6.82422 9.02734 7.13672ZM9.02734 5.58203C9.02734 5.89453 8.77344 6.14844 8.46094 6.14844C8.14844 6.14844 7.89453 5.89453 7.89453 5.58203C7.89453 5.26953 8.14844 5.01562 8.46094 5.01562C8.77344 5.01562 9.02734 5.26953 9.02734 5.58203Z"/>
    <path fill="#005766" d="M10.7227 5.58203C10.7227 5.89453 10.4688 6.14844 10.1562 6.14844C9.84375 6.14844 9.58984 5.89453 9.58984 5.58203C9.58984 5.26953 9.84375 5.01562 10.1562 5.01562C10.4688 5.01562 10.7227 5.26953 10.7227 5.58203Z"/>
    <path fill="#00c3e6" d="M10.7227 7.13672C10.7227 7.44922 10.4688 7.70312 10.1562 7.70312C9.84375 7.70312 9.58984 7.44922 9.58984 7.13672C9.58984 6.82422 9.84375 6.57031 10.1562 6.57031C10.4688 6.57031 10.7227 6.82422 10.7227 7.13672Z"/>
    <path fill="#008da6" d="M10.7227 8.67969C10.7227 8.99219 10.4688 9.24609 10.1562 9.24609C9.84375 9.24609 9.58984 8.99219 9.58984 8.67969C9.58984 8.36719 9.84375 8.11328 10.1562 8.11328C10.4688 8.11328 10.7227 8.36719 10.7227 8.67969Z"/>
    <path fill="#00d8fe" d="M10.7227 10.25C10.7227 10.5625 10.4688 10.8164 10.1562 10.8164C9.84375 10.8164 9.58984 10.5625 9.58984 10.25C9.58984 9.9375 9.84375 9.68359 10.1562 9.68359C10.4688 9.68359 10.7227 9.9375 10.7227 10.25Z"/>
</svg>
