<svg xmlns="http://www.w3.org/2000/svg" width="20" height="20" fill="none" viewBox="0 0 20 20">
    <path fill="#fff" d="M0 .566h20L10 19.434z"/>
    <path fill="#00adcc" d="M12.422 5.582a.567.567 0 1 1-1.134 0 .567.567 0 0 1 1.134 0"/>
    <path fill="#005766" d="M12.422 7.137a.567.567 0 1 1-1.134-.001.567.567 0 0 1 1.134 0"/>
    <path fill="#00d8fe" d="M12.422 8.68a.567.567 0 1 1-1.134-.001.567.567 0 0 1 1.134 0"/>
    <path fill="#008da6" d="M9.027 8.68a.567.567 0 1 1-1.133-.001.567.567 0 0 1 1.133 0"/>
    <path fill="#00d8fe" d="M9.027 7.137a.567.567 0 1 1-1.133-.001.567.567 0 0 1 1.133 0m0-1.555a.567.567 0 1 1-1.133 0 .567.567 0 0 1 1.133 0"/>
    <path fill="#005766" d="M10.723 5.582a.567.567 0 1 1-1.134 0 .567.567 0 0 1 1.134 0"/>
    <path fill="#00c3e6" d="M10.723 7.137a.567.567 0 1 1-1.134-.001.567.567 0 0 1 1.134 0"/>
    <path fill="#008da6" d="M10.723 8.68a.567.567 0 1 1-1.134-.001.567.567 0 0 1 1.134 0"/>
    <path fill="#00d8fe" d="M10.723 10.25a.567.567 0 1 1-1.134 0 .567.567 0 0 1 1.134 0"/>
</svg>
