<?xml version="1.0" encoding="UTF-8" standalone="no"?>
<!DOCTYPE svg PUBLIC "-//W3C//DTD SVG 1.1//EN"
 "http://www.w3.org/Graphics/SVG/1.1/DTD/svg11.dtd">
<!-- Generated by graphviz version 2.48.0 (20210717.1556)
 -->
<!-- Title: G Pages: 1 -->
<svg width="1387pt" height="1877pt"
 viewBox="0.00 0.00 1387.20 1877.20" xmlns="http://www.w3.org/2000/svg" xmlns:xlink="http://www.w3.org/1999/xlink">
<g id="graph0" class="graph" transform="scale(1 1) rotate(0) translate(21.6 1855.6)">
<title>G</title>
<polygon fill="#111111" stroke="transparent" points="-21.6,21.6 -21.6,-1855.6 1365.6,-1855.6 1365.6,21.6 -21.6,21.6"/>
<!-- ../mocks/list.js -->
<g id="node1" class="node">
<title>../mocks/list.js</title>
<path fill="none" stroke="#cfffac" d="M153.33,-428C153.33,-428 64.67,-428 64.67,-428 60.83,-428 57,-424.17 57,-420.33 57,-420.33 57,-412.67 57,-412.67 57,-408.83 60.83,-405 64.67,-405 64.67,-405 153.33,-405 153.33,-405 157.17,-405 161,-408.83 161,-412.67 161,-412.67 161,-420.33 161,-420.33 161,-424.17 157.17,-428 153.33,-428"/>
<text text-anchor="middle" x="109" y="-412.8" font-family="Arial" font-size="14.00" fill="#cfffac">../mocks/list.js</text>
</g>
<!-- Checkbox/index.js -->
<g id="node2" class="node">
<title>Checkbox/index.js</title>
<path fill="none" stroke="#c6c5fe" d="M629.83,-630C629.83,-630 515.17,-630 515.17,-630 511.33,-630 507.5,-626.17 507.5,-622.33 507.5,-622.33 507.5,-614.67 507.5,-614.67 507.5,-610.83 511.33,-607 515.17,-607 515.17,-607 629.83,-607 629.83,-607 633.67,-607 637.5,-610.83 637.5,-614.67 637.5,-614.67 637.5,-622.33 637.5,-622.33 637.5,-626.17 633.67,-630 629.83,-630"/>
<text text-anchor="middle" x="572.5" y="-614.8" font-family="Arial" font-size="14.00" fill="#c6c5fe">Checkbox/index.js</text>
</g>
<!-- Expandable/index.js -->
<g id="node3" class="node">
<title>Expandable/index.js</title>
<path fill="none" stroke="#cfffac" d="M847.33,-727C847.33,-727 720.67,-727 720.67,-727 716.83,-727 713,-723.17 713,-719.33 713,-719.33 713,-711.67 713,-711.67 713,-707.83 716.83,-704 720.67,-704 720.67,-704 847.33,-704 847.33,-704 851.17,-704 855,-707.83 855,-711.67 855,-711.67 855,-719.33 855,-719.33 855,-723.17 851.17,-727 847.33,-727"/>
<text text-anchor="middle" x="784" y="-711.8" font-family="Arial" font-size="14.00" fill="#cfffac">Expandable/index.js</text>
</g>
<!-- Checkbox/index.js&#45;&gt;Expandable/index.js -->
<g id="edge1" class="edge">
<title>Checkbox/index.js&#45;&gt;Expandable/index.js</title>
<path fill="none" stroke="#757575" d="M598.36,-630.01C635.66,-647.28 706.25,-679.97 748.52,-699.54"/>
<polygon fill="#757575" stroke="#757575" points="747.31,-702.83 757.85,-703.86 750.25,-696.48 747.31,-702.83"/>
</g>
<!-- Container/index.js -->
<g id="node4" class="node">
<title>Container/index.js</title>
<path fill="none" stroke="#c6c5fe" d="M399.83,-871C399.83,-871 286.17,-871 286.17,-871 282.33,-871 278.5,-867.17 278.5,-863.33 278.5,-863.33 278.5,-855.67 278.5,-855.67 278.5,-851.83 282.33,-848 286.17,-848 286.17,-848 399.83,-848 399.83,-848 403.67,-848 407.5,-851.83 407.5,-855.67 407.5,-855.67 407.5,-863.33 407.5,-863.33 407.5,-867.17 403.67,-871 399.83,-871"/>
<text text-anchor="middle" x="343" y="-855.8" font-family="Arial" font-size="14.00" fill="#c6c5fe">Container/index.js</text>
</g>
<!-- FlexBox/index.js -->
<g id="node5" class="node">
<title>FlexBox/index.js</title>
<path fill="none" stroke="#cfffac" d="M623.83,-871C623.83,-871 521.17,-871 521.17,-871 517.33,-871 513.5,-867.17 513.5,-863.33 513.5,-863.33 513.5,-855.67 513.5,-855.67 513.5,-851.83 517.33,-848 521.17,-848 521.17,-848 623.83,-848 623.83,-848 627.67,-848 631.5,-851.83 631.5,-855.67 631.5,-855.67 631.5,-863.33 631.5,-863.33 631.5,-867.17 627.67,-871 623.83,-871"/>
<text text-anchor="middle" x="572.5" y="-855.8" font-family="Arial" font-size="14.00" fill="#cfffac">FlexBox/index.js</text>
</g>
<!-- Container/index.js&#45;&gt;FlexBox/index.js -->
<g id="edge2" class="edge">
<title>Container/index.js&#45;&gt;FlexBox/index.js</title>
<path fill="none" stroke="#757575" d="M407.67,-859.5C437.44,-859.5 472.91,-859.5 503.23,-859.5"/>
<polygon fill="#757575" stroke="#757575" points="503.29,-863 513.29,-859.5 503.29,-856 503.29,-863"/>
</g>
<!-- Counter/index.js -->
<g id="node6" class="node">
<title>Counter/index.js</title>
<path fill="none" stroke="#cfffac" d="M160.33,-511C160.33,-511 57.67,-511 57.67,-511 53.83,-511 50,-507.17 50,-503.33 50,-503.33 50,-495.67 50,-495.67 50,-491.83 53.83,-488 57.67,-488 57.67,-488 160.33,-488 160.33,-488 164.17,-488 168,-491.83 168,-495.67 168,-495.67 168,-503.33 168,-503.33 168,-507.17 164.17,-511 160.33,-511"/>
<text text-anchor="middle" x="109" y="-495.8" font-family="Arial" font-size="14.00" fill="#cfffac">Counter/index.js</text>
</g>
<!-- CreationProgress/index.js -->
<g id="node7" class="node">
<title>CreationProgress/index.js</title>
<path fill="none" stroke="#cfffac" d="M189.83,-681C189.83,-681 28.17,-681 28.17,-681 24.33,-681 20.5,-677.17 20.5,-673.33 20.5,-673.33 20.5,-665.67 20.5,-665.67 20.5,-661.83 24.33,-658 28.17,-658 28.17,-658 189.83,-658 189.83,-658 193.67,-658 197.5,-661.83 197.5,-665.67 197.5,-665.67 197.5,-673.33 197.5,-673.33 197.5,-677.17 193.67,-681 189.83,-681"/>
<text text-anchor="middle" x="109" y="-665.8" font-family="Arial" font-size="14.00" fill="#cfffac">CreationProgress/index.js</text>
</g>
<!-- DateInput/index.js -->
<g id="node8" class="node">
<title>DateInput/index.js</title>
<path fill="none" stroke="#c6c5fe" d="M399.83,-912C399.83,-912 286.17,-912 286.17,-912 282.33,-912 278.5,-908.17 278.5,-904.33 278.5,-904.33 278.5,-896.67 278.5,-896.67 278.5,-892.83 282.33,-889 286.17,-889 286.17,-889 399.83,-889 399.83,-889 403.67,-889 407.5,-892.83 407.5,-896.67 407.5,-896.67 407.5,-904.33 407.5,-904.33 407.5,-908.17 403.67,-912 399.83,-912"/>
<text text-anchor="middle" x="343" y="-896.8" font-family="Arial" font-size="14.00" fill="#c6c5fe">DateInput/index.js</text>
</g>
<!-- Separator/index.js -->
<g id="node9" class="node">
<title>Separator/index.js</title>
<path fill="none" stroke="#cfffac" d="M840.83,-809C840.83,-809 727.17,-809 727.17,-809 723.33,-809 719.5,-805.17 719.5,-801.33 719.5,-801.33 719.5,-793.67 719.5,-793.67 719.5,-789.83 723.33,-786 727.17,-786 727.17,-786 840.83,-786 840.83,-786 844.67,-786 848.5,-789.83 848.5,-793.67 848.5,-793.67 848.5,-801.33 848.5,-801.33 848.5,-805.17 844.67,-809 840.83,-809"/>
<text text-anchor="middle" x="784" y="-793.8" font-family="Arial" font-size="14.00" fill="#cfffac">Separator/index.js</text>
</g>
<!-- DateInput/index.js&#45;&gt;Separator/index.js -->
<g id="edge3" class="edge">
<title>DateInput/index.js&#45;&gt;Separator/index.js</title>
<path fill="none" stroke="#757575" d="M407.67,-907.3C476.45,-912.22 588.11,-913.03 677,-879.5 712.75,-866.02 746.25,-836.09 765.67,-816.37"/>
<polygon fill="#757575" stroke="#757575" points="768.24,-818.75 772.64,-809.11 763.19,-813.9 768.24,-818.75"/>
</g>
<!-- TextBox/index.js -->
<g id="node10" class="node">
<title>TextBox/index.js</title>
<path fill="none" stroke="#c6c5fe" d="M623.83,-789C623.83,-789 521.17,-789 521.17,-789 517.33,-789 513.5,-785.17 513.5,-781.33 513.5,-781.33 513.5,-773.67 513.5,-773.67 513.5,-769.83 517.33,-766 521.17,-766 521.17,-766 623.83,-766 623.83,-766 627.67,-766 631.5,-769.83 631.5,-773.67 631.5,-773.67 631.5,-781.33 631.5,-781.33 631.5,-785.17 627.67,-789 623.83,-789"/>
<text text-anchor="middle" x="572.5" y="-773.8" font-family="Arial" font-size="14.00" fill="#c6c5fe">TextBox/index.js</text>
</g>
<!-- DateInput/index.js&#45;&gt;TextBox/index.js -->
<g id="edge4" class="edge">
<title>DateInput/index.js&#45;&gt;TextBox/index.js</title>
<path fill="none" stroke="#757575" d="M407.95,-892.72C416.67,-889.61 425.01,-885.34 432,-879.5 462.55,-853.99 436.9,-822.34 468,-797.5 478.2,-789.35 490.75,-784.19 503.55,-780.99"/>
<polygon fill="#757575" stroke="#757575" points="504.29,-784.41 513.35,-778.9 502.84,-777.56 504.29,-784.41"/>
</g>
<!-- Touchable/index.js -->
<g id="node11" class="node">
<title>Touchable/index.js</title>
<path fill="none" stroke="#cfffac" d="M842.33,-989C842.33,-989 725.67,-989 725.67,-989 721.83,-989 718,-985.17 718,-981.33 718,-981.33 718,-973.67 718,-973.67 718,-969.83 721.83,-966 725.67,-966 725.67,-966 842.33,-966 842.33,-966 846.17,-966 850,-969.83 850,-973.67 850,-973.67 850,-981.33 850,-981.33 850,-985.17 846.17,-989 842.33,-989"/>
<text text-anchor="middle" x="784" y="-973.8" font-family="Arial" font-size="14.00" fill="#cfffac">Touchable/index.js</text>
</g>
<!-- DateInput/index.js&#45;&gt;Touchable/index.js -->
<g id="edge5" class="edge">
<title>DateInput/index.js&#45;&gt;Touchable/index.js</title>
<path fill="none" stroke="#757575" d="M407.62,-910.64C474.71,-921.46 583.44,-939.37 677,-956.5 689.79,-958.84 703.43,-961.46 716.52,-964.02"/>
<polygon fill="#757575" stroke="#757575" points="715.91,-967.47 726.4,-965.97 717.26,-960.6 715.91,-967.47"/>
</g>
<!-- TextBox/index.js&#45;&gt;Expandable/index.js -->
<g id="edge72" class="edge">
<title>TextBox/index.js&#45;&gt;Expandable/index.js</title>
<path fill="none" stroke="#757575" d="M631.66,-769.17C646.71,-766.08 662.69,-761.95 677,-756.5 694.31,-749.9 695.96,-742.77 713,-735.5 717.42,-733.62 722.07,-731.85 726.78,-730.21"/>
<polygon fill="#757575" stroke="#757575" points="728.08,-733.46 736.49,-727.02 725.9,-726.81 728.08,-733.46"/>
</g>
<!-- TextBox/index.js&#45;&gt;Separator/index.js -->
<g id="edge74" class="edge">
<title>TextBox/index.js&#45;&gt;Separator/index.js</title>
<path fill="none" stroke="#757575" d="M631.58,-783.04C655.63,-785.34 683.81,-788.03 709.3,-790.46"/>
<polygon fill="#757575" stroke="#757575" points="709,-793.95 719.29,-791.42 709.67,-786.98 709,-793.95"/>
</g>
<!-- TextBox/index.js&#45;&gt;Touchable/index.js -->
<g id="edge75" class="edge">
<title>TextBox/index.js&#45;&gt;Touchable/index.js</title>
<path fill="none" stroke="#757575" d="M631.72,-780.03C647.5,-782.95 663.84,-788.21 677,-797.5 733.6,-837.46 764.75,-918.02 776.92,-956.33"/>
<polygon fill="#757575" stroke="#757575" points="773.59,-957.4 779.85,-965.95 780.28,-955.36 773.59,-957.4"/>
</g>
<!-- Notice/index.js -->
<g id="node41" class="node">
<title>Notice/index.js</title>
<path fill="none" stroke="#c6c5fe" d="M830.33,-768C830.33,-768 737.67,-768 737.67,-768 733.83,-768 730,-764.17 730,-760.33 730,-760.33 730,-752.67 730,-752.67 730,-748.83 733.83,-745 737.67,-745 737.67,-745 830.33,-745 830.33,-745 834.17,-745 838,-748.83 838,-752.67 838,-752.67 838,-760.33 838,-760.33 838,-764.17 834.17,-768 830.33,-768"/>
<text text-anchor="middle" x="784" y="-752.8" font-family="Arial" font-size="14.00" fill="#c6c5fe">Notice/index.js</text>
</g>
<!-- TextBox/index.js&#45;&gt;Notice/index.js -->
<g id="edge73" class="edge">
<title>TextBox/index.js&#45;&gt;Notice/index.js</title>
<path fill="none" stroke="#757575" d="M631.58,-771.68C658.97,-768.93 691.72,-765.65 719.74,-762.84"/>
<polygon fill="#757575" stroke="#757575" points="720.23,-766.31 729.83,-761.83 719.53,-759.34 720.23,-766.31"/>
</g>
<!-- Description/index.js -->
<g id="node12" class="node">
<title>Description/index.js</title>
<path fill="none" stroke="#cfffac" d="M170.33,-786C170.33,-786 47.67,-786 47.67,-786 43.83,-786 40,-782.17 40,-778.33 40,-778.33 40,-770.67 40,-770.67 40,-766.83 43.83,-763 47.67,-763 47.67,-763 170.33,-763 170.33,-763 174.17,-763 178,-766.83 178,-770.67 178,-770.67 178,-778.33 178,-778.33 178,-782.17 174.17,-786 170.33,-786"/>
<text text-anchor="middle" x="109" y="-770.8" font-family="Arial" font-size="14.00" fill="#cfffac">Description/index.js</text>
</g>
<!-- Dot/index.js -->
<g id="node13" class="node">
<title>Dot/index.js</title>
<path fill="none" stroke="#cfffac" d="M609.83,-830C609.83,-830 535.17,-830 535.17,-830 531.33,-830 527.5,-826.17 527.5,-822.33 527.5,-822.33 527.5,-814.67 527.5,-814.67 527.5,-810.83 531.33,-807 535.17,-807 535.17,-807 609.83,-807 609.83,-807 613.67,-807 617.5,-810.83 617.5,-814.67 617.5,-814.67 617.5,-822.33 617.5,-822.33 617.5,-826.17 613.67,-830 609.83,-830"/>
<text text-anchor="middle" x="572.5" y="-814.8" font-family="Arial" font-size="14.00" fill="#cfffac">Dot/index.js</text>
</g>
<!-- DotSteps/index.js -->
<g id="node14" class="node">
<title>DotSteps/index.js</title>
<path fill="none" stroke="#c6c5fe" d="M397.83,-830C397.83,-830 288.17,-830 288.17,-830 284.33,-830 280.5,-826.17 280.5,-822.33 280.5,-822.33 280.5,-814.67 280.5,-814.67 280.5,-810.83 284.33,-807 288.17,-807 288.17,-807 397.83,-807 397.83,-807 401.67,-807 405.5,-810.83 405.5,-814.67 405.5,-814.67 405.5,-822.33 405.5,-822.33 405.5,-826.17 401.67,-830 397.83,-830"/>
<text text-anchor="middle" x="343" y="-814.8" font-family="Arial" font-size="14.00" fill="#c6c5fe">DotSteps/index.js</text>
</g>
<!-- DotSteps/index.js&#45;&gt;FlexBox/index.js -->
<g id="edge7" class="edge">
<title>DotSteps/index.js&#45;&gt;FlexBox/index.js</title>
<path fill="none" stroke="#757575" d="M405.56,-829.6C435.84,-835.05 472.42,-841.64 503.52,-847.25"/>
<polygon fill="#757575" stroke="#757575" points="502.95,-850.7 513.41,-849.03 504.19,-843.81 502.95,-850.7"/>
</g>
<!-- DotSteps/index.js&#45;&gt;Dot/index.js -->
<g id="edge6" class="edge">
<title>DotSteps/index.js&#45;&gt;Dot/index.js</title>
<path fill="none" stroke="#757575" d="M405.56,-818.5C440.39,-818.5 483.54,-818.5 517.11,-818.5"/>
<polygon fill="#757575" stroke="#757575" points="517.2,-822 527.2,-818.5 517.2,-815 517.2,-822"/>
</g>
<!-- ExtendedReminder/index.js -->
<g id="node15" class="node">
<title>ExtendedReminder/index.js</title>
<path fill="none" stroke="#cfffac" d="M195.33,-859C195.33,-859 22.67,-859 22.67,-859 18.83,-859 15,-855.17 15,-851.33 15,-851.33 15,-843.67 15,-843.67 15,-839.83 18.83,-836 22.67,-836 22.67,-836 195.33,-836 195.33,-836 199.17,-836 203,-839.83 203,-843.67 203,-843.67 203,-851.33 203,-851.33 203,-855.17 199.17,-859 195.33,-859"/>
<text text-anchor="middle" x="109" y="-843.8" font-family="Arial" font-size="14.00" fill="#cfffac">ExtendedReminder/index.js</text>
</g>
<!-- GlobalStyle/index.js -->
<g id="node16" class="node">
<title>GlobalStyle/index.js</title>
<path fill="none" stroke="#cfffac" d="M170.83,-916C170.83,-916 47.17,-916 47.17,-916 43.33,-916 39.5,-912.17 39.5,-908.33 39.5,-908.33 39.5,-900.67 39.5,-900.67 39.5,-896.83 43.33,-893 47.17,-893 47.17,-893 170.83,-893 170.83,-893 174.67,-893 178.5,-896.83 178.5,-900.67 178.5,-900.67 178.5,-908.33 178.5,-908.33 178.5,-912.17 174.67,-916 170.83,-916"/>
<text text-anchor="middle" x="109" y="-900.8" font-family="Arial" font-size="14.00" fill="#cfffac">GlobalStyle/index.js</text>
</g>
<!-- Grid/Col.js -->
<g id="node17" class="node">
<title>Grid/Col.js</title>
<path fill="none" stroke="#cfffac" d="M991.83,-143C991.83,-143 925.17,-143 925.17,-143 921.33,-143 917.5,-139.17 917.5,-135.33 917.5,-135.33 917.5,-127.67 917.5,-127.67 917.5,-123.83 921.33,-120 925.17,-120 925.17,-120 991.83,-120 991.83,-120 995.67,-120 999.5,-123.83 999.5,-127.67 999.5,-127.67 999.5,-135.33 999.5,-135.33 999.5,-139.17 995.67,-143 991.83,-143"/>
<text text-anchor="middle" x="958.5" y="-127.8" font-family="Arial" font-size="14.00" fill="#cfffac">Grid/Col.js</text>
</g>
<!-- Grid/Grid.js -->
<g id="node18" class="node">
<title>Grid/Grid.js</title>
<path fill="none" stroke="#cfffac" d="M994.33,-225C994.33,-225 922.67,-225 922.67,-225 918.83,-225 915,-221.17 915,-217.33 915,-217.33 915,-209.67 915,-209.67 915,-205.83 918.83,-202 922.67,-202 922.67,-202 994.33,-202 994.33,-202 998.17,-202 1002,-205.83 1002,-209.67 1002,-209.67 1002,-217.33 1002,-217.33 1002,-221.17 998.17,-225 994.33,-225"/>
<text text-anchor="middle" x="958.5" y="-209.8" font-family="Arial" font-size="14.00" fill="#cfffac">Grid/Grid.js</text>
</g>
<!-- Grid/Row.js -->
<g id="node19" class="node">
<title>Grid/Row.js</title>
<path fill="none" stroke="#cfffac" d="M994.83,-266C994.83,-266 922.17,-266 922.17,-266 918.33,-266 914.5,-262.17 914.5,-258.33 914.5,-258.33 914.5,-250.67 914.5,-250.67 914.5,-246.83 918.33,-243 922.17,-243 922.17,-243 994.83,-243 994.83,-243 998.67,-243 1002.5,-246.83 1002.5,-250.67 1002.5,-250.67 1002.5,-258.33 1002.5,-258.33 1002.5,-262.17 998.67,-266 994.83,-266"/>
<text text-anchor="middle" x="958.5" y="-250.8" font-family="Arial" font-size="14.00" fill="#cfffac">Grid/Row.js</text>
</g>
<!-- Grid/index.js -->
<g id="node20" class="node">
<title>Grid/index.js</title>
<path fill="none" stroke="#c6c5fe" d="M823.33,-226C823.33,-226 744.67,-226 744.67,-226 740.83,-226 737,-222.17 737,-218.33 737,-218.33 737,-210.67 737,-210.67 737,-206.83 740.83,-203 744.67,-203 744.67,-203 823.33,-203 823.33,-203 827.17,-203 831,-206.83 831,-210.67 831,-210.67 831,-218.33 831,-218.33 831,-222.17 827.17,-226 823.33,-226"/>
<text text-anchor="middle" x="784" y="-210.8" font-family="Arial" font-size="14.00" fill="#c6c5fe">Grid/index.js</text>
</g>
<!-- Grid/index.js&#45;&gt;Grid/Col.js -->
<g id="edge8" class="edge">
<title>Grid/index.js&#45;&gt;Grid/Col.js</title>
<path fill="none" stroke="#757575" d="M801.57,-202.91C821.87,-189.12 857.68,-166.15 891,-151.5 896.3,-149.17 901.96,-147.01 907.65,-145.04"/>
<polygon fill="#757575" stroke="#757575" points="908.78,-148.35 917.19,-141.9 906.6,-141.7 908.78,-148.35"/>
</g>
<!-- Grid/index.js&#45;&gt;Grid/Grid.js -->
<g id="edge9" class="edge">
<title>Grid/index.js&#45;&gt;Grid/Grid.js</title>
<path fill="none" stroke="#757575" d="M831.23,-214.23C853.92,-214.1 881.35,-213.94 904.85,-213.81"/>
<polygon fill="#757575" stroke="#757575" points="905.01,-217.3 914.99,-213.75 904.97,-210.3 905.01,-217.3"/>
</g>
<!-- Grid/index.js&#45;&gt;Grid/Row.js -->
<g id="edge10" class="edge">
<title>Grid/index.js&#45;&gt;Grid/Row.js</title>
<path fill="none" stroke="#757575" d="M831.23,-225.22C853.84,-230.46 881.18,-236.8 904.62,-242.24"/>
<polygon fill="#757575" stroke="#757575" points="903.88,-245.66 914.41,-244.51 905.46,-238.84 903.88,-245.66"/>
</g>
<!-- Image/index.js -->
<g id="node21" class="node">
<title>Image/index.js</title>
<path fill="none" stroke="#cfffac" d="M154.83,-965C154.83,-965 63.17,-965 63.17,-965 59.33,-965 55.5,-961.17 55.5,-957.33 55.5,-957.33 55.5,-949.67 55.5,-949.67 55.5,-945.83 59.33,-942 63.17,-942 63.17,-942 154.83,-942 154.83,-942 158.67,-942 162.5,-945.83 162.5,-949.67 162.5,-949.67 162.5,-957.33 162.5,-957.33 162.5,-961.17 158.67,-965 154.83,-965"/>
<text text-anchor="middle" x="109" y="-949.8" font-family="Arial" font-size="14.00" fill="#cfffac">Image/index.js</text>
</g>
<!-- Label/index.js -->
<g id="node22" class="node">
<title>Label/index.js</title>
<path fill="none" stroke="#cfffac" d="M152.33,-1010C152.33,-1010 65.67,-1010 65.67,-1010 61.83,-1010 58,-1006.17 58,-1002.33 58,-1002.33 58,-994.67 58,-994.67 58,-990.83 61.83,-987 65.67,-987 65.67,-987 152.33,-987 152.33,-987 156.17,-987 160,-990.83 160,-994.67 160,-994.67 160,-1002.33 160,-1002.33 160,-1006.17 156.17,-1010 152.33,-1010"/>
<text text-anchor="middle" x="109" y="-994.8" font-family="Arial" font-size="14.00" fill="#cfffac">Label/index.js</text>
</g>
<!-- Link/index.js -->
<g id="node23" class="node">
<title>Link/index.js</title>
<path fill="none" stroke="#c6c5fe" d="M1148.33,-163C1148.33,-163 1069.67,-163 1069.67,-163 1065.83,-163 1062,-159.17 1062,-155.33 1062,-155.33 1062,-147.67 1062,-147.67 1062,-143.83 1065.83,-140 1069.67,-140 1069.67,-140 1148.33,-140 1148.33,-140 1152.17,-140 1156,-143.83 1156,-147.67 1156,-147.67 1156,-155.33 1156,-155.33 1156,-159.17 1152.17,-163 1148.33,-163"/>
<text text-anchor="middle" x="1109" y="-147.8" font-family="Arial" font-size="14.00" fill="#c6c5fe">Link/index.js</text>
</g>
<!-- UniversalLink/index.js -->
<g id="node24" class="node">
<title>UniversalLink/index.js</title>
<path fill="none" stroke="#cfffac" d="M1336.33,-123C1336.33,-123 1199.67,-123 1199.67,-123 1195.83,-123 1192,-119.17 1192,-115.33 1192,-115.33 1192,-107.67 1192,-107.67 1192,-103.83 1195.83,-100 1199.67,-100 1199.67,-100 1336.33,-100 1336.33,-100 1340.17,-100 1344,-103.83 1344,-107.67 1344,-107.67 1344,-115.33 1344,-115.33 1344,-119.17 1340.17,-123 1336.33,-123"/>
<text text-anchor="middle" x="1268" y="-107.8" font-family="Arial" font-size="14.00" fill="#cfffac">UniversalLink/index.js</text>
</g>
<!-- Link/index.js&#45;&gt;UniversalLink/index.js -->
<g id="edge11" class="edge">
<title>Link/index.js&#45;&gt;UniversalLink/index.js</title>
<path fill="none" stroke="#757575" d="M1155.41,-139.93C1173.07,-135.43 1193.46,-130.24 1211.94,-125.53"/>
<polygon fill="#757575" stroke="#757575" points="1212.86,-128.9 1221.69,-123.04 1211.14,-122.12 1212.86,-128.9"/>
</g>
<!-- List/Cell.js -->
<g id="node25" class="node">
<title>List/Cell.js</title>
<path fill="none" stroke="#c6c5fe" d="M604.83,-509C604.83,-509 540.17,-509 540.17,-509 536.33,-509 532.5,-505.17 532.5,-501.33 532.5,-501.33 532.5,-493.67 532.5,-493.67 532.5,-489.83 536.33,-486 540.17,-486 540.17,-486 604.83,-486 604.83,-486 608.67,-486 612.5,-489.83 612.5,-493.67 612.5,-493.67 612.5,-501.33 612.5,-501.33 612.5,-505.17 608.67,-509 604.83,-509"/>
<text text-anchor="middle" x="572.5" y="-493.8" font-family="Arial" font-size="14.00" fill="#c6c5fe">List/Cell.js</text>
</g>
<!-- List/context.js -->
<g id="node26" class="node">
<title>List/context.js</title>
<path fill="none" stroke="#cfffac" d="M826.83,-529C826.83,-529 741.17,-529 741.17,-529 737.33,-529 733.5,-525.17 733.5,-521.33 733.5,-521.33 733.5,-513.67 733.5,-513.67 733.5,-509.83 737.33,-506 741.17,-506 741.17,-506 826.83,-506 826.83,-506 830.67,-506 834.5,-509.83 834.5,-513.67 834.5,-513.67 834.5,-521.33 834.5,-521.33 834.5,-525.17 830.67,-529 826.83,-529"/>
<text text-anchor="middle" x="784" y="-513.8" font-family="Arial" font-size="14.00" fill="#cfffac">List/context.js</text>
</g>
<!-- List/Cell.js&#45;&gt;List/context.js -->
<g id="edge12" class="edge">
<title>List/Cell.js&#45;&gt;List/context.js</title>
<path fill="none" stroke="#757575" d="M612.91,-501.26C643.97,-504.23 687.81,-508.41 723.2,-511.79"/>
<polygon fill="#757575" stroke="#757575" points="723.13,-515.3 733.42,-512.77 723.8,-508.33 723.13,-515.3"/>
</g>
<!-- List/SelectBar.js -->
<g id="node27" class="node">
<title>List/SelectBar.js</title>
<path fill="none" stroke="#c6c5fe" d="M393.33,-632C393.33,-632 292.67,-632 292.67,-632 288.83,-632 285,-628.17 285,-624.33 285,-624.33 285,-616.67 285,-616.67 285,-612.83 288.83,-609 292.67,-609 292.67,-609 393.33,-609 393.33,-609 397.17,-609 401,-612.83 401,-616.67 401,-616.67 401,-624.33 401,-624.33 401,-628.17 397.17,-632 393.33,-632"/>
<text text-anchor="middle" x="343" y="-616.8" font-family="Arial" font-size="14.00" fill="#c6c5fe">List/SelectBar.js</text>
</g>
<!-- List/SelectBar.js&#45;&gt;Checkbox/index.js -->
<g id="edge13" class="edge">
<title>List/SelectBar.js&#45;&gt;Checkbox/index.js</title>
<path fill="none" stroke="#757575" d="M401.11,-620C430.09,-619.74 465.64,-619.43 496.76,-619.16"/>
<polygon fill="#757575" stroke="#757575" points="497.16,-622.65 507.13,-619.07 497.1,-615.65 497.16,-622.65"/>
</g>
<!-- List/SelectBar.js&#45;&gt;List/context.js -->
<g id="edge14" class="edge">
<title>List/SelectBar.js&#45;&gt;List/context.js</title>
<path fill="none" stroke="#757575" d="M366.13,-632.11C421.84,-659.6 570.97,-722.4 677,-667.5 729.61,-640.26 761.68,-573.56 775.32,-539.02"/>
<polygon fill="#757575" stroke="#757575" points="778.69,-540 778.97,-529.41 772.15,-537.52 778.69,-540"/>
</g>
<!-- List/SortIcon.js -->
<g id="node28" class="node">
<title>List/SortIcon.js</title>
<path fill="none" stroke="#cfffac" d="M618.83,-589C618.83,-589 526.17,-589 526.17,-589 522.33,-589 518.5,-585.17 518.5,-581.33 518.5,-581.33 518.5,-573.67 518.5,-573.67 518.5,-569.83 522.33,-566 526.17,-566 526.17,-566 618.83,-566 618.83,-566 622.67,-566 626.5,-569.83 626.5,-573.67 626.5,-573.67 626.5,-581.33 626.5,-581.33 626.5,-585.17 622.67,-589 618.83,-589"/>
<text text-anchor="middle" x="572.5" y="-573.8" font-family="Arial" font-size="14.00" fill="#cfffac">List/SortIcon.js</text>
</g>
<!-- List/index.js -->
<g id="node29" class="node">
<title>List/index.js</title>
<path fill="none" stroke="#c6c5fe" d="M146.33,-469C146.33,-469 71.67,-469 71.67,-469 67.83,-469 64,-465.17 64,-461.33 64,-461.33 64,-453.67 64,-453.67 64,-449.83 67.83,-446 71.67,-446 71.67,-446 146.33,-446 146.33,-446 150.17,-446 154,-449.83 154,-453.67 154,-453.67 154,-461.33 154,-461.33 154,-465.17 150.17,-469 146.33,-469"/>
<text text-anchor="middle" x="109" y="-453.8" font-family="Arial" font-size="14.00" fill="#c6c5fe">List/index.js</text>
</g>
<!-- List/index.js&#45;&gt;List/Cell.js -->
<g id="edge15" class="edge">
<title>List/index.js&#45;&gt;List/Cell.js</title>
<path fill="none" stroke="#757575" d="M154.11,-458.84C216.24,-461.01 333,-466.15 432,-476.5 462,-479.64 495.42,-484.62 522.02,-488.94"/>
<polygon fill="#757575" stroke="#757575" points="521.8,-492.45 532.24,-490.62 522.94,-485.54 521.8,-492.45"/>
</g>
<!-- List/index.js&#45;&gt;List/context.js -->
<g id="edge17" class="edge">
<title>List/index.js&#45;&gt;List/context.js</title>
<path fill="none" stroke="#757575" d="M154.05,-457.97C175.32,-456.1 200.04,-450.59 218,-436.5 248.04,-412.93 221.98,-379.3 254,-358.5 332.82,-307.28 594.31,-310.79 677,-355.5 732.7,-385.62 763.83,-459.15 776.38,-495.88"/>
<polygon fill="#757575" stroke="#757575" points="773.13,-497.19 779.56,-505.6 779.78,-495.01 773.13,-497.19"/>
</g>
<!-- List/index.js&#45;&gt;List/SelectBar.js -->
<g id="edge16" class="edge">
<title>List/index.js&#45;&gt;List/SelectBar.js</title>
<path fill="none" stroke="#757575" d="M154.14,-455.9C175.82,-457.43 200.88,-462.97 218,-478.5 259.55,-516.2 213.25,-560.93 254,-599.5 260,-605.18 267.25,-609.41 274.99,-612.55"/>
<polygon fill="#757575" stroke="#757575" points="274.01,-615.92 284.61,-615.86 276.29,-609.3 274.01,-615.92"/>
</g>
<!-- List/variantExplorer.js -->
<g id="node30" class="node">
<title>List/variantExplorer.js</title>
<path fill="none" stroke="#c6c5fe" d="M410.33,-509C410.33,-509 275.67,-509 275.67,-509 271.83,-509 268,-505.17 268,-501.33 268,-501.33 268,-493.67 268,-493.67 268,-489.83 271.83,-486 275.67,-486 275.67,-486 410.33,-486 410.33,-486 414.17,-486 418,-489.83 418,-493.67 418,-493.67 418,-501.33 418,-501.33 418,-505.17 414.17,-509 410.33,-509"/>
<text text-anchor="middle" x="343" y="-493.8" font-family="Arial" font-size="14.00" fill="#c6c5fe">List/variantExplorer.js</text>
</g>
<!-- List/index.js&#45;&gt;List/variantExplorer.js -->
<g id="edge18" class="edge">
<title>List/index.js&#45;&gt;List/variantExplorer.js</title>
<path fill="none" stroke="#757575" d="M154.18,-465.12C185.43,-470.5 228.13,-477.87 264.93,-484.21"/>
<polygon fill="#757575" stroke="#757575" points="264.69,-487.72 275.13,-485.97 265.87,-480.82 264.69,-487.72"/>
</g>
<!-- List/variantProduct.js -->
<g id="node31" class="node">
<title>List/variantProduct.js</title>
<path fill="none" stroke="#c6c5fe" d="M408.33,-591C408.33,-591 277.67,-591 277.67,-591 273.83,-591 270,-587.17 270,-583.33 270,-583.33 270,-575.67 270,-575.67 270,-571.83 273.83,-568 277.67,-568 277.67,-568 408.33,-568 408.33,-568 412.17,-568 416,-571.83 416,-575.67 416,-575.67 416,-583.33 416,-583.33 416,-587.17 412.17,-591 408.33,-591"/>
<text text-anchor="middle" x="343" y="-575.8" font-family="Arial" font-size="14.00" fill="#c6c5fe">List/variantProduct.js</text>
</g>
<!-- List/index.js&#45;&gt;List/variantProduct.js -->
<g id="edge19" class="edge">
<title>List/index.js&#45;&gt;List/variantProduct.js</title>
<path fill="none" stroke="#757575" d="M154.11,-456.95C175.39,-458.81 200.11,-464.33 218,-478.5 248.56,-502.71 223.96,-533.65 254,-558.5 256.07,-560.21 258.25,-561.78 260.52,-563.23"/>
<polygon fill="#757575" stroke="#757575" points="259.22,-566.51 269.68,-568.23 262.58,-560.37 259.22,-566.51"/>
</g>
<!-- List/variantTable.js -->
<g id="node32" class="node">
<title>List/variantTable.js</title>
<path fill="none" stroke="#c6c5fe" d="M401.33,-550C401.33,-550 284.67,-550 284.67,-550 280.83,-550 277,-546.17 277,-542.33 277,-542.33 277,-534.67 277,-534.67 277,-530.83 280.83,-527 284.67,-527 284.67,-527 401.33,-527 401.33,-527 405.17,-527 409,-530.83 409,-534.67 409,-534.67 409,-542.33 409,-542.33 409,-546.17 405.17,-550 401.33,-550"/>
<text text-anchor="middle" x="343" y="-534.8" font-family="Arial" font-size="14.00" fill="#c6c5fe">List/variantTable.js</text>
</g>
<!-- List/index.js&#45;&gt;List/variantTable.js -->
<g id="edge20" class="edge">
<title>List/index.js&#45;&gt;List/variantTable.js</title>
<path fill="none" stroke="#757575" d="M154.21,-459.79C174.66,-462.38 198.65,-467.71 218,-478.5 238.6,-489.99 233.64,-505.58 254,-517.5 258.18,-519.95 262.64,-522.12 267.24,-524.03"/>
<polygon fill="#757575" stroke="#757575" points="266.25,-527.4 276.84,-527.61 268.7,-520.84 266.25,-527.4"/>
</g>
<!-- Pagination/index.js -->
<g id="node33" class="node">
<title>Pagination/index.js</title>
<path fill="none" stroke="#c6c5fe" d="M402.33,-391C402.33,-391 283.67,-391 283.67,-391 279.83,-391 276,-387.17 276,-383.33 276,-383.33 276,-375.67 276,-375.67 276,-371.83 279.83,-368 283.67,-368 283.67,-368 402.33,-368 402.33,-368 406.17,-368 410,-371.83 410,-375.67 410,-375.67 410,-383.33 410,-383.33 410,-387.17 406.17,-391 402.33,-391"/>
<text text-anchor="middle" x="343" y="-375.8" font-family="Arial" font-size="14.00" fill="#c6c5fe">Pagination/index.js</text>
</g>
<!-- List/index.js&#45;&gt;Pagination/index.js -->
<g id="edge21" class="edge">
<title>List/index.js&#45;&gt;Pagination/index.js</title>
<path fill="none" stroke="#757575" d="M154.21,-454.13C174.43,-451.29 198.23,-446.08 218,-436.5 237,-427.29 235.46,-415.61 254,-405.5 262.01,-401.13 270.84,-397.42 279.73,-394.28"/>
<polygon fill="#757575" stroke="#757575" points="280.96,-397.56 289.35,-391.1 278.76,-390.92 280.96,-397.56"/>
</g>
<!-- Pagination/usePagination.js -->
<g id="node34" class="node">
<title>Pagination/usePagination.js</title>
<path fill="none" stroke="#cfffac" d="M659.33,-429C659.33,-429 485.67,-429 485.67,-429 481.83,-429 478,-425.17 478,-421.33 478,-421.33 478,-413.67 478,-413.67 478,-409.83 481.83,-406 485.67,-406 485.67,-406 659.33,-406 659.33,-406 663.17,-406 667,-409.83 667,-413.67 667,-413.67 667,-421.33 667,-421.33 667,-425.17 663.17,-429 659.33,-429"/>
<text text-anchor="middle" x="572.5" y="-413.8" font-family="Arial" font-size="14.00" fill="#cfffac">Pagination/usePagination.js</text>
</g>
<!-- List/index.js&#45;&gt;Pagination/usePagination.js -->
<g id="edge22" class="edge">
<title>List/index.js&#45;&gt;Pagination/usePagination.js</title>
<path fill="none" stroke="#757575" d="M154.25,-453.66C225.9,-447.45 369.21,-435.03 467.7,-426.5"/>
<polygon fill="#757575" stroke="#757575" points="468.03,-429.98 477.69,-425.63 467.42,-423.01 468.03,-429.98"/>
</g>
<!-- Placeholder/index.js -->
<g id="node35" class="node">
<title>Placeholder/index.js</title>
<path fill="none" stroke="#c6c5fe" d="M406.33,-165C406.33,-165 279.67,-165 279.67,-165 275.83,-165 272,-161.17 272,-157.33 272,-157.33 272,-149.67 272,-149.67 272,-145.83 275.83,-142 279.67,-142 279.67,-142 406.33,-142 406.33,-142 410.17,-142 414,-145.83 414,-149.67 414,-149.67 414,-157.33 414,-157.33 414,-161.17 410.17,-165 406.33,-165"/>
<text text-anchor="middle" x="343" y="-149.8" font-family="Arial" font-size="14.00" fill="#c6c5fe">Placeholder/index.js</text>
</g>
<!-- List/index.js&#45;&gt;Placeholder/index.js -->
<g id="edge23" class="edge">
<title>List/index.js&#45;&gt;Placeholder/index.js</title>
<path fill="none" stroke="#757575" d="M154.04,-458.98C175.68,-457.42 200.75,-451.89 218,-436.5 257.65,-401.13 233.65,-371.58 254,-322.5 277.07,-266.84 311.87,-204.82 330.02,-173.68"/>
<polygon fill="#757575" stroke="#757575" points="333.04,-175.44 335.09,-165.04 327,-171.9 333.04,-175.44"/>
</g>
<!-- List/variantExplorer.js&#45;&gt;Checkbox/index.js -->
<g id="edge24" class="edge">
<title>List/variantExplorer.js&#45;&gt;Checkbox/index.js</title>
<path fill="none" stroke="#757575" d="M418.03,-508.72C423.03,-511.13 427.76,-514.03 432,-517.5 462.18,-542.19 437.54,-573.16 468,-597.5 476.61,-604.38 486.88,-609.18 497.56,-612.51"/>
<polygon fill="#757575" stroke="#757575" points="496.88,-615.95 507.45,-615.17 498.7,-609.19 496.88,-615.95"/>
</g>
<!-- List/variantExplorer.js&#45;&gt;List/Cell.js -->
<g id="edge25" class="edge">
<title>List/variantExplorer.js&#45;&gt;List/Cell.js</title>
<path fill="none" stroke="#757575" d="M418.18,-497.5C452.16,-497.5 491.53,-497.5 521.87,-497.5"/>
<polygon fill="#757575" stroke="#757575" points="522.2,-501 532.2,-497.5 522.2,-494 522.2,-501"/>
</g>
<!-- List/variantExplorer.js&#45;&gt;List/context.js -->
<g id="edge27" class="edge">
<title>List/variantExplorer.js&#45;&gt;List/context.js</title>
<path fill="none" stroke="#757575" d="M398.13,-485.97C464.44,-473.71 579.91,-458.38 677,-476.5 702.79,-481.31 730.38,-492.18 750.94,-501.52"/>
<polygon fill="#757575" stroke="#757575" points="749.61,-504.76 760.15,-505.82 752.57,-498.42 749.61,-504.76"/>
</g>
<!-- List/variantExplorer.js&#45;&gt;List/SortIcon.js -->
<g id="edge26" class="edge">
<title>List/variantExplorer.js&#45;&gt;List/SortIcon.js</title>
<path fill="none" stroke="#757575" d="M401.69,-509.02C411.88,-511.51 422.32,-514.35 432,-517.5 469.67,-529.77 511.19,-548.31 539.05,-561.53"/>
<polygon fill="#757575" stroke="#757575" points="537.78,-564.8 548.31,-565.97 540.8,-558.49 537.78,-564.8"/>
</g>
<!-- List/variantProduct.js&#45;&gt;Checkbox/index.js -->
<g id="edge28" class="edge">
<title>List/variantProduct.js&#45;&gt;Checkbox/index.js</title>
<path fill="none" stroke="#757575" d="M411.33,-591.04C438.41,-595.68 469.71,-601.05 497.43,-605.8"/>
<polygon fill="#757575" stroke="#757575" points="497.01,-609.28 507.46,-607.52 498.2,-602.38 497.01,-609.28"/>
</g>
<!-- List/variantProduct.js&#45;&gt;List/Cell.js -->
<g id="edge29" class="edge">
<title>List/variantProduct.js&#45;&gt;List/Cell.js</title>
<path fill="none" stroke="#757575" d="M398.88,-568C409.95,-565.23 421.43,-562.04 432,-558.5 469.67,-545.88 511.18,-527.06 539.05,-513.66"/>
<polygon fill="#757575" stroke="#757575" points="540.84,-516.68 548.31,-509.17 537.78,-510.39 540.84,-516.68"/>
</g>
<!-- List/variantProduct.js&#45;&gt;List/context.js -->
<g id="edge31" class="edge">
<title>List/variantProduct.js&#45;&gt;List/context.js</title>
<path fill="none" stroke="#757575" d="M413.73,-591.15C420.11,-593.45 426.3,-596.21 432,-599.5 452.42,-611.31 446.39,-629.04 468,-638.5 553.09,-675.76 592.4,-676.86 677,-638.5 722.7,-617.78 756.47,-566.53 772.54,-537.82"/>
<polygon fill="#757575" stroke="#757575" points="775.62,-539.49 777.31,-529.03 769.47,-536.15 775.62,-539.49"/>
</g>
<!-- List/variantProduct.js&#45;&gt;List/SortIcon.js -->
<g id="edge30" class="edge">
<title>List/variantProduct.js&#45;&gt;List/SortIcon.js</title>
<path fill="none" stroke="#757575" d="M416.3,-578.86C445.73,-578.61 479.45,-578.31 507.93,-578.06"/>
<polygon fill="#757575" stroke="#757575" points="508.19,-581.56 518.16,-577.97 508.13,-574.56 508.19,-581.56"/>
</g>
<!-- List/variantTable.js&#45;&gt;Checkbox/index.js -->
<g id="edge32" class="edge">
<title>List/variantTable.js&#45;&gt;Checkbox/index.js</title>
<path fill="none" stroke="#757575" d="M409.15,-548.59C417.13,-551.17 424.95,-554.42 432,-558.5 452.42,-570.31 447.44,-585.93 468,-597.5 477.08,-602.61 487.23,-606.49 497.53,-609.43"/>
<polygon fill="#757575" stroke="#757575" points="496.86,-612.87 507.42,-611.97 498.6,-606.09 496.86,-612.87"/>
</g>
<!-- List/variantTable.js&#45;&gt;List/Cell.js -->
<g id="edge33" class="edge">
<title>List/variantTable.js&#45;&gt;List/Cell.js</title>
<path fill="none" stroke="#757575" d="M407.98,-526.97C444.18,-520.44 488.77,-512.41 522.24,-506.38"/>
<polygon fill="#757575" stroke="#757575" points="523.03,-509.79 532.25,-504.57 521.78,-502.9 523.03,-509.79"/>
</g>
<!-- List/variantTable.js&#45;&gt;List/context.js -->
<g id="edge35" class="edge">
<title>List/variantTable.js&#45;&gt;List/context.js</title>
<path fill="none" stroke="#757575" d="M409.25,-535.38C494.11,-531.32 641.18,-524.28 723.25,-520.36"/>
<polygon fill="#757575" stroke="#757575" points="723.59,-523.85 733.42,-519.87 723.26,-516.85 723.59,-523.85"/>
</g>
<!-- List/variantTable.js&#45;&gt;List/SortIcon.js -->
<g id="edge34" class="edge">
<title>List/variantTable.js&#45;&gt;List/SortIcon.js</title>
<path fill="none" stroke="#757575" d="M409.19,-549.68C440.22,-554.99 477.17,-561.33 507.98,-566.61"/>
<polygon fill="#757575" stroke="#757575" points="507.73,-570.12 518.18,-568.36 508.91,-563.22 507.73,-570.12"/>
</g>
<!-- Pagination/index.js&#45;&gt;Pagination/usePagination.js -->
<g id="edge42" class="edge">
<title>Pagination/index.js&#45;&gt;Pagination/usePagination.js</title>
<path fill="none" stroke="#757575" d="M410.11,-390.54C435.82,-394.84 465.49,-399.79 492.32,-404.27"/>
<polygon fill="#757575" stroke="#757575" points="492.02,-407.77 502.46,-405.97 493.17,-400.87 492.02,-407.77"/>
</g>
<!-- Pagination/getPageNumbers.js -->
<g id="node42" class="node">
<title>Pagination/getPageNumbers.js</title>
<path fill="none" stroke="#cfffac" d="M669.33,-388C669.33,-388 475.67,-388 475.67,-388 471.83,-388 468,-384.17 468,-380.33 468,-380.33 468,-372.67 468,-372.67 468,-368.83 471.83,-365 475.67,-365 475.67,-365 669.33,-365 669.33,-365 673.17,-365 677,-368.83 677,-372.67 677,-372.67 677,-380.33 677,-380.33 677,-384.17 673.17,-388 669.33,-388"/>
<text text-anchor="middle" x="572.5" y="-372.8" font-family="Arial" font-size="14.00" fill="#cfffac">Pagination/getPageNumbers.js</text>
</g>
<!-- Pagination/index.js&#45;&gt;Pagination/getPageNumbers.js -->
<g id="edge41" class="edge">
<title>Pagination/index.js&#45;&gt;Pagination/getPageNumbers.js</title>
<path fill="none" stroke="#757575" d="M410.11,-378.63C425.1,-378.43 441.44,-378.22 457.78,-378"/>
<polygon fill="#757575" stroke="#757575" points="457.99,-381.5 467.94,-377.87 457.9,-374.5 457.99,-381.5"/>
</g>
<!-- Placeholder/Block.js -->
<g id="node49" class="node">
<title>Placeholder/Block.js</title>
<path fill="none" stroke="#c6c5fe" d="M636.33,-308C636.33,-308 508.67,-308 508.67,-308 504.83,-308 501,-304.17 501,-300.33 501,-300.33 501,-292.67 501,-292.67 501,-288.83 504.83,-285 508.67,-285 508.67,-285 636.33,-285 636.33,-285 640.17,-285 644,-288.83 644,-292.67 644,-292.67 644,-300.33 644,-300.33 644,-304.17 640.17,-308 636.33,-308"/>
<text text-anchor="middle" x="572.5" y="-292.8" font-family="Arial" font-size="14.00" fill="#c6c5fe">Placeholder/Block.js</text>
</g>
<!-- Placeholder/index.js&#45;&gt;Placeholder/Block.js -->
<g id="edge53" class="edge">
<title>Placeholder/index.js&#45;&gt;Placeholder/Block.js</title>
<path fill="none" stroke="#757575" d="M352.08,-165.13C369.9,-189.8 415.2,-247.43 468,-275.5 475.19,-279.32 483.01,-282.45 491.01,-285.02"/>
<polygon fill="#757575" stroke="#757575" points="490.26,-288.44 500.84,-287.87 492.21,-281.72 490.26,-288.44"/>
</g>
<!-- Placeholder/Line.js -->
<g id="node50" class="node">
<title>Placeholder/Line.js</title>
<path fill="none" stroke="#cfffac" d="M843.83,-144C843.83,-144 724.17,-144 724.17,-144 720.33,-144 716.5,-140.17 716.5,-136.33 716.5,-136.33 716.5,-128.67 716.5,-128.67 716.5,-124.83 720.33,-121 724.17,-121 724.17,-121 843.83,-121 843.83,-121 847.67,-121 851.5,-124.83 851.5,-128.67 851.5,-128.67 851.5,-136.33 851.5,-136.33 851.5,-140.17 847.67,-144 843.83,-144"/>
<text text-anchor="middle" x="784" y="-128.8" font-family="Arial" font-size="14.00" fill="#cfffac">Placeholder/Line.js</text>
</g>
<!-- Placeholder/index.js&#45;&gt;Placeholder/Line.js -->
<g id="edge57" class="edge">
<title>Placeholder/index.js&#45;&gt;Placeholder/Line.js</title>
<path fill="none" stroke="#757575" d="M356.07,-141.73C376.85,-122.38 421.65,-84.58 468,-70.5 556.88,-43.5 592.38,-32.19 677,-70.5 699.09,-80.5 692.6,-98.4 713,-111.5 716.12,-113.5 719.44,-115.32 722.87,-116.97"/>
<polygon fill="#757575" stroke="#757575" points="721.59,-120.24 732.16,-120.97 724.36,-113.8 721.59,-120.24"/>
</g>
<!-- Placeholder/Blocks.js -->
<g id="node51" class="node">
<title>Placeholder/Blocks.js</title>
<path fill="none" stroke="#c6c5fe" d="M639.83,-226C639.83,-226 505.17,-226 505.17,-226 501.33,-226 497.5,-222.17 497.5,-218.33 497.5,-218.33 497.5,-210.67 497.5,-210.67 497.5,-206.83 501.33,-203 505.17,-203 505.17,-203 639.83,-203 639.83,-203 643.67,-203 647.5,-206.83 647.5,-210.67 647.5,-210.67 647.5,-218.33 647.5,-218.33 647.5,-222.17 643.67,-226 639.83,-226"/>
<text text-anchor="middle" x="572.5" y="-210.8" font-family="Arial" font-size="14.00" fill="#c6c5fe">Placeholder/Blocks.js</text>
</g>
<!-- Placeholder/index.js&#45;&gt;Placeholder/Blocks.js -->
<g id="edge54" class="edge">
<title>Placeholder/index.js&#45;&gt;Placeholder/Blocks.js</title>
<path fill="none" stroke="#757575" d="M376.34,-165.03C401.19,-173.62 436.49,-185.25 468,-193.5 477.95,-196.1 488.5,-198.58 498.92,-200.85"/>
<polygon fill="#757575" stroke="#757575" points="498.34,-204.3 508.85,-202.96 499.8,-197.45 498.34,-204.3"/>
</g>
<!-- Placeholder/BoxWithIcon.js -->
<g id="node52" class="node">
<title>Placeholder/BoxWithIcon.js</title>
<path fill="none" stroke="#c6c5fe" d="M658.33,-144C658.33,-144 486.67,-144 486.67,-144 482.83,-144 479,-140.17 479,-136.33 479,-136.33 479,-128.67 479,-128.67 479,-124.83 482.83,-121 486.67,-121 486.67,-121 658.33,-121 658.33,-121 662.17,-121 666,-124.83 666,-128.67 666,-128.67 666,-136.33 666,-136.33 666,-140.17 662.17,-144 658.33,-144"/>
<text text-anchor="middle" x="572.5" y="-128.8" font-family="Arial" font-size="14.00" fill="#c6c5fe">Placeholder/BoxWithIcon.js</text>
</g>
<!-- Placeholder/index.js&#45;&gt;Placeholder/BoxWithIcon.js -->
<g id="edge55" class="edge">
<title>Placeholder/index.js&#45;&gt;Placeholder/BoxWithIcon.js</title>
<path fill="none" stroke="#757575" d="M414.11,-147.03C431.49,-145.42 450.46,-143.67 469.03,-141.96"/>
<polygon fill="#757575" stroke="#757575" points="469.36,-145.44 479,-141.04 468.72,-138.47 469.36,-145.44"/>
</g>
<!-- Placeholder/Donut.js -->
<g id="node53" class="node">
<title>Placeholder/Donut.js</title>
<path fill="none" stroke="#c6c5fe" d="M637.83,-103C637.83,-103 507.17,-103 507.17,-103 503.33,-103 499.5,-99.17 499.5,-95.33 499.5,-95.33 499.5,-87.67 499.5,-87.67 499.5,-83.83 503.33,-80 507.17,-80 507.17,-80 637.83,-80 637.83,-80 641.67,-80 645.5,-83.83 645.5,-87.67 645.5,-87.67 645.5,-95.33 645.5,-95.33 645.5,-99.17 641.67,-103 637.83,-103"/>
<text text-anchor="middle" x="572.5" y="-87.8" font-family="Arial" font-size="14.00" fill="#c6c5fe">Placeholder/Donut.js</text>
</g>
<!-- Placeholder/index.js&#45;&gt;Placeholder/Donut.js -->
<g id="edge56" class="edge">
<title>Placeholder/index.js&#45;&gt;Placeholder/Donut.js</title>
<path fill="none" stroke="#757575" d="M374.22,-141.98C399.12,-132.8 435.48,-120.11 468,-111.5 476.64,-109.21 485.75,-107.07 494.84,-105.1"/>
<polygon fill="#757575" stroke="#757575" points="495.6,-108.52 504.66,-103.03 494.16,-101.67 495.6,-108.52"/>
</g>
<!-- Placeholder/List.js -->
<g id="node54" class="node">
<title>Placeholder/List.js</title>
<path fill="none" stroke="#c6c5fe" d="M629.83,-23C629.83,-23 515.17,-23 515.17,-23 511.33,-23 507.5,-19.17 507.5,-15.33 507.5,-15.33 507.5,-7.67 507.5,-7.67 507.5,-3.83 511.33,0 515.17,0 515.17,0 629.83,0 629.83,0 633.67,0 637.5,-3.83 637.5,-7.67 637.5,-7.67 637.5,-15.33 637.5,-15.33 637.5,-19.17 633.67,-23 629.83,-23"/>
<text text-anchor="middle" x="572.5" y="-7.8" font-family="Arial" font-size="14.00" fill="#c6c5fe">Placeholder/List.js</text>
</g>
<!-- Placeholder/index.js&#45;&gt;Placeholder/List.js -->
<g id="edge58" class="edge">
<title>Placeholder/index.js&#45;&gt;Placeholder/List.js</title>
<path fill="none" stroke="#757575" d="M352.88,-141.93C371.53,-118.46 417.27,-65.15 468,-37.5 477.18,-32.49 487.35,-28.43 497.62,-25.14"/>
<polygon fill="#757575" stroke="#757575" points="498.88,-28.42 507.47,-22.21 496.89,-21.71 498.88,-28.42"/>
</g>
<!-- Placeholder/Slider.js -->
<g id="node55" class="node">
<title>Placeholder/Slider.js</title>
<path fill="none" stroke="#cfffac" d="M636.33,-185C636.33,-185 508.67,-185 508.67,-185 504.83,-185 501,-181.17 501,-177.33 501,-177.33 501,-169.67 501,-169.67 501,-165.83 504.83,-162 508.67,-162 508.67,-162 636.33,-162 636.33,-162 640.17,-162 644,-165.83 644,-169.67 644,-169.67 644,-177.33 644,-177.33 644,-181.17 640.17,-185 636.33,-185"/>
<text text-anchor="middle" x="572.5" y="-169.8" font-family="Arial" font-size="14.00" fill="#cfffac">Placeholder/Slider.js</text>
</g>
<!-- Placeholder/index.js&#45;&gt;Placeholder/Slider.js -->
<g id="edge59" class="edge">
<title>Placeholder/index.js&#45;&gt;Placeholder/Slider.js</title>
<path fill="none" stroke="#757575" d="M414.11,-159.66C438.33,-161.79 465.65,-164.19 490.65,-166.39"/>
<polygon fill="#757575" stroke="#757575" points="490.57,-169.9 500.83,-167.29 491.18,-162.93 490.57,-169.9"/>
</g>
<!-- MarkDown/index.js -->
<g id="node36" class="node">
<title>MarkDown/index.js</title>
<path fill="none" stroke="#c6c5fe" d="M1018.33,-184C1018.33,-184 898.67,-184 898.67,-184 894.83,-184 891,-180.17 891,-176.33 891,-176.33 891,-168.67 891,-168.67 891,-164.83 894.83,-161 898.67,-161 898.67,-161 1018.33,-161 1018.33,-161 1022.17,-161 1026,-164.83 1026,-168.67 1026,-168.67 1026,-176.33 1026,-176.33 1026,-180.17 1022.17,-184 1018.33,-184"/>
<text text-anchor="middle" x="958.5" y="-168.8" font-family="Arial" font-size="14.00" fill="#c6c5fe">MarkDown/index.js</text>
</g>
<!-- MarkDown/index.js&#45;&gt;Link/index.js -->
<g id="edge36" class="edge">
<title>MarkDown/index.js&#45;&gt;Link/index.js</title>
<path fill="none" stroke="#757575" d="M1026.36,-163.04C1034.9,-161.84 1043.57,-160.61 1051.92,-159.43"/>
<polygon fill="#757575" stroke="#757575" points="1052.49,-162.88 1061.9,-158.02 1051.51,-155.95 1052.49,-162.88"/>
</g>
<!-- Menu/Item.js -->
<g id="node37" class="node">
<title>Menu/Item.js</title>
<path fill="none" stroke="#cfffac" d="M383.83,-1076C383.83,-1076 302.17,-1076 302.17,-1076 298.33,-1076 294.5,-1072.17 294.5,-1068.33 294.5,-1068.33 294.5,-1060.67 294.5,-1060.67 294.5,-1056.83 298.33,-1053 302.17,-1053 302.17,-1053 383.83,-1053 383.83,-1053 387.67,-1053 391.5,-1056.83 391.5,-1060.67 391.5,-1060.67 391.5,-1068.33 391.5,-1068.33 391.5,-1072.17 387.67,-1076 383.83,-1076"/>
<text text-anchor="middle" x="343" y="-1060.8" font-family="Arial" font-size="14.00" fill="#cfffac">Menu/Item.js</text>
</g>
<!-- Menu/index.js -->
<g id="node38" class="node">
<title>Menu/index.js</title>
<path fill="none" stroke="#c6c5fe" d="M152.83,-1053C152.83,-1053 65.17,-1053 65.17,-1053 61.33,-1053 57.5,-1049.17 57.5,-1045.33 57.5,-1045.33 57.5,-1037.67 57.5,-1037.67 57.5,-1033.83 61.33,-1030 65.17,-1030 65.17,-1030 152.83,-1030 152.83,-1030 156.67,-1030 160.5,-1033.83 160.5,-1037.67 160.5,-1037.67 160.5,-1045.33 160.5,-1045.33 160.5,-1049.17 156.67,-1053 152.83,-1053"/>
<text text-anchor="middle" x="109" y="-1037.8" font-family="Arial" font-size="14.00" fill="#c6c5fe">Menu/index.js</text>
</g>
<!-- Menu/index.js&#45;&gt;Menu/Item.js -->
<g id="edge37" class="edge">
<title>Menu/index.js&#45;&gt;Menu/Item.js</title>
<path fill="none" stroke="#757575" d="M160.63,-1046.52C196.94,-1050.12 245.95,-1054.98 283.87,-1058.74"/>
<polygon fill="#757575" stroke="#757575" points="283.96,-1062.26 294.25,-1059.77 284.65,-1055.3 283.96,-1062.26"/>
</g>
<!-- Popper/index.js -->
<g id="node39" class="node">
<title>Popper/index.js</title>
<path fill="none" stroke="#cfffac" d="M391.83,-1035C391.83,-1035 294.17,-1035 294.17,-1035 290.33,-1035 286.5,-1031.17 286.5,-1027.33 286.5,-1027.33 286.5,-1019.67 286.5,-1019.67 286.5,-1015.83 290.33,-1012 294.17,-1012 294.17,-1012 391.83,-1012 391.83,-1012 395.67,-1012 399.5,-1015.83 399.5,-1019.67 399.5,-1019.67 399.5,-1027.33 399.5,-1027.33 399.5,-1031.17 395.67,-1035 391.83,-1035"/>
<text text-anchor="middle" x="343" y="-1019.8" font-family="Arial" font-size="14.00" fill="#cfffac">Popper/index.js</text>
</g>
<!-- Menu/index.js&#45;&gt;Popper/index.js -->
<g id="edge38" class="edge">
<title>Menu/index.js&#45;&gt;Popper/index.js</title>
<path fill="none" stroke="#757575" d="M160.63,-1037.57C194.51,-1034.94 239.43,-1031.46 276.1,-1028.61"/>
<polygon fill="#757575" stroke="#757575" points="276.5,-1032.09 286.2,-1027.83 275.96,-1025.11 276.5,-1032.09"/>
</g>
<!-- Modal/index.js -->
<g id="node40" class="node">
<title>Modal/index.js</title>
<path fill="none" stroke="#c6c5fe" d="M617.83,-1071C617.83,-1071 527.17,-1071 527.17,-1071 523.33,-1071 519.5,-1067.17 519.5,-1063.33 519.5,-1063.33 519.5,-1055.67 519.5,-1055.67 519.5,-1051.83 523.33,-1048 527.17,-1048 527.17,-1048 617.83,-1048 617.83,-1048 621.67,-1048 625.5,-1051.83 625.5,-1055.67 625.5,-1055.67 625.5,-1063.33 625.5,-1063.33 625.5,-1067.17 621.67,-1071 617.83,-1071"/>
<text text-anchor="middle" x="572.5" y="-1055.8" font-family="Arial" font-size="14.00" fill="#c6c5fe">Modal/index.js</text>
</g>
<!-- Modal/index.js&#45;&gt;Touchable/index.js -->
<g id="edge39" class="edge">
<title>Modal/index.js&#45;&gt;Touchable/index.js</title>
<path fill="none" stroke="#757575" d="M625.75,-1052.28C642.45,-1049.09 660.79,-1044.62 677,-1038.5 706.41,-1027.39 737.27,-1008.72 758.05,-994.96"/>
<polygon fill="#757575" stroke="#757575" points="760.25,-997.7 766.58,-989.21 756.33,-991.89 760.25,-997.7"/>
</g>
<!-- Notice/index.js&#45;&gt;MarkDown/index.js -->
<g id="edge40" class="edge">
<title>Notice/index.js&#45;&gt;MarkDown/index.js</title>
<path fill="none" stroke="#757575" d="M838.31,-748.25C844.73,-745.19 850.57,-741.06 855,-735.5 930.36,-640.92 815.67,-287.11 891,-192.5 891.49,-191.88 892,-191.28 892.53,-190.7"/>
<polygon fill="#757575" stroke="#757575" points="894.93,-193.25 900.27,-184.1 890.39,-187.93 894.93,-193.25"/>
</g>
<!-- PasswordCheck/index.js -->
<g id="node43" class="node">
<title>PasswordCheck/index.js</title>
<path fill="none" stroke="#c6c5fe" d="M649.33,-267C649.33,-267 495.67,-267 495.67,-267 491.83,-267 488,-263.17 488,-259.33 488,-259.33 488,-251.67 488,-251.67 488,-247.83 491.83,-244 495.67,-244 495.67,-244 649.33,-244 649.33,-244 653.17,-244 657,-247.83 657,-251.67 657,-251.67 657,-259.33 657,-259.33 657,-263.17 653.17,-267 649.33,-267"/>
<text text-anchor="middle" x="572.5" y="-251.8" font-family="Arial" font-size="14.00" fill="#c6c5fe">PasswordCheck/index.js</text>
</g>
<!-- PasswordCheck/index.js&#45;&gt;Grid/index.js -->
<g id="edge43" class="edge">
<title>PasswordCheck/index.js&#45;&gt;Grid/index.js</title>
<path fill="none" stroke="#757575" d="M632.41,-243.97C661.97,-238.19 697.59,-231.22 726.76,-225.51"/>
<polygon fill="#757575" stroke="#757575" points="727.65,-228.9 736.79,-223.54 726.31,-222.03 727.65,-228.9"/>
</g>
<!-- PasswordStrengthMeter/index.js -->
<g id="node44" class="node">
<title>PasswordStrengthMeter/index.js</title>
<path fill="none" stroke="#cfffac" d="M210.33,-1095C210.33,-1095 7.67,-1095 7.67,-1095 3.83,-1095 0,-1091.17 0,-1087.33 0,-1087.33 0,-1079.67 0,-1079.67 0,-1075.83 3.83,-1072 7.67,-1072 7.67,-1072 210.33,-1072 210.33,-1072 214.17,-1072 218,-1075.83 218,-1079.67 218,-1079.67 218,-1087.33 218,-1087.33 218,-1091.17 214.17,-1095 210.33,-1095"/>
<text text-anchor="middle" x="109" y="-1079.8" font-family="Arial" font-size="14.00" fill="#cfffac">PasswordStrengthMeter/index.js</text>
</g>
<!-- Pentagon/index.js -->
<g id="node45" class="node">
<title>Pentagon/index.js</title>
<path fill="none" stroke="#cfffac" d="M165.33,-1137C165.33,-1137 52.67,-1137 52.67,-1137 48.83,-1137 45,-1133.17 45,-1129.33 45,-1129.33 45,-1121.67 45,-1121.67 45,-1117.83 48.83,-1114 52.67,-1114 52.67,-1114 165.33,-1114 165.33,-1114 169.17,-1114 173,-1117.83 173,-1121.67 173,-1121.67 173,-1129.33 173,-1129.33 173,-1133.17 169.17,-1137 165.33,-1137"/>
<text text-anchor="middle" x="109" y="-1121.8" font-family="Arial" font-size="14.00" fill="#cfffac">Pentagon/index.js</text>
</g>
<!-- PhoneInput/flags.png -->
<g id="node46" class="node">
<title>PhoneInput/flags.png</title>
<path fill="none" stroke="#cfffac" d="M409.83,-1178C409.83,-1178 276.17,-1178 276.17,-1178 272.33,-1178 268.5,-1174.17 268.5,-1170.33 268.5,-1170.33 268.5,-1162.67 268.5,-1162.67 268.5,-1158.83 272.33,-1155 276.17,-1155 276.17,-1155 409.83,-1155 409.83,-1155 413.67,-1155 417.5,-1158.83 417.5,-1162.67 417.5,-1162.67 417.5,-1170.33 417.5,-1170.33 417.5,-1174.17 413.67,-1178 409.83,-1178"/>
<text text-anchor="middle" x="343" y="-1162.8" font-family="Arial" font-size="14.00" fill="#cfffac">PhoneInput/flags.png</text>
</g>
<!-- PhoneInput/flags@2x.png -->
<g id="node47" class="node">
<title>PhoneInput/flags@2x.png</title>
<path fill="none" stroke="#cfffac" d="M424.33,-1137C424.33,-1137 261.67,-1137 261.67,-1137 257.83,-1137 254,-1133.17 254,-1129.33 254,-1129.33 254,-1121.67 254,-1121.67 254,-1117.83 257.83,-1114 261.67,-1114 261.67,-1114 424.33,-1114 424.33,-1114 428.17,-1114 432,-1117.83 432,-1121.67 432,-1121.67 432,-1129.33 432,-1129.33 432,-1133.17 428.17,-1137 424.33,-1137"/>
<text text-anchor="middle" x="343" y="-1121.8" font-family="Arial" font-size="14.00" fill="#cfffac">PhoneInput/flags@2x.png</text>
</g>
<!-- PhoneInput/index.js -->
<g id="node48" class="node">
<title>PhoneInput/index.js</title>
<path fill="none" stroke="#c6c5fe" d="M170.83,-1178C170.83,-1178 47.17,-1178 47.17,-1178 43.33,-1178 39.5,-1174.17 39.5,-1170.33 39.5,-1170.33 39.5,-1162.67 39.5,-1162.67 39.5,-1158.83 43.33,-1155 47.17,-1155 47.17,-1155 170.83,-1155 170.83,-1155 174.67,-1155 178.5,-1158.83 178.5,-1162.67 178.5,-1162.67 178.5,-1170.33 178.5,-1170.33 178.5,-1174.17 174.67,-1178 170.83,-1178"/>
<text text-anchor="middle" x="109" y="-1162.8" font-family="Arial" font-size="14.00" fill="#c6c5fe">PhoneInput/index.js</text>
</g>
<!-- PhoneInput/index.js&#45;&gt;PhoneInput/flags.png -->
<g id="edge44" class="edge">
<title>PhoneInput/index.js&#45;&gt;PhoneInput/flags.png</title>
<path fill="none" stroke="#757575" d="M178.67,-1166.5C203.56,-1166.5 231.95,-1166.5 258.01,-1166.5"/>
<polygon fill="#757575" stroke="#757575" points="258.25,-1170 268.25,-1166.5 258.25,-1163 258.25,-1170"/>
</g>
<!-- PhoneInput/index.js&#45;&gt;PhoneInput/flags@2x.png -->
<g id="edge45" class="edge">
<title>PhoneInput/index.js&#45;&gt;PhoneInput/flags@2x.png</title>
<path fill="none" stroke="#757575" d="M175.24,-1154.97C203.78,-1149.93 237.42,-1143.98 266.99,-1138.76"/>
<polygon fill="#757575" stroke="#757575" points="267.61,-1142.2 276.85,-1137.01 266.39,-1135.31 267.61,-1142.2"/>
</g>
<!-- Placeholder/Block.js&#45;&gt;Separator/index.js -->
<g id="edge47" class="edge">
<title>Placeholder/Block.js&#45;&gt;Separator/index.js</title>
<path fill="none" stroke="#757575" d="M611.44,-308.02C634.41,-317.08 662.07,-332.15 677,-355.5 727.59,-434.6 653.79,-703.63 713,-776.5 713.86,-777.55 714.76,-778.55 715.71,-779.51"/>
<polygon fill="#757575" stroke="#757575" points="713.77,-782.43 723.78,-785.89 718.11,-776.94 713.77,-782.43"/>
</g>
<!-- Placeholder/Block.js&#45;&gt;Placeholder/Line.js -->
<g id="edge46" class="edge">
<title>Placeholder/Block.js&#45;&gt;Placeholder/Line.js</title>
<path fill="none" stroke="#757575" d="M644.07,-291.6C655.96,-288.25 667.51,-283.15 677,-275.5 707.98,-250.51 689.43,-225.57 713,-193.5 725.37,-176.67 743.15,-161.25 757.7,-150.12"/>
<polygon fill="#757575" stroke="#757575" points="759.88,-152.86 765.82,-144.09 755.7,-147.24 759.88,-152.86"/>
</g>
<!-- Placeholder/Blocks.js&#45;&gt;Grid/index.js -->
<g id="edge48" class="edge">
<title>Placeholder/Blocks.js&#45;&gt;Grid/index.js</title>
<path fill="none" stroke="#757575" d="M647.66,-214.5C673.61,-214.5 702.31,-214.5 726.58,-214.5"/>
<polygon fill="#757575" stroke="#757575" points="726.69,-218 736.69,-214.5 726.69,-211 726.69,-218"/>
</g>
<!-- Placeholder/Blocks.js&#45;&gt;Placeholder/Line.js -->
<g id="edge49" class="edge">
<title>Placeholder/Blocks.js&#45;&gt;Placeholder/Line.js</title>
<path fill="none" stroke="#757575" d="M645.62,-202.99C656.3,-200.39 667.05,-197.26 677,-193.5 706.41,-182.39 737.27,-163.72 758.05,-149.96"/>
<polygon fill="#757575" stroke="#757575" points="760.25,-152.7 766.58,-144.21 756.33,-146.89 760.25,-152.7"/>
</g>
<!-- Placeholder/BoxWithIcon.js&#45;&gt;Placeholder/Line.js -->
<g id="edge50" class="edge">
<title>Placeholder/BoxWithIcon.js&#45;&gt;Placeholder/Line.js</title>
<path fill="none" stroke="#757575" d="M666.3,-132.5C679.6,-132.5 693.16,-132.5 706.11,-132.5"/>
<polygon fill="#757575" stroke="#757575" points="706.35,-136 716.35,-132.5 706.35,-129 706.35,-136"/>
</g>
<!-- Placeholder/Donut.js&#45;&gt;Placeholder/Line.js -->
<g id="edge51" class="edge">
<title>Placeholder/Donut.js&#45;&gt;Placeholder/Line.js</title>
<path fill="none" stroke="#757575" d="M633.44,-103.03C647.72,-105.79 662.9,-108.74 677,-111.5 689.28,-113.9 702.35,-116.48 714.97,-118.97"/>
<polygon fill="#757575" stroke="#757575" points="714.48,-122.44 724.97,-120.95 715.84,-115.58 714.48,-122.44"/>
</g>
<!-- Placeholder/List.js&#45;&gt;Placeholder/Line.js -->
<g id="edge52" class="edge">
<title>Placeholder/List.js&#45;&gt;Placeholder/Line.js</title>
<path fill="none" stroke="#757575" d="M637.76,-18.52C651.79,-22.42 665.78,-28.39 677,-37.5 705.39,-60.56 685.14,-87.81 713,-111.5 714.95,-113.15 717.02,-114.68 719.18,-116.08"/>
<polygon fill="#757575" stroke="#757575" points="717.5,-119.15 727.94,-120.92 720.88,-113.02 717.5,-119.15"/>
</g>
<!-- ProgressBar/index.js -->
<g id="node56" class="node">
<title>ProgressBar/index.js</title>
<path fill="none" stroke="#cfffac" d="M408.33,-1219C408.33,-1219 277.67,-1219 277.67,-1219 273.83,-1219 270,-1215.17 270,-1211.33 270,-1211.33 270,-1203.67 270,-1203.67 270,-1199.83 273.83,-1196 277.67,-1196 277.67,-1196 408.33,-1196 408.33,-1196 412.17,-1196 416,-1199.83 416,-1203.67 416,-1203.67 416,-1211.33 416,-1211.33 416,-1215.17 412.17,-1219 408.33,-1219"/>
<text text-anchor="middle" x="343" y="-1203.8" font-family="Arial" font-size="14.00" fill="#cfffac">ProgressBar/index.js</text>
</g>
<!-- ProgressionButton/index.js -->
<g id="node57" class="node">
<title>ProgressionButton/index.js</title>
<path fill="none" stroke="#cfffac" d="M192.83,-1260C192.83,-1260 25.17,-1260 25.17,-1260 21.33,-1260 17.5,-1256.17 17.5,-1252.33 17.5,-1252.33 17.5,-1244.67 17.5,-1244.67 17.5,-1240.83 21.33,-1237 25.17,-1237 25.17,-1237 192.83,-1237 192.83,-1237 196.67,-1237 200.5,-1240.83 200.5,-1244.67 200.5,-1244.67 200.5,-1252.33 200.5,-1252.33 200.5,-1256.17 196.67,-1260 192.83,-1260"/>
<text text-anchor="middle" x="109" y="-1244.8" font-family="Arial" font-size="14.00" fill="#cfffac">ProgressionButton/index.js</text>
</g>
<!-- Radio/index.js -->
<g id="node58" class="node">
<title>Radio/index.js</title>
<path fill="none" stroke="#cfffac" d="M387.33,-1301C387.33,-1301 298.67,-1301 298.67,-1301 294.83,-1301 291,-1297.17 291,-1293.33 291,-1293.33 291,-1285.67 291,-1285.67 291,-1281.83 294.83,-1278 298.67,-1278 298.67,-1278 387.33,-1278 387.33,-1278 391.17,-1278 395,-1281.83 395,-1285.67 395,-1285.67 395,-1293.33 395,-1293.33 395,-1297.17 391.17,-1301 387.33,-1301"/>
<text text-anchor="middle" x="343" y="-1285.8" font-family="Arial" font-size="14.00" fill="#cfffac">Radio/index.js</text>
</g>
<!-- RadioBorderedBox/index.js -->
<g id="node59" class="node">
<title>RadioBorderedBox/index.js</title>
<path fill="none" stroke="#c6c5fe" d="M194.33,-1301C194.33,-1301 23.67,-1301 23.67,-1301 19.83,-1301 16,-1297.17 16,-1293.33 16,-1293.33 16,-1285.67 16,-1285.67 16,-1281.83 19.83,-1278 23.67,-1278 23.67,-1278 194.33,-1278 194.33,-1278 198.17,-1278 202,-1281.83 202,-1285.67 202,-1285.67 202,-1293.33 202,-1293.33 202,-1297.17 198.17,-1301 194.33,-1301"/>
<text text-anchor="middle" x="109" y="-1285.8" font-family="Arial" font-size="14.00" fill="#c6c5fe">RadioBorderedBox/index.js</text>
</g>
<!-- RadioBorderedBox/index.js&#45;&gt;Radio/index.js -->
<g id="edge60" class="edge">
<title>RadioBorderedBox/index.js&#45;&gt;Radio/index.js</title>
<path fill="none" stroke="#757575" d="M202.03,-1289.5C228.48,-1289.5 256.68,-1289.5 280.78,-1289.5"/>
<polygon fill="#757575" stroke="#757575" points="280.84,-1293 290.84,-1289.5 280.84,-1286 280.84,-1293"/>
</g>
<!-- Range/index.js -->
<g id="node60" class="node">
<title>Range/index.js</title>
<path fill="none" stroke="#cfffac" d="M155.83,-1342C155.83,-1342 62.17,-1342 62.17,-1342 58.33,-1342 54.5,-1338.17 54.5,-1334.33 54.5,-1334.33 54.5,-1326.67 54.5,-1326.67 54.5,-1322.83 58.33,-1319 62.17,-1319 62.17,-1319 155.83,-1319 155.83,-1319 159.67,-1319 163.5,-1322.83 163.5,-1326.67 163.5,-1326.67 163.5,-1334.33 163.5,-1334.33 163.5,-1338.17 159.67,-1342 155.83,-1342"/>
<text text-anchor="middle" x="109" y="-1326.8" font-family="Arial" font-size="14.00" fill="#cfffac">Range/index.js</text>
</g>
<!-- Reminder/index.js -->
<g id="node61" class="node">
<title>Reminder/index.js</title>
<path fill="none" stroke="#c6c5fe" d="M840.83,-103C840.83,-103 727.17,-103 727.17,-103 723.33,-103 719.5,-99.17 719.5,-95.33 719.5,-95.33 719.5,-87.67 719.5,-87.67 719.5,-83.83 723.33,-80 727.17,-80 727.17,-80 840.83,-80 840.83,-80 844.67,-80 848.5,-83.83 848.5,-87.67 848.5,-87.67 848.5,-95.33 848.5,-95.33 848.5,-99.17 844.67,-103 840.83,-103"/>
<text text-anchor="middle" x="784" y="-87.8" font-family="Arial" font-size="14.00" fill="#c6c5fe">Reminder/index.js</text>
</g>
<!-- Reminder/index.js&#45;&gt;UniversalLink/index.js -->
<g id="edge62" class="edge">
<title>Reminder/index.js&#45;&gt;UniversalLink/index.js</title>
<path fill="none" stroke="#757575" d="M848.51,-94.14C933.97,-97.68 1086.26,-104 1181.66,-107.96"/>
<polygon fill="#757575" stroke="#757575" points="1181.72,-111.46 1191.85,-108.38 1182.01,-104.47 1181.72,-111.46"/>
</g>
<!-- Reminder/index.js&#45;&gt;MarkDown/index.js -->
<g id="edge61" class="edge">
<title>Reminder/index.js&#45;&gt;MarkDown/index.js</title>
<path fill="none" stroke="#757575" d="M837.62,-103.01C843.7,-105.35 849.64,-108.15 855,-111.5 875.29,-124.17 870.89,-138.55 891,-151.5 894.08,-153.48 897.37,-155.29 900.76,-156.94"/>
<polygon fill="#757575" stroke="#757575" points="899.38,-160.15 909.94,-160.93 902.17,-153.73 899.38,-160.15"/>
</g>
<!-- RichSelect/index.js -->
<g id="node62" class="node">
<title>RichSelect/index.js</title>
<path fill="none" stroke="#c6c5fe" d="M632.33,-748C632.33,-748 512.67,-748 512.67,-748 508.83,-748 505,-744.17 505,-740.33 505,-740.33 505,-732.67 505,-732.67 505,-728.83 508.83,-725 512.67,-725 512.67,-725 632.33,-725 632.33,-725 636.17,-725 640,-728.83 640,-732.67 640,-732.67 640,-740.33 640,-740.33 640,-744.17 636.17,-748 632.33,-748"/>
<text text-anchor="middle" x="572.5" y="-732.8" font-family="Arial" font-size="14.00" fill="#c6c5fe">RichSelect/index.js</text>
</g>
<!-- RichSelect/index.js&#45;&gt;Expandable/index.js -->
<g id="edge63" class="edge">
<title>RichSelect/index.js&#45;&gt;Expandable/index.js</title>
<path fill="none" stroke="#757575" d="M640.07,-729.83C660.05,-727.82 682.17,-725.61 702.92,-723.53"/>
<polygon fill="#757575" stroke="#757575" points="703.38,-727 712.98,-722.52 702.68,-720.03 703.38,-727"/>
</g>
<!-- ScrollView/index.js -->
<g id="node63" class="node">
<title>ScrollView/index.js</title>
<path fill="none" stroke="#cfffac" d="M167.83,-1383C167.83,-1383 50.17,-1383 50.17,-1383 46.33,-1383 42.5,-1379.17 42.5,-1375.33 42.5,-1375.33 42.5,-1367.67 42.5,-1367.67 42.5,-1363.83 46.33,-1360 50.17,-1360 50.17,-1360 167.83,-1360 167.83,-1360 171.67,-1360 175.5,-1363.83 175.5,-1367.67 175.5,-1367.67 175.5,-1375.33 175.5,-1375.33 175.5,-1379.17 171.67,-1383 167.83,-1383"/>
<text text-anchor="middle" x="109" y="-1367.8" font-family="Arial" font-size="14.00" fill="#cfffac">ScrollView/index.js</text>
</g>
<!-- Slider/index.js -->
<g id="node64" class="node">
<title>Slider/index.js</title>
<path fill="none" stroke="#cfffac" d="M153.33,-1424C153.33,-1424 64.67,-1424 64.67,-1424 60.83,-1424 57,-1420.17 57,-1416.33 57,-1416.33 57,-1408.67 57,-1408.67 57,-1404.83 60.83,-1401 64.67,-1401 64.67,-1401 153.33,-1401 153.33,-1401 157.17,-1401 161,-1404.83 161,-1408.67 161,-1408.67 161,-1416.33 161,-1416.33 161,-1420.17 157.17,-1424 153.33,-1424"/>
<text text-anchor="middle" x="109" y="-1408.8" font-family="Arial" font-size="14.00" fill="#cfffac">Slider/index.js</text>
</g>
<!-- Sphere/index.js -->
<g id="node65" class="node">
<title>Sphere/index.js</title>
<path fill="none" stroke="#cfffac" d="M157.83,-1465C157.83,-1465 60.17,-1465 60.17,-1465 56.33,-1465 52.5,-1461.17 52.5,-1457.33 52.5,-1457.33 52.5,-1449.67 52.5,-1449.67 52.5,-1445.83 56.33,-1442 60.17,-1442 60.17,-1442 157.83,-1442 157.83,-1442 161.67,-1442 165.5,-1445.83 165.5,-1449.67 165.5,-1449.67 165.5,-1457.33 165.5,-1457.33 165.5,-1461.17 161.67,-1465 157.83,-1465"/>
<text text-anchor="middle" x="109" y="-1449.8" font-family="Arial" font-size="14.00" fill="#cfffac">Sphere/index.js</text>
</g>
<!-- StateBar/index.js -->
<g id="node66" class="node">
<title>StateBar/index.js</title>
<path fill="none" stroke="#c6c5fe" d="M162.33,-1219C162.33,-1219 55.67,-1219 55.67,-1219 51.83,-1219 48,-1215.17 48,-1211.33 48,-1211.33 48,-1203.67 48,-1203.67 48,-1199.83 51.83,-1196 55.67,-1196 55.67,-1196 162.33,-1196 162.33,-1196 166.17,-1196 170,-1199.83 170,-1203.67 170,-1203.67 170,-1211.33 170,-1211.33 170,-1215.17 166.17,-1219 162.33,-1219"/>
<text text-anchor="middle" x="109" y="-1203.8" font-family="Arial" font-size="14.00" fill="#c6c5fe">StateBar/index.js</text>
</g>
<!-- StateBar/index.js&#45;&gt;ProgressBar/index.js -->
<g id="edge64" class="edge">
<title>StateBar/index.js&#45;&gt;ProgressBar/index.js</title>
<path fill="none" stroke="#757575" d="M170.05,-1207.5C197.31,-1207.5 229.99,-1207.5 259.51,-1207.5"/>
<polygon fill="#757575" stroke="#757575" points="259.81,-1211 269.81,-1207.5 259.81,-1204 259.81,-1211"/>
</g>
<!-- StatusIndicator/index.js -->
<g id="node67" class="node">
<title>StatusIndicator/index.js</title>
<path fill="none" stroke="#c6c5fe" d="M415.83,-789C415.83,-789 270.17,-789 270.17,-789 266.33,-789 262.5,-785.17 262.5,-781.33 262.5,-781.33 262.5,-773.67 262.5,-773.67 262.5,-769.83 266.33,-766 270.17,-766 270.17,-766 415.83,-766 415.83,-766 419.67,-766 423.5,-769.83 423.5,-773.67 423.5,-773.67 423.5,-781.33 423.5,-781.33 423.5,-785.17 419.67,-789 415.83,-789"/>
<text text-anchor="middle" x="343" y="-773.8" font-family="Arial" font-size="14.00" fill="#c6c5fe">StatusIndicator/index.js</text>
</g>
<!-- StatusIndicator/index.js&#45;&gt;Dot/index.js -->
<g id="edge65" class="edge">
<title>StatusIndicator/index.js&#45;&gt;Dot/index.js</title>
<path fill="none" stroke="#757575" d="M407.98,-789.03C442.52,-795.25 484.68,-802.85 517.55,-808.78"/>
<polygon fill="#757575" stroke="#757575" points="516.96,-812.23 527.43,-810.56 518.21,-805.34 516.96,-812.23"/>
</g>
<!-- StealthCopiable/index.js -->
<g id="node68" class="node">
<title>StealthCopiable/index.js</title>
<path fill="none" stroke="#cfffac" d="M184.83,-1506C184.83,-1506 33.17,-1506 33.17,-1506 29.33,-1506 25.5,-1502.17 25.5,-1498.33 25.5,-1498.33 25.5,-1490.67 25.5,-1490.67 25.5,-1486.83 29.33,-1483 33.17,-1483 33.17,-1483 184.83,-1483 184.83,-1483 188.67,-1483 192.5,-1486.83 192.5,-1490.67 192.5,-1490.67 192.5,-1498.33 192.5,-1498.33 192.5,-1502.17 188.67,-1506 184.83,-1506"/>
<text text-anchor="middle" x="109" y="-1490.8" font-family="Arial" font-size="14.00" fill="#cfffac">StealthCopiable/index.js</text>
</g>
<!-- Stepper/index.js -->
<g id="node69" class="node">
<title>Stepper/index.js</title>
<path fill="none" stroke="#c6c5fe" d="M623.33,-1030C623.33,-1030 521.67,-1030 521.67,-1030 517.83,-1030 514,-1026.17 514,-1022.33 514,-1022.33 514,-1014.67 514,-1014.67 514,-1010.83 517.83,-1007 521.67,-1007 521.67,-1007 623.33,-1007 623.33,-1007 627.17,-1007 631,-1010.83 631,-1014.67 631,-1014.67 631,-1022.33 631,-1022.33 631,-1026.17 627.17,-1030 623.33,-1030"/>
<text text-anchor="middle" x="572.5" y="-1014.8" font-family="Arial" font-size="14.00" fill="#c6c5fe">Stepper/index.js</text>
</g>
<!-- Stepper/index.js&#45;&gt;Touchable/index.js -->
<g id="edge66" class="edge">
<title>Stepper/index.js&#45;&gt;Touchable/index.js</title>
<path fill="none" stroke="#757575" d="M631.02,-1007.24C656.7,-1002.22 687.15,-996.26 714.04,-991"/>
<polygon fill="#757575" stroke="#757575" points="715.01,-994.37 724.15,-989.02 713.66,-987.5 715.01,-994.37"/>
</g>
<!-- Switch/index.js -->
<g id="node70" class="node">
<title>Switch/index.js</title>
<path fill="none" stroke="#cfffac" d="M155.83,-1547C155.83,-1547 62.17,-1547 62.17,-1547 58.33,-1547 54.5,-1543.17 54.5,-1539.33 54.5,-1539.33 54.5,-1531.67 54.5,-1531.67 54.5,-1527.83 58.33,-1524 62.17,-1524 62.17,-1524 155.83,-1524 155.83,-1524 159.67,-1524 163.5,-1527.83 163.5,-1531.67 163.5,-1531.67 163.5,-1539.33 163.5,-1539.33 163.5,-1543.17 159.67,-1547 155.83,-1547"/>
<text text-anchor="middle" x="109" y="-1531.8" font-family="Arial" font-size="14.00" fill="#cfffac">Switch/index.js</text>
</g>
<!-- SwitchButton/index.js -->
<g id="node71" class="node">
<title>SwitchButton/index.js</title>
<path fill="none" stroke="#cfffac" d="M176.33,-1588C176.33,-1588 41.67,-1588 41.67,-1588 37.83,-1588 34,-1584.17 34,-1580.33 34,-1580.33 34,-1572.67 34,-1572.67 34,-1568.83 37.83,-1565 41.67,-1565 41.67,-1565 176.33,-1565 176.33,-1565 180.17,-1565 184,-1568.83 184,-1572.67 184,-1572.67 184,-1580.33 184,-1580.33 184,-1584.17 180.17,-1588 176.33,-1588"/>
<text text-anchor="middle" x="109" y="-1572.8" font-family="Arial" font-size="14.00" fill="#cfffac">SwitchButton/index.js</text>
</g>
<!-- TabGroup/Tab.js -->
<g id="node72" class="node">
<title>TabGroup/Tab.js</title>
<path fill="none" stroke="#cfffac" d="M394.33,-1629C394.33,-1629 291.67,-1629 291.67,-1629 287.83,-1629 284,-1625.17 284,-1621.33 284,-1621.33 284,-1613.67 284,-1613.67 284,-1609.83 287.83,-1606 291.67,-1606 291.67,-1606 394.33,-1606 394.33,-1606 398.17,-1606 402,-1609.83 402,-1613.67 402,-1613.67 402,-1621.33 402,-1621.33 402,-1625.17 398.17,-1629 394.33,-1629"/>
<text text-anchor="middle" x="343" y="-1613.8" font-family="Arial" font-size="14.00" fill="#cfffac">TabGroup/Tab.js</text>
</g>
<!-- TabGroup/index.js -->
<g id="node73" class="node">
<title>TabGroup/index.js</title>
<path fill="none" stroke="#c6c5fe" d="M165.83,-1629C165.83,-1629 52.17,-1629 52.17,-1629 48.33,-1629 44.5,-1625.17 44.5,-1621.33 44.5,-1621.33 44.5,-1613.67 44.5,-1613.67 44.5,-1609.83 48.33,-1606 52.17,-1606 52.17,-1606 165.83,-1606 165.83,-1606 169.67,-1606 173.5,-1609.83 173.5,-1613.67 173.5,-1613.67 173.5,-1621.33 173.5,-1621.33 173.5,-1625.17 169.67,-1629 165.83,-1629"/>
<text text-anchor="middle" x="109" y="-1613.8" font-family="Arial" font-size="14.00" fill="#c6c5fe">TabGroup/index.js</text>
</g>
<!-- TabGroup/index.js&#45;&gt;TabGroup/Tab.js -->
<g id="edge67" class="edge">
<title>TabGroup/index.js&#45;&gt;TabGroup/Tab.js</title>
<path fill="none" stroke="#757575" d="M173.7,-1617.5C204.81,-1617.5 242.26,-1617.5 273.93,-1617.5"/>
<polygon fill="#757575" stroke="#757575" points="274,-1621 284,-1617.5 274,-1614 274,-1621"/>
</g>
<!-- Table/index.js -->
<g id="node74" class="node">
<title>Table/index.js</title>
<path fill="none" stroke="#cfffac" d="M151.83,-1670C151.83,-1670 66.17,-1670 66.17,-1670 62.33,-1670 58.5,-1666.17 58.5,-1662.33 58.5,-1662.33 58.5,-1654.67 58.5,-1654.67 58.5,-1650.83 62.33,-1647 66.17,-1647 66.17,-1647 151.83,-1647 151.83,-1647 155.67,-1647 159.5,-1650.83 159.5,-1654.67 159.5,-1654.67 159.5,-1662.33 159.5,-1662.33 159.5,-1666.17 155.67,-1670 151.83,-1670"/>
<text text-anchor="middle" x="109" y="-1654.8" font-family="Arial" font-size="14.00" fill="#cfffac">Table/index.js</text>
</g>
<!-- Tag/index.js -->
<g id="node75" class="node">
<title>Tag/index.js</title>
<path fill="none" stroke="#c6c5fe" d="M609.83,-989C609.83,-989 535.17,-989 535.17,-989 531.33,-989 527.5,-985.17 527.5,-981.33 527.5,-981.33 527.5,-973.67 527.5,-973.67 527.5,-969.83 531.33,-966 535.17,-966 535.17,-966 609.83,-966 609.83,-966 613.67,-966 617.5,-969.83 617.5,-973.67 617.5,-973.67 617.5,-981.33 617.5,-981.33 617.5,-985.17 613.67,-989 609.83,-989"/>
<text text-anchor="middle" x="572.5" y="-973.8" font-family="Arial" font-size="14.00" fill="#c6c5fe">Tag/index.js</text>
</g>
<!-- Tag/index.js&#45;&gt;Touchable/index.js -->
<g id="edge68" class="edge">
<title>Tag/index.js&#45;&gt;Touchable/index.js</title>
<path fill="none" stroke="#757575" d="M617.67,-977.5C643.77,-977.5 677.52,-977.5 707.71,-977.5"/>
<polygon fill="#757575" stroke="#757575" points="707.8,-981 717.8,-977.5 707.8,-974 707.8,-981"/>
</g>
<!-- Tags/index.js -->
<g id="node76" class="node">
<title>Tags/index.js</title>
<path fill="none" stroke="#c6c5fe" d="M383.83,-994C383.83,-994 302.17,-994 302.17,-994 298.33,-994 294.5,-990.17 294.5,-986.33 294.5,-986.33 294.5,-978.67 294.5,-978.67 294.5,-974.83 298.33,-971 302.17,-971 302.17,-971 383.83,-971 383.83,-971 387.67,-971 391.5,-974.83 391.5,-978.67 391.5,-978.67 391.5,-986.33 391.5,-986.33 391.5,-990.17 387.67,-994 383.83,-994"/>
<text text-anchor="middle" x="343" y="-978.8" font-family="Arial" font-size="14.00" fill="#c6c5fe">Tags/index.js</text>
</g>
<!-- Tags/index.js&#45;&gt;Tag/index.js -->
<g id="edge69" class="edge">
<title>Tags/index.js&#45;&gt;Tag/index.js</title>
<path fill="none" stroke="#757575" d="M391.69,-981.45C428.25,-980.65 478.75,-979.54 516.93,-978.7"/>
<polygon fill="#757575" stroke="#757575" points="517.42,-982.19 527.34,-978.47 517.27,-975.19 517.42,-982.19"/>
</g>
<!-- TagsPoplist/index.js -->
<g id="node77" class="node">
<title>TagsPoplist/index.js</title>
<path fill="none" stroke="#c6c5fe" d="M404.83,-953C404.83,-953 281.17,-953 281.17,-953 277.33,-953 273.5,-949.17 273.5,-945.33 273.5,-945.33 273.5,-937.67 273.5,-937.67 273.5,-933.83 277.33,-930 281.17,-930 281.17,-930 404.83,-930 404.83,-930 408.67,-930 412.5,-933.83 412.5,-937.67 412.5,-937.67 412.5,-945.33 412.5,-945.33 412.5,-949.17 408.67,-953 404.83,-953"/>
<text text-anchor="middle" x="343" y="-937.8" font-family="Arial" font-size="14.00" fill="#c6c5fe">TagsPoplist/index.js</text>
</g>
<!-- TagsPoplist/index.js&#45;&gt;FlexBox/index.js -->
<g id="edge70" class="edge">
<title>TagsPoplist/index.js&#45;&gt;FlexBox/index.js</title>
<path fill="none" stroke="#757575" d="M398.88,-930C409.95,-927.23 421.43,-924.04 432,-920.5 469.67,-907.88 511.18,-889.06 539.05,-875.66"/>
<polygon fill="#757575" stroke="#757575" points="540.84,-878.68 548.31,-871.17 537.78,-872.39 540.84,-878.68"/>
</g>
<!-- TagsPoplist/index.js&#45;&gt;Tag/index.js -->
<g id="edge71" class="edge">
<title>TagsPoplist/index.js&#45;&gt;Tag/index.js</title>
<path fill="none" stroke="#757575" d="M412.57,-952.35C446.21,-957.67 486.16,-963.99 517.58,-968.97"/>
<polygon fill="#757575" stroke="#757575" points="517.04,-972.43 527.47,-970.53 518.14,-965.51 517.04,-972.43"/>
</g>
<!-- TimeInput/index.js -->
<g id="node78" class="node">
<title>TimeInput/index.js</title>
<path fill="none" stroke="#c6c5fe" d="M400.33,-707C400.33,-707 285.67,-707 285.67,-707 281.83,-707 278,-703.17 278,-699.33 278,-699.33 278,-691.67 278,-691.67 278,-687.83 281.83,-684 285.67,-684 285.67,-684 400.33,-684 400.33,-684 404.17,-684 408,-687.83 408,-691.67 408,-691.67 408,-699.33 408,-699.33 408,-703.17 404.17,-707 400.33,-707"/>
<text text-anchor="middle" x="343" y="-691.8" font-family="Arial" font-size="14.00" fill="#c6c5fe">TimeInput/index.js</text>
</g>
<!-- TimeInput/index.js&#45;&gt;RichSelect/index.js -->
<g id="edge76" class="edge">
<title>TimeInput/index.js&#45;&gt;RichSelect/index.js</title>
<path fill="none" stroke="#757575" d="M407.98,-707.03C435.84,-712.05 468.66,-717.97 497.57,-723.18"/>
<polygon fill="#757575" stroke="#757575" points="497.15,-726.66 507.61,-724.99 498.39,-719.77 497.15,-726.66"/>
</g>
<!-- Toaster/index.js -->
<g id="node79" class="node">
<title>Toaster/index.js</title>
<path fill="none" stroke="#cfffac" d="M158.33,-1711C158.33,-1711 59.67,-1711 59.67,-1711 55.83,-1711 52,-1707.17 52,-1703.33 52,-1703.33 52,-1695.67 52,-1695.67 52,-1691.83 55.83,-1688 59.67,-1688 59.67,-1688 158.33,-1688 158.33,-1688 162.17,-1688 166,-1691.83 166,-1695.67 166,-1695.67 166,-1703.33 166,-1703.33 166,-1707.17 162.17,-1711 158.33,-1711"/>
<text text-anchor="middle" x="109" y="-1695.8" font-family="Arial" font-size="14.00" fill="#cfffac">Toaster/index.js</text>
</g>
<!-- TooltipIcon/index.js -->
<g id="node80" class="node">
<title>TooltipIcon/index.js</title>
<path fill="none" stroke="#cfffac" d="M168.83,-1752C168.83,-1752 49.17,-1752 49.17,-1752 45.33,-1752 41.5,-1748.17 41.5,-1744.33 41.5,-1744.33 41.5,-1736.67 41.5,-1736.67 41.5,-1732.83 45.33,-1729 49.17,-1729 49.17,-1729 168.83,-1729 168.83,-1729 172.67,-1729 176.5,-1732.83 176.5,-1736.67 176.5,-1736.67 176.5,-1744.33 176.5,-1744.33 176.5,-1748.17 172.67,-1752 168.83,-1752"/>
<text text-anchor="middle" x="109" y="-1736.8" font-family="Arial" font-size="14.00" fill="#cfffac">TooltipIcon/index.js</text>
</g>
<!-- UnitInput/index.js -->
<g id="node81" class="node">
<title>UnitInput/index.js</title>
<path fill="none" stroke="#c6c5fe" d="M397.33,-748C397.33,-748 288.67,-748 288.67,-748 284.83,-748 281,-744.17 281,-740.33 281,-740.33 281,-732.67 281,-732.67 281,-728.83 284.83,-725 288.67,-725 288.67,-725 397.33,-725 397.33,-725 401.17,-725 405,-728.83 405,-732.67 405,-732.67 405,-740.33 405,-740.33 405,-744.17 401.17,-748 397.33,-748"/>
<text text-anchor="middle" x="343" y="-732.8" font-family="Arial" font-size="14.00" fill="#c6c5fe">UnitInput/index.js</text>
</g>
<!-- UnitInput/index.js&#45;&gt;TextBox/index.js -->
<g id="edge78" class="edge">
<title>UnitInput/index.js&#45;&gt;TextBox/index.js</title>
<path fill="none" stroke="#757575" d="M405.27,-747.54C435.55,-753 472.19,-759.6 503.35,-765.22"/>
<polygon fill="#757575" stroke="#757575" points="502.8,-768.68 513.26,-767 504.04,-761.79 502.8,-768.68"/>
</g>
<!-- UnitInput/index.js&#45;&gt;RichSelect/index.js -->
<g id="edge77" class="edge">
<title>UnitInput/index.js&#45;&gt;RichSelect/index.js</title>
<path fill="none" stroke="#757575" d="M405.27,-736.5C432.81,-736.5 465.62,-736.5 494.78,-736.5"/>
<polygon fill="#757575" stroke="#757575" points="494.93,-740 504.93,-736.5 494.93,-733 494.93,-740"/>
</g>
<!-- VerificationCode/index.js -->
<g id="node82" class="node">
<title>VerificationCode/index.js</title>
<path fill="none" stroke="#cfffac" d="M186.33,-1793C186.33,-1793 31.67,-1793 31.67,-1793 27.83,-1793 24,-1789.17 24,-1785.33 24,-1785.33 24,-1777.67 24,-1777.67 24,-1773.83 27.83,-1770 31.67,-1770 31.67,-1770 186.33,-1770 186.33,-1770 190.17,-1770 194,-1773.83 194,-1777.67 194,-1777.67 194,-1785.33 194,-1785.33 194,-1789.17 190.17,-1793 186.33,-1793"/>
<text text-anchor="middle" x="109" y="-1777.8" font-family="Arial" font-size="14.00" fill="#cfffac">VerificationCode/index.js</text>
</g>
<!-- VolumeSize/index.js -->
<g id="node83" class="node">
<title>VolumeSize/index.js</title>
<path fill="none" stroke="#cfffac" d="M172.33,-1834C172.33,-1834 45.67,-1834 45.67,-1834 41.83,-1834 38,-1830.17 38,-1826.33 38,-1826.33 38,-1818.67 38,-1818.67 38,-1814.83 41.83,-1811 45.67,-1811 45.67,-1811 172.33,-1811 172.33,-1811 176.17,-1811 180,-1814.83 180,-1818.67 180,-1818.67 180,-1826.33 180,-1826.33 180,-1830.17 176.17,-1834 172.33,-1834"/>
<text text-anchor="middle" x="109" y="-1818.8" font-family="Arial" font-size="14.00" fill="#cfffac">VolumeSize/index.js</text>
</g>
</g>
</svg>
