<svg xmlns="http://www.w3.org/2000/svg" width="550" height="550" fill="none" viewBox="0 0 550 550">
    <g stroke="#222638" stroke-linejoin="round" stroke-width="2" clip-path="url(#a)">
        <path d="M257.936 301.078c0 7.768-6.296 14.064-14.065 14.064-6.122 0-11.331-3.913-13.261-9.379a302 302 0 0 1-8.647 1.473c13.328 7.249 27.308 17.321 37.659 30.919l10.546 5.928a14 14 0 0 1 5.377-1.07c7.032 0 12.858 5.16 13.896 11.9l12.396 6.965v-78.814a303 303 0 0 1-44.008 16.297c.067.559.107 1.131.107 1.708zM371.507 30.806q-.399.384-.825.736l3.718 2.09a147 147 0 0 0-2.893-2.826Z"/>
        <path d="M275.547 343.022c-1.903 0-3.722.382-5.377 1.069l19.277 10.835c-1.038-6.74-6.868-11.9-13.895-11.9zM62.164 400.89v77.518l64.364 36.173v-77.519zm76.014-110.532a14 14 0 0 1 1.158-.053c1.61 0 3.154.275 4.592.772a14 14 0 0 1-.244-1.251 58 58 0 0 0-5.506.528zm33.017.972c-1.579 6.034-7.072 10.488-13.603 10.488-1.611 0-3.155-.275-4.592-.771.257 1.064.399 2.178.399 3.327 0 .847-.08 1.677-.222 2.48 11.545 1.194 32.979 2.343 60.074-1.078a180 180 0 0 0-8.239-3.696c-13.967-5.838-26.656-9.153-33.813-10.75zm-42.508 3.354a1 1 0 0 0-.084.603 14.1 14.1 0 0 1 6.611-4.361c-4.162.998-5.897 2.453-6.527 3.762z"/>
        <path d="M205.005 302.079a177 177 0 0 1 8.239 3.696 292 292 0 0 0 4.725-.634 174 174 0 0 0-11.944-5.515c-14.22-5.945-27.161-9.308-34.415-10.928a14.4 14.4 0 0 1-.426 2.631c7.156 1.602 19.845 4.912 33.812 10.75z"/>
        <path d="M150.232 288.366a1.33 1.33 0 0 1-1.331 1.331c-1.908 0-3.643.045-5.218.129q.095.632.244 1.251a14.08 14.08 0 0 1 9.069 9.965c1.442.497 2.986.772 4.592.772 6.531 0 12.023-4.455 13.603-10.489a14.4 14.4 0 0 0 .461-3.576c0-7.768-6.296-14.064-14.064-14.064-7.769 0-13.745 5.985-14.047 13.483 1.668-.088 3.447-.137 5.355-.137.737 0 1.331.594 1.331 1.331zm93.639 26.775c7.768 0 14.064-6.295 14.064-14.064 0-.581-.04-1.149-.107-1.708-.905.257-1.81.523-2.715.772q-.179.048-.35.049a1.332 1.332 0 0 1-.351-2.618c.954-.262 1.899-.537 2.849-.807-1.824-5.657-7.126-9.748-13.386-9.748-7.769 0-14.064 6.296-14.064 14.064a14 14 0 0 0 .803 4.686c1.93 5.461 7.138 9.379 13.261 9.379z"/>
        <path d="M230.61 305.762a14 14 0 0 1-.647-2.586 293 293 0 0 1-16.714 2.6c-27.095 3.416-48.528 2.271-60.073 1.078-5.949-.617-9.277-1.247-9.388-1.269a1.331 1.331 0 1 0-.51 2.613c.226.045 3.434.661 9.166 1.278 4.322.466 10.08.927 17.095 1.14 2.4.076 5.027.12 7.857.12 10.755 0 24.469-.648 40.122-2.84q2.201-.308 4.45-.656a293 293 0 0 0 8.647-1.473zm-101.923-11.078c.634-1.309 2.365-2.764 6.526-3.762a14.2 14.2 0 0 1 2.964-.564 59 59 0 0 1 5.506-.528 98 98 0 0 1 5.218-.128 1.33 1.33 0 0 0 1.331-1.331 1.33 1.33 0 0 0-1.331-1.331q-2.861-.001-5.355.137c-9.788.528-15.453 2.622-17.255 6.353-.741 1.531-.306 3 .621 4.255a14 14 0 0 1 1.695-2.493 1 1 0 0 1 .084-.604z"/>
        <path d="M138.177 290.358a14.2 14.2 0 0 0-2.964.563 35 35 0 0 1 2.964-.563Z"/>
        <path d="M142.222 306.636a1.334 1.334 0 0 1 1.562-1.051c.111.022 3.438.652 9.388 1.269a14.3 14.3 0 0 0 .222-2.481 14.2 14.2 0 0 0-.399-3.327 14.09 14.09 0 0 0-9.069-9.965 14 14 0 0 0-4.592-.772c-.391 0-.777.022-1.158.053a35 35 0 0 0-2.964.564 14.1 14.1 0 0 0-6.61 4.361 13.97 13.97 0 0 0-3.332 9.082c0 7.769 6.295 14.064 14.064 14.064 5.967 0 11.061-3.718 13.102-8.957-5.733-.617-8.94-1.234-9.167-1.278a1.33 1.33 0 0 1-1.051-1.562zm-15.694 130.427 53.99-29.367v-13.838l-51.852-29.145-66.502 36.177zm-64.366-36.16 64.361 36.177z"/>
        <path d="M126.525 437.062v77.519l53.991-29.367v-77.518z"/>
        <path d="M180.516 367.251v138.576L244.879 542V403.424zm121.321 5.191-56.958 30.982V542l66.497-36.173V367.251zM407.614 80.049c-5.209-10.71-11.185-19.846-16.43-26.891-6.468-8.692-12.64-15.36-16.784-19.522l-3.718-2.09a14 14 0 0 1-10.559 3.15l-58.285 31.705 64.363 36.173 41.417-22.53zm2.34-1.273 22.743-12.374-50.472-28.369a188 188 0 0 1 11.051 13.474c5.325 7.144 11.385 16.403 16.678 27.264z"/>
        <path d="M370.969 26.706c.031.027.852.737 2.263 2.072a14 14 0 0 0 2.537-8.052c0-7.77-6.295-14.065-14.064-14.065s-14.064 6.296-14.064 14.065c0 7.231 5.457 13.185 12.476 13.97.519.058 1.047.094 1.584.094 3.411 0 6.539-1.22 8.975-3.243q.426-.353.825-.737a74 74 0 0 0-2.271-2.08 1.33 1.33 0 1 1 1.734-2.02zm-16.836 224.653a333 333 0 0 1-9.637 7.25l9.637-5.244zm.002-3.385v-66.777l12.063-6.562v-72.057l-64.363-36.172v83.818c8.7 10.613 15.506 22.716 19.428 35.507 7.139 23.284 3.203 43.888-8.758 57.158l-4.326 5.218c.297-.315.595-.63.883-.949a44 44 0 0 1-3.478 4.077l-.009.009c-1.043 1.255-2.325 2.405-3.745 3.452v25.444a307 307 0 0 0 31.461-16.944c7.378-4.978 14.344-10.067 20.839-15.218zm12.062 87.368V317.99l-12.064-6.779-51.075-28.71c-.408.191-.812.382-1.22.572v78.814l9.539 5.364v116.522l54.82 30.813zm57.234-196.932a111 111 0 0 1-.585 7.857l9.854 5.537v-18.616a14.05 14.05 0 0 1-9.269 5.226z"/>
        <path d="M420.765 138.489c-7.343-.47-13.155-6.571-13.155-14.029 0-6.624 4.583-12.178 10.75-13.665-2.382-11.198-6.282-21.553-10.75-30.746l-41.417 22.529v72.057l54.075-29.415c.231-2.236.399-4.481.488-6.731zm.239-28.075c.222-.009.444-.018.67-.018 4.468 0 8.448 2.09 11.026 5.337V66.401l-22.743 12.374c4.601 9.442 8.616 20.099 11.052 31.639z"/>
        <path d="M432.699 115.733c-2.578-3.252-6.557-5.337-11.025-5.337a14.4 14.4 0 0 0-3.314.395c-6.168 1.491-10.751 7.041-10.751 13.665 0 7.463 5.812 13.563 13.155 14.029.053-1.367.093-2.733.093-4.104a1.328 1.328 0 1 1 2.658.009c0 1.34-.04 2.68-.089 4.019a14.03 14.03 0 0 0 9.269-5.226 14 14 0 0 0 3.039-8.723c0-3.296-1.136-6.326-3.039-8.722z"/>
        <path d="M409.956 78.776c-5.293-10.866-11.354-20.12-16.678-27.264a188 188 0 0 0-11.052-13.474c-3.811-4.228-6.992-7.37-8.993-9.255-1.411-1.331-2.236-2.046-2.263-2.072a1.33 1.33 0 0 0-1.876.142 1.33 1.33 0 0 0 .142 1.876c.031.027.856.741 2.271 2.081.79.746 1.77 1.7 2.893 2.826 4.144 4.162 10.315 10.83 16.784 19.522 5.244 7.045 11.22 16.18 16.429 26.891 4.468 9.193 8.368 19.544 10.75 30.746a14 14 0 0 1 2.645-.377c-2.436-11.544-6.451-22.197-11.052-31.638zM396.339 204.92c13.807-19.229 21.82-39.212 23.932-59.7l-54.075 29.415-12.063 6.562 12.063 6.779z"/>
        <path d="m398.676 206.234 19.819 11.14 14.202-7.724 52.3-28.448-52.3-29.393-9.854-5.538c-2.267 20.6-10.364 40.667-24.171 59.967z"/>
        <path d="M386.339 221.589a14.02 14.02 0 0 1 4.166 9.992c0 7.768-6.296 14.064-14.064 14.064a14.03 14.03 0 0 1-10.143-4.326 291 291 0 0 1-12.165 10.05v2.005l12.063-6.562 2.139-1.162 50.161 28.191v-56.462l-19.819-11.141a183 183 0 0 1-12.334 15.356zm-23.957 9.987c0-7.768 6.296-14.064 14.064-14.064 2.902 0 5.595.878 7.836 2.382q6.627-7.409 12.063-14.978l-30.143-16.944-12.063-6.779v66.777a285 285 0 0 0 10.51-8.749 14 14 0 0 1-2.262-7.649z"/>
        <path d="M376.445 217.516c-7.768 0-14.064 6.296-14.064 14.065 0 2.821.834 5.443 2.263 7.648.581-.51 1.162-1.02 1.734-1.535a1.333 1.333 0 0 1 1.775 1.988q-.918.819-1.85 1.637a14.02 14.02 0 0 0 10.142 4.326c7.769 0 14.065-6.296 14.065-14.064 0-3.909-1.593-7.441-4.166-9.992a14 14 0 0 0-9.894-4.073z"/>
        <path d="M422.191 133.058a1.33 1.33 0 0 0-1.331 1.327c0 1.371-.04 2.737-.094 4.104-.088 2.249-.257 4.49-.488 6.73-2.112 20.489-10.124 40.472-23.931 59.701-3.625 5.044-7.645 10.04-12.064 14.978a14 14 0 0 1 2.059 1.69c4.521-5.057 8.634-10.182 12.334-15.355 13.807-19.295 21.9-39.367 24.171-59.967q.433-3.912.586-7.857c.053-1.34.089-2.676.089-4.02 0-.736-.595-1.331-1.327-1.335zm10.509 76.587-14.202 7.724v56.462l14.202 7.986v160.596l52.3-28.448V181.197z"/>
        <path d="m366.196 246.802-12.064 6.562-9.636 5.245a365 365 0 0 1-9.735 6.806l-.044.031a309 309 0 0 1-31.66 17.059l51.075 28.71 12.064 6.779 52.3-28.448 14.201-7.725-14.201-7.981-50.162-28.191-2.138 1.162z"/>
        <path d="M368.261 237.796a1.334 1.334 0 0 0-1.882-.106c-.572.51-1.153 1.025-1.734 1.535a286 286 0 0 1-10.511 8.749c-6.495 5.151-13.461 10.24-20.839 15.218a307 307 0 0 1-31.461 16.944 301 301 0 0 1-44.58 16.629c-.95.27-1.899.545-2.848.807a1.334 1.334 0 0 0 .35 2.618c.115 0 .235-.018.351-.049.909-.249 1.81-.515 2.715-.772a303.4 303.4 0 0 0 44.008-16.296c.408-.186.812-.382 1.22-.572a309 309 0 0 0 31.66-17.06l.044-.031a346 346 0 0 0 9.735-6.806 318 318 0 0 0 9.636-7.249 286 286 0 0 0 12.166-10.049c.621-.546 1.242-1.092 1.85-1.638.55-.488.594-1.331.106-1.881zm64.438 44.021-14.202 7.725-52.3 28.448v196.591l66.502-36.173zM221.964 307.24c-1.5.235-2.986.452-4.45.656 12.218 6.296 25.298 14.992 35.689 26.652l6.424 3.611c-10.351-13.598-24.331-23.67-37.659-30.919zm79.874 54.647-12.397-6.966-19.273-10.834-10.546-5.928-6.424-3.611-6.18-3.474-66.502 36.177 64.363 36.172 56.959-30.981 9.539-5.191zm-17.422-139.695v-.004zm-1.154 1.274q.367-.374.714-.768m-55.393-99.316c28.12.595 57.815 20.875 73.255 47.957 3.137 5.501 5.688 11.283 7.511 17.237 5.711 18.607 3.248 35.236-5.301 46.723 10.523-11.478 14.02-29.429 7.79-49.736-2.289-7.458-5.71-14.646-10-21.354-15.994-24.996-44.088-43.276-70.766-43.839-16.096-.342-28.767 5.825-36.478 16.19 7.822-8.532 19.521-13.484 33.989-13.178Z"/>
        <path d="M270.509 248.48c12.968.177 23.674-3.887 31.327-10.959a39 39 0 0 0 2.21-2.218c8.549-11.483 11.007-28.116 5.302-46.723-1.828-5.955-4.379-11.736-7.512-17.237-15.439-27.082-45.134-47.362-73.254-47.957-14.468-.306-26.168 4.646-33.99 13.178-8.563 11.504-11.012 28.173-5.24 46.86 10.959 35.481 47.344 64.59 81.157 65.056Zm-60.801-74.014 2.489-3.012 5.107.093c-.111-2.418-.014-4.694.297-6.819.816-5.546 2.866-9.899 6.123-13.093a18.6 18.6 0 0 1 3.704-4.108c3.975-3.248 9.193-4.81 15.68-4.681 4.046.08 8.012.83 11.903 2.232q5.813 2.101 11.159 5.874l-1.669 11.708-2.489 3.013a58 58 0 0 0-5.035-3.017 37 37 0 0 0-5.852-2.476 22.1 22.1 0 0 0-6.438-1.065c-3.549-.066-6.429.817-8.629 2.618q-1.453 2.67-1.766 6.624a27 27 0 0 0-.022 3.501l29.011.528-1.073 8.376-2.489 3.013-23.222-.413c.093.324.182.639.284.967.417 1.349.852 2.64 1.304 3.891l23.213.4-1.26 8.5-2.489 3.013-13.692-.231c.102.155.209.311.311.466 2.924 4.233 6.145 7.387 9.645 9.463q5.253 3.115 10.897 3.208 3.34.052 5.856-.807c1.677-.573 3.115-1.314 4.34-2.21 1.211-.896 2.222-1.792 3.008-2.719l8.988 11.872-2.493 3.008c-.044.058-.089.107-.133.16l-.297.364v-.009q-.353.394-.719.767l-.031.032q-.353.353-.728.687c-.026.022-.053.049-.08.071-.235.209-.479.408-.727.608-.049.04-.098.075-.151.115q-.348.267-.71.52l-.24.159c-.221.147-.443.293-.674.431-.12.071-.244.137-.368.208-.2.115-.404.231-.608.337q-.274.138-.555.271c-.159.075-.315.155-.479.231q-.54.239-1.1.452c-3.128 1.194-6.642 1.757-10.524 1.695-6.451-.098-12.693-1.832-18.705-5.231-6.025-3.385-11.407-8.23-16.168-14.499-2.298-3.035-4.352-6.349-6.171-9.952l-10.835-.182.36-8.536 2.489-3.012 3.27.057c-.089-.275-.182-.545-.267-.82a90 90 0 0 1-1.14-4.047l-9.809-.173.408-8.416z"/>
        <path d="M220.09 161.715c.586-3.966 1.801-7.32 3.634-10.08-3.257 3.19-5.302 7.543-6.123 13.093q-.464 3.194-.297 6.819l2.729.049c-.4-3.594-.378-6.877.057-9.881Zm40.267-1.575c-.297-.164-.59-.332-.896-.496"/>
        <path d="m211.791 179.871 3.421.062 6.389.115a94 94 0 0 0 1.14 4.046 94 94 0 0 0 1.304 3.896l-3.531-.062-3.27-.058-.129 3.052-.044 1.096-.182 4.388 10.834.182c1.819 3.603 3.874 6.917 6.172 9.952 4.76 6.273 10.138 11.114 16.167 14.499 6.012 3.398 12.254 5.133 18.705 5.231 3.878.057 7.396-.502 10.524-1.695.422-.16.825-.328 1.225-.51.257-.12.51-.249.758-.377.116-.058.236-.116.351-.178.319-.173.634-.355.936-.546.027-.017.058-.035.084-.053.528-.328 1.039-.67 1.518-1.047a16.7 16.7 0 0 0 2.737-2.684l-8.989-11.873c-.78.928-1.796 1.828-3.008 2.72-1.224.896-2.666 1.637-4.339 2.209q-2.516.86-5.856.808c-3.767-.058-7.396-1.127-10.897-3.208-3.5-2.076-6.721-5.235-9.645-9.463l-.311-.466a43 43 0 0 1-1.894-3.088l14.091.235 1.947.031 2.037.036 1.26-8.501-23.213-.4a88 88 0 0 1-1.304-3.891c-.102-.328-.191-.647-.284-.967a72 72 0 0 1-.843-3.07l24.455.435 2.098.035 1.074-8.376-29.012-.528a26 26 0 0 1 .023-3.501c.208-2.64.798-4.845 1.765-6.624a10.1 10.1 0 0 1 2.099-2.697c2.241-2.023 5.258-3.004 9.02-2.933q3.329.066 6.438 1.065a36 36 0 0 1 5.852 2.476c.306.164.598.332.896.497q1.166.649 2.254 1.313c.652.399 1.286.803 1.89 1.207l1.668-11.709q-5.344-3.773-11.158-5.874c-3.891-1.402-7.853-2.152-11.904-2.232-6.482-.128-11.704 1.438-15.68 4.681a18.8 18.8 0 0 0-3.704 4.108c-1.833 2.76-3.048 6.11-3.634 10.081-.439 3.003-.461 6.286-.058 9.88l-2.728-.049-5.107-.093-.146 3.057z"/>
        <path d="M222.741 184.09a89 89 0 0 1-1.141-4.047l-2.489 3.013a96 96 0 0 0 1.141 4.046c.084.275.177.546.266.821l3.531.062a84 84 0 0 1-1.304-3.895z"/>
        <path d="m221.6 180.044-6.389-.111-3.421-.062-2.493 3.012 9.814.173zm61.051 42.867c-.026.018-.057.035-.084.053q-.458.286-.936.546c-.115.062-.235.12-.351.177-.248.129-.501.258-.758.377-.4.182-.803.355-1.225.511-3.128 1.193-6.642 1.757-10.524 1.695-6.451-.098-12.693-1.833-18.705-5.231-6.025-3.386-11.407-8.23-16.167-14.5-2.299-3.034-4.353-6.348-6.172-9.951l-2.489 3.012c1.819 3.603 3.873 6.917 6.172 9.952 4.76 6.273 10.138 11.114 16.167 14.499 6.012 3.399 12.254 5.133 18.705 5.231 3.878.058 7.396-.501 10.524-1.695a20 20 0 0 0 1.101-.452c.164-.071.319-.156.479-.231.186-.089.377-.178.554-.271.209-.106.408-.222.608-.337.124-.071.249-.137.368-.208.231-.138.453-.284.675-.431.08-.053.164-.106.239-.159q.365-.253.71-.52l.151-.115q.374-.293.728-.608c.026-.022.053-.049.08-.071q.373-.334.727-.687l.031-.031a20 20 0 0 0 1.021-1.123c.044-.053.093-.102.137-.155l-.244-.329a17 17 0 0 1-1.517 1.048z"/>
        <path d="M284.282 222.347c.044-.053.092-.102.132-.155-.044.053-.093.102-.137.155zm-.118-.483.244.324 2.494-3.008a16.5 16.5 0 0 1-2.738 2.684Zm-.184.843.297-.359c-.098.119-.204.235-.306.355v.008zm-67.093-26.305-2.489 3.012 10.835.182 2.489-3.012zm43.472-36.262c-.297-.164-.59-.333-.896-.497a36.7 36.7 0 0 0-5.852-2.475 22.1 22.1 0 0 0-6.438-1.065c-3.758-.071-6.779.909-9.02 2.932q-1.245 1.126-2.098 2.698c2.196-1.801 5.08-2.684 8.629-2.618 2.223.045 4.366.4 6.438 1.065a36 36 0 0 1 5.852 2.476 58 58 0 0 1 5.035 3.017l2.489-3.013a55 55 0 0 0-1.89-1.207 63 63 0 0 0-2.253-1.313zm-24.707 20.152c.244.989.533 2.019.843 3.07l23.222.413 2.489-3.013-2.098-.035zm20.398 16.771-14.091-.235a45 45 0 0 0 1.894 3.088l13.692.23 2.489-3.012-2.036-.036-1.948-.031zm-44.002-22.552.15-3.057-2.489 3.013-.412 8.416 2.493-3.012z"/>
        <path d="m217.074 192.018.044-1.1.129-3.052-2.494 3.012-.355 8.537 2.489-3.013zm-31.09-63.121c-.044.058-.084.12-.129.178l2.228-2.746a45 45 0 0 0-2.099 2.568Z"/>
        <path d="M273.557 258.387c-39.052-.519-81.104-34.131-93.775-75.131-6.682-21.616-3.838-40.889 6.074-54.181l-1.726 2.125s-1.943 2.232-3.678 4.459c-.04.049-.075.097-.115.151-.777 1.002-1.495 1.992-1.97 2.768l-.027.049c-8.611 13.168-10.799 31.492-4.49 51.905 12.672 41 54.723 74.612 93.775 75.132 13.887.186 25.529-3.847 34.189-10.959l.018-.014v-3.158c-7.796 4.529-17.339 7.001-28.28 6.859zm32.025-7.152.009-.009a44 44 0 0 0 3.478-4.078c-.288.32-.585.639-.883.95l4.326-5.218a44.2 44.2 0 0 1-10.67 8.643v3.159c1.42-1.047 2.702-2.196 3.744-3.452z"/>
        <path d="M179.783 183.256c12.672 41 54.723 74.613 93.775 75.132 10.941.146 20.484-2.325 28.279-6.859a44.3 44.3 0 0 0 10.671-8.643c11.961-13.266 15.897-33.875 8.758-57.158-3.922-12.791-10.728-24.895-19.429-35.507-18.993-23.169-47.024-39.225-73.831-39.807-17.117-.372-30.884 5.631-39.922 15.915l-2.227 2.746c-9.911 13.288-12.755 32.566-6.074 54.181Zm14.81-46.696c7.711-10.36 20.382-16.531 36.479-16.19 26.678.564 54.771 18.843 70.765 43.84 4.291 6.703 7.716 13.891 10.001 21.353 6.229 20.307 2.733 38.258-7.791 49.736a38 38 0 0 1-2.21 2.218c-7.653 7.077-18.359 11.141-31.327 10.959-33.812-.466-70.193-29.575-81.157-65.055-5.772-18.688-3.323-35.361 5.24-46.861Z"/>
    </g>
    <defs>
        <clipPath id="a">
            <path fill="#fff" d="M0 0h550v550H0z"/>
        </clipPath>
    </defs>
</svg>
