<svg xmlns="http://www.w3.org/2000/svg" width="24" height="24" fill="none" viewBox="0 0 24 24">
    <path fill="#f0f0f0" d="M23.2536 16.1741C23.736 14.8741 24 13.468 24 12.0002C24 10.5323 23.736 9.12633 23.2536 7.82629L12 6.78281L0.746391 7.82629C0.264047 9.12633 0 10.5323 0 12.0002C0 13.468 0.264047 14.8741 0.746391 16.1741L12 17.2176L23.2536 16.1741Z"/>
    <path fill="#d80027" d="M12 24C17.16 24 21.558 20.744 23.254 16.174H.746C2.442 20.744 6.84 24 12 24ZM12 0C6.84 0 2.442 3.257.746 7.826H23.254C21.558 3.257 17.16 0 12 0Z"/>
</svg>
