<svg width="24" height="24" viewBox="0 0 24 24" fill="none" xmlns="http://www.w3.org/2000/svg">
<g>
<path d="M16.1741 0.746391C14.8741 0.264047 13.4681 0 12.0002 0C10.5324 0 9.12631 0.264047 7.82632 0.746391L6.78284 12L7.82632 23.2536C9.12631 23.736 10.5324 24 12.0002 24C13.4681 24 14.8741 23.736 16.1741 23.2536L17.2176 12L16.1741 0.746391Z" fill="#FFDA44"/>
<path d="M24.0001 11.9999C24.0001 6.84037 20.7436 2.44181 16.174 0.746338V23.2536C20.7436 21.558 24.0001 17.1595 24.0001 11.9999V11.9999Z" fill="#D80027"/>
<path d="M0 11.9999C0 17.1595 3.2565 21.558 7.82611 23.2536V0.746338C3.2565 2.44181 0 6.84037 0 11.9999V11.9999Z" fill="black"/>
</g>
<defs>
<clipPath id="clip0_3072_217">
<rect width="24" height="24" fill="white"/>
</clipPath>
</defs>
</svg>
