<svg width="24" height="24" viewBox="0 0 24 24" fill="none" xmlns="http://www.w3.org/2000/svg">
<g>
<path d="M24 12.0001C24 10.5322 23.736 9.12611 23.2536 7.82618L12 7.30441L0.746391 7.82613C0.264047 9.12611 0 10.5322 0 12.0001C0 13.4679 0.264047 14.874 0.746391 16.1739L12 16.6957L23.2536 16.174C23.736 14.874 24 13.4679 24 12.0001Z" fill="#496E2D"/>
<path d="M12.0001 24C17.1597 24 21.5582 20.7435 23.2537 16.1739H0.746521C2.44204 20.7435 6.84055 24 12.0001 24Z" fill="#D80027"/>
<path d="M0.746521 7.82611H23.2538C21.5582 3.2565 17.1597 0 12.0001 0C6.84055 0 2.44204 3.2565 0.746521 7.82611V7.82611Z" fill="#F0F0F0"/>
</g>
<defs>
<clipPath id="clip0_3072_214">
<rect width="24" height="24" fill="white"/>
</clipPath>
</defs>
</svg>
