<svg xmlns="http://www.w3.org/2000/svg" width="24" height="24" fill="none" viewBox="0 0 24 24">
    <path fill="#f0f0f0" d="M24 12C24 10.5321 23.736 9.12602 23.2536 7.82609L12 7.30432L0.746391 7.82604C0.264047 9.12602 0 10.5321 0 12C0 13.4678 0.264047 14.8739 0.746391 16.1739L12 16.6956L23.2536 16.1739C23.736 14.8739 24 13.4678 24 12Z"/>
    <path fill="#0052b4" d="M12.0001 24.0001C17.1597 24.0001 21.5582 20.7436 23.2537 16.174H0.746521C2.44204 20.7436 6.84055 24.0001 12.0001 24.0001Z"/>
    <path fill="#d80027" d="M0.746521 7.82611H23.2538C21.5582 3.2565 17.1597 0 12.0001 0C6.84055 0 2.44204 3.2565 0.746521 7.82611V7.82611Z"/>
    <path fill="#338af3" d="M15.131 8.348H13.044L13.392 5.739 14.783 4.696 16.174 5.739V7.826L15.131 8.348ZM8.869 8.348H10.957L10.609 5.739 9.217 4.696 7.826 5.739V7.826L8.869 8.348Z"/>
    <path fill="#0052b4" d="M13.391 8.34792H10.6083V5.73919L11.9996 4.69571L13.391 5.73919V8.34792Z"/>
    <path fill="#f0f0f0" d="M7.82605 7.82617V13.5653C7.82605 14.9318 8.48614 16.1471 9.50427 16.9089L10.2347 16.7262L11.1565 17.6535C11.429 17.7096 11.7111 17.7392 12 17.7392C12.2873 17.7392 12.568 17.71 12.8391 17.6544L13.8913 16.7783L14.4956 16.9073C15.5133 16.1454 16.1739 14.9314 16.1739 13.5653V7.82617H7.82605Z"/>
    <path fill="#d80027" d="M7.826 7.826H9.496V9.496H7.826V7.826ZM11.165 7.826H12.834V9.496H11.165V7.826ZM14.505 7.826H16.174V9.496H14.505V7.826ZM9.495 9.496H11.165V11.165H9.495V9.496ZM12.835 9.496H14.505V11.165H12.835V9.496ZM7.826 11.165H9.496V12.834H7.826V11.165ZM9.495 12.834H11.165V14.504H9.495V12.834ZM11.165 11.165H12.834V12.834H11.165V11.165ZM14.505 11.165H16.174V12.834H14.505V11.165ZM12.835 12.834H14.505V14.504H12.835V12.834ZM11.165 14.504H12.834V16.173H11.165V14.504ZM9.496 14.504H7.934C8.077 15.125 8.359 15.692 8.745 16.174H9.496V14.504ZM14.505 16.174H15.255C15.642 15.692 15.923 15.125 16.066 14.504H14.505V16.174ZM9.495 16.174V16.902C9.981 17.267 10.549 17.529 11.165 17.655V16.174H9.495ZM12.835 16.174V17.655C13.452 17.53 14.019 17.267 14.505 16.902V16.174H12.835Z"/>
</svg>
