<svg xmlns="http://www.w3.org/2000/svg" width="24" height="24" fill="none" viewBox="0 0 24 24">
    <path fill="#f0f0f0" d="M12 24C18.6274 24 24 18.6274 24 12C24 5.37258 18.6274 0 12 0C5.37258 0 0 5.37258 0 12C0 18.6274 5.37258 24 12 24Z"/>
    <path fill="#d80027" d="M9.391 10.435H23.898C23.131 4.547 18.097 0 12 0 11.104 0 10.231.099 9.391.285V10.435H9.391ZM6.261 10.435V1.459C2.966 3.257.607 6.555.102 10.435H6.261V10.435ZM6.261 13.565H.102C.607 17.445 2.966 20.743 6.261 22.541L6.261 13.565ZM9.391 13.565V23.715C10.231 23.901 11.104 24 12 24 18.097 24 23.131 19.453 23.898 13.565H9.391V13.565Z"/>
</svg>
