<svg xmlns="http://www.w3.org/2000/svg" width="24" height="24" fill="none" viewBox="0 0 24 24">
    <path fill="#f0f0f0" d="M12 24C18.6274 24 24 18.6274 24 12C24 5.37258 18.6274 0 12 0C5.37258 0 0 5.37258 0 12C0 18.6274 5.37258 24 12 24Z"/>
    <path fill="#0052b4" d="M23.8984 10.4348H9.39136H9.39131V0.285278C8.28234 0.531185 7.23098 0.929763 6.26086 1.45912V10.4347V10.4348H0.101578C0.0347813 10.9472 0 11.4696 0 12C0 12.5305 0.0347813 13.0529 0.101578 13.5652H6.26081H6.26086V22.5409C7.23098 23.0702 8.28234 23.4689 9.39131 23.7148V13.5654V13.5653H23.8984C23.9651 13.0529 24 12.5305 24 12C24 11.4696 23.9651 10.9472 23.8984 10.4348V10.4348Z"/>
</svg>
