<svg xmlns="http://www.w3.org/2000/svg" width="24" height="24" fill="none" viewBox="0 0 24 24">
    <path fill="#f0f0f0" d="M0.746391 7.82608C0.264047 9.12611 0 10.5321 0 12C0 13.4678 0.264047 14.8739 0.746391 16.1739L12 17.2174L23.2536 16.1739C23.736 14.8739 24 13.4678 24 12C24 10.5321 23.736 9.12611 23.2536 7.82608L12 6.78259L0.746391 7.82608Z"/>
    <path fill="#d80027" d="M12.0001 0C6.84061 0 2.44205 3.2565 0.746582 7.82611H23.2538C21.5582 3.2565 17.1598 0 12.0001 0V0Z"/>
    <path fill="#6da544" d="M12.0001 24.0001C17.1598 24.0001 21.5582 20.7436 23.2538 16.174H0.746582C2.44205 20.7436 6.84061 24.0001 12.0001 24.0001V24.0001Z"/>
</svg>
