<svg xmlns="http://www.w3.org/2000/svg" width="24" height="24" fill="none" viewBox="0 0 24 24">
    <path fill="#f0f0f0" d="M12 24C18.6274 24 24 18.6274 24 12C24 5.37258 18.6274 0 12 0C5.37258 0 0 5.37258 0 12C0 18.6274 5.37258 24 12 24Z"/>
    <path fill="#ff9811" d="M24.0001 12.0001C24.0001 6.84061 20.7436 2.44205 16.174 0.746582V23.2538C20.7436 21.5582 24.0001 17.1598 24.0001 12.0001V12.0001Z"/>
    <path fill="#6da544" d="M0 12.0001C0 17.1598 3.2565 21.5582 7.82611 23.2538V0.746582C3.2565 2.44205 0 6.84061 0 12.0001V12.0001Z"/>
</svg>
