<svg width="24" height="24" viewBox="0 0 24 24" fill="none" xmlns="http://www.w3.org/2000/svg">
<g>
<path d="M12 24C18.6274 24 24 18.6274 24 12C24 5.37258 18.6274 0 12 0C5.37258 0 0 5.37258 0 12C0 18.6274 5.37258 24 12 24Z" fill="#F0F0F0"/>
<path d="M12.0001 0C6.84055 0 2.44204 3.2565 0.746521 7.82611H23.2538C21.5582 3.2565 17.1597 0 12.0001 0Z" fill="#A2001D"/>
<path d="M12.0001 24C17.1597 24 21.5582 20.7435 23.2537 16.1739H0.746521C2.44204 20.7435 6.84055 24 12.0001 24Z" fill="#0052B4"/>
</g>
<defs>
<clipPath>
<rect width="24" height="24" fill="white"/>
</clipPath>
</defs>
</svg>
