<svg xmlns="http://www.w3.org/2000/svg" width="24" height="24" fill="none" viewBox="0 0 24 24">
    <path fill="#f0f0f0" d="M12 24c6.627 0 12-5.373 12-12S18.627 0 12 0 0 5.373 0 12s5.373 12 12 12"/>
    <path fill="#0052b4" d="M23.254 7.826h-12.82v-3.13h-6.26v3.13H.746A12 12 0 0 0 0 12c0 1.468.264 2.874.746 4.174L12 17.217l11.254-1.043c.482-1.3.746-2.706.746-4.174s-.264-2.874-.746-4.174"/>
    <path fill="#d80027" d="M12 24c5.16 0 9.558-3.256 11.254-7.826H.747C2.442 20.744 6.84 24 12 24"/>
    <path fill="#f0f0f0" d="M4.174 7.826v1.043c0 2.397 3.13 3.131 3.13 3.131s3.13-.734 3.13-3.13V7.825L9.392 8.87 7.304 7.304 5.217 8.87z"/>
</svg>
