<svg width="24" height="24" viewBox="0 0 24 24" fill="none" xmlns="http://www.w3.org/2000/svg">
<g>
<path d="M0 12C0 13.4678 0.264047 14.8739 0.746391 16.1739L12 17.2174L23.2536 16.1739C23.736 14.8739 24 13.4678 24 12C24 10.5321 23.736 9.12607 23.2536 7.82608L12 6.78259L0.746391 7.82608C0.264047 9.12607 0 10.5321 0 12H0Z" fill="#FFDA44"/>
<path d="M23.2528 7.82611C21.5573 3.25655 17.1588 0 11.9992 0C6.83964 0 2.44112 3.25655 0.745605 7.82611H23.2528Z" fill="#D80027"/>
<path d="M0.745605 16.174C2.44112 20.7435 6.83964 24.0001 11.9992 24.0001C17.1588 24.0001 21.5573 20.7435 23.2528 16.174H0.745605Z" fill="#D80027"/>
</g>
<defs>
<clipPath id="clip0_3072_197">
<rect width="24" height="24" fill="white"/>
</clipPath>
</defs>
</svg>
