<svg xmlns="http://www.w3.org/2000/svg" width="24" height="24" fill="none" viewBox="0 0 24 24">
    <path fill="#ffda44" d="M0 12C0 13.4678 0.264047 14.8739 0.746391 16.1739L12 17.2174L23.2536 16.1739C23.736 14.8739 24 13.4678 24 12C24 10.5321 23.736 9.12607 23.2536 7.82608L12 6.78259L0.746391 7.82608C0.264047 9.12607 0 10.5321 0 12H0Z"/>
    <path fill="#d80027" d="M23.253 7.826C21.557 3.257 17.159 0 11.999 0 6.84 0 2.441 3.257.746 7.826H23.253ZM.746 16.174C2.441 20.744 6.84 24 11.999 24 17.159 24 21.557 20.744 23.253 16.174H.746Z"/>
</svg>
