<svg xmlns="http://www.w3.org/2000/svg" width="24" height="24" fill="none" viewBox="0 0 24 24">
    <path fill="#f0f0f0" d="M12 24c6.627 0 12-5.373 12-12S18.627 0 12 0 0 5.373 0 12s5.373 12 12 12"/>
    <path fill="#d80027" d="M11.478 12H24c0-1.083-.145-2.132-.413-3.13H11.478zm0-6.26h10.76a12 12 0 0 0-2.768-3.131h-7.992zM12 24c2.824 0 5.42-.976 7.47-2.608H4.53A11.95 11.95 0 0 0 12 24M1.761 18.261h20.477a12 12 0 0 0 1.348-3.13H.413a11.9 11.9 0 0 0 1.348 3.13"/>
    <path fill="#0052b4" d="M5.559 1.874h1.093l-1.017.739.389 1.196-1.018-.74-1.017.74.336-1.033c-.896.746-1.68 1.62-2.328 2.594h.35l-.647.47q-.15.253-.29.513l.31.951-.578-.419q-.215.456-.392.932l.34 1.048h1.258l-1.017.74.388 1.195-1.017-.739-.61.443Q.002 11.24 0 12h12V0C9.63 0 7.42.688 5.559 1.874m.465 8.926-1.018-.739-1.017.739.389-1.196-1.017-.739h1.257l.388-1.195.389 1.195h1.257l-1.017.74zm-.389-4.691.389 1.195-1.018-.739-1.017.74.389-1.196-1.017-.74h1.257l.388-1.195.389 1.196h1.257zm4.693 4.691-1.017-.739-1.017.739.388-1.196-1.017-.739h1.257l.389-1.195.388 1.195h1.258l-1.018.74zm-.389-4.691.389 1.195-1.017-.739-1.017.74.388-1.196-1.017-.74h1.257l.389-1.195.388 1.196h1.258zm0-3.496.389 1.196-1.017-.74-1.017.74.388-1.196-1.017-.739h1.257L9.311.678l.388 1.196h1.258z"/>
</svg>
