<svg xmlns="http://www.w3.org/2000/svg" width="24" height="24" fill="none" viewBox="0 0 24 24">
    <path fill="#f0f0f0" d="M12 24C18.6274 24 24 18.6274 24 12C24 5.37258 18.6274 0 12 0C5.37258 0 0 5.37258 0 12C0 18.6274 5.37258 24 12 24Z"/>
    <path fill="#0052b4" d="M2.481 4.695C1.539 5.921.828 7.334.414 8.87H6.657L2.481 4.695ZM23.588 8.87C23.174 7.334 22.463 5.921 21.52 4.694L17.345 8.87H23.588ZM.414 15.131C.828 16.666 1.539 18.08 2.481 19.306L6.657 15.131H.414ZM19.307 2.481C18.08 1.538 16.667.827 15.131.414V6.656L19.307 2.481ZM4.695 21.52C5.922 22.462 7.335 23.173 8.871 23.587V17.344L4.695 21.52ZM8.871.414C7.335.827 5.922 1.538 4.695 2.481L8.871 6.656V.414ZM15.13 23.587C16.666 23.173 18.079 22.462 19.306 21.52L15.13 17.344V23.587ZM17.345 15.131 21.52 19.306C22.463 18.08 23.174 16.666 23.588 15.131H17.345Z"/>
    <path fill="#d80027" d="M23.8984 10.4348H13.5653H13.5653V0.101578C13.0529 0.034875 12.5305 0 12 0C11.4694 0 10.9471 0.034875 10.4348 0.101578V10.4347V10.4347H0.101578C0.034875 10.9471 0 11.4695 0 12C0 12.5306 0.034875 13.0529 0.101578 13.5652H10.4347H10.4347V23.8984C10.9471 23.9651 11.4694 24 12 24C12.5305 24 13.0529 23.9652 13.5652 23.8984V13.5653V13.5653H23.8984C23.9651 13.0529 24 12.5306 24 12C24 11.4695 23.9651 10.9471 23.8984 10.4348Z"/>
    <path fill="#d80027" d="M15.13 15.13 20.485 20.485C20.731 20.239 20.966 19.982 21.19 19.715L16.606 15.13H15.13V15.13ZM8.869 15.13H8.869L3.514 20.485C3.76 20.731 4.018 20.966 4.285 21.191L8.869 16.606V15.13ZM8.869 8.87V8.87L3.514 3.515C3.268 3.761 3.033 4.018 2.809 4.285L7.393 8.87H8.869V8.87ZM15.13 8.87 20.485 3.515C20.239 3.268 19.982 3.033 19.715 2.809L15.13 7.394V8.87Z"/>
</svg>
