<svg xmlns="http://www.w3.org/2000/svg" width="550" height="550" fill="none" viewBox="0 0 550 550">
    <path fill="#fff" d="M165.856 135.842c.412 6.361 2.568 12.587 6.411 18.506 3.404 5.247 8.1 10.21 13.957 14.755q.03.03.065.057c20.531 15.882 53.793 25.364 88.974 25.364s68.444-9.482 88.974-25.364c5.889-4.557 10.61-9.541 14.031-14.813 3.831-5.904 5.982-12.107 6.403-18.523.001-.011.007-.019.008-.03l.002-.077.002-.016-.001-.009c.042-.687.072-1.374.072-2.068 0-33.58-49.118-60.9-109.491-60.9s-109.493 27.32-109.493 60.9c0 .725.029 1.448.074 2.169.001.018.01.032.012.049m211.216 17.729c-3.335 5.137-7.947 10.002-13.707 14.46-20.289 15.695-53.225 25.066-88.102 25.066-34.834 0-67.731-9.348-88.027-25.009l-.065-.057c-5.764-4.461-10.376-9.326-13.707-14.46-3.719-5.727-5.801-11.74-6.188-17.783.832-13.453 9.819-26.162 25.528-36.35a100 100 0 0 1 7.138-4.206c20.291-10.872 47.039-16.86 75.317-16.86h.004c28.279 0 55.028 5.988 75.319 16.86 20.107 10.773 31.709 25.167 32.671 40.534-.398 6.101-2.475 12.091-6.181 17.805m-101.809-79.42c53.435 0 97.933 21.456 106.552 49.535a41 41 0 0 0-1.159-2.494 43 43 0 0 0-1.272-2.342l-.106-.18a47 47 0 0 0-1.445-2.302l-.052-.076a52 52 0 0 0-3.553-4.675 59 59 0 0 0-1.925-2.149l-.155-.164a65 65 0 0 0-2.153-2.166 71 71 0 0 0-4.837-4.224 81 81 0 0 0-2.536-1.939l-.171-.125a86 86 0 0 0-2.69-1.888l-.045-.03a95 95 0 0 0-5.946-3.68l-.046-.026a106 106 0 0 0-3.26-1.78c-4.321-2.263-8.975-4.33-13.919-6.178l-.09-.034a150 150 0 0 0-15.74-4.873l-.034-.009c-11.055-2.78-23.101-4.57-35.777-5.177h-.026c-3.166-.152-6.37-.233-9.609-.233-3.227 0-6.419.08-9.573.23l-.129.007c-4.727.227-9.367.618-13.901 1.165l-.035.004q-2.204.267-4.373.583l-.276.04q-2.144.314-4.252.673l-.166.03a173 173 0 0 0-8.352 1.646l-.299.065a165 165 0 0 0-8.011 2.015l-.498.142q-1.842.519-3.644 1.074l-.143.046c-1.131.351-2.247.717-3.352 1.09l-.692.233a140 140 0 0 0-6.889 2.57q-.487.2-.968.4a125 125 0 0 0-3.636 1.574q-1.013.458-2.006.93-.594.28-1.18.563a112 112 0 0 0-5.279 2.761 101 101 0 0 0-2.743 1.59q-1.215.73-2.386 1.48-.346.22-.689.444c-11.021 7.202-19.082 15.867-23.111 25.452 8.57-28.11 53.1-49.598 106.577-49.598"/>
    <path fill="#fff" d="M275.263 88.598c-49.569 0-89.898 22.455-89.898 50.058 0 .6.025 1.19.061 1.785.333 5.256 2.11 10.397 5.281 15.278 2.811 4.331 6.69 8.427 11.531 12.175 16.857 13.039 44.156 20.824 73.025 20.824 28.88 0 56.179-7.785 73.026-20.824 4.837-3.739 8.716-7.836 11.53-12.175 3.145-4.845 4.914-9.938 5.268-15.224.002-.018.012-.034.013-.053.038-.591.063-1.186.063-1.786 0-27.603-40.329-50.058-89.9-50.058m0 1.426c42.22 0 77.628 16.342 86.392 38.122l-.022-.041a36 36 0 0 0-1.179-2.099c-.142-.236-.298-.468-.447-.703-.298-.471-.603-.94-.925-1.405-.186-.267-.38-.532-.573-.796a42 42 0 0 0-1.613-2.077 46 46 0 0 0-1.097-1.272c-.216-.244-.428-.488-.651-.729a51 51 0 0 0-1.418-1.461c-.159-.158-.309-.32-.471-.477a56 56 0 0 0-2.019-1.862c-.208-.183-.43-.362-.643-.543a58 58 0 0 0-1.542-1.282c-.288-.229-.584-.454-.879-.681a64 64 0 0 0-3.961-2.832c-.328-.218-.654-.436-.988-.651-.578-.37-1.17-.733-1.767-1.094-.29-.175-.573-.354-.867-.527a85 85 0 0 0-2.72-1.532c-.179-.097-.368-.189-.549-.285a94 94 0 0 0-2.328-1.194c-.356-.175-.72-.344-1.081-.517q-.95-.455-1.923-.897a109 109 0 0 0-3.147-1.354q-.624-.258-1.258-.511-1.03-.407-2.083-.798c-.391-.146-.779-.296-1.175-.439q-1.356-.487-2.745-.949c-.202-.067-.398-.139-.601-.205q-1.686-.55-3.419-1.06c-.367-.108-.742-.21-1.113-.315q-1.209-.347-2.44-.674c-.452-.12-.909-.233-1.364-.349a136 136 0 0 0-3.741-.89 140 140 0 0 0-2.376-.505c-.464-.095-.926-.192-1.393-.282q-1.374-.265-2.767-.505c-.354-.061-.703-.129-1.059-.188a150 150 0 0 0-3.882-.594c-.291-.04-.588-.074-.881-.113a153 153 0 0 0-3.093-.385c-.47-.053-.945-.099-1.418-.148q-1.313-.137-2.639-.254a162 162 0 0 0-4.174-.305c-.517-.03-1.034-.063-1.553-.089q-1.414-.07-2.839-.116c-.449-.015-.895-.035-1.346-.047-1.4-.035-2.806-.057-4.223-.057s-2.822.022-4.222.057c-.451.012-.897.032-1.347.047-.949.032-1.896.068-2.837.116q-.78.04-1.555.09a160 160 0 0 0-6.827.56c-.465.048-.932.093-1.395.145q-1.603.183-3.185.397c-.26.035-.523.064-.782.1q-1.978.277-3.922.6c-.301.05-.596.108-.896.16q-1.487.255-2.951.538c-.415.08-.825.167-1.237.25a140 140 0 0 0-3.828.835q-1.29.302-2.559.624-.554.14-1.104.282-1.488.392-2.944.814c-.2.058-.403.112-.602.17a120 120 0 0 0-7.046 2.31c-.173.063-.341.128-.513.192q-1.437.528-2.834 1.087l-.629.255q-1.379.563-2.717 1.152l-.484.213q-1.543.69-3.03 1.415l-.009.005c-12.654 6.191-22.138 14.346-26.933 23.668 8.769-21.776 44.174-38.115 86.388-38.115m83.36 64.918c-2.728 4.205-6.499 8.182-11.206 11.823-16.606 12.853-43.579 20.526-72.154 20.526-28.563 0-55.536-7.673-72.152-20.526-4.713-3.649-8.484-7.627-11.207-11.823-3.036-4.673-4.736-9.581-5.053-14.501.777-12.56 10.267-24.333 26.72-33.149 16.618-8.905 38.527-13.808 61.692-13.808 23.166 0 45.074 4.903 61.692 13.808 16.435 8.806 25.92 20.562 26.717 33.107-.323 4.984-2.021 9.878-5.049 14.543"/>
    <path fill="#fff" d="M397.662 184.647a39.2 39.2 0 0 0 1.048-8.928v-41.983c0-.038.005-.075.005-.112 0-37.84-55.381-68.624-123.452-68.624-68.056 0-123.426 30.772-123.449 68.6l-.005.024v42.095c0 2.998.36 5.982 1.049 8.936C108.457 205.001 83 234.976 83 266.962c0 12.429 3.815 24.609 11.338 36.202 5.992 9.233 14.263 17.963 24.582 25.947 10.019 7.752 21.772 14.632 34.84 20.531a44.5 44.5 0 0 0 2.545 6.224c-2.975 5.968-4.492 12.159-4.492 18.41l.004.188v41.911c0 37.839 55.38 68.625 123.452 68.625 68.071 0 123.45-30.786 123.45-68.625V374.28c0-.009-.005-.016-.005-.025-.004-6.24-1.521-12.422-4.491-18.381a44.4 44.4 0 0 0 2.548-6.23c13.071-5.9 24.824-12.78 34.844-20.533 10.32-7.983 18.59-16.713 24.582-25.947 7.524-11.594 11.34-23.773 11.34-36.202 0-31.974-25.467-61.965-69.875-82.315m-.379-40.538v31.61c0 6.136-1.511 12.22-4.489 18.086-.207.405-.426.811-.642 1.212-7.421 13.617-22.949 25.854-43.724 34.457a.7.7 0 0 0-.173.106l-.004.003a.7.7 0 0 0-.117.129l-.024.028a.7.7 0 0 0-.066.14q-.012.026-.023.055a.7.7 0 0 0-.021.139c-.001.02-.009.038-.009.059v36.825a.71.71 0 0 0 .318.593.7.7 0 0 0 .367.112c.01 0 .019.009.029.009a.7.7 0 0 0 .274-.055 144 144 0 0 0 2.712-1.157c.285-.124.564-.251.846-.377a132 132 0 0 0 7.043-3.379c.275-.142.553-.283.825-.426q1.09-.573 2.15-1.159l.261-.141q1.181-.658 2.326-1.329c.243-.143.48-.288.72-.431q.78-.464 1.545-.935.422-.263.838-.527a96 96 0 0 0 2.208-1.432q.683-.457 1.351-.921c.251-.174.505-.346.753-.521a100 100 0 0 0 1.59-1.151c.14-.103.285-.205.424-.309a89 89 0 0 0 1.91-1.469c.206-.162.404-.327.607-.49q.633-.508 1.25-1.023.36-.302.712-.606a78 78 0 0 0 1.788-1.579q.53-.483 1.044-.971c.216-.204.434-.408.645-.613.39-.378.769-.758 1.145-1.14.15-.153.306-.304.454-.457a68 68 0 0 0 1.483-1.584c.163-.18.318-.361.478-.542.324-.365.646-.732.958-1.101.189-.222.371-.447.556-.67q.411-.5.809-1.004.275-.349.542-.7.388-.508.76-1.021.25-.34.494-.683.405-.575.79-1.156c.124-.185.253-.369.374-.556q.547-.84 1.054-1.689c.107-.18.206-.361.311-.542q.351-.601.683-1.207.189-.351.37-.704a43 43 0 0 0 1.389-2.893q.159-.36.312-.722.249-.6.478-1.204c.077-.201.159-.401.233-.602q.325-.888.609-1.782c.054-.168.099-.337.15-.505.112-.369.226-.738.328-1.109v31.539c0 17.99-12.906 34.351-33.885 46.425-.955.55-1.929 1.085-2.91 1.614q-1.15.619-2.327 1.22-.827.423-1.665.836c-16.319 8.034-36.57 13.691-58.947 15.975q-.724.075-1.451.143a212 212 0 0 1-7.169.561q-.914.056-1.833.107c-1.724.09-3.454.165-5.194.216l-.506.016q-3.054.084-6.137.085-3.082-.001-6.136-.085l-.505-.016a222 222 0 0 1-14.19-.883q-.735-.07-1.466-.144c-22.35-2.283-42.579-7.93-58.887-15.95q-.896-.44-1.778-.892-1.124-.574-2.222-1.165a121 121 0 0 1-3.039-1.686q-1.033-.596-2.041-1.205l-.036-.022a103 103 0 0 1-1.877-1.165l-.157-.1a99 99 0 0 1-5.208-3.556q-.126-.09-.252-.183a95 95 0 0 1-1.346-1.015q-.3-.23-.596-.46a86 86 0 0 1-1.216-.965 87 87 0 0 1-.645-.53c-.385-.319-.771-.637-1.147-.959-.183-.157-.358-.316-.538-.473a78 78 0 0 1-1.878-1.696c-.281-.263-.564-.524-.838-.789-10.193-9.812-16.025-21.167-16.025-33.259v-31.652l.027.085c.253.91.545 1.812.862 2.71.046.131.088.263.135.393.317.87.669 1.733 1.044 2.591l.227.516a48 48 0 0 0 1.506 3.024q.668 1.237 1.418 2.455.146.233.296.466a53 53 0 0 0 1.659 2.483c.065.093.136.184.202.276q.855 1.185 1.786 2.347c.089.112.174.225.265.336.64.789 1.312 1.567 2.004 2.34q.21.237.423.473a70 70 0 0 0 2.119 2.216q.252.254.509.507a77 77 0 0 0 2.277 2.149q.261.235.525.467c.809.72 1.636 1.432 2.492 2.134.14.115.286.228.427.343a89 89 0 0 0 2.591 2.02c.105.078.206.159.312.237.929.691 1.888 1.37 2.863 2.04.192.132.38.265.574.396a105 105 0 0 0 2.902 1.893q.35.221.705.442a111 111 0 0 0 3.748 2.22q1.565.89 3.186 1.747.327.171.658.341 1.648.86 3.352 1.686l.46.22q1.683.805 3.417 1.575l.667.299q1.763.772 3.577 1.509.429.176.861.349a154 154 0 0 0 4.552 1.736q1.852.674 3.749 1.313l.88.29c1.308.431 2.628.853 3.967 1.258.215.065.433.126.648.191q1.898.565 3.834 1.095.357.1.715.197 2.042.547 4.124 1.053.5.124 1.003.245a192 192 0 0 0 5.211 1.162q2.066.432 4.166.823l1.1.2q2.148.389 4.328.735.463.072.929.14 2.077.32 4.184.598l.847.113q2.191.278 4.411.513c.369.039.737.081 1.107.118a219 219 0 0 0 5.723.501 222 222 0 0 0 10.315.526l1.182.025q2.233.051 4.485.057c.154.001.307.006.461.006l.026.002c16.946 0 33.368-1.874 48.81-5.569.015-.003.027-.013.042-.018.024-.007.048-.004.071-.014.032-.013.059-.035.088-.053l.032-.019a1 1 0 0 0 .093-.073l.003-.004.056-.062.012-.013a.7.7 0 0 0 .156-.437c0-.01-.005-.017-.005-.027v-36.791a.712.712 0 0 0-.881-.694l-.051.012q-1.284.308-2.606.603l-.299.065a190 190 0 0 1-2.58.554c-13.724 2.846-28.172 4.29-42.943 4.29-53.447 0-101.512-19.698-116.888-47.9a48 48 0 0 1-.642-1.211l-.009-.01c-2.977-5.862-4.486-11.944-4.486-18.077v-31.612c.125.457.265.914.407 1.37l.009.028c.291.929.621 1.854.981 2.775l.085.219a44 44 0 0 0 1.281 2.918c.434.902.897 1.8 1.398 2.692l.056.097a52 52 0 0 0 1.663 2.756c3.854 5.936 9.173 11.55 15.809 16.685 23.151 17.909 60.658 28.602 100.334 28.602h.004c39.677 0 77.186-10.693 100.336-28.602 6.637-5.136 11.955-10.75 15.809-16.685.047-.073.087-.148.134-.222q.714-1.115 1.357-2.243c.103-.179.21-.357.31-.537q.642-1.159 1.208-2.328a41 41 0 0 0 1.317-2.956q.126-.318.247-.637c.303-.789.587-1.581.84-2.376.058-.182.107-.366.163-.549.101-.334.206-.669.299-1.005m-1.682 204.506c-33.679 15.082-76.123 23.62-120.332 23.62s-86.659-8.539-120.338-23.622c-1.12-3.674-1.691-7.405-1.691-11.155v-26.132a98 98 0 0 0 3.098 2.525q.483.961 1.017 1.916l.19.33a52 52 0 0 0 1.574 2.601c3.855 5.942 9.173 11.556 15.809 16.687 23.149 17.91 60.658 28.601 100.335 28.601 3.718 0 7.417-.094 11.087-.279.566-.028 1.129-.066 1.693-.099.658-.038 1.317-.072 1.973-.116q.252-.02.505-.038 1.571-.108 3.135-.238l.277-.025q1.675-.142 3.34-.31l.058-.006q1.773-.18 3.532-.387l.014-.002q1.78-.21 3.545-.45l.536-.077c1.002-.139 2.002-.28 2.996-.432l.328-.054q1.594-.244 3.172-.513l.104-.019a200 200 0 0 0 6.827-1.291 189 189 0 0 0 10.023-2.363 174 174 0 0 0 9.583-2.831l.095-.032q1.517-.498 3.007-1.018l.087-.031a157 157 0 0 0 5.949-2.22l.168-.068q1.396-.555 2.765-1.132l.028-.012a141 141 0 0 0 2.839-1.236l.158-.073q1.337-.6 2.644-1.222l.319-.157q1.223-.585 2.42-1.187l.268-.14a123 123 0 0 0 2.4-1.25c.116-.062.227-.127.342-.189.76-.411 1.515-.825 2.257-1.248.12-.068.236-.139.356-.208.731-.42 1.457-.842 2.169-1.273.142-.086.279-.175.42-.262a98 98 0 0 0 2.029-1.264c.16-.102.314-.209.472-.312a95 95 0 0 0 1.902-1.259c.158-.108.31-.22.467-.329.615-.424 1.228-.85 1.826-1.284.18-.132.353-.267.532-.399.555-.409 1.11-.818 1.649-1.235q.022-.014.043-.03c6.639-5.134 11.958-10.748 15.809-16.688a52 52 0 0 0 1.652-2.735l.073-.127q.558-.99 1.06-1.989a102 102 0 0 0 3.095-2.524v26.135c0 3.752-.571 7.483-1.69 11.157M321.077 239.47a162 162 0 0 0 2.116-.481v34.18l-.588-.594-3.537-3.575v-29.096c.311-.066.594-.129.895-.194zm-45.814 4.874q2.762 0 5.507-.068c.531-.013 1.059-.04 1.589-.057 1.296-.041 2.593-.08 3.883-.143.662-.033 1.319-.082 1.98-.12 1.152-.067 2.305-.129 3.452-.214.713-.052 1.421-.122 2.132-.181 1.088-.091 2.177-.177 3.259-.284.734-.073 1.461-.162 2.192-.242 1.051-.115 2.104-.226 3.15-.356.745-.093 1.483-.202 2.225-.303 1.023-.138 2.047-.272 3.064-.426.752-.113 1.496-.242 2.245-.364.996-.162 1.995-.319 2.985-.495.756-.134 1.505-.284 2.257-.427.819-.155 1.643-.299 2.457-.464v28.51c-.816.175-1.64.335-2.461.5-.795.16-1.587.328-2.387.478-.935.175-1.879.33-2.82.492-.791.135-1.579.281-2.375.407-.964.153-1.937.285-2.907.425-.784.112-1.564.235-2.352.338-.995.13-1.998.239-2.999.355-.773.089-1.542.189-2.318.27-1.032.107-2.073.192-3.111.284-.754.066-1.504.145-2.261.203-1.091.084-2.19.145-3.287.213-.711.044-1.419.099-2.132.136-1.224.062-2.456.1-3.686.142-.593.02-1.183.052-1.777.067q-2.743.07-5.504.071c-64.405 0-116.803-28.85-116.803-64.311v-10.775l.047.071c.307.495.64.985.968 1.476.22.33.431.662.661.99.33.472.684.94 1.034 1.408.254.34.501.682.766 1.02.356.457.733.909 1.108 1.361.285.343.565.687.859 1.028.384.443.785.882 1.186 1.321.312.342.622.684.945 1.023.411.432.836.86 1.263 1.287.34.339.679.677 1.029 1.013q.656.628 1.335 1.248.55.505 1.115 1.005.69.607 1.404 1.207a85 85 0 0 0 3.951 3.137q.759.57 1.539 1.132.672.48 1.36.955c.528.366 1.057.731 1.599 1.091.474.315.959.625 1.444.936a100 100 0 0 0 1.657 1.049c.502.309 1.016.612 1.527.916.566.335 1.128.673 1.706 1.002.533.304 1.08.601 1.624.9.579.318 1.153.639 1.744.951.564.298 1.143.588 1.718.88.591.301 1.176.606 1.779.9.608.298 1.234.585 1.854.876.588.277 1.167.558 1.764.828.757.342 1.533.671 2.305 1.004.466.2.921.409 1.392.606 21.498 8.974 47.127 13.718 74.116 13.718zm-118.229-48.458v12.894c0 36.248 53.037 65.737 118.229 65.737q2.787 0 5.554-.071c.608-.015 1.21-.048 1.817-.069 1.233-.042 2.467-.08 3.694-.142.762-.04 1.518-.099 2.277-.146 1.064-.067 2.131-.125 3.189-.207.818-.063 1.628-.148 2.442-.221.993-.088 1.989-.168 2.977-.271.847-.088 1.687-.198 2.53-.297.945-.11 1.893-.211 2.833-.335.857-.112 1.705-.246 2.557-.369.918-.133 1.839-.256 2.751-.402.856-.136 1.701-.293 2.551-.44.898-.155 1.8-.301 2.692-.469.852-.16 1.694-.34 2.54-.511.818-.165 1.642-.318 2.455-.494l4.375 4.421c-.929.216-1.868.414-2.804.616-.839.182-1.673.374-2.517.545-1.11.224-2.232.424-3.351.63-.805.148-1.604.308-2.414.447-1.182.202-2.377.379-3.569.561-.759.116-1.513.245-2.276.352-1.283.182-2.578.335-3.871.493-.683.084-1.36.18-2.045.257-1.443.162-2.898.294-4.352.427-.546.049-1.086.112-1.633.158-1.747.145-3.505.262-5.267.365-.262.016-.521.04-.783.054a224 224 0 0 1-12.352.336c-67.283 0-122.023-30.145-122.023-67.198 0-5.637 1.275-11.231 3.794-16.651m.314 79.09c-3.666 6.576-5.535 13.432-5.535 20.386v12.824c-5.058-4.585-9.267-9.438-12.544-14.491-5.563-8.571-8.384-17.567-8.384-26.737 0-14.586 7.242-28.805 20.928-41.218v28.897c0 7.078 1.939 13.909 5.535 20.339m96.3 47.232a219 219 0 0 0 7.848.625q1.123.07 2.25.128a225 225 0 0 0 5.563.22 222 222 0 0 0 11.91 0l.584-.015a226 226 0 0 0 15.065-.957l.332-.032c25.169-2.479 48.198-9.204 66.428-19.587q-.028.336-.066.672c-.033.311-.064.624-.108.934-.04.287-.094.573-.144.859-.057.327-.11.655-.18.982-.055.262-.124.523-.187.785-.084.348-.165.696-.262 1.043-.065.23-.143.459-.214.689-.116.375-.228.749-.36 1.122-.068.192-.148.382-.22.574-.153.407-.304.813-.476 1.218-.06.139-.129.277-.191.416-.2.453-.402.905-.627 1.355-.022.044-.048.088-.07.133a35 35 0 0 1-1.9 3.306c-2.729 4.204-6.499 8.18-11.206 11.821-7.829 6.06-17.981 10.949-29.5 14.445-13.668 2.341-28.033 3.576-42.654 3.576-14.612 0-28.969-1.233-42.631-3.572-11.525-3.495-21.684-8.387-29.521-14.449-4.713-3.649-8.483-7.626-11.207-11.822-.245-.377-.468-.758-.696-1.138-.118-.198-.247-.393-.36-.591-.121-.212-.226-.426-.342-.639-.207-.38-.418-.759-.608-1.142-.077-.156-.143-.313-.217-.47a32 32 0 0 1-.609-1.332c-.049-.117-.089-.234-.137-.352a31 31 0 0 1-.564-1.472c-.029-.082-.051-.164-.079-.246a30 30 0 0 1-.495-1.596l-.041-.163a28 28 0 0 1-.402-1.685q-.014-.07-.026-.141a27 27 0 0 1-.285-1.697l-.026-.223c-.05-.399-.085-.8-.117-1.2 18.23 10.384 41.261 17.109 66.432 19.587zm-77.847 12.048c-.443-.342-.864-.692-1.295-1.038-5.899-4.751-10.678-9.887-14.189-15.296-.421-.648-.801-1.302-1.185-1.956 8.046 5.873 17.427 11.049 27.818 15.431 20.579 15.582 53.501 24.869 88.313 24.869h.006c34.816 0 67.742-9.29 88.319-24.874 10.386-4.381 19.764-9.556 27.807-15.426-.383.654-.763 1.308-1.183 1.956-3.768 5.803-8.978 11.299-15.485 16.335-22.908 17.721-60.09 28.301-99.464 28.301-11.073 0-21.973-.836-32.431-2.434-26.727-4.082-50.566-13.13-67.031-25.868m9.625-32.076c.148 2.339.6 4.654 1.317 6.937a32 32 0 0 0 1.373 3.589 36 36 0 0 0 2.591 4.751c2.815 4.338 6.695 8.434 11.531 12.174 5.77 4.466 12.787 8.298 20.652 11.429-12.577-2.708-24.44-6.373-35.208-10.9-.17-.13-.347-.256-.515-.386-5.765-4.462-10.376-9.327-13.706-14.459a41.4 41.4 0 0 1-3.752-7.23c-1.377-3.466-2.202-7.002-2.434-10.576.02-.323.06-.646.09-.969.034-.372.061-.744.109-1.117.046-.361.111-.722.169-1.083.058-.363.113-.727.184-1.09.07-.361.154-.721.237-1.081.082-.363.165-.725.26-1.086q.144-.54.305-1.078.085-.284.177-.566c4.671 4.413 10.247 8.541 16.595 12.284zm7.288 31.518c12.137 4.621 25.477 8.214 39.554 10.633 13.036 3.948 27.788 6.125 42.995 6.125 15.201 0 29.949-2.176 42.984-6.124 14.087-2.42 27.436-6.015 39.581-10.64-20.459 13.32-50.696 21.145-82.562 21.146-31.86-.001-62.094-7.823-82.552-21.14m172.411-31.97c6.344-3.738 11.92-7.864 16.598-12.283.092.294.19.586.275.881q.074.258.146.517.253.941.453 1.885l.059.267a33 33 0 0 1 .597 4.488v.005l.001.006c-.395 6.111-2.473 12.107-6.182 17.821-3.334 5.135-7.946 10-13.707 14.459-.166.128-.339.252-.507.38-10.774 4.53-22.645 8.197-35.23 10.908 7.867-3.132 14.888-6.964 20.661-11.431 4.842-3.747 8.721-7.843 11.53-12.173 3.173-4.882 4.95-10.023 5.281-15.278q.014-.225.025-.452m-89.862 47.296c-9.904 0-19.604-.942-28.761-2.683a258.2 258.2 0 0 0 57.542-.003c-9.161 1.743-18.868 2.686-28.781 2.686m-108.556-61.645c-.077.327-.134.656-.201.984-.059.286-.125.572-.177.859-.074.416-.131.832-.191 1.249-.039.267-.086.533-.118.8-.055.461-.09.92-.127 1.38-.018.223-.046.447-.059.67a33 33 0 0 0-.064 2.041c0 .729.029 1.449.074 2.171.402 6.371 2.561 12.614 6.415 18.558 2.708 4.171 6.242 8.158 10.512 11.901-9.416-4.328-17.903-9.335-25.168-14.955l-.101-.081c-2.82-5.715-4.262-11.61-4.262-17.594 0-6.434 1.654-12.791 4.92-18.914 2.262 3.764 5.132 7.435 8.547 10.931m226.318 25.578-.101.081c-7.262 5.617-15.745 10.621-25.156 14.947 4.266-3.739 7.797-7.724 10.504-11.894a42.3 42.3 0 0 0 4.033-7.899c1.341-3.491 2.151-7.053 2.378-10.66l.002-.051.003-.037-.001-.018a35 35 0 0 0 .071-2.064c0-1.383-.091-2.777-.262-4.172l-.014-.089a36 36 0 0 0-.301-1.965c-.021-.111-.047-.222-.069-.333-.091-.475-.181-.95-.292-1.424 3.411-3.488 6.281-7.159 8.549-10.931 3.264 6.123 4.918 12.48 4.918 18.914 0 5.985-1.442 11.881-4.262 17.595m-239.785-7.112c.109.398.232.795.355 1.192.029.094.054.189.084.283.272.862.578 1.719.909 2.573q.083.217.169.435.125.316.255.63c-.606-.501-1.188-1.009-1.772-1.518zm242.282 5.109q.148-.359.289-.719l.083-.214q.542-1.381.981-2.774l.012-.043c.141-.452.279-.904.404-1.358v3.592c-.583.507-1.165 1.016-1.769 1.516m3.192-15.617c-.005-6.946-1.873-13.793-5.534-20.362 3.596-6.429 5.535-13.26 5.535-20.338V225.74c13.686 12.408 20.927 26.628 20.927 41.218 0 9.166-2.821 18.161-8.384 26.737-3.28 5.054-7.487 9.905-12.539 14.487v-12.82c0-.009-.005-.016-.005-.025m-6.647-86.557q0 .91-.046 1.818c-.01.198-.032.394-.045.592-.027.406-.052.811-.093 1.216-.024.24-.061.479-.09.72-.044.36-.084.721-.138 1.08-.038.25-.089.498-.132.747-.06.348-.116.697-.186 1.043-.052.255-.116.509-.174.763-.076.339-.148.679-.234 1.017-.066.258-.143.514-.215.772-.092.332-.179.665-.281.995-.079.259-.17.516-.255.773-.108.328-.212.657-.329.984-.091.254-.194.507-.291.761-.125.328-.246.656-.38.982-.104.254-.22.506-.33.758-.14.324-.277.648-.427.97-.117.252-.246.503-.368.754-.157.321-.31.642-.475.96-.131.251-.271.5-.407.75-.172.316-.34.632-.52.946-.144.251-.298.5-.448.75-.186.311-.37.623-.565.932-.155.247-.321.492-.482.737-.202.309-.402.619-.613.926-.169.246-.347.489-.521.734-.217.304-.431.608-.656.91-.182.245-.374.487-.562.731-.23.299-.458.598-.697.895-.195.242-.398.481-.598.722-.246.295-.49.591-.744.884-.205.238-.419.473-.63.709-.262.293-.522.586-.792.877-.216.233-.441.464-.663.696-.277.29-.553.58-.839.868-.229.23-.466.459-.7.688-.29.284-.579.568-.877.85-.243.23-.494.457-.742.685-.304.278-.606.557-.917.833-.255.226-.518.45-.778.674q-.472.41-.956.817-.405.335-.818.668c-.329.267-.657.535-.994.799-.281.221-.569.44-.854.659q-.511.392-1.034.783-.441.325-.89.647c-.355.257-.71.513-1.073.767-.306.215-.619.427-.93.64q-.548.374-1.104.746-.484.317-.973.631-.564.366-1.138.727-.5.31-1.006.618-.585.359-1.181.713-.514.303-1.038.603-.603.349-1.216.694-.536.3-1.082.595-.617.339-1.245.673-.554.292-1.115.581-.637.33-1.284.655-.572.286-1.152.568-.653.32-1.315.635-.59.279-1.188.554-.409.188-.822.375v-27.821a142 142 0 0 0 3.794-1.655c.211-.096.414-.197.624-.294 1.012-.465 2.017-.936 3.001-1.419.352-.172.691-.352 1.039-.526.828-.416 1.654-.833 2.46-1.261.402-.212.791-.432 1.187-.648a114 114 0 0 0 2.186-1.212c.419-.239.826-.485 1.239-.728.673-.397 1.344-.794 2.001-1.2.421-.261.833-.526 1.247-.79.626-.399 1.249-.799 1.859-1.206.415-.277.821-.557 1.228-.838q.882-.605 1.74-1.222.602-.437 1.192-.878a88 88 0 0 0 2.78-2.155 90 90 0 0 0 2.623-2.207q.733-.645 1.44-1.298.52-.477 1.024-.957c.465-.445.916-.893 1.362-1.343.317-.319.635-.638.943-.96.441-.462.866-.928 1.288-1.395.287-.317.577-.634.855-.953.422-.486.824-.977 1.226-1.468.251-.307.508-.613.751-.922a58 58 0 0 0 1.181-1.575c.209-.285.427-.568.628-.855.411-.585.796-1.175 1.177-1.765.151-.234.313-.466.46-.701.036-.058.077-.115.113-.173zm-42.648 51.223c.373-.167.735-.339 1.103-.508.431-.198.864-.393 1.288-.594.432-.203.855-.411 1.28-.618.418-.203.839-.404 1.251-.61.425-.212.841-.429 1.26-.644.4-.206.803-.409 1.198-.618.417-.22.824-.444 1.235-.668.385-.209.773-.416 1.152-.628.406-.227.802-.458 1.202-.687.371-.214.747-.426 1.113-.642.393-.232.776-.469 1.163-.704.36-.219.724-.436 1.078-.657.383-.239.755-.483 1.131-.725.345-.222.694-.442 1.033-.666.373-.247.736-.497 1.102-.747.33-.225.664-.448.988-.674.36-.252.709-.508 1.062-.763.317-.229.64-.457.952-.688.345-.257.68-.517 1.018-.776.307-.234.618-.467.919-.704.33-.259.648-.522.971-.784.296-.241.598-.48.888-.722.319-.267.626-.536.937-.805.281-.242.566-.483.841-.727.306-.271.6-.547.899-.821.268-.246.541-.49.803-.738.291-.275.57-.554.854-.832.256-.25.516-.499.766-.751.277-.279.542-.563.811-.844.243-.254.491-.507.728-.763.264-.284.515-.572.77-.858.23-.257.465-.513.688-.771.251-.291.49-.586.733-.879.214-.257.433-.513.641-.772.237-.295.46-.593.689-.889.201-.262.409-.522.604-.785.218-.294.423-.59.633-.885.192-.27.39-.538.576-.81.203-.297.394-.598.59-.897.177-.271.361-.541.532-.814.191-.304.368-.61.55-.916.163-.272.332-.543.488-.816.173-.302.332-.607.497-.911.152-.28.31-.558.455-.839.157-.303.299-.609.448-.913.139-.284.284-.567.416-.853.144-.31.273-.622.408-.934.123-.282.253-.564.369-.847.127-.311.24-.625.359-.937.11-.287.226-.573.329-.861.113-.317.211-.635.316-.953.094-.286.195-.57.283-.857.101-.332.187-.665.279-.998.076-.276.159-.55.229-.826.084-.33.152-.663.227-.994.064-.282.135-.562.192-.844.067-.336.12-.674.178-1.01.049-.28.106-.558.148-.838.053-.35.09-.703.133-1.054.033-.269.074-.537.101-.806.041-.404.065-.81.092-1.216.015-.217.038-.434.049-.652q.048-.936.048-1.876V195.89c2.517 5.421 3.792 11.015 3.792 16.652 0 21.086-17.428 40.489-47.868 53.345zM275.263 66.427c67.273 0 122.005 30.134 122.023 67.178l-.003.019c0 7.736-2.381 15.326-7.076 22.561-3.766 5.806-8.976 11.301-15.485 16.334-22.909 17.722-60.091 28.303-99.461 28.303s-76.55-10.581-99.459-28.303c-6.508-5.033-11.718-10.528-15.484-16.334-4.697-7.237-7.078-14.827-7.078-22.561 0-37.053 54.74-67.197 122.023-67.197M119.794 327.984c-10.193-7.887-18.355-16.498-24.258-25.596-7.372-11.358-11.11-23.277-11.11-35.426 0-31.347 25.066-60.799 68.792-80.9a43.7 43.7 0 0 0 3.085 8.071c-2.974 5.967-4.49 12.156-4.49 18.404v11.273c-14.622 12.892-22.355 27.805-22.355 43.148 0 9.451 2.898 18.707 8.614 27.513 3.548 5.471 8.165 10.705 13.741 15.622v27.365c0 3.485.486 6.95 1.417 10.371-12.514-5.738-23.79-12.382-33.436-19.845m160.973 78.032c.597-.015 1.189-.046 1.785-.065 1.23-.04 2.461-.076 3.685-.136.708-.034 1.41-.087 2.116-.128 1.107-.065 2.215-.124 3.316-.205.75-.055 1.493-.128 2.239-.191 1.051-.089 2.103-.171 3.149-.275.774-.076 1.541-.17 2.312-.255 1.01-.111 2.022-.217 3.026-.342.788-.098 1.568-.213 2.353-.32.979-.133 1.96-.261 2.934-.408.796-.12 1.585-.257 2.378-.386.95-.155 1.902-.305 2.846-.472.81-.144 1.611-.304 2.416-.457.771-.147 1.547-.283 2.314-.438v28.512c-.665.142-1.337.271-2.005.407-.959.195-1.915.397-2.882.577-.8.15-1.609.281-2.414.421-.921.16-1.839.328-2.766.475-.863.137-1.734.253-2.601.379-.882.128-1.761.265-2.648.381-.92.12-1.849.22-2.775.328-.845.099-1.686.207-2.535.296-.975.101-1.958.18-2.937.267-.811.073-1.617.156-2.431.219-1.063.082-2.134.141-3.202.207-.738.046-1.471.103-2.211.141-1.202.061-2.412.098-3.62.139-.615.021-1.228.055-1.845.071q-2.74.07-5.501.07c-15.095 0-29.53-1.585-42.786-4.468a178 178 0 0 1-7.808-1.883 165 165 0 0 1-7.499-2.182c-35.057-11.111-58.71-31.952-58.71-55.777v-10.775c.027.044.059.087.086.131.214.344.449.684.673 1.025.316.483.628.966.963 1.444.253.361.526.717.79 1.075.334.453.666.908 1.018 1.357.287.366.59.728.889 1.091.357.435.713.87 1.087 1.301.317.365.648.726.976 1.087.383.423.768.846 1.167 1.264.344.36.699.717 1.054 1.073.411.413.824.824 1.249 1.231q.556.53 1.129 1.055.656.605 1.335 1.203.588.516 1.193 1.026a85 85 0 0 0 4.197 3.331q.646.485 1.309.964.795.57 1.611 1.131c.449.31.898.62 1.357.926.564.375 1.14.745 1.718 1.114.461.294.918.588 1.387.878.602.371 1.218.735 1.834 1.099.469.277.934.557 1.411.829.645.369 1.305.728 1.965 1.089.47.257.933.517 1.41.77.705.373 1.428.736 2.149 1.099.452.229.896.461 1.354.686.812.398 1.644.784 2.476 1.17.386.179.762.364 1.152.54q1.804.818 3.664 1.596.042.019.085.036c21.497 8.975 47.126 13.719 74.115 13.719q2.76 0 5.504-.067m36.366 31.386c-.97.196-1.952.369-2.929.551-.942.175-1.88.361-2.829.523-1.05.18-2.112.335-3.17.499-.889.137-1.773.287-2.667.413-1.156.163-2.324.3-3.488.444-.808.1-1.61.213-2.421.304-1.32.148-2.65.267-3.979.39-.668.062-1.33.138-2 .194-1.613.134-3.236.239-4.861.337-.396.024-.787.059-1.184.081q-6.094.336-12.294.338l-.048-.003c-44.154 0-82.907-12.982-104.332-32.379-11.22-10.159-17.687-22.078-17.687-34.814l-.004-.019c.002-5.633 1.278-11.222 3.794-16.637v12.895c0 25.486 26.221 47.631 64.451 58.534 16.142 4.603 34.424 7.203 53.778 7.203q2.786 0 5.553-.071c.581-.015 1.157-.047 1.737-.067 1.262-.042 2.525-.081 3.779-.146.656-.033 1.305-.086 1.959-.125 1.173-.071 2.347-.137 3.514-.228.683-.053 1.36-.124 2.041-.184 1.129-.099 2.26-.192 3.383-.309.687-.072 1.366-.162 2.051-.24 1.108-.127 2.219-.248 3.321-.393.673-.089 1.338-.195 2.009-.29 1.104-.157 2.211-.308 3.307-.483.644-.103 1.279-.223 1.92-.331 1.115-.189 2.232-.374 3.338-.582.607-.114 1.207-.245 1.812-.364 1.045-.208 2.095-.407 3.132-.631l4.375 4.422c-.8.186-1.609.355-2.415.531-.981.214-1.958.437-2.946.637m6.06-36.674v34.18l-4.125-4.169V401.64c1.346-.283 2.618-.566 3.855-.852.088-.021.182-.039.27-.06m68.874-30.21q0 .91-.046 1.817c-.01.199-.032.396-.045.595-.027.404-.052.81-.093 1.213-.024.242-.062.482-.091.723-.044.36-.083.72-.137 1.078-.038.25-.089.498-.132.747-.06.348-.116.697-.186 1.043-.052.254-.116.507-.173.76-.077.341-.149.681-.235 1.02-.065.256-.143.511-.213.766-.093.334-.181.669-.283 1.002-.079.258-.17.514-.254.771-.109.329-.212.658-.33.985-.091.255-.195.509-.292.764-.124.327-.245.654-.379.98-.104.252-.219.503-.329.755-.141.324-.278.65-.428.973-.117.252-.245.502-.368.753-.157.32-.31.641-.475.96-.131.252-.272.502-.409.753-.171.315-.338.63-.518.943-.144.252-.299.501-.449.752-.186.31-.369.621-.563.929-.157.249-.324.496-.486.744-.201.307-.4.615-.609.92-.169.246-.348.49-.522.734-.217.304-.431.609-.656.911-.182.244-.373.486-.56.728-.231.299-.46.6-.699.897-.195.242-.399.483-.6.724-.245.294-.488.589-.741.882-.208.24-.424.478-.638.716-.259.29-.516.58-.783.868-.22.237-.448.472-.674.708-.274.285-.546.572-.827.855-.233.235-.474.467-.712.7-.287.28-.572.561-.865.838q-.375.352-.758.699c-.298.273-.594.547-.899.818-.262.232-.531.461-.798.692-.31.267-.619.534-.936.799-.275.23-.558.457-.839.685-.322.262-.643.523-.972.782q-.435.34-.879.676-.498.385-1.008.765-.455.335-.918.667-.516.375-1.042.746-.478.332-.964.662-.53.363-1.07.723-.5.328-1.007.654-.547.353-1.103.704-.518.322-1.046.642-.563.345-1.136.686-.54.319-1.087.632-.578.335-1.165.665-.563.315-1.136.625a102 102 0 0 1-3.582 1.876q-.607.303-1.225.604-.615.3-1.239.598a124 124 0 0 1-2.035.941v-27.821c.648-.271 1.275-.555 1.913-.833.589-.257 1.187-.508 1.767-.77.67-.303 1.319-.618 1.976-.928.546-.258 1.099-.511 1.637-.774.653-.319 1.288-.65 1.929-.977.521-.266 1.048-.529 1.561-.8.633-.334 1.249-.678 1.869-1.02.499-.275 1.002-.548 1.493-.827.612-.35 1.208-.706 1.807-1.063.476-.283.956-.565 1.424-.853.59-.364 1.166-.734 1.742-1.104.453-.291.908-.581 1.352-.877q.85-.568 1.678-1.145.645-.446 1.277-.897c.546-.391 1.08-.787 1.61-1.185a88 88 0 0 0 2.744-2.141 88 88 0 0 0 2.593-2.194q.53-.47 1.047-.944.71-.647 1.394-1.304c.328-.315.647-.633.966-.951.447-.446.891-.893 1.32-1.345.3-.316.589-.635.881-.954.421-.461.842-.922 1.245-1.388.271-.314.529-.631.792-.948.396-.477.793-.954 1.17-1.436.24-.308.464-.619.696-.929.373-.497.748-.994 1.099-1.496.203-.291.388-.584.584-.876.354-.528.711-1.054 1.04-1.586l.038-.057zm-42.644 57.105v-5.884c.416-.186.821-.378 1.231-.567.377-.174.758-.345 1.131-.521.487-.23.965-.465 1.445-.698.362-.177.729-.351 1.087-.53.48-.239.95-.484 1.422-.727.345-.178.695-.354 1.037-.535.471-.248.932-.502 1.395-.754.331-.181.666-.359.994-.542.46-.257.91-.519 1.362-.779.317-.183.638-.364.951-.549.451-.266.89-.536 1.332-.805.303-.186.611-.369.91-.556.438-.273.865-.551 1.295-.829.29-.187.585-.372.871-.561.429-.284.848-.573 1.268-.86.273-.187.552-.372.821-.561.42-.294.828-.592 1.239-.889.258-.187.521-.372.775-.56.409-.304.806-.611 1.205-.918.243-.187.492-.372.732-.561.398-.313.784-.63 1.173-.947.227-.186.461-.37.685-.558.39-.325.766-.654 1.145-.983.211-.183.428-.364.635-.548.378-.336.744-.676 1.111-1.015.196-.181.397-.36.59-.543.365-.344.716-.693 1.068-1.04.184-.182.374-.361.554-.543.35-.353.685-.709 1.023-1.065.171-.181.349-.36.518-.542.335-.362.658-.728.981-1.094.158-.179.322-.356.477-.535.324-.375.634-.754.946-1.133.142-.173.29-.344.43-.518.305-.38.596-.764.889-1.148.134-.176.274-.351.406-.527.284-.383.554-.769.826-1.155.126-.18.26-.359.384-.54.269-.394.525-.791.781-1.189.113-.174.232-.348.342-.523.256-.408.497-.818.738-1.228.099-.168.205-.335.301-.504.234-.409.453-.822.673-1.234.092-.173.191-.344.281-.518.213-.413.412-.828.611-1.244.083-.175.174-.348.255-.523.196-.424.377-.851.558-1.278.072-.168.15-.335.219-.504.174-.425.333-.853.492-1.281.064-.173.136-.345.198-.519.157-.44.298-.883.439-1.325.052-.162.111-.323.16-.486.138-.452.26-.907.381-1.362.041-.155.09-.309.129-.464.114-.448.21-.898.308-1.348.035-.164.078-.327.111-.492.094-.463.171-.928.247-1.394.025-.152.057-.303.08-.456.073-.481.129-.964.183-1.448.015-.138.038-.275.052-.413a37 37 0 0 0 .128-1.7l.013-.17q.047-.936.048-1.877v-12.895c2.517 5.42 3.792 11.014 3.792 16.652 0 21.086-17.427 40.488-47.864 53.343m43.38-72.082q-.004.003-.007.008c-.203.401-.419.802-.636 1.199l-.005.006c-7.426 13.623-22.954 25.859-43.723 34.456a.72.72 0 0 0-.441.659v36.828c0 .238.119.461.318.593.008.005.019.003.027.008a.7.7 0 0 0 .341.104c.01 0 .018.009.028.009a.7.7 0 0 0 .261-.052l.017-.003q1.42-.589 2.803-1.197l.468-.209a142 142 0 0 0 2.889-1.318q1-.47 1.979-.95.337-.164.671-.33 1.034-.515 2.045-1.04c.158-.082.32-.164.477-.247a118 118 0 0 0 4.913-2.727l.34-.203q.987-.584 1.947-1.179l.566-.355q.851-.535 1.681-1.08.29-.19.579-.382.857-.57 1.689-1.151.219-.15.438-.303a91 91 0 0 0 4.09-3.052l.237-.191q.834-.664 1.638-1.341.23-.194.46-.391.695-.593 1.368-1.193l.471-.423q.681-.62 1.338-1.246.19-.179.377-.358a74 74 0 0 0 1.608-1.602l.009-.009q.829-.855 1.613-1.723l.119-.135q.682-.759 1.33-1.527l.329-.398a58 58 0 0 0 2.404-3.103q.141-.192.279-.385.587-.826 1.135-1.662l.046-.068q.602-.922 1.157-1.854l.007-.014q.519-.875.995-1.758.099-.186.196-.373a48 48 0 0 0 .945-1.885q.342-.721.655-1.449l.169-.389q.362-.862.687-1.732l.037-.096a42 42 0 0 0 1.124-3.491v31.538c0 37.053-54.739 67.197-122.022 67.197s-122.025-30.144-122.025-67.197v-31.642c.273.989.591 1.97.94 2.945l.054.158a44 44 0 0 0 1.123 2.785q.066.154.136.309a47 47 0 0 0 1.308 2.673l.18.336q.715 1.328 1.522 2.634l.166.262a55 55 0 0 0 1.818 2.717 58 58 0 0 0 2.033 2.672l.094.12a63 63 0 0 0 2.15 2.51q.131.149.265.296a69 69 0 0 0 2.262 2.367l.349.347a75 75 0 0 0 2.429 2.292l.346.309c.862.769 1.746 1.53 2.661 2.278l.219.175a88 88 0 0 0 2.917 2.275l.071.054c.99.737 2.011 1.461 3.052 2.174l.376.26c1 .679 2.027 1.346 3.073 2.004l.519.325q1.557.967 3.178 1.9l.55.314q1.65.94 3.362 1.844l.449.232a126 126 0 0 0 3.659 1.84l.101.048q1.844.884 3.749 1.728l.46.206q1.845.81 3.746 1.581l.682.276q1.863.747 3.778 1.455l.764.28q1.925.703 3.9 1.366l.707.233q2.041.677 4.132 1.31l.44.13q2.037.609 4.12 1.176l.529.147c1.406.379 2.831.739 4.267 1.089q.426.105.854.208a183 183 0 0 0 5.206 1.163q2.12.444 4.278.845l.983.179q2.199.399 4.434.753l.806.122q2.163.333 4.357.622l.668.09q2.265.288 4.559.53l1.019.109q2.244.226 4.514.407l1.213.095q2.238.167 4.501.288.63.034 1.263.063 2.282.112 4.586.177l1.163.025q2.242.051 4.505.057c.149 0 .297.006.447.006l.027.001c10.589 0 20.975-.732 31.046-2.183a197 197 0 0 0 17.768-3.385c.022-.005.038-.018.058-.025a.7.7 0 0 0 .228-.128c.012-.01.026-.015.036-.025h.002l.035-.041a.7.7 0 0 0 .1-.15c.011-.021.026-.039.035-.062l.02-.063.002-.003v-.009a.7.7 0 0 0 .032-.187v-36.819a.72.72 0 0 0-.272-.561.7.7 0 0 0-.474-.135c-.046.002-.092-.01-.138.002-1.754.418-3.565.822-5.537 1.233l-.005.002c-13.723 2.846-28.168 4.289-42.936 4.289-53.447 0-101.514-19.697-116.89-47.9l-.001-.003a50 50 0 0 1-.641-1.208 43 43 0 0 1-2.192-5.115c33.678 14.839 75.844 23.234 119.73 23.234 43.883 0 86.047-8.394 119.723-23.232a44 44 0 0 1-2.189 5.11m62.198-53.153c-5.905 9.098-14.066 17.71-24.259 25.596-9.647 7.464-20.925 14.108-33.44 19.847.931-3.421 1.417-6.887 1.417-10.373v-27.369c5.57-4.914 10.185-10.146 13.736-15.618 5.716-8.81 8.615-18.068 8.615-27.513 0-15.348-7.733-30.26-22.355-43.147v-11.269c0-6.252-1.519-12.445-4.496-18.415a43.7 43.7 0 0 0 3.084-8.072c43.733 20.105 68.806 49.572 68.806 80.907 0 12.148-3.737 24.067-11.108 35.426"/>
</svg>
