<svg xmlns="http://www.w3.org/2000/svg" width="550" height="550" fill="none" viewBox="0 0 550 550">
    <path fill="#fff" d="M288.672 356.093v.823c0 .205 0 .308.206.514.205.411.411.617.72.823.205.102.514.205.822.205.309 0 .72-.102 1.132-.308l36.102-20.88c1.338-.72 2.366-2.674 2.366-4.32s0-.926-.308-1.337a1.9 1.9 0 0 0-.72-.823c-.309-.206-.618-.206-.926-.206h-.514c-.103 0-.309 0-.412.206l-36.102 20.88c-1.338.72-2.366 2.674-2.366 4.32zm40.114-23.246c0 1.234-.823 2.674-1.749 3.291l-36.102 20.88c-.206 0-.515.206-.72.103 0 0-.103 0-.103-.103a2.05 2.05 0 0 1-.206-.925c0-1.235.823-2.675 1.749-3.292l36.102-20.88c.206 0 .515-.205.72-.102.103 0 .206.205.309.411zm-55.44-9.463c0 1.029.308 1.749 1.028 2.16.206.103.515.206.823.206h.514c.206 0 .412-.103.618-.206l20.571-11.931c1.337-.72 2.366-2.675 2.366-4.32s-.309-1.749-1.029-2.16c-.617-.309-1.234-.309-1.954.103l-20.572 11.931c-1.337.72-2.262 2.674-2.262 4.32zm23.657-15.223h.411c.206.103.412.515.412 1.029 0 1.234-.823 2.674-1.749 3.291l-20.571 11.932c-.206 0-.412.205-.617 0-.206-.103-.412-.515-.412-1.029 0-1.234.823-2.674 1.749-3.291l20.571-11.932zm-48.546-94.525c.206.103.514.206.823.206h.514c.103 0 .206 0 .309-.103h.205l16.149-9.463c1.234-.823 2.263-2.674 2.263-4.32v-.925c0-.103 0-.309-.103-.412v-.103c0-.103-.103-.205-.206-.308 0 0-.206-.103-.206-.206l-.205-.103c-.617-.308-1.235-.308-1.955.103l-16.148 9.463c-.103 0-.309.206-.411.308l-.412.412c-.103.103-.206.308-.308.411-.103.206-.206.309-.309.515 0 .205-.206.411-.309.514 0 .206-.102.411-.205.617 0 .206 0 .309-.103.514v.617c0 1.029.308 1.749 1.028 2.057zm1.954-5.348 6.069-3.6 10.08-5.863h.514l.103.103c.103.205.206.514.206.925 0 1.235-.823 2.675-1.749 3.292l-16.148 9.463c-.206 0-.515.205-.72.103-.206-.103-.412-.515-.412-1.029 0-1.234.823-2.674 1.646-3.291zm-1.955-15.943c.205.103.514.206.823.206s.617 0 .925-.206h.206l32.4-18.926c1.337-.72 2.263-2.674 2.263-4.32 0-1.645-.309-1.748-1.029-2.057-.617-.308-1.234-.308-1.954.103l-32.4 18.926c-.103 0-.206.205-.411.308l-.309.309c-.103.103-.206.308-.309.411 0 .103-.205.309-.308.515 0 .205-.206.308-.206.514v.103c0 .205-.103.308-.206.514v1.234c0 1.029.309 1.749 1.029 2.057zm34.559-24.377h.412c.206.103.411.514.411 1.028 0 1.235-.823 2.675-1.748 3.292l-32.297 18.926c-.206 0-.514.205-.72.102-.206-.102-.412-.514-.412-1.028 0-1.234.823-2.674 1.646-3.292l32.297-18.925h.206zm93.805-47.931h-.103l-.103-.103c-.309 0-.514 0-.72.308-.206.309 0 .618.206.823h.102c0 .103.206.103.309.103.309 0 .514-.206.617-.514 0-.309 0-.514-.308-.72zm-74.468 78.891c-.617-.309-1.234-.309-1.954.103l-50.606 29.519c-1.337.72-2.263 2.675-2.263 4.32 0 1.029.309 1.749 1.029 2.058.206.102.514.205.823.205s.72-.103 1.131-.308l50.606-29.52c1.337-.72 2.365-2.674 2.365-4.32 0-1.029-.411-1.749-1.028-2.16zm-1.954 5.348-50.606 29.52c-.206 0-.514.206-.72.103s-.411-.514-.411-1.029c0-1.234.823-2.674 1.645-3.291l50.606-29.52h.514c.206.103.412.514.412 1.029 0 1.234-.823 2.674-1.749 3.291zm81.976-94.833c-.412-.206-.926-.309-1.543 0-.103 0-.309.102-.411.205l-12.446 7.303-5.451 3.189c-1.235.822-2.263 2.674-2.263 4.32 0 1.645.205 1.44.617 1.851l.308.309c.103 0 .309.102.412.205h.411c.412 0 .72-.103 1.132-.308l17.897-10.492c1.337-.72 2.365-2.674 2.365-4.32 0-1.645-.411-1.748-1.028-2.057zm-20.983 14.914c0-1.235.823-2.777 1.749-3.292l17.897-10.491s.103 0 .205-.103h.515c.205.103.411.514.411 1.029 0 1.234-.823 2.777-1.748 3.291l-17.897 10.491c-.206 0-.515.206-.72.103q-.309-.308-.309-.925zm-6.48 1.131c-.308-.206-.617-.206-.925-.206s-.72.103-1.029.309l-62.022 36.308c-1.337.72-2.263 2.675-2.263 4.32s.308 1.749 1.028 2.058c.206.102.515.205.823.205h.617c.206 0 .412-.103.618-.205l62.022-36.309c1.337-.72 2.366-2.674 2.366-4.32s-.412-1.748-1.029-2.057zm-64.696 41.76c-.206-.103-.412-.514-.412-1.029 0-1.234.823-2.674 1.749-3.291l62.022-36.308c.103 0 .309-.206.515-.206h.205c.206.103.412.514.412 1.028 0 1.235-.823 2.778-1.749 3.292l-62.022 36.308h-.206c-.206 0-.411.103-.514 0zm28.593.72c-.617-.309-1.234-.309-1.954.103l-41.143 24.068c-.925.514-1.748 1.749-2.16 3.086-.102.411-.205.823-.205 1.234 0 .926.308 1.749 1.028 2.057.206.103.515.206.823.206.309 0 .72-.103 1.132-.309l41.142-24.068c.926-.617 1.749-1.749 2.16-3.086.103-.411.206-.823.206-1.234 0-1.029-.309-1.749-1.029-2.057m-1.954 5.451-41.143 24.069c-.205 0-.514.205-.72.102-.205-.102-.411-.514-.411-1.028s0-.617.103-.926c.308-.926.823-1.851 1.543-2.263l41.142-24.068c.103 0 .309-.206.515-.206h.205c.206.103.412.514.412 1.029s0 .617-.103.925c-.309.926-.926 1.955-1.543 2.263zm-32.707 57.497c-.617-.308-1.234-.308-1.954.103l-32.297 18.823-.103.103c-1.235.823-2.16 2.571-2.16 4.217s.308 1.748 1.028 2.057c.206.103.515.206.823.206.309 0 .72-.103 1.132-.309l32.297-18.823c1.337-.72 2.262-2.674 2.262-4.32 0-1.028-.308-1.748-1.028-2.057m-34.354 24.274c-.103 0-.412.206-.617.103-.206 0-.309-.308-.309-.72v-.308c0-1.235.823-2.675 1.646-3.292l32.4-18.822c.102 0 .308-.206.514-.206h.206c.205.103.411.514.411 1.028 0 .926-.411 1.955-1.029 2.675 0 .103-.205.205-.308.308 0 0-.206.206-.309.206l-32.399 18.823zm18.205 6.48c-.617-.308-1.234-.308-1.954.103l-16.148 9.36c-1.337.72-2.263 2.674-2.263 4.32 0 1.028.308 1.748 1.028 2.057.206.103.515.206.823.206.309 0 .72-.103 1.132-.309l16.148-9.36c1.337-.72 2.263-2.674 2.263-4.32 0-1.028-.309-1.748-1.029-2.057m-1.954 5.349-16.148 9.462c-.206 0-.515.206-.72.103-.206-.103-.412-.514-.412-1.028 0-1.235.823-2.674 1.646-3.292l16.148-9.462c.103 0 .309-.206.515-.206h.205c.206.103.412.514.412 1.028 0 1.235-.823 2.675-1.646 3.292zm-17.589 52.148c.206.103.514.206.823.206s.72-.103 1.131-.309l32.4-18.822h.103c1.234-.823 2.16-2.572 2.16-4.218s-.309-1.748-1.029-2.16a.8.8 0 0 1-.514-.205c-.411 0-.926 0-1.337.308l-32.4 18.823c-1.337.72-2.263 2.674-2.263 4.32s.309 1.749 1.029 2.057zm1.954-5.348 32.4-18.823c.103 0 .309-.206.514-.206h.206c.206.103.412.514.412 1.029 0 1.234-.823 2.674-1.749 3.291l-32.4 18.823c-.206 0-.514.206-.72.103s-.411-.515-.411-1.029c0-1.234.823-2.674 1.645-3.291zm17.589 10.697c-.514-.309-1.234-.309-1.954.102l-16.148 9.36c-1.337.72-2.263 2.675-2.263 4.32s.308 1.749 1.028 2.058c.206.102.515.205.823.205.309 0 .72-.103 1.132-.308l16.148-9.36s.103 0 .206-.103c1.234-.823 2.16-2.572 2.16-4.217v-.72c-.103-.617-.412-1.132-.926-1.44zm-18.205 14.811s-.206.103-.309.103h-.411c-.206-.103-.412-.514-.412-1.029 0-1.234.823-2.674 1.646-3.291l16.149-9.36c.102 0 .308-.206.514-.206h.206c.205 0 .308.309.308.72v.309c0 1.234-.823 2.674-1.646 3.291l-16.148 9.36zm125.074-83.725c-.412-.309-.926-.412-1.44-.206-.412 0-.926.309-1.235.72-.411.412-.823.823-1.028 1.44l-3.806 7.2-3.6-2.571c-.411-.309-.926-.412-1.44-.206-.411 0-.926.308-1.234.72-.412.411-.823.823-1.029 1.44-.925 1.851-.925 3.703.206 4.526l3.703 2.674-3.909 7.406c-.925 1.851-.925 3.702.206 4.525q.463.309.926.309c.308 0 .72-.103 1.131-.309 0 0 .103 0 .206-.103.514-.411 1.028-.925 1.44-1.645l3.806-7.2 3.599 2.571c.618.412 1.338.412 2.058 0 .514-.308 1.028-.823 1.44-1.44 0-.103.205-.308.205-.411.206-.412.412-.926.515-1.337 0-.206 0-.412.102-.618v-1.234c0-.103 0-.206-.102-.411v-.103c0-.103-.103-.206-.206-.309l-.206-.205-3.703-2.675 3.909-7.405c.926-1.749.823-3.6 0-4.423zm-.515 16.971v.514c0 .103 0 .206-.103.309v.103c0 .206-.102.308-.205.514 0 0 0 .103-.103.206-.309.514-.617.823-1.029 1.028-.205.103-.514.206-.72 0l-4.217-2.982c-.103-.103-.308-.103-.514 0 0 0-.206 0-.206.102l-.206.206-4.114 7.817a3.7 3.7 0 0 1-1.131 1.337c-.206.103-.514.309-.72 0 0 0-.103 0-.103-.205v-.515c0-.617 0-1.337.514-2.16l4.217-7.817a.8.8 0 0 0-.205-.823l-4.217-2.982c-.206-.206-.412-.72-.309-1.44v-.618c0-.102 0-.205.103-.411 0-.206.103-.309.206-.514.205-.515.514-.823.822-1.029.309-.206.515-.411.72-.411h.412l4.217 2.983c.103.102.309.102.514 0 0 0 .206 0 .206-.103l.206-.206 4.217-7.817c.205-.514.514-.823.823-1.029s.514-.411.72-.411h.308c.412.309.514 1.543-.206 2.983l-4.217 7.817a.8.8 0 0 0 .206.823l4.217 2.983c.206.205.412.72.309 1.44v.102zm-13.782-22.834c-.206.617-.412 1.234-.412 1.851 0 1.029.412 1.749 1.029 2.057.205.103.514.206.823.206s.72-.103 1.131-.309l17.897-10.388c1.337-.72 2.366-2.674 2.366-4.32 0-1.029-.412-1.749-1.029-2.16-.617-.309-1.234-.309-1.954.103l-17.897 10.388c-.823.515-1.543 1.44-1.954 2.469zm2.571-1.337 17.897-10.389c.103 0 .309-.206.514-.206h.206c.206.103.411.515.411 1.029 0 1.234-.822 2.777-1.748 3.291l-17.897 10.389c-.206 0-.514.206-.72.103s-.412-.515-.412-1.029 0-.617.103-.926c.309-.925.926-1.954 1.543-2.262zm-16.558 56.674c.205.102.514.205.822.205.412 0 .72-.103 1.132-.308l32.503-18.823c.308-.206.617-.411.822-.72 0 0 .206-.206.206-.309l.206-.205c.103-.206.206-.309.308-.515.412-.822.72-1.645.72-2.468s-.308-1.749-1.028-2.16c-.309-.206-.617-.206-1.029-.206q-.462 0-.925.309l-32.503 18.822c-1.337.72-2.366 2.675-2.366 4.32s.412 1.749 1.029 2.16zm34.971-24.377h.206c.205.102.411.514.411 1.028 0 1.234-.823 2.777-1.749 3.292l-32.502 18.822c-.103 0-.309.206-.515.206h-.205c-.206-.103-.412-.514-.412-1.029 0-1.234.823-2.777 1.749-3.291l32.503-18.823c.102 0 .308-.205.514-.205m-24.38-50.914v1.748c0 .103.103.206.206.309v.103s.206.206.206.308l5.451 3.909q.463.309.926.309c.309 0 .72-.103 1.131-.309a4.85 4.85 0 0 0 1.646-1.851l9.771-18.515c.618-1.131.823-2.262.618-3.188-.103-.514-.412-1.029-.823-1.337-.412-.309-.926-.412-1.44-.206-.926.206-1.749 1.029-2.366 2.16l-8.023 15.12-3.497-2.469c-.411-.308-.926-.411-1.44-.205-.926.205-1.748 1.028-2.366 2.16a7 7 0 0 0-.514 1.337v.514zm1.235 0v-.514c0-.309.205-.617.411-1.029.514-.926 1.132-1.337 1.543-1.44h.411l4.012 2.88c.103.103.308.103.514 0 .206 0 .309-.103.412-.308l8.331-15.738c.514-.925 1.131-1.44 1.543-1.542h.411a.94.94 0 0 1 .309.72c0 .514 0 1.337-.515 2.262l-9.771 18.515c-.308.617-.72 1.131-1.234 1.337-.206.103-.514.308-.72 0l-5.452-3.909s-.102 0-.102-.206v-1.234z"/>
    <path fill="#fff" d="M434.525 156.037c-.412-.206-.72-.412-1.132-.515-.411-.205-.925-.411-1.337-.617-.103 0-.308-.103-.411-.205-.309-.103-.515-.206-.823-.309l-.617-.206c-.412-.205-.926-.308-1.337-.411h-.309c-.411-.103-.72-.206-1.234-.309h-.309c-.411-.205-.926-.308-1.337-.411h-.411c-.412 0-.823-.206-1.235-.206h-.308c-.515-.103-.926-.205-1.44-.205h-.309c-.514 0-1.028 0-1.543-.103-7.508-.309-15.531 1.542-23.965 5.554-11.417 5.348-22.834 14.503-33.223 26.228-.823.926-1.646 1.955-2.468 2.88a157.4 157.4 0 0 0-17.383 25.817c-1.029 1.955-2.057 3.909-3.086 6.069a223 223 0 0 0-3.291 7.2c-2.88 6.685-5.246 13.577-7.097 20.263-.515 2.057-1.029 4.114-1.44 6.171-1.235 5.554-2.058 11.108-2.366 16.354-.103 1.852-.206 3.703-.206 5.452 0 5.451.309 10.697 1.132 15.634.308 1.645.617 3.188 1.028 4.731 1.234 4.937 3.086 9.36 5.349 13.166.514.925 1.131 1.748 1.645 2.468l.926 1.235s0 .102.103.205v.103c.206.309.514.617.823.926l.206.206a33.6 33.6 0 0 0 4.834 4.525l.206.206s.205.103.308.206c.206.205.514.411.72.514.412.309.926.617 1.337.823.412.206.823.514 1.235.72 4.731 2.571 10.182 3.806 15.942 3.806 10.8 0 22.937-4.423 35.177-13.166 15.326-10.903 29.726-27.771 40.32-47.417l.411-.72.926-1.851c18.206-35.177 21.086-70.971 9.257-91.543-3.291-5.76-7.714-10.285-13.371-13.371zm13.474 16.251c.206.514.514 1.029.72 1.646.103.308.309.72.411 1.028 0 .103 0 .309.103.412 2.469 6.171 3.909 13.474 4.217 21.805.72 19.44-5.04 41.863-16.045 63.257-.309.617-.72 1.337-1.029 1.954l-.411.72c-10.492 19.543-24.686 36.206-39.909 47.006-18.308 13.063-36.514 16.457-49.782 9.257-.412-.206-.823-.411-1.234-.72s-.823-.514-1.338-.823c-.308-.206-.617-.514-1.028-.72h-.206c0-.206-.103-.206-.206-.308.618.102 1.235.205 1.749.308.309 0 .617 0 .926.103.514 0 1.028.103 1.543.206h6.377c.514 0 1.028 0 1.645-.206.412 0 .926-.103 1.337-.206.412 0 .823-.103 1.338-.205.514 0 1.028-.206 1.542-.309l1.543-.309c.412 0 .823-.205 1.235-.308.617-.206 1.337-.309 1.954-.514.411-.103.823-.206 1.234-.412.412-.103.926-.308 1.337-.411.617-.206 1.132-.412 1.749-.617.514-.206.926-.412 1.44-.515.411-.205.823-.308 1.234-.514.72-.309 1.337-.617 2.057-.926l1.234-.617c.515-.308 1.029-.514 1.543-.823.515-.308 1.029-.514 1.543-.823s1.029-.514 1.44-.822c.412-.206.72-.412 1.132-.618.72-.411 1.44-.822 2.057-1.337.411-.205.72-.514 1.131-.72.72-.514 1.44-.925 2.16-1.44.309-.205.72-.514 1.029-.72.514-.411 1.131-.822 1.645-1.234.412-.308.823-.617 1.132-.926.617-.514 1.337-1.028 1.954-1.542.309-.309.72-.515 1.029-.823l2.16-1.852c.308-.308.617-.514.925-.823.618-.514 1.235-1.131 1.852-1.645.206-.206.411-.309.514-.515 10.8-10.182 20.571-23.245 28.388-37.542l.206-.412c.309-.617.72-1.337 1.029-1.954 1.234-2.366 2.365-4.731 3.497-7.097 0 0 0-.103.103-.206.411-.925.823-1.954 1.234-2.88.103-.308.309-.617.411-.925.412-.823.72-1.749 1.029-2.572.206-.411.309-.72.514-1.131l.926-2.469c.206-.411.309-.823.514-1.337.309-.823.515-1.543.823-2.366.206-.411.309-.925.514-1.337.206-.72.515-1.543.72-2.263.103-.514.309-.925.412-1.44l.617-2.16c.103-.514.309-1.028.411-1.44l.618-2.16c.102-.514.308-1.028.411-1.542.206-.72.309-1.44.514-2.16l.309-1.543c.103-.72.308-1.337.411-2.057l.309-1.543c.103-.72.206-1.337.411-2.057 0-.515.206-1.029.309-1.543.103-.617.206-1.337.308-1.955 0-.514.103-1.028.206-1.542 0-.618.206-1.338.206-1.955 0-.514.103-1.028.206-1.543 0-.617.102-1.234.205-1.851 0-.514 0-1.028.103-1.543 0-.617 0-1.234.103-1.851v-11.006c0-.514 0-1.131-.103-1.646 0-.514 0-.925-.206-1.44 0-.514-.102-1.028-.205-1.542 0-.515-.103-.926-.206-1.44 0-.515-.103-1.029-.206-1.44 0-.515-.205-.926-.308-1.44 0-.515-.206-.926-.309-1.44-.103-.515-.206-.926-.308-1.44-.103-.412-.206-.823-.309-1.337-.103-.515-.309-1.029-.411-1.44-.103-.412-.206-.823-.412-1.132-.206-.514-.308-1.028-.514-1.543-.103-.308-.206-.72-.412-1.028-.205-.515-.411-1.132-.72-1.646-.102-.309-.205-.514-.308-.823l-.926-1.851c0-.103-.103-.309-.206-.412-1.234-2.365-2.674-4.423-4.217-6.377-.411-.617-.925-1.131-1.44-1.646h.103c.103 0 .309.103.412.206.411.206.925.412 1.337.617s.72.412 1.131.617c5.966 3.189 10.697 8.332 13.989 15.12zM332.388 304.253a67 67 0 0 1-1.234-2.674c0-.103-.103-.206-.103-.309-.411-1.028-.823-2.16-1.234-3.291 0-.206 0-.309-.103-.514-.309-.823-.514-1.749-.72-2.675l20.468-11.931c1.338-.72 2.366-2.674 2.366-4.32s-.309-1.749-1.029-2.16c-.308-.206-.617-.206-.925-.206s-.72.103-1.029.309l-21.188 12.24c0-.617-.206-1.235-.309-1.852 0-.411-.103-.72-.206-1.131-.102-.926-.205-1.852-.308-2.88v-.823c-.206-2.468-.206-4.937-.206-7.508l26.846-15.635h.103c1.234-.823 2.262-2.674 2.262-4.217s-.308-1.748-1.028-2.16c-.617-.308-1.234-.308-1.954.103l-25.92 15.017c0-.72.103-1.337.205-2.057v-.926c.103-1.131.309-2.263.412-3.394v-.514c.411-2.572.823-5.246 1.44-7.92l18.617-10.8c1.337-.72 2.366-2.674 2.366-4.32s-.309-1.749-1.029-2.16c-.308-.206-.617-.206-.926-.206-.308 0-.72.103-1.028.309l-16.046 9.36c.309-1.029.514-2.057.823-3.086 0-.206.103-.411.206-.617 1.543-4.937 3.291-9.874 5.451-14.811l43.2-25.2c1.337-.72 2.366-2.675 2.366-4.32s-.309-1.749-1.029-2.16c-.514-.309-1.234-.309-1.954.103l-38.366 22.319c.72-1.44 1.44-2.88 2.16-4.217 4.732-8.64 10.08-16.765 16.046-24.068v.206c0 .102 0 .205.103.308v.206s.103.206.205.308c0 0 0 .103.103.206 0 0 .206.206.309.206s.308.103.411.206h.823s.206 0 .309-.103c0 0 .205 0 .205-.103l17.897-10.389c1.132-.617 2.058-2.16 2.263-3.702v-.618c0-1.028-.308-1.748-1.028-2.057-.617-.308-1.235-.308-1.955.103l-13.679 8.023c9.257-9.874 19.234-17.589 29.211-22.526v113.451c-.309.412-.72.823-1.029 1.234-.205.206-.308.412-.514.618a129 129 0 0 1-8.64 9.565l-.103.103c-.514.514-1.131 1.029-1.646 1.646l-.205.205c-.515.515-1.029 1.029-1.543 1.44 0 0-.206.206-.309.206-.514.514-1.028.926-1.543 1.337-.102 0-.205.206-.308.309-.514.411-1.029.823-1.44 1.337-.103 0-.206.206-.309.309-.514.411-.925.822-1.44 1.234-.103.103-.308.206-.411.308-.514.412-.926.72-1.44 1.132-.103.103-.309.206-.412.308-.514.412-.925.72-1.439 1.029-.103.103-.309.206-.412.309-.514.308-.926.72-1.44 1.028-.103.103-.308.206-.411.309-.515.308-.926.617-1.44.925-.103.103-.309.206-.412.309-.411.309-.925.617-1.337.926-.206 0-.308.205-.514.308a9.4 9.4 0 0 1-1.337.823c-.206 0-.309.206-.515.309-.411.308-.925.514-1.337.823-.205 0-.308.205-.514.308-.411.206-.926.514-1.337.72-.206 0-.309.206-.514.309-.412.205-.926.514-1.338.72-.205 0-.308.205-.514.205-.411.206-.926.412-1.337.618-.206 0-.309.102-.514.205-.412.206-.926.412-1.337.617-.206 0-.309.103-.515.206a7 7 0 0 1-1.337.514c-.206 0-.308.103-.514.206-.412.206-.926.309-1.337.514-.206 0-.309.103-.514.206-.412.206-.926.309-1.338.411-.103 0-.308 0-.411.103-.411.103-.926.309-1.337.412-.103 0-.309 0-.412.103-.411.102-.925.205-1.337.411h-.411c-.514.103-.926.206-1.44.309h-.412c-.514 0-.925.205-1.44.308h-.308c-.514 0-1.029.103-1.44.206h-.309c-.514 0-1.028.103-1.543.206h-.514l.309-.618c0-.205.205-.411.205-.617v-.205c0-.206 0-.412.103-.515v-.823c0-1.028-.308-1.748-1.028-2.159-.103 0-.206-.103-.412-.103h-.925c-.206 0-.309.103-.515.205l-3.805 2.263a23 23 0 0 1-.926-1.645c-.206-.309-.309-.618-.514-.926zm-4.423-14.091 21.6-12.549c.103 0 .412-.206.617-.103s.412.515.412 1.029c0 1.234-.823 2.777-1.749 3.291l-20.263 11.726c0-.206 0-.309-.102-.514-.206-.72-.309-1.543-.515-2.263 0-.206 0-.412-.102-.617zm24.994-32.092-26.228 15.223v-1.645c0-.823 0-1.543.103-2.263l26.64-15.429c.205 0 .514-.206.72-.103s.411.515.411 1.029c0 1.234-.823 2.777-1.748 3.291zm78.583-99.77.103.102c.514.618.925 1.235 1.337 1.852 0 0 0 .103.103.206l1.234 1.851s.103.206.206.309c.411.617.72 1.234 1.131 1.954 0 .103.103.308.206.411.308.617.617 1.235.926 1.955 0 .205.102.308.205.514.309.617.515 1.234.823 1.954 0 .206.103.412.206.617.206.617.514 1.235.72 1.955 0 .308.206.514.206.822.205.618.411 1.235.514 1.852 0 .308.103.617.206.926.102.617.308 1.234.411 1.851 0 .411.103.72.206 1.131.103.618.205 1.132.308 1.749 0 .411.103.926.206 1.337 0 .514.206 1.029.206 1.646 0 .514.103 1.028.205 1.543 0 .514.103 1.028.103 1.44 0 .617 0 1.234.103 1.851v7.714c0 .823 0 1.749-.103 2.572v.72c0 .925-.103 1.954-.205 2.88v.514c-.103 1.131-.206 2.263-.412 3.394-1.954 15.12-7.097 31.577-15.531 47.829-.309.617-.72 1.337-1.029 1.954l-.205.411c-7.715 14.297-17.486 27.154-28.08 37.234-19.132 18.103-40.012 26.126-55.954 21.292l-2.263-2.263c-.309-.412-.72-.823-1.029-1.235l-.205-.205v-.206h1.748c17.897-.72 38.777-13.474 56.263-34.354a33 33 0 0 0 2.365-2.983c5.657-7.097 10.8-15.017 15.326-23.245l.309-.618c.308-.617.72-1.234 1.028-1.954a160 160 0 0 0 2.983-5.966c.103-.205.206-.514.309-.72.308-.72.617-1.337.925-2.057.206-.411.412-.925.617-1.337.206-.617.515-1.131.72-1.748.206-.515.515-1.132.72-1.646l.618-1.543c.205-.617.514-1.234.72-1.851.205-.515.308-.926.514-1.44.205-.618.514-1.337.72-1.955.206-.411.308-.925.411-1.337.206-.72.515-1.337.72-2.057.103-.411.309-.823.412-1.234l.617-2.16.308-1.234.617-2.16.309-1.235c.206-.72.411-1.44.514-2.16 0-.411.206-.823.309-1.131.206-.72.308-1.44.514-2.16 0-.412.206-.72.206-1.132.103-.72.308-1.44.411-2.16 0-.411.103-.72.206-1.131.103-.72.206-1.44.411-2.16 0-.411.103-.72.206-1.131.103-.72.206-1.44.309-2.057 0-.412 0-.72.103-1.132 0-.72.205-1.337.205-2.057 0-.411 0-.72.103-1.131 0-.72.103-1.338.206-2.058v-1.131c0-.617 0-1.337.103-1.954v-9.875c0-.617 0-1.234-.103-1.851v-1.028c0-.618-.103-1.235-.206-1.749 0-.309 0-.617-.103-1.029 0-.617-.205-1.131-.308-1.748 0-.309-.103-.617-.206-.926 0-.617-.206-1.131-.309-1.646 0-.308-.102-.617-.205-.925-.103-.515-.206-1.132-.412-1.646 0-.309-.205-.617-.205-.926-.103-.514-.309-1.028-.412-1.645 0-.309-.206-.618-.308-.926-.206-.514-.309-1.029-.515-1.543 0-.309-.205-.514-.308-.823l-.617-1.543c-.103-.308-.206-.514-.309-.823-.206-.514-.411-1.028-.617-1.44-.103-.205-.206-.514-.411-.72-.206-.514-.515-.925-.721-1.44-.102-.205-.308-.514-.411-.72-.308-.514-.514-.925-.823-1.337-.103-.205-.308-.411-.411-.617s-.206-.411-.412-.617h.515c.514 0 .925.103 1.337.206h.308c.412 0 .823.206 1.132.206h.411c.412.102.823.205 1.337.308.103 0 .309 0 .412.103.308 0 .72.206 1.028.308h.206c.617.515 1.131 1.132 1.749 1.749.514.617 1.028 1.131 1.542 1.749zm-97.097 149.553 3.806-2.263c.103 0 .309-.206.514-.206h.206c.206.103.411.515.411 1.029v.72c0 .206-.102.514-.205.72v.103c0 .206-.206.411-.309.617v.103c-.103.206-.308.411-.411.514h-2.572c-.205-.308-.411-.514-.514-.823 0-.103-.103-.205-.206-.308-.103-.206-.205-.309-.308-.515zm73.851-53.177c-.103.206-.308.514-.411.72-.926 1.646-1.954 3.189-2.983 4.732l-.617.925c-1.029 1.543-2.057 2.983-3.086 4.526l-.617.926c-1.029 1.44-2.057 2.88-3.189 4.32-.102.103-.205.308-.308.411v-29.417l14.091 7.612c0 .205 0 .205-.103.308-.925 1.646-1.851 3.394-2.777 4.937m4.012-7.2c-.103.309-.309.515-.412.823l-14.708-7.92v-1.131zm5.657-94.011h2.057s0 .103.103.206c.411.514.72 1.131 1.131 1.646 0 0 0 .205.103.205.309.618.72 1.132 1.029 1.749 0 0 0 .103.103.206.308.617.617 1.234.925 1.954v.206c.309.72.617 1.337.926 2.057 5.143 12.754 5.76 29.52 1.748 47.828v.206c-.205.926-.411 1.748-.617 2.674 0 .206 0 .412-.103.617l-.617 2.469c0 .308-.102.617-.205.926-.206.72-.412 1.542-.617 2.262-.103.412-.206.72-.309 1.132-.206.72-.411 1.337-.617 2.057-.103.411-.309.823-.412 1.234l-.617 1.852c-.205.514-.308 1.028-.514 1.44-.206.617-.411 1.131-.617 1.748-.206.515-.412 1.132-.617 1.646l-.617 1.543c-.206.617-.515 1.234-.72 1.851-.206.514-.412.926-.618 1.44-.308.617-.514 1.337-.822 1.954-.206.412-.412.823-.618 1.338-.308.72-.617 1.44-.925 2.057-.206.411-.412.823-.515 1.131-.308.72-.72 1.44-1.028 2.263-.206.309-.309.72-.514 1.029-.309.617-.618 1.337-1.029 1.954l-15.737-8.537v-79.2c7.097-3.291 13.988-5.143 20.366-5.348h.514zm-56.468 34.56v-.411c.822-.926 1.542-1.852 2.365-2.777l17.074-9.977c.206 0 .515-.206.72-.103.206.103.412.514.412 1.028v.515c-.206 1.131-.823 2.262-1.646 2.777l-17.897 10.388c-.206 0-.514.206-.72.103s-.411-.514-.411-1.029v-.514zm20.057 8.126h.205c.206.103.412.514.412 1.028 0 1.235-.823 2.778-1.749 3.292l-41.76 24.274a60 60 0 0 1 2.469-5.246l40.011-23.245c.103 0 .309-.206.514-.206zm-51.223 52.765c.206-.617.309-1.337.514-1.954l17.177-9.977c.103 0 .309-.206.515-.206h.205c.206.103.412.514.412 1.029s-.206 1.234-.514 1.851c0 .103-.103.206-.206.309v.103s-.103.205-.206.205l-.103.103-.205.206-.103.103s-.103 0-.206.103l-.103.102-17.588 10.286c0-.411.205-.823.308-1.337 0-.411.206-.823.309-1.234z"/>
    <path fill="#fff" d="M506.42 288.104c-5.143-3.188-37.851-22.731-57.291-34.251 20.983-47.314 17.074-93.599-9.257-107.794h-.103l-24.686-13.371q-8.022-4.32-17.897-4.32V82.391c0-5.657-1.954-9.977-5.245-11.931l-.103-.103h-.309v-.206l-7.508-3.805c-.206-.103-.514-.309-.72-.309h-.103c-2.777-1.234-6.171-.72-9.566 1.234l-38.879 22.835c-.412-.412-.926-.72-1.44-1.03h-.103l-.309-.205-7.508-3.805c-.206-.103-.515-.31-.72-.31h-.103a8.4 8.4 0 0 0-3.189-.616c-.823-1.44-1.954-2.572-3.291-3.292h-.412v-.205l-7.508-3.806c-.206-.103-.514-.309-.72-.309h-.103c-1.029-.411-2.263-.617-3.497-.617-.926-1.543-2.057-2.777-3.394-3.6h-.103l-.309-.205-7.508-3.806c-.206-.103-.515-.309-.72-.309h-.103c-1.235-.514-2.469-.72-3.909-.617-.72-.823-1.543-1.543-2.365-2.057h-.412v-.206l-7.508-3.805c-.206-.103-.515-.309-.72-.309h-.103c-1.029-.411-2.263-.617-3.497-.617-.926-1.543-2.058-2.777-3.395-3.6h-.103l-.308-.206-7.509-3.805c-.205-.103-.514-.309-.72-.309h-.102c-1.338-.617-2.88-.72-4.526-.514-.823-1.337-1.852-2.263-3.086-2.983h-.411v-.206l-7.509-3.806c-.206-.102-.514-.308-.72-.308h-.103c-1.234-.514-2.468-.72-3.908-.617-1.852.103-3.806.72-5.76 1.954l-132.685 77.657c-8.229 4.834-14.914 17.485-14.914 28.285v79.817l-3.292-8.537s0-.103-.205-.103l-3.189-1.543h-.617l-47.828 27.36a.57.57 0 0 0-.309.514v120.96c0 .205.103.411.309.514l249.427 134.331h.617l184.833-105.84a.56.56 0 0 0 .309-.514V298.287c15.325 8.743 23.554 13.474 24.994 14.4 1.645 1.029 4.32 1.954 7.303 1.954s2.262-.103 3.394-.411c3.394-.926 6.068-3.189 7.817-6.48 5.246-9.977-.926-15.326-6.069-18.514zM198.365 173.111l33.84-19.852s0 .103-.103.206c-.412.617-.823 1.337-1.235 1.954 0 .206-.205.412-.308.515-.309.617-.617 1.131-.926 1.748 0 .206-.206.412-.308.514l-.926 2.16c0 .206-.206.412-.309.72l-.617 1.852c0 .103-.103.308-.206.411l-21.497 12.652c-8.228 4.834-14.914 17.485-14.914 28.285v125.28l-6.788-3.703V200.162c0-10.389 6.48-22.628 14.297-27.257zm-6.275 31.268c0-10.388 6.48-22.628 14.298-27.257l20.468-11.931v.308c0 .206 0 .412-.103.617 0 .412-.206.823-.308 1.338 0 .205 0 .411-.103.617 0 .514-.206 1.028-.206 1.543v.308c0 .514-.103 1.029-.103 1.543l-13.063 7.611c-8.228 4.835-14.914 17.486-14.914 28.286v126.102l-5.76-3.086V204.379zm32.812 1.749c-.206.411-.309.823-.515 1.234-.102.309-.205.514-.308.823-.206.411-.309.925-.514 1.337 0 .206-.206.411-.206.617-.206.514-.309 1.029-.412 1.44a.78.78 0 0 1-.205.514c-.103.515-.309 1.132-.412 1.646v.411a82 82 0 0 0-.308 1.955 26 26 0 0 0-.309 3.908v126.205l-6.788-3.703v-130.01c0-.206 0-.515.103-.72 0-.309 0-.617.205-1.029 0-.206 0-.514.103-.72 0-.308.103-.72.206-1.028 0-.206.103-.515.206-.72 0-.309.205-.72.308-1.029 0-.206.103-.514.206-.72.103-.308.206-.72.308-1.028 0-.206.206-.412.206-.72.103-.309.309-.72.412-1.029 0-.206.205-.411.308-.617.103-.309.309-.72.514-1.029 0-.205.206-.411.309-.617.206-.308.308-.72.514-1.028 0-.206.206-.412.309-.618.205-.308.411-.72.617-1.028.103-.206.206-.412.308-.514.206-.309.412-.72.618-1.029.102-.206.205-.309.308-.514.206-.309.412-.617.72-.926.103-.206.206-.309.309-.514.205-.309.514-.617.72-.926.103-.103.205-.309.411-.411.206-.309.514-.618.72-.823.103-.103.206-.309.412-.412l.822-.823c.103-.102.309-.205.412-.411 0 0 .103 0 .206-.103v12.857c-.206.309-.309.72-.515 1.029-.103.308-.308.617-.411.926zm-25.817 127.953V207.259c0-10.388 6.48-22.628 14.297-27.257l12.343-7.2v7.303l-4.938 2.88c-6.171 3.6-11.519 11.623-13.782 19.954v.206c-.206.617-.309 1.234-.412 1.851v.515c0 .514-.205 1.028-.308 1.542v.72c0 .412-.103.926-.103 1.337v128.365l-6.789-3.702zm8.125 4.423V211.476c0-10.388 6.48-22.628 14.297-27.257l4.218-2.468v8.022l-.412.412c-.308.206-.514.411-.823.72-.205.103-.308.308-.514.514l-.823.823c-.103.206-.308.309-.411.514-.309.309-.515.617-.823.926-.103.103-.206.309-.412.514-.308.309-.514.617-.822 1.029-.103.103-.206.308-.309.514-.206.309-.514.72-.72 1.029 0 .205-.206.308-.309.514-.205.411-.514.72-.72 1.131 0 .206-.205.309-.308.515l-.617 1.234c0 .206-.206.309-.206.514l-.617 1.235c0 .205-.206.308-.206.514-.205.411-.411.823-.514 1.234 0 .206-.103.412-.206.617-.205.412-.308.823-.411 1.235 0 .205-.103.411-.206.72a5 5 0 0 1-.411 1.131c0 .309-.103.514-.206.823 0 .308-.206.72-.309 1.028 0 .309-.102.617-.205.926 0 .309-.103.617-.206.823 0 .411-.103.823-.206 1.337v.514c-.205 1.235-.205 2.469-.205 3.6V342.31l-6.378-3.497zm15.737 8.434v-129.29c0-.412 0-.72.103-1.132 0-.206 0-.514.103-.72 0-.308.103-.72.206-1.028 0-.206 0-.515.103-.72 0-.412.205-.72.308-1.132 0-.206.103-.411.206-.72.103-.514.309-.926.411-1.44 0-.103 0-.308.103-.411.206-.617.412-1.235.617-1.749 0-.206.206-.411.206-.617.103-.309.206-.617.412-.926v141.325l-2.88-1.543zm25.817 12.754c0-.72.309-1.645.72-2.262q.464-.618.926-.926l50.606-29.314c.102 0 .308-.206.514-.206h.206c.205.103.411.514.411 1.029 0 1.131-.72 2.571-1.646 3.188h-.103l-50.605 29.314c-.206 0-.514.206-.72.103s-.411-.514-.411-1.028zm34.046-1.851c.206 0 .514-.206.72-.103s.411.514.411 1.029c0 1.234-.822 2.674-1.748 3.291l-15.12 8.743-3.394-1.851zm42.068-190.696c0-1.234.823-2.674 1.749-3.291l19.543-11.417c-1.852 1.645-3.703 3.497-5.452 5.348-.205.206-.411.411-.514.617-1.029 1.029-2.057 2.16-3.086 3.292l-11.005 6.48c-.206 0-.515.205-.72.102-.206-.102-.412-.514-.412-1.028zm-15.325 31.577c-.206-.103-.412-.514-.412-1.029 0-1.234.72-2.674 1.646-3.188l4.011-2.366v.103c-.822 1.337-1.543 2.674-2.263 4.011-.205.412-.411.823-.719 1.235v.205c-.103 0-1.646.926-1.646.926-.206 0-.514.206-.72.103zm-19.646 31.577c0-.72.309-1.543.617-2.16v-.206s.103-.205.206-.308c.206-.206.411-.412.617-.515l9.874-5.76c-.617 1.646-1.131 3.189-1.645 4.732l-8.846 5.143c-.206 0-.514.205-.72.102-.206-.102-.411-.514-.411-1.028zm-41.143 66.548c0-1.234.823-2.674 1.646-3.291l42.377-24.583v.206c0 1.131 0 2.263.103 3.497l-43.097 25.097c-.206 0-.514.206-.72.103s-.411-.515-.411-1.029zm27.566-39.6 18.411-10.697c-.205 1.44-.514 2.777-.617 4.217l-18.308 10.697c-.206 0-.515.206-.72.103-.206-.103-.412-.514-.412-1.028 0-.515.206-1.337.515-1.955.308-.514.72-1.028 1.131-1.234zm13.577 35.897v-.514c.206-1.131.823-2.263 1.646-2.777l3.6-2.057c.308 1.131.617 2.263.925 3.291l-5.142 2.983c-.206 0-.515.206-.72.103-.206-.103-.412-.514-.412-1.029zm92.16 57.086c.205-.103.514-.309.72-.515h.102c.309-.205.515-.308.823-.514v1.852c0 7.714-3.6 16.457-8.743 22.319 0 0 0 .103-.102.206-.309.309-.618.617-.926 1.029l-.412.411c-.205.103-.308.309-.514.412-1.234 1.131-2.468 2.16-3.806 2.88l-26.742 15.428-5.657-17.383zm1.851 45.051 17.691-10.08 1.852 1.028-53.383 30.24-.514-1.543 34.457-19.645zm36.308-94.834-18.822 83.314-18.206 10.388-33.737 19.235-6.171-18.926 26.948-15.531c2.057-1.235 4.114-2.88 5.863-4.937 5.451-6.069 9.257-15.326 9.257-23.452v-2.777c7.097-5.863 12.137-16.868 12.137-26.228v-1.646c14.297-10.08 27.668-24.48 38.777-41.76 2.674 1.543 6.686 3.806 11.417 6.48l-27.154 15.532zm-15.942 84.857-1.955-1.029 18.617-82.285 1.955 1.029-14.503 64.285-4.114 18.103zm19.337-83.52-1.852-.925 2.674-1.543 24.069-13.783 1.748.926-26.639 15.222zm-114.48 22.937c0-1.234.823-2.674 1.749-3.291l6.48-3.703s.205 0 .308.103c.206 0 .412.206.617.308.206 0 .309.103.515.206.103 0 .308.103.411.206l1.852 1.028-10.595 6.172c-.205 0-.514.206-.72.103-.102 0-.205-.206-.308-.412v-.617zm138.651-70.868a203 203 0 0 1-4.629 9.566c-.308.617-.72 1.337-1.028 1.954l-.412.72c-2.057 3.806-4.217 7.611-6.582 11.211-11.109 17.486-24.583 32.092-38.983 42.069-20.366 14.194-40.423 17.794-55.234 9.771-.412-.206-.823-.514-1.234-.72-.206 0-.309-.206-.515-.308a9 9 0 0 0-1.028-.618c-.206-.102-.309-.205-.514-.308-.309-.206-.618-.514-.926-.72-.103-.103-.309-.206-.412-.309-.308-.205-.617-.514-1.028-.823-.103-.102-.206-.205-.412-.308-.308-.309-.72-.617-1.028-.926l-.309-.308-1.028-1.029s-.206-.103-.206-.206c-.411-.411-.72-.823-1.131-1.234l-.103-.103a7.8 7.8 0 0 1-1.132-1.44c-.925-1.131-1.748-2.366-2.571-3.6-.412-.617-.72-1.234-1.132-1.954-.411-.617-.72-1.337-1.028-1.954-.617-1.338-1.234-2.675-1.749-4.012-.205-.514-.411-1.131-.617-1.645-.823-2.366-1.543-4.938-2.16-7.612-.308-1.543-.617-3.188-.926-4.731q-1.08-7.252-.925-15.429c0-1.748.103-3.6.205-5.348.309-5.246 1.029-10.595 2.16-16.149.412-1.954.823-4.011 1.338-5.965 1.542-6.48 3.6-13.063 6.068-19.646.823-2.263 1.749-4.526 2.777-6.891 2.16-5.04 4.526-9.978 7.097-14.709 1.543-2.777 3.086-5.554 4.732-8.228a386 386 0 0 1 5.451-8.435c13.886-20.16 30.96-35.794 48.034-44.125 4.732-2.263 9.463-4.012 13.989-5.143.514-.103 1.131-.206 1.645-.411h.72c.309-.206.515-.206.823-.309.412 0 .926-.103 1.44-.206h.617c1.543-.205 3.189-.308 4.629-.411h3.806c.411 0 .925 0 1.337.103q7.406.616 13.577 4.011c25.714 13.989 29.314 59.863 8.331 106.662zm-33.326-120.239 16.869 9.154c-.823-.206-1.646-.309-2.469-.514h-.308c-.823-.103-1.749-.206-2.572-.309h-5.245c-1.543 0-3.086.206-4.732.412h-.72c-.514.102-.926.205-1.44.308-.308 0-.514 0-.823.103-.205 0-.514 0-.72.103-.514.103-1.131.206-1.645.411q-6.943 1.697-14.195 5.246c-17.279 8.434-34.559 24.274-48.548 44.537-1.851 2.777-3.703 5.554-5.451 8.434-1.646 2.674-3.189 5.451-4.732 8.331-2.571 4.835-5.04 9.772-7.2 14.812-1.028 2.263-1.954 4.628-2.777 6.891a182 182 0 0 0-6.171 19.749c-.514 2.057-.926 4.011-1.337 6.068-1.132 5.554-1.852 11.006-2.16 16.252-.103 1.851-.206 3.6-.206 5.451 0 5.554.206 10.8 1.029 15.634.205 1.646.514 3.189.925 4.732q.925 4.165 2.16 7.714c.206.617.412 1.131.617 1.748.515 1.337 1.132 2.777 1.852 4.115.308.617.617 1.131.823 1.645 0 .103.103.309.205.412.412.72.72 1.337 1.132 1.954.823 1.44 1.748 2.571 2.674 3.806.514.617.926 1.131 1.44 1.748.206.206.309.412.514.617.309.412.72.72 1.132 1.132.103.103.206.206.308.411l-10.08-5.657-2.88-1.543c-.617-.205-1.234-.514-1.851-.823-.514-.205-1.029-.514-1.44-.72-1.337-.72-2.674-1.542-3.909-2.468-2.262-1.646-4.319-3.6-6.171-5.76-.617-.72-1.234-1.543-1.851-2.366-2.777-3.908-5.04-8.537-6.686-13.68a273 273 0 0 1-1.234-4.525c-1.029-4.217-1.646-8.846-1.955-13.68 0-1.646-.205-3.395-.205-5.143 0-5.349.308-10.903 1.131-16.663.309-1.954.617-3.908.926-5.76 1.131-6.171 2.777-12.548 4.731-18.823.72-2.16 1.44-4.32 2.263-6.582 2.674-7.303 5.966-14.606 9.669-21.703.308-.514.514-1.029.823-1.646 1.131-2.057 2.262-4.114 3.497-6.171 6.068-10.286 13.062-19.749 20.674-28.08 4.525-4.937 9.257-9.463 14.091-13.474 9.36-7.715 18.926-13.269 28.286-16.56.514-.206 1.131-.412 1.645-.515q7.56-2.313 14.503-2.468h.617c6.275 0 12.137 1.44 17.177 4.114zm-18.514-51.326v45.977c-4.526.103-9.257.926-14.091 2.469h-.514c-.206 0-.515.103-.823.308l-.617.412c-9.463 3.291-19.029 8.845-28.595 16.663l-25.199 14.708c-1.338.72-2.366 2.674-2.366 4.32 0 1.029.308 1.749 1.028 2.057.206.103.515.206.72.206.309 0 .72-.103 1.132-.309l7.714-4.525c-.411.411-.72.925-1.131 1.337l-1.543 1.851c-.412.412-.72.926-1.132 1.44-.514.617-.925 1.234-1.44 1.852-.411.514-.72 1.028-1.131 1.44-.514.617-.926 1.234-1.337 1.851-.412.514-.72 1.029-1.132 1.543-.411.617-.925 1.234-1.337 1.851-.411.515-.72 1.029-1.131 1.543-.412.617-.823 1.234-1.337 1.954-.309.515-.72 1.029-1.029 1.646-.411.617-.823 1.337-1.337 1.954-.309.515-.72 1.029-1.029 1.543-.617 1.029-1.337 2.057-1.954 3.189 0 .103-.103.205-.206.308l-5.862 3.497s-.103 0-.206.103c-1.234.823-2.16 2.572-2.16 4.217 0 1.646.411 1.749 1.029 2.16.411.206.925.309 1.337.103.103 0 .308 0 .411-.205-.308.617-.617 1.234-.926 1.748l-1.234 2.469c-.411.925-.823 1.851-1.337 2.777-.411.823-.72 1.645-1.131 2.365-.412 1.029-.823 2.058-1.338 2.983l-.925 2.16c-.72 1.646-1.337 3.395-1.955 5.04l-11.005 6.48c-.514.309-.926.72-1.337 1.235-.617.925-1.029 2.057-1.029 3.085s.309 1.749 1.029 2.057c.205.103.514.206.72.206.308 0 .72-.103 1.131-.308l7.611-4.423-.308 1.234c-.309.926-.514 1.851-.823 2.777-.206.514-.309 1.131-.411 1.646-.206.925-.515 1.851-.72 2.88-.103.514-.206 1.028-.309 1.44-.514 2.057-.926 4.217-1.337 6.274 0 .309-.103.617-.206.926l-19.234 11.211c-.103 0-.309.206-.411.309-.103.103-.309.205-.412.411a1.4 1.4 0 0 0-.308.411v.103s-.103.206-.206.309c0 0-.103.206-.206.309v.102a4.8 4.8 0 0 0-.617 2.366c0 .823.309 1.749 1.029 2.057.205.103.514.206.72.206h.514a.78.78 0 0 0 .514-.206l17.486-10.183c0 .412 0 .926-.103 1.338 0 .72-.206 1.542-.309 2.262 0 .618-.103 1.235-.205 1.852 0 .72-.103 1.44-.206 2.16v1.954c0 1.234 0 2.366-.103 3.6v2.057l-42.891 24.891c-1.337.72-2.263 2.675-2.263 4.32 0 1.029.309 1.749 1.029 2.058.205.102.514.205.72.205.308 0 .72 0 1.131-.308l42.583-24.789c0 .412 0 .926.102 1.337 0 .515 0 1.132.103 1.646 0 .617.103 1.234.206 1.852 0 .514.103 1.028.206 1.542.103.926.308 1.852.411 2.777.103.618.206 1.235.412 1.852l.308 1.543-3.908 2.263c-1.132.617-2.057 2.16-2.263 3.702v.618c0 1.028.308 1.748 1.028 2.057.206.103.515.205.823.205.412 0 .72 0 1.132-.308l4.937-2.88c0 .103 0 .206.103.308.102.412.308.926.514 1.338 0 .205.103.308.206.514.205.411.308.823.514 1.337 0 .206.103.309.206.514.205.412.308.823.514 1.235 0 .205.103.308.206.514l.617 1.234c0 .103.103.206.205.309.72 1.337 1.44 2.674 2.263 4.011 0 .103.206.309.309.412.206.308.411.617.617.822.103.206.206.412.411.515v.72c0 1.028.412 1.748 1.029 2.16.411.205.926.308 1.44.102l.926.926c.103.103.205.309.411.412a32.4 32.4 0 0 0 4.937 4.32c1.337.925 2.675 1.851 4.012 2.571.205 0 .308.206.514.206l-5.76 3.291c-1.337.72-2.366 2.674-2.366 4.32v.72c.103.617.412 1.132.926 1.44.617.309 1.234.309 1.954-.103l11.314-6.48 18.206 10.183c14.914 8.023 35.074 4.731 55.543-9.257v.72c0 9.154-5.04 19.851-11.932 25.508-.823.72-1.645 1.235-2.571 1.749l-45.051 26.023-6.069-18.617c0-.103-.206-.309-.308-.309h-.309v-.103l-3.086-1.645h-.617l-43.405 24.891-14.297-7.714 14.502-8.332c1.338-.72 2.263-2.674 2.263-4.32s-.308-1.748-1.028-2.16c-.103 0-.206-.103-.412-.103q-.77-.155-1.543.309l-19.851 11.52-12.034-6.48h.103l50.605-29.314c.103 0 .206-.103.309-.206 1.131-.823 1.954-2.571 1.954-4.114s-.309-1.749-1.029-2.16c-.514-.309-1.234-.309-1.954.103l-50.605 29.314c-.515.308-.926.72-1.337 1.234-.618.926-1.029 2.057-1.029 3.086v.514l-12.446-6.686V175.682c.103-3.086.823-6.48 2.058-9.874 1.44-3.806 3.394-7.406 5.76-10.389 2.057-2.468 4.217-4.422 6.377-5.76l132.582-77.656h.103c3.188-1.852 6.171-2.263 8.639-1.132l.309.206c2.983 1.646 4.731 5.657 4.731 11.006zm-21.908-14.194c3.085-1.851 6.068-2.263 8.434-1.234h.103c.206 0 .411.206.617.308l3.908 1.955h-.411q-2.469.308-5.246 1.851l-132.685 77.657c-2.365 1.337-4.628 3.394-6.788 6.068-2.469 3.086-4.526 6.789-5.966 10.697-1.234 3.395-2.057 6.995-2.16 10.183v177.016l-6.788-3.702V171.568c0-.617 0-1.234.103-1.852a29.7 29.7 0 0 1 1.234-5.862c1.337-4.526 3.703-8.949 6.48-12.446 2.057-2.469 4.114-4.423 6.377-5.76l84.959-49.783 8.332-4.937 39.291-23.04zm-40.629 22.423-92.673 54.308c-2.366 1.337-4.629 3.394-6.686 5.966l-36.308 21.291c-7.715 4.526-14.092 15.943-14.915 26.229v127.13l-6.377-3.497V195.739c0-10.388 6.48-22.628 14.297-27.257l69.223-40.525 63.359-37.131 1.235-.618c.308-.103.617-.308.925-.411 0 0 .206 0 .309-.103 2.263-.823 4.423-.823 6.274 0l.309.206v-.206.206c.206.206.514.411.823.617zm-9.565-4.937c.205 0 .411.206.617.308l3.908 1.955h-.925c-.206 0-.412 0-.617.102-.206 0-.515.103-.823.206-.206 0-.412 0-.515.206-.308.103-.617.206-.925.411-.103 0-.309.103-.412.206-.411.206-.925.411-1.337.72l-132.685 77.657c-8.228 4.834-14.914 17.485-14.914 28.285v125.485l-6.789-3.703V191.522c0-10.388 6.48-22.628 14.298-27.257l77.348-45.257 55.337-32.4c1.851-1.131 3.702-1.645 5.451-1.748 1.131 0 2.16.103 2.983.514h.103zm-4.217-1.749h-.618c-.308 0-.617.103-.925.206-.103 0-.309 0-.412.103-.308.103-.72.206-1.028.411-.103 0-.206 0-.309.103-.514.206-.925.514-1.44.72l-55.234 32.4-77.348 45.257c-8.228 4.834-14.914 17.485-14.914 28.285v125.177l-5.966-3.189V186.996c0-10.388 6.48-22.628 14.297-27.257l132.582-77.656c3.189-1.852 6.172-2.263 8.64-1.132l.309.206v-.206.206c.926.514 1.748 1.337 2.366 2.263zm-11.109-6.686h.103c.206 0 .411.206.617.31l3.909 1.953h-.618c-.308 0-.719.103-1.028.206a13.9 13.9 0 0 0-3.909 1.646l-132.685 77.656c-8.228 4.835-14.914 17.486-14.914 28.286V312.79l-6.788-3.703V183.088c0-10.389 6.48-22.629 14.297-27.257l132.685-77.657c1.851-1.029 3.6-1.646 5.143-1.749 1.131 0 2.262.103 3.291.515zm-4.32-1.645h-.206c-.205 0-.411 0-.617.103-.205 0-.411.103-.617.205-.206 0-.411.103-.72.206-.206 0-.411.206-.617.206s-.514.206-.72.308c-.206 0-.411.206-.617.309a6 6 0 0 0-.72.411l-8.023 4.629-124.559 73.028c-8.229 4.834-14.914 17.486-14.914 28.286V308.47l-5.966-3.189-.412-.205V178.665c0-10.389 6.48-22.629 14.298-27.257l132.582-77.657c3.188-1.851 6.171-2.263 8.64-1.131l.308.206v-.206.206c1.029.617 1.852 1.44 2.674 2.571zm-11.417-6.994h.103c.206 0 .411.205.617.308l3.909 1.954h-.72c-.309 0-.618 0-.823.103h-.309c-.308 0-.617.206-1.028.309-.926.308-1.749.72-2.675 1.234l-132.685 77.657c-8.228 4.834-14.914 17.485-14.914 28.285V304.15l-6.788-3.703V174.242c0-10.388 6.48-22.628 14.297-27.257l132.685-77.657c.823-.514 1.645-.925 2.468-1.131.823-.309 1.646-.514 2.366-.514 1.337-.103 2.571 0 3.6.514zm-4.937-1.543h-.309c-.308 0-.617.205-.925.308-.103 0-.309 0-.412.103l-.925.309c-.103 0-.206.103-.412.205l-1.234.618-2.469 1.44-5.451 3.188-124.662 73.028c-8.229 4.835-14.914 17.486-14.914 28.286v125.485l-5.76-3.086V171.465c0-7.817 3.6-16.56 8.742-22.423 1.749-1.954 3.6-3.6 5.555-4.731l132.582-77.657c3.188-1.851 6.171-2.263 8.64-1.131l.308.205v-.205.205c.515.309.926.72 1.44 1.132zm-10.183-5.554h.103c.206 0 .411.205.617.308l3.909 1.954h-.823c-.309 0-.514 0-.823.103-.206 0-.309 0-.514.103-.309 0-.515.103-.823.206-.206 0-.309.103-.514.206-.72.308-1.44.617-2.263 1.028l-132.685 77.657q-3.086 1.851-5.863 4.937c-5.349 6.068-9.154 15.223-9.154 23.348v124.662l-6.789-3.702V167.145c0-10.389 6.48-22.628 14.297-27.257L259.77 67.58l9.257-5.451c1.749-1.03 3.497-1.646 5.143-1.75 1.131 0 2.263.104 3.291.515zm-4.32-1.646h-.617c-.309 0-.72.206-1.029.308-.102 0-.205 0-.308.103-.412.103-.72.309-1.132.412h-.205a9.4 9.4 0 0 0-1.44.72l-132.685 77.656c-8.229 4.835-14.914 17.486-14.914 28.286v124.456l-6.377-3.497V160.665c.72-9.874 6.891-20.88 14.297-25.2l131.039-76.73 1.646-.926c3.188-1.852 6.171-2.263 8.639-1.132l.309.206v-.206.206c1.029.617 1.851 1.44 2.674 2.571zm-11.417-6.994h.103c.206 0 .411.205.617.308l3.909 1.954h-.926c-.206 0-.411 0-.617.103-.206 0-.514.103-.72.206-.206 0-.412.103-.617.206-.309 0-.515.205-.823.308-.206 0-.309.103-.514.206-.412.206-.926.411-1.338.72l-61.096 35.794-71.589 41.965c-7.097 4.218-13.062 14.195-14.605 23.76l-.309 2.469v126.925l-6.788-3.703V158.711c0-10.389 6.48-22.629 14.297-27.257l132.685-77.657c1.44-.823 2.88-1.44 4.32-1.646 1.543-.205 2.983 0 4.114.412zm-5.246-1.44c-.205 0-.308 0-.514.102a.78.78 0 0 0-.514.206c-.206 0-.309.103-.514.206-.206 0-.412.205-.618.205-.205 0-.308.103-.514.206s-.514.206-.72.412c-.103 0-.206.103-.308.205l-132.583 77.657c-8.228 4.834-14.914 17.486-14.914 28.286v124.559l-7.097-3.806V154.905c0-10.388 6.48-22.628 14.297-27.257l132.582-77.657c3.189-1.851 6.275-2.262 8.64-1.131l.309.206v-.206.206c.823.514 1.646 1.234 2.263 2.16zM90.16 150.894c0-10.389 6.48-22.629 14.297-27.257L237.142 45.98c1.748-1.029 3.497-1.646 5.142-1.749 1.132 0 2.263.103 3.292.515h.103c.205 0 .411.205.617.308l3.908 1.955h-.617c-1.645.205-3.394.822-5.143 1.851L111.76 126.517c-8.229 4.834-14.915 17.485-14.915 28.285v124.045l-6.788-3.703V150.688zM88.925 274.63l-19.748-10.697-28.491-15.428 44.125-25.303 4.217 10.903v40.422zm-6.994-53.074 1.852.926-44.743 25.611a.57.57 0 0 0-.309.514c0 .206.103.412.309.515l18.411 9.977 31.783 17.177 8.023 4.32 8.331 4.525.72.412 23.04 12.446 6.994 3.805 8.023 4.32 2.777 1.543 12.96 6.994 7.2 3.909 8.023 4.32 7.611 4.114 8.023 4.32 6.994 3.806 8.023 4.32 7.612 4.114 8.022 4.32 4.115 2.263 33.839 18.308 6.583 3.6h.206v.103l15.634 8.434h.617l43.406-24.891 1.748.926-44.742 25.611-48.754-26.331-8.023-4.32-4.114-2.263-4.835-2.571-5.451-2.983-5.451-2.983-7.406-4.012-.617-.308-6.994-3.806-3.292-1.748-6.686-3.6-5.76-3.086-8.022-4.32-7.2-3.909-3.395-1.851-20.365-11.006-6.994-3.805-1.44-.823-22.32-12.034-8.332-4.526-6.685-3.6-55.851-30.137 46.594-26.64zM34.72 368.847V249.43l62.64 33.737 8.331 4.526 3.086 1.646 10.183 5.554 2.468 1.337 1.749.926 12.445 6.685.926.515 3.806 2.057 8.742 4.731 3.189 1.749.926.514 68.811 37.131 60.582 32.709h.206v119.519zm432.923 28.594L284.044 502.56V383.144l45.154-25.92 5.04 15.223 7.303 22.217 6.583 20.057.926 2.674v.103h.308l55.028-31.166h.103v-.103l18.823-83.416 27.36-15.737 16.148 9.154v101.005zm43.714-91.44q-2.469 4.629-7.097 5.863c-3.908 1.029-7.611-.103-9.668-1.44-1.543-.926-9.772-5.76-26.023-14.914-5.452-3.086-11.211-6.377-16.354-9.257l-.412-.206-2.983-1.646-12.24-6.994c.309-.411.515-.925.823-1.337.515-.823 1.029-1.748 1.543-2.571.514-.926 1.132-1.852 1.646-2.777.514-.926 1.028-1.749 1.44-2.675.308-.514.514-.925.823-1.44l.411-.72c.309-.617.72-1.337 1.029-1.954a246 246 0 0 0 4.423-9.051c19.439 11.622 52.045 31.062 57.085 34.148 7.508 4.731 9.257 9.874 5.657 16.868z"/>
</svg>
