<svg xmlns="http://www.w3.org/2000/svg" viewBox="0 0 64 64">
  <path fill="#EEF" d="m37.2 1.7 23.2 17a9 9 0 0 1 3.2 10L54.7 56a8.8 8.8 0 0 1-8.4 6.1H17.7A8.8 8.8 0 0 1 9.3 56L.4 28.6a9 9 0 0 1 3.2-10L26.8 1.8a8.7 8.7 0 0 1 10.4 0Z"/>
  <path fill="none" stroke="#4F0599" stroke-linecap="round" stroke-linejoin="round" stroke-width="2" d="M24.6 24 12.8 34l11.8 8.8m14.7 0L51 32.7l-11.8-8.8"/>
  <path fill="none" stroke="#AE5CFF" stroke-linecap="round" stroke-linejoin="round" stroke-width="2" d="m35.3 20-6.7 27"/>
</svg>
