<svg xmlns="http://www.w3.org/2000/svg" width="550" height="550" fill="none" viewBox="0 0 550 550">
    <path fill="#fff" d="M211.687 459.786a.7.7 0 0 1-.185-.027h-.002a143 143 0 0 1-8.687-2.876.653.653 0 0 1-.385-.835.65.65 0 0 1 .834-.386l.016.006.002.001.014.006a.649.649 0 0 1 8.393 4.111m99.869-.001a.65.65 0 0 1-.184-1.273l.011-.004a142 142 0 0 0 8.598-2.847.65.65 0 1 1 .449 1.221 143 143 0 0 1-8.676 2.872l-.013.004a.7.7 0 0 1-.185.027m-49.936 6.894c-14.178 0-27.944-1.516-40.916-4.505l.292-1.268c12.876 2.968 26.544 4.472 40.624 4.472 14.079 0 27.748-1.504 40.625-4.472l.291 1.268c-12.972 2.989-26.739 4.505-40.916 4.505"/>
    <path fill="#fff" d="m308.117 460.782-.338-1.256q1.819-.489 3.593-1.014l.369 1.246q-1.792.53-3.624 1.024"/>
    <path fill="#fff" d="M304.262 461.748a.651.651 0 0 1-.152-1.282q1.851-.45 3.67-.939c.34-.09.702.113.796.46a.65.65 0 0 1-.459.796q-1.826.492-3.696.946l-.005.001a.7.7 0 0 1-.154.018m-89.136-.966a153 153 0 0 1-3.624-1.024l.369-1.246q1.774.525 3.592 1.014z"/>
    <path fill="#fff" d="M218.98 461.748a.6.6 0 0 1-.154-.019 160 160 0 0 1-3.693-.944l-.006-.002a.65.65 0 1 1 .344-1.254q1.815.486 3.661.937h.001a.65.65 0 0 1-.153 1.282m29.304 4.473-.045-.002a182 182 0 0 1-20.327-2.55.65.65 0 0 1-.521-.758.66.66 0 0 1 .762-.52 181 181 0 0 0 20.135 2.528l.041.003a.65.65 0 0 1 .603.693.65.65 0 0 1-.648.606m-22.674-3.006a.6.6 0 0 1-.127-.013 153 153 0 0 1-4.78-1.028.65.65 0 1 1 .293-1.266c1.564.361 3.159.704 4.741 1.019a.65.65 0 0 1-.127 1.288m49.345 3.004a.65.65 0 0 1-.648-.605l-.002-.046a.65.65 0 0 1 .606-.648 181 181 0 0 0 20.177-2.531l.003-.001a.655.655 0 0 1 .758.522.65.65 0 0 1-.521.757 181 181 0 0 1-20.288 2.547q-.041.005-.085.005m22.673-3.004a.65.65 0 0 1-.106-1.292c0 .002.011-.002.018-.003 1.569-.312 3.15-.653 4.702-1.011h.002a.649.649 0 1 1 .293 1.265l-.002.001c-1.55.36-3.158.705-4.779 1.027a.6.6 0 0 1-.128.013M162.807 313.566a.65.65 0 0 1-.554-.309q-.262-.428-.497-.837a.65.65 0 0 1 .238-.888.65.65 0 0 1 .888.238c.151.263.314.534.48.808a.65.65 0 0 1-.555.988m5.889 7.538a.65.65 0 0 1-.471-.202c-.449-.47-.879-.942-1.287-1.405l-.001-.001-.002-.002a.65.65 0 0 1 .974-.861q.602.678 1.259 1.375a.65.65 0 0 1-.472 1.096"/>
    <path fill="#fff" d="M261.626 502.256c-25.168 0-49.563-4.941-68.691-13.913a.65.65 0 0 1-.336-.807l9.602-26.96c-3.776-1.205-23.379-7.812-46.309-21.901a.65.65 0 0 1-.309-.554v-29.945a.65.65 0 1 1 1.3 0c0 6.291 1.871 12.483 5.562 18.404 2.591 4.156 6.086 8.163 10.384 11.909q1.066.933 2.194 1.833a81 81 0 0 0 7.319 5.203 93 93 0 0 0 4.049 2.422 102 102 0 0 0 4.296 2.288c1.464.736 2.989 1.46 4.532 2.155q1.551.69 3.148 1.357c1.064.443 2.148.875 3.242 1.293q.823.313 1.657.622a142 142 0 0 0 12.202 3.864q1.812.487 3.669.939l.192.047c.554.132 1.109.267 1.668.394 1.543.358 3.138.7 4.743 1.02q1.2.24 2.41.463a181 181 0 0 0 20.182 2.532 194 194 0 0 0 26.581 0 180 180 0 0 0 20.182-2.532q1.211-.222 2.41-.463a154 154 0 0 0 6.606-1.461q1.85-.45 3.669-.939 1.817-.489 3.591-1.014a144 144 0 0 0 8.61-2.851c4.975-1.828 9.697-3.907 14.032-6.178a93 93 0 0 0 2.839-1.541 1 1 0 0 1 .104-.047c3.669-2.078 7.08-4.325 10.14-6.68a.7.7 0 0 1 .231-.115c6.883-1.801 13.426-3.951 19.447-6.386a.65.65 0 0 1 .894.602v8.433c0 5.325-1.297 10.607-3.853 15.699-12.655 25.204-54.676 42.808-102.189 42.808m-67.604-14.841c18.878 8.734 42.858 13.54 67.604 13.54 47.04 0 88.584-17.308 101.027-42.091 2.465-4.908 3.715-9.994 3.715-15.115v-7.472c-5.786 2.295-12.033 4.327-18.583 6.048-3.109 2.385-6.57 4.657-10.287 6.758a1 1 0 0 1-.106.048 95 95 0 0 1-2.777 1.505c-4.384 2.296-9.156 4.397-14.185 6.246a145 145 0 0 1-12.313 3.9 175 175 0 0 1-3.701.947q-.932.224-1.876.444c-1.575.365-3.183.711-4.78 1.028q-1.208.242-2.429.467a182 182 0 0 1-20.328 2.55c-8.705.606-17.831.614-26.76 0a182 182 0 0 1-20.328-2.55 166 166 0 0 1-7.209-1.495c-.561-.127-1.123-.263-1.682-.398l-.193-.046q-1.873-.455-3.701-.947a154 154 0 0 1-3.624-1.024 144 144 0 0 1-8.69-2.876q-.841-.311-1.67-.627c-1.107-.424-2.203-.86-3.279-1.309-1.077-.45-2.134-.903-3.18-1.37a118 118 0 0 1-6.061-2.936 104 104 0 0 1-2.874-1.561 94 94 0 0 1-4.106-2.456 82 82 0 0 1-7.436-5.286 64 64 0 0 1-2.236-1.869c-4.394-3.829-7.973-7.934-10.632-12.2-2.01-3.225-3.499-6.532-4.459-9.892v20.381c25.138 15.393 46.133 21.715 46.343 21.777a.65.65 0 0 1 .427.841zm-37.793-253.842a.65.65 0 0 1-.65-.65v-8.609a.65.65 0 1 1 1.299 0c0 2.652.344 5.336 1.021 7.978a.65.65 0 0 1-.365.756l-1.039.468a.7.7 0 0 1-.266.057"/>
    <path fill="#fff" d="M261.62 466.675c-4.494 0-8.996-.155-13.381-.46a182 182 0 0 1-20.327-2.549q-1.222-.228-2.43-.468a157 157 0 0 1-4.779-1.029q-.944-.218-1.877-.444a165 165 0 0 1-3.699-.946q-1.835-.492-3.625-1.024a143 143 0 0 1-10.363-3.504 127 127 0 0 1-6.456-2.679 114 114 0 0 1-6.059-2.936 99 99 0 0 1-2.875-1.56 99 99 0 0 1-4.105-2.455 82 82 0 0 1-7.437-5.287 73 73 0 0 1-2.234-1.867l-.006-.006-.004-.003c-4.379-3.813-7.957-7.919-10.628-12.199-3.822-6.126-5.76-12.549-5.76-19.091 0-5.326 1.296-10.608 3.853-15.699a.654.654 0 0 1 .731-.341c.293.07.5.333.5.633v13.199c0 30.398 45.289 55.128 100.957 55.128 27.911 0 53.895-6.098 73.164-17.172a.7.7 0 0 1 .208-.076 166 166 0 0 0 12.329-2.75.65.65 0 0 1 .561 1.144c-3.14 2.417-6.636 4.718-10.391 6.839q-1.412.796-2.874 1.56c-4.382 2.294-9.155 4.395-14.187 6.245a146 146 0 0 1-12.313 3.901 155 155 0 0 1-5.578 1.391c-1.548.36-3.156.706-4.779 1.028q-1.206.24-2.427.466a182 182 0 0 1-20.328 2.551c-4.443.305-8.945.46-13.381.46m-88.795-28.19a75 75 0 0 0 2.195 1.836 81 81 0 0 0 7.318 5.201 97 97 0 0 0 8.344 4.709 115 115 0 0 0 7.68 3.512q1.596.66 3.244 1.296.82.314 1.655.619a142 142 0 0 0 12.202 3.865q1.82.489 3.67.938c.618.151 1.239.296 1.864.443 1.562.361 3.157.704 4.74 1.018.8.162 1.604.314 2.412.465a180 180 0 0 0 20.18 2.531c8.655.602 17.701.61 26.582 0 6.84-.474 13.63-1.326 20.18-2.532q1.212-.223 2.41-.464a152 152 0 0 0 6.605-1.461q1.857-.45 3.67-.938 1.818-.487 3.593-1.014a142 142 0 0 0 8.608-2.851c4.98-1.83 9.7-3.909 14.033-6.177q1.444-.755 2.838-1.541a90 90 0 0 0 7.582-4.781c-3.8.92-6.942 1.547-9.099 1.94-19.454 11.15-45.626 17.29-73.715 17.29-56.385 0-102.257-25.314-102.257-56.429v-10.196c-1.65 4.059-2.484 8.22-2.484 12.404 0 6.295 1.872 12.487 5.563 18.404 2.603 4.171 6.097 8.177 10.383 11.91l-.422.494zm81.495-71.229a.6.6 0 0 1-.159-.02c-16.657-1.08-31.678-4.053-44.646-8.836a115 115 0 0 1-3.399-1.311.65.65 0 0 1-.372-.81l4.081-12.159a.647.647 0 0 1 .819-.41l.382.117c.49.15.972.295 1.457.437l.407.121q.841.246 1.687.482l.358.098q.743.21 1.49.405l2.559.656q.787.195 1.576.382.173.045.335.081c.528.124 1.047.241 1.57.36l2.695.579q.966.2 1.935.39l.494.096q.927.181 1.878.353l.133.026q.999.182 2.019.35l.512.084q1.026.173 2.065.333l.119.02c.682.104 1.35.203 2.023.298l.524.075c.696.096 1.409.195 2.126.288l.285.035q.977.127 1.962.241l.515.064a222 222 0 0 0 2.204.241l1.02.102q.674.067 1.355.13l.501.048q1.133.106 2.283.198l2.981.219c.781.052 1.57.104 2.367.147l.549.03q1.067.06 2.157.108l.377.019c.667.03 1.347.054 2.029.08l1.02.033a197 197 0 0 0 2.57.072c.864.021 1.719.034 2.582.044a290 290 0 0 0 3.262.023.65.65 0 0 1 .65.65v2.981a.65.65 0 0 1-.216.484.68.68 0 0 1-.506.162c-3.404-.38-6.731-.803-9.898-1.259l-4.101 12.22a.65.65 0 0 1-.616.443m-47.149-11.145q1.369.545 2.793 1.069c12.754 4.704 27.521 7.642 43.903 8.734l4.111-12.249a.654.654 0 0 1 .71-.437c3.09.452 6.339.872 9.669 1.25v-1.604q-1.006-.004-2.002-.013h-.002q-.304-.001-.616-.008a237 237 0 0 1-2.588-.045c-.064.004-.166-.003-.254-.007a210 210 0 0 1-2.346-.066l-1.022-.033q-1.032-.036-2.047-.08l-.378-.019q-1.087-.049-2.17-.109l-.546-.031c-.798-.043-1.592-.095-2.379-.147l-2.989-.22q-1.17-.094-2.304-.199l-.503-.048q-.685-.062-1.365-.131l-1.025-.103q-1.12-.116-2.219-.244l-.526-.064c-.655-.076-1.314-.156-1.966-.241l-.279-.035q-1.095-.142-2.157-.292l-.522-.075q-1.012-.142-2.013-.297l-.14-.022c-.699-.106-1.391-.221-2.08-.335l-.503-.083q-1.041-.172-2.047-.354a3 3 0 0 1-.169-.035c-.603-.106-1.233-.227-1.862-.348l-.5-.098a220 220 0 0 1-2.22-.45l-2.44-.526q-.789-.177-1.568-.359c-.114-.024-.239-.056-.362-.087-.518-.123-1.049-.251-1.571-.381l-2.188-.553q-.166-.044-.337-.092c-.564-.15-1.066-.285-1.565-.426l-.355-.099a103 103 0 0 1-1.706-.486l-.416-.123q-.627-.185-1.255-.376zm-28.475-26.359a.6.6 0 0 1-.268-.065 222 222 0 0 1-12.846-7.123.65.65 0 0 1-.268-.312c-1.172-2.864-1.675-5.358-1.377-6.842a.648.648 0 0 1 1.162-.256 45 45 0 0 0 1.633 2.099c.337.402.725.859 1.131 1.32a48 48 0 0 0 1.383 1.509 48 48 0 0 0 1.429 1.455c.49.479.977.941 1.486 1.41l.091.085c.272.249.531.484.792.718.291.261.544.483.8.702l.226.197q.352.299.717.604l-.316.581.41-.504.921.748c.33.263.596.475.864.684l.149.116q.402.315.821.628l1.184.875.032.021.183.13c.276.198.386.6.209.89a.65.65 0 0 1-.548.33m-5.632-4.387.117.064.241-.483zm-6.628-3.805a220 220 0 0 0 6.207 3.571 32 32 0 0 1-.506-.453 36 36 0 0 1-.746-.673l-.123-.114a67 67 0 0 1-1.581-1.503 57 57 0 0 1-1.488-1.521c-.42-.441-.852-.912-1.261-1.377a67 67 0 0 1-1.688-2.001c.158 1.043.521 2.411 1.186 4.071"/>
    <path fill="#fff" d="m244.727 351.708-.502-.047a.65.65 0 0 1-.585-.709.656.656 0 0 1 .708-.586l.448.045a.65.65 0 0 1-.069 1.297"/>
    <path fill="#fff" d="m246.271 351.858-.06-.003q-.783-.072-1.555-.151a.65.65 0 1 1 .128-1.293l.836.082.709.067h.002a.65.65 0 0 1-.06 1.298m-80.347-29.195a.66.66 0 0 1-.334-.092 220 220 0 0 1-5.602-3.461.65.65 0 0 1-.293-.635c.339-2.492.973-4.55 2.052-6.672a.65.65 0 0 1 .562-.354c.254-.036.462.118.58.325a49 49 0 0 0 .502.847q.243.392.502.793l.03.05a34 34 0 0 0 .571.852q.267.383.553.774c.145.15.215.365.172.581-.189.946.055 3.042 1.306 6.096a.65.65 0 0 1-.601.896m-4.882-4.422c1.143.728 2.341 1.473 3.626 2.255-.638-1.936-.912-3.61-.772-4.777q-.254-.354-.496-.699-.017-.025-.031-.05a28 28 0 0 1-.567-.846l-.024-.04q-.198-.307-.384-.606c-.655 1.503-1.084 3.022-1.352 4.763m92.079 52.592-.041-.002c-18.054-1.134-34.348-4.263-48.428-9.299a.65.65 0 0 1-.398-.819l1.486-4.422a.65.65 0 0 1 .86-.396q1.64.663 3.361 1.298c12.879 4.751 27.817 7.701 44.401 8.766a.65.65 0 0 1 .574.855l-1.199 3.576a.65.65 0 0 1-.616.443m-47.431-10.312c13.699 4.825 29.496 7.845 46.973 8.981l.772-2.302c-16.372-1.118-31.145-4.073-43.923-8.787q-1.407-.518-2.759-1.056zm-45.262 13.017a.65.65 0 0 1-.643-.756l.003-.012c.36-2.194.959-4.036 1.94-5.972l.004-.006a.65.65 0 1 1 1.159.588l-.002.003c-.922 1.819-1.483 3.55-1.821 5.61a.65.65 0 0 1-.64.545"/>
    <path fill="#fff" d="M269.012 426.295c-29.487 0-54.586-4.698-74.599-13.963-19.223-8.899-28.043-19.337-31.59-24.766-2.195-3.363-3.453-6.485-3.453-8.566q.001-.482.007-.945l.052-1.598a12 12 0 0 1 .016-.378l.044-.644c.003-.067.007-.157.016-.242q.028-.362.066-.729c0-.024.009-.081.011-.105.037-.323.064-.555.094-.786.032-.26.069-.499.107-.736q.002-.03.006-.054c.359-2.189.956-4.03 1.933-5.963a.65.65 0 0 1 .434-.378.65.65 0 0 1 .731.305 36 36 0 0 0 2.211 3.386.65.65 0 0 1 .113.512c-.321 1.598.633 5.557 3.486 10.471 5.481 9.449 28.914 40.277 100.31 40.277a.65.65 0 0 1 .65.65v3.522a.65.65 0 0 1-.645.73m-107.934-53.337-.006.055a20 20 0 0 0-.188 1.41 22 22 0 0 0-.084.885q-.01.11-.013.199l-.109 2.495c-.005.37-.009.682-.009.998 0 1.809 1.213 4.745 3.243 7.855 11.999 18.369 45.731 37.993 104.445 38.139v-2.302c-28.32-.074-52.167-4.971-70.888-14.56-18.076-9.258-26.49-20.491-29.896-26.363-2.564-4.416-3.982-8.707-3.684-11.088a41 41 0 0 1-1.189-1.741l-.394 2.679-.931-.136q-.17.711-.297 1.475"/>
    <path fill="#fff" d="M269.004 422.694c-28.605 0-52.674-4.9-71.538-14.56-18.077-9.259-26.491-20.493-29.898-26.365-2.671-4.609-4.098-9.075-3.634-11.38a.65.65 0 0 1 1.161-.256c1.849 2.527 4.146 5.074 6.826 7.571l.041.042c11.609 10.78 39.623 28.808 97.042 28.808a.65.65 0 0 1 .651.65v14.839a.65.65 0 0 1-.651.651m-103.759-50.228c.31 2.022 1.379 5.083 3.448 8.65 5.464 9.42 28.772 40.089 99.661 40.277v-13.539c-57.503-.136-85.645-18.334-97.322-29.198l-.042-.042c-2.171-2.027-4.097-4.087-5.745-6.148"/>
    <path fill="#fff" d="M269.012 398.453c-49.557 0-77.505-13.264-92.224-24.391-9.574-7.236-13.857-13.781-15.558-17.039a.649.649 0 0 1 .9-.865 212 212 0 0 0 14.703 7.716.7.7 0 0 1 .184.132 70 70 0 0 0 5.893 5.353.4.4 0 0 1 .066.047c13.593 11.015 39.553 24.145 86.036 24.145a.65.65 0 0 1 .651.65v3.602a.65.65 0 0 1-.651.65m-105.451-39.985c2.176 3.472 6.359 8.773 14.011 14.557 14.496 10.959 41.998 24.012 90.79 24.127v-2.301c-46.388-.122-72.435-13.3-86.143-24.386l-.066-.047a72 72 0 0 1-5.984-5.42 215 215 0 0 1-12.608-6.53"/>
    <path fill="#fff" d="M269.004 394.856c-46.857 0-73.095-13.289-86.855-24.438a72 72 0 0 1-6.064-5.502.651.651 0 0 1 .744-1.042c7.342 3.502 15.131 6.711 23.162 9.541l1.668-4.969a.65.65 0 0 1 .338-.381.66.66 0 0 1 .51-.02c13.798 5.275 29.862 8.633 47.747 9.983a.73.73 0 0 1 .4.131.65.65 0 0 1 .22.75l-.012.029-2.281 6.801a356 356 0 0 0 20.494 2.811.65.65 0 0 1 .58.647v5.008a.65.65 0 0 1-.651.651M179.812 366.7a75 75 0 0 0 3.156 2.709c13.532 10.964 39.319 24.023 85.386 24.146v-3.775a356 356 0 0 1-20.741-2.887.65.65 0 0 1-.507-.848l2.275-6.78c-17.428-1.376-33.134-4.66-46.705-9.764l-1.662 4.954a.65.65 0 0 1-.831.406 242 242 0 0 1-20.371-8.161"/>
    <path fill="#fff" d="M269.007 407.855c-57.936 0-86.25-18.294-97.971-29.199-2.719-2.529-5.06-5.124-6.96-7.714l-.03-.038a38 38 0 0 1-2.214-3.373.65.65 0 0 1-.159-.316c-.277-.475-1.143-2.038-2.262-4.748a.7.7 0 0 1-.048-.248v-6.534a.65.65 0 0 1 .98-.559c.587.345 1.183.694 1.781 1.036a.65.65 0 0 1 .254.263c1.654 3.164 5.829 9.531 15.191 16.606 14.56 11.007 42.242 24.127 91.438 24.127a.65.65 0 0 1 .65.65v9.397a.65.65 0 0 1-.65.65m-103.941-37.759.029.037c1.857 2.537 4.153 5.085 6.826 7.572 11.538 10.733 39.384 28.712 96.436 28.849v-8.097c-49.149-.116-76.918-13.311-91.572-24.389-9.402-7.107-13.707-13.557-15.47-16.872q-.327-.187-.652-.377v5.271c1.265 3.049 2.2 4.584 2.21 4.599a.7.7 0 0 1 .074.173 36 36 0 0 0 2.119 3.234"/>
    <path fill="#fff" d="m261.62 462.393-.063-.003c-56.356-.019-102.194-25.326-102.194-56.429V379a.65.65 0 1 1 1.3 0c0 1.813 1.211 4.749 3.242 7.855 12.039 18.438 45.97 38.139 105.099 38.139a.65.65 0 0 1 .651.651v12.275l2.988 2.23c16.123.127 30.693-1.669 43.324-5.3a.67.67 0 0 1 .493.054l16.823 9.231c.292-.047.876-.142 1.71-.291a.645.645 0 0 1 .724.417.65.65 0 0 1-.286.786c-19.462 11.185-45.675 17.346-73.811 17.346m-100.957-78.67v22.238c0 30.397 45.289 55.128 100.957 55.128q.031 0 .062.003c26.802-.008 51.823-5.642 70.821-15.903l-16.434-9.016c-12.747 3.632-27.458 5.379-43.649 5.276a.65.65 0 0 1-.383-.13l-3.421-2.552a.65.65 0 0 1-.262-.521v-11.952c-29.205-.069-54.085-4.766-73.95-13.962-19.225-8.9-28.042-19.337-31.588-24.766a30 30 0 0 1-2.153-3.843m89.605-4.388-.049-.002c-18.034-1.36-34.242-4.748-48.176-10.069a.65.65 0 0 1-.384-.814l2.595-7.738a.654.654 0 0 1 .835-.405c13.966 4.996 30.14 8.1 48.073 9.227a.647.647 0 0 1 .575.855l-2.842 8.464a.646.646 0 0 1-.627.482m-47.178-11.064c13.554 5.101 29.266 8.372 46.721 9.727l2.424-7.222c-17.451-1.16-33.243-4.195-46.959-9.023zm65.9-15.383q-1.338-.002-2.653-.014-.316-.007-.619-.008-1.307-.017-2.588-.046l-.219-.006c-.809-.018-1.596-.041-2.379-.066l-.589-.019a165 165 0 0 1-2.481-.095l-.377-.018q-1.09-.05-2.171-.11l-.549-.031c-.77-.042-1.546-.093-2.311-.142l-.431-.031a289 289 0 0 1-2.643-.195c-.761-.061-1.526-.128-2.285-.197l-2.892-.283a215 215 0 0 1-2.219-.244l-.975-.117q-.765-.091-1.518-.188l-.277-.036c-.729-.092-1.444-.192-2.153-.29l-.528-.075a154 154 0 0 1-2.155-.32 396 396 0 0 1-2.076-.334l-.513-.084q-1.028-.173-2.037-.355l-.135-.026q-.954-.175-1.897-.356l-.493-.096q-.979-.192-1.94-.391l-.261-.055c-.585-.122-1.155-.243-1.719-.368l-.591-.128q-.871-.195-1.725-.394l-.352-.085q-.796-.187-1.581-.384l-.411-.099c-.603-.15-1.193-.301-1.78-.457l-2.259-.616a80 80 0 0 1-1.701-.485l-.414-.122q-.728-.214-1.454-.436l-.294-.09c-.168-.051-.365-.186-.445-.342s-.15-.356-.094-.522l.361-1.075c-11.048-3.744-21.729-8.241-31.754-13.37l-.505-.353a60 60 0 0 1-.95-.701l-.134-.103a64 64 0 0 1-.819-.628l-.081-.062c-.342-.265-.612-.482-.881-.696l-.209-.167a48 48 0 0 1-.791-.644l-.1-.083-.191-.16a50 50 0 0 1-.645-.545l-.893-.783-.081-.075-.856-.776a61 61 0 0 1-1.506-1.428l-.094-.095a67 67 0 0 1-1.462-1.491q-.67-.71-1.286-1.404a50 50 0 0 1-1.247-1.46 45 45 0 0 1-2.322-3.068 41 41 0 0 1-1.021-1.564.7.7 0 0 1-.108-.133q-.262-.428-.497-.837c-1.544-2.7-2.393-5.125-2.393-6.83v-30.294a.65.65 0 0 1 1.231-.291c12.443 24.782 53.987 42.09 101.026 42.09s88.584-17.308 101.026-42.09a.65.65 0 0 1 1.231.291v15.851a.649.649 0 0 1-.985.557l-.72-.433c-.207.803-.594 2.11-1.267 3.805-1.398 3.514-4.154 8.961-9.339 14.951a.6.6 0 0 1-.166.136c-6.592 3.811-14.315 8.259-21.109 12.167a.65.65 0 0 1-.95-.386c-.242-.861-.719-1.511-1.309-1.785-.298-.137-.595-.159-.814-.058-1.122.509-6.451 3.222-9.505 4.923-1.806 1.004-1.906 3.651-1.805 5.14a.65.65 0 0 1-.327.609l-.617.352c-.849.484-1.469.837-1.807 1.026-2.294 1.283-3.746 2.179-4.574 3.811a.65.65 0 0 1-.384.326c-8.996 2.842-19.025 5.02-29.809 6.473-2.84.384-5.774.723-8.728 1.007v8.458a.65.65 0 0 1-.65.651m-3.259-1.323c.2 0 .412.004.623.009q.983.008 1.985.012v-8.398a.65.65 0 0 1 .59-.647c3.137-.294 6.254-.65 9.265-1.058 10.61-1.429 20.478-3.562 29.339-6.344 1.005-1.799 2.636-2.807 4.967-4.112.336-.187.953-.539 1.798-1.02l.27-.154c-.066-1.841.234-4.699 2.49-5.955 3.141-1.748 8.433-4.44 9.6-4.969.565-.259 1.258-.236 1.9.063.727.337 1.333.989 1.728 1.84 6.596-3.795 13.991-8.054 20.347-11.728 5.02-5.82 7.687-11.093 9.042-14.497 1.089-2.74 1.397-4.439 1.4-4.456a.65.65 0 0 1 .371-.478.64.64 0 0 1 .604.033l.504.303V277.87c-13.975 23.983-54.885 40.537-100.956 40.537s-86.979-16.554-100.957-40.538v27.732c0 1.461.809 3.714 2.22 6.183q.193.336.407.688a1 1 0 0 1 .09.113l.004-.002a35 35 0 0 0 1.098 1.688l.026.04q.29.417.601.843a47 47 0 0 0 2.763 3.416 58 58 0 0 0 1.411 1.542c.407.426.861.887 1.33 1.352l.099.1c.461.453.951.917 1.458 1.382l1.826 1.631c.189.162.4.339.612.516l.193.161-.32.58.416-.499q.385.32.781.635l.111.089.087.069q.396.316.801.634l-.252.626.398-.513q.407.315.824.631l.114.088q.458.344.926.684l.412.294c10.082 5.153 20.914 9.696 32.121 13.461a.65.65 0 0 1 .409.823l-.356 1.057q.606.185 1.212.363l.409.12a77 77 0 0 0 1.685.481l2.253.615q.855.227 1.743.446l.408.099c.529.131 1.05.259 1.579.383l.357.086c.556.13 1.128.26 1.705.39l.582.126q.842.186 1.695.362l.263.057q.965.198 1.935.389l.494.095q.931.18 1.881.353.08.014.169.035c.629.112 1.301.229 1.981.344l.506.082c.69.114 1.378.224 2.073.334l.038.664.099-.643q.993.153 2.001.296l.524.074q1.052.149 2.126.288l.28.035q.76.099 1.515.188l.975.117c.724.083 1.46.164 2.198.241l2.878.281q1.128.105 2.279.198.237.02.456.034c.706.054 1.387.105 2.072.152l.46.034c.817.053 1.589.103 2.362.145l.545.03q1.07.059 2.161.11l.377.017c.808.037 1.63.071 2.458.096l.581.019c.786.025 1.569.047 2.359.065l.203.005c.88.021 1.741.034 2.599.046z"/>
    <path fill="#fff" d="M170.14 322.581a.65.65 0 0 1-.457-.189 55 55 0 0 1-1.387-1.413.65.65 0 0 1 .943-.895q.655.686 1.359 1.385a.65.65 0 0 1-.458 1.112m-7.828 45.155a.65.65 0 0 1-.65-.65.7.7 0 0 1 .12-.384.65.65 0 0 1 1.187.366.7.7 0 0 1-.12.384.65.65 0 0 1-.537.284m124.953-10.359-.036-.001a336 336 0 0 1-14.866-1.154.65.65 0 0 1-.58-.727v-9.989c0-.346.271-.631.617-.65.158-.008 16.019-.879 34.537-6.404a.648.648 0 0 1 .832.686 25 25 0 0 0-.102 2.332v8.429a.65.65 0 0 1-.486.629 211 211 0 0 1-14.543 3.222c-1.546.288-3.116.566-4.723.833v2.143a.65.65 0 0 1-.65.651m-14.181-2.39c4.419.436 8.965.789 13.531 1.052v-2.008a.65.65 0 0 1 .546-.641c1.788-.292 3.528-.599 5.239-.917a211 211 0 0 0 13.967-3.077v-7.926c0-.535.012-1.034.038-1.505-16.23 4.733-30.262 5.934-33.321 6.15zm1.005 86.467q-.83 0-1.666-.006a.65.65 0 0 1-.645-.65v-51.245a.65.65 0 0 1 .214-.482.62.62 0 0 1 .501-.165c4.856.483 9.84.884 14.812 1.193.343.02.611.304.611.648v28.49l28.548 15.666a.65.65 0 0 1 .334.643.65.65 0 0 1-.467.553c-12.369 3.555-26.575 5.355-42.242 5.355m-1.01-1.302c15.287.064 29.205-1.563 41.363-4.875l-27.489-15.085a.65.65 0 0 1-.338-.57v-28.265c-4.542-.288-9.09-.653-13.536-1.087zm85.495-134.235a.652.652 0 0 1-.524-1.038 56.5 56.5 0 0 0 4.584-8.526 58 58 0 0 0 1.682-4.397.652.652 0 0 1 1.267.207v9.412a.65.65 0 0 1-.324.561c-1.234.72-3.106 1.805-5.42 3.146l-.89.516a.66.66 0 0 1-.375.119m5.708-10.137q-.222.546-.453 1.087a58 58 0 0 1-3.325 6.526c1.532-.887 2.816-1.632 3.778-2.192z"/>
    <path fill="#fff" d="M351.076 310.248a.65.65 0 0 1-.491-1.076c5.06-5.844 7.748-11.156 9.112-14.582q.011-.03.025-.057c1.073-2.708 1.376-4.385 1.379-4.402a.65.65 0 0 1 .976-.444l3.189 1.913a.65.65 0 0 1 .282.765 60 60 0 0 1-1.719 4.498 58.6 58.6 0 0 1-4.711 8.756.66.66 0 0 1-.219.207l-7.498 4.335a.66.66 0 0 1-.325.087m9.806-15.122c-1.185 2.965-3.328 7.285-7.055 12.131l4.287-2.478a57 57 0 0 0 4.52-8.431 58 58 0 0 0 1.513-3.903l-1.972-1.182c-.206.804-.593 2.11-1.266 3.804zm-88.454 51.025a.65.65 0 0 1-.365-.112l-3.421-2.325a.651.651 0 0 1 .305-1.185c3.152-.297 6.269-.653 9.265-1.058 10.719-1.444 20.675-3.606 29.591-6.425a.65.65 0 0 1 .776.915c-.419.826-.678 1.835-.813 3.177a.65.65 0 0 1-.529.574c-18.649 5.554-34.616 6.429-34.776 6.438zm-1.569-2.503 1.752 1.19c1.946-.123 16.739-1.199 33.912-6.27.088-.699.213-1.319.379-1.879-8.653 2.644-18.238 4.685-28.516 6.071-2.444.33-4.97.628-7.527.888m1.569 97.8a.65.65 0 0 1-.388-.13l-3.421-2.553a.65.65 0 0 1-.262-.52v-49.049a.648.648 0 0 1 .722-.646q1.697.186 3.414.356a.65.65 0 0 1 .586.646v51.245a.65.65 0 0 1-.651.651m-2.77-3.529 2.12 1.583V390.14q-1.064-.107-2.12-.219z"/>
    <path fill="#fff" d="M272.428 356.224q-.033 0-.066-.004-1.707-.174-3.427-.368a.65.65 0 0 1-.578-.646v-12.025a.651.651 0 0 1 1.016-.538l3.42 2.323a.65.65 0 0 1 .286.538v10.069a.65.65 0 0 1-.651.651m-2.77-1.599q1.062.117 2.12.228v-9.004l-2.12-1.44zm36.762 3.264q-3.175.002-6.393-.052a.65.65 0 0 1-.298-.079l-7.52-4.077a.65.65 0 0 1 .191-1.21c5.008-.934 9.87-2.011 14.453-3.202a.65.65 0 0 1 .814.629v7.34c0 .359-.291.65-.649.651zm-6.212-1.35a364 364 0 0 0 6.159.05v-5.853c-3.82.975-7.823 1.872-11.936 2.671zm98.857-14.597a.65.65 0 0 1-.65-.651v-4.784c0-.224.116-.432.305-.552a.65.65 0 0 1 .63-.032l2.05 1.001a.65.65 0 0 1 .304.86 38 38 0 0 1-2.086 3.849.65.65 0 0 1-.553.309m.65-4.394v1.308q.277-.523.535-1.047z"/>
    <path fill="#fff" d="M307.013 357.881a.65.65 0 0 1-.65-.65v-15.766c0-.912.036-1.717.11-2.46.151-1.507.451-2.662.948-3.637.989-1.952 2.661-2.992 5.097-4.357.372-.207 1.085-.611 2.068-1.173-.066-1.841.235-4.699 2.492-5.956 3.133-1.742 8.427-4.437 9.598-4.97.568-.258 1.261-.234 1.901.065.727.338 1.332.989 1.727 1.84 6.606-3.802 14.014-8.073 20.381-11.747l.066-.043 7.498-4.334c2.749-1.588 4.959-2.873 6.356-3.687l1.265-.746c1.77-1.055 3.149-1.286 4.209-.71 1.512.822 1.764 3.002 1.823 4.57a.65.65 0 0 1-.319.584c-.935.554-3.21 1.882-6.326 3.685-4.467 2.585-10.652 6.156-17.079 9.864-14.043 8.093-27.718 15.948-29.861 17.152-.764.427-1.564.885-2.249 1.351-2.197 1.495-3.242 3.069-3.242 7.968v12.46a.65.65 0 0 1-.64.65q-2.569.043-5.172.047zm20.51-37.848a.8.8 0 0 0-.31.063c-1.125.512-6.456 3.226-9.503 4.923-1.805 1.005-1.907 3.652-1.806 5.14a.66.66 0 0 1-.325.609c-1.17.67-2.012 1.147-2.427 1.379-2.294 1.284-3.747 2.181-4.573 3.81-.42.827-.678 1.836-.813 3.177a24 24 0 0 0-.103 2.331v15.114q1.94-.006 3.862-.035v-11.82c0-4.882.927-7.079 3.811-9.043.728-.494 1.558-.97 2.346-1.409 2.139-1.202 15.808-9.054 29.847-17.146 6.425-3.706 12.611-7.277 17.078-9.862 2.783-1.611 4.894-2.842 5.976-3.48-.106-1.704-.484-2.744-1.126-3.092-.764-.418-2.013.142-2.923.686l-1.272.75c-1.4.815-3.612 2.103-6.363 3.69l-7.439 4.3-.063.043c-6.597 3.806-14.319 8.257-21.111 12.166a.65.65 0 0 1-.95-.387c-.242-.861-.719-1.511-1.307-1.785a1.2 1.2 0 0 0-.506-.122"/>
    <path fill="#fff" d="M312.171 357.841a.66.66 0 0 1-.456-.186.65.65 0 0 1-.194-.464v-12.459c0-4.883.927-7.08 3.814-9.044.658-.448 1.412-.888 2.341-1.409 2.303-1.287 17.086-9.79 29.849-17.146l.054-.027a15587 15587 0 0 0 17.016-9.827c3.106-1.803 5.381-3.124 6.315-3.678l.442.497-.332-.559c1.791-1.067 3.179-1.294 4.247-.692 1.592.899 1.791 3.394 1.803 5.191a.65.65 0 0 1-.321.565 3010 3010 0 0 1-11.503 6.668c-7.139 4.125-16.164 9.325-23.97 13.817a.65.65 0 0 1-.95-.386c-.242-.861-.719-1.511-1.308-1.785-.297-.138-.595-.16-.815-.059-1.154.523-6.391 3.188-9.504 4.923-1.807 1.005-1.906 3.652-1.806 5.141a.65.65 0 0 1-.327.61l-1.034.588c-.637.363-1.11.632-1.39.789-3.678 2.062-5.182 3.086-5.447 7.785q-.037.708-.039 1.532v8.822a.65.65 0 0 1-.63.65q-2.897.092-5.844.143zm35.941-39.546c-12.752 7.351-27.497 15.832-29.8 17.118-.9.505-1.627.927-2.247 1.349-2.197 1.496-3.243 3.07-3.243 7.97v11.797q2.281-.043 4.533-.111v-8.192c0-.573.017-1.105.041-1.602.303-5.353 2.304-6.716 6.111-8.85.279-.156.749-.424 1.382-.785l.685-.389c-.065-1.841.235-4.699 2.492-5.955 3.137-1.748 8.43-4.441 9.599-4.971.567-.258 1.26-.235 1.901.064.726.338 1.332.99 1.727 1.84 7.649-4.402 16.365-9.425 23.302-13.432 5.016-2.899 9.103-5.265 11.168-6.473-.052-2.056-.434-3.298-1.136-3.693-.763-.43-2.021.128-2.943.676-.084.049-.125.073-.164.091-.882.527-3.161 1.85-6.274 3.656-4.466 2.585-10.652 6.157-17.08 9.865zm-24.941 52.082a.65.65 0 0 1-.31-.079l-2.478-1.345a.65.65 0 0 1-.305-.778l2.477-7.389a.652.652 0 0 1 1.267.207v8.734a.65.65 0 0 1-.651.65m-1.687-2.305 1.037.562v-3.658z"/>
    <path fill="#fff" d="M318.013 357.691a.65.65 0 0 1-.65-.651v-8.821q.002-.858.041-1.604c.301-5.348 2.302-6.712 6.109-8.849.374-.208 1.086-.612 2.07-1.175-.065-1.84.236-4.698 2.491-5.954 3.142-1.748 8.433-4.439 9.599-4.97.565-.257 1.26-.236 1.9.064.727.338 1.333.99 1.728 1.842a16664 16664 0 0 0 23.31-13.438c5.296-3.06 9.556-5.528 11.494-6.664l.759-.449c1.779-1.058 3.153-1.292 4.219-.714 1.512.822 1.764 3.003 1.823 4.57a.65.65 0 0 1-.319.584c-.887.525-2.972 1.736-5.827 3.391-2.093 1.214-4.606 2.666-7.367 4.262l-11.786 6.798c-12.046 6.941-26.037 14.988-28.29 16.251-1.447.812-2.622 1.498-3.477 2.33-1.244 1.206-2.014 2.794-2.014 6.988v5.352a.65.65 0 0 1-.619.65q-2.568.123-5.173.206zm20.508-30.902a.74.74 0 0 0-.31.062c-1.121.51-6.448 3.222-9.505 4.922-1.803 1.005-1.906 3.652-1.806 5.142a.65.65 0 0 1-.325.607c-1.17.67-2.012 1.147-2.428 1.379-3.677 2.064-5.181 3.09-5.444 7.784a28 28 0 0 0-.039 1.534v8.15q1.941-.066 3.861-.155v-4.732c0-4.021.676-6.241 2.41-7.921.966-.939 2.214-1.672 3.745-2.53 2.249-1.262 16.236-9.305 28.278-16.244l11.786-6.798a7329 7329 0 0 0 7.364-4.261c2.535-1.469 4.461-2.588 5.479-3.185-.106-1.705-.485-2.745-1.127-3.093-.765-.417-2.013.141-2.923.685q-.18.11-.46.273l-.312.183a2741 2741 0 0 1-11.504 6.669c-7.139 4.126-16.168 9.329-23.97 13.818a.66.66 0 0 1-.574.04.65.65 0 0 1-.384-.424c-.242-.861-.718-1.511-1.308-1.784a1.2 1.2 0 0 0-.504-.121"/>
    <path fill="#fff" d="M329.651 373.89a.64.64 0 0 1-.31-.079l-6.482-3.512a.65.65 0 0 1-.341-.572v-8.734a.7.7 0 0 1 .034-.207l1.113-3.315-.465.022a.65.65 0 0 1-.682-.649v-5.355c0-4.019.676-6.241 2.409-7.921.974-.945 2.219-1.675 3.746-2.531 2.266-1.271 16.261-9.317 28.279-16.243l7.652-4.411c.353-.207.717-.417 1.07-.62l2.994-1.728.06-.038a5074 5074 0 0 0 7.365-4.261 666 666 0 0 0 5.817-3.385l.442.498-.332-.559c1.796-1.068 3.186-1.294 4.252-.688 1.611.916 1.798 3.488 1.798 5.342v.155a.65.65 0 0 1-.322.561 2963 2963 0 0 1-11 6.373q-.298.175-.611.354c-.998.578-2.036 1.179-3.1 1.792-2.292 1.326-4.711 2.72-7.164 4.134l-12.948 7.456a.648.648 0 0 1-.95-.386c-.242-.861-.719-1.511-1.308-1.784-.295-.139-.593-.162-.816-.06-1.126.512-6.456 3.225-9.503 4.922-1.806 1.006-1.906 3.653-1.806 5.141a.65.65 0 0 1-.327.609l-.617.352c-.848.484-1.469.837-1.806 1.026-4.081 2.284-5.491 3.377-5.491 9.318v18.333a.65.65 0 0 1-.65.65m-5.832-4.549 5.181 2.808v-17.242c0-6.708 1.999-8.125 6.157-10.453.335-.188.953-.539 1.797-1.021l.27-.153c-.065-1.841.234-4.698 2.491-5.955 3.133-1.744 8.427-4.437 9.599-4.97.565-.256 1.259-.235 1.901.065.726.337 1.331.989 1.728 1.84l12.28-7.073c2.453-1.414 4.871-2.807 7.164-4.134 1.064-.614 2.102-1.213 3.102-1.793l.603-.349a3036 3036 0 0 0 10.676-6.186c-.023-2.233-.406-3.576-1.139-3.993-.765-.434-2.023.127-2.945.675a3 3 0 0 1-.164.091c-.83.497-2.915 1.711-5.776 3.363a5735 5735 0 0 1-7.298 4.223l-.06.038-3.034 1.751c-.379.218-.741.426-1.095.634l-7.657 4.414c-12.021 6.927-26.021 14.976-28.291 16.25-1.443.809-2.615 1.494-3.477 2.331-1.244 1.205-2.013 2.794-2.013 6.987v4.674l.729-.035a.69.69 0 0 1 .553.256c.13.171.167.396.098.6l-1.38 4.116zm-31.172-11.712-.025-.001a332 332 0 0 1-5.392-.256.65.65 0 0 1-.615-.649v-2.696a.652.652 0 0 1 .963-.57l5.381 2.951a.65.65 0 0 1-.312 1.221m-4.732-1.523q.988.054 1.974.101l-1.974-1.082zm45.249 89.355a.66.66 0 0 1-.313-.08l-45.903-25.188a.65.65 0 0 1-.338-.57v-28.871a.65.65 0 0 1 .69-.648c8.166.507 16.62.789 25.135.837l6.51-19.397a.654.654 0 0 1 .929-.363l4.673 2.563q.031.017.058.036l8.871 4.868a.65.65 0 0 1 .338.57v65.593a.65.65 0 0 1-.65.65m-45.253-26.223 44.602 24.475v-64.11l-8.59-4.715-.056-.034-3.937-2.16-6.412 19.106c-.089.265-.332.404-.619.443a451 451 0 0 1-24.988-.799z"/>
    <path fill="#fff" d="M333.74 376.102a.66.66 0 0 1-.31-.079l-4.085-2.215a.65.65 0 0 1-.341-.572v-18.333c0-6.706 1.999-8.123 6.156-10.452.372-.207 1.084-.611 2.068-1.173-.067-1.841.233-4.7 2.49-5.955 3.119-1.736 8.419-4.433 9.599-4.971.566-.256 1.259-.234 1.901.064.727.338 1.332.99 1.728 1.84l11.662-6.716c2.665-1.536 5.294-3.052 7.782-4.49l3.07-1.774.039-.025.608-.35a3639 3639 0 0 0 10.991-6.371c.633-.369 1.11-.65 1.409-.829 1.773-1.056 3.148-1.289 4.213-.711 1.513.822 1.766 3.002 1.824 4.57a.65.65 0 0 1-.317.583c-.951.565-3.285 1.923-6.476 3.769l-11.616 6.713c-3.506 2.023-7.224 4.167-10.879 6.272-10.392 5.985-22.232 12.795-24.299 13.952-4.079 2.283-5.489 3.375-5.489 9.317v17.099a.65.65 0 0 1-.536.639c-.704.126-1.089.189-1.089.189a1 1 0 0 1-.103.009m-3.435-3.252 3.548 1.923.315-.053v-16.554c0-6.709 1.998-8.125 6.155-10.452 2.06-1.154 13.896-7.96 24.285-13.944 3.654-2.104 7.372-4.248 10.878-6.271l11.615-6.712a1182 1182 0 0 0 6.125-3.562c-.107-1.705-.485-2.745-1.127-3.094-.767-.417-2.014.144-2.925.686-.299.18-.783.463-1.421.835-2.17 1.269-6.156 3.576-10.997 6.374l-.579.336-.034.021-3.102 1.792c-2.489 1.437-5.118 2.956-7.785 4.492l-12.327 7.099a.65.65 0 0 1-.95-.387c-.242-.859-.72-1.51-1.309-1.783-.297-.139-.593-.16-.815-.061-1.164.531-6.41 3.202-9.504 4.924-1.807 1.004-1.906 3.652-1.805 5.141a.65.65 0 0 1-.326.608c-1.168.668-2.01 1.146-2.425 1.378-4.08 2.285-5.49 3.378-5.49 9.317zm72.966-29.602a.65.65 0 0 1-.561-.98 37 37 0 0 0 2.85-6.028.65.65 0 0 1 1.261.223v4.865a.65.65 0 0 1-.379.591 95 95 0 0 1-2.919 1.278.7.7 0 0 1-.252.051m2.249-3.529a38 38 0 0 1-.758 1.531q.382-.17.758-.34zm-72.353 105.74a.65.65 0 0 1-.65-.65v-65.593a.65.65 0 0 1 .556-.643c.006-.001.698-.103 1.94-.327.931-.168 2.463-.457 4.477-.884 5.299-1.129 13.483-3.152 22.382-6.377a.648.648 0 0 1 .855.755l-3.962 17.356c17.513-1.686 33.254-6.611 46.806-14.642a.65.65 0 0 1 1.25.251v27.35q0 .113-.039.222c-4.989 13.732-18.286 25.048-39.524 33.633-6.072 2.457-12.668 4.623-19.603 6.44-5.696 1.493-10.233 2.378-12.43 2.771-1.262.226-1.962.33-1.962.33a1 1 0 0 1-.096.008m.651-65.687v64.274q.46-.076 1.179-.204c2.177-.391 6.675-1.267 12.328-2.75 6.882-1.803 13.425-3.951 19.446-6.387 20.825-8.419 33.861-19.442 38.749-32.765v-25.948c-13.788 8.018-29.772 12.889-47.53 14.482a.65.65 0 0 1-.692-.792l3.898-17.074c-8.533 3.018-16.32 4.935-21.436 6.025-2.03.431-3.577.724-4.516.893-.612.109-1.092.191-1.426.246"/>
    <path fill="#fff" d="M396.252 345.922a.649.649 0 0 1-.507-1.056 40 40 0 0 0 2.767-3.916 36 36 0 0 0 1.738-3.139l-1.474-.719a.65.65 0 0 1-.365-.584v-3.473a.65.65 0 0 1 .932-.585l7.106 3.429a.65.65 0 0 1 .329.806 38 38 0 0 1-2.95 6.242.65.65 0 0 1-.31.271 114 114 0 0 1-7.055 2.688.6.6 0 0 1-.211.036m5.126-9.006a.653.653 0 0 1 .327.867 37 37 0 0 1-2.087 3.851 40 40 0 0 1-1.536 2.299 114 114 0 0 0 4.733-1.85 37 37 0 0 0 2.536-5.291l-5.64-2.722v2.031zm-101.339 20.923-.012-.001a364 364 0 0 1-7.404-.205.65.65 0 0 1-.288-.079l-5.382-2.952a.649.649 0 0 1 .208-1.212c1.788-.292 3.528-.599 5.239-.917a.64.64 0 0 1 .429.067l7.519 4.077a.65.65 0 0 1-.309 1.222m-7.214-1.499c1.477.056 2.999.102 4.546.142l-4.959-2.69q-1.576.293-3.192.57zm40.339 23.518a.65.65 0 0 1-.313-.08l-13.602-7.461a.65.65 0 0 1-.304-.777l1.129-3.365a.65.65 0 0 1 .378-.398c.179-.07.38-.06.548.033l12.849 6.966c.18-.031.467-.08.851-.148 2.646-.484 9.725-1.899 18.351-4.595a1 1 0 0 1 .092-.036 150 150 0 0 0 9.715-3.409.65.65 0 0 1 .87.75l-1.005 4.396a.65.65 0 0 1-.412.467c-8.967 3.248-17.215 5.287-22.555 6.426-1.531.328-3.008.62-4.515.891-1.276.231-1.984.333-1.984.333a1 1 0 0 1-.093.007m-12.814-8.42 12.933 7.094c.294-.046.883-.141 1.727-.293 1.492-.269 2.956-.558 4.474-.884 5.235-1.116 13.283-3.103 22.051-6.257l.653-2.859a152 152 0 0 1-8.567 2.97 1 1 0 0 1-.089.036c-8.737 2.736-15.919 4.172-18.601 4.662-.706.125-1.09.188-1.09.188a.64.64 0 0 1-.415-.07l-12.366-6.703z"/>
    <path fill="#fff" d="M334.814 375.923a.65.65 0 0 1-.65-.651v-17.096c0-6.706 1.999-8.124 6.156-10.454 1.805-1.014 11.792-6.748 24.284-13.944l13.637-7.865a925 925 0 0 0 3.139-1.815l.04-.021c2.077-1.196 3.994-2.306 5.673-3.278 3.184-1.846 5.514-3.199 6.464-3.762l.094-.054c1.809-1.078 3.202-1.301 4.266-.696 1.612.916 1.798 3.487 1.798 5.342v19.668a.66.66 0 0 1-.097.342 43 43 0 0 1-2.857 4.041.65.65 0 0 1-.298.211c-5.338 1.832-11.114 3.396-17.17 4.649a335 335 0 0 1-12.252 2.29l-3.313 14.52a.65.65 0 0 1-.398.461 150 150 0 0 1-9.798 3.44c-8.844 2.77-15.955 4.182-18.603 4.661a1 1 0 0 1-.115.011m47.177-50.675q-1.5.869-3.102 1.792l-13.636 7.865c-12.497 7.197-22.488 12.934-24.297 13.95-4.082 2.287-5.492 3.38-5.492 9.321v16.315c3.072-.581 9.654-1.967 17.679-4.48 3.18-.996 6.338-2.1 9.395-3.286l3.333-14.609a.65.65 0 0 1 .527-.497c4.25-.707 8.5-1.499 12.632-2.353 5.933-1.227 11.595-2.755 16.832-4.543a41 41 0 0 0 2.552-3.612v-19.482c0-2.365-.382-3.782-1.139-4.212-.765-.435-2.024.127-2.946.675l-.126.073c-.934.555-3.268 1.909-6.458 3.759-1.691.979-3.624 2.097-5.718 3.304zm-210.824-99.744a.65.65 0 0 1-.648-.593 28 28 0 0 1-.108-2.43c0-18.736 18.624-35.808 48.604-44.554a.65.65 0 0 1 .713.249l2.8 3.964a.65.65 0 0 1-.362 1.003c-29.526 7.902-48.82 23.906-50.352 41.767a.65.65 0 0 1-.647.594m47.767-46.199c-26.249 7.76-43.525 21.931-46.696 37.853 5.535-15.064 23.332-28.049 48.693-35.027zm-28.858 51.041a.65.65 0 0 1-.648-.593 22 22 0 0 1-.086-1.93v-.004c0-15.192 15.217-28.873 39.712-35.705a.65.65 0 0 1 .705.25l2.234 3.158a.652.652 0 0 1-.37 1.005c-23.998 6.126-39.67 18.857-40.9 33.224a.65.65 0 0 1-.646.595zm38.887-36.856c-20.361 5.774-34.067 16.308-37.485 28.374 5.129-11.451 19.207-21.147 38.91-26.36zm36.913 51.738a.65.65 0 0 1-.592-.384 1 1 0 0 1-.077-.313.65.65 0 0 1 1.286-.188l.021.107a.65.65 0 0 1-.638.778m.593-.916-.286.129.319-.03s-.004-.037-.033-.099"/>
    <path fill="#fff" d="M267.436 246.02q-.216 0-.419-.027a2.33 2.33 0 0 1-1.686-1.067.6.6 0 0 1-.091-.223l-.022-.106c-.102-.89.308-2.854 4.111-6.658 2.782-2.782 18.232-20.12 30.646-34.051l45.702-38.644L264.836 55.79l-3.3 3.333a.653.653 0 0 1-.988-.075l-2.375-3.26-5.406 5.346a.654.654 0 0 1-.985-.082l-1.29-1.79-7.78 7.182a.65.65 0 0 1-.97-.1l-.74-1.037a.65.65 0 0 1 .064-.833c4.843-4.949 11.328-11.445 14.717-14.289 2.854-2.393 5.464-3.42 7.966-3.14 2.5.28 4.847 1.905 7.177 4.968 2.729 3.592 48.515 67.225 70.518 97.805 6.05 8.408 10.053 13.971 10.418 14.473.164.227.39.498.648.811 1.487 1.798 3.976 4.806 3.551 8.697-.311 2.854-2.182 5.637-5.561 8.272-1.525 1.19-4.102 3.214-7.382 5.795l-10.813 8.517c-3.7 2.915-7.686 6.061-11.752 9.27l-2.469 1.949c-17.283 13.644-36.676 28.979-37.998 30.06a54 54 0 0 0-1.294 1.123c-3.991 3.52-8.457 7.235-11.356 7.235m-.936-1.693c.173.215.397.336.695.377 2.526.355 8.279-4.726 10.736-6.894.556-.49 1.012-.893 1.331-1.154 1.328-1.086 20.729-16.427 38.016-30.074l2.47-1.949c4.066-3.21 8.052-6.356 11.752-9.271l10.813-8.517c3.282-2.583 5.861-4.608 7.387-5.799 3.091-2.411 4.797-4.897 5.069-7.388.364-3.344-1.905-6.088-3.261-7.727-.279-.338-.521-.631-.698-.876-.365-.502-4.37-6.067-10.421-14.478-22.001-30.576-67.78-94.199-70.498-97.777-2.132-2.803-4.13-4.222-6.287-4.463-2.125-.238-4.419.693-6.985 2.844-2.59 2.173-7.476 6.91-14.148 13.716l7.682-7.09a.65.65 0 0 1 1.008.16l1.232 1.709 5.403-5.345a.65.65 0 0 1 .983.08l2.371 3.255 3.297-3.33a.647.647 0 0 1 .984.071l81.654 110.554a.65.65 0 0 1-.103.883l-46.102 38.973c-12.359 13.88-27.823 31.233-30.631 34.041-3.49 3.49-3.741 5.125-3.749 5.469"/>
    <path fill="#fff" d="M300.46 204.974a.649.649 0 0 1-.485-1.082l6.275-7.04c3.842-4.314 7.026-7.879 8.905-9.958l.248-.274c.44-.488.798-.883 1.063-1.169a11.6 11.6 0 0 0 1.481-1.975 9.3 9.3 0 0 0 1.165-3.029.65.65 0 0 1 .182-.342l17.135-16.844-75.881-104.212a.65.65 0 0 1 .064-.84l3.835-3.873a.647.647 0 0 1 .984.071l81.654 110.554a.65.65 0 0 1-.103.883l-38.445 32.501-.048.045-7.609 6.431a.65.65 0 0 1-.42.153m19.888-24.082a10.7 10.7 0 0 1-1.282 3.246 12.8 12.8 0 0 1-1.646 2.195c-.263.285-.617.676-1.053 1.159l-.247.274a2276 2276 0 0 0-8.9 9.951l-.155.174.537-.454.047-.044 38.028-32.149-80.841-109.453-2.912 2.94 75.886 104.218c.19.26.16.62-.069.846z"/>
    <path fill="#fff" d="M319.75 181.214a.65.65 0 0 1-.638-.773c.262-1.359.208-2.805-.164-4.296a14.2 14.2 0 0 0-1.137-3.002.65.65 0 0 1 .083-.712l7.682-9.131-73.793-102.248a.65.65 0 0 1 .069-.843l5.944-5.878a.65.65 0 0 1 .983.08l78.995 108.488a.65.65 0 0 1-.063.92l-17.505 17.209a.65.65 0 0 1-.456.186m-.588-8.271c.46.966.811 1.936 1.047 2.889.255 1.022.377 2.03.366 3.01l15.852-15.584-78.254-107.47-5.01 4.954 73.763 102.209a.65.65 0 0 1-.03.799z"/>
    <path fill="#fff" d="M318.398 173.498a.65.65 0 0 1-.58-.356 19 19 0 0 0-1.401-2.326c-1.349-1.931-19.317-27.075-53.405-74.736a.65.65 0 0 1 .076-.845l2.452-2.37c1.725-1.663 1.87-5.102.302-7.215-.602-.812-2.171-3.021-4.156-5.818-2.698-3.8-6.056-8.53-8.394-11.727a124 124 0 0 0-2.015-2.693c-.602-.771-1.221-1.281-1.84-1.516-1.643-.62-3.125.862-3.839 1.575-.503.499-1.354 1.321-2.114 2.043a.646.646 0 0 1-.977-.094l-.763-1.067a.65.65 0 0 1 .085-.858l8.324-7.682a.648.648 0 0 1 .968.097l4.917 6.817.055.066 70.84 98.157a.65.65 0 0 1-.03.799l-8.008 9.518a.65.65 0 0 1-.497.231M264.395 95.78c33.881 47.37 51.74 72.363 53.088 74.291.373.533.72 1.078 1.033 1.627l7.067-8.398-70.498-97.682-.053-.064-4.536-6.288-4.387 4.048c.984-.677 2.296-1.199 3.788-.633.845.32 1.654.97 2.405 1.931a125 125 0 0 1 2.039 2.725c2.344 3.204 5.705 7.939 8.406 11.743 1.98 2.79 3.545 4.994 4.139 5.795 1.958 2.64 1.75 6.81-.444 8.926z"/>
    <path fill="#fff" d="M265.895 245.235a.68.68 0 0 1-.478-.2q-.05-.05-34.486-48.763l-9.418-13.317-.05-.063-7.117-10.068c-22.678-32.08-36.64-51.845-37.351-52.871-.286-.412-.576-.804-.855-1.182-1.565-2.115-3.042-4.114-.944-6.42 1.534-1.69 41.141-45.667 47.968-53.53 2.88-3.315 5.709-4.885 8.413-4.657 3.074.257 5.194 2.722 6.43 4.745l5.115 7.15a123 123 0 0 0 1.549-1.503c.835-.835 2.79-2.791 5.218-1.872.845.32 1.655.97 2.405 1.932.501.636 1.206 1.585 2.04 2.725 2.352 3.215 5.724 7.965 8.433 11.781 1.967 2.77 3.52 4.96 4.112 5.757 1.958 2.64 1.75 6.81-.445 8.926l-2.046 1.978c33.861 47.343 51.719 72.335 53.087 74.291a20 20 0 0 1 1.495 2.483 15.5 15.5 0 0 1 1.239 3.278c.414 1.676.474 3.309.18 4.854a10.7 10.7 0 0 1-1.322 3.446 13.3 13.3 0 0 1-1.647 2.197c-.305.335-.749.821-1.3 1.432-1.878 2.078-5.055 5.641-8.9 9.951l-6.274 7.04c-11.74 13.179-27.82 31.227-30.698 34.105-3.895 3.893-3.755 5.466-3.748 5.531a.634.634 0 0 1-.274.75.63.63 0 0 1-.331.094m-43.416-63.157q.027.029.049.061l9.465 13.383c15.817 22.376 29.934 42.344 33.531 47.429.463-1.113 1.524-2.731 3.806-5.01 2.851-2.851 19.577-21.627 30.645-34.05l6.275-7.041c3.846-4.313 7.027-7.878 8.905-9.957.556-.614.999-1.103 1.308-1.441a12 12 0 0 0 1.486-1.981 9.4 9.4 0 0 0 1.163-3.025c.259-1.36.204-2.806-.164-4.299a14.2 14.2 0 0 0-1.137-3.001 19 19 0 0 0-1.399-2.325c-1.371-1.96-19.34-27.105-53.406-74.738a.65.65 0 0 1 .076-.845l2.449-2.368c1.727-1.665 1.872-5.104.305-7.216-.601-.809-2.158-3.002-4.129-5.78-2.706-3.812-6.075-8.558-8.421-11.765a108 108 0 0 0-2.015-2.692c-.603-.773-1.222-1.283-1.842-1.517-1.64-.62-3.125.862-3.838 1.575-.493.493-1.335 1.299-2.088 2.019a.67.67 0 0 1-.522.189.66.66 0 0 1-.48-.259l-5.577-7.798c-.91-1.485-2.79-3.943-5.455-4.166-2.259-.189-4.729 1.228-7.323 4.214-6.832 7.868-46.453 51.861-47.988 53.552-1.322 1.453-.599 2.574 1.027 4.772.287.388.585.792.879 1.216.708 1.022 14.669 20.782 37.344 52.86zm159.628 80.202a.7.7 0 0 1-.242-.047 161 161 0 0 0-15.032-5.204.65.65 0 0 1-.465-.686v-32.028c0-2.063-.207-4.156-.618-6.221a.65.65 0 0 1 .192-.599.66.66 0 0 1 .608-.157c3.775.974 7.561 2.151 11.254 3.498a.65.65 0 0 1 .423.538l4.525 40.183a.646.646 0 0 1-.645.723m-14.439-6.362a162 162 0 0 1 13.671 4.706l-4.358-38.704a120 120 0 0 0-9.77-3.064 33 33 0 0 1 .457 5.459zm-15.595-30.414a.65.65 0 0 1-.648-.595c-.278-3.266-1.162-6.525-2.626-9.686-3.197-6.904-9.006-13.231-17.263-18.804a.65.65 0 0 1-.039-1.049l3.135-2.473a.68.68 0 0 1 .818-.024c8.56 6.503 14.221 14.145 16.37 22.098a28.7 28.7 0 0 1 1.009 7.51c0 .777-.037 1.571-.109 2.428a.65.65 0 0 1-.647.595m-19.077-29.661c8.069 5.586 13.781 11.919 16.983 18.834q.56 1.21 1.012 2.437a29 29 0 0 0-.425-1.803h-.001c-2.039-7.551-7.396-14.838-15.503-21.097z"/>
    <path fill="#fff" d="M261.613 272.844c-38.938 0-73.597-13.628-86.246-33.912-2.81-4.508-4.444-9.228-4.855-14.026a1 1 0 0 1 0-.111c1.576-18.425 21.237-34.867 51.311-42.912a.65.65 0 0 1 .698.253l7.23 10.225a.65.65 0 0 1-.356 1.002c-23.909 6.665-38.761 19.866-38.761 34.453 0 .591.027 1.201.082 1.816.311 3.618 1.546 7.177 3.669 10.582 9.802 15.715 36.82 26.274 67.231 26.274s57.429-10.559 67.23-26.274a26.4 26.4 0 0 0 2.126-4.173 22.4 22.4 0 0 0 1.544-6.403c.054-.614.081-1.226.081-1.818 0-3.875-1.057-7.705-3.144-11.384-2.18-3.842-5.445-7.469-9.704-10.778a.65.65 0 0 1-.004-1.023l11.752-9.27a.65.65 0 0 1 .765-.028c8.458 5.709 14.419 12.214 17.717 19.336a1 1 0 0 1 .034.091c1.499 3.261 2.407 6.635 2.7 10.03a1 1 0 0 1 0 .112c-.412 4.8-2.046 9.519-4.855 14.027-1.714 2.748-3.879 5.432-6.437 7.978-16.069 15.996-46.65 25.933-79.808 25.933m-89.801-47.994c.401 4.573 1.968 9.08 4.659 13.395 12.42 19.917 46.635 33.299 85.142 33.299 32.827 0 63.056-9.792 78.89-25.555 2.488-2.475 4.591-5.081 6.251-7.744 2.69-4.314 4.257-8.82 4.66-13.395-.288-3.257-1.17-6.497-2.622-9.631a1 1 0 0 1-.034-.089c-3.155-6.759-8.815-12.964-16.831-18.449l-10.731 8.464c4.08 3.277 7.236 6.856 9.387 10.65 2.2 3.877 3.315 7.923 3.315 12.025 0 .63-.029 1.28-.087 1.931a23.7 23.7 0 0 1-1.632 6.773c-.6 1.5-1.351 2.973-2.23 4.379-10.029 16.08-37.49 26.885-68.333 26.885s-58.304-10.805-68.334-26.886c-2.233-3.58-3.532-7.334-3.861-11.156a22 22 0 0 1-.087-1.93c0-15.011 14.851-28.545 38.826-35.454l-6.438-9.106c-29.252 7.932-48.354 23.841-49.91 41.594"/>
    <path fill="#fff" d="M333.164 230.346a.65.65 0 0 1-.647-.594c-.363-4.241-1.995-8.387-4.851-12.324-2.556-3.524-6.042-6.818-10.359-9.793a.65.65 0 0 1-.033-1.046l2.471-1.951a.65.65 0 0 1 .801-.003c4.393 3.412 7.77 7.168 10.038 11.164 2.2 3.876 3.315 7.922 3.315 12.024 0 .627-.029 1.277-.087 1.93a.65.65 0 0 1-.647.593m-14.4-23.278c4.107 2.927 7.454 6.152 9.954 9.597a29.3 29.3 0 0 1 3.028 5.175 24.8 24.8 0 0 0-2.293-5.4c-2.115-3.724-5.244-7.243-9.305-10.464z"/>
    <path fill="#fff" d="M261.624 267.799c-30.843 0-58.304-10.805-68.334-26.887-2.234-3.583-3.533-7.336-3.862-11.156a1 1 0 0 1 0-.111c1.278-14.935 17.323-28.106 41.873-34.373a.65.65 0 0 1 .692.255l34.414 48.677c.198.306.444.46.787.507 2.524.34 8.271-4.721 10.727-6.886.56-.494 1.021-.9 1.342-1.162 1.346-1.101 21.114-16.732 38.015-30.073a.65.65 0 0 1 .771-.025c4.438 3.058 8.029 6.457 10.673 10.1q.017.022.029.045c2.98 4.118 4.685 8.471 5.067 12.94a1 1 0 0 1 0 .111 23.7 23.7 0 0 1-1.631 6.774 28 28 0 0 1-2.23 4.378c-10.03 16.081-37.491 26.886-68.333 26.886M190.728 229.7c.319 3.594 1.552 7.135 3.666 10.525 9.8 15.715 36.818 26.274 67.23 26.274 30.411 0 57.428-10.559 67.23-26.274a26.6 26.6 0 0 0 2.126-4.173 22.4 22.4 0 0 0 1.538-6.347c-.372-4.224-2.003-8.351-4.846-12.269l-.029-.044c-2.475-3.402-5.818-6.591-9.938-9.484-18.886 14.909-36.415 28.777-37.619 29.761-.313.255-.76.65-1.305 1.131-4.186 3.69-8.898 7.59-11.764 7.199a2.33 2.33 0 0 1-1.686-1.066l-34.141-48.29c-23.723 6.16-39.205 18.8-40.462 33.057m248.564 70.876a.65.65 0 0 1-.464-.195 169 169 0 0 0-26.218-21.828.65.65 0 0 1-.284-.484l-3.43-39.838a.649.649 0 0 1 1.017-.591c18.659 12.862 29.772 26.382 29.882 26.517a.65.65 0 0 1 .147.411v35.358a.65.65 0 0 1-.65.65m-25.698-22.928a170 170 0 0 1 25.047 20.697v-33.543c-1.332-1.585-11.651-13.589-28.331-25.301zM87.666 235.559a.65.65 0 0 1-.65-.616l-1.194-22.282c.118-13.5 3.564-26.359 10.242-38.262a.649.649 0 0 1 1.198.161l6.061 24.302a.65.65 0 0 1-.103.536c-13.977 19.478-14.898 35.383-14.905 35.542a.65.65 0 0 1-.648.619zm8.736-59.073c-6.047 11.301-9.17 23.453-9.281 36.146l.872 16.242c1.466-6.462 5.096-17.509 13.996-29.989zm31.285-2.209a.65.65 0 0 1-.637-.521l-5.705-28.329a.65.65 0 0 1 .224-.631c22.978-18.89 49.031-27.415 49.292-27.499a.652.652 0 0 1 .838.497l5.54 29.249a.65.65 0 0 1-.408.729c-18.948 7.202-35.349 16.075-48.748 26.371a.65.65 0 0 1-.396.134m-4.991-28.724 5.424 26.927c13.222-10.012 29.276-18.665 47.741-25.729l-5.3-27.98c-4.267 1.483-27.258 9.943-47.865 26.782m77.698 229.35a.7.7 0 0 1-.215-.037c-8.274-2.891-16.319-6.192-23.913-9.812a215 215 0 0 1-16.587-8.808 195 195 0 0 1-16.832-11.13.65.65 0 0 1-.229-.73l10.271-30.598a.65.65 0 0 1 .412-.41.64.64 0 0 1 .576.084 214 214 0 0 0 6.802 4.547 227 227 0 0 0 5.568 3.441 221 221 0 0 0 12.769 7.08c10.185 5.212 21.016 9.755 32.193 13.504a.654.654 0 0 1 .409.823L201.01 374.46a.66.66 0 0 1-.616.443m-56.393-30.552a195 195 0 0 0 18.12 11.811 213 213 0 0 0 14.705 7.718c7.361 3.51 15.15 6.718 23.161 9.541l10.192-30.363c-11.019-3.728-21.701-8.226-31.755-13.37a222 222 0 0 1-12.845-7.123 225 225 0 0 1-5.601-3.461 216 216 0 0 1-6.132-4.081zm213.931 46.127a.65.65 0 0 1-.634-.795l8.577-37.571a.65.65 0 0 1 .527-.497 331 331 0 0 0 12.632-2.354c5.998-1.24 11.72-2.79 17.01-4.605a115 115 0 0 0 6.976-2.658q1.475-.62 2.881-1.261a93 93 0 0 0 7.35-3.749.65.65 0 0 1 .96.691l-7.434 37.318a.66.66 0 0 1-.306.436c-13.993 8.351-30.305 13.411-48.481 15.042zm9.113-37.652-8.28 36.271c17.516-1.685 33.251-6.606 46.791-14.633l7.105-35.657a96 96 0 0 1-6.22 3.113h-.001c-.947.432-1.922.86-2.917 1.278-2.317.97-4.691 1.874-7.056 2.687-5.343 1.834-11.119 3.398-17.17 4.65a333 333 0 0 1-12.252 2.291m63.069 2.5a.653.653 0 0 1-.65-.684l1.603-31.53a.65.65 0 0 1 .164-.398c13.449-15.119 13.251-30.384 13.248-30.536a.65.65 0 0 1 .605-.665.656.656 0 0 1 .69.575c.12 1.048 2.899 25.772-.017 36.881-1.178 4.484-5.695 15.033-15.148 26.128a.65.65 0 0 1-.495.229m2.24-31.92-1.492 29.358c8.457-10.357 12.54-19.948 13.638-24.126 1.979-7.54 1.219-22.002.558-30.248-1.192 6.01-4.349 15.554-12.704 25.016m-119.452 68.836h-.003a450 450 0 0 1-25.679-.843 400 400 0 0 1-18.287-1.552 361 361 0 0 1-21.319-2.949.65.65 0 0 1-.507-.848l10.867-32.385a.66.66 0 0 1 .71-.436c3.311.484 6.808.932 10.393 1.331q1.707.195 3.413.367c4.913.493 9.894.88 14.806 1.148q2.7.15 5.374.257c2.369.09 4.851.159 7.378.205 2.341.041 4.671.064 6.964.051q2.595-.005 5.153-.048c1.96-.028 3.899-.08 5.824-.141q2.597-.084 5.152-.206h.061l1.35-.063c.216 0 .42.086.55.258a.65.65 0 0 1 .098.598l-11.682 34.813a.65.65 0 0 1-.616.443m-64.321-6.5a360 360 0 0 0 20.494 2.812q1.697.186 3.415.356c4.853.483 9.837.884 14.81 1.193 8.166.507 16.62.789 25.135.836l11.23-33.466-.465.022h-.062q-2.531.12-5.108.202a353 353 0 0 1-11.015.192 363 363 0 0 1-14.395-.258q-2.685-.107-5.395-.257a329 329 0 0 1-14.865-1.154 251 251 0 0 1-3.429-.368 311 311 0 0 1-9.897-1.258zM106.234 269.254a.65.65 0 0 1-.508-.244 19 19 0 0 1-.346-.448.65.65 0 0 1 .043-.832l.26-.282a.65.65 0 0 1 .467-.198h.003a.65.65 0 0 1 .645.576l.081.704a.648.648 0 0 1-.645.724M78.65 354.678a.65.65 0 0 1-.65-.675l1.246-32.799a1 1 0 0 1 .018-.129c1.569-12.851 6.024-25.194 13.241-36.686a.649.649 0 0 1 1.142.077c3.126 6.887 7.094 13.826 11.794 20.627a.65.65 0 0 1-.039.79c-20.577 24.227-26.065 48.048-26.118 48.286a.65.65 0 0 1-.634.509m1.892-33.35-1.043 27.459c2.738-8.335 9.717-25.723 24.59-43.365-4.372-6.37-8.108-12.86-11.118-19.316-6.755 11.058-10.934 22.895-12.426 35.201z"/>
    <path fill="#fff" d="M114.546 318.644a.65.65 0 0 1-.495-.228 157 157 0 0 1-9.687-12.581c-4.754-6.885-8.76-13.892-11.907-20.829-2.926-6.446-3.99-10.372-4.033-10.536a.7.7 0 0 1-.015-.264l3.78-25.267a.65.65 0 0 1 1.197-.244 231 231 0 0 0 13.029 19.084l.334.435.041.061a216 216 0 0 0 16.992 19.683.65.65 0 0 1 .158.638l-8.771 29.582a.65.65 0 0 1-.623.466m-24.83-44.384c.206.725 1.335 4.503 3.925 10.209 3.115 6.867 7.083 13.806 11.793 20.627a155 155 0 0 0 8.831 11.56l8.321-28.064a218 218 0 0 1-16.876-19.589l-.043-.064-.286-.371a232 232 0 0 1-12.17-17.68zm39.563 9.331a.65.65 0 0 1-.642-.551l-4.847-31.236a.65.65 0 0 1 .253-.62c12.211-9.119 24.096-15.283 31.916-18.848a.65.65 0 0 1 .919.591v26.961c0 2.384.279 4.799.827 7.176a.65.65 0 0 1-.375.743c-9.925 4.298-19.235 9.567-27.67 15.661a.65.65 0 0 1-.381.123m-4.145-31.599 4.625 29.805c8.142-5.789 17.07-10.82 26.562-14.969a33.2 33.2 0 0 1-.742-6.94v-25.947c-7.687 3.562-18.905 9.477-30.445 18.051"/>
    <path fill="#fff" d="M261.62 318.39c-47.514 0-89.535-17.603-102.188-42.807-1.344-2.682-2.352-5.451-2.994-8.23a33.3 33.3 0 0 1-.86-7.469v-26.961c0-.256.151-.488.384-.593l1.043-.47a.65.65 0 0 1 .894.432c.911 3.548 2.44 7.056 4.542 10.425 2.007 3.214 4.558 6.349 7.582 9.318 18.523 18.187 53.622 29.484 91.6 29.484 37.462 0 72.324-11.068 90.979-28.885 3.296-3.149 6.044-6.469 8.169-9.867a.4.4 0 0 1 .027-.05c3.691-5.916 5.562-12.108 5.562-18.403a.65.65 0 1 1 1.3 0v35.57c0 5.326-1.296 10.609-3.852 15.698-12.655 25.205-54.676 42.808-102.188 42.808m-104.742-84.894v26.388c0 2.384.279 4.799.827 7.176a35.7 35.7 0 0 0 2.889 7.94c12.441 24.782 53.984 42.089 101.026 42.089S350.204 299.782 362.646 275c2.465-4.908 3.714-9.994 3.714-15.116v-26.367c-.954 3.344-2.433 6.632-4.428 9.839l-.027.049c-2.186 3.508-5.015 6.93-8.404 10.169-18.889 18.039-54.094 29.246-91.877 29.246-38.307 0-73.755-11.441-92.512-29.857-3.096-3.041-5.712-6.256-7.773-9.558-2-3.204-3.498-6.533-4.461-9.909"/>
    <path fill="#fff" d="M261.623 282.817c-38.314 0-73.762-11.44-92.511-29.856-3.096-3.041-5.712-6.256-7.774-9.558-2.173-3.484-3.754-7.114-4.698-10.791a33.5 33.5 0 0 1-1.061-8.301c0-22.454 22.659-42.569 59.135-52.493a.66.66 0 0 1 .702.253l4.314 6.104a.65.65 0 0 1-.348 1c-29.403 8.577-47.668 25.171-47.668 43.306 0 .725.034 1.482.104 2.315.393 4.591 1.962 9.116 4.663 13.449 12.42 19.917 46.636 33.299 85.143 33.299 32.832 0 63.061-9.792 78.891-25.555 2.487-2.476 4.59-5.081 6.25-7.744 2.7-4.331 4.27-8.857 4.664-13.45.07-.786.104-1.564.104-2.317 0-2.383-.324-4.796-.964-7.172-2.073-7.677-7.572-15.077-15.902-21.403a.65.65 0 0 1-.257-.511.66.66 0 0 1 .248-.517l7.655-6.028a.65.65 0 0 1 .761-.031c13.378 8.841 21.655 19.557 23.94 30.99l.007.032c.428 2.153.644 4.331.644 6.473 0 6.537-1.938 12.961-5.76 19.092-2.193 3.516-5.02 6.937-8.405 10.169-19.174 18.312-53.52 29.245-91.877 29.245m-47.006-109.624c-35.627 9.803-57.739 29.366-57.739 51.118 0 2.654.344 5.338 1.021 7.978.911 3.547 2.439 7.055 4.542 10.426 2.007 3.214 4.558 6.35 7.582 9.318 18.515 18.186 53.614 29.483 91.6 29.483 38.03 0 72.041-10.797 90.979-28.884 3.306-3.157 6.065-6.493 8.199-9.916 3.693-5.923 5.564-12.115 5.564-18.405 0-2.046-.206-4.127-.613-6.186q-.004-.015-.006-.031c-2.184-10.986-10.133-21.331-22.999-29.934l-6.628 5.22c8.188 6.388 13.612 13.838 15.706 21.587a29 29 0 0 1 1.008 7.511c0 .79-.037 1.608-.109 2.429-.412 4.799-2.046 9.518-4.855 14.026-1.713 2.747-3.879 5.431-6.436 7.977-16.065 15.997-46.646 25.934-79.809 25.934-38.938 0-73.598-13.628-86.246-33.911-2.811-4.509-4.444-9.229-4.855-14.028a29 29 0 0 1-.109-2.424c0-18.553 18.264-35.475 47.731-44.296zM105.171 435.622a.65.65 0 0 1-.491-.225c-19.874-22.953-23.923-42.312-23.961-42.505a.7.7 0 0 1 0-.256l5.159-25.696a.65.65 0 0 1 .54-.514.64.64 0 0 1 .668.333c7.33 13.538 16.779 26.307 28.084 37.953a.65.65 0 0 1 .153.651l-9.533 29.807a.65.65 0 0 1-.619.452M82.02 392.76c.37 1.65 4.717 19.572 22.886 40.906l9.06-28.328c-10.832-11.206-19.964-23.442-27.165-36.396zm110.08 98.744a.7.7 0 0 1-.221-.039c-20.69-7.472-39.174-16.751-54.939-27.58a.65.65 0 0 1-.251-.734l9.93-31.038a.65.65 0 0 1 .407-.416.64.64 0 0 1 .577.076 235 235 0 0 0 8.908 5.757q.03.013.058.031c25.279 15.531 46.443 21.905 46.653 21.968a.653.653 0 0 1 .428.841l-10.938 30.701a.65.65 0 0 1-.612.433m-54.025-28.417c15.429 10.542 33.468 19.6 53.631 26.932l10.492-29.448c-3.773-1.205-23.343-7.801-46.252-21.867l-.058-.031a238 238 0 0 1-8.295-5.337z"/>
</svg>
