<svg xmlns="http://www.w3.org/2000/svg" width="550" height="550" fill="none" viewBox="0 0 550 550">
    <path fill="#fff" fill-rule="evenodd" d="m264.412 157.08 73.209 40.317-71.033 41.523-73.209-40.317zm.024 1.84-67.815 39.641 69.944 38.519 67.814-39.642zm132.973 191.767L265.2 429.407V421.4h1.6v5.192l129.791-77.28z" clip-rule="evenodd"/>
    <path fill="#fff" fill-rule="evenodd" d="M331.2 382.945V320h1.6v63.859l-74.394 43.83-.812-1.378z" clip-rule="evenodd"/>
    <path fill="#fff" fill-rule="evenodd" d="m331.584 373.316 51-31 .832 1.368-51 31zM383.8 218.612V334h-1.6V221.388l-12.4 7.185v97.781h-1.6v-98.703zm-18 29.003v76.236h-1.6v-73.466l-66.4 38.314V329h-1.6v-41.225z" clip-rule="evenodd"/>
    <path fill="#fff" fill-rule="evenodd" d="m368.601 227.307.798 1.387-88.599 50.969V339h-1.6v-60.262zm.821 109.373-37 23-.844-1.359 37-23zm-37.824 12.628 31-18 .804 1.384-31 18zm-66.01 79.378-5-3 .824-1.372 5 3zM146.2 223.711l12.6 6.239V298h-1.6v-67.057l-9.4-4.654v66.299h-1.6z" clip-rule="evenodd"/>
    <path fill="#fff" fill-rule="evenodd" d="m158.382 229.297 92.418 50.329V348h-1.6v-67.423l-91.583-49.874z" clip-rule="evenodd"/>
    <path fill="#fff" fill-rule="evenodd" d="m162.2 249.658 73.6 39.782V340h-1.6v-49.606l-70.4-38.052v49.026h-1.6zm-30.803 28.036-7 4-.794-1.389 7-4zM70.58 252.319l60-37 .84 1.362-60 37zM50.2 254h1.6v63.758l63.573 33.534-.746 1.416L50.2 318.723zm75.429 104.709.742-1.418L257.2 425.679v-60.108h1.6v62.75z" clip-rule="evenodd"/>
    <path fill="#fff" fill-rule="evenodd" d="M152.763 333.179c1.132.835 2.081 2.146 2.622 3.73l.361 1.058h-.111c.492 2.429-.135 4.865-1.894 5.984l-.012.008-.204.119-69.8 38.622-.775-1.4 44.017-24.363 25.766-14.249.16-.094c1.122-.725 1.755-2.78.941-5.168l-.224-.655c-.455-.999-1.101-1.791-1.797-2.304-.829-.611-1.661-.788-2.345-.588q-.052.024-.093.04l-.048.02-.052.021c-.047.02-.057.028-.061.03l-.041.03-33.093 18.315-37.693 20.862-.775-1.399 37.693-20.863 33.012-18.269c.125-.085.242-.14.329-.177l.115-.048.068-.029.052-.026.056-.017c1.319-.422 2.698-.021 3.826.81m-21.888-138.307 4.608 3.49-.957 1.282-4.643-3.419z" clip-rule="evenodd"/>
    <path fill="#fff" fill-rule="evenodd" d="M115.358 187.393c.27.092.554.23.809.424l3.107 1.768.002.001 14.764 8.351h-3.077v-.735l-.357.631-12.119-6.855-.002-.001-3.216-1.83-.051-.041a1.3 1.3 0 0 0-.384-.201l-.015-.005-.015-.006c-.513-.195-1.181-.096-1.887.406-.702.498-1.363 1.35-1.761 2.452-.399 1.106-.443 2.187-.228 3.022.216.839.661 1.347 1.19 1.533l.068.024 2.705 1.535 16.47 9.44-.796 1.388-16.466-9.438-.003-.002-2.579-1.464c-1.139-.43-1.84-1.458-2.139-2.617-.305-1.187-.22-2.598.273-3.964.495-1.371 1.34-2.504 2.339-3.214.99-.703 2.212-1.035 3.368-.602m67.538-21.186.208 1.586-64.009 8.424a22 22 0 0 1 1.134 5.865l45.531-6.523.227 1.584-47.313 6.778-.013-.91a20.4 20.4 0 0 0-1.405-7.164l-.375-.952z" clip-rule="evenodd"/>
    <path fill="#fff" fill-rule="evenodd" d="m262.422 120.083 40.996 22.37 96.215 52.426-133.091 77.039-132.368-72.166-.007-.004-4.786-2.67 36.107-20.913 16.851-9.742zm.023 1.835-79.304 45.89-16.851 9.742-33.671 19.502 2.321 1.295.007.004 131.571 71.732 129.849-75.162-93.714-51.063zm84.942 31.382 125 69-.774 1.401-125-69z" clip-rule="evenodd"/>
    <path fill="#fff" fill-rule="evenodd" d="M340.594 153.213c-.585.415-1.144 1.127-1.493 2.054-.313.838-.366 1.662-.231 2.332.115.571.356.988.647 1.242h.01l4.084 2.175 124.773 68.282-.768 1.404-124.765-68.278-3.724-1.983h-.103l-.196-.123c-.829-.524-1.329-1.424-1.527-2.403-.198-.986-.108-2.114.302-3.209v-.001c.446-1.186 1.187-2.174 2.064-2.797.874-.62 1.964-.924 3.009-.536l.008.003.008.003c.216.086.394.174.599.295l4.098 2.139-.74 1.418-4.137-2.159-.019-.011a2.5 2.5 0 0 0-.382-.191c-.4-.145-.932-.072-1.517.344m-6.422 152.195c.234.072.41.187.509.254l31.925 17.482.002.001 4.071 2.241 14.033 7.702 14.033 7.737 8.64 4.736-.769 1.403-8.642-4.737-14.033-7.737-14.033-7.702-4.072-2.242-31.989-17.517-.031-.021-.065-.043-.036-.021-.009-.005-.059-.015-.059-.025c-.421-.183-1.005-.127-1.665.315-.653.437-1.291 1.206-1.704 2.217-.413 1.015-.502 2.013-.348 2.794.155.788.528 1.262.962 1.449l.034.015 32.811 18.023 6.75 3.689 32.601 17.898-.77 1.402-18.854-10.34-13.746-7.557-.002-.001-6.747-3.687-32.751-17.99c-1.044-.47-1.641-1.487-1.858-2.593-.222-1.126-.078-2.442.437-3.705.516-1.267 1.342-2.306 2.295-2.944.932-.624 2.075-.912 3.139-.476m133.005-68.2.217 1.585-68.594 9.395v6.894l70.091-9.645.218 1.585-71.909 9.896v-10.125zM265.2 348v-77h1.6v77z" clip-rule="evenodd"/>
    <path fill="#fff" fill-rule="evenodd" d="M398.8 194v147h-1.6V194zm-134.384-57.395v15.009l92.205 50.773-89.845 52.533-105.396-58.046zm-99.796 60.227 10.755 5.923 87.441-51.127v-12.233zm99.008-43.825-86.621 50.647 89.746 49.426 86.627-50.651z" clip-rule="evenodd"/>
    <path fill="#fff" fill-rule="evenodd" d="m263.38 137.296 44.028 23.811 16.112 8.731 46.124 24.963-13.774 7.893-.796-1.388 11.282-6.465-43.597-23.596-16.112-8.731-44.028-23.81zM130.2 284v-88h1.6v88z" clip-rule="evenodd"/>
    <path fill="#fff" fill-rule="evenodd" d="m124.718 208.079 6.784 3.611-.752 1.412-5.976-3.181-72.166 44.251 205.619 109.906 72.163-44.249-8.562-4.561-23.975 14.702-16.112 9.902-.001.001-14.201 8.686h-.001l-8.716 5.352-8.407-4.507-15.426-8.257-72.486-38.715-5.189-2.787-.002-.001-10.235-5.468-16.328-8.723-59.256-31.672.754-1.411 59.256 31.672 16.328 8.722 10.237 5.47.001.001 5.189 2.787 72.485 38.714 15.427 8.258 7.598 4.073 7.934-4.872h.001l14.2-8.686.002-.001 16.11-9.901 24.757-15.182 11.838 6.306-75.329 46.191L49.392 254.267zM97 161.8c-12.259 0-22.2 9.941-22.2 22.2s9.941 22.2 22.2 22.2a22.08 22.08 0 0 0 17.142-8.078l1.235 1.016A23.68 23.68 0 0 1 97 207.8c-13.143 0-23.8-10.657-23.8-23.8s10.657-23.8 23.8-23.8 23.8 10.657 23.8 23.8c0 3.174-.02 5.058-.061 6.127-.02.522-.046.891-.086 1.126a2 2 0 0 1-.046.202 1 1 0 0 1-.144.299.83.83 0 0 1-1.33.023c-.105-.132-.163-.286-.184-.341l-.001-.004a4 4 0 0 1-.085-.249l-.017-.055c-.048-.148-.084-.262-.12-.347l-.015-.034q0 .002.02.03a.6.6 0 0 0 .13.124c.049.034.12.075.211.101l.003-.017c.012-.069.025-.189.038-.38l-.826-.246a2 2 0 0 1 .205-.478c.069-.108.279-.397.667-.445.027-1.102.041-2.821.041-5.436 0-12.259-9.941-22.2-22.2-22.2m22.313 28.865a.8.8 0 0 0-.145.149c-.071.097-.093.181-.094.182l-.002.006a.8.8 0 0 0 .194.028.7.7 0 0 0 .524-.223zm1.137.217.005.01zM61.5 365.8c-11.968 0-21.7 9.923-21.7 22.2 0 12.278 9.732 22.2 21.7 22.2s21.7-9.922 21.7-22.2-9.732-22.2-21.7-22.2M38.2 388c0-13.128 10.415-23.8 23.3-23.8s23.3 10.672 23.3 23.8-10.415 23.8-23.3 23.8-23.3-10.672-23.3-23.8M424 338.8c-12.261 0-22.2 9.939-22.2 22.2s9.939 22.2 22.2 22.2 22.2-9.939 22.2-22.2-9.939-22.2-22.2-22.2M400.2 361c0-13.144 10.656-23.8 23.8-23.8s23.8 10.656 23.8 23.8-10.655 23.8-23.8 23.8c-13.144 0-23.8-10.655-23.8-23.8m-74.97-235.2c-10.5 0-19.26 7.324-21.449 17.108l-1.562-.35c2.35-10.502 11.749-18.358 23.011-18.358 5.679 0 11.561 2.649 16.016 6.879 4.46 4.235 7.554 10.118 7.554 16.654 0 3.137-.022 5.007-.067 6.076-.022.523-.051.896-.094 1.137v.001a1.2 1.2 0 0 1-.179.483.84.84 0 0 1-.63.368.84.84 0 0 1-.649-.239c-.142-.138-.217-.31-.24-.362l-.002-.005c-.036-.082-.069-.172-.096-.244l-.025-.069a4 4 0 0 0-.116-.299l-.011-.021.032.042c.02.023.213.242.562.214a.68.68 0 0 0 .437-.201l-.523-.162a.6.6 0 0 0-.139.234l.004-.022q.015-.076.03-.245l-.867-.269c.049-.158.114-.329.211-.478.08-.124.302-.417.714-.452.032-1.091.048-2.82.048-5.487 0-6.018-2.851-11.501-7.056-15.494-4.21-3.998-9.713-6.439-14.914-6.439m23.183 28.766-.009-.016zm-1.357.137.004-.017zm-.366-.146.001.002zm-5.39 9.056c.342-.619.676-1.26.966-1.93l1.468.635c-.319.737-.68 1.429-1.034 2.069z" clip-rule="evenodd"/>
    <path fill="#fff" fill-rule="evenodd" d="M478.438 247.408c2.576-.84 5.266.918 6.174 3.632.54 1.609.394 3.273-.399 4.564l-1.861 3.356-46.052 83.052-9.3-3.845 46.469-84.207 2.418-4.36.013-.024v-.021l.204-.296c.524-.838 1.324-1.538 2.334-1.851m4.656 4.14c-.705-2.11-2.633-3.12-4.164-2.617l-.007.002-.007.002c-.594.183-1.108.611-1.463 1.184l-.01.016-.016.024c-.058.135-.133.222-.16.254l-.002.002-.001.001-2.395 4.318L429 338l6.327 2.616 45.625-82.432 1.881-3.39.01-.016c.519-.837.663-2.004.252-3.229z" clip-rule="evenodd"/>
    <path fill="#fff" fill-rule="evenodd" d="M489.5 215.8c-11.983 0-21.7 9.717-21.7 21.7 0 6.49 2.849 12.326 7.383 16.31l-1.057 1.202c-4.865-4.276-7.926-10.544-7.926-17.512 0-12.866 10.434-23.3 23.3-23.3s23.3 10.434 23.3 23.3-10.433 23.3-23.3 23.3c-3.105 0-5.004-.029-6.137-.087-.561-.028-.968-.065-1.25-.118a1.8 1.8 0 0 1-.436-.128c-.112-.052-.433-.22-.529-.618a.9.9 0 0 1 .19-.781c.084-.104.182-.182.228-.219l.072-.055.006-.006.058-.044.034-.029-.004.004-.001.001c-.006.007-.068.077-.101.204a.63.63 0 0 0 .026.388l.495-1.382c.18.064.348.138.493.228.14.087.31.218.429.419a1 1 0 0 1 .138.526l.233.013c1.088.055 2.949.084 6.056.084 11.983 0 21.7-9.717 21.7-21.7s-9.717-21.7-21.7-21.7" clip-rule="evenodd"/>
</svg>
