<svg xmlns="http://www.w3.org/2000/svg" width="550" height="550" fill="none" viewBox="0 0 550 550">
    <path fill="#fff" fill-rule="evenodd" d="M113.017 93.47a58533 58533 0 0 0-2.275 117.75h-.029l-.63 32.582c-.519 26.898-1.038 53.797-1.567 80.696-.103 5.08.18 10.123 1.248 15.112 7.007 33.312 27.486 46.289 52.714 62.276 2.599 1.647 5.248 3.325 7.937 5.061l26.989 17.678c38.304 25.09 76.608 50.18 114.926 75.248 3.399 1.97 6.67 4.241 9.946 6.515 6.416 4.454 12.85 8.92 20.299 11.16 6.938 2.212 13.271-1.201 19.248-4.422l.177-.095a8578 8578 0 0 1 23.453-11.85c13.74-6.925 27.48-13.85 41.157-20.901 8.135-4.394 10.291-14.505 10.299-23.067.483-28.93 1.135-57.867 1.788-86.804 1.154-51.154 2.308-102.312 2.52-153.448-2.595-22.361-15.042-44.089-34.299-56.118-26.469-16.817-52.625-34.221-78.781-51.625-39.166-26.06-78.332-52.122-118.556-76.215-8.856-3.36-16.84 1.083-24.653 5.43-2.847 1.584-5.67 3.155-8.504 4.331q-19.258 9.695-38.518 19.386l-12.873 6.478c-9.392 4.3-12.094 15.338-12.016 24.841m253.849 282.657h.025l.004.004c-.62 16.354-.753 32.762-.887 49.171-.21 25.973-.421 51.95-2.563 77.725-5.876 21.063-23.859 14.747-36.98 4.801a166528 166528 0 0 1-85.874-56.208 140467 140467 0 0 0-98.713-64.602c-17.19-11.478-28.278-30.829-31.584-51.042-.815-38.282.224-76.644 1.262-115.003.657-24.261 1.314-48.521 1.502-72.758l.01-.527c.366-18.308.732-36.613 1.09-54.921.078-3.992.411-7.955 1.766-11.737 3.507-12.595 16.899-14.952 27.063-8.694 37.179 23.947 74.149 48.227 111.12 72.507 27.49 18.054 54.98 36.107 82.555 54.024 9.387 6.115 16.463 14.279 22.003 23.88 4.912 8.513 8.345 17.577 9.856 27.326.981 25.591.19 51.273-.601 76.951-.505 16.377-1.009 32.753-1.054 49.103m-5.452 135.563c12.678-5.665 25.082-12.088 37.491-18.514 8.587-4.446 17.177-8.894 25.861-13.093 4.119-2.061 6.994-5.17 8.71-9.388 2.116-4.828 2.287-10.096 2.457-15.296q.036-1.15.081-2.293c.356-19.002.73-38.005 1.104-57.008.58-29.493 1.16-58.986 1.672-88.478.164-7.926.339-15.852.514-23.777.286-12.941.572-25.883.809-38.826l.051-1.546c.69-20.752 1.254-37.702-10.068-56.497-5.917-10.361-13.749-18.805-23.876-25.322-27.837-17.824-55.431-36.058-83.024-54.292-37.012-24.458-74.022-48.915-111.615-72.378-6.14-2.751-12.135-2.784-18.32.427-11.584 6.006-23.237 11.876-34.89 17.745a7996 7996 0 0 0-14.563 7.347 2865 2865 0 0 0-11.157 5.687c-.44.226-.883.481-.559 1.154 4.752.777 9.261 2.14 13.318 4.797 38.253 24.893 76.421 49.914 114.589 74.935 25.914 16.987 51.827 33.975 77.767 50.922 12.226 7.86 20.965 20.028 26.681 33.219 6.763 13.962 6.311 29.214 5.863 44.331a514 514 0 0 0-.204 8.464l-.7 34.961q-.53 26.345-1.053 52.688c-.317 15.096-.601 30.193-.885 45.29-.499 26.542-.997 53.084-1.678 79.622-.012 5.462-1.96 10.281-4.376 15.119M165.36 129.107c-2.156.694-14.55 6.829-18.148 8.981l-.004-.004c.062 9.196-.189 18.464-.441 27.739-.429 15.772-.858 31.564.256 47.052q6.1 8.425 12.195 16.864c11.834 16.376 23.677 32.765 35.656 49.027 1.15-.349 1.791-.497 3.027-.719q.032.445.059.883c.138 2.195.268 4.282 1.924 5.967-.286.287-.602.508-.896.714-.521.365-.974.682-1.071 1.225-.177 8.511-.328 17.024-.478 25.537-.257 14.541-.515 29.082-.906 43.619-.053 1.569.292 2.92 1.277 4.148 6.904 9.441 13.68 18.993 20.457 28.545 9.298 13.108 18.598 26.217 28.228 39.042 2.751-.907 16.069-7.704 18.028-9.203.418-9.371.608-18.773.799-28.177.24-11.86.48-23.722 1.177-35.525.869-.627 1.71-.615 2.514-.604q.28.006.553 0c4.646-.345 9.358-.369 14.072-.394 7.258-.038 14.519-.077 21.545-1.282 2.199-1.191 4.446-2.302 6.694-3.414 3.261-1.612 6.523-3.225 9.634-5.082.439-14.442.767-28.88 1.094-43.319.203-8.945.406-17.89.635-26.836q.008-.225.026-.458c.051-.73.104-1.495-.58-2.223l-4.522.063c-16.411.229-32.789.458-49.222 1.169-13.666-19.051-27.536-37.987-41.4-56.915a27341 27341 0 0 1-9.284-12.681c-.525-.454-1.132-.244-1.807-.01-.351.121-.72.249-1.105.293-.111-.7-.135-1.367-.158-2.009-.053-1.517-.102-2.897-1.288-4.253-6.769-9.367-13.46-18.798-20.151-28.229-9.39-13.236-18.781-26.472-28.389-39.531m89.809 150.547-.022.006c-1.319.373-2.518.712-3.72 1.808-.086 8.567-.387 17.189-.688 25.816-.498 14.295-.997 28.604-.523 42.7 1.709.385 1.737-1.57 1.753-2.733v-.006c.341-13.925.531-27.853.72-41.782.098-7.21.196-14.42.315-21.629-.102-2.206.483-3.438 2.165-4.18m1.016-.385q.477-.29.979-.529c-.438-.04-.794.075-.979.529m1.201-.634q.537-.246 1.085-.466c-.477-.082-.875-.002-1.085.466m1.201-.513.421-.168c1.434-.572 2.863-1.142 4.017-2.223-1.717.352-3.346.874-4.438 2.391m4.642-2.512a7.4 7.4 0 0 0 3.134-1.907c-.291.14-.571.264-.84.382-.947.418-1.744.77-2.294 1.525m-15.482 76.474c.416 1.486 1.245 2.23 2.616 1.341q.107-.052.219-.102c.521-.236 1.093-.494.816-1.503-.368.084-.72.219-1.061.35-.909.348-1.739.667-2.59-.086m-.264-.378c-3.728-6.287-8.175-12.282-12.622-18.276-2.97-4.003-5.939-8.005-8.694-12.094a34883 34883 0 0 0-23.273-32.431c-.22-.203-.423-.504-.631-.812-.489-.725-1.006-1.492-1.845-1.126 5.032 8.501 11.261 16.734 17.487 24.961 4.093 5.411 8.185 10.818 11.933 16.299 2.398 3.039 4.641 6.247 6.885 9.455 3.407 4.872 6.815 9.744 10.76 14.024m56.062-22.787c-.231 7.43-.462 14.855-.62 22.256l.004.008c-.807.724-1.665.72-2.491.716q-.243-.003-.482.003c-5.614.175-11.229.338-16.843.501q-4.826.14-9.65.283c-2.553-.027-5.101.109-7.645.244-4.035.215-8.061.43-12.091-.006-.481-23.235.164-46.844.944-70.059.768-.665 1.596-.648 2.397-.632.184.004.367.008.548.003 5.359-.139 10.718-.254 16.077-.365 3.996.095 8.049-.089 12.102-.274 6.246-.284 12.493-.569 18.53.171.201 15.639-.29 31.409-.78 47.151m-105.033-.627c.096-12.941.192-25.873 1.339-38.656v-.004c9.18 12.302 18.187 24.683 27.196 37.068 6.435 8.846 12.872 17.694 19.374 26.516.99 1.351 1.478 2.702 1.429 4.39-.368 8.797-.532 17.639-.695 26.48-.245 13.248-.49 26.496-1.424 39.592-10.232-12.585-19.811-26.29-29.376-39.976-5.829-8.341-11.653-16.674-17.616-24.741-.87-1.481-.798-3.216-.728-4.88l.013-.311c.362-8.469.425-16.975.488-25.478m49.646 20.402c.767-13.094.991-26.2 1.216-39.309.136-7.956.272-15.914.53-23.872.062-2.848.204-3.819-.078-4.646-.271-.795-.934-1.457-2.436-3.522a26881 26881 0 0 0-44.61-61.132 5 5 0 0 1-.121-.172c-.284-.415-.592-.864-1.419-.645-.579 12.155-.836 24.343-1.093 36.531-.188 8.92-.376 17.841-.69 26.749-.057 2.098.456 3.794 1.696 5.507 6.568 8.735 12.869 17.711 19.168 26.683 9.025 12.855 18.045 25.704 27.837 37.828M148.039 180.621c.129-12.987.259-25.969.721-38.977v.005c9.582 11.965 18.385 24.589 27.192 37.22 6.171 8.851 12.345 17.705 18.791 26.338 1.297 1.799 1.84 3.573 1.757 5.774-.401 9.81-.656 19.639-.91 29.468-.294 11.362-.588 22.723-1.11 34.05-.905.277-1.215-.183-1.492-.593q-.065-.098-.13-.187a9761 9761 0 0 1-21.72-29.886 10063 10063 0 0 0-21.721-29.887c-1.236-1.696-1.811-3.375-1.778-5.486.214-9.289.307-18.565.4-27.839m69.266 23.769c16.755 21.885 33.104 44.615 49.111 67.111l-.004.004c-2.403 1.894-5.311 3.267-8.216 4.639-1.845.871-3.688 1.742-5.401 2.745-1.828 1.38-3.072-.427-3.869-1.79a6114 6114 0 0 0-17.315-23.705c-10.013-13.662-20.026-27.322-29.842-41.131 3.856-2.887 13.084-6.899 15.536-7.873m-19.564 2.07c-16.534-22.008-32.689-44.935-48.307-67.624 1.61-1.413 10.32-5.976 14.997-7.869.99.143 1.454.88 1.909 1.602.121.192.241.384.371.562 5.954 8.484 12.025 16.912 18.097 25.341 9.534 13.236 19.07 26.474 28.16 39.935q-.096.156-.161.285c-.081.155-.142.272-.237.323-1.856.91-3.689 1.882-5.523 2.855-3.064 1.625-6.131 3.251-9.306 4.59m123.836 66.817c-3.004 1.308-5.619 2.656-8.305 4.041-1.336.688-2.689 1.386-4.118 2.093-1.643.834-2.403 1.163-2.762 1.741-.357.574-.32 1.394-.363 3.199-.19 7.928-.388 15.857-.586 23.785a14602 14602 0 0 0-.97 40.242q-.004.183-.016.372c-.037.65-.077 1.343.566 2.01 2.576-.934 5.013-2.218 7.449-3.503 1.754-.925 3.508-1.85 5.315-2.645 1.761-.825 2.657-1.93 2.488-3.901.112-9.035.372-18.059.631-27.081.386-13.443.772-26.882.671-40.353m-65.818 81.249c2.988-.093 6.002-.186 8.83.275v-.004c.345 2.361-1.113 59.23-1.614 63.123-4.591 2.789-9.84 5.434-14.821 7.503-.698-.807-.655-1.581-.614-2.313q.014-.22.019-.434c.233-13.805.643-27.608 1.054-41.411.239-8.05.479-16.099.683-24.148-.037-1.334.612-2.443 2.382-2.517 1.341.011 2.708-.031 4.081-.074m41.021-81.511c7.096-.296 14.174-.592 21.241.145h.004c-2.126 1.322-4.138 2.316-6.172 3.322-1.393.688-2.796 1.382-4.255 2.19-1.622.87-3.289 1.215-5.125 1.244-6.307.026-12.61.196-18.911.365-8.417.226-16.83.452-25.24.337.112-.16.195-.302.266-.422.122-.207.207-.351.334-.416a999 999 0 0 1 5.155-2.633c1.905-.969 3.81-1.937 5.707-2.919 2.69-.927 5.573-.876 8.45-.826 1.621.029 3.241.057 4.823-.09 4.583.084 9.157-.107 13.723-.297m-91.723-68.526c2.694-1.421 5.387-2.843 8.236-3.869 1.412 2.538-.337 4.436-2.649 5.261-1.309.693-2.627 1.343-3.941 1.992-2.346 1.157-4.682 2.309-6.942 3.696-.37 12.284-.642 24.56-.914 36.837-.168 7.592-.336 15.184-.527 22.779-.096.486-.072 1.087-.047 1.706.057 1.424.119 2.945-1.263 3.395-1.099.064-1.068-.989-1.042-1.831q.006-.183.007-.346.336-11.02.68-22.042c.436-14.007.872-28.013 1.27-42.018-.065-1.339.469-2.23 1.709-2.837 1.839-.831 3.631-1.777 5.423-2.723" clip-rule="evenodd"/>
</svg>
