<svg xmlns="http://www.w3.org/2000/svg" width="550" height="550" fill="none" viewBox="0 0 550 550">
    <path fill="#fff" d="M467.299 200.3v-.3s-.1-.2-.2-.2l-46.4-26.1v-15.9c1.8-2.3 2.7-5.1 2.7-8.1q0-4.5-2.7-8.1V97.7c0-.1 0-.3-.1-.4 0-.067-.089-.133-.178-.2a1 1 0 0 1-.122-.1l-45-25.3c-3.1-3.5-5.7-6.1-7.5-7.8 1.3-2.1 2-4.6 2-7.1 0-7.4-6-13.4-13.4-13.4s-13.4 6-13.4 13.4 4 11.2 9.6 12.8l-50.2 27.3c-.066 0-.133.089-.2.178-.033.044-.066.089-.1.122v73.2c-17.7-20.7-42.5-33.7-65.2-34.2-14.9-.3-27.8 4.8-36.3 14.5-.387.443-.744.886-1.087 1.312h-.001c-.276.343-.544.676-.812.988v.1l-1.5 1.9s-1.8 2-3.3 4c0 0 0 .1-.1.2-.8 1-1.4 1.9-1.8 2.5-8.2 12.5-9.6 29.2-4.1 47.1 11.4 36.9 49.4 67.3 84.6 67.8h.8c11.2 0 21.2-3.1 29-9v20.6c-12.5 5.8-25.5 10.6-38.6 14.4-2-5.1-6.9-8.5-12.5-8.5s-13.4 6-13.4 13.4v1.2c-3.298.6-6.497 1.099-9.696 1.599l-.004.001q-5.1-2.55-10.5-4.8c-12-5-23-8-30.3-9.7v-.2c0-7.4-6-13.4-13.4-13.4s-12.7 5.3-13.3 12.1c-8.6.6-13.7 2.5-15.4 6.1-.7 1.4-.5 2.8.4 4.2-.9 1.8-1.4 3.8-1.4 5.8 0 7.4 6 13.4 13.4 13.4s10.1-3.1 12.2-8c4.6.5 9.6.8 14.8 1 1.126 0 2.252.024 3.402.048h.001c1.198.026 2.421.052 3.697.052 11.7 0 23.7-.8 35.7-2.5 11 5.7 20.4 12.3 27.8 19.7l-.9-.5c-.2-.1-.5-.1-.8 0l-59.5 32.4c-.066 0-.133.089-.2.178-.033.044-.066.089-.1.122a.4.4 0 0 1-.037.131c-.028.069-.063.152-.063.269v22.4l-45.2-25.4c-.2-.1-.5-.1-.8 0l-59.5 32.4c-.066 0-.133.089-.2.178-.033.044-.066.089-.1.122a.4.4 0 0 1-.037.131c-.028.069-.063.152-.063.269v69.3c0 .3.2.6.4.7l57.5 32.3c.05 0 .125.025.2.05s.15.05.2.05h.3l47.1-25.6v17.1c0 .3.2.6.4.7l57.6 32.4h.8l59.5-32.4c.3-.1.4-.4.4-.7v-18.4l47.8 26.9h.7l59.4-32.3c.3-.1.4-.4.4-.7v-31.7l46.4-25.2c.3-.1.4-.4.4-.7V200.4zm-208.2 132.4-1.2-1.2-.6-.6-1.2-1.2c-.2-.2-.4-.4-.7-.6-.2-.2-.4-.375-.6-.55s-.4-.35-.6-.55a4 4 0 0 0-.214-.193c-.166-.144-.349-.302-.486-.507-.2-.15-.4-.325-.6-.5s-.4-.35-.6-.5c-.15-.1-.275-.225-.4-.35s-.25-.25-.4-.35c-.2-.15-.399-.325-.599-.499l-.001-.001-.001-.001a10 10 0 0 0-.599-.499c-.15-.1-.3-.225-.45-.35s-.3-.25-.45-.35c-.4-.3-.8-.6-1.3-1-.15-.1-.3-.225-.45-.35s-.3-.25-.45-.35l-.001-.001c-.399-.299-.799-.599-1.299-.899-.15-.1-.3-.225-.45-.35s-.3-.25-.45-.35c-.199-.15-.424-.3-.649-.449l-.001-.001c-.225-.15-.45-.3-.65-.45-.15-.1-.325-.225-.5-.35s-.35-.25-.5-.35c-.2-.15-.425-.3-.65-.45s-.45-.3-.65-.45q-.106-.071-.228-.156c-.261-.18-.566-.391-.872-.544-.2-.15-.424-.3-.649-.45h-.001c-.225-.15-.45-.3-.65-.45a4 4 0 0 1-.55-.35c-.175-.125-.35-.25-.55-.35-.2-.15-.425-.275-.65-.4s-.45-.25-.65-.4c-.2-.1-.4-.225-.6-.35s-.4-.25-.6-.35c-.2-.15-.425-.275-.65-.4s-.45-.25-.65-.4c0 0-.2-.1-.3-.2h.3c.75-.15 1.5-.275 2.25-.4s1.5-.25 2.25-.4c0 0 0 .2.1.3v.1c.1.3.2.5.4.8v.2c.05.1.125.225.2.35s.15.25.2.35c0 0 0 .1.1.2.056.112.144.225.246.355.079.101.167.213.254.345 0 0 0 .1.1.2s.175.2.25.3.15.2.25.3l.2.2c.071.071.129.142.184.208.1.121.187.227.316.292l.2.2.5.5s.2.1.2.2c.1.05.175.125.25.2s.15.15.25.2c0 0 .2.1.3.2.1.05.175.1.25.15s.15.1.25.15c.1 0 .2.1.3.2.121 0 .206.073.298.153.06.052.123.107.202.147.1 0 .3.1.4.2.147 0 .239.053.357.121q.064.038.143.079c.147 0 .239.054.357.121q.064.038.143.079c.1 0 .3 0 .4.1.2 0 .4.1.6.2h.3c.147 0 .293.054.479.121l.098.036.123.043h.2c.9.2 1.9.3 2.8.3h1.3c.3 0 .6 0 .9-.1h.5c.3 0 .6-.1.9-.2h.4c.2 0 .4-.089.6-.178.1-.044.2-.089.3-.122 0 0 .2 0 .3-.1.194-.065.388-.171.608-.292q.181-.1.392-.208s.1 0 .2-.1c.15-.1.325-.2.5-.3s.35-.2.5-.3h.1c.15-.1.325-.225.5-.35s.35-.25.5-.35c3-2.5 4.9-6.2 4.9-10.3v-.9c9.4-2.7 18.8-6 27.9-9.7.2 0 .4-.1.5-.2q.404-.168.82-.337l.003-.002c.957-.391 1.947-.796 2.877-1.261.2-.1.375-.175.55-.25s.35-.15.55-.25l3.3-1.5c.2-.1.375-.175.55-.25s.35-.15.55-.25v67.9l-9.6-5.4v-.2c0-.3-.1-.6-.2-.8 0-.1 0-.2-.1-.4 0-.1-.05-.225-.1-.35s-.1-.25-.1-.35-.1-.3-.2-.4c0-.133-.089-.267-.178-.4v-.001c-.044-.066-.089-.133-.122-.199 0-.1-.05-.175-.1-.25s-.1-.15-.1-.25c0-.133-.089-.267-.178-.4-.044-.067-.088-.133-.122-.2 0-.121-.073-.206-.153-.298-.052-.06-.107-.123-.147-.202 0-.121-.073-.206-.153-.298-.052-.06-.107-.123-.147-.202-.1-.2-.3-.4-.4-.5 0-.05-.05-.1-.112-.163a.9.9 0 0 1-.188-.237c-.1-.1-.175-.2-.25-.3s-.15-.2-.25-.3l-.3-.3-.6-.6-.2-.2c-.1-.1-.225-.2-.35-.3s-.25-.2-.35-.3c0 0-.1 0-.2-.1l-.9-.6c-2-1.2-4.4-1.9-6.8-1.9-2.046 0-2.493.145-3.387.436a24 24 0 0 1-.513.164c-.187 0-.335.078-.493.16-.095.05-.194.102-.307.14l-9-5c-1.8-2.4-3.8-4.7-6-7l-.4-.4zm1.102-27.197c.006-.166.047-.319.298-.403.6-.2 1.3-.4 1.9-.5l.6-.2c13.6-3.9 27-8.9 40-14.9 7.2-3.4 14.4-7.1 21.4-11.1 2.3-1.3 4.599-2.699 6.899-4.099l.001-.001c6.1-4.1 11.9-8.4 17.4-12.6.2-.15.425-.325.65-.5l.432-.335.218-.165c3.3-2.6 6.4-5.2 9.4-7.8.25-.25.5-.475.75-.7s.5-.45.75-.7h.4q.15.3 0 .6c-.25.2-.5.425-.75.65s-.5.45-.75.65h-.2c-3.4 3.1-7 6.1-10.8 9.1-.3.2-.6.4-.8.6l-.001.001c-.9.699-1.799 1.399-2.799 2.099-.4.3-.8.6-1.3 1-.45.35-.9.675-1.35 1s-.9.65-1.35 1c-.149.1-.323.224-.498.349l-.002.001c-.175.125-.35.25-.5.35-2.899 2.099-5.798 4.099-8.697 6.098l-.001.001-.002.001c-9.1 5.6-18.6 10.7-28.2 15.2l-.4.2c-.1.05-.225.1-.35.15s-.25.1-.35.15c-12.7 5.8-25.9 10.7-39.2 14.5l-.8.2c-.5.2-1 .3-1.6.4-.199 0-.299-.099-.398-.297m44.498-42.203-.4.4c-.2.2-.4.4-.6.5l-.2.2v-.7c.7-.4 1.299-.8 1.899-1.199l.001-.001c0 .067-.089.133-.178.2a2 2 0 0 0-.122.1c-.071.071-.129.142-.184.208-.099.121-.187.227-.316.292zm-1.2 3.1c.05-.05.125-.1.2-.15s.15-.1.2-.15.125-.1.2-.15.15-.1.2-.15c.1-.05.175-.125.25-.2s.15-.15.25-.2q.047-.045.113-.094c.099-.076.218-.167.287-.306l.4-.4c.4-.4.8-.8 1.1-1.2 1.1-1.2 2.2-2.4 3.2-3.7 0 0 .1-.2.1-.3l2.9-3.5c11.3-12.6 14.3-31.5 8-51.9-3.4-11.1-9.4-22.1-17.4-31.8V98.9l56 31.5v63.5l-10.4 5.6c-.2.1-.4.4-.4.7v59.3c-.35.3-.7.575-1.05.85s-.7.55-1.05.85c-.35.25-.7.525-1.05.8s-.7.55-1.05.8c-.35.3-.725.575-1.1.85s-.75.55-1.1.85c-.4.3-.775.575-1.15.85s-.75.55-1.15.85c-.8.6-1.6 1.2-2.5 1.8-.35.25-.725.525-1.1.8s-.75.55-1.1.8c-.595.447-1.191.838-1.827 1.256h-.001l-.672.444c-.4.25-.775.525-1.15.8s-.75.55-1.15.8a203 203 0 0 1-3.149 1.899l-.001.001h-.001c-1.049.625-2.099 1.25-3.149 1.9-.062 0-.123.038-.209.091q-.043.028-.097.058-.043.026-.094.051c-2 1.2-4.1 2.3-6.2 3.4-.2.1-.4.2-.6.4-1 .55-2 1.075-3 1.6s-2 1.05-3 1.6c-.15.05-.3.125-.45.2s-.3.15-.45.2q-.751.377-1.489.751l-.005.002v.001c-1.469.743-2.909 1.472-4.406 2.146-.133 0-.266.089-.4.178-.066.044-.133.089-.2.122v-21.1zm94.9-152.5c.1.25.225.525.35.8s.25.55.35.8c.1.3.225.575.35.85s.25.55.35.85c.2.5.4 1 .6 1.6.1.3.225.6.35.9s.25.6.35.9c.1.25.175.475.25.7l.001.001c.074.225.149.449.249.699.377.98.697 1.959 1.003 2.896v.001l.001.002.296.901c.05.2.125.424.2.649v.001c.075.225.15.45.2.65l.6 1.8c.05.25.125.499.2.749v.002c.075.25.15.499.2.749.1.3.175.599.25.899v.002c.075.3.15.599.25.899.05.25.125.5.2.75s.15.5.2.75c.05.3.125.6.2.9s.15.6.2.9c0 .267.089.533.178.8.044.133.089.267.122.4h-.1c-.2 0-.4.1-.6.2-.1 0-.3.1-.4.2-.1 0-.2.05-.3.1s-.2.1-.3.1-.3.1-.4.2c-.121 0-.205.073-.298.153-.06.052-.123.107-.202.147-.1 0-.3.2-.4.3-.121 0-.205.073-.297.153h-.001a1 1 0 0 1-.202.147c-.1 0-.3.2-.4.3-.05.05-.125.1-.2.15s-.15.1-.2.15-.125.1-.2.15-.15.1-.2.15q-.047.044-.113.094c-.099.076-.217.166-.287.306l-.4.4-.4.4q-.044.046-.093.112v.001c-.077.099-.167.217-.307.287-.05.05-.1.125-.15.2s-.1.15-.15.2c-.05.1-.1.175-.15.25s-.1.15-.15.25c0 .1-.2.3-.3.4-.05.1-.1.175-.15.25s-.1.15-.15.25c0 .05-.05.125-.1.2s-.1.15-.1.2c0 .2-.2.4-.3.5 0 .1-.1.3-.2.4 0 .1-.05.2-.1.3s-.1.2-.1.3-.1.3-.2.4c0 .2-.1.4-.2.6 0 .1 0 .3-.1.4 0 .1-.025.225-.05.35s-.05.25-.05.35v.4c0 .3 0 .6-.1.9v2.8c0 .4 0 .7.2 1.1v.3c0 .3.1.6.2.9 0 .1 0 .2.1.4 0 .187.078.335.161.493.05.095.102.194.139.307 0 .1.1.3.2.4.05.1.1.225.15.35s.1.25.15.35c0 .1.1.3.2.4.1.2.2.4.4.7 0 .1.2.3.3.4.05.1.125.2.2.3s.15.2.2.3c0 .05.05.1.113.162.062.063.137.138.187.238.1.1.175.2.25.299v.001c.075.1.15.2.25.3s.2.2.3.4l.5.5c.1.1.2.2.4.3.1.1.2.175.3.25h.001c.099.075.199.15.299.25.1 0 .3.2.4.3.1.05.2.125.3.2s.2.15.3.2c.1 0 .3.2.4.3l.6.3c.1 0 .3.1.4.2.1.05.225.1.35.15s.25.1.35.15c.1 0 .3.1.4.2.1 0 .225.05.35.1s.25.1.35.1.3 0 .4.1c.238 0 .412.063.624.138l.176.062h.7v.7c0 .867-.089 1.733-.178 2.6-.044.433-.088.867-.122 1.3v.2l-46.8 25.5v-62.6l35.9-19.5c.1.2.2.425.3.65s.2.45.3.65c.15.3.275.575.4.85s.25.55.4.85zm9.9 15.8c-1.3-4.7-3-9.4-4.9-14.1 0 0 0-.2-.1-.3-.207-.455-.396-.91-.583-1.358l-.001-.001a29 29 0 0 0-.816-1.841c0-.2-.2-.4-.3-.5-.199-.4-.374-.799-.549-1.198l-.001-.002v-.002c-.175-.399-.35-.799-.55-1.198l18.5-10.1v40.7a1 1 0 0 0-.113-.094c-.099-.076-.217-.167-.287-.306-.05-.05-.125-.1-.2-.15s-.15-.1-.2-.15l-.9-.6s-.2-.1-.2-.2c-.2-.1-.4-.225-.6-.35s-.4-.25-.6-.35c-.1 0-.3-.1-.4-.2-.3-.1-.6-.2-.8-.4-.146 0-.239-.054-.357-.122q-.063-.037-.143-.078c-.165 0-.33-.061-.479-.115a1 1 0 0 0-.321-.085c-.2 0-.3 0-.5-.1-.237 0-.475-.063-.761-.138l-.239-.062h-1.8c-.081-.571-.229-1.075-.39-1.621l-.001-.004-.109-.375c0-.253-.08-.467-.164-.69v-.001a4 4 0 0 1-.136-.409c-.1-.45-.225-.9-.35-1.35s-.25-.9-.35-1.35c0-.237-.062-.412-.138-.624l-.062-.176zm4.6 32.9c.8-.2 1.6-.4 2.3-.8h.2c.3-.1.6-.3.9-.5h.1c.7-.4 1.4-.9 2-1.4l.1-.1c.067 0 .134-.089.2-.178.034-.044.067-.089.1-.122v13.2l-7.2-4 .027-.271v-.001c.191-1.901.373-3.719.373-5.628.2 0 .3 0 .5-.1h.2zm-29 62c-.6.8-1.2 1.6-1.9 2.4-.1.15-.2.275-.299.399l-.001.001c-.1.125-.2.25-.3.4-.8 1.1-1.699 2.099-2.599 3.099l-.001.001c-.3.4-.6.7-1 1.1-.5.6-1 1.2-1.6 1.8h-.2s-.2 0-.3-.1l-.6-.3s-.2 0-.3-.1c-.133 0-.266-.089-.4-.178-.066-.044-.133-.089-.2-.122h-.3c-.09 0-.18-.04-.279-.085-.121-.054-.256-.115-.421-.115h-.2c-.2 0-.5-.1-.7-.2h-.2c-.3 0-.6-.1-.8-.2-.288 0-.6-.023-.923-.047-.35-.026-.713-.053-1.077-.053-5.5 0-10.3 3.4-12.3 8.2-.7 1.6-1.1 3.4-1.1 5.2 0 1.563.151 2.146.387 3.058q.054.206.113.442c.1.5.3 1.1.5 1.6s.5 1 .8 1.5c-.1.1-.2.175-.299.25h-.001c-.1.075-.2.15-.3.25l-.266.233-.002.002c-.73.64-1.531 1.342-2.332 1.965-.3.2-.5.4-.8.7-.5.45-1.025.875-1.55 1.3s-1.05.85-1.55 1.3a1 1 0 0 0-.25.2c-.075.075-.15.15-.25.2V202l35.8 20.1-.001.001c-.399.5-.799.999-1.199 1.599q-.13.176-.265.37c-.218.313-.451.647-.735.93zm-20.9 26.2s0-.2-.1-.2c-.7-.8-2-.9-2.8-.2-.15.1-.275.225-.4.35s-.25.25-.4.35c0 0 0-.2-.1-.3a2 2 0 0 0-.2-.4 2 2 0 0 1-.2-.4c0-.1-.1-.3-.2-.4-.05-.15-.1-.325-.15-.5s-.1-.35-.15-.5c0-.1 0-.3-.1-.4 0-.2-.05-.375-.1-.55a2 2 0 0 1-.1-.55v-3.2c0-.3 0-.5.1-.8 0-.1 0-.3.1-.4 0-.2.1-.5.2-.7 0-.146.054-.239.122-.357q.037-.064.078-.143c0-.2.1-.4.2-.6 0-.1.05-.175.1-.25s.1-.15.1-.25c0-.2.2-.4.3-.5.1-.2.2-.4.3-.5 0-.1.2-.3.3-.4.1-.2.3-.4.5-.6 0 0 .1-.2.2-.3s.2-.225.3-.35.2-.25.3-.35c0 0 0-.1.2-.2.3-.3.5-.5.8-.7 2-1.7 4.6-2.7 7.5-2.7 2.3 0 4.6.7 6.6 2 .6.4 1.2.9 1.7 1.4 2.2 2.2 3.5 5.2 3.5 8.4 0 4.9-3 9.1-7.3 10.9q-2.1.9-4.5.9h-1.6c-.2 0-.4 0-.7-.1-.2 0-.3 0-.5-.1-.2 0-.4 0-.6-.2-.146 0-.239-.054-.357-.122a3 3 0 0 0-.143-.078c-.2 0-.4-.1-.6-.2-.2 0-.3-.1-.4-.2-.133 0-.266-.089-.4-.178-.067-.044-.133-.089-.2-.122-.05 0-.125-.05-.2-.1s-.15-.1-.2-.1c-.2-.1-.4-.2-.5-.3-.1 0-.3-.2-.4-.3a1 1 0 0 1-.25-.2c-.075-.075-.15-.15-.25-.2-.05-.05-.125-.1-.2-.15s-.15-.1-.2-.15l-.1-.1c.15-.15.325-.299.499-.449l.001-.001c.175-.15.35-.3.5-.45.7-.6.8-1.6.4-2.4zm43.3 31-43.7-24.5h-.8l-1.8 1-9.6 5.2c3.5-2.8 6.9-5.6 10-8.3 0 0 .2.1.3.2q.047.044.113.093v.001c.099.076.218.166.287.306.1.1.2.175.3.25s.2.15.3.25c.1.05.175.1.25.15s.15.1.25.15.2.125.3.2.2.15.3.2c.121 0 .206.073.298.153.06.052.123.107.202.147.2.1.4.2.7.3.1 0 .175.05.25.1s.15.1.25.1c.153 0 .364.117.544.216q.085.047.156.084c.147 0 .239.054.357.121l.061.035.082.044c.238 0 .412.063.624.138l.176.062c.1 0 .3 0 .4.1.139 0 .279.021.428.045.172.026.358.055.572.055h1.6c1.8 0 3.6-.4 5.2-1.1 4.8-2 8.2-6.8 8.2-12.3v-2.5c0-.2 0-.4-.1-.6 0-.2 0-.4-.2-.6 0-.2-.1-.4-.2-.6 0-.2-.1-.4-.2-.6 0-.1-.05-.2-.1-.3s-.1-.2-.1-.3c0-.133-.089-.267-.178-.4-.044-.067-.088-.133-.122-.2 0-.2-.2-.4-.3-.5l-.3-.6c-.05-.1-.1-.175-.15-.25s-.1-.15-.15-.25-.125-.175-.2-.25a1 1 0 0 1-.2-.25c-.05-.1-.125-.175-.2-.25s-.15-.15-.2-.25l-.2-.2c3.7-4.1 7.1-8.4 10.2-12.7l16.7 9.4v48.7zm1-109.6c0 .239-.045.477-.093.727-.052.273-.107.559-.107.873 0 .4-.089.8-.178 1.2-.044.2-.088.4-.122.6 0 .308-.076.616-.157.947a9 9 0 0 0-.143.653v.001c-.1.6-.2 1.199-.4 1.699l-.042.215c-.088.451-.186.955-.358 1.385-.05.3-.125.575-.2.85s-.15.55-.2.85c-.05.249-.125.524-.199.798l-.001.002v.001c-.075.275-.15.549-.2.799-.1.3-.175.575-.25.85s-.15.55-.25.85c-.1.25-.175.524-.25.799v.002c-.075.274-.15.549-.25.799-.1.3-.175.575-.25.85v.001c-.075.275-.15.549-.25.849-.2.5-.4 1.1-.5 1.6-.1.3-.2.575-.3.85s-.2.55-.3.85c-.2.5-.4 1-.6 1.6s-.4 1.1-.7 1.7c-.2.5-.4 1-.7 1.5-.1.3-.225.575-.35.85s-.25.55-.35.85c-.1.25-.225.5-.35.75s-.25.5-.35.75c-.15.3-.275.575-.4.85s-.25.55-.4.85c-.1.25-.225.5-.35.75s-.25.5-.35.75c-.35.65-.7 1.325-1.05 2s-.7 1.35-1.05 2c-.1.15-.175.3-.25.449v.001c-.075.15-.15.3-.25.45-.3.6-.6 1.1-1 1.7l-.9 1.5c-.15.25-.325.525-.5.8l-.002.004c-.174.273-.348.547-.498.796-.3.5-.6 1-1 1.6-.15.25-.325.525-.5.8l-.002.003c-.174.274-.348.548-.498.797-.112.187-.238.374-.368.566-.217.322-.444.658-.632 1.034a14 14 0 0 0-.806 1.153l-.001.001-.293.446c-.15.2-.3.425-.45.65s-.3.45-.45.65l-35.9-20.2 56.5-30.7c0 .3 0 .6-.1.9 0 .3-.05.6-.1.9s-.1.6-.1.9zM305.599 291c.3-.1.6-.3.9-.5 1.347-.599 2.638-1.253 3.956-1.922l.004-.001q.662-.338 1.34-.677c.5-.3 1.1-.6 1.6-.8 1.8-.9 3.5-1.8 5.3-2.8.5-.3 1-.6 1.5-.8q.84-.465 1.656-.911l.001-.001c1.203-.659 2.373-1.3 3.543-1.988h.001c.5-.3.999-.6 1.399-.8.8-.5 1.625-.975 2.45-1.45s1.65-.95 2.45-1.45c.119-.079.237-.142.349-.202.172-.093.33-.177.451-.298 2.574-1.716 5.073-3.505 7.499-5.241l.001-.001.015-.01 1.185-.848 8.5-4.6 12.3-6.7 55.9 31.4-57.8 31.4-54.7-30.8zm86.1-70.3c-.358.448-.717.977-1.075 1.514l16.575 9.286 57.8-31.4-53.3-29.9c-.1.4-.2.8-.2 1.2 0 .25-.05.525-.1.8s-.1.55-.1.8c-.05.3-.1.625-.15.95s-.1.65-.15.95c-.033.167-.078.333-.122.5-.089.333-.178.667-.178 1-.05.35-.125.675-.2 1s-.15.65-.2 1c-.05.25-.1.475-.15.7s-.1.45-.15.7c-.1.349-.175.699-.25 1.048v.003c-.075.35-.15.699-.25 1.049-.05.2-.1.425-.15.65l-.001.003c-.049.224-.099.448-.149.647-.1.35-.2.725-.3 1.1s-.2.75-.3 1.1l-.3 1.2c-.1.4-.225.775-.35 1.15s-.25.75-.35 1.15c-.05.15-.1.325-.15.5s-.1.35-.15.5c-.15.4-.3.825-.45 1.25s-.3.85-.45 1.25l-.3.9c-.2.449-.374.924-.549 1.399l-.001.001v.001c-.175.475-.35.949-.55 1.399q-.04.08-.078.143c-.068.118-.122.211-.122.357-1.4 3.3-2.9 6.7-4.6 10-.1.1-.2.3-.2.4-.25.5-.5.975-.75 1.45s-.5.95-.75 1.45q-.09.132-.176.247c-.134.181-.254.342-.324.553-.4.9-.9 1.7-1.4 2.5-.2.4-.4.7-.6 1-.249.399-.474.773-.698 1.148l-.002.002c-.225.375-.45.75-.7 1.15-.217.217-.382.487-.533.734l-.079.128-.088.138c-.25.35-.499.724-.749 1.099l-.001.001v.001c-.25.374-.5.749-.75 1.099-.1.15-.225.325-.35.5s-.25.35-.35.5m19-62.5v3.8c0 1.754-.174 3.566-.346 5.348v.003q-.08.831-.154 1.649c-.2 1.9-.5 3.9-.8 5.8-2.8 16.2-9.7 32.2-20.6 47.4-3.1 4.4-6.6 8.7-10.4 13l-.2-.2s-.2-.1-.2-.2c0 0-.1 0-.2-.1.5-.5 1-1.1 1.4-1.7.2-.2.375-.4.55-.6s.35-.4.55-.6l1.8-2.1c.3-.4.6-.8.9-1.1.3-.4.625-.8.95-1.2s.65-.8.95-1.2c.1-.15.225-.3.35-.45s.25-.3.35-.45c.4-.55.825-1.099 1.249-1.649l.001-.001.001-.001c.425-.55.85-1.1 1.249-1.649 12.4-17.3 19.7-35.4 21.6-53.8l.029-.3c.19-1.991.371-3.891.371-5.7v-3.7c0-.2.2-.3.4-.3zm-133.1 187.7h1.5c1 0 1.9.1 2.8.3.238 0 .412.063.624.138l.176.062h.2c.153 0 .364.117.545.216q.048.028.095.052l.06.032h.2c.113 0 .225.063.355.136.101.057.214.12.345.164 0 0 .1 0 .2.1.2.1.4.2.6.4 0 0 .1 0 .2.1.1.05.2.125.3.2s.2.15.3.2c0 0 .1 0 .2.1.6.4 1.1.9 1.6 1.4.1.1.2.2.3.4 0 .067.089.133.178.2.044.033.089.067.122.1.05.1.1.175.15.25s.1.15.15.25c0 .1.1.2.2.3.05.1.1.175.15.25s.1.15.15.25c0 .1.1.2.2.3l.3.6s0 .2.1.3c0 .153.117.364.217.544l.025.047q.033.058.058.109v.5l-14-7.9c.2 0 .4-.05.6-.1s.4-.1.6-.1zm141.5-189c-.2.3-.4.5-.6.7l-.5.5s-.2.2-.3.2c-.1.05-.175.125-.25.2a1 1 0 0 1-.25.2c-.066 0-.133.089-.2.178-.033.044-.066.089-.1.122-.1.05-.175.1-.249.15h-.001c-.075.05-.15.1-.25.15-.05 0-.125.05-.2.1s-.15.1-.2.1a2 2 0 0 0-.178.103l-.072.047c-.075.05-.15.1-.25.15-.1 0-.3.1-.4.2-.117 0-.234.069-.331.125-.069.041-.127.075-.169.075-.146 0-.239.053-.357.121q-.063.038-.143.079c-.2 0-.4.1-.5.2-.2 0-.3 0-.5.1-.1 0-.2.025-.3.05s-.2.05-.3.05v-3c0-.316-.187-.569-.364-.809q-.072-.096-.136-.191c-.3-.3-.6-.5-1-.5h-1.2s-.1 0-.2.1l-.1.1-.1.1s0 .1-.1.2v.1s0 .2-.1.3c-.1.2-.2.5-.2.8v2.8h-.1c-.2 0-.4 0-.7-.1h-.4c-.2 0-.4-.1-.6-.2-.1 0-.3 0-.4-.1-.2 0-.4-.1-.6-.2-.1 0-.3-.1-.4-.2-.2 0-.4-.2-.5-.3-.05 0-.125-.05-.2-.1s-.15-.1-.2-.1c-.121 0-.205-.073-.297-.153-.061-.053-.124-.108-.203-.147-.1 0-.3-.2-.4-.3-.1-.05-.175-.1-.249-.15h-.001c-.075-.05-.15-.1-.25-.15-.05-.05-.125-.1-.2-.15s-.15-.1-.2-.15a1 1 0 0 0-.113-.094c-.099-.076-.217-.167-.287-.306l-.4-.4-.4-.4c-.05-.05-.1-.125-.15-.2v-.001c-.05-.074-.1-.149-.15-.199s-.1-.125-.15-.2-.1-.15-.15-.2-.1-.125-.15-.2v-.001c-.05-.074-.1-.149-.15-.199a2 2 0 0 0-.094-.165l-.056-.085c-.05-.075-.1-.15-.15-.25 0-.1-.2-.3-.3-.4 0-.121-.073-.206-.153-.298-.052-.06-.107-.123-.147-.202 0-.147-.053-.239-.121-.357a3 3 0 0 1-.079-.143c0-.1-.05-.175-.1-.25s-.1-.15-.1-.25c0-.147-.053-.239-.121-.357a3 3 0 0 1-.079-.143c0-.2-.1-.4-.2-.5 0-.2 0-.3-.1-.5 0-.2 0-.4-.1-.6v-2.2c0-2.7.9-5.3 2.5-7.3s3.8-3.5 6.5-4.2c.7-.2 1.5-.3 2.2-.3h2c.4 0 .8.1 1.1.2h.2c.254 0 .467.08.691.164.129.049.263.099.409.136h.2c.238.059.441.154.629.242.128.06.25.117.371.158h.2c.15.1.325.175.5.25h.001c.174.075.349.15.499.25 0 0 .1 0 .2.1l.9.6.2.2c.3.2.5.4.8.7 0 0 .2.2.2.3.1.1.2.225.3.35s.2.25.3.35c1.7 2.1 2.5 4.6 2.5 7.3s-.9 5.2-2.5 7.3zm-1-59.3-18.3 10-.9-1.8c-.05-.15-.125-.275-.2-.4s-.15-.25-.2-.4c-.4-.8-.8-1.6-1.3-2.4-.05-.1-.125-.225-.2-.35a6 6 0 0 1-.2-.35 30 30 0 0 1-.95-1.675 68 68 0 0 0-.45-.825l-.3-.6c-.5-.9-1-1.8-1.6-2.7 0-.1-.1-.3-.2-.4l-.001-.002c-.6-1-1.199-1.999-1.899-2.998-2-3-4-6-6.2-9-.2-.2-.4-.5-.5-.7-.4-.5-.775-1-1.15-1.5s-.75-1-1.15-1.5l-1.2-1.5c-.349-.4-.674-.799-.998-1.198l-.002-.002-.001-.002c-.325-.4-.649-.799-.999-1.198-.237-.237-.412-.475-.623-.762h-.001l-.176-.238 39.8 22.4zm-44.1-24.8c3.4 3.8 6.7 7.8 9.8 12 5.8 7.8 10.8 15.9 14.8 24.2 1.6 3.2 3 6.4 4.2 9.7 0 .1.05.2.1.3s.1.2.1.3c.15.4.3.825.45 1.25s.3.85.45 1.25l.001.001a7 7 0 0 0 .399.999c.15.4.275.775.4 1.15s.25.75.4 1.15c.05.2.125.399.2.599v.002c.075.199.15.399.2.599l.6 2.1c.05.2.125.424.2.649v.001l.001.001c.074.225.149.449.199.649l.049.168.061.211c.161.546.309 1.05.39 1.621.06.297.155.595.243.871.06.188.117.367.157.529.1.3.175.624.25.949v.002c.075.325.15.649.25.949 0 .267.089.533.178.8.044.133.089.267.122.4h-.8c-.05-.3-.125-.6-.2-.9s-.15-.6-.2-.9c0-.306-.116-.611-.216-.872v-.001a6 6 0 0 1-.084-.227l-.6-2.4c0-.253-.08-.467-.164-.69v-.001a4 4 0 0 1-.136-.409 22 22 0 0 0-.3-1.049v-.001c-.141-.464-.287-.941-.4-1.45 0-.177-.069-.354-.147-.551a4 4 0 0 1-.153-.449c-.15-.45-.3-.875-.45-1.3s-.3-.85-.45-1.3c0-.244-.132-.488-.235-.679l-.065-.121c-.126-.378-.27-.756-.416-1.142-.202-.532-.41-1.078-.584-1.658 0-.09-.04-.18-.085-.279-.054-.121-.115-.256-.115-.421-.2-.5-.4-1.025-.6-1.55s-.4-1.05-.6-1.55c0-.1 0-.2-.1-.3-1-2.3-2-4.6-3.1-6.9-4-8.3-9-16.4-14.8-24.2s-11.4-13.9-15.1-17.5c-1-1-1.9-1.9-2.6-2.5-1.3-1.2-2.1-1.9-2.1-1.9l-.1-.1v-.4s.2-.1.3-.1.2 0 .3.1.325.3.663.6c.337.3.787.7 1.337 1.2 1.8 1.6 4.6 4.4 8 8.2zm-29.5-16c0-6.5 5.3-11.8 11.8-11.8s11.8 5.3 11.8 11.8c0 4.59-.299 4.792-.827 5.148-.22.148-.479.323-.773.852-.8-.7-1.3-1.2-1.3-1.2h-.2s-.1 0-.2-.1h-1.4c-.4.1-.7.3-1 .6-.7.8-.6 2.1.2 2.8 0 0 .5.4 1.4 1.2-2.1 1.8-4.8 2.7-7.5 2.7h-1.3c-6-.7-10.4-5.7-10.4-11.7zm10.5 13.3h1.2c.8 0 1.6 0 2.4-.2.267 0 .534-.089.8-.178.134-.044.267-.089.4-.122h.1c.15-.05.325-.1.5-.15h.001c.175-.05.349-.1.499-.15h.2c.3-.1.6-.2.9-.4.1 0 .2-.1.3-.2q.071-.035.156-.072c.18-.08.391-.175.544-.328.1 0 .3-.2.4-.3.2-.1.4-.2.5-.4 0 0 .2-.1.2-.2l2.8 1.6c3.6 3.6 9.1 9.6 14.9 17.3q.581.802 1.158 1.586c.907 1.235 1.799 2.45 2.642 3.714 0 .05.05.1.1.15s.1.1.1.15c.25.35.475.7.7 1.05s.45.7.7 1.05c.1.15.175.275.25.4l.001.001c.075.125.15.25.249.399.2.35.399.674.599.998l.001.002.001.002c.2.324.4.649.599.998.2.3.4.6.6 1 .2.3.4.625.6.95s.4.65.6.95c.1.15.2.325.3.5s.2.35.3.5c.2.3.375.624.55.949v.001c.175.325.35.65.55.95.1.2.2.375.3.55l.001.001c.1.175.199.349.299.549.302.453.547.963.778 1.444q.113.235.222.456c.1.2.2.375.3.55s.2.35.3.55c.15.35.325.675.5 1s.35.65.5 1c.05.15.125.275.2.4s.15.25.2.4l-36 19.6-55.9-31.4 50.6-27.5zm-119.6 67.7h1.3c22.9.5 48 14 65.4 35.3 7.9 9.7 13.9 20.5 17.2 31.5 6.1 19.8 3.3 38.2-7.7 50.4q-4.05 4.5-9.3 7.5-1.95 1.2-4.2 2.1c-6.1 2.7-13.1 4-20.7 3.9-34.6-.5-71.9-30.4-83.1-66.6-3.4-11.1-4.1-22-2-31.5 0-.2 0-.5.1-.7 0-.1 0-.3.1-.4.9-3.7 2.2-7.2 4-10.4.077-.154.169-.308.264-.468.153-.255.313-.525.436-.832.2-.4.4-.8.7-1.2.5-.8 1-1.6 1.6-2.3l2-2.4c7.9-9 19.9-14 33.8-14zm36.7 137.3c-34.6-.5-71.9-30.4-83.1-66.6-5.4-17.4-4-33.7 4-45.8 0-.121.074-.206.154-.298.052-.06.107-.123.146-.202-.05.2-.125.375-.2.55s-.15.35-.2.55c0 .1-.05.2-.1.3s-.1.2-.1.3c-.7 1.8-1.2 3.6-1.7 5.4 0 .2 0 .3-.1.5-.1.4-.175.775-.25 1.15s-.15.75-.25 1.15c0 .2 0 .5-.1.7l-.3 2.4v.5q-.3 3-.3 6v3.9c0 .916.084 1.748.175 2.65l.025.25v.2c.05.55.125 1.1.2 1.65s.15 1.1.2 1.65v.4c.1.45.175.925.25 1.4s.15.95.25 1.4c0 .237.063.412.139.623l.061.177c.2.9.4 1.8.6 2.6 0 .2.1.4.2.6l.9 3.3c8.9 28.8 34 53.7 61.4 63.4h.2c1 .4 2 .7 3 1 .1 0 .3 0 .4.1l.429.13.131.04c.785.24 1.53.468 2.34.63.2 0 .4 0 .6.1l2.7.6c.3 0 .6.1.9.2.4.1.8.175 1.2.25s.8.15 1.2.25h.001c.299 0 .699 0 .999.1.4.05.775.1 1.15.15s.75.1 1.15.15c.4 0 .8 0 1.2.1.7 0 1.4.1 2.1.2h7.1c.5 0 1 0 1.4-.1.6 0 1.3 0 1.9-.2.5 0 1-.1 1.5-.2.386 0 .731-.083 1.088-.169.197-.047.398-.095.612-.131.333 0 .667-.089 1-.178.167-.044.334-.089.5-.122.25-.05.525-.1.8-.15s.55-.1.8-.15.5-.125.75-.2.5-.15.75-.2.5-.125.75-.2.5-.15.75-.2c.25-.1.5-.175.75-.25s.5-.15.75-.25.475-.175.7-.25.45-.15.7-.25l1.5-.6c.5-.2.9-.4 1.3-.6.342-.137.684-.32.993-.486.144-.077.281-.151.407-.214q.071-.035.156-.072c.18-.081.391-.175.544-.328v1.1c-7.8 6.3-18.1 9.6-29.8 9.4zm-21.2 20.6c4.9 0 9.1 2.9 10.9 7.4-.265.088-.531.157-.788.224-.323.084-.633.164-.912.276-1.1.3-1.7 1.4-1.4 2.4.2.9 1 1.5 1.9 1.5h.5c.25-.05.5-.125.75-.2s.5-.15.75-.2v.5c0 6.5-5.3 11.8-11.8 11.8-4.043 0-3.753-.039-3.172-.116.352-.047.812-.108.472-.184-.3 0-.5-.1-.7-.2h-.1c-.2 0-.4-.1-.6-.2h-.3c-.1 0-.3-.1-.4-.2-.1 0-.3-.1-.4-.2 0 0-.1 0-.2-.1l-.6-.3c-2.3-1.4-4.1-3.5-5-6.1-.3-.7-.4-1.4-.5-2.2 0-.3-.025-.6-.05-.9s-.05-.6-.05-.9c0-6.5 5.3-11.8 11.8-11.8zm-34.9 16h-.1c-.682 0-1.411.093-2.123.184-.331.042-.659.084-.977.116h-.9c-.499 0-.999.05-1.499.1h-.002c-.499.05-.999.1-1.499.1h-.9c-1 0-2 .1-2.9.2h-1c-.9 0-1.9 0-2.8.1h-22.5c-.6 0-1.2 0-1.8-.1h-.7c-.5 0-1.1 0-1.6-.1h-.8c-.4 0-.8 0-1.2-.1h-2.3v-1.5c0-.6 0-1.2-.1-1.8h.3c.3 0 .6.1.9.2h1.8c3 0 5.9-1 8.2-2.8.3-.2.6-.4.8-.7.196-.131.349-.304.516-.492v-.001q.13-.15.284-.307c.1-.15.225-.275.35-.4s.25-.25.35-.4l.6-.9.6-.9c.4-.7.8-1.5 1-2.3.45.123.917.229 1.4.338.699.159 1.432.326 2.2.562.254 0 .467.08.691.164v.001c.13.048.263.098.409.135.2 0 .4.1.6.2h.2c4.1 1.1 9.2 2.6 14.8 4.6h.1c.187 0 .335.078.493.16l.001.001c.095.05.193.101.306.139 2.086.722 4.236 1.573 6.45 2.449h.001l1.649.651h.101c1.4.6 2.799 1.2 4.099 1.8.147 0 .239.054.357.121q.064.038.143.079h-.5a37 37 0 0 0-1.748.2h-.004c-.574.075-1.148.15-1.748.2m7.813-.843c.312-.065.594-.123.902-.146-2.642-1.266-5.378-2.438-8.113-3.61l-.002-.001c-11.8-4.9-22.6-7.8-29.8-9.5v.7q1.65.3 3.9.9c.2.1.4.2.6.2h.4c3.8 1 8.3 2.3 13.1 3.9l1.8.6c.2.1.4.2.6.2.2.1.425.175.65.25h.001c.225.075.449.15.649.25.2.05.375.125.55.2s.35.15.55.2q.072.036.155.083h.001c.18.1.391.217.544.217.808.34 1.652.662 2.51.989v.001c1.159.442 2.341.893 3.49 1.41l2.7 1.2c.238.059.441.154.629.242.128.06.25.117.371.158 1 .4 1.9.8 2.9 1.3.3.1.5.2.7.3zM173.699 283.8c6.5 0 11.8 5.3 11.8 11.8v.8c0 .8-.2 1.5-.4 2.2-1.4 5.2-6 8.8-11.4 8.8-2.1 0-2.718 0-2.718-.006 0-.002.107-.006.259-.011.42-.013 1.184-.038.959-.083h-.3c-.2 0-.4 0-.6-.1h-.3c-.2 0-.3 0-.5-.1h-.2c0-.2-.089-.4-.178-.6-.044-.1-.088-.2-.122-.3 0-.1 0-.2-.1-.3-1-2.6-2.8-4.8-5.1-6.3-.4-.3-.8-.5-1.2-.7-.1 0-.2-.1-.3-.2-.1 0-.3-.1-.4-.2h3.2c1.1 0 2-.9 2-2 0-.756 0-.756-.065-.747-.029.004-.072.009-.135-.053 0-.1-.1-.2-.2-.3l-.2-.2s-.1 0-.2-.1l-.1-.1c-.3-.2-.7-.3-1.1-.3h-3.9c.7-6 5.5-10.4 11.7-10.4zm-27.3 17.3c1.5-3 6.4-4.8 14.8-5.2.666 0 1.378-.023 2.123-.046a78 78 0 0 1 2.577-.054c.623 0 .816 0 .816.005 0 .002-.039.005-.096.01-.162.013-.467.038-.42.085 0 0 .1.2.1.3 0 .2-.2.3-.4.3h-4.6c-1.466 0-2.865.199-4.145.381q-.437.063-.855.119c-.3 0-.6 0-.9.1h-.5c-.3 0-.6.1-.9.2-.1 0-.3 0-.4.1-1.6.4-3 .9-4 1.5-.1.05-.175.1-.25.15s-.15.1-.25.15c0 0-.2.1-.2.2-.066 0-.133.089-.2.178a1 1 0 0 1-.1.122s-.2.2-.3.2l-.3.3s-.2.2-.2.3-.1.2-.2.3c0 0-.1.2-.2.3v.5c0 .05-.05.1-.112.162a1 1 0 0 0-.188.238c-.1.2-.3.4-.4.5-.2-.6-.2-1.2.1-1.8zm11 21.1c-6.5 0-11.8-5.3-11.8-11.8 0-4.487.238-4.59.682-4.783.199-.086.439-.19.718-.717.4-.8.9-1.5 1.4-2.1 1.5-1.7 3.4-3 5.5-3.6.44-.11.88-.19 1.336-.273h.001c.373-.067.758-.137 1.163-.227h2.6c.2 0 .5 0 .7.1.2 0 .3 0 .5.1.2 0 .4.1.6.2.2 0 .3 0 .5.1 3.7 1.3 6.7 4.5 7.6 8.3.2.9.3 1.9.3 2.8v1.3c-3.979-.406-6.441-.812-7.28-.95q-.291-.049-.32-.05c-.4 0-.8 0-1.2.2 0 0-.2 0-.2.1 0 0-.2.1-.2.2 0 0-.2.2-.2.3l-.3.6v.1c-.2 1.1.5 2.1 1.6 2.3.179 0 .619.08 1.302.205h.003c.841.154 2.051.374 3.595.595h.2c.4 0 .8.1 1.2.2h.9c-2 4-6 6.5-10.5 6.5zm27-6.9c-5.4-.2-10.5-.5-15.2-1-.6 0-1.2-.1-1.7-.2a81 81 0 0 1-5.348-.746h-.001c-.56-.094-.913-.154-1.051-.154 0 0-.1 0-.2-.1v-.2c0-.1.1-.2.2-.3q.026.001.291.047c.879.151 3.712.636 8.209 1.053 4.9.5 12.4 1.1 21.9 1.1h7.601c.9 0 1.9 0 2.899-.1h.9c1 0 2 0 3-.2h.9c1.1 0 2.2-.1 3.3-.2h.8c.719 0 1.481-.086 2.258-.173a46 46 0 0 1 1.242-.127h.701c1.2-.1 2.4-.2 3.699-.4h.6c1.3-.1 2.6-.3 3.9-.5h.2l4.2-.6c3.3-.5 6.6-1 10-1.6v.8c-2.2.4-4.5.8-6.8 1.2l-3.9.6c-12 1.7-24 2.5-35.8 2.5-5.899 0-7.1 0-7.1-.013 0-.003.078-.007.177-.012.286-.014.742-.038-.077-.075zm46.7-1.4c1.7.9 3.3 1.8 4.8 2.8h.001c.199.1.399.2.499.3h.001c.6.4 1.199.8 1.899 1.1.1.05.225.125.35.2a9 9 0 0 0 .35.2c.3.2.575.375.85.55s.55.35.85.55c.1.1.225.175.35.25s.25.15.35.25c.371.297.742.538 1.154.807l.264.172.182.121c.1.1.225.175.35.25s.25.15.35.25c.25.2.5.374.749.549l.001.001c.25.175.5.35.75.55.1.1.2.175.3.25s.2.15.3.25c.25.2.525.4.8.6h.001c.275.2.549.4.799.6.1.05.175.125.25.2s.15.15.25.2l1.8 1.5.2.2c1.4 1.1 2.7 2.3 4 3.5l.1.1c.3.25.575.525.85.8s.55.55.85.8l.3.3q.257.253.508.484v.001h.001c.321.3.628.586.891.915l.4.4c.2.25.425.475.65.7s.45.45.65.7l.4.4c.4.5.9 1 1.3 1.4.05.05.1.125.15.2s.1.15.15.2c.05.1.125.175.2.25s.15.15.2.25l-2-1.1c-7.7-8.6-17.7-16.2-29.9-22.8.4 0 .9-.1 1.3-.2zm22.6 21.4 20.3 11.4 17.2 9.7 11.1 6.2 7.3 4.1-50.3 27.4-7.5 4.1-3.3-1.9-52.6-29.6 57.8-31.5zm-105.9 30.1 45.6 25.6v11.4l-47.5 25.8-55.9-31.4 57.8-31.5zm-58.6 32.8 56 31.5v67.5l-56-31.4zm57.5 98.9v-67.5l46.7-25.4v67.5zm48.3-7v-122l10.4 5.8 45.6 25.6v122.1zm115.4.1-57.8 31.446V399.6l50.5-27.5 6.8-3.7.5-.3zm1.7-19.7V366.4c0-.067-.089-.133-.178-.2l-.086-.067-.036-.033-8.1-4.6V292h.3c0-.1 55.7 31.2 55.7 31.2v174l-47.4-26.7zm49 26.6v-174l57.9-31.5v174zm59.5-64.5V290.3c0-.3-.2-.6-.4-.7l-12.3-6.9v-49.6l57.9-31.5V408zM290.101 234.5v-.6l-8-10.6c-.1-.2-.4-.3-.6-.3s-.5 0-.6.3c-.6.8-1.5 1.5-2.6 2.3-1 .8-2.3 1.4-3.7 1.9s-3.1.7-5 .7c-3.2 0-6.4-1-9.4-2.8-.6-.4-1.2-.8-1.9-1.2 0 0-.2-.1-.2-.2-.1-.1-.225-.2-.35-.3s-.25-.2-.35-.3c-.05 0-.1-.05-.163-.112a.9.9 0 0 0-.237-.188l-.6-.6q-.047-.044-.113-.093c-.099-.077-.217-.167-.287-.307l-.6-.6-.4-.4c-.2-.2-.4-.4-.5-.6a1 1 0 0 0-.2-.25 1 1 0 0 1-.2-.25c-.2-.2-.4-.4-.5-.6s-.3-.4-.4-.5c-.2-.2-.4-.5-.5-.7 0 0 0-.1-.1-.2l10.7.2h.3s.2 0 .2-.2l2.2-2.7v-.4l1.1-7.6c0-.2 0-.5-.2-.6-.1-.2-.4-.3-.6-.3l-20.2-.3c-.05-.2-.125-.4-.2-.6s-.15-.4-.2-.6c-.1-.25-.175-.5-.25-.75s-.15-.5-.25-.75l19.7.3h.3c.1 0 .2-.1.3-.2l2.2-2.7v-.4l1-7.5c0-.2 0-.5-.2-.6-.1-.2-.4-.3-.6-.3l-25.2-.5v-2.3c0-.5 0-.9.2-1.3v-.3c0-.3.1-.6.2-.9 0-.2 0-.3.1-.5 0-.15.05-.275.1-.4s.1-.25.1-.4c0-.2.1-.4.2-.5 0-.112.063-.225.136-.355.057-.101.12-.213.164-.345 0-.146.053-.239.121-.357a3 3 0 0 0 .079-.143s.2-.1.3-.2c.1 0 .3-.2.4-.3 0 0 .2-.1.3-.2.121 0 .205-.073.298-.153.06-.052.123-.107.202-.147 0 0 .2 0 .3-.1.1 0 .2-.05.3-.1s.2-.1.3-.1h.2c.09 0 .18-.04.279-.085.121-.054.256-.115.421-.115a16 16 0 0 1 3.9-.5c1.9 0 3.8.3 5.5.9 1.8.6 3.5 1.3 5.1 2.2 1.6.8 3 1.7 4.4 2.7 0 0 .2 0 .3.1h.3s.2-.1.3-.2l2.2-2.7v-.2l1.5-10.5c0-.3 0-.6-.3-.8-3.2-2.3-6.7-4.1-10.2-5.4-.4-.2-.8-.3-1.3-.4-3.1-1-6.3-1.5-9.6-1.6-5.9-.1-10.9 1.4-14.5 4.4-1.3 1.1-2.5 2.3-3.4 3.8-.071.071-.129.142-.184.208-.1.121-.187.228-.316.292l-.6.6c-.2.2-.3.4-.4.6-.2.2-.4.5-.5.7-.153.153-.247.364-.328.544l-.047.104-.025.052c-.05.1-.125.225-.2.35s-.15.25-.2.35c-.1.15-.175.3-.25.45s-.15.3-.25.45c0 .121-.074.206-.154.298-.052.06-.107.123-.146.202-.2.4-.4.9-.6 1.4v.2c-.6 1.6-1.1 3.4-1.3 5.3-.1.8-.2 1.6-.2 2.4v3h-4.1s-.2.1-.3.2l-2.2 2.7s0 .1-.1.2v.1l-.4 7.5v.2h8.5c.2 1.1.5 2 .8 2.9h-2.1s-.1 0-.2.1l-2.2 2.7c-.1.1-.2.3-.2.5l-.3 7.6v.1h.3l9.2.2c.218.51.49.967.776 1.448q.16.268.324.552c1.3 2.3 2.8 4.6 4.3 6.6 4.3 5.7 9.3 10.1 14.7 13.2q8.25 4.65 17.1 4.8h.5c2.2 0 4.3-.3 6.3-.7 1-.2 2-.5 2.9-.9.238-.059.44-.154.629-.242.128-.06.249-.117.371-.158.1 0 .2 0 .3-.1h.2c.2-.2.3-.3.4-.3.133 0 .266-.089.4-.178q.065-.044.131-.084.034-.02.069-.038l.049-.033q.082-.033.151-.067h-.05l.15-.1c.112-.056.224-.144.354-.245a5 5 0 0 1 .346-.255h.2c.123-.184.284-.293.436-.396.095-.065.187-.127.264-.204.2-.2.5-.4.799-.6h.001q.096-.094.213-.193c.167-.144.35-.302.487-.507l.6-.6c0-.2.1-.3.2-.4v-.1l1.9-2.3.2-.2.1-.1.173-.173zm-1.527-.573-.073-.027c-.1.1-.1.2-.1.2a1 1 0 0 1-.122.1c-.089.067-.178.133-.178.2l-.3.3c-.05.05-.125.1-.2.15a3 3 0 0 0-.135.094l-.065.056c-.2.2-.4.4-.6.5l-.2.2s-.1 0-.2.1c-.3.2-.6.4-1 .6-.15.1-.275.175-.4.25s-.25.15-.4.25h-.2v.2l-.6.3c-.3.2-.7.3-1.1.4-2.7 1-5.7 1.5-9.1 1.5-5.6 0-11.1-1.6-16.3-4.6-5.2-2.9-10-7.2-14.2-12.8-2-2.7-3.8-5.6-5.4-8.8v-.1s-.2-.1-.3-.1h-8.9v-3.2h.1v-2.9h5.8l.1-.1s.1 0 .1-.1c.2-.2.2-.5.1-.7-.4-1.2-.8-2.4-1.2-3.4-.15-.55-.3-1.074-.45-1.599v-.002c-.15-.525-.3-1.049-.45-1.599v-.3h-7.9c0-.1.3-6.1.3-6.1h3.8l-1.7-.4h2.4c.2 0 .4 0 .6-.2s.2-.4.2-.6c0-.621-.079-1.164-.167-1.767l-.033-.233c-.068-1.212-.044-2.379-.022-3.5.011-.544.022-1.077.022-1.6 0-.5 0-1.1.2-1.6.5-3.4 1.6-6.3 3.1-8.7.9-1.3 1.9-2.5 3.2-3.5s2.7-1.9 4.3-2.5c2.5-1 5.4-1.5 8.6-1.5h.6c1.7 0 3.5.2 5.2.5h.3c.365.091.729.162 1.085.23.424.082.834.161 1.215.27.288.058.542.148.783.234.177.063.347.124.517.166.4.1.8.2 1.2.4 3.2 1.2 6.4 2.8 9.4 4.9l-1.2 8.7c-.075-.037-.149-.088-.229-.143a2 2 0 0 0-.471-.257 17 17 0 0 0-1.276-.751q-.3-.165-.624-.349l-.3-.2c-.2 0-.4-.2-.5-.3-.1 0-.3-.1-.4-.2-1.4-.7-2.8-1.3-4.3-1.8-.2 0-.4-.1-.6-.2-1.9-.6-3.9-1-6-1-3.6 0-6.5.9-8.6 2.8-.8.7-1.5 1.6-2 2.6-.9 1.7-1.5 3.8-1.7 6.2v3.2c0 .4.4.7.8.8l25.1.5-.8 5.9-23-.4c-.2 0-.5.1-.6.3-.2.2-.2.4-.2.7 0 .1 0 .3.1.4 0 .2.1.4.2.6 0 .15.05.3.1.45s.1.3.1.45v.3c0 .2.1.4.2.6v.2c.1.2.2.4.3.7.4 1.2.8 2.4 1.2 3.5.1.3.4.5.7.5l19.9.3-.9 6-15.5-.3h-.3s-.2.1-.2.2c0 .05-.025.125-.05.2s-.05.15-.05.2c0 .1 0 .3.1.4.5.9 1.1 1.9 1.7 2.8 0 .1.2.3.3.4 2.7 3.9 5.7 6.8 8.9 8.7s6.6 2.9 10.1 3c2.1 0 3.9-.2 5.5-.8 1.5-.5 2.9-1.2 4.1-2.1.8-.6 1.6-1.2 2.2-1.8l7.1 9.3zm-8.023 6.873q.117-.06.233-.113a1 1 0 0 1-.183.013q-.156.04-.331.093h-.001c-.329.098-.698.207-1.068.207-.3.1-.5.1-.8.1-.5.1-1.1.2-1.6.2h-3.6q-8.85-.15-17.1-4.8c-5.4-3.1-10.4-7.5-14.7-13.2-1.8-2.4-3.5-5.1-5-7.9l-1.1 1.4q.058.113.109.191c.053.085.091.147.091.209.15.3.325.6.5.9s.35.6.5.9c.1 0 .1.2.1.2 1.2 2.1 2.5 4.1 3.9 5.9 4.2 5.6 9 9.9 14.2 12.8 5.2 3 10.7 4.6 16.3 4.6 3.3 0 6.4-.5 9.1-1.5.15-.05.3-.125.45-.2m-52.65-52.8c0-.8.1-1.6.2-2.3v-.2c0-.333.089-.667.178-1 .044-.167.088-.333.122-.5 0-.15.05-.3.1-.45s.1-.3.1-.45c0-.2.1-.4.2-.6v.3c0 .35-.05.7-.1 1.05s-.1.7-.1 1.05c-.1 1.5-.1 3 0 4.6v1.4h-.8v-2.8zm35.1-5c-1.7-.9-3.5-1.7-5.3-2.3-1.9-.6-3.9-.9-5.9-1h-2.6c-.3 0-.6 0-.9.1h-.3l-.105.002 1.005-.502h.3c.2-.05.375-.125.55-.2s.35-.15.55-.2h.4c.4-.1.9-.2 1.4-.2h2c1.9 0 3.8.3 5.5.9s3.4 1.3 5 2.1c.121 0 .205.073.298.153.06.053.123.108.202.147l.2.1c.7.4 1.4.8 2 1.2h.1c.15.1.275.175.4.25s.25.15.4.25l-1.2 1.4H267c-1.299-.8-2.599-1.6-3.999-2.3zm-36.8 25.6v3c-.1 0-.2 2-.2 2l-.5.6.2-5zm0 7.2.9-1.1h7.6c0 .1-.9 1.2-.9 1.2h-7.6zm24.4-.7 11.1.2h1.9l-.9 1.1-11.4-.2c-.189-.251-.337-.502-.472-.728a8 8 0 0 0-.228-.372m-5.7-13.6c0-.2 0-.3-.1-.4 0-.2-.1-.5-.2-.7h1l20.1.4-.9 1.1-19.8-.4zm-14.4 3.9c0-.1 0-.3-.1-.4-.2-.7-.4-1.4-.6-2.2 0-.2-.1-.4-.2-.6l1-1.2q.3 1.2.6 2.1c.2.8.5 1.6.8 2.4h-1.4v-.2zm-8.9-11.4v.3l-.2 4.5-.5.6.2-4.9.5-.6zm.4 6.6.6-.7h6.7c0 .1-.9 1.2-.9 1.2h-6.7c0-.1.4-.6.4-.6zm52.698 60.6c-30.5-.4-63.4-26.7-73.3-58.7h-.1c-5-16.2-3.3-31.8 4.8-42.6 7.3-9.8 19.2-15.1 33.3-14.8 5.9.1 11.9 1.2 17.8 3.1 17.8 5.7 35.1 19 46.2 36.4 3.9 6.2 7 12.7 9 19.3 5.5 17.9 2.9 34.4-7.1 45.3-.6.7-1.3 1.4-2 2-5.3 4.9-12.1 8.1-19.8 9.4q-3.9.6-8.1.6zm-53.75-111c-.15.075-.3.15-.45.2l-.2.5c5.1-1.8 10.8-2.7 16.9-2.6 24.7.5 52 18.3 66.2 43.3 2.9 5.1 5.2 10.3 6.8 15.6.2.5.3.9.4 1.3.1.3.175.625.25.95s.15.65.25.95c.172.43.27.934.357 1.385l.043.215c.172.43.27.934.357 1.385l.043.215c.035.214.084.415.131.612.086.357.169.702.169 1.088 0 .25.05.5.1.75s.1.5.1.75l.038.224c.085.505.162.952.162 1.476.2.5.2 1 .2 1.5.1.5.1 1.1.1 1.6v4.8c-.1.7-.1 1.5-.1 2.2-.1.6-.2 1.3-.2 1.9-.1.4-.2.9-.2 1.3-.03.15-.07.31-.11.473-.093.379-.19.777-.19 1.127v.3c.056-.338.144-.644.228-.936.065-.227.128-.445.172-.664.1-.1.1-.3.1-.5.2-.7.3-1.3.4-2v-.6c.035-.281.082-.549.129-.814.086-.49.171-.967.171-1.486v-.7c.1-.8.1-1.6.1-2.4v-3.3c0-.463-.027-.9-.053-1.324a20 20 0 0 1-.047-1.176v-.8c-.05-.4-.1-.824-.15-1.249s-.1-.851-.15-1.251v-.5c-.05-.4-.125-.775-.2-1.15s-.15-.75-.2-1.15c-.1-.3-.1-.5-.1-.8-.1-.45-.2-.875-.3-1.3s-.2-.85-.3-1.3l-.062-.177c-.076-.211-.138-.386-.138-.623l-.099-.402c-.17-.691-.351-1.43-.601-2.098v-.3c-2-6.5-5-12.8-8.9-18.9-10.9-17.1-27.8-30.1-45.2-35.8-5.8-1.9-11.7-3-17.4-3.1h-5.501c-.499.1-.999.2-1.499.2-.4.1-.7.1-1 .1-.25 0-.5.05-.75.1s-.5.1-.75.1c-.3.1-.6.2-.9.2-.25.05-.475.1-.7.15s-.45.1-.7.15c-.3.1-.6.2-.9.2a6 6 0 0 0-.7.2c-.225.075-.45.15-.7.2-.4.2-.8.3-1.2.4-.3.1-.575.2-.85.3s-.55.2-.85.3c-.2.1-.375.175-.55.25s-.35.15-.55.25c-.15.05-.3.125-.45.2m56.05 109.4h1.9c9.2-.7 17.2-3.9 23.3-9.5q.296-.294.614-.593c.433-.411.882-.836 1.286-1.307 4.1-5.7 6.5-12.6 7.1-20.3.4-6.5-.4-13.6-2.6-20.8-1.5-5.2-3.8-10.3-6.6-15.3-13.9-24.5-40.6-42-64.8-42.5-12.4-.2-22.6 3.7-29.8 11.5-7.7 10.5-9.4 25.5-4.5 41.2 9.7 31.3 41.9 57.2 71.8 57.6z"/>
</svg>
