<svg xmlns="http://www.w3.org/2000/svg" width="550" height="550" fill="none" viewBox="0 0 550 550">
    <path fill="#fff" fill-rule="evenodd" d="m472.908 337.583 2.794-133.848.004-.007.19-8.287.004-.183.002-.091.004-.144.001-.034.004-.185.003-.116c.184-8.004.402-17.517.61-27.029l.553-25.582.001-.029v-.03l.001-.029.001-.03c.518-24.001 1.036-48 1.581-71.999.037-1.481-.645-1.602-1.771-1.536-4.422.26-8.848.486-13.274.712-9.61.492-19.221.983-28.801 1.822-16.848 1.474-33.711 3.109-50.446 5.532-19.572 2.835-39.097 6.164-58.483 10.077-16.804 3.391-33.477 7.557-50.035 12.012-11.677 3.141-23.191 6.907-34.696 10.67h-.003l-.001.001h-.002l-.001.001h-.002l-.001.001h-.002l-.001.001h-.002l-.001.001h-.002q-2.41.789-4.82 1.575c-16.5 5.379-32.663 11.711-48.386 19.023-13.049 6.068-25.868 12.675-38.562 19.47-13.9 7.436-27.023 16.151-39.673 25.578-11.033 8.221-21.487 17.105-31.178 26.877-.686.693-1.232 1.855-1.258 2.816-.605 23.764-1.15 47.531-1.664 71.298-.306 14.185-.595 28.37-.883 42.555v.002q-.308 15.198-.624 30.395-.494 23.473-.995 46.945v.001q-.401 18.778-.798 37.556-.495 23.372-.946 46.743c-.005.338.101.678.207 1.018.05.158.1.316.137.474.179-.081.369-.15.56-.219v-.001c.408-.148.816-.296 1.109-.568 1.38-1.294 2.74-2.61 4.1-3.926 2.06-1.992 4.119-3.984 6.247-5.901 11-9.903 22.755-18.832 35.046-27.074 12.441-8.342 25.249-16.093 38.669-22.712 13.629-6.721 27.478-13.024 41.415-19.088 15.411-6.707 31.331-12.108 47.355-17.168.696-.22 1.785.077 2.423.517 1.192.822 2.336 1.712 3.48 2.602.975.759 1.95 1.518 2.955 2.235 11.899 8.481 24.93 14.633 38.948 18.7 8.11 2.354 16.324 4.147 24.783 4.814 1.93.152 3.862.231 5.795.309 4.014.162 8.031.325 12.036 1.154 7.667 1.588 15.458.744 23.155-.389 7.021-1.034 13.915-2.64 20.606-5.052l.037-.014c2.408-.868 4.858-1.751 6.189-4.152.895-1.609 2.061-2.009 3.616-1.21 1.331.686 2.471.294 3.615-.381.252-.148.5-.306.748-.463a16 16 0 0 1 1.129-.677c10.953-5.783 20.79-13.028 28.828-22.506 7.689-9.064 14.234-18.924 19.671-29.495.668-1.298 1.394-1.936 2.89-2.006 3.993-.186 7.985-.403 11.977-.62l.012-.001c3.874-.21 7.749-.421 11.624-.603 1.448-.066 2.068-.484 2.035-2.039-.037-1.8.024-3.602.084-5.405.03-.886.059-1.772.077-2.658m-26.588 9.677.076.037q.058.029.105.055c.103.056.176.095.246.091l3.489-.185h.016l.005-.001h.009l.005-.001h.014l.004-.001h.01l.004-.001h.014l.005-.001h.014l.005-.001h.004c6.547-.345 13.092-.689 19.634-1.107.436-.03 1.125-.847 1.177-1.35.17-1.725.205-3.467.239-5.206l.005-.239.013-.597q.469-21.828.933-43.654v-.015l.001-.006v-.051l.001-.005v-.026q.465-21.836.935-43.671.269-12.54.545-25.079v-.033l.001-.016v-.033l.001-.016v-.016l.001-.017v-.032l.001-.017v-.033l.001-.017v-.017l.001-.017v-.034l.001-.017v-.034l.001-.017c.294-13.451.589-26.902.865-40.354.217-10.447.418-20.895.62-31.343v-.035c.188-9.764.376-19.527.576-29.29.359-17.597.74-35.19 1.173-52.786.04-1.705-.444-2.204-2.149-2.097-4.547.283-9.095.531-13.643.78-6.066.331-12.132.662-18.194 1.075-22.741 1.551-45.412 3.887-67.922 7.477-17.182 2.742-34.364 5.632-51.384 9.228-17.021 3.594-33.921 7.829-50.714 12.379-11.081 3.003-22.003 6.618-32.914 10.229h-.001q-2.42.801-4.841 1.6c-16.309 5.379-32.303 11.653-47.839 18.946-13.09 6.141-25.919 12.855-38.687 19.649-11.487 6.113-22.348 13.288-32.934 20.86-12.778 9.145-24.9 19.078-35.93 30.287-.681.693-1.213 1.866-1.235 2.83-.862 37.206-1.66 74.415-2.45 111.625-.175 8.267-.333 16.535-.49 24.804-.15 7.802-.299 15.603-.463 23.405q-.632 30.053-1.276 60.106-.552 25.761-1.096 51.522c-.007.393.03.788.076 1.263.025.256.051.535.074.849.222-.188.383-.322.508-.425.16-.133.263-.218.361-.308a707 707 0 0 0 3.79-3.549l.001-.001h.001l.001-.001.002-.003.005-.004c2.734-2.572 5.468-5.144 8.29-7.622 9.503-8.345 19.466-16.137 30.081-23.005 10.241-6.629 20.592-13.137 31.243-19.074 10.014-5.577 20.38-10.556 30.778-15.389 9.512-4.418 19.166-8.587 28.963-12.327 8.486-3.239 17.072-6.215 25.659-9.19l.001-.001.002-.001h.003l.002-.001.002-.001.002-.001.003-.001.002-.001h.002l.002-.001.003-.001.002-.001.002-.001a1950 1950 0 0 0 11.559-4.032c.302-.106.588-.26.933-.446l.283-.152q.148-.078.313-.161c-.582-.491-1.133-.971-1.667-1.436-1.198-1.044-2.311-2.014-3.506-2.869-.877-.63-2.039-1.107-3.106-1.184-4.701-.345-9.141-1.478-13.255-3.813-7.777-4.415-13.614-10.835-18.586-18.114-1.204-1.763-2.313-3.589-3.436-5.44-.535-.882-1.074-1.77-1.628-2.659q-1.295.541-2.569 1.083l-.001.001c-2.112.895-4.193 1.777-6.3 2.59-1.65.634-2.812-.308-2.64-2.065.165-1.69 1.016-2.984 2.607-3.696 1.489-.668 2.98-1.324 4.524-2.002l2.113-.931c-3.421-7.586-5.562-15.459-6.329-23.866-.328.123-.596.22-.827.304h-.002c-.392.142-.674.244-.949.367-.978.43-1.962.85-2.946 1.27l-.001.001h-.002v.001h-.002l-.001.001h-.001l-.001.001h-.001l-.001.001h-.002v.001h-.002l-.001.001h-.002v.001h-.002v.001h-.002c-2.266.967-4.532 1.934-6.731 3.036l-4.8 2.403-.052.026-.014.007-.013.006-.026.014-.04.02c-9.705 4.854-19.41 9.71-28.998 14.791-4.255 2.252-8.372 4.766-12.489 7.28l-.003.001-.002.002c-1.979 1.208-3.958 2.416-5.953 3.596-1.375.814-2.269.381-2.346-1.199-.096-1.955.601-3.638 2.321-4.668 2.012-1.205 4.011-2.435 6.011-3.665 5.071-3.119 10.143-6.239 15.42-8.956 12.267-6.31 24.722-12.256 37.174-18.201h.001l.051-.025.05-.024 2.962-1.414c1.768-.843 2.263-1.892 2.615-3.645l.067-.332.076-.38c.621-3.104 1.259-6.289 2.618-9.078 1.25-2.566 1.881-4.851 1.305-7.626-.372-1.799-.593-3.628-.821-5.504-.099-.824-.2-1.657-.316-2.501-.335.124-.644.231-.933.331l-.001.001c-.566.195-1.058.365-1.526.589q-5.618 2.676-11.235 5.356a8288 8288 0 0 1-24.453 11.635c-.627.297-1.767.466-2.13.125-.51-.481-.807-1.551-.671-2.274.308-1.664 1.254-2.977 2.875-3.773 1.381-.681 2.749-1.393 4.117-2.104l.002-.001c1.877-.976 3.754-1.953 5.667-2.852 8.598-4.041 17.208-8.048 25.879-11.92 1.526-.682 2.186-1.324 2.039-3.04-.583-6.901-.235-13.787.645-20.651.081-.629.16-1.259.243-1.921l.311-2.457c-.379.135-.711.246-1.011.346l-.001.001c-.548.183-.99.33-1.412.522q-3.374 1.533-6.747 3.072h-.001l-.022.01c-4.849 2.211-9.699 4.423-14.566 6.595-.664.297-1.91.41-2.259.033-.502-.547-.828-1.83-.517-2.424.671-1.276 1.617-2.578 2.783-3.384 1.12-.776 2.408-1.31 3.692-1.843.471-.195.941-.389 1.401-.596q2.544-1.14 5.09-2.274l.014-.007c4.575-2.04 9.149-4.08 13.692-6.189.726-.337 1.404-1.298 1.628-2.104 2.412-8.65 6.134-16.702 10.835-24.325.931-1.508 1.88-3.004 2.903-4.614v-.001l.002-.003c.471-.742.958-1.509 1.465-2.312-.288.077-.523.135-.724.184h-.001c-.363.089-.611.15-.848.245a6970 6970 0 0 0-13.907 5.639c-1.665.679-2.596.096-2.67-1.679-.084-1.925.869-3.491 2.809-4.264a1278 1278 0 0 1 7.929-3.127c4.039-1.583 8.078-3.166 12.095-4.808 1.353-.554 2.764-1.397 3.685-2.497 6.757-8.081 14.923-14.604 23.312-20.805 9.361-6.915 19.767-12.07 30.503-16.511 8.58-3.549 17.417-6.288 26.576-8.008 7.818-1.466 15.664-2.559 23.614-2.86 10.563-.399 21.002.649 31.207 3.348 5.764 1.525 11.52 3.307 16.969 5.687 2.966 1.294 5.632 1.782 8.716 1.316 5.291-.795 10.6-1.485 15.917-2.123 3.211-.385 6.429-.708 9.647-1.031 1.566-.158 3.132-.315 4.697-.479q2.616-.277 5.233-.563h.007l.001-.001h.006c3.699-.402 7.398-.804 11.102-1.145 4.172-.385 8.351-.699 12.529-1.013q2.028-.152 4.056-.307a55 55 0 0 1 3.479-.143c2.281-.029 3.685.961 3.737 2.596.051 1.613-1.544 3.146-3.55 3.315-1.958.161-3.918.307-5.878.453h-.012l-.001.001h-.008c-2.173.162-4.345.323-6.516.506l-3.728.31c-6.662.554-13.324 1.107-19.981 1.744-6.314.605-12.617 1.338-18.916 2.075-1.775.208-3.542.486-5.415.78-.892.14-1.809.284-2.762.426.247.2.456.375.642.53l.002.002c.343.287.609.508.889.708 8.664 6.145 16.251 13.471 23.434 21.255.561.605 1.628 1.122 2.423 1.071 4.627-.294 9.25-.681 13.871-1.069q1.973-.166 3.946-.328 1.232-.102 2.463-.215c1.117-.101 2.234-.201 3.352-.284l.663-.049.982-.073h.001c3.579-.266 7.157-.532 10.74-.706.623-.03 1.525.396 1.852.898.443.682.781 1.727.586 2.464-.414 1.562-1.785 2.336-3.325 2.464-3.035.25-6.074.455-9.112.66h-.001l-.004.001h-.012l-.003.001h-.011l-.001.001h-.007c-1.753.118-3.507.236-5.259.364-4.195.304-8.39.608-12.577.971-1.118.099-2.228.279-3.2.438-.405.066-.786.128-1.134.178q1.88 3.005 3.765 6.005l.003.005.002.003c3.704 5.901 7.406 11.797 11.014 17.751.942 1.555 1.918 1.793 3.535 1.639 3.537-.336 7.088-.558 10.638-.779h.002l2.131-.134c1.415-.092 2.57.385 2.922 1.907.374 1.62-.385 2.827-1.822 3.388-1.104.432-2.362.55-3.561.649-2.266.184-4.538.327-6.866.473h-.004q-1.42.088-2.872.183a36 36 0 0 1 .221.637l.001.002c.12.348.22.641.335.927l1.675 4.131.014.036.015.037.015.037c2.566 6.335 5.132 12.669 7.752 18.98.246.59.994 1.202 1.621 1.353 1.342.33 2.721.847 2.816 2.196.046.663-.357 1.35-.766 2.047-.213.362-.427.727-.58 1.092a11 11 0 0 1-.128.295c-.227.513-.479 1.081-.359 1.516 3.699 13.567 5.855 27.353 5.965 41.43.11 14.38-1.811 28.383-8.151 41.51-.119.244-.178.519-.235.788q-.039.187-.085.364m-45.634-57.85c.326.94.653 1.883.994 2.824l-.004.003c-1.625.785-3.204 1.531-4.747 2.26-3.283 1.551-6.4 3.023-9.447 4.63-6.336 3.34-11.733 7.887-16.122 13.563-.479.618-.778 1.37-1.077 2.125-.177.446-.354.893-.569 1.314-3.08 6.017-4.034 12.518-4.151 19.151-.213 12.159-.356 24.318-.326 36.476.011 4.257.458 8.496 3.457 12.045 1.177 1.39 2.314 2.428 4.034 3.172 4.81 2.083 9.746 1.613 14.6.829 2.7-.436 5.342-1.234 7.983-2.033l.001-.001c1.164-.352 2.328-.704 3.497-1.024l.179-.048c.244-.065.536-.142 1.056-.282-.071.237-.121.456-.167.657-.088.386-.16.702-.339.941-1.942 2.597-3.9 5.184-5.858 7.771l-.003.003-.003.004-.002.003-.003.003-.002.004-.003.003-.002.004-.003.003-.002.003-.003.004-.003.003-.002.004-.003.003-.002.003-.003.004-.002.003-.003.003-.003.004-.002.003-.003.004q-2.06 2.72-4.114 5.446a79 79 0 0 0-1.47 2.037c-.852 1.206-1.704 2.412-2.663 3.525-.96 1.115-2.13 2.292-3.454 2.816-8.675 3.443-17.721 5.463-27.001 6.376-3.399.334-6.831.598-10.237.503-3.586-.103-7.22-.389-10.711-1.144-2.089-.451-4.057-1.674-5.932-2.841l-.004-.002-.003-.002-.004-.002-.003-.002-.004-.003-.003-.002-.004-.002-.004-.002-.125-.079-.22-.136c-.587-.363-1.049-1.793-.811-2.468 1.185-3.388 2.384-6.809 4.015-9.995 5.009-9.794 8.159-20.086 9.391-31.027 1.433-12.753.55-25.385-1.654-37.954-3.073-17.512-8.815-34.137-16.749-50.039-6.714-13.46-14.898-25.945-24.816-37.231-8.056-9.171-17.135-17.248-27.706-23.449-8.624-5.056-17.853-8.627-27.954-9.1-7.825-.367-15.268 1.25-22.066 5.423-4.972 3.05-8.918 7.124-12.65 11.63q.192-.413.38-.827c.297-.652.594-1.304.929-1.937.513-.972 1.081-1.918 1.65-2.857a120.7 120.7 0 0 1 23.378-28.006c9.882-8.737 20.644-16.228 32.553-21.923 7.623-3.644 15.785-5.045 24.229-4.268 12.903 1.185 24.464 6.102 35.149 13.171 11.832 7.828 22.158 17.354 31.357 28.16 10.938 12.848 20.145 26.851 27.471 41.991 3.945 8.152 7.445 16.522 10.945 24.891 1.231 2.942 2.461 5.884 3.711 8.816.843 1.977 1.549 4.013 2.258 6.06v.002h.001v.002l.001.001v.002l.001.001v.002h.001zm-194.245-.807-.01.004c-.956.378-1.953.771-3.008 1.192v-.004c.192-1.725.371-3.423.548-5.103.394-3.724.777-7.355 1.26-10.971 1.1-8.276 3.179-16.346 6.361-24.039 3.44-8.32 7.642-16.276 15.166-21.78 6.651-4.869 14.149-7.08 22.403-6.34 11.334 1.02 21.025 5.907 29.858 12.826 13.471 10.546 23.855 23.705 32.497 38.317 6.179 10.439 11.107 21.483 14.828 33.022 5.255 16.284 8.217 32.945 7.227 50.131-.223 3.894-.81 7.777-1.452 11.63-.401 2.419-.946 4.814-1.491 7.209l-.001.005-.001.005-.001.005-.002.004-.001.005c-.243 1.071-.487 2.141-.717 3.214-.074.337-.125.674-.011 1.034 5.181-11.88 5.514-24.453 5.173-37.488 3.751 15.249-2.2 43.648-12.811 60.474.022-.47.032-.941.043-1.413v-.001c.024-1.064.048-2.13.195-3.177.144-1.024.412-2.03.697-3.104.129-.486.262-.986.389-1.508-2.31 3.344-3.22 6.805-2.637 10.618.602 3.927 3.201 6.553 6.487 9.361-12.408.041-23.911-2.181-35.164-5.687-18.846-5.87-35.64-15.356-50.057-29.069l1.431-.485.685-.232c1.98-.672 3.919-1.329 5.859-1.982 10.736-3.615 16.603-11.308 18.498-22.245 1.236-7.125.363-14.161-1.455-21.062-3.487-13.229-9.787-24.97-19.195-34.958-4.18-4.44-8.863-8.286-14.641-10.439-6.945-2.585-13.996-3.278-21.076-.33-1.883.784-3.78 1.534-5.872 2.36zm206.759-1.321-.858.321v-.022a227 227 0 0 1-.998-2.808l-.001-.002c-.686-1.957-1.353-3.863-2.143-5.715l-1.882-4.421c-3.984-9.365-7.97-18.733-12.139-28.018-4.261-9.49-9.677-18.37-15.503-26.961-5.76-8.489-12.104-16.544-19.202-23.991-6.124-6.428-12.639-12.408-19.811-17.626-12.628-9.185-26.305-15.91-42.138-17.351-.728-.066-1.463-.07-2.196-.074l-.733-.006c-.594-.008-1.188-.005-1.782-.003l-.891.003-.074-.525q1.798-.38 3.595-.767h.004l.001-.001h.004l.001-.001h.004l.001-.001h.004v-.001h.001c2.701-.579 5.401-1.158 8.111-1.693 10.722-2.112 21.571-3.098 32.454-2.211 15.345 1.254 30.206 4.558 43.644 12.537 8.98 5.335 16.827 12.103 24.112 19.554 9.009 9.214 16.643 19.485 23.174 30.565 10.435 17.707 17.889 36.594 22.091 56.742 2.949 14.15 3.975 28.431 2.725 42.827-1.24 14.263-6.16 27.309-13.545 39.497-5.229 8.631-10.637 17.186-17.611 24.479-3.815 3.99-8.165 7.477-12.503 10.954l-.002.001-.001.002-.002.001-.001.001-.001.001-.002.001-.001.001-.001.001-.002.001-.001.001-.002.001c-.993.797-1.987 1.593-2.973 2.395-1.578 1.284-3.343 2.339-5.108 3.393l-.001.001h-.001l-.001.001-.001.001h-.001l-.001.001-.001.001h-.001l-.001.001-.001.001h-.001l-.001.001-.001.001h-.001l-.001.001h-.001l-.001.001-.001.001c-.754.45-1.508.9-2.247 1.369-.492.312-1.02.565-1.83.539q.587-.803 1.171-1.609l.005-.006.005-.007.004-.005.001-.001.001-.001v-.002l.001-.001.001-.001.001-.001.001-.001v-.001l.001-.001.001-.001a285 285 0 0 1 2.408-3.283q2.037-2.718 4.083-5.432 2.2-2.918 4.39-5.843c.12-.159.252-.319.384-.48.434-.529.879-1.071.98-1.661.369-2.165 1.877-2.975 3.598-3.899l.032-.017c9.677-5.196 17.916-12.155 23.87-21.399 2.607-4.048 4.551-8.675 6.025-13.284 4.73-14.813 4.62-29.96 2.02-45.129-.906-5.288-2.999-10.179-6.919-14.051-.378-.373-.916-.585-1.455-.797a10 10 0 0 1-.763-.325c-4.426-2.207-8.833-1.173-13.16.224-2.109.68-4.168 1.521-6.228 2.363h-.001v.001h-.001c-.937.383-1.874.766-2.816 1.134-.45.175-.903.343-1.364.515m-42.743 61.458-.274.107-.007-.004c.071-2.283.124-4.569.178-6.854.121-5.163.242-10.326.562-15.476.514-8.253 4.485-14.677 11.723-18.674 6.398-3.527 13.013-6.673 19.627-9.79 3.928-1.85 7.936-3.533 11.944-5.216l.007-.003.006-.003.007-.002q1.83-.767 3.656-1.541a19 19 0 0 1 3.311-1.052c4.213-.913 6.428.271 7.766 4.429 2.578 8.019 3.476 16.306 3.63 24.691.004.231-.051.459-.205.715a119 119 0 0 1-.303-2.345c-.569-4.635-1.14-9.29-4.885-13.088.297.929.607 1.828.912 2.71v.001c.657 1.904 1.288 3.73 1.698 5.602 1.386 6.303 1.881 12.686.602 19.074-1.515 7.546-4.745 14.329-9.526 20.357-7.323 9.225-16.904 14.582-28.487 16.368l-.829.129-.019.003c-3.579.561-7.204 1.13-10.786.165-1.368-.367-2.838-1.214-3.74-2.284-2.754-3.267-3.747-7.286-4.312-11.455-.219-1.626-.612-3.226-1.005-4.825a251 251 0 0 1-.337-1.39c-.03-.131-.214-.225-.4-.32a2 2 0 0 1-.242-.135l-.136.053zm-114.949 2.296-.499.092v-.004c-.029 5.892-.902 11.616-4.073 16.698-5.295 8.488-14.278 9.834-22.851 6.23-7.898-3.319-13.735-9.193-18.817-15.877-6.391-8.411-11.008-17.725-13.695-27.947-2.09-7.942-2.981-15.983-.968-24.101 1.595-6.424 4.887-11.591 11.271-14.168 5.654-2.281 11.081-.994 16.262 1.606 8.679 4.356 14.835 11.41 20.104 19.319 4.668 7.007 8.305 14.553 10.373 22.723.887 3.497 1.48 7.072 2.073 10.646v.001c.264 1.596.529 3.192.82 4.782m114.984 1.081-.231-.012-.239-.013q-.001 2.183-.01 4.364v.006c-.011 3.49-.023 6.978.032 10.465.04 2.497.3 4.947 2.024 7.051.572.699.835 1.668 1.09 2.605l.078.288.089.316c.07.242-.05.539-.171.836-.057.14-.114.279-.151.414-.097-.094-.205-.182-.313-.27-.23-.187-.461-.375-.586-.617-.392-.77-.739-1.561-1.088-2.354l-.002-.005-.002-.005-.002-.005-.091-.205-.261-.59-.064-.144c-.433.382-.492.616-.47.84.422 3.791 4.14 7.143 8.5 7.407 7.08.429 13.812-1.243 20.364-3.751.407-.158.921-.796.899-1.181-.129-2.145 1.169-2.996 2.904-3.612.486-.172.958-.39 1.43-.608.642-.296 1.282-.591 1.954-.77.737-.198 1.775-.242 2.354.139 1.584 1.038 2.904.733 4.404-.132 5.36-3.095 10.391-6.629 14.751-11.04 6.889-6.978 11-15.389 12.826-24.996 1.991-10.479 2.214-20.995.814-31.544-.682-5.141-1.713-10.117-4.734-14.612-2.119-3.153-8.136-4.165-11.319-2.31 1.442 1.153 3.058 1.037 4.653.921.895-.064 1.784-.129 2.633.032l.026.157.03.169.007.039v.001l.034.2.027.16c-1.36.385-2.717.77-4.172 1.185 3.226 5.063 3.93 10.879 4.491 16.698.301 3.094.36 6.222.363 9.335.008 7.81-.806 15.539-3.85 22.792-1.859 4.422-4.004 8.789-6.581 12.826-1.847 2.892-4.103 5.526-6.355 8.155l-.001.001-.001.001-.001.002-.001.001-.001.001-.001.001-.001.001-.001.002-.001.001-.001.001-.001.001-.001.001-.001.002-.001.001-.001.001-.001.001-.001.001-.001.001c-.68.794-1.36 1.587-2.028 2.388-1.059 1.272-1.899 1.114-2.687-.239-6.501 4.199-13.56 7.216-20.834 9.765a3.6 3.6 0 0 0-.957.55c-.233.179-.468.422-.701.663-.458.473-.908.937-1.316.899-3.454-.327-6.82-1.394-9.343-3.773-3.329-3.139-6.145-6.725-6.739-11.591-.207-1.692-.585-3.364-.964-5.036v-.001c-.172-.757-.343-1.513-.498-2.271M245.991 375.41a82 82 0 0 1 2.728-.98c1.845-.64 3.574-1.238 5.15-2.113 7.421-4.117 11.931-10.446 13.347-18.857 1.628-9.68-.202-18.975-3.462-28.039-3.567-9.922-8.807-18.902-15.964-26.686-6.971-7.579-15.114-12.867-25.865-13.024-3.399-.052-11.367 2.053-13.537 3.721.643.029 1.307.039 1.985.049h.001c1.537.022 3.141.045 4.705.3 6.809 1.111 12.364 4.722 17.336 9.291 8.566 7.876 14.575 17.508 18.902 28.215 3.348 8.283 5.364 16.874 5.023 25.887-.216 5.76-1.334 11.326-4.766 16.1-1.017 1.413-2.246 2.673-3.589 4.051h-.001c-.642.659-1.31 1.344-1.993 2.085m157.789-81.18q-.32.113-.663.24v.004c-.069-5.101-1.974-9.507-3.862-13.873a119 119 0 0 1-1.546-3.683c-3.267-8.287-6.575-16.584-10.443-24.596-3.63-7.517-7.843-14.769-12.1-21.96-6.937-11.715-15.605-22.132-24.93-32.002-7.029-7.44-14.905-13.864-23.507-19.43-6.486-4.198-13.207-7.931-20.533-10.377-2.938-.981-5.98-1.654-9.02-2.327-1.312-.29-2.624-.581-3.927-.896-.34-.082-.688-.136-1.037-.189q-.245-.037-.488-.078.006-.278.007-.554.415-.001.831-.007c.585-.007 1.169-.014 1.754.011 10.3.432 19.939 3.241 29.106 7.909 14.986 7.63 27.346 18.487 38.353 31.016 10.934 12.448 19.958 26.176 27.566 40.883 5.233 10.109 9.644 20.556 13.314 31.314 1.461 4.281 2.697 8.646 3.932 13.004l.34 1.2c.761 2.685.675 2.724-1.892 3.904l-.019.009c-.393.179-.801.324-1.236.478m-201.45-4.321c-.073 1.621-.388 2.116-2.24 3.098q-.077-.426-.158-.84c-.121-.632-.239-1.246-.319-1.866-1.441-11.399-1.554-22.795.47-34.14 1.734-9.728 4.843-18.96 10.996-26.858 8.404-10.78 19.477-15.411 33.114-13.996 9.207.957 17.438 4.481 25.219 9.247 9.933 6.083 18.352 13.908 25.663 22.957-.525-.55-1.044-1.107-1.563-1.663v-.001h-.001v-.001l-.001-.001h-.001v-.001h-.001v-.001h-.001v-.001h-.001v-.001c-1.143-1.225-2.286-2.451-3.495-3.61-9.643-9.247-19.921-17.493-33.278-20.808-8.481-2.108-16.863-2.02-24.879 1.709-6.343 2.951-11.319 7.63-14.956 13.618-1.056 1.741-1.972 3.565-2.888 5.391-.452.9-.904 1.8-1.373 2.69-7.421 14.117-9.61 29.429-10.307 45.078m124.034 114.632-.001.003-.001.002-.001.002-.004.011c-.498 1.159-.996 2.321-1.512 3.479h-.011c-1.034-.59-1.507-1.767-1.13-2.97.196-.62.385-1.245.575-1.871l.001-.003c.784-2.587 1.574-5.191 2.831-7.531 8.11-15.099 10.827-31.273 10.035-48.187-.575-12.328-2.742-24.384-6.167-36.238a179 179 0 0 0-13.6-33.763c-5.47-10.395-11.872-20.185-19.418-29.234-6.446-7.729-13.556-14.736-21.645-20.72-8.488-6.278-17.717-11.14-28.156-13.134-10.329-1.973-20.247-.624-29.135 5.39-4.646 3.138-8.375 7.241-11.385 12.004-5.665 8.969-8.368 18.884-9.68 29.301-1.368 10.882-.781 21.699.674 32.508.048.345.041.697-.377 1.089-.14-1.091-.292-2.181-.444-3.27-.322-2.308-.644-4.615-.851-6.934-1.217-13.673-.66-27.229 3.209-40.491 2.478-8.496 6.416-16.258 12.683-22.623 6.42-6.52 14.289-10.168 23.422-10.813 10.784-.763 20.622 2.508 29.972 7.538 10.384 5.585 19.22 13.142 27.232 21.7 10.289 10.992 18.7 23.345 25.641 36.659 7.913 15.176 13.772 31.126 17.215 47.942 2.739 13.368 3.993 26.836 2.776 40.45-1.012 11.312-4.136 22.041-9.321 32.183-1.25 2.446-2.336 4.978-3.427 7.521m85.828-113.868-.093-.082-.093-.082-.082-.072v-.004c.119-.16.227-.345.335-.531.231-.397.462-.794.802-.939.882-.376 1.76-.763 2.639-1.15 4.657-2.052 9.324-4.108 14.503-4.478 3.545-.25 6.724.469 9.251 3.523 3.395 4.111 4.689 8.943 5.452 13.948 1.892 12.419 1.844 24.86-.858 37.162-1.951 8.888-5.859 16.9-11.836 23.863-5.482 6.383-12.074 11.315-19.448 15.268-.275.147-.576.245-.895.348-.157.052-.319.104-.484.165-.755-1.558-.517-2.464 1.049-3.278 6.765-3.513 12.874-7.968 17.963-13.669 6.651-7.451 10.325-16.269 11.92-26.103 1.353-8.327 1.548-16.673.972-25.033-.385-5.602-1.107-11.249-3.436-16.423-2.368-5.258-6.13-8.616-12.525-7.124-3.046.709-6.014 1.748-8.983 2.787l-.002.001h-.001l-.002.001h-.002l-.002.001-.001.001h-.002l-.002.001h-.002l-.001.001-.002.001h-.002l-.001.001h-.002l-.002.001-.002.001h-.001l-.002.001h-.002c-1.223.428-2.446.857-3.674 1.261-.494.164-.975.367-1.455.569q-.36.154-.723.3l-.113-.099zm-15.733 90.494c1.142-.307 2.291-.616 3.45-.915l.003.004c.932 1.639.506 2.511-1.279 3.135-6.446 2.258-13.032 3.71-19.881 3.696-5.863-.015-11.037-4.265-11.466-10.076-.374-5.068-.367-10.168-.359-15.264v-.001c.002-1.493.004-2.985-.004-4.477-.032-6.515.002-13.027.035-19.541v-.072l.013-2.559c.037-7.33 1.43-14.436 5.159-20.731 2.435-4.107 5.955-7.491 10.003-10.263 5.325-3.647 11.125-6.338 16.934-9.033l.834-.387c.174-.081.367-.122.569-.166q.153-.031.311-.072c.548 1.372-.355 1.793-1.256 2.212l-.012.006c-.859.399-1.726.784-2.593 1.168h-.001v.001c-1.927.854-3.853 1.708-5.689 2.725l-1.591.875-.006.004c-3.481 1.91-6.981 3.83-10.122 6.209-3.938 2.977-7.025 6.798-8.8 11.641-1.544 4.217-2.101 8.555-2.211 12.918-.308 12.272-.407 24.548-.447 36.824-.008 2.6.106 5.387 1.015 7.759.95 2.475 2.314 4.884 5.376 5.999 4.792 1.741 9.485 1.334 14.219.33 2.603-.552 5.175-1.244 7.778-1.944h.001l.001-.001h.001l.004-.001.006-.002h.003zm9.387-4.961.292.229-1.365 2.722-.486.971-.663 1.324-.029.057-.01.02-1.678 3.35c0-.469.012-.927.024-1.375.026-.961.051-1.88-.05-2.783l-.017-.161c-.31-2.827-.312-2.845 2.47-4.004.294-.121.595-.225.897-.329l.001-.001.003-.001.438-.153zm-195.292.225c1.811-.773 3.025-2.002 3.252-3.765l.004-.004c.044-2.138-1.195-2.985-3.04-2.207a3444 3444 0 0 1-8.181 3.427c-8.035 3.359-16.07 6.717-24.03 10.246-15.54 6.889-30.525 14.868-45.071 23.672-16.885 10.219-32.952 21.552-47.736 34.668-1.511 1.342-2.065 2.966-2.336 4.767-.084.557.3 1.323.722 1.745.173.172 1.111-.18 1.518-.513a162 162 0 0 0 3.158-2.68l.002-.001v-.001c1.588-1.37 3.175-2.741 4.837-4.014 1.68-1.284 3.353-2.577 5.026-3.87l.004-.003.005-.004c5.854-4.523 11.709-9.047 17.809-13.217 8.099-5.533 16.467-10.717 24.992-15.576 9.639-5.492 19.4-10.853 29.447-15.546 9.181-4.286 18.527-8.219 27.873-12.151l.006-.002c3.917-1.648 7.834-3.297 11.739-4.971m-89.316-152.636c.165-2.394 1.086-3.835 2.736-4.932 11.311-7.549 22.935-14.597 35.075-20.716 10.879-5.486 21.85-10.799 32.952-15.815 6.552-2.961 13.252-5.602 19.948-8.243h.002v-.001h.002l.001-.001h.001l.001-.001q3.124-1.228 6.24-2.471c.183-.073.373-.159.567-.245l.001-.001h.001c1.232-.552 2.624-1.176 3.549.686.781 1.565-.627 4.114-2.574 4.876-1.158.453-2.322.888-3.487 1.324h-.002v.001h-.002v.001h-.003c-2.032.76-4.064 1.52-6.058 2.37-2.69 1.148-5.387 2.282-8.084 3.416h-.001c-7.984 3.357-15.971 6.715-23.793 10.415-10.358 4.902-20.53 10.241-30.562 15.789-5.322 2.943-10.478 6.185-15.635 9.428v.001h-.001c-2.282 1.435-4.565 2.871-6.862 4.28-.162.1-.319.21-.476.32-.296.208-.592.415-.918.549l-.216.091c-.552.234-1.227.52-1.569.32-.37-.217-.562-.738-.701-1.114-.049-.132-.091-.246-.132-.323zm99.096-79.786c1.767-.723 2.552-2.167 2.904-3.788h.004c.025-1.841-1.331-2.647-3.297-1.863-2.488.993-4.981 1.974-7.474 2.954-7.286 2.865-14.571 5.73-21.72 8.904-9.793 4.345-19.396 9.127-28.966 13.952-12.856 6.483-25.234 13.805-37.195 21.839-1.566 1.052-2.372 2.453-2.548 4.194-.07.682.3 1.566.773 2.072.217.235 1.258-.077 1.771-.392.988-.61 1.954-1.257 2.919-1.903 1.217-.815 2.433-1.629 3.692-2.369 2.233-1.314 4.459-2.641 6.685-3.968 6.478-3.863 12.956-7.726 19.609-11.26 10.179-5.412 20.522-10.556 31.031-15.286 7.272-3.274 14.687-6.229 22.102-9.185l.002-.001c3.24-1.291 6.48-2.583 9.708-3.9m150.308-8.306c-.15-1.826 1.016-2.775 2.622-3.105 2.742-.561 5.514-.968 8.286-1.357 4.1-.576 8.203-1.122 12.317-1.599 6.413-.744 12.829-1.433 19.25-2.115l2.301-.246.015-.001.016-.002h.005c4.431-.474 8.863-.948 13.301-1.332 7.044-.608 14.098-1.144 21.153-1.639 2.123-.15 3.502.924 3.604 2.523.114 1.778-1.459 3.241-3.567 3.395q-3.42.25-6.84.489c-5.984.421-11.969.842-17.943 1.4-5.914.552-11.815 1.246-17.715 1.941h-.005v.001h-.007q-3.018.357-6.037.705c-6.585.759-13.174 1.522-19.752 2.343-2.177.271-4.34.648-6.502 1.024l-1.239.215c-2.035.349-3.267-.59-3.263-2.64m.523-32.394c.227 1.389 1.294 2.152 2.651 2.189q1.406-.224 2.782-.453c2.071-.341 4.102-.675 6.143-.944 4.012-.53 8.031-1.02 12.05-1.509q2.107-.256 4.215-.515 1.922-.239 3.842-.486c3.235-.413 6.469-.827 9.714-1.15 3.979-.397 7.966-.718 11.954-1.04h.001q2.472-.198 4.944-.404l6.06-.513h.004c5.01-.425 10.019-.85 15.031-1.247 2.097-.165 3.784-1.559 3.729-3.264-.056-1.664-1.951-2.849-4.147-2.636l-.801.077h-.001c-4.569.44-9.139.88-13.711 1.265-3.098.26-6.197.501-9.296.742h-.008c-2.956.23-5.911.46-8.864.706-1.262.105-2.52.265-3.779.426-.727.093-1.455.185-2.183.267q-4.973.561-9.944 1.1c-1.006.109-2.013.21-3.02.312-1.951.198-3.902.395-5.846.642a499 499 0 0 0-12.775 1.76c-2.266.348-4.543.759-6.739 1.393-1.471.425-2.255 1.767-2.006 3.282M86.303 315.946c.095-2.383.737-3.949 2.317-5.21 2.498-1.994 4.958-4.039 7.419-6.084 4.745-3.943 9.49-7.886 14.5-11.458 9.548-6.805 19.477-13.097 29.443-19.286 4.947-3.072 10.098-5.817 15.248-8.56v-.001h.002v-.001h.001l.001-.001h.001l.001-.001h.001q2.334-1.242 4.659-2.495c.664-.359 1.98-.462 2.405-.059.503.473.741 1.823.418 2.442-.641 1.24-1.532 2.6-2.691 3.282-3.962 2.333-7.962 4.606-11.962 6.878v.001c-6.767 3.844-13.532 7.688-20.114 11.825-8.015 5.036-15.658 10.695-23.279 16.338h-.001l-.037.027-1.499 1.11c-3.3 2.443-6.45 5.091-9.601 7.74h-.001v.001a384 384 0 0 1-4.995 4.15c-.32.26-.736.403-1.15.547a8 8 0 0 0-.555.205l-.382-.995-.153-.399.003.004Zm146.812-149.798c-1.818.62-2.673 2.009-2.9 3.846l.004.004c-.03 1.771 1.144 2.585 2.9 2.02 2.675-.861 5.345-1.742 8.014-2.623 6.065-2.002 12.13-4.004 18.261-5.781 7.903-2.291 15.847-4.442 23.791-6.592v-.001h.004v-.001c4.805-1.3 9.609-2.601 14.405-3.933 1.543-.429 3.116-1.045 4.414-1.95 1.071-.748 1.463-2.16.715-3.454-.663-1.152-1.778-1.383-3.032-1.023a5 5 0 0 1-.476.099 5 5 0 0 0-.422.084q-3.677.96-7.358 1.906l-.003.001c-5.918 1.525-11.836 3.05-17.719 4.704-8.492 2.387-16.933 4.961-25.359 7.575-3.752 1.162-7.468 2.444-11.185 3.727h-.001q-2.025.7-4.053 1.392m70.547-50.244c.029 1.745-1.368 3.281-3.366 3.806a1557 1557 0 0 1-9.049 2.319h-.002l-.002.001h-.002c-7.279 1.85-14.558 3.699-21.76 5.809-8.206 2.403-16.345 5.035-24.484 7.666h-.001c-3.505 1.133-7.01 2.266-10.521 3.381q-.2.065-.402.135c-.972.334-1.951.671-2.744-.446-.931-1.313-.458-2.64.371-3.718.561-.73 1.444-1.39 2.317-1.672q3.678-1.191 7.352-2.39c8.903-2.901 17.809-5.803 26.788-8.445 7.703-2.268 15.476-4.287 23.25-6.307 2.836-.737 5.671-1.473 8.504-2.222 2.321-.612 3.721.227 3.751 2.09zM119.816 383.996c-1.587 1.063-2.2 2.526-2.332 4.312-.047 1.925.774 2.434 2.457 1.503.28-.154.547-.33.815-.506v-.001c.191-.126.383-.252.578-.369 2.867-1.736 5.719-3.498 8.57-5.259 6.595-4.075 13.188-8.149 19.964-11.894 5.833-3.223 11.817-6.17 17.802-9.117h.001l.004-.002c3.811-1.877 7.622-3.753 11.395-5.702 1.213-.627 2.156-2.042 2.852-3.296.323-.583-.018-1.837-.495-2.446-.286-.366-1.433-.198-2.152-.058-.613.118-1.204.414-1.78.703l-.244.122q-2.75 1.362-5.503 2.72l-.006.002c-4.995 2.465-9.991 4.93-14.947 7.471-12.757 6.538-25.069 13.838-36.979 21.817m-34.324-35.167c.125-3.201 1.903-4.873 3.78-6.465 11.243-9.537 22.877-18.553 35.38-26.389 6.806-4.264 13.684-8.415 20.57-12.543.594-.356 1.903-.51 2.193-.169.48.565.785 1.797.48 2.405-.645 1.287-1.492 2.772-2.673 3.451-16.353 9.427-32.068 19.796-46.834 31.566-2.125 1.693-4.185 3.471-6.245 5.248-1.357 1.17-2.713 2.34-4.088 3.486-.506.422-1.375.972-1.793.796-.365-.154-.55-.736-.669-1.112-.038-.119-.069-.217-.097-.274zm99.015-124.711c1.763-.862 3.219-2.039 3.182-4.576l.004.004c.004-1.918-1.137-2.402-3.513-1.236-2.543 1.247-5.096 2.477-7.648 3.707-5.629 2.712-11.257 5.424-16.786 8.32-7.165 3.752-14.158 7.835-21.144 11.914l-.977.571c-1.045.608-1.878 1.91-2.34 3.08-.216.548-.039 1.254.137 1.958.078.313.157.625.201.924q.368-.068.738-.13a24 24 0 0 0 1.766-.347c.225-.058.429-.198.634-.338.106-.072.211-.144.319-.205 2.218-1.238 4.427-2.493 6.636-3.748l.003-.002c5.004-2.843 10.006-5.685 15.108-8.335 5.107-2.653 10.302-5.136 15.497-7.619l.001-.001h.001v-.001h.001c2.73-1.305 5.461-2.61 8.18-3.94m173.635-89.261c1.635-.169 2.775.502 3.175 2.097.326 1.298-1.298 3.3-2.988 3.663-2.036.44-4.088.816-6.138 1.191l-.002.001q-.867.158-1.733.319-3.216.596-6.434 1.181h-.003l-.001.001h-.004c-4.188.764-8.375 1.528-12.551 2.345-2.741.535-5.474 1.115-8.206 1.694l-.001.001c-2.619.555-5.237 1.11-7.864 1.627l-.029.006c-1.2.237-2.617.517-3.326-1.033-.609-1.338 0-3.457 1.459-4.088 1.709-.737 3.564-1.192 5.394-1.58 5.768-1.225 11.546-2.417 17.34-3.52 4.926-.938 9.862-1.823 14.796-2.708l.008-.001q3.1-.555 6.198-1.116c.208-.038.422-.052.636-.065q.137-.008.274-.019zm-43.705-18.358.002.002h-.004zm.35-.328-.35.328c-.209-.23-.455-.451-.7-.673-.542-.487-1.083-.975-1.234-1.565-.407-1.573.487-2.97 1.958-3.527 1.821-.689 3.764-1.091 5.684-1.488l.094-.019a1149 1149 0 0 1 17.252-3.451c3.239-.618 6.489-1.189 9.739-1.761q2.177-.382 4.352-.769 1.003-.178 2.008-.348c1.418-.243 2.837-.485 4.244-.781 2.247-.477 3.538-.055 3.938 1.43.469 1.742-.756 3.733-2.71 4.121-2.11.42-4.231.789-6.351 1.157h-.001c-1.402.244-2.803.488-4.201.746l-2.937.543h-.001c-4.324.798-8.65 1.596-12.96 2.46-3.446.691-6.881 1.427-10.317 2.163-2.016.432-4.032.865-6.051 1.288-.319.066-.65.088-.98.11q-.239.014-.476.036M129.052 250.536c.055 2.512-.873 3.92-2.413 5.024q-3.427 2.449-6.862 4.891l-.002.001c-6.453 4.591-12.906 9.184-19.272 13.896-2.525 1.869-4.906 3.934-7.288 6-1.309 1.134-2.618 2.269-3.95 3.372-.308.254-.724.379-1.14.503-.19.057-.379.113-.558.182-.071-.189-.162-.378-.253-.567-.197-.411-.395-.821-.392-1.233.01-2.695 1.676-4.462 3.619-6.028a839 839 0 0 0 5.478-4.466v-.001h.001c4.211-3.452 8.421-6.903 12.774-10.163 4.315-3.235 8.799-6.249 13.28-9.262h.001v-.001l.002-.001.001-.001h.001l.001-.001h.001c1.582-1.064 3.164-2.128 4.738-3.201.4-.271 1.247-.491 1.467-.286.379.356.586.896.696 1.181q.042.111.066.161zM85.158 379.669c-.252.491-.5.976-.773 1.423l.003.003c.173.327.309.625.43.89.247.544.43.949.744 1.171.242.169 1.078-.275 1.496-.62a335 335 0 0 0 4.118-3.472l.003-.003c2.434-2.074 4.867-4.148 7.4-6.091 3.048-2.341 6.147-4.617 9.246-6.894l.002-.001.001-.001.001-.001c3.333-2.448 6.666-4.897 9.937-7.425 1.057-.813 1.685-2.267 2.261-3.601l.001-.001v-.001q.097-.228.195-.449c.201-.462-.257-1.478-.723-1.873-.311-.265-1.246-.022-1.771.249-.562.291-1.073.676-1.584 1.062v.001h-.001l-.001.001c-.268.202-.536.404-.812.593-9.863 6.758-19.312 14.058-28.185 22.07-.865.782-1.434 1.89-1.988 2.97m2.736-163.214c.274-.472.516-.981.757-1.489.52-1.098 1.039-2.194 1.883-2.9 5.37-4.497 10.843-8.87 16.316-13.242l.001-.001.001-.001a2521 2521 0 0 0 4.41-3.528c.95-.759 1.955-1.455 2.967-2.126 1.371-.91 2.618-.334 2.306 1.261-.304 1.569-.957 3.458-2.112 4.407-5.013 4.117-10.125 8.111-15.238 12.106l-.003.002c-2.036 1.591-4.073 3.182-6.103 4.781-.38.3-.74.629-1.1.959-.404.371-.81.742-1.246 1.072-.488.367-1.335.935-1.61.763-.342-.213-.544-.65-.8-1.204-.122-.265-.256-.557-.425-.864zm28.346 11.698.001-.002v.004zm-.379-.995c.106.304.223.642.379.995-.256.385-.492.805-.729 1.227-.518.924-1.044 1.862-1.818 2.493-6.948 5.645-13.98 11.189-21.01 16.732l-.014.011-.002.002-.002.001-2.59 2.042c-.33.263-.737.43-1.144.598a11 11 0 0 0-.557.241 9 9 0 0 0-.246-.677c-.195-.493-.388-.986-.373-1.471.062-1.911.883-3.458 2.442-4.69 3.666-2.896 7.322-5.808 10.978-8.719l.003-.003.001-.001.001-.001.001-.001.002-.001.001-.001h.001v-.001c4.018-3.2 8.036-6.4 12.068-9.58.487-.385 1.466-.671 1.917-.432.32.166.482.632.691 1.236m-3.68 165.102c-.26 2.211-1.115 3.637-2.596 4.807-4.19 3.315-8.367 6.648-12.544 9.98l-.003.001-.003.003-.005.004-.009.007-.014.011c-3.38 2.696-6.758 5.391-10.144 8.078-.396.314-.863.541-1.33.769-.22.107-.441.215-.654.331-.07-.26-.177-.531-.283-.802-.234-.599-.469-1.199-.322-1.684.414-1.397.957-3.025 1.995-3.916 5.458-4.679 11.043-9.204 16.63-13.729l.984-.798c1.797-1.456 3.689-2.798 5.607-4.081.524-.349 1.415-.561 1.947-.356.316.124.484.634.611 1.023.047.142.088.268.129.352zm311.059-44.238c3.065-4.481 4.829-9.424 4.803-14.769h.004l-.019-.218-.031-.375-.001-.009c-.03-.369-.057-.692-.089-1.016-.784-8.143-7.476-11.935-14.93-8.495-4.353 2.009-7.678 5.166-10.179 9.174-3.131 5.019-5.078 10.38-4.297 16.459.927 7.205 6.669 10.839 13.497 8.503 4.909-1.679 8.4-5.104 11.242-9.254m2.479-14.575-.003.243-.001.147v.097h.003c-.825 9.031-4.796 16.152-12.888 20.6-3.74 2.057-7.971 1.643-10.252-1.195-1.228-1.526-2.105-3.649-2.339-5.599-1.049-8.738 5.166-19.287 13.2-22.899 6.398-2.875 12.001.605 12.276 7.627.012.325.008.652.004.978zm-182.48 11.979c.289 5.082-.701 9.9-3.447 14.186-1.518 2.369-3.894 3.792-6.71 4.404-5.548 1.199-10.362-.737-14.527-4-11.195-8.775-17.373-20.479-18.719-34.577-.344-3.623-.088-7.535.917-11.015 2.669-9.232 10.842-12.364 19.411-8 6.003 3.058 10.476 7.7 14.187 13.174 5.434 8.023 8.36 16.621 8.888 25.828m-.946 1.272c-.341-9.779-5.284-22.458-12.034-30.275-3.854-4.463-8.151-8.243-13.948-9.944-4.012-1.177-8.459.451-10.773 3.919-3.054 4.573-3.546 9.691-2.992 14.953 1.016 9.673 4.756 18.278 10.784 25.854 3.78 4.748 8.257 8.668 14.263 10.431 5.562 1.632 11.026-.935 12.742-6.24.624-1.935 1.014-3.945 1.403-5.956.177-.916.355-1.832.555-2.742m187.831 5.552 1.014.671.003-.004q.044-.03.089-.057l.101-.058.067-.037c.174-.097.325-.181.33-.27.015-.319-.018-.806-.22-.942a65 65 0 0 0-3.865-2.387c-.19-.106-.641-.037-.784.121-.132.143-.125.671.011.766 1.059.748 2.142 1.463 3.249 2.193zm-28.854-8.529c.799-7.169 3.974-13.285 11.058-16.676 5.742-2.75 10.766.355 11.257 6.746.411 5.321-1.217 10.113-4.877 13.897-1.976 2.042-4.543 3.766-7.164 4.873-4.752 2.002-9.16-.785-10.003-5.874-.092-.554-.131-1.116-.179-1.798v-.002c-.025-.352-.051-.735-.089-1.166zm20.848-7.213c.125-8.151-4.462-11.051-10.307-7.645-5.87 3.421-8.869 8.844-9.089 15.54-.202 6.152 4.774 9.221 9.914 6.27 5.933-3.407 8.951-8.731 9.482-14.165m-8.617-2.794c-3.637 1.848-5.236 5.042-5.69 8.283h.003c-.058 4.452 2.589 6.542 5.896 5.324 3.524-1.298 6.63-6.464 6.12-10.175-.458-3.318-3.373-4.931-6.329-3.432m.279 1.401c2.68-1.368 4.679-.029 4.627 3.102h-.003c-.052 3.234-2.483 6.824-5.244 7.737-2.222.737-3.732-.264-3.938-2.611-.267-3.021 1.856-6.849 4.558-8.228" clip-rule="evenodd"/>
</svg>
