<svg xmlns="http://www.w3.org/2000/svg" width="550" height="550" fill="none" viewBox="0 0 550 550">
    <path fill="#fff" fill-rule="evenodd" d="M140.798 336.581c-.478.274-.971.53-1.463.787-1.088.566-2.176 1.132-3.104 1.892-5.044 3.978-12.021-3.518-11.318-8.801.059-1.416.447-2.537 1.425-3.565 1.031-1.109 2.062-2.198 3.089-3.283l.004-.003c2.637-2.785 5.247-5.542 7.76-8.536-3.884-3.95-7.928-7.672-11.978-11.4l-.001-.001-.001-.001c-2.452-2.257-4.907-4.516-7.33-6.83-1.95-1.82-3.092-4.124-3.577-6.682-.459-2.435.443-4.003 2.583-5.216l1.504-.85.017-.009c1.801-1.018 3.602-2.035 5.397-3.068 2.292-1.319 4.201-1.163 6.169.624 1.343 1.174 2.591 2.358 3.83 3.533 2.029 1.925 4.034 3.827 6.391 5.622.134-2.829.098-5.027.056-7.637v-.004l-.014-.832c-.025-1.255.144-2.41.704-3.606.865-9.528.695-19.224.526-28.912-.105-6.027-.211-12.05-.067-18.029-.114-2.403.952-4.264 2.074-6.222.536-.936 1.085-1.895 1.524-2.946-.402-.379-.879-.691-1.35-.999-1.078-.704-2.118-1.383-2.121-2.785-.15-7.312-.125-14.631-.099-21.948.012-3.371.024-6.741.019-10.111.303-2.22 1.46-4.187 2.614-6.151.719-1.223 1.438-2.444 1.949-3.725 5.367-10.34 12.804-19.723 22.507-26.312 8.21-5.663 17.117-9.941 26.029-14.222l.857-.411c1.854-.891 3.899-1.387 5.946-1.883.933-.227 1.867-.453 2.784-.717l.013-.004c2.62-.754 2.637-.759 2.637-3.501.304-6.299.144-13.264-.022-20.489v-.001c-.479-20.765-1.006-43.673 9.312-59.033 4.298-5.937 9.139-11.629 15.446-15.454 10.997-6.08 24.438-8.111 36.677-4.968 49.861 13.883 85.004 70.262 85.392 120.56.126 10.529.105 21.063-.013 31.596-.025 2.339.742 3.657 2.785 4.799 6.316 3.542 12.578 7.175 18.841 10.809q3.457 2.008 6.92 4.009l7.891 4.558.01.006c9.32 5.384 18.638 10.768 27.988 16.103 1.348.767 1.795 1.601 1.782 3.126a2059 2059 0 0 0-.013 29.721c.135 2.765-1.055 4.916-2.31 7.181v.001c-.467.844-.944 1.704-1.364 2.618.43.312.9.563 1.356.807 1.189.637 2.283 1.222 2.31 2.69-.057 41.747-.025 83.494.006 125.241l.006 7.667.005 6.815c.189 3.807-.967 5.895-2.569 8.787q-.323.582-.667 1.215c-1.033 1.666.034 2.244 1.441 3.006l.168.091c1.26.514 1.648 1.424 1.627 2.772-.055 3.192-.048 6.385-.042 9.578q.005 1.881.004 3.762 0 2.635-.003 5.27c-.005 4.563-.009 9.126.016 13.686.008 1.369-.291 2.587-.957 3.787-.879 1.559-1.722 3.14-2.566 4.72-2.573 4.822-5.145 9.64-8.709 13.832-.729.944-1.491 1.865-2.253 2.786h-.001c-1.029 1.244-2.059 2.488-3.008 3.791-1.639 2.25-3.729 3.884-5.996 5.46-9.636 6.712-19.992 12.135-30.462 17.363-12.771 4.315-26.064 6.832-39.307 9.34q-2.772.524-5.54 1.055c-.926.08-1.87.299-2.817.518-2.214.513-4.441 1.029-6.478-.211a30879 30879 0 0 0-43.638-25.214l-.073-.042c-12.045-6.952-24.09-13.903-36.127-20.867a20260 20260 0 0 1-33.542-19.374l-.005-.003c-18.127-10.485-36.253-20.971-54.432-31.364-1.799-1.02-2.49-2.187-2.473-4.252.055-6.275.055-12.552.056-18.828 0-4.411.001-8.821.02-13.231.194-1.876 1.146-3.563 2.087-5.229v-.001c.409-.725.816-1.446 1.157-2.177.753-1.589-.207-2.123-1.282-2.722-1.063-.592-2.239-1.247-1.987-3.046-.007-8.878-.006-17.759-.005-26.64l.001-8.874-.632-.367zm252.981-126.367-.003-.002c-13.197-7.695-26.377-15.38-39.813-22.691l-.001 3.654c-.003 4.742-.006 9.272.035 13.802 0 .459.383 1.037.758 1.348a138 138 0 0 0 5.473 4.306c4.962 4.086 4.718 10.552 4.486 16.691-.079 2.104-.157 4.169-.024 6.087.058 2.498-.783 4.719-1.626 6.944h-.001v.002c-.2.528-.401 1.057-.589 1.59-.148.413-.518.779-.855 1.091-8.621 9.017-22.352 11.064-34.305 9.278-9.721-1.513-22.154-7.083-22.133-18.476-.115-1.966-.085-3.94-.054-5.913.029-1.93.059-3.86-.047-5.783-.154-2.786.778-5.224 1.716-7.675.195-.51.39-1.021.576-1.535.126-.35.392-.687.678-.935.55-.481 1.088-.985 1.626-1.488 1.357-1.27 2.715-2.542 4.281-3.459 1.757-1.028 2.073-2.182 2.065-3.944-.046-11.704-.063-23.409.013-35.109.012-1.938-.561-3.097-2.305-4.091-9.746-5.509-19.429-11.144-29.11-16.778l-.002-.001v-.001c-12.238-7.122-24.474-14.243-36.835-21.107-1.842-.585-3.341.257-3.363 1.926-.05 4.445-.05 8.894.026 13.339.23 1.556 2.473 3.263 4.202 4.579.514.391.982.747 1.338 1.054 4.963 3.862 4.803 10.854 4.659 17.154v.001c-.044 1.942-.087 3.819.022 5.517.114 2.495-1.453 8.406-3.223 10.032-5.073 5.242-9.754 6.927-16.672 8.798-12.273 2.174-26.641.855-35.927-8.267a10 10 0 0 0-.416-.384c-.399-.355-.803-.715-.983-1.162q-.243-.604-.495-1.206c-.965-2.324-1.931-4.65-1.877-7.28l.029-1.326c.068-3.07.136-6.146-.063-9.203-.126-3.855.893-7.693 2.764-10.934a359 359 0 0 1 4.086-3.268l.001-.001c1.067-.845 2.134-1.69 3.194-2.545q.13-.105.276-.215c.479-.368 1.019-.782 1.068-1.217.248-2.208.337-4.441-.076-6.687-.197 0-.364-.009-.511-.016-.262-.014-.458-.024-.639.024-.912.256-1.829.493-2.745.73-3.225.835-6.447 1.669-9.436 3.29-2.236 1.213-4.527 2.319-6.819 3.425-4.237 2.046-8.474 4.091-12.36 6.809-1.822 1.274-3.672 2.508-5.523 3.743v.001a363 363 0 0 0-4.753 3.208c-1.993 1.42-3.495 3.368-4.985 5.3l-.001.001c-.464.601-.926 1.2-1.402 1.782-5.764 6.653-10.053 14.224-13.6 22.25 31.316 18.359 62.778 36.465 94.242 54.572 24.512 14.107 49.024 28.213 73.469 42.44 1.732 1.007 3.371 1.378 5.33.927 15.45-2.671 30.833-5.654 45.879-10.137 11.393-4.605 22.07-10.984 32.346-17.742 2.68-1.837 5.06-3.834 6.977-6.455 1.111-1.519 2.305-2.977 3.498-4.434l.001-.001c2.359-2.881 4.718-5.762 6.445-9.119 1.293-2.515 2.666-4.99 4.093-7.564l.003-.006c.655-1.18 1.321-2.381 1.996-3.617h-.004c-8.072-4.59-16.077-9.257-24.075-13.921m-41.691 10.748c-.187-10.975-.118-21.952-.048-32.929.101-15.971.202-31.942-.487-47.903-.843-11.97-4.167-23.477-8.566-34.596-12.61-30.142-34.482-58.662-65.627-70.885-6.96-2.78-14.451-5.107-22.014-4.593-7.896.75-16.15 2.06-23.056 6.181-3.514 2.128-6.745 4.787-9.383 8.035-4.66 5.452-9.176 11.22-10.967 18.278-2.857 9.172-3.489 18.707-3.565 28.225-.121 11.883-.097 23.777-.072 35.667v.002c.02 9.959.041 19.915-.024 29.861-.093.526-.426 1.373-.759 1.424-1.012.132-.962-1.078-.922-2.049.014-.355.027-.679-.013-.892-.038-1.166-.016-2.331.007-3.494.042-2.237.085-4.469-.298-6.69-1.409.158-2.237.954-3.035 1.721-.392.377-.777.747-1.22 1.031-2.36 1.516-3.603 3.724-4.378 6.383-2.271 9.888 10.011 15.366 17.881 16.748 11.709 2.047 25.596.893 34.326-8.065 5.583-5.924 1.433-13.975-5.237-17.215-.296 2.251-.274 4.33-.252 6.458v.001c.01.99.021 1.991-.001 3.025-.004 1.079-.24 1.98-1.896 1.951.147-9.606.061-19.224-.025-28.841-.143-16.004-.287-32.008.645-47.96 1.841-19.364 15.8-18.24 29.346-9.846 17.965 10.866 30.841 28.473 38.729 47.694 4.154 10.391 6.673 21.092 6.665 32.334-.06 9.362-.03 18.72.001 28.077v.005c.044 13.748.088 27.494-.153 41.244-1.487-.628-1.672-1.656-1.681-2.773-.012-.887-.008-1.705-.004-2.496.01-1.98.019-3.794-.228-6.124-.616.504-1.23.977-1.831 1.44-2.682 2.066-5.082 3.915-6.115 7.303-1.951 6.484 3.046 11.342 8.212 14.017 6.316 3.523 13.706 4.167 20.848 4.231 7.398-.565 15.016-2.031 20.889-6.999 8.001-6.627 4.934-15.547-3.724-19.444a71 71 0 0 0-.097 2.861c-.071 3.356-.138 6.587-1.871 9.602zm-37.372 251.031c3.99-.81 7.896-1.476 11.765-2.135h.001c6.796-1.157 13.477-2.295 20.301-4.164 1.715-.508 3.485-.826 5.256-1.144a94 94 0 0 0 2.746-.52c2.694-.634 5.319-1.611 7.922-2.58.893-.333 1.784-.664 2.674-.981 2.747-1.501 5.6-2.951 8.481-4.415 10.934-5.556 22.276-11.319 29.772-20.919.96-1.455 2.064-2.814 3.167-4.173 1.211-1.491 2.421-2.981 3.439-4.595 1.548-2.456 2.92-5.023 4.292-7.591l.001-.001c.835-1.563 1.67-3.126 2.546-4.665 2.015-29.067 1.625-58.637 1.235-88.181-.236-17.896-.472-35.783-.174-53.543-.779.514-1.217 1.113-1.542 1.77-4.554 9.016-10.676 17.355-17.767 24.488-1.434.918-2.87 1.848-4.31 2.78-11.298 7.313-22.839 14.784-35.852 18.417-2.795.666-5.572 1.413-8.35 2.16l-.001.001c-3.779 1.017-7.558 2.033-11.38 2.844-5.051.992-10.121 1.879-15.192 2.767q-2.997.522-5.992 1.055-3.181.568-3.19 3.868l.003 12.582v.013c.005 12.575.01 25.15-.028 37.725-.009 2.616.299 5.056 1.399 7.483.952 2.094 1.116 4.386-.375 6.45-.873 1.205-1.016 2.553-1.012 3.994.06 9.579.032 19.146.005 28.71v.002c-.041 14.158-.082 28.31.16 42.489zm-171.607-68.759c-.03-5.615-.061-11.227.128-16.931 42.765 24.512 85.41 49.17 128.068 73.836q20.08 11.613 40.171 23.221c1.272.75 2.498 1.05 3.994.801 16.398-2.73 32.666-6.042 48.626-10.765 10.234-4.432 19.925-10.032 29.266-16.112 4.698-2.684 8.57-6.16 11.616-10.622 1.007-1.479 2.191-2.844 3.383-4.184 2.233-2.368 3.725-5.158 5.218-7.949v-.001c1.332-2.491 2.664-4.982 4.524-7.175.205 5.568.173 11.148.141 16.729-.022 3.903-.045 7.806.014 11.706.009 1.534-.332 2.899-1.082 4.231-.814 1.449-1.598 2.916-2.383 4.384-1.498 2.803-2.995 5.605-4.696 8.277-1.206 1.894-2.631 3.65-4.057 5.407-1.036 1.276-2.072 2.552-3.025 3.883-2.726 3.809-6.236 6.59-10.104 9.198-8.768 5.911-18.075 10.807-27.568 15.366-12.968 4.542-26.637 7.352-40.191 9.657q-1.449.262-2.901.519c-2.256.4-4.513.8-6.76 1.255-1.239.248-2.25.008-3.324-.616-28.328-16.406-56.683-32.764-85.038-49.123q-19.195-11.072-38.383-22.149-6.107-3.526-12.215-7.055l-.021-.013c-10.375-5.995-20.751-11.992-31.149-17.947-1.584-.91-2.322-1.879-2.301-3.817.1-4.709.074-9.362.049-14.011m.501-171.688-.173.078-.326.15c.055 5.832.022 11.573-.012 17.3-.053 9.18-.106 18.322.206 27.736 1.096-.49 2.213-1.205 3.337-1.925 3.153-2.018 6.364-4.073 9.336-1.315 4.193 3.506 4.563 8.574 4.361 13.689l.052 4.039c.052 4.034.103 8.069.176 12.107.033 1.959.194 2.106 2.014 2.54 2.558.475 5.122.928 7.685 1.381l.004.001c2.809.497 5.617.993 8.418 1.517 3.409.518 6.371 3.421 7.445 6.683.197.687.356 1.386.525 2.128q.125.557.267 1.154l.573-.24.01-.004c3.055-1.283 5.146-2.162 7.899.619 1.115.976 2.157 1.981 3.191 2.98 1.904 1.837 3.783 3.652 6.057 5.219.173-2.805.163-4.858.156-6.417-.009-2.17-.015-3.385.48-4.34.63-1.215 2.068-2.009 5.335-3.815 1.282-.709 2.847-1.574 4.756-2.682 5.41-2.692 9.821 5.435 9.691 10.036q.112 5.55.212 11.1.084 4.625.175 9.251c.047 2.427.114 2.503 2.377 2.915l3.57.65.016.002.007.002c3.941.718 7.879 1.435 11.828 2.11 5.422.755 7.571 5.554 8.624 10.378 3.809-1.82 5.827-2.768 9.139.628 1.078.929 2.078 1.908 3.072 2.881l.001.001c1.815 1.777 3.613 3.537 5.834 4.942.004-1.525-.01-2.838-.023-3.977-.042-3.953-.062-5.808.766-7.133.731-1.171 2.124-1.928 4.748-3.355 1.293-.703 2.885-1.568 4.844-2.726 5.638-2.919 10.066 5.351 9.973 10.138q.038 2.57.074 5.143c.074 5.149.147 10.297.242 15.443.038 1.969.091 1.98 1.983 2.376l.082.017c2.526.532 5.07.972 7.627 1.414l.002.001h.001c4.114.712 8.262 1.43 12.421 2.542v-54.496c.072-1.078-.434-1.736-1.352-2.229-25.262-14.548-50.5-29.139-75.738-43.729l-.007-.004c-30.586-17.681-61.171-35.363-91.799-52.971l-.008-.004zm274.573-3.029c-.161-.059-.321-.114-.477-.173-.887 1.512-1.724 3.065-2.561 4.619-1.417 2.63-2.836 5.264-4.504 7.705-1.155 1.418-2.273 2.888-3.393 4.363l-.001.001-.001.001c-2.618 3.445-5.252 6.912-8.424 9.779l-2.432 1.585c-12.716 8.295-25.729 16.783-40.641 20.438-13.019 3.236-26.084 6.207-39.352 8.297-1.959.379-3.56.172-5.317-.847-19.366-11.147-38.703-22.353-58.041-33.559l-.005-.003-.003-.002c-36.504-21.154-73.011-42.308-109.709-63.069-.33 5.855-.276 11.708-.222 17.566.037 4.099.075 8.201-.019 12.306-.008 1.458.578 2.255 1.791 2.946 4.51 2.568 9 5.17 13.49 7.772h.001l.001.001q2.575 1.493 5.152 2.983c23.541 13.605 47.091 27.195 70.642 40.786l.023.013c25.892 14.942 51.784 29.884 77.665 44.846 1.302.754 2.55 1.015 4.003.733 1.564-.302 3.134-.574 4.704-.847 1.195-.208 2.391-.416 3.584-.636 13.12-2.04 25.971-5.25 38.737-8.861 9.885-4.277 19.432-9.594 28.571-15.4 5.363-3.396 9.926-7.411 13.52-12.652 4.233-4.73 7.209-10.252 10.192-15.788l.001-.003a356 356 0 0 1 2.06-3.785 7.84 7.84 0 0 0 1.045-4.002c-.038-3.865-.026-7.731-.014-11.597.017-5.173.033-10.346-.071-15.516zM172.672 337.475c-1.568-3.204-3.135-6.403-4.492-9.848 1.153.031 2.241.265 3.287.49l.001.001c2.19.471 4.2.903 6.243-.647.104-.087.266-.105.45-.125q.136-.012.283-.039c1.104 3.278 2.793 6.206 5.427 8.536q1.811 1.667 3.625 3.324c4.785 4.38 9.555 8.745 14.151 13.357-3.358 3.88-6.691 7.516-10.306 11.11-2.044 1.976-2.309 4.336-1.698 6.662 1.049 3.994 3.472 6.922 7.841 7.735.973.182 1.816.152 2.654-.45.755-.457 1.521-.896 2.286-1.335 3.298-1.894 6.579-3.778 8.922-6.928.145-.183.336-.329.588-.521.135-.104.288-.221.461-.364 2.072 4.038 3.965 8.091 5.858 12.143 1.641 3.512 3.281 7.024 5.038 10.525 1.15 2.313 2.759 4.42 5.747 4.525.661.021 1.415-.118 1.984-.438 1.221-.685 2.424-1.402 3.628-2.119 1.343-.8 2.686-1.6 4.053-2.355 3.51-1.943 4.175-3.982 2.418-7.997-1.221-2.852-2.535-5.556-3.85-8.261-1.503-3.091-3.006-6.182-4.37-9.494 1.135.051 2.223.306 3.272.552 2.191.514 4.212.987 6.132-.514.183-.158.432-.24.726-.338.146-.049.304-.101.471-.168l.16.41.148.38c1.128 2.902 2.21 5.688 4.71 7.712 1.961 1.834 3.932 3.635 5.899 5.433 4.178 3.819 8.339 7.623 12.357 11.682-1.212 1.306-2.373 2.623-3.527 3.93-2.204 2.498-4.38 4.964-6.825 7.265-5.026 4.542.274 14.051 6.464 14.312 1.465.162 2.71-.614 3.926-1.372h.001c.43-.268.857-.534 1.289-.755 3.004-1.559 5.755-3.438 7.879-6.126l.031-.035c.503-.551.698-.765 1.523-1.116 2.651 5.03 5.049 10.203 7.444 15.371v.001l.001.001a783 783 0 0 0 2.996 6.414c1.475 2.87 4.576 6.67 8.09 4.812a174 174 0 0 0 4.113-2.403h.001a181 181 0 0 1 3.967-2.32c3.307-1.858 3.787-3.965 2.153-7.689-1.295-2.973-2.695-5.867-4.096-8.764l-.001-.001c-1.385-2.863-2.772-5.73-4.06-8.679 1.171-.538 2.169-.203 3.023.084l.065.022c3.386 1.269 5.588-.04 8.065-1.514.886-.526 1.807-1.074 2.831-1.532.636 1.946.754 68.234.156 70.986-31.912-17.97-63.614-36.356-95.317-54.743l-.005-.002-.002-.002c-23.882-13.851-47.765-27.702-71.739-41.376-1.568-.889-2.17-1.884-2.157-3.687l.011-1.665.008-1.008v-.001c.071-9.951.143-19.907-.062-29.857-.066-3.376 1.776-5.122 3.908-7.144l.529-.503c2.589 4.717 4.801 9.541 7.023 14.384v.001l.001.001a478 478 0 0 0 3.21 6.9c1.517 3.134 4.723 7.457 8.604 5.393 1.076-.619 2.142-1.255 3.208-1.89v-.001c1.548-.922 3.094-1.844 4.671-2.715 3.261-1.803 3.863-3.931 2.203-7.685-1.163-2.734-2.436-5.333-3.707-7.928m71.563-213.162c.614.039 1.17.007 1.694-.022 1.178-.067 2.197-.124 3.358.645 8.516 4.815 16.962 9.763 25.407 14.711l.001.001c13.72 8.038 27.437 16.074 41.449 23.533.973-15.366-.367-30.795-6.51-45.062-9.602-22.364-26.051-44.981-50.429-51.963-13.386-3.539-15.425 12.585-15.084 22.23.021 4.294.003 8.579-.015 12.861v.002c-.033 7.681-.066 15.354.129 23.064m168.606 301.155c-.813 1.425-1.62 2.839-2.633 4.205-2.539 3.373-5.21 6.646-7.881 9.92l-1.456 1.785c-7.908 6.556-17.11 11.755-26.262 16.487-1.286.609-2.55 1.274-3.813 1.939h-.001c-3.424 1.801-6.85 3.603-10.743 4.317-3.325 1.411-6.87 2.136-10.404 2.859h-.001q-1.094.222-2.184.453c-7.096 1.884-14.328 3.147-21.56 4.411-3.602.629-7.204 1.258-10.79 1.964-1.256.236-2.233-.051-3.299-.67a60077 60077 0 0 1-47.392-27.391l-.037-.021-.023-.014c-39.181-22.66-78.358-45.319-117.66-67.766l-1.662 3.105-.008.014-1.587 2.965c29.608 17.301 59.315 34.424 89.023 51.548l.012.007a27410 27410 0 0 1 55.309 31.937l3.289 1.896 3.053 1.76.002.001c5.926 3.416 11.853 6.831 17.765 10.272 1.285.746 2.507 1.032 3.994.687 15.615-2.638 31.141-5.642 46.343-10.155 10.887-4.293 21.134-10.394 30.993-16.76 3.569-2.452 6.99-4.9 9.413-8.566.524-.794 1.148-1.522 1.772-2.252.393-.46.786-.92 1.156-1.397 5.136-6.02 8.759-13.044 12.168-20.148-.906-.497-1.572-.864-2.448-1.348l-.008.004c-.931 1.307-1.688 2.634-2.439 3.951m2.637-158.875-.515.96v.001c-1.996 3.732-3.815 7.132-6.61 10.343-1.3 1.407-2.466 2.954-3.632 4.502-2.181 2.893-4.363 5.787-7.415 7.763q-1.535.983-3.075 1.973l-.003.002c-10.809 6.949-21.832 14.036-34.16 17.807-2.857.695-5.699 1.456-8.541 2.216-4.166 1.115-8.332 2.23-12.542 3.139-4.965 1.071-9.973 1.935-14.982 2.8H324c-2.753.475-5.506.95-8.252 1.46-1.546.286-2.84.059-4.218-.742a39956 39956 0 0 1-56.166-32.476l-.035-.02c-36.29-21.009-72.578-42.017-108.999-62.814-.737 1.437-1.421 2.766-2.116 4.114l-.732 1.423c29.058 16.956 58.195 33.753 87.335 50.551 17.894 10.315 35.79 20.631 53.668 30.985q5.02 2.896 10.04 5.789a8948 8948 0 0 1 17.317 9.994c1.193.691 2.355 1.075 3.771.813 16.285-2.481 32.27-6.286 48.146-10.642 9.48-4.483 18.783-9.472 27.669-15.135 4.959-3.274 9.387-6.867 12.817-11.721.81-1.148 1.692-2.249 2.574-3.349 1.218-1.519 2.435-3.037 3.459-4.678 2.672-4.504 5.263-9.02 7.441-13.807l-.781-.435-.017-.009c-.41-.229-.81-.452-1.296-.721l-.147-.082zM306.99 228.845c.024-.929.047-1.876.049-2.843 7.839 7.935 16.305 10.348 27.05 10.912 7.209-.046 14.342-1.42 20.805-4.609 1.894-1.078 3.383-2.379 4.969-3.765.814-.71 1.653-1.443 2.586-2.18.418 1.553.384 2.875.349 4.24-.02.819-.042 1.654.034 2.564.138 2.26-.619 4.284-1.377 6.311-.168.449-.336.898-.494 1.349-6.088 7.466-16.558 10.239-25.832 10.239-9.206.037-19.773-2.132-25.811-9.733-2.544-3.838-2.441-7.946-2.328-12.485m-109.653-65.729-.003.002-.246.134c.017.99-.013 2.021-.043 3.068-.115 3.979-.236 8.205 2.145 11.38 5.212 6.042 13.167 9.231 21.109 9.446 9.653 1.315 22.251-.72 29.106-8.19 3.969-4.454 3.792-10.626 3.076-16.184-1.1.781-2.048 1.66-2.977 2.522-1.287 1.195-2.539 2.357-4.11 3.175q-.914.395-1.827.802c-3.65 1.618-7.322 3.247-11.449 3.424-12.396 1.698-25.516-.371-34.533-9.708l-.004-.004zm12.867 152.116c3.48 3.101 6.467 5.818 6.484 10.798.008 1.411.005 2.813.003 4.209-.011 5.533-.021 10.984.608 16.572a100 100 0 0 0 1.548-.892l.004-.002c1.008-.589 1.902-1.111 2.839-1.546 1.474-.687 1.963-1.702 1.917-3.312-.093-3.267-.148-6.536-.204-9.805v-.003c-.066-3.892-.132-7.783-.26-11.671-.093-2.815-1.361-5.225-3.459-7.154-.948-.868-2.145-1.21-3.244-.687-1.412.674-2.765 1.467-4.255 2.341-.632.37-1.289.755-1.985 1.152zm-57.938-5.718c.625-.353 1.2-.679 1.74-.986 1.175-.667 2.189-1.243 3.211-1.803 1.079-.59 1.517-1.466 1.492-2.684-.049-2.472-.084-4.945-.118-7.417v-.001c-.069-4.858-.138-9.716-.308-14.571.055-2.988-2.903-9-6.556-7.795-1.457.686-2.855 1.5-4.349 2.369-.643.375-1.305.76-1.996 1.149 3.564 3.181 6.661 6.185 6.514 11.334-.047 6.944-.08 13.39.375 20.401zm123.005 43.338c3.585 3.051 6.555 5.929 6.564 10.959-.093 6.822-.03 13.58.383 20.41 1.205-.27 2.155-.849 3.077-1.411.474-.289.941-.574 1.432-.81 1.436-.695 1.988-1.706 1.946-3.337-.085-3.282-.131-6.565-.177-9.847v-.002c-.054-3.88-.109-7.761-.227-11.639-.085-2.81-1.315-5.245-3.468-7.137-1.032-.906-2.267-1.209-3.463-.615-1.348.671-2.65 1.436-4.093 2.284a188 188 0 0 1-1.966 1.145zm-72.166 1.138c-1.896 1.8-3.572 3.653-5.244 5.502-1.591 1.76-3.179 3.515-4.949 5.217-1.58 1.533-1.811 3.248-1.449 5.111.56 3.488 5.161 8.713 8.423 4.853 1.232-1.392 2.508-2.731 3.783-4.067l.001-.001c2.18-2.286 4.354-4.566 6.29-7.097-1.26-1.751-2.502-3.474-3.763-5.224zm65.167 37.861c-2.58 2.095-4.765 4.527-6.96 6.97l-.001.001c-1.239 1.379-2.482 2.762-3.8 4.089-2.557 3.08-.084 8.482 3.11 10.146 1.795.918 2.915.724 4.361-.784 2.954-3.061 5.757-6.144 8.619-9.291l.001-.001.052-.057 1.507-1.656c-.608-.85-1.201-1.693-1.788-2.529-1.657-2.359-3.274-4.66-5.097-6.888zM137.943 317c.115-.05.268-.116.475-.216l1.497 2.075c1.606 2.222 3.199 4.428 4.73 6.678.231.338.05 1.273-.274 1.627a623 623 0 0 1-10.045 10.756c-4.125 2.924-8.785-4.52-7.651-8.414.109-.505.37-1.045.72-1.42 3.011-3.25 6.049-6.475 9.087-9.699l1.139-1.209c.059-.064.145-.101.322-.178m33.012 35.779c2.75-1.453 5.742-3.034 3.747-6.546a954 954 0 0 0-4.931-10.498v-.001a1325 1325 0 0 1-3.419-7.239c-.476-1.019-1.193-1.605-2.259-1.795l-.647-.115a320 320 0 0 0-5.791-1.001c-.211-.034-.438.038-.73.128v.001a8 8 0 0 1-.508.145c1.619 3.873 3.441 7.574 5.256 11.262 2.682 5.448 5.349 10.867 7.329 16.769v-.004c.579-.38 1.258-.739 1.953-1.106m127.99 76.112c.555-.342 1.184-.666 1.825-.997 2.843-1.467 5.93-3.06 3.846-6.79-1.501-3.23-3.028-6.449-4.555-9.668l-.001-.001-.005-.01c-1.243-2.622-2.487-5.244-3.718-7.873-.514-1.1-1.281-1.661-2.477-1.842-.968-.09-1.888-.292-2.799-.491-1.542-.339-3.059-.671-4.739-.448 1.626 3.905 3.465 7.631 5.297 11.344 2.69 5.448 5.364 10.867 7.326 16.776m-65.184-37.638c.922-.296 1.809-.841 2.687-1.38.497-.306.991-.61 1.488-.866 2.246-1.336 2.789-2.84 1.664-5.279-1.54-3.336-3.115-6.656-4.69-9.977-1.229-2.593-2.459-5.186-3.673-7.787-.518-1.104-1.315-1.685-2.473-1.879-.883-.079-1.742-.269-2.596-.457h-.001c-1.597-.353-3.173-.701-4.84-.314 1.574 3.831 3.39 7.514 5.202 11.189 2.688 5.452 5.367 10.885 7.232 16.75m-80.413-75.373c-.278-1.08-.567-2.197-.871-3.37 3.286.507 6.17 1.04 9.033 1.569h.004l.002.001c2.472.456 4.928.91 7.612 1.341 1.871.232 3.152 1.091 4.155 2.612 1.327 1.766 4.179 9.186-.203 8.368-3.034-.516-6.064-1.052-9.094-1.588-2.411-.426-4.821-.852-7.232-1.268-.835-.144-1.517-.426-1.749-1.298-.547-2.067-1.081-4.136-1.655-6.362zm129.161 71.909q.32 1.252.624 2.466v.001c.602 2.392 1.179 4.687 1.862 6.95.168.556 1.083 1.129 1.736 1.256a736 736 0 0 0 16.318 2.962c1.778.303 2.292-.202 2.258-1.964-.156-3.471-1.702-7.992-5.477-8.869-2.324-.316-4.606-.774-6.882-1.231h-.001c-3.448-.692-6.885-1.382-10.438-1.575zm-64.441-34.96a561 561 0 0 0-.704-2.778c3.027.331 5.819.872 8.609 1.413 2.466.478 4.931.955 7.556 1.287 2.435.329 4.112 1.492 5.081 3.544.084.227.195.507.321.823 1.027 2.578 3.023 7.587-1.121 6.727a947 947 0 0 1-16.066-2.924c-.674-.131-1.651-.615-1.811-1.142-.677-2.224-1.245-4.483-1.865-6.95m49.686 35.5c.201-.613.381-1.187.551-1.734.369-1.179.696-2.226 1.113-3.234.704-1.694.274-2.831-1.078-4.061-3.929-3.57-7.803-7.199-11.677-10.829l-.002-.002q-2.363-2.215-4.732-4.426c-2.659-3.257-7.601-2.865-5.844 2.162l.047.1c.848 1.79 1.688 3.566 3.222 4.947 2.979 2.737 5.762 5.336 8.56 7.948l.004.004c3.161 2.951 6.339 5.918 9.836 9.121zm-65.041-37.794c.185-.583.351-1.14.51-1.674.345-1.156.659-2.211 1.074-3.222.67-1.626.236-2.734-1.02-3.876-3.084-2.794-6.123-5.635-9.163-8.478l-.007-.007q-1.66-1.552-3.322-3.102a413 413 0 0 1-1.681-1.576l-.003-.004c-1.196-1.126-2.392-2.252-3.617-3.345-2.612-1.972-6.063-.265-4.575 2.928.741 1.757 1.588 3.653 2.915 4.951a655 655 0 0 1 4.786 4.563l.005.004c4.582 4.396 9.134 8.762 14.098 12.834zm-65.101-37.65c.717-.873.988-1.853 1.251-2.807.15-.543.297-1.078.523-1.579.851-1.875.232-3.156-1.222-4.475-3.955-3.589-7.866-7.229-11.776-10.869l-.003-.003q-2.348-2.186-4.699-4.367c-2.01-2.579-6.893-2.516-5.696 1.567.493 2.06 1.403 3.965 2.991 5.448 2.36 2.132 4.667 4.32 6.973 6.506l.001.002c3.809 3.611 7.615 7.221 11.653 10.577zm77.496 34.237c.029-3.855-.07-7.485-.169-11.106-.092-3.384-.184-6.76-.172-10.306 0-3.826-2.263-6.168-4.98-8.182-2.069-1.61-3.367.514-3.11 2.629l.078 6.021c.059 4.68.118 9.359.192 14.039q.003.222-.002.453c-.014.868-.028 1.784.849 2.306 1.556.931 3.141 1.814 4.892 2.79.771.43 1.575.878 2.422 1.356m-65.089-46.953c.083 3.056.167 6.123.153 9.255-2.804-1.163-5.061-2.498-7.23-3.95-.459-.308-.712-1.205-.729-1.842-.161-6.745-.27-13.493-.38-20.238l-.024-1.469c-.316-2.427 1.719-2.612 3.366-1.668 2.794 2.149 4.791 4.672 4.719 8.582-.079 3.828.023 7.571.125 11.33m129.566 84.216.539-.379c.013-2.937-.053-5.874-.118-8.811-.084-3.753-.169-7.506-.088-11.257.08-4.007-2.023-6.577-4.9-8.747-3.505-2.357-3.323 2.141-3.21 4.918.018.454.035.862.033 1.187q.017 2.074.03 4.15v.001c.029 4.15.057 8.301.143 12.45.016.863.214 2.115.787 2.506 1.577 1.081 3.255 2.011 4.934 2.942l.002.001c.618.343 1.235.685 1.848 1.035zm-131.486-57.508c2.125 5.671 4.824 11.138 7.524 16.607 1.579 3.199 3.159 6.398 4.624 9.638.484.999 1.424 1.867 2.338 2.553 3.257 2.187 4.875-3.071 3.291-5.405-1.701-3.473-3.342-6.992-4.982-10.51-2.123-4.553-4.245-9.104-6.496-13.553-.421-.349-1.07-.771-1.525-.678-1.136.234-2.25.577-3.407.934h-.001q-.67.209-1.366.414m129.961 75.057c2.168 5.642 4.851 11.101 7.535 16.561 1.544 3.143 3.089 6.286 4.536 9.464.518 1.071 1.496 1.989 2.435 2.773 3.148 2.208 4.825-2.731 3.421-5.145-1.749-3.48-3.381-7.002-5.012-10.522-2.308-4.982-4.614-9.958-7.248-14.804-.843.248-1.662.49-2.471.73zm-65.025-37.314c2.185 5.593 4.859 11.048 7.529 16.498 1.517 3.095 3.033 6.189 4.458 9.305 3.249 5.844 8.208 2.755 5.646-2.933a1359 1359 0 0 1-9.737-20.43l-.034-.073c-2.313-4.95-2.321-4.968-7.503-2.704-.04.018-.072.051-.142.122v.001c-.049.05-.116.119-.217.214m71.707 20.633.089.556c2.975.795 6.024 1.31 9.072 1.824h.001l.001.001c2.152.363 4.304.726 6.431 1.188.948.185 2.11.493 2.675 1.163 2.697 3.021 3.868 6.185 4.702 10.284.57-.357 1.187-.694 1.812-1.034 2.664-1.452 5.447-2.969 5.102-6.444-.164-3.118-3.156-6.619-6.379-7.15a793 793 0 0 1-9.161-1.584l-.007-.001c-2.539-.449-5.078-.898-7.622-1.327-1.862-.418-3.419.553-4.957 1.512-.585.364-1.168.728-1.763 1.012zm-40.351-23.802c-.591.427-1.204.871-1.847 1.34l-.143-.656-.1-.46c-.867-4.007-1.359-6.285-4.588-9.514-.485-.497-1.353-.724-2.086-.863-2.149-.428-4.3-.798-6.449-1.169-3.146-.542-6.289-1.083-9.418-1.802 1.403-2.085 4.479-3.585 6.585-3.223 5.76.995 11.524 1.993 17.267 3.08 3.657.691 6.56 5.086 5.818 8.68-.105.505-.358 1.108-.741 1.407-1.361 1.056-2.754 2.063-4.298 3.18m-64.861-37.614.002-.001c1.562-1.108 3.015-2.138 4.406-3.245.459-.362.687-1.209.737-1.854.291-3.691-2.62-7.369-6.341-8.052-1.706-.314-3.418-.601-5.13-.888-3.514-.59-7.028-1.179-10.484-2.006-3.034-.727-4.981.698-7.048 2.211q-.42.309-.852.616c3.254 1.16 6.678 1.676 10.105 2.192 1.964.296 3.929.593 5.863 1.01 1.142.194 1.972.708 2.735 1.589 2.039 2.363 3.463 4.967 3.72 8.131.022.28.113.555.233.916.066.2.141.426.218.694v-.004q.944-.678 1.836-1.309m-39.411-23.132c.009-2.288.018-4.362-.046-6.434-.021-.632-.375-1.411-.834-1.854a606 606 0 0 0-10.411-9.741c-2.11-1.844-4.178-.502-6.279.86-.774.502-1.552 1.007-2.338 1.356l19.9 18.539v-.004c0-.946.004-1.849.008-2.721m64.262 39.596.497-.316q.001-1.119.008-2.238c.01-2.123.021-4.246-.054-6.366-.021-.615-.497-1.335-.973-1.79-3.333-3.173-6.67-6.341-10.133-9.367-2.688-2.167-5.518.007-7.943 1.871l-.551.421 2.108 1.959.087.081c5.754 5.346 11.352 10.547 16.954 15.745m57.932 30.957.001.002c1.817 1.676 3.636 3.354 5.448 5.048.105.093.207.196.311.301.478.482.998 1.006 1.998.837-.03-1.118.005-2.158.038-3.136v-.001c.132-3.873.232-6.791-3.922-9.849-1.762-1.342-3.363-2.897-4.963-4.451-.7-.68-1.399-1.359-2.112-2.02-1.192-1.104-2.57-1.559-4.07-.818-1.087.537-2.136 1.152-3.229 1.793h-.001c-.512.3-1.033.606-1.573.912 3.959 3.895 8.012 7.635 12.074 11.382M141.75 307.041c-.233.76-.459 1.476-.676 2.162-.545 1.723-1.029 3.253-1.397 4.811-.147.632.219 1.525.615 2.123 1.243 1.888 2.583 3.708 3.931 5.52.486.653.86 1.197 1.167 1.642.654.949 1.001 1.453 1.473 1.635.535.205 1.23-.005 2.714-.454.499-.151 1.087-.329 1.788-.527 1.681-.476 1.858-.847 1.453-2.566a212 212 0 0 0-2.014-7.925c-.177-.649-.484-1.466-.994-1.782-1.805-1.117-3.658-2.16-5.669-3.291a476 476 0 0 1-2.395-1.352zm129.977 75.052c-.227.734-.45 1.43-.664 2.1-.542 1.693-1.03 3.222-1.405 4.776-.156.641.152 1.542.535 2.132 1.235 1.883 2.583 3.699 3.931 5.507.529.707.929 1.289 1.253 1.76.659.957 1.005 1.46 1.473 1.634.519.194 1.187-.016 2.596-.457.533-.167 1.171-.367 1.946-.59 1.151-.215 1.913-.822 1.509-2.065-.278-1.051-.547-2.105-.817-3.158-.463-1.81-.926-3.619-1.429-5.416-.177-.632-.548-1.399-1.066-1.715-1.793-1.099-3.629-2.128-5.629-3.248q-1.08-.604-2.233-1.256zm-65.092-37.575q-.316 1.018-.616 1.964c-.562 1.782-1.075 3.405-1.507 5.047-.135.519.101 1.277.425 1.745a266 266 0 0 0 6 8.338c.316.421 1.1.864 1.538.758.355-.085.715-.159 1.078-.234 1.521-.315 3.079-.637 4.45-1.784l-.409-1.637-.198-.792a592 592 0 0 0-1.967-7.746c-.11-.417-.443-.885-.805-1.1-1.92-1.131-3.86-2.226-5.958-3.411l-.007-.004q-.986-.555-2.024-1.144m69.63 58.932c-2.2 1.509-5.397 5.014-6.059 6.518 2.081-1.028 5.204-4.276 6.059-6.518m-130.032-74.647q-.189-.183-.383-.367l-5.992 6.333c2.36-.771 5.566-4.003 6.375-5.966m64.721 37.22c-2.153 1.74-4.116 3.641-5.633 5.954 1.79-.666 5.06-4.062 5.633-5.954m152.131-12.303v-.002c.558-3.514 1.096-6.91 2.477-10.206 3.223-7.753 8.064-14.44 14.599-19.635 2.246-2.271 5.095-3.19 7.947-4.109.915-.295 1.83-.59 2.725-.93.413-.156.94-.147 1.386-.055l.772.153.006.001c2.851.563 5.658 1.117 8.327 2.581 3.814 2.229 7.487 5.01 9.539 8.907.142.903.34 1.808.539 2.716.471 2.152.945 4.317.666 6.498-1.196 13.348-8.637 26.195-19.735 33.787-6.375 3.535-11.127 4.744-17.814 1.281-4.613-2.347-6.67-3.99-9.834-8.056-.295-.345-.569-.784-.661-1.217-.435-2.112-.837-4.232-1.22-6.251l-.339-1.778c.233-1.243.428-2.471.62-3.685m-.62 3.685v.002-.004zm47.931-18.916c-.995-18.972-17.549-15.298-26.911-4.365-8.056 8.381-16.71 27.867-7.988 38.131 7.322 7.007 18.121-.737 23.283-6.758 3.867-4.306 6.956-9.173 8.86-14.73 1.371-2.604 1.736-5.426 2.094-8.188.18-1.39.358-2.765.662-4.09m-11.667-15.753-.025-.506c-18.64-8.427-37.891 24.387-33.437 40.44.779 3.484 3.038 5.637 5.595 7.693.036.028.134-.021.251-.079.061-.031.127-.064.191-.089-2.671-10.163-.396-20.886 5.136-29.645 5.174-8.945 12.223-14.97 22.289-17.81zm-9.383 37.974c5.726-1.744 10.331-9.244 10.546-15.72l.004-.004c-1.525-10.963-12.286-5.123-15.378 1.589-1.745 3.231-3.004 6.678-1.875 10.516.91 3.101 3.623 4.559 6.703 3.619m8.469-16.168c.06.256.114.486.168.676l.005.004c-.658 6.274-3.716 12-9.531 13.752-2.616.439-5.764-2.178-2.899-4.348 3.759-2.84 5.878-7.07 6.788-11.595q.05-.196.094-.394c.173-.772.341-1.514 1.385-1.708 1.327-.249 2.675.101 3.24 1.26.384.789.589 1.665.75 2.353m-7.732-1.507c-3.185 2.419-5.077 5.583-5.502 9.573 3.324-2.313 5.052-5.566 5.502-9.573" clip-rule="evenodd"/>
</svg>
