<svg xmlns="http://www.w3.org/2000/svg" width="550" height="550" fill="none" viewBox="0 0 550 550">
    <path fill="#fff" d="M149.585 97.176c7.386-4.217 13.172-4.96 17.195-2.204l101.787 54.839.012.008c.348.16.689.346 1.02.55l.033.018.054.029c.015.01.024.026.039.037 4.395 2.874 6.6 9.601 6.6 20.039v61.96l100.553 54.482v-49.639L328.308 211a.82.82 0 0 1-.43-.722v-13.831c0-.145.039-.284.108-.406.007-.011.021-.017.028-.027a.8.8 0 0 1 .267-.272l.004-.002.005-.004 12.133-6.985a.82.82 0 0 1 .803-.009l39.66 21.72 9.258-5.29a.82.82 0 0 1 .796-.01c.146.078 41.104 22.157 63.081 33.955v-6.071c0-.044.014-.085.021-.127.003-.021-.004-.041.001-.062.002-.009.01-.017.013-.027a.8.8 0 0 1 .128-.273l.002-.003a.8.8 0 0 1 .222-.198c.009-.005.015-.016.025-.021l12.132-6.984a.82.82 0 0 1 1.093.258l39.677 59.957a.82.82 0 0 1-.274 1.165l-12.133 6.986c-.014.008-.032.004-.046.012-.017.008-.027.024-.044.032l-16.919 7.154v67.303c.007.147.007.333-.001.518l.001.28a.8.8 0 0 1-.042.259c-.38 3.263-3.058 6.387-7.961 9.289-6.034 3.574-27.42 16.041-50.062 29.241-30.099 17.547-64.214 37.435-72.756 42.54-7.382 4.413-14.689 6.618-22.033 6.618-6.695.001-13.422-1.833-20.265-5.496a51434 51434 0 0 1-51.761-27.816l-8.938 3.779a.83.83 0 0 1-.774-.072.82.82 0 0 1-.367-.683v-8.445l-13.988-7.523a.82.82 0 0 1-.432-.723v-21.318l-59.666-32.307c-3.547 1.523-6.712 2.292-9.467 2.292-2.636 0-4.898-.7-6.773-2.096L52.258 302.419a10.2 10.2 0 0 1-3.007-1.636c-4.147-3.257-6.25-10.08-6.251-20.279v-93.433c0-19.332 7.088-32.097 22.983-41.387 19.84-11.597 66.649-38.822 83.602-48.508m326.684 165.917q-.316.443-.691.881a1 1 0 0 1-.086.086c-1.323 1.513-3.202 2.992-5.585 4.397l-.313.189c-1.153.683-2.78 1.638-4.796 2.819l-4.013 2.347-1.935 1.131-5.583 3.266c-9.119 5.324-20.801 12.135-33.102 19.307-30.232 17.626-64.499 37.603-73.07 42.726a57 57 0 0 1-2.754 1.541c-.101.053-.203.097-.304.15-.794.41-1.589.801-2.382 1.16-.286.129-.572.238-.858.361a46 46 0 0 1-1.821.752c-.368.14-.736.257-1.104.386-.524.183-1.048.371-1.572.532-.414.127-.827.232-1.24.345-.478.13-.956.265-1.433.377-.443.104-.886.186-1.329.274-.448.089-.895.18-1.343.252-.465.075-.93.13-1.394.188-.426.052-.852.106-1.278.143-.48.043-.961.068-1.442.091-.411.02-.822.04-1.233.046-.184.003-.369.02-.554.02-.349 0-.698-.025-1.046-.035-.309-.009-.619-.015-.928-.032a38 38 0 0 1-1.706-.138c-.291-.029-.581-.054-.872-.09a38 38 0 0 1-1.781-.27c-.268-.046-.535-.085-.803-.137a40 40 0 0 1-1.884-.42c-.236-.057-.472-.107-.708-.169a43 43 0 0 1-2.027-.594c-.192-.061-.383-.112-.574-.175a46 46 0 0 1-2.259-.821c-.118-.045-.235-.084-.353-.131a53 53 0 0 1-5.325-2.483c-8.571-4.59-38.655-20.767-58.255-31.308l-16.347-8.797v59.671l15.878 8.696-3.496-5.119a.8.8 0 0 1-.142-.463V350.17c0-.043.014-.083.02-.124.003-.021-.003-.042.002-.063l.013-.028a.8.8 0 0 1 .352-.475c.009-.005.015-.015.024-.02l12.138-6.99a.82.82 0 0 1 1.093.259l8.358 12.631 31.322 47.334a.82.82 0 0 1-.274 1.165l-12.133 6.985-28.355 11.992a55326 55326 0 0 0 50.588 27.185c13.991 7.49 26.916 7.144 40.682-1.084 8.55-5.11 42.668-25.001 72.771-42.55 22.639-13.198 44.022-25.664 50.053-29.235 4.512-2.67 6.929-5.43 7.181-8.203a1 1 0 0 1 .016-.106v-.145a4 4 0 0 0 .001-.442V300.41c0-.012-.009-.023-.009-.035v-33.702l.001-.002-.001-.001zm-358.34 63.815 29.935 16.209h.002l4.756 2.576 110.382 59.766.385.208c.042.023.077.056.114.085q.065.05.117.111l.036.048a.8.8 0 0 1 .114.217q.01.023.017.046a.8.8 0 0 1 .031.261l-.004.021c-.001.021-.009.04-.012.061a.8.8 0 0 1-.068.22c-.007.015-.006.032-.014.047-.007.013-.019.019-.027.031a.8.8 0 0 1-.156.189q-.035.029-.071.054a1 1 0 0 1-.157.091l-18.704 7.618v2.976l-.003.017v7.678l37.092-15.68-17.201-25.994-20.417-30.852V363.8l20.139 29.5c.015.022.018.049.031.072a.8.8 0 0 1 .082.195c.012.049.012.097.015.146.002.047.005.094 0 .141a1 1 0 0 1-.036.153.8.8 0 0 1-.137.259c-.011.014-.016.031-.028.045-.019.02-.044.03-.064.048-.028.026-.046.059-.078.08-.017.012-.037.014-.055.024l-.057.029q-.04.018-.081.03a.8.8 0 0 1-.221.046c-.018.002-.035.011-.053.011-.014 0-.027-.009-.041-.01a.8.8 0 0 1-.218-.044c-.045-.015-.092-.022-.135-.046l-145.21-79.526zm322.861-26.462a.82.82 0 0 1 1.124.3.8.8 0 0 1 .111.411v76.072c0 .01-.007.017-.007.026a.8.8 0 0 1-.1.376l-.015.019a.8.8 0 0 1-.241.253c-.007.005-.01.014-.017.019l-.015.007-.012.009-69.323 40.439a.81.81 0 0 1-.822.004.82.82 0 0 1-.412-.712v-76.076c0-.292.155-.562.407-.708l62.087-36.217.002-.001zM230.182 409.494l12.778 6.874v-2.151q.001-.122.035-.235l.001-.005a.8.8 0 0 1 .127-.244q.027-.033.058-.063a.8.8 0 0 1 .149-.129c.016-.01.026-.027.042-.036l12.136-6.984a1 1 0 0 1 .099-.048l3.32-1.352-28.745-15.561zm142.52 1.058v5.683l66.733-38.923-5.421-2.523zm-128.284-60.1 28.13 42.51 10.635 16.07 10.708-6.168-30.597-46.242-8.164-12.337zm14.407 56.483-2.501 1.019-1.593.917 1.383-.563 4.963-2.023-.282-.152zm113.877-64.868v66.585l60.447-35.259v-66.585zm-249.176-31.241-.018.005-4.722 2.719 142.14 77.846-12.825-18.782-49.247-26.97-6.244-3.419-46.014-25.202-17.342-9.495zm290.908 18.178a.82.82 0 0 1 .823-.003l.371.214 4.825 2.778a.82.82 0 0 1 .411.712v35.757a.82.82 0 0 1-.406.709l-29.79 17.376-.008.002c-.011.006-.024.004-.035.01a.8.8 0 0 1-.371.1l-.002-.001-.002.001a.8.8 0 0 1-.409-.109l-5.193-2.988a.83.83 0 0 1-.412-.712v-35.756c0-.292.155-.563.408-.709zm-28.551 18.561v34.81l3.546 2.042v-34.334a.82.82 0 0 1 .407-.709l28.571-16.664-3.551-2.045zm5.187 2.989v33.856l28.154-16.419v-33.857zm43.722-44.704v67.49l1.085.505 4.506 2.097v-73.354zm-216.344 21.392a60211 60211 0 0 0-21.382 12.789l-2.409 1.442 33.883 18.556v-35.644l-2.766-1.518zM148.6 345.554c.046.236.1.46.15.689.081.367.163.732.254 1.081.062.237.129.464.196.693a18 18 0 0 0 .528 1.589 19 19 0 0 0 .606 1.427q.185.382.384.739c.099.18.198.361.302.532.142.233.293.452.445.668.106.15.209.307.319.449.173.222.357.425.541.627.102.111.199.232.304.337q.407.406.849.747c.024.019.046.043.071.062 3.122 2.369 7.646 2.421 13.465.159l-10.906-5.906-7.541-4.083c.012.062.021.129.033.19m12.563-250.563c-2.966 0-6.559 1.209-10.764 3.61-16.948 9.683-63.751 36.904-83.587 48.5-15.54 9.083-22.17 21.037-22.17 39.97v93.433c0 9.669 1.892 16.058 5.624 18.989a8.6 8.6 0 0 0 2.583 1.393 1 1 0 0 1 .128.055l96.544 52.071c-.051-.087-.093-.192-.143-.281a17 17 0 0 1-.69-1.348c-.093-.207-.178-.429-.266-.644-.165-.4-.324-.81-.471-1.24a28 28 0 0 1-.616-2.121c-.069-.277-.138-.552-.2-.839a34 34 0 0 1-.301-1.591c-.034-.199-.079-.379-.11-.582l-6.602-3.575-23.405-12.671a.82.82 0 0 1-.43-.722v-13.832l.002-.005a.8.8 0 0 1 .037-.239l-10.216-5.413c-.014-.007-.025-.019-.039-.027l-.001-.001a.82.82 0 0 1-.396-.697v-73.728a.83.83 0 0 1 .399-.708.82.82 0 0 1 .807-.021l8.908 4.721h.002l7.708 4.081a.83.83 0 0 1 .44.73v66.429l4.893-2.817a.82.82 0 0 1 .804-.009l16.531 9.054v-72.232c0-19.333 7.089-32.097 22.983-41.388 19.849-11.602 66.666-38.832 83.601-48.508l.029-.016c4.092-2.337 7.699-3.603 10.784-3.793l-97.636-52.608q-2.022-1.38-4.764-1.38m220.141 117.121-.002.002-1.909 1.091 3.426 1.842c15.903 8.548 65.983 35.472 72.09 38.867l.038.022.227.126.089.05.088.05q.024.011.046.026c.314.182.596.365.861.548 1.486 1.028 2.217 2.089 2.214 3.225-.004 1.371-1.07 2.644-3.258 3.895-.492.284-1.82 1.05-3.87 2.245-2.727 1.58-6.73 3.907-11.646 6.764a73582 73582 0 0 1-45.886 26.661l-.984.569-.085.049-1.464.849-3.266 1.896-.003.001-.002.001-2.469 1.434-.007.002-3.584 2.079-1.594.925-.009.008-1.925 1.115-.009.008-3.999 2.316-3.656 2.121-.016.009-.003.003-1.963 1.137-3.278 1.897-3.498 2.026-.002.001-.031.016c-19.493 11.286-30.075 17.355-31.45 18.041a29 29 0 0 1-.9.433l-.177.077q-.349.16-.693.302l-.24.094q-.31.123-.616.232-.132.046-.264.088-.29.097-.58.181-.143.04-.285.076-.279.072-.558.132l-.3.058a11 11 0 0 1-.861.122 10 10 0 0 1-.555.04q-.159.009-.319.013c-.063.001-.126.007-.189.007-.099 0-.202-.011-.302-.014a11 11 0 0 1-1.507-.141 13 13 0 0 1-1.057-.213 19 19 0 0 1-.509-.13 17 17 0 0 1-.608-.183c-.174-.055-.348-.109-.527-.171-.216-.075-.44-.161-.663-.247-.179-.069-.357-.134-.541-.21-.242-.099-.493-.212-.743-.324-.18-.08-.355-.154-.54-.24a38 38 0 0 1-.888-.437c-.162-.081-.317-.153-.483-.239a51 51 0 0 1-1.468-.792c-5.134-2.88-37.043-20.617-55.088-30.645l-16.455-9.142-11.59 7.08 1.858 1 14.452 7.775a54944 54944 0 0 0 58.251 31.307c11.059 5.914 21.455 6.919 32.123 3.027 2.826-1.032 5.67-2.387 8.551-4.11 8.538-5.104 42.597-24.961 72.647-42.481a53268 53268 0 0 0 33.54-19.561l5.607-3.276 2.269-1.328c1.326-.776 2.551-1.492 3.653-2.139l5.094-2.998c2.289-1.355 4.056-2.751 5.262-4.153 1.236-1.436 1.89-2.894 1.946-4.334.174-4.666-5.696-8.764-10.65-11.379a1 1 0 0 1-.095-.059l-.184-.099c-.799-.423-1.89-1.005-3.251-1.731l-.001-.001c-1.276-.68-2.796-1.494-4.477-2.395l-3.149-1.688a53572 53572 0 0 1-63.893-34.39zM200.702 321.486a8393 8393 0 0 1-17.792 10.629c-.687.409-1.364.784-2.031 1.139l-.101.054c-.173.091-.349.19-.521.278l12.73 6.973 1.88-1.125 6.726-4.024a26949 26949 0 0 1 19.428-11.617l3.086-1.843-12.607-6.924zm65.481-25.774c-.344.41-.703.814-1.066 1.216l-.021.024a45 45 0 0 1-1.576 1.654l-.112.109a47 47 0 0 1-1.477 1.401q-.185.168-.371.332c-.223.199-.439.401-.666.596 18.159 10.09 48.913 27.184 54.051 30.066 1.35.757 2.555 1.362 3.652 1.829l.053.022q.52.22 1.008.4.477.175.929.312c.022.006.046.016.067.022 3.553 1.069 5.986.436 9.126-1.134.268-.135.917-.491 1.912-1.05zm-72.794 18.421c-8.929 5.343-16.865 10.093-21.241 12.69q-.977.579-1.94 1.092c-.049.027-.101.058-.15.084l8.434 4.617c.203-.096.411-.204.617-.306.375-.187.747-.369 1.13-.575.071-.038.146-.082.217-.121a47 47 0 0 0 1.613-.915 7794 7794 0 0 0 20.297-12.124l7.465-4.467-8.553-4.696zm-26.043-85.988-.329.192v1.711l.013-.003c.204-.067.418-.113.634-.153.049-.009.094-.027.144-.035q.4-.062.83-.062h.008c.044 0 .085.005.128.006 3.361.068 4.879 2.713 4.879 4.601 0 .804-.301 1.529-.871 2.097-.856.864-2.248 1.304-4.134 1.304h-.003q-.426 0-.82-.036c-.065-.006-.125-.018-.189-.025a8 8 0 0 1-.571-.081l-.044-.007v1.995l166.357 90.903 22.022-12.679 4.513-2.599-12.288-6.779.034.026q.193.129.366.273.052.041.103.084.218.191.406.401l.011.013a4.7 4.7 0 0 1 .618.891l.061.111q.12.234.212.473l.001.003a5 5 0 0 1 .244.94l.019.133q.028.226.029.44c0 1.645-1.317 3.402-5.01 3.402-3.585-.001-4.857-1.833-4.857-3.402 0-1.607 1.425-4.608 4.857-4.608q.336 0 .647.033l.014.003q.299.031.576.091c.044.009.085.023.128.033.142.034.284.07.417.114.056.019.107.043.161.063.095.035.193.068.283.108l-31.696-17.486.044.033q.184.124.352.261.06.047.117.096.214.189.4.394l.023.027a5 5 0 0 1 .604.87q.036.064.069.127.119.231.209.466l.006.016q.084.227.143.452l.033.14q.04.17.064.338.012.068.02.134.027.226.029.442c0 1.643-1.317 3.399-5.009 3.399-3.585 0-4.857-1.831-4.857-3.399 0-1.607 1.424-4.61 4.857-4.61q.33 0 .638.034c.064.006.123.019.186.028.138.019.276.036.407.064.071.015.136.036.205.054q.176.042.342.095c.073.024.142.054.213.081.081.031.167.059.245.094l-14.344-7.913c.242.226.451.472.633.729l.047.07q.252.372.425.765l.036.084a4.7 4.7 0 0 1 .267.853c.058.279.09.553.09.812 0 1.644-1.317 3.401-5.01 3.401-3.585 0-4.857-1.832-4.857-3.401 0-1.607 1.425-4.608 4.857-4.608q.382.003.733.047.107.014.211.033.25.039.482.097c.031.008.066.011.097.02l-13.866-7.65.017.02a4.7 4.7 0 0 1 1.072 1.53q.024.052.045.104.159.382.244.763l.02.084c.055.269.084.533.085.784l.002.018c0 1.644-1.318 3.4-5.011 3.4-3.584 0-4.856-1.831-4.856-3.4 0-.402.089-.891.276-1.398.562-1.522 2.007-3.211 4.581-3.211l.004.001q.375.002.72.045c.073.008.144.022.216.033q.242.037.467.094c.031.007.067.011.097.019l-7.302-4.028c-.006-.003-.012-.01-.018-.013l-.032-.016-13.599-7.501-.003-.001-5.597-3.089-2.781-1.535.003.004c.852.922 1.263 2.091 1.263 3.055 0 .559-.201 2.284-2.475 3.039l-.064.02c-.248.078-.511.15-.809.204a8 8 0 0 1-.8.103q-.412.034-.861.034h-.005c-3.585 0-4.857-1.831-4.857-3.4 0-1.607 1.425-4.607 4.857-4.607h.005q.572.001 1.104.105l.024.003-12.68-6.996-.056-.031.019.029q.218.287.386.593.029.05.055.101a5 5 0 0 1 .304.716q.106.315.162.623l.011.072c.035.215.057.427.057.629 0 1.644-1.317 3.401-5.01 3.401-3.585 0-4.857-1.832-4.858-3.401 0-1.606 1.426-4.608 4.858-4.608.243 0 .474.017.698.042l.056.004-12.601-6.952.02.029q.216.286.382.59.03.052.057.104.157.301.267.609l.035.106q.104.313.16.618l.011.075a4 4 0 0 1 .056.625c0 1.643-1.316 3.4-5.009 3.4-3.585 0-4.858-1.832-4.858-3.4.001-1.608 1.426-4.61 4.858-4.61q.358.002.69.041l.052.003-10.523-5.805-2.908-1.605.015.017c.253.227.472.477.662.74l.049.071a4.8 4.8 0 0 1 .481.874 4.7 4.7 0 0 1 .276.867c.057.274.087.543.089.798l.002.018c0 1.644-1.318 3.401-5.011 3.401-3.585 0-4.857-1.833-4.857-3.401 0-.687.264-1.627.829-2.48l.039-.061c.024-.036.054-.071.08-.107.772-1.069 2.042-1.96 3.91-1.96h.003c.266.001.517.022.761.052q.108.014.211.032.273.045.527.114c.039.01.084.015.123.026l-13.336-7.356c.794.905 1.173 2.035 1.173 2.977v.005c0 1.644-1.317 3.4-5.01 3.4-3.585 0-4.856-1.831-4.857-3.4v-.005c0-1.607 1.425-4.607 4.857-4.607.362 0 .699.035 1.019.09l.032.002-3.029-1.669zm81.459-54.525a25 25 0 0 0-1.19.475q-.226.096-.457.199-.403.185-.815.392c-.146.072-.291.14-.439.216q-.504.262-1.023.555c-.085.047-.166.089-.251.138a4248 4248 0 0 0-18.862 10.878 17193 17193 0 0 0-46.908 27.282 47 47 0 0 0-4.111 2.69c-.236.174-.458.353-.687.529q-.893.683-1.717 1.395c-7.52 6.506-10.839 14.851-10.839 26.686v73.516l.001.095q.003 1.145.054 2.225.005.152.012.302.057 1.068.16 2.06l.021.198 6.558 3.592q.422-.21.849-.436c.168-.088.334-.171.503-.262a49 49 0 0 0 1.515-.857l.062-.035q.033-.024.069-.046c4.086-2.428 11.286-6.736 19.502-11.651l8.793-5.26-11.93-6.55-21.065 12.33c-.075.044-.16.048-.243.066-.197.044-.402.042-.583-.063a.82.82 0 0 1-.412-.712v-24.354l-.001-.004v-22.311l.001-.003v-39.028c0-.029.018-.053.022-.082a.8.8 0 0 1 .065-.246c.018-.04.032-.077.056-.113a.8.8 0 0 1 .244-.247c.008-.005.011-.015.019-.02l7.106-4.159 10.837-6.346.04-.021 7.647-4.476.004-.005 12.282-7.187 34.03-19.918a.82.82 0 0 1 1.235.708v26.449l11.267 6.104v-35.353q0-1.429-.073-2.735v-.006a37 37 0 0 0-.077-1.096l-.019-.241a36 36 0 0 0-.098-.943l-.038-.325a32 32 0 0 0-.175-1.195 26 26 0 0 0-.375-1.828q-.045-.178-.093-.351a20 20 0 0 0-.18-.641l-.022-.065c-.091.032-.179.058-.271.091m78.429 143.957c3.456 0 5.009 2.695 5.009 4.608 0 1.644-1.316 3.401-5.009 3.401-3.585 0-4.857-1.833-4.857-3.401 0-1.608 1.425-4.608 4.857-4.608m0 1.642c-2.656 0-3.215 2.476-3.215 2.966 0 .85.844 1.76 3.215 1.76 2.14 0 3.369-.642 3.369-1.76-.001-.627-.573-2.966-3.369-2.966m-160.22-41.407c3.123.001 4.529 2.442 4.529 4.175 0 .563-.168 1.141-.553 1.643-.079.103-.184.195-.282.291-.061.06-.109.127-.178.183-.157.13-.344.247-.543.356-.027.015-.045.033-.073.048a4.5 4.5 0 0 1-.605.241c-.064.022-.114.051-.18.071-.203.061-.441.1-.674.142-.1.018-.183.047-.289.061-.196.027-.427.028-.643.04-.171.01-.325.032-.509.032v3.63l34.633 19.017.006.002 10.224 5.613.006.005 16.656 9.147v-10.9l-.056-.015c-.16-.035-.304-.081-.449-.126-.107-.033-.216-.065-.314-.103a4 4 0 0 1-.36-.163 4 4 0 0 1-.272-.146 3 3 0 0 1-.282-.193 3 3 0 0 1-.44-.394 3 3 0 0 1-.177-.218c-.053-.072-.107-.144-.152-.218-.049-.081-.089-.164-.129-.247-.033-.071-.071-.14-.097-.212a3 3 0 0 1-.084-.286c-.016-.061-.037-.121-.048-.182a2.4 2.4 0 0 1-.041-.429l-.003-.03.001-.001-.001-.001q0-.2.043-.454c.006-.039.02-.084.028-.126a4 4 0 0 1 .102-.417c.017-.058.043-.118.064-.177.048-.137.099-.274.163-.415q.05-.103.105-.206.102-.202.228-.402a6 6 0 0 1 .449-.586q.094-.103.196-.201.178-.173.383-.327a4 4 0 0 1 .238-.17c.15-.098.315-.182.486-.263.09-.042.176-.086.272-.123.051-.02.094-.049.147-.067v-2.59l-8.236-4.53-.008-.007-6.496-3.571-6.889-3.787-9.627-5.295-30.269-16.644zM267.82 151.274c-3.411-1.499-8.204-.51-14.253 2.944-17.534 10.02-64.414 37.295-83.587 48.499-15.539 9.081-22.169 21.035-22.169 39.971v73.126l12.201 6.682c-.006-.073-.008-.153-.014-.226a47 47 0 0 1-.084-1.464l-.016-.389a55 55 0 0 1-.035-1.846v-73.515c0-11.461 3.152-20.003 10.03-26.657 2.292-2.217 4.998-4.225 8.139-6.061a16390 16390 0 0 1 44.751-26.032c8.627-5 16.306-9.436 21.031-12.137.374-.214.739-.406 1.104-.598.116-.061.235-.131.35-.189.189-.097.371-.178.558-.269.287-.139.576-.284.856-.409.166-.074.325-.132.489-.201.29-.122.581-.248.863-.354.187-.069.365-.123.548-.185.238-.081.48-.171.711-.24q.023-.008.048-.014l.022-.007.062-.016.026-.007h.002a14 14 0 0 1 2.811-.527c1.525-.111 2.901.102 4.111.64l.898.48c3.573 2.272 5.358 7.636 5.358 15.973v36.786l4.607 2.497 7.446 4.034v-61.071c0-9.913-1.979-16.201-5.88-18.689l-.236-.127zm68.402 161.14c3.455 0 5.009 2.695 5.009 4.607 0 1.645-1.317 3.402-5.01 3.402-3.585 0-4.857-1.833-4.857-3.402 0-.401.089-.891.277-1.398.561-1.522 2.007-3.209 4.581-3.209m0 1.641c-1.993 0-2.806 1.394-3.088 2.297a2.5 2.5 0 0 0-.129.669c0 .851.846 1.76 3.217 1.76 2.109 0 3.367-.658 3.367-1.76 0-.626-.572-2.966-3.367-2.966m-113.719-5.38c3.126 0 4.532 2.441 4.532 4.175 0 .934-.442 3.107-4.532 3.107-3.247 0-4.399-1.674-4.399-3.107 0-1.456 1.29-4.175 4.399-4.175m0 1.641c-2.278.001-2.757 2.117-2.757 2.534 0 .708.724 1.465 2.757 1.465 1.81 0 2.892-.547 2.892-1.465-.001-.536-.492-2.534-2.892-2.534m53.826-46.392c0 1.103-.023 2.217-.069 3.319l85.324 47.07.999-.578 6.036-3.494.031-.018-29.779-16.241-62.542-34.103zm68.39 45.392c-2.656.001-3.215 2.479-3.215 2.967 0 .851.844 1.759 3.215 1.759 2.14 0 3.369-.641 3.369-1.759 0-.626-.573-2.967-3.369-2.967m-236.464-2.133 9.526 5.05.634-.365 3.879-2.235v-2.556l-6.889-3.647zm58.762 4.952 18.981-11.111-18.981-10.423zm61.479-5.576a2.2 2.2 0 0 0-.328.261c-.591.565-.82 1.32-.876 1.676a1 1 0 0 0-.013.122l-.003.028.001.007c.001.101.025.204.059.306q.014.044.031.086.064.15.184.294c.02.024.049.046.072.069q.11.11.26.209c.042.028.082.056.129.082q.2.111.464.197c.019.007.043.012.063.018v-3.381zM193.5 212.837l45.031 24.557.006.004 12.901 7.036.006.002 9.119 4.974 1.63.889.007.002 13.697 7.47.003.002 90.794 49.513 3.612 1.969 4.658-2.701c-.119-.026-.219-.064-.329-.095-.084-.024-.17-.046-.249-.072a4 4 0 0 1-.603-.254c-.029-.015-.064-.027-.093-.043a3.4 3.4 0 0 1-.573-.394l-.249-.244a3 3 0 0 1-.174-.205c-.028-.036-.051-.073-.077-.11a2.8 2.8 0 0 1-.423-.95l-.015-.062a2.7 2.7 0 0 1-.059-.527c0-1.457 1.291-4.176 4.401-4.176h.002l.029.003c.359.002.695.038 1.009.099.121.024.227.066.342.098.19.053.38.104.552.177.125.052.235.118.35.18a4 4 0 0 1 .404.235c.112.077.213.162.314.247q.161.132.304.275a4.4 4.4 0 0 1 .697.94q.08.147.146.297c.056.123.11.245.153.37.033.095.057.188.082.283.035.129.071.256.092.382.002.014.009.029.011.043l1.285-.746c-.066-.017-.12-.042-.183-.061a5 5 0 0 1-.239-.078 4 4 0 0 1-.508-.214c-.062-.031-.128-.061-.186-.095a3.4 3.4 0 0 1-.504-.345l-.04-.031a3 3 0 0 1-.413-.442c-.031-.041-.056-.084-.084-.126a2.7 2.7 0 0 1-.278-.516 3 3 0 0 1-.115-.358c-.012-.049-.027-.098-.036-.147a3 3 0 0 1-.052-.496c0-1.456 1.291-4.175 4.4-4.175.368 0 .709.039 1.03.102.108.021.203.057.306.084.203.054.403.112.586.189.108.045.207.099.308.152.156.081.308.165.447.261q.142.097.271.204.188.152.352.32.117.116.222.238c.101.121.19.245.276.373.055.083.114.164.164.25.082.143.148.288.212.435.033.074.072.146.1.221q.122.325.187.646l3.199-1.857-116.597-63.174-.005-.001-9.71-5.263-51.148-27.713zm14.941 88.07c1.228 0 2.306.39 3.117 1.128 1.044.947 1.416 2.236 1.416 3.05l-.001.012v.002c-.001 1.502-1.191 3.107-4.533 3.107a1 1 0 0 1-.125-.01 8 8 0 0 1-.695-.042l-.009-.001c-1.791-.179-2.677-.928-3.107-1.573a2.7 2.7 0 0 1-.462-1.486v-.009a3 3 0 0 1 .064-.602c.038-.19.094-.391.165-.594l.026-.073q.111-.297.272-.595l.044-.087q.168-.295.387-.573l.071-.095q.226-.271.502-.512c.034-.029.064-.06.098-.088q.284-.23.622-.415.063-.038.127-.072.345-.172.746-.283c.053-.015.103-.034.158-.047a4.7 4.7 0 0 1 .872-.116c.044-.003.081-.016.125-.017a1 1 0 0 1 .12-.009m86.426-1.183c3.456 0 5.01 2.695 5.01 4.609v.002c0 1.023-.489 3.4-5.01 3.4-3.585 0-4.856-1.831-4.856-3.4v-.003l.004-.154c.086-1.637 1.527-4.454 4.852-4.454m-86.427 2.837c-2.274 0-2.755 2.11-2.756 2.531 0 .089.018.321.187.576.378.569 1.291.884 2.57.884 1.804 0 2.882-.545 2.89-1.457-.001-.501-.276-1.286-.878-1.832-.511-.466-1.188-.702-2.013-.702m86.427-1.192c-2.653 0-3.213 2.472-3.215 2.964.001.849.846 1.757 3.215 1.757 1.603 0 2.694-.36 3.141-1.01l.007-.011q.098-.148.151-.315c.037-.123.064-.252.066-.398l.003-.023c-.001-.629-.574-2.964-3.368-2.964m-187.551 4.452 1.459-.765 5.81-3.05v-63.337l-7.269-3.849zm8.911-3.814 6.067 3.211v-62.467l-6.067-3.213zm260.295-.944c-2.276.002-2.756 2.118-2.756 2.535 0 .708.724 1.465 2.756 1.465q.347 0 .664-.029l.085-.011q.228-.024.445-.064l1.595-.925q.017-.036.032-.073.049-.14.057-.297c.002-.022.01-.044.01-.066 0-.536-.491-2.533-2.888-2.535m-160.553-4.349q1.26.002 2.242.515c.016.008.031.021.047.03.191.103.377.215.551.347l.023.017c.308.238.566.504.78.784.642.837.888 1.798.888 2.482 0 1.502-1.19 3.107-4.532 3.107a7.4 7.4 0 0 1-1.288-.114c-.152-.026-.309-.047-.447-.081-.052-.013-.096-.032-.146-.046a5 5 0 0 1-.536-.178l-.029-.014a3.5 3.5 0 0 1-.94-.571h-.001a3 3 0 0 1-.318-.315c-.02-.023-.034-.044-.052-.067a3 3 0 0 1-.186-.246 3 3 0 0 1-.12-.207c-.017-.032-.04-.064-.055-.095a2.66 2.66 0 0 1-.282-1.173c.001-1.456 1.292-4.175 4.401-4.175m87.886-2.152c3.456.001 5.01 2.696 5.01 4.61l-.002.015c-.004 1.03-.508 3.384-5.007 3.385h-.002c-3.585 0-4.857-1.831-4.857-3.4 0-.402.089-.891.276-1.399.562-1.522 2.008-3.211 4.582-3.211m-87.883 3.797c-2.279.001-2.759 2.118-2.759 2.535 0 .08.016.246.112.446.326.652 1.262 1.011 2.64 1.011 1.81 0 2.889-.548 2.889-1.466 0-.26-.107-.735-.382-1.206-.046-.078-.077-.155-.133-.232-.038-.051-.098-.096-.141-.146-.11-.129-.218-.26-.366-.374a2.6 2.6 0 0 0-.744-.392c-.023-.008-.043-.02-.067-.027-.103-.033-.216-.053-.327-.075-.052-.011-.1-.026-.154-.035-.107-.016-.222-.02-.335-.027-.064-.004-.126-.012-.192-.013zm87.882-2.155c-1.992.001-2.805 1.395-3.086 2.298a2.6 2.6 0 0 0-.129.67c0 .85.845 1.758 3.215 1.759h.003q.376-.001.713-.029l.106-.009c1.147-.105 1.943-.437 2.311-.962q.017-.027.032-.055.083-.13.132-.276c.041-.132.072-.271.072-.428 0-.627-.572-2.968-3.369-2.968m80.201.658c-2.278.001-2.758 2.116-2.758 2.534 0 .709.725 1.466 2.758 1.466.03 0 .053-.004.083-.005q.385-.004.731-.046l2.026-1.174c.016-.072.043-.138.044-.215l.002-.022.001-.027c0-.043-.008-.102-.015-.16-.005-.035-.008-.068-.015-.108a2 2 0 0 0-.055-.222c-.012-.045-.022-.088-.038-.136-.027-.082-.066-.17-.104-.258-.023-.052-.041-.102-.068-.155-.044-.088-.103-.176-.161-.264-.035-.054-.065-.109-.105-.162-.066-.086-.149-.166-.23-.247-.049-.05-.091-.104-.147-.151-.091-.078-.204-.143-.313-.21-.064-.041-.12-.087-.191-.123-.128-.065-.281-.109-.432-.156-.073-.022-.133-.055-.212-.073a3.6 3.6 0 0 0-.801-.086m-189.909-3.566c1.681 0 2.739.696 3.373 1.379q.138.148.251.293c.573.736.915 1.677.915 2.515 0 1.503-1.191 3.108-4.533 3.108l-.087-.004c-1.48-.014-2.617-.374-3.379-1.07a3 3 0 0 1-.397-.442 2.7 2.7 0 0 1-.539-1.601c0-.022.007-.049.008-.071a3 3 0 0 1 .079-.614 4.3 4.3 0 0 1 .203-.664 4.8 4.8 0 0 1 .648-1.147q.065-.087.134-.171.202-.237.445-.451.069-.063.14-.125c.18-.144.38-.273.591-.39.051-.028.097-.059.149-.085.227-.113.476-.204.738-.277.056-.016.108-.036.166-.049.275-.065.573-.1.886-.114.041-.001.075-.014.117-.015a1 1 0 0 1 .092-.005m48.36-10.198a37 37 0 0 1-1.736 1.723q-.2.183-.403.365a41 41 0 0 1-1.954 1.656c-.135.107-.276.212-.414.318a45 45 0 0 1-2.186 1.596c-.127.087-.261.17-.39.257q-1.118.748-2.312 1.458c-.069.041-.132.087-.202.128a2371 2371 0 0 0-10.553 6.241l6.183 3.399v-.327l-.003-.01.003-.01v-.011c0-.041.024-.075.03-.114.015-.1.026-.2.075-.287.014-.025.043-.039.06-.063a.8.8 0 0 1 .225-.235l13.22-8.078a.83.83 0 0 1 .83-.017l2.757 1.532a42 42 0 0 0 3.346-2.53l.079-.069a38 38 0 0 0 1.503-1.35q.153-.146.303-.293c.217-.21.42-.426.629-.639l-8.879-4.849c-.066.071-.144.138-.211.209m9.939 6.122c-.214.213-.421.429-.643.639q-.702.664-1.45 1.304c-.275.235-.563.462-.846.692-.277.225-.554.45-.84.67q-.463.355-.94.702c-.129.093-.251.191-.381.284l12.008 6.674q.403-.34.797-.686c.213-.186.431-.369.639-.558q.733-.666 1.428-1.354c.236-.234.462-.474.691-.712.247-.256.495-.511.734-.771.235-.255.461-.514.688-.773q.187-.214.369-.43l-11.595-6.337c-.212.222-.439.437-.659.656m225.474 9.913 15.369-6.499-15.369-23.221zm-198.671-8.168c3.456 0 5.01 2.696 5.01 4.608 0 1.023-.49 3.4-5.01 3.4-3.585 0-4.856-1.831-4.856-3.4 0-1.607 1.424-4.608 4.856-4.608m83.213.698c3.126 0 4.532 2.441 4.532 4.174 0 1.502-1.191 3.108-4.532 3.108-3.247 0-4.399-1.674-4.399-3.108 0-1.455 1.29-4.174 4.399-4.174m-168.309 3.282c-2.278 0-2.757 2.117-2.757 2.534a1 1 0 0 0 .013.157l.002.006q.014.085.051.186c.016.042.044.087.067.132.018.033.03.065.052.099q.079.12.209.241c.461.419 1.276.639 2.357.639 1.809 0 2.889-.547 2.889-1.465 0-.355-.149-.96-.567-1.503-.533-.679-1.311-1.026-2.316-1.026m85.096-2.339c-2.656 0-3.216 2.479-3.216 2.967.001.851.845 1.759 3.216 1.759q.377-.001.716-.028l.102-.01c1.151-.105 1.949-.438 2.317-.966l.022-.04q.09-.136.141-.291c.04-.131.07-.268.07-.424 0-.626-.572-2.966-3.368-2.967m83.213.698c-2.278 0-2.758 2.116-2.758 2.533 0 .709.725 1.467 2.758 1.467 1.81 0 2.89-.548 2.891-1.467 0-.535-.491-2.533-2.891-2.533M66.788 211.937a.82.82 0 0 1 .807-.022l8.916 4.723 8.915 4.721a.8.8 0 0 1 .32.304.8.8 0 0 1 .12.427v64.327l-.004.079v9.321a.822.822 0 0 1-1.205.726l-17.83-9.444-.028-.02-.012-.004c-.007-.004-.01-.013-.018-.017a.8.8 0 0 1-.267-.276l-.01-.023a.8.8 0 0 1-.101-.385V212.64a.82.82 0 0 1 .397-.703M201.685 289.1c1.807 0 2.887.81 3.474 1.491.78.904 1.057 1.979 1.057 2.683 0 1.503-1.191 3.108-4.531 3.108q-.613 0-1.146-.078c-.21-.03-.393-.087-.585-.135-.129-.032-.272-.052-.392-.092a4 4 0 0 1-.628-.286c-.061-.033-.134-.055-.192-.09a3.3 3.3 0 0 1-.513-.404c-.043-.04-.098-.069-.139-.11l-.029-.03-.028-.021a2.74 2.74 0 0 1-.751-1.863c0-1.455 1.29-4.173 4.399-4.173zm110.668 2.362c-2.657 0-3.215 2.479-3.215 2.968 0 .85.844 1.758 3.215 1.758 2.109 0 3.367-.657 3.368-1.758 0-.628-.572-2.968-3.368-2.968m-103.382-1.978 4.342 2.388 7.369 4.05a2599 2599 0 0 1 11.396-6.742 49 49 0 0 0 2.611-1.645 44 44 0 0 0 2.283-1.65l.168-.13a40 40 0 0 0 2.021-1.688l.193-.172a36 36 0 0 0 1.813-1.762l.059-.063-10.131-5.537zm169.55-52.677-.001.004v50.948l14.862 8.112c16.968-9.848 33.8-19.634 45.487-26.43l15.522-9.011c1.569-.898 2.433-1.776 2.435-2.476.002-.413-.289-.876-.847-1.368l-.027-.024c-.065-.057-.142-.116-.215-.173-.059-.047-.113-.093-.176-.14l-.104-.073a11 11 0 0 0-.878-.565c-2.659-1.537-46.936-25.355-67.239-36.271l-8.819-4.74zm-8.529 50.655q.586.002 1.093.108c2.363.491 3.439 2.549 3.439 4.066 0 1.502-1.19 3.107-4.532 3.107-3.248 0-4.4-1.674-4.4-3.107 0-1.456 1.291-4.174 4.4-4.174m-168.309 3.279c-2.277.002-2.756 2.117-2.756 2.533 0 .114.031.393.26.677q.013.02.029.039l.027.028c.33.353.888.583 1.633.675q.371.045.802.046c1.809 0 2.889-.548 2.889-1.466 0-.424-.202-1.086-.656-1.607l-.023-.028c-.034-.038-.074-.066-.11-.101a2.6 2.6 0 0 0-.335-.295c-.023-.016-.052-.027-.076-.043a2.6 2.6 0 0 0-.437-.235c-.036-.014-.078-.02-.115-.033a3 3 0 0 0-.471-.134c-.143-.025-.3-.031-.454-.039-.07-.004-.135-.017-.207-.017m-132.71-4.366 15.248 8.079v-7.547l-8.096-4.289zm219.262-.574c3.456 0 5.01 2.694 5.01 4.608 0 1.644-1.318 3.401-5.011 3.401-.339 0-.638-.031-.936-.062-.096-.01-.208-.008-.3-.02-.159-.023-.289-.066-.436-.097-2.299-.481-3.183-1.933-3.183-3.223 0-1.607 1.425-4.607 4.856-4.607m81.757 3.303c-2.278 0-2.758 2.114-2.759 2.532 0 .708.725 1.466 2.759 1.467 1.809 0 2.89-.549 2.89-1.467 0-.536-.491-2.532-2.89-2.532m-189.62-3.569c3.126 0 4.531 2.443 4.531 4.176v.001c0 .837-.364 2.659-3.371 3.033l-.022.003a9 9 0 0 1-1.103.068l-.036.003c-3.246 0-4.399-1.675-4.399-3.108 0-.489.15-1.12.461-1.743.615-1.233 1.875-2.433 3.939-2.433m107.863 1.907c-2.655.001-3.214 2.478-3.214 2.967 0 .713.606 1.459 2.192 1.685.07.01.13.026.204.034.091.009.2.008.297.015.17.011.333.025.521.025 2.14 0 3.368-.641 3.368-1.76-.001-.626-.572-2.965-3.368-2.966m167.774-54.12 7.029 10.624 3.35 1.784.007.005c5.342 2.826 11.65 7.334 11.511 12.802.002.022.013.041.013.064v7.835l16.858 25.472 10.707-6.164-38.768-58.586zm-107.835 50.729c3.125 0 4.532 2.441 4.532 4.175 0 .837-.363 2.66-3.371 3.035l-.023.003c-.336.04-.696.067-1.1.068l-.038.003c-3.247 0-4.399-1.675-4.4-3.109 0-1.456 1.291-4.175 4.4-4.175m-167.803 3.126c-1.023 0-1.67.432-2.087.94-.047.058-.105.112-.146.171-.011.015-.017.03-.027.045-.379.568-.498 1.175-.498 1.378.001.708.725 1.466 2.759 1.466.07 0 .13-.006.198-.007 1.681-.041 2.685-.574 2.691-1.451l.001-.008c-.001-.536-.492-2.534-2.891-2.534m83.008-4.971c3.456 0 5.01 2.695 5.01 4.608 0 1.023-.489 3.401-5.01 3.401-3.585 0-4.857-1.832-4.857-3.401.001-1.607 1.425-4.608 4.857-4.608m84.795 3.486c-2.277 0-2.758 2.116-2.758 2.534 0 .709.725 1.466 2.758 1.466.073 0 .136-.005.206-.006 1.68-.042 2.683-.577 2.683-1.459 0-.536-.49-2.535-2.889-2.535m-160.272-4.357c3.125 0 4.531 2.441 4.532 4.176 0 .015-.005.031-.005.046a3 3 0 0 1-.051.504l-.005.022c-.177.911-.88 2.16-3.314 2.463l-.007.001a9 9 0 0 1-1.144.071h-.01c-3.246 0-4.399-1.674-4.399-3.107 0-1.457 1.291-4.176 4.399-4.176zm75.477 2.512c-2.655 0-3.214 2.479-3.214 2.967 0 .851.844 1.759 3.214 1.759q.377 0 .717-.027l.101-.01c1.151-.104 1.949-.438 2.317-.966l.023-.04q.089-.136.14-.291c.039-.131.07-.268.07-.425 0-.627-.572-2.967-3.368-2.967m-96.362-17.435 30.673 16.869 9.604 5.281 22.117-12.946-62.394-34.096zm129.716 16.292c-2.656 0-3.215 2.477-3.215 2.966 0 .851.844 1.76 3.215 1.76 2.141 0 3.369-.641 3.369-1.76-.001-.626-.573-2.966-3.369-2.966m58.971-2.856c3.127 0 4.533 2.44 4.533 4.173 0 1.503-1.19 3.108-4.533 3.108-3.247 0-4.399-1.675-4.399-3.108 0-1.455 1.291-4.173 4.399-4.173M187.9 282.977c-2.276.001-2.755 2.117-2.755 2.534 0 .708.723 1.465 2.755 1.466l.035-.001c1.678-.007 2.71-.492 2.833-1.304.006-.054.021-.104.021-.161 0-.536-.491-2.533-2.889-2.534m167.804-1.489c-2.278 0-2.758 2.117-2.758 2.533 0 .709.725 1.466 2.758 1.466 1.81 0 2.892-.548 2.892-1.466 0-.535-.491-2.533-2.892-2.533m-83.341-4.446q.516.001 1.002.085l.005.001q.469.08.903.235l.059.027c.027.01.049.025.075.036.245.098.478.206.688.333.059.035.106.079.163.116.167.112.334.224.479.351.096.083.174.175.26.263.088.091.185.177.264.272q.227.274.403.565l.009.014c.494.811.704 1.678.704 2.314 0 1.644-1.317 3.401-5.01 3.401l-.169-.004-.124-.004c-1.686-.049-2.827-.522-3.547-1.171-.721-.648-1.021-1.473-1.021-2.226 0-.088.008-.191.02-.3.071-.718.389-1.62.985-2.415q.034-.047.069-.092a6 6 0 0 1 .367-.42l.047-.047c.758-.759 1.845-1.334 3.369-1.334m-195.416 4.154 7.274 3.853v-62.467l-7.274-3.853zm-8.91 3.817 3.728-1.958 3.54-1.861v-63.335l-7.269-3.851zm266.355-8.731c2.734 0 4.153 1.87 4.464 3.499q.067.351.067.678 0 .283-.058.564c-.273 1.314-1.551 2.543-4.473 2.543-3.248 0-4.4-1.674-4.4-3.107 0-1.456 1.291-4.177 4.4-4.177m-167.378 7.172c1.581-.001 2.606-.42 2.838-1.14a1 1 0 0 0 .049-.327c0-.066-.007-.156-.025-.261-.127-.741-.765-2.27-2.862-2.272zm105.353-4.767c-2.656 0-3.216 2.479-3.216 2.967 0 .3.11.612.36.887.032.035.076.067.113.101.057.053.111.107.181.157.08.057.179.108.276.159.04.021.073.045.116.065q.201.092.447.164l.051.018c.371.105.819.174 1.351.194l.045-.001.029.001.238.007q.393 0 .744-.029c.128-.011.242-.03.361-.046.104-.014.215-.023.312-.041.081-.015.148-.037.223-.055 1.109-.257 1.729-.801 1.729-1.589-.001-.485-.213-1.225-.73-1.841a3 3 0 0 0-1.274-.892l-.037-.014c-.06-.02-.124-.03-.184-.047a3.9 3.9 0 0 0-1.135-.165m62.026-.761c-2.28 0-2.76 2.116-2.76 2.533 0 .177.046.357.145.527.299.512 1.088.939 2.614.939 1.131 0 1.977-.214 2.453-.599.285-.231.437-.523.437-.867 0-.535-.491-2.533-2.889-2.533m-159.847-4.314c3.125 0 4.532 2.442 4.532 4.175l-.005.046a3 3 0 0 1-.055.526c-.178.912-.881 2.161-3.317 2.463l-.003.001a10 10 0 0 1-1.148.072h-.007c-3.247 0-4.399-1.675-4.399-3.108 0-1.455 1.29-4.175 4.399-4.175zm167.381-1.529c3.125 0 4.531 2.442 4.531 4.175 0 1.502-1.191 3.107-4.531 3.107h-.004c-3.248 0-4.4-1.674-4.4-3.107.001-1.456 1.291-4.175 4.4-4.175zm-167.383 3.171c-2.276.001-2.756 2.116-2.756 2.533 0 .708.725 1.466 2.757 1.466l.022-.001c1.686-.004 2.722-.49 2.845-1.304.007-.054.022-.104.022-.161 0-.535-.492-2.532-2.89-2.533m106.321-1.31c-1.992.001-2.805 1.395-3.087 2.298a2.6 2.6 0 0 0-.129.67c.001.851.846 1.759 3.216 1.759 2.14 0 3.367-.641 3.367-1.759 0-.627-.571-2.967-3.367-2.968m61.06-.219c-2.276.001-2.756 2.116-2.756 2.533 0 .708.724 1.465 2.756 1.466 1.809-.001 2.888-.549 2.888-1.466 0-.536-.49-2.532-2.888-2.533m-110.117-9.065c3.454 0 5.008 2.696 5.008 4.61v.007c0 .471-.1.911-.298 1.306-.466.952-1.665 2.094-4.71 2.094-3.584 0-4.857-1.831-4.857-3.4v-.007c0-.877.469-2.281 1.497-3.291.871-.852 1.969-1.294 3.269-1.313q.045-.005.091-.006m0 1.651c-.895 0-1.639.283-2.21.843l-.032.036a3.4 3.4 0 0 0-.41.51l-.073.117a3.7 3.7 0 0 0-.305.638 4 4 0 0 0-.114.364q-.016.061-.027.117c-.026.13-.044.248-.044.329v.006c.001.849.845 1.756 3.215 1.756 1.716 0 2.866-.418 3.239-1.18q.127-.26.128-.574c-.002-.63-.576-2.962-3.367-2.962m73.242-5.278c3.126 0 4.533 2.442 4.533 4.176 0 1.502-1.191 3.107-4.533 3.107-3.247 0-4.4-1.674-4.4-3.107 0-1.456 1.291-4.176 4.4-4.176m-64.254-1.533c3.455 0 5.01 2.696 5.01 4.609 0 1.644-1.318 3.401-5.011 3.401-.913 0-1.715-.118-2.394-.352a5 5 0 0 1-.636-.271c-1.694-.879-1.826-2.348-1.826-2.778 0-.089.007-.197.02-.315q.007-.054.018-.11c.012-.092.027-.185.048-.288l.011-.041c.172-.783.61-1.844 1.55-2.684l.012-.012.001-.002c.855-.758 1.918-1.144 3.156-1.153.014 0 .027-.004.041-.004m64.254 3.175c-2.278 0-2.757 2.117-2.757 2.534 0 .708.725 1.466 2.757 1.466 1.81 0 2.891-.548 2.891-1.466q.001-.102-.025-.263c-.127-.741-.765-2.271-2.866-2.271m-42.417-2.944 11.997 6.62c.02-.632.041-1.263.046-1.894.001-.178.008-.361.008-.537v-4.94l-12.051-6.572zm-21.837 1.411c-.73 0-1.353.2-1.87.571-.079.057-.163.107-.237.173-.829.738-1.109 1.835-1.109 2.223q0 .042.005.096c.025.267.174.829.936 1.225q.21.108.458.191c.495.164 1.104.247 1.817.247 2.14 0 3.367-.641 3.367-1.759 0-.627-.571-2.967-3.367-2.967m71.785-4.309c3.126 0 4.532 2.441 4.532 4.174 0 1.502-1.19 3.108-4.532 3.108-3.247 0-4.399-1.674-4.399-3.108 0-1.456 1.291-4.174 4.399-4.174m-96.252-.924c3.351.076 4.865 2.716 4.865 4.601 0 .597-.174 1.17-.503 1.655-.539.796-1.757 1.745-4.503 1.745h-.003c-3.586 0-4.858-1.832-4.858-3.4 0-.668.313-1.705.946-2.609.098-.139.183-.283.296-.414.138-.158.299-.282.452-.418.099-.086.185-.19.289-.267.033-.025.074-.039.108-.063.237-.165.484-.316.749-.432.106-.047.225-.067.335-.106.205-.072.407-.152.626-.196.157-.032.327-.031.49-.048.186-.019.366-.054.56-.055h.01c.048 0 .093.006.141.007m96.252 2.566c-2.277 0-2.758 2.114-2.758 2.532 0 .709.725 1.468 2.758 1.468 1.81 0 2.891-.549 2.891-1.468-.001-.536-.491-2.532-2.891-2.532m-96.397-.931c-.986 0-1.786.344-2.377 1.022-.632.725-.837 1.622-.837 1.944 0 .85.844 1.759 3.215 1.759 1.583 0 2.699-.363 3.142-1.022q.222-.325.222-.737c0-.627-.572-2.965-3.365-2.966m33.108-1.139c-2.655.002-3.214 2.478-3.214 2.966 0 .85.845 1.758 3.214 1.759.5 0 .96-.038 1.367-.112h.003q.208-.039.397-.09l.108-.031q.146-.042.278-.094l.091-.035q.16-.067.296-.145.012-.005.023-.012.306-.178.499-.411l.009-.011a1.3 1.3 0 0 0 .253-.501c.013-.054.018-.113.025-.171.005-.049.016-.096.016-.146 0-.746-.52-2.139-1.917-2.7a3.8 3.8 0 0 0-1.448-.266m41.471-2.983c3.125 0 4.532 2.442 4.532 4.176 0 .934-.442 3.107-4.532 3.107-3.247 0-4.4-1.674-4.4-3.107 0-1.456 1.291-4.176 4.4-4.176m0 1.641c-2.278.001-2.758 2.118-2.758 2.535 0 .708.725 1.465 2.758 1.465 1.81 0 2.89-.548 2.89-1.465 0-.536-.49-2.535-2.89-2.535m-38.891-1.268 3.023 1.668 6.091 3.361v-7.313l-.757-.414-8.357-4.557zm-26.7-3.057c3.455.001 5.009 2.695 5.009 4.608v.004c0 1.644-1.316 3.401-5.009 3.401-3.585 0-4.858-1.833-4.858-3.401v-.004c0-1.607 1.426-4.608 4.858-4.608m0 1.646c-2.654 0-3.215 2.472-3.216 2.964.001.85.846 1.757 3.216 1.757 2.139 0 3.366-.64 3.367-1.757-.001-.629-.574-2.964-3.367-2.964m73.122-3.166q.586.001 1.093.107c2.363.491 3.439 2.55 3.439 4.067 0 .563-.168 1.142-.554 1.644-.642.837-1.89 1.465-3.978 1.465-3.247 0-4.398-1.675-4.398-3.109 0-1.456 1.29-4.174 4.398-4.174m-97.977-2.074c3.455 0 5.009 2.695 5.009 4.608 0 .478-.116.932-.327 1.343a3 3 0 0 1-.324.511l-.013.011c-.158.194-.37.397-.641.59a4 4 0 0 1-.206.137 4.5 4.5 0 0 1-.689.343 6 6 0 0 1-1.221.335c-.126.022-.26.037-.392.053-.319.039-.66.065-1.035.071-.057 0-.104.01-.162.01-3.585 0-4.857-1.831-4.857-3.4 0-.381.098-.882.295-1.408.181-.485.444-.992.81-1.453.635-.799 1.802-1.751 3.753-1.751m97.977 3.714c-2.277.001-2.757 2.116-2.758 2.534 0 .709.725 1.466 2.758 1.466 1.131 0 1.977-.214 2.453-.598.285-.231.437-.523.437-.867 0-.536-.491-2.535-2.89-2.535m-97.978-2.069c-1.043 0-1.873.38-2.466 1.129a3.7 3.7 0 0 0-.586 1.074 2.6 2.6 0 0 0-.162.76c0 .85.845 1.759 3.215 1.759 1.5 0 2.593-.334 3.079-.938q.144-.176.215-.381.074-.206.074-.436c0-.627-.572-2.967-3.369-2.967m76.666-3.135c3.126 0 4.532 2.442 4.532 4.176q0 .283-.058.566c-.274 1.313-1.552 2.541-4.475 2.542a7 7 0 0 1-1.502-.152c-.052-.011-.11-.014-.161-.026l-.005-.002c-1.761-.414-2.531-1.499-2.696-2.504a3 3 0 0 1-.035-.424c0-.902.531-2.485 1.893-3.425l.033-.026q.308-.21.673-.369a4.5 4.5 0 0 1 1.801-.356m-38.023 1.018 11.267 6.216v-7.245l-11.267-6.142zm-5.289.97c-2.657 0-3.216 2.479-3.216 2.966 0 .851.845 1.759 3.216 1.759 2.109 0 3.368-.657 3.368-1.759 0-.626-.572-2.966-3.368-2.966m43.311-.346a2.9 2.9 0 0 0-1.156.224c-1.222.528-1.601 1.877-1.601 2.31 0 .231.105 1.011 1.468 1.332.384.089.819.134 1.29.134 1.131 0 1.977-.214 2.453-.599.285-.231.437-.523.437-.867a2.2 2.2 0 0 0-.114-.622c-.251-.788-.977-1.912-2.777-1.912m-67.678-5.313c3.455 0 5.009 2.696 5.009 4.61 0 1.643-1.316 3.399-5.009 3.399-3.585 0-4.857-1.831-4.858-3.399 0-1.607 1.426-4.61 4.858-4.61m75.21-.53c3.125 0 4.531 2.442 4.531 4.176q0 .283-.058.565c-.273 1.314-1.552 2.543-4.474 2.543-2.03 0-3.241-.654-3.864-1.495a2.7 2.7 0 0 1-.536-1.613q0-.275.062-.598c.29-1.496 1.619-3.578 4.339-3.578m-75.21 2.171c-2.657 0-3.216 2.48-3.216 2.969 0 .85.845 1.758 3.216 1.758 2.14 0 3.368-.641 3.368-1.758 0-.627-.572-2.969-3.368-2.969m75.21-.529c-1.709 0-2.407 1.191-2.649 1.963-.08.256-.11.467-.11.571 0 .177.045.358.144.528.3.512 1.089.939 2.615.939 1.13 0 1.976-.214 2.452-.599.285-.231.437-.524.437-.868 0-.134-.03-.36-.114-.622-.25-.788-.976-1.912-2.775-1.912m-100.322-4.542c3.455 0 5.009 2.695 5.009 4.609v.003a2.93 2.93 0 0 1-.573 1.75c-.555.753-1.776 1.65-4.436 1.65-3.585 0-4.857-1.831-4.857-3.4 0-.071.019-.165.026-.244.063-.764.415-1.824 1.154-2.705.905-1.087 2.178-1.663 3.677-1.663m1.608-21.209 41.866 23.097 9.653 5.326v-7.163l-45.475-24.799zm-1.608 22.854c-1.014 0-1.829.361-2.419 1.072a3.7 3.7 0 0 0-.756 1.57 1.7 1.7 0 0 0-.039.322c0 .85.845 1.758 3.214 1.758 1.544 0 2.651-.348 3.115-.98.167-.229.252-.491.253-.777-.001-.629-.574-2.965-3.368-2.965m33.611-1.316c-2.657 0-3.217 2.479-3.217 2.968 0 .85.846 1.758 3.217 1.758 2.108 0 3.368-.657 3.368-1.758 0-.628-.573-2.968-3.368-2.968m237.86 1.115 3.749 2.01.582.311-4.331-6.544zm-262.483-6.603q.324 0 .626.031c3.017.303 4.383 2.784 4.383 4.578 0 1.022-.489 3.399-5.009 3.399-3.585 0-4.857-1.832-4.858-3.4 0-1.406 1.091-3.88 3.663-4.477a5.3 5.3 0 0 1 1.195-.131m0 1.641c-.332 0-.631.039-.901.108-1.886.481-2.315 2.431-2.315 2.859 0 .851.845 1.759 3.216 1.759q.377-.001.717-.029l.101-.008c1.152-.105 1.95-.439 2.317-.968l.021-.034a1.33 1.33 0 0 0 .211-.712l.001-.008c0-.549-.438-2.409-2.42-2.865a4.2 4.2 0 0 0-.948-.102m55.938-4.543c.827 0 1.583.177 2.25.525a1 1 0 0 1 .082.04c1.512.838 2.199 2.46 2.199 3.611v.008c0 .108-.012.25-.035.403q-.008.06-.018.117a3 3 0 0 1-.091.343l-.022.07c-.168.471-.517.989-1.171 1.409l-.062.038a4 4 0 0 1-.4.215c-.066.031-.137.055-.205.083-.117.046-.219.099-.349.139l-.086.023c-.604.177-1.289.263-2.093.263-3.247 0-4.398-1.674-4.398-3.107v-.004c0-1.456 1.29-4.176 4.399-4.176m-80.478.945c-.279 0-.539.036-.787.091q-.065.013-.128.03a3 3 0 0 0-.668.265l-.039.025v4.09c.109.031.208.07.327.094q.12.026.247.047c.325.05.672.083 1.056.083 1.781 0 2.599-.447 2.97-.821.259-.262.391-.578.391-.939 0-.626-.572-2.963-3.365-2.965zm80.477.702c-2.274 0-2.755 2.108-2.757 2.53.002.708.726 1.465 2.758 1.465.652 0 1.222-.073 1.695-.217.107-.033.219-.081.33-.13.035-.016.073-.031.106-.048q.165-.086.31-.201c.023-.019.05-.037.072-.057.091-.081.165-.179.227-.285.014-.024.034-.046.045-.071.064-.133.104-.282.105-.454-.002-.43-.204-1.124-.719-1.675-.015-.016-.037-.027-.053-.043a2.5 2.5 0 0 0-.581-.452c-.445-.244-.95-.362-1.538-.362m80.404-22.35 47.358 25.639v-11.66l-47.358-25.935zm-127.843 20.504c-.992 0-1.691.346-2.178.805l-.008.005c-.063.059-.106.127-.162.19-.666.748-.868 1.685-.868 1.967 0 .85.846 1.758 3.216 1.759 2.14-.001 3.367-.642 3.367-1.759 0-.627-.572-2.966-3.367-2.967m54.971-3.997c3.126 0 4.531 2.441 4.531 4.175 0 1.502-1.19 3.107-4.531 3.107-3.248 0-4.4-1.674-4.4-3.107 0-1.456 1.291-4.175 4.4-4.175m-79.016-1.665c3.455 0 5.009 2.694 5.01 4.607 0 1.645-1.318 3.402-5.011 3.402-3.137 0-4.503-1.403-4.795-2.805a3 3 0 0 1-.062-.597c0-.2.023-.423.069-.659.319-1.651 1.786-3.948 4.789-3.948m79.016 3.307c-2.279 0-2.758 2.116-2.758 2.533 0 .709.724 1.467 2.758 1.467 1.809-.001 2.89-.549 2.89-1.467 0-.535-.491-2.533-2.89-2.533m-79.016-1.666c-1.993.001-2.805 1.395-3.087 2.297a2.5 2.5 0 0 0-.129.669c0 .213.053.429.169.634.349.615 1.269 1.126 3.047 1.126l.033-.001c1.943-.007 3.143-.58 3.303-1.542.011-.072.031-.14.031-.217 0-.627-.572-2.965-3.367-2.966m57.418-3.539c1.598.001 2.935.66 3.763 1.859.482.694.769 1.56.769 2.316v.004c0 .786-.307 1.483-.888 2.017-.786.724-2.013 1.091-3.644 1.092-2.842 0-4.08-1.284-4.344-2.565a2.7 2.7 0 0 1-.057-.548c0-1.455 1.292-4.175 4.401-4.175m0 1.645c-2.278 0-2.758 2.117-2.758 2.534q0 .132.035.264c.168.619.945 1.198 2.723 1.198 1.502 0 2.205-.356 2.53-.655q.36-.334.36-.81c0-.317-.126-.867-.476-1.381a2.7 2.7 0 0 0-.402-.448c-.07-.063-.157-.119-.24-.178-.089-.063-.178-.128-.276-.179-.118-.063-.258-.111-.399-.16-.091-.03-.178-.068-.276-.09a3.6 3.6 0 0 0-.683-.081c-.048-.002-.089-.014-.138-.014m-48.921-2.844c-2.653 0-3.213 2.472-3.215 2.964.002.85.847 1.758 3.215 1.758 2.139 0 3.367-.641 3.368-1.758-.001-.63-.575-2.964-3.368-2.964m56.456-3.001c3.126 0 4.532 2.441 4.532 4.174 0 1.502-1.19 3.107-4.532 3.107-3.247 0-4.399-1.673-4.399-3.107 0-1.455 1.29-4.174 4.399-4.174m0 1.641c-2.278 0-2.759 2.116-2.759 2.533 0 .709.725 1.467 2.759 1.467 1.81 0 2.892-.549 2.892-1.467-.001-.535-.492-2.533-2.892-2.533m10.701-47.401a9 9 0 0 0-1.138.04q-.091.01-.182.023c-.423.049-.857.118-1.311.224.017.052.03.11.046.164q.028.094.054.19.13.448.244.921l.055.236q.108.468.202.961l.045.251a29 29 0 0 1 .202 1.274q.078.567.139 1.165l.017.175q.067.676.112 1.385l.001.021c.064 1.002.099 2.051.099 3.155v36.243l9.115 4.939v-35.894c0-7.739-1.528-12.637-4.545-14.558l-.792-.422-.021-.008a5.6 5.6 0 0 0-.935-.304c-.056-.013-.111-.03-.169-.042a7 7 0 0 0-1.238-.139m-32.523 42.349c3.125 0 4.532 2.441 4.532 4.174l-.002.016c-.005.942-.461 3.092-4.53 3.092-3.248 0-4.401-1.675-4.401-3.108.001-1.456 1.292-4.174 4.401-4.174m109.611-18.692 2.599 1.423 43.905 24.042v-8.668c0-.145.04-.285.109-.407l.003-.003c.015-.026.045-.04.063-.064a.8.8 0 0 1 .225-.231l.009-.002.006-.006 1.92-1.097-38.371-21.014zm-109.611 20.334c-2.278 0-2.759 2.114-2.759 2.532 0 .709.725 1.467 2.759 1.467 1.772 0 2.839-.528 2.883-1.412 0-.019.006-.036.006-.055 0-.536-.491-2.532-2.889-2.532m7.53-5.843c3.126 0 4.532 2.441 4.532 4.175 0 .934-.442 3.107-4.532 3.107-3.247 0-4.399-1.674-4.399-3.107 0-1.456 1.29-4.175 4.399-4.175m0 1.641c-2.278 0-2.758 2.117-2.758 2.534 0 .709.725 1.466 2.758 1.466 1.81-.001 2.891-.548 2.891-1.466 0-.535-.491-2.533-2.891-2.534m-21.308-5.204c.406 0 .779.045 1.127.121 2.337.505 3.405 2.546 3.405 4.055 0 .935-.441 3.108-4.532 3.108-3.247 0-4.4-1.675-4.4-3.109 0-1.273.989-3.514 3.318-4.054a4.7 4.7 0 0 1 1.082-.121m0 1.642q-.426.002-.773.092c-1.617.411-1.985 2.075-1.985 2.441 0 .709.725 1.466 2.758 1.466 1.809 0 2.89-.548 2.89-1.466 0-.468-.376-2.056-2.077-2.446a3.6 3.6 0 0 0-.813-.087m8.929-9.282 21.404 11.597v-24.128zm-1.398 3.439c3.126 0 4.532 2.442 4.532 4.175l-.002.015c-.005.942-.461 3.092-4.53 3.092-3.248 0-4.401-1.673-4.401-3.107 0-1.455 1.292-4.175 4.401-4.175m0 1.642c-2.279 0-2.759 2.116-2.759 2.533 0 .709.725 1.467 2.759 1.467 1.772 0 2.839-.529 2.882-1.413.001-.019.007-.035.007-.054 0-.535-.49-2.533-2.889-2.533m-12.166-68.035c.061-.001.116.028.176.041.073.015.15.015.217.05l15.033 7.981q.004.002.006.006l.023.011c.064.037.101.101.152.153.046.047.105.082.139.139.046.077.055.169.074.258.01.051.041.094.042.147l-.001.006.001.006v.003a.82.82 0 0 1-.477.745l-62.974 35.702a.82.82 0 0 1-.789.011l-7.181-3.812h-.002l-2.556-1.357-5.295-2.811a.822.822 0 0 1-.02-1.44l63.035-35.737c.055-.031.119-.028.178-.046.073-.021.143-.055.219-.056m-53.469 40.698 5.462 2.895 53.487-30.32-5.36-2.846-.099-.052zm-7.852-4.168 1.595.847 4.537 2.409 54.376-30.825v-6.732zm22.265-57.258c.061 0 .116.028.176.041.073.016.15.015.218.051l7.424 3.94 8.34 4.426a.823.823 0 0 1 .021 1.44l-63.036 35.736a.83.83 0 0 1-.79.012l-.004-.001-7.909-4.198-5.853-3.107-1.998-1.061a.82.82 0 0 1-.02-1.439l63.034-35.737c.063-.036.135-.035.203-.053.065-.017.127-.049.194-.05m-53.467 40.698 6.189 3.285 53.489-30.324-6.19-3.283zm-7.853-4.168 6.134 3.256 54.373-30.824v-6.73zm101.205-6.857 6.344 3.369 6.159-3.492-12.503-6.637zm-39.054-20.727 7.073 3.754 6.159-3.494-8.159-4.331-5.073-2.692z"/>
</svg>
