<svg xmlns="http://www.w3.org/2000/svg" viewBox="0 0 64 64">
  <path fill="#EEF" d="m37.2 1.7 23.2 17a9 9 0 0 1 3.2 10L54.7 56a8.8 8.8 0 0 1-8.4 6.1H17.7A8.8 8.8 0 0 1 9.3 56L.4 28.6a9 9 0 0 1 3.2-10L26.8 1.8a8.7 8.7 0 0 1 10.4 0Z"/>
  <path stroke="#4F0599" stroke-linecap="round" stroke-width="2" d="M13 21h17.6M13 33.3h22M13 45.5h17.6M38.5 21H50m-6.2 12.3H51M39 45.5h11.5"/>
  <circle cx="34.5" cy="21.5" r="3.5" fill="none" stroke="#AE5CFF" stroke-width="2"/>
  <circle cx="39.5" cy="33.5" r="3.5" fill="none" stroke="#AE5CFF" stroke-width="2"/>
  <circle cx="34.5" cy="45.5" r="3.5" fill="none" stroke="#AE5CFF" stroke-width="2"/>
</svg>
