<svg xmlns="http://www.w3.org/2000/svg" viewBox="0 0 64 64">
    <path fill="#EEF" d="m37.2 1.7 23.2 17a9 9 0 0 1 3.2 10L54.7 56a8.8 8.8 0 0 1-8.4 6.1H17.7A8.8 8.8 0 0 1 9.3 56L.4 28.6a9 9 0 0 1 3.2-10L26.8 1.8a8.7 8.7 0 0 1 10.4 0Z"/>
    <path fill="none" stroke="#AE5CFF" stroke-width="2" d="M24.2 39.5H16V43h8.2v-3.5ZM32 33h-7.8v4.5H32v-4.4Zm13 2.5-6 3 3 6.5 6.2-2.7-3.2-6.8Z"/>
    <path fill="none" stroke="#4F0599" stroke-linejoin="round" stroke-width="2" d="M24.2 50.1H16V16h8.2v11.3m0 22.8H32V27.3h-7.8m0 22.8V27.3m20.3 23.1L32.7 25.8l6.2-3 11.8 24.6-6.2 3Z"/>
</svg>
