<svg xmlns="http://www.w3.org/2000/svg" viewBox="0 0 64 64">
  <path fill="#EEF" d="m37.2 1.7 23.2 17a9 9 0 0 1 3.2 10L54.7 56a8.8 8.8 0 0 1-8.4 6.1H17.7A8.8 8.8 0 0 1 9.3 56L.4 28.6a9 9 0 0 1 3.2-10L26.8 1.8a8.7 8.7 0 0 1 10.4 0Z"/>
  <path fill="#4F0599" d="M49.7 19a1 1 0 0 1 1.3.7v24.4c0 .3-.2.6-.4.8h-.2l-18 8a1 1 0 0 1-.7 0h-.2l-17.9-8a1 1 0 0 1-.6-.7V20a1 1 0 0 1 1.2-1h.1l6.5 2.4a1 1 0 0 1-.5 2l-.2-.1-5.1-1.9v22.1L32 51l17-7.5v-22l-5 1.8c-.5.1-1 0-1.3-.5v-.1a1 1 0 0 1 .4-1.2l.1-.1 6.5-2.4Z"/>
  <path fill="#4F0599" d="M44.2 31.6c.2.5 0 1-.4 1.2l-.2.1-11.2 4.5a1 1 0 0 1-.9-1.7l.2-.1L42.9 31c.5-.2 1 0 1.3.5Zm0-6.3c.2.5 0 1-.4 1.2l-.2.1-11.2 4.5a1 1 0 0 1-.9-1.8h.2l11.2-4.5c.5-.3 1 0 1.3.5Z"/>
  <path fill="#AE5CFF" d="M43.2 17a1 1 0 0 1 1.4 1v21.2c0 .4-.3.7-.6 1l-11.4 5.2a1 1 0 0 1-.6.2 1 1 0 0 1-.6-.2L20.1 40a1 1 0 0 1-.6-.9V18a1 1 0 0 1 1.4-1L32 22.2Zm-.6 2.5L33 23.8V43l9.6-4.4v-19Zm-21.1 0v19L31 43V23.8l-9.5-4.3Z"/>
</svg>
