<svg xmlns="http://www.w3.org/2000/svg" viewBox="0 0 64 64">
  <path fill="#EEF" d="m37.2 1.7 23.2 17a9 9 0 0 1 3.2 10L54.7 56a8.8 8.8 0 0 1-8.4 6.1H17.7A8.8 8.8 0 0 1 9.3 56L.4 28.6a9 9 0 0 1 3.2-10L26.8 1.8a8.7 8.7 0 0 1 10.4 0Z"/>
  <path fill="none" stroke="#4F0599" stroke-width="2" d="M19 17h24v32H19z"/>
  <path fill="none" stroke="#AE5CFF" stroke-linecap="round" stroke-width="2" d="M23 23h15m-15 4.6h15m-15 5.2h15M23 38h9.2"/>
  <path fill="#EEF" d="m37.7 41.4 1-5.2L53 20.6c1-.7 3-1.8 4.4-.6 1.4 1.3.2 3.3-.5 4.1L42.5 39.7l-4.8 1.7Z"/>
  <path fill="none" stroke="#4F0599" stroke-linecap="round" stroke-linejoin="round" stroke-width="2" d="m38.7 36.2-1 5.2 4.8-1.7m-3.8-3.5 3.8 3.5m-3.8-3.5L53 20.6M42.5 39.7 57 24.1m-4-3.5 4 3.4m-4-3.4c1-.7 3-1.8 4.4-.6 1.4 1.3.2 3.3-.5 4.1"/>
</svg>
