<svg xmlns="http://www.w3.org/2000/svg" width="550" height="550" fill="none" viewBox="0 0 550 550">
    <path fill="#fff" d="m207.626 171.776-.002 2.632-.019-.007-.337.023a48 48 0 0 0-.086-.647c-.063-.462-.126-.923-.163-1.385a56 56 0 0 1-.084-1.357c-.046-.852-.092-1.703-.214-2.543-.042-.305-.281-.581-.521-.858-.109-.126-.218-.252-.309-.382-.07.144-.159.287-.248.43-.186.298-.371.596-.376.898-.117 5.746-.194 11.494-.272 17.243l-.019 1.431q-.178 12.807-.353 25.616l-.351 25.444q-.149 10.919-.314 21.838c-.023 1.416-.367 1.696-1.58 1.183-8.553-3.612-16.627-8.036-24.016-13.726-6.835-5.262-12.931-11.159-17.331-18.648q-.391-.665-.79-1.329c-1.151-1.923-2.308-3.857-3.114-5.922-1.012-2.592-1.693-5.32-2.372-8.035l-.337-1.341c-.298-1.174-.754-1.086-1.554-.581l-.042.026c-6.958 4.411-13.916 8.822-20.882 13.222q-8.837 5.58-17.68 11.149l-8.85 5.577-3.668 2.311c-6.142 3.87-12.285 7.741-18.397 11.656-.505.326-.975 1.16-.975 1.757.04 9.917.107 19.833.174 29.75s.134 19.834.174 29.751c.093 23.723.164 47.449.235 71.174q.062 21.356.132 42.711l-.001.382c-.005.634-.01 1.284.181 1.857q.385 1.16.762 2.321c1.18 3.629 2.355 7.246 4.178 10.693 3.333 6.299 7.742 11.729 12.843 16.478 4.507 4.198 9.352 8.143 14.855 11.124 1.215.659 2.403 1.379 3.59 2.099 2.034 1.234 4.065 2.466 6.233 3.385 1.335.566 2.667 1.146 3.998 1.726 5.36 2.336 10.727 4.675 16.425 6.149 1.631.422 3.246.911 4.861 1.4 2.03.615 4.06 1.229 6.121 1.711 1.861.436 3.752.742 5.643 1.048 1.773.287 3.546.574 5.294.969 7.912 1.781 15.972 2.24 24.012 2.698l1.986.114c4.15.241 8.322.108 12.493-.025 1.659-.053 3.318-.106 4.976-.136.574-.011 1.224-.141 1.699-.44a2894 2894 0 0 0 13.968-8.79l3.428-2.165 5.405-3.412c10.125-6.392 20.25-12.783 30.405-19.127.67-.421 1.76-.551 2.541-.356 1.425.359 2.835.786 4.244 1.213 1.803.546 3.607 1.092 5.441 1.496l.24.053c6.617 1.459 13.246 2.922 19.934 3.984 4.99.792 10.076 1.102 15.131 1.324 6.765.295 13.546.44 20.316.368 4.255-.046 8.529-.41 12.75-.988 6.153-.842 12.295-1.837 18.376-3.076 5.392-1.099 10.772-2.377 16.011-4.038 4.852-1.54 9.581-3.505 14.293-5.464l.967-.402c8.878-3.681 17.071-8.556 24.525-14.637 8.947-7.301 16.218-15.85 20.041-26.974 1.396-4.064 2.277-8.224 2.303-12.506.069-10.894.088-21.792-.015-32.687-.031-3.394-.375-6.8-.849-10.164-1.08-7.615-4.562-14.208-9.001-20.377-.566-.788-.933-1.886-.979-2.862-.134-2.809-.111-5.625-.027-8.434.027-.796.329-1.661.742-2.349.599-1.001 1.241-1.976 1.882-2.951.813-1.237 1.625-2.472 2.35-3.758 3.797-6.719 5.653-13.971 5.645-21.697q-.002-3.471.007-6.944c.008-4.012.017-8.025-.015-12.036-.034-4.309-.122-8.618-1.251-12.839-.287-1.075-.279-2.292-.138-3.409.13-1.022.335-2.041.54-3.058.332-1.649.664-3.296.673-4.948.05-9.635-.061-19.274-.344-28.906-.081-2.774-.666-5.606-1.5-8.262-1.795-5.709-4.546-10.979-8.163-15.789-.329-.44-.34-1.462-.057-1.955.685-1.187 1.426-2.342 2.167-3.497.794-1.239 1.589-2.477 2.314-3.755 3.586-6.321 5.319-13.175 5.319-20.426 0-6.114-.029-12.228-.059-18.341-.038-7.795-.075-15.59-.052-23.385.019-6.559-.405-12.973-2.793-19.199-2.61-6.796-6.529-12.746-11.419-18.012-6.831-7.359-14.867-13.26-23.813-17.786-5.66-2.863-11.477-5.469-17.4-7.734-4.99-1.91-10.172-3.402-15.372-4.634-6.674-1.58-13.416-2.966-20.197-3.968-3.796-.564-7.64-.815-11.484-1.065a290 290 0 0 1-5.598-.4c-8.538-.72-17.079-.41-25.566.428-7.524.746-15.02 1.932-22.455 3.314-5.648 1.048-11.262 2.472-16.75 4.178-5.146 1.604-10.159 3.678-15.149 5.748a100.1 100.1 0 0 0-24.679 14.671c-6.623 5.354-12.352 11.496-16.542 18.973-4.125 7.362-6.165 15.211-6.05 23.706.13 9.513.133 19.028.136 28.543.002 3.893.003 7.786.013 11.679.005 1.758.003 3.514.002 5.27m142.342 18.41c-8.196 1.293-16.454 1.783-23.641 1.745l.012-.008c-9.701.034-18.246-.563-26.775-1.665a183 183 0 0 1-23.136-4.527c-7.084-1.863-13.972-4.255-20.707-7.117-7.071-3.004-13.795-6.643-20.082-11.036-6.938-4.845-13.114-10.539-18.069-17.442-3.085-4.294-5.637-8.962-7.003-14.044-2.197-8.162-2.411-16.367.382-24.579 2.74-8.055 7.332-14.82 13.191-20.847a80.8 80.8 0 0 1 20.61-15.357c5.224-2.728 10.543-5.346 16.015-7.527 5.193-2.07 10.585-3.72 15.992-5.166 5.655-1.511 11.403-2.744 17.166-3.777 12.594-2.258 25.321-3.027 38.091-2.464 7.358.325 14.74.88 22.026 1.932 5.839.84 11.611 2.205 17.37 3.567l2.628.62c8.071 1.89 15.816 4.787 23.339 8.235 11.331 5.192 21.735 11.813 30.292 20.977 4.906 5.254 8.843 11.209 11.334 18.055 1.772 4.867 2.744 9.895 2.499 15.015-.18 3.712-.93 7.455-1.886 11.06-1.703 6.436-5.182 12.034-9.353 17.135-4.573 5.595-9.865 10.512-15.957 14.427-4.787 3.077-9.643 6.13-14.755 8.602-5.522 2.671-11.316 4.833-17.106 6.888-4.615 1.638-9.348 3.035-14.128 4.079-5.463 1.194-11.002 2.064-16.533 2.933zM215.307 491.661l-2.326 1.463v-2.323l-.085-21.878q-.127-32.82-.263-65.638c-.084-20.683-.187-41.37-.291-62.057-.03-6.528-.069-13.053-.141-19.581-.012-1.052.264-1.745 1.217-2.342 15.429-9.678 30.839-19.39 46.241-29.109 3.977-2.509 7.944-5.033 11.912-7.556q4.305-2.739 8.614-5.47c.273-.171.571-.303.933-.463.183-.08.381-.168.602-.272v2.112q.018 10.48.031 20.96c.02 15.256.04 30.512.103 45.77.138 33.938.325 67.881.547 101.823.008 1.654-.471 2.583-1.906 3.475-7.773 4.841-15.512 9.737-23.25 14.633q-4.432 2.806-8.867 5.606-9.557 6.031-19.119 12.057l-7.281 4.589c-2.166 1.368-4.334 2.731-6.671 4.201M83.724 263.403v2.042l.075 20.484q.088 25.61.193 51.216.09 21.02.189 42.04c.074 16.013.148 32.026.213 48.04.011 3.115.241 6.126 1.121 9.191 1.653 5.736 4.424 10.937 7.833 15.632 3.349 4.608 7.325 8.794 11.802 12.51 6.566 5.449 13.722 9.957 21.33 13.592 7.423 3.547 15.172 6.406 23.155 8.702 7.691 2.212 15.482 3.792 23.335 5.005 8.866 1.37 17.832 2.151 26.84 1.979 2.1-.042 4.201-.036 6.303-.03q1.519.005 3.038.003 2.192-.005 2.189-2.235-.172-55.958-.348-111.922-.093-28.619-.196-57.244c-.007-1.982-.068-2.024-2.028-2.039-1.943-.014-3.887-.018-5.83-.021-4.832-.008-9.665-.016-14.489-.193-4.757-.176-9.544-.525-14.236-1.298a924 924 0 0 0-2.977-.486c-7.067-1.148-14.143-2.298-21.004-4.465-1.311-.415-2.645-.768-3.979-1.121-2.115-.56-4.228-1.119-6.246-1.922l-.857-.341c-7.518-2.992-15.037-5.984-22.023-10.201-7.841-4.741-15.23-9.969-21.238-16.967-.518-.604-1.072-1.187-1.626-1.77-1.184-1.245-2.368-2.489-3.2-3.936a108 108 0 0 0-1.881-3.114c-2.044-3.298-4.095-6.607-4.96-10.498-.017-.072-.072-.135-.191-.271a10 10 0 0 1-.307-.362m357.652-127.831.306.065.012.007-.001 3.562q-.002 3.56.001 7.122.003 3.061.002 6.123c.001 5.44.002 10.881.036 16.321.046 7.898-1.959 15.241-5.824 22.102-4.229 7.508-9.984 13.685-16.685 19.019-7.044 5.606-14.698 10.225-22.994 13.715l-.574.241c-4.877 2.048-9.772 4.105-14.798 5.736-4.861 1.577-9.875 2.712-14.867 3.843l-.539.121a159 159 0 0 1-12.701 2.369c-11.893 1.703-23.844 2.591-35.859 1.81l-.849-.055c-6.075-.394-12.16-.789-18.189-1.575-5.453-.712-10.879-1.818-16.225-3.119-5.878-1.431-11.74-3.023-17.438-5.036-5.174-1.829-10.202-4.136-15.123-6.57-4.248-2.101-8.476-4.378-12.326-7.118-6.176-4.4-12.081-9.142-16.768-15.295-2.323-3.046-4.497-6.138-6.253-9.498-2.48-4.737-4.332-9.796-4.477-15.153-.239-8.741-.297-17.485-.354-26.229-.022-3.304-.043-6.607-.075-9.91 0-.325.111-.655.429-1.033q.256.63.509 1.261c.339.841.677 1.682 1.029 2.516 4.458 10.584 11.928 18.712 20.92 25.588 8.086 6.181 16.964 10.918 26.393 14.718 7.5 3.023 15.18 5.388 23.044 7.255 11.415 2.709 22.975 4.099 34.677 4.745 9.563.528 19.08.188 28.566-.757 6.571-.651 13.103-1.837 19.589-3.108 5.449-1.067 10.895-2.322 16.179-4.006 5.614-1.787 11.094-4.049 16.535-6.333 7.504-3.157 14.477-7.305 21.013-12.15 7.221-5.354 13.546-11.641 18.253-19.325 1.397-2.282 2.434-4.785 3.471-7.289.46-1.11.92-2.22 1.412-3.311.142-.313.263-.634.384-.955zM278.947 275.985l.06.209.007.004a7657 7657 0 0 0-8.346 5.25q-16.06 10.126-32.113 20.258l-5.791 3.656a4295 4295 0 0 1-20.372 12.81c-.761.475-1.783.731-2.69.75-10.596.238-21.188.234-31.712-1.262q-1.062-.151-2.127-.3c-4.845-.68-9.702-1.361-14.465-2.433-7.221-1.626-14.384-3.547-21.471-5.682-3.812-1.152-7.528-2.79-11.079-4.608l-.579-.295c-5.767-2.948-11.564-5.911-16.974-9.44-7.064-4.607-13.35-10.32-18.287-17.178-3.241-4.503-6.337-9.272-7.52-14.912-.278-1.334-.7-2.644-1.12-3.947l-.123-.385c-.352-1.087-.226-1.775.884-2.472 15.436-9.666 30.843-19.386 46.249-29.109 4.373-2.759 8.738-5.533 13.104-8.306q3.714-2.36 7.43-4.716c.242-.152.498-.284.817-.449.179-.092.378-.194.606-.317.176.578.364 1.144.55 1.702.406 1.22.802 2.408 1.031 3.629.712 3.806 2.636 7.035 4.555 10.257q.338.565.672 1.131c4.515 7.661 10.845 13.615 17.794 19.057 5.759 4.508 12.058 8.12 18.586 11.231 7.581 3.612 15.483 6.479 23.603 8.824 7.242 2.092 14.612 3.4 21.983 4.709l1.838.327c4.825.861 9.781 1.105 14.694 1.348l.142.007c4.275.211 8.557.279 12.839.346 1.836.029 3.671.058 5.506.098.39.007.782.005 1.174.002l.586-.002zm-72.276-13.883q-.02.194-.038.411l-.004.008c-1.324.023-1.439-.75-1.431-1.615l.013-1.661c.013-1.655.026-3.312.052-4.966q.116-7.063.236-14.126c.099-5.884.199-11.767.292-17.651l.053-3.293c.215-13.36.429-26.724.804-40.147q.101.25.208.497c.145.338.289.676.397 1.026 3.249 10.404 9.379 18.953 17.109 26.442 8.277 8.017 17.828 14.189 28.111 19.305 6.922 3.444 14.051 6.391 21.421 8.672 5.978 1.848 12.039 3.486 18.146 4.829 6.165 1.354 12.403 2.51 18.667 3.241 5.217.61 10.47.914 15.723 1.217 1.763.102 3.527.204 5.289.318 1.188.077 1.766.101 2.04.402.27.297.246.86.222 2.005-.165 7.481-.291 14.958-.398 22.439-.074 5.115-.137 10.23-.201 15.345a7168 7168 0 0 1-.22 16.734c-.245 16.797-.499 33.591-.753 50.386l-.192 12.716-.175 11.668c-.235 15.69-.47 31.379-.725 47.067-.036 2.275-.109 4.55-.182 6.826a451 451 0 0 0-.174 6.265c-.019 1.076-.432 1.412-1.446 1.332-2.341-.182-4.686-.338-7.03-.495-5.013-.334-10.025-.669-15.008-1.25-4.604-.536-9.173-1.374-13.742-2.212a522 522 0 0 0-5.376-.968c-1.182-.207-2.365-.471-3.497-.853-.421-.142-.988-.697-.995-1.072-.058-3.447-.04-6.897-.022-10.347l.006-1.244c0-.083.047-.164.121-.293.046-.078.101-.175.162-.3q.478.126.961.263c.707.198 1.423.399 2.154.533 5.767 1.06 11.538 2.109 17.316 3.107 2.197.383 2.411.222 2.484-1.936l.15-4.329c.243-6.934.486-13.868.603-20.805.135-8.059.218-16.119.3-24.179.06-5.898.121-11.795.202-17.692.188-13.71.4-27.422.612-41.134l.291-18.956q.061-4.042.125-8.083c.133-8.451.265-16.901.349-25.351.039-3.868-.053-3.907-3.842-4.641a567 567 0 0 0-6.346-1.185c-3.403-.621-6.805-1.243-10.185-1.965-3.719-.792-7.431-1.722-11.028-2.942-6.387-2.166-12.793-4.348-19.004-6.965-13.018-5.484-24.904-12.827-35.01-22.799-5.629-5.557-10.278-11.871-13.619-19.084-.19-.409-.343-.838-.495-1.265-.185-.52-.37-1.04-.622-1.524-.142-.276-.44-.469-.738-.661-.137-.089-.273-.177-.395-.273-.077.132-.175.263-.272.394-.212.285-.423.569-.428.857-.041 2.09-.05 4.182-.06 6.273-.008 1.875-.017 3.75-.047 5.624-.237 14.7-.491 29.403-.744 44.104l-.125 7.25a8 8 0 0 1-.05.706m209.705 78.594c5.354-3.811 10.241-8.128 14.947-12.991l.008-.004q.015.301.035.602c.026.431.053.861.053 1.292q.014 4.022.035 8.045c.037 7.509.073 15.017.022 22.526l-.003.533c-.024 3.579-.048 7.224-.781 10.687-.765 3.62-2.193 7.183-3.853 10.512-4.769 9.563-12.43 16.5-21.112 22.462-6.264 4.302-12.973 7.78-20.017 10.505-5.821 2.25-11.825 4.102-17.86 5.701-5.46 1.447-11.04 2.522-16.626 3.368-3.764.571-7.563.901-11.363 1.231a391 391 0 0 0-5.092.464c-.896.092-1.45-.149-1.412-1.209.029-.811.004-1.635-.021-2.458-.051-1.671-.102-3.34.3-4.893.734-2.828.654-5.638.573-8.445-.029-1.011-.058-2.021-.049-3.031.08-8.713.077-17.426.074-26.139q-.005-5.81.003-11.619c0-2.024.077-2.059 2.074-2.258 1.962-.195 3.927-.367 5.893-.54 4.785-.42 9.571-.84 14.304-1.584 6.173-.968 12.299-2.411 18.334-4.06a178 178 0 0 0 17.25-5.671c8.61-3.337 16.738-7.653 24.284-13.026m25.077 38.375c.13-.455.26-.91.409-1.356l.36-.034q.02.251.048.503c.036.351.072.702.074 1.054q.023 2.524.05 5.049c.05 4.894.101 9.787.084 14.682-.027 7.657-1.932 14.836-5.667 21.544-5.461 9.811-13.386 17.231-22.516 23.534-7.332 5.059-15.227 9.084-23.515 12.222-6.119 2.319-12.425 4.194-18.747 5.905-5.162 1.396-10.435 2.468-15.716 3.321-12.364 2.002-24.82 2.633-37.352 2.258-7.642-.23-15.23-.895-22.769-2.043-4.515-.69-8.989-1.68-13.458-2.669l-2.002-.443c-2.185-.478-4.341-1.093-6.495-1.708q-.955-.273-1.912-.542c-.565-.158-1.119-.368-1.781-.619a67 67 0 0 0-1.077-.402c.597-.388 1.162-.757 1.705-1.112a225 225 0 0 1 3.346-2.16l.713-.449c2.345-1.477 4.69-2.955 7.07-4.373 1.167-.692 1.604-1.576 1.577-2.946-.07-3.432-.065-6.866-.06-10.298l.002-2.656c0-.393.041-.787.086-1.226q.033-.314.064-.668.704.15 1.371.296c1.039.226 2.022.44 3.01.623 1.734.32 3.466.662 5.197 1.003 4.226.834 8.451 1.668 12.716 2.192 4.934.607 9.902.944 14.869 1.28 2.045.138 4.09.277 6.132.434.519.04 1.041.059 1.563.077.734.026 1.467.053 2.194.138 1.129.133 1.55-.356 1.638-1.401.022-.264.027-.548.031-.836.014-.833.028-1.69.455-2.145.354-.38 1.117-.376 1.881-.372.345.002.689.003.997-.03 2.203-.238 4.41-.459 6.616-.681 5.231-.524 10.462-1.049 15.659-1.802 4.894-.708 9.743-1.906 14.526-3.196 5.315-1.431 10.638-2.946 15.762-4.925a168 168 0 0 0 16.807-7.58 97 97 0 0 0 12.72-7.918c6.233-4.572 11.962-9.78 16.286-16.278 2.164-3.253 4.031-6.715 5.889-10.16l.111-.207c.481-.89.765-1.885 1.049-2.88m-10.915-177.937.265.222.008.004q.018.073.042.146a1 1 0 0 1 .061.286c-.002 2.615.011 5.23.024 7.845.033 6.374.065 12.748-.127 19.114-.169 5.476-2.224 10.546-4.876 15.333-3.819 6.888-9.084 12.521-15.191 17.4-7.122 5.687-15.02 10.037-23.378 13.627a128.5 128.5 0 0 1-21.073 6.964c-5.787 1.376-11.685 2.302-17.568 3.225l-.907.143c-2.309.365-4.646.557-6.984.75-1.265.105-2.53.209-3.792.34-1.083.111-1.519-.172-1.5-1.369.167-10.032.312-20.064.456-30.096l.202-13.884c.031-2.123.05-2.124 2.216-2.246l.004-.001c8.529-.486 16.994-1.519 25.317-3.463 6.237-1.458 12.494-2.923 18.601-4.829a123.6 123.6 0 0 0 25.382-11.155c8.056-4.687 15.483-10.163 21.686-17.181.247-.279.429-.613.611-.946q.122-.23.254-.451.133.112.267.222m11.217 84.106c.107.015.21.027.317.038l-.003.004q0 .495.007.989c.007.694.015 1.387-.011 2.08a215 215 0 0 0-.109 4.408c-.062 3.448-.123 6.895-.568 10.294-.938 7.171-4.118 13.52-8.323 19.382-5.721 7.975-13.011 14.232-21.196 19.505-8.408 5.418-17.362 9.735-26.894 12.773l-1.295.413c-5.146 1.642-10.305 3.289-15.558 4.485-6.046 1.382-12.207 2.296-18.353 3.165-2.973.421-5.968.68-8.965.94-1.801.156-3.603.312-5.4.503-1.435.153-1.837-.375-1.795-1.753.188-6.023.337-12.046.414-18.07.019-1.262.482-1.538 1.657-1.664 1.744-.184 3.491-.36 5.238-.536 6.091-.613 12.185-1.227 18.219-2.196 5.839-.939 11.588-2.503 17.303-4.058l.25-.067c4.535-1.236 9.016-2.725 13.416-4.374 6.663-2.495 13.053-5.603 19.18-9.242 8.633-5.131 16.401-11.288 22.776-19.087a55.6 55.6 0 0 0 8.254-13.719c.392-.933.699-1.903 1.005-2.871.142-.449.284-.897.434-1.342m-.455-45.021c.082-.164.177-.351.286-.577.047.199.09.355.125.483.058.21.096.345.094.481-.033 1.72.003 3.443.039 5.167.095 4.496.189 8.992-.942 13.427-.965 3.784-2.224 7.446-4.08 10.921-5.568 10.439-13.891 18.207-23.518 24.789-6.938 4.741-14.419 8.465-22.164 11.602-7.612 3.085-15.464 5.572-23.512 7.229-7.159 1.473-14.399 2.587-21.635 3.655-2.216.325-4.461.442-6.706.56-1.218.063-2.436.127-3.649.224-.949.077-1.275-.306-1.259-1.19q.176-9.563.336-19.126c.016-.815.402-1.09 1.206-1.178 1.943-.216 3.888-.422 5.834-.628 5.638-.596 11.278-1.192 16.877-2.04 5.089-.769 10.133-1.989 15.096-3.379 5.778-1.614 11.561-3.336 17.128-5.556 5.606-2.235 11.029-4.99 16.39-7.783 6.368-3.322 12.134-7.585 17.415-12.441 5.901-5.426 10.925-11.568 14.331-18.9.497-1.072.908-2.184 1.318-3.297.213-.575.425-1.15.649-1.719.088-.222.196-.437.341-.724m-164.832 10.707c.034-.075.079-.175.136-.317l.003-.012 1.201.329c.913.252 1.81.5 2.714.716q2.07.496 4.138.997c4.465 1.078 8.93 2.156 13.415 3.147 2.513.558 5.083.884 7.644 1.208l.377.047c1.278.161 1.963.521 1.947 2.006-.046 5.135-.062 10.271-.078 15.406-.013 4.148-.026 8.296-.055 12.444-.019 2.478-.074 4.955-.129 7.432a596 596 0 0 0-.116 6.271c-.012 1.079-.314 1.508-1.5 1.711-5.247.891-10.483 1.85-15.72 2.809q-3.007.551-6.016 1.098c-.144.026-.294.021-.532.014a16 16 0 0 0-.566-.01l.001-1.517c.001-.997.001-1.985-.001-2.972l-.048-12.651-.048-12.651c-.007-2.2-.08-2.269-2.281-2.254q-.427.005-.856.018c-.873.022-1.747.044-2.603-.06-.402-.046-1.052-.647-1.052-.999-.055-6.155-.053-12.314-.051-18.47l.001-3.518c0-.055.025-.11.075-.222m29.956 92.869c.181-.005.383-.011.617-.026l-.502 30.591-.566 34.501c-.883-.233-1.752-.438-2.605-.641-1.821-.431-3.572-.847-5.247-1.464-3.042-1.124-6.036-2.384-9.029-3.644a535 535 0 0 0-3.595-1.503c-1.267-.52-1.902-1.313-1.902-2.847.015-14.966-.042-29.932-.115-44.895-.008-1.113.26-1.829 1.297-2.41 6.532-3.659 13.558-5.939 20.817-7.589.245-.056.501-.064.83-.073m126.174-142.141.482-.226v-.007l.631 1q.569.906 1.144 1.809a45.7 45.7 0 0 1 5.706 12.999c1.768 6.689 1.71 13.439.042 20.086-1.676 6.67-4.925 12.643-9.18 18.062-5.266 6.712-11.66 12.157-18.716 16.891s-14.611 8.537-22.513 11.541c-5.969 2.273-12.142 4.075-18.31 5.763-5.013 1.37-10.114 2.552-15.253 3.298-4.537.66-9.108 1.086-13.679 1.512-2.268.211-4.537.422-6.802.662-1.106.119-1.488-.298-1.35-1.336q.081-.626.156-1.254c.141-1.17.281-2.339.532-3.483.084-.383.796-.846 1.263-.899 1.687-.192 3.379-.35 5.071-.509 2.402-.225 4.804-.45 7.194-.769 4.121-.551 8.238-1.194 12.302-2.067 4.65-.998 9.303-2.07 13.822-3.524a145 145 0 0 0 14.718-5.618 124 124 0 0 0 13.152-6.872c7.324-4.397 13.845-9.831 19.248-16.497 2.843-3.509 5.231-7.332 7.026-11.492 2.001-4.637 3.226-9.501 3.31-14.549.089-5.338.06-10.678.031-16.018-.012-2.24-.024-4.48-.027-6.72zm-3.068 81.84q.121.065.244.127l.007.004c-.308.726-.605 1.457-.901 2.189-.645 1.59-1.289 3.179-2.057 4.707-5.013 9.987-12.93 17.266-22.083 23.346-7.623 5.063-15.77 9.089-24.48 11.894-5.567 1.794-11.17 3.524-16.845 4.921-8.284 2.036-16.741 3.126-25.256 3.712-1.642.112-2.461.172-2.863-.208-.405-.383-.388-1.211-.363-2.881l.021-1.415c.042-2.839.084-5.68.025-8.519-.026-1.324.463-1.737 1.707-1.829l2.016-.148c3.581-.26 7.165-.52 10.719-.984 4.718-.616 9.429-1.359 14.079-2.342 5.579-1.183 11.162-2.449 16.615-4.103a133 133 0 0 0 14.901-5.548c5.021-2.216 9.968-4.684 14.694-7.47 6.812-4.018 13.156-8.725 18.537-14.61a8 8 0 0 1 .715-.663q.173-.147.341-.298zm3.848 55.82.264-.08v.008c.518.964 1.05 1.921 1.583 2.878 1.207 2.17 2.414 4.34 3.449 6.589a38.4 38.4 0 0 1 3.563 15.85c.08 7.588-1.798 14.641-5.441 21.284-4.179 7.619-9.923 13.856-16.635 19.267a99.3 99.3 0 0 1-24.835 14.66l-.612.251c-4.654 1.904-9.326 3.816-14.128 5.271-5.786 1.757-11.702 3.123-17.618 4.386a178 178 0 0 1-14.97 2.502c-3.003.377-6.03.574-9.056.771-1.582.103-3.164.206-4.743.335-1.167.096-1.741-.302-1.542-1.511q.073-.46.139-.922c.139-.974.279-1.95.622-2.848.18-.47 1.148-.838 1.795-.903 1.601-.164 3.206-.288 4.811-.412 2.399-.186 4.797-.371 7.178-.69 4.81-.643 9.624-1.4 14.369-2.422 5.135-1.106 10.259-2.361 15.272-3.926 7.699-2.403 15.119-5.518 22.199-9.448 5.843-3.245 11.338-6.953 16.305-11.411 5.629-5.055 10.389-10.799 13.665-17.695 2.69-5.663 4.049-11.599 3.991-17.878-.054-5.811-.054-11.624-.053-17.436v-4.552c0-.413.047-.827.094-1.24q.034-.299.063-.597zm7.272-73.688c.101-.169.223-.373.374-.637l.008.004c.095.402.192.756.281 1.079.17.622.308 1.128.346 1.642.501 6.647.214 13.187-2.147 19.554-2.927 7.891-7.657 14.53-13.561 20.412-6.173 6.149-13.179 11.193-20.879 15.222-4.557 2.384-9.172 4.741-13.975 6.544-6.359 2.384-12.872 4.408-19.42 6.218-5.105 1.412-10.32 2.537-15.559 3.299-4.377.635-8.784 1.048-13.191 1.462-2.332.218-4.663.437-6.991.688-1.466.157-2.013-.317-1.841-1.798.245-2.132.693-3.349 3.242-3.44 8.686-.318 17.235-1.742 25.734-3.559 7.665-1.642 15.15-3.873 22.397-6.77 11.216-4.481 21.675-10.335 30.602-18.609 5.748-5.326 10.439-11.48 13.577-18.693.547-1.257.916-2.588 1.285-3.921.287-1.036.575-2.074.946-3.078.475-1.282 1.194-2.526 2.021-3.624 2.636-3.505 4.676-7.332 6.394-11.346.083-.192.192-.373.357-.649m-219.724 1.976v-30.195l-.277.076a7 7 0 0 0-.642.195q-.891.34-1.779.685c-1.369.529-2.736 1.058-4.122 1.539-.251.086-.566-.013-.882-.113a4 4 0 0 0-.434-.121c.086-.112.165-.24.244-.369.169-.276.337-.552.583-.664 1.5-.681 3.038-1.286 4.584-1.867 1.106-.417 1.978-.919 1.791-2.342-.026-.201.132-.422.29-.646.081-.113.161-.226.219-.338.09-.176.201-.353.312-.529.255-.405.51-.811.526-1.227.141-3.712.237-7.428.195-11.14-.011-.849-.467-1.802-.98-2.521-1.445-2.035-2.918-4.051-4.391-6.067-1.53-2.095-3.06-4.189-4.559-6.305-.542-.763-.967-1.612-1.452-2.579a56 56 0 0 0-.791-1.538c-.035.283-.065.5-.09.674-.04.284-.064.457-.067.63l-.046 3.076c-.287 18.798-.574 37.598-.799 56.398-.008.563.581 1.47 1.09 1.646 2.704.928 5.432 1.771 8.366 2.677 1.01.312 2.044.632 3.111.965m63.364 67.6c-.226.036-.466.074-.73.118l-.003-.004c-.015-.267-.03-.501-.044-.713a16 16 0 0 1-.048-1.044q-.007-3.28-.011-6.562c-.008-5.739-.016-11.479-.066-17.217-.011-1.366.425-1.97 1.787-2.204 2.997-.516 5.988-1.057 8.98-1.598a876 876 0 0 1 11.137-1.964c2.277-.379 2.319-.23 2.277 2.093q-.072 3.87-.15 7.74c-.108 5.395-.215 10.789-.282 16.184-.016 1.229-.452 1.615-1.615 1.768-4.665.62-9.322 1.305-13.975 2.028-1.324.205-2.638.476-3.952.747-.696.143-1.393.287-2.091.42a28 28 0 0 1-1.214.208m-51.888-64.93a14 14 0 0 0-.532-.205c9.356-10.324 20.714-17.044 33.388-22.29.017.304.036.561.053.79.028.374.05.671.05.97q.011 3.424.016 6.848c.01 5.393.02 10.787.079 16.181.016 1.347-.394 1.78-1.699 1.669-1.986-.171-3.976-.31-5.965-.45-6.107-.428-12.211-.855-18.227-2.172-1.327-.29-2.674-.497-4.021-.703-.782-.12-1.564-.239-2.342-.376-.256-.045-.5-.142-.8-.262m31.385-23.841-.003.278q-.949.43-1.902.852c-1.405.624-2.811 1.249-4.19 1.927-9.861 4.848-18.957 10.779-26.362 19.022-1.098 1.224-2.238 1.366-3.616 1.022-1.217-.303-2.411-.678-3.605-1.06-1.986-.636-2.418-2.021-.995-3.601a71 71 0 0 1 4.952-5.002c6.406-5.832 13.684-10.401 21.341-14.377.896-.465 1.928-.675 2.951-.883q.474-.094.937-.199c1.026-.234 2.071-.46 3.115-.502.915-.038 1.902.019 2.755.322 1.122.396 2.207.897 3.292 1.397q.665.31 1.335.608zm-40.755 16.199c-.144.101-.312.219-.511.369v-.007c-.176-2.679.758-4.68 1.784-6.704 3.872-7.65 9.501-13.807 16.137-19.115 1.094-.875 1.448-1.335 1.861-1.395.425-.061.91.302 2.325 1.074 2.14 1.169 4.306 2.287 6.473 3.405q1.485.766 2.967 1.539c.163.085.316.185.514.314.114.075.243.159.397.256-.157.054-.291.107-.41.154-.219.086-.387.153-.558.168-3.7.319-6.775 2.137-9.836 3.946q-.69.41-1.38.81c-7.041 4.064-13.577 8.809-19.198 14.737-.145.153-.321.277-.565.449m-.235-6.675c4.381-8.786 10.843-15.339 18.154-21.124l-3.993-2.867-7.725-5.551-.431.553c-.301.382-.59.751-.866 1.13-3.157 4.348-5.866 8.852-5.093 14.584.055.396.023.804-.008 1.212-.019.247-.038.494-.038.74-.005 2.404-.004 4.808-.002 7.323zm83.635 79.989c.177-.006.372-.014.597-.027v-.004c0 .519.007 1.024.013 1.518.016 1.31.032 2.544-.074 3.766-.034.41-.769.949-1.278 1.095-1.088.315-2.19.584-3.292.853-1.774.433-3.545.866-5.249 1.489-2.902 1.061-5.746 2.284-8.59 3.506-1.196.514-2.391 1.028-3.59 1.53-.391.16-.781.321-1.447.597q0-1.094-.004-2.149c-.007-2.347-.013-4.571.058-6.79.011-.33.715-.804 1.175-.923l.886-.228c3.585-.924 7.172-1.848 10.793-2.623 2.154-.459 4.338-.794 6.52-1.13q1.337-.203 2.671-.419c.247-.04.499-.049.811-.061m-22.688 77.478h-.084l-.004.004v-1.504c-.004-2.415.157-2.43 2.453-1.875 3.906.946 7.831 1.805 11.756 2.663q1.588.347 3.176.697c.497.109.999.199 1.501.288.831.148 1.661.296 2.467.534.394.115.872.777.884 1.202.022.817-.036 1.636-.095 2.456a34 34 0 0 0-.096 1.746c-.023 1.239-.536 1.718-1.784 1.488-1.541-.28-3.085-.549-4.629-.817a420 420 0 0 1-6.602-1.184 110 110 0 0 1-3.704-.8c-1.206-.275-2.411-.55-3.624-.784-1.274-.249-1.822-.846-1.63-2.162.063-.44.046-.89.03-1.34-.007-.205-.015-.409-.015-.612m-18.816-183.29q.057-.142.108-.279h.003q.59.179 1.176.364c.869.272 1.738.544 2.617.776 1.903.502 3.803 1.026 5.702 1.551 4.523 1.249 9.046 2.498 13.63 3.435a159.5 159.5 0 0 0 29.262 3.249c3.433.06 6.869.053 10.305.046q2.442-.007 4.883-.004.142 0 .282-.005c.742-.02 1.417-.038 1.352 1.234l-.012.252c-.12 2.373-.122 2.425-1.71 2.388a219 219 0 0 1-26.66-2.254 203 203 0 0 1-26.545-5.74c-3.231-.924-6.406-2.044-9.581-3.164-1.308-.461-2.616-.923-3.928-1.37-.208-.07-.403-.19-.598-.31q-.142-.088-.286-.169m6.498 44.064v-25.302c.326.109.639.204.94.295.694.21 1.322.4 1.896.696.325.169.57.816.57 1.248.033 4.503.047 9.006.061 13.509q.012 4.158.031 8.314c.003.881-.314 1.305-1.233 1.248a20 20 0 0 0-1.457-.015q-.38.007-.808.007m12.233 129.516c-.005-.42-.011-.861-.011-1.334l.004-.004 1.382.68c.976.481 1.832.903 2.694 1.314a72.6 72.6 0 0 0 16.294 5.487q.136.028.286.049c.329.052.677.105.839.3.271.327.45.732.629 1.138.076.172.152.344.236.511-.136.066-.275.154-.414.242-.303.192-.608.385-.884.351-1.886-.226-3.773-.497-5.621-.914-2.615-.588-5.221-1.21-7.828-1.831a804 804 0 0 0-6.182-1.457c-1.163-.267-1.515-.929-1.45-2.047.047-.792.037-1.589.026-2.485M266.763 248.35l.002-.921h.004q3.092.693 3.1 3.252.011 5.384.025 10.767.013 5.382.024 10.766v1.822l-1.163.172c-1.312.187-1.879-.245-1.856-1.703.057-3.517.028-7.037-.001-10.557l-.018-2.239c-.015-2.176-.044-4.352-.073-6.529l-.042-3.256c-.005-.51-.003-1.021-.002-1.574m17.312 90.684q-.155.035-.346.082l-.004.004c-.452-2.013-.306-2.224 1.515-2.526q2.628-.436 5.256-.875c4.76-.794 9.52-1.588 14.287-2.343.482-.079.993.033 1.502.144.236.051.47.102.702.135a8 8 0 0 0-.607.361c-.429.272-.857.544-1.31.596-6.976.799-13.791 2.349-20.522 4.305-.149.043-.298.077-.473.117m-59.996-107.756q-.485.721-.972 1.449v-11.982q.599.542 1.159 1.044c1.218 1.096 2.306 2.075 3.364 3.085.176.169.226.708.092.919-1.191 1.833-2.411 3.65-3.643 5.485m-48.345 186.357.003-12.1h-.279v-2.56l-.04-13.026q-.058-19.47-.125-38.94a364 364 0 0 0-.054-4.675q-.024-1.502-.042-3.005c-.007-.754-.092-1.229-1.075-1.427-2.254-.453-4.513-.873-6.773-1.294-5.901-1.099-11.803-2.198-17.614-3.861-8.121-2.327-16.007-5.212-23.596-8.798-8.097-3.826-15.827-8.418-22.435-14.56-2.4-2.23-4.636-4.639-6.872-7.048a252 252 0 0 0-3.617-3.843c-.246-.254-.603-.4-.96-.547-.166-.068-.332-.136-.487-.214-.07.16-.161.319-.252.479-.193.342-.387.683-.387 1.025-.011 2.31.016 4.621.043 6.932.017 1.454.034 2.909.041 4.364q.083 16.344.16 32.687.075 16.343.158 32.688c.077 15.613.165 31.229.276 46.842.003.708.095 1.584.5 2.101a85.8 85.8 0 0 0 21.358 19.344c7.871 5.032 16.293 8.985 25.049 12.207 3.329 1.224 6.739 2.265 10.16 3.206a254 254 0 0 0 12.681 3.146c2.291.504 4.599.928 6.907 1.351 1.737.319 3.474.638 5.205.991 1.825.375 2.223.119 2.208-1.81l-.042-5.066c-.042-4.787-.083-9.576-.088-14.362-.017-10.076-.014-20.152-.011-30.227m-70.975-100.448c.023-.242.051-.523.077-.863v-.004c.511.398.973.776 1.409 1.133.873.712 1.64 1.339 2.472 1.867a600 600 0 0 0 7.418 4.607q2.284 1.4 4.559 2.813c4.751 2.957 9.936 4.968 15.111 6.976 1.402.544 2.803 1.088 4.195 1.65 4.247 1.718 8.782 2.808 13.267 3.845 6.003 1.387 12.068 2.519 18.128 3.65l.58.108c1.451.272 1.833.865 1.833 2.281-.006 9.499.034 18.996.073 28.495q.019 4.278.034 8.558l.264 73.048v2.368a86 86 0 0 0-1.888-.332c-1.275-.215-2.488-.419-3.668-.747-1.32-.366-2.646-.716-3.973-1.067-3.959-1.046-7.923-2.094-11.724-3.555-8.112-3.115-16.106-6.509-23.633-10.998-5.545-3.306-10.55-7.259-15.403-11.396-2.333-1.987-4.319-4.388-6.299-6.782-.647-.782-1.293-1.563-1.951-2.329-.39-.456-.406-1.324-.413-2.002a1905 1905 0 0 1-.064-11.709l-.017-4.255-.001-.366c-.122-26.083-.244-52.17-.37-78.253-.004-1.027-.024-2.054-.043-3.081-.017-.881-.034-1.761-.041-2.64a10 10 0 0 1 .068-1.02m-11.564-12.404-.22.08-.22.081v1.921l.093 25.771q.094 25.822.183 51.642l.037 11.919c.03 9.933.06 19.866.109 29.799 0 .712.068 1.619.485 2.109.62.726 1.234 1.462 1.848 2.198 2.082 2.499 4.17 5.005 6.556 7.177 7.098 6.46 15.188 11.561 23.725 15.904 2.935 1.492 6.016 2.747 9.123 3.842 5.843 2.062 11.706 4.102 17.652 5.828 3.416.991 6.915 1.701 10.412 2.411 1.068.217 2.135.433 3.2.658 1.784.378 3.578.695 5.446 1.026q1.254.22 2.559.459 0-1.08-.009-2.118c-.011-1.644-.022-3.223.032-4.801.038-1.091-.405-1.515-1.404-1.714l-.559-.111c-1.875-.372-3.756-.744-5.591-1.259l-1.279-.36c-4.346-1.221-8.696-2.444-12.979-3.869-1.957-.651-3.855-1.477-5.755-2.303-1.134-.493-2.269-.987-3.417-1.443a97 97 0 0 1-22.807-12.846 111 111 0 0 1-9.28-7.83c-1.436-1.357-2.725-2.871-4.014-4.385-.79-.928-1.579-1.855-2.403-2.748-.773-.834-1.079-1.683-1.083-2.816a28847 28847 0 0 0-.146-40.553l-.065-16.227-.014-3.49c-.057-13.948-.113-27.896-.131-41.845 0-1.32-.333-2.25-1.462-3.042-1.09-.765-2.043-1.756-2.958-2.74-1.377-1.487-2.72-3.004-4.063-4.521a579 579 0 0 0-1.6-1.804"/>
</svg>
