<svg xmlns="http://www.w3.org/2000/svg" width="550" height="550" fill="none" viewBox="0 0 550 550">
    <path fill="#fff" fill-rule="evenodd" d="M426.703 337.972c.026-.298.05-.542.07-.751.038-.385.064-.651.067-.919.037-2.566.087-5.133.137-7.699v-.003c.131-6.755.262-13.51.169-20.261-.047-3.382 1.449-5.789 3.306-8.141 2.032-2.577 4.916-3.97 8.06-4.664 1.517-.337 3.088-.133 4.409.967 4.107 3.408 8.226 6.794 12.358 10.168.543.444 1.103.867 1.663 1.291h.001c.757.573 1.515 1.146 2.23 1.768.396.345.737 1.014.733 1.533-.078 10.689-.169 21.378-.26 32.067l-.001.091c-.083 9.678-.165 19.355-.238 29.033-.008.916-.349 1.363-1.137 1.679a7767 7767 0 0 0-12.654 5.099l-.016.007a7866 7866 0 0 1-13.589 5.475 5265 5265 0 0 1-29.066 11.609c-1.129.447-1.499 1.078-1.487 2.224l.013 1.159c.04 3.682.08 7.368-.013 11.05l-.055 2.362c-.101 4.414-.202 8.835-.664 13.212-.187 1.761-.773 3.475-1.36 5.194-.364 1.067-.73 2.136-1 3.22-1.327 5.31-4.385 9.684-7.421 14.028-.493.705-.986 1.41-1.47 2.117-1.256 1.837-2.884 3.415-4.515 4.995-.929.901-1.86 1.803-2.723 2.754-3.762 4.153-8.394 7.229-12.983 10.276l-.325.216c-4.822 3.204-9.866 6.182-15.119 8.589-6.888 3.156-14.007 5.857-21.163 8.366-4.802 1.683-9.794 2.889-14.778 3.954-3.088.661-6.207 1.171-9.327 1.68h-.003c-2.562.418-5.126.837-7.672 1.34-6.89 1.362-13.879 1.6-20.841 1.837h-.001l-.471.016c-8.166.277-16.358.192-24.529-.098-3.361-.119-6.712-.589-10.061-1.059a241 241 0 0 0-4.023-.543l-1.325-.161h-.001c-2.185-.263-4.372-.527-6.529-.938-2.04-.388-4.07-.833-6.1-1.278-2.073-.455-4.147-.91-6.233-1.303-5.698-1.079-11.156-2.948-16.612-4.815h-.001c-1.955-.67-3.91-1.339-5.875-1.972-1.782-.573-3.484-1.385-5.189-2.199h-.001c-1.197-.572-2.396-1.144-3.624-1.635-7.133-2.856-13.522-7.035-19.894-11.202l-1.24-.811c-1.976-1.292-3.742-2.899-5.512-4.509h-.001c-1.072-.976-2.145-1.952-3.267-2.861-4.284-3.465-7.484-7.879-10.661-12.261l-.001-.001-.989-1.361c-1.86-2.553-3.126-5.571-4.371-8.539l-.447-1.063c-.64-1.505-1.047-3.11-1.454-4.714a71 71 0 0 0-.574-2.166c-1.595-5.565-1.521-11.24-1.447-16.912.022-1.644.043-3.288.024-4.929-.01-.869-.029-1.739-.049-2.609-.068-3.063-.136-6.132.186-9.157.146-1.376.21-2.759.275-4.145.135-2.895.27-5.797 1.152-8.644.29-.934.001-2.044-.288-3.159-.145-.557-.29-1.115-.364-1.654-.097-.716-.212-1.432-.327-2.149-.289-1.799-.579-3.601-.585-5.404-.066-14.248-.08-28.497-.093-42.745-.007-6.86-.013-13.72-.026-20.58q-.032-17.929-.069-35.858c-.06-29.885-.121-59.771-.127-89.659v-.477c-.001-5.13-.002-10.361 1.031-15.328.615-2.957.126-5.616-.365-8.284-.189-1.026-.377-2.053-.504-3.098q-.035-.283-.075-.566c-.072-.514-.143-1.029-.147-1.543-.019-2.077-.047-4.155-.075-6.232-.077-5.637-.153-11.274-.057-16.908.073-4.29.401-8.618 1.155-12.836.371-2.074 1.141-4.073 1.913-6.074a67 67 0 0 0 1.12-3.046c.894-2.704 2.46-5.011 4.026-7.318.815-1.202 1.631-2.403 2.351-3.66 1.627-2.835 3.938-5.084 6.243-7.327.639-.623 1.278-1.245 1.902-1.88 7.008-7.126 15.311-12.447 24.035-17.252 7.321-4.029 15.091-6.907 22.866-9.786l1.216-.451c3.044-1.13 6.223-1.913 9.396-2.695q1.162-.284 2.319-.577c3.796-.958 7.608-1.865 11.451-2.607 3.753-.724 7.532-1.376 11.332-1.768 8.034-.83 16.077-1.631 24.137-2.125 2.643-.163 5.299-.06 7.958.043 1.793.07 3.588.139 5.38.127 6.827-.045 13.565.843 20.306 1.731l.862.114c.962.126 1.928.228 2.895.33 1.807.192 3.614.383 5.39.73 4.912.959 9.828 1.951 14.655 3.25 6.138 1.65 12.281 3.37 18.267 5.505 10.479 3.74 20.422 8.656 29.611 14.974 7.702 5.295 14.501 11.514 20.252 18.965 3.134 4.062 5.226 8.605 7.319 13.15q.479 1.042.962 2.08c.616 1.316.841 2.804 1.067 4.3.153 1.011.307 2.025.582 2.993.932 3.273.905 6.587.878 9.909q-.009.891-.009 1.784c.001 1.414.011 2.828.021 4.242.024 3.32.047 6.641-.042 9.957-.102 3.873-.346 7.743-.59 11.613q-.082 1.275-.16 2.551c-.023.368-.129.732-.236 1.096s-.213.731-.237 1.103c-.024.352-.061.71-.098 1.07v.002c-.118 1.158-.239 2.332.047 3.388 1.214 4.486 1.521 9.018 1.342 13.623-.051 1.368.362 1.619 1.606 1.087l9.266-3.987.002-.001c7.443-3.203 14.886-6.407 22.337-9.589.353-.153 1.001-.06 1.308.179 4.745 3.736 9.482 7.489 14.143 11.331.532.439.852 1.436.843 2.173a4378 4378 0 0 1-.451 31.797c-.142 8.178-.314 16.356-.486 24.532l-.001.007-.062 2.988-.039 1.85c-.009.417-.038.869-.205 1.239-2.176 4.776-5.478 8.422-10.76 9.607-1.368.306-3.285 0-4.405-.793-3.03-2.148-5.953-4.451-8.876-6.754-1.303-1.026-2.605-2.053-3.917-3.065q-.3-.234-.538-.428c-1.137-.922-1.316-1.067-2.265 1.037a221 221 0 0 1-2.336 4.975v.001c-1.227 2.558-2.454 5.116-3.526 7.74-1.657 4.056-3.263 8.196-4.264 12.448-1.444 6.143-2.888 12.286-3.319 18.667-.391 5.849-.336 11.656.49 17.398.886 6.164 2.688 12.099 5.577 17.739 2.062 4.025 4.728 7.531 7.757 10.744 1.507 1.6 3.282 2.949 5.158 4.376.866.658 1.754 1.333 2.646 2.056zm-286.02-150.221v2.16l.07 34.262c.071 34.25.143 68.5.206 102.748q.011 6.939.011 13.878c.001 8.673.002 17.346.058 26.017.021 3.336.272 6.688.668 10.003l.076.634c.291 2.47.592 5.029 1.573 7.238.382.86.754 1.726 1.126 2.593l.001.001c1.801 4.196 3.61 8.411 6.656 11.962.813.949 1.561 1.964 2.307 2.978 1.225 1.663 2.448 3.323 3.951 4.678q1.185 1.071 2.365 2.156l.005.004c4.18 3.832 8.371 7.674 13.366 10.509 1.373.778 2.703 1.637 4.033 2.495l.001.001c1.969 1.271 3.935 2.54 6.033 3.545l1.196.574.072.034c7.219 3.466 14.451 6.938 22.226 9.087 1.647.454 3.275.983 4.902 1.511h.001c1.915.622 3.83 1.244 5.777 1.744 3.88.993 7.825 1.772 11.77 2.488 4.869.882 9.76 1.687 14.663 2.364 3.403.47 6.829.777 10.252 1.084l.071.006 1.383.124c1.3.117 2.606.164 3.911.21l.002.001h.006q.894.03 1.785.07.027-.092.049-.187l.049-.187-.336-.3a17 17 0 0 0-.801-.689q-1.146-.91-2.289-1.821c-2.821-2.245-5.642-4.49-8.489-6.703-.869-.677-1.231-1.444-1.222-2.535.024-2.282.009-4.566-.006-6.85v-.002q-.01-1.33-.016-2.66c-.008-2.012-.012-2.012-1.979-2.185l-.151-.014a237 237 0 0 0-2.247-.184c-2.463-.193-4.928-.386-7.338-.859a757 757 0 0 0-4.247-.816l-.004-.001c-7.395-1.408-14.794-2.817-21.965-5.215-1.5-.503-3.013-.974-4.525-1.446l-.003-.001c-2.861-.892-5.721-1.784-8.499-2.881-2.527-.999-4.994-2.151-7.461-3.303l-.001-.001h-.001c-2.069-.967-4.139-1.933-6.245-2.81-2.024-.843-2.671-1.887-2.667-4.153.043-40.013.004-80.027-.035-120.04l-.021-22.227q0-3.315 3.051-1.947c1.666.744 3.319 1.518 4.972 2.291 4.878 2.282 9.755 4.565 14.96 6.089 1.608.469 3.193 1.027 4.777 1.584 2.337.822 4.673 1.643 7.074 2.181 7.673 1.721 15.413 3.183 23.171 4.49 3.896.659 7.836 1.065 11.774 1.471l.007.001q1.775.181 3.546.373c1.798.196 1.917.026 1.9-1.849q-.03-2.798-.067-5.598c-.045-3.529-.089-7.058-.103-10.586a11 11 0 0 0-.065-.974c-.138-1.456-.279-2.949 2.088-3.418-1.217-.15-2.378-.269-3.508-.385-1.272-.131-2.505-.257-3.734-.42q-2.013-.267-4.027-.53l-.026-.003c-5.812-.763-11.624-1.525-17.413-2.445-4.192-.664-8.358-1.597-12.465-2.675-2.272-.596-4.51-1.326-6.747-2.055-1.713-.559-3.426-1.118-5.155-1.617-8.899-2.569-17.202-6.531-25.309-10.888-4.273-2.297-8.52-4.806-12.303-7.818-5.853-4.66-11.502-9.546-16.196-15.544-4.469-5.709-7.357-12.103-10.275-18.817M277.39 370.65c.494-1.017.993-2.016 1.488-3.005 1.768-3.537 3.472-6.946 4.604-10.614l.728-2.353.005-.016c1.219-3.935 2.439-7.872 3.531-11.842 1.304-4.742 2.024-9.598 2.386-14.51.362-4.903.443-9.794-.388-14.663-.13 1.479-.145 2.959-.16 4.438q-.005.605-.014 1.211c-.009.554-.026 1.171-.26 1.653-2.169 4.439-5.168 8.021-10.148 9.431-1.946.554-3.876.75-5.576-.762a56 56 0 0 0-3.059-2.522l-1.652-1.276-.003-.003c-3.707-2.864-7.415-5.729-11.171-8.532-1.159-.865-1.555-1.836-1.555-3.242 0-9.883-.042-19.763-.084-29.646v-.006l-.019-4.568c-.012-2.924-.028-2.926-2.822-3.272l-.275-.034q-2.256-.283-4.515-.556c-5.532-.673-11.067-1.346-16.542-2.341-6.211-1.129-12.341-2.743-18.441-4.396-4.324-1.172-8.597-2.599-12.78-4.201-2.42-.925-4.765-2.038-7.111-3.152l-.002-.001c-1.111-.527-2.222-1.055-3.341-1.562a70 70 0 0 0-2.225-.951l-.001-.001c-.382-.158-.783-.324-1.212-.505v2.032l.268 133.325.002.151.002.087a5 5 0 0 1-.004.473c-.059 1.091.456 1.713 1.453 2.156l1.231.549c6.82 3.039 13.624 6.072 20.784 8.354 6.944 2.215 13.995 3.843 21.083 5.359 3.037.648 6.117 1.083 9.196 1.518q1.337.186 2.673.382c1.005.148 2.021.225 3.055.303q.73.053 1.473.119.035-.233.068-.425a5 5 0 0 0 .085-.678l.116-4.901c.132-5.557.264-11.115.353-16.672.051-3.112.07-6.224.09-9.337.016-2.615.033-5.23.068-7.844.005-.388-.009-.789-.022-1.193-.041-1.215-.083-2.455.384-3.433 1.917-4.026 4.605-7.434 9.056-9.048 3.055-1.108 5.785-1.005 8.205 1.431.664.671 1.406 1.264 2.147 1.856q.387.308.767.619c1.844 1.519 3.695 3.031 5.66 4.636l.048.04 2.369 1.936zm148.619-143.894-2.699-1.584-.001-.001c-3.806-2.236-7.549-4.434-11.328-6.569-.35-.196-1.261.145-1.623.516-.671.696-1.249 1.484-1.827 2.272l-.002.002q-.265.365-.536.725c-6.236 8.29-13.304 15.779-21.172 22.556a130.7 130.7 0 0 1-20.171 14.322c-3.962 2.28-8.09 4.367-12.345 6.003-6.024 2.313-12.154 4.294-18.612 5.312-6.314.997-12.559 1.517-18.859.396-1.72-.307-3.421-.71-5.123-1.114-1.511-.358-3.021-.717-4.543-1.007-.908-.175-1.981 0-2.863.319a68 68 0 0 0-6.258 2.629c-.359.172-.734.338-1.112.505-1.386.613-2.815 1.245-3.672 2.306-4.054 5.03-4.046 5.245-3.81 11.386l.019.483.015.333c.02.364.039.73-.007 1.085-.255 2.045.226 3.668 2.19 4.75.465.255.813.722 1.162 1.191.176.235.351.47.542.679 4.975 5.44 8.711 11.622 10.739 18.723 1.24 4.337 2.305 8.69 2.744 13.266.711 7.467.311 14.824-.886 22.152-.612 3.752-1.565 7.455-2.516 11.149q-.304 1.178-.603 2.355c-.254 1.006-.63 1.98-1.006 2.955-.305.791-.611 1.582-.851 2.391-2.054 6.886-5.362 13.218-8.662 19.534l-.45.863c-1.372 2.628-2.995 5.127-4.617 7.625-.644.993-1.289 1.986-1.918 2.987-.486.775-.537 1.278.396 1.81 4.183 2.381 8.362 4.771 12.456 7.297 1.223.755 1.683.269 2.382-.587q1.334-1.639 2.664-3.282v-.001c2.969-3.666 5.94-7.334 9.059-10.873 6.011-6.825 12.861-12.768 20.239-18.063 8.618-6.181 17.799-11.319 27.848-14.91 5.904-2.113 11.945-3.493 18.097-4.371 7.714-1.099 15.387-.34 22.876 1.692 2.145.58 4.2 1.494 6.253 2.407.796.354 1.593.709 2.395 1.043.749.316 1.248.35 1.78-.426 4.533-6.56 9.095-13.095 13.675-19.617.549-.784.528-1.338-.247-1.908-.4-.296-.786-.61-1.172-.924l-.002-.001a24 24 0 0 0-1.506-1.163c-4.388-3.029-7.915-6.973-10.633-11.429-3.012-4.938-5.171-10.318-6.59-16.031-1.41-5.666-1.883-11.412-1.913-17.129-.019-3.999.575-8.005 1.168-12.004v-.005c.192-1.291.383-2.58.553-3.868 1.078-8.154 3.749-15.916 6.88-23.422 2.62-6.279 5.47-12.537 9.355-18.224 1.086-1.59 2.075-3.245 3.099-4.957l.001-.002c.498-.834 1.005-1.682 1.535-2.543zm-153.142-26.114.008.135q.785-.086 1.571-.181h.001c1.206-.143 2.413-.287 3.625-.364 3.618-.236 7.236-.449 10.854-.662l.028-.001q2.7-.158 5.4-.321a17 17 0 0 0 1.823-.204q1.539-.259 3.078-.527c1.298-.225 2.598-.45 3.9-.662 1.176-.193 2.356-.369 3.535-.545 2.369-.353 4.736-.707 7.076-1.193 2.756-.572 5.475-1.339 8.191-2.106h.001a298 298 0 0 1 4.66-1.279l.001-.001c3.186-.852 6.376-1.706 9.461-2.838 5.109-1.877 10.121-4.018 15.129-6.156l.001-.001 2.264-.966c1.063-.452 2.072-1.031 3.082-1.611.674-.387 1.348-.774 2.038-1.124 8.188-4.128 15.609-9.355 22.14-15.779 2.948-2.901 5.861-5.913 8.285-9.244 2.505-3.442 4.627-7.216 6.476-11.059 1.461-3.037 2.841-6.33 3.216-9.632.082-.727.173-1.456.264-2.187l.001-.003c.531-4.254 1.069-8.562-.044-12.869-.257-.995-.42-2.026-.581-3.054-.261-1.658-.521-3.31-1.178-4.793q-.464-1.048-.92-2.102l-.003-.006c-1.905-4.382-3.819-8.788-7.005-12.49-.778-.905-1.497-1.87-2.216-2.833-1.213-1.627-2.425-3.251-3.91-4.576a283 283 0 0 1-2.784-2.532l-.001-.001c-3.659-3.359-7.327-6.726-11.652-9.276-1.368-.806-2.707-1.672-4.046-2.537-2.359-1.524-4.717-3.048-7.23-4.249l-2.436-1.17c-6.2-2.99-12.414-5.985-19.081-7.895-1.746-.5-3.469-1.081-5.191-1.661-2.263-.762-4.525-1.524-6.835-2.105a178 178 0 0 0-14.983-3.08c-6.662-1.078-13.351-2.07-20.069-2.705-4.08-.385-8.187-.476-12.293-.566a475 475 0 0 1-4.427-.111c-10.518-.328-20.976.438-31.379 1.96-7.426 1.086-14.842 2.176-22.114 4.2-7.059 1.964-14.062 3.979-20.912 6.615-8.853 3.413-17.287 7.592-25.151 12.844-5.645 3.766-11.004 7.911-15.694 12.92-5.347 5.71-9.883 11.878-12.699 19.209q-.248.643-.504 1.289c-.824 2.088-1.656 4.199-1.988 6.375-.827 5.449-1.393 10.914-.171 16.469.916 4.171 1.968 8.188 3.796 12.086 3.297 7.037 7.851 13.121 13.444 18.377 3.8 3.575 7.886 6.906 12.167 9.888 4.32 3.007 8.937 5.636 13.602 8.085 4.337 2.275 8.801 4.401 13.402 6.045 8.916 3.191 17.892 6.275 27.277 7.907 1.73.301 3.456.631 5.181.962l.001.001c2.161.414 4.323.829 6.495 1.184 1.609.264 3.235.429 4.861.594.914.093 1.828.186 2.738.296 1.138.137 2.273.297 3.408.457 2.373.334 4.746.669 7.132.787 4.207.208 8.421.267 12.634.325l.006.001c1.744.024 3.488.048 5.23.083l.005.009zm127.122 206.921-.371-.013-.414 1.159c-1.345 3.771-2.679 7.509-4.843 10.991-4.831 7.761-10.914 14.284-17.981 19.996-7.919 6.399-16.665 11.489-25.935 15.528-7.076 3.08-14.224 6.139-21.833 7.851-2.547.573-5.082 1.204-7.618 1.835-3.328.828-6.656 1.656-10.009 2.353-5.087 1.052-10.224 2.074-15.388 2.487-10.407.831-20.81 1.624-31.306 1.232-10.612-.397-21.13-1.347-31.58-3.085-4.98-.826-9.989-1.746-14.824-3.169-7.826-2.3-15.639-4.746-23.23-7.711-5.905-2.309-11.826-4.771-17.142-8.375-1.406-.954-2.855-1.849-4.312-2.731-7.693-4.664-14.454-10.411-20.188-17.346-.419-.507-.848-1.01-1.277-1.515-1.603-1.881-3.216-3.774-4.389-5.898-2.296-4.17-4.583-8.396-6.138-13.304-.029.227-.058.421-.083.594-.052.345-.09.605-.088.863q.018 1.552.024 3.103c.028 5.509.057 11 1.212 16.506 1.257 5.977 3.685 11.417 6.871 16.341 3.374 5.219 7.234 10.267 12.29 14.174 1.043.804 2.016 1.711 2.986 2.615 1.358 1.265 2.712 2.528 4.252 3.506 1.247.793 2.486 1.601 3.725 2.409l.002.002c5.039 3.286 10.083 6.577 15.707 8.874 1.435.587 2.838 1.266 4.239 1.944h.001v.001c2.005.97 4.008 1.939 6.103 2.639 7.191 2.402 14.467 4.558 21.773 6.59 4.034 1.124 8.179 1.908 12.312 2.632 3.636.638 7.305 1.102 10.973 1.565l.964.122.677.086 1.447.185c2.752.355 5.509.711 8.274.841l1.225.058 1.008.049c5.356.259 10.724.518 16.072.358l.177-.006c9.424-.283 18.873-.568 28.19-2.312 2.04-.383 4.092-.709 6.144-1.035 3.497-.556 6.992-1.112 10.424-1.947a234 234 0 0 0 19.945-5.819c5.299-1.802 10.479-4.017 15.545-6.407 4.473-2.109 8.78-4.597 13.031-7.135 1.422-.851 2.744-1.865 4.066-2.88 1.004-.77 2.008-1.541 3.057-2.241 5.614-3.74 10.266-8.584 14.381-13.76 3.839-4.826 7.434-10.011 9.066-16.201.242-.918.593-1.821.944-2.721.551-1.413 1.098-2.82 1.216-4.269.356-4.381.466-8.779.577-13.177.042-1.655.084-3.309.138-4.962.012-.327-.019-.656-.049-.985l-.023-.256q-.01-.117-.017-.233zm-259.26-268.201q.003-.004 0-.004zm0-.004a.34.34 0 0 0-.102.213 166 166 0 0 1-.036 4.407c-.057 3.369-.115 6.738.3 10.047.733 5.823 2.198 11.481 4.844 16.912 2.914 5.977 6.893 11.136 11.327 15.805 4.15 4.366 8.755 8.46 13.994 11.659 1.224.748 2.425 1.538 3.627 2.329 2.317 1.524 4.632 3.047 7.1 4.261 6.041 2.974 12.201 5.777 18.505 8.137 5.901 2.207 12.009 3.885 18.101 5.517 4.963 1.329 10.024 2.326 15.072 3.306 2.025.393 4.088.606 6.149.82q1.064.108 2.124.227c1.388.161 2.774.344 4.16.528h.003c3.299.437 6.597.873 9.908.993 7.608.272 15.227.231 22.844.19l1.127-.007c3.161-.017 6.334-.259 9.478-.604 4.184-.456 8.356-1.053 12.525-1.648l.928-.133.071-.01c3.479-.495 6.965-.991 10.413-1.66 2.447-.476 4.867-1.11 7.285-1.742l.001-.001.006-.001 1.365-.356c.988-.255 1.981-.5 2.974-.745v-.001c2.852-.703 5.705-1.408 8.476-2.355 5.176-1.768 10.348-3.63 15.307-5.909 4.342-1.994 8.556-4.266 12.769-6.537l.001-.001c1.313-.707 2.625-1.415 3.942-2.114 1.601-.848 2.603-2.232 3.578-3.826 1.461-2.385 2.978-4.86 6.036-5.827 2.135-.673 4.444-1.491 6.067-2.927 2.875-2.543 5.58-5.397 7.83-8.507 2.551-3.527 4.843-7.327 6.658-11.276 2.407-5.232 3.881-10.812 3.966-16.657.049-3.48.074-6.959.1-10.439l.011-1.485c0-.259-.041-.519-.082-.779q-.03-.185-.055-.371a1.5 1.5 0 0 0-.609.835l-.118.353c-1.258 3.772-2.513 7.532-4.93 10.804-.785 1.062-1.5 2.184-2.215 3.305-1.119 1.755-2.236 3.508-3.617 5.023-4.767 5.227-9.806 10.135-15.63 14.314a124 124 0 0 1-23.613 13.304c-6.317 2.705-12.869 4.924-19.438 6.956-5.623 1.738-11.396 3.046-17.155 4.282-4.984 1.069-10.02 1.998-15.081 2.569a255 255 0 0 1-19.238 1.448c-13.116.477-26.203-.145-39.188-2.113-6.483-.984-12.984-2.096-19.331-3.706-7.268-1.845-14.425-4.167-21.535-6.569-2.432-.822-4.764-1.939-7.096-3.057-1.127-.54-2.254-1.08-3.392-1.587-8.064-3.587-15.511-8.204-22.442-13.623l-.697-.544c-2.974-2.318-5.997-4.674-8.423-7.503q-.563-.655-1.127-1.308l-.002-.003c-4.081-4.726-8.191-9.487-10.527-15.465-.655-1.678-1.442-3.303-2.23-4.93-.358-.74-.716-1.481-1.063-2.227zm15.051 269.151.399-.365c.493.421.994.834 1.495 1.247l.002.001c1.081.89 2.16 1.779 3.156 2.755 6.105 5.989 13.338 10.45 20.768 14.42 6.841 3.659 13.9 7.025 21.415 9.244 1.922.568 3.824 1.205 5.725 1.842 2.219.743 4.438 1.487 6.689 2.12 2.384.671 4.819 1.166 7.252 1.66.949.193 1.898.386 2.844.589a198 198 0 0 1 1.999.443c1.823.411 3.647.822 5.494 1.078q1.444.2 2.89.405h.002c4.98.702 9.967 1.404 14.975 1.772 7.399.545 14.837 1.018 22.241.848 8.784-.205 17.568-.933 26.314-1.811 5.576-.562 11.127-1.627 16.618-2.799a138 138 0 0 0 14.501-3.902c6.493-2.138 13.006-4.332 19.255-7.072 8.252-3.616 16.184-7.881 23.405-13.406l.13-.1c3.982-3.046 7.932-6.067 11.219-9.881.115-.132.285-.217.783-.166a52 52 0 0 0-.56 1.581c-.395 1.158-.791 2.315-1.361 3.382a63.3 63.3 0 0 1-14.612 18.25c-5.465 4.703-11.395 8.805-17.815 12.234-6.352 3.396-12.933 6.156-19.677 8.61-7.591 2.765-15.387 4.822-23.315 6.296a213 213 0 0 1-26.259 3.229c-9.056.541-18.07.422-27.076-.226-6.301-.451-12.618-1.171-18.812-2.377-6.786-1.324-13.568-2.73-20.214-4.792-8.682-2.692-17.142-5.951-25.104-10.241-6.237-3.361-12.201-7.259-17.637-11.984-4.656-4.047-8.622-8.609-12.145-13.555-1.401-1.967-2.465-4.178-3.528-6.388l-.001-.001c-.475-.987-.95-1.975-1.455-2.94m-.294-220.623-.056.044-.208.158c.486.973.935 1.974 1.384 2.975.998 2.228 1.998 4.456 3.408 6.384 3.609 4.929 7.472 9.645 12.205 13.696 5.79 4.954 12.06 9.116 18.74 12.584a139 139 0 0 0 20.853 8.729c7.834 2.56 15.821 4.315 23.856 5.968 1.964.404 3.966.626 5.965.848l.004.001q.733.08 1.464.165c1.383.162 2.764.335 4.146.508h.001c3.822.479 7.644.958 11.479 1.196 5.189.324 10.412.29 15.613.192q.467-.008.938-.014c2.582-.034 5.274-.068 7.586-.949 10.222-3.892 20.332-8.082 30.438-12.27l2.104-.872c2.488-1.031 4.819-1.836 7.272-.111a73 73 0 0 1 2.288 1.653c.421.319.837.648 1.252.976.77.609 1.54 1.218 2.348 1.771.4.273 1.103.456 1.525.299 1.145-.426 2.299-.834 3.455-1.242 3.215-1.136 6.433-2.274 9.457-3.794l.904-.452.942-.471c5.959-2.973 11.94-5.959 17.183-10.182 1.248-1.008 2.532-1.971 3.816-2.935.942-.707 1.884-1.414 2.813-2.139.652-.507.92-1.108.157-1.862-1.478-1.461-1.836-3.352-1.844-5.342v-1.478l-3.975 2.083c-1.317.693-2.62 1.417-3.923 2.142-2.874 1.598-5.747 3.195-8.763 4.444l-1.238.513c-7.426 3.08-14.873 6.169-22.767 7.969-1.76.4-3.501.885-5.242 1.37v.001c-2.129.593-4.257 1.185-6.418 1.624-4.669.945-9.389 1.729-14.122 2.253l-2.991.335h-.001c-6.852.77-13.715 1.542-20.591 1.765-10.296.337-20.597.026-30.885-1.167-8.137-.946-16.197-2.207-24.163-4.021-2.915-.665-5.786-1.513-8.658-2.361h-.002a218 218 0 0 0-5.649-1.614c-8.631-2.292-16.75-5.896-24.64-9.951-5.236-2.693-10.271-5.832-15.131-9.164-2.383-1.631-4.55-3.577-6.717-5.522a151 151 0 0 0-2.92-2.576q-1.065-.901-2.138-1.794l-.004-.004-.49-.409v.005zm244.303 210.548-.261-.172-.003-.003-.277-.183c-2.062 1.282-4.111 1.402-6.195.251-.213-.119-.813.073-.966.298q-.518.766-1.049 1.525c-1.1 1.584-2.202 3.17-3.067 4.874-.735 1.45-1.272 2.978-1.811 4.513-.644 1.832-1.29 3.673-2.283 5.4-3.774 6.565-8.63 12.231-14.241 17.142-4.669 4.086-9.704 7.83-15.251 10.757-1.137.6-2.26 1.236-3.383 1.871-2.422 1.369-4.842 2.738-7.403 3.756-1.225.488-2.448.985-3.671 1.482l-.006.002c-5.943 2.415-11.894 4.832-18.202 6.231-1.39.309-2.761.704-4.132 1.1h-.002c-1.581.457-3.161.913-4.77 1.235-2.808.566-5.635 1.028-8.461 1.491h-.004c-1.787.292-3.573.584-5.354.903-8.784 1.567-17.671 2.019-26.557 2.079-6.705.046-13.419-.354-20.116-.806-4.805-.323-9.619-.864-14.369-1.674-5.674-.963-11.344-2.083-16.899-3.561-5.466-1.457-10.91-3.157-16.154-5.265-7.787-3.136-15.413-6.65-22.506-11.272-6.487-4.226-12.532-8.938-17.576-14.8-2.629-3.054-5.087-6.343-7.089-9.827-1.307-2.276-2.284-4.74-3.262-7.204-.45-1.134-.899-2.267-1.381-3.383a30 30 0 0 1-.215-.511c-.268-.651-.54-1.312-.961-1.844l-.294-.371c-2.543-3.205-5.074-6.394-6.629-10.258-.542-1.348-1.207-2.646-1.875-3.949-.292-.57-.585-1.141-.868-1.717q-.136.075-.222.116h-.001c-.102.051-.157.078-.173.118-.068.171-.132.363-.128.541.046 1.696-.116 3.388-.277 5.081-.273 2.857-.546 5.716.179 8.594.259 1.026.422 2.086.586 3.144.259 1.678.517 3.35 1.152 4.873 2.058 4.946 4.183 9.875 7.434 14.267 5.657 7.638 12.452 14.041 20.26 19.37l.487.333.475.326c3.462 2.372 6.957 4.767 10.724 6.541 1.278.601 2.552 1.214 3.826 1.828 5.641 2.715 11.293 5.436 17.367 7.156 1.821.516 3.623 1.109 5.425 1.701l.001.001c2.677.881 5.354 1.761 8.091 2.388 7.349 1.682 14.769 3.109 22.207 4.349 5.164.861 10.399 1.517 15.622 1.755 16.601.759 33.185.69 49.603-2.445 1.597-.304 3.197-.591 4.797-.877 3.507-.627 7.012-1.255 10.475-2.071 5.176-1.222 10.365-2.547 15.366-4.332 7.941-2.833 15.749-5.973 23.238-9.964 6.842-3.647 13.236-7.924 19.077-12.878 5.291-4.486 10.352-9.411 13.802-15.643.501-.904 1.052-1.783 1.602-2.661l.001-.001c.878-1.401 1.755-2.8 2.423-4.295 1.265-2.833 2.232-5.823 3.059-8.818.408-1.483.601-3.028.793-4.571.084-.678.169-1.356.272-2.028zM268.576 444.54c.026.111.056.221.081.332q.232.012.465.03c.309.023.619.045.928.034 1.254-.045 2.509-.082 3.763-.12 3.136-.093 6.273-.187 9.401-.4 5.461-.375 10.931-.775 16.354-1.478 5.704-.741 11.429-1.555 17.019-2.875a242 242 0 0 0 20.516-5.841 130.5 130.5 0 0 0 15.821-6.45 141 141 0 0 0 15.243-8.647c4.17-2.718 8.187-5.785 11.817-9.185l.872-.814c3.588-3.345 7.217-6.728 9.68-11.11.4-.711.485-1.107-.205-1.648a895 895 0 0 1-9.423-7.506c-.711-.576-1.329-.55-2.032 0a74 74 0 0 1-2.956 2.189c-1.14.8-2.264 1.625-3.389 2.451l-.002.001c-2.609 1.916-5.219 3.831-8.013 5.421-5.525 3.139-11.255 5.972-17.057 8.567-3.143 1.404-6.393 2.566-9.643 3.727h-.001c-1.639.586-3.279 1.172-4.904 1.789-.452.171-.903.541-1.184.937-.721 1.023-1.419 2.061-2.118 3.1-.611.908-1.222 1.817-1.849 2.715a2.6 2.6 0 0 1-1.086.874 922 922 0 0 1-10.339 4.294c-5.699 2.335-11.402 4.662-17.104 6.99l-.015.006-5.037 2.056-1.804.737c-4.946 2.021-9.895 4.043-14.84 6.075-2.058.847-4.112 1.711-6.165 2.573l-.003.002-2.786 1.17zm-3.655-.413q.27-.086.487-.151c.284-.086.514-.156.736-.246l5.499-2.24.38-.155.044-.018c7.632-3.109 15.262-6.217 22.887-9.344a7226 7226 0 0 0 27.579-11.387q.434-.179.884-.351c1.131-.438 2.288-.886 3.104-1.664 1.789-1.708 3.544-3.664 4.017-6.198.341-1.82.435-3.788.107-5.594-.418-2.322-3.673-3.289-6.237-2.215a3361 3361 0 0 1-19.741 8.192 6897 6897 0 0 1-12.019 4.937l-.009.004q-5.123 2.099-10.243 4.205c-1.308.537-1.743.286-1.751-1.116l-.079-21.604-.079-21.682c-.008-2.794-2.488-4.767-5.205-4.055-2.25.588-4.418 1.435-6.071 3.161l-.262.273c-1.728 1.794-3.574 3.712-3.615 6.27-.249 15.295-.388 30.59-.528 45.885l-.098 10.59c-.008.968.054 1.934.118 2.947v.001q.051.751.091 1.546zm73.656-200.082c-.089-.533-.211-1.258-.438-1.949-.511-1.559-3.417-3.114-4.72-2.581l-7.195 2.923c-7.394 3.003-14.79 6.006-22.165 9.056-4.872 2.013-9.733 4.054-14.594 6.094a2787 2787 0 0 1-15.077 6.294c-1.278.528-1.632 1.273-1.606 2.568.123 7.047.209 14.097.243 21.147.044 8.586.065 17.173.087 25.76v.002q.014 5.857.032 11.713c.009 2.727 2.773 4.674 5.406 3.792.89-.298 1.802-.605 2.611-1.07 4.069-2.338 6.812-5.542 6.778-10.552q-.076-11.051-.137-22.102c-.038-6.448-.075-12.896-.119-19.343-.004-.946.047-1.7 1.142-2.143 3.969-1.603 7.911-3.274 11.855-4.945l.806-.342 4.637-1.962a4584 4584 0 0 0 23.756-10.102q.486-.207.977-.402c1.602-.644 3.2-1.287 4.36-2.844 1.815-2.441 3.336-4.912 3.455-8.533h-.008c-.027-.129-.054-.292-.085-.479m119.412 97.914h.515l.001-5.816c.001-7.761.003-15.523-.018-23.284 0-.631-.034-1.44-.4-1.866-1.393-1.614-3.157-2.343-5.325-1.691-2.586.779-4.976 1.968-6.586 4.17-.212.29-.434.576-.656.863-1.096 1.412-2.213 2.851-2.22 4.837l-.011 2.128c-.068 13.532-.137 27.064-.278 40.596-.005.6-.652 1.495-1.223 1.746-2.766 1.216-5.559 2.367-8.352 3.519l-.006.002c-1.394.575-2.788 1.149-4.179 1.732a7497 7497 0 0 0-26.51 11.144c-.465.197-.934.384-1.403.572-2.73 1.091-5.44 2.175-7.185 4.979-1.679 2.696-2.518 5.427-2.233 8.575.162 1.781 3.306 3.851 4.963 3.174 6.649-2.72 13.328-5.368 20.008-8.015 3.802-1.507 7.605-3.014 11.401-4.535a4142 4142 0 0 0 14.017-5.655l.022-.009.031-.012c4.667-1.889 9.334-3.779 14.008-5.651 1.159-.465 1.657-1.078 1.648-2.407-.044-7.274-.039-14.548-.033-21.822q.004-3.636.004-7.274m-67.348 14.947c.251.091.541.196.89.303-.498.985-.948 1.952-1.386 2.891-1.012 2.171-1.956 4.195-3.251 5.958-.618.838-1.79 1.251-2.979 1.671-.649.228-1.302.459-1.874.761-.924.49-1.853 1.104-2.551 1.866-1.594 1.738-3.097 3.574-3.779 5.909a27 27 0 0 1-.197.619c-.22.66-.443 1.332-.378 1.967.204 2.019-.788 3.425-2.215 4.464l-1.628 1.189-.001.001c-4.065 2.971-8.136 5.947-12.382 8.638-3.856 2.441-7.945 4.554-12.09 6.479-2.669 1.24-5.439 2.264-8.208 3.288l-.003.001c-1.216.45-2.433.899-3.641 1.368a31 31 0 0 0-1.171.481c-1.176.515-2.207.762-2.884-.809-.16-.37-.567-.633-.972-.894a7 7 0 0 1-.515-.355 1899 1899 0 0 1-3.543-2.813c-3.07-2.441-6.14-4.882-9.241-7.279-1.095-.847-.856-1.393-.043-2.228 6.761-6.914 14.276-12.873 22.318-18.237 5.3-3.531 10.915-6.479 16.708-8.941 5.832-2.48 11.907-4.422 18.25-5.534 5.219-.916 10.411-1.112 15.656-1.052.33.005.659.124 1.11.288m58.436-176.848q-.215.048-.372.079c-.192.038-.335.066-.463.121l-7.119 3.039-.002.001c-9.307 3.974-18.613 7.946-27.913 11.938-3.977 1.707-7.945 3.431-11.914 5.155l-.005.002a3579 3579 0 0 1-10.046 4.351c-4.831 2.084-7.796 7.072-7.31 12.376.226 2.475 3.139 4.183 5.406 3.199q7.854-3.398 15.728-6.765 4.295-1.837 8.592-3.672a6523 6523 0 0 0 17.185-7.357c2.143-.92 2.501-.737 2.501 1.525l-.009 21.293v.596l-.008 20.852c0 2.509 2.837 4.545 5.231 3.719 2.424-.835 4.856-1.794 6.377-3.979a80 80 0 0 1 .585-.822c1.082-1.504 2.227-3.096 2.44-4.755.454-3.521.486-7.101.519-10.674v-.001q.01-1.325.03-2.646c.201-12.007.373-24.014.545-36.022l.141-9.832a10 10 0 0 0-.066-1.116q-.029-.294-.053-.618zm-140.286 87.071.029.152.026.142.017.097c.683.125 1.369.24 2.055.355 1.487.249 2.973.498 4.433.85 5.427 1.317 10.957 1.031 16.371.477 5.168-.528 10.284-1.695 15.319-3.314a100.3 100.3 0 0 0 20.21-9.078c9.495-5.585 18.152-12.358 25.977-20.18 5.798-5.793 10.991-12.064 15.894-18.607.209-.277.426-.695.367-.993-.201-.98-2.91-2.334-3.83-1.942l-2.664 1.135c-3.715 1.581-7.432 3.164-11.121 4.807l-.4.18c-2.078.935-4.102 1.847-6.336.293-.057-.041-.136-.049-.216-.057-.068-.007-.136-.013-.193-.041-.86-.413-1.427-.123-2.044.584-5.291 6.092-11.438 11.285-17.807 16.154-7.289 5.572-15.255 10.122-23.605 13.968-.6.277-1.228.505-1.857.733-1.794.649-3.591 1.3-4.733 3.089-.106.168-.346.261-.57.349l-.158.064-8.598 3.63q-6.075 2.563-12.149 5.133c-1.003.425-1.996.87-2.989 1.314l-.001.001q-.717.322-1.436.64h-.004zm-18.493 25.636-.283.23-.284.23a1 1 0 0 1-.061.111c-.048.084-.096.166-.105.255-.034.375-.047.754-.047 1.133.03 4.575.235 9.057 1.291 13.615 1.317 5.679 1.389 11.583 1.146 17.483-.302 7.387-1.627 14.591-3.57 21.632-2.155 7.817-4.954 15.477-8.924 22.617-.708 1.269-.584 2.057.643 2.735 1.683.928 2.13 2.338 2.096 4.238-.075 4.545-.049 9.089-.024 13.635v.001q.016 2.482.024 4.963-.001.176-.009.353c-.013.365-.027.732.085 1.053.094.275.305.508.515.742.096.106.193.213.278.323q.144-.111.301-.216h.001c.23-.157.46-.313.601-.525.403-.605.784-1.225 1.164-1.844h.001c.436-.709.871-1.418 1.34-2.105 4.341-6.339 7.698-13.231 10.637-20.269 2.335-5.585 4.039-11.464 5.61-17.321a78.6 78.6 0 0 0 2.365-13.215c.447-4.916.664-9.849.268-14.85a66.4 66.4 0 0 0-3.395-16.295c-2.105-6.147-5.508-11.663-9.998-16.443-.437-.466-.8-1-1.164-1.533q-.246-.366-.502-.721zm158.05-114.369c-.181-.172-.33-.318-.459-.445a8 8 0 0 0-.593-.547q-1.843-1.466-3.69-2.927l-.009-.007-.003-.003a873 873 0 0 1-7.698-6.141c-.869-.708-1.648-.729-2.607-.316q-8.222 3.53-16.448 7.051l-.046.02q-6.201 2.654-12.401 5.313-13.082 5.611-26.157 11.242c-.477.206-.984.384-1.492.563-1.242.437-2.49.876-3.33 1.716-2.778 2.782-5.078 5.93-4.703 10.322.145 1.713.72 3.004 1.972 4.018 3.309 2.676 6.644 5.315 9.981 7.956l.004.003.644.51c.182.145.399.25.56.327q.098.047.16.081c.121-.667.207-1.334.292-1.992.183-1.418.36-2.793.875-4.027 1.466-3.523 3.557-6.654 7.498-7.953.586-.195 1.152-.453 1.718-.71q.378-.174.757-.338l6.94-2.981.166-.071c6.728-2.89 13.454-5.779 20.188-8.659q5.331-2.283 10.669-4.553 5.34-2.272 10.673-4.555a308 308 0 0 0 4.239-1.869h.001c.746-.333 1.509-.674 2.299-1.023zm-172.781 64.995-.026-.285-.461-.025h-.001a20 20 0 0 0-1.144-.043c-15.11.012-30.092-1.095-44.926-4.26-8.302-1.773-16.439-4.065-24.311-7.093-6.318-2.429-12.38-5.585-18.365-8.78a75 75 0 0 1-11.217-7.362c-3.787-3.007-7.408-6.317-10.637-9.913l-.537-.597c-2.675-2.97-5.399-5.995-7.008-9.776l-.895-2.107-.001-.002a601 601 0 0 0-3.385-7.868q-.114-.257-.226-.519l-.001-.002c-.462-1.069-.934-2.163-1.656-3.027-2.373-2.842-4.498-5.807-5.981-9.219-.604-1.392-1.27-2.76-1.989-4.236-.319-.656-.649-1.333-.989-2.043-.062.236-.114.418-.156.567-.071.249-.116.406-.137.566-.733 5.308-1.146 10.62.208 15.898.182.711.347 1.431.511 2.151.446 1.958.893 3.92 1.709 5.713q.35.773.697 1.545c1.578 3.509 3.158 7.022 5.505 10.179 5.777 7.77 12.627 14.365 20.631 19.758q.886.598 1.772 1.204h.001c3.162 2.158 6.345 4.331 9.776 5.931a427 427 0 0 1 4.219 2.005h.001c5.775 2.769 11.56 5.542 17.796 7.248 2.061.566 4.094 1.234 6.127 1.902h.001c2.132.701 4.263 1.401 6.426 1.983 3.591.967 7.268 1.64 10.936 2.301 5.239.941 10.488 1.831 15.757 2.594 3.549.515 7.132.848 10.71 1.112.598.044 1.207.11 1.82.177h.002c2.037.221 4.111.447 5.918-.113 3.281-1.013 6.44-2.426 9.599-3.838h.001c1.304-.583 2.609-1.167 3.922-1.722zm-.004 128.12q-.17-.18-.309-.336a5 5 0 0 0-.526-.533q-1.844-1.535-3.691-3.062l-.012-.01-.003-.003c-2.11-1.747-4.219-3.493-6.314-5.258-1.346-1.133-2.828-1.393-4.494-.997-2.646.631-5.018 1.84-6.71 3.958-1.789 2.236-3.497 4.554-3.114 7.774.153 1.282.102 2.586.051 3.891-.023.595-.047 1.19-.051 1.784l-.087 12.249c-.096 13.612-.192 27.222-.313 40.834-.013 1.223.388 2.003 1.355 2.727 1.583 1.186 3.125 2.424 4.667 3.663l.002.001a346 346 0 0 0 2.223 1.776c1.155.914 2.317 1.821 3.57 2.799l.002.001.059.047 1.204.94.055-.594c.035-.365.062-.638.065-.91l.132-14.737.001-.076c.134-14.84.267-29.679.408-44.52v-.215c-.001-.504-.002-1.051.221-1.442 2.049-3.591 4.192-7.11 8.439-8.546.692-.234 1.372-.5 2.102-.786h.001q.514-.202 1.071-.415zm57.821-133.7q-.061-.15-.092-.243c-.036-.102-.056-.159-.096-.188-.992-.789-1.979-1.586-2.967-2.383l-.005-.004c-2.575-2.078-5.15-4.156-7.818-6.107-1.444-1.057-3.106-1.555-5.146-.605-2.972 1.378-6.029 2.569-9.087 3.761-1.3.506-2.6 1.013-3.894 1.534l-6.582 2.647-.039.015c-6.376 2.562-12.753 5.124-19.113 7.728-4.22 1.727-8.414 3.518-12.609 5.309l-.003.002-.011.004-3.548 1.514c-.898.383-1.781.802-2.685 1.231q-.607.289-1.23.579.086.107.148.189l.085.111c.095.125.148.195.214.246q1.202.917 2.402 1.837l.002.001c3.247 2.486 6.495 4.972 9.792 7.385.512.375 1.564.434 2.182.183 2.14-.866 4.257-1.788 6.374-2.71h.001a348 348 0 0 1 4.82-2.07q10.187-4.248 20.405-8.413c3.527-1.437 7.063-2.854 10.599-4.27l.003-.001c2.502-1.002 5.004-2.004 7.503-3.014a988 988 0 0 0 7.028-2.881h.001q1.673-.692 3.366-1.387m56.854 156.401c0-.268-.008-.487-.014-.673-.011-.325-.018-.552.022-.771.093-.501.164-1.015.235-1.528.174-1.271.35-2.545.869-3.652.737-1.571 1.812-2.993 2.879-4.404v-.001h.001q.405-.534.8-1.069a4.1 4.1 0 0 1 1.615-1.287 984 984 0 0 1 8.613-3.609l.009-.004.019-.008q2.925-1.212 5.843-2.436 4.779-2.009 9.557-4.023a3884 3884 0 0 1 18.601-7.803c1.163-.482 1.057-.805.23-1.483a1017 1017 0 0 1-3.764-3.107l-.011-.009c-2.524-2.088-5.048-4.177-7.607-6.222-.469-.37-1.436-.502-2.007-.294-1.193.441-2.363.943-3.532 1.445-1.218.524-2.436 1.047-3.68 1.499-1.61.584-2.731 1.581-3.625 2.978-.374.587-.779 1.154-1.184 1.721-.5.701-1 1.401-1.44 2.138-.678 1.138-1.351 1.325-2.518.652-2.526-1.457-4.976-2.023-7.954-.601-3.7 1.771-7.507 3.318-11.314 4.866l-.001.001a434 434 0 0 0-5.226 2.15c-.393.166-.806.314-1.22.463-1.092.394-2.192.79-2.968 1.522-2.977 2.816-5.154 6.104-4.771 10.56.145 1.658.81 2.863 2.024 3.851a521 521 0 0 0 5.959 4.784c1.166.928 2.339 1.844 3.592 2.822.63.492 1.28.999 1.959 1.532zm60.321-89.698-.008-.006c-2.965-2.448-5.821-4.807-8.75-7.07-.716-.554-2.045-.729-2.97-.529-3.684.797-6.769 2.62-8.643 6.05a26 26 0 0 1-.376.657c-.524.898-1.072 1.837-1.085 2.759-.171 9.397-.277 18.795-.383 28.193v.013q-.077 7.043-.167 14.087c-.013 1.002.337 1.679 1.099 2.297 1.918 1.552 3.819 3.124 5.721 4.695l.003.002q1.568 1.298 3.141 2.591c.658.54 1.325 1.067 2.06 1.65l.003.002c.374.296.766.606 1.183.939l.041-.725v-.005c.024-.412.042-.717.045-1.021q.035-4.76.077-9.518c.079-9.318.159-18.636.127-27.953-.013-3.063.388-5.866 2.479-8.124 1.483-1.602 3.144-3.089 4.929-4.337.864-.606 1.884-.991 2.998-1.411h.001c.522-.198 1.066-.403 1.623-.642q-1.599-1.313-3.148-2.594m-192.654-50.107-.422.167v1.785l.075 9.912v.01c.063 8.284.125 16.567.198 24.848q.042 4.79.095 9.58c.047 4.47.095 8.941.122 13.411.004.924.239 1.58 1.01 2.155a816 816 0 0 1 6.799 5.17l.002.001q1.834 1.407 3.674 2.808c.398.305.813.588 1.274.901.234.16.48.327.741.509 0-1.046.002-2.056.003-3.043v-.025c.003-1.918.006-3.746-.003-5.575q-.036-6.411-.084-12.822c-.083-11.624-.166-23.248-.095-34.869.021-3.442-.558-6.075-3.825-7.634-.195-.094-.364-.242-.533-.39h-.001c-.082-.072-.165-.145-.25-.21l-1.666-1.27q-3.553-2.71-7.11-5.419zm67.904 147.844c-.038-.111-.062-.196-.081-.262-.028-.103-.044-.159-.08-.19a2241 2241 0 0 0-4.167-3.312c-2.084-1.655-4.169-3.309-6.245-4.974-.664-.532-1.201-.421-1.725.141-.432.462-.872.918-1.312 1.374-1.069 1.109-2.139 2.219-3.102 3.414-1.99 2.475-3.924 4.996-5.857 7.516a1095 1095 0 0 1-2.471 3.211c-.558.72-1.107.971-2.036.396a166 166 0 0 0-4.032-2.39l-.001-.001c-1.831-1.062-3.661-2.125-5.433-3.279-1.913-1.248-3.672-1.742-5.674-.417a.6.6 0 0 1-.183.064c-.084.02-.164.038-.205.093-.097.129-.213.26-.33.392-.295.332-.597.671-.603 1.01-.05 3.675-.04 7.351-.029 11.027l.008 2.877c0 .81.298 1.129 1.15.78a4641 4641 0 0 1 17.636-7.293c2.523-1.039 5.049-2.068 7.574-3.098l.012-.005q2.685-1.094 5.369-2.192c3.618-1.487 7.232-2.98 10.896-4.495l.019-.008.898-.371zm-143.268-2.965c1.93-1.521 2.94-2.812 2.927-5.095-.142-29.157-.21-58.313-.277-87.467l-.034-14.577q-.024-10.786-.036-21.573l-.015-10.786c0-2.083-.422-2.59-2.569-3.136V399.29zm199.99-179.419q-3.084-2.853-6.121-.558-.087.064-.173.124t-.172.123c-1.052.765-2.089 1.554-3.126 2.342l-.001.001c-2.312 1.757-4.623 3.515-7.093 5.014-4.469 2.714-9.129 5.151-13.858 7.396-3.28 1.557-6.691 2.836-10.098 4.113l-.01.004q-1.052.393-2.101.79c-1.065.405-1.125.742-.486 1.581.358.468.673 1.082.724 1.657.218 2.59.418 5.197-.962 7.604-.119.207-.173.449-.244.765-.039.172-.082.367-.144.59 17.245-7.225 31.392-18.131 43.865-31.541zm-51.703 13.492q.801.643 1.551 1.249l.001.002c1.545 1.246 2.954 2.383 4.395 3.486.264.204.826.221 1.163.094 1.169-.442 2.348-.866 3.526-1.291h.001c3.041-1.096 6.085-2.192 8.989-3.583 9.461-4.528 18.458-9.866 26.642-16.49.18-.146.326-.335.483-.538l.145-.185.096-.116q-.948-.743-1.873-1.458l-.001-.001c-1.414-1.098-2.79-2.165-4.137-3.266-.673-.549-1.048-.362-1.683.107a407 407 0 0 0-3.86 2.886l-.001.001v.001c-3.609 2.721-7.221 5.445-11.057 7.804-5.811 3.574-11.869 6.812-18.429 8.942-1.3.421-2.565.95-3.938 1.525-.642.269-1.308.548-2.013.831m100.702 13.93v-43.064c-.149.029-.282.048-.403.066-.214.03-.389.056-.547.121l-2.066.875c-3.135 1.328-6.271 2.655-9.372 4.062-.477.218-.895 1.078-.929 1.662-.066 1.131-.059 2.265-.052 3.4v.001c.005.852.009 1.703-.016 2.554-.03 1.01.375 1.67 1.154 2.262 1.238.946 2.464 1.907 3.691 2.867l.002.002c1.446 1.132 2.891 2.264 4.354 3.372.78.588.827.98.273 1.828-2.236 3.442-4.383 6.944-6.496 10.462-.235.392-.26 1.334 0 1.538 2.683 2.129 5.411 4.2 8.315 6.403zm-248.24 153.669-.23-.333q.402-.32.8-.647c.678-.556 1.356-1.111 2.093-1.57.374-.234 1.094-.187 1.537.009 1.612.71 3.212 1.45 4.811 2.19l.001.001h.001c2.815 1.302 5.629 2.605 8.508 3.743 4.116 1.627 8.35 2.99 12.61 4.196 5.397 1.525 10.838 2.965 16.329 4.085 4.698.96 9.468 1.597 14.23 2.232h.001l.77.103.667.089.368.049c2.39.312 2.407.314 2.35 2.933-.006.246-.031.494-.063.817v.001l-.023.223-.029.314c-22.629-2.249-44.245-7.723-64.497-18.096zm149.671 10.372a9 9 0 0 0-.447.053c0-.393-.01-.771-.02-1.135-.022-.862-.043-1.655.071-2.429.068-.469.622-1.057 1.09-1.244 1.65-.66 3.314-1.287 4.978-1.915 2.754-1.038 5.509-2.077 8.199-3.261 2.166-.955 4.249-2.095 6.332-3.235h.001a138 138 0 0 1 3.72-1.988c5.846-2.973 10.969-6.989 16.089-11.002l1.565-1.224c.651-.511.95-.29 1.363.238.6.776 1.21 1.56 1.921 2.228.618.58.447.959-.098 1.359-6.773 4.963-13.568 9.841-21.078 13.739-5.094 2.645-10.408 4.703-15.722 6.761h-.001c-2.499.968-4.998 1.936-7.473 2.964-.129.054-.274.069-.489.091zm55.033-225.757c.243-.003.384-.004.505-.054l.951-.406.001-.001c2.933-1.252 5.867-2.505 8.773-3.823.371-.166.746-.767.771-1.189l.082-1.237.001-.012c.187-2.785.373-5.575.347-8.361-.008-1.027-.297-2.051-.586-3.075-.13-.459-.259-.918-.363-1.377-.401.798-.693 1.619-.979 2.421-.348.979-.686 1.929-1.198 2.772-1.609 2.642-3.33 5.216-5.051 7.79-.926 1.385-1.853 2.771-2.762 4.168-.276.425-.47.905-.698 1.468-.117.288-.243.598-.393.934.253-.014.446-.016.599-.018m38.772 156.062-.212-.095-.214-.096-8.077 11.617.345.357 1.587-.656c1.935-.799 3.87-1.599 5.783-2.445.349-.153.746-.69.754-1.061.049-1.925.043-3.854.038-5.782q-.004-.922-.004-1.843zm-36.772 23.464 1.403-.571c1.531-.623 3.004-1.222 4.467-1.844.286-.119.609-.375.716-.643.379-.953.723-1.919 1.091-2.95l.007-.019.401-1.121-.582-.119q-.35-.074-.687-.148c-1.012-.22-1.955-.426-2.91-.496-.464-.034-1.248.482-1.423.929-.641 1.606-1.201 3.244-1.785 4.956q-.34.995-.698 2.026m26.574-147.817v-7.225c-2.096.92-3.949 1.733-6.032 2.649l1.952 1.482.026.019c1.351 1.026 2.65 2.012 4.054 3.075m-7.873-2.978 2.425 1.635q2.022 1.365 4.046 2.727c-.843-1.84-4.839-4.588-6.471-4.362m-5.098 145.378.016-.146.047-.443-.969-.207-.969-.207-.016.131a116 116 0 0 0-.133 1.169h1.993zm-120.989 42.337 1.968-.765-.977-.588-.009-.006c-.432-.261-.832-.502-1.293-.778v2.258zm116.311-40.795-.204-.089.882-2.475.012-.032c.455 1.078.805 2.122-.431 2.71l-.234-.103zm-75.414-3.856q.253-1.288.504-2.591c.392-2.021.788-4.064 1.217-6.096 1.124-5.32 2.078-10.654 2.168-16.119.024-1.505.116-3.011.209-4.517.14-2.273.28-4.544.183-6.807-.2-4.613-.631-9.248-1.44-13.789-.519-2.919-1.371-5.776-2.222-8.634-.322-1.08-.644-2.16-.947-3.243-.328-1.176.183-1.661 1.243-1.857l1.075-.197 1.026-.185.002-.001c2.083-.377 4.167-.754 6.239-1.181q.839-.172 1.681-.339c2.393-.478 4.79-.957 7.12-1.654 4.059-1.219 8.132-2.497 12.03-4.141 2.658-1.124 5.238-2.43 7.819-3.735v-.001c1.675-.847 3.35-1.694 5.046-2.492 4.684-2.199 8.913-5.109 13.143-8.018 1.94-1.335 3.881-2.67 5.865-3.936.362-.23 1.044-.247 1.427-.064.247.12.375.827.294 1.219-.389 1.968-.796 3.932-1.203 5.897-.676 3.261-1.352 6.521-1.945 9.796-.272 1.511-.372 3.051-.472 4.591v.001c-.057.871-.113 1.742-.201 2.608-.745 7.374-.43 14.714.268 22.084.353 3.721 1.343 7.269 2.332 10.816v.001c.503 1.804 1.006 3.608 1.426 5.435.366 1.593.243 1.955-1.346 2.245-1.508.275-3.018.538-4.528.802h-.003c-3.234.565-6.469 1.13-9.681 1.809-1.497.317-2.945.861-4.392 1.406-.636.239-1.273.479-1.913.698-.957.329-1.924.638-2.89.946l-.002.001c-2.188.698-4.375 1.396-6.458 2.329-4.78 2.139-9.538 4.392-14.08 6.991-3.553 2.034-6.982 4.292-10.409 6.548-1.425.939-2.85 1.877-4.283 2.798a23 23 0 0 0-.977.679h-.001c-.444.32-.889.64-1.361.915-.924.536-1.593.098-1.572-1.014zm6.094-25.279c-.1.019-.22.041-.369.075q-.001-.321-.01-.594c-.01-.361-.018-.67.019-.972.528-4.49.443-8.968-.116-13.445-.153-1.23-.278-2.464-.403-3.698-.237-2.336-.474-4.671-.9-6.973-.4-2.153-1.008-4.266-1.617-6.38-.294-1.02-.588-2.04-.858-3.065-.439-1.657-.286-1.767 1.44-2.061 7.208-1.236 14.339-2.684 21.27-5.189 5.789-2.092 11.4-4.482 16.823-7.366.261-.139.549-.229.897-.337h.001c.185-.058.386-.121.61-.199q0 .276.009.51c.009.31.016.572-.018.827a47 47 0 0 0 .004 12.721c.14 1.016.194 2.045.247 3.073.057 1.1.114 2.199.277 3.283.431 2.879 1.027 5.738 1.645 8.583.347 1.599.764 3.185 1.181 4.77v.001q.275 1.037.54 2.075c.221.878-.085 1.223-1.027 1.376l-1.32.215h-.001c-3.982.645-7.966 1.291-11.902 2.158-1.433.317-2.817.839-4.204 1.361-.962.362-1.925.725-2.906 1.02-6.628 1.99-12.874 4.835-18.936 8.128-.096.051-.207.072-.376.103m-4.054 23.515.164.21.134.173c17.675-12.741 36.841-21.964 58.895-24.899a18 18 0 0 1-.381-.43c-.147-.169-.236-.272-.339-.354l-2.395-1.895-.004-.003c-3.086-2.444-6.174-4.888-9.308-7.274-.553-.422-1.495-.55-2.228-.486-1.181.101-2.352.324-3.525.547q-.544.104-1.088.203c-.918.165-1.842.307-2.767.449l-.003.001c-2.165.333-4.332.666-6.415 1.284-5.107 1.516-10.177 3.216-15.123 5.193-3.174 1.269-6.221 2.864-9.263 4.457v.001l-.003.001q-1.026.538-2.053 1.07c-.494.256-.894 1.078-.975 1.687-.101.747-.128 1.504-.154 2.259v.001c-.032.901-.063 1.8-.221 2.678-.658 3.651-1.385 7.288-2.112 10.925q-.421 2.101-.836 4.202m59.721-85.626-1.629 1.076a202 202 0 0 1-3.428 2.238c-3.659 2.326-7.318 4.652-11.012 6.923-.839.515-1.094 1.167-1.18 2.079-.438 4.856-.575 9.7.009 14.56.141 1.17.221 2.349.301 3.527v.001c.126 1.847.252 3.691.61 5.491.711 3.561 1.719 7.066 2.725 10.565l.385 1.341c.226.793.805 1.611 1.449 2.139 2.741 2.248 5.534 4.436 8.325 6.622l1.541 1.208c.348.273.719.515 1.17.81.238.156.498.326.789.523l-.133-.659v-.003a11 11 0 0 0-.165-.752c-.265-1.001-.566-1.996-.867-2.992l-.001-.001c-.658-2.176-1.316-4.352-1.594-6.575-.741-5.896-1.099-11.843-1.414-17.781-.078-1.468.079-2.945.237-4.424.093-.879.187-1.758.231-2.635.311-6.054 1.27-12.001 2.68-17.892.266-1.115.451-2.249.65-3.469v-.001c.101-.616.205-1.254.325-1.923zm-123.196-79.704c1.198.039 2.396.079 3.592.136l.008.004.006.083q.007.076.007.151c1.448-.048 2.897-.086 4.346-.123 3.271-.085 6.544-.17 9.806-.38 5.138-.328 10.279-.762 15.387-1.401 4.545-.571 9.074-1.363 13.56-2.292 1.937-.4 3.845-.941 5.754-1.482 1.545-.438 3.09-.876 4.653-1.24 6.705-1.564 13.099-4.098 19.276-6.965 6.301-2.923 12.465-6.228 18.097-10.467 6.04-4.55 11.647-9.47 15.919-15.724a64.3 64.3 0 0 0 5.283-9.304c1.222-2.636 2.283-5.478 2.679-8.332.669-4.848.84-9.7-.132-14.659-1.082-5.521-3.301-10.522-6.232-15.072-2.91-4.515-6.48-8.635-10.586-12.294-5.615-5.005-11.779-9.189-18.357-12.67-6.994-3.701-14.275-6.888-21.951-9.013-1.157-.321-2.312-.653-3.467-.984-2.968-.851-5.937-1.703-8.943-2.377-4.549-1.023-9.154-1.837-13.768-2.535l-.911-.139c-4.365-.664-8.754-1.331-13.151-1.523-5.561-.243-11.134-.188-16.704-.133q-1.719.017-3.438.031c-2.406.017-4.813.252-7.212.503q-1.435.149-2.874.295c-3.97.404-7.944.808-11.887 1.409-4.422.673-8.805 1.627-13.172 2.603-3.263.728-6.517 1.555-9.7 2.581-2.099.68-4.165 1.466-6.231 2.254-1.46.556-2.92 1.113-4.393 1.631-7.165 2.518-13.76 6.182-20.107 10.254-3.6 2.31-7.11 4.874-10.22 7.796l-.922.863c-3.058 2.86-6.15 5.75-8.356 9.408-.51.842-1.073 1.662-1.635 2.482-1.108 1.613-2.214 3.224-2.906 4.998-1.905 4.882-3.604 9.786-3.949 15.234-.328 5.168.673 9.994 1.963 14.744.972 3.57 2.821 7.067 4.976 10.105 2.905 4.089 5.985 8.081 9.794 11.502 6.441 5.793 13.487 10.637 21.24 14.411a160 160 0 0 0 14.561 6.199c6.731 2.487 13.649 4.332 20.691 5.84 7.144 1.529 14.352 2.377 21.585 3.135 2.659.28 5.34.369 8.021.457m3.971-1.253-.008-.545-.009-.009c-.93 0-1.862.014-2.794.029-2.097.033-4.196.065-6.284-.067-3.625-.23-7.242-.69-10.846-1.168l-.047-.006c-3.682-.488-7.372-.977-11.003-1.719a193 193 0 0 1-19.703-5.112c-7.063-2.245-13.121-6.109-18.914-10.501-4.473-3.386-8.376-7.416-11.387-12.128-2.373-3.71-4.618-7.608-5.006-12.192-.038-.46-.017-.959.107-1.402 1.107-3.97 2.611-7.727 4.941-11.199 3.655-5.449 8.277-9.858 13.483-13.769 5.133-3.859 10.727-6.914 16.58-9.435 6.194-2.671 12.537-5.019 19.196-6.335a361 361 0 0 0 4.883-1.008c3.965-.837 7.931-1.674 11.939-2.187 4.38-.56 8.809-.74 13.235-.92q1.802-.07 3.601-.154a63 63 0 0 1 7.383.077q1.193.083 2.386.163c4.342.292 8.69.585 12.992 1.179 5.794.801 11.621 1.67 17.257 3.178 6.182 1.657 12.269 3.706 18.156 6.364 5.377 2.429 10.497 5.274 15.247 8.67 4.712 3.365 8.98 7.314 12.435 12.089 2.803 3.873 4.89 8.009 6.194 12.601.52 1.827-.023 3.4-.574 4.993q-.156.448-.304.899c-2.159 6.756-6.398 12.115-11.433 16.912-4.946 4.716-10.535 8.542-16.687 11.532-5.683 2.765-11.757 4.379-17.875 5.73-7.178 1.584-14.42 2.884-21.662 4.14-2.288.399-4.632.496-6.969.592q-.612.025-1.223.052c-4.148.187-8.299.334-12.45.482q-2.419.085-4.837.174m78.746-17.402c-.196.089-.43.157-.43.157v-.012c.92-.909 1.871-1.803 2.827-2.701 2.17-2.04 4.362-4.1 6.264-6.399 3.208-3.876 5.746-8.209 7.497-13.052 1.508-4.167 1.947-8.44 1.713-12.661-.256-4.686-1.713-9.202-3.966-13.475-3.442-6.534-8.346-11.723-14.02-16.264-5.964-4.776-12.546-8.563-19.638-11.357-5.347-2.11-10.744-4.175-16.278-5.692-3.702-1.014-7.504-1.664-11.304-2.315-1.595-.273-3.19-.546-4.777-.846-8.129-1.537-16.389-1.7-24.593-1.7-5.02.004-10.047.578-15.066 1.152a478 478 0 0 1-4.403.489c-3.331.349-6.641.924-9.93 1.567-1.577.31-3.129.739-4.681 1.167-.859.237-1.719.474-2.582.69a104.5 104.5 0 0 0-27.166 11.051c-6.113 3.557-11.634 7.864-16.354 13.168-4.162 4.677-7.225 9.917-9.095 15.924-.915 2.938-1.063 5.928-1.21 8.916q-.04.86-.09 1.717c-.062 1.051.197 2.119.458 3.19.145.6.291 1.202.382 1.802.677 4.546 2.735 8.601 5.171 12.303 2.837 4.311 6.19 8.337 10.429 11.472.723.533 1.392 1.145 2.06 1.756.304.278.609.556.918.826a6 6 0 0 0-.133.196l-.08.119q-.994-.603-1.982-1.216c-1.428-.883-2.857-1.766-4.323-2.579-5.751-3.191-10.825-7.319-15.396-11.941-4.298-4.345-8.09-9.193-10.531-14.961-1.048-2.48-2.044-4.921-2.662-7.566-.494-2.099.065-3.911.641-5.781q.107-.344.211-.69c2.573-8.588 7.796-15.425 14.164-21.492 6.233-5.938 13.436-10.441 21.032-14.454 5.043-2.66 10.348-4.633 15.65-6.604a753 753 0 0 0 2.915-1.09c3.647-1.375 7.519-2.223 11.349-3.033 6.185-1.303 12.392-2.556 18.637-3.497 4.665-.703 9.402-1.12 14.118-1.248 7.421-.2 14.854-.218 22.271.017 4.337.14 8.678.733 12.963 1.444l.679.112c6.2 1.028 12.417 2.058 18.496 3.607 8.737 2.232 17.219 5.265 25.411 9.155a99.7 99.7 0 0 1 16.162 9.61c5.474 4.005 10.369 8.72 14.475 14.246 2.489 3.346 4.182 7.053 5.877 10.764l.705 1.539c.767 1.661 1.116 3.676 1.052 5.512-.044 1.252-.449 2.492-.855 3.733-.185.566-.37 1.131-.521 1.698-1.401 5.266-4.409 9.769-7.702 13.871-3.757 4.682-8.077 8.963-13.138 12.409-.746.509-1.487 1.027-2.227 1.544-3.01 2.101-6.012 4.198-9.394 5.703m34.108-45.693.419-.026c.026-.254.07-.512.114-.769.095-.557.19-1.114.099-1.642-.142-.816-.263-1.642-.385-2.47-.357-2.421-.715-4.852-1.591-7.068-1.581-3.996-3.723-7.817-5.998-11.481-1.653-2.666-3.677-5.201-5.939-7.374-7.259-6.973-15.412-12.695-24.533-17.07a140 140 0 0 0-26.732-9.644c-5.261-1.317-10.59-2.484-15.949-3.272-5.22-.765-10.495-1.18-15.76-1.594l-1.876-.148c-9.982-.797-19.98-.477-29.897.664-7.177.827-14.3 2.237-21.399 3.643l-1.205.238a83 83 0 0 0-11.885 3.263c-6.965 2.501-13.9 5.066-20.444 8.665-7.033 3.868-13.666 8.197-19.447 13.773-5.627 5.423-10.262 11.498-13.091 18.91-1.768 4.639-2.637 9.342-2.509 14.267 0 .094.034.186.099.366.042.113.095.261.161.464.189-.56.34-1.096.483-1.603.29-1.027.548-1.939 1.021-2.72.532-.88 1.057-1.766 1.583-2.653 2.021-3.409 4.048-6.828 6.485-9.914 4.771-6.037 10.816-10.83 17.304-14.885 5.79-3.62 11.788-6.957 18.263-9.295 1.323-.478 2.637-.984 3.951-1.49 2.164-.834 4.326-1.667 6.529-2.374a118 118 0 0 1 10.513-2.807c5.338-1.18 10.697-2.284 16.086-3.195 3.808-.644 7.672-.993 11.523-1.317l.449-.038c3.669-.312 7.352-.625 11.024-.584q2.053.021 4.108.03c7.56.04 15.125.08 22.623 1.419 1.72.307 3.457.523 5.193.739 1.777.22 3.554.441 5.312.76l.151.027c4.031.728 8.09 1.461 12.02 2.593 7.877 2.266 15.681 4.75 23.157 8.23 7.221 3.362 14.127 7.208 20.312 12.201l.913.734c3.473 2.789 6.972 5.599 9.596 9.32.665.94 1.391 1.836 2.117 2.732 1.468 1.81 2.937 3.622 3.894 5.805.674 1.538 1.412 3.048 2.151 4.558q.498 1.014.987 2.032m-18.285 13.429-.133.007.004-.004-.47-.979q-.435-.899-.859-1.803c-2.978-6.369-7.57-11.413-12.882-15.915-5.964-5.049-12.67-8.789-19.716-12.086-4.939-2.307-10.097-3.931-15.251-5.553q-1.09-.342-2.181-.688c-3.426-1.088-7.018-1.69-10.586-2.288l-1.035-.174c-3.808-.644-7.651-1.163-11.502-1.474-5.695-.46-11.408-.912-17.117-.946-4.758-.03-9.542.37-14.279.895-5.576.617-11.131 1.465-16.657 2.436-2.867.503-5.704 1.338-8.464 2.28q-1.41.48-2.825.956c-4.817 1.626-9.643 3.254-14.296 5.267a73.8 73.8 0 0 0-18.898 11.839c-4.417 3.813-8.396 8.166-11.182 13.419a140 140 0 0 0-1.913 3.792q-.47.957-.958 1.933-.015-.167-.037-.344a7 7 0 0 1-.057-.75c-.051-6.633 2.092-12.538 5.662-18.08 4.017-6.241 9.367-11.05 15.378-15.234 5.564-3.876 11.575-6.867 17.841-9.436 6.543-2.683 13.338-4.494 20.167-6.172 2.573-.635 5.214-1.007 7.853-1.38.922-.13 1.844-.26 2.763-.401 10.049-1.55 20.167-1.67 30.293-1.278 2.497.099 4.987.42 7.476.742q1.265.166 2.53.319l1.228.143c2.218.258 4.442.516 6.632.926 6.876 1.287 13.722 2.76 20.252 5.32q1.195.469 2.395.933c4.263 1.654 8.542 3.313 12.549 5.462 5.726 3.071 11.17 6.71 15.852 11.332 4.055 4.008 7.463 8.434 9.938 13.64 1.429 2.997 2.021 6.143 2.615 9.304q.172.926.354 1.853c.094.472.011.98-.073 1.488a10 10 0 0 0-.097.685z" clip-rule="evenodd"/>
</svg>
