<svg xmlns="http://www.w3.org/2000/svg" width="550" height="550" fill="none" viewBox="0 0 550 550">
    <path fill="#fff" d="m203.327 395.143 3.324 2.26v.008c4.368-1.947 8.449-4.291 12.381-6.915 4.863-3.247 9.227-7.098 13.451-11.119 2.936-2.8 6.28-3.909 10.388-2.784 2.713.74 5.563 1.059 8.374 1.331 1.601.156 2.726.701 3.859 1.858 1.911 1.954 3.947 3.85 6.178 5.419 3.945 2.775 7.935 5.484 11.925 8.192 2.784 1.89 5.568 3.78 8.336 5.692.978.677 1.729.724 2.784.214 6.743-3.267 13.21-7 19.455-11.139 1.043-.693 1.674-1.592 2.176-2.698 4.084-9.013 7.215-18.303 8.41-28.176.152-1.238.494-2.468.888-3.656 1.172-3.539 3.504-6.295 6.104-8.857 5.564-5.478 10.746-11.295 15.469-17.509 1.356-1.786 2.668-3.606 3.98-5.425v-.001l.001-.001v-.001h.001v-.001l.001-.001v-.001h.001c1.495-2.074 2.989-4.148 4.55-6.171 2.005-2.6 4.52-4.625 7.888-5.225 8.787-1.569 16.496-5.602 23.839-10.445.806-.53 1.553-1.375 1.962-2.247a202 202 0 0 0 9.297-23.477c.351-1.086.308-2.001-.428-2.857a73 73 0 0 1-1.619-1.978l-.001-.001c-1.243-1.554-2.485-3.108-3.975-4.371-2.154-1.829-4.523-3.411-6.889-4.992l-.003-.001c-.776-.519-1.551-1.037-2.319-1.564l-.075-.051c-3.959-2.717-3.975-2.728-3.449-7.611.946-8.818.806-17.602-.919-26.33-.214-1.075-.358-2.188-.335-3.279.07-3.297 1.122-6.26 3.205-8.978l.77.407 1.429.755.853.451.771.408c.176-.245.336-.463.483-.664l.006-.009.001-.002c.292-.399.534-.731.763-1.073l4.323-6.482c5.329-7.99 10.659-15.979 15.942-24.003 1.083-1.639 2.399-2.815 4.104-3.749 10.072-5.524 20.125-11.082 30.178-16.639l.02-.012.015-.008.034-.018q4.728-2.615 9.457-5.227c2.966-1.639 5.941-3.263 8.915-4.887 6.701-3.658 13.401-7.316 20.005-11.142 9.285-5.384 14.413-13.549 14.269-24.423-.135-10.123-.438-20.244-.741-30.365v-.011l-.001-.003v-.018c-.133-4.426-.265-8.852-.383-13.278q-.168-6.366-.331-12.732l-.001-.02v-.02l-.001-.02v-.021l-.001-.021v-.021l-.223-8.629c-.094-3.679-1.355-6.786-4.54-8.857a310 310 0 0 0-4.476-2.84v-.001l-.002-.001h-.001c-1.837-1.152-3.674-2.304-5.48-3.5-2.702-1.791-5.563-2.157-8.557-1.11-1.698.596-3.333 1.413-4.914 2.282a14957 14957 0 0 0-30.911 17.056l-6.722 3.715c-4.1 2.265-8.209 4.516-12.318 6.766-9.976 5.465-19.953 10.93-29.804 16.613-9.032 5.21-13.844 13.304-13.825 23.928.006 3.159.097 6.317.189 9.475q.055 1.874.103 3.747l.246 9.884q.365 14.537.72 29.073c.013.542-.016 1.088-.051 1.74v.001c-.017.322-.035.669-.051 1.054a126 126 0 0 0-.965-.585l-.002-.001-.001-.001a30 30 0 0 1-1.375-.857q-.948-.638-1.898-1.272c-2.051-1.369-4.102-2.74-6.092-4.194-1.187-.865-2.129-.845-3.41-.199-4.929 2.5-9.714 5.244-14.032 8.69-2.676 2.134-5.235 4.415-7.793 6.695q-1.096.979-2.197 1.952c-3.037 2.687-6.342 3.8-10.442 2.679-2.784-.763-5.715-1.059-8.604-1.34-1.378-.136-2.309-.626-3.22-1.615l-.14-.152-.175-.192c-1.331-1.45-2.688-2.929-4.279-4.04-4.183-2.916-8.405-5.774-12.627-8.632h-.001v-.001l-.002-.001a1494 1494 0 0 1-9.219-6.274c-1.188-.813-2.161-.891-3.458-.261-6.595 3.212-12.953 6.829-19.011 10.96-.798.545-1.561 1.367-1.966 2.239-3.889 8.39-6.95 17.049-8.297 26.249l-.031.213c-.25 1.717-.502 3.449-.981 5.109-1.055 3.652-3.321 6.564-6.004 9.184a167 167 0 0 0-16.655 18.972 252 252 0 0 0-3.482 4.784l-.001.001-.001.001v.001h-.001c-1.325 1.852-2.651 3.703-4.033 5.511-1.997 2.609-4.454 4.754-7.806 5.361-8.862 1.608-16.672 5.591-24.069 10.505-.802.533-1.561 1.366-1.966 2.234-3.543 7.561-6.642 15.305-9.227 23.251-.405 1.246-.281 2.235.463 3.31 2.215 3.204 4.801 6.027 8.04 8.222.832.564 1.659 1.137 2.487 1.71 1.892 1.311 3.785 2.623 5.743 3.823 1.709 1.047 2.43 2.336 2.13 4.283-.07.45-.093.906-.116 1.363-.016.33-.033.66-.067.988-.95 9.142-.759 18.233 1.113 27.257.51 2.473.222 4.921-.837 7.156-1.105 2.336-2.425 4.583-3.831 6.755-5.205 8.052-9.122 16.699-12.221 25.747-.354 1.032-.428 1.927.214 2.896 3.637 5.486 7.744 10.516 13.277 14.234 3.491 2.346 6.969 4.714 10.445 7.081l.001.001.002.001.001.001.001.001.001.001.002.001.005.003.005.004.006.004q2.094 1.426 4.189 2.85l3.698 2.514.134.09.043.03zm157.754-218.177a56 56 0 0 0 1.175-.775l.008-.007c.041.573.084 1.078.123 1.541v.002c.071.832.129 1.526.149 2.221l.063 2.132.043 1.495c.205 6.974.41 13.946.533 20.921.027 1.616.549 2.632 1.939 3.422 1.182.671 2.314 1.429 3.489 2.215l.001.001.001.001.011.007q.765.514 1.567 1.039-.157.322-.292.61c-.196.412-.371.781-.565 1.142-1.997 3.718-2.916 7.576-2.044 11.824 1.729 8.398 1.83 16.874.981 25.384a55 55 0 0 0-.272 4.945c-.023 2.628 1.904 5.404 4.59 6.182 5.723 1.659 10.185 5.144 13.631 9.991.802 1.125 1.086 2.145.549 3.48a1855 1855 0 0 0-3.524 8.862l-.005.012c-1.723 4.354-3.445 8.708-5.216 13.042-.385.942-1.218 1.857-2.079 2.426-7.14 4.726-14.693 8.514-23.227 10.072-3.68.673-6.386 2.99-8.581 5.855-1.384 1.803-2.708 3.654-4.031 5.504l-.001.001v.001h-.001l-.001.002a232 232 0 0 1-3.484 4.786c-4.984 6.611-10.411 12.836-16.333 18.622-2.85 2.784-5.283 5.856-6.494 9.71-.491 1.561-.798 3.204-1.008 4.832-1.211 9.394-4.318 18.197-8.266 26.735-.339.732-1.004 1.417-1.682 1.877-5.672 3.85-11.586 7.3-17.761 10.286-1.896.919-2.103.884-3.672-.717-3.605-3.667-6.12-7.973-7.498-12.929-.169-.605-.315-1.215-.461-1.824a52 52 0 0 0-.466-1.84c-.856-3.048-3.15-4.719-6.334-4.462-1.413.115-2.82.298-4.228.48h-.003c-1.167.152-2.334.303-3.505.416-5.299.506-10.575.218-15.687-1.254-4.613-1.324-8.386-.015-11.672 3.127-4.275 4.087-8.666 8.031-13.673 11.205-1.829 1.159-3.711 2.232-5.592 3.304-1.194.681-2.388 1.361-3.569 2.064-1.18.705-2.103.623-3.154-.338-3.332-3.053-6.171-6.494-8.651-10.259-.634-.966-.568-1.881-.218-2.909 2.905-8.526 6.631-16.659 11.489-24.267 1.398-2.184 2.772-4.395 3.952-6.696 1.561-3.045 1.791-6.331 1.121-9.667-1.752-8.725-1.861-17.501-.883-26.319.136-1.246.148-2.515.136-3.773-.035-3.375-1.511-5.517-4.746-6.482-5.692-1.698-9.92-5.272-13.393-9.944-.896-1.207-1.082-2.305-.522-3.706 1.2-2.989 2.384-5.985 3.568-8.981v-.002l.001-.001.001-.002v-.001l.001-.002v-.001l.001-.002.001-.001c1.676-4.243 3.352-8.485 5.074-12.709.386-.946 1.196-1.88 2.056-2.449 7.008-4.633 14.401-8.413 22.776-9.943 3.94-.721 6.848-3.099 9.2-6.16 1.37-1.785 2.677-3.618 3.984-5.451 1.069-1.499 2.138-2.999 3.242-4.473a167 167 0 0 1 16.624-18.991c2.78-2.73 5.198-5.727 6.358-9.52a29 29 0 0 0 1.016-4.831c1.188-9.399 4.349-18.186 8.239-26.747.303-.678.868-1.336 1.479-1.756a139.5 139.5 0 0 1 18.17-10.516c1.756-.845 1.857-.826 3.282.592 3.761 3.745 6.354 8.183 7.764 13.303.15.544.282 1.092.415 1.641.164.676.327 1.352.523 2.019.849 2.893 2.982 4.469 5.976 4.275 1.598-.104 3.192-.305 4.786-.506h.001q1.005-.128 2.011-.246c5.688-.658 11.361-.455 16.854 1.133 4.63 1.34 8.285-.058 11.684-3.048a873 873 0 0 1 10.539-9.091c.46-.391.968-.72 1.617-1.141m15.374 33.222q-.305-.11-.615-.214l.004-.008q-.032-.6-.067-1.199a97 97 0 0 1-.143-3.01q-.31-11.769-.613-23.541l-.454-17.533q-.175-6.711-.343-13.421v-.007l-.001-.007v-.034l-.001-.007c-.3-11.876-.599-23.75-.975-35.623-.168-5.353.117-10.532 2.749-15.359 2.581-4.735 5.995-8.597 10.792-11.24 13.041-7.183 26.075-14.38 39.109-21.577l.044-.024.01-.006.003-.001.014-.008.002-.001.014-.008.003-.001.013-.008a42070 42070 0 0 1 41.022-22.63c1.565-.86 3.278-1.611 5.014-1.977 4.24-.896 7.476 1.296 8.445 5.513.226.988.3 2.028.327 3.044.379 14.346.747 28.692 1.116 43.038l.441 17.161q.02.732.043 1.464v.012c.026.846.052 1.691.066 2.538.195 10.411-4.36 18.388-13.225 23.434-12.864 7.325-25.845 14.448-38.825 21.57l-.001.001h-.001l-.001.001a6639 6639 0 0 0-16.123 8.866l-3.921 2.169-.007.004-.004.002a1194 1194 0 0 1-10.757 5.911 9.2 9.2 0 0 0-3.415 3.131 4980 4980 0 0 1-14.104 21.252l-.003.004-.035.053-3.888 5.839c-.369.554-.757 1.098-1.144 1.641l-.002.003q-.284.396-.563.793m-183.559 85.291c-.092-.526-.273-.996-.449-1.456-.358-.933-.701-1.826-.26-3.072 2.78-7.872 5.692-15.682 9.286-23.223.382-.806 1.043-1.601 1.779-2.095 7.304-4.917 15.036-8.9 23.796-10.524 2.157-.401 4.127-1.257 5.611-2.819 1.993-2.098 3.807-4.376 5.606-6.649 1.52-1.925 3.015-3.87 4.51-5.815l.001-.001.001-.001.001-.001v-.001c2.676-3.48 5.351-6.96 8.168-10.323 2.029-2.424 4.227-4.706 6.426-6.989 1.407-1.461 2.815-2.923 4.179-4.422 2.721-2.991 4.314-6.533 4.769-10.583.183-1.639.444-3.274.748-4.897 1.456-7.787 4.205-15.145 7.386-22.368.595-1.354 1.386-2.421 2.67-3.169a3570 3570 0 0 0 10.212-5.936l.01-.006q3.047-1.776 6.095-3.55a69 69 0 0 1 1.548-.864l.003-.002.004-.002h.001l.419-.23.381-.21a34 34 0 0 1-.626-.541c-.337-.296-.599-.525-.885-.72q-3.08-2.096-6.164-4.184c-4.33-2.934-8.661-5.868-12.964-8.843-1.214-.841-2.188-.791-3.453-.172-6.163 3.018-12.097 6.424-17.762 10.287-.852.58-1.619 1.514-2.051 2.456-4.042 8.768-7.075 17.843-8.223 27.483-.148 1.238-.471 2.473-.849 3.664-1.257 3.94-3.811 7.012-6.696 9.854-5.334 5.256-10.325 10.823-14.857 16.784-1.412 1.857-2.782 3.744-4.153 5.632l-.001.001c-1.588 2.188-3.177 4.376-4.828 6.514-2.208 2.862-4.995 5.042-8.671 5.72-8.448 1.557-15.927 5.326-22.998 10.021-.802.533-1.6 1.367-1.954 2.239-1.823 4.494-3.602 9.005-5.381 13.516l-.002.004-.001.003-.001.004-.002.003-.001.004-.002.003-.001.004-.001.003-.002.004c-1.131 2.868-2.262 5.737-3.405 8.601-.498 1.25-.261 2.239.494 3.286 1.998 2.772 4.291 5.229 7.125 7.156a4439 4439 0 0 0 15.414 10.422m181.475-84.422-.001.39-.002.711.004.004-1.415-.881-.004-.002-.01-.006c-.666-.414-1.221-.758-1.771-1.108a96 96 0 0 1-1.474-.966c-1.02-.677-2.041-1.355-3.109-1.947-1.471-.817-2.02-1.907-2.052-3.601-.138-7.043-.329-14.086-.521-21.129a6181 6181 0 0 1-.23-8.608c-.17-6.605-.35-13.209-.531-19.814-.451-16.522-.902-33.046-1.194-49.573-.175-9.878 4.602-17.415 12.969-22.38 6.097-3.616 12.329-7.001 18.562-10.387l.006-.003c2.688-1.46 5.377-2.92 8.055-4.4l8.517-4.706.04-.022.01-.005.002-.001.001-.001h.002v-.001h.001c15.121-8.355 30.243-16.71 45.384-25.025 1.636-.899 3.434-1.549 5.225-2.102 1.624-.502 3.337-.327 4.816.534 1.688.985 3.335 2.04 4.974 3.09l.003.002.001.001h.001v.001h.001q1.082.696 2.165 1.379a4 4 0 0 0-.13.311c-.055.144-.09.236-.143.246-2.879.588-5.392 1.985-7.914 3.385l-.004.003h-.002v.001l-.684.38a22146 22146 0 0 1-23.714 13.084c-18.007 9.927-36.016 19.854-53.958 29.894-9.722 5.439-14.659 14.008-14.402 25.272.317 13.967.691 27.932 1.065 41.898l.255 9.548c.227 8.635.464 17.271.701 25.906v.016l.001.016v.016l.001.016v.032l.001.016v.016q.252 9.166.499 18.331c.012.573.009 1.148.005 1.861v.003zM198.935 390.069l-.16.193v-.003q-.298-.185-.597-.366l-.004-.003a34 34 0 0 1-1.334-.838 741 741 0 0 1-3.614-2.459c-2.372-1.621-4.744-3.241-7.151-4.806-5.322-3.462-9.313-8.165-12.868-13.323-.813-1.18-.79-2.223-.346-3.516 3.192-9.274 7.343-18.073 12.86-26.202 1.829-2.698 3.469-5.501 3.749-8.803.163-1.931.117-3.944-.249-5.84-1.803-9.305-1.565-18.63-.596-27.981.015-.135.088-.264.185-.436.054-.096.117-.206.181-.339q.312.182.612.35l.011.006.003.001c.415.234.813.458 1.188.714q2.74 1.857 5.474 3.724l.005.003.006.004.005.003c4.219 2.878 8.438 5.755 12.708 8.553 1.689 1.106 2.203 2.359 2.098 4.29l-.034.618c-.285 5.211-.571 10.431-.507 15.641.047 3.597.502 7.234 1.191 10.769.946 4.859.102 9.204-2.667 13.245-5.914 8.628-10.414 17.944-13.766 27.845-.538 1.592-.456 2.834.541 4.15.787 1.039 1.524 2.118 2.26 3.196q.485.712.975 1.418zm123.88-216.204-.249-.191-.466-.352h-.004c1.355-1.159 2.666-2.318 3.959-3.461 2.896-2.56 5.702-5.04 8.702-7.257 2.777-2.051 5.755-3.828 8.732-5.606h.001c1.41-.842 2.82-1.684 4.209-2.555 1.359-.852 2.538-.794 3.885.187 2.862 2.075 5.809 4.034 8.776 5.961 1.16.755 1.771 1.627 1.771 3.056 0 2.904.086 5.813.226 8.717.066 1.39-.42 2.27-1.545 3.15-3.087 2.41-6.1 4.912-9.113 7.415l-2.194 1.82c-.398.328-.766.688-1.135 1.048-.306.299-.613.598-.936.879-2.32 2.017-2.803 2.048-5.295.362-6.054-4.096-12.1-8.199-18.147-12.307-.38-.256-.746-.537-1.173-.863zm-18.321-.679.308-.565.008.004.008.001q3.459.495 6.918.996c4.189.603 7.896 2.196 11.314 4.777 2.741 2.067 5.61 3.967 8.478 5.866 1.324.876 2.647 1.752 3.957 2.645.612.416 1.192.891 1.604 1.635l-6.704-.876c-4.325-.565-8.62-.183-12.906.389q-.516.07-1.032.145c-.823.118-1.646.235-2.472.307-2.659.226-4.322-.958-5.077-3.512q-.277-.94-.546-1.882c-.513-1.785-1.026-3.57-1.654-5.313-.397-1.099-.94-2.147-1.482-3.195l-.001-.001-.001-.002c-.244-.472-.489-.943-.72-1.419M255.94 378.504l.008-.016.129-.268a434 434 0 0 0 3.195-.37h.007c2.588-.306 5.177-.613 7.773-.805 2.449-.183 3.835 1.074 4.61 3.507.973 3.061 1.962 6.121 3.099 9.123.349.918.864 1.771 1.446 2.736l.001.001.002.005c.289.477.594.983.903 1.536a19 19 0 0 0-.652-.256c-.342-.13-.589-.223-.801-.367q-1.757-1.186-3.518-2.369c-3.977-2.674-7.955-5.349-11.872-8.111-1.122-.793-2.114-1.772-3.105-2.751a54 54 0 0 0-1.361-1.314zm85.978-189.717c.11.153.249.347.443.595v.004c-.32-.106-.573-.178-.779-.236-.338-.096-.55-.156-.724-.274a12624 12624 0 0 1-15.863-10.748l-.058-.039-.057-.039-4.847-3.287.035-.072.026-.054.046-.091.039-.077.068-.139c.12.032.246.055.372.078.279.05.558.101.773.246a5821 5821 0 0 1 20.113 13.65c.132.091.234.232.413.483M209.859 306.945l-.374.436-.691-.53-.314-.242-.384-.295.042-.064.072-.107.135-.198.004-.004.38.253.379.252.373.247zm-88.429-15.778q1.354.868 2.753 1.77h.008c.216-.299.413-.566.595-.813.359-.487.661-.897.943-1.321l2.48-3.719a4392 4392 0 0 0 11.637-17.515c.802-1.219 1.767-2.137 3.056-2.842a3753 3753 0 0 0 17.688-9.748l.005-.003.021-.012.022-.012 5.005-2.769c2.683-1.483 5.371-2.955 8.06-4.427h.001c6.285-3.441 12.571-6.883 18.78-10.458 6.611-3.807 10.403-9.632 10.282-17.399-.182-11.611-.498-23.22-.815-34.83q-.156-5.715-.306-11.43a19.6 19.6 0 0 0-.355-3.279c-.354-1.767-1.292-3.251-2.795-4.232-3.691-2.41-7.425-4.753-11.162-7.086-1.39-.868-2.959-1.183-4.54-.751-1.429.393-2.877.864-4.166 1.573l-8.202 4.511-.083.045-.042.023c-16.533 9.09-33.066 18.18-49.528 27.405-7.093 3.971-10.656 10.204-10.43 18.489.25 9.187.466 18.375.681 27.564v.013q.168 7.216.343 14.432.3 12.158.615 24.31l.019.866c.031 1.445.061 2.889.227 4.32.081.693.451 1.592.988 1.958 2.658 1.803 5.362 3.538 8.2 5.358l.002.002.003.001.006.004zm4.156-2.743.001-.002c.373-.5.659-.884.924-1.282l2.307-3.457v-.001h.001v-.001c3.382-5.067 6.764-10.133 10.12-15.218.755-1.144 1.654-2.036 2.877-2.702 5.317-2.905 10.616-5.839 15.916-8.773v-.001h.002v-.001h.001l.003-.001 5.168-2.861a2692 2692 0 0 1 8.817-4.844l.006-.003.008-.005c6.72-3.681 13.44-7.362 20.085-11.173 6.354-3.644 9.757-9.297 9.601-16.729-.234-11.202-.538-22.404-.841-33.604l-.001-.02q-.166-6.085-.326-12.17c-.02-.786-.055-1.58-.195-2.347-.631-3.415-3.212-5.101-6.58-4.19-1.199.323-2.343.915-3.441 1.515-12.003 6.599-23.991 13.222-35.979 19.844a1418 1418 0 0 1-6.301 3.454l-.001.001h-.001l-.002.001-.001.001-.001.001h-.001l-.002.001-.001.001c-5.149 2.812-10.299 5.624-15.367 8.578-6.26 3.648-9.499 9.231-9.472 16.566.005 1.275.049 2.549.093 3.824q.039 1.039.066 2.079c.538 20.775 1.075 41.546 1.62 62.32.007.321.044.641.097 1.099.033.281.071.613.112 1.029.261-.356.487-.659.688-.928zm-2.626 1.721-.295.168.003.004q-1.106-.718-2.215-1.432c-2.085-1.345-4.169-2.69-6.221-4.081-.374-.253-.577-.919-.655-1.425-.104-.672-.116-1.361-.128-2.047q-.005-.272-.012-.542-.374-14.917-.743-29.831v-.009l-.52-21.02v-.015c-.143-5.855-.285-11.71-.458-17.562-.233-7.861 3.201-13.693 9.952-17.454 14.279-7.957 28.598-15.849 42.916-23.74q7.16-3.946 14.316-7.893c.825-.452 1.67-.892 2.546-1.231 2.029-.79 3.979-.697 5.848.561a236 236 0 0 0 4.629 3.018l.004.002q1.047.67 2.157 1.387c-.263.14-.487.262-.687.37-.35.19-.627.34-.909.479q-.682.334-1.37.658v.001h-.002v.001c-.892.423-1.785.846-2.646 1.322q-11.808 6.514-23.61 13.036l-.008.004-.009.005-.008.005-.009.004-.008.005-.009.005-.008.004-.008.005a31428 31428 0 0 1-32.126 17.731c-2.878 1.584-5.381 3.55-7.281 6.237-2.667 3.772-4.08 7.895-3.932 12.595.393 12.498.722 24.996 1.051 37.494l.206 7.812c.166 6.19.309 12.377.451 18.565l.001.028v.028l.035 1.492.058 2.543c.011.565.007 1.131.004 1.696v.001q-.003.424-.004.849zm150.758 225.973q-1.301-.833-2.567-1.636l-.003-.001c-1.953-1.242-3.848-2.446-5.718-3.689-.735-.488-1.328-.852-1.807-1.147h-.001c-.951-.585-1.452-.893-1.718-1.341-.295-.498-.3-1.168-.311-2.585-.004-.494-.008-1.079-.026-1.779-.308-12.156-.603-24.313-.898-36.469q-.295-12.202-.597-24.403c-.027-1.108-.081-2.215-.134-3.321v-.007c-.076-1.564-.152-3.128-.154-4.693-.011-8.031 3.605-14.086 10.497-18.018 6.656-3.798 13.376-7.483 20.096-11.169l.006-.003c2.798-1.535 5.596-3.069 8.389-4.611l.01-.006.01-.006.011-.005.01-.006.01-.005.01-.006.01-.005.01-.006c9.547-5.272 19.094-10.545 28.648-15.797 1.098-.604 2.231-1.188 3.407-1.601 2.273-.802 4.446-.591 6.529.775a357 357 0 0 0 6.148 3.923h.001l.001.001.001.001.001.001h.001l.001.001.001.001.009.005c1.333.838 2.667 1.677 3.993 2.526 1.893 1.211 3.037 2.947 3.36 5.174.137.931.176 1.881.203 2.823q.247 9.334.489 18.667v.009l.001.005c.226 8.715.453 17.431.69 26.147.237 8.667-3.672 14.962-11.093 19.097-15.877 8.845-31.8 17.605-47.74 26.338-1.989 1.09-3.531 2.453-4.777 4.372-3.456 5.327-6.981 10.608-10.506 15.888l-.01.015q-1.719 2.573-3.434 5.149c-.162.243-.341.472-.578.775l-.001.002q-.133.168-.293.376zm.596-4.317c.179.035.362.066.541.101q.206-.276.415-.548c.279-.365.557-.729.812-1.111q1.45-2.171 2.905-4.341l.001-.002c2.972-4.437 5.944-8.873 8.848-13.356 1.195-1.849 2.678-3.173 4.598-4.224 16.075-8.818 32.127-17.68 48.16-26.576 6.923-3.843 10.547-9.663 10.333-17.718-.223-8.411-.436-16.821-.648-25.232v-.002q-.246-9.803-.5-19.606c-.024-.942-.078-1.892-.234-2.819-.557-3.313-3.122-5.042-6.373-4.17-1.347.363-2.644 1.017-3.874 1.694a31607 31607 0 0 0-56.426 31.147c-7.11 3.936-10.668 9.885-10.438 18.139.395 14.154.741 28.308 1.087 42.461q.267 10.983.544 21.966c.024.958.092 1.917.16 2.875q.048.659.089 1.318zm69.169-121.698q-1.119-.714-2.208-1.414l-.003-.003-.003-.001a250 250 0 0 0-5.261-3.32c-1.355-.826-2.881-.81-4.345-.335a19 19 0 0 0-3.228 1.421l-5.089 2.805c-17.319 9.546-34.642 19.093-51.932 28.692-6.837 3.796-10.419 9.605-10.224 17.547.299 12.346.611 24.696.926 37.041q.138 5.334.282 10.668v.022l.001.01v.022c.201 7.515.402 15.03.566 22.547.031 1.347.495 2.172 1.627 2.858 1.322.794 2.613 1.638 3.905 2.483.816.534 1.633 1.068 2.457 1.589.32.202.673.356 1.106.545.236.104.495.217.786.354l.001-.407.002-.322.002-.232v-.014c.004-.52.008-.958-.005-1.396q-.05-1.506-.11-3.014c-.059-1.51-.117-3.022-.154-4.535l-.159-6.234v-.015l-.001-.005v-.016c-.465-18.279-.93-36.556-1.367-54.836-.198-8.261 3.582-14.296 10.575-18.435 1.485-.879 3.006-1.699 4.527-2.52q1.043-.56 2.084-1.132c6.113-3.364 12.218-6.745 18.334-10.132l.006-.004.004-.001c12.203-6.759 24.452-13.542 36.906-20.273zM46.01 371.998q.132 4.63.26 9.259h-.058q.095 3.433.194 6.866v.005c.228 8.016.456 16.031.635 24.046.03 1.375.592 2.15 1.686 2.831a352 352 0 0 1 5.61 3.592v.001l.002.001.001.001h.001q1.364.886 2.729 1.766c2.095 1.343 2.122 1.335 3.484-.712q1.52-2.284 3.048-4.565c2.702-4.039 5.404-8.079 8.029-12.169 1.238-1.927 2.791-3.278 4.781-4.368 13.327-7.293 26.619-14.643 39.907-22.005 6.572-3.641 9.935-9.146 9.71-16.777-.226-7.691-.42-15.385-.615-23.079v-.033c-.124-4.883-.247-9.767-.378-14.649a20 20 0 0 0-.284-2.811c-.292-1.721-1.231-3.064-2.683-4.003a560 560 0 0 0-4.643-2.956 484 484 0 0 1-5.705-3.647c-2.029-1.323-4.112-1.44-6.292-.533-.794.331-1.569.732-2.324 1.148-6.824 3.76-13.647 7.529-20.468 11.297l-.033.018-.018.01-.019.01-3.029 1.673c-2.463 1.36-4.932 2.712-7.4 4.064l-.01.006-.004.001c-5.948 3.258-11.897 6.516-17.78 9.891-6.015 3.453-9.047 8.802-8.876 15.814.165 6.67.353 13.338.542 20.007m13.97 45.432-.247-.07.004-.007-.06-.598c-.05-.48-.102-.961-.115-1.443q-.24-9.081-.471-18.164v-.017c-.326-12.656-.65-25.313-1.017-37.968-.144-4.988 1.694-9.052 5.186-12.439.892-.861 1.967-1.581 3.057-2.185a24224 24224 0 0 1 48.752-26.938c.958-.529 1.974-1.02 3.021-1.3 2.667-.712 4.699.545 5.322 3.208.16.685.226 1.398.246 2.103q.23 9.027.451 18.052v.015c.17 6.874.34 13.749.518 20.625.171 6.739-2.877 11.625-8.647 14.837-13.747 7.654-27.53 15.246-41.32 22.823-1.499.825-2.628 1.888-3.555 3.317-2.4 3.701-4.851 7.367-7.301 11.033l-.002.001-.004.007-2.216 3.317c-.29.432-.6.848-.91 1.263q-.225.298-.445.599l-.166-.048zm56.294-104.223-.005-.002c-1.38-.853-2.756-1.703-4.027-2.688-2.682-2.083-5.236-1.935-8.086-.355-12.958 7.202-25.94 14.364-38.92 21.526l-.024.013-.023.012-.017.01-.011.006-.011.006-.006.003-.006.003-10.163 5.608a15.06 15.06 0 0 0-5.201 4.708c-1.974 2.869-3.045 5.991-2.947 9.523.202 7.297.385 14.594.569 21.891q.195 7.818.4 15.636c.07 2.649.152 5.298.233 7.947.143 4.667.286 9.333.37 14 .032 1.62.596 2.609 1.97 3.403 1.25.719 2.46 1.51 3.67 2.301v.001l.002.001.001.001h.001l.001.001c.7.458 1.4.915 2.107 1.359.326.202.676.367 1.126.578.25.118.531.249.856.41 0-.443.002-.844.005-1.218v-.001c.004-.677.007-1.266-.005-1.852l-.382-15.448a17149 17149 0 0 0-1.047-41.2c-.199-7.355 3.013-12.743 9.324-16.255a11795 11795 0 0 1 36.297-20.072l.008-.005.013-.007q7.852-4.329 15.759-8.695c-.606-.391-1.218-.77-1.83-1.148zm24.268 147.435-.644.339a69 69 0 0 0-1.559.833l-10.979 6.067q-8.98 4.964-17.96 9.923c-.966.533-1.932 1.067-2.936 1.515-2.246 1.008-4.423.876-6.517-.487l-1.441-.937-1.189-.772a2476 2476 0 0 0-15.81-10.224c-2.58-1.651-3.449-4.045-3.095-6.899.701-5.681 3.551-10.076 8.523-12.891 5.778-3.273 11.596-6.471 17.416-9.669l.001-.001h.001q3.793-2.083 7.581-4.175l1.812-1a659 659 0 0 0 4.799-2.663c.343-.192.664-.423 1.053-.702.203-.146.424-.305.676-.478-.541-.37-1.053-.731-1.548-1.082l-.001-.001c-1.002-.709-1.939-1.372-2.921-1.958-2.714-1.615-3.664-4.076-3.329-7.023.615-5.412 3.321-9.617 7.884-12.556 2.745-1.768 5.463-1.85 8.367.078a3049 3049 0 0 0 35.756 23.41c3.321 2.138 4.447 4.988 3.722 8.651-.362 1.83-.93 3.683-1.759 5.35-4.298 8.631-8.653 17.236-13.008 25.839q-2 3.951-3.998 7.904c-1.488 2.94-3.508 5.424-6.382 7.105-2.195 1.289-4.539 2.021-6.93.612-2.417-1.429-2.955-3.882-2.593-6.389.3-2.068.931-4.147 1.776-6.058.95-2.15 2.039-4.24 3.128-6.331h.001v-.001l.001-.001v-.002c.512-.983 1.024-1.965 1.522-2.955.236-.472.443-.959.65-1.446v-.001l.261-.608c-.109-.106-.214-.211-.323-.316zm-6.003 17.956c.179 4.879 3.157 6.775 7.378 4.59.486-.253.961-.541 1.405-.864 2.068-1.522 3.648-3.461 4.801-5.746q1.703-3.375 3.408-6.748c4.615-9.132 9.228-18.262 13.777-27.424.825-1.663 1.355-3.539 1.651-5.377.416-2.589-.421-4.769-2.804-6.26-1.841-1.154-3.642-2.374-5.442-3.593l-.001-.001c-.872-.59-1.744-1.181-2.62-1.764q-2.018-1.342-4.038-2.678l-.033-.022-.001-.001q-2.294-1.518-4.583-3.041c-1.865-1.242-3.823-1.495-5.793-.378-4.863 2.76-7.627 6.922-8.024 12.544-.156 2.22.705 3.956 2.679 5.14a54 54 0 0 1 4.313 2.888c1.168.865 1.161 1.784.028 2.687-.434.344-.93.61-1.424.876l-.003.002q-.197.104-.392.212l-3.781 2.09a17277 17277 0 0 1-27.225 15.029c-4.17 2.297-6.817 5.77-7.946 10.352-.312 1.266-.366 2.675-.187 3.968.377 2.713 2.534 4.064 5.158 3.309 1.118-.323 2.192-.868 3.216-1.433q6.815-3.753 13.626-7.517l.014-.008.01-.005.006-.004.007-.003a7826 7826 0 0 1 18.181-10.022c.169-.093.344-.214.523-.339.68-.473 1.425-.991 2.198-.175.721.761.257 1.527-.177 2.244a7 7 0 0 0-.309.544c-.738 1.5-1.496 2.991-2.253 4.481-1.168 2.298-2.335 4.596-3.432 6.93-.566 1.209-.964 2.498-1.363 3.786-.179.58-.358 1.159-.552 1.731zm-36.495-3.386c-.033.109-.076.251-.129.446q-.374-.209-.706-.389c-.452-.247-.853-.465-1.238-.712a688 688 0 0 1-4.087-2.647l-.002-.001c-2.993-1.948-5.985-3.896-9.039-5.742-2.612-1.581-3.442-3.784-2.97-6.592.848-5.03 3.465-8.9 7.946-11.395a4376 4376 0 0 1 16.267-9l.011-.006.014-.008.018-.01.008-.004.008-.005.008-.004.003-.002.003-.001q3.814-2.103 7.627-4.209 3.77-2.087 7.539-4.181l.008-.004.009-.005.008-.005.008-.004.067-.037.184-.101.156-.084.013-.007h.001c.298-.159.598-.319.868-.517 1.379-1.016 1.41-1.966.024-2.982-1.332-.977-2.694-1.924-4.116-2.761-2.273-1.339-3.009-3.383-2.701-5.824.603-4.793 2.935-8.604 6.957-11.283 2.348-1.565 4.723-1.76 7.249-.043 2.941 1.998 5.944 3.91 8.947 5.822l.001.001h.001l.001.001c1.444.92 2.889 1.84 4.327 2.769.333.216.648.464 1.02.757l.002.001.003.002c.195.154.407.321.645.501a17 17 0 0 0-.429.283c-.237.16-.428.289-.634.383-5.361 2.449-8.386 6.739-9.547 12.389-.708 3.461.152 6.381 3.427 8.296.938.549 1.828 1.181 2.794 1.867.481.341.981.696 1.516 1.061-.306.189-.58.363-.833.523-.519.328-.953.603-1.402.851q-6.145 3.395-12.29 6.783l-.065.036c-6.009 3.315-12.019 6.63-18.025 9.954-6.077 3.36-9.402 8.413-9.395 15.48 0 .093-.027.184-.08.359m129.138-350.497 1.175-.632v.004l.394.417q-.164.352-.325.705c-.213.466-.425.931-.653 1.389q-1.055 2.11-2.115 4.216l-.002.003-.002.004q-1.275 2.531-2.541 5.067c-1.067 2.137-1.799 4.368-1.752 6.794.101 5.127 3.901 7.537 8.569 5.392.989-.456 1.92-1.09 2.78-1.764 2.017-1.577 3.52-3.589 4.668-5.867l3.463-6.855.004-.007c4.524-8.955 9.049-17.911 13.528-26.889a20.5 20.5 0 0 0 1.697-4.887c.806-3.8-.152-6.856-3.671-9.122a2746 2746 0 0 1-35.55-23.293c-3.158-2.103-6.047-1.912-8.986.062-4.061 2.73-6.471 6.6-7.351 11.384-.623 3.399.261 6.222 3.423 8.09.943.557 1.841 1.19 2.838 1.893.481.338.984.693 1.526 1.062-.397.237-.752.453-1.08.653-.58.353-1.079.656-1.591.94a29864 29864 0 0 1-30.383 16.792c-5.042 2.78-7.943 7.086-8.846 12.696-.502 3.099.405 5.692 3.263 7.494 4.543 2.87 9.049 5.802 13.556 8.734l.007.005.007.004 4.681 3.043c2.013 1.304 4.12 1.483 6.304.541.864-.374 1.701-.822 2.527-1.277q8.924-4.927 17.846-9.861l.002-.001.002-.001.002-.001.002-.001.095-.053.021-.011.02-.011.02-.011 9.897-5.471q1.262-.691 2.531-1.369m24.878-30.591c2.095 1.331 2.955 3.165 3.165 5.653l.008.004c-.193.615-.361 1.243-.529 1.87v.001c-.36 1.346-.72 2.691-1.328 3.914-5.099 10.279-10.283 20.514-15.466 30.75l-.776 1.531-1.056 2.086c-1.3 2.569-3.045 4.793-5.564 6.28-1.81 1.067-3.772 1.939-5.774.685-2.094-1.316-2.234-3.551-1.841-5.696.304-1.682.864-3.36 1.592-4.906 1.215-2.587 2.517-5.134 3.819-7.68a687 687 0 0 0 1.57-3.085l.074-.148.11-.219c.186-.369.372-.738.548-1.112.311-.666.607-1.468-.144-1.892-.417-.238-1.231-.109-1.71.144-2.672 1.414-5.321 2.88-7.967 4.345l-1.766.977-5.884 3.254-.032.018c-5.67 3.136-11.34 6.273-17.02 9.393-1.027.565-2.098 1.117-3.215 1.444-2.769.81-4.937-.58-5.253-3.453a11.6 11.6 0 0 1 .312-4.193c1.187-4.364 3.745-7.713 7.779-9.92 6.588-3.604 13.159-7.238 19.73-10.871l.001-.001h.001l.004-.003.005-.002.026-.015 7.105-3.926q.679-.375 1.361-.746c1.343-.732 2.686-1.465 3.992-2.256 1.974-1.191 1.974-2.157.07-3.481-1.293-.899-2.589-1.794-3.924-2.624-1.873-1.164-2.687-2.885-2.527-4.991.412-5.49 3.013-9.679 7.775-12.463 2.016-1.18 4.064-1.066 6.019.23q2.115 1.406 4.229 2.816l2.646 1.763q1.495.996 2.983 2.001h.001c2.271 1.53 4.541 3.059 6.851 4.524m-23.992 10.492a87 87 0 0 1-1.546-1.088c-.93-.664-1.73-1.235-2.584-1.715-3.391-1.904-4.356-4.886-3.624-8.437 1.144-5.54 4.111-9.8 9.348-12.283.25-.118.482-.276.745-.454q.204-.14.442-.294c-.13-.123-.238-.233-.335-.332-.176-.18-.314-.321-.475-.427q-4.952-3.206-9.909-6.4l-4.959-3.2c-1.698-1.099-3.434-.916-5.182-.157-4.439 1.928-8.328 8.044-8.227 12.903.043 2.02.744 3.66 2.527 4.77a80 80 0 0 1 4.321 2.877c1.386.996 1.367 1.974-.007 2.974-.437.317-.92.577-1.401.836h-.001l-.115.062a3266 3266 0 0 1-20.046 11.06l-.007.003c-3.756 2.064-7.512 4.128-11.251 6.221-4.723 2.643-7.398 6.72-8.048 12.069-.272 2.239.355 4.193 2.414 5.502 2.632 1.675 5.256 3.364 7.879 5.054h.002a2186 2186 0 0 0 6.618 4.251c.233.149.517.214.821.283.147.033.299.068.452.114.051-.504.084-.993.117-1.471v-.001c.068-1.014.133-1.972.358-2.893 1.215-4.968 3.948-8.853 8.491-11.364q15.284-8.45 30.563-16.909c.47-.258.928-.536 1.505-.885.326-.197.689-.417 1.114-.669m218.393 122.161c-.564-.384-1.091-.751-1.596-1.103-1.05-.733-2.002-1.397-2.994-2-2.328-1.409-3.403-3.476-3.262-6.12.331-6.249 3.375-10.882 8.779-13.895 2.344-1.308 4.769-1.203 7.14.358a6861 6861 0 0 0 36.528 23.928c2.604 1.694 3.776 4.049 3.418 6.997-.253 2.075-.724 4.24-1.639 6.097-5.75 11.641-11.618 23.223-17.547 34.775-.88 1.717-2.212 3.247-3.535 4.676-.888.954-2.068 1.717-3.24 2.32-4.983 2.558-9.277-.124-8.892-5.7.148-2.137.892-4.309 1.752-6.299.945-2.189 2.048-4.309 3.151-6.43h.001v-.002l.001-.001c.495-.952.991-1.905 1.472-2.864.347-.693.654-1.41.74-2.48q-.36.176-.725.347c-.484.229-.969.459-1.436.716q-7.5 4.134-14.998 8.273-7.486 4.132-14.977 8.262c-.689.377-1.386.751-2.102 1.066-2.27.997-4.431.767-6.51-.588q-2.005-1.306-4.011-2.616c-4.659-3.042-9.32-6.085-14.03-9.044-2.85-1.791-3.855-4.314-3.372-7.44.864-5.622 3.757-9.948 8.772-12.739a4890 4890 0 0 1 16.147-8.937l.002-.001.002-.001.02-.011.011-.006.01-.005.01-.006q3.572-1.97 7.142-3.944l1.988-1.096a1185 1185 0 0 0 5.861-3.245 16 16 0 0 0 1.11-.704c.235-.157.5-.334.813-.538zm46.977 7.947c-.237-2.181-.747-3.999-2.596-5.229l-1.559-1.038-1.854-1.235c-4.56-3.036-9.12-6.072-13.66-9.138-2.406-1.624-4.753-1.445-7.043.109-4.068 2.764-6.451 6.614-6.965 11.516-.245 2.356.526 4.314 2.698 5.603 1.421.841 2.784 1.783 4.119 2.756 1.371 1.005 1.34 1.978-.031 2.99-.331.244-.698.441-1.065.638h-.001v.001q-.18.095-.359.194l-4.648 2.568-1.988 1.097-2.661 1.471a2821 2821 0 0 1-6.597 3.633l-.008.004-.02.011-.001.001-.001.001c-5.306 2.915-10.611 5.831-15.869 8.832-4.613 2.635-7.187 6.794-7.627 12.073-.366 4.411 2.679 6.432 6.693 4.652.432-.19.849-.416 1.261-.642a4428 4428 0 0 0 10.513-5.786l2.573-1.422.007-.004.008-.004.007-.004c6.582-3.636 13.165-7.273 19.764-10.876.611-.335 1.647-.631 2.11-.339.808.504.435 1.258.095 1.947v.001q-.091.18-.169.353c-.116.261-.247.517-.377.773l-.004.007-.141.279a493 493 0 0 1-1.562 3.077l-.001.002c-1.3 2.55-2.601 5.099-3.806 7.69a20.8 20.8 0 0 0-1.635 5.131c-.343 1.974-.144 4.057 1.713 5.319 1.959 1.331 3.94.592 5.774-.471 2.523-1.464 4.357-3.621 5.657-6.191 5.863-11.579 11.723-23.165 17.489-34.794.583-1.177.925-2.473 1.268-3.769.159-.6.317-1.2.499-1.787m-24.357-19.781h-.001c-.278-.108-.468-.182-.637-.289q-4.036-2.599-8.067-5.2-3.503-2.261-7.008-4.518c-1.697-1.094-3.453-.884-5.193-.14-4.606 1.966-8.488 8.378-8.165 13.385.113 1.768.794 3.173 2.309 4.15a134 134 0 0 1 4.123 2.749c1.873 1.308 1.861 2.336-.082 3.508-1.134.683-2.3 1.312-3.467 1.942l-.001.001h-.001q-.743.4-1.483.806l-3.908 2.156-3.989 2.201c-6.529 3.601-13.06 7.203-19.574 10.827-4.482 2.495-7.09 6.369-7.931 11.399-.467 2.807.37 5.011 2.974 6.596 3.127 1.905 6.2 3.902 9.272 5.9 1.479.961 2.959 1.923 4.445 2.875.29.187.616.322.945.459l.001.001q.227.093.451.194c.08-.619.135-1.228.189-1.824.116-1.278.227-2.5.559-3.658 1.312-4.574 4.041-8.109 8.265-10.438a18371 18371 0 0 0 30.769-17.021c.476-.263.935-.559 1.477-.908.269-.174.56-.361.883-.564-.553-.374-1.065-.731-1.552-1.071l-.004-.003c-1.012-.706-1.919-1.339-2.867-1.901-2.694-1.596-3.722-4.006-3.391-6.984.677-6.07 3.71-10.578 9.184-13.385a40 40 0 0 1 1.068-.518h.001c.269-.127.591-.28.998-.475l.004-.012c-.238-.101-.432-.176-.596-.24m-117.485 58.461c2.383-8.363 3.789-16.873 3.726-26.813l.004-.004c.175-7.417-2.2-17.687-5.816-24.041-3.664-6.436-8.62-11.4-15.379-14.421-7.907-3.532-16.189-3.726-24.524-2.064-9.056 1.807-17.372 5.572-25.143 10.477-12.105 7.639-22.371 17.368-31.166 28.593-10.723 13.685-18.977 28.729-23.925 45.482-3.629 12.283-5.443 24.73-3.29 37.512 1.725 10.247 5.704 19.319 14.355 25.645 2.507 1.834 5.326 3.423 8.234 4.501 7.195 2.675 14.674 2.624 22.114 1.176 8.994-1.748 17.24-5.486 24.957-10.317 12.334-7.729 22.76-17.626 31.684-29.06 10.948-14.032 19.272-29.477 24.169-46.666m-9.706-50.539c2.258 6.381 3.177 12.965 3.037 17.812l-.004-.004c.039 9.916-1.32 17.73-3.418 25.423-2.663 9.765-6.564 19.047-11.474 27.881a145 145 0 0 1-15.316 22.367c-5.914 7.109-12.435 13.595-19.743 19.241-9.936 7.677-20.728 13.755-33.171 16.336-7.273 1.511-14.546 1.386-21.679-.989-1.456-.487-2.612-1.312-3.624-2.503-5.097-6-7.826-13.004-9.083-20.686-1.48-9.052-.915-18.026.864-26.973 2.889-14.526 8.612-27.907 16.247-40.545 6.72-11.127 14.81-21.144 24.341-29.947 9.558-8.826 20.183-16.099 32.544-20.499 7.577-2.698 15.395-3.994 23.442-2.873 2.402.335 4.762 1.071 7.082 1.807.931.295 1.853.946 2.523 1.67 3.356 3.625 5.785 7.825 7.432 12.482m-92.789 134.164c-1.971-.666-5.393-2.569-6.6-3.769q.225-.001.407-.012h.001c.231-.011.419-.021.597.02 9.64 2.212 18.929.643 27.997-2.733 13.206-4.917 24.353-13 34.425-22.718 9.764-9.418 17.909-20.089 24.574-31.859 7.386-13.038 12.743-26.868 14.951-41.775 1.218-8.223 1.343-16.481-.261-24.668-1.176-5.996-3.356-11.626-6.922-16.656-.121-.17-.234-.343-.362-.54l-.005-.007-.108-.166-.09-.136c1.624.643 4.633 3.123 6.128 4.84 6.023 6.918 8.752 15.16 9.745 24.107.576 5.186.46 10.364-.086 15.546-1.393 13.234-5.559 25.622-11.349 37.528-4.703 9.671-10.504 18.637-17.243 27-6.296 7.814-13.354 14.892-21.324 20.985-9.846 7.526-20.537 13.487-32.817 16.022-7.261 1.498-14.534 1.397-21.658-1.009m1.04-63.64c.202-8.445 2.262-15.352 5.411-21.939 4.376-9.15 10.446-17.03 18.443-23.302 5.575-4.376 11.684-7.72 18.929-8.425 4.388-.428 8.449.471 12.109 2.99.925.638 1.855 1.267 2.786 1.896 2.196 1.484 4.391 2.968 6.507 4.559 3.851 2.901 5.692 7.047 6.537 11.661 1.043 5.688.498 11.322-1.09 16.815-4.353 15.052-12.852 27.211-25.813 36.111-4.656 3.196-9.772 5.384-15.491 5.91-4.661.428-8.881-.717-12.704-3.403-2.317-1.627-4.641-3.251-7.005-4.816-4.543-3.006-7.031-7.331-8.012-12.568-.294-1.579-.423-3.19-.518-4.383v-.002c-.035-.433-.065-.811-.097-1.112zm10.465 5.225c-.105 3.18.304 6.28 1.347 9.289 2.239 6.475 7.393 10.282 14.215 10.415 6.315.12 11.874-2.204 16.963-5.661 12.661-8.612 20.926-20.467 25.229-35.087 1.615-5.486 2.16-11.131 1.055-16.807-.989-5.062-3.232-9.29-8.052-11.844-4.01-2.122-8.168-2.13-12.392-1.211-5.973 1.297-11.104 4.337-15.792 8.149-7.708 6.26-13.517 14.012-17.695 22.982-2.916 6.261-4.812 12.802-4.87 19.775zm45.403-53.232-.007-.047c-.02-.143-.034-.238-.089-.282-2.761-2.219-5.829-3.683-9.414-3.952-5.124-.381-9.812 1.071-14.281 3.376-6.537 3.367-11.953 8.117-16.586 13.778-6.689 8.172-11.485 17.279-13.405 27.744-.977 5.326-1.031 10.641.748 15.854 1.526 4.458 4.543 7.553 8.698 9.745q.019-.094.039-.172l.032-.113c.037-.133.063-.224.034-.287-3.064-6.226-3.243-12.802-1.857-19.374 3.535-16.764 12.466-30.068 26.525-39.836 5.587-3.882 11.754-6.37 18.762-6.039.188.008.38-.033.576-.074a5 5 0 0 1 .277-.054l-.004-.004a3 3 0 0 1-.048-.263m5.303 27.396v-.005.008zm-6.05 17.706c3.313-5.422 5.605-11.233 6.05-17.706-.06-.562-.1-1.128-.141-1.695-.089-1.238-.178-2.475-.466-3.663-1.339-5.528-5.147-9.406-11.314-9.433-5.949-.028-10.753 2.787-15.079 6.396-5.003 4.174-8.81 9.372-11.571 15.305-2.639 5.669-4.185 11.555-3.002 17.824 1.375 7.28 6.732 11.037 14.075 9.85 4.61-.748 8.507-3.138 12.089-6.05 3.761-3.057 6.848-6.716 9.359-10.828m-20.901-9.14-5.13-3.49c.106-.219.193-.416.272-.595.152-.343.274-.62.441-.869.275-.416.585-.809.885-1.188q.182-.228.353-.451c1.838.565 20.888 13.389 22.624 15.25l-.929 1.435-1.08 1.668c-5.905-3.911-11.667-7.833-17.436-11.76m6.502-7.054 15.766 10.673-.004.004-1.251 2.322-.661 1.225c-5.899-4.005-11.656-7.91-17.462-11.848l-5.119-3.472.777-1.526 1.045-2.056zm-4.077 10.37 14.085 9.546h.003c-.899 1.055-1.592 1.873-2.499 2.94l-22.636-15.344 1.236-1.479 1.232-1.476zm-.936-19.214c1.651.499 19.288 12.241 22.504 15.036h.003l-.133.34-1.05 2.662a83 83 0 0 0-.847-.489c-.521-.297-.964-.549-1.384-.835q-9.18-6.22-18.349-12.458c-2.325-1.581-2.34-1.737-.744-4.256m-12.818 20.299c-.264-.199-.552-.417-.883-.661l1.468-1.339 1.071-.977c7.498 5.08 14.939 10.122 22.499 15.25-.199.232-.364.427-.511.6-.218.257-.393.464-.575.669-.872.985-1.748 1.071-2.865.257-1.487-1.086-3.022-2.112-4.556-3.138q-.934-.624-1.864-1.254l-3.135-2.122c-3.119-2.112-6.241-4.225-9.355-6.342-.411-.277-.81-.578-1.294-.943m34.866-11.079c1.736 1.183 1.771 1.553.51 3.908l.004.004-13.764-9.328-7.248-4.913c1.794-2.142 2.016-2.2 3.92-.915a3888 3888 0 0 1 16.578 11.244m-35.204 16.114c-1.802-1.23-1.818-1.433-.735-3.609 1.678.6 18.859 12.124 21.008 14.09-1.44 1.939-1.81 2.04-3.703.763a4049 4049 0 0 1-16.57-11.244m36.777-17.24c-1.686-.502-15.324-9.566-17.878-11.902h-.004c1.004-1.086 1.943-1.179 3.025-.439q7.008 4.783 14.039 9.527c1.094.735 1.336 1.642.818 2.814m-37.473 21.246c-1.048-.704-1.511-1.557-.693-3.262a30025 30025 0 0 0 17.839 12.1c-1.18 1.301-2.13 1.363-3.31.549-4.217-2.905-8.465-5.767-12.711-8.629zm-1.059 1.9.615-.545v-.004l6.688 4.538 6.549 4.444c-.783.946-1.44.865-2.067.444l-.001-.001c-3.59-2.409-7.179-4.819-10.725-7.295-.331-.232-.543-.636-.755-1.04-.098-.186-.195-.372-.304-.541m11.664-28.429c-3.905 3.672-6.899 7.939-8.725 12.977 3.851-3.687 6.915-7.912 8.725-12.977m25.957-1.071c.615.421.997.982.518 2.107-3.243-2.084-6.377-4.235-9.553-6.416-1.253-.859-2.511-1.723-3.786-2.59.892-.899 1.616-.681 2.278-.237 3.523 2.359 7.039 4.742 10.543 7.136m-8.059-7.677c1.561 1.834 6.062 4.816 7.732 5.143-1.705-3.041-4.057-4.886-7.732-5.143m-20.195 46.494c-2.975-2.768-6.338-4.828-7.756-4.82 1.604 2.932 3.948 4.547 7.756 4.82"/>
</svg>
