<svg xmlns="http://www.w3.org/2000/svg" width="550" height="550" fill="none" viewBox="0 0 550 550">
    <path fill="#3F4250" d="M530.96 326.177c-3.23-8.63-11.3-15.51-22.14-18.88-21.04-6.53-31.13-8.88-31.23-8.9a.68.68 0 0 0-.71.26l-17.29 22.64-16.44 20.93c-.14.18-.19.43-.12.65s.25.39.47.46c.27.08 27.06 7.78 39.11 11.47 6.57 2.01 14.61 9.57 16.69 18.74 1.04 4.57.92 11.27-5.54 17.19a.698.698 0 0 0 .88 1.08c3.89-2.72 7.63-6.95 11.45-12.94 3.96-6.22 8.33-12.75 12.55-19.07 4.43-6.63 8.61-12.89 11.55-17.64 2.63-4.26 2.92-10.24.77-15.99m-1.96 15.25c-2.93 4.74-7.1 10.99-11.52 17.6-4.23 6.32-8.59 12.86-12.57 19.09-1.83 2.88-3.65 5.33-5.46 7.4 2.17-4.5 1.99-8.94 1.22-12.3-1.96-8.66-9.72-17.34-17.65-19.76-10.73-3.28-33.14-9.75-38.13-11.19l15.81-20.12 17.01-22.29c2.14.52 12.14 3.01 30.7 8.77 10.42 3.24 18.16 9.81 21.24 18.03 2 5.35 1.76 10.87-.65 14.76z"/>
    <path fill="#3F4250" d="m495.124 311.655-23 31.061 1.125.833 23-31.061zm20 8.004-23.001 31.061 1.125.833 23.001-31.061zm10.041 11.087-23.997 31.06 1.108.856 23.997-31.06zm-384.295-8.179s.95.46 2.52 1.18c.09.04.2.07.29.07.2 0 .4-.09.54-.25l.06-.07c3.41 1.65 8.08 3.85 12.79 5.87-.06.17-.08.36 0 .52.08.17.23.3.4.36 2.42 1.02 4.48 1.84 6.3 2.51 2.05.75 3.99 1.07 5.79 1.07 9.75 0 15.64-9.3 15.67-9.37.82-1.07 1.86-2.36 3.02-3.81v-.02l.29.12a.72.72 0 0 0 .81-.2l.87-1.04c2.62-3.17 5.88-7.1 9.03-11.14a.7.7 0 0 0 .12-.61.67.67 0 0 0-.36-.43c1.75-2.09 3.28-3.99 4.66-5.78 2.35-3.05 3.18-5.9 2.46-8.49-1.07-3.84-5.36-6.23-8.78-7.55-.01 0-.03-.01-.04-.01-.87-.34-1.81-.71-2.79-1.1a.69.69 0 0 0-.78.18l-.5.56-2.15-.92c-3.35-1.44-7.11-3.06-10.85-4.54.09-.12.14-.26.14-.41 0-.29-.18-.55-.45-.66-1.08-.42-2.16-.83-3.25-1.22-7.31-2.34-13.34-.78-18.43 4.77-1.16 1.27-3.33 3.69-6.1 6.81-.07.08-.11.17-.14.27-3.08 3.51-6.66 7.61-9.86 11.31-.15.17-.2.4-.15.62s.21.4.41.49l.14.06c-2.33 2.66-4.45 5.09-6 6.88-2.15 2.49-2.96 4.96-2.4 7.34.64 2.71 3.09 5.14 6.7 6.65zm16.37-14.49c.06-.07.1-.16.12-.25l12.75 5.28-12.19 15.09c-4.64-1.99-9.27-4.16-12.71-5.82l12.03-14.31zm26.84 15.59s-1.97 3.13-5.4 5.62c-4.53 3.28-9.38 4.01-14.43 2.16-1.55-.57-3.28-1.25-5.26-2.08l12.36-15.37 15.23 6.5c-.94 1.17-1.78 2.22-2.5 3.17m12.79-36.84s.03 0 .04.01c3.11 1.21 6.98 3.34 7.89 6.6.59 2.14-.15 4.58-2.22 7.26-1.33 1.73-2.8 3.55-4.48 5.55l-15.36-5.94 11.5-13.77c.13-.16.18-.36.14-.56l.09-.1c.84.34 1.64.66 2.4.95m-4.6-.58-11.9 13.35-12.27-5.09 11.38-13.63c3.8 1.5 7.65 3.16 11.07 4.63l1.73.74zm-32.96-3.14c4.75-5.18 10.14-6.58 16.95-4.39.75.27 1.52.56 2.28.85l-12.01 14.29-12.3-5.1c2.28-2.56 4.06-4.55 5.07-5.66zm-6.34 7.19 13.2 5.42c.09.04.18.05.27.05h.04l14.44 5.96c.09.04.18.06.28.06.16 0 .3-.07.42-.16l15.97 6.62c-2.96 3.76-5.98 7.41-8.44 10.38l-.54.65-16.22-6.72c.01-.09.02-.18 0-.27a.68.68 0 0 0-.4-.47l-14.84-6.36a.7.7 0 0 0-.28-.06c-.21 0-.41.1-.55.26l-.14.18-12.3-5.1c2.99-3.45 6.25-7.18 9.1-10.43zm-15.34 19.2c1.49-1.72 3.51-4.04 5.74-6.58l11.38 4.67-11.59 14.42s-.02.05-.04.08c-1.03-.48-1.64-.78-1.67-.79-3.18-1.33-5.39-3.46-5.91-5.69-.45-1.92.25-3.97 2.1-6.1zm218.573-10.859-38.021 41.059 1.027.951 38.021-41.059zm-18.014-8.065-39.998 41.073 1.003.977 39.998-41.073zM229.181 150.371l-73.006 85.148 1.063.911 73.005-85.147zm-33.016-10.059-69.999 81.152 1.06.914 69.999-81.151zm-33.002-10.986L96.16 208.474l1.069.904 67.003-79.147zm182.001 56.031L220.202 322.641l1.035.942L346.199 186.3z"/>
    <path fill="#3F4250" d="M412.22 274.057s-.05-.02-.07-.03c-11.61-3.61-32.29-10.94-44.36-15.26 23.87-27.47 50.05-57.68 54.11-62.69 5.42-6.67 7.46-12.72 6.09-17.98-1.49-5.72-7.06-10.54-16.56-14.32-.02 0-.03-.02-.05-.02-3.84-1.53-10.94-4.36-20.07-8.01 14.51-14.72 13.42-26.65 12.72-29.99-.71-3.39-2.38-5.96-4.66-7.23a.68.68 0 0 0-.42-.47c-2.59-.98-6.6-2.64-11.25-4.56-8.55-3.53-19.19-7.93-28.65-11.33-13.76-4.95-20.28 0-21.45 1.05l-34.72-13.17a.68.68 0 0 0-.54.02c-.14.06-14.05 6.49-18.31 22.16-.05.18-.09.36-.13.54-11.42-4.59-20.19-8.11-24.19-9.73-19.33-7.86-34.68-4.25-49.77 11.72-2 2.12-5.75 6.24-11.14 12.25-22.06-8.25-42.35-15.83-47.37-17.7-9.66-3.6-29.21-5.99-51.68 18.41-14.28 15.5-42.56 48.54-61.27 70.39-7.61 8.89-13.62 15.91-16.11 18.74-3.57 4.04-5.56 10.48-5.35 17.09 0 .32-.02.64-.02.97v.06c.71 8.24 5.47 23.31 29.3 31.66 14.16 4.91 20.85 7.03 23.2 7.76-6.43 7.5-10.69 12.58-12.53 14.92-8.3 10.56-11.44 19.62-9.33 26.95 1.92 6.65 8.17 11.91 18.59 15.64 11.35 4.06 35.01 13.7 59.88 23.92l-16.68 17.73c-.6.59-14.67 14.65-17.7 22.35-1.04 2.99-1.62 5.92-1.74 8.7 0 .05.01.1.02.15-.73 22.98 30.08 30.19 30.39 30.26.05.01.1.02.15.02.19 0 .38-.08.51-.22l27.65-29.26c5.77 2.5 50.3 21.74 95.23 39.66 23.11 9.22 41.18 13.79 56.06 13.79 12.1 0 22.09-3.03 30.97-9.02.1.05.21.08.32.08.14 0 .28-.04.4-.13 3.15-2.22 6.13-4.76 9.11-7.75 14.82-14.89 42.57-47.97 64.87-74.54 9.74-11.61 18.15-21.64 24.16-28.57 8.21-9.48 10.62-22.07 6.81-35.47-3.96-13.91-14.23-26.3-24.42-29.52zm-93.56 100.59c-.11.03-.21.09-.3.17l-.03.03c-1.17 1.3-2.36 2.47-3.57 3.55 3.9-4.27 4.68-8.72 4.64-11.69-.1-7.95-5.62-14.61-10.69-16.24-.01 0-.02 0-.04-.01-6.52-2.07-14.82-5.09-16.76-5.8-.02-.01-.03-.03-.06-.04-.13-.06-3.36-1.55-19.68-6.91-9.62-3.16-15.49-9.46-15.71-16.85-.01-.37 0-.73.02-1.1.93-5.61 3.4-9.44 7.35-11.36 11.33-5.5 31.35 5.8 31.55 5.91.22.12.48.12.7 0 .08-.04.14-.1.2-.17l32.82-35.46q.105.12.27.18l14.53 5.22c0 .06-.01.12 0 .19.06.22.22.4.44.48l15.35 5.52c5.25 2.08 8.51 5.55 9.69 10.32 2.21 8.96-3.56 20.46-7.14 24.63-5.16 6.01-35.29 40.15-43.59 49.44zm-10.45-22.87s.02 0 .03.01c4.64 1.47 9.66 7.82 9.75 14.94.06 4.66-2.09 13.24-17.09 18.42-3.74.67-7.61.45-11.49-.63-9.32-2.61-20.25-6.38-24.57-7.9a72 72 0 0 0 3.23-3.43c3.68-4.19 12.29-14.06 23.67-27.1 2.41.88 10.23 3.71 16.46 5.69zm41.38-98.43-21.11 23.94-32.89 35.53c-2.55-1.39-14.04-7.35-24.25-7.35-2.89 0-5.67.48-8.12 1.67-.48.23-.93.5-1.37.78 3.38-4.11 8.69-10.35 15.83-18.6 9.57-11.05 21.79-24.97 31.14-35.46 7.8-8.76 20.04-7.71 29.34-5.07 5.41 1.6 9.73 3.7 11.42 4.57zm53.07-127.3c.67 3.2 1.7 14.72-12.76 29.14-7.2-2.88-15.57-6.22-24.54-9.81 2.02-4.46 12.46-25.89 26.8-26.91 1.88-.07 3.82.21 5.82.94 2.28.88 3.98 3.3 4.68 6.64m-44.09-22.57c9.43 3.39 20.05 7.78 28.59 11.31 1.95.81 3.79 1.57 5.47 2.25-.16 0-.32.02-.49.04-.22 0-.43.03-.65.05-.04 0-.07 0-.11.01-6.28.52-12.58 4.67-18.53 12.34-6.1 7.85-9.76 16.74-9.8 16.82l.1.04c-1.83 3.49-9.06 15.54-19.98 12.06a132 132 0 0 1-2.48-.82c-2.45-1.16-4.21-3.03-5.23-5.57-2.08-5.2-1.01-13.34 2.87-21.78 5.38-11.71 17.28-18.04 17.4-18.1.24-.12.38-.38.38-.65s-.17-.51-.42-.62l-16.42-7.15c2.12-1.4 8.22-4.22 19.31-.23zm-55.91-12.02 34.47 13.07 16.03 7.1c-3.23 1.98-12.05 8.08-16.6 18.14 0 .02-.01.03-.02.05-4.05 8.98-5.07 17.36-2.81 23.01.43 1.08.99 2.04 1.65 2.9-9.02-3.25-19.3-7.39-27.19-10.58-3.06-1.23-5.79-2.33-8.01-3.21-7-2.76-13.66-9.19-15.44-18.07-.59-3.43-.46-7.22.65-11.3 3.76-13.86 15.4-20.19 17.28-21.13zm-279.23 126.3c2.51-2.84 8.52-9.86 16.13-18.76 18.7-21.85 46.97-54.87 61.24-70.36 21.92-23.79 40.83-21.52 50.16-18.04 11.14 4.15 97.18 36.32 111.49 41.67l-91.81 106.56-65.31-24.29a.7.7 0 0 0-.38-.38c-.39-.15-39.06-14.7-49.42-18.35-6.58-2.33-21.48-5-30.72 1.53-1.18.83-2.23 1.79-3.14 2.87.53-.89 1.12-1.71 1.76-2.44zm23.33 47.55c-22.33-7.83-27.36-21.62-28.28-29.66.01-.05.03-.11.03-.16.02-7.53 2.45-13.06 7.22-16.44 8.82-6.23 23.25-3.63 29.65-1.38 9.12 3.21 40.16 14.82 47.9 17.71l-2.38 2.75c-12.63 14.49-22.89 26.34-30.41 35.1-1.64-.49-8.14-2.51-23.74-7.92zm19.94 65.27c-9.97-3.56-15.93-8.51-17.72-14.71-1.98-6.87 1.08-15.51 9.08-25.7 1.9-2.41 6.39-7.75 13.18-15.67 0 0 .02 0 .02-.02l30.76-35.52c.88-1.01 1.76-2.02 2.66-3.06.2.07.33.12.35.13l66.39 24.62c.08.03.16.04.24.04.2 0 .39-.09.53-.24l93.02-107.64c.15-.17.21-.41.15-.63a.71.71 0 0 0-.43-.48c-.04-.02-.28-.11-.67-.25a.7.7 0 0 0-.31-.26l-63.59-23.85c5.11-5.7 8.67-9.62 10.6-11.66 14.63-15.48 29.5-18.99 48.22-11.38 4 1.62 12.75 5.14 24.17 9.73-.96 5.1-.45 9.73 1.03 13.76 2.58 7.53 8.53 13.23 15.25 15.89l.16-.4c2.19.86 4.88 1.95 7.87 3.16 8.77 3.54 20.47 8.26 30.16 11.63.77.54 1.61 1.01 2.54 1.39l.17-.43c.13.06.26.12.4.18.64.21 1.26.41 1.88.61 1.51.48 2.96.69 4.34.69 10.09 0 16.39-11.41 17.62-13.86 21.16 8.46 39.01 15.59 46.04 18.38.02 0 .03.02.05.02 9.08 3.61 14.39 8.12 15.77 13.39 1.25 4.8-.71 10.43-5.83 16.74-4.08 5.02-30.52 35.53-54.48 63.11-.18.01-.36.09-.48.23l-21.13 24.33-13.89-4.99 21.19-24.04c.14-.16.2-.37.17-.58a.69.69 0 0 0-.35-.49c-.13-.07-5.83-3.25-13.43-5.37-9.67-2.82-22.7-4.1-31.06 5.28-14.39 16.14-38.96 44.21-47.66 54.92-3.18 3.91-4.79 8.25-4.67 12.54 0 .1.03.19.07.27 0 .16-.02.33-.01.49.23 8 6.47 14.78 16.67 18.14 11.31 3.72 16.33 5.58 18.34 6.37l-27.89 30.73c-.16.17-.22.41-.16.64.01.06.05.1.08.15-20.84 19.29-43 13.57-62.18 6.66-9.97-3.59-34.23-13.55-59.91-24.09l-12.08-4.96a.71.71 0 0 0-.78.17l-.02.02c-25.06-10.3-48.98-20.05-60.43-24.15zm53.64 102.97c-3.5-.9-29.67-8.3-28.92-28.86 1.71-5.95 4.77-9.96 9.11-11.93 10.68-4.84 27.22 3.02 39.3 8.76 2.86 1.36 5.36 2.54 7.52 3.44zm124.13 10.36c-44.77-17.86-89.12-37.02-95.15-39.62a.67.67 0 0 0-.36-.38c-2.31-.94-5.06-2.26-8.25-3.79-12.36-5.94-29.3-14.07-40.63-8.94-3.23 1.46-5.8 3.96-7.7 7.42.2-.73.42-1.46.67-2.2 2.91-7.41 17.23-21.7 17.39-21.86l17.06-18.14c3.87 1.59 7.77 3.19 11.64 4.79 25.71 10.58 50 20.57 60.01 24.19 10.05 3.63 20.34 6.49 30.55 6.49 11.59 0 23.08-3.69 34.01-14.11 3.03 1.1 15.27 5.5 25.55 8.44 4.06 1.16 8.11 1.38 12.03.66 6.24-1.14 12.11-4.65 17.48-10.41 12.28 4.95 23.25 20.86 25.59 37.21.91 6.32.49 12.27-1.17 17.66-2.17 6.66-6.25 12.43-12.14 16.92-19.73 13.87-44.01 12.65-86.58-4.33m184.31-105.77c-6.01 6.94-14.43 16.97-24.17 28.59-21.97 26.19-49.24 58.69-64.16 73.83 1.73-2.68 3.08-5.58 4.04-8.65 1.89-5.73 2.41-12.08 1.44-18.85-2.36-16.47-13.34-32.54-25.79-37.96 8.87-9.94 38.09-43.05 43.17-48.97 3.36-3.92 9.91-15.87 7.43-25.88-1.29-5.24-4.84-9.04-10.55-11.3l-14.21-5.11c6.18-7.1 13.37-15.37 20.82-23.94 11.97 4.29 33.03 11.76 44.85 15.44.02.01.05.02.07.03 9.81 3.05 19.72 15.08 23.57 28.6 3.69 12.93 1.37 25.06-6.52 34.17z"/>
</svg>
