<svg xmlns="http://www.w3.org/2000/svg" width="550" height="550" fill="none" viewBox="0 0 550 550">
    <path stroke="#3F4250" stroke-linejoin="round" stroke-miterlimit="10" stroke-width="1.4" d="M508.917 308.436c-21.26-6.601-31.184-8.891-31.184-8.891l-17.291 22.651L444 343.128s26.93 7.74 39.121 11.47c12.188 3.726 25.964 23.76 11.422 37.114 4.055-2.836 7.707-7.17 11.257-12.739 8.219-12.902 18.425-27.528 24.095-36.704s.281-27.233-20.978-33.833ZM91.021 405.012c-.937 22.849 29.844 29.779 29.844 29.779L149 405.012c-14.92-6.041-49.883-28.914-57.979 0ZM473 343.625l23-31.057m-3 39.071 23-31.056m-14 42.076 24-31.056m-217.241 19.99c-7.493-2.374-17.221-5.965-17.221-5.965L263 377.067s14.508 5.234 26.529 8.596c4.205 1.175 8.156 1.304 11.858.639 27.369-9.432 17.086-31.632 7.369-34.709zm-127.271-50.045L194 286.563c-4.192-1.79-9.368-4.074-14.43-6.053L167 295.564l14.491 5.984zM180 279.731a158 158 0 0 0-3.207-1.21c-8.484-2.719-13.9.43-17.703 4.578a708 708 0 0 0-6.09 6.802l13.727 5.636L180 279.735z"/>
    <path stroke="#3F4250" stroke-linejoin="round" stroke-miterlimit="10" stroke-width="1.4" d="M197.422 286.644c-.886-.342-1.84-.722-2.846-1.125L181 300.746l17.617 6.813a192 192 0 0 0 4.815-5.96c6.312-8.172-.299-12.742-6.014-14.958zM143.47 302.55c-2.36 2.688-4.506 5.151-6.069 6.957-5.312 6.142-.844 10.844 4.073 12.9 0 0 .947.456 2.507 1.181L157 308.1l-13.534-5.55zm14.533 27.511c2.162.913 4.314 1.782 6.305 2.511 12.773 4.685 20.663-8.065 20.663-8.065.826-1.07 1.864-2.365 3.029-3.817l-16.68-7.12L158 330.061z"/>
    <path stroke="#3F4250" stroke-linejoin="round" stroke-miterlimit="10" stroke-width="1.4" d="M157.154 306.557 144 322.91c3.183 1.55 8.918 4.286 14.581 6.689L172 312.919l-14.843-6.362z"/>
    <path stroke="#3F4250" stroke-linejoin="round" stroke-miterlimit="10" stroke-width="1.4" d="m182.073 301.404-15.103-6.26-13.548-5.618c-3.2 3.644-7.026 8.027-10.422 11.944l13.912 5.766 15.103 6.26 17.099 7.087c2.814-3.402 6.392-7.695 9.886-12.168l-16.923-7.014zm118.118-157.886c-9.697-3.838-19.393-15.114-15.179-30.648 4.215-15.535 17.918-21.704 17.918-21.704l34.783 13.195L355 112.02s-12.017 6.383-17.499 18.512l.004-.003c-5.179 11.455-6.399 24.802 3.424 28.761M364 147.029s14.371-35.159 34.532-27.802c7.174 2.766 9.8 19.518-8.093 37.181"/>
    <path stroke="#3F4250" stroke-linejoin="round" stroke-miterlimit="10" stroke-width="1.4" d="m338.204 104.352 17.493 7.623s-12.16 6.353-17.707 18.426c-5.237 11.402-6.475 24.687 3.465 28.626q.952.314 1.868.603c13.439 4.234 21.331-13.24 21.331-13.24s14.294-34.415 34.346-27.213c-7.254-2.752-25.172-10.59-39.89-15.886s-20.906 1.058-20.906 1.058zM18 235.376c.967 11.175 8.511 23.938 28.83 31.06 18.597 6.447 24.21 8.063 24.21 8.063L105 235.283s-38.932-14.651-49.402-18.348C45.136 213.241 18.051 209.83 18 235.376Zm301 105.243 38-41.074m-58 33.06 40-41.075"/>
    <path stroke="#3F4250" stroke-linejoin="round" stroke-miterlimit="10" stroke-width="1.4" d="M265 152.839s-101.272-37.869-113.502-42.425c-12.231-4.556-30.723-3.7-50.919 18.224-20.196 21.923-68.842 79.442-77.376 89.124-3.428 3.886-5.745 10.679-5.093 18.185.052-25.589 27.285-22.172 37.805-18.472 10.524 3.7 49.674 18.379 49.674 18.379l66.391 24.62zM157 236.43l73-85.155m-103 71.129 70-81.147M97 209.381l67-79.144m132.034 183.929 33.263-35.935L351 253.616s-28.469-16.127-42.846 0c-14.375 16.127-38.9 44.141-47.637 54.894-3.137 3.859-4.63 8.043-4.51 12.073 4.001-27.02 40.027-6.414 40.027-6.414zM221 323.588l125-137.249"/>
    <path stroke="#3F4250" stroke-linejoin="round" stroke-miterlimit="10" stroke-width="1.4" d="M411.417 164.876a35764 35764 0 0 1-46.861-18.714s-7.88 17.646-21.3 13.37c-.606-.193-1.232-.397-1.866-.608-13.333-4.418-31.81-12.171-41.164-15.852-9.416-3.706-18.828-14.318-15.771-28.991a8647 8647 0 0 1-24.701-9.941c-17.891-7.273-33.229-5.133-48.993 11.548-2.065 2.185-6 6.52-11.298 12.434 30.843 11.566 64.553 24.21 64.553 24.21l-54.618 63.395-38.255 44.4-66.285-24.656c-23.307 26.72-42.43 48.88-47.037 54.739-12.78 16.253-16.188 32.51 8.947 41.494 25.135 8.983 111.619 45.769 132.918 53.47 21.3 7.698 45.891 13.426 68.165-11.977 3.715-4.234 12.459-14.248 24.003-27.48 0 0-3.137-1.466-19.6-6.882-10.562-3.474-15.977-10.232-16.19-17.491-.121-4.062 1.384-8.279 4.544-12.167 3.577-4.404 9.781-11.677 16.855-19.852a3575 3575 0 0 1 31.143-35.472c14.483-16.253 43.171 0 43.171 0l-21.868 24.809 15.506 5.572c35.914-41.276 71.442-82.227 76.231-88.127 9.374-11.549 10.224-23.097-10.225-31.227z"/>
    <path stroke="#3F4250" stroke-linejoin="round" stroke-miterlimit="10" stroke-width="1.4" d="M412.233 275.168c-11.825-3.68-32.814-11.118-45.57-15.696a51344 51344 0 0 1-21.784 25.079l15.369 5.528c18.647 7.383 8.192 29.815 2.826 36.062-5.367 6.247-36.444 41.46-44.074 49.979 21.985 8.498 40.82 52.082 12.599 73.698 3.113-2.196 6.102-4.747 9.013-7.676 21.188-21.296 69.076-80.08 88.993-103.079 19.918-23 .425-58.354-17.376-63.892z"/>
    <path stroke="#3F4250" stroke-linejoin="round" stroke-miterlimit="10" stroke-width="1.4" d="M319.147 375.791c-4.962 5.523-10.89 9.593-17.686 10.839-3.656.673-7.563.543-11.713-.645-11.874-3.398-26.205-8.687-26.205-8.687-21.003 20.003-43.713 14.566-63.555 7.41-11.545-4.163-42.332-16.89-72.019-29.061l-17.741 18.867S95.702 388.971 92.7 396.601c-1.06 3.055-1.59 5.88-1.7 8.495 8.057-28.457 42.832-5.945 57.674 0 0 0 47.37 20.591 95.839 39.925 43.162 17.22 67.705 17.992 87.245 4.256 28.241-21.555 9.393-65.012-12.607-73.49z"/>
</svg>
