<svg xmlns="http://www.w3.org/2000/svg" width="550" height="550" fill="none" viewBox="0 0 550 550">
    <path stroke="#3F4250" stroke-linejoin="round" stroke-miterlimit="10" stroke-width="1.4" d="m202.176 80.043 30.628-2.464-21.96-20.181-30.627 2.468z"/>
    <path stroke="#3F4250" stroke-linejoin="round" stroke-miterlimit="10" stroke-width="1.4" d="m204.358 110.37-12.628 1.544 10.446-31.87 30.628-2.465-5.504 16.082m-57.53-1.928 10.447-31.867 21.959 20.177-10.446 31.871zm203.805 218.133-4.969-32.332c-2.115-.235-4.253-.47-6.424-.697m-219.09-21.674c-7.986-1.763-15.133-3.655-21.524-5.654l7.524 48.969c6.802 2.46 14.37 4.733 22.796 6.757m-51.198-55.26-1.419-9.24c-37.766-18.916-31.335-47.278-28.955-57.416 0 0-5.2 11.227-3.645 37.216.4 6.692 1.419 18.462 6.813 31.13m417.197 133.302.102 3.542a54 54 0 0 0-.102-3.542ZM90.226 149.516l6.09 39.633c15.033-14.264 36.241-26.382 62.799-35.699l-6.42-41.793c-26.873 9.908-48.004 22.77-62.466 37.862z"/>
    <path stroke="#3F4250" stroke-linejoin="round" stroke-miterlimit="10" stroke-width="1.4" d="M74.664 220.535a73 73 0 0 1 3.942-8.646l-5.621-33.964s-1.907 1.514-4.499 11.198m167.112-96.455c-11.576 1.287-22.653 2.937-33.202 4.928l6.523 42.471a450 450 0 0 1 29.169-4.188c23.536-2.614 43.673-2.801 60.764-1.327l-6.688-43.534c-16.167-1.104-34.929-.752-56.566 1.65Zm92.635 332.966-2.963-19.283c-21.718-1.082-45.866-3.832-72.607-8.679l1.518 44.007c12.03 2.182 23.532 3.938 34.525 5.306m78.254-40.652 6.71 43.677c25.205-1.804 45.881-6.222 62.454-12.089l-6.504-42.328c-16.86 5.405-37.617 9.343-62.664 10.74zm123.827-17.824-1.082-43.791c.107 9.06-6.728 20.596-20.951 31.456l6.175 40.183c10.97-9.735 15.953-19.844 15.858-27.848Z"/>
    <path stroke="#3F4250" stroke-linejoin="round" stroke-miterlimit="10" stroke-width="1.4" d="M482.544 362.402c-10.277-13.662-30.092-22.887-58.971-29.465l-7.439-48.433c48.271 9.482 71.511 24.732 73.216 55.18l.352 5.038M380.38 134.578l.279 5.221a35 35 0 0 0-.279-5.221Zm2.207 41.319-1.925-36.102c-.198 10.549-4.843 25.883-22.319 39.157l5.889 38.335c17.285-14.986 19.613-31.878 18.355-41.386z"/>
    <path stroke="#3F4250" stroke-linejoin="round" stroke-miterlimit="10" stroke-width="1.4" d="m382.873 179.813-2.489-43.208c-.349-8.334-8.815-20.577-28.38-30.063l6.999 45.555c6.069 3.37 10.876 7 14.539 10.622m146.791 67.878s7.913-50.773 8.738-56.375c.825-5.607-2.802-6.758-8.738-4.287-.924.385-2.545 1.038-4.616 1.87m0 50.285v-56.415l-25.066 10.032"/>
    <path stroke="#3F4250" stroke-linejoin="round" stroke-miterlimit="10" stroke-width="1.4" d="m504.995 235.653 15.338-5.053s-27.529-50.772-30.826-56.54c-3.296-5.767-6.922-7.087-11.869-5.276-.469.172-1.397.506-2.687.975-.789-1.089-1.698-2.31-2.259-2.951-1.155-1.32-2.471-1.32-3.956-.825s-16.156 5.932-17.967 6.592c-1.815.66-2.141 1.65-2.141 2.802v3.85c-16.28 5.859-33.884 12.21-37.089 13.456-5.932 2.307-9.232 5.768-5.767 12.199 3.461 6.428 29.01 53.904 29.01 53.904l24.354-8.023m-28.358-129.627 17.611 10.156-4.385-19.239-17.615-10.153z"/>
    <path stroke="#3F4250" stroke-linejoin="round" stroke-miterlimit="10" stroke-width="1.4" d="m430.734 144.731-17.611-10.153 17.655-13.442 17.611 10.156z"/>
    <path stroke="#3F4250" stroke-linejoin="round" stroke-miterlimit="10" stroke-width="1.4" d="m408.734 115.342 17.655-13.442 4.389 19.236-17.655 13.442zM163.031 316.789c-6.549-36.876-17.875-101.354-17.875-101.354-1.778-11.128-1.034-17.802 13.057-22.253 14.095-4.451 157.63-49.328 166.162-51.924s14.095 2.226 15.576 10.384c1.485 8.159 22.253 124.616 23.738 133.705 1.342 8.225-3.996 12.65-8.869 14.792m-64.343 20.339a47306 47306 0 0 1-80.109 24.918"/>
    <path stroke="#3F4250" stroke-linejoin="round" stroke-miterlimit="10" stroke-width="1.4" d="M343.134 294.767c5.192-1.855 11.869-6.307 10.384-15.393l-22.077-118.451-176.194 55.249 22.311 118.756m33.187 1.228a50927 50927 0 0 0 85.17-26.521m-107.17 33.334c.616-.191 1.243-.385 1.889-.583"/>
    <path stroke="#3F4250" stroke-linejoin="round" stroke-miterlimit="10" stroke-width="1.4" d="m333.766 141.761-9.633-5.654a10 10 0 0 0-.421-.25l-.092-.055c-2.504-1.371-5.676-1.661-9.416-.52-8.532 2.596-152.068 47.476-166.162 51.923-14.095 4.452-14.836 11.129-13.057 22.253 0 0 15.748 89.65 20.845 117.99"/>
    <path stroke="#3F4250" stroke-linejoin="round" stroke-miterlimit="10" stroke-width="1.4" d="m330.033 155.423-176.194 55.249s-2.915-8.591 10.684-13.042 146.132-45.991 152.809-47.968c6.677-1.976 11.293.261 12.701 5.761Zm-155.162 90.046a1.748 1.748 0 0 1-1.463-2.71l8.308-12.665-13.621-3.776a1.753 1.753 0 0 1 .935-3.377l15.935 4.418c.539.15.975.546 1.17 1.071a1.74 1.74 0 0 1-.176 1.576l-9.625 14.674a1.75 1.75 0 0 1-1.467.792zm13.827-4.892c-.745 0-1.438-.48-1.672-1.228a1.75 1.75 0 0 1 1.147-2.196l22.041-6.912a1.751 1.751 0 1 1 1.048 3.344l-22.04 6.912q-.265.081-.524.08Zm116.508-45.723a1.752 1.752 0 0 1-.524-3.425l12.807-4.015a1.753 1.753 0 0 1 1.049 3.344l-12.808 4.015a1.8 1.8 0 0 1-.524.081Zm-36.982 10.432a1.753 1.753 0 0 1 .891-2.703l28.567-8.957a1.752 1.752 0 1 1 1.049 3.344l-24.956 7.824m-31.518 9.882-15.389 4.825a1.756 1.756 0 0 1-2.197-1.147 1.753 1.753 0 0 1 1.148-2.197l16.243-5.093m67.797 9.904 18.014-5.856a1.752 1.752 0 1 1 1.082 3.333l-18.561 6.032m-66.462 21.597-18.993 6.171q-.272.086-.543.084a1.75 1.75 0 0 1-.539-3.417l19.881-6.461M180.03 266.75a1.75 1.75 0 0 1-.539-3.417l35.192-11.437a1.752 1.752 0 1 1 1.082 3.333l-35.193 11.437a1.8 1.8 0 0 1-.542.084Zm113.175-9.922a1.75 1.75 0 0 1-.539-3.417l39.838-12.947a1.753 1.753 0 0 1 1.082 3.333l-39.838 12.947q-.272.086-.543.084Zm-47.051 15.29a1.75 1.75 0 0 1-.539-3.417l37.833-12.295a1.754 1.754 0 0 1 2.207 1.126 1.75 1.75 0 0 1-1.125 2.207l-37.833 12.295q-.272.087-.543.088zm-61.493 19.983a1.75 1.75 0 0 1-.539-3.417l52.624-17.101a1.751 1.751 0 1 1 1.081 3.333l-52.624 17.101a1.7 1.7 0 0 1-.542.084Zm87.596-1.69a1.75 1.75 0 0 1-.539-3.417l64.662-21.01a1.752 1.752 0 1 1 1.082 3.333l-64.662 21.01q-.272.085-.543.084Zm-52.998 17.222a1.75 1.75 0 0 1-.539-3.417l45.808-14.883a1.75 1.75 0 1 1 1.082 3.333l-45.808 14.883c-.18.059-.363.084-.543.084Zm-30.726 9.985a1.75 1.75 0 0 1-.539-3.418l23.43-7.612a1.755 1.755 0 0 1 2.207 1.126 1.75 1.75 0 0 1-1.126 2.207l-23.43 7.612a1.7 1.7 0 0 1-.542.085Zm107.58-8.382-6.861 13.68c-8.642 17.23 7.433 42.772 35.901 57.046 28.468 14.278 58.549 11.884 67.191-5.346l6.861-13.68"/>
    <path stroke="#3F4250" stroke-linejoin="round" stroke-miterlimit="10" stroke-width="1.4" d="M399.195 360.901c8.64-17.23-7.436-42.77-35.905-57.045s-58.552-11.88-67.192 5.35 7.436 42.77 35.906 57.045 58.552 11.88 67.191-5.35Z"/>
    <path stroke="#3F4250" stroke-linejoin="round" stroke-miterlimit="10" stroke-width="1.4" d="M329.226 336.651c-.671-.337-1.283-.806-1.712-1.364l-10.703-13.838c-.561-.726-.719-1.477-.433-2.049.286-.569.987-.895 1.903-.877l17.494.301c1.657.029 3.531 1.137 4.184 2.475.652 1.338-.158 2.402-1.815 2.372l-13.714-.238 8.39 10.85c1.012 1.309.649 2.596-.818 2.874-.843.158-1.866-.051-2.776-.506Zm29.088 14.586c-.909-.454-1.69-1.151-2.064-1.921-.653-1.338.157-2.402 1.815-2.372l13.713.238-8.389-10.85c-1.012-1.309-.649-2.596.817-2.874 1.463-.279 3.473.561 4.488 1.87l10.703 13.838c.561.726.719 1.477.433 2.049-.286.569-.986.895-1.903.877l-17.494-.301c-.704-.011-1.448-.22-2.119-.557zm-21.23-6.046a5.4 5.4 0 0 1-.748-.451c-1.518-1.085-1.995-2.603-1.067-3.384l19.463-16.379c.931-.781 2.915-.536 4.433.55 1.518 1.085 1.994 2.603 1.067 3.384l-19.463 16.379c-.785.66-2.314.587-3.685-.099ZM70.36 286.077l30.33-36.102-45.708 2.218-30.331 36.099z"/>
    <path stroke="#3F4250" stroke-linejoin="round" stroke-miterlimit="10" stroke-width="1.4" d="m124.223 295.742-30.33 36.099-23.533-45.764 30.33-36.102zm-76.039 38.317L24.65 288.292l45.709-2.215 23.532 45.764zm441.166-83.101 25.622 14.879-6.306-28.054-25.623-14.879zm-.165 34.386-25.623-14.876 25.788-19.51 25.622 14.879z"/>
    <path stroke="#3F4250" stroke-linejoin="round" stroke-miterlimit="10" stroke-width="1.4" d="m457.255 242.414 25.788-19.51 6.307 28.054-25.788 19.51zM323.294 458.795l17.57 32.311 11.411-33.821-17.571-32.307z"/>
    <path stroke="#3F4250" stroke-linejoin="round" stroke-miterlimit="10" stroke-width="1.4" d="m300.927 495.154-17.571-32.311 39.938-4.048 17.57 32.311z"/>
    <path stroke="#3F4250" stroke-linejoin="round" stroke-miterlimit="10" stroke-width="1.4" d="m294.771 429.022 39.933-4.044-11.41 33.817-39.938 4.048zM20.735 109.912l4 11.818c5.038 14.879 29.051 20.196 53.636 11.872 24.585-8.323 40.433-27.133 35.395-42.012l-4.001-11.818"/>
    <path stroke="#3F4250" stroke-linejoin="round" stroke-miterlimit="10" stroke-width="1.4" d="M74.366 121.786c24.584-8.321 40.432-27.129 35.395-42.008S80.713 59.583 56.128 67.904s-40.432 27.13-35.396 42.009 29.049 20.195 53.634 11.873Z"/>
    <path stroke="#3F4250" stroke-linejoin="round" stroke-miterlimit="10" stroke-width="1.4" d="M55.598 106.425c-.58.198-1.203.279-1.771.209l-14.157-1.723c-.741-.092-1.269-.429-1.438-.921-.168-.491.048-1.081.58-1.606l10.197-9.966c.964-.942 2.68-1.393 3.831-1.004 1.152.388 1.302 1.466.334 2.412l-7.993 7.814 11.095 1.349c1.342.165 1.877 1.111 1.199 2.12-.389.579-1.096 1.052-1.881 1.316zm25.12-8.503c-.785.268-1.635.32-2.295.095-1.152-.388-1.302-1.466-.334-2.412l7.993-7.814-11.095-1.35c-1.342-.164-1.877-1.11-1.199-2.119.678-1.008 2.314-1.69 3.656-1.529L91.6 84.517c.74.091 1.268.429 1.437.92s-.048 1.082-.58 1.606L82.263 97.01c-.411.4-.957.711-1.537.91zm-15.671 8.84a4.3 4.3 0 0 1-.693.176c-1.5.257-2.651-.333-2.574-1.32l1.657-20.665c.08-.986 1.36-1.998 2.86-2.255s2.651.334 2.574 1.32l-1.657 20.665c-.066.833-.987 1.68-2.167 2.079Z"/>
    <path stroke="#3F4250" stroke-linecap="round" stroke-linejoin="round" stroke-width="1.4" d="M143.257 500.031s2.966-72.696 3.215-79.618c.25-6.923.741-11.869 9.889-25.964s44.011-66.513 47.476-71.955c3.462-5.441 8.159-10.384 7.418 2.721s-2.966 76.157-2.966 76.157l-65.029 98.659z"/>
    <path stroke="#3F4250" stroke-linecap="round" stroke-linejoin="round" stroke-width="1.4" d="m189.138 344.795-4.342-20.071-56.624 79.863 16.335 64.702"/>
    <path stroke="#3F4250" stroke-linecap="round" stroke-linejoin="round" stroke-width="1.4" d="m175.564 337.744-11.044-23.159-61.322 90.747 36.594 76.728 4.466-6.611m38.947-121.689-1.58 2.387"/>
    <path stroke="#3F4250" stroke-linecap="round" stroke-linejoin="round" stroke-width="1.4" d="M155.349 328.156a1478 1478 0 0 0-5.914-8.129c-4.202-5.687-9.148-5.687-12.61 0-1.851 3.043-14.461 22.506-26.697 41.426-2.093-.451-6.053-1.317-7.014-1.614-1.32-.41-2.886-.08-4.202 1.815-1.32 1.896-12.28 18.876-13.6 21.018s-.905 3.626 0 5.441c.602 1.199 2.248 4.605 3.293 6.769a375 375 0 0 0-2.222 3.534c-5.933 9.644-5.687 14.095 0 22.008s56.87 79.618 56.87 79.618"/>
    <path stroke="#3F4250" stroke-linejoin="round" stroke-miterlimit="10" stroke-width="1.4" d="m244.009 247.482-2.203-41.32c26.125-.15 47.461-2.387 64.856-6.021l6.215 40.444c-18.095 4.147-40.697 6.735-68.864 6.9z"/>
</svg>
