<svg xmlns="http://www.w3.org/2000/svg" width="550" height="550" fill="none" viewBox="0 0 550 550">
    <path stroke="#3F4250" stroke-miterlimit="10" stroke-width="1.4" d="m321.754 372.416-78.727 26.096m-3.524-269.442 136.169-41.1v150.334m-39.175-65.01 26.43-8.95m-15.903 38.514 15.903-5.419m-19.148 39.662 19.148-6.57m-33.928 44.814 27.148-9.376m-6.824 35.479 6.582-2.288m-97.423 33.861 25.769-8.957m224.14-56.812c20.698 5.262 18.04 30.965 18.04 43.084l-61.993-16.61"/>
    <path stroke="#3F4250" stroke-miterlimit="10" stroke-width="1.4" d="M419.723 407.392c17.41 4.078 44.162-2.423 44.162-33.121v-58.432c0-25.043-2.882-56.129 44.509-48.59 0 0-93.247-25.095-112.093-29.99-18.851-4.895-40.389 5.067-40.389 34.958v64.526M46.354 157.887c-19.107 6.596-22.979 24.761-20.823 40.564l56.18-19.947m160.282 188.922v12.334c0 14.517 1.492 30.188 7.315 41.122"/>
    <path stroke="#3F4250" stroke-miterlimit="10" stroke-width="1.4" d="M138.981 502.546c-30.158 9.695-54.391-25.311-54.391-60.317V198.447c0-26.561-13.464-48.642-38.236-40.564 0 0 134.094-46.314 153.483-53.313 19.386-7 42.159-.323 42.159 49.115v2.753"/>
    <path stroke="#3F4250" stroke-miterlimit="10" stroke-width="1.4" d="M138.981 502.546s138.582-50.622 158.686-57.801 32.67-30.159 26.21-50.982l-157.971 57.45s4.308 39.845-26.928 51.337zm-32.259-291.881 122.016-42.343M106.722 240.35l89.995-31.233m-89.995 60.922 82.881-28.765m-82.881 58.45 85.129-29.542m-85.129 59.228 96.474-33.481m-96.474 63.166 100.478-34.87m-7.931 32.439 29.469-10.226m-122.016 42.346 83.644-29.029m-83.644 58.714 122.016-42.346m-122.016 72.032 122.016-42.343m59.044-91.047 113.901 36.619s-9.962 43.622 18.04 56.008c0 0-102.589-36.89-118.477-42.005s-25.579-24.504-13.464-50.622Zm116.677-1.184a5.65 5.65 0 0 1-4.44-2.16l-14.414-18.341a5.644 5.644 0 0 1 .953-7.931 5.647 5.647 0 0 1 7.931.954l9.743 12.397 19.393-27.31a5.646 5.646 0 0 1 7.876-1.334 5.646 5.646 0 0 1 1.334 7.876l-23.771 33.473a5.65 5.65 0 0 1-4.469 2.376zM132.451 50.593l-6.464-2.989-.517-.238-.136-.062c-4.58-1.962-9.922-2.068-15.286.161C97.42 52.708 89.69 68.754 92.818 83.12c1.503 6.9 5.243 12.107 10.098 15.037l.051.03a19 19 0 0 0 3.267 1.557l4.129 1.969"/>
    <path stroke="#3F4250" stroke-miterlimit="10" stroke-width="1.4" d="M143.649 66.759c-2.827-14.311-15.253-21.839-27.801-16.628-12.628 5.243-20.357 21.288-17.23 35.654 3.095 14.194 15.621 21.256 27.944 15.961 12.247-5.261 19.877-20.845 17.083-34.987z"/>
    <path stroke="#3F4250" stroke-miterlimit="10" stroke-width="1.4" d="M121.315 88.11c-.674 0-1.312-.43-1.727-1.17l-5.61-9.933c-.751-1.327-.583-3.252.371-4.297.957-1.045 2.335-.814 3.087.517l3.791 6.714 7.546-14.788c.704-1.379 2.076-1.701 3.066-.722s1.221 2.889.52 4.264l-9.251 18.124c-.399.789-1.045 1.265-1.738 1.287h-.055zm140.148 59.363c1.965-3.523 5.8-3.971 8.525-.997l3.252 3.549a7.134 7.134 0 0 0 10.234.319l5.467-5.269c2.904-2.797 6.427-1.994 7.832 1.786l2.09 5.628c1.404 3.781 5.536 5.464 9.181 3.74l5.35-2.53c3.644-1.723 6.702.165 6.794 4.199l.161 7.227a6.96 6.96 0 0 0 7.48 6.834l4.166-.282c4.022-.271 6.427 2.68 5.342 6.567l-2.119 7.586c-1.086 3.883 1.122 8.203 4.906 9.596l2.944 1.085c3.784 1.394 5.152 5.346 3.036 8.778l-4.011 6.516c-2.116 3.436-1.507 8.573 1.356 11.414l2.296 2.281c2.86 2.845 2.746 7.377-.253 10.072l-4.906 4.408c-3 2.695-4.18 7.945-2.626 11.667l1.647 3.934c1.558 3.722-.191 8.096-3.88 9.721l-4.616 2.035c-3.692 1.628-6.523 6.251-6.288 10.277l.322 5.596c.231 4.026-2.874 7.487-6.904 7.689l-3.549.179c-4.03.202-8.111 3.572-9.072 7.491l-1.584 6.457c-.96 3.916-4.836 5.959-8.609 4.532l-2.592-.979c-3.773-1.422-8.503.275-10.509 3.773l-3.502 6.105c-2.005 3.498-5.984 4.03-8.836 1.181l-2.193-2.189c-2.856-2.849-7.572-2.893-10.479-.099l-4.807 4.616c-2.908 2.794-6.56 2.035-8.111-1.69l-1.683-4.041c-1.551-3.721-5.79-5.324-9.416-3.56l-5.126 2.493c-3.626 1.764-6.769-.088-6.981-4.114l-.316-5.991a7 7 0 0 0-7.685-6.637l-4.587.433c-4.015.378-6.479-2.508-5.474-6.413l1.822-7.073c1.005-3.905-1.313-8.118-5.148-9.361l-3.835-1.243c-3.836-1.243-5.277-5.089-3.201-8.547l4.029-6.71c2.076-3.458 1.335-8.507-1.65-11.22l-3.3-2.999c-2.984-2.714-2.973-7.139.026-9.834l5.511-4.958c2.999-2.695 4.059-7.894 2.354-11.55l-2.449-5.247a7.06 7.06 0 0 1 3.648-9.518l5.775-2.457c3.711-1.58 6.453-6.16 6.098-10.175l-.653-7.344c-.359-4.019 2.647-7.378 6.681-7.469l5.012-.114c4.033-.092 8.048-3.384 8.925-7.322l1.837-8.25c.876-3.938 4.631-5.867 8.341-4.29l4.041 1.716c3.711 1.576 8.356-.015 10.322-3.539l4.161-7.469z"/>
    <path stroke="#3F4250" stroke-miterlimit="10" stroke-width="1.4" d="m218.577 300.212-29.579 62.425 38.489-22.381 7.521 41.363 31.489-65.193m20.236.715-4.18-5.181m73.352 3.608-33.583-1.096-.689 11.176m4.788-53.966 29.484 38.324m-28.259-89.254c-1.364-35.758-28.549-58.946-61.032-51.026-32.857 8.012-57.599 44.477-54.967 80.663 2.574 35.428 30.492 56.705 62.081 48.279 31.243-8.334 55.256-42.892 53.922-77.916z"/>
    <path stroke="#3F4250" stroke-miterlimit="10" stroke-width="1.4" d="m292.945 214.009-6.465-2.989q-.258-.121-.517-.238l-.135-.062c-4.58-1.962-9.922-2.068-15.287.161-12.628 5.243-20.357 21.289-17.229 35.655 1.503 6.9 5.243 12.107 10.098 15.037l.051.029a19 19 0 0 0 3.267 1.558l4.129 1.969"/>
    <path stroke="#3F4250" stroke-miterlimit="10" stroke-width="1.4" d="M304.143 230.175c-2.827-14.311-15.254-21.839-27.801-16.628-12.628 5.243-20.357 21.288-17.23 35.654 3.095 14.194 15.62 21.256 27.944 15.961 12.247-5.261 19.877-20.845 17.083-34.987zM200.215 186.01l12.092-4.07m150.62-50.692-63.94 21.52"/>
</svg>
