<svg xmlns="http://www.w3.org/2000/svg" width="550" height="550" fill="none" viewBox="0 0 550 550">
    <path stroke="#3F4250" stroke-miterlimit="10" stroke-width="1.4" d="m508.732 308.114 18.542-46.446c1.474-3.692-.851-5.636-2.977-6.365l-41.052-14.044c-4.389-1.503-5.258.902-5.937 2.791l-7.586 21.193"/>
    <path stroke="#3F4250" stroke-miterlimit="10" stroke-width="1.4" d="m473.488 293.322 35.244 14.795-18.293-30.308c-1.511-2.505-5.823-6.307-8.962-7.623l-35.398-14.858c-2.922-1.228-4.638-.242-2.896 2.648l15.565 25.791M48.18 237.49l-27.958-37.305 46.405-4.451m105.369 97.31 17.78 7.883m-63.503-28.153 20.192 8.954"/>
    <path stroke="#3F4250" stroke-miterlimit="10" stroke-width="1.4" d="m134.02 224.928-64.177-28.45c-7.198-3.179-17.274 3.843-22.506 15.686-5.233 11.844-3.638 24.021 3.56 27.2l28.35 12.565m162.713 20.845-82.786-36.696m-48.602 196.207-18.817 1.705c-5.038.539-8.4 7.697-7.513 15.983s5.69 14.568 10.728 14.029l18.818-1.705"/>
    <path stroke="#3F4250" stroke-miterlimit="10" stroke-width="1.4" d="M113.809 462.288c5.037-.54 8.401-7.696 7.512-15.984-.888-8.287-5.693-14.568-10.73-14.028-5.038.541-8.402 7.697-7.513 15.984.889 8.288 5.693 14.569 10.731 14.028Zm308.712-202.585 47.656-27.471c10.816-5.892 11.729-25.095 2.038-42.893s-26.319-27.448-37.136-21.556l-47.655 27.471"/>
    <path stroke="#3F4250" stroke-miterlimit="10" stroke-width="1.4" d="M407.733 259.849c5.313 2.079 10.505 2.186 14.788-.146 10.817-5.893 11.73-25.095 2.039-42.893s-26.32-27.449-37.136-21.556c-4.279 2.328-7.007 6.739-8.144 12.323M155.049 319.656l-51.015 27.522m150.084-80.96-78.598 42.398"/>
    <path stroke="#3F4250" stroke-miterlimit="10" stroke-width="1.4" d="m375.932 286.359 23.067-12.444c11.18-5.988 12.258-25.755 2.406-44.147-9.853-18.392-26.903-28.45-38.082-22.458l-39.732 21.431m-13.351 93.053 15.525-8.375M139.707 413.783l69.113-37.279M99.895 350.526c-1.049 1.214-1.936 2.614-2.659 4.169L59.51 413.886l70.176 1.393c1.694.261 3.352.301 4.943.099 1.786-.227 3.494-.74 5.078-1.591 11.18-5.988 12.258-25.751 2.406-44.147-9.853-18.395-26.903-28.449-38.082-22.458-1.588.851-2.963 1.984-4.14 3.348zm296.065-14.883-22.847 33.55c-5.948 9.024 1.265 24.27 16.111 34.052a54 54 0 0 0 2.625 1.625m22.858-96.756-13.236 19.44m27.742 73.627 39.251-57.636m1.746-4.188c.293-1.334.388-2.742.3-4.202l4.25-59.656-53.145 27.43a15.2 15.2 0 0 0-3.743 1.932c-1.247.895-2.318 1.973-3.161 3.253-5.947 9.023 1.265 24.269 16.111 34.052s31.699 10.399 37.646 1.375a12.4 12.4 0 0 0 1.745-4.187zm-89.511-49.859-60.141-39.618m-7.879 54.915 23.213 15.294m-69.278-105.75-49.349-32.513c-7.022-4.656-18.924.935-26.584 12.489-7.659 11.554-8.176 24.691-1.155 29.348l69.209 45.595"/>
    <path stroke="#3F4250" stroke-miterlimit="10" stroke-width="1.4" d="m361.511 333.095 44.488 3.292-21.27-41.495a11.8 11.8 0 0 0-1.5-2.923 9.6 9.6 0 0 0-2.53-2.471c-7.022-4.657-18.924.935-26.583 12.489-3.469 5.236-5.475 10.794-5.977 15.744m-100.346 27.786-6.919-4.557c-7.021-4.657-18.923.935-26.583 12.488-7.66 11.554-8.177 24.692-1.155 29.348l27.126 17.872m104.65 8.833-43.175-28.443m102.572 67.573-19.441-12.807m-27.936 41.701 19.638 12.939m-71.056-46.812 22.792 15.015m51.524 33.165a11.8 11.8 0 0 0 3.274.242l46.501 3.443-21.27-41.496a11.8 11.8 0 0 0-1.5-2.922 9.6 9.6 0 0 0-2.53-2.471c-7.022-4.657-18.924.935-26.583 12.488-7.66 11.554-8.177 24.692-1.155 29.348a9.7 9.7 0 0 0 3.259 1.368zm-86.999-46.926 180.778-17.838m-236.211-6.96-84.956 8.382c-5.038.429-8.551 7.495-7.843 15.785.707 8.287 5.36 14.66 10.398 14.231l77.895-7.686m238.157-53.764-173.712 17.138m178.314 12.302a7 7 0 0 0 1.632-1.108l23.147-15.722-25.476-11.58a7 7 0 0 0-1.793-.814 5.9 5.9 0 0 0-2.112-.22c-5.038.429-8.55 7.495-7.843 15.785.708 8.287 5.361 14.66 10.399 14.231a5.9 5.9 0 0 0 2.042-.572zm-350.563-244.38 13.919 66.708c.741 3.677 6.244 5.668 12.294 4.451 6.05-1.221 10.351-5.188 9.611-8.866l-9.328-44.715M101.721 70.129l8.763 42.001m26.495 17.578-13.354-63.994m-.594-1.459a5.3 5.3 0 0 0-.953-1.108l-13.537-15.733-6.388 19.752c-.22.458-.37.924-.451 1.39a4.3 4.3 0 0 0 .019 1.573c.74 3.677 6.244 5.668 12.294 4.45 6.05-1.22 10.351-5.187 9.61-8.865a4.3 4.3 0 0 0-.594-1.46Zm158.151 53.918 35.303-46.167 21.035 54.175m-61.314 21.3-33.194 231.355"/>
    <path stroke="#3F4250" stroke-miterlimit="10" stroke-width="1.4" d="m300.876 387.064 36.839-256.769c1.382-9.713-10.454-19.426-26.433-21.699-15.98-2.274-30.052 3.762-31.431 13.471l-.15 1.041"/>
    <path stroke="#3F4250" stroke-miterlimit="10" stroke-width="1.4" d="M293.044 397.111c4.356-2.446 7.245-5.911 7.835-10.047 1.383-9.713-10.453-19.426-26.433-21.699-15.979-2.273-30.052 3.762-31.43 13.471-.605 4.25 1.32 8.5 5.016 12.126m112.031-239.257-10.608 14.347c-3.241 4.202-.264 11.935 6.652 17.27 6.915 5.335 15.15 6.252 18.392 2.05l10.607-14.348"/>
    <path stroke="#3F4250" stroke-miterlimit="10" stroke-width="1.4" d="M385.111 171.039c3.243-4.204.266-11.937-6.649-17.272s-15.15-6.252-18.393-2.048-.267 11.937 6.648 17.272 15.15 6.252 18.394 2.048Zm-28.619 299.563-8.276-12.522c-2.999-4.737-11.752-4.579-19.547.356s-11.682 12.778-8.683 17.516l8.276 12.521"/>
    <path stroke="#3F4250" stroke-miterlimit="10" stroke-width="1.4" d="M347.817 488.086c7.795-4.936 11.682-12.777 8.683-17.515-3-4.737-11.751-4.577-19.546.359-7.795 4.935-11.682 12.777-8.683 17.514 3 4.738 11.751 4.577 19.546-.358Zm-60.431-6.084 10.677-72.758c1.383-9.713-10.453-19.426-26.433-21.699-15.979-2.274-30.052 3.762-31.43 13.471l-10.678 72.758"/>
    <path stroke="#3F4250" stroke-miterlimit="10" stroke-width="1.4" d="M287.383 481.986c1.381-9.712-10.454-19.426-26.433-21.697s-30.051 3.76-31.432 13.472c-1.38 9.711 10.454 19.425 26.433 21.697s30.052-3.761 31.432-13.472ZM180.279 158.44 97.57 103.561c-7.062-4.612-18.935 1.064-26.525 12.68s-8.019 24.772-.957 29.384l82.709 54.879"/>
    <path stroke="#3F4250" stroke-miterlimit="10" stroke-width="1.4" d="M179.327 187.832c7.588-11.614 8.016-24.769.955-29.382-7.06-4.614-18.936 1.061-26.524 12.676s-8.017 24.769-.956 29.382 18.936-1.062 26.525-12.676Zm-35.891 80.506 16.394 72.438c.807 3.674 6.358 5.577 12.401 4.254 6.042-1.324 10.288-5.376 9.485-9.05l-16.393-72.438"/>
    <path stroke="#3F4250" stroke-miterlimit="10" stroke-width="1.4" d="M155.821 272.601c6.043-1.325 10.289-5.376 9.484-9.049-.805-3.674-6.356-5.578-12.399-4.254-6.044 1.325-10.29 5.376-9.485 9.049.805 3.674 6.356 5.578 12.4 4.254Zm-43.331-32.086-71.229 24.468 4.055 49.826s.202 7 5.365 5.24c1.54-.525 6.244-2.142 12.44-4.272"/>
    <path stroke="#3F4250" stroke-miterlimit="10" stroke-width="1.4" d="m112.49 240.515 22.883 53.17c1.262 2.934 1.621 7.638-2.955 9.207l-57.699 19.819c-4.796 1.646-8.752-.319-10.211-3.711l-23.25-54.021 71.228-24.468zm241.024 130.988 7.609-1.36c2.486-.444 4.477-2.149 4.077-5.563l-5.247-44.788c-.367-3.124-2.875-3.784-5.614-3.256l-38.929 7.495"/>
    <path stroke="#3F4250" stroke-miterlimit="10" stroke-width="1.4" d="M348.927 340.545c-.502-3.388-3.252-5.514-5.324-6.266l-28.189-10.248 7.836 52.888 28.218 10.259c2.376.865 4.422.352 3.905-3.139zm-63.136-198.619-37.543 21.743c-4.015 2.325-5.331.136-6.365-1.588l-24.116-40.311 42.504-28.63 27.207 41.962c2.163 3.337.26 5.694-1.687 6.82z"/>
    <path stroke="#3F4250" stroke-miterlimit="10" stroke-width="1.4" d="m230.329 142.769-21.267 14.326c-2.629 1.771-4.502 1.136-3.355-2.035l12.064-33.286"/>
</svg>
