<svg xmlns="http://www.w3.org/2000/svg" width="550" height="550" fill="none" viewBox="0 0 550 550">
    <path fill="#fff" fill-rule="evenodd" d="M478.965 289.54v-43.793l-.008.004v-44.155c.004-14.717.012-29.438.032-44.155 0-.979-.124-1.77-.477-2.448-.353-.678-.939-1.24-1.862-1.766a4160.465 4160.465 0 0 1-22.222-12.754 10633.28 10633.28 0 0 1-14.305-8.278l-7.869-4.557a7.805 7.805 0 0 1-.971-.67 12.836 12.836 0 0 1-.887-.787c-.394-.382-.757-.812-1.121-1.242l-.002-.003a34.593 34.593 0 0 0-.43-.504c-.514-.59-1.048-1.136-1.686-1.505a21025.639 21025.639 0 0 0-39.045-22.575l-15.806-9.118-.003-.002-.046-.026-.04-.024-.021-.012a55750.714 55750.714 0 0 1-60.121-34.72 16078.975 16078.975 0 0 1-36.939-21.423c-1.043-.61-1.954-.9-2.861-.883-.907.016-1.814.333-2.846.935a4117.834 4117.834 0 0 1-22.675 13.168 7827.93 7827.93 0 0 1-22.736 13.063 6.306 6.306 0 0 1-1.601.63c-.566.133-1.112.153-1.449-.048-.951-.566-1.774-.678-2.56-.534-.787.145-1.537.542-2.332 1.003-25.34 14.65-50.684 29.298-76.029 43.934a72877.675 72877.675 0 0 1-76.06 43.87c-1.132.654-1.89 1.337-2.368 2.179-.478.839-.67 1.843-.67 3.127.036 29.197.052 58.39.052 87.587v87.587c0 .186-.014.379-.028.572-.01.137-.02.273-.024.407-.012.325-.004.642.096.931l.074.216v.003c.126.368.266.778.436 1.138.204.433.457.802.786.951 1.132.517 1.758 1.208 2.1 2.039.34.83.397 1.806.397 2.889-.025 8.42-.025 16.843-.025 25.263v.001c0 8.42-.008 16.844-.056 25.264-.008 1.232.173 2.207.626 3.034.454.827 1.184 1.501 2.284 2.123a3656.983 3656.983 0 0 1 21.808 12.506c3.628 2.095 7.255 4.191 10.882 6.288 3.627 2.097 7.254 4.194 10.883 6.289.186.108.375.212.563.315.643.354 1.279.705 1.788 1.17.659.602 1.108 1.397 1.088 2.645-.004.285.269.614.626.919.357.305.811.598 1.168.815 1.337.815 2.685 1.605 4.037 2.388.676.391 1.354.78 2.032 1.169l.001.001c.678.389 1.357.778 2.033 1.17l12.592 7.267.049.028.049.029a403888.07 403888.07 0 0 1 60.024 34.647c24.236 13.995 48.469 27.993 72.697 42 .835.481 1.577.73 2.32.734.742.004 1.485-.233 2.324-.718 25.408-14.693 50.816-29.382 76.233-44.055a70129.487 70129.487 0 0 1 76.277-43.974c1.124-.646 1.987-1.316 2.517-2.151.525-.831.722-1.826.505-3.122-.18-1.064-.024-1.887.41-2.577.429-.69 1.139-1.244 2.066-1.774 6.643-3.782 13.26-7.602 19.879-11.423l.024-.014.013-.007.837-.483.02-.011a4188.344 4188.344 0 0 1 20.733-11.917c1.004-.57 1.694-1.18 2.131-1.934.438-.755.627-1.654.619-2.81-.049-8.022-.061-16.041-.061-24.064 0-8.022.016-16.041.032-24.064v-.081c0-.446 0-.984.057-1.464.06-.509.192-.947.461-1.14.903-.634 1.3-1.384 1.469-2.191.135-.645.126-1.328.117-2.023-.002-.174-.005-.35-.005-.525zm-52.004-107.541c.425.261.899.554 1.48.903h-.004c-1.617.941-3.196 1.862-4.749 2.768l-.035.02-3.146 1.835a2469.817 2469.817 0 0 1-7.625 4.427 88948.449 88948.449 0 0 1-29.892 17.254l-.118.068-.019.011-.24.139-.712.41-10.782 6.222-20.923 12.073-20.844 12.027c-4.585 2.647-9.172 5.293-13.76 7.94-4.579 2.641-9.158 5.282-13.735 7.925a12827.161 12827.161 0 0 0-27.475 15.905c-.759.445-1.429.662-2.087.658-.658-.004-1.317-.225-2.067-.658a89506.254 89506.254 0 0 0-53.811-31.132c-17.939-10.37-35.883-20.737-53.827-31.103-6.224-3.596-12.455-7.187-18.684-10.777l-3.397-1.957c-7.365-4.242-14.725-8.485-22.085-12.731-.301-.172-.59-.369-.911-.594l-.138-.096-.147-.104h-.001a55.907 55.907 0 0 0-.818-.57c.352-.226.669-.432.965-.625l.003-.002.004-.002.004-.003.324-.211c.389-.253.751-.478 1.116-.69 3.464-2.004 6.93-4.003 10.396-6.003l.019-.012c2.916-1.682 5.832-3.365 8.749-5.05 6.389-3.692 12.77-7.389 19.135-11.113.871-.51 1.634-.771 2.396-.779.763-.008 1.529.241 2.412.751 18 10.431 36.012 20.845 54.024 31.256l.079.046c17.985 10.395 35.971 20.79 53.948 31.202.831.481 1.569.726 2.308.734.738.008 1.485-.229 2.327-.718 14.876-8.615 29.76-17.213 44.644-25.811l.066-.038 9.117-5.267a35581.955 35581.955 0 0 0 53.815-31.135c1.096-.634 2.027-.927 2.954-.903.923.024 1.842.361 2.902.987 6.252 3.68 12.525 7.32 18.81 10.948a9643.71 9643.71 0 0 0 9.432 5.439c3.142 1.81 6.284 3.62 9.423 5.434.381.216.754.441 1.18.702m-311.576 2.322v3.477c0 3.505.005 7.011.01 10.517v.008c.006 3.509.011 7.017.011 10.525 0 7.015-.017 14.035-.089 21.05-.016 1.349.197 2.384.699 3.247.501.863 1.3 1.553 2.456 2.219a29973.04 29973.04 0 0 1 43.979 25.34l.022.012 9.553 5.511a25163.926 25163.926 0 0 0 53.566 30.838c1.308.751 2.171 1.533 2.701 2.492.529.96.734 2.095.734 3.552-.044 20.689-.056 41.378-.064 62.066l-.005 15.532c-.005 15.511-.009 31.023-.027 46.535 0 1.027.128 1.858.493 2.564.366.707.972 1.297 1.931 1.838 6.377 3.62 12.738 7.28 19.087 10.949l7.546 4.363.053.031c3.816 2.208 7.634 4.416 11.452 6.618.257.149.534.261.835.373.109.041.222.081.338.123h.002c.205.073.422.151.652.243.019-.274.042-.522.063-.753l.037-.427c.028-.349.052-.662.052-.979v-.167c0-29.214 0-58.427.008-87.641.004-29.269.012-58.539.036-87.808 0-.855-.164-1.501-.501-2.031-.338-.529-.855-.947-1.554-1.34a847.576 847.576 0 0 1-8.66-4.965l-1.783-1.034-.102-.059c-2.25-1.306-4.5-2.612-6.752-3.911l-.669-.386a658368.031 658368.031 0 0 0-65.158-37.612 444669.406 444669.406 0 0 0-65.827-37.995l-.001-.001c-.754-.433-1.508-.866-2.338-1.335-.83-.469-1.736-.982-2.786-1.579Zm360.163 102.053.002 14.552v43.653c0 14.552.012 29.109.044 43.661.004 1.084-.148 1.947-.542 2.681-.393.734-1.031 1.336-2.002 1.894-25.32 14.585-50.632 29.181-75.941 43.786-18.523 10.689-37.045 21.381-55.568 32.073l-.024.015-.311.179-20.017 11.554c-1.633.939-3.347.891-4.659.133-1.313-.759-2.212-2.224-2.212-4.118V438.8c0-16.722.001-33.444-.004-50.167-.004-29.269-.02-58.534-.064-87.803-.004-1.228.313-2.059.851-2.709.538-.65 1.284-1.116 2.143-1.61a62659.433 62659.433 0 0 0 34.479-19.89l17.235-9.953.296-.171.041-.024 16.898-9.758 20.308-11.727 20.307-11.727 6.202-3.579 4.987-2.879c9.81-5.662 19.62-11.324 29.434-16.98.242-.14.479-.29.716-.44l.001-.001c.569-.36 1.134-.718 1.743-.927.863-.297 1.81-.301 2.978.405.983.594 1.67 1.2 2.107 1.951.438.75.626 1.637.626 2.793-.036 14.552-.052 29.109-.052 43.661-.005 9.702-.004 19.405-.002 29.108zm-248.115 85.671c.003 6.204.005 12.407.005 18.611l-.004-.004c0 5.807-.002 11.613-.003 17.419v.092c-.002 8.677-.004 17.355-.001 26.034.004 14.516.02 29.028.068 43.544.004 1.208-.249 2.083-.735 2.798-.485.714-1.204 1.272-2.135 1.854-.931.582-1.697.686-2.416.538-.68-.141-1.324-.512-2.031-.918l-.12-.07c-17.662-10.21-35.329-20.415-53-30.617-10.828-6.253-21.658-12.505-32.488-18.757l-.014-.007-.013-.008-20.493-11.83c-4.38-2.528-8.757-5.058-13.134-7.588l-.009-.005-.029-.017-9.632-5.566a8032.316 8032.316 0 0 0-22.824-13.139c-.83-.478-1.408-.992-1.781-1.63-.374-.638-.534-1.4-.534-2.372.028-29.229.036-58.458.04-87.687.004-29.215.004-58.43.004-87.646v-.041c0-2.075.875-3.612 2.2-4.371 1.324-.758 3.097-.738 4.892.297l.327.189.037.022.038.021c24.997 14.439 49.995 28.878 74.996 43.313A77165.603 77165.603 0 0 0 224.071 298c1.22.703 2.078 1.429 2.636 2.34.558.911.807 2.015.803 3.468-.06 14.476-.08 28.948-.08 43.424-.003 8.272 0 16.542.003 24.813m201.334-243.871v.002-.004zm-.193 2.242c.317-.602.389-1.32.193-2.242.337-1.11.176-1.937-.305-2.619-.482-.682-1.277-1.22-2.208-1.757a23582.424 23582.424 0 0 1-37.749-21.684 26913.543 26913.543 0 0 1-113.461-65.647c-.923-.537-1.742-.858-2.573-.903-.83-.044-1.681.189-2.669.763a11802.423 11802.423 0 0 1-32.451 18.83 38133.32 38133.32 0 0 1-20.594 11.9l-.002.001h-.001l-.005.004-.005.003-11.881 6.863-7.941 4.588-.055.032-.008.004c-11.807 6.822-23.612 13.643-35.421 20.46a34909.376 34909.376 0 0 1-43.448 25.042c-.811.466-1.34.964-1.681 1.574-.342.61-.486 1.324-.526 2.231-.048 1.124.112 2.023.542 2.749.429.727 1.123 1.288 2.131 1.734.694.305 1.356.674 2.014 1.063.287.17.572.344.856.517h.001a56.7 56.7 0 0 0 1.106.663l24.657 14.237a217453.95 217453.95 0 0 1 49.281 28.457c24.645 14.236 49.287 28.475 73.921 42.726.775.446 1.441.65 2.099.634.658-.016 1.312-.253 2.051-.686 4.776-2.789 9.568-5.554 14.364-8.316 1.719-.99 3.439-1.979 5.158-2.967l.027-.016.004-.002c3.066-1.763 6.131-3.526 9.194-5.294 10.233-5.907 20.466-11.817 30.698-17.726l.104-.06.104-.06.209-.121.028-.016c10.238-5.913 20.476-11.825 30.715-17.736a95239.852 95239.852 0 0 1 61.873-35.69c.779-.45 1.337-.931 1.654-1.533m-.52 54.625c.355-.175.754-.372 1.226-.614v2.998c0 3.327-.003 6.655-.006 9.983v.1c-.003 3.295-.006 6.589-.006 9.883 0 6.654.012 13.312.064 19.967.009 1.027-.16 1.81-.549 2.46-.39.65-.996 1.168-1.863 1.665a40986.788 40986.788 0 0 0-37.976 21.888c-5.642 3.254-11.283 6.508-16.926 9.761a22766.681 22766.681 0 0 1-54.93 31.601c-1.586.907-2.693 1.839-3.4 3.014-.706 1.176-1.019 2.593-1.011 4.467.072 21.09.088 42.18.1 63.271.004 6.025.006 12.051.008 18.077.005 15.064.011 30.128.036 45.193 0 1.148-.168 2.055-.594 2.817-.425.763-1.095 1.381-2.099 1.947a3113.82 3113.82 0 0 0-17.429 9.973c-1.259.724-2.516 1.449-3.774 2.174l-2.139 1.234-.041.024c-3.816 2.2-7.63 4.399-11.448 6.593a7.273 7.273 0 0 1-.863.401l-.196.079-.161.064h-.002c-.115.046-.236.093-.363.145a21.1 21.1 0 0 0-.41.17c-.032-.57-.068-1.068-.096-1.529a21.446 21.446 0 0 1-.048-1.309c-.005-17.439-.006-34.875-.006-52.312l-.002-34.897c-.004-29.073-.016-58.141-.041-87.21 0-1.023.181-1.806.578-2.464.398-.658 1.016-1.184 1.887-1.686 25.215-14.532 50.427-29.076 75.631-43.625 25.204-14.548 50.407-29.1 75.611-43.653.329-.192.67-.369 1.068-.566zM63.852 334.361l-.222.1-.013.008a13.88 13.88 0 0 0-.38-.569 16.701 16.701 0 0 1-.318-.47c-.225-.349-.43-.706-.542-1.088-.112-.369-.128-.766-.116-1.171.005-.163.013-.326.022-.489.013-.246.026-.491.026-.732l.001-28.986v-.002c0-19.327.002-38.656 0-57.984-.005-28.993-.02-57.981-.057-86.973-.004-1.253.2-2.212.67-3.01.47-.799 1.208-1.441 2.276-2.055 25.256-14.545 50.504-29.109 75.747-43.673l37.866-21.851c12.622-7.284 25.244-14.568 37.866-21.85.421-.245.879-.43 1.34-.599.164-.06.329-.117.494-.176.301-.106.603-.213.899-.33.068.145.132.286.201.43l.098.21.002.006.056.119.044.095c-.181.124-.359.253-.537.383-.122.088-.243.176-.366.263a11.87 11.87 0 0 1-.927.606l-8.836 5.102c-13.892 8.02-27.786 16.042-41.68 24.059a32395.101 32395.101 0 0 1-50.547 29.1c-1.076.618-1.766 1.297-2.184 2.107-.421.811-.57 1.762-.562 2.922.004 1.208.101 2.24.498 3.138.397.899 1.092 1.666 2.3 2.344a2052.83 2052.83 0 0 1 19.32 11.033c3.469 2 6.934 4.005 10.4 6.011l.004.003a8518.35 8518.35 0 0 0 8.86 5.123c.303.173.598.361.923.569l.02.013c.139.089.283.182.434.281.212.137.438.285.686.441-.242.19-.455.372-.654.543l-.086.073-.059.05a4.967 4.967 0 0 1-.722.53l-3.139 1.815-.023.013c-5.68 3.284-11.358 6.566-17.041 9.843a5996.814 5996.814 0 0 1-20.232 11.619c-.718.409-1.216.834-1.541 1.364-.325.53-.465 1.172-.461 2.019.036 7.336.048 14.677.048 22.013.002 4.402 0 8.806-.002 13.21v.001l-.002 8.802v3.584c-.421-.205-.789-.379-1.121-.536l-.002-.001-.194-.092a30.115 30.115 0 0 0-.196-.093c-.43-.205-.803-.39-1.164-.598-4.525-2.605-9.048-5.214-13.57-7.822l-.003-.002-.003-.002-.113-.065-5.17-2.982-5.194-2.995-.007-.004-.06-.035-.001-.001c-4.531-2.613-9.063-5.227-13.596-7.837-1.879-1.083-4.074-.899-5.804.097-1.73.995-2.986 2.801-2.986 4.964V334.06a21.79 21.79 0 0 1-.222.1l-.223.101a21.79 21.79 0 0 1-.223.1Zm363.394 86.708c.405-.209.83-.425 1.3-.67v.008c.273 1.252.409 2.292.172 3.199-.24.907-.858 1.681-2.099 2.396a59497.929 59497.929 0 0 0-76.064 43.825 95907.607 95907.607 0 0 0-76.013 43.914c-.798.462-1.497.702-2.199.714-.702.012-1.405-.204-2.203-.666a150775.14 150775.14 0 0 0-75.905-43.858l-29.503-17.033-.018-.01-.018-.011c-15.461-8.926-30.922-17.852-46.381-26.779-.371-.215-.739-.445-1.104-.672l-.088-.055a80.662 80.662 0 0 1-.59-.371c-.196-.124-.393-.249-.59-.371l.074-.154.021-.042.031-.064.023-.049.074-.155.039-.079.035-.075c.212.101.427.198.643.294l.181.082.224.102c.349.16.694.325 1.023.517a58417.94 58417.94 0 0 1 49.172 28.362c8.849 5.113 17.698 10.226 26.548 15.347 8.849 5.122 17.699 10.234 26.552 15.347 1.545.891 3.636.566 5.342-.433 1.705-.999 3.026-2.677 3.026-4.483.016-7.256.016-14.516.016-21.772v-24.979c.277.106.525.194.751.275.141.049.272.096.397.142.325.121.602.229.858.377 2.451 1.413 4.903 2.824 7.354 4.236 4.117 2.37 8.234 4.74 12.344 7.114a3580.337 3580.337 0 0 1 19.649 11.422c.791.462 1.437.666 2.075.642.638-.024 1.264-.269 2.011-.706a3463.547 3463.547 0 0 1 17.887-10.387c3.774-2.18 7.553-4.357 11.332-6.534l.011-.006.01-.006c2.19-1.261 4.379-2.522 6.567-3.784.309-.177.626-.337.991-.518l.458-.224c.252-.123.53-.258.842-.414.042.512.09.98.134 1.416l.031.306c.052.522.088 1.011.088 1.497.008 6.561.008 13.127.008 19.688v.037c0 6.574 0 13.152.004 19.726 0 2.36 1.224 4.258 2.954 5.266 1.73 1.007 3.969 1.135 6-.037l14.064-8.115c12.707-7.333 25.415-14.666 38.121-22.001l25.956-14.979 26.23-15.137c.373-.212.746-.413 1.152-.622m50.258-85.632c-.103-.004-.206-.004-.309-.004V213.532a7.365 7.365 0 0 0-1.677-4.7c-1.056-1.268-2.541-2.143-4.266-2.336-.486-.052-1.016.093-1.541.313-.491.206-.978.486-1.422.74l-.001.001-.094.054c-5.808 3.339-11.607 6.686-17.402 10.033-2.532 1.462-5.063 2.926-7.595 4.39l-.054.031-.03.017c-3.236 1.872-6.473 3.743-9.711 5.612-.333.192-.674.369-1.06.558l-.144.07c-.348.17-.733.359-1.176.584-.032-.552-.064-1.027-.094-1.459v-.011l-.01-.144a19.439 19.439 0 0 1-.052-1.324l-.002-6.979c-.002-4.651-.004-9.302.002-13.955.008-6.979.024-13.958.072-20.933.008-.771-.177-1.288-.498-1.69-.321-.401-.778-.69-1.328-1.007-6.743-3.877-13.477-7.762-20.215-11.651-5.29-3.053-10.575-6.108-15.861-9.164l-.031-.018-.031-.018-4.281-2.475a8.265 8.265 0 0 1-.798-.533 36.544 36.544 0 0 1-.356-.261c-.191-.141-.398-.295-.635-.462l2.406-1.39 3.73-2.154a1825.92 1825.92 0 0 0 4.088-2.359l.937-.541.911-.527c3.007-1.735 6.012-3.475 9.017-5.215l5.037-2.916c4.684-2.709 9.371-5.414 14.071-8.099l.075-.042c.945-.539 1.869-1.066 2.518-1.828.666-.783 1.047-1.814.871-3.359.378.18.71.333 1.013.473l.002.001.329.152c.385.18.726.345 1.052.534 4.728 2.725 9.453 5.455 14.178 8.184l7.072 4.084c7.084 4.09 14.171 8.172 21.275 12.225.891.506 1.477 1.056 1.838 1.726.361.674.502 1.469.502 2.472-.025 29.113-.025 58.225-.025 87.338 0 17.477.005 34.953.009 52.43l.008 34.908v2.529c-.105-.004-.209 0-.314-.004m-18.364-6.909c.002-5.594.004-11.187.004-16.782l-.004-.008v-55.693c.004-4.21 0-8.42-.008-12.63 0-1.248-.121-1.939-.51-2.163-.389-.225-1.048.012-2.131.622-1.05.591-2.084 1.193-3.125 1.799l-.102.059-1.125.656c-.697.407-1.394.813-2.093 1.218l-11.551 6.668c-14.55 8.401-29.099 16.801-43.653 25.198a35911.63 35911.63 0 0 1-55.231 31.818c-1.12.642-1.875 1.32-2.348 2.159-.474.839-.662 1.842-.662 3.134.044 22.379.056 44.753.064 67.127.003 8.394.004 16.787.005 25.18v.002c.003 13.982.005 27.964.015 41.945 0 .482.092.964.213 1.445.04.161.082.321.125.482v.002c.085.32.169.641.236.961.272-.107.55-.205.829-.304.161-.057.323-.115.483-.174.438-.16.867-.337 1.264-.565l29.242-16.869c9.7-5.596 19.399-11.192 29.1-16.787a54688.294 54688.294 0 0 1 58.358-33.632c.947-.546 1.613-1.116 2.043-1.83.429-.714.618-1.573.614-2.693-.04-11.189-.056-22.374-.056-33.564 0-5.594.002-11.188.004-16.781M339.759 443.676l-.418.191c-.317.144-.673.306-1.087.504l-.004.004v-9.249l.001-12.981v-2.163c.001-13.98.002-27.96-.001-41.94-.004-20.965-.02-41.935-.064-62.905-.004-1.232.213-2.155.682-2.913.47-.759 1.196-1.357 2.211-1.943a48138.873 48138.873 0 0 0 54.385-31.348c17.988-10.384 35.972-20.768 53.956-31.152l.409-.236a131.232 131.232 0 0 1 1.251-.707l.137-.076c.498-.277 1.044-.574 1.686-.931.026.394.056.749.083 1.077l.002.014.039.486c.037.466.065.883.065 1.301.004 12.711.005 25.423.005 38.136l.003 25.491c.004 21.206.012 42.417.036 63.627 0 .879-.149 1.553-.482 2.115-.333.562-.859 1.012-1.613 1.445a57835.7 57835.7 0 0 0-55.099 31.786c-9.146 5.281-18.291 10.564-27.437 15.846l-27.646 15.967c-.333.193-.683.362-1.1.554m-.375 5.449c-.24.119-.493.244-.765.383l-.004.012c-.429-1.144-.429-1.983-.104-2.657.325-.674.971-1.188 1.826-1.682 15.602-8.988 31.198-17.987 46.793-26.985l9.057-5.226c18.613-10.739 37.227-21.479 55.853-32.199.947-.546 1.613-1.111 2.039-1.826.425-.714.614-1.569.614-2.693-.036-21.455-.048-42.91-.052-64.366l-.007-25.746v-.268c-.003-12.784-.006-25.568-.013-38.351 0-.952.02-1.843.377-2.545s1.055-1.212 2.412-1.393c.016.24.038.478.059.714l.012.134c.012.131.023.261.033.393.032.413.061.822.061 1.232.007 21.892.007 43.78.007 65.672v.496c.005 22.057.013 44.11.037 66.167 0 .911-.129 1.63-.466 2.24-.333.61-.875 1.107-1.689 1.577a61455.263 61455.263 0 0 0-57.407 33.106c-9.919 5.725-19.838 11.454-29.758 17.183l-.931.538-.149.086c-8.849 5.111-17.699 10.222-26.549 15.331-.301.177-.614.337-.951.506l-.097.048zM82.585 242.235c.852.462 1.623.874 2.34 1.257l.815.437a93.01 93.01 0 0 1 2.652 1.464c9.52 5.503 19.036 11.007 28.553 16.512l.02.011c9.524 5.509 19.048 11.017 28.573 16.523a55262.25 55262.25 0 0 0 57.166 33.01c.891.514 1.489 1.051 1.862 1.714.374.662.526 1.444.526 2.448-.028 21.17-.036 42.336-.04 63.507-.003 14.113-.002 28.225-.001 42.337l.001 21.17.002 2.165.001 1.211.001.954v.016c0 1.44 0 2.875-.008 4.315-.008 1.228-.124 1.906-.514 2.123-.389.216-1.051-.033-2.147-.663a11195.01 11195.01 0 0 1-15.01-8.636c-5-2.882-10.001-5.767-14.998-8.653-7.204-4.158-14.405-8.319-21.607-12.48-7.202-4.16-14.404-8.321-21.608-12.479a19252.371 19252.371 0 0 0-43.252-24.899c-1.228-.702-2.079-1.424-2.625-2.335-.545-.911-.782-2.007-.778-3.46.052-22.25.072-44.504.076-66.754.003-14.825.002-29.653.001-44.48v-26.335Zm120.878 204.098v-3.488l-.002-20.97c-.002-13.979-.004-27.958.002-41.935.008-20.965.02-41.939.064-62.905 0-1.256-.205-2.211-.674-3.01-.47-.798-1.212-1.428-2.276-2.042a45810.726 45810.726 0 0 1-54.497-31.397c-9.08-5.239-18.158-10.479-27.236-15.72-9.079-5.24-18.157-10.481-27.237-15.72a25.002 25.002 0 0 0-1.268-.674 57.51 57.51 0 0 0-.516-.258v-.001a92.53 92.53 0 0 1-1.057-.532 123.7 123.7 0 0 1-.077 1.369l-.032.537a27.339 27.339 0 0 0-.056 1.57v62.788c0 20.93-.02 41.859-.064 62.785 0 1.26.209 2.219.686 3.018.478.799 1.22 1.429 2.28 2.039a30579.293 30579.293 0 0 1 49.283 28.39c8.162 4.71 16.325 9.423 24.488 14.135l.077.044.504.292 24.191 13.963c2.143 1.237 4.286 2.473 6.498 3.745 1.5.861 3.032 1.743 4.616 2.656l2.303 1.325zM84.216 246.013v.001l-.042.531c-.028.39-.052.771-.052 1.152 0 22.09 0 44.179-.004 66.268-.004 22.09-.012 44.179-.036 66.268 0 .932.16 1.646.526 2.24.365.594.923 1.067 1.718 1.525a56047.81 56047.81 0 0 1 53.951 31.119l26.912 15.544.57.329c8.817 5.094 17.635 10.187 26.453 15.279 1.441.831 2.89 1.653 4.346 2.472l4.407 2.48c.642-1.332.566-2.219.12-2.893-.436-.661-1.228-1.118-2.046-1.59l-.049-.028c-13.64-7.869-27.279-15.74-40.918-23.612l-.017-.009-14.89-8.594a68527.689 68527.689 0 0 0-55.837-32.191c-.84-.481-1.417-.995-1.782-1.629-.366-.634-.522-1.389-.518-2.36.036-8.219.048-16.439.048-24.654 0-4.107-.002-8.213-.004-12.32v-.011a25313.5 25313.5 0 0 1-.004-12.323v-39.928c0-13.309.008-26.621.028-39.929 0-.983-.064-1.854-.45-2.52-.385-.667-1.091-1.124-2.375-1.277h-.004c-.016.225-.033.444-.051.66m310.153-121.294.004-.002.004.008zm-.985.674c.287-.2.607-.421.985-.674a78.924 78.924 0 0 1-1.17-.852l-.231-.17a12.098 12.098 0 0 0-1.176-.786 32443.052 32443.052 0 0 0-28.077-16.194c-9.361-5.395-18.723-10.79-28.078-16.194-18.71-10.808-37.404-21.644-56.042-32.576-2.681-1.574-4.952-2.384-7.236-2.4-2.283-.016-4.567.762-7.276 2.368-13.966 8.283-28.005 16.438-42.068 24.553-6.796 3.922-13.598 7.834-20.4 11.745a14478.18 14478.18 0 0 0-21.812 12.56l-7.084 4.088-7.083 4.087c-4.72 2.725-9.443 5.45-14.167 8.175-1.128.65-1.694 1.092-1.682 1.537.012.446.594.895 1.758 1.574.733.428 1.468.853 2.202 1.279l.812.47c.705.409 1.41.816 2.116 1.224l.898.518 21.648 12.494a519579.55 519579.55 0 0 1 34.19 19.733 81544.566 81544.566 0 0 1 55.821 32.255c.755.438 1.413.659 2.075.659.662 0 1.324-.217 2.091-.663a25070.615 25070.615 0 0 1 39.676-22.928l19.857-11.451c6.613-3.813 13.226-7.626 19.839-11.441 5.278-3.043 10.556-6.092 15.832-9.14l3.331-1.925 19.156-11.076c.329-.193.646-.402 1.007-.651zm-7.296 1.455c.248.176.521.37.836.586l-.008.004-2.709 1.56c-1.49.859-2.957 1.703-4.407 2.541l-3.76 2.169a15538.16 15538.16 0 0 0-99.507 57.574c-1.541.899-2.853 1.364-4.174 1.376-1.32.012-2.641-.425-4.206-1.336a18352.811 18352.811 0 0 0-53.891-31.232 68014.484 68014.484 0 0 0-29.871-17.243c-8.026-4.632-16.052-9.263-24.076-13.896-.354-.202-.701-.422-1.082-.663l-.062-.04c-.177-.112-.36-.23-.554-.355-.251-.161-.52-.334-.814-.52.339-.226.637-.433.911-.623l.277-.191c.349-.241.67-.454.999-.646 10.906-6.307 21.815-12.611 32.724-18.915 7.452-4.306 14.904-8.612 22.355-12.92a75548.685 75548.685 0 0 0 55.063-31.857c.798-.462 1.493-.686 2.191-.678.698.008 1.397.245 2.191.706a57854.169 57854.169 0 0 0 55.176 31.91l55.191 31.882c.301.173.586.369.911.598zm-230.577-.895c-.722-.149-1.429-.638-2.223-1.481l-.008.004 3.41-1.975 4.532-2.625c1.828-1.059 3.64-2.106 5.446-3.15l2.276-1.316c8.347-4.822 16.696-9.642 25.045-14.462s16.697-9.64 25.045-14.462a27662.21 27662.21 0 0 0 50.054-28.98c1.196-.695 2.224-1.032 3.251-1.028 1.028.004 2.055.357 3.243 1.047a34823.917 34823.917 0 0 0 56.825 32.89c9.477 5.475 18.955 10.948 28.433 16.421 9.475 5.471 18.95 10.943 28.424 16.416.279.161.548.34.828.526l.079.052c.132.087.264.177.4.27.182.124.369.251.567.38-.682.991-1.369 1.449-2.107 1.525-.739.076-1.533-.225-2.44-.751a27200.31 27200.31 0 0 0-37.055-21.431l-18.545-10.706-18.527-10.697-7.176-4.14c-3.858-2.225-7.715-4.45-11.57-6.68a2804.985 2804.985 0 0 1-18.698-10.896c-.999-.59-1.866-.867-2.725-.859-.859.008-1.718.31-2.705.883-18.618 10.8-37.248 21.58-55.878 32.356l-.046.026a104129.806 104129.806 0 0 0-55.839 32.313c-.859.498-1.594.682-2.316.53" clip-rule="evenodd"/>
</svg>
