<svg xmlns="http://www.w3.org/2000/svg" width="550" height="550" fill="none" viewBox="0 0 550 550">
    <path fill="#222638" fill-rule="evenodd" d="M133.859 361.943c0-.963.003-1.929.006-2.896v-.001c.007-2.076.014-4.16-.011-6.241-.026-2.165-.066-4.33-.105-6.495a651.043 651.043 0 0 1-.134-10.079c-.009-2.602-.769-4.76-2.607-6.669-2.255-2.34-4.373-4.822-6.42-7.353-1.35-1.669-2.58-2.104-4.786-1.3-9.937 3.623-21.024.332-27.693-7.948-8.467-10.523-6.433-26.662 4.33-34.85 2.473-1.882 5.159-3.236 8.08-4.218 2.376-.794 2.442-.852 2.402-3.343-.084-5.426-.208-10.851-.368-16.277-.955-32.643-1.918-65.286-2.9-97.924-.217-7.2-.472-14.398-.726-21.597-.074-2.07-.147-4.14-.219-6.211-.102-2.949-.116-2.953-3-3.788l-.01-.004c-15.416-4.475-22.809-21.383-15.483-35.515 6.829-13.174 23.577-16.788 34.823-9.493 3.916 2.54 7.1 5.692 9.138 9.83.928 1.887 2.042 2.389 3.942 2.114 4.763-.694 9.53-1.355 14.297-2.015l4.458-.618c3.023-.42 6.047-.838 9.071-1.255 5.378-.743 10.757-1.485 16.135-2.244 5.297-.747 10.594-1.5 15.891-2.253h.001c11.396-1.62 22.793-3.24 34.195-4.798 2.291-.31 3.104-1.447 3.606-3.503 3.139-12.778 15.779-20.13 27.35-18.377 12.01 1.816 19.842 11.5 20.983 21.103.946 7.992-1.389 14.821-6.491 20.77-1.263 1.476-3.013 2.577-4.703 3.641l-.004.002-.448.283c-1.474.932-1.851 2.122-1.793 3.729.257 6.9.479 13.804.652 20.708.049 1.998.906 3.215 2.7 4.152 8.569 4.474 17.112 8.998 25.655 13.522l.026.014c3.214 1.702 6.428 3.404 9.643 5.103l.032.017.002.001c14.81 7.83 29.619 15.661 44.433 23.483l7.451 3.933.006.003c13.91 7.344 27.82 14.688 41.769 21.962 1.421.742 1.688 1.599 1.705 3.002.218 20.029.471 40.053.728 60.082.015 1.046.075 2.09.136 3.174v.001c.03.526.06 1.061.086 1.611 1.701.093 2.828-.746 3.916-1.556.474-.353.941-.7 1.444-.961 1.18-.617 2.288-1.374 3.489-2.195h.001c.546-.373 1.112-.76 1.713-1.153l35.617 56.214.783 1.237 1.225 1.932 32.754 51.697c-20.515 13.543-41.494 26.158-62.558 38.823h-.001c-11.614 6.984-23.253 13.983-34.855 21.161-.073-.327-.155-.622-.23-.895-.145-.523-.267-.966-.267-1.409-.009-2.423 0-4.845.01-7.268.019-4.779.038-9.557-.086-14.333-.057-2.206.666-3.352 2.46-4.458 5.973-3.674 11.903-7.416 17.834-11.159l.005-.003.026-.016c2.4-1.514 4.8-3.029 7.203-4.539 1-.63 2.004-1.254 3.008-1.878l.002-.001a447.195 447.195 0 0 0 4.263-2.672c.307-.195.581-.446.938-.773.195-.179.414-.38.678-.608-.293-.211-.557-.417-.807-.612-.487-.381-.918-.717-1.4-.955a4580.74 4580.74 0 0 0-11.573-5.661l-.025-.013-.008-.003c-6.145-2.999-12.289-5.997-18.412-9.037-2.007-.995-3.579-.835-5.47.364-15.53 9.843-31.09 19.637-46.651 29.431l-.008.006-12.9 8.121c-3.404 2.143-6.807 4.289-10.209 6.434-11.363 7.164-22.724 14.328-34.133 21.418-2.211 1.372-3.139 2.877-2.917 5.51.337 3.925.417 7.885.355 11.828-.035 2.353.826 3.769 2.806 5.03 10.035 6.398 14.195 18.386 10.039 29.486-3.436 9.182-10.278 14.657-19.98 15.936-9.319 1.229-17.231-1.967-22.853-9.56-6.433-8.689-6.771-18.013-1.647-27.519l.008-.013c1.111-2.061 1.152-2.136-.554-4.107a24229.565 24229.565 0 0 0-26.373-30.387c-3.282-3.776-6.571-7.546-9.859-11.315l-.003-.003c-7.28-8.343-14.56-16.687-21.756-25.099-2.89-3.379-6.242-5.928-10.136-7.966-9.88-5.161-19.738-10.371-29.773-15.674l-.076-.04c-3.605-1.905-7.233-3.822-10.893-5.753zm188.562-29.171c.291.114.567.215.832.313.531.195 1.015.372 1.477.597a74716.057 74716.057 0 0 1 41.194 20.158l17.626 8.637.181.088c11.69 5.729 23.38 11.458 35.074 17.182.346.171.706.318 1.065.466.557.228 1.112.456 1.616.769 1.204.741 1.199 1.678.04 2.562-.648.493-1.348.923-2.047 1.351l-.021.013-.409.252-6.772 4.211a5699.82 5699.82 0 0 1-25.667 15.906c-1.505.924-2.278 1.954-2.251 3.774.059 3.552.069 7.105.08 10.657.007 2.368.014 4.736.036 7.103.002.414.108.826.23 1.299.062.242.128.501.187.784.286-.137.547-.256.79-.365l.001-.001h.001c.478-.216.882-.399 1.259-.629a59193.387 59193.387 0 0 0 62.307-37.624c.482-.294.916-.67 1.375-1.068v-.001c.229-.198.465-.403.716-.605-.206-.365-.393-.707-.571-1.032a33.44 33.44 0 0 0-.996-1.739 4293.64 4293.64 0 0 0-8.858-14.004c-5.359-8.456-10.721-16.91-16.082-25.365l-16.082-25.366c-2.746-4.337-5.491-8.675-8.235-13.013-4.638-7.329-9.275-14.659-13.925-21.983-.324-.514-.728-.979-1.132-1.444-.192-.221-.385-.443-.568-.67-.488 6.598-.533 12.899-.444 19.199.013.915.524 1.896 1.03 2.713 3.27 5.276 6.577 10.532 9.883 15.786l.085.135 1.807 2.873c4.09 6.508 8.183 13.016 12.275 19.523 4.1 6.517 8.199 13.035 12.296 19.554.029.046.061.092.094.138l.056.076c.132.179.267.361.276.545.018.457.036 1.061-.226 1.345-.249.271-.866.307-1.301.267-.242-.024-.47-.169-.699-.315-.116-.073-.231-.147-.349-.205l-23.902-11.695a237350.06 237350.06 0 0 0-48.133-23.549 5760.324 5760.324 0 0 0-7.901-3.854l-.007-.003-.004-.003a3080.905 3080.905 0 0 1-14.954-7.316 10.061 10.061 0 0 0-.59-.259l-.001-.001c-.858-.355-1.765-.731-1.984-1.938.846-.91 1.636-.504 2.403-.109l.138.07.132.066c1.855.904 3.705 1.814 5.557 2.723l.019.01c1.506.74 3.012 1.48 4.521 2.218l11.98 5.851.297.146c12.214 5.966 24.427 11.931 36.642 17.894l2.697 1.317.081.04c9.531 4.654 19.066 9.31 28.604 13.948.463.225.96.379 1.634.587l.001.001c.362.112.775.239 1.26.402-.222-.417-.396-.751-.542-1.031-.271-.518-.443-.848-.639-1.162-3.656-5.847-7.314-11.692-10.972-17.538-3.668-5.86-7.336-11.721-11.001-17.583-.968-1.545-2.251-2.655-3.916-3.463-11.818-5.738-23.612-11.523-35.404-17.307l-2.345-1.15a64.178 64.178 0 0 1-2.688-1.423l-.001-.001h-.001c-.416-.228-.843-.463-1.289-.703 1.318-1.432 2.388-.892 3.401-.382l.267.134c2.087 1.016 4.17 2.038 6.253 3.06l.012.007c2.783 1.366 5.565 2.731 8.356 4.081.884.428 1.795.797 2.72 1.17.426.172.855.345 1.285.526.715-2.695.164-53.111-.609-56.064-.361.193-.719.377-1.072.559h-.001c-.776.399-1.531.786-2.248 1.235-7.154 4.496-14.306 8.998-21.458 13.499l-.012.008c-14.298 8.999-28.597 17.999-42.919 26.959-2.22 1.39-3.223 2.882-3.174 5.657.306 17.39.514 34.783.722 52.174.073 6.089.146 12.178.224 18.266.035 2.86.097 5.723.186 8.583.015.478.099.953.212 1.585v.001c.06.335.127.715.197 1.162 16.885-10.62 33.384-20.992 49.883-31.36.385-.243.786-.456 1.188-.67l.004-.002c.199-.106.399-.212.597-.322-1.425-1.328-2.42-1.914-3.459-2.42a7938.13 7938.13 0 0 0-12.096-5.902l-.013-.007a10052.9 10052.9 0 0 1-8.106-3.952l-.702-.343c-1.804-.88-3.61-1.76-5.398-2.672l-.062-.031c-.849-.435-1.761-.901-1.124-2.562zm-51.276 98.262.002-.584c.003-.964.005-1.768-.003-2.573-.102-7.509-.206-15.017-.311-22.526-.187-13.506-.375-27.012-.546-40.518-.333-26.64-.662-53.28-.902-79.92-.022-2.486-.848-3.88-3.081-5.043-11.947-6.228-23.852-12.53-35.757-18.832l-.006-.003c-4.221-2.234-8.441-4.469-12.664-6.7-15.176-8.018-30.356-16.033-45.532-24.042l-2.824-1.491-.033-.017a25118.508 25118.508 0 0 0-33.267-17.54c-.374-.197-.784-.322-1.307-.482-.278-.085-.587-.179-.94-.299-.022.507-.049.982-.074 1.435-.052.919-.099 1.747-.09 2.574a48527.035 48527.035 0 0 0 .774 70.447c.277 24.174.554 48.347.775 72.521.023 2.46.751 4.022 2.975 5.177 10.334 5.376 20.637 10.815 30.937 16.253l.015.007 6.5 3.431a60482.07 60482.07 0 0 1 32.813 17.338l.042.022.055.029 12.351 6.53a60912.351 60912.351 0 0 0 47.366 25.001c.427.227.888.388 1.518.61.346.121.742.26 1.213.438v-.004zm-16.096-312.345h-.431c0-.947.005-1.894.009-2.841.012-2.208.023-4.416-.027-6.625-.058-2.775-.36-3.024-2.997-3.335-9.701-1.154-16.645-6.127-20.726-15.034-1.07-2.33-1.283-2.508-3.832-2.157-9.275 1.27-18.55 2.57-27.821 3.88a42341.903 42341.903 0 0 0-46.846 6.642c-2.386.34-4.771.69-7.155 1.04h-.001a913.164 913.164 0 0 1-11.869 1.691c-1.617.217-2.451.892-2.758 2.509l-.059.316c-.309 1.638-.626 3.326-1.339 4.794-1.132 2.34-.564 4.005 1.052 5.856 11.866 13.577 23.698 27.185 35.529 40.79v.001l.031.035c4.586 5.274 9.172 10.548 13.76 15.82 3.306 3.8 3.325 3.788 7.486 1.163l.106-.066c13.39-8.449 26.788-16.878 40.191-25.309l2.349-1.478c1.802-1.134 3.603-2.271 5.404-3.408h.001l.002-.002c5.7-3.597 11.401-7.195 17.152-10.714 2.211-1.354 3.068-3.01 2.842-5.59-.161-1.841-.124-3.699-.086-5.557v-.001c.016-.807.033-1.615.033-2.42Zm11.943 44.444c2.484.461 68.785 35.284 71.918 37.745-.423.301-.82.59-1.202.869l-.003.002c-.808.59-1.55 1.131-2.324 1.619-12.625 7.963-25.257 15.913-37.889 23.864l-7.177 4.517c-1.754 1.105-3.512 2.206-5.269 3.308h-.001c-4.845 3.037-9.691 6.074-14.488 9.186-1.704 1.106-3.054 1.185-4.87.222a25154.295 25154.295 0 0 0-51.369-27.185c-6.764-3.574-13.529-7.148-20.293-10.724-.482-.256-.935-.57-1.511-.972-.304-.211-.642-.447-1.037-.71l21.303-13.417.177-.111c14.051-8.85 27.967-17.614 41.852-26.357 1.128.817 1.091 1.755 1.057 2.621a7.738 7.738 0 0 0-.009.567c.219 6.712.416 13.423.613 20.135l.27 9.156c.008.223.012.447.017.672.017.866.034 1.737.214 2.569.092.427.393.811.696 1.195.137.174.274.349.392.528l.75-.227c0-.309.003-.618.006-.928v-.001c.006-.62.012-1.24-.006-1.859-.866-29.193-1.731-58.382-2.615-87.575l-.002-.081c-.158-5.234-.158-5.244 4.93-6.468.292-.07.593-.105.995-.151.234-.027.501-.058.821-.102.517 7.558.7 15.045.881 22.505l.001.003c.079 3.245.158 6.484.264 9.722.196 5.993.364 11.988.532 17.982v.003c.136 4.853.272 9.707.423 14.56.249 8.036.518 16.068.788 24.14v.007l.273 8.159c1.114.137 1.665-.32 1.762-1.181.098-.855.072-1.727.046-2.595l-.01-.358c-.149-5.28-.301-10.559-.453-15.837v-.002c-.152-5.272-.304-10.544-.453-15.818a62.952 62.952 0 0 1-.006-2.087c.003-.364.006-.733.006-1.11m2.398 102.999c-.545-.274-1.08-.54-1.606-.802h-.001a141.122 141.122 0 0 1-3.237-1.644c-7.721-4.079-15.439-8.16-23.157-12.241l-.007-.004-.003-.001a42589.3 42589.3 0 0 0-37.79-19.966c-8.452-4.459-16.914-8.902-25.375-13.344l-.004-.003c-5.855-3.073-11.709-6.147-17.56-9.226-1.776-.937-1.834-1.856-.12-2.962a312.122 312.122 0 0 1 5.267-3.297c1.175-.726 2.351-1.451 3.52-2.186 21.196-13.351 42.384-26.707 63.576-40.067 2.104-1.326 4.205-2.656 6.306-3.987 4.647-2.942 9.295-5.885 13.976-8.778 1.545-.954 2.167-2.095 2.02-3.876-.115-1.397-.152-2.8-.188-4.202l-.001-.002c-.02-.767-.04-1.534-.073-2.301-.038-.89-.097-1.778-.157-2.685v-.008c-.03-.448-.059-.9-.087-1.36-2.562.75-116.976 72.714-119.205 74.903 1.286 1.378 2.938 2.156 4.577 2.927.562.265 1.122.529 1.665.815 13.05 6.923 26.117 13.813 39.183 20.704l.01.005A32210.186 32210.186 0 0 1 210.204 248c18.945 10.005 37.892 20.011 56.793 30.098 2.393 1.279 4.173 1.203 6.455-.257 9.198-5.885 18.448-11.692 27.697-17.497l.005-.004c3.863-2.425 7.725-4.849 11.583-7.279 26.201-16.504 52.401-33.016 78.597-49.528.935-.591 1.858-1.199 2.796-1.818h.001c.452-.298.907-.598 1.368-.9-2.078-2.073-126.558-67.763-129.168-68.207-.027.241-.062.481-.097.721-.073.51-.146 1.017-.143 1.521.008.954.041 1.908.073 2.862v.001c.052 1.512.104 3.024.06 4.534-.062 2.083.906 3.188 2.673 4.116a9512.507 9512.507 0 0 1 29.483 15.554l.007.003c5.518 2.92 11.036 5.839 16.557 8.752 11.278 5.95 22.562 11.891 33.845 17.832l.015.007c6.95 3.66 13.901 7.32 20.85 10.981 2.273 1.199 2.335 2.14.213 3.472-3.114 1.957-6.23 3.909-9.347 5.861l-.012.007c-3.399 2.129-6.797 4.257-10.19 6.391a194531.803 194531.803 0 0 0-48.017 30.224l-.071.045-24.027 15.126c-1.955 1.231-3.917 2.456-5.892 3.69l-.008.005-2.904 1.815zm111.812 98.333a31.206 31.206 0 0 0-.009-.437l-.008-.438c-.911-.442-1.82-.886-2.73-1.331l-.003-.001a468.981 468.981 0 0 0-7.564-3.641c-1.204-.56-2.245.098-3.257.738l-.042.026c-2.44 1.545-4.887 3.08-7.334 4.615a2359.713 2359.713 0 0 0-5.44 3.417l-11.726 7.396-.005.003a52396.397 52396.397 0 0 1-56.116 35.363c-.595.373-1.621.75-2.06.488-.484-.293-.698-1.319-.72-2.038-.118-3.65-.16-7.303-.202-10.953v-.002l-.006-.584c-.176-15.096-.349-30.192-.522-45.288-.173-15.096-.346-30.192-.522-45.288-.016-1.429-.029-2.857-.043-4.286-.037-3.998-.074-7.997-.179-11.991-.044-1.688.533-2.767 1.998-3.597 1.522-.859 2.994-1.804 4.466-2.749l.001-.001c.52-.333 1.04-.667 1.563-.997l25.562-16.11 25.507-16.076.017-.011.003-.002c13.509-8.511 27.017-17.023 40.548-25.503.239-.15.478-.363.722-.579.703-.624 1.44-1.277 2.284-.531.679.599.741 2.117.759 3.227.147 9.678.27 19.358.393 29.038v.037c.066 5.207.132 10.415.202 15.623.009.637.078 1.275.157 1.996.036.334.074.685.109 1.063.322-.138.6-.246.847-.342.438-.17.775-.301 1.076-.488.8-.503 1.591-1.022 2.381-1.542 1.437-.944 2.873-1.887 4.368-2.729 1.785-1.008 2.348-2.345 2.322-4.352-.193-13.289-.349-26.578-.506-39.867-.079-6.642-.157-13.284-.24-19.926-.009-.598-.092-1.196-.193-1.922v-.003a52.036 52.036 0 0 1-.171-1.316c-.512.291-.971.546-1.392.781-.784.436-1.44.8-2.076 1.199-8.522 5.357-17.042 10.723-25.561 16.088l-6.997 4.407a552103.47 552103.47 0 0 0-63.355 39.902c-2.297 1.447-4.591 2.897-6.886 4.347l-.003.002c-5.711 3.609-11.421 7.217-17.162 10.774-1.532.95-2.256 2.06-2.083 3.845.069.722.059 1.455.05 2.187-.005.356-.01.713-.005 1.067l.474 41.369.476 41.513.001.05c.221 19.421.443 38.843.683 58.26.008.733.087 1.463.183 2.362l.001.001c.051.48.108 1.009.162 1.611 35.345-22.254 70.184-44.192 105.01-66.122l.723-.455 2.066-1.302zM173.053 180.266c.238.306.504.648.817 1.042-.605.411-1.168.802-1.706 1.175-1.039.722-1.983 1.377-2.954 1.989l-1.462.922-.005.003c-11.357 7.16-22.716 14.321-34.115 21.412-1.274.795-1.634 1.625-1.612 3.095.309 22.094.556 44.189.802 66.283l.046 4.153c.009.612-.05 1.224-.125 2.01-.039.405-.083.856-.123 1.378-.35-.345-.644-.632-.899-.882a58.231 58.231 0 0 1-1.157-1.152c-3.042-3.148-6.278-6.047-10.616-7.259-2.118-.591-2.624-1.914-2.678-3.947-.436-16.223-.925-32.443-1.415-48.663v-.019l-.325-10.783c-.624-20.816-1.255-41.629-1.887-62.442l-.001-.03-.004-.157-.621-20.466c-.088-2.924-.084-2.926 2.47-4.134l.074-.035a35.24 35.24 0 0 0 2.017-1.063v-.001c.543-.301 1.087-.603 1.642-.881 2.046-1.025 2.326-.963 3.996.951 2.216 2.541 4.423 5.092 6.63 7.644 1.471 1.7 2.942 3.401 4.416 5.098 6.271 7.221 12.544 14.44 18.818 21.659 6.276 7.222 12.552 14.444 18.825 21.667.367.425.712.868 1.15 1.43v.001zm211.941 98.853c1.412 3.477 66.96 106.622 68.62 108.141 4.418-2.016 22.964-14.115 24.429-15.98-.104-.199-.207-.407-.311-.617v-.001c-.232-.468-.471-.952-.759-1.402-8.329-13.169-16.668-26.329-25.006-39.489-13.458-21.241-26.915-42.482-40.391-63.71-.366-.58-.817-1.104-1.31-1.677h-.001a38.841 38.841 0 0 1-.753-.894l-11.346 7.233zM121.329 117.716c.238.332.454.65.66.954.398.587.762 1.123 1.183 1.608 16.081 18.551 32.176 37.092 48.271 55.633 2.706 3.117 5.718 3.384 9.036.8.042-.034.07-.087.143-.225.051-.095.124-.232.239-.432-9.46-11.017-19.025-22.001-28.607-33.005-8.812-10.12-17.64-20.257-26.414-30.452.222-.415.451-.823.678-1.23 1.417-2.533 2.786-4.981 2.128-8.209l-.924.072c-.932.072-1.805.14-2.681.221-1.181.106-2.233-.018-3.099-1.528 17.054-2.448 34.04-4.826 51.01-7.201 18.666-2.613 37.311-5.224 56.003-7.921l-.665-6.163-.09-.83-46.451 6.523-.052.007-60.732 8.53c.514-2.113 2.009-2.325 3.47-2.532.95-.135 1.885-.267 2.528-.918-1.971-7.26-11.655-13.777-20.335-13.773-10.931 0-19.98 6.576-22.79 16.784-2.62 9.519.546 20.455 11.05 26.6 8.122 4.75 19.75 3.663 26.441-3.317zm10.825 172.978c.63-2.326.022-4.156-1.155-5.821-2.308-3.267-5.217-5.914-8.751-7.796-.812-.433-1.714-.697-2.539-.939v-.001a24.42 24.42 0 0 1-1-.308c-.382.326-.568.791-.741 1.224-.317.791-.589 1.473-1.945.987-.018-.226-.04-.458-.063-.693a22.95 22.95 0 0 1-.114-1.553c-.114-4.027-.222-8.054-.33-12.081v-.001c-.148-5.536-.296-11.073-.461-16.61-.586-19.834-1.183-39.669-1.781-59.506v-.015l-.461-15.301c-.435-14.395-.879-28.785-1.327-43.179-.107-3.362-.174-3.415-3.628-3.268l-.198.008h-.001c-.131.005-.262.009-.391.018-2.78.182-2.944.307-2.86 3.215.644 22.377 1.297 44.76 1.967 67.137.317 10.65.637 21.299.956 31.949l.001.012v.011c.482 16.059.964 32.118 1.436 48.179.013.424-.094.852-.195 1.256-.045.18-.088.356-.12.524-1.351.089-1.487-.685-1.62-1.435-.093-.532-.185-1.053-.706-1.246-11.331 1.447-19.59 14.27-17.201 26.808 1.23 6.452 4.733 11.54 10.274 14.905 7.926 4.809 16.144 4.907 23.967.422 2.713 4.165 5.954 7.544 9.502 10.763.164-1.116.186-2.192.208-3.244.017-.833.034-1.65.12-2.462.427-4.067-1.722-6.606-5.119-8.862l.134-.143c2.923-3.123 5.885-6.287 4.324-11.041-.548-.281-1.19-.272-1.829-.263-1.137.015-2.259.031-2.802-1.593l2.164-.433.017-.003.02-.004c.825-.166 1.641-.329 2.465-.492v-6.674h-5.363c.795-1.606 2.118-1.827 3.454-2.051.574-.096 1.15-.193 1.687-.4zm41.942-77.139.002.001c1.167.658 2.145 1.209 3.135 1.734 6.454 3.408 12.91 6.813 19.365 10.218l.02.01c6.448 3.4 12.895 6.801 19.341 10.205l9.076 4.79.002.001c13.982 7.378 27.965 14.756 41.915 22.195 1.732.924 2.979.821 4.582-.222 4.37-2.848 8.789-5.619 13.208-8.389l.002-.001c1.346-.843 2.691-1.687 4.035-2.532l20.4-12.829c15.742-9.898 31.483-19.796 47.221-29.702.533-.337 1.031-.731 1.6-1.181.27-.214.556-.441.869-.68a49.561 49.561 0 0 1-.944-.643c-.575-.397-1.053-.728-1.56-.995-4.874-2.581-9.754-5.153-14.634-7.726l-.013-.006-.088-.047c-2.591-1.365-5.181-2.731-7.771-4.098-6.588-3.478-13.175-6.96-19.762-10.441-6.58-3.478-13.16-6.957-19.741-10.431a8456.897 8456.897 0 0 0-25.139-13.232c-.398-.209-.838-.332-1.369-.48-.27-.076-.564-.158-.887-.261.247 1.54 1.132 1.947 1.938 2.318.152.07.301.138.442.213a54496.816 54496.816 0 0 0 60.93 32.23c1.734.916 3.472 1.821 5.211 2.727h.002a862.55 862.55 0 0 1 5.794 3.036c1.367.724 1.66 1.589.666 2.522-1.096 1.029-2.124 2.133-3.151 3.236-2.323 2.495-4.646 4.99-7.767 6.634-1.762.927-3.437 2.017-5.113 3.106l-.001.001c-.643.418-1.285.836-1.932 1.244a32496.07 32496.07 0 0 1-7.682 4.843l-.042.027-.006.004c-15.527 9.79-31.055 19.58-46.554 29.416-1.296.822-2.184.724-3.472.036-20.291-10.794-40.59-21.561-60.939-32.244l-.86-.45c-5.144-2.692-10.254-5.367-14.018-9.997a3.023 3.023 0 0 0-.421-.393c-.08-.066-.161-.132-.237-.202-1.931-1.816-1.9-2.34.28-3.712l25.929-16.306 25.913-16.297c2.289-1.439 4.572-2.885 6.855-4.331l.007-.004c1.714-1.085 3.427-2.17 5.143-3.253l.066-.041c1.005-.634 2.003-1.264.982-3.089a924322.955 924322.955 0 0 0-82.983 52.255v.004c.8.445 1.507.844 2.155 1.209m198.57 20.197c.452-.258.907-.517 1.363-.782.879 2.542 1.871 74.505 1.144 77.642-1.042-.254-.992-1.01-.946-1.692.01-.152.02-.301.018-.439-.08-4.56-.13-9.122-.18-13.683-.02-1.754-.039-3.509-.06-5.263l-.426-36.705c-.003-.182.002-.364.007-.546a6.75 6.75 0 0 0-.016-.933c-.124-1.114-.844-1.625-1.86-1.283-1.297.439-2.616.802-3.936 1.165-3.031.834-6.061 1.668-8.812 3.422-11.592 7.393-23.228 14.714-34.865 22.035-3.976 2.502-7.953 5.004-11.928 7.509-1.162.732-2.323 1.467-3.484 2.202l-.016.01-.001.001c-3.75 2.373-7.502 4.747-11.284 7.066-1.665 1.026-2.446 2.211-2.415 4.289.198 12.401.367 24.803.537 37.206v.01c.176 12.852.351 25.705.559 38.557.027 1.631.507 3.274.977 4.884.084.289.168.576.249.862.44 1.541.963 3.06 1.51 4.65l.001.004c.254.736.513 1.487.771 2.263.262-.079.514-.138.754-.194.471-.111.892-.21 1.239-.427 12.706-8.015 25.403-16.045 38.101-24.075l.33-.209 12.35-7.809.17-.108h.001c.862-.547 1.728-1.095 2.653-1.503.273-.121.623-.062 1.04.008.213.035.444.074.691.094-2.753 2.628-68.287 43.707-70.676 44.275-.023-.316-.05-.628-.078-.937-.058-.655-.116-1.297-.122-1.94-.105-8.998-.208-17.997-.311-26.995v-.001c-.282-24.745-.565-49.49-.901-74.236-.031-2.384.768-3.729 2.758-4.977a31846.678 31846.678 0 0 0 60.113-37.804c7.348-4.628 14.695-9.256 22.044-13.882.955-.601 1.939-1.162 2.937-1.731m-97.02 223.392c.018-.652.037-1.312.478-1.804 6.894 2.329 14.067 13.818 10.857 25.528-3.543 12.916-16.326 19.381-27.732 16.606-12.144-2.953-20.002-14.692-17.205-27.883 2.371-11.198 13.764-18.484 21.867-17.454.509.607.514 1.401.519 2.219.008 1.264.016 2.587 1.887 3.371.018-.372.042-.721.064-1.054v-.002c.044-.659.084-1.258.069-1.857-.084-3.387-.177-6.775-.27-10.164-.077-2.821-.154-5.641-.227-8.461a80.457 80.457 0 0 1-.005-2.166v-.002c.002-.481.005-1.015.005-1.633a145.8 145.8 0 0 0 2.035.987h.001c1.607.768 3.029 1.448 4.349 2.29.528.337.626 1.585.661 2.424.191 4.363.347 8.728.504 13.094v.002c.062 1.743.125 3.485.189 5.228.023.636.062 1.271.104 1.95v.004c.021.353.044.717.065 1.101 1.728-.276 1.756-1.288 1.785-2.324m1.172-375.787c.355-12.379-9.884-23.083-22.604-23.345-12.219-.253-23.55 9.022-23.625 23.194-.067 11.815 8.662 22.835 22.732 23.195 12.93.333 23.395-10.017 23.497-23.04v-.004Zm-68.687 319.898c-.105.124-.209.25-.314.376l-.312.374c14.799 17.103 29.61 34.193 44.191 50.825 1.198-.301 2.336-.598 3.435-.884l.002-.001c2.397-.624 4.606-1.199 6.838-1.668l.18-.038c2.312-.486 2.438-.512 2.395-2.946a286.14 286.14 0 0 0-.127-4.34v-.001c-.095-2.795-.191-5.59-.126-8.384.066-2.731-.911-4.285-3.361-5.563-10.327-5.381-20.613-10.839-30.899-16.297l-.012-.006c-4.52-2.399-9.041-4.797-13.565-7.189-1.838-.971-3.692-1.91-5.545-2.849-.927-.47-1.855-.94-2.78-1.414zm159.134-200.538h-.001c-.579-.404-1.04-.725-1.535-.985-6.656-3.531-13.32-7.047-19.983-10.563l-6.679-3.525-15.168-8.014a72510.375 72510.375 0 0 0-30.32-16.015 9341.145 9341.145 0 0 0-24.074-12.668c-.528-.277-1.086-.492-1.746-.746a52.454 52.454 0 0 1-1.166-.461c0 .675.007 1.295.013 1.879v.002c.014 1.215.026 2.268-.031 3.318-.111 2.127.759 3.445 2.699 4.418 3.631 1.825 7.215 3.739 10.799 5.654h.001l.001.002c1.456.777 2.912 1.555 4.371 2.327l.199.105c20.584 10.87 41.168 21.739 61.757 32.609l2.404 1.272c3.466 1.837 6.932 3.673 10.445 5.419.875.435 2.22.737 3.01.373 1.416-.659 2.736-1.523 4.179-2.467h.001c.598-.391 1.217-.796 1.872-1.205l.004-.009c-.4-.266-.743-.505-1.052-.72M255.337 149.48a7.39 7.39 0 0 1-.604-.028c-.285-.021-.473-.035-.599.046-21.701 13.637-43.397 27.281-65.094 40.925l-.066.042-25.016 15.732c-.287.18-.604.312-.919.443-.15.062-.299.125-.445.192 1.287 1.148 2.401 1.826 3.434 2.454l.001.001c.324.197.641.39.952.59 1.892 1.226 3.552 1.093 5.452-.155 3.581-2.353 7.217-4.623 10.854-6.893 1.469-.916 2.937-1.833 4.402-2.755l12.667-7.975.073-.046c11.111-6.995 22.221-13.99 33.33-20.99 4.762-2.998 9.519-6.003 14.276-9.009l.01-.006c1.827-1.154 3.653-2.308 5.481-3.461.091-.058.183-.115.276-.171.836-.513 1.68-1.031 1.664-2.218-.02-1.703-.059-3.406-.098-5.123l-.001-.045-.034-1.55zm111.746 207.233a73.03 73.03 0 0 0-1.567-.754c-1.042-.491-1.996-.942-2.886-1.493-1.901-1.177-3.481-1.052-5.426.182-13.661 8.67-27.359 17.28-41.057 25.89-4.569 2.872-9.138 5.744-13.706 8.618-1.215.764-2.431 1.526-3.647 2.288l-.01.006h-.001c-3.372 2.113-6.745 4.225-10.084 6.39-.945.613-2.229 1.488-2.384 2.407-.395 2.353-.395 4.813.12 7.241 2.553-.741 78.539-48.542 80.648-50.766zM249.671 453.19v-.001c-.292-.473-.522-.848-.807-1.176l-3.194-3.671-.014-.017c-13.862-15.936-27.725-31.872-41.641-47.763-1.141-1.301-2.628-2.398-4.142-3.263-2.962-1.688-5.995-3.248-9.029-4.809-.646-.333-1.293-.665-1.938-.999-.36-.186-.767-.28-1.174-.373l-.002-.001a10.808 10.808 0 0 1-.551-.136l-.004.005-.002.003c-.104.157-.209.314-.314.476 16.57 19.06 33.143 38.121 49.861 57.349l8.414 9.677c1.199-1.048 2.269-1.98 3.351-2.922l.049-.043 1.688-1.471h-.004c-.212-.323-.388-.608-.547-.865m133.933-146.676c1.82 2.867 1.759 5.885 1.226 9.484-.621-.299-1.225-.579-1.813-.851-1.492-.692-2.88-1.335-4.181-2.124-.609-.368-.999-1.438-1.097-2.238-.167-1.354-.174-2.733-.18-4.106-.002-.306-.003-.611-.006-.915-.075-6.23-.146-12.46-.217-18.69l-.001-.14c-.198-17.389-.395-34.777-.679-52.166-.049-2.757.759-4.507 3.188-5.665.805-.387 1.567-.863 2.467-1.426l.001-.001c.454-.284.944-.59 1.492-.918.057.488.117.916.171 1.304v.001c.105.755.189 1.361.198 1.968.098 8.215.19 16.431.282 24.647v.006c.073 6.574.147 13.147.224 19.72.018 1.43-.08 2.691-1.51 3.583-.519.324-.91 1.274-.91 1.94-.04 7.695-.044 15.385.093 23.075.018 1.185.6 2.477 1.252 3.512m-85.41 68.098c.032.303.064.606.091.909.114-.005.229-.008.344-.012.117-.003.233-.006.349-.011.01-.144.022-.289.034-.434l.028-.314c.05-.568.101-1.135.098-1.703-.018-3.547-.062-7.099-.107-10.647l-.1-7.931v-.036c-.233-18.439-.465-36.877-.721-55.316-.022-1.718.404-2.957 1.989-3.925 3.672-2.247 7.307-4.557 10.941-6.867l.002-.001.003-.002c1.935-1.23 3.87-2.459 5.81-3.679 6.503-4.088 13.007-8.172 19.511-12.256l.048-.03c8.499-5.338 16.999-10.675 25.494-16.019.387-.244.722-.57 1.057-.896.165-.16.33-.321.502-.472-.817-.089-1.324.173-1.803.475l-3.096 1.943-.029.019c-9.809 6.156-19.614 12.31-29.416 18.475-3.09 1.945-6.178 3.893-9.265 5.841l-.004.003c-6.911 4.36-13.822 8.721-20.763 13.035-1.643 1.022-2.273 2.22-2.144 4.112.147 2.15.169 4.311.191 6.471.005.502.01 1.005.017 1.507l.291 24.621.001.074c.16 13.653.321 27.306.49 40.96.009.704.083 1.405.157 2.106M197.622 210.765l-.18.331-.18.331c4.825 2.788 9.766 5.365 14.707 7.943 2.661 1.388 5.322 2.775 7.964 4.196 5.082 2.733 10.197 5.406 15.312 8.079h.001c2.655 1.388 5.311 2.775 7.961 4.171 2.333 1.229 4.659 2.472 6.985 3.716l.001.001c5.23 2.797 10.461 5.595 15.778 8.222l.263-.511.101-.199c-22.906-12.095-45.812-24.189-68.713-36.284zM390.553 318.12a21.278 21.278 0 0 1-.592-1.196c-.584-1.248-1.085-2.318-2.418-2.858-.44 3.197-.267 3.464 3.01 4.054m-257.564-6.438c-2.416 2.007-2.407 2.114 0 3.588zm125.469 100.393c-.394-.147-.741-.264-1.052-.369h-.001c-.564-.191-1.014-.343-1.429-.563-19.276-10.164-38.55-20.339-57.823-30.514l-12.804-6.76c-3.224-1.702-6.446-3.406-9.668-5.11l-.012-.006c-8.713-4.609-17.426-9.217-26.169-13.776-1.593-.831-1.926-1.91-1.944-3.548-.378-32.321-.797-64.642-1.216-96.967l-.116-8.945a2089.65 2089.65 0 0 0-.063-4.336c-.039-2.597-.079-5.195-.102-7.794-.026-2.868.547-3.214 3.037-1.896 6.51 3.443 13.019 6.887 19.528 10.332l.032.016a72311.024 72311.024 0 0 0 41.455 21.924l.003.001.004.002c14.69 7.769 29.383 15.538 44.118 23.225 2.215 1.159 3.077 2.482 3.099 5.009.266 27.296.601 54.593.935 81.887l.001.04v.036l.249 20.396c.022 1.812.047 3.624.073 5.436.042 3.019.084 6.038.109 9.057.006.611-.055 1.222-.128 1.951-.038.383-.079.798-.116 1.263zm-2.088-15.601c-.029.508-.062 1.074-.091 1.728-1.35-.699-2.629-1.358-3.86-1.992-2.463-1.269-4.732-2.438-6.988-3.631a71196.026 71196.026 0 0 1-31.177-16.48l-17.712-9.365c-3-1.586-5.999-3.177-8.998-4.767l-.006-.003-.005-.003c-8.491-4.502-16.984-9.006-25.525-13.418-2.362-1.221-3.121-2.735-3.139-5.332-.149-20.67-.399-41.344-.648-62.014v-.002l-.08-6.613c-.074-6.086-.165-12.172-.256-18.259v-.003c-.068-4.561-.136-9.123-.197-13.684-.012-.74.031-1.479.082-2.357v-.001c.028-.471.057-.982.082-1.554.488.212.926.393 1.326.558h.001c.758.313 1.387.573 1.985.89a27680.515 27680.515 0 0 1 38.193 20.144c8.947 4.726 17.894 9.457 26.84 14.187l13.427 7.098c1.191.631 2.379 1.269 3.567 1.907h.001c3.069 1.648 6.137 3.295 9.268 4.815 2.18 1.057 2.881 2.496 2.903 4.867.176 20.693.415 41.386.654 62.077v.006c.07 6.029.14 12.057.208 18.085.029 2.656.061 5.311.093 7.966v.005c.052 4.245.104 8.491.142 12.737.006.737-.037 1.476-.09 2.408m-104.916-43.775c.028.144.044.248.057.326.02.123.03.182.054.233l.032.063c.078.154.158.312.279.426.213.2.457.382.715.519a294877.76 294877.76 0 0 0 100.89 53.276c.532.28 1.088.515 1.643.75h.001c.167.071.334.141.5.213.08.036.196.014.285-.009.057-.013.111-.04.257-.114.092-.046.22-.11.409-.201 0-.457-.005-.932-.009-1.419v-.001a78.426 78.426 0 0 1 .022-3.584c.062-1.789-.706-2.886-2.309-3.72-6.911-3.592-13.793-7.235-20.676-10.88l-4.956-2.622-18.603-9.835-.323-.17c-12.246-6.475-24.492-12.949-36.738-19.419a2356.83 2356.83 0 0 0-7.221-3.791 2514.157 2514.157 0 0 1-5.868-3.078c-.982-.515-1.945-.99-3.051-.297a879.388 879.388 0 0 1-3.714 2.301c-.564.349-1.123.693-1.671 1.033zm-1.962-2.34.83.471c.445-.261.886-.528 1.328-.794l.001-.001c1.048-.633 2.096-1.266 3.186-1.816 1.532-.773 2.109-1.962 2.043-3.592-.017-.43-.016-.862-.016-1.293a50.15 50.15 0 0 0-.002-.776c-.321-29.298-.646-58.591-.972-87.889v-.03l-.009-.814-.019-1.63c-.046-4.092-.092-8.18-.19-12.272l-.001-.059c-.022-.85-.051-1.959-.554-2.441-1.834-1.74-4.085-2.815-6.971-3.676.453 39.227.897 77.917 1.341 116.608zm11.457-94.074c-.19.06-.429.137-.744.217 0 .39-.001.77-.003 1.143-.003.727-.006 1.428.003 2.129l.188 15.272c.282 22.912.565 45.825.793 68.737.018 1.701.72 2.376 2.078 3.091a31988.498 31988.498 0 0 1 58.811 31.01l6.329 3.342c1.873.99 3.738 1.994 5.604 2.998a771.505 771.505 0 0 0 5.607 3c1.58.835 2.557.649 2.806-.732.252-1.405.592-2.789.932-4.174.691-2.809 1.381-5.619 1.336-8.596-.368-25.046-.634-50.092-.87-75.138-.013-1.496-.457-2.344-1.767-3.028a6077.473 6077.473 0 0 1-28.269-14.856c-3.227-1.704-6.456-3.404-9.686-5.105-9.678-5.096-19.358-10.193-28.982-15.39-3.166-1.71-6.563-2.458-9.964-3.207a103.66 103.66 0 0 1-3.569-.829c-.151-.038-.327.018-.633.116m1.433 4.171c.028-.331.059-.696.088-1.113l.004.009c.342.121.662.222.963.317.609.192 1.141.36 1.626.616 7.505 3.959 15.008 7.923 22.512 11.887a22822.436 22822.436 0 0 0 49.198 25.937c1.86.977 2.486 2.189 2.495 4.191.038 7.034.129 14.067.219 21.101.038 2.93.076 5.86.11 8.79.191 16.179.377 32.358.546 48.538.006.816-.047 1.632-.11 2.59-.031.48-.065.996-.094 1.565-.748-.367-1.444-.703-2.105-1.022-1.288-.621-2.44-1.176-3.57-1.775a53390.77 53390.77 0 0 1-30.816-16.313c-7.683-4.069-15.366-8.139-23.05-12.205l-2.259-1.198c-4.04-2.143-8.079-4.286-12.162-6.341-1.998-1.008-2.819-2.358-2.841-4.644-.168-19.146-.384-38.292-.6-57.438-.082-7.294-.164-14.589-.244-21.883-.006-.498.037-.996.09-1.609" clip-rule="evenodd"/>
</svg>
