<svg xmlns="http://www.w3.org/2000/svg" width="20" height="20" fill="none" viewBox="0 0 20 20">
    <path fill="#017cee" d="m.323 19.92 9.575-9.816a.18.18 0 0 0 .022-.226c-.583-.813-1.657-.954-2.055-1.5C6.685 6.76 6.385 5.844 5.879 5.9a.16.16 0 0 0-.092.048l-3.46 3.546C.338 11.535.053 16.026 0 19.787a.188.188 0 0 0 .323.133"/>
    <path fill="#00ad46" d="m19.92 19.678-9.815-9.576a.18.18 0 0 0-.227-.022c-.813.583-.954 1.657-1.5 2.055-1.618 1.18-2.534 1.48-2.477 1.986a.15.15 0 0 0 .048.092l3.546 3.46c2.04 1.99 6.531 2.275 10.292 2.327a.188.188 0 0 0 .133-.323"/>
    <path fill="#04d659" fill-rule="evenodd" d="M9.495 17.672C8.381 16.585 7.864 14.435 10 10c-3.472 1.552-4.688 3.591-4.09 4.175z" clip-rule="evenodd"/>
    <path fill="#00c7d4" d="m19.678.08-9.576 9.816a.18.18 0 0 0-.022.226c.583.813 1.657.954 2.055 1.5 1.18 1.618 1.48 2.534 1.986 2.478a.15.15 0 0 0 .092-.049l3.46-3.546C19.662 8.465 19.947 3.974 20 .213a.188.188 0 0 0-.323-.133"/>
    <path fill="#11e1ee" fill-rule="evenodd" d="M17.672 10.505C16.585 11.619 14.435 12.136 10 10c1.552 3.472 3.591 4.689 4.175 4.09z" clip-rule="evenodd"/>
    <path fill="#e43921" d="m.08.323 9.816 9.575c.061.06.156.072.226.022.813-.583.954-1.657 1.5-2.055 1.619-1.18 2.534-1.48 2.478-1.986a.16.16 0 0 0-.049-.092l-3.546-3.46C8.465.338 3.974.053.213 0A.188.188 0 0 0 .08.323"/>
    <path fill="#ff7557" fill-rule="evenodd" d="M10.505 2.328C11.619 3.415 12.136 5.565 10 10c3.472-1.552 4.688-3.591 4.09-4.175z" clip-rule="evenodd"/>
    <path fill="#0cb6ff" fill-rule="evenodd" d="M2.328 9.495C3.415 8.381 5.565 7.864 10 10 8.45 6.528 6.41 5.312 5.825 5.91z" clip-rule="evenodd"/>
    <path fill="#4a4848" d="M10.007 10.427a.428.428 0 1 0-.01-.857.428.428 0 0 0 .01.857"/>
</svg>
