<svg xmlns="http://www.w3.org/2000/svg" width="20" height="20" fill="none" viewBox="0 0 20 20">
    <path fill="#86da2f" d="M18.357 11.512c.85-.065 1.535.49 1.6 1.338.065.882-.555 1.6-1.404 1.665a1.495 1.495 0 0 1-1.6-1.37c-.065-.882.523-1.535 1.404-1.633"/>
    <path fill="#24c2ff" d="M8.041 18.466c0-.85.653-1.502 1.437-1.502.783 0 1.534.718 1.534 1.534 0 .784-.653 1.47-1.404 1.502-.947 0-1.567-.588-1.567-1.534"/>
    <path fill="#ffcb12" d="M10.359 8.933c-.13.065-.196-.033-.229-.13-1.207-2.253-.848-5.093 1.274-6.791.555-.457 1.6-.555 2.056-.098.196.163.229.36.261.588.066.49.164.979.49 1.37.36.425.816.588 1.339.556.457 0 .914-.066 1.208.457.163.294.098 1.436-.164 1.665-.13.098-.228.032-.326 0-.75-.294-1.534-.294-2.318-.163-.261.032-.392-.033-.392-.327-.032-.49-.13-.947-.391-1.371-.49-.882-1.404-.914-1.992-.098-.49.653-.62 1.436-.75 2.22-.131.686-.099 1.404-.066 2.122"/>
    <path fill="#86da2f" d="M11.175 9.423c-.065-.098-.033-.196.065-.262 1.861-1.697 4.636-2.024 6.79-.359.556.457.915 1.404.621 1.96a.8.8 0 0 1-.49.39c-.457.197-.881.393-1.175.817s-.359.914-.228 1.437c.098.424.26.88-.164 1.273-.228.228-1.338.424-1.632.228-.13-.098-.098-.196-.065-.326.098-.816-.098-1.567-.392-2.285-.098-.262-.065-.392.196-.458.457-.13.881-.359 1.208-.685.718-.686.555-1.567-.392-1.959-.75-.326-1.534-.261-2.285-.196-.718.033-1.404.229-2.057.425"/>
    <path fill="#24c2ff" d="M10.75 10.271c.099-.098.164-.065.262 0 2.155 1.306 3.265 3.885 2.285 6.4-.261.652-1.11 1.305-1.73 1.142-.261-.066-.392-.196-.522-.36-.294-.391-.62-.75-1.11-.913-.523-.164-.98-.066-1.437.195-.392.229-.783.523-1.273.229-.294-.163-.784-1.175-.686-1.502.066-.13.196-.13.327-.13.816-.131 1.469-.523 2.09-1.045.195-.163.358-.163.522.065.26.392.587.718 1.012.947.848.49 1.665.065 1.762-.914.098-.816-.195-1.534-.457-2.253a13 13 0 0 0-1.044-1.86"/>
    <path fill="#0069da" d="M9.706 10.467c-.13.653-.424 1.274-.816 1.829-1.175 1.762-2.873 2.48-4.962 2.285-.751-.066-1.371-.686-1.437-1.306a.79.79 0 0 1 .196-.653c.229-.294.425-.555.522-.914.196-.718-.065-1.306-.587-1.828-.718-.719-.62-1.371.228-1.894.098-.065.229-.13.36-.196.195-.098.359-.098.424.13.294.752.881 1.307 1.534 1.764.229.196.229.326.033.555-.392.424-.62.946-.653 1.534-.065.718.36 1.175 1.077 1.175.457 0 .882-.163 1.273-.359 1.013-.522 1.796-1.273 2.547-2.056.098-.033.13-.098.261-.066"/>
    <path fill="#ff4649" d="M4.352 3.612c.065 0 .229.032.392.065 1.208.228 1.959-.196 2.35-1.339.262-.75.817-.979 1.535-.587.032 0 .032.032.065.032.75.425.75.49.294 1.143-.392.522-.588 1.11-.686 1.73-.065.36-.196.425-.522.294a2.34 2.34 0 0 0-1.632 0c-.62.196-.882.751-.686 1.371.261.816.98 1.176 1.6 1.6s1.338.653 2.024.947c.098.032.26.032.228.196-.032.097-.163.097-.294.097-1.469.066-2.872-.163-4.015-1.142-1.077-.882-1.86-1.959-1.73-3.46.098-.49.457-.85 1.077-.947"/>
    <path fill="#0069da" d="M1.675 12.785c-.783.098-1.567-.555-1.632-1.371-.066-.784.587-1.567 1.338-1.632.85-.098 1.633.49 1.698 1.273.033.75-.457 1.665-1.404 1.73"/>
    <path fill="#ffcb12" d="M15.387 1.163c.816-.065 1.6.588 1.665 1.404.065.783-.588 1.534-1.372 1.6-.848.065-1.6-.555-1.665-1.372-.065-.816.523-1.567 1.371-1.632"/>
    <path fill="#ff4649" d="M6.866 1.783c.098.85-.49 1.567-1.371 1.698-.751.098-1.535-.522-1.633-1.24-.098-.947.425-1.633 1.306-1.73.816-.099 1.6.522 1.698 1.272"/>
</svg>
