<svg xmlns="http://www.w3.org/2000/svg" width="20" height="20" fill="none" viewBox="0 0 20 20">
    <path fill="#e25a1c" fill-rule="evenodd" d="m18.295 10.25-.035-.074q-.374-.716-.754-1.43c-.025-.048-.022-.077.013-.118.399-.466.792-.934 1.192-1.398a.12.12 0 0 0 .032-.063l-.349.091c-.481.128-.966.255-1.443.384-.045.012-.065 0-.088-.038q-.41-.687-.824-1.366a.2.2 0 0 0-.06-.066l-.066.364q-.116.643-.23 1.289c-.008.046-.02.093-.023.139-.004.044-.027.06-.067.073l-1.701.538a.2.2 0 0 0-.076.043l1.398.556-.041.032-.87.563c-.035.023-.062.026-.101.008q-.521-.233-1.044-.464a1.1 1.1 0 0 1-.404-.295c-.247-.302-.198-.645.13-.857.108-.07.23-.12.352-.16q.836-.27 1.669-.53c.047-.016.068-.037.077-.087.075-.43.152-.863.23-1.289.041-.23.063-.465.175-.676a1 1 0 0 1 .156-.228c.221-.246.53-.255.766-.021.08.079.147.172.206.268q.385.63.767 1.269c.03.05.056.06.112.045q.931-.248 1.868-.495a.9.9 0 0 1 .39-.022c.287.054.413.272.316.55a1.1 1.1 0 0 1-.207.334L18.46 8.652c-.036.042-.036.072-.012.119l.78 1.475a.8.8 0 0 1 .11.374.605.605 0 0 1-.526.603 1.1 1.1 0 0 1-.49-.06q-.584-.181-1.172-.357c-.036-.011-.05-.026-.056-.065q-.07-.413-.142-.824c-.002-.008 0-.016.002-.033.445.123.89.244 1.347.371" clip-rule="evenodd"/>
    <path fill="#3c3a3e" d="M8.848 9.767q.121-.002.234-.053l.029-.245a.4.4 0 0 1-.238.083c-.148 0-.242-.117-.242-.266a.37.37 0 0 1 .354-.366c.09 0 .164.035.209.085l.03-.247a.45.45 0 0 0-.216-.053.61.61 0 0 0-.603.602c0 .256.17.46.443.46"/>
    <path fill="#3c3a3e" fill-rule="evenodd" d="M5.159 9.529h-.353l-.112.22h-.25l.551-1.031h.241l.188 1.03h-.232zm-.246-.208h.212l-.05-.32z" clip-rule="evenodd"/>
    <path fill="#3c3a3e" d="m3.773 9.927-.006.004-.055-.075a8 8 0 0 0-.158-.208c-.245-.309-.562-.495-.96-.51-.696-.019-1.222.283-1.585.87a1.15 1.15 0 0 0-.163.78 1.3 1.3 0 0 0 .315.67q.231.268.473.527.136.145.268.291l.017.02c.098.107.196.216.276.336.147.222.11.468-.09.645a1 1 0 0 1-.22.143.61.61 0 0 1-.799-.226 2 2 0 0 1-.111-.21q-.022-.05-.046-.096l-.018-.043-.009-.023-.553.296-.349.186.043.11q.048.128.104.247c.156.32.399.549.747.651.262.077.53.086.8.042.611-.096 1.072-.415 1.365-.96.158-.296.225-.612.17-.947-.046-.284-.196-.515-.384-.721q-.172-.19-.35-.373l-.281-.297a6 6 0 0 1-.36-.422.32.32 0 0 1 .02-.42.54.54 0 0 1 .455-.178c.215.015.363.139.483.306q.045.065.087.135l.043.07.45-.336.375-.28.002.003zm13.747 4.349h.002l-.003.004zm0 0h-.285q-.383-.003-.77-.001c-.047 0-.073-.013-.099-.053l-.5-.76q-.377-.57-.75-1.14l-.028-.042-.023-.032-.266 2.023h-.921l.01-.09.022-.173.159-1.213v-.002l.111-.846.065-.493.195-1.479a.1.1 0 0 1 .031-.054q.476-.31.954-.617l.012-.004.015-.004-.287 2.19.011.008.467-.517.008-.009q.512-.569 1.033-1.142l.02.118.001.005v.002l.002.007v.001l.017.097.03.179.078.447c.008.042-.003.067-.031.097a215 215 0 0 0-.967 1.018l-.026.03-.017.018.01.017q.008.015.02.03l1.108 1.559.553.78q.011.013.025.025l.012.012z"/>
    <path fill="#3c3a3e" fill-rule="evenodd" d="m4.168 14.215.03-.23.006.01.024.015.032.02c.4.28.846.36 1.32.288.458-.07.859-.274 1.192-.597.506-.496.77-1.089.69-1.804a1.57 1.57 0 0 0-.735-1.185c-.431-.279-.904-.328-1.398-.221-.85.187-1.58.921-1.726 1.778-.059.338-.1.677-.143 1.016l-.057.44-.136 1.032-.032.244-.03.241-.016.122.012.004.013.004h.761c.032.001.04-.012.045-.042q.044-.36.092-.714l.008-.06zm2.453-2.071.012.07h.005c-.028.506-.244.862-.644 1.102-.303.18-.63.232-.967.11a.916.916 0 0 1-.602-.973c.052-.569.45-1.005 1.006-1.134.504-.115.992.143 1.146.62.023.07.035.143.044.205" clip-rule="evenodd"/>
    <path fill="#3c3a3e" d="m10.49 13.116.009-.064.003-.006c-.143.15-.293.26-.47.33-.347.137-.686.136-1.004-.076-.328-.219-.468-.613-.38-1.024.13-.62.734-1.06 1.367-.992a.8.8 0 0 1 .676.461c.13.264.151.546.119.831q-.056.472-.121.946l-.057.426-.024.198-.008.071h.818l.002-.01.006-.036.039-.29q.06-.447.117-.895l.024-.185c.029-.217.058-.434.068-.653a1.57 1.57 0 0 0-.392-1.134c-.412-.473-.944-.637-1.553-.563-1.044.13-1.914 1.05-1.958 2.1-.02.451.108.861.41 1.205.561.64 1.463.685 2.153.367.014-.007.027-.03.03-.047zm3.488-2.558-.043.324-.07.527h-.513a.325.325 0 0 0-.306.22 1 1 0 0 0-.026.14l-.003.016-.258 1.959-.04.315-.024.182h-.857l.013-.102.034-.267.01-.08.158-1.19.039-.298q.05-.402.11-.803c.077-.49.564-.928 1.057-.947.162-.007.324-.005.488-.003l.227.001zm4.574 3.357v.36h.072v-.432h-.11l-.126.329-.13-.329h-.11v.433h.072v-.361h.002l.141.36h.046l.141-.36zm-.627.361V13.9h.136v-.057h-.342v.057h.135v.375z"/>
    <path fill="#3c3a3e" fill-rule="evenodd" d="M6.447 8.72h-.33l-.002-.001-.181 1.03h.215l.067-.376h.142c.225 0 .382-.15.382-.372 0-.177-.12-.28-.293-.28m-.152.208h.125c.057 0 .095.032.095.094 0 .094-.06.144-.136.144h-.126zm1.421.6h-.353l-.112.22h-.25l.551-1.031h.241l.188 1.03h-.232zM7.47 9.32h.212L7.632 9z" clip-rule="evenodd"/>
    <path fill="#3c3a3e" d="m9.987 9.334-.073.415h-.215l.182-1.031h.215l-.072.407h.448l.073-.407h.215l-.182 1.03h-.215l.072-.414zm1.403-.618-.182 1.03h.57l.037-.208h-.355l.036-.208h.326l.037-.207h-.327l.036-.2h.356l.036-.207z"/>
</svg>
