<svg xmlns="http://www.w3.org/2000/svg" width="20" height="20" fill="none" viewBox="0 0 20 20">
    <path fill="#e25a1c" fill-rule="evenodd" d="M18.2946 10.2492C18.2773 10.2122 18.2695 10.1935 18.2601 10.1758C18.0095 9.69901 17.7595 9.22225 17.5064 8.7455C17.481 8.69769 17.4842 8.66947 17.5189 8.62824C17.9177 8.16244 18.3114 7.69406 18.7108 7.23019C18.7249 7.21383 18.7375 7.1965 18.7428 7.16731C18.6268 7.19753 18.5108 7.22742 18.3942 7.25815C17.9129 7.38572 17.4278 7.51264 16.9511 7.64213C16.9063 7.65418 16.886 7.6411 16.8634 7.60387C16.5903 7.14708 16.3152 6.68901 16.0388 6.23803C16.0247 6.21439 16.0093 6.19145 15.9791 6.17167C15.957 6.29344 15.9345 6.41456 15.9128 6.53632C15.8361 6.96605 15.7594 7.39319 15.6834 7.82485C15.6751 7.87117 15.6638 7.91762 15.6598 7.96401C15.656 8.00833 15.6331 8.0247 15.5928 8.03745C15.0252 8.21591 14.4589 8.39566 13.8919 8.57541C13.867 8.58321 13.8426 8.59352 13.8159 8.61768C14.2798 8.80193 14.7436 8.98619 15.2139 9.17367C15.1968 9.18727 15.1855 9.19783 15.1729 9.20589C14.883 9.39337 14.5924 9.58085 14.3031 9.76897C14.2684 9.79165 14.241 9.79487 14.202 9.77728C13.8554 9.62137 13.5062 9.46804 13.1583 9.31341C13.0024 9.24383 12.8626 9.1517 12.7537 9.0177C12.5069 8.71618 12.5559 8.37344 12.8845 8.16083C12.9921 8.09189 13.1145 8.041 13.2362 8.00105C13.7922 7.82002 14.3508 7.64542 14.9049 7.47018C14.9517 7.4553 14.9732 7.43442 14.9822 7.38385C15.0569 6.95348 15.1336 6.52054 15.2116 6.09533C15.253 5.86532 15.2749 5.63017 15.3868 5.41885C15.4296 5.33767 15.4809 5.25843 15.5427 5.19078C15.7643 4.94467 16.0729 4.93565 16.3094 5.16965C16.3886 5.24889 16.4563 5.34167 16.5149 5.43766C16.7726 5.85837 17.0264 6.28165 17.2816 6.70686C17.3115 6.75692 17.3385 6.76697 17.3937 6.75241C18.0154 6.58555 18.6371 6.42126 19.262 6.25697C19.3909 6.22302 19.5204 6.21071 19.6525 6.23539C19.9391 6.28899 20.0648 6.50727 19.9675 6.78494C19.9235 6.91122 19.847 7.01752 19.7613 7.11867C19.3271 7.62957 18.8916 8.14305 18.4599 8.65201C18.4244 8.69376 18.4237 8.72353 18.4483 8.77056C18.7086 9.26084 18.9663 9.74984 19.2279 10.2459C19.2898 10.3632 19.3374 10.4856 19.3387 10.6202C19.3417 10.9269 19.1171 11.1782 18.8123 11.2233C18.6416 11.2482 18.4831 11.2117 18.3227 11.1624C17.9329 11.0419 17.5431 10.9234 17.1501 10.8055C17.1139 10.7946 17.1 10.7803 17.0935 10.7413C17.0487 10.4662 16.9994 10.1917 16.9518 9.91664C16.9505 9.9091 16.9528 9.90105 16.9541 9.88417C17.3993 10.0072 17.8432 10.1283 18.3006 10.2553" clip-rule="evenodd"/>
    <path fill="#3c3a3e" d="M8.8484 9.76747C8.92894 9.76747 9.00882 9.74762 9.08162 9.71438L9.08201 9.71399L9.11068 9.46917C9.05141 9.5173 8.96379 9.55228 8.87295 9.55228C8.72477 9.55228 8.63071 9.43503 8.63071 9.28556C8.63071 9.08906 8.79757 8.91962 8.98505 8.91962C9.07525 8.91962 9.1485 8.9546 9.19379 9.00466L9.22401 8.75791C9.16345 8.72473 9.08936 8.70508 9.00753 8.70508C8.68025 8.70508 8.40515 8.98018 8.40515 9.30746C8.40515 9.56323 8.57588 9.76747 8.8484 9.76747Z"/>
    <path fill="#3c3a3e" fill-rule="evenodd" d="M5.15874 9.52884H4.80633L4.69423 9.74853H4.44426L4.9951 8.71771H5.23606L5.42354 9.74853H5.19225L5.15874 9.52884ZM4.91328 9.32139H5.12524L5.07512 9.00054L4.91328 9.32139Z" clip-rule="evenodd"/>
    <path fill="#3c3a3e" d="M3.773 9.927 3.767 9.931C3.749 9.906 3.73 9.881 3.712 9.856 3.659 9.785 3.608 9.716 3.554 9.648 3.309 9.339 2.992 9.153 2.594 9.139 1.898 9.119 1.372 9.421 1.009 10.008.863 10.243.807 10.507.846 10.788.882 11.043.995 11.266 1.161 11.458 1.314 11.638 1.474 11.811 1.634 11.985 1.724 12.082 1.813 12.178 1.902 12.276L1.919 12.296C2.017 12.403 2.115 12.512 2.195 12.632 2.342 12.854 2.304 13.1 2.106 13.277 2.041 13.335 1.964 13.385 1.885 13.42 1.579 13.559 1.275 13.474 1.086 13.194 1.042 13.128 1.009 13.056.975 12.983.96 12.951.945 12.919.929 12.888.923 12.874.917 12.86.911 12.845.908 12.837.905 12.83.902 12.822.717 12.921.534 13.019.349 13.118L0 13.304C.015 13.341.029 13.378.043 13.415.076 13.499.108 13.582.147 13.661.303 13.981.546 14.21.894 14.312 1.156 14.389 1.424 14.398 1.693 14.354 2.305 14.258 2.766 13.939 3.059 13.394 3.217 13.098 3.284 12.782 3.229 12.447 3.183 12.163 3.033 11.932 2.845 11.726 2.731 11.599 2.613 11.476 2.495 11.353 2.401 11.255 2.306 11.156 2.214 11.056 2.088 10.92 1.966 10.781 1.854 10.634 1.752 10.5 1.766 10.332 1.875 10.214 1.997 10.082 2.15 10.023 2.329 10.036 2.544 10.051 2.693 10.175 2.812 10.342 2.843 10.385 2.871 10.431 2.899 10.477 2.913 10.5 2.927 10.523 2.942 10.546 3.091 10.435 3.241 10.323 3.392 10.211 3.516 10.119 3.641 10.026 3.767 9.931L3.769 9.934 3.773 9.927ZM17.519 14.276 17.522 14.276 17.519 14.28V14.276ZM17.519 14.276C17.425 14.276 17.33 14.275 17.235 14.275H17.234C16.979 14.275 16.723 14.274 16.465 14.275 16.418 14.275 16.392 14.262 16.366 14.222 16.2 13.969 16.033 13.715 15.866 13.462 15.615 13.081 15.364 12.701 15.116 12.322 15.108 12.309 15.099 12.296 15.088 12.28L15.065 12.248C14.976 12.931 14.888 13.601 14.799 14.271L13.878 14.271C13.882 14.241 13.885 14.211 13.889 14.182 13.895 14.123 13.902 14.066 13.91 14.008 13.962 13.602 14.016 13.199 14.069 12.795L14.069 12.793C14.106 12.511 14.143 12.229 14.18 11.947L14.245 11.454C14.31 10.961 14.374 10.468 14.44 9.975 14.443 9.956 14.456 9.931 14.471 9.921 14.788 9.714 15.107 9.509 15.425 9.304 15.427 9.302 15.431 9.301 15.437 9.3 15.441 9.299 15.446 9.298 15.452 9.296 15.356 10.03 15.261 10.758 15.165 11.486L15.176 11.494C15.332 11.322 15.487 11.15 15.643 10.977L15.651 10.968C15.993 10.589 16.336 10.209 16.684 9.826 16.691 9.868 16.698 9.907 16.705 9.944L16.705 9.949 16.706 9.951 16.707 9.958 16.707 9.959 16.724 10.056C16.734 10.116 16.744 10.175 16.754 10.235 16.78 10.384 16.805 10.533 16.832 10.682 16.84 10.724 16.829 10.749 16.801 10.779 16.478 11.117 16.157 11.456 15.834 11.797 15.825 11.806 15.817 11.816 15.808 11.826L15.791 11.845C15.794 11.851 15.798 11.856 15.801 11.862 15.808 11.872 15.814 11.882 15.82 11.892 16.19 12.411 16.559 12.931 16.929 13.451L17.482 14.23C17.489 14.24 17.498 14.248 17.507 14.256 17.511 14.26 17.515 14.264 17.519 14.268V14.276Z"/>
    <path fill="#3c3a3e" fill-rule="evenodd" d="M4.16751 14.2152C4.17757 14.1401 4.18777 14.0638 4.19812 13.9858L4.20405 13.9958C4.21298 14.0014 4.22074 14.0062 4.22769 14.0104C4.24029 14.0182 4.25022 14.0243 4.25965 14.0309C4.65909 14.3107 5.10557 14.3898 5.58039 14.3183C6.03781 14.2487 6.43854 14.0438 6.77227 13.721C7.27802 13.225 7.54152 12.6322 7.46163 11.9171C7.40365 11.4146 7.15754 11.0087 6.72717 10.7317C6.29552 10.4533 5.82327 10.4037 5.32912 10.5107C4.4787 10.6975 3.74939 11.432 3.6025 12.2889C3.54441 12.6266 3.50206 12.9656 3.4596 13.3054C3.44132 13.4518 3.42301 13.5983 3.40343 13.7449C3.35757 14.0888 3.31243 14.4328 3.26728 14.7767L3.26721 14.7773L3.23527 15.0205C3.22476 15.1009 3.21468 15.1815 3.2046 15.262L3.18921 15.3845C3.19403 15.3859 3.19786 15.3872 3.20107 15.3883C3.20691 15.3903 3.21066 15.3916 3.2144 15.3916C3.31262 15.3918 3.41075 15.3918 3.50881 15.3919C3.66406 15.3921 3.81952 15.3922 3.97463 15.3928C4.00684 15.393 4.01593 15.3797 4.01966 15.3497C4.04939 15.1101 4.0806 14.8727 4.11172 14.636L4.11952 14.5766C4.13516 14.4569 4.15115 14.3375 4.16751 14.2152ZM6.62149 12.1439C6.62555 12.1695 6.62932 12.1933 6.63343 12.2141H6.63788C6.61018 12.7199 6.3937 13.0761 5.99362 13.3158C5.69081 13.4968 5.36482 13.5477 5.02722 13.426C4.60845 13.2778 4.38296 12.8719 4.42548 12.4531C4.47702 11.8843 4.87582 11.4481 5.43053 11.3192C5.93499 11.2039 6.4227 11.4623 6.57732 11.9384C6.59996 12.0082 6.6116 12.0816 6.62149 12.1439Z" clip-rule="evenodd"/>
    <path fill="#3c3a3e" d="M10.491 13.116 10.499 13.052 10.502 13.046C10.359 13.195 10.209 13.306 10.033 13.376 9.685 13.513 9.346 13.512 9.028 13.3 8.7 13.081 8.56 12.687 8.649 12.276 8.778 11.656 9.382 11.217 10.015 11.284 10.321 11.316 10.553 11.465 10.691 11.745 10.822 12.009 10.842 12.291 10.81 12.576 10.774 12.891 10.731 13.207 10.689 13.522 10.67 13.664 10.651 13.806 10.632 13.948 10.624 14.014 10.616 14.08 10.608 14.146L10.6 14.217H11.418L11.42 14.206C11.423 14.193 11.425 14.182 11.426 14.171 11.439 14.075 11.452 13.978 11.465 13.881L11.465 13.88C11.505 13.583 11.545 13.284 11.582 12.986 11.59 12.924 11.598 12.863 11.606 12.801 11.635 12.584 11.664 12.367 11.674 12.148 11.693 11.723 11.563 11.336 11.282 11.014 10.87 10.541 10.338 10.377 9.729 10.451 8.685 10.58 7.815 11.501 7.771 12.552 7.752 13.003 7.879 13.412 8.182 13.756 8.742 14.397 9.644 14.441 10.334 14.123 10.348 14.116 10.361 14.093 10.364 14.076 10.406 13.761 10.447 13.446 10.491 13.116ZM13.978 10.558 13.935 10.882C13.912 11.057 13.889 11.232 13.866 11.409 13.813 11.409 13.759 11.409 13.707 11.409 13.588 11.408 13.47 11.408 13.352 11.409 13.214 11.41 13.088 11.499 13.046 11.628 13.032 11.673 13.026 11.721 13.02 11.769L13.017 11.785C12.931 12.443 12.845 13.093 12.76 13.744 12.746 13.849 12.732 13.954 12.719 14.059L12.695 14.241H11.839L11.851 14.139C11.863 14.049 11.874 13.96 11.885 13.872L11.896 13.793C11.948 13.395 12 12.996 12.053 12.603 12.066 12.503 12.079 12.404 12.092 12.304L12.092 12.303C12.126 12.036 12.161 11.768 12.202 11.501 12.279 11.012 12.766 10.573 13.259 10.554 13.421 10.547 13.583 10.549 13.747 10.551 13.822 10.552 13.898 10.552 13.974 10.552L13.978 10.558ZM18.552 13.915V14.276H18.624V13.843H18.515L18.388 14.172 18.259 13.843H18.149V14.276H18.22V13.915H18.222L18.364 14.276H18.409L18.55 13.915H18.552ZM17.925 14.276V13.901H18.061V13.844H17.719V13.901H17.854V14.276H17.925Z"/>
    <path fill="#3c3a3e" fill-rule="evenodd" d="M6.447 8.721H6.117L6.115 8.719 5.934 9.75H6.149L6.216 9.373H6.358C6.583 9.373 6.74 9.223 6.74 9.001 6.74 8.824 6.619 8.721 6.447 8.721ZM6.295 8.928H6.42C6.477 8.928 6.515 8.96 6.515 9.022 6.515 9.116 6.455 9.166 6.379 9.166H6.253L6.295 8.928ZM7.716 9.529H7.363L7.251 9.749H7.001L7.552 8.718H7.793L7.981 9.749H7.749L7.716 9.529ZM7.471 9.321H7.683L7.633 9.001 7.471 9.321Z" clip-rule="evenodd"/>
    <path fill="#3c3a3e" d="M9.987 9.334 9.914 9.749H9.699L9.881 8.718H10.096L10.024 9.125H10.472L10.545 8.718H10.76L10.578 9.749H10.363L10.435 9.334H9.987ZM11.389 8.716 11.208 9.747 11.208 9.745H11.779L11.815 9.538H11.46L11.496 9.33H11.822L11.859 9.123H11.532L11.568 8.923H11.924L11.96 8.716H11.389Z"/>
</svg>
