<svg xmlns="http://www.w3.org/2000/svg" width="20" height="20" fill="none" viewBox="0 0 20 20">
    <path fill="#000" d="M9.493.505c-.847 2.07-1.355 3.427-2.296 5.439a14.8 14.8 0 0 0 2.436 2.129C8.396 7.56 7.553 7.05 6.92 6.52 5.716 9.036 3.828 12.614 0 19.495c3.011-1.738 5.342-2.81 7.516-3.22a5.6 5.6 0 0 1-.143-1.289l.003-.094c.049-1.93 1.051-3.411 2.24-3.31 1.188.1 2.112 1.744 2.066 3.674-.01.362-.051.71-.123 1.035 2.152.42 4.46 1.488 7.428 3.203-.586-1.077-1.107-2.05-1.608-2.974-.785-.61-1.605-1.404-3.275-2.263 1.15.3 1.97.644 2.61 1.029C11.64 5.843 11.233 4.586 9.491.504zM19.082 17.8v-.518h-.196v-.072h.469v.072h-.196v.517zm.355 0v-.59h.117l.14.417q.021.059.027.088l.032-.094.14-.41h.108v.59h-.075v-.496l-.173.495h-.072l-.17-.501v.501z"/>
</svg>
