<svg xmlns="http://www.w3.org/2000/svg" width="20" height="20" fill="none" viewBox="0 0 20 20">
    <path fill="#e9654b" d="M6.642 14.13s-.136.41-.341.614a.62.62 0 0 1-.478.205 8 8 0 0 1-1.024.204s.478.069 1.024.137c.205 0 .205 0 .341.068.342 0 .478-.205.478-.205zm6.28 0s.137.41.341.614a.62.62 0 0 0 .478.205q.506.136 1.024.204s-.478.069-1.092.137c-.205 0-.205 0-.341.068-.41 0-.478-.205-.478-.205z"/>
    <path fill="#b6cfea" d="M9.85 14.744A7.372 7.372 0 1 0 9.85 0a7.372 7.372 0 0 0 0 14.744"/>
    <path fill="#e6f5f8" d="M9.85 14.47a7.099 7.099 0 1 0 0-14.197 7.099 7.099 0 0 0 0 14.198"/>
    <path fill="#d0e8f0" d="M9.85 13.31a5.802 5.802 0 1 0 0-11.603 5.802 5.802 0 0 0 0 11.604"/>
    <path fill="#ee794b" d="M6.437 10.239s.478 7.713.478 7.85c0 .068.069.204-.273.34-.341.137-1.433.41-1.433.41h1.638c.75 0 .75-.614.75-.75 0-.137.206-3.072.206-3.072s.068 3.481.068 3.618c0 .136-.068.341-.546.477l-1.365.274h1.57c.955 0 .955-.615.955-.615L8.69 15.7s.068 3.072.068 3.414c0 .273-.204.477-.955.614-.478.136-1.092.273-1.092.273h1.774c.888-.068 1.024-.683 1.024-.683l1.502-7.645z"/>
    <path fill="#ee794b" d="M13.263 10.239s-.477 7.713-.477 7.85c0 .068-.069.204.273.34.34.137 1.433.41 1.433.41h-1.638c-.751 0-.751-.614-.751-.75 0-.137-.205-3.072-.205-3.072s-.068 3.481-.068 3.618c0 .136.068.341.546.477l1.365.274h-1.57c-.955 0-.955-.615-.955-.615L11.01 15.7s-.068 3.072-.068 3.414c0 .273.204.477.955.614A23 23 0 0 0 12.99 20h-1.774c-.888-.068-1.024-.683-1.024-.683L8.69 11.672zm.069-3.754c0 1.91-1.57 3.412-3.413 3.412s-3.413-1.57-3.413-3.412c0-1.844 1.57-3.413 3.413-3.413s3.413 1.501 3.413 3.413"/>
    <path fill="#ee794b" d="M9.919 14.403a6.075 6.075 0 1 0 0-12.15 6.075 6.075 0 0 0 0 12.15"/>
    <path fill="#e34e3b" d="M13.127 10.239s.41-3.618-.137-4.983c-1.024-2.39-3.413-2.184-3.413-2.184s1.366.546 1.434 2.593c.068 1.434 0 3.55 0 3.55z" opacity=".22"/>
    <path fill="#fbdfc3" d="M8.485 5.12a.478.478 0 1 0 0-.956.478.478 0 0 0 0 .955" opacity=".5"/>
    <path fill="#010101" d="M11.079 11.604c0 1.16-.546 1.911-1.229 1.911-.682 0-1.228-.887-1.228-2.048 0 0 .546 1.093 1.297 1.093s1.16-.956 1.16-.956"/>
    <path fill="#fff" d="M11.079 11.604c0 .751-.546 1.16-1.229 1.16-.682 0-1.16-.545-1.16-1.228 0 0 .546.683 1.297.683s1.092-.615 1.092-.615"/>
    <path fill="#e9654b" d="M12.24 10.512a2.116 2.116 0 1 0 0-4.232 2.116 2.116 0 0 0 0 4.232m-4.779 0a2.116 2.116 0 1 0 0-4.232 2.116 2.116 0 0 0 0 4.232"/>
    <path fill="#fff" d="M12.24 10.034a1.638 1.638 0 1 0 0-3.276 1.638 1.638 0 0 0 0 3.276m-4.915 0a1.638 1.638 0 1 0 0-3.276 1.638 1.638 0 0 0 0 3.276"/>
    <path fill="#010101" d="M7.325 8.669a.478.478 0 1 0 0-.956.478.478 0 0 0 0 .956m4.915 0a.478.478 0 1 0 0-.956.478.478 0 0 0 0 .956"/>
    <path fill="#b6cfea" d="M2.342 9.215A.322.322 0 0 1 2 8.874v-2.73a.322.322 0 0 1 .34-.342.322.322 0 0 1 .342.341v2.73a.322.322 0 0 1-.341.342m14.881 0a.323.323 0 0 1-.34-.341v-2.73a.323.323 0 0 1 .34-.342.322.322 0 0 1 .342.341v2.73a.323.323 0 0 1-.342.342"/>
    <path fill="#fff" d="M7.53 2.253a.341.341 0 1 0 0-.683.341.341 0 0 0 0 .683m-2.458 8.873a.25.25 0 0 1-.205-.068C4.048 10.034 3.64 8.738 3.64 7.44a6.1 6.1 0 0 1 .819-3.071 6.7 6.7 0 0 1 2.184-2.185.3.3 0 0 1 .341.069.3.3 0 0 1-.068.341 5.51 5.51 0 0 0-2.798 4.778 5.38 5.38 0 0 0 1.16 3.345c.068.068.068.273-.068.341-.069.068-.069.068-.137.068"/>
    <path fill="#e9654b" d="M12.922 14.334v-.546c-.956.546-1.98 1.092-3.208 1.092-1.365 0-2.253-.614-3.14-1.092l.068.546s1.024 1.093 3.14 1.093c1.98-.069 3.14-1.093 3.14-1.093" opacity=".25"/>
</svg>
