<svg xmlns="http://www.w3.org/2000/svg" width="22" height="20" fill="none" viewBox="0 0 22 20">
    <path fill="#f26c32" d="M2.51 9.108h1.271l-.196.754a.47.47 0 0 1-.455.342h-.587a.57.57 0 0 0-.357.12.61.61 0 0 0-.116.846.6.6 0 0 0 .473.228H2.9a.2.2 0 0 1 .166.082c.042.05.055.119.036.181l-.224.834H2.48a1.6 1.6 0 0 1-.745-.178 1.646 1.646 0 0 1-.85-1.892l.022-.091A1.65 1.65 0 0 1 1.97 9.199a1.6 1.6 0 0 1 .54-.091m.642 3.392 1.105-4.152A.47.47 0 0 1 4.717 8H5.89c.257-.002.51.06.74.177.45.229.773.648.88 1.142a1.6 1.6 0 0 1-.022.767l-.023.084a1.7 1.7 0 0 1-.225.499 1.7 1.7 0 0 1-.363.395c-.29.223-.644.344-1.01.344H4.851l.197-.771a.47.47 0 0 1 .455-.344h.336c.27 0 .505-.185.57-.447a.56.56 0 0 0 .008-.276.6.6 0 0 0-.11-.238.6.6 0 0 0-.468-.23h-.634l-.816 3.054a.48.48 0 0 1-.169.248.45.45 0 0 1-.28.096zm7.013-2.216.017-.062a.08.08 0 0 0-.014-.077.1.1 0 0 0-.07-.035H8.271a.46.46 0 0 1-.454-.367.5.5 0 0 1 0-.219l.113-.427h2.478a.9.9 0 0 1 .42.102.96.96 0 0 1 .494.638.9.9 0 0 1-.01.435l-.444 1.654a.76.76 0 0 1-.742.567l-1.828-.01a.97.97 0 0 1-.956-.775.9.9 0 0 1 .011-.454l.022-.084A.94.94 0 0 1 8 10.505a1 1 0 0 1 .32-.053h1.535l-.112.422a.48.48 0 0 1-.168.248.45.45 0 0 1-.281.095h-.686a.12.12 0 0 0-.122.096.11.11 0 0 0 .022.11c.024.03.061.048.1.047h1.108a.2.2 0 0 0 .106-.034.14.14 0 0 0 .057-.09l.01-.044zm3.274-1.176c.26-.003.518.058.75.178a1.65 1.65 0 0 1 .847 1.91l-.281 1.053a.3.3 0 0 1-.122.18.34.34 0 0 1-.204.068h-.608a.207.207 0 0 1-.203-.263l.338-1.277a.56.56 0 0 0 .009-.275.6.6 0 0 0-.583-.473h-.63l-.545 2.043a.3.3 0 0 1-.12.18.34.34 0 0 1-.212.068h-.602a.2.2 0 0 1-.16-.082.2.2 0 0 1-.037-.183l.828-3.127zm3.312 1.072a.3.3 0 0 0-.095.131l-.253.956a.16.16 0 0 0 .027.147c.031.042.08.067.132.067h2.33l-.18.668a.47.47 0 0 1-.45.344h-2.118a.9.9 0 0 1-.421-.098.94.94 0 0 1-.494-.641.9.9 0 0 1 .015-.431l.343-1.277a1.28 1.28 0 0 1 1.226-.945h1.502a.9.9 0 0 1 .421.102 1 1 0 0 1 .318.263.95.95 0 0 1 .16.81l-.1.382a.73.73 0 0 1-.273.408.75.75 0 0 1-.465.155h-1.698l.112-.417a.456.456 0 0 1 .45-.343h.687a.12.12 0 0 0 .124-.096l.022-.084a.132.132 0 0 0-.124-.164h-1.045a.24.24 0 0 0-.153.063m2.141 2.32 1.131-4.247a.33.33 0 0 1 .12-.183.35.35 0 0 1 .211-.07h.603a.21.21 0 0 1 .171.082c.041.051.054.12.033.182l-.844 3.134q-.061.242-.2.45a1.5 1.5 0 0 1-1.225.653"/>
</svg>
