<svg xmlns="http://www.w3.org/2000/svg" width="20" height="20" fill="none" viewBox="0 0 20 20">
    <path fill="#9ccd2a" d="M9.305 3.147H3.147v6.158h6.158z"/>
    <path fill="#932279" d="M16.853 3.147h-6.158v6.158h6.158z"/>
    <path fill="#efa724" d="M16.853 10.695h-6.158v6.158h6.158z"/>
    <path fill="#262577" d="M9.305 10.695H3.147v6.158h6.158z"/>
    <path fill="#9ccd2a" d="M5.646 15.338 10 19.692l4.354-4.354L10 10.983z"/>
    <path fill="#932279" d="m.308 10 4.354 4.354L9.017 10 4.662 5.646z"/>
    <path fill="#efa724" d="M5.646 4.662 10 9.017l4.354-4.355L10 .308z"/>
    <path fill="#262577" d="m10.983 10 4.355 4.354L19.692 10l-4.354-4.354z"/>
    <path fill="#fff" d="M12.923 2.923h4.154v4.154L20 10l-2.923 2.923v4.154h-4.154L10 20l-2.923-2.923H2.923v-4.154L0 10l2.923-2.923V2.923h4.154L10 0zm-3.395 8.85v5.304h-1.82L10 19.367l2.291-2.29h-1.82v-5.303L10 11.308zm1.39-.186 3.77 3.726-1.318 1.317h3.26v-3.26l-1.317 1.317-3.726-3.768h-.668zm0 5.043h1.82l1.315-1.315-3.134-3.1zm-4.971-1.315 1.315 1.315h1.82v-4.414zm-1.26-.628L3.37 13.37v3.26h3.26l-1.317-1.317 3.768-3.726v-.668h-.668zM3.37 12.738l1.315 1.315 3.1-3.134H3.37zm11.945 1.315 1.315-1.315v-1.82h-4.414zM.632 10l2.291 2.291v-1.82h5.303L8.692 10l-.466-.472H2.923v-1.82zm16.445-.472h-5.303l-.466.472.466.472h5.303v1.82L19.367 10l-2.29-2.291zM10 9.321l-.472-.466v.673h-.673L9.32 10l-.466.472h.673v.673L10 10.68l.472.466v-.673h.673L10.68 10l.466-.472h-.673v-.673zm2.216-.24h4.414v-1.82l-1.315-1.314zm2.471-4.394L10.92 8.413v.668h.668l3.726-3.768L16.63 6.63V3.37h-3.26zM3.37 6.63l1.317-1.317L8.413 9.08h.668v-.668L5.313 4.687 6.63 3.37H3.37zm0 .632v1.82h4.414L4.685 5.946zm4.34-4.339h1.82v5.303l.471.466.472-.466V2.923h1.82L10 .633zM5.947 4.685l3.134 3.1V3.37h-1.82zm4.972 3.1 3.134-3.1-1.315-1.315h-1.82z"/>
</svg>
