<svg xmlns="http://www.w3.org/2000/svg" width="20" height="20" fill="none" viewBox="0 0 20 20">
    <path fill="url(#a)" d="M17.971 8.51q.019-.2.032-.398a13 13 0 0 0-1.332-6.625L15.93 0l-.343 1.628a11.85 11.85 0 0 1-6.982 8.457l-.51.216.193.52c.626 1.674.861 3.47.687 5.25-.092.961-.3 1.908-.622 2.82L7.963 20l1.116-.367A13.01 13.01 0 0 0 17.971 8.51m-7.58 9.321-.596.303.129-.655q.128-.645.19-1.3a12.9 12.9 0 0 0-.492-4.988l-.079-.263.244-.121a13.07 13.07 0 0 0 6.116-6.433l.382-.87.23.921c.323 1.298.422 2.641.292 3.972a11.8 11.8 0 0 1-6.417 9.434"/>
    <path fill="url(#b)" d="M15.198 9.15c.447-.992.916-3.455.886-3.64a13.7 13.7 0 0 1-1.642 2.435q-.138.366-.298.727a11.84 11.84 0 0 1-3.438 4.399q.092.667.116 1.343a13 13 0 0 0 4.376-5.265"/>
    <path fill="url(#c)" d="M8.368 14.513a11.9 11.9 0 0 1-3.356.996l-.661.094.335-.577q.33-.57.602-1.168a12.9 12.9 0 0 0 1.155-4.879l.01-.273.271-.036a13.1 13.1 0 0 0 5.873-2.334 11.2 11.2 0 0 0 2.02-3.63 11.86 11.86 0 0 1-8.788 4.89l-.553.038.012.555a11.7 11.7 0 0 1-1.057 5.19c-.399.88-.904 1.707-1.503 2.465L2 16.768l1.177.015c1.773.022 3.53-.32 5.166-1.005q.048-.631.025-1.265"/>
    <defs>
        <linearGradient id="a" x1="2.392" x2="17.023" y1="9.483" y2="12.72" gradientUnits="userSpaceOnUse">
            <stop offset=".01" stop-color="#c7422f"/>
            <stop offset=".37" stop-color="#d46e43"/>
            <stop offset="1" stop-color="#eeb575"/>
        </linearGradient>
        <linearGradient id="b" x1="3.413" x2="15.925" y1="9.295" y2="11.601" gradientUnits="userSpaceOnUse">
            <stop offset=".21" stop-color="#cf603b"/>
            <stop offset="1" stop-color="#eeb575"/>
        </linearGradient>
        <linearGradient id="c" x1="1924.91" x2="4311.51" y1="2684.19" y2="2684.19" gradientUnits="userSpaceOnUse">
            <stop offset=".21" stop-color="#cf603b"/>
            <stop offset="1" stop-color="#eeb575"/>
        </linearGradient>
    </defs>
</svg>
