<svg xmlns="http://www.w3.org/2000/svg" width="20" height="20" fill="none" viewBox="0 0 20 20">
    <path fill="#632ca6" fill-rule="evenodd" d="m16.748 15.196-1.78-1.174-1.485 2.48-1.726-.504-1.52 2.32.077.73 8.267-1.523-.48-5.165zm-7.71-2.227 1.327-.182c.214.096.364.133.621.199.4.104.865.204 1.552-.142.16-.08.493-.384.627-.557L18.6 11.3l.554 6.71-9.31 1.677zm10.095-2.417-.536.102L17.567.007.006 2.043 2.17 19.598l2.055-.298c-.164-.235-.42-.518-.856-.881-.605-.503-.391-1.357-.034-1.897.472-.911 2.906-2.07 2.769-3.526-.05-.53-.134-1.22-.626-1.692-.018.196.015.385.015.385s-.202-.257-.303-.609c-.1-.134-.178-.177-.284-.357-.076.208-.066.45-.066.45s-.165-.39-.192-.72c-.098.147-.122.427-.122.427s-.215-.615-.166-.946c-.098-.288-.388-.86-.306-2.16.536.375 1.716.285 2.175-.392.153-.224.257-.837-.076-2.044-.214-.774-.744-1.926-.95-2.364l-.026.018c.11.352.334 1.09.42 1.449.261 1.086.33 1.464.208 1.965-.104.435-.353.72-.987 1.038-.633.32-1.474-.458-1.527-.5-.615-.49-1.091-1.29-1.144-1.68-.055-.424.245-.68.396-1.027-.216.062-.458.171-.458.171s.288-.298.644-.556a4 4 0 0 0 .389-.288c-.225-.004-.407.003-.407.003s.374-.203.762-.35c-.284-.013-.556-.002-.556-.002s.836-.374 1.496-.648c.454-.186.898-.131 1.147.229.327.472.67.728 1.398.887.447-.198.583-.3 1.145-.453.494-.544.882-.614.882-.614s-.192.177-.244.454c.28-.22.588-.405.588-.405s-.12.147-.23.38l.026.038c.327-.196.711-.35.711-.35s-.11.139-.239.318c.247-.002.747.01.941.033 1.146.025 1.384-1.224 1.824-1.38.55-.197.796-.316 1.735.605.805.792 1.434 2.208 1.122 2.525-.262.264-.779-.102-1.351-.816a3.1 3.1 0 0 1-.639-1.393 1.37 1.37 0 0 0-.442-.757s.204.454.204.855c0 .22.028 1.039.379 1.498-.035.068-.051.333-.09.384-.408-.494-1.286-.848-1.43-.952.485.397 1.599 1.309 2.026 2.183.405.826.167 1.584.371 1.78.058.056.87 1.067 1.026 1.575.273.886.017 1.817-.34 2.394l-.996.155c-.145-.04-.243-.06-.374-.136.072-.128.215-.445.217-.51l-.057-.1c-.31.44-.829.866-1.26 1.11-.564.32-1.215.271-1.638.14-1.202-.37-2.339-1.183-2.613-1.396 0 0-.008.17.044.208.303.342.997.96 1.668 1.391l-1.43.158.676 5.265c-.3.043-.347.064-.675.111-.29-1.022-.843-1.69-1.448-2.078-.533-.343-1.269-.42-1.973-.28l-.045.052c.49-.051 1.068.02 1.661.396.583.368 1.053 1.32 1.226 1.893.221.733.374 1.516-.222 2.347-.424.59-1.661.916-2.661.21.267.43.628.781 1.114.848.722.098 1.406-.028 1.878-.512.402-.413.616-1.278.56-2.19l.636-.092.23 1.635 10.542-1.269zM12.72 6.11c-.03.067-.075.11-.006.33l.004.012.011.028.03.066c.124.255.262.497.491.62q.09-.015.185-.02c.216-.01.352.025.438.071a1 1 0 0 0 .005-.199c-.017-.324.064-.875-.559-1.165-.235-.109-.564-.075-.674.06a.3.3 0 0 1 .052.012c.166.059.053.116.023.185m1.746 3.023c-.082-.045-.464-.027-.732.005-.511.06-1.063.237-1.184.332-.22.17-.12.466.043.588.455.34.854.568 1.276.513.259-.034.487-.444.648-.816.11-.256.11-.532-.051-.622M9.939 6.512c.145-.137-.718-.317-1.387.14-.493.336-.509 1.057-.036 1.466q.07.06.122.093.206-.099.476-.19c.306-.099.56-.15.769-.177.1-.112.216-.308.187-.664-.04-.483-.406-.407-.13-.668" clip-rule="evenodd"/>
</svg>
