<svg xmlns="http://www.w3.org/2000/svg" width="20" height="20" fill="none" viewBox="0 0 20 20">
    <path fill="#a80030" d="M9.84674 0.142578C9.68777 0.231468 9.52993 0.300708 9.38092 0.405273C9.98538 0.261074 9.95668 0.464256 10.5743 0.382812C10.358 0.414314 10.0954 0.499765 10.1363 0.532715C10.8269 0.612752 10.9328 0.319408 11.5718 0.532227L11.5313 0.34375C12.4188 0.664213 12.6049 0.609545 13.5694 1.12109C13.9082 1.13743 13.942 0.912919 14.4537 1.12109C14.5434 1.27894 14.4333 1.30832 15.0611 1.68213C15.1312 1.65428 14.9363 1.47641 14.7818 1.33496C16.0448 2.01029 17.4178 3.44958 17.8365 4.98975C17.4447 4.26739 17.7958 5.35837 17.6612 5.30176C17.8358 5.77291 17.9789 6.26001 18.0674 6.7627C17.9514 6.35027 17.6987 5.35467 17.2554 4.7124C17.2193 5.12697 16.6841 4.42655 16.9766 5.33887C17.1995 5.6619 17.0217 5.01136 17.2964 5.58545C17.3007 5.85836 17.4049 6.12966 17.4654 6.48535C17.3714 6.4693 17.2557 6.09223 17.1866 6.19727C17.2819 6.64435 17.4388 6.87756 17.4986 6.91211C17.468 6.98698 17.3887 6.84268 17.3834 7.14697C17.4199 7.84669 17.5795 7.55217 17.6548 7.58496C17.5785 7.92964 17.2701 8.33562 17.4224 8.92871C17.3787 8.74914 17.2935 8.56813 17.2286 8.39795C17.1685 8.90428 17.3403 9.00299 17.1065 9.6167C17.2751 9.06348 17.257 8.56432 17.0982 8.80469C17.1684 9.59097 16.4761 10.1947 16.5508 10.6919L16.3497 10.4146C15.8043 11.2052 16.3368 10.8502 15.9654 11.4492C16.1015 11.2139 15.8941 11.3519 16.0714 11.0854C15.9536 11.0924 15.5465 11.5862 15.1739 11.8765C13.7087 13.051 11.9595 13.2043 10.2662 12.5718C10.2646 12.5731 10.2638 12.5751 10.2628 12.5767C10.2737 12.536 10.2629 12.492 10.1451 12.4126C8.70975 11.3125 7.86131 10.3774 8.15582 8.21289C8.37462 8.04745 8.43295 7.1449 8.93512 6.82861C9.24125 6.15217 10.1587 5.52867 11.1392 5.51318C12.1401 5.45808 12.9849 6.04724 13.4092 6.60303C12.6367 5.88314 11.3724 5.66445 10.294 6.19824C9.19141 6.69413 8.53758 7.90849 8.63287 9.11768C8.67375 9.05763 8.70983 9.09456 8.72955 8.9458C8.69599 11.2959 11.2625 13.0181 13.1099 12.1489L13.1319 12.1978C13.8809 11.9934 13.7842 11.8246 14.274 11.4883C14.2358 11.5672 13.9441 11.7685 14.1177 11.7725C14.356 11.7092 15.1005 11.0167 15.4664 10.6914C15.6342 10.3294 15.3775 10.4957 15.6119 10.0405L15.898 9.89746C16.0572 9.43716 16.2337 9.17701 16.2139 8.64111L16.0464 8.99365C16.2924 8.24881 16.1505 7.43796 16.1851 6.73682L16.1168 6.71826C16.0566 4.95435 14.532 3.07955 13.1749 2.44531C12.0053 1.90499 10.2046 1.81228 9.37262 2.21924C9.48731 2.11791 9.94325 2.0752 9.80621 1.99707C8.50372 2.12653 8.79427 2.4515 7.79596 2.70654C7.5221 2.971 8.59524 2.49457 8.01764 2.8374C7.48217 2.98507 7.23247 2.74388 6.43903 3.56494C6.50965 3.67927 6.94276 3.22744 6.5816 3.68115C5.83582 3.58857 4.22527 5.38748 3.88336 5.98389L4.06207 6.01465C3.76849 6.75004 3.3827 7.21912 3.33014 7.65967C3.25433 8.74314 2.87603 10.7187 3.40143 11.3262L3.35065 11.833C3.42275 11.9769 3.47684 12.1238 3.56647 12.2588L3.44977 12.2681C4.00245 14.0113 4.04328 12.3007 4.77301 14.1113C4.66716 14.0757 4.55998 14.0368 4.40582 13.8286C4.38765 13.9876 4.63066 14.4639 4.9195 14.8354L4.79742 14.9751C4.95824 15.2672 5.10626 15.3316 5.21783 15.4336C4.6174 15.1059 5.77479 16.5133 5.87946 16.6929L5.97174 16.5288C5.95855 16.765 6.14103 17.07 6.48395 17.4932L6.76959 17.4819C6.88725 17.7144 7.31723 18.1343 7.57819 18.1543L7.40485 18.3809C8.0599 18.5883 7.72321 18.656 8.52838 18.9409L8.36578 18.6538C8.77628 19.0101 8.90335 19.3218 9.48297 19.5947C10.2864 19.8748 10.393 19.7642 11.2178 20C10.5187 19.9797 9.69679 19.9872 9.1441 19.7896C5.37335 18.7683 1.92365 14.3449 2.17584 9.78906C2.11777 8.86687 2.26772 7.71445 2.11432 7.48438C2.3299 6.78248 2.57925 5.92626 3.0816 4.90771C3.0455 4.83996 3.1643 5.1071 3.41949 4.67236C3.57441 4.33211 3.70076 3.95713 3.89606 3.62646L3.99664 3.60303C4.09734 3.01958 5.35808 2.12485 5.73346 1.67432L5.75934 1.84619C6.57833 1.0783 8.03767 0.563396 8.85944 0.196777C8.64367 0.435599 9.34291 0.173192 9.84674 0.142578Z"/>
    <path fill="#a80030" d="M8.40289 11.3662C8.57849 11.4049 9.17901 12.3414 9.62848 12.4937C9.36274 12.2807 9.15687 12.0098 8.96637 11.731C9.32543 12.1437 9.76241 12.4808 10.2393 12.7041C10.2262 12.6543 10.2469 12.621 10.2589 12.5879C10.2553 12.6684 10.5888 12.9252 10.8394 13.0542C11.4845 13.2926 12.2141 13.302 12.7881 13.2808C11.5474 13.7997 9.1781 12.7539 8.40289 11.3662Z"/>
    <path fill="#a80030" d="M10.259 12.588C10.259 12.584 10.26 12.58 10.263 12.577 10.262 12.581 10.26 12.584 10.259 12.588ZM7.985 11.022C8.259 11.55 8.407 11.711 8.607 12.102 8.329 11.87 8.156 11.55 7.939 11.254L7.985 11.022ZM8.24 10.567C8.317 10.72 8.385 10.874 8.5 11.002L8.602 11.302C8.463 11.067 8.313 10.836 8.24 10.567ZM17.611 9.021C17.522 9.701 17.311 10.373 16.985 10.986 17.28 10.405 17.473 9.777 17.563 9.143L17.611 9.021ZM12.422 10.524C12.326 10.616 12.217 10.71 12.098 10.804 11.665 10.737 11.271 10.571 11.603 10.566 11.879 10.592 12.153 10.59 12.422 10.524ZM13.773 9.244C13.722 9.552 13.578 9.851 13.381 10.123 13.405 9.889 12.831 10.224 13.497 9.386 13.439 9.622 12.878 10.244 13.497 9.854 13.609 9.654 13.729 9.464 13.773 9.244ZM13.867 8.234C13.92 8.007 14.078 7.818 14.038 8.415 13.978 8.655 13.929 8.266 13.867 8.234ZM2.177 5.8C2.138 5.984 2.119 6.176 2.015 6.494 2.045 6.245 1.891 6.166 2.177 5.8ZM2.545 4.282C2.542 4.48 2.877 4.086 2.636 4.63 2.185 4.945 2.596 4.76 2.545 4.282ZM10.691.372 10.574.383 10.699.356 10.691.372ZM10.346.258C10.936.275 10.893.314 10.699.356 10.728.314 10.523.29 10.346.258ZM11.2 0C10.962.054 10.635.017 10.411.099L10.277.081C10.582.041 10.89.026 11.2 0Z"/>
</svg>
