<svg xmlns="http://www.w3.org/2000/svg" width="20" height="20" fill="none" viewBox="0 0 20 20">
    <path fill="#a80030" d="M9.847.143C9.687.23 9.53.3 9.38.405c.604-.144.576.06 1.193-.022-.216.031-.479.117-.438.15.69.08.797-.214 1.436 0l-.04-.19c.887.321 1.073.267 2.037.778.34.016.373-.208.885 0 .09.158-.02.187.607.561.07-.028-.125-.206-.28-.347 1.264.675 2.637 2.115 3.056 3.655-.392-.723-.041.368-.176.312.175.47.318.958.406 1.46-.116-.412-.368-1.407-.812-2.05-.036.415-.57-.285-.278.627.223.323.045-.328.32.246.004.273.108.545.168.9-.094-.016-.21-.393-.278-.288.095.447.252.68.312.715-.031.075-.11-.07-.116.235.037.7.197.405.272.438-.077.345-.385.75-.233 1.344-.043-.18-.128-.36-.193-.531-.06.506.111.605-.122 1.219.168-.554.15-1.053-.009-.812.07.786-.622 1.39-.547 1.887l-.201-.277c-.546.79-.013.435-.385 1.034.137-.235-.07-.097.106-.364-.117.007-.525.501-.897.791-1.465 1.175-3.214 1.328-4.908.696l-.003.005c.01-.041 0-.085-.118-.164-1.435-1.1-2.284-2.036-1.99-4.2.22-.166.278-1.068.78-1.384.306-.677 1.224-1.3 2.204-1.316 1.001-.055 1.846.534 2.27 1.09-.772-.72-2.037-.939-3.115-.405-1.103.496-1.756 1.71-1.661 2.92.04-.06.077-.023.097-.172-.034 2.35 2.532 4.072 4.38 3.203l.022.049c.749-.205.652-.373 1.142-.71-.038.08-.33.28-.156.285.238-.064.982-.756 1.348-1.082.168-.362-.088-.195.146-.65l.286-.144c.16-.46.336-.72.316-1.256l-.168.353c.246-.745.105-1.556.14-2.257l-.07-.019c-.06-1.764-1.584-3.638-2.941-4.273-1.17-.54-2.97-.633-3.802-.226.114-.101.57-.144.433-.222-1.302.13-1.012.454-2.01.71-.274.264.8-.212.222.13-.536.148-.786-.093-1.579.728.07.114.504-.338.143.116-.746-.092-2.357 1.706-2.699 2.303l.18.03c-.295.736-.68 1.205-.733 1.646-.076 1.083-.454 3.059.071 3.666l-.05.507c.072.144.126.29.215.426l-.116.01c.552 1.742.593.032 1.323 1.842-.106-.035-.213-.074-.367-.282-.018.159.225.635.514 1.006l-.123.14c.161.292.31.357.42.459-.6-.328.558 1.08.662 1.259l.093-.164c-.013.236.169.541.512.964l.286-.011c.117.232.547.652.808.672l-.173.227c.655.207.318.275 1.123.56l-.162-.287c.41.356.537.668 1.117.94.803.28.91.17 1.735.406-.7-.02-1.521-.013-2.074-.21-3.77-1.022-7.22-5.445-6.968-10-.058-.923.092-2.076-.062-2.306.216-.702.465-1.558.968-2.576-.036-.068.082.2.337-.236.155-.34.282-.715.477-1.046l.1-.023c.101-.583 1.362-1.478 1.737-1.929l.026.172c.82-.768 2.279-1.283 3.1-1.65-.215.24.484-.023.988-.053"/>
    <path fill="#a80030" d="M8.403 11.366c.175.039.776.975 1.225 1.128-.265-.213-.471-.484-.662-.763.36.413.796.75 1.273.973-.013-.05.008-.083.02-.116-.004.08.33.337.58.466.646.239 1.375.248 1.95.227-1.242.519-3.61-.527-4.386-1.915"/>
    <path fill="#a80030" d="M10.259 12.588q0-.006.004-.011zm-2.274-1.566c.274.527.422.689.622 1.08-.278-.232-.45-.552-.668-.848zm.255-.455c.077.153.145.307.26.434l.102.3c-.14-.234-.289-.465-.362-.734m9.37-1.546a5.8 5.8 0 0 1-.625 1.965 5.9 5.9 0 0 0 .578-1.843zm-5.188 1.503a4 4 0 0 1-.324.28c-.433-.067-.827-.233-.495-.238.276.026.55.024.82-.042m1.35-1.28a2.1 2.1 0 0 1-.392.879c.024-.234-.55.101.116-.737-.058.236-.62.858 0 .468.112-.2.232-.39.276-.61m.094-1.01c.053-.227.21-.416.17.181-.06.24-.108-.149-.17-.18M2.177 5.8c-.04.184-.058.376-.162.694.03-.25-.124-.328.162-.694m.368-1.518c-.003.198.332-.196.09.348-.45.315-.039.13-.09-.348M10.69.372l-.116.01.125-.026zm-.344-.114c.59.017.547.056.353.098.029-.042-.176-.066-.353-.098M11.2 0c-.238.054-.565.017-.789.1l-.134-.02c.305-.039.613-.054.923-.08"/>
</svg>
