<svg xmlns="http://www.w3.org/2000/svg" width="20" height="20" fill="none" viewBox="0 0 20 20">
    <path fill="#4d6bfe" d="M17.832 4.988c-.17-.083-.243.075-.341.156-.034.026-.063.06-.092.09-.248.265-.537.439-.915.418-.553-.03-1.025.143-1.442.565-.089-.521-.383-.832-.831-1.032-.235-.104-.472-.207-.637-.433-.115-.16-.146-.34-.203-.516-.037-.107-.074-.215-.196-.233-.133-.021-.185.09-.237.184a2.43 2.43 0 0 0-.281 1.226c.018.958.422 1.72 1.225 2.262.091.062.115.125.086.216-.055.186-.12.368-.177.555-.037.12-.092.145-.22.093a3.7 3.7 0 0 1-1.157-.786c-.571-.552-1.087-1.162-1.731-1.639a8 8 0 0 0-.46-.314c-.656-.638.087-1.162.259-1.224.18-.065.062-.288-.52-.285-.58.002-1.113.196-1.79.456q-.152.058-.31.091a6.4 6.4 0 0 0-1.923-.068c-1.256.14-2.26.735-2.998 1.749-.886 1.218-1.095 2.604-.84 4.048.269 1.522 1.046 2.783 2.24 3.768 1.239 1.022 2.665 1.523 4.292 1.427.988-.057 2.089-.19 3.33-1.24.313.156.641.218 1.186.265.42.039.824-.02 1.137-.086.49-.104.456-.558.28-.64-1.437-.67-1.122-.397-1.41-.618.731-.864 1.831-1.761 2.262-4.668.033-.232.005-.377 0-.564-.003-.113.023-.158.153-.17.361-.038.71-.145 1.03-.317.931-.509 1.307-1.343 1.396-2.345.013-.153-.003-.31-.165-.391M9.721 14c-1.393-1.095-2.068-1.455-2.347-1.44-.261.016-.214.314-.157.509.06.192.138.324.248.492.076.112.128.278-.076.402-.448.278-1.228-.093-1.264-.111-.908-.535-1.667-1.24-2.201-2.205a6.7 6.7 0 0 1-.865-2.988c-.014-.257.062-.348.318-.394a3.1 3.1 0 0 1 1.019-.026c1.421.208 2.63.843 3.645 1.849.579.573 1.017 1.258 1.468 1.927.48.711.996 1.388 1.654 1.943.232.195.416.343.594.451-.535.06-1.427.074-2.036-.409m.666-4.293a.203.203 0 0 1 .277-.192.2.2 0 0 1 .133.192.203.203 0 0 1-.206.205.2.2 0 0 1-.204-.205m2.074 1.064c-.134.054-.266.1-.394.106a.83.83 0 0 1-.532-.169c-.182-.153-.313-.239-.368-.505a1.2 1.2 0 0 1 .011-.392c.047-.218-.005-.358-.16-.485-.124-.104-.283-.133-.458-.133a.4.4 0 0 1-.17-.052.17.17 0 0 1-.075-.238.8.8 0 0 1 .128-.14c.237-.135.511-.091.764.01.234.096.412.272.667.522.26.3.308.384.457.609.117.177.224.358.296.565.045.13-.012.236-.166.302"/>
</svg>
