<svg xmlns="http://www.w3.org/2000/svg" viewBox="0 0 20 20">
    <path fill="#3a4d54" d="M11.53 7.94h1.77v1.8h.89c.41 0 .83-.08 1.22-.2.19-.06.41-.16.59-.27-.25-.33-.38-.73-.41-1.14-.05-.55.06-1.27.44-1.69l.19-.22.22.17c.56.45 1.02 1.06 1.11 1.78.67-.2 1.45-.16 2.05.19l.23.14-.13.25c-.5.97-1.55 1.28-2.56 1.22-1.53 3.8-4.84 5.59-8.88 5.59-2.08 0-3.98-.78-5.08-2.63l-.02-.03-.16-.33c-.38-.82-.48-1.7-.41-2.59l.03-.27h1.5V7.94h1.77V6.19h3.52V4.42h2.11v3.52z" clipRule="evenodd" fillRule="evenodd"/>
    <path fill="#00aada" d="M17.25 8.61c.13-.92-.56-1.64-1-1.99-.48.56-.56 2.06.2 2.69-.44.38-1.33.73-2.27.73H2.91c-.09.97.08 1.86.47 2.63l.13.23c.08.14.17.27.27.41.47.03.89.05 1.28.03.77-.02 1.39-.11 1.88-.27.08-.03.14.02.17.08.03.08-.02.14-.08.17-.06.02-.13.05-.2.06-.38.11-.78.17-1.3.2h-.09c-.2.02-.42.02-.66.02-.25 0-.48 0-.77-.02.94 1.06 2.41 1.69 4.25 1.69 3.91 0 7.22-1.73 8.67-5.61 1.05.11 2.05-.16 2.5-1.05-.7-.42-1.64-.28-2.17-.02z"/>
    <path fill="#28b8eb" d="M17.25 8.61c.13-.92-.56-1.64-1-1.99-.48.56-.56 2.06.2 2.69-.44.38-1.33.73-2.27.73H3.55c-.05 1.48.5 2.61 1.48 3.28.77-.02 1.39-.11 1.88-.27.08-.03.14.02.17.08.03.08-.02.14-.08.17-.06.02-.13.05-.2.06-.38.11-.81.19-1.33.22l-.02-.02c1.33.69 3.25.67 5.47-.17 2.47-.95 4.78-2.77 6.39-4.83-.03.02-.06.02-.08.03z"/>
    <path fill="#028bb8" d="M2.92 11.22c.06.52.22 1 .45 1.45l.13.23c.08.14.17.27.27.41.47.03.89.05 1.28.03.77-.02 1.39-.11 1.88-.27.08-.03.14.02.17.08.03.08-.02.14-.08.17-.06.02-.13.05-.2.06-.38.11-.81.19-1.33.22h-.06c-.2.02-.42.02-.64.02-.25 0-.5 0-.77-.02.94 1.06 2.42 1.69 4.27 1.69 3.34 0 6.25-1.27 7.94-4.06H2.92v-.02z"/>
    <path fill="#019bc6" d="M3.67 11.22c.2.91.67 1.63 1.38 2.11.77-.02 1.39-.11 1.88-.27.08-.03.14.02.17.08.03.08-.02.14-.08.17-.06.02-.13.05-.2.06-.38.11-.81.19-1.34.22 1.33.69 3.25.67 5.45-.17 1.33-.52 2.63-1.28 3.78-2.2z"/>
    <path fill="#00acd3" d="M4.44 8.23h1.53v1.53H4.44zm.13.13h.13v1.27h-.13zm.22 0h.13v1.27h-.13zm.23 0h.13v1.27h-.13zm.23 0h.13v1.27h-.13zm.23 0h.13v1.27h-.13zm.23 0h.13v1.27h-.13zm.47-1.88h1.53v1.53H6.18zm.14.13h.13v1.27h-.13zm.22 0h.13v1.27h-.13zm.23 0h.13v1.27h-.13zm.23 0h.13v1.27H7zm.22 0h.13v1.27h-.13zm.23 0h.13v1.27h-.13z" clipRule="evenodd" fillRule="evenodd"/>
    <path fill="#23c2ee" d="M6.19 8.23h1.53v1.53H6.19zm.14.13h.13v1.27h-.13zm.22 0h.13v1.27h-.13zm.23 0h.13v1.27h-.13zm.23 0h.13v1.27h-.13zm.22 0h.13v1.27h-.13zm.23 0h.13v1.27h-.13z" clipRule="evenodd" fillRule="evenodd"/>
    <path fill="#00acd3" d="M7.95 8.23h1.53v1.53H7.95zm.13.13h.13v1.27h-.13zm.23 0h.13v1.27h-.13zm.23 0h.13v1.27h-.13zm.22 0h.13v1.27h-.13zm.23 0h.13v1.27h-.13zm.23 0h.13v1.27h-.13z" clipRule="evenodd" fillRule="evenodd"/>
    <path fill="#23c2ee" d="M7.95 6.48h1.53v1.53H7.95zm.13.13h.13v1.27h-.13zm.23 0h.13v1.27h-.13zm.23 0h.13v1.27h-.13zm.22 0h.13v1.27h-.13zm.23 0h.13v1.27h-.13zm.23 0h.13v1.27h-.13zm.48 1.63h1.53v1.53H9.7zm.13.13h.13v1.27h-.13zm.23 0h.13v1.27h-.13zm.22 0h.13v1.27h-.13zm.23 0h.13v1.27h-.13zm.23 0h.13v1.27h-.13zm.23 0h.13v1.27h-.13z" clipRule="evenodd" fillRule="evenodd"/>
    <path fill="#00acd3" d="M9.72 6.48h1.53v1.53H9.72zm.13.13h.13v1.27h-.13zm.23 0h.13v1.27h-.13zm.22 0h.13v1.27h-.13zm.23 0h.13v1.27h-.13zm.23 0h.13v1.27h-.13zm.23 0h.13v1.27h-.13z" clipRule="evenodd" fillRule="evenodd"/>
    <path fill="#23c2ee" d="M9.72 4.72h1.53v1.53H9.72zm.13.13h.13v1.27h-.13zm.23 0h.13v1.27h-.13zm.22 0h.13v1.27h-.13zm.23 0h.13v1.27h-.13zm.23 0h.13v1.27h-.13zm.23 0h.13v1.27h-.13z" clipRule="evenodd" fillRule="evenodd"/>
    <path fill="#00acd3" d="M11.48 8.23h1.53v1.53h-1.53zm.13.13h.13v1.27h-.13zm.22 0h.13v1.27h-.13zm.23 0h.13v1.27h-.13zm.23 0h.13v1.27h-.13zm.23 0h.13v1.27h-.13zm.23 0h.13v1.27h-.13z" clipRule="evenodd" fillRule="evenodd"/>
    <path fill="#d4eef1" d="M7.63 12.23c.23 0 .42.19.42.42s-.19.42-.42.42-.42-.19-.42-.42.19-.42.42-.42" clipRule="evenodd" fillRule="evenodd"/>
    <path fill="#3a4d54" d="M7.63 12.36c.03 0 .08 0 .11.02-.03.02-.06.06-.06.11 0 .06.06.13.13.13.05 0 .09-.03.11-.06.02.03.02.08.02.11a.3.3 0 0 1-.3.3.3.3 0 0 1-.3-.3c0-.16.13-.3.3-.3m-7.47-.99h19.6c-.42-.11-1.34-.25-1.2-.81-.78.89-2.64.62-3.13.19-.53.77-3.59.47-3.8-.13-.66.78-2.7.78-3.36 0-.22.59-3.28.89-3.8.13-.47.44-2.34.71-3.13-.19.17.56-.77.72-1.2.81" clipRule="evenodd" fillRule="evenodd"/>
    <path fill="#bfdbe0" d="M8.75 15.28c-1.05-.5-1.61-1.17-1.94-1.91-.39.11-.86.19-1.39.22-.2.02-.42.02-.64.02-.21 0-.53 0-.81-.02.94.94 2.13 1.68 4.3 1.69z"/>
    <path fill="#d4eef1" d="M7.2 13.98c-.14-.2-.28-.44-.39-.67-.39.11-.86.19-1.39.22.36.19.89.38 1.78.45"/>
</svg>
