<svg xmlns="http://www.w3.org/2000/svg" width="20" height="20" fill="none" viewBox="0 0 20 20">
    <path fill="#009cde" d="M13.303 4.26c-1.407-1.407-2.75-2.748-3.15-4.26-.4 1.512-1.742 2.853-3.15 4.26C4.894 6.37 2.5 8.76 2.5 12.345a7.653 7.653 0 1 0 15.307 0c0-3.585-2.393-5.976-4.504-8.085m-7.55 9.869c-.47-.016-2.201-3.002 1.012-6.18L8.89 10.27a.18.18 0 0 1-.014.272c-.508.52-2.67 2.689-2.939 3.438-.055.155-.136.15-.185.148m4.4 3.934A2.63 2.63 0 0 1 7.52 15.43c.01-.638.242-1.253.656-1.739.475-.58 1.976-2.213 1.976-2.213s1.478 1.657 1.972 2.208c.43.478.666 1.1.66 1.744a2.63 2.63 0 0 1-2.632 2.632m5.039-4.269c-.057.124-.186.332-.36.338-.31.011-.342-.147-.571-.486-.502-.744-4.887-5.326-5.707-6.212-.722-.78-.102-1.33.186-1.617.36-.362 1.413-1.414 1.413-1.414s3.14 2.979 4.447 5.014c1.308 2.035.857 3.796.592 4.377"/>
</svg>
