<svg xmlns="http://www.w3.org/2000/svg" width="20" height="20" fill="none" viewBox="0 0 20 20">
    <path fill="#f0bf1a" d="M15.21 5.599H1.617a.624.624 0 0 1-.622-.622V.622c0-.342.28-.622.622-.622h17.73c.342 0 .622.28.622.622V.84c-.031 2.613-2.146 4.759-4.759 4.759"/>
    <path fill="#3ebeb0" d="M20 19.907H1.058v-5.599h14.214A4.726 4.726 0 0 1 20 19.036z"/>
    <path fill="#07a5de" d="M14.09 12.753H0V7.154h14.09c1.556 0 2.8 1.244 2.8 2.8s-1.276 2.799-2.8 2.799"/>
    <path fill="#231f20" d="M9.705 7.154H.498v5.599h9.207c.217-.84.342-1.773.342-2.8s-.125-1.96-.342-2.799"/>
    <path fill="#d7a229" d="M5.94 1.338a10.24 10.24 0 0 0-3.95 4.26h7.341c-.746-1.71-1.928-3.14-3.39-4.26"/>
    <path fill="#019b8f" d="M6.252 18.725a11.1 11.1 0 0 0 3.297-4.417H1.991a10.25 10.25 0 0 0 4.26 4.417"/>
</svg>
