<svg xmlns="http://www.w3.org/2000/svg" width="21" height="20" fill="none" viewBox="0 0 21 20">
    <path fill="#51a2da" d="M10.807.25C5.34.25.91 4.612.902 9.996H.9v7.544h.002c.002 1.222 1.008 2.21 2.249 2.21h7.654c5.467-.003 9.895-4.364 9.895-9.746 0-5.385-4.431-9.746-9.905-9.746zm2.011 4.013c1.662 0 3.232 1.253 3.232 2.983 0 .16 0 .32-.026.502a.824.824 0 0 1-.937.726.815.815 0 0 1-.695-.955 2 2 0 0 0 .011-.274c0-.98-.815-1.358-1.584-1.358s-1.464.638-1.465 1.358c.013.835 0 1.662 0 2.495l1.43-.01c1.115-.023 1.128 1.632.012 1.624l-1.441.01c-.004.671.005.55.001.888 0 0 .012.82-.012 1.442-.173 1.827-1.752 3.287-3.65 3.287-2.013 0-3.67-1.619-3.67-3.605.06-2.042 1.714-3.649 3.798-3.63l1.162-.009v1.621l-1.162.01h-.006c-1.145.034-2.126.8-2.145 2.007 0 1.1.902 1.981 2.022 1.981s2.015-.801 2.015-1.979l-.002-6.139c0-.114.004-.204.017-.33.189-1.502 1.553-2.646 3.097-2.646z"/>
</svg>
