<svg xmlns="http://www.w3.org/2000/svg" width="20" height="20" fill="none" viewBox="0 0 20 20">
    <path stroke="#2088ff" stroke-linecap="round" stroke-linejoin="round" stroke-width="2" d="M2.917 2.838c0-.328.361-.527.638-.352l2.13 1.342a.416.416 0 0 1-.002.706l-2.13 1.321a.417.417 0 0 1-.636-.354z"/>
    <path fill="#2088ff" fill-rule="evenodd" d="M4.167.833a3.333 3.333 0 1 0 0 6.667 3.333 3.333 0 0 0 0-6.667M0 4.167a4.167 4.167 0 1 1 8.333 0 4.167 4.167 0 0 1-8.333 0M9.583 15a2.083 2.083 0 1 0 0 4.167 2.083 2.083 0 0 0 0-4.167m-2.916 2.083a2.917 2.917 0 1 1 5.833 0 2.917 2.917 0 0 1-5.833 0" clip-rule="evenodd"/>
    <path fill="#2088ff" fill-rule="evenodd" d="M3.75 7.5c.23 0 .417.187.417.417v6.25c0 1.379 1.135 2.5 2.5 2.5h.416a.417.417 0 1 1 0 .833h-.416a3.345 3.345 0 0 1-3.334-3.333v-6.25c0-.23.187-.417.417-.417m5.833.833a2.083 2.083 0 1 0 0 4.167 2.083 2.083 0 0 0 0-4.167m-2.916 2.084a2.917 2.917 0 1 1 5.833 0 2.917 2.917 0 0 1-5.833 0" clip-rule="evenodd"/>
    <path fill="#2088ff" fill-rule="evenodd" d="M10.727 9.542a.417.417 0 0 1 0 .589l-1.28 1.277a.417.417 0 0 1-.588 0l-.621-.618a.417.417 0 0 1 .588-.59l.327.325.984-.984a.417.417 0 0 1 .59 0m6.356-1.208a2.083 2.083 0 1 0 0 4.167 2.083 2.083 0 0 0 0-4.167m-2.916 2.084a2.917 2.917 0 1 1 5.833 0 2.917 2.917 0 0 1-5.833 0" clip-rule="evenodd"/>
    <path fill="#2088ff" fill-rule="evenodd" d="M18.227 9.542a.417.417 0 0 1 0 .589l-1.28 1.277a.417.417 0 0 1-.588 0l-.621-.618a.417.417 0 0 1 .588-.59l.327.325.984-.984a.417.417 0 0 1 .59 0" clip-rule="evenodd"/>
    <path fill="#2088ff" d="M7.062 10.833a.417.417 0 1 0 0-.833zM3.333 7.931c0 1.603 1.3 2.902 2.902 2.902V10a2.07 2.07 0 0 1-2.068-2.069zm2.902 2.902h.827V10h-.827z"/>
    <path fill="#2088ff" fill-rule="evenodd" d="M11.69 10.417c0-.23.186-.417.416-.417h2.477a.417.417 0 1 1 0 .833h-2.477a.417.417 0 0 1-.416-.416" clip-rule="evenodd"/>
    <path fill="#79b8ff" fill-rule="evenodd" d="M8.75 16.667a.417.417 0 1 1 0 .833.417.417 0 0 1 0-.834m1.667.001a.417.417 0 1 1 0 .833.417.417 0 0 1 0-.834M17.083 15a2.083 2.083 0 1 0 0 4.167 2.083 2.083 0 0 0 0-4.167m-2.916 2.083a2.917 2.917 0 1 1 5.833 0 2.917 2.917 0 0 1-5.833 0" clip-rule="evenodd"/>
    <path fill="#79b8ff" d="m14.169 17.086-.422.014Z"/>
    <path fill="#79b8ff" fill-rule="evenodd" d="M14.585 17.073a.417.417 0 0 1-.403.43l-.422.013a.417.417 0 1 1-.027-.833l.422-.013a.417.417 0 0 1 .43.402" clip-rule="evenodd"/>
</svg>
