<svg xmlns="http://www.w3.org/2000/svg" width="20" height="20" fill="none" viewBox="0 0 20 20">
    <path fill="#e24329" d="M10 19.424 13.683 8.09H6.317z"/>
    <path fill="#fc6d26" d="M10 19.424 6.317 8.09h-5.16z"/>
    <path fill="#fca326" d="M1.156 8.09.037 11.534a.76.76 0 0 0 .277.852L10 19.424z"/>
    <path fill="#e24329" d="M1.156 8.09h5.161L4.1 1.263a.381.381 0 0 0-.726 0z"/>
    <path fill="#fc6d26" d="M10 19.424 13.683 8.09h5.16z"/>
    <path fill="#fca326" d="m18.844 8.09 1.119 3.444a.76.76 0 0 1-.277.852L10 19.424z"/>
    <path fill="#e24329" d="M18.844 8.09h-5.161L15.9 1.263a.381.381 0 0 1 .725 0z"/>
</svg>
