<svg xmlns="http://www.w3.org/2000/svg" width="20" height="20" fill="none" viewBox="0 0 20 20">
    <path fill="url(#a)" d="M19.375 8.826a7.5 7.5 0 0 0-.199-1.151 7 7 0 0 0-.518-1.377 7.7 7.7 0 0 0-.964-1.477 7 7 0 0 0-.523-.562c.28-1.119-.342-2.088-.342-2.088-1.074-.066-1.757.336-2.01.518-.045-.017-.084-.039-.128-.055a8 8 0 0 0-.567-.204 9 9 0 0 0-.595-.166 8 8 0 0 0-.617-.12l-.11-.017C12.333.628 10.989 0 10.989 0 9.485.953 9.204 2.287 9.204 2.287l-.017.077c-.082.022-.165.05-.248.071a4 4 0 0 0-.341.121 9 9 0 0 0-.342.138q-.34.15-.672.33a9 9 0 0 0-.628.392L6.9 3.394c-2.083-.793-3.929.16-3.929.16-.17 2.215.832 3.609 1.03 3.862q-.072.207-.137.413a9.6 9.6 0 0 0-.342 1.548c-.01.078-.022.155-.027.232C1.567 10.562 1 12.507 1 12.507c1.603 1.846 3.477 1.961 3.477 1.961l.005-.005q.356.636.821 1.206c.132.16.264.309.408.458-.584 1.675.082 3.063.082 3.063 1.785.066 2.96-.782 3.207-.975a7.9 7.9 0 0 0 2.634.413h.198l.088-.005v.005C12.763 19.83 14.24 20 14.24 20c1.052-1.107 1.113-2.21 1.113-2.446v-.1q.33-.23.628-.5a6.8 6.8 0 0 0 1.096-1.285l.083-.132c1.19.066 2.033-.738 2.033-.738-.199-1.24-.904-1.846-1.053-1.961-.148-.116-.005-.006-.016-.012-.011-.005-.011-.01-.011-.01a.1.1 0 0 0-.028-.017l.017-.226c.01-.132.01-.27.01-.402v-.21l-.005-.082-.005-.11q-.002-.057-.011-.105c-.006-.033-.006-.072-.011-.105l-.011-.104-.017-.105a5 5 0 0 0-.077-.408 5.4 5.4 0 0 0-.606-1.498 5 5 0 0 0-1.008-1.202 5 5 0 0 0-2.678-1.218 4.4 4.4 0 0 0-.71-.038h-.177l-.088.006c-.033 0-.066.005-.094.005a3.9 3.9 0 0 0-1.67.545 4 4 0 0 0-1.007.86c-.276.33-.49.7-.64 1.08a3.8 3.8 0 0 0-.253 1.157c-.005.094-.005.193-.005.287v.071l.005.077c.006.044.006.094.011.138a3 3 0 0 0 .579 1.515c.203.276.451.502.71.684.26.176.54.303.816.385s.55.116.81.116h.143q.025.002.05-.006c.027 0 .055-.005.082-.005.006 0 .017 0 .022-.006l.028-.005c.016 0 .033-.006.05-.006l.093-.016a.4.4 0 0 0 .088-.022c.06-.011.116-.033.17-.05.111-.038.221-.082.315-.132.1-.05.187-.11.276-.165.021-.017.05-.033.071-.056a.21.21 0 0 0 .033-.291.2.2 0 0 0-.259-.05l-.066.033a1.8 1.8 0 0 1-.496.165l-.138.017c-.022 0-.044.005-.071.005h-.132q-.042.001-.083-.005h-.033c-.011 0-.028 0-.039-.006-.027-.005-.05-.005-.077-.01a2.2 2.2 0 0 1-.6-.177 2.1 2.1 0 0 1-.557-.364 2.1 2.1 0 0 1-.672-1.228 2 2 0 0 1-.022-.37c0-.033.005-.066.005-.099v-.044c0-.016.006-.033.006-.05q.01-.098.028-.198a2.65 2.65 0 0 1 1.096-1.708 2.57 2.57 0 0 1 1.432-.452h.171l.06.006q.239.015.47.072a3.3 3.3 0 0 1 2.226 1.719c.148.292.253.606.302.93q.018.125.028.249l.005.06.006.061v.237c0 .038-.006.105-.006.143a5 5 0 0 1-.027.27q-.018.132-.044.265a4.6 4.6 0 0 1-.226.771c-.133.33-.309.65-.518.942a4.26 4.26 0 0 1-1.664 1.361c-.33.149-.678.259-1.036.314a3.5 3.5 0 0 1-.54.055h-.275c-.1 0-.193-.005-.292-.016a6 6 0 0 1-1.14-.204 6 6 0 0 1-1.07-.43 5.65 5.65 0 0 1-2.38-2.419 5.7 5.7 0 0 1-.408-1.052q-.148-.546-.187-1.107l-.005-.072v-.491A6.6 6.6 0 0 1 6.3 9.147a7.4 7.4 0 0 1 .529-1.625A6 6 0 0 1 8.041 5.77c.122-.122.248-.232.38-.342q.199-.157.414-.298c.137-.093.286-.176.435-.253q.11-.06.226-.11l.116-.05.115-.05a5 5 0 0 1 .48-.17c.038-.011.082-.022.12-.039l.122-.033q.124-.035.248-.06c.039-.011.083-.017.127-.028s.082-.016.126-.027c.045-.006.083-.017.127-.022l.06-.012.067-.01c.044-.006.082-.012.127-.017l.143-.017c.038-.005.104-.01.143-.016.028-.006.06-.006.088-.011l.06-.006.028-.005h.033c.05-.006.094-.006.144-.011l.071-.006h.055c.039 0 .083-.005.122-.005a6.5 6.5 0 0 1 1.422.105 6.76 6.76 0 0 1 3.102 1.477c.027.021.049.043.076.065.022.022.05.044.072.066.05.044.093.088.143.133q.074.066.138.132.066.064.132.138a7.2 7.2 0 0 1 1.174 1.647L18.51 8l.033.066q.034.066.06.132c.022.044.039.083.06.127.017.044.04.083.056.127.066.165.132.325.182.474.082.242.143.457.193.644a.147.147 0 0 0 .165.116.15.15 0 0 0 .143-.154c.006-.199 0-.436-.027-.706"/>
    <defs>
        <linearGradient id="a" x1="10.201" x2="10.201" y1="-.039" y2="-.001" gradientUnits="userSpaceOnUse">
            <stop stop-color="#f05a28"/>
            <stop offset="1" stop-color="#fbca0a"/>
        </linearGradient>
    </defs>
</svg>
