<svg xmlns="http://www.w3.org/2000/svg" width="20" height="20" fill="none" viewBox="0 0 20 20">
    <path fill="#d33833" d="M17.249 9.637c0 3.961-3.14 7.176-7.017 7.176-3.876 0-7.017-3.215-7.017-7.176s3.14-7.175 7.017-7.175c3.876 0 7.017 3.214 7.017 7.175"/>
    <path fill="#ef3d3a" d="M3.504 11.414s-.51-7.48 6.388-7.696l-.48-.804L5.67 4.171 4.6 5.399l-.933 1.788-.532 2.082.158 1.393"/>
    <path fill="#231f20" d="M5.428 4.742a7.04 7.04 0 0 0-1.992 4.924 7.04 7.04 0 0 0 1.992 4.923 6.7 6.7 0 0 0 4.804 2.037c1.879 0 3.57-.775 4.805-2.037a7.04 7.04 0 0 0 1.991-4.923 7.04 7.04 0 0 0-1.991-4.924c-1.234-1.256-2.926-2.037-4.805-2.037-1.873 0-3.57.775-4.804 2.037M5.116 14.89A7.45 7.45 0 0 1 3 9.666c0-2.038.81-3.888 2.116-5.23a7.14 7.14 0 0 1 5.116-2.167c1.998 0 3.809.832 5.116 2.168a7.46 7.46 0 0 1 2.116 5.229c0 2.037-.81 3.887-2.116 5.223a7.12 7.12 0 0 1-10.232 0"/>
    <path fill="#f0d6b7" d="m13.186 9.677-1.07.158-1.442.164-.934.023-.911-.028-.696-.215-.617-.668-.481-1.364-.108-.294-.64-.215-.373-.617-.266-.883.295-.775.696-.243.56.266.266.588.322-.05.108-.137-.108-.616-.028-.776.159-1.07-.006-.61.487-.781.854-.617 1.494-.64 1.658.244 1.443 1.041.668 1.07.43.775.107 1.924-.322 1.658-.589 1.471-.554.787"/>
    <path fill="#335061" d="m12.28 14.3-3.82.159v.639l.323 2.247-.158.186-2.671-.91-.187-.323-.266-3.022-.628-1.811-.136-.43 2.14-1.471.667-.266.589.724.509.453.588.186.266.08.323 1.392.243.294.617-.215-.43.832 2.32 1.098z"/>
    <path fill="#6d6b6d" d="m5.943 4.974.696-.243.56.266.266.588.322-.05.08-.323-.159-.617.159-1.471-.136-.804.48-.56L9.254.934 8.96.532l-1.471.724-.617.481-.346.747-.531.725-.159.854z"/>
    <path fill="#dcd9d8" d="M7.04 2.462s.402-.99 2.004-1.472c1.601-.48.079-.345.079-.345l-1.737.668-.668.668-.294.532zm-.803 2.326s-.56-1.874 1.579-2.14l-.08-.322-1.47.345-.43 1.392.107.911z"/>
    <path fill="#f7e4cd" d="m7.091 7.272.351-.34s.159.017.187.204.107 1.873 1.256 2.778c.108.085-.854-.135-.854-.135l-.855-1.336zm4.918-.51s.062-.809.283-.746c.22.062.22.282.22.282s-.531.34-.503.464m2.218-2.965s-.441.09-.48.481c-.04.39.48.08.56.051zm-3.231.029s-.589.079-.589.452c0 .374.668.345.855.187zM7.363 5.563s-1.013-.617-1.12-.028c-.108.588-.346 1.012.158 1.63l-.345-.108-.323-.826-.107-.804.617-.64.696.051.401.323zm.481-1.687s.453-2.354 2.75-2.806c1.89-.374 2.886.079 3.26.509 0 0-1.687-2.003-3.288-1.392-1.602.617-2.779 1.737-2.75 2.456.045 1.233.028 1.233.028 1.233m6.196-2.031s-.775-.028-.803.668c0 0 0 .107.05.215 0 0 .618-.696.991-.323"/>
    <path fill="#f7e4cd" d="M10.65 2.801s-.135-1.064-1.04-.447c-.589.402-.532.962-.43 1.07.107.107.079.322.158.175.08-.147.057-.628.35-.764.29-.136.776-.283.963-.034"/>
    <path fill="#49728b" d="m8.138 10.022-2.512 1.12s1.04 4.143.509 5.427l-.374-.136-.028-1.578-.696-2.988-.294-.826 2.62-1.766zm.255 2.292.356.436v1.601h-.424s-.05-1.12-.05-1.256.05-.617.05-.617zm.011 2.28-1.205.051.345.244.855.136"/>
    <path fill="#335061" d="m12.518 14.328.99-.028.244 2.456-1.013.136z"/>
    <path fill="#335061" d="m12.784 14.328 1.494-.079s.617-1.55.617-1.63.532-2.246.532-2.246l-1.205-1.256-.244-.215-.64.639v2.484z"/>
    <path fill="#49728b" d="m13.452 14.142-.934.186.136.747c.345.159.934-.266.934-.266zm.028-4.68 1.873 1.392.051-.64-1.414-1.307z"/>
    <path fill="#fff" d="m9.332 19.591-.554-2.246-.278-1.658-.045-1.228 2.507-.136h1.556l-.141 2.807.243 2.167-.028.402-2.032.158z"/>
    <path fill="#dcd9d8" d="M12.173 14.3s-.136 2.779.266 4.76c0 0-.803.509-1.975.639l2.247-.08.266-.158-.323-4.38-.085-.94"/>
    <path fill="#fff" d="m13.792 16.547 1.04-.295 1.976-.107.294-.911-.532-1.579-.617-.08-.854.267-.815.402-.436-.08-.34.136"/>
    <path fill="#dcd9d8" d="M13.774 16.01s.697-.323.804-.295l-.294-1.471.345-.136s.243 1.392.243 1.55c0 0 1.494.08 1.63.08 0 0 .323-.617.243-1.257l.295.855.028.48-.43.64-.481.108-.804-.029-.266-.345-.933.136-.295.108"/>
    <path fill="#fff" d="m12.722 14.113-.589-1.494-.616-.882s.135-.374.322-.374h.617l.589.215-.051.99z"/>
    <path fill="#dcd9d8" d="M12.84 13.604s-.746-1.443-.746-1.658c0 0 .136-.323.322-.243.187.079.589.294.589.294v-.51l-.911-.186-.617.08 1.041 2.467.215.028"/>
    <path fill="#fff" d="m9.57 10.079-.741-.08-.696-.215v.244l.34.373 1.069.481"/>
    <path fill="#dcd9d8" d="M8.376 10.158s.826.345 1.098.266l.028.322-.747-.158-.453-.323z"/>
    <path fill="#d33833" d="M13.791 11.454a5 5 0 0 1-1.222-.17c.023-.147-.023-.289.017-.396.102-.074.266-.074.419-.09a.72.72 0 0 0-.464-.052c-.006-.101-.051-.164-.08-.243.255-.09.855-.685 1.195-.492.164.096.232.628.243.894.011.215-.023.43-.108.549m-2.167-.742q.001.051-.006.102c-.14.09-.367.09-.526.17.227.011.408.068.566.142-.006.084-.006.175-.011.26-.26.175-.498.441-.804.61-.147.08-.65.284-.803.244-.085-.022-.096-.13-.13-.232-.074-.215-.244-.566-.26-.894-.018-.413-.063-1.109.384-1.024a3.9 3.9 0 0 1 1.058.385c.176.102.272.215.532.237m.255.493c-.04-.227-.085-.289-.068-.487.605-.402.713.69.068.487"/>
    <path fill="#ef3d3a" d="M12.75 11.386s-.187-.266-.05-.345c.135-.08.265 0 .344-.136.08-.136 0-.215.029-.374.028-.158.158-.186.294-.215s.51-.079.56.051l-.158-.48-.323-.108-1.013.588-.05.294v.589zm-2.807.883-.101-1.251c-.057-.623.147-.515.69-.515.085 0 .51.096.537.159.148.3-.243.231.17.458.345.187.962-.113.82-.538-.079-.096-.407-.028-.525-.09l-.629-.323c-.266-.136-.877-.34-1.16-.147-.718.487.046 1.709.3 2.218"/>
    <path fill="#231f20" d="M10.65 2.801c-.73-.17-1.091.306-1.312.798-.198-.045-.119-.317-.068-.453.13-.356.657-.837 1.087-.77.18.023.43.193.294.425m3.549.826h.034c.164.34.306.702.515 1.008-.141.328-1.053.61-1.041.034.198-.085.537-.017.713-.13-.102-.278-.244-.516-.221-.912m-3.18.012c.158.288.209.588.43.803.102.097.294.215.198.487-.023.062-.187.204-.283.232-.345.102-1.155.023-.883-.413.289.011.674.187.889-.023-.165-.26-.459-.78-.351-1.086m3.05 2.908c-.52.334-1.104.702-1.964.617-.18-.158-.254-.515-.073-.747.09.159.034.453.294.498.487.085 1.052-.3 1.403-.43.215-.368-.017-.498-.215-.735-.401-.481-.933-1.081-.916-1.8.164-.119.175.181.198.232.209.487.735 1.115 1.114 1.534.097.101.25.203.266.271.051.193-.13.43-.107.56m-6.893-.35c-.164-.097-.203-.504-.396-.515-.277-.017-.226.532-.226.854-.187-.17-.22-.702-.085-.973-.159-.08-.226.085-.317.141.119-.82 1.205-.379 1.024.493m7.221.696c-.243.464-.588.973-1.302.99-.017-.147-.028-.38 0-.47.55-.056.889-.334 1.302-.52m-3.418.3c.453.237 1.29.266 1.913.249.034.135.034.305.034.47-.798.033-1.738-.165-1.947-.72m-.085.44c.317.793 1.398.703 2.309.68-.04.102-.124.226-.238.266-.294.119-1.098.21-1.505-.006-.255-.135-.424-.447-.566-.628-.062-.085-.402-.305 0-.311"/>
    <path fill="#81b0c4" d="M14.03 11.997c-.369.634-.725 1.284-1.16 1.84.18-.538.26-1.444.288-2.134.385-.181.713.04.871.294"/>
    <path fill="#231f20" d="M16.016 14.272c-.414.085-.702.486-1.11.458.227-.311.611-.447 1.11-.458m.18.645c-.339.034-.735.09-1.075.062.165-.249.787-.158 1.076-.062m.12.56c-.38.006-.85 0-1.212-.028.215-.232.968-.085 1.211.028"/>
    <path fill="#dcd9d8" d="M13.316 17.005c.057.475.243.957.22 1.477-.208.068-.327.13-.61.13-.017-.441-.08-1.12-.062-1.545.135.012.339-.096.452-.062"/>
    <path fill="#f0d6b7" d="M12.705 9.988c-.192.125-.35.277-.538.413-.407.023-.628-.028-.922-.26.006-.017.034-.011.034-.034.436.192.99-.08 1.426-.119"/>
    <path fill="#81b0c4" d="M10.43 12.948c.119-.515.589-.787 1.013-1.07.436.555.702 1.268.996 1.958-.696-.21-1.403-.543-2.009-.888"/>
    <path fill="#231f20" d="M12.863 17.073c-.017.424.04 1.098.063 1.545.283 0 .401-.062.61-.13.023-.521-.163-1.002-.22-1.477-.113-.04-.317.068-.453.062m-4.368-2.4c.186 1.704.452 3.13.945 4.64 1.092.335 2.405.363 3.372.063-.175-.849-.101-1.884-.203-2.795-.08-.685-.04-1.37-.147-2.066-1.172-.243-2.824-.056-3.967.159m4.244-.146c-.012.73.034 1.454.09 2.184.283-.04.47-.068.73-.13-.084-.702-.073-1.5-.249-2.122-.198.005-.373 0-.571.068m1.42-.12c-.136-.028-.288 0-.413 0 .062.595.204 1.251.255 1.88.198.005.305-.091.47-.12.01-.548-.046-1.307-.312-1.76m2.156 1.97c.42-.102.68-.611.56-1.137-.079-.351-.215-1.02-.367-1.245-.108-.165-.408-.385-.651-.232-.39.248-1.075.322-1.358.622.141.475.186 1.12.243 1.72.487.029 1.08-.136 1.488.04-.283.09-.645.09-.888.226.204.097.668.08.973.006m-3.882-2.54c-.294-.691-.56-1.404-.996-1.959-.424.283-.888.555-1.013 1.07.612.345 1.319.679 2.01.888m.725-2.134c-.029.69-.108 1.596-.289 2.133.436-.56.792-1.205 1.16-1.84-.158-.254-.486-.474-.871-.293m-.82-.289c-.165-.017-.306.193-.522.102-.05.056-.096.113-.147.17.476.577.696 1.392 1.064 2.065.198-.65.176-1.358.22-2.065-.27.011-.423-.255-.616-.272m-.46-.21c-.039-.226-.084-.288-.067-.486.605-.402.713.69.068.487m-.786-.724a3.9 3.9 0 0 0-1.058-.384c-.447-.085-.402.61-.385 1.024.017.328.187.673.26.894.034.102.046.21.13.232.153.034.663-.164.804-.243.306-.165.543-.43.804-.612.005-.084.005-.175.011-.26a1.4 1.4 0 0 0-.566-.141c.153-.08.385-.08.526-.17q-.002-.051.006-.102c-.26-.028-.357-.141-.532-.238M8.432 10c-.232.237.651.554.929.57 0-.146.084-.288.067-.395-.333-.057-.77-.017-.996-.176m2.853.107c0 .023-.029.017-.034.034.3.232.52.283.922.26.181-.13.345-.288.538-.413-.442.04-.996.311-1.426.119m2.614.792c-.011-.26-.08-.798-.243-.894-.34-.198-.94.402-1.194.492.028.08.073.142.079.244a.72.72 0 0 1 .464.05c-.153.018-.317.018-.419.091-.034.108.011.25-.017.396.357.102.77.153 1.222.17.085-.113.12-.328.108-.549m-5.857-.673c-.074-.051-.566-.69-.634-.662-.888.35-1.72.956-2.461 1.533.707 1.522.996 3.384 1.046 5.178.81.38 1.523.928 2.626.985-.13-.9-.243-1.71-.317-2.558-.277-.119-.673.006-.933-.034 0-.311.396-.136.43-.345.022-.159-.221-.17-.142-.419.204.074.311.238.526.3.199-.43 0-1.194.029-1.556.005-.068.034-.374.186-.323.136.045-.005.82.006 1.16.011.317-.04.617.09.815a30 30 0 0 1 3.3-.272c-.255-.107-.555-.209-.883-.396-.181-.101-.741-.31-.792-.48-.085-.272.215-.414.266-.646-.538.294-.64-.283-.77-.684a5.6 5.6 0 0 1-.21-.855c-.469-.238-.967-.458-1.363-.741m5.387-.589c.742-.356.877 1.341.583 1.89.045.164.198.227.26.374-.413.741-.871 1.431-1.296 2.161.312-.198.765-.034 1.132-.18.136-.052.232-.363.334-.612.283-.679.577-1.54.708-2.184.028-.147.113-.47.09-.6-.034-.238-.35-.413-.515-.555-.3-.271-.487-.503-.803-.758-.12.187-.39.311-.493.464M6.35 3.067c-.35.39-.277 1.115-.238 1.636.64-.402 1.483.034 1.477.713.306-.006.113-.38.057-.623-.181-.786.305-1.635.022-2.354-.548.045-.995.266-1.318.628M8.874.81c-.798.227-1.822.81-2.15 1.528.254-.04.43-.164.679-.18.096-.007.22.039.328.01.215-.056.402-.543.566-.724.158-.175.35-.255.48-.413.086-.04.21-.04.216-.164-.034-.04-.074-.068-.12-.057m4.16.215C12.2.554 10.797.204 9.914.645c-.713.357-1.675.945-2.003 1.687.305.718-.09 1.375-.119 2.105-.011.39.181.724.198 1.148-.107.176-.424.193-.645.182-.074-.374-.204-.793-.589-.838-.543-.062-.945.39-.967.86-.029.555.424 1.471 1.07 1.41.248-.023.31-.272.582-.272.147.294-.226.384-.266.594-.011.056.028.266.057.368.119.48.379 1.109.634 1.477.328.47.967.537 1.658.582.124-.266.577-.243.871-.175-.356-.141-.685-.481-.956-.78-.312-.346-.628-.714-.645-1.167.594.82 1.08 1.54 2.156 1.902.814.271 1.765-.125 2.393-.566.26-.181.413-.475.6-.736.69-.996 1.013-2.41.945-3.786-.028-.565-.028-1.131-.22-1.51-.199-.397-.872-.759-1.268-.397-.074-.39.328-.628.798-.486-.334-.436-.685-.951-1.166-1.223m1.55 12.795c.65-.322 1.861-.866 2.263 0 .153.323.328.86.402 1.194.108.464-.119 1.449-.6 1.602-.424.135-.917.13-1.426.028a.8.8 0 0 1-.175-.227c-.362-.01-.708.017-.99.17.028.272-.153.312-.329.368-.124.504.255 1.16.164 1.613-.062.328-.464.379-.758.436a2.2 2.2 0 0 0 .034.486c-.068.25-.368.39-.657.425-.944.113-2.376.164-3.282-.164-.254-.623-.452-1.375-.662-2.083-.883.096-1.601-.379-2.275-.696-.232-.107-.554-.17-.645-.356-.085-.181-.05-.527-.073-.85-.051-.831-.102-1.635-.317-2.484-.096-.384-.272-.718-.39-1.086-.114-.34-.306-.764-.357-1.104-.074-.503.402-.531.702-.752.47-.34.837-.526 1.346-.832.153-.09.606-.317.657-.424.102-.21-.176-.504-.25-.668a2 2 0 0 1-.197-.736 1.43 1.43 0 0 1-.945-.605c-.323-.476-.55-1.353-.266-2.015.022-.05.13-.158.147-.238.034-.158-.062-.367-.068-.537-.028-.866.147-1.613.73-1.873.238-.945 1.086-1.256 1.884-1.726.3-.176.629-.289.968-.413 1.217-.447 3.09-.362 4.103.401.43.323 1.115 1.008 1.358 1.506.65 1.307.6 3.497.147 5.093-.062.215-.147.526-.272.786-.085.181-.35.538-.322.696.034.165.611.6.736.72.22.214.645.497.679.769.04.288-.125.684-.21.962a37 37 0 0 1-.854 2.614"/>
    <path fill="#f7e4cd" d="M10.255 7.39c.034-.045.226-.118.498.012 0 0-.323.05-.295.589l-.136-.029c.006.006-.135-.48-.067-.571"/>
    <path fill="#1d1919" d="M12.597 11.986a.15.15 0 0 1-.147.147.15.15 0 0 1-.147-.147.15.15 0 0 1 .147-.148c.085 0 .147.068.147.148m.148.684a.15.15 0 0 1-.148.148.15.15 0 0 1-.147-.148.15.15 0 0 1 .147-.147c.085 0 .148.063.148.147"/>
</svg>
