<svg xmlns="http://www.w3.org/2000/svg" width="20" height="20" fill="none" viewBox="0 0 20 20">
    <path fill="#f9ae41" d="M19.86 2.711a2.624 2.624 0 0 0-5.221-.37l-.027-.015c-2.146-.967-3.953.747-3.953.747L5.878 7.878l1.889 1.819 3.848-3.781c1.797-1.797 2.776-.58 2.776-.58 1.352 1.142.046 2.495.046 2.495l1.936 1.866c1.581-1.708 1.673-3.198 1.192-4.383a2.624 2.624 0 0 0 2.295-2.603"/>
    <path fill="#ee4035" d="m17.59 14.779.014-.027c.968-2.146-.747-3.953-.747-3.953l-4.805-4.782-1.819 1.89 3.781 3.848c1.797 1.797.58 2.776.58 2.776-1.142 1.352-2.495.046-2.495.046l-1.866 1.936c1.707 1.58 3.198 1.673 4.383 1.192a2.624 2.624 0 1 0 2.974-2.926"/>
    <path fill="#4f91cd" d="m12.093 10.303-3.848 3.78c-1.797 1.798-2.776.582-2.776.582-1.352-1.143-.046-2.496-.046-2.496l-1.936-1.866c-1.58 1.707-1.673 3.198-1.192 4.383A2.624 2.624 0 1 0 5.22 17.66l.027.014c2.146.968 3.953-.747 3.953-.747l4.781-4.805z"/>
    <path fill="#7ac043" d="M5.846 8.245c-1.797-1.797-.58-2.776-.58-2.776 1.142-1.352 2.495-.046 2.495-.046l1.866-1.936c-1.708-1.58-3.198-1.673-4.383-1.192A2.624 2.624 0 1 0 2.271 5.22l-.014.027c-.968 2.146.746 3.953.746 3.953l4.805 4.781 1.819-1.889z"/>
</svg>
