<svg xmlns="http://www.w3.org/2000/svg" width="20" height="20" fill="none" viewBox="0 0 20 20">
    <path fill="url(#a)" fill-rule="evenodd" d="M19.59 6.892c.185.079.317.177.377.3.06.127.036.263-.052.4-.087.135-.24.276-.447.421-.416.29-1.064.604-1.895.922-1.661.638-4.06 1.299-6.804 1.834s-5.315.841-7.252.904c-.968.032-1.78.003-2.377-.09a3 3 0 0 1-.731-.188c-.185-.078-.317-.177-.376-.3-.06-.127-.036-.263.052-.4.087-.135.24-.276.447-.42.416-.291 1.065-.605 1.895-.923 1.661-.638 4.06-1.299 6.804-1.834s5.313-.841 7.25-.904c.968-.032 1.78-.002 2.377.09.298.046.545.109.731.188m-3.107-.194c-1.93.062-4.495.368-7.236.902-2.74.535-5.134 1.195-6.79 1.83-.828.318-1.47.629-1.877.913q-.306.214-.424.398-.115.18-.047.318.068.144.333.26.267.113.71.181c.59.092 1.396.121 2.362.09 1.932-.063 4.498-.369 7.239-.903 2.74-.535 5.134-1.195 6.79-1.83.828-.318 1.47-.628 1.877-.912q.306-.215.424-.399.115-.18.047-.317-.068-.145-.334-.26a3 3 0 0 0-.712-.182c-.59-.091-1.396-.12-2.361-.09" clip-rule="evenodd"/>
    <path fill="url(#b)" fill-rule="evenodd" d="M19.59 6.892c.185.079.317.177.377.3.06.127.036.263-.052.4-.087.135-.24.276-.447.421-.416.29-1.064.604-1.895.922-1.661.638-4.06 1.299-6.804 1.834s-5.315.841-7.252.904c-.968.032-1.78.003-2.377-.09a3 3 0 0 1-.731-.188c-.185-.078-.317-.177-.376-.3-.06-.127-.036-.263.052-.4.087-.135.24-.276.447-.42.416-.291 1.065-.605 1.895-.923 1.661-.638 4.06-1.299 6.804-1.834s5.313-.841 7.25-.904c.968-.032 1.78-.002 2.377.09.298.046.545.109.731.188m-3.107-.194c-1.93.062-4.495.368-7.236.902-2.74.535-5.134 1.195-6.79 1.83-.828.318-1.47.629-1.877.913q-.306.214-.424.398-.115.18-.047.318.068.144.333.26.267.113.71.181c.59.092 1.396.121 2.362.09 1.932-.063 4.498-.369 7.239-.903 2.74-.535 5.134-1.195 6.79-1.83.828-.318 1.47-.628 1.877-.912q.306-.215.424-.399.115-.18.047-.317-.068-.145-.334-.26a3 3 0 0 0-.712-.182c-.59-.091-1.396-.12-2.361-.09" clip-rule="evenodd"/>
    <path fill="#e46e2e" d="M10.36 12.284c-1.407 0-2.63-.504-3.271-1.253a3.48 3.48 0 0 0 3.271 2.3 3.49 3.49 0 0 0 3.272-2.3c-.64.75-1.865 1.253-3.272 1.253m-.023-4.879c1.407 0 2.631.503 3.272 1.253a3.48 3.48 0 0 0-3.272-2.3 3.49 3.49 0 0 0-3.271 2.3c.64-.75 1.864-1.253 3.271-1.253"/>
    <path fill="#767474" d="M7.895 14.09a.553.553 0 0 1-.572-.52.553.553 0 0 1 .52-.572.553.553 0 0 1 .573.521.55.55 0 0 1-.52.572M7.472 6.97a.34.34 0 0 1-.355-.326.34.34 0 0 1 .326-.354.34.34 0 0 1 .355.326.343.343 0 0 1-.326.354m5.428-.406a.54.54 0 0 1-.555-.509.535.535 0 0 1 .509-.555.54.54 0 0 1 .555.51.535.535 0 0 1-.51.554"/>
    <path fill="#999" d="M12.728 10.488h.235v-.784c0-.046 0-.08.017-.114a.34.34 0 0 1 .314-.235c.223 0 .298.178.298.383v.744h.234V9.71c0-.446-.28-.555-.452-.555a.5.5 0 0 0-.24.069.4.4 0 0 0-.166.166h-.005v-.807h-.235zm2.568-1.293h-.234v.795c0 .04-.006.086-.023.12a.34.34 0 0 1-.31.212c-.21 0-.29-.166-.29-.412v-.715h-.235v.755c0 .452.246.566.446.566a.5.5 0 0 0 .429-.24h.005l.012.212h.206a6 6 0 0 1-.012-.355v-.938zm.584 1.293.01-.212h.007a.46.46 0 0 0 .434.246c.292 0 .578-.229.578-.692 0-.395-.223-.658-.543-.658-.206 0-.36.092-.44.24h-.007V8.6h-.234v1.567c0 .115-.006.246-.011.332h.206zm.04-.75a.38.38 0 0 1 .372-.389c.251 0 .383.224.383.481 0 .297-.15.498-.395.498a.367.367 0 0 1-.366-.36v-.23z"/>
    <path fill="#313940" d="M9.56 9.176V8.8l-.23.063v.314h-.205v.183h.206v.715c0 .155.023.275.091.343q.086.103.258.103a.6.6 0 0 0 .211-.034l-.011-.177a.4.4 0 0 1-.137.017c-.138 0-.184-.098-.184-.258V9.36h.344v-.183z"/>
    <path fill="#313940" fill-rule="evenodd" d="M6.254 9.176c.005.126.011.263.011.43v1.418h.24v-.715h.006a.46.46 0 0 0 .406.206c.309 0 .6-.23.6-.704 0-.4-.24-.67-.56-.67a.52.52 0 0 0-.469.258h-.006l-.011-.223zm.257.875a.5.5 0 0 1-.011-.097h-.006v-.223q.002-.038.011-.073l.006-.024c.052-.183.2-.298.366-.298.257 0 .395.223.395.486 0 .304-.149.51-.4.51a.37.37 0 0 1-.36-.28" clip-rule="evenodd"/>
    <path fill="#313940" d="M4.012 10.274c0 .315-.023.418-.092.492-.057.063-.154.092-.263.103l.023.189a.64.64 0 0 0 .412-.149c.12-.12.16-.286.16-.538V9.176h-.24zm1.796-.143c0 .137 0 .258.011.36h-.212l-.011-.217H5.59a.49.49 0 0 1-.44.246c-.206 0-.458-.114-.458-.577v-.767h.24v.726c0 .252.075.418.298.418a.337.337 0 0 0 .337-.337v-.807h.24zm2.139-.955.291.778c.029.086.063.189.086.269h.006c.023-.08.051-.178.086-.275l.263-.772h.251l-.36.938c-.172.452-.292.68-.452.824a.66.66 0 0 1-.297.154l-.063-.2a.7.7 0 0 0 .212-.114.7.7 0 0 0 .2-.27.2.2 0 0 0 .017-.056.2.2 0 0 0-.017-.063l-.492-1.213z"/>
    <path fill="#313940" fill-rule="evenodd" d="M10.349 9.88c.005.326.211.457.452.457a.85.85 0 0 0 .366-.069l.04.172a1.05 1.05 0 0 1-.44.08c-.407 0-.653-.269-.653-.663 0-.395.235-.71.624-.71.434 0 .549.378.549.618a1 1 0 0 1-.006.109h-.932zm.703-.172c0-.154-.063-.389-.332-.389-.245 0-.348.223-.371.389z" clip-rule="evenodd"/>
    <path fill="#313940" d="M11.63 9.176c.011.126.011.258.011.412v.904h.24v-.704q.002-.058.012-.109c.029-.183.149-.308.32-.308a.4.4 0 0 1 .08.005v-.223c-.022-.005-.04-.005-.068-.005-.16 0-.303.108-.366.286h-.012l-.005-.258z"/>
    <defs>
        <linearGradient id="a" x1="19.939" x2=".176" y1="9.969" y2="8.044" gradientUnits="userSpaceOnUse">
            <stop stop-color="#979797"/>
            <stop offset=".229" stop-color="#f1f1f1"/>
            <stop offset=".513" stop-color="#fff"/>
            <stop offset="1" stop-color="#979797"/>
        </linearGradient>
        <linearGradient id="b" x1="19.939" x2=".176" y1="9.969" y2="8.044" gradientUnits="userSpaceOnUse">
            <stop stop-color="#979797"/>
            <stop offset=".198" stop-color="#f1f1f1"/>
            <stop offset=".567" stop-color="#fff"/>
            <stop offset="1" stop-color="#979797"/>
        </linearGradient>
    </defs>
</svg>
