<svg xmlns="http://www.w3.org/2000/svg" width="20" height="20" fill="none" viewBox="0 0 20 20">
    <path fill="url(#paint0_linear_341_651)" fill-rule="evenodd" d="M19.5894 6.89184C19.7746 6.97069 19.907 7.06923 19.9665 7.19226L19.9666 7.19246C20.027 7.31907 20.0028 7.45504 19.9149 7.59168C19.8277 7.72723 19.6752 7.86835 19.4677 8.01322C19.0521 8.30336 18.4035 8.61686 17.5731 8.9354C15.9116 9.57282 13.5126 10.234 10.7687 10.769C8.02465 11.3041 5.45437 11.6104 3.51703 11.6734C2.5486 11.7049 1.73673 11.6757 1.13983 11.5832C0.841506 11.537 0.595027 11.4748 0.408967 11.3954C0.224076 11.3166 0.0921376 11.218 0.0333698 11.0948C-0.0270376 10.9682 -0.00284564 10.8323 0.0850537 10.6956C0.172256 10.5601 0.324754 10.4189 0.532274 10.2741C0.947901 9.98393 1.59651 9.67043 2.42685 9.35189C4.08844 8.71447 6.48737 8.05332 9.23131 7.51826C11.9753 6.98319 14.5442 6.67685 16.4808 6.61385C17.4489 6.58236 18.2606 6.61161 18.8578 6.70404C19.1562 6.75025 19.4029 6.8125 19.5894 6.89184ZM16.4835 6.6976C14.5525 6.76042 11.9882 7.06605 9.24734 7.6005C6.50641 8.13497 4.11251 8.79499 2.45686 9.43012C1.62859 9.74787 0.987482 10.0585 0.580235 10.3428C0.376318 10.4851 0.23409 10.6188 0.15552 10.7409C0.0776473 10.862 0.0650209 10.9666 0.108992 11.0588C0.154603 11.1543 0.263593 11.2424 0.441837 11.3184C0.618911 11.3939 0.857774 11.4548 1.15265 11.5004C1.74217 11.5917 2.54816 11.6211 3.51431 11.5897C5.44612 11.5269 8.01183 11.2212 10.7527 10.6868C13.4936 10.1523 15.8875 9.49231 17.5431 8.85717C18.3714 8.53943 19.0125 8.22881 19.4198 7.94451C19.6237 7.80216 19.7659 7.66848 19.8445 7.54635C19.9223 7.42536 19.935 7.32081 19.8911 7.22869C19.8448 7.13298 19.7352 7.04494 19.5566 6.96894C19.3791 6.89341 19.1399 6.83251 18.8449 6.78685C18.2552 6.69555 17.4493 6.66618 16.4835 6.6976Z" clip-rule="evenodd"/>
    <path fill="url(#paint1_linear_341_651)" fill-rule="evenodd" d="M19.5894 6.89184C19.7746 6.97069 19.907 7.06923 19.9665 7.19226L19.9666 7.19246C20.027 7.31907 20.0028 7.45504 19.9149 7.59168C19.8277 7.72723 19.6752 7.86835 19.4677 8.01322C19.0521 8.30336 18.4035 8.61686 17.5731 8.9354C15.9116 9.57282 13.5126 10.234 10.7687 10.769C8.02465 11.3041 5.45437 11.6104 3.51703 11.6734C2.5486 11.7049 1.73673 11.6757 1.13983 11.5832C0.841506 11.537 0.595027 11.4748 0.408967 11.3954C0.224076 11.3166 0.0921376 11.218 0.0333698 11.0948C-0.0270376 10.9682 -0.00284564 10.8323 0.0850537 10.6956C0.172256 10.5601 0.324754 10.4189 0.532274 10.2741C0.947901 9.98393 1.59651 9.67043 2.42685 9.35189C4.08844 8.71447 6.48737 8.05332 9.23131 7.51826C11.9753 6.98319 14.5442 6.67685 16.4808 6.61385C17.4489 6.58236 18.2606 6.61161 18.8578 6.70404C19.1562 6.75025 19.4029 6.8125 19.5894 6.89184ZM16.4835 6.6976C14.5525 6.76042 11.9882 7.06605 9.24734 7.6005C6.50641 8.13497 4.11251 8.79499 2.45686 9.43012C1.62859 9.74787 0.987482 10.0585 0.580235 10.3428C0.376318 10.4851 0.23409 10.6188 0.15552 10.7409C0.0776473 10.862 0.0650209 10.9666 0.108992 11.0588C0.154603 11.1543 0.263593 11.2424 0.441837 11.3184C0.618911 11.3939 0.857774 11.4548 1.15265 11.5004C1.74217 11.5917 2.54816 11.6211 3.51431 11.5897C5.44612 11.5269 8.01183 11.2212 10.7527 10.6868C13.4936 10.1523 15.8875 9.49231 17.5431 8.85717C18.3714 8.53943 19.0125 8.22881 19.4198 7.94451C19.6237 7.80216 19.7659 7.66848 19.8445 7.54635C19.9223 7.42536 19.935 7.32081 19.8911 7.22869C19.8448 7.13298 19.7352 7.04494 19.5566 6.96894C19.3791 6.89341 19.1399 6.83251 18.8449 6.78685C18.2552 6.69555 17.4493 6.66618 16.4835 6.6976Z" clip-rule="evenodd"/>
    <path fill="#e46e2e" d="M10.36 12.284C8.953 12.284 7.729 11.78 7.089 11.031 7.569 12.369 8.856 13.33 10.36 13.33 11.865 13.33 13.146 12.369 13.632 11.031 12.991 11.78 11.767 12.284 10.36 12.284ZM10.337 7.405C11.744 7.405 12.968 7.908 13.609 8.658 13.129 7.319 11.842 6.358 10.337 6.358 8.833 6.358 7.552 7.319 7.066 8.658 7.707 7.908 8.93 7.405 10.337 7.405Z"/>
    <path fill="#767474" d="M7.895 14.091C7.592 14.102 7.34 13.868 7.323 13.57 7.312 13.267 7.546 13.016 7.844 12.999 8.147 12.987 8.399 13.222 8.416 13.519 8.427 13.822 8.193 14.08 7.895 14.091ZM7.472 6.97C7.283 6.976 7.123 6.833 7.117 6.644 7.112 6.456 7.255 6.295 7.443 6.29 7.632 6.284 7.792 6.427 7.798 6.616 7.804 6.804 7.661 6.959 7.472 6.97ZM12.9 6.564C12.608 6.576 12.362 6.347 12.345 6.055 12.334 5.764 12.562 5.512 12.854 5.5 13.146 5.489 13.392 5.718 13.409 6.009 13.42 6.301 13.191 6.553 12.9 6.564Z"/>
    <path fill="#999" d="M12.7281 10.4877H12.9626V9.70415C12.9626 9.65839 12.9626 9.62407 12.9798 9.58976C13.0198 9.46393 13.1456 9.35527 13.2944 9.35527C13.5174 9.35527 13.5918 9.53257 13.5918 9.73846V10.482H13.8263V9.70987C13.8263 9.26376 13.546 9.15509 13.3744 9.15509C13.2886 9.15509 13.2028 9.18368 13.1342 9.22372C13.0599 9.26376 13.0027 9.32095 12.9683 9.38958H12.9626V8.58315H12.7281V10.4877ZM15.2961 9.19512H15.0616V9.99011C15.0616 10.0301 15.0559 10.0759 15.0388 10.1102C14.9987 10.2132 14.8843 10.3218 14.7299 10.3218C14.5183 10.3218 14.4382 10.156 14.4382 9.91004V9.19512H14.2037V9.95008C14.2037 10.4019 14.4497 10.5163 14.6498 10.5163C14.8786 10.5163 15.0159 10.379 15.0788 10.2761H15.0845L15.096 10.4877H15.3019C15.2961 10.3848 15.2904 10.2704 15.2904 10.1331V9.19512H15.2961ZM15.8795 10.4877L15.8909 10.2761H15.8967C15.9939 10.4477 16.1426 10.522 16.3313 10.522C16.623 10.522 16.909 10.2932 16.909 9.82997C16.909 9.43534 16.6859 9.17225 16.3657 9.17225C16.1598 9.17225 16.0053 9.26376 15.9253 9.41246H15.9195V8.60031H15.685V10.1674C15.685 10.2818 15.6793 10.4133 15.6736 10.4991H15.8795V10.4877ZM15.9195 9.73846C15.9195 9.69843 15.9253 9.66983 15.931 9.64123C15.9767 9.46393 16.1312 9.34955 16.2913 9.34955C16.543 9.34955 16.6745 9.5726 16.6745 9.82997C16.6745 10.1274 16.5258 10.3276 16.2799 10.3276C16.1083 10.3276 15.971 10.2132 15.9253 10.053C15.9195 10.0244 15.9138 9.99583 15.9138 9.96724V9.73846H15.9195Z"/>
    <path fill="#313940" d="M9.55949 9.17612V8.79864L9.33072 8.86156V9.17612H9.12482V9.35914H9.33072V10.0741C9.33072 10.2285 9.3536 10.3486 9.42223 10.4172C9.47942 10.4859 9.56521 10.5202 9.6796 10.5202C9.77111 10.5202 9.84546 10.503 9.89122 10.4859L9.87978 10.3086C9.85118 10.32 9.80542 10.3257 9.74251 10.3257C9.60525 10.3257 9.55949 10.2285 9.55949 10.0683V9.35914H9.90265V9.17612H9.55949Z"/>
    <path fill="#313940" fill-rule="evenodd" d="M6.2537 9.17612C6.25942 9.30195 6.26514 9.43921 6.26514 9.60507V11.0235H6.50535V10.3086H6.51107C6.59114 10.4401 6.73985 10.5145 6.91715 10.5145C7.22599 10.5145 7.51768 10.2857 7.51768 9.81097C7.51768 9.41062 7.27747 9.14181 6.95718 9.14181C6.73984 9.14181 6.58542 9.23903 6.48819 9.39918H6.48247L6.47103 9.17612H6.2537ZM6.51107 10.0512C6.50535 10.0226 6.49963 9.98827 6.49963 9.95396H6.49391V9.7309C6.49391 9.70602 6.49993 9.68114 6.50541 9.65843C6.50749 9.64983 6.5095 9.64153 6.51107 9.63367C6.56254 9.45065 6.71125 9.33626 6.87711 9.33626C7.13448 9.33626 7.27175 9.55932 7.27175 9.82241C7.27175 10.1255 7.12304 10.3314 6.87139 10.3314C6.69981 10.3314 6.55682 10.217 6.51107 10.0512Z" clip-rule="evenodd"/>
    <path fill="#313940" d="M4.012 10.274C4.012 10.589 3.989 10.692 3.92 10.766 3.863 10.829 3.766 10.858 3.657 10.869L3.68 11.058C3.806 11.058 3.983 11.012 4.092 10.909 4.212 10.789 4.252 10.623 4.252 10.372V9.176H4.012V10.274ZM5.808 10.131C5.808 10.269 5.808 10.389 5.819 10.492H5.607L5.596 10.274H5.59C5.527 10.383 5.39 10.52 5.15 10.52 4.944 10.52 4.692 10.406 4.692 9.943V9.176H4.933V9.902C4.933 10.154 5.007 10.32 5.23 10.32 5.39 10.32 5.504 10.211 5.545 10.103 5.556 10.068 5.567 10.023 5.567 9.983V9.176H5.808V10.131ZM7.947 9.176 8.238 9.954C8.267 10.04 8.301 10.143 8.324 10.223H8.33C8.353 10.143 8.381 10.046 8.416 9.948L8.679 9.176H8.93L8.57 10.114C8.398 10.566 8.278 10.795 8.118 10.938 7.998 11.041 7.884 11.081 7.821 11.092L7.758 10.892C7.821 10.875 7.895 10.835 7.97 10.778 8.032 10.726 8.118 10.635 8.17 10.509 8.181 10.486 8.187 10.463 8.187 10.452 8.187 10.44 8.181 10.417 8.17 10.389L7.678 9.176H7.947Z"/>
    <path fill="#313940" fill-rule="evenodd" d="M10.3488 9.87961C10.3545 10.2056 10.5604 10.3372 10.8006 10.3372C10.9722 10.3372 11.0751 10.3086 11.1666 10.2685L11.2067 10.4401C11.1209 10.4801 10.9779 10.5202 10.7663 10.5202C10.3602 10.5202 10.1143 10.2514 10.1143 9.85673C10.1143 9.46209 10.3488 9.14753 10.7377 9.14753C11.1724 9.14753 11.2867 9.525 11.2867 9.76522C11.2867 9.7961 11.2847 9.82081 11.283 9.84058C11.2819 9.85375 11.281 9.86474 11.281 9.87389H10.3488V9.87961ZM11.0522 9.70802C11.0522 9.5536 10.9893 9.31911 10.7205 9.31911C10.4746 9.31911 10.3716 9.54216 10.3488 9.70802H11.0522Z" clip-rule="evenodd"/>
    <path fill="#313940" d="M11.6299 9.17612C11.6413 9.30195 11.6413 9.4335 11.6413 9.58792V10.4916H11.8816V9.7881C11.8816 9.74806 11.8873 9.71374 11.893 9.67943C11.9216 9.49641 12.0417 9.37058 12.2133 9.37058C12.2419 9.37058 12.2705 9.37058 12.2933 9.3763V9.15325C12.2705 9.14753 12.2533 9.14753 12.2247 9.14753C12.0646 9.14753 11.9216 9.25619 11.8587 9.4335H11.8472L11.8415 9.17612H11.6299Z"/>
    <defs>
        <linearGradient id="paint0_linear_341_651" x1="19.939" x2=".176" y1="9.969" y2="8.044" gradientUnits="userSpaceOnUse">
            <stop stop-color="#979797"/>
            <stop offset=".229" stop-color="#f1f1f1"/>
            <stop offset=".513" stop-color="#fff"/>
            <stop offset="1" stop-color="#979797"/>
        </linearGradient>
        <linearGradient id="paint1_linear_341_651" x1="19.939" x2=".176" y1="9.969" y2="8.044" gradientUnits="userSpaceOnUse">
            <stop stop-color="#979797"/>
            <stop offset=".198" stop-color="#f1f1f1"/>
            <stop offset=".567" stop-color="#fff"/>
            <stop offset="1" stop-color="#979797"/>
        </linearGradient>
    </defs>
</svg>
