<svg xmlns="http://www.w3.org/2000/svg" width="20" height="20" fill="none" viewBox="0 0 20 20">
    <path fill="#000" d="M13.711 11.078a2.6 2.6 0 0 0-1.955.888l-1.226-.868c.13-.358.205-.742.205-1.145a3.3 3.3 0 0 0-.198-1.126l1.223-.858a2.6 2.6 0 0 0 1.951.884 2.61 2.61 0 0 0 2.607-2.608 2.61 2.61 0 0 0-2.607-2.607 2.61 2.61 0 0 0-2.499 3.348l-1.223.858a3.37 3.37 0 0 0-2.085-1.211V5.158a2.61 2.61 0 0 0 2.07-2.55A2.61 2.61 0 0 0 7.369 0 2.61 2.61 0 0 0 4.76 2.607a2.61 2.61 0 0 0 2.025 2.54V6.64A3.37 3.37 0 0 0 4 9.953a3.37 3.37 0 0 0 2.808 3.318v1.577a2.61 2.61 0 0 0-2.048 2.545A2.61 2.61 0 0 0 7.368 20a2.61 2.61 0 0 0 2.607-2.607 2.61 2.61 0 0 0-2.048-2.545V13.27a3.37 3.37 0 0 0 2.05-1.193l1.234.873a2.6 2.6 0 0 0-.107.734 2.61 2.61 0 0 0 2.607 2.607 2.61 2.61 0 0 0 2.607-2.607 2.61 2.61 0 0 0-2.607-2.607m0-6.097c.697 0 1.264.567 1.264 1.264s-.567 1.264-1.264 1.264a1.266 1.266 0 0 1-1.264-1.264c0-.697.567-1.264 1.264-1.264M6.104 2.607c0-.697.567-1.264 1.264-1.264s1.264.567 1.264 1.264-.567 1.264-1.264 1.264a1.266 1.266 0 0 1-1.264-1.264m2.528 14.786c0 .697-.567 1.264-1.264 1.264a1.265 1.265 0 0 1-1.264-1.264c0-.697.567-1.264 1.264-1.264s1.264.567 1.264 1.264m-1.264-5.677c-.973 0-1.764-.79-1.764-1.763a1.765 1.765 0 0 1 3.527 0c0 .973-.791 1.763-1.763 1.763m6.343 3.233a1.266 1.266 0 0 1-1.264-1.264c0-.697.567-1.264 1.264-1.264s1.264.567 1.264 1.264-.567 1.264-1.264 1.264"/>
</svg>
