<svg xmlns="http://www.w3.org/2000/svg" width="20" height="20" fill="none" viewBox="0 0 20 20">
    <path fill="#e9478b" d="M2.79091 7.49092C5.44546 7.49092 7.95455 8.18183 10.1364 9.34546L17.9182 0H2.5V18.5455V7.49092H2.79091Z"/>
    <path fill="#3ebeb0" d="M10.1364 9.34546L2.5 18.5455V20H17.8818C17.0091 15.4182 14.1 11.5273 10.1364 9.34546Z"/>
    <path fill="#37a595" d="M10.1364 9.34546L2.5 18.5455V20H5.22729L12.6455 11.0545C12.6455 11.0545 12.1364 10.6545 11.4455 10.1454C10.9364 9.78181 10.1364 9.34546 10.1364 9.34546Z"/>
    <path fill="#353535" d="M2.79091 7.49092H2.5V18.5455L10.1364 9.34546C7.95455 8.18183 5.44546 7.49092 2.79091 7.49092Z"/>
</svg>
