<svg xmlns="http://www.w3.org/2000/svg" width="20" height="20" fill="none" viewBox="0 0 20 20">
    <path fill="#509ee3" d="M4.637 7.06a.965.965 0 0 0 .958-.973.965.965 0 0 0-.958-.973.965.965 0 0 0-.958.973c0 .537.429.973.958.973m0 2.724a.965.965 0 0 0 .958-.973.965.965 0 0 0-.958-.973.965.965 0 0 0-.958.973c0 .538.429.973.958.973"/>
    <path fill="#509ee3" d="M7.318 7.06a.965.965 0 0 0 .958-.973.965.965 0 0 0-.958-.973.965.965 0 0 0-.957.973c0 .537.429.973.957.973" opacity=".2"/>
    <path fill="#509ee3" d="M7.318 9.81a.965.965 0 0 0 .958-.972.965.965 0 0 0-.958-.973.965.965 0 0 0-.957.973c0 .537.429.973.957.973"/>
    <path fill="#509ee3" d="M10 7.06a.965.965 0 0 0 .958-.973.965.965 0 0 0-.958-.973.965.965 0 0 0-.958.973c0 .537.43.973.958.973m0-3.114a.965.965 0 0 0 .958-.973A.965.965 0 0 0 10 2a.965.965 0 0 0-.958.973c0 .537.43.973.958.973m0 5.864a.965.965 0 0 0 .958-.972.965.965 0 0 0-.958-.973.965.965 0 0 0-.958.973c0 .537.43.973.958.973m2.682-2.751a.965.965 0 0 0 .957-.973.965.965 0 0 0-.957-.973.965.965 0 0 0-.958.973c0 .537.429.973.958.973" opacity=".2"/>
    <path fill="#509ee3" d="M15.363 7.06a.965.965 0 0 0 .958-.973.965.965 0 0 0-.958-.973.965.965 0 0 0-.957.973c0 .537.428.973.957.973m-2.681 2.75a.965.965 0 0 0 .957-.972.965.965 0 0 0-.957-.973.965.965 0 0 0-.958.973c0 .537.429.973.958.973m2.681-.001a.965.965 0 0 0 .958-.972.965.965 0 0 0-.958-.973.965.965 0 0 0-.957.973c0 .537.428.973.957.973M4.637 12.509a.966.966 0 0 0 .958-.973.965.965 0 0 0-.958-.973.965.965 0 0 0-.958.973c0 .537.429.973.958.973"/>
    <path fill="#509ee3" d="M7.318 12.535a.965.965 0 0 0 .958-.973.965.965 0 0 0-.958-.973.965.965 0 0 0-.957.973c0 .538.429.973.957.973" opacity=".2"/>
    <path fill="#509ee3" d="M10 12.535a.965.965 0 0 0 .958-.973.965.965 0 0 0-.958-.973.965.965 0 0 0-.958.973c0 .538.43.973.958.973"/>
    <path fill="#509ee3" d="M12.682 12.535a.965.965 0 0 0 .957-.973.965.965 0 0 0-.957-.973.965.965 0 0 0-.958.973c0 .538.429.973.958.973" opacity=".2"/>
    <path fill="#509ee3" d="M15.363 12.535a.965.965 0 0 0 .958-.973.965.965 0 0 0-.958-.973.965.965 0 0 0-.957.973c0 .538.428.973.957.973M4.637 15.233a.966.966 0 0 0 .958-.973.966.966 0 0 0-.958-.973.966.966 0 0 0-.958.973c0 .537.429.973.958.973"/>
    <path fill="#509ee3" d="M7.318 15.26a.965.965 0 0 0 .958-.973.965.965 0 0 0-.958-.974.965.965 0 0 0-.957.973c0 .538.429.973.957.973M10 15.26a.965.965 0 0 0 .958-.973.965.965 0 0 0-.958-.974.965.965 0 0 0-.958.973c0 .538.43.973.958.973m0 2.725a.966.966 0 0 0 .958-.973.965.965 0 0 0-.958-.973.965.965 0 0 0-.958.973c0 .538.43.973.958.973m2.682-2.724a.965.965 0 0 0 .957-.973.965.965 0 0 0-.957-.974.965.965 0 0 0-.958.973c0 .538.429.973.958.973" opacity=".2"/>
    <path fill="#509ee3" d="M15.363 15.26a.965.965 0 0 0 .958-.973.965.965 0 0 0-.958-.974.965.965 0 0 0-.957.973c0 .538.428.973.957.973"/>
</svg>
