<svg xmlns="http://www.w3.org/2000/svg" width="20" height="20" fill="none" viewBox="0 0 20 20">
    <path fill="#000" d="M7.472 11.401H4.782L4.783 8.712H7.473L7.472 11.401ZM10.161 14.09H7.471L7.472 11.401H10.163L10.161 14.09Z"/>
    <path fill="#000" d="M10.163 11.4011H7.47258L7.47384 8.71204H10.1644L10.163 11.4011Z"/>
    <path fill="#000" d="M12.853 11.401H10.163L10.164 8.712H12.855L12.853 11.401ZM7.473 8.712H4.783L4.784 6.023H7.475L7.473 8.712ZM12.854 8.712H10.164L10.165 6.023H12.855L12.854 8.712ZM4.782 11.401H2.092L2.093 8.712H4.783L4.782 11.401Z"/>
    <path fill="#000" d="M4.783 8.712H2.093L2.094 6.023H4.784L4.783 8.712ZM4.784 6.023H2.094L2.095 3.334H4.785L4.784 6.023ZM15.546 6.023H12.856L12.857 3.334H15.548L15.546 6.023ZM4.781 14.09H2.091L2.092 11.401H4.782L4.781 14.09ZM4.78 16.779H2.089L2.09 14.09H4.781L4.78 16.779ZM15.543 11.401H12.853L12.854 8.712H15.545L15.543 11.401ZM15.544 8.712H12.854L12.855 6.023H15.546L15.544 8.712ZM15.542 14.09H12.852L12.853 11.401H15.543L15.542 14.09ZM15.541 16.779H12.85L12.852 14.09H15.542L15.541 16.779Z"/>
    <path fill="#ff7000" d="M8.59081 11.4009H5.90044L5.9017 8.71179H8.59222L8.59081 11.4009Z"/>
    <path fill="#ff4900" d="M11.2803 14.0898H8.58989L8.59115 11.4008H11.2817L11.2803 14.0898Z"/>
    <path fill="#ff7000" d="M11.2811 11.4009H8.59065L8.59192 8.71179H11.2824L11.2811 11.4009Z"/>
    <path fill="#ff7000" d="M13.9715 11.4009H11.2811L11.2823 8.71179H13.9728L13.9715 11.4009Z"/>
    <path fill="#ffa300" d="M8.592 8.712H5.902L5.903 6.022H8.593L8.592 8.712ZM13.973 8.712H11.283L11.284 6.022H13.975L13.973 8.712Z"/>
    <path fill="#ff7000" d="M5.90023 11.4009H3.20986L3.21112 8.71179H5.90163L5.90023 11.4009Z"/>
    <path fill="#ffa300" d="M5.90151 8.71167H3.21114L3.2124 6.02258H5.90292L5.90151 8.71167Z"/>
    <path fill="#ffce00" d="M5.903 6.022H3.213L3.214 3.333H5.904L5.903 6.022ZM16.665 6.022H13.975L13.976 3.333H16.667L16.665 6.022Z"/>
    <path fill="#ff4900" d="M5.89925 14.0898H3.20888L3.21014 11.4008H5.90066L5.89925 14.0898Z"/>
    <path fill="#ff0107" d="M5.89797 16.7793H3.2076L3.20886 14.0902H5.89938L5.89797 16.7793Z"/>
    <path fill="#ff7000" d="M16.6626 11.4009H13.9721L13.9734 8.71179H16.6639L16.6626 11.4009Z"/>
    <path fill="#ffa300" d="M16.664 8.71167H13.9736L13.9748 6.02258H16.6653L16.664 8.71167Z"/>
    <path fill="#ff4900" d="M16.6606 14.0898H13.9702L13.9715 11.4008H16.662L16.6606 14.0898Z"/>
    <path fill="#ff0107" d="M16.6592 16.7793H13.9688L13.9701 14.0902H16.6606L16.6592 16.7793Z"/>
</svg>
