<svg xmlns="http://www.w3.org/2000/svg" width="20" height="20" fill="none" viewBox="0 0 20 20">
    <path fill="#000" d="M7.472 11.401h-2.69V8.712h2.691z"/>
    <path fill="#000" d="M10.161 14.09h-2.69l.001-2.69h2.69z"/>
    <path fill="#000" d="M10.163 11.401h-2.69V8.712h2.691z"/>
    <path fill="#000" d="M12.853 11.401h-2.69V8.712h2.691zm-5.38-2.689h-2.69l.001-2.69h2.69zm5.381 0h-2.69v-2.69h2.691zm-8.072 2.689h-2.69V8.712h2.691z"/>
    <path fill="#000" d="M4.783 8.712h-2.69v-2.69h2.691z"/>
    <path fill="#000" d="M4.784 6.023h-2.69v-2.69h2.691zm10.762 0h-2.69l.001-2.69h2.69zM4.781 14.09h-2.69V11.4h2.691zm-.001 2.69H2.09v-2.69h2.691zm10.763-5.379h-2.69l.001-2.689h2.69z"/>
    <path fill="#000" d="M15.544 8.712h-2.69l.001-2.69h2.69zm-.002 5.378h-2.69V11.4h2.691zm-.002 2.69h-2.69l.002-2.69h2.69z"/>
    <path fill="#ff7000" d="M8.59 11.4H5.9l.002-2.688h2.69z"/>
    <path fill="#ff4900" d="M11.28 14.09H8.59l.001-2.69h2.69z"/>
    <path fill="#ff7000" d="M11.281 11.4h-2.69V8.713h2.691zm2.691 0h-2.69V8.713h2.69z"/>
    <path fill="#ffa300" d="M8.592 8.712h-2.69v-2.69h2.691zm5.381 0h-2.69l.001-2.69h2.69z"/>
    <path fill="#ff7000" d="M5.9 11.4H3.21l.001-2.688h2.69z"/>
    <path fill="#ffa300" d="M5.902 8.712h-2.69v-2.69h2.69z"/>
    <path fill="#ffce00" d="M5.903 6.022h-2.69V3.333h2.691zm10.762 0h-2.69l.001-2.689h2.69z"/>
    <path fill="#ff4900" d="M5.9 14.09H3.208l.001-2.69H5.9z"/>
    <path fill="#ff0107" d="M5.898 16.78h-2.69v-2.69H5.9z"/>
    <path fill="#ff7000" d="M16.663 11.4h-2.69V8.713h2.69z"/>
    <path fill="#ffa300" d="M16.664 8.712h-2.69v-2.69h2.691z"/>
    <path fill="#ff4900" d="M16.66 14.09h-2.69l.002-2.69h2.69z"/>
    <path fill="#ff0107" d="M16.66 16.78h-2.691l.001-2.69h2.69z"/>
</svg>
