<svg xmlns="http://www.w3.org/2000/svg" width="24" height="24" role="img" viewBox="0 0 20 20">
    <title>Nextcloud icon</title>
    <path fill="#0082c9" d="M10.015 5.447c-2.083 0-3.833 1.427-4.367 3.346-.467-1.027-1.494-1.754-2.688-1.754A2.974 2.974 0 0 0 0 10a2.974 2.974 0 0 0 2.96 2.961c1.193 0 2.22-.728 2.687-1.755.534 1.92 2.285 3.346 4.368 3.346 2.073 0 3.813-1.411 4.359-3.314.474 1.008 1.486 1.723 2.665 1.723A2.974 2.974 0 0 0 20 10a2.974 2.974 0 0 0-2.961-2.961c-1.18 0-2.192.715-2.666 1.723-.545-1.903-2.286-3.314-4.358-3.314zm0 1.738A2.8 2.8 0 0 1 12.83 10a2.8 2.8 0 0 1-2.815 2.815A2.8 2.8 0 0 1 7.201 10a2.8 2.8 0 0 1 2.814-2.815M2.96 8.777c.685 0 1.223.538 1.223 1.223s-.538 1.223-1.223 1.223A1.21 1.21 0 0 1 1.738 10 1.21 1.21 0 0 1 2.96 8.777m14.079 0c.686 0 1.224.538 1.224 1.223s-.538 1.223-1.224 1.223A1.21 1.21 0 0 1 15.817 10c0-.685.538-1.223 1.223-1.223z"/>
</svg>
