<svg xmlns="http://www.w3.org/2000/svg" width="20" height="20" fill="none" viewBox="0 0 20 20">
    <path fill="#989898" d="M17.6566 18.1426H17.7842V17.8584H17.8851C17.9518 17.8584 17.9997 17.8649 18.0269 17.8821C18.0715 17.9083 18.0943 17.9643 18.0943 18.0474V18.1057L18.0971 18.1274C18.0987 18.1322 18.0987 18.1342 18.0991 18.1365C18.0997 18.14 18.1 18.1411 18.1019 18.1426H18.2202L18.2159 18.1346C18.2124 18.1291 18.2104 18.1167 18.2102 18.0976C18.2085 18.0772 18.2085 18.0598 18.2085 18.0436V17.9898C18.2085 17.9536 18.1949 17.9167 18.1689 17.8772C18.1421 17.8391 18.1 17.8164 18.043 17.8064C18.088 17.7989 18.1234 17.7869 18.148 17.7723C18.1962 17.7419 18.2185 17.6925 18.2185 17.6293C18.2185 17.5383 18.1826 17.4762 18.1069 17.4457C18.0651 17.4286 17.9997 17.4199 17.909 17.4199H17.6566V18.1426V18.1426ZM18.0195 17.753C17.9939 17.764 17.9531 17.7691 17.8981 17.7691H17.7842V17.506H17.8929C17.9634 17.506 18.0145 17.516 18.0463 17.5342C18.0787 17.5523 18.0943 17.5873 18.0943 17.6397C18.0943 17.6956 18.0699 17.7323 18.0195 17.753ZM18.39 17.3185C18.2602 17.1904 18.1049 17.127 17.9214 17.127C17.7418 17.127 17.5851 17.1904 17.4582 17.3185C17.3284 17.447 17.2656 17.6025 17.2656 17.7849C17.2656 17.9672 17.3278 18.1232 17.4559 18.2511C17.5831 18.3809 17.7401 18.4453 17.9214 18.4453C18.1049 18.4453 18.2602 18.3809 18.39 18.2511C18.5172 18.1226 18.5829 17.9659 18.5829 17.7849C18.5829 17.6012 18.5172 17.447 18.39 17.3185ZM18.323 17.384C18.4341 17.4924 18.4885 17.6277 18.4885 17.785C18.4885 17.9406 18.4341 18.0769 18.323 18.1879C18.2137 18.2983 18.0793 18.355 17.9214 18.355C17.7647 18.355 17.6311 18.2983 17.5203 18.1879C17.4116 18.077 17.3556 17.9406 17.3556 17.785C17.3556 17.6277 17.4116 17.4924 17.5203 17.384C17.6327 17.2711 17.7657 17.2157 17.9214 17.2157C18.0787 17.2157 18.2124 17.2711 18.323 17.384Z"/>
    <path fill="#009639" d="M1.1365 15.0003C1.23054 15.1634 1.36313 15.2907 1.51606 15.377L9.28078 19.8599L9.28102 19.8597C9.43251 19.9489 9.60871 20 9.79704 20C9.98537 20 10.1618 19.9489 10.3131 19.8597L18.078 15.3767C18.231 15.2904 18.363 15.1634 18.4573 15.0003C18.5516 14.8372 18.5955 14.659 18.5938 14.4833V5.51741L18.5935 5.51717C18.595 5.34169 18.5511 5.1633 18.4571 5.00018C18.3628 4.83707 18.2302 4.71006 18.0775 4.62353L10.3126 0.140578V0.140333C10.1613 0.0511389 9.98512 0 9.79679 0C9.60871 0 9.4325 0.0511389 9.28126 0.140333V0.140578L1.51655 4.62353C1.36361 4.71006 1.23103 4.83707 1.13675 5.00018C1.04271 5.1633 0.998836 5.34169 1.00029 5.51717L1.00005 5.51741V14.4833C0.998353 14.659 1.04222 14.8372 1.13626 15.0003"/>
    <path fill="#fff" fill-rule="evenodd" d="M4.065 6.613C4.065 6.428 4.214 6.278 4.399 6.278H11.222C11.407 6.278 11.557 6.428 11.557 6.613V13.436C11.557 13.62 11.407 13.77 11.222 13.77H4.399C4.214 13.77 4.065 13.62 4.065 13.436V6.613ZM4.734 6.948V13.101H10.887V6.948H4.734ZM13.002 5.822C13.002 5.699 13.102 5.6 13.225 5.6H15.195C15.317 5.6 15.417 5.699 15.417 5.822V7.792C15.417 7.915 15.317 8.014 15.195 8.014H13.225C13.102 8.014 13.002 7.915 13.002 7.792V5.822ZM13.447 6.045V7.569H14.972V6.045H13.447ZM13.002 9.015C13.002 8.892 13.102 8.792 13.225 8.792H15.195C15.317 8.792 15.417 8.892 15.417 9.015V10.985C15.417 11.108 15.317 11.207 15.195 11.207H13.225C13.102 11.207 13.002 11.108 13.002 10.985V9.015ZM13.447 9.238V10.762H14.972V9.238H13.447ZM13.002 12.208C13.002 12.085 13.102 11.985 13.225 11.985H15.195C15.317 11.985 15.417 12.085 15.417 12.208V14.178C15.417 14.301 15.317 14.4 15.195 14.4H13.225C13.102 14.4 13.002 14.301 13.002 14.178V12.208ZM13.447 12.431V13.955H14.972V12.431H13.447Z" clip-rule="evenodd"/>
    <path fill="#fff" fill-rule="evenodd" d="M11.154 10.025C11.154 9.902 11.254 9.802 11.377 9.802H13.109C13.232 9.802 13.332 9.902 13.332 10.025 13.332 10.148 13.232 10.247 13.109 10.247H11.377C11.254 10.247 11.154 10.148 11.154 10.025ZM11.107 10.705C11.182 10.607 11.321 10.588 11.419 10.663L13.386 12.161C13.484 12.235 13.503 12.375 13.429 12.473 13.354 12.571 13.215 12.59 13.117 12.515L11.15 11.017C11.052 10.942 11.033 10.803 11.107 10.705ZM13.429 7.577C13.503 7.674 13.484 7.814 13.386 7.888L11.419 9.387C11.321 9.461 11.182 9.442 11.107 9.344 11.033 9.247 11.052 9.107 11.15 9.033L13.117 7.534C13.215 7.46 13.354 7.479 13.429 7.577Z" clip-rule="evenodd"/>
</svg>
