<svg xmlns="http://www.w3.org/2000/svg" width="20" height="20" fill="none" viewBox="0 0 20 20">
    <path fill="#989898" d="M17.657 18.143h.127v-.285h.101q.101 0 .142.024.066.04.067.165v.059l.003.021.002.01q0 .004.003.006h.118l-.004-.008q-.006-.009-.006-.037-.003-.03-.002-.054v-.054a.2.2 0 0 0-.04-.113q-.04-.056-.125-.07a.3.3 0 0 0 .105-.035q.071-.047.07-.143.002-.136-.111-.183a.6.6 0 0 0-.198-.026h-.252zm.363-.39a.3.3 0 0 1-.122.016h-.114v-.263h.109q.106 0 .153.028.049.027.048.106 0 .083-.075.113m.37-.434a.64.64 0 0 0-.469-.192.63.63 0 0 0-.463.192.63.63 0 0 0-.192.466q-.001.273.19.466a.63.63 0 0 0 .465.194.64.64 0 0 0 .469-.194.64.64 0 0 0 .193-.466.64.64 0 0 0-.193-.466m-.067.065a.54.54 0 0 1 .165.401.55.55 0 0 1-.165.403.55.55 0 0 1-.402.167.55.55 0 0 1-.4-.167.56.56 0 0 1-.165-.403q.001-.237.164-.401a.54.54 0 0 1 .401-.168.54.54 0 0 1 .402.168"/>
    <path fill="#009639" d="M1.137 15c.094.163.226.29.38.377L9.28 19.86a1.01 1.01 0 0 0 1.032 0l7.765-4.483a1.01 1.01 0 0 0 .516-.894V5.517a1.02 1.02 0 0 0-.517-.893L10.314.14a1.01 1.01 0 0 0-1.032 0L1.517 4.624A1.01 1.01 0 0 0 1 5.517v8.966c-.002.176.042.354.136.517"/>
    <path fill="#fff" fill-rule="evenodd" d="M4.065 6.613c0-.185.15-.335.334-.335h6.823c.185 0 .335.15.335.335v6.823c0 .184-.15.334-.335.334H4.399a.335.335 0 0 1-.334-.334zm.669.335V13.1h6.153V6.948zm8.268-1.126c0-.123.1-.222.223-.222h1.97c.122 0 .222.1.222.222v1.97c0 .123-.1.222-.223.222h-1.97a.223.223 0 0 1-.222-.222zm.445.223v1.524h1.525V6.045zm-.445 2.97c0-.123.1-.223.223-.223h1.97c.122 0 .222.1.222.223v1.97c0 .123-.1.222-.223.222h-1.97a.223.223 0 0 1-.222-.222zm.445.223v1.524h1.525V9.238zm-.445 2.97c0-.123.1-.223.223-.223h1.97c.122 0 .222.1.222.223v1.97c0 .122-.1.222-.223.222h-1.97a.223.223 0 0 1-.222-.222zm.445.223v1.524h1.525v-1.524z" clip-rule="evenodd"/>
    <path fill="#fff" fill-rule="evenodd" d="M11.154 10.025c0-.123.1-.223.223-.223h1.732a.223.223 0 0 1 0 .445h-1.732a.223.223 0 0 1-.223-.222m-.047.68a.223.223 0 0 1 .312-.042l1.967 1.498a.223.223 0 1 1-.27.354l-1.966-1.498a.223.223 0 0 1-.043-.312m2.322-3.128a.223.223 0 0 1-.043.311L11.42 9.387a.223.223 0 0 1-.27-.354l1.968-1.499a.223.223 0 0 1 .312.043" clip-rule="evenodd"/>
</svg>
