<svg xmlns="http://www.w3.org/2000/svg" width="20" height="20" fill="none" viewBox="0 0 20 20">
    <path fill="#689f63" d="M9.885 16.249a.4.4 0 0 1-.19-.05l-.602-.358c-.09-.05-.046-.068-.017-.078a1.3 1.3 0 0 0 .273-.124q.022-.01.045.003l.463.274c.017.01.04.01.056 0l1.806-1.042a.06.06 0 0 0 .028-.049v-2.084c0-.02-.01-.04-.028-.05L9.914 11.65a.06.06 0 0 0-.056 0l-1.805 1.042a.06.06 0 0 0-.029.05v2.084c0 .02.011.039.028.048l.495.286c.268.134.433-.024.433-.183V12.92c0-.03.023-.052.052-.052h.229c.028 0 .052.022.052.052v2.058c0 .358-.196.563-.535.563-.105 0-.187 0-.417-.113l-.473-.273a.38.38 0 0 1-.19-.33v-2.083a.38.38 0 0 1 .19-.33l1.808-1.043a.4.4 0 0 1 .38 0l1.805 1.044a.38.38 0 0 1 .19.329v2.084a.38.38 0 0 1-.19.33l-1.806 1.042a.4.4 0 0 1-.19.05"/>
    <path fill="#689f63" d="M10.443 14.813c-.79 0-.956-.363-.956-.667 0-.03.024-.052.052-.052h.234a.05.05 0 0 1 .051.044c.036.238.14.357.618.357.381 0 .543-.085.543-.287 0-.117-.046-.203-.638-.26-.494-.05-.8-.159-.8-.554 0-.364.308-.582.823-.582.578 0 .864.201.9.633a.053.053 0 0 1-.052.056h-.235a.05.05 0 0 1-.05-.04c-.057-.25-.193-.33-.564-.33-.416 0-.464.144-.464.253 0 .131.057.17.617.244.556.074.82.178.82.568 0 .393-.33.619-.902.619m2.2-2.21h.061c.05 0 .06-.035.06-.056 0-.053-.037-.053-.058-.053h-.062zm-.073-.171h.134c.046 0 .137 0 .137.103 0 .071-.046.086-.074.095.054.004.057.04.065.09.003.03.01.084.02.102h-.083l-.015-.123c-.005-.022-.013-.033-.04-.033h-.069v.157h-.075zm.478.194a.349.349 0 1 1-.348-.348c.188 0 .348.152.348.349"/>
    <path fill="#333" fill-rule="evenodd" d="M4.292 8.094a.23.23 0 0 0-.115-.201L2.262 6.79a.2.2 0 0 0-.106-.03h-.02a.2.2 0 0 0-.105.03L.116 7.893A.23.23 0 0 0 0 8.094l.004 2.968c0 .04.022.08.058.1a.11.11 0 0 0 .115 0l1.138-.652a.23.23 0 0 0 .116-.201V8.923a.23.23 0 0 1 .115-.2l.485-.28a.23.23 0 0 1 .23 0l.485.28a.23.23 0 0 1 .116.2v1.386c0 .082.044.158.116.2l1.137.652c.036.021.08.021.116 0a.12.12 0 0 0 .058-.1zm9.036 1.545c0 .02-.01.04-.028.05l-.658.38a.06.06 0 0 1-.058 0l-.658-.38a.06.06 0 0 1-.029-.05v-.76c0-.02.011-.04.029-.05l.657-.38q.029-.015.058 0l.658.38c.018.01.03.03.03.05zm.178-5.624a.116.116 0 0 0-.172.1v2.94a.08.08 0 0 1-.121.07l-.48-.277a.23.23 0 0 0-.231 0l-1.916 1.106a.23.23 0 0 0-.116.2v2.211c0 .083.045.16.116.2l1.916 1.107c.071.041.16.041.231 0l1.916-1.107a.23.23 0 0 0 .116-.2V4.853a.23.23 0 0 0-.12-.202zm6.379 4.845a.23.23 0 0 0 .115-.2v-.536a.23.23 0 0 0-.115-.2L17.98 6.819a.23.23 0 0 0-.232 0l-1.915 1.105a.23.23 0 0 0-.115.2v2.211c0 .083.044.16.116.201l1.903 1.085c.07.04.156.04.227.001l1.151-.64a.116.116 0 0 0 .001-.2L17.19 9.675a.12.12 0 0 1-.058-.1v-.694c0-.041.022-.08.058-.1l.6-.346a.12.12 0 0 1 .115 0l.6.346c.035.02.057.059.057.1v.545c0 .041.023.08.058.1s.08.02.116 0z" clip-rule="evenodd"/>
    <path fill="#689f63" fill-rule="evenodd" d="M17.838 8.756a.04.04 0 0 1 .044 0l.367.212a.04.04 0 0 1 .023.038v.425q-.001.025-.023.038l-.367.212a.04.04 0 0 1-.045 0l-.367-.212a.04.04 0 0 1-.022-.038v-.425q0-.024.022-.038z" clip-rule="evenodd"/>
    <mask id="a" width="5" height="6" x="5" y="6" maskUnits="userSpaceOnUse">
        <path fill="#fff" d="M7.266 6.83 5.362 7.929a.23.23 0 0 0-.115.2v2.2a.23.23 0 0 0 .115.199l1.905 1.1a.23.23 0 0 0 .23 0l1.904-1.1a.23.23 0 0 0 .115-.2v-2.2a.23.23 0 0 0-.115-.199l-1.904-1.1a.23.23 0 0 0-.231 0"/>
    </mask>
    <g mask="url(#a)">
        <path fill="url(#b)" d="m11.44 7.742-5.366-2.63-2.752 5.613 5.367 2.631z"/>
    </g>
    <mask id="c" width="5" height="6" x="5" y="6" maskUnits="userSpaceOnUse">
        <path fill="#fff" d="M5.294 10.469a.2.2 0 0 0 .068.059l1.634.944.272.156a.23.23 0 0 0 .178.022l2.009-3.678a.2.2 0 0 0-.054-.043l-1.247-.72-.66-.38a.2.2 0 0 0-.06-.023z"/>
    </mask>
    <g mask="url(#c)">
        <path fill="url(#d)" d="m2.973 8.52 3.79 5.13 5.012-3.703-3.79-5.13z"/>
    </g>
    <mask id="e" width="5" height="6" x="5" y="6" maskUnits="userSpaceOnUse">
        <path fill="#fff" d="M7.359 6.8a.2.2 0 0 0-.092.03l-1.9 1.096 2.048 3.73a.2.2 0 0 0 .082-.028l1.905-1.1a.23.23 0 0 0 .111-.157L7.425 6.804A.2.2 0 0 0 7.36 6.8"/>
    </mask>
    <g mask="url(#e)">
        <path fill="url(#f)" d="M5.367 6.8v4.856h4.145V6.8z"/>
    </g>
    <defs>
        <linearGradient id="b" x1="8.756" x2="6.004" y1="6.423" y2="12.036" gradientUnits="userSpaceOnUse">
            <stop offset=".3" stop-color="#3e863d"/>
            <stop offset=".5" stop-color="#55934f"/>
            <stop offset=".8" stop-color="#5aad45"/>
        </linearGradient>
        <linearGradient id="d" x1="4.891" x2="9.903" y1="11.115" y2="7.411" gradientUnits="userSpaceOnUse">
            <stop offset=".57" stop-color="#3e863d"/>
            <stop offset=".72" stop-color="#619857"/>
            <stop offset="1" stop-color="#76ac64"/>
        </linearGradient>
        <linearGradient id="f" x1="5.369" x2="9.513" y1="9.228" y2="9.228" gradientUnits="userSpaceOnUse">
            <stop offset=".16" stop-color="#6bbf47"/>
            <stop offset=".38" stop-color="#79b461"/>
            <stop offset=".47" stop-color="#75ac64"/>
            <stop offset=".7" stop-color="#659e5a"/>
            <stop offset=".9" stop-color="#3e863d"/>
        </linearGradient>
    </defs>
</svg>
