<svg xmlns="http://www.w3.org/2000/svg" width="20" height="20" fill="none" viewBox="0 0 20 20">
    <path fill="#8f8f8f" d="M17.585 13.312a2.415 2.415 0 1 1 0-4.83 2.415 2.415 0 0 1 0 4.83m0-.998a1.417 1.417 0 1 0 0-2.834 1.417 1.417 0 0 0 0 2.834m-5.057.998a2.416 2.416 0 1 1 0-4.83 2.416 2.416 0 0 1 0 4.83m0-.998a1.418 1.418 0 1 0 0-2.835 1.418 1.418 0 0 0 0 2.835m-2.64-1.45c0 1.35-1.083 2.448-2.416 2.448-1.334 0-2.416-1.095-2.416-2.444 0-1.35.983-2.387 2.416-2.387.528 0 1.018.113 1.417.406v-1.4c0-.268.235-.487.5-.487a.5.5 0 0 1 .498.486zm-2.416 1.45a1.417 1.417 0 1 0 0-2.834 1.417 1.417 0 0 0 0 2.834"/>
    <path fill="#714b67" d="M2.415 13.312a2.415 2.415 0 1 1 0-4.83 2.415 2.415 0 0 1 0 4.83m0-.998a1.417 1.417 0 1 0 0-2.834 1.417 1.417 0 0 0 0 2.834"/>
</svg>
