<svg xmlns="http://www.w3.org/2000/svg" width="20" height="20" fill="none" viewBox="0 0 20 20">
    <path fill="#f5a800" d="M10.63 10.97c-.81.81-.81 1.89 0 2.7s1.89.81 2.7 0 .81-1.89 0-2.7-1.89-.81-2.7 0m2.49 2.28c-.1.1-.21.18-.33.23s-.24.08-.36.08-.24-.03-.36-.08-.23-.13-.33-.23-.18-.21-.23-.33a.9.9 0 0 1-.08-.36c0-.12.03-.24.08-.36s.13-.23.23-.33.21-.18.33-.23.24-.08.36-.08.24.03.36.08.23.13.33.23c.39.39.39 1.54 0 1.93ZM13.79.58 12.5 1.87c-.12.13-.19.29-.19.46s.07.33.19.46l5.25 5.25c.13.13.29.2.46.2s.33-.07.46-.2l1.29-1.29c.22-.22.22-.58 0-.8L14.21.2a.64.64 0 0 0-.45-.19.55.55 0 0 0-.45.17l-.81.81a.636.636 0 0 0 0 .91zM4.51 17.02c.1-.1.15-.23.15-.37s-.05-.27-.15-.37l-.63-.63c-.1-.1-.23-.15-.37-.15s-.27.05-.37.15l-1.48 1.48-.39.39c-.17.17-.41.17-.58 0a.504.504 0 0 1 0-.67l2.13-2.13a.25.25 0 0 1 .18-.08c.07 0 .13.03.18.08.17.17.17.5 0 .67l-.39.39z"/>
    <path fill="#425cc7" d="M11.33 4.27 8.5 7.1c-.27.27-.27.71 0 .98l1.71 1.71c1.21-.9 2.78-.89 3.98 0l1.38-1.38c.27-.27.27-.71 0-.98zm-3.23 6.3L7.07 9.54a.694.694 0 0 0-.98 0l-3.37 3.37a.62.62 0 0 0-.2.43c0 .16.08.31.2.43l2.13 2.13c.12.12.27.2.43.2s.31-.08.43-.2l2.39-2.39c-.51-1.01-.5-2.18 0-2.94"/>
</svg>
