<svg xmlns="http://www.w3.org/2000/svg" width="20" height="20" fill="none" viewBox="0 0 20 20">
    <path fill="#ff7a24" d="M18 10.17c0-4.51-3.693-8.166-8.25-8.166-4.555 0-8.25 3.656-8.25 8.165 0 2.996 1.635 5.606 4.064 7.029l.529-3.5a4.82 4.82 0 0 1-1.265-3.254c0-2.69 2.204-4.872 4.922-4.872 2.72 0 4.922 2.182 4.922 4.872a4.8 4.8 0 0 1-1.282 3.273l.527 3.492C16.357 15.79 18 13.174 18 10.17"/>
    <path fill="#123467" d="m10.655 12.639 1.002 5.357H7.785l.999-5.348a2.61 2.61 0 0 1-1.693-2.434 2.613 2.613 0 0 1 2.615-2.61 2.61 2.61 0 0 1 2.615 2.61 2.6 2.6 0 0 1-1.666 2.425"/>
</svg>
