<svg xmlns="http://www.w3.org/2000/svg" width="20" height="20" fill="none" viewBox="0 0 20 20">
    <path fill="#f80000" d="M8.316 10.627h1.281L8.92 9.545 7.676 11.5H7.11l1.513-2.348A.36.36 0 0 1 8.92 9a.35.35 0 0 1 .29.148l1.52 2.352h-.567l-.267-.437H8.6zm5.88.436v-2.04h-.48v2.24c0 .061.023.12.069.166a.25.25 0 0 0 .175.071h2.19l.284-.437zm-7.947-.365a.84.84 0 0 0 .845-.836.84.84 0 0 0-.845-.838H4.147V11.5h.48V9.46h1.59a.401.401 0 1 1 0 .803l-1.354-.002L6.297 11.5h.697l-.964-.802zm-5.057.802c-.69 0-1.25-.553-1.25-1.237s.56-1.24 1.25-1.24h1.451c.69 0 1.249.556 1.249 1.24S3.332 11.5 2.643 11.5zm1.419-.437a.804.804 0 0 0 .808-.8.806.806 0 0 0-.808-.803H1.224a.806.806 0 0 0-.809.803c0 .443.362.8.809.8zm9.121.437c-.69 0-1.25-.553-1.25-1.237s.56-1.24 1.25-1.24h1.724l-.281.437h-1.411c-.447 0-.81.36-.81.803s.363.8.81.8h1.732l-.283.437zm5.874-.437a.806.806 0 0 1-.778-.583h2.053l.284-.437h-2.337a.81.81 0 0 1 .778-.583h1.409l.285-.436h-1.726c-.69 0-1.25.555-1.25 1.239s.56 1.237 1.25 1.237h1.48l.284-.437zm1.951-1.776a.215.215 0 0 1 .135-.201.2.2 0 0 1 .084-.017.218.218 0 1 1 0 .437.22.22 0 0 1-.219-.22m.22.28a.28.28 0 0 0 .28-.278.28.28 0 0 0-.56 0 .28.28 0 0 0 .28.278m-.027-.444c.044 0 .062.002.082.01a.086.086 0 0 1 .062.086q.001.007-.004.026a.08.08 0 0 1-.038.053l-.014.008.072.129h-.07l-.064-.119h-.043v.119h-.062v-.312zm.023.142c.02-.002.04-.002.051-.02a.04.04 0 0 0 .008-.028q-.002-.025-.024-.037c-.014-.006-.028-.006-.058-.006h-.017v.09z"/>
</svg>
