<svg xmlns="http://www.w3.org/2000/svg" width="21" height="20" fill="none" viewBox="0 0 21 20">
    <path fill="#1d2d44" fill-rule="evenodd" d="M1.133 12.899a.923.923 0 1 0 0 1.845.923.923 0 0 0 0-1.845m-1.107.923a1.108 1.108 0 1 1 2.215 0 1.108 1.108 0 0 1-2.215 0m13.454-.923a.923.923 0 1 0 0 1.846.923.923 0 0 0 0-1.846m-1.108.923a1.108 1.108 0 1 1 2.215 0 1.108 1.108 0 0 1-2.215 0m-9.577.363v-1.388h.184v1.388a.56.56 0 0 0 1.12 0v-1.388h.184v1.388a.744.744 0 1 1-1.488 0" clip-rule="evenodd"/>
    <path fill="#1d2d44" fill-rule="evenodd" d="M4.099 14.185v-1.388h.184v1.388a.56.56 0 0 0 1.12 0v-1.388h.184v1.388a.744.744 0 0 1-1.488 0m7.201 0v-3.234h.184v3.234c0 .309.25.56.56.56v.184a.744.744 0 0 1-.745-.744M7.272 12.89a.923.923 0 0 0-.923.922v1.025h-.185v-1.025a1.108 1.108 0 1 1 2.216 0v1.025h-.185v-1.025a.923.923 0 0 0-.923-.923m7.8.933v-1.025h.184v1.025a.923.923 0 0 0 1.847 0v-1.025h.184v1.025a1.108 1.108 0 0 1-2.215 0m-6.154-.608c0-.947.768-1.716 1.715-1.716v.185a1.53 1.53 0 0 0 0 3.062v.184a1.715 1.715 0 0 1-1.715-1.715m10.92-2.264h.185v1.855h-.185z" clip-rule="evenodd"/>
    <path fill="#1d2d44" fill-rule="evenodd" d="M20.023 12.804h-.093zv.045l.002.515c0 .3 0 .647-.002.822a.75.75 0 0 1-.253.523.77.77 0 0 1-.502.22h-.363a1.108 1.108 0 0 1 0-2.215l1.117-.002zm-.184.093-.933.001a.923.923 0 1 0 0 1.846h.362c.118 0 .26-.062.376-.17a.57.57 0 0 0 .194-.391" clip-rule="evenodd"/>
    <path fill="#1d2d44" d="M9.957 8.01a.938.938 0 1 0 0-1.877.938.938 0 0 0 0 1.877"/>
    <path fill="#fff" fill-rule="evenodd" d="M9.957 6.225a.846.846 0 1 0 0 1.692.846.846 0 0 0 0-1.692m-1.03.846a1.03 1.03 0 1 1 2.06 0 1.03 1.03 0 0 1-2.06 0" clip-rule="evenodd"/>
    <path fill="#1d2d44" d="M8.236 12.051a1.719 1.719 0 1 0 0-3.437 1.719 1.719 0 0 0 0 3.437"/>
    <path fill="#fff" fill-rule="evenodd" d="M8.236 8.706a1.627 1.627 0 1 0 0 3.253 1.627 1.627 0 0 0 0-3.253m-1.811 1.627a1.811 1.811 0 1 1 3.622 0 1.811 1.811 0 0 1-3.622 0" clip-rule="evenodd"/>
    <path fill="#1d2d44" d="M10.175 11.047a1.858 1.858 0 1 0 0-3.716 1.858 1.858 0 0 0 0 3.716"/>
    <path fill="#fff" fill-rule="evenodd" d="M10.175 7.423a1.766 1.766 0 1 0 0 3.532 1.766 1.766 0 0 0 0-3.532M8.225 9.19a1.95 1.95 0 1 1 3.9 0 1.95 1.95 0 0 1-3.9 0" clip-rule="evenodd"/>
    <path fill="#1d2d44" d="M13.965 10.154a1.719 1.719 0 1 0 0-3.437 1.719 1.719 0 0 0 0 3.437"/>
    <path fill="#fff" fill-rule="evenodd" d="M13.965 6.81a1.627 1.627 0 1 0 0 3.252 1.627 1.627 0 0 0 0-3.253m-1.811 1.626a1.811 1.811 0 1 1 3.622 0 1.811 1.811 0 0 1-3.622 0" clip-rule="evenodd"/>
    <path fill="#1d2d44" d="M12.08 8.817a1.719 1.719 0 1 0 0-3.437 1.719 1.719 0 0 0 0 3.437"/>
    <path fill="#fff" fill-rule="evenodd" d="M12.08 5.472a1.626 1.626 0 1 0 0 3.253 1.626 1.626 0 0 0 0-3.253M10.269 7.1a1.811 1.811 0 1 1 3.622 0 1.811 1.811 0 0 1-3.622 0" clip-rule="evenodd"/>
    <path fill="#1d2d44" d="M17.8 11.98a.983.983 0 1 0 0-1.966.983.983 0 0 0 0 1.966"/>
    <path fill="#fff" fill-rule="evenodd" d="M17.8 10.106a.89.89 0 1 0 0 1.781.89.89 0 0 0 0-1.781m-1.076.89a1.075 1.075 0 1 1 2.151 0 1.075 1.075 0 0 1-2.15 0" clip-rule="evenodd"/>
    <path fill="#1d2d44" d="M15.71 12.098a1.858 1.858 0 1 0 0-3.716 1.858 1.858 0 0 0 0 3.716"/>
    <path fill="#fff" fill-rule="evenodd" d="M15.71 8.474a1.766 1.766 0 1 0 0 3.532 1.766 1.766 0 0 0 0-3.532m-1.95 1.766a1.95 1.95 0 1 1 3.901 0 1.95 1.95 0 0 1-3.9 0" clip-rule="evenodd"/>
    <path fill="#1d2d44" d="M10.062 12.074a.983.983 0 1 0 0-1.966.983.983 0 0 0 0 1.966"/>
    <path fill="#fff" fill-rule="evenodd" d="M10.062 10.2a.89.89 0 1 0 0 1.782.89.89 0 0 0 0-1.781m-1.076.891a1.075 1.075 0 1 1 2.15 0 1.075 1.075 0 0 1-2.15 0" clip-rule="evenodd"/>
    <path fill="#1d2d44" d="M15.016 9.69a2.37 2.37 0 1 1-4.738 0 2.37 2.37 0 0 1 4.738 0"/>
    <path fill="#fff" fill-rule="evenodd" d="M12.647 7.414a2.277 2.277 0 1 0 0 4.554 2.277 2.277 0 0 0 0-4.554m-2.462 2.277a2.461 2.461 0 1 1 4.923 0 2.461 2.461 0 0 1-4.923 0" clip-rule="evenodd"/>
</svg>
