<svg xmlns="http://www.w3.org/2000/svg" width="21" height="20" fill="none" viewBox="0 0 21 20">
    <path fill="#1d2d44" fill-rule="evenodd" d="M1.133 12.899C.623 12.899.21 13.312.21 13.822.21 14.331.623 14.745 1.133 14.745 1.643 14.745 2.056 14.331 2.056 13.822 2.056 13.312 1.643 12.899 1.133 12.899ZM.026 13.822C.026 13.21.521 12.714 1.133 12.714 1.745 12.714 2.241 13.21 2.241 13.822 2.241 14.433 1.745 14.929 1.133 14.929.521 14.929.026 14.433.026 13.822ZM13.48 12.899C12.97 12.899 12.557 13.312 12.557 13.822 12.557 14.331 12.97 14.745 13.48 14.745 13.99 14.745 14.403 14.331 14.403 13.822 14.403 13.312 13.99 12.899 13.48 12.899ZM12.372 13.822C12.372 13.21 12.868 12.714 13.48 12.714 14.092 12.714 14.587 13.21 14.587 13.822 14.587 14.433 14.092 14.929 13.48 14.929 12.868 14.929 12.372 14.433 12.372 13.822ZM2.795 14.185V12.797H2.979V14.185C2.979 14.494 3.23 14.744 3.539 14.744 3.848 14.744 4.098 14.494 4.098 14.185V12.797C4.098 12.797 4.098 12.797 4.191 12.797 4.283 12.797 4.283 12.797 4.283 12.797V14.185C4.283 14.596 3.95 14.929 3.539 14.929 3.128 14.929 2.795 14.596 2.795 14.185Z" clip-rule="evenodd"/>
    <path fill="#1d2d44" fill-rule="evenodd" d="M4.099 14.185V12.797H4.283V14.185C4.283 14.494 4.534 14.744 4.843 14.744 5.152 14.744 5.402 14.494 5.402 14.185V12.797C5.402 12.797 5.402 12.797 5.495 12.797 5.587 12.797 5.587 12.797 5.587 12.797V14.185C5.587 14.596 5.254 14.929 4.843 14.929 4.432 14.929 4.099 14.596 4.099 14.185ZM11.299 14.185V10.951H11.484V14.185C11.484 14.494 11.734 14.745 12.043 14.745V14.929C11.632 14.929 11.299 14.596 11.299 14.185ZM7.272 12.889C6.762 12.889 6.349 13.303 6.349 13.812V14.837H6.164V13.812C6.164 13.201 6.66 12.705 7.272 12.705 7.884 12.705 8.38 13.201 8.38 13.812V14.837C8.38 14.837 8.38 14.837 8.287 14.837 8.195 14.837 8.195 14.837 8.195 14.837V13.812C8.195 13.303 7.782 12.889 7.272 12.889ZM15.072 13.822V12.797H15.256V13.822C15.256 14.331 15.67 14.745 16.18 14.745 16.689 14.745 17.103 14.331 17.103 13.822V12.797C17.103 12.797 17.103 12.797 17.195 12.797 17.287 12.797 17.287 12.797 17.287 12.797V13.822C17.287 14.433 16.791 14.929 16.18 14.929 15.568 14.929 15.072 14.433 15.072 13.822ZM8.918 13.214C8.918 12.267 9.686 11.499 10.633 11.499V11.683C9.788 11.683 9.102 12.369 9.102 13.214 9.102 14.059 9.788 14.745 10.633 14.745V14.929C9.686 14.929 8.918 14.161 8.918 13.214ZM19.838 10.951H20.023V12.805H19.838V10.951Z" clip-rule="evenodd"/>
    <path fill="#1d2d44" fill-rule="evenodd" d="M20.0227 12.8042L19.9304 12.8048C20.0227 12.8042 20.0227 12.8042 20.0227 12.8042L20.0227 12.8043L20.023 12.8493C20.0232 12.8782 20.0234 12.9198 20.0236 12.9709C20.0241 13.0731 20.0247 13.2129 20.0251 13.3637C20.0259 13.6648 20.0259 14.0108 20.0227 14.1862C20.019 14.3919 19.9113 14.5772 19.7703 14.7088C19.63 14.8397 19.4444 14.9289 19.2677 14.9289H18.9055C18.2938 14.9289 17.7979 14.433 17.7979 13.8213C17.7979 13.2096 18.2938 12.7137 18.9055 12.7137C18.9055 12.7137 18.9055 12.7137 18.9055 12.7137L20.0222 12.7124L20.0227 12.8042ZM19.8386 12.8972L18.9055 12.8983C18.3957 12.8983 17.9825 13.3115 17.9825 13.8213C17.9825 14.331 18.3957 14.7443 18.9055 14.7443H19.2677C19.386 14.7443 19.5286 14.6818 19.6443 14.5738C19.7594 14.4665 19.8355 14.3257 19.8381 14.1829" clip-rule="evenodd"/>
    <path fill="#1d2d44" d="M9.95681 8.00957C10.4751 8.00957 10.8952 7.58944 10.8952 7.07119C10.8952 6.55294 10.4751 6.13281 9.95681 6.13281C9.43856 6.13281 9.01843 6.55294 9.01843 7.07119C9.01843 7.58944 9.43856 8.00957 9.95681 8.00957Z"/>
    <path fill="#fff" fill-rule="evenodd" d="M9.95677 6.22514C9.4895 6.22514 9.1107 6.60394 9.1107 7.07121C9.1107 7.53849 9.4895 7.91729 9.95677 7.91729C10.424 7.91729 10.8028 7.53849 10.8028 7.07121C10.8028 6.60394 10.424 6.22514 9.95677 6.22514ZM8.92609 7.07121C8.92609 6.50198 9.38754 6.04053 9.95677 6.04053C10.526 6.04053 10.9875 6.50198 10.9875 7.07121C10.9875 7.64044 10.526 8.1019 9.95677 8.1019C9.38754 8.1019 8.92609 7.64044 8.92609 7.07121Z" clip-rule="evenodd"/>
    <path fill="#1d2d44" d="M8.2361 12.0514C9.18538 12.0514 9.95492 11.2819 9.95492 10.3326C9.95492 9.38331 9.18538 8.61377 8.2361 8.61377C7.28682 8.61377 6.51727 9.38331 6.51727 10.3326C6.51727 11.2819 7.28682 12.0514 8.2361 12.0514Z"/>
    <path fill="#fff" fill-rule="evenodd" d="M8.23606 8.7061C7.33776 8.7061 6.60954 9.43431 6.60954 10.3326C6.60954 11.2309 7.33776 11.9591 8.23606 11.9591C9.13436 11.9591 9.86258 11.2309 9.86258 10.3326C9.86258 9.43431 9.13436 8.7061 8.23606 8.7061ZM6.42493 10.3326C6.42493 9.33235 7.2358 8.52148 8.23606 8.52148C9.23632 8.52148 10.0472 9.33235 10.0472 10.3326C10.0472 11.3329 9.23632 12.1437 8.23606 12.1437C7.2358 12.1437 6.42493 11.3329 6.42493 10.3326Z" clip-rule="evenodd"/>
    <path fill="#1d2d44" d="M10.1752 11.0474C11.2014 11.0474 12.0333 10.2154 12.0333 9.18921C12.0333 8.16298 11.2014 7.33105 10.1752 7.33105C9.14894 7.33105 8.31702 8.16298 8.31702 9.18921C8.31702 10.2154 9.14894 11.0474 10.1752 11.0474Z"/>
    <path fill="#fff" fill-rule="evenodd" d="M10.1751 7.42338C9.19988 7.42338 8.40928 8.21398 8.40928 9.18923C8.40928 10.1645 9.19988 10.9551 10.1751 10.9551C11.1504 10.9551 11.941 10.1645 11.941 9.18923C11.941 8.21398 11.1504 7.42338 10.1751 7.42338ZM8.22467 9.18923C8.22467 8.11202 9.09792 7.23877 10.1751 7.23877C11.2523 7.23877 12.1256 8.11202 12.1256 9.18923C12.1256 10.2664 11.2523 11.1397 10.1751 11.1397C9.09792 11.1397 8.22467 10.2664 8.22467 9.18923Z" clip-rule="evenodd"/>
    <path fill="#1d2d44" d="M13.9647 10.1544C14.914 10.1544 15.6836 9.3849 15.6836 8.43562C15.6836 7.48634 14.914 6.7168 13.9647 6.7168C13.0155 6.7168 12.2459 7.48634 12.2459 8.43562C12.2459 9.3849 13.0155 10.1544 13.9647 10.1544Z"/>
    <path fill="#fff" fill-rule="evenodd" d="M13.9647 6.80912C13.0664 6.80912 12.3382 7.53734 12.3382 8.43564C12.3382 9.33394 13.0664 10.0622 13.9647 10.0622C14.863 10.0622 15.5912 9.33394 15.5912 8.43564C15.5912 7.53734 14.863 6.80912 13.9647 6.80912ZM12.1536 8.43564C12.1536 7.43538 12.9644 6.62451 13.9647 6.62451C14.965 6.62451 15.7758 7.43538 15.7758 8.43564C15.7758 9.4359 14.965 10.2468 13.9647 10.2468C12.9644 10.2468 12.1536 9.4359 12.1536 8.43564Z" clip-rule="evenodd"/>
    <path fill="#1d2d44" d="M12.0798 8.81744C13.0291 8.81744 13.7986 8.04792 13.7986 7.09866C13.7986 6.14941 13.0291 5.37988 12.0798 5.37988C11.1305 5.37988 10.361 6.14941 10.361 7.09866C10.361 8.04792 11.1305 8.81744 12.0798 8.81744Z"/>
    <path fill="#fff" fill-rule="evenodd" d="M12.0798 5.47221C11.1815 5.47221 10.4533 6.20041 10.4533 7.09868C10.4533 7.99696 11.1815 8.72515 12.0798 8.72515C12.978 8.72515 13.7062 7.99696 13.7062 7.09868C13.7062 6.20041 12.978 5.47221 12.0798 5.47221ZM10.2687 7.09868C10.2687 6.09845 11.0795 5.2876 12.0798 5.2876C13.08 5.2876 13.8908 6.09845 13.8908 7.09868C13.8908 8.09891 13.08 8.90976 12.0798 8.90976C11.0795 8.90976 10.2687 8.09891 10.2687 7.09868Z" clip-rule="evenodd"/>
    <path fill="#1d2d44" d="M17.7997 11.9798C18.3426 11.9798 18.7828 11.5397 18.7828 10.9967C18.7828 10.4538 18.3426 10.0137 17.7997 10.0137C17.2568 10.0137 16.8167 10.4538 16.8167 10.9967C16.8167 11.5397 17.2568 11.9798 17.7997 11.9798Z"/>
    <path fill="#fff" fill-rule="evenodd" d="M17.7997 10.106C17.3077 10.106 16.9089 10.5048 16.9089 10.9967C16.9089 11.4887 17.3077 11.8875 17.7997 11.8875C18.2916 11.8875 18.6904 11.4887 18.6904 10.9967C18.6904 10.5048 18.2916 10.106 17.7997 10.106ZM16.7243 10.9967C16.7243 10.4028 17.2058 9.92139 17.7997 9.92139C18.3936 9.92139 18.875 10.4028 18.875 10.9967C18.875 11.5907 18.3936 12.0721 17.7997 12.0721C17.2058 12.0721 16.7243 11.5907 16.7243 10.9967Z" clip-rule="evenodd"/>
    <path fill="#1d2d44" d="M15.7106 12.0982C16.7369 12.0982 17.5688 11.2662 17.5688 10.24C17.5688 9.21376 16.7369 8.38184 15.7106 8.38184C14.6844 8.38184 13.8525 9.21376 13.8525 10.24C13.8525 11.2662 14.6844 12.0982 15.7106 12.0982Z"/>
    <path fill="#fff" fill-rule="evenodd" d="M15.7107 8.47416C14.7354 8.47416 13.9448 9.26476 13.9448 10.24C13.9448 11.2153 14.7354 12.0059 15.7107 12.0059C16.6859 12.0059 17.4765 11.2153 17.4765 10.24C17.4765 9.26476 16.6859 8.47416 15.7107 8.47416ZM13.7602 10.24C13.7602 9.1628 14.6334 8.28955 15.7107 8.28955C16.7879 8.28955 17.6611 9.1628 17.6611 10.24C17.6611 11.3172 16.7879 12.1905 15.7107 12.1905C14.6334 12.1905 13.7602 11.3172 13.7602 10.24Z" clip-rule="evenodd"/>
    <path fill="#1d2d44" d="M10.0615 12.0739C10.6044 12.0739 11.0445 11.6338 11.0445 11.0909C11.0445 10.548 10.6044 10.1079 10.0615 10.1079C9.5186 10.1079 9.07849 10.548 9.07849 11.0909C9.07849 11.6338 9.5186 12.0739 10.0615 12.0739Z"/>
    <path fill="#fff" fill-rule="evenodd" d="M10.0615 10.2007C9.56954 10.2007 9.17076 10.5995 9.17076 11.0914C9.17076 11.5834 9.56954 11.9821 10.0615 11.9821C10.5534 11.9821 10.9522 11.5834 10.9522 11.0914C10.9522 10.5995 10.5534 10.2007 10.0615 10.2007ZM8.98615 11.0914C8.98615 10.4975 9.46758 10.0161 10.0615 10.0161C10.6553 10.0161 11.1368 10.4975 11.1368 11.0914C11.1368 11.6853 10.6553 12.1667 10.0615 12.1667C9.46758 12.1667 8.98615 11.6853 8.98615 11.0914Z" clip-rule="evenodd"/>
    <path fill="#1d2d44" d="M15.0158 9.69094C15.0158 10.9993 13.955 12.0599 12.6466 12.0599C11.3381 12.0599 10.2774 10.9993 10.2774 9.69094C10.2774 8.38246 11.3382 7.32178 12.6466 7.32178C13.955 7.32178 15.0158 8.38246 15.0158 9.69094Z"/>
    <path fill="#fff" fill-rule="evenodd" d="M12.6465 7.4141C11.3891 7.4141 10.3697 8.43346 10.3697 9.69096C10.3697 10.9483 11.3891 11.9676 12.6465 11.9676C13.904 11.9676 14.9234 10.9483 14.9234 9.69096C14.9234 8.43347 13.9039 7.4141 12.6465 7.4141ZM10.1851 9.69096C10.1851 8.3315 11.2872 7.22949 12.6465 7.22949C14.0059 7.22949 15.108 8.3315 15.108 9.69096C15.108 11.0503 14.0059 12.1522 12.6465 12.1522C11.2871 12.1522 10.1851 11.0503 10.1851 9.69096Z" clip-rule="evenodd"/>
</svg>
