<svg xmlns="http://www.w3.org/2000/svg" width="20" height="20" fill="none" viewBox="0 0 20 20">
    <path fill="#000" d="M4.549 7.114q1.305.01 1.892.752.586.742.388 2.026a3.9 3.9 0 0 1-.343 1.15q-.255.565-.709 1.02-.553.574-1.184.73a5.5 5.5 0 0 1-1.306.155H1.959l-.42 2.102H0l1.583-7.935zm13.12 0q1.306.01 1.893.752t.387 2.026a3.9 3.9 0 0 1-.343 1.15q-.254.565-.708 1.02-.554.574-1.184.73a5.5 5.5 0 0 1-1.306.155H15.08l-.42 2.102h-1.54l1.584-7.935zM10.11 5l-.432 2.114h1.372q1.129.022 1.682.465.565.443.332 1.682l-.741 3.686h-1.55l.709-3.52q.11-.553-.067-.786t-.763-.232l-1.229-.011-.907 4.549H6.987L8.581 5zM3.352 8.376a3 3 0 0 1-.254.01h-.224l-.662 3.31a1 1 0 0 0 .133.01H2.5q1.063.012 1.771-.21.708-.232.952-1.615.2-1.162-.399-1.34-.585-.176-1.472-.165m13.121 0a3 3 0 0 1-.254.01h-.224l-.662 3.31a1 1 0 0 0 .133.01h.155q1.063.012 1.77-.21.709-.232.953-1.615.2-1.162-.399-1.34-.585-.176-1.472-.165"/>
</svg>
