<svg xmlns="http://www.w3.org/2000/svg" width="20" height="20" fill="none" viewBox="0 0 20 20">
    <path fill="#000" d="M.606 14.15H0V7.8a5.1 5.1 0 0 1 1.5-.24c.329-.004.659.053.969.168.277.1.535.258.75.463.21.2.372.44.477.712.115.282.167.587.167.893q0 .586-.2 1.007a2 2 0 0 1-.53.693c-.22.181-.473.315-.75.396a2.9 2.9 0 0 1-.86.13q-.235.001-.463-.034a5 5 0 0 1-.454-.096zm2.565-4.37q-.001-.759-.425-1.232c-.282-.31-.683-.468-1.194-.468q-.241 0-.482.029-.239.03-.464.11v3.1q.215.07.435.119.214.048.435.047.778 0 1.237-.444.458-.436.458-1.26m1.915 2.196V5.85h.611v6.122h-.611zm5.621-.64c-.196.215-.44.387-.707.502q-.402.172-.97.172a2.2 2.2 0 0 1-.921-.182 1.8 1.8 0 0 1-.654-.487 2 2 0 0 1-.392-.702 2.6 2.6 0 0 1-.134-.83c-.01-.34.048-.684.158-1.004a2 2 0 0 1 .43-.707c.176-.181.391-.324.63-.415.244-.09.502-.134.76-.134q.962-.001 1.451.592.487.588.473 1.72H7.55q.028.743.429 1.18c.267.29.635.439 1.094.439.238.004.477-.039.702-.13.22-.09.41-.229.568-.405zm-.492-1.986c0-.172-.029-.344-.081-.507a1.2 1.2 0 0 0-.234-.4 1.06 1.06 0 0 0-.397-.268 1.67 1.67 0 0 0-1.141 0 1.04 1.04 0 0 0-.382.258q-.157.18-.258.396c-.081.163-.129.34-.153.52zm4.623-.717q-.202-.266-.497-.425a1.3 1.3 0 0 0-.63-.133q-.466.001-.655.167a.53.53 0 0 0-.186.42.5.5 0 0 0 .086.296.7.7 0 0 0 .23.21q.156.095.329.153.185.064.391.129c.168.053.33.11.497.172q.244.087.454.239c.134.095.248.22.334.363.09.162.134.348.129.54.005.185-.043.367-.129.534a1.2 1.2 0 0 1-.349.396 1.5 1.5 0 0 1-.52.244 2.57 2.57 0 0 1-1.562-.086 2.2 2.2 0 0 1-.759-.563l.478-.42c.32.41.73.61 1.236.61q.494 0 .736-.186.237-.186.239-.444a.6.6 0 0 0-.086-.339.8.8 0 0 0-.24-.234 1.6 1.6 0 0 0-.348-.162 22 22 0 0 0-.415-.13q-.25-.071-.492-.157a1.7 1.7 0 0 1-.435-.224 1.1 1.1 0 0 1-.315-.344 1.1 1.1 0 0 1-.124-.535q0-.58.42-.893.422-.315 1.094-.315c.291-.005.578.052.845.162.248.105.482.292.712.554l-.45.41zm1.623 3.343V5.859h.612v6.118zm.616-2.259 2.102-2.12H20l-2.154 2.1 2.144 2.274h-.85z"/>
    <path fill="#53bce6" d="M7.216 14.15H3.529v-.578h3.687z"/>
</svg>
