<svg xmlns="http://www.w3.org/2000/svg" width="20" height="20" fill="none" viewBox="0 0 20 20">
    <path fill="#000" d="M.606 14.15H0V7.799C.482 7.646.989 7.565 1.5 7.56 1.829 7.555 2.159 7.612 2.469 7.727 2.746 7.827 3.004 7.985 3.219 8.19 3.429 8.391 3.591 8.63 3.696 8.902 3.811 9.184 3.863 9.489 3.863 9.795 3.863 10.186 3.797 10.521 3.663 10.802 3.539 11.07 3.357 11.304 3.133 11.495 2.913 11.676 2.66 11.81 2.383 11.891 2.106 11.977 1.815 12.02 1.523 12.02 1.366 12.02 1.213 12.011 1.06 11.987.907 11.963.755 11.93.606 11.891V14.15ZM3.171 9.78C3.171 9.274 3.028 8.864 2.746 8.548 2.464 8.238 2.063 8.08 1.552 8.08 1.39 8.08 1.232 8.09 1.07 8.109.912 8.128.755 8.166.606 8.219V11.318C.75 11.366.893 11.404 1.041 11.438 1.184 11.471 1.328 11.485 1.476 11.485 1.996 11.485 2.407 11.337 2.713 11.041 3.018 10.75 3.171 10.33 3.171 9.78ZM5.086 11.977V5.85H5.697V11.972H5.086V11.977ZM10.707 11.337C10.511 11.552 10.267 11.724 10 11.839 9.733 11.953 9.408 12.011 9.031 12.011 8.715 12.015 8.4 11.958 8.109 11.829 7.856 11.719 7.631 11.552 7.455 11.342 7.278 11.137 7.144 10.898 7.063 10.64 6.972 10.373 6.929 10.091 6.929 9.809 6.92 9.47 6.977 9.126 7.087 8.806 7.178 8.544 7.326 8.305 7.517 8.099 7.693 7.918 7.908 7.775 8.147 7.684 8.391 7.593 8.649 7.55 8.906 7.55 9.546 7.55 10.033 7.746 10.358 8.142 10.683 8.534 10.841 9.107 10.831 9.862H7.55C7.569 10.358 7.713 10.75 7.98 11.041 8.247 11.333 8.615 11.481 9.074 11.481 9.312 11.485 9.551 11.442 9.776 11.352 9.995 11.261 10.186 11.122 10.344 10.946L10.707 11.337ZM10.215 9.351C10.215 9.179 10.186 9.007 10.134 8.844 10.081 8.696 10.005 8.558 9.9 8.443 9.79 8.324 9.651 8.233 9.503 8.176 9.136 8.042 8.73 8.042 8.362 8.176 8.219 8.233 8.085 8.319 7.98 8.434 7.875 8.553 7.789 8.687 7.722 8.83 7.641 8.993 7.593 9.169 7.569 9.351H10.215ZM14.838 8.634C14.704 8.458 14.537 8.314 14.341 8.209 14.145 8.114 13.926 8.066 13.711 8.076 13.4 8.076 13.181 8.133 13.056 8.243 12.932 8.348 12.865 8.501 12.87 8.663 12.865 8.768 12.899 8.873 12.956 8.959 13.018 9.045 13.095 9.117 13.185 9.169 13.29 9.231 13.4 9.284 13.515 9.322 13.639 9.365 13.768 9.408 13.906 9.451 14.074 9.504 14.236 9.561 14.403 9.623 14.565 9.68 14.718 9.761 14.857 9.862 14.991 9.957 15.105 10.081 15.191 10.225 15.282 10.387 15.325 10.573 15.32 10.764 15.325 10.951 15.277 11.132 15.191 11.299 15.105 11.457 14.986 11.59 14.842 11.696 14.685 11.81 14.508 11.891 14.322 11.939 13.806 12.073 13.257 12.044 12.76 11.853 12.469 11.724 12.206 11.528 12.001 11.29L12.479 10.869C12.799 11.28 13.209 11.481 13.715 11.481 14.045 11.481 14.289 11.419 14.451 11.294 14.608 11.17 14.69 11.022 14.69 10.85 14.694 10.731 14.666 10.616 14.604 10.511 14.542 10.416 14.46 10.339 14.365 10.277 14.255 10.21 14.14 10.153 14.016 10.115 13.883 10.072 13.744 10.029 13.601 9.986 13.434 9.938 13.271 9.886 13.109 9.828 12.956 9.776 12.808 9.699 12.674 9.604 12.545 9.513 12.436 9.394 12.359 9.26 12.273 9.098 12.23 8.911 12.235 8.725 12.235 8.338 12.374 8.042 12.655 7.832 12.937 7.622 13.3 7.517 13.749 7.517 14.04 7.512 14.327 7.569 14.594 7.679 14.842 7.784 15.076 7.971 15.306 8.233L14.857 8.644 14.838 8.634ZM16.461 11.977V5.859H17.073V11.977H16.461ZM17.077 9.718 19.179 7.598H20L17.846 9.699 19.99 11.972H19.14L17.077 9.718Z"/>
    <path fill="#53bce6" d="M7.21584 14.1501H3.52911V13.5723H7.21584V14.1501Z"/>
</svg>
