<svg xmlns="http://www.w3.org/2000/svg" width="20" height="20" fill="none" viewBox="0 0 20 20">
    <g clip-path="url(#clip0_116_656025)">
        <path fill="url(#a)" d="M15.74 2H11.5a.66.66 0 0 0-.661.66v14.68c0 .364.295.66.66.66h4.241a.66.66 0 0 0 .66-.66V2.66a.66.66 0 0 0-.66-.66"/>
        <g filter="url(#b)">
            <path fill="#000" d="M13.124 17.34V18H8.223a.66.66 0 0 1-.66-.66V6.648a.66.66 0 0 1 .66-.66h4.241a.66.66 0 0 1 .66.66z"/>
        </g>
        <path fill="url(#c)" d="M13.124 17.34V18H8.223a.66.66 0 0 1-.66-.66V6.648a.66.66 0 0 1 .66-.66h4.241a.66.66 0 0 1 .66.66z"/>
        <path fill="url(#d)" fill-rule="evenodd" d="M9.9 17.34V18H4.996a.66.66 0 0 1-.66-.66v-6.68a.66.66 0 0 1 .66-.66H9.24a.66.66 0 0 1 .66.66z" clip-rule="evenodd"/>
    </g>
    <defs>
        <linearGradient id="a" x1="13.62" x2="13.62" y1="2" y2="18" gradientUnits="userSpaceOnUse">
            <stop stop-color="#ebbb14"/>
            <stop offset="1" stop-color="#b25400"/>
        </linearGradient>
        <linearGradient id="c" x1="10.343" x2="10.343" y1="5.987" y2="18" gradientUnits="userSpaceOnUse">
            <stop stop-color="#f9e583"/>
            <stop offset="1" stop-color="#de9800"/>
        </linearGradient>
        <linearGradient id="d" x1="7.118" x2="7.118" y1="10" y2="18" gradientUnits="userSpaceOnUse">
            <stop stop-color="#f9e68b"/>
            <stop offset="1" stop-color="#f3cd32"/>
        </linearGradient>
        <filter id="b" width="6.578" height="13.029" x="7.562" y="5.733" color-interpolation-filters="sRGB" filterUnits="userSpaceOnUse">
            <feFlood flood-opacity="0" result="BackgroundImageFix"/>
            <feColorMatrix in="SourceAlpha" result="hardAlpha" values="0 0 0 0 0 0 0 0 0 0 0 0 0 0 0 0 0 0 127 0"/>
            <feOffset dx=".508" dy=".254"/>
            <feGaussianBlur stdDeviation=".254"/>
            <feColorMatrix values="0 0 0 0 0 0 0 0 0 0 0 0 0 0 0 0 0 0 0.0530212 0"/>
            <feBlend in2="BackgroundImageFix" result="effect1_dropShadow_116_656025"/>
            <feBlend in="SourceGraphic" in2="effect1_dropShadow_116_656025" result="shape"/>
        </filter>
    </defs>
</svg>
