<svg width="20" height="20" viewBox="0 0 20 20" fill="none" xmlns="http://www.w3.org/2000/svg">
    <g clip-path="url(#clip0_116_656025)">
        <path d="M15.7404 2H11.4991C11.1344 2 10.8388 2.29563 10.8388 2.66032V17.3397C10.8388 17.7044 11.1344 18 11.4991 18H15.7404C16.1051 18 16.4007 17.7044 16.4007 17.3397V2.66032C16.4007 2.29563 16.1051 2 15.7404 2Z" fill="url(#paint0_linear_116_656025)"/>
        <g filter="url(#filter0_d_116_656025)">
            <path d="M13.1243 17.3397V18H12.464H8.22276C7.85807 18 7.56244 17.7044 7.56244 17.3397V6.64762C7.56244 6.28294 7.85807 5.9873 8.22276 5.9873H12.464C12.8287 5.9873 13.1243 6.28294 13.1243 6.64762V17.3397Z" fill="black"/>
        </g>
        <path d="M13.1243 17.3397V18H12.464H8.22276C7.85807 18 7.56244 17.7044 7.56244 17.3397V6.64762C7.56244 6.28294 7.85807 5.9873 8.22276 5.9873H12.464C12.8287 5.9873 13.1243 6.28294 13.1243 6.64762V17.3397Z" fill="url(#paint1_linear_116_656025)"/>
        <path fill-rule="evenodd" clip-rule="evenodd" d="M9.89906 17.3397V18H9.23875H4.99748C4.63279 18 4.33716 17.7044 4.33716 17.3397V10.6603C4.33716 10.2956 4.63279 10 4.99748 10H9.23875C9.60343 10 9.89906 10.2956 9.89906 10.6603V17.3397Z" fill="url(#paint2_linear_116_656025)"/>
    </g>
    <defs>
        <filter id="filter0_d_116_656025" x="7.56244" y="5.73334" width="6.57776" height="13.0286" filterUnits="userSpaceOnUse" color-interpolation-filters="sRGB">
            <feFlood flood-opacity="0" result="BackgroundImageFix"/>
            <feColorMatrix in="SourceAlpha" type="matrix" values="0 0 0 0 0 0 0 0 0 0 0 0 0 0 0 0 0 0 127 0" result="hardAlpha"/>
            <feOffset dx="0.507937" dy="0.253968"/>
            <feGaussianBlur stdDeviation="0.253968"/>
            <feColorMatrix type="matrix" values="0 0 0 0 0 0 0 0 0 0 0 0 0 0 0 0 0 0 0.0530212 0"/>
            <feBlend mode="normal" in2="BackgroundImageFix" result="effect1_dropShadow_116_656025"/>
            <feBlend mode="normal" in="SourceGraphic" in2="effect1_dropShadow_116_656025" result="shape"/>
        </filter>
        <linearGradient id="paint0_linear_116_656025" x1="13.6198" y1="2" x2="13.6198" y2="18" gradientUnits="userSpaceOnUse">
            <stop stop-color="#EBBB14"/>
            <stop offset="1" stop-color="#B25400"/>
        </linearGradient>
        <linearGradient id="paint1_linear_116_656025" x1="10.3434" y1="5.9873" x2="10.3434" y2="18" gradientUnits="userSpaceOnUse">
            <stop stop-color="#F9E583"/>
            <stop offset="1" stop-color="#DE9800"/>
        </linearGradient>
        <linearGradient id="paint2_linear_116_656025" x1="7.11811" y1="10" x2="7.11811" y2="18" gradientUnits="userSpaceOnUse">
            <stop stop-color="#F9E68B"/>
            <stop offset="1" stop-color="#F3CD32"/>
        </linearGradient>
    </defs>
</svg>
