<svg xmlns="http://www.w3.org/2000/svg" width="20" height="20" fill="none" viewBox="0 0 20 20">
    <path fill="#da4e31" d="M10 0C4.478 0 0 4.477 0 10s4.478 10 10 10 10-4.477 10-10S15.523 0 10 0m0 18.716c-1.571 0-2.845-1.05-2.845-2.344h5.69c0 1.294-1.273 2.344-2.845 2.344m4.7-3.12H5.3V13.89h9.4zm-.034-2.582H5.327l-.093-.107c-.962-1.169-1.189-1.779-1.409-2.4-.003-.02 1.167.239 1.997.426 0 0 .427.098 1.052.212-.6-.702-.956-1.596-.956-2.509 0-2.004 1.538-3.756.983-5.172.54.044 1.117 1.14 1.156 2.852.574-.793.814-2.241.814-3.13 0-.919.606-1.987 1.212-2.023-.54.89.14 1.653.745 3.547.226.71.197 1.908.373 2.667.058-1.577.329-3.877 1.329-4.671-.441 1 .065 2.251.412 2.853.558.97.897 1.706.897 3.097 0 .932-.344 1.81-.925 2.496.66-.123 1.117-.235 1.117-.235l2.144-.418s-.311 1.28-1.509 2.515"/>
</svg>
