<svg xmlns="http://www.w3.org/2000/svg" width="20" height="20" fill="none" viewBox="0 0 20 20">
    <path fill="#000" d="M10 9.688 3.317 2.338C3.576 2.078 3.878 1.875 4.223 1.726 4.567 1.578 4.938 1.503 5.334 1.5 5.754 1.503 6.14 1.587 6.49 1.75 6.84 1.913 7.144 2.138 7.402 2.423L10 5.26 12.581 2.423C12.849 2.138 13.16 1.913 13.515 1.75 13.87 1.587 14.254 1.503 14.667 1.5 15.063 1.503 15.433 1.578 15.778 1.726 16.122 1.875 16.424 2.078 16.684 2.338L10 9.687M10 10.812 16.683 18.162C16.424 18.422 16.122 18.625 15.777 18.774 15.433 18.922 15.062 18.997 14.666 19 14.246 18.997 13.861 18.914 13.511 18.75 13.16 18.587 12.856 18.362 12.598 18.077L10 15.24 7.419 18.077C7.152 18.362 6.84 18.587 6.485 18.75 6.13 18.914 5.746 18.997 5.334 19 4.938 18.997 4.567 18.922 4.223 18.774 3.878 18.625 3.576 18.422 3.317 18.162L10 10.813"/>
    <path fill="#e57000" d="M9.438 10.25 4.404 4.729C4.111 4.417 3.77 4.171 3.381 3.992 2.992 3.813 2.572 3.722 2.12 3.719 1.687 3.722 1.281 3.804.904 3.966.526 4.129.196 4.352-.088 4.636L5.021 10.25-.088 15.865C.196 16.157.526 16.386.904 16.55 1.281 16.714 1.687 16.798 2.12 16.801 2.573 16.797 2.996 16.706 3.388 16.527 3.78 16.348 4.119 16.102 4.404 15.79L9.438 10.25ZM10.562 10.25 15.597 4.729C15.889 4.417 16.23 4.171 16.619 3.992 17.008 3.813 17.428 3.722 17.88 3.719 18.313 3.722 18.719 3.804 19.096 3.966 19.474 4.129 19.804 4.352 20.088 4.636L14.979 10.25 20.088 15.865C19.804 16.157 19.474 16.386 19.096 16.55 18.719 16.714 18.313 16.798 17.88 16.801 17.427 16.797 17.004 16.706 16.612 16.527 16.22 16.348 15.881 16.102 15.597 15.79L10.562 10.25Z"/>
</svg>
