<svg xmlns="http://www.w3.org/2000/svg" width="20" height="20" fill="none" viewBox="0 0 20 20">
    <path fill="#000" d="m10 9.688-6.683-7.35A2.87 2.87 0 0 1 5.334 1.5a2.75 2.75 0 0 1 2.068.923L10 5.26l2.581-2.837q.402-.428.934-.673a2.8 2.8 0 0 1 1.152-.25q.594.004 1.11.226.517.223.906.612zm0 1.124 6.683 7.35a2.87 2.87 0 0 1-2.017.838 2.75 2.75 0 0 1-2.068-.923L10 15.239l-2.581 2.838q-.401.428-.934.673a2.8 2.8 0 0 1-1.151.25 2.87 2.87 0 0 1-2.017-.838z"/>
    <path fill="#e57000" d="M9.438 10.25 4.404 4.73a3.3 3.3 0 0 0-1.023-.738 3 3 0 0 0-1.26-.273q-.651.004-1.217.247a3.1 3.1 0 0 0-.992.67l5.11 5.614-5.11 5.615a3.08 3.08 0 0 0 2.208.935 3.1 3.1 0 0 0 2.283-1.01zm1.124 0 5.035-5.52a3.3 3.3 0 0 1 1.022-.738q.584-.268 1.26-.273.651.004 1.217.247.567.244.992.67l-5.11 5.614 5.11 5.615a3.08 3.08 0 0 1-2.208.935 3.1 3.1 0 0 1-2.283-1.01z"/>
</svg>
