<svg xmlns="http://www.w3.org/2000/svg" width="20" height="20" fill="none" viewBox="0 0 20 20">
    <path fill="url(#a)" d="M9.656 0c-.68.003-1.33.061-1.903.163-1.685.297-1.99.92-1.99 2.07V3.75h3.981v.506H4.268c-1.157 0-2.17.696-2.488 2.019-.365 1.517-.382 2.463 0 4.047.283 1.179.96 2.019 2.117 2.019h1.369v-1.82c0-1.314 1.137-2.473 2.487-2.473h3.978c1.107 0 1.99-.912 1.99-2.024V2.232c0-1.079-.91-1.89-1.99-2.07A12.4 12.4 0 0 0 9.656 0M7.503 1.22c.411 0 .747.342.747.762a.75.75 0 0 1-.747.756.75.75 0 0 1-.747-.756c0-.42.334-.761.747-.761"/>
    <path fill="url(#b)" d="M14.218 4.256v1.768c0 1.371-1.162 2.525-2.487 2.525H7.753c-1.09 0-1.99.932-1.99 2.023v3.792c0 1.08.938 1.714 1.99 2.023 1.26.371 2.47.438 3.978 0 1.002-.29 1.99-.874 1.99-2.023v-1.518H9.745v-.505h5.968c1.158 0 1.59-.808 1.992-2.02.415-1.247.398-2.446 0-4.046-.286-1.152-.832-2.02-1.991-2.02zm-2.237 9.602c.413 0 .748.338.748.757 0 .42-.335.76-.748.76a.756.756 0 0 1-.747-.76c0-.419.336-.757.747-.757"/>
    <path fill="url(#c)" d="M9.79 20c2.947 0 5.336-.463 5.336-1.035s-2.39-1.034-5.336-1.034c-2.948 0-5.337.463-5.337 1.034 0 .572 2.39 1.035 5.337 1.035" opacity=".444"/>
    <defs>
        <linearGradient id="a" x1="1.5" x2="10.682" y1="0" y2="7.824" gradientUnits="userSpaceOnUse">
            <stop stop-color="#5a9fd4"/>
            <stop offset="1" stop-color="#306998"/>
        </linearGradient>
        <linearGradient id="b" x1="11.886" x2="8.591" y1="14.487" y2="9.871" gradientUnits="userSpaceOnUse">
            <stop stop-color="#ffd43b"/>
            <stop offset="1" stop-color="#ffe873"/>
        </linearGradient>
        <radialGradient id="c" cx="0" cy="0" r="1" gradientTransform="matrix(0 -1.03474 4.54812 0 9.79 18.965)" gradientUnits="userSpaceOnUse">
            <stop stop-color="#b8b8b8" stop-opacity=".498"/>
            <stop offset="1" stop-color="#7f7f7f" stop-opacity="0"/>
        </radialGradient>
    </defs>
</svg>
