<svg xmlns="http://www.w3.org/2000/svg" width="20" height="20" fill="none" viewBox="0 0 20 20">
    <path fill="#615ced" fill-rule="evenodd" d="M12.447 8.293c.035 0 .044.018.026.045l-.604 1.058-1.884 3.315c0 .018-.018.018-.036.018s-.027 0-.036-.018L7.416 8.356c-.018-.027 0-.036.017-.036h.16l4.863-.018zM7.905 2.498c-.018 0-.027 0-.036.018L5.798 6.142q-.029.054-.098.054H3.63q-.066 0-.027.053l4.196 7.342c.018.027.009.045-.027.045H5.753a.15.15 0 0 0-.142.097l-.95 1.671c-.036.054-.019.09.052.09h4.134c.035 0 .062.017.07.053l1.014 1.777c.036.063.062.063.098 0l3.618-6.328.569-.996c0-.018.017-.018.035-.018s.027 0 .036.018l1.03 1.831a.1.1 0 0 0 .08.045l2-.018c.01 0 .019 0 .027-.018v-.027l-2.097-3.68a.07.07 0 0 1 0-.08l.213-.364.809-1.431c.018-.027 0-.045-.027-.045H7.94q-.066 0-.027-.053l1.04-1.813a.07.07 0 0 0 0-.08l-.986-1.734c0-.017-.018-.026-.036-.026zm2.48-.285c.284.498.568.996.844 1.503.027.044.062.062.116.062h4.008q.188 0 .32.24l1.05 1.858c.133.24.177.346.017.604-.187.311-.373.622-.551.942l-.267.48c-.08.142-.16.205-.026.374l1.92 3.35c.124.214.08.356-.027.56-.32.57-.64 1.13-.969 1.69-.116.195-.258.266-.489.266-.56-.009-1.12 0-1.68.01-.027 0-.044.017-.062.035a428 428 0 0 1-1.956 3.422c-.124.213-.275.267-.524.267H9.931a.37.37 0 0 1-.338-.196L8.625 16c-.01-.027-.036-.036-.063-.036H4.865q-.31.029-.578-.062l-1.156-2a.39.39 0 0 1 0-.39l.871-1.53a.14.14 0 0 0 0-.142c-.453-.791-.906-1.573-1.35-2.364l-.57-1.005c-.115-.222-.124-.355.071-.693.338-.587.667-1.174 1.005-1.76a.43.43 0 0 1 .418-.24H5.45a.1.1 0 0 0 .08-.045l2.027-3.537a.34.34 0 0 1 .302-.178h1.147L9.745 2c.248 0 .524.027.648.249z" clip-rule="evenodd"/>
</svg>
