<svg xmlns="http://www.w3.org/2000/svg" width="20" height="20" fill="none" viewBox="0 0 20 20">
    <path fill="#f60" d="M18.629 8h-6.285a.57.57 0 0 1-.571-.571V.879A.88.88 0 0 0 10.895 0H8.65a.88.88 0 0 0-.878.879v6.51a.614.614 0 0 1-.611.614l-2.06.01a.614.614 0 0 1-.617-.615L4.498.88A.88.88 0 0 0 3.62 0H1.378A.88.88 0 0 0 .5.879V19.22c0 .43.35.78.78.78h17.349c.43 0 .78-.35.78-.78V8.78a.78.78 0 0 0-.78-.78m-2.947 6.887c0 .564-.458 1.022-1.023 1.022h-1.773a1.023 1.023 0 0 1-1.022-1.023v-1.773c0-.564.457-1.022 1.022-1.022h1.773c.565 0 1.023.458 1.023 1.022z"/>
</svg>
