<svg xmlns="http://www.w3.org/2000/svg" viewBox="0 0 20 20">
    <g fill="currentColor">
        <path fill="#e00" d="M13.34 8.72c1.315 0 3.217-.271 3.217-1.835a1.5 1.5 0 0 0-.033-.36l-.783-3.4c-.18-.747-.34-1.087-1.652-1.743C13.069.86 10.849 0 10.193 0c-.612 0-.79.788-1.519.788C7.973.788 7.451.2 6.794.2c-.63 0-1.04.43-1.358 1.313 0 0-.883 2.492-.997 2.854a.7.7 0 0 0-.023.203c0 .97 3.814 4.145 8.924 4.145m3.418-1.195c.182.86.182.95.182 1.064 0 1.471-1.654 2.287-3.828 2.287-4.913.004-9.216-2.875-9.216-4.778 0-.265.054-.527.159-.77C2.287 5.41 0 5.726 0 7.746c0 3.307 7.837 7.384 14.042 7.384C18.8 15.13 20 12.978 20 11.279c0-1.336-1.156-2.854-3.24-3.76"/>
        <path fill="#000" d="M16.758 7.52c.182.86.182.95.182 1.064 0 1.471-1.654 2.287-3.828 2.287-4.913.004-9.216-2.875-9.216-4.778 0-.265.054-.527.159-.77l.384-.952a.7.7 0 0 0-.023.2c0 .968 3.814 4.144 8.924 4.144 1.315 0 3.217-.27 3.217-1.834a1.5 1.5 0 0 0-.033-.36z"/>
    </g>
</svg>
