<svg xmlns="http://www.w3.org/2000/svg" width="22" height="20" fill="none" viewBox="0 0 22 20">
    <path fill="#a32422" d="M8.567 11.893c-.435.227-2.691 1.155-3.177 1.41s-.746.247-1.126.065c-.38-.181-2.773-1.154-3.207-1.362q-.328-.151-.33-.272v-.825s3.126-.678 3.63-.861c.505-.183.679-.187 1.108-.03.428.157 2.998.62 3.422.774v.814c0 .085-.098.167-.32.286"/>
    <path fill="#dc382c" d="M8.567 11.071c-.435.226-2.691 1.154-3.177 1.405-.486.25-.746.248-1.126.066-.38-.18-2.773-1.154-3.207-1.36-.433-.205-.442-.349-.017-.515.426-.166 2.813-1.1 3.317-1.285.505-.184.679-.187 1.108-.03.428.158 2.675 1.05 3.097 1.206s.441.283.005.509z"/>
    <path fill="#a32422" d="M8.567 10.548c-.435.227-2.691 1.155-3.177 1.405s-.744.248-1.124.066c-.38-.183-2.775-1.15-3.209-1.357-.218-.104-.33-.19-.33-.273v-.823s3.126-.68 3.63-.863c.505-.183.679-.188 1.108-.028.428.159 2.998.618 3.422.773v.814c0 .085-.098.17-.32.286"/>
    <path fill="#dc382c" d="M8.567 9.723c-.435.227-2.691 1.155-3.177 1.405s-.746.248-1.126.067c-.38-.182-2.773-1.151-3.207-1.358s-.441-.349-.017-.515c.425-.166 2.813-1.103 3.317-1.282.505-.179.679-.19 1.108-.034.428.155 2.675 1.055 3.097 1.206s.441.284.005.51"/>
    <path fill="#a32422" d="M8.567 9.153c-.435.228-2.691 1.156-3.177 1.405s-.744.248-1.124.067c-.38-.18-2.775-1.151-3.209-1.358-.218-.103-.33-.19-.33-.273V8.17s3.126-.678 3.63-.86c.505-.183.679-.188 1.108-.031.428.157 2.996.62 3.42.776v.813c.002.086-.096.17-.318.286"/>
    <path fill="#dc382c" d="M8.567 8.329c-.435.223-2.691 1.156-3.177 1.404-.486.249-.746.248-1.126.067-.38-.18-2.773-1.152-3.207-1.358s-.442-.35-.017-.515c.426-.166 2.813-1.103 3.317-1.285.505-.181.679-.187 1.108-.03.428.158 2.675 1.051 3.097 1.206s.441.284.005.51z"/>
    <path fill="#fff" d="m4.935 7.157.539-.177-.147.35.548.204-.706.074-.159.381-.255-.425-.816-.074.61-.22-.184-.337zm.035 2.225-1.32-.547 1.89-.29zM3.14 7.746c.557 0 1.01.176 1.01.39s-.454.39-1.01.39c-.557 0-1.012-.175-1.012-.39 0-.214.453-.39 1.011-.39"/>
    <path fill="#741113" d="m6.712 7.638 1.119.442-1.118.442z"/>
    <path fill="#ac2724" d="m6.712 7.638.001.884-.121.048-1.118-.442z"/>
    <path fill="#494c4d" d="M11.484 8.808a1 1 0 0 1 .347-.242q.195-.082.407-.09a.37.37 0 0 1 .279.09.28.28 0 0 1 .084.212.3.3 0 0 1-.084.21.27.27 0 0 1-.212.092c-.347.03-.83.377-.83.848v1.069a.31.31 0 0 1-.302.302.28.28 0 0 1-.216-.094.3.3 0 0 1-.09-.21v-2.23a.3.3 0 0 1 .09-.211.4.4 0 0 1 .227-.076.31.31 0 0 1 .302.3zm3.662.982a.3.3 0 0 1-.075.197.34.34 0 0 1-.211.09h-1.784a.57.57 0 0 0 .194.365.8.8 0 0 0 .528.255.78.78 0 0 0 .588-.136.3.3 0 0 1 .227-.09.26.26 0 0 1 .196.075.246.246 0 0 1 .014.348l-.014.014a1.37 1.37 0 0 1-.98.363 1.28 1.28 0 0 1-.98-.423c-.255-.27-.4-.626-.406-.997a1.36 1.36 0 0 1 .406-.997 1.26 1.26 0 0 1 .951-.407 1.23 1.23 0 0 1 .933.377c.256.246.408.58.424.933v.03zm-1.343-.8a.79.79 0 0 0-.75.586h1.584a.7.7 0 0 0-.272-.376.96.96 0 0 0-.557-.213m4.178 1.979a.31.31 0 0 1-.302.302.325.325 0 0 1-.302-.242 1.3 1.3 0 0 1-.77.242 1.3 1.3 0 0 1-.966-.407 1.34 1.34 0 0 1-.393-.997c-.003-.37.138-.727.393-.996a1.33 1.33 0 0 1 .965-.424c.271-.003.536.082.755.242V7.631a.28.28 0 0 1 .09-.211.3.3 0 0 1 .33-.069q.056.025.096.069a.3.3 0 0 1 .09.211v3.335zm-1.357-.302a.67.67 0 0 0 .527-.24.803.803 0 0 0 0-1.115.72.72 0 0 0-.527-.244.65.65 0 0 0-.529.242.803.803 0 0 0 0 1.114.7.7 0 0 0 .529.241m2.249-3.031v.122a.3.3 0 0 1-.093.23.26.26 0 0 1-.211.075.27.27 0 0 1-.21-.09.3.3 0 0 1-.092-.226V7.63a.3.3 0 0 1 .091-.211.3.3 0 0 1 .326-.068q.056.025.096.069a.27.27 0 0 1 .093.211m-.51.921a.295.295 0 0 1 .328-.069.3.3 0 0 1 .095.07.3.3 0 0 1 .087.222v2.208a.25.25 0 0 1-.093.211.3.3 0 0 1-.326.069.3.3 0 0 1-.096-.069.3.3 0 0 1-.09-.21V8.777a.3.3 0 0 1 .09-.223m2.656.21a.3.3 0 0 1 .12.18.4.4 0 0 1-.03.227.3.3 0 0 1-.18.12.3.3 0 0 1-.227-.045c-.211-.136-.376-.21-.513-.21a.5.5 0 0 0-.334.104c-.06.046-.09.076-.09.106a.1.1 0 0 0 .014.076.2.2 0 0 0 .06.045.9.9 0 0 0 .409.135q.282.047.542.167a.76.76 0 0 1 .363.318.75.75 0 0 1-.227 1.04c-.21.152-.465.23-.724.227-.347 0-.679-.136-.996-.39a.32.32 0 0 1-.106-.197.29.29 0 0 1 .468-.254.88.88 0 0 0 .619.241.65.65 0 0 0 .377-.106c.06-.06.106-.105.106-.15 0-.046 0-.06-.015-.076 0-.016-.03-.045-.076-.06a1.1 1.1 0 0 0-.453-.16 1.6 1.6 0 0 1-.513-.167.9.9 0 0 1-.362-.316.74.74 0 0 1 .242-.966c.204-.14.446-.213.694-.211.254.015.528.12.83.317"/>
</svg>
