<svg xmlns="http://www.w3.org/2000/svg" width="20" height="20" fill="none" viewBox="0 0 20 20">
    <path fill="#000" d="m19.863 9.755-.84-.52L19 8.99l.721-.673a.288.288 0 0 0-.095-.482l-.923-.345q-.035-.12-.072-.238l.575-.799A.29.29 0 0 0 19.018 6l-.972-.158-.117-.219.409-.897a.288.288 0 0 0-.273-.409l-.988.035-.155-.19.226-.96a.29.29 0 0 0-.347-.349l-.962.227-.19-.156.036-.987a.288.288 0 0 0-.41-.273l-.896.409-.218-.117L14 .982a.29.29 0 0 0-.453-.188l-.8.575-.237-.072-.345-.922a.288.288 0 0 0-.482-.097l-.673.723-.245-.024-.52-.84a.29.29 0 0 0-.491 0l-.52.84L8.99 1 8.317.278a.29.29 0 0 0-.482.097l-.345.922-.237.072-.8-.575a.288.288 0 0 0-.454.188l-.159.973-.218.117-.897-.41a.288.288 0 0 0-.409.274l.035.987-.19.156-.961-.227a.29.29 0 0 0-.348.348l.226.962-.155.189-.987-.035a.29.29 0 0 0-.273.409l.409.897q-.06.108-.118.219l-.972.158a.29.29 0 0 0-.188.454l.575.8q-.038.118-.072.237l-.923.345a.29.29 0 0 0-.095.482L1 8.99l-.024.245-.84.52a.29.29 0 0 0 0 .491l.84.52q.01.123.024.245l-.721.673a.29.29 0 0 0 .095.482l.923.345q.034.12.072.238l-.575.799a.29.29 0 0 0 .188.454l.972.158q.057.11.118.219l-.41.897a.29.29 0 0 0 .274.409l.986-.035.156.19-.226.961a.288.288 0 0 0 .348.347l.961-.226q.094.079.19.155l-.035.988a.29.29 0 0 0 .409.272l.897-.408q.108.06.218.117l.159.972a.288.288 0 0 0 .454.189l.8-.576q.117.038.237.072l.345.922a.288.288 0 0 0 .482.096L8.99 19q.123.014.245.024l.52.84a.29.29 0 0 0 .491 0l.52-.84q.123-.01.245-.024l.673.721a.288.288 0 0 0 .481-.096l.345-.922q.12-.035.238-.072l.8.576a.29.29 0 0 0 .454-.189l.158-.972.219-.117.897.409a.288.288 0 0 0 .408-.273l-.034-.988q.096-.075.19-.155l.96.226a.287.287 0 0 0 .348-.347l-.226-.962q.078-.093.155-.19l.987.036a.288.288 0 0 0 .273-.41l-.408-.896q.06-.108.117-.219l.972-.158a.29.29 0 0 0 .188-.454l-.575-.8q.037-.118.072-.237l.922-.345a.288.288 0 0 0 .096-.482L19 11.01q.013-.123.023-.245l.84-.52a.288.288 0 0 0 0-.491m-5.62 6.965a.595.595 0 0 1 .25-1.163.595.595 0 0 1-.25 1.163m-.285-1.93a.54.54 0 0 0-.643.417l-.298 1.391c-.92.418-1.941.65-3.017.65-1.1 0-2.144-.244-3.08-.679l-.298-1.391a.54.54 0 0 0-.643-.417l-1.228.264a7 7 0 0 1-.635-.748h5.975c.068 0 .113-.012.113-.074v-2.114c0-.061-.045-.074-.113-.074H8.344v-1.34h1.89c.172 0 .922.05 1.162 1.008.075.295.24 1.254.353 1.562.112.344.57 1.032 1.057 1.032h2.978q.051 0 .108-.011-.31.42-.677.795zM5.693 16.69a.594.594 0 1 1-.249-1.16.594.594 0 0 1 .25 1.16M3.427 7.5a.595.595 0 1 1-1.088.482.595.595 0 0 1 1.088-.482M2.73 9.15l1.28-.568a.54.54 0 0 0 .275-.715L4.02 7.27h1.036v4.67h-2.09a7.3 7.3 0 0 1-.237-2.79m5.614-.453V7.32h2.468c.127 0 .9.147.9.725 0 .48-.593.652-1.08.652zm8.968 1.239q0 .274-.02.543h-.75c-.075 0-.105.05-.105.123v.344c0 .811-.458.988-.858 1.033-.382.043-.805-.16-.857-.394-.225-1.266-.6-1.536-1.193-2.003.735-.467 1.5-1.156 1.5-2.078 0-.995-.682-1.622-1.147-1.93-.653-.43-1.375-.516-1.57-.516H4.553a7.3 7.3 0 0 1 4.09-2.309l.915.96a.54.54 0 0 0 .766.017l1.023-.978a7.32 7.32 0 0 1 5.006 3.565l-.7 1.582a.543.543 0 0 0 .275.715l1.349.6q.035.358.035.726M9.56 1.933a.593.593 0 1 1 .82.86.595.595 0 0 1-.82-.86m6.952 5.595a.593.593 0 1 1 1.085.482.593.593 0 1 1-1.085-.482"/>
</svg>
