<svg xmlns="http://www.w3.org/2000/svg" width="20" height="20" fill="none" viewBox="0 0 20 20">
    <g clip-path="url(#clip0_110_655540)">
        <path fill="#7099a6" d="M9.746 2.88v.728H8.444v.474h1.302V5.53h.508V4.08h1.334v-.473h-1.334V2.156h-.508z"/>
        <path fill="#eb912c" d="M5.493 4.726v1.056h-1.97v.663h1.97v2.144h.73V6.445h2v-.663h-2V3.67h-.73z"/>
        <path fill="#59879b" d="M13.747 4.726v1.056h-1.97v.695h1.97v2.112h.76V6.477h1.97v-.695h-1.97V3.67h-.76z"/>
        <path fill="#e8762c" d="M9.556 8.323v1.183H7.365v.88h2.191v2.367h.888v-2.366h2.191v-.881h-2.191V7.14h-.888z"/>
        <path fill="#5b6591" d="M16 8.92v.742h-1.333v.6H16v1.482h.665v-1.481H18v-.6h-1.334V8.18h-.665z"/>
        <path fill="#7099a6" d="M3.301 8.985v.71H2v.503h1.301v1.42h.509v-1.42l1.334-.048v-.455H3.81v-1.42h-.509z"/>
        <path fill="#c72035" d="M5.493 12.327v1.056h-1.97v.695h1.97v2.111h.76v-2.111h1.97v-.695h-1.97V11.27h-.76z"/>
        <path fill="#1f447e" d="M13.747 12.327v1.056h-1.97v.662h1.97v2.144h.76v-2.144h1.97v-.662h-1.97V11.27h-.76z"/>
        <path fill="#5b6591" d="M9.683 15.01v.739H8.35v.6h1.333v1.482h.666v-1.482h1.334v-.6h-1.334v-1.482h-.666z"/>
    </g>
</svg>
