<svg xmlns="http://www.w3.org/2000/svg" width="16" height="16" fill="none" viewBox="0 0 16 16">
    <path fill="#a0d1c5" d="M8.666 1.03a6 6 0 0 0-.44-.027L8.009 1c-.002 2.326-.021 4.653 0 6.979h6.977a13 13 0 0 0-.013-.551c-.19-2.174-1.313-4.065-3.133-5.28a8.7 8.7 0 0 0-1.445-.73 7.8 7.8 0 0 0-1.73-.388"/>
    <path fill="#404040" fill-rule="evenodd" d="m8.012 4.97.003 1.54c.008 1.834.005 1.996-.062 2.47a6.9 6.9 0 0 1-1.888 3.862c-1.264 1.304-2.882 2.04-4.708 2.14L1.014 15v-3.63c0-2.202.01-3.752.027-3.941.189-2.175 1.312-4.066 3.133-5.281a8.7 8.7 0 0 1 1.445-.73 7.8 7.8 0 0 1 1.729-.388c.119-.014.316-.025.44-.027L8.01 1zM6.139 3.946a.444.444 0 1 0 0 .887.444.444 0 0 0 0-.887" clip-rule="evenodd"/>
    <path fill="#f2c600" d="M5.484 2.534a1.9 1.9 0 0 1 1.173-.046c.518.138.988.519 1.229.994l.124.252c.145.381.103.9-.003 1.277l-.054.135c-.135.33-.492.735-.813.927-.297.175-.759.294-1.072.27l-.152-.011.008.11c.009.08-.005.13-.04.174-.051.064-.051.064.046.297.386.897.294 1.774-.27 2.61-.84 1.239-2.645 2.198-4.368 2.325-.24.019-.251.016-.251-.035 0-.049.024-.057.283-.073.967-.062 2.013-.433 2.904-1.03.943-.629 1.543-1.412 1.715-2.233.022-.103.04-.33.04-.505 0-.368-.07-.695-.215-1.024-.073-.162-.1-.195-.154-.195-.281 0-.427-.3-.227-.467l.078-.065-.167-.073c-.216-.091-.516-.335-.692-.553a1.94 1.94 0 0 1-.31-1.875 2 2 0 0 1 1.188-1.186m.22 3.862c-.07-.073-.133-.084-.208-.038-.09.051-.038.227.086.294.04.022.046.019.035-.027-.013-.051.01-.065.122-.062.056.003.035-.1-.035-.167m1.95-2.77a1.7 1.7 0 0 0-1.72-.918 1.72 1.72 0 0 0-1.416 1.213 1.705 1.705 0 0 0 .886 1.986 1.66 1.66 0 0 0 1.934-.335c.335-.333.491-.705.494-1.175a1.5 1.5 0 0 0-.178-.77"/>
</svg>
