<svg xmlns="http://www.w3.org/2000/svg" width="20" height="20" fill="none" viewBox="0 0 20 20">
    <path fill="#c9781f" d="m10.14 10.696 5.81-2.836c-1.113-.365-2.21-1.25-6.113-1.25-4.253 0-5.69 1.25-5.69 1.25z"/>
    <path fill="#f6d2a2" d="M3.54 11.624c-.292-.135-.013-.48.136-.588a1.54 1.54 0 0 1 1.025-.262l-.025.627c-.021.317-.09.184-.322.345-.246.166-.788.417-.814-.125"/>
    <path fill="#c6b198" d="M3.755 11.499c-.053.072-.136.092-.215.122Z"/>
    <path fill="#37abc8" d="M5.928 3.026C4.26 1.94 2.714 4.58 4.793 5.164zm9.315 1.906c1.912-.655.425-3.258-1.22-2.104z"/>
    <path fill="#f6d2a2" d="M14.378 18.291c-.397.063-.685.344-.913.653.529.16.866 1.315 1.468.765.627-.379-.137-1.16-.555-1.418m-7.463.883c-.278-.364-.61-.822-1.139-.715-.38.279-1.109.69-.752 1.253.094.094.088.04.149.068.035.062.182.365.567.135.409-.224.684-.666 1.175-.741"/>
    <path fill="#077e91" d="M5.29 3.663c-.274-.145-.563-.177-.718.116-.168.317.033.515.307.658zm9.11-.275c.274-.145.563-.177.718.116.167.317-.034.514-.308.658z"/>
    <path fill="#f6d2a2" d="M16.696 11.555c.292-.135.014-.48-.136-.588a1.54 1.54 0 0 0-1.025-.262l.026.627c.02.317.089.184.322.345.245.166.788.416.814-.125"/>
    <path fill="#c6b198" d="M16.481 11.43c.053.072.137.093.216.122Z"/>
    <path fill="#37abc8" d="M9.91 1.731c-2.241.177-4.324.697-5.097 2.994-.744 2.215-.04 4.485-.13 6.748-.08 1.91-.58 4.464.482 6.181.905 1.464 2.843 1.987 4.447 2.044 2.042.073 4.521-.425 5.513-2.404.944-1.882.679-4.227.56-6.257-.14-2.364.184-4.776-.728-7.013C13.94 2.028 11.991 1.73 9.91 1.73"/>
    <path fill="#fff" d="M10.277 4.52c-.124-2.009 2.956-2.551 3.413-.59.51 2.185-3.04 2.758-3.413.59m-4.24.35c-.463-2.318 3.26-2.756 3.396-.488.114 1.893-2.912 2.376-3.396.489m4.254 1.971c-.01.342-.07.673-.027 1.016a.5.5 0 0 0 .378.294c.122-.055.263-.07.335-.205.057-.326-.009-.609-.01-.898z"/>
    <path fill="#000" d="M6.872 5.116c.282 0 .51-.247.51-.553s-.228-.553-.51-.553-.511.247-.511.553.228.553.51.553"/>
    <path fill="#fff" d="M7.104 4.828c.067 0 .12-.063.12-.14 0-.079-.053-.141-.12-.141s-.12.062-.12.14.053.14.12.14"/>
    <path fill="#000" d="M11.153 4.979c.278 0 .502-.247.502-.554 0-.306-.224-.553-.502-.553-.279 0-.503.247-.503.553s.224.554.503.554"/>
    <path fill="#fff" d="M11.381 4.69c.066 0 .12-.062.12-.14s-.054-.14-.12-.14c-.065 0-.118.062-.118.14s.053.14.118.14m-1.118 2.207c-.01.342-.07.674-.027 1.016-.605.797-.952-.282-.73-.822z"/>
    <path fill="#f6d2a2" d="M10.822 6.001c.457.19 1.042.621.633 1.063-.368.398-.743-.076-1.2-.086-.398-.052-1.037.51-1.323-.007-.216-.39.123-.884.539-.92z"/>
    <path fill="#ef9325" d="M9.788 9.234s.205 1.145.22 2.386-.197 3.41-.299 3.674-.37.604-.533.712-.814.302-1.723.343-1.962-.167-2.615-.54c-.653-.372-.862-.785-.862-.785s.138-2.211.342-2.683.591-.29.56-1.254c-.03-.965-.619-.577-.61-1.19L4.147 7.86z"/>
    <path fill="#e5e5e5" d="M9.914 13.904c.069-.37.098-.68.057-1.071 0 0-2.812.274-5.6-.589-.204.295-.25 1.133-.25 1.133s3.11.825 5.79.527zm-.34 1.65c.179-.228.239-.645.264-1.07 0 0-2.977.215-5.765-.648-.106.354-.096 1.158-.096 1.158s2.917.86 5.597.56"/>
    <path fill="#ef9325" d="M10.58 9.234s-.208 1.145-.223 2.386.199 3.41.302 3.674.376.604.54.712.823.302 1.745.343c.921.042 1.986-.167 2.647-.54.662-.372.874-.785.874-.785s-.137-2.211-.344-2.683-.598-.29-.567-1.254c.031-.965.397-.577.387-1.19l.01-2.037z"/>
    <path fill="#e5e5e5" d="M10.46 13.904c-.07-.37-.1-.68-.058-1.071 0 0 2.847.274 5.67-.589.203.295.25 1.133.25 1.133s-3.15.825-5.863.527m.34 1.65c-.181-.228-.242-.645-.267-1.07 0 0 3.015.215 5.837-.648.108.354.098 1.158.098 1.158s-2.954.86-5.668.56"/>
    <path fill="#d2e261" d="M18.932 6.89c.084-.16.054-.34-.068-.404l-.097-.052c-.122-.064-.289.012-.373.171l-1.899 3.58c-.084.16-.054.34.068.404l.097.052c.122.064.288-.012.373-.171z"/>
    <path fill="#000" d="M17.027 10.48c.049-.092-.01-.22-.131-.284l-.098-.051c-.122-.064-.26-.041-.31.051l-.89 1.68c-.049.092.01.22.131.284l.098.051c.122.065.26.042.31-.05z"/>
    <path fill="#9b9b9b" d="m17.09 10.36-.056.108c.032-.06-.04-.16-.163-.225l-.097-.052c-.122-.064-.246-.068-.278-.008l.057-.107c.032-.06.156-.056.278.008l.097.052c.122.064.194.165.163.225"/>
    <path fill="#f6d2a2" d="M16.014 11.41c.216.08.441.01.504-.158.062-.167-.062-.367-.28-.448-.216-.08-.441-.01-.503.157-.063.167.062.368.279.448"/>
    <path fill="#d2e261" d="M1.54 6.864c-.077-.162-.039-.341.085-.4l.1-.047c.125-.062.288.026.365.188l1.733 3.662c.076.163.038.342-.086.401l-.1.047c-.124.062-.288-.026-.365-.188z"/>
    <path fill="#000" d="M3.282 10.54c-.045-.095.019-.22.143-.278l.1-.047c.124-.059.261-.03.306.065l.812 1.718c.045.095-.019.22-.143.278l-.1.047c-.124.059-.261.03-.306-.066z"/>
    <path fill="#9b9b9b" d="m3.22 10.416.052.11c-.03-.061.048-.159.172-.217l.1-.047c.125-.059.25-.057.279.005l-.052-.11c-.03-.061-.154-.064-.278-.005l-.1.047c-.126.059-.202.156-.173.217"/>
    <path fill="#f6d2a2" d="M4.121 10.85c-.217.082-.341.282-.28.45.063.167.289.237.505.156s.342-.28.28-.448c-.063-.168-.288-.238-.505-.157"/>
    <path fill="#960000" d="M5.036 5.977s1.227-1.525 1.889-3.43c.062-.18.022-.342-.136-.429l-.182-.1a.32.32 0 0 0-.435.115l-1.888 3.43a.32.32 0 0 0 .136.428l.181.1a.32.32 0 0 0 .436-.114z"/>
    <path fill="#595959" d="M5.536 4.017C4.958 5.06 4.406 5.86 4.27 5.837l-.002.005-.008-.005c-.877-.488-1.113-1.743-.526-2.81.586-1.065 1.774-1.537 2.657-1.06l.001.001.007.003-.002.004c.09.105-.287 1-.862 2.042"/>
    <path fill="#960000" d="M15 5.984S13.817 4.425 13.21 2.5c-.057-.181-.011-.342.149-.424l.187-.095a.32.32 0 0 1 .432.127l1.792 3.484a.32.32 0 0 1-.148.424l-.188.095a.32.32 0 0 1-.432-.127z"/>
    <path fill="#595959" d="M14.558 4.013c.544 1.06 1.078 1.874 1.212 1.856l.003.004.008-.004c.89-.464 1.162-1.71.607-2.793s-1.728-1.59-2.625-1.138l-.008.004.002.003c-.093.1.259 1.004.803 2.067z"/>
    <path fill="#353535" d="M16.33 3.197S15.842 1.54 14.887.67s-8.355-.917-9.482 0-1.696 2.528-1.696 2.528v.366s.464-1.355 1.696-2.527 8.731-.87 9.498 0c.766.871 1.427 2.527 1.427 2.527z"/>
    <path fill="#960000" d="M16.033 2.568c-.128.066-.102.369.058.68s.39.509.518.444c.128-.066.099-.37-.057-.68-.16-.312-.392-.51-.52-.444m-12.458.394c-.169.303-.204.608-.078.678s.363-.125.531-.428c.17-.303.204-.61.078-.678-.126-.07-.363.122-.531.428"/>
    <path fill="#000" d="M9.419 6.03c.067.534 1.666.395 1.503-.207-.162-.602-1.534-.512-1.504.207"/>
    <path fill="#fff" d="M13.507 3.216c1.035 0 1.322 3.001.183 3.525l-2.439-.272c-.295 0-.62-1.014-.764-1.115-.143-.1-.507-.09-.617 0s-.699 1.23-.994 1.23l-2.439.156c-1.179-.192-1.184-3.525.073-3.525h6.995z" opacity=".6"/>
    <path fill="#fff" d="M8.368 3.905c1.027.023 1.897.5 2.893.5.707 0 2.181.021 3.109.021.027.407.116.84-.005 1.244l-3.057-.003a3.4 3.4 0 0 1-.676-.082c-.058-.115-.108-.203-.145-.229-.143-.1-.507-.09-.617 0l-.027.03c-.436-.114-.904-.22-1.46-.22L5.56 5.165c-.061-.445.062-.903.172-1.264l2.635.005" opacity=".5"/>
</svg>
