<svg xmlns="http://www.w3.org/2000/svg" width="20" height="20" fill="none" viewBox="0 0 20 20">
    <path fill="#000" d="M10.217 10a.574.574 0 0 0 .571-.57.574.574 0 0 0-.57-.571.574.574 0 0 0-.571.57c0 .3.244.571.57.571M8.505 8.424a.574.574 0 0 0 .571-.57.557.557 0 0 0-.57-.571.574.574 0 0 0-.571.57c0 .326.244.57.57.57m1.712 0a.574.574 0 0 0 .571-.57.557.557 0 0 0-.57-.571.574.574 0 0 0-.571.57c0 .326.244.57.57.57m1.712 0a.574.574 0 0 0 .571-.57.557.557 0 0 0-.57-.571.574.574 0 0 0-.571.57c0 .326.271.57.57.57M8.505 6.875a.574.574 0 0 0 .571-.57.557.557 0 0 0-.57-.571.574.574 0 0 0-.571.57c0 .326.244.571.57.571m1.712 0a.574.574 0 0 0 .571-.57.557.557 0 0 0-.57-.571.574.574 0 0 0-.571.57c0 .326.244.571.57.571m1.712 0a.574.574 0 0 0 .571-.57.557.557 0 0 0-.57-.571.574.574 0 0 0-.571.57c0 .326.271.571.57.571m-1.712-1.549a.574.574 0 0 0 .571-.57.557.557 0 0 0-.57-.571.574.574 0 0 0-.571.57c0 .3.244.571.57.571m1.712 0a.574.574 0 0 0 .571-.57.557.557 0 0 0-.57-.571.574.574 0 0 0-.571.57c0 .3.271.571.57.571m-3.424 0a.574.574 0 0 0 .571-.57.557.557 0 0 0-.57-.571.574.574 0 0 0-.571.57c0 .3.244.571.57.571M10 19.566 0 0h20z"/>
</svg>
