<svg xmlns="http://www.w3.org/2000/svg" width="20" height="20" fill="none" viewBox="0 0 20 20">
    <g fill="#00749a">
        <path d="M1.421 10a8.58 8.58 0 0 0 4.835 7.72L2.164 6.509A8.55 8.55 0 0 0 1.421 10m14.37-.433c0-1.06-.38-1.795-.707-2.366-.435-.707-.842-1.305-.842-2.012 0-.788.597-1.522 1.44-1.522q.056.002.111.006A8.55 8.55 0 0 0 10 1.421a8.57 8.57 0 0 0-7.168 3.867c.202.006.392.01.553.01.897 0 2.286-.109 2.286-.109.462-.027.517.652.055.707 0 0-.465.055-.982.082l3.124 9.292 1.877-5.63L8.41 5.977c-.462-.027-.9-.082-.9-.082-.462-.027-.408-.734.054-.707 0 0 1.417.11 2.26.11.897 0 2.286-.11 2.286-.11.463-.027.517.652.055.707 0 0-.466.055-.982.082l3.1 9.221.856-2.859c.371-1.187.653-2.039.653-2.773"/>
        <path d="m10.15 10.75-2.573 7.48a8.57 8.57 0 0 0 5.272-.137 1 1 0 0 1-.061-.119zm7.377-4.866q.057.41.058.882c0 .87-.162 1.85-.652 3.073l-2.62 7.576A8.57 8.57 0 0 0 18.578 10a8.5 8.5 0 0 0-1.05-4.116"/>
        <path d="M10 0C4.486 0 0 4.486 0 10s4.486 10 10 10 10-4.485 10-10S15.515 0 10 0m0 19.542C4.74 19.542.46 15.262.46 10S4.739.459 10 .459s9.541 4.28 9.541 9.54c0 5.262-4.28 9.543-9.54 9.543"/>
    </g>
</svg>
