<svg xmlns="http://www.w3.org/2000/svg" width="550" height="550" fill="none" viewBox="0 0 550 550">
    <path fill="#3F4250" fill-rule="evenodd" d="m192.242 112.788.029.016.025.017a.2.2 0 0 0 .055.033c.09.04.18.06.28.06h.08l11.95-1.46 4.46 29.03c.03.19.13.35.28.46.12.09.26.13.41.13.04 0 .08 0 .12-.01 9.4-1.67 19.2-3.08 29.12-4.18 22.04-2.45 42.44-2.89 60.63-1.33.22.02.42-.06.57-.22s.21-.37.18-.58l-6.69-43.53a.7.7 0 0 0-.64-.59c-17.18-1.17-36.25-.62-56.69 1.65-2.42.27-4.81.56-7.2.87l5.14-15.03c.04-.1.04-.21.03-.31v-.05a.7.7 0 0 0-.12-.27s0-.02-.01-.03c0 0-.02-.01-.03-.02a.2.2 0 0 1-.025-.035q-.011-.02-.025-.035l-21.96-20.19a.7.7 0 0 0-.53-.18l-30.63 2.47s-.06.01-.09.02h-.03s-.01.01-.02.01c-.1.03-.19.08-.26.14l-.04.04c-.07.07-.13.16-.17.26l-10.45 31.87c-.09.26-.01.55.19.73l21.96 20.18.01.01.02.012.035.021.016.01zm44.329-19.114c20.14-2.23 38.94-2.8 55.88-1.69l6.47 42.1c-18.05-1.49-38.24-1.01-60.01 1.4-9.7 1.08-19.29 2.45-28.51 4.07l-6.31-41.09c10.36-1.94 21.29-3.55 32.48-4.8zm-33.41 3.54c-.37.07-.62.42-.56.79l1.85 12.06-10.82 1.32 9.23-28.16.73-2.23 16.75-1.35 12.35-.99-5.02 14.66c-8.41 1.09-16.63 2.39-24.51 3.88zm28.88-19.9-16.11 1.3-12.61 1.01-20.55-18.89 28.72-2.31 20.56 18.89zm-50.6-15.89 20.83 19.14-9.97 30.41-20.83-19.14zm310.88 324.76-1.02-41.18v-.03l-.35-5.03c-1.66-29.69-23.04-45.86-73.78-55.83a.71.71 0 0 0-.62.18c-.17.16-.24.39-.21.61l7.44 48.43c.04.28.26.51.54.58 29.93 6.82 48.48 16.02 58.36 28.94-3.4 4.41-7.92 8.83-13.45 13.06a.71.71 0 0 0-.27.66l6.17 40.18c.04.25.21.46.45.55.08.03.16.04.24.04.17 0 .33-.06.46-.18 10.33-9.17 16.2-19.51 16.09-28.38v-.33c0-.73-.02-1.49-.06-2.29zm-67.23-53.52-7.22-46.98c49.28 9.83 70.06 25.61 71.67 54.35l.35 5.03c.05 5.18-2.18 10.88-6.35 16.64-10.09-12.97-28.7-22.21-58.46-29.04zm51.23 82.61-5.91-38.49c10.19-7.85 17.04-16.42 19.68-24.42l.81 32.84s-.008.022-.013.046a.2.2 0 0 0-.007.044l.1 3.54v.01c.09 8.18-5.24 17.76-14.66 26.43m-385.9-265.34a.7.7 0 0 1 .25-.65v.01c14.65-15.27 35.74-28.05 62.67-37.98.2-.08.42-.06.6.05s.31.29.34.5l6.42 41.79c.05.34-.14.66-.46.77-26.41 9.27-47.46 21.23-62.55 35.55a.71.71 0 0 1-.71.15.71.71 0 0 1-.47-.56zm7.28 38.1c15.06-13.96 35.75-25.64 61.53-34.75h-.01l-6.2-40.37c-26.24 9.78-46.81 22.27-61.16 37.15zm333.18 207.27a.7.7 0 0 0-.58-.07c-18.1 5.8-39.12 9.4-62.49 10.71-.38.02-.67.34-.66.72q0 .049.003.092a.3.3 0 0 0 .017.068l6.7 43.6c.05.34.35.59.69.59h.05c23.6-1.69 44.68-5.77 62.64-12.13.32-.11.51-.43.46-.77l-6.5-42.33a.72.72 0 0 0-.32-.49zm5.35 42.46c-17.558 6.149-38.095 10.119-61.071 11.809l-6.499-42.279c22.84-1.33 43.45-4.85 61.28-10.48zm-62.69-274.63c-3.79-3.66-8.49-7.07-13.98-10.12a.71.71 0 0 1-.35-.51l-7-45.56c-.04-.26.07-.52.28-.67.21-.16.48-.18.72-.07 12.06 5.84 26.16 16.48 28.46 28.09.16.11.28.27.31.48.22 1.68.31 3.45.28 5.26v.01l1.17 22.03.88 15.26c.06.66.11 1.42.13 2.28l.03.45h-.02c.11 7.96-2.19 23.58-18.86 38.04a.71.71 0 0 1-.7.13.7.7 0 0 1-.45-.55l-5.89-38.33a.71.71 0 0 1 .27-.66c6.72-5.11 11.43-10.44 14.72-15.56m-7.921 53.082c15.652-14.088 17.601-29.074 17.411-36.552l-.13-2.27c-.04-.41-.08-.78-.12-1.1h.06v-.05h-.06l-.74-13.98-.8-13.82c-1.95 8.8-7.34 20.44-21.25 31.12zm15.201-75.072-.24-4.19-.01.01c-.3-7.34-7.53-19.21-26.78-28.88l6.74 43.89c5.37 3.01 9.99 6.36 13.76 9.96 4.92-8.16 6.29-15.69 6.53-20.79m148.39 28.05c-1.66-1.29-4.52-1.15-8.26.4-.619.257-1.562.637-2.744 1.114l-.906.366v-5.09c0-.23-.12-.45-.31-.58a.69.69 0 0 0-.65-.07l-24.67 9.88-.216-.386a47 47 0 0 0-.454-.804c-3.35-5.86-7.27-7.58-12.72-5.59l-2.19.79c-.89-1.21-1.56-2.08-1.99-2.57-1.58-1.8-3.44-1.45-4.7-1.03-1.07.36-8.78 3.2-13.88 5.09l-1.58.581-.266.098c-1.1.405-1.915.704-2.254.831-2.31.84-2.6 2.29-2.6 3.46v3.36c-14.26 5.13-33.3 12-36.64 13.3-3.99 1.55-6.35 3.47-7.23 5.86-.77 2.08-.4 4.55 1.1 7.33l29.01 53.9a.696.696 0 0 0 .84.33l23.62-7.78 4.26 18.95.05.1.015.042c.016.042.034.08.065.118.03.05.07.08.12.11l.028.03v.001l.02.021q.014.016.032.028l25.62 14.88a.71.71 0 0 0 .77-.05l25.78-19.5v-.01c.08-.06.14-.15.19-.24q.001-.008.008-.018l.002-.002q.009-.012.01-.02c.04-.09.06-.19.05-.29v-.14l-6.31-28.05a.7.7 0 0 0-.33-.45l-2.32-1.35 13.86-4.56c.2-.06.36-.21.43-.41a.4.4 0 0 0 .022-.108l.008-.052h.02c.08-.51 7.92-50.84 8.74-56.38.38-2.57-.11-4.4-1.44-5.44zm-13.3-2.18v52.63c-7.28-13.41-19.19-35.32-23.55-43.2zm-32.42 57.41 5.97 26.55-24.56 18.58-5.97-26.55zm6.54 60.39-24.31-14.11 24.58-18.59 11.41 6.62 12.9 7.49zm24.8-20.08-23.97-13.92-5.89-26.19 23.97 13.92zm-8.86-29.54-21.68-12.59-.09-.03s-.02-.01-.03-.02h-.02q-.15-.045-.3-.03h-.014a.1.1 0 0 0-.036.01c-.1.02-.2.05-.28.12l-25.79 19.51c-.22.17-.32.44-.26.71l1.74 7.73-23.19 7.64A218945 218945 0 0 1 411.4 212.49l-.53-.983-.213-.397-.457-.85-2.909-5.406c-1.32-2.44-1.65-4.47-1.02-6.18.73-1.99 2.84-3.64 6.43-5.04 3.35-1.306 22.657-8.26 36.945-13.405l.125-.045c.28-.1.46-.36.46-.66v-3.85c0-.84.13-1.58 1.68-2.14l1.04-.382.004-.002c.762-.28 1.829-.673 3.066-1.126 5.09-1.88 12.79-4.72 13.84-5.07 1.48-.49 2.38-.32 3.21.62.45.51 1.21 1.51 2.22 2.9.18.25.51.35.81.25l2.69-.98c4.81-1.76 8-.32 11.02 4.97 3.04 5.32 27.02 49.51 30.42 55.79l-14.24 4.69zm23.3-60.77c-.72 4.89-6.93 44.79-8.42 54.32-.79-1.46-2.02-3.73-3.54-6.53v-49.64l.818-.33a349 349 0 0 0 3.372-1.37c3.2-1.33 5.64-1.54 6.86-.59.91.71 1.22 2.1.92 4.13zm-115.89-39.28c-.01-.03-.05-.1-.05-.1l-4.39-19.24c-.06-.26.04-.54.26-.71l17.65-13.44c.09-.07.19-.1.29-.12h.04q.15-.015.3.03h.03l.019.016q.005.004.011.004l.08.03 17.62 10.15c.17.1.29.26.33.45l4.38 19.24v.14c.01.1-.01.2-.05.29q-.001.008-.01.02l-.005.007-.005.009v.004a.7.7 0 0 1-.19.23l-17.65 13.44a.71.71 0 0 1-.77.05l-17.61-10.15a.2.2 0 0 1-.04-.04q-.018-.024-.04-.04c-.05-.04-.09-.07-.12-.12-.035-.035-.055-.086-.073-.131zm1.89-.34 16.3 9.39v.01l16.45-12.52-7-4.04-9.3-5.36-2.96 2.25zm32.958-4.617-15.948-9.193-3.97-17.38 15.96 9.2zm-19.098-16.713-2.29-10.05h-.01l-16.43 12.51 4.05 17.74 16.43-12.51zm-101.68 36.25c-2.44-1.38-5.69-1.53-9.42-.42-6.62 1.96-139.08 43.47-152.83 47.97-5.28 1.73-8.78 4.27-10.43 7.56s-.74 6.25-.7 6.37a.706.706 0 0 0 .87.45l176.19-55.25c.36-.11.56-.48.47-.84-.68-2.66-2.12-4.68-4.15-5.83zm-172.2 60.36c-.14-.93-.2-2.7.78-4.65 1.48-2.93 4.71-5.23 9.6-6.83 13.75-4.5 146.17-46 152.79-47.96 1.53-.45 2.95-.68 4.25-.68 1.56 0 2.94.33 4.08.97 1.56.89 2.67 2.34 3.31 4.33zm30.79 16.91c.76.21 1.37.77 1.64 1.5s.18 1.56-.25 2.21l-9.62 14.67c-.45.7-1.22 1.11-2.05 1.11h-.08c-.45-.02-.88-.15-1.26-.4a2.47 2.47 0 0 1-1.06-1.56c-.14-.64-.01-1.29.35-1.84l7.78-11.86-12.7-3.52a2.46 2.46 0 0 1-1.71-3.02c.17-.63.58-1.16 1.15-1.48.58-.32 1.24-.4 1.87-.23zm-9.39 17.6 9.62-14.67-.01-.02c.19-.28.23-.63.11-.94-.11-.31-.38-.55-.7-.64l-15.93-4.42a.9.9 0 0 0-.28-.04c-.18 0-.36.05-.52.14-.24.14-.42.36-.49.63s-.04.55.1.8.36.43.63.5l13.62 3.78a.704.704 0 0 1 .4 1.06l-8.31 12.67c-.15.24-.21.52-.15.79.05.28.21.52.45.67.19.12.41.17.63.17.34-.02.64-.2.83-.48m10.6-4.73a2.44 2.44 0 0 0 2.34 1.72c.25 0 .49-.04.73-.11l22.04-6.91c.63-.2 1.14-.62 1.44-1.2s.36-1.24.17-1.87c-.2-.63-.62-1.14-1.2-1.44s-1.24-.36-1.87-.17l-22.04 6.91c-.63.2-1.14.62-1.44 1.2s-.36 1.24-.17 1.87m1.41-1.22c.13-.25.35-.43.62-.52l22.04-6.91c.1-.03.21-.05.31-.05.45 0 .86.29 1 .74.08.27.06.55-.07.8s-.35.43-.62.52l-22.04 6.91a1.07 1.07 0 0 1-1.32-.69c-.08-.27-.06-.55.07-.8zm118.17-42.891c-.24.07-.48.11-.73.11-1.08 0-2.02-.69-2.34-1.72-.19-.63-.13-1.29.17-1.87s.81-1 1.44-1.2l12.81-4.02c.63-.19 1.29-.13 1.87.17s1 .81 1.2 1.44a2.45 2.45 0 0 1-1.61 3.07zm-1.04-3.35c-.27.09-.49.27-.62.52h.01c-.13.25-.15.53-.07.8.17.54.76.86 1.32.69l12.81-4.02c.27-.09.49-.27.62-.52s.15-.53.07-.8a1.07 1.07 0 0 0-1.01-.74c-.11 0-.22.02-.32.05zm-80.5 60.931c.26 0 .52-.04.76-.12l18.13-5.89.03.5c.01.22.13.43.32.55.11.08.25.12.39.12 26.44-.16 49.66-2.48 69.02-6.92.36-.08.59-.43.54-.79l-2.39-15.52 17.99-5.85a2.45 2.45 0 0 0-1.52-4.66l-17.23 5.6-3.08-20.01a.695.695 0 0 0-.83-.58c-8.08 1.69-16.82 3.02-26.15 4.01l18.57-5.82a2.446 2.446 0 0 0 1.6-3.07c-.2-.63-.62-1.14-1.2-1.44s-1.24-.36-1.87-.17l-28.57 8.96c-1.15.36-1.84 1.5-1.69 2.66-8.1.54-16.57.83-25.41.89a.72.72 0 0 0-.51.22c-.13.14-.2.33-.19.52l.23 4.36-15.73 4.93c-1.29.4-2.01 1.78-1.61 3.07a2.44 2.44 0 0 0 2.34 1.72c.25 0 .5-.04.73-.11l14.53-4.56 1.4 26.34-19.37 6.3c-.62.2-1.13.64-1.43 1.22s-.35 1.25-.15 1.87a2.45 2.45 0 0 0 2.33 1.7zm103.69-37.25c.55-.18 1.15.13 1.33.68s-.12 1.14-.68 1.32l-17.77 5.78-.32-2.11zm-58.76-12.53 28.57-8.96c.27-.08.55-.06.8.07s.43.35.52.62c.17.55-.13 1.15-.69 1.32l-24.84 7.79c-1.67.14-3.35.27-5.06.39-.12-.53.18-1.07.7-1.23m-42.67 15.58a1.07 1.07 0 0 1-1.32-.69c-.17-.55.14-1.15.69-1.32l15.39-4.83.12 2.17-14.87 4.66zm79.42-17.85 6 39.07c-18.96 4.28-41.64 6.55-67.41 6.73l-2.13-39.92c24.01-.17 45.38-2.15 63.54-5.88m-82.62 49.12c.13-.25.35-.44.61-.52l19.02-6.18.12 2.18-18.48 6c-.52.17-1.15-.13-1.33-.68-.09-.27-.06-.55.06-.8m-5.9 2.71c.2.62.15 1.29-.15 1.87s-.81 1.02-1.43 1.22l-35.19 11.44a2.45 2.45 0 0 1-3.09-1.58c-.2-.61-.15-1.28.15-1.86s.8-1.02 1.43-1.22l35.19-11.44a2.46 2.46 0 0 1 3.09 1.57m-37.2 13.2 35.19-11.44v-.01c.56-.18.86-.77.68-1.32-.15-.45-.57-.73-1.01-.73-.1 0-.21.02-.32.05l-35.19 11.44c-.27.09-.49.28-.62.53-.12.25-.15.53-.06.8.18.55.82.84 1.33.68m110.52-10.17a2.44 2.44 0 0 0 2.33 1.69c.26 0 .51-.04.76-.12l39.84-12.95a2.45 2.45 0 0 0-1.52-4.66l-39.84 12.95a2.465 2.465 0 0 0-1.58 3.09zm2.01-1.76 39.84-12.95a1.047 1.047 0 0 1 1.32.68c.18.55-.12 1.15-.68 1.33l-39.83 12.95c-.52.17-1.15-.13-1.33-.68a1.04 1.04 0 0 1 .67-1.32zm-47.49 13.95 37.83-12.29v-.01c1.29-.42 2.67.29 3.09 1.57.2.62.15 1.29-.15 1.87s-.81 1.02-1.43 1.22l-37.83 12.29c-.25.08-.51.12-.76.12h-.09c-1.03-.03-1.92-.7-2.24-1.69-.2-.61-.15-1.28.15-1.86s.81-1.02 1.43-1.22m38.92-8.96c.26-.08.48-.27.61-.52l-.01-.01c.12-.25.15-.53.06-.8a1.047 1.047 0 0 0-1.32-.68l-37.83 12.29c-.26.09-.48.28-.61.53-.12.25-.15.53-.06.8.14.44.54.73 1 .73h.06c.09 0 .18-.02.27-.05zm-44.7 13.42a2.455 2.455 0 0 0-3.09-1.57l-52.63 17.1a2.45 2.45 0 0 0-1.57 3.09 2.45 2.45 0 0 0 3.09 1.58l52.62-17.1a2.45 2.45 0 0 0 1.57-3.09zm-2.01 1.76-52.63 17.1a1.04 1.04 0 0 1-1.32-.68c-.18-.55.12-1.14.68-1.32l52.62-17.1a1.047 1.047 0 0 1 1.32.68 1.04 1.04 0 0 1-.67 1.32m33.9 12.08 64.66-21.01-.01.01a2.45 2.45 0 0 1 1.52 4.66l-64.66 21.01a2.45 2.45 0 0 1-3.09-1.58c-.2-.62-.15-1.29.15-1.87s.81-1.02 1.43-1.22m1.08 3.33 64.66-21.01-.02.01c.56-.19.86-.78.68-1.33a1.047 1.047 0 0 0-1.32-.68l-64.66 21.01a1.04 1.04 0 0 0-.67 1.32c.18.55.81.85 1.33.68m-8.28-.99-45.81 14.88c-.62.2-1.13.64-1.43 1.22s-.35 1.25-.15 1.87a2.45 2.45 0 0 0 3.09 1.58l45.81-14.88c.62-.2 1.13-.64 1.43-1.22s.35-1.25.15-1.87a2.47 2.47 0 0 0-3.09-1.58m1.7 2.81c-.13.25-.35.44-.61.52l-45.81 14.88a1.04 1.04 0 0 1-1.32-.68 1.04 1.04 0 0 1 .67-1.32l45.81-14.88a1.047 1.047 0 0 1 1.32.68c.09.27.06.55-.06.8m-78.23 22.05 23.43-7.61-.01.01a2.46 2.46 0 0 1 3.09 1.57c.21.62.16 1.29-.14 1.87s-.8 1.02-1.43 1.22l-23.43 7.61a2.45 2.45 0 0 1-3.09-1.58c-.2-.62-.15-1.29.15-1.87s.81-1.02 1.43-1.22m24.51-4.27c.27-.09.49-.28.62-.53l-.01.01c.12-.25.15-.54.06-.8a1.047 1.047 0 0 0-1.32-.68l-23.43 7.61a1.04 1.04 0 0 0-.67 1.32c.17.55.8.85 1.32.68zm180.68 65.67 6.86-13.68h-.02s0-.03.01-.03c4.29-8.56 2.85-19.33-4.07-30.32-5.01-7.96-12.46-15.34-21.53-21.46l-4.92-32.01a.71.71 0 0 0-.61-.59c-1.93-.22-3.89-.43-5.87-.64-5.22-29.77-21.11-118.83-22.18-124.68-.85-4.7-2.96-8.2-6.08-10.11a3 3 0 0 0-.265-.147 4 4 0 0 1-.175-.093v-.02l-9.6-5.64-.247-.147-.193-.113-.12-.07c-2.77-1.52-6.21-1.72-9.96-.58-8.26 2.51-150.22 46.89-166.17 51.93-13.94 4.4-15.47 10.93-13.54 23.04.07.42 3.61 20.57 7.86 44.65-7.34-1.65-14.2-3.46-20.38-5.39a.71.71 0 0 0-.67.14c-.18.16-.27.4-.24.64l7.52 48.97c.04.25.21.46.45.55 6.89 2.49 14.43 4.73 22.41 6.67 1.45 8.17 2.72 15.31 3.67 20.58-2.53-3.5-4.3-5.92-4.93-6.77-2.28-3.09-4.84-4.66-7.4-4.54-2.4.11-4.6 1.7-6.37 4.6-1.537 2.519-10.683 16.66-20.55 31.917l-.012.018-.818 1.265-5.05 7.8c-3.48-.75-5.83-1.3-6.48-1.5-1.85-.57-3.67.19-4.98 2.08-1.31 1.88-12.21 18.77-13.62 21.05-1.58 2.55-.91 4.35-.03 6.12.395.784 1.239 2.527 2.069 4.242l1.05 2.168c-.86 1.36-1.55 2.46-2.02 3.21-5.99 9.74-5.98 14.42.03 22.78 5.62 7.82 56.361 78.9 56.871 79.62l.012.011.015.012.003.002.03.025v.02c.01.01.03.02.04.03.13.12.29.2.46.2.11 0 .22-.04.33-.09h.01l.06-.03c.07-.05.12-.11.17-.18 0 0 .01 0 .01-.01l65.02-98.65a.8.8 0 0 0 .12-.36l.094-2.602.005-.154.006-.159v-.011c.304-8.47 1.204-33.583 1.955-52.554 20.47-6.34 50.17-15.58 78.06-24.28l-.48.97c-4.29 8.56-2.85 19.33 4.07 30.32 6.85 10.88 18.26 20.71 32.15 27.67 12.22 6.13 25.07 9.4 36.72 9.4 1.58 0 3.15-.06 4.68-.18 12.94-1.03 22.44-6.31 26.73-14.87zm1.6-43.28c6.65 10.56 8.07 20.84 4 28.94-8.45 16.86-38.17 19.12-66.25 5.04-27.75-13.92-43.66-38.66-35.86-55.51l.28-.56h-.02v-.03c4.72-9.42 16.08-14.28 30.09-14.28 11.06 0 23.77 3.03 36.16 9.24 13.66 6.85 24.88 16.49 31.59 27.16zm-26.57-53.48 4.65 30.23a97 97 0 0 0-9.04-5.17 97 97 0 0 0-7.03-3.17c4.05-2.15 9.16-6.56 7.81-14.83a759 759 0 0 0-1.31-7.6l1.123.121.936.1q1.442.152 2.871.309zm-28.73-126.4c1.23 6.76 22.21 124.32 23.74 133.69 1.27 7.8-3.68 11.86-8.18 13.91-25.96-9.88-51.43-6.25-59.34 9.52l-.015.03-.018.042-.001.001a1 1 0 0 1-.046.097c-26.08 8.15-58.84 18.35-83.91 26.13.18-4.32.35-7.81.47-9.94.32-5.67-.3-8.44-2-8.99-1.66-.54-3.86 1.38-6.71 5.85-1.23 1.93-6.33 9.66-12.94 19.64l-1.04.32-3.79-17.5a.71.71 0 0 0-.54-.54.68.68 0 0 0-.71.28l-6.28 8.86-21.89-116.53 174.85-54.83 21.93 117.66c1.49 9.1-5.58 13.07-9.93 14.62l.47 1.32c3.83-1.37 12.55-5.68 10.84-16.18l-22.08-118.45a.7.7 0 0 0-.33-.47.7.7 0 0 0-.57-.07l-176.19 55.25a.71.71 0 0 0-.48.8l22.26 118.47-1.13 1.6-10.53-22.08a.7.7 0 0 0-.58-.4c-.26-.02-.49.1-.63.31l-.52.77c-5.806-32.69-15.117-85.681-17.165-97.332l-.405-2.308c-1.84-11.52-.46-17.36 12.58-21.48 13.6-4.3 157.54-49.3 166.16-51.92 3.6-1.1 6.71-.87 9.25.68 2.78 1.69 4.66 4.86 5.44 9.16zm-155.43 199.77-4.471 6.757-.004.006c-9.579 14.476-19.35 29.241-23.585 35.767-9.12 14.05-9.74 19.16-10 26.32-.13 3.54-.97 24.52-1.77 44.05l-15.07-59.71 55.52-78.3 3.94 18.23-.989 1.494q-1.741 2.631-3.571 5.386m-19.42-35.55 10.34 21.68-47.15 66.51c-.12.17-.16.38-.11.58l16.31 64.61c-.08 1.99-.16 3.95-.24 5.86l-3.67 5.43-35.89-75.26 60.41-89.4zm-16.17-128.12c15.95-5.03 157.9-49.41 166.16-51.92 3.42-1.04 6.41-.89 8.85.45l.11.06q.104.063.212.125h.001l.001.001.196.114 5.4 3.17c-1.58-.05-3.26.17-5.01.71-8.61 2.62-152.57 47.63-166.17 51.93-13.94 4.4-15.47 10.93-13.54 23.04.11.64 11.34 64.57 17.83 101.08l-6.08 8.99c-5.33-29.73-20.39-115.41-20.54-116.28-1.84-11.52-.46-17.36 12.58-21.48zm-18.53 110.09-7.29-47.45c6.1 1.87 12.81 3.62 19.99 5.22 2.8 15.917 5.893 33.389 8.472 47.958l.002.012.003.019.006.036.005.028.092.517c-7.56-1.85-14.71-3.98-21.27-6.33zm-40.909 97.915.002-.003.387-.612c.13-.2.14-.46.04-.68l-.001-.002c-1.05-2.17-2.7-5.578-3.3-6.778-.9-1.8-1.13-2.97-.03-4.76 1.34-2.18 12.33-19.2 13.581-20.99.97-1.4 2.16-1.94 3.42-1.55.98.3 4.85 1.15 7.07 1.63.29.07.58-.06.74-.3l5.31-8.21c10.19-15.75 19.81-30.62 21.4-33.23 1.51-2.48 3.32-3.84 5.23-3.93 2.08-.09 4.22 1.28 6.22 3.98.68.93 2.72 3.72 5.62 7.73l-51.88 76.77c-.14.21-.16.47-.05.69l36.59 76.73c.11.23.33.38.58.4h.05c.23 0 .45-.12.58-.31l3.09-4.57-.527 12.912-.005.109-.288 7.079-4.689-6.567c-13.615-19.07-46.537-65.183-51.001-71.393-5.64-7.85-5.64-12.02.03-21.23.43-.697 1.053-1.684 1.831-2.915m118.789 5.275-63.54 96.4c.53-12.88 2.89-71 3.11-77.11.25-6.92.86-11.86 9.78-25.61 4.422-6.811 14.885-22.625 24.858-37.699l.392-.591.01-.01 1.58-2.39v-.01q.444-.676.893-1.346l.009-.013.007-.011.009-.012.073-.11.219-.328 2.275-3.437.016-.023.013-.021 2.416-3.649v-.01c7.44-11.24 13.36-20.19 14.7-22.3 2.5-3.94 4.18-5.3 4.94-5.3.06 0 .11 0 .16.02.24.08 1.41.8 1.03 7.58-.68 12.065-2.644 67.103-2.932 75.189l-.028.791zm3.796-63.668.034-.801c24.73-7.68 57.09-17.75 83.12-25.88l-4.57 9.1c-28.04 8.75-58.11 18.1-78.87 24.54.097-2.452.195-4.786.286-6.952zm154.734 50.928c-12.57 1.01-27.01-2.22-40.66-9.07-13.66-6.85-24.87-16.49-31.59-27.16-6.65-10.56-8.07-20.84-4-28.95l3.38-6.73c-1.9 16.83 13.59 37.92 38.44 50.38 12.55 6.29 25.43 9.36 36.71 9.36s20.65-2.99 26.76-8.78l-3.44 6.85c-4.07 8.11-13.15 13.11-25.59 14.1zm-40.243-64.25 12.253.21c1.1 0 1.99-.38 2.44-1.09.42-.65.42-1.46.02-2.29-.77-1.57-2.88-2.83-4.8-2.87l-17.49-.3c-1.22 0-2.13.45-2.54 1.26-.41.82-.23 1.84.5 2.79l10.7 13.84c.48.62 1.15 1.16 1.95 1.56.83.41 1.71.63 2.5.63q.375 0 .72-.06c.9-.17 1.55-.66 1.83-1.38.3-.79.08-1.74-.59-2.61zm5.983 12.32c.24-.05.65-.18.78-.51.12-.31-.02-.78-.38-1.25l-8.39-10.85a.71.71 0 0 1-.07-.74c.12-.24.36-.4.64-.39l13.71.24c.6.02 1.06-.15 1.24-.44.19-.31.05-.71-.06-.93-.54-1.1-2.18-2.06-3.57-2.08l-17.49-.3c-.65-.04-1.11.17-1.27.49s-.03.81.36 1.31l10.7 13.84c.34.45.87.87 1.47 1.17.8.4 1.67.56 2.33.44m30.38-2.321c-.3.79-.08 1.74.59 2.61l7.5 9.7-12.25-.21c-1.1 0-1.99.38-2.44 1.09-.42.65-.42 1.46-.02 2.29.43.88 1.3 1.7 2.38 2.24l.009.002.011.004.019.012h.001l.008.005.012.007c.78.38 1.6.59 2.36.6l17.49.3h.09c1.14 0 2.06-.47 2.46-1.26.41-.82.23-1.84-.5-2.79l-10.7-13.84c-1.18-1.52-3.45-2.46-5.17-2.13-.9.17-1.55.66-1.83 1.38zm1.31.49c.13-.33.54-.46.78-.5 1.21-.23 2.95.51 3.8 1.61l10.7 13.84c.39.5.52.99.36 1.31s-.65.52-1.27.49l-17.5-.3c-.57 0-1.21-.18-1.81-.48a.1.1 0 0 1-.032-.011l-.001-.001q-.01-.007-.017-.008c-.78-.4-1.41-.99-1.7-1.58-.11-.22-.25-.62-.06-.93.18-.29.63-.47 1.24-.44l13.71.24c.27-.02.52-.15.64-.39s.09-.53-.07-.74l-8.39-10.85c-.36-.47-.5-.94-.38-1.25zm-3.98-9.689c1.11.8 1.79 1.86 1.83 2.84.03.65-.23 1.24-.72 1.65l-19.46 16.38c-.49.41-1.18.62-1.96.62s-1.65-.21-2.49-.63q-.45-.225-.84-.51c-1.11-.79-1.79-1.86-1.83-2.84-.03-.65.23-1.24.72-1.65l19.46-16.38c1.18-.99 3.5-.76 5.29.52m-19.26 19.8 19.46-16.38v.01c.16-.14.22-.31.22-.53-.02-.54-.51-1.22-1.25-1.75-1.36-.97-2.98-1.08-3.58-.58l-19.46 16.38c-.16.13-.22.3-.22.52.02.54.51 1.22 1.25 1.75q.315.21.66.39c1.13.56 2.38.65 2.92.19m-246.32-12.24c.08-.01.15-.031.22-.07q.034-.02.056-.043l.034-.027q.015-.013.032-.023c.029-.02.056-.038.078-.067l30.33-36.1c.18-.22.22-.52.09-.77l-23.48-45.67-1.4-9.13a.7.7 0 0 0-.38-.521c-11.98-6-19.44-12.989-23.98-20.039a74 74 0 0 1 3.62-7.851c.07-.14.1-.289.07-.439l-5.62-33.96a.71.71 0 0 0-.44-.54.72.72 0 0 0-.69.1c-.17.13-1.4 1.27-3.17 6.37-.28.74-.73 2.03-1.22 3.93-.102.345-.196.691-.295 1.055v.002l-.055.202h.04c-1.35 5.821-2.81 16.071-1.88 31.64.44 7.341 1.59 18.33 6.34 30.071l-17.37.84c-.19 0-.38.1-.5.25l-30.33 36.1s-.03.05-.05.08c0 0-.02.01-.02.019v.021a.6.6 0 0 0-.08.289v.05c0 .101.02.2.07.301l23.53 45.77c.12.23.36.38.62.38h.03l45.71-2.22s.05-.02.07-.02zm.04-1.93-22.84-44.411 28.49-33.909.87-1.031 22.84 44.421-29.35 34.94zm-21.46-150.84 5.3 32.02a74 74 0 0 0-3.19 6.82c-8.51-14.493-5.139-28.916-3.696-35.088l.006-.022v-.11c.63-1.72 1.17-2.87 1.57-3.62zm-5.21 40.75c-.53-8.93-.26-16.11.32-21.69.15 6.48 1.66 13.98 6.32 21.46v.019h.03c4.59 7.351 12.22 14.651 24.59 20.911l1.25 8.119-26.08 1.271c-4.83-11.73-5.99-22.75-6.43-30.09m-12.05 32.379 43.8-2.129-29.1 34.64-12.47.599-31.33 1.521 29.1-34.64zm-29.55 36.061 44.17-2.14 22.83 44.4-44.17 2.14zm309.49 135.629c.02.03.06.08.06.08l.03-.01 17.57 32.31c.09.17.11.38.05.56l-11.41 33.82q-.012.028-.026.048l-.009.013-.005.009v.03q-.001.008-.01.014l-.01.006a.7.7 0 0 1-.2.22c-.01.01-.03.02-.04.02l-.052.03-.017.008-.013.006-.029.013a.6.6 0 0 1-.169.043h-.01l-39.94 4.05h-.07c-.26 0-.5-.14-.62-.37l-17.57-32.31c-.014-.02-.018-.045-.023-.072l-.003-.016-.002-.012-.002-.01-.005-.014-.008-.021a.4.4 0 0 1-.027-.125.4.4 0 0 1 .003-.108q.006-.036.007-.072v-.11l5.08-15.05c-10.91-1.37-22.24-3.12-33.72-5.2a.685.685 0 0 1-.57-.66l-1.52-44.01c-.01-.21.08-.41.24-.55s.37-.2.58-.16c25.53 4.63 49.93 7.54 72.52 8.67.34.01.61.26.66.59l2.86 18.63 5.81-.59c.1-.01.21.01.3.05.01.02.03.02.04.02.09.05.17.11.24.19.01.01.02.01.02.01l.003.005.001.002.004.011zm-41.57 36.53 29.09-2.95h-.01l10.92-32.36-38.4 3.89-10.92 32.36zm-40.3-62.59 1.47 42.58c11.36 2.06 22.58 3.78 33.37 5.13l5.88-17.42c.09-.26.32-.44.59-.47l32.73-3.32-2.77-17.99c-22.24-1.14-46.21-4-71.27-8.51m31.09 64.92 16.84 30.98.01-.01 38.43-3.89-13.29-24.43-3.56-6.54zm53.03 20.04 3.21 5.9 10.8-32.01-16.66-30.63-7.81 23.16-2.99 8.85zM24.961 122.264c3.52 10.39 16.03 16.26 31.53 16.26 7.21 0 15.08-1.27 22.99-3.95 12.01-4.07 22.35-10.73 29.12-18.76 6.85-8.13 9.23-16.7 6.72-24.14l-4-11.82c-5.16-15.22-29.61-20.74-54.52-12.31-24.92 8.44-40.99 27.68-35.84 42.9 0 .015.011.036.021.054l.009.016 3.98 11.74zm82.57-7.35c-6.6 7.84-16.72 14.35-28.5 18.34-24.18 8.19-47.84 3.06-52.75-11.43l-1.73-5.11c3.61 4.19 9.22 7.25 16.4 8.84 3.61.8 7.46 1.19 11.47 1.19 7.38 0 15.27-1.34 23.06-3.98 12.01-4.06 22.35-10.73 29.12-18.76 4.75-5.63 7.34-11.48 7.66-17.01l1.74 5.13c2.35 6.96.06 15.05-6.46 22.79zm-50.29-46.04c7.81-2.64 15.56-3.9 22.64-3.9 14.86 0 26.78 5.52 30.1 15.33 2.35 6.96.06 15.05-6.46 22.79-6.6 7.84-16.72 14.35-28.5 18.33-11.77 3.98-23.76 4.96-33.77 2.74-9.85-2.18-16.57-7.19-18.95-14.11l-.02-.07c-4.9-14.48 10.78-32.93 34.96-41.11m-2.6 38.76-14.16-1.72.03.01c-1.03-.13-1.76-.63-2.02-1.39-.26-.75.01-1.6.75-2.33l10.2-9.97c1.15-1.13 3.14-1.64 4.54-1.17.75.26 1.25.76 1.4 1.42.16.71-.14 1.5-.81 2.16l-6.95 6.79 9.65 1.17c.93.12 1.65.56 1.95 1.23.28.62.18 1.32-.26 1.98-.46.67-1.26 1.24-2.2 1.57-.02.01-.03.01-.04.01-.53.18-1.06.27-1.58.27-.17 0-.33-.01-.5-.03m-4.25-14.41-10.2 9.97.03-.01c-.32.32-.48.66-.41.88s.4.39.86.45l14.15 1.72c.44.06.94 0 1.42-.16.02-.01.03-.01.04-.01.66-.22 1.23-.61 1.52-1.04.09-.14.23-.4.14-.61-.1-.21-.42-.37-.85-.42L46 102.644a.69.69 0 0 1-.58-.47.7.7 0 0 1 .17-.73l7.99-7.81c.31-.3.47-.63.42-.85s-.33-.35-.49-.4c-.21-.08-.46-.11-.71-.11-.83 0-1.81.37-2.41.95Zm25.4-5.78 9.65 1.17-6.95 6.79c-.67.66-.97 1.45-.8 2.16.15.66.65 1.16 1.4 1.42.35.12.74.18 1.15.18.51 0 1.06-.09 1.59-.27.7-.24 1.33-.61 1.8-1.07l10.2-9.97c.74-.73 1.01-1.58.75-2.33-.26-.76-.99-1.26-2.02-1.39l-14.16-1.72c-1.6-.19-3.5.61-4.32 1.83-.44.66-.54 1.36-.26 1.98.3.67 1.01 1.11 1.95 1.23zm-.53-2.43c.48-.72 1.65-1.24 2.67-1.24.11 0 .22 0 .32.02l14.16 1.72c.45.06.78.23.86.45.07.22-.09.56-.41.88l-10.2 9.96c-.31.3-.74.56-1.28.75-.66.22-1.35.26-1.84.09-.16-.05-.44-.18-.49-.4s.11-.55.42-.85l7.99-7.81c.19-.19.26-.47.17-.73a.69.69 0 0 0-.58-.47l-11.09-1.35c-.43-.05-.75-.21-.85-.42-.09-.21.05-.47.14-.61zm-9.9 22.92c-.28.05-.55.07-.81.07-.81 0-1.51-.23-1.99-.67-.43-.39-.63-.91-.59-1.47l1.66-20.67c.11-1.31 1.62-2.58 3.44-2.89 1.15-.19 2.17.02 2.8.6.43.39.63.91.59 1.47l-1.66 20.67c-.09 1.11-1.15 2.19-2.64 2.69-.26.09-.53.15-.8.2m1.95-24.24c-1.25.21-2.23 1.03-2.28 1.62l.01.01-1.66 20.66c-.02.13.03.23.13.32.22.21.78.39 1.62.25.2-.04.39-.09.58-.15 1.01-.34 1.65-1.02 1.69-1.47l1.66-20.67c.02-.13-.03-.23-.13-.32-.17-.15-.53-.3-1.06-.3-.17 0-.36.01-.56.05" clip-rule="evenodd"/>
</svg>
