<svg xmlns="http://www.w3.org/2000/svg" width="240" height="240" fill="none" viewBox="0 0 240 240">
    <g class="learning">
        <path fill="#3F4250" d="M44.663 43.049a8.4 8.4 0 0 0 1.453.694l1.802.86a8.4 8.4 0 0 0 3.6.81c1.244 0 2.487-.261 3.718-.789 5.34-2.295 8.736-9.072 7.702-15.242h.008l-.074-.367c-.641-3.246-2.457-5.882-4.987-7.235l-.035-.017q-.018-.008-.035-.018l-.07-.035q-.306-.157-.62-.283L54.7 20.305c-2.142-.916-4.595-.89-6.908.07-5.646 2.343-9.098 9.478-7.701 15.906.65 2.98 2.264 5.38 4.568 6.772l.005-.004ZM62.23 28.937l.039.196c1.187 6-2.077 12.694-7.274 14.928-2.392 1.03-4.892.986-7.043-.118-2.387-1.226-4.067-3.582-4.73-6.628-1.34-6.153 1.95-12.978 7.335-15.212a8.8 8.8 0 0 1 3.373-.698c1.026 0 2.03.2 2.972.593l.576.267q.059.031.117.056c2.313 1.24 3.998 3.644 4.635 6.616m-14.204-7.999c2.134-.886 4.294-.925 6.258-.135a9.3 9.3 0 0 0-3.963.737c-5.646 2.344-9.098 9.478-7.702 15.906.459 2.107 1.384 3.9 2.68 5.258l-.058-.03a6 6 0 0 1-.291-.158c-2.139-1.291-3.653-3.552-4.268-6.366-1.34-6.153 1.95-12.973 7.335-15.212zm173.786 95.328-.226-.061-.003-.001c-3.305-.889-40.873-11-48.687-13.029-3.05-.794-6.092-.689-8.771.236V37.917l-59.503 17.96c-1.125-4.524-3.058-7.78-5.799-9.704-4.014-2.819-8.653-2.038-11.838-.886-8.361 3.02-66.384 23.062-66.97 23.263-3.372 1.165-11.03 5.254-9.29 18.03l.053.371 24.563-8.723c.746 2.466 1.152 5.276 1.152 8.304V192.91c0 9.827 4.36 19.606 10.844 24.332 2.74 1.998 5.712 3.011 8.766 3.011 1.205 0 2.422-.166 3.644-.485l-.079.109.969-.357.063-.023.025-.01.037-.015.032-.014c3.452-1.261 60.633-22.145 69.085-25.165 9.098-3.251 14.422-13.61 11.625-22.625l-.096-.306-32.583 11.852c-1.227-2.391-2.077-5.428-2.557-9.172l33.992-11.267c15.133 5.319 42.323 15.094 42.672 15.22l.088-.218-.053.227c1.239.292 2.706.471 4.272.471 3.378 0 7.213-.842 10.246-3.251 3.356-2.662 5.127-6.798 5.127-11.974v-25.496q.002-.883-.008-1.785c-.018-2.522-.031-5.079.205-7.479l27.093 7.261v-.397c0-.498.009-1.052.022-1.645.109-5.725.288-15.312-8.12-17.451l.008.009Zm-58.298-77.524v64.9a12.7 12.7 0 0 0-3.076 1.75c-2.169 1.68-4.691 4.796-5.368 10.364l-11.428 3.944-.938-1.217c.462-.707 1.091-1.3 1.789-1.61l2.016-.89a3.58 3.58 0 0 0 1.85-4.639l-.72-1.715c-.624-1.492-.135-3.665 1.069-4.748l1.353-1.217 8.291-2.845-.201-.576-6.999 2.4c.506-.585.79-1.305.812-2.077a3.3 3.3 0 0 0-.995-2.448l-1.004-.995c-1.156-1.148-1.401-3.212-.545-4.604l1.749-2.845c.197-.318.332-.654.406-.99l6.773-2.309-.197-.58-6.506 2.217a2.6 2.6 0 0 0-.144-.851c-.284-.816-.925-1.445-1.811-1.768l-1.283-.475c-1.51-.554-2.387-2.27-1.95-3.818l.925-3.312c.218-.777.148-1.501-.184-2.082l11.154-3.774-.196-.58-11.355 3.844c-.506-.485-1.23-.716-2.068-.66l-1.82.123a2.72 2.72 0 0 1-2.046-.707 2.72 2.72 0 0 1-.89-1.977l-.07-3.155c-.022-.96-.393-1.706-1.047-2.112-.655-.401-1.488-.401-2.357.01l-2.334 1.103a2.62 2.62 0 0 1-2.125.079 2.58 2.58 0 0 1-1.275-1.135l27.574-9.281-.196-.58-27.626 9.298-.856-2.304c-.331-.899-.929-1.488-1.684-1.658s-1.545.1-2.234.764l-2.387 2.3a2.8 2.8 0 0 1-2.042.79 2.77 2.77 0 0 1-1.986-.917l-1.418-1.55c-.641-.702-1.44-1.034-2.243-.942-.803.096-1.501.602-1.968 1.436l-.249.454-1.562 2.805c-.785 1.41-2.631 2.043-4.119 1.414l-1.763-.75-.074-.029-.075-.028-.082-.03v-.978c0-4.036-.345-7.55-1.021-10.534l58.743-17.73zm-22.957 103.082.266-4.342 14.064.458v8.492l-14.334-4.608zm-16.857-.716-10.424 3.622 3.019-6.257q.12.096.231.205l.956.955c.672.672 1.492.978 2.322.869.829-.109 1.544-.624 2.016-1.449l1.405-2.448 1.431 1.776a28 28 0 0 0-.956 2.723zm-24.323 6.825-16.32 9.491 12.297-25.951c.367.45.58 1.004.611 1.602l.14 2.614c.052.955.445 1.697 1.112 2.09.668.393 1.51.38 2.37-.039l2.238-1.087a2.685 2.685 0 0 1 3.692 1.396l.733 1.763c.367.882.995 1.458 1.767 1.619q.216.045.432.044c.633 0 1.27-.284 1.833-.82l2.099-2.016c.925-.891 2.304-1.052 3.395-.502l-13.209 27.347-3.19-17.555zm-.074 2.998-9.574 3.321 9.203-5.355.371 2.03zm-12.13-30.838-1.676-.541c-.72-.231-1.244-.703-1.475-1.318-.232-.619-.144-1.313.244-1.963l1.759-2.928c.981-1.632.632-4.002-.777-5.28l-1.44-1.31c-.567-.514-.877-1.195-.873-1.924 0-.724.314-1.405.882-1.916l2.404-2.164c1.405-1.261 1.898-3.683 1.1-5.398l-1.07-2.29a2.775 2.775 0 0 1 1.436-3.744l2.522-1.074c1.737-.738 3.011-2.867 2.845-4.748l-.283-3.203a2.657 2.657 0 0 1 2.618-2.928l2.186-.048c1.894-.043 3.775-1.584 4.185-3.434l.803-3.6c.166-.742.589-1.322 1.195-1.632.607-.314 1.327-.323 2.025-.026l1.763.75c1.763.751 3.958 0 4.892-1.675l1.902-3.412c.362-.563.856-.908 1.414-.974.607-.07 1.218.197 1.724.751l1.418 1.55a3.417 3.417 0 0 0 4.9.153l2.387-2.3c.537-.516 1.13-.734 1.676-.612.545.122.986.576 1.243 1.274l.912 2.457c.328.877.969 1.554 1.807 1.894s1.767.31 2.614-.092l2.334-1.104c.672-.318 1.301-.331 1.772-.043.471.292.742.86.755 1.606l.07 3.154a3.35 3.35 0 0 0 1.091 2.418c.68.62 1.571.925 2.5.864l1.82-.122c.746-.048 1.365.179 1.745.641.375.463.471 1.117.271 1.837l-.925 3.312c-.52 1.85.528 3.893 2.33 4.556l1.283.475c.711.262 1.226.76 1.444 1.397s.122 1.344-.275 1.99l-1.75 2.845c-.995 1.619-.711 4.019.637 5.358l1 .995a2.7 2.7 0 0 1 .816 1.999 2.72 2.72 0 0 1-.912 1.955l-2.143 1.924c-1.401 1.257-1.95 3.696-1.222 5.437l.72 1.715a2.97 2.97 0 0 1-1.536 3.844l-2.016.891c-1.723.759-3.037 2.906-2.928 4.782l.14 2.444a2.83 2.83 0 0 1-.733 2.081 2.85 2.85 0 0 1-1.99.952l-1.549.078c-1.89.096-3.792 1.667-4.242 3.5l-.689 2.819c-.183.741-.633 1.331-1.265 1.667-.633.331-1.375.366-2.091.096l-1.13-.428c-1.785-.672-4.01.126-4.957 1.78l-1.527 2.666c-.375.655-.93 1.061-1.567 1.144s-1.278-.162-1.811-.694l-.955-.956a3.6 3.6 0 0 0-5.001-.048l-2.099 2.016c-.541.52-1.152.738-1.719.62s-1.039-.563-1.327-1.252l-.733-1.763a3.3 3.3 0 0 0-1.889-1.842 3.2 3.2 0 0 0-1.161-.214c-.502 0-1.004.118-1.475.345l-2.239 1.087c-.672.327-1.309.349-1.793.061s-.777-.856-.816-1.597l-.14-2.614a3.35 3.35 0 0 0-1.16-2.383 3.35 3.35 0 0 0-2.527-.798l-2.003.187c-.746.07-1.37-.139-1.754-.593s-.497-1.1-.31-1.824l.794-3.085c.48-1.863-.62-3.858-2.448-4.451l.022-.022Zm38.015 17.075a13 13 0 0 0-.161.363l-.096.222-1.362-1.685c.895-1.178 2.601-1.706 3.993-1.182l1.13.427c.877.332 1.798.288 2.588-.13.79-.415 1.348-1.148 1.575-2.06l.69-2.819c.388-1.593 2.042-2.954 3.678-3.037l1.549-.079a3.44 3.44 0 0 0 2.413-1.152 3.45 3.45 0 0 0 .886-2.526l-.139-2.444c-.04-.654.13-1.353.445-2.003l12.51 16.259v2.003l-14.64-.48-.297 4.783-14.653-4.713-.113.244zm29.704-2.845-2.069-2.692 2.069-.72zm0-15.596v11.538l-2.462.855-8.391-10.909 10.962-3.788a25 25 0 0 0-.109 2.3zm-143.608-32.6c-.519-4.307-.484-13.746 8.933-16.997 3.866-1.26 7.226-.886 9.988 1.122 2.182 1.584 3.875 4.167 4.953 7.4l-23.874 8.474ZM129.68 193.724c-7.304 2.61-51.006 18.563-64.965 23.66 8.587-6.149 8.037-18.467 7.898-20.344l68.409-24.877c2.491 8.64-2.645 18.454-11.342 21.561m-57.722 2.906.026.24c.018.17 1.685 17.071-11.397 22.024l-.053.019-.034.013-.062.02c-4.42 1.418-8.823.659-12.737-2.195-6.336-4.617-10.59-14.199-10.59-23.839V86.537c0-7.536-2.444-13.811-6.542-16.783-1.89-1.37-4.102-2.025-6.532-1.946 13.139-4.543 56.06-19.383 63.163-21.95 3.05-1.099 7.484-1.854 11.28.813 4.451 3.124 6.707 9.966 6.707 20.334v.83a2.8 2.8 0 0 0-1.701.274c-.773.397-1.31 1.122-1.515 2.042l-.803 3.6c-.353 1.593-1.972 2.92-3.604 2.954l-2.186.048a3.27 3.27 0 0 0-2.4 1.091c-.327.363-.554.79-.69 1.244l-5.127 1.728.197.58 4.808-1.619a3.6 3.6 0 0 0 0 .572l.284 3.203c.144 1.606-.99 3.5-2.474 4.132l-2.522 1.074a3.35 3.35 0 0 0-1.908 2.094l-.011.034-.011.034-.008.024-39.155 13.588.2.576 38.828-13.475a3.36 3.36 0 0 0 .315 1.69l1.069 2.29c.68 1.462.244 3.604-.956 4.682l-2.404 2.165c-.698.628-1.082 1.466-1.087 2.369q.002.087.009.175L46.36 117.488l.2.576 35.87-12.45a3.23 3.23 0 0 0 .969 1.589l1.44 1.309c1.204 1.095 1.5 3.12.663 4.512l-1.759 2.928c-.322.541-.475 1.113-.453 1.671l-36.934 12.816.2.576 36.83-12.781q.026.106.065.205c.297.794.956 1.397 1.859 1.685l1.676.541c1.527.493 2.443 2.164 2.046 3.718l-.794 3.085a3 3 0 0 0-.044 1.4l-41.83 14.518.201.576 41.843-14.522c.074.14.162.279.266.401.52.607 1.327.895 2.278.803l2.003-.187a2.74 2.74 0 0 1 1.946.558l-4.808 10.15-43.724 15.172.2.576 43.157-14.976-6.982 14.732-36.375 12.624.2.576 35.809-12.428-.707 1.488 5.306-3.085 12.44-4.315 2.894 15.905 2.875-5.952v4.163c0 7.89 1.008 13.706 3.072 17.773l-36.296 13.2zm34.237-23.201c-.27-2.326-.405-4.909-.405-7.776v-5.381h-.022l7.13-14.766 10.604-3.687c-1.078 4.128-.934 7.998.475 11.21 1.414 3.229 3.993 5.585 7.27 6.641 1.383.445 4.298 1.453 8.073 2.776l-33.125 10.978zm25.244-14.335c-3.107-.999-5.559-3.238-6.899-6.305-1.828-4.176-1.436-9.535 1.095-15.12l49.183 15.814c-.428 2.164-2.889 16.485 5.341 22.874-10.141-3.639-42.908-15.391-48.72-17.258zm70.569 4.168c0 5.048-1.65 8.914-4.896 11.493-4.259 3.378-10.181 3.548-13.968 2.667-11.817-5.254-7.715-23.891-7.672-24.079l.062-.271-20.03-6.44v-27.901c0-5.721 1.838-10.168 5.307-12.851 3.203-2.479 7.553-3.242 11.934-2.108 6.443 1.673 33.131 8.844 44.136 11.801l.871.234c-5.071-.301-8.806.633-11.354 2.819-4.482 3.849-4.438 11.022-4.399 17.354l.002.53.002.368v.002q.005.445.005.88zm27.316-29.555-.001.078q-.015.624-.016 1.178l-26.418-7.077c.419-3.531 1.445-6.677 3.914-8.798 3.033-2.605 7.899-3.333 14.863-2.229 7.937 2.02 7.767 11.301 7.662 16.848zm-129.725-60.6L46.358 91.585l.2.577L99.8 73.684zM46.355 182.262l53.24-18.478.201.578-53.241 18.478zm53.238-5.522-53.24 18.478.2.577 53.24-18.478zm86.696-59.763a2.74 2.74 0 0 1 2.068.472v.004a2.77 2.77 0 0 1 .655 3.862l-10.373 14.605a2.79 2.79 0 0 1-2.19 1.165h-.066a2.76 2.76 0 0 1-2.177-1.06l-6.288-8.003a2.76 2.76 0 0 1-.572-2.042 2.76 2.76 0 0 1 1.039-1.846 2.75 2.75 0 0 1 2.042-.572 2.75 2.75 0 0 1 1.846 1.039l3.997 5.088 8.225-11.586a2.75 2.75 0 0 1 1.794-1.126m-8.147 18.585 10.372-14.605v.004a2.162 2.162 0 0 0-2.12-3.381 2.14 2.14 0 0 0-1.401.877l-8.697 12.248-4.503-5.729a2.15 2.15 0 0 0-1.702-.829c-.48 0-.947.161-1.331.462a2.15 2.15 0 0 0-.811 1.44c-.07.572.087 1.139.445 1.593l6.288 8.003c.41.524 1.029.825 1.697.825h.061a2.18 2.18 0 0 0 1.702-.908M55.812 28.234c.2-.397.528-.654.894-.716l.01.005c.335-.052.662.06.928.323.529.523.65 1.497.284 2.216l-4.036 7.907c-.175.345-.445.585-.75.681v.048h-.306c-.406 0-.786-.249-1.021-.667l-2.448-4.334c-.397-.693-.306-1.675.2-2.23.258-.283.59-.418.93-.38.362.04.694.28.907.66l1.375 2.435zm-2.474 9.456 4.036-7.911c.244-.485.166-1.17-.17-1.506-.122-.122-.266-.174-.402-.152-.174.03-.336.17-.45.392l-3.551 6.96-1.933-3.425c-.118-.205-.28-.336-.445-.354-.14-.017-.284.049-.41.184-.328.358-.384 1.056-.123 1.518l2.448 4.333c.118.21.284.34.454.354h.035c.205-.005.388-.153.51-.393Zm48.161 89.939c3.482 2.479 7.562 3.749 11.865 3.749 1.981 0 4.01-.271 6.052-.812 6.668-1.78 12.803-6.31 17.267-12.755 4.468-6.449 6.772-14.103 6.489-21.552l-.013-.292c-.376-7.89-3.705-14.758-9.164-18.882-4.988-3.766-11.319-4.966-17.834-3.377-14.522 3.539-25.383 19.475-24.218 35.515.571 7.89 3.966 14.427 9.556 18.406m14.806-53.328a23 23 0 0 1 5.411-.668c4.363 0 8.47 1.34 11.908 3.937 5.38 4.062 8.636 10.882 8.937 18.71l.009.193c.231 7.261-2.034 14.705-6.389 20.989-4.385 6.327-10.394 10.769-16.922 12.51-6.292 1.68-12.476.668-17.407-2.84-5.437-3.875-8.74-10.25-9.303-17.952-1.147-15.762 9.509-31.405 23.756-34.879m-.153 40.752a8.3 8.3 0 0 1-1.453-.694h-.004c-2.304-1.392-3.919-3.792-4.569-6.772-1.401-6.428 2.051-13.562 7.697-15.906 2.313-.96 4.77-.986 6.908-.07l2.426 1.122q.314.13.62.288l.07.035.03.014.044.02c2.531 1.354 4.346 3.99 4.988 7.236l.074.366h-.009c1.034 6.171-2.361 12.947-7.702 15.243a9.35 9.35 0 0 1-3.718.789 8.4 8.4 0 0 1-3.6-.811zm16.154-14.609-.039-.201v.004c-.637-2.976-2.321-5.376-4.634-6.615a1 1 0 0 0-.114-.057l-.584-.27a7.8 7.8 0 0 0-2.968-.59 8.8 8.8 0 0 0-3.373.699c-5.384 2.234-8.675 9.059-7.335 15.211.663 3.046 2.343 5.403 4.73 6.629 2.147 1.104 4.652 1.147 7.043.118 5.197-2.235 8.461-8.928 7.274-14.928m-7.985-8.335c-1.964-.79-4.124-.75-6.258.135h-.008c-5.385 2.235-8.675 9.059-7.336 15.212.616 2.815 2.13 5.075 4.268 6.367.099.058.194.107.292.158l.057.029c-1.296-1.357-2.221-3.15-2.679-5.258-1.396-6.428 2.055-13.562 7.702-15.905a9.3 9.3 0 0 1 3.962-.738" class="Union"/>
    </g>
</svg>
