<svg xmlns="http://www.w3.org/2000/svg" width="240" height="240" fill="none" viewBox="0 0 240 240">
    <g class="write-community">
        <path fill="#3F4250" d="M230.884 112.813c-.353-.768-1.108-1.126-1.527-1.265l-17.913-6.127c-2.199-.755-2.688.598-2.976 1.405l-3.203 8.95-10.018-4.206c-.825-.345-1.48-.332-1.807.043-.209.24-.349.707.161 1.554l6.624 10.974-15.874 8.195a7 7 0 0 0-1.711.882 5.7 5.7 0 0 0-1.453 1.496l-5.485 8.056-7.056-13.759a5.4 5.4 0 0 0-.694-1.348 4.5 4.5 0 0 0-1.183-1.157l-1.653-1.091 9.613-5.188c2.033-1.086 3.382-3.185 3.905-6 1.091.388 2.147.594 3.142.594 1.165 0 2.247-.267 3.22-.795h.005l20.788-11.982c4.861-2.649 5.315-11.228 1.012-19.13-2.072-3.805-4.926-6.895-8.033-8.697-3.155-1.833-6.205-2.13-8.592-.83l-20.797 11.988c-1.798.981-3.037 2.784-3.613 5.219-2.535-1.017-4.935-1.017-6.899.035l-16.804 9.063 6.078-42.358c.17-1.196-.087-2.404-.729-3.565l-8.749-22.534L123.98 50.44c-.851.842-1.405 1.82-1.632 2.88l-8.217-12.672-19.047 12.829.074.126-5.215 14.387c-.336.93-.109 1.357.144 1.553a.83.83 0 0 0 .533.166c.353 0 .78-.161 1.248-.475l9.011-6.07 4.874 8.151c.31.52.768 1.279 1.715 1.279.397 0 .881-.136 1.479-.48l11.655-6.75-4.027 28.075-21.133-13.92c-1.576-1.043-3.705-1.026-5.996.052-2.243 1.052-4.381 3.002-6.03 5.485-3.43 5.175-3.618 11.11-.42 13.23l27.762 18.289-4.722 2.548-35.847-15.888-3.129-15.002c.75.467 1.615.707 2.566.707 1.039 0 2.173-.284 3.352-.842 2.234-1.07 4.368-3.033 6-5.53 1.632-2.495 2.574-5.236 2.653-7.714.082-2.53-.747-4.495-2.326-5.529l-18.79-12.471-5.8-27.8a2.2 2.2 0 0 0-.3-.738 2.5 2.5 0 0 0-.441-.52l-6.262-7.287-2.941 9.099q-.164.334-.223.689-.07.412.01.799l3.669 17.598-5.018-3.33c-3.216-2.098-8.601.42-11.996 5.62-1.632 2.497-2.574 5.237-2.657 7.716-.083 2.53.746 4.499 2.325 5.528l23.896 15.858 3.748 17.974-27.46-12.175c-.877-.388-1.846-.445-2.841-.227L8.727 87.535l11.734 15.652q.334.582.773 1.034l.021.026c.384.384.812.699 1.305.912l11.66 5.167-16.154 5.551.113.261 1.763 21.675c0 .069.06 1.745 1.043 2.426q.406.282.925.283.365-.001.777-.139c.546-.186 2.008-.688 3.991-1.369l.93-.32.236-.083.493 1.148c.568 1.318 1.811 2.059 3.269 2.059a4.9 4.9 0 0 0 1.566-.27l25.179-8.649c.776-.266 1.317-.737 1.614-1.405.367-.829.314-1.959-.144-3.024l-3.609-8.383 7.903 3.504 3.661 16.176-22.058 11.9a6.7 6.7 0 0 0-1.894 1.532 8 8 0 0 0-1.187 1.854L25.881 181.34l31.126.615c.445.07.877.105 1.304.105q.48 0 .938-.057a6.7 6.7 0 0 0 2.338-.736l.001-.001.018-.009 29.817-16.084c.37 1.082.986 1.976 1.876 2.565l11.668 7.689-1.182 8.055-36.83 3.635c-1.173.101-2.203.925-2.897 2.326-.672 1.348-.955 3.09-.803 4.892.31 3.656 2.365 6.497 4.639 6.497.078 0 .153 0 .231-.009l33.6-3.316-1.401 9.552a.2.2 0 0 1-.007.048l-.006.026c-.624 4.399 4.665 8.802 11.795 9.814.999.14 1.981.21 2.933.21 5.847 0 10.586-2.562 11.127-6.341l2.339-15.949 5.192-.51 9.478 6.244c-3.168 2.252-4.664 5.607-3.342 7.702l3.613 5.463h.009c.693 1.078 2.02 1.619 3.617 1.619s3.539-.567 5.328-1.698c1.916-1.213 3.299-2.832 3.949-4.411l8.256 5.441.005.002.004.003c.454.301.969.515 1.523.641l.035.009c.471.1.964.135 1.44.105l20.836 1.54-9.513-18.554a5.4 5.4 0 0 0-.694-1.349 4.5 4.5 0 0 0-1.182-1.156l-7.763-5.114 37.863-3.735c.314-.031.629-.114.93-.249l.065-.031c.275-.131.537-.31.751-.506l10.551-7.165-11.577-5.258a3.3 3.3 0 0 0-.859-.389q-.517-.149-1.035-.109h-.026l-17.585 1.737 16.747-24.589.011-.014.011-.012c.38-.576.65-1.222.803-1.929l.306-1.379-.157.21a8 8 0 0 0-.009-.712l1.27-17.829 15.848 6.654-.405-.672 8.033-20.129c.284-.712.297-1.357.044-1.912zm-63.434 15.199c.249.349.458.755.633 1.239l9.033 17.625-18.62-1.379-.65-5.555c-.074-.615-.319-1.082-.733-1.383-.498-.362-1.218-.467-2.077-.301l-2.287.44c.288-2.072 1.161-4.298 2.5-6.318 1.584-2.391 3.64-4.263 5.782-5.271 2.09-.982 4.006-1.017 5.398-.092.393.257.738.598 1.026.999zm-36.611 51.037c.258-1.801-.453-3.637-2.004-5.273 1.866-1.143 2.986-2.657 3.235-4.401v-.031l.305-2.116 17.717 11.673-19.515 1.924zm-22.067-8.396c-1.483-1.523-2.181-3.246-1.95-4.87.275-1.941 1.798-3.595 4.285-4.66 2.54-1.091 5.769-1.431 9.085-.956 3.316.472 6.323 1.698 8.457 3.452 2.081 1.711 3.08 3.709 2.819 5.642v.031c-.227 1.597-1.296 2.989-3.081 4.045a9 9 0 0 0-.58-.511c-2.222-1.824-5.333-3.093-8.758-3.582-3.426-.485-6.768-.131-9.408.999a13 13 0 0 0-.864.415zm42.288 8.156-18.589-12.244 3.661-25.519 6.48-3.495 3.64 2.395-8.117 1.563-.401-.144 3.521 23.764 12.485 4.538a2.7 2.7 0 0 0 .899.179q.484 0 .807-.262c.384-.314.519-.859.406-1.623l-.768-5.175 3.028-.541c1.444-.258 2.199-1.292 2.029-2.763l-1.566-13.37 14.133 1.047-9.674 14.208c-1.318 1.999-1.283 4.7.092 7.606 1.353 2.858 3.844 5.581 7.025 7.68.127.083.249.162.376.24l-19.467 1.92zm-13.911-44.854 4.883 3.216-5.791 3.124zm18.004 4.9c.485-.091 1.152-.135 1.602.197.27.201.436.523.489.96l2.291 19.545c.183 1.549-.882 1.976-1.528 2.09l-3.011.536-1.955-13.195c-.24-1.606-1.505-2.61-2.522-2.976l-11.262-4.093 15.901-3.064zm.092 29.202c.052.366.066.851-.188 1.06-.205.166-.61.162-1.108-.022l-12.144-4.416-3.316-22.389 11.816 4.298c.69.249 1.912 1.056 2.126 2.491zm5.524-41.503c-2.238 1.052-4.381 3.003-6.03 5.485-1.431 2.165-2.356 4.56-2.627 6.782l-5.009.964-9.862-6.498 3.342-23.293 23.926 15.762c-1.143-.087-2.413.179-3.744.803zm29.704-52.638c2.186-1.191 5.022-.9 7.985.82 3.015 1.75 5.786 4.752 7.802 8.461 4.141 7.606 3.797 15.819-.772 18.306l-18.305 10.551c2.679-3.748 2.352-10.682-1.179-17.166-2.072-3.806-4.926-6.895-8.033-8.697-2.121-1.23-4.189-1.763-6.044-1.593l18.546-10.69zm-20.797 11.987c2.186-1.192 5.022-.9 7.985.82 3.015 1.75 5.786 4.757 7.802 8.461 4.141 7.606 3.797 15.814-.763 18.301-1.672.912-3.731.947-5.965.127q.084-.603.122-1.244c.2-3.696-.847-7.894-2.954-11.821-2.108-3.931-5.019-7.13-8.208-9.01a14 14 0 0 0-1.362-.708c.524-2.317 1.671-4.023 3.343-4.93zm-10.517 5.262c2.261-1.213 5.184-.89 8.226.904 3.089 1.823 5.926 4.94 7.976 8.77 2.056 3.832 3.077 7.916 2.88 11.503-.192 3.526-1.544 6.14-3.805 7.348l-9.905 5.341-23.847-15.709 1.274-8.88zm-13.095-39.18a11 11 0 0 0-.956-.882c-2.221-1.824-5.332-3.094-8.757-3.583-3.426-.489-6.768-.13-9.413 1-.414.178-.803.375-1.165.58l12.716-16.63zM91.532 68.727c-.585.392-.956.414-1.06.331-.101-.078-.123-.375.056-.864l5.044-13.92 5.001 8.36zm17.114 2.858c-1.493.864-1.916.161-2.361-.585L95.913 53.66l18.048-12.157 11.703 18.048c.323.497.436.968.332 1.392-.144.598-.668.977-.965 1.152l-16.381 9.49zm16.691-8.959.152-.092c.389-.257.93-.728 1.1-1.448.144-.594 0-1.227-.414-1.868l-3.33-5.136.048-.34c.079-.55.258-1.074.528-1.567l1.012-1.322c.703-.69 1.628-1.292 2.745-1.772 2.54-1.09 5.765-1.426 9.085-.955 3.317.471 6.323 1.697 8.457 3.451.943.773 1.658 1.606 2.143 2.461l.606 1.563q.185.825.07 1.65L131.812 166.87c-.449-1.309-1.392-2.579-2.775-3.718-2.221-1.824-5.332-3.094-8.758-3.582-3.425-.485-6.768-.131-9.408.999-1.645.707-2.902 1.662-3.7 2.793l14.116-98.378 4.054-2.348-.004-.009ZM83.935 85.392c1.584-2.391 3.639-4.263 5.781-5.271 2.09-.982 4.006-1.017 5.398-.092l21.373 14.082-3.342 23.297-29.8-19.632c-2.919-1.937-2.653-7.492.59-12.384m-2.911-10.564c-.079 2.365-.986 4.996-2.557 7.4s-3.613 4.29-5.751 5.311c-2.086.995-4.006 1.043-5.402.131-1.397-.912-2.121-2.688-2.047-4.996.079-2.366.986-4.997 2.557-7.401s3.613-4.294 5.751-5.31c1.091-.524 2.138-.782 3.085-.782.864 0 1.65.219 2.318.655 1.396.912 2.125 2.688 2.05 5zm-35.87-44.43c.031-.18.088-.354.189-.564l2.618-8.103 5.58 6.48c.15.131.267.27.363.419.105.17.179.35.218.532.288 1.436-1.483 3.011-3.953 3.509-1.222.244-2.426.187-3.386-.157-.908-.328-1.484-.878-1.62-1.545a1.6 1.6 0 0 1-.008-.572Zm.328 2.107a4 4 0 0 0 1.091.585 6.3 6.3 0 0 0 2.117.344c.519 0 1.056-.052 1.597-.161 1.972-.397 3.508-1.41 4.15-2.592l5.358 25.684-10.84-7.191-3.477-16.67zM29.175 58.722c.079-2.366.986-4.997 2.557-7.401 3.216-4.918 8.217-7.361 11.15-5.446l34.224 22.709c-1.157-.092-2.448.178-3.797.82-2.234 1.069-4.368 3.032-5.995 5.529-1.632 2.495-2.575 5.236-2.658 7.714-.048 1.467.218 2.736.75 3.753L31.223 63.718c-1.396-.912-2.125-2.688-2.051-5zm37.17 29.035 4.045 19.384c.288 1.435-1.484 3.01-3.954 3.508-2.47.497-4.717-.266-5.005-1.706L55.51 80.562l10.84 7.19zm-56.474.28 16.35-1.567c-2.077 1.196-4.067 3.474-5.367 6.419-1.126 2.548-1.58 5.219-1.283 7.514.035.262.083.511.135.755zm17.541 50.072-.93.32c-1.984.681-3.446 1.183-3.992 1.369-.48.161-.855.14-1.156-.065-.602-.419-.768-1.545-.781-1.96l-1.62-19.885 8.671 20.151-.192.066zm31.999-6.868c-.223.506-.646.864-1.252 1.073l-25.179 8.649c-1.771.611-3.447.013-4.075-1.453L18.89 116.243l30.502-10.477 9.875 22.94c.301.702.497 1.736.144 2.535m-3.548-11.987-6.021-13.99-.031-.065-.183-.166-14.562 5.001-12.262-5.433a3.7 3.7 0 0 1-1.104-.772l-.737-.982c-.388-.694-.663-1.541-.794-2.522-.288-2.187.152-4.74 1.235-7.192 1.619-3.66 4.31-6.248 6.811-6.86l1.357-.13c.432.026.856.126 1.253.3l27.862 12.354 2.142 10.272c.292 1.445 1.972 2.348 4.102 2.348.52 0 1.065-.052 1.619-.166 2.845-.576 4.796-2.43 4.433-4.228l-.637-3.05 35.014 15.521-22.093 11.917-7.48-3.316-2.88-12.725H72.9c-.397-1.789-2.932-2.705-5.773-2.081-2.845.624-4.765 2.518-4.373 4.311l.018.066.006.021.011.044 1.157 5.119-8.09-3.587.008-.009Zm11.398-5.376a7.5 7.5 0 0 1 1.61-.179c1.776 0 3.195.69 3.439 1.802.314 1.436-1.436 3.046-3.906 3.587-2.417.528-4.634-.161-5.018-1.536l-.022-.091h-.008c-.31-1.432 1.44-3.038 3.905-3.579zm-.475 6c.558 0 1.147-.061 1.75-.196 1.976-.432 3.503-1.48 4.123-2.684l6.812 30.105c.314 1.435-1.44 3.046-3.906 3.587-2.47.541-4.73-.188-5.049-1.624l-6.803-30.061c.738.559 1.824.873 3.072.873ZM77.28 134.64l-1.313-5.806 6.628 2.939zm-18.096 46.743a7.7 7.7 0 0 1-2.112-.043l-30.079-.598 16.19-25.405a7.6 7.6 0 0 1 1.112-1.75 6.1 6.1 0 0 1 1.72-1.392c2.26-1.213 5.184-.89 8.225.903 3.09 1.824 5.926 4.94 7.977 8.771 4.202 7.846 3.796 16.281-.895 18.834l-.03.017a6 6 0 0 1-2.112.659zm3.574-19.797c3.63 6.776 3.878 14.006.989 17.806l27.51-14.839c-.668-2.78.166-6.594 2.47-10.067 1.649-2.483 3.787-4.433 6.03-5.485 2.291-1.074 4.42-1.091 5.996-.048l2.618 1.724 4.678-32.61-1.698-1.121-33.931 18.305 2.653 11.716c.393 1.798-1.527 3.692-4.373 4.316a8 8 0 0 1-1.75.196c-2.076 0-3.717-.868-4.027-2.282l-1.999-8.823-19.483 10.512c1.88-.135 3.97.428 6.109 1.689 3.19 1.88 6.1 5.079 8.208 9.011m31.48-6.755c1.583-2.392 3.638-4.264 5.781-5.272 2.09-.981 4.006-1.016 5.398-.091l2.858 1.881-2.06 14.347c-.253 1.776.458 3.635 2.003 5.271-1.632 1-2.701 2.309-3.102 3.801l-11.468-7.553c-2.92-1.938-2.653-7.493.59-12.384m-26.156 45.373c-2.03.161-3.915-2.487-4.207-5.93-.144-1.693.118-3.317.742-4.569.598-1.2 1.448-1.907 2.408-1.99l36.686-3.617-1.877 12.781-33.748 3.329zm37.509-24.742c.275-1.942 1.798-3.596 4.285-4.66 2.54-1.091 5.765-1.432 9.085-.956 3.317.471 6.323 1.697 8.457 3.452 2.095 1.719 3.094 3.731 2.819 5.672l-4.307 29.341c-.449-1.317-1.392-2.596-2.784-3.744-2.221-1.824-5.332-3.093-8.758-3.582-3.425-.484-6.768-.131-9.408.999-1.636.703-2.884 1.65-3.683 2.771l4.299-29.293zm6.616 40.865c-6.79-.964-11.848-5.053-11.276-9.115l.013-.074c.301-1.912 1.815-3.539 4.276-4.595 1.794-.768 3.928-1.165 6.197-1.165.942 0 1.911.069 2.888.209 3.317.471 6.323 1.698 8.457 3.452 2.095 1.719 3.094 3.731 2.819 5.672-.576 4.063-6.576 6.585-13.37 5.621zm31.85-15.591c3.255-2.059 6.89-2.173 8.112-.244l2.544 3.849c-1.885-.768-4.757-.323-7.366 1.33-2.684 1.698-4.329 4.185-4.364 6.254l-2.622-3.967c-1.218-1.924.44-5.162 3.691-7.222zm8.029 12.419c-3.255 2.06-6.89 2.173-8.108.253-1.217-1.92.441-5.162 3.692-7.222 1.702-1.077 3.508-1.623 5.018-1.623 1.309 0 2.391.415 2.993 1.239l.096.149h.009c1.2 1.92-.454 5.149-3.7 7.204m25.667-15.705c.248.349.458.755.632 1.24l9.033 17.624-19.789-1.461a5 5 0 0 1-1.344-.101h-.026a4 4 0 0 1-1.296-.554h-.009c-2.91-1.946-2.64-7.492.598-12.384 1.584-2.391 3.639-4.263 5.782-5.271 2.09-.982 4.006-1.017 5.398-.096.392.257.737.598 1.025.999zm-6.677-1.457c1.324-.623 2.591-.889 3.733-.804l-6.469-4.262-33.661 3.32 9.059 5.97c3.535-2.234 7.545-2.26 8.941-.057l3.517 5.319c.035.044.07.083.101.131.545.86.606 1.933.275 3.059l6.528 4.298c-1.453-2.775-.786-7.37 1.946-11.489 1.649-2.483 3.787-4.433 6.03-5.485m35.782-21.914c.236.07.476.174.742.34l10.621 4.826-9.683 6.581q-.282.256-.598.414l-.048.022a2.4 2.4 0 0 1-.785.223c-2.02.165-3.914-2.488-4.207-5.931-.292-3.429 1.104-6.357 3.12-6.554h.031c.057 0 .113-.009.166-.009q.32 0 .641.092zm-4.564 6.523c.24 2.797 1.501 5.115 3.094 6.048l-76.779 7.576 1.877-12.781 73.771-7.279c-1.378 1.213-2.199 3.674-1.963 6.432zm-30.759-3.813a25 25 0 0 1-1.048-.651c-3.085-2.033-5.507-4.673-6.807-7.427-1.279-2.705-1.327-5.197-.135-7.003l9.87-14.496 4.748.353-2.143-4.176 4.277-6.279c-.227 1.567.1 3.347.982 5.21 1.352 2.858 3.848 5.581 7.025 7.68 3.181 2.095 6.668 3.312 9.827 3.426h.013q.24.007.476.008c1.776 0 3.316-.371 4.533-1.069l-15.556 22.84zm33.949-30.088a6.4 6.4 0 0 1-.123 1.75l-.017.087a5 5 0 0 1-.698 1.632v.009c-1.2 1.807-3.491 2.745-6.493 2.636-3.046-.109-6.428-1.292-9.513-3.33-3.085-2.033-5.507-4.673-6.812-7.431-1.278-2.705-1.326-5.193-.135-7.008q.506-.768 1.3-1.34a6.6 6.6 0 0 1 1.598-.82l22.708-11.721-1.815 25.528zm1.924-18.471.576-8.103-7.217 3.726-6.646-11.009c-.266-.445-.306-.742-.223-.838.087-.1.454-.153 1.109.122l15.447 6.485c1.361.571 3.172 2.216 3.766 3.202l7.496 12.424-14.312-6.009zm22.865-13.728-7.863 19.697-7.662-12.698c-.655-1.082-2.566-2.827-4.054-3.451l-4.866-2.043 3.212-8.98.004-.01c.295-.812.574-1.58 2.2-1.024l17.912 6.126c.328.114.912.384 1.17.943.183.397.166.881-.057 1.431zM51.993 190.49c-.952-1.243-2.121-1.859-3.295-1.732-.008 0-.022.004-.03.004l-8.187.742c-1.173.127-2.186.978-2.853 2.396-.642 1.366-.89 3.111-.699 4.918.389 3.621 2.475 6.41 4.722 6.41q.144 0 .288-.018l8.212-.746h.013c1.174-.126 2.187-.977 2.854-2.395.642-1.366.89-3.116.698-4.918s-.807-3.456-1.723-4.656zm-10.11 12.109c-2.026.223-3.976-2.408-4.347-5.851-.183-1.693.048-3.325.642-4.591.571-1.217 1.413-1.942 2.36-2.046l6.502-.589c-1.392 1.226-2.19 3.744-1.89 6.545.193 1.802.808 3.46 1.724 4.66.432.563.908 1 1.41 1.296l-6.402.581v-.005Zm10.585-2.792c-.571 1.217-1.413 1.946-2.365 2.046-.951.105-1.928-.427-2.744-1.496-.851-1.113-1.419-2.658-1.602-4.351-.366-3.425.969-6.388 2.976-6.633h.031a2 2 0 0 1 .23-.013c.878 0 1.764.528 2.514 1.51.851 1.113 1.419 2.657 1.602 4.351s-.048 3.325-.642 4.594zM160.447 82.735c-1.571-.175-3.264-.908-4.766-2.069l-.004-.004c-3.146-2.426-4.473-6-2.958-7.964l4.625-6.253h.004c1.515-1.963 5.307-1.588 8.453.838s4.472 6 2.958 7.964c-.008.017-.039.048-.039.048l-4.586 6.205c-.642.833-1.689 1.274-2.989 1.274q-.336 0-.698-.04Zm4.987-14.963c-1.692-1.304-3.563-1.99-5.086-1.99-1.068 0-1.966.337-2.507 1.039-.619.798-.676 1.963-.17 3.285.528 1.375 1.602 2.732 3.016 3.823 2.853 2.204 6.226 2.636 7.562.986l.03-.035c1.309-1.697.035-4.887-2.845-7.108m-8.714.55-3.513 4.752v.004c-1.313 1.702-.035 4.892 2.845 7.113 1.414 1.09 2.998 1.784 4.46 1.946 1.405.157 2.522-.196 3.137-.995l3.579-4.844a4.7 4.7 0 0 1-1.462.219c-1.671 0-3.67-.72-5.459-2.1-1.501-1.156-2.644-2.609-3.212-4.084-.275-.715-.392-1.392-.375-2.011" class="Union"/>
    </g>
</svg>
