<svg xmlns="http://www.w3.org/2000/svg" width="550" height="550" fill="none" viewBox="0 0 550 550">
    <path fill="#fff" d="M429.118 389.871v-177.99l-7.261 4.212-142.729 82.516-.28.161v178.551l149.989-86.688.281-.161.361-.2zm-7.542-172.214v170.489L280.051 469.98V299.492zM280.051 471.344l142.408-82.356.281-.16V216.935l5.134-2.968V389.71l-147.863 85.485v-3.851zM218.556 173.17l.402.361c.08.04.12.12.2.16l.361.281c1.484 1.163 3.45 2.287 5.376 3.29 0 0 1.684.922 4.573 2.447l37.627 20.338c22.064 11.954 45.049 24.349 47.577 25.713.561.321 1.203.682 1.885 1.083 3.169 1.926 7.502 4.533 13.8 4.814.401 0 .802.04 1.203.04 3.009 0 6.178-.521 9.467-1.564l3.691-1.163h-.482c.201-.081.361-.161.562-.241 1.685-.722 3.209-1.484 4.533-2.327.04-.04.08-.04.12-.08l.281-.16c.04-.041.08-.041.12-.081l.081-.04c1.364-.882 2.607-1.805 3.73-2.808 1.525-1.364 2.768-2.768 3.691-4.212.401-.642.762-1.324 1.043-1.966l.08.361.602-2.286c.722-2.808.521-5.736-.602-8.745l-.16-.401a18.4 18.4 0 0 0-1.404-2.808c-.442-.722-.923-1.485-1.445-2.166a14 14 0 0 0-1.243-1.565c-1.364-1.484-3.289-2.808-5.656-4.052-.642-.32-1.284-.601-1.886-.882a10 10 0 0 0-.922-.361c0-.04.04-.04.04-.08l.04.08.481-1.204v-.04l.081-.2c.762-2.046.882-3.932.361-5.616l-.041-.081c-1.724-5.094-8.825-6.699-10.831-7.06V176.7l-1.002 3.129-.201-.04v.561c-.762 2.287-3.049 5.255-5.937 7.783l-.201.16c-.521.441-1.083.762-1.684 1.083-.281.121-.522.241-.763.321-.601.241-1.243.361-1.845.441-1.484.201-2.487-.04-2.768-.2-.481-.241-.842-.522-1.043-.762a1.13 1.13 0 0 1-.281-.522v-.16c.041-.401.482-.843 1.204-1.284.16-.08.321-.201.481-.281 1.966-1.283 3.33-2.447 4.333-3.69l.04.04.481-.762c0-.041.04-.041.04-.081l.201-.321c1.685-2.928 1.003-6.017-2.006-9.186-2.567-2.688-6.699-4.252-12.235-4.573-3.37-.201-6.218.12-7.181.241a20.4 20.4 0 0 0-3.449-3.209c-3.771-2.849-10.029-5.857-18.533-4.052-.362.08-.763.16-1.164.281-8.745 2.246-11.834 5.897-12.917 8.504-.802 2.006-.682 4.052.281 5.857l.12.241c0 .04.04.04.04.08l.522.882.04-.08c.361.441.802.883 1.284 1.244 1.003.762 3.69 2.808 3.65 3.69v.04c0 .241-.281.602-1.484 1.083-.722.281-1.324.482-1.926.562-.641.08-1.243.08-1.885-.04-2.126-.401-4.373-2.086-6.86-5.135-.24-.281-.561-.682-.842-1.083-.361-.481-.682-.963-.923-1.484-.441-.883-.642-1.765-.682-2.728-.04-2.407 1.204-4.613 2.407-6.138l.281-.361c1.645-2.005 3.45-3.329 3.49-3.329l.321-.241-.08-.401c0-.04-.08-.321-.281-.682-1.203-2.086-6.178-6.499-26.275-2.407-20.178 3.972-23.227 7.341-23.788 9.507q-.542 1.866 1.684 3.972m129.491 23.307c2.247 1.123 4.052 2.406 5.295 3.77.442.442.803.923 1.124 1.444.521.682.962 1.404 1.404 2.127a17 17 0 0 1 1.444 3.008l.08.201c.682 1.845.963 3.65.842 5.375a19 19 0 0 0-1.363-2.728c-.442-.762-.923-1.524-1.445-2.166a14 14 0 0 0-1.243-1.564c-2.888-3.089-7.341-4.854-8.705-5.376v-5.215c.2.081.441.161.722.281a15 15 0 0 1 1.845.843m-2.447-9.267.04.08c.402 1.204.402 2.527 0 4.012v-.04c-2.647-3.45-7.982-4.614-9.667-4.935v-5.255c2.005.402 8.143 1.926 9.627 6.138m-24.67 3.691c.561.32 1.885.561 3.53.361.722-.081 1.444-.281 2.126-.522.24-.08.561-.2.882-.361a9.3 9.3 0 0 0 2.126-1.404l.201-.201c2.046-1.805 3.811-3.851 4.934-5.736v3.771c0 .04-.04.04-.04.08l-.12.361s0 .04-.04.04c-.041.121-.121.281-.161.401-1.003 2.126-3.049 4.654-5.576 6.86-.562.481-1.203.883-1.845 1.244-2.407 1.163-4.854.882-5.376.561-.32-.16-.762-.441-1.083-.802-.28-.321-.28-.522-.28-.642v-4.493q.3.241.722.482m3.088-17.25c2.447 2.568 3.129 4.934 2.127 7.181 0-.04-.041-.04-.081-.08l-.481-.602-.08-.08c-.201-.241-.401-.482-.642-.723-.321-.32-.642-.601-.963-.882l-.08-.08c-.12-.121-.281-.201-.401-.321-.081-.04-.121-.08-.201-.121-.12-.08-.241-.16-.401-.24-.08-.04-.16-.121-.241-.161-.12-.08-.24-.16-.361-.2-.08-.04-.2-.121-.281-.161-.12-.08-.24-.12-.361-.2-.12-.04-.2-.121-.32-.161-.121-.08-.281-.12-.402-.2-.08-.04-.2-.081-.28-.121l-.602-.24c-.04 0-.08-.04-.121-.04-5.415-2.046-11.954-1.485-14.08-1.204v-5.295c2.487-.361 13.238-1.324 18.252 3.931m-53.473-3.209c1.364-3.37 5.657-6.138 12.075-7.822l1.083-.241a23 23 0 0 1 4.814-.522c5.656 0 9.948 2.207 12.756 4.333 1.805 1.364 2.969 2.688 3.33 3.089v4.693a19 19 0 0 0-2.166-1.966s-.04 0-.04-.04c-.121-.08-.241-.2-.362-.28-3.77-2.849-10.028-5.857-18.533-4.052-.361.08-.762.16-1.163.281-6.94 1.805-10.269 4.452-11.874 6.659-.521-1.244-.521-2.728.08-4.132m30.167 14.441-.121.722c0 .081-.04.121-.04.201-.04.201-.08.401-.16.602-.04.08-.04.16-.08.2-.041.081-.081.201-.121.281h-.04l-.722-.12h-.04a12.7 12.7 0 0 1-2.046-.522 17.4 17.4 0 0 0 1.725-1.725c.12-.16.241-.321.361-.441l.361-.481c.161-.201.281-.401.401-.602.161-.281.361-.562.482-.842v1.845c0 .281 0 .561-.041.842.081 0 .081 0 .081.04m0-7.862v.963c-.04.401-.081.762-.161 1.163v.08a3.4 3.4 0 0 1-.2.682c0 .04 0 .04-.04.08l-.241.722c0 .041 0 .041-.04.081-.081.24-.201.441-.321.682-.04.08-.08.12-.121.2l-.361.602c0 .04-.04.08-.04.08-.16.201-.28.441-.441.642-.08.08-.16.201-.241.281-.12.16-.24.321-.401.481a15.3 15.3 0 0 1-2.326 2.206l-.361.281-.562.442 1.043.401c.08.04.12.04.2.08.241.08.482.16.763.281.16.04.28.08.441.12.2.08.441.12.682.201.16.04.361.08.521.12.241.04.442.08.682.16.161.041.321.041.482.081h.04v.04l.722.08h.2l.321.04c1.244.08 2.407 0 3.49-.281.04 0 .121-.04.161-.04.08 0 .16-.04.241-.04.12 0 .2-.04.32-.04h1.003c.121 0 .241.04.321.04.04 0 .08 0 .121.04.12.04.24.04.32.08.041 0 .081.041.081.041.12.04.2.08.321.12 0 0 .04 0 .04.04.08.04.2.12.281.16l.04.041c.08.08.16.12.2.2v.08l.08.081c0 .04.041.08.041.08v.321c-.041.12-.121.24-.241.401a4 4 0 0 1-.441.361l-.081.04c-.04.04-.08.04-.12.08-.12.081-.241.121-.361.161-.04 0-.04 0-.08.04-.161.04-.281.08-.441.12a9 9 0 0 1-1.003.201c-2.327.441-4.774.481-7.261.16a25 25 0 0 1-2.888-.561c-.041 0-.081 0-.121-.04a14 14 0 0 1-1.364-.402c-.481-.16-.962-.321-1.444-.521-.08-.04-.16-.08-.24-.08v-.602l-.642.321-.562-.241v.522c-7.862 4.131-13.92 4.131-15.685 4.051h-.04c-.08 0-.201 0-.241-.04h-.16c-.401-.04-.762-.16-1.083-.281-.482-.2-.762-.481-.883-.722 0-.04 0-.04-.04-.08v-.12c0-.081.04-.161.08-.241.081-.201.321-.441.602-.602.361-.24.883-.441 1.404-.521.321-.08.682-.08 1.003-.08.201 0 .401 0 .602.04.04 0 5.255.401 12.997-4.373l.441-.281c2.608-1.684 4.293-3.57 5.055-5.616.962-2.567.04-4.453 0-4.533a.59.59 0 0 1 0-.521c.24-.482.962-.883 1.845-1.083 1.605-.321 3.129.2 3.45.882.16-.12.561.682.642 1.966m-25.874 22.585h-.161c-1.123-.121-1.765-.602-1.925-1.003-.041-.04-.04-.121-.04-.201v-4.653c.2.12.481.24.722.321.04 0 .08.04.12.04s.08.04.12.04c.281.08.562.16.883.2h.16c.241.041.762.081 1.444.081 2.568 0 7.983-.522 14.682-3.891v5.134c-8.504 4.373-14.842 4.052-16.005 3.932m33.295-4.253v.201c0 .04 0 .08-.04.08 0 .04-.04.08-.04.12-.04.081-.121.201-.161.241-.12.121-.281.241-.441.361-.321.201-.682.321-1.083.441a9 9 0 0 1-1.003.201c-5.576 1.083-10.63-.401-13.358-1.484v-5.215h.04c.441.16.923.321 1.404.481h.04c1.444.482 2.928.803 4.453 1.003 2.647.361 5.215.321 7.662-.16.361-.081.722-.161 1.043-.241a4.6 4.6 0 0 0 1.444-.602v4.333zm-47.336-18.172c.201.321.402.602.602.923.321.441.642.802.883 1.123 2.687 3.249 5.174 5.055 7.581 5.536.763.16 1.525.16 2.287.04.722-.12 1.444-.321 2.246-.642.321-.16.682-.321 1.003-.521v4.051h-.08l.08.642c0 .121.04.441-.963.963a5.1 5.1 0 0 0-1.604.602c-2.206.642-5.416.521-10.47-6.058-.241-.321-.441-.641-.642-.962-.562-1.003-.883-2.006-.923-3.089zm-1.203-4.011v6.699q.06 1.866 1.083 3.61c.201.401.481.762.762 1.124.361.481.722.922 1.123 1.363.041.041.081.081.081.121.16.2.321.361.481.561l.12.121c.161.16.321.361.482.521l.12.121.562.561.481.482.04.04c.161.16.361.321.522.441 1.685 1.364 3.249 2.166 4.854 2.367.28.04.561.04.842.04h.401c-.04.16-.08.321-.08.481v6.579c0 .201.04.441.12.642.361.923 1.444 1.604 2.969 1.765h.12c.241.04.762.04 1.444.04 2.006 0 5.656-.281 10.31-2.006h.04c.361-.12.682-.28 1.043-.401.04-.04.12-.04.16-.08.321-.12.642-.281 1.003-.401l.241-.121c.321-.12.642-.28.923-.441.12-.04.24-.12.361-.16.28-.161.601-.281.882-.442.12-.04.241-.12.321-.16 2.487 1.003 5.937 2.006 9.868 2.006 1.364 0 2.808-.121 4.293-.401.361-.081.722-.161 1.043-.241a4.6 4.6 0 0 0 1.444-.602q.421-.24.722-.602l.24-.361c.041-.04.041-.08.081-.12l.04-.04h.16v-.522c0-.12.04-.2.04-.32v-5.336l.402-.24h-.402v-6.218l-.561 2.527-.642-2.768v3.691c-.04-.04-.08-.04-.12-.081-.081-.04-.161-.08-.281-.12-.963-.401-2.247-.521-3.49-.2-.161.04-.281.08-.441.08-.081 0-.161.04-.241.04-.161.04-.281.04-.441.04-.121 0-.241.04-.321.04-.161 0-.281.04-.442.04h-.842c.08-.24.16-.481.201-.722.2-.762.28-1.484.28-2.246v-8.184l-.16.121a.7.7 0 0 0-.08-.281v-.08a.6.6 0 0 0-.081-.241c0-.04-.04-.08-.04-.12 0-.081-.04-.121-.04-.201 0-.04-.04-.08-.04-.08a.8.8 0 0 1-.08-.241c0-.04 0-.04-.04-.08 0-.04-.04-.08-.04-.08 0-.041 0-.041-.04-.041 0 0 0-.04-.041-.04 0-.04-.04-.04-.04-.04-.642-1.243-2.728-1.925-4.773-1.524-1.284.241-2.287.882-2.688 1.725a1.87 1.87 0 0 0 0 1.604s.722 1.485-.08 3.571c-.682 1.805-2.207 3.49-4.573 5.014-.121.08-.281.16-.402.281-7.3 4.493-12.235 4.212-12.235 4.212h-.08c.04-.08.08-.161.121-.281h.12v-.04l.12-.08-.12.04v-7.823l-.201.081c-.401-.923-1.604-2.046-3.971-3.851a6.5 6.5 0 0 1-1.364-1.404c1.284-2.086 4.373-4.854 11.513-6.7l1.083-.24c8.063-1.725 14 1.123 17.57 3.811 1.806 1.364 2.969 2.687 3.33 3.088v.482l.361-.04.883 1.123v-1.244c1.765-.2 7.822-.762 12.916.883 2.006.642 3.892 1.645 5.296 3.129.321.361.641.722.922 1.043 0 .04.04.04.04.08.121.161.241.321.321.441 0 .04.04.04.04.081.041.08.081.12.121.2-.883 1.244-2.287 2.487-4.333 3.811-.12.08-.28.161-.441.281-1.083.682-1.645 1.404-1.765 2.166v7.1c0 .041 0 .081.04.121 0 .04 0 .08.04.12 0 .04.04.04.04.08s.041.081.041.121c0 0 0 .04.04.04.04.04.04.12.08.16.08.121.16.241.281.361.321.361.762.722 1.364 1.043.882.482 3.65.803 6.498-.521a9.3 9.3 0 0 0 2.126-1.404c2.889-2.527 5.215-5.496 6.138-7.903 1.645.321 7.14 1.565 9.307 5.015v.04c.04.04.04.12.08.16l-.121.241c-.12.24-.24.521-.361.762l-.321-.08v7.782l.402.12c.04 0 5.455 1.806 8.624 5.215.442.442.803.923 1.124 1.444.521.682.962 1.404 1.404 2.127a17 17 0 0 1 1.444 3.008c.08.281.2.522.28.802.081.241.161.522.201.763v.04a12.6 12.6 0 0 1-1.524 3.45c-.843 1.364-2.006 2.687-3.45 3.971-1.043.923-2.247 1.805-3.53 2.648l-.081.04c-.08.04-.12.08-.2.12l-.201.12a.3.3 0 0 1-.16.081c-1.244.802-2.688 1.524-4.333 2.246-1.243.522-2.487 1.003-3.69 1.364l-.241.08c-3.53 1.083-6.859 1.565-10.029 1.404-6.017-.281-10.189-2.808-13.237-4.653-.682-.401-1.324-.802-1.926-1.123-2.487-1.364-25.473-13.76-47.576-25.714l-37.548-20.418a1292 1292 0 0 0-4.533-2.447c-1.725-.923-3.49-1.926-4.854-2.929 3.45-2.006 10.23-4.051 20.218-6.017 11.634-2.367 17.851-1.765 21.141-.722-1.645 2.246-2.487 4.493-2.407 6.619m-41.599-3.771c.722-2.888 8.424-5.777 22.865-8.625 5.937-1.203 10.47-1.644 13.96-1.644 8.144 0 10.43 2.487 11.032 3.49v.04a23 23 0 0 0-3.049 2.928c-4.653-1.685-12.115-1.524-22.183.522-10.631 2.086-17.531 4.212-21.021 6.378-1.283-1.163-1.805-2.166-1.604-3.089m45.892 72.287v6.338c0 .361.08.923.722 1.485v.04l.281.16c.04.04.12.08.16.121.722.401 1.645.601 2.608.601 1.042 0 2.085-.24 2.928-.682.12-.04 2.647-1.323 6.779-2.046 1.324-.24 2.688-.361 4.052-.441 2.607-.12 5.255.08 7.903.562 1.925.361 3.891.882 5.816 1.604 1.525.562 3.53.402 4.974-.401.201-.12.361-.2.522-.321q.361-.3.602-.601c.04-.04.08-.121.12-.161 0 0 0-.04.04-.04.04-.04.04-.08.08-.12 0-.04.04-.04.04-.081 0-.04.041-.04.041-.08s.04-.08.04-.12v-.04c0-.08.04-.121.04-.201v-6.538c.04-.362-.04-.682-.201-.963h1.685l-3.009-1.083c-.08-.04-.12-.081-.2-.081a.8.8 0 0 0-.281-.08l-.521-.2a46 46 0 0 0-11.192-2.367c.641-2.688.481-6.94-5.536-10.109-1.525-.802-3.972-.722-5.576.2-.401.241-.722.482-.963.803-.241.281-.401.602-.441.922v6.499c-.121.802.321 1.524 1.203 2.006-4.252.642-8.264 1.805-11.072 3.289-.04.04-.08.04-.08.04a3.8 3.8 0 0 0-.882.642c-.401.401-.602.843-.602 1.364zm12.716-14.04c.12-.201.361-.441.722-.642.602-.361 1.444-.561 2.247-.561.802-.041 1.604.12 2.166.401 5.496 2.888 5.616 6.699 4.733 9.387l-.24.722.762.04c.521.04 1.043.08 1.564.16.161 0 .321.04.522.081.361.04.722.08 1.043.12.2.04.401.08.602.08.32.04.641.08.962.161.201.04.442.08.642.12.321.04.602.12.923.16.241.04.441.081.642.161.28.08.601.12.882.2.241.041.441.121.682.161l.843.241c.24.08.441.12.681.2.281.08.562.161.803.241.24.08.481.16.682.241.281.08.561.2.842.28h.04c.642.241 1.003.602.963.923 0 .04-.04.08-.04.16-.08.161-.241.321-.441.522l-.121.08-.24.12c-1.083.602-2.808.723-3.972.321a35 35 0 0 0-6.017-1.644 40 40 0 0 0-2.006-.321 32 32 0 0 0-6.177-.241c-.321 0-.682.04-1.003.08a28 28 0 0 0-3.209.401c-1.886.321-3.49.763-4.654 1.164-.08.04-.12.04-.2.08a.8.8 0 0 1-.281.08.6.6 0 0 1-.281.08c-.04.041-.12.041-.16.081s-.121.04-.161.08c-.08.04-.16.08-.241.08-.722.281-1.123.482-1.163.482-1.284.681-3.329.722-4.413.08-.32-.201-.521-.401-.561-.602v-.201c.08-.28.361-.561.842-.802l.04-.04c1.124-.602 5.376-2.607 12.356-3.37.12 0 .281-.04.401-.04l.481-.04c.281-.04.522-.04.803-.08l.361-.04.12-.361c.441-1.123.802-2.808.08-4.533l-.16-.361h-.04c0-.04-.041-.08-.041-.121s-.04-.08-.04-.12l-.24-.361c-.04-.04-.04-.08-.081-.12a2 2 0 0 0-.24-.321c-.04-.04-.08-.08-.08-.121a1.2 1.2 0 0 0-.321-.32l-.081-.081c-.12-.12-.24-.24-.401-.361l-.04-.04c-.481-.401-1.043-.762-1.685-1.123-.281-.161-.481-.321-.561-.481-.04-.041-.04-.121-.04-.161v-.16c.16-.081.16-.161.2-.201m-11.513 15.645c.722.401 1.605.561 2.568.561h.2c.201 0 .441 0 .642-.04h.08c.241-.04.441-.08.642-.12h.04c.441-.12.883-.281 1.284-.481.04 0 2.607-1.324 6.779-2.046 1.003-.161 2.046-.321 3.089-.401.321-.04.642-.04.963-.04 1.965-.081 3.971 0 5.937.24.642.08 1.283.201 1.925.321a35 35 0 0 1 5.817 1.605c.562.2 1.203.321 1.845.321.522 0 1.003-.04 1.525-.161.561-.12 1.123-.281 1.604-.561.08-.041.201-.121.281-.161v4.774c0 .04 0 .08-.04.08-.08.16-.201.321-.441.481-.121.081-.201.161-.361.241-.682.361-1.605.562-2.488.562a4.5 4.5 0 0 1-1.484-.241c-.281-.08-.561-.201-.802-.281a35 35 0 0 0-5.175-1.364c-2.728-.521-5.455-.722-8.183-.561a47 47 0 0 0-4.212.441c-4.293.762-6.98 2.086-7.101 2.126a5.3 5.3 0 0 1-2.286.522h-.642c-.161 0-.321-.041-.441-.081-.04 0-.081 0-.121-.04-.12-.04-.24-.08-.361-.08-.04 0-.12-.04-.16-.04-.08-.04-.201-.08-.281-.121l-.08-.04c-.201-.12-.562-.361-.562-.722zm11.513-13.559c1.484.762 2.487 1.725 2.929 2.848.521 1.204.32 2.407.04 3.29-.161 0-.281.04-.442.04l-.601.04h-.081c-.401-.281-.802-.562-1.323-.802-.281-.121-.682-.442-.642-.803v-4.653c.08 0 .12 0 .12.04"/>
    <path fill="#fff" d="M306.405 216.895h.12c.12.361.401.682.722.923l.361.24c.201.121.401.201.602.321h.04c.201.121.401.201.602.321.04 0 .04.04.08.04.201.121.441.201.682.321.762.321 1.605.602 2.527.883h.04c1.244.361 2.688.642 4.293.802h.04c1.163.12 2.366.201 3.73.201.562 0 1.124 0 1.685-.04h.121c.441-.041.882-.041 1.363-.081h.201c.481-.04.923-.08 1.404-.12h.12c0 .04.041.08.041.12l.24.602.121.241c.12.2.2.441.32.642l.121.24c.12.201.241.442.401.642.04.08.12.161.16.241.161.2.281.401.442.642.08.08.12.16.2.24.161.201.321.402.522.602.08.08.16.161.2.241.201.2.361.401.562.602l.241.24c.2.201.401.401.601.562.081.08.161.16.281.24.201.161.401.362.602.522.04.04.12.08.16.12.442.361 1.003.602 1.605.722.361.081.762.121 1.163.121a5.7 5.7 0 0 0 2.407-.522c.08-.04.161-.08.281-.16.04 0 .04-.04.08-.04a.3.3 0 0 1 .161-.081c.2-.12.401-.28.521-.441.482-.481.722-1.003.682-1.564v-6.94h-.08c-.12-.361-.361-.722-.722-1.043l-.321-.241c-.04-.04-.08-.08-.12-.08-.081-.04-.121-.12-.201-.161-.08-.08-.16-.16-.241-.2l-.16-.161c-.08-.08-.161-.16-.241-.2l-.16-.161-.201-.2-.16-.161c-.081-.08-.121-.16-.201-.2-.04-.04-.08-.121-.12-.161-.081-.08-.121-.16-.201-.24a.6.6 0 0 1-.12-.161c-.08-.08-.121-.16-.201-.241-.04-.04-.08-.08-.08-.12-.08-.12-.16-.241-.281-.361-.08-.12-.12-.2-.2-.321 0-.04-.04-.04-.04-.08s-.041-.04-.041-.08v-.04c.041-.04.04-.081.081-.121.04-.08.08-.12.12-.2.04-.04.08-.081.08-.121.04-.04.08-.12.121-.16s.08-.08.08-.12c.04-.041.08-.121.12-.161s.08-.08.08-.12c.04-.04.081-.08.121-.161.04-.04.08-.08.08-.12l.12-.12c.04-.041.08-.081.08-.121l.121-.12.08-.08.12-.121.081-.08.12-.12.08-.08c.04-.041.08-.081.121-.081l.08-.08c.04-.04.08-.04.08-.08.04 0 .04-.04.08-.04l.08-.081.041-.04c.04-.04.04-.04.08-.04l.04-.04c.04 0 .04-.04.04-.04h.04c.04-.04.08-.04.08-.04.803-.562 1.204-1.284 1.164-2.046v-6.659c0-.04 0-.12-.04-.16 0-.041-.04-.081-.04-.121-.041-.08-.041-.12-.081-.2s-.04-.121-.08-.161c0-.04-.04-.08-.08-.08-.04-.04-.08-.12-.121-.161-.04-.04-.04-.08-.08-.08l-.12-.12c-.04-.04-.08-.08-.12-.08-.041-.04-.081-.081-.161-.121-.04-.04-.08-.08-.12-.08-.04-.04-.08-.04-.161-.08-.04-.04-.08-.08-.16-.08-.361-.201-.802-.321-1.204-.402-1.323-.24-2.848 0-3.931.682l-.08.041c-1.123.762-4.814 3.53-5.656 7.942-.883.121-2.006.201-3.209.241-2.728.04-5.978-.281-8.545-1.765-1.043-.602-2.487-.722-3.771-.441a4.7 4.7 0 0 0-1.524.601c-.201.121-.401.281-.562.402 0 0-.04 0-.04.04l-.2.2-.041.04a.9.9 0 0 0-.16.241l-.321-.16v7.782zm9.948 2.608c-2.768-.321-5.616-1.084-8.143-2.488-.401-.24-.602-.481-.642-.762v-4.693h.04c1.966 1.123 4.854 2.246 8.946 2.688h.08c.361.04.762.08 1.163.12h.241c.361.04.682.04 1.043.04h2.006c.281 0 .561 0 .842-.04.241 0 .522-.04.803-.04.24 0 .481-.04.722-.04.321-.04.641-.081 1.002-.081.201 0 .361-.04.562-.04v5.295a47 47 0 0 1-5.215.281 26 26 0 0 1-3.45-.24m-4.372-11.072c.16.04.281.12.441.2.802.442 1.645.803 2.487 1.084 3.57 1.123 7.582.882 10.109.561v2.728c-1.163.12-2.567.241-4.092.281-3.931.04-8.745-.482-12.676-2.728-.281-.161-.682-.481-.602-.923.04-.28.321-.601.722-.842.963-.642 2.528-.762 3.611-.361m23.467 18.011c-.12.081-.201.121-.361.201-1.284.602-3.049.522-3.891-.201-.121-.08-.241-.2-.361-.28-.081-.081-.161-.121-.241-.201-.241-.2-.441-.401-.642-.602l-.24-.24-.562-.562c-.08-.08-.161-.16-.241-.281-.16-.16-.321-.361-.481-.521-.08-.08-.161-.201-.241-.281l-.361-.481a2 2 0 0 0-.241-.321c-.12-.161-.2-.321-.28-.482a3 3 0 0 1-.241-.401c-.08-.16-.161-.281-.241-.441-.08-.161-.16-.281-.2-.441-.04-.121-.121-.241-.161-.402-.08-.16-.12-.32-.16-.481-.04-.08-.04-.12-.08-.201v-3.65c.962 1.605 2.366 3.169 4.212 4.653.481.402 1.123.642 1.845.763.241.04.521.08.762.08h.201c.12 0 .28 0 .401-.04h.08c.201 0 .401-.04.602-.081h.04c.441-.08.842-.2 1.243-.401.161-.08.321-.16.522-.281v4.533c.04.402-.241.763-.682 1.043m.321-17.289c.04.321-.201.642-.602.923 0 0-1.364.922-2.487 2.527 0-.04-.04-.04-.04-.08l-.12-.361c0-.041-.041-.121-.041-.161-.04-.16-.08-.321-.08-.481 0-.081 0-.121-.04-.201 0-.12-.04-.2-.04-.321v-.682l.04-.24c.08-.642.241-1.284.481-1.846.081-.16.161-.281.201-.441.08-.12.12-.241.201-.321.04-.04.08-.12.12-.16s.04-.081.08-.121c.04-.08.121-.16.161-.24l.04-.04c.842-1.204 1.885-2.006 2.126-2.207zm-.682-7.261s.04 0 .04.04c.08.04.12.08.16.121s.081.04.121.08c0 0 .04 0 .04.04.08.04.12.12.16.201l.04.04c.041.04.041.08.081.12v.04c.04.08.04.201.04.321v.04c-.04.281-.281.522-.602.762 0 0-.04.04-.12.081-.441.32-2.046 1.564-3.049 3.57-.08.16-.16.321-.241.521q-.3.723-.481 1.444c0 .081-.04.121-.04.201-.04.201-.08.401-.08.562v.28c-.04.642.04 1.324.16 1.966.12.562.321 1.123.602 1.645l.16.281c.081.12.121.2.161.32l.361.682.04-.04c.762 1.123 1.845 2.247 3.169 3.33.241.2.361.361.361.561v.161c0 .04 0 .08-.04.08v.04c0 .04-.04.08-.08.121 0 .04-.04.04-.04.08a.5.5 0 0 0-.121.16l-.04.04c-.04.04-.12.121-.201.161l-.04.04-.12.08c-.08.08-.201.121-.361.201-.602.281-1.284.401-2.006.401-.2 0-.401-.04-.601-.04a2.9 2.9 0 0 1-1.284-.522c-2.367-1.925-4.012-3.971-4.774-6.057-.08-.161-.12-.361-.2-.522v-.561l-.161.04-.802-2.608c.04 0 .12 0 .16-.04l.442-.08.08-.441c.481-3.33 3.008-6.098 5.215-7.542.04 0 .04-.04.08-.04.923-.602 2.407-.722 3.49-.361.04-.12.201-.04.321 0m1.647 175.703v-.12c0-.361-.081-.682-.201-.963-.201-.521-.602-.922-1.083-1.083l-4.774-1.885h-.04l-.04-.04h-.04c-.602-.161-1.284-.081-1.966.28a3.6 3.6 0 0 0-1.083.843c-1.003 1.003-1.685 2.447-1.645 3.73.081 4.373-2.607 8.705-4.412 11.112-3.209-1.163-6.338-.521-8.264.161h-.04c-.401.12-.762.281-1.043.401q-.301.12-.481.241c-.041 0-.081.04-.081.04-1.043.521-1.965 1.604-2.447 2.808-.04.04-.04.12-.04.16s-.04.121-.04.161c-.16.441-.241.882-.241 1.283v.161c0 .602.201 1.123.522 1.524.16.201.321.321.521.441l.041.041c.04 0 .08.04.08.04.08.04.16.08.24.08l4.533 1.805c.201.08.442.161.682.161.442.04.883-.081 1.324-.281.121-.04 1.043-.442 2.287-.642.08 0 .16-.04.281-.04h.08c.08 0 .16 0 .24-.04h.803l.2.2c.04.04.081.08.121.161.12.12.2.281.321.401.04.04.04.08.08.12.12.161.241.361.361.522 0 0 0 .04.04.04.12.2.241.401.361.642.602 1.163 1.043 2.607 1.324 4.252.08.401.2.722.441 1.003.201.281.481.481.802.601l4.614 1.806h.04c.28.12.561.2.882.2.401 0 .843-.12 1.284-.321.16-.08.321-.16.521-.321a4.2 4.2 0 0 0 1.244-1.283c.762-1.083 1.163-2.407.963-3.49-.602-3.41-1.765-6.178-3.45-8.144 5.094-7.06 6.258-12.756 6.258-16.447-.08-.08-.08-.2-.08-.321m-7.502 16.447-.361.361.401.442c1.685 1.845 2.888 4.493 3.49 7.902.12.602-.08 1.324-.441 2.006-.321.602-.762 1.163-1.324 1.524-.12.081-.241.161-.361.201-.441.201-.842.281-1.123.12-.121-.04-.201-.16-.281-.24-.04-.04-.04-.081-.08-.121v-.04c0-.04-.04-.08-.04-.12v-.12a23 23 0 0 0-.642-2.608c-.241-.722-.482-1.364-.802-1.966-.121-.24-.241-.481-.442-.762-.842-1.364-1.885-2.407-3.129-3.008-.762-.402-1.644-.642-2.527-.763-.241-.04-.481-.04-.722-.04h-.241l-1.524-.04.12.121q-.963.12-1.684.361c-.041 0-.081 0-.081.04h-.04c-.602.16-1.003.361-1.163.401h-.04c-.201.08-.401.16-.562.16-.16 0-.361 0-.481-.08-.321-.16-.482-.562-.482-1.083 0-.12 0-.281.04-.441.041-.161.081-.321.121-.442.08-.24.2-.481.321-.762.04-.04.04-.08.08-.12 0-.04.04-.08.08-.08.161-.241.321-.482.522-.722l.481-.482c.161-.12.321-.24.481-.321h.041c1.524-.722 3.249-1.203 4.894-1.283.561-.04 1.083-.04 1.644 0 .682.08 1.364.2 1.966.361.321.08.602.2.842.281l.442.16.28-.361c1.886-2.447 5.015-7.261 4.934-12.235 0-.642.241-1.404.642-2.046.401-.602.883-1.123 1.444-1.444q.302-.18.602-.241c.201-.04.361-.04.482.04.08.04.16.081.2.121q.12.12.241.361v.04c0 .04.04.08.04.12v.401c.16 6.74-3.851 13.198-6.258 16.447m-4.453 10.751c-.08-.04-.16-.08-.2-.12-.161-.161-.241-.401-.281-.562q-.481-2.647-1.444-4.573a10 10 0 0 0-.843-1.404c.522.12 1.043.281 1.485.522 1.043.521 1.925 1.404 2.647 2.567.161.241.281.481.401.682q.422.782.722 1.805c.241.682.402 1.444.562 2.247zm-14.682-9.146c-.04-.04-.04-.08-.08-.12a1.33 1.33 0 0 1-.12-.763v-.08c0-.08 0-.12.04-.2 0-.081.04-.201.04-.281s.04-.161.08-.241.04-.16.08-.241.081-.2.121-.28.04-.121.08-.201c.04-.12.12-.2.16-.321.041-.04.04-.08.081-.16.08-.121.16-.241.24-.321.04-.04.04-.08.081-.08.12-.121.2-.241.32-.361l.041-.041c.24-.24.521-.441.802-.601h.04c2.407-1.164 6.097-1.926 9.347-.602l.04.04c-.241 0-.441.04-.682.08h-.04c-.281.04-.522.081-.803.121-.08 0-.16.04-.24.04-.201.04-.441.08-.642.16-.04 0-.12.04-.16.04-.281.081-.522.161-.803.241-.08 0-.12.04-.16.08l-.602.241c-.08.04-.16.04-.241.08-.24.08-.441.201-.682.281-.04 0-.04 0-.08.04-.04 0-.08.04-.08.04-.08.04-.12.08-.201.121-.04.04-.12.04-.16.08-.08.04-.12.08-.201.16-.04.04-.08.081-.16.121-.08.08-.161.12-.241.2l-.08.08c-.12.081-.201.201-.321.321-.04.04-.08.121-.12.161-.281.321-.522.722-.722 1.083a3.8 3.8 0 0 0-.361.842 4.5 4.5 0 0 0-.201 1.244c0 .16 0 .281.04.441v.04l-2.888-1.163-.08-.04c-.081 0-.121-.04-.161-.08a.32.32 0 0 1-.16-.161c-.121 0-.161 0-.161-.04m11.995-5.054c1.885-2.447 5.014-7.261 4.934-12.236 0-1.042.601-2.286 1.484-3.048a3.7 3.7 0 0 1 .642-.442c.441-.24.842-.32 1.123-.2l2.888 1.123s-.04 0-.04.04c-.04.04-.08.08-.12.08-.04.041-.08.081-.121.081-.04.04-.08.08-.12.08l-.12.12-.121.121-.12.12-.12.12-.121.121-.12.12c-.04.04-.08.08-.12.16-.04.041-.081.081-.081.121-.04.04-.08.12-.12.16s-.04.081-.08.121-.08.12-.12.16c-.041.04-.041.08-.081.12a.3.3 0 0 0-.08.161c-.04.04-.04.08-.08.12s-.04.121-.08.161-.04.08-.081.12c-.04.08-.04.12-.08.201 0 .04-.04.08-.04.12-.04.08-.04.12-.08.201 0 .04-.04.08-.04.12 0 .08-.04.12-.04.2 0 .041-.04.081-.04.121 0 .08-.041.12-.041.2 0 .04 0 .081-.04.121 0 .08 0 .16-.04.2v.442c.08 4.091-2.286 8.183-4.051 10.63l-.361.481c-.161-.04-.321-.12-.522-.16-.682-.201-1.404-.321-2.206-.401-.321-.04-.642-.04-.963-.04h-.562z"/>
    <path fill="#fff" d="M293.569 372.26c.441 1.404 1.003 2.608 1.685 3.571h-.121l.763.802c.04.04.08.12.16.16l.201.201h.04c1.284 1.244 2.848 1.845 4.733 1.845 1.124 0 2.327-.2 3.611-.642a15 15 0 0 0 1.965-.762c.361-.16.722-.321 1.083-.521l.482-.241c.682-.361 1.243-.481 1.645-.401l.12.04c.2.08.361.281.481.642.121.361.161.802.161 1.364 0 .642-.963 2.928-3.169 4.453-.642.401-1.324.762-2.006 1.002-3.771 1.244-7.622 1.645-10.069 1.124l-.481-.121-.201.482c-.16.361-3.53 9.025.762 13.839.241.281.562.562.883.843a9 9 0 0 0 1.685 1.043c1.043.481 2.286.842 3.65 1.003.281.04.522.04.802.08-.24 1.725-.762 6.378.522 10.349.241.722.481 1.364.762 1.886.361.842.802 1.645 1.284 2.447.642 1.123 1.364 2.126 2.086 3.049a16 16 0 0 0 1.805 1.885l-.522-.08 1.926 1.243c.201.161.401.281.642.442l.12.08h.08c2.247 1.404 4.734 2.086 7.422 2.086h.481c1.765-.04 3.65-.401 5.616-1.043a32.6 32.6 0 0 0 4.332-1.846l.041-.04c.04-.04.08-.04.16-.08.04-.04.12-.04.161-.08.12-.04.2-.12.28-.161 1.404-.722 2.848-1.684 4.293-2.808a50 50 0 0 0 3.129-2.647c2.888-2.688 5.094-5.616 6.578-8.665 2.808-5.736 2.568-10.871 2.407-14.642-.04-.802-.08-1.564-.08-2.206.04-4.894.361-77.502.441-97.56l.04-5.134c0-4.533-.16-9.106-2.447-10.711-.922-.642-2.086-.722-3.449-.321v-.04l-.201.08-1.645-1.484.722 1.845c-3.65 1.645-8.905 6.378-16.086 14.482-9.387 10.43-11.473 16.808-11.473 20.458l.041.522.04.682h.04c.16.962.441 1.644.682 2.046.24.361.401.561.441.601l.281.281.361-.16c.04 0 2.487-1.043 5.415-1.284.923-.08 1.765-.08 2.568 0q1.143.12 2.166.481l.08.04c.161.041.281.121.441.161l.081.04c1.805.802 3.169 2.166 4.011 4.172 3.57 8.344 1.845 11.152-.562 12.917-.802.602-1.323.802-1.644.722h-.04c-.401-.16-.803-1.083-1.164-2.688l-.08-.321a81 81 0 0 1-.361-2.166c-.04-.281-.12-.561-.201-.882-.842-3.25-3.61-5.416-6.98-5.576h-.24l-1.525-.04.121.12c-2.688.361-6.499 1.885-11.232 6.619-.281.281-.562.562-.803.842-5.856 6.419-6.258 13.479-5.576 18.293.321 2.326.923 4.011 1.164 4.733-1.404 1.685-8.304 11.232-5.817 19.255m14 3.37-.481.241c-.321.16-.682.321-1.043.481-.682.281-1.284.522-1.846.722-2.607.843-4.653.762-6.257-.24 1.444-.281 3.048-.843 4.894-1.766l.481-.24q1.203-.602 1.805-.361l2.648 1.043c-.04.08-.121.08-.201.12m35.742-96.877c1.725 1.203 1.926 5.375 1.926 9.707l-.04 5.135c-.08 20.058-.441 92.666-.441 97.56 0 .681.04 1.444.08 2.286.16 3.651.361 8.625-2.287 14.08-1.404 2.929-3.53 5.697-6.338 8.304a49 49 0 0 1-3.049 2.568c-1.404 1.083-2.808 2.005-4.131 2.687-.081.04-.161.08-.281.161l-.121.08c-.08.04-.12.08-.2.12a26 26 0 0 1-4.172 1.765c-1.845.602-3.61.963-5.255 1.003-1.605.04-3.129-.16-4.613-.642h.361v-.04a20.2 20.2 0 0 0 5.094-1.043 32.6 32.6 0 0 0 4.333-1.845l.04-.04c.04-.04.08-.04.16-.08.04-.04.121-.041.161-.081.12-.04.2-.12.281-.16 1.404-.722 2.848-1.685 4.292-2.808a50 50 0 0 0 3.129-2.648c2.888-2.687 5.094-5.616 6.579-8.665 2.768-5.736 2.567-10.871 2.407-14.641-.041-.803-.081-1.565-.081-2.207.04-4.894.361-77.502.442-97.559l.04-5.135c0-1.645-.04-3.129-.121-4.412v-.161c-.04-.281-.04-.521-.08-.762 0-.08-.04-.161-.04-.281-.04-.241-.04-.441-.08-.642 0-.12-.04-.2-.04-.321-.041-.2-.081-.361-.121-.561-.04-.121-.04-.201-.08-.321l-.12-.482v-.08c1.003-.281 1.765-.241 2.366.161m-24.229 35.582c-2.407.2-4.493.882-5.375 1.203l-.04-.04c-.161-.281-.402-.802-.522-1.645.12 0 .241-.04.361-.04.241-.04.522-.08.762-.08h.161c.2 0 .361-.04.521-.04.321 0 .642-.04.963 0 .201 0 .441 0 .642.04h.12c.161 0 .361.04.522.08.08 0 .16 0 .24.04.121.04.281.04.402.08.12.041.24.041.361.081.04 0 .08.04.12.04.2.04.401.08.562.16l.08.04h.04l.04.04.361.161c-.04-.161-.201-.161-.321-.12m4.212 13.96c.08.28.12.521.161.722.08.682.2 1.323.321 1.925l.08.321c.16.842.321 1.484.521 2.046l-.12-.04-2.768-1.083c-.04-.04-.12-.04-.16-.081-.803-.682-1.244-3.851-1.404-5.094 0-.08-.041-.201-.041-.281s-.04-.16-.04-.201c-.04-.12-.04-.2-.08-.28s-.04-.161-.08-.241l-.121-.361c-.04-.12-.08-.201-.12-.321-.04-.08-.08-.16-.08-.241-.04-.08-.08-.2-.12-.28-.041-.081-.081-.121-.081-.201-.08-.161-.16-.281-.24-.441-.04-.04-.081-.121-.121-.161a.3.3 0 0 1-.08-.16c2.608.481 4.092 2.527 4.573 4.453m-22.785 25.111.241-.28-.161-.321s-.802-1.886-1.203-4.734c-.642-4.533-.241-11.232 5.295-17.289.241-.241.481-.522.762-.803 5.135-5.134 9.066-6.298 11.513-6.338l.12.121c.04.04.081.12.161.16.08.08.12.16.2.241.04.04.081.08.121.16.08.08.12.201.2.281.04.04.04.08.081.12.08.121.12.241.2.361 0 .04.04.081.04.081.08.12.121.28.201.401v.04c.2.481.361 1.003.401 1.524.481 3.37.963 5.055 1.765 5.777.201.16.361.281.602.361l2.968 1.163 1.805.722h.041c.962.361 2.005-.281 2.808-.842 2.808-2.086 4.853-5.295.962-14.361-.962-2.247-2.527-3.851-4.613-4.774l-.241-.12h-.04l-.361-.121-4.091-1.604a4 4 0 0 0-.843-.321h-.12c-.201-.08-.441-.121-.642-.201-.241-.04-.441-.12-.682-.16h-.04c-.201-.04-.401-.081-.602-.081-.08 0-.16-.04-.281-.04-.16 0-.28-.04-.441-.04s-.281 0-.441-.04h-1.444c-.281 0-.522.04-.763.04-.32.04-.601.08-.882.121.08-3.41 2.206-9.468 11.152-19.416 6.9-7.782 12.155-12.516 15.564-14.12 0 .04.041.08.041.12.04.16.08.361.12.562.04.08.04.2.04.28.04.161.04.321.08.482s.04.321.081.441c0 .12.04.201.04.321.04.241.04.481.08.722v.16c.12 1.404.12 2.929.12 4.453l-.04 5.135c-.08 19.215-.441 92.585-.441 97.559 0 .682.04 1.444.08 2.287.161 3.65.361 8.624-2.286 14.08-1.405 2.929-3.571 5.696-6.339 8.304-.922.882-1.965 1.725-3.048 2.567-1.404 1.083-2.808 2.006-4.132 2.688-.08.04-.201.12-.281.16s-.201.081-.281.161l-.04.04c-1.404.722-2.768 1.324-4.172 1.765-1.845.602-3.61.963-5.255 1.003a13 13 0 0 1-2.808-.201 14.5 14.5 0 0 1-3.41-3.088c-.722-.843-1.364-1.846-2.005-2.889a33 33 0 0 1-1.244-2.407c-.281-.481-.481-1.083-.722-1.725-1.484-4.613-.401-10.389-.401-10.429l.12-.682-.722-.041c-.481 0-.923-.04-1.364-.12-1.243-.16-2.367-.441-3.289-.882a6.8 6.8 0 0 1-1.444-.923 13 13 0 0 1-.723-.682c-3.249-3.65-1.323-10.31-.722-12.115 2.648.442 6.459-.04 10.19-1.243a9.6 9.6 0 0 0 2.326-1.123c2.608-1.766 3.691-4.413 3.691-5.456 0-.722-.08-1.284-.241-1.765-.2-.642-.602-1.083-1.163-1.324-.04 0-.08-.04-.121-.04l-4.773-1.885c-.722-.241-1.605-.121-2.688.441l-.08.04c-.12.08-.241.12-.401.2-2.207 1.084-4.052 1.685-5.616 1.766-.843-.923-1.485-2.247-2.006-3.892-2.367-8.103 5.857-18.412 5.937-18.493m55.561-28.883c.201.241.642.682 1.485 1.003.12.04.2.08.321.12l4.372 1.725c.722.321 1.765.602 3.169.522.161 0 .321 0 .482-.04h.04c.16 0 .321-.041.481-.041h.08c.161 0 .321-.04.482-.08h.08c.16-.04.321-.04.481-.08.04 0 .081 0 .121-.04l.481-.12c.04 0 .08-.041.12-.041.161-.04.321-.08.522-.12.04 0 .08-.04.16-.04.04 0 .081-.04.121-.04 0 .04.04.04.04.08.04.08.08.12.12.201.08.12.12.24.201.321.04.08.08.16.12.2.08.08.12.201.201.281.04.08.12.12.16.2.08.081.12.161.201.241.04.08.12.121.16.201l.201.2c.08.04.12.121.2.161.08.08.161.12.241.16s.12.121.2.161.161.12.241.16.121.08.201.121c.04.04.08.04.16.08v.04l.361.12.722.281 3.972 1.564a6.1 6.1 0 0 0 1.925.442h.803c.441-.04.882-.201 1.363-.442.081-.04.161-.12.281-.2.201-.12.361-.281.562-.441.762-.682 1.324-1.605 1.685-2.608.441-1.243.361-2.367-.161-3.089-.361-.481-.922-.722-1.604-.682-1.284.081-2.167-.962-2.608-3.088a38 38 0 0 0 3.049-2.608 44 44 0 0 0 3.771-4.132c0-.04.04-.04.04-.08.12-.16.24-.321.361-.441.04-.04.08-.121.12-.161.08-.12.201-.24.281-.361.08-.08.12-.2.201-.281.08-.08.12-.16.2-.28a2.2 2.2 0 0 1 .281-.361c.04-.081.08-.121.12-.201.121-.16.201-.281.321-.441.04-.04.04-.08.08-.121.121-.16.241-.32.321-.521 0 0 0-.04.04-.04.602-.963 1.164-1.845 1.605-2.648v-.04c.08-.12.12-.241.201-.361.04-.04.04-.12.08-.16s.04-.121.08-.161c1.123-2.086 1.645-3.49 1.685-3.53.602-1.564.401-2.968-.481-3.61v-.081l-.362-.12s-.04 0-.08-.04l-4.733-1.845a2 2 0 0 0-.682-.121c-.281 0-.562.041-.843.161-1.203.441-2.487 1.725-3.089 3.329-.04.121-1.163 2.889-3.57 6.098q-3.069 4.032-6.98 6.498c-.16.081-.281.201-.441.281-.08.04-.12.081-.16.121-6.7 3.971-8.866 2.687-9.066 2.527a1.78 1.78 0 0 0-1.364-.642c-.121 0-.241 0-.401.04-.121 0-.201.04-.321.08h-.041c-.762.241-1.564.803-2.206 1.605a6.3 6.3 0 0 0-.963 1.564c-.601 1.404-.561 2.688.041 3.49zm13.118-6.779c.281-.121.521-.281.802-.442.04-.04.121-.08.161-.08.24-.16.521-.321.802-.481.04-.04.08-.04.12-.081.121-.04.201-.12.321-.2l.161-.12c2.728-1.725 5.175-4.012 7.301-6.78 2.527-3.329 3.69-6.258 3.73-6.378.482-1.284 1.485-2.287 2.287-2.608.16-.08.361-.12.521-.12a.5.5 0 0 1 .241.04l2.928 1.164c-.24.16-.441.32-.681.521l-.041.04-.28.281-.041.04c-.32.321-.601.722-.842 1.123l-.04.04c-.08.121-.12.241-.201.402 0 0 0 .04-.04.04-.08.16-.12.28-.2.441-.04.12-1.164 2.888-3.571 6.097-2.005 2.608-4.292 4.774-6.819 6.419h-.12l-.121.16-.08.08c-.08.041-.201.121-.281.161-.602.361-1.003.602-1.404.802-5.736 3.089-7.622 1.966-7.822 1.845-.161-.16-.321-.32-.522-.401-.04 0-.04-.04-.08-.04a.6.6 0 0 0-.241-.08c-.04 0-.08-.04-.08-.04-.08-.04-.16-.04-.281-.04h-.04c1.204-.321 2.648-.883 4.453-1.805m3.37 11.392s-.04 0-.04-.04l-.081-.08-.722-.401-.04-.04c-.08-.081-.16-.121-.241-.201-.04-.04-.08-.04-.08-.08l-.2-.201c-.041-.04-.081-.08-.081-.12-.08-.08-.12-.161-.2-.241-.04-.04-.04-.08-.08-.12l-.241-.361-.04-.04c-.08-.121-.161-.241-.201-.401.04 0 .08-.041.121-.041s.04-.04.08-.04c.24-.08.441-.16.682-.28.04 0 .08-.041.12-.041.241-.08.481-.2.722-.321.04 0 .04 0 .08-.04.281-.12.522-.24.803-.361.16.923.401 1.765.682 2.528.16.401.321.722.481 1.083 0 0 0 .04.04.04.08.12.12.281.201.401zm18.051-24.43c-.12.321-2.968 7.622-9.507 13.8-1.043.963-2.086 1.885-3.209 2.687h-.04l-.321.241.08.361c.682 4.052 2.768 4.493 3.931 4.413.321-.04.482.12.562.2.201.281.321.963 0 1.926-.281.762-.762 1.564-1.364 2.086-.12.12-.201.2-.321.281-.08.08-.2.12-.281.2-.28.161-.561.281-.802.281h-.642c-.561-.04-1.043-.12-1.524-.321-.642-.281-1.204-.762-1.685-1.364a6.4 6.4 0 0 1-.923-1.725c-.361-.882-.601-1.925-.722-3.089l-.12-.842-.762.401c-1.324.682-2.608 1.244-3.771 1.645-3.37 1.163-5.375.802-6.418.361-.642-.281-.923-.602-.963-.682l-.04-.04c-.08-.08-.121-.201-.161-.321s-.04-.281-.08-.401c0-.441.08-1.003.321-1.565.04-.12.12-.24.201-.401.16-.321.361-.642.601-.922.762-.963 1.565-1.284 2.006-1.284a.57.57 0 0 1 .481.241c0 .04 2.046 2.366 9.307-1.565a23 23 0 0 0 1.444-.842c.121-.081.241-.121.321-.201h.12l.121-.16c2.687-1.725 5.134-3.972 7.22-6.74 2.488-3.249 3.611-6.057 3.731-6.378.602-1.605 1.966-2.688 2.808-2.688.08 0 .121 0 .201.04h.04c.441.241.642 1.164.16 2.367m-30.768 14.121q.301 0 .482.24c.04.081.842.963 3.169.682-.04 0-.081.04-.121.04-.08.041-.12.081-.2.081-.04.04-.121.08-.161.12-.08.04-.16.12-.24.16l-.121.121c-.08.04-.12.12-.2.16l-.161.161-.2.2c-.04.04-.081.121-.161.161-.04.04-.08.12-.12.16s-.08.08-.121.161c-.28.321-.521.722-.722 1.123l-.24.481a5 5 0 0 0-.201.562c0 .04-.04.08-.04.12 0 .08-.04.121-.04.201 0 .04-.04.12-.04.16s-.04.121-.04.161c0 .08-.04.12-.04.2v.763c0 .08 0 .16.04.24v.121l-2.327-.923c-.602-.241-.923-.562-1.043-.722l-.04-.04c-.321-.442-.281-1.324.12-2.287.201-.481.442-.882.762-1.284.482-.561.923-.922 1.324-1.123.281-.12.482-.2.682-.2"/>
    <path fill="#fff" d="M351.777 289.945c.04 11.472.201 40.235.321 63.542.08 17.209.161 31.49.161 33.536 0 .641-.041 1.444-.081 2.286-.12 3.37-.321 7.863 1.404 10.791h-.16l.722.842c.04.041.08.121.12.161l.201.2h.04l.201.201c1.163 1.083 2.767 1.645 4.693 1.645q1.083 0 2.287-.241c.962-.2 2.045-.481 3.169-.842 1.484-.522 2.928-1.164 4.332-2.006l.281-.161c.04-.04.12-.08.16-.08.04-.04.081-.08.161-.08l.04-.04c1.444-.843 2.888-1.845 4.332-2.969a47.4 47.4 0 0 0 5.536-5.134c4.613-4.975 8.545-11.192 11.674-18.493a82 82 0 0 0 2.085-5.336c.442-1.283.883-2.567 1.244-3.81.321-.923.562-1.846.762-2.728 1.364-5.737.722-10.029.482-11.232.441-.522.882-1.003 1.243-1.525 2.608-3.209 4.654-6.378 6.017-9.427 4.212-9.427.763-14.441.602-14.642l-.481-.682-.482.642q-1.383 1.865-3.369 3.972l-.161.16a72 72 0 0 1-6.859 6.338 12.7 12.7 0 0 1-2.086 1.324c-.803.361-1.525.441-2.006.281h-.04c-.401-.161-.602-.522-.602-.762 0-.522.04-1.043.161-1.485 0-.04 0-.08.04-.16.16-.602.401-1.204.762-1.725l.241-.361a6.1 6.1 0 0 1 1.845-1.645l.481-.321c4.573-2.848 10.911-7.983 13.639-19.696.963-4.212.602-7.582-1.083-9.989-1.524-2.126-3.65-2.888-4.733-3.129.28-1.043.802-3.289 1.123-5.816.642-5.175.04-8.786-1.765-10.751-1.083-1.164-2.528-1.725-4.373-1.685h-.521l-1.003.12v.04c-3.45.602-8.304 2.648-12.997 8.625-3.169 4.012-5.536 9.026-6.018 12.797-.882 6.9-1.725 8.344-3.81 9.146-.723.281-1.204.321-1.485.16-.441-.24-.642-1.203-.561-2.767.08-1.003.28-2.327.601-3.892.321-1.604.803-3.409 1.445-5.616 3.69-12.796 15.243-21.06 15.364-21.18l.12-.081.08-.16s.161-.361.361-.923c.602-1.725 1.404-4.974-.241-7.742-1.163-1.965-3.369-3.249-6.538-3.811l-.843-.682v.562c-1.123-.161-2.326-.201-3.65-.201-21.06.121-22.785 10.109-22.705 21.261zm51.508 36.063c.722 1.645 1.925 5.937-1.124 12.676-1.323 2.929-3.289 6.017-5.856 9.146a27 27 0 0 1-1.444 1.685l-.201.241.08.321c0 .04 1.083 4.613-.401 10.951a22 22 0 0 1-.762 2.648c-.361 1.243-.802 2.527-1.244 3.771a89 89 0 0 1-2.046 5.255c-3.088 7.18-6.939 13.278-11.472 18.132a42 42 0 0 1-5.416 4.974 44 44 0 0 1-4.212 2.888c-.04.04-.12.08-.16.12s-.081.04-.121.081l-.281.16a24 24 0 0 1-4.131 1.885c-1.084.361-2.086.642-3.009.803-2.246.401-3.931.2-5.215-.562.201-.04.441-.08.682-.12l.481-.08c.843-.161 1.725-.442 2.688-.763a26.4 26.4 0 0 0 4.332-2.005l.281-.161c.04-.04.121-.08.161-.12s.08-.04.12-.08l.04-.041c1.444-.842 2.888-1.845 4.333-2.968a47.4 47.4 0 0 0 5.535-5.135c4.614-4.974 8.545-11.192 11.674-18.493a82 82 0 0 0 2.086-5.335c.441-1.284.882-2.567 1.243-3.811.321-.923.562-1.845.763-2.728.2-.802.321-1.564.441-2.286.722-4.573.241-7.903.04-8.946.441-.521.882-1.003 1.244-1.484 2.607-3.209 4.653-6.418 6.017-9.427a23 23 0 0 0 1.444-4.092c0-.04.04-.08.04-.12.08-.241.12-.522.16-.762 0-.081.041-.161.041-.241.04-.241.08-.441.12-.682 0-.12.04-.241.04-.361.04-.201.04-.401.08-.602 0-.12.04-.281.04-.401 0-.16.04-.361.04-.521 0-.121 0-.241.041-.361a28 28 0 0 0 2.808-3.049m-.402-24.871c1.485 2.086 1.806 5.134.883 8.985-2.607 11.273-8.745 16.207-13.118 18.935l-.481.28a7.5 7.5 0 0 0-2.206 1.966c-.121.16-.201.281-.321.441-.401.642-.722 1.324-.883 2.086 0 .04 0 .08-.04.121v.04c-.12.561-.2 1.163-.2 1.765v.04l-2.648-1.043-.521-.201s-.041 0-.041-.04c-.24-.2-.361-.441-.361-.642v-.521a.5.5 0 0 1 .041-.241c0-.08 0-.16.04-.24 0-.041 0-.121.04-.161.04-.16.04-.281.08-.441.16-.602.401-1.204.762-1.725a6.4 6.4 0 0 1 2.126-2.006c.121-.08.201-.12.321-.2l.201-.121c4.573-2.848 10.911-7.983 13.639-19.696.441-1.846.602-3.53.521-5.055-.12-1.925-.642-3.61-1.604-4.934l-.04-.04c.962.321 2.647 1.003 3.81 2.648m-5.214-19.576c1.524 1.684 2.045 5.054 1.444 9.788a43 43 0 0 1-1.164 5.937c-.04-.041-.12-.081-.16-.121-.08-.08-.161-.12-.241-.2s-.16-.121-.24-.161c-.041-.04-.121-.08-.161-.12a3 3 0 0 0-.481-.281c-.04 0-.04-.04-.081-.04-.08-.04-.2-.12-.28-.16 0 0-.04 0-.04-.041a10 10 0 0 0-1.846-.682 47 47 0 0 0 1.123-5.816c0-.161.041-.321.041-.482 0-.12.04-.2.04-.321 0-.12.04-.28.04-.401 0-.12.04-.28.04-.401 0-.12 0-.241.04-.361 0-.12 0-.281.04-.401v-2.447c0-.241-.04-.441-.04-.682v-.08c0-.201-.04-.361-.04-.522 0-.04 0-.12-.04-.16-.04-.161-.04-.321-.08-.441 0-.041 0-.121-.041-.161-.04-.16-.04-.281-.08-.441 0-.04-.04-.08-.04-.161-.04-.16-.08-.28-.12-.441 0-.04 0-.08-.04-.08a11 11 0 0 0-.522-1.404c1.204.04 2.166.481 2.929 1.284m-13.198-13.278c1.364 2.326.682 5.214.12 6.699-.12.321-.2.521-.281.682-1.323 1.003-12.114 9.266-15.685 21.702a96 96 0 0 0-1.484 5.696c-.361 1.645-.561 2.969-.642 4.052-.04.882-.04 1.604.081 2.166l-2.889-1.123-.08-.04c-.12-.04-.281-.081-.401-.321-.522-.883-.642-3.691 1.765-11.995.481-1.604 1.043-3.129 1.725-4.573 4.693-10.149 13.559-16.527 13.639-16.567l.12-.08.081-.121s.16-.361.361-.922c.12-.361.28-.803.401-1.324v-.04c.08-.241.12-.522.16-.803v-.04c.04-.16.04-.361.08-.521v-.08c.041-.201.04-.402.04-.602v-1.083c0-.201-.04-.361-.04-.562v-.08c0-.12-.04-.201-.04-.321v-.04c-.04-.201-.08-.401-.12-.562 0-.04 0-.08-.04-.12a2.3 2.3 0 0 0-.201-.562s0-.04-.04-.08a5.4 5.4 0 0 0-.481-.963c0-.04-.04-.04-.04-.08a.9.9 0 0 0-.161-.241c1.966.602 3.29 1.565 4.052 2.849m-9.989-3.531h.522q1.925 0 3.49.241c2.968 2.447 1.925 6.499 1.364 8.143a8 8 0 0 1-.281.682c-1.164.883-9.548 7.341-14.04 17.25a33 33 0 0 0-1.645 4.453c-2.688 9.306-2.287 11.793-1.645 12.917.281.481.642.762 1.123.882l4.453 1.765c.802.401 1.725.12 2.447-.12 2.969-1.123 3.771-3.611 4.613-10.109.763-6.218 8.023-19.055 18.573-20.459.041.08.121.201.161.321 0 .04.04.04.04.08.04.081.08.201.161.281 0 .04.04.08.04.121.04.08.08.2.12.28 0 .04.04.081.04.121.04.08.08.2.08.321 0 .04.04.12.04.16.041.08.041.201.081.321 0 .08.04.12.04.201.04.12.04.2.08.32 0 .081.04.161.04.201 0 .12.04.201.04.321 0 .08.04.16.04.241 0 .12.041.2.041.321 0 .08 0 .2.04.28 0 .121 0 .201.04.321v2.688c0 .201-.04.401-.04.602v.12c-.04.522-.081 1.043-.161 1.565-.401 3.369-1.243 6.257-1.243 6.257l-.201.682h.04l.682.081c.04 0 2.848.321 4.573 2.768.843 1.163 1.284 2.647 1.364 4.412v1.204q-.06 1.565-.481 3.369c-2.608 11.273-8.745 16.207-13.118 18.935l-.481.28q-1.565.963-2.527 2.407c-.402.642-.723 1.324-.883 2.086a7.5 7.5 0 0 0-.241 1.926v.24c.081.602.442 1.124 1.003 1.485.201.12.441.24.682.28l4.453 1.766c.802.32 1.805.2 2.928-.281.722-.321 1.525-.843 2.327-1.444a57 57 0 0 0 5.977-5.416v.161c0 .04 0 .12-.04.16-.04.241-.08.481-.12.762 0 .04-.041.121-.041.161-.2.922-.441 1.925-.802 2.888v.04a43 43 0 0 1-.802 2.046c-1.324 2.928-3.29 6.017-5.857 9.146a32 32 0 0 1-1.444 1.685l-.201.241.081.321s.12.561.24 1.484c.201 1.845.361 5.295-.642 9.467a22 22 0 0 1-.762 2.647c-.361 1.244-.802 2.528-1.243 3.771a90 90 0 0 1-2.046 5.255c-3.089 7.181-6.94 13.278-11.473 18.132-1.725 1.845-3.53 3.53-5.415 4.974a44 44 0 0 1-4.213 2.889h-.04c-.04.04-.12.08-.16.12s-.08.04-.12.08l-.281.161a24 24 0 0 1-4.132 1.885c-1.083.361-2.086.642-3.009.802-.561.121-1.163.161-1.685.201-1.965-2.567-1.765-7.261-1.644-10.711.04-.842.08-1.644.08-2.366 0-2.086-.08-16.327-.16-33.536-.121-23.307-.241-52.07-.321-63.542l-.041-5.135c-.04-10.911 1.525-19.937 21.542-20.058"/>
    <path fill="#fff" d="M378.175 353.406c-.281 0-.562.08-.883.2-.2.081-.361.161-.562.281-.04 0-.04.04-.08.04-1.083.682-4.773 3.29-8.745 8.665-.04-.08-.04-.2-.08-.281-.04-.2-.08-.361-.12-.561 0-.121-.04-.201-.04-.321 0-.161-.041-.321-.041-.481v-.682q0-.843-.361-1.445v-.04c-.04-.08-.12-.16-.16-.24l-.08-.081-.161-.16c-.04 0-.04-.04-.08-.04-.08-.04-.12-.08-.201-.121-.04 0-.04 0-.08-.04-.08-.04-.12-.08-.2-.08l-4.453-1.725c-.12-.08-.241-.12-.401-.16h-.081c-.561-.121-1.203.04-1.845.401a5.7 5.7 0 0 0-1.805 1.725c-.642.922-1.043 2.006-1.043 2.968-.12 6.619 3.289 9.106 6.138 10.029l.08.04c-.04.12-.08.201-.121.321-.12.281-.24.602-.361.923l-.24.601c-.121.281-.201.562-.321.843-.08.241-.161.441-.241.682-.08.24-.2.521-.281.802l-.24.722c-.081.241-.161.522-.241.762-.08.241-.12.482-.201.722l-.24.843c-.04.2-.081.361-.121.561-.08.321-.16.642-.24 1.003 0 .081-.04.121-.04.201-.201.963-.402 1.885-.522 2.848-.16.963.04 1.725.522 2.246.16.161.361.321.561.402l4.734 1.845c.2.08.441.16.762.16.281 0 .642-.04 1.003-.2.16-.08.321-.161.521-.281 1.364-.842 2.447-2.527 2.688-4.132.321-2.006.762-4.011 1.364-5.857a32.6 32.6 0 0 1 3.249-7.1 33 33 0 0 1 2.287-3.249c2.527-3.129 4.773-4.654 4.934-4.734 1.524-.963 2.728-3.049 2.688-4.773v-.241l.962.401-1.163-1.163v-.04a.9.9 0 0 0-.201-.321s0-.041-.04-.041l-.24-.24-.04-.04a.7.7 0 0 0-.281-.201c-.121-.08-.241-.12-.361-.16l-5.336-2.086v.08zm5.335 3.37c.04.04.08.12.08.2v.08c0 .04.04.081.04.121 0 .08.04.2.04.281.04 1.283-.962 2.968-2.126 3.69-.04 0-2.487 1.605-5.255 5.014a32 32 0 0 0-2.407 3.41c-1.404 2.247-2.527 4.734-3.369 7.341a42 42 0 0 0-1.404 6.058c-.201 1.243-1.124 2.647-2.167 3.289-.12.08-.24.12-.361.201-.321.12-.601.16-.802.08-.12-.04-.2-.161-.281-.321v-.04c0-.04-.04-.08-.04-.121v-.04c0-.04 0-.08-.04-.12v-.722a45.4 45.4 0 0 1 3.61-12.115l.321-.682-.722-.16a8 8 0 0 1-1.043-.321c-.24-.08-.481-.201-.682-.281-.08-.04-.16-.08-.2-.12-.161-.081-.321-.161-.482-.281a8 8 0 0 1-.922-.682c-1.324-1.203-2.166-2.888-2.487-5.055-.121-.762-.161-1.484-.121-2.286 0-.522.201-1.163.522-1.765.441-.843 1.083-1.524 1.725-1.926.401-.24.762-.321 1.043-.24.441.12.481.682.481 1.003-.04 1.363.201 2.567.642 3.57l.12.24c0 .041.04.041.04.081s.04.08.04.08l.402.802.04-.08c.281.401.642.762 1.043 1.083a6.6 6.6 0 0 0 1.725.963c.2.08.401.12.601.2.121.041.281.081.402.081.08 0 .16.04.24.04l.401.08.201-.321c3.37-5.135 7.221-8.665 9.708-10.229l.08-.04q.301-.181.602-.241c.16-.04.321-.04.441 0l.16.08c.041-.04.121.04.161.121q0-.062 0 0m-22.224 23.226c.121-.441.201-.882.321-1.324.04-.16.08-.281.12-.441.081-.361.201-.682.281-1.043.04-.16.121-.361.161-.521.08-.321.2-.642.281-.963.04-.161.12-.361.2-.522.12-.321.201-.642.321-.922.08-.161.12-.321.201-.482.12-.321.24-.642.401-.962.04-.161.12-.281.16-.442.08-.2.161-.401.281-.601l2.487.962c.121.04.201.081.321.161.12.04.241.12.361.16.161.08.321.121.482.161a47 47 0 0 0-1.525 3.971c0 .04-.04.12-.04.16-.12.362-.241.723-.321 1.084l-.12.361a10 10 0 0 0-.281 1.043c-.04.12-.08.28-.12.401-.081.361-.161.722-.241 1.043-.04.12-.08.24-.08.401-.081.361-.161.762-.241 1.123-.04.12-.04.201-.08.321-.08.401-.161.842-.201 1.244 0 .04 0 .08-.04.12l-.04.361c0 .04 0 .12-.04.16-.04.161-.04.321-.04.482v.441l-3.169-1.244c-.04 0-.081-.04-.121-.08-.24-.2-.321-.682-.24-1.283.16-1.043.361-2.086.561-3.129zm1.164-10.149a1.2 1.2 0 0 1-.321-.16l-.241-.121c-.04-.04-.08-.04-.12-.08-.121-.08-.281-.161-.402-.241l-.04-.04c-.16-.08-.28-.2-.441-.321-.923-.722-1.725-1.725-2.286-3.129l-.241-.722c0-.04 0-.04-.04-.08a4.6 4.6 0 0 1-.161-.722c0-.04-.04-.12-.04-.161l-.12-.722c0-.08 0-.16-.04-.24-.04-.201-.04-.442-.04-.682v-1.204c0-.802.401-1.805 1.002-2.567a1 1 0 0 1 .161-.201c.321-.361.682-.682 1.043-.882.321-.201.602-.281.842-.281h.161l3.008 1.163c-.802.522-1.524 1.324-2.045 2.327-.402.802-.642 1.565-.642 2.327 0 .882.04 1.685.16 2.487 0 .08.04.16.04.2.04.241.08.442.121.642.04.121.04.241.08.361.08.241.12.522.2.762.041.121.081.201.121.321.08.201.16.402.24.562.041.08.081.201.121.281.08.2.2.401.321.602l.12.24c.12.201.241.361.361.562-.241-.08-.521-.161-.762-.281-.04.04-.08 0-.12 0m16.928-14.843 2.046.803c-1.244.802-5.536 3.811-9.828 10.229a.6.6 0 0 1-.241-.08c-.16-.04-.281-.08-.441-.12-.522-.201-1.003-.442-1.404-.763-.201-.16-.401-.321-.562-.521l-.04-.04c-.08-.081-.16-.201-.241-.281l-.04-.04c-.08-.08-.12-.201-.2-.281 3.971-5.616 7.742-8.264 8.825-8.946l.04-.04c.441-.281.842-.361 1.123-.24l.602.24zm-74.332-1.885.2.08c.04 0 .04.041.08.041.161.08.321.16.482.2.04 0 .08.04.12.04l.361.121 4.212 1.684c.04 0 .04 0 .08.041l.362.12c.04 0 .12.04.16.04.441.16.883.241 1.324.361.04 0 .12 0 .16.04.241.04.522.08.762.121.081 0 .121 0 .201.04.08 0 .12 0 .201.04-.041.12-.121.281-.161.401l-.12.241c-.08.16-.121.28-.201.441l-.12.241c-.04.08-.08.16-.121.28s-.12.201-.16.281c-.04.04-.08.121-.12.161-.081.12-.161.24-.201.321-.04.04-.04.08-.08.08a8.6 8.6 0 0 1-.923 1.123c-.04.04-.08.12-.16.16-.04.081-.121.121-.161.201s-.12.12-.16.201l-.241.361c-.04.08-.08.12-.12.2-.08.121-.161.281-.201.401-.04.04-.04.081-.08.161-.04.12-.12.281-.16.401 0 .04-.041.08-.041.12l-.12.482c0 .04 0 .08-.04.12-.04.161-.04.321-.08.481v.081c-.04.361 0 .682.08.962l-.08.041.321.521c0 .04.04.04.04.08.08.121.12.201.2.281l.081.08c.08.121.2.201.321.281.16.08.361.161.561.241l3.731 1.484.561.201q.421.24.963.24c.161 0 .321 0 .441-.04.281-.04.602-.16.883-.321.441-.24.842-.521 1.244-.963.28-.28.521-.561.722-.802 3.088-3.61 4.533-7.742 5.215-11.112.16-.762.24-1.444.32-2.045 4.975-3.049 8.064-6.419 9.829-8.866 0-.04.04-.04.04-.08.08-.12.16-.201.2-.321 1.043-1.484 1.565-2.607 1.765-3.049l.04-.04c0-.04.041-.08.041-.08.561-1.364.521-2.648-.121-3.45l-.521-.642-.121.161c-.04-.04-.12-.04-.16-.081l-4.373-1.725v-.04l-.401-.12h-.04c-.12-.04-.241-.08-.361-.08-.802-.08-1.725.281-2.527 1.003-.602.521-1.083 1.203-1.444 2.005-.04.041-.04.081-.08.161 0 0-.041.04-.081.16-.361.642-2.005 3.33-6.218 6.178a29.5 29.5 0 0 1-3.409 2.006c-.081.04-.201.08-.281.16l-.161.08c-.922.442-1.765.803-2.607 1.003h-.04a3 3 0 0 0-.562.161h-.08c-.201.04-.361.08-.562.12h-.08c-.16.04-.361.04-.521.08h-.081c-.16 0-.361.04-.521.04h-.04c-.04-.08-.08-.12-.08-.12-.081-.08-.121-.2-.201-.281-.04-.04-.08-.08-.12-.08l-.121-.12c-.04-.04-.08-.04-.16-.08-.04-.041-.08-.041-.12-.081-.041-.04-.081-.04-.161-.04-.04 0-.08-.04-.16-.04l-4.654-1.845a2.3 2.3 0 0 0-.922-.08c-.803.08-1.685.561-2.447 1.444-1.364 1.564-1.846 3.73-1.043 4.934.12.16 1.083 1.564 3.129 2.607m23.306-15.564.081-.161c.641-1.524 1.965-2.527 2.768-2.407.04 0 .08 0 .12.04l2.928 1.164c-.882.561-1.685 1.484-2.166 2.647 0 .04-1.484 3.129-6.458 6.459-.041.04-.081.04-.121.08-.321.201-.682.441-1.003.642-.04.04-.12.08-.16.08q-.963.601-1.926 1.083c-.12.08-.24.121-.361.201l-.08.04c-2.527 1.244-4.774 1.685-6.699 1.324-.602-.121-1.123-.281-1.524-.522h-.041c-.08-.04-.2-.08-.28-.16 1.364-.201 2.808-.682 4.292-1.444l.08-.04c.12-.081.281-.121.401-.201a33 33 0 0 0 3.37-2.006c4.653-3.129 6.418-6.097 6.779-6.819m-3.65 13.799-.241.161-.04.28c-.241 2.327-1.043 6.339-3.37 10.19-.16.28-.32.521-.521.762-.04.04-.04.08-.04.08a18 18 0 0 1-1.324 1.725c-.201.241-.441.481-.682.762a3 3 0 0 1-.923.722c-.16.08-.361.161-.561.201-.161.04-.441.04-.642-.08-.12-.081-.16-.161-.241-.281a1.56 1.56 0 0 1-.16-.682c0-.802.401-1.926 1.203-2.808 2.247-2.367 3.129-5.616 3.45-7.943l.04-.281.121-.882-1.003.521h-.04c-.201.08-.401.161-.602.201-.842.281-1.685.521-2.487.642-.04 0-.08 0-.161.04-.641.12-1.283.16-1.885.16-1.284 0-2.447-.2-3.53-.642a7.3 7.3 0 0 1-2.046-1.163c-.842-.682-1.284-1.284-1.284-1.324-.16-.24-.2-.561-.2-.963.04-.681.321-1.484.802-2.126.08-.12.201-.28.321-.401.241-.281.521-.521.802-.682.442-.281.883-.401 1.204-.321.04 0 .08.04.12.04l.642.682.04.041.12.12a6.84 6.84 0 0 0 3.45 1.725c.522.08 1.043.16 1.605.16.321 0 .642-.04.963-.04h.12l.842-.12h.04a12 12 0 0 0 1.886-.522c.04 0 .08-.04.08-.04.281-.12.602-.24.923-.361 0 0 .04 0 .04-.04.321-.16.682-.281 1.003-.441l.16-.08c.121-.041.241-.121.321-.161a51 51 0 0 0 2.006-1.123c.321-.201.682-.401 1.003-.642l.04-.04c.08-.08.2-.12.281-.201 5.375-3.61 6.859-6.939 6.899-6.98.642-1.524 2.006-2.527 2.768-2.406.04 0 .081 0 .081.04h.04c.12.04.2.12.28.2.281.361.402 1.164-.04 2.247l-.04.12c-.2.441-.802 1.685-1.965 3.289-1.725 2.447-4.734 5.697-9.668 8.665m-12.797 13.038-.361-.161-.12-.12-.08-.08-.04-.041a1.54 1.54 0 0 1-.161-.682c-.04-.802.361-1.965 1.204-2.848q.661-.722 1.203-1.564c0-.04.04-.04.04-.08.12-.161.201-.321.281-.482.04-.04.08-.12.08-.16.08-.121.161-.281.201-.401l.12-.241c.08-.12.12-.241.161-.401.04-.08.08-.161.12-.281s.12-.281.16-.401c.04-.08.04-.161.081-.241.04-.08.04-.12.08-.2.521 0 1.083-.081 1.685-.161h.16a15 15 0 0 0 2.407-.602c-.401 2.006-1.204 4.453-2.969 6.258-.842.883-1.363 1.966-1.524 3.009-.04.16-.04.321-.04.481v.482l-2.086-.843zm-6.057-19.015 2.928 1.163a5.6 5.6 0 0 0-1.043.923c-.16.161-.28.321-.401.481-.602.843-1.003 1.886-1.043 2.768-.04.642.121 1.244.401 1.685 0 .04.04.08.081.121l-1.164-.482h-.04l-.12-.04c-1.725-.882-2.527-2.086-2.568-2.126-.441-.642-.16-2.246.923-3.49.08-.12.201-.201.281-.321.762-.642 1.444-.802 1.765-.682M320.887 85.8l.922 2.928-.24.08.321.401-.281.843.561-.2 4.814 15.042-.602.161.723.561-.041.522.241-.08.802 2.527.121-2.086 12.516 9.547-4.253.923h5.135v.16l.482-.12.722.562v-.602h16.607l-.04.642.842-.602.402.12v-.16h4.412l-3.53-.883 12.596-8.865-.361 3.731 1.444-4.253.161.041.04-.442.802-.561-.602-.161 5.416-15.725.521.16-.28-.842.24-.441-.16-.04 1.645-4.774-2.247 3.73-4.693-14.842 2.527.803-2.608-1.886.121-.2-.482-.16-.28-.883-.361.521-13.639-9.908.32-.441h-.922L357.03 58l2.207 2.648h-14.923l1.163-1.725-2.527 1.725h-.923l.361.481-13.879 9.507-.361-.561-.281.922-.522.12.161.241-2.167 1.484 2.086-.48-5.054 15.403zm39.754-23.588 5.495 6.66-12.275 3.329zm8.023 23.828 11.111 3.37-4.131 6.82-2.809-4.092zm-26.757 15.043-12.596-4.573 8.183-10.31 4.814 15.004-.2-.08zm11.352-25.473 12.597 9.106-12.757 3.57.12-8.423zM339.179 86l12.315 3.45-8.023 11.433L338.698 86l.682.281zm-2.487-.722-.361.481.321-.48zm15.765 4.854 7.702 11.473h-15.765zm8.665 10.711L353.46 89.41l12.837-3.57-2.247 6.579zm-9.066-25.233-.04 4.172-.12 8.505-12.757-3.57 5.014-3.53zm-.241 37.668-7.421-10.47h15.645l-3.45 4.373zm22.906-16.246-12.476 4.212 2.969-8.665 2.166-6.298 4.332 6.338zm-8.143-13.68v.442l-12.637-9.146 10.069-3.61 2.608-.923v13.238zm-15.204-8.744-8.946 6.298-4.091 2.888v-13.72zM329.832 93.42l-1.524 2.327-3.57-4.814-1.123-1.524 11.432-3.811zm-1.364 11.112.161-3.048.241-3.852 10.951 3.972-9.226 2.367zm14.642 2.287.121-3.57v-.041l3.73 5.256 3.811 5.375-5.856 1.243-2.046.442zm8.424 8.143.241.321.241-.321 3.129.762h-7.221zm8.023.602-6.699-1.645 4.975-6.338 2.687-3.41-.762 9.146zm3.771-13.439 11.674-3.93-.081 1.042-.561 5.937-4.774-1.324zm12.877-4.172v-.16l.401-.12-.24-.321 1.845-3.09-2.327 6.74zm-8.223-13.398.16-.481-.321.08v-.441l7.221-10.51 4.733 14.962zm6.258-12.395-6.459 9.427V70.075l.682.2zm-6.459-3.37v-.401l-.401.16-3.33-4.051 7.702 5.616zm-29.083.08 4.573-6.619 7.622 9.949zm-1.565 1.123v13.038l-7.822-11.233 2.567-.601zM324.658 92.86l2.928 3.931-.241.28.361.121-.2 3.29-.081 1.564-3.129-9.708zm7.421 11.954 9.748-2.487.2.08-.08 2.969-.281 9.748-12.516-9.548zm28.722 10.269.281-3.128.762-8.986 6.579 1.805 5.094 1.404zm-1.364-53.272-7.02 10.39-7.983-10.39zm-18.533 1.725-3.41 4.974-.361-.12v.36l-2.487.562-3.37.803zm-12.436 9.307 2.969 4.733 4.092 6.579-11.995 4.011zm115.253 9.065.922 2.929-.24.08.321.4-.281.843.561-.2 3.611 11.272-.602.16.722.562-.04.522.241-.08.802 2.527.12-2.086 9.146 6.98-4.252.922h5.055v.161l.481-.121.722.562v-.602h12.476l-.04.642.842-.602.401.121v-.161h4.373l-3.53-.882 9.186-6.459-.361 3.731 1.484-4.252.161.04.04-.441.802-.562-.602-.16 4.052-11.834.522.16-.281-.842.24-.442-.16-.04 1.645-4.773-2.247 3.73-3.45-10.87 2.488.801-2.608-1.885.12-.2-.481-.16-.281-.883-.361.521-10.269-7.461.321-.442h-.923l-3.691-2.647 2.207 2.647h-10.871l1.163-1.724-2.527 1.724h-1.043l.361.482-10.43 7.14-.361-.561-.281.922-.521.12.16.241-2.166 1.485 2.086-.482-3.691 11.433zm30.928-17.089.161.2 3.811 4.614-8.866 2.407zm10.952 8.505 3.49 10.95-8.665-2.647.16-.481-.321.08v-.12l.803-1.163zm-.602 24.069-5.656-1.565-2.166-.602 8.303-2.808-.2 2.086zm-38.591-11.874.121-.04 8.063-2.688-4.814 7.3-1.083-1.444zm11.594-2.448.682.281-.201-.28 4.814 1.363 4.051 1.124-5.897 8.384-.12-.361zm11.312 2.488 9.427-2.608-3.771 10.992zm-1.564-1.164-3.932-1.083-5.415-1.524 9.467-6.66v.763zm.601 1.846 5.656 8.424h-11.553zm-17.57 4.613 4.132-5.215 1.885-2.327 3.33 10.39.2.602-.08-.04-6.86-2.488zm17.089 12.676-5.416-7.662h11.433l-2.327 2.928zm10.43-21.742-9.347 2.607.12-9.226v-.04l1.926 1.404zm-5.897 17.931 1.965-2.487-.401 4.894-.281 3.249-4.773-1.203zm3.69-5.415 3.771-10.952.08.12 5.296 7.743zm2.969-13.439-8.023-5.816-1.284-.923 6.699-2.407 2.568-.923v10.069zm-11.874-6.74-9.547 6.74V70.796zm-17.049 21.623.241-3.771 7.822 2.848-8.103 2.086zm10.992 9.627.04-1.404.24-7.461 5.416 7.662-3.209.682zm5.656 0 .762-.16.201.321h-1.605zm22.304-19.816-2.969 4.894-5.014-7.341 3.289 1.003zm-8.826-6.58v-8.223l4.614 1.484-4.373 6.339zm-22.263-9.386 3.289-4.774 5.496 7.18zm-1.565 1.123v9.427l-.04-.04-5.616-8.023.401-.08zm-1.284 10.59-8.745 2.889h-.04l3.611-11.192zm-6.619 9.106.522.682-.241.281.361.12-.16 2.889-1.886-5.937zm11.674 5.095v.24l-.08.121h.08l-.241 8.344-.04.722-9.146-6.98zm7.622 10.029.24-.281 1.204.281zm7.1-.642.321-3.61.441-5.255 8.505 2.366zm11.754-12.155.08-.722.321-.12-.441 1.283zm.401-.922-.201-.281.281-.482.401-.682zm-4.694-21.622-2.126-.682v-.401l-.401.16-1.805-2.166zm-8.945-5.777-5.135 7.622-5.817-7.622zm-14.482 1.685-2.126 3.129-.361-.12v.36l-3.249.763-.401.08zm54.274 143.893-.281-.843.241-.441-.161-.04 1.645-4.774-2.246 3.731-3.45-10.871 2.527.802-2.608-1.885.121-.161-.482-.16-.28-.883-.361.522-10.27-7.462.321-.441h-.923l-3.69-2.648 2.206 2.648h-10.911l1.163-1.725-2.527 1.725h-1.043l.361.481-10.43 7.141-.361-.562-.281.923-.521.12.16.241-2.166 1.484 2.086-.481-3.69 11.432-1.485-2.005.923 2.928-.241.08.321.401-.281.843.562-.201 3.61 11.273-.601.16.722.562-.04.521.24-.08.803 2.527.12-2.086 9.146 6.98-4.252.923h5.054v.16l.482-.12.722.562v-.602h12.476l-.041.642.843-.602.401.12v-.16h4.413l-3.53-.883 9.186-6.458-.361 3.731 1.444-4.253.16.04.041-.441.802-.561-.602-.161 4.052-11.834zm-24.149-14.121-8.785-2.407 1.965-2.888 1.324-1.885zm7.822-7.18 3.972 4.813-8.866 2.407zm1.926 28.24 3.329-9.667 5.376 7.862-9.147 3.089zm-15.084.923-3.49-10.871.682.281-.2-.281 8.865 2.487-4.011 5.696zm7.502-9.547.08-7.261.04-2.006 9.227 6.659-8.264 2.287zm-1.083-9.267-.04 2.407-.081 6.86-.24-.08-9.106-2.528 3.45-2.447zm-12.436 9.868 1.364-1.724.401 1.203 3.129 9.788-.08-.04-9.467-3.41zm8.304 7.783 4.573-6.539 5.656 8.424h-11.553zm11.192 1.163-5.616-8.384.882-.241 8.505-2.366-2.648 7.742zm-14.602-14.963-2.687 1.886v-10.069l9.547 3.329zm13.559 16.889-1.083 1.404-4.934 6.258-5.416-7.662zm5.175-15.003-9.267-6.74.241-.08 9.066-3.249v10.069zm-22.625-.763-5.616-8.103 5.616-1.324zm-6.659 9.949-3.37-4.573 8.224-2.728zm11.593 6.418 5.416 7.662-5.697 1.204zm11.794 2.287 1.203-1.524-.481 5.937-.2 2.206-4.774-1.164zm12.315-6.338-.481 4.974-7.863-2.166zm-.601-20.138-4.614 6.699v-8.223l1.485.481zm-4.614-2.768v-.401l-.401.16-1.805-2.166 4.332 3.129zm-30.046 24.751.121-2.327 7.822 2.848-8.103 2.086zm17.33 10.951.2.281h-1.604zm.521 0 1.204.281h-1.404zm7.061-2.768.521-6.418 8.504 2.367-9.226 6.498zm12.475-12.114-.521 1.484-.201-.281zm-1.484.12-5.014-7.341 7.983 2.447-1.324 2.166zm-5.696-8.825.16-.482-.321.081v-.121l3.611-5.255 1.765-2.567 3.49 10.951zm-6.98-17.25-5.135 7.622-5.817-7.622zm-14.522 1.725-.922 1.324-1.244 1.765-.361-.12v.361l-2.126.521-1.484.361zm-8.945 6.94.722 1.164 4.452 7.1-8.785 2.928zm-.923 18.052-.241.281.361.12-.08 1.484-.08 1.364-1.886-5.937zm11.112 4.413v.24l-.08.121h.08l-.281 9.066-9.146-6.98zm26.556-3.531.321-.12-.442 1.324zm-17.728-89.777 2.206 2.648h-5.776l1.163-1.725-2.527 1.725h-1.003l.361.481-6.017 4.132-.361-.562-.281.923-.521.12.16.241-2.126 1.484 2.086-.481-2.006 6.178-1.484-2.006.922 2.928-.24.081.321.401-.281.842.562-.2 2.086 6.458-.602.16.722.562-.04.522.24-.081.803 2.528.12-2.086 4.854 3.73-4.252.923h5.054v.16l.482-.12.722.562v-.602h7.18l-.04.642.843-.602.401.12v-.16h4.412l-3.53-.883 4.814-3.369-.361 3.73 1.484-4.252.161.04.04-.441.802-.561-.602-.161 2.327-6.819.522.16-.281-.842.24-.442-.16-.04 1.645-4.773-2.247 3.73-1.805-5.736 2.487.802-2.607-1.885.12-.201-.481-.16-.281-.883-.361.522-5.937-4.293.321-.441h-.923zm-13.479 16.728 2.969-1.003 1.163-.401-2.246 3.37-.161.281-.481-.642zm11.554-8.825-4.413-1.204 1.645-2.406zm5.455-3.61 2.006 2.447-4.493 1.203zm6.178 19.335-3.811-1.043 4.052-1.364-.041.281zm-7.06 1.484.401-.521-.321 3.971-2.327-.562zm-7.181 3.209.12-4.252 2.728 3.851-2.848.602zm-5.456-9.467 2.447-3.089 1.886 5.897-5.095-1.845zm11.473-.762-.882-1.284 4.733-1.323.321-.081-2.006 5.897zm-1.203-2.447.08-4.934 4.894 3.57-1.284.361zm-6.138-.12 4.533 1.243-3.169 4.493-1.845-5.776.682.28zm4.975-4.814-.081 4.934-4.974-1.404 3.169-2.206zm-2.648 11.312 3.169-4.533 3.049 4.533zm10.309-6.137v-.04l2.889 4.212-4.894 1.604zm-5.736-6.178 4.974-1.805v5.375zm-3.811-.401 1.204.401-1.926 1.364-2.968 2.086v-.04l-.281.08v-5.295zm-5.135 3.249-.802-1.123-2.046-2.969 2.848-.681zm7.261 14.762-2.888-4.091h6.097zm8.705-11.753 3.972 1.203-1.485 2.447zm-.842-3.691v-3.971l2.246.722zm-14.763-5.536-.361-.12v.361l-.842.201 1.725-1.204zm-4.974 13.72-.08.12-.16-.441zm.161.441-.04.361-.121-.401zm1.043 2.808.04-.722.08-1.685 3.811 1.364-1.645.401zm5.535-.16-.08.08h.281l-.12 4.292v.602l-4.894-3.731zm10.15.24 4.492 1.244-4.853 3.41zm-2.006-19.496-2.728 4.052-3.089-4.052zm-13.92 5.616 2.768 4.413-.441.161-4.253 1.404zm20.298 5.015-1.364-.401.161-.482-.081.04 2.728-3.971 1.846 5.857zM282.539 256.73c5.375 0 10.47-.562 15.163-1.725a44.5 44.5 0 0 0 7.301-2.407c1.685-.682 3.289-1.484 4.814-2.327l.12-.08.241-.12.281-.161c1.444-.842 2.768-1.765 3.931-2.768.882-.762 1.685-1.524 2.367-2.326.08-.121.16-.201.24-.321.201-.241.361-.482.522-.682l.04.04.481-.762.201-.361.321-.562h-.04c.521-1.123.762-2.206.642-3.249h.04l-.161-.722c-.882-3.811-5.736-6.218-9.266-7.943l-2.006-1.003a37577 37577 0 0 1-38.31-21.14l-50.745-28.001c-9.828-5.415-19.616-8.785-31.25 9.147-3.128 4.733-3.971 8.504-2.567 11.312v.04l.161.241c.04.08.08.12.12.2l.521.883.041-.12c1.724 1.965 4.492 2.687 6.097 2.968.602.08 1.003.12 1.043.12h.16l.121-.04c.12-.04 9.226-4.011 19.817-3.891 2.447.04 4.974.281 7.461.843 10.831 2.407 11.754 4.051 11.633 4.613-.04.321-.361.682-.963 1.123-1.243.963-2.406 1.284-4.894.682-1.323-.321-3.008-.883-5.295-1.765-.481-.201-1.043-.361-1.685-.522-5.816-1.524-16.126-1.323-23.507 3.17a20.3 20.3 0 0 0-2.768 2.005 19 19 0 0 0-2.006 2.046 8 8 0 0 0-.521.722c-1.484 2.207-1.484 4.413.04 6.419l.08.08c.081.08.161.2.241.281.08.08.16.2.281.28l.24.281c1.485 1.444 3.811 2.808 6.9 4.012a42 42 0 0 0 5.817 1.805c-.361 1.083-.843 3.289.2 5.616 1.204 2.648 4.012 4.613 8.344 5.776.522.121 1.003.281 1.525.362 2.848.681 6.338 1.203 10.269.962h.201c.12 0 .281 0 .401-.04 5.295-.401 9.347-2.126 12.355-3.65.08-.04.121-.081.201-.081.16-.08.361-.2.521-.28.442-.241.883-.442 1.324-.562.441-.16.883-.241 1.324-.281l.2-.04h.081c.521-.04 1.043 0 1.524.08h.08c.121.041.241.041.321.081q.782.18 1.565.601c.16.081.361.321.361.642.04.562-.442 1.244-1.324 1.886q-.903.662-2.287 1.203c-4.813 1.926-10.51 3.49-14.922 4.052l-.803.12.321.722c.04.08.321.682 1.083 1.524.803.923 1.846 1.765 3.089 2.447q.662.362 1.444.722l-.16.041 1.123.361c.281.08.522.2.802.28l.161.041c1.725.521 3.65.882 5.776 1.043 3.41.24 7.301 0 11.553-.763.642-.12 1.324-.24 2.006-.401.923.762 4.333 3.37 10.149 4.934a39 39 0 0 0 2.808.602c1.284.241 2.648.481 4.052.722q2.888.422 5.776.722c2.407.121 4.734.241 7.061.241m-49.823-8.705c-.16-.04-.281-.12-.401-.161-.12-.04-.241-.08-.361-.16-.04-.04-.12-.04-.161-.08l-1.203-.602s-.04 0-.04-.04a4 4 0 0 1-.682-.441c-.08-.04-.12-.081-.201-.121l-.481-.361c-.08-.08-.201-.16-.281-.24a3 3 0 0 0-.401-.321l-.241-.241-.401-.401c-.04-.04-.04-.08-.08-.08-.161-.201-.321-.361-.401-.522 4.372-.682 9.748-2.206 14.281-4.011q1.504-.602 2.527-1.324c.241-.161.441-.361.642-.522v4.453c0 .04-.04.08-.04.161v.04c-.201.441-.602.922-1.244 1.364q-.903.602-2.287 1.203c-2.406.963-5.134 1.845-7.822 2.608a2 2 0 0 1-.441-.161c-.12.04-.201 0-.281-.04m5.736-13.96-.962.481c-.161.081-.321.161-.522.281-.682.361-1.444.722-2.246 1.083-4.854 2.166-11.914 3.972-21.783 1.284-3.971-1.083-6.498-2.808-7.541-5.095-1.204-2.647.04-5.255.04-5.295l.361-.682-.762-.16c-.04 0-3.049-.642-6.338-1.926-2.969-1.163-5.215-2.487-6.579-3.851 7.14-8.384 22.464-8.464 28.401-6.137l2.688 1.043-.08-.081c3.088 1.083 5.094 1.445 6.779.963.16-.04.321-.12.481-.16h.04c.161-.081.321-.121.482-.201h.04c.321-.16.642-.361.963-.642.642-.521 1.484-1.283 1.444-2.246 0-.08 0-.12-.04-.201v-5.977c.321-2.166-3.33-3.891-12.556-5.977-2.848-.642-5.737-.882-8.464-.842-9.829.08-18.253 3.45-19.416 3.931-.16 0-.401-.04-.762-.08-1.284-.201-4.333-.923-5.777-3.089 0-.04.04-.08.04-.121.081-.24.201-.441.321-.681.04-.121.081-.201.161-.321l.361-.722c.04-.121.12-.201.16-.321.121-.241.281-.482.401-.682.081-.121.161-.241.201-.361.12-.241.281-.442.441-.682.04-.081.08-.121.121-.201 7.982-12.315 14.842-14.201 21.621-12.315 2.648.722 5.336 2.046 8.023 3.57l4.533 2.487c17.571 9.668 80.31 44.327 84.563 46.654.601.321 1.323.682 2.045 1.043 2.608 1.283 5.817 2.848 7.542 5.014-.201.281-.401.562-.642.843-.12.12-.2.24-.321.401a24 24 0 0 1-2.246 2.206 22.8 22.8 0 0 1-3.771 2.648l-.281.16c-.08.04-.12.08-.2.12l-.161.081c-1.444.842-3.049 1.604-4.653 2.286a49.6 49.6 0 0 1-7.141 2.327c-6.578 1.604-13.919 2.086-21.822 1.404a92 92 0 0 1-5.696-.682 96 96 0 0 1-4.012-.722 38 38 0 0 1-2.728-.602c-6.378-1.685-9.828-4.814-9.868-4.854l-.241-.2-.321.08c-.802.16-1.564.321-2.286.441-4.172.722-7.943 1.003-11.232.722a23.4 23.4 0 0 1-3.53-.481c2.086-.602 4.091-1.324 5.977-2.046q1.504-.601 2.527-1.324l.241-.16c1.043-.803 1.444-1.565 1.564-2.166v-.041c.04-.12.04-.24.04-.361v-6.659c-.04-.682-.441-1.324-1.003-1.604-.12-.081-.28-.121-.401-.201.08-.04.121-.04.201-.08a3.24 3.24 0 0 0 1.123-.923c.04-.04.04-.08.08-.12.121-.161.201-.321.321-.481 0-.041.04-.041.04-.081.201-.401.401-.802.522-1.203.12-.401.2-.802.2-1.244v-5.335l1.645-2.928-1.645 1.725v-.081a5.6 5.6 0 0 0-.24-1.604c0-.04-.04-.08-.04-.08l.12-.121a.9.9 0 0 0 .281-.281c.08-.08.2-.16.281-.24l.24-.241c.08-.08.161-.16.241-.281.08-.08.16-.16.2-.241.081-.08.161-.2.241-.28.04-.081.121-.121.161-.201.08-.08.16-.2.24-.281.04-.04.081-.12.121-.16.08-.121.16-.201.24-.321.04-.04.081-.08.121-.161.08-.12.16-.2.2-.32.04-.041.04-.081.081-.121.08-.12.12-.24.2-.361 0-.04.04-.04.04-.08.08-.12.121-.241.201-.361v-.04c.441-.963.601-1.765.601-2.407v-7.301h-.08c-.04-.16-.08-.281-.08-.361 0-.04-.04-.08-.04-.12-.401-.883-1.524-1.525-3.049-1.685-.602-.08-1.243-.04-1.885.04-1.444.241-2.608.882-3.089 1.725-.04.08-.04.12-.08.2-.04.041-.04.081-.08.161a1.66 1.66 0 0 0 0 1.083c0 .401-.241 2.888-7.301 6.659-.081.04-.201.12-.321.161l-.201.08c-2.888 1.484-6.097 2.447-9.547 2.928-4.212.602-7.341.201-7.381.201-2.126-.281-4.413.481-5.175 1.725a1.9 1.9 0 0 0-.241.601v.081c0 .08-.04.16-.04.24v6.459c-.04.441.08.882.401 1.243.482.602 1.404 1.043 2.567 1.204.362.04 2.046.24 4.574.24 3.329 0 8.183-.361 13.398-1.925a42 42 0 0 0 3.971-1.404c.04.04.081.04.121.08l.04.04c.24.201.441.401.642.642l.04.04.12.121v3.971c.04.521.321 1.003.802 1.364-.08.04-.16.04-.24.08zm-22.263-27.599c.16.04.321.04.481.08.04 0 .12 0 .161.04.12.04.28.04.401.081.08 0 .12.04.2.04.121.04.241.04.361.08.161.04.361.08.522.12.04 0 .08.04.16.04.161.04.281.081.401.121.041 0 .081.04.121.04.16.04.281.08.401.12.04 0 .08 0 .08.04.361.121.682.201.963.321 1.925.762 3.53 1.324 4.854 1.685 2.968.802 4.773.602 6.539-.762.08-.04.12-.121.2-.161v4.453c.04.321-.281.722-.963 1.284-1.163.922-2.366 1.163-4.172.842-.962-.16-2.166-.521-3.69-1.083-.04 0-.08-.04-.121-.04-.08-.04-.2-.08-.28-.12a31 31 0 0 1-1.926-.722c-.04 0-.08-.041-.12-.041l-2.527-1.002.32.32c-3.49-.802-8.022-.922-12.315-.28-8.143 1.243-12.636 4.573-15.003 7.301-1.043-1.525-.963-3.089.201-4.774q.18-.301.481-.602a16.4 16.4 0 0 1 1.846-1.885 20.6 20.6 0 0 1 2.607-1.886c4.613-2.808 10.43-3.891 15.444-3.891 1.525 0 2.929.08 4.252.281.081-.08.081-.04.121-.04m24.309 26.997c-.04 0-.08-.04-.16-.04-.08-.04-.161-.04-.201-.08-.04 0-.08-.04-.08-.04l-.241-.121h-.04c-.401-.2-.601-.481-.642-.681v-4.774c.281.16.562.281.883.361.16.04.361.08.521.12l.041.04h.08c.16.04.361.04.521.04.201 0 .442.041.642.041.481 0 .963-.081 1.404-.161h.04l.482-.12h.04l-.883 1.564 1.926-2.006c.04-.04.12-.08.16-.12.08-.04.121-.08.201-.12.12-.08.24-.161.321-.281l.16-.16.04-.041c0-.04.04-.04.04-.08v3.249a3.95 3.95 0 0 1-.561 1.846c-.121.2-.241.361-.361.561-.121.161-.321.321-.562.482-.04.04-.08.04-.16.08-.201.12-.482.241-.763.321-.28.08-.601.16-.962.2-.361-.08-.762-.08-1.164-.08zc.081.04.121.04 0 0m-7.782-5.536c-9.026 2.688-17.089 1.645-17.45 1.605-.963-.12-1.605-.481-1.805-.842a.65.65 0 0 1-.12-.361v-4.694s.04 0 .04.04c.08.04.2.121.321.161 0 0 .04 0 .04.04.12.04.2.08.321.12.04 0 .04 0 .08.04.12.04.241.08.401.121h.08c.161.04.281.04.441.08.522.08 3.531.441 7.823.12 2.928-.2 6.418-.682 10.149-1.805.521-.16 1.083-.321 1.605-.521.08-.041.16-.041.24-.081.522-.16 1.003-.361 1.484-.561.041 0 .081-.04.121-.04v5.215c-1.204.521-2.447 1.002-3.771 1.363m-19.375-5.937c0-.12 0-.24.12-.401.441-.722 2.206-1.404 4.011-1.163.121 0 3.29.401 7.702-.201 3.611-.481 6.94-1.524 9.949-3.048l.12-.04c.161-.081.281-.161.401-.201 7.783-4.172 8.023-7.141 7.903-7.943 0-.12-.04-.2-.04-.2-.04-.081-.04-.161 0-.321v-.04c0-.041.04-.081.04-.121.241-.401.923-.922 2.246-1.163a6.8 6.8 0 0 1 1.565-.04c.441.04.802.12 1.123.24h.04l.241.121c.321.16.562.401.642.561l.04.041c.04.08.08.28.08.561v.161c0 .802-.321 2.166-1.805 3.891-1.244 1.444-3.049 2.888-5.415 4.372l-1.806 1.123h1.926c.12.081.2.161.321.241.08.08.2.161.281.241h.04c.16.12.28.241.441.361.04.04.12.08.16.12.201.161.361.361.522.522l.04.04c.12.16.241.281.361.441.04.04.08.08.12.161.402.521.722 1.002.923 1.484l.08.16c.04.081.08.161.08.241v.04c.121.401.161.762.161 1.163v.081a3.95 3.95 0 0 1-.562 1.845c-.12.2-.24.361-.361.562l-.2.2c-.161.12-.321.241-.522.361-.2.12-.481.201-.762.321-.201.08-.401.12-.602.161-.12.04-.28.04-.441.04-.08 0-.12.04-.2.04h-.642c-.121 0-.241-.04-.361-.04-.081 0-.161 0-.241-.04h-.12c-.081 0-.161-.041-.241-.041-.04 0-.08 0-.12-.04-.723-.2-1.164-.521-1.284-.802v-.04c0-.04-.04-.08-.04-.12v-.081c0-.12.04-.24.16-.361.602-.842 1.284-2.527-.842-4.693-.241-.241-.482-.441-.722-.682v-.602l-.522.201-.682-.562v.843c-.24.08-.441.2-.682.28a36 36 0 0 1-3.129 1.083c-7.581 2.247-14.521 1.886-16.728 1.685-.16 0-.28-.04-.361-.04h-.08c-.12 0-.2-.04-.24-.04-1.324 0-2.006-.521-2.086-.923m32.934-1.323c0-.041-.04-.041-.04-.081-.04-.08-.08-.12-.121-.2-.08-.08-.12-.201-.2-.281l-.04-.04a3 3 0 0 0-.321-.401 13 13 0 0 0-1.966-1.926c2.006-1.283 3.611-2.607 4.774-3.931.04-.08.12-.12.16-.201l.361-.441c.201-.241.361-.521.522-.762v3.009c.04.922-.401 2.767-3.129 5.255m3.089-12.516q0-.06 0 0m-11.634 18.573v-4.854l.161.161c1.324 1.564.682 2.487.441 2.848a1.65 1.65 0 0 0-.361 1.043v.962l-.04-.04c-.08-.04-.12-.08-.201-.12m-49.261-36.906c11.112-17.129 20.018-14.08 29.685-8.745l50.746 28c18.814 10.39 36.143 19.978 38.309 21.141a47 47 0 0 0 2.046 1.043c3.25 1.605 7.702 3.811 8.585 6.94l.04.2c.241 1.043.08 2.086-.441 3.25-1.926-2.167-5.055-3.691-7.622-4.975-.722-.361-1.444-.722-2.006-1.043-2.206-1.203-20.579-11.352-40.035-22.103l-49.461-27.278c-3.53-1.925-7.06-3.53-10.671-3.971h-.04c-.12 0-.241-.04-.401-.04h-.12c-.121 0-.201 0-.321-.041h-1.765c-5.496.321-11.233 3.771-17.49 13.439a23 23 0 0 0-1.846 3.249c-.601-2.286.361-5.335 2.808-9.066"/>
    <path fill="#fff" d="m271.589 286.173 150.19-86.849-154.964-84.803-.281-.16-150.35 86.889 154.963 84.803.121.04.2.12zm-5.055-170.448 152.798 83.639-4.373 2.528-148.144-81.073-.281-.16-143.571 82.957-4.332-2.366zm0 6.298 147.222 80.55-142.328 82.276-147.221-80.551zm-83.801 217.744.802 8.344 21.983-4.813 1.124.16-.201-.361 2.327-.521-2.889-.442-12.114-20.859-.642-1.084-.481.883-9.668 17.53-.361-.04.04.602-.321.601zm1.204.201 1.644.241 16.608 2.567-17.611 3.851zm20.418 1.926-19.857-3.089-.281-.04 8.946-16.167zM61.747 389.83l-.602-1.524-.24 1.003-.843-.482.602 1.444-6.017 24.43 13.679-5.696v.04l.561-.281.522-.24v-.041l13.679-6.498zm-5.376 22.866 5.055-20.539 6.418 15.725zm6.138-21.061 17.972 10.31-11.513 5.495zm8.625-71.885.16.561.482-.441.642.12-.16-.561 27.999-25.072-42.722-27.078-.361-1.323-.401.842-.762-.481.36 1.283-21.982 45.691zm27.198-25.273-26.396 23.628-3.45-12.195-10.43-36.946zm-27.56 23.949-34.578-6.098 20.7-43.043 10.55 37.387z"/>
    <path fill="#fff" d="m457.322 203.978 10.791-31.33.522.161-.281-.843.241-.441-.161-.04 1.645-4.774-2.246 3.731-9.748-30.768 2.487.802-2.608-1.885.121-.161-.482-.16-.281-.883-.361.522-27.157-19.737.321-.441h-.843l-.321-.401-.12.16-3.33-2.407 2.207 2.648h-30.929l1.163-1.725-2.206 1.484-.16-.2-.281.441h-.923l.361.481-27.679 18.935-.361-.562-.281.923-.521.12.16.241-2.166 1.484 2.086-.481-5.857 18.132-93.588-51.307-.281-.161-164.591 95.113-.602-.321v.682l-.642.361.642.361v126.161l-18.974 64.585 18.974-6.499v11.313l39.072 21.381-47.977-1.524 26.435 56.762-.28.441.521.121.361.762.361-.602 11.593 2.648 29.124-47.617 110.797 60.654V491l.602-.361.602.321v-.682l164.27-94.992.281-.161V218.941l18.934-13.318-.361 3.73 1.444-4.252.161.04.04-.441.802-.561zm-70.401-32.413-4.894-2.687.963-1.204 1.925-2.447.361 1.204zm27.96-31.129 14.241-21.1 11.633 14.08zM442.4 159.29v-24.751l13.879 4.493zm14.762 28.241-25.433 8.544-.241-.12 6.539-19.095 3.931-11.513 2.247 3.29zm-49.662-6.098 5.937-8.464 13.92 20.74-20.579-11.273zm8.825-39.192-1.845.642v-.321l-.201.121-.08-.442.802.241-.521-.722 12.716-3.45zm-1.885 2.688 25.994 18.814-26.355 7.341zm-1.444-2.728.04.281.08.401-11.553-4.052 10.991 2.969-.441.642zm-.442 1.765-26.796 18.894v-28.241l9.828 3.41zm1.886 28.281 26.435-7.381-10.43 30.447-.722-.401zm-29.886-10.149-16.527-23.708 16.527-3.851zm-1.364.161-.241.08-2.447-3.891zm-2.246 6.017-.722-.401 2.727-4.092.963.361-.12.08.361.08-2.247 2.808zm5.576-4.493 26.716-18.814-.361 26.195-2.086-.562zm75.496 16.447-3.931 6.499-14.803-21.662 23.508 7.18zm-20.82-17.41-26.074-18.854 26.074-9.347zm1.204-29.524v-.402l-.401.161-9.427-11.433 21.22 15.404zm-28.121 5.856-.842 1.244-15.926-20.78-.561-.722h30.968zm-2.367 1.244-25.793-7.02 9.667-14.04.08.12zm-26.997-7.381-.361-.121v.362l-14.522 3.409 23.387-16.006zm-8.544 32.774 4.854-1.605-2.086 3.129-1.926-1.043zm12.074 6.619-1.444-4.573-.882-2.809.681.281-.2-.281 24.63 6.86 1.284.361-6.739 9.588-12.596-6.9zm48.419 25.914v-.12l-.12.08-1.966-.562-.722-.401-.843-.481 18.052-6.058 6.218-2.086-1.404 14.923-13.559-3.771zm21.822-10.029.402-.12-.241-.321 6.458-10.751-7.702 22.344zm-16.126-24.671.161-.481-.321.08v-1.765l14.602-21.301 9.788 30.889zm-81.232-6.057 5.856-18.132 9.748 15.565 4.854 7.742-6.86 2.286-5.535-3.008zM266.255 106.9l101.411 55.479 5.696 3.129 1.284.722.16.08 2.327 1.284 1.364.762.24.12 8.625 4.734.08.04.081.04 1.444.802.882.482 39.794 21.782h-.04l4.974 2.728.401.241-163.307 94.39-168.763-92.385zM102.306 322.598l.16.642-.16.521zm49.903-54.476c.08 0 .12 0 .2.04.241.04.442.08.682.12.08 0 .161.04.241.04.2.04.441.121.642.161.12.04.2.04.321.08.2.04.361.12.561.201.121.04.281.08.401.16.121.04.201.08.321.12.522.201 1.043.442 1.605.763l65.628 35.261c8.705 4.693 15.805 16.727 15.805 26.836v77.984c0 2.166-.321 4.132-1.003 5.776-.12 0-.24.04-.361.04h-1.324c-.12 0-.2 0-.32-.04h-.121c-.12 0-.281-.04-.401-.04h-.08c-.161-.04-.321-.04-.441-.08h-.041c-1.564-.281-3.169-.923-4.853-1.885l-19.897-11.393 10.59-13.078-31.891-3.931-8.304-1.043.441.883.16.561-17.008-9.748c-3.651-2.166-7.101-5.816-9.788-10.269l12.435-5.014-17.369-10.43v-27.278l7.421 2.005 12.596 3.41-5.255-34.258.441-.481-.561-.201-.161-.802-.562.602-9.707-3.29-4.253 4.333v-20.218c0-2.207.362-4.172 1.043-5.857.161-.04.321-.04.442-.04h1.043c.24-.04.441 0 .682 0m-4.012.521c.121-.04.281-.08.401-.16-.481 1.444-.762 3.089-.802 4.894v22.063l-5.014 5.135v-21.462c0-5.295 1.965-9.066 5.415-10.47m.802 52.992-7.421-2.006-2.206-.601 20.86-21.382 2.447-2.527 4.854 31.57-8.344-2.246zm4.574-30.367 8.424 2.848-1.966 2.046-21.983 22.504-8.424-2.848 13.158-13.478zm77.702 124.517c.281.12.602.24.883.321.04.04.12.04.16.04.241.08.522.16.762.24.081.04.161.04.241.081.241.04.441.12.682.16.12.04.201.04.321.04.2.04.401.08.602.08.12 0 .24.04.361.04.2 0 .361.041.561.041h1.164a.7.7 0 0 1-.201.28c-.12.201-.281.402-.401.602-.08.12-.161.241-.241.321-.08.12-.2.201-.281.321l-.24.241c-.081.08-.201.2-.321.28a2 2 0 0 1-.281.241c-.12.08-.201.161-.321.241-.08.08-.201.12-.281.2-.12.081-.24.161-.321.201-.12.04-.2.12-.321.16-.12.081-.24.121-.361.161l-.361.12c-.12.04-.24.08-.321.121-2.687.882-5.937.321-9.387-1.645l-18.492-10.59 4.051-4.975 20.058 11.473a27 27 0 0 0 2.166 1.083c.08.121.08.121.12.121m-35.341 1.604-3.129 4.212-6.9-22.905-1.925-6.379 8.905 18.694zm22.063-27.318-10.109 12.516-11.112 13.759-4.051-8.504-10.55-22.184 10.63 1.324zm-65.227-23.989c2.889 4.854 6.659 8.785 10.631 11.032l17.851 10.229 2.647 8.825-26.074-14.922c-4.052-2.327-7.903-6.499-10.751-11.553 0 0 0-.041-.04-.041-.161-.32-.361-.641-.522-.962 0 0 0-.04-.04-.04l3.45-1.404zm-9.988-44.848 5.014 1.364v26.877l-5.014-3.009zm-27.238 68.075v-8.304l.401-.12v.04l.481-.201.161-.04.12-.04.361-.12 28.281-11.393c.08.201.201.401.321.562 0 0 0 .04.04.04 2.969 5.495 7.1 10.028 11.513 12.556l27.198 15.564 7.943 26.396 4.773-6.419 7.061-8.704 18.653 10.67c.321.201.642.361.963.522.963.481 1.885.842 2.808 1.123h.04c.602.16 1.203.321 1.765.401h.04c.281.04.562.08.802.08h.081c.521.04 1.083.04 1.604 0h.04c.241 0 .442-.04.682-.08h.121c.2-.04.441-.08.641-.12h.041c.24-.04.481-.121.722-.201 2.407-.802 4.292-2.607 5.455-5.175v-.04l.442-1.003h-.081q.843-2.467.843-5.536v-77.903c0-10.51-7.381-23.026-16.447-27.88l-65.628-35.261a16 16 0 0 0-3.25-1.363c-1.364-.402-2.727-.562-3.971-.482l.04-.08-1.083.201h-.04l-.321.04v.04c-4.693 1.003-7.582 5.576-7.582 12.034v22.705l-14.16 14.522 9.708 3.289-.041.04.963.281.361.121 3.169.842v24.831l-26.034-15.645V219.944l146.579 80.23v169.365zm-1.204-58.568 28.923 17.37 4.573 2.728v.28l.161-.16 15.685 9.427-11.513 4.613-35.382 14.241-12.837-54.717zm-3.089 51.708 3.049-1.043v8.585l147.783 80.871v2.808l-150.872-82.556v-8.665zm0-164.872 3.049 1.685v110.075l-3.049-1.845zM83.933 390.552l17.129-58.407 1.123-3.851.041-.16.722-2.488 12.676 54.035-.12.04-4.253 1.485-10.189 3.49zm66.711 29.645 1.244.04-1.886 3.089-30.647 49.382-25.233-54.276zm-20.057 55.76-10.35-2.367 30.728-49.622 2.206-3.57 9.748 2.647zm30.327-47.296 3.891-6.378-10.952-2.968.121-.201-.963-.04-.361-.08-.04.08-9.788-.321-40.516-22.183v-11.032l7.782-2.648v8.986l152.396 83.399.883.481V299.492L115.463 218.54l-5.415-2.969V326.77l-5.696-3.41-.763-.481-.481-1.966-.441 1.444-.401-.241V202.373l168.803 92.385v194.196zm274.746-34.177-163.347 94.47V294.798l163.347-94.47zm1.204-177.027v-17.892l.04-.04 18.252 5.055z"/>
</svg>
