<svg xmlns="http://www.w3.org/2000/svg" width="550" height="550" fill="none" viewBox="0 0 550 550">
    <path fill="#fff" fill-rule="evenodd" d="m326.87 504.341.691.881.613.784.015.015 6.302-3.638.146-.084.082-.048c3.366-1.944 6.696-3.867 10.029-5.785 3.791-2.182 7.584-4.359 11.377-6.537l.011-.007.006-.003.006-.004.006-.003.006-.003c5.246-3.013 10.493-6.026 15.735-9.047 7.937-4.574 15.87-9.155 23.769-13.797.553-.325 1.113-1.195 1.113-1.815l.011-6.378v-.004c.024-11.961.048-23.925-.174-35.886-.076-4.063.598-6.675 4.677-8.777 5.899-3.039 11.625-6.41 17.353-9.782l.003-.002c2.97-1.749 5.94-3.497 8.935-5.2 1.03-.586 1.344-1.168 1.344-2.287-.03-10.958-.052-21.917-.074-32.876-.022-10.959-.044-21.919-.074-32.877-.004-.582-.216-1.262-.56-1.723a605.862 605.862 0 0 0-5.168-6.732l-.001-.001v-.001h-.001c-.787-1.016-1.574-2.031-2.358-3.049-1.087-1.409-2.163-2.824-3.301-4.32l-.008-.012-1.22-1.603.578-.341.414-.245.515-.305.006-.004c1.002-.594 1.931-1.145 2.868-1.683l4.562-2.616.052-.03a2427.441 2427.441 0 0 0 15.58-8.981c.398-.231.69-.986.69-1.497-.012-8.06-.033-16.119-.054-24.179-.039-15.308-.079-30.617-.056-45.925.004-1.98-.644-3.379-1.761-4.812a8493.21 8493.21 0 0 1-18.195-23.485c-4.653-6.021-9.301-12.046-13.95-18.071l-9.3-12.052a50012.761 50012.761 0 0 1-17.729-22.967l-5.482-7.105-.095-.123c-5.994-7.769-11.988-15.538-17.98-23.31-2.765-3.589-5.528-7.179-8.291-10.768l-.014-.018c-4.051-5.263-8.102-10.525-12.158-15.784a5057.28 5057.28 0 0 0-6.027-7.798l-.001-.002-.001-.001-.001-.002-.003-.003c-4.83-6.242-9.659-12.483-14.423-18.775-1.177-1.561-2.151-2.11-4.218-1.758-4.729.806-9.486 1.458-14.242 2.11h-.001c-2.382.326-4.763.652-7.14.997a5146.78 5146.78 0 0 0-14.772 2.175h-.003c-5.535.82-11.071 1.64-16.609 2.44-5.575.808-11.154 1.597-16.732 2.385h-.002l-.002.001c-5.579.789-11.159 1.578-16.735 2.385-3.744.541-7.487 1.103-11.23 1.665-7.346 1.103-14.693 2.207-22.058 3.15-3.511.45-6.578 1.547-9.577 3.293-8.867 5.169-17.759 10.292-26.651 15.416-2.964 1.708-5.928 3.415-8.89 5.125l-2.206 1.272a17938.606 17938.606 0 0 1-29.606 17.053 2614.388 2614.388 0 0 1-8.303 4.744c-3.83 2.182-7.66 4.364-11.475 6.574-.424.245-.822.956-.822 1.451-.008 6.185.009 12.371.026 18.557.014 5.062.027 10.125.027 15.187 0 12.584-.038 25.164-.098 37.743-.004 1.104.431 1.293 1.367 1.131.974-.17 1.952-.316 2.931-.462v-.001h.001l.01-.001c.395-.059.79-.118 1.185-.179 2.4-.366 4.8-.736 7.199-1.105h.001l.037-.006h.003l.001-.001h.001c5.162-.794 10.325-1.589 15.493-2.354 4.988-.738 9.98-1.457 14.971-2.177h.002l.002-.001h.005l.01-.002c5.234-.754 10.468-1.509 15.698-2.284 5.614-.833 11.223-1.691 16.831-2.548h.002l.003-.001h.004l.001-.001h.002c4.492-.686 8.983-1.373 13.476-2.047 5.919-.888 11.841-1.764 17.762-2.641 5.397-.799 10.794-1.598 16.19-2.405 2.366-.356 3.078.034 4.074 2.525-.159.041-.316.087-.472.132-.341.099-.676.197-1.016.246-2.281.328-4.564.648-6.846.969-5.081.713-10.162 1.427-15.23 2.225-2.424.382-4.908.934-7.134 1.92-1.775.786-3.435 1.822-5.096 2.858v.001h-.001a80.341 80.341 0 0 1-2.583 1.568c-6.703 3.847-13.409 7.688-20.116 11.53l-.037.021c-6.714 3.846-13.429 7.692-20.141 11.544-11.568 6.642-23.129 13.291-34.655 19.993-.553.321-.97 1.175-1.098 1.848-.121.647-.087 1.32-.052 1.994.016.319.033.638.033.955l-.008 8.989v.002c-.016 17.992-.032 35.983-.064 53.976 0 .96.367 1.228 1.265 1.092 3.76-.567 7.521-1.127 11.282-1.688 3.761-.56 7.522-1.12 11.282-1.687 5.196-.783 10.39-1.572 15.583-2.361 7.954-1.208 15.907-2.416 23.863-3.6 5.335-.795 10.672-1.575 16.009-2.356h.004l.02-.003c11.034-1.613 22.067-3.227 33.08-4.963 2.999-.473 5.029-.038 6.479 2.657.306.573.703 1.095 1.157 1.693.226.298.467.614.717.964l-2.441.359-.009.001-.036.006-.038.005-.012.002c-2.793.41-5.364.788-7.934 1.158l-.387.056c-4.67.671-9.22 1.324-13.483 3.932-7.525 4.607-15.2 8.97-22.875 13.334h-.001v.001a2319.5 2319.5 0 0 0-8.425 4.805c-3.859 2.218-7.721 4.43-11.583 6.642a5974.402 5974.402 0 0 0-19.945 11.457c-.416.238-.791.953-.791 1.448-.016 7.993-.018 15.984-.02 23.976-.002 9.402-.005 18.804-.029 28.207-.004 1.391.488 1.561 1.639 1.379 3.981-.621 7.964-1.224 11.947-1.826l.006-.001.006-.001.005-.001.024-.003.05-.008a7517.872 7517.872 0 0 0 15.493-2.356l.026-.004c7.177-1.096 14.353-2.192 21.534-3.257 5.563-.827 11.128-1.64 16.693-2.453l.001-.001h.003c7.823-1.143 15.647-2.286 23.464-3.466 1.481-.223 2.386.144 3.268 1.289 3.717 4.828 7.468 9.631 11.22 14.436l2.757 3.53c3.155 4.044 6.312 8.085 9.469 12.127l.018.023.021.026.003.004.003.004.003.004c5.847 7.485 11.694 14.971 17.531 22.464 3.768 4.838 7.527 9.682 11.285 14.526 3.948 5.087 7.894 10.174 11.851 15.252 6.169 7.918 12.348 15.828 18.526 23.736l.031.04 6.352 8.131c1.192 1.529 2.387 3.055 3.577 4.576m20.966-155.309-.312.089v.004c-.655-.829-1.313-1.657-1.97-2.484l-.002-.002c-1.17-1.473-2.34-2.945-3.496-4.428a12000.48 12000.48 0 0 1-9.448-12.147l-.012-.014-.011-.015-.031-.04c-2.665-3.428-5.329-6.857-7.996-10.282l-4.927-6.329-.016-.021a63807.687 63807.687 0 0 0-31.144-39.986 23459.931 23459.931 0 0 0-16.047-20.54l-.01-.013-.011-.014-.011-.013c-5.023-6.425-10.046-12.849-15.063-19.28-3.802-4.874-7.602-9.749-11.401-14.625l-.026-.033-.026-.033-.01-.013a17071.937 17071.937 0 0 0-24.673-31.612c-.36-.461-1.219-.873-1.772-.794-6.113.872-12.221 1.798-18.329 2.725-1.758.266-3.515.533-5.273.798-2.131.321-4.26.643-6.39.966-5.795.876-11.589 1.752-17.387 2.606-4.79.707-9.58 1.399-14.37 2.092l-.012.002c-5.666.819-11.331 1.639-16.994 2.48-9.306 1.384-18.609 2.791-27.912 4.198-4.649.703-9.299 1.407-13.95 2.107a33.17 33.17 0 0 1-.643.085c-.303.038-.608.076-.91.127-1.06.177-1.506-.265-1.45-1.327.026-.502.017-1.005.009-1.508-.004-.251-.009-.502-.009-.752-.011-21.743-.022-43.486-.03-65.228 0-2.544.01-2.546 2.31-2.872l.19-.027c9.386-1.343 18.772-2.703 28.157-4.062l.005-.001.018-.002.017-.003.033-.005.032-.004c4.61-.668 9.22-1.336 13.83-2.002 10.519-1.519 21.042-3.039 31.566-4.554 4.084-.589 8.168-1.176 12.253-1.764 11.845-1.703 23.691-3.406 35.53-5.135 1.352-.197 2.208.079 3.09 1.236 5.592 7.316 11.23 14.599 16.867 21.88 2.127 2.749 4.255 5.497 6.38 8.247a36331.76 36331.76 0 0 1 26.12 33.834c3.981 5.167 7.958 10.338 11.935 15.509l.012.015.012.016c5.09 6.617 10.179 13.235 15.279 19.845a9141.597 9141.597 0 0 0 13.355 17.264c3.277 4.229 6.555 8.459 9.827 12.693l.843 1.092.005.005.009.012.003.004c7.854 10.171 15.71 20.344 23.503 30.563.636.839 1.038 2.086 1.041 3.145.086 19.925.116 39.852.146 59.778l.01 6.667c0 .421-.03.845-.059 1.267-.013.184-.026.368-.036.551zm-5.507 95.515-.5.148-.004-.008-2.115-2.7c-1.97-2.514-3.94-5.028-5.905-7.544l-8.721-11.171a37636.057 37636.057 0 0 1-24.098-30.889c-5.022-6.447-10.037-12.9-15.051-19.352l-.005-.006-.004-.005-.004-.006-.004-.005c-6.175-7.946-12.35-15.892-18.539-23.827-6.619-8.487-13.25-16.964-19.88-25.442l-.005-.006-.004-.006-.004-.005-.005-.006a39710.255 39710.255 0 0 1-13.886-17.762l-.002-.002v-.001l-.001-.001-.001-.001c-2.865-3.666-5.731-7.332-8.532-11.045-.678-.896-1.363-1.074-2.378-.919-6.312.968-12.632 1.909-18.952 2.843-5.166.763-10.333 1.523-15.5 2.282-8.334 1.225-16.669 2.45-25.002 3.694-7.814 1.166-15.625 2.348-23.437 3.531h-.003l-.004.001h-.004l-.004.001-.03.004c-5.264.797-10.528 1.594-15.794 2.386-1.654.249-3.311.49-4.967.73-2.941.427-5.882.854-8.816 1.33-1.655.267-1.655-.627-1.655-1.78v-.015c.003-12.659-.003-25.32-.01-37.98v-.018l-.005-9.487c-.001-1.404.003-2.809.006-4.213.009-3.466.018-6.932-.044-10.396-.026-1.58.462-2.261 2.083-2.484 10.3-1.421 20.592-2.914 30.884-4.407a26653.94 26653.94 0 0 0 24.668-3.598l.027-.004.022-.003.058-.009c8.354-1.221 16.709-2.443 25.065-3.655 4.529-.657 9.058-1.304 13.588-1.95a4455.82 4455.82 0 0 0 18.156-2.617c1.488-.219 2.461.137 3.408 1.376 7.977 10.443 16.002 20.849 24.027 31.255l.003.004 1.791 2.322 2.253 2.923a92281.51 92281.51 0 0 0 31.853 41.274c7.529 9.751 15.064 19.498 22.599 29.245v.001l8.853 11.453 4.707 6.084.027.035.028.036.005.007.003.003.002.003.003.004c6.172 7.975 12.344 15.951 18.46 23.966.675.888 1.133 2.192 1.136 3.304.084 16.626.112 33.252.14 49.878.006 3.782.012 7.564.02 11.346zm97.14-219.546v.001c.072.125.151.263.245.419l.008.003c-.702.415-1.396.828-2.086 1.238l-.002.001-.001.001h-.001c-1.571.934-3.117 1.854-4.677 2.752-6.885 3.967-13.773 7.927-20.661 11.887l-.005.004-.006.003-.042.024-.078.045-10.414 5.988-1.518.873-3.793 2.181-.021.012-.021.012c-6.308 3.627-12.615 7.253-18.92 10.886l-5.183 2.983c-7.113 4.094-14.228 8.189-21.308 12.337-1.519.888-2.378.907-3.548-.628-7.632-10.016-15.33-19.984-23.028-29.952l-.037-.048-5.123-6.635c-3.149-4.081-6.301-8.159-9.453-12.237-3.648-4.72-7.296-9.44-10.938-14.163-3.377-4.378-6.749-8.76-10.12-13.141l-.004-.006c-4.469-5.808-8.938-11.615-13.418-17.414-4.682-6.063-9.373-12.119-14.063-18.174l-.008-.011a15643.56 15643.56 0 0 1-13.257-17.132c-8.073-10.45-16.126-20.916-24.18-31.382l-.002-.003c-.158-.202-.278-.435-.429-.731-.081-.157-.17-.331-.279-.528l2.144-1.268a498.117 498.117 0 0 1 4.452-2.618l3.314-1.914.009-.005c10.241-5.915 20.483-11.83 30.738-17.725 5.924-3.406 11.854-6.8 17.784-10.195l.002-.002.007-.004a9977.543 9977.543 0 0 0 15.859-9.089c4.824-2.774 9.649-5.556 14.424-8.414 1.442-.862 2.298-.873 3.434.616 5.484 7.182 11.018 14.326 16.551 21.471 3.155 4.074 6.31 8.147 9.456 12.228 4.179 5.42 8.343 10.85 12.508 16.279l.002.003.001.002.002.003.002.003c4.468 5.824 8.935 11.649 13.42 17.462 5.653 7.33 11.323 14.649 16.992 21.968 4.687 6.049 9.373 12.099 14.051 18.156 5.525 7.156 11.038 14.32 16.551 21.484 3.53 4.587 7.059 9.173 10.592 13.757 2.478 3.215 4.96 6.427 7.442 9.638 2.085 2.699 4.171 5.397 6.254 8.098.134.173.243.364.38.601m.684 1.975c-.273.125-.496.222-.686.304a8.017 8.017 0 0 0-.768.363c-1.659.958-3.317 1.918-4.974 2.879-2.405 1.393-4.809 2.786-7.219 4.171-4.165 2.397-8.333 4.789-12.501 7.182l-.009.005-.009.006-.044.025c-4.81 2.761-9.621 5.523-14.428 8.291-4.09 2.355-8.177 4.716-12.264 7.077l-.023.013a10781.846 10781.846 0 0 1-15.593 8.998c-6.827 3.939-13.655 7.879-20.521 11.756-1.318.744-1.712 1.614-1.708 3.043.066 16.607.111 33.215.155 49.821v.036l.049 18.134c0 .274.041.548.088.866.026.178.055.369.079.581.206-.099.394-.186.57-.268l.001-.001h.001c.372-.173.686-.319.984-.491 3.433-1.977 6.864-3.958 10.295-5.938l.078-.045c4.122-2.379 8.244-4.758 12.37-7.133 5.447-3.134 10.896-6.263 16.345-9.393 6.265-3.598 12.53-7.195 18.791-10.8 3.215-1.851 6.426-3.707 9.638-5.563 6.423-3.713 12.846-7.426 19.296-11.095 1.473-.839 2.132-1.724 2.125-3.508-.075-18.325-.091-36.648-.107-54.972v-.006l-.011-11.97zm-112.64 275.437c-.022.215-.05.481-.081.83l-1.523-1.94-.002-.002c-1.802-2.297-3.447-4.392-5.087-6.491l-3.448-4.417-.034-.044c-8.465-10.843-16.932-21.688-25.384-32.542-6.138-7.882-12.271-15.769-18.405-23.655l-.052-.068c-4.768-6.131-9.535-12.261-14.305-18.39-8.327-10.697-16.654-21.391-25.037-32.043-.356-.449-1.288-.744-1.89-.661-9.088 1.281-18.164 2.631-27.241 3.98-9.149 1.363-18.297 2.731-27.444 4.098l-.066.01-.038.005-.038.006-.039.006-17.353 2.592c-2.685.402-5.37.802-8.055 1.202l-.13.019c-2.728.407-5.457.813-8.185 1.221-2.31.348-2.408.28-2.408-1.977-.002-3.706-.002-7.412-.003-11.119-.002-12.355-.004-24.709-.05-37.064-.004-1.622.507-2.212 2.105-2.439 19.562-2.763 39.117-5.571 58.667-8.395a3422.974 3422.974 0 0 0 30.343-4.498c1.295-.2 2.082.178 2.813 1.13a18251.65 18251.65 0 0 0 21.834 28.377c3.73 4.836 7.467 9.667 11.203 14.497l.008.01c3.492 4.514 6.983 9.027 10.468 13.544 5.016 6.499 10.025 13.003 15.035 19.507l.033.043.032.042.033.042c4.075 5.292 8.15 10.583 12.229 15.872 2.061 2.672 4.125 5.343 6.188 8.015a5093.56 5093.56 0 0 1 14.389 18.686c.488.639.841 1.562.844 2.355.071 13.85.095 27.697.12 41.544l.013 7.336c0 .211-.022.423-.059.776m17.231-56.8c-.243.116-.518.248-.84.408h-.004l-.022-.349-.015-.215-.022-.301v-.001a17.427 17.427 0 0 1-.066-1.296c-.018-5.415-.035-10.831-.051-16.246-.047-15.162-.093-30.322-.169-45.485-.007-1.554.417-2.491 1.863-3.311 8.562-4.87 17.09-9.8 25.619-14.73l.04-.023c2.752-1.591 5.505-3.182 8.259-4.771 4.216-2.432 8.43-4.866 12.645-7.3l.334-.194.098-.056c6.735-3.891 13.471-7.781 20.211-11.664 3.502-2.018 7.015-4.014 10.529-6.01l.02-.011a4267.5 4267.5 0 0 0 2.901-1.648c.224-.129.463-.236.775-.375.163-.073.347-.154.558-.253.033.244.07.471.106.687.072.44.137.834.137 1.23.021 6.067.039 12.134.058 18.201.046 14.742.091 29.484.169 44.225.007 1.339-.564 2.042-1.575 2.62-4.186 2.399-8.373 4.796-12.561 7.194-9.192 5.263-18.386 10.526-27.567 15.811-8.507 4.897-17.003 9.812-25.499 14.727l-.009.005-.027.016c-4.936 2.855-9.873 5.711-14.812 8.563-.318.184-.649.344-1.083.552m-117.752-217.6-.001-.001a44.184 44.184 0 0 0-.44-.675l.004-.007c.746-.444 1.48-.884 2.208-1.319l.001-.001.002-.001.004-.002a338.45 338.45 0 0 1 4.715-2.79 195.336 195.336 0 0 1 3.064-1.722l.001-.001.002-.001h.001l.001-.001c1.764-.978 3.528-1.955 5.235-3.023 1.185-.741 1.753-.544 2.544.484 3.486 4.515 6.999 9.01 10.512 13.504l.003.004.003.004c1.87 2.392 3.74 4.784 5.606 7.18 2.994 3.843 5.985 7.689 8.977 11.536 3.478 4.473 6.957 8.946 10.441 13.416 4.645 5.957 9.294 11.911 13.942 17.864l.001.002.002.002.001.002.002.002c3.974 5.09 7.947 10.179 11.919 15.271 5.911 7.579 11.818 15.16 17.723 22.741l.307.394 8.033 10.31a9778.89 9778.89 0 0 0 3.946 5.06l.001.001c4.025 5.159 8.051 10.319 12.041 15.51.677.884 1.094 1.02 2.09.442 11.978-6.938 23.973-13.842 35.97-20.748l.06-.034.017-.01 9.17-5.279c1.587-.914 3.176-1.827 4.766-2.74 4.695-2.696 9.39-5.393 14.049-8.146 1.148-.677 1.678-.438 2.401.51a787.778 787.778 0 0 0 10.103 13.049c1.008 1.271.228 1.702-.6 2.159l-.248.139c-3.543 2.041-7.086 4.079-10.629 6.116-3.544 2.038-7.087 4.075-10.63 6.116-6.442 3.714-12.883 7.43-19.324 11.145-6.415 3.701-12.83 7.402-19.247 11.1a5599.824 5599.824 0 0 1-6.737 3.88c-4.738 2.725-9.475 5.45-14.199 8.201-1.219.711-1.977.673-2.901-.536a6063.257 6063.257 0 0 0-17.647-22.933c-2.319-3.004-4.638-6.007-6.955-9.012-5.449-7.069-10.896-14.142-16.343-21.214l-.034-.045-.034-.044a23275.749 23275.749 0 0 0-37.395-48.472l-.004-.006-.022-.028a68273.031 68273.031 0 0 1-35.756-46.294c-.248-.321-.468-.664-.722-1.059m167.484 190.588a204.423 204.423 0 0 0 1.12-.601h.003a72.998 72.998 0 0 0 .042.771l.011.196v.002c.03.503.053.898.053 1.296.006 3.304.01 6.609.014 9.914l.001.351v.01c.014 11.122.029 22.245.072 33.368.004 1.373-.401 2.159-1.658 2.877a7565.708 7565.708 0 0 0-29.013 16.698c-3.692 2.132-7.383 4.264-11.077 6.394-7.781 4.487-15.57 8.97-23.359 13.442-.254.145-.53.248-.883.38v.001c-.191.071-.403.151-.647.25-.029-.267-.062-.511-.093-.741-.059-.442-.112-.831-.112-1.221-.014-5.101-.026-10.201-.038-15.302v-.035c-.027-11.06-.053-22.12-.102-33.179-.004-1.323.432-2.128 1.613-2.763 2.761-1.482 5.514-2.99 8.142-4.684 1.423-.915 2.381-.778 3.086.635.765 1.531 1.499 1.539 2.961.669 5.169-3.071 10.385-6.06 15.602-9.048l.002-.001.017-.01.017-.009c1.967-1.128 3.935-2.255 5.9-3.387 4.464-2.57 8.927-5.142 13.389-7.713l13.429-7.736c.467-.27.944-.523 1.508-.824M112.677 242.703h-.001c-.226-.005-.499-.012-.849-.012h-.004c.755-.445 1.464-.865 2.142-1.267 1.441-.853 2.742-1.625 4.053-2.38a72834.247 72834.247 0 0 1 38.275-22.045c3.139-1.806 6.272-3.623 9.406-5.439 8.755-5.075 17.51-10.15 26.386-15.007 2.02-1.105 4.502-1.423 6.942-1.736h.001a74.354 74.354 0 0 0 2.122-.294c3.129-.5 6.267-.948 9.404-1.396 3.245-.463 6.49-.926 9.726-1.447 1.841-.298 2.969.167 4.109 1.66 4.033 5.291 8.126 10.533 12.22 15.775l.003.004.008.01.008.01c1.6 2.05 3.201 4.099 4.797 6.151.185.238.348.493.546.803.098.152.204.318.325.501l-2.978 1.74-.002.002-.001.001-.039.022c-1.828 1.069-3.63 2.123-5.436 3.172-.484.281-.981.543-1.478.806h-.001v.001c-.995.525-1.989 1.05-2.875 1.718-3.464 2.612-7.494 3.071-11.509 3.529-1.208.137-2.415.274-3.604.47-6.243 1.031-12.515 1.905-18.785 2.779h-.002c-2.126.297-4.251.593-6.375.895-4.179.595-8.358 1.182-12.538 1.769l-.016.002-.016.003a4249.68 4249.68 0 0 0-19.852 2.819 4745.45 4745.45 0 0 0-21.193 3.138h-.005c-3.902.584-7.804 1.168-11.708 1.746-3.446.51-6.895.998-10.345 1.478-.238.033-.48.028-.861.019Zm123.161 87.675-.116-.179-.128-.197-.102-.155h-.004c.763-.437 1.517-.872 2.265-1.303 2.541-1.465 5.014-2.891 7.538-4.22.334-.174 1.345.484 1.75.987 1.579 1.956 3.116 3.946 4.653 5.936l.004.005a758.65 758.65 0 0 0 2.189 2.825c2.767 3.546 5.537 7.091 8.307 10.635l.005.006.005.006.005.007.008.011a11760.403 11760.403 0 0 1 24.704 31.699l.002.002.002.003.002.003.018.023c3.253 4.184 6.505 8.368 9.762 12.551 12.45 15.993 24.905 31.982 37.359 47.972 1.068 1.371 2.143 2.736 3.262 4.159l.013.016.008.01.792 1.008.665.845.69.879-1.86 1.089-.011.006v.001a626.133 626.133 0 0 1-4.089 2.382c-.463.267-.934.521-1.405.776l-.001.001c-.857.463-1.712.927-2.521 1.461-1.06.703-1.674.291-2.317-.545l-4.957-6.454-.139-.182-.016-.021-.007-.009-.007-.008-.006-.009c-7.249-9.44-14.499-18.882-21.769-28.304-4.711-6.107-9.436-12.204-14.161-18.301l-.013-.017-.013-.017-.002-.001-.001-.002c-4.311-5.563-8.622-11.125-12.922-16.695-5.237-6.782-10.461-13.574-15.686-20.367a18580.47 18580.47 0 0 0-10.181-13.23 4790.376 4790.376 0 0 0-6.215-8.047l-.008-.009c-1.573-2.035-3.146-4.069-4.717-6.104-.209-.27-.395-.558-.624-.913zm8.891-7.833c.027.084.062.194.116.343l-.004.004c-.81.467-1.624.918-2.436 1.367-1.835 1.015-3.656 2.022-5.365 3.191-2.447 1.675-5.189 2.023-7.936 2.371l-.003.001c-.563.071-1.126.142-1.686.225a7111.815 7111.815 0 0 1-34.637 5.024c-5.194.743-10.39 1.474-15.585 2.205l-.004.001h-.003l-.003.001h-.003c-5.607.789-11.213 1.578-16.816 2.382-3.015.434-6.024.906-9.034 1.377l-.006.001-.009.001c-1.514.238-3.029.475-4.545.707-.504.08-1.015.121-1.715-.211l1.595-.946a345.254 345.254 0 0 1 3.615-2.127c13.757-7.935 27.518-15.865 41.278-23.796 1.484-.855 2.961-1.722 4.439-2.589l.001-.001.001-.001h.001c3.821-2.242 7.642-4.484 11.565-6.533 1.638-.857 3.604-1.155 5.516-1.446.341-.051.68-.103 1.016-.157a300.632 300.632 0 0 1 13.113-1.815c.727-.087 1.829.212 2.245.737 4.177 5.25 8.291 10.55 12.406 15.852l2.775 3.574c.042.054.064.122.108.258M99.563 131.168v-.002l-.096-.215.004.004 1.471-.868.007-.004.002-.001c1.286-.759 2.572-1.519 3.866-2.265l6.994-4.031.01-.006c9.673-5.576 19.347-11.153 29.027-16.723 9.348-5.377 18.699-10.748 28.051-16.12l.063-.036.063-.036 7.728-4.439a1839 1839 0 0 0 3.04-1.753 788.165 788.165 0 0 1 6.922-3.966 5.204 5.204 0 0 1 1.788-.612c6.185-.893 12.372-1.778 18.559-2.662h.003c7.271-1.04 14.543-2.08 21.811-3.133 12.169-1.765 24.335-3.546 36.501-5.326h.003c7.265-1.064 14.53-2.127 21.796-3.187 6.595-.96 13.193-1.912 19.789-2.862l.912-.131c.508-.076 1.027-.106 1.708.177-.723.424-1.444.85-2.166 1.277-1.274.752-2.547 1.504-3.828 2.242a30552.245 30552.245 0 0 1-60.295 34.716l-3.189 1.833a2959.054 2959.054 0 0 1-17.498 10.006c-.833.472-1.829.767-2.783.907-4.474.66-8.951 1.295-13.428 1.931h-.003c-3.343.474-6.685.949-10.027 1.433-5.954.864-11.905 1.737-17.856 2.61h-.005c-7.723 1.133-15.445 2.266-23.172 3.378-7.32 1.055-14.642 2.091-21.965 3.128l-.008.001-.002.001c-6.476.917-12.953 1.834-19.428 2.763-3.325.477-6.644.997-9.962 1.517h-.001c-1.436.225-2.872.45-4.309.672l-.096-.216v-.002m236.768 170.785-.001-3.548v-.011h-.14c0-1.522-.003-3.045-.007-4.567v-.001c-.01-4.1-.019-8.201.041-12.303.023-1.557-.427-2.808-1.359-3.984a662.362 662.362 0 0 1-5.57-7.11c-6.705-8.69-13.406-17.383-20.107-26.076a64160.525 64160.525 0 0 0-32.854-42.595l-9.392-12.165-.027-.034-.027-.035-.027-.036-.006-.008-.007-.008-.006-.008-.006-.008c-7.278-9.426-14.556-18.852-21.836-28.276l-5.086-6.584-.093-.12-.044-.057-.075-.097-.005-.006-.002-.003-.002-.002-.001-.003a9821.502 9821.502 0 0 1-16.776-21.751c-.557-.725-1.022-.998-1.999-.85-10.395 1.58-20.797 3.096-31.199 4.608a31560.961 31560.961 0 0 1-45.523 6.592l-1.367.197h-.002v.001h-.001c-11.097 1.601-22.193 3.202-33.301 4.72-1.499.204-1.904.733-1.889 2.177.054 5.48.05 10.958.047 16.437a6134.702 6134.702 0 0 0 0 9.77c.001 2.86.003 5.72-.002 8.58-.004.968.038 1.709 1.42 1.494a7208.46 7208.46 0 0 1 36.871-5.618c7.668-1.145 15.339-2.272 23.009-3.399h.003l.002-.001.015-.002c5.659-.831 11.319-1.663 16.977-2.502a8286.744 8286.744 0 0 0 32.228-4.842c1.163-.178 1.943.079 2.693 1.047a12059.636 12059.636 0 0 0 26.972 34.712c6.267 8.039 12.54 16.074 18.812 24.108l.002.003.002.003.002.003.003.002c5.666 7.259 11.332 14.517 16.993 21.777 3.133 4.02 6.26 8.043 9.386 12.066l.003.005.004.004.003.004c3.124 4.02 6.248 8.04 9.379 12.057 3.45 4.426 6.905 8.848 10.361 13.271l.001.001.002.002.001.001.001.002c3.032 3.88 6.064 7.761 9.093 11.644 1.386 1.777 2.77 3.556 4.153 5.335l.012.015c2.774 3.567 5.548 7.135 8.343 10.685.208.262.557.414.906.567.164.071.329.143.48.227.054-.139.124-.278.193-.417.151-.304.303-.607.303-.91.027-4.725.025-9.451.023-14.179zm-1.64 5.694c-.148.053-.292.11-.436.163l.008.011-.803-1.024-1.113-1.419a2936.993 2936.993 0 0 1-4.908-6.266c-5.8-7.439-11.596-14.878-17.393-22.317a84230.6 84230.6 0 0 0-8.678-11.136l-9.826-12.614-.011-.015c-5.832-7.488-11.663-14.976-17.503-22.457-3.813-4.887-7.633-9.769-11.453-14.651l-.001-.001v-.001l-.001-.001-.001-.001c-4.816-6.156-9.633-12.312-14.437-18.477a9971.875 9971.875 0 0 1-23.326-30.07c-.621-.797-1.181-1.187-2.31-1.013a9466.915 9466.915 0 0 1-32.621 4.92l-.022.003-.047.007c-3.691.553-7.382 1.105-11.072 1.659-8.213 1.232-16.427 2.468-24.64 3.704-8.213 1.236-16.426 2.472-24.64 3.704-2.069.311-4.141.61-6.213.91h-.005c-3.1.448-6.201.896-9.296 1.381-1.17.185-1.571-.117-1.571-1.3.019-10.323.03-20.643-.027-30.962-.011-1.491.816-1.609 1.884-1.762l.078-.011a42387.28 42387.28 0 0 0 58.307-8.433c15.813-2.298 31.622-4.6 47.428-6.94 1.147-.167 1.84.193 2.51 1.066 4.743 6.16 9.5 12.308 14.258 18.457l.018.023.018.023 5.257 6.796 6.229 8.054.016.022c5.784 7.478 11.567 14.955 17.342 22.44a14611 14611 0 0 1 11.715 15.218l.023.029c4.21 5.475 8.422 10.95 12.641 16.418 5.449 7.059 10.903 14.115 16.358 21.17 5.455 7.056 10.91 14.111 16.359 21.17 3.752 4.857 7.486 9.73 11.174 14.636.454.601.81 1.448.818 2.185.062 7.359.068 14.721.073 22.081v.002l.003 3.311c0 .298-.05.597-.1.896v.002c-.016.099-.033.198-.047.297zm-.113 7.001c.499-2.3.336-3.868-.864-5.372-2.724-3.42-5.404-6.874-8.084-10.327l-.001-.001v-.001l-.001-.001-.004-.004-.003-.004-.003-.005-.003-.004c-.971-1.25-1.941-2.5-2.913-3.748l-12.458-15.996-.033-.043-.034-.043-.033-.043c-7.269-9.334-14.537-18.668-21.813-27.999-6.903-8.852-13.812-17.698-20.721-26.545-6.209-7.95-12.418-15.9-18.623-23.854-5.196-6.663-10.383-13.334-15.571-20.005l-8.754-11.256c-1.227-1.576-1.625-1.591-3.299.03l22.976 29.472c29.985 38.464 60.018 76.988 90.239 115.749M111.024 181.542c.004 1.278-.152 2.306-1.905 2.484a33.706 33.706 0 0 0-.041-.597 17.517 17.517 0 0 1-.061-1.263 26536.54 26536.54 0 0 1-.019-30.905c0-.097-.003-.198-.007-.299-.013-.379-.026-.772.136-1.058.181-.325.704-.643 1.067-.635.273.007.61.51.765.858.092.21.074.468.056.725-.007.104-.014.207-.014.307l.001 8.102v.002c0 7.426 0 14.854.022 22.279m219.499 218.123v.007c.002 3.911.004 7.823-.02 11.732 0 .316-.133.631-.266.946a6.17 6.17 0 0 0-.17.434c-.149-.071-.315-.13-.48-.19-.362-.129-.723-.259-.921-.513-6.092-7.797-12.166-15.608-18.241-23.42l-.006-.008-.007-.008-.006-.009-.033-.041-.032-.042c-3.318-4.267-6.636-8.534-9.957-12.798-4.513-5.792-9.034-11.579-13.556-17.365l-.022-.027-.021-.027-.021-.027c-3.445-4.409-6.89-8.817-10.331-13.229-3.763-4.824-7.521-9.652-11.279-14.479l-.011-.015-.011-.014-.011-.015-.009-.011-.009-.011-.009-.012a19220.15 19220.15 0 0 0-12.362-15.868c-3.748-4.808-7.504-9.611-11.259-14.413-3.024-3.868-6.048-7.735-9.068-11.605l-.954-1.221c-2.25-2.88-4.498-5.757-6.691-8.678-.863-1.15-1.783-1.55-3.249-1.323a6736.143 6736.143 0 0 1-40.661 6.191c-9.327 1.391-18.659 2.76-27.99 4.13h-.002l-.021.003-.016.002c-6.578.966-13.156 1.931-19.732 2.904a462.686 462.686 0 0 0-11.182 1.787c-1.114.193-1.511-.177-1.511-1.236l.002-2.748v-.002c.007-9.171.014-18.34-.01-27.512 0-1.233.77-1.344 1.622-1.467l.078-.011.986-.144.018-.002.014-.002c4.83-.703 9.663-1.406 14.493-2.116 3.777-.555 7.554-1.114 11.33-1.672 7.139-1.056 14.278-2.112 21.42-3.14 6.209-.895 12.42-1.767 18.631-2.64h.006l.006-.001.006-.001c4.883-.686 9.766-1.372 14.648-2.068 6.899-.983 13.794-1.989 20.682-3.051 1.083-.166 1.648.136 2.303.987 5.78 7.516 11.582 15.018 17.384 22.519l.024.031.008.01.008.011c4.107 5.311 8.215 10.622 12.316 15.939 4.863 6.307 9.715 12.623 14.568 18.939 5.1 6.638 10.2 13.276 15.313 19.905 7.559 9.798 15.132 19.587 22.704 29.375a45264.24 45264.24 0 0 1 14.967 19.353c1.83 2.36 3.661 4.723 5.398 7.148.564.786.955 1.882.97 2.842.07 3.669.061 7.34.052 11.012v.002c-.004 1.257-.007 2.513-.007 3.77h.186v.004l.001 3.198zm-1.581 1.077v-.001c.07-.328.122-.568.122-.809l.003-2.029c.007-5.41.015-10.823-.049-16.232-.007-.745-.375-1.588-.825-2.2-1.183-1.601-2.413-3.168-3.643-4.735h-.001v-.001c-.629-.802-1.258-1.603-1.881-2.408-11.716-15.173-23.432-30.346-35.136-45.527-3.923-5.088-7.839-10.184-11.754-15.279-3.318-4.318-6.636-8.636-9.959-12.95-5.128-6.654-10.266-13.302-15.403-19.95l-5.837-7.553a6966.121 6966.121 0 0 1-3.308-4.286l-.005-.006-.005-.007-.005-.006c-5.05-6.542-10.099-13.084-15.201-19.585-.469-.597-1.579-1.126-2.302-1.032-8.092 1.07-16.17 2.241-24.25 3.413l-.943.137c-7.042 1.023-14.084 2.048-21.125 3.073l-.091.013-.091.013-.091.014c-16.264 2.367-32.528 4.735-48.795 7.074-1.451.208-1.939.707-1.928 2.189.047 5.579.046 11.156.044 16.734-.001 2.48-.002 4.959.002 7.439 0 .408.038.815.079 1.254.019.211.04.429.057.658.248-.021.471-.038.677-.053h.001c.41-.03.753-.055 1.09-.105l3.997-.589c8.492-1.251 16.984-2.503 25.471-3.774a7720.5 7720.5 0 0 0 16.014-2.418h.002l.002-.001h.002l.022-.003c5.332-.809 10.664-1.618 15.997-2.416 5-.749 10-1.492 15-2.235a8636.994 8636.994 0 0 0 22.39-3.348c.973-.147 1.564 0 2.204.828a4908.66 4908.66 0 0 0 18.657 24.014c4.31 5.523 8.624 11.043 12.938 16.562 4.315 5.522 8.631 11.044 12.943 16.57a48229.795 48229.795 0 0 1 27.266 34.978l.013.017.014.018.013.017.038.048c3.205 4.113 6.408 8.227 9.61 12.342 3.203 4.114 6.406 8.229 9.611 12.342 1.91 2.449 3.828 4.892 5.818 7.427l2.388 3.043h.007c.048-.268.095-.488.136-.679m-.336 9.075.443-.125c-.062-.712-.01-1.437.041-2.162.113-1.606.227-3.212-.882-4.665a922.893 922.893 0 0 0-7.33-9.437l-.001-.003-.002-.002-.002-.003-1.384-1.766-.558-.714-.326-.417-8.59-10.984c-5.736-7.332-11.472-14.664-17.197-22.004a9036.52 9036.52 0 0 1-12.126-15.585l-.005-.007-.005-.006-.005-.006-.006-.009-.007-.008c-2.988-3.845-5.976-7.691-8.968-11.534a46636.116 46636.116 0 0 0-26.817-34.391l-.002-.002c-5.24-6.713-10.481-13.425-15.736-20.122-.871-1.108-1.882-.983-3.529.291-.912.704-.42 1.199.026 1.648.11.11.217.218.3.325 6.714 8.622 13.439 17.236 20.163 25.851 5.251 6.727 10.502 13.454 15.749 20.186 7.75 9.938 15.49 19.887 23.23 29.835l.02.027.021.026 9.291 11.941c7.543 9.692 15.086 19.384 22.637 29.068 2.762 3.544 5.536 7.079 8.311 10.616zM125.178 285.935c.057 2.433-.858 3.642-3.283 4.372-.019-.201-.041-.388-.061-.566-.044-.382-.083-.72-.083-1.058-.005-4.34-.008-8.679-.011-13.019-.003-4.339-.006-8.678-.011-13.018v-.034c-.001-.889-.001-1.678 1.162-1.947 1.757-.404 2.208-.128 2.208 1.664.002 2.268-.006 4.537-.014 6.806-.019 5.601-.039 11.201.093 16.8m98.361-10.25a45.423 45.423 0 0 0-.027-.152l-.002-.01v-.004l-.026-.144a4.7 4.7 0 0 0-.023-.126c-32.588 4.83-65.172 9.673-97.745 14.583l.021.136.021.136.011.072.012.076.008.053.01.071 48.801-7.278.036-.005.035-.005.069-.011.068-.01.069-.01 48.683-7.26a23.486 23.486 0 0 0-.021-.112m92.315-195.886h-.001c-.118-.094-.24-.19-.361-.294l-.003.004a48.2 48.2 0 0 0-.699.476c-.5.344-.959.66-1.441.937-6.415 3.699-12.834 7.393-19.253 11.088-4.281 2.464-8.563 4.928-12.843 7.393l-8.85 5.1-.004.002a8340.007 8340.007 0 0 1-30.205 17.355c-1.235.703-1.272 1.183-.47 2.219 5.961 7.676 11.9 15.37 17.838 23.063l.001.002.009.011.009.012 4.36 5.647a74600.29 74600.29 0 0 1 26.131 33.831c5.656 7.328 11.306 14.659 16.955 21.99l.02.026 10.823 14.042 5.88 7.619.002.002c7.417 9.611 14.835 19.222 22.227 28.852.712.926 1.325 1.126 2.329.544 3.73-2.157 7.468-4.303 11.205-6.45l.003-.002c3.302-1.896 6.604-3.793 9.902-5.697 6.714-3.874 13.424-7.755 20.134-11.635l.04-.023.04-.023c5.158-2.983 10.316-5.966 15.476-8.946 5.119-2.96 10.246-5.92 15.392-8.834 1.14-.646 1.337-1.247.466-2.298-.847-1.025-1.646-2.089-2.444-3.153v-.001c-.454-.604-.907-1.209-1.369-1.806-3.831-4.951-7.663-9.901-11.496-14.85l-.048-.063c-6.152-7.946-12.305-15.892-18.45-23.843a28489.131 28489.131 0 0 1-31.74-41.13 48801.323 48801.323 0 0 1-20.614-26.789 50659.72 50659.72 0 0 0-18.283-23.761c-.18-.231-.417-.418-.668-.617m98.707 140.115c-.196-.283-.375-.545-.542-.791l-.005-.007v-.001a27.2 27.2 0 0 0-.966-1.364c-2.979-3.852-5.962-7.701-8.945-11.55l-.003-.003-.002-.003a9789.556 9789.556 0 0 1-14.232-18.393c-4.312-5.593-8.612-11.197-12.912-16.801l-.019-.025a8778.726 8778.726 0 0 0-12.898-16.782c-6.152-7.984-12.32-15.956-18.488-23.928l-.019-.026-.022-.028-.03-.038c-3.022-3.906-6.044-7.812-9.064-11.72l-4.067-5.26-.042-.054c-6.599-8.537-13.2-17.074-19.77-25.633-.685-.896-1.246-1.228-2.291-.624-3.367 1.949-6.74 3.884-10.113 5.819a3405.354 3405.354 0 0 0-8.43 4.845c-5.491 3.166-10.977 6.339-16.464 9.511l-.006.004-.007.003c-4.196 2.427-8.392 4.853-12.59 7.276l-2.894 1.672-.039.023h-.001c-4.594 2.654-9.187 5.308-13.81 7.91-1.39.783-1.538 1.463-.47 2.643.628.692 1.177 1.453 1.727 2.214h.001c.299.415.599.829.911 1.233 3.342 4.322 6.685 8.642 10.028 12.961l.009.013.009.012c5.724 7.396 11.447 14.792 17.162 22.194 6.766 8.764 13.524 17.533 20.283 26.302l.008.01c4.127 5.356 8.254 10.711 12.384 16.066l13.798 17.887 13.799 17.887a2345.58 2345.58 0 0 1 3.613 4.704v.001h.001c2.322 3.029 4.643 6.057 6.992 9.062.076.096.149.2.222.304l.001.001c.441.628.903 1.286 2.11.583 7.83-4.568 15.693-9.082 23.558-13.595l.003-.002 6.721-3.859 6.635-3.811.048-.027.048-.028c4.994-2.867 9.987-5.734 14.974-8.608 3.362-1.938 6.715-3.888 10.175-5.9l.012-.007zm-26.706-44.764 32.096 41.599c-.338.211-.656.424-.964.631h-.001l-.002.002c-.736.493-1.411.946-2.153 1.223-.488.182-1.492-.128-1.829-.556-5.369-6.83-10.678-13.71-15.983-20.589-4.164-5.399-8.323-10.803-12.482-16.206l-.091-.118-.061-.08c-3.068-3.985-6.135-7.971-9.204-11.954a47959.61 47959.61 0 0 0-18.893-24.494l-.044-.057-4.404-5.708c-6.865-8.898-13.734-17.792-20.603-26.686-1.614-2.089-3.226-4.18-4.837-6.271l-.002-.002c-4.788-6.212-9.575-12.423-14.428-18.585-1.208-1.534-1.299-2.653.102-3.961.329-.309.617-.664.964-1.093h.001l.001-.002c.176-.218.367-.453.587-.712 24.098 31.237 48.145 62.403 72.23 93.619m-76.323-91.669-68.479 39.452c1.845.488 67.929-37.758 68.479-39.452m4.116 377.932c0 .682.001 1.363.003 2.044v.001c.005 2.042.01 4.083-.03 6.124-.005.3-.176.599-.346.897a5.106 5.106 0 0 0-.218.411 5.102 5.102 0 0 0-.417-.215c-.307-.147-.613-.294-.799-.534-4.857-6.209-9.697-12.434-14.537-18.658l-4.676-6.014-2.288-2.939-.02-.026c-6.986-8.976-13.973-17.954-20.973-26.919a9521.655 9521.655 0 0 0-10.732-13.712l-.016-.02c-4.238-5.409-8.476-10.818-12.702-16.236a1824.26 1824.26 0 0 1-13.701-17.743c-.995-1.308-2.003-1.701-3.684-1.437-7.23 1.141-14.469 2.214-21.709 3.286h-.002l-.016.002c-3.329.494-6.658.987-9.986 1.486-14.594 2.193-29.184 4.385-43.77 6.619-1.33.204-1.962.03-1.947-1.493.061-5.216.114-10.437 0-15.653-.038-1.656.636-2.056 2.068-2.257a8081.277 8081.277 0 0 0 27.679-3.949l8.025-1.154c11.959-1.716 23.913-3.432 35.871-5.152.659-.094 1.318-.197 1.976-.299v-.001c1.582-.246 3.163-.492 4.753-.626.652-.057 1.606.321 2.003.828 10.145 13.026 20.24 26.093 30.332 39.164a60160.546 60160.546 0 0 1 26.946 34.95l7.539 9.783 2.372 3.077c4.02 5.213 8.039 10.425 12.013 15.672.519.684.856 1.663.89 2.517.082 1.961.068 3.924.053 5.888-.006.761-.011 1.523-.011 2.285h.064zm-1.863-.234.225-.109.097-.046.124-.06c0-.674.01-1.349.02-2.023v-.001c.023-1.64.047-3.28-.069-4.909-.076-1.077-.454-2.294-1.094-3.145-2.981-3.947-6.014-7.854-9.046-11.761l-.001-.001a2221.761 2221.761 0 0 1-4.634-5.985c-5.393-6.995-10.78-13.993-16.168-20.992a33372.118 33372.118 0 0 0-26.706-34.656 15159.534 15159.534 0 0 1-21.076-27.353c-.912-1.187-1.821-1.663-3.37-1.429-8.154 1.233-16.316 2.412-24.478 3.591l-.058.008a18676.202 18676.202 0 0 0-17.577 2.55 7270.314 7270.314 0 0 1-30.159 4.348c-1.318.185-1.81.658-1.772 1.966.048 1.632.038 3.267.027 4.9v.001c-.004.685-.008 1.37-.008 2.054v6.078a96.8 96.8 0 0 1 1.46-.131h.001c.919-.079 1.754-.15 2.583-.273 8.298-1.239 16.596-2.484 24.894-3.729l.105-.016 14.977-2.247 4.261-.637h.001c9.78-1.464 19.558-2.928 29.348-4.311.689-.098 1.746.514 2.223 1.115 7.98 10.167 15.921 20.365 23.862 30.562l.003.003 5.217 6.699c13.923 17.868 27.847 35.732 41.774 53.596 1.075 1.377 2.161 2.744 3.246 4.111l.001.001c.59.742 1.179 1.484 1.767 2.227zm-30.99-33.063a1096621.59 1096621.59 0 0 1-48.574-62.304c1.941-1.692 2.13-1.691 3.429-.021 3.829 4.918 7.656 9.838 11.482 14.757a20181.2 20181.2 0 0 0 21.284 27.333 20251.82 20251.82 0 0 0 20.61 26.351l.012.015c4.011 5.122 8.022 10.244 12.03 15.369.839 1.073 1.684 2.142 2.529 3.211 2.603 3.293 5.207 6.587 7.642 10 .626.873.837 2.041 1.048 3.209.097.536.194 1.073.331 1.58l-.761.341zm-128.278-52.675.399.179.4.18c.144-.232.325-.463.506-.693.387-.494.774-.987.789-1.492.125-4.169.088-8.35.016-12.523-.006-.294-.291-.584-.576-.875-.133-.135-.266-.27-.371-.406-.122.148-.275.294-.428.441h-.001c-.331.318-.662.635-.681.969-.089 1.659-.075 3.323-.062 4.986.005.598.009 1.197.009 1.795zm-39.585-249.035c.089.051.17.097.219.134l-.004.003c.156-.026.294-.051.42-.073.335-.059.583-.103.834-.138 11.78-1.716 23.56-3.433 35.341-5.141 8.565-1.24 17.131-2.476 25.696-3.704l10.263-1.472c10.495-1.503 20.989-3.007 31.481-4.524.674-.098 1.382-.287 1.966-.619 7.334-4.194 14.656-8.41 21.98-12.626l3.36-1.935c2.75-1.583 5.499-3.168 8.247-4.754a7912.76 7912.76 0 0 1 13.303-7.66c2.994-1.718 5.991-3.434 8.988-5.15a5368.326 5368.326 0 0 0 16.807-9.648c.246-.144.397-.453.548-.762a4.44 4.44 0 0 1 .224-.421 4.535 4.535 0 0 1-.421-.167c-.307-.132-.614-.265-.897-.227a5596.806 5596.806 0 0 0-32.595 4.62c-5.085.74-10.166 1.505-15.248 2.268-5.311.799-10.623 1.597-15.939 2.37-7.97 1.157-15.943 2.293-23.915 3.43-5.364.765-10.728 1.53-16.091 2.3-.508.072-1.049.19-1.489.439-8.778 5.034-17.551 10.09-26.319 15.142l-1.562.9-9.59 5.531c-6.394 3.689-12.788 7.378-19.185 11.059-2.237 1.288-4.478 2.568-6.719 3.849a1925.504 1925.504 0 0 0-9.571 5.496c-.322.189-.575.684-.625 1.066-.016.124.267.286.493.414m174.394-56.918.125.503-3.069 1.78c-1.672.968-3.343 1.937-5.015 2.903a527.2 527.2 0 0 1-3.865 2.208c-2.998 1.702-5.994 3.403-8.911 5.231-2.325 1.456-4.851 1.826-7.426 2.197-7.674 1.105-15.349 2.204-23.023 3.303-7.675 1.1-15.349 2.198-23.023 3.304-1.699.245-3.4.48-5.102.715-5.204.72-10.41 1.438-15.558 2.441-1.971.382-3.825 1.493-5.64 2.582-.448.268-.894.535-1.339.79a6028.408 6028.408 0 0 0-16.727 9.621c-6.985 4.026-13.969 8.053-20.973 12.046a14.154 14.154 0 0 1-4.699 1.648c-6.478 1.027-12.97 1.966-19.464 2.906l-4.831.7c-.371.053-.758.008-1.284-.348.545-.32 1.089-.641 1.633-.963 1.159-.685 2.318-1.37 3.483-2.042 13.613-7.851 27.23-15.702 40.847-23.545a7353.023 7353.023 0 0 1 22.625-12.996 5.257 5.257 0 0 1 1.791-.601c11.87-1.72 23.741-3.43 35.613-5.142 10.439-1.505 20.879-3.01 31.316-4.52 6.529-.945 13.056-1.911 19.583-2.877 3.759-.557 7.519-1.114 11.279-1.666.393-.057.788-.095 1.184-.132l.47-.046m-136.918 49.983-.06-.204h-.008c1.113-.644 2.225-1.29 3.337-1.935 1.669-.968 3.337-1.936 5.009-2.9 2.836-1.636 5.674-3.268 8.511-4.901a4375.366 4375.366 0 0 0 20.419-11.799c2.484-1.448 5.01-2.513 7.907-2.922 15.399-2.168 30.792-4.388 46.186-6.608 5.534-.798 11.069-1.596 16.604-2.392.194-.027.392-.044.59-.061l.239-.022.103.2.102.2-1.448.856c-.897.531-1.794 1.062-2.695 1.583l-.003.001a17206.416 17206.416 0 0 1-36.175 20.815 6.59 6.59 0 0 1-2.283.768c-5.173.748-10.346 1.481-15.52 2.215-5.173.733-10.347 1.466-15.519 2.215-7.421 1.072-14.839 2.168-22.257 3.264-3.67.542-7.34 1.084-11.009 1.623-.448.065-.899.107-1.351.149-.206.019-.412.038-.618.059z" clip-rule="evenodd"/>
</svg>
