<svg xmlns="http://www.w3.org/2000/svg" viewBox="0 0 72 72">
    <g data-name="Calque 2">
        <g data-name="Calque 1">
            <path fill="#eef" fill-rule="evenodd" d="M36.08 0a77 77 0 0 0-12.91 1.1C11.48 3.08 4 9.65 1.55 21.43a69.7 69.7 0 0 0-.24 28.05c2.31 12 9.57 19.25 21.61 21.38a75 75 0 0 0 13 1.14 77 77 0 0 0 12.91-1.1c11.65-2 19.34-9.2 21.8-20.9a72 72 0 0 0 0-27.82c-2.31-12-9.54-18.91-21.58-21A75 75 0 0 0 36.08 0"/>
            <path fill="#2e3192" fill-rule="evenodd" d="M70.66 22.18c-2.31-12-9.54-18.91-21.58-21C48.46 1 47.84 1 47.22.85A39.73 39.73 0 0 1 62 22c.28 1 5.22 20.18-7 34-10.87 12.29-30.91 15.38-48 6.17 3.73 4.53 9.06 7.47 16 8.69A75 75 0 0 0 36 72a77 77 0 0 0 12.91-1.1c11.65-2 19.34-9.2 21.8-20.9a72 72 0 0 0-.05-27.82" opacity=".06"/>
            <path fill="#4f0599" d="M23.64 25.86a4.86 4.86 0 1 0-4.86 4.85 4.87 4.87 0 0 0 4.86-4.85M50.14 21A4.86 4.86 0 1 0 55 25.86 4.86 4.86 0 0 0 50.14 21"/>
            <path fill="none" stroke="#4f0599" stroke-linecap="round" stroke-miterlimit="10" stroke-width="2.51" d="M24 44h22"/>
            <path fill="none" stroke="#1b1464" stroke-linecap="round" stroke-miterlimit="10" stroke-width="2" d="M32 50h6" opacity=".31"/>
        </g>
    </g>
</svg>
