<svg xmlns="http://www.w3.org/2000/svg" width="550" height="550" fill="none" viewBox="0 0 550 550">
    <path fill="#fff" d="M303.656 34.75c13.004 0 23.602 10.286 24.119 23.163L457 84.907c3.814-7.086 11.06-12.056 19.522-12.662l-.066-.067h1.811c13.333 0 24.146 10.808 24.146 24.146 0 10.859-7.17 20.037-17.034 23.073l4.195 158.083v.003l.01-.004.015.597c10.794 2.411 18.862 12.041 18.862 23.562-.001 13.333-10.808 24.146-24.147 24.146a24 24 0 0 1-13.357-4.038L330.266 455.312a24 24 0 0 1 1.525 8.44c0 13.334-10.813 24.146-24.146 24.146-13.338 0-24.147-10.977-24.147-24.146 0-12.925 10.152-23.47 22.916-24.11l1.495-79.872c-4.762 1.071-9.5 1.61-14.155 1.61-9.089 0-17.866-2.046-25.93-6.148l-.005-.003q-.375-.195-.745-.394c-8.33 6.622-17.181 11.965-26.153 15.768l4.368 96.523c11.996 1.41 21.303 11.606 21.303 23.978-.001 13.334-10.813 24.147-24.147 24.147s-24.146-10.808-24.146-24.147c0-1.049.07-2.083.2-3.095L87.481 470.533c-2.934 10.033-12.195 17.362-23.176 17.362-13.334 0-24.147-10.809-24.147-24.147 0-11.496 8.03-21.109 18.791-23.548V287.063c-10.754-2.436-18.787-12.051-18.787-23.544 0-13.334 10.808-24.147 24.147-24.147 4.695 0 9.08 1.346 12.788 3.666L217.53 100.636v-.001l.001-.002a24 24 0 0 1-2.837-11.348c0-13.332 10.806-24.143 24.142-24.145l.005-.001c13.331.002 24.141 10.81 24.141 24.146 0 11.259-7.706 20.707-18.13 23.382l6.087 115.581a77 77 0 0 1 6.589-1.488c9.112-11.766 20.285-21.231 32.66-27.495l1.209-.601a82 82 0 0 1 6.899-2.975V82.441c-10.754-2.436-18.787-12.05-18.787-23.544 0-13.337 10.939-24.147 24.146-24.147m-58.232 435.349.006.276a5.36 5.36 0 0 1-4.406 5.237v.082h-.962a5.36 5.36 0 0 1-5.349-5.118l-.034-.748a22.7 22.7 0 0 0-10.652 8.107l.394.052.075.01h.001l.047.006c.541.068.849.485 1.01.798l.696.7h-.445q.071.283.117.59c.138.941.131 2.172-.036 3.482l.001.001c-.165 1.306-.465 2.498-.831 3.373-.181.433-.395.829-.646 1.125-.225.266-.626.617-1.176.566h-.017l-.013-.001-.013-.002-3.206-.428a23 23 0 0 0-.186 2.897c0 12.51 10.141 22.647 22.646 22.647s22.646-10.141 22.647-22.647c0-11.518-8.602-21.028-19.735-22.458zm-157.092-8.753c.079.787.124 1.585.124 2.397 0 1.832-.21 3.613-.597 5.326l130.863 17.457h.001l4.507.599.026-.024c.111-.132.255-.373.407-.737.301-.719.574-1.77.727-2.978.153-1.215.15-2.306.038-3.078-.057-.392-.137-.659-.211-.811l-.013-.021-1.581-.212zm218.054-20.2c-11.922.652-21.388 10.52-21.388 22.606 0 12.347 10.144 22.646 22.647 22.646 12.505 0 22.646-10.141 22.646-22.646 0-2.958-.571-5.777-1.602-8.364l-.053-.134v-.002a22.7 22.7 0 0 0-4.917-7.454 22.7 22.7 0 0 0-6.654-4.64l-.042 2.292q-.01.45-.089.878-.016.089-.035.176l-.012.054a5.36 5.36 0 0 1-4.948 4.147l-.271.007h-.101a5.356 5.356 0 0 1-5.257-5.462zm-247.44.595c-9.924 2.409-17.288 11.347-17.288 22.007 0 12.51 10.141 22.647 22.647 22.647 10.345 0 19.068-6.936 21.777-16.416l.123-.467a22.6 22.6 0 0 0 .522-8.934l-.002-.015a22.5 22.5 0 0 0-3.024-8.512l-.03-.05a22.8 22.8 0 0 0-6.047-6.563l-.073-.054a22.6 22.6 0 0 0-7.883-3.64v3.609a5.36 5.36 0 0 1-5.332 5.358l-.027.001-.002-.001-.002.001a5.36 5.36 0 0 1-5.36-5.359zm26.318 10.008a24 24 0 0 1 2.699 7.174l.049-.048.128.933 134.214 17.907a24.2 24.2 0 0 1 12.256-9.455l-4.249-93.913c-6.62 1.881-12.986 2.815-18.982 2.815-11.931 0-22.38-3.698-30.354-10.984l-.641-.599a41 41 0 0 1-1.309-1.314zm154.183-80.52a89 89 0 0 1-7.603 2.691l4.293 94.842.078 1.747a3.86 3.86 0 0 0 2.727 3.517l.079.023q.142.04.289.069.362.074.745.075l.185-.007a3.86 3.86 0 0 0 3.686-3.831l-.004-.198-.145-3.177h.002zm224.935-55.955-139.06 132.022a24.2 24.2 0 0 1 4.338 6.521L469.7 320.872l-.011-.007 1.279-1.213-.004-.037c-.03-.169-.124-.432-.307-.781-.362-.69-.999-1.571-1.833-2.46-.838-.893-1.679-1.587-2.345-1.992-.338-.205-.595-.313-.759-.353l-.025-.005zm-279.402 35.85a3.85 3.85 0 0 0-5.293-.03L79.228 444.771a24.2 24.2 0 0 1 5.232 5.676l93.593-87.28 6.901-6.437.083-.081a3.853 3.853 0 0 0 .097-5.361zm-116.812-63.77a24 24 0 0 1-3.033.294q-.154.007-.31.01-.258.007-.516.007l-.492-.006-.026-.001-.31-.01a19 19 0 0 1-.726-.035 24 24 0 0 1-2.306-.259v157.999a3.86 3.86 0 0 0 3.858 3.858h.021a4 4 0 0 0 .71-.069l.059-.012a3.86 3.86 0 0 0 3.067-3.777v-5.46h.004zm249.006 69.666a74 74 0 0 1-7.76 2.391l-1.498 80.189-.014.726-.092 4.949a3.865 3.865 0 0 0 3.786 3.933h.073a3.857 3.857 0 0 0 3.854-3.786zm59.25-64.906a114 114 0 0 1-6.543 15.628c-10.496 20.63-26.565 37.013-45.267 46.109l-.001.001a83 83 0 0 1-5.594 2.462l-.333.13-1.59 85.088a24.2 24.2 0 0 1 7.166 4.701l139.31-132.261a24.03 24.03 0 0 1-3.39-12.643zm-288.86-22.089c-2.368 8.484-9.248 15.079-17.895 17.038v153.138a24 24 0 0 1 8.333 3.665l94.73-88.339c-5.539-10.262-7.043-23.282-4.272-37.857 1.698-8.926 4.941-18.022 9.503-26.898zM281.05 228.62c-6.913-1.732-14.663-1.894-22.975-.434a76 76 0 0 0-7.055 1.594l.29 5.491h-.063a5.3 5.3 0 0 1-.618 2.036l-.048.084a5.5 5.5 0 0 1-.441.663l-.046.056-.089.11-.064.073a5 5 0 0 1-.178.194l-.085.087-.048.047-.137.127-.078.069q-.055.048-.109.092l-.08.065-.11.084-.086.062a5.4 5.4 0 0 1-.738.445q-.067.034-.136.064l-.103.047-.127.053q-.045.017-.088.036l-.167.06-.063.021-.162.051-.091.026-.146.039-.086.02a4 4 0 0 1-.205.044 5 5 0 0 1-.722.088l.001.001h-.006l-.016.001h-.021l-.08.001-.107.002-.057.002-.001-.001v.001a5.36 5.36 0 0 1-5.328-4.809l-.02-.267-.085-1.6c-14.78 6.182-29.289 16.638-41.663 30.178a133.3 133.3 0 0 0-13.71 17.783l1.22.28h.002c2.881.664 4.689 3.535 4.024 6.42a5.366 5.366 0 0 1-6.427 4.035h-.002l-4.449-1.022c-4.598 8.873-7.85 17.951-9.539 26.831-2.692 14.159-1.255 26.684 3.931 36.52l4.803-4.478a5.36 5.36 0 0 1 7.761.474l.301.323-.031.029a5.354 5.354 0 0 1-.213 6.463l-.019.024-.138.161a6 6 0 0 1-.359.371l-5.797 5.405q.61.642 1.248 1.253l.614.571.001.002c7.66 7.001 17.732 10.594 29.344 10.594 5.871 0 12.133-.919 18.673-2.786l.399-.118.407-.121a90 90 0 0 0 9.003-3.213l.856-.362c8.527-3.658 16.955-8.737 24.925-15.007a56.2 56.2 0 0 1-12.441-9.548c-14.14 10.299-29.223 16.072-41.764 16.072-7.34 0-13.85-1.98-18.759-6.223l-.47-.418c-7.627-6.967-10.175-18.816-7.449-33.161 1.275-6.71 3.625-13.57 6.913-20.351 4.466-9.218 10.669-18.292 18.292-26.633 10.619-11.62 22.866-20.4 34.762-25.709l.794-.35.377-.162 2.523-1.124-.159.157c7.24-2.826 14.288-4.33 20.687-4.33.072 0 .144.002.207.003l.18.002h.008q.417.004.83.018h.57l-.014.019c6.839.307 12.879 2.419 17.444 6.594 8.334 7.615 10.279 20.683 7.012 35.205-1.367 6.076-3.654 12.439-6.793 18.822-4.382 8.913-10.428 17.863-17.971 26.119h-.001c-.718.785-1.45 1.552-2.183 2.309a36.1 36.1 0 0 0 8.606 6.135l.608.302a36 36 0 0 0 3.933 1.62l.183-.197a137 137 0 0 0 5.891-6.892l.407-.513c11.649-14.734 19.555-31.094 22.565-46.852l.012-.065c3.725-19.602-.443-36.077-11.563-46.629l-.028-.026-.508-.463c-4.66-4.257-10.214-7.253-16.455-8.947q-.285-.077-.571-.151zm66.457-30c-11.693-5.949-24.947-7.457-38.492-4.539v4.134a5.36 5.36 0 0 1-7.758 4.792 5.36 5.36 0 0 1-2.962-4.793v-.919a80 80 0 0 0-6.241 2.719c-12.176 5.921-23.238 15-32.333 26.384l.387-.055.195-.028c5.516-.769 10.795-.823 15.751-.168l.135.02.505.07.079.012.164.024.48.075.353.058.297.05.384.069.323.061.328.063.315.064q.188.038.374.078l.272.058q.238.052.474.107l.138.031q.24.056.48.116l.205.05.386.098.128.032c5.394-4.955 11.302-9.053 17.56-12.097 7.715-3.753 15.459-5.649 22.811-5.649 6.242 0 12.199 1.366 17.607 4.119l.549.286c11.49 6.091 19.266 17.921 22.01 33.289v.001c1.231 6.899 1.397 14.138.545 21.47-1.193 10.276-4.389 20.738-9.462 30.707-8.691 17.081-21.795 30.559-36.924 37.918h-.001c-11.84 5.758-23.752 7.143-34.208 4.01l-1.007-.317a48 48 0 0 1-.728-.249l-.393-.13.007-.008a37 37 0 0 1-3.456-1.463l-.633-.315a37.5 37.5 0 0 1-8.972-6.397l-.002.003-.289-.288-.25-.244c-6.58-6.562-11.088-15.708-13.041-26.649-2.96-16.564.224-35.088 8.915-52.169q.339-.665.686-1.322l.204-.383q.243-.456.491-.909.101-.184.204-.367.268-.486.543-.969l.15-.265q.31-.541.626-1.078l.097-.163a92 92 0 0 1 .764-1.268 94 94 0 0 1 1.637-2.579c-6.84.174-14.483 2.082-22.332 5.55a113 113 0 0 0-2.701 6.345l-.055.142a110 110 0 0 0-3.86 11.898 105 105 0 0 0-2.451 12.403q-.088.654-.166 1.309l-.064.533a100 100 0 0 0-.426 4.696 99 99 0 0 0-.115 2.094l-.023.538c-.248 6.436.168 12.785 1.266 18.931 2.463 13.784 8.127 25.477 16.381 34.269l.006-.003.456.474a54.7 54.7 0 0 0 13.528 10.285l.996.539-.004.002.158.084h-.001c7.846 3.991 16.388 5.983 25.246 5.983 4.619 0 9.328-.545 14.07-1.63l.674-.16a73 73 0 0 0 9.179-2.865l.653-.251.135-.053a82 82 0 0 0 5.493-2.419l.859-.424c18.009-9.017 33.523-24.961 43.727-45.016a112 112 0 0 0 6.472-15.466l.172-.528a106 106 0 0 0 2.509-8.933l.103-.442c2.911-12.671 3.37-25.436 1.229-37.421l-.011-.065v-.003c-2.01-11.193-6.127-21.008-12.032-29.002a57 57 0 0 0-5.987-6.883 54.8 54.8 0 0 0-13.491-9.699m-104.005 51.691c-11.118 5.28-22.494 13.625-32.44 24.508-10.305 11.281-17.955 23.873-22.178 36.287a88 88 0 0 0-.501 1.523q-.151.474-.295.947l-.066.218a72 72 0 0 0-1.784 7.249c-2.68 14.079-.098 25.297 6.988 31.774 4.617 4.222 10.914 6.247 18.216 6.247 12.074 0 26.78-5.555 40.704-15.655l-.088-.097a50 50 0 0 1-.542-.594l-.2-.221a66 66 0 0 1-.549-.625l-.245-.281a70 70 0 0 1-.497-.589l-.274-.33a47 47 0 0 1-.485-.599l-.209-.261a73 73 0 0 1-1.187-1.551 57 57 0 0 1-.775-1.071l-.157-.221a65 65 0 0 1-.689-1.005q-.211-.315-.419-.634a46 46 0 0 1-.609-.951l-.319-.512q-.164-.267-.327-.537-.15-.25-.297-.5a63 63 0 0 1-.583-1.011l-.315-.562q-.143-.261-.284-.524l-.283-.527a61 61 0 0 1-.563-1.092 75 75 0 0 1-.566-1.148q-.138-.288-.274-.578l-.214-.457q-.151-.33-.299-.661l-.21-.473q-.137-.315-.272-.632-.116-.27-.229-.541-.145-.348-.287-.698l-.153-.379a70 70 0 0 1-.812-2.148l-.078-.211a80 80 0 0 1-.302-.866q-.066-.188-.13-.378a83 83 0 0 1-.292-.885l-.1-.308a76 76 0 0 1-1.086-3.728 82 82 0 0 1-1.437-6.51 87 87 0 0 1-1.259-11.352l-.022-.482-.035-.994-.006-.215q-.01-.353-.016-.705l-.004-.203-.011-.751-.001-.128-.004-.361v-.497l.001-.113q.004-1.782.075-3.573l.006-.175.035-.734.01-.229.043-.773.013-.213.046-.692.014-.197.046-.626.03-.374.038-.456.039-.449a100 100 0 0 1 .771-6.287q.455-2.944 1.083-5.886l.084-.386.133-.601.111-.49.106-.455.126-.532.071-.299q.182-.75.374-1.499l.116-.449.1-.376.156-.583.074-.268.183-.659.129-.456.109-.381.141-.479q.089-.303.18-.605l.074-.244q.101-.337.206-.673l.109-.348.212-.667.107-.328a46 46 0 0 1 .264-.808l.262-.774.053-.158.213-.612.099-.286q.147-.415.297-.829l.054-.148.232-.634.135-.364a115 115 0 0 1 2.591-6.346m78.741-39.266c-7.098 0-14.615 1.829-22.156 5.497-5.847 2.844-11.396 6.636-16.501 11.216 5.652 1.72 10.742 4.506 15.119 8.333l.012-.016.645.589c12.019 10.979 16.415 28.259 12.561 48.515-3.554 18.682-13.852 38.11-28.975 54.757l.942.262c9.766 2.592 20.871 1.196 32.026-4.228 14.798-7.197 27.678-20.416 36.243-37.249 3.906-7.677 6.676-15.637 8.259-23.562q.093-.468.181-.935a82 82 0 0 0 1.068-7.629c.596-6.529.361-12.953-.735-19.091-2.687-15.021-10.244-26.404-21.237-32.23l-.526-.273c-5.18-2.639-10.907-3.956-16.926-3.956m-52.52 32.757a95 95 0 0 0-5.173 8.639l-.699 1.347c-8.566 16.834-11.665 35.028-8.776 51.226 1.855 10.388 6.05 19.03 12.086 25.301q.323-.331.644-.665a103 103 0 0 0 1.514-1.619l.001-.001c6.815-7.458 12.383-15.478 16.583-23.502 3.68-7.032 6.31-14.066 7.809-20.726 3.217-14.298 1.192-26.685-6.561-33.769-4.451-4.068-10.462-6.092-17.428-6.231m219.964 37.691v.277a5.35 5.35 0 0 1-2.32 4.281 5.33 5.33 0 0 1-2.905.946h-.144a5.356 5.356 0 0 1-5.354-5.215l-.059-2.142c-6.317 1.549-11.593 5.751-14.582 11.359l3.294.362-.032-.032 2.16.266.004.001q.303.038.571.149c.774.318 1.323 1.049 1.658 1.848.37.885.544 1.99.487 3.163l-.039.506c-.142 1.368-.578 2.613-1.206 3.517-.598.862-1.487 1.559-2.552 1.479h-.058l-.041-.005-6.892-.759v.144c0 3.848.965 7.468 2.66 10.641l.349.629.088-.083.054-.046.022-.019c.402-.317.902-.272 1.224-.195.378.091.785.287 1.187.531.745.452 1.6 1.155 2.433 2.01h.021l.222.238c.899.961 1.625 1.951 2.066 2.792.218.415.387.833.455 1.215.062.345.078.885-.321 1.277l-.009.009-.054.05a22.5 22.5 0 0 0 12.239 3.597c12.51 0 22.646-10.141 22.647-22.646 0-10.672-7.383-19.619-17.321-22.014zm-110.683 1.63a109 109 0 0 1-2.107 7.534l84.622 9.311 7.214.79.037.004c.298.024.748-.166 1.217-.841.459-.66.826-1.65.947-2.814.118-1.157-.035-2.196-.344-2.935-.311-.744-.702-1.031-.998-1.081l-.013-.001zM465.1 117.975v-.008l-96.53 96.864c5.865 8.118 9.937 17.992 11.936 29.173l.012.065v.008c2.143 12.062 1.7 24.873-1.169 37.575l83.377 9.173c3.179-6.341 9.066-11.089 16.149-12.721l-4.193-157.906a24 24 0 0 1-8.714-3.096zm-376.803 142.8q.033.292.06.586.004.052.01.103.05.602.072 1.212l.007.22q.006.22.007.443l.003.181q-.001.714-.044 1.418l-.015.211a25 25 0 0 1-.1 1.112l-.038.319-.053.383-.046.311-.046.276q-.033.196-.068.39-.059.317-.125.629l90.757 20.828.004-.005 5.578 1.28q.442.099.87.098a3.865 3.865 0 0 0 3.755-2.994l.039-.194a3.86 3.86 0 0 0-2.937-4.43l-2.258-.515-95.436-21.9zm-23.988-19.903c-12.51 0-22.647 10.141-22.647 22.647 0 10.978 7.816 20.133 18.184 22.204l.002.001q.27.054.543.101a22.7 22.7 0 0 0 7.836 0q.272-.047.542-.101l.001-.001c8.6-1.718 15.442-8.307 17.525-16.77a22.7 22.7 0 0 0 .433-8.625l-.068-.446a22.6 22.6 0 0 0-3.04-8.193l-.623.633v-1.593a22.8 22.8 0 0 0-6.206-6.105 22.54 22.54 0 0 0-12.482-3.752M483.89 119.81c-1.803.43-3.683.666-5.618.666a24 24 0 0 1-2.084-.096l4.287 161.357v.002a3.855 3.855 0 0 0 3.854 3.754h.105a3.846 3.846 0 0 0 3.745-3.955l-.058-2.233-1.577-.309 1.549-.775zM84.704 250.59a24 24 0 0 1 3.348 8.552l95.496 21.914c4.068-6.39 8.81-12.589 14.159-18.445 12.639-13.83 27.51-24.505 42.687-30.754l-6.259-118.893a24.1 24.1 0 0 1-9.561-4.203zm-6.337-6.704a24.3 24.3 0 0 1 5.479 5.439L222.71 108.514h-.002l.664-.675-.002-.002.014-.015a24.3 24.3 0 0 1-4.386-4.798l-.041-.058a24 24 0 0 1-.646-.986zm165.001-130.889q-1.023.195-2.075.305l-.237.024q-.171.016-.342.029-.158.013-.317.023-.146.01-.293.018-.195.01-.39.017l-.235.009q-.319.01-.639.01l-.002-.001-.001.001q-.384-.002-.765-.015l-.078-.002a24 24 0 0 1-.759-.039l-.026-.002q-.382-.027-.76-.065l-.024-.003a28 28 0 0 1-.776-.091l6.216 118.041h.002l.194 3.711a3.86 3.86 0 0 0 3.951 3.651l.107-.002a3.85 3.85 0 0 0 3.014-1.725l.047-.076.086-.143c.353-.62.54-1.345.5-2.11l-.041-.791-.271-5.108.005-.002zm215.691-2.024-.001-.002-96.474 96.806.182.186.201.205a59 59 0 0 1 2.956 3.264l.218.262q.248.3.493.602l.209.26q.279.35.553.705.068.086.135.174l.137.176 96.986-97.324-.003-.002.014-.014a28 28 0 0 1-.482-.34l-.088-.064-.36-.266-.084-.064a24 24 0 0 1-2.071-1.771l-.141-.137-.293-.29-.065-.067a26 26 0 0 1-.325-.336l-.083-.088a17 17 0 0 1-.257-.279l-.126-.137a21 21 0 0 1-.311-.356l-.115-.134-.253-.302-.132-.163-.186-.235-.159-.204-.063-.079zm-133.232-42.52c-3.016 6.988-9.234 12.266-16.811 13.986v110.109c13.746-2.894 27.239-1.337 39.172 4.735l.959.5a56.3 56.3 0 0 1 12.363 8.947l96.67-97.002.007-.008a24 24 0 0 1-4.062-13.39c0-.362.013-.718.03-1.07zm-18.311 14.28q-.938.15-1.898.229l-.015.002a25 25 0 0 1-1.257.067l-.116.004a24 24 0 0 1-1.149 0q-.058-.001-.115-.004a23 23 0 0 1-1.257-.067l-.016-.002a24 24 0 0 1-1.896-.23v115.483a3.856 3.856 0 0 0 3.858 3.858c2.13 0 3.86-1.729 3.86-3.859v-5.338l.001-.001zm170.755-9.05c-8.471 0-15.849 4.655-19.734 11.544l5.112 1.067v-.001l.905.19a5.357 5.357 0 0 1 .697 10.293 5.3 5.3 0 0 1-1.792.312l-.001-.001h-.001q-.411 0-.822-.063l-.274-.048h-.002l-6.718-1.404q-.016.379-.016.757c0 4.541 1.343 8.763 3.643 12.307l.176-.178v-.004l.22-.22q.04-.039.08-.073l.442-.457.197.196c.21-.023.412 0 .572.033.381.078.795.261 1.204.492.724.409 1.557 1.042 2.38 1.818l.135.131h.004l.116.116.097.094c.568.568 1.071 1.15 1.484 1.705.266.356.494.701.678 1.024.231.408.413.82.493 1.2.033.157.055.354.035.56l.204.203-.316.317v.005l-.22.218-.009.008-.172.18a22.5 22.5 0 0 0 8.432 2.792l.687.075q1.03.099 2.08.1c2.127 0 4.184-.299 6.139-.848l.445-.13c9.297-2.821 16.062-11.455 16.062-21.669 0-12.388-9.944-22.446-22.281-22.641zm-239.432-7.044c-12.509.001-22.644 10.142-22.644 22.646 0 3.684.886 7.161 2.45 10.236l.791-.79v.965l.015.003c.381.078.795.26 1.204.49.828.468 1.798 1.229 2.733 2.164.93.93 1.687 1.895 2.155 2.721.231.409.414.821.494 1.201.073.345.104.883-.282 1.287l-.116.117a22.54 22.54 0 0 0 9.328 3.915l.012.003c1.256.214 2.546.334 3.859.334 1.738 0 3.433-.205 5.063-.576 10.07-2.302 17.582-11.306 17.582-22.07 0-12.51-10.139-22.645-22.644-22.646m-19.119 34.76a22.8 22.8 0 0 0 4.722 5.35l.127-.126q-.001-.015-.005-.035c-.035-.167-.136-.427-.331-.771-.384-.678-1.048-1.537-1.911-2.4-.867-.865-1.73-1.531-2.409-1.915q-.101-.056-.193-.103m108.082-41.948a24.1 24.1 0 0 1-1.41 7.588l136.271 28.467c.27.055.538.08.794.08a3.83 3.83 0 0 0 1.88-.49 3.86 3.86 0 0 0 1.894-2.581 3.85 3.85 0 0 0-.996-3.464l-.028-.03a3.85 3.85 0 0 0-1.791-1.031l-.17-.035zM303.656 36.25c-12.383 0-22.646 10.144-22.646 22.647 0 10.978 7.816 20.133 18.183 22.204h.002c1.44.29 2.935.442 4.461.442s3.021-.152 4.461-.441l.014-.003c7.55-1.516 13.743-6.787 16.548-13.784l.19-.49a22.6 22.6 0 0 0 1.434-7.928c0-.046-.002-.093-.004-.157-.002-.059-.006-.134-.006-.213h.001c-.198-12.335-10.257-22.277-22.638-22.277"/>
</svg>
