<svg xmlns="http://www.w3.org/2000/svg" viewBox="0 0 72 72">
    <path fill="#f0f0f0" d="M36.1 0c-4.3 0-8.6.4-12.9 1.1C11.5 3.1 4 9.6 1.5 21.4c-2 9.2-2.1 18.8-.2 28 2.3 12 9.6 19.2 21.6 21.4 4.3.8 8.6 1.1 13 1.1 4.3 0 8.6-.4 12.9-1.1 11.6-2 19.3-9.2 21.8-20.9 1.8-9.2 1.8-18.6 0-27.8-2.3-12-9.5-18.9-21.6-21C44.8.4 40.4 0 36.1 0"/>
    <path fill="#3b3b3b" d="M70.7 22.2c-2.3-12-9.5-18.9-21.6-21-.6-.2-1.3-.2-1.9-.3C54.4 6.1 59.6 13.5 62 22c.3 1 5.2 20.2-7 34-10.9 12.3-30.9 15.4-48 6.2 3.7 4.5 9.1 7.5 16 8.7 4.3.8 8.6 1.1 13 1.1 4.3 0 8.6-.4 12.9-1.1 11.6-2 19.3-9.2 21.8-20.9 1.8-9.2 1.8-18.6 0-27.8" opacity=".06"/>
    <path fill="#1f1f1f" d="M37.6 47.7c-.2 0-.3 0-.4-.1-2.4-.9-5-.9-7.4 0-.6.2-1.4-.1-1.6-.7s.1-1.4.7-1.6c3-1.2 6.2-1.2 9.2 0 .6.2 1 1 .7 1.6-.2.5-.7.8-1.2.8" opacity=".31"/>
    <path fill="#2b2b2b" d="M33.9 36.2c-6.9 0-13.6 2.7-18.5 7.7-.5.5-.4 1.3.1 1.8.5.4 1.2.4 1.6 0 9.3-9.3 24.3-9.3 33.5 0 .5.5 1.3.4 1.8-.1.4-.5.4-1.2 0-1.6-4.9-5.1-11.5-7.8-18.5-7.8m-20-6.7c-.1 2.5 1.8 4.7 4.4 4.8 2.5.1 4.7-1.8 4.8-4.4v-.4q0-.75-.3-1.5c.5.1 1 .1 1.5.1 1.6 0 3.2-.2 4.8-.7.7-.2 1-.9.9-1.5-.2-.7-.8-1-1.5-.9-8.8 2.4-12.6-3.2-12.7-3.4-.4-.6-1.1-.7-1.7-.4s-.7 1.1-.4 1.7c.7 1 1.6 1.9 2.6 2.6-1.5.8-2.4 2.3-2.4 4m38.5-8.3c-.6-.4-1.3-.2-1.7.4 0 .1-3.9 5.8-12.7 3.4-.7-.2-1.3.2-1.5.9s.2 1.3.9 1.5c1.6.4 3.2.7 4.8.7.5 0 1 0 1.5-.1q-.3.75-.3 1.5c0 2.5 2 4.6 4.6 4.6 2.5 0 4.6-2 4.6-4.6 0-1.7-.9-3.2-2.4-4 1-.7 1.9-1.6 2.6-2.6.4-.5.2-1.3-.4-1.7"/>
    <path fill="none" stroke="#8e8e8e" stroke-linecap="round" stroke-linejoin="round" stroke-width="1.5" d="m46 9.5-2.3 2.3-2.3-2.3m6.5 6.6-2.3-2.3 2.3-2.3m-6.3 6.3 2.3-2.3 2.3 2.3m-6.5-6.5 2.3 2.3-2.3 2.3"/>
</svg>
