<svg xmlns="http://www.w3.org/2000/svg" viewBox="0 0 72 72">
    <g data-name="Calque 2">
        <g data-name="Calque 1">
            <path fill="#eef" fill-rule="evenodd" d="M36.08 0a77 77 0 0 0-12.91 1.1C11.48 3.08 4 9.65 1.55 21.43a69.7 69.7 0 0 0-.24 28.05c2.31 12 9.57 19.25 21.61 21.38a75 75 0 0 0 13 1.14 77 77 0 0 0 12.91-1.1c11.65-2 19.34-9.2 21.8-20.9a72 72 0 0 0 0-27.82c-2.31-12-9.54-18.91-21.58-21A75 75 0 0 0 36.08 0"/>
            <path fill="#2e3192" fill-rule="evenodd" d="M70.66 22.18c-2.31-12-9.54-18.91-21.58-21C48.46 1 47.84 1 47.22.85A39.73 39.73 0 0 1 62 22c.28 1 5.22 20.18-7 34-10.87 12.29-30.91 15.38-48 6.17 3.73 4.53 9.06 7.47 16 8.69A75 75 0 0 0 36 72a77 77 0 0 0 12.91-1.1c11.65-2 19.34-9.2 21.8-20.9a72 72 0 0 0-.05-27.82" opacity=".06"/>
            <path fill="#4f0599" d="M44.7 40.9a23.75 23.75 0 0 0-26.47 0 1.11 1.11 0 0 0-.31 1.55 1.14 1.14 0 0 0 1.56.31 21.5 21.5 0 0 1 24 0 1.2 1.2 0 0 0 .62.19 1.15 1.15 0 0 0 .94-.5 1.12 1.12 0 0 0-.34-1.55M22.22 25.15a4.15 4.15 0 1 0-4.15 4.15 4.15 4.15 0 0 0 4.15-4.15M44.85 21A4.15 4.15 0 1 0 49 25.15 4.16 4.16 0 0 0 44.85 21"/>
            <path fill="#1b1464" d="M35.19 44.84a1.1 1.1 0 0 1-.4-.08 9.2 9.2 0 0 0-6.65 0 1.12 1.12 0 1 1-.8-2.09 11.4 11.4 0 0 1 8.25 0 1.12 1.12 0 0 1-.4 2.17" opacity=".31"/>
        </g>
    </g>
</svg>
