<svg xmlns="http://www.w3.org/2000/svg" viewBox="0 0 72 72">
    <path fill="#eef" fill-rule="evenodd" d="M36.08 0a77 77 0 0 0-12.91 1.1C11.48 3.08 4 9.65 1.55 21.43a69.7 69.7 0 0 0-.24 28.05c2.31 12 9.57 19.25 21.61 21.38a75 75 0 0 0 13 1.14 77 77 0 0 0 12.91-1.1c11.65-2 19.34-9.2 21.8-20.9a72 72 0 0 0 0-27.82c-2.31-12-9.54-18.91-21.58-21A75 75 0 0 0 36.08 0"/>
    <path fill="#4f0599" d="M31.5 46.28a17.85 17.85 0 0 1-13.09-5.81 1.18 1.18 0 0 1 0-1.59 1 1 0 0 1 1.48 0 15.66 15.66 0 0 0 23.22 0 1 1 0 0 1 1.48 0 1.2 1.2 0 0 1 0 1.59 17.85 17.85 0 0 1-13.09 5.81"/>
    <path fill="#1b1464" d="M31.5 51.14a17.5 17.5 0 0 1-5-.74 1.13 1.13 0 0 1-.73-1.4 1 1 0 0 1 1.29-.78 15.26 15.26 0 0 0 8.88 0 1 1 0 0 1 1.29.78 1.13 1.13 0 0 1-.72 1.38 17.5 17.5 0 0 1-5.01.76" opacity=".31"/>
    <path fill="#4f0599" d="M24.32 28.58a1.08 1.08 0 0 1-1-1.12A5.3 5.3 0 0 0 18.19 22a5.3 5.3 0 0 0-5.09 5.46 1 1 0 1 1-2.09 0 7.46 7.46 0 0 1 7.18-7.7 7.45 7.45 0 0 1 7.17 7.7 1.08 1.08 0 0 1-1.04 1.12m26.62 0a1.09 1.09 0 0 1-1-1.12 5.1 5.1 0 1 0-10.17 0 1 1 0 1 1-2.09 0 7.46 7.46 0 0 1 7.18-7.7 7.46 7.46 0 0 1 7.14 7.7 1.08 1.08 0 0 1-1.06 1.12"/>
    <ellipse cx="13.75" cy="37.62" fill="#f270a8" rx="2.75" ry="2.96"/>
    <ellipse cx="49.25" cy="37.62" fill="#f270a8" rx="2.75" ry="2.96"/>
    <path fill="#2e3192" fill-rule="evenodd" d="M70.66 22.18c-2.31-12-9.54-18.91-21.58-21C48.46 1 47.84 1 47.22.85A39.73 39.73 0 0 1 62 22c.28 1 5.22 20.18-7 34-10.87 12.29-30.91 15.38-48 6.17 3.73 4.53 9.06 7.47 16 8.69A75 75 0 0 0 36 72a77 77 0 0 0 12.91-1.1c11.65-2 19.34-9.2 21.8-20.9a72 72 0 0 0-.05-27.82" opacity=".06"/>
</svg>
