<svg xmlns="http://www.w3.org/2000/svg" width="550" height="550" fill="none" viewBox="0 0 550 550">
    <path fill="#fff" d="M407.38 287.208c.12-46.872.208-93.516.272-140.396l-.008-.008h.092c-.151-3.377-.077-6.777-.003-10.178.133-6.166.267-12.334-.937-18.37-12.508-51.276-81.656-68.404-127.808-69.484-48.5-.716-125.596 16.468-135.852 72.412-.785 20.282-.64 40.65-.495 60.999.104 14.618.208 29.227-.033 43.785-.282 39.718-.301 79.345-.321 118.99-.013 26.282-.026 52.572-.115 78.902 2 37.68 40.924 59.76 73.54 68.972 47.444 13.456 100.18 11.164 144.936-10.284 22.424-10.82 44.96-30.508 46.348-57 .089-13.672.098-27.344.107-41.018.009-12.134.017-24.268.081-36.402.009-1.301.092-2.601.175-3.902.186-2.889.371-5.779-.263-8.678-.68-3.116-.384-6.24-.072-9.416.504-12.944.628-25.964.356-38.924m-2.14 110.92c-10.06 39.908-54.068 57.708-90.824 64.548l-5.54 1.09-5.54 1.09-.067-.382q-.03-.168-.057-.338c32.532-4.72 67.296-15.976 88.76-42.38 3.97-4.667 6.473-10.216 8.968-15.75 1.227-2.723 2.454-5.442 3.852-8.05q.098.04.197.077.126.049.251.095m-.216-131.868c-7.656 40.168-59.824 60.328-95.988 65.368v.004c-3.405 1.135-6.988 1.391-10.566 1.646-1.592.114-3.184.227-4.758.418l-.034-.285-.014-.119c34.06-3.676 70.488-13.324 94.824-39.044 6.233-6.274 9.75-13.735 13.421-21.522 1.007-2.137 2.025-4.298 3.115-6.466M144.277 140.07l.175-.042.004-.004c30.496 86.668 230.092 86.496 261.952.644l-.011 1.265c-.076 8.543-.152 17.093-.377 25.635-1.052 18.576-14.236 33.22-28.272 44.092-.512.452-.968 1.252-1.008 1.916.039.683-.018 1.576-.079 2.536-.139 2.177-.3 4.696.591 5.876.308.18 1.044-.084 1.436-.368 7.784-5.616 14.596-12.248 20.008-20.172 2.736-4.008 5.084-8.308 6.532-13.012.172-.556.508-1.06 1.052-1.524-.166 3.675-.1 7.398-.034 11.127.174 9.741.348 19.52-3.618 28.585-24.744 53.408-109.316 64.836-161.44 56.116-35.212-5.78-74.876-20.02-92.3-53.512-3.268-6.876-4.932-14.092-4.932-21.688.027-8.469.025-16.939.022-25.409-.004-14.007-.008-28.014.122-42.019zm-.537 213.878c31.396 86.552 230.264 86.82 262.124.708.264 8.598.004 17.187-.256 25.786-.067 2.207-.134 4.414-.192 6.622-.2 4.756-1.844 9.312-3.808 13.68-15.812 32.676-53.556 46.74-87.04 53.58-3.808.732-7.648 1.288-11.488 1.824-1.324.184-2.04.64-2.008 2.072.052 2.276.04 4.556 0 6.832-.02 1.168.504 1.652 1.624 1.504 40.088-5.508 87.148-21.808 103.276-62.348l-.019 3.451c-.032 5.99-.063 11.978-.241 17.961-1.448 26.98-25.12 46.06-47.768 56.952-50.528 23.008-111.456 22.972-162.512 1.56-19.804-8.628-39.196-22.448-48.12-42.728a47.2 47.2 0 0 1-3.84-18.792c.044-8.754.058-17.505.072-26.255.023-14.136.045-28.269.196-42.409m261.956-81.3c.108.028.216.06.324.088h-.004c.16 16.316.04 32.652-.12 48.972-.12 8.576-2.9 16.456-7.284 23.828-35.456 54.116-131.468 60.516-187.904 41.264-26.716-9.176-55.764-24.844-64.816-53.504a54.9 54.9 0 0 1-2.148-15.428c.084-24.904.132-49.812.18-74.72l.22-.028.22-.028c2.9 9.344 8.104 17.64 15.012 24.512 2.036 2.02 2.904 4.08 2.812 6.996-.15 4.775-.15 9.555-.151 14.335 0 2.887 0 5.775-.033 8.661-.012 1.184.388 1.968 1.224 2.708 45.328 38.472 114.544 43.112 170.14 28.152 29.516-8.884 61.216-25.092 72.328-55.808m.444-142.236c-6.532 54.484-83.496 72.896-130.292 73.388h-.004c-27.728-.56-60.84-5.88-86.432-19.136-31.228-14.244-59.248-49.432-37.964-83.28 32.72-50.14 117.2-58.484 171.072-46.012 36.428 8.208 85.52 31.388 83.62 75.04M164.352 272.598l.004-.002-.004-.004c43.232 36.348 111.516 42.068 164.668 28.336 31.04-8.244 64.76-24.684 76.656-56.548 2.98 20.656-11.036 40.408-27.336 52.216-50.76 35.192-120.616 37.036-177.348 15.928-13.304-5.096-25.548-12.544-36.276-21.94-.396-.32-.84-.876-.844-1.328-.044-4.341-.041-8.685-.038-13.028l.002-3.428zm241-47.685c.084-.085.179-.18.28-.297v.004c2.364 16.436-6.348 32.756-18.032 43.944-25.388 24.076-60.98 33.632-95.04 36.592-30.896 2.06-62.424-1.348-91.376-12.692-28.072-10.852-60.336-34.604-56.756-68.26l1.414 2.708c7.316 14.028 14.872 28.516 27.374 38.616 33.572 26.712 79.4 34.08 121.256 30.4 35.004-3.804 73.392-14.632 95.444-44.008 1.275-1.954 2.441-3.983 3.608-6.015 1.751-3.046 3.503-6.097 5.632-8.905 2.416-3.66 4.444-7.524 5.88-11.68.049-.139.164-.255.316-.407m-10.2 129.131c4.084-5.792 7.156-11.784 10.46-18.252 3.688 62.18-91.184 84.712-139.832 81.236-46.172-1.576-125.24-24.436-121.64-82.212q.595 1.28 1.18 2.562c2.204 4.814 4.398 9.605 7.676 13.902 1.04 1.51 1.91 3.134 2.781 4.759.724 1.35 1.448 2.702 2.271 3.989 20.468 30.572 59.504 42.728 94.42 46.872 48.728 5.164 117.488-5.596 142.684-52.856m-235.034 6.03.15-.098v-.004c57.668 52.712 172.164 53.172 229.464-.172l.324.244.016.012c-43.168 62.316-186.78 62.06-230.104.116zm229.666-111.378.324.268c-42.608 61.752-188.06 61.948-229.812-.416 57.84 52.628 171.804 53.288 229.488.148m2.415 38.386.097.082c-40.852 51.504-138.464 55.436-194.776 29.764-7.416-3.464-28.76-14.344-30.928-21.832 57.496 44.788 173.232 45.076 225.376-8.212zm-89.211 175.446c32.835-4.889 68.109-16.001 88.988-43.416-2.698 1.668-5.053 3.88-7.414 6.096-2.287 2.148-4.58 4.301-7.194 5.968-14.892 10.428-31.828 17.632-49.424 22.092-5.961 1.76-12.09 2.73-18.216 3.7-1.866.295-3.732.591-5.592.908-1.385.439-1.278 1.75-1.172 3.062.045.551.09 1.102.024 1.59M164.7 292.649l-.776.187c.028.529.002 1.104-.023 1.692-.075 1.697-.154 3.512 1.019 4.7 1.198.923 2.389 1.857 3.58 2.792 3.768 2.957 7.54 5.917 11.552 8.5 19.316 12.012 41.936 18.7 64.352 21.568-27.516-4.952-55.564-13.36-76.9-32.22-1.909-1.413-2.078-2.866-2.273-4.534-.097-.834-.2-1.722-.531-2.685m239.248-109.5q.642-1.474 1.288-2.937c-3.028 16.916-13.248 28.9-26.284 38.956l-.006-.004q-.328-.244-.65-.488c1.944-2.231 4.109-4.251 6.274-6.272 1.997-1.863 3.993-3.725 5.814-5.752 6.236-6.723 9.928-15.178 13.564-23.503m-15.524 21.707a182 182 0 0 1 3.336-3.128v.004c-3.436 5.484-7.912 9.928-12.976 14.036-.572-1.304-.62-2.344.464-3.108 3.358-2.26 6.271-5.036 9.176-7.804M281.776 334.168q.007.16.02.32h-14.144q-.005-.16-.004-.32zm-32.592-1.108q.011-.276.016-.552l4.556.416 4.556.416-.036.432q-2.266-.176-4.53-.354zm34.632.728.02-.116h8.056v.232h-8.096zM156.544 130.876c7.632 49.42 74.872 65.388 116.8 66.372v-.004c41.696-.704 94.104-11.348 115.936-50.332 21.436-44.788-31.484-77.12-69.068-85.16-38.724-8.756-80.64-6.836-117.272 9.108-23.676 10.464-49.144 31.504-46.396 60.016m116.648-60.312.02-.376.008.004c36.052.996 74.828 8.024 102.176 33.312 8.364 8.112 19.696 23.36 15.204 35.504-9.3 27.3-37.872 41.708-63.864 49.384-38.3 10.396-79.996 9.148-117.192-4.968-22.22-8.356-59.464-33.412-48.136-61.176 19.568-39.068 71.508-50.996 111.784-51.684m119.36 55.536c-.084-.016-.164-.028-.244-.044-10.016-26.192-36.236-40.928-61.716-49.04-40.808-12.088-86.052-11.2-125.492 5.36-19.584 8.016-38.168 21.604-46.048 41.888q-.057.12-.1.217c-.187.422-.246.555-1.112.475 7.424-54.932 87.068-70.06 132.948-65.896 39.568 3.732 97.092 20.444 101.764 67.04"/>
</svg>
