<svg xmlns="http://www.w3.org/2000/svg" width="550" height="550" fill="none" viewBox="0 0 550 550">
    <path fill="#222638" fill-rule="evenodd" d="M368.91 135.629h.001c.653-.331 1.194-.605 1.72-.909l2.434-1.398c3.632-2.085 7.264-4.17 10.857-6.323 1.406-.845 2.516-.986 4.039-.098a10988.968 10988.968 0 0 0 52.771 30.524c1.247.716 1.633 1.566 1.618 2.927-.052 4.667-.037 9.336-.022 14.006l.006 1.91c0 .591.039 1.184.086 1.889v.008l.001.001v.004c.025.383.053.798.077 1.264.38-.191.719-.356 1.029-.508l.003-.001a27.321 27.321 0 0 0 1.562-.802l1.655-.951 1.184-.68c3.649-2.094 7.298-4.188 10.909-6.345 1.351-.806 2.434-.841 3.824-.035a10885.48 10885.48 0 0 0 52.33 30.246c1.598.916 2.082 1.996 2.079 3.749-.047 20.001-.055 40.006.007 60.007.008 1.906-.66 2.967-2.281 3.902a10591.835 10591.835 0 0 0-51.869 30.007c-1.539.897-2.699.936-4.27.02a10395.749 10395.749 0 0 0-49.15-28.466 79.72 79.72 0 0 1-1.599-.949c-1.137-.688-1.688-1.022-2.233-1.013-.513.009-1.021.322-2.006.928-.467.287-1.04.64-1.772 1.058a10899.49 10899.49 0 0 0-23.5 13.487c-7.83 4.502-15.66 9.005-23.501 13.488-.945.54-2.094.837-3.18 1.001-3.927.592-7.859 1.149-11.792 1.707-2.339.331-4.678.663-7.015 1.001-.836.122-1.666.282-2.563.454-.458.088-.932.179-1.433.27.115.427.219.82.317 1.19.171.644.324 1.221.488 1.792 5.047 17.724 8.278 35.741 8.446 54.22.125 13.559-1.411 26.911-5.72 39.833-4.883 14.656-13.189 27.069-25.459 36.422-8.075 6.151-16.803 11.423-26.64 14.506-6.27 1.965-12.697 2.869-19.24 2.869-12.599.004-24.601-2.923-36.203-7.647-18.479-7.521-34.637-18.674-49.517-31.823-13.924-12.307-26.155-26.153-37.204-41.078-.369-.499-.746-.99-1.123-1.481l-.564-.738-.31.07-.245.055c-.013.25-.029.5-.046.749-.036.559-.072 1.117-.075 1.677-.029 4.869-.056 9.737-.082 14.605v.006c-.026 4.87-.053 9.74-.082 14.61a40.258 40.258 0 0 1-.069 1.895c-.018.344-.036.704-.052 1.087a9.973 9.973 0 0 0-.649-.088c-.344-.038-.606-.067-.82-.186a475.485 475.485 0 0 1-4.296-2.406c-2.806-1.585-5.612-3.169-8.475-4.642-1.887-.97-2.582-2.25-2.645-4.281-.119-3.835-.304-7.67-.488-11.505v-.001c-.087-1.812-.174-3.623-.254-5.435-.05-1.115-.092-2.232-.133-3.349v-.002c-.046-1.229-.091-2.457-.148-3.685-.013-.264-.081-.526-.173-.878-.048-.186-.103-.398-.159-.648-.339.185-.658.354-.962.515l-.002.001c-.595.315-1.134.599-1.65.92l-9.955 6.167-.392.243-.012.008-.005.003-.004.002-.002.002c-19.137 11.854-38.272 23.707-57.372 35.62-1.547.967-2.652 1.1-4.191.106-2.236-1.448-4.61-2.696-6.974-3.938l-.058-.03c-1.22-.638-1.731-1.503-1.79-2.885-.273-6.777-.57-13.555-.988-20.321-.102-1.64.492-2.485 1.824-3.303 7.137-4.372 14.242-8.789 21.348-13.206l5.897-3.665c.553-.344 1.1-.699 1.647-1.054v-.001h.001l.001-.001.002-.001.627-.406-.195-.568c-.442 0-.883-.007-1.325-.015h-.001c-.993-.016-1.985-.033-2.972.035-1.543.109-2.863-.294-4.196-1.061-3.992-2.289-8.028-4.504-12.067-6.707-1.067-.583-1.754-1.252-1.809-2.591-.183-4.507-.395-9.011-.608-13.516-.123-2.618-.247-5.236-.365-7.854-.012-.268.034-.539.097-.904v-.001c.036-.206.076-.441.114-.723l33.397-1.205 35.853-1.292c-.176-.441-.325-.834-.462-1.195v-.001c-.25-.658-.458-1.207-.71-1.735a260.893 260.893 0 0 1-18.42-52.024 202.228 202.228 0 0 1-4.97-31.659c-.613-7.995-.663-15.982-.066-23.973.926-12.405 3.43-24.45 8.575-35.83 4.473-9.893 10.58-18.683 19.358-25.151 11.853-8.731 24.631-15.599 39.551-17.587 9.224-1.229 18.369-.912 27.444.998 13.556 2.857 26.097 8.296 38 15.309 11.576 6.817 22.143 14.972 32.164 23.887.226.201.439.454.657.712.689.818 1.421 1.687 2.73 1.104 1.322-.586 1.204-1.744 1.092-2.84a8.882 8.882 0 0 1-.061-.882c.04-18.698.063-37.396-.023-56.094-.008-2.097.598-3.267 2.438-4.324 17.404-9.975 34.757-20.036 52.095-30.125 1.399-.814 2.45-.704 3.801.082 17.272 10.034 34.555 20.045 51.885 29.98 1.727.991 2.469 2.059 2.41 4.094-.11 3.828-.084 7.661-.059 11.493v.001c.008 1.213.016 2.426.02 3.639 0 .62.041 1.238.09 1.988.024.366.05.764.074 1.209l-.004.016c.401-.208.76-.39 1.091-.558zm-62.662 168.612h-.001c-.529.012-.98.022-1.424.087-12.712 1.812-25.42 3.631-38.133 5.455l-36.184 5.199-.041.006-.324.047c-12.21 1.755-24.42 3.51-36.63 5.263-3.726.535-7.452 1.066-11.177 1.596-8.214 1.17-16.427 2.34-24.632 3.554-1.602.239-3.262.681-4.676 1.44-3.198 1.72-6.332 3.562-9.466 5.404l-.002.001-.001.001h-.001l-.001.001-.002.001c-.907.533-1.815 1.067-2.724 1.597-.283.165-.535.385-.828.641-.151.133-.313.274-.496.423.168.309.326.609.482.904v.001c.301.569.588 1.115.905 1.643 7.868 13.157 16.732 25.597 26.717 37.228 14.99 17.449 31.812 32.77 51.744 44.443 10.392 6.089 21.319 10.872 33.094 13.642 9.368 2.203 18.716 2.403 28.12.294 6.165-1.382 11.536-4.07 15.943-8.735 7.305-7.729 12.329-16.765 15.564-26.826 4.587-14.272 5.61-28.97 4.751-43.829-.821-14.202-3.43-28.113-7.306-41.791-.503-1.773-1.06-3.53-1.622-5.303-.254-.802-.509-1.606-.761-2.418v.004c-.323.015-.616.021-.888.027m-73.003-114.566-.823-.769c-.492-.462-.904-.849-1.329-1.223-6.009-5.295-12.384-10.108-19.08-14.483-12.517-8.175-25.78-14.703-40.473-18.005-10.568-2.376-21.128-2.732-31.746-.294-6.548 1.503-11.978 4.665-16.568 9.658-7.763 8.445-12.334 18.412-14.885 29.436-3.711 16.045-3.762 32.246-1.75 48.498 1.758 14.202 5.079 28.055 9.611 41.611 4.391 13.133 9.755 25.859 16.201 38.12l.059.115.07.136c.321.626.682 1.33 1.218 1.592 1.153.562 1.258 1.437 1.382 2.473l.009.074c.215 1.761.992 3.256 2.528 4.54 1.208-.706 2.416-1.405 3.622-2.104l.004-.002h.001l.001-.001h.001v-.001c3.315-1.919 6.613-3.829 9.857-5.825.8-.493 1.343-1.569 1.773-2.488a81234.507 81234.507 0 0 0 36.281-77.461 23478.107 23478.107 0 0 0 17.116-36.621c.601-1.291 1.316-2.34 2.637-3.072 6.034-3.353 12.038-6.762 18.043-10.172l4.189-2.378c.388-.221.756-.476 1.22-.796.243-.168.512-.354.824-.562zM158.3 318.713c2.66-.79 121.306-69.501 122.822-71.136-12.486-20.436-27.203-39.091-44.919-55.358-.228.106-.435.197-.626.281-.36.16-.666.295-.956.458-2.346 1.328-4.69 2.659-7.034 3.99l-.005.002-.002.002-.002.001-.003.001-.002.002c-5.128 2.911-10.257 5.824-15.404 8.701-1.317.736-2.02 1.816-2.621 3.099-9.86 21.087-19.724 42.171-29.588 63.255l-.02.043-.021.043-.02.043-.02.043-.02.043c-6.902 14.752-13.804 29.504-20.704 44.257-.211.452-.381.925-.568 1.445-.09.25-.183.511-.287.785m-21.75 39.314-.172.05c-.117.035-.233.069-.35.102a60.95 60.95 0 0 0-.034 1.133c-.02.818-.039 1.637-.13 2.448-.293 2.661.59 4.825 2.168 6.985 14.423 19.774 30.843 37.615 50.33 52.509 14.251 10.895 29.581 19.829 46.817 25.097 13.048 3.987 26.315 5.455 39.84 2.567 11.021-2.352 20.417-7.698 28.296-15.669 7.661-7.753 12.689-17.156 16.143-27.405 4.121-12.233 5.672-24.905 5.692-37.756.027-19.007-3.083-37.576-8.333-55.8-5.341-18.53-12.646-36.269-21.717-53.277-14.053-26.352-31.445-50.192-53.01-70.905-14.251-13.689-29.874-25.464-47.689-34.14-9.88-4.814-20.189-8.39-31.089-10.12-9.806-1.554-19.588-1.55-29.187 1.072-15.314 4.18-26.858 13.458-34.894 27.088-6.368 10.793-9.774 22.612-11.442 34.966-1.462 10.816-1.485 21.664-.626 32.535.805 10.171 2.473 20.193 4.79 30.11 3.649 15.625 8.895 30.723 15.318 45.414.879 2.009 1.821 3.992 2.763 5.975l.002.004c.363.765.727 1.531 1.087 2.297l.086.188.001.001c.334.733.676 1.481 1.683 1.463.9-.016 1.8-.048 2.703-.081.461-.017.924-.034 1.387-.048 0-.185.009-.34.017-.472.014-.234.024-.399-.029-.542a21.08 21.08 0 0 0-.82-1.913c-5.856-12.167-10.736-24.709-14.549-37.67-5.805-19.731-9.133-39.787-8.184-60.449.582-12.625 2.825-24.858 7.899-36.488 3.231-7.404 7.548-14.116 13.31-19.786 10.9-10.731 24.225-15.599 39.348-15.751 11.63-.118 22.721 2.626 33.461 6.883 15.33 6.078 29.011 14.937 41.629 25.433 19.049 15.845 34.969 34.484 48.498 55.221 9.528 14.601 17.646 29.941 24.24 46.091 6.997 17.133 12.201 34.766 14.869 53.116 2.45 16.823 2.774 33.604-.808 50.329-2.38 11.106-6.474 21.477-13.33 30.595-4.692 6.242-10.36 11.442-17.279 15.191-11.326 6.14-23.46 7.784-36.086 6.418-12.052-1.303-23.354-5.185-34.164-10.554-18.81-9.341-34.945-22.283-49.552-37.239-9.798-10.03-18.643-20.854-26.628-32.383-.45-.652-.922-1.291-1.393-1.929-.236-.319-.472-.638-.705-.959v.004zm191.612-60.72c.266-.022.543-.04.829-.059.679-.046 1.402-.094 2.12-.199 2.17-.313 4.338-.634 6.506-.955 4.099-.607 8.199-1.214 12.305-1.765a14.025 14.025 0 0 0 5.356-1.851 571.829 571.829 0 0 1 7.082-4.081l.002-.002.006-.003c1.025-.584 2.051-1.169 3.075-1.756 2.787-1.599 5.574-3.2 8.361-4.801l.009-.005c9.485-5.449 18.971-10.898 28.489-16.283 1.669-.943 2.29-2.027 2.239-3.91-.077-2.957-.065-5.915-.053-8.874v-.002c.007-1.564.013-3.127.006-4.691 0-.488-.057-.975-.124-1.544v-.001h-.001v-.002c-.033-.283-.069-.587-.101-.923-.351.177-.666.329-.956.469l-.001.001h-.001l-.001.001c-.514.248-.951.46-1.37.7-1.087.625-2.177 1.247-3.266 1.87l-.008.004c-3.434 1.961-6.868 3.922-10.235 5.991-1.688 1.037-2.934 1.108-4.712.067a7569.079 7569.079 0 0 0-27.994-16.25c-7.575-4.383-15.151-8.766-22.714-13.171-1.629-.951-2.864-.97-4.501 0-5.412 3.204-10.86 6.344-16.309 9.483l-.001.001h-.001v.001h-.001l-.007.004a4227.505 4227.505 0 0 0-7.121 4.11c-.587.34-1.159.712-1.692 1.058l-.002.002-.305.197c-.157.102-.31.2-.458.293 1.423 2.851 2.863 5.669 4.295 8.472v.001c3.284 6.429 6.529 12.78 9.445 19.276 2.936 6.534 5.548 13.212 8.214 20.028 1.176 3.007 2.363 6.04 3.592 9.099zm-45.546-45.333h-.001c-.457.21-.807.372-1.142.565a556686.155 556686.155 0 0 0-116.907 67.763c-.051.031-.074.149-.066.223.005.049.039.096.072.142.014.021.029.041.041.062 5.235-.208 139.077-19.657 141.195-20.588-5.739-16.871-13.15-32.962-22.339-48.565h-.003c-.324.155-.603.284-.85.398m23.11 181.067.23.298a3.542 3.542 0 0 1 .282-.12c.206-.083.412-.165.578-.299 5.899-4.72 10.724-10.394 14.564-16.874 6.067-10.242 9.446-21.441 11.231-33.138 2.059-13.498 1.919-27.042.336-40.57-2.363-20.244-7.637-39.767-15.091-58.688-10.263-26.043-23.971-50.142-41.145-72.252-13.341-17.176-28.366-32.653-45.771-45.723-13.915-10.449-28.862-18.996-45.598-24.091-10.986-3.346-22.194-4.911-33.68-3.585a59.232 59.232 0 0 0-14.376 3.534c-.284.109-.534.314-.783.518v.001c-.118.096-.236.193-.358.279.95.316 1.77.229 2.584.143l.28-.029c1.118-.113 2.236-.252 3.354-.39 2.59-.32 5.18-.64 7.772-.651 12.302-.047 24.104 2.653 35.508 7.165 16.638 6.583 31.472 16.178 45.184 27.55 19.326 16.037 35.641 34.833 49.611 55.652 15.881 23.668 28.319 49.034 36.598 76.38 5.649 18.651 9.208 37.635 9.501 57.182.211 13.841-1.336 27.432-5.646 40.624-2.195 6.715-5.109 13.125-9.137 18.96-1.318 1.911-2.726 3.762-4.132 5.613h-.001l-.002.003v.001h-.001c-.635.836-1.27 1.671-1.896 2.511zM37.196 382.6v.001h.002v.001c1.381.749 2.602 1.411 3.734 2.2 1.918 1.338 3.461 1.134 5.422-.09 21.451-13.394 42.951-26.719 64.446-40.041l.007-.004.005-.003.005-.004.015-.009 6.1-3.78c.299-.186.641-.302 1.088-.454.242-.082.514-.174.826-.294.02.443.041.844.061 1.218.038.693.07 1.292.072 1.889.006 1.834.014 3.669.022 5.503v.005c.026 6.421.053 12.842.013 19.264-.011 1.843.45 3.068 2.204 3.948 2.14 1.072 4.227 2.247 6.315 3.421v.001h.002v.001h.002v.001c1.09.613 2.179 1.226 3.276 1.824.379.207.79.352 1.255.516.238.084.491.173.76.278.034-.283.072-.537.107-.773.065-.446.121-.825.124-1.207.137-15.821.262-31.643.375-47.465.003-.566-.063-1.133-.127-1.677-.03-.257-.059-.508-.08-.753-3.301-.512-85.927 2.575-87.767 3.244.051.07.096.145.14.22.09.151.176.296.305.367l1.537.867.005.003.007.004.008.004.011.007.017.01h.001c2.798 1.579 5.596 3.158 8.435 4.662.722.384 1.66.513 2.496.493 4.568-.093 9.133-.234 13.7-.375l2.435-.075 7.992-.243.019-.001.02-.001h.018l.02-.001h.019l.02-.001a9917.31 9917.31 0 0 1 24.418-.727c.34-.011.686.12 1.03.25h.001c.162.061.324.122.485.169l.074.374.043.221c-6.936 4.353-13.897 8.668-20.858 12.983-5.24 3.249-10.48 6.497-15.708 9.761a4088.408 4088.408 0 0 1-13.738 8.528c-7.688 4.757-15.446 9.559-23.336 14.561l-.004.007c.75.427 1.456.81 2.124 1.172Zm9.48 25.92.002-.001c.56-.274.998-.489 1.41-.746 6.38-3.953 12.759-7.907 19.137-11.861a36056.53 36056.53 0 0 1 48.398-29.969c1.422-.876 2.048-1.855 2.012-3.557-.075-3.882-.085-7.765-.094-11.648-.005-1.942-.01-3.884-.023-5.825-.002-.433-.06-.865-.133-1.406v-.003a46.58 46.58 0 0 1-.121-.959c-.367.202-.707.382-1.026.552-.603.32-1.134.601-1.642.916l-15.508 9.61-.015.009-.012.008-.015.009-.008.005-.006.004-.005.003a27662.717 27662.717 0 0 1-52.423 32.436c-1.644 1.014-2.18 2.156-2.058 4.019.233 3.585.394 7.176.555 10.766.077 1.708.153 3.415.238 5.122.028.56.086 1.118.157 1.808.039.366.08.769.124 1.229l.004.004c.396-.204.74-.373 1.048-.523l.005-.002m467.757-204.316.005-.002c.284-.126.619-.274 1.029-.465v3.016l-.003 12.324v.024c-.004 14.655-.009 29.309.046 43.965.008 1.988-.582 3.099-2.348 4.109-12.115 6.93-24.198 13.924-36.28 20.917h-.001v.001h-.001l-.014.009c-4.136 2.393-8.272 4.787-12.408 7.178-.465.269-.948.508-1.524.793-.32.158-.668.33-1.059.53a78.015 78.015 0 0 0-.08-1.087c-.052-.661-.096-1.211-.096-1.762a39513.8 39513.8 0 0 1-.004-18.858v-.042c-.001-12.558-.002-25.117-.031-37.675-.004-1.718.403-2.861 2.02-3.788 12.094-6.939 24.163-13.922 36.232-20.905l.032-.019c4.446-2.572 8.892-5.144 13.339-7.714.321-.184.66-.334 1.143-.548zm-256.525-88.468c.373.229.703.434 1.006.623h.001l.001.001c.563.349 1.032.641 1.512.918 4.302 2.49 8.606 4.977 12.91 7.463l.001.001.002.001.002.001.001.001.002.001.001.001.002.001c11.854 6.849 23.709 13.698 35.526 20.612 1.918 1.124 3.316 1.049 5.184-.039 12.003-7.008 24.038-13.96 36.073-20.911 3.751-2.167 7.502-4.333 11.252-6.502.732-.423 1.454-.86 2.263-1.35l.003-.002.002-.001.008-.005c.414-.25.85-.515 1.322-.798a67.222 67.222 0 0 1-.918-.623c-.54-.371-.998-.686-1.477-.962-4.506-2.607-9.014-5.212-13.522-7.817l-.003-.002-.001-.001c-11.803-6.82-23.605-13.64-35.381-20.504-1.637-.955-2.868-.948-4.497 0a11944.634 11944.634 0 0 1-34.593 20.054l-.01.005-.004.003c-4.766 2.756-9.532 5.512-14.296 8.27-.476.277-.933.589-1.469.954-.274.186-.568.387-.895.604zm256.34 86.305c-.319-.204-.608-.393-.879-.57l-.001-.001h-.001c-.535-.35-.998-.653-1.475-.928a45094.29 45094.29 0 0 0-45.528-26.344c-1.217-.703-2.461-1.36-3.705-2.018-.593-.313-1.186-.626-1.776-.945-.612.318-1.228.628-1.844.939h-.002v.001h-.002c-1.309.66-2.618 1.319-3.887 2.05a26218.831 26218.831 0 0 0-41.101 23.754l-.003.002-3.987 2.307c-.571.331-1.123.699-1.754 1.119-.309.206-.638.425-.996.658.345.228.643.431.913.615.526.357.943.64 1.376.891 4.254 2.461 8.509 4.919 12.764 7.378 12.128 7.008 24.257 14.016 36.355 21.076 1.621.947 2.785.751 4.266-.109 11.404-6.63 22.823-13.237 34.242-19.844l.024-.014c5.025-2.908 10.051-5.816 15.075-8.725.386-.224.753-.48 1.202-.793.218-.152.456-.317.724-.499m-74.68-43.176c-.361-.239-.655-.44-.908-.612a18.54 18.54 0 0 0-1.065-.695c-4.319-2.5-8.64-4.999-12.96-7.497l-.013-.007-.013-.008-.012-.007-.046-.026c-12.178-7.042-24.357-14.084-36.508-21.175-1.625-.951-2.813-.7-4.285.153-10.954 6.368-21.917 12.714-32.881 19.061l-.004.003-.049.028-.012.007-.012.007-.012.007-.012.006c-5.449 3.155-10.899 6.31-16.348 9.468-.369.214-.712.475-1.122.786-.211.16-.439.333-.698.521.319.202.608.39.88.565l.007.005.002.001c.549.355 1.022.662 1.509.943 4.446 2.576 8.894 5.149 13.343 7.722l.045.026c11.687 6.76 23.374 13.519 35.024 20.338 1.898 1.112 3.309 1.108 5.188.012 11.845-6.926 23.723-13.799 35.601-20.672l.019-.011c4.189-2.424 8.377-4.848 12.565-7.274a87.04 87.04 0 0 0 1.684-1.008l.002-.001h.001c.329-.201.69-.42 1.098-.666zm-54.509 93.379c-.027.386-.057.822-.086 1.334a179037.41 179037.41 0 0 1-30.153-17.445l-.819-.474-.321-.186-.627-.363-20.477-11.847a21.437 21.437 0 0 1 5.208-3.177c.566-.247 1.52.043 2.156.363 1.275.642 2.508 1.367 3.741 2.091.414.243.829.487 1.244.727l5.679 3.288c8.4 4.864 16.799 9.727 25.2 14.584.533.311 1.086.591 1.741.924h.001c.319.162.662.336 1.039.532.067-.361.137-.673.201-.953l.001-.002v-.001c.116-.51.208-.917.208-1.325.005-5.411.004-10.822.004-16.233-.001-9.017-.002-18.035.02-27.053.004-1.487-.52-2.379-1.809-3.119a9782.215 9782.215 0 0 1-23.487-13.549v-.001c-4.575-2.644-9.15-5.289-13.728-7.93-.363-.212-.765-.358-1.285-.545-.286-.104-.607-.22-.977-.367-.022.451-.047.862-.07 1.246v.007c-.046.767-.086 1.428-.086 2.089a12570.1 12570.1 0 0 0-.003 15.042c.002 7.243.003 14.485-.013 21.728-.001.542.008 1.002.015 1.399.021 1.127.032 1.735-.213 2.209-.288.556-.929.929-2.319 1.738-.26.151-.547.318-.862.504-.49.291-1.001.543-1.52.8-.25.124-.502.248-.754.378-.66-1.945-.875-53.796-.234-57.96.269.127.531.243.786.357h.001c.515.23 1.003.447 1.463.711 10.854 6.265 21.702 12.537 32.549 18.808l7.811 4.516c.876.506 1.747 1.026 2.617 1.545 1.965 1.173 3.93 2.346 5.966 3.374 1.844.927 2.332 2.156 2.324 4.128a11191.64 11191.64 0 0 0-.045 40.972c0 5.119.001 10.238-.002 15.357 0 .539-.037 1.078-.085 1.779m21.025-44.896v-3.62c.427.208.789.38 1.108.531.618.292 1.07.506 1.502.756 4.32 2.499 8.639 5 12.957 7.501l.018.011.018.01.006.003c11.975 6.936 23.95 13.872 35.959 20.749 1.793 1.029 2.293 2.215 2.286 4.164-.045 13.439-.044 26.878-.042 40.317 0 5.259.001 10.518-.001 15.777 0 .587-.041 1.173-.092 1.905v.006c-.028.402-.059.849-.088 1.364l-6.334-3.664c-15.401-8.908-30.532-17.661-46.035-26.625.642-.37 1.232-.728 1.79-1.067 1.307-.792 2.438-1.478 3.648-1.966.688-.274 1.84.164 2.602.595 3.57 2.007 7.113 4.064 10.656 6.12l.013.008.014.007c1.255.729 2.511 1.458 3.768 2.185 6.914 3.999 13.833 7.998 20.756 11.986.526.303 1.073.569 1.725.886.34.165.71.345 1.119.55.061-.348.125-.651.183-.925.109-.515.196-.924.196-1.333.007-3.719-.002-7.438-.011-11.158-.005-2.366-.011-4.731-.013-7.097-.001-1.753-.005-3.505-.008-5.257-.012-6.423-.024-12.846.044-19.268.023-1.898-.649-2.974-2.286-3.906-7.526-4.283-15.018-8.625-22.51-12.967a8109.387 8109.387 0 0 0-7.056-4.087c-.853-.493-1.705-.989-2.557-1.484l-.005-.003-.005-.003-.003-.002c-1.544-.897-3.087-1.794-4.637-2.68-.377-.215-.774-.397-1.291-.634l-.001-.001c-.27-.124-.573-.262-.923-.429-.038.451-.08.863-.119 1.247v.001l-.001.001c-.076.745-.142 1.389-.142 2.034-.013 10.266-.013 20.534-.012 30.803v6.245c.003 3.402-1.526 5.875-4.586 7.419a4.956 4.956 0 0 1-.655.257 8.326 8.326 0 0 0-.33.115c-.751-.595-.691-1.357-.635-2.085.016-.2.031-.397.03-.588-.03-3.453-.026-6.906-.022-10.36v-.009l.002-3.46zm-149.121-31.072c.464-.243.87-.469 1.242-.675.723-.401 1.313-.728 1.938-.969 2.168-.837 2.797-2.297 2.774-4.633-.092-9.619-.079-19.238-.065-28.858v-.005c.004-3.071.009-6.142.01-9.214v-.161l-.001-.22c-.004-.656-.007-1.313.075-1.959.109-.853.668-1.194 1.496-.916.346.117.669.307.986.493l.001.001h.001l.165.097c3.422 1.979 6.844 3.96 10.265 5.94l.001.001h.001l.001.001.001.001h.001l.001.001c8.972 5.193 17.944 10.387 26.936 15.548 1.312.751 1.781 1.671 1.762 3.139-.047 3.072-.037 6.146-.028 9.22v.002c.004 1.272.008 2.545.008 3.817l.001 6.75c.003 7.486.005 14.973-.016 22.459 0 .639-.096 1.278-.209 2.035-.058.389-.121.808-.178 1.276-.425-.21-.803-.391-1.148-.557l-.004-.002c-.682-.326-1.235-.591-1.766-.897-2.741-1.575-5.476-3.161-8.212-4.747l-.002-.002-.008-.004-.018-.01c-1.611-.935-3.223-1.869-4.836-2.802l-3.215-1.859c-6.367-3.682-12.736-7.366-19.119-11.023-.715-.411-1.762-1.006-2.337-.763l-.215.09c-1.774.75-3.614 1.527-4.977 3.095.115.102.21.194.295.276l.001.002.001.001c.158.152.279.27.418.351 16.6 9.615 33.203 19.226 49.818 28.818.319.183.691.276 1.098.376.201.05.41.102.625.168.018-.196.037-.376.055-.545l.015-.137c.045-.403.082-.741.082-1.079.003-5.68.003-11.36.004-17.04v-.053c.001-13.602.003-27.202.028-40.805 0-1.385-.418-2.254-1.645-2.931-2.19-1.211-4.351-2.474-6.513-3.738l-.003-.002a748.46 748.46 0 0 0-2.735-1.594 86866.026 86866.026 0 0 0-39.676-22.952c-.62-.357-1.261-.678-1.995-1.046-.367-.184-.758-.379-1.181-.597v58.833zM135.919 337.851l-.332.088c0 .266-.003.532-.005.797v.001c-.005.574-.01 1.147.008 1.723.04 1.125.092 2.252.143 3.378.112 2.437.224 4.874.213 7.309-.008 2.188.559 4.015 1.801 5.823 12.275 17.837 26.163 34.234 42.598 48.396 13.318 11.474 27.734 21.199 44.103 27.793 9.321 3.753 18.951 6.257 29.026 6.809 8.603.469 16.971-.669 25.042-3.761.563-.216 1.105-.494 1.646-.771l.002-.001c.242-.124.484-.248.727-.367-1.874-.027-3.645.213-5.395.451-.735.099-1.466.199-2.199.277-13.803 1.468-26.968-1.311-39.731-6.32-15.518-6.089-29.335-15.054-42.087-25.679-21.572-17.982-39.063-39.462-53.611-63.423-.374-.615-.758-1.226-1.142-1.837l-.244-.388-.239-.382.004-.004-.011.003zm-13.99-174.215c-.06-.007-.121-.02-.179-.032-.12-.026-.231-.05-.302-.007-.445.262-.894.536-1.297.857-7.809 6.284-13.474 14.193-17.513 23.315-4.41 9.964-6.65 20.479-7.571 31.283-1.231 14.39-.059 28.662 2.566 42.824 3.36 18.123 9.103 35.51 16.486 52.364a180.104 180.104 0 0 0 4.114 8.723c.348.693 1.106 1.652 1.703 1.671 2.077.066 4.161-.02 6.353-.111h.001c.789-.032 1.591-.065 2.413-.092-.138-.342-.253-.643-.357-.914-.2-.521-.359-.935-.557-1.329-6.829-13.622-12.615-27.667-16.971-42.287-5.235-17.579-8.544-35.455-8.633-53.875-.059-12.613 1.324-24.995 5.344-36.985 2.106-6.277 4.782-12.319 8.653-17.743 1.304-1.824 2.662-3.609 4.024-5.399v-.001l.001-.002h.001v-.001h.001v-.001l.001-.001.001-.001v-.001h.001c.57-.75 1.141-1.501 1.709-2.255zm178.124 73.289c.26-.102.481-.181.674-.25.342-.122.597-.213.826-.345 2.774-1.6 5.546-3.202 8.318-4.803l.013-.008.014-.008.013-.008.013-.007.009-.005a5539.72 5539.72 0 0 1 18.451-10.631c1.176-.673 1.419-1.588 1.411-2.802-.016-2.258-.016-4.517-.016-6.776 0-2.259 0-4.517-.016-6.775 0-.372-.091-.745-.199-1.188a17.483 17.483 0 0 1-.168-.734l-.177.093c-.114.061-.226.119-.336.176l-.395.206h-.001l-.002.001-.003.002c-.567.294-1.072.556-1.563.837a902.184 902.184 0 0 1-3.447 1.974c-3.371 1.926-6.741 3.851-10.05 5.876-1.485.908-2.661 1.01-4.001-.039-.282-.22-.603-.389-.925-.559h-.002c-.141-.075-.282-.149-.42-.228l-6.753-3.907-3.761-2.176a53237.655 53237.655 0 0 0-38.152-22.061c-.134-.078-.267-.164-.404-.252l-.001-.001c-.602-.388-1.275-.822-2.458-.8 17.017 16.71 31.198 35.067 43.508 55.198m139.451-75.873c.317-.152.674-.323 1.092-.529v5.198c0 1.243-.004 2.485-.007 3.727a579.19 579.19 0 0 0 .026 9.321c.02 1.377-.406 2.308-1.672 2.923-.895.434-1.762.928-2.716 1.472v.001h-.002c-.44.251-.899.513-1.388.785-.044-.328-.092-.618-.136-.885v-.001c-.083-.507-.152-.928-.157-1.349-.012-1.16-.011-2.32-.009-3.48.001-1.363.003-2.726-.018-4.088-.008-.526-.092-1.05-.193-1.679v-.002l-.001-.003c-.053-.334-.111-.697-.166-1.106-.388.182-.728.333-1.034.469l-.001.001c-.542.241-.979.435-1.391.672-3.83 2.21-7.658 4.423-11.487 6.635a7930.582 7930.582 0 0 1-25.302 14.583c-1.453.834-2.058 1.808-2.051 3.519.039 9.373.039 18.747.038 28.12 0 4.891 0 9.781.005 14.672.003.476.092.951.197 1.506v.001c.054.285.111.59.163.927 2.04-.728 3.809-1.794 5.58-2.86 1.768-1.065 3.539-2.132 5.585-2.865 0 .597.005 1.171.011 1.728.013 1.385.025 2.666-.05 3.938-.031.513-.434 1.202-.871 1.46a1515.745 1515.745 0 0 1-12.636 7.376l-3.335 1.934c-.797-.748-.747-1.552-.701-2.305v-.001c.011-.172.021-.342.021-.508-.018-7.654-.017-15.309-.016-22.963l.001-5.741c0-2.474.003-4.948.006-7.422.008-6.746.017-13.492-.037-20.238-.012-1.866.574-2.986 2.238-3.94 11.943-6.849 23.858-13.744 35.774-20.64 4.397-2.544 8.794-5.088 13.192-7.63.425-.243.867-.455 1.448-.733m-120.746 38.489c-.062-.494-.124-.906-.178-1.265-.096-.633-.167-1.103-.169-1.573-.006-5.091-.006-10.183-.007-15.275-.001-9.166-.002-18.333-.032-27.497-.004-1.597.566-2.532 1.922-3.311a9743.593 9743.593 0 0 0 24.235-13.986l.002-.001h.001l.001-.001.001-.001h.001l.002-.001.007-.004c4.17-2.412 8.34-4.823 12.511-7.232.467-.268.967-.479 1.576-.735h.001c.313-.132.656-.277 1.037-.447.05.427.103.804.151 1.148v.003c.094.67.169 1.216.177 1.761.02 1.292.02 2.584.019 3.877 0 1.229-.001 2.457.016 3.687.005.358.095.715.206 1.157v.003l.001.004.001.001c.057.229.12.479.179.764.479-.277.929-.545 1.361-.801.944-.561 1.803-1.072 2.69-1.531 1.145-.591 1.559-1.444 1.547-2.72-.027-3.143-.026-6.287-.026-9.432.001-2.246.001-4.492-.009-6.738 0-.363-.095-.726-.203-1.135v-.001c-.052-.199-.108-.41-.156-.636-.251.113-.48.211-.693.303-.438.188-.806.345-1.151.546-5.135 2.967-10.268 5.937-15.4 8.907l-.002.001-.002.001-.002.001-.002.001-.002.001-.002.001-.019.011a15509.69 15509.69 0 0 1-34.18 19.737c-1.395.802-1.867 1.773-1.863 3.338.028 12.679.029 25.357.03 38.035v.042c0 6.346.001 12.692.005 19.038 0 .508.067 1.014.133 1.511v.004c.03.222.059.443.082.661.163 0 .294.009.4.017.173.012.28.019.358-.025l.646-.37c4.907-2.808 9.815-5.617 14.699-8.458.414-.243.937-.716.977-1.123l.031-.348c.169-1.837.342-3.71-.305-5.816l-5.917 3.292-4.686 2.606zM60.996 359.372c1.778.026 3.401.049 5.013-.074 1.238-.094 2.582-.461 3.633-1.107 9.513-5.837 18.988-11.734 28.463-17.63l2.092-1.302 2.202-1.37c.378-.235.728-.517 1.078-.799.157-.126.314-.253.473-.375l-.14-.537c-13.087.267-26.167.705-39.42 1.149l-6.878.229.451 9.359.002.045.598 12.385v.004c.848 0 1.654.012 2.43.023h.003Zm391.177-83.12v-.001c.063-.368.1-.578.1-.788.003-3.428.004-6.856.005-10.284.001-8.139.003-16.279.042-24.419.007-1.386-.688-2.008-1.723-2.607-4.853-2.795-9.703-5.596-14.553-8.397-4.852-2.803-9.705-5.606-14.56-8.403-.374-.216-.786-.37-1.211-.529v-.001h-.003v-.001h-.002a18.522 18.522 0 0 1-.616-.24c-.061.16-.122.292-.175.407-.095.207-.165.358-.165.509-.031 10.523-.047 21.046-.055 31.569 0 .439.063.88.126 1.321l.033.229.033.25c.007.063.076.123.136.174l.02.018a.69.69 0 0 0 .079.061c.046.03.096.058.144.092 1.38-.283 1.34-1.28 1.302-2.238a10.43 10.43 0 0 1-.013-.463c.013-4.291.012-8.581.011-12.871 0-2.146-.001-4.291.001-6.437 0-.697 0-1.393.035-2.086.047-.81.484-1.397 1.313-1.26.403.068.816.124 1.231.18 1.322.177 2.661.357 3.761.959 3.904 2.134 7.748 4.373 11.592 6.612a884.83 884.83 0 0 0 6.262 3.625c1.094.626 1.641 1.393 1.633 2.693a1448.46 1448.46 0 0 0-.015 8.844c.001 4.01.003 8.02-.04 12.029-.023 2.121-.977 3.957-2.348 5.686-.19-.089-.369-.168-.538-.243-.351-.157-.663-.296-.958-.465-2.96-1.71-5.917-3.423-8.874-5.136l-2.307-1.337-2.121-1.228a1174.408 1174.408 0 0 0-5.872-3.378c-.914-.524-1.832-.943-2.86.501 7.505 4.34 14.936 8.639 22.487 13.008l8.517 4.927.003-.008c.056-.372.105-.652.143-.874m-264.89-136.19-.072.126c-.066.116-.132.233-.201.347.742.261 1.487.514 2.232.768 1.626.553 3.253 1.106 4.847 1.737 16.705 6.625 31.675 16.166 45.462 27.593 16.88 13.99 31.464 30.136 44.286 47.907 12.607 17.473 23.229 36.081 31.734 55.886 10.255 23.879 17.341 48.6 19.435 74.616.743 9.204.782 18.408-.183 27.6a1139.16 1139.16 0 0 0-.429 4.143h-.001v.001l-.001.017c-.089.868-.178 1.736-.269 2.605l.633.071c.153-1.173.319-2.346.484-3.517v-.003l.001-.002v-.005l.001-.003c.352-2.498.704-4.996.94-7.502 1.032-10.949.684-21.899-.601-32.797-1.387-11.76-3.782-23.343-7.087-34.712-8.767-30.16-22.393-57.987-40.383-83.682-14.795-21.132-31.973-40.026-52.506-55.742-11.786-9.02-24.413-16.589-38.242-22.036-2.242-.883-4.54-1.62-6.837-2.357-1.082-.347-2.163-.693-3.239-1.055zm157.619 70.823c1.437-.258 1.435-1.188 1.434-2.071l-.001-.087.001-.072c.013-2.391.012-4.784.012-7.175l-.001-1.435c0-1.08-.002-2.161-.005-3.242v-.04c-.006-2.733-.013-5.465.021-8.195.019-1.707.41-2.125 1.996-1.906 1.524.211 3.165.442 4.473 1.166 3.66 2.023 7.28 4.122 10.899 6.22l.004.002c2.24 1.299 4.479 2.598 6.728 3.878 1.188.677 1.739 1.503 1.727 2.908-.028 3.836-.028 7.671-.027 11.505.001 3.035.002 6.071-.012 9.106-.008 2.164-.957 3.972-2.379 5.78a66.513 66.513 0 0 0-.851-.423c-.538-.265-1.044-.514-1.532-.794-4.087-2.355-8.168-4.72-12.251-7.086l-.035-.02-1.696-.983-.745-.43-.439-.255-.05-.029-.017-.009a489.526 489.526 0 0 0-3.488-2.008c-.871-.497-1.731-.795-2.512.423a7.381 7.381 0 0 1 .345.295l.057.05.003.002v.001l.001.001c.268.237.524.463.813.629a10145.25 10145.25 0 0 0 28.194 16.299c.312.18.678.262 1.079.353.202.045.412.093.628.156.026-.256.053-.484.078-.694.05-.406.09-.745.09-1.083.003-3.205.002-6.409.001-9.613a3853.21 3853.21 0 0 1 .042-24.042c.008-1.643-.676-2.492-2.008-3.259a5438.397 5438.397 0 0 1-19.287-11.123c-3.048-1.763-6.096-3.526-9.145-5.286-.438-.252-.902-.461-1.377-.675-.224-.101-.451-.203-.678-.311-.59 2.207-.653 30.915-.09 33.572m-42.137-20.787c-1.913-.356-29.126-15.991-31.356-18.124.305-.03.578-.074.826-.114.493-.08.888-.144 1.245-.053.49.123.942.405 1.391.685.15.093.299.186.449.273 5.594 3.229 11.185 6.462 16.775 9.695l.096.055.045.026c.602.344 1.207.685 1.813 1.025.816.458 1.641.36 1.977-.501.133-.339.276-.681.42-1.026v-.001c.565-1.353 1.144-2.736 1.181-4.115.113-4.1.102-8.206.091-12.311-.007-2.591-.013-5.182.011-7.772.015-1.495-.512-2.395-1.801-3.127a757.484 757.484 0 0 1-6.882-3.972l-.002-.001-.002-.001-.002-.001-.001-.001-.002-.001-.002-.001-.002-.001c-3.485-2.028-6.97-4.055-10.502-6-1.366-.752-3.082-.978-4.676-1.188l-.043-.005c-1.687-.223-2.02.133-2.063 1.823-.043 1.701-.033 3.406-.024 5.111v.001c.005.73.009 1.461.009 2.191v1.853l.001 1.213v.001c.002 3.413.004 6.826-.017 10.238 0 .131.004.266.009.402.029.868.061 1.796-1.212 2.059-.637-1.796-.852-30.297-.242-34.237.215.087.428.165.638.242.427.155.839.305 1.214.521 3.764 2.171 7.526 4.348 11.288 6.524l.005.003c5.857 3.388 11.714 6.777 17.581 10.147 1.215.697 1.949 1.409 1.937 3.006-.053 8.179-.05 16.357-.047 24.536.002 3.213.003 6.426.001 9.639 0 .286-.037.57-.075.857-.018.142-.036.283-.05.427m46.637 23.151c2.126 2.066 17.248 10.695 19.256 11.039.02-.131.044-.261.069-.391.054-.287.107-.572.107-.857.004-2.196.003-4.392.002-6.589-.003-4.574-.005-9.149.037-13.725.012-1.432-.609-2.195-1.774-2.861a1769.927 1769.927 0 0 1-10.337-5.948 2659.867 2659.867 0 0 0-6.563-3.788c-.387-.224-.81-.388-1.241-.556a18.89 18.89 0 0 1-.587-.235c-.645 2.572-.598 17.473.102 19.771.305-.166.607-.328.906-.488.69-.368 1.363-.728 2.02-1.113.237-.139.478-.272.718-.405 1.397-.772 2.772-1.533 3.325-3.356.352-1.15 1.641-1.111 2.707-.81 2.294.65 4.145 3.976 3.505 6.258-.481 1.714-1.794 2.328-3.403 1.53-.461-.228-.891-.519-1.369-.842-.235-.159-.481-.326-.749-.497l-2.866 1.644-.074.042-3.783 2.169zm94 54.136c.079-.27.124-.422.124-.574.004-2.151.005-4.303.006-6.454.002-4.888.003-9.776.052-14.663.016-1.401-.738-1.995-1.766-2.586a4044.86 4044.86 0 0 1-8.569-4.94c-2.856-1.65-5.713-3.3-8.573-4.942-.331-.189-.702-.31-1.081-.433h-.001a12.8 12.8 0 0 1-.531-.181c-.594 3.002-.473 18.674.203 20.772.442-.246.88-.494 1.315-.74l.007-.004c1.07-.604 2.126-1.201 3.202-1.757 1.207-.626 2.027-1.299 2.109-2.899.086-1.707 1.375-2.317 2.989-1.812 2.445.767 4.153 3.768 3.539 6.214-.398 1.589-1.644 2.293-3.168 1.702-.497-.193-.96-.473-1.406-.742a18.165 18.165 0 0 0-.579-.342c-3.031 1.245-5.274 2.634-6.731 4.246l2.336 1.352.461.267.25.144.298.173 15.333 8.869-.004-.004a19.072 19.072 0 0 1 .185-.666m-168.918-97.026 4.82 2.782.176.102 14.369 8.296c.05-.358.1-.661.144-.927v-.002c.081-.492.142-.861.142-1.231.005-2.304.003-4.608.002-6.912-.003-4.302-.007-8.605.037-12.909.015-1.424-.551-2.191-1.739-2.865a1352.25 1352.25 0 0 1-10.437-5.997l-.003-.002a2124.345 2124.345 0 0 0-6.714-3.874c-.32-.183-.681-.29-1.054-.401a11.954 11.954 0 0 1-.54-.17c-.668 4.105-.422 18.678.371 20.408.416-.231.83-.463 1.244-.695l.001-.001a103.979 103.979 0 0 1 3.068-1.676c1.207-.622 2.079-1.295 2.192-2.892.105-1.448 1.274-2.039 2.641-1.788 2.531.458 4.688 3.972 3.957 6.453-.492 1.679-1.828 2.317-3.441 1.569-.473-.221-.916-.512-1.403-.834h-.001l-.001-.001a32.539 32.539 0 0 0-.725-.468l-3.349 1.899-.019.01-3.75 2.126zm127.529 56.688c-1.199-2.023-2.258-3.948-2.242-6.335.043-6.516.047-13.032-.008-19.547-.012-1.55.426-2.564 1.844-3.362a599.252 599.252 0 0 0 7.252-4.174c3.364-1.956 6.727-3.913 10.141-5.778 1.079-.59 2.376-.798 3.661-1.003.444-.072.888-.143 1.32-.229.882-.176 1.484.262 1.734 1.17.061.221.171.428.371.805.123.23.278.523.477.921.147-.294.273-.528.38-.728.188-.351.318-.591.397-.846.371-1.217.075-9.161-.398-10.577-.122.049-.246.095-.37.14a5.12 5.12 0 0 0-.794.345c-3.155 1.822-6.309 3.647-9.463 5.472l-.005.003-.005.002-.001.001-.001.001h-.001l-.001.001h-.001a5476.921 5476.921 0 0 1-20.053 11.566c-1.211.693-1.68 1.523-1.676 2.912.026 6.858.028 13.715.029 20.574.002 4.437.003 8.874.01 13.311 0 .363.086.725.192 1.176.055.232.115.487.172.777.766-.443 1.519-.874 2.259-1.299h.002v-.001c2.25-1.29 4.388-2.516 6.49-3.803.288-.177.451-.561.667-1.073.118-.277.252-.593.43-.934l-1.053.194-1.756.322zm-74.898-43.348a22.86 22.86 0 0 0-.714-1.722c-.606-1.359-1.214-2.719-1.189-4.367.102-6.519.086-13.039 0-19.559-.023-1.698.547-2.676 2.032-3.514 5.14-2.885 10.226-5.866 15.313-8.847l1.591-.932c2.043-1.198 4.223-1.346 6.516-1.182l.325.794.456 1.12c1.413-.24 1.416-1.192 1.418-2.124l.001-.087c.011-2.435.019-4.869-.004-7.303-.006-.37-.075-.739-.157-1.173-.04-.216-.084-.448-.125-.705-.291.14-.556.262-.802.376-.474.218-.877.404-1.26.626-2.921 1.685-5.838 3.374-8.756 5.063l-.016.01a3162.747 3162.747 0 0 1-19.653 11.316c-1.481.841-2.047 1.792-2.036 3.498.047 7.302.046 14.603.044 21.904v.055c-.001 3.632-.002 7.265.003 10.898 0 .473.06.947.136 1.548v.001l.001.003v.005l.002.008c.041.329.087.695.131 1.119.716-.417 1.415-.821 2.101-1.218 2.348-1.359 4.534-2.625 6.681-3.951.245-.152.347-.533.466-.974.059-.22.123-.456.21-.686zM56.633 358.786c.074-.254.14-.446.193-.6.087-.253.138-.402.131-.551-.113-2.533-.23-5.066-.346-7.599v-.001c-.174-3.789-.348-7.577-.51-11.368-.046-1.091-.593-1.737-1.5-2.23a1318.87 1318.87 0 0 1-5.345-2.95v-.001h-.002c-1.78-.986-3.56-1.972-5.345-2.951-.224-.122-.479-.19-.845-.288a22.687 22.687 0 0 1-.75-.212c0 .373-.003.715-.006 1.035-.007.623-.013 1.165.01 1.708.05 1.115.096 2.231.142 3.346v.002c.145 3.475.29 6.952.492 10.427.047.83.072 1.512.092 2.08.053 1.468.078 2.164.406 2.66.295.447.836.732 1.863 1.273h.002a59.6 59.6 0 0 1 2.008 1.097c2.049 1.178 4.124 2.306 6.28 3.477l.005.002v.001c.989.537 1.994 1.083 3.02 1.647l.005-.004Zm76.938 42.776c.091-.266.165-.451.219-.588.079-.201.117-.298.113-.394-.119-2.905-.241-5.811-.364-8.716v-.011c-.148-3.509-.296-7.019-.437-10.53-.039-.994-.578-1.574-1.395-2.02-1.575-.855-3.148-1.715-4.721-2.574l-.009-.005-.007-.003-.004-.002c-2.226-1.216-4.452-2.432-6.682-3.638-.125-.066-.293-.051-.498-.032-.109.01-.229.02-.357.02-.017.141-.039.28-.061.417-.046.286-.091.566-.08.844.088 2.049.182 4.097.276 6.146v.011c.18 3.934.36 7.867.501 11.805.051 1.373.536 2.226 1.77 2.872 1.972 1.027 3.913 2.113 5.854 3.199l.003.001c.935.523 1.87 1.046 2.808 1.563.612.336 1.229.662 1.89 1.01.377.199.768.405 1.181.625m-98.745-18.588c-.072.261-.136.459-.187.618-.083.257-.133.41-.126.56.274 6.336.551 12.671.875 19.003.028.556.25 1.335.649 1.597 2.438 1.593 4.965 3.048 7.641 4.269a6.39 6.39 0 0 1 .169-.398c.071-.157.115-.254.113-.349l-.135-2.999c-.246-5.508-.492-11.016-.8-16.521-.03-.587-.468-1.374-.96-1.675-1.657-1.013-3.357-1.952-5.161-2.948l-.002-.001c-.676-.374-1.367-.755-2.076-1.152v-.004m379.278-124.718c3.485-1.076 3.704-1.315 3.708-4.281.012-10.687.012-21.379 0-32.066 0-3.076-.461-3.588-3.708-4.215zm-131.951-8.269c-.039-.036-.071-.072-.1-.104-.052-.058-.093-.103-.138-.111l-.075-.013c-.148-.028-.315-.058-.422.005-2.839 1.63-5.68 3.259-8.521 4.888l-.004.002-.004.003-.005.002-.004.003-.005.002-.004.003-.004.002c-8.517 4.884-17.034 9.767-25.53 14.689-24.91 14.433-49.808 28.888-74.705 43.342l-14.477 8.404c-.054.032-.074.161-.066.239.002.043.032.082.087.154l.066.089.046.066c.135-.034.28-.06.43-.086.328-.057.674-.118.961-.282 40.731-23.542 81.454-47.101 122.165-70.674.119-.068.176-.243.231-.411l.037-.111.012-.033.01-.024a.583.583 0 0 1 .019-.044m134.108 12.486-.362-.257-.269-.188c3.143-2.426 3.235-2.425 6.182-.719 5.078 2.937 10.157 5.873 15.237 8.809 4.157 2.402 8.313 4.804 12.469 7.208 2.032 1.176 2.877 2.958 2.536 5.345l-.055.03v.001l-.075.04a.9.9 0 0 1-.136.054c-.073.023-.16.051-.207.024a38518.492 38518.492 0 0 1-34.293-19.66 12.58 12.58 0 0 1-1.026-.687zm-39.153-22.555c.657-4.023.653-4.058-2.183-5.701-9.537-5.534-19.077-11.06-28.621-16.581-2.477-1.433-3.508-1.209-5.504 1.291l36.304 20.991zm-74.633-43.164c.833-3.745.77-3.929-2-5.537-9.531-5.521-19.066-11.033-28.601-16.546l-.003-.002-.004-.002-.003-.002-.003-.002-.004-.001-.003-.002-.003-.002-.004-.002c-2.731-1.577-2.988-1.538-5.926.951l23.292 13.476.446.258 12.813 7.413zm-37.703-25.194c3.504-1.189 3.606-1.299 3.606-4.402.008-10.594.008-21.191 0-31.784 0-2.932-.418-3.397-3.606-4.078zm74.621 42.483c3.555-1.275 3.598-1.311 3.598-4.238.008-10.437.008-20.874 0-31.306 0-2.939-.488-3.476-3.598-3.996zM202.05 410.223l-.006.006c-27.201-20.103-48.249-45.601-65.559-74.966 1.491.079 1.95.859 2.38 1.59.078.133.155.265.238.39a761.62 761.62 0 0 1 4.27 6.62l.001.003c3.082 4.816 6.164 9.631 9.48 14.278 13.607 19.066 29.429 36.057 48.052 50.345.38.291.745.603 1.111.914l.452.381-.21.219-.137.144zm-70.46-86.36c-.202.137-.405.269-.607.402a4.613 4.613 0 0 0-.302-.246v-.001c-.222-.17-.443-.34-.56-.566-8.497-16.31-15.22-33.322-19.932-51.112-2.734-10.323-4.785-20.776-5.563-31.463 3.95 29.295 13.42 56.794 26.964 82.986m169.647-85.013c2.133-.544 52.982-29.522 57.448-32.633.205-.144.358-.364.51-.583.068-.098.136-.196.208-.286a3.001 3.001 0 0 0-2.004.348c-16.658 9.079-54.525 31.35-56.166 33.154zm102.226-14.655c.282 0 .569-.001.851-.004.021-.289.047-.578.074-.867v-.002c.055-.6.11-1.201.11-1.8.003-1.249.009-2.498.014-3.747v-.006c.021-4.576.041-9.151-.045-13.724-.035-1.812.523-2.912 2.152-3.698 1.187-.572 2.32-1.256 3.454-1.941h.001a89.313 89.313 0 0 1 1.519-.904c.996-.578 1.992-1.154 2.989-1.73 2.686-1.552 5.371-3.105 8.047-4.68.04-.024.081-.047.124-.069l.061-.033.08-.042c.565-.292 1.199-.621.739-1.688-.221.109-.439.21-.652.31l-.004.002h-.001c-.421.196-.825.385-1.21.608-1.721.99-3.439 1.988-5.156 2.985l-.008.004c-3.762 2.184-7.524 4.369-11.323 6.485-1.496.834-2.051 1.808-2.027 3.506.057 4.135.05 8.271.044 12.407v.023c-.003 2.117-.007 4.233-.001 6.35 0 .513.051 1.026.102 1.539v.001c.023.238.047.476.066.715m-74.524-43.364.723-.024c.015-.281.033-.562.051-.844.041-.618.082-1.237.082-1.856.002-1.296.007-2.592.013-3.889.017-4.429.034-8.858-.045-13.286-.035-1.871.54-2.971 2.231-3.898 4.527-2.48 8.977-5.102 13.424-7.722l.01-.006.009-.006 1.86-1.095c.133-.078.28-.149.43-.221.644-.31 1.357-.654 1.417-1.79-.186.06-.348.104-.493.144-.261.071-.463.127-.639.228-2.049 1.18-4.094 2.365-6.14 3.55-3.875 2.246-7.75 4.492-11.648 6.703-1.265.716-1.531 1.694-1.527 3.005.018 3.744.018 7.489.017 11.234 0 2.675 0 5.349.006 8.024 0 .396.065.792.13 1.188.031.187.061.374.085.561zm66.019 58.876c.254-.124.505-.243.753-.359.532-.251 1.048-.494 1.544-.772 1.007-.564 2.005-1.146 3.004-1.728.573-.334 1.147-.668 1.723-1 2.856-1.643 2.883-1.702 2.164-5.423-.251.123-.499.239-.743.354h-.001v.001c-.538.253-1.056.497-1.553.779-.942.534-1.875 1.085-2.808 1.635l-.002.002-.002.001-.002.001-.002.001-.002.001c-.63.372-1.26.744-1.893 1.11-2.864 1.656-2.899 1.73-2.18 5.397m-74.449-43.301c.203-.084.407-.16.609-.236.428-.16.847-.317 1.235-.535a234.29 234.29 0 0 0 5.598-3.256c2.137-1.272 2.402-2.336 1.199-5.021-.8.461-1.599.919-2.396 1.377l-.01.006c-1.444.828-2.884 1.655-4.321 2.488-2.618 1.518-2.715 1.768-1.914 5.173zm108.722-9.396c2.381-1.028 3.573-2.612 3.579-4.751l.003-1.171v-.004c.005-1.686.01-3.373-.019-5.059-.005-.379-.094-.756-.184-1.141-.041-.176-.083-.353-.117-.534-3.32 1.143-3.344 1.17-3.363 4.141a303.685 303.685 0 0 0 0 4.676c.007.793.031 1.585.058 2.472l.039 1.371zm-74.75-43.505c3.563-1.044 3.739-1.26 3.754-4.289.008-1.561.012-3.122 0-4.684-.005-.798-.026-1.597-.047-2.426v-.006l-.007-.248-.008-.349-.008-.313c-3.028.889-3.625 1.319-3.665 2.982-.049 2.115-.039 4.231-.028 6.432v.006c.004.946.009 1.908.009 2.892zM137.942 333.306c2.25-.352 13.67-7.032 14.736-8.621-2.176.36-13.708 7.107-14.736 8.621M359.27 209.583l.004-.003.081-.048a9.541 9.541 0 0 0 .232-.138c.054-.096.122-.194.19-.292.155-.222.31-.444.291-.651-.02-.204-.216-.391-.413-.579a3.146 3.146 0 0 1-.244-.247 4.398 4.398 0 0 1-.315.288c-.253.217-.505.433-.568.695-.057.231.095.512.247.794.067.124.134.248.183.368l.004-.004c.102-.062.205-.123.308-.183M104.114 237.05h.25l-.039-.807-.039-.801-.001-.013-.038-.774a.813.813 0 0 0-.084.004l-.049.004zm329.235 14.995.179.126c.249.178.424.304.52.258.285-.133.492-.462.676-.754l.016-.025c.023-.035-.34-.45-.45-.418-.24.065-.464.192-.77.365l-.249.14-.215.117h.004c.103.064.2.128.289.191M283.864 165.08l.016.319c.005.106.009.213.015.319l1.383.14.001-.018c.007-.366.015-.727.019-1.093l-.431.099-.288.067-.719.167zM135.778 332.613l-.414.028-.059-.935.045-.003.035-.002.047-.004.078-.005.098-.007.046-.003.061-.004.011.164.013.196.008.107zm332.376-46.955a20.39 20.39 0 0 0-.162-.8c-.106-.483-.198-.905-.198-1.329 0-4.295.007-8.59.013-12.885.015-9.784.03-19.567-.032-29.352-.016-2.305.707-3.577 2.719-4.716 8.828-5.01 17.609-10.101 26.393-15.193 3.153-1.828 6.306-3.656 9.462-5.481.468-.27.948-.522 1.52-.822h.001l.001-.001c.296-.156.617-.324.974-.515.067.371.137.69.2.977.114.521.204.933.207 1.347.007 5.551.009 11.101.011 16.65.003 8.877.005 17.754.032 26.632.004 1.491-.516 2.383-1.801 3.119-8.07 4.637-16.128 9.295-24.187 13.954l-.001.001-.014.008-.031.018c-4.398 2.542-8.797 5.085-13.197 7.624-.323.186-.681.314-1.12.472h-.001c-.236.084-.495.177-.785.292zm33.999-65.294c-.319.138-.577.244-.794.333-.364.149-.613.25-.843.383-2.77 1.599-5.537 3.202-8.305 4.805l-.01.006-.011.006-.01.006-.011.007-.002.001c-6.98 4.042-13.959 8.084-20.97 12.074-1.567.893-1.824 2.051-1.821 3.632.027 7.344.026 14.69.026 22.036 0 3.431-.001 6.861.002 10.292 0 .556.034 1.111.076 1.798l.01.165c.019.308.039.643.058 1.015.406-.208.775-.393 1.118-.566.722-.362 1.329-.666 1.914-1.003 2.681-1.548 5.36-3.099 8.039-4.65 6.482-3.753 12.964-7.507 19.479-11.203 1.645-.936 2.274-2.008 2.258-3.898-.055-7.59-.05-15.183-.044-22.774.002-3.184.004-6.367.002-9.55 0-.562-.041-1.124-.09-1.805-.024-.334-.05-.697-.075-1.103zm-32.331 62.425c.182-.071.367-.135.55-.197.379-.13.752-.258 1.087-.453 4.581-2.644 9.16-5.292 13.739-7.94l.005-.003.005-.003.005-.003.006-.003.005-.003.005-.004.006-.003c6.896-3.988 13.793-7.978 20.7-11.953 1.176-.677 1.707-1.471 1.703-2.891-.033-8.764-.034-17.529-.036-26.295-.001-4.613-.001-9.227-.007-13.841 0-.371-.079-.742-.16-1.124a12.057 12.057 0 0 1-.109-.554l-.014.005c-3.42 1.251-3.432 1.255-3.436 4.432-.001 2.628-.004 5.255-.006 7.882-.01 8.753-.019 17.506.041 26.258.016 2.047-.539 3.264-2.43 4.332-8.285 4.677-16.503 9.467-24.724 14.259l-.04.023-.039.023-4.934 2.875c-2.625 1.526-2.739 1.902-1.922 5.181M271.321 114.902h-.001l-.003.002-.002.001c-.316.205-.67.435-1.085.699l-.003.003c.353.261.644.486.898.683.451.348.785.606 1.145.816 2.146 1.252 4.296 2.49 6.448 3.73l.004.002.004.003c1.23.708 2.46 1.416 3.689 2.127l.024.014.003.002.028.016.007.004.002.001.032.019.003.001c8.983 5.194 17.967 10.388 26.943 15.601 1.18.681 2.168 1.068 3.579.246 8.34-4.873 16.702-9.708 25.063-14.543l.023-.013c4.255-2.46 8.51-4.921 12.762-7.386.313-.183.577-.45.915-.79l.001-.001c.181-.181.382-.384.623-.606-.355-.232-.682-.453-.993-.663h-.001l-.001-.001-.001-.001c-.619-.417-1.174-.791-1.751-1.127-3.674-2.127-7.35-4.251-11.026-6.374l-.023-.013a6319.157 6319.157 0 0 1-25.005-14.495c-1.52-.888-2.665-1.01-4.258-.074-8.781 5.144-17.596 10.233-26.411 15.321-3.363 1.941-6.725 3.882-10.086 5.827-.479.277-.942.577-1.546.969Zm8.097 4.274a12.82 12.82 0 0 0-.405-.375h.004c.232-.162.449-.32.659-.472.453-.328.869-.629 1.31-.886 3.003-1.741 6.01-3.477 9.016-5.214l.005-.003.001-.001a3631.895 3631.895 0 0 0 19.363-11.238c1.434-.837 2.524-.962 4.032-.074 6.749 3.97 13.528 7.884 20.307 11.797 2.844 1.641 5.687 3.283 8.528 4.928.335.196.648.431 1.015.706.185.139.384.289.606.449-.211.163-.399.319-.574.464h-.001c-.333.275-.621.514-.94.698-3.641 2.11-7.284 4.217-10.926 6.323l-.003.002-.004.002-.003.002-.003.002-.004.002-.003.002-.006.003-.001.001h-.001c-6.041 3.494-12.081 6.987-18.112 10.496-1.133.658-2.074.939-3.348.196a4936.16 4936.16 0 0 0-20.543-11.911h-.001v-.001l-.008-.004c-3.139-1.814-6.279-3.627-9.416-5.444-.182-.105-.339-.254-.544-.45m69.121-3.995.001.001.002.001c.207.152.417.305.634.456v.004c-2.863 2.461-2.945 2.473-5.774.833-2.252-1.303-4.505-2.606-6.759-3.908l-.011-.006-.011-.006c-7.738-4.472-15.478-8.945-23.179-13.478-1.488-.877-2.547-.85-4.016.015-7.935 4.664-15.907 9.268-23.879 13.872l-.002.001-.02.012-.012.006c-2.018 1.165-4.035 2.33-6.051 3.496-2.825 1.636-3.016 1.597-5.743-.892.247-.164.485-.33.72-.493h.001c.476-.331.938-.651 1.424-.932 3.724-2.156 7.449-4.309 11.175-6.462l.025-.015.01-.006a6706.868 6706.868 0 0 0 22.379-12.97c1.333-.778 2.364-.955 3.79-.117 7.757 4.54 15.537 9.037 23.318 13.534 3.572 2.064 7.143 4.128 10.713 6.197.436.251.845.55 1.265.857m71.227 86.751c.367-.245.696-.47 1.001-.68.593-.407 1.098-.753 1.624-1.058 3.51-2.03 7.022-4.057 10.534-6.084l.001-.001.001-.001.001-.001h.002l.018-.011c8.584-4.954 17.168-9.909 25.72-14.912 1.582-.924 2.735-.854 4.266.043 8.141 4.75 16.303 9.462 24.464 14.175l.003.002.003.001.003.002.003.002.003.002c3.936 2.272 7.873 4.545 11.806 6.822.53.305 1.027.666 1.592 1.078h.001c.277.202.57.415.892.64-.249.224-.457.427-.643.608-.337.329-.6.587-.908.766-4.796 2.782-9.594 5.559-14.393 8.336l-.016.009-.004.003-.004.002-.004.002-.004.003c-7.738 4.478-15.476 8.955-23.2 13.454-1.305.759-2.336.681-3.602-.055-7.59-4.413-15.19-8.807-22.789-13.2l-.007-.004-.007-.005-.007-.004-.007-.004-.007-.004-.002-.001-.002-.001-.002-.001-.003-.002-.002-.001c-4.859-2.81-9.719-5.619-14.575-8.433-.358-.207-.667-.496-1.052-.856v-.001l-.003-.002-.003-.003a23.5 23.5 0 0 0-.688-.625zm73.511 3.252a73.1 73.1 0 0 1-.9-.608 23.934 23.934 0 0 0-1.448-.942 6224.476 6224.476 0 0 0-8.337-4.816l-.005-.003-.005-.003-.005-.003-.005-.003-.016-.009-.003-.002c-6.523-3.763-13.046-7.527-19.537-11.347-1.637-.962-2.883-.939-4.5.012-6.457 3.792-12.943 7.538-19.427 11.283l-.003.002-.002.001-.003.002-.002.001-.003.002-.016.009-.004.003c-2.893 1.67-5.786 3.341-8.676 5.016-.429.247-.834.537-1.307.874-.237.17-.492.351-.775.546.291.201.551.387.793.56l.001.001.001.001c.476.34.881.63 1.31.878 2.94 1.704 5.883 3.403 8.826 5.103 6.522 3.765 13.043 7.53 19.533 11.345 1.465.861 2.524.881 4.008.008 6.556-3.861 13.147-7.666 19.737-11.47l.007-.004.007-.004.007-.005.007-.004c2.864-1.653 5.729-3.307 8.59-4.965.424-.245.827-.53 1.307-.869l.002-.001.005-.004c.252-.178.525-.371.834-.581zm4.922-3.405v-.001c-.219-.212-.375-.364-.558-.469-4.01-2.323-8.02-4.644-12.031-6.965-7.782-4.504-15.563-9.007-23.336-13.529-1.133-.657-2.039-.563-3.129.067-6.223 3.618-12.452 7.224-18.68 10.83l-.007.004-.01.006c-5.332 3.086-10.663 6.173-15.991 9.267-.32.185-.593.451-.874.724-.133.13-.268.262-.411.387 1.917 1.623 3.838 1.881 5.763.775 2.471-1.426 4.939-2.857 7.409-4.288l.033-.019.032-.019.032-.019 3.76-2.179c1.638-.947 3.277-1.892 4.916-2.837l.001-.001h.002c4.601-2.653 9.202-5.305 13.767-8.017 1.375-.818 2.438-.881 3.774.011 1.188.795 2.442 1.495 3.695 2.195.567.317 1.135.634 1.696.96 2.146 1.242 4.294 2.481 6.441 3.721l.003.001c6.195 3.575 12.389 7.151 18.547 10.788 1.563.924 2.84 1.053 4.243-.062.224-.178.463-.339.792-.561h.001c.156-.106.333-.225.539-.367l.004-.004c-.168-.151-.304-.284-.422-.398v-.001zm-71.098-42.766.005-.003-.004.004zm-.803-.709c.221.201.479.435.803.709a606.8 606.8 0 0 0-2.105 1.277l-.01.006c-1.43.87-2.727 1.659-4.04 2.42a9386.61 9386.61 0 0 1-10.239 5.912 4596.158 4596.158 0 0 0-22.659 13.13c-1.462.854-2.567.869-4.04.012-8.473-4.952-16.968-9.866-25.463-14.781-3.75-2.169-7.5-4.339-11.248-6.511-.418-.243-.815-.524-1.315-.878-.275-.195-.581-.412-.939-.656.366-.278.69-.54.992-.784.583-.47 1.081-.873 1.629-1.193 6.623-3.851 13.257-7.684 19.889-11.516l.001-.001.006-.003.019-.011.129-.075 5.643-3.26a835.646 835.646 0 0 1 3.057-1.76c2.592-1.489 5.185-2.978 7.745-4.517 1.242-.748 2.25-.877 3.578-.102 7.988 4.66 15.992 9.293 23.997 13.927l.002.001.004.002.015.009.003.002.003.001.003.002.004.002c4.527 2.621 9.054 5.241 13.579 7.867.308.18.578.426.957.769m-8.28 3.296c.147.131.325.289.556.482-.388.238-.737.455-1.061.657l-.011.006-.003.002-.001.001c-.601.373-1.116.694-1.639.997-2.535 1.467-5.072 2.93-7.61 4.392l-.001.001c-6.636 3.824-13.271 7.649-19.861 11.546-1.738 1.03-3.012 1.018-4.734 0-6.678-3.942-13.395-7.818-20.112-11.693l-.01-.006c-2.601-1.501-5.201-3.001-7.799-4.506-.426-.247-.833-.525-1.304-.846h-.001c-.26-.178-.539-.368-.852-.574.226-.177.43-.347.621-.507.383-.32.716-.598 1.086-.812 4.631-2.687 9.265-5.369 13.899-8.051l.041-.024.016-.009.003-.002.003-.001c4.961-2.871 9.921-5.742 14.877-8.619 1.106-.646 2.063-1.018 3.356-.262a5076.298 5076.298 0 0 0 21.527 12.49l.045.026c2.796 1.616 5.593 3.232 8.388 4.851.18.105.339.246.581.461m-64.201-1.878c-2.613 1.507-2.789 1.464-5.578-1.095l-.004-.004 1.955-1.147c1.098-.644 2.141-1.256 3.186-1.863 2.617-1.515 5.234-3.028 7.852-4.542l.009-.005.009-.005.01-.006.039-.022c7.583-4.385 15.165-8.769 22.729-13.19 1.332-.779 2.387-.943 3.797-.117a6177.542 6177.542 0 0 0 25.491 14.791l.038.022.01.006.01.006c3.053 1.765 6.106 3.53 9.158 5.297.249.145.481.314.714.485l.003.002h.001l.159.116.181.129c-1.937 2.485-2.851 2.7-5.379 1.24-2.1-1.212-4.201-2.422-6.302-3.632l-.013-.007-.001-.001c-7.901-4.55-15.803-9.101-23.644-13.754-1.782-1.057-2.993-.928-4.676.062-7.874 4.631-15.79 9.19-23.704 13.749h-.001l-.003.002-.068.039-.012.007zm123.056 110.759c-1.586-2.508-2.305-4.883-2.247-7.611.129-6.167.086-12.339.016-18.506-.02-1.589.527-2.544 1.906-3.322 4.932-2.793 9.83-5.647 14.727-8.5l.004-.003 2.623-1.527c1.891-1.1 3.922-1.147 6.282-1.041.028.29.062.573.095.852.071.584.139 1.147.139 1.711.006 2.638.004 5.276.002 7.914-.003 4.748-.007 9.496.033 14.243.016 1.659-.453 2.708-1.965 3.561-4.698 2.646-9.364 5.353-14.029 8.059l-.002.001-.007.004-.007.004c-2.01 1.166-4.019 2.332-6.031 3.492-.288.168-.601.294-.964.44h-.001l-.005.002c-.177.071-.365.147-.569.235zm21.744-37.982c-.28.121-.539.225-.782.322-.47.188-.877.352-1.253.566-1.89 1.087-3.776 2.18-5.663 3.273-3.67 2.126-7.34 4.253-11.038 6.334-1.383.779-1.942 1.706-1.922 3.303.048 4.199.043 8.4.039 12.6v.025a1646.75 1646.75 0 0 0 0 6.668c0 .431.056.861.122 1.358v.001c.035.264.072.547.104.86.251-.102.48-.187.693-.266l.001-.001c.427-.159.787-.293 1.115-.481 1.958-1.125 3.911-2.257 5.864-3.389 3.754-2.175 7.508-4.35 11.29-6.476 1.352-.759 1.704-1.734 1.692-3.17-.032-4.042-.03-8.085-.028-12.128.001-2.388.002-4.777-.003-7.165 0-.435-.058-.868-.125-1.374v-.002a34.913 34.913 0 0 1-.106-.858m-168.49-111.464c2.161-1.217 3.387-3.103 4.669-5.345h.004c-.226-.165-.439-.331-.648-.493h-.001v-.001c-.417-.323-.813-.63-1.242-.88a2779.91 2779.91 0 0 0-6.706-3.879l-.002-.001-.009-.006c-4.37-2.522-8.739-5.044-13.078-7.615-1.352-.802-2.348-.568-3.571.148a1696.62 1696.62 0 0 1-11.083 6.427l-.002.001-.002.002h-.001c-2.308 1.331-4.617 2.662-6.922 4-3.973 2.304-4.055 3.107-.671 6.339.429.415.964.732 1.488 1.033 1.899 1.105 3.801 2.204 5.703 3.303l.001.001.008.004a1205.94 1205.94 0 0 1 11.606 6.765c1.285.763 2.293.744 3.575-.019a834.135 834.135 0 0 1 16.884-9.784m-39.062-5.221c.212.156.402.303.581.44.365.281.68.524 1.02.723 1.859 1.077 3.721 2.149 5.583 3.221l.003.002.008.004.003.002.001.001c3.774 2.172 7.549 4.345 11.295 6.565 1.371.81 2.43.795 3.801-.023 3.694-2.201 7.421-4.346 11.148-6.492l.006-.003.001-.001c1.837-1.057 3.674-2.114 5.507-3.178.388-.226.753-.489 1.153-.777h.001l.002-.002c.196-.141.399-.287.618-.438a9.42 9.42 0 0 1-.364-.345c-.194-.19-.351-.343-.535-.449-1.994-1.16-3.99-2.314-5.986-3.469l-.004-.002c-4.013-2.321-8.025-4.641-12.016-6.998-1.289-.763-2.254-.36-3.356.282-3.057 1.786-6.121 3.559-9.184 5.332l-.014.008-.002.001c-2.49 1.441-4.979 2.881-7.465 4.329-.384.223-.743.489-1.146.787-.205.152-.422.313-.659.48m193.063 86.352-.002.003c-.21-.167-.409-.339-.604-.507-.397-.342-.776-.67-1.203-.916a2484.686 2484.686 0 0 0-7.582-4.387 1685.223 1685.223 0 0 1-12.232-7.107c-1.313-.771-2.36-.684-3.606.079-1.851 1.131-3.734 2.207-5.618 3.283l-.001.001-.004.002c-.826.472-1.652.944-2.476 1.421l-1.07.618-1.781 1.028c-2.958 1.706-5.915 3.411-8.857 5.144-1.598.939-1.668 1.37-.715 2.872 1.035 1.628 2.301 2.955 4.047 3.929a594.108 594.108 0 0 1 16.221 9.388c1.547.932 2.75.904 4.281-.015 5.357-3.213 10.752-6.375 16.221-9.388 2.261-1.248 3.601-3.126 4.979-5.445l.002.001zm-43.33.302v.001c.111.142.175.225.259.273 2.047 1.192 4.096 2.381 6.144 3.571 4.098 2.379 8.196 4.759 12.28 7.159 1.066.626 1.906.383 2.883-.184 3.262-1.904 6.533-3.792 9.804-5.68l.012-.007c2.581-1.489 5.161-2.979 7.737-4.476.272-.158.5-.395.735-.641.109-.113.218-.228.335-.337a10.808 10.808 0 0 1-.301-.299c-.154-.159-.272-.279-.41-.363a4007.042 4007.042 0 0 0-6.072-3.525c-4.05-2.347-8.1-4.694-12.129-7.076-1.094-.645-1.922-.379-2.876.176a3726.602 3726.602 0 0 1-10.085 5.854c-2.487 1.44-4.975 2.881-7.459 4.325-.24.138-.455.318-.712.533a17.25 17.25 0 0 1-.425.347v.004c.122.143.21.256.28.345m-77.447-44.139c-.159.13-.315.258-.47.376h-.004c1.121 2.751 2.223 4.164 4.188 5.302 1.878 1.089 3.759 2.172 5.639 3.255a1172.95 1172.95 0 0 1 11.456 6.654c1.262.747 2.259.873 3.571.094 3.863-2.287 7.752-4.528 11.642-6.768 1.967-1.134 3.935-2.267 5.899-3.407 1.953-1.135 3.028-2.97 3.989-5.021a13.356 13.356 0 0 1-.44-.392c-.278-.257-.529-.487-.814-.652a3689.96 3689.96 0 0 0-7.243-4.199c-4.409-2.552-8.819-5.104-13.209-7.69-1.258-.74-2.207-.493-3.348.176-3.866 2.263-7.745 4.507-11.624 6.752a3677.38 3677.38 0 0 0-8.159 4.73c-.385.226-.736.513-1.073.79m5.272 2.556-3.136-1.816v-.008c.384-.267.698-.494.97-.691.461-.333.803-.581 1.167-.792 1.916-1.113 3.835-2.22 5.755-3.327 3.637-2.099 7.275-4.197 10.891-6.331 1.172-.689 2.106-.818 3.34-.09 3.831 2.264 7.686 4.487 11.542 6.71a2218.09 2218.09 0 0 1 5.78 3.339c.272.157.515.364.832.634.181.153.386.327.633.524-4.574 2.842-9.129 5.446-13.665 8.039-2.247 1.285-4.49 2.567-6.728 3.874-5.757-3.332-11.441-6.624-17.381-10.065" clip-rule="evenodd"/>
</svg>
