<svg xmlns="http://www.w3.org/2000/svg" width="550" height="550" fill="none" viewBox="0 0 550 550">
    <g fill="#fff" clip-path="url(#a)">
        <path d="M237.299 110c-23 8.8-38.1 23.4-38.1 40s12.801 26.5 24.9 33.8c.1.1.3.2.5.3 16.1 9 38.5 14.6 63.3 14.6s46.9-5.5 62.9-14.4c.1 0 .2 0 .3-.2 15.7-8.8 25.4-20.8 25.4-34.1 0-26.9-39.8-48.7-88.7-48.7-20.299 0-35.8 3.1-50 8.5zm4.2 5.8h.3c14.6-3 30.2-4.5 45.9-4.5 24.9 0 49.3 3.9 70.5 11.2h.4c1.6 1.2 3.1 2.4 4.5 3.7-22.3-8.6-48.3-13.2-75.5-13.2s-52.6 4.5-74.8 12.9c1.3-1.2 2.7-2.3 4.1-3.4h.2c7.7-2.7 15.8-4.8 24.2-6.6zm-20.7 3.9c4.9-3.2 10.5-6 16.7-8.3l2.7 3.3c-6.7 1.4-13.1 3.1-19.4 5.1zm-20.3 30.3c0-7.8 3.5-15.2 9.8-21.7 10.3-4.2 21.4-7.4 33.1-9.7l14.4 17.4c-17.4 9.2-30.4 26.1-33.8 46.3-14.6-8.5-23.6-19.8-23.6-32.3zm24.9 33c4.8-30.3 31.5-53 62.2-53s57.4 22.9 62.2 53.2c-15.8 8.7-37.8 14.1-62 14.1s-46.6-5.5-62.4-14.3m125.7-.5c-5.1-30.8-32.2-53.9-63.5-53.9-12.599 0-19.8 2.4-28.4 6.7l-14.1-17.1c13.6-2.6 27.9-3.9 42.5-3.9 27.9 0 54.6 4.8 77.2 13.9 0 0 .751.371.851.371l-.351-.371c6.2 6.5 9.8 13.9 9.8 21.7 0 12.6-9.1 24-24 32.5zm3.9-62.7c-20.5-6.6-43.6-10-67.3-10s-31.3 1.5-46 4.5l-2.9-3.5c14-5.1 30.8-8.1 48.9-8.1 27 0 51.2 6.7 67.2 17.1z"/>
        <path d="M505.999 244c-.1-.3-.4-.5-.7-.5l-66.5 7.6-36.8-20.3c14.4-12.3 22.8-27.1 22.8-42.9 0-25.7-18.3-46.3-55.9-63h-.3c-15.8-16-46-26.8-80.6-26.8-23.999 0-37.2 3.4-52 9.1l-18.2-22c-.2-.3-.6-.3-.9-.2l-150.1 87.2s-.2.1-.2.2l-2 2.7q-.3.45 0 .9l67 81c.1.2.3.2.6.3.2 0 .4-.1.5-.3l.7-1v166.6c0 .3.1.5.4.6l44.2 24.7c-3.3 4.4-5.3 9.9-5.3 15.8 0 14.4 11.8 26.2 26.2 26.2s23.4-11.1 24.6-17.1l65.2 35.5h.6l149.6-87.2c.2-.1.3-.4.3-.6V287.2l67.1-39.1c.2-.1.3-.4.3-.6v-2.7c0-.4-.3-.7-.7-.7zm-329.6-10.5-33.7 19.6c-.2.1-.4.4-.3.6 0 .3.1.5.4.6l145.7 80.4h.7l9.2-5.4c1 .7 2 1.3 3.1 1.7l-12.5 7.3-153.4-84.5 38.1-22.4c.9.7 1.8 1.5 2.7 2.2zm30.4 17.3c15.7 16.3 45.3 26.5 78.1 27.1v53.3l-140.4-77.5 33.1-19.2c8.2 6.2 18 11.7 29.1 16.3zm8.4 3.2c16.1 12.6 42.2 20.3 70.3 20.7h2.1c29.1 0 56.4-7.9 73-21.1 1.7-.6 3.4-1.2 5-1.9-16.3 15.4-45.8 24.8-78.1 24.8s-61.2-9.3-77.7-24.4c1.7.6 3.3 1.3 5.1 1.9zm72.3 11.7c25.1 0 48.7-3.9 69-10.6-16.6 11.4-41.8 18.2-68.7 18.2h-1.5v-7.6zm-2.6 7.6c-25.5-.5-49.3-7-65.2-17.8 19.3 6.3 41.6 9.9 65.2 10.2zm112.2-38.6 31.2 17.2-106.4 62c-1.4-6.9-7.5-12.1-14.8-12.1s-15.1 6.8-15.1 15.1c0 5.1 2 8.6 5.2 11.4l-8.4 4.9-2.6-1.4v-54h1.5c34.2 0 65.4-10.6 81.5-27.6 10.5-4.4 19.9-9.7 27.8-15.7zm-103.7 82.3c0-7.6 6.1-13.7 13.7-13.7s13.7 6.1 13.7 13.7-6.1 13.7-13.7 13.7-13.7-6.1-13.7-13.7m9.9 14.6c1.2.3 2.5.5 3.8.5 7 0 12.9-4.8 14.6-11.2l117.1-68.4 63.2-7.2-146.7 85.4-63.1 7.3 11-6.4zm133.9-79.8-115.1 67.2c0-.7.2-1.3.2-2v-1.6l107.9-62.9c.2-.1.4-.4.3-.6s-.1-.5-.4-.6l-31.8-17.5c.9-.7 1.7-1.3 2.5-2l36.4 20.1zm-13.9-63.9c0 15.6-8.4 30.1-22.7 42.2-.099.084-.388.343-.7.6 0-.1 0 .1 0 0-8.5 7-19.1 13.3-31.2 18.4h-.1c-22.6 9.5-50.7 15.1-81 15.1h-2.4c-25.3-.2-49-4.4-69.2-11.5-.1 0-.499-.15-.499-.15l-.501-.15c-2.5-.9-4.9-1.8-7.3-2.8l-.3-.3c-.2-.2-.5-.3-.8-.1-10.5-4.4-19.8-9.6-27.7-15.5l-.399-.35s-.673-.573-.801-.65c-1-.6-1.9-1.4-2.8-2.1-.283-.22-.399-.36-.399-.36s-.399-.367-.601-.54c-14-12-21.899-26.3-21.899-41.7 0-38.4 44.399-58.5 54.999-62.8-1.1 1.1-2.1 2.3-3.1 3.5-4.7 2-49.299 21.7-49.299 59.1 0 16.4 8.199 29.3 22.099 41.1.067.057.5.4.5.4 1.1.9 2.2 1.8 3.4 2.7.079.059.518.313.5.3 24.3 18.3 63.1 30.1 106.8 30.1s81.8-11.6 106.2-29.6c.2 0 .3-.1.4-.3 16.7-12.5 26.6-28 26.6-44.7s-9.099-38.8-47.6-57.2h-.2c-.8-1.1-1.6-2.1-2.5-3.1 35.4 16.2 52.6 36.1 52.6 60.6zm-244.9 40.7 18.3-10.8c-.4 1.4-.7 2.9-.9 4.4l-14.7 8.6c-.9-.7-1.8-1.4-2.7-2.2m17.3-4.7v2.1c0 8.3 2.6 13.7 4.3 16.3-6.4-3.2-12.3-6.8-17.5-10.6l13.3-7.8zm6.9 19.7c0-.1 0-.3-.2-.4 0 0-5.4-5.7-5.4-17.2s9.3-26.1 26.3-35.6v2.2c-10 5.8-17 12.7-20.9 20.3q-.3.15-.3.6c-1 2.1-1.8 4.3-2.3 6.6 0 .1-.1.3 0 .4-.4 1.9-.6 3.7-.6 5.6 0 6.6 2.5 13.3 7.2 19.3-1.3-.6-2.5-1.1-3.7-1.7zm20.7-49.4c0 2.1.2 4.1.4 6.1l-19 11.1c3.8-6.3 10.1-12.2 18.6-17.2m-19.8 19.6 20.4-12c.2 1.2.4 2.5.6 3.7h-.3l-22.7 13.2c.5-1.7 1.1-3.4 1.9-5zm5.4 32.6c0-.1 0-.2-.1-.3-5.4-6.2-8.2-13.1-8.2-20s.2-3.5.6-5.3l23.8-13.8c5.501 24 30.501 48 60.1 50.4v3.7c-28.5-.3-54.7-5.7-76-14.6zm77.4 11h1.4c30.1 0 55.4-20.7 62.4-48.6l24.7 13.6c.2 1.2.3 2.4.3 3.7 0 12.5-8.1 19.9-8.2 20 0 0-.1.2-.2.3-22 9.2-49.4 14.6-79 14.6h-1.5v-3.6zm86.2-42.9-21.1-11.7c.4-2.9.7-5.8.7-8.8 9.9 5.8 16.9 12.9 20.4 20.4zm-21.4-10.2 22.2 12.3c.5 1.3.9 2.7 1.2 4.1l-24-13.3c.2-1 .4-2.1.6-3.1m25.4 21.8c0-1.3-.1-2.7-.3-4v-.4c-.3-2-.8-3.9-1.6-5.8-3.4-8.8-11-16.8-22.4-23.4v-2.1c13.9 7.7 22.7 17.5 25.6 28.2v.4c.6 2.4.9 4.7.9 7.2 0 5.9-1.8 11.8-5.5 17.3 0 0 0 .2-.1.3-1.1.5-2.1 1-3.2 1.5 2.5-3.1 6.7-9.6 6.7-19zm3.5-.1v-.7l12.5 6.9c-5.1 3.7-10.9 7.2-17.2 10.3 3.1-5.3 4.7-10.8 4.7-16.5m13.7 5.3-13.8-7.6c0-1.3-.3-2.5-.5-3.7l16.9 9.4c-.8.7-1.7 1.4-2.6 2zm3.8-3-18.5-10.2c-3-11.2-12.3-21.4-27-29.4 0-.4 0-.8-.1-1.3 17.4-9.5 28.2-22.7 28.2-37.4 0-6-1.9-11.9-5.3-17.3 28.5 14 44.9 34 44.9 55 0 18.8-14.199 34.4-22.1 40.6zm-47-40.2c.1 1.7.2 3.3.2 4.9 0 4.9-.6 9.7-1.7 14.3v.5c-6.7 27.6-31.6 48.2-61.2 48.2s-63-28.3-63-63v-3.4c.3-.2.5-.6.3-.9 0-.1-.2-.2-.3-.3v-.5c16.5 8.8 38.7 14.1 63.1 14.1s46.2-5.3 62.7-13.9zm-127.2.7c-13.5 7.4-22.4 16.8-26 27l-20 11.8c-13.5-11.5-21.3-25.2-21.3-39.9 0-33 35.9-52.1 46.1-56.9-4.2 5.9-6.5 12.4-6.5 19.2 0 14.5 10.6 27.7 27.7 37.1zm155.3-38.8c0 27.9-40.7 50.6-90.8 50.6s-90.8-22.7-90.8-50.6c0-7 2.7-14.1 7.6-20.3h.1c.3-.1.4-.4.4-.6 6.8-8.2 17.4-15.3 30.5-20.4l.3-.1c14.7-5.7 32.6-9.1 51.8-9.1 50.1 0 90.8 22.7 90.8 50.6zm-161.7-63.6 17.5 21.2c-10.1 4.1-18.7 9.2-25.2 15.2H209s-14.6 5.3-29 15.7c-19.2 13.9-29.5 30.9-29.5 49.3 0 17.2 7.999 30.3 22.099 42.5l-38.3 22.5-66-79.8zm-84.7 169-66.1-79.9 1.1-1.5 66.1 79.9zm66.7 233c-13.7 0-24.8-11.1-24.8-24.8 0-6.6 2.1-11.3 5.5-15.5l.1-.1c3.3-4 7.8-7 13-8.3h.1c1.9-.5 4-.8 6.1-.8 13.7 0 24.8 11.1 24.8 24.8s-11.1 24.8-24.8 24.8zm75-141.2v131.6l-52.8-29.2c-4.6-7.4-12.8-12.3-22.2-12.3l-45.6-25.2V280.6l120.6 66.5zm-51.5 104.8 51.5 28.4v2.5l-50.2-27.6c-.4-1.1-.8-2.3-1.4-3.3zm-70.5-39.8-2.6 1.3v-135l2.6 1.4zm.7 1.2 43.6 24.1c-1.2.1-2.4.3-3.5.6l-42.6-23.5zm71.7 43.8 50 27.5h.7c.2-.1.3-.4.3-.6V346.8c0-.3-.1-.5-.4-.6l-122-67.3-3.9-2.2c-.2-.1-.5-.1-.7 0s-.3.4-.3.6v137.6s0 .1.2.2l.1.1 42.5 23.5c-4.7 1.5-8.8 4.3-11.9 8l-44-24.6V255l153.4 84.5v166.9l-64.4-35.1q1.2-3.75 1.2-7.8c0-2.7-.3-4.3-.8-6.4zm213.6-37.2-148.2 86.4V342.9l22.7-2.6-10.4 5.8c-.2.1-.4.4-.4.6V484c0 .2.1.5.3.6h.7l123.8-69.5.2-.2V294.4l11.1-6.5V420zm-134.9 60.4 119.1-67 2.5 1.2-121.6 68.3zm122.4-66.9-2.6-1.3V296.8l2.6-1.5v118.3zm-4-1.3-118.4 66.6V347.2l13-7.2 40.4-4.6h.3l64.7-37.8zm-65.3-78.2-66.4 7.5v-1.8l66-7.6h.3l149.3-87v2l-149.2 87zM201.301 74.5c9.4 0 17-7.6 17-17s-7.6-17-17-17-17 7.6-17 17 7.6 17 17 17m0-32.6c8.6 0 15.6 7 15.6 15.6s-7 15.6-15.6 15.6-15.6-7-15.6-15.6 7-15.6 15.6-15.6M80.3 154.7c11.1 0 20.2-9.1 20.2-20.2s-9.1-20.2-20.2-20.2-20.2 9.1-20.2 20.2 9.1 20.2 20.2 20.2m0-39c10.4 0 18.8 8.4 18.8 18.8s-8.4 18.8-18.8 18.8-18.8-8.4-18.8-18.8 8.4-18.8 18.8-18.8"/>
        <path d="M76 244c-18.1 0-32.8 14.7-32.8 32.8s14.7 32.8 32.8 32.8 32.799-14.7 32.799-32.8-14.7-32.8-32.8-32.8m0 64.2c-17.3 0-31.4-14.1-31.4-31.4s14.1-31.4 31.4-31.4 31.399 14.1 31.399 31.4-14.1 31.4-31.4 31.4M459 217.5c11.6 0 21.1-9.5 21.1-21.1s-9.5-21.1-21.1-21.1-21.1 9.5-21.1 21.1 9.5 21.1 21.1 21.1m0-40.8c10.9 0 19.7 8.8 19.7 19.7s-8.8 19.7-19.7 19.7-19.7-8.8-19.7-19.7 8.8-19.7 19.7-19.7m-41-78.3c8.5 0 15.4-6.9 15.4-15.4s-6.9-15.4-15.4-15.4-15.4 6.9-15.4 15.4 6.9 15.4 15.4 15.4m0-29.4c7.7 0 14 6.3 14 14s-6.3 14-14 14-14-6.3-14-14 6.3-14 14-14m-67.699 293.2c0 7.9 6.5 14.4 14.4 14.4s14.4-6.5 14.4-14.4-6.5-14.4-14.4-14.4-14.4 6.5-14.4 14.4m14.4-13c7.2 0 13 5.8 13 13s-5.8 13-13 13-13-5.8-13-13 5.8-13 13-13"/>
    </g>
    <defs>
        <clipPath id="a">
            <path fill="#fff" d="M43 40h464v469H43z"/>
        </clipPath>
    </defs>
</svg>
