<svg xmlns="http://www.w3.org/2000/svg" width="550" height="550" fill="none" viewBox="0 0 550 550">
    <path fill="#fff" fill-rule="evenodd" d="M133.859 361.943q0-1.445.006-2.896v-.001c.007-2.076.014-4.16-.011-6.241-.026-2.165-.066-4.33-.105-6.495a651 651 0 0 1-.134-10.079c-.009-2.602-.769-4.76-2.607-6.669-2.255-2.34-4.373-4.822-6.42-7.353-1.35-1.669-2.58-2.104-4.786-1.3-9.937 3.623-21.024.332-27.693-7.948-8.467-10.523-6.433-26.662 4.33-34.85 2.473-1.882 5.159-3.236 8.08-4.218 2.376-.794 2.442-.852 2.402-3.343q-.127-8.139-.368-16.277c-.955-32.643-1.918-65.286-2.9-97.924-.217-7.2-.472-14.398-.726-21.597q-.111-3.105-.219-6.211c-.102-2.949-.116-2.953-3-3.788l-.01-.004c-15.416-4.475-22.809-21.383-15.483-35.515 6.829-13.174 23.577-16.788 34.823-9.493 3.916 2.54 7.1 5.692 9.138 9.83.928 1.887 2.042 2.389 3.942 2.114 4.763-.694 9.53-1.355 14.297-2.015l4.458-.618q4.535-.63 9.071-1.255c5.378-.743 10.757-1.485 16.135-2.244q7.946-1.122 15.891-2.253h.001c11.396-1.62 22.793-3.24 34.195-4.798 2.291-.31 3.104-1.447 3.606-3.503 3.139-12.778 15.779-20.13 27.35-18.377 12.01 1.816 19.842 11.5 20.983 21.103.946 7.992-1.389 14.821-6.491 20.77-1.263 1.476-3.013 2.577-4.703 3.641l-.004.002-.448.283c-1.474.932-1.851 2.122-1.793 3.729.257 6.9.479 13.804.652 20.708.049 1.998.906 3.215 2.7 4.152 8.569 4.474 17.112 8.998 25.655 13.522l.026.014q4.82 2.554 9.643 5.103l.032.017.002.001c14.81 7.83 29.619 15.661 44.433 23.483l7.451 3.933.006.003c13.91 7.344 27.82 14.688 41.769 21.962 1.421.742 1.688 1.599 1.705 3.002.218 20.029.471 40.053.728 60.082.015 1.046.075 2.09.136 3.174v.001q.046.788.086 1.611c1.701.093 2.828-.746 3.916-1.556.474-.353.941-.7 1.444-.961 1.18-.617 2.288-1.374 3.489-2.195h.001c.546-.373 1.112-.76 1.713-1.153l35.617 56.214.783 1.237 1.225 1.932 32.754 51.697c-20.515 13.543-41.494 26.158-62.558 38.823h-.001c-11.614 6.984-23.253 13.983-34.855 21.161-.073-.327-.155-.622-.23-.895-.145-.523-.267-.966-.267-1.409-.009-2.423 0-4.845.01-7.268.019-4.779.038-9.557-.086-14.333-.057-2.206.666-3.352 2.46-4.458 5.973-3.674 11.903-7.416 17.834-11.159l.005-.003.026-.016q3.6-2.273 7.203-4.539 1.501-.943 3.008-1.878l.002-.001a447 447 0 0 0 4.263-2.672c.307-.195.581-.446.938-.773.195-.179.414-.38.678-.608-.293-.211-.557-.417-.807-.612-.487-.381-.918-.717-1.4-.955a4581 4581 0 0 0-11.573-5.661l-.025-.013-.008-.003c-6.145-2.999-12.289-5.997-18.412-9.037-2.007-.995-3.579-.835-5.47.364-15.53 9.843-31.09 19.637-46.651 29.431l-.008.006-12.9 8.121q-5.106 3.215-10.209 6.434c-11.363 7.164-22.724 14.328-34.133 21.418-2.211 1.372-3.139 2.877-2.917 5.51.337 3.925.417 7.885.355 11.828-.035 2.353.826 3.769 2.806 5.03 10.035 6.398 14.195 18.386 10.039 29.486-3.436 9.182-10.278 14.657-19.98 15.936-9.319 1.229-17.231-1.967-22.853-9.56-6.433-8.689-6.771-18.013-1.647-27.519l.008-.013c1.111-2.061 1.152-2.136-.554-4.107a24230 24230 0 0 0-26.373-30.387q-4.925-5.663-9.859-11.315l-.003-.003c-7.28-8.343-14.56-16.687-21.756-25.099-2.89-3.379-6.242-5.928-10.136-7.966-9.88-5.161-19.738-10.371-29.773-15.674l-.076-.04c-3.605-1.905-7.233-3.822-10.893-5.753zm188.562-29.171c.291.114.567.215.832.313.531.195 1.015.372 1.477.597a74716 74716 0 0 1 41.194 20.158l17.626 8.637.181.088q17.534 8.595 35.074 17.182c.346.171.706.318 1.065.466.557.228 1.112.456 1.616.769 1.204.741 1.199 1.678.04 2.562-.648.493-1.348.923-2.047 1.351l-.021.013-.409.252-6.772 4.211a5700 5700 0 0 1-25.667 15.906c-1.505.924-2.278 1.954-2.251 3.774.059 3.552.069 7.105.08 10.657.007 2.368.014 4.736.036 7.103.002.414.108.826.23 1.299.062.242.128.501.187.784.286-.137.547-.256.79-.365l.001-.001h.001c.478-.216.882-.399 1.259-.629a59193 59193 0 0 0 62.307-37.624c.482-.294.916-.67 1.375-1.068v-.001c.229-.198.465-.403.716-.605-.206-.365-.393-.707-.571-1.032a33 33 0 0 0-.996-1.739 4294 4294 0 0 0-8.858-14.004q-8.04-12.683-16.082-25.365l-16.082-25.366q-4.119-6.506-8.235-13.013c-4.638-7.329-9.275-14.659-13.925-21.983-.324-.514-.728-.979-1.132-1.444-.192-.221-.385-.443-.568-.67-.488 6.598-.533 12.899-.444 19.199.013.915.524 1.896 1.03 2.713 3.27 5.276 6.577 10.532 9.883 15.786l.085.135 1.807 2.873q6.136 9.762 12.275 19.523 6.15 9.776 12.296 19.554.044.069.094.138l.056.076c.132.179.267.361.276.545.018.457.036 1.061-.226 1.345-.249.271-.866.307-1.301.267-.242-.024-.47-.169-.699-.315-.116-.073-.231-.147-.349-.205l-23.902-11.695a237350 237350 0 0 0-48.133-23.549 5760 5760 0 0 0-7.901-3.854l-.007-.003-.004-.003a3081 3081 0 0 1-14.954-7.316 10 10 0 0 0-.59-.259l-.001-.001c-.858-.355-1.765-.731-1.984-1.938.846-.91 1.636-.504 2.403-.109l.138.07.132.066q2.78 1.358 5.557 2.723l.019.01q2.258 1.11 4.521 2.218l11.98 5.851.297.146q18.32 8.95 36.642 17.894l2.697 1.317.081.04c9.531 4.654 19.066 9.31 28.604 13.948.463.225.96.379 1.634.587l.001.001c.362.112.775.239 1.26.402-.222-.417-.396-.751-.542-1.031-.271-.518-.443-.848-.639-1.162q-5.485-8.77-10.972-17.538-5.503-8.79-11.001-17.583c-.968-1.545-2.251-2.655-3.916-3.463-11.818-5.738-23.612-11.523-35.404-17.307l-2.345-1.15a64 64 0 0 1-2.688-1.423l-.001-.001h-.001c-.416-.228-.843-.463-1.289-.703 1.318-1.432 2.388-.892 3.401-.382l.267.134q3.13 1.526 6.253 3.06l.012.007c2.783 1.366 5.565 2.731 8.356 4.081.884.428 1.795.797 2.72 1.17q.64.256 1.285.526c.715-2.695.164-53.111-.609-56.064q-.542.288-1.072.559h-.001c-.776.399-1.531.786-2.248 1.235q-10.73 6.746-21.458 13.499l-.012.008c-14.298 8.999-28.597 17.999-42.919 26.959-2.22 1.39-3.223 2.882-3.174 5.657.306 17.39.514 34.783.722 52.174q.108 9.134.224 18.266.053 4.292.186 8.583c.015.478.099.953.212 1.585v.001c.06.335.127.715.197 1.162 16.885-10.62 33.384-20.992 49.883-31.36.385-.243.786-.456 1.188-.67l.004-.002q.3-.158.597-.322c-1.425-1.328-2.42-1.914-3.459-2.42a7938 7938 0 0 0-12.096-5.902l-.013-.007a10053 10053 0 0 1-8.106-3.952l-.702-.343c-1.804-.88-3.61-1.76-5.398-2.672l-.062-.031c-.849-.435-1.761-.901-1.124-2.562zm-51.276 98.262.002-.584c.003-.964.005-1.768-.003-2.573q-.153-11.263-.311-22.526c-.187-13.506-.375-27.012-.546-40.518-.333-26.64-.662-53.28-.902-79.92-.022-2.486-.848-3.88-3.081-5.043-11.947-6.228-23.852-12.53-35.757-18.832l-.006-.003q-6.33-3.352-12.664-6.7-22.766-12.028-45.532-24.042l-2.824-1.491-.033-.017a25119 25119 0 0 0-33.267-17.54c-.374-.197-.784-.322-1.307-.482-.278-.085-.587-.179-.94-.299-.022.507-.049.982-.074 1.435-.052.919-.099 1.747-.09 2.574a48527 48527 0 0 0 .774 70.447c.277 24.174.554 48.347.775 72.521.023 2.46.751 4.022 2.975 5.177 10.334 5.376 20.637 10.815 30.937 16.253l.015.007 6.5 3.431a60482 60482 0 0 1 32.813 17.338l.042.022.055.029 12.351 6.53a60912 60912 0 0 0 47.366 25.001c.427.227.888.388 1.518.61.346.121.742.26 1.213.438v-.004zm-16.096-312.345h-.431q.001-1.42.009-2.841c.012-2.208.023-4.416-.027-6.625-.058-2.775-.36-3.024-2.997-3.335-9.701-1.154-16.645-6.127-20.726-15.034-1.07-2.33-1.283-2.508-3.832-2.157-9.275 1.27-18.55 2.57-27.821 3.88a42342 42342 0 0 0-46.846 6.642c-2.386.34-4.771.69-7.155 1.04h-.001a913 913 0 0 1-11.869 1.691c-1.617.217-2.451.892-2.758 2.509l-.059.316c-.309 1.638-.626 3.326-1.339 4.794-1.132 2.34-.564 4.005 1.052 5.856 11.866 13.577 23.698 27.185 35.529 40.79v.001l.031.035q6.879 7.911 13.76 15.82c3.306 3.8 3.325 3.788 7.486 1.163l.106-.066c13.39-8.449 26.788-16.878 40.191-25.309l2.349-1.478q2.703-1.702 5.404-3.408h.001l.002-.002c5.7-3.597 11.401-7.195 17.152-10.714 2.211-1.354 3.068-3.01 2.842-5.59-.161-1.841-.124-3.699-.086-5.557v-.001c.016-.807.033-1.615.033-2.42m11.943 44.444c2.484.461 68.785 35.284 71.918 37.745-.423.301-.82.59-1.202.869l-.003.002c-.808.59-1.55 1.131-2.324 1.619-12.625 7.963-25.257 15.913-37.889 23.864l-7.177 4.517q-2.632 1.656-5.269 3.308h-.001c-4.845 3.037-9.691 6.074-14.488 9.186-1.704 1.106-3.054 1.185-4.87.222a25154 25154 0 0 0-51.369-27.185q-10.146-5.36-20.293-10.724c-.482-.256-.935-.57-1.511-.972-.304-.211-.642-.447-1.037-.71l21.303-13.417.177-.111c14.051-8.85 27.967-17.614 41.852-26.357 1.128.817 1.091 1.755 1.057 2.621a8 8 0 0 0-.009.567c.219 6.712.416 13.423.613 20.135l.27 9.156q.01.335.017.672c.017.866.034 1.737.214 2.569.092.427.393.811.696 1.195.137.174.274.349.392.528l.75-.227q0-.463.006-.928v-.001c.006-.62.012-1.24-.006-1.859-.866-29.193-1.731-58.382-2.615-87.575l-.002-.081c-.158-5.234-.158-5.244 4.93-6.468.292-.07.593-.105.995-.151.234-.027.501-.058.821-.102.517 7.558.7 15.045.881 22.505l.001.003c.079 3.245.158 6.484.264 9.722.196 5.993.364 11.988.532 17.982v.003c.136 4.853.272 9.707.423 14.56.249 8.036.518 16.068.788 24.14v.007l.273 8.159c1.114.137 1.665-.32 1.762-1.181.098-.855.072-1.727.046-2.595l-.01-.358q-.224-7.92-.453-15.837v-.002q-.229-7.908-.453-15.818a63 63 0 0 1-.006-2.087q.005-.545.006-1.11m2.398 102.999q-.817-.41-1.606-.802h-.001a141 141 0 0 1-3.237-1.644q-11.58-6.119-23.157-12.241l-.007-.004-.003-.001a42589 42589 0 0 0-37.79-19.966c-8.452-4.459-16.914-8.902-25.375-13.344l-.004-.003q-8.783-4.608-17.56-9.226c-1.776-.937-1.834-1.856-.12-2.962a312 312 0 0 1 5.267-3.297c1.175-.726 2.351-1.451 3.52-2.186 21.196-13.351 42.384-26.707 63.576-40.067q3.155-1.99 6.306-3.987c4.647-2.942 9.295-5.885 13.976-8.778 1.545-.954 2.167-2.095 2.02-3.876-.115-1.397-.152-2.8-.188-4.202l-.001-.002c-.02-.767-.04-1.534-.073-2.301-.038-.89-.097-1.778-.157-2.685v-.008q-.045-.671-.087-1.36c-2.562.75-116.976 72.714-119.205 74.903 1.286 1.378 2.938 2.156 4.577 2.927.562.265 1.122.529 1.665.815 13.05 6.923 26.117 13.813 39.183 20.704l.01.005A32210 32210 0 0 1 210.204 248c18.945 10.005 37.892 20.011 56.793 30.098 2.393 1.279 4.173 1.203 6.455-.257 9.198-5.885 18.448-11.692 27.697-17.497l.005-.004q5.795-3.636 11.583-7.279 39.302-24.758 78.597-49.528c.935-.591 1.858-1.199 2.796-1.818h.001q.677-.447 1.368-.9c-2.078-2.073-126.558-67.763-129.168-68.207-.027.241-.062.481-.097.721-.073.51-.146 1.017-.143 1.521.008.954.041 1.908.073 2.862v.001c.052 1.512.104 3.024.06 4.534-.062 2.083.906 3.188 2.673 4.116a9513 9513 0 0 1 29.483 15.554l.007.003q8.276 4.381 16.557 8.752c11.278 5.95 22.562 11.891 33.845 17.832l.015.007 20.85 10.981c2.273 1.199 2.335 2.14.213 3.472q-4.671 2.934-9.347 5.861l-.012.007q-5.1 3.192-10.19 6.391a194532 194532 0 0 0-48.017 30.224l-.071.045-24.027 15.126c-1.955 1.231-3.917 2.456-5.892 3.69l-.008.005-2.904 1.815zm111.812 98.333-.009-.437-.008-.438q-1.366-.663-2.73-1.331l-.003-.001a469 469 0 0 0-7.564-3.641c-1.204-.56-2.245.098-3.257.738l-.042.026c-2.44 1.545-4.887 3.08-7.334 4.615a2360 2360 0 0 0-5.44 3.417l-11.726 7.396-.005.003a52396 52396 0 0 1-56.116 35.363c-.595.373-1.621.75-2.06.488-.484-.293-.698-1.319-.72-2.038-.118-3.65-.16-7.303-.202-10.953v-.002l-.006-.584q-.263-22.644-.522-45.288t-.522-45.288q-.023-2.143-.043-4.286c-.037-3.998-.074-7.997-.179-11.991-.044-1.688.533-2.767 1.998-3.597 1.522-.859 2.994-1.804 4.466-2.749l.001-.001q.78-.5 1.563-.997l25.562-16.11 25.507-16.076.017-.011.003-.002c13.509-8.511 27.017-17.023 40.548-25.503.239-.15.478-.363.722-.579.703-.624 1.44-1.277 2.284-.531.679.599.741 2.117.759 3.227.147 9.678.27 19.358.393 29.038v.037q.098 7.81.202 15.623c.009.637.078 1.275.157 1.996.036.334.074.685.109 1.063.322-.138.6-.246.847-.342.438-.17.775-.301 1.076-.488.8-.503 1.591-1.022 2.381-1.542 1.437-.944 2.873-1.887 4.368-2.729 1.785-1.008 2.348-2.345 2.322-4.352-.193-13.289-.349-26.578-.506-39.867q-.117-9.963-.24-19.926c-.009-.598-.092-1.196-.193-1.922v-.003a52 52 0 0 1-.171-1.316c-.512.291-.971.546-1.392.781-.784.436-1.44.8-2.076 1.199-8.522 5.357-17.042 10.723-25.561 16.088l-6.997 4.407a552104 552104 0 0 0-63.355 39.902q-3.445 2.171-6.886 4.347l-.003.002c-5.711 3.609-11.421 7.217-17.162 10.774-1.532.95-2.256 2.06-2.083 3.845.069.722.059 1.455.05 2.187-.005.356-.01.713-.005 1.067l.474 41.369.476 41.513.001.05c.221 19.421.443 38.843.683 58.26.008.733.087 1.463.183 2.362l.001.001c.051.48.108 1.009.162 1.611 35.345-22.254 70.184-44.192 105.01-66.122l.723-.455 2.066-1.302zM173.053 180.266c.238.306.504.648.817 1.042-.605.411-1.168.802-1.706 1.175-1.039.722-1.983 1.377-2.954 1.989l-1.462.922-.005.003c-11.357 7.16-22.716 14.321-34.115 21.412-1.274.795-1.634 1.625-1.612 3.095.309 22.094.556 44.189.802 66.283l.046 4.153c.009.612-.05 1.224-.125 2.01-.039.405-.083.856-.123 1.378-.35-.345-.644-.632-.899-.882a58 58 0 0 1-1.157-1.152c-3.042-3.148-6.278-6.047-10.616-7.259-2.118-.591-2.624-1.914-2.678-3.947-.436-16.223-.925-32.443-1.415-48.663v-.019l-.325-10.783q-.937-31.223-1.887-62.442l-.001-.03-.004-.157-.621-20.466c-.088-2.924-.084-2.926 2.47-4.134l.074-.035a35 35 0 0 0 2.017-1.063v-.001c.543-.301 1.087-.603 1.642-.881 2.046-1.025 2.326-.963 3.996.951 2.216 2.541 4.423 5.092 6.63 7.644q2.206 2.551 4.416 5.098 9.407 10.831 18.818 21.659 9.415 10.833 18.825 21.667c.367.425.712.868 1.15 1.43v.001zm211.941 98.853c1.412 3.477 66.96 106.622 68.62 108.141 4.418-2.016 22.964-14.115 24.429-15.98q-.155-.3-.311-.617v-.001c-.232-.468-.471-.952-.759-1.402-8.329-13.169-16.668-26.329-25.006-39.489-13.458-21.241-26.915-42.482-40.391-63.71-.366-.58-.817-1.104-1.31-1.677h-.001a39 39 0 0 1-.753-.894l-11.346 7.233zM121.329 117.716c.238.332.454.65.66.954.398.587.762 1.123 1.183 1.608 16.081 18.551 32.176 37.092 48.271 55.633q4.059 4.676 9.036.8c.042-.034.07-.087.143-.225.051-.095.124-.232.239-.432-9.46-11.017-19.025-22.001-28.607-33.005-8.812-10.12-17.64-20.257-26.414-30.452.222-.415.451-.823.678-1.23 1.417-2.533 2.786-4.981 2.128-8.209l-.924.072c-.932.072-1.805.14-2.681.221-1.181.106-2.233-.018-3.099-1.528 17.054-2.448 34.04-4.826 51.01-7.201 18.666-2.613 37.311-5.224 56.003-7.921l-.665-6.163-.09-.83-46.451 6.523-.052.007-60.732 8.53c.514-2.113 2.009-2.325 3.47-2.532.95-.135 1.885-.267 2.528-.918-1.971-7.26-11.655-13.777-20.335-13.773-10.931 0-19.98 6.576-22.79 16.784-2.62 9.519.546 20.455 11.05 26.6 8.122 4.75 19.75 3.663 26.441-3.317zm10.825 172.978c.63-2.326.022-4.156-1.155-5.821-2.308-3.267-5.217-5.914-8.751-7.796-.812-.433-1.714-.697-2.539-.939v-.001a24 24 0 0 1-1-.308c-.382.326-.568.791-.741 1.224-.317.791-.589 1.473-1.945.987q-.028-.34-.063-.693a23 23 0 0 1-.114-1.553q-.17-6.04-.33-12.081v-.001c-.148-5.536-.296-11.073-.461-16.61-.586-19.834-1.183-39.669-1.781-59.506v-.015l-.461-15.301c-.435-14.395-.879-28.785-1.327-43.179-.107-3.362-.174-3.415-3.628-3.268l-.198.008h-.001q-.197.006-.391.018c-2.78.182-2.944.307-2.86 3.215.644 22.377 1.297 44.76 1.967 67.137q.476 15.975.956 31.949l.001.012v.011c.482 16.059.964 32.118 1.436 48.179.013.424-.094.852-.195 1.256-.045.18-.088.356-.12.524-1.351.089-1.487-.685-1.62-1.435-.093-.532-.185-1.053-.706-1.246-11.331 1.447-19.59 14.27-17.201 26.808 1.23 6.452 4.733 11.54 10.274 14.905 7.926 4.809 16.144 4.907 23.967.422 2.713 4.165 5.954 7.544 9.502 10.763.164-1.116.186-2.192.208-3.244.017-.833.034-1.65.12-2.462.427-4.067-1.722-6.606-5.119-8.862l.134-.143c2.923-3.123 5.885-6.287 4.324-11.041-.548-.281-1.19-.272-1.829-.263-1.137.015-2.259.031-2.802-1.593l2.164-.433.017-.003.02-.004c.825-.166 1.641-.329 2.465-.492v-6.674h-5.363c.795-1.606 2.118-1.827 3.454-2.051.574-.096 1.15-.193 1.687-.4zm41.942-77.139.002.001c1.167.658 2.145 1.209 3.135 1.734q9.682 5.111 19.365 10.218l.02.01q9.672 5.1 19.341 10.205l9.076 4.79.002.001c13.982 7.378 27.965 14.756 41.915 22.195 1.732.924 2.979.821 4.582-.222 4.37-2.848 8.789-5.619 13.208-8.389l.002-.001q2.019-1.264 4.035-2.532l20.4-12.829q23.614-14.845 47.221-29.702c.533-.337 1.031-.731 1.6-1.181.27-.214.556-.441.869-.68a50 50 0 0 1-.944-.643c-.575-.397-1.053-.728-1.56-.995-4.874-2.581-9.754-5.153-14.634-7.726l-.013-.006-.088-.047q-3.886-2.048-7.771-4.098-9.882-5.218-19.762-10.441-9.87-5.219-19.741-10.431a8457 8457 0 0 0-25.139-13.232c-.398-.209-.838-.332-1.369-.48-.27-.076-.564-.158-.887-.261.247 1.54 1.132 1.947 1.938 2.318.152.07.301.138.442.213a54497 54497 0 0 0 60.93 32.23c1.734.916 3.472 1.821 5.211 2.727h.002a863 863 0 0 1 5.794 3.036c1.367.724 1.66 1.589.666 2.522-1.096 1.029-2.124 2.133-3.151 3.236-2.323 2.495-4.646 4.99-7.767 6.634-1.762.927-3.437 2.017-5.113 3.106l-.001.001c-.643.418-1.285.836-1.932 1.244l-7.682 4.843-.042.027-.006.004c-15.527 9.79-31.055 19.58-46.554 29.416-1.296.822-2.184.724-3.472.036-20.291-10.794-40.59-21.561-60.939-32.244l-.86-.45c-5.144-2.692-10.254-5.367-14.018-9.997a3 3 0 0 0-.421-.393q-.122-.098-.237-.202c-1.931-1.816-1.9-2.34.28-3.712l25.929-16.306 25.913-16.297q3.432-2.16 6.855-4.331l.007-.004q2.57-1.628 5.143-3.253l.066-.041c1.005-.634 2.003-1.264.982-3.089a924323 924323 0 0 0-82.983 52.255v.004c.8.445 1.507.844 2.155 1.209m198.57 20.197q.678-.386 1.363-.782c.879 2.542 1.871 74.505 1.144 77.642-1.042-.254-.992-1.01-.946-1.692.01-.152.02-.301.018-.439-.08-4.56-.13-9.122-.18-13.683l-.06-5.263-.426-36.705q-.002-.273.007-.546a7 7 0 0 0-.016-.933c-.124-1.114-.844-1.625-1.86-1.283-1.297.439-2.616.802-3.936 1.165-3.031.834-6.061 1.668-8.812 3.422-11.592 7.393-23.228 14.714-34.865 22.035q-5.965 3.752-11.928 7.509-1.743 1.099-3.484 2.202l-.016.01-.001.001c-3.75 2.373-7.502 4.747-11.284 7.066-1.665 1.026-2.446 2.211-2.415 4.289.198 12.401.367 24.803.537 37.206v.01c.176 12.852.351 25.705.559 38.557.027 1.631.507 3.274.977 4.884q.127.433.249.862c.44 1.541.963 3.06 1.51 4.65l.001.004c.254.736.513 1.487.771 2.263.262-.079.514-.138.754-.194.471-.111.892-.21 1.239-.427 12.706-8.015 25.403-16.045 38.101-24.075l.33-.209 12.35-7.809.17-.108h.001c.862-.547 1.728-1.095 2.653-1.503.273-.121.623-.062 1.04.008.213.035.444.074.691.094-2.753 2.628-68.287 43.707-70.676 44.275q-.035-.474-.078-.937c-.058-.655-.116-1.297-.122-1.94q-.157-13.498-.311-26.995v-.001c-.282-24.745-.565-49.49-.901-74.236-.031-2.384.768-3.729 2.758-4.977a31847 31847 0 0 0 60.113-37.804q11.021-6.943 22.044-13.882c.955-.601 1.939-1.162 2.937-1.731m-97.02 223.392c.018-.652.037-1.312.478-1.804 6.894 2.329 14.067 13.818 10.857 25.528-3.543 12.916-16.326 19.381-27.732 16.606-12.144-2.953-20.002-14.692-17.205-27.883 2.371-11.198 13.764-18.484 21.867-17.454.509.607.514 1.401.519 2.219.008 1.264.016 2.587 1.887 3.371q.029-.556.064-1.054v-.002c.044-.659.084-1.258.069-1.857-.084-3.387-.177-6.775-.27-10.164q-.117-4.231-.227-8.461a81 81 0 0 1-.005-2.166v-.002c.002-.481.005-1.015.005-1.633a146 146 0 0 0 2.035.987h.001c1.607.768 3.029 1.448 4.349 2.29.528.337.626 1.585.661 2.424.191 4.363.347 8.728.504 13.094v.002q.093 2.614.189 5.228c.023.636.062 1.271.104 1.95v.004c.021.353.044.717.065 1.101 1.728-.276 1.756-1.288 1.785-2.324m1.172-375.787c.355-12.379-9.884-23.083-22.604-23.345-12.219-.253-23.55 9.022-23.625 23.194-.067 11.815 8.662 22.835 22.732 23.195 12.93.333 23.395-10.017 23.497-23.04zm-68.687 319.898-.314.376-.312.374c14.799 17.103 29.61 34.193 44.191 50.825 1.198-.301 2.336-.598 3.435-.884l.002-.001c2.397-.624 4.606-1.199 6.838-1.668l.18-.038c2.312-.486 2.438-.512 2.395-2.946a286 286 0 0 0-.127-4.34v-.001c-.095-2.795-.191-5.59-.126-8.384.066-2.731-.911-4.285-3.361-5.563-10.327-5.381-20.613-10.839-30.899-16.297l-.012-.006q-6.78-3.6-13.565-7.189c-1.838-.971-3.692-1.91-5.545-2.849q-1.391-.704-2.78-1.414zm159.134-200.538c-.579-.404-1.04-.725-1.535-.985-6.656-3.531-13.32-7.047-19.983-10.563l-6.679-3.525-15.168-8.014a72510 72510 0 0 0-30.32-16.015 9341 9341 0 0 0-24.074-12.668c-.528-.277-1.086-.492-1.746-.746a53 53 0 0 1-1.166-.461c0 .675.007 1.295.013 1.879v.002c.014 1.215.026 2.268-.031 3.318-.111 2.127.759 3.445 2.699 4.418 3.631 1.825 7.215 3.739 10.799 5.654h.001l.001.002q2.183 1.167 4.371 2.327l.199.105q30.875 16.304 61.757 32.609l2.404 1.272c3.466 1.837 6.932 3.673 10.445 5.419.875.435 2.22.737 3.01.373 1.416-.659 2.736-1.523 4.179-2.467h.001c.598-.391 1.217-.796 1.872-1.205l.004-.009c-.4-.266-.743-.505-1.052-.72M255.337 149.48a7 7 0 0 1-.604-.028c-.285-.021-.473-.035-.599.046q-32.55 20.457-65.094 40.925l-.066.042-25.016 15.732c-.287.18-.604.312-.919.443q-.226.092-.445.192c1.287 1.148 2.401 1.826 3.434 2.454l.001.001c.324.197.641.39.952.59 1.892 1.226 3.552 1.093 5.452-.155 3.581-2.353 7.217-4.623 10.854-6.893q2.204-1.373 4.402-2.755l12.667-7.975.073-.046q16.666-10.491 33.33-20.99 7.142-4.498 14.276-9.009l.01-.006 5.481-3.461q.137-.087.276-.171c.836-.513 1.68-1.031 1.664-2.218-.02-1.703-.059-3.406-.098-5.123l-.001-.045-.034-1.55zm111.746 207.233a73 73 0 0 0-1.567-.754c-1.042-.491-1.996-.942-2.886-1.493-1.901-1.177-3.481-1.052-5.426.182-13.661 8.67-27.359 17.28-41.057 25.89q-6.854 4.308-13.706 8.618-1.823 1.145-3.647 2.288l-.01.006h-.001c-3.372 2.113-6.745 4.225-10.084 6.39-.945.613-2.229 1.488-2.384 2.407-.395 2.353-.395 4.813.12 7.241 2.553-.741 78.539-48.542 80.648-50.766zM249.671 453.19c-.292-.473-.522-.848-.807-1.176l-3.194-3.671-.014-.017c-13.862-15.936-27.725-31.872-41.641-47.763-1.141-1.301-2.628-2.398-4.142-3.263-2.962-1.688-5.995-3.248-9.029-4.809l-1.938-.999c-.36-.186-.767-.28-1.174-.373l-.002-.001a11 11 0 0 1-.551-.136l-.004.005-.002.003q-.156.234-.314.476c16.57 19.06 33.143 38.121 49.861 57.349l8.414 9.677c1.199-1.048 2.269-1.98 3.351-2.922l.049-.043 1.688-1.471h-.004c-.212-.323-.388-.608-.547-.865m133.933-146.676c1.82 2.867 1.759 5.885 1.226 9.484-.621-.299-1.225-.579-1.813-.851-1.492-.692-2.88-1.335-4.181-2.124-.609-.368-.999-1.438-1.097-2.238-.167-1.354-.174-2.733-.18-4.106q-.002-.459-.006-.915-.111-9.345-.217-18.69l-.001-.14c-.198-17.389-.395-34.777-.679-52.166-.049-2.757.759-4.507 3.188-5.665.805-.387 1.567-.863 2.467-1.426l.001-.001c.454-.284.944-.59 1.492-.918.057.488.117.916.171 1.304v.001c.105.755.189 1.361.198 1.968q.145 12.323.282 24.647v.006q.109 9.86.224 19.72c.018 1.43-.08 2.691-1.51 3.583-.519.324-.91 1.274-.91 1.94-.04 7.695-.044 15.385.093 23.075.018 1.185.6 2.477 1.252 3.512m-85.41 68.098q.05.454.091.909.171-.007.344-.012.175-.004.349-.011.015-.216.034-.434l.028-.314c.05-.568.101-1.135.098-1.703-.018-3.547-.062-7.099-.107-10.647l-.1-7.931v-.036c-.233-18.439-.465-36.877-.721-55.316-.022-1.718.404-2.957 1.989-3.925 3.672-2.247 7.307-4.557 10.941-6.867l.002-.001.003-.002c1.935-1.23 3.87-2.459 5.81-3.679q9.755-6.131 19.511-12.256l.048-.03c8.499-5.338 16.999-10.675 25.494-16.019.387-.244.722-.57 1.057-.896.165-.16.33-.321.502-.472-.817-.089-1.324.173-1.803.475l-3.096 1.943-.029.019c-9.809 6.156-19.614 12.31-29.416 18.475q-4.635 2.918-9.265 5.841l-.004.003c-6.911 4.36-13.822 8.721-20.763 13.035-1.643 1.022-2.273 2.22-2.144 4.112.147 2.15.169 4.311.191 6.471q.007.754.017 1.507l.291 24.621.001.074q.238 20.48.49 40.96c.009.704.083 1.405.157 2.106M197.622 210.765l-.18.331-.18.331c4.825 2.788 9.766 5.365 14.707 7.943 2.661 1.388 5.322 2.775 7.964 4.196 5.082 2.733 10.197 5.406 15.312 8.079h.001c2.655 1.388 5.311 2.775 7.961 4.171 2.333 1.229 4.659 2.472 6.985 3.716l.001.001c5.23 2.797 10.461 5.595 15.778 8.222l.263-.511.101-.199q-34.36-18.142-68.713-36.284zM390.553 318.12a21 21 0 0 1-.592-1.196c-.584-1.248-1.085-2.318-2.418-2.858-.44 3.197-.267 3.464 3.01 4.054m-257.564-6.438c-2.416 2.007-2.407 2.114 0 3.588zm125.469 100.393c-.394-.147-.741-.264-1.052-.369h-.001c-.564-.191-1.014-.343-1.429-.563-19.276-10.164-38.55-20.339-57.823-30.514l-12.804-6.76q-4.835-2.553-9.668-5.11l-.012-.006c-8.713-4.609-17.426-9.217-26.169-13.776-1.593-.831-1.926-1.91-1.944-3.548-.378-32.321-.797-64.642-1.216-96.967l-.116-8.945a2090 2090 0 0 0-.063-4.336c-.039-2.597-.079-5.195-.102-7.794-.026-2.868.547-3.214 3.037-1.896q9.765 5.165 19.528 10.332l.032.016a72311 72311 0 0 0 41.455 21.924l.003.001.004.002c14.69 7.769 29.383 15.538 44.118 23.225 2.215 1.159 3.077 2.482 3.099 5.009.266 27.296.601 54.593.935 81.887l.001.04v.036l.249 20.396q.034 2.718.073 5.436c.042 3.019.084 6.038.109 9.057.006.611-.055 1.222-.128 1.951-.038.383-.079.798-.116 1.263zm-2.088-15.601c-.029.508-.062 1.074-.091 1.728-1.35-.699-2.629-1.358-3.86-1.992-2.463-1.269-4.732-2.438-6.988-3.631a71196 71196 0 0 1-31.177-16.48l-17.712-9.365q-4.5-2.38-8.998-4.767l-.006-.003-.005-.003c-8.491-4.502-16.984-9.006-25.525-13.418-2.362-1.221-3.121-2.735-3.139-5.332-.149-20.67-.399-41.344-.648-62.014v-.002l-.08-6.613c-.074-6.086-.165-12.172-.256-18.259v-.003q-.104-6.842-.197-13.684c-.012-.74.031-1.479.082-2.357v-.001c.028-.471.057-.982.082-1.554.488.212.926.393 1.326.558h.001c.758.313 1.387.573 1.985.89a27681 27681 0 0 1 38.193 20.144q13.42 7.09 26.84 14.187l13.427 7.098q1.786.948 3.567 1.907h.001c3.069 1.648 6.137 3.295 9.268 4.815 2.18 1.057 2.881 2.496 2.903 4.867.176 20.693.415 41.386.654 62.077v.006q.106 9.043.208 18.085.044 3.984.093 7.966v.005c.052 4.245.104 8.491.142 12.737.006.737-.037 1.476-.09 2.408m-104.916-43.775c.028.144.044.248.057.326.02.123.03.182.054.233l.032.063c.078.154.158.312.279.426.213.2.457.382.715.519a294878 294878 0 0 0 100.89 53.276c.532.28 1.088.515 1.643.75h.001l.5.213c.08.036.196.014.285-.009.057-.013.111-.04.257-.114.092-.046.22-.11.409-.201q-.002-.687-.009-1.419v-.001a78 78 0 0 1 .022-3.584c.062-1.789-.706-2.886-2.309-3.72-6.911-3.592-13.793-7.235-20.676-10.88l-4.956-2.622-18.603-9.835-.323-.17q-18.369-9.713-36.738-19.419a2357 2357 0 0 0-7.221-3.791 2514 2514 0 0 1-5.868-3.078c-.982-.515-1.945-.99-3.051-.297a879 879 0 0 1-3.714 2.301l-1.671 1.033zm-1.962-2.34.83.471q.666-.393 1.328-.794l.001-.001c1.048-.633 2.096-1.266 3.186-1.816 1.532-.773 2.109-1.962 2.043-3.592-.017-.43-.016-.862-.016-1.293a50 50 0 0 0-.002-.776c-.321-29.298-.646-58.591-.972-87.889v-.03l-.009-.814-.019-1.63c-.046-4.092-.092-8.18-.19-12.272l-.001-.059c-.022-.85-.051-1.959-.554-2.441-1.834-1.74-4.085-2.815-6.971-3.676.453 39.227.897 77.917 1.341 116.608zm11.457-94.074c-.19.06-.429.137-.744.217q0 .584-.003 1.143c-.003.727-.006 1.428.003 2.129l.188 15.272c.282 22.912.565 45.825.793 68.737.018 1.701.72 2.376 2.078 3.091a31989 31989 0 0 1 58.811 31.01l6.329 3.342c1.873.99 3.738 1.994 5.604 2.998a772 772 0 0 0 5.607 3c1.58.835 2.557.649 2.806-.732.252-1.405.592-2.789.932-4.174.691-2.809 1.381-5.619 1.336-8.596-.368-25.046-.634-50.092-.87-75.138-.013-1.496-.457-2.344-1.767-3.028a6078 6078 0 0 1-28.269-14.856q-4.84-2.555-9.686-5.105c-9.678-5.096-19.358-10.193-28.982-15.39-3.166-1.71-6.563-2.458-9.964-3.207a104 104 0 0 1-3.569-.829c-.151-.038-.327.018-.633.116m1.433 4.171c.028-.331.059-.696.088-1.113l.004.009c.342.121.662.222.963.317.609.192 1.141.36 1.626.616q11.257 5.94 22.512 11.887a22822 22822 0 0 0 49.198 25.937c1.86.977 2.486 2.189 2.495 4.191.038 7.034.129 14.067.219 21.101q.058 4.395.11 8.79c.191 16.179.377 32.358.546 48.538.006.816-.047 1.632-.11 2.59-.031.48-.065.996-.094 1.565-.748-.367-1.444-.703-2.105-1.022-1.288-.621-2.44-1.176-3.57-1.775a53391 53391 0 0 1-30.816-16.313q-11.524-6.105-23.05-12.205l-2.259-1.198c-4.04-2.143-8.079-4.286-12.162-6.341-1.998-1.008-2.819-2.358-2.841-4.644-.168-19.146-.384-38.292-.6-57.438q-.124-10.942-.244-21.883c-.006-.498.037-.996.09-1.609" clip-rule="evenodd"/>
</svg>
