<svg xmlns="http://www.w3.org/2000/svg" width="550" height="550" fill="none" viewBox="0 0 550 550">
    <path fill="#fff" d="M510.2 189.5v.8l.6.3-.8.5v52.5l-45.9 29v.9l-.8-.4-.8.5v-1l-13.7-7.6v3c1.9 9.7 3.3 19.6 4.1 29.3 2.1 26.5-.2 52.2-6.9 76.2-6.7 24.1-17.5 45.5-32 63.4-15.1 18.6-33.5 32.7-54.9 42-17.9 7.8-37.1 11.7-57 11.7-3.7 0-7.5-.1-11.2-.4-19.8-1.5-39.7-6.7-59.1-15.6-4.1 1-8.2 1.7-12.1 2.2-4 .5-6.6.7-11.8.7s-10.3-.5-15.1-1.4c-13.6 6.3-28.1 9.6-43.2 9.9h-5.7c-2.8-.1-5.7-.3-8.5-.6-2.4-.3-4.6-.6-6.7-1-13.2-2.3-25.7-7.1-37.2-14.1l.2.2-3.8-2.6c-.376-.263-.752-.511-1.122-.757-.615-.407-1.216-.806-1.778-1.243l.2.3-3.6-2.8c-.2-.1-.4-.3-.6-.5-19.8-15.6-33.6-37.6-38.9-62.1v-.5s-.62-2.864-.7-3.552v.052c-1-6-1.6-12.2-1.6-18.3v-.6c0-5.3.3-10.6 1.1-15.8 1.2-7.8 3.2-15.5 6-22.9 2-5.2 4.4-10.2 7.1-15v-.2s1.6-2.8 1.6-2.7c2.6-4.3 5.6-8.4 8.8-12.3a79 79 0 0 1 2.012-2.333v-.001c.211-.238.41-.462.588-.666 2.9-3.9 6.7-7.5 11.3-10.9 4.6-3.8 9.5-7.3 14.6-10.2h-.4l4.5-2.4c.1-.1.3-.1.4-.1H97l1.3-.6c-.4-3-.7-6.1-.9-9-2.1-26.5.2-52.2 6.9-76.2 6.7-24.1 17.5-45.5 32-63.4 15.1-18.6 33.5-32.7 54.9-42 21.3-9.2 44.3-13 68.2-11.3 19.1 1.4 38.1 6.3 56.7 14.5 5.4-1.5 10.8-2.6 16-3.2 6.5-.8 12.9-.9 19-.4v-2.5l-.8-.4.8-.5v-.9l.8.4 45.9-29 47.6 26.5.8-.5v1l.8.4-.8.5v17.1l15.6-9.8 47.6 26.5.8-.5v1l.8.4-.8.5v52.5l-14.2 9 13.4 7.5zM402.4 311.9l.8.4v-.9l41.2-26.1c.6 4.3 1 8.6 1.4 12.9 2 25.6-.2 50.4-6.7 73.6-6.4 23.1-16.7 43.6-30.6 60.7-14.3 17.7-31.9 31.1-52.1 39.9-20.3 8.8-42 12.4-64.7 10.7-16.2-1.2-32.5-5-48.4-11.4 10.6-3.6 21.6-8.6 32.6-15.2 39.4-23.4 76.6-63.1 104.7-111.9 6.6-11.4 12.6-23.2 17.8-35l3.2 1.8v1zm-10.5-5.8c-5.2 11.8-11.2 23.5-17.8 34.9-27.5 47.7-63.8 86.5-102.1 109.2-13.4 8-26.7 13.7-39.3 17-2.1-.999-4.2-2.099-6.299-3.199h-.001V464c-2.5-1.3-5.1-2.7-7.6-4.2 16.9-14.8 28.7-34 34-55.7v-.2l.9-3.7v.2c.8-4.7 1.5-9.4 1.9-14.2v-.5l.4-6-.2.6v-1.9c0-7.6-.8-15.3-2.4-22.8-1.4-6.3-3.3-12.6-5.8-18.6-1.6-3.8-3.4-7.6-5.5-11.2v-.2l-1.5-2.7-.305-.451-.001-.002a24 24 0 0 1-.994-1.547l75.9-49.7-18.6 41.9c-.7 1.5-.7 3.1-.1 4.6s1.7 2.7 3.2 3.3c.8.3 1.6.5 2.4.5 2.4 0 4.5-1.4 5.5-3.6l20.8-46.8 9.3 5.2v1l.8-.5.8.4v-.9l14.8-9.3v18.1l37.6 20.9zm-173 163.7h-.9c-.55.05-1.075.1-1.6.15s-1.05.1-1.6.15h-1.5c-.8 0-1.7 0-2.5.1h-6.5c.2-.1.4-.2.5-.3l-.2.2 3.5-2.4s.2-.1.3-.2l2.1-1.5s.2-.1.3-.2c.25-.2.525-.4.8-.6s.55-.4.8-.6c.15.1.299.175.449.25h.001v.001c.15.075.3.15.45.249l2.7 1.5c.15.1.325.2.5.3s.35.2.5.3c.55.3 1.125.625 1.7.95s1.15.65 1.7.95c.05 0 .125.05.2.1v.001c.075.049.15.099.2.099-.435 0-.87.105-1.267.201l-.001.001q-.226.056-.432.098h-.3zm13.6-47.2c.2-.15.4-.275.6-.4s.4-.25.6-.4c.263-.188.526-.361.784-.532.428-.282.841-.556 1.216-.868.2-.15.425-.3.65-.45s.45-.3.65-.45c.6-.399 1.199-.899 1.799-1.399h.001v-.001c.141-.105.282-.223.427-.345.267-.224.549-.46.873-.655.216-.18.419-.346.618-.51l.232-.19c.275-.225.55-.45.85-.7.2-.15.4-.325.6-.5s.4-.35.6-.5c.25-.249.524-.499.799-.749l.001-.001c.275-.25.55-.5.8-.75.2-.15.375-.325.55-.5s.35-.35.55-.5l1.7-1.7.8-.8c.4-.4.775-.825 1.15-1.25s.75-.85 1.15-1.25c-5.6 20.1-17 38-33 51.8l-.7-.4v1c-.332.332-.663.595-1.051.902l-.249.198c-.15.15-.3.275-.45.4s-.3.25-.45.4c-.4.3-.775.6-1.15.9s-.75.6-1.15.9c-.05 0-.1.05-.15.1s-.1.1-.15.1c-.1.05-.175.1-.25.15s-.15.1-.25.15c.1-.2.2-.4.3-.5 1-1.6 1.9-3.4 2.8-5.2 4.1-8.6 6.7-18.4 7.7-29.3 2.5-1.3 4.8-2.6 7-3.9.1 0 .3-.2.4-.3h.001c.999-.6 1.999-1.2 2.999-1.9zm-3.4 45.4c-.3.05-.6.125-.9.2s-.6.15-.9.2c-1.1.2-2.2.4-3.4.6h-.3l-.62-.328-.548-.287c-1.144-.601-2.316-1.215-3.432-1.885 0 0-.2-.1-.3-.2-.75-.449-1.524-.874-2.298-1.299L216.4 465c-.775-.425-1.55-.85-2.3-1.3h-.1c.05-.05.125-.1.2-.15s.15-.1.2-.15l.001-.001c.9-.699 1.799-1.399 2.699-2.199.1-.1.2-.2.4-.3 2.572 1.525 5.235 2.958 7.729 4.301l.371.199c1.5.8 3.1 1.6 4.6 2.3-.267 0-.534.089-.8.178a5 5 0 0 1-.4.122zm-6.4-54v5.75c.566-.283 1.133-.572 1.7-.95.118-.078.236-.142.348-.202h.001c.172-.092.33-.176.451-.298C240 409.2 250 398 254 385.8c.075-.625.131-.937.173-1.172l.039-.222c.088-.554.088-1.121.088-6.106 0-7.5-.8-15-2.4-22.4-1.3-6.2-3.3-12.4-5.7-18.3-1.2-2.9-2.5-5.8-4-8.6v.7l-.3 2.2c-.3 2.3-.8 4.5-1.6 6.7-2.2 6.2-6 12-11.3 17.4-4.1 4.2-9.1 8.1-15 11.5-.121.122-.279.206-.451.298-.113.06-.231.124-.349.202-.1.1-.3.2-.3.2 4.2 10.9 7.1 21.9 8.6 32.7.6 4.4 1 8.8 1.2 13.1m-14.8-57.2c-.4-.9-.8-1.8-1.3-2.7-.25-.5-.5-1.025-.75-1.55s-.5-1.05-.75-1.55c-.2-.4-.4-.8-.6-1.1-8-15.3-17.9-28.7-29.4-40.1-2.5-2.4-5.1-4.8-7.7-7-5-4.2-10.1-7.9-15.3-11 4.5-2.2 9-4 13.4-5.3 9.8-2.9 19.3-3.5 28-1.9 3.7.7 7.3 1.8 10.7 3.3 1.9 1.2 3.6 2.3 5.2 3.5l3.6 2.7c3.3 2.5 6.4 5.3 9.4 8.2 2.5 2.5 5 5.2 7.3 8 .5.8.9 1.5 1.3 2.4 1.7 3.2 2.8 6.6 3.3 10 .2 1.3.3 2.7.3 4v.7c0 2.2-.4 4.4-.9 6.6-2.7 10.2-10.9 19.5-23.7 27.1 0 0-.1 0-.2.1-.2-.5-.4-.9-.6-1.3-.2-.5-.425-.975-.65-1.45a26 26 0 0 1-.65-1.45zm-21.1-77.2c-.35-.05-.675-.1-1-.15s-.65-.1-1-.15h-.5c-.4 0-.8-.05-1.2-.1s-.8-.1-1.2-.1h-.1c-.9 0-1.8 0-2.7-.1h-4.2c-.9 0-1.9.1-2.8.2-.2 0-.4.025-.6.05s-.4.05-.6.05c-.533 0-1.067.089-1.6.178a19 19 0 0 1-.8.122c-.25 0-.475.05-.7.1s-.45.1-.7.1c-.35.05-.725.125-1.1.2s-.75.15-1.1.2l-1.5.3c-.35.1-.7.175-1.05.25s-.7.15-1.05.25c-.5.1-1.1.3-1.6.5l-2.1.6c-.5.2-1.1.4-1.7.6-.35.1-.675.225-1 .35s-.65.25-1 .35c-.6.2-1.1.4-1.7.7-.2.05-.375.125-.55.2s-.35.15-.55.2l.3-.9 1.8-4.8c.1-.249.2-.524.3-.799V278c.1-.275.2-.55.3-.8.5-1.4 1.1-2.8 1.7-4.2.05-.15.125-.325.2-.5s.15-.35.2-.5c11.3.9 22.2 3.5 32.5 7.8-.332 0-.594-.068-.902-.149l-.198-.051c-.2 0-.4 0-.6-.1zm-45.5 10.9v.6l-1.1-.5c-4.3-2.2-8.6-3.9-12.9-5.3-.35-.1-.675-.2-1-.3s-.65-.2-1-.3c-.25-.05-.475-.125-.7-.2s-.45-.15-.7-.2c-.2 0-.4-.1-.6-.2-2.8-.7-5.5-1.2-8.2-1.6-.524 0-.972-.076-1.476-.162l-.224-.038h-8.2c-1 0-2 0-3.1.2.15-.05.3-.125.45-.2s.3-.15.45-.2c.7-.1 1.4-.2 2-.3 2.2-.3 4.4-.4 6.7-.4h3.7c.817 0 1.552.083 2.355.173l.245.027c.5 0 1 .1 1.5.2.416 0 .88.097 1.325.189h.001c.197.041.39.081.574.111.386 0 .731.083 1.087.169.198.047.399.096.613.131.6.1 1.2.2 1.7.3.3.05.6.125.9.2s.6.15.9.2.575.125.85.2.55.15.85.2c.6.2 1.2.4 1.8.5.3.1.575.175.85.25s.55.15.85.25l.001.001c.599.2 1.199.399 1.899.599.25.1.525.2.8.3s.55.2.8.3c.3.1.624.225.949.35h.001l.001.001c.324.125.649.249.949.349q.163.065.337.132c.419.16.871.333 1.263.568.6.3 1.3.6 1.9.8.25.1.474.2.699.3h.001l.001.001c.224.1.449.199.699.299l-.7 2.1zm-1.9-5.1c-.7-.3-1.4-.6-2.2-.9-.5-.2-1-.4-1.4-.6-.35-.15-.725-.275-1.1-.4s-.75-.25-1.1-.4c-.25-.1-.475-.175-.7-.25s-.45-.15-.7-.25c-.35-.1-.725-.2-1.1-.3s-.75-.2-1.1-.3c-.25-.05-.475-.125-.7-.2s-.45-.15-.7-.2q-.246-.06-.479-.121c-.607-.156-1.164-.299-1.721-.379-.2-.05-.425-.1-.65-.15s-.45-.1-.65-.15c-.702-.175-1.403-.273-2.037-.362l-.263-.038c-.2 0-.4-.05-.6-.1s-.4-.1-.6-.1c-.45-.05-.875-.1-1.3-.15s-.85-.1-1.3-.15c-.3 0-.6 0-.9-.1-.6-.05-1.175-.1-1.75-.15s-1.15-.1-1.75-.15h-6.7c12.7-5.1 26.1-7.7 39.8-7.7h.4c-.05.15-.1.275-.15.4v.001c-.05.125-.1.25-.15.399-.303.795-.62 1.603-.94 2.42a174 174 0 0 0-1.56 4.08c0 .187-.078.336-.161.493-.05.096-.102.194-.139.307-.8 2.1-1.5 4.1-2.2 6.2 0 .187-.078.336-.161.493-.05.096-.102.194-.139.307-.6-.3-1.1-.5-1.7-.7l-1.5-.6zm9.4-15.2h-1c-14.7 0-28.9 2.9-42.3 8.6-.1-1.05-.2-2.125-.3-3.2s-.2-2.15-.3-3.2c-2-25.6.2-50.4 6.7-73.6 6.4-23.1 16.7-43.6 30.6-60.7 14.3-17.7 31.9-31.1 52.1-39.9 17-7.4 35.2-11.1 54.1-11.1 11.995 0 11.624.04 10.647.147-.562.06-1.326.144-.047.253 15.5 1.1 31 4.7 46.3 10.6-9.5 3.5-19.3 8.1-29.1 13.9-39.4 23.4-76.6 63.1-104.7 111.9-8.7 15.1-16.3 30.7-22.7 46.3M394.4 120c.4.4.7.8 1 1.2l1.2 1.5c.15.2.325.425.5.65s.35.45.5.65c.2.25.375.475.55.7s.35.45.55.7v7.6l-13.7 8.6v-17.1l.8-.5-.8-.4v-1l-.8.5-31.5-17.5v-7c.533 0 1.067.09 1.6.178.266.045.533.09.8.122h.4c.349.07.711.128 1.076.186.68.109 1.373.22 2.024.414h.4c.61.111 1.189.253 1.754.391.455.111.9.22 1.346.309h.3c1.1.3 2.2.6 3.2.9h.1c4.4 1.4 8.6 3.3 12.6 5.5q6 3.45 11.1 8.1l.6.6c.3.3.625.6.95.9s.65.6.95.9c.15.15.3.325.45.5s.3.35.45.5c.5.5 1 1 1.5 1.6zm9.6 13.6v.1l-3.4-1.9h-.2v-4.1s0 .1.1.2c1.2 1.8 2.4 3.7 3.5 5.7m9.4 2.2c-.1-.2-.2-.425-.3-.65s-.2-.45-.3-.65c-.3-.7-.6-1.3-1-2l-.001-.001c-.2-.4-.399-.799-.599-1.099-.159-.278-.302-.556-.442-.828l-.001-.001c-.212-.412-.416-.809-.657-1.171-.1-.15-.2-.325-.3-.5s-.2-.35-.3-.5c-.4-.7-.8-1.4-1.2-2-.2-.3-.4-.6-.6-1-.4-.7-.8-1.3-1.3-2h-.001c-.199-.3-.399-.6-.699-.9-.2-.3-.425-.625-.65-.95s-.45-.65-.65-.95c-.072-.107-.157-.215-.245-.327a4 4 0 0 1-.455-.673c-.335-.502-.74-1.004-1.098-1.448l-.202-.252c-.15-.2-.3-.375-.45-.55s-.3-.35-.45-.55a19 19 0 0 0-.375-.449h-.001c-.267-.313-.519-.608-.724-.951v-.5l44.3-28V104L416 122.2l-.8-.4v.9l-.8.5.8.4v16c0-.146-.054-.239-.122-.357a3 3 0 0 1-.078-.143c-.1-.249-.2-.473-.299-.698l-.001-.002c-.1-.225-.2-.45-.3-.7-.3-.7-.6-1.4-.9-2zM394 305.4l1.2-2.7-2.3 2.1-37.2-20.8v-50.6l15.2 8.5 30.8 17.2v50.6l-7.6-4.2zm-155.743 13.772.073.109L318.7 266.7l-20.8 46.8c-.4 1.1-.4 2.3 0 3.4s1.2 1.9 2.3 2.4c.161.081.243.147.309.201.181.146.247.199 1.491.199 1.7 0 3.3-1 4-2.6l20.8-47 6-13.5c.2-.5.4-1.1.4-1.6 0-.9-.2-1.8-.7-2.6-.1-.1-.2-.3-.2-.3l-.2-.2-.2-.2-.2-.2-.2-.2-.2-.2c0-.1-.2-.2-.2-.2-.1-.1-.2-.1-.2-.1-.1-.1-.3-.1-.3-.1h-.2c-.1-.1-.2-.1-.3-.1h-1.2l-39-1.4-23.7-.9c-1.1 0-2.2.4-3.1 1.2s-1.4 1.9-1.4 3.1.4 2.3 1.2 3.2 1.9 1.4 3.1 1.4l48.8 1.8-3.8 2.5-77.7 50.8c.1.1.175.2.25.3v.001c.075.099.15.199.25.299l1.8 2.4q.11.161.245.328c.157.201.327.416.455.672.6.8 1.2 1.6 1.7 2.4.063.189.165.338.257.472M334.4 257.5c.05-.1.1-.225.15-.35s.1-.25.15-.35v-.1c0-.2 0-.4.1-.6v-2.8c0-.1 0-.3-.1-.4 0 0 0-.2-.1-.3 0-.1-.1-.3-.2-.4v-.4c-1.2-1.7-3-2.7-5-2.8l-37.4-1.4v-49.5l46 25.6v50.6l-8.7-4.8 5.4-12.1zM329 99.4c.7-.1 1.375-.2 2.05-.3s1.35-.2 2.05-.3h.2l-3.3 2.1-.4.2c-.3-.15-.625-.325-.95-.5s-.65-.35-.95-.5c-.134 0-.267-.088-.4-.177-.067-.045-.133-.09-.2-.123h-.1l1.8-.3h.2zm72.6 139.9-46-25.6v-50.6l22.3 12.4 23.7 13.2zM354 160.4v.9l-.8.5.8.4v32.5l-14.8 9.3v-50.6l27.8-17.6 3.5-2.2 13-8.2v17.1l-28.7 18.2-.8-.4zm95 32.8v-33.5l.8-.5-.8-.4v-1l-.8.5-31.5-17.5v-16.2l46 25.6v50.6l-13.6-7.6zm-48.3-59.5 4.7 2.6 10.8 6 30.4 17-24.2 15.3-3.5 2.2-1.6 1-4.5 2.9-4.9 3.1-5.4 3.4-19.8-11-26.2-14.6 43.8-27.7.5-.3zm-49.5-29-11.6-6.5c.763 0 1.526-.026 2.275-.05A63 63 0 0 1 344 98.1q3.6 0 7.2.3zm-26.8-4.5q.296.148.606.297c.631.306 1.291.627 1.894 1.003.2.1.375.2.55.3s.35.2.55.3l-4.1 2.6c-1.9-1-3.9-2-5.9-2.9 2.2-.6 4.3-1.1 6.4-1.6m5.2 2.8.8.4 1 .5-.7-1.6 6.1-3.9 16 8.9 29.9 16.7-37.6 23.8-6.7 4.2-15.7-8.7-30.3-16.9 37.2-23.5zm-37.9 24.9 2.4 1.4 43.5 24.3v50.6l-46-25.6V128zm45.9 78.2v.9l.8-.5.8.4v-.9l14.8-9.3v15.9l-14.8 9.3v-.8l-1 1.3-45.8-25.5 13.4-8.5zm1.6 17.6 14.8-9.3v.3l14.2 7.9-13.4 8.5-.8-.4v.9l-.8.5.8.4V265l-14.8 9.3zm99.5 10.9-1.4.9-14.4 9.1-4 2.5-8.3 5.2-8.3 5.2-34.6-19.3-11.4-6.4 13.4-8.5 31.8 17.7v1l.8-.5.8.4v-.9l6.9-4.3 23.3-14.7 1.4.8 12 6.7-8 5zm-4.7-14.8-.4.3-.4.2-30 19v-50.2h2.3l-1.5-.8 19.6-12.4h.1l23.8-15.1v50.6l-13.4 8.5zM315.6 102.4c2.3 1 4.5 2.1 6.7 3.3l-31.5 19.9-.8-.4v.9l-.8.5.8.4v52.5l14.2 7.9-13.4 8.5-.8-.4v.9l-.8.5.8.4v50.3l-23.7-.9c-1.6 0-3.1.5-4.3 1.6s-1.9 2.6-1.9 4.2c-.1 3.3 2.5 6.1 5.8 6.2l43.1 1.6.4.2-77.1 50.5q-.18-.226-.364-.472c-.286-.379-.587-.778-.936-1.128-2.4-2.9-4.9-5.7-7.5-8.2-3-3-6.2-5.8-9.5-8.3l-3.6-2.7h-.1c-.6-.45-1.175-.9-1.75-1.35s-1.15-.9-1.75-1.35q-2.25-1.5-4.5-2.7-.29-.145-.598-.304l-.002-.002c-.643-.33-1.343-.691-2.1-.994-13.3-7.3-27.7-11.6-42.8-12.8 6-14.5 13.1-29 21.2-43 27.5-47.7 63.8-86.5 102.1-109.2 12.1-7.2 24.1-12.6 35.7-15.9zm192.2 88.7-13.347-7.47L487.5 188l-23.2 14.6v.9l-.8-.4-.8.5v-1L449 195v16l5.5 3.1 9 5zm-43.5 9.6v-50.6l44.3-28v50.6zm43.5-80-45.947-25.57L417.6 123.1l45.9 25.6zM397.9 59.9l46 25.6-44.3 28-2-1.1c-4.6-4.7-9.8-8.8-15.5-12-5.4-3.1-11.1-5.5-17.2-7.1-.2 0-.3 0-.5-.1l-2.4-.6h-.2l-8.3-4.6 44.3-28zm-45 29.5 3.889 2.182c-.563-.09-1.126-.161-1.689-.232-.6-.075-1.2-.15-1.8-.25h-.4zM332.4 93c4-.5 7.9-.7 11.7-.7s5.3.1 7.9.4c3.2.3 6.4.8 9.5 1.5 7.1 1.6 13.8 4.2 19.9 7.7h.2v.1c.121 0 .205.074.298.154.06.052.123.107.202.146l1.5.9c.1.05.2.125.3.2s.2.15.3.2c.25.15.475.3.7.45s.45.3.7.45c.1.05.2.125.3.2s.2.15.3.2c.5.3.9.6 1.4 1 .05.05.125.1.2.15s.15.1.2.15c.5.4 1 .8 1.5 1.1 2 1.6 3.9 3.2 5.7 5h-1.1l2.6 1.4c0 .067.089.134.178.2.044.034.088.067.122.1l.9.9c.2.2.4.425.6.65s.4.45.6.65c.7.8 1.4 1.6 2.1 2.5l.9 1.2c.2.25.375.475.55.7s.35.45.55.7c.15.2.299.425.449.649l.001.001c.15.225.3.45.45.65.15.25.325.475.5.7s.35.45.5.7.3.475.45.7.3.45.45.7c.3.5.6 1 .9 1.4a12 12 0 0 0 .25.401v.001c.21.33.406.639.55.998l.9 1.5c.15.25.275.475.4.7s.25.45.4.7.3.525.45.8l.001.002c.15.275.299.549.449.798.136.342.32.684.486.993v.001l.001.001q.117.215.213.405c.15.3.3.575.45.85s.3.55.45.85c.2.5.4 1 .7 1.4.2.4.4.8.5 1.2l-6.3-3.5c-.2-.35-.375-.7-.55-1.05s-.35-.7-.55-1.05l-.3-.6c-.4-.7-.8-1.4-1.3-2.2l-.3-.6c-.303-.53-.663-1.059-.994-1.546v-.001q-.16-.234-.306-.453c-.1-.2-.2-.4-.4-.6a25 25 0 0 1-.532-.784c-.283-.428-.556-.841-.868-1.216 0 0-.1-.2-.2-.3l-.1-.2-1.4-2c-.177-.117-.319-.304-.467-.5a4 4 0 0 0-.333-.4v-.1c-.7-.899-1.5-1.799-2.299-2.699l-.001-.001c-4.8-5.4-10.3-9.9-16.4-13.5-8.2-4.7-17.3-7.6-27.1-8.6h-.9q-3.6-.3-7.2-.3c-2.4 0-2.8 0-4.3.1h.1l-2.7.2h-.2l-.2-.1h-.2c0 .1-2.8.2-2.8.2l.5.3c-.4 0-.8 0-1.3.1-2.7.3-5.4.8-8.2 1.4h-.5l-2.1.4c-2.2.5-4.5 1.1-6.7 1.8l-2.1.6c-11.1 3.5-22.7 8.7-34.3 15.6-38.5 22.9-75 61.9-102.7 109.8-8.2 14.2-15.4 28.9-21.5 43.6l-.2.5c-2 4.9-3.9 9.8-5.6 14.6l-.1.3v.001c-.1.3-.2.6-.3.999l-.3.8v.001c-.3.9-.6 1.8-1 2.799-.254.762-1.297.951-1.853 1.052-.101.018-.186.033-.247.048-1.3 0-2.3-.3-2.5-.6l.8-2.5v-.3q2.85-8.55 6.3-16.8c6.3-15.8 14-31.4 22.8-46.6 28-48.5 65-88.1 104.2-111.3 10.4-6.2 20.7-11.1 30.8-14.5 2.9-1 5.7-1.9 8.6-2.7 5.4-1.5 10.8-2.5 16-3.2zM99 272.9c-2.1-26.3.2-51.7 6.9-75.6s17.3-45 31.7-62.8c14.9-18.4 33.2-32.4 54.3-41.6 17.8-7.7 36.7-11.6 56.4-11.6 12.498 0 12.116.04 11.112.147-.579.06-1.365.144-.012.253 18.2 1.3 36.5 5.9 54.4 13.6l-1.8.6c-.2 0-.4.1-.5.2h-.001c-1.299.4-2.599.8-3.899 1.3-15.9-6.3-32.2-10.2-48.4-11.3-3.6-.3-7.2-.4-10.8-.4-19.1 0-37.5 3.8-54.7 11.3-20.5 8.9-38.2 22.5-52.7 40.4-14 17.3-24.4 37.9-30.9 61.3s-8.8 48.3-6.7 74.1v.001c.2 2.3.4 4.6.7 6.899-.134 0-.267.089-.4.178a2 2 0 0 1-.2.122c-.15.05-.325.125-.5.2s-.35.15-.5.2-.3.125-.45.2-.3.15-.45.2l-1.6.7-.085-.815v-.001c-.27-2.611-.534-5.147-.715-7.684zm-19.6 23.7c5.7-4.8 11.8-8.9 18.3-12.4.386 0 .73-.082 1.087-.168.198-.048.4-.096.613-.132 1.8-.3 3.7-.4 5.7-.5h.7c10.4-.2 21.3 2.4 32.4 7.7-5.9 3.5-11.6 7.8-17.2 12.6-2.7 2.3-5.3 4.8-7.9 7.5-.4.45-.825.875-1.25 1.3s-.85.85-1.25 1.3c-1.093 1.161-2.139 2.369-3.17 3.559l-.001.001-.001.002q-.716.83-1.428 1.638c-7.4 8.7-13.9 18.4-19.4 28.8-1.8 3.3-3.4 6.7-5 10.1-10.1-6.9-16.7-15-19.1-23.7-.6-2.2-1-4.4-1.1-6.5v-1.3c0-6.7 2.3-13.2 7-19.3 2.9-3.8 6.6-7.4 11-10.7zm-37 66.2c1.1-7.7 3.1-15.3 5.9-22.5 1.6-4.1 3.5-8.2 5.6-12.2 0 .7 0 1.4.2 2.1v.2c0 .467.089.934.178 1.4.044.234.089.467.122.7.4 2.2 1 4.5 1.8 6.7 3.6 9.8 11.4 18.8 22.6 26.1-5.5 13.9-8.8 27.8-10 41.5-.3 3.1-.4 6.2-.4 9.3-15.7-10.5-25.1-23.3-27-37.3v-.5c0-5.2.4-10.4 1.1-15.5zm2.1 41.8c.7.9 1.4 1.8 2.2 2.7v.1c.473.609.992 1.171 1.525 1.75q.384.414.775.85l.2.2q.393.396.792.814v.001l.002.001c.543.566 1.102 1.148 1.706 1.684 0 0 .1 0 .2.1 1.8 1.7 3.6 3.3 5.6 4.9 0 0 .1 0 .2.1.5.4 1 .775 1.5 1.15s1 .75 1.5 1.15c0 0 .2.1.3.2 1 .8 2.1 1.5 3.2 2.2 1.1.8 2.3 1.5 3.5 2.2.118.079.236.143.349.203.172.092.33.176.45.297.1 1.6.3 3.2.5 4.7s.4 3 .7 4.5v.3c.8 4.5 1.9 8.7 3.3 12.7v.2c.167.434.323.867.478 1.3v.001c.312.866.623 1.733 1.023 2.599v.2c1.1 2.6 2.3 5 3.6 7.3-16.5-14.3-28.3-33.3-33.7-54.4zm37.6 57.6c-6.8-9.9-10.9-22.8-12-37.5v-.4l-.7-.4c-.15-.099-.3-.174-.45-.249v-.001a4 4 0 0 1-.45-.25h-.2v-.1c-10.7-6.6-19.1-14.2-24.8-22.7-.9-4.4-1.6-9-2-13.5.3.9.7 1.8 1.1 2.7v.1c.3.8.7 1.6 1.1 2.4 0 0 0 .2.1.2.157.314.329.628.505.948.272.496.552 1.006.795 1.552 1.5 2.6 3.2 5.1 5.2 7.5 4.7 5.7 10.7 11 18.1 15.7l1.2.8v-7c0-1.133.089-2.266.178-3.4.044-.566.088-1.133.122-1.7 1.1-13.7 4.5-27.7 10.1-41.6l.2-.6-.6-.4c-11.2-7.2-19-16.1-22.5-25.7-.8-2.1-1.3-4.2-1.7-6.4-.3-1.9-.5-3.8-.5-5.6v-1.5c.5-.9 1-1.8 1.6-2.6q2.4-3.9 5.1-7.5c-.3.8-.6 1.6-.9 2.5v.1c-.05.2-.1.375-.15.55s-.1.35-.15.55v.3c0 .15-.05.325-.1.5s-.1.35-.1.5v.3c0 .3-.1.7-.2 1v.3c0 .3-.1.7-.2 1v.3c0 .3 0 .7-.1 1v.2c0 .4-.025.8-.05 1.2s-.05.8-.05 1.2v1.4c.1 2.3.5 4.6 1.1 6.9 2.6 9.3 9.7 18 20.6 25.2l.8.5.4-.9c1.6-3.7 3.4-7.3 5.3-10.9 5.5-10.3 11.9-19.9 19.2-28.5.983-1.179 2.009-2.316 3.022-3.438l.004-.005q.798-.882 1.574-1.757c.8-.9 1.6-1.7 2.5-2.6 2.5-2.6 5.2-5.1 7.8-7.4 5.9-5.1 12-9.6 18.2-13.2l1.1-.6c0 .1.1.3.2.4 0 0 .1.2.2.2l.1.1.2.2s.1 0 .2.1c0 0 .2 0 .2.1 0 0 .2 0 .3.1h.2c.2 0 .5.1.8.2h1.1c1.7 0 3.4-.6 3.9-2.2.25-.7.475-1.4.7-2.1s.45-1.4.7-2.1c.6-.3 1.2-.5 1.8-.7.3-.1.575-.225.85-.35s.55-.25.85-.35l2.4-.9c.2-.05.4-.125.6-.2s.4-.15.6-.2c.85-.309 1.701-.558 2.505-.794l.458-.135.237-.071c.1 0 .2 0 .4-.1 4.8-1.3 9.6-2.1 14.2-2.3h7.1c.4 0 .8 0 1.2.1.4 0 .8 0 1.2.1.2.05.4.075.6.1s.4.05.6.1c.4 0 .8.1 1.1.2.4 0 .8.1 1.2.2.25.05.524.1.799.15h.001c.275.05.55.1.8.15.5.1 1 .2 1.5.4l1.2.3c.217 0 .487.106.734.201q.14.057.266.099c.2.05.4.125.6.2s.4.15.6.2c.1 0 .3 0 .4.1-.3 0-.6-.1-.9-.2h-.4c-9.3-1.8-19.3-1-29.6 2.2-4.7 1.4-9.4 3.4-14.2 5.8l-1.3.7 1.3.7c5.6 3.2 11.1 7.1 16.4 11.6 2.6 2.2 5.2 4.5 7.6 6.9 11.4 11.2 21.2 24.5 29.1 39.7 2 3.8 3.9 7.8 5.6 11.8l.4.8 1-.6c.1-.05.225-.125.35-.2s.25-.15.35-.2c13.2-7.7 21.6-17.4 24.4-28 .6-2.3.9-4.6 1-6.9v-.8q0-2.1-.3-4.2v-.7h-.1v-.3c-.05-.35-.125-.675-.2-1s-.15-.65-.2-1c0-.2 0-.3-.1-.5-.1-.3-.175-.6-.25-.9s-.15-.6-.25-.9c0-.146-.054-.239-.122-.357a3 3 0 0 1-.078-.143v-.1c.333.5.678 1 1.022 1.5.689 1 1.378 2 1.978 3 1.1 1.7 2.2 3.5 3.1 5.2v2.9c0 .549-.094 1.146-.186 1.724-.042.265-.083.525-.114.776 0 .4-.1.9-.2 1.3v.4c0 .267-.089.534-.178.8-.044.134-.089.267-.122.4v.4c-.05.25-.125.5-.2.75s-.15.5-.2.75c-.1.25-.175.525-.25.8s-.15.55-.25.8c-2.1 6-5.8 11.7-11 16.9-4 4-8.9 7.8-14.7 11.2-.3.15-.575.325-.85.5s-.55.35-.85.5l-.6.3.2.6c4.2 11 7.2 22.1 8.7 33 .6 4.3 1 8.7 1.2 13 0 .76.011 1.53.022 2.308.022 1.577.045 3.185-.022 4.792v1.4l.7-.4.6-.3c.35-.199.674-.374.999-.549l.001-.001c.325-.175.65-.35 1-.55.1 0 .2-.1.3-.2.25-.15.525-.3.8-.45s.55-.3.8-.45l2.4-1.5s.1 0 .2-.1l.9-.6c.371-.296.741-.538 1.153-.806l.447-.294c.15-.1.325-.225.5-.35h.001c.174-.125.349-.25.499-.35.324-.194.605-.43.873-.654.145-.122.286-.24.427-.346.15-.15.325-.275.5-.4s.35-.25.5-.4c.2-.15.425-.325.65-.5s.45-.35.65-.5c.15-.1.3-.225.45-.35s.3-.25.45-.35c.7-.5 1.3-1.1 1.9-1.7l.9-.9a5 5 0 0 1 .167-.159l.147-.134c.233-.21.482-.435.686-.707.3-.3.6-.6 1-.9l.9-.9c.3-.3.6-.6.9-1l.9-.9c.3-.3.6-.6.9-1 .5-.6 1-1.2 1.5-1.7.15-.15.275-.325.4-.5s.25-.35.4-.5q.11-.16.245-.327c.157-.201.327-.416.455-.673.15-.15.275-.325.4-.5s.25-.35.4-.5c.2-.3.4-.6.7-1q.089-.133.197-.284l.153-.216.001-.001c.125-.175.249-.349.349-.499s.2-.325.3-.5.2-.35.3-.5.2-.325.3-.5.2-.35.3-.5q.081-.162.179-.34l.171-.31q.11-.197.213-.387a10 10 0 0 0 .137-.263c.3-.5.6-1.1.8-1.6.07-.209.188-.418.287-.593q.066-.115.113-.207c-.5 4-1.2 8-2.1 11.9v.001c-.3.4-.6.799-.9 1.099-.4.5-.8 1-1.3 1.6-.4.5-.9 1-1.4 1.5-.15.2-.325.4-.5.6s-.35.4-.5.6c-.204.204-.396.408-.585.608-.366.389-.719.762-1.115 1.092l-.9.9c-.35.3-.7.625-1.05.95s-.7.65-1.05.95a4 4 0 0 1-.213.193l-.001.001c-.166.143-.35.301-.486.506-.8.7-1.6 1.4-2.4 2-.1.1-.2.175-.3.25s-.2.15-.3.25c-.9.8-1.9 1.5-2.9 2.2 0 0-.2.1-.2.2-2.2 1.6-4.5 3.1-6.9 4.6-2.3 1.4-4.7 2.8-7.3 4.1l-.4.2v.4c-1 10.9-3.5 20.7-7.6 29.2q-1.35 2.7-2.7 5.1a41 41 0 0 1-1.382 2.159c-.28.418-.556.829-.818 1.241-.05.1-.125.2-.2.3v.001c-.075.1-.15.199-.2.299 0 0-.2.1-.3.2l-1.8 1.2c.037-.074.088-.149.143-.228.092-.134.194-.283.257-.472l.9-1.5c.3-.4.5-.8.7-1.3.2-.349.374-.674.549-.998l.001-.002c.175-.325.35-.65.55-1 .05-.15.125-.275.2-.4s.15-.25.2-.4c.9-1.7 1.7-3.6 2.4-5.4 3.1-7.7 5-16.3 5.8-25.6v-1.35l.1-.05h-.1v.05l-1.1.55c-8.4 3.9-17.6 7-27.3 9.3h-.4c-.4.2-.8.3-1.3.4l-.002.001c-1.799.4-3.599.799-5.398 1.099-9.3 1.7-18.9 2.7-28.7 3h-7.1c-26.3-.3-50.8-6-70.7-16.4l-1.3-.7v1.8c.2.4.2.8.2 1.2.2 1.9.4 3.7.6 5.5v.3c.1.8.2 1.6.4 2.4v.4c.055.438.14.846.22 1.24.069.326.135.643.18.96v.4c.1.4.175.775.25 1.15s.15.75.25 1.15v.2c1 4.3 2.4 8.4 4 12.2q.102.239.205.49c.236.568.486 1.169.795 1.71v.2c.203.475.453.95.686 1.393v.002q.167.316.314.605v.2c.159.279.302.557.442.829.212.412.417.81.658 1.171.4.8.9 1.6 1.4 2.3-.5-.4-1-.775-1.5-1.15s-1-.75-1.5-1.15zm67.6 22.6H144c-2.8 0-5.6-.3-8.4-.6q-3.45-.45-6.6-.9c-14.4-2.6-27.9-8-40.2-16.1-7.2-9.7-11.7-22.8-13-37.6v-.2c20 10.1 44.2 15.6 70.2 15.9h7.1c9.8-.2 19.6-1.3 28.9-3 1.6-.266 3.2-.622 4.8-.977l.006-.002c.798-.177 1.596-.354 2.394-.521h.2l6.5-1.5h-.4c.8-.25 1.6-.475 2.4-.7s1.6-.45 2.4-.7c.2 0 .5-.1.7-.2 1.6-.5 3.1-1 4.6-1.6h.1c.8-.3 1.575-.6 2.35-.9s1.55-.6 2.35-.9c.1 0 .2-.05.3-.1s.2-.1.3-.1h.001c1.5-.6 2.999-1.2 4.499-1.9-.8 8.6-2.7 16.6-5.6 23.7-.7 1.8-1.5 3.6-2.4 5.3-1.7 3.3-3.6 6.4-5.6 9.1l-.7.4c-2.9 1.7-5.9 3.3-8.9 4.7-13.5 6.2-27.9 9.6-42.8 9.8zm69.9-9.3c-8.5 1-16.6 1-24.2-.2.25-.1.475-.225.7-.35s.45-.25.7-.35l1.2-.6c.25-.15.525-.3.8-.45l.002-.001c.274-.149.549-.299.798-.449v.194q-.006.006 0 .006v-.006c.093-.11 2.4-1.494 2.4-1.494h.8c.45 0 .9.025 1.35.05s.9.05 1.35.05h5.1c1.2 0 2.4-.1 3.6-.2h1.1c.706 0 1.412-.082 2.144-.167.409-.048.826-.097 1.256-.133h.7c.452-.069.904-.127 1.36-.185h.002c.855-.109 1.725-.219 2.638-.415h.2c3-.5 6.1-1.2 9.2-2 .2 0 .4-.1.6-.2l1.5-.4c12.3-3.4 25-9 37.9-16.6 38.5-22.9 75-61.9 102.7-109.8 6.6-11.4 12.5-23.1 17.8-34.9l3.7 2.1c-5.2 11.8-11.2 23.5-17.8 35-28 48.5-65 88.1-104.2 111.3-11.5 6.8-23 12.1-34.1 15.6h-.3c-2.9.9-5.9 1.7-8.8 2.4h-.5c-4 1-7.9 1.7-11.7 2.2m232-177.8c2.1 26.3-.2 51.7-6.9 75.6s-17.3 45-31.7 62.8c-14.9 18.4-33.2 32.4-54.3 41.6-17.8 7.7-36.7 11.6-56.4 11.6-12.498 0-12.117-.04-11.112-.146.579-.061 1.365-.144.012-.254-19.1-1.4-38.1-6.3-56.8-14.6.253 0 .466-.08.69-.164.13-.049.263-.099.41-.136.3-.1.6-.175.9-.25s.6-.15.9-.25l3-.9c.2 0 .4-.1.6-.2 16.6 6.9 33.7 11 50.6 12.2 23 1.7 45-2 65.5-10.9s38.2-22.5 52.7-40.4c14-17.3 24.4-37.9 30.9-61.3s8.8-48.3 6.7-74.1c-.4-4.5-.9-9.1-1.5-13.7l3.2-2v-5.3c1.1 6.9 2 13.8 2.5 20.6zm-4.2-29.3v13.2l-3.3 2.1-41 25.9v-50.2h2.3l-1.5-.8 8.9-5.6 4.5-2.8 17.2-10.9 2.8-1.8 10.1-6.4zm1.6-5.1v-33.4l.8-.5-.8-.4v-1l-.8.5-.5-.3-12.8-7.2 13.6-8.6 11 6.1 3.2 1.8v50.6zm15.3 7.7v-50.6l44.3-28V243zM87.1 363.4c11.4 6.3 25.3 10.7 40.4 12.801.5 0 1.1.099 1.6.199h.2c.65.1 1.325.176 2 .25s1.35.15 2 .25c.667 0 1.334.089 2 .178l.003.001c.332.044.665.088.997.122 3.8.299 7.7.399 11.5.399 19.9 0 38.4-3.7 53.9-10.7.5-.25 1.025-.475 1.55-.699.525-.226 1.05-.451 1.55-.701l.7-.299-.3-.701q-2.4-5.4-5.1-10.799l-.2-.5-.072-.156c-.081-.181-.175-.392-.328-.545-8.8-16.799-20.3-31.9-33.2-43.7-2.5-2.3-5.2-4.499-7.9-6.599A105 105 0 0 0 147 294.4c-.4-.2-.7-.399-1.1-.699l-.4-.201-.4.201c-2 1.1-4 2.399-6 3.799-2.4 1.6-4.8 3.4-7.1 5.201-2.7 2.1-5.5 4.5-8.2 6.899-3.9 3.601-7.7 7.6-11.4 11.8q-2.25 2.55-4.5 5.4c-6 7.6-11.4 15.9-16 24.6-1.9 3.6-3.7 7.4-5.4 11.1l-.3.701.6.399zm59.3-67.699c3.8 2.3 7.6 4.899 11.3 7.699 2.7 2.1 5.3 4.3 7.8 6.5 4 3.6 7.9 7.6 11.5 11.801l2.1 2.399s.2.2.2.3c.3.4.625.775.95 1.15s.65.751.95 1.151c.05.049.1.125.15.2.05.074.1.149.15.199.6.701 1.2 1.5 1.7 2.2.1.2.3.4.4.5q.274.378.571.763l.001.001c.349.456.709.926 1.028 1.436.1.1.175.201.25.3.075.1.15.2.25.3l1.5 2.101c.1.1.175.224.25.349s.15.25.25.35l.001.001c.5.7.999 1.4 1.399 2.099.1.15.175.275.25.4s.15.25.25.4c.25.35.475.7.699 1.049l.001.001c.225.35.45.7.7 1.05.2.3.4.6.5.9.2.35.425.7.65 1.05s.45.7.65 1.05c.2.3.4.6.5.9l1.2 2.1c.2.3.4.6.6 1 .4.7.8 1.4 1.2 2 .1.15.2.325.3.5.1.176.2.35.3.5.159.279.302.557.442.829.213.412.417.81.658 1.171l.2.4c1.9 3.6 3.7 7.401 5.3 11.2q-.57.261-1.17.545l-.003.002-.002.001c-.756.356-1.54.726-2.325 1.052h-.2c-1.1.5-2.1.9-3.2 1.3-.153 0-.364.117-.544.217q-.085.047-.156.084c-.5.2-.975.375-1.45.549s-.95.35-1.45.55c-.244 0-.488.133-.678.236l-.122.064c-.5.15-1 .325-1.5.5-.5.176-1 .351-1.5.5-.1 0-.225.05-.35.1v.001c-.125.049-.25.099-.35.099q-3.75 1.2-7.8 2.1h-.4c-.542.136-1.084.251-1.617.364h-.001c-.646.138-1.279.272-1.882.437-.3 0-.7.099-1 .199l-3 .6c-.331 0-.594.069-.902.15l-.198.051c-.499.099-1.024.174-1.548.249l-.002.001h-.002c-.524.075-1.048.15-1.548.25-.3 0-.7 0-1 .099-1.2.2-2.4.3-3.7.401h-.4c-2.8.299-5.7.499-8.6.599h-.7c-1.2 0-2.3 0-3.5.1h-8.9c-1.133 0-2.267-.088-3.4-.177a88 88 0 0 0-1.7-.123c-.666 0-1.333-.088-2-.177a31 31 0 0 0-1-.123c-.737-.052-1.447-.133-2.143-.211l-.001-.001h-.001c-.625-.071-1.24-.14-1.855-.188-.3 0-.599-.049-.899-.099l-.001-.001c-.3-.05-.6-.099-.9-.099-14.6-2-28.2-6.201-39.2-12.201 1.5-3.5 3.2-6.9 5-10.299l.6-1.101c0-.121.074-.205.154-.297a1 1 0 0 0 .146-.203c.25-.399.475-.824.7-1.25.225-.425.45-.85.7-1.25l.3-.6c.25-.399.5-.823.75-1.248v-.002l.001-.001c.25-.425.5-.849.75-1.249 0-.121.073-.205.153-.297A1 1 0 0 0 98.1 344c.25-.399.5-.823.75-1.248v-.002l.001-.001c.25-.425.5-.849.75-1.249 0-.1.2-.299.3-.4.354-.639.76-1.228 1.18-1.838l.001-.001c.171-.249.345-.5.518-.761 0 0 0-.1.1-.2 2.5-3.8 5.2-7.5 7.9-11l.473-.599c1.325-1.68 2.586-3.28 3.927-4.801a137.6 137.6 0 0 1 19.3-18.5c.463-.385.926-.712 1.436-1.071l.001-.001q.225-.157.463-.328l4.2-3c.108-.071.216-.156.328-.244.2-.158.416-.327.672-.456q1.116-.707 2.194-1.404l.001-.001c1.117-.72 2.211-1.426 3.305-2.095.1.05.225.125.35.2s.25.15.35.201zM142.3 439.1c-25.6-.9-49.1-6.9-68-17.5l-.1.1-.4-.2v-3.7c.3-16 4-33.2 10.6-49.7l.3-.8.8.4c12 6.5 26.6 11 42.4 13.1.85.1 1.725.2 2.6.3s1.75.2 2.6.3h.6c2.1.2 4.3.4 6.5.5 1.3.1 2.7.1 4 .1h7.7c13.4-.3 26.1-2.3 37.7-5.8.1-.1.3-.1.4-.1.5-.15 1-.325 1.5-.5s1-.35 1.5-.5c.1 0 .225-.05.35-.1s.25-.1.35-.1c.9-.4 1.8-.7 2.7-1 .3-.2.6-.3.9-.4.4-.15.825-.325 1.25-.5s.85-.35 1.25-.5c.15-.05.325-.125.5-.2s.35-.15.5-.2c.4-.15.8-.325 1.2-.5s.8-.35 1.2-.5c.066-.033.133-.077.2-.122.133-.089.266-.178.4-.178.45-.2.875-.4 1.3-.6s.85-.4 1.3-.6l.8-.4.3.8c5.2 13.3 8.4 26.7 9.6 39.9v.4l.2 1.8c.2.8.2 1.7.2 2.5v.4c.1.8.1 1.7.1 2.5v7.3l-.4-.4c-10 5-21.4 8.8-33.6 11.3-2.4.5-4.8.9-7.2 1.3-8.8 1.4-18 2.2-27.3 2.2h-.7c-.915 0-1.854-.023-2.827-.047a130 130 0 0 0-3.273-.053m5.7-55.6h-2.5v.3h-1c-.75 0-1.475-.025-2.2-.05s-1.45-.05-2.2-.05c-2.1-.1-4.3-.3-6.5-.5h-.6c-1.696-.199-3.49-.399-5.285-.598l-.015-.002c-15.7-2.1-30.2-6.5-42.2-12.9-6.3 16.1-9.8 32.8-10.1 48.3v2.7c18.6 10.3 41.7 16.2 66.9 17 2.099.1 4.199.1 6.098.1h.702c9.2-.1 18.3-.8 27.1-2.2l1.021-.177c1.985-.343 4.032-.696 6.079-1.123 11.9-2.4 22.9-6.1 32.8-10.9v-.3c.1-4.2-.1-8.5-.5-12.9-.05-.6-.125-1.175-.2-1.75s-.15-1.15-.2-1.75c-.1-.5-.2-1.1-.2-1.6-.1-.55-.175-1.1-.25-1.65s-.15-1.1-.25-1.65c0-.25-.05-.5-.1-.75s-.1-.5-.1-.75c-.1-.55-.2-1.125-.3-1.7s-.2-1.15-.3-1.7c-.029-.116-.067-.241-.106-.37-.094-.313-.194-.646-.194-.93-.2-1.3-.5-2.5-.8-3.7a4 4 0 0 0-.136-.409c-.084-.224-.164-.437-.164-.691-.3-1.4-.6-2.7-1-4-.1-.2-.2-.5-.2-.8-.4-1.5-.8-3-1.3-4.5v-.3c-1-3.3-2.1-6.5-3.3-9.7-1.1.6-2.3 1.1-3.5 1.6h-.2c-1.1.5-2.2 1-3.3 1.4-.3.2-.6.3-.9.4l-.002.001c-.8.3-1.599.6-2.498.899-.25.1-.475.175-.7.25s-.45.15-.7.25c-.35.1-.7.225-1.05.35s-.7.25-1.05.35l-1.8.6c-.279.112-.589.192-.912.276-.257.067-.523.136-.788.224-.8.2-1.5.4-2.2.6-.2.05-.425.1-.65.15s-.45.1-.65.15c-.9.3-1.7.5-2.6.7-.3.2-.5.2-.7.2-7.1 1.6-14.4 2.7-22 3.3h-.5c-1.1.1-2.2.2-3.3.2h-1c-1 .1-1.9.1-2.9.1z"/>
</svg>
