<svg xmlns="http://www.w3.org/2000/svg" width="20" height="20" fill="none" viewBox="0 0 20 20">
    <path d="M7.333 4a.667.667 0 1 0 0 1.333.667.667 0 0 0 0-1.333M5.447 4A2 2 0 0 1 9.22 4h8.113a.667.667 0 1 1 0 1.333H9.22a2 2 0 0 1-3.773 0h-2.78a.667.667 0 1 1 0-1.333zm7.22 5.333a.667.667 0 1 0 0 1.334.667.667 0 0 0 0-1.334m-1.886 0a2 2 0 0 1 3.772 0h2.78a.667.667 0 1 1 0 1.334h-2.78a2 2 0 0 1-3.773 0H2.668a.667.667 0 1 1 0-1.334zm-3.448 5.334a.667.667 0 1 0 0 1.333.667.667 0 0 0 0-1.333m-1.886 0a2 2 0 0 1 3.773 0h8.113a.667.667 0 0 1 0 1.333H9.22a2 2 0 0 1-3.773 0h-2.78a.667.667 0 0 1 0-1.333z" clip-rule="evenodd"/>
</svg>
