<svg xmlns="http://www.w3.org/2000/svg">
    <path fill-rule="evenodd" d="M3.5 3.729V14.06a8.28 8.28 0 0 1 6 .992V5.006A6.72 6.72 0 0 0 5.25 3.5a6.8 6.8 0 0 0-1.75.229M11 5.006v10.047a8.28 8.28 0 0 1 6-.992V3.73a6.8 6.8 0 0 0-1.75-.229c-1.611 0-3.09.564-4.25 1.506m-.75-1.319A8.2 8.2 0 0 0 5.25 2c-.963 0-1.889.165-2.75.47a.75.75 0 0 0-.5.707v11.875a.75.75 0 0 0 1 .707 6.7 6.7 0 0 1 2.25-.384c1.73 0 3.305.65 4.5 1.719a.75.75 0 0 0 1 0 6.72 6.72 0 0 1 4.5-1.719c.79 0 1.547.136 2.25.384a.75.75 0 0 0 1-.707V3.177a.75.75 0 0 0-.5-.707A8.2 8.2 0 0 0 15.25 2c-1.88 0-3.613.63-5 1.687" clip-rule="evenodd"/>
</svg>
