<svg xmlns="http://www.w3.org/2000/svg" width="20" height="20" fill="none" viewBox="0 0 20 20">
    <path d="M3.455 4.266v10.019a8.03 8.03 0 0 1 5.818.961V5.504a6.5 6.5 0 0 0-4.121-1.46c-.588 0-1.157.077-1.697.222m7.272 1.238v9.742a8.03 8.03 0 0 1 5.818-.961V4.265a6.6 6.6 0 0 0-1.697-.221 6.5 6.5 0 0 0-4.12 1.46M10 4.225A7.97 7.97 0 0 0 5.152 2.59c-.934 0-1.832.16-2.667.456A.73.73 0 0 0 2 3.73v11.515a.727.727 0 0 0 .97.686 6.5 6.5 0 0 1 2.182-.372c1.676 0 3.204.63 4.363 1.666a.727.727 0 0 0 .97 0 6.52 6.52 0 0 1 4.364-1.666c.766 0 1.5.131 2.181.372a.727.727 0 0 0 .97-.686V3.73a.73.73 0 0 0-.485-.685 8 8 0 0 0-2.667-.456c-1.822 0-3.503.61-4.848 1.636" clip-rule="evenodd"/>
</svg>
