<svg xmlns="http://www.w3.org/2000/svg">
    <path d="M15.896 1.05a.82.82 0 0 1 1.05.487q.191.525.358 1.062c.474 1.528.791 3.125.931 4.772.474.51.765 1.195.765 1.947 0 .753-.29 1.438-.765 1.948a22.5 22.5 0 0 1-1.29 5.834.818.818 0 1 1-1.537-.563l.115-.32a20.9 20.9 0 0 0-5.885-1.77q.222.633.494 1.239c.385.855.107 1.918-.758 2.418l-.596.344c-.891.515-2.083.206-2.54-.784a20 20 0 0 1-1.24-3.52 4.91 4.91 0 0 1 .911-9.735h.682q.926 0 1.83-.078a20.9 20.9 0 0 0 7.102-1.91l-.115-.321a.82.82 0 0 1 .488-1.05m.107 2.952a22.5 22.5 0 0 1-6.854 1.9 15.6 15.6 0 0 0-.376 3.416c0 1.175.13 2.318.376 3.416 2.42.273 4.726.927 6.854 1.9a21 21 0 0 0 .679-5.316q0-.764-.054-1.514a21 21 0 0 0-.625-3.802m-8.552 8.605a17.3 17.3 0 0 1-.315-3.289c0-1.124.108-2.223.315-3.288q-.428.016-.86.016h-.682a3.273 3.273 0 1 0 0 6.545h.682q.432 0 .86.016m-.739 1.62c.265.95.604 1.87 1.011 2.75a.13.13 0 0 0 .087.074.2.2 0 0 0 .15-.02l.596-.344c.085-.05.15-.184.084-.33a17 17 0 0 1-.78-2.092q-.57-.034-1.148-.037"/>
</svg>
