<svg xmlns="http://www.w3.org/2000/svg">
    <path d="M5.758 2c.401 0 .727.326.727.727v1.091h7.03v-1.09a.727.727 0 1 1 1.455 0v1.09h.484A2.545 2.545 0 0 1 18 6.364v9.09A2.545 2.545 0 0 1 15.454 18H4.545A2.545 2.545 0 0 1 2 15.454v-9.09a2.545 2.545 0 0 1 2.545-2.546h.485v-1.09c0-.402.326-.728.728-.728M4.545 5.273a1.09 1.09 0 0 0-1.09 1.09v.73c.33-.157.7-.245 1.09-.245h10.91c.39 0 .76.088 1.09.245v-.73a1.09 1.09 0 0 0-1.09-1.09zm12 4.12a1.09 1.09 0 0 0-1.09-1.09H4.544a1.09 1.09 0 0 0-1.09 1.09v6.061c0 .603.488 1.092 1.09 1.092h10.91a1.09 1.09 0 0 0 1.09-1.091zm-7.272 1.213c0-.402.325-.727.727-.727h.006c.402 0 .727.325.727.727v.006a.727.727 0 0 1-.727.727H10a.727.727 0 0 1-.727-.727zm1.818 0c0-.402.325-.727.727-.727h.006c.402 0 .728.325.728.727v.006a.727.727 0 0 1-.728.727h-.006a.727.727 0 0 1-.727-.727zm1.818 0c0-.402.326-.727.727-.727h.006c.402 0 .728.325.728.727v.006a.727.727 0 0 1-.728.727h-.006a.727.727 0 0 1-.727-.727zm-7.273 1.818c0-.401.326-.727.728-.727h.006c.401 0 .727.326.727.727v.006a.727.727 0 0 1-.727.728h-.006a.727.727 0 0 1-.728-.728zm1.819 0c0-.401.325-.727.727-.727h.006c.402 0 .727.326.727.727v.006a.727.727 0 0 1-.727.728h-.006a.727.727 0 0 1-.727-.728zm1.818 0c0-.401.325-.727.727-.727h.006c.402 0 .727.326.727.727v.006a.727.727 0 0 1-.727.728H10a.727.727 0 0 1-.727-.728zm1.818 0c0-.401.325-.727.727-.727h.006c.402 0 .728.326.728.727v.006a.727.727 0 0 1-.728.728h-.006a.727.727 0 0 1-.727-.728zm1.818 0c0-.401.326-.727.727-.727h.006c.402 0 .728.326.728.727v.006a.727.727 0 0 1-.728.728h-.006a.727.727 0 0 1-.727-.728zm-7.273 1.818c0-.401.326-.727.728-.727h.006c.401 0 .727.326.727.727v.006a.727.727 0 0 1-.727.728h-.006a.727.727 0 0 1-.728-.728zm1.819 0c0-.401.325-.727.727-.727h.006c.402 0 .727.326.727.727v.006a.727.727 0 0 1-.727.728h-.006a.727.727 0 0 1-.727-.728zm1.818 0c0-.401.325-.727.727-.727h.006c.402 0 .727.326.727.727v.006a.727.727 0 0 1-.727.728H10a.727.727 0 0 1-.727-.728zm1.818 0c0-.401.325-.727.727-.727h.006c.402 0 .728.326.728.727v.006a.727.727 0 0 1-.728.728h-.006a.727.727 0 0 1-.727-.728z"/>
</svg>
