<svg xmlns="http://www.w3.org/2000/svg" width="20" height="20" fill="none" viewBox="0 0 20 20">
    <path d="M10 3.898a36 36 0 0 0-5.2.378c-.84.124-1.467.87-1.467 1.768v4.527c0 .898.626 1.645 1.467 1.768l-.097.66.097-.66a36 36 0 0 0 2.43.272.667.667 0 0 1 .616.665v1.884l1.869-1.869a2.03 2.03 0 0 1 1.374-.59 36 36 0 0 0 4.11-.362c.842-.123 1.468-.87 1.468-1.768V6.044c0-.897-.626-1.644-1.467-1.768a36 36 0 0 0-5.2-.378m-5.394-.94A37 37 0 0 1 10 2.563c1.832 0 3.633.134 5.394.393C16.936 3.184 18 4.533 18 6.044v4.527c0 1.511-1.064 2.86-2.606 3.088a37 37 0 0 1-4.265.375.7.7 0 0 0-.471.2L7.65 17.24a.667.667 0 0 1-1.138-.472v-2.88a37 37 0 0 1-1.907-.23C3.064 13.431 2 12.081 2 10.57V6.044c0-1.51 1.064-2.86 2.606-3.087" clip-rule="evenodd"/>
</svg>
