<svg xmlns="http://www.w3.org/2000/svg" width="20" height="20" fill="none" viewBox="0 0 20 20">
    <path d="M2 5.167a2.56 2.56 0 0 1 2.563-2.563h10.875A2.563 2.563 0 0 1 18 5.167v9.666a2.563 2.563 0 0 1-2.562 2.563H4.563A2.563 2.563 0 0 1 2 14.833zm2.563-1.063c-.587 0-1.063.476-1.063 1.063v9.666c0 .587.476 1.063 1.063 1.063h10.875c.586 0 1.062-.476 1.062-1.063V5.167c0-.587-.476-1.063-1.062-1.063zm.608 1.821a.75.75 0 0 1 1.05-.15l2.416 1.813a.75.75 0 0 1 0 1.2L6.221 10.6a.75.75 0 1 1-.9-1.2l1.617-1.212L5.32 6.975a.75.75 0 0 1-.15-1.05M8.646 10a.75.75 0 0 1 .75-.75h2.416a.75.75 0 0 1 0 1.5H9.397a.75.75 0 0 1-.75-.75" clip-rule="evenodd"/>
</svg>
