<svg xmlns="http://www.w3.org/2000/svg">
    <path d="M12.817 3.352a3.83 3.83 0 0 0-3.775 4.489c.1.58-.014 1.27-.511 1.767L3.649 14.49c-.19.19-.297.448-.297.717v1.44h1.465v-1.013c0-.374.303-.676.676-.676h1.014v-1.014c0-.374.303-.676.676-.676h1.41l1.799-1.799c.497-.497 1.187-.611 1.767-.511q.32.056.658.056a3.831 3.831 0 0 0 0-7.662M7.634 7.183a5.183 5.183 0 1 1 4.295 5.107c-.266-.046-.471.025-.581.135L9.35 14.422a.68.68 0 0 1-.478.198H7.86v1.014a.676.676 0 0 1-.676.676H6.17v1.014a.676.676 0 0 1-.676.676H2.676A.676.676 0 0 1 2 17.324v-2.117c0-.627.25-1.23.693-1.673l4.882-4.882c.11-.11.18-.315.135-.581a5 5 0 0 1-.076-.888M12.14 4.93c0-.374.303-.676.676-.676a2.93 2.93 0 0 1 2.93 2.93.676.676 0 0 1-1.353 0c0-.872-.706-1.578-1.577-1.578a.676.676 0 0 1-.676-.676"/>
</svg>
