<svg xmlns="http://www.w3.org/2000/svg">
    <path fill-rule="evenodd" d="M5.143 3.462c-1.181.59-1.622 1.265-1.622 1.784s.44 1.195 1.622 1.785c1.135.568 2.757.94 4.59.94s3.454-.372 4.59-.94c1.18-.59 1.62-1.265 1.62-1.785 0-.519-.44-1.194-1.62-1.784-1.136-.568-2.758-.94-4.59-.94-1.833 0-3.455.372-4.59.94m10.8 4.36c-.29.214-.609.404-.94.57-1.389.694-3.253 1.101-5.27 1.101-2.018 0-3.883-.407-5.27-1.101a6.5 6.5 0 0 1-.942-.57v.593c0 .52.44 1.195 1.622 1.785 1.135.568 2.757.94 4.59.94s3.454-.372 4.59-.94c1.18-.59 1.62-1.265 1.62-1.785zm0 3.169c-.29.213-.609.404-.94.57-1.389.694-3.253 1.101-5.27 1.101-2.018 0-3.883-.407-5.27-1.101a6.6 6.6 0 0 1-.942-.57v.594c0 .519.44 1.194 1.622 1.784 1.135.568 2.757.94 4.59.94s3.454-.372 4.59-.94c1.18-.59 1.62-1.265 1.62-1.784zm0 3.169c-.29.213-.609.404-.94.57-1.389.694-3.253 1.101-5.27 1.101-2.018 0-3.883-.407-5.27-1.101a6.6 6.6 0 0 1-.942-.57v.594c0 .519.44 1.194 1.622 1.784 1.135.568 2.757.94 4.59.94s3.454-.372 4.59-.94c1.18-.59 1.62-1.265 1.62-1.784zM2 5.246c0-1.405 1.12-2.473 2.462-3.145C5.85 1.407 7.715 1 9.732 1c2.018 0 3.882.407 5.27 1.101 1.343.672 2.463 1.74 2.463 3.145v9.508c0 1.405-1.12 2.473-2.463 3.145C13.614 18.593 11.75 19 9.732 19s-3.882-.407-5.27-1.101C3.12 17.227 2 16.159 2 14.754z" clip-rule="evenodd"/>
</svg>
