<svg xmlns="http://www.w3.org/2000/svg" width="20" height="20" fill="none" viewBox="0 0 20 20">
    <path d="M5.92 4.188c-1.05.525-1.44 1.125-1.44 1.587s.39 1.061 1.44 1.586c1.01.505 2.451.836 4.08.836s3.07-.331 4.08-.836c1.05-.525 1.441-1.125 1.441-1.586s-.392-1.062-1.441-1.587c-1.01-.504-2.45-.836-4.08-.836s-3.07.332-4.08.836m9.601 3.876c-.259.19-.541.359-.836.506-1.234.617-2.891.98-4.685.98s-3.45-.363-4.684-.98a6 6 0 0 1-.837-.506v.528c0 .461.392 1.061 1.441 1.586 1.01.504 2.451.836 4.08.836s3.07-.332 4.08-.836c1.05-.525 1.441-1.125 1.441-1.586zm0 2.817c-.259.19-.541.359-.836.506-1.234.617-2.891.98-4.685.98s-3.45-.363-4.684-.98a6 6 0 0 1-.837-.506v.527c0 .462.392 1.062 1.441 1.587 1.01.504 2.451.836 4.08.836s3.07-.332 4.08-.836c1.05-.525 1.441-1.125 1.441-1.586zm0 2.817c-.259.19-.541.359-.836.506-1.234.617-2.891.98-4.685.98s-3.45-.363-4.684-.98a6 6 0 0 1-.837-.506v.527c0 .462.392 1.062 1.441 1.587 1.01.504 2.451.836 4.08.836s3.07-.332 4.08-.836c1.05-.525 1.441-1.125 1.441-1.587zM3.127 5.775c0-1.25.995-2.2 2.189-2.796C6.55 2.362 8.206 2 10 2s3.45.362 4.685.979c1.193.597 2.188 1.546 2.188 2.796v8.45c0 1.25-.995 2.2-2.188 2.796C13.45 17.638 11.794 18 10 18s-3.45-.362-4.684-.979c-1.194-.597-2.189-1.546-2.189-2.796z" clip-rule="evenodd"/>
</svg>
