<svg xmlns="http://www.w3.org/2000/svg" width="20" height="20" fill="none" viewBox="0 0 20 20">
    <path fill="#727683" d="M2.5 1.75C2.91421 1.75 3.25 2.08579 3.25 2.5V16.75H17.5C17.9142 16.75 18.25 17.0858 18.25 17.5C18.25 17.9142 17.9142 18.25 17.5 18.25H2.5C2.08579 18.25 1.75 17.9142 1.75 17.5V2.5C1.75 2.08579 2.08579 1.75 2.5 1.75Z"/>
    <path fill="#727683" fill-rule="evenodd" d="M14 9.75C15.519 9.75 16.75 10.981 16.75 12.5 16.75 14.019 15.519 15.25 14 15.25 12.481 15.25 11.25 14.019 11.25 12.5 11.25 10.981 12.481 9.75 14 9.75ZM14 11.25C13.31 11.25 12.75 11.81 12.75 12.5 12.75 13.19 13.31 13.75 14 13.75 14.69 13.75 15.25 13.19 15.25 12.5 15.25 11.81 14.69 11.25 14 11.25ZM7 7.25C8.519 7.25 9.75 8.481 9.75 10 9.75 11.519 8.519 12.75 7 12.75 5.481 12.75 4.25 11.519 4.25 10 4.25 8.481 5.481 7.25 7 7.25ZM7 8.75C6.31 8.75 5.75 9.31 5.75 10 5.75 10.69 6.31 11.25 7 11.25 7.69 11.25 8.25 10.69 8.25 10 8.25 9.31 7.69 8.75 7 8.75ZM11 2.25C12.519 2.25 13.75 3.481 13.75 5 13.75 6.519 12.519 7.75 11 7.75 9.481 7.75 8.25 6.519 8.25 5 8.25 3.481 9.481 2.25 11 2.25ZM11 3.75C10.31 3.75 9.75 4.31 9.75 5 9.75 5.69 10.31 6.25 11 6.25 11.69 6.25 12.25 5.69 12.25 5 12.25 4.31 11.69 3.75 11 3.75Z" clip-rule="evenodd"/>
</svg>
