<svg width="20" height="20" viewBox="0 0 20 20" fill="none" xmlns="http://www.w3.org/2000/svg">
<path d="M2.5 1.75C2.91421 1.75 3.25 2.08579 3.25 2.5V16.75H17.5C17.9142 16.75 18.25 17.0858 18.25 17.5C18.25 17.9142 17.9142 18.25 17.5 18.25H2.5C2.08579 18.25 1.75 17.9142 1.75 17.5V2.5C1.75 2.08579 2.08579 1.75 2.5 1.75Z" fill="#727683"/>
<path fill-rule="evenodd" clip-rule="evenodd" d="M14 9.75C15.5188 9.75 16.75 10.9812 16.75 12.5C16.75 14.0188 15.5188 15.25 14 15.25C12.4812 15.25 11.25 14.0188 11.25 12.5C11.25 10.9812 12.4812 9.75 14 9.75ZM14 11.25C13.3096 11.25 12.75 11.8096 12.75 12.5C12.75 13.1904 13.3096 13.75 14 13.75C14.6904 13.75 15.25 13.1904 15.25 12.5C15.25 11.8096 14.6904 11.25 14 11.25Z" fill="#727683"/>
<path fill-rule="evenodd" clip-rule="evenodd" d="M7 7.25C8.51878 7.25 9.75 8.48122 9.75 10C9.75 11.5188 8.51878 12.75 7 12.75C5.48122 12.75 4.25 11.5188 4.25 10C4.25 8.48122 5.48122 7.25 7 7.25ZM7 8.75C6.30964 8.75 5.75 9.30964 5.75 10C5.75 10.6904 6.30964 11.25 7 11.25C7.69036 11.25 8.25 10.6904 8.25 10C8.25 9.30964 7.69036 8.75 7 8.75Z" fill="#727683"/>
<path fill-rule="evenodd" clip-rule="evenodd" d="M11 2.25C12.5188 2.25 13.75 3.48122 13.75 5C13.75 6.51878 12.5188 7.75 11 7.75C9.48122 7.75 8.25 6.51878 8.25 5C8.25 3.48122 9.48122 2.25 11 2.25ZM11 3.75C10.3096 3.75 9.75 4.30964 9.75 5C9.75 5.69036 10.3096 6.25 11 6.25C11.6904 6.25 12.25 5.69036 12.25 5C12.25 4.30964 11.6904 3.75 11 3.75Z" fill="#727683"/>
</svg>
