<svg xmlns="http://www.w3.org/2000/svg">
    <path fill-rule="evenodd" d="M2.093 2.22a.75.75 0 0 1 1.06 0l2.228 2.227a9.3 9.3 0 0 1 4.62-1.218c4.239 0 7.817 2.819 8.968 6.683a.75.75 0 0 1 0 .427 9.37 9.37 0 0 1-3.089 4.607l2.028 2.028a.75.75 0 0 1-1.061 1.06L2.093 3.28a.75.75 0 0 1 0-1.06m12.72 11.658a7.87 7.87 0 0 0 2.651-3.752A7.86 7.86 0 0 0 6.49 5.556L8.324 7.39a3.209 3.209 0 0 1 4.413 4.413zm-3.196-3.195A1.71 1.71 0 0 0 9.444 8.51zM3.911 6.458a.75.75 0 0 1 .088 1.057 7.8 7.8 0 0 0-1.463 2.613 7.86 7.86 0 0 0 9.606 5.1.75.75 0 1 1 .409 1.444 9.4 9.4 0 0 1-2.551.352 9.36 9.36 0 0 1-8.969-6.682.75.75 0 0 1 0-.428 9.3 9.3 0 0 1 1.823-3.368.75.75 0 0 1 1.057-.088" clip-rule="evenodd"/>
</svg>
