<svg xmlns="http://www.w3.org/2000/svg" width="20" height="20" fill="none" viewBox="0 0 20 20">
    <path d="M3.302 2.562A40 40 0 0 1 10 2c2.282 0 4.52.192 6.698.562A1.57 1.57 0 0 1 18 4.112v.85a2.5 2.5 0 0 1-.732 1.769l-4.426 4.426a1.17 1.17 0 0 0-.342.825v2.385a2.5 2.5 0 0 1-1.382 2.236L8.465 17.93a.667.667 0 0 1-.965-.597v-5.351c0-.31-.123-.607-.342-.825L2.732 6.73A2.5 2.5 0 0 1 2 4.963v-.85c0-.758.54-1.422 1.302-1.551M10 3.333a38.7 38.7 0 0 0-6.475.543.235.235 0 0 0-.192.236v.85c0 .31.123.607.342.826l4.426 4.426a2.5 2.5 0 0 1 .732 1.768v4.273l1.689-.845c.395-.197.645-.601.645-1.043v-2.385a2.5 2.5 0 0 1 .732-1.768l4.426-4.426c.219-.219.342-.516.342-.825v-.85a.235.235 0 0 0-.192-.237A38.7 38.7 0 0 0 10 3.333" clip-rule="evenodd"/>
</svg>
