<svg xmlns="http://www.w3.org/2000/svg" width="20" height="20" fill="none" viewBox="0 0 20 20">
    <path d="M10.11 9.482V3.838a.338.338 0 0 0-.676 0v1.025l.051 4.092a.75.75 0 1 1-1.5.019l-.051-4.091v-.01a.337.337 0 1 0-.675 0V10a.75.75 0 0 1-1.5 0V6.944a.337.337 0 0 0-.675 0v5.645A3.91 3.91 0 0 0 8.995 16.5h1.393c.762 0 1.494-.303 2.033-.842l1.196-1.196c.54-.54.842-1.27.842-2.033v-.001l.002-1.398v-.005c.003-.309.122-.615.356-.85l.043-.052a.338.338 0 0 0-.52-.425 1.9 1.9 0 0 0-.554 1.328l-.002.039v.987l.001.02a.75.75 0 0 1-.75.75 2.36 2.36 0 0 0-1.667.69.75.75 0 0 1-1.06-1.06 3.85 3.85 0 0 1 1.976-1.056V4.874a.338.338 0 0 0-.668-.067l-.007.067v4.61a.75.75 0 0 1-1.5 0m3.674-1.2a1.835 1.835 0 0 1 2.176 2.862l-.001 1.286c0 1.16-.461 2.272-1.281 3.093l-1.197 1.196A4.38 4.38 0 0 1 10.388 18H8.995a5.41 5.41 0 0 1-5.411-5.411V6.944A1.838 1.838 0 0 1 5.759 5.14v-.266a1.837 1.837 0 0 1 2.328-1.77 1.838 1.838 0 0 1 3.37 0 1.836 1.836 0 0 1 2.327 1.77z"/>
</svg>
