<svg xmlns="http://www.w3.org/2000/svg">
    <path fill-rule="evenodd" d="M1 5.662A2.66 2.66 0 0 1 3.662 3h12.676A2.66 2.66 0 0 1 19 5.662v8.873a2.66 2.66 0 0 1-2.662 2.662H3.662A2.66 2.66 0 0 1 1 14.535zm2.662-1.14c-.63 0-1.14.51-1.14 1.14v8.873c0 .63.51 1.141 1.14 1.141h12.676c.63 0 1.14-.51 1.14-1.14V5.661c0-.63-.51-1.14-1.14-1.14zm3.486 2.534a.824.824 0 1 0 0 1.648.824.824 0 0 0 0-1.648m-2.345.824a2.345 2.345 0 1 1 4.69 0 2.345 2.345 0 0 1-4.69 0m6.972-.317c0-.42.34-.76.76-.76h3.17a.76.76 0 1 1 0 1.52h-3.17a.76.76 0 0 1-.76-.76m0 2.536c0-.42.34-.761.76-.761h3.17a.76.76 0 1 1 0 1.521h-3.17a.76.76 0 0 1-.76-.76m-6.23 2.776a5 5 0 0 0 1.603.266c.562 0 1.101-.094 1.603-.266a2.09 2.09 0 0 0-1.603-.748c-.643 0-1.22.29-1.604.748m-1.79.098a3.614 3.614 0 0 1 6.785 0 .76.76 0 0 1-.357.933 6.44 6.44 0 0 1-3.035.756 6.44 6.44 0 0 1-3.036-.756.76.76 0 0 1-.356-.933m8.02-.34c0-.42.34-.76.76-.76h3.17a.76.76 0 0 1 0 1.521h-3.17a.76.76 0 0 1-.76-.76" clip-rule="evenodd"/>
</svg>
