<svg xmlns="http://www.w3.org/2000/svg" width="20" height="20" fill="none" viewBox="0 0 20 20">
    <path d="M10.27 8.416a.75.75 0 0 1-.38.99c-1.802.801-3.072 1.886-3.945 3.196-.877 1.315-1.381 2.898-1.585 4.73a.75.75 0 1 1-1.49-.165c.222-2.006.784-3.834 1.827-5.397C5.742 10.2 7.245 8.94 9.28 8.035a.75.75 0 0 1 .99.381"/>
    <path d="M4.502 4.422C6.289 2.872 9.05 2 12.985 2h3.424a.75.75 0 0 1 .75.75v1.706l-.002.043c-.219 3.822-1.275 6.586-3.08 8.391-1.812 1.813-4.269 2.551-7.05 2.551H4.456a.75.75 0 0 1-.53-.22C2.004 13.3 2 11.338 2 10.426v-.002c.006-2.283.697-4.436 2.502-6.002M3.5 10.427v.005c0 .757 0 2.101 1.277 3.509h2.25c2.521 0 4.543-.664 5.99-2.111 1.45-1.452 2.432-3.8 2.642-7.396V3.5h-2.674c-3.742 0-6.091.833-7.5 2.055-1.39 1.206-1.98 2.892-1.985 4.872"/>
</svg>
