<svg xmlns="http://www.w3.org/2000/svg" width="20" height="20" fill="none" viewBox="0 0 20 20">
    <path d="M9.643 2.5a5.143 5.143 0 0 0-2.577 9.595c.815.473 1.559 1.344 1.559 2.469v.15a.75.75 0 0 1-1.5 0v-.15c0-.42-.29-.87-.812-1.172a6.643 6.643 0 1 1 6.659 0c-.52.302-.811.752-.811 1.172v.15a.75.75 0 0 1-1.5 0v-.15c0-1.125.743-1.996 1.559-2.47A5.143 5.143 0 0 0 9.643 2.5m-1.905 7.754a.75.75 0 0 1 .913-.54 4 4 0 0 0 1.983 0 .75.75 0 0 1 .374 1.453 5 5 0 0 1-.615.121v3.426a.75.75 0 0 1-1.5 0v-3.426a5 5 0 0 1-.616-.12.75.75 0 0 1-.539-.914m-.6 5.923a.75.75 0 0 1 .877-.597 8.7 8.7 0 0 0 3.256 0 .75.75 0 0 1 .28 1.474 10.2 10.2 0 0 1-3.816 0 .75.75 0 0 1-.597-.877m.58 1.934a.75.75 0 0 1 .824-.668 10.6 10.6 0 0 0 2.201 0 .75.75 0 1 1 .156 1.492 12 12 0 0 1-2.513 0 .75.75 0 0 1-.668-.824" clip-rule="evenodd"/>
</svg>
