<svg xmlns="http://www.w3.org/2000/svg">
    <path d="M2 4.727A2.727 2.727 0 0 1 4.727 2h1.978a2.727 2.727 0 0 1 2.727 2.727v1.978a2.727 2.727 0 0 1-2.727 2.727H4.727A2.727 2.727 0 0 1 2 6.705zM4.727 3.5C4.05 3.5 3.5 4.05 3.5 4.727v1.978c0 .677.55 1.227 1.227 1.227h1.978c.677 0 1.227-.55 1.227-1.227V4.727c0-.678-.55-1.227-1.227-1.227zm5.841 1.227A2.727 2.727 0 0 1 13.296 2h1.977A2.727 2.727 0 0 1 18 4.727v1.978a2.727 2.727 0 0 1-2.727 2.727h-1.977a2.727 2.727 0 0 1-2.728-2.727zM13.296 3.5c-.678 0-1.228.55-1.228 1.227v1.978c0 .677.55 1.227 1.228 1.227h1.977c.678 0 1.227-.55 1.227-1.227V4.727c0-.678-.55-1.227-1.227-1.227zM2 13.296a2.727 2.727 0 0 1 2.727-2.728h1.978a2.727 2.727 0 0 1 2.727 2.728v1.977A2.727 2.727 0 0 1 6.705 18H4.727A2.727 2.727 0 0 1 2 15.273zm2.727-1.228c-.678 0-1.227.55-1.227 1.228v1.977c0 .678.55 1.227 1.227 1.227h1.978c.677 0 1.227-.55 1.227-1.227v-1.977c0-.678-.55-1.228-1.227-1.228zm5.841 1.228a2.727 2.727 0 0 1 2.728-2.728h1.977A2.727 2.727 0 0 1 18 13.296v1.977A2.727 2.727 0 0 1 15.273 18h-1.977a2.727 2.727 0 0 1-2.728-2.727zm2.728-1.228c-.678 0-1.228.55-1.228 1.228v1.977c0 .678.55 1.227 1.228 1.227h1.977c.678 0 1.227-.55 1.227-1.227v-1.977c0-.678-.55-1.228-1.227-1.228z"/>
</svg>
