<svg xmlns="http://www.w3.org/2000/svg" width="20" height="20" fill="none" viewBox="0 0 20 20">
    <path d="M9.995 3.5a4.083 4.083 0 0 0-4.083 4.083v.604c0 1.66-.506 3.201-1.37 4.48a18.5 18.5 0 0 0 5.453.812q1.125 0 2.214-.13a18.5 18.5 0 0 0 3.24-.683 7.97 7.97 0 0 1-1.37-4.478v-.605A4.083 4.083 0 0 0 9.995 3.5M4.412 7.583a5.583 5.583 0 0 1 11.167 0v.604c0 1.673.63 3.197 1.669 4.35a.75.75 0 0 1-.298 1.205 20 20 0 0 1-3.79.99q.003.05.002.101a3.167 3.167 0 1 1-6.332-.102 20 20 0 0 1-3.79-.989.75.75 0 0 1-.297-1.206 6.47 6.47 0 0 0 1.669-4.348zm3.919 7.328a1.667 1.667 0 0 0 3.33 0 20.3 20.3 0 0 1-3.33 0" clip-rule="evenodd"/>
</svg>
