<svg xmlns="http://www.w3.org/2000/svg" width="20" height="20" fill="none" viewBox="0 0 20 20">
    <path d="M16.295 3.705a.7.7 0 0 0-.99 0l-.775.775.99.99.775-.775a.7.7 0 0 0 0-.99M14.46 6.53l-.99-.99-6.377 6.377a2.7 2.7 0 0 0-.686 1.15l-.222.748.747-.222a2.7 2.7 0 0 0 1.151-.686zm-.216-3.886a2.2 2.2 0 1 1 3.112 3.112l-8.212 8.211A4.2 4.2 0 0 1 7.36 15.03l-2.076.619a.75.75 0 0 1-.933-.933l.619-2.076a4.2 4.2 0 0 1 1.063-1.784l6.906-6.907.53.53-.53-.53zM4.49 6.4a.99.99 0 0 0-.99.99v8.12c0 .547.443.99.99.99h8.12a.99.99 0 0 0 .99-.99v-3.673a.75.75 0 0 1 1.5 0v3.673A2.49 2.49 0 0 1 12.61 18H4.49A2.49 2.49 0 0 1 2 15.51V7.39A2.49 2.49 0 0 1 4.49 4.9h3.673a.75.75 0 0 1 0 1.5z" clip-rule="evenodd"/>
</svg>
