<svg xmlns="http://www.w3.org/2000/svg" width="20" height="20" fill="none" viewBox="0 0 20 20">
    <path d="M10.602 2.581a1.985 1.985 0 0 1 2.807 0l4.01 4.01a1.985 1.985 0 0 1 0 2.807l-3.581 3.581c-.056.056-.112.173-.095.35.142 1.538-.31 2.832-1.112 3.933-.733 1.006-2.09.898-2.831.157l-2.206-2.206-2.206 2.206a1.985 1.985 0 1 1-2.807-2.807l2.206-2.206L2.58 10.2c-.74-.74-.85-2.098.157-2.83 1.1-.803 2.395-1.255 3.933-1.113.177.017.294-.039.35-.095zm.4 13.635c.06.058.13.08.18.079a.1.1 0 0 0 .047-.01.1.1 0 0 0 .027-.025c.59-.81.892-1.7.793-2.774-.054-.578.105-1.23.586-1.71l3.58-3.58a.284.284 0 0 0 0-.402l-4.01-4.01a.284.284 0 0 0-.4 0L8.224 7.365c-.48.48-1.132.64-1.71.587-1.074-.1-1.964.202-2.774.792a.1.1 0 0 0-.025.027.1.1 0 0 0-.01.047c0 .05.02.12.08.18zM5.99 13.609l-2.206 2.206a.284.284 0 0 0 .401.4l2.206-2.205z" clip-rule="evenodd"/>
</svg>
