<svg xmlns="http://www.w3.org/2000/svg" width="20" height="20" fill="none" viewBox="0 0 20 20">
    <path d="M10.801 2.66a1.985 1.985 0 0 1 2.807 0l4.01 4.01a1.985 1.985 0 0 1 0 2.807l-3.58 3.58c-.056.056-.112.173-.096.35.143 1.538-.31 2.833-1.111 3.933-.734 1.007-2.09.898-2.832.157L7.794 15.29l-2.206 2.206a1.985 1.985 0 0 1-2.807-2.807l2.206-2.206L2.78 10.28c-.74-.741-.85-2.099.157-2.832 1.1-.801 2.395-1.254 3.933-1.111.176.016.293-.04.35-.096zm.401 13.634a.26.26 0 0 0 .18.079.1.1 0 0 0 .046-.01.1.1 0 0 0 .027-.024c.59-.811.893-1.7.793-2.775-.053-.578.106-1.23.587-1.71l3.58-3.58a.283.283 0 0 0 0-.401l-4.01-4.01a.284.284 0 0 0-.4 0l-3.582 3.58c-.48.48-1.131.64-1.71.587-1.073-.1-1.963.202-2.774.792a.1.1 0 0 0-.024.027.1.1 0 0 0-.01.047c-.001.05.02.12.08.18zM6.19 13.687l-2.206 2.206a.284.284 0 1 0 .401.4l2.206-2.205z" clip-rule="evenodd"/>
</svg>
