<svg xmlns="http://www.w3.org/2000/svg" width="20" height="20" fill="none" viewBox="0 0 20 20">
    <path d="M7.937 6.568A11.93 11.93 0 0 1 17.333 2a.667.667 0 0 1 .667.667 11.93 11.93 0 0 1-4.568 9.397q.054.371.055.756A5.18 5.18 0 0 1 8.307 18a.667.667 0 0 1-.666-.667v-3.057a12 12 0 0 1-1.917-1.917H2.667A.667.667 0 0 1 2 11.692a5.18 5.18 0 0 1 5.937-5.124m-.88 1.28a3.85 3.85 0 0 0-3.666 3.178h2.354c.285-1.133.731-2.2 1.313-3.178m-.11 3.9q.595.71 1.306 1.306a10.6 10.6 0 0 0 4.054-1.81 10.6 10.6 0 0 0 4.338-7.889 10.6 10.6 0 0 0-7.888 4.338 10.6 10.6 0 0 0-1.81 4.055m2.027 2.507v2.354a3.85 3.85 0 0 0 3.178-3.666 11.9 11.9 0 0 1-3.178 1.312m3.282-6.973a.461.461 0 1 0 0 .923.461.461 0 0 0 0-.923m-1.795.462a1.795 1.795 0 1 1 3.59 0 1.795 1.795 0 0 1-3.59 0m-5.333 5.348c.22.295.16.713-.136.933A2.71 2.71 0 0 0 3.9 16.1a2.71 2.71 0 0 0 2.076-1.093.667.667 0 0 1 1.069.797 4.05 4.05 0 0 1-3.875 1.583.67.67 0 0 1-.557-.557 4.05 4.05 0 0 1 1.583-3.875.667.667 0 0 1 .933.136" clip-rule="evenodd"/>
</svg>
