<svg xmlns="http://www.w3.org/2000/svg" width="20" height="20" fill="none" viewBox="0 0 20 20">
    <path d="M14.513 2c.306 0 .572.208.647.505l.194.779c.168.67.692 1.194 1.362 1.362l.779.194a.667.667 0 0 1 0 1.294l-.779.195a1.87 1.87 0 0 0-1.362 1.362l-.194.778a.667.667 0 0 1-1.294 0l-.195-.778a1.87 1.87 0 0 0-1.362-1.362l-.778-.195a.667.667 0 0 1 0-1.294l.778-.194a1.87 1.87 0 0 0 1.362-1.362l.195-.779A.67.67 0 0 1 14.513 2m0 2.622c-.23.341-.524.635-.865.865.34.23.635.524.865.865.23-.34.524-.635.865-.865a3.2 3.2 0 0 1-.865-.865m-6.77-.366c.298 0 .56.198.642.484l.611 2.14a2.72 2.72 0 0 0 1.867 1.867l2.14.612a.667.667 0 0 1 0 1.282l-2.14.612a2.72 2.72 0 0 0-1.867 1.866l-.611 2.141a.667.667 0 0 1-1.282 0l-.612-2.14a2.72 2.72 0 0 0-1.867-1.867l-2.14-.612a.667.667 0 0 1 0-1.282l2.14-.612a2.72 2.72 0 0 0 1.867-1.866l.612-2.141a.67.67 0 0 1 .64-.484m0 3.09A4.05 4.05 0 0 1 5.09 10a4.05 4.05 0 0 1 2.655 2.655A4.05 4.05 0 0 1 10.399 10a4.05 4.05 0 0 1-2.655-2.655m5.642 4.808c.287 0 .541.184.632.456l.297.89c.102.306.342.546.648.648l.89.297a.667.667 0 0 1 0 1.264l-.89.297a1.03 1.03 0 0 0-.648.649l-.297.89a.667.667 0 0 1-1.265 0l-.296-.89a1.03 1.03 0 0 0-.649-.65l-.89-.296a.667.667 0 0 1 0-1.264l.89-.297c.306-.102.547-.342.649-.649l.296-.89a.67.67 0 0 1 .633-.455m0 2.416a2.4 2.4 0 0 1-.507.507q.292.215.507.507a2.4 2.4 0 0 1 .506-.507 2.4 2.4 0 0 1-.506-.507" clip-rule="evenodd"/>
</svg>
