<svg width="20" height="20" viewBox="0 0 20 20" fill="none" xmlns="http://www.w3.org/2000/svg">
<path fill-rule="evenodd" clip-rule="evenodd" d="M10 3.5C6.41015 3.5 3.5 6.41015 3.5 10C3.5 13.5899 6.41015 16.5 10 16.5C13.5899 16.5 16.5 13.5899 16.5 10C16.5 6.41015 13.5899 3.5 10 3.5ZM2 10C2 5.58172 5.58172 2 10 2C14.4183 2 18 5.58172 18 10C18 14.4183 14.4183 18 10 18C5.58172 18 2 14.4183 2 10ZM6.83333 8.03646C6.83333 7.37199 7.37199 6.83333 8.03646 6.83333H11.9635C12.628 6.83333 13.1667 7.37199 13.1667 8.03646V11.9635C13.1667 12.628 12.628 13.1667 11.9635 13.1667H8.03646C7.37199 13.1667 6.83333 12.628 6.83333 11.9635V8.03646ZM8.33333 8.33333V11.6667H11.6667V8.33333H8.33333Z"/>
</svg>
