<svg xmlns="http://www.w3.org/2000/svg" width="20" height="20" fill="none" viewBox="0 0 20 20">
    <path d="M5.35 3.5c-.33 0-.609.131-.774.337A9.36 9.36 0 0 0 2.5 9.731q0 .51.053 1.008c.045.415.436.78.993.78h4.508a.75.75 0 0 1 0 1.5h-.426c0 .219-.045.443-.146.657a5.6 5.6 0 0 0-.54 2.4c0 .6.456 1.091 1.039 1.15v-.416c0-.58.11-1.154.326-1.692.342-.856 1.028-1.455 1.742-1.835a6.9 6.9 0 0 0 2.184-1.832c.497-.635 1.256-1.145 2.158-1.197.367-.84.57-1.767.57-2.744 0-.976-.202-1.902-.568-2.74h-.602c-.49 0-.977-.08-1.441-.235l-2.636-.878a3 3 0 0 0-.967-.157zm8.946-.23h-.505c-.329 0-.655-.054-.967-.158l-2.635-.878A4.6 4.6 0 0 0 8.747 2H5.35c-.716 0-1.451.288-1.942.896A10.86 10.86 0 0 0 1 9.731q0 .591.062 1.167c.14 1.312 1.303 2.121 2.484 2.121h2.582v.014a7.1 7.1 0 0 0-.686 3.044 2.654 2.654 0 0 0 2.654 2.654c.765 0 1.385-.62 1.385-1.385v-.536c0-.389.074-.774.218-1.135.172-.43.547-.798 1.055-1.069a8.4 8.4 0 0 0 2.659-2.229q.183-.233.4-.382c.107.546.542 1.024 1.22 1.024h.89c.962 0 1.933-.527 2.321-1.513A10.9 10.9 0 0 0 19 7.51c0-1.108-.165-2.178-.473-3.187-.331-1.085-1.36-1.688-2.386-1.688h-.768c-.502 0-.875.271-1.077.634m1.457.865a8.3 8.3 0 0 1 .709 3.375 8.3 8.3 0 0 1-1.022 4.01h.484c.446 0 .797-.24.925-.564A9.4 9.4 0 0 0 17.5 7.51c0-.958-.143-1.88-.408-2.749-.107-.353-.473-.626-.951-.626z" clip-rule="evenodd"/>
</svg>
