<svg xmlns="http://www.w3.org/2000/svg" width="20" height="20" fill="none" viewBox="0 0 20 20">
    <path d="M10.52 3.385c0-.765.62-1.385 1.384-1.385a2.654 2.654 0 0 1 2.654 2.654 7.1 7.1 0 0 1-.685 3.045v.013h2.581c1.181 0 2.345.81 2.484 2.121Q19 10.41 19 11c0 2.587-.902 4.965-2.407 6.834-.49.61-1.226.897-1.942.897h-3.399c-.49 0-.976-.08-1.44-.234l-2.636-.879a3 3 0 0 0-.967-.156h-.337c-.006.641-.477 1.269-1.245 1.269H3.86c-1.025 0-2.055-.603-2.386-1.689A10.9 10.9 0 0 1 1 13.856c0-1.41.268-2.758.756-3.996.388-.987 1.36-1.514 2.32-1.514h.891c.451 0 .795.212 1.005.514.223-.105.435-.276.615-.506a8.4 8.4 0 0 1 2.659-2.23c.508-.27.883-.638 1.054-1.068.145-.361.22-.746.22-1.135zM4.56 9.846h-.484c-.446 0-.797.24-.925.563a9.4 9.4 0 0 0-.651 3.447c0 .957.143 1.88.408 2.748.108.353.473.627.951.627h.388l-.1-.238a8.3 8.3 0 0 1-.609-3.137c0-1.452.37-2.819 1.022-4.01m1.39.588c.752-.143 1.384-.602 1.817-1.155a6.9 6.9 0 0 1 2.184-1.83c.714-.381 1.4-.98 1.742-1.836a4.6 4.6 0 0 0 .326-1.692v-.415c.583.058 1.039.55 1.039 1.148 0 .86-.194 1.674-.54 2.4a1.5 1.5 0 0 0-.146.658h-.468a.75.75 0 0 0 0 1.5h4.55c.557 0 .948.364.993.78q.053.496.053 1.008a9.36 9.36 0 0 1-2.076 5.894c-.165.206-.444.337-.773.337h-3.399a3 3 0 0 1-.966-.157l-2.636-.879a4.6 4.6 0 0 0-1.441-.234h-.842a6.9 6.9 0 0 1-.329-2.105 6.83 6.83 0 0 1 .912-3.422" clip-rule="evenodd"/>
</svg>
