<svg xmlns="http://www.w3.org/2000/svg" width="20" height="20" fill="none" viewBox="0 0 20 20">
    <path d="M12.596 13.904a.75.75 0 0 1 1.5 0v.365h2.317a.086.086 0 0 0 .087-.086v-1.86a2.974 2.974 0 0 1 0-4.646v-1.86a.087.087 0 0 0-.087-.086h-2.317v.365a.75.75 0 0 1-1.5 0v-.365h-9.01a.087.087 0 0 0-.086.087v1.86a2.975 2.975 0 0 1 0 4.645v1.86c0 .048.04.086.087.086h9.009zM8.885 11.48a.75.75 0 0 1 0 1.5h-2.23a.75.75 0 0 1 0-1.5zm3.71.192v-.557a.75.75 0 0 1 1.5 0v.557a.75.75 0 0 1-1.5 0m-2.037-1.865a.75.75 0 0 1 0 1.5H6.654a.75.75 0 0 1 0-1.5zm2.038-.923v-.558a.75.75 0 0 1 1.5 0v.558a.75.75 0 0 1-1.5 0M18 8.068a.75.75 0 0 1-.374.65 1.48 1.48 0 0 0 0 2.566.75.75 0 0 1 .374.648v2.251c0 .876-.71 1.586-1.587 1.586H3.587c-.876 0-1.587-.71-1.587-1.586v-2.25a.75.75 0 0 1 .374-.65 1.48 1.48 0 0 0 0-2.566.75.75 0 0 1-.374-.65v-2.25c0-.875.71-1.586 1.587-1.586h12.826c.876 0 1.587.71 1.587 1.587z"/>
</svg>
