<svg xmlns="http://www.w3.org/2000/svg" width="20" height="20" fill="none" viewBox="0 0 20 20">
    <path d="M10.429 6.286a4.286 4.286 0 0 1 8.571 0v2.946a.75.75 0 0 1-1.5 0V6.286a2.786 2.786 0 1 0-5.571 0v2.201A2.52 2.52 0 0 1 14.286 11v5.304a2.52 2.52 0 0 1-2.518 2.517h-8.25A2.52 2.52 0 0 1 1 16.304V11a2.52 2.52 0 0 1 2.518-2.518h6.91zM3.518 9.982c-.562 0-1.018.456-1.018 1.018v5.304c0 .562.456 1.017 1.018 1.017h8.25c.562 0 1.018-.455 1.018-1.017V11c0-.562-.456-1.018-1.018-1.018z" clip-rule="evenodd"/>
</svg>
