<svg xmlns="http://www.w3.org/2000/svg" width="20" height="20" fill="none" viewBox="0 0 20 20">
    <path d="M3.17 2.2a.686.686 0 0 0-1 .937l14.039 14.04.03.032.59.59a.686.686 0 0 0 .97-.97l-4.198-4.197 3.237-3.238a1.815 1.815 0 0 0 0-2.566l-3.666-3.666a1.815 1.815 0 0 0-2.566 0L7.368 6.399zm9.331 9.332L8.468 7.499l3.238-3.238a.26.26 0 0 1 .366 0l3.667 3.667a.26.26 0 0 1 0 .366zm.426 4.302-1.178-1.178c-.127.356-.311.69-.545 1.012a.1.1 0 0 1-.025.022.1.1 0 0 1-.043.01.23.23 0 0 1-.164-.073l-6.6-6.6a.23.23 0 0 1-.071-.163q.002-.033.009-.043a.1.1 0 0 1 .022-.025 4 4 0 0 1 1.012-.545L4.166 7.073q-.39.203-.75.466c-.92.67-.82 1.911-.143 2.589l2.017 2.016-2.017 2.017a1.815 1.815 0 0 0 2.566 2.566l2.017-2.017 2.016 2.017c.678.677 1.919.777 2.59-.143q.262-.36.465-.75m-8.554-.574 2.016-2.016.367.367-2.016 2.016a.26.26 0 0 1-.367-.367" clip-rule="evenodd"/>
</svg>
