<svg xmlns="http://www.w3.org/2000/svg" width="20" height="20" fill="none" viewBox="0 0 20 20">
    <path d="M14.006 3.746c.2.006.282.26.124.381l-1.201.921a.21.21 0 0 0-.075.23l.432 1.45a.212.212 0 0 1-.324.235l-1.247-.858a.21.21 0 0 0-.24 0l-1.248.858a.212.212 0 0 1-.324-.235l.432-1.45a.21.21 0 0 0-.075-.23l-1.2-.92a.212.212 0 0 1 .123-.382l1.515-.042a.21.21 0 0 0 .194-.142l.502-1.42a.212.212 0 0 1 .4 0l.503 1.42a.21.21 0 0 0 .194.142zm2.473 4.896c.2.005.283.26.123.382l-.563.43a.21.21 0 0 0-.075.229l.204.684a.212.212 0 0 1-.324.236l-.588-.404a.21.21 0 0 0-.24 0l-.588.404a.212.212 0 0 1-.324-.236l.204-.684a.21.21 0 0 0-.075-.23l-.564-.43a.212.212 0 0 1 .124-.38l.708-.018a.21.21 0 0 0 .195-.141l.24-.677a.212.212 0 0 1 .4 0l.24.677a.21.21 0 0 0 .195.141z"/>
    <path d="M8.103 3.96a.62.62 0 0 1 .134.68 6.124 6.124 0 0 0 8.011 8.011.623.623 0 0 1 .815.815A7.372 7.372 0 0 1 2.889 10.63a7.37 7.37 0 0 1 4.533-6.804.62.62 0 0 1 .68.134M6.637 5.69a6.124 6.124 0 1 0 8.56 8.561q-.636.115-1.305.116A7.37 7.37 0 0 1 6.637 5.69" clip-rule="evenodd"/>
</svg>
