<svg xmlns="http://www.w3.org/2000/svg" width="550" height="550" fill="none" viewBox="0 0 550 550">
    <path fill="#fff" d="M429.036 316.816a.83.83 0 0 1-.635-.317c-7.812-10.073-18.758-19.274-32.439-27.245-.278-.158-.437-.476-.397-.833a.76.76 0 0 1 .635-.634l50.8-9.914c.238-.04.476 0 .635.158l24.27 19.829a.79.79 0 0 1 .277.714.87.87 0 0 1-.476.634l-42.432 17.529c-.08 0-.199.079-.318.079zm-30.457-27.879c12.809 7.733 23.16 16.497 30.734 26.094l40.649-16.814L447 279.499l-48.381 9.438z"/>
    <path fill="#fff" d="M441.29 341.483c-.119 0-.198 0-.317-.08-.238-.079-.397-.317-.476-.555-1.983-8.407-6.068-16.616-12.096-24.389a.83.83 0 0 1-.158-.674c.079-.238.238-.436.476-.516l42.433-17.528c.238-.119.515-.079.753.079a.78.78 0 0 1 .357.675v23.397c0 .278-.159.516-.357.674l-30.179 18.837a.8.8 0 0 1-.436.119zm-10.985-25.143c5.592 7.376 9.438 15.149 11.501 23.08l28.87-18.004v-21.771zm-321.618 41.243h-.079L51.66 352.11c-.238 0-.476-.158-.595-.357a.8.8 0 0 1-.079-.674l7.773-23.278a.86.86 0 0 1 .714-.556l57.304-3.767c.278 0 .555.119.714.357s.158.555 0 .833c-5.314 9.16-8.011 18.718-8.011 28.434v3.688a.71.71 0 0 1-.278.595c-.158.119-.317.198-.515.198m-55.877-6.98 55.084 5.314v-2.815c0-9.558 2.538-18.917 7.495-27.958l-55.321 3.608-7.297 21.851z"/>
    <path fill="#fff" d="M108.687 390.459h-.198l-56.948-15.387a.765.765 0 0 1-.595-.754v-22.961c0-.238.08-.436.278-.595a.69.69 0 0 1 .595-.198l56.947 5.472c.397 0 .714.397.714.794v32.875a.83.83 0 0 1-.317.635.76.76 0 0 1-.476.158zm-56.154-16.815 55.361 14.99v-31.13l-55.361-5.354zm390.225-17.687h-.238a.845.845 0 0 1-.595-.793c0-.714.04-1.388.04-2.022 0-.635.356-.793.793-.793.436 0 .793.357.793.793v2.062a.83.83 0 0 1-.317.634.77.77 0 0 1-.476.159z"/>
    <path fill="#fff" d="M108.806 357.583h-.199a.81.81 0 0 1-.713-.793v-3.688c0-.436.356-.793.793-.793.436 0 .793.357.793.793 0 1.229.039 2.458.119 3.648 0 .238-.08.476-.238.635a.8.8 0 0 1-.555.238z"/>
    <path fill="#fff" d="M275.722 486.031h-2.578a.83.83 0 0 1-.713-.436c-.119-.278-.119-.595.079-.833l1.11-1.546v-31.369c-19.749-.119-39.022-2.181-57.304-6.067l-1.785 32.835c0 .238-.119.437-.317.595a.77.77 0 0 1-.634.159c-22.248-4.957-42.751-12.77-59.327-22.525-.278-.159-.436-.476-.397-.833a.76.76 0 0 1 .635-.634l1.864-.357v-31.131c-14.158-8.05-25.5-17.291-33.709-27.562l-12.135 8.011c-.198.159-.476.159-.714.079a.75.75 0 0 1-.476-.555c-.872-3.966-1.348-7.971-1.348-11.976v-35.057c0-.238.079-.436.278-.595.198-.158.396-.238.595-.198h.119c.396.04.674.357.713.753.794 11.422 5.314 22.486 13.404 32.916 26.333 34.025 86.294 55.995 152.719 55.995 66.426 0 85.064-9.398 116.354-26.491 31.091-16.973 48.778-39.617 49.849-63.768 0-.436.357-.753.793-.753s.793.317.793.753c0 .833.04 1.586.04 2.3 0 10.668-3.133 21.137-9.359 31.091v30.774h.594a.69.69 0 0 1 .714.357c.159.277.159.555 0 .793-5.433 9.478-13.483 18.401-23.992 26.53-.159.119-.397.199-.595.159-.198 0-.397-.159-.516-.317l-16.338-22.565c-14.158 7.892-30.497 14.237-48.58 18.877v30.099l3.49 1.706c.277.158.476.476.436.793 0 .317-.278.595-.595.674-22.882 6.226-47.469 9.359-73.088 9.359zm-1.071-1.626h1.071c24.706 0 48.461-2.934 70.629-8.764l-2.022-.991c-.278-.119-.437-.397-.437-.714v-31.21c0-.357.238-.674.595-.754 18.441-4.679 35.097-11.143 49.413-19.233.357-.198.793-.119 1.031.238l16.299 22.485c9.557-7.455 17.013-15.625 22.208-24.27a.94.94 0 0 1-.555-.198.8.8 0 0 1-.238-.595v-31.765c0-.159 0-.317.119-.476 2.815-4.481 4.957-9.042 6.503-13.682-7.178 17.41-23.08 33.352-46.398 46.121-31.488 17.212-73.088 26.689-117.107 26.689-66.902 0-127.339-22.207-153.988-56.59-6.068-7.852-10.192-16.061-12.254-24.508v25.737c0 3.49.357 7.02 1.071 10.509l11.778-7.772c.357-.238.793-.159 1.07.158 8.209 10.43 19.67 19.829 34.105 27.959.238.158.397.396.397.674v32.241a.81.81 0 0 1-.635.793l-.436.079c15.863 9.042 35.216 16.299 56.154 21.058l1.785-32.836c0-.238.119-.436.317-.595a.78.78 0 0 1 .635-.158c18.718 4.045 38.427 6.146 58.692 6.226.436 0 .793.357.793.793v32.4a.77.77 0 0 1-.158.476l-.357.515z"/>
    <path fill="#fff" d="M324.025 357.305c-.119 0-.238 0-.357-.079a.84.84 0 0 1-.437-.714c0-.119 0-.238.08-.357.119-.238.238-.476.357-.753a.8.8 0 0 1 1.031-.397.83.83 0 0 1 .476.714c0 .119 0 .238-.08.317-.119.278-.238.555-.396.793a.84.84 0 0 1-.714.437z"/>
    <path fill="#fff" d="M324.857 355.521c-.079 0-.198 0-.277-.04a.81.81 0 0 1-.516-.754c0-.079 0-.198.04-.277.079-.159.119-.357.198-.516.159-.396.595-.634.991-.476a.81.81 0 0 1 .516.754c0 .079 0 .158-.04.277-.079.199-.119.397-.198.595a.81.81 0 0 1-.754.516z"/>
    <path fill="#fff" d="M325.134 354.728h-.238c-.317-.119-.555-.436-.555-.753v-.238c.04-.159.08-.278.119-.437v-.118a.867.867 0 0 1 1.031-.516.793.793 0 0 1 .556.991c-.04.199-.119.397-.199.635-.119.317-.436.555-.753.555z"/>
    <path fill="#fff" d="M324.5 356.393c-.119 0-.198 0-.317-.079a.83.83 0 0 1-.476-.714c0-.119 0-.198.079-.317l.238-.595a.804.804 0 0 1 1.031-.436.805.805 0 0 1 .437 1.031c-.08.238-.199.436-.278.634a.83.83 0 0 1-.714.476m-98.984-5.988c-.436 0-.753-.317-.793-.753v-.873c0-.436.357-.793.793-.793s.793.357.793.793v.833c0 .436-.317.754-.753.793zm100.451 0h-.04c-.436 0-.753-.357-.753-.793v-.833c0-.436.357-.793.793-.793s.793.357.793.793v.873c0 .436-.357.753-.793.753"/>
    <path fill="#fff" d="M325.888 351.238h-.079a.81.81 0 0 1-.714-.793v-.079c0-.199 0-.357.04-.516 0-.436.396-.753.833-.753s.753.396.753.832c0 .199 0 .397-.04.595a.81.81 0 0 1-.793.714"/>
    <path fill="#fff" d="M325.61 353.022h-.159a.81.81 0 0 1-.634-.793v-.158c.04-.199.079-.437.119-.635a.773.773 0 0 1 .912-.634.83.83 0 0 1 .674.912c0 .238-.079.436-.119.674-.079.396-.396.674-.793.674z"/>
    <path fill="#fff" d="M325.769 352.071h-.119a.83.83 0 0 1-.674-.912c0-.159.04-.357.079-.516a.745.745 0 0 1 .873-.674c.436.04.753.436.674.873 0 .198-.04.396-.079.595-.08.396-.397.674-.794.674z"/>
    <path fill="#fff" d="M325.372 353.935h-.198c-.357-.079-.595-.436-.595-.753v-.199c.079-.238.119-.515.198-.753a.76.76 0 0 1 .952-.595.81.81 0 0 1 .635.793v.159c-.08.277-.119.555-.199.833-.079.357-.436.594-.753.594zm-12.095 14.316a.78.78 0 0 1-.674-.357c-.238-.357-.119-.872.238-1.11.317-.199.595-.397.912-.595.357-.238.873-.159 1.111.198a.8.8 0 0 1 .119.436.83.83 0 0 1-.357.674l-.952.595a.8.8 0 0 1-.436.119zm10.351-10.153c-.119 0-.277 0-.396-.118a.74.74 0 0 1-.397-.675c0-.277 0-.277.119-.396.119-.199.238-.436.357-.635.198-.396.674-.515 1.071-.317a.75.75 0 0 1 .317 1.071c-.119.238-.238.436-.357.674a.74.74 0 0 1-.674.396zm-6.662 7.535a.83.83 0 0 1-.635-.317.76.76 0 0 1-.159-.476c0-.158.119-.476.318-.634l.713-.595a.805.805 0 0 1 1.111.079.806.806 0 0 1-.079 1.111c-.238.198-.516.396-.754.634a.76.76 0 0 1-.476.159z"/>
    <path fill="#fff" d="M317.798 364.92a.71.71 0 0 1-.595-.278.804.804 0 0 1 .08-1.11c.237-.198.475-.397.713-.635.318-.277.833-.277 1.111.04.119.159.198.357.198.516 0 .158-.079.436-.278.594-.238.238-.475.437-.753.675-.159.119-.317.198-.516.198zm-8.764 5.71a.84.84 0 0 1-.714-.437 1.2 1.2 0 0 1-.079-.357c0-.277.158-.555.436-.713 1.428-.714 2.816-1.468 4.124-2.3.357-.238.873-.119 1.111.237a.8.8 0 0 1 .119.437.78.78 0 0 1-.357.674 62 62 0 0 1-4.244 2.379c-.119.04-.237.08-.356.08z"/>
    <path fill="#fff" d="M304.354 372.653a.805.805 0 0 1-.317-1.547 55 55 0 0 0 4.6-2.022c.397-.198.873 0 1.071.357.039.119.079.238.079.357a.84.84 0 0 1-.436.714c-1.507.753-3.093 1.427-4.719 2.062-.08 0-.199.039-.278.039zm9.875-5.037a.83.83 0 0 1-.674-.357c-.238-.357-.159-.872.238-1.11a31 31 0 0 0 2.617-1.904.806.806 0 0 1 1.11.119c.278.357.199.833-.119 1.111a49 49 0 0 1-2.736 1.983.8.8 0 0 1-.436.119zm8.407-7.971a.6.6 0 0 1-.436-.159c-.357-.238-.436-.753-.198-1.11.119-.198.277-.397.396-.595a.815.815 0 0 1 1.111-.238.78.78 0 0 1 .357.674c0 .278-.04.278-.119.437a6 6 0 0 1-.437.634.76.76 0 0 1-.634.357z"/>
    <path fill="#fff" d="M323.151 358.853c-.158 0-.277 0-.436-.119-.357-.238-.476-.714-.238-1.071.119-.198.238-.357.318-.555.238-.397.713-.516 1.07-.278.238.159.397.397.397.674 0 .278 0 .278-.119.397l-.357.595a.78.78 0 0 1-.674.357zm-2.339 3.132c-.198 0-.357-.08-.515-.199-.159-.158-.278-.357-.278-.595 0-.237.079-.356.198-.515l.476-.595c.278-.317.793-.396 1.111-.079a.77.77 0 0 1 .277.595c0 .198-.079.357-.198.515-.159.198-.357.397-.516.595-.158.159-.357.278-.594.278z"/>
    <path fill="#fff" d="M320.137 362.738a.95.95 0 0 1-.555-.198.8.8 0 0 1-.238-.595.86.86 0 0 1 .199-.555c.198-.198.356-.396.555-.595a.804.804 0 0 1 1.11-.079.804.804 0 0 1 .079 1.11c-.198.199-.396.397-.594.635a.8.8 0 0 1-.595.238z"/>
    <path fill="#fff" d="M321.447 361.271a.7.7 0 0 1-.516-.198.774.774 0 0 1-.119-1.111c.397-.515.754-.952 1.071-1.428.238-.356.753-.436 1.11-.198a.76.76 0 0 1 .357.635c0 .238-.04.317-.159.436a21 21 0 0 1-1.15 1.507.77.77 0 0 1-.594.278zm-95.614-8.249a.8.8 0 0 1-.793-.634c-.039-.278-.079-.476-.119-.714-.079-.436.238-.833.675-.912a.774.774 0 0 1 .912.635c0 .198.079.436.119.634v.159a.8.8 0 0 1-.635.793h-.159z"/>
    <path fill="#fff" d="M226.072 353.934a.764.764 0 0 1-.754-.594 6.5 6.5 0 0 1-.198-.833v-.159a.76.76 0 0 1 .635-.753.805.805 0 0 1 .951.595c.04.237.119.515.199.753v.198a.765.765 0 0 1-.595.754h-.198zm75.149 19.869a.795.795 0 0 1-.753-.555c-.119-.397.079-.873.515-.992a38 38 0 0 0 3.054-1.11.805.805 0 0 1 1.031.436c0 .08.039.199.039.278a.81.81 0 0 1-.515.753c-1.031.397-2.062.794-3.133 1.111-.079 0-.159.039-.238.039z"/>
    <path fill="#fff" d="M225.675 352.071c-.397 0-.714-.278-.793-.675 0-.198-.04-.396-.079-.594-.04-.437.238-.833.674-.873a.745.745 0 0 1 .872.674c0 .159.04.357.08.516.079.436-.238.833-.675.912h-.119z"/>
    <path fill="#fff" d="M225.556 351.238a.81.81 0 0 1-.793-.714c0-.198 0-.396-.04-.595v-.039c0-.397.317-.754.754-.793.436 0 .832.317.832.753 0 .198 0 .357.04.516v.079a.81.81 0 0 1-.714.793zm93.035 13.008a.77.77 0 0 1-.595-.278c-.278-.317-.278-.833.04-1.11.476-.436.951-.912 1.427-1.388a.77.77 0 0 1 1.111 0 .767.767 0 0 1 0 1.11c-.476.516-.992.992-1.507 1.468-.159.119-.357.198-.516.198zm-19.471 10.191c-.397 0-.714-.277-.794-.674a.79.79 0 0 1 .278-.714.63.63 0 0 1 .278-.158c.436-.119 1.031-.318 1.586-.476.159-.04.317-.119.476-.159.436-.119.872.079.991.516.119.396-.079.872-.515.991-.159.04-.318.119-.476.159-.516.158-1.071.317-1.586.476-.08 0-.159.039-.278.039z"/>
    <path fill="#fff" d="M291.307 393.036a.83.83 0 0 1-.634-.317.81.81 0 0 1-.079-.793l2.22-5.116a.91.91 0 0 1 .595-.476h.119c30.774-4.481 52.228-19.908 52.228-37.516s.357-.793.794-.793c.436 0 .793.357.793.793v4.839c0 9.319-5.711 18.4-16.101 25.539-10.113 6.979-24.27 11.897-39.816 13.84zm2.776-5.195-1.507 3.45c14.753-2.022 28.117-6.781 37.714-13.404 7.971-5.512 13.087-12.135 14.792-19.035-6.305 13.959-25.539 25.221-50.999 29.029zm-36.881 4.759h-.119c-14.871-2.26-28.275-7.257-37.793-14.078-9.914-7.138-15.188-15.744-15.188-24.904v-4.839c0-.436.356-.793.793-.793.436 0 .793.357.793.793 0 8.408 4.838 16.458 13.959 23.2 8.963 6.622 21.653 11.54 35.85 13.919.317.04.595.318.634.635.357 1.864.913 3.49 1.745 4.878.159.277.159.595 0 .832a.78.78 0 0 1-.674.357m-50.84-33.668c3.728 14.911 22.961 27.522 49.413 31.884-.476-1.031-.833-2.181-1.071-3.411-14.197-2.458-26.967-7.455-35.969-14.118-5.869-4.322-9.994-9.16-12.373-14.355"/>
    <path fill="#fff" d="M293.528 387.881a.83.83 0 0 1-.634-.317.81.81 0 0 1-.079-.793l3.965-9.081c.595-1.428 1.15-2.856 1.587-4.283a.83.83 0 0 1 .515-.516c.674-.198 1.388-.436 2.062-.634h.04c1.031-.318 2.062-.714 3.053-1.071 1.587-.595 3.133-1.309 4.601-2.023h.039c1.428-.714 2.816-1.467 4.125-2.3h.039c.278-.198.595-.396.873-.595a32 32 0 0 0 2.617-1.903h.04c.277-.238.515-.436.753-.635l.08-.079c.277-.238.475-.436.713-.635h.04c.516-.475.991-.912 1.428-1.388l.119-.118c.158-.199.357-.397.515-.595l.119-.119c.198-.199.357-.397.516-.595l.119-.119q.594-.714 1.07-1.428l.08-.119c.158-.238.277-.396.396-.595l.119-.198c.119-.159.199-.357.318-.515l.118-.199c.119-.198.238-.396.357-.634v-.119c.159-.199.278-.476.397-.714 0-.079.04-.119.079-.159.08-.158.159-.357.238-.555l.08-.238c.079-.198.119-.357.198-.515 0 0 0-.08.039-.119v-.119c.119-.199.159-.397.199-.555l.079-.199c.079-.238.119-.515.198-.753v-.119c.08-.238.119-.436.159-.674v-.238c0-.199.04-.357.079-.556v-.237c0-.199 0-.357.04-.556v-1.031c0-15.03-22.168-27.284-49.452-27.284s-49.452 12.254-49.452 27.284v1.071c0 .159.039.357.079.516v.277c0 .198.04.357.079.555v.238c.04.238.079.437.119.635v.158c.079.238.159.476.238.754v.317c.119.159.159.317.198.436 0 .08.04.159.08.238.079.199.119.357.198.516l.079.238.238.595v.079c.119.278.238.516.357.753 0 0 0 .04.04.08.119.238.238.476.357.674l.119.198c.119.198.238.357.317.555.04.08.079.119.119.199.119.198.238.396.396.595 0 .039.04.079.08.119.317.475.674.951 1.11 1.467l.119.119c.159.198.317.396.476.555v.079c.079 0 .119.08.159.119.158.159.357.357.515.555l.08.08c.475.476.951.952 1.427 1.388h.04c.238.198.476.396.714.634l.119.119c.238.199.436.397.713.595l.08.079a33 33 0 0 0 2.577 1.864s.08 0 .08.04c.277.198.595.397.872.595a59 59 0 0 0 4.125 2.3 55 55 0 0 0 4.6 2.022c.952.357 1.943.714 3.053 1.071h.04c.991.317 2.062.674 3.212.952h.04c.833.238 1.626.436 2.538.634.198.04.396.199.476.357.079.159.158.397.079.595a30.4 30.4 0 0 0-1.031 7.773c0 2.459.119 2.697.357 3.966.04.238 0 .476-.159.634-.158.159-.357.278-.595.278h-.119c-14.395-2.419-27.363-7.456-36.524-14.237-9.557-7.059-14.593-15.546-14.593-24.468s7.495-21.058 21.137-28.672c13.483-7.535 31.408-11.699 50.443-11.699 19.036 0 36.961 4.164 50.444 11.699 13.642 7.614 21.137 17.806 21.137 28.672 0 18.44-22.089 34.541-53.656 39.101h-.119zm6.187-13.602a56 56 0 0 1-1.507 4.045l-.198.436-3.213 7.337c30.06-4.719 50.92-19.948 50.92-37.317 0-17.37-31.408-38.785-70.034-38.785s-70.034 17.41-70.034 38.785 4.838 16.457 13.959 23.199c8.724 6.464 21.018 11.302 34.779 13.761a27 27 0 0 1-.198-3.133c0-2.34.317-4.838.912-7.376-.635-.159-1.23-.317-1.824-.476h-.08a45 45 0 0 1-3.212-.991h-.04c-1.15-.357-2.181-.754-3.172-1.111a58 58 0 0 1-4.719-2.062h-.04a48 48 0 0 1-4.204-2.34s-.039 0-.079-.039c-.317-.199-.634-.397-.912-.595h-.04a49 49 0 0 1-2.736-1.983l-.079-.079a12 12 0 0 0-.754-.595l-.119-.119c-.238-.199-.476-.437-.714-.635l-.039-.039a50 50 0 0 1-1.468-1.428l-.079-.079c-.198-.199-.397-.437-.595-.635l-.079-.079s-.079-.08-.079-.119c-.159-.199-.357-.397-.516-.595l-.119-.119c-.436-.555-.833-1.031-1.15-1.547 0-.039-.079-.119-.119-.158-.119-.199-.278-.397-.397-.595a.8.8 0 0 0-.158-.238l-.357-.595-.119-.198c-.119-.238-.238-.476-.357-.674v-.119c-.119-.278-.278-.556-.397-.794 0 0 0-.079-.079-.158a5 5 0 0 1-.277-.674l-.08-.238c-.079-.199-.158-.397-.198-.555 0-.08-.079-.199-.079-.278a2.3 2.3 0 0 0-.159-.476v-.198c-.079-.04-.079-.119-.119-.198-.079-.278-.159-.556-.198-.833v-.159a4 4 0 0 1-.159-.674v-.238l-.119-.595v-.317c0-.198 0-.397-.039-.595v-.278c0-.277-.04-.555-.04-.872 0-7.812 5.354-15.109 15.109-20.542 9.597-5.354 22.367-8.328 35.929-8.328s26.293 2.974 35.93 8.328c9.755 5.433 15.109 12.73 15.109 20.542v1.11c0 .199-.04.397-.079.595v.317c0 .199-.04.397-.08.595 0 .08 0 .159-.039.278l-.119.714v.119c-.08.317-.159.595-.238.872v.198a1.9 1.9 0 0 0-.238.595c0 .08-.04.119-.04.159v.119a1.9 1.9 0 0 0-.238.595l-.079.238c-.08.238-.198.436-.278.674v.079c-.119.317-.277.595-.396.873v.039s0 .04-.04.08c-.119.238-.238.436-.357.674l-.119.198-.357.595-.119.198a6 6 0 0 1-.436.635l-.079.119c-.357.555-.754 1.031-1.19 1.546l-.119.119c-.159.199-.357.397-.516.635 0 .039-.079.079-.119.158-.198.199-.396.437-.594.635l-.119.119c-.476.476-.992.991-1.468 1.428-.238.237-.476.436-.753.674l-.079.079c-.278.238-.516.436-.754.635h-.079a28 28 0 0 1-2.737 2.062l-.951.595h-.04a63 63 0 0 1-4.243 2.379 52 52 0 0 1-4.759 2.062 50 50 0 0 1-3.133 1.111h-.04c-.555.198-1.11.356-1.665.515z"/>
    <path fill="#fff" d="M304.354 372.653c-.079 0-.198 0-.278-.04a78 78 0 0 0-4.322-1.507.79.79 0 0 1-.555-.912c.713-3.331.872-6.425.515-9.28-.555-4.441-2.34-7.693-5.195-9.399l-6.385-3.251a6 6 0 0 0-.515-.238c-4.085-1.944-9.518-.794-14.991 3.053-5.631 3.966-10.628 10.47-13.761 17.846 0 .119-.079.198-.158.277-.119.119-.278.238-.476.238-3.847.794-7.495 1.864-10.866 3.173a.68.68 0 0 1-.555 0 75 75 0 0 1-4.759-2.062c-1.467-.714-2.895-1.547-4.243-2.38-.318-.198-.595-.396-.912-.595 0 0-.08.001-.08-.039a49 49 0 0 1-2.736-1.983l-.079-.079c-.238-.199-.516-.397-.754-.595l-.119-.119c-.238-.198-.476-.436-.714-.635 0 0-.039 0-.079-.039a25 25 0 0 1-1.467-1.428l-.08-.079c-.198-.199-.396-.436-.595-.635l-.158-.158c-.159-.199-.357-.397-.516-.595l-.119-.119c-.396-.516-.793-1.031-1.15-1.547l-.119-.158c-.119-.199-.277-.397-.396-.595-.04-.08-.08-.119-.119-.199-.119-.198-.198-.357-.317-.515l-.199-.317c-.119-.238-.238-.437-.357-.675 0 0 0-.039-.039-.079v-.04c-.119-.277-.278-.555-.397-.793v-.119c-.119-.238-.198-.476-.277-.674l-.08-.238a5 5 0 0 1-.198-.555v-.119c-.079-.04-.079-.079-.079-.159-.08-.198-.119-.396-.199-.594v-.159a11 11 0 0 1-.277-.873v-.158c-.08-.238-.119-.476-.159-.714 0-.079 0-.198-.04-.278 0-.158-.039-.356-.079-.555v-.317c0-.198 0-.397-.04-.595v-.277c0-.278-.039-.556-.039-.873 0-7.812 5.353-15.109 15.109-20.542 9.597-5.354 22.367-8.328 35.929-8.328s26.293 2.974 35.929 8.328c9.756 5.433 15.11 12.73 15.11 20.542v1.11c0 .199-.04.397-.08.595v.318c0 .198-.039.396-.079.555v.277c-.079.199-.119.437-.158.675v.158l-.238.833c0 .079 0 .119-.04.198l-.079.199c-.04.158-.08.317-.159.475l-.079.238-.238.595c0 .08-.08.159-.08.238-.079.198-.198.436-.277.635 0 .079-.04.119-.079.198-.119.238-.238.516-.397.793v.159c-.159.198-.278.436-.397.674l-.119.198c-.119.198-.238.357-.357.555l-.118.238c-.159.238-.278.437-.437.635 0 .039-.079.119-.119.158a21 21 0 0 1-1.15 1.507l-.119.119c-.158.199-.357.397-.515.595l-.08.08h-.039c-.198.277-.397.475-.595.674l-.119.119c-.476.476-.991.991-1.467 1.427a6 6 0 0 1-.754.635l-.079.079c-.278.238-.516.436-.754.635h-.079a28 28 0 0 1-2.736 2.062l-.952.595a62 62 0 0 1-4.243 2.379h-.04a58 58 0 0 1-4.719 2.062c-.079 0-.198.04-.278.04zm-61.548-3.53a62 62 0 0 0 4.323 1.904 73 73 0 0 1 10.43-3.054c3.252-7.495 8.367-14.118 14.157-18.202 5.949-4.204 11.977-5.394 16.577-3.213.198.119.396.199.555.318l6.385 3.291h.04c3.291 1.983 5.353 5.631 5.948 10.549.357 2.815.198 5.869-.396 9.081q1.784.595 3.45 1.19a49 49 0 0 0 4.322-1.904c1.428-.713 2.816-1.467 4.125-2.3h.039c.318-.198.595-.396.873-.594a32 32 0 0 0 2.617-1.904h.079c.238-.238.476-.436.714-.635l.08-.079c.237-.198.475-.436.713-.634.516-.476.992-.912 1.428-1.388l.119-.119c.159-.199.357-.357.516-.556l.079-.079h.039c.199-.238.357-.436.516-.634l.119-.119a17 17 0 0 0 1.071-1.428l.039-.079c.119-.199.278-.397.397-.595a.6.6 0 0 1 .119-.159c.119-.158.198-.357.317-.515l.119-.199c.119-.198.238-.396.357-.634 0-.04.04-.079.079-.119l.357-.714v-.079c.08-.238.199-.476.278-.674 0-.08.04-.159.079-.238.08-.199.119-.357.198-.516 0 0 0-.079.04-.119v-.119c.079-.158.119-.277.159-.436l.079-.198v-.119c.079-.238.119-.516.198-.754v-.158l.119-.595v-.278c.08-.158.08-.317.119-.515v-.238c0-.199 0-.357.04-.556v-1.031c0-15.03-22.168-27.284-49.452-27.284s-49.452 12.254-49.452 27.284v1.071c0 .159.039.357.079.516v.277c0 .159.04.357.079.516 0 .119 0 .198.04.277 0 .238.079.437.119.675v.119c.079.238.158.475.198.753l.079.198c.04.199.119.357.159.556v.118c.04.04.079.119.079.159.04.159.119.317.199.516l.079.238a8 8 0 0 0 .317.713c.119.278.238.516.357.754v.079c.119.199.238.436.357.635l.159.277c.079.159.158.278.277.437l.119.238c.119.198.238.356.397.555l.119.158c.317.437.674.912 1.07 1.388l.119.119c.159.199.318.397.476.555l.119.119c.199.199.357.397.556.595l.079.08c.476.476.952.951 1.427 1.388h.04c.238.198.476.396.714.634l.119.119.714.595.079.079c.793.635 1.705 1.269 2.617 1.904h.04c.278.198.595.396.873.555 0 0 .039 0 .079.04 1.309.793 2.657 1.586 4.085 2.26h.039z"/>
    <path fill="#fff" d="M308.994 370.63c-.357 0-.674-.237-.793-.634a.75.75 0 0 1 .436-.873c.396-.198.872 0 1.071.357a.77.77 0 0 1-.318 1.031.76.76 0 0 1-.396.119m11.025-7.772a.8.8 0 0 1-.555-.238.78.78 0 0 1-.238-.556c0-.198.079-.396.238-.555l.079-.079a.77.77 0 0 1 1.111 0 .8.8 0 0 1 .238.555c0 .198-.08.397-.238.555l-.08.08a.8.8 0 0 1-.555.238m1.308-1.468a.9.9 0 0 1-.515-.158c-.199-.159-.278-.397-.278-.635s.04-.357.159-.516l.119-.118c.277-.318.793-.397 1.11-.119.317.277.397.793.119 1.11l-.119.119c-.158.198-.396.278-.634.278zm-95.454-8.248a.845.845 0 0 1-.793-.634v-.278c0-.357.278-.714.635-.793.436-.079.832.198.951.634v.278a.844.844 0 0 1-.634.793z"/>
    <path fill="#fff" d="M226.151 354.133c-.357 0-.674-.238-.753-.555 0-.119-.04-.199-.04-.238a.81.81 0 0 1 .595-.952c.396-.119.833.119.952.555v.198h.039a.793.793 0 0 1-.555.992zm87.047 14.157a.83.83 0 0 1-.674-.357c-.238-.357-.119-.872.238-1.11l.079-.04c.357-.198.833-.119 1.071.238s.119.833-.198 1.071c0 0-.079 0-.079.039a.8.8 0 0 1-.437.119zm4.521-3.252a.71.71 0 0 1-.594-.277c-.119-.159-.199-.357-.199-.516s.08-.436.278-.595l.119-.079c.317-.278.833-.278 1.11.079.119.159.199.357.199.516 0 .158-.08.436-.278.595l-.119.079c-.159.119-.357.198-.516.198"/>
    <path fill="#fff" d="M314.15 367.656a.83.83 0 0 1-.635-.318c-.238-.357-.158-.872.199-1.11l.079-.079c.357-.238.833-.119 1.071.238a.765.765 0 0 1-.199 1.07s-.039 0-.079.04c-.119.119-.317.159-.436.159m2.775-1.983a.71.71 0 0 1-.594-.277c-.119-.159-.199-.318-.199-.516s.08-.436.278-.595h.079a.737.737 0 0 1 1.111 0c.119.159.198.318.198.516a.77.77 0 0 1-.278.595h-.039c-.159.158-.318.238-.516.238zm1.626-1.348a.78.78 0 0 1-.555-.238c-.317-.317-.277-.832 0-1.15l.08-.079c.317-.278.793-.238 1.11.079a.844.844 0 0 1 0 1.111l-.04.039c-.158.119-.317.199-.515.199zm6.187-8.566c-.079 0-.198 0-.278-.04-.396-.158-.594-.595-.476-1.031l.08-.238c.158-.396.634-.595 1.031-.476a.81.81 0 0 1 .515.754c0 .079 0 .198-.039.277l-.08.238a.81.81 0 0 1-.753.516m.992-3.41h-.159c-.397-.08-.634-.397-.634-.794v-.436c.118-.436.515-.714.951-.634a.815.815 0 0 1 .674.872c0 .079 0 .198-.039.317-.08.397-.397.635-.793.635zm-3.173 7.455a.8.8 0 0 1-.436-.119c-.357-.238-.436-.714-.238-1.071l.079-.119a.815.815 0 0 1 1.111-.238.78.78 0 0 1 .357.674c0 .278-.04.278-.119.437 0 .039-.08.118-.119.158a.83.83 0 0 1-.635.317z"/>
    <path fill="#fff" d="M325.927 350.683c-.436 0-.753-.357-.753-.793v-.238c0-.436.396-.754.833-.754s.753.357.753.794v.277c0 .436-.396.754-.793.754zm-.357 2.459h-.158c-.397-.079-.635-.396-.635-.793v-.278c.119-.436.516-.713.952-.634.397.079.635.396.635.793v.278a.804.804 0 0 1-.794.634m-100.054-2.459c-.436 0-.753-.317-.793-.753v-.278c0-.436.317-.753.754-.793.436 0 .793.317.832.753v.278c0 .436-.317.753-.753.793z"/>
    <path fill="#fff" d="M225.714 352.348a.85.85 0 0 1-.793-.634c0-.079 0-.198-.039-.317-.04-.437.238-.833.674-.873a.774.774 0 0 1 .912.635v.436a.845.845 0 0 1-.635.793h-.158zm99.619 1.785h-.198a.793.793 0 0 1-.556-.991l.08-.199c.119-.396.555-.634.951-.555a.84.84 0 0 1 .595.952c0 .079 0 .159-.039.198-.119.397-.437.635-.754.635z"/>
    <path fill="#fff" d="M224.803 350.802v-.397a.81.81 0 0 1 .714-.793c.436 0 .832.277.872.714v.238l-1.586.198zm101.045.714h-.119c-.396-.04-.674-.397-.674-.793v-.357c0-.437.397-.754.873-.714.396 0 .713.396.713.793v.396c-.039.397-.396.675-.793.675m-2.34 6.781c-.118 0-.277 0-.396-.119-.238-.159-.397-.397-.397-.674 0-.119 0-.278.119-.397l.119-.198c.238-.397.714-.516 1.071-.278.238.159.397.397.397.675 0 .119 0 .277-.119.396l-.119.198c-.159.238-.397.397-.675.397"/>
    <path fill="#fff" d="M323.033 359.051a.9.9 0 0 1-.436-.119c-.357-.238-.476-.714-.238-1.071l.119-.198c.238-.357.713-.476 1.07-.238s.476.713.278 1.07c-.04.08-.079.159-.119.199a.78.78 0 0 1-.674.357m.952-1.627c-.119 0-.278 0-.397-.118-.357-.238-.476-.714-.278-1.071 0-.04.04-.08.08-.119.238-.357.714-.476 1.07-.278a.77.77 0 0 1 .278 1.071c0 .079-.04.119-.079.159a.78.78 0 0 1-.674.356m1.07-2.418h-.238a.8.8 0 0 1-.555-.754v-.238c0-.04 0-.119.04-.158v-.119a.846.846 0 0 1 1.031-.516c.317.119.555.436.555.753v.238l-.079.238a.8.8 0 0 1-.754.556"/>
    <path fill="#fff" d="M324.421 356.552c-.119 0-.238 0-.317-.079-.397-.159-.555-.635-.397-1.031l.08-.159a.804.804 0 0 1 1.031-.436c.317.119.476.436.476.714 0 .119 0 .198-.08.317a.3.3 0 0 1-.079.158c-.119.278-.436.437-.714.437zm-3.728 5.592c-.198 0-.357-.08-.515-.199-.318-.277-.357-.753-.08-1.11 0 0 .04-.079.08-.119h.039a.75.75 0 0 1 1.111-.159.77.77 0 0 1 .277.595c0 .199-.079.357-.198.516-.04.039-.079.119-.159.158-.158.159-.357.278-.595.278zm-19.472 11.658a.76.76 0 0 1-.753-.595.75.75 0 0 1 .436-.872c.119-.04.238-.08.357-.08.357 0 .674.238.793.635a.75.75 0 0 1-.436.872 1.2 1.2 0 0 1-.357.08zm27.165-238.139c-.119 0-.238 0-.357-.079a4 4 0 0 0-.555-.278c-.317-.119-.476-.436-.476-.714 0-.119 0-.198.079-.317a.805.805 0 0 1 1.031-.436c.238.119.476.198.714.317.397.198.516.674.318 1.071-.159.278-.397.397-.714.397zm5.949 3.609a.78.78 0 0 1-.555-.238l-.08-.079a.8.8 0 0 1-.238-.555c0-.199.08-.397.238-.556a.77.77 0 0 1 1.111 0l.079.08a.78.78 0 0 1 .238.555.78.78 0 0 1-.238.555.78.78 0 0 1-.555.238"/>
    <path fill="#fff" d="M333.265 138.439c-.159 0-.278 0-.397-.119l-.079-.04a.815.815 0 0 1-.278-1.071c.198-.357.674-.515 1.031-.317.04 0 .079.04.119.079 0 0 .04 0 .079.04.357.238.476.714.238 1.071a.78.78 0 0 1-.674.357z"/>
    <path fill="#fff" d="M333.82 138.835a.6.6 0 0 1-.437-.158h-.079c-.357-.238-.436-.754-.159-1.111.238-.357.754-.436 1.111-.198 0 0 .079.04.119.079a.807.807 0 0 1 .119 1.111.83.83 0 0 1-.635.317z"/>
    <path fill="#fff" d="M334.851 139.866a.77.77 0 0 1-.595-.277s-.04-.08-.079-.08a.95.95 0 0 1-.198-.555c0-.198.079-.436.277-.595.317-.277.833-.277 1.111.04 0 0 .039.079.079.079a.95.95 0 0 1 .198.555.77.77 0 0 1-.277.595c-.159.119-.357.199-.516.199zM138.033 316.062c-.119 0-.238 0-.357-.079l-11.54-5.87c-.079 0-.158-.079-.198-.158 0 0-30.734-31.29-31.408-31.964l-.199-.198-.158-.159c-4.72-4.957-7.258-12.492-7.258-21.811 0-21.732 13.999-48.064 32.638-61.27 10.946-7.773 22.049-9.954 30.496-5.988h.119c.318.198.635.396.992.555l9.954 5.116c.396.198.555.674.357 1.031-.199.396-.635.555-1.031.396-7.813-3.37-18.124-1.189-28.355 6.028 0 0-.04.04-.08.04-8.764 6.226-16.854 15.783-22.802 26.887-5.909 11.104-9.161 22.843-9.161 33.074 0 8.883 2.379 16.022 6.821 20.701l.159.159.158.158c.317.357 8.13 8.289 15.704 15.982l15.705 15.982a.79.79 0 0 1 .079 1.031.83.83 0 0 1-.635.317zm-11.064-7.337 7.059 3.609-12.294-12.492c-7.574-7.693-15.387-15.664-15.704-15.981l-.198-.199-.159-.158c-4.759-4.997-7.257-12.532-7.257-21.812 0-21.692 13.959-47.985 32.558-61.19 0 0 .04-.04.08-.04 8.05-5.711 16.219-8.407 23.318-7.852l-4.005-2.062c-.318-.159-.635-.357-.952-.476h-.119c-7.852-3.728-18.401-1.626-28.87 5.829-8.765 6.227-16.855 15.784-22.803 26.888-5.909 11.104-9.16 22.842-9.16 33.074 0 8.883 2.379 16.021 6.82 20.701l.159.158.158.159c.635.634 29.505 30.02 31.329 31.884zm303.495-42.194c-.119 0-.238 0-.357-.08l-7.852-4.005c-.08 0-.159-.079-.199-.159 0 0-20.899-21.295-21.335-21.732l-.119-.119c-.04 0-.079-.079-.119-.119l-.04-.039c-3.251-3.411-4.957-8.606-4.957-14.951 0-14.871 9.558-32.836 22.288-41.878 7.534-5.353 15.188-6.821 20.978-4.084h.079c.238.158.476.277.675.396l6.741 3.45c.397.199.555.675.357 1.031-.198.397-.634.556-1.031.397-5.235-2.26-12.175-.793-19.075 4.124-12.333 8.765-21.613 26.174-21.613 40.569 0 5.989 1.586 10.787 4.561 13.92l.079.079.079.08 21.375 21.732a.786.786 0 0 1 .08 1.031.83.83 0 0 1-.635.317zm-7.376-5.433 3.37 1.745-17.964-18.282-.119-.119-.079-.08c-3.292-3.45-4.997-8.605-4.997-14.99 0-14.871 9.557-32.836 22.287-41.878 5.076-3.608 10.271-5.472 14.871-5.433l-1.705-.872c-.238-.119-.436-.238-.634-.317h-.08c-5.274-2.499-12.333-1.071-19.392 3.926-12.333 8.764-21.653 26.173-21.613 40.569 0 5.948 1.586 10.786 4.561 13.88v.119l.158.158c.397.397 19.749 20.106 21.256 21.613z"/>
    <path fill="#fff" d="M430.463 266.531a.8.8 0 0 1-.555-.238l-21.375-21.732-.119-.119-.119-.119c-3.252-3.411-4.997-8.606-4.997-14.99 0-14.872 9.558-32.836 22.288-41.878l.079-.04c7.336-5.155 14.792-6.702 20.542-4.203h.04l1.427.753h.04c4.124 2.459 6.742 7.099 7.535 13.364.833 6.623-.555 14.594-3.926 22.446l-.119.278c0 .039-.04.079-.079.158v.119c-.04 0-20.027 45.725-20.027 45.725a.91.91 0 0 1-.595.476h-.159zm-20.939-23.239.159.158 20.503 20.86 19.471-44.654c0-.039.04-.079.08-.158l.158-.397c3.252-7.574 4.6-15.228 3.807-21.613-.714-5.75-3.053-9.954-6.741-12.175l-1.388-.713c-5.235-2.261-12.175-.754-19.036 4.124l-.079.04c-12.294 8.764-21.534 26.173-21.534 40.529 0 5.948 1.587 10.787 4.561 13.88l.079.079zm-153.71 244.881h-.079l-42.314-4.322c-.436-.04-.754-.397-.714-.833l2.062-38.269c0-.238.119-.437.317-.595a.78.78 0 0 1 .635-.159c18.718 4.045 38.467 6.147 58.692 6.226.278 0 .516.159.674.397s.159.515 0 .793l-18.599 36.366c-.119.277-.396.436-.714.436zm-41.521-5.79 41.045 4.164 17.766-34.7c-19.55-.158-38.665-2.22-56.828-6.067zm-110.286-38.03c-.159 0-.357-.04-.476-.159l-24.825-19.63a.85.85 0 0 1-.317-.674c0-.278.158-.476.357-.635l43.543-28.632c.119-.119.317-.159.476-.159.277 0 .515.119.634.357 8.209 10.39 19.67 19.789 34.066 27.919.277.158.436.436.396.753 0 .317-.238.555-.515.674l-53.101 20.146c-.079 0-.198.04-.278.04zM80.53 424.009l23.596 18.678 51.118-19.392c-13.682-7.892-24.627-16.934-32.638-26.967zm304.368 47.984a.76.76 0 0 1-.476-.159l-40.213-28.473c-.237-.199-.396-.476-.317-.793.04-.318.278-.556.595-.635 18.441-4.679 35.096-11.143 49.413-19.234.357-.198.793-.118 1.031.238l16.775 23.12s0 .04.039.08l7.852 10.826a.69.69 0 0 1 .119.674c-.079.238-.238.437-.476.516l-34.065 13.721c-.079 0-.198.04-.277.04zm-38.388-28.91 38.467 27.205 32.717-13.206-7.297-10.073s0-.039-.04-.079l-16.299-22.525c-13.88 7.733-29.861 13.999-47.548 18.599zm144.113-48.024h-.08l-57.225-5.671c-.277 0-.515-.198-.634-.436s-.119-.555.04-.754c6.107-9.755 9.24-20.026 9.24-30.456v-2.578c0-.238.119-.476.317-.634q.297-.239.714-.119l55.956 15.863a.68.68 0 0 1 .476.396.72.72 0 0 1 .039.635l-8.09 23.278a.775.775 0 0 1-.753.516zm-55.877-7.138 55.322 5.512 7.614-21.89-54.132-15.348v1.507c0 10.351-2.974 20.503-8.804 30.219"/>
    <path fill="#fff" d="M442.758 358.495a.794.794 0 0 1-.793-.793c0-.674-.001-1.388-.04-2.141v-.397c0-.238.119-.476.317-.634a.69.69 0 0 1 .674-.119h.04a.845.845 0 0 1 .595.793v2.538a.796.796 0 0 1-.793.793z"/>
    <path fill="#fff" d="M442.718 356.235c-.436 0-.793-.357-.793-.754v-.317c0-.238.119-.476.317-.634a.77.77 0 0 1 .714-.119c.357.119.595.436.555.793v.317c0 .436-.396.754-.793.754zM255.814 510.46h-.238c-.317-.118-.555-.396-.555-.753V487.42c0-.119 0-.238.079-.357l18.599-36.326c.159-.317.556-.515.873-.396a.76.76 0 0 1 .595.753v32.4c0 .158-.04.317-.159.476l-1.229 1.745-17.33 24.468a.83.83 0 0 1-.635.317zm.793-22.882v19.591l17.013-23.993v-28.87l-15.664 30.655-1.309 2.578z"/>
    <path fill="#fff" d="M255.814 510.461h-.079l-42.314-4.045c-.397 0-.714-.397-.714-.794v-22.564c0-.238.079-.437.278-.595a.69.69 0 0 1 .594-.198l42.314 4.322c.397.04.714.397.714.793v22.287a.71.71 0 0 1-.277.595c-.159.119-.357.199-.516.199m-41.56-5.513 40.727 3.887v-20.701l-40.727-4.164zm170.644-10.35c-.119 0-.238 0-.357-.08l-40.212-19.868c-.278-.119-.436-.396-.436-.714v-31.21c0-.277.158-.555.436-.713.277-.119.595-.119.833.039l32.756 23.16 7.456 5.274a.83.83 0 0 1 .317.635v22.604c0 .278-.159.516-.357.674a.8.8 0 0 1-.436.119zm-39.419-21.138 38.626 19.115v-20.939l-38.626-27.323z"/>
    <path fill="#fff" d="M384.898 494.597a.8.8 0 0 1-.437-.119c-.198-.158-.357-.396-.357-.674V471.2c0-.318.199-.595.516-.754l34.065-13.721c.238-.079.516-.079.754.079a.78.78 0 0 1 .357.674v22.803a.815.815 0 0 1-.516.754l-34.065 13.523c-.079 0-.198.039-.278.039zm.793-22.842v20.899l32.479-12.888v-21.098zm47.708-50.562a.95.95 0 0 1-.556-.198.8.8 0 0 1-.238-.595v-31.844c0-.238.08-.437.278-.595a.69.69 0 0 1 .595-.198l57.225 5.671a.81.81 0 0 1 .714.793v22.961c0 .436-.318.753-.754.793l-57.225 3.173h-.039zm.793-31.765v30.1l55.638-3.093V394.94l-47.152-4.679z"/>
    <path fill="#fff" d="M490.623 418.02h-.119c-.397-.079-.674-.396-.674-.793v-22.961c0-.08 0-.159.039-.278l8.09-23.278c.119-.357.516-.595.873-.516.396.079.674.397.674.793v22.565c0 .079 0 .159-.04.238l-8.09 23.675c-.119.317-.396.555-.753.555m.793-23.635v18.044l6.504-19.036v-17.726zm-387.409 72.492c-.198 0-.356-.079-.515-.198a.71.71 0 0 1-.278-.595v-22.525c0-.317.199-.634.516-.753l53.101-20.146a.9.9 0 0 1 .713.079c.199.159.357.397.357.635v32.241a.81.81 0 0 1-.634.793l-2.499.476-50.602 9.954h-.159zm.794-22.763v21.019l51.514-10.113v-30.417l-28.712 10.906-22.802 8.645z"/>
    <path fill="#fff" d="M104.007 466.877c-.159 0-.357-.039-.476-.158l-24.825-19.63a.83.83 0 0 1-.317-.635v-22.525c0-.317.158-.595.436-.714a.89.89 0 0 1 .833.079l24.825 19.631a.83.83 0 0 1 .317.634v22.525c0 .318-.158.595-.436.714-.119.04-.238.079-.357.079m-24.032-20.819 23.239 18.4v-20.502l-23.24-18.361v20.502zm254.559-179.567h-.159c-9.002-1.903-18.401-3.37-27.958-4.362-.238 0-.476-.159-.595-.396s-.159-.476-.04-.714l10.232-23.477c.119-.317.436-.476.793-.476l20.265 1.507c.198 0 .396.119.555.277a.98.98 0 0 1 .198.595l-2.459 26.372c0 .397-.396.714-.793.714zm-26.888-5.829c8.923.952 17.687 2.34 26.174 4.084l2.3-24.666-18.877-1.388z"/>
    <path fill="#fff" d="M336.794 266.967h-.158l-2.261-.476a.78.78 0 0 1-.634-.833l2.458-26.371c0-.437.397-.754.833-.714.436 0 .754.357.754.793v22.604l-.199 4.283c0 .238-.119.436-.277.595a.8.8 0 0 1-.516.159zm-1.427-1.903c.237.039.436.079.674.158l.158-3.331v-5.592zm-181.075 24.745c-.198 0-.357-.079-.515-.198l-3.49-3.014c-.278-.238-.357-.595-.198-.912l14.831-33.947a.8.8 0 0 1 .437-.436c.198-.079.436-.079.594 0l37.595 16.973c.317.119.476.437.476.793 0 .318-.277.635-.595.714-18.321 4.957-34.7 11.659-48.698 19.948a.77.77 0 0 1-.397.119zm-2.538-4.045 2.618 2.26c13.483-7.891 29.108-14.355 46.478-19.233l-34.859-15.704-14.276 32.677z"/>
    <path fill="#fff" d="M147.63 293.973c-.198 0-.357-.079-.515-.198-.278-.238-.357-.595-.199-.912l3.133-7.218a.94.94 0 0 1 .555-.475c.238-.04.516 0 .714.158l3.49 3.014a.8.8 0 0 1 .238.873c-.079.198-.198.356-.397.436a121 121 0 0 0-6.543 4.124.8.8 0 0 1-.436.119zm3.45-6.702-1.665 3.768c1.15-.754 2.339-1.468 3.489-2.181l-1.863-1.587z"/>
    <path fill="#fff" d="M275.722 447.248c-66.902 0-127.339-22.208-153.988-56.591-8.288-10.707-12.889-22.049-13.721-33.788a58 58 0 0 1-.119-3.767c0-9.994 2.776-19.829 8.209-29.227 2.895-4.957 6.543-9.835 10.866-14.475a.84.84 0 0 1 .951-.159l9.677 4.918 9.279-21.296c.08-.159.159-.278.278-.357a174 174 0 0 1 6.662-4.204c14.118-8.367 30.655-15.109 49.096-20.106 10.747-2.895 22.049-5.155 33.629-6.702.238 0 .476.04.674.238l27.839 28.355 22.842 11.659 17.767-40.727a.77.77 0 0 1 .793-.476 279 279 0 0 1 28.117 4.362c.753.159 1.507.317 2.3.476 22.406 4.917 43.067 12.69 59.842 22.446 13.88 8.09 24.944 17.409 32.876 27.641 6.186 7.971 10.35 16.378 12.373 24.983.991 4.125 1.467 8.328 1.507 12.532v.079c0 .674 0 1.349-.04 2.062v.318c-1.071 24.746-19.075 47.866-50.682 65.077-31.487 17.211-73.087 26.689-117.107 26.689zm-147.96-136.341c-4.085 4.442-7.535 9.042-10.271 13.761-5.314 9.161-8.011 18.718-8.011 28.434s.039 2.459.119 3.648c.793 11.422 5.314 22.486 13.404 32.916 26.332 34.025 86.293 55.995 152.719 55.995s85.064-9.398 116.353-26.491c31.052-16.973 48.778-39.617 49.849-63.728v-2.34a53 53 0 0 0-1.428-12.214c-1.982-8.408-6.067-16.617-12.095-24.389-7.812-10.113-18.758-19.274-32.439-27.245-16.617-9.676-37.119-17.409-59.367-22.287l-2.26-.476c-8.883-1.864-18.084-3.291-27.364-4.283l-17.885 40.966a.75.75 0 0 1-.476.436c-.198.079-.436.04-.634-.04l-23.715-12.095c-.079 0-.159-.079-.198-.159l-27.681-28.156c-11.381 1.547-22.485 3.767-33.034 6.623-18.322 4.957-34.7 11.659-48.699 19.947a162 162 0 0 0-6.424 4.006l-9.518 21.85a.75.75 0 0 1-.476.437c-.198.079-.436.039-.634-.04l-9.875-5.036zm153.988 104.06c-.119 0-.238 0-.357-.08l-6.107-3.132c-.08 0-.159-.08-.199-.159-.158-.159-16.338-16.616-16.695-16.973h-.04c0-.04 0-.08-.04-.08l-.079-.079a13.5 13.5 0 0 1-1.467-1.903c-14.713-2.261-27.998-7.258-37.436-14.039-9.915-7.138-15.189-15.744-15.189-24.904v-4.839c0-10.866 7.495-21.057 21.137-28.672 13.484-7.534 31.408-11.698 50.444-11.698 19.035 0 36.96 4.164 50.443 11.698 13.642 7.615 21.138 17.806 21.138 28.672v4.839c0 9.319-5.711 18.4-16.101 25.539-10.033 6.9-23.993 11.817-39.38 13.8l-9.398 21.534a.75.75 0 0 1-.476.436c-.079 0-.159.04-.278.04zm-5.671-4.561 5.274 2.697 9.24-21.177a.88.88 0 0 1 .635-.476c15.307-1.903 29.187-6.741 39.101-13.602 9.915-6.821 15.387-15.427 15.427-24.151v-4.918c0-21.375-31.408-38.784-70.034-38.784s-70.034 17.409-70.034 38.784v4.839c0 17.449 21.216 32.835 51.633 37.436.238 0 .436.158.555.396.397.714.912 1.349 1.428 1.943h.039c0 .08.04.119.08.159.357.357 15.188 15.427 16.616 16.894z"/>
    <path fill="#fff" d="M138.034 316.062a.78.78 0 0 1-.556-.238s-3.331-3.41-7.852-7.971c-6.979-7.098-16.735-17.013-21.176-21.573l-2.38-2.419-.198-.199-.159-.158c-4.719-4.957-7.257-12.492-7.257-21.812 0-21.732 13.999-48.064 32.638-61.27 10.707-7.574 21.613-9.874 29.98-6.226h.04l2.102 1.071h.04c5.948 3.569 9.715 10.192 10.866 19.234v.158c1.229 9.716-.833 21.336-5.711 32.797l-2.102 4.838-27.601 63.213a.91.91 0 0 1-.595.476h-.159zm14.514-121.945c-6.305 0-13.483 2.617-20.542 7.614-8.764 6.226-16.854 15.784-22.803 26.888-5.909 11.103-9.161 22.842-9.161 33.073 0 8.884 2.38 16.022 6.821 20.701l.159.159.159.159 2.379 2.419c4.442 4.521 14.197 14.474 21.177 21.573 3.172 3.212 5.75 5.869 7.019 7.138l29.227-66.98c4.759-11.144 6.782-22.406 5.632-31.805v-.159c-1.071-8.566-4.561-14.871-10.113-18.202l-2.062-1.071c-2.38-1.031-5.037-1.547-7.813-1.547zm131.105 37.634c-3.569 0-6.94-.634-10.033-1.943a.3.3 0 0 1-.159-.079c-8.09-5.909-12.531-16.894-12.531-30.932 0-30.576 20.899-66.584 46.557-80.266 10.588-5.631 20.542-6.742 28.831-3.252.039 0 .119.04.158.079 8.09 5.909 12.571 16.894 12.571 30.893s-4.719 30.655-13.245 45.645c-8.566 15.03-19.947 27.086-32.122 33.947h-.079c-6.901 3.886-13.722 5.869-19.948 5.869zm-9.359-3.41c8.011 3.371 18.163 1.983 28.593-3.886h.079c24.548-13.88 44.495-48.937 44.495-78.204s-4.203-23.953-11.857-29.584c-7.813-3.292-17.251-2.181-27.364 3.212-12.135 6.464-23.595 18.242-32.241 33.153-8.685 14.951-13.483 31.21-13.483 45.725 0 14.514 4.204 23.953 11.818 29.584zm13.285-16.18c-.119 0-.277 0-.396-.119l-4.561-2.578c-.238-.158-.397-.396-.397-.674v-53.616c0-.278.159-.555.397-.714l8.526-4.6a.84.84 0 0 1 .754 0l4.56 2.578c.238.158.397.396.397.674v53.497a.77.77 0 0 1-.397.674l-8.526 4.719a.67.67 0 0 1-.396.119zm-3.767-3.847 3.767 2.142 7.733-4.283v-52.585l-3.807-2.142-7.733 4.164v52.704zm20.78-5.552c-.119 0-.278 0-.397-.119l-4.56-2.577c-.238-.159-.397-.397-.397-.675v-53.378c0-.277.159-.555.397-.714l18.361-9.914c2.895-1.586 5.552-2.26 7.812-2.062a8.5 8.5 0 0 1 2.301.555c.198.079.436.198.674.317l4.164 2.38c.198.079.396.198.595.317.079 0 .119.079.158.079.159.119.357.238.555.397l.08.079c.158.119.317.278.476.436l.079.08c.198.158.357.357.476.515l.079.08v.039c.159.199.317.397.436.595 1.269 1.904 1.944 4.6 1.944 8.09v1.071c0 3.371-.635 6.702-1.904 9.874s-3.014 6.108-5.155 8.646c-2.182 2.577-4.68 4.64-7.456 6.186l-9.518 5.235v18.996c0 .277-.158.555-.396.674l-8.447 4.679a.67.67 0 0 1-.397.119zm-3.767-3.886 3.767 2.141 7.654-4.243v-18.996c0-.277.158-.555.396-.713l9.915-5.473c2.617-1.428 4.957-3.371 7.019-5.79a29.1 29.1 0 0 0 4.917-8.209 25.2 25.2 0 0 0 1.785-9.28v-1.07c0-3.133-.555-5.552-1.666-7.178l-.357-.476-.039-.08c-.199-.198-.318-.357-.397-.436l-.079-.079c-.119-.119-.238-.198-.357-.317h-.04a1.8 1.8 0 0 0-.476-.357l-.119-.08c-.158-.079-.317-.198-.475-.238h-.08l-4.164-2.379c-.158-.079-.357-.159-.515-.238a5.4 5.4 0 0 0-1.825-.436c-1.982-.159-4.282.476-6.9 1.864l-17.925 9.676v52.466zm-29.148 42.711c-.119 0-.238 0-.357-.08a23 23 0 0 1-2.458-1.427c-.357-.238-.476-.714-.238-1.071s.714-.476 1.071-.278l2.379 1.388a.817.817 0 0 1 .317 1.071c-.158.278-.396.397-.714.397"/>
    <path fill="#fff" d="M287.579 212.161c-.158 0-.277 0-.396-.119-.238-.159-.397-.397-.397-.674v-53.617c0-.277.159-.555.397-.713l8.526-4.601a.93.93 0 0 1 .793 0c.238.119.397.397.397.675v53.497a.77.77 0 0 1-.397.674l-8.526 4.719a.67.67 0 0 1-.397.119zm.793-53.934v51.832l6.94-3.847V154.5zm51.237-51.871c-.119 0-.278 0-.396-.119l-1.745-.991c-.397-.198-.516-.674-.318-1.071.199-.396.675-.515 1.071-.317.635.317 1.229.674 1.785.991.357.238.476.714.277 1.071-.158.238-.396.397-.674.397zm-72.057 132.851c-.118 0-.237 0-.356-.08-1.19-.594-2.34-1.229-3.411-1.982-.357-.238-.436-.714-.238-1.071.238-.357.714-.476 1.071-.278l3.331 1.904a.815.815 0 0 1 .317 1.07.83.83 0 0 1-.714.437"/>
    <path fill="#fff" d="M288.214 234.329c-5.512 0-10.549-1.546-14.792-4.64a.805.805 0 0 1-.238-1.031c.198-.357.634-.515.991-.357 8.051 3.411 18.203 2.023 28.672-3.846 24.588-13.841 44.575-48.937 44.575-78.243 0-29.307-4.204-23.914-11.858-29.545-.238-.119-.396-.396-.396-.674s.158-.595.436-.714a.84.84 0 0 1 .753 0c10.946 4.68 17.212 16.934 17.212 33.55s-.119 4.243-.318 6.504c-1.705 18.44-10.469 38.824-23.516 54.528-6.583 7.931-13.999 14.356-21.574 18.599-6.94 3.926-13.761 5.869-19.987 5.869zm-7.614-2.736c2.379.793 4.957 1.15 7.653 1.15 5.949 0 12.532-1.903 19.194-5.671 7.377-4.164 14.674-10.469 21.098-18.242 12.809-15.466 21.454-35.493 23.16-53.656.198-2.181.317-4.323.317-6.345 0-12.611-3.688-22.565-10.351-28.355 4.799 6.266 7.337 15.149 7.337 25.777s-4.719 30.655-13.245 45.645c-8.566 15.03-19.948 27.086-32.123 33.947-8.05 4.56-16.021 6.503-23.08 5.71zm-11.263 8.605c-.119 0-.277 0-.396-.119l-1.745-.991a.817.817 0 0 1-.318-1.071c.199-.396.675-.515 1.031-.357.278.119.516.238.794.357.039 0 .079.04.119.079.277.199.594.397.912.595.357.238.476.714.238 1.071-.159.238-.397.397-.675.397zm2.023 1.309a.795.795 0 0 1-.357-1.071.794.794 0 0 1 1.071-.356l-.318.713-.357.714zm-7.099-4.243a.796.796 0 0 1-.793-.793c0-.436.357-.793.793-.793s.793.357.793.793a.796.796 0 0 1-.793.793m73.604-131.899c-.119 0-.278 0-.397-.119h-.04c-.357-.238-.476-.714-.277-1.071.238-.357.714-.515 1.07-.277h.08c.357.277.515.753.277 1.11-.158.238-.396.397-.674.397zm5.156 2.895c-.119 0-.278 0-.397-.079-.595-.317-1.269-.634-1.943-.952-.04 0-.08-.039-.119-.079-.476-.317-.912-.635-1.349-.912-.356-.238-.475-.714-.277-1.071s.714-.515 1.071-.277l3.41 1.903c.397.198.516.714.317 1.071-.158.277-.396.396-.713.396"/>
    <path fill="#fff" d="M343.695 108.616a.67.67 0 0 1-.397-.119h-.079q-.06-.119-.119-.119c-.357-.237-.476-.713-.278-1.07.238-.357.714-.516 1.071-.278l.238.119c.317.159.476.555.357.873a.765.765 0 0 1-.754.594zm-75.309 130.948c-.119 0-.199 0-.318-.079-.277-.119-.555-.278-.872-.397h-.04l-3.331-1.903s-.079-.04-.079-.08c-9.914-6.741-15.387-19.749-15.387-36.603 0-35.81 24.468-77.886 54.528-93.829 12.968-6.86 25.5-7.891 35.295-2.894h.079l1.705.951c.476.278.952.595 1.468.992a.805.805 0 0 1 .238 1.031.77.77 0 0 1-1.031.317 30 30 0 0 0-3.133-1.15c-8.606-2.578-18.758-.991-29.386 4.64-14.237 7.535-27.641 21.335-37.833 38.824-10.192 17.528-15.823 36.564-15.823 53.616 0 17.053 3.688 24.825 10.628 31.884l.04.04a24.7 24.7 0 0 0 3.648 3.093.805.805 0 0 1 .238 1.031c-.158.238-.396.397-.674.397zm56.273-137.292c-6.544 0-13.682 1.943-21.018 5.829-14.237 7.535-27.641 21.336-37.833 38.824-10.192 17.529-15.823 36.564-15.823 53.617s4.164 26.133 11.818 33.034c-5.79-7.337-8.804-17.767-8.804-30.417 0-35.81 24.468-77.886 54.528-93.829 9.082-4.798 17.846-6.781 25.737-5.789-2.696-.833-5.552-1.23-8.565-1.23z"/>
    <path fill="#fff" d="M271.677 241.587c-.119 0-.238 0-.357-.08a23 23 0 0 1-2.458-1.427c-.357-.238-.476-.714-.238-1.071s.714-.476 1.071-.278l2.379 1.388a.817.817 0 0 1 .317 1.071c-.158.278-.396.397-.714.397"/>
    <path fill="#fff" d="M271.36 241.507a.795.795 0 0 1-.357-1.071.794.794 0 0 1 1.071-.356l-.318.713-.357.714zm16.854-7.178c-5.512 0-10.548-1.546-14.792-4.64-8.09-5.908-12.531-16.893-12.531-30.932 0-30.576 20.899-66.584 46.557-80.266 10.588-5.631 20.542-6.741 28.83-3.252h.08c10.945 4.68 17.251 16.934 17.251 33.55s-.119 4.244-.318 6.504c-1.705 18.44-10.469 38.824-23.516 54.528-6.544 7.932-13.999 14.356-21.574 18.599-6.94 3.926-13.761 5.87-19.987 5.87zm37.952-119.486c-5.552 0-11.62 1.705-17.965 5.076-12.135 6.464-23.596 18.242-32.241 33.153-8.685 14.951-13.483 31.21-13.483 45.725 0 14.514 4.243 24.032 11.897 29.623 8.487 6.187 20.542 5.711 33.074-1.348 7.376-4.164 14.673-10.469 21.097-18.242 12.81-15.466 21.455-35.493 23.16-53.656.198-2.181.317-4.323.317-6.345 0-16.022-5.948-27.72-16.338-32.122h-.08c-2.934-1.23-6.107-1.864-9.438-1.864"/>
    <path fill="#fff" d="M269.297 240.198c-.119 0-.277 0-.396-.119l-1.745-.991c-1.19-.595-2.34-1.229-3.411-1.943h-.039c-9.914-6.742-15.387-19.749-15.387-36.604 0-35.81 24.468-77.886 54.528-93.828 12.968-6.86 25.5-7.892 35.295-2.895h.119v.04c.595.317 1.19.634 1.745.991l3.371 1.904c.396.198.515.714.317 1.07a.817.817 0 0 1-1.071.318 44 44 0 0 0-1.943-.952 27 27 0 0 0-3.133-1.15c-8.606-2.578-18.758-.992-29.386 4.64-14.237 7.535-27.641 21.335-37.833 38.824-10.191 17.528-15.823 36.564-15.823 53.616 0 17.053 3.688 24.825 10.628 31.884 1.15 1.15 2.38 2.221 3.688 3.133.278.198.595.397.913.595.357.238.475.714.238 1.071-.159.238-.397.396-.675.396m55.361-137.927c-6.543 0-13.681 1.944-21.018 5.83-14.237 7.535-27.641 21.335-37.832 38.824-10.192 17.529-15.824 36.564-15.824 53.616 0 17.053 4.164 26.134 11.779 32.995-5.79-7.337-8.804-17.766-8.804-30.417 0-35.81 24.468-77.886 54.528-93.828 9.081-4.799 17.885-6.782 25.777-5.79-2.697-.833-5.592-1.23-8.566-1.23zm14.793-44.018c-.119 0-.238 0-.357-.08l-4.323-2.22c-.396-.199-.555-.674-.357-1.031a.8.8 0 0 1 1.032-.397 38 38 0 0 1 4.401 2.26.815.815 0 0 1 .278 1.071c-.159.278-.396.397-.714.397z"/>
    <path fill="#fff" d="M288.373 303.61c-.119 0-.238 0-.357-.079l-23.715-12.096c-.079 0-.159-.079-.198-.158l-27.958-28.434a34176 34176 0 0 0-36.683-37.318 1 1 0 0 1-.159-.198l-.158-.159-.357-.356-.079-.08c-9.518-10.073-14.594-25.341-14.594-44.178 0-21.414 6.781-46.002 19.154-69.201 12.373-23.2 29.267-43.147 47.628-56.194 22.287-15.783 44.812-20.265 61.865-12.294h.079l.159.08c.753.357 1.427.714 2.022 1.03l20.503 10.51c.397.198.555.674.357 1.031a.8.8 0 0 1-1.031.397c-16.378-7.099-37.992-2.538-59.287 12.57-18.163 12.89-34.898 32.638-47.152 55.64-12.254 23.001-18.956 47.31-18.956 68.447 0 18.481 4.917 33.392 14.236 43.187 0 0 0 .039.04.079l.278.278.317.317.04.04c.237.238 2.379 2.419 5.75 5.869l58.89 59.922a.786.786 0 0 1 .08 1.031.83.83 0 0 1-.635.317zm-23.239-13.523 19.273 9.835-55.48-56.432c-3.212-3.252-5.314-5.393-5.71-5.79l-.04-.04a4 4 0 0 1-.357-.396l-.317-.317-.08-.08c-9.517-10.073-14.593-25.341-14.593-44.178 0-21.414 6.781-46.002 19.154-69.201s29.267-43.147 47.628-56.194c18.242-12.928 36.762-18.282 52.228-15.387l-12.611-6.464c-.595-.317-1.229-.674-1.983-1.03l-.158-.08C295.59 36.6 273.62 41.002 251.77 56.468c-18.163 12.888-34.899 32.637-47.153 55.638s-18.956 47.311-18.956 68.448c0 18.481 4.918 33.392 14.237 43.147 0 0 0 .04.04.079.079.119.277.278.277.278.04.04.119.119.159.198l.159.159c.714.753 19.551 19.908 36.682 37.317l27.84 28.355zm78.561-181.471a.67.67 0 0 1-.397-.119h-.079q-.06-.119-.119-.119c-.357-.237-.476-.713-.278-1.07.238-.357.714-.516 1.071-.278l.238.119c.317.159.476.555.357.873a.765.765 0 0 1-.754.594zm21.731 18.917c-.119 0-.238 0-.357-.079l-4.838-2.459c-.317-.158-.476-.476-.436-.833.119-.713.198-1.427.277-2.141 0-.317.238-.555.516-.635a.93.93 0 0 1 .833.199c2.617 2.657 4.52 4.6 4.52 4.6a.786.786 0 0 1 .08 1.031.83.83 0 0 1-.635.317zm-13.801-57.701c-.277 0-.515-.12-.634-.357a39 39 0 0 0-4.878-5.83.79.79 0 0 1-.04-1.07c2.538-3.133 5.314-5.75 8.209-7.813 6.623-4.68 13.325-5.988 18.441-3.609h.079q.297.18.595.357l5.909 3.014c.396.198.555.674.357 1.031a.8.8 0 0 1-1.031.397c-4.521-1.943-10.51-.674-16.458 3.49 0 0-.079.04-.119.079-3.49 2.459-6.861 5.909-9.756 9.954a.83.83 0 0 1-.634.317zm-3.886-6.781a40 40 0 0 1 3.886 4.64c2.816-3.728 6.028-6.94 9.359-9.32 0 0 .08-.08.119-.08 4.323-3.053 8.685-4.679 12.651-4.758l-1.111-.595a3.6 3.6 0 0 0-.555-.278h-.079c-4.561-2.18-10.708-.912-16.815 3.41-2.617 1.865-5.115 4.205-7.455 6.94z"/>
    <path fill="#fff" d="M365.426 127.533a.8.8 0 0 1-.556-.238s-1.903-1.943-4.52-4.6c-.159-.159-.238-.397-.238-.675 1.15-9.121 1.229-17.766.238-25.777-1.349-10.667-4.482-19.67-9.359-26.728a.77.77 0 0 1 0-.912c3.013-4.164 6.503-7.734 10.112-10.311 6.464-4.56 13.047-5.949 18.123-3.728h.04l1.269.634h.04c3.648 2.182 5.948 6.227 6.622 11.739v.08c.714 5.79-.515 12.73-3.45 19.59l-.198.476-17.449 39.974a.91.91 0 0 1-.595.476h-.159zm-3.688-5.671c1.467 1.467 2.696 2.736 3.45 3.49l17.171-39.34c2.816-6.583 4.006-13.285 3.292-18.837v-.08c-.635-4.957-2.657-8.565-5.83-10.509l-1.19-.594c-4.521-1.944-10.548-.635-16.537 3.569-3.37 2.38-6.622 5.67-9.438 9.478 4.838 7.217 7.971 16.299 9.319 26.966.992 8.051.952 16.696-.198 25.817z"/>
    <path fill="#fff" d="M288.372 303.61a.78.78 0 0 1-.555-.238l-59.445-60.477c-3.054-3.093-4.958-5.036-5.196-5.274l-.198-.198-.158-.159-.357-.357-.08-.079c-9.517-10.073-14.593-25.341-14.593-44.178 0-21.415 6.781-46.002 19.154-69.201 12.373-23.2 29.267-43.147 47.628-56.194 21.772-15.427 43.94-20.067 60.834-12.73h.039l4.323 2.22h.04c2.657 1.587 5.115 3.53 7.376 5.75a42 42 0 0 1 5.036 6.068c4.997 7.258 8.209 16.418 9.597 27.284 0 .04 0 .12.04.159 1.031 8.13.952 16.973-.238 26.213-.079.714-.198 1.428-.278 2.181a133 133 0 0 1-1.427 8.13.812.812 0 0 1-1.587 0c-.951-4.917-2.538-9.319-4.679-13.126-2.697-4.759-6.187-8.408-10.47-10.906l-.674-.397-3.371-1.903c-.555-.317-1.11-.674-1.705-.952h-.079c-9.28-4.798-21.296-3.767-33.788 2.855-14.237 7.535-27.641 21.336-37.833 38.825-10.191 17.528-15.823 36.563-15.823 53.616s5.235 28.87 14.713 35.294h.04c.991.675 2.062 1.269 3.172 1.825h.04l1.745.991c.793.516 1.546.952 2.3 1.309 9.755 4.957 22.327 3.569 35.374-3.807 4.56-2.578 9.042-5.83 13.444-9.677a.776.776 0 0 1 .991-.039.824.824 0 0 1 .278.951l-32.995 75.666a.91.91 0 0 1-.595.476h-.158zm-64.64-67.734.277.278.199.198.158.159c.238.237 2.142 2.181 5.195 5.274l58.613 59.644 31.171-71.462a80.4 80.4 0 0 1-11.065 7.654c-13.562 7.654-26.649 9.042-36.881 3.847-.832-.437-1.626-.873-2.458-1.428l-1.706-.991a31 31 0 0 1-3.371-1.944s-.079-.039-.118-.079c-9.915-6.742-15.348-19.749-15.348-36.564 0-35.81 24.469-77.886 54.529-93.828 12.967-6.86 25.499-7.892 35.294-2.895h.08c.634.357 1.229.714 1.784 1.031l4.045 2.3c4.521 2.618 8.209 6.504 11.025 11.501 1.665 2.974 3.014 6.266 4.005 9.914q.417-2.201.714-4.402c.119-.714.198-1.428.278-2.141 1.15-9.042 1.229-17.648.237-25.619 0-.04 0-.119-.039-.158-1.349-10.668-4.481-19.67-9.359-26.73a39 39 0 0 0-4.878-5.829 36.8 36.8 0 0 0-7.019-5.472l-4.283-2.181c-16.379-7.1-37.992-2.499-59.287 12.61-18.163 12.889-34.898 32.638-47.152 55.639s-18.956 47.311-18.956 68.448c0 18.48 4.917 33.391 14.236 43.147 0 0 0 .039.04.079z"/>
    <path fill="#fff" d="M284.804 244.6c-4.838 0-9.359-1.031-13.444-3.093h-.079l-2.379-1.348c-.318-.199-.635-.437-.952-.635a26.4 26.4 0 0 1-3.926-3.331c-7.257-7.376-11.065-18.758-11.065-32.995 0-35.81 24.469-77.886 54.529-93.828 10.985-5.83 21.573-7.456 30.575-4.759 1.111.317 2.221.754 3.292 1.229.714.318 1.388.675 2.022.992l.476.277c.08.04.159.08.238.159 4.481 2.617 8.209 6.504 11.025 11.461 2.221 3.926 3.846 8.487 4.838 13.602v.08c.753 3.886 1.11 8.05 1.11 12.412 0 28.553-16.1 62.698-39.181 83.042-4.441 3.926-9.042 7.257-13.681 9.874-8.17 4.601-16.141 6.94-23.438 6.94zm-12.73-4.521c9.756 4.918 22.327 3.569 35.374-3.846 4.561-2.578 9.042-5.83 13.444-9.677 22.763-20.066 38.626-53.735 38.626-81.852s-.357-8.407-1.111-12.214v-.079c-.951-4.918-2.538-9.28-4.64-13.048-2.696-4.758-6.186-8.407-10.469-10.905-.079-.04-.159-.08-.198-.119l-.476-.278a44 44 0 0 0-1.904-.952 27 27 0 0 0-3.133-1.15c-8.605-2.577-18.757-.991-29.385 4.64-14.237 7.535-27.641 21.336-37.833 38.824-10.192 17.529-15.823 36.564-15.823 53.617s3.688 24.825 10.628 31.884a25 25 0 0 0 3.688 3.133c.277.198.595.396.872.595l2.34 1.348zm16.14-5.75c-5.512 0-10.548-1.547-14.792-4.64-8.09-5.909-12.531-16.894-12.531-30.932 0-30.576 20.899-66.584 46.557-80.266 10.589-5.631 20.542-6.742 28.831-3.252 10.985 4.68 17.29 16.894 17.29 33.59 0 16.695-.119 4.243-.317 6.464-1.705 18.44-10.47 38.824-23.517 54.528-6.543 7.892-13.999 14.356-21.573 18.599-6.94 3.926-13.761 5.869-19.987 5.869zm37.952-119.486c-5.552 0-11.619 1.705-17.964 5.076-12.135 6.464-23.596 18.242-32.241 33.153-8.685 14.951-13.484 31.21-13.484 45.724 0 14.515 4.243 24.032 11.897 29.624 8.487 6.187 20.543 5.711 33.074-1.348 7.376-4.164 14.673-10.47 21.098-18.242 12.809-15.467 21.454-35.493 23.159-53.617.199-2.181.318-4.322.318-6.345 0-16.021-5.949-27.72-16.339-32.122-2.935-1.269-6.147-1.864-9.518-1.864z"/>
    <path fill="#fff" d="M313.039 164.335c-.158 0-.277 0-.396-.119-.238-.159-.397-.397-.397-.674v-10.43c0-.278.159-.555.397-.714l9.081-4.957a10.8 10.8 0 0 1 2.023-.873c.198-.079.436.001.634.08a.7.7 0 0 1 .357.515c.159.635.198 1.349.198 2.102v.754c0 2.419-.674 4.719-1.943 6.781q-1.963 3.153-5.116 4.878l-4.521 2.459c-.118.079-.237.079-.396.079zm.793-10.708v8.606l3.332-1.824a12.1 12.1 0 0 0 4.52-4.323 11 11 0 0 0 1.706-5.948v-1.626c-.278.119-.556.277-.873.436l-8.685 4.719z"/>
    <path fill="#fff" d="M313.039 169.451c-.158 0-.277 0-.396-.119-.238-.159-.397-.397-.397-.674v-5.116c0-.278.159-.555.397-.714l4.521-2.459a12.1 12.1 0 0 0 4.52-4.322c1.15-1.864 1.706-3.847 1.706-5.949v-.753c0-.635-.08-1.23-.199-1.745-.079-.397.159-.833.556-.952 1.308-.357 2.458-.317 3.45.159h.079c1.507.793 2.261 2.498 2.261 5.076v.753c0 2.419-.675 4.719-1.944 6.782q-1.963 3.152-5.115 4.877l-9.082 4.958c-.119.079-.238.079-.396.079zm.793-5.433v3.291l7.932-4.322a12.1 12.1 0 0 0 4.521-4.323 11 11 0 0 0 1.705-5.948v-.754c0-1.903-.476-3.133-1.348-3.648h-.04c-.476-.238-.992-.318-1.666-.238.04.436.08.872.08 1.308v.754c0 2.419-.675 4.679-1.944 6.781q-1.963 3.153-5.115 4.878l-4.125 2.26zm12.611-26.055c-.357 0-.674-.238-.753-.555-.119-.437.119-.873.515-.992.635-.198 1.269-.317 1.864-.436.437-.079.833.238.912.674s-.237.833-.674.912c-.515.08-1.07.199-1.626.357h-.238z"/>
    <path fill="#fff" d="M304.592 202.723c-.159 0-.278 0-.397-.119-.238-.159-.396-.397-.396-.674v-53.379c0-.277.158-.555.396-.713l18.362-9.915c.317-.158.634-.317.912-.476l.317-.158c.198-.079.436-.198.634-.278.159-.079.318-.119.476-.198.199-.079.357-.159.556-.198.158-.08.356-.119.515-.199a.7.7 0 0 0 .198-.079c.675-.198 1.269-.357 1.864-.436.833-.119 1.586-.159 2.3-.079h.159c.278 0 .555.079.753.119.08 0 .159 0 .238.039.119 0 .278.079.397.119h.079c.08 0 .159.04.238.079.278.08.476.159.674.278.199.079.437.198.635.317 0 0 .079.04.119.08.238.158.436.277.595.436l.079.039c.159.119.317.278.516.437l-.516.595.555-.595h.04q.297.357.476.595s0 .039.079.079v.04c.159.198.278.396.436.594 1.269 1.904 1.943 4.64 1.943 8.09v1.071q0 5.057-1.903 9.875c-1.269 3.172-3.014 6.107-5.155 8.645-2.182 2.578-4.68 4.64-7.456 6.186l-9.518 5.235v18.996c0 .277-.158.555-.396.674l-8.447 4.68a.67.67 0 0 1-.397.118zm.793-53.696v51.554l6.861-3.807v-18.995c0-.278.158-.556.396-.714l9.915-5.473c2.617-1.428 4.957-3.371 7.019-5.79a29.1 29.1 0 0 0 4.917-8.209 25.2 25.2 0 0 0 1.785-9.28v-1.07c0-3.133-.555-5.552-1.666-7.178a2.5 2.5 0 0 0-.357-.476l-.039-.079v-.04c-.119-.119-.238-.278-.397-.436l-.079-.08c-.119-.119-.238-.198-.357-.317l-.079-.039c-.159-.119-.278-.199-.437-.318h-.079c0-.039 0-.039-.04-.079-.158-.079-.317-.198-.475-.238-.159-.079-.318-.119-.516-.198h-.119c-.159-.04-.278-.08-.436-.119h-.159c-.158 0-.396-.08-.595-.08h-.158c-.595-.079-1.23-.039-1.944.04-.515.079-1.031.198-1.625.357-.08 0-.119 0-.199.04-.158.039-.317.119-.476.158-.158.08-.357.119-.515.199a1.5 1.5 0 0 0-.436.198 4 4 0 0 0-.595.277l-.278.119a8 8 0 0 0-.833.437l-17.925 9.676zm7.654 20.424c-.159 0-.278 0-.397-.119-.238-.159-.396-.397-.396-.675v-15.505c0-.278.158-.556.396-.714l9.082-4.957a10.8 10.8 0 0 1 2.022-.873c1.349-.396 2.538-.317 3.53.199 1.507.793 2.26 2.498 2.26 5.076v.753c0 2.419-.674 4.68-1.943 6.781s-3.014 3.728-5.116 4.878l-9.081 4.997c-.119.079-.238.079-.397.079zm.793-15.823v13.721l7.931-4.323a12.1 12.1 0 0 0 4.521-4.322c1.15-1.864 1.706-3.847 1.706-5.949v-.753q0-2.916-1.428-3.689c-.635-.317-1.388-.356-2.34-.079a8.8 8.8 0 0 0-1.705.714l-8.685 4.719z"/>
    <path fill="#fff" d="M332.59 138.043c-.119 0-.238 0-.317-.079-.159-.08-.318-.119-.516-.199-.397-.158-.634-.595-.476-.991.159-.397.595-.635.992-.516.277.08.475.159.674.278.396.198.555.634.396 1.031a.83.83 0 0 1-.714.476z"/>
    <path fill="#fff" d="M331.797 137.764h-.238c-.158-.039-.277-.079-.436-.119a.81.81 0 0 1-.595-.952.807.807 0 0 1 .952-.594c.198.039.357.079.516.158.436.119.634.555.515.992a.795.795 0 0 1-.753.555z"/>
    <path fill="#fff" d="M333.145 138.36c-.158 0-.277 0-.396-.119-.159-.08-.318-.199-.476-.238a.83.83 0 0 1-.476-.714c0-.119 0-.238.079-.317.198-.397.674-.556 1.071-.397.198.079.436.198.634.317.238.159.397.397.397.674 0 .159 0 .278-.119.397-.159.238-.397.397-.674.397zm2.142 2.062c-.238 0-.515-.119-.634-.357a2.5 2.5 0 0 0-.357-.476c-.119-.159-.198-.317-.198-.516 0-.198.079-.475.277-.594.357-.278.833-.238 1.111.119.158.198.317.396.436.594.238.357.159.873-.198 1.111a.8.8 0 0 1-.437.119"/>
    <path fill="#fff" d="M334.295 139.192a.95.95 0 0 1-.555-.198l-.198-.198-.159-.159c-.357-.277-.396-.753-.119-1.11.278-.357.754-.397 1.111-.119.079.079.158.119.238.198s.158.159.277.238a.767.767 0 0 1 0 1.11.78.78 0 0 1-.555.238z"/>
    <path fill="#fff" d="M334.771 139.747a.71.71 0 0 1-.594-.277 1 1 0 0 1-.199-.238c-.039-.08-.119-.119-.198-.199a.767.767 0 0 1 0-1.11.767.767 0 0 1 1.11 0l.238.238c.08.079.159.198.238.278a.804.804 0 0 1-.079 1.11c-.159.119-.317.198-.516.198"/>
    <path fill="#fff" d="M333.78 138.756a.76.76 0 0 1-.476-.158c-.119-.119-.278-.199-.397-.278a.863.863 0 0 1-.277-1.11.865.865 0 0 1 1.11-.278h.04c.198.119.357.238.515.357.357.277.397.753.159 1.11a.83.83 0 0 1-.635.318zm-2.617-1.15h-.159c-.159 0-.397-.079-.595-.079a.81.81 0 0 1-.714-.793v-.079a.8.8 0 0 1 .873-.714c.277 0 .555.079.753.119.397.079.635.396.635.793v.159c-.08.396-.397.634-.793.634zm-26.571 65.116c-.119 0-.277 0-.396-.119l-4.561-2.577c-.238-.159-.396-.397-.396-.674v-53.379c0-.277.158-.555.396-.674a.72.72 0 0 1 .793 0l4.561 2.578c.238.158.397.396.397.674v53.378a.77.77 0 0 1-.397.674.76.76 0 0 1-.397.119m-3.767-3.846 2.974 1.705v-51.554l-2.974-1.705z"/>
    <path fill="#fff" d="M304.592 149.384c-.119 0-.277 0-.396-.119l-4.561-2.578a.83.83 0 0 1-.396-.714c0-.277.158-.555.396-.674l18.362-9.914c2.894-1.586 5.551-2.26 7.812-2.062a8.5 8.5 0 0 1 2.3.555c.238.119.476.198.714.317.872.476 1.665 1.19 2.3 2.062.198.238.198.595.04.873a.81.81 0 0 1-.794.396h-.119c-.594-.079-1.229-.039-1.943.08-.515.079-1.07.198-1.626.357l-.198.079c-.119.04-.317.119-.476.159-.158.039-.277.119-.436.158h-.079c-.159.08-.318.159-.437.199a4 4 0 0 0-.594.277c-.08.04-.199.079-.278.119-.278.119-.516.278-.793.397 0 0-.04 0-.079.039l-18.362 9.915c-.119.079-.238.079-.396.079zm-2.934-3.371 2.934 1.666 17.886-9.677s.039 0 .079-.039c.317-.159.635-.318.912-.476.079-.04.198-.08.278-.119a5 5 0 0 1 .674-.278c.159-.079.317-.119.476-.198h.079c.159-.079.317-.159.476-.198s.357-.119.516-.159l.237-.079c.635-.199 1.23-.318 1.864-.437.159 0 .357-.039.516-.079a7 7 0 0 0-.555-.357 7 7 0 0 0-.516-.238 5.6 5.6 0 0 0-1.824-.436c-1.983-.159-4.283.476-6.9 1.864l-17.093 9.24z"/>
    <path fill="#fff" d="M331.321 137.646h-.357c-.396-.08-.634-.397-.634-.793v-.159a.774.774 0 0 1 .912-.635c.079 0 .158 0 .238.04a.764.764 0 0 1 .595.754v.198a.765.765 0 0 1-.754.595"/>
    <path fill="#fff" d="M331.996 137.844c-.08 0-.159 0-.238-.04h-.08c-.039 0-.079-.04-.119-.04-.396-.119-.634-.555-.515-.991.119-.397.555-.634.952-.555.079 0 .158.039.238.079.317.119.555.436.555.754 0 .079 0 .158-.04.238-.119.317-.436.555-.753.555"/>
    <path fill="#fff" d="M332.59 138.042c-.119 0-.238 0-.317-.079-.159-.08-.317-.119-.516-.199h-.079c-.04 0-.079-.039-.119-.039-.119 0-.238-.08-.396-.119h-.159c-.159 0-.397-.08-.595-.08-.238 0-.436-.119-.595-.317a6.2 6.2 0 0 0-1.665-1.546l-.159-.08a.745.745 0 0 1-.278-1.07c.199-.397.675-.516 1.071-.318.079 0 .119.08.159.119l4.005 2.3a.816.816 0 0 1 .317 1.071.83.83 0 0 1-.713.436zm-45.011 74.119c-.119 0-.277 0-.396-.119l-4.561-2.578c-.238-.158-.396-.396-.396-.674v-53.616c0-.278.158-.555.396-.674a.72.72 0 0 1 .793 0l4.561 2.578c.238.158.396.396.396.674v53.616c0 .278-.158.555-.396.674a.77.77 0 0 1-.397.119m-3.767-3.847 2.974 1.706v-51.832l-2.974-1.705z"/>
    <path fill="#fff" d="M287.579 158.545c-.119 0-.277 0-.396-.119l-4.561-2.578a.83.83 0 0 1-.396-.714c0-.277.158-.555.396-.674l8.526-4.6a.84.84 0 0 1 .754 0l4.56 2.617a.83.83 0 0 1 .397.714.72.72 0 0 1-.397.674l-8.526 4.6c-.119.08-.238.08-.396.08zm-2.934-3.371 2.934 1.665 6.861-3.727-2.935-1.666z"/>
    <path fill="#fff" d="M287.579 158.545a.84.84 0 0 1-.713-.436c-.199-.397-.08-.873.317-1.071l8.526-4.6c.397-.198.873-.079 1.071.317.198.397.079.873-.317 1.071l-8.527 4.6c-.119.079-.238.079-.357.079zm-5.829 256.422a.78.78 0 0 1-.556-.238c-.674-.674-15.981-16.259-16.656-16.973l-.079-.079-.119-.119c-1.229-1.309-2.181-2.935-2.855-4.838-.555-1.547-.873-3.292-1.031-5.156a30 30 0 0 1-.079-1.864c0-3.172.555-6.543 1.625-10.033a45 45 0 0 1 3.728-8.685c3.212-5.79 7.495-10.826 12.135-14.078 5.79-4.085 11.739-5.314 16.26-3.331h.039l1.111.555h.039c3.252 1.943 5.314 5.552 5.949 10.469v.08c.357 3.014.198 6.305-.555 9.795a59 59 0 0 1-.912 3.529v.04a40 40 0 0 1-1.587 4.243l-.198.437-15.585 35.731a.9.9 0 0 1-.595.475h-.159zm-16.26-18.44h.04c0 .039 0 .079.04.079.277.317 12.531 12.769 15.862 16.14l15.308-35.056a44 44 0 0 0 1.547-4.164v-.119c.039 0 .039-.08.079-.08.317-1.07.634-2.22.833-3.133.713-3.291.872-6.384.555-9.2v-.079c-.555-4.442-2.34-7.694-5.195-9.399l-1.071-.555c-4.045-1.745-9.399-.555-14.713 3.212-4.441 3.133-8.566 7.971-11.659 13.563-1.507 2.736-2.736 5.552-3.609 8.407-1.031 3.371-1.546 6.583-1.546 9.597s0 1.15.079 1.745c.119 1.705.436 3.291.952 4.719.595 1.705 1.428 3.133 2.498 4.243h.04z"/>
    <path fill="#fff" d="M281.75 414.967c-.119 0-.238 0-.357-.08l-6.107-3.133c-.08 0-.159-.079-.199-.158-.674-.674-15.981-16.26-16.656-16.973l-.079-.08-.119-.119a10.5 10.5 0 0 1-1.665-2.221c-.913-1.546-1.547-3.331-1.904-5.393a24.5 24.5 0 0 1-.357-4.243c0-2.578.357-5.314 1.071-8.13v-.04c.515-2.022 1.229-4.084 2.062-6.107 3.212-7.653 8.447-14.435 14.316-18.559 5.949-4.204 11.977-5.393 16.577-3.212h.039c.159.079.357.198.516.277l5.274 2.697c.397.198.556.674.357 1.031a.8.8 0 0 1-1.031.397c-4.045-1.745-9.398-.595-14.713 3.172-4.441 3.133-8.565 7.932-11.659 13.523v.04c-1.507 2.736-2.736 5.591-3.608 8.407v.119c-1.071 3.331-1.547 6.424-1.547 9.438s0 1.19.079 1.745c.119 1.706.436 3.292.952 4.719.595 1.706 1.428 3.133 2.498 4.244h.04c0 .079.04.119.079.158.357.357 16.022 16.339 16.696 17.013a.786.786 0 0 1 .079 1.031.82.82 0 0 1-.634.318zm-5.671-4.561 1.665.833c-4.798-4.878-13.007-13.246-13.245-13.484h-.04c0-.039 0-.079-.039-.079l-.08-.079c-1.229-1.309-2.22-2.935-2.855-4.838-.555-1.547-.872-3.292-1.031-5.156a27 27 0 0 1-.079-1.864c0-3.212.515-6.424 1.586-9.914v-.119a51.7 51.7 0 0 1 3.728-8.685v-.039c3.212-5.79 7.495-10.827 12.135-14.079 3.767-2.657 7.574-4.124 11.024-4.243l-.713-.357-.476-.238h-.04c-4.045-1.903-9.518-.793-14.951 3.094-5.631 4.005-10.667 10.509-13.761 17.885a39 39 0 0 0-1.982 5.829v.04a30.4 30.4 0 0 0-1.032 7.773c0 2.459.119 2.696.357 3.965.318 1.864.912 3.49 1.745 4.878.436.714.912 1.349 1.428 1.943h.04v.08h.039c0 .039 0 .079.04.079.317.317 15.268 15.546 16.576 16.894z"/>
</svg>
