<svg width="24" height="24" viewBox="0 0 24 24" fill="none" xmlns="http://www.w3.org/2000/svg">
<g>
<path d="M23.2536 16.1741C23.736 14.8741 24 13.468 24 12.0002C24 10.5323 23.736 9.12633 23.2536 7.82629L12 6.78281L0.746391 7.82629C0.264047 9.12633 0 10.5323 0 12.0002C0 13.468 0.264047 14.8741 0.746391 16.1741L12 17.2176L23.2536 16.1741Z" fill="#F0F0F0"/>
<path d="M12.0001 24C17.1596 24 21.5582 20.7435 23.2537 16.1739H0.74646C2.44202 20.7435 6.84049 24 12.0001 24Z" fill="#454545"/>
<path d="M12.0001 0C6.84049 0 2.44202 3.2565 0.74646 7.82611H23.2537C21.5582 3.2565 17.1596 0 12.0001 0Z" fill="#454545"/>
</g>
<defs>
<clipPath id="clip0_3072_342">
<rect width="24" height="24" fill="white"/>
</clipPath>
</defs>
</svg>
