<svg width="24" height="24" viewBox="0 0 24 24" fill="none" xmlns="http://www.w3.org/2000/svg">
<g>
<path d="M24 12C24 10.5321 23.736 9.12602 23.2536 7.82609L12 7.30432L0.746391 7.82604C0.264047 9.12602 0 10.5321 0 12C0 13.4678 0.264047 14.8739 0.746391 16.1739L12 16.6956L23.2536 16.1739C23.736 14.8739 24 13.4678 24 12Z" fill="#F0F0F0"/>
<path d="M12.0001 24.0001C17.1597 24.0001 21.5582 20.7436 23.2537 16.174H0.746521C2.44204 20.7436 6.84055 24.0001 12.0001 24.0001Z" fill="#444444"/>
<path d="M0.746521 7.82611H23.2538C21.5582 3.2565 17.1597 0 12.0001 0C6.84055 0 2.44204 3.2565 0.746521 7.82611V7.82611Z" fill="#454545"/>
<path d="M15.1307 8.34792H13.0437L13.3916 5.73919L14.7828 4.69571L16.1741 5.73919V7.82616L15.1307 8.34792Z" fill="#7B7B7B"/>
<path d="M8.86952 8.34792H10.9565L10.6086 5.73919L9.21733 4.69571L7.82608 5.73919V7.82616L8.86952 8.34792Z" fill="#7B7B7B"/>
<path d="M13.391 8.34792H10.6083V5.73919L11.9997 4.69571L13.391 5.73919V8.34792Z" fill="#454545"/>
<path d="M7.82608 7.82617V13.5653C7.82608 14.9318 8.48617 16.1471 9.5043 16.9089L10.2348 16.7262L11.1565 17.6535C11.4291 17.7096 11.7111 17.7392 12 17.7392C12.2874 17.7392 12.568 17.71 12.8391 17.6544L13.8913 16.7783L14.4956 16.9073C15.5133 16.1454 16.1739 14.9314 16.1739 13.5653V7.82617H7.82608Z" fill="#F0F0F0"/>
<path d="M7.82608 7.82605H9.49563V9.4956H7.82608V7.82605Z" fill="#454545"/>
<path d="M11.1648 7.82605H12.8344V9.4956H11.1648V7.82605Z" fill="#454545"/>
<path d="M14.5045 7.82605H16.1741V9.4956H14.5045V7.82605Z" fill="#454545"/>
<path d="M9.49545 9.49567H11.165V11.1652H9.49545V9.49567Z" fill="#454545"/>
<path d="M12.8352 9.49567H14.5047V11.1652H12.8352V9.49567Z" fill="#454545"/>
<path d="M7.82608 11.1646H9.49563V12.8342H7.82608V11.1646Z" fill="#454545"/>
<path d="M9.49545 12.8342H11.165V14.5038H9.49545V12.8342Z" fill="#454545"/>
<path d="M11.1648 11.1646H12.8344V12.8342H11.1648V11.1646Z" fill="#454545"/>
<path d="M14.5045 11.1646H16.1741V12.8342H14.5045V11.1646Z" fill="#454545"/>
<path d="M12.8352 12.8342H14.5047V14.5038H12.8352V12.8342Z" fill="#454545"/>
<path d="M11.1648 14.5038H12.8344V16.1733H11.1648V14.5038Z" fill="#454545"/>
<path d="M9.49579 14.5039H7.93396C8.07721 15.1245 8.35884 15.6924 8.74499 16.1735H9.49579V14.5039Z" fill="#454545"/>
<path d="M14.5045 16.1735H15.2553C15.6415 15.6924 15.9231 15.1245 16.0663 14.5039H14.5045V16.1735Z" fill="#454545"/>
<path d="M9.49545 16.1735V16.902C9.98103 17.2674 10.5485 17.5294 11.165 17.6551V16.1735H9.49545Z" fill="#454545"/>
<path d="M12.8352 16.1735V17.6551C13.4517 17.5295 14.0191 17.2674 14.5047 16.902V16.1735H12.8352Z" fill="#454545"/>
</g>
<defs>
<clipPath id="clip0_3072_351">
<rect width="24" height="24" fill="white"/>
</clipPath>
</defs>
</svg>
