<svg xmlns="http://www.w3.org/2000/svg" width="24" height="24" fill="none" viewBox="0 0 24 24">
    <path fill="#f0f0f0" d="M24 12c0-1.468-.264-2.874-.746-4.174L12 7.304.746 7.826A12 12 0 0 0 0 12c0 1.468.264 2.874.746 4.174L12 16.696l11.254-.522c.482-1.3.746-2.706.746-4.174"/>
    <path fill="#444" d="M12 24c5.16 0 9.558-3.256 11.254-7.826H.747C2.442 20.744 6.84 24 12 24"/>
    <path fill="#454545" d="M.747 7.826h22.507C21.558 3.256 17.16 0 12 0S2.442 3.257.747 7.826"/>
    <path fill="#7b7b7b" d="M15.13 8.348h-2.086l.348-2.609 1.39-1.043 1.392 1.043v2.087zm-6.26 0h2.087l-.348-2.609-1.392-1.043-1.39 1.043v2.087z"/>
    <path fill="#454545" d="M13.391 8.348h-2.783V5.739L12 4.696l1.391 1.043z"/>
    <path fill="#f0f0f0" d="M7.826 7.826v5.74a4.17 4.17 0 0 0 1.678 3.343l.73-.183.922.928a4.2 4.2 0 0 0 1.683 0l1.052-.876.605.13a4.17 4.17 0 0 0 1.678-3.343V7.826z"/>
    <path fill="#454545" d="M7.826 7.826h1.67v1.67h-1.67zm3.339 0h1.67v1.67h-1.67zm3.34 0h1.67v1.67h-1.67zm-5.01 1.67h1.67v1.67h-1.67zm3.34 0h1.67v1.67h-1.67z"/>
    <path fill="#454545" d="M7.826 11.165h1.67v1.67h-1.67z"/>
    <path fill="#454545" d="M9.495 12.834h1.67v1.67h-1.67zm1.67-1.669h1.67v1.67h-1.67zm3.34 0h1.67v1.67h-1.67zm-1.67 1.669h1.67v1.67h-1.67zm-1.67 1.67h1.67v1.67h-1.67zm-1.669 0H7.934c.143.62.425 1.188.811 1.67h.75zm5.009 1.67h.75a4.16 4.16 0 0 0 .811-1.67h-1.561z"/>
    <path fill="#454545" d="M9.495 16.174v.728a4.2 4.2 0 0 0 1.67.753v-1.482zm3.34 0v1.481a4.2 4.2 0 0 0 1.67-.753v-.729z"/>
</svg>
