<svg xmlns="http://www.w3.org/2000/svg" width="24" height="24" fill="none" viewBox="0 0 24 24">
    <path fill="#f0f0f0" d="M12 24C18.6274 24 24 18.6274 24 12C24 5.37258 18.6274 0 12 0C5.37258 0 0 5.37258 0 12C0 18.6274 5.37258 24 12 24Z"/>
    <path fill="#454545" d="M10.9565 12C10.9565 12 3.52174 20.487 3.51471 20.4853C5.68624 22.6568 8.68629 24 12 24C18.6274 24 24 18.6274 24 12H10.9565Z"/>
    <path fill="#444" d="M3.51471 3.51471C-1.17157 8.20099 -1.17157 15.799 3.51471 20.4853C5.45126 18.5488 7.31374 16.6863 12 12L3.51471 3.51471Z"/>
</svg>
