<svg width="24" height="24" viewBox="0 0 24 24" fill="none" xmlns="http://www.w3.org/2000/svg">
<g>
<path d="M12 24C18.6274 24 24 18.6274 24 12C24 5.37258 18.6274 0 12 0C5.37258 0 0 5.37258 0 12C0 18.6274 5.37258 24 12 24Z" fill="#F0F0F0"/>
<path d="M9.28963 10.4348H23.7967C23.0297 4.54697 17.9952 0 11.8983 0C11.0023 0 10.1296 0.0990469 9.28958 0.285234V10.4348H9.28963Z" fill="#454545"/>
<path d="M6.15928 10.4348V1.45911C2.8643 3.25695 0.505453 6.55465 0 10.4348H6.15928V10.4348Z" fill="#454545"/>
<path d="M6.15923 13.5652H0C0.505453 17.4454 2.8643 20.7431 6.15928 22.5409L6.15923 13.5652Z" fill="#454545"/>
<path d="M9.28958 13.5652V23.7147C10.1296 23.9009 11.0023 24 11.8983 24C17.9952 24 23.0297 19.453 23.7967 13.5652H9.28958V13.5652Z" fill="#454545"/>
</g>
<defs>
<clipPath id="clip0_3072_423">
<rect width="24" height="24" fill="white"/>
</clipPath>
</defs>
</svg>
