<svg xmlns="http://www.w3.org/2000/svg" width="24" height="24" fill="none" viewBox="0 0 24 24">
    <path fill="#f0f0f0" d="M12 24C18.6274 24 24 18.6274 24 12C24 5.37258 18.6274 0 12 0C5.37258 0 0 5.37258 0 12C0 18.6274 5.37258 24 12 24Z"/>
    <path fill="#454545" d="M9.29 10.435H23.797C23.03 4.547 17.995 0 11.898 0 11.002 0 10.13.099 9.29.285V10.435H9.29ZM6.159 10.435V1.459C2.864 3.257.505 6.555 0 10.435H6.159V10.435ZM6.159 13.565H0C.505 17.445 2.864 20.743 6.159 22.541L6.159 13.565ZM9.29 13.565V23.715C10.13 23.901 11.002 24 11.898 24 17.995 24 23.03 19.453 23.797 13.565H9.29V13.565Z"/>
</svg>
