<svg width="24" height="24" viewBox="0 0 24 24" fill="none" xmlns="http://www.w3.org/2000/svg">
<g>
<path d="M0 12C0 13.4678 0.264047 14.8739 0.746391 16.1739L12 16.6956L23.2536 16.1739C23.736 14.8739 24 13.4678 24 12C24 10.5321 23.736 9.12607 23.2536 7.82609L12 7.30432L0.746391 7.82604C0.264047 9.12607 0 10.5321 0 12H0Z" fill="black"/>
<path d="M12.0001 0C6.84055 0 2.44204 3.2565 0.746521 7.82611H23.2538C21.5582 3.2565 17.1597 0 12.0001 0V0Z" fill="#444444"/>
<path d="M23.2537 16.174H0.746521C2.44204 20.7435 6.84055 24.0001 12.0001 24.0001C17.1597 24.0001 21.5582 20.7435 23.2537 16.174Z" fill="#F0F0F0"/>
</g>
<defs>
<clipPath id="clip0_3072_430">
<rect width="24" height="24" fill="white"/>
</clipPath>
</defs>
</svg>
