<svg width="24" height="24" viewBox="0 0 24 24" fill="none" xmlns="http://www.w3.org/2000/svg">
<g>
<path d="M12 24C18.6274 24 24 18.6274 24 12C24 5.37258 18.6274 0 12 0C5.37258 0 0 5.37258 0 12C0 18.6274 5.37258 24 12 24Z" fill="#F0F0F0"/>
<path d="M24 12C24 6.84045 20.7435 2.44193 16.1739 0.746416V23.2537C20.7435 21.5581 24 17.1596 24 12V12Z" fill="#454545"/>
<path d="M0 12C0 17.1596 3.25655 21.5581 7.82611 23.2536V0.746416C3.25655 2.44193 0 6.84045 0 12Z" fill="#444444"/>
</g>
<defs>
<clipPath id="clip0_15_2253">
<rect width="24" height="24" fill="white"/>
</clipPath>
</defs>
</svg>
