<svg xmlns="http://www.w3.org/2000/svg" width="24" height="24" fill="none" viewBox="0 0 24 24">
    <path fill="#f0f0f0" d="M12 24C18.6274 24 24 18.6274 24 12C24 5.37258 18.6274 0 12 0C5.37258 0 0 5.37258 0 12C0 18.6274 5.37258 24 12 24Z"/>
    <path fill="#7b7b7b" d="M12 8.869H23.587C23.286 7.753 22.828 6.701 22.239 5.739H12V8.869ZM4.53 21.391H19.47C20.565 20.519 21.504 19.46 22.238 18.261H1.761C2.496 19.46 3.435 20.519 4.53 21.391V21.391ZM4.174 2.903C3.23 3.716 2.415 4.673 1.761 5.739H4.174V2.903ZM12 12C12 10.778 12 9.755 12 8.87H7.304V12H4.174V8.87H.413C.144 9.868 0 10.917 0 12 0 13.083.144 14.132.413 15.13H23.587C23.856 14.132 24 13.083 24 12H12Z"/>
    <path fill="#7b7b7b" d="M11.9999 0C10.3335 0 8.74654 0.339984 7.3042 0.953812V5.73914H11.9999C11.9999 4.64639 11.9999 3.717 11.9999 2.60869H19.4697C17.4198 0.976125 14.824 0 11.9999 0V0Z"/>
</svg>
