<svg width="24" height="24" viewBox="0 0 24 24" fill="none" xmlns="http://www.w3.org/2000/svg">
<g>
<path d="M0.746391 7.82608C0.264047 9.12611 0 10.5321 0 12C0 13.4678 0.264047 14.8739 0.746391 16.1739L12 17.2174L23.2536 16.1739C23.736 14.8739 24 13.4678 24 12C24 10.5321 23.736 9.12611 23.2536 7.82608L12 6.78259L0.746391 7.82608Z" fill="#F0F0F0"/>
<path d="M12.0001 0C6.84061 0 2.44205 3.2565 0.746582 7.82611H23.2538C21.5582 3.2565 17.1598 0 12.0001 0V0Z" fill="#454545"/>
<path d="M12.2536 23.8261C17.4132 23.8261 21.8117 20.5696 23.5072 16H1C2.69547 20.5696 7.09403 23.8261 12.2536 23.8261V23.8261Z" fill="#8A8A8A"/>
</g>
<defs>
<clipPath id="clip0_3072_384">
<rect width="24" height="24" fill="white"/>
</clipPath>
</defs>
</svg>
