<svg width="24" height="24" viewBox="0 0 24 24" fill="none" xmlns="http://www.w3.org/2000/svg">
<g>
<path d="M12 24C18.6274 24 24 18.6274 24 12C24 5.37258 18.6274 0 12 0C5.37258 0 0 5.37258 0 12C0 18.6274 5.37258 24 12 24Z" fill="#F0F0F0"/>
<path d="M24 12.0001C24 6.84061 20.7435 2.44205 16.1739 0.746582V23.2538C20.7435 21.5582 24 17.1598 24 12.0001V12.0001Z" fill="#A8A8A8"/>
<path d="M0 12.0001C0 17.1598 3.2565 21.5582 7.82611 23.2538V0.746582C3.2565 2.44205 0 6.84061 0 12.0001V12.0001Z" fill="#8A8A8A"/>
</g>
<defs>
<clipPath id="clip0_3072_442">
<rect width="24" height="24" fill="white"/>
</clipPath>
</defs>
</svg>
