<svg width="24" height="24" viewBox="0 0 24 24" fill="none" xmlns="http://www.w3.org/2000/svg">
<g>
<path d="M23.2536 16.1741C23.736 14.8742 24 13.4681 24 12.0002C24 10.5324 23.736 9.12626 23.2536 7.82632L12 6.78284L0.746391 7.82632C0.264 9.12626 0 10.5324 0 12.0002C0 13.4681 0.264 14.8742 0.746391 16.1741L12 17.2176L23.2536 16.1741Z" fill="#8A8A8A"/>
<path d="M23.2537 7.82611C21.5582 3.2565 17.1597 0 12.0001 0C6.84055 0 2.44204 3.2565 0.746521 7.82611H23.2537Z" fill="#D5D5D5"/>
<path d="M12.0001 24.0001C17.1597 24.0001 21.5582 20.7436 23.2537 16.174H0.746521C2.44204 20.7436 6.84055 24.0001 12.0001 24.0001Z" fill="#454545"/>
</g>
<defs>
<clipPath id="clip0_3072_446">
<rect width="24" height="24" fill="white"/>
</clipPath>
</defs>
</svg>
