<svg width="24" height="24" viewBox="0 0 24 24" fill="none" xmlns="http://www.w3.org/2000/svg">
<g>
<path d="M12 24C18.6274 24 24 18.6274 24 12C24 5.37258 18.6274 0 12 0C5.37258 0 0 5.37258 0 12C0 18.6274 5.37258 24 12 24Z" fill="#F0F0F0"/>
<path d="M12.0001 0C6.84055 0 2.44204 3.2565 0.746521 7.82611H23.2538C21.5582 3.2565 17.1597 0 12.0001 0V0Z" fill="#454545"/>
<path d="M12.0001 24.0001C17.1597 24.0001 21.5582 20.7436 23.2537 16.174H0.746521C2.44204 20.7436 6.84055 24.0001 12.0001 24.0001Z" fill="#7B7B7B"/>
</g>
<defs>
<clipPath id="clip0_3072_393">
<rect width="24" height="24" fill="white"/>
</clipPath>
</defs>
</svg>
