<svg width="24" height="24" viewBox="0 0 24 24" fill="none" xmlns="http://www.w3.org/2000/svg">
<g>
<path d="M16.1736 0.746344C14.8736 0.264047 13.4676 6.23894e-09 11.9997 6.23894e-09C10.5319 -4.68688e-05 9.12582 0.264047 7.82583 0.746344L6.78235 12L7.82583 23.2536C9.12577 23.736 10.5318 24 11.9997 24C13.4675 24 14.8736 23.736 16.1736 23.2536L17.2171 12L16.1736 0.746344Z" fill="#D5D5D5"/>
<path d="M24 11.9999C24 6.84042 20.7435 2.44181 16.1739 0.746338V23.2537C20.7435 21.558 24 17.1596 24 11.9999Z" fill="#454545"/>
<path d="M0 12C0 17.1596 3.2565 21.5581 7.82602 23.2537L7.82606 0.74646C3.2565 2.44193 0 6.8404 0 12H0Z" fill="#444444"/>
</g>
<defs>
<clipPath id="clip0_3072_454">
<rect width="24" height="24" fill="white"/>
</clipPath>
</defs>
</svg>
