<svg xmlns="http://www.w3.org/2000/svg" width="24" height="24" fill="none" viewBox="0 0 24 24">
    <path fill="#f0f0f0" d="M12 24c6.627 0 12-5.373 12-12S18.627 0 12 0 0 5.373 0 12s5.373 12 12 12"/>
    <path fill="#444" d="M12 24c6.627 0 12-5.373 12-12 0-1.468-.264-2.874-.746-4.174H.746A12 12 0 0 0 0 12c0 6.627 5.373 12 12 12"/>
    <path fill="#454545" d="M12 24c5.16 0 9.558-3.256 11.254-7.826H.747C2.442 20.744 6.84 24 12 24"/>
    <path fill="#f0f0f0" d="M3.103 6.783v5.986c0 3.405 4.448 4.448 4.448 4.448S12 16.174 12 12.77V6.783z"/>
    <path fill="#454545" d="M4.147 6.783v5.986q0 .6.264 1.131h6.28a2.5 2.5 0 0 0 .265-1.131V6.783z"/>
    <path fill="#f0f0f0" d="M9.638 10.957H8.073V9.913h1.044V8.869H8.073V7.826H7.03V8.87H5.986v1.044H7.03v1.043H5.464V12H7.03v1.043h1.043V12h1.565z"/>
    <path fill="#454545" d="M5.834 15.357a7.5 7.5 0 0 0 1.717.777 7.5 7.5 0 0 0 1.717-.777q1.018-.64 1.423-1.457a1.82 1.82 0 0 0-1.468-.287 1.826 1.826 0 0 0-3.344 0 1.83 1.83 0 0 0-1.468.287q.406.815 1.423 1.457"/>
</svg>
