<svg width="24" height="24" viewBox="0 0 24 24" fill="none" xmlns="http://www.w3.org/2000/svg">
<g>
<mask id="mask0_3023_247" maskUnits="userSpaceOnUse" x="0" y="0" width="24" height="24">
<path d="M12 24C18.6274 24 24 18.6274 24 12C24 5.37258 18.6274 0 12 0C5.37258 0 0 5.37258 0 12C0 18.6274 5.37258 24 12 24Z" fill="#005293"/>
</mask>
<g>
<path d="M12 24C18.6274 24 24 18.6274 24 12C24 5.37258 18.6274 0 12 0C5.37258 0 0 5.37258 0 12C0 18.6274 5.37258 24 12 24Z" fill="#414141"/>
<path d="M7 -1.25H12V25.75H7V-1.25Z" fill="#C4C4C4"/>
<path d="M-1 9.75H27V14.75H-1V9.75Z" fill="#C4C4C4"/>
</g>
</g>
<defs>
<clipPath id="clip0_3023_247">
<rect width="24" height="24" fill="white"/>
</clipPath>
</defs>
</svg>
