<svg xmlns="http://www.w3.org/2000/svg" width="24" height="24" fill="none" viewBox="0 0 24 24">
    <path fill="#f0f0f0" d="M12 24c6.627 0 12-5.373 12-12S18.627 0 12 0 0 5.373 0 12s5.373 12 12 12"/>
    <path fill="#454545" d="M2.481 4.695A12 12 0 0 0 .414 8.87h6.243zM23.588 8.87a12 12 0 0 0-2.068-4.176L17.345 8.87zM.414 15.13a12 12 0 0 0 2.067 4.176l4.176-4.175zM19.307 2.48A12 12 0 0 0 15.13.415v6.242zM4.695 21.52a12 12 0 0 0 4.176 2.067v-6.243zM8.87.414A12 12 0 0 0 4.696 2.48l4.176 4.175zm6.26 23.173a12 12 0 0 0 4.176-2.067l-4.176-4.176zm2.215-8.457 4.175 4.176a12 12 0 0 0 2.068-4.175z"/>
    <path fill="#7b7b7b" d="M23.898 10.435H13.565V.102a12 12 0 0 0-3.13 0v10.333H.102a12 12 0 0 0 0 3.13h10.333v10.333a12 12 0 0 0 3.13 0V13.565h10.333a12 12 0 0 0 0-3.13"/>
    <path fill="#7b7b7b" d="m15.13 15.13 5.355 5.355q.369-.37.705-.77l-4.584-4.585zm-6.26 0-5.355 5.355q.37.369.77.706l4.585-4.585zm-.001-6.26L3.514 3.515a12 12 0 0 0-.705.77L7.393 8.87zm6.261 0 5.355-5.355a12 12 0 0 0-.77-.706L15.13 7.394z"/>
</svg>
