<svg viewBox="0 0 405 373" xmlns="http://www.w3.org/2000/svg" xmlns:xlink="http://www.w3.org/1999/xlink">
    <defs>
        <path id="a" d="M.481.585h350.91v354.312H.481z"/>
        <path id="c" d="M0 .59h26.128v26.38H0z"/>
        <path id="e" d="M.775.541H81.61V57.3H.775z"/>
    </defs>
    <g fill="none" fill-rule="evenodd">
        <g transform="translate(18.563)">
            <mask id="b" fill="#fff">
                <use xlink:href="#a"/>
            </mask>
            <path d="M351.392 179.613c0 96.487-78.365 169.665-174.738 174.706C15.312 362.76-6.117 277.405 1.917 179.613 10.726 72.404 74.505-20.832 176.654 4.904c93.579 23.579 174.738 78.22 174.738 174.709" fill="#C8BDFF" mask="url(#b)"/>
        </g>
        <g transform="translate(0 33.057)">
            <mask id="d" fill="#fff">
                <use xlink:href="#c"/>
            </mask>
            <path d="M26.128 13.92c0 7.185-5.834 12.633-13.011 13.007C1.105 27.557-.491 21.201.107 13.92.762 5.94 5.51-1.006 13.116.911c6.97 1.756 13.01 5.824 13.01 13.008" fill="#C8BDFF" mask="url(#d)"/>
        </g>
        <path d="M404.755 274.4c0 4.582-3.72 8.056-8.297 8.295-7.663.4-8.68-3.653-8.3-8.296.42-5.092 3.448-9.519 8.3-8.296 4.443 1.119 8.297 3.714 8.297 8.296" fill="#C8BDFF"/>
        <path d="M163.45 257.528c-.135.023-.118.17-.039.25-2.994-.215-6.217.417-9.16.757-.965.112-2.769.091-3.012 1.374-.326 1.7 3.08 1.967 6.396 1.845a36.13 36.13 0 0 0-1.482.376c-1.988.566-4.551 1.072-6.186 2.375-.11.086-.125.25-.1.372.333 1.603 2.801 1.328 3.986 1.284 3.292-.121 6.762-.118 9.987-.832.305-.068.263-.435.035-.556 1.227-1.377 1.622-3.548 1.704-5.322.081-1.768-.298-2.233-2.13-1.923" fill="#51069D"/>
        <path d="M169.105 256.557c-.28-.127-.572-.196-.864-.263.065-.18.019-.398-.212-.44-2.123-.401-4.342-.435-6.499-.436-1.772-.004-3.376.018-4.981.824-.287.143-.243.549 0 .702.967.617 1.967.604 3.101.703 1.83.16 3.655.324 5.491.39.139.005.176-.221.034-.248-.15-.027-.304-.046-.454-.071.191-.03.383-.054.552-.12a.342.342 0 0 0 .144-.111c1.236.088 2.504.155 3.606-.305.238-.1.384-.489.082-.625" fill="#51069D"/>
        <path d="M185.918 271.022c6.274-4.276 3.2-10.24-.508-14.983-6.92-6.483-12.287-10.182-17.142-8.005-2.431 1.092-5.062 7.761-7.25 14.893 0 0 2.908-3.17 7.954-2.701 5.046.465 6.637 4.664 6.637 4.664l-1.137 2.805c.052.09.102.175.16.27 2.457 4.176 6.627 6.233 11.286 3.057" fill="#A990FC"/>
        <path d="M193.53 278.255c3.947-1.748 3.292-11.125-5.118-19.337a210.422 210.422 0 0 0-3.002-2.879c3.709 4.743 6.782 10.707.507 14.983-4.657 3.176-8.829 1.119-11.286-3.058-.055-.094-.108-.18-.16-.27l-2.372 5.859s10.42 9.58 21.43 4.702" fill="#A990FC"/>
        <path d="M148.846 289.235c4.227-2.82 9.365-5.246 14.32-7.076 1.866-3.645 3.076-7.358 4.394-11.212 1.173-3.432 2.85-6.615 4.4-9.881a8.255 8.255 0 0 0-2.988-.841c-5.045-.467-7.953 2.703-7.953 2.703-2.787 9.097-4.85 18.95-4.85 18.95s-14.3 6.719-13.27 9.518c.231.63 1.667.596 3.743.168.466-.888 1.591-1.92 2.204-2.329" fill="#51069D"/>
        <path d="m172.098 273.553 3.51-8.663s-.941-2.462-3.648-3.824c-1.55 3.265-3.227 6.45-4.4 9.881-1.32 3.853-2.527 7.565-4.394 11.21-4.954 1.83-10.093 4.258-14.32 7.079-.614.41-1.74 1.44-2.204 2.329 7.149-1.475 21.956-7.634 21.956-7.634l3.5-10.378z" fill="#350072"/>
        <path d="M203.648 276.752c6.571-4.191 11.725-13.297 12.945-22.13-3.351-1.51-6.848-2.718-10.37-3.655-2.674 7.874-10.65 12.32-17.889 9.937-5.596-1.842-9.106-7.225-9.249-13.23a121.96 121.96 0 0 0-5.019.09c-2.877 8.3-3.864 17.061.996 23.99 2.114 3.018 4.79 5.504 7.805 7.502 6.795 2.033 13.943 1.858 20.781-2.504" fill="#672CBC"/>
        <path d="M188.334 260.903c7.24 2.383 15.216-2.063 17.89-9.936 3.52.937 7.017 2.145 10.369 3.655.346-2.514.352-4.998.001-7.35a75.366 75.366 0 0 0-2.021-.77c-3.816.569-7.661.82-11.516.875a12.332 12.332 0 0 1-.513 2.282c-1.918 5.808-7.78 9.1-13.095 7.35-4.34-1.428-6.97-5.776-6.746-10.485-2.606-.224-5.198-.603-7.665-1.317a62.455 62.455 0 0 0-.972 2.556c1.402-.054 3.085-.094 5.02-.09.142 6.005 3.654 11.388 9.248 13.23" fill="#51069D"/>
        <path d="M200.237 247.381c-.073.47-.17.943-.324 1.411-1.396 4.222-5.653 6.611-9.514 5.34-3.088-1.017-4.953-4.071-4.877-7.411-.937-.056-1.878-.116-2.82-.197-.223 4.708 2.406 9.056 6.747 10.485 5.315 1.75 11.176-1.542 13.095-7.35.25-.76.417-1.524.513-2.283-.94.014-1.88.014-2.82.005" fill="#FFF"/>
        <path d="M190.399 254.132c3.86 1.271 8.12-1.119 9.514-5.34.153-.469.251-.94.324-1.41-3.517-.033-7.034-.196-10.532-.42-1.37-.088-2.772-.157-4.183-.24-.076 3.339 1.789 6.393 4.877 7.41" fill="#F93DD1"/>
        <path d="M207.826 285.384c6.208-.452 11.837-2.098 15.757-7.188 3.195-4.149 5.06-9.284 6.73-14.326-3.905-3.952-8.641-6.959-13.72-9.247-1.22 8.832-6.374 17.938-12.946 22.13-6.836 4.36-13.986 4.536-20.781 2.503 7.22 4.795 16.441 6.747 24.96 6.128m-27.446-44.487c3.021-7.167 10.576-11.086 17.466-8.817 5.237 1.722 8.644 6.55 9.175 12.085a80.43 80.43 0 0 1 7.552 2.337c.14-.02.282-.032.422-.055.48-.074.957-.172 1.436-.256.07.354.111.72.164 1.082 5.776 2.305 11.31 5.398 16.08 9.555 2.502-7.295 5.04-14.637 6.937-22.102 1.372-5.397 3.7-11.747-2.555-14.507-8.064-3.56-17.85-.878-25.922 1.254a162.397 162.397 0 0 0-13.456 4.186c-5.22 1.876-10.332 4.597-15.99 4.626-1.1.007-1.199 1.486-.321 1.82-1.456 2.656-3.046 5.644-4.507 8.81 1.095-.02 2.254-.03 3.52-.018" fill="#51069D"/>
        <path d="M183.296 243.323c1.917-5.808 7.78-9.097 13.095-7.348 4.62 1.52 7.302 6.349 6.666 11.401 3.854-.054 7.7-.305 11.515-.873a80.245 80.245 0 0 0-7.55-2.337c-.533-5.535-3.938-10.363-9.176-12.087-6.89-2.269-14.445 1.651-17.466 8.819a132.263 132.263 0 0 0-3.518.017 81.856 81.856 0 0 0-1.825 4.29c2.467.717 5.06 1.096 7.665 1.318a12.13 12.13 0 0 1 .594-3.2" fill="#350072"/>
        <path d="M196.39 235.975c-5.313-1.75-11.177 1.54-13.094 7.347a12.082 12.082 0 0 0-.593 3.202c.94.081 1.882.142 2.82.198.017-.836.127-1.687.405-2.532 1.392-4.22 5.652-6.611 9.514-5.34 3.433 1.13 5.38 4.772 4.794 8.532.94.007 1.882.007 2.82-.005.636-5.052-2.045-9.882-6.665-11.402" fill="#A990FC"/>
        <path d="M200.237 247.381c.585-3.758-1.364-7.401-4.796-8.53-3.86-1.271-8.12 1.12-9.512 5.339-.28.844-.388 1.695-.407 2.53 1.41.085 2.813.154 4.183.242 3.498.224 7.015.386 10.532.42" fill="#F93DD1"/>
        <path fill="#350072" d="M84.233 270.477v-4.2l-9.098 5.818h6.418zm17.569 22.027v-4.2l-15.574.684zm-90.217 2.052v-5.585h9.426z"/>
        <g transform="translate(99.438 315.015)">
            <mask id="f" fill="#fff">
                <use xlink:href="#e"/>
            </mask>
            <path d="M.775 7.136s29.657 33.973 34.891 39.821c5.231 5.85 19.312 13.19 36.51 9.21 17.195-3.984 6.496-15.557 2-20.284C69.684 31.154 42.893.541 42.893.541L34.17 6.514 21.71 4.399l-2.99 5.227L.775 7.136z" fill="#350072" mask="url(#f)"/>
        </g>
        <path fill="#350072" d="M100.213 322.15v-5.473l13.52 7.9-7.6 1.619zm80.809 41.753v-6.54l-11.404 1.747z"/>
        <path d="M198.057 55.22c0-7.275-5.908-13.175-13.193-13.175-7.288 0-13.196 5.9-13.196 13.175 0 7.277 5.907 13.177 13.196 13.177 7.285 0 13.193-5.9 13.193-13.177" fill="#672CBC"/>
        <path d="M233.436 59.047c-1.105-6.504-23.748-8.091-50.576-3.545-26.826 4.55-47.678 13.51-46.571 20.013 1.105 6.507 23.75 8.091 50.574 3.544 26.828-4.547 47.679-13.509 46.573-20.012z" stroke="#FFF"/>
        <path d="M169.903 81.643c0-5.347-4.338-9.68-9.693-9.68-5.354 0-9.695 4.333-9.695 9.68 0 5.348 4.34 9.682 9.695 9.682s9.693-4.334 9.693-9.682" fill="#F93DD1"/>
        <path d="M144.698 55.22a4.112 4.112 0 0 0-4.114-4.109 4.112 4.112 0 0 0-4.114 4.11 4.111 4.111 0 0 0 4.114 4.108 4.111 4.111 0 0 0 4.114-4.109" fill="#FFF"/>
        <path d="M255.112 61.854a4.112 4.112 0 0 0-4.114-4.108 4.11 4.11 0 0 0 0 8.217 4.111 4.111 0 0 0 4.114-4.109" fill="#350072"/>
        <path d="M100.213 316.677s29.656 33.972 34.89 39.822c5.232 5.847 19.312 13.189 36.51 9.208 17.195-3.984 6.497-15.557 2.001-20.284-4.494-4.729-31.284-35.342-31.284-35.342l-8.723 5.973-12.46-2.115-2.99 5.227-17.944-2.489z" fill="#FFF"/>
        <path d="M101.802 292.504s-46.54 13.16-56.635 15.68c-10.09 2.52-28.221.932-32.896-10.827-4.67-11.761 14.675-16.146 20.188-17.08 5.515-.934 51.774-9.8 51.774-9.8l-1.963 10.454 8.691.56 1.59 7.373 9.25 3.64z" fill="#350072"/>
        <path d="M101.802 288.304s-46.54 13.16-56.635 15.68c-10.09 2.52-28.221.932-32.896-10.827-4.67-11.761 14.675-16.146 20.188-17.08 5.515-.934 51.774-9.8 51.774-9.8l-1.963 10.454 8.691.56 1.59 7.373 9.25 3.64zm149.432 2.365 3.863 3.98 15.825-.746-.997-5.848zm-30.277 26.505 5.48 2.862 10.593-2.862z" fill="#FFF"/>
        <path fill="#350072" d="M220.957 317.174v2.862l5.233 2.861 10.84-2.861v-2.862l-10.592 2.862zm30.277-26.505v1.74l3.693 4.34 15.747-.56.248-2.286-15.825.746z"/>
        <path fill="#FFF" d="m115.882 274.864 5.795 3.174 7.725-1.588-5.14-4.852z"/>
        <path fill="#350072" d="M115.882 274.864v3.453l5.577 3.329 7.943-2.022v-3.174l-7.725 1.588zm81.087-184.297c-26.745 0-50.237 13.633-63.737 34.209 14.95-14.315 36.516-18.811 57.4-15.843 13.438 1.91 22.053 9.533 29.719 20.284 7.713 10.812 13.59 23.637 11.897 37.202-1.53 12.262-6.67 25.34-13.453 35.657-5.037 7.663-11.433 13.262-19.047 17.379-3.133 1.694-6.47 3.145-10.01 4.372-12.925 4.484-25.652 4.484-37.734 1.387 12.583 9.13 28.129 14.537 44.965 14.537 5.236 0 10.348-.523 15.285-1.517 34.548-6.957 60.538-37.03 60.538-73.075 0-41.197-33.948-74.592-75.823-74.592"/>
        <path d="M220.352 129.216c-7.667-10.75-16.281-18.371-29.719-20.282-20.884-2.97-42.452 1.527-57.4 15.841a73.912 73.912 0 0 0-7.96 16.157 73.915 73.915 0 0 0-2.07 6.984c1.13-2.584 2.41-5.071 3.865-7.419 3.333-5.376 7.684-9.918 13.973-12.511 19.383-7.997 45.508-2.87 59.035 13.448 6.334 7.64 10.156 17.519 9.427 27.51-.798 10.979-6.249 22.968-12.56 31.876-1.673 2.363-3.598 4.475-5.694 6.369-13.456 12.168-34.6 14.625-50.443 5.556a46.32 46.32 0 0 1-4.605-3.006 75.717 75.717 0 0 0 15.804 15.474c12.08 3.1 24.808 3.1 37.732-1.385 3.542-1.229 6.878-2.678 10.012-4.374 7.614-4.115 14.01-9.715 19.045-17.378 6.784-10.318 11.924-23.394 13.455-35.657 1.692-13.565-4.185-26.39-11.897-37.203" fill="#51069D"/>
        <path d="M200.077 141.434c-13.529-16.318-39.653-21.445-59.036-13.448-6.289 2.593-10.64 7.135-13.974 12.511a59.059 59.059 0 0 0-3.866 7.419 73.355 73.355 0 0 0-2.053 17.242c0 16.721 5.605 32.143 15.052 44.58a46.543 46.543 0 0 0 4.607 3.007c15.842 9.069 36.987 6.612 50.443-5.556 2.096-1.894 4.02-4.006 5.693-6.369 6.312-8.908 11.76-20.897 12.56-31.875.73-9.992-3.093-19.871-9.426-27.51" fill="#672CBC"/>
        <path d="M146.372 163.384c-.176-4.036-.091-8.1.63-12.085.516-2.846 2.14-5.988 1.758-8.924-.328-2.517-2.128-4.091-4.712-3.235-3.997 1.326-5.894 7.828-6.974 11.321-2.003 6.477-2.538 13.45-2.302 20.197.12 3.426.063 7.897 1.62 11.313.493 1.668 1.321 3.104 2.746 3.955 3.049 1.822 6.434-.306 7.701-3.252 1.15-2.67.628-5.73.36-8.51-.348-3.585-.668-7.18-.827-10.78m3.754 33.752c-.947-2.17-2.472-4.652-5.169-4.65-2.364.004-4.016 2.11-4.467 4.232-.892 4.211 2.613 13.007 7.957 11.925 1.389-.015 2.727-.588 3.584-1.884 1.79-2.707-.805-7.099-1.905-9.623" fill="#FFF"/>
        <path d="M204.18 238.404c5.903-.929 12.235-2.358 16.84-6.403 3.443-3.026 5.705-7.143 7.152-11.441 3.2-9.518 2.39-19.64 3.454-29.487.764-7.099 2.462-16.772 9.65-20.338 5.831-2.894 10.482 1.528 14.04 5.676 2.341 2.73 5.421 7.019 9.611 5.863 4.02-1.107 5.388-5.84 5.962-9.797-.958 4.51-2.695 7.847-5.572 8.184-8.475.996-10.717-13.853-21.435-13.688-17.941 1.992-13.706 33.6-18.939 51.767-5.226 18.147-41.024 19.534-55.458 15.944a76.154 76.154 0 0 1-17.48-9.47 75.717 75.717 0 0 1-15.804-15.475c-9.448-12.437-15.054-27.86-15.054-44.58 0-5.938.719-11.708 2.055-17.243a73.768 73.768 0 0 1 2.071-6.984c-6.094 2.2-9.084 11.243-9.102 22.91 2.816 21.105 9.161 42.312 24.89 57.463 16.074 15.48 41.498 20.5 63.12 17.099" fill="#FFF"/>
        <path d="M140.46 224.714c27.912 25.138 72.77 15.038 72.77 15.038 64.047-12.839 65.543-70.29 65.292-78.753-.248-8.46-8.193-14.758-8.193-14.758 1.353 4.275 2.425 17.474.56 26.236-.573 3.957-1.942 8.69-5.962 9.797-4.191 1.156-7.27-3.133-9.612-5.863-3.557-4.148-8.208-8.57-14.038-5.676-7.19 3.566-8.886 13.24-9.652 20.338-1.062 9.847-.252 19.968-3.453 29.487-1.446 4.297-3.71 8.414-7.153 11.441-4.604 4.045-10.935 5.474-16.838 6.403-21.624 3.4-47.046-1.62-63.121-17.1-15.728-15.15-22.074-36.357-24.89-57.462-.035 19.54 8.265 46.44 24.29 60.872" fill="#A990FC"/>
        <path d="M254.199 193.021c1.556-8.433-1.556-16.072-6.95-17.065-5.392-.992-11.027 5.038-12.583 13.47-1.556 8.434 1.556 16.073 6.95 17.066 5.393.992 11.027-5.037 12.583-13.47" fill="#F93DD1"/>
        <path d="M249.847 192.118c.773-4.192-.773-7.988-3.455-8.482-2.68-.494-5.479 2.504-6.252 6.694-.774 4.193.773 7.99 3.453 8.483 2.681.492 5.48-2.506 6.254-6.695" fill="#FFF"/>
        <path d="M214.994 246.447c-.14.023-.282.035-.422.055.675.248 1.352.502 2.022.77-.052-.362-.091-.728-.162-1.082-.48.085-.957.182-1.438.257" fill="#672CBC"/>
        <path d="M216.593 254.623c5.08 2.289 9.814 5.295 13.72 9.247.529-1.59 1.039-3.173 1.563-4.714.265-.775.532-1.552.799-2.327-4.771-4.158-10.304-7.25-16.08-9.556.35 2.35.344 4.835-.002 7.35" fill="#350072"/>
        <path d="M216.687 277.914c6.274-4.274 3.2-10.24-.508-14.982-6.92-6.483-12.287-10.18-17.142-8.004-2.432 1.093-5.062 7.761-7.248 14.893 0 0 2.906-3.171 7.952-2.703 5.047.465 6.637 4.665 6.637 4.665l-1.136 2.804c.052.091.101.177.159.27 2.458 4.178 6.626 6.234 11.286 3.057" fill="#A990FC"/>
        <path d="M218.076 282.822c3.947-1.75 9.516-8.8 1.103-17.012a210.553 210.553 0 0 0-3-2.878c3.708 4.742 6.782 10.708.508 14.982-4.66 3.177-8.829 1.12-11.288-3.059-.055-.09-.104-.177-.157-.268l-2.374 5.858s4.197 7.254 15.208 2.377" fill="#672CBC"/>
        <path d="M179.615 296.13c4.227-2.823 9.365-5.247 14.32-7.077 1.866-3.647 3.076-7.358 4.394-11.212 1.173-3.433 2.852-6.617 4.4-9.883a8.278 8.278 0 0 0-2.988-.84c-5.045-.467-7.951 2.704-7.951 2.704-2.79 9.096-4.852 18.948-4.852 18.948s-14.298 6.72-13.269 9.52c.23.63 1.666.595 3.742.167.465-.888 1.59-1.92 2.204-2.328" fill="#51069D"/>
        <path d="m202.869 280.445 3.508-8.662s-.942-2.462-3.648-3.824c-1.548 3.264-3.227 6.45-4.4 9.883-1.32 3.852-2.528 7.563-4.394 11.21-4.955 1.83-10.093 4.255-14.32 7.078-.614.408-1.74 1.44-2.204 2.328 7.148-1.475 21.958-7.635 21.958-7.635l3.5-10.378z" fill="#350072"/>
        <path d="M240.488 219.617a33.578 33.578 0 0 1-13.125 2.06c.643 4.447 1.5 8.864 2.924 13.317 1.632 5.11 4.874 12.729 11.242 12.476 3.586-2.348 1.445-16.33-1.041-27.853" fill="#A990FC"/>
        <path d="m244.301 189.539.264.04c-.083-.027-.174-.03-.264-.04" fill="#FFF"/>
        <path d="M240.488 219.617c-1.853-8.588-3.895-15.81-3.895-15.81s.125-1.243 4.175-6.781c4-5.469 3.434-7.452 3.42-7.5-2.183-.087-6.19 4.175-8.285 6.657-5.398-15.816-6.666-16.721-6.775-16.772-2.45 1.217-.812 10.569-.01 14.77-7.353-15.287-8.63-14.977-8.63-14.977-.77 2.543.174 6.2.607 8.787.427 2.548 1.12 4.972 1.951 7.361-7.94-9.203-9.663-7.533-9.663-7.533-1.032 3.113 3.654 7.74 4.857 10.097 2.192 4.28 4.543 8.116 7.685 11.686.459 4.083.86 8.09 1.438 12.075 3.697.163 8.255-.26 13.125-2.06" fill="#51069D"/>
        <path d="M223.046 195.352c-3.265-4.569-8.518-10.983-9.664-7.533 0 0 1.725-1.67 9.664 7.533m6.071-1.17c-.957-3.673-2.572-7.13-4.47-10.414-.808-1.394-1.973-4.715-3.866-4.786a.308.308 0 0 0-.292.22s1.277-.308 8.628 14.98m6.786 2.001a95.55 95.55 0 0 0-3.317-11.73c-.302-.858-1.49-5.145-2.835-5.185a1.292 1.292 0 0 0-.625.143c.112.05 1.38.955 6.777 16.772" fill="#350072"/>
        <path d="m244.188 189.52.001.006c.038.001.075.008.112.013l-.113-.018z" fill="red"/>
        <path d="M247.278 231.358c-.696-4.516-1.955-8.873-3.524-13.125a34.12 34.12 0 0 1-3.265 1.384c2.484 11.522 4.627 25.505 1.04 27.854a8.38 8.38 0 0 0 1.228-.136c7.192-1.355 5.31-10.845 4.52-15.977" fill="#672CBC"/>
        <path d="M240.768 197.025c-4.05 5.538-4.175 6.782-4.175 6.782s2.042 7.223 3.895 15.81a34.145 34.145 0 0 0 3.267-1.384c-1.725-4.673-3.822-9.222-6.006-13.703 1.566-1.962 2.906-4.19 4.05-6.26.613-1.106 4.265-6.766 3.48-8.095a1.275 1.275 0 0 0-.714-.595l-.263-.04c-.039-.006-.074-.012-.113-.014.013.047.579 2.03-3.42 7.5" fill="#350072"/>
        <path d="M226.464 209.912a.245.245 0 0 0-.024-.266c-.003-.04-.008-.076-.01-.115-.015-.226-.2-.342-.378-.345-2.874-3.06-5.049-6.544-7.145-10.173-1.804-3.123-5.233-7.779-5.334-11.323-.002-.034-.052-.034-.052 0-.009 3.704 2.855 7.314 4.478 10.55 2.063 4.117 4.518 8.087 7.716 11.42.202 3.95.592 8.11 1.718 11.909.018.062.121.052.118-.017-.237-3.886-.788-7.752-1.087-11.64m-4.964-22.004c-.756-2.828-1.972-5.743-1.112-8.684.022-.074-.086-.1-.116-.032-.92 2.214-.437 4.265.142 6.525.847 3.293 1.86 6.542 2.681 9.842.07.28.513.159.432-.118-.729-2.496-1.355-5.022-2.027-7.533m7.065-.904c-.245-2.212-1.09-5.794.522-7.695.07-.082-.04-.197-.122-.121-1.476 1.373-1.284 3.22-1.15 5.098.232 3.295.613 6.557 1.272 9.795.035.178.344.141.322-.044-.277-2.346-.586-4.685-.844-7.033m15.166 2.703c-1.46-.101-3.198 1.17-4.284 2.029-1.53 1.21-2.548 2.63-3.37 4.37-.061.13.113.236.192.113.959-1.49 2.248-2.867 3.647-3.949 1.201-.928 2.811-1.346 3.913-2.327.095-.086.012-.228-.098-.236" fill="#A990FC"/>
    </g>
</svg>
