<svg xmlns="http://www.w3.org/2000/svg" width="550" height="550" fill="none" viewBox="0 0 550 550">
    <path fill="#fff" fill-rule="evenodd" d="m146.963 412.869.008.004h-.015zm-12.544-7.318c4.2 2.448 8.396 4.897 12.544 7.318 1.328-.793 2.65-1.576 3.966-2.356 3.52-2.086 6.999-4.148 10.433-6.287 1.54-.961 2.744-.921 4.292-.016a16625.522 16625.522 0 0 0 59.294 34.614c1.47.85 2.089 1.823 2.007 3.536a378.557 378.557 0 0 0-.271 7.834c-.066 2.345-.131 4.69-.235 7.034-.062 1.356.2 2.195 1.49 2.944a12846.484 12846.484 0 0 1 35.145 20.452c5.279 3.079 10.558 6.158 15.838 9.234 4.148 2.419 8.452 4.481 13.117 5.739 8.024 2.168 15.672 1.513 22.893-2.818 3.047-1.829 6.092-3.663 9.136-5.496 9.107-5.484 18.213-10.967 27.394-16.323 6.982-4.073 11.137-10.039 13.183-17.691 1.223-4.579 1.513-9.259 1.627-13.967a38.3 38.3 0 0 1 .127-2.094c.032-.409.066-.854.1-1.352.451.241.854.452 1.224.646.707.37 1.295.678 1.869 1.012 29.502 17.199 58.999 34.401 88.497 51.603l23.811 13.885c3.924 2.285 5.68 1.395 5.833-3.093.259-7.565.472-15.13.684-22.695.084-2.96.167-5.92.253-8.881.137-4.725.272-9.451.407-14.178.236-8.235.471-16.47.718-24.704l.255-8.514c.674-22.56 1.348-45.123 2.097-67.679.086-2.607-.796-4.136-3.05-5.429-8.648-4.961-17.255-9.994-25.863-15.028a9592.964 9592.964 0 0 0-9.785-5.717l-17.106-9.974c-20.685-12.061-41.369-24.121-62.047-36.192-1.836-1.073-2.669-1.449-3.029-2.09-.353-.63-.25-1.516-.193-3.574.115-4.194.242-8.387.37-12.581.279-9.201.558-18.403.712-27.607.078-4.68-.137-9.42-.823-14.041-1.792-12.039-6.316-23.132-12.654-33.473-7.895-12.885-17.926-23.654-31.121-31.341-29.524-17.198-59.039-34.411-88.554-51.623a205539.092 205539.092 0 0 0-95.482-55.66c-2.995-1.744-6.123-3.35-9.349-4.605-9.604-3.736-18.836-3.599-27.958 2.093-7.674 4.79-15.49 9.355-23.305 13.921a1614.416 1614.416 0 0 0-13.484 7.937c-1.694 1.011-3.222 2.371-4.638 3.767-4.848 4.79-7.298 10.831-8.11 17.428-.627 5.097-.795 10.258-.962 15.405l-.041 1.255c-.451 13.505-.841 27.012-1.231 40.519l-.255 8.799c-.374 12.891-.745 25.782-1.116 38.674-.556 19.294-1.111 38.587-1.675 57.879-.23 7.882-.472 15.763-.714 23.643-.22 7.167-.44 14.333-.65 21.5l-.038 1.257c-.19 6.19-.378 12.379.602 18.543 1.6 10.074 4.943 19.561 9.726 28.53 8.408 15.758 19.772 28.71 35.515 37.624 8.954 5.07 17.828 10.282 26.702 15.494a4547.53 4547.53 0 0 0 11.878 6.96m11.486 4.003c-.037.254-.08.546-.125.901l.004.004c-.36-.184-.684-.345-.983-.494-.614-.306-1.122-.558-1.612-.843l-10.312-6.01a23169.363 23169.363 0 0 1-38.841-22.665c-10.64-6.229-19.044-14.841-26.014-24.888-7.06-10.18-12.195-21.258-14.997-33.371-1.38-5.97-1.921-12.015-1.74-18.138.266-9.04.522-18.082.778-27.124.192-6.789.385-13.578.581-20.367.345-11.831.692-23.663 1.04-35.496l.513-17.475.636-21.713c.83-28.337 1.66-56.676 2.5-85.012.153-5.16.89-10.204 2.752-15.073 2.653-6.946 7.494-11.681 14.413-14.155 3.65-1.305 7.538-1.172 11.368-.639 6.327.882 11.984 3.524 17.429 6.7l74.435 43.421 74.384 43.391 9.968 5.81c8.705 5.073 17.412 10.146 26.107 15.236 10.475 6.127 18.875 14.477 25.817 24.347 8.119 11.537 13.826 24.116 16.304 38.079.839 4.739 1.097 9.506.956 14.3-.436 14.869-.873 29.737-1.311 44.606-.735 24.967-1.47 49.934-2.197 74.903-.202 6.938-.391 13.877-.58 20.816-.244 8.978-.489 17.957-.761 26.934-.439 14.52-.89 29.043-1.466 43.563-.227 5.641-1.709 11.042-4.798 15.813-5.578 8.608-13.724 11.591-23.661 10.227-6.057-.831-11.509-3.312-16.731-6.354-5.577-3.248-11.15-6.502-16.723-9.756a9142.49 9142.49 0 0 0-32.9-19.15c-1.831-1.062-2.56-2.289-2.45-4.379.121-2.288.18-4.58.239-6.872.061-2.397.123-4.793.255-7.185.102-1.889-.517-2.959-2.172-3.916-12.47-7.196-24.905-14.451-37.34-21.707a29377.6 29377.6 0 0 1-5.756-3.357c-9.264-5.399-18.522-10.81-27.779-16.219l-5.357-3.13c-.16-.094-.316-.196-.471-.298-.284-.187-.567-.373-.874-.502-1.062-.443-1.693-.114-1.869 1.007-.073.467-.074.946-.074 1.425-.001.221-.001.442-.009.661l-.126 3.729c-.105 3.104-.21 6.208-.324 9.313-.013.327-.061.654-.126 1.102M78.718 64.844l-.084-.29v-.016c.325-.2.649-.403.972-.605a98.71 98.71 0 0 1 1.846-1.135c2.657-1.58 5.326-3.14 7.996-4.7 5.898-3.445 11.795-6.89 17.551-10.56 8.671-5.528 17.589-5.536 26.703-1.906 4.34 1.729 8.471 4.061 12.521 6.421 35.853 20.871 71.686 41.78 107.52 62.687l28.241 16.477c4.434 2.587 8.863 5.183 13.292 7.779 10.21 5.986 20.421 11.971 30.698 17.839 15.316 8.741 26.366 21.403 34.594 36.742 4.849 9.043 8.189 18.62 9.694 28.804.729 4.931.753 9.878.596 14.845-.225 6.992-.431 13.983-.638 20.974-.144 4.838-.287 9.675-.436 14.514-.031 1.012-.103 2.02-.184 3.161-.042.587-.087 1.208-.129 1.884-.839-.491-1.653-.963-2.447-1.423-2.262-1.311-4.363-2.528-6.409-3.834-.513-.329-.835-1.301-.862-1.995-.051-1.305-.014-2.614.024-3.924.02-.692.04-1.385.046-2.078.012-1.27-.01-1.293-1.084-2.388l-.06-.062a11107.7 11107.7 0 0 0-4.194 2.466c-3.901 2.295-7.812 4.596-11.733 6.876-.968.56-1.215 1.391-1.243 2.399-.114 4.174-.227 8.345-.357 12.52-.156 4.998-.316 9.995-.476 14.992-.297 9.259-.593 18.516-.868 27.775-.133 4.524-.241 9.047-.349 13.57-.112 4.697-.225 9.393-.365 14.09-.195 6.571-.409 13.142-.624 19.713a6168.18 6168.18 0 0 0-.677 21.506c-.263 8.986-.472 17.975-.681 26.962-.049 2.147-.099 4.293-.15 6.44-.008.264.055.529.14.895.049.21.106.453.162.747.263-.094.518-.174.762-.25.504-.158.965-.302 1.374-.537 2.709-1.572 5.418-3.148 8.064-4.826 1.395-.886 2.606-1.031 4.088-.125 3.409 2.084 6.868 4.081 10.328 6.078l1.605.927c.972.564 1.642 1.215 1.579 2.454-.043.879-.08 1.76-.117 2.64-.209 5.027-.418 10.052-1.956 14.929-2.101 6.66-5.923 11.874-12.074 15.425-6.214 3.588-12.374 7.271-18.533 10.954-2.804 1.676-5.608 3.352-8.417 5.02-.529.315-1.066.609-1.765.992-.364.2-.772.423-1.245.686.176-.4.312-.725.427-.999.199-.475.334-.798.506-1.098 3.034-5.328 4.539-11.094 4.794-17.182.345-8.259.643-16.519.882-24.782.314-10.871.61-21.743.906-32.614.279-10.265.559-20.531.854-30.796.465-16.167.947-32.333 1.429-48.499l.723-24.303c.146-4.936.28-9.872.414-14.809.299-10.982.597-21.964 1.025-32.941.533-13.637-2.615-26.42-8.374-38.643-5.354-11.368-12.493-21.482-21.646-30.145-4.32-4.088-9.063-7.593-14.194-10.588l-26.319-15.352c-17.535-10.228-35.071-20.456-52.603-30.688a540625.12 540625.12 0 0 1-61.332-35.794l-30.654-17.89c-1.646-.96-3.293-1.916-4.94-2.872-2.869-1.666-5.737-3.33-8.596-5.012-7.852-4.613-16.052-7.996-25.457-7.232l-.084-.29ZM490.003 355.43c-.289.137-.523.243-.72.332a8.292 8.292 0 0 0-.797.392c-.837.497-1.668 1.005-2.499 1.512-1.617.988-3.235 1.976-4.895 2.89a87982.721 87982.721 0 0 1-72.488 39.89l-1.327.73c-4.359 2.4-8.719 4.799-13.114 7.137-2.352 1.251-3.622.816-4.967-1.442a12.333 12.333 0 0 1-.493-.939l-.107-.218-6.705-13.463c-4.436-8.907-8.871-17.814-13.31-26.721-8.264-16.585-16.527-33.171-24.802-49.752-.223-.446-.497-.866-.771-1.286a27.64 27.64 0 0 1-.358-.557c-.482 1.086-.572 2.027-.604 2.968-.2 6.26-.396 12.52-.572 18.784-.23 8.195-.457 16.391-.684 24.586-.283 10.242-.567 20.485-.857 30.726-.161 5.715-.331 11.431-.501 17.146-.149 4.982-.297 9.963-.439 14.943-.018.641.017 1.283.059 2.047.022.408.047.851.066 1.348.711-.486 1.446-.857 2.149-1.212 1.665-.839 3.157-1.591 3.747-3.575.157.08.304.152.444.221.293.144.553.272.802.418 3.407 1.988 6.812 3.979 10.218 5.969 3.955 2.312 7.91 4.624 11.867 6.932 31.211 18.209 62.422 36.413 93.635 54.618l19.994 11.661c.157.091.312.185.468.279.442.268.886.536 1.355.737 1.317.552 1.898.172 2.078-1.302.028-.225.028-.453.027-.681 0-.12 0-.241.004-.362.073-2.513.144-5.026.215-7.54.106-3.749.212-7.497.322-11.244.672-23.149 1.347-46.297 2.022-69.45l.044-1.514c.498-17.044.996-34.092 1.49-51.136.023-.779.017-1.558.011-2.438-.004-.448-.007-.921-.007-1.434Zm-4.879-3.899c1.116.629 2.264 1.276 2.264 3.341l.004.004-15.938 8.765-79.777 43.873c-.219-.357-.431-.685-.632-.996-.408-.634-.773-1.2-1.073-1.799a86761.55 86761.55 0 0 1-20.978-42.085l-11.397-22.87-2.427-4.872a4943.718 4943.718 0 0 0-11.579-23.148c-.808-1.599-1.239-3.179-1.176-4.99.356-10.435.678-20.87.921-31.309.039-1.697.627-2.689 2.109-3.501 2.984-1.636 3.871-2.49 4.767-2.499.879-.009 1.766.797 4.649 2.476 37.094 21.599 74.165 43.231 111.238 64.863 7.045 4.112 14.091 8.223 21.136 12.333.123.072.247.142.372.212 1.059.597 2.139 1.205 2.325 2.752-.124.008-.241.027-.347.044-.202.033-.366.059-.476-.005-3.245-1.899-6.483-3.808-9.721-5.717-5.45-3.213-10.9-6.426-16.378-9.59a120130.608 120130.608 0 0 0-111.701-64.434 8.997 8.997 0 0 1-.566-.365c-.722-.493-1.477-1.008-2.527-.595-.204 1.05.457 1.387 1.085 1.707.12.061.239.122.35.186a4482.662 4482.662 0 0 0 15.805 9.169l119.388 68.89zm-336.569 58.833c-.584-2.121-.318-12.976.368-15.492 4.021 2.218 7.896 4.523 12.147 7.052l.817.486-1.726 1.03zm191.429 17.577c3.544-2.509 5.441-3.336 7.68-2.85h-.004a4701.259 4701.259 0 0 0-5.538 3.278l-2.906 1.72c-.517-1.234.085-1.662.724-2.117zm17.715-162.661c-1.847 1.823-1.737 4.073 0 5.018zm-4.313 2.827-.63-.42c.741-.325 1.164-.509 1.838-.807-.021.392-.039.704-.058 1.032l-.052.928zm-123.486.836c.525.003 1.088.006 1.708.006l.012-.003c0 .498.003.938.005 1.342.005.715.01 1.314-.005 1.915-.066 2.584-.129 5.168-.193 7.753-.175 7.072-.35 14.145-.548 21.216-.105 3.729-.231 7.458-.357 11.186-.106 3.142-.213 6.283-.306 9.425-.105 3.523-.203 7.046-.3 10.57-.16 5.784-.32 11.569-.515 17.352-.047 1.321.423 2.062 1.533 2.693a518.577 518.577 0 0 1 11.716 6.86c1.129.682 2.051.604 3.132-.058 3.191-1.96 6.39-3.905 9.644-5.751 1.325-.749 1.724-1.752 1.748-3.191.043-2.498.135-4.997.226-7.496.058-1.59.116-3.18.162-4.77.231-8.051.459-16.104.688-24.156.341-12.044.683-24.087 1.033-36.129.517-17.919 1.043-35.841 1.615-53.759.043-1.368-.247-2.199-1.521-2.936-11.038-6.38-22.047-12.807-33.057-19.234-2.594-1.514-5.187-3.028-7.782-4.541l-.402-.235c-26.777-15.621-53.553-31.243-80.33-46.86-3.184-1.858-6.37-3.714-9.555-5.571-8.319-4.848-16.637-9.695-24.937-14.574-1.497-.882-2.677-1.082-4.25-.031-2.888 1.928-5.91 3.677-8.972 5.331-1.439.776-1.925 1.772-1.956 3.324-.094 4.533-.233 9.063-.37 13.595-.064 2.08-.128 4.16-.187 6.24l-.723 25.32c-.482 16.876-.964 33.751-1.453 50.626l-.174 6.016c-.698 24.094-1.395 48.188-2.174 72.283-.066 2.042.577 3.061 2.313 4.069 26.517 15.408 53.005 30.864 79.492 46.32l16.827 9.818 27.574 16.09a292821.12 292821.12 0 0 1 45.036 26.281c.615.358 1.217.737 1.907 1.171.383.242.793.5 1.248.781l-4.523 4.833-10.063 10.749c.319.228.596.433.849.619.492.364.889.657 1.311.906.92.542 1.856 1.062 2.791 1.581 1.885 1.048 3.769 2.094 5.527 3.323 2.607 1.819 4.61 1.725 7.448.063 5.845-3.422 11.176-7.284 15.578-12.466 1.35-1.59 2.787-3.104 4.225-4.617 2.513-2.646 5.027-5.293 7.077-8.358.991-1.482 1.16-2.713.541-4.335a174.585 174.585 0 0 1-3.321-9.624 5218.426 5218.426 0 0 1-8.149-26.198l-.996-3.222c-.318-1.023-.69-1.877-1.729-2.454a364.567 364.567 0 0 1-10.619-6.15c-1.113-.667-2.007-.663-3.113.019-1.89 1.167-3.806 2.293-5.721 3.42-1.31.77-2.62 1.54-3.922 2.323-1.991 1.196-1.968 1.753.13 2.999.678.404 1.355.813 2.031 1.222 2.081 1.259 4.162 2.518 6.322 3.627 1.948 1 2.928 2.427 3.56 4.485 3.386 11.062 6.812 22.116 10.403 33.116l.104.317c2.024 6.189 2.07 6.33-2.503 11.376a5104.88 5104.88 0 0 1-2.589 2.736c-3.086 3.257-6.173 6.516-9.265 9.769-.41.429-.844.838-1.257 1.229-.183.173-.363.342-.534.507-2.682-.917-9.883-5.205-11.333-6.777 2.254-2.604 4.635-5.101 7.045-7.629 2.401-2.519 4.831-5.067 7.192-7.781-.386-.249-.731-.477-1.051-.689a34.167 34.167 0 0 0-1.606-1.024c-7.382-4.31-14.766-8.616-22.15-12.923-4.569-2.664-9.138-5.328-13.707-7.994l-110.72-64.598a5626.633 5626.633 0 0 1-5.868-3.427c-6.084-3.556-12.168-7.112-18.28-10.618-1.308-.753-1.936-1.627-1.775-3.108.04-.389.037-.782.034-1.174-.002-.218-.004-.436.001-.653L85.159 299c.43-15.085.86-30.173 1.299-45.26.438-14.989.883-29.975 1.328-44.963l.671-22.63.32-10.828c.319-10.832.638-21.664.97-32.496.023-.841.106-1.681.2-2.64.047-.484.097-.998.145-1.558.395.203.752.381 1.081.546.67.334 1.225.611 1.76.924l31.741 18.517c39.86 23.255 79.72 46.51 119.607 69.718 2.172 1.267 2.983 2.599 2.881 5.132-.568 14.084-.988 28.177-1.395 42.269-.369 12.757-.718 25.516-1.067 38.275-.215 7.858-.431 15.717-.65 23.575-.161 5.743-.337 11.485-.525 17.224-.019.535-.088 1.067-.172 1.717-.044.337-.091.705-.138 1.121a190.595 190.595 0 0 1-2.972-1.776c-2.138-1.294-4.138-2.506-6.24-3.508-2.454-1.176-3.144-2.81-2.921-5.374.217-2.483.268-4.983.318-7.481.019-.898.037-1.795.063-2.692.713-24.26 1.427-48.521 2.128-72.782.083-2.883.155-5.767.226-8.65.131-5.287.261-10.574.464-15.858.083-2.074-.533-3.273-2.395-4.343-9.422-5.407-18.802-10.89-28.182-16.373-3.017-1.764-6.035-3.528-9.054-5.289l-8.286-4.835c-27.155-15.844-54.308-31.687-81.47-47.517-.512-.297-1.061-.533-1.726-.819a50.783 50.783 0 0 1-1.136-.498c-.046.442-.092.829-.134 1.18-.08.674-.144 1.216-.16 1.76-.576 19.31-1.148 38.62-1.701 57.934-.367 12.88-.725 25.762-1.083 38.643-.24 8.606-.478 17.212-.72 25.817-.042 1.514-.08 3.029-.12 4.544-.128 5.097-.257 10.195-.535 15.284-.118 2.156.565 3.265 2.407 4.319 8.242 4.714 16.439 9.507 24.636 14.3 2.547 1.489 5.093 2.979 7.641 4.465l33.985 19.831c30.391 17.732 60.781 35.465 91.173 53.195l.292.175c.427.258.856.517 1.319.68.968.337 1.572-.145 1.431-1.129-.05-.358-.17-.707-.291-1.056-.051-.149-.102-.297-.148-.446-.37-1.19-.754-2.377-1.137-3.565-.901-2.789-1.802-5.579-2.528-8.414-.682-2.65-2.09-4.293-4.45-5.665-22.625-13.157-45.238-26.337-67.851-39.517a76719.033 76719.033 0 0 0-69.995-40.764c-2.117-1.231-2.823-2.583-2.729-4.975.318-7.999.54-16.002.761-24.005.082-2.958.164-5.917.251-8.876.513-17.487 1.031-34.97 1.556-52.457.016-.553.09-1.105.165-1.655.034-.258.069-.515.098-.772l.224-.06.313-.085c.354.427.71.853 1.066 1.279.631.755 1.261 1.51 1.885 2.269 3.244 3.956 6.49 7.912 9.736 11.867 11.935 14.545 23.87 29.09 35.732 43.695 1.674 2.058 3.372 2.787 5.963 2.713 15.623-.439 31.247-.794 46.872-1.149l11.332-.259a97.55 97.55 0 0 1 2.612-.006M103.533 162.329c-.047.942-.089 1.82-.128 2.656-.079 1.65-.149 3.134-.24 4.617-.137 2.285.604 4.198 2.066 5.978a34457.14 34457.14 0 0 1 59.741 72.881c1.238 1.517 2.536 2.05 4.457 1.999 13.946-.349 27.892-.657 41.838-.965 5.975-.132 11.951-.264 17.926-.399a30.551 30.551 0 0 0 1.967-.128c.365-.031.757-.064 1.189-.096.015-.863.033-1.716.051-2.561.057-2.713.112-5.345.094-7.976 0-.474-.569-1.035-1.008-1.391-.44-.36-.947-.637-1.453-.913a28.918 28.918 0 0 1-.55-.306l-.3-.176c-40.786-23.794-81.571-47.589-122.361-71.38-.604-.351-1.215-.69-2.014-1.133zm128.29 88.476c-.624 0-1.228-.004-1.82-.007a134.441 134.441 0 0 0-3.546.011l-6.886.152c-17.016.376-34.033.751-51.048 1.173-1.819.047-3.065-.49-4.233-1.925-7.97-9.803-15.983-19.572-23.995-29.342l-6.75-8.231-2.336-2.849c-8.656-10.555-17.312-21.11-25.99-31.647a5.512 5.512 0 0 1-.306-.428c-.368-.546-.763-1.134-1.701-1.14a504.475 504.475 0 0 0-.079 3.617c-.055 2.853-.109 5.667-.285 8.472-.118 1.882.364 3.312 1.552 4.755a32822.416 32822.416 0 0 1 60.238 73.476c1.129 1.384 2.345 1.811 4.042 1.745 3.688-.143 7.377-.217 11.068-.29 1.268-.025 2.536-.051 3.804-.079l11.393-.25c11.338-.249 22.676-.498 34.017-.753.568-.013 1.136-.068 1.807-.132.324-.03.671-.064 1.054-.096zm25.181-29.179c.408.252.855.528 1.366.841v.004c-1.124.668-2.189 1.298-3.213 1.904a680.226 680.226 0 0 0-6.09 3.631c-1.102.666-1.975.156-2.882-.374l-.018-.01-4.294-2.501a12626.31 12626.31 0 0 1-8.56-4.99l-36.821-21.485c-32.96-19.232-65.922-38.464-98.882-57.699a740.93 740.93 0 0 1-4.52-2.667l-1.983-1.175c.211-.192.392-.371.558-.535.324-.319.588-.58.896-.766.808-.495 1.629-.968 2.45-1.442 1.366-.789 2.731-1.577 4.034-2.459 1.529-1.035 2.764-.913 4.296 0 4.987 2.964 10.004 5.879 15.021 8.795 2.204 1.281 4.408 2.562 6.61 3.847l.357.208c43.24 25.227 86.48 50.453 129.72 75.684.614.358 1.219.733 1.955 1.189m.989 177.276-.462.4-85.473-49.866-71.868-41.928c.351-.254.651-.476.919-.675.499-.371.889-.66 1.299-.913a86.375 86.375 0 0 1 1.975-1.158c1.226-.705 2.453-1.409 3.604-2.221 1.76-1.243 3.218-1.027 5.002.035 5.939 3.543 11.918 7.02 17.897 10.497 1.992 1.159 3.985 2.317 5.975 3.478l19.503 11.38a77240.017 77240.017 0 0 0 94.808 55.264c1.882 1.098 2.991 2.415 3.532 4.5.522 2.004 1.152 3.979 1.783 5.953.323 1.011.646 2.022.954 3.036.149.488.263.984.378 1.481.057.246.113.492.174.737m-1.519-173.365c.837-.507 1.71-1.037 2.64-1.588v-.004c0 .538.004.982.007 1.368.004.638.008 1.117-.007 1.595-.398 13.37-.799 26.739-1.199 40.108-.53 17.671-1.059 35.342-1.584 53.012l-.146 4.874c-.239 7.94-.478 15.88-.599 23.82-.031 2.125-.76 3.36-2.595 4.289-1.294.658-2.534 1.421-3.776 2.184-.687.422-1.375.845-2.072 1.25-.326.19-.677.338-1.135.53-.242.102-.513.216-.825.356 0-.415-.003-.788-.006-1.134a46.757 46.757 0 0 1 .006-1.689c.995-33.912 1.991-67.82 2.991-101.731.053-1.834.113-3.668.173-5.502.157-4.862.315-9.723.364-14.585.019-2.022.729-3.186 2.485-4.1 1.741-.905 3.42-1.925 5.278-3.053M99.668 305.185l-.36-.171h.004c.946-35.167 1.996-70.334 3.057-105.88l.141-4.73c.273.193.507.342.709.471.356.228.61.391.793.611a562.015 562.015 0 0 1 3.251 3.942 473.427 473.427 0 0 0 3.891 4.705c.956 1.137 1.274 2.36 1.227 3.838-.796 25.115-1.556 50.235-2.313 75.354l-.014.484c-.137 4.534-.273 9.066-.303 13.601-.012 1.677-.612 2.724-2.105 3.524-1.819.974-3.59 2.035-5.361 3.096-.746.447-1.491.893-2.24 1.333zm171.912 66.819 2.356-1.4.004-.008c.163.481.309.903.442 1.29.234.681.43 1.248.612 1.819 1.012 3.166 2.021 6.334 3.031 9.502 2.821 8.85 5.642 17.702 8.506 26.538.451 1.396.396 2.485-.545 3.614-.67.803-1.313 1.63-1.955 2.456-.958 1.234-1.916 2.466-2.965 3.616-2.717 2.98-5.503 5.899-8.289 8.819-.879.921-1.759 1.842-2.636 2.765-1.815 1.909-3.798 3.195-6.922 4.159.193-.215.385-.431.577-.648.451-.508.903-1.018 1.371-1.516.683-.727 1.373-1.448 2.063-2.169 2.977-3.11 5.952-6.219 8.364-9.834.913-1.368 1.129-2.481.608-4.08-3.667-11.266-7.251-22.558-10.836-33.849l-1.25-3.936c-.697-2.192-.674-2.239 1.172-3.368a579.62 579.62 0 0 1 6.292-3.77m-19.59-2.852c.007-.136.015-.273.021-.41v.004l2.086-1.235c2.276-1.35 4.553-2.701 6.86-3.998.447-.255 1.258-.306 1.689-.067 2.496 1.381 4.964 2.815 7.594 4.343.857.498 1.732 1.006 2.63 1.525-.842.5-1.657.986-2.453 1.461-2.497 1.49-4.802 2.865-7.136 4.188-.443.251-1.254.286-1.689.047-2.461-1.36-4.894-2.774-7.326-4.188-.764-.444-1.529-.889-2.294-1.331.005-.114.012-.226.018-.339" clip-rule="evenodd"/>
</svg>
