<svg xmlns="http://www.w3.org/2000/svg" width="16" height="16" fill="none" viewBox="0 0 16 16">
    <path fill="#000" fill-rule="evenodd" d="m7.503 14.83.004.003.002.002c.286.22.695.22.982 0l.002-.002.004-.003.013-.01.03-.023.014-.012.16-.13a17 17 0 0 0 2.203-2.243c1.187-1.466 2.468-3.598 2.468-6.027a5.385 5.385 0 0 0-10.77 0c0 2.43 1.28 4.561 2.468 6.028a17 17 0 0 0 2.204 2.243l.158.13.045.034zM7.27 4.86a.577.577 0 0 0-.887.487V8.63c0 .456.503.732.887.487l2.58-1.641a.577.577 0 0 0 0-.974z" clip-rule="evenodd"/>
</svg>
