<svg xmlns="http://www.w3.org/2000/svg" width="16" height="16" fill="none" viewBox="0 0 16 16">
    <path fill="#000" d="M13.729 3.963 14.067 3.231 14.798 2.893C15.067 2.769 15.067 2.389 14.798 2.265L14.067 1.927 13.729 1.202C13.605.933 13.226.933 13.101 1.202L12.763 1.933 12.039 2.272C11.77 2.396 11.77 2.775 12.039 2.9L12.77 3.238 13.108 3.963C13.226 4.232 13.612 4.232 13.729 3.963ZM5.796 3.963 6.134 3.231 6.865 2.893C7.134 2.769 7.134 2.389 6.865 2.265L6.134 1.933 5.796 1.202C5.679.933 5.293.933 5.175 1.202L4.837 1.933 4.106 2.272C3.837 2.396 3.837 2.775 4.106 2.9L4.837 3.238 5.175 3.963C5.293 4.232 5.679 4.232 5.796 3.963ZM13.108 9.138 12.77 9.87 12.039 10.208C11.77 10.332 11.77 10.712 12.039 10.836L12.77 11.174 13.108 11.906C13.233 12.175 13.612 12.175 13.736 11.906L14.074 11.174 14.798 10.829C15.067 10.705 15.067 10.325 14.798 10.201L14.067 9.863 13.729 9.131C13.612 8.869 13.226 8.869 13.108 9.138ZM11.839 6.115 9.887 4.162C9.618 3.893 9.183 3.893 8.914 4.162L1.202 11.871C.933 12.14.933 12.575 1.202 12.844L3.154 14.797C3.423 15.066 3.858 15.066 4.127 14.797L11.832 7.088C12.108 6.826 12.108 6.384 11.839 6.115ZM9.424 7.557 8.452 6.584 9.404 5.632 10.376 6.605 9.424 7.557Z"/>
</svg>
