<svg xmlns="http://www.w3.org/2000/svg" width="16" height="16" fill="none" viewBox="0 0 16 16">
    <path d="m13.73 3.963.337-.732.731-.338a.345.345 0 0 0 0-.628l-.73-.338-.339-.725a.345.345 0 0 0-.628 0l-.338.731-.724.339a.345.345 0 0 0 0 .628l.731.338.338.725a.34.34 0 0 0 .621 0m-7.933 0 .338-.732.731-.338a.345.345 0 0 0 0-.628l-.73-.332-.339-.731a.34.34 0 0 0-.62 0l-.339.731-.73.339a.345.345 0 0 0 0 .628l.73.338.338.725a.34.34 0 0 0 .621 0m7.312 5.175-.338.732-.73.338a.345.345 0 0 0 0 .628l.73.338.338.732a.345.345 0 0 0 .628 0l.338-.732.724-.345a.345.345 0 0 0 0-.628l-.73-.338-.339-.732c-.117-.262-.503-.262-.62.007m-1.27-3.023L9.887 4.162a.687.687 0 0 0-.973 0L1.202 11.87a.69.69 0 0 0 0 .973l1.952 1.953c.269.27.704.27.973 0l7.705-7.709a.68.68 0 0 0 .007-.973M9.424 7.557l-.972-.973.952-.952.972.973z"/>
</svg>
