<svg xmlns="http://www.w3.org/2000/svg" width="16" height="16" fill="none" viewBox="0 0 16 16">
    <path fill="#000" d="M7.125 2.995C5.966 2.479 4.683 2.193 3.333 2.193 2.685 2.193 2.052 2.259 1.441 2.385 1.18 2.438 1 2.673 1 2.939V12.266C1 12.669 1.399 12.951 1.792 12.863 2.288 12.751 2.804 12.693 3.333 12.693 4.731 12.693 6.032 13.102 7.125 13.808V2.995ZM8.875 13.808C9.968 13.102 11.269 12.693 12.667 12.693 13.196 12.693 13.712 12.751 14.208 12.863 14.601 12.951 15 12.669 15 12.266V2.939C15 2.673 14.82 2.438 14.56 2.385 13.948 2.259 13.315 2.193 12.667 2.193 11.317 2.193 10.034 2.479 8.875 2.995V13.808Z"/>
</svg>
