<svg width="16" height="16" viewBox="0 0 16 16" fill="none" xmlns="http://www.w3.org/2000/svg">
<path d="M7.125 2.99497C5.96641 2.47925 4.68335 2.19263 3.33333 2.19263C2.68481 2.19263 2.05174 2.25877 1.4405 2.38468C1.17981 2.43838 1 2.67271 1 2.93887V12.2661C1 12.6686 1.3994 12.9511 1.7922 12.8628C2.28806 12.7514 2.80383 12.6926 3.33333 12.6926C4.73065 12.6926 6.03235 13.102 7.125 13.8075V2.99497Z" fill="black"/>
<path d="M8.875 13.8075C9.96765 13.102 11.2693 12.6926 12.6667 12.6926C13.1962 12.6926 13.7119 12.7514 14.2078 12.8628C14.6006 12.9511 15 12.6686 15 12.2661V2.93887C15 2.67271 14.8202 2.43838 14.5595 2.38468C13.9483 2.25877 13.3152 2.19263 12.6667 2.19263C11.3167 2.19263 10.0336 2.47925 8.875 2.99497V13.8075Z" fill="black"/>
</svg>
