<svg xmlns="http://www.w3.org/2000/svg" width="16" height="16" fill="none" viewBox="0 0 16 16">
    <path fill="#727683" d="M7.19 8.415a.3.3 0 0 1 .164.268v6.282a.3.3 0 0 1-.431.27l-5.754-2.802a.3.3 0 0 1-.169-.27v-6.4a.3.3 0 0 1 .436-.267zM15 12.17a.3.3 0 0 1-.166.269l-5.599 2.78a.3.3 0 0 1-.433-.268V8.678a.3.3 0 0 1 .162-.267l5.598-2.897A.3.3 0 0 1 15 5.78zm-1.379-8.334a.3.3 0 0 1 .002.533L8.212 7.17a.3.3 0 0 1-.274.001l-5.522-2.8a.3.3 0 0 1 .001-.537l5.521-2.765a.3.3 0 0 1 .271.001z"/>
</svg>
