<svg xmlns="http://www.w3.org/2000/svg" width="16" height="16" fill="none" viewBox="0 0 16 16">
    <path d="M13.407 2.587a.75.75 0 0 0-1.464.326c.365 1.636.557 3.337.557 5.084s-.192 3.449-.557 5.084a.75.75 0 0 0 1.464.327 25 25 0 0 0 .531-3.644 2 2 0 0 0 0-3.534 25 25 0 0 0-.531-3.643m-9.059 8.41H4a3 3 0 0 1 0-6h2c1.647 0 3.217-.332 4.646-.933.232 1.274.354 2.588.354 3.933s-.122 2.658-.354 3.932a12 12 0 0 0-4.23-.925c.203.718.478 1.407.816 2.057.12.23.057.515-.155.663l-.828.58a.484.484 0 0 1-.707-.16 13 13 0 0 1-1.194-3.147"/>
</svg>
