<svg xmlns="http://www.w3.org/2000/svg" width="16" height="16" fill="none" viewBox="0 0 16 16">
    <path fill="#000" d="M13.407 2.587C13.317 2.183 12.916 1.928 12.512 2.018 12.107 2.108 11.853 2.509 11.943 2.913 12.308 4.549 12.5 6.25 12.5 7.997 12.5 9.744 12.308 11.446 11.943 13.081 11.853 13.486 12.107 13.886 12.512 13.977 12.916 14.067 13.317 13.812 13.407 13.408 13.671 12.223 13.851 11.006 13.938 9.764 14.57 9.428 15 8.763 15 7.997 15 7.232 14.57 6.566 13.938 6.23 13.851 4.989 13.671 3.772 13.407 2.587ZM4.348 10.997H4C2.343 10.997 1 9.654 1 7.997 1 6.34 2.343 4.997 4 4.997H6C7.647 4.997 9.217 4.665 10.646 4.064 10.878 5.338 11 6.652 11 7.997 11 9.341 10.878 10.655 10.646 11.929 9.338 11.38 7.911 11.055 6.416 11.004 6.619 11.722 6.894 12.411 7.232 13.061 7.351 13.291 7.289 13.576 7.077 13.724L6.249 14.304C6.01 14.471 5.68 14.4 5.542 14.144 5.015 13.163 4.61 12.108 4.348 10.997Z"/>
</svg>
