<svg xmlns="http://www.w3.org/2000/svg" width="16" height="16" fill="none" viewBox="0 0 16 16">
    <path d="M5 1a2 2 0 0 0-2 2v10a2 2 0 0 0 2 2h6a2 2 0 0 0 2-2V3a2 2 0 0 0-2-2zm.75 6a.75.75 0 1 0 0 1.5.75.75 0 0 0 0-1.5M5 3.75A.75.75 0 0 1 5.75 3h4.5a.75.75 0 0 1 0 1.5h-4.5A.75.75 0 0 1 5 3.75m.75 7.75a.75.75 0 1 0 0 1.5.75.75 0 0 0 0-1.5M5 10a.75.75 0 1 1 1.5 0A.75.75 0 0 1 5 10m5.25-3a.75.75 0 1 0 0 1.5.75.75 0 0 0 0-1.5m-.75 3a.75.75 0 0 1 1.5 0v2.25a.75.75 0 0 1-1.5 0zM8 7a.75.75 0 1 0 0 1.5A.75.75 0 0 0 8 7m-.75 5.25a.75.75 0 1 1 1.5 0 .75.75 0 0 1-1.5 0m.75-3a.75.75 0 1 0 0 1.5.75.75 0 0 0 0-1.5" clip-rule="evenodd"/>
</svg>
