<svg xmlns="http://www.w3.org/2000/svg">
    <path d="M5.75 8.5a.75.75 0 1 0 0 1.5.75.75 0 0 0 0-1.5M5 11.25a.75.75 0 1 1 1.5 0 .75.75 0 0 1-1.5 0m5.25-2.75a.75.75 0 1 0 0 1.5.75.75 0 0 0 0-1.5m-3 .75a.75.75 0 1 1 1.5 0 .75.75 0 0 1-1.5 0M8 10.5A.75.75 0 1 0 8 12a.75.75 0 0 0 0-1.5"/>
    <path d="M4.75 2a.75.75 0 0 0-.75.75V4a2 2 0 0 0-2 2v7a2 2 0 0 0 2 2h8a2 2 0 0 0 2-2V6a2 2 0 0 0-2-2V2.75a.75.75 0 0 0-1.5 0V4h-5V2.75A.75.75 0 0 0 4.75 2M3.5 8a1 1 0 0 1 1-1h7a1 1 0 0 1 1 1v4.5a1 1 0 0 1-1 1h-7a1 1 0 0 1-1-1z"/>
</svg>
