<svg xmlns="http://www.w3.org/2000/svg" width="16" height="16" fill="none" viewBox="0 0 16 16">
    <path fill="#000" d="M5.577 8C5.131 8 4.769 8.362 4.769 8.808 4.769 9.254 5.131 9.615 5.577 9.615 6.023 9.615 6.385 9.254 6.385 8.808 6.385 8.362 6.023 8 5.577 8ZM4.769 10.962C4.769 10.516 5.131 10.154 5.577 10.154 6.023 10.154 6.385 10.516 6.385 10.962 6.385 11.408 6.023 11.769 5.577 11.769 5.131 11.769 4.769 11.408 4.769 10.962ZM10.423 8C9.977 8 9.616 8.362 9.616 8.808 9.616 9.254 9.977 9.615 10.423 9.615 10.869 9.615 11.231 9.254 11.231 8.808 11.231 8.362 10.869 8 10.423 8ZM7.192 8.808C7.192 8.362 7.554 8 8 8 8.446 8 8.808 8.362 8.808 8.808 8.808 9.254 8.446 9.615 8 9.615 7.554 9.615 7.192 9.254 7.192 8.808ZM8 10.154C7.554 10.154 7.192 10.516 7.192 10.962 7.192 11.408 7.554 11.769 8 11.769 8.446 11.769 8.808 11.408 8.808 10.962 8.808 10.516 8.446 10.154 8 10.154Z"/>
    <path fill="#000" fill-rule="evenodd" d="M4.50011 1C4.05404 1 3.69242 1.36162 3.69242 1.80769V3.15385C2.50288 3.15385 1.53857 4.11816 1.53857 5.30769V12.8462C1.53857 14.0357 2.50288 15 3.69242 15H12.3078C13.4973 15 14.4617 14.0357 14.4617 12.8462V5.30769C14.4617 4.11816 13.4973 3.15385 12.3078 3.15385V1.80769C12.3078 1.36162 11.9462 1 11.5001 1C11.054 1 10.6924 1.36162 10.6924 1.80769V3.15385H5.3078V1.80769C5.3078 1.36162 4.94619 1 4.50011 1ZM3.15396 7.46154C3.15396 6.86677 3.63611 6.38462 4.23088 6.38462H11.7693C12.3641 6.38462 12.8463 6.86677 12.8463 7.46154V12.3077C12.8463 12.9025 12.3641 13.3846 11.7693 13.3846H4.23088C3.63611 13.3846 3.15396 12.9025 3.15396 12.3077V7.46154Z" clip-rule="evenodd"/>
</svg>
