<svg width="16" height="16" viewBox="0 0 16 16" fill="none" xmlns="http://www.w3.org/2000/svg">
<path d="M5.57704 8C5.13096 8 4.76934 8.36162 4.76934 8.80769C4.76934 9.25377 5.13096 9.61539 5.57704 9.61539C6.02311 9.61539 6.38473 9.25377 6.38473 8.80769C6.38473 8.36162 6.02311 8 5.57704 8Z" fill="black"/>
<path d="M4.76934 10.9615C4.76934 10.5155 5.13096 10.1538 5.57704 10.1538C6.02311 10.1538 6.38473 10.5155 6.38473 10.9615C6.38473 11.4076 6.02311 11.7692 5.57704 11.7692C5.13096 11.7692 4.76934 11.4076 4.76934 10.9615Z" fill="black"/>
<path d="M10.4232 8C9.97711 8 9.6155 8.36162 9.6155 8.80769C9.6155 9.25377 9.97711 9.61539 10.4232 9.61539C10.8693 9.61539 11.2309 9.25377 11.2309 8.80769C11.2309 8.36162 10.8693 8 10.4232 8Z" fill="black"/>
<path d="M7.19242 8.80769C7.19242 8.36162 7.55404 8 8.00011 8C8.44619 8 8.8078 8.36162 8.8078 8.80769C8.8078 9.25377 8.44619 9.61539 8.00011 9.61539C7.55404 9.61539 7.19242 9.25377 7.19242 8.80769Z" fill="black"/>
<path d="M8.00011 10.1538C7.55404 10.1538 7.19242 10.5155 7.19242 10.9615C7.19242 11.4076 7.55404 11.7692 8.00011 11.7692C8.44619 11.7692 8.8078 11.4076 8.8078 10.9615C8.8078 10.5155 8.44619 10.1538 8.00011 10.1538Z" fill="black"/>
<path fill-rule="evenodd" clip-rule="evenodd" d="M4.50011 1C4.05404 1 3.69242 1.36162 3.69242 1.80769V3.15385C2.50288 3.15385 1.53857 4.11816 1.53857 5.30769V12.8462C1.53857 14.0357 2.50288 15 3.69242 15H12.3078C13.4973 15 14.4617 14.0357 14.4617 12.8462V5.30769C14.4617 4.11816 13.4973 3.15385 12.3078 3.15385V1.80769C12.3078 1.36162 11.9462 1 11.5001 1C11.054 1 10.6924 1.36162 10.6924 1.80769V3.15385H5.3078V1.80769C5.3078 1.36162 4.94619 1 4.50011 1ZM3.15396 7.46154C3.15396 6.86677 3.63611 6.38462 4.23088 6.38462H11.7693C12.3641 6.38462 12.8463 6.86677 12.8463 7.46154V12.3077C12.8463 12.9025 12.3641 13.3846 11.7693 13.3846H4.23088C3.63611 13.3846 3.15396 12.9025 3.15396 12.3077V7.46154Z" fill="black"/>
</svg>
