<svg xmlns="http://www.w3.org/2000/svg" width="16" height="16" fill="none" viewBox="0 0 16 16">
    <path d="M5.577 8a.808.808 0 1 0 0 1.615.808.808 0 0 0 0-1.615m-.807 2.962a.808.808 0 1 1 1.615 0 .808.808 0 0 1-1.616 0M10.423 8a.808.808 0 1 0 0 1.615.808.808 0 0 0 0-1.615m-3.231.808a.808.808 0 1 1 1.616 0 .808.808 0 0 1-1.616 0M8 10.154a.808.808 0 1 0 0 1.615.808.808 0 0 0 0-1.615"/>
    <path d="M4.5 1a.81.81 0 0 0-.808.808v1.346c-1.19 0-2.153.964-2.153 2.154v7.538c0 1.19.964 2.154 2.153 2.154h8.616c1.19 0 2.154-.964 2.154-2.154V5.308c0-1.19-.965-2.154-2.154-2.154V1.808a.808.808 0 1 0-1.616 0v1.346H5.308V1.808A.81.81 0 0 0 4.5 1M3.154 7.462c0-.595.482-1.077 1.077-1.077h7.538c.595 0 1.077.482 1.077 1.077v4.846c0 .595-.482 1.077-1.077 1.077H4.231a1.077 1.077 0 0 1-1.077-1.077z" clip-rule="evenodd"/>
</svg>
