<svg xmlns="http://www.w3.org/2000/svg">
    <path d="M5 3.25V4H2.75a.75.75 0 0 0 0 1.5h.3l.815 8.15A1.5 1.5 0 0 0 5.357 15h5.286a1.5 1.5 0 0 0 1.492-1.35l.815-8.15h.3a.75.75 0 0 0 0-1.5H11v-.75A2.25 2.25 0 0 0 8.75 1h-1.5A2.25 2.25 0 0 0 5 3.25m2.25-.75a.75.75 0 0 0-.75.75V4h3v-.75a.75.75 0 0 0-.75-.75zM6.05 6a.75.75 0 0 1 .787.713l.275 5.5a.75.75 0 0 1-1.498.075l-.275-5.5A.75.75 0 0 1 6.05 6m3.9 0a.75.75 0 0 1 .712.787l-.275 5.5a.75.75 0 0 1-1.498-.075l.275-5.5a.75.75 0 0 1 .786-.711"/>
</svg>
