<svg xmlns="http://www.w3.org/2000/svg" width="16" height="16" fill="none" viewBox="0 0 16 16">
    <path fill="#727683" fill-rule="evenodd" d="M3.334 1a1.75 1.75 0 0 0-1.75 1.75v10.5c0 .966.783 1.75 1.75 1.75h9.333a1.75 1.75 0 0 0 1.75-1.75V6.392c0-.465-.184-.91-.513-1.238l-3.641-3.641A1.75 1.75 0 0 0 9.025 1zM4.5 7.708c0-.483.392-.875.875-.875h5.25a.875.875 0 0 1 0 1.75h-5.25a.875.875 0 0 1-.875-.875m0 3.5c0-.483.392-.875.875-.875h5.25a.875.875 0 0 1 0 1.75h-5.25a.875.875 0 0 1-.875-.875" clip-rule="evenodd"/>
</svg>
