<svg xmlns="http://www.w3.org/2000/svg">
    <path d="M4.47 2.8a.07.07 0 0 0-.07.07v10.26c0 .04.031.07.07.07h7.584a.07.07 0 0 0 .07-.07V7.778c0-.777-.631-1.408-1.408-1.408h-.893A1.27 1.27 0 0 1 8.554 5.1v-.892c0-.778-.63-1.408-1.408-1.408zm0-1.2A1.27 1.27 0 0 0 3.2 2.87v10.26c0 .702.568 1.27 1.27 1.27h7.584a1.27 1.27 0 0 0 1.27-1.27V7.555A5.954 5.954 0 0 0 7.368 1.6zm5.144 1.762c.09.265.14.55.14.846V5.1c0 .038.031.07.07.07h.892q.446.002.845.14a4.8 4.8 0 0 0-1.947-1.948M5.43 9.785a.6.6 0 0 1 .6-.6h4.462a.6.6 0 1 1 0 1.2H6.03a.6.6 0 0 1-.6-.6m0 1.784a.6.6 0 0 1 .6-.6h2.23a.6.6 0 0 1 0 1.2H6.03a.6.6 0 0 1-.6-.6"/>
</svg>
