<svg xmlns="http://www.w3.org/2000/svg" width="16" height="16" fill="none" viewBox="0 0 16 16">
    <path d="M3.313 15h9.625c.724 0 1.312-.588 1.312-1.312V2.313c0-.725-.587-1.313-1.312-1.313H3.313C2.588 1 2 1.588 2 2.313v11.375C2 14.412 2.588 15 3.313 15m1.53-10.937c0-.363.295-.657.657-.657h3.03a.656.656 0 1 1 0 1.313H5.5a.656.656 0 0 1-.656-.657M5.5 6.03a.656.656 0 0 0 0 1.313h4.785a.656.656 0 1 0 0-1.313zm-.656 3.282c0-.363.294-.657.656-.657h4.785a.656.656 0 1 1 0 1.313H5.5a.656.656 0 0 1-.656-.656M5.5 11.28a.656.656 0 0 0 0 1.313h2.393a.656.656 0 0 0 0-1.313z" clip-rule="evenodd"/>
</svg>
