<svg xmlns="http://www.w3.org/2000/svg" width="16" height="16" fill="none" viewBox="0 0 16 16">
    <path d="M1 4.267a1.4 1.4 0 0 1 1.4-1.4h10.267a1.4 1.4 0 0 1 1.4 1.4v.74l-.071.03-6.158 2.971a.7.7 0 0 1-.609 0L1.071 5.036 1 5.006zm10.85 3.36 2.217-1.07v1.035c-.313.08-.609.243-.854.488l-.313.313-.313-.313a1.86 1.86 0 0 0-.736-.453M9.515 8.754l-1.069.516a2.1 2.1 0 0 1-1.825 0L1 6.557V10.8a1.4 1.4 0 0 0 1.4 1.4h7.059c.08-.313.243-.608.488-.853l.313-.314-.313-.313a1.87 1.87 0 0 1-.432-1.966m5.28-.082a.7.7 0 0 1 0 .99L13.657 10.8l1.138 1.138a.7.7 0 0 1-.99.99l-1.138-1.138-1.139 1.138a.7.7 0 1 1-.99-.99l1.139-1.138-1.139-1.138a.7.7 0 1 1 .99-.99l1.139 1.138 1.138-1.138a.7.7 0 0 1 .99 0"/>
</svg>
