<svg xmlns="http://www.w3.org/2000/svg" width="20" height="20" fill="none" viewBox="0 0 20 20">
    <path d="M2 6.21c0-.93.754-1.684 1.684-1.684h11.79c.93 0 1.684.754 1.684 1.685v.978l-7.108 3.554a1.05 1.05 0 0 1-.942 0L2 7.189zm12.686 3.627L17.158 8.6v1.031c-.282.073-.55.22-.77.44l-.704.704-.704-.704a1.7 1.7 0 0 0-.294-.235"/>
    <path d="m12.111 11.124-1.496.749a2.32 2.32 0 0 1-2.072 0L2 8.6v4.346c0 .93.754 1.685 1.684 1.685h8.474c.073-.282.22-.55.44-.77l.704-.704-.703-.704a1.68 1.68 0 0 1-.488-1.33"/>
    <path d="M13.132 10.606a.63.63 0 0 1 .893 0l1.449 1.448 1.448-1.448a.631.631 0 1 1 .893.893l-1.448 1.448 1.448 1.449a.631.631 0 1 1-.893.893l-1.448-1.448-1.449 1.448a.632.632 0 0 1-.893-.893l1.449-1.449-1.449-1.448a.63.63 0 0 1 0-.893" clip-rule="evenodd"/>
</svg>
