<svg xmlns="http://www.w3.org/2000/svg">
    <path d="M0 4.5A1.5 1.5 0 0 1 1.5 3h11A1.5 1.5 0 0 1 14 4.5v.793l-.076.032L7.326 8.51a.75.75 0 0 1-.652 0L.076 5.325 0 5.293zm11.626 3.6L14 6.954v1.11a2 2 0 0 0-.914.522l-.336.336-.336-.336c-.229-.23-.5-.391-.788-.486M9.123 9.308l-1.145.553a2.25 2.25 0 0 1-1.956 0L0 6.954V11.5A1.5 1.5 0 0 0 1.5 13h7.563a2 2 0 0 1 .523-.914l.336-.336-.336-.336a2 2 0 0 1-.463-2.106m5.657-.088a.75.75 0 0 1 0 1.06l-1.22 1.22 1.22 1.22a.75.75 0 1 1-1.06 1.06l-1.22-1.22-1.22 1.22a.75.75 0 1 1-1.06-1.06l1.22-1.22-1.22-1.22a.75.75 0 1 1 1.06-1.06l1.22 1.22 1.22-1.22a.75.75 0 0 1 1.06 0"/>
</svg>
