<svg xmlns="http://www.w3.org/2000/svg" width="16" height="16" fill="none" viewBox="0 0 16 16">
    <path fill="#000" d="M1 4.267C1 3.494 1.627 2.867 2.4 2.867H12.667C13.44 2.867 14.067 3.494 14.067 4.267V5.007C14.043 5.015 14.019 5.025 13.996 5.036L7.838 8.009C7.646 8.102 7.421 8.102 7.229 8.009L1.071 5.036C1.048 5.025 1.024 5.015 1 5.007V4.267ZM11.851 7.627 14.067 6.557V7.592C13.754 7.673 13.458 7.835 13.213 8.08L12.9 8.394 12.587 8.08C12.373 7.866 12.12 7.715 11.851 7.627ZM9.515 8.754 8.446 9.27C7.87 9.549 7.197 9.549 6.621 9.27L1 6.557V10.8C1 11.573 1.627 12.2 2.4 12.2H9.459C9.539 11.887 9.702 11.592 9.947 11.347L10.26 11.033 9.947 10.72C9.415 10.189 9.271 9.416 9.515 8.754ZM14.795 8.672C15.068 8.945 15.068 9.388 14.795 9.662L13.657 10.8 14.795 11.938C15.068 12.212 15.068 12.655 14.795 12.928 14.522 13.202 14.078 13.202 13.805 12.928L12.667 11.79 11.528 12.928C11.255 13.202 10.812 13.202 10.538 12.928 10.265 12.655 10.265 12.212 10.538 11.938L11.677 10.8 10.538 9.662C10.265 9.388 10.265 8.945 10.538 8.672 10.812 8.398 11.255 8.398 11.528 8.672L12.667 9.81 13.805 8.672C14.078 8.398 14.522 8.398 14.795 8.672Z"/>
</svg>
