<svg xmlns="http://www.w3.org/2000/svg" width="16" height="16" fill="none" viewBox="0 0 16 16">
    <path fill="#727683" d="M2 1.40039C2.33137 1.40039 2.59961 1.66863 2.59961 2V13.4004H14C14.3314 13.4004 14.5996 13.6686 14.5996 14C14.5996 14.3314 14.3314 14.5996 14 14.5996H2C1.66863 14.5996 1.40039 14.3314 1.40039 14V2C1.40039 1.66863 1.66863 1.40039 2 1.40039Z"/>
    <path fill="#727683" d="M11.199 8C12.304 8 13.199 8.896 13.199 10 13.199 11.104 12.304 12 11.199 12 10.095 12 9.199 11.104 9.199 10 9.199 8.896 10.095 8 11.199 8ZM5.6 6C6.704 6 7.599 6.896 7.6 8 7.599 9.104 6.704 10 5.6 10 4.495 10 3.6 9.104 3.6 8 3.6 6.896 4.495 6 5.6 6ZM8.8 2C9.904 2 10.8 2.896 10.8 4 10.8 5.104 9.904 6 8.8 6 7.696 6 6.8 5.104 6.8 4 6.8 2.896 7.696 2 8.8 2Z"/>
</svg>
