<svg width="16" height="16" viewBox="0 0 16 16" fill="none" xmlns="http://www.w3.org/2000/svg">
<path d="M2 1.40039C2.33137 1.40039 2.59961 1.66863 2.59961 2V13.4004H14C14.3314 13.4004 14.5996 13.6686 14.5996 14C14.5996 14.3314 14.3314 14.5996 14 14.5996H2C1.66863 14.5996 1.40039 14.3314 1.40039 14V2C1.40039 1.66863 1.66863 1.40039 2 1.40039Z" fill="#727683"/>
<path d="M11.1992 8C12.3037 8 13.199 8.89561 13.1992 10C13.199 11.1044 12.3037 12 11.1992 12C10.0951 11.9996 9.19942 11.1041 9.19922 10C9.19943 8.89587 10.0951 8.00042 11.1992 8Z" fill="#727683"/>
<path d="M5.59961 6C6.70405 6 7.5994 6.89561 7.59961 8C7.59941 9.1044 6.70406 10 5.59961 10C4.49534 9.99979 3.59981 9.10427 3.59961 8C3.59982 6.89574 4.49535 6.00021 5.59961 6Z" fill="#727683"/>
<path d="M8.7998 2C9.90415 2.00011 10.7996 2.89567 10.7998 4C10.7996 5.10434 9.90416 5.9999 8.7998 6C7.69554 5.99979 6.8 5.10427 6.7998 4C6.80002 2.89574 7.69554 2.00021 8.7998 2Z" fill="#727683"/>
</svg>
