<svg xmlns="http://www.w3.org/2000/svg" width="16" height="16" fill="none" viewBox="0 0 16 16">
    <path d="M3.046 1.93a.788.788 0 1 0-1.114 1.114L12.957 14.07a.788.788 0 0 0 1.114-1.113l-1.389-1.39a7.36 7.36 0 0 0 2.268-3.265.9.9 0 0 0 0-.596A7.353 7.353 0 0 0 4.664 3.55zM6.4 5.287l1.192 1.192a1.577 1.577 0 0 1 1.93 1.93L10.715 9.6a3.15 3.15 0 0 0-4.314-4.314" clip-rule="evenodd"/>
    <path d="M7.804 11.144 9.71 13.05a7.353 7.353 0 0 1-8.66-4.756.9.9 0 0 1 0-.595 7.3 7.3 0 0 1 1.17-2.14l2.637 2.638a3.15 3.15 0 0 0 2.947 2.947"/>
</svg>
