<svg width="16" height="16" viewBox="0 0 16 16" fill="none" xmlns="http://www.w3.org/2000/svg">
<path d="M8.00142 9.57505C8.87128 9.57505 9.57643 8.8699 9.57643 8.00004C9.57643 7.13019 8.87128 6.42503 8.00142 6.42503C7.13157 6.42503 6.42641 7.13019 6.42641 8.00004C6.42641 8.8699 7.13157 9.57505 8.00142 9.57505Z" fill="black"/>
<path fill-rule="evenodd" clip-rule="evenodd" d="M1.04973 8.29456C0.983332 8.10176 0.983425 7.89217 1.05 7.69943C2.04493 4.81892 4.78039 2.75 7.99908 2.75C11.22 2.75 13.9571 4.82184 14.9503 7.70553C15.0167 7.89833 15.0166 8.10791 14.95 8.30065C13.9551 11.1812 11.2196 13.2501 8.00092 13.2501C4.77996 13.2501 2.04291 11.1782 1.04973 8.29456ZM11.1514 8.00004C11.1514 9.73975 9.74113 11.1501 8.00142 11.1501C6.26171 11.1501 4.8514 9.73975 4.8514 8.00004C4.8514 6.26033 6.26171 4.85002 8.00142 4.85002C9.74113 4.85002 11.1514 6.26033 11.1514 8.00004Z" fill="black"/>
</svg>
