<svg width="16" height="16" viewBox="0 0 16 16" fill="none" xmlns="http://www.w3.org/2000/svg">
<path d="M8 1C7.58579 1 7.25 1.33579 7.25 1.75V6.5C7.25 6.77614 7.02614 7 6.75 7C6.47386 7 6.25 6.77614 6.25 6.5V2.75C6.25 2.33579 5.91421 2 5.5 2C5.08579 2 4.75 2.33579 4.75 2.75V7.5C4.75 7.77614 4.52614 8 4.25 8C3.97386 8 3.75 7.77614 3.75 7.5V4.75C3.75 4.33579 3.41421 4 3 4C2.58579 4 2.25 4.33579 2.25 4.75V9.25C2.25 12.4256 4.82436 15 8 15C11.1756 15 13.75 12.4256 13.75 9.25V6.75C13.75 6.33579 13.4142 6 13 6C12.5858 6 12.25 6.33579 12.25 6.75V9.5C12.25 9.77614 12.0261 10 11.75 10C11.4739 10 11.25 9.77614 11.25 9.5V2.75C11.25 2.33579 10.9142 2 10.5 2C10.0858 2 9.75 2.33579 9.75 2.75V6.5C9.75 6.77614 9.52614 7 9.25 7C8.97386 7 8.75 6.77614 8.75 6.5V1.75C8.75 1.33579 8.41421 1 8 1Z" />
</svg>
