<svg xmlns="http://www.w3.org/2000/svg" width="16" height="16" fill="none" viewBox="0 0 16 16">
    <path d="M10.573 1c-3.405 0-5.814.755-7.38 2.114C1.608 4.488 1.006 6.376 1 8.365v.003c0 .428.001 1.128.267 1.947q.224-.437.497-.847C2.678 8.098 3.99 7 5.76 6.212a.75.75 0 1 1 .61 1.37C4.831 8.267 3.752 9.19 3.011 10.3a7.6 7.6 0 0 0-.837 1.696q.227.289.515.578c.14.14.332.22.53.22h2.217c2.416 0 4.563-.641 6.15-2.23 1.581-1.58 2.497-3.99 2.687-7.3V1.75a.75.75 0 0 0-.75-.75z"/>
    <path d="M2.177 11.998a12.5 12.5 0 0 0-.427 2.17.75.75 0 1 0 1.49.165q.089-.809.274-1.54H3.22a.75.75 0 0 1-.53-.219 7 7 0 0 1-.514-.576"/>
</svg>
