<svg width="16" height="16" viewBox="0 0 16 16" fill="none" xmlns="http://www.w3.org/2000/svg">
<path d="M7.99956 8.00068C9.42185 8.00068 10.5748 6.84768 10.5748 5.42539C10.5748 4.00309 9.42185 2.8501 7.99956 2.8501C6.57726 2.8501 5.42427 4.00309 5.42427 5.42539C5.42427 6.84768 6.57726 8.00068 7.99956 8.00068Z" fill="black"/>
<path d="M3.00975 11.8774C3.17479 11.2292 3.46268 10.6299 3.84724 10.1061C3.69087 10.0764 3.52949 10.0609 3.36448 10.0609C2.34006 10.0609 1.45535 10.659 1.04053 11.5251C0.899869 11.8188 1.14519 12.1211 1.47082 12.1211H2.96291C2.97315 12.0416 2.98864 11.9604 3.00975 11.8774Z" fill="black"/>
<path d="M12.9929 11.8774C13.0141 11.9604 13.0295 12.0416 13.0398 12.1211H14.5292C14.8548 12.1211 15.1001 11.8188 14.9595 11.5251C14.5447 10.659 13.6599 10.0609 12.6355 10.0609C12.4713 10.0609 12.3108 10.0763 12.1551 10.1056C12.5398 10.6296 12.8279 11.229 12.9929 11.8774Z" fill="black"/>
<path d="M14.1803 7.48562C14.1803 8.33899 13.4885 9.03079 12.6351 9.03079C11.7817 9.03079 11.0899 8.33899 11.0899 7.48562C11.0899 6.63224 11.7817 5.94044 12.6351 5.94044C13.4885 5.94044 14.1803 6.63224 14.1803 7.48562Z" fill="black"/>
<path d="M3.36404 9.03079C4.21741 9.03079 4.90921 8.33899 4.90921 7.48562C4.90921 6.63224 4.21741 5.94044 3.36404 5.94044C2.51066 5.94044 1.81886 6.63224 1.81886 7.48562C1.81886 8.33899 2.51066 9.03079 3.36404 9.03079Z" fill="black"/>
<path d="M4.90954 13.1513C4.34063 13.1513 3.86621 12.6829 4.00657 12.1316C4.46035 10.3491 6.07617 9.03079 7.99989 9.03079C9.92361 9.03079 11.5394 10.3491 11.9932 12.1316C12.1336 12.6829 11.6592 13.1513 11.0902 13.1513H4.90954Z" fill="black"/>
</svg>
