<svg xmlns="http://www.w3.org/2000/svg" width="16" height="16" fill="none" viewBox="0 0 16 16">
    <path fill="#000" d="M8 8.001C9.422 8.001 10.575 6.848 10.575 5.425 10.575 4.003 9.422 2.85 8 2.85 6.577 2.85 5.424 4.003 5.424 5.425 5.424 6.848 6.577 8.001 8 8.001ZM3.01 11.877C3.175 11.229 3.463 10.63 3.847 10.106 3.691 10.076 3.529 10.061 3.364 10.061 2.34 10.061 1.455 10.659 1.041 11.525.9 11.819 1.145 12.121 1.471 12.121H2.963C2.973 12.042 2.989 11.96 3.01 11.877ZM12.993 11.877C13.014 11.96 13.03 12.042 13.04 12.121H14.529C14.855 12.121 15.1 11.819 14.96 11.525 14.545 10.659 13.66 10.061 12.636 10.061 12.471 10.061 12.311 10.076 12.155 10.106 12.54 10.63 12.828 11.229 12.993 11.877ZM14.18 7.486C14.18 8.339 13.489 9.031 12.635 9.031 11.782 9.031 11.09 8.339 11.09 7.486 11.09 6.632 11.782 5.94 12.635 5.94 13.489 5.94 14.18 6.632 14.18 7.486ZM3.364 9.031C4.217 9.031 4.909 8.339 4.909 7.486 4.909 6.632 4.217 5.94 3.364 5.94 2.511 5.94 1.819 6.632 1.819 7.486 1.819 8.339 2.511 9.031 3.364 9.031ZM4.91 13.151C4.341 13.151 3.866 12.683 4.007 12.132 4.46 10.349 6.076 9.031 8 9.031 9.924 9.031 11.539 10.349 11.993 12.132 12.134 12.683 11.659 13.151 11.09 13.151H4.91Z"/>
</svg>
