<svg xmlns="http://www.w3.org/2000/svg" width="16" height="16" fill="none" viewBox="0 0 16 16">
    <path d="M8 8a2.575 2.575 0 1 0 0-5.15A2.575 2.575 0 0 0 8 8m-4.99 3.877a5.1 5.1 0 0 1 .837-1.77 2.576 2.576 0 0 0-2.807 1.419c-.14.293.105.595.43.595h1.493q.015-.119.047-.244m9.983 0q.032.125.047.244h1.49c.325 0 .57-.302.43-.596a2.576 2.576 0 0 0-2.805-1.42 5.1 5.1 0 0 1 .838 1.772m1.187-4.391a1.545 1.545 0 1 1-3.09 0 1.545 1.545 0 0 1 3.09 0M3.364 9.03a1.545 1.545 0 1 0 0-3.09 1.545 1.545 0 0 0 0 3.09m1.546 4.121c-.57 0-1.044-.468-.903-1.02a4.122 4.122 0 0 1 7.986 0c.14.552-.334 1.02-.903 1.02z"/>
</svg>
