<svg xmlns="http://www.w3.org/2000/svg" width="16" height="16" fill="none" viewBox="0 0 16 16">
    <path fill="#000" d="M2.75 1C1.784 1 1 1.784 1 2.75V5.083C1 6.05 1.784 6.833 2.75 6.833H5.083C6.05 6.833 6.833 6.05 6.833 5.083V2.75C6.833 1.784 6.05 1 5.083 1H2.75ZM2.75 9.167C1.784 9.167 1 9.95 1 10.917V13.25C1 14.217 1.784 15 2.75 15H5.083C6.05 15 6.833 14.217 6.833 13.25V10.917C6.833 9.95 6.05 9.167 5.083 9.167H2.75ZM9.167 2.75C9.167 1.784 9.95 1 10.917 1H13.25C14.217 1 15 1.784 15 2.75V5.083C15 6.05 14.217 6.833 13.25 6.833H10.917C9.95 6.833 9.167 6.05 9.167 5.083V2.75ZM10.917 9.167C9.95 9.167 9.167 9.95 9.167 10.917V13.25C9.167 14.217 9.95 15 10.917 15H13.25C14.217 15 15 14.217 15 13.25V10.917C15 9.95 14.217 9.167 13.25 9.167H10.917Z"/>
</svg>
