<svg xmlns="http://www.w3.org/2000/svg" width="20" height="20" fill="none" viewBox="0 0 20 20">
    <path d="M4.25 2A2.25 2.25 0 0 0 2 4.25v2.5A2.25 2.25 0 0 0 4.25 9h2.5A2.25 2.25 0 0 0 9 6.75v-2.5A2.25 2.25 0 0 0 6.75 2zm0 9A2.25 2.25 0 0 0 2 13.25v2.5A2.25 2.25 0 0 0 4.25 18h2.5A2.25 2.25 0 0 0 9 15.75v-2.5A2.25 2.25 0 0 0 6.75 11zm9-9A2.25 2.25 0 0 0 11 4.25v2.5A2.25 2.25 0 0 0 13.25 9h2.5A2.25 2.25 0 0 0 18 6.75v-2.5A2.25 2.25 0 0 0 15.75 2zm0 9A2.25 2.25 0 0 0 11 13.25v2.5A2.25 2.25 0 0 0 13.25 18h2.5A2.25 2.25 0 0 0 18 15.75v-2.5A2.25 2.25 0 0 0 15.75 11z"/>
</svg>
