<svg width="16" height="16" viewBox="0 0 16 16" fill="none" xmlns="http://www.w3.org/2000/svg">
<path d="M2.75 1C1.7835 1 1 1.7835 1 2.75V5.08333C1 6.04983 1.7835 6.83333 2.75 6.83333H5.08333C6.04983 6.83333 6.83333 6.04983 6.83333 5.08333V2.75C6.83333 1.7835 6.04983 1 5.08333 1H2.75Z" fill="black"/>
<path d="M2.75 9.16667C1.7835 9.16667 1 9.95017 1 10.9167V13.25C1 14.2165 1.7835 15 2.75 15H5.08333C6.04983 15 6.83333 14.2165 6.83333 13.25V10.9167C6.83333 9.95017 6.04983 9.16667 5.08333 9.16667H2.75Z" fill="black"/>
<path d="M9.16667 2.75C9.16667 1.7835 9.95017 1 10.9167 1H13.25C14.2165 1 15 1.7835 15 2.75V5.08333C15 6.04983 14.2165 6.83333 13.25 6.83333H10.9167C9.95017 6.83333 9.16667 6.04983 9.16667 5.08333V2.75Z" fill="black"/>
<path d="M10.9167 9.16667C9.95017 9.16667 9.16667 9.95017 9.16667 10.9167V13.25C9.16667 14.2165 9.95017 15 10.9167 15H13.25C14.2165 15 15 14.2165 15 13.25V10.9167C15 9.95017 14.2165 9.16667 13.25 9.16667H10.9167Z" fill="black"/>
</svg>
