<svg xmlns="http://www.w3.org/2000/svg" width="16" height="16" fill="none" viewBox="0 0 16 16">
    <path d="M2.75 1A1.75 1.75 0 0 0 1 2.75v2.333c0 .967.784 1.75 1.75 1.75h2.333a1.75 1.75 0 0 0 1.75-1.75V2.75A1.75 1.75 0 0 0 5.083 1zm0 8.167A1.75 1.75 0 0 0 1 10.917v2.333c0 .966.784 1.75 1.75 1.75h2.333a1.75 1.75 0 0 0 1.75-1.75v-2.333a1.75 1.75 0 0 0-1.75-1.75zM9.167 2.75c0-.966.783-1.75 1.75-1.75h2.333c.966 0 1.75.784 1.75 1.75v2.333a1.75 1.75 0 0 1-1.75 1.75h-2.333a1.75 1.75 0 0 1-1.75-1.75zm1.75 6.417a1.75 1.75 0 0 0-1.75 1.75v2.333c0 .966.783 1.75 1.75 1.75h2.333A1.75 1.75 0 0 0 15 13.25v-2.333a1.75 1.75 0 0 0-1.75-1.75z"/>
</svg>
