<svg width="16" height="16" viewBox="0 0 16 16" fill="none" xmlns="http://www.w3.org/2000/svg">
<path fill-rule="evenodd" clip-rule="evenodd" d="M8.00241 1C5.10292 1 2.75241 3.35051 2.75241 6.25C2.75241 7.9008 2.3554 9.45696 1.65222 10.83C1.55887 11.0123 1.55597 11.2277 1.64438 11.4125C1.7328 11.5972 1.90239 11.7301 2.10292 11.7717C3.03714 11.9657 3.98778 12.1145 4.95242 12.2158C5.09302 13.7767 6.40487 15 8.00244 15C9.60001 15 10.9119 13.7767 11.0525 12.2158C12.0171 12.1145 12.9677 11.9657 13.9019 11.7717C14.1024 11.7301 14.272 11.5972 14.3604 11.4125C14.4489 11.2277 14.446 11.0123 14.3526 10.83C13.6494 9.45696 13.2524 7.9008 13.2524 6.25C13.2524 3.35051 10.9019 1 8.00241 1ZM6.29558 12.3254C6.86037 12.3583 7.42947 12.375 8.00241 12.375C8.57538 12.375 9.1445 12.3583 9.70931 12.3254C9.53285 13.1052 8.83565 13.6875 8.00244 13.6875C7.16924 13.6875 6.47204 13.1052 6.29558 12.3254Z" fill="black"/>
</svg>
