<svg xmlns="http://www.w3.org/2000/svg" width="16" height="16" fill="none" viewBox="0 0 16 16">
    <path d="M14.402 1.598a2.04 2.04 0 0 0-2.887 0L6.543 6.57a3.2 3.2 0 0 0-.696 1.04l-.989 2.388a.875.875 0 0 0 1.144 1.144l2.387-.99a3.2 3.2 0 0 0 1.041-.695l4.972-4.972a2.04 2.04 0 0 0 0-2.887"/>
    <path d="M4.208 2.75c-.805 0-1.458.653-1.458 1.458v7.584c0 .805.653 1.458 1.458 1.458h7.584c.805 0 1.458-.653 1.458-1.458V9.167a.875.875 0 1 1 1.75 0v2.625A3.21 3.21 0 0 1 11.792 15H4.208A3.21 3.21 0 0 1 1 11.792V4.208A3.21 3.21 0 0 1 4.208 1h2.625a.875.875 0 1 1 0 1.75z"/>
</svg>
