<svg xmlns="http://www.w3.org/2000/svg">
    <path fill-rule="evenodd" d="M7.413 1.143a.52.52 0 0 1 .717 0A7.8 7.8 0 0 0 13.6 3.28a.52.52 0 0 1 .502.359 8.86 8.86 0 0 1-6.2 11.344.5.5 0 0 1-.26 0 8.86 8.86 0 0 1-6.2-11.344.52.52 0 0 1 .5-.359l.1.001a7.8 7.8 0 0 0 5.371-2.14m.359 8.529c-1.405 0-2.658.66-3.473 1.692.347 1.12 2.115 2.162 3.473 2.162s2.778-1.042 3.472-2.162A4.42 4.42 0 0 0 7.772 9.67m0-1.355c1.228 0 2.224-1.01 2.224-2.257S9 3.803 7.772 3.803 5.547 4.813 5.547 6.06s.996 2.257 2.225 2.257" clip-rule="evenodd"/>
</svg>
