<svg xmlns="http://www.w3.org/2000/svg">
    <path fill-rule="evenodd" d="M6.333 4.478A4 4 0 0 0 1 8.25c0 .414.336.75.75.75h3.322A12.8 12.8 0 0 0 7 10.928v3.322c0 .414.336.75.75.75a4 4 0 0 0 3.772-5.333A10.72 10.72 0 0 0 15 1.75a.75.75 0 0 0-.75-.75 10.72 10.72 0 0 0-7.917 3.478M12 5.5a1.5 1.5 0 1 1-3 0 1.5 1.5 0 0 1 3 0" clip-rule="evenodd"/>
    <path d="M3.902 10.682a.75.75 0 1 0-1.313-.725 4.76 4.76 0 0 0-.469 3.36.75.75 0 0 0 .564.563 4.76 4.76 0 0 0 3.359-.47.75.75 0 1 0-.725-1.312 3.23 3.23 0 0 1-1.81.393 3.23 3.23 0 0 1 .394-1.81"/>
</svg>
