<svg width="16" height="16" viewBox="0 0 16 16" fill="none" xmlns="http://www.w3.org/2000/svg">
<path d="M1.94507 2.00973C1.65385 1.96448 1.36078 2.07913 1.17756 2.30996C0.99435 2.5408 0.949239 2.85225 1.05943 3.12559L2.51452 6.73513C2.68113 7.14841 3.08205 7.41906 3.52765 7.41906H7.8229C8.27536 7.41906 8.64216 7.78586 8.64216 8.23832C8.64216 8.69079 8.27536 9.05758 7.8229 9.05758H3.52793C3.08233 9.05758 2.68141 9.32824 2.5148 9.74151L1.05943 13.3518C0.949239 13.6251 0.99435 13.9365 1.17756 14.1674C1.36078 14.3982 1.65385 14.5129 1.94507 14.4676C6.71444 13.7265 11.0752 11.7514 14.6903 8.88021C14.8859 8.72479 15 8.48856 15 8.23867C15 7.98878 14.8859 7.75255 14.6903 7.59713C11.0752 4.72593 6.71444 2.75086 1.94507 2.00973Z" fill="black"/>
</svg>
