<svg xmlns="http://www.w3.org/2000/svg">
    <path fill-rule="evenodd" d="M6.108 1.45A.5.5 0 0 1 6.606 1H8.7a.5.5 0 0 1 .497.45l.186 1.858a5 5 0 0 1 1.467.848l1.702-.769a.5.5 0 0 1 .639.206l1.047 1.814a.5.5 0 0 1-.14.656l-1.517 1.09a5 5 0 0 1 0 1.694l1.516 1.09a.5.5 0 0 1 .141.656l-1.047 1.814a.5.5 0 0 1-.639.206l-1.703-.768c-.433.36-.928.649-1.466.847l-.186 1.858A.5.5 0 0 1 8.7 15H6.606a.5.5 0 0 1-.498-.45l-.185-1.858a5 5 0 0 1-1.467-.848l-1.703.769a.5.5 0 0 1-.638-.206l-1.048-1.814a.5.5 0 0 1 .141-.656l1.517-1.09a5 5 0 0 1 0-1.694l-1.517-1.09a.5.5 0 0 1-.141-.656l1.048-1.814a.5.5 0 0 1 .638-.206l1.703.769c.433-.36.928-.65 1.467-.848zm-.177 7.567-.022-.037a2 2 0 0 1 3.466-1.997l.022.037a2 2 0 0 1-3.466 1.997" clip-rule="evenodd"/>
</svg>
