<svg xmlns="http://www.w3.org/2000/svg" width="16" height="16" fill="none" viewBox="0 0 16 16">
    <path d="M6.976 1.208a.816.816 0 0 1 1.087 0 9.74 9.74 0 0 0 5.26 2.41.815.815 0 0 1 .71.78q.006.194.006.387c0 4.402-2.494 8.221-6.143 10.123a.82.82 0 0 1-.753 0 11.41 11.41 0 0 1-6.136-10.51.814.814 0 0 1 .71-.78 9.74 9.74 0 0 0 5.259-2.41m3.492 4.836a.816.816 0 0 0-1.145.138L6.861 9.317 5.605 8.24a.815.815 0 0 0-1.061 1.238l1.902 1.63a.814.814 0 0 0 1.171-.115l2.988-3.804a.816.816 0 0 0-.137-1.145"/>
</svg>
