<svg xmlns="http://www.w3.org/2000/svg" width="16" height="16" fill="none" viewBox="0 0 16 16">
    <path fill="#000" fill-rule="evenodd" d="M5 4C5.362 4 5.673 4.259 5.738 4.616L5.99 6.004C6.083 6.516 6.484 6.917 6.996 7.01L8.384 7.262C8.741 7.327 9 7.638 9 8 9 8.362 8.741 8.673 8.384 8.738L6.996 8.99C6.484 9.083 6.083 9.484 5.99 9.996L5.738 11.384C5.673 11.741 5.362 12 5 12 4.638 12 4.327 11.741 4.262 11.384L4.01 9.996C3.917 9.484 3.516 9.083 3.004 8.99L1.616 8.738C1.259 8.673 1 8.362 1 8 1 7.638 1.259 7.327 1.616 7.262L3.004 7.01C3.516 6.917 3.917 6.516 4.01 6.004L4.262 4.616C4.327 4.259 4.638 4 5 4ZM12 1C12.335 1 12.629 1.222 12.721 1.544L12.916 2.226C13.035 2.641 13.359 2.965 13.774 3.084L14.456 3.279C14.778 3.371 15 3.665 15 4 15 4.335 14.778 4.629 14.456 4.721L13.774 4.916C13.359 5.035 13.035 5.359 12.916 5.774L12.721 6.456C12.629 6.778 12.335 7 12 7 11.665 7 11.371 6.778 11.279 6.456L11.084 5.774C10.966 5.359 10.641 5.035 10.226 4.916L9.544 4.721C9.222 4.629 9 4.335 9 4 9 3.665 9.222 3.371 9.544 3.279L10.226 3.084C10.641 2.965 10.966 2.641 11.084 2.226L11.279 1.544C11.371 1.222 11.665 1 12 1ZM10 11C10.344 11 10.644 11.234 10.728 11.568 10.814 11.915 11.085 12.186 11.432 12.272 11.766 12.356 12 12.656 12 13 12 13.344 11.766 13.644 11.432 13.728 11.085 13.814 10.814 14.085 10.728 14.432 10.644 14.766 10.344 15 10 15 9.656 15 9.356 14.766 9.272 14.432 9.186 14.085 8.915 13.814 8.568 13.728 8.234 13.644 8 13.344 8 13 8 12.656 8.234 12.356 8.568 12.272 8.915 12.186 9.186 11.915 9.272 11.568 9.356 11.234 9.656 11 10 11Z" clip-rule="evenodd"/>
</svg>
