<svg xmlns="http://www.w3.org/2000/svg" width="16" height="16" fill="none" viewBox="0 0 16 16">
    <path d="M5 4a.75.75 0 0 1 .738.616l.252 1.388A1.25 1.25 0 0 0 6.996 7.01l1.388.252a.75.75 0 0 1 0 1.476l-1.388.252A1.25 1.25 0 0 0 5.99 9.996l-.252 1.388a.75.75 0 0 1-1.476 0L4.01 9.996A1.25 1.25 0 0 0 3.004 8.99l-1.388-.252a.75.75 0 0 1 0-1.476l1.388-.252A1.25 1.25 0 0 0 4.01 6.004l.252-1.388A.75.75 0 0 1 5 4m7-3a.75.75 0 0 1 .721.544l.195.682c.118.415.443.74.858.858l.682.195a.75.75 0 0 1 0 1.442l-.682.195a1.25 1.25 0 0 0-.858.858l-.195.682a.75.75 0 0 1-1.442 0l-.195-.682a1.25 1.25 0 0 0-.858-.858l-.682-.195a.75.75 0 0 1 0-1.442l.682-.195a1.25 1.25 0 0 0 .858-.858l.195-.682A.75.75 0 0 1 12 1m-2 10a.75.75 0 0 1 .728.568.97.97 0 0 0 .704.704.75.75 0 0 1 0 1.456.97.97 0 0 0-.704.704.75.75 0 0 1-1.456 0 .97.97 0 0 0-.704-.704.75.75 0 0 1 0-1.456.97.97 0 0 0 .704-.704A.75.75 0 0 1 10 11" clip-rule="evenodd"/>
</svg>
