<svg xmlns="http://www.w3.org/2000/svg" width="16" height="16" fill="none" viewBox="0 0 16 16">
    <path d="M8 1a.75.75 0 0 1 .75.75v1.5a.75.75 0 0 1-1.5 0v-1.5A.75.75 0 0 1 8 1m2.5 7a2.5 2.5 0 1 1-5 0 2.5 2.5 0 0 1 5 0m2.45-3.89a.75.75 0 1 0-1.06-1.06l-1.062 1.06a.75.75 0 0 0 1.061 1.062zM15 8a.75.75 0 0 1-.75.75h-1.5a.75.75 0 0 1 0-1.5h1.5A.75.75 0 0 1 15 8m-3.11 4.95a.75.75 0 0 0 1.06-1.06l-1.06-1.062a.75.75 0 0 0-1.062 1.061zM8 12a.75.75 0 0 1 .75.75v1.5a.75.75 0 0 1-1.5 0v-1.5A.75.75 0 0 1 8 12m-2.828-.11a.75.75 0 0 0-1.061-1.062L3.05 11.89a.75.75 0 1 0 1.06 1.06zM4 8a.75.75 0 0 1-.75.75h-1.5a.75.75 0 0 1 0-1.5h1.5A.75.75 0 0 1 4 8m.11-2.828A.75.75 0 0 0 5.173 4.11L4.11 3.05a.75.75 0 1 0-1.06 1.06z"/>
</svg>
