<svg xmlns="http://www.w3.org/2000/svg" width="16" height="16" fill="none" viewBox="0 0 16 16">
    <path fill="#000" d="M8 1C8.414 1 8.75 1.336 8.75 1.75V3.25C8.75 3.664 8.414 4 8 4 7.586 4 7.25 3.664 7.25 3.25V1.75C7.25 1.336 7.586 1 8 1ZM10.5 8C10.5 9.381 9.381 10.5 8 10.5 6.619 10.5 5.5 9.381 5.5 8 5.5 6.619 6.619 5.5 8 5.5 9.381 5.5 10.5 6.619 10.5 8ZM12.95 4.111C13.243 3.818 13.243 3.343 12.95 3.05 12.657 2.757 12.182 2.757 11.889 3.05L10.828 4.111C10.536 4.404 10.536 4.879 10.828 5.172 11.121 5.464 11.596 5.464 11.889 5.172L12.95 4.111ZM15 8C15 8.414 14.664 8.75 14.25 8.75H12.75C12.336 8.75 12 8.414 12 8 12 7.586 12.336 7.25 12.75 7.25H14.25C14.664 7.25 15 7.586 15 8ZM11.889 12.95C12.182 13.243 12.657 13.243 12.95 12.95 13.243 12.657 13.243 12.182 12.95 11.889L11.889 10.828C11.596 10.536 11.121 10.536 10.829 10.828 10.536 11.121 10.536 11.596 10.829 11.889L11.889 12.95ZM8 12C8.414 12 8.75 12.336 8.75 12.75V14.25C8.75 14.664 8.414 15 8 15 7.586 15 7.25 14.664 7.25 14.25V12.75C7.25 12.336 7.586 12 8 12ZM5.172 11.889C5.464 11.596 5.464 11.121 5.172 10.828 4.879 10.536 4.404 10.536 4.111 10.828L3.05 11.889C2.757 12.182 2.757 12.657 3.05 12.95 3.343 13.243 3.818 13.243 4.111 12.95L5.172 11.889ZM4 8C4 8.414 3.664 8.75 3.25 8.75H1.75C1.336 8.75 1 8.414 1 8 1 7.586 1.336 7.25 1.75 7.25H3.25C3.664 7.25 4 7.586 4 8ZM4.111 5.172C4.404 5.464 4.879 5.464 5.172 5.172 5.464 4.879 5.464 4.404 5.172 4.111L4.111 3.05C3.818 2.757 3.343 2.757 3.05 3.05 2.757 3.343 2.757 3.818 3.05 4.111L4.111 5.172Z"/>
</svg>
