<svg xmlns="http://www.w3.org/2000/svg" width="16" height="16" fill="none" viewBox="0 0 16 16">
    <path d="M2 15a1 1 0 0 0 1-1V8a1 1 0 1 0-2 0v6a1 1 0 0 0 1 1m3.675-2H4V8c.663 0 1.219-.466 1.557-1.037a4 4 0 0 1 1.357-1.377c.478-.292.907-.706.989-1.26V4.32a9 9 0 0 0 0-2.642c-.028-.194.048-.394.224-.479A2 2 0 0 1 11 3q-.002 1.22-.234 2.371a.52.52 0 0 0 .5.629H13c1.104 0 2.01.898 1.901 1.997a20 20 0 0 1-1.081 4.787c-.27.748-.998 1.216-1.793 1.216H9.324q-.324 0-.632-.103l-2.384-.794A2 2 0 0 0 5.675 13"/>
</svg>
