<svg xmlns="http://www.w3.org/2000/svg" width="16" height="16" fill="none" viewBox="0 0 16 16">
    <path fill="#000" d="M2 15C2.552 15 3 14.552 3 14L3 8C3 7.448 2.552 7 2 7 1.448 7 1 7.448 1 8L1 14C1 14.552 1.448 15 2 15ZM5.675 13H4L4 8C4.663 8 5.219 7.534 5.557 6.963 5.89 6.401 6.357 5.927 6.914 5.586 7.392 5.294 7.821 4.88 7.903 4.326L7.904 4.321C7.941 4.067 7.968 3.808 7.983 3.547 7.994 3.366 8 3.184 8 3 8 2.551 7.967 2.11 7.904 1.679 7.875 1.485 7.951 1.285 8.127 1.2 8.391 1.072 8.687 1 9 1 10.104 1 11 1.896 11 3 11 3.812 10.919 4.605 10.766 5.371 10.701 5.692 10.94 6 11.267 6L13 6C14.104 6 15.01 6.898 14.901 7.997 14.881 8.202 14.857 8.407 14.831 8.61 14.643 10.057 14.3 11.453 13.82 12.784 13.55 13.532 12.822 14 12.027 14H9.324C9.109 14 8.896 13.965 8.692 13.897L6.308 13.103C6.104 13.035 5.89 13 5.675 13Z"/>
</svg>
