<svg xmlns="http://www.w3.org/2000/svg" width="16" height="16" fill="none" viewBox="0 0 16 16">
    <path d="M10.295 2.006h1.686V7.04c-.667 0-1.227.47-1.567 1.043a4.05 4.05 0 0 1-1.367 1.386c-.48.295-.912.711-.994 1.269l-.001.004a9 9 0 0 0 0 2.66c.029.194-.048.396-.225.482a2.013 2.013 0 0 1-2.891-1.812q.001-1.227.235-2.387a.524.524 0 0 0-.504-.632H2.923c-1.112 0-2.024-.904-1.914-2.01q.03-.31.07-.618a20 20 0 0 1 1.018-4.2C2.37 1.47 3.102 1 3.902 1h2.72c.216 0 .431.035.636.103l2.4.8c.205.069.42.103.636.103M13.994 1c-.556 0-1.007.45-1.007 1.006v6.04a1.006 1.006 0 1 0 2.013 0v-6.04C15 1.451 14.55 1 13.993 1"/>
</svg>
