<svg xmlns="http://www.w3.org/2000/svg" width="16" height="16" fill="none" viewBox="0 0 16 16">
    <path fill="#000" d="M10.295 2.006H11.981V7.039C11.314 7.039 10.754 7.508 10.414 8.082 10.079 8.648 9.608 9.125 9.047 9.468 8.567 9.763 8.135 10.179 8.053 10.737L8.052 10.741C8.014 10.998 7.987 11.257 7.971 11.52 7.961 11.703 7.955 11.886 7.955 12.071 7.955 12.523 7.988 12.967 8.052 13.401 8.081 13.595 8.004 13.797 7.827 13.883 7.561 14.012 7.263 14.084 6.949 14.084 5.837 14.084 4.936 13.183 4.936 12.071 4.936 11.254 5.017 10.456 5.171 9.684 5.236 9.362 4.996 9.052 4.667 9.052H2.923C1.811 9.052.899 8.148 1.009 7.042 1.029 6.835 1.053 6.629 1.08 6.424 1.269 4.969 1.614 3.563 2.097 2.223 2.369 1.471 3.102 1 3.902 1H6.622C6.838 1 7.053 1.035 7.258 1.103L9.658 1.903C9.863 1.972 10.078 2.006 10.295 2.006ZM13.994 1C13.438 1 12.987 1.451 12.987 2.006V8.045C12.987 8.601 13.438 9.052 13.994 9.052 14.549 9.052 15 8.601 15 8.045V2.006C15 1.451 14.549 1 13.994 1Z"/>
</svg>
