<svg xmlns="http://www.w3.org/2000/svg" width="16" height="16" fill="none" viewBox="0 0 16 16">
    <path fill="#000" d="M2.558 1.224C2.26.925 1.776.925 1.478 1.224 1.18 1.522 1.18 2.005 1.478 2.304L1.843 2.668C1.874 2.691 1.904 2.717 1.932 2.745L13.785 14.598C14.084 14.817 14.506 14.792 14.776 14.522 15.075 14.224 15.075 13.74 14.776 13.442L11.191 9.857 12.826 8.221C13.349 7.699 13.349 6.851 12.826 6.329L9.671 3.174C9.149 2.651 8.301 2.651 7.779 3.174L6.143 4.809 2.558 1.224ZM9.639 12.611 3.389 6.361C2.756 6.452 2.132 6.648 1.548 6.951.862 7.306.836 8.217 1.382 8.764L3.678 11.06 1.785 12.954C1.436 13.302 1.436 13.867 1.785 14.216 2.133 14.564 2.698 14.564 3.046 14.216L4.94 12.322 7.236 14.618C7.783 15.164 8.693 15.138 9.049 14.452 9.352 13.868 9.548 13.244 9.639 12.611Z"/>
</svg>
