<svg xmlns="http://www.w3.org/2000/svg" width="16" height="16" fill="none" viewBox="0 0 16 16">
    <path d="M2.655 1.345a.75.75 0 0 0-1.06 1.06l.358.359q.046.033.087.074L13.682 14.48a.75.75 0 0 0 .973-1.135l-3.52-3.522 1.605-1.606a1.314 1.314 0 0 0 0-1.858L9.641 3.26a1.314 1.314 0 0 0-1.858 0L6.177 4.866zM9.61 12.529 3.47 6.39a5.7 5.7 0 0 0-1.808.579c-.674.349-.7 1.243-.163 1.78l2.255 2.255-1.86 1.86a.876.876 0 0 0 1.24 1.24l1.86-1.86L7.25 14.5c.536.536 1.431.51 1.78-.163.297-.574.49-1.186.58-1.808"/>
</svg>
