<svg xmlns="http://www.w3.org/2000/svg" width="16" height="16" fill="none" viewBox="0 0 16 16">
    <path d="M2.558 1.224a.764.764 0 0 0-1.08 1.08l.365.364a1 1 0 0 1 .089.077l11.853 11.853a.764.764 0 0 0 .991-1.156l-3.585-3.585 1.635-1.636a1.34 1.34 0 0 0 0-1.892L9.671 3.174a1.34 1.34 0 0 0-1.892 0L6.143 4.809zm7.081 11.387-6.25-6.25a5.8 5.8 0 0 0-1.841.59c-.686.355-.712 1.266-.166 1.813l2.296 2.296-1.893 1.894a.892.892 0 0 0 1.261 1.261l1.894-1.893 2.296 2.296c.547.546 1.457.52 1.813-.166.303-.585.5-1.208.59-1.84"/>
</svg>
