<svg xmlns="http://www.w3.org/2000/svg" width="16" height="16" fill="none" viewBox="0 0 16 16">
    <path fill="#727683" d="M3.714 4.571C2.768 4.571 2 5.339 2 6.286V9.714C2 10.661 2.768 11.428 3.714 11.428H8C8.947 11.428 9.714 10.661 9.714 9.714V6.286C9.714 5.339 8.947 4.571 8 4.571H3.714ZM14 5.214C14 4.954 13.843 4.72 13.603 4.62 13.363 4.521 13.086 4.576 12.903 4.76L11.188 6.474C11.068 6.594 11 6.758 11 6.928V9.071C11 9.242 11.068 9.405 11.188 9.526L12.903 11.24C13.086 11.424 13.363 11.479 13.603 11.38 13.843 11.28 14 11.046 14 10.786V5.214Z"/>
</svg>
