<svg xmlns="http://www.w3.org/2000/svg" width="16" height="16" fill="none" viewBox="0 0 16 16">
    <path d="M11.495 2.528a.186.186 0 0 1 .108.333l-1.05.806a.19.19 0 0 0-.066.2l.377 1.27a.186.186 0 0 1-.283.206l-1.09-.75a.19.19 0 0 0-.212 0l-1.09.75a.186.186 0 0 1-.284-.206l.377-1.27a.19.19 0 0 0-.065-.2l-1.05-.806a.186.186 0 0 1 .107-.333L8.6 2.491a.19.19 0 0 0 .17-.124l.44-1.243a.186.186 0 0 1 .35 0L10 2.367a.19.19 0 0 0 .17.124zm2.163 4.284a.186.186 0 0 1 .108.334l-.493.376a.19.19 0 0 0-.065.2l.178.6a.186.186 0 0 1-.283.206l-.514-.354a.19.19 0 0 0-.211 0l-.514.354a.186.186 0 0 1-.284-.206l.179-.6a.19.19 0 0 0-.066-.2l-.493-.376a.186.186 0 0 1 .108-.334l.62-.015a.19.19 0 0 0 .17-.124l.21-.592a.186.186 0 0 1 .35 0l.21.592a.19.19 0 0 0 .17.124z"/>
    <path d="M5.824 3.105c.17.136.246.36.192.573q-.157.617-.159 1.283a5.205 5.205 0 0 0 7.565 4.641.558.558 0 0 1 .794.634 6.321 6.321 0 1 1-8.993-7.193.56.56 0 0 1 .6.062" clip-rule="evenodd"/>
</svg>
