<svg xmlns="http://www.w3.org/2000/svg">
    <path d="M11.728 2.528a.186.186 0 0 1 .108.333l-1.05.806a.19.19 0 0 0-.066.2l.377 1.27a.186.186 0 0 1-.283.206l-1.091-.75a.19.19 0 0 0-.21 0l-1.092.75a.186.186 0 0 1-.283-.206l.377-1.27a.19.19 0 0 0-.065-.2L7.4 2.861a.186.186 0 0 1 .107-.333l1.326-.037a.19.19 0 0 0 .17-.124l.44-1.243a.186.186 0 0 1 .35 0l.439 1.243a.19.19 0 0 0 .17.124zm2.163 4.284a.186.186 0 0 1 .108.334l-.493.376a.19.19 0 0 0-.065.2l.178.6a.186.186 0 0 1-.283.206l-.514-.354a.19.19 0 0 0-.211 0l-.514.354a.186.186 0 0 1-.284-.206l.179-.6a.19.19 0 0 0-.066-.2l-.493-.376a.186.186 0 0 1 .108-.334l.62-.015a.19.19 0 0 0 .17-.124l.21-.592a.186.186 0 0 1 .35 0l.21.592a.19.19 0 0 0 .17.124z"/>
    <path d="M6.057 3.105c.17.136.246.36.192.573q-.157.617-.159 1.283a5.205 5.205 0 0 0 7.565 4.641.558.558 0 0 1 .793.634 6.321 6.321 0 1 1-8.993-7.193.56.56 0 0 1 .602.062"/>
</svg>
