<svg viewBox="0 0 32 32" xmlns="http://www.w3.org/2000/svg"><g fill="none" fill-rule="evenodd"><path d="M18.592.849l11.59 8.488a4.464 4.464 0 011.602 4.969L27.357 28.04a4.413 4.413 0 01-4.194 3.071H8.837a4.413 4.413 0 01-4.194-3.07L.216 14.305a4.464 4.464 0 011.602-4.97L13.408.85a4.381 4.381 0 015.184 0z" fill="#EEF"/><g fill-rule="nonzero"><path d="M7.345 19.765a9.105 9.105 0 005.87 5.883l-.154 1a10.106 10.106 0 01-6.717-6.734l1.001-.15zm17.293.053l.998.161a10.106 10.106 0 01-6.697 6.67l-.154-1a9.106 9.106 0 005.853-5.83zM13.04 7.358l.158 1a9.106 9.106 0 00-5.853 5.877l-1-.15a10.106 10.106 0 016.695-6.727zm5.92 0a10.106 10.106 0 016.676 6.663l-.998.16a9.106 9.106 0 00-5.836-5.824l.158-.999z" fill="#4F0599"/><path d="M13.422 21.007l.988.152-.783 5.097.067.01a17.2 17.2 0 001.718.141l.588.01c.788 0 1.561-.051 2.306-.15l.066-.011-.783-5.097.989-.151.86 5.592a.5.5 0 01-.412.569 18.17 18.17 0 01-3.026.248 18.17 18.17 0 01-3.027-.248.5.5 0 01-.416-.48l.006-.09.859-5.592zm12.747-7.075c.164.981.248 2.012.248 3.068s-.084 2.087-.248 3.068a.5.5 0 01-.483.418l-.09-.007-5.592-.902.16-.987 5.091.821.011-.07c.075-.566.122-1.15.141-1.743l.01-.598c0-.8-.051-1.586-.15-2.342l-.012-.07-5.092.822-.16-.988 5.593-.902a.5.5 0 01.573.412zm-19.86-.349l.089.005 5.592.834-.147.989-5.1-.761-.01.065a16.897 16.897 0 00-.14 1.703l-.01.582c0 .78.051 1.546.15 2.285l.01.063 5.1-.759.147.989-5.592.834a.5.5 0 01-.567-.41A17.903 17.903 0 015.583 17c0-1.032.084-2.04.248-3.001a.5.5 0 01.478-.416zm9.691-7c1.049 0 2.073.084 3.048.248a.5.5 0 01.417.482l-.006.09-.882 5.591-.987-.155.802-5.096-.068-.01a17.457 17.457 0 00-1.731-.14L16 7.583c-.795 0-1.574.051-2.324.15l-.07.01.804 5.096-.988.156-.88-5.593a.5.5 0 01.41-.57c.975-.165 2-.249 3.048-.249z" fill="#AE5CFF"/><path d="M16 11.917a5.083 5.083 0 100 10.166 5.083 5.083 0 000-10.166zm0 1a4.083 4.083 0 110 8.166 4.083 4.083 0 010-8.166z" fill="#4F0599"/></g></g></svg>