<svg xmlns="http://www.w3.org/2000/svg" width="550" height="550" fill="none" viewBox="0 0 550 550">
    <path fill="#fff" d="M95.21 151.067c.695.053 2.067.034 3.382.292 1.702.335 2.812-.14 3.88-1.565 6.441-8.569 12.984-17.062 19.486-25.586 13.361-17.522 26.695-35.059 40.102-52.542 1.383-1.802 1.744-3.265.706-5.472-4.902-10.45-2.131-22.534 6.802-29.762 9.219-7.456 21.968-7.228 30.739-.281 8.671 6.866 11.069 15.937 8.759 26.482-.51 2.333-.567 2.394 1.512 3.591 18.787 10.853 37.571 21.706 56.358 32.55 22.807 13.168 45.615 26.327 68.426 39.49 2.136 1.235 2.163 1.22 4.059-.63 6.513-6.358 14.307-9.094 23.18-6.973 9.458 2.257 16.093 8.075 18.502 17.787 2.694 10.865-.6 19.772-9.451 26.623-2.048 1.589-2.044 1.615-1.162 3.983 6 16.142 11.989 32.288 17.996 48.427 6.654 17.879 13.338 35.746 19.988 53.625 4.944 13.293 9.85 26.6 14.782 39.897 3.23 8.705 6.468 17.407 9.713 26.109.87 2.337 1.011 2.474 3.523 2.235 7.82-.745 14.561 1.831 20.136 7.094 3.602 3.401 5.841 7.813 6.779 12.784 3.052 16.153-9.051 29.613-24.495 29.67-1.588.004-3.195-.277-4.761-.597-1.607-.326-2.687.126-3.69 1.452-6.247 8.288-12.566 16.522-18.859 24.776-9.774 12.825-19.547 25.65-29.317 38.475-3.785 4.97-7.517 9.979-11.381 14.888-1.159 1.471-1.292 2.66-.407 4.332 2.679 5.058 3.808 10.466 2.767 16.158-1.239 6.779-4.633 12.274-10.344 16.192-7.216 4.947-15.067 5.882-23.146 2.679-7.452-2.957-12.612-8.299-14.71-16.238-.429-1.622-.817-3.294-.908-4.962-.095-1.767-.969-2.774-2.379-3.58-4.693-2.679-9.37-5.377-14.052-8.079-14.182-8.189-28.356-16.389-42.541-24.574-11.696-6.753-23.404-13.487-35.104-20.239-12.502-7.213-25.027-14.391-37.48-21.694-2.063-1.209-3.747-1.258-5.882-.236-13.57 6.49-30.514-1.805-33.991-16.367-1.858-7.771-.392-14.713 4.18-21.093.938-1.311.756-2.497.266-3.808-2.387-6.407-4.769-12.817-7.159-19.224-4.275-11.472-8.558-22.937-12.833-34.409-6.099-16.374-12.206-32.749-18.293-49.13-5.765-15.512-11.507-31.027-17.264-46.539-3.024-8.151-6.095-16.287-9.078-24.453-.524-1.433-1.36-2.17-2.83-2.508-14.125-3.238-21.843-16.427-19.046-29.686 2.314-10.974 12.258-19.129 24.521-19.357zm231.276 167.42c-.194 1.159-.339 1.725-.373 2.299-.308 5.225-.509 10.461-.916 15.679-.425 5.46-.041 10.993-1.497 16.363-.125.463.004 1.003.031 1.504.091 1.847.323 3.702.258 5.545-.133 3.712-.395 7.421-.654 11.126-.467 6.684-3.351 11.928-9.253 15.352-.801.467-1.565.999-2.356 1.486-2.264 1.394-2.302 1.406-1.349 3.986 3.724 10.055 7.483 20.094 11.214 30.145 5.731 15.432 11.45 30.868 17.176 46.303.908 2.448.943 2.524 3.477 1.878 5.419-1.38 10.697-.958 15.922.934 1.22.441 2.295 2.007 3.656 1.163 1.087-.672 1.82-1.949 2.633-3.017 9.941-13.015 19.87-26.041 29.8-39.068 8.907-11.681 17.818-23.362 26.714-35.055.543-.71.976-1.505 1.482-2.287-.646-.768-1.121-1.353-1.619-1.916-4.83-5.46-7.171-11.791-6.433-19.091.205-2.033-.582-3.063-2.242-4.009-8.516-4.833-16.979-9.762-25.46-14.66-18.643-10.769-37.278-21.539-55.925-32.304-1.292-.745-2.611-1.436-4.294-2.36zm-22.603-90.733c1.148.745 1.915 1.247 2.683 1.745 3.321 2.169 6.703 4.252 9.952 6.524 4.013 2.808 7.889 5.81 10.994 9.671 1.706 2.121 2.576 4.427 2.321 7.251-.372 4.119-.475 8.261-.687 12.391-.171 3.337-.616 6.628-.635 10.01-.057 9.53-.657 19.064-1.269 28.579-.137 2.147.528 3.242 2.261 4.237 12.673 7.262 25.315 14.57 37.958 21.885 11.544 6.68 23.074 13.387 34.614 20.079 4.895 2.838 9.789 5.673 14.699 8.478 1.744.995 1.812.938 3.237-.483 1.015-1.011 2.007-2.052 3.086-2.994.881-.768 1.163-1.615.79-2.698a88.603 88.603 0 0 0-.76-2.151c-5.126-13.768-10.256-27.531-15.378-41.295-8.657-23.263-17.309-46.527-25.958-69.791-7.061-18.992-14.117-37.984-21.178-56.977-.934-2.515-.942-2.557-3.629-2.542-3.883.019-7.512-.916-10.944-2.706-2.527-1.318-2.69-1.265-4.366.931-11.723 15.371-23.45 30.742-35.165 46.121-.851 1.121-1.619 2.303-2.626 3.739zm-109.227 2.337c.22-1.147.407-1.782.452-2.432.156-2.188.232-4.381.395-6.57.498-6.635 3.261-12.042 9.079-15.477 5.806-3.428 11.65-6.886 18.517-7.862 1.402-.202 2.17-1.076 2.033-2.432-.186-1.824-.338-3.724-.958-5.427-4.229-11.658-8.569-23.279-12.889-34.907-6.939-18.665-13.889-37.327-20.839-55.989-2.033-5.457-4.093-10.902-6.088-16.37-.517-1.421-1.33-2.018-2.88-2.349-2.611-.558-5.172-1.478-7.638-2.519-2.554-1.075-2.493-1.22-4.131.935-3.42 4.495-6.836 8.994-10.26 13.486-15.5 20.33-31.008 40.656-46.501 60.994-.71.935-1.626 1.858-1.911 2.93-.38 1.432 1.341 1.729 2.052 2.599 5.909 7.273 8.299 15.321 5.544 24.563-.775 2.603-.729 2.652 1.535 3.963 8.174 4.739 16.367 9.455 24.548 14.182 15.634 9.033 31.267 18.073 46.904 27.102.855.494 1.755.912 3.044 1.577zm131.997 50.955c-1.608 1.531-2.691 2.823-4.013 3.773-4.4 3.165-9.158 5.723-14.182 7.767-4.446 1.809-9.215 1.957-13.877 2.683-4.955.771-9.759.277-14.528-1.056-8.747-2.451-17.035-6.08-24.939-10.458-13.216-7.319-26.307-14.869-39.33-22.534-6.768-3.982-13.22-8.482-18.605-14.318-.235-.259-.661-.342-1.193-.605-.114 1.072-.236 1.897-.285 2.725-.589 10.199-1.189 20.398-1.74 30.598-.597 11.046-.977 22.104-1.798 33.132-.334 4.491 1.068 7.801 4.256 10.78 5.282 4.925 11.165 9.018 17.332 12.692 8.987 5.358 18.046 10.602 27.132 15.793 9.09 5.199 18.308 10.146 28.135 13.855 7.167 2.706 14.353 4.302 22.238 3.466 9.393-.996 17.613-4.37 25.281-9.535 3.91-2.633 5.848-6.589 6.202-11.118.756-9.679 1.201-19.38 1.839-29.067.095-1.417-.498-2.139-1.607-2.831-1.129-.703-2.033-.592-2.976.232a6.931 6.931 0 0 1-1.026.741c-2.496 1.49-5.05 1.782-7.683.357-2.839-1.535-4.864-3.587-4.796-7.117.053-2.789 1.102-5.221 2.5-7.535 2.216-3.664 4.872-6.814 9.06-8.436 1.668-.646 3.066-.605 4.575.186.866.456 1.778.817 3.085 1.41l.931-15.588zm-159.885 90.873c.433.026.623.091.767.038 4.108-1.513 8.338-2.086 12.692-1.57 1.148.137 1.957-.342 2.615-1.2.669-.871 1.311-1.76 1.98-2.63 3.378-4.427 6.771-8.85 10.142-13.285 1.406-1.85 1.375-1.987-.213-3.568-.836-.832-1.68-1.664-2.485-2.523-1.972-2.098-3.432-4.507-3.219-7.463.46-6.381.08-12.841 1.672-19.126.141-.551.072-1.166.046-1.748-.088-1.85-.357-3.705-.278-5.544.342-7.76.776-15.512 1.201-23.267.832-15.174 1.665-30.343 2.55-45.513.103-1.756-.505-2.835-2.01-3.686-5.658-3.196-11.271-6.468-16.899-9.717-15.713-9.07-31.426-18.141-47.143-27.211-4.75-2.744-9.519-5.453-14.242-8.246-1.554-.92-2.823-1.026-4.37.159-1.52 1.163-3.298 2.01-5.016 2.888-1.854.95-1.991 1.087-1.265 3.116 1.254 3.496 2.553 6.973 3.853 10.454 4.244 11.385 8.508 22.766 12.745 34.158 5.328 14.315 10.636 28.633 15.96 42.952 4.822 12.973 9.667 25.938 14.486 38.912 5.111 13.763 10.203 27.538 15.317 41.302.316.843.779 1.63 1.118 2.325zm25.011 2.804c.278.585.316.772.426.882.418.414.855.809 1.292 1.208 5.225 4.75 7.79 10.747 7.999 17.716.125 4.18-.809 8.2-2.77 11.951-1.125 2.154-1.057 2.287 1.052 3.545.217.129.441.247.662.373 9.644 5.57 19.292 11.134 28.933 16.708 14.166 8.189 28.329 16.382 42.499 24.567 14.467 8.356 28.937 16.709 43.404 25.057 3.07 1.771 6.125 3.565 9.218 5.298 1.76.984 1.984.896 3.082-.696.623-.904 1.106-1.938 1.862-2.705 1.273-1.292 1.22-2.55.616-4.142-2.9-7.654-5.693-15.349-8.543-23.021-6.847-18.43-13.706-36.852-20.554-55.282-1.041-2.797-1.197-2.911-4.02-2.383-.414.08-.821.213-1.239.251-4.697.441-9.386 1.121-14.09 1.224-4.963.106-9.599-1.718-14.178-3.47-7.342-2.808-14.379-6.277-21.246-10.093-13.201-7.334-26.41-14.649-39.144-22.784-2.105-1.346-2.337-1.327-3.899.71-2.823 3.686-5.616 7.391-8.413 11.092-1.007 1.334-1.987 2.691-2.949 3.99zm112.644-166.349.79.434c.319-.483.608-.988.958-1.448 9.359-12.286 18.7-24.586 28.124-36.822 1.295-1.68 1.485-3.029.592-5.012-2.071-4.595-3.252-9.417-2.071-14.516.342-1.479-.243-2.36-1.523-3.078-3.314-1.855-6.567-3.819-9.858-5.716-17.107-9.868-34.222-19.722-51.322-29.598-19.662-11.354-39.308-22.728-58.965-34.09a1095.673 1095.673 0 0 0-7.026-4.031c-.836-.475-1.589-.726-2.554-.03a74.867 74.867 0 0 1-5.924 3.856c-1.087.642-1.395 1.357-.901 2.49.236.539.396 1.113.601 1.667 4.507 12.1 9.025 24.199 13.524 36.302 5.616 15.109 11.214 30.225 16.838 45.334.178.479.52.897 1.022 1.736.289-1.105.483-1.732.616-2.367 1.181-5.654 3.632-10.598 7.607-14.888 7.023-7.585 15.782-9.44 25.434-7.68 7.364 1.341 13.661 5.248 19.429 9.91 6.038 4.879 10.872 10.807 14.831 17.469 6.939 11.681 10.675 24.183 9.785 37.886-.045.729-.007 1.463-.007 2.196zm-17.469 62.647c.346-.083.741-.243 1.144-.27 2.69-.174 5.396-.212 8.071-.501 5.89-.635 11.727-1.551 16.994-4.549 2.272-1.292 4.541-2.595 6.851-3.826 3.625-1.931 5.829-4.982 7.277-8.74.878-2.284.604-4.363-.904-6.175-1.399-1.68-2.926-3.284-4.568-4.72-5.103-4.461-10.796-8.094-16.583-11.59-.395-.239-.882-.323-1.36-.49-.532 1.052-.278 1.744.497 2.329 1.27.962 2.558 1.896 3.781 2.911 1.878 1.554 2.679 3.735 2.729 6.031.061 2.861-.164 5.745-.502 8.588-.224 1.9-.608 3.868-2.147 5.274-1.873 1.714-3.933 2.991-6.407 3.876-2.971 1.06-5.966 1.129-8.971 1.205-4.348.106-8.573-.897-12.415-2.892-1.873-.973-3.637-2.501-4.91-4.184-1.406-1.862-2.055-4.172-1.66-6.696.327-2.074.178-4.221.463-6.308.263-1.9.517-3.963 2.052-5.301 1.505-1.314 3.219-2.424 4.952-3.423.817-.472 1.353-.878 1.402-1.851.171-3.371.365-6.741.57-10.112.076-1.239-.429-2.048-1.535-2.637-2.238-1.182-4.416-2.478-6.639-3.69-7.486-4.085-14.995-8.12-22.978-11.176-.498-.19-1.045-.254-2.098-.501 2.447 3.177 2.991 6.304 2.459 9.697-.221 1.414-.232 2.862-.285 4.294-.183 4.671-2.664 7.654-6.844 9.398-4.716 1.964-9.607 2.299-14.634 1.653-4.275-.551-8.136-2.01-11.567-4.663-2.561-1.98-3.66-4.59-3.508-7.71.217-4.416.027-8.911 2.288-13.258-.661.099-1.011.068-1.273.205-4.18 2.193-8.478 4.203-12.491 6.673-4.225 2.599-6.144 6.969-6.817 11.651-.646 4.495-.566 9.093-.9 13.638-.179 2.443.733 4.465 2.15 6.3.821 1.064 1.722 2.121 2.774 2.938 4.123 3.207 8.144 6.596 12.533 9.405 7.243 4.636 14.691 8.968 22.146 13.262 11.769 6.783 23.568 13.482 36.169 18.718 9.534 3.96 19.144 4.91 29.229 3.044 7.513-1.387 13.965-4.951 20.125-9.139 3.557-2.417 4.951-6.334 5.647-10.389.425-2.481.38-5.046.509-7.573.027-.517-.114-1.045-.255-2.208-2.565 3.982-6.034 5.905-9.496 7.839-1.402.783-2.766 1.661-4.244 2.261-3.04 1.228-6.073 2.637-9.246 3.344-4.104.912-8.337 1.258-12.528 1.744-1.327.156-2.698.038-4.04-.06-.878-.065-1.429-.525-1.003-1.634zM93.937 201.28c.51 1.489.836 2.515 1.212 3.526 4.416 11.868 8.847 23.731 13.255 35.602 5.817 15.668 11.605 31.35 17.43 47.014 6.061 16.298 12.156 32.585 18.221 48.883 4.887 13.133 9.743 26.277 14.653 39.402.361.969 1.056 1.817 1.737 2.953-.422.532-.985 1.243-1.555 1.949-.573.719-1.25 1.372-1.717 2.155-3.443 5.784-4.363 11.883-2.721 18.495 2.945 11.844 17.02 20.789 30.43 15.458.7-.277 1.513-.521 1.988-1.041.498-.544.65-1.402 1.037-2.33 4.556 2.619 9.082 5.214 13.604 7.817 4.534 2.611 9.063 5.233 13.593 7.855 4.453 2.58 8.903 5.168 13.361 7.744 4.529 2.618 9.063 5.229 13.6 7.836 4.533 2.606 9.078 5.202 13.611 7.816 4.53 2.615 9.048 5.256 13.578 7.878 4.529 2.622 9.063 5.232 13.596 7.843 4.461 2.569 8.93 5.13 13.388 7.706 4.529 2.618 9.025 5.305 13.588 7.859 4.511 2.527 8.839 5.403 13.753 7.691.437-1.714.744-3.09 1.147-4.435.711-2.386.756-2.417-1.326-3.625-8.618-4.993-17.244-9.971-25.878-14.942-12.358-7.117-24.73-14.215-37.084-21.34-8.041-4.64-16.055-9.329-24.092-13.977-13.885-8.025-27.782-16.032-41.667-24.058-.532-.307-.984-.744-1.87-1.428 1.057-.194 1.619-.422 2.155-.369 1.372.133 1.964-.692 2.458-1.744 3.964-8.455 3.287-16.545-2.059-24.176-1.186-1.691-2.539-3.363-4.792-4.355-1.262 1.581-2.595 3.09-3.728 4.735-.885 1.281-2.044 1.801-3.929 2.227.627-1.018.958-1.668 1.391-2.238 5.783-7.581 11.586-15.151 17.37-22.732.486-.638.874-1.349 1.39-2.154a4992.105 4992.105 0 0 0-5.521-4.089c-3.564 4.651-7.026 9.196-10.518 13.714-3.523 4.556-6.867 9.261-10.591 13.729-1.03-1.056-1.022-1.85-.304-2.705.486-.582.904-1.22 1.345-1.839.711-.988 1.418-1.976 2.314-3.227-5.472-1.033-10.066.358-14.371 2.47-.426-1.607-.696-3.062-1.197-4.43-1.877-5.153-3.834-10.279-5.753-15.417-8.478-22.686-16.971-45.364-25.426-68.058-3.477-9.329-6.848-18.7-10.302-28.036-5.799-15.672-11.624-31.331-17.438-46.999a1039.292 1039.292 0 0 0-3.557-9.481c-.293-.764-.483-1.771-1.581-1.706-1.915.114-3.819.35-6.22.585zm203.038 20.877-.711-.346c.95-1.911 1.68-3.975 2.884-5.707 3.736-5.366 3.504-3.489 3.709-11.119.038-1.437 0-2.873.023-4.306.095-5.293-.935-10.431-2.466-15.443-3.409-11.172-9.128-21.037-17.4-29.321-6.251-6.258-13.536-10.951-22.147-13.208-6.448-1.688-12.988-1.03-18.696 2.234-7.562 4.324-12.418 11.172-13.228 19.935-1.242 13.444-1.812 26.949-2.652 40.428-.042.665.106 1.338.122 2.006.011.434-.061.867-.103 1.406-1.782-.554-2.2-1.634-2.132-3.161.08-1.79.532-3.61.008-5.415-4.716.976-7.095 5.092-4.845 8.614 1.022 1.604 2.838 2.911 4.571 3.808 5.373 2.782 11.176 3.112 17.028 2.067 2.907-.52 5.723-1.531 7.858-3.788 1.463-1.547 1.885-3.314 1.159-5.355-.76-2.147-2.314-3.283-4.677-4.096-.118 1.778-.232 3.188-.301 4.598-.072 1.455-.775 2.386-2.348 3.078.118-1.368.243-2.443.3-3.523.585-10.704 1.098-21.416 1.782-32.117.183-2.843.578-5.734 1.384-8.455 1.497-5.047 6.205-7.444 11.198-5.86 2.155.684 4.302 1.581 6.232 2.748 9.018 5.449 14.946 13.566 19.034 23.05 3.196 7.407 4.15 15.231 3.542 23.306-.695 9.26-1.106 18.54-1.592 27.816-.069 1.322.194 2.66.167 3.99-.011.543-.384 1.079-.623 1.706-3.055-2.333-.912-5.464-1.794-8.003-1.797-.186-2.656 1.19-3.735 2.018-1.706 1.307-2.14 3.124-1.573 5.21.684 2.531 2.644 3.952 4.746 4.974 7.11 3.458 14.466 3.823 21.804.84 1.691-.688 3.424-2.079 4.37-3.618 1.95-3.169-.418-7.25-4.491-8.139-.388 2.838-.095 5.935-2.835 8.599.266-4.229.862-7.855.733-11.765-1.098.247-1.854.414-3.135.703.737-1.071 1.201-1.82 1.733-2.515 13.562-17.788 27.136-35.568 40.694-53.356.437-.574.741-1.243 1.133-1.908-1.71-1.653-3.249-3.142-4.948-4.788-13.41 17.583-26.6 34.88-39.79 52.178zM164.621 71.02c-3.853 5.042-7.684 10.05-11.507 15.059-3.895 5.096-7.786 10.192-11.677 15.291-3.838 5.031-7.668 10.074-11.506 15.105-3.838 5.035-7.68 10.063-11.522 15.094-3.891 5.099-7.76 10.214-11.674 15.299-3.811 4.955-7.421 10.077-11.51 14.873-1.258-1.349-.672-2.25.046-3.166 1.277-1.626 2.626-3.207 3.724-5.054-8.307-2.603-20.17 2.17-24.985 12.21-5.164 10.773-1.102 24.183 9.059 30.103 8.432 4.914 21.751 3.812 26.045-2.226-.908-1.049-2.724-1.517-2.348-3.903 14.607 8.326 28.986 16.712 43.411 25.015 14.535 8.368 29.047 16.77 43.586 25.168 1.102-.988 1.201-2.026 1.026-3.154-.129-.832-.372-1.676-.323-2.501.106-1.679-.707-2.599-2.086-3.397-18.875-10.856-37.73-21.751-56.59-32.642a9309.845 9309.845 0 0 1-23.45-13.57c-.433-.25-.763-.68-1.413-1.28.938-.091 1.463-.274 1.919-.164 1.117.266 2.204.662 3.291 1.004 4.522-7.566.866-21.33-6.688-25.795-1.296 1.699-2.664 3.394-3.918 5.168-.931 1.319-2.109 2.037-4.275 2.238 22.994-30.179 45.706-59.986 68.381-89.748l-5.028-5.031.012.004m261.884 283.548c-1.938 1.702-3.826 2.926-5.149 4.594-6.118 7.726-7.216 16.196-2.964 25.133 6.175 12.981 22.846 16.933 34.47 8.471 9.219-6.715 12.16-19.817 6.51-29.872-3.337-5.936-8.41-9.61-14.881-11.309-3.01-.79-6.16-1.174-9.242-.125-2.044.695-2.071.752-2.869-1.361-1.733-4.579-3.42-9.173-5.126-13.76-6.061-16.29-12.122-32.581-18.187-48.868-6.741-18.107-13.497-36.21-20.231-54.321-5.852-15.739-11.689-31.483-17.533-47.226-.851-2.295-1.661-4.606-2.554-6.882-.714-1.816-1.265-2.071-3.089-1.284-1.349.581-2.596 1.391-4.07 2.196a4002455 4002455 0 0 1 64.915 174.614m-124.647 38.589c.201.783.311 1.433.532 2.041 1.413 3.887 2.838 7.767 4.282 11.643 8.33 22.386 16.656 44.775 25.012 67.153.369.985.98 1.881 1.672 3.185-2.291 2.173-4.613 4.697-5.867 7.972-1.281 3.352-2.079 6.776-1.756 10.393.312 3.485 1.216 6.795 2.858 9.895 1.695 3.2 4.1 5.78 7.068 7.802 10.001 6.809 23.153 5.164 31.034-4.252 7.198-8.604 6.335-20.733 1.46-26.813-1.406 1.854-2.801 3.614-4.108 5.438-.886 1.238-1.984 1.926-4.036 1.938 7.992-10.485 15.74-20.653 23.496-30.822 7.725-10.135 15.477-20.247 23.176-30.404 7.71-10.176 15.527-20.281 23.225-30.579-1.858-1.048-3.397-1.9-4.917-2.789-.783-.456-1.436-.387-2.006.319-.422.529-.844 1.053-1.254 1.589a218763.68 218763.68 0 0 1-62.449 81.962c-1.452 1.904-2.938 3.777-4.557 5.848-.581-2.382-.6-2.398.449-3.807 1.261-1.691 2.576-3.341 3.83-5.039.373-.506.616-1.114 1.102-2.014-1.964-.737-3.633-1.554-5.392-1.984-4.921-1.193-9.812-1.558-14.41 1.262-.934.574-1.516.285-1.884-.768-.95-2.702-1.874-5.415-2.869-8.101-5.252-14.163-10.523-28.318-15.793-42.473-3.652-9.804-7.308-19.608-10.971-29.408-.224-.601-.57-1.155-.969-1.95-2.056.95-3.933 1.821-5.947 2.755zm20.372-35.625c-.863.714-1.296 1.053-1.707 1.414-1.01.889-1.919 1.938-3.036 2.663-7.429 4.819-15.204 8.581-24.24 9.569-7.281.794-14.341.665-21.17-2.086-6.099-2.459-12.346-4.697-18.111-7.809-13.657-7.376-27.128-15.113-40.553-22.911-7.304-4.24-14.277-9.013-20.152-15.2-.247-.262-.665-.361-1.197-.634-.224.843-.509 1.47-.543 2.113-.281 5.057-.54 10.115-.749 15.173-.079 1.927.506 3.713 1.821 5.13 1.721 1.847 3.439 3.728 5.373 5.339 5.848 4.883 12.312 8.858 18.863 12.726 12.935 7.638 25.813 15.39 39.315 21.991 5.669 2.77 11.578 5.126 17.537 7.205 7.949 2.774 16.047 1.36 24.012-.225 6.574-1.307 12.228-4.822 17.681-8.512 3.762-2.542 5.628-6.517 6.172-10.909.497-4.009.482-8.083.676-12.13.038-.798.004-1.596.004-2.907zm10.883-210.493c.802-1.612 1.432-2.873 2.056-4.139 1.041-2.124 1.022-2.242-.928-3.37-6.718-3.891-13.444-7.767-20.166-11.647-15.052-8.687-30.104-17.374-45.156-26.057-11.035-6.369-22.07-12.741-33.109-19.11-10.891-6.285-21.785-12.563-32.669-18.86-.592-.341-1.102-.824-1.736-1.303 2.238-1.31 3.731.54 5.438.7 3.754-7.92.752-22.42-11.685-28.36-9.744-4.651-23.169-2.257-29.941 9.188-6.121 10.344-2.895 24.34 7.038 30.97 9.831 6.563 22.819 4.066 27.869-1.99-1.674-1.673-2.581-3.107-2.721-4.302a406241.15 406241.15 0 0 1 45.27 26.113c15.052 8.687 30.103 17.378 45.159 26.064 15.018 8.668 30.001 17.404 45.285 26.103zm24.039 30.958c12.756.088 23.119-9.918 23.275-23.035.163-13.897-12.039-23.386-23.142-23.215-12.685.194-23.093 9.998-23.116 23.218-.023 12.799 10.317 23.082 22.983 23.032m-73.538 38c.201-1.292.365-2.01.418-2.736.114-1.6.103-3.211.266-4.803.836-8.147-.372-15.899-3.656-23.469-3.264-7.528-7.85-13.942-14.155-19.125-2.815-2.314-5.943-4.176-9.5-5.164-4.605-1.277-8.287.794-9.579 5.358-.297 1.052-.593 2.135-.662 3.218a3217.31 3217.31 0 0 0-1.596 26.289c-.117 2.082.038 2.147 2.03 2.899 3.078 1.163 6.247 2.147 9.192 3.587 7.577 3.705 15.055 7.615 22.568 11.453 1.41.719 2.789 1.49 4.67 2.493zm133.547 145.054c-.646-.483-1.079-.874-1.573-1.167-2.546-1.501-5.103-2.979-7.657-4.461-15.629-9.055-31.255-18.115-46.892-27.159a31881.715 31881.715 0 0 0-40.136-23.168c-1.789-1.03-2.329-.905-3.526.805a8.987 8.987 0 0 0-1.06 2.007c-.616 1.66-.335 2.428 1.17 3.389.855.544 1.741 1.042 2.615 1.547 15.5 8.934 31.008 17.856 46.5 26.805 14.322 8.273 28.629 16.572 42.948 24.848 1.584.916 3.211 1.767 5.058 2.782.912-2.219 1.725-4.203 2.553-6.228M192.722 80.189c-2.387.399-4.632.353-6.867 1.303.331 1.05.551 1.855.84 2.634 2.402 6.49 4.815 12.977 7.228 19.46 6.68 17.951 13.368 35.898 20.048 53.849 3.325 8.938 6.635 17.879 9.968 26.813.205.544.57 1.03.859 1.543.197-.053.395-.11.592-.163.171-5.206.388-10.409.472-15.615.015-.965-.441-1.964-.791-2.903-8.459-22.773-16.933-45.543-25.407-68.312-2.264-6.084-4.541-12.168-6.942-18.605zM325.3 277.645c-2.155 1.455-3.88 2.755-5.73 3.845-5.83 3.447-11.761 6.669-18.655 7.475-2.093.243-4.195.471-6.285.76-5.02.699-9.91.182-14.763-1.239-9.45-2.77-18.342-6.859-26.9-11.628-11.867-6.608-23.636-13.395-35.348-20.277-7.208-4.237-14.124-8.93-19.946-15.04-.186-.194-.509-.259-1.208-.597.277 1.041.289 1.752.631 2.235.969 1.368 1.96 2.751 3.135 3.94 4.727 4.765 10.21 8.584 15.948 11.978a2165.44 2165.44 0 0 0 35.705 20.66c7.938 4.492 16.177 8.395 24.844 11.305 4.906 1.65 9.877 2.942 15.121 2.482 2.181-.19 4.347-.597 6.532-.775 8.827-.719 16.226-4.861 23.286-9.747 1.706-1.182 3.048-2.805 3.625-5.377zm-17.047-31.514c-3.245 2.725-6.79 3.861-10.598 4.374-3.728.502-7.418.209-11.058-.562-3.713-.787-7.007-2.581-9.979-5.1-2.029 5.844 1.007 9.295 5.009 11.142 6.532 3.017 13.25 3.435 20.162 1.098 4.849-1.642 7.376-5.248 6.46-10.948zm-58.178-33.06c-11.065 6.16-21.591 5.529-31.798-1.588-1.668 5.445.593 8.759 4.89 10.826 6.669 3.203 13.604 3.561 20.642 1.117 4.834-1.676 6.973-4.955 6.262-10.355zm74.621 91.869.642-.251c0-1.227.137-2.47-.03-3.674-.297-2.117-1.912-3.2-4.021-2.702-.957.228-1.907.68-2.74 1.216-2.025 1.303-3.503 3.177-4.666 5.236-1.463 2.592-2.474 5.377-2.238 8.425.129 1.66.684 3.173 2.534 3.693 1.619.456 3.474-.387 4.8-2.295-.924-.425-1.786-.897-2.698-1.231-1.665-.608-2.314-1.9-2.444-3.507-.205-2.6 2.489-6.776 4.921-7.745 1.71-.684 2.771-.342 4.112 1.197.536.612 1.212 1.098 1.824 1.642zm-15.455 8.094c.863-6.851 3.69-12.133 8.926-16.032-5.578.821-10.936 10.169-8.926 16.032"/>
</svg>
