<svg xmlns="http://www.w3.org/2000/svg" width="550" height="550" fill="none" viewBox="0 0 550 550">
    <path fill="#fff" fill-rule="evenodd" d="M182.506 66.285c-8.94.09-17.729 1.238-26.251 4.026-1.176.382-2.367 1.074-3.26 1.925-8.274 7.93-14.666 17.226-19.673 27.5-.313.642-.594 1.301-.875 1.96v.001c-.453 1.062-.906 2.124-1.488 3.112-.553.939-1.465 1.786-2.413 2.355a2967 2967 0 0 1-28.261 16.704c-.414.239-1.392.112-1.736-.225-2.63-2.573-5.233-5.174-7.835-7.776a1542 1542 0 0 0-5.586-5.564c-.886-.873-1.099-1.6-.561-2.845 7.466-17.28 17.988-32.28 33.176-43.601 4.682-3.489 9.741-6.485 14.787-9.474q1.408-.834 2.81-1.67l3.901-2.335c7.538-4.518 15.08-9.039 22.833-13.155 12.536-6.662 26.143-9.697 40.275-10.366 2.204-.105 4.413-.083 6.623-.061 1.528.015 3.056.03 4.583.003 1.295-.023 1.964.387 2.359 1.686 1.782 5.854 3.642 11.681 5.529 17.504.414 1.276.325 2.108-.978 2.865-5.225 3.044-10.436 6.11-15.648 9.176a5036 5036 0 0 1-13.174 7.733c-.619.36-1.446.48-2.181.5-1.673.044-3.35.036-5.025.028h-.006a412 412 0 0 0-1.925-.006m-83.555 55.866c17.883-38.891 47.517-58.611 90.24-57.637.008-.15.023-.28.036-.395.025-.219.044-.385-.001-.529l-.698-2.205-.001-.002-.001-.002v-.002h-.001v-.002c-1.457-4.602-2.913-9.203-4.473-13.772-.189-.552-1.225-1.175-1.852-1.16-1.337.034-2.676.058-4.016.082-4.712.086-9.427.171-14.103.653-15.208 1.562-29.135 6.833-41.826 15.359-9.299 6.248-17.059 14.09-23.594 23.15-4.799 6.65-8.808 13.76-12.107 21.281-.614 1.396-.297 2.239.708 3.194 1.96 1.864 3.859 3.793 5.746 5.734 1.301 1.338 2.581 2.696 3.94 4.136v.001l.001.001v.001c.648.686 1.312 1.391 2.006 2.122zm114.825-92.843c.148-.055.319-.12.523-.204q.563 1.75 1.121 3.475h.001c1.469 4.547 2.905 8.989 4.259 13.453.147.48-.368 1.485-.859 1.782-5.184 3.137-10.404 6.22-15.624 9.304l-3.624 2.142c-1.877 1.11-3.758 2.217-5.73 3.378l-.004.002-.03.018-2.615 1.54q-.255-.752-.496-1.452a147 147 0 0 1-1.097-3.278 353 353 0 0 1-1.13-3.641l-.001-.003c-.759-2.478-1.519-4.957-2.388-7.395-.614-1.732-.483-2.68 1.265-3.685 6.191-3.556 12.335-7.194 18.479-10.832q3.66-2.169 7.323-4.33c.171-.101.36-.172.627-.273Zm-64.431 43.38c-10.629 4.293-20.195 10.684-28.42 19.148-8.217 8.453-14.55 18.112-19.159 28.938.421.051.661-.027.874-.15l3.245-1.916.003-.001.002-.001.002-.002h.001c7.446-4.394 14.894-8.788 22.313-13.23.646-.387 1.133-1.168 1.504-1.868.777-1.47 1.51-2.968 2.244-4.465 1.45-2.961 2.899-5.92 4.681-8.666 2.776-4.276 5.807-8.384 8.826-12.476l.001-.001c1.305-1.769 2.608-3.535 3.887-5.31zm-5.259-22.855c-.127.023-.289.053-.505.095 18.92-14.48 46.492-23.214 68.021-21.44-.632.387-1.215.747-1.766 1.088-1.031.637-1.953 1.207-2.885 1.758l-1.567.927c-6.673 3.944-13.346 7.889-20.048 11.783-.738.43-1.697.708-2.54.677-13.046-.507-25.822.974-38.265 5.015a3.4 3.4 0 0 1-.444.097zm-17.249 194.145c.776 4.086 1.552 8.168 2.383 12.523q-1.363-.07-2.702-.15h-.004c-2.296-.134-4.55-.265-6.803-.29-1.102-.015-2.355.225-3.291.774a2165 2165 0 0 0-12.293 7.259l-.001.001h-.001l-.001.001-.002.001-.002.001-.004.002-.004.003-.001.001h-.001l-.001.001h-.001c-5.201 3.087-10.402 6.173-15.636 9.206-1.473.85-1.462 1.631-.998 2.934a288 288 0 0 1 1.761 5.162c1.037 3.102 2.073 6.204 3.293 9.23 1.07 2.656 2.125 5.319 3.18 7.983v.002c3.616 9.131 7.234 18.266 11.463 27.105 6.218 12.992 12.984 25.768 20.304 38.168 6.89 11.677 14.485 22.976 22.38 34.003 6.96 9.717 14.574 18.99 22.265 28.154 3.823 4.554 7.92 8.879 12.017 13.205a620 620 0 0 1 5.877 6.263c1.041 1.133 1.93 1.195 3.31.36l.271-.164.001-.001h.002v-.001h.001l.001-.001c8.337-5.041 16.677-10.082 25.167-14.859 2.834-1.593 4.667-3.573 5.665-6.624.528-1.618 1.249-3.175 1.993-4.783.333-.721.672-1.452.999-2.204l.447.334c.231.17.39.289.543.416 16.318 13.518 33.934 24.863 53.875 32.372 15.721 5.92 31.853 8.882 48.673 7.007 8.592-.959 16.824-3.279 24.403-7.486 5.933-3.291 11.784-6.729 17.636-10.167h.001v-.001h.001v-.001h.002v-.001l.013-.007.013-.007q2.613-1.537 5.228-3.067 1.227-.716 2.458-1.426c2.976-1.718 5.953-3.436 8.787-5.364 12.961-8.816 21.9-20.911 27.894-35.229 6.121-14.62 8.696-30.017 9.272-45.774.611-16.704-1.357-33.18-4.625-49.528-.241-1.216-.511-2.429-.801-3.735l-.001-.003c-.141-.637-.288-1.296-.439-1.989.374 0 .714-.003 1.031-.007h.001c.638-.007 1.183-.013 1.725.015.935.047 1.87.105 2.805.163h.013c1.503.093 3.007.185 4.513.235.669.024 1.447-.1 2.011-.433 4.735-2.772 9.462-5.56 14.189-8.347l.01-.007c4.862-2.867 9.724-5.734 14.596-8.586 1.152-.676 1.442-1.33.971-2.629-.877-2.415-1.698-4.849-2.519-7.284v-.002l-.001-.003-.001-.002v-.001c-.619-1.834-1.237-3.669-1.88-5.495-6.619-18.804-14.72-36.969-23.988-54.601a443 443 0 0 0-30.133-49.215c-13.282-18.823-27.925-36.49-44.1-52.896-1.144-1.16-1.972-1.183-3.298-.391-3.89 2.327-7.789 4.636-11.689 6.945l-.007.004-.003.001-.008.005a2242 2242 0 0 0-16.005 9.537c-1.002.607-1.849 1.747-2.363 2.83-1.03 2.165-1.947 4.385-2.883 6.647-.364.881-.73 1.767-1.107 2.66-.181-.12-.339-.221-.481-.313h-.001c-.247-.159-.447-.287-.636-.429a688 688 0 0 1-5.64-4.302l-.001-.001c-4.041-3.105-8.083-6.211-12.269-9.111-13.568-9.4-28.138-16.835-43.98-21.672-13.142-4.014-26.506-5.855-40.228-4.312-8.921 1.006-17.47 3.384-25.319 7.78-4.201 2.354-8.342 4.814-12.483 7.273v.001h-.001c-3.939 2.34-7.878 4.68-11.869 6.928-6.411 3.612-12.574 7.505-17.964 12.555-9.056 8.484-15.436 18.758-19.941 30.203-4.508 11.461-6.975 23.413-7.93 35.689-1.33 17.122-.309 34.1 2.896 50.959M397.19 353.246c-.037-.654-.073-1.455-.113-2.362v-.001c-.108-2.425-.25-5.61-.559-8.781-1.098-11.29-3.009-22.446-5.642-33.497-3.951-16.591-9.519-32.63-16.348-48.225-6.515-14.879-13.943-29.332-22.999-42.827-6.948-10.355-14.222-20.528-21.874-30.372-7.818-10.062-16.7-19.218-26.022-27.945-11.272-10.556-23.367-20.037-36.54-28.06-11.635-7.084-23.885-12.896-37.055-16.673-13.224-3.793-26.568-5.402-40.294-3.577-10.568 1.404-20.176 5.232-28.954 11.086-9.102 6.067-16.05 14.206-21.51 23.652-7.644 13.228-11.569 27.67-13.29 42.684-2.424 21.194-.572 42.217 3.844 63.011 3.92 18.452 9.867 36.293 17.376 53.589a315 315 0 0 0 19.713 38.055c10.08 16.608 21.506 32.237 34.487 46.694 10.428 11.612 21.684 22.365 34.053 31.927 10.417 8.051 21.367 15.239 33.199 21.066 13.797 6.794 28.142 11.697 43.547 13.197 8.073.785 16.128.638 24.051-.936 9.225-1.833 17.771-5.402 25.581-10.83 9.76-6.783 17.021-15.668 22.593-25.977 4.393-8.131 7.378-16.851 9.381-25.883 2.71-12.2 3.681-24.565 3.372-39.019zm-25.009 84.611c5.939-3.604 10.888-8.275 15.273-13.603 7.745-9.412 12.857-20.204 16.182-31.792 3.782-13.185 5.572-26.723 5.162-40.453-.108-3.604.917-5.82 4.242-7.154 1.589-.638 2.076-.494 2.092 1.265.097 12.404-.75 24.723-3.546 36.849-3.383 14.678-8.971 28.335-18.746 40.02a261 261 0 0 1-3.299 3.842l-.002.003q-.752.863-1.501 1.731c7.931-4.888 14.295-11.387 19.465-18.993 4.501-6.62 7.907-13.812 10.571-21.402 4.439-12.656 6.353-25.729 6.968-39.026.456-9.86.012-19.724-1.438-29.491-.985-6.645-2.192-13.256-3.398-19.865v-.003a2060 2060 0 0 1-.883-4.852c-.079-.433-.461-.824-.83-1.201a10 10 0 0 1-.341-.361c-.207-.235-.455-.451-.701-.666-.453-.395-.9-.786-1.086-1.279-.564-1.516-1.062-3.057-1.56-4.598v-.002l-.001-.001v-.001c-.61-1.89-1.221-3.78-1.954-5.622l-.446-1.124-.347-.875-.271-.682-.582-1.468c-3.555-8.964-7.111-17.934-10.943-26.784-5.889-13.603-12.845-26.68-20.587-39.316-5.243-8.557-10.563-17.099-16.41-25.238-6.94-9.663-14.272-19.074-21.846-28.25-3.872-4.689-8.045-9.128-12.218-13.566-2-2.127-4-4.254-5.967-6.409-.472-.518-.849-1.126-1.224-1.73v-.002l-.001-.001q-.137-.221-.276-.44a9 9 0 0 1-.459-.861c-.269-.55-.536-1.097-.963-1.451-9.389-7.768-19.272-14.837-29.886-20.857-13.587-7.706-27.813-13.696-43.237-16.65-13.499-2.583-26.877-2.564-40.163 1.264-7.192 2.073-13.63 5.708-19.995 9.512-2.012 1.204-4.03 2.4-6.049 3.597l-2.02 1.198c.935.159 1.752.004 2.557-.148q.26-.05.521-.095c1.319-.225 2.637-.478 3.955-.731h.001l.001-.001h.002c3.109-.597 6.218-1.195 9.353-1.415 13.746-.966 27.094 1.381 40.09 5.742 15.811 5.306 30.295 13.263 43.879 22.829 11.859 8.352 22.806 17.822 32.998 28.154 12.327 12.493 23.448 25.98 33.439 40.406 7.339 10.595 14.001 21.592 20.06 32.975 6.187 11.616 11.643 23.56 16.287 35.848 5.494 14.535 9.875 29.418 12.779 44.718 3.221 16.971 4.783 34.034 3.615 51.318-.761 11.303-2.656 22.365-6.252 33.118-3.333 9.972-7.919 19.276-14.562 27.488-1.222 1.512-2.479 2.997-3.735 4.481q-.888 1.049-1.771 2.101zm61.056-146.377-.286.164-.54.31c-21.421-64.507-55.451-121.022-102.856-169.757q.744-.461 1.448-.903c1.048-.655 2.045-1.279 3.056-1.877q3.755-2.223 7.516-4.438l.002-.001.001-.001h.001c4.868-2.87 9.737-5.74 14.578-8.652 1.563-.944 2.514-.952 3.921.483 16.789 17.083 31.827 35.597 45.434 55.278 11.507 16.646 21.777 34.046 30.875 52.126 8.143 16.179 15.211 32.821 21.255 49.892.547 1.546 1.05 3.107 1.553 4.668v.001h.001v.002h.001v.003h.001a174 174 0 0 0 1.553 4.668c.394 1.125.185 1.759-.851 2.366a4483 4483 0 0 0-16.706 9.832l-.017.01-.017.01-.017.01-2.949 1.741-3.757 2.217c-.842.497-1.691.984-2.666 1.542l-.001.001-.004.002h-.001zM224.776 415.225c-46.98-42.452-78.277-94.235-94.788-155.247q-.735.426-1.41.813h-.001l-.006.004-.001.001c-.852.49-1.647.947-2.437 1.413a6201 6201 0 0 0-6.529 3.858l-.017.009c-4.967 2.937-9.934 5.874-14.918 8.781-1.156.677-1.446 1.346-.978 2.641.69 1.915 1.33 3.85 1.97 5.785 1.06 3.205 2.12 6.409 3.405 9.519 4.624 11.183 9.326 22.338 14.353 33.343 5.808 12.717 12.597 24.951 20.165 36.702 6.511 10.111 13.351 20.026 20.4 29.773 9.632 13.321 20.497 25.633 31.974 37.403 1.02 1.048 1.844 1.222 3.151.433 4.158-2.516 8.345-4.981 12.532-7.447l.001-.001.038-.022q2.602-1.53 5.2-3.067c1.788-1.056 3.572-2.117 5.4-3.203l.045-.027 1.139-.677 1.312-.779zM88.897 275.584c21.383 64.369 55.189 120.424 102.347 169.016.463-1.103.898-2.167 1.32-3.2l.002-.003.002-.008.001-.001c.978-2.392 1.889-4.62 2.917-6.791.707-1.493.394-2.413-.646-3.546a794 794 0 0 0-5.531-5.948l-.001-.001-.001-.001-.001-.001-.001-.001-.001-.001-.001-.001-.003-.003c-4.926-5.259-9.852-10.519-14.358-16.118-8.429-10.471-16.572-21.204-24.201-32.267a323 323 0 0 1-18.069-29.437c-6.616-12.211-12.81-24.692-18.425-37.394-3.122-7.061-5.732-14.345-8.344-21.631v-.002c-1.257-3.506-2.514-7.013-3.828-10.496-.221-.587-.793-1.442-1.261-1.48-2.872-.239-5.753-.381-8.898-.537-.98-.048-1.984-.098-3.023-.152zm238.178-148.97-.002.004v.001l-.002.003v.001l-.001.003-.001.002c-1.01 2.439-1.937 4.675-2.931 6.883-.588 1.307-.414 2.177.576 3.24q1.62 1.742 3.243 3.481l.018.019c5.014 5.375 10.029 10.75 14.842 16.298 10.131 11.681 19.504 23.985 27.802 37.023 7.18 11.283 14.082 22.775 20.485 34.518 5.294 9.701 10.05 19.743 14.361 29.92 2.966 7.008 5.568 14.169 8.17 21.33l.001.002a858 858 0 0 0 4.048 10.986c.216.572.978 1.276 1.543 1.33 2.984.284 5.981.434 8.976.585l1.05.053c.259.012.522-.073.846-.178.175-.056.367-.118.585-.174-21.259-63.904-55.019-119.963-102.251-168.598v.004a763 763 0 0 0-1.345 3.232l-.004.009zM193.831 443.286l-.165-.162c.374-.897.733-1.802 1.092-2.707.895-2.255 1.79-4.508 2.912-6.644.52-.983 1.709-1.668 2.814-2.304q.306-.175.597-.348c6.464-3.864 12.95-7.693 19.437-11.523l.054-.032.322-.19.058-.034 2.652-1.566.862-.509c.13-.078.276-.126.528-.208.161-.053.365-.12.636-.218l-.144.375-.186.485-.241.624-.162.422c-.343.894-.658 1.714-.976 2.533-2.359 6.088-2.43 6.129-7.921 9.301l-.272.157c-4.707 2.718-9.384 5.489-14.06 8.26a3133 3133 0 0 1-6.372 3.769c-.296.174-.603.329-.91.483l-.166.084-.055.028-.072.036-.096.05zM91.639 274.022l-.116-.577 2.656-1.584.014-.009.015-.009.015-.009.007-.004q3.1-1.853 6.205-3.697 1.915-1.136 3.824-2.277l.001-.001h.001l.001-.001.002-.001.002-.001.003-.002.003-.002.001-.001c3.916-2.337 7.832-4.674 11.811-6.901 1.318-.739 2.989-1.129 4.512-1.168 2.742-.066 5.491.255 8.375.82q-.849.518-1.695 1.038a277 277 0 0 1-3.764 2.283q-1.935 1.148-3.867 2.298l-.002.001-.001.001c-5.236 3.114-10.472 6.227-15.761 9.246-1.145.65-2.649.905-3.995.92-1.956.022-3.912-.1-5.868-.223-.793-.05-1.586-.1-2.38-.14m316.057 117.311c-3.064 10.098-7.504 19.566-14.252 27.818.554-1.017 1.116-2.03 1.678-3.043l.005-.01.006-.01.001-.002c1.224-2.207 2.448-4.414 3.592-6.661 3.309-6.504 5.541-13.39 7.516-20.416a149.4 149.4 0 0 0 4.95-26.715c.243-2.636.328-5.286.413-7.936v-.005c.055-1.726.11-3.452.209-5.175.043-.777.503-1.531 1.187-2.184.758 15.134-.932 29.924-5.305 44.339m-66.367 131.874q.967-.012 1.933-.013v-.008c17.895.004 34.688-4.292 50.217-13.247a931 931 0 0 0 20.741-12.346c1.439-.88 2.889-1.748 4.339-2.616h.001v-.001h.001c4.853-2.905 9.713-5.814 14.211-9.192 15.095-11.341 25.435-26.433 32.863-43.62.239-.553-.016-1.663-.453-2.111a447 447 0 0 0-5.408-5.431c-2.39-2.373-4.779-4.746-7.096-7.186-1.416-1.489-2.452-1.674-4.207-.615a2353 2353 0 0 1-16.235 9.671l-.001.001-.001.001h-.001l-.012.007c-3.879 2.298-7.759 4.595-11.629 6.908-.596.356-1.114 1.036-1.404 1.682-5.425 12.165-12.354 23.308-22.055 32.561-1.029.982-2.39 1.798-3.743 2.216-10.189 3.151-20.656 4.307-31.289 3.897-2.034-.077-3.751.387-5.468 1.412-8.897 5.313-17.794 10.625-26.776 15.791-1.582.909-1.644 1.775-1.172 3.221.75 2.302 1.487 4.609 2.223 6.916 1.143 3.581 2.286 7.162 3.48 10.724.198.584 1.11 1.264 1.729 1.303 1.732.11 3.472.092 5.211.075zm-10.803-19.241c.007-.125.015-.267.015-.434v-.008c42.665.785 72.369-18.873 90.198-57.768l2.876 2.96c2.487 2.558 4.882 5.02 7.258 7.503 3.085 3.227 3.056 3.286 1.217 7.11l-.18.376c-4.393 9.164-9.679 17.74-16.341 25.427-6.449 7.444-13.823 13.754-22.295 18.858-5.889 3.55-12.018 6.446-18.51 8.607-12.118 4.037-24.592 5.495-37.317 4.938-.615-.027-1.574-.541-1.744-1.044-1.546-4.574-3-9.177-4.454-13.78v-.002l-.001-.002-.287-.91-.21-.662-.202-.64c-.045-.146-.035-.309-.023-.529m131.989-60.121c.147-.025.342-.06.61-.119-3.723 8.58-8.375 16.163-13.754 23.328-10.509 14.005-24.704 23.3-40.422 31.563l.102-.121.151-.181q.214-.259.385-.473l.001-.001c.304-.377.532-.659.792-.91 10.707-10.273 18.603-22.457 24.542-35.983.267-.611.711-1.287 1.264-1.616 7.765-4.647 15.551-9.25 23.339-13.854l2.572-1.52c.09-.055.201-.075.418-.113m-1.97-6.248a836 836 0 0 1 3.365 3.306v.004l-.225.14-.138.085-.204.127-.972.608-.022.014-.036.023-.017.01-.002.001-.002.002c-1.036.648-1.999 1.251-2.975 1.828q-3.364 1.983-6.733 3.955c-5.185 3.038-10.369 6.076-15.501 9.2-1.682 1.025-2.621.816-3.905-.534-2.346-2.468-4.761-4.872-7.177-7.276l-.001-.002-.008-.008a771 771 0 0 1-3.262-3.258c-.195-.197-.369-.414-.586-.683a31 31 0 0 0-.423-.516l1.967-1.183c1.536-.925 3.03-1.825 4.529-2.714q3.151-1.867 6.305-3.727c4.595-2.711 9.19-5.421 13.755-8.183 1.675-1.009 2.742-.835 4.114.607 2.621 2.756 5.34 5.419 8.146 8.166v.001h.001l.005.005zm-69.211 44.75c.154.005.362.011.656.011-17.601 14.206-37.429 19.728-59.117 19.496l-.123-.265-.121-.261 1.227-.749c.818-.501 1.637-1.002 2.462-1.49l2.459-1.453c6.437-3.805 12.876-7.61 19.341-11.369.797-.464 1.802-.847 2.699-.82 10.169.314 20.203-.552 30.075-3.085a.7.7 0 0 1 .147-.019c.073-.003.165 0 .293.004h.001zM142.25 218.044c-.128-12.013 1.33-23.822 4.682-35.333 2.9-9.957 7.274-19.241 13.847-27.4 8.132-10.095 18.367-16.97 30.844-20.45 8.422-2.351 17.025-2.738 25.675-1.883 16.986 1.678 32.43 7.891 47.03 16.417 16.178 9.447 30.423 21.31 43.392 34.797 9.891 10.281 18.796 21.336 26.92 33.044 10.308 14.86 19.024 30.613 26.212 47.189 6.987 16.12 12.354 32.782 15.671 50.066 2.522 13.138 3.902 26.401 3.345 39.78-.499 12.017-2.308 23.822-6.504 35.202-4.145 11.252-10.134 21.259-19.12 29.282-9.044 8.07-19.674 12.752-31.68 14.442-12.512 1.763-24.661.062-36.617-3.604-13.162-4.032-25.238-10.3-36.66-17.925-16.894-11.276-31.556-24.995-44.73-40.388-11.847-13.842-22.09-28.779-30.979-44.664-6.427-11.48-12.003-23.37-16.666-35.662-7.018-18.502-11.886-37.557-13.858-57.281-.354-3.541-.479-7.103-.603-10.666v-.002a357 357 0 0 0-.197-4.961zm1.751 1.153c.263 23.389 5.278 45.858 13.197 67.755 5.004 13.835 11.191 27.129 18.398 39.958 9.558 17.014 20.741 32.871 33.721 47.436 9.698 10.885 20.25 20.865 31.927 29.642 11.589 8.708 23.881 16.113 37.449 21.352 12.029 4.644 24.391 7.467 37.333 6.863 11.816-.549 22.732-3.947 32.468-10.923 10.51-7.532 17.466-17.732 22.307-29.464 4.895-11.859 6.821-24.406 7.482-37.135.51-9.868-.306-19.705-1.636-29.48-2.188-16.077-6.372-31.668-11.963-46.875-6.129-16.662-13.897-32.558-23.185-47.676-9.318-15.173-19.929-29.395-32.105-42.422-10.981-11.747-22.894-22.407-36.254-31.405-12.137-8.178-24.99-14.832-39.126-18.919-10.518-3.043-21.17-4.37-32.078-3.275-12.35 1.237-23.336 5.815-32.654 14.016-10.413 9.164-16.704 20.946-20.633 34.07-3.557 11.89-4.806 24.1-4.644 36.482zm26.442 27.464.006.011.017.027q.772 1.27 1.549 2.538l-.016.011-.383.414c-.524-.17-1.054-.327-1.584-.485-1.185-.352-2.371-.704-3.496-1.193-1.694-.739-3.098-.777-4.656.394-1.16.875-2.466 1.56-3.766 2.241q-.455.238-.905.477c-1.109.596-1.546 1.35-1.272 2.661a251 251 0 0 1 1.065 5.51c.517 2.782 1.034 5.564 1.688 8.313 2.699 11.356 6.446 22.376 10.989 33.137a234 234 0 0 0 22.114 40.639c9.84 14.473 21.085 27.751 34.135 39.475 11.078 9.953 23.041 18.564 36.532 24.982 11.592 5.518 23.637 9.172 36.582 9.342 7.216.097 14.323-.723 20.969-3.654 4-1.762 7.85-3.879 11.69-5.99l1.322-.726c10.881-5.963 18.637-14.856 23.876-25.996 3.786-8.05 6.009-16.572 7.131-25.381.055-.45-.031-.918-.116-1.385l-.001-.001c-.039-.215-.078-.43-.104-.644q-.315.102-.632.199h-.002c-.48.147-.958.294-1.419.482-.252.105-.483.262-.714.42-.144.099-.288.198-.438.284-5.415 3.101-5.445 3.27-6.431 8.864l-.139.783c-2.606 14.643-8.058 27.921-19.329 38.218-7.761 7.088-16.901 11.163-27.295 12.439-13.684 1.678-26.665-1.183-39.208-6.418-16.677-6.96-31.053-17.404-44.165-29.681-9.613-8.998-18.189-18.92-25.98-29.53a236 236 0 0 1-20.122-32.7c-5.174-10.173-9.597-20.675-13.139-31.537-3.059-9.384-5.522-18.915-7.088-28.671-.193-1.21.236-1.813 1.179-2.529 3.175-2.401 6.411-3.723 10.197-1.403.05.031.124.038.185.046 1.922.275 2.711 1.369 3.036 3.318 1.856 11.147 4.93 21.966 8.862 32.565 5.765 15.532 13.29 30.152 22.454 43.929 10.614 15.958 23.018 30.334 37.827 42.58 12.73 10.525 26.58 19.039 42.522 23.784 7.138 2.122 14.442 3.286 21.928 2.845 1.994-.116 3.987-.295 6.168-.49h.001l.009-.001c.996-.089 2.032-.182 3.125-.274-.289.132-.509.235-.686.318l-.007.003-.008.004-.001.001c-.31.145-.484.226-.663.292-10.231 3.828-20.698 3.871-31.211 1.655-15.223-3.213-28.598-10.436-40.999-19.573-14.047-10.351-26.057-22.79-36.559-36.671-10.413-13.762-19.082-28.563-25.922-44.436-6.098-14.148-10.661-28.729-13.12-43.952l-.032-.243c-.039-.31-.079-.624-.223-.879-.158-.286-.545-.657-.789-.626-.267.031-.645.452-.692.746-.067.422.017.876.099 1.317l.014.079.022.124a191 191 0 0 0 7.266 28.613c4.238 12.551 9.682 24.554 16.201 36.057 6.968 12.292 15.007 23.861 24.329 34.506 15.888 18.146 33.919 33.47 56.635 42.468 11.612 4.597 23.61 6.836 36.146 4.794 14.589-2.374 25.505-10.192 33.203-22.612 5.379-8.677 8.213-18.27 9.674-28.319.12-.816.751-1.764 1.431-2.251.927-.664 1.921-1.237 2.916-1.81a47 47 0 0 0 2.184-1.31c.31-.2.516-.562.722-.923v-.001c.093-.162.186-.325.287-.472a6 6 0 0 1-.608-.032h-.001c-.447-.038-.893-.076-1.223.101-.926.494-1.823 1.04-2.721 1.587-.917.558-1.834 1.117-2.782 1.619-1.156.611-1.643 1.427-1.813 2.707-1.527 11.522-4.934 22.376-11.875 31.865-3.081 4.214-6.434 8.263-11.279 10.602-4.995 2.413-10.366 3.43-15.868 3.759-12.053.719-23.409-2.15-34.321-6.953-13.87-6.105-26.03-14.828-37.135-25.044-11.036-10.15-20.679-21.526-29.12-33.911-7.854-11.522-14.574-23.664-20.095-36.486-5.526-12.833-9.683-26.069-12.335-39.78a38 38 0 0 1-.293-1.865v-.001a86 86 0 0 0-.129-.887c.843.53 1.331 1.183 1.756 1.879q1.403 2.303 2.795 4.61l.002.003.001.002.002.003.001.002.002.003a928 928 0 0 0 3.712 6.107 27826 27826 0 0 0 26.831 43.585c.474.768.936 1.545 1.398 2.322 2.527 4.247 5.055 8.497 9.448 11.262 1.999 1.26 4.076 2.506 6.419 1.133 2.668-1.56 5.237-3.292 7.803-5.023h.001l.001-.001.756-.509c.421-.283.781-.913.842-1.419.526-4.358-.386-8.523-2.494-12.285-1.929-3.449-4.025-6.805-6.122-10.163-.94-1.506-1.88-3.012-2.806-4.526l-3.315-5.426-.045-.074a62100 62100 0 0 1-17.183-28.125c-1.275-2.086-2.539-4.178-3.826-6.307l-1.932-3.193c.314-.225.609-.442.894-.65.61-.447 1.171-.857 1.751-1.237q4.456-2.923 8.914-5.843a9473 9473 0 0 0 21.764-14.291c.607-.398 1.203-1.028 1.485-1.69 3.132-7.284.027-14.975-6.689-18.351-2.622-1.318-5.742-2.076-8.774.02-2.319 1.602-4.72 3.086-7.121 4.569-1.706 1.055-3.413 2.109-5.09 3.206a9896 9896 0 0 0-21.323 14.002l-.007.004-.007.005-.007.004-.011.007a12137 12137 0 0 1-15.931 10.47c-2.142 1.407-2.192 1.547-.812 3.743a516 516 0 0 1 3.54 5.753m50.895-34.247c2.339 2.548 4.234 5.561 3.928 10.15v-.004a18 18 0 0 0-.259 1.051v.002c-.376 1.665-.836 3.704-3.139 5.157-7.265 4.581-14.447 9.288-21.631 13.994a3040 3040 0 0 1-9.6 6.275c-1.996 1.3-2.027 1.423-.793 3.442 5.394 8.812 10.779 17.628 16.164 26.443l6.785 11.106c1.136 1.86 2.29 3.712 3.443 5.563v.001c2.896 4.649 5.792 9.298 8.427 14.09 1.165 2.117 1.655 4.632 2.135 7.101q.165.858.34 1.7c.363 1.728-.143 3.685-2.073 4.021-1.384.24-3.197-.244-4.408-1.032-3.495-2.282-5.896-5.592-8.058-9.168-5.855-9.685-11.789-19.32-17.723-28.956l-.016-.026-.007-.011-.016-.026q-3.276-5.32-6.547-10.642l-2.222-3.616-.006-.009a11346 11346 0 0 0-17.508-28.433c-.727-1.179-.406-1.794.654-2.486 4.632-3.02 9.252-6.06 13.871-9.099l.005-.004.005-.003q4.031-2.654 8.066-5.302a415 415 0 0 1 5.828-3.731c4.42-2.795 8.839-5.59 12.987-8.742 3.696-2.808 8.982-1.4 11.368 1.194m12.76 101.79c.441 3.113-.92 4.412-5.065 5.998l-.004-.004-.122-.978v-.003c-.13-1.04-.25-2.002-.365-2.963-.526-4.339-2.63-7.981-4.876-11.627a10722 10722 0 0 1-19.45-31.721l-.001-.002-.001-.001-.001-.002-.001-.001c-4.139-6.768-8.278-13.536-12.427-20.299-.688-1.126-.588-1.709.592-2.436l.148-.092c2.002-1.235 2.987-1.843 3.771-1.646.76.19 1.331 1.136 2.455 2.999l.114.189c4.662 7.727 9.368 15.427 14.074 23.127l2.696 4.411c1.592 2.609 3.201 5.208 4.809 7.807l.002.004.001.001c3.776 6.101 7.551 12.202 11.118 18.423 1.485 2.587 2.108 5.804 2.533 8.816m128.083 40.089-.084-.07-.228-.193-.063-.053q-.489.276-.971.562h-.001l-.001.001c-.719.421-1.437.842-2.186 1.196-1.531.727-2.266 1.806-2.432 3.561-.232 2.425-.727 4.834-1.261 7.216-2.107 9.369-5.498 18.212-11.066 26.119-.847 1.204-1.748 2.372-2.649 3.54l-.003.003-.002.003-.003.004q-.62.802-1.233 1.608c13.784-11.263 19.739-26.481 22.268-43.427zM224.949 214.634c-2.095-3.48-4.814-5.943-9.164-6.647h.004c4.346-3.673 10.123-2.958 13.321 1.319 2.494 3.336 3.731 6.824 2.799 11.136-.602 2.778-2.507 3.775-4.558 4.847q-.46.24-.925.492c1.083-3.994.642-7.629-1.477-11.147m96.284 109.686-1.412-2.429-.001-.002v-.001l-.009-.015c-1.134-1.952-2.248-3.871-3.38-5.782l-4.003-6.762-.016-.027-.003-.005-.003-.004c-8.297-14.017-16.594-28.034-24.925-42.03-2.196-3.689-3.14-7.671-3.406-11.905-.128-2.019.846-3.407 2.327-4.339 2.012-1.266 4.125-2.37 6.237-3.474q.683-.356 1.361-.713c2.255-1.191 4.115.011 5.866 1.206 4.099 2.784 6.686 6.821 9.153 11.02 4.996 8.497 10.052 16.956 15.109 25.417l.003.004c2.538 4.247 5.077 8.495 7.608 12.747q3.875 6.51 7.741 13.026a8050 8050 0 0 0 12.791 21.492c.654 1.094.491 1.647-.549 2.327a6767 6767 0 0 0-16.134 10.561l-.007.004-.007.005-.008.005a6590 6590 0 0 1-16.158 10.576 447 447 0 0 1-6.258 3.979c-3.355 2.108-6.71 4.216-9.97 6.461-3.217 2.216-6.28 1.322-9.06-.162-4.76-2.545-7.281-6.98-7.47-12.277-.116-3.209.383-6.45 3.816-8.615 6.958-4.388 13.813-8.943 20.666-13.498l.019-.012c2.574-1.711 5.148-3.422 7.728-5.123.477-.316.943-.649 1.452-1.014h.001c.283-.203.579-.414.897-.638zm-33.071 28.864c.502 4.497 2.44 8.553 6.763 10.92 2.003 1.094 4.369 1.782 6.751.209a9423 9423 0 0 1 40.665-26.723c1.145-.75 1.172-1.338.495-2.475a3660 3660 0 0 1-10.032-16.891l-.007-.012a5949 5949 0 0 0-6.614-11.161q-3.11-5.23-6.214-10.464c-7.486-12.622-14.972-25.243-22.682-37.726-1.531-2.479-4.333-4.304-6.922-5.99l-.294-.191-.173-.113-.12-.078c-1.767-1.157-3.782.313-3.874 2.439-.182 4.091.819 7.9 2.903 11.419q1.956 3.294 3.916 6.587 2.339 3.927 4.668 7.859 4.654 7.862 9.305 15.727 4.64 7.845 9.283 15.689 1.386 2.34 2.781 4.674l.001.002.001.001.001.002a1170 1170 0 0 1 3.63 6.113l.07.119c.532.902 1.05 1.78-.298 2.661a2122 2122 0 0 0-10.11 6.657h-.001c-6.569 4.342-13.136 8.684-19.794 12.881-3.012 1.899-3.75 4.463-4.087 7.861zm56.967-17.388c.45-.262.865-.517 1.261-.761.827-.509 1.569-.965 2.359-1.316 1.709-.754 1.89-1.689.947-3.263-4.496-7.488-8.962-14.994-13.428-22.5l-.001-.001-.017-.028-.007-.013q-3.209-5.394-6.422-10.785l-4.777-8.018c-5.258-8.827-10.516-17.655-15.828-26.449a142 142 0 0 1-1.445-2.466c-2.109-3.655-4.214-7.303-7.731-10.031-3.635-2.819-5.634-2.548-9.133.634l.688.513.006.004c2.906 2.163 5.807 4.322 7.72 7.553 4.529 7.648 9.08 15.285 13.63 22.921l4.829 8.109q10.317 17.341 20.641 34.684c1.433 2.409 2.874 4.813 4.34 7.259l.018.03.003.006c.775 1.292 1.556 2.595 2.347 3.918m3.045-35.167c.712.102 1.445.206 2.207.324h.004c.109-.042.243-.086.393-.137.402-.134.921-.308 1.389-.57.804-.453 1.595-.928 2.386-1.403l.001-.001c1.141-.685 2.281-1.371 3.46-1.987 1.071-.561 1.28-1.156.962-2.301-5.061-18.216-12.361-35.492-21.703-51.914-5.421-9.527-11.484-18.622-18.154-27.326a218 218 0 0 0-23.819-26.308c-3.339-3.14-3.457-3.076-7.189-1.055l-.235.127-.328.177c-2.831 1.524-4.521 3.392-5.541 6.589-1.176 3.677-.379 5.723 2.439 8.31 14.439 13.231 26.22 28.656 36.131 45.514 5.455 9.276 10.343 18.862 14.101 28.958 1.553 4.172 2.957 8.396 4.362 12.622v.001l.001.002c.87 2.615 1.739 5.23 2.644 7.833.232.669.862 1.547 1.454 1.682 1.61.373 3.253.608 5.034.863zm-22.358-60.073c-11.105-18.139-24.329-34.564-40.353-49.138h-.007c.34-.199.623-.363.87-.506.38-.22.677-.392.97-.572q.7-.431 1.256-.78c1.757-1.097 2.538-1.585 3.209-1.464.537.096 1.005.583 1.846 1.46.482.501 1.085 1.13 1.894 1.886 11.562 10.803 21.596 22.944 30.458 36.037a235.5 235.5 0 0 1 20.149 36.215c4.254 9.543 7.792 19.326 10.753 29.337.453 1.523.449 2.532-1.144 3.278-.939.441-1.831.979-2.844 1.59-.481.29-.988.596-1.541.916-5.842-20.733-14.384-40.082-25.516-58.259m-8.982-10.819c14.662 21.162 25.767 44.034 32.843 69.384l.004.003c-.623-.085-1.21-.15-1.769-.212-1.311-.146-2.467-.274-3.559-.607-.661-.205-1.253-1.222-1.524-1.992-.76-2.168-1.462-4.36-2.165-6.551-1.324-4.132-2.648-8.262-4.354-12.229-3.886-9.033-8.081-17.965-12.69-26.649-5.738-10.827-12.683-20.946-20.644-30.257-5.092-5.957-10.582-11.579-16.065-17.194v-.001l-.012-.011q-1.214-1.243-2.425-2.487c-1.369-1.407-1.938-2.54-1.114-4.354.33-.727.55-1.506.8-2.392.119-.424.246-.872.395-1.351 12.447 11.156 22.991 23.494 32.279 36.9m-68.019 120.942c-3.99-.6-6.697-2.831-8.197-5.878-1.593-3.228-2.668-6.851-3.198-10.42-.241-1.625.26-3.373.756-5.103.179-.625.358-1.247.501-1.861a27622 27622 0 0 1 10.977-47q2.232-9.514 4.471-19.026l.011-.046q2.247-9.54 4.485-19.084.245-1.041.493-2.082c.653-2.75 1.307-5.501 1.835-8.277.393-2.054 1.86-2.957 3.323-3.858.523-.322 1.045-.644 1.518-1.018.529-.419 1.139-.735 1.75-1.05.598-.309 1.196-.618 1.718-1.026 3.403-2.649 7.034-1.566 9.891.974 2.645 2.351 3.898 5.433 4.903 8.77 1.235 4.105.296 7.929-.653 11.795q-.177.717-.349 1.437a8668 8668 0 0 0-5.368 22.948v.001l-.004.016q-1.833 7.874-3.676 15.748c-1.912 8.163-3.832 16.324-5.752 24.485v.002a25723 25723 0 0 0-3.299 14.029q-.567 2.421-1.126 4.844l-.001.004c-.887 3.836-1.773 7.671-2.736 11.485-.24.939-.959 1.929-1.736 2.536-2.514 1.957-5.12 3.801-7.768 5.568-.594.397-1.309.617-1.965.818h-.001c-.283.088-.556.171-.803.265zm28.273-106.96c-.122-.629-.234-1.241-.344-1.839h-.001c-.231-1.259-.452-2.461-.73-3.648-.858-3.646-2.757-6.608-5.935-8.684-2.823-1.845-6.717-.314-7.486 2.958q-2.295 9.779-4.587 19.559-3.704 15.804-7.415 31.604-1.224 5.214-2.444 10.429l-.012.052c-2.721 11.62-5.44 23.239-8.259 34.833-.862 3.553-.966 6.96.085 10.432 1.01 3.333 2.541 6.291 5.553 8.317 3.151 2.123 7.08.677 7.942-3.008l4.808-20.55 4.828-20.63 5.777-24.675.089-.381 5.711-24.391 2.424-10.378zm-7.536-16.743a3 3 0 0 1 .083.182c.029.067.044.103.072.124q.371.278.745.551l.001.001c.476.349.952.697 1.411 1.068 5.352 4.315 7.432 10.204 6.326 16.65-1.107 6.477-2.681 12.874-4.253 19.27a694 694 0 0 0-1.763 7.278 76771 76771 0 0 1-9.969 42.422l-.004.018-.022.096a99345 99345 0 0 0-6.752 28.719c-.092.395-.153.798-.235 1.337v.001c-.043.279-.091.594-.152.963a32 32 0 0 1 1.552-.942c2.035-1.183 3.836-2.23 4.028-4.889.041-.577.186-1.148.332-1.719q.07-.273.136-.547 1.982-8.427 3.969-16.852c2.395-10.161 4.79-20.323 7.171-30.488 1.18-5.036 2.346-10.077 3.512-15.117 2.457-10.627 4.915-21.254 7.512-31.847 1.322-5.398.185-10.282-2.788-14.454-3.094-4.338-6.206-6.07-10.916-1.833zm-66.174-55.908c6.728-1.299 13.398-1.663 20.605-.711v-.004q.131-.034.334-.073c.394-.077.954-.188 1.433-.453a97 97 0 0 0 3.01-1.758c1.046-.628 2.092-1.256 3.162-1.842.989-.545 1.167-1.168.87-2.2-.855-2.97-1.69-5.947-2.398-8.955-.267-1.141-.777-1.543-1.906-1.709-7.741-1.153-15.416-.824-23.034.916-5.687 1.299-10.751 3.99-15.855 6.702l-1.274.676c-15.215 8.054-24.681 20.613-29.87 36.752-.468 1.466-.166 2.332 1.001 3.283 1.139.925 2.23 1.911 3.32 2.896 1.061.958 2.121 1.916 3.227 2.819.475.391 1.562.526 2.099.251a49 49 0 0 0 5.8-3.456c.82-.573 1.62-1.493 1.937-2.421 2.278-6.689 5.244-13.004 9.563-18.641 4.632-6.052 10.165-10.564 17.976-12.072m19.416-4.997c.199.77.403 1.557.609 2.372-28.946-2.514-47.316 10.521-56.801 37.379-.589-.523-1.17-1.028-1.74-1.525-1.552-1.351-3.028-2.636-4.396-4.024-.406-.41-.314-1.597-.082-2.305 2.703-8.208 6.578-15.791 12.37-22.283 9.759-10.943 22.125-16.275 36.652-16.743 2.192-.071 4.389.063 6.587.198 1.144.07 2.288.14 3.431.181 1.211.047 1.856.603 2.131 1.79.379 1.632.797 3.252 1.239 4.96m-54.069 39.155c3.472-10.536 8.897-19.105 17.264-25.91-.691 1.069-1.394 2.119-2.092 3.162-1.584 2.363-3.143 4.691-4.485 7.138-1.755 3.202-3.341 6.57-4.416 10.046-.913 2.942-3.044 3.984-5.759 5.313zm57.995-37.834c-.509.292-1.042.598-1.608.927-.2-.784-.395-1.539-.585-2.273-.56-2.167-1.073-4.149-1.537-6.145-.082-.34.177-.959.475-1.152 1.193-.778 2.419-1.508 3.764-2.31q.76-.453 1.58-.946a555 555 0 0 0 .595 2.279c.567 2.165 1.097 4.186 1.566 6.22.082.36-.286 1.025-.638 1.249-1.124.724-2.284 1.39-3.612 2.151m-27.217-9.378c8.484-3.368 17.25-4.288 26.267-3.07-2.297 2.08-4.664 2.896-7.873 2.707-4.041-.237-8.109.005-12.176.248-1.709.102-3.417.204-5.123.27-.36.015-.72.004-1.095-.155" clip-rule="evenodd"/>
</svg>
