<svg xmlns="http://www.w3.org/2000/svg" width="550" height="550" fill="none" viewBox="0 0 550 550">
    <path fill="#fff" fill-rule="evenodd" d="m280.52 502.707 7.566 3.827 10.678 5.401-.004.008c7.218-4.493 14.396-8.952 21.555-13.399l.063-.039.036-.023c15.354-9.537 30.623-19.022 46.016-28.678 2.484-1.766 4.788-.397 7.1.976 1.085.644 2.171 1.29 3.278 1.612 3.46 1.626 3.277-2.725 3.145-5.844-.037-.86-.069-1.627-.02-2.149-.122-2.121.571-3.599 2.524-4.502 7.061-4.376 14.117-8.766 21.175-13.156l.005-.003.005-.003.005-.003.005-.004.005-.003.005-.003.005-.003.005-.003c12.019-7.476 24.042-14.955 36.094-22.372 2.008-1.235 2.722-2.609 2.676-4.94l-.275-18.642v-.042c-.755-51.289-1.51-102.586-2.128-153.873-20.399-10.423-40.836-20.736-61.275-31.051l-.005-.002-.005-.002-.004-.003c-14.682-7.409-29.365-14.818-44.034-22.269-2.473-.991-2.618-2.174-2.776-3.462-.152-1.245-.317-2.588-2.609-3.951-12.548-8.655-25.25-17.029-37.957-25.407l-.001-.001c-9.387-6.189-18.778-12.38-28.112-18.688 12.554-8.223 22.575-19.521 27.64-33.806 6.909-17.497 3.02-41.361-17.585-46.573l-.138-.055c-2.018-.806-2.044-.816-2.126-3.133q-.07-2.076-.133-4.15c-.091-2.905-.181-5.81-.312-8.715-.16-3.616-5.888-8.102-9.429-7.446-2.667 1.07-5.283 2.28-7.904 3.49l-.003.002c-1.696.783-3.394 1.567-5.109 2.316.05 6.914.219 13.75.389 20.63v.002l.001.044.093 3.793c.164 4.864 3.986 12.84 9.954 10.358 13.919-5.893 21.437 3.901 18.757 17.257-2.175 11.08-7.992 20.937-17.005 27.758-.903-2.86-2.247-5.334-5.481-5.078-3.331.059-4.604 3.398-4.52 6.275v.065c-.027 2.524-.04 3.785-.652 4.596-.61.809-1.816 1.169-4.226 1.889l-.078.023c-7.977 2.289-11.376-.374-15.642-3.717-1.691-1.324-3.518-2.756-5.82-4.028-4.473 10.912 5.675 20.421 15.679 22.34 1.125.232 2.249.454 3.512.703h.002l.001.001c.751.148 1.55.305 2.428.481-9.926 7.189-19.942 14.142-29.963 21.098-7.232 5.02-14.466 10.042-21.672 15.156-5.195 3.902-11.105 6.451-17.224 8.501-2.369.89-2.78 1.188-2.533 3.654.273 2.742-.915 4.154-3.15 5.531-10.466 6.451-20.91 12.938-31.354 19.425l-.008.006-.006.003c-9.836 6.11-19.672 12.22-29.527 18.299-1.903 1.172-2.592 2.386-2.554 4.645.924 56.062 1.693 112.128 2.423 168.193.063 4.631.084 4.641 4.044 6.644l.06.03q7.465 3.777 14.929 7.556l.015.008.02.01.022.011.021.01.002.002.004.002c14.968 7.578 29.936 15.156 44.938 22.666 3.372 1.672 3.927 2.772 3.805 6.489.567 3.146 3.196 4.763 6.233 3.768.705-.267 1.347-.603 1.963-.925 1.829-.957 3.427-1.794 5.752-.339 29.598 15.029 59.122 29.96 88.726 44.931m-89.421-237.496c19.914 10.297 39.903 20.378 59.895 30.461h.002l.001.001h.001v.001h.001c14.62 7.373 29.242 14.748 43.838 22.208 1.503.764 2.726 1.113 4.364.088 9.043-5.793 18.201-11.42 27.358-17.047 13.156-8.084 26.309-16.166 39.115-24.734l-1.245-1.444-2.287-2.651c-13.797 8.367-27.448 16.897-41.108 25.432l-.001.001-.001.001h-.001v.001a7598 7598 0 0 1-19.781 12.331c-1.44.907-2.633 1.037-4.112.176-1-.629-1.99-1.094-2.961-1.55-1.678-.788-3.298-1.549-4.817-3.086 13.291-8.406 26.29-16.467 39.36-24.571 8.865-5.497 17.763-11.014 26.807-16.673-1.245-1.488-2.32-2.771-3.389-4.046l-.996-1.188c-13.718 8.361-27.324 16.835-40.934 25.313l-.004.003c-8.952 5.576-17.906 11.154-26.896 16.701-1.374.861-2.461.92-3.847.109-1.049-.649-2.096-1.152-3.133-1.65-1.578-.758-3.132-1.504-4.633-2.739 13.169-8.821 26.672-17.089 40.181-25.36 10.924-6.689 21.853-13.38 32.613-20.369l-1.036-1.224-.051-.061-3.268-3.86c-15.295 9.177-30.373 18.637-45.457 28.101-9.562 5.999-19.126 12-28.749 17.931-1.529.957-2.772 1.167-4.359.235-.957-.66-1.978-1.116-2.985-1.565-1.687-.752-3.333-1.487-4.567-3.139 16.667-10.456 32.981-20.586 49.408-30.785 9.945-6.175 19.932-12.376 30.064-18.691l-1.126-1.354-3.137-3.774c-19.408 11.497-38.533 23.496-57.657 35.494h-.001v.001h-.001l-.001.001-.001.001h-.002l-.001.001-.001.001-.001.001-.002.001h-.001c-7.735 4.853-15.469 9.706-23.223 14.525-1.579 1.004-2.902 1.26-4.594.172-1.04-.699-2.105-1.188-3.161-1.674-1.496-.687-2.974-1.367-4.341-2.622 15.404-10.051 31.058-19.695 46.713-29.34l.001-.001.002-.001c11.945-7.359 23.89-14.718 35.726-22.26 1.613-1.033 2.999-1.323 4.616-.281.06.037.185-.025.309-.088.058-.028.115-.057.166-.076-2.349-3.306-5.11-6.416-7.865-9.52-1.536-1.73-3.07-3.459-4.53-5.218-.84-.953-1.957-1.755-3.095-2.331-8.696-4.422-17.4-8.831-26.103-13.24l-.002-.001-.001-.001h-.002l-.001-.001-.002-.001-.001-.001h-.002l-.002-.001c-9.435-4.78-18.87-9.559-28.295-14.356-1.436-.731-2.549-.651-3.872.202l-1.251.807c-3.425 2.213-6.852 4.428-10.409 6.408-4.008 1.912-5.784 5.609-7.575 9.338-.533 1.111-1.069 2.225-1.665 3.296l.267.22.267.221c6.266-3.81 12.499-7.674 18.69-11.596 1.151-.735 2.154-.887 3.372-.227.96.599 1.96 1.058 2.947 1.512v.001c1.829.84 3.618 1.663 5.042 3.321-11.193 7.291-22.403 14.318-33.877 21.113-7.237 3.743-11.235 10.009-15.028 16.851.945.08 1.52-.156 2.041-.475q9.265-5.762 18.537-11.516h.001l.009-.006c11.49-7.132 22.98-14.265 34.445-21.435 1.314-.823 2.431-1.067 3.859-.244 1.013.641 2.051 1.122 3.078 1.598 1.692.783 3.352 1.552 4.81 2.997-12.406 8.193-25.11 15.973-37.808 23.75-14.102 8.636-28.197 17.268-41.87 26.457-1.662 2.484-3.242 5.021-4.906 7.69l-.001.002c-.611.98-1.233 1.978-1.874 2.998m72.259-112.04c-1.516-1.764-2.247-3.558-1.453-6.418l-.005-.008c39.401 45.439 78.125 91.383 116.773 137.457 1.428 1.689 1.617 3.419 1.596 5.414-.31 25.475-.516 50.937-.722 76.397v.012c-.285 35.225-.57 70.446-1.13 105.69l-4.262-2.116-2.92-1.449-.084-1.832-.003-.05v-.009l-.001-.012-.038-.819-37.034 23.009-.572.356-33.664 20.916c-.977-32.019-1.313-64.051-1.649-96.087v-.01c-.258-24.675-.517-49.352-1.068-74.024-.047-2.222.642-3.537 2.562-4.725 11.078-6.796 22.094-13.671 33.108-20.544 14.056-8.773 28.109-17.543 42.29-26.148.622 2.842.49 5.677.357 8.525-.086 1.841-.172 3.687-.055 5.545.017 1.815-1.024 2.629-2.352 3.448-8.86 5.478-17.702 10.984-26.544 16.489l-.002.001-.001.001-.002.001-.002.001-.002.001-.002.001-.002.001-.001.001c-11.268 7.016-22.535 14.031-33.838 20.988-1.524.937-2.163 1.966-2.137 3.814.422 18.755.604 37.513.786 56.269.266 27.35.531 54.695 1.54 82.016 9.506-5.872 18.89-11.713 28.276-17.555 10.923-6.799 21.848-13.599 32.969-20.451.009 3.389-.024 6.244-.059 9.263v.009l-.001.008v.046c-.014 1.231-.029 2.49-.041 3.824q-.034 2.587-1.693 4.381c.652.997 1.304 1.988 2.045 3.116l.012.018.024.036.343.522c1.745-35.186 1.791-70.883 1.837-106.58v-.002c.031-24.092.062-48.184.616-72.12.016-1.705-.446-3.015-1.542-4.309l-9.362-11.105c-34.158-40.523-68.313-81.041-102.891-121.203m33.731 299.92c.281 18.918.561 37.839.822 56.769v.008c-28.229-13.926-56.267-28.185-84.309-42.446h-.001l-.001-.001-.007-.003-.03-.015-.022-.011-.022-.012-.015-.007-.007-.004-.008-.004c-9.056-4.605-18.112-9.211-27.176-13.806-.533-.445-1.235-1.109-1.247-1.689-.074-3.692-.067-7.384-.06-11.24q.005-1.78.005-3.615c16.95 8.16 33.668 16.709 50.387 25.259l.001.001h.001l.001.001h.001v.001h.001c16.703 8.542 33.409 17.085 50.353 25.243-.262-39.579-.902-78.123-1.55-117.207-.13-7.779-.259-15.579-.386-23.413a38255 38255 0 0 0-99.002-50.06c-1.924-.966-2.806-2.092-2.713-4.292.098-2.056.052-3.999.007-5.942-.054-2.3-.108-4.599.077-7.083 20.779 10.145 41.377 20.635 61.976 31.125l.004.002.003.002.003.001.004.002.003.002.004.002.003.001.004.002c16.089 8.194 32.18 16.389 48.359 24.419 2.272 1.134 2.986 2.478 3.016 4.948.405 37.7.963 75.367 1.521 113.048v.001zm-112.694-34.284c.045-.927.092-1.904.007-2.91l2.795 1.107 1.766.699c.729-22.926.195-45.93-.339-68.932-.308-13.296-.617-26.59-.681-39.869.281-2.09-1.229-2.798-2.743-3.508-1.423-.667-2.85-1.335-2.793-3.157.028-.93.022-1.86.015-2.939v-.003c-.003-.523-.007-1.081-.007-1.691 19.279 9.352 38.366 19.08 57.455 28.81l.001.001h.001l.002.001h.001l.002.001.001.001.006.003c12.5 6.371 25 12.742 37.556 19.009.343.181.693.347 1.037.511h.001v.001h.001c1.801.856 3.456 1.643 3.262 4.146l.206 12.57c.604 36.981 1.208 73.908 1.714 110.914-18.777-9.162-37.374-18.622-55.974-28.084l-.007-.004-.006-.003-.004-.002-.003-.001-.002-.002-.003-.001-.003-.001-.002-.001c-13.409-6.822-26.82-13.645-40.302-20.357-3.199-1.34-3.089-3.616-2.96-6.309m169.694-22.105c6.73-4.232 13.489-8.483 20.485-12.712l.008-.017-.002 3.346v.045c-.002 1.937-.003 3.677.002 5.417.004 1.179-.835 1.701-1.659 2.214l-.134.083c-4.818 3.024-9.635 6.048-14.469 9.047l-5.209 3.233c-8.565 5.317-17.131 10.635-25.728 15.898-1.63.999-2.407 2.154-2.201 4.078.067.829.068 1.576.07 2.3v.002c.004 1.415.007 2.744.493 4.435 9.45-5.384 18.559-11.126 27.685-16.878 6.898-4.348 13.806-8.702 20.879-12.913.017.666.037 1.287.057 1.876v.005c.041 1.225.078 2.315.061 3.403-.011.677-.012 1.255-.013 1.752-.004 1.664-.006 2.428-.351 2.978-.292.467-.833.779-1.833 1.356h-.001c-.5.289-1.116.643-1.872 1.117a6052 6052 0 0 1-42.559 26.426c-1.743 1.071-2.52 2.256-2.31 4.267.062.804.057 1.523.053 2.216-.01 1.442-.018 2.773.569 4.517 7.888-4.814 15.64-9.647 23.401-14.485 8.135-5.071 16.28-10.149 24.601-15.217 0 .801.016 1.553.032 2.268.037 1.686.069 3.167-.129 4.615-.105.782-1.18 1.584-1.991 2.096a6299 6299 0 0 0-17.475 10.916l-.004.002-.001.001h-.001v.001h-.002v.001c-13.414 8.398-26.804 16.783-40.409 24.977-.833-22.392-1.036-44.779-1.239-67.167v-.003c-.163-17.92-.326-35.84-.811-53.765-.206-2.1.504-3.402 2.36-4.536 9.475-5.766 18.869-11.635 28.263-17.503l.003-.002.005-.004h.001l.001-.001h.001v-.001h.001c10.671-6.666 21.341-13.332 32.13-19.848.756 2.213.605 4.25.197 6.165-.159.751-1.207 1.407-2.028 1.92l-.126.08a2710 2710 0 0 1-18.056 11.243l-5.283 3.272-.008.006c-7.672 4.754-15.345 9.509-23.059 14.194-1.718 1.046-2.537 2.205-2.344 4.255.132 1.396.115 2.805.098 4.158v.003a76 76 0 0 0-.01 1.714c1.472.669 2.333.048 3.128-.526.174-.125.345-.249.518-.356 6.408-3.874 12.724-7.856 19.037-11.835l.001-.001.001-.001h.001l.001-.001h.001l.001-.001.001-.001h.001l.002-.001.001-.001h.001l.001-.001.001-.001h.001c9.307-5.867 18.607-11.73 28.181-17.236 0 .921.011 1.808.022 2.67v.003c.028 2.22.054 4.275-.118 6.31-.063.752-1.214 1.559-2.033 2.075-3.745 2.378-7.514 4.712-11.283 7.047l-1.093.677-1.079.669-1.532.951-.448.278a5881 5881 0 0 0-8.369 5.213l-.036.022c-7.331 4.572-14.662 9.144-22.049 13.623-3.21 1.745-2.887 4.472-2.53 7.487.143 1.21.292 2.466.22 3.723 9.095-5.047 17.842-10.599 26.59-16.152 7.618-4.836 15.236-9.672 23.087-14.176.496 1.512.853 7.946.34 8.925-.361.689-1.02 1.31-1.692 1.735a2554 2554 0 0 1-18.72 11.764c-9.345 5.821-18.69 11.638-28.068 17.4-1.176.723-1.739 1.554-1.672 2.928.049.837.041 1.611.033 2.362-.018 1.689-.034 3.262.606 5.181 10.02-5.937 19.405-11.819 28.886-17.762 6.657-4.172 13.361-8.374 20.367-12.646.03.583.066 1.11.099 1.6l.001.001v.001c.065.956.121 1.771.102 2.581a78 78 0 0 0-.01 2.809c.015 1.501.023 2.25-.297 2.813-.319.561-.962.937-2.244 1.688a80 80 0 0 0-2.33 1.405c-9.021 5.676-18.089 11.303-27.151 16.926a9012 9012 0 0 0-15.605 9.698c-1.873.773-2.293 2.222-2.146 4.074.047.77.045 1.467.043 2.14-.004 1.471-.009 2.829.507 4.584 9.844-5.725 19.185-11.599 28.584-17.511m59.476 42.324c-10.936 6.837-21.868 13.672-32.973 20.34h-.004c-.292-2.664-.231-5.116-.17-7.579v-.006c.046-1.865.092-3.737-.015-5.713-.084-2.179.844-3.368 2.612-4.46a5216 5216 0 0 0 17.717-10.986l.004-.002.004-.003.004-.002.004-.003.004-.003.004-.002.004-.003.007-.004c8.027-4.992 16.055-9.985 24.118-14.919 2.109-1.289 2.907-2.654 2.865-5.124-.451-19.473-.664-38.946-.877-58.417v-.008c-.288-26.28-.575-52.556-1.446-78.822-9.542 5.608-18.291 11.093-27.182 16.667l-.005.003c-5.231 3.28-10.511 6.59-16.031 9.975-.493-2.918-.432-5.606-.37-8.329.055-2.45.111-4.928-.235-7.627l22.49-13.985c11.316-7.037 22.762-14.154 34.378-21.379.851 29.738 1.165 59.482 1.478 89.227.285 27.068.57 54.138 1.261 81.205.1 2.041-.635 3.208-2.336 4.258-8.489 5.183-16.897 10.44-25.302 15.695m-236.308 1.433c.074 2.744.144 5.353-.083 8.371h-.004c-11.569-5.664-23.001-11.472-34.435-17.282h-.001v-.001h-.001l-.003-.001-.002-.002h-.002c-9.406-4.78-18.814-9.56-28.3-14.261-2.226-1.113-3.054-2.398-3.083-4.914-.313-28.177-.731-56.36-1.149-84.544s-.836-56.366-1.148-84.543c.171-.093.279-.159.357-.207l.001-.001c.164-.101.204-.125.44-.154q.25.095.504.189h.001c.53.196 1.061.392 1.561.643 8.304 4.319 16.708 8.513 25.113 12.706l.001.001h.001c12.811 6.392 25.623 12.785 38.082 19.625-.817 2.772-.68 5.568-.539 8.439.107 2.191.216 4.425-.095 6.727-9.176-4.114-18.083-8.727-26.991-13.341h-.001c-8.627-4.469-17.256-8.938-26.134-12.955-.13 27.045.352 54.112.834 81.181.339 19.092.679 38.185.804 57.272-.033 1.541.488 2.314 1.857 2.998a10256 10256 0 0 1 48.224 24.331c.58.295 1.077.535 1.502.741 1.248.604 1.885.912 2.214 1.42.344.528.354 1.274.376 2.795.006.435.013.933.028 1.508.013 1.126.042 2.202.071 3.257v.001zm223.4-57.937c0-1.315 0-2.591-.604-3.983l-.008-.012c-2.309.903-4.261 2.216-6.18 3.507l-.001.001c-1.097.738-2.183 1.468-3.32 2.111-2.08 1.175-4.122 2.421-6.288 3.742-1 .61-2.026 1.236-3.094 1.878 0-.954-.012-1.867-.023-2.749V387c-.028-2.241-.054-4.285.115-6.313.067-.765 1.168-1.6 1.974-2.117l.541-.345c4.696-2.998 9.392-5.995 14.201-8.798 1.974-1.147 2.768-2.516 2.545-4.738-.122-1.229-.127-2.47-.133-3.874-.003-.678-.006-1.394-.022-2.166-4.087 1.536-7.505 3.782-10.965 6.056-2.548 1.675-5.119 3.365-7.998 4.797-.374-3.339-.34-6.275.021-9.173.088-.705 1.125-1.419 1.877-1.894l.285-.181.005-.002.001-.001c4.708-2.984 9.418-5.968 14.212-8.808 1.73-1.025 2.595-2.213 2.381-4.25a28 28 0 0 1-.064-2.252c-.002-1.419-.003-2.76-.494-4.414-3.243 1.618-6.21 3.526-9.187 5.44h-.001c-2.864 1.841-5.738 3.689-8.877 5.291-.352-3.297-.285-6.237.034-9.143.076-.693 1.13-1.403 1.877-1.878l.269-.17c4.556-2.892 9.113-5.785 13.759-8.528 2.69-1.273 2.558-3.639 2.422-6.076-.039-.691-.078-1.388-.053-2.068-.126-2.515-.731-2.893-2.835-1.612-2.151 1.284-4.209 2.585-6.259 3.883h-.002v.001h-.002v.001l-.002.001-.004.003-.003.001c-2.948 1.865-5.882 3.721-9.058 5.501-.311-3.314-.298-6.267.088-9.181.097-.719 1.076-1.458 1.815-1.928l.001-.001.001-.001h.001l.002-.001.001-.001.001-.001h.001l.001-.001.002-.001c4.557-2.908 9.115-5.817 13.769-8.565 1.667-.983 2.461-2.126 2.23-4.041-.088-.726-.066-1.463-.044-2.211.041-1.395.083-2.828-.582-4.299-3.434 1.501-6.465 3.468-9.524 5.453-2.463 1.598-4.944 3.207-7.666 4.594.05-.857-.001-1.694-.049-2.495-.138-2.306-.259-4.309 2.086-5.616 3.048-1.887 6.062-3.791 9.07-5.692 6.6-4.17 13.173-8.322 20.019-12.237.6 22.134.847 44.262 1.095 66.391.203 18.148.406 36.297.803 54.451.051 2.176-.495 3.549-2.478 4.75-4.754 2.812-9.385 5.726-14.012 8.639-5.789 3.643-11.573 7.283-17.593 10.719 0-.768-.016-1.496-.033-2.195-.038-1.642-.072-3.119.126-4.563.109-.785 1.176-1.592 1.986-2.108l1.691-1.075v-.001h.001l.001-.001c4.55-2.895 9.104-5.793 13.768-8.495 3.018-1.486 2.898-3.892 2.765-6.528v-.005c-.037-.744-.075-1.506-.044-2.27-.105-2.151-.735-2.491-2.549-1.365-1.876 1.166-3.698 2.308-5.505 3.44-3.882 2.433-7.695 4.823-11.824 7.316-.546-3.335-.408-6.203-.084-9.013.096-.857 1.264-1.764 2.146-2.327 4.952-3.163 9.916-6.308 14.981-9.282 1.928-1.13 2.907-2.415 2.592-4.696-.098-.766-.098-1.495-.098-2.212m12.662-120.124c-11.154 7.074-22.308 14.149-33.764 20.443v.005c-1.16-1.379-2.341-2.787-3.576-4.259l-.054-.065-.023-.027-3.315-3.949c7.676-4.842 15.299-9.566 22.967-14.318l.018-.011.001-.001.008-.004.002-.002a4605 4605 0 0 0 16.942-10.532c-19.955-10.92-40.369-21.08-60.789-31.244h-.001l-.001-.001h-.001l-.001-.001h-.001l-.001-.001h-.001l-.001-.001c-14.833-7.383-29.669-14.767-44.333-22.445-1.218-.621-2.415-1.478-3.306-2.503-2.339-2.783-4.72-5.517-7.099-8.248l-.001-.001c-4.384-5.035-8.76-10.061-12.858-15.367 2.062.469 3.708 1.361 5.294 2.22h.001l.002.001.001.001c.668.361 1.325.717 1.997 1.033 7.006 3.494 14.024 7.005 20.971 10.613 1.235.693 2.433 1.45 3.631 2.207h.001a96 96 0 0 0 3.05 1.875c.669.388 1.295.862 1.929 1.341 1.424 1.077 2.886 2.182 4.947 2.406-.123-1.192-.819-1.587-1.447-1.944-.144-.082-.285-.162-.414-.249-13.894-9.331-27.799-18.642-41.704-27.954l-5.244-3.512c-6.762-3.86-10.525-7.707-15.187-13.793-.089-.105-.111-.27-.148-.547-.022-.166-.049-.371-.1-.629 14.059 8.854 27.836 18.137 41.617 27.422l.001.001c8.536 5.752 17.073 11.504 25.679 17.156 2.209 1.634 2.222 2.377-.265 4.439a77180 77180 0 0 0 108.096 54.697c.051.178.09.298.118.384.043.132.059.183.054.233-.213.443-.674.751-1.119 1.048-.188.126-.374.249-.536.38-7.401 4.421-14.718 9.061-22.035 13.702M247.72 310.662c-21.483-10.82-42.965-21.64-64.306-32.746l.004-.004c1.814-3.264 3.561-6.115 5.523-9.207 1.226-1.915 1.323-1.961 3.343-.957 2.97 1.476 5.929 2.977 8.887 4.479q1.925.977 3.852 1.951l17.71 8.959.011.005c24.054 12.166 48.109 24.333 72.133 36.556 2.109 1.075 3.608.945 5.591-.299 7.321-4.545 14.615-9.12 21.906-13.694 14.875-9.33 29.742-18.655 44.815-27.713l2.327 2.755.03.036.198.234 4.581 5.425c-14.116 9.108-28.395 17.921-42.675 26.734-11.086 6.842-22.173 13.685-33.186 20.667-1.625 1.029-2.902 1.054-4.611.185-15.344-7.86-30.739-15.613-46.133-23.366m-112.63 35.474v-.002c-.385-24.362-.769-48.72-.829-73.098 4.649 2.335 9.199 4.642 13.721 6.934l.008.004.003.001c7.98 4.045 15.868 8.043 24.043 12.074 2.045 1.008 2.751 2.234 2.78 4.502.281 23.217.705 46.408 1.128 69.602v.011c.325 17.75.649 35.502.909 53.271-7.744-3.452-15.229-7.31-22.721-11.172h-.001v-.001c-5.271-2.717-10.546-5.436-15.918-8.017-1.755-.878-2.461-1.986-2.436-3.906-.159-16.741-.423-33.473-.687-50.203m80.009-169.828c8.857-6.248 17.724-12.504 27.241-17.815l-.005.004a18 18 0 0 0-.079.781c-.025.302-.039.464-.105.597q-.874 1.73-1.745 3.463l-.002.004c-2.1 4.176-4.2 8.353-6.414 12.468-.622 1.155-1.777 2.163-2.915 2.877-13.375 8.486-26.859 16.799-40.342 25.111h-.001c-18.548 11.435-37.094 22.869-55.35 34.747 8.471 4.959 17.234 9.266 26.005 13.577v.001h.002c7.385 3.63 14.776 7.263 22.004 11.29l-2.121 3.421-1.098 1.771-3.716 5.993-30.226-15.289-36.314-18.37c8.452-5.103 16.762-10.454 25.07-15.803 17.231-11.095 34.454-22.184 52.915-31.048 9.481-5.283 18.333-11.528 27.196-17.78M423.97 276.402l.372.237h.009c.39 44.373 1.012 88.746 1.768 133.115.042 2.327-.596 3.7-2.621 4.939-6.769 4.104-13.434 8.263-20.099 12.422l-.002.001-.001.001-.002.001-.001.001-.002.001-.001.001-.002.001-.001.001c-7.52 4.692-15.039 9.385-22.708 13.997-.012-.622-.029-1.185-.045-1.708v-.006c-.033-1.059-.06-1.957-.035-2.856.042-1.423.027-2.515.016-3.375-.02-1.522-.031-2.313.297-2.923.356-.661 1.109-1.107 2.679-2.038l.002-.002a100 100 0 0 0 2.676-1.629c9.144-5.779 18.325-11.495 27.578-17.102 2.032-1.231 2.688-2.654 2.65-4.964-.66-40.094-1.264-80.195-1.747-120.293-.047-1.919.562-3.129 2.251-4.048 1.579-.862 3.105-1.823 4.632-2.784l.001-.001h.001l.001-.001q.977-.619 1.963-1.225l.366.233zM251.01 147.374l.076.029.106.04.111.041-.005.004c.004.779.061 1.547.118 2.313.171 2.274.339 4.524-.924 6.944-4.287 7.96-8.34 16.05-12.393 24.14l-.001.001v.001l-.001.001v.001l-.001.001c-7.898 15.765-15.796 31.528-25.421 46.327a17864 17864 0 0 1-30.752 49.74c-1.071 1.726-1.6 3.448-1.558 5.506.692 25.497 1.046 51.016 1.399 76.534v.001c.446 32.195.892 64.388 2.019 96.526h3.134c-3.222 4.121-8.325 2.978-7.8-2.301-.487-27.227-.95-54.458-1.414-81.688a89563 89563 0 0 0-1.48-85.346c-1.008-5.485.971-9.979 3.885-14.595 12.453-19.711 24.734-39.539 36.784-59.497 6.406-11.315 12.264-22.948 18.121-34.579v-.001h.001l.001-.003c5.113-10.154 10.227-20.308 15.704-30.249l.108.041.067.025.11.041zm26.022-44.805c5.59-14.944.987-31.248-18.056-25.742l-.174-5.12c-.22-6.446-.433-12.706-.586-18.967-.021-.71.395-1.806.936-2.087 2.325-1.198 4.708-2.292 7.267-3.466h.001c.876-.403 1.773-.814 2.695-1.242.409 4.398.507 8.643.605 12.916.061 2.66.123 5.33.26 8.054.034.958.265 1.907.714 2.852.976-1.147.935-2.456.893-3.793-.033-1.056-.067-2.13.401-3.158 14.33 2.42 22.008 17.195 20.626 30.752-1.34 19.724-13.856 37.771-30.858 47.481-.741-2.872-.816-5.723-.891-8.597-.046-1.736-.092-3.48-.285-5.242-.075-1.138.294-1.923 1.168-2.65 7.127-5.913 12.235-13.268 15.284-21.991M123.15 267.392c-.654 3.773 1.302 133.621 2.033 135.897q1.133-.536 2.255-1.075l.004-.002.004-.002.002-.001h.001v-.001h.001c1.67-.801 3.329-1.596 5.012-2.338 1.402-.617 1.919-1.575 1.839-3.07-.517-21.576-.764-43.159-1.01-64.741v-.001c-.161-14.145-.323-28.291-.561-42.434a718 718 0 0 0-.34-15.388c-.029-.849-.285-2.1-.865-2.449-1.911-1.14-3.904-2.141-6.011-3.199-.772-.388-1.56-.783-2.364-1.196m107.687-86.141.06.056.071.067h.005c-1.103 2.738-2.477 5.353-3.851 7.969-.902 1.718-1.804 3.436-2.63 5.189-.769 1.558-1.81 2.755-3.297 3.679a31480 31480 0 0 0-70.774 44.029c-1.609 1.004-2.965 1.193-4.641.227-1.577-.907-3.205-1.721-5.028-2.632-.852-.426-1.747-.874-2.7-1.362a68799 68799 0 0 1 92.484-57.498q.107.1.216.199zm52.952 301.333c.049.707.1 1.444.137 2.223h-.004c-19.847-9.673-39.507-19.687-59.169-29.701-12.651-6.444-25.303-12.888-38.006-19.242-1.655-.596-2.193-1.776-2.113-3.477.069-1.453.055-2.908.04-4.496-.007-.717-.015-1.462-.015-2.245 18.709 9.172 37.26 18.602 55.814 28.033l.001.001h.001l.001.001h.001l.001.001h.001l.001.001c13.438 6.83 26.878 13.662 40.38 20.397 1.89.953 2.911 2.016 2.797 4.234-.068 1.372.027 2.752.132 4.27m-94.996-234.711c-2.015 1.174-4.057 2.364-5.982 3.93v.005l3.268 1.996.079.048 2.264 1.383-1.96 3.147-.016.026-2.165 3.475c-11.449-5.783-22.701-11.466-34.49-17.417 23.944-14.885 47.342-29.434 70.74-43.982l.391.315c-1.886 6.631-6.283 11.352-12.281 14.851l-2.029 1.225c-13.851 8.361-27.733 16.741-41.168 25.747.099.156.178.309.249.448.134.262.243.475.419.569 1.179.622 2.365 1.229 3.552 1.836h.001v.001h.001l.001.001h.001l.001.001.002.001c1.382.707 2.765 1.414 4.135 2.145 1.105.588 1.962.143 2.852-.411a20240 20240 0 0 1 25.86-16.065c.062.107.126.201.181.282.095.138.16.234.134.276q-.658 1.09-1.313 2.181v.001c-1.77 2.946-3.542 5.893-5.407 8.776-2.188 2.218-4.731 3.7-7.32 5.209m163.698-1.844v.001c-.855.6-1.693 1.188-2.482 1.527v-.004l-.788-.933-1.301-1.539-.008-.008-2.376-2.812 1.317-.753c.652-.372 1.347-.77 2.228-1.271-.55-.342-1.001-.644-1.393-.906h-.001c-.711-.477-1.229-.824-1.798-1.043-4.767-1.844-8.388-5.019-11.403-9.097-1.235-1.707-2.635-3.289-4.036-4.872-1.477-1.668-2.954-3.337-4.238-5.154l.059-.074.091-.115.194-.248 59.959 30.328.557.282 11.766 5.951c-1.524 1.739-24.7 16.28-27.72 17.422-1.041-1.247-2.142-2.566-3.456-4.137a307 307 0 0 1 5.11-3.2l.001-.001c1.914-1.181 3.794-2.34 5.788-3.645.479-.33.994-.616 1.516-.907 1.347-.75 2.747-1.53 3.746-3.159a87 87 0 0 1-1.324-.758c-.879-.509-1.72-.997-2.594-1.417-1.191-.573-2.106-1.054-2.837-1.438h-.001c-1.435-.755-2.158-1.135-2.865-1.107-.719.029-1.421.479-2.836 1.386a91 91 0 0 1-2.638 1.642 266 266 0 0 0-5.022 3.101c-.849.533-1.722 1.081-2.63 1.645l-.738-.865-.634-.743-.002-.002-3.07-3.598c3.549-2.281 6.137-3.948 9.707-6.25-1.55-1.549-3.351-2.394-5.186-3.255h-.001c-1.045-.491-2.102-.987-3.129-1.621-1.712-1.034-3.664.336-5.532 1.647m56.558 3.626c-3.39-2.446-97.483-49.839-99.78-50.263 1.527 2.039 3.175 3.92 4.822 5.8l.001.001c1.551 1.771 3.101 3.54 4.547 5.438 2.298 2.957 5.166 4.973 8.476 6.636 15.477 7.775 30.93 15.6 46.383 23.424l.009.005.009.005.009.004.009.005.009.004.009.005.009.004.01.005.002.001.003.002.003.001.003.001.002.002.003.001.003.002.003.001q7.575 3.837 15.153 7.671 2.502 1.265 5.008 2.523l.001.001.001.001h.001l.001.001h.001l.001.001h.001l.001.001q2.736 1.374 5.467 2.755c.945.479 1.865.84 2.898.202 1.526-.948 3.06-1.883 4.689-2.876l.001-.001.022-.014.066-.039.015-.01.009-.005q1.03-.628 2.12-1.295m-74.902 209.297-.002.001-.003.002c-5.95 3.72-11.906 7.443-17.893 11.156-.823.517-1.974 1.302-2.062 2.066-.365 3.197-.206 6.422.017 10.164 13.812-8.2 27.338-16.685 40.891-25.187l.001-.001c5.66-3.551 11.325-7.104 17.018-10.642.793-.512 1.835-1.386 1.89-2.154.154-2.257.132-4.525.107-7.026-.009-.971-.019-1.977-.019-3.031-13.462 8.097-26.687 16.365-39.941 24.65h-.001l-.001.001h-.001v.001zm-27.831-252.878-.415.411h-.005c-6.515-3.305-13.039-6.596-19.563-9.887l-.007-.003-.007-.004-.007-.003-.007-.004-.007-.003-.007-.004c-10.755-5.425-21.511-10.851-32.231-16.342-1.625-.835-2.835-.827-4.351.177l-1.504.966h-.001l-.001.001h-.001c-3.79 2.437-7.551 4.854-11.534 7.013-.036-.19-.076-.337-.107-.454-.05-.183-.079-.291-.04-.365.662-1.305 1.305-2.623 1.949-3.94 1.689-3.46 3.379-6.921 5.418-10.164.975-1.548 2.869-2.574 4.666-3.548l.002-.001.003-.002.005-.002c.373-.202.743-.403 1.099-.605.562-.319 1.768.24 2.562.634l3.548 1.781c11.721 5.882 23.444 11.764 35.087 17.796 1.601.84 3.1 2.066 4.322 3.41l.368.418.631.713c3.465 3.925 6.944 7.865 10.135 12.011m-65.693 73.015c2.964 2.094 5.168 3.453 8.485 1.073 10.936-7.136 22.149-13.962 33.358-20.786h.001l.001-.001c14.776-8.994 29.544-17.984 43.656-27.673q-4.641-3.074-8.976-.374c-10.045 6.31-20.13 12.542-30.214 18.774-15.49 9.572-30.977 19.142-46.311 28.987m63.692-19.832c10.404-6.292 20.837-12.602 30.96-19.197.861.995 1.611 1.864 2.403 2.783l.009.01.464.538.623.722c-13.821 8.979-27.84 17.633-41.86 26.288h-.001c-10.191 6.292-20.383 12.583-30.501 19.001-2.638 1.973-4.745.735-7.067-.627l-.312-.184-.194-.112-.096-.056c14.354-10.288 29.93-19.707 45.572-29.166m1.843 18.904.602-.375.481-.299c13.043-8.109 26.045-16.193 39.118-24.323v.004l.685.833.028.034.041.049.006.009c.891 1.082 1.741 2.116 2.756 3.347L321.2 275.27l-39.781 24.737c-1.643-.869-3.238-1.708-5.216-2.749l-.412-.216zm-32.906-73.217.107.071v.005c-16.569 10.3-32.927 20.471-49.41 30.72l-23.053 14.333c3.957-8.45 5.339-9.874 13.218-14.683q5.23-3.25 10.461-6.495c13.389-8.309 26.777-16.618 40.098-25.035 3.414-2.4 5.468-1.014 8.579 1.084m-97.016 216.539c.807 1.056.786 2.745.734 6.879v.001c-.009.756-.02 1.594-.026 2.524v-.004c-10.451-5.284-20.704-10.471-30.9-15.629l-.045-.022-.068-.035-.285-.144-1.171-.592-18.158-9.185c1.176-1.134 7.027-4.507 8.177-4.503 6.997 2.476 13.668 6.036 20.333 9.592h.001v.001c4.221 2.252 8.44 4.503 12.737 6.476 2.405 1.354 4.203 2.159 5.544 2.76 1.614.723 2.568 1.151 3.127 1.881m70.373-252.617c-.126-.126-.256-.256-.386-.382a22493 22493 0 0 1 6.195-12.113c.998.127 1.95.158 2.87.188 1.727.057 3.345.11 4.959.786.901.492 1.848.933 2.799 1.375 2.362 1.099 4.746 2.207 6.504 4.136 2.478 2.971 4.995 5.864 7.506 8.75l.001.001c4.38 5.033 8.742 10.047 12.85 15.42-9.197-4.367-18.088-8.928-27.043-13.523l-.01-.005c-3.29-1.688-6.589-3.381-9.915-5.07-2.77-1.432-3.512-1.042-5.681.099q-.304.16-.649.338m49.165 138.362c-.694-.415-1.431-.857-2.263-1.198l7.214-4.487c18.988-11.811 37.662-23.425 56.571-35.182l3.452 3.897c-11.57 7.899-23.568 15.234-35.567 22.57l-.002.001-.001.001h-.001l-.001.001-.001.001h-.001c-8.07 4.934-16.141 9.868-24.082 14.974-2.059 1.373-3.546.483-5.318-.578m-111.986 77.858v-.006c-.465-26.176-.929-52.336-1.241-78.534 3.431.928 3.49.962 3.557 3.776.138 11.55.382 23.108.625 34.667.488 23.184.977 46.376.618 69.522-2.885-.705-3.053-.869-3.104-3.46q-.223-12.98-.455-25.953v-.009zm41.73-258.595c10.002 7.563 12.25 9.263 25.186 4.911h.004l.425 8.293.003.065.004.085.002.024.003.066v.007l.002.034.003.056.251 4.902c-10.159 2.646-23.058-2.091-26.661-12.474-.781-2.461-.84-3.313.285-6.342zm-28.801 56.777c16.964-11.97 33.974-23.877 51.072-35.658-.621 3.267-2.28 5.426-4.788 7.161a6157 6157 0 0 0-21.98 15.3l-.013.008-.014.01-.003.002v.001h-.001l-.003.003-.002.001-.001.001-.002.001-.001.001-.001.001-.002.001-.001.001c-9.178 6.407-18.355 12.814-27.573 19.159-5.347 3.49-11.408 5.855-17.418 8.022-1.142-2.499-.928-3.263 1.735-4.112 6.913-2.205 13.087-5.716 18.996-9.903m-27.12 59.806c2.892 2.128 5.181 3.609 8.506 1.245 7.699-5.065 15.578-9.866 23.478-14.616 4.447-2.286 6.812-6.477 9.168-10.651q.347-.617.698-1.231l-.5-.462-26.805 16.67zm83.299-100.875-.104-2.901-.005-.004c-.131-2.591-.239-4.835-.337-6.899v-.005l-.001-.005a920 920 0 0 0-.434-8.551c-.416-4.65 5.88-5.124 6.556-.761.949 9.602 1.272 19.367 1.247 29.01-.294 2.167-1.592 3.318-3.486 3.234-1.907-.08-2.986-1.294-3.078-3.562-.139-3.404-.26-6.81-.358-9.556m102.267 189.747c-9.547 6.024-19.093 12.047-28.864 17.67-.622-3.427-.609-3.477 1.869-5.019 6.057-3.697 12.069-7.474 18.081-11.251h.001v-.001h.002v-.001h.002v-.001c9.425-5.921 18.85-11.841 28.45-17.457.89 2.982.798 3.377-1.382 4.738-6.089 3.705-12.121 7.511-18.152 11.317m-8.925 21.516c9.439-5.948 18.875-11.893 28.534-17.461.84 2.579-.059 3.939-2.003 5.136-6.463 3.903-12.861 7.918-19.258 11.933-8.827 5.541-17.653 11.08-26.648 16.321-.891-3.003-.815-3.356 1.386-4.725 6.036-3.672 12.013-7.438 17.989-11.204m-.075 20.141c9.34-5.896 18.678-11.791 28.248-17.283v.005c.903 2.499.113 3.817-1.76 4.972-6.363 3.841-12.661 7.803-18.958 11.766l-.001.001c-8.848 5.567-17.695 11.135-26.724 16.361-.87-3.02-.807-3.352 1.382-4.717 5.978-3.634 11.896-7.37 17.813-11.105m9.301 38.537h-.002v.001h-.001v.001c-9.246 5.798-18.491 11.596-27.884 17.149-.849-3.141-.823-3.389 1.201-4.653 5.832-3.565 11.622-7.21 17.413-10.856l.001-.001.001-.001.001-.001.002-.001h.001l.001-.001.002-.001.001-.001c9.19-5.786 18.38-11.573 27.735-17.034 1.021 2.701.845 3.369-1.457 4.805-5.695 3.494-11.355 7.044-17.015 10.594m18.747-35.658c-9.429 5.515-18.683 11.331-27.937 17.147v.001c-5.8 3.645-11.599 7.289-17.441 10.86-2.226 1.386-2.289 1.642-1.462 4.734 9.438-5.417 18.661-11.234 27.883-17.05 5.815-3.668 11.63-7.335 17.498-10.901 2.162-1.348 2.239-1.693 1.459-4.791m-27.635 57.15h.001c9.084-5.704 18.166-11.407 27.414-16.857v-.004c.71 2.533.097 3.944-1.936 5.191-6.404 3.858-12.736 7.836-19.066 11.814l-.004.002-.001.001-.002.001-.001.001c-8.336 5.238-16.67 10.476-25.169 15.435-.668-3.347-.655-3.49 1.55-4.864 5.761-3.528 11.479-7.118 17.196-10.708l.002-.001.002-.002.003-.001.002-.002.002-.001.003-.002.002-.001zM254.05 195.044l.001.001c.515.308 1.058.632 1.648.942h-.004c-11.693 7.275-22.916 14.255-34.136 21.234l-.17.106-.195-.168-.196-.168q.691-1.198 1.375-2.4c1.219-2.138 2.439-4.278 3.749-6.361.367-.581 1.05-.981 1.709-1.368q.256-.15.501-.3 3.02-1.882 6.048-3.751l.001-.001c4.409-2.724 8.818-5.449 13.166-8.272 2.599-1.826 4.291-.815 6.503.506m-4.181-133.65c-.144-5.027-.285-9.968-.033-15.217l.004.004c.694.505 1.342.962 1.952 1.392 1.41.995 2.617 1.846 3.722 2.816.588.517.92 1.584.962 2.424.156 3.118.261 6.24.366 9.363.067 1.988.133 3.976.213 5.963.025 1.146.121 2.293.217 3.44v.001c.122 1.446.244 2.89.22 4.333-.248 2.852-2.831 2.146-4.162.474-1.97-2.23-3.213-4.817-3.297-7.807a412 412 0 0 0-.164-7.185Zm1.092-16.431q-.013-.404-.033-.806v-.005q1.352-.605 2.703-1.213l.001-.001h.001l.004-.002a665 665 0 0 1 7.681-3.416c2.785-.34 5.637 1.894 7.46 4.376-.091.086-.179.184-.269.283-.197.22-.401.447-.655.566l-.718.336c-2.797 1.313-5.595 2.626-8.443 3.817-1.91.666-3.822-.904-5.571-2.34-.755-.62-1.48-1.215-2.161-1.595m53.525 132.401q-.115.285-.235.575c-3.952-1.785-7.81-3.774-11.668-5.764-2.987-1.54-5.974-3.08-9.005-4.526-3.41-1.503-5.712-4.29-8.011-7.073v-.001c-.714-.864-1.427-1.727-2.174-2.552.114-.097.191-.174.249-.234.143-.145.186-.188.423-.161 6.276 3.802 12.401 7.869 18.527 11.936l.001.001c3.951 2.623 7.901 5.246 11.893 7.799m73.002 80.077c.734.456 1.522.946 2.443 1.294l-13.474 8.383c-.59-.7-1.146-1.356-1.696-2.006l-.624-.738-.42-.496-.616-.729c1.769-1.602 3.699-2.744 5.646-3.895 1.28-.757 2.567-1.518 3.821-2.418 1.934-1.253 3.293-.408 4.92.605m19.536 145.134c.1.002.218.005.358-.003.844 2.356.029 3.73-1.987 4.889-2.354 1.339-4.632 2.782-6.912 4.224l-.001.001-.001.001h-.001l-.001.001-.001.001h-.001l-.002.001-.001.001c-2.343 1.482-4.686 2.966-7.111 4.338-.92-2.646-.861-3.402.802-4.461 3.776-2.397 7.593-4.733 11.409-7.067l.002-.001.001-.001q1.533-.937 3.065-1.877c.088-.053.208-.05.382-.047m-11.238-9.297c-1.467.912-2.959 1.838-4.482 2.788l-.004.004-.051-.235c-.407-1.871-.719-3.311.765-4.259 3.48-2.224 6.99-4.403 10.507-6.586q2.066-1.281 4.134-2.57c1.105 2.281 1.092 3.331-.328 4.242-3.437 2.205-6.906 4.359-10.521 6.604l-.002.001-.007.005-.009.005v.001h-.001zm4.831-23.094c-2.942 1.872-5.878 3.741-8.99 5.361v.004c-.768-3.146-.688-3.431 1.533-4.83 1.596-.949 3.158-1.953 4.721-2.957 2.883-1.854 5.766-3.707 8.85-5.208.722 3.18.667 3.381-1.546 4.772-1.541.931-3.055 1.895-4.568 2.858m-.205-19.952c-2.846 1.814-5.674 3.617-8.738 5.182-.744-2.398-.265-3.864 1.709-5.002 1.915-1.066 3.76-2.244 5.605-3.422h.001c2.372-1.515 4.743-3.028 7.259-4.302 1.012 2.84.894 3.331-1.286 4.7-1.542.927-3.043 1.884-4.539 2.837l-.006.004-.001.001-.001.001h-.001l-.001.001zm-2.723-22.536c2.755-1.769 5.508-3.537 8.458-4.962v.004c.747 3.184.718 3.344-1.521 4.755a229 229 0 0 0-4.3 2.694l-.001.001c-2.711 1.726-5.422 3.452-8.261 4.957-.949-2.755-.789-3.423 1.243-4.704 1.481-.882 2.931-1.813 4.381-2.744zm2.515-17.538c-2.645 1.679-5.283 3.354-8.089 4.794-.685-3.222-.643-3.449 1.587-4.864 1.438-.856 2.85-1.766 4.261-2.677 2.56-1.652 5.121-3.305 7.844-4.631.919 3.066.835 3.356-1.567 4.859-1.361.821-2.699 1.67-4.035 2.518zm-37.985-59.912c2.944-3.796 4.494-3.885 9.715-.34l-6.51 4.024-.203-.233c-1.103-1.267-2.064-2.37-3.002-3.451m-91.581-95.832c.284-.458.56-.904.886-1.427h.004c.813.97 1.54 1.841 2.228 2.663l1.767 2.112-.353.479-.043-.021-.008-.004-.01-.005-.076-.038-5.138-2.561.29-.467zm-72.912 98.147a32 32 0 0 0-.046-.618l1.697-1.11 1.768-1.158c.042 1.676-.714 2.596-1.6 3.247-.232.171-.712.003-1.192-.165-.217-.076-.434-.152-.627-.196m12.987 8.097-.004-.004zm4.392 2.652c-1.499-.707-2.975-1.404-4.392-2.652 15.681-10.094 31.52-19.889 47.363-29.687h.001l.002-.001.001-.001h.001l.001-.001h.001l.001-.001v-.001h.001l.001-.001c11.664-7.212 23.329-14.426 34.934-21.761 1.839-1.147 3.284-1.319 5.107-.193 1.002.623 1.995 1.102 2.982 1.577 1.441.695 2.865 1.382 4.271 2.497-15.645 10.271-31.582 20.093-47.522 29.917l-.003.002-.008.005c-11.661 7.187-23.324 14.375-34.875 21.74-1.697 1.084-3.074 1.285-4.821.176-1.018-.657-2.037-1.138-3.046-1.615m1.739-1.1c-.575-.343-1.171-.699-1.806-1.002 16.051-10.288 32.242-20.297 48.438-30.309l.002-.001.001-.001h.001v-.001h.001l.001-.001h.001v-.001h.001c9.514-5.881 19.029-11.763 28.519-17.704a52 52 0 0 0 1.589-1.029c.892-.594 1.366-.911 1.864-.954.567-.049 1.165.255 2.442.904l.001.001c.443.225.968.492 1.601.801.258.126.501.288.826.506.184.123.394.264.649.426-14.292 9.247-28.776 18.181-43.261 27.114-11.666 7.195-23.332 14.389-34.897 21.749-2.269 1.713-4.003.678-5.973-.498m106.075-40.125c-15.665 10.42-31.735 20.28-47.806 30.143h-.002v.001c-11.669 7.16-23.339 14.321-34.856 21.697-1.357.853-2.44 1.054-3.839.277-1.715-.951-3.458-1.851-5.362-2.834-.87-.449-1.773-.916-2.723-1.412 15.466-10.408 31.367-20.15 47.272-29.895h.001c11.604-7.11 23.211-14.221 34.652-21.593 2.176-1.373 3.953-1.642 6.099-.222.77.509 1.607.909 2.468 1.321 1.36.651 2.782 1.332 4.096 2.517m-4.124.706c-.787-.294-1.517-.75-2.225-1.192-1.601-1-3.082-1.925-4.818-.719-11.214 7.072-22.494 14.04-33.773 21.008h-.001v.001h-.001c-15.053 9.299-30.106 18.598-45.001 28.144 4.473 3.326 4.738 3.36 9.068.672 9.939-6.243 19.913-12.404 29.884-18.563 15.676-9.684 31.346-19.365 46.867-29.351m-108.817 89.98c-2.065-1.133-4.114-2.257-6.502-2.78l-.005.005c-.026 20.917.298 41.861.623 62.807v.002c.237 15.253.474 30.507.574 45.752.013 1.558.362 2.604 1.92 3.301 1.448.59 2.761 1.299 4.061 2.001h.001c2.006 1.083 3.984 2.152 6.392 2.745-.084-36.296-.71-72.517-1.344-108.801-.021-1.272-.135-2.31-1.529-2.956-1.471-.585-2.834-1.332-4.19-2.076zm5.396 111.311c-.229-13.715-.382-27.407-.535-41.093-.238-21.361-.476-42.706-1.006-64.098-.017-.718-.114-1.52-.454-2.121-.525-.915-5.51-2.973-7.115-3.032.28 24.402.643 48.804 1.006 73.208V387l.001.017v.034q.233 15.517.455 31.034l.002.201c.011 1.06.021 2.056 1.254 2.625 1.297.6 2.574 1.246 4.049 1.993.725.367 1.497.759 2.343 1.18m59.035-78.139c2.449.471 4.497 1.585 6.57 2.714 1.241.676 2.491 1.356 3.842 1.906 1.357.639 1.852 1.517 1.873 3.041.044 14.531.349 29.068.655 43.603.458 21.78.915 43.556.492 65.307-2.415-.706-4.447-1.783-6.509-2.876-1.262-.67-2.536-1.345-3.915-1.945-1.273-.597-1.79-1.424-1.781-2.823-.087-16.251-.341-32.497-.596-48.743-.314-20.06-.629-40.118-.626-60.179zm2.793 2.903c.346 31.816.84 63.488 1.336 95.261l.155 9.991c.021.772.185 1.911.693 2.238 2.067 1.332 4.251 2.512 6.918 3.444-.197-17.075-.439-34.136-.68-51.196v-.02c-.252-17.833-.505-35.664-.706-53.511v-.018c.025-1.133.052-2.337-1.168-2.859-1.331-.671-2.658-1.348-4.171-2.119l-.001-.001-.025-.013zm-7.043 105.123.004.003h-.004zm-.646-67.84c.389 22.604.777 45.196.646 67.84-1.092-.557-2.139-1.09-3.151-1.604l-.029-.015-.035-.018c-2.907-1.478-5.529-2.811-8.125-4.19-.408-.218-.677-.861-.819-1.365-.143-15.18-.394-30.355-.645-45.532v-.002c-.354-21.452-.709-42.905-.758-64.372 2.313.503 4.221 1.545 6.153 2.601 1.267.692 2.544 1.39 3.952 1.944 1.747.764 2.209 1.886 2.222 3.692.12 13.683.355 27.348.589 41.008zm-1.169 64.791c.32-24.774-.203-49.559-.726-74.345-.218-10.332-.436-20.665-.593-30.997-.021-.752-.285-1.848-.81-2.171-1.388-.849-2.857-1.562-4.474-2.347-.648-.315-1.32-.641-2.019-.992-.135 21.704.245 43.392.626 65.087.235 13.388.469 26.779.583 40.177l.002.133c.009.894.019 1.756 1.027 2.244 1.38.673 2.748 1.367 4.256 2.133.677.344 1.381.702 2.128 1.078m-47.325-132.088c2.632.735 4.718 1.872 6.858 3.04 1.227.669 2.472 1.348 3.848 1.967 1.281.613 1.701 1.453 1.705 2.835.02 6.526.107 13.053.195 19.583v.006l.015 1.104q.56 40.686 1.147 81.371c-.082.519 0 1.361.088 2.273.235 2.417.517 5.327-2.062 4.044-1.742-.825-3.459-1.7-5.177-2.574-1.273-.648-2.546-1.297-3.828-1.924-1.235-.605-1.344-1.638-1.353-2.806q-.217-16.78-.424-33.539v-.05c-.312-25.101-.624-50.183-1.016-75.325zm11.321 57.436v-.012c-.224-16.01-.447-32.021-.632-48.053.092-.958-.101-2.184-.899-2.73a54 54 0 0 1-1.463-.804c-1.61-.906-3.266-1.838-5.358-2.296.218 20.43.526 40.845.834 61.261v.003c.22 14.595.441 29.191.628 43.795 0 1.256.382 2.104 1.575 2.642 1.272.577 2.523 1.205 3.954 1.925l.007.003c.65.327 1.338.673 2.083 1.041-.2-18.945-.464-37.856-.729-56.768v-.003zm13.83 65.558c1.976 1.046 3.925 2.078 6.244 2.775l.005-.004c.051-28.116-.459-56.271-.968-84.405l-.001-.008v-.008c-.154-8.521-.308-17.04-.447-25.556-.105-.563-.491-1.293-.962-1.537-3.147-1.638-6.344-3.184-9.54-4.729l-.468-.227c-.126-.061-.302-.016-.55.048-.143.036-.31.079-.504.112-.03 21.071.304 42.163.639 63.255v.002c.238 15.03.476 30.06.583 45.082-.097 1.587.571 2.583 2.049 3.263 1.386.596 2.658 1.269 3.919 1.937zm-3.386-34.369c-.377-25.509-.752-50.976-1.012-76.554l-.005-.004c.844.532 1.826.967 2.796 1.396 2.366 1.046 4.66 2.061 4.693 4.387.59 21.57.802 43.116 1.014 64.673v.004c.133 13.452.265 26.909.49 40.378-2.739-.882-4.919-2.079-6.972-3.427-.492-.324-.572-1.5-.588-2.289-.135-9.533-.276-19.051-.416-28.564m-78.994-7.783a21 21 0 0 0-.839-.155c-.368-.062-.593-.1-.79-.198-1.203-.594-2.402-1.199-3.601-1.803a362 362 0 0 0-5.408-2.687c-1.155-.558-1.659-1.36-1.651-2.629-.149-16.283-.38-32.556-.611-48.828-.285-20.08-.57-40.157-.699-60.246 2.219.464 4.046 1.438 5.895 2.424 1.199.639 2.408 1.283 3.739 1.797 1.983.84 2.705 2.02 2.714 4.246-.037 16.552.31 33.096.657 49.638v.001c.408 19.481.816 38.961.598 58.448zM143.054 286.07c.382 35.024.928 69.892 1.495 104.895.017.874.101 2.172.647 2.537 2.037 1.365 4.196 2.617 6.989 3.297-.28-14.958-.447-29.908-.613-44.857-.223-20.005-.446-40.007-.941-60.021-.021-.773-.185-1.924-.693-2.239-1.46-.906-3.005-1.673-4.765-2.547-.671-.334-1.374-.683-2.115-1.061zm21.348 8.716c-2.056-1.119-4.104-2.232-6.418-2.651.024 20.463.333 40.924.643 61.385.238 15.757.476 31.514.584 47.273.004 1.29.172 2.323 1.545 2.961 1.591.742 3.158 1.538 4.724 2.334 1.262.641 2.524 1.283 3.798 1.896 1.974.949 2.419.604 2.386-1.634-.174-11.367-.321-22.737-.469-34.105q-.109-8.535-.224-17.068c-.072-5.627-.156-11.254-.24-16.881-.192-12.836-.384-25.672-.428-38.509 0-1.507-.525-2.402-1.898-3.04-1.385-.537-2.695-1.25-4.003-1.961m5.46 111.341c-.68-.34-1.315-.661-1.919-.966-1.471-.744-2.76-1.396-4.07-2.003-1.164-.538-1.638-1.336-1.634-2.625-.19-14.974-.417-29.941-.643-44.908-.303-20.059-.606-40.117-.823-60.189 2.17.48 3.878 1.455 5.535 2.402.431.246.859.49 1.29.723.685.521 1.038 1.772.924 2.705.187 17.488.428 34.951.67 52.416.241 17.472.483 34.945.67 52.445" clip-rule="evenodd"/>
</svg>
