<svg xmlns="http://www.w3.org/2000/svg" width="550" height="550" fill="none" viewBox="0 0 550 550">
    <path fill="#fff" d="m347.691 193.436.002-.002c1.987-2.121 3.93-4.194 5.785-6.34.313-.365.051-1.49-.263-2.097-2.834-5.457-4.833-11.145-4.959-17.362-.129-6.546 2.039-11.756 8.436-14.567 1.544-.678 3.003-1.599 4.414-2.536 3.787-2.509 7.738-2.477 11.791-.859 5.841 2.337 10.22 6.5 13.822 11.502 5.198 7.209 8.569 15.107 8.283 24.198-.172 5.46-2.172 9.874-7.413 12.387-1.435.689-2.79 1.546-4.143 2.401h-.001q-.625.397-1.253.786c-3.54 2.18-7.354 2.583-11.071.937-2.157-.957-4.165-2.256-6.171-3.555l-.002-.001c-.731-.473-1.462-.946-2.2-1.403-.43-.264-.811-.611-1.252-1.014h-.001a27 27 0 0 0-.738-.656q-.795.857-1.582 1.699c-1.737 1.862-3.436 3.684-5.086 5.545-.208.236-.067.965.145 1.333.201.351.517.637.832.923l.087.079.09.083q.102.093.198.189l7.43 7.449a81022 81022 0 0 1 74.612 74.867c.596.596 1 1.674.996 2.525-.035 4.441-.18 8.882-.42 13.316-.035.678-.611 1.556-1.199 1.936-2.195 1.412-4.469 2.713-6.77 3.94-1.215.651-1.744 1.435-1.854 2.877-.457 5.958-1.038 11.908-1.619 17.858v.006l-.141 1.442c-.098 1.004-.067 1.768 1.066 2.18a1583 1583 0 0 1 9.814 3.635l.006.003q2.622.978 5.245 1.952c.11.041.236.038.397.035q.126-.005.289 0 .165-.815.319-1.627c.225-1.178.45-2.349.743-3.504 1.18-4.685 3.908-8.177 8.173-10.49q.847-.458 1.7-.911c2.088-1.112 4.182-2.226 6.132-3.542 6.194-4.191 12.454-3.634 18.757-.506 8.154 4.042 14.132 10.463 18.914 18.024 5.802 9.169 9.518 19.04 9.024 30.106-.203 4.594-1.117 9.243-4.637 12.363-5.241 4.638-11.337 8.28-17.985 10.428-5.562 1.799-10.831-.506-15.609-3.43-8.487-5.198-14.575-12.638-19.04-21.392-1.166-2.285-2.076-4.702-2.986-7.121h-.001c-.54-1.435-1.08-2.87-1.674-4.278-.345-.819-.944-1.846-1.681-2.14-4.578-1.812-9.196-3.524-13.814-5.235l-3.231-1.198c-.142-.054-.302-.064-.522-.077h-.002l-.126-.007-.16-.012-.181-.018-.107.969-.053.471-.039.345v.002h-.001a177 177 0 0 0-.384 3.631 37277 37277 0 0 0-3.438 38.028l-.075.838-.056.617v.006l-.001.003v.012l-.001.002v.003c-.283 3.148-.566 6.296-.773 9.448-.09 1.364-.521 2.293-1.791 2.963-2.428 1.285-4.788 2.697-7.146 4.108l-.157.094c-.529.318-1.215.788-1.341 1.306-.567 2.36-1.051 4.742-1.535 7.123q-.222 1.096-.448 2.191l.173.146.071.06.23.193.296-.17q9.672-5.572 19.343-11.139l.116.094.091.074.101.082.114.094.068.056q-.114.619-.214 1.241c-.147.889-.294 1.777-.527 2.644-2.489 9.212-5.131 18.377-10.149 26.62-2.571 4.226-5.766 7.888-9.902 10.682-.661.448-1.306.92-1.95 1.393-.938.687-1.876 1.374-2.863 1.983-1.298.799-1.364 1.528-.616 2.818 4.489 7.754 7.676 16.017 9.134 24.876 1.258 7.633 1.36 15.23-1.725 22.544-1.729 4.093-4.433 7.319-8.369 9.522-4.728 2.646-9.408 5.382-14.069 8.146-6.331 3.755-12.865 3.344-19.435.917-8.491-3.136-15.331-8.679-21.129-15.453-2.729-3.187-5.128-6.664-7.523-10.135v-.001l-.492-.712-.487-.704q-.315-.456-.632-.909c-.737-1.055-1.313-1.298-2.34-.616-.153.103-.323.178-.493.254-.13.058-.259.116-.381.185-13.069 7.546-27.35 12.003-41.74 16.084-4.122 1.169-8.382 1.849-12.638 2.528-1.236.198-2.473.395-3.705.604-.533.09-1.427-.662-1.823-1.25q-3.511-5.226-7.03-10.45c-7.726-11.473-15.453-22.947-23.016-34.524-15.437-23.634-29.796-47.922-43.316-72.709-.65-1.191-1.322-2.371-2.01-3.581q-.493-.865-.997-1.758-.396.195-.733.356c-.438.211-.817.393-1.184.597q-5.54 3.071-11.079 6.145c-10.587 5.874-21.173 11.749-31.79 17.567-1.564.858-1.929 1.635-1.415 3.336 1.909 6.335 2.693 12.779 1.066 19.318-1.156 4.653-3.638 8.29-7.997 10.595-2.577 1.362-5.07 2.881-7.562 4.4l-.579.353-.816.496c-6.009 3.646-12.015 2.854-17.938-.086-8.146-4.049-14.124-10.47-18.902-18.036-5.755-9.118-9.479-18.918-8.993-29.921.33-7.448 3.223-13.348 10.337-16.676 2.302-1.074 4.524-2.372 6.625-3.802 6.119-4.167 12.348-3.587 18.577-.498 8.726 4.32 14.869 11.344 19.898 19.474l.412.667.005.008.383.619.267.434.266.432c15.249-8.455 30.364-16.836 45.562-25.26q-.087-.277-.152-.52c-.09-.323-.168-.604-.299-.86-11.681-22.979-18.694-47.428-23.12-72.728-3.167-18.11-5.131-36.33-5.79-54.699-.1-2.774-.234-5.547-.368-8.321a660 660 0 0 1-.369-8.32c-.047-1.27-.431-2.05-1.662-2.528a95 95 0 0 1-6.291-2.729c-1.094-.517-1.741-.427-2.337.722-1.646 3.167-4.19 5.417-7.311 7.142-3.771 2.081-7.483 4.285-11.16 6.535-5.88 3.594-11.991 3.594-18.259 1.297-6.97-2.552-12.713-6.934-17.699-12.301-10.698-11.517-17.565-24.915-19.392-40.67-.616-5.315-.204-10.56 1.666-15.641 1.705-4.633 4.83-7.969 9.126-10.321l1.762-.961c2.973-1.616 5.95-3.234 8.786-5.06 5.994-3.857 12.192-3.763 18.573-1.388 7.346 2.732 13.309 7.483 18.452 13.242 10.09 11.29 16.632 24.296 18.416 39.482a33.4 33.4 0 0 1 .223 4.885c-.035 1.179.416 1.799 1.462 2.21 1.235.487 2.454 1.013 3.753 1.574l.002.001h.001c.593.256 1.202.519 1.838.789l.072-1.396v-.007c.045-.869.085-1.638.116-2.407q.115-2.888.227-5.776l.001-.02v-.001c.262-6.748.525-13.496.854-20.24.036-.705.682-1.638 1.314-2.011 3.887-2.315 7.811-4.572 11.733-6.829l.014-.008q2.178-1.252 4.352-2.508c.295-.171.571-.373.924-.631h.001l.001-.001c.171-.125.361-.264.579-.419l-26.033-26.517c-11.962-12.185-23.876-24.322-35.73-36.395-1.877 1.101-3.736 2.184-5.579 3.258l-.005.002-.006.004-.003.001v.001h-.001c-4.232 2.465-8.385 4.884-12.497 7.369-6.311 3.815-12.795 3.501-19.4 1.063-7.656-2.827-13.928-7.695-19.38-13.622-11.557-12.552-18.958-27.127-20.878-44.234-.647-5.778-.165-11.47 1.905-16.977 1.858-4.943 5.213-8.495 9.8-11.015l2.006-1.1c3.287-1.796 6.578-3.594 9.73-5.604 6.358-4.053 12.944-3.974 19.722-1.524 8.196 2.967 14.798 8.27 20.529 14.66 9.933 11.078 16.605 23.854 19.349 38.558 1.074 5.758 1.164 11.54.121 17.338-.145.795.177 1.979.733 2.548 8.812 9.015 17.656 17.999 26.5 26.984l.002.002.002.002.002.002.002.003.002.002.003.002.002.002.002.002.005.006.012.012a22710 22710 0 0 1 12.886 13.098c8.15 8.295 16.284 16.601 24.359 24.966 1.207 1.251 2.093 1.463 3.641.53a576 576 0 0 1 17.147-9.887c.991-.552 2.371-.838 3.484-.674q54.253 8.15 108.482 16.476c1.184.18 2.486.847 3.344 1.686 4.176 4.085 8.295 8.23 12.414 12.375h.001v.001h.001l.002.002q2.384 2.402 4.775 4.799c.34.34.694.666 1.113 1.053q.291.268.632.586l-.004-.004q.916-.984 1.822-1.949m31.894 236.847v-.01a4.5 4.5 0 0 1 .106-1.029c2.144-8.91 3.222-17.985 4.108-27.087.308-3.177.666-6.351 1.023-9.525v-.002l.001-.002v-.008l.001-.002v-.005c.731-6.494 1.462-12.987 1.778-19.5.566-11.641.9-23.293 1.234-34.946l.001-.006v-.029l.001-.006v-.012c.178-6.222.357-12.444.571-18.665.055-1.564-.337-2.662-1.455-3.783a110510 110510 0 0 1-109.191-109.494c-1.168-1.172-2.395-1.815-4.034-2.061-29.953-4.52-59.903-9.071-89.853-13.622l-.033-.004-.201-.031-15.898-2.415a68 68 0 0 0-1.811-.24q-.467-.057-.964-.121c-.035.238-.071.453-.105.653-.065.386-.12.715-.138 1.048q-.12 2.22-.243 4.439v.011c-.232 4.191-.464 8.383-.624 12.579-.799 20.787-.027 41.552 1.745 62.253 1.685 19.671 4.735 39.149 9.686 58.31 3.771 14.594 8.169 29.008 15.143 42.356 9.643 18.463 19.765 36.691 30.223 54.707 14.387 24.788 30.35 48.58 46.311 72.369 2.639 3.934 5.279 7.867 7.911 11.805.882 1.318 1.728 1.561 3.21 1.321 9.236-1.485 18.162-4.094 27.121-6.713l1.346-.393c8.882-2.595 17.052-6.649 25.241-10.712v-.001q1.731-.86 3.465-1.714c.181-.088.338-.223.514-.375a7 7 0 0 1 .294-.244c-4.489-8.17-7.558-16.77-9.059-26.115-2.002.988-3.969 1.957-5.913 2.914l-.016.008c-3.678 1.812-7.274 3.583-10.861 5.369-8.419 4.195-17.41 6.711-26.398 9.226h-.001l-.008.002-.008.003-.007.002-.006.001c-1.937.542-3.875 1.084-5.806 1.644-.572.164-1.685-.267-2.026-.773q-2.368-3.517-4.742-7.032v-.001l-.001-.001v-.001l-.001-.001-.001-.001v-.001l-.001-.001-.001-.001c-6.127-9.078-12.255-18.157-18.158-27.377-11.588-18.106-22.247-36.762-32.908-55.423l-.002-.003-.001-.002-.002-.002-.001-.003-.001-.002-.002-.002-.001-.003-.001-.002-.002-.003a6214 6214 0 0 0-6.408-11.199c-10.522-18.334-17.899-37.738-22.372-58.271a345 345 0 0 1-7.365-53.696c-.961-16.703-1.514-33.41-.98-50.137.028-.895.099-1.787.17-2.696v-.003l.001-.002q.055-.682.103-1.38c.207.011.382.017.534.023.284.01.493.017.697.048q25.56 3.881 51.117 7.769l7.049 1.071a7172 7172 0 0 1 32.256 4.943c.957.149 2.031.639 2.705 1.317 30.016 30.039 60 60.109 89.941 90.218.639.643 1.109 1.812 1.082 2.717-.103 3.13-.197 6.26-.291 9.39v.023l-.001.004v.006c-.535 17.874-1.07 35.744-3.268 53.548-1.517 12.273-3.387 24.445-6.052 36.507-.153.694-.761 1.76-1.266 1.827-3.329.445-5.973 2.185-8.623 3.929-1.453.957-2.908 1.914-4.478 2.66.29.278.517.384.741.38 8.169-.094 15.186 3.117 21.458 7.946 16.009 12.325 25.676 28.651 29.545 48.385 1.529 7.793 1.443 15.613-1.807 23.096-.381.879-.834 1.727-1.287 2.573-.21.392-.42.784-.622 1.179 3.167-1.368 6.127-2.968 8.965-4.755 1.415-.894 2.767-1.991 3.885-3.234 3.994-4.449 5.339-9.941 5.723-15.711.564-8.432-1.176-16.515-4.148-24.344-5.103-13.453-12.908-25.029-24.257-34.041-.566-.45-1.262-.737-2.041-1.059l-.001-.001a24 24 0 0 1-1.246-.543zm-54.531 23.187q-.237-.37-.442-.695a39 39 0 0 0-.817-1.258c-12.642-18.655-25.009-37.483-36.62-56.804-.671-1.114-1.768-2.109-2.893-2.783-4.449-2.675-8.958-5.249-13.467-7.824l-.058-.033-.056-.032-1.507-.861c-3.709-2.121-7.562-3.849-11.854-4.43-7.597-1.027-13.677 2.274-16.884 9.209-1.854 4.002-2.336 8.263-2.415 12.606-.008.458-.056.917-.105 1.375q-.032.295-.059.589l-.295.02-.15.01-.051.004-.092.005c-.05-.201-.121-.405-.191-.61-.152-.439-.304-.879-.248-1.291.137-1.014.25-2.036.363-3.059v-.002c.311-2.809.622-5.623 1.432-8.283 2.466-8.099 8.985-12.333 17.428-11.917 3.858.192 7.484 1.309 10.808 3.183a2301 2301 0 0 1 29.071 16.648l.089.052c3.405 1.982 6.856 3.992 9.903 6.459 11.352 9.193 18.741 21.09 23.139 34.935.141.445.293.885.414 1.232l.131.383c.621-.634 1.226-1.272 1.824-1.903h.001c1.45-1.529 2.867-3.023 4.412-4.369.976-.846 1.313-1.411.729-2.552a250 250 0 0 1-2.559-5.19c-1.692-3.497-3.385-6.995-5.383-10.305-7.287-12.062-16.468-22.446-28.726-29.702-10.99-6.506-22.106-12.8-33.219-19.092l-.932-.528c-4.006-2.266-8.369-3.673-12.951-4.284-7.103-.945-13.54.545-18.879 5.527-3.638 3.395-5.7 7.746-7.056 12.465-.112.39-.241.775-.369 1.16l-.001.001-.001.002-.178.539-.6-.059c-.018-.161-.053-.325-.088-.49-.075-.355-.15-.71-.064-1.023 1.787-6.547 4.805-12.38 10.772-16.017 5.204-3.173 10.492-6.207 15.779-9.241 2.414-1.386 4.829-2.771 7.235-4.17a37 37 0 0 0 1.354-.84l.751-.477-.166-.327-.092-.183-.107-.214c-.26-.516-.498-.99-.752-1.455-.48-.884-.971-1.763-1.462-2.641l-.002-.002v-.001c-.911-1.63-1.821-3.259-2.664-4.922-10.925-21.599-16.268-44.864-19.925-68.549-2.364-15.296-3.595-30.741-3.932-46.232-.039-1.725-.611-2.321-2.301-2.572a6435 6435 0 0 1-31.171-4.691q-6.214-.946-12.427-1.887c-.413-.062-.829-.088-1.274-.116a42 42 0 0 1-.69-.048q-.045.33-.089.601v.002a8 8 0 0 0-.107.906 506 506 0 0 0 1.983 64.194c1.392 14.712 3.662 29.294 7.045 43.684 3.249 13.83 7.157 27.519 13.806 40.11 8.808 16.691 17.957 33.218 27.495 49.502 12.846 21.928 26.644 43.268 41.034 64.225.273.396.559.784.869 1.207l.002.002.005.007c.182.248.373.507.575.787l12.717-7.343 35.201-20.324zM202.04 179.567l-.013.015-3.843-3.999-.114-.119-.032-.033-4.532-4.715c.405-.24.781-.465 1.14-.679l.001-.001c.667-.398 1.274-.761 1.886-1.115q1.8-1.041 3.597-2.086l.001-.001.002-.001.001-.001h.001l.002-.001.001-.001h.001l.001-.001.002-.001c3.882-2.255 7.763-4.508 11.69-6.684.945-.522 2.246-.812 3.297-.655a46165 46165 0 0 1 108.513 16.452c.733.114 1.596.373 2.098.871 5.504 5.455 10.965 10.956 16.424 16.455l.005.005.004.004.004.004 2.249 2.265c.083.083.133.197.205.358.04.092.088.199.152.324l-4.601 4.947-.03.033-5.455 5.863-4.075 4.367-.027.028-.003.004-.004.004-.003.004-.004.004-.004.003-.003.004-.004.004-.003.004-.004.004c-3.749 4.015-7.499 8.031-11.225 12.069-.356.386-.589.885-.823 1.383v.001c-.108.231-.217.462-.337.682.18.114.361.232.541.345 7.779-8.331 15.556-16.662 23.356-25.018l12.343-13.221c1.87 2.414 3.575 4.617 5.437 7.024l-15.719 16.856-.569.61-17.455 18.716.182.231.148.196h.001v.001l.001.001.001.002c.321-.236.655-.459.989-.682.724-.484 1.447-.967 2.03-1.584 6.554-6.955 13.067-13.951 19.579-20.946l.005-.006 2.227-2.391c.368-.396.683-.841.868-1.103q.09-.127.135-.187l66.753 66.211 18.041 17.893-1.133.663-1.182.692-.007.004a848 848 0 0 1-5.346 3.117q-4.821 2.785-9.645 5.565l-.01.005-.009.006-.01.005-.009.006-.057.032-.056.033-.057.032c-9.447 5.447-18.895 10.894-28.304 16.405-1.639.957-2.493.71-3.763-.564a120727 120727 0 0 0-63.89-64.135 176136 176136 0 0 1-45.255-45.417c-1.215-1.223-2.493-1.858-4.218-2.117a39766 39766 0 0 1-69.059-10.477l-.008-.001-.034-.005-.067-.01-.067-.011-.067-.01-.067-.01-.066-.01-.066-.01-.066-.01-.066-.01-.066-.01-19.195-2.923q-4.15-.629-8.303-1.25l-.025-.004-.025-.004q-4.152-.621-8.303-1.25a21 21 0 0 1-1.227-.24l-.002-.001h-.002a66 66 0 0 0-.882-.187c.258-.18.475-.34.67-.482.341-.25.611-.448.898-.615q2.204-1.278 4.413-2.543c3.117-1.79 6.233-3.579 9.311-5.435 1.294-.776 2.062-.584 2.968.483a31 31 0 0 0 3.022 3.069c.477.424 1.029.765 1.581 1.107l.001.001c.25.155.5.309.743.472l.095-.11.172-.202.001-.001.003-.003v-.001l.082-.096.066-.077-71.618-72.948-.208.098-.208.098c.274.812.549 1.623 1.004 2.96l-1.46.878-10.136 6.104c0-.186-.01-.33-.018-.444-.012-.18-.02-.286.026-.36 4.955-8.158 5.249-17.044 3.52-26.005-3.747-19.412-13.28-35.46-29.02-47.581-6.428-4.951-13.622-8.19-22.144-7.762 8.303-8.036 19.04-9.565 29.393-4.351 9.29 4.673 16.428 11.756 22.347 20.121 7.433 10.51 12.584 22.027 13.756 34.963.323 3.563-.028 7.196-.377 10.806-.078.81-.157 1.62-.227 2.428-.102 1.176.012 1.889.827 2.716 9.563 9.699 19.106 19.417 28.65 29.135l9.547 9.72 7.921 8.064c9.217 9.382 18.433 18.765 27.657 28.138.354.36.768.662 1.181.965q.286.207.563.422l.29-.323.277-.309.005.005zm199.175 271.311c.814-.577 1.627-1.119 2.425-1.652 1.744-1.163 3.42-2.282 4.894-3.624 2.685-2.438 5.413-4.994 7.428-7.969 5.677-8.393 8.366-18.064 10.996-27.715.096-.354.129-.726.168-1.178.022-.247.045-.519.083-.825l-.148.075-.14.07-.431.213-.019.01c-.442.217-.815.401-1.175.608l-4.78 2.76a2354 2354 0 0 1-12.033 6.923c-.383.219-.837.313-1.292.406h-.001l-.001.001h-.001l-.327.069q-.15.033-.295.073a12 12 0 0 0-.025-.604c-.025-.426-.049-.851.025-1.258.392-2.143.807-4.282 1.223-6.42.816-4.202 1.632-8.403 2.266-12.632.717-4.794 1.176-9.627 1.634-14.457v-.003l.001-.014q.152-1.615.309-3.228l.149-1.519v-.004c.731-7.477 1.463-14.956 2.043-22.444.159-2.057.201-4.123.243-6.189.047-2.313.094-4.625.305-6.924.212-2.297-.537-3.183-2.61-3.888-4.473-1.521-8.883-3.223-13.292-4.925l-.004-.001-1.945-.75c-.476-.183-.887-.529-1.297-.876a11 11 0 0 0-.573-.461l.353-.518a278124 278124 0 0 1 47.253 17.646l.185.069 1.123.419c-.084-.854-.178-1.671-.269-2.462-.205-1.78-.395-3.431-.414-5.084-.019-1.627-.548-2.379-2.089-2.948-10.423-3.839-20.825-7.735-31.227-11.631l-8.428-3.155c-.477-.179-.951-.372-1.425-.564l-.248-.101-.255-.103.129-.541c.304.042.614.068.923.095.674.057 1.347.115 1.962.332 2.282.802 4.545 1.652 6.807 2.502 1.22.458 2.441.917 3.664 1.367.42.155.854.278 1.44.443l.003.001.464.131.133.038.149.043.304.089c0-1.122.003-2.211.006-3.277.008-2.584.016-5.03-.026-7.476-.023-1.289.537-1.952 1.631-2.571 3.178-1.796 6.338-3.621 9.498-5.447l.003-.002.004-.002.003-.002.004-.002.003-.002.004-.002.004-.002.003-.002.004-.002c2.933-1.694 5.867-3.389 8.815-5.06 1.149-.651 1.713-1.388 1.698-2.756-.023-1.668.031-3.338.086-5.008v-.011c.028-.873.057-1.747.074-2.621.019-.942.014-1.884.009-2.875q-.004-.708-.005-1.457c-.197.088-.37.159-.527.224-.28.115-.507.208-.715.329l-4.638 2.676-.007.004c-13.502 7.789-27.005 15.578-40.467 23.431-.662.388-1.223 1.509-1.262 2.317-.155 3.005-.252 6.011-.348 9.018-.086 2.673-.171 5.347-.299 8.018-.269 5.684-.403 11.374-.537 17.064-.274 11.613-.548 23.225-1.971 34.782-.485 3.94-.884 7.891-1.283 11.842-.984 9.759-1.969 19.517-4.249 29.099-.054.239-.007.501-.007.235 8.506 5.817 14.668 13.289 20.152 21.811zm-86.675-90.847-.357.188c6.429-10.571 5.896-21.294 3.184-32.029-4.144-16.401-12.588-30.321-25.461-41.383-6.229-5.355-13.195-9.396-21.603-10.239-.887-.091-1.786-.07-2.841-.046h-.002c-.539.013-1.119.026-1.759.026.244-.158.459-.299.653-.427l.105-.07.146-.096.001-.001c.439-.29.767-.508 1.106-.703q4.5-2.6 9-5.194h.002l.035-.021.002-.001h.001l.001-.001.001-.001h.001l.001-.001.001-.001h.001l.001-.001c7.734-4.459 15.467-8.917 23.171-13.427 1.466-.858 2.313-.713 3.493.475 7.939 7.995 15.889 15.98 23.839 23.964a18781 18781 0 0 1 30.183 30.359c.823.831 1.442 2.199 1.54 3.371.569 6.817.008 13.54-3.849 19.412-1.49 2.266-3.603 4.41-5.916 5.798-8.178 4.904-16.451 9.652-24.724 14.4q-4.158 2.383-8.309 4.776c-.304.175-.615.336-1.046.56l-.291.151zm-41.92 8.963c-8.29-4.943-16.822-9.05-27.028-8.35q.088-.08.169-.165c.114-.116.228-.231.363-.309a4077 4077 0 0 1 6.4-3.694 1805 1805 0 0 0 13.263-7.694c1.154-.679 1.665-.08 2.241.596l.158.184c4.269 4.908 9.063 9.224 14.669 12.556 6.186 3.681 12.748 6.256 20.094 4.814 2.618-.514 5.17-1.768 7.55-3.054 2.762-1.494 5.474-3.083 8.185-4.672l.002-.001c2.02-1.183 4.04-2.367 6.081-3.512.686-.384 1.886-.615 2.474-.274 1.799 1.048 3.625 2.058 5.451 3.07l.003.001c6.179 3.421 12.365 6.847 17.556 11.727 2.921 2.744 5.632 5.71 8.344 8.676a310 310 0 0 0 4.044 4.369c1.135 1.195 1.017 2.587.895 4.029l-.017.201c-.827 10.035-2.674 19.906-4.693 29.757-.642 3.132-1.434 5.245-4.994 6.558-3.191 1.178-6.139 3.021-9.087 4.863-1.289.806-2.578 1.611-3.888 2.361-.514.294-1.038.574-1.599.874l-.002.001q-.426.228-.888.478l-.389-.903-.006-.013-.002-.004-.269-.623-.102-.239-.075-.174c-7.303-17.001-17.522-31.866-32.893-42.493-5.453-3.77-11.249-7.046-17.044-10.323l-.003-.001c-2.568-1.452-5.137-2.904-7.676-4.4-1.086-.639-2.181-1.264-3.275-1.89-1.342-.768-2.684-1.535-4.012-2.327m-6.817-22.51c-.311-.425-.56-.767-.78-1.127a264 264 0 0 0-2.908-4.594c-2.233-3.473-4.466-6.948-6.296-10.62-4.869-9.76-7.691-20.141-7.005-31.179.556-8.922 3.665-16.409 12.01-21.082 9.323-5.22 18.575-10.569 27.828-15.919l.002-.001.004-.003.005-.002.004-.002q5.446-3.152 10.899-6.292c.325-.186.628-.411.948-.649q.236-.177.49-.358a13 13 0 0 1-.273-.396v-.001l-.001-.001c-.142-.213-.256-.384-.4-.527l-1.805-1.813c-7.23-7.264-14.46-14.527-21.73-21.75-.502-.498-1.333-.8-2.055-.91-10.897-1.701-21.803-3.359-32.708-5.017-1.892-.289-3.785-.561-5.717-.839h-.003q-1.394-.2-2.822-.408c-.015.294-.033.548-.049.777-.029.408-.052.733-.045 1.058.494 18.953 2.254 37.773 5.61 56.448 3.175 17.659 7.554 34.966 14.896 51.395 1.573 3.517 3.391 6.926 5.21 10.334v.001a335 335 0 0 1 2.72 5.172c.498.973 1.086 1.192 2.015.569a27 27 0 0 1 1.586-.962q.434-.249.919-.536h.004l-.326-.454-.225-.309zm52.132-6.091a63 63 0 0 1-.155-1.693v-.001c-.141-1.672-.322-3.83-.723-5.946-3.136-16.468-10.874-30.509-22.815-42.206-5.801-5.684-12.406-10.181-20.458-12.168-9.996-2.47-18.142 1.619-21.94 11.14-2.235 5.598-2.529 11.47-1.803 17.358 2.261 18.35 10.544 33.736 23.61 46.589 5.739 5.645 12.336 10.051 20.333 11.992 9.039 2.191 16.781-1.082 20.862-8.946 2.403-4.633 3.034-9.67 3.089-16.119m78.141 154.291c-.067-.558-.129-1.202-.197-1.905-.171-1.766-.377-3.905-.787-6.005-3.151-16.174-10.764-30.004-22.438-41.564-5.868-5.809-12.544-10.423-20.729-12.465-10.047-2.505-18.279 1.646-22.05 11.27-2.144 5.472-2.489 11.219-1.772 16.977 2.396 19.275 11.161 35.28 25.343 48.373 5.386 4.97 11.521 8.753 18.773 10.482 8.918 2.125 16.578-1.117 20.698-8.934 2.497-4.739 3.073-9.925 3.155-16.229zm-284.8-392.317c-.157-1.392-.277-2.657-.39-3.835-.221-2.319-.41-4.3-.782-6.247-3.053-15.998-10.564-29.659-22.097-41.082-5.774-5.72-12.352-10.243-20.403-12.254-9.788-2.442-17.93 1.674-21.588 11.043-2.14 5.484-2.446 11.219-1.728 16.981 2.25 18.08 10.411 33.226 23.324 45.872 5.515 5.402 11.85 9.624 19.474 11.576 10.02 2.564 18.259-1.427 21.835-11.109.988-2.679 1.453-5.551 1.857-8.052.168-1.039.326-2.014.506-2.885zm29.6 119.282c-.138-1.244-.243-2.375-.342-3.428v-.002c-.192-2.056-.357-3.816-.681-5.547-2.799-14.892-9.804-27.577-20.58-38.15-5.182-5.084-11.097-9.098-18.283-10.909-9.768-2.462-17.769 2.18-20.52 11.893-1.283 4.532-1.534 9.146-.95 13.779 2.082 16.519 9.534 30.372 21.306 41.944 5.08 4.99 10.917 8.891 17.969 10.682 9.29 2.364 16.927-1.458 20.082-10.513.838-2.404 1.232-4.961 1.576-7.191v-.001c.142-.919.275-1.783.427-2.557zm21.498 6.907c0-.933-.007-1.813-.013-2.656v-.001c-.015-1.898-.028-3.609.04-5.317.051-1.254-.412-1.897-1.54-2.352-1.66-.665-3.298-1.384-4.859-2.07l-.002-.001-.002-.001q-.971-.428-1.896-.828c0-.92.028-1.818.056-2.699v-.001c.058-1.863.113-3.649-.103-5.403-1.395-11.407-5.931-21.611-12.516-30.909-5.422-7.656-11.921-14.222-20.478-18.413-7.307-3.578-14.587-4.402-21.717.553-.808.561-1.674 1.04-2.541 1.519-.509.281-1.018.562-1.516.861-.208.122-.39.287-.633.509-.139.126-.297.27-.492.435 7.808-.352 14.186 2.537 19.933 6.849 13.712 10.29 22.183 24.096 26.334 40.595 1.757 6.986 2.231 14.085.134 21.113-.449 1.497-1.088 2.938-1.77 4.476v.001c-.325.734-.661 1.49-.99 2.285 1.322-.867 2.707-1.627 4.08-2.379 4.063-2.23 8.012-4.396 9.867-9.091l-2.196-1.59-.998-.722q.094-.139.19-.275l.19-.274c4.292 1.846 8.581 3.692 13.434 5.786zm-13.387 183.95 48.522-26.915-2.318-4.131-.022-.04-2.004-3.571-47.542 26.342c-.03-.33-.03-.664-.031-.988-.001-.676-.001-1.309-.274-1.783-4.375-7.578-9.875-14.198-17.538-18.608-10.874-6.261-16.311-3.787-23.516 1.552 6.977.753 11.046 2.309 16.173 6.221 9.146 6.989 15.339 16.127 19.306 26.824 2.509 6.759 3.881 13.732 2.599 20.949-.31 1.751-.884 3.455-1.476 5.21v.003h-.001v.001a87 87 0 0 0-.808 2.481q.73-.416 1.435-.83c1.024-.598 2.022-1.18 3.053-1.698 4.222-2.133 6.555-5.673 7.625-10.138 1.556-6.491.67-12.853-1.231-19.117-.133-.44-.609-.776-1.141-1.153-.265-.188-.545-.386-.803-.611zm211.354-98.522c-.075 1.206-.125 2.375-.174 3.516-.103 2.411-.201 4.698-.523 6.954-1.09 7.617-4.449 13.744-11.596 17.531-4.491 2.381-8.875 4.964-13.257 7.547-1.86 1.096-3.719 2.192-5.586 3.272-.387.223-.76.469-1.147.724l-.001.001-.159.104-.115.076-.053.035-.305.197c2.073 1.3 4.142 2.566 6.197 3.824 4.655 2.849 9.241 5.656 13.646 8.724 6.433 4.48 11.615 10.38 16.637 16.734.079-.214.147-.378.203-.513.092-.22.151-.36.165-.506.211-1.943.45-3.884.689-5.826.543-4.412 1.086-8.824 1.299-13.253.489-10.138.776-20.288 1.063-30.437l.001-.002v-.021q.14-5.025.292-10.049c.02-.604-.082-1.399-.455-1.795-1.601-1.687-3.257-3.321-5.002-5.042l-.006-.007-.033-.031q-.874-.863-1.78-1.761zM141.813 432.901l-.048-.007-.055-.009-.073-.011-.075-.012-.068-1.055c-.052-.82-.105-1.641-.171-2.461a20 20 0 0 0-.227-1.748c-2.16-12.795-8.091-23.618-17.35-32.615-4.261-4.139-9.126-7.413-15.041-8.773-7.887-1.819-14.32 1.89-16.374 9.714-.733 2.799-1.129 5.817-.98 8.698.71 13.783 6.61 25.359 15.845 35.335 4.582 4.951 9.913 8.899 16.617 10.577 7.996 2.003 14.558-1.78 16.691-9.746.47-1.753.712-3.569.953-5.384.112-.835.223-1.67.356-2.499zm353.086-60.952c-.952-15.225-6.671-27.107-16.174-37.255-4.613-4.928-9.941-8.875-16.652-10.522-7.938-1.948-14.476 1.78-16.542 9.679-.733 2.799-1.133 5.817-.984 8.698.717 13.854 6.652 25.476 15.982 35.464 4.653 4.979 10.043 8.954 16.856 10.522 7.338 1.689 13.398-1.455 15.864-8.558.727-2.093 1.063-4.322 1.336-6.131.106-.707.204-1.351.31-1.897zm-37.816-49.517c5.406-.079 9.883 1.615 13.967 4.331 11.717 7.786 18.957 18.852 23.026 32.109 2.019 6.578 2.783 13.297.87 20.071-.317 1.129-.77 2.22-1.249 3.376v.001c-.224.541-.454 1.096-.679 1.675l.368-.184c5.055-2.528 9.981-4.992 11.447-10.882.78-3.128 1.427-6.468 1.184-9.639-1.298-16.97-9.024-30.627-22.486-40.878-9.306-7.087-17.4-6.938-26.452.02zm-168.854 71.783c11.897 20.372 24.818 39.725 38.208 59.282l.725-2.995c.657-2.704 1.255-5.166 1.804-7.64.092-.412-.047-.887-.182-1.345q-.056-.189-.104-.372c-1.78-6.883-4.724-13.253-8.338-19.357-7.531-12.712-18.593-21.305-32.113-27.573m97.592-204.416c-.513-10.432-4.186-18.495-10.133-25.594-3.575-4.265-7.738-7.801-13.249-9.31-6.214-1.701-10.933 1.054-12.521 7.268-.337 1.317-.572 2.7-.568 4.053.035 11.897 5.178 21.489 13.587 29.525 3.01 2.878 6.511 5.014 10.678 5.853 5.013 1.011 9.196-1.153 10.929-5.962.571-1.583.842-3.274 1.051-4.572v-.002c.078-.482.146-.911.219-1.259zM412.88 403.79l-.985.551a118 118 0 0 0-1.122.636c.564-5.689 1.219-11.343 1.872-16.986 1.799-15.541 3.588-30.998 3.47-46.861q1.005.374 1.949.719l.001.001c1.956.718 3.733 1.371 5.471 2.118.349.149.549 1.102.502 1.654-.831 9.75-1.698 19.495-2.576 29.236l-.21 2.34c-.643 7.143-1.285 14.288-2.016 21.423-.083.8-.71 1.799-1.388 2.242-1.586 1.038-3.243 1.964-4.968 2.927m-53.475-250.828c10.497 1.706 16.95 8.617 21.893 17.146 4.955 8.55 7.73 17.621 3.998 27.546 6.331-2.195 8.977-6.918 8.691-13.073-.184-3.979-.906-8.087-2.246-11.827-3.23-9.023-8.636-16.515-17.268-21.226-5.284-2.885-10.364-2.646-15.072 1.434zm-32.819 301.06-44.578 25.731c.596.177 1.074.082 1.545-.055 12.9-3.669 25.48-8.134 37.212-14.755l.085-.048c.255-.147.518-.297.797-.375 4.206-1.176 6.1-3.728 4.959-8.165-.09-.348-.073-.725-.049-1.258.013-.301.029-.652.029-1.075m98.69-121.606.745-8.312.003-.035 1.161-12.974q-1.31.759-2.546 1.47c-2.46 1.417-4.727 2.723-6.952 4.097-.419.258-.651 1.093-.678 1.677-.153 3.187-.263 6.378-.263 9.565 0 .557.459 1.419.929 1.619 1.739.742 3.517 1.392 5.428 2.09h.001q1.055.384 2.172.799zm-120.478 3.933v.003c-.316 1.645-.715 3.726-1.468 5.668-1.98 5.1-6.703 7.593-12.121 6.864-3.516-.47-6.707-1.838-9.498-3.936-11.364-8.549-17.918-19.847-18.918-34.127-.161-2.297.188-4.72.78-6.958 1.905-7.17 7.723-10.443 14.9-8.546 5.288 1.396 9.537 4.508 13.23 8.397 7.914 8.333 12.63 18.136 13.438 30.965-.112.471-.221 1.038-.343 1.67m.343-1.67v.004zm-1.196-1.001c-.302-10.486-6.268-23.085-14.79-30.752-3.395-3.054-7.103-5.559-11.642-6.554-6.045-1.325-10.89 1.391-12.587 7.33-.671 2.344-1.024 4.908-.89 7.334.619 11.055 5.378 20.322 12.885 28.256 3.641 3.849 7.851 6.903 13.14 8.126 5.981 1.38 10.893-1.36 12.681-7.229.438-1.438.659-2.942.879-4.446v-.001l.001-.001v-.005c.101-.687.202-1.374.323-2.054zm82.311 159.153a76 76 0 0 1 .541-2.814l-.011.004-.22-.045-.219-.045.001-.162.002-.091.001-.08.002-.06a9 9 0 0 0-.006-.783c-.867-12.948-6.315-23.842-15.03-33.215-4.374-4.704-9.447-8.435-15.785-10.125-7.746-2.07-14.504 1.431-16.805 9.067-.867 2.885-1.325 6.056-1.173 9.055.663 13.026 6.222 23.991 14.971 33.422 4.461 4.806 9.631 8.644 16.162 10.22 7.327 1.767 13.418-1.239 16.088-8.26.736-1.938 1.108-4.013 1.481-6.087m-4.222-18.115-2.052 1.764-.033.028a913 913 0 0 1-4.598 3.939c-.743.632-1.478 1.273-2.213 1.915l-.001.001-.001.001-.001.001-.001.001-.001.001c-3.441 3.003-6.88 6.004-11.09 7.99q-.149.071-.288.142c-.679.344-1.219.618-1.825-.33-1.716-2.693-3.444-5.379-5.171-8.065-2.688-4.179-5.376-8.358-8.02-12.562-1.215-1.933-.643-3.646 1.286-4.798.408-.244.812-.497 1.217-.75 1.096-.686 2.193-1.373 3.369-1.865.804-.337 2.011-.255 2.819.114.807.364 1.458 1.246 1.987 2.026 2.095 3.097 4.154 6.216 6.188 9.297l.007.01.017.026 1.162 1.76.25.378.404.611 12.674-9.679c-3.838-6.644-8.828-12.563-15.598-16.84-3.708-2.34-7.683-3.873-12.18-3.701-1.905.075-3.116.906-3.951 2.646-2.426 5.061-2.556 10.361-1.642 15.72 1.975 11.579 7.401 21.403 15.699 29.623 4.034 3.995 8.62 7.374 14.328 8.416 6.495 1.184 7.268.753 9.2-5.06 2.539-7.626.781-15.044-1.941-22.76m-15.848 25.488c3.677 2.509 7.789 3.912 12.325 4.331v.004c-2.333 1.78-4.987 2.098-7.75 1.741-4.606-.596-8.656-2.587-12.16-5.512-12.415-10.356-19.678-23.355-19.784-39.823-.028-3.987 1.019-7.801 3.72-10.901.677-.777 1.506-1.423 2.335-2.07.38-.296.76-.593 1.126-.902q.205.176.404.353-.198.394-.403.785v.001c-.297.573-.595 1.145-.848 1.735-2.352 5.48-2.308 11.254-1.109 16.856 2.983 13.967 10.235 25.284 22.144 33.402m-8.701-21.463 1.003 1.522q.842 1.28 1.701 2.579h.003l3.218-2.755.008-.007.011-.009.007-.006.011-.01.008-.006c3.025-2.589 5.947-5.09 8.846-7.618 1.098-.961 2.054-1.658 3.27-.192 1.415 1.717 1.528 3.261.18 4.425a4248 4248 0 0 1-10.251 8.816l-.008.006-4.469 3.836-.311-.425-.156-.211a22 22 0 0 1-.85-1.195 6398 6398 0 0 1-11.291-17.571l-.141-.215c-.68-1.035-1.53-2.325-.316-3.096 1.206-.765 1.86.374 2.431 1.366v.001l.001.002.088.152.041.07.04.067q.099.17.198.318c2.242 3.343 4.456 6.705 6.728 10.156m5.064-4.761q1.08 1.652 2.187 3.335h.004l-4.289 3.677-3.982-6.021-6.52-9.859c.326-.195.649-.411.975-.629.794-.531 1.603-1.072 2.495-1.347.682-.211 2.015.208 2.418.788 2.277 3.277 4.464 6.619 6.712 10.056m16.548 1.578q-.123.107-.243.208-.133.114-.261.22v-.004l-1.767-3.836-.985-2.138c.651-.37 1.459-.834 2.389-1.369l.782-.45q.171.35.333.688l.285.6.003.004v.002l.001.001c.446.937.865 1.817 1.331 2.672.537.988.36 1.69-.537 2.329-.476.338-.921.72-1.331 1.073M101.364 98.087c-.304 1.79-.683 4.015-1.498 6.067-2.732 6.888-8.66 9.714-15.86 7.935-6.739-1.663-11.976-5.747-16.492-10.761-7.424-8.248-12.453-17.777-13.708-28.902-.423-3.744-.188-7.758.694-11.419 1.925-7.981 8.792-11.705 16.734-9.6 6.206 1.646 11.172 5.312 15.465 9.91 8.851 9.482 14.143 20.576 15.006 34.911h.003c-.117.53-.225 1.16-.344 1.859m-13.79-21.083c-.148.573-.265 1.021-.37 1.47l-1.354 5.787q-1.352 5.788-2.715 11.571c-.352 1.494-2.547 3.466-3.865 3.375-1.956-.133-2.779-1.572-3.163-3.237-.196-.855-.172-1.811-.031-2.686.16-.992.405-1.97.652-2.947q.16-.625.308-1.251l1.516-6.488a8849 8849 0 0 1 3.211-13.724c.357-1.52 2.474-3.394 3.924-3.292 1.827.129 2.725 1.474 3.07 3.085.177.827.186 1.688.194 2.44v.001c.003.314.006.609.021.875h4.234c-3.818-6.484-8.683-12.203-15.264-16.3-3.607-2.245-7.476-3.837-11.82-3.484-1.109.09-2.614.627-3.159 1.462-2.705 4.155-3.144 8.824-2.607 13.975.264-.155.5-.291.718-.416l.002-.001c.447-.257.812-.467 1.162-.697a530 530 0 0 0 2.65-1.75l.001-.001a277 277 0 0 1 5.048-3.297c2.097-1.33 3.845-1 5.076.83 1.31 1.949.941 3.728-1.129 5.151a418 418 0 0 1-4.765 3.214 893 893 0 0 0-2.444 1.636l.644 1.072v.002c.401.67.775 1.295 1.156 1.916q1.097 1.799 2.202 3.59l.001.001v.001h.001c1.627 2.641 3.253 5.281 4.813 7.96 1.383 2.376.976 3.772-1.165 5.085-1.63 1.003-3.077.521-4.543-1.58a31 31 0 0 1-1.151-1.829h-.001a57 57 0 0 0-.502-.832l-.197-.32-.154-.25-.006-.009a224 224 0 0 0-2.32-3.71q-.32-.5-.636-1c-.235.424-.192.675-.09.894 2.893 6.068 6.617 11.572 11.533 16.178 4.692 4.398 9.87 8.005 16.574 8.432 1.285.082 3.022-.043 3.837-.819 2.117-2.023 2.878-4.818 3.266-8.15l-1.73 1.127c-1.303.85-2.48 1.619-3.668 2.374-2.344 1.489-4.022 1.223-5.296-.812-1.313-2.093-.882-3.763 1.344-5.233q.767-.507 1.531-1.017h.001c1.284-.856 2.567-1.712 3.874-2.53.94-.589 1.227-1.126.58-2.196-2.04-3.368-4.041-6.759-6.13-10.298-.848-1.438-1.71-2.9-2.596-4.394l-.004.004c-.1.395-.19.736-.269 1.042m4.338 32.119c-1.584-.295-3.078-.573-4.492-1.072-2.074-.729-4.088-1.752-5.947-2.936-7.052-4.504-12.3-10.725-16.142-18.056-2.113-4.031-3.962-8.201-5.81-12.37q-.868-1.962-1.748-3.917c-.168-.377.008-1.29.282-1.427 1.366-.683 1.323-1.781 1.277-2.939v-.001q-.01-.218-.014-.435l-.02-.734c-.039-1.241-.078-2.499.184-3.68.433-1.954 1.005-3.88 1.562-5.752.225-.758.447-1.506.657-2.245-1.627.49-3.105 1.737-4.43 3.944-2.132 3.547-2.787 7.475-2.54 11.505.866 13.947 7.013 25.378 17.08 34.813 3.763 3.528 8.087 6.217 13.257 7.209 3.081.592 6.088.412 9.051-1.474-.754-.162-1.49-.299-2.207-.433M59.111 70.415c.021.131.034.212.073.278l2.05 3.358.011.02h.001l.001.002.001.002.001.002.001.002.001.001v.001a2207 2207 0 0 0 9.497 15.471c.3.485.77.864 1.24 1.243.219.175.437.35.638.537l.343-.192q.173-.095.343-.192c-.12-.342-.226-.693-.33-1.044-.23-.764-.458-1.528-.85-2.194-1.77-2.993-3.587-5.955-5.404-8.917v-.001h-.001v-.001q-1.266-2.062-2.525-4.127c-.242-.395-.46-.806-.687-1.231a55 55 0 0 0-.332-.619c.275-.185.521-.353.75-.508h.001l.002-.002h.001c.382-.26.716-.487 1.053-.709q.897-.59 1.792-1.182h.001a481 481 0 0 1 4.914-3.216c1.294-.831 1.246-1.882.549-3.026-.663-1.086-1.627-1.612-2.8-.863a654 654 0 0 0-7.286 4.76 1474 1474 0 0 1-3.101 2.041l-.004.004c.027.125.043.223.056.302m26.605-.448c.162.297.313.573.46.776-.5 2.135-.873 3.718-1.245 5.301l-1.188 5.076v.002l-.001.002v.001l-.001.002v.002l-.001.002v.002c-1.161 4.965-2.321 9.928-3.525 14.88-.11.454-.432.856-.755 1.256-.15.188-.3.374-.429.566-.167-.18-.363-.352-.559-.524-.44-.389-.881-.778-1-1.247-.26-1.016-.24-2.2-.005-3.234a1486 1486 0 0 1 5.218-22.27c.05-.206.074-.457.1-.718.092-.914.195-1.952 1.409-1.638.65.168 1.12 1.027 1.522 1.763M98.917 92.27l-.401.314-.001.001c-.203.16-.334.264-.472.355q-1.3.864-2.604 1.723l-.002.001-.002.001-.002.001-.003.002-.001.001h-.001v.001a494 494 0 0 0-4.715 3.135c-1.364.921-1.043 2.12-.345 3.254s1.611 1.348 2.787.529a130 130 0 0 1 3.317-2.211c.904-.59 1.808-1.18 2.7-1.788.4-.27.98-.764.949-1.101a46 46 0 0 1-.137-2.197c-.094-2.022-.188-4.061-.98-5.769-1.526-3.294-3.483-6.39-5.437-9.483a265 265 0 0 1-1.866-2.982c-.341-.557-.821-1.026-1.302-1.496a18 18 0 0 1-.666-.676l-.647.365c.076.271.142.547.208.823.147.616.294 1.231.556 1.791.36.764.81 1.487 1.259 2.21q.31.496.607.997c1.236 2.09 2.47 4.181 3.714 6.288 1.151 1.952 2.311 3.917 3.487 5.907zM68.45 77.697c2.435 3.86 4.862 7.71 6.356 12.054q-3.554-5.883-7.113-11.764l-.004-.007-.004-.007-2.68-4.43.33-.19.33-.19c.892 1.532 1.84 3.034 2.785 4.534m29.794 6.775.01.016.009.016c-.635-3.736-5.151-10.76-6.868-11.306l6.821 11.23.019.03zM87.917 188.389c-.076.571-.145 1.094-.222 1.547l-.004-.008c.816 12.909 5.759 23.101 13.952 31.799 3.994 4.242 8.616 7.624 14.421 8.996 6.727 1.592 12.442-1.297 14.685-7.808.913-2.654 1.309-5.641 1.215-8.456-.353-10.729-4.708-19.952-11.45-28.114-4.309-5.213-9.373-9.478-16.053-11.36-7.413-2.089-13.551 1.258-15.66 8.644-.47 1.637-.696 3.344-.884 4.76m41.735 29.598h-.001v.001c-.599.311-1.132.588-1.603.944-3.026 2.305-5.986 1.768-8.883-.176-3.242-2.184-5.707-5.163-6.805-8.844-.839-2.822-2.513-4.386-4.963-5.507-.148-.07-.29-.155-.432-.239l-.001-.001q-.124-.074-.249-.145c-.31-.173-.614-.366-.918-.559-1.309-.83-2.617-1.66-4.37-.903-.02.01-.101-.116-.203-.277l-.177-.272c1.109-1.132 2.14-1.646 3.692-.599 1.835 1.238 3.795 2.305 5.759 3.332 1.243.65 1.917 1.513 2.325 2.893 1.356 4.594 3.841 8.463 8.2 10.752 3.767 1.984 6.95.102 6.99-4.139.054-6.139-2.744-10.902-7.613-14.465-.964-.706-2.219-1.164-3.403-1.376-1.834-.321-3.586.365-4.116 2.195-.656 2.262-1.567 1.723-2.984.885l-.038-.022c-5.339-3.156-10.717-6.237-16.111-9.303-.482-.274-1.168-.309-1.737-.25-.153.015-.458.925-.302 1.183.879 1.443 1.85 2.827 2.846 4.191.202.276.457.527.71.775.394.385.782.765.956 1.232 3.227 8.679 8.052 16.237 15.331 22.077 3.67 2.948 7.731 5.194 12.552 5.383 1.282.05 3.046-.357 3.814-1.235 1.873-2.132 2.52-4.906 2.693-8.044-.337.19-.657.356-.959.513m-22.772-40.764c8.949 3.865 14.531 11.172 18.726 19.753l-.004.004-1.506-.87c-2.583-1.486-5.217-1.839-7.706.078-2.015 1.553-3.736 1.302-5.821-.008-4.015-2.52-8.162-4.833-12.305-7.143l-.58-.324c-.64-.358-1.367-.555-2.205-.781v-.001h-.003c-.427-.116-.882-.238-1.368-.394-.168-3.422.341-7.178 2.533-10.514.423-.642 1.532-1.281 2.25-1.207q.705.072 1.422.134c2.259.202 4.567.409 6.567 1.273m3.191 44.524c4.28 3.579 9.016 6.15 15.123 6.381-2.25 1.682-4.473 1.894-6.746 1.698-4.602-.4-8.526-2.485-11.976-5.371-9.788-8.181-15.648-18.596-17.252-31.293-.47-3.732-.153-7.448 1.364-10.96 1.012-2.337 2.497-4.265 5.085-5.488-.206.58-.416 1.137-.621 1.682-.45 1.191-.875 2.318-1.17 3.48-.294 1.154-.42 2.351-.545 3.544a86 86 0 0 1-.114 1.055l-.04.351v.002c-.133 1.236-.253 2.342-1.528 3.32-1.886 1.446-1.855 2.689-.408 4.637.588.792 1.266 1.519 1.945 2.246.479.513.959 1.027 1.406 1.564.234.279.353.654.47 1.025q.064.204.134.398c3.164 8.471 7.883 15.88 14.873 21.729m19.506-5.179c.141-9.047-3.552-15.597-11.717-20.07v-.004c.427 0 .866-.034 1.305-.068.967-.075 1.934-.15 2.775.139 3.062 1.05 5.641 2.998 6.504 6.252.995 3.751 1.627 7.609 2.25 11.446.117.73-.549 1.584-1.117 2.305m-18.025-16.363-.309.597c-6.045-3.489-11.827-6.829-17.742-10.247 1.274-1.262 2.246-1.678 3.763-.752 3.123 1.902 6.298 3.72 9.474 5.538h.001l.002.001q2.028 1.16 4.051 2.328c.323.19.635.398.978.625q.27.181.574.379l-.154.297-.387.748zm23.025 230.634c-.229 1.321-.518 2.993-1.109 4.551-1.877 4.935-6.06 7.165-11.27 6.276-4.206-.718-7.726-2.854-10.744-5.728-8.452-8.04-13.607-17.62-13.238-29.611.047-1.474.396-2.991.878-4.395 1.893-5.519 6.789-8.083 12.462-6.605 5.48 1.427 9.651 4.83 13.23 9.012 5.946 6.954 9.533 14.912 10.043 25.151-.085.379-.164.837-.252 1.348m-1.2.422-.083-.045-.284-.157-.13.06-.158.07c-.187.083-.375.166-.551.27-3.23 1.921-5.445 1.787-8.401-.584-2.567-2.058-4.202-4.747-5.394-7.797-.384-.984-1.195-2.003-2.089-2.552-.354-.217-.703-.45-1.054-.683v-.001h-.001v-.001c-1.679-1.119-3.4-2.267-5.954-1.836 1.251-1.568 2.191-1.901 3.512-1.023a40 40 0 0 0 4.242 2.442c1.364.686 2.132 1.631 2.607 3.148 1.16 3.732 3.261 6.86 6.958 8.546 2.559 1.164 4.582.047 5.131-2.662.956-4.755-3.407-12.136-8.032-13.579-1.968-.615-3.618 0-4.32 1.894-.514 1.391-1.055 1.289-2.136.646a803 803 0 0 0-13.403-7.742c-.292-.166-.668-.182-1.043-.198a6 6 0 0 1-.513-.037c.031.17.05.346.069.523.04.375.08.75.241 1.065a69 69 0 0 0 1.34 2.463v.001c.748 1.333 1.495 2.664 2.093 4.063 2.184 5.111 5.081 9.721 9.036 13.625 3.595 3.548 7.613 6.441 12.862 6.833 1.05.078 2.673-.223 3.136-.933.798-1.225 1.33-2.626 1.862-4.026.215-.566.43-1.131.662-1.685l-.004.004zm-30.344-25.282.894-.212c.353.095.717.17 1.08.245.792.163 1.583.325 2.26.696 1.984 1.084 3.94 2.218 5.896 3.352 1.771 1.026 3.541 2.053 5.331 3.041.635.353 1.729.585 2.274.275 2.489-1.396 4.907-2.725 7.906-.968-3.14-5.939-7.071-10.882-12.822-13.924-1.978-1.047-4.286-1.517-6.551-1.979h-.003l-.003-.001-.005-.001-.005-.001q-.615-.124-1.222-.253c-1.388-.298-2.627.451-3.038 1.902-.517 1.813-.966 3.646-1.415 5.479q-.287 1.173-.58 2.345zm25.175 33.649a49 49 0 0 0-1.928-.526c-1.389-.359-2.762-.713-4.011-1.324-8.879-4.355-14.143-11.866-17.766-20.772-.556-1.372-1.207-2.764-2.105-3.92-1.532-1.976-2.544-3.803-.199-5.845.129-.114.207-.333.239-.513.505-3.07.999-6.139 1.493-9.209-1.286 1.133-2.532 2.458-3.304 4.018-1.423 2.889-1.537 6.061-1.133 9.209 1.235 9.658 5.641 17.69 12.748 24.268 2.767 2.56 5.903 4.559 9.658 5.328 2.168.442 4.356.521 6.308-.71zm-24.187-32.14-.053.39-.053.39 2.544 1.471.003.002c3.535 2.045 7.068 4.09 10.64 6.069.254.142.689-.041 1.123-.224a6 6 0 0 1 .59-.223q-.051-.333-.109-.666-1.481-.856-2.961-1.714c-3.172-1.839-6.344-3.679-9.552-5.452-.383-.212-.915-.154-1.447-.096-.247.026-.493.053-.725.053m28.561 15.21a40 40 0 0 1-.464-1.978c-.658-3.027-1.319-6.073-4.898-7.403-.631-.235-1.34-.255-2.05-.275-.331-.01-.661-.019-.984-.05l-.106.623c4.19 1.764 6.57 5.17 8.502 9.083M451.356 344.5c-.069.549-.136 1.08-.215 1.58v.004c1.019 12.05 6.001 21.717 15.15 29.071 2.278 1.826 5.1 3.246 7.903 4.1 6.327 1.933 11.729-1.395 13.101-7.891.505-2.387.721-4.963.419-7.369-1.427-11.368-6.774-20.584-15.997-27.397-1.949-1.439-4.308-2.497-6.641-3.207-6.127-1.87-11.285 1.039-13.026 7.205-.366 1.296-.536 2.647-.694 3.904m16.08-8.957c7.389 3.128 15.613 13.422 17.115 21.443q-.766-1.28-1.529-2.563-1.383-2.322-2.775-4.638c-.898-1.49-1.996-2.619-3.963-1.819a8 8 0 0 1-.045-.79c-.014-.546-.027-1.053-.269-1.402l-.052-.074c-.637-.922-1.481-2.143-2.363-2.254-1.293-.165-2.583.705-2.955 2.305-.738 3.171-1.488 6.341-2.239 9.512l-.003.012-.002.009-.002.009-.804 3.402c-.057.249-.127.494-.224.835l-.149.525-1.463-2.397-.002-.002c-1.732-2.832-3.392-5.547-4.983-8.303-.212-.364.078-1.36.459-1.662.906-.725 1.883-1.366 2.86-2.006l.535-.351q.396-.262.787-.528c1.49-1.019 1.545-2.356.655-3.743-.913-1.423-2.215-1.792-3.701-.863-1.214.759-2.406 1.55-3.691 2.402l-.002.002c-.586.388-1.191.789-1.826 1.206-.263-3.363.271-6.268 2.121-8.812.376-.513 1.415-.878 2.077-.788q.45.061.905.119h.001c1.888.243 3.818.491 5.527 1.214m18.828 30.709.545.275.004-.004c-.087.527-.153 1.06-.219 1.593v.002c-.142 1.14-.284 2.281-.62 3.36-1.451 4.653-2.215 5.19-7.131 4.092-5.394-1.203-9.314-4.821-12.834-8.871-.605-.696-1.16-1.436-1.731-2.198l-.118-.156-.155-.208-.179-.237-.154-.202q-.112-.148-.227-.295l1.052-.388.733-.27.487-.179.892-.328c-.034.245-.079.483-.123.716-.093.492-.182.963-.155 1.429.086 1.575.548 3.022 2.285 3.492 1.223.334 2.956-1.089 3.34-2.685.596-2.468 1.172-4.942 1.748-7.416q.423-1.823.851-3.646c.101-.428.215-.853.372-1.439l.003-.011c.091-.34.197-.733.323-1.212l3.597 6.068 2.922 4.928-.519.342-.23.152-.824.542c-1.117.736-2.19 1.442-3.253 2.159-1.588 1.07-1.889 2.465-.89 3.986.961 1.466 2.266 1.745 3.846.745a301 301 0 0 0 4.319-2.799l.011-.007.442-.29.453-.297zm-29.126-31.105.13.181.011.003c-.146.766-.277 1.537-.409 2.307v.001c-.322 1.891-.644 3.783-1.19 5.607-.262.876-.906 1.636-1.572 2.424-.309.365-.622.736-.905 1.127 1.62 2.556 2.957 5.324 4.305 8.115v.001c2.088 4.323 4.202 8.701 7.439 12.429 4.269 4.92 9.059 9.063 15.907 9.847.057.007.109.061.266.221l.001.001c.116.118.289.294.56.55-.704.065-1.358.153-1.976.235h-.002c-1.254.168-2.363.316-3.447.216-3.842-.353-7.091-2.246-9.933-4.715-7.695-6.688-12.521-15.053-13.571-25.245-.306-2.944.349-6.096 1.133-8.997.307-1.142 1.162-2.135 2.016-3.128l.001-.001c.386-.448.772-.897 1.107-1.359zm7.264 26.19-.788.494v.004l-4.929-8.007-4.279-6.952q.944-.614 1.87-1.224l.002-.001c1.91-1.255 3.781-2.483 5.705-3.62.353-.208 1.478.2 1.69.611.227.435 0 1.486-.396 1.792-1.537 1.187-3.187 2.254-4.865 3.242-1.176.689-1.301 1.297-.537 2.465 1.733 2.648 3.358 5.366 4.982 8.081l.305.51.334.559c.262.436.451.914.64 1.393q.128.33.266.653m17.346 2.602c.545-.354 1.102-.715 1.67-1.093l-3.088-5.239-.78-1.324-1.982-3.362-1.441-2.447.527-.311.374-.222c1.888 2.945 3.667 5.959 5.465 9.007l.001.001.001.001v.001l.001.001c1.122 1.901 2.251 3.815 3.419 5.732l-.808.533-1.088.723-.006.004c-1.699 1.13-3.358 2.234-5.068 3.256-.285.17-.747.046-1.208-.078a5 5 0 0 0-.615-.141c.041-.232.056-.497.071-.762.031-.573.063-1.145.361-1.379 1.307-1.026 2.707-1.935 4.194-2.901m-9.092-18.81c-.203.216-.358.364-.474.475-.176.169-.261.25-.285.347l-.647 2.719c-1.223 5.129-2.444 10.256-3.567 15.403-.108.491.11 1.051.369 1.72l.001.001c.136.351.284.732.402 1.148.223-.261.398-.445.532-.586v-.001c.208-.218.315-.332.346-.463l.583-2.433.001-.003c1.251-5.217 2.502-10.435 3.642-15.679.102-.47-.163-1.021-.464-1.646-.151-.315-.312-.649-.439-1.002m-91.55-159.306q-.021.221-.043.517c-.037.479-.083 1.08-.18 1.67-1.039 6.343-5.904 9.024-11.831 6.496-3.963-1.686-6.978-4.563-9.4-8.029-3.826-5.472-6.405-11.391-5.484-18.279.827-6.162 5.637-8.925 11.427-6.628 4.884 1.936 8.283 5.633 11.011 9.921 2.693 4.234 4.375 8.879 4.504 14.328zm-16.358-12.207c.313.921 1.043 1.874 1.505 2.415 1.098 1.313 2.329 1.873 3.92 1.536 1.631-.341 1.752-1.752 1.607-3.065-.102-.929-.36-1.948-.631-2.858l-.862-1.446-.041-.067-.261-.438-.565-.946a13.4 13.4 0 0 0-2.007-1.529c-2.305-1.399-4.108-.435-3.912 2.219.07.973.429 1.925.788 2.877v.001c.164.433.327.866.463 1.301zm2.156-9.702-.063-.757a60 60 0 0 1-1.546-.333c-1.296-.29-2.592-.579-3.899-.666-.674-.043-1.776.686-2.066 1.336-2.14 4.834-.929 9.471.882 14.261l1.195-.624 2.416-1.265c-.192-.807-.406-1.581-.614-2.334-.451-1.633-.874-3.164-.982-4.718-.157-2.302 1.555-3.203 3.244-4.092.494-.26.986-.519 1.429-.812zm-3.422 20.223c.799 1.768 6.252 6.696 9.804 7.342.525-2.152-.055-4.253-1.529-5.554-2.25-1.984-4.861-3.626-7.499-5.081-1.462-.807-2.387.29-2.27 2.458.41-.126.705.14 1.079.479.127.115.262.237.415.356m15.601 5.331c1.69-4.253-.235-13.332-3.492-16.448.231 2.862-1.533 4.249-3.693 5.316 5.723 5.676 5.986 6.08 7.185 11.128zm-20.596-13.29c.445 1.968.855 3.781.023 5.883-3.892-6.225-4.691-16.16-.101-18.935-.109.39-.24.761-.367 1.118-.262.736-.502 1.412-.476 2.077q.028.663.052 1.329c.102 2.775.205 5.575.807 8.251zm2.2 9.394c3.253 5.715 10.466 9.831 14.441 8.012-4.731-1.105-8.287-3.782-11.125-7.369-1.082-1.368-1.968-1.654-3.316-.643m7.009-6.617c5.437 2.646 8.361 7.04 9.106 13.195 3.05-4.304-2.846-12.544-9.106-13.195m-.345-13.548c3.739 2.419 5.562 5.896 5.888 10.388 1.391-1.697 1.356-4.261-.224-6.601l-.078-.115c-1.313-1.947-2.699-4.002-5.586-3.672m-7.233 17.68c1.666-4.191 2.929-4.606 6.77-2.395q1.627.931 3.259 1.858l.007.004.235-.44c-.523-.304-1.039-.626-1.556-.947-1.233-.769-2.466-1.538-3.795-2.071-1.129-.455-2.772-.604-3.799-.106-1.426.694-1.399 2.395-1.125 4.097zm8.507-6.884c1.368-.071 2.117-1.317 2.179-2.838l.004-.004a2.4 2.4 0 0 0-.176-.984l-.729-1.842a2.4 2.4 0 0 0-.373-.639c-.309-.388-.819-1.008-.858-1.031l-.036-.023c-1.086-.693-2.385-1.522-3.61-.475-1.164.995-.751 2.261-.535 2.922q.052.158.081.265l.086.363.004.019.003.014.032.121c.09.349.486 1.259.604 1.439l1.395 1.795c.474.577 1.184.937 1.929.898m-1.847-6.86c2.243.537 3.407 2.85 2.69 5.343a.49.49 0 0 1-.408.337c-1.599.216-2.305-.992-2.928-2.121-.526-.952-1.067-1.995-.51-3.045.223-.42.694-.624 1.156-.514M126.703 212.22c-.106 1.125-.404 2.391-2.164 2.407-1.976.016-4.375-2.905-4.335-5.335.023-1.313.423-2.497 2.065-2.556 2.027-.075 4.387 2.728 4.43 5.488zm-4.077-3.924-.012-.012a4 4 0 0 1-.333.372c-.258.269-.516.537-.529.816-.063 1.494 1.709 3.826 2.681 3.579.255-.065.454-.348.745-.759.162-.23.352-.499.596-.793h.004c-1.136-1.156-2.144-2.18-3.152-3.203m8.009 218.705c1.137-1.996-1.156-5.649-3.834-5.669l-.003-.003c-.052.038-.13.082-.221.134-.255.144-.616.349-.818.657-1.27 1.941.897 5.994 3.226 5.951.568-.012 1.356-.553 1.65-1.07m-1.493-.439c.548-2.007-.283-3.317-2.207-3.481-.063 1.689.439 2.936 2.207 3.481"/>
</svg>
