<svg xmlns="http://www.w3.org/2000/svg" width="550" height="550" fill="none" viewBox="0 0 550 550">
    <path fill="#fff" d="M258.333 343.521c-.144-.084-.286-.178-.433-.257l-.04-.019c-2.54-1.356-4.826-1.669-6.784-.928l-3.687 1.349-1.248.455-.116.042q-.004.004-.009.006a6 6 0 0 0-1.122.556c-2.203 1.394-3.304 3.894-3.272 7.418-.031 3.418.998 6.956 3.057 10.516 2.062 3.571 4.612 6.21 7.579 7.845l.008.004.003.002c.111.061.219.104.33.161.28.144.562.291.838.408.229.097.454.165.68.243.153.053.308.12.459.164q1.135.33 2.202.331a6.54 6.54 0 0 0 2.873-.661l.01-.006 4.317-1.547.083-.026c1.169-.425 2.169-1.191 2.97-2.277l.031-.047c1.03-1.422 1.569-3.325 1.6-5.673-.03-3.451-1.131-7.022-3.271-10.614-2.024-3.403-4.399-5.897-7.058-7.445m-4.809 26.149c-.211-.101-.419-.183-.634-.302-2.752-1.518-5.131-3.992-7.075-7.354-1.941-3.359-2.911-6.674-2.882-9.866-.029-3.1.844-5.166 2.667-6.32q.413-.26.899-.445.401-.152.83-.229l.075-.012q.42-.072.86-.075h.009a6 6 0 0 1 .719.045q.373.047.763.14c.787.193 1.64.533 2.569 1.032 1.291.704 2.525 1.661 3.683 2.857a26 26 0 0 1 .841.93l.006-.006.001.002.436-.367-.378.451q.177.207.347.421l.088.11.007.008 1.336 1.894.17.256q.195.308.383.628c2.021 3.392 3.06 6.743 3.088 9.956 0 .261-.015.513-.032.764a11 11 0 0 1-.106.936 7 7 0 0 1-.085.483l-.018.083c0 .005-.021.101-.022.105l-.104.426-.045.148q-.036.121-.076.239l-.081.231q-.09.243-.198.478l.004.001-.003.006c-.005.012-.004.025-.009.037l-.005.012c-.005.01-.014.017-.019.028l-.005.009-.005-.002a5 5 0 0 1-.212.397l.005.003-.003.006c-.012.02-.013.043-.022.064-.01.014-.024.022-.033.037l-.007-.003a5.5 5.5 0 0 1-.694.928c-.432.477-.938.86-1.502 1.142-.01.005-.016.014-.026.019-.454.22-.94.373-1.45.45-1.056.163-2.207 0-3.435-.487-.203-.081-.413-.196-.62-.294m.505-26.381q.207.028.419.07c.191.037.383.077.579.131.137.037.276.083.416.129q.245.08.495.177c.147.057.294.114.443.18.187.082.377.177.567.272.114.057.225.106.34.168l.042.02c.134.073.265.158.398.236.194.114.389.224.58.35.046.03.091.066.138.098 2.157 1.458 4.111 3.638 5.821 6.507 2.022 3.394 3.061 6.745 3.087 9.948-.026 2.082-.489 3.747-1.375 4.947-.644.872-1.439 1.486-2.363 1.826l-.035.011-1.38.493c.059-.088.121-.174.176-.265l.068-.122c.09-.157.172-.312.259-.485l.052-.114c.084-.187.168-.376.214-.515.009-.02.037-.09.044-.111a9 9 0 0 0 .248-.788l.073-.291.033-.156.032-.152.056-.281c.013-.074.024-.151.037-.248l.017-.114.018-.122.021-.15q.04-.324.062-.658c.02-.272.03-.555.035-.858-.031-3.452-1.132-7.024-3.271-10.616a26 26 0 0 0-.404-.659l-.204-.29-.629-.947a14 14 0 0 0-.288-.397l-.14-.194a20 20 0 0 0-.326-.422l-.091-.129a10 10 0 0 0-.346-.416l-.096-.121c-.137-.163-.28-.322-.447-.509a12 12 0 0 0-.464-.497c-1.235-1.276-2.574-2.311-4.046-3.116a14 14 0 0 0-1.272-.596q-.126-.052-.252-.1a11 11 0 0 0-1.01-.336c-.053-.014-.109-.04-.161-.053l1.326-.485c.035-.013.072-.02.108-.032q.305-.107.625-.171c.099-.02.2-.033.301-.047a5 5 0 0 1 .506-.043c.106-.004.211-.01.32-.008q.315.008.644.051"/>
    <path fill="#fff" d="M417.125 286.196v-4.64l3.671-2.139a.65.65 0 0 0 .323-.562c0-74.476-36.487-148.522-90.801-184.293l-.063-.048c-9.861-6.68-11.24-7.473-21.978-13.644a3522 3522 0 0 1-21.534-12.464c-10.817-6.31-25.926-11.291-40.416-13.324-12.27-1.72-30.181-2.24-45.832 5.065a54 54 0 0 0-3.402 1.737l-32.589 16.643-.005.004-.179.091a57 57 0 0 0-4.36 2.227l-.163.084c-8.689 4.99-15.459 12.089-20.124 21.098-5.104 9.869-7.691 22.107-7.691 36.376v15.609a.65.65 0 0 0 .33.566l2.402 1.355.042 7.28-1.875 1.045-.01.003a.63.63 0 0 0-.298.455c-.007.036-.029.067-.029.104v35.929c-4.4 7.364-8.264 15.309-11.481 23.622-7.883 20.353-11.312 41.367-9.656 59.169 1.659 17.827 8.252 30.864 18.63 36.747.058.034.117.066.13.069l8.49 4.738.005.003 14.715 8.21c.015.009.032.006.048.013a26 26 0 0 0 3.508 1.68c3.071 1.188 6.315 1.779 9.695 1.779 6.799 0 14.141-2.399 21.685-7.122a212 212 0 0 0 5.324 11.309l-10.33 36.384a.65.65 0 0 0 .542.823l37.905 4.942c25.711 29.858 55.842 46.812 81.281 46.811 6.031 0 11.797-.96 17.18-2.921 2.018 2.17 4.258 3.974 6.732 5.376.058.034.117.066.13.069l10.776 6.014.004.001 5.178 2.887-21.366 35.265-66.704 5.746c-.955-3.005-2.515-4.748-4.143-4.561l-26.992 2.586-.075.008c-2.225.259-3.495 4.006-2.953 8.717.376 3.269 1.536 6.034 3.03 7.218.508.403 1.054.612 1.592.612q.08-.002.159-.009h.003l.063-.003 27.065-2.593c1.744-.202 2.903-2.524 3.045-5.954l67.964-5.856a3.02 3.02 0 0 0 2.333-1.45l22.278-36.766 1.959 1.09c.007.004.015.002.022.006a26 26 0 0 0 3.52 1.686c3.06 1.184 6.27 1.753 9.586 1.753 22.709-.003 50.168-26.727 65.192-65.523 16.948-43.769 11.766-87.155-11.488-97.132m3.834 21.137q.481.369.945.765.223.194.441.395c.317.287.629.58.932.887q.191.195.379.395.466.49.911 1.013.162.191.32.387.456.555.888 1.144.135.183.266.37a30 30 0 0 1 1.075 1.628 32 32 0 0 1 .995 1.734 35 35 0 0 1 .916 1.839 39 39 0 0 1 .833 1.939 42 42 0 0 1 .752 2.034q.332.975.629 1.989l.041.141q.304 1.05.568 2.14l.019.076q.272 1.126.502 2.292l.003.014c2.959 15.033.727 34.969-7.071 55.104-13.124 33.886-37.693 56.541-56.592 53.216-.046-.008-.094-.011-.141-.02a20 20 0 0 1-1.661-.384c-.07-.019-.141-.03-.21-.05a19.8 19.8 0 0 1-5.317-2.375c-6.529-4.119-11.06-12.034-13.103-22.889-.584-3.122-.955-6.465-1.103-9.936-.553-13.036 1.944-27.588 7.222-42.088.062-.173.131-.345.194-.517.249-.68.499-1.359.764-2.04 5.046-13.032 11.969-24.852 20.019-34.181a92 92 0 0 1 1.851-2.074c.134-.145.27-.284.404-.428q.727-.783 1.462-1.533.264-.267.53-.53a78 78 0 0 1 1.928-1.865c.207-.193.415-.376.622-.565v22.646l-7.249 23.979c-3.295 8.514-4.998 17.179-4.919 25.057.099 10.34 3.335 18.276 8.878 21.772.151.096.302.187.463.284.576.331 1.174.618 1.779.851.298.116.599.217.822.278l2.501 1.148.112.077a12.8 12.8 0 0 0 5.788 1.954q.61.054 1.233.054c11.217-.002 24.741-13.108 32.116-32.151 5.214-13.464 6.373-27.292 3.099-36.995l-6.681-19.521v-18.075c.11.077.225.148.334.227q.258.191.511.388M343.154 437.46a34 34 0 0 1-1.09-1.456c-.159-.223-.323-.439-.478-.668a37 37 0 0 1-1.023-1.611c-.14-.23-.285-.453-.421-.688a42 42 0 0 1-.97-1.803c-.115-.225-.237-.442-.35-.671a47 47 0 0 1-.936-2.06c-.085-.198-.177-.386-.26-.587a52 52 0 0 1-.936-2.455c-.043-.123-.092-.239-.135-.363a61 61 0 0 1-1.971-7.067c-3.744-17.137-1.715-38.865 5.498-60.583a161 161 0 0 1 2.636-7.38 158 158 0 0 1 8.005-17.458c5.82-10.855 12.55-20.286 20.005-28.03 2.7-2.799 5.457-5.33 8.234-7.563l.061-.05a74 74 0 0 1 2.763-2.113l.004.137a.65.65 0 0 0 .216.571l.008.007q.071.062.156.101l2.992 1.69v7.728c-.195.123-.383.245-.556.356l-2.104 1.162c-.011.006-.016.018-.027.025l-.003.001c-.005.003-.007.01-.012.013a.64.64 0 0 0-.201.213l-.002.005c-.007.012-.007.025-.013.037-.032.068-.067.135-.074.212-3.106 2.244-6.195 4.939-9.185 8.015-8.064 8.293-15.271 19.168-20.839 31.45a133 133 0 0 0-2.915 6.939c-7.405 19.123-10.044 39.08-7.238 54.752a58 58 0 0 0 1.213 5.336c1.321 4.715 3.169 8.751 5.499 12.065l.083.114q.536.757 1.106 1.461c.051.063.104.121.155.183.271.329.54.663.823.974l-6.404 10.576a31 31 0 0 1-.792-.895c-.174-.207-.352-.409-.522-.622m-6.746-9.085c.291.705.605 1.378.92 2.05.108.228.206.468.316.693.304.619.629 1.209.953 1.798.14.253.27.518.413.766.321.555.663 1.082 1.003 1.609.164.256.321.523.491.772.342.504.704.98 1.065 1.457.185.245.363.501.553.739.368.46.754.892 1.14 1.326.165.186.32.389.49.57l-.051.084-5.185-2.89-.06-.039a7 7 0 0 1-1.076-.763c-2.649-2.237-6.232-7.551-9.323-13.926l-.013-.029c-1.598-3.308-2.931-6.644-3.847-9.611-5.135-20.611-2.551-58.598 21.629-97.823 2.957-4.795 6.071-9.258 9.254-13.265 3.369-4.239 6.97-7.942 10.705-11.008a58 58 0 0 1 5.851-4.23l.207-.126q.87-.543 1.75-1.046c.143-.082.287-.157.43-.237a50 50 0 0 1 1.552-.834c.187-.096.375-.186.563-.279.48-.238.962-.472 1.446-.693q.315-.14.632-.277.702-.31 1.406-.593.327-.129.654-.252.44-.166.883-.322c.282 3.672.479 7.464.586 11.279-4.061 2.878-8.08 6.374-11.95 10.396-7.544 7.832-14.346 17.359-20.216 28.318a160 160 0 0 0-8.072 17.604 160 160 0 0 0-4.215 12.393c-6.004 20.269-7.487 40.273-3.98 56.328a59 59 0 0 0 2.906 9.563c.065.163.123.337.19.498m41.612-157.013c-.495.08-.993.185-1.49.288-.312.065-.621.12-.934.194a37 37 0 0 0-1.73.464c-.24.069-.478.125-.719.199a44 44 0 0 0-5.04 1.905c-.088.039-.177.086-.265.126-.75.342-1.503.703-2.259 1.092-.245.127-.492.27-.738.401-.597.32-1.194.643-1.794.992-.323.189-.649.395-.973.592-.411.25-.82.485-1.231.748-.417-.882-.851-1.761-1.282-2.64-.162-.334-.32-.668-.485-1.001a218 218 0 0 0-1.548-3.046c-.178-.345-.35-.693-.53-1.037a214 214 0 0 0-1.962-3.665l-.173-.324a218 218 0 0 0-2.302-4.087c-23.325-40.383-57.031-68.773-87.622-76.552l-.06-.016a75 75 0 0 0-1.832-.439l-.133-.031a69 69 0 0 0-1.747-.37l-.209-.044a77 77 0 0 0-1.652-.303l-.298-.052a68 68 0 0 0-1.569-.243l-.366-.054a64 64 0 0 0-1.486-.186l-.44-.052q-.703-.074-1.4-.132l-.514-.046a60 60 0 0 0-1.321-.084q-.29-.018-.577-.033a59 59 0 0 0-1.249-.041c-.212-.005-.425-.013-.636-.016a66 66 0 0 0-1.18-.001c-.23.002-.46.001-.688.006q-.56.012-1.117.036-.368.012-.735.03c-.353.018-.704.044-1.055.069q-.391.027-.783.059-.497.046-.992.1c-.275.03-.551.057-.825.091q-.47.06-.94.129-.431.059-.859.125-.446.074-.89.155-.445.078-.889.163-.424.086-.846.179-.457.097-.911.203c-.27.063-.537.133-.805.201-.312.08-.624.159-.934.245q-.383.108-.764.223c-.226.066-.454.127-.679.197-.159-.256-.33-.489-.493-.739-.279-.429-.557-.862-.848-1.272-.215-.303-.442-.586-.664-.878-.289-.38-.573-.767-.873-1.128-.257-.311-.527-.599-.792-.897-.278-.311-.551-.632-.837-.928-.333-.345-.681-.662-1.025-.986-.233-.219-.459-.451-.697-.661a28 28 0 0 0-1.403-1.138c-.141-.109-.275-.23-.418-.335a26 26 0 0 0-1.902-1.286l-.026-.017a25 25 0 0 0-2.049-1.132 26 26 0 0 0-2.099-.925l-10.902-6.232-.006-.005-.01-.005-9.296-5.315-.02-.009-.014-.008-.001.002q-.05-.027-.104-.044l.005-.014-.007-.003.001-.001a26 26 0 0 0-1.597-.817c-.217-.102-.434-.184-.651-.279-.332-.145-.66-.296-.997-.427a26 26 0 0 0-2.975-.944l-.128-.029a26 26 0 0 0-1.387-.305c-.096-.018-.193-.031-.289-.048a27 27 0 0 0-1.255-.198c-.122-.016-.247-.025-.37-.04a28 28 0 0 0-1.198-.117c-.14-.01-.281-.013-.421-.021a29 29 0 0 0-1.174-.047c-.148-.003-.298.002-.447.002-.389 0-.778.003-1.171.018-.154.006-.31.018-.466.027q-.583.03-1.172.082c-.159.015-.319.035-.479.052q-.589.063-1.182.146-.24.037-.481.077-.598.094-1.201.211-.238.048-.477.099-.609.127-1.221.277l-.472.121a38 38 0 0 0-1.703.485q-.638.196-1.28.417l-.435.154q-.656.234-1.316.494l-.412.164a50 50 0 0 0-1.735.744c-.218.098-.434.189-.652.291v-12.719l-.001-.005.001-.005c0-.034-.021-.061-.027-.093-.014-.08-.026-.16-.067-.229-.023-.037-.062-.06-.092-.093-.043-.047-.077-.102-.133-.135-.007-.004-.014-.002-.02-.006l-.015-.013-2.399-1.227v-7.48l3.35-1.904a.65.65 0 0 0 .329-.565v-20.76c0-14.933 2.927-27.434 8.694-37.169 4.396-.888 9.116-1.388 14.036-1.485 4.555-.088 9.302.156 14.115.733 14.784 1.772 30.211 6.68 41.267 13.13 10.314 6.016 17.064 9.894 21.531 12.461 10.841 6.23 11.974 6.881 21.798 13.532 24.913 16.381 47.375 42.511 63.248 73.578 12.594 24.646 20.706 51.162 24.114 78.826-.34.034-.684.094-1.026.139s-.68.083-1.021.139m-40.796 21.608c-.401-.859-.825-1.712-1.24-2.567-.489-1.011-.969-2.024-1.476-3.03-.398-.792-.819-1.575-1.229-2.364-.55-1.061-1.092-2.125-1.661-3.178-.281-.521-.58-1.034-.866-1.553-.706-1.28-1.406-2.564-2.138-3.831-23.358-40.461-57.786-70.017-89.852-77.134a73 73 0 0 0-3.414-.664l-.352-.061a66 66 0 0 0-3.297-.47l-.306-.033a61 61 0 0 0-6.492-.381c-.073-.001-.149-.007-.222-.007-.111 0-.221.005-.331.006q-.597.003-1.188.02-.378.01-.754.026-.59.023-1.174.059-.367.025-.733.054-.59.043-1.174.1-.343.036-.685.077-.604.066-1.204.145c-.189.026-.375.058-.563.086-.435.065-.869.129-1.299.205l-.064.012a48 48 0 0 0-4.677 1.078c-.148.042-.298.079-.445.122l14.688-8.482a44.3 44.3 0 0 1 8.402-3.733l.002-.001c4.988-1.618 10.271-2.37 15.755-2.319l.074-.001c.424.005.852.021 1.279.035.189.006.376.007.566.015.11.005.222.014.333.019 33.277 1.616 73.372 31.969 99.967 78.019l.01.02a208 208 0 0 1 1.971 3.495l.229.407c.444.807.874 1.623 1.308 2.436.281.528.569 1.052.846 1.582.426.814.837 1.635 1.252 2.455.263.518.532 1.034.79 1.553.481.969.947 1.943 1.412 2.917.156.328.318.654.473.982-.4.267-.796.56-1.194.838-.426.297-.853.585-1.277.895-.513.376-1.023.777-1.534 1.172-.376.29-.753.568-1.128.869a79 79 0 0 0-2.022 1.693c-.243.208-.487.407-.729.62a87 87 0 0 0-2.48 2.263c-.332.315-.661.651-.991.975-.531.518-1.063 1.032-1.59 1.572-.383.392-.762.806-1.144 1.21-.468.495-.936.984-1.401 1.495-.407.449-.81.918-1.215 1.379-.431.491-.863.977-1.29 1.481-.426.503-.847 1.023-1.27 1.539-.299.367-.602.719-.9 1.093-.324-.744-.674-1.485-1.007-2.227-.447-.995-.885-1.991-1.349-2.983m-158.53 10.981q-.258.046-.513.087-.39.06-.777.102-.272.033-.54.057-.374.03-.745.045c-.178.008-.358.018-.535.02a17 17 0 0 1-.745-.009c-.168-.005-.337-.007-.503-.017a17 17 0 0 1-.785-.07c-.145-.016-.29-.027-.434-.046q-.45-.063-.893-.152c-.099-.019-.199-.033-.297-.054q-1.2-.256-2.343-.698-.024-.01-.049-.017c-.094-.037-.19-.084-.285-.123-.256-.107-.512-.213-.763-.334-.084-.04-.168-.09-.252-.133a15 15 0 0 1-.759-.4c-12.903-7.415-15.145-33.535-5.104-59.463q.464-1.198.955-2.374l.002-.005q.476-1.14.976-2.257l.165-.361q.424-.94.864-1.862l.229-.471q.416-.863.848-1.712l.256-.496q.427-.829.866-1.641l.268-.487a86 86 0 0 1 2.12-3.66l.24-.391q.508-.822 1.029-1.624.098-.153.198-.305.558-.853 1.13-1.681l.126-.184a82 82 0 0 1 1.274-1.788l.012-.016c4.012-5.465 8.407-10.002 12.879-13.327l.059-.043q.706-.525 1.415-1.006l.096-.066q.691-.468 1.384-.896l.118-.074q.686-.42 1.371-.801l.123-.068q.69-.38 1.379-.718l.105-.052q.711-.346 1.419-.646l.057-.025c1.976-.832 3.934-1.396 5.847-1.665.055-.008.11-.011.165-.019q.609-.081 1.21-.123c.137-.009.273-.009.409-.015.32-.015.64-.026.956-.022.147.001.292.01.438.016q.285.012.568.034l-3.362 1.941-.121.064c-16.054 9.271-25.333 28.021-26.95 51.961l-.01.127a111 111 0 0 0-.169 3.369l-.013.286a119 119 0 0 0-.058 3.293c-.001.146-.006.29-.006.437-.002 1.066.017 2.144.044 3.228.004.192.004.38.009.573.031 1.046.082 2.104.139 3.166.013.236.019.468.033.704.061 1.022.141 2.055.226 3.09.024.284.04.564.066.85.088.995.195 2 .306 3.007.037.332.066.661.105.994.113.968.246 1.945.38 2.922.052.381.097.758.152 1.141.137.941.292 1.89.448 2.84.07.426.132.849.206 1.277.158.918.335 1.844.512 2.77.088.466.17.93.263 1.399.179.897.377 1.802.573 2.705.109.505.211 1.007.326 1.513.197.874.413 1.754.627 2.634.132.544.257 1.086.395 1.633.215.852.449 1.71.679 2.567.131.487.25.971.386 1.46-.14.028-.281.059-.42.085M135.876 195.45q-.364.551-.724 1.108-.332.517-.665 1.043c-.214.338-.432.67-.644 1.01v-32.642l3.369 1.985v25.5c-.153.224-.303.455-.455.68q-.44.65-.881 1.316m274.497 90.076 1.67-.972c.029-.018.042-.049.068-.07l3.713-2.163v4.326c0 .011-.004.02-.003.031v4.643l.003.01v.995l-26.027 14.52v-9.361l20.482-11.933c.031-.012.064-.008.094-.026m-30.124 29.83c-.238.226-.475.466-.713.697-.423.412-.847.818-1.267 1.245-.237.24-.471.495-.706.74-.42.436-.84.868-1.256 1.319-.141.153-.279.315-.419.469a91 91 0 0 0-1.496 1.676c-8.144 9.437-15.146 21.389-20.247 34.56-.168.432-.323.862-.484 1.292-.162.433-.33.866-.487 1.299-5.335 14.656-7.858 29.382-7.298 42.585.152 3.563.53 6.969 1.125 10.122.025.136.057.265.084.401q.186.957.397 1.885c.065.282.135.556.203.833q.177.723.368 1.426a49 49 0 0 0 .663 2.212c.082.253.162.508.248.756q.273.792.567 1.555c.059.152.113.309.172.458q.388.974.812 1.899c.079.173.163.338.244.508q.315.667.65 1.308.17.318.343.631.308.56.631 1.099.188.314.379.62.344.542.704 1.059c.092.133.177.276.27.407l-1.539-.933c-.038-.023-.084-.02-.125-.035-.046-.015-.088-.034-.136-.038-.026-.003-.049-.021-.076-.021a1 1 0 0 0-.118.011q-.104-.117-.207-.236-.454-.516-.888-1.064-.125-.164-.248-.329a28 28 0 0 1-.868-1.197q-.094-.141-.187-.285-.441-.658-.857-1.355l-.108-.191a33 33 0 0 1-.865-1.572c-1.212-2.362-2.231-5.006-3.048-7.919a56 56 0 0 1-1.185-5.215c-2.764-15.441-.15-35.144 7.172-54.054a136 136 0 0 1 2.886-6.87c5.497-12.121 12.595-22.847 20.532-31.024l.058-.053a76 76 0 0 1 4.023-3.849l.081-.073a69 69 0 0 1 1.755-1.494c.147-.121.294-.246.441-.366a62 62 0 0 1 1.943-1.509v4.851c-.206.182-.411.379-.618.566-.435.393-.871.783-1.305 1.193m7.029 96.019a12 12 0 0 1-1.607-.773 7 7 0 0 1-.46-.284l-.112-.072c-7.301-4.765-9.801-17.429-7.064-31.988.807-4.29 2.064-8.743 3.793-13.209l7.293-24.119a.7.7 0 0 0 .028-.189V310.2l29.657-16.388v31.089q.001.108.035.211l6.624 19.357.093.269c3.178 9.418 2.026 22.913-3.082 36.102-6.406 16.542-17.453 28.522-27.319 30.903-2.76.665-5.429.579-7.879-.368m-6.193-2.865a12 12 0 0 1-.833-.411c-.085-.046-.172-.086-.257-.135a7 7 0 0 1-.411-.252c-5.162-3.257-8.178-10.797-8.273-20.687-.077-7.715 1.594-16.213 4.848-24.621l7.293-24.119a.7.7 0 0 0 .028-.188v-24.215l-.001-.004V308.2l4.369 2.03v30.412l-7.249 23.98a79 79 0 0 0-1.138 3.15l-.105.307a77 77 0 0 0-.929 2.982l-.133.461q-.413 1.46-.761 2.905l-.104.446c-.229.981-.44 1.957-.624 2.925l-.043.243a67 67 0 0 0-.454 2.762l-.055.373c-.124.9-.222 1.789-.305 2.67l-.057.611a59 59 0 0 0-.155 2.479q-.013.349-.022.694a51 51 0 0 0-.02 2.35c.003.23.014.454.021.681a49 49 0 0 0 .164 2.796q.08.89.196 1.752c.038.288.074.578.118.861a37 37 0 0 0 .526 2.712c.13.552.268 1.097.422 1.625.088.307.187.603.284.902a27 27 0 0 0 .866 2.296 24 24 0 0 0 .93 1.912 20 20 0 0 0 1.073 1.741q.41.588.853 1.129c.058.071.109.153.168.222zm5.387-102.665v-.326l-.002-.007v-.063l-.001-.003v-7.289l.802.397.013.012c.008.005.018.003.027.008l.017.008c.014.007.03.004.044.009a.7.7 0 0 0 .195.051c.013.001.025.01.038.01l.011-.003.013-.003c.034-.001.064-.017.097-.023a1 1 0 0 0 .13-.037c.028-.011.059-.009.086-.025l.022-.005c.006-.004.008-.012.015-.016l.516-.299v8.645zm31.549-13.088-29.544 16.323-4.1-1.905c.295-.2.589-.408.885-.599.061.103.149.19.259.247l3.326 1.712a.66.66 0 0 0 .298.072h.002a.64.64 0 0 0 .317-.083l27.327-15.246a.65.65 0 0 0 .334-.567l.001-.004v-.366zm-250.766-128.46a58 58 0 0 0-1.918 1.112l-.121.071a68 68 0 0 0-6.227 4.297l-.137.109q-.946.733-1.89 1.511c-.123.102-.247.21-.37.314q-.826.688-1.648 1.409c-.159.14-.317.286-.476.428a89 89 0 0 0-1.529 1.393q-.267.252-.535.509-.73.69-1.453 1.406-.288.286-.572.576-.702.705-1.397 1.433-.298.314-.595.632-.679.722-1.35 1.465-.307.34-.612.684a108 108 0 0 0-1.928 2.229 116 116 0 0 0-3.128 3.883 107 107 0 0 0-1.818 2.415q-.325.44-.646.886c-.13.181-.264.356-.393.538v-23.632l11.838-6.542 18.682-10.324v12.253c-.457.231-.915.482-1.373.73-.134.073-.269.141-.404.215m-.976-22.844v7.132c0 .007.006.013.006.021v1.003l-26.874 14.798v-7.675zm-3.284-54.934c2.81-1.613 5.862-2.983 9.126-4.1l.016-.005a59 59 0 0 1 4.002-1.212l.03-.008q1.022-.27 2.067-.511l-.06.111q-.418.752-.815 1.524l-.186.36a53 53 0 0 0-.766 1.578l-.17.363q-.37.81-.719 1.64l-.15.358a57 57 0 0 0-.802 2.05 64 64 0 0 0-1.326 3.98l-.08.275q-.287.977-.548 1.976l-.056.221q-.267 1.034-.506 2.092l-.03.138q-.248 1.104-.465 2.234l-.004.02c-1.058 5.508-1.597 11.47-1.597 17.874v20.383l-3.325 1.89-.017.005-28.174 16.025-.014.014-.011.006v-17.393c0-12.53 2.067-23.159 6.172-31.829 4.107-8.668 10.253-15.375 18.408-20.059m-25.561 70.965a.65.65 0 0 0 .648.004l.029-.016v7.014l-2.052-.959-.04-6.843 1.409.795zm-2.333 7.029.032.017 3.351 1.566c.005.002.009 0 .013.002a.65.65 0 0 0 .264.059l.01-.003a.64.64 0 0 0 .288-.074c.005-.003.011-.001.015-.004l28.174-15.514a.65.65 0 0 0 .337-.569v-.343l.717.367-7.241 4.002-23.189 12.814-.152-.089-3.217-1.898zm62.604-101.482a53 53 0 0 1 3.34-1.706c27.202-12.692 66.105-2.844 85.043 8.204a3520 3520 0 0 0 21.542 12.468c10.902 6.266 12.069 6.936 21.815 13.539q.036.032.077.06c53.917 35.459 90.172 108.921 90.296 182.886l-31.552 18.383a244 244 0 0 0-.163-6.474.7.7 0 0 0-.023-.151c-.139-3.46-.36-7.018-.657-10.582a245 245 0 0 0-.809-8c-3.397-28.896-11.784-56.597-24.93-82.331-8.211-16.067-18.03-30.782-29.185-43.736-11.13-12.926-23.319-23.783-36.219-32.267-9.944-6.738-11.335-7.537-22.162-13.76a3567 3567 0 0 1-21.494-12.44c-11.61-6.773-33.41-14.696-56.635-14.737q-1.67.001-3.309.054c-.14.005-.277.015-.418.02-2.97.11-5.863.344-8.656.724a77 77 0 0 0-4.876.822l-.005.001c-.629.127-1.248.266-1.867.408-.187.043-.377.081-.563.125-.523.124-1.038.26-1.554.394-.228.06-.461.113-.688.175zm-64.424 75.376c0-14.059 2.539-26.097 7.547-35.778 4.544-8.778 11.139-15.695 19.571-20.543l.012-.003 4.69-2.395.013-.01q1.027-.466 2.086-.896c5.035-2.045 10.598-3.491 16.571-4.304 3.884-.53 7.981-.788 12.205-.787 22.974.04 44.516 7.868 55.982 14.56 9.833 5.736 16.378 9.498 21.156 12.245l.346.198c10.788 6.202 12.174 6.998 22.087 13.715 12.798 8.416 24.896 19.193 35.957 32.034 11.092 12.881 20.854 27.51 29.011 43.48 13.075 25.589 21.418 53.141 24.797 81.891a239 239 0 0 1 1.463 18.634c.085 2.158.135 4.301.162 6.407l-3.838-2.168-.03-1.097a235 235 0 0 0-.604-11.78l-.066-.782a239 239 0 0 0-.948-9.445c-3.378-28.055-11.564-54.947-24.328-79.928-15.973-31.26-38.592-57.566-63.685-74.067-9.854-6.673-10.992-7.326-21.871-13.577a3544 3544 0 0 1-21.524-12.458c-11.203-6.534-26.817-11.506-41.768-13.298-4.87-.585-9.681-.832-14.295-.742-5.11.1-10.012.63-14.569 1.572-6.32 1.306-12.059 3.423-17.059 6.295-8.374 4.812-14.684 11.678-18.9 20.539-4.217 8.859-6.341 19.713-6.341 32.499v17.379l-3.83-2.16zm-2.668 180.715c-20.623-11.688-24.285-53.1-8.338-94.277 3.214-8.303 7.075-16.236 11.475-23.579.081-.136.163-.267.245-.402a136 136 0 0 1 2.264-3.623q.967-1.497 1.959-2.946l.178-.263c9.463-13.749 20.678-24.295 31.58-29.696a49 49 0 0 1 2.053-.957l.172-.073a44 44 0 0 1 3.81-1.444l.335-.109a37 37 0 0 1 3.92-1.008l.148-.026a32 32 0 0 1 1.713-.282l.42-.053q.733-.09 1.458-.146l.44-.032a29 29 0 0 1 1.556-.052l.247-.005c.739.001 1.469.036 2.192.096q.172.015.343.033c.705.067 1.404.157 2.092.281l.049.007c.701.128 1.392.292 2.075.478l.371.105c.677.197 1.347.413 2.004.668.434.167.872.359 1.312.56.081.037.166.068.247.106q.78.368 1.587.816l.048.027 3.801 2.171c-.095-.018-.197-.033-.294-.051a32 32 0 0 0-.806-.136q-.268-.041-.544-.078a36 36 0 0 0-1.261-.152q-.312-.03-.631-.057c-.222-.019-.441-.039-.669-.054a44 44 0 0 0-1.062-.053 38 38 0 0 0-.903-.019q-.297-.005-.598-.006a33 33 0 0 0-1.423.031q-.438.015-.885.041c-.174.01-.353.026-.529.039q-.91.067-1.856.18c-.156.019-.31.034-.468.055-.326.043-.658.095-.989.146q-.3.047-.6.097-.502.086-1.012.186l-.593.123c-.355.075-.71.15-1.071.235l-.112.029a44 44 0 0 0-2.46.673q-.296.088-.596.182a48 48 0 0 0-1.751.6 46 46 0 0 0-1.108.417c-.206.081-.414.169-.621.254a48 48 0 0 0-2.377 1.05c-.125.059-.248.113-.373.173-.378.184-.759.382-1.14.579a45 45 0 0 0-1.842.998q-.363.209-.728.426c-.384.227-.767.453-1.152.695-.198.124-.397.258-.596.386q-1.11.714-2.228 1.514c-.241.171-.481.339-.722.517-.379.279-.758.571-1.138.866q-.391.301-.782.615a66 66 0 0 0-1.138.931c-.255.214-.511.439-.767.661a68 68 0 0 0-2.666 2.435q-.088.084-.178.167c-.384.374-.768.768-1.152 1.158-.259.264-.519.526-.778.798q-.571.601-1.143 1.226a96 96 0 0 0-.775.864c-.387.436-.773.873-1.159 1.327-.221.26-.442.535-.663.801-.377.456-.756.896-1.133 1.371-21.802 27.447-40.121 76.101-31.118 112.245 2.396 7.761 7.006 16.494 11.033 21.482l-4.012-2.239c-.016-.009-.17-.095-.187-.103m8.693 4.851-.002-.002-.013-.007c-4.12-2.316-11.18-14.371-14.252-24.326-8.895-35.71 9.273-83.888 30.882-111.089 15.457-19.455 31.723-22.987 42.094-22.318l.069.005q.625.042 1.219.103l.194.02c.822.088 1.599.203 2.329.335l.273.052q.4.077.778.16.144.03.285.063.46.106.889.22c.099.026.191.054.287.081a23 23 0 0 1 .914.274q.207.068.403.137.278.096.534.194c.128.049.256.097.374.146.128.052.246.104.363.156l.202.091q.179.083.341.164l.097.051c.108.056.215.112.31.166l6.486 3.708c-.291-.049-.589-.073-.882-.113-.433-.059-.863-.128-1.301-.167-.35-.031-.707-.034-1.061-.052-.416-.021-.828-.059-1.249-.062h-.15c-3.601 0-7.308.673-11.056 1.954-20.224 6.905-41.644 31.513-54.067 63.588-7.864 20.309-11.297 41.283-9.665 59.059.51 5.563 1.509 10.652 2.943 15.214l.001.004c1.145 3.641 2.572 6.939 4.263 9.858l.016.027c1.262 2.175 2.671 4.138 4.22 5.876l.057.063c.204.228.403.463.612.683zm18.096 9.818a24.6 24.6 0 0 1-3.376-1.618c-20.496-11.781-24.102-53.159-8.209-94.201 12.263-31.664 33.29-55.957 53.084-62.78 3.665-1.262 7.288-1.925 10.804-1.925h.147c3.171.018 6.216.584 9.053 1.683.009.004.019.002.027.005a25 25 0 0 1 2.004.883c.124.061.242.136.365.2.528.272 1.051.553 1.559.863.187.114.365.246.549.365.435.281.869.563 1.289.873.204.15.398.318.598.474.389.305.778.609 1.154.939.203.179.398.374.598.56.359.334.717.668 1.063 1.026.198.204.388.424.581.636.335.367.669.734.991 1.123.188.228.369.469.554.705.312.4.623.801.923 1.223.179.251.351.515.525.774q.298.445.588.907c-.248.086-.491.184-.737.274-.342.124-.684.248-1.022.38-.355.139-.704.288-1.054.436-.355.149-.711.295-1.061.453-.322.145-.637.301-.954.454-.363.174-.73.343-1.087.526-.452.232-.894.479-1.336.726-.198.11-.402.211-.598.324l-18.612 10.748c-.212-.038-.427-.058-.64-.088-.226-.032-.45-.069-.678-.093-.258-.026-.52-.037-.781-.052-.227-.013-.454-.032-.683-.037-.261-.006-.525.004-.788.01-.232.005-.463.004-.696.017-.261.015-.523.045-.785.07-.239.023-.477.04-.717.072-.255.033-.513.082-.769.125-.249.042-.497.078-.747.129-.249.051-.499.116-.749.176-.259.062-.518.118-.778.19-.24.065-.481.145-.722.218-.272.084-.543.162-.816.255-.227.078-.455.169-.683.254-.287.106-.574.209-.861.327-.213.087-.426.186-.638.278-.304.133-.608.262-.912.406-.194.092-.388.196-.582.293-.323.161-.646.32-.97.494-.173.094-.346.198-.519.295-.344.193-.688.384-1.031.592-.152.092-.304.193-.456.287-.364.227-.728.454-1.091.696-.13.087-.259.181-.388.27-.385.263-.77.528-1.154.809-.104.077-.208.16-.312.238-.408.303-.816.611-1.222.934l-.234.193c-.431.348-.861.701-1.288 1.069l-.159.141q-.678.588-1.352 1.21l-.069.066c-7.953 7.4-15.278 18.42-20.384 31.605-10.439 26.954-8.002 53.204 5.668 61.061.759.434 1.529.803 2.286 1.095.079.03.161.051.241.08q.552.206 1.116.372c.178.052.36.094.54.14q.435.113.877.203.284.056.57.102.453.074.91.124.272.032.545.056.55.04 1.107.049c.104.001.204.013.308.013l.074-.002c.078 0 .158-.006.237-.007q.506-.007 1.02-.042.191-.015.384-.035.45-.038.904-.098.207-.028.414-.062.454-.069.913-.159c.067-.014.133-.021.201-.035 2.213 7.759 5.009 15.601 8.32 23.328-10.996 6.933-21.495 8.777-30.391 5.332m65.176 48.292a.66.66 0 0 0-.409-.221l-37.405-4.877 10.193-35.905a.65.65 0 0 0-.046-.473 210 210 0 0 1-5.699-12.131l-.006-.024c-3.468-8.036-6.378-16.2-8.65-24.264l-.006-.011c-12.834-45.596-4.772-84.501 20.541-99.122l.014-.004.206-.119c.302-.172.624-.326.934-.492.605-.324 1.206-.652 1.833-.951.192-.091.394-.168.588-.257.73-.335 1.463-.666 2.215-.964q.006-.002.011-.006c9.337-3.691 19.965-4.255 31.588-1.675 31.716 7.039 65.822 36.358 89.008 76.514a216 216 0 0 1 8.757 16.838c.095.204.182.409.276.614.734 1.593 1.45 3.19 2.139 4.79-.587.753-1.156 1.543-1.731 2.319-.387.521-.782 1.026-1.163 1.557a134 134 0 0 0-2.245 3.257c-.222.33-.453.647-.673.981a141 141 0 0 0-2.674 4.217c-.043.072-.09.14-.133.212-4.611 7.582-8.691 15.866-12.046 24.519q-.015.03-.029.064c-4.833 12.481-7.907 25.052-9.249 36.862l-.011.111q-.175 1.544-.31 3.07l-.018.225a123 123 0 0 0-.217 2.91l-.018.34q-.084 1.385-.134 2.753c-.005.141-.006.281-.011.422q-.043 1.321-.055 2.623c-.002.163.001.324 0 .486q-.006 1.263.018 2.507l.016.54q.029 1.207.086 2.395l.035.59q.063 1.151.152 2.283c.017.212.039.421.057.632q.095 1.1.215 2.181l.08.659q.125 1.053.275 2.084l.107.682q.155 1.005.333 1.99.066.35.135.7.183.959.388 1.898.081.357.165.711.21.913.442 1.805.098.363.198.721.236.868.494 1.714.113.363.23.723.262.824.544 1.625.132.365.266.723.286.778.592 1.534.15.362.303.72.31.733.638 1.444.169.357.341.709.334.69.684 1.357.187.351.379.695.356.646.729 1.27.208.341.42.677.377.602.771 1.182.227.33.46.654a34 34 0 0 0 1.316 1.725c.155.19.302.39.459.574-27.573 9.667-65.401-7.458-96.693-43.892m104.945 49.132c-2.41-1.365-4.646-3.177-6.648-5.39-14.894-16.45-15.589-53.002-1.69-88.887 5.333-13.764 12.503-26.592 20.736-37.097l.004-.003c6.644-8.475 13.711-15.196 21.005-19.977l.007-.006a63 63 0 0 1 2.178-1.357c.102-.061.205-.131.308-.191.553-.327 1.103-.621 1.653-.921.284-.155.569-.324.853-.472.499-.261.996-.493 1.493-.732.332-.16.666-.333.998-.484.461-.209.92-.391 1.379-.582.365-.151.731-.314 1.095-.453.43-.166.857-.306 1.285-.454.389-.135.78-.279 1.168-.4.405-.127.807-.231 1.211-.342.406-.113.813-.231 1.216-.328.388-.093.772-.165 1.157-.243.415-.085.83-.174 1.241-.242.376-.062.748-.104 1.121-.152q.47-.062.936-.11c.323 2.744.6 5.513.826 8.248-.18.062-.358.137-.537.202-.477.173-.953.347-1.427.537-.226.091-.451.191-.677.286-.474.198-.948.397-1.42.613-.205.094-.408.197-.613.294-.492.233-.983.466-1.472.718-.156.08-.311.169-.468.251a54 54 0 0 0-1.598.871c-.073.042-.146.089-.22.132a57.5 57.5 0 0 0-7.667 5.333c-3.812 3.128-7.479 6.898-10.899 11.204-3.218 4.05-6.36 8.556-9.343 13.393-9.053 14.686-16.266 31.923-20.309 48.538-4.525 18.598-5.035 35.985-1.465 50.315.949 3.076 2.305 6.467 3.921 9.808l.013.029a82 82 0 0 0 1.751 3.41l.008.015c1.775 3.268 3.613 6.099 5.325 8.216l-6.248-3.486zm-105.43 57.754c-.458-3.987.576-7.127 1.809-7.277l.018-.001.026-.002c.09-.006.186.023.282.049.044.012.086.01.132.029q.203.081.419.251c.995.789 2.168 3.057 2.546 6.347q.054.48.08.953l.011.231q.02.418.017.822l.001.111a15 15 0 0 1-.064 1.146 12 12 0 0 1-.159 1.119q-.022.12-.046.236a9 9 0 0 1-.104.431q-.026.092-.053.179a7 7 0 0 1-.195.571 6 6 0 0 1-.133.308c-.03.063-.06.128-.091.186a3 3 0 0 1-.274.429l-.053.066q-.165.2-.335.32l-.053.031a.9.9 0 0 1-.356.137l-.007.001c-.267.024-.561-.08-.872-.326-.994-.789-2.167-3.056-2.546-6.347m30.485 4.08-24.931 2.388c.017-.03.031-.066.048-.097q.101-.183.193-.384.076-.164.147-.342.092-.229.174-.476.037-.12.071-.24.08-.268.144-.556.023-.095.044-.193.17-.817.235-1.756l.004-.081q.026-.414.029-.849v-.221a17 17 0 0 0-.021-.766l-.012-.252a18 18 0 0 0-.254-2.143c-.021-.12-.048-.234-.071-.351q-.072-.373-.158-.732-.05-.2-.105-.395a15 15 0 0 0-.18-.627 14 14 0 0 0-.131-.387 13 13 0 0 0-.359-.923 10 10 0 0 0-.241-.508q-.08-.163-.163-.319a8 8 0 0 0-.28-.465c-.055-.087-.108-.178-.165-.26a6 6 0 0 0-.357-.459c-.042-.05-.082-.107-.124-.154l-.016-.02 24.86-2.382c.846-.087 2.125 1.291 2.921 4.137a16 16 0 0 1 .5 2.563c.075.644.111 1.31.107 1.982-.018 3.161-.991 5.161-1.909 5.268m72.365-12.638c-.281.47-.779.778-1.331.826l-67.831 5.844c-.002-.08-.013-.155-.017-.235q-.021-.419-.062-.829c-.012-.13-.014-.265-.029-.393-.009-.077-.029-.15-.039-.226a18 18 0 0 0-.259-1.494c-.018-.087-.025-.177-.045-.263l66.779-5.753a.65.65 0 0 0 .5-.311l29.47-48.639 2.963 1.796-.224.369c-.011.015-.028.025-.037.04l-7.135 11.777c-.008.013-.009.029-.016.043l-.086.143-.003.008zM427.4 382.859c-16.96 43.792-49.748 72.066-73.097 63.026a25 25 0 0 1-3.375-1.618c-.14-.081-.281-.171-.421-.256-.203-.123-.405-.244-.61-.377q-.225-.147-.451-.302l-.364-.252 6.466-10.675.061.037q.463.3.952.582c.676.392 1.386.75 2.077 1.052l2.102 1.065.004.001q.35.22.709.428a21.4 21.4 0 0 0 2.96 1.418l.007.003.003.001c2.565.993 5.273 1.483 8.089 1.483 7.879 0 16.588-3.842 25.252-11.272 11.651-9.989 21.866-25.3 28.763-43.111 11.198-28.916 10.976-57.497.491-72.247l-.028-.042a30 30 0 0 0-1.103-1.442l-.123-.156a26 26 0 0 0-1.09-1.232c-.074-.081-.146-.166-.221-.245a25 25 0 0 0-1.067-1.037c-.111-.104-.219-.214-.332-.315a23 23 0 0 0-1.036-.86c-.15-.12-.296-.247-.449-.363-.325-.246-.662-.473-.999-.701-.155-.105-.303-.221-.46-.322v-12.423l-.004-.013.003-.012c-.002-.065-.037-.118-.057-.177-.014-.041-.015-.086-.037-.123l-.011-.028c-.038-.06-.1-.096-.156-.141-.023-.018-.035-.047-.061-.062-.005-.003-.011-.001-.016-.004-.015-.009-.022-.026-.038-.033l-2.608-1.209v-3.307c22.187 10.113 26.849 52.46 10.275 95.261"/>
    <path fill="#fff" d="M275.174 272.77c-4.495-4.467-9.715-8.184-15.515-11.049-5.13-2.53-9.888-3.811-14.145-3.813-.121-.001-.245-.011-.365-.009-1.723.023-3.349.296-4.842.817l-4.959 1.815-.065.02c-.394.139-.776.301-1.149.474-1.686.777-3.179 1.928-4.456 3.399-.08.093-.169.174-.248.27-2.633 3.173-4.041 8.191-4.184 14.914a.65.65 0 0 0 .355.593l17.27 8.796c.023.011.049.011.073.02q.04.013.08.021c.048.011.094.023.142.023h.003l.014-.002c.013 0 .026-.005.039-.006.056-.005.113-.005.167-.025l5.024-1.837a.65.65 0 0 0 .429-.597q.015-.477.05-.925c.171-2.101.68-3.7 1.519-4.76l.053-.064.007-.008.147.02c.218.031.438.065.661.114l.166.041c.243.058.487.121.735.2l.02.007q.868.28 1.771.733c1.857.931 3.581 2.261 5.124 3.952a20.6 20.6 0 0 1 3.739 5.842c.922 2.164 1.389 4.403 1.389 6.656 0 1.734-.29 3.176-.83 4.334-.107.229-.208.463-.336.668a8 8 0 0 1-.609.849c-.014.018-.031.032-.046.05a8 8 0 0 1-.664.707l-.036.03a8 8 0 0 1-.778.633l-.015.01q-.386.27-.814.503c-1.665.379-3.194.954-4.549 1.711l-.104.027q-.097.028-.194.051c-2.472.541-4.619 1.492-6.38 2.826-1.795 1.36-3.166 3.659-4.076 6.834-.882 3.094-1.345 7.658-1.373 13.566v1.723c0 .24.132.46.344.573l16.353 8.719c.013.007.028.005.041.011a.7.7 0 0 0 .23.058c.012.001.023.009.035.009a.7.7 0 0 0 .223-.04l5.024-1.838a.65.65 0 0 0 .427-.611v-1.723c.027-3.22.387-5.778 1.069-7.604.657-1.761 1.674-3.1 3.096-4.027l.004-.002q.161-.035.333-.064a22 22 0 0 0 3.844-1.02l.003-.001c.032-.012.065-.019.097-.031l.009-.001.005-.004.085-.032.018-.003.104-.04 3.371-1.282a18.6 18.6 0 0 0 2.992-1.136l.105-.042a19 19 0 0 0 1.833-1.035c2.136-1.389 3.824-3.423 5.015-6.047 1.177-2.598 1.775-5.995 1.775-10.096 0-6.088-1.326-12.024-3.937-17.643-2.591-5.575-6.205-10.69-10.743-15.202m-8.168 55.186c-.132.203-.275.392-.393.609-.141.256-.254.542-.377.818-.095.215-.208.411-.292.637-.734 1.966-1.122 4.673-1.152 8.053v1.275l-3.721 1.361v-.798c.029-3.221.389-5.777 1.068-7.599.153-.408.329-.788.52-1.15.015-.029.025-.063.041-.091.626-1.162 1.45-2.081 2.46-2.744.678-.444 1.47-.829 2.364-1.151l.006-.002c-.026.032-.045.072-.07.104-.164.211-.306.449-.454.678M246.043 318c.828-2.897 2.043-4.968 3.61-6.155 1.609-1.219 3.585-2.091 5.893-2.597l.389-.104q.024-.008.047-.019c1.674-.432 3.196-.994 4.524-1.674l-.002-.003q.065-.033.129-.07l.014-.005.017-.006a9.2 9.2 0 0 0 2.785-2.284c.042-.05.075-.109.115-.16.208-.264.411-.534.592-.824.178-.284.324-.6.467-.92.59-1.314.904-2.907.904-4.784 0-2.428-.503-4.839-1.494-7.167a22 22 0 0 0-3.975-6.208c-1.655-1.808-3.505-3.234-5.502-4.238-1.485-.743-2.928-1.176-4.292-1.284h-.001a8.5 8.5 0 0 0-1.304-.005h-.049a6.5 6.5 0 0 0-1.723.369c-1.087.393-2.032 1.08-2.816 2.069-.24.304-.452.647-.646 1.016l-.035.064a8.6 8.6 0 0 0-.535 1.314q-.202.629-.342 1.342-.013.067-.024.136a16 16 0 0 0-.211 1.576l-16.014-8.159c.181-6.21 1.484-10.819 3.874-13.704.082-.1.174-.185.258-.281 1.144-1.301 2.475-2.326 3.977-3.023q.498-.234 1.03-.426l.012-.002c1.352-.472 2.845-.724 4.437-.747 4.173-.05 8.831 1.183 13.909 3.687l.053.023a60 60 0 0 1 4.123 2.246c.27.161.532.333.799.499.391.242.786.48 1.17.731q.907.595 1.79 1.221l.128.087a57 57 0 0 1 4.675 3.726 56 56 0 0 1 2.437 2.268c4.404 4.376 7.921 9.348 10.453 14.776l.023.047.001.002.001.002a42 42 0 0 1 1.648 4.097l.017.045c.187.55.352 1.104.515 1.658.045.152.099.303.142.456.096.344.174.692.261 1.037.093.367.195.732.277 1.101l.009.047c.627 2.834.944 5.724.944 8.648 0 3.918-.557 7.133-1.657 9.557-1.085 2.393-2.612 4.242-4.54 5.496-.952.62-2.006 1.15-3.136 1.577l-.177.065c-1.125.414-2.35.738-3.636.959q-.174.03-.343.066l-.128.025c-2.189.42-4.026 1.11-5.46 2.05a8.4 8.4 0 0 0-2.075 1.942c-.144.188-.262.406-.393.609-.137.212-.287.409-.411.637q-.365.672-.649 1.433c-.735 1.965-1.123 4.672-1.153 8.053v.641l-15.051-8.024v-1.316c.03-5.801.476-10.246 1.325-13.211m2.383-36.203c-.015.037-.033.07-.048.108-.131.332-.242.692-.343 1.066q-.038.137-.073.278-.138.563-.231 1.184-.02.138-.037.278c-.06.449-.108.911-.134 1.402l-3.681 1.346.018-.173q.055-.573.144-1.093c.016-.096.03-.195.048-.288a10 10 0 0 1 .348-1.319q.156-.465.353-.869c.037-.076.079-.146.118-.219.133-.243.274-.472.43-.677.02-.027.038-.058.059-.084q.354-.449.754-.793l.026-.019q.383-.326.809-.56c.105-.056.222-.089.331-.137.197-.088.391-.182.602-.243.159-.046.333-.063.5-.094.162-.03.32-.069.491-.085-.023.038-.038.084-.06.122q-.232.407-.424.869m-6.348-22.23q.218-.05.44-.092.271-.056.547-.099.272-.04.548-.07c.163-.019.325-.041.491-.054q.399-.031.807-.041c.088-.002.175-.01.264-.012.112-.001.227.008.338.009 4.073.021 8.626 1.245 13.562 3.679 5.679 2.802 10.785 6.437 15.174 10.805 4.421 4.392 7.946 9.381 10.48 14.828 2.532 5.446 3.815 11.197 3.815 17.095 0 3.916-.558 7.131-1.657 9.558l-.021.049c-1.085 2.369-2.604 4.199-4.518 5.443-.505.331-1.06.643-1.736.97-.131.065-.28.118-.417.18.402-.412.772-.864 1.126-1.337q.131-.173.258-.348a15 15 0 0 0 .625-.974c.118-.2.237-.4.348-.608.075-.14.144-.286.215-.429.096-.192.199-.377.289-.575 1.177-2.595 1.774-5.993 1.774-10.096a41.2 41.2 0 0 0-1.544-11.196 43 43 0 0 0-2.413-6.491c-2.588-5.558-6.195-10.659-10.723-15.163a59 59 0 0 0-2.791-2.579 58.5 58.5 0 0 0-6.453-4.892 60 60 0 0 0-6.272-3.576 46 46 0 0 0-3.206-1.425c-.137-.055-.277-.116-.414-.17-.382-.149-.758-.282-1.135-.416-.228-.081-.457-.165-.684-.241a40 40 0 0 0-1.002-.314q-.388-.117-.771-.226a37 37 0 0 0-1.718-.422 27 27 0 0 0-1.646-.304 26 26 0 0 0-.969-.135q-.296-.033-.591-.058a24 24 0 0 0-1.05-.078l-.087-.007.128-.038q.29-.081.589-.15m154.318 26.968a.65.65 0 0 0 .307-.078l16.68-8.92a.65.65 0 0 0 .344-.574v-8.456a.65.65 0 0 0-.969-.566l-16.68 9.383a.65.65 0 0 0-.332.566v7.994a.65.65 0 0 0 .65.651m.651-8.265 15.379-8.651v6.955l-15.379 8.225zm22.249 105.392c4.689-12.109 3.618-24.095-2.491-27.88l-.011-.006-.007-.007-3.329-1.94a7 7 0 0 0-.579-.387l-1.035-.528c-.015-.008-.091-.04-.107-.047l-.115-.047c-3.518-1.36-7.765-.136-11.956 3.459-4.08 3.498-7.653 8.852-10.064 15.074-4.669 12.052-3.622 24.022 2.427 27.837.094.061.192.118.37.216l3.143 1.842h.002l.004.003.006.006q.156.114.319.221l.031.022q.138.087.292.178c.191.109.388.204.589.297l.016.009q.03.018.06.032l.005.002.001.001.016.007.001.001q.194.09.39.168a8.1 8.1 0 0 0 2.951.542c2.826 0 5.931-1.363 9.006-4 4.08-3.499 7.655-8.852 10.065-15.075m-26.566 14.434c-5.45-3.438-6.291-14.978-1.915-26.274 2.333-6.025 5.778-11.194 9.698-14.556 2.833-2.43 5.649-3.688 8.159-3.688a6.8 6.8 0 0 1 2.472.451l1.102.548.045.028c-2.756.081-5.765 1.431-8.745 3.988-1.81 1.552-3.511 3.485-5.064 5.681l-.118.165q-.465.663-.908 1.36-.181.283-.359.572c-.232.377-.462.756-.685 1.145-.194.339-.382.688-.57 1.036-.15.281-.303.556-.448.842a45 45 0 0 0-.848 1.761l-.123.259a48 48 0 0 0-.945 2.25l-.024.076a47 47 0 0 0-.714 1.994c-.064.192-.121.382-.182.574a45 45 0 0 0-.633 2.147 44 44 0 0 0-.344 1.378q-.077.32-.147.638-.179.828-.322 1.642c-.018.103-.04.208-.057.31q-.166.996-.277 1.968l-.028.29a36 36 0 0 0-.136 1.621l-.021.428q-.036.764-.035 1.506v.33c.042 3.771.783 7.081 2.213 9.556zm5.012 2.885a4 4 0 0 1-.297-.128l-1.22-.715c-2.894-2.117-4.373-6.566-4.352-12.023.014-3.65.698-7.749 2.075-11.9q.345-1.038.747-2.078c2.333-6.026 5.777-11.196 9.696-14.557 3.81-3.268 7.588-4.417 10.643-3.232l.001-.002.094.036.004.002v.002l1.009.515c5.475 3.421 6.33 14.96 1.941 26.292-2.333 6.026-5.778 11.196-9.697 14.557-3.811 3.267-7.591 4.418-10.644 3.231"/>
</svg>
