<svg xmlns="http://www.w3.org/2000/svg" width="550" height="550" fill="none" viewBox="0 0 550 550">
    <path fill="#fff" fill-rule="evenodd" d="m178.929 219.71.017.01.021.011 2.198 1.244.011.004c-.191.154-.347.286-.481.4-.238.202-.409.348-.6.463q-9.174 5.48-18.359 10.937-8.452 5.019-16.91 10.031l-11.274 6.685q-7.712 4.577-15.425 9.159l-.042.025-7.67 4.557a8580 8580 0 0 1-8.673 5.144c-6.551 3.883-13.102 7.765-19.63 11.69q-1.119.673-2.242 1.343l-.003.002c-3.919 2.341-7.845 4.686-11.526 7.357-5.206 3.774-8.014 8.973-7.747 15.647.405 10.055.727 20.116 1.05 30.176l.108 3.379c.19 5.939.368 11.879.547 17.818v.002c.217 7.21.434 14.42.671 21.629.122 3.728 1.605 6.929 4.015 9.772 2.973 3.504 6.874 5.66 10.781 7.821l1.004.556q2.469 1.372 4.94 2.738c4.403 2.435 8.806 4.87 13.159 7.389 1.322.764 2.341 1.058 3.51.011 1.322-1.18 2.564-.844 3.981-.053 7.678 4.297 15.391 8.541 23.107 12.777 4.586 2.521 9.176 5.032 13.767 7.543 4.936 2.7 9.873 5.4 14.803 8.112a7238 7238 0 0 1 15.673 8.656q6.487 3.592 12.981 7.174 3.874 2.138 7.746 4.284l.02.011.024.013.006.003v.001c8.287 4.59 16.575 9.181 24.956 13.592 2.51 1.322 3.373 2.861 2.999 5.398-.168 1.123.405 1.555 1.291 2.036a998 998 0 0 1 15.8 8.713c4.236 2.396 8.511 4.722 13.217 6.047 9.271 2.61 18.695 2.992 28.195 1.567 5.417-.814 10.742-2.14 15.571-4.718 4.857-2.593 9.594-5.416 14.329-8.237l.001-.001.002-.001q1.873-1.117 3.748-2.228a4277 4277 0 0 0 15.559-9.263q5.475-3.272 10.955-6.533 8.623-5.123 17.252-10.235l.035-.02.011-.007q7.071-4.19 14.141-8.387 7.144-4.242 14.284-8.493l.046-.028q7.663-4.562 15.332-9.116 7.319-4.338 14.644-8.671l.029-.017.064-.037.022-.014q6.716-3.971 13.429-7.95 3.15-1.869 6.301-3.733c6.797-4.025 13.594-8.049 20.355-12.132q1.193-.719 2.39-1.435l.008-.005c4.266-2.556 8.542-5.117 12.531-8.06 4.897-3.618 7.662-8.565 7.258-15.013-.234-3.725-.307-7.461-.381-11.196a533 533 0 0 0-.131-5.661c-.107-3.566-.223-7.13-.339-10.695v-.004c-.173-5.341-.346-10.681-.49-16.022-.176-6.459-.321-12.919-.466-19.379v-.016q-.108-4.86-.222-9.717a9 9 0 0 1 0-.519c.005-.415.01-.831-.076-1.227-1.311-6.105-4.848-10.62-10.177-13.687-5.959-3.429-11.97-6.771-17.979-10.113l-.003-.002-4.663-2.594q-9.61-5.356-19.226-10.702l-.009-.005-.008-.005-.005-.002-.005-.003q-8.29-4.61-16.575-9.224c-1.072-.596-2.131-1.219-3.252-1.877-.587-.346-1.192-.701-1.824-1.068.178-.142.323-.264.45-.369.234-.196.403-.337.589-.449l1.051-.629c6.167-3.69 12.337-7.383 18.515-11.056q9.712-5.772 19.426-11.537l.079-.047.079-.047q7.764-4.608 15.525-9.218a39 39 0 0 0 2.663-1.712c2.177-1.539 3.35-3.533 3.22-6.326-.118-2.586-.125-5.177-.133-7.768v-.001a444 444 0 0 0-.016-3.053c-.01-1.073-.041-2.147-.073-3.222-.074-2.541-.149-5.081.058-7.596.118-1.427-.061-2.845-.239-4.261-.265-2.098-.529-4.189.178-6.29.052-.162.031-.349.01-.535l-.008-.075-.004-.042a2 2 0 0 1-.01-.139 1238 1238 0 0 0-.142-3.85c-.112-2.953-.224-5.906-.293-8.859-.096-4.03-.183-8.06-.122-12.09.042-2.77-.589-5.241-3.033-6.693-5.634-3.343-11.345-6.561-17.054-9.778l-1.072-.604a4462 4462 0 0 0-15.699-8.79l-.01-.005a7418 7418 0 0 1-9.167-5.122q-5.643-3.159-11.282-6.323l-.01-.006-.01-.005-.002-.001q-6.637-3.724-13.278-7.44-8.604-4.812-17.216-9.616l-.016-.01-.004-.002-7.785-4.345-5.065-2.828-.033-.019-.004-.002q-8.92-4.978-17.837-9.967c-2.395-1.34-4.784-2.69-7.172-4.04-4.734-2.675-9.467-5.35-14.243-7.947-6.521-3.542-13.324-3.733-20.017-.642-2.616 1.207-5.089 2.73-7.56 4.25-.953.586-1.905 1.172-2.864 1.74-8.221 4.862-16.434 9.74-24.643 14.619q-6.701 3.985-13.401 7.974t-13.4 7.974q-6.16 3.662-12.321 7.319l-.017.01-.004.003q-6.148 3.648-12.294 7.303-5.875 3.494-11.748 6.993-6.704 3.995-13.414 7.985-3.764 2.234-7.532 4.462l-.002.001h-.001c-5.618 3.323-11.236 6.646-16.821 10.022-2.495 1.509-4.298 3.667-4.275 6.8l.011 1.599v.001c.041 6.255.082 12.513.276 18.764.025.831-.012 1.669-.049 2.509-.097 2.224-.195 4.456.859 6.575.061.13.072.333.022.47-.829 2.412-.583 4.837-.337 7.264.133 1.304.265 2.61.23 3.913-.093 3.511-.04 7.025.014 10.539.036 2.376.072 4.751.063 7.125-.012 2.579 1.043 4.569 3.098 5.906 1.89 1.232 3.863 2.339 5.834 3.446h.001v.001q1.114.622 2.221 1.255c1.569.898 3.141 1.787 4.778 2.712M97.805 405.054c.017-.3.035-.557.05-.784.032-.447.055-.78.045-1.112q-.099-3.295-.207-6.592c-.11-3.423-.221-6.847-.312-10.269-.187-7.159-.344-14.321-.49-21.48-.007-.429.06-.86.126-1.29q.051-.315.089-.628c.201.057.41.102.617.147.451.097.901.194 1.285.411 12.423 6.964 24.83 13.954 37.234 20.949q8.668 4.888 17.329 9.783l11.58 6.54 9.072 5.12.036.02.035.02q9.12 5.145 18.235 10.299 3.763 2.131 7.521 4.272c6.117 3.483 12.235 6.965 18.406 10.347 1.795.986 2.41 2.063 2.448 4.042.152 7.767.357 15.534.561 23.301v.001c.126 4.747.251 9.494.364 14.241.03 1.23.359 1.979 1.551 2.613 4.84 2.582 9.657 5.226 14.374 8.026 6.861 4.072 14.119 7.021 22.08 7.88 6.872.741 13.733.711 20.593-.58 6.311-1.184 12.24-3.221 17.756-6.502 6.665-3.967 13.336-7.921 20.008-11.875l8.18-4.849 8.432-4.996a8716 8716 0 0 0 16.088-9.543c4.167-2.478 8.329-4.965 12.491-7.452l.011-.006.012-.007c4.664-2.787 9.329-5.574 14.001-8.35 4.661-2.771 9.328-5.532 13.995-8.294l.018-.011q6.415-3.793 12.822-7.597 8.069-4.798 16.128-9.606l.011-.006q6.62-3.949 13.245-7.892c3.517-2.091 7.042-4.171 10.567-6.25h.001c7.341-4.329 14.682-8.659 21.951-13.105 6.846-4.187 10.616-9.948 10.211-18.6-.711-15.124-1.13-30.26-1.548-45.396v-.013c-.173-6.23-.345-12.461-.537-18.691a3 3 0 0 0-.07-.469q-.025-.119-.045-.237l-.336-.195-.098.18a42 42 0 0 0-.277.515c-1.745 3.354-4.278 6.059-7.41 8.068-5.332 3.418-10.774 6.661-16.217 9.903l-.003.002a6076 6076 0 0 1-17.408 10.315l-.019.011q-7.037 4.156-14.065 8.327c-5.326 3.163-10.645 6.338-15.964 9.512l-.008.005-.008.004-.021.013-.02.012c-5.094 3.039-10.187 6.078-15.284 9.107a8382 8382 0 0 1-15.783 9.349l-.014.009a9098 9098 0 0 0-14.06 8.325c-5.791 3.436-11.576 6.883-17.36 10.329q-6.157 3.671-12.318 7.335a3618 3618 0 0 1-8.94 5.288c-6.433 3.796-12.867 7.592-19.244 11.482-5.97 3.644-12.212 6.532-19.062 7.991-7.38 1.574-14.852 1.795-22.324.963-5.539-.619-10.974-1.876-15.986-4.432-3.514-1.791-6.968-3.707-10.419-5.622l-.006-.003q-1.056-.586-2.113-1.17a12384 12384 0 0 1-31.744-17.588c-4.145-2.306-8.283-4.624-12.422-6.942l-.007-.004-.023-.013c-4.147-2.323-8.293-4.646-12.446-6.957-4.914-2.736-9.833-5.46-14.752-8.185l-.03-.016q-5.917-3.276-11.829-6.559-7.953-4.423-15.899-8.857l-.037-.02a14490 14490 0 0 0-20.897-11.635q-6.51-3.616-13.014-7.241a4101 4101 0 0 1-7.299-4.077l-.007-.004-.005-.003a2374 2374 0 0 0-14.287-7.949c-4.523-2.49-8.855-5.18-11.811-9.58a7 7 0 0 0-.438-.561q-.116-.137-.227-.276c-.37.715-.386 1.276-.367 1.838q.08 2.067.167 4.133v.001c.108 2.597.215 5.194.295 7.792q.202 6.598.41 13.196c.41 12.994.819 25.988 1.095 38.985.146 6.838 3.347 11.704 8.855 15.161 3.558 2.235 7.238 4.275 10.919 6.315l.002.001.002.001c1.353.75 2.705 1.5 4.052 2.259 2.168 1.224 4.35 2.426 6.644 3.69l.003.002.03.017.061.034c1.111.612 2.248 1.239 3.423 1.889m269.414-139.935-.129-.076-.884-.512v-.008l3.332-2.001.006-.004c1.971-1.184 3.863-2.321 5.761-3.45q3.59-2.134 7.183-4.263c5.419-3.213 10.838-6.426 16.237-9.669 1.192-.718 2.185-.737 3.389-.065a9123 9123 0 0 0 20.294 11.306l.002.001.001.001q5.082 2.825 10.163 5.653 3.756 2.091 7.513 4.18c7.745 4.307 15.491 8.614 23.204 12.976 3.812 2.154 7.155 4.886 9.168 8.931 2.617 5.256 1.749 10.165-1.589 14.757-2.796 3.843-6.765 6.261-10.769 8.629-5.772 3.414-11.538 6.84-17.303 10.265l-.027.016-.102.061q-5.308 3.155-10.618 6.306-6.034 3.578-12.071 7.151l-.021.012c-4.962 2.938-9.924 5.875-14.881 8.819-5.06 3.006-10.117 6.019-15.173 9.031l-.062.037-.009.005q-7.07 4.215-14.143 8.419a9776 9776 0 0 1-12.8 7.591l-.002.001-.001.001c-4.678 2.771-9.356 5.541-14.029 8.321a10740 10740 0 0 0-14.276 8.51l-.057.034-.022.014c-5.685 3.392-11.369 6.785-17.061 10.164q-2.494 1.48-4.985 2.966l-.004.002c-6.364 3.79-12.728 7.58-19.176 11.223-5.107 2.885-10.73 4.371-16.522 5.345-5.489.92-10.982 1.077-16.49.649-8.744-.684-16.789-3.484-24.376-7.907-6.144-3.585-12.377-7.022-18.61-10.46-2.641-1.457-5.282-2.913-7.916-4.381q-13.345-7.438-26.694-14.871-7.54-4.2-15.083-8.396l-.018-.01-9.66-5.377-9.417-5.246-.098-.054-.099-.055q-8.538-4.76-17.081-9.512-5.77-3.21-11.542-6.413l-.009-.004-.004-.003-.004-.002-.004-.002q-5.776-3.204-11.548-6.415l-3.939-2.191-.101-.056-.006-.004-.005-.002a5382 5382 0 0 1-23.857-13.321c-3.687-2.072-7.379-4.147-10.922-6.445-3.082-2.005-5.459-4.756-6.75-8.327-1.833-5.07-.66-9.562 2.533-13.684 2.88-3.72 6.826-6.081 10.788-8.427 6.398-3.785 12.79-7.58 19.182-11.376l.013-.007.012-.008 8.862-5.26 8.98-5.32.012-.006.011-.007c5.997-3.552 11.995-7.103 17.985-10.665q7.434-4.42 14.863-8.853l.005-.003.013-.008.015-.009q6.637-3.96 13.281-7.912c7.353-4.374 14.71-8.737 22.098-13.049.482-.279 1.375-.336 1.845-.077 7.807 4.312 15.59 8.663 23.374 13.014l.003.001.01.006 5.684 3.176.216.121c.849.476 1.698.952 2.564 1.399.936.486 1.078.967.085 1.555q-9.867 5.85-19.727 11.709l-6.344 3.764-.016.01-16.888 10.02-8.777 5.202c-6.55 3.882-13.101 7.764-19.644 11.659q-1.193.709-2.391 1.411l-.001.001c-2.837 1.669-5.677 3.339-8.396 5.181-3.404 2.308-6.135 5.28-6.437 9.68-.359 5.222 2.499 8.817 6.647 11.258 6.374 3.753 12.84 7.346 19.307 10.938l.015.009.012.006q3.03 1.682 6.058 3.372c5.645 3.153 11.299 6.289 16.953 9.426q4.054 2.247 8.106 4.498l4.048 2.248q11.348 6.302 22.688 12.611 4.472 2.49 8.94 4.986l.055.03.021.012c5.204 2.904 10.409 5.809 15.623 8.698 1.352.749 2.698 1.51 4.045 2.272 3.762 2.128 7.524 4.256 11.415 6.113 6.814 3.25 14.107 3.77 21.594 3.052 7.85-.753 14.508-4.252 21.056-8.248 4.762-2.905 9.568-5.741 14.375-8.578 2.689-1.586 5.378-3.173 8.06-4.772 2.818-1.68 5.63-3.371 8.441-5.063l.014-.008c3.06-1.84 6.12-3.681 9.189-5.507 5.742-3.415 11.489-6.82 17.236-10.226l.013-.008.037-.022.024-.014.024-.014c5.478-3.247 10.957-6.493 16.431-9.748l4.73-2.812.012-.007.004-.003c9.308-5.532 18.618-11.066 27.877-16.675 2.414-1.463 4.89-3.049 6.8-5.081 4.729-5.031 4.274-11.831-1.207-16.117-2.823-2.203-5.995-3.976-9.149-5.739l-.002-.001-.001-.001q-.928-.518-1.85-1.039c-5.768-3.27-11.566-6.488-17.365-9.706l-.002-.001-.002-.002-.011-.006a4349 4349 0 0 1-7.622-4.236c-.557-.312-1.108-.632-1.756-1.008m-43.832-37.478c-3.3 2.047-6.899 2.903-11.211 2.811l.007-.011c-4.511.367-8.641-1.868-12.774-4.21a2449 2449 0 0 0-15.493-8.682l-.007-.004-.009-.004-.008-.005c-3.212-1.79-6.423-3.579-9.63-5.378a6708 6708 0 0 1-12.005-6.748l-.006-.004a6235 6235 0 0 0-14.488-8.138c-3.897-2.182-7.802-4.347-11.708-6.513a3744 3744 0 0 1-11.4-6.341c-4.312-2.413-8.616-4.839-12.92-7.265l-.003-.001-.002-.001c-4.521-2.548-9.041-5.096-13.57-7.628a6301 6301 0 0 0-12.473-6.945l-.006-.003a4350 4350 0 0 1-17.393-9.703l-.656-.36h-.001c-1.572-.854-3.176-1.725-3.889-3.597-1.066-2.797-.711-4.653 1.803-6.349 2.909-1.965 5.935-3.764 8.959-5.561l.002-.001 1.823-1.085a7554 7554 0 0 1 19.389-11.54l.007-.005.007-.004 5.644-3.353.037-.022q13.195-7.84 26.39-15.674l4.148-2.462q11.211-6.653 22.416-13.315 5.725-3.406 11.448-6.816l.006-.004.025-.015.016-.01h.002q8.272-4.93 16.546-9.848 2.659-1.583 5.31-3.174c4.345-2.605 8.689-5.21 13.095-7.71 6.933-3.934 14.099-4.003 21.071-.202 8.738 4.767 17.418 9.644 26.098 14.52h.001l.002.002q4.663 2.621 9.329 5.235 7.507 4.204 15.009 8.42l.004.002.009.005.016.009c5.49 3.083 10.98 6.166 16.474 9.24q6.367 3.558 12.742 7.106l.005.003h.001c4.609 2.567 9.219 5.134 13.824 7.712 7.007 3.923 14.008 7.856 21.009 11.789q5.245 2.948 10.494 5.894 1.81 1.014 3.626 2.017l.001.001.004.002c2.392 1.326 4.785 2.651 7.145 4.03 2.105 1.231 3.652 2.865 3.308 5.639-.225 1.807-1.26 3.037-2.658 3.908-4.661 2.899-9.367 5.722-14.081 8.534-7.463 4.452-14.937 8.888-22.411 13.324l-.003.001-.01.007-4.247 2.521q-5.406 3.206-10.814 6.408l-.012.007-.003.002a9317 9317 0 0 0-15.865 9.409 9557 9557 0 0 0-13.861 8.267l-.027.016a8837 8837 0 0 1-15.752 9.392c-7.117 4.232-14.243 8.45-21.37 12.668l-.041.024-10.054 5.953q-.812.481-1.625.959h-.001c-1.596.94-3.191 1.879-4.765 2.854m-159.966-76.154q-.014.248-.032.512c-.027.403-.056.828-.048 1.255.031 1.984.079 3.969.128 5.953v.001c.108 4.487.217 8.975.135 13.459-.065 3.518 1.517 5.635 4.351 7.224q4.8 2.69 9.594 5.393l.005.003c3.975 2.238 7.951 4.477 11.935 6.702 4.984 2.782 9.974 5.553 14.963 8.323 5.171 2.872 10.341 5.743 15.505 8.626 2.899 1.618 5.787 3.256 8.675 4.893l.002.001.005.003c2.891 1.639 5.782 3.278 8.684 4.897 3.808 2.128 7.625 4.243 11.442 6.357 4.008 2.22 8.017 4.441 12.016 6.677 3.933 2.197 7.855 4.412 11.778 6.626l.005.003c3.095 1.747 6.189 3.494 9.288 5.232l1.336.749c5.17 2.899 10.34 5.798 15.549 8.622.642.347 1.277.709 1.912 1.071l.001.001c2.564 1.461 5.13 2.923 8.145 3.443 4.905.844 9.657.516 14.027-1.933 3.946-2.214 7.83-4.54 11.713-6.866l.001-.001c1.718-1.028 3.436-2.057 5.159-3.076q3.498-2.066 6.998-4.128a2902 2902 0 0 0 12.877-7.615c4.492-2.677 8.977-5.368 13.46-8.058l.003-.001c4.331-2.598 8.661-5.196 12.998-7.782a6567 6567 0 0 1 17.463-10.366q4.672-2.767 9.342-5.537l2.147-1.274c7.036-4.175 14.073-8.351 21.102-12.539 7.384-4.401 14.76-8.809 22.121-13.252 2.292-1.383 3.48-3.403 3.404-6.173-.117-4.488-.2-8.978-.283-13.468q-.062-3.37-.129-6.74c-.008-.36-.056-.72-.112-1.144q-.041-.306-.083-.666c-.423.3-.812.588-1.183.862-.755.559-1.432 1.06-2.152 1.491a2166 2166 0 0 1-9.732 5.784l-.009.006-.004.002a2643 2643 0 0 0-6.876 4.079q-6.634 3.95-13.264 7.909l-.017.01q-6.625 3.955-13.253 7.903a29294 29294 0 0 1-28.325 16.846q-8.765 5.21-17.528 10.416l-8.761 5.204a5886 5886 0 0 0-8.049 4.796c-6.707 4-13.413 8-20.158 11.932q-.996.582-1.992 1.174l-.004.002c-3.431 2.032-6.887 4.079-10.58 5.429-5.027 1.837-10.497 1.642-15.348-.833-5.511-2.814-10.9-5.864-16.288-8.914l-.003-.001-.002-.002c-2.013-1.139-4.027-2.279-6.047-3.406-4.776-2.665-9.546-5.339-14.316-8.013q-5.285-2.964-10.575-5.923a9731 9731 0 0 0-10.903-6.086l-.008-.005-.009-.005-.013-.007-.013-.007q-5.945-3.315-11.886-6.637-9.274-5.187-18.546-10.381l-8.14-4.559-8.306-4.652q-8.293-4.642-16.586-9.295c-4.481-2.515-8.958-5.037-13.482-7.584zm.381 34.19.001-.227v-.33l-.012-.007 8.445 4.718.095.053.002.001.02.011c7.205 4.026 14.312 7.996 21.414 11.979q6.726 3.774 13.448 7.556l.002.001.002.001.004.003a9395 9395 0 0 0 19.835 11.134c6.307 3.526 12.621 7.04 18.934 10.553 5.916 3.293 11.832 6.585 17.742 9.888 3.906 2.182 7.807 4.377 11.707 6.571l.011.006.008.004.002.001a3395 3395 0 0 0 16.326 9.145c1.071.595 2.137 1.205 3.203 1.815 3.481 1.992 6.969 3.989 10.656 5.477 6.36 2.567 12.835 1.883 18.802-1.604 8.537-4.992 17.035-10.056 25.533-15.12l.067-.04 6.141-3.658q7.931-4.723 15.86-9.455a13744 13744 0 0 1 18.554-11.058c5.56-3.305 11.128-6.6 16.695-9.894l.001-.001.019-.011q7.382-4.366 14.758-8.743c12.254-7.281 24.498-14.57 36.733-21.881.615-.367 1.178-.822 1.821-1.34.327-.264.674-.544 1.059-.838a67 67 0 0 0 .052.739v.001c.033.458.06.825.063 1.193.019 1.953.027 3.906.034 5.859.017 4.521.035 9.041.203 13.554.114 3.141-1.265 5.112-3.748 6.586q-8.455 5.019-16.918 10.029a13734 13734 0 0 0-22.168 13.147c-5.738 3.414-11.469 6.841-17.199 10.267a8565 8565 0 0 1-17.196 10.266c-8.025 4.772-16.058 9.532-24.092 14.292l-.004.003-.004.002q-9.331 5.527-18.657 11.064a498 498 0 0 0-5.964 3.615l-.001.001c-4.051 2.48-8.102 4.962-12.28 7.206-6.788 3.644-13.801 3.594-20.639-.191a7920 7920 0 0 1-23.107-12.855c-4.984-2.782-9.963-5.576-14.941-8.369q-3.922-2.202-7.846-4.401c-8.239-4.618-16.479-9.237-24.727-13.847q-7.062-3.948-14.129-7.89l-.007-.004-.006-.003-.033-.019-.032-.018q-4.368-2.436-8.735-4.875a19252 19252 0 0 1-25.159-14.05l-3.073-1.718c-4.643-2.595-9.286-5.189-13.895-7.843-2.285-1.314-3.557-3.247-3.534-6.082.037-4.483-.02-8.969-.078-13.453v-.005q-.04-2.9-.067-5.798-.003-.557-.001-1.112zm79.501 70.368c.216.148.46.313.747.502h.003l-1.999 1.201a1532 1532 0 0 1-5.293 3.173l-6.357 3.785-.053.031-.053.032c-7.264 4.325-14.526 8.65-21.797 12.963a9294 9294 0 0 1-12.901 7.637l-.023.014-.023.014a9888 9888 0 0 0-13.721 8.123l-.001.001c-6.887 4.091-13.774 8.182-20.627 12.327-2.288 1.382-3.988 3.377-4.675 5.986-.722 2.727.363 5.176 2.406 6.799 2.537 2.017 5.39 3.675 8.225 5.276 6.408 3.621 12.847 7.188 19.285 10.755l.001.001.001.001.052.028q3.62 2.005 7.236 4.013 4.167 2.314 8.333 4.625a10959 10959 0 0 1 18.679 10.38q5.168 2.883 10.33 5.778l.001.001h.001a2869 2869 0 0 0 17.894 9.971l.313.173h.001v.001c3.404 1.876 6.833 3.767 10.431 5.201 3.985 1.585 8.244 1.608 12.537 1.153 5.383-.571 9.797-3.222 14.233-5.885q.679-.409 1.361-.815 7.601-4.518 15.209-9.027l.002-.002.003-.001.012-.008.012-.007q6.479-3.84 12.953-7.686 6.167-3.667 12.333-7.338l.055-.033q6.19-3.686 12.381-7.367 4.743-2.818 9.488-5.63l.025-.015.064-.038.007-.004c5.659-3.356 11.319-6.711 16.969-10.086l.576-.344c3.43-2.051 6.864-4.104 10.185-6.322 2.124-1.417 3.4-3.461 3.591-6.184.233-3.381-1.528-5.623-4.08-7.193-3.335-2.053-6.768-3.948-10.202-5.842l-.001-.001-.002-.001q-1.634-.9-3.264-1.808-6.705-3.74-13.416-7.471l-.019-.011-.042-.023-.008-.005-.009-.005q-5.274-2.932-10.546-5.87c-.102-.057-.181-.155-.294-.295-.068-.084-.147-.183-.252-.297l.657-.397 1.575-.952.038-.022v-.001c2.032-1.228 4.025-2.434 6.031-3.625q2.62-1.554 5.244-3.102l.002-.001c3.39-2 6.779-4 10.145-6.038.943-.573 1.673-.642 2.628-.107 6.642 3.712 13.29 7.412 19.938 11.111l.016.009.016.009q6.832 3.802 13.661 7.608c2.648 1.479 5.215 3.098 6.853 5.745 2.51 4.057 1.853 8.939-2.135 12.259-2.759 2.298-5.882 4.189-8.979 6.065h-.001l-.96.582c-5.192 3.152-10.421 6.242-15.651 9.332l-.001.001-.007.004a3620 3620 0 0 0-6.222 3.681q-5.254 3.118-10.511 6.233l-.004.002q-6.506 3.854-13.008 7.716-6.882 4.09-13.759 8.192l-.01.006q-5.473 3.263-10.947 6.52a15650 15650 0 0 1-24.887 14.776 2685 2685 0 0 1-8.705 5.132l-2.057 1.21-1.329.782-1.252.738c-4.794 2.826-10.058 4.163-15.528 4.561-4.653.336-9.382.397-13.875-1.024a57 57 0 0 1-9.859-4.149c-7.25-3.907-14.437-7.927-21.625-11.947l-.005-.002q-3.57-2-7.146-3.991-7.007-3.903-14.009-7.813l-.032-.018-.033-.018c-5.301-2.958-10.602-5.917-15.906-8.868-4.258-2.37-8.52-4.733-12.782-7.097a7155 7155 0 0 1-15.562-8.645l-4.787-2.665c-6.927-3.853-13.855-7.707-20.719-11.671-3.388-1.956-6.066-4.73-6.322-8.935-.241-3.977 1.917-6.941 4.958-9.061 3.303-2.302 6.773-4.366 10.241-6.429l1.976-1.177c5.701-3.415 11.42-6.798 17.14-10.182l.012-.007.001-.001q3.883-2.296 7.764-4.597l13.475-7.994 13.357-7.924 4.44-2.634c5.103-3.026 10.205-6.051 15.287-9.113.951-.577 1.669-.584 2.62-.049 5.314 2.993 10.641 5.964 15.967 8.935l.003.002.031.017q3.618 2.017 7.232 4.037c.324.181.631.39 1.028.659l.001.001zm-23.097 211.599-.001.416v.004c-.752-.405-1.469-.788-2.161-1.158l-.01-.005v-.001c-1.269-.678-2.456-1.312-3.635-1.961a19721 19721 0 0 1-42.448-23.344l-.012-.006-.011-.007q-6.712-3.701-13.427-7.398-5.855-3.223-11.716-6.439-5.868-3.222-11.731-6.449-8.868-4.888-17.733-9.783l-.009-.005-.041-.023-9.106-5.026c-.408-.225-.823-.44-1.237-.654-.95-.49-1.899-.98-2.755-1.6-.619-.451-1.257-1.371-1.272-2.09-.18-9.34-.289-18.684-.399-28.027l-.064-5.386a8 8 0 0 1 .044-.788c.016-.184.034-.397.052-.656q.665.342 1.285.652l.01.005.004.002c.846.426 1.638.824 2.41 1.259q14.22 7.994 28.425 16.017 5.437 3.072 10.872 6.151l.009.005.008.004c4.55 2.576 9.1 5.153 13.654 7.722q6.521 3.673 13.047 7.338l.007.004.007.003q6.519 3.661 13.034 7.331 6.619 3.732 13.234 7.471 6.623 3.743 13.25 7.481c1.159.654 2.327 1.296 3.495 1.937q1.235.676 2.464 1.359c.875.489 1.612.925 1.639 2.22.161 7.796.378 15.593.594 23.389v.001q.113 4.05.223 8.102c.01.419.007.84.004 1.354v.001zm108.882-124.678.014.065.008.004-1.196.723-1.11.673-.006.004c-1.741 1.055-3.482 2.111-5.233 3.146l-.09.053-.002.001v.001c-2.418 1.429-4.84 2.861-7.311 4.197-.497.267-1.352.317-1.849.072-4.49-2.221-8.962-4.477-13.435-6.732v-.001l-.003-.001q-3.545-1.79-7.094-3.572c-1.508-.756-3.005-1.536-4.502-2.316l-.001-.001c-3.706-1.93-7.41-3.86-11.263-5.43-5.676-2.315-11.685-3.682-17.816-4.466-9.596-1.226-19.176-1.084-28.681.512-9.859 1.658-19.314 4.649-27.974 9.848-.649.39-1.841.531-2.463.199-4.704-2.524-9.36-5.131-14.017-7.74l-1.193-.668-1.946-1.089a1.4 1.4 0 0 1-.322-.286q-.061-.067-.121-.126.277-.732.559-1.451c.409-1.052.812-2.09 1.164-3.145 1.673-5.019.359-9.511-2.606-13.626-.821-1.142-.809-1.661.482-2.421 4.552-2.68 9.09-5.383 13.628-8.085l.009-.006.003-.001c5.348-3.185 10.697-6.37 16.068-9.519.661-.389 1.925-.309 2.659.058 8.873 4.413 17.717 8.892 26.559 13.37l.006.003 3.433 1.739q6.22 3.151 12.437 6.31l.011.005.011.006a9347 9347 0 0 0 20.477 10.376c2.259 1.139 4.514 2.287 6.769 3.435l.001.001c6.689 3.405 13.379 6.811 20.173 9.999 6.413 3.006 13.331 4.469 20.402 5.092q2.626.232 5.256.459l.035.003a4 4 0 0 0 .042.196l.018.084zm-105.476-58.049a21 21 0 0 0-.565-.412l-.004-.004c.799-.482 1.576-.954 2.34-1.417l.013-.008c1.662-1.008 3.259-1.977 4.863-2.933q.823-.491 1.644-.987c1.895-1.141 3.791-2.283 5.744-3.314.665-.352 1.8-.417 2.457-.088 13.095 6.528 26.159 13.125 39.212 19.734l6.465 3.271.004.002c9.486 4.798 18.971 9.596 28.411 14.482 9.306 4.821 19.047 5.986 29.307 4.286 6.712-1.111 12.759-3.636 18.359-7.434.688-.466 2.044-.626 2.751-.267 2.541 1.292 5.02 2.702 7.61 4.175q1.43.817 2.921 1.654l-.792.488-.952.59c-1.242.768-2.423 1.5-3.619 2.208l-2.248 1.333-.002.002c-4.917 2.917-9.832 5.834-14.787 8.684a12.6 12.6 0 0 1-3.839 1.421c-5.627 1.085-11.3 1.819-17.053 1.414l-.954-.067-.575-.04c-3.606-.25-7.213-.5-10.79-.959-5.669-.73-10.952-2.754-16.033-5.325a8840 8840 0 0 0-12.298-6.214q-4.73-2.386-9.457-4.776l-9.008-4.562q-6.306-3.196-12.613-6.386-8.004-4.042-16.014-8.08l-.063-.032-4.012-2.023-.007-.003a6972 6972 0 0 1-15.678-7.919c-.237-.12-.453-.282-.738-.494m237.599-109.985q-1.189.727-2.358 1.446l-.006.004a503 503 0 0 1-5.664 3.444q-8.163 4.864-16.333 9.717l-10.075 5.991-9.458 5.631-.025.015a21204 21204 0 0 1-34.865 20.724v.001h-.001l-5.475 3.249q-12.455 7.398-24.906 14.806a2173 2173 0 0 0-6.416 3.839l-.006.003c-4.562 2.737-9.123 5.474-13.729 8.134-.737.425-1.473.86-2.209 1.295h-.001l-.003.002c-3.226 1.906-6.475 3.825-9.953 5.04-5.772 2.021-11.735 1.505-17.232-1.512-4.014-2.205-8.001-4.46-11.989-6.715l-.001-.001-.002-.001c-2.54-1.436-5.081-2.873-7.628-4.296q-7.528-4.207-15.064-8.404l-.008-.004q-8.241-4.588-16.473-9.191c-4.978-2.785-9.951-5.579-14.924-8.372a9138 9138 0 0 0-14.922-8.371c-4.331-2.423-8.667-4.836-13.002-7.249-4.524-2.519-9.048-5.037-13.566-7.565-7.084-3.967-14.16-7.945-21.229-11.919l-.01-.006-9.634-5.414c-.638 2.024-.092 3.824 2.116 5.268 2.255 1.478 4.618 2.797 6.979 4.116l.003.002.774.432.285.16c4.66 2.612 9.328 5.212 13.996 7.813l.005.002.004.002q5.363 2.986 10.722 5.98 7.243 4.051 14.479 8.108 5.25 2.942 10.5 5.881 5.726 3.204 11.458 6.403l.014.008q5.726 3.196 11.448 6.398 12.423 6.95 24.841 13.912 3.542 1.988 7.078 3.985h.001c5.356 3.022 10.711 6.044 16.109 8.988q1.027.561 2.055 1.131c3.565 1.972 7.153 3.957 10.956 5.267 5.221 1.803 10.608.997 15.478-1.776 3.262-1.856 6.475-3.797 9.688-5.737a759 759 0 0 1 5.248-3.152q7.015-4.165 14.035-8.323l.035-.021q7.043-4.172 14.08-8.349 8.25-4.902 16.498-9.812 5.883-3.502 11.766-7 11.087-6.589 22.177-13.172l4.471-2.654 5.91-3.507.087-.052.088-.052a8150 8150 0 0 0 17.153-10.195c4.71-2.808 9.401-5.646 14.084-8.499 2.092-1.272 3.558-4.065 2.546-5.876M346.753 332.143c.094.038.228.092.424.161v.004a241 241 0 0 1-3.72 2.172c-2.697 1.554-5.323 3.067-7.793 4.799-4.043 2.835-8.286 2.209-12.506 1.586h-.002c-.731-.108-1.462-.216-2.192-.306-3.659-.451-7.342-1.184-10.833-2.342-4.195-1.386-8.274-3.193-12.262-5.111-4.75-2.284-9.442-4.684-14.134-7.084l-.001-.001-.002-.001c-1.975-1.01-3.951-2.02-5.93-3.022q-5.387-2.724-10.773-5.452l-.028-.014q-5.407-2.739-10.816-5.474-4.772-2.411-9.545-4.82l-.055-.027-.001-.001-.002-.001a12932 12932 0 0 1-12.324-6.225q-9.889-5.008-19.772-10.028a456 456 0 0 1-3.094-1.589l-.022-.011-1.541-.795c.706-.426 1.381-.825 2.032-1.21l.003-.001c1.455-.86 2.79-1.649 4.077-2.51 1.467-.981 2.659-1.054 4.336-.179 7.737 4.036 15.533 7.96 23.328 11.884h.001l4.633 2.334c6.103 3.077 12.209 6.145 18.316 9.213l.014.007.013.007q8.315 4.175 16.625 8.36a4401 4401 0 0 1 10.173 5.149l.006.003.006.003c3.674 1.863 7.348 3.726 11.028 5.579 5.539 2.789 11.448 4.397 17.557 5.291 8.197 1.203 16.376.97 24.535-.416.051-.009.109.014.24.067m18.19-25.837c.022.104.054.25.109.455l.004.003c-1.165.673-2.325 1.38-3.491 2.092h-.002c-2.604 1.589-5.24 3.197-8.028 4.471-6.758 3.083-14.008 4.061-21.415 3.656-6.162-.336-11.949-1.979-17.423-4.897-4.264-2.277-8.587-4.44-12.909-6.603l-.001-.001h-.001q-2.439-1.219-4.871-2.446-4.362-2.201-8.726-4.398h-.001l-.001-.001-.032-.016a7974 7974 0 0 1-11.311-5.704q-5.02-2.54-10.037-5.086l-.004-.002-.003-.002c-4.466-2.264-8.932-4.529-13.403-6.786a3012 3012 0 0 0-9.337-4.684l-.012-.006a4741 4741 0 0 1-6.378-3.195 5 5 0 0 1-.496-.311 32 32 0 0 0-.428-.285q1.022-.608 1.995-1.192l.001-.001h.001c2.045-1.225 3.961-2.373 5.914-3.448.351-.191 1.093.141 1.574.386a36480 36480 0 0 1 53.007 26.776l.004.002.004.002.003.002c6.937 3.514 13.875 7.029 20.83 10.509 6.8 3.403 14.046 3.812 21.415 2.738 5.359-.779 10.299-2.746 14.753-5.886.439-.313 1.306-.501 1.73-.279 1.892.986 3.737 2.065 5.58 3.143h.001l1.303.761c.036.022.049.085.082.233m-153.24 40.677-.528-.349h-.008c.763-.323 1.472-.635 2.146-.932l.002-.001h.001c1.344-.591 2.556-1.124 3.799-1.569 10.975-3.92 22.309-5.49 33.921-4.752 9.432.599 18.482 2.731 26.939 7.196 5.221 2.757 10.502 5.398 15.785 8.038l.002.001c2.416 1.208 4.833 2.416 7.244 3.635.227.114.441.253.71.427.148.096.312.203.505.322a266 266 0 0 1-3.17 1.865h-.001c-2.326 1.355-4.58 2.667-6.727 4.136-2.376 1.628-4.286 1.803-6.949.317-4.931-2.757-10.035-5.214-15.134-7.669l-.002-.001-.002-.001q-1.486-.714-2.968-1.432c-5.834-2.826-12.098-3.69-18.512-3.789-6.8-.103-13.378 1.07-19.799 3.255-.447.152-1.085.255-1.456.053-4.18-2.269-8.343-4.578-12.504-6.887l-.015-.008-.016-.009-2.829-1.569a7 7 0 0 1-.434-.277m140.209-44.212.001.001.006.004c.216.157.469.34.783.558v.004c-.574.248-1.099.484-1.593.706-.956.43-1.797.808-2.659 1.127-5.073 1.891-10.279 2.556-15.723 2.357-6.612-.24-12.216-3.056-17.87-5.951a3161 3161 0 0 0-17.421-8.849l-.004-.002-2.32-1.173q-5.05-2.549-10.103-5.092l-.015-.007-.012-.006a8645 8645 0 0 1-11.778-5.938c-5.501-2.782-10.998-5.572-16.496-8.362l-.086-.044-.019-.01-2.764-1.403-2.249-1.141c-.292-.15-.578-.311-.864-.472q-.238-.134-.477-.265-.058-.258-.122-.516c.533-.258 1.074-.504 1.615-.75 1.194-.544 2.389-1.088 3.504-1.764 2.772-1.676 4.993-.416 7.299.894l.318.18q4.788 2.7 9.574 5.408c10.138 5.733 20.276 11.467 30.498 17.046 7.197 3.927 14.619 3.732 21.854-.229.94-.516 1.685-.585 2.647-.046 5.219 2.928 10.45 5.833 15.682 8.738q3.925 2.178 7.846 4.361c.29.161.561.356.947.636zm-41.867 49.466c.608.315 1.247.647 1.936 1.002l.007-.004q-.733.43-1.431.845l-.723.429-.004.002c-1.92 1.139-3.68 2.184-5.478 3.163-.439.236-1.238.145-1.723-.096-2.337-1.152-4.663-2.328-6.99-3.504l-.002-.001h-.001v-.001c-3.187-1.61-6.373-3.22-9.589-4.772-1.269-.613-2.534-1.239-3.799-1.865l-.003-.002-.003-.002c-4.372-2.164-8.749-4.331-13.313-5.966-8.503-3.044-17.461-3.686-26.484-3.388-5.745.187-11.456.798-16.972 2.296-3.331.904-6.577 2.116-9.822 3.329h-.001c-1.555.581-3.11 1.162-4.674 1.709l-.063.022-.06.022-.012.004c-.497.176-1.113.394-1.469.208-1.854-.95-3.672-1.969-5.65-3.078l-.003-.002c-.708-.396-1.436-.804-2.194-1.225.428-.272.817-.531 1.184-.776v-.001h.001c.731-.489 1.375-.918 2.059-1.267 15.272-7.8 31.549-10.463 48.529-9.24 7.258.519 14.42 1.853 21.197 4.569 3.48 1.394 6.845 3.09 10.205 4.783q1.255.634 2.512 1.26c5.018 2.493 10.016 5.028 15.015 7.563l.043.021 4.745 2.405c.98.495 1.956 1.001 3.029 1.558zm-112.153-58.22-.784.466c-12.565 7.468-25.117 14.928-37.687 22.397l-.003.004c-2.067-2.323-2.071-5.665.481-7.912 2.164-1.904 4.695-3.427 7.181-4.922l.111-.067c6.861-4.128 13.752-8.208 20.642-12.288l.003-.002q3.014-1.784 6.026-3.57 6.042-3.582 12.087-7.159l.001-.001.001-.001q7.309-4.325 14.613-8.658l4.266-2.529.01-.006.01-.006c6.291-3.729 12.58-7.457 18.821-11.26 1.517-.921 2.713-.986 4.157-.035 1.006.661 2.06 1.252 3.241 1.915h.001c.553.311 1.134.636 1.75.992zm88.999 73.419c.131.094.285.204.477.334h.004a48 48 0 0 1-1.55.913l-.001.001c-1.066.61-2.075 1.187-2.945 1.928-2.911 2.479-5.463 1.329-8.316-.191-4.458-2.372-9.004-4.618-13.664-6.544-4.878-2.013-10.173-2.59-15.318-1.826-4.779.711-8.679-.58-12.484-3.075-.674-.441-1.376-.835-2.204-1.301-.406-.228-.843-.474-1.322-.75.502-.175.965-.346 1.404-.507.895-.33 1.689-.623 2.504-.838 8.217-2.177 16.552-2.823 24.864-.924 3.878.882 7.675 2.372 11.304 4.034 4.016 1.841 7.947 3.876 11.876 5.909l.003.002c1.604.83 3.208 1.66 4.818 2.477.17.087.327.199.549.357zm51.597-77.733.06.033c4.518 2.519 8.932 4.978 13.34 7.444l1.215.679c8.301 4.64 16.6 9.28 24.872 13.975.825.466 1.314.385 1.662-.356.638-1.363.932-2.75.401-4.286-.848-2.452-2.758-3.831-4.844-5a6862 6862 0 0 0-35.854-19.952c-.627-.348-1.662-.581-2.231-.306-1.445.702-2.828 1.531-4.333 2.434-.599.359-1.218.73-1.868 1.109 2.57 1.434 5.091 2.839 7.58 4.226m-61.361 83.691a17 17 0 0 1-.494-.424c-.225-.199-.378-.334-.553-.425l-1.133-.597c-1.772-.934-3.543-1.869-5.338-2.753-.708-.349-1.414-.707-2.12-1.065-2.126-1.078-4.254-2.157-6.471-2.988-5.451-2.044-11.17-2.346-16.934-1.929-.425.03-.844.126-1.328.237h-.001c-.238.054-.491.112-.768.167.133.125.23.222.305.297.123.122.19.188.268.231 1.185.67 2.379 1.326 3.574 1.983l.003.002.003.002c2.549 1.402 5.098 2.804 7.563 4.335 7.234 4.495 14.877 5.29 23.424 2.927m-96.805-44.491q-.176.212-.357.449-.845-.472-1.677-.932l-.002-.001-.002-.001c-1.512-.837-2.991-1.656-4.438-2.531-.291-.175-.531-.947-.386-1.241.825-1.677 1.356-3.392.672-5.195-.833-2.193-2.464-3.763-4.416-5.001-1.616-1.024-1.623-1.13.023-2.101q.797-.471 1.588-.953h.001l.001-.001c1.185-.718 2.369-1.436 3.598-2.075.443-.229 1.321-.153 1.719.153 5.856 4.481 7.582 12.018 4.297 18.554-.155.307-.378.579-.62.876zm-81.615 59.509.003.079.002.093.46 16.301.098-.041c1.454-.616 2.48-1.05 2.439-2.702-.178-7.673-.323-15.347-.467-23.02q-.107-5.755-.221-11.509c-.03-1.588-.843-2.295-2.972-2.494zm78.528-80.512c.912 1.827 1.955 1.206 3.029.567l.03-.018 10.166-6.039.085-.051.02-.012.021-.012q9.282-5.51 18.556-11.03c.253-.15.469-.359.701-.581v-.001q.173-.168.365-.339c-1.092-1.1-2.028-.92-3.113-.267a1464 1464 0 0 1-9.349 5.555q-3.02 1.783-6.034 3.575c-3.43 2.039-6.852 4.088-10.306 6.156l-.001.001-.036.021q-2.057 1.233-4.134 2.475m178.099-7.174q.218.167.477.354h-.003c-1.101 1.165-2.109 1.242-3.297.577q-5.524-3.088-11.052-6.164a5744 5744 0 0 1-12.579-7.019c-.252-.14-.44-.393-.629-.647a5 5 0 0 0-.272-.346c.128-.088.254-.195.381-.302.283-.24.567-.48.868-.504.581-.042 1.257.149 1.78.439 7.858 4.332 15.7 8.698 23.539 13.069.266.147.508.331.787.543m-192.108 19.288 1.721.966c2.229 1.252 4.26 2.393 6.32 3.482.222.115.894-.236 1.097-.542 1.501-2.288.469-6.143-1.972-7.415-.328-.171-.893-.213-1.195-.042-1.41.792-2.794 1.63-4.377 2.588l-.003.002-.002.001-.011.007zm56.492-37.347c.973 1.109 1.714 1.368 2.817.685 1.927-1.191 3.884-2.332 5.84-3.474 1.089-.635 2.177-1.269 3.26-1.913 1.19-.707 2.371-1.433 3.561-2.164q.97-.598 1.955-1.197c-1.429-1.372-1.44-1.375-2.93-.512-2.46 1.425-4.92 2.85-7.365 4.294a800 800 0 0 0-5.26 3.15l-.007.005-.002.001zm157.794 30.572q.182.173.379.344c-.733 1.02-1.582 1.299-2.552.764a952 952 0 0 1-7.086-3.971l-.01-.005q-1.647-.93-3.317-1.868c.814-1.189 1.581-1.666 2.918-.883 1.78 1.044 3.588 2.041 5.395 3.038l.003.002c1.147.633 2.294 1.266 3.434 1.911.303.171.564.415.836.668M252.54 263.116c1.8-1.073 2.312-1.012 4.118.6h-.003q-.937.479-1.852.95c-1.833.944-3.614 1.861-5.425 2.709-.449.208-1.03.159-1.586.113q-.197-.017-.386-.029c-.131-.007-.257-.124-.445-.298h-.001c-.107-.099-.234-.217-.394-.343q.42-.273.811-.531l.201-.132h.001c.633-.417 1.225-.807 1.829-1.179.648-.4 1.307-.786 1.966-1.172l.001-.001q.584-.341 1.165-.687m-84.231 52.388-.049-.394-.05-.397a7 7 0 0 1-.737-.112c-.546-.101-1.092-.203-1.49-.007-1.593.787-3.075 1.807-4.538 2.823-.275.191-.493.917-.348 1.162.18.301.913.611 1.162.473 1.559-.855 3.087-1.772 4.614-2.689l.006-.003q.715-.43 1.43-.856m36.114-163.152c-.134-.181-.254-.343-.324-.553h-.2c-1.7-3.3-.9-7 2.3-10.4 1.2-1.3 2.8-2.5 4.6-3.6 1.9-1.2 7-4.3 13.9-8.4l2.925-1.767.018-.01.001-.001c3.573-2.156 7.504-4.528 11.556-7.022 15.9-9.6 34.7-20.9 47.2-28.4 7.3-4.4 12.6-7.4 13.9-8.1q1.5-.75 3.3-1.5c5-2.1 10.9-2.9 18.3 1.5 5.1 3 31.8 17.4 55.4 30.1l3.19 1.713c16.115 8.656 29.563 15.879 31.91 17.287 2.3 1.3 5.6 3.4 7.7 5.9 2.7 3.2 2.9 6.4.5 9.3l-.2.2c-1.1 1.2-2.6 2.3-4.4 3.4-1.587.999-3.969 2.413-7.187 4.323l-.002.002-.007.004c-2.253 1.338-4.917 2.919-8.004 4.771l-11.5 6.9c-13.8 8.3-29.5 17.7-41.7 24.9l-6.302 3.645-.03.017c-5.542 3.208-9.412 5.448-11.568 6.638-7.2 4-14.5 5.9-19.6 5.9s-10-1.4-15-4.1c-1.202-.676-2.995-1.676-5.371-3.001l-.005-.002-.009-.006c-3.95-2.202-9.504-5.299-16.615-9.291-19.4-10.9-43.7-24.6-50.7-28.6l-3.16-1.807-.003-.002-.003-.001c-4.707-2.692-8.22-4.701-10.034-5.69-2-1.2-3.6-2.5-4.6-4a5 5 0 0 0-.176-.247m.176-5.653v.2c-.1.2-.1.5-.1.7v1.5c0 .1.025.225.05.35s.05.25.05.35c.1.1.1.3.1.4.1.1.1.3.1.3l1.9-1.2c1.2-1.2 2.6-2.2 4.2-3.2 1.334-.772 4.147-2.481 7.989-4.816l.007-.004.044-.026c1.616-.983 3.414-2.075 5.36-3.254l7.109-4.295.108-.065.001-.001c25.818-15.598 64.778-39.137 68.782-41.14 5.7-2.9 12.5-5.5 21.6 0 4.69 2.815 28.558 15.658 50.976 27.72l4.424 2.381c4.025 2.175 7.928 4.28 11.579 6.249 12.133 6.545 21.499 11.598 23.421 12.751l.105.065c2.098 1.298 5.13 3.175 7.195 5.535h.1l.2-.2c.1-.1.3-.3.3-.5q.058-.113.109-.191c.053-.085.091-.147.091-.209.1-.1.2-.3.2-.5v-.4c.1-.1.1-.3.1-.5v-1.3c-.1-.1-.1-.3-.1-.5-.1-.1-.2-.3-.2-.4-.1-.1-.2-.3-.2-.5 0-.05-.05-.125-.1-.2s-.1-.15-.1-.2l-.3-.6c-.1-.1-.2-.3-.2-.3-.1-.2-.3-.5-.5-.7-1.9-2.3-5.1-4.3-7.3-5.6-2.6-1.5-17.6-9.6-35.1-19l-4.425-2.381-.001-.001C349.757 100.956 325.89 88.114 321.2 85.3c-3.7-2.2-6.9-3-9.9-3-1.5 0-2.9.2-4.2.5-2.3.6-4.4 1.5-6.4 2.5-3.727 1.863-38.878 23.098-63.644 38.059-4.473 2.702-8.607 5.199-12.156 7.341l-.453.277c-6.468 3.958-11.19 6.848-13.047 7.923-1.7 1-3.1 2.2-4.3 3.4-.15.2-.3.375-.45.55s-.3.35-.45.55v.1c-.3.4-.5.7-.7 1-.2.1-.2.3-.2.3q-.046.091-.112.205l-.001.001c-.099.176-.217.385-.287.594-.1.1-.1.2-.1.3 0 .15-.05.275-.1.4s-.1.25-.1.4m195.5 13.6c7.5-4.6 12.4-7.5 15.2-9.1h.1c1.6-1 2.9-1.9 3.8-2.9-.1-.1-.2-.1-.2-.1-2-2.3-5-4.2-7.1-5.4-1.575-.909-7.699-4.202-16.15-8.746l-.004-.003c-5.501-2.958-11.987-6.446-18.846-10.151-23.7-12.7-50.5-27.1-55.5-30.1-8.6-5.2-15.1-2.7-20.5 0-4.4 2.2-52.7 31.4-75.9 45.5l-5.387 3.27-.008.005-.016.009c-3.842 2.334-6.655 4.044-7.989 4.816-1.5 1-2.9 2-4 3.1-.7.7-1.3 1.3-1.7 2 1 1.2 2.3 2.3 4 3.3.449.256 1.021.586 1.705.98l.008.004A809 809 0 0 0 223.1 163.3c7 4 31.3 17.7 50.7 28.6 11.4 6.5 18.8 10.6 21.9 12.3 10.7 5.8 20.4 5.3 33.4-1.8 2.9-1.6 8.9-5 17.8-10.3 11.385-6.665 25.598-15.214 38.594-23.032l.01-.006 3.096-1.862zm-21.7-27.1-4.6-2.6v-6c0-.2-.1-.4-.3-.5l-8.5-4.6h-.6l-5.4 3.1-36.5-20c-.133-.067-.267-.044-.4-.022-.067.011-.133.022-.2.022l-9.9 5.5c-.2.1-.3.3-.3.5v14.7l11.9 20.7-37.2-21.3q-.3-.15-.6 0l-9.8 5.5s-.1 0-.2.1v14.6c0 .1 0 .3.1.4l8.7 10.2-35-10.4h-.5l-9.9 5.6s-.2.1-.2.2v14.7c0 .2.1.4.3.5l54.1 32.6h.6l8-4.6c.2-.1.3-.3.3-.5v-10.8l12.1 3.8h.5l5.9-3.4c.2-.1.3-.3.3-.5v-14l12.2 7.2h.6l7.8-4.5c.2-.1.3-.3.3-.5v-11.7l17.8-10.1 10.3 5.7h.5l7.7-4.4c.2-.1.3-.3.3-.5v-14.4c0-.2-.1-.4-.3-.5zm-58.6 31.7-22.7-26 27 15.6 8.9 5.1v13zm11.3-16.7v-7.3l6.9 3.9v7.3zm37.7-20.3 3.8-2.2v4.3zm-46.5-24.2 36.5 20c.133.067.267.045.4.022.067-.011.133-.022.2-.022l5.4-3.1 7.2 3.9-4.7 2.7c-.2.1-.3.3-.3.5s.1.4.3.5l5.7 3.1 4 2.2-6.5 3.7-10.3-5.7h-.5l-21 12-7.6-4.3-17.6-30.6 9-5.1zm-9.3 7.1 16.8 29.2v7.4l-4-2.4-12.8-22.2zm-26.1 43.6-9.7-11.4v-12.6l24.2 28.3-2.6-.8-11.8-3.5zm-37.2-9.8 52.2 15.5h.5l.5-.3c.2 0 .3-.2.3-.4s0-.4-.1-.5l-21.2-24.8-4.3-5 8.9-5 43.8 25 8.1 4.6 2 1.1-6.6 3.8-37.8-21.8q-.3-.15-.6 0l-.4.2c-.2 0-.3.2-.3.4s0 .4.1.5l24.9 28.5-5 2.9-49.9-15.1h-.5l-.4.2-.1.1v.3c0 .2.1.4.3.5l36.8 22-5.7 3.3-1.1.6-7.6-4.6-45.3-27.3 8.8-5zm-9.4 6 52.9 31.9v13l-52.9-31.9zm60.8 41.1-6.8 3.9v-13.1l6.8-3.9zm1.2-14.1v-.2s-.1-.2-.2-.2l-34.7-20.8 46.7 14.1v13.2l-11.7-3.6v-2.4zm12.9 5.8v-13.1l4.7-2.7v13.1zm25.6-14.5-6.7 3.8v-13.1l3.8-2.2 2.9-1.7zm1.2-14.1v-.3s0-.1-.1-.1l-2.5-1.5v-8l20.1-11.5v13.1l-17.2 9.8V155zm18.4-21.5 9.4 5.2v13.1l-9.4-5.2zm10.6 18.2v-13.1l6.5-3.7v13.1zm-33.2-16.3-.2-.1v-.2l-12.4-21.1v-.5c.1-.1.1-.2.1-.2h.1l.3-.2h.6l25.5 14.1c.2.1.3.3.3.5s-.1.4-.3.5l-13 7.4h-.6zm-10.667-20.472L350.3 127.5l-11.8 6.7-4.1-7z" clip-rule="evenodd"/>
</svg>
