<svg xmlns="http://www.w3.org/2000/svg" width="550" height="550" fill="none" viewBox="0 0 550 550">
    <path fill="#fff" d="m178.925 219.836 2.24 1.267.011.004c-.191.154-.347.286-.481.4-.238.202-.409.348-.6.463q-9.173 5.48-18.359 10.937-8.452 5.018-16.911 10.031l-11.273 6.685q-7.703 4.571-15.407 9.149l-7.73 4.591q-4.336 2.576-8.673 5.145c-6.551 3.883-13.102 7.765-19.63 11.69q-1.121.674-2.245 1.345c-3.918 2.341-7.845 4.686-11.526 7.357-5.206 3.774-8.014 8.973-7.747 15.647.406 10.055.728 20.116 1.05 30.175l.108 3.38c.19 5.939.368 11.879.547 17.819.218 7.21.435 14.421.671 21.63.123 3.728 1.605 6.929 4.015 9.771 2.973 3.505 6.874 5.661 10.781 7.822l1.004.556q2.468 1.372 4.941 2.738c4.402 2.435 8.805 4.87 13.158 7.389 1.322.764 2.342 1.058 3.511.011 1.321-1.18 2.563-.844 3.98-.054 7.678 4.298 15.391 8.542 23.107 12.778 4.586 2.521 9.177 5.032 13.768 7.543 4.936 2.7 9.872 5.4 14.802 8.112 5.23 2.877 10.451 5.766 15.673 8.656q6.487 3.592 12.981 7.174 3.897 2.15 7.79 4.308c8.289 4.591 16.579 9.183 24.962 13.596 2.51 1.322 3.374 2.861 2.999 5.398-.168 1.123.405 1.555 1.291 2.036a993 993 0 0 1 15.8 8.713c4.236 2.395 8.511 4.722 13.217 6.047 9.271 2.609 18.695 2.991 28.195 1.567 5.417-.814 10.742-2.14 15.571-4.718 4.858-2.594 9.596-5.417 14.333-8.24q1.871-1.117 3.747-2.227a4277 4277 0 0 0 15.559-9.263q5.474-3.272 10.955-6.533 8.643-5.135 17.29-10.257 7.076-4.193 14.149-8.392 7.142-4.242 14.28-8.491 7.688-4.577 15.382-9.146 7.336-4.35 14.679-8.691 6.757-3.996 13.509-7.998 3.152-1.87 6.304-3.735c6.796-4.024 13.592-8.048 20.352-12.13q1.197-.722 2.398-1.44c4.267-2.556 8.542-5.117 12.531-8.06 4.897-3.618 7.663-8.565 7.258-15.013-.234-3.725-.307-7.461-.38-11.196a508 508 0 0 0-.132-5.661c-.107-3.566-.223-7.131-.338-10.695-.174-5.342-.347-10.683-.491-16.026-.176-6.464-.321-12.93-.466-19.395q-.108-4.859-.222-9.718a15 15 0 0 1 0-.518c.005-.415.01-.831-.076-1.227-1.31-6.105-4.848-10.62-10.177-13.687-5.96-3.43-11.972-6.773-17.982-10.115q-2.332-1.296-4.663-2.595-9.619-5.36-19.245-10.712-8.294-4.612-16.582-9.228c-1.073-.596-2.132-1.219-3.253-1.878-.588-.345-1.192-.701-1.824-1.067.178-.142.323-.264.45-.369.234-.196.403-.337.589-.449l1.009-.604c6.181-3.699 12.366-7.4 18.557-11.081q9.712-5.772 19.426-11.537a35891 35891 0 0 0 15.684-9.313 39 39 0 0 0 2.662-1.711c2.178-1.539 3.35-3.533 3.22-6.326-.118-2.586-.125-5.178-.133-7.769a444 444 0 0 0-.016-3.053c-.01-1.073-.041-2.147-.073-3.222-.074-2.541-.149-5.081.058-7.596.119-1.427-.06-2.845-.239-4.261-.265-2.098-.529-4.189.178-6.29.052-.162.031-.349.01-.535-.009-.086-.019-.172-.021-.256q-.07-1.925-.143-3.851a609 609 0 0 1-.293-8.858c-.095-4.03-.183-8.06-.122-12.09.042-2.77-.589-5.241-3.033-6.693-5.633-3.343-11.344-6.561-17.053-9.778l-1.073-.605c-5.225-2.944-10.462-5.866-15.699-8.789q-4.59-2.56-9.177-5.127-5.651-3.163-11.298-6.332-6.64-3.726-13.284-7.443c-5.736-3.21-11.478-6.414-17.218-9.618a21524 21524 0 0 1-12.836-7.165q-8.955-5-17.906-10.006c-2.395-1.34-4.784-2.69-7.173-4.04-4.733-2.676-9.467-5.35-14.242-7.948-6.521-3.54-13.324-3.732-20.017-.641-2.616 1.207-5.089 2.73-7.56 4.25-.952.586-1.904 1.172-2.864 1.74-8.221 4.862-16.434 9.74-24.643 14.619q-6.705 3.987-13.408 7.978-6.696 3.986-13.393 7.97-6.157 3.66-12.316 7.316-6.161 3.657-12.319 7.318-5.875 3.495-11.747 6.993-6.706 3.995-13.416 7.986-3.766 2.235-7.536 4.464c-5.617 3.323-11.235 6.645-16.82 10.021-2.495 1.509-4.298 3.667-4.275 6.8l.011 1.6c.041 6.255.082 12.513.276 18.764.025.831-.012 1.669-.049 2.508-.097 2.225-.195 4.457.859 6.576a.7.7 0 0 1 .023.47c-.83 2.412-.584 4.837-.338 7.264.133 1.304.265 2.61.231 3.913-.094 3.511-.04 7.025.013 10.539.036 2.375.072 4.751.063 7.125-.011 2.578 1.043 4.569 3.098 5.906 1.89 1.232 3.863 2.34 5.835 3.446q1.114.624 2.221 1.256c1.568.897 3.139 1.785 4.774 2.71m-81.12 185.346c.017-.301.035-.557.05-.784.032-.447.055-.78.045-1.112q-.099-3.296-.207-6.593c-.11-3.423-.221-6.846-.312-10.268-.187-7.159-.344-14.321-.49-21.48-.007-.429.06-.86.126-1.29q.051-.315.089-.628c.202.057.41.102.618.147.45.097.9.194 1.284.411a16790 16790 0 0 1 37.234 20.949q8.667 4.888 17.33 9.783l11.579 6.54 9.146 5.162q9.119 5.143 18.232 10.297 3.765 2.132 7.524 4.274c6.116 3.482 12.233 6.964 18.403 10.345 1.795.986 2.41 2.063 2.448 4.042.152 7.767.357 15.535.562 23.302.125 4.747.25 9.494.363 14.241.03 1.23.359 1.979 1.551 2.613 4.84 2.582 9.657 5.225 14.374 8.026 6.861 4.072 14.119 7.021 22.08 7.88 6.872.741 13.733.711 20.594-.58 6.31-1.185 12.239-3.221 17.755-6.502 6.659-3.964 13.324-7.914 19.99-11.864l8.198-4.86 8.412-4.984c5.372-3.182 10.742-6.362 16.108-9.555q6.248-3.719 12.489-7.451c4.673-2.791 9.346-5.583 14.026-8.364 4.666-2.773 9.337-5.537 14.007-8.301q6.418-3.796 12.828-7.601c5.379-3.197 10.751-6.4 16.124-9.603q6.628-3.953 13.26-7.901c3.517-2.092 7.042-4.171 10.568-6.25 7.341-4.329 14.682-8.659 21.952-13.106 6.845-4.186 10.615-9.947 10.21-18.599-.711-15.127-1.13-30.266-1.548-45.405a5824 5824 0 0 0-.537-18.695 2.7 2.7 0 0 0-.07-.469 7 7 0 0 1-.045-.237l-.336-.195c-.126.233-.252.462-.374.695-1.746 3.354-4.279 6.059-7.411 8.068-5.332 3.418-10.774 6.661-16.217 9.903l-.003.002c-5.794 3.451-11.6 6.882-17.406 10.314a7339 7339 0 0 0-14.086 8.339 9207 9207 0 0 0-15.976 9.519 9519 9519 0 0 1-15.329 9.134c-5.26 3.127-10.527 6.241-15.794 9.356-4.689 2.773-9.378 5.546-14.063 8.327-5.794 3.438-11.582 6.887-17.37 10.335q-6.152 3.667-12.308 7.329a3329 3329 0 0 1-8.939 5.287c-6.434 3.797-12.868 7.593-19.245 11.482-5.97 3.645-12.212 6.533-19.061 7.992-7.381 1.574-14.853 1.795-22.324.963-5.539-.619-10.975-1.876-15.987-4.432-3.514-1.792-6.968-3.707-10.42-5.622q-1.058-.588-2.117-1.173a12385 12385 0 0 1-31.745-17.588c-4.153-2.31-8.299-4.633-12.446-6.956-4.149-2.324-8.297-4.648-12.452-6.96a7376 7376 0 0 0-14.785-8.203 9654 9654 0 0 1-11.825-6.557c-5.304-2.947-10.603-5.903-15.901-8.858q-5.475-3.055-10.954-6.105-4.986-2.776-9.974-5.547a8961 8961 0 0 1-13.019-7.243 4066 4066 0 0 1-7.298-4.077c-4.761-2.663-9.521-5.326-14.3-7.956-4.523-2.49-8.855-5.18-11.811-9.58a7 7 0 0 0-.438-.561 14 14 0 0 1-.227-.276c-.37.714-.386 1.276-.367 1.838q.08 2.067.167 4.134c.108 2.597.216 5.193.295 7.792q.202 6.597.41 13.196c.41 12.994.819 25.988 1.096 38.985.145 6.838 3.346 11.704 8.854 15.161 3.558 2.234 7.238 4.275 10.919 6.315a617 617 0 0 1 4.056 2.261 779 779 0 0 0 6.643 3.69c1.141.629 2.31 1.273 3.518 1.942m269.413-139.936-1.012-.588v-.007l3.341-2.006c1.97-1.185 3.861-2.321 5.758-3.449q3.592-2.135 7.188-4.266c5.417-3.212 10.835-6.424 16.232-9.666 1.192-.718 2.185-.737 3.389-.065 6.76 3.782 13.531 7.546 20.302 11.311q5.08 2.823 10.158 5.65 3.756 2.091 7.513 4.18c7.745 4.307 15.491 8.614 23.204 12.976 3.812 2.154 7.155 4.886 9.168 8.931 2.617 5.256 1.75 10.165-1.589 14.757-2.796 3.842-6.765 6.261-10.769 8.629-5.783 3.421-11.56 6.853-17.336 10.285q-5.356 3.184-10.714 6.362-6.034 3.579-12.071 7.152-7.455 4.41-14.902 8.831-7.591 4.512-15.177 9.033a9158 9158 0 0 1-27.01 16.05 8338 8338 0 0 0-14.032 8.323c-4.782 2.844-9.56 5.696-14.338 8.547a8631 8631 0 0 1-17.078 10.175q-2.493 1.481-4.985 2.965c-6.365 3.791-12.73 7.582-19.18 11.226-5.107 2.884-10.73 4.37-16.521 5.345-5.49.92-10.983 1.077-16.491.649-8.744-.684-16.789-3.484-24.376-7.907-6.144-3.585-12.376-7.022-18.609-10.46-2.641-1.457-5.282-2.913-7.917-4.381l-.173-.097q-13.258-7.39-26.521-14.774-7.538-4.198-15.079-8.394l-9.682-5.389-9.617-5.357q-8.537-4.759-17.077-9.51-5.777-3.213-11.555-6.42a9995 9995 0 0 1-11.556-6.419l-4.046-2.25a5397 5397 0 0 1-23.861-13.323c-3.688-2.073-7.38-4.148-10.924-6.446-3.082-2.005-5.458-4.756-6.75-8.327-1.833-5.07-.66-9.562 2.533-13.684 2.88-3.72 6.826-6.081 10.788-8.427 6.406-3.79 12.807-7.59 19.207-11.391l8.862-5.26q4.497-2.665 8.995-5.328 9.002-5.327 17.993-10.67 7.443-4.427 14.881-8.864 6.645-3.964 13.296-7.921a3106 3106 0 0 1 22.098-13.049c.482-.279 1.376-.337 1.845-.077 7.81 4.314 15.597 8.666 23.384 13.019l5.687 3.178.216.121c.849.476 1.699.952 2.565 1.399.936.486 1.077.967.084 1.555q-9.867 5.851-19.727 11.708l-6.334 3.76q-8.456 5.02-16.914 10.034-4.387 2.602-8.773 5.201c-6.552 3.883-13.104 7.765-19.648 11.661q-1.193.709-2.391 1.411c-2.837 1.669-5.678 3.34-8.397 5.182-3.403 2.308-6.135 5.279-6.437 9.68-.359 5.222 2.499 8.817 6.647 11.258 6.374 3.754 12.842 7.346 19.309 10.939a2772 2772 0 0 1 6.083 3.386 6521 6521 0 0 0 16.953 9.425q4.053 2.248 8.106 4.499l4.04 2.243c7.566 4.203 15.134 8.407 22.696 12.616a9833 9833 0 0 1 8.993 5.015c5.212 2.908 10.424 5.817 15.646 8.711 1.352.749 2.699 1.51 4.045 2.272 3.762 2.128 7.524 4.256 11.415 6.113 6.815 3.25 14.107 3.77 21.594 3.052 7.85-.753 14.509-4.252 21.056-8.248 4.763-2.905 9.569-5.742 14.377-8.579 2.688-1.586 5.377-3.173 8.058-4.772 2.818-1.679 5.63-3.37 8.441-5.061 3.065-1.844 6.129-3.687 9.203-5.516 5.76-3.426 11.526-6.843 17.292-10.26a11882 11882 0 0 0 21.198-12.581c9.314-5.537 18.631-11.075 27.898-16.689 2.414-1.463 4.89-3.048 6.8-5.08 4.729-5.031 4.274-11.831-1.207-16.117-2.823-2.203-5.995-3.976-9.149-5.739q-.93-.52-1.853-1.041c-5.767-3.27-11.566-6.488-17.364-9.706q-3.821-2.12-7.638-4.245c-.557-.312-1.109-.633-1.757-1.009m-43.831-37.477c-3.3 2.047-6.899 2.903-11.211 2.811l.007-.011c-4.511.366-8.641-1.868-12.774-4.21a2452 2452 0 0 0-15.502-8.687 3642 3642 0 0 1-9.645-5.386q-6.006-3.368-12.005-6.748c-4.829-2.718-9.657-5.436-14.494-8.142a3260 3260 0 0 0-11.708-6.514 3435 3435 0 0 1-11.399-6.34c-4.314-2.414-8.62-4.841-12.926-7.268-4.521-2.547-9.041-5.095-13.57-7.627-4.156-2.323-8.318-4.636-12.479-6.949a4281 4281 0 0 1-17.393-9.702 51 51 0 0 0-.657-.361c-1.571-.853-3.175-1.724-3.889-3.597-1.066-2.796-.711-4.652 1.803-6.348 2.91-1.966 5.936-3.764 8.959-5.561q.913-.542 1.825-1.086a7930 7930 0 0 1 19.407-11.552l5.641-3.35.026-.016q13.2-7.843 26.4-15.68l4.165-2.472q11.202-6.648 22.4-13.305l11.472-6.831q8.284-4.936 16.57-9.862 2.659-1.582 5.31-3.174c4.345-2.605 8.689-5.21 13.095-7.71 6.933-3.934 14.1-4.003 21.071-.202 8.739 4.767 17.42 9.645 26.101 14.522a6546 6546 0 0 0 9.33 5.235q7.513 4.209 15.022 8.427c5.495 3.086 10.99 6.172 16.489 9.248 4.245 2.375 8.495 4.741 12.745 7.108 4.61 2.568 9.221 5.136 13.827 7.714 7.003 3.92 14 7.851 20.997 11.782l10.506 5.901c1.208.678 2.42 1.349 3.631 2.021 2.393 1.325 4.785 2.65 7.145 4.029 2.105 1.23 3.652 2.865 3.309 5.639-.226 1.807-1.261 3.037-2.659 3.908-4.661 2.899-9.367 5.722-14.081 8.533-7.465 4.454-14.941 8.891-22.417 13.329l-4.254 2.524q-5.402 3.205-10.807 6.405a9343 9343 0 0 0-15.887 9.422q-6.935 4.128-13.862 8.267c-5.256 3.139-10.513 6.279-15.777 9.408-7.115 4.23-14.238 8.446-21.361 12.662l-10.105 5.983q-.812.481-1.625.959a242 242 0 0 0-4.766 2.854m-159.966-76.154q-.013.248-.032.512c-.027.403-.056.828-.048 1.255.031 1.984.08 3.969.128 5.954.109 4.487.218 8.975.135 13.459-.065 3.518 1.517 5.635 4.351 7.224q4.8 2.69 9.594 5.393c3.977 2.239 7.954 4.479 11.94 6.705 4.985 2.782 9.975 5.553 14.965 8.324 5.171 2.871 10.34 5.742 15.503 8.625 2.901 1.62 5.792 3.258 8.683 4.897s5.781 3.278 8.683 4.897c3.809 2.128 7.626 4.243 11.443 6.357 4.008 2.221 8.016 4.441 12.015 6.677 3.934 2.198 7.859 4.414 11.783 6.629 3.095 1.747 6.189 3.494 9.288 5.232l1.335.748c5.17 2.899 10.341 5.798 15.55 8.623.642.347 1.277.71 1.913 1.072 2.564 1.46 5.13 2.923 8.145 3.443 4.905.844 9.657.516 14.027-1.933 3.946-2.214 7.83-4.54 11.714-6.866 1.718-1.029 3.436-2.058 5.159-3.077q3.499-2.067 7.002-4.13c4.296-2.531 8.592-5.061 12.873-7.613 4.492-2.677 8.977-5.368 13.461-8.058 4.331-2.598 8.663-5.197 13-7.784a6848 6848 0 0 1 17.463-10.365q4.673-2.767 9.342-5.537l2.147-1.274c7.036-4.175 14.074-8.351 21.102-12.539 7.384-4.401 14.76-8.809 22.122-13.252 2.292-1.383 3.48-3.404 3.403-6.173-.117-4.488-.2-8.979-.283-13.468q-.062-3.37-.129-6.74c-.008-.36-.056-.721-.112-1.144q-.041-.306-.083-.667c-.423.301-.812.589-1.183.863-.755.559-1.432 1.06-2.152 1.491a2166 2166 0 0 1-9.731 5.783q-3.448 2.04-6.89 4.087-6.635 3.953-13.269 7.913a17828 17828 0 0 1-13.265 7.91 31331 31331 0 0 1-28.256 16.805l-.069.041q-8.781 5.22-17.563 10.437l-8.726 5.183a5504 5504 0 0 0-8.051 4.797c-6.706 4-13.411 7.999-20.156 11.931q-.997.584-1.996 1.176c-3.431 2.032-6.887 4.079-10.579 5.429-5.028 1.837-10.498 1.642-15.349-.833-5.511-2.814-10.9-5.864-16.288-8.914-2.015-1.141-4.03-2.281-6.052-3.409-4.776-2.665-9.545-5.339-14.315-8.013q-5.286-2.964-10.576-5.923-5.459-3.051-10.919-6.096a9825 9825 0 0 1-11.913-6.651q-9.286-5.193-18.569-10.394l-8.117-4.546-8.298-4.648q-8.297-4.644-16.593-9.299c-4.48-2.514-8.955-5.034-13.477-7.581zm.381 34.19.001-.557-.011-.007 8.539 4.771a14244 14244 0 0 1 21.436 11.991q6.728 3.775 13.452 7.559c6.61 3.717 13.22 7.435 19.839 11.136 6.307 3.526 12.62 7.039 18.933 10.553 5.917 3.293 11.833 6.585 17.743 9.888 3.911 2.185 7.815 4.381 11.72 6.578 5.44 3.06 10.879 6.12 16.334 9.149 1.071.595 2.137 1.205 3.203 1.815 3.481 1.992 6.969 3.989 10.656 5.477 6.361 2.567 12.835 1.883 18.802-1.604 8.535-4.991 17.031-10.054 25.527-15.116q3.106-1.852 6.214-3.702 7.93-4.722 15.856-9.453c6.184-3.689 12.368-7.379 18.558-11.06a9660 9660 0 0 1 16.718-9.908c4.92-2.911 9.839-5.822 14.755-8.741 12.255-7.281 24.498-14.57 36.733-21.881.615-.367 1.179-.822 1.821-1.34.327-.264.674-.544 1.059-.838.018.275.036.518.052.739.034.459.06.826.063 1.194.02 1.953.027 3.906.034 5.859.018 4.52.035 9.041.203 13.554.114 3.14-1.265 5.112-3.748 6.586q-8.455 5.018-16.916 10.028c-7.393 4.378-14.786 8.756-22.17 13.148a9068 9068 0 0 0-17.2 10.268 8758 8758 0 0 1-17.195 10.265c-8.023 4.771-16.055 9.53-24.088 14.29a20796 20796 0 0 0-18.669 11.071c-1.998 1.186-3.98 2.4-5.963 3.615-4.052 2.481-8.104 4.962-12.282 7.207-6.788 3.644-13.801 3.594-20.639-.191a7920 7920 0 0 1-23.107-12.855 7578 7578 0 0 1-14.948-8.373q-3.919-2.2-7.839-4.397l-.031-.018c-8.229-4.612-16.459-9.225-24.695-13.829q-7.07-3.952-14.145-7.899-4.4-2.453-8.798-4.91a19252 19252 0 0 1-28.234-15.769c-4.642-2.594-9.284-5.189-13.893-7.842-2.285-1.314-3.557-3.247-3.534-6.082.038-4.484-.02-8.97-.078-13.455-.025-1.934-.05-3.868-.067-5.801q-.003-.557-.001-1.113m79.5 70.368c.217.147.46.313.748.502h.004q-1.023.613-1.994 1.198a1534 1534 0 0 1-5.299 3.176l-6.466 3.85c-7.263 4.325-14.524 8.649-21.794 12.961a8943 8943 0 0 1-12.928 7.653q-6.874 4.063-13.74 8.135l-.001.001c-6.887 4.091-13.774 8.182-20.627 12.327-2.288 1.382-3.988 3.376-4.675 5.985-.722 2.728.363 5.177 2.406 6.8 2.537 2.017 5.39 3.675 8.225 5.275 6.409 3.623 12.849 7.19 19.288 10.758q3.645 2.018 7.288 4.041 4.158 2.31 8.318 4.617c6.233 3.458 12.467 6.917 18.693 10.388a4961 4961 0 0 1 10.335 5.781c5.956 3.337 11.912 6.675 17.891 9.969l.313.173c3.404 1.876 6.834 3.767 10.432 5.202 3.985 1.585 8.244 1.608 12.538 1.153 5.382-.572 9.796-3.222 14.232-5.885q.679-.409 1.361-.815 7.605-4.52 15.214-9.03 6.49-3.848 12.977-7.702 6.2-3.685 12.397-7.375a10466 10466 0 0 1 21.95-13.045c5.661-3.357 11.323-6.714 16.975-10.09l.575-.344c3.431-2.051 6.865-4.104 10.186-6.322 2.124-1.417 3.4-3.461 3.591-6.184.233-3.381-1.528-5.623-4.08-7.193-3.335-2.053-6.768-3.948-10.203-5.843q-1.635-.9-3.266-1.809-6.735-3.757-13.476-7.505-5.284-2.938-10.563-5.88c-.103-.058-.182-.155-.295-.295-.068-.084-.147-.183-.252-.297l2.27-1.372c2.032-1.228 4.025-2.434 6.031-3.625q2.62-1.555 5.245-3.102c3.39-2 6.78-4.001 10.146-6.039.943-.573 1.673-.642 2.628-.107a13498 13498 0 0 0 19.977 11.133q6.828 3.799 13.654 7.604c2.648 1.478 5.215 3.098 6.853 5.745 2.51 4.057 1.853 8.939-2.135 12.259-2.759 2.298-5.882 4.189-8.979 6.065q-.481.29-.961.582c-5.194 3.154-10.426 6.245-15.659 9.337a3620 3620 0 0 0-6.222 3.681q-5.252 3.116-10.507 6.231a9600 9600 0 0 0-26.788 15.92 16112 16112 0 0 1-35.831 21.294c-2.893 1.715-5.794 3.421-8.695 5.127q-2.326 1.366-4.648 2.735c-4.794 2.826-10.058 4.163-15.528 4.561-4.653.336-9.382.397-13.875-1.024a57.3 57.3 0 0 1-9.859-4.149c-7.252-3.908-14.441-7.929-21.631-11.95a4998 4998 0 0 0-7.145-3.991q-7.039-3.92-14.075-7.849-7.95-4.439-15.904-8.867-6.39-3.554-12.783-7.097a7155 7155 0 0 1-15.562-8.645l-4.787-2.665c-6.927-3.853-13.855-7.707-20.719-11.672-3.388-1.955-6.066-4.729-6.322-8.935-.241-3.976 1.918-6.94 4.958-9.061 3.303-2.301 6.774-4.365 10.241-6.428l1.976-1.177c5.705-3.417 11.429-6.803 17.153-10.19a8781 8781 0 0 0 7.765-4.597l13.429-7.967 13.402-7.951 4.437-2.632c5.104-3.027 10.207-6.052 15.29-9.115.951-.577 1.669-.584 2.62-.05 5.316 2.995 10.645 5.967 15.973 8.94q3.631 2.024 7.26 4.052c.324.181.632.39 1.029.66m-23.093 211.021c-.002.295-.004.621-.004.994v.004c-.755-.407-1.474-.791-2.168-1.162-1.27-.679-2.458-1.314-3.638-1.963a19721 19721 0 0 1-42.448-23.344q-6.724-3.708-13.45-7.411-5.86-3.224-11.724-6.444t-11.723-6.444q-8.894-4.902-17.784-9.811l-9.105-5.026a47 47 0 0 0-1.238-.654c-.949-.491-1.898-.981-2.754-1.6-.619-.451-1.257-1.371-1.272-2.09-.18-9.34-.289-18.683-.399-28.026l-.063-5.387a7 7 0 0 1 .043-.788c.016-.184.034-.397.052-.656q.673.344 1.299.659a58 58 0 0 1 2.41 1.258q14.222 7.995 28.425 16.018 5.442 3.075 10.882 6.156c4.552 2.577 9.105 5.155 13.661 7.726q6.521 3.674 13.047 7.337 6.525 3.664 13.048 7.339 6.624 3.735 13.243 7.476 6.618 3.742 13.241 7.476a328 328 0 0 0 3.494 1.936q1.236.677 2.465 1.36c.875.489 1.612.925 1.639 2.22.162 7.798.378 15.596.595 23.394q.113 4.048.222 8.098c.01.42.007.841.004 1.355M329.075 343.03l.027.129.008.004-2.314 1.4a537 537 0 0 1-5.231 3.146l-.089.053c-2.419 1.43-4.842 2.863-7.314 4.199-.497.267-1.352.317-1.849.072a1958 1958 0 0 1-13.437-6.734q-3.545-1.79-7.095-3.572a314 314 0 0 1-4.502-2.317c-3.706-1.93-7.411-3.86-11.263-5.43-5.677-2.315-11.686-3.683-17.817-4.466-9.596-1.226-19.176-1.085-28.681.512-9.859 1.658-19.313 4.649-27.973 9.848-.65.39-1.842.531-2.464.199-4.705-2.524-9.36-5.132-14.018-7.74q-1.568-.88-3.138-1.757a1.4 1.4 0 0 1-.322-.286q-.061-.067-.121-.126.277-.732.559-1.452c.409-1.051.812-2.089 1.164-3.144 1.673-5.019.359-9.512-2.605-13.626-.822-1.142-.81-1.661.481-2.422a3172 3172 0 0 0 13.636-8.089c5.35-3.186 10.7-6.372 16.072-9.521.661-.389 1.925-.309 2.659.058 8.874 4.413 17.718 8.892 26.562 13.371l3.436 1.74q6.22 3.152 12.438 6.311c6.829 3.467 13.659 6.935 20.498 10.387 2.259 1.139 4.515 2.288 6.771 3.436 6.688 3.405 13.379 6.811 20.172 9.999 6.413 3.006 13.331 4.469 20.402 5.092q2.624.232 5.253.459l.038.003zm-105.463-57.985a21 21 0 0 0-.565-.412l-.003-.004q1.203-.727 2.355-1.426a712 712 0 0 1 4.861-2.932q.822-.491 1.643-.987c1.896-1.141 3.791-2.283 5.744-3.315.665-.351 1.8-.416 2.457-.087 13.095 6.528 26.159 13.125 39.212 19.734q3.231 1.637 6.464 3.27c9.488 4.799 18.975 9.598 28.416 14.485 9.306 4.821 19.047 5.986 29.307 4.286 6.712-1.112 12.759-3.637 18.359-7.434.688-.466 2.044-.626 2.751-.267 2.542 1.292 5.02 2.702 7.61 4.175.956.544 1.927 1.096 2.922 1.654-.6.368-1.179.727-1.746 1.078-1.241.768-2.422 1.5-3.618 2.207l-2.25 1.335c-4.917 2.918-9.832 5.835-14.787 8.685a12.6 12.6 0 0 1-3.839 1.421c-5.627 1.085-11.3 1.819-17.053 1.414l-1.529-.107c-3.606-.25-7.212-.5-10.79-.959-5.669-.73-10.952-2.754-16.033-5.325a8836 8836 0 0 0-12.295-6.213 10457 10457 0 0 1-18.482-9.347q-6.298-3.192-12.599-6.378-8.027-4.054-16.061-8.103l-4.028-2.032c-5.23-2.636-10.459-5.271-15.685-7.922-.237-.12-.453-.282-.738-.494M461.211 175.06l-2.359 1.446a498 498 0 0 1-5.669 3.448q-8.154 4.859-16.315 9.707a18175 18175 0 0 0-19.567 11.642 22925 22925 0 0 1-34.884 20.735l-5.466 3.244a33276 33276 0 0 0-24.906 14.806 2177 2177 0 0 0-6.422 3.842c-4.562 2.737-9.123 5.474-13.729 8.134-.738.426-1.475.861-2.213 1.297-3.226 1.906-6.475 3.825-9.953 5.04-5.772 2.021-11.735 1.505-17.232-1.512-4.013-2.205-8.001-4.46-11.989-6.715a1778 1778 0 0 0-7.631-4.299q-7.532-4.209-15.072-8.407c-5.492-3.061-10.986-6.121-16.473-9.191-4.978-2.785-9.951-5.579-14.925-8.373a9476 9476 0 0 0-14.921-8.37 6615 6615 0 0 0-13.003-7.25 6898 6898 0 0 1-13.565-7.564c-7.085-3.968-14.162-7.946-21.232-11.921l-9.641-5.418c-.638 2.024-.092 3.824 2.116 5.267 2.256 1.479 4.618 2.798 6.979 4.117l1.062.594c4.659 2.611 9.326 5.211 13.992 7.81q5.37 2.99 10.735 5.987 7.243 4.051 14.48 8.108 5.25 2.942 10.499 5.881a9857 9857 0 0 0 11.46 6.404q5.732 3.2 11.46 6.405 12.423 6.95 24.841 13.912 3.543 1.988 7.08 3.986c5.356 3.022 10.711 6.043 16.108 8.987q1.027.561 2.055 1.131c3.564 1.972 7.153 3.957 10.956 5.267 5.222 1.803 10.608.997 15.478-1.776 3.262-1.856 6.475-3.797 9.689-5.738a775 775 0 0 1 5.247-3.151q7.035-4.176 14.074-8.346 7.042-4.171 14.076-8.347 8.241-4.896 16.479-9.801a24311 24311 0 0 1 33.941-20.17l4.493-2.668 6.084-3.61c5.721-3.394 11.442-6.788 17.153-10.195 4.71-2.808 9.401-5.646 14.084-8.5 2.092-1.271 3.558-4.064 2.546-5.875M346.753 332.271c.095.039.228.093.425.162v.004c-1.249.749-2.492 1.465-3.719 2.172-2.698 1.554-5.324 3.066-7.794 4.799-4.043 2.835-8.285 2.209-12.505 1.586-.733-.108-1.465-.216-2.195-.306-3.659-.451-7.342-1.184-10.833-2.342-4.194-1.386-8.274-3.193-12.262-5.111-4.751-2.285-9.444-4.686-14.137-7.086q-2.961-1.517-5.93-3.022-5.4-2.73-10.798-5.464-5.407-2.74-10.819-5.476-4.797-2.425-9.596-4.846-6.166-3.11-12.331-6.228a20346 20346 0 0 1-19.772-10.028 434 434 0 0 1-3.093-1.589l-1.564-.806c.707-.427 1.383-.826 2.035-1.211 1.455-.861 2.79-1.65 4.077-2.51 1.467-.981 2.659-1.054 4.336-.179 7.738 4.036 15.534 7.961 23.33 11.885l4.632 2.333c6.104 3.078 12.212 6.146 18.32 9.214q8.327 4.182 16.649 8.373c3.397 1.712 6.788 3.433 10.18 5.153 3.675 1.864 7.351 3.728 11.032 5.581 5.539 2.789 11.449 4.397 17.557 5.291 8.197 1.203 16.376.97 24.536-.416.051-.009.108.014.239.067m18.19-25.837c.022.104.054.25.109.455l.004.003c-1.165.673-2.326 1.381-3.492 2.092-2.605 1.589-5.241 3.197-8.029 4.471-6.758 3.083-14.008 4.061-21.415 3.656-6.162-.336-11.949-1.979-17.423-4.897-4.265-2.277-8.588-4.441-12.91-6.604q-2.438-1.219-4.872-2.446-4.363-2.202-8.728-4.399-5.674-2.856-11.343-5.72-5.02-2.54-10.037-5.086a8410 8410 0 0 0-13.41-6.791c-3.106-1.566-6.22-3.124-9.333-4.682a3812 3812 0 0 1-6.394-3.202 5 5 0 0 1-.496-.311 32 32 0 0 0-.428-.285q1.022-.608 1.995-1.192c2.046-1.226 3.962-2.374 5.916-3.449.352-.191 1.093.141 1.574.386 14.581 7.345 29.15 14.71 43.72 22.075q4.648 2.35 9.296 4.705c6.938 3.515 13.877 7.03 20.832 10.51 6.8 3.404 14.046 3.813 21.415 2.739 5.36-.779 10.299-2.746 14.753-5.886.439-.314 1.306-.501 1.73-.279 1.893.986 3.737 2.065 5.581 3.143l1.303.761c.036.022.05.084.082.233m-153.24 40.677a46 46 0 0 0-.528-.349h-.008c.764-.323 1.473-.636 2.149-.933 1.344-.591 2.556-1.124 3.799-1.569 10.975-3.92 22.309-5.49 33.922-4.753 9.431.6 18.481 2.732 26.938 7.197 5.222 2.758 10.505 5.399 15.789 8.04 2.416 1.208 4.832 2.415 7.242 3.634.227.114.441.253.71.427.148.096.313.203.505.322a266 266 0 0 1-3.17 1.865c-2.326 1.355-4.581 2.667-6.728 4.136-2.376 1.628-4.286 1.803-6.948.317-4.933-2.757-10.037-5.214-15.137-7.67q-1.486-.715-2.97-1.433c-5.833-2.827-12.098-3.69-18.512-3.789-6.8-.103-13.378 1.069-19.799 3.254-.447.153-1.085.256-1.455.054a1520 1520 0 0 1-12.505-6.887l-2.86-1.586c-.113-.064-.222-.137-.434-.277m140.209-44.212c.218.158.473.343.79.563v.004c-.574.248-1.099.484-1.593.706-.956.43-1.797.808-2.659 1.127-5.073 1.891-10.279 2.556-15.723 2.357-6.612-.24-12.216-3.056-17.87-5.951-5.793-2.973-11.604-5.909-17.417-8.847l-2.328-1.177q-5.054-2.55-10.111-5.096c-3.933-1.98-7.866-3.96-11.797-5.948-5.544-2.802-11.083-5.614-16.623-8.426l-4.991-2.533c-.292-.15-.579-.311-.865-.472l-.475-.265a32 32 0 0 0-.123-.516 76 76 0 0 1 1.615-.75c1.194-.544 2.389-1.088 3.504-1.764 2.772-1.676 4.993-.416 7.299.893l.318.181q4.789 2.7 9.573 5.408c10.139 5.733 20.277 11.467 30.499 17.046 7.197 3.927 14.619 3.732 21.854-.229.94-.516 1.685-.585 2.648-.046a3866 3866 0 0 0 15.68 8.737q3.924 2.179 7.847 4.361c.291.162.561.357.948.637m-41.871 49.464c.609.316 1.249.648 1.94 1.003l.007-.003c-.746.438-1.462.863-2.157 1.276-1.92 1.139-3.681 2.184-5.479 3.162-.439.237-1.237.146-1.723-.095a800 800 0 0 1-6.992-3.505c-3.187-1.61-6.374-3.221-9.59-4.773a418 418 0 0 1-3.805-1.869c-4.372-2.164-8.749-4.331-13.313-5.966-8.503-3.044-17.461-3.686-26.484-3.388-5.745.187-11.456.798-16.972 2.296-3.331.904-6.577 2.116-9.822 3.329-1.555.581-3.11 1.162-4.675 1.709l-.135.048c-.497.176-1.113.394-1.469.208-1.854-.951-3.673-1.97-5.652-3.079q-1.06-.595-2.194-1.226c.427-.272.816-.532 1.183-.777.732-.488 1.375-.918 2.06-1.267 15.272-7.8 31.549-10.463 48.529-9.24 7.258.519 14.42 1.852 21.197 4.569 3.48 1.394 6.846 3.09 10.206 4.783a490 490 0 0 0 2.511 1.26c5.018 2.493 10.015 5.027 15.014 7.562l4.789 2.427c.979.495 1.954 1 3.026 1.556m-112.134-58.226-38.486 22.871-.003.004c-2.067-2.323-2.071-5.666.481-7.912 2.164-1.904 4.696-3.427 7.181-4.922l.111-.067c6.862-4.128 13.753-8.209 20.643-12.289l6.029-3.571q6.04-3.581 12.085-7.159 7.31-4.326 14.616-8.66 2.143-1.272 4.286-2.541c6.291-3.729 12.58-7.457 18.822-11.261 1.516-.92 2.712-.985 4.156-.034 1.006.661 2.061 1.252 3.241 1.915.554.31 1.135.636 1.751.992zm88.983 73.426c.131.094.285.204.479.335h.003c-.524.326-1.044.624-1.551.914-1.066.61-2.075 1.187-2.945 1.928-2.911 2.479-5.462 1.329-8.316-.191-4.458-2.372-9.004-4.619-13.664-6.544-4.878-2.013-10.173-2.59-15.318-1.826-4.779.711-8.679-.58-12.484-3.075-.674-.441-1.375-.835-2.203-1.301-.407-.228-.844-.474-1.323-.75.502-.175.965-.346 1.405-.508.894-.329 1.688-.622 2.503-.837 8.217-2.177 16.552-2.823 24.864-.924 3.878.882 7.675 2.372 11.304 4.034 4.018 1.842 7.949 3.876 11.879 5.911 1.604.83 3.208 1.66 4.818 2.477.17.087.327.199.549.357m44.018-81.958 7.659 4.27c4.512 2.515 8.919 4.971 13.321 7.433l1.215.679c8.301 4.64 16.6 9.28 24.872 13.974.825.467 1.314.386 1.662-.355.638-1.364.932-2.75.401-4.286-.848-2.452-2.758-3.831-4.844-5a6822 6822 0 0 0-35.854-19.952c-.627-.348-1.662-.581-2.231-.306-1.445.702-2.827 1.531-4.333 2.434-.599.359-1.218.73-1.868 1.109m-53.781 87.917a16 16 0 0 1-.493-.424c-.226-.199-.378-.334-.554-.425l-1.133-.597c-1.771-.935-3.543-1.869-5.338-2.753-.708-.349-1.414-.707-2.12-1.065-2.126-1.078-4.254-2.157-6.471-2.988-5.451-2.044-11.169-2.346-16.934-1.93-.425.031-.845.127-1.329.238-.238.054-.491.112-.768.167.134.125.23.221.306.297.122.122.189.188.267.231 1.187.671 2.384 1.329 3.58 1.987 2.549 1.401 5.098 2.803 7.563 4.335 7.234 4.495 14.877 5.29 23.424 2.927m-96.804-44.492c-.117.143-.237.29-.358.45q-.845-.473-1.676-.932c-1.514-.838-2.995-1.658-4.443-2.533-.291-.175-.531-.947-.386-1.241.825-1.677 1.356-3.392.672-5.195-.832-2.193-2.464-3.763-4.416-5.001-1.615-1.024-1.623-1.131.023-2.101.533-.313 1.061-.634 1.59-.954 1.185-.718 2.369-1.436 3.598-2.075.443-.229 1.322-.153 1.719.153 5.856 4.481 7.583 12.017 4.297 18.553-.155.308-.377.58-.62.876m-82.274 36.217a173067 173067 0 0 1 1.123 39.766l.098-.042c1.454-.615 2.48-1.049 2.439-2.701-.178-7.673-.323-15.347-.467-23.02q-.107-5.755-.221-11.509c-.03-1.588-.843-2.295-2.972-2.494m79.186-57.219c.912 1.827 1.955 1.206 3.03.566l.029-.017q5.122-3.045 10.248-6.088 9.303-5.523 18.601-11.056c.252-.151.468-.359.7-.581q.173-.17.365-.34c-1.092-1.1-2.028-.92-3.113-.267a1464 1464 0 0 1-9.347 5.554q-3.022 1.784-6.036 3.576c-3.43 2.039-6.852 4.088-10.307 6.157zm178.099-7.174c.147.111.303.229.477.354h-.003c-1.1 1.165-2.109 1.242-3.297.577a6315 6315 0 0 0-11.049-6.162c-4.196-2.337-8.391-4.673-12.582-7.021-.252-.14-.44-.394-.628-.647a6 6 0 0 0-.273-.346c.128-.088.254-.195.381-.302.284-.24.567-.48.868-.504.581-.042 1.257.149 1.78.439a5692 5692 0 0 1 23.539 13.068c.266.148.508.332.787.544m-192.108 19.288 1.721.966c2.229 1.252 4.26 2.393 6.32 3.482.222.115.894-.236 1.097-.542 1.501-2.288.469-6.143-1.971-7.415-.329-.172-.894-.214-1.196-.042-1.412.793-2.797 1.632-4.382 2.591-.507.307-1.034.626-1.589.96m56.493-37.348c.973 1.11 1.713 1.369 2.817.686 1.926-1.191 3.883-2.332 5.839-3.473 1.088-.635 2.177-1.27 3.26-1.914 1.19-.707 2.371-1.433 3.562-2.164q.97-.598 1.954-1.197c-1.429-1.372-1.44-1.375-2.93-.512-2.46 1.425-4.92 2.85-7.365 4.294a786 786 0 0 0-5.269 3.156zm157.793 30.573q.182.173.379.344c-.733 1.02-1.581 1.299-2.552.764-2.36-1.305-4.71-2.631-7.088-3.972l-3.325-1.873c.814-1.188 1.581-1.665 2.918-.882 1.781 1.044 3.588 2.041 5.395 3.039 1.148.633 2.296 1.266 3.437 1.912.303.171.564.414.836.668m-124.97-50.122c1.799-1.073 2.311-1.012 4.118.6h-.004q-.937.478-1.852.95c-1.833.944-3.614 1.861-5.425 2.709-.449.208-1.03.159-1.586.113q-.197-.017-.385-.029c-.132-.007-.258-.124-.446-.298-.108-.099-.235-.217-.395-.343.353-.229.688-.45 1.013-.663.633-.417 1.225-.807 1.829-1.179.648-.4 1.307-.786 1.965-1.172q.585-.342 1.168-.688m-84.232 52.388-.049-.394-.05-.397a7 7 0 0 1-.737-.112c-.546-.101-1.092-.203-1.49-.007-1.593.787-3.075 1.807-4.538 2.823-.275.191-.493.917-.348 1.162.18.301.913.611 1.162.473 1.559-.855 3.088-1.773 4.615-2.69q.717-.43 1.435-.858M320.968 79.188c-2.693-1.57-5.365-3.13-8.502-2.784v.004c-2.941-.11-5.386.524-7.655 1.96-1.522.964-3.079 1.866-4.637 2.769q-1.155.667-2.304 1.345l-6.881 4.08q-8.936 5.295-17.865 10.6a33934 33934 0 0 0-34 20.243c-4.786 2.853-9.572 5.707-14.361 8.553q-6.764 4.018-13.534 8.026l-8.359 4.954q-.821.486-1.645.968c-1.59.932-3.179 1.864-4.727 2.863-3.056 1.972-3.189 5.062-.32 7.312.659.516 1.407.925 2.153 1.333q.405.22.803.447 1.67.954 3.338 1.912a878 878 0 0 0 8.76 4.983c5.552 3.106 11.111 6.2 16.67 9.295 5.559 3.096 11.118 6.191 16.671 9.297a9048 9048 0 0 1 17.228 9.672q7.13 4.013 14.268 8.015 2.871 1.607 5.741 3.216c8.223 4.608 16.445 9.215 24.697 13.767 3.839 2.117 8.049 2.472 11.937.566 3.795-1.862 7.432-4.058 11.065-6.252q1.538-.932 3.081-1.851c6.844-4.067 13.678-8.15 20.512-12.234 5.22-3.118 10.439-6.237 15.663-9.349 6.854-4.081 13.718-8.15 20.581-12.218l6.388-3.787q3.974-2.356 7.949-4.709c5.663-3.353 11.327-6.706 16.977-10.079q.725-.432 1.452-.862c2.513-1.488 5.029-2.979 7.38-4.696 2.509-1.833 2.345-4.641-.096-6.57-.479-.377-1.021-.676-1.561-.974l-.318-.176q-2.657-1.491-5.319-2.976c-3.659-2.043-7.319-4.086-10.954-6.173-2.561-1.469-5.105-2.968-7.648-4.466-3.17-1.868-6.34-3.736-9.542-5.546-1.835-1.038-3.721-1.984-5.608-2.929-1.529-.765-3.057-1.531-4.557-2.346-4.867-2.644-9.711-5.325-14.501-8.095a98 98 0 0 0-2.478-1.374c-2.685-1.456-5.372-2.913-7.58-5.14-.867-.874-2.036-1.52-3.167-2.05a128 128 0 0 0-4.044-1.779c-2.185-.93-4.369-1.861-6.453-2.981-5.062-2.722-10.071-5.545-15.08-8.368a1625 1625 0 0 0-8.138-4.567 84 84 0 0 1-1.48-.85m-32.041 74.682-.16.485v.004l-2.445-.562a587 587 0 0 1-4.89-1.134c-3.087-.733-6.175-1.474-9.262-2.214l-4.627-1.109-3.851-.925q-5.022-1.208-10.046-2.406l-1.543-.374c-1.953-.476-3.908-.952-5.88-1.33-.649-.126-1.493.088-2.085.428a360 360 0 0 0-10.471 6.249c-.455.279-.879 1.02-.886 1.555-.036 2.327-.032 4.655-.029 6.982.003 1.917.006 3.834-.013 5.75-.012 1.077.321 1.723 1.291 2.281a9838 9838 0 0 1 20.819 12.029 9613 9613 0 0 0 19.921 11.513c4.561 2.625 9.184 5.146 13.829 7.625.596.321 1.646.374 2.223.061a124 124 0 0 0 8.278-4.905c.516-.336.844-1.318.863-2.013.077-2.968.035-5.94-.03-8.908-.027-1.257.504-1.608 1.657-1.337q1.443.338 2.884.686c2.974.713 5.949 1.427 8.955 1.973 1.042.187 2.334-.398 3.373-.906 1.104-.542 2.154-1.192 3.204-1.842.519-.321 1.038-.642 1.563-.95 1.035-.607 1.601-1.387 1.578-2.693a245 245 0 0 1-.016-5.14c.009-2.425.017-4.85-.072-7.271-.026-.69-.394-1.367-.821-2.153-.216-.398-.448-.824-.657-1.293q.703.378 1.339.717c.784.418 1.507.803 2.225 1.197.996.545 2.01 1.067 3.024 1.588 2.415 1.241 4.83 2.483 7.007 4.054 2.212 1.597 3.568.837 5.344-.313 1.04-.674 2.119-1.287 3.197-1.9 1.116-.634 2.232-1.269 3.305-1.97.538-.351.962-1.257.997-1.933.08-1.559.052-3.127.025-4.693-.01-.61-.021-1.219-.025-1.828v-2.07l1.74.845a546 546 0 0 1 3.142 1.531c.149.074.308.14.468.206.395.163.793.327 1.041.615 1.731 2.021 3.269 1.072 4.89.071l.396-.243c4.748-2.87 9.516-5.705 14.284-8.539l3.189-1.897q4.919-2.922 9.841-5.838 3.972-2.353 7.941-4.709c.875-.516 1.387-1.207 1.322-2.326-.06-1.035-.049-2.074-.036-3.294.006-.568.013-1.176.013-1.84l11.038 6.166 19.656 10.982c-.681.411-1.328.804-1.954 1.183a615 615 0 0 1-3.864 2.331l-7.306 4.355c-7.613 4.54-15.226 9.079-22.849 13.603-3.987 2.366-7.979 4.72-11.972 7.074-4.363 2.573-8.725 5.145-13.08 7.732a6043 6043 0 0 0-15.294 9.122c-4.178 2.497-8.356 4.995-12.538 7.484-1.712 1.018-3.42 2.045-5.128 3.072-4.75 2.856-9.502 5.713-14.354 8.388-4.122 2.273-8.343 1.577-12.396-.718a3300 3300 0 0 0-17.608-9.879 5991 5991 0 0 1-9.579-5.356q-6.685-3.75-13.365-7.507a9536 9536 0 0 0-18.215-10.225 9217 9217 0 0 0-18.162-10.125q-7.57-4.21-15.133-8.433c-3.595-2.007-7.175-4.039-10.756-6.071l-3.837-2.176c-.139-.08-.269-.176-.483-.334-.114-.084-.251-.186-.426-.312q.924-.566 1.792-1.104a224 224 0 0 1 3.442-2.101 34014 34014 0 0 1 44.946-26.709 21035 21035 0 0 0 34.535-20.523l9.853-5.866a385 385 0 0 0 4.133-2.502c2.999-1.833 5.997-3.666 9.096-5.313 4.431-2.357 8.87-1.712 13.152.813 2.561 1.508 5.164 2.948 7.767 4.386 1.373.76 2.747 1.519 4.113 2.288.274.153.522.348.826.587.151.118.315.247.504.387q-.99.286-1.929.55c-1.307.37-2.552.722-3.786 1.12-4.989 1.604-9.512 4.037-13.343 7.662-2.949 2.793-4.202 6.147-3.992 10.253.155 3.064.12 6.138.083 9.322a363 363 0 0 0-.034 4.354q-.676-.37-1.314-.715c-.905-.489-1.761-.953-2.605-1.436a2138 2138 0 0 1-4.166-2.391 980 980 0 0 0-9.716-5.539c-.443-.252-1.257-.306-1.677-.065a361 361 0 0 0-10.887 6.456c-.473.294-.917 1.062-.924 1.616-.061 4.351-.042 8.702.03 13.049a3.8 3.8 0 0 0 .673 2.017c2.442 3.437 4.917 6.85 7.391 10.262q1.161 1.599 2.319 3.199m49.725 15.212a31 31 0 0 0-.527-.245v-2.475q-.004-1.308-.016-2.615c-.017-2.152-.035-4.304.02-6.454.03-1.322-.394-2.132-1.566-2.796-5.926-3.354-11.819-6.765-17.712-10.176l-1.228-.711a2695 2695 0 0 1-5.675-3.297c-3.489-2.03-6.978-4.061-10.484-6.062-.327-.187-.756-.201-1.184-.215a6 6 0 0 1-.592-.037l-.069.458 8.285 11.393 13.623 18.732q-.944.553-1.862 1.099c-1.656.983-3.265 1.937-4.918 2.805-.524.275-1.364.088-2.017-.065-3.408-.79-6.807-1.606-10.207-2.422a4688 4688 0 0 0-10.874-2.594l-6.87-1.635-2.712-.647c-3.833-.913-7.665-1.827-11.491-2.76-1.094-.268-2.184-.55-3.275-.831-1.568-.405-3.137-.81-4.717-1.175-.219-.052-.494.13-.768.311a4 4 0 0 1-.374.228c.069.1.13.212.192.324.133.243.266.486.473.604 2.42 1.389 4.848 2.763 7.277 4.138 2.716 1.538 5.432 3.076 8.137 4.633a3134 3134 0 0 1 15.227 8.841l4.224 2.462c.159.093.302.216.506.394.114.098.248.214.415.351l-1.696 1.001c-2.115 1.251-4.142 2.45-6.2 3.598-.298.165-.917-.03-1.284-.24a3201 3201 0 0 1-16.208-9.287c-7.452-4.293-14.895-8.593-22.339-12.893l-3.438-1.986-2.28-1.316a3892 3892 0 0 1-8.134-4.704c-.28-.163-.545-.355-.874-.593a43 43 0 0 0-.638-.454l1.741-1.063a445 445 0 0 1 3.652-2.218q.469-.283.935-.572c.994-.613 1.99-1.229 3.046-1.709.848-.385 1.94-.718 2.8-.523 3.864.877 7.711 1.821 11.557 2.764 2.067.507 4.133 1.014 6.202 1.511 3.116.747 6.236 1.48 9.356 2.214 2.857.671 5.715 1.343 8.571 2.026 3.987.954 7.969 1.921 11.951 2.889q2.902.706 5.805 1.408l.634.157a34 34 0 0 0 2.15.485c.314.054.913-.038.952-.179.091-.333.038-.822-.161-1.097a2784 2784 0 0 0-6.902-9.449q-2.484-3.39-4.963-6.786a3056 3056 0 0 1-4.965-6.841 2295 2295 0 0 0-6.288-8.653c-.627-.855-.703-1.405.336-2.005 1.176-.68 2.338-1.384 3.5-2.087 1.73-1.047 3.459-2.094 5.232-3.063.657-.359 1.857-.366 2.506 0 4.002 2.263 7.971 4.584 11.94 6.905q3.002 1.758 6.01 3.505c4.44 2.574 8.888 5.132 13.337 7.689l4.636 2.667 4.155 2.385c4.341 2.49 8.683 4.98 12.99 7.532.588.347 1.119 1.31 1.142 2.001.122 3.759.122 7.526.034 11.288-.015.642-.508 1.506-1.046 1.861-1.674 1.109-3.401 2.133-5.129 3.158q-.935.554-1.866 1.113m-10.029-52.518c.181.139.378.29.601.459h.012l-1.695.998a772 772 0 0 1-7.084 4.143c-.221.13-.664.103-.893-.034-3.27-1.983-6.388-4.087-7.873-7.904-1.307-3.346-.321-6.135 1.822-8.663 3.044-3.599 7.055-5.864 11.326-7.629 5.761-2.384 11.792-3.472 18.027-2.922 5.5.485 10.623 2.112 15.215 5.348 5.355 3.77 5.691 9.363 3.121 14.615-.874 1.782-1.799 3.538-2.723 5.294-1.066 2.023-2.132 4.047-3.118 6.109-1.162 2.429-.577 4.836 1.096 6.433.76.725 1.406.848 2.357.271 3.496-2.119 7.011-4.204 10.526-6.289q2.286-1.355 4.571-2.715 1.771-1.056 3.539-2.116c2.673-1.6 5.344-3.2 8.031-4.771.405-.241 1.12-.375 1.49-.176 1.779.953 3.529 1.966 5.41 3.054q.975.565 2.009 1.159l-1.671 1.013a780 780 0 0 1-5.201 3.136q-8.18 4.866-16.363 9.727l-11.799 7.012q-.109.066-.219.128c-.204.117-.408.233-.59.376-1.219.967-2.342.959-3.694.062-1.073-.712-2.205-1.334-3.337-1.956-2.325-1.277-4.649-2.554-6.458-4.611-2.487-2.827-3.258-6.204-2.07-9.611.838-2.413 2.04-4.699 3.242-6.983.495-.942.991-1.884 1.46-2.835.232-.467.482-.926.732-1.384.333-.609.665-1.218.953-1.847 1.673-3.66.787-6.804-2.636-8.874-6.41-3.885-12.915-3.66-19.241.099-4.959 2.945-4.81 7.613.152 11.155.305.22.605.448.973.729m14.479-22.9-.038.156v.004c-.759 0-1.521.023-2.284.046-1.812.055-3.624.11-5.39-.146-1.097-.156-2.131-.802-3.158-1.443-.4-.25-.799-.5-1.201-.719-1.456-.796-2.901-1.618-4.346-2.44-3.053-1.737-6.106-3.474-9.272-4.97-3.939-1.865-8.144-1.536-11.922.672-9.312 5.446-18.58 10.969-27.849 16.493l-7.146 4.257q-7.798 4.646-15.589 9.301c-6.266 3.743-12.532 7.486-18.807 11.216-7.463 4.436-14.934 8.857-22.404 13.279q-6.098 3.607-12.193 7.219c-.328.195-.65.399-.973.603-.706.446-1.411.891-2.164 1.235-.557.256-1.524.424-1.902.122-.848-.672-1.337-1.757-.653-2.827.474-.733 1.108-1.467 1.845-1.91 5.884-3.537 11.789-7.039 17.694-10.541l5.031-2.985q6.226-3.698 12.451-7.392l12.463-7.399 4.501-2.675q11.092-6.59 22.182-13.186l5.03-2.995c8.798-5.24 17.597-10.479 26.385-15.734 3.026-1.811 6.055-3.439 9.787-3.114 2.635.232 4.819 1.459 7.01 2.69l.584.328c6.064 3.38 12.111 6.78 18.16 10.183l3.393 1.907c.196.11.372.253.547.397q.131.108.267.21zm-108.948 59.849c.042-.117.091-.25.14-.41l.003-.004 1.804 1.012c1.378.772 2.717 1.522 4.045 2.288q6.558 3.787 13.112 7.583a6966 6966 0 0 0 17.706 10.229c5.597 3.223 11.194 6.446 16.767 9.711.577.336 1.196 1.177 1.215 1.803.092 2.878.081 5.76.069 8.642q-.005 1.248-.008 2.497c0 .121-.032.24-.082.425-.03.113-.068.252-.109.431l-2.143-1.214a704 704 0 0 1-4.943-2.816c-9.095-5.249-18.191-10.497-27.278-15.761a2516 2516 0 0 1-19.28-11.25c-.504-.298-1.077-.99-1.092-1.513-.083-3.094-.073-6.189-.063-9.283l.005-1.856c0-.154.056-.308.132-.514M394.43 122.76c.171-.08.373-.174.621-.295l-.004.004.002 2.878c.005 3.323.009 6.492-.044 9.659-.008.371-.55.844-.951 1.085a5885 5885 0 0 1-14.948 8.903q-3.74 2.222-7.48 4.448a5670 5670 0 0 0-7.478 4.465q-2.845 1.701-5.693 3.4a4 4 0 0 1-.429.202c-.103.044-.225.097-.377.165a13 13 0 0 0-.112-.567c-.074-.347-.14-.66-.14-.972-.011-1.32-.011-2.64-.012-3.96 0-2.019-.001-4.038-.038-6.056-.019-1.047.413-1.662 1.265-2.166q7.42-4.401 14.835-8.811l8.161-4.85q6.057-3.6 12.125-7.181c.192-.115.397-.211.697-.351m-80.585 59.822q-.025.318-.046.697l-2.702-.619-5.645-1.294-.774-.177a95 95 0 0 1-2.316-.545l-.324-.08c-1.067-.256-2.111-.506-2.167-2.063-.015-.39-.737-.837-1.218-1.116q-10.575-6.123-21.161-12.232l-9.128-5.271c-.309-.18-.577-.432-.775-.932l1.755.403c1.266.29 2.53.58 3.795.88 6.234 1.479 12.465 2.957 18.695 4.451 2.153.516 4.303 1.039 6.453 1.561q3.641.889 7.288 1.762c2.215.527 4.435 1.043 6.662 1.509 1.13.237 1.719.684 1.681 2.009-.067 2.332-.052 4.666-.037 7q.012 1.512.014 3.024c0 .329-.024.656-.05 1.033m22.996-16.726c.006 1.125.012 2.276.012 3.465l-8.832-5.061c-.636-.365-1.265-.742-1.895-1.119-1.409-.844-2.817-1.688-4.293-2.388-2.594-1.229-4.122-3.412-5.649-5.593a68 68 0 0 0-1.01-1.417 1304 1304 0 0 1-8.482-11.663l-2.855-3.953c-.195-.271-.325-.592-.249-1.169l1.73.973c1.267.71 2.534 1.421 3.794 2.148q4.258 2.457 8.516 4.918c5.887 3.402 11.774 6.805 17.674 10.186 1.115.642 1.631 1.376 1.589 2.743-.079 2.587-.065 5.178-.05 7.93m4.435-20.11c0-1.402.015-2.759.029-4.086.032-2.902.062-5.658-.067-8.407-.214-4.561.371-8.847 2.945-12.728.478-.722.279-1.288-.58-1.601-3.637-1.333-7.3-1.582-11.055-.485-1.15.336-1.456.962-1.433 2.07.023 1.229.014 2.459.005 3.688-.013 1.845-.026 3.688.068 5.526.088 1.738-.546 2.705-2.036 3.453-1.04.524-2.026 1.152-3.12 1.849-.501.319-1.025.653-1.587.997l6.866 3.967zm4.447-40.326c1.814 1.032 3.132 2.499 3.365 5.402h-.003c-.139.312-.29.668-.455 1.054-.429 1.011-.946 2.228-1.551 3.4-1.479 2.86-1.544 2.841-4.438 2.003l-.39-.112c-3.205-.925-6.494-.753-9.764-.092-.379.076-.846-.152-1.257-.351l-.134-.065c-.231-.11-.435-.278-.639-.447a6 6 0 0 0-.354-.279 33 33 0 0 0-.804-.537c-.524-.344-1.048-.687-1.53-1.083-3.705-3.052-3.553-6.379.581-8.713 5.703-3.22 11.563-3.48 17.373-.18m-65.654 22.021.244-.06v-.003l10.871 14.969 10.712 14.75-.125.2-.123.197q-1.27-.31-2.54-.617c-2.511-.608-5.023-1.216-7.514-1.908-.472-.132-.861-.685-1.211-1.18q-.096-.138-.188-.263l-1.542-2.1c-2.672-3.633-5.343-7.267-7.931-10.957-.592-.841-.936-2.01-.99-3.049-.107-2.09-.089-4.188-.07-6.283q.009-.992.013-1.983c0-.383.046-.767.092-1.151q.032-.252.057-.503zm116.166-4.176c0 .373.009.713.017 1.031.018.649.033 1.205-.036 1.752-.176 1.41.393 2.288 1.627 2.926 1.353.704 2.683 1.455 4.012 2.205q.832.47 1.665.935l4.714 2.631c6.079 3.392 12.157 6.784 18.251 10.147.623.344 1.704.715 2.094.424.546-.405.985-1.486.848-2.146-.18-.86-.814-1.819-1.54-2.331-1.153-.816-2.407-1.496-3.66-2.176q-.634-.342-1.264-.693a17302 17302 0 0 0-25.032-13.988c-.285-.158-.591-.278-.987-.433a30 30 0 0 1-.709-.284m-53.725 12.311c0 .683.017 1.367.034 2.052.037 1.534.075 3.069-.076 4.583-.313 3.132.6 5.306 3.74 6.379 1.364.466 2.002 1.528 1.857 3.09-.062.654.156 1.685.611 1.979 1.665 1.077 3.398 2.05 5.214 3.071q.988.553 2.009 1.135c.019-.279.038-.518.055-.729.032-.393.056-.693.056-.994q-.002-1.476-.014-2.953c-.017-2.297-.034-4.593.041-6.887.042-1.276-.512-1.922-1.494-2.483-.864-.494-1.745-.964-2.628-1.436-3.385-1.809-6.796-3.631-9.405-6.807m29.542-11.84-8.333 4.956c.195-5.645.386-11.106.596-17.064l3.576 1.986 10.951 6.085zm-42.22-5.671-2.062 1.249a488 488 0 0 0-6.656 4.072c-.282.175-.477.703-.485 1.069-.034 2.804-.068 5.608.008 8.412.042 1.494 2.154 2.64 3.427 1.918l.594-.335c1.456-.818 2.916-1.639 4.261-2.611.561-.405 1.016-1.333 1.039-2.04.081-2.554.062-5.111.043-7.668l-.013-2.011c0-.323-.03-.647-.074-1.12a75 75 0 0 1-.082-.935m-33.469 62.92c.743-.442 1.511-.897 2.309-1.377v.008l.001 2.44c.001 3.532.002 6.803-.02 10.074-.004.325-.161.806-.405.955-1.998 1.222-4.018 2.41-6.179 3.681l-1.652.972a27 27 0 0 0-.104-.715c-.064-.411-.114-.734-.114-1.057l-.008-1.096c-.021-2.916-.043-5.828.008-8.741.012-.611.233-1.49.669-1.776 1.741-1.141 3.535-2.205 5.495-3.368m67.532-76.019 20.425 11.41h-.004c-.447.278-.849.537-1.221.777-.857.551-1.56 1.004-2.308 1.366-.436.214-1.181.199-1.609-.034-4.576-2.495-9.141-5.02-13.641-7.648-.645-.378-1.108-1.306-1.352-2.078-.344-1.089-.401-2.262-.29-3.793m-42.353 61.351.26.158v4.875c0 .465-.016.933-.033 1.402-.038 1.077-.076 2.155.087 3.201.397 2.54-.738 3.927-2.915 4.886-.807.356-1.565.822-2.359 1.31a48 48 0 0 1-1.148.691c-.049-.165-.102-.308-.149-.436-.085-.231-.153-.415-.153-.599a811 811 0 0 1-.023-10.807c.004-.439.149-1.081.455-1.283 1.43-.949 2.895-1.839 4.361-2.73q.68-.412 1.358-.827zm-2.106-35.072c.016.599.032 1.233.032 1.916-.771-.455-1.508-.887-2.22-1.305-1.87-1.098-3.566-2.093-5.24-3.122-.363-.222-.772-.738-.78-1.123-.044-2.726-.04-5.454-.036-8.283l.002-2.482.061.057c1.569 1.459 2.979 2.771 4.393 4.084q.09.085.176.181c.127.139.254.278.412.338 2.999 1.142 3.606 3.438 3.266 6.349-.126 1.069-.098 2.156-.066 3.39m42.948-15.512c.115-.08.265-.184.456-.335-.086 1.437-.046 2.858-.007 4.257.093 3.283.182 6.445-1.379 9.407-.6 1.139-1.911 1.975-3.093 2.728l-.269.172c-.71.45-2.154-1.143-2.04-2.487.122-1.398.394-2.877 1.001-4.122 1.148-2.353 2.418-4.647 3.689-6.942q.663-1.195 1.319-2.394c.051-.094.148-.162.323-.284"/>
</svg>
