<svg xmlns="http://www.w3.org/2000/svg" width="550" height="550" fill="none" viewBox="0 0 550 550">
    <path fill="#fff" d="M154.201 430.999h-.3l-8.7-4.7c-.2-.1-.4-.4-.4-.6q0-.45.3-.6l6-3.5c.4-.2.6-.5.6-.8s0-1.2-.5-2.3c-.1-.3 0-.6.2-.8s.5-.2.8-.1l7.8 4.2c.2.1.4.3.4.6q0 .45-.3.6l-5.9 3.5c-.2.2-.3.6-.3 1 0 .7.3 1.6 1 2.4q.3.45 0 .9c-.1.2-.3.2-.5.2zm-7.3-5.4 5.6 3c-.1-.4-.2-.8-.2-1.2 0-.8.3-1.5.9-2h.1l4.9-2.9-5.2-2.8c0 .5.1.9.1 1.2 0 .8-.5 1.6-1.3 2l-4.9 2.9zm-41.701-75.7h-.3l-9.5-5.3c-.2-.1-.4-.4-.4-.6s.1-.5.3-.6.5-.2.7 0l9.5 5.3c.2.1.4.4.4.6 0 .3-.1.5-.3.7h-.4zm0 13.899h-.3l-9.5-5.3c-.2-.1-.4-.4-.4-.6v-.2c0-.2.1-.5.3-.6s.5-.1.7 0l9.5 5.3c.2.1.4.4.4.6v.2c0 .2-.1.5-.3.6zm0-27.699h-.3l-9.5-5.3c-.2-.1-.4-.4-.4-.6v-.2c0-.2.1-.5.3-.6s.5-.1.7 0l9.5 5.3c.2.1.4.4.4.6v.2c0 .2-.1.5-.3.6zm0 55.5h-.3l-9.5-5.3c-.2-.1-.4-.4-.4-.6v-.2c0-.2.1-.5.3-.6s.5-.1.7 0l9.5 5.3c.2.1.4.4.4.6v.2c0 .2-.1.5-.3.6zm0-13.9h-.3l-9.5-5.3c-.2-.1-.4-.4-.4-.6v-.2c0-.2.1-.5.3-.6s.5-.1.7 0l9.5 5.3c.2.1.4.4.4.6v.2c0 .2-.1.5-.3.6zm0-55.5h-.3l-9.5-5.3c-.2-.1-.4-.4-.4-.6v-.2c0-.2.1-.5.3-.6s.5-.1.7 0l9.5 5.3c.2.1.4.4.4.6v.2c0 .2-.1.5-.3.6zm0-69.401h-.3l-9.5-5.3c-.2-.1-.4-.4-.4-.6v-.2c0-.2.1-.5.3-.6s.5-.1.7 0l9.5 5.3c.2.1.4.4.4.6v.2c0 .2-.1.5-.3.6zm0 27.901h-.3l-9.5-5.3c-.2-.1-.4-.4-.4-.6v-.2c0-.2.1-.5.3-.6s.5-.1.7 0l9.5 5.3c.2.1.4.4.4.6v.2c0 .2-.1.5-.3.6zm0-13.901h-.3l-9.5-5.3c-.2-.1-.4-.4-.4-.6v-.2c0-.2.1-.5.3-.6s.5-.1.7 0l9.5 5.3c.2.1.4.4.4.6v.2c0 .2-.1.5-.3.6zm0 41.5h-.3l-9.5-5.3c-.2-.1-.4-.4-.4-.6v-.2c0-.2.1-.5.3-.6s.5-.1.7 0l9.5 5.3c.2.1.4.4.4.6v.2c0 .2-.1.5-.3.6zm0-13.899h-.3l-9.5-5.3c-.2-.1-.4-.4-.4-.6s.1-.5.3-.6.5-.2.7 0l9.5 5.3c.2.1.4.4.4.6 0 .3-.1.5-.3.7h-.4z"/>
    <path fill="#fff" d="M274.001 495.598h-.3l-52.4-28.3c-.2-.1-.4-.4-.4-.6q0-.45.3-.6l5.5-3.3c.4-.2.6-.6.6-.8 0-.4 0-1.7-.9-3-.2-.3-.1-.6 0-.8.2-.2.6-.3.8-.1l36.4 19.6v-180.9l-157.9-85.2v26.6c0 .2-.1.5-.3.6s-.5.1-.7 0l-9.5-5.3c-.2-.1-.4-.4-.4-.6v-38.5c0-.2 0-.4.2-.5.2-.2.6-.3.8-.1l178.3 96.2c.2.1.4.4.4.6v204.3c0 .2-.1.5-.3.6h-.4zm-51-29 50.3 27.1v-202.8l-176.9-95.4v36.9l8.1 4.5v-26.6c0-.2.1-.5.3-.6s.5-.1.7 0l159.3 85.9c.2.1.4.4.4.6v182.5c0 .2-.1.5-.3.6s-.5.1-.7 0l-35.7-19.2c.2.8.2 1.5.2 1.8 0 .8-.5 1.6-1.3 2l-4.4 2.6zM438 257.8h-.3l-4.8-2.7c-.2-.1-.4-.4-.4-.6 0-.3.1-.5.3-.7.2-.1.5-.1.7 0l4.8 2.7c.2.1.4.4.4.6s-.1.5-.3.6c-.1 0-.3.1-.4.1m0 55.5h-.3l-4.8-2.7c-.2-.1-.4-.4-.4-.6 0-.3.1-.5.3-.7.2-.1.5-.1.7 0l4.8 2.7c.2.1.4.4.4.6s-.1.5-.3.6c-.1 0-.3.1-.4.1m.102-27.602h-.3l-4.8-2.7c-.2-.1-.4-.4-.4-.6v-.2c0-.2.1-.5.3-.6s.5-.1.7 0l4.8 2.7c.2.1.4.4.4.6v.2c0 .2-.1.5-.3.6zm0 41.5h-.3l-4.8-2.7c-.2-.1-.4-.4-.4-.6v-.2c0-.2.1-.5.3-.6s.5-.1.7 0l4.8 2.7c.2.1.4.4.4.6v.2c0 .2-.1.5-.3.6zm0-55.5h-.3l-4.8-2.7c-.2-.1-.4-.4-.4-.6v-.2c0-.2.1-.5.3-.6s.5-.1.7 0l4.8 2.7c.2.1.4.4.4.6v.2c0 .2-.1.5-.3.6zm0 27.901h-.3l-4.8-2.7c-.2-.1-.4-.4-.4-.6v-.2c0-.2.1-.5.3-.6s.5-.1.7 0l4.8 2.7c.2.1.4.4.4.6v.2c0 .2-.1.5-.3.6zm0-55.5h-.3l-4.8-2.7c-.2-.1-.4-.4-.4-.6v-.2c0-.2.1-.5.3-.6s.5-.1.7 0l4.8 2.7c.2.1.4.4.4.6v.2c0 .2-.1.5-.3.6zm0-27.901h-.3l-4.8-2.7c-.2-.1-.4-.4-.4-.6v-.2c0-.2.1-.5.3-.6s.5-.1.7 0l4.8 2.7c.2.1.4.4.4.6v.2c0 .2-.1.5-.3.6zm0 125h-.3l-4.8-2.7c-.2-.1-.4-.4-.4-.6v-.2c0-.2.1-.5.3-.6s.5-.1.7 0l4.8 2.7c.2.1.4.4.4.6v.2c0 .2-.1.5-.3.6zM280.901 478.799h-.4c-.2-.1-.3-.4-.3-.6v-5.2c0-.3.1-.5.4-.6l151.9-86.4v-34.4c0-.2.1-.5.3-.6s.5-.1.7 0l4.8 2.7c.2.1.4.4.4.6v34.5c0 .3-.1.5-.4.6l-157.1 89.4zm.7-5.5v3.5l155.7-88.6v-33.7l-3.4-1.9v33.6c0 .3-.1.5-.4.6l-151.9 86.4zm156.501-243.101h-.3l-4.8-2.7c-.2-.1-.4-.4-.4-.6v-.2c0-.2.1-.5.3-.6s.5-.1.7 0l4.8 2.7c.2.1.4.4.4.6v.2c0 .2-.1.5-.3.6zM110.5 352.799h-.3l-5.3-2.9c-.2-.1-.4-.4-.4-.6s.1-.5.3-.6.5-.2.7 0l5.3 2.9c.2.1.4.4.4.6s-.1.5-.3.6c-.1 0-.3.1-.4.1zm0-13.699h-.3l-5.3-2.9c-.2-.1-.4-.4-.4-.6v-.2c0-.2.1-.5.3-.6s.5-.1.7 0l5.3 2.9c.2.1.4.4.4.6v.2c0 .2-.1.5-.3.6zm0-55.5h-.3l-5.3-2.9c-.2-.1-.4-.4-.4-.6v-.2c0-.2.1-.5.3-.6s.5-.1.7 0l5.3 2.9c.2.1.4.4.4.6v.2c0 .2-.1.5-.3.6zm0-13.901h-.3l-5.3-2.9c-.2-.1-.4-.4-.4-.6v-.2c0-.2.1-.5.3-.6s.5-.1.7 0l5.3 2.9c.2.1.4.4.4.6v.2c0 .2-.1.5-.3.6zm0 97.1h-.3l-5.3-2.9c-.2-.1-.4-.4-.4-.6v-.2c0-.2.1-.5.3-.6s.5-.1.7 0l5.3 2.9c.2.1.4.4.4.6v.2c0 .2-.1.5-.3.6zm0-41.6h-.3l-5.3-2.9c-.2-.1-.4-.4-.4-.6v-.2c0-.2.1-.5.3-.6s.5-.1.7 0l5.3 2.9c.2.1.4.4.4.6v.2c0 .2-.1.5-.3.6zm0-27.9h-.3l-5.3-2.9c-.2-.1-.4-.4-.4-.6s.1-.5.3-.6.5-.2.7 0l5.3 2.9c.2.1.4.4.4.6s-.1.5-.3.6c-.1 0-.3.1-.4.1z"/>
    <path fill="#fff" d="M264.5 479.6h-.3l-37.4-20.2c-.1 0-.2-.1-.3-.2-.5-.8-1.1-1.4-2-1.8l-61.9-34.3c-.8-.4-1.5-.6-2-.3h-.1l-.4.2c-.2.1-.5.1-.7 0l-7.8-4.2c-.1 0-.2-.2-.3-.3-.5-1.1-1.3-1.9-2.3-2.5l-44.1-24.4c-.2-.1-.4-.4-.4-.6v-.2c0-.2.1-.5.3-.6s.5-.1.7 0l37.9 21c.6.4 1.2.4 1.7 0l3-1.7c.2-.1.5-.1.7 0l4.9 2.6c.3.2.5.6.3.9 0 .2-.1.4-.1.6 0 1.3 1 3.2 3.3 4.6l61.9 34.3c.6.4 1.2.4 1.6.1l3.4-2c.2-.1.5-.1.7 0l40 21.6c.2.1.4.4.4.6v6.2c0 .2-.1.5-.3.6zm-36.9-21.4 36.2 19.5v-4.6l-39.3-21.2-3 1.8s-.2.1-.2.2l4 2.2c1 .5 1.8 1.3 2.4 2.2zm-75.2-40.6 7.3 3.9s.2-.1.3-.2l-3.6-2c-2.4-1.5-4-3.8-4-5.8v-.5l-4-2.2-2.6 1.5s-.1 0-.2.1l4 2.2c1.2.7 2.2 1.7 2.8 2.9zm-41.9-175.701h-.3l-5.3-2.9c-.2-.1-.4-.4-.4-.6v-27.8c0-.2.1-.5.3-.6s.5-.1.7 0l5.3 2.9c.2.1.4.4.4.6v27.8c0 .2-.1.5-.3.6zm-4.6-4.1 3.9 2.2v-26.2l-3.9-2.1v26.2zm4.6 142.9h-.3l-5.3-2.9c-.2-.1-.4-.4-.4-.6v-.2c0-.2.1-.5.3-.6s.5-.1.7 0l5.3 2.9c.2.1.4.4.4.6v.2c0 .2-.1.5-.3.6zm0-69.4h-.3l-5.3-2.9c-.2-.1-.4-.4-.4-.6v-.2c0-.2.1-.5.3-.6s.5-.1.7 0l5.3 2.9c.2.1.4.4.4.6v.2c0 .2-.1.5-.3.6zm0-55.5h-.3l-5.3-2.9c-.2-.1-.4-.4-.4-.6v-.2c0-.2.1-.5.3-.6s.5-.1.7 0l5.3 2.9c.2.1.4.4.4.6v.2c0 .2-.1.5-.3.6z"/>
    <path fill="#fff" d="M264.5 473.299h-.3l-40-21.6c-.2-.1-.4-.4-.4-.6q0-.45.3-.6l2.7-1.6c.4-.2.6-.6.6-.8 0-.5-.1-3.3-2.8-4.8l-61.9-34.3c-.8-.4-1.5-.6-2-.3h-.1l-6.3 3.8s-.2.2-.2.3c0 .2-.2.3-.4.4h-.6l-4.9-2.6c-.2-.1-.4-.4-.4-.6q0-.45.3-.6l3.1-1.8c.4-.2.6-.6.6-.8 0-.5-.1-3.3-2.8-4.8l-38.7-21.4c-.2-.1-.4-.4-.4-.6v-.2c0-.2.1-.5.3-.6s.5-.1.7 0l32.5 18c.6.4 1.2.4 1.7 0l6.1-3.6c.4-.2.6-.6.6-.8 0-.5-.1-3.3-2.8-4.8l-38.7-21.4c-.2-.1-.4-.4-.4-.6v-.2c0-.2.1-.5.3-.6s.5-.1.7 0l32.5 18c.6.4 1.2.4 1.7 0l6.1-3.6c.4-.2.6-.6.6-.8 0-.5-.1-3.3-2.8-4.8l-38.7-21.4c-.2-.1-.4-.4-.4-.6s.1-.5.3-.6.5-.2.7 0l32.5 18c.6.4 1.2.4 1.7 0l6.1-3.6c.4-.2.6-.6.6-.8 0-.5-.1-3.3-2.8-4.8l-38.7-21.4c-.2-.1-.4-.4-.4-.6v-.2c0-.2.1-.5.3-.6s.5-.1.7 0l32.5 18c.6.4 1.2.4 1.7 0l6.1-3.6c.4-.2.6-.6.6-.8 0-.5-.1-3.3-2.8-4.8l-38.7-21.4c-.2-.1-.4-.4-.4-.6v-.2c0-.2.1-.5.3-.6s.5-.1.7 0l32.5 18c.6.4 1.2.4 1.7 0l6.1-3.6c.4-.2.6-.6.6-.8 0-.5-.1-3.3-2.8-4.8l-38.7-21.4c-.2-.1-.4-.4-.4-.6v-.2c0-.2.1-.5.3-.6s.5-.1.7 0l32.5 18c.6.4 1.2.4 1.7 0l6.1-3.6c.4-.2.6-.6.6-.8 0-.5-.1-3.3-2.8-4.8l-38.7-21.4c-.2-.1-.4-.4-.4-.6s.1-.5.3-.6.5-.2.7 0l32.5 18c.6.4 1.2.4 1.7 0l6.1-3.6c.4-.2.6-.6.6-.8 0-.5-.1-3.3-2.8-4.8l-38.7-21.4c-.2-.1-.4-.4-.4-.6v-.2c0-.2.1-.5.3-.6s.5-.1.7 0l32.5 18c.6.4 1.2.4 1.7 0l6.1-3.6c.4-.2.6-.6.6-.8 0-.5-.1-3.3-2.8-4.8l-38.7-21.4c-.2-.1-.4-.4-.4-.6v-.2c0-.2.1-.5.3-.6s.5-.1.7 0l32.5 18c.6.4 1.2.4 1.7 0l6.1-3.6c.4-.2.6-.6.6-.8 0-.5-.1-3.3-2.8-4.8l-38.7-21.4c-.2-.1-.4-.4-.4-.6v-.2c0-.2.1-.5.3-.6s.5-.1.7 0l32.5 18c.6.4 1.2.4 1.7 0l6.1-3.6c.4-.2.6-.6.6-.8 0-.5-.1-3.3-2.8-4.8l-38.7-21.4c-.2-.1-.4-.4-.4-.6v-27.8c0-.2.1-.5.3-.6s.5-.1.7 0l154 83c.2.1.4.4.4.6v176.3c0 .2-.1.5-.3.6h-.4zm-38.6-22.3 37.9 20.4v-174.7l-152.6-82.3v26.2l38.4 21.2c3.3 1.9 3.5 5.3 3.5 6s-.5 1.6-1.3 2l-6 3.6s-.1 0-.2.1l4 2.2c3.4 1.9 3.5 5.3 3.5 6s-.5 1.6-1.3 2l-6 3.6s-.2 0-.2.1l4 2.2c3.4 1.9 3.5 5.3 3.5 6s-.5 1.6-1.3 2l-6 3.6s-.1 0-.2.1l4 2.2c3.4 1.9 3.5 5.3 3.5 6s-.5 1.6-1.3 2l-6 3.6 3.9 2.1c3.4 1.9 3.5 5.3 3.5 6s-.5 1.6-1.3 2l-6 3.6s-.1 0-.2.1l4 2.2c3.4 1.9 3.5 5.3 3.5 6s-.5 1.6-1.3 2l-6 3.6s-.2 0-.2.1l4 2.2c3.4 1.9 3.5 5.3 3.5 6s-.5 1.6-1.3 2l-6 3.6s-.1 0-.2.1l4 2.2c3.4 1.9 3.5 5.3 3.5 6s-.5 1.6-1.3 2l-6 3.6 3.9 2.1c3.4 1.9 3.5 5.3 3.5 6s-.5 1.6-1.3 2l-6 3.6s-.1 0-.2.1l4 2.2c3.4 1.9 3.5 5.3 3.5 6s-.5 1.6-1.3 2l-6 3.6s-.2 0-.2.1l4 2.2c3.4 1.9 3.5 5.3 3.5 6s-.5 1.6-1.3 2l-2 1.2 3.2 1.7.2-.2h.1l6.3-3.8s.2-.1.3-.2l-3.7-2c-2.4-1.5-4-3.8-4-5.8s.3-1.5.9-2c0 0 .1 0 .2-.1l6.3-3.7s.2-.1.3-.2l-3.6-2c-2.4-1.5-4-3.8-4-5.8s.3-1.6.9-2c0 0 .1 0 .2-.1l6.3-3.7s.1 0 .2-.1l-3.5-1.9c-2.4-1.5-4-3.8-4-5.8s.3-1.6.9-2c0 0 .1 0 .2-.1l6.3-3.7s.2-.1.3-.2l-3.6-2c-2.4-1.5-4-3.8-4-5.8s.3-1.6.9-2c0 0 .1 0 .2-.1l6.3-3.7s.2-.1.3-.2l-3.7-2c-2.4-1.5-4-3.8-4-5.8s.3-1.5.9-2c0 0 .1 0 .2-.1l6.3-3.7s.2-.1.3-.2l-3.6-2c-2.4-1.5-4-3.8-4-5.8s.3-1.6.9-2c0 0 .1 0 .2-.1l6.3-3.7s.1 0 .2-.1l-3.5-1.9c-2.4-1.5-4-3.8-4-5.8s.3-1.6.9-2c0 0 .1 0 .2-.1l6.3-3.7s.2-.1.3-.2l-3.6-2c-2.4-1.5-4-3.8-4-5.8s.3-1.6.9-2c0 0 .1 0 .2-.1l6.3-3.7s.2-.1.3-.2l-3.7-2c-2.4-1.5-4-3.8-4-5.8s.3-1.6.9-2c0 0 .1 0 .2-.1l6.3-3.7s.2-.1.3-.2l-3.7-2c-2.4-1.5-4-3.8-4-5.8s.3-1.6.9-2c.2-.1.4-.3.6-.3l5.8-3.4s.2-.1.3-.2c.9-.4 2.1-.3 3.3.4l61.9 34.3c3.4 1.9 3.5 5.3 3.5 6s-.5 1.6-1.3 2l-6 3.6s-.2 0-.2.1l4 2.2c3.4 1.9 3.5 5.3 3.5 6s-.5 1.6-1.3 2l-6 3.6s-.2 0-.2.1l4 2.2c3.4 1.9 3.5 5.3 3.5 6s-.5 1.6-1.3 2l-6 3.6s-.1 0-.2.1l4 2.2c3.4 1.9 3.5 5.3 3.5 6s-.5 1.6-1.3 2l-6 3.6 3.9 2.1c3.4 1.9 3.5 5.3 3.5 6s-.5 1.6-1.3 2l-6 3.6s-.1 0-.2.1l4 2.2c3.4 1.9 3.5 5.3 3.5 6s-.5 1.6-1.3 2l-6 3.6s-.2 0-.2.1l4 2.2c3.4 1.9 3.5 5.3 3.5 6s-.5 1.6-1.3 2l-6 3.6s-.1 0-.2.1l4 2.2c3.4 1.9 3.5 5.3 3.5 6s-.5 1.6-1.3 2l-6 3.6 3.9 2.1c3.4 1.9 3.5 5.3 3.5 6s-.5 1.6-1.3 2l-6 3.6s-.1 0-.2.1l4 2.2c3.4 1.9 3.5 5.3 3.5 6s-.5 1.6-1.3 2l-6 3.6s-.1 0-.2.1l4 2.2c3.4 1.9 3.5 5.3 3.5 6s-.5 1.6-1.3 2l-1.6.9zm-71.8-52.3c-.2.2-.3.6-.3.9 0 1.3 1 3.2 3.3 4.6l61.9 34.3c.6.4 1.2.4 1.7 0l6.1-3.6c.4-.2.6-.6.6-.8 0-.5-.1-3.3-2.8-4.8l-61.9-34.3c-.8-.4-1.5-.6-2-.3h-.1l-6.3 3.8zm0-13.9c-.2.2-.3.6-.3.9 0 1.3 1 3.2 3.3 4.6l61.9 34.3c.6.4 1.2.4 1.7 0l6.1-3.6c.4-.2.6-.6.6-.8 0-.5-.1-3.3-2.8-4.8l-61.9-34.3c-.8-.4-1.5-.6-2-.3h-.1l-6.3 3.8zm0-13.8c-.2.2-.3.6-.3.9 0 1.3 1 3.2 3.3 4.6l61.9 34.3c.6.4 1.2.4 1.7 0l6.1-3.6c.4-.2.6-.6.6-.8 0-.5-.1-3.3-2.8-4.8l-61.9-34.3c-.8-.4-1.5-.6-2-.3h-.1l-6.3 3.8zm0-13.9c-.2.2-.3.6-.3.9 0 1.3 1 3.2 3.3 4.6l61.9 34.3c.6.4 1.2.4 1.7 0l6.1-3.6c.4-.2.6-.6.6-.8 0-.5-.1-3.3-2.8-4.8l-61.9-34.3c-.8-.4-1.5-.6-2-.3h-.1l-6.3 3.8zm0-13.9q-.3.3-.3.9c0 1.3 1 3.2 3.3 4.6l61.9 34.3c.6.4 1.2.4 1.7 0l6.1-3.6c.4-.2.6-.6.6-.8 0-.5-.1-3.3-2.8-4.8l-61.9-34.3c-.8-.4-1.5-.6-2-.3h-.1l-6.3 3.8zm0-13.9c-.2.2-.3.6-.3.9 0 1.3 1 3.2 3.3 4.6l61.9 34.3c.6.4 1.2.4 1.7 0l6.1-3.6c.4-.2.6-.6.6-.8 0-.5-.1-3.3-2.8-4.8l-61.9-34.3c-.8-.4-1.5-.6-2-.3h-.1l-6.3 3.8zm0-13.8c-.2.2-.3.6-.3.9 0 1.3 1 3.2 3.3 4.6l61.9 34.3c.6.4 1.2.4 1.7 0l6.1-3.6c.4-.2.6-.6.6-.8 0-.5-.1-3.3-2.8-4.8l-61.9-34.3c-.8-.4-1.5-.6-2-.3h-.1l-6.3 3.8zm0-13.9c-.2.2-.3.6-.3.9 0 1.3 1 3.2 3.3 4.6l61.9 34.3c.6.4 1.2.4 1.7 0l6.1-3.6c.4-.2.6-.6.6-.8 0-.5-.1-3.3-2.8-4.8l-61.9-34.3c-.8-.4-1.5-.6-2-.3h-.2l-6.3 3.8zm0-13.9c-.2.2-.3.6-.3.9 0 1.3 1 3.2 3.3 4.6l61.9 34.3c.6.4 1.2.4 1.7 0l6.1-3.6c.4-.2.6-.6.6-.8 0-.5-.1-3.3-2.8-4.8l-61.9-34.3c-.8-.4-1.5-.6-2-.3h-.1l-6.3 3.8zm0-13.9q-.3.3-.3.9c0 1.3 1 3.2 3.3 4.6l61.9 34.3c.6.4 1.2.4 1.7 0l6.1-3.6c.4-.2.6-.6.6-.8 0-.5-.1-3.3-2.8-4.8l-61.9-34.3c-.8-.4-1.5-.6-2-.3h-.1l-5.9 3.5h-.1c-.1 0-.2.1-.3.2z"/>
    <path fill="#fff" d="M153.7 273.9q-.3 0-.6-.3c-.2-.3-.2-.7.1-.9.2-.2.5-.3.7-.4.3-.1.7 0 .9.4.2.3 0 .7-.3.9l-.5.3h-.4z"/>
    <path fill="#fff" d="M153.7 273.899c-.2 0-.4 0-.5-.2-.1-.1-.2-.3-.2-.5s0-.4.2-.5c.3-.3.7-.2 1 0 .1.1.2.3.2.5s0 .4-.2.5c-.1.1-.3.2-.5.2"/>
    <path fill="#fff" d="M221.102 314.899c-.2 0-.5-.1-.6-.3-.2-.3-.1-.7.2-1 .3-.2.5-.5.5-.7 0-.5-.1-3.3-2.8-4.8l-61.9-34.3c-.7-.4-1.4-.5-1.9-.3-.3.1-.7 0-.9-.3s0-.7.3-.9l5.8-3.5s.2-.1.3-.2c.9-.4 2.1-.3 3.3.4l61.9 34.3c3.4 1.9 3.5 5.3 3.5 6s-.5 1.6-1.3 2l-6 3.6zm-64-42.2 61.9 34.3c2.9 1.6 3.4 4.4 3.5 5.6l4.2-2.5c.4-.2.6-.6.6-.8 0-.5-.1-3.3-2.8-4.8l-61.9-34.3c-.8-.4-1.5-.6-2-.3h-.1l-4 2.4c.2 0 .4.2.6.3z"/>
    <path fill="#fff" d="M220 315.299c-.5 0-1.1-.2-1.7-.5l-61.9-34.3c-2.4-1.5-3.9-3.8-3.9-5.7s.3-1.6.9-2h.1l.5-.3h.1c.6-.2 1.7-.4 3.1.4l61.9 34.3c3.4 1.9 3.5 5.3 3.5 6s-.4 1.4-1.1 1.8c-.4.3-.9.4-1.4.4zm-62.9-36 61.9 34.3c.6.4 1.2.4 1.7 0 .3-.2.5-.5.5-.7 0-.5-.1-3.3-2.8-4.8l-61.9-34.3c-.7-.4-1.4-.5-1.9-.4l-.4.2c-.2.2-.3.6-.3 1 0 1.3 1 3.2 3.3 4.6z"/>
    <path fill="#fff" d="M221.102 328.899c-.2 0-.5-.1-.6-.3-.2-.3-.1-.7.2-1 .3-.2.5-.5.5-.7 0-.5-.1-3.3-2.8-4.8l-61.9-34.3c-.7-.4-1.4-.5-1.9-.3-.3.1-.7 0-.9-.3s0-.7.3-.9l5.8-3.5s.2-.1.3-.2c.9-.4 2.1-.3 3.3.4l61.9 34.3c3.4 1.9 3.5 5.3 3.5 6s-.5 1.6-1.3 2l-6 3.6zm-64-42.3 61.9 34.3c2.9 1.6 3.4 4.4 3.5 5.6l4.2-2.5c.4-.2.6-.6.6-.8 0-.5-.1-3.3-2.8-4.8l-61.9-34.3c-.8-.4-1.5-.6-2-.3h-.1l-4 2.4c.2 0 .4.2.6.3z"/>
    <path fill="#fff" d="M220 329.2c-.5 0-1.1-.2-1.7-.5l-61.9-34.3c-2.4-1.5-3.9-3.8-3.9-5.7s.3-1.6.9-2h.1l.5-.3h.1c.6-.2 1.7-.4 3.1.4l61.9 34.3c3.4 1.9 3.5 5.3 3.5 6s-.4 1.4-1.1 1.8c-.4.3-.9.4-1.4.4zm-62.9-36 61.9 34.3c.6.4 1.2.4 1.7 0 .3-.2.5-.5.5-.7 0-.5-.1-3.3-2.8-4.8l-61.9-34.3c-.7-.4-1.4-.5-1.9-.4l-.4.2c-.2.2-.3.6-.3 1 0 1.3 1 3.2 3.3 4.6z"/>
    <path fill="#fff" d="M221.102 342.8c-.2 0-.5-.1-.6-.3-.2-.3-.1-.7.2-1 .3-.2.5-.5.5-.7 0-.5-.1-3.3-2.8-4.8l-61.9-34.3c-.7-.4-1.4-.5-1.9-.3-.3.1-.7 0-.9-.4-.2-.3 0-.7.3-.9l5.8-3.5s.2-.1.3-.2c.9-.4 2.1-.3 3.3.4l61.9 34.3c3.4 1.9 3.5 5.3 3.5 6s-.5 1.6-1.3 2l-6 3.6h-.4zm-64-42.3 61.9 34.3c2.9 1.6 3.4 4.4 3.5 5.6l4.2-2.5c.4-.2.6-.6.6-.8 0-.5-.1-3.3-2.8-4.8l-61.9-34.3c-.8-.4-1.5-.6-2-.3h-.1l-4 2.4c.2 0 .4.2.6.3z"/>
    <path fill="#fff" d="M220 343.1c-.5 0-1.1-.2-1.7-.5l-61.9-34.3c-2.4-1.5-3.9-3.8-3.9-5.7s.3-1.6.9-2h.1l.5-.3h.1c.6-.2 1.7-.3 3.1.4l61.9 34.3c3.4 1.9 3.5 5.3 3.5 6s-.4 1.4-1.1 1.8c-.4.3-.9.4-1.5.4zm-62.9-36 61.9 34.3c.6.4 1.2.4 1.7 0 .3-.2.5-.5.5-.7 0-.5-.1-3.3-2.8-4.8l-61.9-34.3c-.7-.4-1.4-.5-1.9-.4l-.4.2c-.2.2-.3.6-.3 1 0 1.3 1 3.2 3.3 4.6z"/>
    <path fill="#fff" d="M221.102 356.7c-.2 0-.5-.1-.6-.3-.2-.3-.1-.7.2-1 .3-.2.5-.5.5-.7 0-.5-.1-3.3-2.8-4.8l-61.9-34.3c-.7-.4-1.4-.5-1.9-.3-.3.1-.7 0-.9-.3s0-.7.3-.9l5.8-3.5s.2-.1.3-.2c.9-.4 2.1-.3 3.3.4l61.9 34.3c3.4 1.9 3.5 5.3 3.5 6s-.5 1.6-1.3 2l-6 3.6zm-64-42.3 61.9 34.3c2.9 1.6 3.4 4.4 3.5 5.6l4.2-2.5c.4-.2.6-.6.6-.8 0-.5-.1-3.3-2.8-4.8l-61.9-34.3c-.8-.4-1.5-.6-2-.3h-.1l-4 2.4c.2 0 .4.2.6.3z"/>
    <path fill="#fff" d="M220 356.998c-.5 0-1.1-.2-1.7-.5l-61.9-34.3c-2.4-1.5-3.9-3.8-3.9-5.7s.3-1.6.9-2h.1l.5-.3h.1c.6-.2 1.7-.4 3.1.4l61.9 34.3c3.4 1.9 3.5 5.3 3.5 6s-.4 1.4-1.1 1.8c-.4.3-.9.4-1.4.4zm-62.9-35.9 61.9 34.3c.6.4 1.2.4 1.7 0 .3-.2.5-.5.5-.7 0-.5-.1-3.3-2.8-4.8l-61.9-34.3c-.7-.4-1.4-.5-1.9-.4l-.4.2c-.2.2-.3.6-.3 1 0 1.3 1 3.2 3.3 4.6z"/>
    <path fill="#fff" d="M221.102 370.399c-.2 0-.5-.1-.6-.3-.2-.3-.1-.7.2-1 .3-.2.5-.5.5-.7 0-.5-.1-3.3-2.8-4.8l-61.9-34.3c-.7-.4-1.4-.5-1.9-.3-.3.1-.7 0-.9-.3s0-.7.3-.9l5.8-3.5s.2-.1.3-.2c.9-.4 2.1-.3 3.3.4l61.9 34.3c3.4 1.9 3.5 5.3 3.5 6s-.5 1.6-1.3 2l-6 3.6zm-64-42.2 61.9 34.3c2.9 1.6 3.4 4.4 3.5 5.6l4.2-2.5c.4-.2.6-.6.6-.8 0-.5-.1-3.3-2.8-4.8l-61.9-34.3c-.8-.4-1.5-.6-2-.3h-.1l-4 2.4c.2 0 .4.2.6.3z"/>
    <path fill="#fff" d="M220 370.799c-.5 0-1.1-.2-1.7-.5l-61.9-34.3c-2.4-1.5-3.9-3.8-3.9-5.7s.3-1.6.9-2h.1l.5-.3h.1c.6-.2 1.7-.3 3.1.4l61.9 34.3c3.4 1.9 3.5 5.3 3.5 6s-.4 1.4-1.1 1.8c-.4.3-.9.4-1.4.4zm-62.9-36 61.9 34.3c.6.4 1.2.4 1.7 0 .3-.2.5-.5.5-.7 0-.5-.1-3.3-2.8-4.8l-61.9-34.3c-.7-.4-1.4-.5-1.9-.4l-.4.2c-.2.2-.3.6-.3 1 0 1.3 1 3.2 3.3 4.6z"/>
    <path fill="#fff" d="M221.102 384.3c-.2 0-.5-.1-.6-.3-.2-.3-.1-.7.2-1 .3-.2.5-.5.5-.7 0-.5-.1-3.3-2.8-4.8l-61.9-34.3c-.7-.4-1.4-.5-1.9-.3-.3.1-.7 0-.9-.3s0-.7.3-.9l5.8-3.5s.2-.1.3-.2c.9-.4 2.1-.3 3.3.4l61.9 34.3c3.4 1.9 3.5 5.3 3.5 6s-.5 1.6-1.3 2l-6 3.6zm-64-42.2 61.9 34.3c2.9 1.6 3.4 4.4 3.5 5.6l4.2-2.5c.4-.2.6-.6.6-.8 0-.5-.1-3.3-2.8-4.8l-61.9-34.3c-.8-.4-1.5-.6-2-.3h-.1l-4 2.4c.2 0 .4.2.6.3z"/>
    <path fill="#fff" d="M220 384.7c-.5 0-1.1-.2-1.7-.5l-61.9-34.3c-2.4-1.5-3.9-3.8-3.9-5.7s.3-1.6.9-2h.1l.5-.3h.1c.6-.2 1.7-.4 3.1.4l61.9 34.3c3.4 1.9 3.5 5.3 3.5 6s-.4 1.4-1.1 1.8c-.4.3-.9.4-1.4.4zm-62.9-36L219 383c.6.4 1.2.4 1.7 0 .3-.2.5-.5.5-.7 0-.5-.1-3.3-2.8-4.8l-61.9-34.3c-.7-.4-1.4-.5-1.9-.4l-.4.2c-.2.2-.3.6-.3 1 0 1.3 1 3.2 3.3 4.6z"/>
    <path fill="#fff" d="M221.102 398.3c-.2 0-.5-.1-.6-.3-.2-.3-.1-.7.2-1 .3-.2.5-.5.5-.7 0-.5-.1-3.3-2.8-4.8l-61.9-34.3c-.7-.4-1.4-.5-1.9-.3-.3.1-.7 0-.9-.4-.2-.3 0-.7.3-.9l5.8-3.5s.2-.1.3-.2c.9-.4 2.1-.3 3.3.4l61.9 34.3c3.4 1.9 3.5 5.3 3.5 6s-.5 1.6-1.3 2l-6 3.6h-.4zm-64-42.3 61.9 34.3c2.9 1.6 3.4 4.4 3.5 5.6l4.2-2.5c.4-.2.6-.6.6-.8 0-.5-.1-3.3-2.8-4.8l-61.9-34.3c-.8-.4-1.5-.6-2-.3h-.1l-4 2.4c.2 0 .4.2.6.3z"/>
    <path fill="#fff" d="M220 398.6c-.5 0-1.1-.2-1.7-.5l-61.9-34.3c-2.4-1.5-3.9-3.8-3.9-5.7s.3-1.6.9-2h.1l.5-.3h.1c.6-.2 1.7-.3 3.1.4l61.9 34.3c3.4 1.9 3.5 5.3 3.5 6s-.4 1.4-1.1 1.8c-.4.3-.9.4-1.5.4zm-62.9-36 61.9 34.3c.6.4 1.2.4 1.7 0 .3-.2.5-.5.5-.7 0-.5-.1-3.3-2.8-4.8l-61.9-34.3c-.7-.4-1.4-.5-1.9-.4l-.4.2c-.2.2-.3.6-.3 1 0 1.3 1 3.2 3.3 4.6z"/>
    <path fill="#fff" d="M221.102 412.2c-.2 0-.5-.1-.6-.3-.2-.3-.1-.7.2-1 .3-.2.5-.5.5-.7 0-.5-.1-3.3-2.8-4.8l-61.9-34.3c-.7-.4-1.4-.5-1.9-.3-.3.1-.7 0-.9-.3s0-.7.3-.9l5.8-3.5s.2-.1.3-.2c.9-.4 2.1-.3 3.3.4l61.9 34.3c3.4 1.9 3.5 5.3 3.5 6s-.5 1.6-1.3 2l-6 3.6zm-64-42.3 61.9 34.3c2.9 1.6 3.4 4.4 3.5 5.6l4.2-2.5c.4-.2.6-.6.6-.8 0-.5-.1-3.3-2.8-4.8l-61.9-34.3c-.8-.4-1.5-.6-2-.3h-.1l-4 2.4c.2 0 .4.2.6.3z"/>
    <path fill="#fff" d="M220 412.5c-.5 0-1.1-.2-1.7-.5l-61.9-34.3c-2.4-1.5-3.9-3.8-3.9-5.7s.3-1.6.9-2h.1l.5-.3h.1c.6-.2 1.7-.3 3.1.4l61.9 34.3c3.4 1.9 3.5 5.3 3.5 6s-.4 1.4-1.1 1.8c-.4.3-.9.4-1.4.4zm-62.9-36 61.9 34.3c.6.4 1.2.4 1.7 0 .3-.2.5-.5.5-.7 0-.5-.1-3.3-2.8-4.8L156.5 371c-.7-.4-1.4-.5-1.9-.4l-.4.2c-.2.2-.3.6-.3 1 0 1.3 1 3.2 3.3 4.6z"/>
    <path fill="#fff" d="M221.102 425.899c-.2 0-.5-.1-.6-.3-.2-.3-.1-.7.2-1 .3-.2.5-.5.5-.7 0-.5-.1-3.3-2.8-4.8l-61.9-34.3c-.7-.4-1.4-.5-1.9-.3-.3.1-.7 0-.9-.3s0-.7.3-.9l5.8-3.5s.2-.1.3-.2c.9-.4 2.1-.3 3.3.4l61.9 34.3c3.4 1.9 3.5 5.3 3.5 6s-.5 1.6-1.3 2l-6 3.6zm-64-42.2 61.9 34.3c2.9 1.6 3.4 4.4 3.5 5.6l4.2-2.5c.4-.2.6-.6.6-.8 0-.5-.1-3.3-2.8-4.8l-61.9-34.3c-.8-.4-1.5-.6-2-.3h-.1l-4 2.4c.2 0 .4.2.6.3z"/>
    <path fill="#fff" d="M220 426.299c-.5 0-1.1-.2-1.7-.5l-61.9-34.3c-2.4-1.5-3.9-3.8-3.9-5.7s.3-1.6.9-2h.1l.5-.3h.1c.6-.2 1.7-.4 3.1.4l61.9 34.3c3.4 1.9 3.5 5.3 3.5 6s-.4 1.4-1.1 1.8c-.4.3-.9.4-1.4.4zm-62.9-36 61.9 34.3c.6.4 1.2.4 1.7 0 .3-.2.5-.5.5-.7 0-.5-.1-3.3-2.8-4.8l-61.9-34.3c-.7-.4-1.4-.5-1.9-.4l-.4.2c-.2.2-.3.6-.3 1 0 1.3 1 3.2 3.3 4.6z"/>
    <path fill="#fff" d="M221.102 439.8c-.2 0-.5-.1-.6-.3-.2-.3-.1-.7.2-1 .3-.2.5-.5.5-.7 0-.5-.1-3.3-2.8-4.8l-61.9-34.3c-.7-.4-1.4-.5-1.9-.3-.3.1-.7 0-.9-.3s0-.7.3-.9l5.8-3.5s.2-.1.3-.2c.9-.4 2.1-.3 3.3.4l61.9 34.3c3.4 1.9 3.5 5.3 3.5 6s-.5 1.6-1.3 2l-6 3.6zm-64-42.2 61.9 34.3c2.9 1.6 3.4 4.4 3.5 5.6l4.2-2.5c.4-.2.6-.6.6-.8 0-.5-.1-3.3-2.8-4.8l-61.9-34.3c-.8-.4-1.5-.6-2-.3h-.1l-4 2.4c.2 0 .4.2.6.3z"/>
    <path fill="#fff" d="M220 440.2c-.5 0-1.1-.2-1.7-.5l-61.9-34.3c-2.4-1.5-3.9-3.8-3.9-5.7s.3-1.6.9-2h.1l.5-.3h.1c.6-.2 1.7-.4 3.1.4l61.9 34.3c3.4 1.9 3.5 5.3 3.5 6s-.4 1.4-1.1 1.8c-.4.3-.9.4-1.4.4zm-62.9-36 61.9 34.3c.6.4 1.2.4 1.7 0 .3-.2.5-.5.5-.7 0-.5-.1-3.3-2.8-4.8l-61.9-34.3c-.7-.4-1.4-.5-1.9-.4l-.4.2c-.2.2-.3.6-.3 1 0 1.3 1 3.2 3.3 4.6z"/>
    <path fill="#fff" d="M221.102 453.8c-.2 0-.5-.1-.6-.3-.2-.3-.1-.7.2-1 .3-.2.5-.5.5-.7 0-.3 0-1.2-.4-2.2-.5-1.1-1.3-2-2.4-2.6l-61.9-34.3c-.7-.4-1.4-.5-1.9-.3-.3.1-.7 0-.9-.3s0-.7.3-.9l5.8-3.5s.2-.1.3-.2c.9-.4 2.1-.3 3.3.4l61.9 34.3c3.4 1.9 3.5 5.3 3.5 6s-.5 1.6-1.3 2l-6 3.6zm-64-42.3 61.9 34.3q2.1 1.2 3 3.3c.4.9.5 1.7.5 2.3l4.2-2.5c.4-.2.6-.6.6-.8 0-.5-.1-3.3-2.8-4.8l-61.9-34.3c-.8-.4-1.5-.6-2-.3h-.1l-4 2.4c.2 0 .4.2.6.3z"/>
    <path fill="#fff" d="M220 454.1c-.5 0-1.1-.2-1.7-.5l-61.9-34.3h-.1c-2.4-1.5-3.9-3.7-3.9-5.7s0-.8.2-1.1c.1-.3.4-.6.6-.9h.1l.5-.3h.1c.6-.2 1.7-.4 3.1.4l61.9 34.3q2.1 1.2 3 3.3c.5 1.2.6 2.3.6 2.7 0 .7-.4 1.4-1.1 1.8-.4.3-.9.4-1.4.4zm-62.9-35.9 61.9 34.2c.6.4 1.2.4 1.7 0 .3-.2.5-.5.5-.7s0-1.1-.4-2.2c-.5-1.1-1.3-2-2.4-2.6l-61.9-34.3c-.7-.4-1.4-.5-1.9-.4l-.4.2s-.2.2-.2.3c0 .2-.1.4-.1.6 0 1.3 1 3.2 3.3 4.6zm64 49.499c-.3 0-.6-.2-.7-.5 0-.3 0-.6.3-.8 0 0 .2-.1.2-.2.2-.3.6-.3.9-.2h.1c.2.2.4.4.4.7q0 .45-.3.6l-.5.3c-.1 0-.2.1-.4.1"/>
    <path fill="#fff" d="M221.602 467.4h-.4c-.2-.2-.3-.3-.4-.5 0-.2 0-.4.2-.6.1-.2.2-.3.2-.4 0-.5-.1-3.3-2.8-4.8l-61.9-34.3c-.8-.4-1.4-.5-1.9-.4-.3.1-.7 0-.9-.3s0-.7.3-.9l5.8-3.5s.2-.1.3-.2c.9-.4 2.1-.3 3.3.4l61.9 34.3c1 .6 1.9 1.4 2.5 2.3 1 1.6 1.1 3.2 1.1 3.7v.1c0 .7-.6 1.5-1.3 1.8l-5.5 3.2h-.4zm-65.2-42.3c.2 0 .4.2.6.3l61.9 34.3c2.9 1.6 3.4 4.4 3.5 5.6l4.2-2.5c.4-.2.6-.6.6-.8 0-.5-.1-1.7-.9-2.9-.5-.8-1.1-1.4-2-1.8l-61.9-34.3c-.8-.4-1.5-.6-2-.3h-.1l-4 2.4z"/>
    <path fill="#fff" d="M220 467.999c-.5 0-1.1-.2-1.7-.5l-61.9-34.3c-1.1-.7-2.1-1.6-2.8-2.5q-1.2-1.65-1.2-3.3c0-1.1.3-1.6.9-2h.1l.5-.3h.1c.6-.2 1.7-.4 3.1.4l61.9 34.3c3.4 1.9 3.5 5.3 3.5 6s-.2.9-.5 1.3c-.2.2-.4.4-.6.5-.4.3-.9.4-1.5.4zm-65.9-41.5c-.2.2-.3.6-.3 1 0 .7.3 1.6 1 2.4.6.8 1.4 1.6 2.4 2.1l61.9 34.3c.6.4 1.2.4 1.7 0 0 0 .2-.1.2-.2.1-.2.2-.3.2-.4 0-.5-.1-3.3-2.8-4.8l-61.9-34.3c-.7-.4-1.4-.5-1.9-.4l-.4.2z"/>
    <path fill="#fff" d="M221.102 481.4c-.2 0-.5-.1-.6-.3-.2-.3-.1-.8.2-1s.5-.5.5-.7c0-.5-.1-3.3-2.8-4.8l-61.9-34.3c-.8-.4-1.4-.5-1.9-.4-.3.1-.7 0-.9-.3s0-.7.3-.9l5.8-3.5s.2-.1.3-.2c.9-.4 2.1-.3 3.3.4l61.9 34.3c3.4 1.9 3.5 5.3 3.5 6s-.5 1.6-1.3 2l-6 3.6h-.4zm-64.7-42.5c.2 0 .4.2.6.3l61.9 34.3c2.9 1.6 3.4 4.4 3.5 5.6l4.2-2.5c.4-.2.6-.6.6-.8 0-.5-.1-3.3-2.8-4.8l-61.9-34.3c-.8-.4-1.5-.6-2-.3h-.1l-4 2.4z"/>
    <path fill="#fff" d="M220 481.7c-.5 0-1.1-.2-1.7-.5l-61.9-34.3c-2.4-1.5-4-3.8-4-5.8s.3-1.6.9-2h.1l.5-.3h.1c.6-.2 1.7-.4 3.1.4l61.9 34.3c3.3 1.8 3.5 5.1 3.5 6 0 .7-.4 1.4-1.1 1.8-.4.3-.9.4-1.5.4zm-65.9-41.5c-.2.2-.3.6-.3 1 0 1.3 1 3.2 3.3 4.6l61.9 34.3c.6.4 1.2.4 1.7 0 .3-.2.4-.5.5-.6 0-.5-.1-3.3-2.8-4.8l-61.9-34.3c-.7-.4-1.4-.5-1.9-.4l-.4.2z"/>
    <path fill="#fff" d="M221.102 495.3c-.2 0-.5-.1-.6-.3-.2-.3-.1-.7.2-1 .3-.2.5-.5.5-.7 0-.5-.1-3.3-2.8-4.8l-61.9-34.3c-.8-.4-1.4-.5-1.9-.4-.3.1-.7 0-.9-.3s0-.7.3-.9l5.8-3.5s.2-.1.3-.2c.9-.4 2.1-.3 3.3.4l61.9 34.3c3.4 1.9 3.5 5.3 3.5 6s-.5 1.6-1.3 2l-6 3.6h-.4zm-64.7-42.5c.2 0 .4.2.6.3l61.9 34.3c2.9 1.6 3.4 4.4 3.5 5.6l4.2-2.5c.4-.2.6-.6.6-.8 0-.5-.1-3.3-2.8-4.8l-61.9-34.3c-.8-.4-1.5-.6-2-.3h-.1l-4 2.4z"/>
    <path fill="#fff" d="M220 495.598c-.5 0-1.1-.2-1.7-.5l-61.9-34.3c-2.4-1.5-4-3.8-4-5.8s.3-1.6.9-2h.1l.5-.3h.1c.6-.2 1.7-.4 3.1.4l61.9 34.3c3.3 1.8 3.5 5.1 3.5 6 0 .7-.4 1.4-1.1 1.8-.4.3-.9.4-1.5.4zm-65.9-41.5c-.2.2-.3.6-.3 1 0 1.3 1 3.2 3.3 4.6l61.9 34.3c.6.4 1.2.4 1.7 0 .3-.2.4-.5.5-.6 0-.5-.1-3.3-2.8-4.8l-61.9-34.3c-.7-.4-1.4-.5-1.9-.4l-.4.2z"/>
    <path fill="#fff" d="M221.102 509.3c-.2 0-.5-.1-.6-.3-.2-.3-.1-.7.2-1 .3-.2.5-.5.5-.7 0-.5-.1-3.3-2.8-4.8l-61.9-34.3c-.8-.4-1.4-.5-1.9-.4-.3.1-.7 0-.9-.3s0-.7.3-.9l5.8-3.5s.2-.1.3-.2c.9-.4 2.1-.3 3.3.4l61.9 34.3c3.4 1.9 3.5 5.3 3.5 6s-.5 1.6-1.3 2l-6 3.6h-.4zm-64.7-42.6c.2 0 .4.2.6.3l61.9 34.3c2.9 1.6 3.4 4.4 3.5 5.6l4.2-2.5c.4-.2.6-.6.6-.8 0-.5-.1-3.3-2.8-4.8l-61.9-34.3c-.8-.4-1.5-.6-2-.3h-.1l-4 2.4z"/>
    <path fill="#fff" d="M220 509.598c-.5 0-1.1-.2-1.7-.5l-61.9-34.3c-2.4-1.5-4-3.8-4-5.8s.3-1.6.9-2h.1l.5-.3h.1c.6-.2 1.7-.4 3.1.4l61.9 34.3c3.3 1.8 3.5 5.1 3.5 6 0 .7-.4 1.4-1.1 1.8-.4.3-.9.4-1.5.4zm-65.9-41.5c-.2.2-.3.6-.3 1 0 1.3 1 3.2 3.3 4.6l61.9 34.3c.6.4 1.2.4 1.7 0 .3-.2.4-.5.5-.6 0-.5-.1-3.3-2.8-4.8l-61.9-34.3c-.7-.4-1.4-.5-1.9-.4l-.4.2zm-8.7-194.5c-.2 0-.5-.1-.6-.3-.2-.3-.1-.7.2-1 .3-.2.5-.5.5-.7 0-.5-.1-3.3-2.8-4.8l-61.9-34.3c-.7-.4-1.4-.5-1.9-.3-.3.1-.7 0-.9-.3s0-.7.3-.9l5.8-3.5s.2-.1.3-.2c.9-.4 2.1-.3 3.3.4l61.9 34.3c3.4 1.9 3.5 5.3 3.5 6s-.5 1.6-1.3 2l-6 3.6zm-63.9-42.2 61.9 34.2c2.9 1.6 3.4 4.4 3.5 5.6l4.2-2.5c.4-.2.6-.6.6-.8 0-.5-.1-3.3-2.8-4.8l-61.9-34.3c-.8-.4-1.5-.6-2-.3h-.1l-4 2.4c.2 0 .4.2.6.3z"/>
    <path fill="#fff" d="M144.4 274c-.5 0-1.1-.2-1.7-.5l-32.5-18-29.3-16.2c-2.4-1.5-4-3.8-4-5.8s.3-1.6.9-2h.1l.5-.3h.1c.6-.2 1.7-.3 3.1.4l61.9 34.3c3.4 1.9 3.5 5.3 3.5 6s-.4 1.4-1.1 1.8c-.4.3-.9.4-1.5.4zm-33.5-19.7 32.5 18c.6.4 1.2.4 1.7 0 .3-.2.5-.5.5-.7 0-.5-.1-3.3-2.8-4.8l-61.9-34.3c-.7-.4-1.4-.5-1.9-.4l-.4.2c-.2.2-.3.6-.3 1 0 1.3 1 3.2 3.3 4.6l29.4 16.2z"/>
    <path fill="#fff" d="M145.4 287.499c-.2 0-.5-.1-.6-.3-.2-.3-.1-.8.2-1s.5-.5.5-.7c0-.5-.1-3.3-2.8-4.8l-61.9-34.3c-.7-.4-1.4-.5-1.9-.3-.3.1-.7 0-.9-.3s0-.7.3-.9l5.8-3.5s.2-.1.3-.2c.9-.4 2.1-.3 3.3.4l61.9 34.3c3.4 1.9 3.5 5.3 3.5 6s-.5 1.6-1.3 2l-6 3.6zm-63.9-42.2 61.9 34.2c2.9 1.6 3.4 4.4 3.5 5.6l4.2-2.5c.4-.2.6-.6.6-.8 0-.5-.1-3.3-2.8-4.8l-61.9-34.3c-.8-.4-1.5-.6-2-.3h-.1l-4 2.4c.2 0 .4.2.6.3z"/>
    <path fill="#fff" d="M144.4 287.898c-.5 0-1.1-.2-1.7-.5l-32.5-18-29.3-16.2c-2.4-1.5-4-3.8-4-5.8s.3-1.6.9-2h.1l.5-.3h.1c.6-.2 1.7-.3 3.1.4l61.9 34.3c3.4 1.9 3.5 5.3 3.5 6s-.4 1.4-1.1 1.8c-.4.3-.9.4-1.5.4zm-33.5-19.699 32.5 18c.6.4 1.2.4 1.7 0 .3-.2.5-.501.5-.701 0-.5-.1-3.299-2.8-4.799l-61.9-34.301c-.7-.4-1.4-.5-1.9-.4l-.4.2c-.2.2-.3.6-.3 1 0 1.3 1 3.2 3.3 4.6l29.4 16.2z"/>
    <path fill="#fff" d="M145.4 301.499c-.2 0-.5-.1-.6-.3-.2-.3-.1-.8.2-1s.5-.5.5-.7c0-.5-.1-3.3-2.8-4.8l-61.9-34.3c-.7-.4-1.4-.5-1.9-.3-.3.1-.7 0-.9-.4-.2-.3 0-.7.3-.9l5.8-3.5s.2-.1.3-.2c.9-.4 2.1-.3 3.3.4l61.9 34.3c3.4 1.9 3.5 5.3 3.5 6s-.5 1.6-1.3 2l-6 3.6h-.4zm-63.9-42.3 61.9 34.2c2.9 1.6 3.4 4.4 3.5 5.6l4.2-2.5c.4-.2.6-.6.6-.8 0-.5-.1-3.3-2.8-4.8l-61.9-34.3c-.8-.4-1.5-.6-2-.3h-.1l-4 2.4c.2 0 .4.2.6.3z"/>
    <path fill="#fff" d="M144.4 301.799c-.5 0-1.1-.2-1.7-.5l-32.5-18-29.3-16.2c-2.4-1.5-4-3.8-4-5.8s.3-1.6.9-2h.1l.5-.3h.1c.6-.2 1.7-.3 3.1.4l61.9 34.3c3.4 1.9 3.5 5.3 3.5 6s-.4 1.4-1.1 1.8c-.4.3-.9.4-1.4.4zm-33.5-19.7 32.5 18c.6.4 1.2.4 1.7 0 .3-.2.5-.5.5-.7 0-.5-.1-3.3-2.8-4.8l-61.9-34.3c-.7-.4-1.4-.5-1.9-.4l-.4.2c-.2.2-.3.6-.3 1 0 1.3 1 3.2 3.3 4.6l29.4 16.2z"/>
    <path fill="#fff" d="M145.4 315.399c-.2 0-.5-.1-.6-.3-.2-.3-.1-.8.2-1s.5-.5.5-.7c0-.5-.1-3.3-2.8-4.8l-61.9-34.3c-.7-.4-1.4-.5-1.9-.3-.3.1-.7 0-.9-.3s0-.7.3-.9l5.8-3.5s.2-.1.3-.2c.9-.4 2.1-.3 3.3.4l61.9 34.3c3.4 1.9 3.5 5.3 3.5 6s-.5 1.6-1.3 2l-6 3.6zm-63.9-42.3 61.9 34.2c2.9 1.6 3.4 4.4 3.5 5.6l4.2-2.5c.4-.2.6-.6.6-.8 0-.5-.1-3.3-2.8-4.8l-61.9-34.3c-.8-.4-1.5-.6-2-.3h-.1l-4 2.4c.2 0 .4.2.6.3z"/>
    <path fill="#fff" d="M144.4 315.7c-.5 0-1.1-.2-1.7-.5l-32.5-18L80.9 281c-2.4-1.5-4-3.8-4-5.8s.3-1.6.9-2h.1l.5-.3h.1c.6-.2 1.7-.4 3.1.4l61.9 34.3c3.4 1.9 3.5 5.3 3.5 6s-.4 1.4-1.1 1.8c-.4.3-.9.4-1.5.4zM110.9 296l32.5 18c.6.4 1.2.4 1.7 0 .3-.2.5-.5.5-.7 0-.5-.1-3.3-2.8-4.8l-61.9-34.3c-.7-.4-1.4-.5-1.9-.4l-.4.2c-.2.2-.3.6-.3 1 0 1.3 1 3.2 3.3 4.6l29.4 16.2zm354.5-121.601c-.2 0-.5-.1-.6-.3-.2-.3-.1-.7.2-1 .3-.2.5-.5.5-.7 0-.5-.1-3.3-2.8-4.8l-61.9-34.3c-.7-.4-1.4-.5-1.9-.3-.3.1-.7 0-.9-.3s0-.7.3-.9l5.8-3.5s.2-.1.3-.2c.9-.4 2.1-.3 3.3.4l61.9 34.3c3.4 1.9 3.5 5.3 3.5 6s-.5 1.6-1.3 2l-6 3.6zm-64-42.2 61.9 34.3c2.9 1.6 3.4 4.4 3.5 5.6l4.2-2.5c.4-.2.6-.6.6-.8 0-.5-.1-3.3-2.8-4.8l-61.9-34.3c-.8-.4-1.5-.6-2-.3h-.1l-4 2.4c.2 0 .4.2.6.3z"/>
    <path fill="#fff" d="M464.301 174.7c-.5 0-1.1-.2-1.7-.5l-61.9-34.3c-2.4-1.5-4-3.8-4-5.8s.3-1.6.9-2h.1l.5-.3h.1c.6-.2 1.7-.4 3.1.4l61.9 34.3c3.4 1.9 3.5 5.3 3.5 6s-.4 1.4-1.1 1.8c-.4.3-.9.4-1.4.4m-62.9-35.9 61.9 34.3c.6.4 1.2.4 1.7 0 .3-.2.5-.5.5-.7 0-.5-.1-3.3-2.8-4.8l-61.9-34.3c-.7-.4-1.4-.5-1.9-.4l-.4.2c-.2.2-.3.6-.3.9 0 1.3 1 3.2 3.3 4.6z"/>
    <path fill="#fff" d="M465.4 188.298c-.2 0-.5-.1-.6-.3-.2-.3-.1-.7.2-1 .3-.2.5-.5.5-.7 0-.5-.1-3.3-2.8-4.8l-61.9-34.3c-.8-.4-1.4-.5-1.9-.4-.3.1-.7 0-.9-.4-.2-.3 0-.7.3-.9l5.8-3.5s.2-.1.3-.2c.9-.4 2.1-.3 3.3.4l61.9 34.3c3.4 1.9 3.5 5.3 3.5 6s-.5 1.6-1.3 2l-6 3.6h-.4zm-64.6-42.6c.2 0 .4.2.6.3l61.9 34.3c2.9 1.6 3.4 4.4 3.5 5.6l4.2-2.5c.4-.2.6-.6.6-.8 0-.5-.1-3.3-2.8-4.8l-61.9-34.3c-.8-.4-1.5-.6-2-.3h-.1l-4 2.4z"/>
    <path fill="#fff" d="M464.301 188.6c-.5 0-1.1-.2-1.7-.5l-61.9-34.3c-2.4-1.5-4-3.8-4-5.8s.3-1.6.9-2h.1l.5-.3h.1c.6-.2 1.7-.3 3.1.4l61.9 34.3c3.4 1.9 3.5 5.3 3.5 6s-.4 1.4-1.1 1.8c-.4.3-.9.4-1.5.4zm-65.9-41.5c-.2.2-.3.6-.3.9 0 1.3 1 3.2 3.3 4.6l61.9 34.3c.6.4 1.2.4 1.7 0 .3-.2.5-.5.5-.7 0-.5-.1-3.3-2.8-4.8l-61.9-34.3c-.7-.4-1.4-.5-1.9-.4l-.4.2z"/>
    <path fill="#fff" d="M465.4 202.2c-.2 0-.5-.1-.6-.3-.2-.3-.1-.7.2-1 .3-.2.5-.5.5-.7 0-.5-.1-3.3-2.8-4.8l-61.9-34.3c-.7-.4-1.4-.5-1.9-.3-.3.1-.7 0-.9-.3s0-.7.3-.9l5.8-3.5s.2-.1.3-.2c.9-.4 2.1-.3 3.3.4l61.9 34.3c3.4 1.9 3.5 5.3 3.5 6s-.5 1.6-1.3 2l-6 3.6zm-64-42.2 61.9 34.3c2.9 1.6 3.4 4.4 3.5 5.6l4.2-2.5c.4-.2.6-.6.6-.8 0-.5-.1-3.3-2.8-4.8l-61.9-34.3c-.8-.4-1.5-.6-2-.3h-.1l-4 2.4c.2 0 .4.2.6.3z"/>
    <path fill="#fff" d="M464.301 202.598c-.5 0-1.1-.2-1.7-.5l-18-10c-.2-.1-.4-.4-.4-.6v-1l-45.9-24.8s-.2-.1-.2-.2c-.9-1.2-1.4-2.4-1.4-3.5s.3-1.6.9-2h.1l.5-.3h.1c.6-.2 1.7-.4 3.1.4l61.9 34.3c3.4 1.9 3.5 5.3 3.5 6s-.4 1.4-1.1 1.8c-.4.3-.9.4-1.5.4zm-18.6-11.5 17.6 9.8c.6.4 1.2.4 1.7 0 .3-.2.5-.5.5-.7 0-.5-.1-3.3-2.8-4.8l-61.9-34.3c-.7-.4-1.4-.5-1.9-.4l-.4.2c-.2.2-.3.6-.3.9 0 .8.4 1.7 1 2.6l46.2 24.9c.2.1.4.4.4.6v1z"/>
    <path fill="#fff" d="M465.401 216.099c-.2 0-.5-.1-.6-.3-.2-.3-.1-.7.2-1 .3-.2.5-.5.5-.7 0-.5-.1-3.3-2.8-4.8l-18-10c-.2-.1-.4-.4-.4-.6v-7.1c0-.2.1-.5.3-.6s.5-.1.7 0l24.2 13.4c3.4 1.9 3.5 5.3 3.5 6s-.5 1.6-1.3 2l-6 3.6h-.4zm-19.7-17.7 17.6 9.8c2.9 1.6 3.4 4.4 3.5 5.6l4.2-2.5c.4-.2.6-.6.6-.8 0-.5-.1-3.3-2.8-4.8l-23.2-12.8v5.5z"/>
    <path fill="#fff" d="M464.301 216.5c-.5 0-1.1-.2-1.7-.5l-18-10c-.2-.1-.4-.4-.4-.6v-6.6c0-.2.1-.5.3-.6s.5-.1.7 0l18 10c3.4 1.9 3.5 5.3 3.5 6s-.4 1.4-1.1 1.8c-.4.3-.9.4-1.5.4zm-18.6-11.5 17.6 9.8c.6.4 1.2.4 1.7 0 .3-.2.5-.5.5-.7 0-.5-.1-3.3-2.8-4.8l-17-9.4z"/>
    <path fill="#fff" d="M465.401 229.9c-.2 0-.5-.1-.6-.3-.2-.3-.1-.7.2-1 .3-.2.5-.5.5-.7 0-.5-.1-3.3-2.8-4.8l-18-10c-.2-.1-.4-.4-.4-.6v-7.1c0-.2.1-.5.3-.6s.5-.1.7 0l24.2 13.4c3.4 1.9 3.5 5.3 3.5 6s-.5 1.6-1.3 2l-6 3.6h-.4zm-19.7-17.7 17.6 9.8c2.9 1.6 3.4 4.4 3.5 5.6l4.2-2.5c.4-.2.6-.6.6-.8 0-.5-.1-3.3-2.8-4.8l-23.2-12.8v5.5z"/>
    <path fill="#fff" d="M464.301 230.199c-.5 0-1.1-.2-1.7-.5l-18-10c-.2-.1-.4-.4-.4-.6v-6.6c0-.2.1-.5.3-.6s.5-.1.7 0l18 10c3.4 1.9 3.5 5.3 3.5 6s-.4 1.4-1.1 1.8c-.4.3-.9.4-1.5.4zm-18.6-11.4 17.6 9.8c.6.4 1.2.4 1.7 0 .3-.2.5-.5.5-.7 0-.5-.1-3.3-2.8-4.8l-17-9.4zM438.102 216h-.3l-4.8-2.7c-.2-.1-.4-.4-.4-.6v-2.9c0-.3.1-.5.4-.6l3.3-1.9c.2-.1.5-.1.7 0l1.6.9c.2.1.4.4.4.6v6.6c0 .2-.1.5-.3.6zm-4.2-3.8 3.4 1.9v-5l-.9-.5-2.6 1.5v2.1z"/>
    <path fill="#fff" d="M465.401 243.8c-.2 0-.5-.1-.6-.3-.2-.3-.1-.7.2-1 .3-.2.5-.5.5-.7 0-.5-.1-3.3-2.8-4.8l-18-10c-.2-.1-.4-.4-.4-.6v-7.1c0-.2.1-.5.3-.6s.5-.1.7 0l24.2 13.4c3.4 1.9 3.5 5.3 3.5 6s-.5 1.6-1.3 2l-6 3.6h-.4zm-19.7-17.7 17.6 9.8c2.9 1.6 3.4 4.4 3.5 5.6l4.2-2.5c.4-.2.6-.6.6-.8 0-.5-.1-3.3-2.8-4.8l-23.2-12.8v5.5zm-7.599-2.8h-.3l-4.8-2.7c-.2-.1-.4-.4-.4-.6v-7.1c0-.2.1-.5.3-.6s.5-.1.7 0l4.8 2.7c.2.1.4.4.4.6v7.1c0 .2-.1.5-.3.6zm-4.2-3.8 3.4 1.9v-5.5l-3.4-1.9z"/>
    <path fill="#fff" d="M464.301 244.1c-.5 0-1.1-.2-1.7-.5l-18-10c-.2-.1-.4-.4-.4-.6v-6.6c0-.2.1-.5.3-.6s.5-.1.7 0l18 10c3.4 1.9 3.5 5.3 3.5 6s-.4 1.4-1.1 1.8c-.4.3-.9.4-1.5.4zm-18.6-11.4 17.6 9.8c.6.4 1.2.4 1.7 0 .3-.2.5-.5.5-.7 0-.5-.1-3.3-2.8-4.8l-17-9.4zm-7.599-2.801h-.3l-4.8-2.7c-.2-.1-.4-.4-.4-.6v-6.6c0-.2.1-.5.3-.6s.5-.1.7 0l4.8 2.7c.2.1.4.4.4.6v6.6c0 .2-.1.5-.3.6zm-4.2-3.7 3.4 1.9v-5l-3.4-1.9zm-160.301 55.1h-.3l-155.2-83.7c-.2-.1-.4-.4-.4-.6q0-.45.3-.6l62.3-36.6c.3-.2.7-.1.9.2 16.1 19.2 53.4 32.2 92.7 32.2s73.2-11.4 90.7-29.9c.2-.3.6-.4.9-.2l56.9 30.7c.2.1.4.4.4.6q0 .45-.3.6l-148.6 87.3h-.4zm-153.7-84.4 153.8 82.9 147.2-86.5-55.4-29.9c-17.8 18.5-52.8 30-91.4 30s-76.8-12.9-93.4-32.2l-60.7 35.7z"/>
    <path fill="#fff" d="M465.401 257.698c-.2 0-.5-.1-.6-.3-.2-.3-.1-.7.2-1 .3-.2.5-.5.5-.7 0-.5-.1-3.3-2.8-4.8l-18-10c-.2-.1-.4-.4-.4-.6v-7.1c0-.2.1-.5.3-.6s.5-.1.7 0l24.2 13.4c3.4 1.9 3.5 5.3 3.5 6s-.5 1.6-1.3 2l-6 3.6h-.4zm-19.7-17.7 17.6 9.8c2.9 1.6 3.4 4.4 3.5 5.6l4.2-2.5c.4-.2.6-.6.6-.8 0-.5-.1-3.3-2.8-4.8l-23.2-12.8v5.5zm-7.599-2.698h-.3l-4.8-2.7c-.2-.1-.4-.4-.4-.6v-7.1c0-.2.1-.5.3-.6s.5-.1.7 0l4.8 2.7c.2.1.4.4.4.6v7.1c0 .2-.1.5-.3.6zm-4.2-3.8 3.4 1.9v-5.5l-3.4-1.9z"/>
    <path fill="#fff" d="M464.301 258c-.5 0-1.1-.2-1.7-.5l-18-10c-.2-.1-.4-.4-.4-.6v-6.6c0-.2.1-.5.3-.6s.5-.1.7 0l18 10c3.4 1.9 3.5 5.3 3.5 6s-.4 1.4-1.1 1.8c-.4.3-.9.4-1.5.4zm-18.6-11.4 17.6 9.8c.6.4 1.2.4 1.7 0 .3-.2.5-.5.5-.7 0-.5-.1-3.3-2.8-4.8l-17-9.4zm-7.599-2.701h-.3l-4.8-2.7c-.2-.1-.4-.4-.4-.6v-6.6c0-.2.1-.5.3-.6s.5-.1.7 0l4.8 2.7c.2.1.4.4.4.6v6.6c0 .2-.1.5-.3.6zm-4.2-3.8 3.4 1.9v-5l-3.4-1.9z"/>
    <path fill="#fff" d="M465.401 271.599c-.2 0-.5-.1-.6-.3-.2-.3-.1-.7.2-1 .3-.2.5-.5.5-.7 0-.5-.1-3.3-2.8-4.8l-18-10c-.2-.1-.4-.4-.4-.6v-7.1c0-.2.1-.5.3-.6s.5-.1.7 0l24.2 13.4c3.4 1.9 3.5 5.3 3.5 6s-.5 1.6-1.3 2l-6 3.6h-.4zm-19.7-17.7 17.6 9.8c2.9 1.6 3.4 4.4 3.5 5.6l4.2-2.5c.4-.2.6-.6.6-.8 0-.5-.1-3.3-2.8-4.8l-23.2-12.8v5.5zm-42.1-26.599c-.2 0-.5-.1-.6-.3-.2-.3 0-.8.2-1l.8-.5s.2-.1.3-.2h.1c.3-.1.7 0 .9.4.2.3 0 .7-.3.9l-1.2.7h-.3zm34.501 23.9h-.3l-4.8-2.7c-.2-.1-.4-.4-.4-.6v-7.1c0-.2.1-.5.3-.6s.5-.1.7 0l4.8 2.7c.2.1.4.4.4.6v7.1c0 .2-.1.5-.3.6zm-4.2-3.8 3.4 1.9v-5.5l-3.4-1.9z"/>
    <path fill="#fff" d="M464.301 272c-.5 0-1.1-.2-1.7-.5l-18-10c-.2-.1-.4-.4-.4-.6v-6.6c0-.2.1-.5.3-.6s.5-.1.7 0l18 10c3.4 1.9 3.5 5.3 3.5 6s-.4 1.4-1.1 1.8c-.4.3-.9.4-1.4.4zm-18.6-11.5 17.6 9.8c.6.4 1.2.4 1.7 0 .3-.2.5-.5.5-.7 0-.5-.1-3.3-2.8-4.8l-17-9.4zm-7.599-2.7h-.3l-4.8-2.7c-.2-.1-.4-.4-.4-.6v-6.6c0-.2.1-.5.3-.6s.5-.1.7 0l4.8 2.7c.2.1.4.4.4.6v6.6c0 .2-.1.5-.3.6zm-4.2-3.8 3.4 1.9v-5l-3.4-1.9z"/>
    <path fill="#fff" d="M465.401 285.4c-.2 0-.5-.1-.6-.3-.2-.3-.1-.7.2-1 .3-.2.5-.5.5-.7 0-.5-.1-3.3-2.8-4.8l-18-10c-.2-.1-.4-.4-.4-.6v-7.1c0-.2.1-.5.3-.6s.5-.1.7 0l24.2 13.4c3.4 1.9 3.5 5.3 3.5 6s-.5 1.6-1.3 2l-6 3.6h-.4zm-19.7-17.7 17.6 9.8c2.9 1.6 3.4 4.4 3.5 5.6l4.2-2.5c.4-.2.6-.6.6-.8 0-.5-.1-3.3-2.8-4.8l-23.2-12.8v5.5zm-7.599-2.801h-.3l-4.8-2.7c-.2-.1-.4-.4-.4-.6v-7.1c0-.2.1-.5.3-.6s.5-.1.7 0l4.8 2.7c.2.1.4.4.4.6v7.1c0 .2-.1.5-.3.6zm-4.2-3.8 3.4 1.9v-5.5l-3.4-1.9z"/>
    <path fill="#fff" d="M464.301 285.699c-.5 0-1.1-.2-1.7-.5l-18-10c-.2-.1-.4-.4-.4-.6v-6.6c0-.2.1-.5.3-.6s.5-.1.7 0l18 10c3.4 1.9 3.5 5.3 3.5 6s-.4 1.4-1.1 1.8c-.4.3-.9.4-1.4.4zm-18.6-11.4 17.6 9.8c.6.4 1.2.4 1.7 0 .3-.2.5-.5.5-.7 0-.5-.1-3.3-2.8-4.8l-17-9.4zm-7.599-2.8h-.3l-4.8-2.7c-.2-.1-.4-.4-.4-.6v-6.6c0-.2.1-.5.3-.6s.5-.1.7 0l4.8 2.7c.2.1.4.4.4.6v6.6c0 .2-.1.5-.3.6zm-4.2-3.8 3.4 1.9v-5l-3.4-1.9z"/>
    <path fill="#fff" d="M465.401 299.3c-.2 0-.5-.1-.6-.3-.2-.3-.1-.7.2-1 .3-.2.5-.5.5-.7 0-.5-.1-3.3-2.8-4.8l-18-10c-.2-.1-.4-.4-.4-.6v-7.1c0-.2.1-.5.3-.6s.5-.1.7 0l24.2 13.4c3.4 1.9 3.5 5.3 3.5 6s-.5 1.6-1.3 2l-6 3.6h-.4zm-19.7-17.7 17.6 9.8c2.9 1.6 3.4 4.4 3.5 5.6l4.2-2.5c.4-.2.6-.6.6-.8 0-.5-.1-3.3-2.8-4.8l-23.2-12.8v5.5zm-7.599-2.8h-.3l-4.8-2.7c-.2-.1-.4-.4-.4-.6v-7.1c0-.2.1-.5.3-.6s.5-.1.7 0l4.8 2.7c.2.1.4.4.4.6v7.1c0 .2-.1.5-.3.6zm-4.2-3.8 3.4 1.9v-5.5l-3.4-1.9z"/>
    <path fill="#fff" d="M464.301 299.6c-.5 0-1.1-.2-1.7-.5l-18-10c-.2-.1-.4-.4-.4-.6v-6.6c0-.2.1-.5.3-.6s.5-.1.7 0l18 10c3.4 1.9 3.5 5.3 3.5 6s-.4 1.4-1.1 1.8c-.4.3-.9.4-1.5.4zm-18.6-11.4 17.6 9.8c.6.4 1.2.4 1.7 0 .3-.2.5-.5.5-.7 0-.5-.1-3.3-2.8-4.8l-17-9.4zm-7.599-2.801h-.3l-4.8-2.7c-.2-.1-.4-.4-.4-.6v-6.6c0-.2.1-.5.3-.6s.5-.1.7 0l4.8 2.7c.2.1.4.4.4.6v6.6c0 .2-.1.5-.3.6zm-4.2-3.8 3.4 1.9v-5l-3.4-1.9z"/>
    <path fill="#fff" d="M465.401 313.198c-.2 0-.5-.1-.6-.3-.2-.3-.1-.7.2-1 .3-.2.5-.5.5-.7 0-.5-.1-3.3-2.8-4.8l-18-10c-.2-.1-.4-.4-.4-.6v-7.1c0-.2.1-.5.3-.6s.5-.1.7 0l24.2 13.4c3.4 1.9 3.5 5.3 3.5 6s-.5 1.6-1.3 2l-6 3.6h-.4zm-19.7-17.7 17.6 9.8c2.9 1.6 3.4 4.4 3.5 5.6l4.2-2.5c.4-.2.6-.6.6-.8 0-.5-.1-3.3-2.8-4.8l-23.2-12.8v5.5zm-7.599-2.698h-.3l-4.8-2.7c-.2-.1-.4-.4-.4-.6v-7.1c0-.2.1-.5.3-.6s.5-.1.7 0l4.8 2.7c.2.1.4.4.4.6v7.1c0 .2-.1.5-.3.6zm-4.2-3.8 3.4 1.9v-5.5l-3.4-1.9z"/>
    <path fill="#fff" d="M464.301 313.5c-.5 0-1.1-.2-1.7-.5l-18-10c-.2-.1-.4-.4-.4-.6v-6.6c0-.2.1-.5.3-.6s.5-.1.7 0l18 10c3.4 1.9 3.5 5.3 3.5 6s-.4 1.4-1.1 1.8c-.4.3-.9.4-1.5.4zm-18.6-11.4 17.6 9.8c.6.4 1.2.4 1.7 0 .3-.2.5-.5.5-.7 0-.5-.1-3.3-2.8-4.8l-17-9.4zm-7.599-2.701h-.3l-4.8-2.7c-.2-.1-.4-.4-.4-.6v-6.6c0-.2.1-.5.3-.6s.5-.1.7 0l4.8 2.7c.2.1.4.4.4.6v6.6c0 .2-.1.5-.3.6zm-4.2-3.8 3.4 1.9v-5l-3.4-1.9z"/>
    <path fill="#fff" d="M465.401 327.099c-.2 0-.5-.1-.6-.3-.2-.3-.1-.7.2-1 .3-.2.5-.5.5-.7 0-.5-.1-3.3-2.8-4.8l-18-10c-.2-.1-.4-.4-.4-.6v-7.1c0-.2.1-.5.3-.6s.5-.1.7 0l24.2 13.4c3.4 1.9 3.5 5.3 3.5 6s-.5 1.6-1.3 2l-6 3.6h-.4zm-19.7-17.7 17.6 9.8c2.9 1.6 3.4 4.4 3.5 5.6l4.2-2.5c.4-.2.6-.6.6-.8 0-.5-.1-3.3-2.8-4.8l-23.2-12.8v5.5zm-7.599-2.699h-.3l-4.8-2.7c-.2-.1-.4-.4-.4-.6v-7.1c0-.2.1-.5.3-.6s.5-.1.7 0l4.8 2.7c.2.1.4.4.4.6v7.1c0 .2-.1.5-.3.6zm-4.2-3.8 3.4 1.9v-5.5l-3.4-1.9z"/>
    <path fill="#fff" d="M464.301 327.398c-.5 0-1.1-.2-1.7-.5l-18-10c-.2-.1-.4-.4-.4-.6v-6.6c0-.2.1-.5.3-.6s.5-.1.7 0l18 10c3.4 1.9 3.5 5.3 3.5 6s-.4 1.4-1.1 1.8c-.4.3-.9.4-1.4.4zm-18.6-11.4 17.6 9.8c.6.4 1.2.4 1.7 0 .3-.2.5-.5.5-.7 0-.5-.1-3.3-2.8-4.8l-17-9.4zm-7.599-2.698h-.3l-4.8-2.7c-.2-.1-.4-.4-.4-.6v-6.6c0-.2.1-.5.3-.6s.5-.1.7 0l4.8 2.7c.2.1.4.4.4.6v6.6c0 .2-.1.5-.3.6zm-4.2-3.8 3.4 1.9v-5l-3.4-1.9z"/>
    <path fill="#fff" d="M465.401 340.9c-.2 0-.5-.1-.6-.3-.2-.3-.1-.7.2-1 .3-.2.5-.5.5-.7 0-.5-.1-3.3-2.8-4.8l-18-10c-.2-.1-.4-.4-.4-.6v-7.1c0-.2.1-.5.3-.6s.5-.1.7 0l24.2 13.4c3.4 1.9 3.5 5.3 3.5 6s-.5 1.6-1.3 2l-6 3.6h-.4zm-19.7-17.8 17.6 9.8c2.9 1.6 3.4 4.4 3.5 5.6l4.2-2.5c.4-.2.6-.6.6-.8 0-.5-.1-3.3-2.8-4.8l-23.2-12.8v5.5zm-7.599-2.701h-.3l-4.8-2.7c-.2-.1-.4-.4-.4-.6v-7.1c0-.2.1-.5.3-.6s.5-.1.7 0l4.8 2.7c.2.1.4.4.4.6v7.1c0 .2-.1.5-.3.6zm-4.2-3.8 3.4 1.9v-5.5l-3.4-1.9z"/>
    <path fill="#fff" d="M464.301 341.199c-.5 0-1.1-.2-1.7-.5l-18-10c-.2-.1-.4-.4-.4-.6v-6.6c0-.2.1-.5.3-.6s.5-.1.7 0l18 10c3.4 1.9 3.5 5.3 3.5 6s-.4 1.4-1.1 1.8c-.4.3-.9.4-1.5.4zm-18.6-11.5 17.6 9.8c.6.4 1.2.4 1.7 0 .3-.2.5-.5.5-.7 0-.5-.1-3.3-2.8-4.8l-17-9.4zm-7.599-2.7h-.3l-4.8-2.7c-.2-.1-.4-.4-.4-.6v-6.6c0-.2.1-.5.3-.6s.5-.1.7 0l4.8 2.7c.2.1.4.4.4.6v6.6c0 .2-.1.5-.3.6zm-4.2-3.8 3.4 1.9v-5l-3.4-1.9z"/>
    <path fill="#fff" d="M465.401 354.8c-.2 0-.5-.1-.6-.3-.2-.3-.1-.7.2-1 .3-.2.5-.5.5-.7 0-.5-.1-3.3-2.8-4.8l-18-10c-.2-.1-.4-.4-.4-.6v-7.1c0-.2.1-.5.3-.6s.5-.1.7 0l24.2 13.4c3.4 1.9 3.5 5.3 3.5 6s-.5 1.6-1.3 2l-6 3.6h-.4zm-19.7-17.8 17.6 9.8c2.9 1.6 3.4 4.4 3.5 5.6l4.2-2.5c.4-.2.6-.6.6-.8 0-.5-.1-3.3-2.8-4.8l-23.2-12.8v5.5zm-7.599-2.7h-.3l-4.8-2.7c-.2-.1-.4-.4-.4-.6v-7.1c0-.2.1-.5.3-.6s.5-.1.7 0l4.8 2.7c.2.1.4.4.4.6v7.1c0 .2-.1.5-.3.6zm-4.2-3.8 3.4 1.9v-5.5l-3.4-1.9z"/>
    <path fill="#fff" d="M464.301 355.1c-.5 0-1.1-.2-1.7-.5l-18-10c-.2-.1-.4-.4-.4-.6v-6.6c0-.2.1-.5.3-.6s.5-.1.7 0l18 10c3.4 1.9 3.5 5.3 3.5 6s-.4 1.4-1.1 1.8c-.4.3-.9.4-1.5.4zm-18.6-11.5 17.6 9.8c.6.4 1.2.4 1.7 0 .3-.2.5-.5.5-.7 0-.5-.1-3.3-2.8-4.8l-17-9.4zm-7.599-2.701h-.3l-4.8-2.7c-.2-.1-.4-.4-.4-.6v-6.6c0-.2.1-.5.3-.6s.5-.1.7 0l4.8 2.7c.2.1.4.4.4.6v6.6c0 .2-.1.5-.3.6zm-4.2-3.8 3.4 1.9v-5l-3.4-1.9z"/>
    <path fill="#fff" d="M465.401 368.698c-.2 0-.5-.1-.6-.3-.2-.3-.1-.7.2-1 .3-.2.5-.5.5-.7 0-.5-.1-3.3-2.8-4.8l-18-10c-.2-.1-.4-.4-.4-.6v-7.1c0-.2.1-.5.3-.6s.5-.1.7 0l24.2 13.4c3.4 1.9 3.5 5.3 3.5 6s-.5 1.6-1.3 2l-6 3.6h-.4zm-19.7-17.7 17.6 9.8c2.9 1.6 3.4 4.4 3.5 5.6l4.2-2.5c.4-.2.6-.6.6-.8 0-.5-.1-3.3-2.8-4.8l-23.2-12.8v5.5zm-7.599-2.698h-.3l-4.8-2.7c-.2-.1-.4-.4-.4-.6v-7.1c0-.2.1-.5.3-.6s.5-.1.7 0l4.8 2.7c.2.1.4.4.4.6v7.1c0 .2-.1.5-.3.6zm-4.2-3.8 3.4 1.9v-5.5l-3.4-1.9z"/>
    <path fill="#fff" d="M464.301 369c-.5 0-1.1-.2-1.7-.5l-18-10c-.2-.1-.4-.4-.4-.6v-6.6c0-.2.1-.5.3-.6s.5-.1.7 0l18 10c3.4 1.9 3.5 5.3 3.5 6s-.4 1.4-1.1 1.8c-.4.3-.9.4-1.4.4zm-18.6-11.4 17.6 9.8c.6.4 1.2.4 1.7 0 .3-.2.5-.5.5-.7 0-.5-.1-3.3-2.8-4.8l-17-9.4z"/>
    <path fill="#fff" d="M274.001 495.6h-.3c-.2-.1-.4-.4-.4-.6V290.7c0-.2.1-.5.3-.6l171-100.5h.4c.4 0 .7.3.7.7v204.3c0 .2-.1.5-.3.6l-171 100.5h-.4zm.7-204.6v202.7l169.6-99.7V191.3l-46.5 27.3zm6.2 187.8h-.4c-.2-.1-.3-.4-.3-.6V296.5c0-.3.1-.5.4-.6l122.6-69.8.8-.5s.2-.1.3-.2h.2l31.7-18c.2-.1.5-.1.7 0l1.6.9c.2.1.4.4.4.6v179.8c0 .3-.1.5-.4.6l-157.1 89.4h-.3zm.7-182.1v180.1l155.7-88.6V209.1l-.9-.5-31.4 17.9h-.4l-.8.5-122.3 69.6z"/>
    <path fill="#fff" d="M438.102 354.899h-.3l-4.8-2.7c-.2-.1-.4-.4-.4-.6v-6.6c0-.2.1-.5.3-.6s.5-.1.7 0l4.8 2.7c.2.1.4.4.4.6v6.6c0 .2-.1.5-.3.6zm-4.2-3.8 3.4 1.9v-5l-3.4-1.9z"/>
    <path fill="#fff" d="M280.901 473.6h-.4c-.2-.1-.3-.4-.3-.6V296.4c0-.3.1-.5.4-.6l152.3-86.6c.2-.1.5-.1.7 0s.3.4.3.6v176.6c0 .3-.1.5-.4.6l-152.3 86.6zm.7-176.8v174.9l150.9-85.8V211l-28.6 16.3-122.3 69.6zm108.201-163.7c-.2 0-.5-.1-.6-.3-.2-.3-.1-.7.2-1 .3-.2.5-.5.5-.7 0-.5-.1-3.3-2.8-4.8l-11.3-6.3c-.2-.1-.3-.3-.4-.5-.4-2.8-1.1-5.5-2.3-8.2-.1-.3 0-.6.2-.8s.5-.2.8 0l19.9 11c3.4 1.9 3.5 5.3 3.5 6s-.5 1.6-1.3 2l-6 3.6zm-13.1-14.1 11 6.1c2.9 1.6 3.4 4.4 3.5 5.6l4.2-2.5c.4-.2.6-.6.6-.8 0-.5-.1-3.3-2.8-4.8l-18.2-10.1c.8 2.1 1.3 4.3 1.6 6.4z"/>
    <path fill="#fff" d="M388.701 133.4c-.5 0-1.1-.2-1.7-.5l-11.1-6.1c-.2-.1-.4-.4-.4-.6v-2.7c0-1.3 0-2.6-.3-3.9 0-.3 0-.5.3-.7s.5-.2.7 0l11.3 6.3c3.4 1.9 3.5 5.3 3.5 6s-.4 1.4-1.1 1.8c-.4.3-.9.4-1.5.4zm-11.7-7.6 10.7 5.9c.6.4 1.2.4 1.7 0 .3-.2.5-.5.5-.7 0-.5-.1-3.3-2.8-4.8l-10.1-5.6c0 .9.1 1.9.1 2.8v2.3z"/>
    <path fill="#fff" d="M389.802 147c-.2 0-.5-.1-.6-.3-.2-.3-.1-.7.2-1 .3-.2.5-.5.5-.7 0-.5-.1-3.3-2.8-4.8l-11.1-6.1c-.2-.1-.4-.4-.4-.6v-7.1c0-.2.1-.5.3-.6s.5-.1.7 0l17.3 9.6c3.4 1.9 3.5 5.3 3.5 6s-.5 1.6-1.3 2l-6 3.6h-.4zm-12.8-13.9 10.7 5.9c2.9 1.6 3.4 4.4 3.5 5.6l4.2-2.5c.4-.2.6-.6.6-.8 0-.5-.1-3.3-2.8-4.8l-16.2-9z"/>
    <path fill="#fff" d="M388.7 147.3c-.5 0-1.1-.2-1.7-.5l-11.2-6.2c-.2-.1-.4-.4-.4-.7 0-.9.1-1.6.1-2.3v-4.2c0-.2.1-.5.3-.6s.5-.1.7 0l11.1 6.1c3.4 1.9 3.5 5.3 3.5 6s-.4 1.4-1.1 1.8c-.4.3-.9.4-1.5.4zm-11.8-7.6 10.8 6c.6.4 1.2.4 1.7 0 .3-.2.5-.5.5-.7 0-.5-.1-3.3-2.8-4.8l-10-5.5v5z"/>
    <path fill="#fff" d="M389.801 160.899c-.2 0-.5-.1-.6-.3-.2-.3-.1-.7.2-1 .3-.2.5-.5.5-.7 0-.5-.1-3.3-2.8-4.8l-12.4-6.9c-.3-.2-.4-.5-.3-.8q.9-3.15 1.2-6.3c0-.2.2-.4.4-.6.2-.1.5-.1.7 0l17.4 9.6c3.4 1.9 3.5 5.3 3.5 6s-.5 1.6-1.3 2l-6 3.6h-.4zm-2.1-8c2.9 1.6 3.4 4.4 3.5 5.6l4.2-2.5c.4-.2.6-.6.6-.8 0-.5-.1-3.3-2.8-4.8l-16.5-9.1c-.2 1.7-.5 3.3-1 4.9l11.9 6.6z"/>
    <path fill="#fff" d="M389.7 160.999h-.3l-16.6-8.9c-.3-.2-.5-.6-.3-.9.7-1.5 1.3-3 1.8-4.6 0-.2.2-.4.4-.4h.6l12.4 6.9c3.4 1.9 3.5 5.3 3.5 6s-.4 1.4-1.1 1.8c-.1 0-.2.1-.4.1m-15.7-10 15.6 8.4c.1-.2.2-.3.2-.5 0-.5-.1-3.3-2.8-4.8l-11.7-6.5c-.4 1.1-.8 2.2-1.3 3.3z"/>
    <path fill="#fff" d="M274 291.299h-.3l-178.3-96.2c-.2-.1-.4-.4-.4-.6q0-.45.3-.6l78-45.9q.3-.15.6 0c.2 0 .3.2.4.4 1 2.6 2.3 5.2 4 7.7.1.2.1.4.1.5s-.2.4-.3.4l-63.3 37.2 158.8 85.6 152.2-89.5-57.6-31c-.2 0-.3-.3-.4-.5s0-.4.1-.6q2.7-3.6 4.5-7.2c0-.2.2-.3.4-.4h.5l71.9 38.8c.2.1.4.4.4.6s-.1.5-.3.6l-47.5 27.9-123.4 72.5h-.4zm-176.9-96.9 176.9 95.4 123.1-72.4 46.4-27.3-70.1-37.8c-1 2.1-2.3 4.1-3.8 6.1l57.9 31.2c.2.1.4.4.4.6q0 .45-.3.6l-153.6 90.3c-.2.1-.5.1-.7 0l-160.2-86.4c-.2-.1-.4-.4-.4-.6q0-.45.3-.6l63.7-37.5c-1.4-2.2-2.5-4.4-3.4-6.6l-76.3 44.8z"/>
    <path fill="#fff" d="M422.202 194h-.3l-17-9.2-39.9-21.5c-.2-.1-.3-.3-.4-.5 0-.2 0-.4.2-.6 1.2-1.2 2.3-2.5 3.3-3.8.2-.3.6-.4.9-.2l58.7 31.6c.2.1.4.4.4.6q0 .45-.3.6l-5 3zm-16.7-10.5 16.7 9 3.6-2.1-57-30.8c-.7 1-1.5 1.9-2.4 2.8zm-287.101 14.098h-.3l-5-2.7c-.2-.1-.4-.4-.4-.6q0-.45.3-.6l64.4-37.8h.4c.2 0 .5.1.6.3.9 1.3 1.9 2.6 2.9 3.9.1.2.2.4.2.6s-.2.4-.3.5l-62.3 36.6h-.4zm-3.6-3.4 3.6 1.9 61.2-36c-.7-.9-1.4-1.8-2.1-2.8zm30.599 134.9c-.2 0-.5-.1-.6-.3-.2-.3-.1-.7.2-1 .3-.2.5-.5.5-.7 0-.5-.1-3.3-2.8-4.8l-61.9-34.3c-.7-.4-1.4-.5-1.9-.3-.3.1-.7 0-.9-.3s0-.7.3-.9l5.8-3.5s.2-.1.3-.2c.9-.4 2.1-.3 3.3.4l61.9 34.3c3.4 1.9 3.5 5.3 3.5 6s-.5 1.6-1.3 2l-6 3.6zm-63.9-42.2 61.9 34.2c2.9 1.6 3.4 4.4 3.5 5.6l4.2-2.5c.4-.2.6-.6.6-.8 0-.5-.1-3.3-2.8-4.8l-61.9-34.3c-.8-.4-1.5-.6-2-.3h-.1l-4 2.4c.2 0 .4.2.6.3z"/>
    <path fill="#fff" d="M144.4 329.498c-.5 0-1.1-.2-1.7-.5l-32.5-18-29.3-16.2c-2.4-1.5-4-3.8-4-5.8s.3-1.6.9-2h.1l.5-.3h.1c.6-.2 1.7-.4 3.1.4l61.9 34.3c3.4 1.9 3.5 5.3 3.5 6s-.4 1.4-1.1 1.8c-.4.3-.9.4-1.5.4zm-33.5-19.7 32.5 18c.6.4 1.2.4 1.7 0 .3-.2.5-.5.5-.7 0-.5-.1-3.3-2.8-4.8l-61.9-34.3c-.7-.4-1.4-.5-1.9-.4l-.4.2c-.2.2-.3.6-.3 1 0 1.3 1 3.2 3.3 4.6l29.4 16.2z"/>
    <path fill="#fff" d="M145.4 342.999c-.2 0-.5-.1-.6-.3-.2-.3-.1-.8.2-1s.5-.5.5-.7c0-.5-.1-3.3-2.8-4.8l-61.9-34.3c-.7-.4-1.4-.5-1.9-.3-.3.1-.7 0-.9-.3s0-.7.3-.9l5.8-3.5s.2-.1.3-.2c.9-.4 2.1-.3 3.3.4l61.9 34.3c3.4 1.9 3.5 5.3 3.5 6s-.5 1.6-1.3 2l-6 3.6zm-63.9-42.2 61.9 34.2c2.9 1.6 3.4 4.4 3.5 5.6l4.2-2.5c.4-.2.6-.6.6-.8 0-.5-.1-3.3-2.8-4.8l-61.9-34.3c-.8-.4-1.5-.6-2-.3h-.1l-4 2.4c.2 0 .4.2.6.3z"/>
    <path fill="#fff" d="M144.4 343.399c-.5 0-1.1-.2-1.7-.5l-32.5-18-29.3-16.2c-2.4-1.5-4-3.8-4-5.8s.3-1.6.9-2h.1l.5-.3h.1c.6-.2 1.7-.4 3.1.4l61.9 34.3c3.4 1.9 3.5 5.3 3.5 6s-.4 1.4-1.1 1.8c-.4.3-.9.4-1.4.4zm-33.5-19.7 32.5 18c.6.4 1.2.4 1.7 0 .3-.2.5-.5.5-.7 0-.5-.1-3.3-2.8-4.8l-61.9-34.3c-.7-.4-1.4-.5-1.9-.4l-.4.2c-.2.2-.3.6-.3 1 0 1.3 1 3.2 3.3 4.6l29.4 16.2z"/>
    <path fill="#fff" d="M145.4 356.999c-.2 0-.5-.1-.6-.3-.2-.3-.1-.8.2-1s.5-.5.5-.7c0-.5-.1-3.3-2.8-4.8l-61.9-34.3c-.7-.4-1.4-.5-1.9-.3-.3.1-.7 0-.9-.3s0-.7.3-.9l5.8-3.5s.2-.1.3-.2c.9-.4 2.1-.3 3.3.4l61.9 34.3c3.4 1.9 3.5 5.3 3.5 6s-.5 1.6-1.3 2l-6 3.6zm-63.9-42.3 61.9 34.2c2.9 1.6 3.4 4.4 3.5 5.6l4.2-2.5c.4-.2.6-.6.6-.8 0-.5-.1-3.3-2.8-4.8l-61.9-34.3c-.8-.4-1.5-.6-2-.3h-.1l-4 2.4c.2 0 .4.2.6.3z"/>
    <path fill="#fff" d="M144.4 357.299c-.5 0-1.1-.2-1.7-.5l-32.5-18-29.3-16.2c-2.4-1.5-4-3.8-4-5.8s.3-1.6.9-2h.1l.5-.3h.1c.6-.2 1.7-.4 3.1.4l61.9 34.3c3.4 1.9 3.5 5.3 3.5 6s-.4 1.4-1.1 1.8c-.4.3-.9.4-1.5.4zm-33.5-19.7 32.5 18c.6.4 1.2.4 1.7 0 .3-.2.5-.5.5-.7 0-.5-.1-3.3-2.8-4.8l-61.9-34.3c-.7-.4-1.4-.5-1.9-.4l-.4.2c-.2.2-.3.6-.3 1 0 1.3 1 3.2 3.3 4.6l29.4 16.2z"/>
    <path fill="#fff" d="M145.4 370.899c-.2 0-.5-.1-.6-.3-.2-.3-.1-.8.2-1s.5-.5.5-.7c0-.5-.1-3.3-2.8-4.8l-61.9-34.3c-.7-.4-1.4-.5-1.9-.3-.3.1-.7 0-.9-.3s0-.7.3-.9l5.8-3.5s.2-.1.3-.2c.9-.4 2.1-.3 3.3.4l61.9 34.3c3.4 1.9 3.5 5.3 3.5 6s-.5 1.6-1.3 2l-6 3.6zm-63.9-42.3 61.9 34.2c2.9 1.6 3.4 4.4 3.5 5.6l4.2-2.5c.4-.2.6-.6.6-.8 0-.5-.1-3.3-2.8-4.8l-61.9-34.3c-.8-.4-1.5-.6-2-.3h-.1l-4 2.4c.2 0 .4.2.6.3z"/>
    <path fill="#fff" d="M144.4 371.2c-.5 0-1.1-.2-1.7-.5l-32.5-18-29.3-16.2c-2.4-1.5-4-3.8-4-5.8s.3-1.6.9-2h.1l.5-.3h.1c.6-.2 1.7-.4 3.1.4l61.9 34.3c3.4 1.9 3.5 5.3 3.5 6s-.4 1.4-1.1 1.8c-.4.3-.9.4-1.5.4zm-33.5-19.7 32.5 18c.6.4 1.2.4 1.7 0 .3-.2.5-.5.5-.7 0-.5-.1-3.3-2.8-4.8l-61.9-34.3c-.7-.4-1.4-.5-1.9-.4l-.4.2c-.2.2-.3.6-.3 1 0 1.3 1 3.2 3.3 4.6l29.4 16.2z"/>
    <path fill="#fff" d="M145.4 384.598c-.2 0-.5-.1-.6-.3-.2-.3-.1-.8.2-1s.5-.5.5-.7c0-.5-.1-3.3-2.8-4.8l-61.9-34.3c-.7-.4-1.4-.5-1.9-.3-.3.1-.7 0-.9-.3s0-.7.3-.9l5.8-3.5s.2-.1.3-.2c.9-.4 2.1-.3 3.3.4l61.9 34.3c3.4 1.9 3.5 5.3 3.5 6s-.5 1.6-1.3 2l-6 3.6zm-63.9-42.2 61.9 34.2c2.9 1.6 3.4 4.4 3.5 5.6l4.2-2.5c.4-.2.6-.6.6-.8 0-.5-.1-3.3-2.8-4.8l-61.9-34.3c-.8-.4-1.5-.6-2-.3h-.1l-4 2.4c.2 0 .4.2.6.3z"/>
    <path fill="#fff" d="M144.4 384.899c-.5 0-1.1-.2-1.7-.5l-32.5-18-29.3-16.2c-2.4-1.5-4-3.8-4-5.8s.3-1.6.9-2h.1l.5-.3h.1c.6-.2 1.7-.4 3.1.4l61.9 34.3c3.4 1.9 3.5 5.3 3.5 6s-.4 1.4-1.1 1.8c-.4.3-.9.4-1.5.4zm-33.5-19.6 32.5 18c.6.4 1.2.4 1.7 0 .3-.2.5-.5.5-.7 0-.5-.1-3.3-2.8-4.8l-61.9-34.3c-.7-.4-1.4-.5-1.9-.4l-.4.2c-.2.2-.3.6-.3 1 0 1.3 1 3.2 3.3 4.6l29.4 16.2z"/>
    <path fill="#fff" d="M145.4 398.499c-.2 0-.5-.1-.6-.3-.2-.3-.1-.8.2-1s.5-.5.5-.7c0-.5-.1-3.3-2.8-4.8l-61.9-34.3c-.7-.4-1.4-.5-1.9-.3-.3.1-.7 0-.9-.3s0-.7.3-.9l5.8-3.5s.2-.1.3-.2c.9-.4 2.1-.3 3.3.4l61.9 34.3c3.4 1.9 3.5 5.3 3.5 6s-.5 1.6-1.3 2l-6 3.6zm-63.9-42.2 61.9 34.2c2.9 1.6 3.4 4.4 3.5 5.6l4.2-2.5c.4-.2.6-.6.6-.8 0-.5-.1-3.3-2.8-4.8l-61.9-34.3c-.8-.4-1.5-.6-2-.3h-.1l-4 2.4c.2 0 .4.2.6.3z"/>
    <path fill="#fff" d="M144.4 398.899c-.5 0-1.1-.2-1.7-.5l-32.5-18-29.3-16.2c-2.4-1.5-4-3.8-4-5.8s.3-1.6.9-2h.1l.5-.3h.1c.6-.2 1.7-.4 3.1.4l61.9 34.3c3.4 1.9 3.5 5.3 3.5 6s-.4 1.4-1.1 1.8c-.4.3-.9.4-1.5.4zm-33.5-19.7 32.5 18c.6.4 1.2.4 1.7 0 .3-.2.5-.5.5-.7 0-.5-.1-3.3-2.8-4.8l-61.9-34.3c-.7-.4-1.4-.5-1.9-.4l-.4.2c-.2.2-.3.6-.3 1 0 1.3 1 3.2 3.3 4.6l29.4 16.2z"/>
    <path fill="#fff" d="M145.5 412.499c-.2 0-.5-.1-.6-.3-.2-.3-.1-.7.2-1 .3-.2.5-.5.5-.7s0-.8-.2-1.6c-.3-1-1-2.3-2.6-3.2l-61.9-34.3c-.7-.4-1.4-.5-1.9-.3-.3.1-.7 0-.9-.3s0-.7.3-.9l5.8-3.5s.2-.1.3-.2c.9-.4 2.1-.3 3.3.4l61.9 34.3c3.4 1.9 3.5 5.3 3.5 6s-.5 1.6-1.3 2l-6 3.6zm-64-42.3 61.9 34.2c2 1.1 2.9 2.8 3.2 4.1.2.6.3 1.2.3 1.6l4.2-2.5c.4-.2.6-.6.6-.8 0-.5-.1-3.3-2.8-4.8l-61.9-34.3c-.8-.4-1.5-.6-2-.3h-.1l-4 2.4c.2 0 .4.2.6.3z"/>
    <path fill="#fff" d="M144.4 412.799c-.5 0-1.1-.1-1.6-.4l-61.9-34.3c-2.4-1.5-4-3.8-4-5.8s.3-1.6.9-2h.1l.5-.3h.1c.6-.2 1.7-.4 3.1.4l61.9 34.3c2 1.1 2.9 2.8 3.2 4.1.3.9.3 1.6.3 2 0 .7-.4 1.4-1.1 1.8-.4.3-.9.4-1.5.4zm-1.1-1.7c.6.4 1.2.4 1.7 0 .3-.2.5-.5.5-.7s0-.8-.2-1.6c-.4-1.4-1.3-2.5-2.6-3.2l-61.9-34.3c-.7-.4-1.4-.5-1.9-.4l-.4.2c-.2.2-.3.6-.3 1 0 1.3 1 3.2 3.3 4.6l61.8 34.2zm2.201 15.199c-.2 0-.4 0-.6-.3s-.2-.7.1-.9c.4-.3.9 0 1.1.4 0 .3 0 .6-.3.8-.1 0-.3.1-.4.1z"/>
    <path fill="#fff" d="M145.5 426.3c-.3 0-.6-.2-.7-.5 0-.3 0-.6.3-.8s.4-.5.4-.7c0-.5-.1-3.3-2.8-4.8l-61.9-34.3c-.8-.4-1.4-.5-1.9-.4-.3.1-.7 0-.9-.3s0-.7.3-.9l5.8-3.5s.2-.1.3-.2c.9-.4 2.1-.3 3.3.4l61.9 34.3c1.3.7 2.3 1.8 2.9 3.1.5 1.2.6 2.3.6 2.8 0 .8-.5 1.6-1.3 2l-6 3.5h-.4zm-64.7-42.5c.2 0 .4.2.6.3l61.9 34.3c2.9 1.6 3.4 4.4 3.5 5.6l4.2-2.5c.4-.2.6-.5.6-.7 0-.3 0-1.2-.5-2.3s-1.3-1.9-2.3-2.5l-61.9-34.3c-.8-.4-1.5-.6-2-.3h-.1z"/>
    <path fill="#fff" d="M144.401 426.7c-.5 0-1.1-.2-1.7-.5l-61.9-34.3c-2.4-1.5-4-3.8-4-5.8s.3-1.6.9-2h.1l.5-.3h.1c.6-.2 1.7-.4 3.1.4l61.9 34.3c3.2 1.8 3.5 5.1 3.5 5.9 0 .7-.4 1.3-1 1.8h-.1c-.4.3-.9.4-1.4.4zm-65.9-41.5c-.2.2-.3.6-.3 1 0 1.3 1 3.2 3.3 4.6l61.9 34.3c.6.4 1.2.4 1.7 0 .3-.2.4-.5.5-.6 0-.5-.1-3.3-2.8-4.8l-61.9-34.3c-.7-.4-1.4-.5-1.9-.4l-.4.2z"/>
    <path fill="#fff" d="M145.5 440.099c-.2 0-.5-.1-.6-.3-.2-.3-.1-.7.2-1 .3-.2.5-.5.5-.7 0-.5-.1-3.3-2.8-4.8l-61.9-34.3c-.8-.4-1.4-.5-1.9-.4-.3.1-.7 0-.9-.3s0-.7.3-.9l5.8-3.5s.2-.1.3-.2c.9-.4 2.1-.3 3.3.4l61.9 34.3c3.4 1.9 3.5 5.3 3.5 6s-.5 1.6-1.3 2l-6 3.6h-.4zm-64.7-42.5c.2 0 .4.2.6.3l61.9 34.3c2.9 1.6 3.4 4.4 3.5 5.6l4.2-2.5c.4-.2.6-.6.6-.8 0-.5-.1-3.3-2.8-4.8l-61.9-34.3c-.8-.4-1.5-.6-2-.3h-.1l-4 2.4z"/>
    <path fill="#fff" d="M144.401 440.399c-.5 0-1.1-.2-1.7-.5l-61.9-34.3c-2.4-1.5-4-3.8-4-5.8s.3-1.6.9-2h.1l.5-.3h.1c.6-.2 1.7-.4 3.1.4l61.9 34.3c3.2 1.8 3.5 5.1 3.5 5.9 0 .7-.4 1.4-1.1 1.8-.4.3-.9.4-1.5.4zm-65.9-41.5c-.2.2-.3.6-.3 1 0 1.3 1 3.2 3.3 4.6l61.9 34.3c.6.4 1.2.4 1.7 0 .3-.2.4-.5.5-.6 0-.5-.1-3.3-2.8-4.8l-61.9-34.3c-.7-.4-1.4-.5-1.9-.4l-.4.2z"/>
    <path fill="#fff" d="M145.5 454c-.2 0-.5-.1-.6-.3-.2-.3-.1-.7.2-1 .3-.2.5-.5.5-.7 0-.5-.1-3.3-2.8-4.8l-61.9-34.3c-.8-.4-1.4-.5-1.9-.4-.3.1-.7 0-.9-.4-.2-.3 0-.7.3-.9l5.8-3.5s.2-.1.3-.2c.9-.4 2.1-.3 3.3.4l61.9 34.3c3.4 1.9 3.5 5.3 3.5 6s-.5 1.6-1.3 2l-6 3.6h-.4zm-64.7-42.5c.2 0 .4.2.6.3l61.9 34.3c2.9 1.6 3.4 4.4 3.5 5.6l4.2-2.5c.4-.2.6-.6.6-.8 0-.5-.1-3.3-2.8-4.8l-61.9-34.3c-.8-.4-1.5-.6-2-.3h-.1l-4 2.4z"/>
    <path fill="#fff" d="M144.401 454.299c-.5 0-1.1-.2-1.7-.5l-61.9-34.3c-2.4-1.5-4-3.8-4-5.8s.3-1.6.9-2h.1l.5-.3h.1c.6-.2 1.7-.3 3.1.4l61.9 34.3c3.2 1.8 3.5 5.1 3.5 5.9 0 .7-.4 1.4-1.1 1.8-.4.3-.9.4-1.5.4zm-65.9-41.5c-.2.2-.3.6-.3 1 0 1.3 1 3.2 3.3 4.6l61.9 34.3c.6.4 1.2.4 1.7 0 .3-.2.4-.5.5-.6 0-.5-.1-3.3-2.8-4.8l-61.9-34.3c-.7-.4-1.4-.5-1.9-.4l-.4.2z"/>
    <path fill="#fff" d="M145.5 467.999c-.2 0-.5-.1-.6-.3-.2-.3-.1-.7.2-1 .3-.2.5-.5.5-.7 0-.5-.1-3.3-2.8-4.8l-61.9-34.3c-.8-.4-1.4-.5-1.9-.4-.3.1-.7 0-.9-.3s0-.7.3-.9l5.8-3.5s.2-.1.3-.2c.9-.4 2.1-.3 3.3.4l61.9 34.3c3.4 1.9 3.5 5.3 3.5 6s-.5 1.6-1.3 2l-6 3.6h-.4zm-64.7-42.6c.2 0 .4.2.6.3l61.9 34.3c2.9 1.6 3.4 4.4 3.5 5.6l4.2-2.5c.4-.2.6-.6.6-.8 0-.5-.1-3.3-2.8-4.8l-61.9-34.3c-.8-.4-1.5-.6-2-.3h-.1l-4 2.4z"/>
    <path fill="#fff" d="M144.401 468.3c-.5 0-1.1-.2-1.7-.5l-61.9-34.3c-2.4-1.5-4-3.8-4-5.8s.3-1.6.9-2h.1l.5-.3h.1c.6-.2 1.7-.4 3.1.4l61.9 34.3c3.2 1.8 3.5 5.1 3.5 5.9 0 .7-.4 1.4-1.1 1.8-.4.3-.9.4-1.5.4zm-65.9-41.5c-.2.2-.3.6-.3 1 0 1.3 1 3.2 3.3 4.6l61.9 34.3c.6.4 1.2.4 1.7 0 .3-.2.4-.5.5-.6 0-.5-.1-3.3-2.8-4.8l-61.9-34.3c-.7-.4-1.4-.5-1.9-.4l-.4.2zM307.1 62.599c-.2 0-.4 0-.5-.2-.1-.1-.2-.3-.2-.5v-13.6c.2-.2.3-.5.5-.6.2-.2.5-.2.7 0 .2.1.4.4.4.6l-.2 13.6c0 .4-.3.7-.7.7M341.7 79.5h-.3c-.2-.1-.4-.4-.4-.6V70c0-.2.1-.5.3-.6l13.1-7.7c.2-.1.5-.1.7 0s.4.4.4.6v8.9c0 .2-.1.5-.3.6l-13.1 7.7zm.7-9.2v7.2l11.7-6.8v-7.2zm-75.2-1h-.3l-4.1-2c-.2-.1-.4-.4-.4-.6v-.3c.2-.3.6-.5.9-.3l4.1 2c.2.1.4.4.4.6v.3c-.1.2-.4.4-.6.4zm109.1 57.798h-.4c-.3-.2-.4-.5-.4-.8v-.2c0-.2.2-.4.4-.5s.4-.1.7 0h.1c.2.2.4.4.4.7v.2c0 .2-.1.5-.3.6z"/>
    <path fill="#fff" d="M376.3 126.899h-.4c-.2-.2-.4-.5-.4-.7 0-.9.1-1.8.1-2.6s.3-.7.7-.7.7.3.7.7v2.7c0 .2-.1.5-.3.6z"/>
    <path fill="#fff" d="M274 193.399c-40.3 0-77.2-12.8-93.8-32.7-1.1-1.3-2.1-2.6-3-4-1.7-2.6-3.1-5.3-4.1-8-1.4-3.6-2.1-7.4-2.1-11.1v-14.2c0-.4.3-.7.7-.7s.7.3.7.7c0 7.3 2.7 14.4 7.9 21.1 1.8 2.2 3.8 4.4 6.1 6.5 1.2 1.1 2.6 2.2 3.9 3.3 19 14.7 50.3 23.5 83.6 23.5s61.2-7.8 80.7-21.3c1.5-1.1 3-2.2 4.3-3.3 2.4-2 4.6-4 6.5-6.2 1.2-1.3 2.2-2.6 3.2-3.9 1.2-1.7 2.3-3.4 3.2-5.2v-.2c1-1.7 1.7-3.5 2.3-5.3.6-2.1 1.1-4.1 1.3-6.2 0-.1 0-.3.1-.4.2-.3.5-.3.8-.2h.1c.2.2.4.4.4.7v11.3c0 .7 0 1.5-.1 2.5v.2c-.2 2.2-.6 4.4-1.3 6.5q-.75 2.4-1.8 4.8c-1.2 2.5-2.8 5-4.6 7.5-1 1.3-2.2 2.7-3.4 3.9-18 19-52.3 30.4-91.8 30.4zm-101.6-60.7v4.9c0 3.6.7 7.2 2 10.6 1 2.6 2.3 5.2 4 7.7.9 1.3 1.9 2.6 2.9 3.9 16.4 19.5 52.8 32.2 92.7 32.2s73.1-11.2 90.8-29.9c1.2-1.2 2.3-2.5 3.3-3.8q2.7-3.6 4.5-7.2c.7-1.5 1.3-3 1.8-4.6q.9-3.15 1.2-6.3v-.2c0-.9.1-1.7.1-2.4v-5 .2c-.6 1.8-1.3 3.7-2.3 5.5v.2c-1 1.8-2.2 3.6-3.4 5.4-1 1.3-2.1 2.7-3.3 4-2 2.2-4.2 4.3-6.7 6.3-1.4 1.1-2.9 2.2-4.4 3.3-19.7 13.7-49.4 21.6-81.5 21.6s-65.2-8.9-84.5-23.8c-1.4-1.1-2.7-2.2-4-3.4-2.4-2.1-4.5-4.4-6.3-6.7-3.2-4.1-5.5-8.3-6.8-12.7zM244.3 76.2c-.2 0-.4 0-.5-.3-1.2-1.5-2.4-2.9-3.4-4.2-.2-.2-.2-.5-.1-.7 0-.2.3-.4.5-.4 3.5-.6 7.1-1.2 10.7-1.6h.4l6.4 3.1c.3.1.4.4.4.7s-.3.5-.6.6q-7.05.9-13.5 2.7h-.2zm-2.1-4.3c.8.9 1.5 1.9 2.4 2.9 3.5-.9 7.2-1.7 11-2.2l-4.1-2c-3.1.4-6.2.8-9.2 1.4z"/>
    <path fill="#fff" d="M274 179.198c-33.6 0-65.2-8.9-84.5-23.8-1.4-1.1-2.7-2.2-4-3.4-2.4-2.1-4.5-4.4-6.3-6.7-5.5-6.9-8.2-14.3-8.2-21.9 0-20.9 21.3-39.9 55.6-49.5.3 0 .6 0 .7.2.7.8 2.3 2.8 4.5 5.5.1.2.2.4.1.6s-.2.4-.4.5c-15.2 6.8-23.9 16.7-23.9 27.1v14.4c0 2 .3 3.9.9 5.9.8 2.6 2.2 5.1 4.1 7.5q1.35 1.8 3.3 3.6c11.7 11.3 34 18.3 58 18.3s42.1-5.7 54.5-15.2c1.4-1.1 2.8-2.2 4-3.4 2.2-2.1 3.9-4.4 5.2-6.8.9-1.6 1.5-3.2 2-4.9s.7-3.4.7-5v-15.6c-.2-2.5-.8-5.1-2-7.5-1.9-4-5.1-7.8-9.6-11.3-4.6-3.6-10.4-6.7-17.1-9.2-.3-.1-.5-.5-.4-.8 0-.3.4-.6.7-.6l21.4.5h.2c20.7 7.9 35.2 19.6 40.9 32.8 1.2 2.8 2 5.7 2.4 8.5.2 1.4.3 2.7.3 4.1s0 1.8-.1 2.7v.2c-.2 2.1-.7 4.3-1.4 6.5-.6 1.8-1.3 3.7-2.3 5.5v.2c-1 1.8-2.2 3.7-3.4 5.4-1 1.4-2.1 2.7-3.3 4-2 2.2-4.2 4.3-6.7 6.3-1.4 1.1-2.9 2.3-4.4 3.3-19.7 13.7-49.4 21.6-81.5 21.6zm-47.4-103.8c-33.4 9.5-54.2 27.9-54.2 48s2.7 14.4 7.9 21.1c1.8 2.2 3.8 4.4 6.1 6.5l3.9 3.3c19 14.7 50.3 23.5 83.6 23.5s61.2-7.8 80.7-21.3c1.5-1.1 3-2.2 4.3-3.3 2.4-2 4.6-4 6.5-6.2 1.2-1.3 2.2-2.6 3.2-3.9 1.2-1.7 2.3-3.4 3.2-5.2v-.2c1-1.7 1.7-3.5 2.3-5.3.7-2.1 1.1-4.2 1.3-6.2v-.2c0-.9.1-1.8.1-2.6 0-1.3 0-2.6-.3-3.9-.4-2.8-1.1-5.5-2.3-8.2-5.5-12.9-19.7-24.3-40-32l-17.4-.4c5.3 2.2 10 4.9 13.8 7.9 4.6 3.6 8 7.6 10 11.8 1.2 2.6 1.9 5.3 2.1 8v15.6c0 1.8-.2 3.6-.7 5.4-.5 1.7-1.2 3.5-2.1 5.2-1.4 2.5-3.2 4.8-5.4 7.1-1.2 1.2-2.6 2.4-4.1 3.6-12.7 9.7-33.4 15.5-55.3 15.5s-47-7.2-59-18.7c-1.3-1.2-2.4-2.5-3.4-3.8-2-2.5-3.4-5.2-4.3-8-.7-2.1-1-4.2-1-6.3v-14.4c0-10.9 8.7-21 23.9-28-1.6-2-2.9-3.5-3.6-4.4z"/>
    <path fill="#fff" d="M311.6 78.699h-.3l-4.4-2.1c-.3-.1-.4-.4-.4-.6v-.3c.2-.3.6-.5.9-.3l4.4 2.1c.3.1.4.4.4.6v.3c-.1.2-.4.4-.6.4z"/>
    <path fill="#fff" d="m341.7 79.5-29.9-.7h-.3s-.1 0-.2-.1l-4.4-2.1c-.2-.1-.4-.4-.4-.6v-6.8c0-.4.3-.7.7-.7l34.5.8c.4 0 .7.3.7.7v8.9c0 .2 0 .4-.2.5-.1.1-.3.2-.5.2zM312 77.4l29 .7v-7.4l-33.1-.7v5.6l4 1.9zm-37.998-4.901h-.3l-6.7-3.3c-.2-.1-.4-.4-.4-.6v-.3c.2-.3.6-.5.9-.3l6.7 3.3c.2.1.4.4.4.6v.3c-.1.2-.4.4-.6.4zm-.001 86.499c-24.4 0-47-7.2-59-18.7-1.3-1.2-2.4-2.5-3.4-3.8-2-2.6-3.4-5.2-4.3-8-.7-2.1-1-4.2-1-6.3v-14.4c0-.4.3-.7.7-.7s.7.3.7.7c0 5.7 2.5 11.1 7.4 16.2 2 2.1 4.4 4 7.1 5.9 1.5 1 3.1 2 4.7 2.8 12.6 6.8 29.3 10.5 47.1 10.5s29.9-2.8 41.7-7.9c1.9-.8 3.8-1.7 5.5-2.6 3-1.6 5.7-3.4 8.1-5.3q2.25-1.8 4.2-3.9c1.5-1.6 2.7-3.2 3.7-4.9v-.2q1.65-2.55 2.4-5.1c.5-1.8.8-3.6.8-5.5s.3-.7.7-.7.7.3.7.7v14.4c0 1.8-.2 3.6-.7 5.4-.5 1.7-1.2 3.5-2.1 5.2-1.4 2.5-3.2 4.8-5.4 7.1-1.2 1.2-2.6 2.4-4.1 3.6-12.7 9.7-33.4 15.5-55.3 15.5zm-66.3-43.7v7c0 2 .3 4 .9 5.9.8 2.6 2.2 5.1 4.1 7.5q1.5 1.8 3.3 3.6c11.7 11.3 34 18.3 58 18.3s42.1-5.7 54.5-15.2c1.4-1.1 2.8-2.3 4-3.4 2.2-2.1 3.9-4.4 5.2-6.8.9-1.6 1.5-3.2 2-4.9s.7-3.4.7-5v-6.9c-.5 1.3-1.1 2.6-1.9 3.8-1.1 1.9-2.4 3.6-3.9 5.3-1.3 1.4-2.7 2.7-4.3 4-2.4 2-5.2 3.8-8.3 5.4-1.8 1-3.6 1.9-5.6 2.7-12.1 5.2-26.7 8-42.3 8s-35-3.8-47.8-10.7c-1.7-.9-3.3-1.9-4.8-2.9-2.8-1.9-5.3-3.9-7.4-6-2.9-3-5.1-6.3-6.4-9.7"/>
    <path fill="#fff" d="M311.8 78.798h-.5c-.3-.2-.4-.4-.4-.7v-.3c.2-.4.6-.5.9-.3h.2c.3.2.4.4.4.7v.3c-.1.3-.4.4-.6.4z"/>
    <path fill="#fff" d="M274.001 144.599c-18 0-35-3.8-47.8-10.7-1.7-.9-3.3-1.9-4.8-2.9-2.8-1.9-5.3-3.9-7.4-6-5.1-5.2-7.8-11.2-7.8-17.1 0-11.1 9-21.4 24.7-28.4.3-.1.6 0 .8.2 4.4 5.4 11.2 13.7 17.4 21.3l15 18.3c1.9 2.3 4.5 1.9 5.8 1.5.6-.2 2-.7 2-1.6v-8c0-.4-.2-.9-.6-1.4-.3-.4-1.8-2.1-3.9-4.7l-.4-.5c-1.7-2-3.7-4.5-5.9-7.2l-7.2-8.7c-3.5-4.3-7.1-8.7-10.3-12.5-.2-.2-.2-.4-.1-.7 0-.2.3-.4.5-.5 4.3-1.2 8.9-2.1 13.7-2.7h.4l51 24.8 10.7-6.2v-8l-8.3-4c-.3-.1-.5-.5-.4-.8 0-.4.6-.6 1-.5 6.9 2.5 12.7 5.7 17.5 9.4 4.6 3.6 8 7.5 10 11.8 1.2 2.6 1.9 5.3 2.1 8v1.2c0 2-.3 3.9-.8 5.8s-1.4 3.7-2.4 5.5c-1.1 1.9-2.4 3.6-3.9 5.3-1.3 1.4-2.7 2.7-4.3 4-2.4 2-5.2 3.8-8.3 5.4-1.7.9-3.6 1.9-5.6 2.7-12.1 5.2-26.7 8-42.3 8zm-42.9-63.6c-14.9 6.8-23.4 16.5-23.4 26.9s2.5 11.1 7.4 16.2c2 2.1 4.4 4 7.1 5.9 1.5 1 3.1 1.9 4.7 2.8 12.6 6.8 29.3 10.5 47.1 10.5s29.9-2.8 41.7-7.9c1.9-.8 3.8-1.7 5.5-2.6 3-1.6 5.7-3.4 8.1-5.3q2.25-1.8 4.2-3.9c1.5-1.6 2.7-3.2 3.7-4.9 0 0 0-.2.1-.2 1-1.7 1.8-3.4 2.3-5.1.5-1.8.8-3.6.8-5.5v-1.2c-.2-2.5-.8-5-2-7.5-1.9-4-5.1-7.8-9.6-11.3-2.2-1.7-4.7-3.4-7.5-4.8v8.1c0 .2-.1.5-.3.6l-11.3 6.6c-.2.1-.4.1-.7 0l-51.1-24.8c-4.2.6-8.3 1.4-12.2 2.4 3 3.6 6.3 7.7 9.6 11.7l7.2 8.7c2.2 2.7 4.3 5.2 5.9 7.2l.4.5c2.1 2.6 3.6 4.3 3.9 4.7.6.8 1 1.5 1 2.2v8.2c0 1.2-1.1 2.2-3 2.8-2.9.9-5.5.2-7.3-2l-15-18.3c-6.1-7.4-12.7-15.5-17.1-20.9z"/>
    <path fill="#fff" d="M311.802 78.799h-.6c-.2-.2-.4-.4-.3-.7 0-.4.5-.7.9-.5.3.1.6.5.5.8 0 .3-.3.6-.6.6zM309.201 89.6h-.3l-35.2-17.1c-.2-.1-.4-.4-.4-.6v-.3c.2-.3.6-.5.9-.3l35.2 17.1c.2.1.4.4.4.6v.3c-.1.2-.4.4-.6.4z"/>
    <path fill="#fff" d="M309.2 89.7h-.3l-68.5-33.3c-.2-.1-.4-.3-.4-.6q0-.45.3-.6l10.6-6.3c.2-.1.4-.1.7 0L292.9 68l.6-20.9c0-.2.1-.5.3-.6l13-7.6c.2-.1.5-.1.7 0s.4.4.3.6l-.2 21.8 47.1.4c.3 0 .6.2.7.5 0 .3 0 .6-.3.8L342 70.7h-.4l-33.7-.8v5.6l12.9 6.2c.2.1.4.3.4.6q0 .45-.3.6l-11.3 6.6h-.4zm-67-34.1 25.3 12.3 41.6 20.2 9.9-5.8-12.1-5.8c-.2-.1-.4-.4-.4-.6v-6.8c0-.2 0-.4.2-.5.1-.1.3-.2.5-.2l34.3.8 10.7-6.3-45.2-.4c-.2 0-.4 0-.5-.2-.1-.1-.2-.3-.2-.5l.2-21.2-11.6 6.8-.6 21.5c0 .2-.1.5-.3.6s-.4.1-.7 0l-41.9-19.4-9.1 5.5z"/>
    <path fill="#fff" d="M309.2 98.498h-.3l-68.5-33.3c-.2-.1-.4-.4-.4-.6v-8.9c0-.2.1-.5.3-.6s.5-.1.7 0l68.5 33.3c.2.1.4.4.4.6v8.9c0 .2-.1.5-.3.6-.1 0-.2.1-.4.1zm-67.8-34.4 67.1 32.6v-7.3l-67.1-32.6z"/>
    <path fill="#fff" d="M263.1 67.3h-.3l-22.4-10.9c-.3-.2-.5-.6-.3-.9s.6-.5.9-.3l22.4 10.9c.3.2.5.6.3.9-.1.2-.4.4-.6.4zm46.1 31.2h-.3c-.2-.1-.4-.4-.4-.6V89c0-.2.1-.5.3-.6l11.3-6.6c.2-.1.5-.1.7 0s.4.4.4.6v8.9c0 .2-.1.5-.3.6l-11.3 6.6zm.7-9.1v7.2l9.9-5.8v-7.2z"/>
    <path fill="#fff" d="M309.2 89.6c-.2 0-.5-.1-.6-.3-.2-.3 0-.8.3-1l11.3-6.6c.3-.2.8 0 1 .3s0 .8-.3 1l-11.3 6.6zm-36.4 23.798h-.3l-.7-.4c-.2-.1-.3-.3-.4-.5 0-.2 0-.5.2-.6.3-.2.4-.5.4-.8 0-.4.3-.7.7-.7s.7.3.7.7v1.6c0 .2-.1.5-.3.6h-.4z"/>
    <path fill="#fff" d="M268.101 122.499c-1.9 0-3.7-.8-4.9-2.3l-13.3-16.2c-6.7-8.1-14.3-17.5-19.2-23.3l-.9-1.1c-1.7-2.1-3-3.6-3.5-4.3l-.2-.3c-.6-.7-.8-1.4-.8-2v-8.1c0-.4.3-.7.7-.7s.7.3.7.7.2.7.5 1.1c.5.6 2.6 3.2 5.7 7l4 4.9c5.8 7.1 13 15.9 18.7 22.7l8.8 10.7c1.9 2.3 4.5 2 5.8 1.5.7-.2 1.2-.5 1.6-.8.2-.2.5-.2.8 0l.7.4c.3.1.4.4.4.7v6.3c0 1.2-1.1 2.2-3 2.8-.8.3-1.6.4-2.4.4zm-41.5-55.1v5.4c0 .4.2.8.5 1.2l.2.3c.6.7 1.8 2.2 3.5 4.3l.9 1.1c4.8 5.9 12.5 15.2 19.2 23.3l13.3 16.2c1.9 2.3 4.5 1.9 5.8 1.5.6-.2 2-.7 2-1.6v-5.9c-.4.3-1 .5-1.6.7-2.9.9-5.5.2-7.3-2l-8.8-10.7c-5.6-6.8-12.9-15.7-18.7-22.7l-4-4.9c-2.4-2.9-4.2-5.1-5.1-6.3zm-.7 10.701c-.4 0-.7-.3-.7-.7s.3-.7.7-.7.7.3.7.7-.3.7-.7.7"/>
    <path fill="#fff" d="M268.201 114.299c-1.9 0-3.7-.8-4.9-2.3v-.1c-.3-.3-1.4-1.7-3.1-3.7l-5.7-6.9c-5.6-6.8-12.9-15.7-18.7-22.7l-4.3-5.2c-2.9-3.6-5-6.1-5.5-6.7-.5-.7-.8-1.4-.8-2 0-1.4 1.2-2.5 3.2-3 2.8-.7 5.1-.1 6.7 1.7.4.4 2.3 2.8 6.3 7.6l3.4 4.2c3.8 4.7 8.3 10.1 12.5 15.3l11.2 13.7c2 2.5 3.4 4.2 3.8 4.6.7.8 1 1.6 1 2.3q0 1.05-.9 1.8c-.5.4-1.2.8-2.1 1.1-.8.3-1.6.4-2.4.4zm-37.5-51.6c-.6 0-1.2 0-1.9.3-1.3.3-2.1.9-2.1 1.6 0 .3.2.7.5 1.1.4.6 2.5 3.1 5.4 6.7l4.3 5.2c5.8 7 13 15.9 18.7 22.7l5.7 6.9c1.7 2 2.8 3.4 3.1 3.8 1.9 2.3 4.5 2 5.8 1.6.7-.2 1.2-.5 1.6-.8.3-.2.4-.5.4-.8 0-.4-.2-.8-.6-1.3-.3-.4-1.8-2.1-3.9-4.7l-11.2-13.7c-4.2-5.2-8.7-10.6-12.5-15.3l-3.4-4.2c-2.5-3-5.8-7.1-6.3-7.6-.9-1-2-1.5-3.4-1.5zm43.3 147.1c-63 0-114.3-27.7-114.3-61.8s3.9-18.7 11.6-27.2l1 .9c-7.4 8.2-11.2 17.1-11.2 26.2 0 33.3 50.7 60.4 112.9 60.4s112.9-27.1 112.9-60.4-3.8-18.1-11.3-26.3l1-.9c7.7 8.5 11.6 17.7 11.6 27.2 0 34.1-51.3 61.8-114.3 61.8zm74.301 97.8h-.2c-.3-.1-.6-.5-.5-.8 0-.4.4-.6.8-.6h.1c.3.2.5.5.4.9-.1.3-.4.5-.7.5z"/>
    <path fill="#fff" d="M348.3 307.699h-.3c-.4-.1-.6-.5-.4-.9.1-.4.5-.6.9-.4.3 0 .5.4.5.7q0 .3-.3.6c-.1 0-.3.1-.4.1z"/>
    <path fill="#fff" d="M344.502 393.599h-.2l-2.4-.8c-.1 0-.3 0-.5-.2-1.2-.6-1.8-2-1.8-4.3v-75c0-3.1 1.3-5.7 3.8-7.5.6-.4 1.3-.6 2-.5.2 0 .4.1.6.2l2.2.7c.4.1.6.5.5.9s-.5.6-.9.5-.8 0-1.1.2c-2.2 1.6-3.2 3.7-3.2 6.4v75c0 1.2.2 2.7 1.1 3 .4.1.6.5.4.9 0 .3-.4.5-.7.5zm.5-86.9c-.3 0-.5 0-.8.3-2.2 1.6-3.2 3.7-3.2 6.4v75c0 1.2.2 2.6 1 3h.4c-.2-.6-.3-1.3-.3-2.2v-74.9c0-3 1.2-5.5 3.6-7.3h-.1c-.2-.1-.3-.2-.4-.2h-.2z"/>
    <path fill="#fff" d="M345.201 393.7c-.3 0-.6 0-.9-.2-1.4-.5-2.1-1.9-2.1-4.4v-75c0-3.1 1.3-5.7 3.8-7.5.7-.5 1.5-.7 2.3-.4h.1c1 .4 2.1 1.5 2.1 3.6v76.5c0 3.2-1.5 5.6-2.9 6.5-.2.2-1.3.8-2.5.8zm2.4-86.2c-.3 0-.5 0-.8.3-2.2 1.6-3.2 3.7-3.2 6.4v75c0 1.2.2 2.7 1.1 3.1.7.3 1.8-.2 2.2-.5.9-.6 2.3-2.5 2.3-5.3V310c0-1.4-.6-2.1-1.2-2.3h-.4zm20.001 71.999h-.2l-2.4-.8c-.1 0-.3 0-.5-.2-1.2-.6-1.9-2-1.9-4.3v-75c0-3.1 1.3-5.7 3.8-7.5.6-.4 1.3-.6 2-.5h.1c.2 0 .4.1.6.2l2.2.7c.4.1.6.5.5.9s-.5.6-.9.5-.8 0-1.1.2c-2.2 1.6-3.2 3.7-3.2 6.4v75c0 1.2.2 2.7 1.1 3 .4.1.6.5.4.9 0 .3-.4.5-.7.5zm.5-86.9c-.2 0-.5 0-.8.3-2.2 1.6-3.2 3.7-3.2 6.4v75c0 1.2.2 2.6 1 3h.4c-.2-.6-.3-1.3-.3-2.2v-75c0-3 1.2-5.5 3.6-7.3h-.1c-.2-.1-.3-.2-.4-.2z"/>
    <path fill="#fff" d="M368.301 379.699c-.3 0-.6 0-.9-.1-1.4-.5-2.1-1.9-2.1-4.4v-75c0-3.1 1.3-5.7 3.8-7.5.7-.5 1.5-.7 2.3-.4h.2c1 .4 2.1 1.5 2.1 3.6v76.5c0 3.2-1.5 5.6-2.9 6.5-.2.2-1.3.8-2.5.8m2.4-86.2c-.3 0-.5 0-.8.3-2.2 1.6-3.2 3.7-3.2 6.4v75c0 1.2.2 2.7 1.1 3.1.7.3 1.8-.2 2.2-.5.9-.6 2.3-2.5 2.3-5.3v-76.5c0-1.4-.6-2.1-1.2-2.3h-.4zm-11.001-5.4h-.2c-.3-.1-.6-.5-.5-.8 0-.4.4-.6.8-.5s.5.5.4.9c-.1.3-.4.5-.7.5z"/>
    <path fill="#fff" d="M359.801 288.099h-.199c-.4-.1-.6-.5-.4-.9.1-.4.5-.6.9-.4.3 0 .6.4.6.7q0 .3-.301.6c-.1 0-.3.1-.4.1z"/>
    <path fill="#fff" d="M356.002 398.699h-.2l-2.4-.8c-.1 0-.3 0-.5-.2-1.2-.6-1.8-2-1.8-4.3v-99.7c0-3.1 1.3-5.7 3.8-7.5.6-.4 1.3-.6 2-.5.2 0 .4.1.6.2l2.2.7c.4.1.6.5.5.9s-.5.6-.9.5-.8 0-1.1.2c-2.2 1.6-3.2 3.7-3.2 6.4v99.7c0 1.2.2 2.7 1.1 3 .4.1.6.5.4.9 0 .3-.4.5-.7.5zm.5-111.6c-.3 0-.5 0-.8.3-2.2 1.6-3.2 3.7-3.2 6.4v99.7c0 1.2.2 2.6 1 3h.4c-.2-.6-.3-1.3-.3-2.2v-99.6c0-3 1.2-5.5 3.6-7.3-.2-.1-.3-.2-.4-.2h-.2z"/>
    <path fill="#fff" d="M356.701 398.8c-.3 0-.6 0-.9-.1-1.4-.5-2.1-2-2.1-4.4v-99.7c0-3.1 1.3-5.7 3.8-7.5.7-.5 1.5-.7 2.3-.4h.2c1 .4 2.1 1.5 2.1 3.6v101.1c0 3.2-1.5 5.6-2.9 6.5-.2.2-1.3.8-2.5.8zm2.4-110.8c-.3 0-.5 0-.8.3-2.2 1.6-3.2 3.7-3.2 6.4v99.7c0 1.2.2 2.7 1.1 3.1.7.2 1.8-.2 2.2-.5.9-.6 2.3-2.5 2.3-5.3V290.6c0-1.4-.6-2.1-1.2-2.3h-.4zm-22.7 42.8h-.2c-.4-.1-.6-.5-.5-.8 0-.4.4-.6.8-.5.3.1.5.5.4.9-.1.3-.4.5-.7.5z"/>
    <path fill="#fff" d="M336.501 330.798h-.2c-.4-.1-.6-.5-.4-.9.1-.4.5-.6.9-.4.3 0 .6.4.6.7q0 .3-.3.6c-.1 0-.3.1-.4.1z"/>
    <path fill="#fff" d="M333.101 383.099h-.2l-2.4-.8c-.1 0-.3 0-.5-.2-1.2-.6-1.8-2-1.8-4.3v-41.4c0-3.1 1.3-5.7 3.8-7.5.6-.4 1.3-.6 2-.5h.1c.2 0 .4.1.6.2l2.2.7c.4.1.6.5.5.9s-.5.6-.9.5-.8 0-1.1.2c-2.2 1.6-3.2 3.7-3.2 6.4v41.4c0 1.2.2 2.7 1.1 3 .4.1.6.5.4.9 0 .3-.4.5-.7.5zm.5-53.3c-.2 0-.5 0-.8.3-2.2 1.6-3.2 3.7-3.2 6.4v41.4c0 1.2.2 2.6 1 3h.5c-.2-.6-.3-1.3-.3-2.2v-41.3c0-3 1.2-5.5 3.6-7.3h-.1c-.2-.1-.3-.2-.4-.2h-.1z"/>
    <path fill="#fff" d="M333.801 383.199c-.3 0-.6 0-.9-.2-1.4-.5-2.1-2-2.1-4.4v-41.4c0-3.1 1.3-5.7 3.8-7.5.7-.5 1.5-.7 2.3-.4h.2c1 .4 2.1 1.5 2.1 3.6v42.8c0 3.2-1.5 5.6-2.9 6.5-.3.2-1.4.8-2.5.8zm2.4-52.5c-.3 0-.5 0-.8.3-2.2 1.6-3.2 3.7-3.2 6.4v41.4c0 1.2.2 2.7 1.1 3.1.7.3 1.8-.2 2.2-.5.9-.6 2.3-2.5 2.3-5.3v-42.8c0-1.4-.6-2.1-1.2-2.3h-.4zm43.301 23.601h-.2l-2.4-.8c-.1 0-.3 0-.5-.2-1.2-.6-1.8-2-1.8-4.3v-41.4c0-3.1 1.3-5.7 3.8-7.5.6-.4 1.3-.6 2-.5h.1c.2 0 .4.1.6.2l2.2.7c.4.1.6.5.5.9s-.5.6-.9.5-.8 0-1.1.2c-2.2 1.6-3.2 3.7-3.2 6.4v41.4c0 1.2.2 2.7 1.1 3 .4.1.6.5.4.9 0 .3-.4.5-.7.5zm.5-53.3c-.3 0-.5 0-.8.3-2.2 1.6-3.2 3.7-3.2 6.4v41.4c0 1.2.2 2.6 1 3h.5c-.2-.6-.3-1.3-.3-2.2v-41.3c0-3 1.2-5.5 3.6-7.3h-.1c-.2-.1-.3-.2-.4-.2h-.2z"/>
    <path fill="#fff" d="M380.201 354.398c-.3 0-.6 0-.9-.2-1.4-.5-2.1-1.9-2.1-4.4v-41.4c0-3.1 1.3-5.7 3.8-7.5.7-.5 1.5-.7 2.3-.4h.2c1 .4 2.1 1.5 2.1 3.6v42.8c0 3.2-1.5 5.6-2.9 6.5-.3.2-1.4.8-2.5.8zm2.4-52.5c-.3 0-.5 0-.8.3-2.2 1.6-3.2 3.7-3.2 6.4v41.4c0 1.2.2 2.7 1.1 3.1.7.3 1.8-.2 2.2-.5.9-.6 2.3-2.5 2.3-5.3v-42.8c0-1.4-.6-2.1-1.2-2.3h-.4zM321.8 378.799h-.2l-2.4-.8s-.3 0-.5-.2c-1.2-.6-1.8-2-1.8-4.3v-19.3c0-3.1 1.3-5.7 3.8-7.5.6-.4 1.3-.6 2-.5h.1c.2 0 .4.1.6.2l2.2.7c.4.1.6.5.5.9s-.5.6-.9.5-.8 0-1.1.2c-2.2 1.6-3.2 3.7-3.2 6.4v19.3c0 1.2.2 2.7 1.1 3 .4.1.6.5.4.9 0 .3-.4.5-.7.5zm.5-31.3c-.2 0-.5 0-.8.3-2.2 1.6-3.2 3.7-3.2 6.4v19.3c0 1.2.2 2.6 1 3h.4c-.2-.6-.3-1.3-.3-2.2v-19.3c0-3 1.2-5.5 3.6-7.3h-.1c-.2-.1-.3-.2-.4-.2z"/>
    <path fill="#fff" d="M322.5 378.9c-.3 0-.6 0-.9-.2-1.4-.5-2.1-2-2.1-4.4V355c0-3.1 1.3-5.7 3.8-7.5.7-.5 1.5-.7 2.3-.4h.2c1 .4 2.1 1.5 2.1 3.6v20.8c0 3.2-1.5 5.6-2.9 6.5-.3.2-1.4.8-2.5.8zm2.4-30.5c-.3 0-.5 0-.8.3-2.2 1.6-3.2 3.7-3.2 6.4v19.3c0 1.2.2 2.7 1.1 3.1.7.3 1.8-.2 2.2-.5.9-.6 2.3-2.5 2.3-5.3v-20.8c0-1.4-.6-2.1-1.2-2.3h-.4zm66.201-11.901h-.2l-2.4-.8c-.1 0-.3 0-.5-.2-1.2-.6-1.8-2-1.8-4.3v-19.3c0-3.1 1.3-5.7 3.8-7.5.6-.4 1.3-.6 2-.5h.1c.2 0 .4.1.6.2l2.2.7c.4.1.6.5.5.9s-.5.6-.9.5-.8 0-1.1.2c-2.2 1.6-3.2 3.7-3.2 6.4v19.3c0 1.2.2 2.7 1.1 3 .4.1.6.5.4.9 0 .3-.4.5-.7.5zm.5-31.3c-.2 0-.5 0-.8.3-2.2 1.6-3.2 3.7-3.2 6.4v19.3c0 1.2.2 2.6 1 3h.5c-.2-.6-.3-1.3-.3-2.2v-19.3c0-3 1.2-5.5 3.6-7.3h-.1c-.2-.1-.3-.2-.4-.2z"/>
    <path fill="#fff" d="M391.801 336.599c-.3 0-.6 0-.9-.2-1.4-.5-2.1-1.9-2.1-4.4v-19.3c0-3.1 1.3-5.7 3.8-7.5.7-.5 1.5-.7 2.3-.4h.2c1 .4 2.1 1.5 2.1 3.6v20.8c0 3.2-1.5 5.6-3 6.5-.2.2-1.3.8-2.5.8zm2.4-30.5c-.3 0-.5 0-.8.3-2.2 1.6-3.2 3.7-3.2 6.4v19.3c0 1.2.2 2.7 1.1 3.1.7.3 1.8-.2 2.2-.5.9-.6 2.3-2.5 2.3-5.3v-20.8c0-1.4-.6-2.1-1.2-2.3h-.4zm-83.6 73.101h-.2l-2.4-.8c-.1 0-.3 0-.5-.2-1.2-.6-1.8-2-1.8-4.3v-6.8c0-3.1 1.3-5.7 3.8-7.5.6-.4 1.3-.6 2-.5h.1c.2 0 .4.1.6.2l2.2.7c.4.1.6.5.5.9s-.5.6-.9.5-.8 0-1.1.2c-2.2 1.6-3.2 3.7-3.2 6.4v6.8c0 1.2.2 2.7 1.1 3 .4.1.6.5.4.9 0 .3-.4.5-.7.5zm.5-18.7c-.2 0-.5 0-.8.3-2.2 1.6-3.2 3.7-3.2 6.4v6.8c0 1.2.2 2.6 1 3h.5c-.2-.6-.3-1.3-.3-2.2v-6.7c0-3 1.2-5.5 3.6-7.3h-.1c-.2-.1-.3-.2-.4-.2h-.1z"/>
    <path fill="#fff" d="M311.301 379.298c-.3 0-.6 0-.9-.2-1.4-.5-2.1-1.9-2.1-4.4v-6.8c0-3.1 1.3-5.7 3.8-7.5.7-.5 1.5-.7 2.3-.4h.2c1 .4 2.1 1.5 2.1 3.6v8.3c0 3.2-1.5 5.6-2.9 6.5-.2.2-1.3.8-2.5.8zm2.4-17.9c-.3 0-.5 0-.8.3-2.2 1.6-3.2 3.7-3.2 6.4v6.8c0 1.2.2 2.7 1.1 3.1.7.3 1.8-.2 2.2-.5.9-.6 2.3-2.5 2.3-5.3v-8.3c0-1.4-.6-2.1-1.2-2.3h-.4zm88.9-36.599h-.2l-2.4-.8c-.1 0-.3 0-.5-.2-1.2-.6-1.8-2-1.8-4.3v-6.8c0-3.1 1.3-5.7 3.8-7.5.6-.4 1.3-.6 2-.5h.1c.2 0 .4.1.6.2l2.2.7c.4.1.6.5.5.9s-.5.6-.9.5-.8 0-1.1.2c-2.2 1.6-3.2 3.7-3.2 6.4v6.8c0 1.2.2 2.7 1.1 3 .4.1.6.5.4.9 0 .3-.4.5-.7.5zm.5-18.8c-.2 0-.5 0-.8.3-2.2 1.6-3.2 3.7-3.2 6.4v6.8c0 1.2.2 2.6 1 3h.5c-.2-.6-.3-1.3-.3-2.2v-6.7c0-3 1.2-5.5 3.6-7.3h-.1c-.2-.1-.3-.2-.4-.2h-.2z"/>
    <path fill="#fff" d="M403.301 324.9c-.3 0-.6 0-.9-.2-1.4-.5-2.1-1.9-2.1-4.4v-6.8c0-3.1 1.3-5.7 3.8-7.5.7-.5 1.5-.7 2.3-.4h.2c1 .4 2.1 1.5 2.1 3.6v8.3c0 3.2-1.5 5.6-2.9 6.5-.3.2-1.4.8-2.5.8zm2.4-18c-.3 0-.5 0-.8.3-2.2 1.6-3.3 3.7-3.3 6.4v6.8c0 1.2.2 2.7 1.1 3.1.7.3 1.8-.2 2.2-.5.9-.6 2.3-2.5 2.3-5.3v-8.3c0-1.4-.6-2.1-1.2-2.3h-.4z"/>
</svg>
