<svg xmlns="http://www.w3.org/2000/svg" width="550" height="550" fill="none" viewBox="0 0 550 550">
    <path fill="#fff" d="M452.938 256.036c2.811 1.64 5.328 3.111 7.732 4.513.041 40.056-.081 80.012.037 120.024.024 1.919-.691 2.925-2.348 3.867-34.497 19.969-69.156 39.684-103.537 59.852-2.113-1.208-4.181-2.396-6.452-3.692-1.608 3.446 1.091 7.223-2.921 9.069-10.819 6.165-21.589 12.411-32.376 18.633a35873 35873 0 0 0-58.604 33.823c-3.697 2.133-7.426 4.205-11.082 6.399-1.212.727-2.145.675-3.353-.032-44.436-25.788-89.026-51.312-133.466-77.1-4.824-2.787-9.623-5.623-14.52-8.29-1.963-1.066-2.844-2.274-2.84-4.662.081-39.22.057-78.436.012-117.657-.355-3.248 5.567-4.234 7.899-6.351-2.465-3.199-8.286-3.074-7.886-7.865.016-39.306.113-78.615 0-117.92-.033-1.172.27-1.866 1.365-2.493 31.173-17.941 62.297-35.968 93.49-53.877 3.094-1.782 6.254-3.462 9.247-5.402 2.905-2.076 5.349 1.435 8.036 2.267 2.913-2.877-2.186-6.076 4.359-9.478 33.795-19.138 67.23-38.921 100.956-58.188 1.111-.646 1.975-.727 3.118-.065 17.336 10.027 34.708 20.002 52.028 30.062 32.921 19.02 65.868 38.057 98.834 56.988.012 39.814-.024 79.645.012 119.443.893 5.042-5.256 4.868-7.744 8.128zm5.361-127.042c-48.836-29.407-98.94-57-148.119-85.955-1.398-.816-2.505-.76-3.854.04-4.266 2.538-8.593 4.978-12.892 7.467-29.37 17.416-59.505 33.714-88.561 51.554 48.735 28.797 98.12 56.5 146.951 85.155 3.087 2.339 5.64.053 8.387-1.575 32.757-18.916 65.384-37.613 98.084-56.686zm-112.947 65.129c-49.049-29.088-98.794-56.96-148.021-85.761-3.414-2.105-6.444 2.028-9.518 3.192-31.957 18.725-64.216 36.687-96.055 55.635 48.879 29.063 98.551 56.814 147.613 85.599 1.737 1.014 3.119.982 4.816-.024 33.657-19.736 67.565-38.776 101.165-58.637zM90.76 168.881c-.513 39.338-.02 78.57-.19 117.9-.093 1.381.517 2.246 1.717 2.937 49.72 28.167 98.673 57.776 148.66 85.389 0-38.808-.029-77.499.052-116.291.004-2.529-.82-3.923-3.014-5.123-49.243-28.066-97.949-56.762-147.225-84.808zm-.037 132.197c-.42 38.918 0 77.73-.198 116.639-.165 2.731 1.237 4.028 3.523 5.054 49.038 27.852 97.481 56.948 146.749 84.283.428-38.861-.024-77.686.178-116.55.004-2.012-.424-3.321-2.392-4.384-49.466-28.058-98.212-57.315-147.86-85.042m255.623-105.173c-34.206 18.713-67.532 39.018-101.505 58.188-1.737.986-2.367 2.206-2.339 4.202.307 38.982-.351 77.907.242 116.889 34.09-19.093 67.646-39.018 101.574-58.402 1.725-.986 2.222-2.073 2.218-3.915-.182-39.006.251-77.96-.19-116.962m.162 131.91c-34.276 18.838-67.63 39.176-101.695 58.394-1.81 1.026-2.343 2.238-2.303 4.181.259 38.922-.311 77.807.21 116.724 33.932-18.661 67.129-38.731 100.867-57.796 2.149-1.224 2.99-2.574 2.981-5.111-.093-38.836-.06-77.543-.06-116.392M459.349 130.61c-33.94 18.702-67.052 38.853-100.846 57.849-2.15 1.228-3.03 2.626-3.014 5.151.335 38.772-.364 77.508.27 116.271 34.126-18.81 67.412-39.087 101.368-58.232 1.733-.99 2.428-2.028 2.424-4.068-.202-39.011.222-77.964-.202-116.971m.154 131.951c-34.147 18.919-67.561 38.966-101.489 58.273-1.875 1.07-2.501 2.295-2.501 4.355.254 38.941-.384 77.871.271 116.8 33.895-19.149 67.411-38.885 101.23-58.168 1.79-1.018 2.545-2.153 2.541-4.298-.073-39.027-.048-77.916-.048-116.958zm-367.62 36.901c48.128 28.167 96.584 55.732 144.785 83.774 5.131 2.993 5.058 2.985 10.169 0 32.89-19.198 65.836-37.847 98.709-57.13-8.484-5.26-6.464-4.262-14.604.234-28.793 16.661-57.643 33.221-86.392 49.963-1.939 1.139-3.478 1.273-5.502.073-10.488-6.218-21.057-12.298-31.613-18.398-31.839-18.354-63.683-36.7-95.498-55.094-3.923-2.262-7.841-4.533-11.792-6.743-.639-.355-1.653-.792-2.142-.533-2.028 1.091-4.298 1.854-6.124 3.854zm262.042 10.246c0-38.837-.02-77.593.049-116.417 0-2.198-.683-3.507-2.574-4.581-49.191-28.01-97.881-57.037-147.262-84.642-.254.331-.424.452-.448.602-.768 4.633-.348 5.405 3.7 7.716 46.141 26.478 92.116 53.239 138.245 79.737 1.822 1.035 2.537 2.065 2.533 4.198-.072 35.459-.052 70.918-.052 106.377-.651 4.161 1.672 5.988 5.809 7.014zm104.446-48.868c-4.512-2.691-6.181-5.289-10.904-1.814a24063 24063 0 0 1-39.79 23.044c-16.814 9.716-33.665 19.372-50.427 29.185-3.64 2.65-5.401-1.58-8.973-1.806v7.373c2.768 1.321 5.386 5.127 8.614 2.86 8.621-5.094 17.307-10.083 25.981-15.085 25.129-14.689 50.593-28.684 75.495-43.753zm-117.523 59.824.085.78 7.183 4.234c.056 37.305-.109 74.61.056 111.9.259 2.343 3.41 3.563 5.753 4.1-.064-39.402.121-78.812-.06-118.186-.885-2.808-4.343-3.474-6.582-4.961-2.347-1.188-4.375 1.289-6.435 2.133"/>
    <path fill="#fff" d="M439.739 129.189c-3.171 1.381-5.712 2.472-8.241 3.587-1.148.505-2.041-.145-2.929-.646-15.263-8.735-30.45-17.602-45.685-26.389a28656 28656 0 0 0-67.872-39.148c-2.08-1.333-5.025-2.17-5.906-4.686-.154-1.77-3.507-10.302.299-8.581 43.288 25.508 87.611 49.595 130.33 75.859zm-3.494-.299c-37.33-22.798-75.908-43.879-113.682-66.074-3.62-2.085-7.248-4.166-10.884-6.226-.553-.311-1.167-.913-1.907.069.473 2.78.396 5.886 3.507 7.126 3.159 1.66 6.214 3.515 9.304 5.297 19.481 11.186 38.91 22.462 58.35 33.717 16.075 9.248 32.11 18.568 48.225 27.747 2.57 1.366 4.416-.618 7.087-1.66zm-157.79-32.291c13.166-7.443 26.329-14.883 39.114-22.94q-.277-.215-.601-.473c-2.108-1.67-5.601-4.438-7.701-2.848-8.36 4.92-16.794 9.728-25.23 14.536-13.019 7.422-26.04 14.844-38.788 22.677.85 1.4 2.074 1.971 3.253 2.522.57.266 1.13.528 1.631.875 1.176.82 2.15.683 3.346-.02 8.262-4.883 16.62-9.606 24.976-14.33m30.561-22.702c1.301-.751 2.529-1.232 4.016.602-12.312 7.466-24.803 14.611-37.297 21.758h-.002c-7.458 4.267-14.917 8.534-22.339 12.869-1.797 1.035-1.814 1.018-3.736-.827l-.017-.017c12.991-7.729 26.09-15.246 39.192-22.765a5610 5610 0 0 0 20.183-11.62m-49.804 41.964.005-.003c.361.26.743.554 1.143.861 2.355 1.813 5.289 4.071 7.752 2.362 5.168-3.08 10.382-6.082 15.596-9.084l.001-.001h.001l2.905-1.674c5.268-3.008 10.52-6.05 15.771-9.093h.001c9.355-5.42 18.711-10.841 28.163-16.068 1.354-.84 1.305-1.709-.044-2.509-.621-.267-1.239-.664-1.862-1.064-1.645-1.055-3.325-2.133-5.168-.911-2.029 1.215-4.086 2.38-6.143 3.545h-.001c-1.198.68-2.396 1.358-3.588 2.046-6.528 3.787-13.002 7.513-19.46 11.23h-.001c-11.664 6.714-23.277 13.397-35.066 20.36l-.001-.001zm68.171-32.983c-1.212-1.729-2.319-1.74-3.644-.965-9.334 5.453-18.705 10.837-28.076 16.222h-.002c-10.616 6.101-21.233 12.201-31.795 18.401 2.068 1.737 2.279 1.781 4.432.545a9579 9579 0 0 1 21.431-12.374h.001c12.552-7.233 25.089-14.457 37.653-21.829m4.525 40.613c-9.815 5.58-19.631 11.159-29.287 17.002v.004l.045.755c.779.339 1.558.868 2.346 1.403 1.968 1.338 3.986 2.71 6.182 1.215 4.642-2.759 9.312-5.458 13.986-8.157 16.055-9.271 32.11-18.539 48.21-27.738l.076-.043c.663-.377 1.337-.759.99-1.876-3.725-2.901-7.013-3.761-11.231-.8-10.307 6.293-20.811 12.264-31.316 18.235zm-24.776 17.885-.055-.055h.004c11.661-6.975 23.435-13.724 35.212-20.474v-.001c8.156-4.674 16.311-9.349 24.431-14.099 1.365-.796 2.408-.744 3.599.812-13.472 8.208-27.192 16.036-40.909 23.864l-.002.001-.006.003-.006.004-.006.003-.005.003-.005.003a3555 3555 0 0 0-18.828 10.794c-1.663.923-1.72.866-3.424-.858m48.067-14.827-.002.001-.001.001-.004.002-.009.005-.002.001c-12.875 7.408-25.728 14.804-38.695 22.397.473.315.988.701 1.528 1.108 2.177 1.638 4.78 3.597 6.835 2.399 8.195-4.856 16.484-9.547 24.771-14.238 13.403-7.586 26.8-15.168 39.784-23.439-1.016-.4-1.967-1.073-2.892-1.726-1.837-1.299-3.571-2.524-5.503-1.401-8.639 5.01-17.228 9.952-25.808 14.889zm-29.93 23.813c-2.064 1.196-2.109 1.184-3.769-.666 11.773-7.216 23.774-14.084 35.775-20.951 7.31-4.182 14.619-8.365 21.876-12.626.312-.159.624-.343.935-.526 1.524-.897 3.04-1.789 4.523.126-11.191 7.073-22.759 13.63-34.329 20.189-8.383 4.752-16.768 9.505-25.011 14.454m92.343-18.563c-12.726 7.918-25.813 15.332-38.898 22.744-8.325 4.715-16.648 9.43-24.877 14.274-1.692 1.179-3.302.215-4.877-.729-.584-.35-1.164-.697-1.741-.931-1.85-1.083-1.858-1.907-.056-2.933q2.011-1.148 4.025-2.287l.001-.001h.001l.001-.001c1.913-1.084 3.826-2.167 5.732-3.266 5.287-3.046 10.568-6.102 15.85-9.158l.002-.001.008-.005 12.333-7.13a6136 6136 0 0 1 24.739-14.249c1.889-.935 3.596.264 5.245 1.422.707.497 1.404.987 2.1 1.297.113.069.165.234.241.473.044.137.096.299.171.481m-67.621 34.356.038.037c1.865 1.806 1.9 1.839 3.525.908 7.085-4.131 14.21-8.196 21.335-12.261 12.888-7.354 25.775-14.706 38.425-22.446-1.107-1.459-2.133-1.681-3.511-.845-9.339 5.491-18.705 10.856-28.071 16.221-10.592 6.068-21.186 12.136-31.741 18.386m4.951-22.877c-7.91 4.541-15.885 9.119-24.001 13.823 2.057 1.919 5.903 5.208 8.63 3.45 8.958-5.436 18.104-10.577 27.247-15.717 12.471-7.011 24.936-14.018 36.912-21.766-.909-.437-1.749-1.008-2.562-1.562-2.195-1.492-4.192-2.851-6.807-1.068-13.205 7.792-26.223 15.265-39.419 22.84m40.041-19.741q2.041-1.184 4.069.691c-9.872 5.818-19.757 11.492-29.641 17.165l-.001.001c-9.454 5.426-18.907 10.852-28.344 16.402-.234.128-.471.269-.712.412-1.579.936-3.279 1.944-4.625-.149 11.72-7.337 23.78-14.187 35.84-21.037 7.836-4.451 15.672-8.901 23.414-13.485m-72.83-2.501c-8.622 4.848-17.247 9.698-25.745 14.778-1.698 1.128-3.283.142-4.847-.83-.65-.404-1.296-.806-1.944-1.052-1.54-.95-1.527-1.713.024-2.614a35641 35641 0 0 0 44.37-25.623l.005-.003 3.095-1.79q2.527-1.456 5.06-2.902h.001c3.298-1.886 6.596-3.77 9.859-5.71 2.255-1.257 3.912-.122 5.786 1.162.935.64 1.925 1.318 3.069 1.754h-.004c-12.597 8.138-25.659 15.482-38.729 22.83m33.889-21.65c-1.228-2.13-3.171-1.418-4.662-.323-7.772 4.67-15.694 9.15-23.616 13.631-11.815 6.683-23.63 13.365-34.948 20.676 1.277 1.665 2.517 1.216 3.818.465 8.149-4.766 16.322-9.458 24.493-14.149 11.668-6.699 23.332-13.396 34.915-20.3m-82.419 25.004-.005.003-.004-.008zm35.563-20.902c-11.975 6.777-23.946 13.552-35.563 20.902.775.419 1.509.912 2.225 1.391 2.443 1.638 4.666 3.128 7.523 1.049 4.263-2.542 8.566-5.015 12.869-7.488q2.256-1.296 4.511-2.596c5.8-3.363 11.611-6.706 17.423-10.049 8.892-5.114 17.784-10.229 26.633-15.415 1.499-.905 1.487-1.511.036-2.364-.563-.292-1.091-.61-1.601-.917-2.137-1.287-3.939-2.372-6.539-.44-9.069 5.487-18.294 10.707-27.517 15.927m28.87-13.249c1.378-.824 2.404-.715 3.749.849v.004c-13.114 7.74-26.229 15.28-39.364 22.832a7525 7525 0 0 0-20.46 11.79c-1.349.792-2.404.889-3.559-.791 11.767-7.291 23.818-14.144 35.869-20.997 7.949-4.52 15.899-9.041 23.765-13.687m17.073 87.124c-.727.873-1.39.17-2.012-.186-4.306-2.46-8.601-4.945-12.899-7.425a85331 85331 0 0 1-114.627-66.228c-.675-.392-1.701-.614-1.374-1.721 43.365 23.391 88.993 49.716 130.912 75.56m-159.673-59.34c43.281 25.687 88.121 49.571 130.629 76.163-1.737 1.721-4.197 2.222-6.29 3.369-3.45 2.165-10.31-4.323-13.91-5.753a57697 57697 0 0 0-59.489-34.405c-16.147-9.304-32.291-18.624-48.459-27.892-3.071-1.834-2.129-6.25-3.228-9.26-.214-1.05-.227-1.042.747-2.222m127.777 76.11c-41.664-24.874-83.919-49.405-126.371-72.894.162 3.592.481 6.351 3.939 8.137 16.685 9.179 32.987 19.105 49.563 28.506 16.75 9.623 33.487 19.271 50.193 28.975a1654 1654 0 0 0 15.638 8.936c2.538 1.487 4.335-.698 7.038-1.664zm-118.251-55.609.009-.006v.008zm0 0c-.971-.309-1.97-.957-2.974-1.609-1.948-1.263-3.913-2.538-5.716-1.358-6.043 3.514-12.1 7.005-18.156 10.495l-6.476 3.734-6.478 3.741a8929 8929 0 0 1-31.514 18.147c-1.43.837-1.458 1.564-.113 2.477.463.25.925.537 1.389.826 2.022 1.257 4.077 2.535 6.311.794 2.338-1.437 4.722-2.793 7.108-4.149 1.094-.622 2.189-1.244 3.279-1.875 7.291-4.413 14.702-8.584 22.108-12.751 10.541-5.932 21.073-11.858 31.232-18.472m-68.239 34.889-.012-.014v-.004c11.618-6.76 23.168-13.42 34.727-20.086 8.204-4.731 16.413-9.464 24.653-14.237 1.377-.812 2.545-1.027 3.918.537-11.689 7.301-23.702 14.121-35.717 20.942-8.008 4.546-16.016 9.092-23.929 13.782-1.838 1.06-1.85 1.046-3.64-.92m32.847-5.869a4489 4489 0 0 0-23.515 13.612h.004c6.514 4.816 7.088 4.459 11.267 1.857.94-.585 2.062-1.284 3.475-2.063 18.612-10.754 37.245-21.476 55.934-32.097q.17-.098.351-.189c.716-.373 1.473-.768 1.39-2.094-.54-.301-1.085-.655-1.636-1.012-2.334-1.514-4.781-3.102-7.474-1.089-6.75 4.002-13.549 7.925-20.347 11.849a4207 4207 0 0 0-5.836 3.37c-4.607 2.666-9.119 5.266-13.611 7.855zm-14.348 14.828c-1.366.808-2.65 1.431-4.323-.488 12.137-7.331 24.406-14.356 36.681-21.385 7.514-4.303 15.031-8.607 22.521-12.984 2.251-1.297 2.311-1.288 4.137.477-10.728 6.577-21.673 12.825-32.619 19.073v.001c-8.836 5.043-17.672 10.088-26.397 15.306m10.123 10.117c.856.391 1.619.74 2.005 1.042h.004c12.272-6.741 24.39-13.783 36.508-20.826h.001c9.257-5.379 18.515-10.76 27.844-16.007 2.471-1.429.294-2.547-1.556-3.496-.649-.333-1.257-.646-1.611-.944-1.426-1.026-2.622-.78-4.064.073-13.179 7.725-26.425 15.339-39.669 22.952v.001l-.002.001-.002.001-.002.001-.002.001-.002.001-.002.002-.003.001c-7.57 4.352-15.141 8.704-22.698 13.076-2.176 1.639.891 3.042 3.251 4.121m.031-2.46-.046-.045c9.364-5.493 18.528-10.773 27.8-16.116l.008-.005.044-.025 7.579-4.369q3.452-1.991 6.906-3.978a3912 3912 0 0 0 17.508-10.118c1.434-.832 2.408-.453 3.607.929-16.798 9.96-33.653 19.61-50.564 29.291q-4.698 2.689-9.401 5.385c-1.579.897-1.62.857-3.441-.949m29.739 19.554c.452.191.826.348 1.06.463 10.604-5.848 21.079-11.965 31.553-18.081h.001c10.927-6.381 21.854-12.761 32.924-18.836 1.972-1.369.113-2.339-1.454-3.155-.523-.273-1.013-.528-1.317-.776-1.774-1.353-3.373-1.188-5.248-.061-11.607 6.891-23.318 13.606-35.029 20.321-8.971 5.144-17.941 10.288-26.864 15.51-2.869 1.57 1.912 3.58 4.373 4.615m58.692-37.634c1.591-.905 1.644-.876 3.543.998-13.133 7.684-26.251 15.233-39.385 22.791l-.002.001-.002.002-.003.001-.002.002-.003.001-.002.002-.003.001c-6.736 3.876-13.476 7.755-20.225 11.656-1.769.998-1.836.94-3.703-.7l-.09-.079c11.192-6.654 22.471-13.121 33.752-19.588l.001-.001c8.72-4.999 17.442-10 26.124-15.087m16.65 45.039c-9.579 5.397-19.161 10.795-28.561 16.527-2.669 1.984-4.8.603-7.125-.904-.789-.512-1.6-1.038-2.462-1.452 10.742-7.152 22.054-13.504 33.368-19.857h.001c7.43-4.172 14.861-8.345 22.133-12.745 3.038-1.531 4.982-2.829 6.407-3.78 3.764-2.513 3.904-2.606 10.993 1.836-11.356 7.193-23.053 13.783-34.754 20.375m-33.348 14.325c1.579 1.975 1.636 2.028 3.49.961 8.195-4.856 16.481-9.568 24.766-14.28l.003-.001.001-.001c11.734-6.673 23.467-13.345 34.937-20.425-1.212-1.455-2.234-1.544-3.611-.74a5216 5216 0 0 1-22.77 13.127c-12.302 7.065-24.604 14.13-36.82 21.359zm-18.599-58.936c-14.614 8.356-29.22 16.707-43.601 25.473 1.404 1.186 2.549 1.782 3.86 2.464.39.203.795.414 1.226.65 1.257.93 2.299.712 3.571-.032 8.596-5.086 17.286-10.004 25.973-14.922v-.001c12.809-7.251 25.614-14.499 38.11-22.277a65 65 0 0 1-.742-.56h-.001c-2.179-1.658-5.516-4.197-7.41-2.854-6.981 4.051-13.984 8.055-20.985 12.059zm19.864-8.085c1.586-.944 2.974-1.771 4.722.203v.004c-12.312 7.467-24.788 14.61-37.27 21.756l-.001.001h-.001l-.001.001c-7.513 4.301-15.029 8.603-22.511 12.978-1.717.986-1.939.909-3.527-.832 11.373-6.935 22.955-13.568 34.538-20.201h.001c7.808-4.472 15.617-8.944 23.362-13.509q.352-.198.688-.401m52.047 24.294-.005.003c-.79-1.162-1.866-1.713-2.975-2.28-.587-.3-1.183-.605-1.751-1.008-1.252-.812-2.355-.747-3.628.013-2.163 1.292-4.353 2.537-6.544 3.783-1.213.69-2.427 1.38-3.636 2.079l-12.232 7.066-.006.003-.005.003-.006.004a63640 63640 0 0 0-39.964 23.098c-1.665.962-1.653 1.754.052 2.744.616.235 1.236.617 1.862 1.002 1.53.941 3.096 1.905 4.735.828a390 390 0 0 1 6.466-3.768q1.056-.606 2.111-1.214c7.789-4.723 15.759-9.189 23.726-13.654l.001-.001c10.751-6.025 21.499-12.048 31.794-18.698l.001.001zm-4.395.905c-1.968-1.875-2.117-1.867-4.315-.586-8.209 4.921-16.549 9.661-24.888 14.4-11.467 6.517-22.932 13.033-34.052 20.017 1.774 1.588 1.98 1.632 4.157.384 6.356-3.678 12.696-7.333 19.029-10.984l.001-.001.004-.002c13.356-7.7 26.682-15.382 40.064-23.228m-36.962 6.736-.001.001-.001.001a4631 4631 0 0 0-13.803 7.951 5555 5555 0 0 1-6.23 3.582h-.001c-5.623 3.23-11.245 6.459-16.841 9.734-2.439 1.468-5.139-.627-7.391-2.375-.431-.334-.846-.656-1.239-.938 12.617-7.444 25.216-14.684 37.826-21.929h.002l.002-.002c8.814-5.064 17.633-10.131 26.467-15.273 1.2-.699 2.206-.881 3.353-.036.519.382 1.095.686 1.69.999 1.131.595 2.331 1.227 3.34 2.511-9.123 5.404-18.125 10.576-27.173 15.774m22.587-15.16c-1.163-1.45-2.197-1.628-3.563-.791-1.46.892-2.954 1.731-4.447 2.57l-.001.001h-.001c-.858.482-1.717.964-2.568 1.456-6.686 3.964-13.458 7.81-20.23 11.657-10.922 6.202-21.845 12.406-32.408 19.104l.002.002c1.82 1.654 1.829 1.662 3.44.762 7.61-4.465 15.274-8.843 22.938-13.22 12.356-7.057 24.711-14.114 36.834-21.537zm-160.9-13.788c.993-1.147 1.652-.416 2.27-.065 4.234 2.416 8.448 4.868 12.674 7.301 38.485 22.147 76.909 44.395 115.358 66.603.573.335 1.49.622.925 1.503-.546.848-1.24.157-1.806-.166-43.018-25.201-86.884-49.328-129.417-75.18zm-10.601 114.869c3.495-.719 7.729-4.129 11.328-2.032 22.883 13.11 45.701 26.345 68.539 39.535 16.362 9.434 32.7 18.912 49.082 28.309 2.921 1.85 1.745 6.201 2.537 9.162.137 1.427-.606 1.895-1.931 1.156-13.098-7.43-26.094-15.041-39.148-22.555-29.762-17.219-59.529-34.421-89.356-51.519-.703-.404-1.427-.727-1.051-2.056m2.917.816c36.089 21.933 73.217 42.311 109.67 63.719 4.751 2.743 9.49 5.503 14.261 8.205.76.429 1.515 1.216 2.707.687-.428-2.594.368-5.595-2.517-6.872-6.064-3.426-12.092-6.92-18.127-10.399-18.112-10.427-36.195-20.899-54.282-31.366-14.718-8.468-29.387-17.021-44.137-25.424-2.666-1.285-4.634.565-7.575 1.45m12.46-58.245c-.003 4.757-.007 9.515 0 14.27h.008c.021 4.896.008 9.794-.004 14.693-.018 7.204-.037 14.409.052 21.606.053 2.229 1.984 3.204 3.803 4.121.542.273 1.073.542 1.542.836 1.297.671 1.972.231 2-1.252-.441-10.405-.253-20.974-.066-31.538.257-14.535.515-29.061-.863-43.133-.388-.165-.975-.594-1.641-1.081-1.897-1.386-4.439-3.242-4.852-.814.032 7.424.027 14.858.021 22.292m5.668 24.247q-.004 13.927 0 27.878c-2.974-.861-3.055-.905-3.055-3.208.057-8.942.022-17.89-.014-26.838v-.001c-.055-14.019-.11-28.038.188-42.035 2.42.17 2.76.46 2.873 2.408.014 13.946.011 27.868.008 41.796m44.73-14.558c.364-5.446-2.65-6.897-7.187-8.69-.232 15.655-.189 31.263-.146 46.881.025 9.136.051 18.275.021 27.43-.073 2.352 1.974 3.318 3.906 4.23h.001c.64.302 1.268.599 1.801.937.881.433 1.499-.064 1.556-1.078-.093-23.23-.101-46.476.048-69.71m-4.736 23.076c.003-9.427.006-18.857.001-28.304v-.004c2.853.998 2.873 1.014 2.958 2.949-.031 8.768-.008 17.537.014 26.305.037 14.708.075 29.415-.136 44.12-2.601-.602-2.723-.719-2.824-2.642-.021-14.16-.017-28.287-.013-42.424m54.659 39.309q.003-7.052-.001-14.106v-.001c-.003-7.054-.006-14.107.009-21.154.072-2.137.961-3.329 2.828-1.588.816.512 1.488.891 2.04 1.203 1.018.575 1.63.92 1.987 1.44.538.783.499 1.961.403 4.913l-.003.072c.052 9.243.029 18.489.007 27.735-.034 13.829-.068 27.658.147 41.478.073 1.927-1.285 2.048-2.586 1.087a50 50 0 0 0-2.771-1.661c-.991-.56-1.521-.859-1.798-1.312-.317-.52-.302-1.243-.269-2.795.015-.699.034-1.566.027-2.659-.044-7.433-.036-14.866-.027-22.299q.007-5.177.007-10.353m5.498 37.968c.275-14.806.226-29.58.177-44.361-.028-8.437-.056-16.876-.023-25.325-.126-1.907-.562-2.274-3.071-2.436v17.095q-.003 25.652.004 51.306c0 2.623.02 2.63 2.884 3.712l.025.009zm-15.662-5.583c1.013.491 2.037.987 2.851 1.588l.004-.004c.41-15.332.334-30.617.257-45.913v-.003c-.049-9.692-.098-19.388-.023-29.103.113-2.408-4.621-4.367-6.621-4.917-1.071 14.958-.888 30.138-.705 45.313.118 9.729.235 19.455.022 29.12.027 1.89 2.099 2.894 4.215 3.919m1.549-45.961v-.002c-.023-8.751-.045-17.504-.015-26.268-.105-1.935-.481-2.291-2.966-2.638-.243 14.203-.199 28.414-.156 42.625v.002c.028 9.177.056 18.354.007 27.527-.117 1.797.783 2.734 2.99 3.167.215-14.823.178-29.614.14-44.412zm-19.904-40.802c2.56.652 4.312 1.894 6.018 3.103q.279.2.559.395c.618.739.584 1.861.553 2.904v.001c-.011.389-.023.768 0 1.111.028 9.059.013 18.121-.002 27.183-.024 14.473-.048 28.946.103 43.408-.248 2.611-2.883.814-4.834-.517-.655-.447-1.233-.841-1.618-.998-1.095-.927-1.023-2.425-.955-3.829.022-.444.043-.878.026-1.281.048-9.318.02-18.616-.007-27.909-.042-14.513-.085-29.016.157-43.571m2.638 3.333c-.297 15.956-.241 31.884-.186 47.821.027 7.721.054 15.444.04 23.174.17 1.761.562 2.064 3.034 2.238q-.003-14.359 0-28.715v-.024c.002-13.663.004-27.324-.008-40.987 0-2.417-.039-2.432-2.81-3.478l-.066-.025zm-12.911 66.918c1.001.497 1.994.99 2.746 1.568.536-15.336.435-30.669.335-46.009v-.002c-.064-9.653-.127-19.31-.032-28.971.024-2.626-4.876-4.59-7.235-5.115-.006 9.067-.017 18.11-.027 27.146-.017 15.766-.035 31.509-.03 47.315-.044 1.937 2.117 3.011 4.243 4.068m-1.617-46.424c.002-9.58.005-19.164 0-28.768h.004c3.054 1.006 3.119 1.038 3.119 3.349-.059 9.163-.024 18.332.011 27.501v.001c.053 14.181.107 28.364-.185 42.524-2.42-.32-2.836-.72-2.937-2.8-.019-13.956-.016-27.877-.012-41.807m-45.494-57.133c2.062.548 3.526 1.558 4.911 2.515.566.39 1.119.772 1.694 1.109.696.722.668 2.014.643 3.132-.006.297-.012.581-.005.839.01 9.254.007 18.511.004 27.768-.005 14.35-.009 28.7.033 43.041-.342 2.395-2.914.648-4.795-.63-.63-.428-1.182-.803-1.548-.953-1.596-14.961-1.292-30.5-.988-46.045.202-10.312.403-20.626.051-30.776m2.56 31.857v.003c-.004 14.144-.009 28.279.013 42.444.101 1.899.481 2.254 2.994 2.598q-.006-14.052.001-28.102c.004-14.049.008-28.098-.013-42.15-.061-2.145-.122-2.194-2.99-3.111l-.004.004c.005 9.449.002 18.884-.001 28.314m12.061-23.484-.004-.002h.004zm.895.401a68 68 0 0 1-.895-.401c-.528 14.832-.454 29.669-.38 44.511.05 9.943.099 19.889-.032 29.835-.004 1.398.388 2.295 1.68 2.897.638.312 1.191.639 1.724.954 1.172.694 2.25 1.331 3.932 1.631-.019-10.084-.009-20.148.002-30.206.016-14.863.032-29.714-.05-44.602-.246-2.08-3.596-3.563-5.981-4.619m1.343 3.032c.006 9.459.003 18.9-.001 28.337-.006 14.153-.012 28.297.017 42.475.133 1.923.529 2.275 2.897 2.537.271-14.212.22-28.442.17-42.672-.032-9.11-.065-18.22-.013-27.325 0-2.3-.032-2.311-3.031-3.338zm84.222 40.956c-30.853-16.463-60.773-35.075-91.324-52.229-12.585-7.276-25.169-14.556-37.762-21.828-.776-.453-1.818-.735-1.757-2.372 44.141 24.216 87.68 50.173 131.267 75.528-.141.303-.282.602-.42.905zm.654 227.728c.037 1.143-.691 1.535-2.173.687-4.38-2.509-8.739-5.058-13.11-7.579-38.428-22.22-76.909-44.352-115.322-66.6-1.167-.695-1.373-1.79.198-2.323 3.091-.683 6.48-3.567 9.607-2.052a15060 15060 0 0 0 38.865 22.499c26.49 15.206 52.892 30.57 79.366 45.809 2.99 1.883 1.644 6.189 2.573 9.559zm-128.233-74.243c4.508 3.268 123.979 71.972 126.25 72.498-.469-2.525.517-5.648-2.263-6.917a30316 30316 0 0 0-42.759-24.652 44532 44532 0 0 0-72.575-41.964c-2.973-1.717-5.547-1.474-8.653 1.035m12.071-44.36v.004l-.004-.004zm0 0-.001-7.101c-.002-9.474-.004-18.95.025-28.423-.121-3.183 2.113-2.056 3.794-.78 3.541 1.593 3.532 2.079 3.478 4.959-.008.408-.017.865-.016 1.38.037 9.232.021 18.465.005 27.698v.001c-.024 14.018-.049 28.036.112 42.048-.02 1.822-.739 2.286-2.23 1.373-1.124-.685-2.006-1.173-2.699-1.557-1.232-.681-1.863-1.03-2.179-1.565-.334-.564-.318-1.333-.286-2.913.014-.664.03-1.471.025-2.465-.037-7.723-.03-15.447-.022-23.171q.005-4.742.006-9.484zm5.676 9.439c-.002 9.452-.005 18.907 0 28.375h-.004c-2.945-.771-3.03-.812-3.05-2.937-.026-13.592-.02-27.182-.014-40.772v-.002c.004-9.453.008-18.907.002-28.362 2.5.181 2.945.569 3.054 2.452.019 13.762.016 27.501.012 41.246m39.76-21.785q-.793-.487-1.582-.978l.005.004-.768.408v70.462q0 5.627 4.872 8.342c1.867 1.043 2.384.711 2.384-1.507q-.017-34.879-.029-69.758c-.014-.32-.005-.67.004-1.033.028-1.152.06-2.428-.638-3.217-1.379-.96-2.813-1.842-4.248-2.723m.236 30.265c.003-9.241.007-18.486 0-27.748h.005l.026.01c2.915 1.173 2.935 1.181 2.935 3.819-.067 9.127-.027 18.254.013 27.38v.001c.061 14.142.123 28.282-.211 42.419-1.778-.295-2.719-.958-2.747-2.558-.032-14.461-.027-28.887-.021-43.323m54.657 2.297c2.143-.025 3.569.986 5.1 2.071h.001v.001c.425.301.859.609 1.319.902.924.808.892 2.128.864 3.331-.007.276-.013.546-.008.801.041 9.008.018 18.017-.004 27.026v.002c-.036 14.415-.072 28.831.15 43.24.02 1.956-.683 2.376-2.348 1.451q-5.074-2.824-5.074-8.545zm5.668 75.585c-.005-9.458-.002-18.896 0-28.331v-.021c.004-13.713.007-27.418-.012-41.157-.101-1.963-.416-2.286-2.917-2.767-.258 14.594-.212 29.197-.166 43.799.027 8.467.054 16.933.021 25.398.016 2.129.117 2.19 3.07 3.079zm-41.785-20.62.004.003h-.004zm.404-47.56c.127 15.87.253 31.739-.404 47.56-.754-.568-1.757-1.035-2.768-1.506-2.174-1.013-4.38-2.041-4.201-4.122.145-15.236.124-30.471.103-45.707-.012-8.531-.024-17.063-.006-25.595-.089-1.107-.085-3.45 1.591-2.671.498.361 1.166.699 1.868 1.055 1.701.861 3.599 1.822 3.748 3.45-.078 9.172-.005 18.354.069 27.536m-4.695-.271v-.011c.003-9.559.005-19.122 0-28.7 3.01.763 3.111.844 3.119 3.211.012 13.501.009 27 .005 40.499q-.004 14.727-.001 29.454c-2.642-.247-3.014-.594-3.111-2.719-.019-13.923-.015-27.817-.012-41.719v-.011zm33.024 64.431c-.729-.549-1.713-1.026-2.713-1.51-2.158-1.047-4.388-2.128-4.281-4.041-.016-10.721.004-21.446.023-32.17v-.001c.025-13.583.049-27.165.002-40.739.052-1.636.977-1.798 2.27-1.022q5.014 2.71 5.014 8.387c-.112 9.329-.043 18.659.026 27.986.106 14.378.212 28.751-.341 43.11m-4.263-76.421c-.157 15.553-.127 31.108-.097 46.662v.001c.015 7.924.03 15.847.021 23.77.121 1.935.46 2.247 3.009 2.618.159-15.111.13-30.224.101-45.337v-.001c-.016-8.365-.032-16.73-.016-25.095-.105-1.964-.388-2.222-3.018-2.618m-13.898-10.732c-.898-.564-1.531-.962-3.127-1.279.002 7.552 0 15.086-.001 22.613-.002 16.303-.005 32.573.018 48.915.001.832-.024 1.51-.044 2.072-.042 1.169-.067 1.84.197 2.369.355.713 1.235 1.164 3.302 2.226l.264.135.325.167c.569.451 1.265.59 1.961.729h.001c.276.055.552.11.821.184.729-13.855.597-27.829.466-41.805-.094-9.974-.188-19.95.031-29.884.012-2.824-.448-4.913-3.349-5.915-.329-.191-.608-.366-.865-.527m2.559 32.199c.064 14.504.129 29.004-.24 43.507h-.004c-2.703-.472-2.852-2.032-2.852-3.817.088-9.406.046-18.815.004-28.224v-.002c-.062-13.804-.124-27.606.226-41.396 2.606.744 2.764.917 2.848 2.921-.063 9.006-.023 18.008.018 27.01m-59.777-65.275c2.234 1.201 4.555 2.448 4.105 5.258q.017 35.518.028 71.036c0 2.117-.582 2.436-2.529 1.422q-4.739-2.465-4.739-7.898c.04-9.29.016-18.582-.007-27.874-.036-14.353-.072-28.707.124-43.053h.002q.327-.17.649-.335c.669.531 1.512.984 2.367 1.444m2.421 47.492v-.002c.004-14.161.009-28.312-.013-42.498-.117-2.024-.445-2.315-2.99-2.4q.002 13.364-.001 26.728c-.002 14.255-.005 28.51.005 42.764 0 2.659.033 2.67 2.985 3.757l.013.004c-.005-9.464-.002-18.91.001-28.353m12.871 38.13c.952.426 1.947.872 2.852 1.491h.004c.433-16.92.35-33.786.267-50.67-.04-8.176-.08-16.355-.061-24.547-.296-1.665-2.007-2.522-3.61-3.326-.672-.336-1.326-.664-1.848-1.037-1.047-.529-1.665-.069-1.745 1.115 0 10.494-.015 20.992-.029 31.491-.019 13.817-.038 27.636-.024 41.451.29 2.286 2.14 3.114 4.194 4.032m1.515-44.052c.055 14.101.109 28.203-.182 42.291-2.671-.651-2.873-.816-2.889-3.026.039-8.61.007-17.222-.024-25.834-.054-14.802-.108-29.603.194-44.394 2.804.623 2.888.715 2.888 3.552-.058 9.134-.023 18.273.013 27.411m-49.563-66.417c43.495 24.624 89.51 49.543 131.086 76.364-39.952-21.472-78.792-45.486-118.384-67.803-3.77-2.178-7.551-4.335-11.292-6.561-.654-.388-1.774-.574-1.414-2zm236.727-105.666c.376 31.185-.056 62.24.222 93.417.016 3.47-.836 5.313-3.995 7.074-25.893 14.548-51.466 29.666-77.201 44.497-1.345.751-4.326 3.018-4.282.048-.036-3.224.008-6.448.008-9.672 0-28.146.032-56.305.008-84.448-.145-1.474.428-2.363 1.766-3.123 7.874-4.476 15.691-9.057 23.529-13.59 20.082-11.268 39.543-23.525 59.941-34.199zM253.45 346.165c24.006-12.697 46.989-27.225 70.769-40.392 2.048-1.143 2.69-2.561 2.638-4.807-.275-27.068.275-54.088-.198-81.16-23.868 12.811-46.904 27.169-70.567 40.4-2.072 1.176-2.694 2.473-2.69 4.735.072 27.117.04 54.092.044 81.224zm.032 10.181c27.202-15.219 54.343-30.571 80.869-46.84-3.317-1.757-5.83-4.852-9.457-2.416-10.286 6.036-20.625 11.975-30.947 17.942-12.887 7.442-25.791 14.863-38.663 22.333-3.179 1.515-1.329 5.547-1.797 8.977zm81.564-141.602c-3.143 2.121-7.046 2.505-6.557 7.07.121 27.072-.048 54.164.093 81.232.319 2.251 4.48 3.729 6.424 4.537.755-2.153.848-89.898.04-92.835zm2.206 178.814c0 15.595-.016 31.189.029 46.783 0 1.289-.336 2.065-1.491 2.727-27.299 15.587-54.459 31.411-81.665 47.151-1.68.966-2.307.574-2.307-1.45.004-31.189.029-62.382 0-93.571 0-1.676.534-2.67 2.032-3.53 27.262-15.635 54.419-31.48 81.697-47.079 1.079-.436 1.633-.076 1.689 1.136-.069 15.937-.016 31.887-.032 47.829h.044zm-10.435-41.85c-23.788 12.972-46.763 27.036-70.373 40.299-2.125 1.208-3.062 2.529-3.054 5.094.557 26.951-.832 54.157.549 80.974 23.994-13.203 47.478-27.403 71.331-40.905 1.777-.852 1.539-2.687 1.543-4.331v-81.131zm-73.306 136.483c26.676-15.021 55.336-30.223 80.38-46.9-2.376-.95-5.066-4.485-7.866-2.776-17.675 10.27-35.398 20.463-53.098 30.692-5.878 3.39-11.78 6.739-17.626 10.185-3.067 1.899-1.455 5.583-1.794 8.799zm81.6-48.213c.76-3.224.626-90.953-.117-93.049-2.141 1.244-5.733 2.125-6.404 4.718-.161 27.004 0 54.035-.056 81.051-.792 4.803 3.22 5.009 6.577 7.28m29.742-195.556c0-15.162.041-30.324-.044-45.486-.012-2.327.573-3.737 2.747-4.965 26.902-15.385 53.772-30.834 80.505-46.513 1.414-.824 2.133-.44 2.198 1.172-.113 30.49-.089 60.996.048 91.489.021 3.592-.921 5.471-4.157 7.248-26.535 14.807-52.572 30.514-79.026 45.47-1.782.994-2.295.655-2.295-1.365v-47.05zm1.584 35.944.723.376c23.517-13.175 46.674-27.032 70.155-40.287 1.87-1.071 2.682-2.356 2.65-4.582-.38-27.096.452-54.208-.311-81.284-23.909 12.831-47.086 27.205-70.793 40.501-1.725.985-2.473 2.06-2.469 4.088.061 27.064.041 54.124.041 81.188zm.093 10.742c27.12-15.327 54.342-30.481 80.759-46.864-3.114-1.49-5.49-4.799-8.884-2.666-18.107 10.569-36.307 20.98-54.451 31.484-5.195 3.001-10.403 5.995-15.558 9.069-3.228 1.944-1.49 5.422-1.862 8.981zm81.879-141.678c-3.43 2.04-7.394 2.597-7.006 7.377.154 26.999-.016 54.006.105 81.006.36 2.395 4.711 3.607 6.896 4.876v-93.255zm-83.555 227.148c0-15.336.04-30.672-.045-46.008-.012-2.214.756-3.418 2.667-4.505a33704 33704 0 0 0 79.875-46.068c.901-.634 2.622-1.583 2.884.138 0 30.918-.089 61.868.081 92.794.016 3.224-1.058 4.711-3.701 6.206-26.615 15.206-53.142 30.583-79.676 45.923-1.519.796-2.113.468-2.134-1.176-.121-15.768-.028-31.536-.056-47.304zm1.879 36.339c23.799-12.952 46.888-27.096 70.502-40.396 2.048-1.163 2.763-2.512 2.727-4.779-.344-27.06.428-54.087-.287-81.139-24.018 12.952-47.228 27.302-71.032 40.674-1.458.837-2.254 1.794-2.25 3.681.323 27.326-.456 54.657.344 81.959zm-.223 10.084c3.479-1.268 78.942-45.074 80.627-46.807-2.723-1.107-5.256-4.687-8.274-2.824-8.274 4.828-16.589 9.591-24.887 14.382-15.142 8.791-30.344 17.477-45.47 26.28-3.272 1.907-1.705 5.624-1.996 8.969m81.952-141.573c-3.459 2.052-7.426 2.593-7.046 7.272.085 25.957.097 51.909-.008 77.866-.012 3.091.404 5.426 3.672 6.485 1.091.351 1.879 1.571 3.382 1.196z"/>
    <path fill="#fff" d="M322.37 230.161c.065-.992.133-2.028-.644-3.087-12.982 7.182-25.825 14.671-38.669 22.161-8.348 4.867-16.695 9.735-25.082 14.518-2.279 1.095-2.091 3.45-1.904 5.778.081 1.014.162 2.023.038 2.921 1.468.209 2.39-.479 3.264-1.132.305-.227.603-.451.917-.63a9497 9497 0 0 0 32.713-18.81l3.756-2.166c2.32-1.337 4.634-2.687 6.948-4.036 5.212-3.04 10.423-6.08 15.709-8.985 2.23-1.228 3.345-2.597 2.961-5.102-.071-.464-.039-.942-.007-1.43m-64.359 38.515c13.315-7.226 26.4-14.872 39.488-22.519 6.849-4.003 13.699-8.005 20.583-11.948 1.798-1.055 1.875-1.455.889-3.584-9.259 4.981-18.356 10.287-27.453 15.592-5.624 3.28-11.248 6.561-16.91 9.763a2191 2191 0 0 0-5.796 3.367c-3.183 1.852-6.364 3.704-9.56 5.53-1.406.803-2.056 1.781-1.241 3.799m-1.632 20.503v.002h-.004zm0 0-.075-.474c-.42-2.622-1.151-7.197 1.469-8.355 14.5-8.315 28.979-16.657 43.45-25.016 4.042-2.335 8.066-4.694 12.091-7.054q3.196-1.875 6.396-3.745c.82-.63 2.586-1.268 2.647.307-.018.594.017 1.222.051 1.858.128 2.36.262 4.822-2.205 6.012-8.288 4.653-16.513 9.496-24.739 14.34-12.943 7.621-25.888 15.243-39.085 22.127m36.215-23.68c-11.437 6.656-22.873 13.312-34.448 19.715-.748-2.473-.776-2.63.937-3.668 5.998-3.457 11.985-6.946 17.973-10.435h.001c13.934-8.119 27.875-16.243 41.984-23.982.872 2.23.767 2.678-.95 3.668-8.537 4.833-17.017 9.768-25.496 14.702m-36.517 56.927c.117-1.029.04-2.127-.035-3.196-.163-2.322-.317-4.508 1.55-5.562 8.311-4.673 16.553-9.537 24.796-14.401 13.046-7.699 26.093-15.399 39.42-22.343.392 1.208.747 2.391.57 3.672a89 89 0 0 0-.003 1.529c.006 1.331.009 1.962-.274 2.415-.255.41-.743.674-1.673 1.176-.433.234-.961.52-1.606.896-7.873 4.447-15.664 9.007-23.45 13.564h-.001c-12.989 7.603-25.965 15.198-39.294 22.25m63.153-42.25c-12.387 6.618-24.54 13.726-36.694 20.835-7.717 4.514-15.434 9.028-23.211 13.416-1.935 1.127-2.076 1.665-.965 3.903 8.428-4.797 16.817-9.647 25.207-14.499l.003-.002q5.92-3.424 11.849-6.843l5.652-3.265c5.652-3.267 11.303-6.535 16.976-9.768 1.466-.836 1.951-1.866 1.183-3.773zm-63.181 58.762v-.004c9.226-4.535 18.062-9.78 26.907-15.029 5.779-3.43 11.562-6.862 17.46-10.1a4469 4469 0 0 0 20.321-11.793c2.375-1.014 1.792-5.397 1.432-8.105l-.087-.666c-13.996 7.419-27.699 15.483-41.4 23.545h-.001c-7.674 4.516-15.348 9.032-23.073 13.434-1.922 1.37-1.772 3.327-1.602 5.527.079 1.021.162 2.095.043 3.187zm63.238-42.242c-12.285 6.522-24.298 13.573-36.312 20.624-7.922 4.65-15.845 9.301-23.848 13.8-1.729 1.006-1.85 1.653-.715 3.717 13.281-7.551 26.502-15.208 39.723-22.864l.002-.001.001-.001a12413 12413 0 0 1 19.69-11.385c1.908-1.108 1.899-1.162 1.472-3.81zm-62.782 9.041c-1.406-5.608-1.337-7.741 4.081-10.423 8.516-4.694 16.899-9.651 25.278-14.607 11.973-7.08 23.941-14.158 36.287-20.46.026.658.101 1.351.176 2.05.291 2.695.592 5.488-1.848 6.765-4.792 2.84-9.611 5.624-14.435 8.407-6.837 3.791-13.604 7.781-20.371 11.769-9.659 5.694-19.316 11.386-29.168 16.499m1.515-3.79c13.218-7.477 26.325-15.07 39.441-22.668h.001c6.804-3.942 13.61-7.884 20.435-11.813 1.943-1.123 2.052-1.519 1.147-3.781-11.836 6.403-23.511 13.219-35.187 20.036-8.082 4.719-16.164 9.438-24.302 14.021-2.036 1.184-2.084 1.394-1.535 4.205m-1.956 102.968c.121-1.037.043-2.137-.033-3.208-.162-2.275-.314-4.423 1.464-5.571 5.069-3.005 10.168-5.951 15.269-8.898l.745-.431 3.195-1.841c14.315-8.249 28.629-16.497 42.869-24.871 1.152-.695 2.86-1.305 2.832.662q-.005.674-.005 1.265c-.006 4.128-.008 5.395-4.544 7.607-8.453 4.728-16.8 9.618-25.144 14.505h-.001c-12.119 7.099-24.231 14.193-36.651 20.785zm63.057-42.335c-12.231 6.647-24.283 13.676-36.334 20.704-7.797 4.548-15.593 9.095-23.438 13.539-1.915 1.115-2.073 1.696-1.071 3.785 12.169-6.649 24.183-13.65 36.195-20.651h.001c7.768-4.528 15.536-9.056 23.346-13.487 1.996-1.168 2.056-1.458 1.301-3.895zm2.925 29.686c.036.343.085.723.138 1.126.349 2.699.835 6.455-1.326 7.551-4.9 2.845-9.81 5.675-14.72 8.505l-.001.001-.005.003q-3.49 2.01-6.977 4.024c-5.868 3.203-11.635 6.644-17.401 10.085-8.377 4.999-16.751 9.996-25.423 14.256-.612-2.38-.384-4.685-.162-6.932l.033-.332c.06-.619 1.107-1.253 1.826-1.677 3.699-2.18 7.418-4.326 11.137-6.472q1.545-.89 3.088-1.782c6.774-3.739 13.446-7.692 20.117-11.644l.001-.001c9.791-5.801 19.579-11.6 29.679-16.716zm-63.925 41.458c13.244-7.113 26.247-14.735 39.245-22.355h.001c6.957-4.078 13.914-8.156 20.905-12.155 1.669-.985 1.681-1.309.626-3.567-18.798 10.677-37.481 21.537-56.171 32.4l-.001.001-3.482 2.024c-1.899 1.107-1.911 1.244-1.123 3.652m64.243-21.864c-.071-.979-.145-1.983-.044-2.954-8.879 4.001-17.314 9.092-25.752 14.184-5.587 3.372-11.175 6.744-16.894 9.802a6998 6998 0 0 1-8.388 4.834l-.004.002c-4.447 2.56-8.893 5.12-13.331 7.696-2.64 1.034-2.135 5.034-1.777 7.867.044.355.087.691.12 1.001 10.321-5.163 20.296-11.07 30.276-16.98h.001c6.733-3.987 13.468-7.975 20.312-11.737l2.865-1.649c3.573-2.056 7.147-4.111 10.685-6.225 2.265-1.293 2.103-3.498 1.931-5.841m-3.199.329c-14.975 8.265-29.758 16.874-44.543 25.486l-.002.001c-5.196 3.026-10.393 6.053-15.599 9.065-1.7 1.01-1.688 1.228-.844 3.499 12.187-6.546 24.152-13.558 36.117-20.571h.001c7.922-4.643 15.844-9.286 23.832-13.794 1.689-.981 1.676-1.034 1.046-3.653zm3.043 12.926c.013.607.074 1.288.136 1.999.248 2.815.537 6.096-1.833 7.083-8.098 4.533-16.107 9.265-24.117 13.997-13.295 7.855-26.59 15.709-40.293 22.658.12-.946.043-2.001-.033-3.05-.168-2.305-.335-4.588 1.589-5.648 5.523-3.207 11.058-6.391 16.594-9.576l.002-.001q4.942-2.841 9.882-5.691c5.431-2.974 10.738-6.142 16.04-9.308 7.252-4.33 14.495-8.654 22.033-12.467zm-29.03 21.753c-11.619 6.757-23.236 13.513-34.985 20.027-.815-2.366-.815-2.625.878-3.651 5.581-3.222 11.156-6.469 16.733-9.716 14.348-8.355 28.709-16.717 43.22-24.7.921 2.302.849 2.638-.905 3.652-8.345 4.737-16.643 9.562-24.94 14.387zm-37.101-25.472v.006l-.004-.004zm-.016-2.169c.008.694.016 1.414.016 2.169 9.019-4.502 17.699-9.65 26.386-14.801 5.88-3.488 11.764-6.977 17.759-10.269q3.973-2.296 7.944-4.596c4.281-2.478 8.561-4.957 12.85-7.423 1.648-.978 1.513-2.947 1.384-4.817-.053-.78-.105-1.542-.027-2.209.008-2.27-2.246-.937-3.333-.242-12.017 6.908-24.012 13.853-36.008 20.798q-7.303 4.23-14.609 8.455l-1.895 1.096c-2.985 1.725-5.97 3.449-8.924 5.223-.614.368-1.414 1.042-1.459 1.628-.122 1.6-.104 3.21-.084 4.988m40.484-23.92c-12.761 7.456-25.522 14.912-38.501 21.974l-.004.004c-.574-2.549-.525-2.812 1.083-3.745 7.909-4.468 15.761-9.06 23.612-13.652 12.053-7.049 24.105-14.097 36.366-20.7.775 2.412.796 2.553-1.119 3.685-7.172 4.099-14.304 8.266-21.437 12.434M435.22 161.675c-.004.678.062 1.454.132 2.262.226 2.642.483 5.631-1.587 6.682a9367 9367 0 0 1-19.2 11.083l-.005.003q-5.435 3.131-10.869 6.266-11.555 6.677-23.104 13.362l-8.759 5.069c-1.156.888-3.022 1.503-2.953-.623.056-.604.03-1.289.003-1.994-.082-2.131-.171-4.437 2.001-5.233 8.854-4.967 17.616-10.117 26.375-15.265v-.001c12.57-7.388 25.135-14.773 37.961-21.611zm-3.002 3.401c-20.123 11.462-39.923 22.948-59.917 34.575-1.911 1.115-1.915 1.228-1.172 3.668 12.966-6.965 25.7-14.418 38.433-21.87 7.163-4.193 14.326-8.385 21.529-12.49 1.739-1.02 1.725-1.086 1.145-3.802l-.018-.085zm3.111 13.211c-.109 1.052-.03 2.111.046 3.131.175 2.358.335 4.505-1.877 5.87-3.465 2.071-6.967 4.082-10.468 6.092h-.001l-2.854 1.641c-16.383 9.401-32.724 18.867-49.054 28.353-1.523.88-2.275.505-2.323-1.273.058-.573.045-1.217.032-1.879-.04-2.068-.083-4.312 2.004-5.114 2.258-1.306 4.519-2.605 6.78-3.905l.002-.001.002-.001.003-.002q3.397-1.95 6.787-3.909c6.734-3.74 13.37-7.668 20.004-11.595 10.197-6.035 20.387-12.067 30.917-17.408m-3.111 3.555c-15.445 8.434-30.653 17.31-45.858 26.185-4.753 2.774-9.506 5.548-14.265 8.309-1.728 1.046-1.702 1.126-.913 3.583l.02.061c12.247-6.8 24.354-13.846 36.461-20.892h.001c7.797-4.538 15.595-9.077 23.431-13.549 1.725-.998 1.741-1.123 1.127-3.697zm3.135 19.825v-6.84c-8.934 4.403-17.472 9.487-26.02 14.578-5.639 3.358-11.282 6.718-17.047 9.888q-3.58 2.07-7.164 4.134l-.002.001c-4.776 2.753-9.552 5.506-14.31 8.288-2.135 1.088-2.068 3.396-2.005 5.568.019.668.038 1.324-.007 1.926.162 2.214 2.116.934 3.418.081.218-.144.419-.275.589-.376 16.948-9.817 33.92-19.594 50.904-29.354.678-.536 2.185-1.34 3.897-2.253 3.515-1.874 7.896-4.21 7.747-5.641m-28.758 14.605c8.127-4.766 16.254-9.532 24.459-14.133 1.891-1.099 2.04-1.818.869-3.688-12.175 6.73-24.223 13.733-36.27 20.735-7.725 4.491-15.449 8.981-23.207 13.399-1.462.832-2.29 1.829-1.431 3.909 12.016-6.403 23.797-13.312 35.58-20.222m28.787-1.564c.174 2.216.328 4.179-1.681 5.51-12.195 7.162-24.438 14.216-36.683 21.272a6931 6931 0 0 0-27.158 15.702c-1.159-.87-.963-3.23-.797-5.235.069-.825.132-1.589.095-2.166.04-.501.848-1.046 1.418-1.377 6.758-3.96 13.538-7.895 20.321-11.809 6.037-3.258 11.923-6.78 17.804-10.299 8.73-5.223 17.449-10.44 26.636-14.778-.12 1.089-.036 2.161.045 3.18m-64.338 38.38c11.909-6.467 23.642-13.318 35.375-20.17l.001-.001c8.168-4.77 16.336-9.54 24.566-14.181 1.963-1.144 2.064-1.608 1.018-3.762-12.424 6.827-24.706 13.973-36.987 21.118-7.495 4.361-14.989 8.721-22.514 13.008-1.988 1.152-2.053 1.378-1.459 3.992zm64.337-20.05a22 22 0 0 1-.008-.773l-.004-.004h.016c-.001-.225.003-.47.008-.726.037-1.98.085-4.555-2.541-2.716-11.414 6.748-22.904 13.369-34.393 19.991a10288 10288 0 0 0-12.107 6.984c-5.2 3.002-10.395 6.008-15.571 9.05-2.101.969-1.974 3.128-1.852 5.212.046.794.092 1.576.014 2.278.109 1.661 2.04.861 2.913.226a9213 9213 0 0 1 26.926-15.55q7.448-4.289 14.892-8.585c2.47-1.426 4.935-2.86 7.401-4.293 4.228-2.459 8.457-4.917 12.706-7.342 1.663-.762 1.632-2.244 1.6-3.752m-39.552 19.132c12.057-7.058 24.113-14.114 36.401-20.688v.004c.965 2.519.134 3.001-1.557 3.981l-.003.002c-7.756 4.405-15.473 8.899-23.192 13.394-12.046 7.015-24.093 14.03-36.289 20.708-.844-2.214-.751-2.719.926-3.693 7.948-4.48 15.832-9.094 23.714-13.708m39.525 44.812c-.08-1.024-.16-2.059-.038-3.018v-.004c-10.02 4.788-19.689 10.561-29.361 16.335-6.282 3.75-12.565 7.501-18.945 10.983q-1.785 1.033-3.571 2.064c-4.315 2.493-8.63 4.985-12.921 7.515-1.84 1.064-1.735 3.162-1.635 5.144.034.69.068 1.366.019 1.979.024 2.08 2.133 1.034 3.164.315a16539 16539 0 0 1 33.012-19.059q6.688-3.853 13.375-7.71c5.054-2.917 10.108-5.838 15.126-8.815 2.129-1.194 1.954-3.432 1.775-5.729m-3.072.281c-12.611 6.831-25.031 14.08-37.452 21.329-7.536 4.398-15.072 8.796-22.651 13.102-1.758 1.034-1.834 1.482-.93 3.656 12.167-6.588 24.158-13.592 36.149-20.595 7.827-4.571 15.653-9.141 23.526-13.596 1.87-1.086 1.887-1.224 1.358-3.896m3.063 13.018c-.129.986-.055 2.129.019 3.266.158 2.422.314 4.815-1.506 5.59a3162 3162 0 0 0-9.101 5.272q-3.47 2.018-6.946 4.028-10.098 5.824-20.192 11.652c-8.729 5.04-17.458 10.079-26.191 15.109-1.955 1.123-2.662.687-2.658-1.527l.004-.152c.153-5.173.159-5.388 4.953-8.041 8.558-4.766 16.989-9.721 25.416-14.674 11.959-7.029 23.908-14.052 36.202-20.523m-64.212 41.657c13.466-7.284 26.772-15.056 40.069-22.822 6.674-3.898 13.346-7.794 20.034-11.627 1.697-1.026 1.689-1.244.901-3.555-12.447 6.672-24.673 13.826-36.898 20.98h-.001c-7.65 4.477-15.3 8.954-23.002 13.311-1.782 1.034-1.842 1.317-1.103 3.709zm64.179 8.282c0 .769.017 1.501.033 2.206.039 1.673.075 3.189-.13 4.67-.109.796-1.228 1.612-2.073 2.117-3.36 2.008-6.755 3.959-10.15 5.909l-.001.001-.002.001q-1.36.78-2.718 1.563c-6.975 3.875-13.868 7.923-20.759 11.97-9.936 5.836-19.87 11.67-30.044 16.981-.694-1.501-.622-2.984-.549-4.506.031-.621.061-1.248.04-1.886-.012-1.26.816-1.854 1.737-2.387q6.309-3.645 12.624-7.279l4.793-2.761 11.629-6.707c10.15-5.851 20.299-11.702 30.431-17.581 1.717-1.184 2.873-1.85 5.135-2.311zm-64.244 41.535c11.963-6.669 23.783-13.539 35.606-20.41 8.136-4.729 16.274-9.458 24.461-14.124 1.765-1.022 1.85-1.394.941-3.664-11.986 6.502-23.783 13.391-35.58 20.281-8.017 4.683-16.034 9.365-24.111 13.926-1.495.848-2.226 1.878-1.321 3.991zm64.315-70.099-.01-.5v-.004l.01-.219c.1-2.131.236-5.043-2.657-3.017-10.731 6.25-21.484 12.461-32.236 18.672l-.003.002-.003.001-.003.002-.003.002a21068 21068 0 0 0-17.826 10.302l-.003.001-.002.002-.002.001c-3.954 2.283-7.908 4.566-11.84 6.89-2.115 1.049-2.049 3.271-1.987 5.38.019.638.038 1.266-.004 1.848.032 1.309.771 1.689 1.927 1.188 16.707-9.81 33.518-19.472 50.325-29.131q6.27-3.604 12.537-7.209c1.859-.825 1.82-2.504 1.78-4.211m-39.049 19.209c11.899-6.978 23.797-13.956 35.944-20.468l.018.095c.479 2.532.493 2.604-1.283 3.65a4495 4495 0 0 0-19.14 11.098h-.001c-13.487 7.849-26.979 15.701-40.606 23.242-.99-2.077-.905-2.582.824-3.588 8.134-4.581 16.189-9.305 24.244-14.029m39.043-3.112.01.327c.052 1.785.103 3.507-1.816 4.375-20.894 11.999-41.781 24.006-62.571 36.182-1.309.764-2.129.485-2.174-.892.028-.567.009-1.171-.01-1.783-.072-2.306-.149-4.738 2.265-5.833 2.983-1.766 5.988-3.491 8.994-5.217l.003-.002q2.165-1.24 4.327-2.489a72205 72205 0 0 0 48.338-27.949c2.893-2.072 2.772 1.236 2.638 3.281zm-62.028 32.986-1.25.727c-1.705 1.002-1.693 1.168-.901 3.596 12.209-6.671 24.225-13.696 36.241-20.722h.001c7.88-4.608 15.76-9.216 23.695-13.723 1.721-.997 1.713-1.03 1.088-3.808l-.009-.042c-19.784 11.235-39.235 22.551-58.865 33.972"/>
</svg>
