<svg xmlns="http://www.w3.org/2000/svg" width="550" height="550" fill="none" viewBox="0 0 550 550">
    <path fill="#fff" fill-rule="evenodd" d="M191.001 145.236v.001c-.127.373-.263.776-.407 1.227l-.015.008c-.45-.242-.859-.464-1.241-.671l-.009-.005-.01-.006-.003-.001-.002-.002-.002-.001c-.788-.427-1.461-.792-2.14-1.141q-.42-.216-.837-.442c-.815-.438-1.632-.877-2.496-1.165-3.754-1.253-7.522-.837-11.183.369-6.126 2.016-11.457 5.498-16.33 9.623-16.227 13.746-26.803 31.07-32.372 51.537-.717 2.635-1.515 5.248-2.313 7.862v.001l-.001.001c-.58 1.901-1.161 3.803-1.711 5.714-.536 1.871-1.607 3.237-3.117 4.453-4.159 3.355-8.326 6.718-12.287 10.301-5.32 4.81-9.494 10.62-13.552 16.487-1.224 1.767-2.705 3.098-4.595 4.14q-3.741 2.057-7.488 4.107c-8.99 4.923-17.98 9.847-26.836 15.003-9.479 5.52-14.382 14.095-14.754 25.061-.148 4.369-.11 8.744-.072 13.119.018 1.981.035 3.962.035 5.943v.001c.004.539.008 1.082.037 1.624.227 4.066 1.842 7.135 5.573 9.259 4.373 2.489 8.679 5.093 12.986 7.696l.002.002.002.001a841 841 0 0 0 8.783 5.262c1.637.96 2.615 2.142 3.266 3.958 1.12 3.125 2.41 6.223 3.988 9.136 2.816 5.193 6.73 9.434 11.904 12.432q1.186.688 2.375 1.371c3.44 1.98 6.882 3.962 10.199 6.133 3.28 2.146 6.811 3.619 10.453 4.947 1.123.409 2.169 1.105 3.155 1.808a85 85 0 0 1 2.606 1.969c1.34 1.04 2.679 2.079 4.104 2.983 2.577 1.633 5.201 3.193 7.825 4.752l.002.001.001.001c1.97 1.171 3.941 2.342 5.892 3.545 3.136 1.934 6.532 3.177 10.051 4.136 5.733 1.567 11.514 1.358 17.283.313 1.485-.268 2.675-.007 3.947.755a52488 52488 0 0 0 92.305 55.361c1.595.956 2.276 2.024 2.217 3.902-.123 3.795-.112 7.597.026 11.391.156 4.293 1.841 7.678 5.825 9.888 4.74 2.626 9.375 5.465 13.921 8.418 3.4 2.206 6.863 2.697 10.605 1.295 1.228-.462 2.418-1.053 3.568-1.689q21.139-11.74 42.277-23.477c53.653-29.789 107.305-59.579 160.902-89.473 10.855-6.057 16.371-15.814 16.598-28.272.151-8.204.103-16.411.055-24.618v-.003q-.021-3.498-.036-6.996a29 29 0 0 0-.461-5.074c-.57-3.073-2.381-5.342-5.041-6.923a1106 1106 0 0 0-5.476-3.223l-.003-.002-.004-.002-.004-.003-.004-.002-.004-.002-.004-.003-.004-.002-.004-.002-.004-.003-.002-.001h-.001c-3.307-1.938-6.613-3.876-9.883-5.876-2.868-1.756-5.811-2.039-8.906-.975-1.384.476-2.723 1.12-4.017 1.812-2.935 1.573-5.874 3.154-8.727 4.873-1.518.919-2.735.878-4.267-.045-16.529-9.962-33.076-19.892-49.623-29.822l-.007-.004-.007-.004-.025-.015q-9.045-5.428-18.091-10.859c-.429-.255-.835-.548-1.265-.858q-.314-.228-.654-.466a25 25 0 0 0 .369-.644l.001-.001.001-.002.001-.002.001-.002c.197-.348.362-.642.557-.915 5.338-7.448 10.141-15.215 14.21-23.429 8.233-16.613 13.902-33.96 15.152-52.586.703-10.479-.235-20.735-3.932-30.649-3.199-8.578-8.668-15.337-16.45-20.125-4.814-2.961-9.743-5.747-14.713-8.448-2.249-1.219-4.663-2.155-7.057-3.084l-.383-.149c-1.398-.543-2.578-1.287-3.723-2.265-2.113-1.805-4.275-3.605-6.629-5.06-2.639-1.63-5.339-3.161-8.039-4.692h-.001a345 345 0 0 1-5.631-3.239c-7.697-4.553-16-6.145-24.805-5.003-2.147.275-3.914-.07-5.711-1.187-3.69-2.288-7.48-4.378-11.688-5.64-.918-.276-1.742-.92-2.543-1.547l-.003-.002a36 36 0 0 0-.53-.41c-.772-.584-1.52-1.203-2.268-1.821h-.001c-1.344-1.112-2.687-2.222-4.159-3.127-3.648-2.244-7.381-4.353-11.114-6.463h-.002a1135 1135 0 0 1-3.575-2.026c-3.456-1.968-7.09-3.449-11.044-4.126-7.284-1.246-14.356-.297-21.312 1.935-11.35 3.645-21.074 10.073-29.954 17.833-12.86 11.238-23.041 24.638-31.289 39.544-2.369 4.278-4.486 8.664-5.598 13.47-.146.639-.357 1.262-.609 2.008m64.898 305.848v2.757l-.023.003c-2.544-.755-92.68-54.911-93.985-56.41.676-.316 1.407-.527 2.134-.738 1.424-.412 2.838-.822 3.818-2.003a24 24 0 0 0-.22-.491l-.206.053-.178.044a5.5 5.5 0 0 0-.829.245c-6.781 2.79-13.79 4.151-21.122 3.262-10.914-1.324-19.072-6.848-24.507-16.386-4.65-8.158-6.298-17.079-6.577-26.338-.446-14.802 2.794-28.934 7.849-42.72 5.216-14.218 12.581-27.275 21.587-39.421 4.167-5.625 8.791-10.818 14.322-15.163 1.513-1.189 2.992-2.42 4.47-3.651l.001-.001h.001v-.001h.001v-.001h.001a226 226 0 0 1 3.982-3.265c1.082-.86 1.804-1.864 2.198-3.177a355 355 0 0 1 1.532-4.927c.952-3.012 1.903-6.024 2.706-9.075 4.91-18.678 14.24-34.749 28.167-48.118 4.777-4.583 10.074-8.478 16.045-11.41 3.604-1.77 7.38-2.931 11.42-2.596 1.467.123 2.916.449 4.366.775.737.166 1.475.332 2.215.471a99 99 0 0 0 2.588.438l1.217.198q.156-.3.311-.585v-.001c.231-.43.451-.841.634-1.266 5.409-12.518 12.28-24.166 20.788-34.831 9.46-11.852 20.303-22.156 33.602-29.656 7.429-4.188 15.301-7.13 23.872-7.9 9.047-.812 17.246 1.353 24.261 7.253 4.23 3.556 7.147 8.113 9.278 13.184 1.998 4.75 3.129 9.724 3.835 14.809.08.57.189 1.136.311 1.771v.001c.067.347.138.714.21 1.115.282-.139.526-.25.742-.348.393-.178.692-.314.958-.497a240 240 0 0 0 5.13-3.615c10.796-7.865 22.681-9.044 35.136-5.275 5.881 1.778 10.758 5.401 14.638 10.259 5.743 7.195 8.515 15.598 9.742 24.545 1.998 14.541-.044 28.741-4.066 42.728-4.973 17.298-12.904 33.171-23.171 47.913a71 71 0 0 1-1.608 2.177l-.001.002-.016.02-.445.59q-.212.28-.434.578c-1.533-.906-3.027-1.791-4.553-2.695l-3.516-2.081q.198-.29.377-.557l.164-.245.001-.001c.344-.513.648-.968.972-1.407 6.522-8.828 12.035-18.232 16.301-28.35 4.978-11.8 8.344-24.005 8.902-36.865.391-9.088-.625-17.983-4.616-26.293-3.151-6.566-7.86-11.659-14.694-14.542-5.428-2.291-11.071-2.727-16.867-1.983-6.971.893-12.956 4.126-18.648 7.931l-1.161.779c-2.83 1.901-5.652 3.797-8.742 5.266-.403.192-.813.371-1.326.595-.263.115-.553.241-.883.387-.021-.402-.046-.775-.069-1.129-.049-.733-.093-1.38-.08-2.025.104-5.606-.305-11.153-1.778-16.588-1.291-4.769-3.292-9.199-6.51-12.986-6.056-7.131-13.913-9.78-23.057-8.984-7.161.625-13.701 3.17-19.887 6.711-10.234 5.859-18.674 13.786-26.025 22.904-9.739 12.071-16.997 25.512-21.535 40.362-1.131 3.698-1.957 7.496-2.768 11.279-.301 1.414-.93 2.124-2.306 2.485a173 173 0 0 0-8.474 2.492c-1.142.365-2.069.194-3.073-.405a1045 1045 0 0 0-12.637-7.403 5 5 0 0 1-.321-.21c-.499-.344-1.049-.724-1.963-.177.187.154.356.303.516.444.324.286.611.54.935.732q2.697 1.59 5.4 3.169l.001.001c2.68 1.567 5.36 3.135 8.024 4.727 1.027.614 1.964.663 3.084.313 3.255-1.016 6.518-2.02 9.821-2.861 1.298-.331 1.659-1.041 1.942-2.198 1.231-5.037 2.477-10.078 3.887-15.066.517-1.821 1.226-3.588 1.935-5.353l.001-.003c.245-.611.491-1.222.728-1.835.139-.361.337-.699.577-1.111l.001-.001c.131-.225.275-.471.43-.756l91.194 54.714 1.107.664 2.55 1.53 3.832 2.299 3.428 2.057 2.849 1.709 2.047 1.229 105.9 63.536c-.435.261-.811.491-1.151.699-.59.361-1.072.656-1.565.93a339130 339130 0 0 1-65.026 36.132l-32.328 17.965-.01.005-.011.006-.01.006-.011.006-.01.006-.011.006-.01.006-.011.005-.011.006-.01.006a135887 135887 0 0 1-90.725 50.388c-8.422 4.669-13.574 11.837-16.193 20.914-.655 2.277-.896 4.728-.956 7.109-.099 3.893-.08 7.787-.062 11.68v.001q.012 2.298.014 4.594m28.651-323.101c3.11-2.421 6.358-4.642 10.156-6.577l.007.004c.584 1.736.451 3.254.325 4.696v.006q-.03.342-.057.677c-.149 1.964.532 3.092 2.266 4.04 4.214 2.303 8.344 4.762 12.432 7.28 1.179.729 2.031.622 3.177.008q.76-.406 1.52-.809l.002-.001h.002l.001-.001.002-.001.001-.001.002-.001.001-.001h.002c3.458-1.833 6.912-3.664 9.991-6.127.264-.213.568-.376.963-.587l.003-.001c.217-.116.461-.247.742-.409.084.332.178.644.268.944.188.623.359 1.19.394 1.768q.078 1.24.162 2.481l.001.006v.014c.219 3.261.439 6.524.391 9.783-.037 2.392.659 3.761 2.794 4.906 3.23 1.731 6.381 3.611 9.548 5.5a573 573 0 0 0 3.93 2.331c1.246-.704 2.51-1.362 3.771-2.018 2.945-1.532 5.869-3.054 8.49-5.125 1.068-.841 2.248-1.539 3.426-2.235q.437-.257.87-.517c.283-.17.608-.27 1.013-.395.217-.067.458-.142.728-.238q.06.456.121.858l.001.003c.082.552.155 1.044.172 1.539.286 8.027-.666 15.932-2.563 23.718-4.226 17.332-12.016 32.974-22.61 47.263-1.332 1.797-1.365 1.797-3.579.469q-22.822-13.684-45.637-27.372l-20.321-12.19-.054-.033-12.707-7.623-.299-.18h-.001l-.001-.001-.001-.001h-.001l-.002-.001-.001-.001h-.001l-.001-.001-.001-.001q-.546-.325-1.086-.655l-.017-.011c-2.208-1.347-2.297-1.402-1.062-3.802l.628-1.221c1.842-3.589 3.688-7.186 5.786-10.623 6.911-11.339 15.393-21.346 25.913-29.534m-10.829 357.215c-.085-.913-.186-1.799-.286-2.667-.21-1.839-.412-3.597-.424-5.355l-.007-.898v-.008c-.076-10.08-.152-20.165.007-30.245.201-12.741 5.87-22.618 16.956-28.797 48.657-27.126 97.36-54.175 146.062-81.224l.065-.035.064-.036.494-.275.049-.027.049-.027.049-.027q27.766-15.42 55.528-30.845c2.247-1.25 4.52-2.388 7.087-2.827.155-.027.295-.145.474-.297.1-.084.211-.178.344-.273q-.385-.255-.716-.482c-.413-.28-.781-.53-1.162-.76a418 418 0 0 0-3.164-1.881c-2.146-1.267-4.293-2.535-6.389-3.881-2.779-1.786-5.655-2.002-8.661-.904-1.376.502-2.704 1.164-3.991 1.867a1143 1143 0 0 0-8.876 4.916q-1.76.983-3.523 1.962-24.572 13.652-49.147 27.3l-.285.158c-46.86 26.026-93.719 52.052-140.548 78.135-10.985 6.119-16.584 15.743-16.703 28.365-.075 7.687-.053 15.376-.03 23.065v.006q.012 3.923.019 7.846c0 1.313.029 2.641.201 3.939.435 3.259 1.956 5.781 4.929 7.436 2.158 1.205 4.269 2.491 6.38 3.777l.002.001.001.001c1.064.648 2.129 1.297 3.199 1.935.427.255.866.487 1.315.723l.003.002q.315.164.635.337M310.72 88.581q-.01-.106-.012-.202c-.004-.125-.007-.229-.058-.285a10 10 0 0 0-1.02-.949c-5.449-4.311-11.628-6.703-18.592-7.016-7.511-.334-14.623 1.403-21.483 4.27-11.469 4.8-21.226 12.136-29.998 20.811-13.147 13.005-23.362 28.067-30.947 44.922q-.207.466-.407.936c-.355.83-.711 1.66-1.17 2.427-.249.417-.986.86-1.432.796-1.486-.209-2.961-.497-4.436-.785-.726-.142-1.451-.284-2.178-.416a63 63 0 0 1-.735-.141h-.002c-.889-.174-1.781-.349-2.678-.384-3.813-.156-7.344.949-10.733 2.593-6.126 2.972-11.528 6.986-16.401 11.696-13.883 13.418-23.157 29.518-28.004 48.211-.764 2.947-1.688 5.851-2.612 8.756a299 299 0 0 0-1.499 4.8c-.417 1.391-1.183 2.451-2.321 3.363q-.904.722-1.812 1.443c-2.794 2.221-5.591 4.444-8.221 6.848-3.136 2.865-6.238 5.83-8.947 9.092-9.255 11.164-16.687 23.492-22.405 36.813-5.815 13.548-9.858 27.584-10.65 42.393-.521 9.754.219 19.363 3.898 28.562 3.318 8.292 8.57 14.851 16.733 18.816.822.399 1.687.709 2.554 1.019.403.145.807.289 1.207.443-.092-.841-.386-1.37-.666-1.876l-.001-.001-.001-.004-.092-.167a169 169 0 0 0-1.407-2.603v-.001l-.001-.001v-.002h-.001v-.001l-.001-.001v-.001l-.001-.001v-.001c-1.103-2.014-2.206-4.029-3.104-6.132-2.337-5.468-3.222-11.29-3.773-17.182-.158-1.676-.56-3.333-.96-4.985q-.193-.79-.375-1.577a62 62 0 0 0-.608-2.394c-.328-1.226-.657-2.452-.869-3.7-1.79-10.412-.833-20.694 1.678-30.879 4.032-16.342 11.457-31.055 21.457-44.518 2.965-3.991 6.272-7.659 10.092-10.877 4.007-3.374 8.445-6.011 13.132-8.281q2.177-1.05 4.361-2.084l.006-.003c1.552-.737 3.104-1.474 4.65-2.224 1.931-.938 1.931-.96 1.641-3.01a140 140 0 0 1-.157-1.131l-.001-.001c-.191-1.388-.382-2.779-.642-4.154-.893-4.72-.607-9.422.253-14.099 2.105-11.446 7.09-21.587 14.247-30.69 4.49-5.713 9.758-10.564 16.048-14.303 2.467-1.466 4.911-1.819 7.53-.807 1.16.446 2.012.201 3.005-.465 2.441-1.641 4.911-3.255 7.474-4.695 4.114-2.31 8.504-3.783 13.303-3.511 1.525.085 2.191-.622 2.678-1.957 2.578-7.087 5.896-13.824 9.821-20.259 8.035-13.184 17.912-24.697 30.742-33.473 6.324-4.326 13.117-7.667 20.705-9.11 2.318-.44 4.453-1.217 6.577-2.187 8.582-3.929 17.492-6.261 27.041-5.28.129.013.264-.054.395-.12.063-.031.125-.062.185-.084M90.59 367.84c.27.375.544.753.81 1.141l-.007.004a4 4 0 0 0-.316.099c-.141.05-.231.081-.294.053-11.629-5.301-19.27-13.994-22.584-26.423-2.638-9.895-2.853-19.924-1.555-29.987 2.581-19.999 9.754-38.383 20.315-55.447 3.578-5.78 7.57-11.345 11.781-16.687 2.816-3.568 6.214-6.71 9.567-9.809l.146-.135c2.417-2.235 5.004-4.289 7.59-6.342l.001-.001.003-.002q1.04-.824 2.074-1.653c1.068-.859 1.834-1.83 2.228-3.155.507-1.692 1.039-3.376 1.571-5.061v-.001c.937-2.967 1.873-5.932 2.67-8.936 5.428-20.43 15.87-37.732 31.966-51.507 4.855-4.155 10.16-7.663 16.279-9.702 3.497-1.168 7.101-1.611 10.721-.424.729.238 1.451.547 2.117.93a831 831 0 0 1 9.028 5.283c.239.139.456.315.744.549.163.133.35.284.577.459-.241.057-.438.113-.608.161-.291.083-.501.143-.713.147-3.72.067-7.161 1.18-10.461 2.805-8.403 4.141-15.43 10.067-21.609 16.997-11.502 12.897-19.407 27.718-23.548 44.547-.968 3.936-2.283 7.79-3.594 11.632v.001l-.341 1c-.35 1.027-1.142 2.009-1.965 2.757a77 77 0 0 1-5.903 4.891c-8.776 6.525-15.527 14.866-21.539 23.864-6.915 10.346-12.726 21.267-17.026 32.967-4.327 11.77-7.388 23.83-7.931 36.415-.413 9.59.271 19.076 3.995 28.075.948 2.289 2.172 4.467 3.393 6.638l.003.006v.001l.001.001q.387.687.77 1.374c.476.857 1.054 1.658 1.644 2.475m33.077 20.134-.001.001-.005.014-.006.014-.005.016-.004.01-.002.009-.002.007v.004a1 1 0 0 0-.139.042c-.103.036-.207.071-.271.036-.691-.395-1.387-.782-2.083-1.17l-.003-.002-.004-.002c-4.167-2.322-8.33-4.643-11.577-8.32-4.401-4.984-7.284-10.754-9.025-17.112-2.663-9.72-2.838-19.611-1.584-29.525 2.526-20.014 9.742-38.361 20.144-55.529 3.697-6.104 7.648-12.053 12.339-17.439 2.786-3.203 5.807-6.231 8.946-9.092 2.541-2.317 5.236-4.47 7.929-6.621q1.142-.911 2.279-1.827c1.004-.811 1.637-1.774 2.098-2.976 1.823-4.758 3.127-9.66 4.436-14.577l.024-.091c5.413-20.348 15.963-37.531 32.067-51.176 4.75-4.025 9.947-7.429 15.918-9.419 3.586-1.198 7.254-1.607 10.951-.398.514.171 1.035.357 1.5.625 2.184 1.267 4.362 2.543 6.54 3.82l.001.001h.001l.001.001h.001l.001.001.004.002.008.005q1.636.96 3.274 1.917c.18.104.374.18.555.251q.13.05.245.099a8 8 0 0 0-.322.423c-.114.157-.169.232-.225.232-6.364.197-11.807 2.901-16.989 6.283-9.01 5.885-16.349 13.485-22.595 22.182-8.054 11.212-13.701 23.514-16.904 36.97-.771 3.247-1.87 6.42-2.966 9.588h-.001v.002q-.41 1.18-.812 2.362c-.283.822-.904 1.622-1.57 2.206-2.154 1.89-4.33 3.772-6.622 5.487-8.634 6.454-15.237 14.727-21.167 23.588-7.012 10.472-12.86 21.558-17.175 33.417-4.207 11.569-7.172 23.414-7.73 35.764-.327 7.221.045 14.4 1.789 21.468 1.522 6.176 4.063 11.856 7.861 16.964.32.431.61.881.9 1.331.018.028-.003.081-.023.133m150.426 73.445h.008v-.011c0-1.623-.013-3.246-.026-4.869v-.003c-.028-3.569-.056-7.137.052-10.704.368-12.194 5.729-21.687 16.386-27.628 60.88-33.921 121.817-67.746 182.752-101.569l.044-.024 20.011-11.108c1.611-.893 3.341-1.674 5.112-2.165 4.359-1.202 9.021.803 10.174 6.201.305 1.429.465 2.917.469 4.379.009 2.824.03 5.649.051 8.474v.003c.061 8.104.121 16.208-.089 24.303-.305 11.815-5.68 21.096-15.951 26.914-16.717 9.474-33.529 18.779-50.341 28.084l-.023.013c-6.776 3.75-13.551 7.5-20.32 11.261l-7.363 4.091-14.727 8.183c-36.599 20.335-73.198 40.671-109.81 60.98-1.815 1.008-3.738 1.942-5.725 2.5-5.23 1.469-9.203-1.644-10.163-6.19-.364-1.73-.476-3.534-.498-5.305-.046-3.783-.037-7.564-.029-11.346v-.024q.005-2.22.006-4.44m22.468-382.277-.189.378h-.003c-.542-.053-1.083-.114-1.624-.174-1.142-.128-2.282-.255-3.428-.32-7.589-.447-14.783 1.298-21.74 4.132-9.504 3.877-17.893 9.568-25.53 16.342-16.082 14.263-28.123 31.475-36.873 51.054q-.095.211-.197.421c-.134.28-.268.561-.372.851-.383 1.06-1.086 1.354-2.184 1.179-2.005-.323-3.935-.755-5.691-1.871-1.089-.694-2.212-1.34-3.334-1.985h-.001a128 128 0 0 1-2.267-1.326c-1.595-.961-1.586-.996-1.184-2.659l.027-.112c1.302-5.39 3.459-10.412 6.167-15.241 8.177-14.582 18.15-27.74 30.757-38.788 8.932-7.827 18.716-14.3 30.166-17.909 6.58-2.072 13.306-3.132 20.162-1.785a39 39 0 0 1 8.366 2.667c2.183.977 4.263 2.188 6.343 3.398.905.527 1.81 1.053 2.723 1.56l-.051.103zm32.302 19.006-.067.255a19 19 0 0 0-.582-.021 9 9 0 0 1-1.166-.08c-6.734-1.049-13.285-.092-19.724 1.875-9.389 2.872-17.722 7.76-25.419 13.746-13.816 10.743-24.901 23.905-33.71 38.963-2.4 4.102-4.518 8.37-6.635 12.636v.001h-.001v.001l-.001.001v.001l-.001.001v.001l-.001.002-.001.001v.001l-.001.001v.002l-.001.001c-.74 1.49-1.479 2.98-2.231 4.462l-.146.29c-.929 1.84-.985 1.951-3.157 1.47a21.3 21.3 0 0 1-4.776-1.659c-1.59-.779-3.108-1.709-4.623-2.637h-.001v-.001h-.001l-.004-.002-.001-.001-.001-.001-.002-.001h-.001l-.001-.001-.001-.001q-.599-.367-1.197-.729c-1.512-.911-1.502-.955-1.105-2.625l.041-.173c1.294-5.476 3.549-10.542 6.294-15.434 6.789-12.098 14.884-23.213 24.719-33.015 8.962-8.932 18.898-16.52 30.661-21.45 6.264-2.626 12.759-4.293 19.619-4.296 5.613-.004 10.914 1.179 15.84 3.902 1.719.95 3.42 1.934 5.121 2.916l.003.003h.003l.001.002q1.16.671 2.323 1.338l-.057.215-.001.005-.003.01zM86.81 254.746c-11.64 19.292-19.645 39.786-21.889 62.734a33005 33005 0 0 0-14.296-8.444c-.688 2.102-.766 3.835-.081 5.606.032.085.082.188.132.29.098.203.194.401.147.443-.83.749-.764 1.652-.698 2.552.029.397.057.793.01 1.175-.153 1.224.401 1.998 1.469 2.619 1.647.961 3.28 1.948 4.913 2.935 2.146 1.297 4.292 2.594 6.47 3.832 1.44.818 2.08 1.826 2.191 3.474.107 1.546.342 3.083.578 4.621.116.761.233 1.522.334 2.284.03.235.025.475.016.801-.004.178-.009.381-.009.623a40 40 0 0 0-.723-.344c-.467-.22-.87-.409-1.252-.638q-3.744-2.24-7.483-4.49c-4.676-2.81-9.351-5.621-14.049-8.392-2.392-1.41-3.727-3.434-4.162-6.097a22 22 0 0 1-.272-3.467 925 925 0 0 0-.04-5.106c-.045-4.727-.09-9.454.066-14.175.342-10.449 5.015-18.682 13.991-23.979 7.584-4.477 15.313-8.709 23.042-12.94 3.209-1.757 6.417-3.514 9.616-5.288a5.3 5.3 0 0 1 1.979-.629m301.429-111.102c.032-.061.077-.147.133-.271l.003.004q.452.143.917.278c.679.2 1.371.404 2.033.685 7.675 3.252 12.503 9.174 15.446 16.766 2.994 7.723 3.761 15.781 3.273 23.983-.907 15.252-5.498 29.463-12.235 43.059-3.552 7.169-7.774 13.92-12.51 20.363q-.09.123-.182.242l-.105.136-.001.001a9 9 0 0 0-.538.745c-.692 1.108-1.506 1.079-2.544.439-1.803-1.113-3.624-2.198-5.444-3.284l-.005-.002q-1.459-.869-2.914-1.744c-1.003-.605-2-1.218-3.03-1.851h-.001v-.001h-.001l-.012-.008h-.002q-.858-.529-1.756-1.078l.525-.784c.343-.516.629-.947.937-1.363 8.117-10.97 14.589-22.822 19.113-35.712 3.876-11.045 6.279-22.361 6.023-34.135-.201-9.128-1.95-17.844-6.983-25.66-.096-.148-.134-.337-.171-.52l-.026-.127c-.009-.033.011-.072.057-.161m-36.284 87.167a98 98 0 0 0-.69.853v-.008l-2.51-1.506-2.421-1.453c-3.207-1.926-6.366-3.822-9.611-5.768q.21-.355.388-.67c.252-.444.474-.835.739-1.194 6.51-8.824 12.001-18.231 16.268-28.339 5.011-11.866 8.31-24.15 8.895-37.073.088-1.95.027-3.906-.033-5.862v-.009l-.046-1.558c-.022-.822-.003-1.548.856-1.96l.24-.115c3.264-1.566 6.533-3.135 10.574-3.349.157.476.323.948.489 1.421.363 1.034.725 2.066.995 3.121 1.592 6.209 1.957 12.533 1.604 18.905-.663 11.971-3.772 23.362-8.303 34.388-4.23 10.29-9.751 19.869-16.361 28.815-.324.441-.67.866-1.073 1.36zm24.206-87.44c-.057-.242-.119-.506-.192-.801l-.003-.004c3.202-.636 6.119-.465 9.006.115.591.119 1.201.714 1.566 1.25q.19.279.382.557c.971 1.412 1.951 2.838 2.638 4.383.644 1.444 1.079 3.103 1.109 4.676.216 11.011-1.622 21.751-4.646 32.305-5.022 17.525-13.046 33.603-23.47 48.512-.41.588-.849 1.151-1.337 1.779h-.001v.001l-.004.005c-.24.309-.493.633-.76.983l-4.857-2.896-.035-.021-.207-.123-2.895-1.725q.258-.4.477-.749l.004-.007.002-.003c.314-.499.586-.929.886-1.336 8.11-10.974 14.582-22.833 19.099-35.727 3.95-11.271 6.338-22.825 5.996-34.841-.149-5.134-.878-10.178-2.436-15.088a16 16 0 0 1-.322-1.245m-153.265 22.03.418-1.266c.281-.85.525-1.59.771-2.329.242-.731.456-1.477.669-2.222.471-1.651.943-3.301 1.727-4.787 2.924-5.543 5.874-11.1 9.285-16.345 10.42-16.015 23.109-29.853 39.544-39.95.23-.141.417-.357.604-.572q.132-.155.27-.298c-1.507-.052-2.85.234-4.155.643-9.118 2.854-16.941 7.958-24.009 14.218-14.612 12.939-25.039 28.771-31.962 46.965-.164.43-.284.878-.405 1.329q-.08.306-.168.613l3.42 1.847c1.279.691 2.582 1.395 3.991 2.154m138.314 72.484c.547.331 1.063.648 1.559.952 1.078.66 2.062 1.263 3.06 1.844 1.826 1.06 2.012 1.053 3.221-.618 1.815-2.511 3.627-5.025 5.312-7.622 9.784-15.059 16.666-31.27 19.303-49.137 1.276-8.653 1.325-17.291-.733-25.854a8 8 0 0 1-.074-.362c-.111-.598-.232-1.242-1.086-1.751-1.276 30.826-12.919 57.598-30.562 82.548m-39.041-120.856a18 18 0 0 0-.192-.533h.008c2.983.391 5.375 1.6 7.637 3.047 4.665 2.983 7.789 7.272 9.91 12.294 3.203 7.593 3.787 15.591 3.37 23.715-.005.083-.064.162-.151.277-.05.067-.11.146-.172.244a9 9 0 0 0-.354-.12c-.275-.09-.563-.183-.818-.33-1.356-.787-2.707-1.582-4.058-2.376l-.002-.001c-2.522-1.482-5.043-2.964-7.591-4.401-1.18-.666-1.529-1.506-1.555-2.805q-.018-.819-.032-1.639c-.068-3.557-.136-7.121-.478-10.652-.554-5.687-2.277-11.059-5.223-15.999-.119-.2-.197-.425-.299-.72zM104.584 285.526l.431.26.123.074 5.513 3.322c.174-.294.332-.553.478-.791l.001-.002.001-.001c.281-.46.514-.842.715-1.241 4.17-8.247 9.017-16.077 14.496-23.514 4.33-5.881 9.07-11.383 14.862-15.91 2.32-1.813 4.575-3.708 6.83-5.602l.001-.001q.977-.822 1.955-1.64c.272-.227.493-.512.715-.797q.163-.213.334-.416c-.71-.178-1.156-.093-1.543.108q-2.055 1.064-4.112 2.12c-3.862 1.984-7.725 3.97-11.527 6.064-4.665 2.571-8.508 6.213-11.912 10.26-6.413 7.622-11.669 16.015-16.1 24.931a45 45 0 0 0-.819 1.782c-.137.31-.282.638-.442.994m78.641-114.718c1.774-.926 3.582-.647 5.889.353l.007.004c-.405.35-.781.682-1.138.997l-.001.001c-.88.778-1.647 1.456-2.473 2.056-.331.238-1.019.134-1.488-.007-.441-.132-.855-.355-1.268-.577a15 15 0 0 0-.54-.282l-.305.398c.688.561 1.38 1.123 2.284 1.856q-.255.3-.491.587v.001h-.001c-.334.404-.651.788-1 1.142-9.549 9.62-16.848 20.739-22.041 33.245-.591 1.425-1.402 2.519-2.812 3.222-1.076.537-2.124 1.126-3.171 1.716-.571.321-1.142.642-1.717.955-.126.07-.272.104-.452.146-.095.023-.201.047-.318.081-.567-.761-.35-1.543-.142-2.287.052-.188.104-.373.142-.555 1.086-5.175 2.853-10.126 5.178-14.865 4.803-9.799 11.212-18.336 20.058-24.861 1.513-1.115 3.213-1.991 4.901-2.861q.451-.232.899-.465m170.149-50.841c10.807-5.71 27.524-5.521 41.526 5.286-.389-.045-.707-.077-.981-.105-.457-.047-.789-.081-1.117-.137-6.045-1.015-12.06-.714-17.964.8-3.582.919-7.127 2.079-10.174 4.356-1.487 1.11-3.015 2.167-4.541 3.223l-1.147.795c-.364.253-.745.482-1.171.738q-.337.201-.718.437c-1.265-5.249-2.485-10.308-3.713-15.393M103.71 287.584c.125-.21.261-.437.405-.693v.003q.717.423 1.378.81l.004.002c1.091.639 2.085 1.221 3.064 1.83 1.536.956 1.519.999.858 2.685l-.04.101a657 657 0 0 1-1.814 4.568l-.001.001v.002l-.001.001v.002l-.001.001-.001.002v.001l-.001.002v.002l-.001.001c-1.601 4.002-3.203 8.004-4.589 12.079-3.326 9.783-5.298 19.865-5.785 30.214-.012.247-.027.494-.048.831v.002c-.018.287-.04.639-.067 1.112-.904-1.44-1.121-2.632-1.33-3.777l-.028-.154-.019-.101c-1.175-6.369-1.216-12.778-.52-19.188 1.1-10.159 4.036-19.831 7.942-29.236.151-.361.354-.7.595-1.103M311.859 136.96c-.03-6.791-.06-13.7-2.214-20.609v-.004c3.337-.848 6.257-.859 9.17-.506.595.071 1.287.581 1.663 1.087 2.429 3.273 3.906 6.997 4.944 10.91.193.73.13 1.354-.532 1.857-3.884 2.953-7.92 5.643-12.488 7.443-.033.014-.08-.001-.195-.037h-.001l-.083-.025a8 8 0 0 0-.264-.075zm-3.322-20.103c2.09 6.491 2.343 13.251 2.005 20.382v.004c-.287-.117-.536-.21-.758-.292-.405-.151-.718-.268-1.002-.434-1.382-.802-2.761-1.612-4.14-2.421l-.003-.002-.003-.001-.002-.002-.003-.001-.006-.004-.003-.002h-.001c-2.418-1.419-4.836-2.839-7.274-4.222-1.071-.61-1.581-1.324-1.503-2.582.083-1.281.077-2.569.07-3.856l-.003-1.017c.004-.822.182-1.518 1.008-1.916 3.497-1.674 7.046-3.184 10.911-3.798.087-.014.182.015.342.063.095.028.213.064.365.101m44.949 1.419.003-.001.007-.003.003-.001.002-.001h.001l.001-.001h.002a56 56 0 0 1 1.785-.605q.595-.19 1.189-.388c1.07-.355 2.141-.71 3.238-.955 5.014-1.119 10.073-1.603 15.203-.867.297.042.609-.018.967-.088.185-.035.382-.073.596-.101-7.054-7.477-21.919-10.524-30.631-7.548l2.774 4.312.065.1 4.107 6.387q.336-.116.688-.24m-21.437-20.263.054-.243c11.164-1.79 20.921 1.703 30.396 8.411-.439-.03-.814-.049-1.147-.065-.594-.03-1.054-.053-1.509-.118-4.713-.662-9.404-.662-14.106.175-.748.134-1.816.015-2.351-.439-3.155-2.675-6.711-4.698-10.297-6.692-.266-.147-.507-.335-.749-.523h-.001a11 11 0 0 0-.344-.262zM156.654 215.51c.542-.302 1.104-.614 1.695-.936 0 .279.008.485.013.644.009.251.014.388-.02.513q-.96 3.457-1.924 6.914-.965 3.459-1.926 6.921l-.021.073c-.267.961-.53 1.905-1.854 2.166-.05-.084-.11-.169-.171-.256-.138-.194-.283-.399-.331-.626-.778-3.571-.949-7.179-.629-10.825.111-1.265.539-2.172 1.737-2.756 1.133-.553 2.236-1.167 3.431-1.832M52.651 319.184c-.114-.199-.25-.436-.43-.714l-.003-.004c1.796.469 11.494 6.023 12.257 6.897.11.123.131.323.153.539.011.104.022.212.044.317-1.48-.235-9.058-4.394-11.495-6.302-.195-.153-.33-.388-.526-.733m.384-7.204-.542.564c.082.12.156.25.23.38.163.284.326.568.566.754 3.054 2.351 10.092 6.131 11.454 6.135a3 3 0 0 1-.096-.32c-.056-.22-.11-.427-.243-.51a1529 1529 0 0 0-9.339-5.757l-.005-.004-.12-.074-.008-.005zm235.563-30.247-.002.002-.005.003c-.294.186-.626.396-1.02.64l.007.004c.403.272.746.51 1.053.723h.001c.537.373.964.669 1.409.936a14918 14918 0 0 0 16.627 9.981l.018.011.019.012 7.248 4.348 12.15 7.289.024.015a63222 63222 0 0 1 47.409 28.46c1.321.792 2.381 1.228 3.996.32 13.879-7.782 27.791-15.51 41.702-23.239l.002-.001.002-.001.002-.001.002-.001.002-.001.002-.001.002-.001.002-.002.002-.001.002-.001.065-.036q7.72-4.288 15.437-8.58c.325-.181.621-.416.997-.715.202-.161.427-.34.692-.538a71 71 0 0 1-.898-.634c-.507-.362-.938-.67-1.393-.943q-11.59-6.958-23.18-13.913l-.042-.026-.017-.009-.016-.01-.016-.009-.016-.01-.016-.01-.016-.009-.016-.01c-20.187-12.115-40.375-24.23-60.548-36.371-1.309-.785-2.261-.8-3.589-.059a21750 21750 0 0 1-42.198 23.484l-.119.066-14.346 7.973c-.435.242-.856.508-1.421.865m4.363 2.354c.364.236.684.447.976.64.555.366 1.009.665 1.476.947q12.286 7.379 24.577 14.753l.138.083 9.947 5.967.037.023.007.003.006.004.006.004.007.004.006.004.006.003.007.004.006.004.006.004c14.527 8.715 29.053 17.429 43.572 26.161 1.183.711 2.15 1.116 3.59.313 12.617-7.064 25.257-14.087 37.896-21.11l.009-.004.008-.005.009-.005.008-.004.009-.005.008-.005.008-.005.009-.004.008-.005q7.113-3.951 14.223-7.905c.327-.182.625-.421.971-.699.178-.142.367-.295.58-.455l-.16-.104-.148-.097-.222-.147-.237-.156c-.516-.341-.953-.63-1.401-.898q-9.743-5.847-19.487-11.691l-.003-.002-.003-.002-.003-.002-.004-.001-.003-.002-.003-.002-.003-.002-.003-.002-.003-.002-.003-.001c-19.474-11.682-38.949-23.363-58.398-35.089-1.823-1.101-3.188-1.168-5.074-.111-12.856 7.216-25.744 14.372-38.633 21.528l-11.94 6.632c-.423.237-.836.491-1.358.813l-.003.002c-.298.184-.632.389-1.024.626m140.564 17.059-.026.565-.004-.003a3 3 0 0 0-.263.052l-.079.018-.097.024-.005.002c-.335.083-.671.166-.951.078-.503-.158-.967-.45-1.426-.739l-.116-.073a12 12 0 0 0-.288-.177 96103 96103 0 0 1-79.069-47.46 8 8 0 0 0-.579-.302c-.798-.388-1.64-.798-1.459-1.971l.048-.042.076-.069.038-.035c.066-.061.1-.093.139-.107.067-.022.171-.033.227 0 27.51 16.446 55.012 32.9 82.513 49.353.32.192.627.405.933.618q.193.135.388.268m-142.26-18.176c-.17-.009-.339-.019-.506-.019h-.004c1.953-2.209 55.153-31.646 57.151-32.074-.075.196-.129.388-.181.569-.104.364-.194.681-.4.875-.405.384-.915.66-1.42.934h-.001l-.331.182a121720 121720 0 0 1-37.179 20.653l-6.95 3.86-7.605 4.224c-.138.076-.274.161-.409.245-.333.206-.665.413-1.027.502-.36.091-.749.07-1.138.049m-159.089 78.222-2.557.63a48 48 0 0 0-.292-.863c-.2-.583-.383-1.113-.522-1.655-2.466-9.579-2.172-19.221-.316-28.819 3.947-20.378 13.083-38.301 26.233-54.245 1.819-2.209 3.873-4.233 6.425-5.65l14.19-7.888 14.227-7.907 6.046-3.36.157-.087.032-.018a21402 21402 0 0 0 22.576-12.557c.36-.201.692-.452 1.104-.764h.001c.222-.168.467-.353.751-.557-.362-.238-.681-.452-.972-.647-.545-.365-.994-.666-1.457-.945l-8.708-5.229q-8.7-5.22-17.395-10.451c-.465-.28-.907-.597-1.362-.924q-.343-.247-.703-.497c1.991-4.423 4.375-8.303 7.068-12.001 4.751-6.517 10.39-12.067 17.358-16.245 2.597-1.559 5.07-1.562 7.73-.391 2.772 1.221 5.495 2.497 7.846 4.468q.141.121.285.258c.444.416.926.869 1.66.642q.023-.124.048-.225c.033-.133.058-.235.023-.307a1.7 1.7 0 0 0-.42-.532c-3.088-2.671-6.63-4.56-10.465-5.892-2.213-.766-4.408-.748-6.465.599-.617.404-1.251.786-1.884 1.169h-.001v.001h-.001c-1.092.659-2.185 1.319-3.192 2.089-12.585 9.627-20.624 22.316-24.879 37.46-1.846 6.558-2.456 13.243-1.075 20.006.155.769.261 1.546.366 2.323v.001l.001.001v.001q.059.446.124.892.416 2.85-2.084 4.047a632 632 0 0 1-3.526 1.673c-2.117 1-4.234 1.999-6.332 3.037-7.458 3.69-13.924 8.664-19.18 15.148-7.366 9.084-13.403 18.99-17.997 29.737-4.691 10.971-7.972 22.328-8.579 34.325-.409 8.039.168 15.97 3.311 23.51 2.467 5.922 6.027 11 11.711 14.281 8.474 4.892 17.309 4.565 26.285 1.678.167-.053.286-.263.405-.473.056-.098.111-.196.172-.278-1.075-.168-1.957.011-2.82.253-3.3.933-6.655 1.491-10.089 1.435-6.327-.1-12.049-1.927-16.9-6.112-.348-.299-.654-.648-1.048-1.097l-.001-.001v-.001c-.212-.241-.449-.512-.732-.82.506-.023.937-.047 1.32-.068a29 29 0 0 1 1.745-.066c3.913.022 7.7-.737 11.428-1.856l.067-.02.045-.012.027-.007.1-.026h.001l.001-.001c.547-.139 1.168-.298 1.288-1.396q-.72.172-1.393.327l-.004.001h-.001l-.002.001-.006.001c-.957.223-1.854.432-2.742.667-3.78 1-7.619 1.402-11.514 1.067-.732-.063-1.688-.215-2.116-.703-2.057-2.34-3.408-5.096-4.55-8.269.43-.127.833-.24 1.217-.347v-.001h.003c.751-.211 1.428-.401 2.087-.634.22-.079.456-.133.696-.188.845-.195 1.75-.404 2.251-1.713zm83-122.155a87409 87409 0 0 0-27.204-16.316c-4.509 10.81-5.517 21.457-2.411 32.773l15.201-8.446.252-.14 14.158-7.868zm2.035-1.649c-.108-.181-.18-.303-.287-.368a14649 14649 0 0 0-26.408-15.884c-.286-.171-.605-.288-.923-.406h-.001l-.167-.062-.166-.064c-.063-.026-.16 0-.223.034a.5.5 0 0 0-.13.109 4 4 0 0 1-.142.14c-.282.961.404 1.302 1.046 1.62.153.076.304.151.438.232 6.837 4.129 13.69 8.236 20.54 12.342l.17.102.001.001 3.722 2.231c.102.06.203.128.304.195.297.197.598.397.916.441.308.043.632-.042 1.004-.139.173-.046.355-.094.551-.133l.004.004a6 6 0 0 1-.249-.395m4.88 119.791-.004.003-.002.001-.018.012-.529.335-.148.094-.206.129h.003c.292.232.528.428.73.597.367.305.626.521.911.694q2.864 1.719 5.735 3.43c4.14 2.47 8.281 4.941 12.385 7.473 1.447.889 2.515.863 3.988.041 19.49-10.877 38.999-21.72 58.509-32.564l22.464-12.489c.33-.184.633-.414 1.023-.711.209-.158.442-.336.718-.535-.317-.223-.601-.43-.865-.623l-.006-.004-.002-.001v-.001l-.001-.001h-.001c-.502-.366-.931-.679-1.383-.951a1192 1192 0 0 0-5.337-3.187v-.001c-3.945-2.346-7.89-4.693-11.775-7.135-1.689-1.061-2.916-1.001-4.613-.056a34067 34067 0 0 1-61.44 34.186l-.016.009-.041.023-18.724 10.403c-.425.237-.838.5-1.353.828zm4.477 2.286c.242.176.455.339.652.488l.002.002c.369.281.679.517 1.011.718 1.398.844 2.8 1.68 4.202 2.517 2.921 1.743 5.841 3.487 8.721 5.291 1.306.819 2.296.755 3.601.026 17.824-9.934 35.66-19.845 53.496-29.757l.138-.077.138-.076q11.08-6.157 22.157-12.315c.328-.183.628-.417.979-.693.187-.146.389-.304.617-.472l-.461-.305-.387-.259a31 31 0 0 0-1.28-.831q-1.803-1.081-3.615-2.15l-.001-.001-.001-.001h-.001l-.006-.004c-2.723-1.61-5.447-3.221-8.105-4.934-1.715-1.105-3.02-1.15-4.843-.134-19.106 10.68-38.24 21.309-57.374 31.939l-.003.001-.002.002-.003.001-.003.002-.003.002-.003.001-.003.002-.003.002q-8.757 4.864-17.513 9.731c-.444.247-.876.518-1.375.83h-.001q-.338.213-.728.454m.084-1.457c-.761.473-1.597.993-2.682-.33 27.059-15.047 54.007-30.016 80.947-44.974.677.926.342 1.439-.163 1.841-.327.26-.7.461-1.071.662h-.001l-.32.175a157713 157713 0 0 1-76.473 42.481q-.117.07-.237.145m81.228-42.973c-.705-.403-1.461-.836-.991-2.384l1.414.848 16.539 9.914c-.525 1.094-1.157 1.057-1.846.67a81 81 0 0 1-2.13-1.256l-.459-.277-1.975-1.183-.017-.01c-3.439-2.061-6.877-4.12-10.31-6.191l-.121-.071zm-119.577 22.994c.365-.215.687-.406.98-.581.609-.362 1.094-.651 1.586-.925l16.286-9.05a46524 46524 0 0 0 64.349-35.799c1.265-.706 2.169-.662 3.378.079 4.041 2.482 8.11 4.918 12.18 7.354q2.869 1.718 5.735 3.441c.435.262.846.56 1.323.905q.331.24.716.512c-.22.176-.408.337-.577.482-.325.278-.583.498-.874.657q-14.6 8.113-29.203 16.223c-17.477 9.707-34.955 19.414-52.425 29.138-1.134.633-1.975.767-3.162.041-4.163-2.552-8.358-5.056-12.552-7.56l-.001-.001h-.001l-.001-.001-.001-.001h-.001l-.001-.001q-2.986-1.78-5.967-3.57c-.321-.192-.616-.428-1.003-.738l-.001-.001a37 37 0 0 0-.767-.604zm100.987-32.588q-.138-.13-.247-.239c-.194-.19-.334-.327-.497-.426a2425 2425 0 0 0-5.329-3.204l-.001-.001-.001-.001h-.001l-.001-.001-.001-.001h-.001l-.002-.001c-2.935-1.762-5.87-3.525-8.796-5.306-.919-.558-1.715-.502-2.6.011-.972.566-1.958 1.107-2.944 1.648h-.002v.001h-.001q-.659.361-1.316.725l-13.015 7.23-.277.154a411366 411366 0 0 0-58.214 32.345c-.469.261-.922.55-1.434.878l-.002.001-.003.002-.001.001h-.001l-.001.001c-.261.167-.537.343-.838.531.278.199.517.377.733.538.382.285.692.516 1.022.716q2.03 1.221 4.067 2.432c2.902 1.729 5.804 3.457 8.663 5.257 1.388.874 2.455.77 3.828.007 18.827-10.493 37.666-20.961 56.505-31.429l18.84-10.469c.448-.25.878-.533 1.348-.843q.313-.207.657-.429l-.004-.004zm-43.836 2.367 26.914-14.952c.292 1.707-.549 2.142-1.315 2.539l-.001.001h-.001l-.195.102-.031.017-.022.012-.043.024c-3.518 1.971-7.046 3.929-10.574 5.888l-4.455 2.474-15.996 8.889q-22.378 12.435-44.755 24.867l-.406.227c-.473.265-.946.531-1.435.766-.685.331-1.336.368-1.924-.722zm46.704-3.999-17.942-10.769c-.692 1.157-.205 1.666.528 2.105l7.539 4.524 7.538 4.523c.689.413 1.388.733 2.34-.383zm-8.662 82.356a787276 787276 0 0 0 76.976-42.805h.003c-.432-.295-.793-.547-1.111-.769l-.003-.003-.003-.001c-.582-.407-1.019-.712-1.475-.986a1653 1653 0 0 0-5.25-3.14l-.014-.008-.014-.009c-4.029-2.403-8.057-4.805-12.039-7.285-1.469-.916-2.541-.871-3.995-.049-6.242 3.53-12.514 7.007-18.784 10.483a6141 6141 0 0 0-6.189 3.434l-8.539 4.744-.115.063q-23.508 13.058-47.012 26.124c-.408.228-.798.489-1.315.836-.294.196-.629.421-1.032.682a5727 5727 0 0 0 21.907 13.139zm70.706-41.901c.196.147.409.308.653.484v.003c-.265.177-.501.342-.722.496v.001c-.404.282-.755.528-1.127.735q-11.442 6.36-22.885 12.717l-.144.08-.036.02a89775 89775 0 0 0-52.704 29.301c-1.098.61-1.99.859-3.196.111-3.079-1.916-6.193-3.777-9.308-5.639l-.007-.004-.005-.003q-2.107-1.258-4.209-2.523c-.244-.15-.466-.337-.744-.571v-.001c-.15-.126-.316-.266-.51-.421.241-.162.459-.317.665-.462h.001c.399-.282.752-.531 1.127-.74l19.861-11.038a48076 48076 0 0 0 55.7-30.983c1.38-.766 2.455-.837 3.831.026 2.855 1.791 5.752 3.517 8.647 5.244h.001v.001h.001l.014.008.014.008q2.031 1.21 4.057 2.428c.333.202.646.437 1.025.722m-97.686 33.532c1.559-1.54 78.972-44.625 81.316-45.339h.004c.215 1.366-.591 1.784-1.355 2.181q-.16.082-.312.166c-3.901 2.187-7.809 4.356-11.716 6.526l-.022.012-1.658.921q-23.128 12.85-46.257 25.698l-.223.123-16.466 9.147q-.194.108-.387.23c-.342.21-.686.422-1.056.495-.338.067-.701.01-1.143-.06a13 13 0 0 0-.725-.1m101.07-34.731-17.969-10.772c-.625 1.023-.327 1.555.335 1.975.636.403 1.281.787 1.927 1.172l.249.149 2.034 1.222.003.002.004.002.003.002.003.002.003.002.003.002c3.545 2.13 7.089 4.259 10.644 6.373l.155.095.081.052c.681.43 1.417.895 2.525-.278M251.58 442.111c-.342-.17-.648-.316-.929-.45-.513-.245-.941-.449-1.348-.692q-5.518-3.305-11.034-6.617l-.008-.004-.007-.005-.004-.002-.003-.002-.003-.002a6752 6752 0 0 0-24.984-14.944c-1.384-.822-1.934-1.774-1.871-3.351.064-1.634.052-3.27.04-4.908-.006-.917-.013-1.834-.006-2.752.002-.464.046-.926.089-1.364q.03-.302.052-.585c1.008-.525 1.651-.069 2.253.359.14.099.278.197.418.281 6.386 3.813 12.763 7.642 19.14 11.47l.011.007.126.075 7.198 4.321q1.336.804 2.666 1.615c2.219 1.35 4.438 2.7 6.705 3.965 1.421.792 1.897 1.771 1.819 3.359-.085 1.761-.075 3.527-.065 5.294.005.942.011 1.885.002 2.827-.005.377-.063.752-.136 1.233a37 37 0 0 0-.125.869zm-37.751-33.494c-.006.688.001 1.336.007 1.954.014 1.323.026 2.515-.089 3.696-.189 1.942.521 3.077 2.221 4.077 7.605 4.49 15.175 9.038 22.745 13.585l.007.004q4.673 2.809 9.348 5.61c.412.247.84.462 1.396.741.298.15.633.319 1.022.52.001-.749-.006-1.456-.012-2.134v-.001c-.015-1.514-.029-2.883.053-4.244.093-1.533-.55-2.374-1.83-3.133a6163 6163 0 0 1-22.562-13.496q-4.962-2.978-9.925-5.952a19 19 0 0 0-1.35-.709l-.002-.001-.002-.001c-.301-.149-.637-.314-1.023-.513zm293.632-69.745q-.007-1.79-.008-3.58v-2.556l-.009-3.976c-.003-2.317-.007-4.633-.021-6.95-.03-4.386-2.269-7.272-6.205-8.943-.458-.193-1.131-.32-1.536-.126-2.694 1.298-5.38 2.619-7.995 4.066a19925 19925 0 0 0-32.019 17.774l-.008.004-.028.016-.028.016-.028.015q-6.094 3.389-12.19 6.775-20.466 11.371-40.934 22.739l-.098.054c-37.123 20.62-74.246 41.24-111.347 61.897-8.786 4.895-13.336 12.558-13.254 22.655.025 2.939-.016 5.878-.057 8.818-.088 6.349-.177 12.699.395 19.048.142 1.577.61 2.463 1.693 3.307 2.794 2.176 5.844 2.34 8.976.956 1.554-.685 3.043-1.52 4.53-2.352l.001-.001.815-.455q63.807-35.44 127.607-70.892 9.683-5.379 19.369-10.752l.005-.003.004-.002.005-.003.005-.002c16.369-9.083 32.737-18.165 49.075-27.305 8.694-4.866 13.139-12.425 13.269-22.432.033-2.604.025-5.206.016-7.808v-.001zm-1.134-6.72-.002 3.232h-.003q0 1.926-.003 3.853v.012c-.004 2.198-.008 4.398.006 6.595.064 10.152-4.341 17.666-13.217 22.595a361992 361992 0 0 0-64.114 35.621l-.279.154-25.013 13.899-19.32 10.733c-29.391 16.328-58.783 32.657-88.177 48.976l-.203.113-.215.12c-1.351.753-2.715 1.513-4.158 2.025-4.371 1.555-7.778-.491-8.567-5.048-.182-1.06-.212-2.157-.212-3.24q-.007-3.051-.021-6.104v-.008c-.025-5.788-.049-11.578.036-17.365.138-9.374 4.326-16.561 12.499-21.122 24.724-13.798 49.477-27.541 74.23-41.285q14.085-7.819 28.167-15.642l18.62-10.345q38.237-21.246 76.482-42.483c1.421-.788 2.853-1.581 4.348-2.206 3.694-1.54 8.285-.29 8.951 5.283.119.997.152 2.009.156 3.013.014 2.873.011 5.749.009 8.623m-61.607 37.621c1.848 1.451 2.297 3.668 2.1 5.903-.58 6.536-3.616 11.666-9.322 14.951-5.422 3.121-10.901 6.143-16.38 9.165a2245 2245 0 0 0-6.97 3.855 971427 971427 0 0 1-95.314 52.95q-.411.229-.821.46h-.001l-.002.001-.001.001c-1.01.568-2.02 1.136-3.066 1.621-2.5 1.165-4.937 1.161-7.225-.591-.299-.23-.626-.428-.955-.628v-.001c-.931-.565-1.881-1.143-2.285-2.459l.444.136.363.111.819.252q.034-.05.067-.095.041-.054.079-.099c.082-.101.144-.177.137-.249-.64-8.158 2.901-14.155 9.854-18.038 23.283-13.002 46.6-25.945 69.917-38.887q11.166-6.197 22.331-12.397l8.957-4.977q8.93-4.966 17.872-9.922c.992-.548 2-1.067 3.045-1.604l.001-.001.004-.002q.768-.394 1.567-.811s3.466-.156 4.785 1.355m1.003 6.174q-.016-.289-.027-.525l-.011-.255-.007-.17a13 13 0 0 0-.063-.98c-.446-3.516-3.002-5.097-6.357-3.903-.796.283-1.559.689-2.299 1.102q-25.53 14.179-51.06 28.362l-.442.246-.093.052q-34.426 19.127-68.855 38.244c-4.379 2.429-7.146 6.127-8.523 10.844a14.1 14.1 0 0 0-.498 5.033c.301 3.5 3.032 5.133 6.324 3.898 1.171-.439 2.278-1.061 3.377-1.679l.2-.112.092-.052.157-.088.106-.059q45.43-25.227 90.85-50.467l.107-.059.239-.133q3.953-2.195 7.91-4.386l.013-.008.005-.002c6.638-3.678 13.277-7.355 19.886-11.083 5.558-3.132 8.307-8.106 8.965-13.82zm41.418-23.112c.622-5.386-.84-7.856-6.792-9.917v-.004a7.3 7.3 0 0 1-1.428.263c-.454.048-.812.086-1.191.314-.56.336-1.15.638-1.739.94-1.145.587-2.288 1.173-3.209 2.006-5.922 5.349-9.489 11.763-8.314 20.103.033.234.134.673.309 1.201.216.648.58 1.239 1.049 1.734 1.64 1.73 3.43 2.864 6.395 2.217 1.696-.368 3.448-1.06 4.862-2.053 5.81-4.085 9.248-9.754 10.058-16.804m-1.059-2.012c.028.32.057.669.096 1.06l.004.004c-.852 7.332-4.208 13.477-10.911 17.573-.841.513-1.838.848-2.805 1.068-3.363.766-6.093-.871-6.789-4.271-.335-1.629-.402-3.415-.134-5.055.975-5.978 3.954-10.863 8.75-14.56 1.138-.882 2.522-1.515 3.876-2.043 2.953-1.153 7.012.019 7.741 4.617.078.495.121.999.172 1.603zm-45.266 28.32c-.308 3.028-1.837 5.684-4.787 7.425-1.546.912-3.118 1.775-4.691 2.64q-.799.438-1.596.879a1012318 1012318 0 0 1-112.667 62.591c-.504.283-1.008.567-1.541.779-2.373.945-4.509-.294-4.583-2.86-.037-1.34.335-2.768.848-4.025.804-1.979 2.262-3.467 4.167-4.524 29.401-16.313 58.794-32.638 88.188-48.962l.097-.054.098-.054q6.577-3.652 13.154-7.308l.032-.018.095-.052a45203 45203 0 0 1 17.02-9.456c.396-.223.794-.448 1.208-.628 2.845-1.243 4.977.164 4.962 3.627zm-1.432-.153c-.033-2.161-1.116-2.924-2.924-2.217-.59.231-1.144.55-1.699.868l-.002.001q-.279.161-.561.318-57.671 32.038-115.336 64.081l-.271.15-.605.337-.194.107-.148.081c-.769.424-1.546.852-2.233 1.389-1.923 1.507-3.065 3.497-3.11 5.971-.033 1.916 1.146 2.693 2.898 1.968.651-.269 1.267-.619 1.883-.97q.29-.166.584-.329a871034 871034 0 0 0 104.215-57.901 8515 8515 0 0 0 13.203-7.344c2.645-1.473 4.017-3.768 4.3-6.506zm36.359-12.819c4.795-2.7 7.158-7.038 7.667-11.446h.004c.034-6.123-3.631-8.303-8.076-5.77-2.63 1.499-4.494 3.739-5.792 6.443-1.049 2.18-1.778 4.434-1.399 6.923.647 4.237 3.839 5.963 7.596 3.85m-3.575-2.957c-1.1-.717-1.156-1.932-1.171-3.248.439-3.177 1.923-5.874 4.694-7.797.376-.26.811-.465 1.25-.599 1.897-.58 3.4.264 3.408 2.247.007 1.566-.432 3.199-.99 4.684-.692 1.834-2.009 3.303-3.705 4.345-1.082.666-2.28 1.153-3.486.368m6.421-13.326-.893-.364c1.708-.405 2.753-.044 3.713 1.514zm-5.848 15.271-.234.503h-.004l-2.403-1.116.246-.529 1.198.571q.598.287 1.197.571" clip-rule="evenodd"/>
</svg>
