<svg xmlns="http://www.w3.org/2000/svg" width="550" height="550" fill="none" viewBox="0 0 550 550">
    <path fill="#fff" fill-rule="evenodd" d="M316.286 189.042q.47.055.877.108c.54.069 1.016.131 1.493.156 14.587.779 26.629 6.736 36.084 17.851a211 211 0 0 1 8.404 10.535 39.9 39.9 0 0 1 5.894 11.239c.557 1.663 1.791 2.51 3.187 3.319 9.94 5.758 19.874 11.527 29.807 17.297l.057.032a375983 375983 0 0 0 108.439 62.949c3.757 2.179 7.387 4.515 10.378 7.728 3.753 4.025 5.617 8.753 5.634 14.267.013 4.225.006 8.449 0 12.675v.002c-.018 11.518-.035 23.038.332 34.544.328 10.225-4.204 17.25-12.429 22.288-5.476 3.356-11.065 6.53-16.654 9.704-2.306 1.31-4.613 2.62-6.912 3.943-2.046 1.178-4.096 2.349-6.145 3.521l-.01.005-.01.006-.002.001-.001.001h-.001l-.001.001-.001.001c-4.739 2.709-9.477 5.417-14.173 8.2-1.289.766-2.208.749-3.404.012-1.004-.619-2.031-1.201-3.058-1.783l-.001-.001h-.001l-.002-.001-.001-.001-.001-.001c-1.291-.731-2.582-1.463-3.825-2.268-1.383-.898-2.468-.817-3.877 0a5845 5845 0 0 1-25.344 14.573l-.083.048-.083.047q-4.686 2.683-9.37 5.37-5.22 2.995-10.437 5.992l-.046.026-.001.001h-.001v.001c-10.3 5.916-20.599 11.831-30.931 17.69-1.825 1.034-2.642 2.204-2.493 4.323.11 1.586.092 3.179.075 4.773v.003a98 98 0 0 0-.003 2.969c.021 1.14-.43 1.778-1.434 2.349q-5.148 2.928-10.302 5.847l-.019.01-.003.002h-.001l-.001.001-.001.001h-.001c-10.833 6.138-21.665 12.275-32.364 18.636-12.055 7.166-25.004 10.259-38.902 9.944-12.14-.276-23.429-3.293-34.007-9.459-43.669-25.452-87.384-50.828-131.099-76.204h-.002l-.001-.001-.057-.033-.052-.03q-23.621-13.712-47.24-27.427a92210 92210 0 0 0-43.22-25.085c-3.621-2.097-7.046-4.438-9.804-7.646-3.268-3.8-5.06-8.111-5.072-13.208-.024-10.889-.107-21.776-.189-32.664q-.051-6.657-.096-13.314c-.005-.678-.027-1.357-.048-2.037-.053-1.656-.105-3.311.082-4.937.698-6.051 3.979-10.698 8.6-14.425 1.936-1.562 4.042-2.949 6.2-4.188a97871 97871 0 0 1 79.718-45.774l20.177-11.577q3.098-1.779 6.198-3.554l.005-.002c6.604-3.785 13.209-7.57 19.788-11.397 1.272-.74 2.506-1.689 3.485-2.787 9.68-10.851 21.565-17.94 35.782-21.029a25 25 0 0 0 8.046-3.256c1.481-.927 3.013-1.778 4.545-2.625.898-.498 1.417-1.145 1.183-2.217q-.331-1.497-.656-2.994c-.67-3.069-1.34-6.139-2.085-9.189-.183-.74-.838-1.429-1.417-2-4.463-4.391-7.34-9.608-8.561-15.782-.345-1.745-.783-3.472-1.222-5.199v-.001c-.401-1.58-.802-3.16-1.131-4.753-1.264-6.119.187-11.77 3.485-16.936 1.37-2.145 2.298-4.387 3-6.804.859-2.957 1.795-5.902 2.919-8.766 1.774-4.519 3.017-9.17 3.974-13.91 1.826-9.038 4.898-17.676 8.936-25.918a122 122 0 0 1 14.906-23.315c.859-1.057 1.916-1.95 2.974-2.843a40 40 0 0 0 1.762-1.548l.218-.206c.638-.601 1.31-1.234 1.65-1.994 1.481-3.285 3.898-5.613 7.119-7.05 8.608-3.843 17.28-3.852 25.906-.065 3.315 1.456 5.812 3.796 7.285 7.204.366.851 1.132 1.643 1.91 2.183 2.358 1.643 4.366 3.596 5.983 5.962.899 1.315 1.817 2.618 2.735 3.922l.002.002.002.003c2.007 2.849 4.015 5.699 5.818 8.672 6.66 10.97 11.464 22.723 14.043 35.331a88.4 88.4 0 0 0 4.204 14.366c.717 1.846 1.304 3.744 1.89 5.641v.003h.001c.397 1.286.794 2.571 1.232 3.841.481 1.4.987 2.859 1.808 4.064 4.749 6.957 5.647 14.42 3.285 22.412a112 112 0 0 0-1.863 7.259c-1.145 5.102-3.566 9.506-7.247 13.174-1.6 1.596-2.651 3.328-3.008 5.579-.193 1.223-.475 2.431-.757 3.64v.004a63 63 0 0 0-.639 2.951c-.123.673-.149 1.643.23 2.085 1.642 1.903 1.404 3.783.315 5.779-.072.13-.099.281-.144.534-.027.153-.061.344-.116.589zm-94.381.794.126.155-.118.441c-.146.545-.289 1.078-.416 1.542-1.242.43-1.766-.213-2.174-.966-.537-1-.362-2.43.34-2.698.865-.33 1.258.223 1.647.771.092.129.183.257.281.374zm.179 3.947c1.17-1.361.926-2.54-.035-3.786q-.21-.476-.414-.955c-.309-.719-.618-1.439-.959-2.144a10 10 0 0 0-.556-.961c-.327-.52-.653-1.038-.793-1.605-.697-2.83-1.306-5.682-1.916-8.534l-.416-1.943c-.041-.195-.033-.402-.022-.677.007-.151.013-.322.013-.523 15.055 10.064 31.574 14.647 49.369 14.664 17.813.013 34.353-4.545 49.463-14.591.226 1.467-.128 2.738-.471 3.969a19 19 0 0 0-.376 1.503c-.235 1.236-.571 2.454-.909 3.678l-.001.001q-.221.791-.43 1.589c.305.223.715.177 1.104.134.583-.064 1.118-.123 1.177.734.063.915-.192 1.996-.694 2.74-.174.259-.724.261-1.355.263-.313.002-.644.003-.96.035-.09.45-.193.932-.301 1.437l-.003.012-.001.003a79 79 0 0 0-.699 3.544c-1.017 6.11-4.413 10.659-9.255 14.289-5.004 3.753-10.617 6.234-16.634 7.77-15.421 3.932-30.676 3.51-45.633-2.175-5.336-2.029-10.161-4.961-14.093-9.204-1.953-2.106-3.502-4.459-4.332-7.212-.191-.634-.234-1.63.132-2.055m70.666 30.407c1.372-.649 2.064-.041 2.681.501q.165.147.328.278c5.621 4.387 10.408 9.604 14.617 15.323 11.425 15.54 18.786 32.91 22.982 51.679a130.3 130.3 0 0 1 3.068 24.259c.145 4.542-.018 9.094-.182 13.645v.005c-.052 1.442-.104 2.883-.146 4.324-.011.362-.264.717-.517 1.072-.116.163-.233.326-.325.49-.13-.143-.274-.279-.418-.415-.312-.293-.622-.586-.782-.947-.452-1.024-.825-2.082-1.198-3.139l-.001-.002q-.188-.534-.38-1.067c-5.442-14.957-11.706-29.574-18.34-44.041-1.025-2.234-2.527-3.758-4.642-4.966a4019 4019 0 0 1-34.144-19.817c-1.592-.932-3.149-1.293-4.974-1.183-7.626.464-15.14-.285-22.506-2.361-2.352-.664-2.366-.643-3.786 1.442l-.027.038c-4.613 6.766-8.459 13.953-11.846 21.396-.473 1.042-.917 2.098-1.383 3.206l-.001.001-.001.004q-.306.73-.632 1.495c.293.19.564.372.822.546h.001v.001h.001c.481.323.919.617 1.376.883q44.053 25.59 88.108 51.174l32.454 18.849 7.42 4.308.771.448.031.018.031.018.009.005.008.005.009.005c14.454 8.393 28.911 16.787 43.35 25.205 1.468.856 2.685 1.247 4.353.273a6611 6611 0 0 1 26.522-15.364q6.637-3.83 13.268-7.666c.299-.173.562-.41.866-.686q.12-.11.252-.226.127-.114.27-.232l-.267-.167-.259-.164-.219-.138c-.489-.31-.911-.577-1.345-.829a370494 370494 0 0 0-67.406-39.169 29474 29474 0 0 0-31.774-18.43c-.494-.286-1.013-.529-1.622-.815l-.004-.002a65 65 0 0 1-.983-.468l-.001.719-.003.538c-.004.64-.006 1.158.004 1.675q.07 2.57.152 5.139c.112 3.613.224 7.225.261 10.84.026 2.285-.137 4.578-.3 6.862l-.001.02-.078 1.1c-.025.378-.188.748-.367 1.158-.088.2-.18.409-.262.634-1.052-.673-.996-1.418-.942-2.134v-.001l.007-.103.005-.07.006-.109q.052-1.132.11-2.265c.071-1.407.141-2.815.188-4.224.409-12.719-.685-25.298-3.685-37.672-3.098-12.778-7.774-24.957-14.327-36.378-6.098-10.633-13.396-20.276-23.229-27.795-.259-.197-.456-.475-.697-.815-.128-.18-.267-.377-.435-.589 1.552-.35 2.5.399 3.456 1.154.682.539 1.368 1.08 2.28 1.229 1.189-3.3 1.948-6.684 2.712-10.085l.001-.002c.455-2.028.911-4.061 1.461-6.087-.177.018-.316.023-.425.027-.18.006-.282.01-.345.062a9 9 0 0 0-.894.864c-3.668 3.992-8.063 6.979-12.999 9.128-17.936 7.804-36.31 8.417-54.956 3.017-8.285-2.4-15.762-6.311-21.625-12.86-.072-.079-.218-.093-.397-.11h-.001c-.098-.01-.206-.02-.317-.043q.006.137.007.26l.002.159c.001.251.003.465.05.671q.351 1.46.699 2.923v.001c.752 3.155 1.505 6.31 2.314 9.454.694 2.706 2.081 5.081 3.928 7.17.275.312.614.565.99.846.189.142.388.29.593.456l1.08-1.361.005-.005a301 301 0 0 1 2.144-2.685q2.375-2.932 3.996-2.655-.153.263-.286.517c-.183.346-.356.671-.591.942-5.876 6.783-10.527 14.362-14.54 22.349-5.212 10.37-9.395 21.152-12.689 32.28-3.957 13.378-6.642 27.003-7.842 40.909-.23 2.672-.407 5.349-.584 8.026a644 644 0 0 1-.356 5.183 4 4 0 0 0-.009.183l-.001.085-.001.084v.002c-.004.664-.009 1.397-1.279 1.739-.012-.317-.031-.615-.049-.899v-.002c-.035-.568-.067-1.084-.044-1.597.544-12.672 1.919-25.246 4.697-37.633.78-3.467 1.673-6.906 2.566-10.346l.001-.001c.55-2.12 1.101-4.24 1.625-6.367.187-.753.417-2.009.051-2.298-1.421-1.119-2.992-2.179-4.681-2.757-.66-.227-1.675.374-2.528.879l-.002.001-.363.213a179633 179633 0 0 0-96.476 55.314L95.449 332c-.508.292-.997.615-1.58 1.001h-.001l-.008.006c-.299.197-.622.41-.985.644.43.27.819.518 1.18.749l.006.004c.668.427 1.247.796 1.84 1.141 24.99 14.523 49.981 29.037 74.972 43.552l29.163 16.938.011.007.012.007.012.007.012.007.011.006.038.022a60515 60515 0 0 0 82.904 48.102c8.791 5.089 17.795 4.987 26.654.098 4.784-2.639 9.513-5.377 14.242-8.115l.001-.001h.001c2.119-1.227 4.237-2.454 6.36-3.671l22.285-12.778q25.492-14.615 50.981-29.238c.384-.222.744-.488 1.197-.823v-.001c.26-.192.55-.406.893-.648-58.892-34.199-117.41-68.181-175.872-102.134-.158.147-.291.257-.4.348-.186.156-.306.256-.371.384-.331.668-.655 1.349-.906 2.051q-4.126 11.525-8.244 23.053-4.12 11.527-8.245 23.052c-.14.388-.325.759-.513 1.134l-.117.235-.042.085-.066.136-.049.104c-1.142-.402-1.079-1.136-1.016-1.876l.003-.039c.185-2.167.35-4.337.516-6.506.355-4.639.71-9.278 1.246-13.893 2.068-17.796 6.502-35.012 13.076-51.68 4.323-10.957 9.413-21.523 16.225-31.178 1.279-1.811 2.679-3.533 4.078-5.254l.005-.006.005-.006 1.054-1.3c.424-.533.928-1.167 2.028-.289q-.208.3-.409.607c-.294.444-.59.89-.931 1.295-5.506 6.54-9.928 13.787-13.719 21.412-12.093 24.327-18.774 50.139-20.923 77.173-.046.589-.033 1.184-.02 1.778q.01.416.012.83c.583-.438.821-.936 1.008-1.451 1.441-3.958 2.869-7.922 4.297-11.885l.001-.003c3.06-8.493 6.119-16.985 9.302-25.43 5.166-13.71 11.995-26.553 20.923-38.22.345-.45.713-.882 1.096-1.329l.487-.573c.129.123.259.236.369.332h.001c.188.164.321.28.302.314a295 295 0 0 1-2.84 5.239l-.002.003-.026.048c11.57 4.804 34.012 3.851 43.535-1.796-2.094-3.089-2.217-3.353-1.821-4.162q.22.167.441.325v.001c.321.232.634.458.912.721 11.753 11.047 20.778 24.025 27.361 38.718 5.719 12.77 11.272 25.617 16.063 38.774.143.388.333.758.524 1.13q.142.273.276.551a3.5 3.5 0 0 0 .592-1.924c.276-9.174-.111-18.331-1.566-27.391-3.102-19.318-9.702-37.36-20.404-53.798-5.208-8-11.259-15.285-18.91-21.123-.277-.21-.499-.494-.766-.835l-.001-.001c-.139-.177-.29-.37-.467-.577zm232.488 117.457-.1-.038-.062-.024-.091-.036-.15-.059-.103-.039q-.37.52-.737 1.044c-.512.73-1.024 1.461-1.565 2.173-3.26 4.276-7.69 7.072-12.264 9.689a83269 83269 0 0 0-45.314 25.965l-31.413 18.022c-34.035 19.528-68.07 39.054-102.124 58.546-3.097 1.771-6.331 3.392-9.667 4.634-10.724 3.988-21.834 5.06-33.2 3.958-9.408-.911-18.297-3.387-26.518-8.179a33570 33570 0 0 0-54.583-31.74l-.004-.003-.005-.002-.005-.003-.004-.002-.015-.009-9.331-5.419-55.676-32.323-.413-.239-.128-.075-.29-.168a427387 427387 0 0 1-80.724-46.869c-8.353-4.851-16.71-9.706-25.012-14.646-3.69-2.196-6.795-5.081-9.161-8.711a7 7 0 0 0-.57-.72q-.153-.175-.298-.352c-.46.974-.464 1.855-.46 2.736q.037 6.037.082 12.073c.067 9.387.135 18.772.144 28.16.004 4.855 1.765 8.91 4.906 12.48 2.45 2.788 5.425 4.907 8.612 6.758l.035.02.024.014.02.011.01.006q18.862 10.96 37.723 21.914l63.629 36.95 62.568 36.333.024.014.024.014.024.014.024.014A78113 78113 0 0 1 262.419 508c4.268 2.481 8.724 4.502 13.481 5.863 9.493 2.711 19.157 3.456 28.952 2.405 8.268-.89 16.23-2.936 23.574-6.962 2.995-1.64 5.948-3.353 8.901-5.067q2.052-1.193 4.112-2.375l7.746-4.442a5411 5411 0 0 1 24.793-14.166c1.472-.834 2.175-1.787 2.089-3.536-.1-2.085-.085-4.173-.07-6.261v-.002q.01-1.241.011-2.482l-.003-1.966v-3.311c.001-4.156.001-8.311-.052-12.467-.022-1.519.408-2.57 1.829-3.174.238-.102.458-.248.678-.393l.001-.001c.13-.086.26-.172.394-.249l11.708-6.718q17.548-10.074 35.107-20.136c4.141-2.372 8.287-4.732 12.434-7.093l.008-.004.005-.003c9.094-5.177 18.188-10.354 27.216-15.645 4.556-2.67 4.553-2.049 4.532 2.663v.031c-.026 5.802.008 11.604.043 17.407q.016 2.543.029 5.086c.003.58.052 1.16.108 1.828v.001c.028.326.057.673.084 1.052l.422-.209.504-.246.002-.001.002-.001c.542-.263.977-.474 1.393-.713q4.577-2.621 9.155-5.238c10.036-5.739 20.073-11.478 30.057-17.302 2.71-1.583 5.276-3.519 7.583-5.647 4.157-3.838 6.263-8.6 6.174-14.442-.143-9.498-.151-18.995-.16-28.495v-.001q-.003-5.745-.019-11.49v-2.456zM371.313 234.044c-.036.239-.058.387-.024.52 1.727 6.732 2.527 13.583 2.617 20.519.017 1.255.634 1.966 1.655 2.545a692 692 0 0 1 6.779 3.912l.001.001 2.088 1.214q19.88 11.544 39.756 23.089l39.757 23.089q3.844 2.231 7.692 4.458l.008.006c6.371 3.689 12.74 7.378 19.082 11.114 1.774 1.047 3.57 2.225 4.97 3.706 2.928 3.09 2.906 7.017-.042 10.089-1.413 1.477-3.179 2.694-4.962 3.724a6516 6516 0 0 1-22.859 13.074l-.012.007a8521 8521 0 0 0-17.898 10.224c-7.84 4.498-15.669 9.014-23.498 13.531l-.011.006-.011.007c-7.097 4.094-14.194 8.188-21.3 12.269q-9.467 5.435-18.933 10.873c-25.251 14.504-50.502 29.008-75.797 43.436-9.28 5.293-18.808 5.204-28.076-.111-11.035-6.33-22.027-12.732-33.021-19.135l-.004-.003-.004-.002-.004-.002-.004-.003-.004-.002q-7.465-4.35-14.936-8.69l-72.947-42.362-72.688-42.211q-4.09-2.372-8.183-4.743l-.005-.003c-6.784-3.928-13.569-7.857-20.326-11.832-1.923-1.132-3.86-2.383-5.416-3.945-3.132-3.144-3.094-7.314.038-10.472 1.383-1.395 3.093-2.531 4.808-3.519a45102 45102 0 0 1 89.083-51.092c1.625-.932 2.519-2.081 3.123-3.889 2.821-8.455 5.877-16.83 10.77-24.378.148-.227.234-.493.354-.862.066-.205.143-.442.246-.721-.398.216-.741.398-1.048.562l-.003.001-.001.001c-.501.267-.907.483-1.305.712l-97.321 55.812c-4.777 2.738-9.549 5.483-14.321 8.227q-5.187 2.983-10.376 5.964c-3.417 1.961-6.51 4.319-9.123 7.302-5.94 6.782-5.707 16.182.195 22.744 2.6 2.889 5.681 5.119 9.008 7.051q31.972 18.57 63.945 37.134l.285.165.283.164.28.163.277.161.275.16 30.589 17.762a92542 92542 0 0 0 33.266 19.305l.001.001h.001c31.126 18.058 62.251 36.116 93.32 54.275 10.145 5.932 21 8.757 32.595 9.042 12.617.311 24.693-1.872 35.808-8.263 16.868-9.698 33.75-19.373 50.631-29.048l.031-.017a208692 208692 0 0 0 102.351-58.708 8978 8978 0 0 0 30.088-17.34c2.902-1.68 5.434-3.842 7.638-6.378 5.813-6.694 6.226-15.727-.259-22.872-2.902-3.196-6.43-5.519-10.115-7.655l-12.665-7.347a59658 59658 0 0 1-33.585-19.491q-18.705-10.863-37.409-21.73l-.105-.061-.105-.061-.105-.061-.106-.061-.2-.117-.046-.026q-26.116-15.173-52.236-30.341a26 26 0 0 0-1.361-.712 94 94 0 0 1-.865-.437l.005.005c-.023.24-.051.426-.074.576zm-163.454 38.494c.244-.704.473-1.372.693-2.014l.001-.005c.484-1.41.925-2.697 1.387-3.977 3.51-9.727 7.544-19.22 12.583-28.271.468-.843.991-1.881.897-2.762-.306-2.859-1.021-5.498-4.191-6.774-1.468-.592-2.821-.911-4.336-.647-.801.138-1.6.292-2.4.445-.755.146-1.51.291-2.268.423-9.417 1.621-18.178 4.987-25.94 10.536-9.565 6.838-18.293 14.71-26.65 22.974-1.362 1.347-2.672 2.746-3.983 4.145l-.001.001a186 186 0 0 1-3.271 3.432c-.316.319-.762.509-1.208.699a8 8 0 0 0-.596.272q-.088-.31-.182-.618c-.139-.464-.279-.928-.367-1.399-.053-.276-.025-.566.003-.856a8 8 0 0 0 .031-.391c.229-6 .808-11.962 2.089-17.838.049-.231.039-.474.025-.804a15 15 0 0 1-.017-.656c-.368.194-.704.367-1.019.528-.604.31-1.126.578-1.636.872a62735 62735 0 0 0-43.356 24.847l-7.685 4.407-.007.004-.005.003-.014.008a11829 11829 0 0 0-36.262 20.853c-1.634.945-3.26 2.081-4.52 3.464-2.165 2.379-2.089 5.277.06 7.685.979 1.098 2.213 2.034 3.49 2.783 4.224 2.482 8.46 4.946 12.696 7.41l.005.003.003.001.004.003.006.004.009.005c5.762 3.351 11.525 6.703 17.259 10.101 1.765 1.047 3.08.911 4.787-.072a32254 32254 0 0 1 60.377-34.687l14.148-8.116a6898 6898 0 0 1 8.684-4.968l.01-.006.01-.006.011-.006.01-.006c7.503-4.287 15.005-8.575 22.466-12.935 1.847-1.081 3.298-1.179 4.974.123.552.427 1.183.751 1.934 1.136.386.198.803.411 1.258.664zm106.853-45.084-.086.134q-.11.173-.217.347a11 11 0 0 1 .286.439c.204.32.407.64.655.922 11.14 12.728 18.787 27.412 24.097 43.37.651 1.957 1.651 3.251 3.438 4.285 25.334 14.669 50.647 29.376 75.96 44.082l.357.208 20.668 12.006q3.781 2.196 7.564 4.388l.049.028c7.186 4.166 14.372 8.331 21.522 12.554 1.571.927 2.758.927 4.319 0 3.011-1.791 6.053-3.529 9.096-5.267l.003-.002c2.667-1.524 5.335-3.048 7.982-4.608 1.489-.876 2.949-1.927 4.127-3.178 2.209-2.353 2.188-5.575-.063-7.872-1.26-1.285-2.805-2.354-4.37-3.268a18469 18469 0 0 0-37.031-21.527l-.054-.031-.162-.094-.159-.092-11.615-6.741-17.789-10.33-.095-.055-.094-.055q-22.976-13.344-45.956-26.682a35 35 0 0 0-1.874-.988c-.36-.182-.739-.372-1.143-.582l-.093.631-.062.407-.001.003v.001c-.103.666-.188 1.217-.223 1.77-.047.704-.074 1.409-.102 2.115-.038.958-.076 1.917-.161 2.872-.039.426-.358 1.043-.694 1.166-.328.119-.932-.183-1.26-.476-.363-.324-.667-.712-.972-1.101a16 16 0 0 0-.487-.601c-1.254-1.45-2.501-2.904-3.749-4.358-3.413-3.977-6.825-7.953-10.349-11.829-1.655-1.817-3.697-3.392-5.817-4.66-4.743-2.833-9.523-5.601-14.303-8.369l-.002-.001c-3.792-2.196-7.584-4.392-11.358-6.621-2.726-1.61-5.669-1.913-8.634-2.219q-.572-.059-1.144-.121zM250.23 100.238c-.26-.167-.549-.351-.882-.562 1.206.178 2.363.366 3.486.548h.001v.001c2.357.382 4.569.741 6.797.943 11.732 1.064 23.114-.311 33.906-5.294 4.195-1.94 7.965-4.51 11.05-8.004 2.073-2.344 3.583-4.991 4.358-8.046.074-.294.185-.58.334-.96.082-.208.174-.446.279-.73.158.28.301.515.428.724.232.381.411.677.537.996 2.294 5.82 4.154 11.778 5.371 17.923.906 4.582 2.217 9.038 3.885 13.412 1.216 3.181 2.198 6.456 3.178 9.725l.073.241c1.685 5.621.595 10.876-2.371 15.808-2.761 4.595-6.642 8.089-11.106 10.957-6.876 4.417-14.399 7.123-22.378 8.893-11.706 2.596-23.433 2.983-35.241 1.192-10.128-1.536-19.843-4.349-28.523-10.043-4.94-3.242-9.213-7.136-11.962-12.48-2.391-4.651-3.004-9.498-1.502-14.532.954-3.191 1.924-6.382 3.115-9.489a85 85 0 0 0 4.077-14.14c1.14-5.82 2.978-11.433 5.055-16.974.17-.453.376-.895.631-1.443v-.001l.001-.001c.133-.285.279-.6.44-.959.236.637.445 1.25.646 1.842.442 1.3.848 2.494 1.426 3.596a23.7 23.7 0 0 0 3.234 4.715c1.32 1.485 2.86 2.8 4.447 3.995 1.523 1.15 3.192 2.124 4.868 3.035 1.15.623 2.344 1.167 3.654 1.765h.002v.001h.001l.005.003h.002c.592.27 1.208.552 1.855.856-.321 0-.6.004-.851.008-.486.008-.87.014-1.251-.016-5.174-.439-9.915.778-14.208 3.71q-.36.246-.714.5c-.375.266-.749.532-1.137.777-10.425 6.553-12.583 18.14-9.302 27.803 3.417 10.064 10.059 16.966 20.463 19.77 6.285 1.693 12.221.608 17.63-3.094q1.442-.99 2.872-2c7.923-5.578 10.757-13.378 9.353-22.684-1.426-9.451-6.579-16.566-14.761-21.489-.393-.236-.779-.483-1.262-.792l-.001-.001zM468.5 352.002c-.113-.182-.196-.316-.316-.384q-62.386-36.273-124.792-72.513a9 9 0 0 0-1.058-.493l-.287-.12c-.064-.03-.174 0-.242.034-.043.024-.076.067-.144.155-.04.052-.093.121-.167.211q.094.38.201.794l.001.002v.003l.001.001v.001c.157.61.326 1.265.461 1.926.28 1.388.569 2.774.857 4.16l.001.005.001.002c.812 3.905 1.625 7.81 2.268 11.744.345 2.106 1.175 3.353 3.026 4.421 15.948 9.197 31.867 18.448 47.784 27.7l.071.04.069.041q7.142 4.151 14.283 8.299 6.28 3.648 12.563 7.292c8.986 5.214 17.972 10.429 26.946 15.665 1.234.719 2.255 1.093 3.66.246 2.84-1.717 5.719-3.368 8.599-5.019 1.453-.833 2.906-1.666 4.354-2.508.505-.294.988-.621 1.487-.958v-.001l.181-.122.157-.106.255-.17h.009l-.057-.081-.011-.015-.011-.018-.027-.04q-.068-.104-.123-.193m-247.862-127.47c.1.357.209.747.322 1.188l-.265.033-.211.026-.331.043-.717.091c-.987.127-1.865.24-2.743.337-12.906 1.438-24.927 5.374-35.314 13.31-6.013 4.591-11.715 9.608-17.349 14.663-2.894 2.596-5.631 5.363-8.369 8.131-1.244 1.257-2.487 2.513-3.745 3.754-.324.319-.653.631-1.027.986l-.002.002-.001.001-.001.001-.002.002-.001.001c-.228.217-.474.449-.745.709a8 8 0 0 0-.165-.479c-.088-.238-.155-.417-.15-.593.345-9.37 1.766-18.54 5.128-27.352 5.902-15.468 16.259-26.919 31.003-34.4 8.6-4.361 17.779-6.497 27.391-6.884.498-.017 1-.03 1.498-.013 1.868.055 2.11.183 2.553 2.034.856 3.567 1.659 7.15 2.463 10.732l.001.005.165.735.265 1.178.04.18c.102.441.223.967.036 1.25-1.429 2.201-.969 4.423-.509 6.641.126.608.252 1.216.339 1.823.085.587.246 1.162.443 1.865m24.539-179.295-.715-.497c-.39.376-.803.736-1.216 1.096-.895.782-1.79 1.563-2.46 2.504-3.621 5.08-7.191 10.208-10.574 15.45-2.166 3.362-2.77 7.123-1.417 11.017 1.089 3.136 2.961 5.744 5.493 7.906 3.277 2.796 6.983 4.817 11 6.294 10.497 3.867 21.284 4.446 32.242 2.697 5.714-.91 11.17-2.676 16.22-5.565 3.588-2.051 6.775-4.596 8.924-8.187 1.689-2.83 2.697-5.864 1.736-9.477l-.159.148-.011.01c-1.049.974-2.028 1.883-3.409 1.148-1.564-.83-1.721-2.323-1.875-3.796-.028-.263-.055-.525-.091-.782-.23-1.657.885-1.988 1.995-2.317.324-.096.648-.193.937-.321-.069-.166-.124-.314-.174-.448-.094-.253-.169-.455-.286-.625l-1.72-2.46-.004-.006-.009-.013-.014-.02-.002-.003-.001-.002c-2.61-3.734-5.22-7.47-7.888-11.163-.527-.732-1.25-1.329-1.966-1.92l-.002-.002a47 47 0 0 1-.568-.474c-.213-.184-.495-.288-.776-.392h-.001q-.192-.069-.376-.148c.145 1.26.583 2.216 1.094 3.131 2.195 3.924 1.974 7.775-1.068 11.077-1.549 1.68-3.409 3.289-5.443 4.28-10.251 5-20.714 5.085-31.152.575-1.945-.843-3.787-2.145-5.366-3.579-4.225-3.85-4.732-8.093-1.864-13.004.271-.465.479-.965.687-1.466.093-.223.185-.446.284-.666zm81.049 82.317q-.313.001-.621-.004-.055.213-.114.424l-.001.001v.003c-.091.327-.182.654-.23.989-.71 4.94-2.923 9.157-6.166 12.885-4.404 5.059-9.855 8.706-15.91 11.417-7.314 3.276-14.944 5.429-22.906 6.685-10.506 1.655-20.914 1.2-31.284-.541-4.173-.698-8.263-2.039-12.305-3.363l-.435-.143c-5.966-1.958-11.549-4.745-16.553-8.591-6.421-4.936-11.165-10.941-12.182-19.298-.015-.126-.126-.241-.236-.354-.053-.055-.106-.109-.147-.165a3 3 0 0 1-.22.119c-.122.062-.219.111-.265.188-2.992 5.016-3.979 10.382-2.588 16.084 1.154 4.715 3.549 8.762 6.919 12.251 6.409 6.642 14.277 10.906 22.915 13.731 21.48 7.034 43.041 7.073 64.572.188 7.6-2.43 14.626-6.013 20.702-11.272 4.566-3.953 8.03-8.626 9.625-14.566 1.613-5.995.358-11.463-2.566-16.668zm45.312 136.386.266-.091q.04-.253.083-.505c.066-.384.131-.767.164-1.155.502-6.17.178-12.31-.647-18.438-1.621-12.033-5.915-22.812-14.549-31.637-10.583-10.817-23.574-15.195-38.458-14.608-2.026.081-2.222.247-2.732 2.234a376 376 0 0 0-2.673 11.174c-.174.779-.148 1.668.035 2.447.808 3.429.442 6.778-.486 10.114-.11.401-.162.817-.219 1.275l-.02.157q-.034.277-.08.577l2.343.282c1.637.195 3.203.383 4.768.586 6.761.885 13.178 2.825 19.114 6.242 3.477 2 6.728 4.285 9.655 7.055 7.447 7.038 14.881 14.081 21.276 22.123.456.574.934 1.134 1.411 1.694l.002.001.477.56.004.005zm6.597 204.435c.399-.206.765-.389 1.107-.561.648-.326 1.213-.609 1.761-.924q10.296-5.901 20.589-11.806 10.294-5.904 20.589-11.806l6.432-3.691.076-.043.016-.009c8.806-5.054 17.611-10.107 26.445-15.103 1.732-.979 2.502-2.124 2.405-4.158-.116-2.426-.118-4.856-.119-7.286-.001-1.235-.002-2.47-.018-3.705-.005-.469-.061-.939-.129-1.51v-.002a49 49 0 0 1-.109-.973c-.337.165-.644.31-.929.444a21 21 0 0 0-1.496.752q-10.399 5.963-20.798 11.929l-.016.009a41920 41920 0 0 1-54.184 31.048c-1.43.817-1.962 1.783-1.919 3.391.062 2.443.06 4.886.059 7.33v.003c-.001 1.387-.002 2.774.009 4.161.002.461.053.921.115 1.482l.037.341q.035.321.069.696zM264.998 125.78c-.213-6.668-2.8-12.991-7.893-18.225-11.37-11.685-26.285-10.983-37.085 2.285-1.319 1.621-2.199 3.749-2.808 5.783-2.936 9.795 1.043 21.369 9.57 28.084 5.532 4.353 11.719 6.532 18.842 5.323 3.902-.663 7.038-2.816 10.204-5.008 6.17-4.281 9.072-10.187 9.17-18.238zm60.546 28.724-.463.535-.001.001a56 56 0 0 1-1.96 2.186c-5.762 6.017-12.736 10.208-20.48 13.034-24.451 8.923-48.935 8.863-73.279-.366-8.345-3.166-15.796-7.864-21.506-14.936-.175-.215-.271-.496-.367-.777a6 6 0 0 0-.148-.402l-.425.32-.104.078-.105.079c.017.143.025.291.033.439.017.321.033.643.15.923.247.591.483 1.19.719 1.791.648 1.65 1.298 3.303 2.2 4.804 3.532 5.877 8.791 9.974 14.723 13.161 9.864 5.302 20.408 8.498 31.557 9.698 17.042 1.834 33.377-.668 48.93-7.936 6.328-2.957 11.983-6.872 16.396-12.383 2.468-3.085 4.238-6.523 4.506-10.672l-.009.005-.176.2-.084.096zM267.058 53.586c2.77.043 6.084-.357 9.199-1.583 2.064-.812 4.132-1.83 5.881-3.166 4.238-3.238 4.298-8.038.204-11.416-1.451-1.196-3.153-2.222-4.902-2.894-7.54-2.885-15.144-2.808-22.608.264-1.8.74-3.485 1.957-4.949 3.264-2.531 2.263-3.319 6.727-.182 9.787a17.4 17.4 0 0 0 3.991 2.923c3.979 2.102 8.306 2.83 13.361 2.817zm-20.34 5.217c-3.57-3.634-3.545-7.787.042-11.876 5.352 6.856 12.734 8.314 20.612 8.293 2.383-.004 4.809-.442 7.145-.983 4.647-1.08 8.723-3.212 11.523-7.272 3.255 3.051 3.719 6.851 1.396 10.362-1.328 2.008-3.2 3.37-5.255 4.497-4.63 2.54-9.677 3.54-14.885 3.647-5.813.12-11.459-.817-16.608-3.698-1.434-.8-2.821-1.804-3.97-2.97m29.807 200.91c2.332 2.115 31.919 19.165 33.812 19.561q-.094-.215-.174-.413v-.001h-.001a6 6 0 0 0-.352-.761c-4.524-7.825-9.941-14.978-16.115-21.573-.957-1.022-1.808-1.081-3.085-.656-3.124 1.043-6.294 1.948-9.462 2.853l-.814.232c-.739.211-1.499.344-2.391.5h-.002l-.004.001-.007.001c-.434.076-.9.157-1.409.256zm38.122-69.65-.106-.027-.234-.06-.106-.027q-.145.567-.298 1.132l-.002.006v.001c-.23.857-.46 1.714-.628 2.584-.698 3.6-2.268 6.761-4.634 9.549-4.263 5.021-9.71 8.331-15.769 10.642-14.349 5.468-29.051 6.055-43.952 2.749-7.473-1.66-14.455-4.502-20.494-9.349-3.987-3.204-7.05-7.055-8.408-12.085-.289-1.072-.766-1.957-1.919-2.434-.046.117-.097.219-.143.312-.088.179-.159.323-.15.463.034.578.106 1.161.225 1.727.855 3.996 2.604 7.519 5.468 10.481 4.128 4.264 9.047 7.319 14.532 9.468 13.761 5.391 27.952 6.506 42.458 4.038 7.94-1.353 15.531-3.745 22.374-8.14 3.749-2.409 7.123-5.256 9.442-9.115 2.187-3.638 3.421-7.549 2.575-11.851l.004-.004zm152.622 210.812c.757 1.977 1.047 23.815.351 27.053q-.658-.384-1.298-.753l-.325-.188-.507-.292-.001-.001c-1.867-1.078-3.635-2.098-5.364-3.186-.473-.297-.907-1.063-.919-1.621a545 545 0 0 1-.107-15.182c.005-.558.405-1.345.864-1.63 1.744-1.073 3.534-2.078 5.336-3.089l.01-.006.048-.027.014-.008q.948-.531 1.898-1.07M230.965 82.254c.885 2.19 2.438 3.893 4.2 5.42 3.578 3.107 7.719 5.205 12.178 6.694 9.259 3.09 18.749 3.694 28.365 2.345 6.23-.873 12.192-2.664 17.651-5.902 3.038-1.8 5.744-3.987 7.787-6.907.183-.262.297-.572.422-.91a10 10 0 0 1 .208-.536 140 140 0 0 0-2.504 1.79c-1.756 1.274-3.45 2.504-5.258 3.541-6.31 3.617-13.225 5.49-20.429 6.102-15.587 1.332-30.242-.88-42.616-11.642zM215.94 191.459c-14.494-2.472-44.676 13.396-49.829 26.161 6.609-6.685 14.076-12.123 22.74-15.808 8.727-3.71 17.893-5.391 27.506-5.468l-.221-2.563-.081-.931-.12-1.391zm9.353-114.095c-.174-2.017.046-3.076 1.125-5.056.127.543.262 1.056.392 1.551.277 1.058.531 2.029.644 3.016.532 4.617 2.656 8.353 6.021 11.46 4.192 3.867 9.153 6.36 14.57 7.952 14.145 4.153 28.114 3.766 41.825-1.864a31.9 31.9 0 0 0 9.076-5.663c3.621-3.209 6.013-7.064 6.545-11.983.148-1.379.629-2.723 1.463-4.17.062.201.133.401.204.601v.001c.152.425.303.85.358 1.287.655 5.102-1.281 9.298-4.689 12.923-3.251 3.46-7.183 6.009-11.566 7.694-17.089 6.578-34.161 6.54-51.079-.66-4.017-1.71-7.575-4.195-10.502-7.489-2.443-2.749-4.068-5.88-4.387-9.6m122.928 125.35c-7.723-8.034-24.229-13.089-31.356-11.651v4.575c17.766.753 21.181 2.404 25.938 4.705 1.506.728 3.146 1.521 5.418 2.371m-2.422 37.05.031-.064c-4.672-3.91-9.779-7.055-15.557-9.016l-.031.053-.045.078-.058.101-.134.231 15.587 9.051v.005l.118-.251.053-.111zm-118.387-9.999c.099-1.221-.586-1.955-1.272-2.691-.345-.37-.69-.74-.937-1.173-.26-.462-.537-.916-.813-1.369-.501-.821-1.001-1.642-1.404-2.508-.444-.957-.784-1.965-1.123-2.971a63 63 0 0 0-.451-1.309c.247 4.897 1.979 9.055 5.995 12.021zm74.389-161.422c.992-1.37 1.039-2.417.098-3.221-.276-.238-.876-.477-1.085-.34-.349.23-.702.761-.698 1.161.013 1.132.422 2.102 1.685 2.4m-89.1 120.716c3.439.698 4.064.315 3.677-2.093l-1.372.781-.188.107-.139.079zm96.951 34.187.745.229q.144-.397.297-.793c.591-1.544 1.183-3.089.707-4.917l-.862 2.702-.012.038zm-84.606 10.212c1.349-1.957 1.204-2.345-1.26-3.804q.107.436.204.845c.156.653.302 1.262.473 1.865.053.192.158.368.308.617.08.133.172.286.275.473zm23.324 8.353c.747-.667 1.489-.471 2.188-.287.156.041.311.082.463.113 9.565 1.927 19.165 2.025 28.765.37 2.024-.351 4.018-.877 6.014-1.404l.001-.001c.982-.259 1.964-.518 2.951-.757.171-.041.343-.099.517-.157.663-.223 1.347-.453 2.032.238-.215 1.014-.998 1.192-1.684 1.349l-.219.051c-.99.238-1.979.486-2.969.733l-.004.002c-3.043.762-6.087 1.524-9.175 2.005-8.791 1.366-17.578 1.013-26.293-.783a8 8 0 0 0-.538-.083c-.833-.11-1.742-.23-2.045-1.389zm5.069-2.771c-1.461-.189-2.957-.383-4.504-.556.219.274.385.515.525.717.245.356.408.591.628.678.735.286 1.53.435 2.315.582h.001l.096.018c10.702 1.987 21.34 1.736 31.906-.906 1.528-.383 3.034-.872 4.532-1.366.659-.217 1.221-.6.719-1.506-1.357.282-2.709.59-4.061.898-3.076.7-6.15 1.401-9.262 1.791-4.434.553-8.962.732-13.43.579-3.104-.106-6.198-.507-9.464-.929zm20.843-32.058c.055 1.949-1.783 3.783-3.796 3.796-2.085.013-3.846-1.498-3.91-3.357-.064-1.898 1.476-3.23 3.817-3.298 2.323-.068 3.838 1.042 3.889 2.855zm-4.021 1.962c1.332.017 2.213-.677 2.259-1.775.043-1.042-.71-1.706-1.965-1.736-1.26-.025-2.243.741-2.294 1.788-.047.965.813 1.706 2 1.719zm.184-125.908c1.962.069 3.685-1.578 3.728-3.565h-.005c.043-2-1.608-3.69-3.595-3.69-1.924 0-3.685 1.783-3.647 3.685.038 1.817 1.702 3.507 3.519 3.57m2.03-3.446a1.9 1.9 0 0 1-1.987 1.783c-1.022-.047-1.847-.924-1.839-1.954a1.898 1.898 0 0 1 2.124-1.885c1.046.111 1.778.996 1.702 2.056m-33.931-13.566c-.149.347-.286.702-.423 1.057h-.001c-.305.79-.611 1.58-1.048 2.288-.983 1.591-2.745 1.57-3.847.076-1.51-2.042-.127-5.485 2.379-5.914 1.583-.273 2.702.719 2.944 2.489zm-2.183-.821c-1.221.038-2.11 1.115-2.08 2.166.021.813.276 1.523 1.28 1.468.898-.051 1.707-1.162 1.524-2.23-.067-.388-.303-.747-.505-1.053a5 5 0 0 1-.219-.351m-9.54 46.139c-1.264 2.596-1.996 5.272-2.03 8.174l-.004.005c.434 8.693 4.323 15.365 11.816 19.842 3.613 2.157 7.549 2.897 11.757 2.285 2.592-.375 4.434-1.626 5.724-3.898 1.646-2.906 2.48-6.026 2.272-9.319-.502-7.902-4.119-14.093-10.723-18.463-3.575-2.366-7.536-3.409-11.847-3.06-3.123.251-5.523 1.468-6.965 4.434m15.365-1.391c7.953 3.931 12.059 10.408 12.527 17.909-.034 4.223-.762 6.912-2.238 9.418-.919 1.561-2.234 2.357-3.983 2.672-3.949.706-7.642-.004-11.068-2-6.595-3.843-10.199-9.642-10.914-17.212-.289-3.051.396-5.949 1.774-8.702 1.026-2.047 2.634-3.132 4.877-3.409 3.136-.383 6.191-.076 9.025 1.324" clip-rule="evenodd"/>
</svg>
