<svg xmlns="http://www.w3.org/2000/svg" width="550" height="550" fill="none" viewBox="0 0 550 550">
    <path fill="#fff" d="M173.529 349.507a.75.75 0 0 1 .944-.167h.001l.001.001.005.003.021.012.085.049.334.189 1.287.732a4131 4131 0 0 0 20.816 11.736c12.724 7.125 28.335 15.771 39.9 21.863 22.922 12.077 51.123 13.085 80.27-.02l.072-.028a.8.8 0 0 1 .225-.039l33.317-.497a.75.75 0 0 1 .57 1.25l-33.317 37.181a.8.8 0 0 1-.251.184c-29.523 13.274-58.212 12.293-81.584-.021-11.583-6.102-27.209-14.756-39.934-21.881a4204 4204 0 0 1-20.825-11.74l-1.288-.732-.334-.191-.085-.048-.022-.012q-.002-.003-.005-.003l-.001-.001a.75.75 0 0 1 .294-1.398l26.242-2.691-26.746-32.772a.75.75 0 0 1 .008-.959m28.781 33.861a.75.75 0 0 1 .112.762.75.75 0 0 1-.617.458l-25.293 2.593a4113 4113 0 0 0 20.511 11.565c12.724 7.124 28.335 15.769 39.9 21.862 22.884 12.057 51.03 13.08 80.127.042l32.065-35.783-31.452.469c-29.471 13.206-58.104 12.209-81.438-.084-11.583-6.103-27.209-14.755-39.934-21.88a4204 4204 0 0 1-16.053-9.036l-3.02-1.713zm-69.288-65.531a.75.75 0 0 1 .62.016l34.78 16.97a.75.75 0 0 1 .417.751v39.168a.75.75 0 0 1-.375.65l-33.161 19.131-.009.007q-.053.032-.109.054l-.013.005q-.04.016-.081.027l-.013.003q-.04.01-.081.015l-.018.002a.5.5 0 0 1-.108.005q-.028 0-.057-.004l-.035-.005-.057-.01-.041-.012a.5.5 0 0 1-.09-.032l-.024-.01-34.78-16.967a.8.8 0 0 1-.202-.143 1 1 0 0 1-.204-.318 2 2 0 0 1-.07-.224 5 5 0 0 1-.083-.48 20 20 0 0 1-.113-1.407c-.06-1.149-.098-2.733-.119-4.596-.041-3.729-.014-8.614.041-13.466a1785 1785 0 0 1 .293-17.651l.026-1.22.007-.321.002-.083.001-.021v-.006q.001-.026.004-.05l.002-.02a.75.75 0 0 1 .354-.554q.013-.009.027-.016l33.186-19.147zm-32.192 21.51c-.022 1.051-.054 2.553-.088 4.358-.068 3.609-.15 8.431-.205 13.279s-.082 9.721-.041 13.433c.021 1.857.058 3.416.117 4.533.03.56.065.996.103 1.298l.02.147 33.409 16.297v-37.574l-26.413-12.887-6.892-3.362zm34.817 15.739v37.506l31.692-18.283v-37.511zm282.787-48.485c23.344 0 42.269 18.925 42.269 42.27 0 23.344-18.925 42.269-42.269 42.269-23.345 0-42.27-18.925-42.27-42.269 0-23.345 18.925-42.27 42.27-42.27m0 1.5c-22.517 0-40.77 18.253-40.77 40.77 0 22.516 18.253 40.769 40.77 40.769 22.516 0 40.769-18.253 40.769-40.769 0-22.517-18.253-40.77-40.769-40.77M274.329 184.237c49.687 0 89.967 40.279 89.967 89.966s-40.28 89.967-89.967 89.967c-49.687-.001-89.966-40.28-89.966-89.967.001-49.687 40.28-89.966 89.966-89.966m0 1.5c-48.858 0-88.465 39.608-88.466 88.466s39.608 88.466 88.466 88.467c48.859 0 88.467-39.609 88.467-88.467s-39.609-88.466-88.467-88.466M101.714 337.626l16.381 7.992 16.773 8.182 31.626-18.249-33.152-16.176zm-1.98-134.142a.75.75 0 0 1 .965 1.117l-27.891 34.57 28.005 1.655a.75.75 0 0 1 .684.572.75.75 0 0 1-.348.822l-.38-.646.379.646-.001.001-.003.002-.018.011-.068.04-.271.159-1.045.615a4074 4074 0 0 1-17.412 10.18c-10.905 6.34-24.806 14.355-36.781 21.052a48 48 0 0 0-3.312 2.032c6.456 5.471 15.714 10.908 28.134 15.984.11.044.208.115.285.205l30.024 34.892a.752.752 0 0 1-.532 1.238l-30.023 1.503a.75.75 0 0 1-.321-.054c-12.971-5.301-22.563-10.945-29.135-16.646-6.41-5.561-9.992-11.221-10.97-16.709a.75.75 0 0 1-.281-.574L29 256.473q0-.046.005-.093c-.046-8.171 5.502-15.449 15.16-20.852 11.962-6.691 25.855-14.701 36.758-21.04 5.45-3.169 10.154-5.92 13.494-7.879 1.67-.979 3-1.761 3.912-2.297l1.315-.773.068-.041.017-.01.004-.003h.001zm-68.82 92.205a.75.75 0 0 1 .197.4c.798 5.143 4.13 10.651 10.541 16.212 6.382 5.537 15.766 11.083 28.566 16.327l28.324-1.418-28.907-33.596c-12.908-5.291-22.502-11.001-29.117-16.803v-.001c-4.883-4.283-8.167-8.641-9.94-12.935zm267.922-58.267.091.008a.8.8 0 0 1 .26.088l26.098 14.624.029.019.04.027q.03.021.057.045l.02.019c.095.09.164.202.202.325l.007.021.016.08.005.032.005.074v.039l-.007.079-.005.027-.011.065-.006.012a.7.7 0 0 1-.141.264l-.013.019-60.237 69.337-.006.005-.061.062-.025.02-.071.052-.015.01-.007.006a.8.8 0 0 1-.192.078q-.014.004-.029.006-.036.008-.072.013l-.039.002-.07.002-.036-.002-.077-.009-.028-.005-.081-.025-.02-.004-.006-.003a1 1 0 0 1-.097-.045l-26.098-14.621a.75.75 0 0 1-.384-.655v-70.609l.003-.052.003-.032a.8.8 0 0 1 .06-.223l.014-.028.04-.07.021-.033.053-.065.018-.021a1 1 0 0 1 .084-.074l.005-.003.07-.047.018-.008.045-.023q.025-.013.051-.022a.5.5 0 0 1 .13-.036q.013-.004.028-.006a1 1 0 0 1 .1-.007h.023zm-59.504 69.652 24.598 13.779v-68.888l-24.598-13.782zm26.099 13.051 57.869-66.613-57.869-1.218zm171.185-124.254a.75.75 0 0 1 .938-.168l.01.005.03.016.118.067.463.258 1.767.988 6.397 3.572c5.344 2.983 12.59 7.026 20.197 11.262 15.218 8.474 31.875 17.719 37.658 20.822l.643.353c3.239 1.83 6.865 4.563 9.822 7.978 3.1 3.579 5.501 7.954 5.891 12.857a.8.8 0 0 1 .056.282v.645q.01.429 0 .861v37.409c-.012 7.173-4.412 15.086-16.355 23.01a.76.76 0 0 1-.379.125l-37.282 1.773a.751.751 0 0 1-.581-1.264l37.281-39.541.063-.059.069-.052a63 63 0 0 0 3.965-2.848 36 36 0 0 0-3.901-2.442l-.001-.001c-5.796-3.11-22.466-12.363-37.678-20.834-7.608-4.236-14.854-8.279-20.199-11.262l-6.397-3.572-1.768-.987-.463-.259-.119-.067-.029-.016-.01-.005-.001-.001a.751.751 0 0 1 .259-1.396l25.541-3.689-26.021-32.868a.75.75 0 0 1 .016-.952m82.49 66.616c-.812 1.927-1.973 3.886-3.537 5.867l-.216.274-.224.273q-.133.161-.271.323-.17.203-.347.405l-.21.238a39 39 0 0 1-1.632 1.721l-.192.191a42 42 0 0 1-.565.543l-.247.231q-.261.244-.532.488l-.312.278q-.28.248-.572.497l-.277.238a46 46 0 0 1-.512.426l-.37.307a63 63 0 0 1-4.765 3.483l-35.95 38.129 35.215-1.675c11.594-7.74 15.505-15.208 15.516-21.647zm-423.93-54.584a4272 4272 0 0 1-13.5 7.882c-10.905 6.34-24.806 14.355-36.78 21.053-9.45 5.287-14.47 12.183-14.391 19.616l.015.566c.258 5.749 3.548 11.993 10.553 18.269a49 49 0 0 1 3.743-2.317l4.568-2.565c10.823-6.103 22.652-12.929 32.192-18.476a4138 4138 0 0 0 16.687-9.754l-26.952-1.592a.8.8 0 0 1-.253-.04.75.75 0 0 1-.501-.707v-.004a.75.75 0 0 1 .199-.509l26.192-32.463zm369.43 21.879a.752.752 0 0 1-.481 1.208l-24.638 3.556.455.255 6.397 3.573c5.344 2.983 12.59 7.024 20.197 11.26 15.218 8.474 31.873 17.719 37.657 20.823a37 37 0 0 1 4.404 2.791c4.847-4.012 7.74-7.913 9.23-11.599 1.039-2.574 1.394-5.042 1.249-7.37q-.004-.034-.004-.067c-.303-4.568-2.532-8.726-5.547-12.207-2.829-3.266-6.314-5.894-9.423-7.651l-.617-.34c-5.796-3.11-22.466-12.362-37.678-20.833-7.608-4.236-14.854-8.279-20.199-11.262l-5.487-3.065zm-215.814 11.983 15.846 8.879.246.138 57.049 1.201-23.317-13.065-57.05-1.202zm-104.9-75.712.062.003.03.004.076.014.034.009.034.009q.022.008.043.018l.023.01a1 1 0 0 1 .085.046l.014.007a.8.8 0 0 1 .206.197l39.657 47.928a.75.75 0 0 1-.202 1.128l-38.729 22.348-.01.008a.8.8 0 0 1-.2.087l-.029.008a1 1 0 0 1-.159.02h-.031q-.031 0-.064-.004-.022-.002-.044-.007l-.036-.006a1 1 0 0 1-.088-.025l-.077-.031-.003-.001-40.626-19.818a.75.75 0 0 1-.26-1.137l39.655-50.473a.76.76 0 0 1 .571-.34l.003-.001zm-38.541 51.011 38.691 18.873-.882-66.999zm40.195 18.792 36.889-21.286-37.771-45.646zm257.936-76.04h.045l.033.003.05.009.025.005.021.005.016.002 21.389 5.777a.75.75 0 0 1 .529.531l5.308 19.983.001.008.008.046q.009.038.013.077l.001.006 1.246 16.628a.75.75 0 0 1-.224.592l-17.004 16.615-.009.009-.003.004q-.004 0-.006.003l-.01.009-.046.039q-.02.017-.042.033l-.003.001-.006.004-.052.03-.017.01-.009.005q-.036.017-.075.031l-.023.009-.031.009-.051.013-.016.002-.005.001-.046.007-.015.003-.016.002q-.007 0-.014.003l-16.703.936a.8.8 0 0 1-.262-.032l-20.288-6.242h-.001l-.003-.002-.005-.001-.006-.003-.011-.004-.043-.016-.077-.036h.001l-.039-.019a1 1 0 0 1-.095-.07q-.019-.016-.036-.035l-.05-.052-.034-.044a.8.8 0 0 1-.109-.222l-.006-.015-5.932-21.233a1 1 0 0 1-.027-.171l-.623-14.988v-.018l-.001-.024q0-.018.003-.034l.001-.03.002-.017q.004-.032.011-.063l.008-.037.002-.008.012-.036.01-.028.008-.025.011-.023.002-.005.024-.046.009-.018.026-.039.017-.024q.014-.021.032-.041l.011-.013.045-.047 17.165-16.697.106-.085a.75.75 0 0 1 .379-.126l15.457-.782h.014zm-5.689 59.945 9.05-.507-20.05-2.877zm-18.876-6.031 33.939 4.869-16.04-24.346zm38.071-23.98-18.834 3.802 16.139 24.498 14.558-30.695zm-.113 26.364 13.771-13.455-1.01-13.454zm-39.008-3.462 17.86-19.432-23.858-13.715zm-5.654-19.731 1.589 5.688-1.756-9.704zm-135.91-67.257c11.177-6.162 25.38-8.216 38.985-7.541s26.713 4.085 35.73 8.951a9010 9010 0 0 0 24.661 13.263l1.202.642.299.159.075.04.022.013h.001l.001.001.123.082a1 1 0 0 1 .106.106l27.396 33.609a.748.748 0 0 1-.468 1.215l-27.397 4.17a.75.75 0 0 1-.518-.113l-.047-.024-.3-.16-1.203-.643c-1.073-.574-2.689-1.439-4.86-2.604a9995 9995 0 0 1-19.805-10.661c-8.777-4.736-21.655-8.105-35.091-8.772s-27.336 1.373-38.189 7.356c-11.009 6.069-23.432 13.128-33.104 18.669a3595 3595 0 0 0-16.272 9.382l-.236.137-.059.035-.016.009-.004.002h-.001v.001a.751.751 0 0 1-.969-1.11l26.019-33.348-25.521-3.222a.75.75 0 0 1-.283-1.392l.001-.001.004-.002.016-.009.059-.035.237-.137.917-.532a3537 3537 0 0 1 15.363-8.854c9.674-5.543 22.105-12.607 33.126-18.682m163.581 56.458-2.012 9.957 30.748-6.208-24.683-23.817zm-27.495-4.05 23.995 13.796 6.036-29.89zm-97.175-58.451c-13.437-.667-27.335 1.374-38.188 7.357-11.009 6.07-23.433 13.127-33.104 18.669a3816 3816 0 0 0-11.921 6.861l-2.746 1.59 24.627 3.11a.75.75 0 0 1 .497 1.205l-24.451 31.337 1.322-.765c2.94-1.699 7.089-4.092 11.927-6.863 9.674-5.544 22.105-12.608 33.126-18.683 11.177-6.162 25.381-8.215 38.986-7.54 13.607.675 26.713 4.086 35.729 8.95 8.895 4.8 15.461 8.33 19.802 10.659 2.171 1.165 3.787 2.029 4.859 2.603l1.202.644.184.097 25.846-3.933-26.472-32.476-.265-.141-1.202-.643c-1.073-.574-2.689-1.438-4.86-2.603a9210 9210 0 0 1-19.806-10.663c-8.779-4.738-21.657-8.106-35.092-8.772m153.544 64.296-4.507-16.965-18.157-4.905zm-40.423-21.836-13.148 12.789 24.984-13.388z"/>
</svg>
