<svg xmlns="http://www.w3.org/2000/svg" width="16" height="16" viewBox="0 0 16 16">
  <path fill-rule="evenodd" d="M5.787 8.618a1.338 1.338 0 0 0 1.937 1.197l2.573-1.287a1.338 1.338 0 0 0 0-2.394L7.724 4.847a1.338 1.338 0 0 0-1.937 1.197v2.574ZM9.699 7.33 7.125 8.618V6.044L9.7 7.331Z" clip-rule="evenodd"/>
  <path fill-rule="evenodd" d="m7.7 14.923.003.002c.185.1.409.1.594 0L8 14.387c.296.537.298.537.298.537h.001l.005-.003.014-.008a6.977 6.977 0 0 0 .227-.134 13.519 13.519 0 0 0 2.47-1.971c1.344-1.366 2.75-3.428 2.75-6.085C13.765 3.563 11.184 1 8 1 4.816 1 2.235 3.562 2.235 6.723c0 2.657 1.406 4.72 2.75 6.085a13.52 13.52 0 0 0 2.47 1.971c.075.046.135.082.178.106l.031.018.018.01.015.008.004.002Zm-4.23-8.2C3.47 4.239 5.5 2.226 8 2.226c2.502 0 4.53 2.013 4.53 4.497 0 2.208-1.168 3.978-2.398 5.228A12.289 12.289 0 0 1 8 13.671a12.288 12.288 0 0 1-2.132-1.72c-1.23-1.25-2.397-3.02-2.397-5.228ZM8 14.387l-.297.537.297-.537Z" clip-rule="evenodd"/>
</svg>
