<svg xmlns="http://www.w3.org/2000/svg" width="17" height="16" fill="none" viewBox="0 0 17 16">
    <path fill="#727683" d="M8.702 1.998a.75.75 0 0 1 .75.749v10.505a.751.751 0 0 1-1.5 0V2.748a.75.75 0 0 1 .75-.75m2.257 1.878a.75.75 0 0 1 .75.75v6.767a.75.75 0 0 1-1.5 0V4.626a.75.75 0 0 1 .75-.75m-6.773.373a.75.75 0 0 1 .75.75v6a.75.75 0 0 1-1.5 0v-6a.75.75 0 0 1 .75-.75m2.258 1.5a.75.75 0 0 1 .75.75v3a.75.75 0 0 1-1.5 0v-3a.75.75 0 0 1 .75-.75m6.773 0a.75.75 0 0 1 .75.75v3a.75.75 0 0 1-1.5 0v-3a.75.75 0 0 1 .75-.75"/>
</svg>
