<svg xmlns="http://www.w3.org/2000/svg" width="17" height="16" fill="none" viewBox="0 0 17 16">
    <path fill="#727683" d="M8.702 1.998C9.116 1.998 9.452 2.333 9.452 2.747V13.252C9.452 13.666 9.116 14.002 8.702 14.002 8.288 14.002 7.952 13.666 7.952 13.252V2.748C7.952 2.333 8.288 1.998 8.702 1.998ZM10.959 3.876C11.373 3.876 11.71 4.212 11.71 4.626V11.393C11.71 11.807 11.374 12.143 10.96 12.143 10.546 12.143 10.21 11.807 10.21 11.393V4.626C10.21 4.213 10.545 3.877 10.959 3.876ZM4.186 4.249C4.6 4.249 4.936 4.584 4.936 4.999V10.999C4.936 11.413 4.6 11.749 4.186 11.749 3.772 11.749 3.436 11.413 3.436 10.999V4.999C3.436 4.584 3.772 4.249 4.186 4.249ZM6.444 5.749C6.858 5.749 7.194 6.084 7.194 6.499V9.499C7.194 9.913 6.858 10.248 6.444 10.249 6.03 10.249 5.694 9.913 5.694 9.499V6.499C5.694 6.084 6.03 5.749 6.444 5.749ZM13.217 5.749C13.631 5.749 13.968 6.084 13.968 6.499V9.499C13.968 9.913 13.632 10.248 13.218 10.249 12.803 10.249 12.468 9.913 12.468 9.499V6.499C12.468 6.084 12.803 5.749 13.217 5.749Z"/>
</svg>
