<svg width="16" height="16" viewBox="0 0 16 16" fill="none" xmlns="http://www.w3.org/2000/svg">
<path fill-rule="evenodd" clip-rule="evenodd" d="M4.25 4C4.25 3.58579 4.58579 3.25 5 3.25H8.67001C9.43244 3.25 10.1636 3.55287 10.7028 4.09199C11.2419 4.63111 11.5448 5.36231 11.5448 6.12474C11.5448 6.77557 11.3241 7.40365 10.9241 7.90892C10.961 7.94242 10.9973 7.97689 11.0327 8.01233C11.6081 8.58772 11.9313 9.36811 11.9313 10.1818C11.9313 10.9956 11.6081 11.776 11.0327 12.3514C10.4573 12.9267 9.67689 13.25 8.86317 13.25L4.999 13.2495C4.58518 13.2489 4.25 12.9133 4.25 12.4995V4ZM6.52263 9V11.3632H8.47685C8.79023 11.3632 9.09077 11.2387 9.31236 11.0171C9.53395 10.7955 9.65843 10.495 9.65843 10.1816C9.65843 9.86821 9.53395 9.56767 9.31236 9.34608C9.09077 9.12449 8.79023 9 8.47685 9H6.52263ZM6.52263 7.11368V5.13683H8.28369C8.54584 5.13683 8.79725 5.24097 8.98262 5.42634C9.16798 5.6117 9.27212 5.86311 9.27212 6.12526C9.27212 6.3874 9.16798 6.63881 8.98262 6.82418C8.79725 7.00955 8.54584 7.11368 8.28369 7.11368H6.52263Z" fill="#727683"/>
</svg>
