<svg xmlns="http://www.w3.org/2000/svg">
    <path fill-rule="evenodd" d="M6.026 5.007A.1.1 0 0 0 6 5.084v8.333a.1.1 0 0 0 .026.076l.008.007h6.765l.008-.007a.1.1 0 0 0 .026-.076V5.084a.1.1 0 0 0-.026-.077L12.799 5H6.034zM4.5 5.084c0-.828.64-1.584 1.531-1.584h6.77c.891 0 1.532.756 1.532 1.584v8.333c0 .828-.64 1.583-1.531 1.583H6.03c-.89 0-1.531-.755-1.531-1.583z" clip-rule="evenodd"/>
    <path fill-rule="evenodd" d="M3.526 2.507a.1.1 0 0 0-.026.076v8.333a.75.75 0 0 1-1.5 0V2.583C2 1.755 2.64 1 3.531 1h6.77c.891 0 1.532.755 1.532 1.583a.75.75 0 0 1-1.5 0 .1.1 0 0 0-.026-.076L10.3 2.5H3.534z" clip-rule="evenodd"/>
</svg>
