<svg xmlns="http://www.w3.org/2000/svg">
    <path d="M4.28 3.22a.75.75 0 0 0-1.06 1.06l8.5 8.5a.75.75 0 1 0 1.06-1.06z"/>
    <path d="M6.025 9.975a.75.75 0 1 0 1.06-1.06 2 2 0 0 1-.03-2.799l-1.06-1.06a3.5 3.5 0 0 0 .03 4.919"/>
    <path d="M9.499 8.56c-.015.491-.21.979-.585 1.354l-2 2A2 2 0 0 1 3.83 9.4a.75.75 0 0 0-1.251-.827 3.501 3.501 0 0 0 5.397 4.402l2-2c.344-.344.601-.742.772-1.167zm1.447-.675-1.94-1.939a.75.75 0 0 1 .969.08c.526.526.85 1.178.97 1.86"/>
    <path d="m8.116 5.055-1.06-1.06.97-.97a3.5 3.5 0 0 1 5.396 4.402.75.75 0 1 1-1.251-.827 2 2 0 0 0-3.085-2.514z"/>
</svg>
