<svg xmlns="http://www.w3.org/2000/svg">
    <path d="M5.5 14q-.618 0-1.06-.44A1.45 1.45 0 0 1 4 12.5q0-.619.44-1.06Q4.883 11 5.5 11t1.06.44q.44.442.44 1.06t-.44 1.06Q6.12 14 5.5 14m4.5 0q-.619 0-1.06-.44a1.45 1.45 0 0 1-.44-1.06q0-.619.44-1.06Q9.382 11 10 11t1.06.44q.44.442.44 1.06t-.44 1.06Q10.617 14 10 14M5.5 9.5q-.618 0-1.06-.44A1.44 1.44 0 0 1 4 8q0-.619.44-1.06.442-.44 1.06-.44t1.06.44Q7 7.383 7 8t-.44 1.06q-.44.44-1.06.44m4.5 0q-.619 0-1.06-.44A1.44 1.44 0 0 1 8.5 8q0-.619.44-1.06.441-.44 1.06-.44t1.06.44q.44.442.44 1.06t-.44 1.06q-.442.44-1.06.44M5.5 5q-.618 0-1.06-.44A1.44 1.44 0 0 1 4 3.5q0-.62.44-1.06Q4.883 2 5.5 2t1.06.44Q7 2.883 7 3.5q0 .62-.44 1.06T5.5 5M10 5q-.619 0-1.06-.44A1.44 1.44 0 0 1 8.5 3.5q0-.62.44-1.06Q9.382 2 10 2t1.06.44q.44.442.44 1.06 0 .62-.44 1.06Q10.617 5 10 5"/>
</svg>
