<svg xmlns="http://www.w3.org/2000/svg">
    <path d="M8 7.333a.67.67 0 0 1-.667-.666.669.669 0 0 1 1.247-.334c.187.32.593.427.913.24a.666.666 0 0 0 .24-.913A2.01 2.01 0 0 0 8 4.66c-1.107 0-2 .893-2 2s.893 2 2 2c.367 0 .667.3.667.667a.669.669 0 0 1-1.247.333.666.666 0 0 0-.913-.24.666.666 0 0 0-.24.914c.346.593.993 1 1.733 1 1.107 0 2-.894 2-2 0-1.107-.893-2-2-2M4.667 6c.366 0 .666-.3.666-.667 0-.366-.3-.666-.666-.666H2v6.666h2.667c.366 0 .666-.3.666-.666S5.033 10 4.667 10H3.333V8.667h1.334c.366 0 .666-.3.666-.667s-.3-.667-.666-.667H3.333V6zm8.473 3.68c.18-.32.587-.44.907-.26v.007c.32.18.44.586.26.906a1.94 1.94 0 0 1-1.694 1.007c-1.1 0-1.946-.92-1.946-2V6.673c0-1.08.846-2 1.946-2 .74 0 1.367.414 1.694 1.007.18.32.06.727-.26.907a.67.67 0 0 1-.907-.26.6.6 0 0 0-.527-.327C12.3 6 12 6.273 12 6.667v2.68c.007.393.3.66.613.66.214 0 .414-.12.527-.327"/>
</svg>
