<svg xmlns="http://www.w3.org/2000/svg">
    <path fill-rule="evenodd" d="M1.75 2a.75.75 0 0 1 .75.75v10.493a.75.75 0 0 1-1.5 0V2.75A.75.75 0 0 1 1.75 2m12.5 0a.75.75 0 0 1 .75.75v10.493a.75.75 0 0 1-1.5 0V2.75a.75.75 0 0 1 .75-.75M6.067 5.459a.75.75 0 0 1 0 1.06l-.727.727h5.32l-.727-.727a.75.75 0 0 1 1.06-1.06l2.008 2.007a.75.75 0 0 1 0 1.06l-2.007 2.008a.75.75 0 1 1-1.06-1.06l.726-.728H5.34l.727.727a.75.75 0 0 1-1.06 1.061L2.998 8.527a.75.75 0 0 1 0-1.061l2.007-2.007a.75.75 0 0 1 1.06 0" clip-rule="evenodd"/>
</svg>
