<svg>
    <path fill-rule="evenodd" d="M5.22 9.97C5.513 9.677 5.987 9.677 6.28 9.97L8 11.689 9.72 9.97C10.013 9.677 10.487 9.677 10.78 9.97 11.073 10.263 11.073 10.737 10.78 11.03L8.53 13.28C8.237 13.573 7.763 13.573 7.47 13.28L5.22 11.03C4.927 10.737 4.927 10.263 5.22 9.97ZM10.78 5.53C10.487 5.823 10.013 5.823 9.72 5.53L8 3.811 6.28 5.53C5.987 5.823 5.513 5.823 5.22 5.53 4.927 5.237 4.927 4.763 5.22 4.47L7.47 2.22C7.763 1.927 8.237 1.927 8.53 2.22L10.78 4.47C11.073 4.763 11.073 5.237 10.78 5.53Z" clip-rule="evenodd"/>
</svg>
