<svg xmlns="http://www.w3.org/2000/svg">
    <path d="M8.653 14.667a6.4 6.4 0 0 1-2.31-.42c.231-.039.31-.23.31-.403 0-.2.004-.757 0-1.459-2.284.508-2.758-1.106-2.758-1.106-.373-.97-.91-1.228-.91-1.228-.746-.521.055-.512.055-.512.824.06 1.259.867 1.259.867.732 1.282 1.922.912 2.39.697.074-.543.287-.913.521-1.123-1.823-.212-3.74-.932-3.74-4.15 0-.918.32-1.667.845-2.254-.085-.212-.368-1.067.08-2.223 0 0 .69-.226 2.258.861a7.7 7.7 0 0 1 2.057-.282c.697.003 1.4.096 2.056.282 1.568-1.086 2.257-.861 2.257-.861.447 1.156.166 2.01.081 2.223.526.587.845 1.336.845 2.253 0 3.228-1.92 3.937-3.75 4.144.294.26.562.764.562 1.548v2.324c0 .149.057.307.216.375a6.4 6.4 0 0 1-2.324.447"/>
</svg>
