<svg xmlns="http://www.w3.org/2000/svg">
    <path fill-rule="evenodd" d="M1.333 7.775c0-2.278 0-3.418.45-4.285A4 4 0 0 1 3.49 1.784c.867-.45 2.006-.45 4.284-.45h.454c2.278 0 3.416 0 4.284.45a4 4 0 0 1 1.705 1.706c.45.867.45 2.007.45 4.285v.453c0 2.279 0 3.418-.45 4.285a4 4 0 0 1-1.705 1.706c-.867.45-2.006.45-4.284.45h-.454c-2.278 0-3.417 0-4.284-.45a4 4 0 0 1-1.705-1.706c-.45-.867-.45-2.006-.45-4.285zm2.936.227a3.734 3.734 0 1 0 7.469 0 3.734 3.734 0 0 0-7.469 0m6.158 0a2.424 2.424 0 1 1-4.848.002 2.424 2.424 0 0 1 4.848-.002m2.33-3.883a.872.872 0 1 1-1.745 0 .872.872 0 0 1 1.745 0" clip-rule="evenodd"/>
</svg>
