<svg xmlns="http://www.w3.org/2000/svg" width="16" height="16" fill="none" viewBox="0 0 16 16">
    <path d="M10.4 2.18a.563.563 0 0 0 .03.795l1.575 1.463H5.562a.563.563 0 0 0 0 1.125h6.443L10.43 7.025a.563.563 0 0 0 .765.825l2.625-2.438a.563.563 0 0 0 0-.824L11.195 2.15a.563.563 0 0 0-.795.03m-4.8 6a.56.56 0 0 0-.795-.03L2.18 10.588a.56.56 0 0 0 0 .824l2.625 2.438a.563.563 0 1 0 .765-.825l-1.575-1.463h6.443a.562.562 0 1 0 0-1.124H3.995L5.57 8.974a.56.56 0 0 0 .03-.795" clip-rule="evenodd"/>
</svg>
