<svg xmlns="http://www.w3.org/2000/svg">
    <path fill-rule="evenodd" d="M14.666 14.533c0 .074-.06.133-.134.133H12.06a.133.133 0 0 1-.134-.133V10c0-1.28-.486-1.994-1.498-1.994-1.102 0-1.678.744-1.678 1.994v4.533c0 .074-.06.133-.133.133H6.244a.133.133 0 0 1-.134-.133V5.91c0-.074.06-.133.134-.133h2.373c.074 0 .133.06.133.133v.537c0 .138.22.207.313.104a3.1 3.1 0 0 1 2.367-1.046c1.886 0 3.236 1.151 3.236 3.532zM2.96 4.613c-.9 0-1.628-.734-1.628-1.64s.728-1.64 1.628-1.64 1.627.735 1.627 1.64c0 .906-.728 1.64-1.627 1.64m-1.363 9.92c0 .074.06.133.133.133h2.486c.074 0 .133-.06.133-.133V5.91a.133.133 0 0 0-.133-.133H1.731a.133.133 0 0 0-.133.133z" clip-rule="evenodd"/>
</svg>
