<svg xmlns="http://www.w3.org/2000/svg" width="16" height="16" fill="none" viewBox="0 0 16 16">
    <path fill="#727683" d="M5.455 5.333c0-.413.335-.748.748-.748h6.037a.748.748 0 1 1 0 1.496H6.203a.75.75 0 0 1-.748-.748m-.593 0a.925.925 0 1 1-1.85 0 .925.925 0 0 1 1.85 0M5.455 8c0-.413.335-.748.748-.748h6.037a.748.748 0 1 1 0 1.496H6.203A.75.75 0 0 1 5.455 8m-.593 0a.925.925 0 1 1-1.85 0 .925.925 0 0 1 1.85 0m.593 2.667c0-.413.335-.748.748-.748h6.037a.748.748 0 1 1 0 1.496H6.203a.75.75 0 0 1-.748-.748m-.593 0a.925.925 0 1 1-1.85 0 .925.925 0 0 1 1.85 0"/>
</svg>
