<svg xmlns="http://www.w3.org/2000/svg" width="16" height="16" fill="none" viewBox="0 0 16 16">
    <path fill="#727683" fill-rule="evenodd" d="M5.463 5.043a.75.75 0 0 1 .75-.75h5.912a.75.75 0 0 1 0 1.5H6.213a.75.75 0 0 1-.75-.75m0 2.958a.75.75 0 0 1 .75-.75h5.911a.75.75 0 0 1 0 1.5H6.213a.75.75 0 0 1-.75-.75m-.001 2.955a.75.75 0 0 1 .75-.75h5.912a.75.75 0 0 1 0 1.5H6.212a.75.75 0 0 1-.75-.75m-2.337-7.02a.5.5 0 0 1 .5-.5h.555a.5.5 0 0 1 .5.5v1.347h.054a.5.5 0 0 1 0 1H3.625a.5.5 0 1 1 0-1h.055v-.847h-.055a.5.5 0 0 1-.5-.5M4.21 7.385a.05.05 0 0 0-.06.013.5.5 0 0 1-.725-.69 1.054 1.054 0 1 1 1.496 1.486l-.06.06a.5.5 0 0 1-.127.984H3.67a.5.5 0 0 1-.354-.853l.91-.91a.05.05 0 0 0 .014-.06.05.05 0 0 0-.03-.03M3.125 9.848a.5.5 0 0 1 .5-.5h.554a1.054 1.054 0 0 1 .897 1.608 1.054 1.054 0 0 1-.897 1.608h-.554a.5.5 0 0 1 0-1h.554a.054.054 0 0 0 .039-.092.05.05 0 0 0-.039-.015h-.184a.5.5 0 1 1 0-1h.184a.054.054 0 1 0 0-.109h-.554a.5.5 0 0 1-.5-.5" clip-rule="evenodd"/>
</svg>
