<svg width="16" height="16" viewBox="0 0 16 16" fill="none" xmlns="http://www.w3.org/2000/svg">
<path d="M5.45471 5.33264C5.45471 4.91957 5.78957 4.58472 6.20264 4.58472H12.2404C12.6535 4.58472 12.9884 4.91957 12.9884 5.33264C12.9884 5.74571 12.6535 6.08057 12.2404 6.08057H6.20264C5.78957 6.08057 5.45471 5.74571 5.45471 5.33264Z" fill="#727683"/>
<path d="M4.86172 5.33271C4.86172 5.84358 4.44758 6.25771 3.93672 6.25771C3.42586 6.25771 3.01172 5.84358 3.01172 5.33271C3.01172 4.82185 3.42586 4.40771 3.93672 4.40771C4.44758 4.40771 4.86172 4.82185 4.86172 5.33271Z" fill="#727683"/>
<path d="M5.45471 8.00012C5.45471 7.58705 5.78957 7.2522 6.20264 7.2522H12.2404C12.6535 7.2522 12.9884 7.58705 12.9884 8.00012C12.9884 8.41319 12.6535 8.74805 12.2404 8.74805H6.20264C5.78957 8.74805 5.45471 8.41319 5.45471 8.00012Z" fill="#727683"/>
<path d="M4.86172 8.0002C4.86172 8.51106 4.44758 8.9252 3.93672 8.9252C3.42586 8.9252 3.01172 8.51106 3.01172 8.0002C3.01172 7.48933 3.42586 7.0752 3.93672 7.0752C4.44758 7.0752 4.86172 7.48933 4.86172 8.0002Z" fill="#727683"/>
<path d="M5.45471 10.6671C5.45471 10.254 5.78957 9.91919 6.20264 9.91919H12.2404C12.6535 9.91919 12.9884 10.254 12.9884 10.6671C12.9884 11.0802 12.6535 11.415 12.2404 11.415H6.20264C5.78957 11.415 5.45471 11.0802 5.45471 10.6671Z" fill="#727683"/>
<path d="M4.86172 10.6672C4.86172 11.1781 4.44758 11.5922 3.93672 11.5922C3.42586 11.5922 3.01172 11.1781 3.01172 10.6672C3.01172 10.1563 3.42586 9.74219 3.93672 9.74219C4.44758 9.74219 4.86172 10.1563 4.86172 10.6672Z" fill="#727683"/>
</svg>
