<svg xmlns="http://www.w3.org/2000/svg" width="16" height="16" fill="none" viewBox="0 0 16 16">
    <path fill="#727683" d="M5.455 5.333C5.455 4.92 5.79 4.585 6.203 4.585H12.24C12.654 4.585 12.988 4.92 12.988 5.333 12.988 5.746 12.654 6.081 12.24 6.081H6.203C5.79 6.081 5.455 5.746 5.455 5.333ZM4.862 5.333C4.862 5.844 4.448 6.258 3.937 6.258 3.426 6.258 3.012 5.844 3.012 5.333 3.012 4.822 3.426 4.408 3.937 4.408 4.448 4.408 4.862 4.822 4.862 5.333ZM5.455 8C5.455 7.587 5.79 7.252 6.203 7.252H12.24C12.654 7.252 12.988 7.587 12.988 8 12.988 8.413 12.654 8.748 12.24 8.748H6.203C5.79 8.748 5.455 8.413 5.455 8ZM4.862 8C4.862 8.511 4.448 8.925 3.937 8.925 3.426 8.925 3.012 8.511 3.012 8 3.012 7.489 3.426 7.075 3.937 7.075 4.448 7.075 4.862 7.489 4.862 8ZM5.455 10.667C5.455 10.254 5.79 9.919 6.203 9.919H12.24C12.654 9.919 12.988 10.254 12.988 10.667 12.988 11.08 12.654 11.415 12.24 11.415H6.203C5.79 11.415 5.455 11.08 5.455 10.667ZM4.862 10.667C4.862 11.178 4.448 11.592 3.937 11.592 3.426 11.592 3.012 11.178 3.012 10.667 3.012 10.156 3.426 9.742 3.937 9.742 4.448 9.742 4.862 10.156 4.862 10.667Z"/>
</svg>
