<svg xmlns="http://www.w3.org/2000/svg" width="16" height="16" fill="none" viewBox="0 0 16 16">
    <path fill="#727683" fill-rule="evenodd" d="M5.463 5.043C5.463 4.629 5.798 4.293 6.213 4.293H12.125C12.539 4.293 12.875 4.629 12.875 5.043 12.875 5.457 12.539 5.793 12.125 5.793H6.213C5.798 5.793 5.463 5.457 5.463 5.043ZM5.463 8.001C5.463 7.586 5.798 7.251 6.213 7.251H12.124C12.538 7.251 12.874 7.586 12.874 8.001 12.874 8.415 12.538 8.751 12.124 8.751H6.213C5.798 8.751 5.463 8.415 5.463 8.001ZM5.462 10.956C5.462 10.542 5.797 10.206 6.212 10.206H12.124C12.538 10.206 12.874 10.542 12.874 10.956 12.874 11.37 12.538 11.706 12.124 11.706H6.212C5.797 11.706 5.462 11.37 5.462 10.956ZM3.125 3.936C3.125 3.66 3.349 3.436 3.625 3.436H4.18C4.456 3.436 4.68 3.66 4.68 3.936V5.283H4.734C5.01 5.283 5.234 5.507 5.234 5.783 5.234 6.06 5.01 6.283 4.734 6.283H3.625C3.349 6.283 3.125 6.06 3.125 5.783 3.125 5.507 3.349 5.283 3.625 5.283H3.68V4.436H3.625C3.349 4.436 3.125 4.212 3.125 3.936ZM4.21 7.385C4.203 7.382 4.196 7.381 4.189 7.381 4.181 7.381 4.174 7.382 4.168 7.385 4.161 7.388 4.155 7.392 4.15 7.398 3.96 7.598 3.643 7.606 3.443 7.415 3.243 7.225 3.235 6.909 3.425 6.709 3.522 6.607 3.639 6.525 3.767 6.469 3.896 6.413 4.035 6.383 4.176 6.381 4.316 6.379 4.456 6.405 4.586 6.458 4.717 6.511 4.835 6.59 4.935 6.689 5.034 6.789 5.113 6.907 5.166 7.037 5.219 7.168 5.245 7.307 5.243 7.448 5.242 7.588 5.212 7.727 5.156 7.856 5.1 7.983 5.021 8.098 4.921 8.194L4.861 8.254C5.076 8.31 5.234 8.506 5.234 8.738 5.234 9.014 5.01 9.238 4.734 9.238H3.67C3.468 9.238 3.285 9.116 3.208 8.929 3.131 8.743 3.173 8.528 3.316 8.385L4.227 7.474C4.232 7.469 4.236 7.463 4.239 7.457 4.242 7.45 4.243 7.443 4.244 7.436 4.244 7.428 4.242 7.421 4.24 7.415 4.237 7.408 4.233 7.402 4.228 7.397 4.223 7.392 4.216 7.387 4.21 7.385ZM3.125 9.848C3.125 9.572 3.349 9.348 3.625 9.348H4.179C4.459 9.348 4.727 9.459 4.925 9.657 5.122 9.855 5.234 10.123 5.234 10.402 5.234 10.6 5.178 10.791 5.076 10.956 5.178 11.121 5.234 11.313 5.234 11.51 5.234 11.79 5.122 12.058 4.925 12.256 4.727 12.453 4.459 12.564 4.179 12.564H3.625C3.349 12.564 3.125 12.34 3.125 12.064 3.125 11.788 3.349 11.564 3.625 11.564H4.179C4.194 11.564 4.207 11.559 4.218 11.548 4.228 11.538 4.234 11.524 4.234 11.51 4.234 11.496 4.228 11.482 4.218 11.472 4.209 11.463 4.196 11.457 4.179 11.457H3.995C3.718 11.457 3.495 11.233 3.495 10.957 3.495 10.681 3.718 10.457 3.995 10.457H4.179C4.194 10.457 4.207 10.451 4.218 10.441 4.228 10.431 4.234 10.417 4.234 10.402 4.234 10.388 4.228 10.374 4.218 10.364 4.207 10.354 4.194 10.348 4.179 10.348H3.625C3.349 10.348 3.125 10.124 3.125 9.848Z" clip-rule="evenodd"/>
</svg>
