<svg xmlns="http://www.w3.org/2000/svg" width="16" height="16" fill="none" viewBox="0 0 16 16">
    <path fill="#727683" fill-rule="evenodd" d="M12.216 3.784a2.25 2.25 0 0 0-3.182 0l-5.25 5.25a2.25 2.25 0 0 0 3.181 3.183l.001-.001.372-.375a.563.563 0 0 1 .799.793l-.374.376-.002.002A3.375 3.375 0 0 1 2.99 8.239l5.25-5.25a3.375 3.375 0 0 1 4.775 4.77l-2.59 2.664A1.969 1.969 0 0 1 7.638 7.64l2.588-2.588a.562.562 0 1 1 .796.796L8.435 8.435a.844.844 0 0 0 1.19 1.195l2.591-2.664a2.25 2.25 0 0 0 0-3.182" clip-rule="evenodd"/>
</svg>
