<svg xmlns="http://www.w3.org/2000/svg" width="16" height="16" fill="none" viewBox="0 0 16 16">
    <path fill="#727683" d="M1.75 10.833a.75.75 0 0 1-.75-.75V1.75A.75.75 0 0 1 1.75 1h8.333a.75.75 0 0 1 .75.75v8.333a.75.75 0 0 1-.75.75H8.042a.75.75 0 0 1 0-1.5h1.291V2.5H2.5v6.833h1.292a.75.75 0 1 1 0 1.5z"/>
    <path fill="#727683" d="M5.917 5.167a.75.75 0 0 0-.75.75v8.333c0 .414.336.75.75.75h8.333a.75.75 0 0 0 .75-.75V5.917a.75.75 0 0 0-.75-.75h-2.042a.75.75 0 0 0 0 1.5H13.5V13.5H6.667V6.667h1.291a.75.75 0 1 0 0-1.5z"/>
</svg>
