<svg xmlns="http://www.w3.org/2000/svg" width="16" height="16" fill="none" viewBox="0 0 16 16">
    <path d="M6.588 8.765c2.075 0 3.846 1.32 4.544 3.18.179.475-.206.938-.707.938H2.751c-.5 0-.885-.463-.707-.939.698-1.859 2.47-3.18 4.544-3.18"/>
    <path d="M10.385 3.603a2.163 2.163 0 0 1 2.995 0 2.014 2.014 0 0 1 0 2.907q-.175.168-.375.29v1.42a.25.25 0 0 1-.077.182l-.67.652.56.545c.104.1.104.264 0 .364l-.748.727a.27.27 0 0 1-.374 0l-.859-.834a.26.26 0 0 1-.078-.181V6.8a2 2 0 0 1-.374-.29 2.014 2.014 0 0 1 0-2.907m2.246.726a1.08 1.08 0 0 0-1.497 0 .377.377 0 0 0 0 .545c.155.15.407.15.562 0 .103-.1.27-.1.374 0 .155.15.406.15.561 0a.377.377 0 0 0 0-.545" clip-rule="evenodd"/>
    <path d="M6.588 3C7.931 3 9.02 4.106 9.02 5.47S7.93 7.942 6.588 7.942s-2.43-1.106-2.43-2.47S5.246 3 6.588 3"/>
</svg>
