<svg xmlns="http://www.w3.org/2000/svg" width="16" height="16" fill="none" viewBox="0 0 16 16">
    <path d="M7.117 1a6.95 6.95 0 0 0-3.42 1.427l.91.916a5.7 5.7 0 0 1 2.51-1.048zM8.87 2.295c2.75.425 4.856 2.817 4.856 5.705s-2.107 5.28-4.857 5.705V15C12.326 14.566 15 11.598 15 8s-2.674-6.566-6.13-7zm-4.768 9.944a5.7 5.7 0 0 0 3.015 1.466V15a6.96 6.96 0 0 1-3.916-1.854zm-1.096-1.391a5.8 5.8 0 0 1-.729-2.407H1a7.05 7.05 0 0 0 1.078 3.342zM1.11 6.677a7.05 7.05 0 0 1 1.348-3.003l.91.916a5.8 5.8 0 0 0-.956 2.087z"/>
    <path d="M10.635 6.77a.644.644 0 0 0-.148-.895.634.634 0 0 0-.889.149L7.381 9.149 6.321 8.08a.634.634 0 0 0-.901 0 .644.644 0 0 0 0 .907l1.592 1.603a.635.635 0 0 0 .969-.08z"/>
</svg>
