<svg xmlns="http://www.w3.org/2000/svg">
    <path fill-rule="evenodd" d="M13.417 2.477a.75.75 0 0 1 .75.75v3.182a.75.75 0 0 1-.75.75h-3.182a.75.75 0 1 1 0-1.5h1.372l-.841-.841a4.5 4.5 0 0 0-7.081.932A.75.75 0 0 1 2.386 5a6 6 0 0 1 9.44-1.242l.841.84V3.227a.75.75 0 0 1 .75-.75m-.91 7.5A.75.75 0 0 1 12.78 11a6 6 0 0 1-9.44 1.241l-.841-.84v1.371a.75.75 0 0 1-1.5 0V9.591a.75.75 0 0 1 .75-.75h3.182a.75.75 0 0 1 0 1.5h-1.37l.84.841a4.5 4.5 0 0 0 7.081-.932.75.75 0 0 1 1.025-.273" clip-rule="evenodd"/>
</svg>
