<svg xmlns="http://www.w3.org/2000/svg">
    <path d="M8 15q-2.45 0-4.336-1.488t-2.45-3.8a.58.58 0 0 1 .117-.536.76.76 0 0 1 .525-.282.85.85 0 0 1 .563.117q.254.156.35.467a5.18 5.18 0 0 0 1.925 2.858A5.32 5.32 0 0 0 8 13.444q2.275 0 3.86-1.584T13.444 8 11.86 4.14 8 2.556a5.25 5.25 0 0 0-2.508.622 5.8 5.8 0 0 0-1.964 1.71h1.36q.332 0 .555.224.225.224.224.555 0 .33-.224.554a.75.75 0 0 1-.554.223H1.778a.75.75 0 0 1-.554-.223A.75.75 0 0 1 1 5.667V2.556q0-.33.224-.555a.75.75 0 0 1 .554-.223q.33 0 .554.223.224.224.224.555v1.05a6.8 6.8 0 0 1 2.42-1.925A6.95 6.95 0 0 1 8 1q1.458 0 2.732.554 1.273.555 2.217 1.497a7.1 7.1 0 0 1 1.497 2.217Q15 6.542 15 8a6.8 6.8 0 0 1-.554 2.732 7.1 7.1 0 0 1-1.497 2.217 7.1 7.1 0 0 1-2.217 1.497A6.8 6.8 0 0 1 8 15m0-5.444q-.642 0-1.099-.457A1.5 1.5 0 0 1 6.444 8q0-.642.457-1.099T8 6.444t1.099.457T9.556 8t-.457 1.099T8 9.556"/>
</svg>
