<svg xmlns="http://www.w3.org/2000/svg">
    <path d="m13.735 8.575.122.033.1.041a.89.89 0 0 1 .495 1.015l-.034.111-.04.085-1.335 2.477-.001 1.332 1.282-.391 2.147-2a.97.97 0 0 1 1.113-.142l.114.071.095.08a.87.87 0 0 1 .132 1.107l-.077.103-.065.068-.935.869 1.306.187a.92.92 0 0 1 .777.694l.02.122.003.116-.01.092a.924.924 0 0 1-.852.76l-.12.002-.095-.008-2.894-.437-.06.02-1.293.394.743.998 2.702 1.328a.88.88 0 0 1 .402 1.217.955.955 0 0 1-1.05.456l-.124-.037-.088-.037-1.186-.584.217 1.235a.88.88 0 0 1-.452.923l-.115.055-.114.038-.094.02a.95.95 0 0 1-1.013-.53l-.045-.118-.02-.09-.458-2.747-.836-1.09-.788.995-.498 2.842a.936.936 0 0 1-1.08.738.915.915 0 0 1-.784-.828v-.116l.01-.092.216-1.235-1.185.584a.97.97 0 0 1-1.03-.11l-.102-.095-.08-.098-.05-.08a.87.87 0 0 1 .216-1.093l.104-.076.083-.047 2.625-1.265.817-1.065-1.257-.399-2.987.426a.935.935 0 0 1-1.067-.754.894.894 0 0 1 .582-.97l.114-.036.094-.018 1.304-.187-.933-.869a.87.87 0 0 1-.213-.982l.064-.123.075-.104.064-.068a.97.97 0 0 1 1.13-.146l.12.075.072.06 2.101 1.99 1.332.405.021-1.234L9.826 9.86a.88.88 0 0 1 .422-1.21.97.97 0 0 1 1.129.22l.079.1.048.08.599 1.132.598-1.133a.95.95 0 0 1 1.034-.474M17.158 3 21 5.778l-3.842 2.778V6.7H3V4.867h14.158z"/>
</svg>
