<svg xmlns="http://www.w3.org/2000/svg">
    <path d="M4.845 2.735a1.4 1.4 0 0 0 1.4 1.401h1.267c.074 0 .133-.06.133-.133V2.735a1.4 1.4 0 1 0-2.8 0m2.8 3.514a1.4 1.4 0 0 0-1.4-1.402H2.734a1.4 1.4 0 0 0-1.4 1.402 1.4 1.4 0 0 0 1.4 1.401h3.511a1.4 1.4 0 0 0 1.4-1.401m-4.899 4.913a1.4 1.4 0 0 0 1.4-1.401V8.493a.133.133 0 0 0-.133-.133H2.746a1.4 1.4 0 0 0-1.4 1.401 1.4 1.4 0 0 0 1.4 1.401m3.5-2.802a1.4 1.4 0 0 0-1.4 1.401v3.504a1.4 1.4 0 1 0 2.801 0V9.76a1.4 1.4 0 0 0-1.4-1.401m5.61-2.111a1.4 1.4 0 1 1 2.8 0 1.4 1.4 0 0 1-1.4 1.401H11.99a.133.133 0 0 1-.134-.133zm-.7 0a1.4 1.4 0 1 1-2.801 0V2.735a1.4 1.4 0 1 1 2.8 0zm0 7.016a1.4 1.4 0 0 0-1.401-1.402H8.488a.133.133 0 0 0-.133.133v1.269a1.4 1.4 0 1 0 2.8 0M8.354 9.76a1.4 1.4 0 0 0 1.4 1.401h3.511a1.4 1.4 0 0 0 1.4-1.401 1.4 1.4 0 0 0-1.4-1.401h-3.51a1.4 1.4 0 0 0-1.4 1.401"/>
</svg>
