<svg width="16" height="16" viewBox="0 0 16 16" fill="none" xmlns="http://www.w3.org/2000/svg">
<path fill-rule="evenodd" clip-rule="evenodd" d="M4.90944 3C5.32365 3 5.65944 3.33579 5.65944 3.75V7.61317C5.65944 7.92053 5.71998 8.22488 5.8376 8.50885C5.95522 8.79282 6.12763 9.05084 6.34497 9.26818C6.5623 9.48551 6.82032 9.65792 7.10429 9.77554C7.38826 9.89316 7.69261 9.9537 7.99997 9.9537C8.30734 9.9537 8.61169 9.89316 8.89566 9.77554C9.17962 9.65792 9.43764 9.48551 9.65498 9.26818C9.87232 9.05084 10.0447 8.79282 10.1623 8.50885C10.28 8.22488 10.3405 7.92053 10.3405 7.61317V3.75C10.3405 3.33579 10.6763 3 11.0905 3C11.5047 3 11.8405 3.33579 11.8405 3.75V7.61317C11.8405 8.11751 11.7412 8.61692 11.5482 9.08288C11.3552 9.54883 11.0723 9.97221 10.7156 10.3288C10.359 10.6855 9.93564 10.9684 9.46968 11.1614C9.00373 11.3544 8.50432 11.4537 7.99997 11.4537C7.49563 11.4537 6.99622 11.3544 6.53026 11.1614C6.06431 10.9684 5.64093 10.6855 5.28431 10.3288C4.92768 9.97221 4.64479 9.54883 4.45178 9.08288C4.25878 8.61692 4.15944 8.11751 4.15944 7.61317V3.75C4.15944 3.33579 4.49523 3 4.90944 3ZM3.00049 12.25C3.00049 11.8358 3.33627 11.5 3.75049 11.5H12.2495C12.6637 11.5 12.9995 11.8358 12.9995 12.25C12.9995 12.6642 12.6637 13 12.2495 13H3.75049C3.33627 13 3.00049 12.6642 3.00049 12.25Z" fill="#727683"/>
</svg>
