<svg xmlns="http://www.w3.org/2000/svg" width="550" height="550" fill="none" viewBox="0 0 550 550">
    <path fill="#fff" d="M354.316 85.441v.001c-.086 6.29-.173 12.582.329 18.804.141 1.087-.679 1.733-1.669 1.349q-1.425-.552-2.846-1.111c-2.415-.948-4.83-1.897-7.278-2.755-1.041-.294-2.086-.577-3.132-.861-2.868-.778-5.742-1.558-8.551-2.553-6.339-1.487-12.726-2.824-19.106-4.14-9.659-1.609-19.493-2.425-29.249-3.08-7.533-.273-15.073-.324-22.612-.374h-.001q-2.86-.018-5.72-.041c-.715-.006-1.431.146-2.147.298-.429.09-.857.181-1.287.239-1.2.161-1.66-.376-1.478-1.531.642-14.488.524-29.06.407-43.606v-.005c-.045-5.495-.089-10.986-.092-16.468-.097-.873.177-1.208 1.103-1.196 3.379-.04 6.759-.118 10.139-.195 5.352-.122 10.705-.243 16.056-.221 20.24.74 40.444 3.77 59.885 9.51 4.812 1.247 9.489 2.908 14.163 4.568h.001q1.187.422 2.376.842c.897.286 1.074.658 1.07 1.494-.019 7.75-.018 15.5-.017 23.25l.001 5.814h-.331v.008c.096 3.974.041 7.966-.014 11.959zm-1.719 18.267c.229-9.75.239-19.498.25-29.247v-.002c.009-9.472.019-18.944.23-28.418.017-1.15-.424-1.943-1.62-2.298-16.39-5.907-33.41-9.781-50.633-12.29-15.913-2.323-32.001-2.064-48.027-1.531-1.035.02-1.402.416-1.402 1.454 0 18.887-.012 37.774-.061 56.657 0 1.05.384 1.31 1.337 1.277 18.52-.275 37.047.153 55.413 2.707 15.19 2.553 30.062 6.282 44.513 11.687zm49.283 76.195v-.006c.063-5.845.127-11.69.155-17.536.007-1.129.574-1.843 1.16-2.581l.084-.105a414 414 0 0 1 3.229-4.019l.002-.002.001-.001v-.001l.001-.001c1.382-1.707 2.764-3.413 4.112-5.143 1.353-1.741 1.373-1.858-.105-3.79q-.623-.812-1.242-1.627l-.012-.016c-2.172-2.854-4.35-5.715-6.766-8.352-10.795-11.578-24.599-20.066-38.808-26.805-.319-.162-.647-.691-.647-1.05-.008-20.055.017-40.105.065-60.156 0-.465.23-1.087.574-1.341.23-.17.885.109 1.285.315 1.532.828 3.074 1.639 4.617 2.45h.002l.001.001h.001c2.545 1.338 5.09 2.676 7.587 4.09 14.585 8.84 28.931 19.86 37.358 34.99q.478.944.966 1.892c3.326 6.488 6.779 13.223 6.112 20.728-.012.616.281 1.257.575 1.901.265.58.531 1.162.573 1.727l.001 1.475v.004c.024 21.747.048 43.494-.442 65.234.146 6.314-1.935 12.2-4.181 18.006-2.581 7.652-7.677 13.874-12.722 20.034-.822 1.004-1.644 2.007-2.452 3.014-.162.202-.732.339-.889.218-.251-.194-.44-.63-.444-.965 0-2.042.017-4.083.034-6.124l.001-.01v-.005c.022-2.664.045-5.327.029-7.989h.028c-.05-9.485.054-18.969.157-28.454M365 49.641c-.59 11.382-.54 22.588-.49 33.838.026 5.844.052 11.701-.011 17.6l-.003 2.019c-.003 1.345-.005 2.69.003 4.037 0 .953.347 1.644 1.277 2.121q1.13.579 2.264 1.153c2.803 1.421 5.607 2.842 8.296 4.462 8.06 4.848 15.978 10.007 22.862 16.467 4.756 4.303 8.763 9.349 12.613 14.459.57.732.998.82 1.479-.068.253-.47.525-.931.796-1.391.453-.767.905-1.533 1.268-2.338l.359-.813.352-.791c1.81-4.068 3.682-8.273 4.024-12.702.117-2.856.106-5.717.095-8.578v-.003c-.01-2.792-.021-5.584.087-8.371.032-6.562-2.799-12.418-5.581-18.173l-.107-.22c-10.322-19.934-29.718-33.335-49.579-42.708zm55.788 85.022-.307.045c-3.361 9.174-8.274 17.695-15.021 24.801-1.373 1.467-2.121 2.978-2.028 5.095.157 8.147.084 16.31.012 24.474-.091 10.162-.182 20.323.17 30.453l.283.057.283.056c8.455-9.914 15.441-21.912 16.531-35.135.328-16.589.546-33.27.077-49.842zm-255.166 224.02q2.039-1.135 4.072-2.277l.004.008.121.032.088.024.094.025.303.081c.754 4.888.609 9.879.464 14.866-.195 6.723-.39 13.44 1.616 19.89 8.618 25.113 39.027 37.495 63.029 42.925 16.414 3.547 33.338 3.693 50.003 2.222 2.787-.25 5.603-.525 8.358-.986q.995-.176 1.989-.359l.002-.001c1.565-.287 3.129-.574 4.704-.795 1.175-.166 1.381.271 1.09 1.418a670 670 0 0 0-1.415 5.793v.002h-.001c-.44 1.826-.88 3.652-1.335 5.473q-.077.315-.148.645c-.194.879-.394 1.788-.918 2.393-.526.602-.796 1.054-.796 1.802 0 12.111-.004 24.227-.016 36.339-.007 6.132-.024 12.264-.04 18.396l-.008 2.651-.005 1.969c-.218 2.313 1.309 1.853 2.822 1.398.558-.169 1.115-.336 1.582-.364 1.031-.126 2.065-.227 3.1-.328h.005c1.404-.137 2.81-.273 4.207-.476.792-.134 1.609-.32 2.439-.508 2.551-.579 5.222-1.186 7.633-.433 2.137.928 4.083 2.325 6.029 3.721 1.706 1.225 3.412 2.449 5.246 3.357 1.638.766 3.354 1.358 5.072 1.95l.002.001c1.019.351 2.039.703 3.043 1.091 3.494 1.354 7.155 1.382 10.807 1.378 4.108-.008 8.205-.125 12.18-1.442.937-.311 1.903-.535 2.869-.757v-.001c1.104-.254 2.206-.509 3.264-.895 1.68-.611 3.313-1.351 4.946-2.091l.001-.001h.001c.817-.371 1.635-.741 2.457-1.095 20.079-9.401 36.162-25.816 48.472-43.988 7.305-10.076 12.819-21.396 17.227-33.007 3.131-8.354 5.793-16.972 6.888-25.851 1.232-8.028 2.048-16.201.59-24.269-.311-1.389-.504-2.807-.698-4.224-.239-1.752-.478-3.504-.938-5.197-1.935-6.181-4.392-12.645-8.921-17.429l-.486-.466c-3.656-3.5-7.414-7.099-11.928-9.436-2.744-1.349-4.949-2.816-5.895-6.019-1.083-3.665-2.876-7.066-4.747-10.44-10.407-18.317-28.235-31.039-46.787-40.25-1.079-.513-1.64-1.18-1.632-2.549.024-3.432-.023-6.866-.07-10.299v-.003c-.03-2.216-.061-4.431-.072-6.646-.036-8.166-.036-16.327-.036-24.488v-.011q.008-.197.012-.404v-.002c.02-.877.042-1.844.84-2.357l2.281-1.232c8.927-4.818 17.948-9.686 25.717-16.249.208-.187.436-.358.665-.53.835-.628 1.685-1.267 1.682-2.722-.091-8.6-.046-17.209-.001-25.818v-.005c.06-11.737.121-23.472-.161-35.177q-1.48 1.085-2.949 2.169l-.005.004c-8.805 6.492-17.411 12.837-27.697 16.984-.07-.829-.136-1.629-.2-2.409-.154-1.876-.298-3.631-.467-5.384-.275-2.883-.129-5.762.018-8.645.168-3.29.336-6.585-.123-9.898-1.317-15.554-12.399-28.103-25.218-36.005-11.162-6.856-23.44-11.789-36.275-14.402-8.047-1.875-16.265-3.56-24.531-3.822-19.557-.352-39.373.569-58.095 6.722-19.505 6.343-42.727 19.214-49.037 40.065a47 47 0 0 0-1.754 11.958c-.08 4.632-.014 9.266.052 13.901v.001c.034 2.317.067 4.635.082 6.953.012 1.668-.542 2.008-1.919 1.309-10.694-5.43-20.806-12.072-29.541-20.338-2.137-1.923-16.297-16.592-13.643-18.705a242 242 0 0 0 2.529-3.251c1.515-1.97 3.029-3.94 4.65-5.819 1.56-1.81 2.356-3.603 2.356-6.076-.011-12.914.045-25.831.102-38.748q.043-9.427.075-18.854c.004-.352-.315-.99-.505-.998-.404-.016-.913.202-1.216.493q-.698.854-1.397 1.705c-3.692 4.493-7.373 8.974-10.149 14.168-4.258 7.45-6.848 15.801-7.353 24.349-.234 14.86-.36 29.721-.487 44.581v.001l-.087 10.031c-.018 1.996-.014 3.991-.01 5.987s.008 3.992-.01 5.987q0 .117-.003.233c-.019 1.234-.037 2.381 1.971 2.05.042 1.043.012 2.061-.017 3.066-.047 1.59-.093 3.148.15 4.723.464 1.989 1.065 3.946 1.666 5.903.285.925.569 1.851.839 2.779 5.341 16.257 17.986 28.809 31.589 38.582 5.526 3.943 11.493 7.292 17.481 10.492 1.781.933 2.941 1.967 2.888 4.258-.051 2.257.033 4.516.118 6.776.061 1.629.123 3.258.133 4.888.056 9.061.056 18.127.024 27.189-.004 1.268-.541 2.27-1.858 2.937-4.081 2.064-8.173 4.141-12.108 6.468-5.345 3.163-10.371 6.807-15.243 10.674-1.64 1.3-2.21 2.702-2.202 4.783.052 14.824.031 29.646.01 44.469v.001l-.014 11.12c0 .367-.014.733-.027 1.1-.019.532-.039 1.063-.017 1.591.012.303.218.792.428.848.283.077.735-.088.981-.307a100 100 0 0 1 15.809-11.38c3.058-1.779 6.149-3.503 9.239-5.226l.001-.001h.001l.001-.001.001-.001zm281.202 34.921c.14 1.322.273 2.583.414 3.748l-.004.004c-.453 9.538-1.228 16.382-3.491 25.052-.832 4.048-1.895 8.035-3.41 11.886-4.343 12.18-9.813 24.082-17.238 34.703-10.08 15.942-23.465 29.638-39.273 39.931-18.499 12.161-44.517 18.847-61.267.275-5.83-6.28-7.903-14.527-9.934-22.612l-.288-1.144-.185-.73c-.351-4.852-.703-9.761-.565-14.609.513-7.296 1.551-14.673 3.22-21.808 8.71-32.494 28.142-62.531 55.259-82.61 24.458-17.897 60.349-24.312 73.362 9.927 2.06 5.286 2.792 12.224 3.4 17.987M219.257 137.657c15.335-6.004 31.766-8.581 48.205-8.929l-.004.004 1.893.096c10.001.505 19.988 1.009 29.728 3.597 5.252 1.159 10.512 2.404 15.501 4.46 7.192 2.856 14.387 5.983 20.524 10.767 6.258 4.908 12.451 10.354 15.57 17.885.141.335.301.667.461.999.579 1.201 1.157 2.399.815 3.776-2.852 9.805-10.492 17.247-18.709 22.846-.723.441-1.447.892-2.174 1.345-5.222 3.253-10.591 6.597-16.854 7.115-2.238.252-4.456.691-6.674 1.131h-.003l-.001.001h-.001c-1.228.243-2.456.486-3.688.698a66 66 0 0 1-5.171.663c-.901.084-1.236.46-1.285 1.341-.121 2.181-.335 2.497-2.48 2.888-1.269.233-2.553.379-3.838.526-.75.086-1.5.172-2.247.274-1.212.17-1.834-.234-1.579-1.523.46-2.323-.946-2.642-2.743-2.525q-1.27.085-2.539.177h-.001c-2.725.196-5.451.391-8.179.413-13.247.105-26.514-.283-39.644-2.169q-1.193-.177-2.393-.35c-5.531-.803-11.125-1.615-16.47-3.161-7.644-2.901-14.952-7.333-20.721-13.154-4.242-4.521-8.238-9.45-10.431-15.336-1.592-3.463 3.765-10.932 5.963-13.817 7.474-9.518 18.305-15.243 29.169-20.038m-46.949 132.734.347-.033c11.381 24.725 41.455 37.112 66.87 41.406 28.317 4.828 57.986 2.788 84.776-7.918 7.906-3.24 15.529-7.329 22.212-12.686.48-.387.759-1.288.759-1.959l.004-.913c.02-4.568.04-9.139-.153-13.7-.097-2.206.723-3.632 2.29-5.038a86 86 0 0 0 6.61-6.649c2.864-3.196 5.078-6.844 6.799-10.783q.158-.372.36-.719c.02-.039.073-.058.175-.094q.087-.03.229-.088c.271 6.971.206 13.966.141 20.962-.04 4.344-.081 8.688-.04 13.026-.012 3.116-.874 6.041-1.751 9.016v.001l-.047.158c-.832 2.828-1.939 5.45-3.64 7.781-4.343 6.505-9.692 12.112-16.217 16.447-7.902 5.713-16.952 9.599-26.05 12.985-1.29.439-2.617.773-3.944 1.107-1.553.39-3.106.781-4.6 1.341-.635.304-1.054 1.353-1.301 1.973l-.031.078-.022.054.044.123.054.151.061.172.112.311.001.004c.258.715.507 1.407.722 2.107.069.226.036.61-.113.764-.901.913-.711 1.87-.101 3.05 18.265-4.731 37.859-13.36 49.89-28.385 1.503-1.928 2.742-4.065 3.98-6.201.519-.894 1.037-1.788 1.575-2.667.14-.213.243-.451.344-.687.237-.552.467-1.086 1.155-1.228.027.075.063.15.099.226.077.161.154.323.143.477a41 41 0 0 1-2.226 11.656c-6.153 16.741-22.357 26.979-38.073 33.669-7.846 3.515-16.229 5.628-24.607 7.433-3.299.808-6.685 1.1-10.071 1.392h-.002c-2.524.218-5.049.436-7.538.867-22.385 2.291-45.418-.691-66.502-8.508-17.582-6.986-36.607-18.463-41.632-37.972-.897-3.931-1.217-7.842-1.221-11.821.044-3.96.013-7.926-.018-11.893v-.003c-.05-6.272-.1-12.544.148-18.792m41.143-9.193c.264-2.681.231-5.305.199-7.942-.02-1.562-.039-3.128.003-4.714l-.001-.268c-.01-.919-.02-1.966 1.27-1.933 1.225.031 1.198 1.003 1.174 1.878q-.007.193-.007.376c.008 2.602.006 5.203.003 7.805l-.003 3.903c0 .788.016 1.559 1.043 1.745q1.314.24 2.626.487l.003.001c1.836.344 3.673.689 5.519.987q1.915.247 3.831.497l.018.002c8.574 1.117 17.172 2.238 25.789 2.789 5.134.178 10.276.174 15.418.17q2.112-.003 4.224 0c1.596.002 3.192-.031 4.787-.065 1.499-.031 2.998-.062 4.497-.064 1.464.098 1.44-1.133 1.419-2.212q-.004-.173-.005-.338c.005-7.581.019-15.163.032-22.745v-.019c.02-11.073.04-22.145.033-33.218-.037-.8-.388-1.264-1.265-1.175-26.264 1.87-52.867-1.047-78.396-7.333-6.63-1.858-13.227-3.878-19.711-6.197-1.899-.695-2.117-.647-2.117 1.305-.013 8.152-.019 16.304-.026 24.456v.035c-.009 10.497-.018 20.994-.039 31.491-.012.824.109 1.462 1.043 1.765.977.318 1.945.665 2.912 1.011h.001v.001h.003v.001h.001c.986.353 1.971.706 2.965 1.027 7.609 2.545 14.798 4.79 22.757 6.491m181.715-91.634c-15.343 12.174-33.17 20.799-51.696 26.992-5.882 1.745-11.809 3.385-17.776 4.819-6.139 1.292-12.34 2.277-18.539 3.261h-.001c-1.946.309-3.893.618-5.837.937-1.891.295-2.186.517-2.186 2.477l-.084 55.174c-.057.949-.053 2.387 1.365 2.105 1.748-.347 3.514-.607 5.277-.868q.657-.096 1.312-.195c31.003-4.436 61.889-15.081 86.674-34.635.974-.747 1.6-1.632 1.56-3.038-.04-7.277.013-14.551.066-21.824.086-11.736.172-23.468-.135-35.205m-31.229 163.82.068.034.122.061.004-.004q0 1.804.007 3.608c.008 3.007.016 6.014-.027 9.021-.045.393-.068.814-.091 1.246-.088 1.609-.184 3.372-1.432 4.394-16.023 10.04-29.44 23.937-40.214 39.37-.975 1.814-2.68 2.394-4.355 2.963q-.437.146-.865.301c-8.535 3.129-17.518 4.675-26.457 6.214l-.013.002-.013.002-3.175.549c-30.021 2.986-61.598-.452-88.084-15.744-11.215-6.306-20.988-15.853-25.399-28.142-1.899-5.815-1.81-11.864-1.721-17.88.027-1.846.054-3.688.024-5.52-.005-.072.026-.145.09-.292a9 9 0 0 0 .156-.387c7.296 16.423 22.608 27.27 38.901 33.738 25.848 10.63 54.827 12.763 82.295 8.315 9.939-1.265 19.61-4.182 28.995-7.632 6.233-2.282 11.987-5.661 17.696-9.013l.008-.005.136-.08 1.067-.626c5.976-3.664 11.163-8.339 15.453-13.853 1.411-1.746 2.5-3.732 3.591-5.721.944-1.721 1.889-3.443 3.043-5.013zM172.26 368.993l.056-2.365c17.073 34.659 64.418 44.464 99.792 44.129a276 276 0 0 0 21.489-2.053c4.04-.695 8.059-1.551 12.063-2.444 1.683-.375 3.348-.834 5.013-1.292.865-.239 1.731-.477 2.598-.704.122-.033.258-.012.44.015q.152.026.356.046c-4.339 8.597-8.528 17.162-11.445 26.329-.388 1.656-1.685 2.072-3.083 2.31-3.225.546-6.454 1.064-9.683 1.582l-.017.003-.022.004-1.884.302c-20.948 2.077-42.521 1.333-62.79-4.715-16.77-4.953-33.536-12.992-44.634-26.942-8.804-11.275-8.565-21.154-8.249-34.205m-2.065-154.124c.013 11.111.026 22.221-.138 33.346-22.7-11.259-45.062-28.619-51.792-54.132-1.006-3.761-1.103-7.486-1.095-11.283.036-5.278.028-10.548.019-15.816-.016-9.848-.032-19.688.247-29.55.173.209.329.379.466.529.251.274.437.478.544.716a406 406 0 0 1 2.369 5.4l.512 1.181c9.753 19.537 28.421 32.97 47.442 42.67 1.179.457 1.466 1.273 1.466 2.497-.06 8.153-.05 16.298-.04 24.441zm247.01 134.527-.025.191v-.004c-14.701-1.41-25.561 1.685-38.481 8.435-26.276 15.086-45.676 40.267-58.111 67.549-5.454 13.308-9.902 27.298-10.726 41.737-.679 4.271-.376 8.545.044 12.827.23 4.885 1.16 9.624 2.679 14.262.986 4.073 2.948 7.535 4.961 11.089a150 150 0 0 1 1.814 3.265c-10.007-4.424-15.562-14.544-18.459-24.648-6.351-23.137.416-47.563 9.845-68.898 13.45-27.662 34.013-53.821 62.519-66.842 13.757-6.319 30.923-8.113 43.968.828l-.026.193v.005zm-64.29-184.176c.094-.16.167-.274.223-.36.087-.135.13-.202.137-.273.679-6.48-.969-12.617-4.12-18.236-5.491-10.088-15.219-16.213-24.976-21.594a40 40 0 0 0-6.645-3.119c-7.996-2.937-16.16-5.345-24.547-6.848-7.935-1.268-15.95-2.416-24.006-2.181-8.617-.332-17.138.735-25.622 2.145-7.046 1.087-14.006 2.828-20.652 5.413-19.097 6.969-42.247 21.477-40.037 44.659.206.141.408.282.614.428 11.486-24.167 42.76-34.154 67.561-37.31 24.24-2.5 49.498-.101 71.755 10.29 6.621 2.816 12.467 7.01 18.055 11.49 5.398 4.131 8.981 9.61 12.26 15.496m-149.32 31.962.081-.171.023-.047.02-.041c-13.26-9.098-22.697-19.016-23.84-35.847 1.935-17.307 12.815-28.344 27.451-36.533 6.953-3.903 14.549-6.585 22.091-9.102 9.118-2.687 18.604-3.891 28.038-4.828 7.207-.51 14.423-.096 21.634.318 2.679.153 5.358.307 8.036.413 1.849.353 3.707.686 5.565 1.019h.003l.001.001h.001c3.162.566 6.327 1.134 9.458 1.8 1.597.517 3.199 1.022 4.802 1.527 3.471 1.093 6.943 2.187 10.365 3.406 5.183 2.169 10.354 4.67 15.125 7.627 3.281 2.214 6.392 4.703 9.422 7.252 9.465 7.995 15.461 20.624 13.481 33.088-2.925 13.437-13.409 23.553-24.692 30.639l.149.392c3.507-.788 7.013-1.681 10.403-2.881q.609-.222 1.237-.439c1.799-.626 3.648-1.269 4.973-2.453 3.272-2.921 6.31-6.185 9.037-9.628 5.288-6.403 7.219-14.475 7.232-22.656-.445-15.756-13.086-28.458-25.86-36.134-8.561-4.67-17.393-9.279-26.971-11.477-25.23-7.507-52.452-7.947-78.041-1.972-24.523 5.204-58.394 21.101-60.628 49.381-.554 9.324 2.92 18.39 9.013 25.396l.189.218.178.205c3.211 3.708 6.41 7.403 11.66 8.477 1.672.336 3.291.904 4.912 1.473 1.79.629 3.583 1.258 5.452 1.577m141.548 76.309c-1.383.605-2.49 1.379-3.621 2.17h-.001v.001h-.001c-.627.438-1.262.882-1.956 1.306-9.842 6.124-20.839 10.314-32.001 13.312-20.972 4.981-42.808 6.314-64.139 2.941-1.387-.271-2.779-.533-4.173-.796l-.003-.001c-7.019-1.325-14.082-2.658-20.816-5.017-3.648-1.381-7.264-2.876-10.778-4.565-14.69-6.359-28.349-16.608-35.023-31.556q-.21.047-.42.101c.05.339.11.678.17 1.016v.001c.127.722.255 1.444.29 2.17.231 4.61 2.041 8.735 4.036 12.758 4.739 8.771 12.589 15.595 21.053 20.673 7.692 4.46 15.61 8.472 24.248 10.759 18.992 6.201 39.378 8.245 59.25 6.213 2.587-.419 5.203-.652 7.817-.884 2.498-.222 4.996-.444 7.467-.829 2.201-.564 4.421-1.067 6.64-1.569h.001v-.001h.001c2.574-.582 5.147-1.165 7.688-1.844 11.158-3.514 22.139-7.906 31.71-14.758 1.919-1.341 2.872-2.658 2.609-5.038-.155-1.418-.12-2.856-.083-4.39v-.001c.017-.702.035-1.423.035-2.172M142.04 313.17c8.585-6.94 17.942-13.174 28.127-17.424v-.004c.046 1.7.017 3.372-.011 5.031-.061 3.582-.121 7.1.572 10.692-.697 10.862-.642 21.773-.587 32.684v.001c.016 3.192.032 6.384.03 9.574.004.711-.146 1.163-.938 1.535-9.712 4.448-18.701 10.205-27.12 16.766-.861.65-1.16.238-1.333-.582-.003-10.227.049-20.465.1-30.702.043-8.377.085-16.754.098-25.126.004-1.019.266-1.786 1.062-2.445m275.395 33.247c-.012.16-.025.336-.025.528h-.004c-8.31-4.982-18.018-6.759-27.524-5.357-7.846 1.288-15.643 3.83-22.656 7.603-.942.36-1.281.254-1.212-.844q-.02-1.904-.031-3.807l-.022-2.855-.031-1.757c-.105-5.807-.212-11.669.265-17.441-.066-1.249-.175-2.498-.283-3.746v-.002c-.155-1.779-.31-3.558-.343-5.338-.014-1.581.101-3.161.216-4.742.149-2.062.299-4.126.164-6.195q-.014-.851-.036-1.702v-.003a82 82 0 0 1-.037-3.405c.016-1.059.736-1.022 1.41-.631l1.655.957c4.745 2.742 9.49 5.485 14.206 8.283 10.108 6.476 19.417 14.657 26.139 24.672l.407.643c1.805 2.852 3.611 5.707 5.257 8.649.765 1.364 1.33 2.839 1.895 4.312l.33.858.088.225.131.33c.082.209.064.46.041.765m-53.918-27.846-1.034 1.76c-2.102 3.585-4.048 6.904-6.335 10.349-3.272 5.627-6.864 11.15-12.201 15.061-1.021.741-2.008 1.534-2.994 2.326-1.601 1.286-3.201 2.571-4.94 3.629-3.899 2.371-7.979 4.476-12.108 6.427-8.08 4.004-16.819 6.319-25.614 8.125-8.662 1.709-17.441 3.183-26.3 3.086-8.23-.024-16.467-.295-24.644-1.288-6.743-.873-13.405-2.513-19.986-4.174-12.132-3.894-24.361-8.787-34.191-17.089-2.488-2.125-4.815-4.472-7.025-6.892-3.751-4.626-6.771-9.805-9.781-14.97-1.205-2.066-2.408-4.13-3.656-6.155l-.229.089-.01.004-.14.054-.078.03c-.117 24.584 24.026 40.073 44.711 47.693 21.82 7.785 45.341 10.164 68.349 7.643 2.504-.414 5.021-.764 7.535-1.115h.001c1.975-.275 3.95-.551 5.917-.856a96 96 0 0 0 3.319-.861l.002-.001c1.487-.404 2.977-.81 4.488-1.118 5.159-.986 10.068-2.791 14.916-4.791.834-.336 1.674-.662 2.516-.987l.003-.002.004-.001h.001v-.001c2.646-1.024 5.297-2.05 7.754-3.413 9.667-5.385 19.177-11.615 25.391-21.032 3.151-4.577 5.272-9.85 6.298-15.287.2-1.369.154-2.771.105-4.23v-.001a60 60 0 0 1-.044-2.012m-3.349-66.615.186.146c-8.282 16.063-24.907 26.486-41.629 32.13l-1.332.477-.004.002c-2.779.996-5.561 1.995-8.388 2.834-3.119.767-6.281 1.413-9.442 2.06h-.003l-.001.001h-.003c-2.082.426-4.164.852-6.234 1.312-4.017.774-8.102 1.015-12.182 1.256h-.004c-1.667.099-3.335.197-4.996.332l-1.132.076c-1.942.133-3.883.265-5.825.295l-.648-.039c-2.812-.17-5.637-.34-8.458-.34l-2.196-.127c-6.478-.368-12.974-.738-19.333-2.099-2.492-.512-4.957-1.147-7.421-1.782a368 368 0 0 0-2.881-.735c-23.178-5.442-57.082-23.408-55.841-50.912l.339-.158c.977 1.715 2.005 3.406 3.033 5.097 2.335 3.842 4.672 7.686 6.417 11.827a534 534 0 0 0 3.737 3.947l.006.006.002.002q.995 1.042 1.987 2.088c11.175 11.571 26.394 18.435 41.758 22.483 23.1 6.335 47.639 6.343 70.999 1.366 9.457-2.384 19-4.966 27.597-9.68 3.597-1.95 7.053-4.162 10.503-6.371l.002-.001.157-.1c4.738-3.033 8.523-7.117 12.313-11.206l.429-.462c.698-.753 1.736-1.205 2.759-1.65.344-.15.687-.299 1.014-.459.454-.185.908-.403 1.364-.623l.002-.001h.001c1.027-.496 2.069-.997 3.162-1.137l.182.142zm-21.626 7.462q.083.261.161.521l-.004-.004c-2.67 1.09-5.173 2.497-7.672 3.902l-.002.001-.002.001-.003.001c-.788.443-1.576.886-2.368 1.319a143 143 0 0 1-16.641 6.407q-1.589.41-3.18.827l-.004.002-.005.001h-.002c-4.894 1.282-9.81 2.569-14.807 3.336-10.84 1.515-21.76 2.476-32.704 1.806-4.128.024-8.221-.48-12.314-.984-1.311-.161-2.623-.323-3.935-.467-4.761-.394-9.376-1.521-13.998-2.65l-.023-.005-.55-.134-.341-.083c-5.991-1.661-11.99-3.362-17.796-5.6-5.543-2.343-10.981-5.167-16.006-8.464l.101-.351c2.978.69 5.928 1.494 8.878 2.297l.001.001c3.713 1.011 7.427 2.023 11.195 2.809 22.843 4.27 46.085 6.181 69.291 4.755 1.034-.077 1.389-.703 1.385-1.734-.011-2.119-.006-4.24-.001-6.36v-.001c.008-3.262.016-6.525-.035-9.786-.02-1.439.521-2.028 1.826-2.21.929-.13 1.855-.269 2.782-.408h.003c1.415-.212 2.829-.424 4.249-.602 1.288-.163 1.277.887 1.269 1.675l-.001.038c-.035 3.142-.095 6.286-.154 9.43-.044 2.273-.087 4.546-.121 6.819-.02 1.523.748 2.096 2.214 1.85l1.644-.259h.001c8.339-1.31 16.699-2.623 24.955-4.367 1.936-.43 3.847-.985 5.757-1.541 2.306-.67 4.61-1.339 6.957-1.788M133.334 76.792a8 8 0 0 1-.444.196c-.202.084-.329.136-.405.23-.68.86-1.377 1.71-2.075 2.56-1.693 2.062-3.385 4.124-4.833 6.344-5.337 7.745-8.5 16.924-9.672 26.228-.311 3.334-.257 6.704-.203 10.072.02 1.26.041 2.52.042 3.777 0 .299.315.84.525.861 1.202.121 1.372.974 1.547 1.845v.001l.033.162c.109.535.198 1.078.287 1.621.195 1.185.389 2.369.791 3.477 1.055 2.89 2.238 5.735 3.42 8.578q.476 1.142.947 2.286c.376.913.857.981 1.519.133 1.47-1.878 2.964-3.735 4.458-5.593q1.198-1.487 2.39-2.98.178-.219.361-.427c.542-.625 1.066-1.229 1.069-2.276-.008-8.216.066-16.425.14-24.633v-.002c.097-10.817.195-21.633.103-32.46m215.481 260.744.36.371h.004c-10.197 11.797-24.644 19.259-39.479 23.521-9.641 3.28-19.803 4.426-29.889 5.564q-1.512.17-3.021.343c-29.496 1.535-69.5-5.551-89.466-29.084l.113-.11.03-.029.14-.136c26.038 19.861 59.655 26.708 91.874 24.595 24.652-2.064 49.857-9.243 69.334-25.035m-.979-80.504-.044-.048-.04-.043-.062-.066-.038-.04-.071-.076-.046-.049-.048-.052-.025-.027q-.933.585-1.864 1.173c-8.294 5.223-16.617 10.464-25.919 13.73-5.672 2.113-11.409 4.113-17.425 5.163l-.199.042c-8.147 1.707-16.316 3.419-24.667 3.728-17.178.997-34.522-.922-51.094-5.511-6.056-1.939-12.003-4.254-17.877-6.69-6.851-2.668-12.867-6.854-18.874-11.033q-.84-.585-1.681-1.168l-.028.032-.049.057-.088.102-.082.092c12.128 14.673 31.286 21.177 49.24 25.629 7.518 1.689 15.235 2.647 22.935 2.938 13.655.496 27.419 0 40.715-3.43 6.29-1.144 12.399-3.135 18.321-5.519 10.766-4.415 21.237-10.071 29.01-18.934m-175.601-82.333.477-.072v.004c2.27 5.87 5.89 10.847 9.918 15.028-.103.357-.214.673-.316.962-.195.552-.355 1.006-.355 1.462-.073 7.392-.054 14.789-.034 22.188.027 10.576.055 21.153-.188 31.71l-.38.182c-5.745-6.913-9.377-15.401-9.098-24.507.194-8.819.114-17.653.034-26.479v-.001c-.062-6.834-.123-13.663-.058-20.477m17.468 111.109a4 4 0 0 0-.019-.263l.008.004c.12.028.239.046.352.063.234.036.448.069.613.175 1.284.817 2.553 1.662 3.821 2.507l.002.001h.001c2.716 1.809 5.433 3.619 8.296 5.152 16.916 8.399 35.653 13.045 54.492 14.124 21.327 1.216 43.183-1.18 63.242-8.735 4.145-1.612 8.274-3.288 12.302-5.175 1.798-.814 3.415-1.836 5.037-2.862 1.629-1.029 3.264-2.063 5.095-2.895a4 4 0 0 0-.124.396c-.08.289-.159.578-.348.723-5.087 3.879-10.513 7.187-16.411 9.688l-1.194.507-.053.022c-3.285 1.393-6.572 2.788-9.903 4.065a250 250 0 0 1-15.55 4.133c-3.598.891-7.285 1.239-10.974 1.588-2.309.217-4.619.435-6.907.787-10.824 1.172-21.772.832-32.571-.258-10.952-1.717-21.88-3.923-32.207-8.06-9.772-3.64-19.222-8.391-26.963-15.502-.029-.027-.032-.082-.037-.185m-.645 95.994q.09-.106.183-.21l.001-.001.001-.001.182-.208.008.004c21.493 16.232 48.904 22.103 75.387 22.902 18.216.695 36.445-2.383 53.748-8.011-.647 2.388-2.242 3.091-3.947 3.592l-1.262.37c-6.406 1.881-12.813 3.763-19.459 4.567-14.888 2.864-30.272 2.658-45.305 1.131-8.494-.827-16.677-3.171-24.847-5.512l-1.126-.322c-12.342-3.604-23.973-9.7-33.564-18.301m103.544-142.345c-1.773.359-3.539.716-5.364.533v-5.383c.001-5.283.002-10.479-.004-15.674-.004-.957.585-1.39 1.389-1.507 1.339-.198 2.683-.37 4.026-.542h.001l.001-.001c1.008-.129 2.016-.258 3.022-.398 1.228-.17 1.733.319 1.725 1.551-.032 6.283-.036 12.561-.04 18.843-.004 1.111-.34 1.866-1.588 2.052-1.068.102-2.119.315-3.167.526zm5.81 245.587.445-.117c3.361 9.401 7.502 17.683 15.95 23.549-3.136 1.104-6.344 1.43-9.573 1.759h-.003l-.001.001c-1.757.178-3.52.358-5.283.664-1.216.162-1.652-.259-1.644-1.543.051-3.652.042-7.306.033-10.959v-.002c-.01-4.453-.021-8.905.076-13.352m48.084-166.02-.068-.099-.068-.1-.07-.102-.068-.099c-6.654 4.363-13.494 8.557-20.847 11.668-2.713 1.204-5.551 2.118-8.389 3.033-2.906.936-5.811 1.873-8.583 3.12-.254.141-.323.88-.23 1.289.056.238.654.565.925.5 13.48-3.902 26.77-9.896 37.398-19.21m11.292-129.809c-1.875.816-3.731 1.623-5.846 2.089h-.004c4.792-5.608 8.246-10.553 11.615-16.887.251 2.135.219 4.318.186 6.495-.018 1.222-.036 2.441-.004 3.649 0 2.307-.121 2.367-2.198 3.147-1.308.445-2.532.978-3.748 1.507zm-68.583 26.212c-1.842.294-1.967.206-1.967-1.728 0-1.868.049-1.965 2.541-2.413a96 96 0 0 1 3.741-.574h.002c.831-.117 1.662-.233 2.491-.364.973-.153 1.393.15 1.405 1.196.033 2.671-.149 2.873-2.783 3.131-1.818.178-3.628.461-5.43.752m1.922 29.137q-.865.197-1.659.367v.004c-.298-.042-.591-.035-.862-.029-.762.017-1.354.03-1.393-1.03-.044-1.248.756-1.551 1.778-1.68a359 359 0 0 0 3.969-.524h.001q1.19-.163 2.381-.321.149-.02.308-.048c.675-.112 1.427-.238 1.595.65.178.937-.328 1.531-1.487 1.697-1.6.229-3.179.586-4.631.914M172.182 494.961h.001c.206.026.422.052.646.094v-.008c.109-12.459.101-24.906.094-37.356v-.006c-.005-7.922-.01-15.846.015-23.775 0-.537-.355-1.341-.784-1.572-14.677-7.175-28.995-15.651-39.887-28.045-2.646-2.941-5.001-6.153-7.332-9.357-.4-.549-.384-1.907.024-2.452 2.638-3.507 5.394-6.929 8.217-10.29.712-.845 1.067-1.62 1.067-2.715-.091-8.194-.022-16.39.047-24.584.102-12.205.205-24.405-.221-36.586-8.427 8.751-15.477 18.908-18.576 30.793-.957 3.741-1.818 7.47-1.838 11.292-.087 17.049-.102 34.095-.117 51.142l-.016 15.344q-.001.126-.005.261c-.012.389-.024.811.166 1.044.686.841.682 1.777.678 2.717-.002.33-.003.661.025.988.174 5.648 2.239 11.009 4.335 16.168 7.664 16.229 21.521 29.06 36.829 38.057 4.105 2.398 8.289 4.664 12.47 6.928l.014.008q1.518.82 3.034 1.645c.312.168.691.214 1.114.265m-56.353-112.646.606-.19v.004c5.009 11.526 12.104 21.958 21.699 30.135 9.465 8.888 20.882 15.057 32.368 20.919.865.456 1.046 1.179 1.042 2.117-.029 5.589-.035 11.18-.041 16.771v.003l-.007 6.1q-.013 7.444-.021 14.89v.003q-.009 9.306-.028 18.611c-.036.877-.343 1.268-1.264.784-22.483-10.921-44.844-27.541-52.9-52.197-.99-3.216-1.596-6.505-1.559-9.975.119-11.559.112-23.121.106-34.681q-.006-6.648-.001-13.294m13.679 1.995c-1.934 2.475-3.859 4.94-5.914 7.341v-.004c-2.692-3.311-4.154-7.351-5.595-11.33v-.002a201 201 0 0 0-.728-1.991c-.287-.701-.397-1.521-.508-2.34-.136-1.014-.273-2.029-.744-2.82-.989-.816-.957-1.84-.925-2.872q.01-.275.012-.549c.017-1.328.004-2.67-.009-4.016-.041-4.226-.083-8.503.821-12.581 2.517-8.989 5.813-17.949 11.958-25.149.607-.669 1.106-1.363 1.595-2.044.939-1.307 1.843-2.566 3.419-3.515q-.003 4.046-.002 8.085c.002 16.381.003 32.703-.431 49.093-.016.639-.347 1.37-.747 1.887-.74.934-1.471 1.87-2.201 2.805v.001zm53.861 52.626c-1.05-.473-1.527-.291-1.951.295l.004-.004c.598 20.147.412 40.452-.097 60.6.036 1.38 1.511 1.837 2.829 2.246.457.142.895.278 1.248.444a623 623 0 0 0 8.9 2.962c3.995 1.353 8.064 2.44 12.164 3.405l1.038.264.805.206.012.003.013.003c3.416.875 6.827 1.749 10.333 2.187 2.529.407 5.051.872 7.573 1.337h.001c5.875 1.082 11.75 2.164 17.716 2.529 9.35.998 18.741.915 28.133.831 3.607-.032 7.213-.064 10.817-.035l.167.001c1.303.012 2.941.026 2.887-1.775.141-11.234.223-22.469.305-33.705v-.018c.064-8.796.128-17.592.22-26.388-.006-1.384-1.036-1.162-2.015-.951-.315.068-.625.135-.893.147-18.322.327-36.768.509-54.888-2.654-5.922-.739-11.74-2-17.525-3.442-6.64-1.199-13.05-3.289-19.454-5.378l-.532-.173c-2.642-.865-5.281-1.79-7.81-2.937m-.141 10.418v.307c-.016 16.387-.032 32.734-.097 49.127.012.538.311 1.253.719 1.556 9.288 3.571 18.915 6.524 28.696 8.496l1.715.38c6.204 1.379 12.418 2.759 18.744 3.466 1.904.197 3.809.411 5.716.625 5.607.63 11.224 1.261 16.843 1.46 5.38-.01 10.759-.079 16.138-.148h.003c3.716-.047 7.432-.095 11.149-.123 1.447-.012 1.738-.606 1.738-1.947-.02-15.053-.005-30.108.01-45.162l.003-2.649.007-7.776q0-.104.01-.212l.009-.117c.024-.267.048-.535-.064-.729-.214-.38-.626-.909-.965-.917-21.17.517-42.509.363-63.307-4.097-7.773-1.345-15.449-3.151-22.971-5.531-1.926-.52-3.782-1.188-5.633-1.853-2.757-.992-5.504-1.979-8.455-2.473l-.008 8.244v.036zM219.329 95.16c6.493-1.406 13.013-2.4 19.627-3.095l.004-.008c.137-11.855.112-23.704.087-35.555V56.5c-.018-8.717-.036-17.436.01-26.158.024-.961-.461-1.074-1.297-.929-2.646.465-5.299.893-7.951 1.32-7.707 1.245-15.409 2.488-22.935 4.619a138 138 0 0 0-18.438 5.575c-7.979 2.747-15.809 5.915-23.267 9.882-8.292 4.037-15.636 9.563-22.972 15.082l-.896.674c-.97.71-1.345 1.608-1.345 2.86.012 19.336-.025 38.679-.061 58.007.021.204.029.434.037.669.023.67.047 1.373.379 1.597.609.412.961-.068 1.314-.551.152-.209.306-.418.48-.556 15.396-12.621 33.625-21.307 52.568-27.189 8.044-2.667 16.326-4.687 24.656-6.242m-71.027 27.01c-2.236 1.673-4.473 3.347-6.949 4.813l.004-.008c.051-6.535.033-13.057.015-19.574-.034-12.767-.069-25.514.41-38.299.028-.663.594-1.487 1.159-1.907q.951-.71 1.902-1.423c3.621-2.714 7.245-5.43 11.01-7.93 9.292-5.858 19.396-10.46 29.702-14.249 15.942-6.282 32.793-9.687 49.696-12.172 2.158-.356 2.408-.158 2.408 2.028q-.035 27.42-.064 54.834l-.001.207c-.004 1.923-.226 2.254-2.125 2.598-.933.17-1.876.296-2.818.423-.783.105-1.566.21-2.345.34-1.936.341-3.877.67-5.817.997h-.001c-4.816.814-9.635 1.628-14.406 2.647-14.774 3.665-29.387 8.343-42.965 15.296l-.442.23h-.001c-4.039 2.105-8.093 4.218-11.936 6.646-2.271 1.386-4.353 2.944-6.436 4.503M410.03 420.465c-4.461-1.269-13.239-3.959-13.316-9.539q-.372-9.878-.841-19.751c-.024-.495-.177-.985-.34-1.506-.08-.257-.163-.521-.233-.797a15 15 0 0 0-.668.341c-1.206.639-2.647 1.404-2.782-.337-.008-2.557.028-5.115.149-7.668.02-.428.449-1.006.848-1.22 1.223-.663 2.48-1.265 3.73-1.863q.673-.321 1.341-.646c-.93-1.636-4.424-.986-6.274-.19-1.701.582-3.022 1.35-2.841 3.576.115 1.401-.059 2.833-.23 4.248l-.054.449-.031.26c-.03.274-.258.526-.486.777-.104.115-.208.229-.293.346-.079-.122-.178-.243-.276-.365-.217-.266-.434-.533-.439-.803-.045-2.375-.041-4.759.084-7.13.029-.538.461-1.208.913-1.543 2.95-2.041 7.179-3.346 10.565-1.843.757.418 1.544.789 2.333 1.159 1.977.929 3.957 1.86 5.464 3.552 1.515 1.701 2.634 3.612 2.808 5.923.362 5.016.648 9.873.941 14.827v.006c.118 2.011.238 4.038.364 6.098.512-.054 1.024-.015 1.531.024 1.017.079 2.017.155 2.974-.521.169-.121.565-.113.743.008.571.379 1.154.746 1.738 1.113h.001c1.58.993 3.161 1.986 4.503 3.234 3.85 4.064 2.238 10.306-.097 14.803-1.332 2.628-3.353 4.628-5.376 6.63-.726.719-1.452 1.437-2.147 2.185-2.464 1.959-3.842 4.492-3.191 7.801.077 2.053.184 3.994.287 5.85.633 11.496 1.087 19.721-6.768 30.894-2.072 3.026-4.646 5.587-7.518 7.837-1.19.826-3.53-.708-5.017-1.682l-.002-.001a23 23 0 0 0-.766-.49c-1.469-1.253-1.482-3.972-1.494-6.32-.004-.869-.008-1.688-.086-2.362-.008-.36.287-.836.586-1.083 4.343-3.389 7.232-8.738 7.623-14.188 0-5.58-.287-11.161-.574-16.735v-.003l-.112-2.186c-.174-3.486.416-6.799 2.209-9.76 1.14-1.883 2.578-3.628 4.101-5.228.874-.994 1.908-1.88 2.941-2.765 1.255-1.075 2.51-2.151 3.479-3.42zm-16.257-33.209c6.561-2.178 8.843 1.842 9.021 7.583.191 3.889.32 7.782.448 11.674v.001c.07 2.104.139 4.208.219 6.311.105 2.848 2.205 4.998 5.074 5.119 1.293.056 2.588.031 3.884.006.587-.011 1.173-.023 1.76-.026 1.389-.012 2.355.868 2.484 2.234.17 1.846-.416 3.333-1.757 4.682q-.661.683-1.339 1.374c-4.693 4.791-9.747 9.949-9.327 17.166.205 4.218.343 8.439.482 12.661v.001q.09 2.795.189 5.59c.21 5.842-1.879 10.852-5.975 14.872-2.202 2.036-2.84 4.597-1.632 7.239 3.644-2.06 6.553-6.993 8.605-10.629 4.715-8.46 4.169-16.01 3.365-25.242-.117-3.135-.129-6.278-.109-9.417 0-.566.242-1.261.614-1.677 1.993-2.226 4.03-4.409 6.068-6.593l.003-.003 1.185-1.27c4.525-3.858 9.445-18.373-.291-18.083-.353.009-.742.028-1.153.049-2.874.147-6.818.349-7.185-3.062-.082-2.597-.192-5.197-.301-7.796v-.005c-.145-3.44-.29-6.88-.37-10.315l-.044-.44-.002-.018c-.156-1.582-.314-3.185-.774-4.685-1.321-4.638-6.545-6.355-10.686-4.286l-.133.055-.065.027c-.754.311-1.755.724-1.858 1.235-.252 1.277-.292 2.594-.335 3.976-.017.551-.034 1.111-.065 1.684zm-1.814 91.837q-.001.428-.01.855c-.011.658-.022 1.315.026 1.969.06.833 1.818 2.238 2.537 1.972.856-.318.659-.861.463-1.401-.081-.222-.161-.443-.168-.647l-.007-.335c-.008-.473-.016-.949-.114-1.407-.407-1.617.826-2.86 2.457-4.503 2.513-2.533 5.969-6.016 5.825-13.285.026-4.67-.244-8.424-.475-11.633-.76-10.57-1.094-15.224 10.983-27.183.523-.613.776-1.47 1.022-2.298q.078-.265.157-.522c.057-.178-.468-.776-.654-.747q-.249.041-.516.076c-.739.103-1.531.213-1.965.647-.928 1.037-2.014 2.122-3.148 3.255-4.05 4.044-8.705 8.692-8.895 13.935-.089 6.181-.044 12.382.396 18.539.493 6.856-1.305 12.815-6.084 17.659-1.547 1.568-2.335 2.958-1.83 5.05zm9.058-79.859v-.002c-.11-2.14-.22-4.28-.308-6.417-.056-1.015-.627-2.03-1.164-2.985l-.225-.404c-.125-.228-.501-.317-.876-.405-.17-.04-.34-.08-.486-.133-.491.892-.326 1.821-.16 2.757.087.489.174.98.168 1.469.047 1.749.069 3.498.092 5.247.026 2.063.053 4.125.118 6.186.069 2.186.255 4.372.481 6.549.194 1.842 1.313 3.103 2.848 3.289.031-5.037-.228-10.096-.488-15.151m14.475 9.539-.025-.42c-1.414-.404-2.824-.667-4.209.04v.38zm-50.668 48.805c-2.586-1.561-5.217-3.15-8.64-3.379v-.008c1.292-1.744 2.786-3.137 4.294-4.543.997-.93 2-1.866 2.954-2.911 3.996-4.097 6.238-8.807 5.733-14.766l-.108-1.846c-.34-5.806-.685-11.696-.429-17.478 1.572-6.81 5.243-9.669 7.301-11.271 1.523-1.186 2.162-1.684.415-2.586-5.769 3.143-10.314 10.937-9.817 18.281.067 1.918.173 3.848.278 5.783.267 4.886.535 9.802.203 14.623-1.472 4.953-5.306 8.488-9.014 11.907q-.733.673-1.45 1.344c-1.959 1.721-2.986 3.681-2.582 6.323.223 1.434.857 2.024 2.303 2.016 5.002-.343 11.918-.032 11.603 6.585.017 4.503.224 9.007.431 13.51.088 1.896.175 3.792.248 5.688.238 1.531.675 3.091 1.81 4.327 2.041 2.132 4.301 1.78 5.859 1.537 1.229-.192 2.022-.316 1.926.903.062 2.773.116 4.047-.488 4.778-.62.751-1.933.93-4.643 1.573-6.084 1.079-9.87-3.995-9.789-9.659-.396-6.214-.61-12.44-.788-18.661.056-3.894-5.838-3.636-9.01-3.497-.276.012-.533.023-.762.03-1.313.073-2.19-.65-2.655-1.66-1.154-2.263-.78-4.733-.413-7.155.089-.587.177-1.171.244-1.749.29-2.307 1.167-4.452 2.654-6.165 2.295-2.646 4.803-5.115 7.328-7.551 1.414-1.365 2.117-2.808 1.996-4.836-.036-2.382-.205-4.807-.374-7.245-.529-7.596-1.066-15.316 2.366-22.243 2.695-5.769 6.391-10.811 11.857-14.35 1.511-.978 1.479-1.188-.012-2.169-10.346 6.395-17.073 18.467-16.281 30.716.175 2.686.211 5.382.248 8.076.02 1.479.04 2.958.083 4.436.637 4.52.5 4.646-1.553 6.547-.5.462-1.113 1.03-1.856 1.791-3.455 3.228-6.82 6.48-8.048 11.324-.82 3.232-1.463 6.432-.554 9.967-4.609-.558-4.064-7.171-3.211-10.456.537-2.46 1.288-4.932 3.054-6.847 2.319-2.517 4.686-4.998 7.159-7.361 1.967-1.879 3.377-3.814 2.367-6.69-.16-2.897-.224-5.814-.288-8.733-.05-2.246-.099-4.494-.193-6.733-.218-10.774 5.846-20.947 14.629-26.971.271-.182.398-.579.526-.975.058-.183.117-.366.189-.527-.175-.003-.37-.03-.564-.056-.418-.057-.835-.114-1.064.068-5.712 4.104-10.548 9.227-13.106 15.905-1.454 3.539-2.609 7.09-2.496 10.949l.086 2.931c.148 5.109.296 10.222.564 15.325.085 1.685-.565 2.84-1.636 3.895-7.559 6.423-12.819 12.803-11.272 23.311.226 2.742 2.094 3.717 4.077 4.751.677.354 1.368.715 2.012 1.155 1.939 1.529 3.794 1.366 5.18 1.245 1.504-.132 2.455-.215 2.362 1.963q.083 2.076.161 4.155c.173 4.608.347 9.218.663 13.819.194 2.812 1.427 5.329 3.77 7.074l.529.38c2.536 1.824 5.154 3.706 8.27 4.314 3.204.667 6.209-.198 9.078-1.571.949-.457 1.596-1.208 1.519-2.436a34 34 0 0 1-.016-4.303c.141-2.141.161-4.149-2.485-4.832-.057-.014-.103-.072-.148-.131-.043-.057-.087-.114-.143-.131-.439-.14-.842-.402-1.244-.664-.928-.606-1.856-1.211-3.24-.298-1.725 1.143-2.198.792-2.315-1.325-.404-6.529-.606-13.069-.723-19.602-.146-2.517-1.176-4.751-3.374-6.016-.517-.298-1.03-.608-1.545-.919m-3.03 36.106.414-.253c-.729-2.578-.873-5.275-1.016-7.956-.045-.857-.091-1.711-.156-2.56-.105-1.712-.105-3.431-.105-5.15.001-2.679.002-5.356-.4-8.004-.165-1.002-.985-1.463-1.813-1.362-.32.041-.748 1.095-.736 1.681l.019 1.42c.06 4.46.12 8.922.397 13.37.037 3.377.747 6.415 3.396 8.814m11.274-6.244c1.236-.505 2.185-.55 3.426 1.329v.004c-.329-.04-.8-.017-1.302.008-1.17.057-2.514.122-2.642-.582.037-.278.271-.658.518-.759"/>
</svg>
