<?xml version="1.0" encoding="utf-8"?>
<!-- Generator: Adobe Illustrator 23.0.0, SVG Export Plug-In . SVG Version: 6.00 Build 0)  -->
<svg version="1.1" id="Calque_1" xmlns="http://www.w3.org/2000/svg" xmlns:xlink="http://www.w3.org/1999/xlink" x="0px" y="0px"
	 viewBox="0 0 70 36" style="enable-background:new 0 0 70 36;" xml:space="preserve">
<style type="text/css">
	.st0{fill:#00618A;}
	.st1{fill:#E48E00;}
	.st2{fill-rule:evenodd;clip-rule:evenodd;fill:#00618A;}
	.st3{fill-rule:evenodd;clip-rule:evenodd;fill:#E48E00;}
</style>
<path class="st0" d="M0.4,32.7h2.3v-9l3.5,7.8c0.4,0.9,1,1.3,2.1,1.3s1.7-0.3,2.1-1.3l3.5-7.8v9h2.3v-9c0-0.9-0.4-1.3-1.1-1.5
	c-1.7-0.5-2.9-0.1-3.4,1.1L8.3,31l-3.4-7.7c-0.5-1.2-1.7-1.6-3.4-1.1c-0.7,0.2-1.1,0.6-1.1,1.5V32.7z M18.1,25.3h2.3v5
	c0,0.3,0.1,0.9,1.3,0.9c0.6,0,4.9,0,5,0v-5.9H29c0,0,0,8,0,8.1c0,2-2.5,2.4-3.6,2.4h-7.2v-1.5l7.2,0c1.5-0.2,1.3-0.9,1.3-1.1v-0.6
	h-4.8c-2.3,0-3.7-1-3.7-2.1C18.1,30.4,18.2,25.4,18.1,25.3L18.1,25.3z"/>
<path class="st1" d="M30.7,32.7h6.5c0.8,0,1.5-0.2,2.1-0.4c1-0.5,1.5-1.1,1.5-1.9v-1.7c0-0.7-0.5-1.3-1.6-1.7
	c-0.6-0.2-1.3-0.3-1.9-0.3h-2.8c-0.9,0-1.4-0.3-1.5-0.9c0-0.1,0-0.1,0-0.2v-1c0-0.1,0-0.1,0-0.2c0.1-0.5,0.4-0.6,1.2-0.7
	c0.1,0,0.2,0,0.2,0h6.5v-1.5h-6.4c-0.9,0-1.4,0.1-1.8,0.2c-1.4,0.4-2,1.1-2,2.3v1.3c0,1,1.2,1.9,3.1,2.1c0.2,0,0.4,0,0.7,0h2.4
	c0.1,0,0.2,0,0.2,0c0.7,0.1,1,0.2,1.2,0.5c0.1,0.1,0.2,0.3,0.2,0.4v1.3c0,0.2-0.1,0.4-0.3,0.5c-0.2,0.2-0.5,0.3-1,0.3
	c-0.1,0-0.2,0-0.2,0h-6.3L30.7,32.7L30.7,32.7z M55,30c0,1.6,1.2,2.4,3.5,2.6c0.2,0,0.4,0,0.7,0h5.9v-1.5h-6c-1.3,0-1.8-0.3-1.8-1.1
	v-7.9H55L55,30L55,30z M42.3,30.1v-5.4c0-1.4,1-2.2,2.9-2.5c0.2,0,0.4,0,0.6,0h4.3c0.2,0,0.4,0,0.6,0c1.9,0.3,2.9,1.1,2.9,2.5v5.4
	c0,1.1-0.4,1.7-1.4,2.1l2.2,2h-2.6L50,32.6l-1.8,0.1h-2.4c-0.4,0-0.9-0.1-1.3-0.2C43,32.1,42.3,31.4,42.3,30.1L42.3,30.1z M44.7,30
	c0,0.1,0,0.1,0,0.2c0.1,0.6,0.7,1,1.6,1h2.1l-1.9-1.7h2.6l1.7,1.5c0.3-0.2,0.5-0.4,0.6-0.7c0-0.1,0-0.1,0-0.2v-5.2
	c0-0.1,0-0.1,0-0.2c-0.1-0.6-0.7-0.9-1.6-0.9h-3.4c-1,0-1.7,0.4-1.7,1.1L44.7,30L44.7,30z"/>
<g>
	<path class="st0" d="M67.1,19.6c-1.4,0-2.5,0.1-3.4,0.5c-0.3,0.1-0.7,0.1-0.7,0.4c0.1,0.1,0.2,0.4,0.3,0.6c0.2,0.4,0.6,0.8,0.9,1.1
		c0.4,0.3,0.7,0.6,1.1,0.8c0.7,0.4,1.5,0.7,2.1,1.1c0.4,0.2,0.8,0.6,1.2,0.8c0.2,0.1,0.3,0.4,0.6,0.4v0c-0.1-0.2-0.2-0.4-0.3-0.6
		l-0.5-0.5c-0.5-0.7-1.1-1.3-1.8-1.8c-0.5-0.4-1.8-0.9-2-1.6l0,0c0.4,0,0.8-0.2,1.2-0.3c0.6-0.2,1.1-0.1,1.8-0.3l0.8-0.2v-0.2
		c-0.3-0.3-0.5-0.7-0.9-1c-0.9-0.8-1.9-1.5-2.9-2.2c-0.6-0.4-1.2-0.6-1.8-0.9c-0.2-0.1-0.5-0.2-0.7-0.3c-0.3-0.4-0.5-0.9-0.7-1.4
		c-0.5-1-1-2-1.4-3c-0.3-0.7-0.5-1.4-0.9-2c-1.8-3-3.8-4.8-6.8-6.5c-0.6-0.4-1.4-0.5-2.2-0.7l-1.3-0.1c-0.3-0.1-0.5-0.4-0.8-0.6
		c-1-0.6-3.6-2-4.3-0.2c-0.5,1.1,0.7,2.2,1.1,2.8c0.3,0.4,0.7,0.9,0.9,1.3c0.1,0.3,0.2,0.6,0.3,0.9c0.3,0.8,0.5,1.6,0.9,2.3
		c0.2,0.4,0.4,0.7,0.6,1.1c0.1,0.2,0.4,0.3,0.4,0.6c-0.2,0.3-0.3,0.9-0.4,1.3c-0.6,2-0.4,4.4,0.5,5.9c0.3,0.4,0.9,1.4,1.8,1
		c0.8-0.3,0.6-1.3,0.8-2.2c0.1-0.2,0-0.3,0.1-0.5v0l0.7,1.4c0.5,0.9,1.5,1.7,2.3,2.3c0.4,0.3,0.7,0.9,1.3,1v0h0
		c-0.1-0.2-0.3-0.2-0.4-0.4c-0.3-0.3-0.7-0.7-0.9-1c-0.7-1-1.4-2.1-2-3.2c-0.3-0.5-0.5-1.1-0.8-1.7c-0.1-0.2-0.1-0.5-0.3-0.6
		c-0.3,0.4-0.6,0.7-0.8,1.2c-0.3,0.8-0.4,1.7-0.5,2.6c-0.1,0,0,0-0.1,0c-0.6-0.1-0.7-0.7-1-1.2c-0.5-1.2-0.6-3.2-0.2-4.7
		c0.1-0.4,0.7-1.5,0.4-1.9c-0.1-0.3-0.4-0.5-0.6-0.8c-0.2-0.3-0.5-0.7-0.6-1.1c-0.4-1-0.6-2-1.1-3c-0.2-0.5-0.6-0.9-0.9-1.4
		c-0.3-0.5-0.7-0.8-1-1.4c-0.1-0.2-0.2-0.5-0.1-0.7c0-0.1,0.1-0.2,0.2-0.2c0.2-0.2,0.9,0.1,1.1,0.2c0.6,0.3,1.2,0.5,1.7,0.9
		c0.3,0.2,0.5,0.5,0.8,0.6h0.4c0.6,0.1,1.2,0,1.7,0.2c0.9,0.3,1.8,0.7,2.5,1.2c2.3,1.4,4.2,3.5,5.5,6c0.2,0.4,0.3,0.8,0.5,1.2
		c0.4,0.8,0.8,1.7,1.2,2.5c0.4,0.8,0.7,1.7,1.2,2.3c0.3,0.4,1.3,0.6,1.8,0.8c0.3,0.1,0.9,0.3,1.2,0.5c0.6,0.4,1.2,0.8,1.8,1.2
		C66.2,18.9,67.1,19.3,67.1,19.6L67.1,19.6z"/>
	<path class="st2" d="M49.4,4.5c-0.3,0-0.5,0-0.7,0.1v0h0c0.1,0.3,0.4,0.5,0.6,0.7l0.4,0.8l0,0C49.9,5.9,50,5.6,50,5.2
		c-0.1-0.1-0.1-0.2-0.2-0.4C49.7,4.7,49.5,4.6,49.4,4.5L49.4,4.5z"/>
</g>
<path class="st3" d="M66.2,31.1c0,1,0.8,1.7,1.7,1.7c0.9,0,1.7-0.7,1.7-1.7c0-1-0.8-1.7-1.7-1.7C67,29.4,66.2,30.1,66.2,31.1z
	 M69.2,31.1c0,0.8-0.6,1.3-1.3,1.3c-0.7,0-1.3-0.6-1.3-1.3c0-0.8,0.6-1.3,1.3-1.3C68.6,29.8,69.2,30.3,69.2,31.1z M68.3,32.1h0.4
	l-0.6-0.8c0.3,0,0.5-0.2,0.5-0.5c0-0.4-0.2-0.6-0.7-0.6h-0.7v1.9h0.3v-0.8h0.3L68.3,32.1L68.3,32.1z M67.5,31v-0.6h0.4
	c0.2,0,0.4,0,0.4,0.3c0,0.3-0.2,0.3-0.5,0.3L67.5,31L67.5,31z"/>
</svg>
