<svg xmlns="http://www.w3.org/2000/svg" width="550" height="550" fill="none" viewBox="0 0 550 550">
    <path fill="#fff" d="M509.229 343.308c9.633-14.21-4.737-32.362-13.414-43.308l-.637-.836c-3.304-4.18-19.943-25.197-41.159-52.066l4.617-11.663-7.006-8.28.16-.239-.637-.318-.518-.518-.159.199-8.16-3.901.637-.557h-5.095l1.87.876-2.945 2.547c-39.846-50.433-88.648-112.252-96.131-121.885-6.528-8.399-14.131-16.2-25.715-16.2s-15.325 2.825-25.475 8.597c-1.792.995-4.22 2.428-7.205 4.14a64.86 64.86 0 0 0-33.636-9.394c-35.865 0-65.003 29.178-65.003 65.003v1.632c-5.732 3.304-11.424 6.647-17.116 9.911l.796-1.95-4.459-5.254.16-.239-.597-.279-.518-.597-.199.279-6.05-2.906-10.27 8.876-1.035-.517-1.035-8.479 1.114-.358-1.234-.597v-.478c-.039 0-.597.199-.597.199l-6.17-3.065-7.801 2.508-.438-.239-.16.438-1.353.438.995.478-3.184 8.638c-4.777 2.149-9.554 5.692-13.892 10.349l-4.419-2.11-6.369 9.394-1.114-.557.557 1.393-.239.359.478.239 1.711 4.299a73 73 0 0 0-2.03 3.9c-2.547 5.295-4.378 10.748-5.453 16.201l-5.573 3.941-.557-.278-.08.716-.716.478.597.318c-6.767 3.822-11.464 6.449-14.29 7.922-6.21 3.303-11.027 6.926-14.29 10.787l-.08.08c0 .039-.08.079-.12.119l-11.583 13.494a45 45 0 0 0-2.628 3.025c-6.966 9.355-5.612 20.381 4.02 32.84 5.255 6.767 32.204 41.358 63.372 81.403l28.222 36.223v52.345c0 5.692.955 8.996 3.025 10.429l.199.119c.319.199.677.358 1.035.478l1.871.876c.199.119.438.238.677.318l.159.08h.159c.478.159.956.199 1.473.199 2.428 0 5.254-1.433 8.041-2.826 1.831-.916 9.275-5.056 22.132-12.34 14.967 19.226 24.878 31.924 27.864 35.825 9.434 12.18 18.43 20.301 31.566 20.301s15.922-2.787 25.436-8.479c28.222-16.917 195.446-113.725 222.713-129.09 3.065-1.712 5.573-3.662 7.563-5.772.318-.398.597-.716.836-.995l11.942-13.812.398-.399 1.114-1.313v-.08h.04c.04-.079.08-.119.159-.199l.836-.995h-.119zM135.174 170.711c.12-.08.279-.12.399-.2.278-.119.517-.238.796-.358.159-.079.318-.119.477-.199.239-.079.478-.199.717-.278.159-.08.358-.12.517-.199.239-.08.438-.16.677-.239.159-.04.358-.12.517-.16.239-.079.518-.119.757-.199.199-.039.438-.119.637-.159.278-.079.597-.119.875-.199.16 0 .319-.04.478-.079.119 0 .199 0 .318-.04-2.666.637-5.373 1.751-8.08 3.304v-.597c.358-.16.637-.279.915-.438zm11.425-3.503 1.353.637h-.08c-.995 0-2.03-.001-3.065.119l-.199-1.752 2.031.956zm27.386 5.612c.557-.318 1.115-.676 1.712-.995 1.274-.756 2.587-1.473 3.861-2.229.517-.318 1.035-.597 1.552-.916 1.155-.676 2.309-1.353 3.463-1.99 0 .12.04.279.08.398 0 .199.08.398.119.597.08.359.12.677.199 1.035 0 .199.08.358.12.558.119.477.199.995.318 1.472.04.199.08.359.12.558.079.238.119.517.199.756a8001 8001 0 0 1-18.988 11.026l-1.512.876c-.12-.398-.199-.836-.319-1.234 0-.04 0-.12-.039-.159-.12-.398-.239-.796-.398-1.195a9 9 0 0 0-.438-1.114c0-.04 0-.08-.04-.12-.159-.398-.319-.756-.478-1.114 3.264-1.871 6.528-3.782 9.832-5.692.239-.12.438-.279.677-.398zm138.007-31.964c0-.079 0-.159-.04-.239-.08-.398-.199-.756-.279-1.154a.8.8 0 0 0-.079-.318c-.08-.359-.199-.717-.279-1.075 0-.12-.08-.279-.119-.398a10 10 0 0 0-.319-.995c-.04-.16-.079-.319-.119-.438a9 9 0 0 0-.319-.956c-.04-.159-.119-.318-.159-.517-.119-.279-.199-.597-.318-.876-.08-.199-.12-.358-.199-.557-.12-.279-.199-.557-.319-.836l-.239-.597c-.119-.279-.199-.518-.318-.796-.08-.199-.159-.398-.239-.637-.119-.239-.199-.518-.318-.756-.08-.199-.199-.438-.279-.637-.119-.239-.199-.478-.319-.717-.119-.239-.199-.438-.318-.677-.119-.238-.199-.437-.318-.676l-.359-.717c-.119-.199-.199-.398-.318-.637-.12-.238-.239-.477-.398-.756-.12-.199-.199-.398-.319-.597-.159-.239-.278-.517-.437-.756-.12-.199-.2-.359-.319-.558-.159-.278-.318-.517-.478-.796-.119-.159-.199-.318-.318-.517-.159-.279-.318-.557-.518-.796-.079-.16-.199-.319-.278-.478-.199-.279-.358-.557-.557-.836-.08-.159-.199-.279-.279-.438-.199-.278-.398-.597-.597-.875-.08-.12-.159-.239-.279-.399-.199-.318-.438-.597-.637-.875a2 2 0 0 0-.239-.319c-.238-.318-.477-.597-.716-.915-.08-.08-.159-.199-.239-.279-.239-.318-.517-.637-.756-.955-.08-.08-.12-.159-.199-.239-.279-.319-.557-.677-.836-.995-.04-.04-.08-.12-.159-.159-.319-.359-.597-.717-.916-1.035 0 0-.08-.08-.08-.12-.079-.079-.119-.159-.199-.239.08 0 .199-.039.279-.079.239-.04.478-.08.677-.12.239-.039.477-.079.677-.119.199 0 .398-.08.597-.08.159 0 .318-.04.477-.079.279 0 .558-.04.836-.08h1.354c6.448 0 11.742 3.622 18.907 12.857 2.389 3.105 9.076 11.624 20.222 25.755 8.916 11.305 19.664 24.918 30.172 38.253q11.644 14.748 26.033 32.959l-4.736 12.778c-.12.04-.239.119-.359.159-.358.159-.676.319-1.035.478-.079 0-.159.079-.239.119l-1.194.597c-5.174 2.707-10.309 6.449-15.206 11.026l-.039.04c-.398.398-.796.757-1.194 1.155-.04.039-.08.079-.16.119-.398.358-.756.756-1.114 1.154l-.199.199c-.359.359-.717.757-1.075 1.155l-.159.159-6.887-3.264-9.951 14.728-1.115-.557.558 1.393-.239.358.477.239 2.787 7.006c-1.155 2.03-2.229 4.14-3.264 6.289-.438.876-.836 1.791-1.234 2.667-.08.12-.12.279-.199.398-.159.359-.319.757-.478 1.115-.08.159-.119.318-.199.477-.159.359-.318.757-.478 1.115-.079.159-.119.319-.199.478-.159.398-.318.756-.477 1.154-.04.12-.08.239-.16.358a91 91 0 0 0-1.552 4.22v.079c-.358-1.114-.716-2.229-1.075-3.304v-.039c-.358-1.075-.756-2.15-1.114-3.225v-.079a74 74 0 0 0-1.155-3.145v-.079l-1.194-3.105v-.08c-.398-1.035-.836-2.03-1.234-3.065-4.697-11.265-10.11-21.296-16.32-30.053-10.907-15.405-24.122-26.75-39.368-33.795 17.236-12.221 27.506-31.964 27.506-53.101s-.359-8.081-1.115-12.022v-.039a21 21 0 0 0-.278-1.354v-.159c-.08-.398-.2-.836-.279-1.234zm-19.266-33.039c-.16-.159-.359-.318-.518-.477-.358-.319-.676-.637-1.035-.916-.199-.159-.398-.358-.637-.517-.199-.159-.358-.319-.557-.438a37 37 0 0 0 1.831-1.075c.12-.08.239-.159.358-.199.08-.04.199-.119.279-.159.478-.279.876-.518 1.274-.756 6.05-3.464 11.225-5.693 15.644-6.767 1.99-.478 3.861-.717 5.572-.717 1.712 0 1.194 0 1.792.08 5.692.637 10.628 4.378 17.156 12.777 7.404 9.554 54.892 69.74 87.971 111.616l-.916-.438v-.478c-.04 0-.597.199-.597.199l-9.673-4.776-12.22 3.94-.438-.239-.159.438-.558.16c-6.528-8.28-14.17-17.953-22.052-27.944-14.489-18.351-26.033-32.959-34.671-43.946-9.235-11.742-16.36-20.778-18.828-24.003-7.483-9.672-13.096-13.414-20.062-13.414s-3.901.279-6.09.836c-.359-.358-.717-.757-1.115-1.115-.079-.079-.159-.159-.199-.239-.478-.477-.995-.955-1.512-1.433zm210.891 227.092c-.199.995-.558 1.911-1.035 2.827-1.035 1.831-2.707 3.542-5.095 5.134-.637.438-1.274.836-1.951 1.195-1.035.597-2.269 1.273-3.702 2.109-1.114-8.916-9.354-19.345-14.887-26.311l-.876-1.115c-2.348-2.945-8.877-11.225-18.032-22.809l7.085-5.334 1.553-13.693c11.345 14.37 19.465 24.6 21.813 27.586l.677.836c6.09 7.682 16.281 20.539 14.529 29.536zm-39.289-61.102-.796.239-2.866.876-3.702 1.154c0-.238 0-.477-.04-.716v-.518a54 54 0 0 0-.358-3.662c0-.119 0-.199-.04-.318 0-.279-.079-.597-.119-.876h.279l7.603 3.821zm-8.478 19.824c.955-5.573 1.353-10.947 1.194-16.002l8.319-2.588-1.672 14.808-6.607 4.976-.239.199-.876.677-.517.398c.159-.757.278-1.593.438-2.428zm-20.182 57.479-6.13-3.622c.358-.398.756-.836 1.115-1.234.119-.119.239-.239.318-.358a87 87 0 0 0 1.831-2.15 108 108 0 0 0 5.374-7.125c.119-.159.199-.279.279-.438.437-.677.915-1.353 1.353-2.03.119-.199.279-.438.398-.637l1.194-1.911c.159-.238.279-.477.438-.716.199-.358.398-.677.637-1.035l3.145 7.404-9.952 13.892zm26.312-80.049-4.936-2.468h-.836c0-.159-.08-.358-.08-.518-.039-.278-.119-.597-.159-.875-.079-.319-.119-.597-.199-.916-.04-.239-.119-.478-.159-.716l-.239-.956c-.04-.199-.119-.398-.159-.637-.08-.318-.159-.676-.279-.995-.04-.199-.119-.358-.159-.517l-.239-.836 7.484 9.474zm-12.141-16.559s0 .039.04.079c.557.995 1.114 2.03 1.632 3.145 1.552 3.423 2.667 7.324 3.383 11.544v.119c0 .159 0 .279.04.438.159.955.279 1.911.358 2.906v.318c0 .358.08.756.08 1.115 0 .278.04.557.08.836 0 .278 0 .597.039.875 0 .319 0 .637.04.956v.278c.199 5.135-.199 10.628-1.154 16.281a81 81 0 0 1-.796 4.219c-1.712 7.842-4.419 15.684-8.081 23.327a127 127 0 0 1-3.622 6.926c-4.06 7.205-8.797 13.693-14.052 19.305-5.493 5.852-11.464 10.589-17.434 13.893a39 39 0 0 1-2.548 1.313h-.04c-5.135 2.468-10.111 3.782-14.808 3.941h-1.154c-.478 0-.955 0-1.393-.04-.159 0-.358 0-.518-.04-.278 0-.597-.039-.875-.079-.199 0-.438-.04-.637-.08-.239 0-.478-.079-.717-.119-.239 0-.438-.08-.676-.12s-.438-.079-.677-.119-.478-.119-.677-.159-.438-.12-.637-.159c-.239-.08-.438-.12-.676-.199-.199-.08-.398-.12-.597-.2-.239-.079-.438-.159-.677-.238l-.597-.239c-.199-.08-.398-.159-.637-.279-.239-.119-.478-.199-.677-.318h-.08c-.915-.478-1.791-.956-2.666-1.553l-.279-.199c-8.24-5.493-13.216-16.161-14.012-30.053-.836-14.091 2.707-30.213 9.991-45.418.08-.199.2-.399.279-.598.239-.437.438-.915.677-1.353 10.031-20.022 25.077-35.308 40.522-41.08 4.22-1.592 8.28-2.348 12.141-2.348s1.194 0 1.791.04a24.6 24.6 0 0 1 7.643 1.711l.318.16 1.314.637.756.358.319.159h.079c0 .04.08.08.08.08l.119.119c.319.159.597.358.916.557.318.199.637.398.915.637 0 0 .04 0 .08.04.398.279.756.557 1.114.836 2.548 2.07 4.777 4.697 6.608 7.802zM349.29 342.791c-.239-.438-.478-.916-.717-1.354-.04-.079-.079-.199-.159-.278l-.597-1.314c-.04-.119-.08-.239-.159-.318-.199-.478-.398-.916-.558-1.393 0-.08-.079-.16-.079-.239-.438-1.155-.796-2.349-1.155-3.583v-.079a27 27 0 0 1-.437-1.712c0-.159-.08-.279-.12-.438-.079-.279-.119-.557-.199-.876l15.644-.477v-.717c-.359-6.608.239-13.613 1.791-20.898l1.194-.398-1.114-.597v-.557l-.637.239L347.14 300l-1.274.875c.04-.199.08-.437.16-.636l.238-1.075c.08-.398.199-.796.279-1.194l.358-1.433c.08-.279.16-.518.199-.797.16-.597.319-1.194.518-1.791.079-.239.159-.478.199-.716.159-.478.279-.956.438-1.433.04-.16.119-.359.159-.518a111 111 0 0 1 5.573-14.051c.04-.12.119-.199.159-.319.279-.597.557-1.154.836-1.711.199-.359.358-.717.557-1.075.239-.518.518-.995.796-1.473.08-.199.199-.358.279-.557l.915 2.309 13.574 6.846-.199.398h.995l.478.239 1.791.876-.756-1.115-.517-.756c3.821-7.205 8.319-13.773 13.374-19.545l.558-.597-12.221-8.16.08-.08-.677-.318-.557-.398v.079c-.04 0-1.354-.597-1.354-.597l-.437-.199c.199-.199.358-.398.557-.597.04-.079.119-.119.159-.199.398-.398.756-.796 1.154-1.194l.12-.119c.438-.438.836-.836 1.274-1.234 2.229-2.15 4.537-4.061 6.846-5.812.438-.318.876-.637 1.354-.955 0 0 .079-.04.079-.08.438-.318.876-.597 1.314-.915 0 0 .079-.04.119-.08.438-.279.876-.597 1.314-.876 0 0 .04 0 .079-.04 1.831-1.154 3.663-2.189 5.533-3.065l-.557 1.553 14.489 7.085-.079.836.836-.438.597.279v-.637a50 50 0 0 1 6.886-2.906c3.025-.995 6.011-1.592 8.877-1.751h.756c0-.04-.398-3.424-.398-3.424l2.11.996 5.732 2.746c-.398-.04-.796-.079-1.234-.119-4.618-.319-9.514.517-14.529 2.388-15.763 5.891-31.088 21.455-41.279 41.756-.199.398-.358.757-.557 1.155-.119.278-.279.557-.398.836-7.364 15.404-10.947 31.804-10.111 46.135.597 10.349 3.503 18.987 8.28 25.157l-.239-.239a4 4 0 0 1-.358-.398 4 4 0 0 1-.398-.478 1.7 1.7 0 0 1-.239-.278c-.159-.16-.279-.319-.438-.518-.08-.079-.119-.159-.199-.239-.159-.159-.279-.358-.438-.557-.04-.08-.119-.159-.159-.239-.159-.199-.279-.398-.438-.597-.04-.08-.08-.119-.159-.199-.159-.199-.279-.438-.438-.637 0-.04-.08-.079-.08-.159a35 35 0 0 1-1.234-2.07l.239-.318-.597-.279-.08-.159h-.238l-15.724-7.603-.238.637-.12-.239c0-.04-.04-.08-.079-.12zM159.814 246.66c-.278.438-.597.915-.875 1.353-.2.279-.359.597-.558.876-.239.398-.477.796-.716 1.154-.239.359-.438.757-.677 1.115-.199.358-.398.677-.597 1.035-.239.438-.518.836-.756 1.274-.16.318-.359.637-.518.915-.278.478-.517.916-.796 1.393-.159.279-.318.558-.478.876-.278.518-.557.995-.796 1.513a8 8 0 0 0-.398.796c-.278.517-.557 1.035-.836 1.592-.119.239-.239.478-.358.756l-.836 1.672c-.119.239-.199.438-.318.677-.279.597-.558 1.154-.836 1.751-.08.199-.199.438-.279.637l-.836 1.792a7 7 0 0 1-.239.557c-.278.637-.557 1.234-.836 1.871-.079.159-.159.358-.238.517-.279.637-.558 1.274-.797 1.951-.079.159-.119.318-.199.477-.278.677-.557 1.314-.796 1.991-.039.159-.119.278-.159.438a44 44 0 0 0-.796 2.069l-.119.359c-.279.716-.518 1.433-.797 2.109 0 .12-.079.199-.119.319-.279.716-.517 1.473-.796 2.189 0 .08-.04.159-.08.239-.278.756-.517 1.513-.796 2.269 0 .08-.04.119-.079.199a76 76 0 0 0-.757 2.309v.119a56 56 0 0 0-.756 2.388c-5.453 17.475-8.558 34.631-10.27 48.524-27.386-35.149-55.768-71.571-61.062-78.418-4.657-6.01-6.886-11.305-6.568-15.723.597-.318 1.194-.677 1.831-1.035 4.657-2.468 14.33-7.921 29.616-16.679.676 3.066 1.751 5.812 3.144 8.161l-4.418 11.344-2.23-1.035 1.792 2.15-.08.239.438.199 4.538 5.493 5.931 2.627.358.438.199-.159 2.429 1.074-1.553-1.831 9.991-8.717h.08v.04l.557.278 1.274 10.43 5.931 2.826-.079.597.835-.279.598.279.079-.518 7.802-2.468 4.219-10.986c4.26-2.07 8.559-5.334 12.46-9.434l3.622 2.11-.358.477h1.194l.398.239.159-.239h2.269l-1.592-.955 6.528-9.115-2.508-5.852c.757-1.393 1.513-2.786 2.19-4.18 2.308-4.856 4.06-9.871 5.174-14.887l6.449-4.856 1.154-10.19.717-.239-.637-.597v-.16l.079-.597-.756.239-5.851-2.945h-.398c0-.08 0-.16-.04-.239 0-.08 0-.16-.04-.239 0-.08 0-.159-.04-.239l1.911-1.115c3.105-1.791 6.249-3.622 9.354-5.413 1.155-.677 2.269-1.314 3.424-1.99 1.95-1.155 3.94-2.269 5.891-3.424v.12c.079.278.159.517.239.796.039.159.079.278.119.438.08.278.159.517.239.796.04.159.08.278.119.438.08.278.16.517.279.796.04.119.08.278.159.398.08.278.199.557.279.796.04.119.079.239.159.358.12.279.199.557.319.836l.119.358.358.836c.04.12.08.199.12.319.119.278.238.597.398.875 0 .08.079.16.119.239.12.319.279.637.438.916a.3.3 0 0 0 .08.159c.159.318.318.677.477.995v.04a65.2 65.2 0 0 0 17.754 22.291c-3.503 1.314-6.847 2.866-10.071 4.538-.796.438-1.592.836-2.389 1.314-.756.438-1.552.875-2.308 1.353-.757.478-1.513.916-2.229 1.393h-.04c-.717.478-1.473.956-2.19 1.473h-.039a40 40 0 0 0-2.11 1.513h-.04c-.716.517-1.393 1.035-2.07 1.552h-.04c-.676.518-1.353 1.075-2.03 1.632s-1.313 1.115-1.99 1.672a75 75 0 0 0-1.95 1.751c-6.966 6.409-13.017 13.733-18.192 21.615a1.8 1.8 0 0 1-.318.438zm-97.285-4.697v-.08c.08-.278.199-.597.318-.875v-.04c.12-.319.279-.597.438-.916 2.15-4.06 6.767-8.041 13.813-11.782 2.03-1.075 5.015-2.707 9.036-4.976l5.851 2.866c-14.569 8.319-24.281 13.813-28.899 16.281-.318.159-.597.318-.915.477v-.04l.239-.836zm26.232-28.501 3.105 1.592 1.791.916-.955 8.876-4.976-2.428.08-.557zm18.47 5.334c.318-2.787.876-5.692 1.632-8.598.915-3.463 2.149-6.926 3.622-10.27l.836-1.791c4.14-8.678 9.991-16.321 16.44-21.535 6.289-5.095 12.937-7.683 18.709-7.285 1.711.12 3.303.478 4.816 1.075l.836.398.955.438a15 15 0 0 1 2.787 2.03 19.7 19.7 0 0 1 3.383 4.219l.08.16c.079.119.119.199.199.318.079.159.159.279.239.438 0 .04.04.119.079.159.04.08.08.199.16.279.915 1.871 1.632 3.98 2.109 6.249v.12c.12.517.199 1.035.319 1.592v.08c.239 1.472.398 3.025.438 4.657v.239c.159 4.1-.279 8.478-1.234 13.016a66.5 66.5 0 0 1-5.135 14.848 79 79 0 0 1-2.309 4.418l-.12.199c-2.507 4.379-5.373 8.32-8.598 11.783l-.238.278c-3.981 4.26-8.36 7.603-12.698 9.633l-.12.08c-1.711.796-3.383 1.433-5.015 1.831l-.597.12c-.239.039-.438.119-.677.159l-.717.119c-.159 0-.358.08-.517.08-.239 0-.438.04-.677.079-.199 0-.358.04-.557.04h-2.15c-.278 0-.557 0-.836-.079h-.079c-.239 0-.518-.08-.756-.12h-.12c-.239-.04-.478-.079-.716-.159h-.12a5 5 0 0 1-.716-.199h-.12l-.716-.239h-.12c-.238-.08-.477-.159-.716-.279h-.08c-.239-.119-.477-.199-.716-.318a22 22 0 0 1-1.871-1.075c-2.747-1.871-4.896-4.617-6.409-8.08-2.189-5.095-2.985-11.703-2.149-19.107zm11.623 30.292c.239.08.478.159.756.239.08 0 .12 0 .199.04.239.079.438.119.677.159.08 0 .159 0 .239.04.199.04.438.079.637.119.079 0 .199 0 .279.04.199 0 .437.08.636.08h.279c.239 0 .438.039.677.039h.358l-1.393 9.076-4.817-2.309-1.074-8.757.756.358c.557.279 1.114.478 1.711.717h.12zm7.046.836c.318 0 .637-.04.955-.08h.239c.398-.039.756-.119 1.154-.199.159 0 .319-.079.478-.079.239-.04.478-.12.716-.159.199-.04.359-.08.558-.12.239-.04.438-.119.676-.199.199-.04.359-.119.558-.159.239-.08.477-.159.756-.239.239-.08.517-.199.756-.279.279-.079.518-.199.796-.318l-3.463 8.956-6.448 2.07 1.393-9.076h.876zm-32.402-2.826 4.06-10.429.557-1.433 8.16 3.94-.875 1.115-7.006 9.116-.677-.319zm14.171-6.369c.119.199.278.398.398.597l.239.358c.119.199.278.358.398.557.079.12.199.239.278.359.12.159.279.318.398.477.08.12.199.239.279.319.159.159.279.318.438.438l.318.318c.16.159.279.279.438.398.12.12.239.199.319.319.159.119.318.278.477.398.12.079.239.199.319.278.199.16.398.279.597.438.079.04.159.12.239.159l-9.673 8.439-3.583-4.259 7.762-10.071c0 .08.08.12.12.199.079.12.119.199.199.319zm-9.793 10.031.319.159 2.309 2.747-2.946-1.314-2.388-2.866 2.667 1.274zm10.43-11.703s0-.04-.04-.08v.08zm40.562-2.349c.079-.079.159-.159.199-.238.239-.279.517-.558.756-.836.119-.12.199-.239.318-.398.279-.319.558-.637.797-.956 0-.039.079-.079.119-.119a48 48 0 0 0 2.627-3.503c.12-.159.199-.279.319-.438.199-.318.437-.637.636-.955.12-.199.239-.358.359-.557l.597-.956.358-.597c.199-.318.398-.637.597-.995 0-.04.04-.08.08-.119l1.751 4.1-6.13 8.558-3.423-2.03zm16.519-33.397c.717-3.781.995-7.443.916-10.986l4.736-1.473-.995 8.957zm4.578-13.613-3.742 1.154v-.04c0-.517-.08-1.035-.119-1.552-.04-.517-.12-1.075-.199-1.592l1.472.756zm-65.879 24.719c-.079.398-.119.836-.199 1.234 0 .199-.079.438-.079.637-.08.438-.12.916-.16 1.354 0 .159-.04.318-.04.477-.079.637-.119 1.234-.159 1.831a60 60 0 0 0-.119 3.702v1.194l-6.528.199-2.667.08.995-9.076 9.235-3.144a6 6 0 0 1-.159.796c-.04.239-.08.438-.12.676zm256.429 97.564c0 .159-.04.358-.08.518-.119.676-.239 1.353-.318 2.03 0 .159-.04.318-.08.477-.079.677-.199 1.394-.278 2.07 0 .12 0 .239-.04.398-.08.717-.159 1.433-.199 2.15v.199a75 75 0 0 0-.239 9.434l-14.41.438h-.875l1.632-14.927 15.365-5.215c0 .119-.04.279-.08.398-.119.677-.279 1.354-.398 2.03m-.398-3.662-15.126 5.135-8.479-4.379 10.708-7.523zM343 314.051l1.155.597-1.473 13.415-.159 1.274-8.559-4.14 1.712-14.927 7.285 3.741zm21.137-46.573 9.673-13.852 10.867 7.245c-4.737 5.493-8.996 11.742-12.658 18.509zm-1.353.518 7.245 10.907-11.345-5.693-3.622-9.075zm6.488-16.599 1.035.477 2.229 1.035-9.513 13.614-8.28-4.14 9.155-13.574 5.374 2.548zm12.499 114.402c.199.079.358.159.558.199.238.079.477.199.756.278.199.08.398.12.637.199l.716.239c.199.08.438.12.637.159.239.08.478.12.717.199.199.04.437.08.636.12.239.04.478.119.757.159.199 0 .438.08.637.119.239 0 .517.08.756.12.199 0 .438.04.637.079.279 0 .517.04.796.08h.995l-2.309 15.206-8.239-3.941-1.792-14.648 1.831.875s.08 0 .08.04c.398.199.796.358 1.194.518m11.345 1.95h.955c.239 0 .438 0 .677-.04h.279c.636-.079 1.273-.159 1.95-.239h.199c.279-.039.517-.079.796-.119.08 0 .199 0 .279-.04.239-.04.477-.079.716-.159.08 0 .199-.04.279-.08.239-.039.478-.119.716-.159.08 0 .199-.04.279-.079.239-.08.518-.12.756-.199.08 0 .16 0 .239-.08.319-.08.597-.159.916-.279h.079a48 48 0 0 0 3.105-1.074c.04 0 .08 0 .12-.04.318-.12.597-.239.915-.359.04 0 .12-.039.159-.079.16-.08.279-.12.438-.199l-5.811 15.126-10.907 3.463 2.309-15.246h.636zm-25.993-12.579.477.598s.04.079.08.119c.159.199.279.358.438.557.04.04.079.12.119.159.12.16.279.319.438.478.04.08.12.12.159.199.12.159.279.279.398.438.08.08.12.159.199.199.12.119.239.279.398.398l.239.239.359.358c.079.08.199.199.318.279.119.079.199.199.318.278.12.12.239.2.359.319.079.08.159.159.278.239.16.119.319.239.478.398.08.04.119.119.199.159.199.159.398.318.637.478h.04c.477.358.955.676 1.433.995l-13.534 11.782-2.349 2.03-6.09-7.204 5.374-7.006 7.324-9.514a31 31 0 0 0 1.911 2.946l.039.04zm-16.639-10.667 13.653 6.607-12.857 16.679-8.359-3.941 7.523-19.345zm.597 24.759 4.816 5.732-6.289-2.787-4.936-5.971zm60.664-128.533a10 10 0 0 0-.955.398c-.199.08-.438.159-.637.279-.359.159-.677.278-1.035.437-.199.08-.398.199-.597.279-.319.159-.677.319-.995.478-.12.04-.239.119-.359.159l.279-2.946 1.353-14.967 10.947-3.582 1.552 12.658.558 4.498c-2.747.239-5.613.836-8.479 1.791-.199.08-.398.16-.597.199-.319.12-.637.239-.995.359zm-13.693-18.311.716-1.91 8.558 4.259-1.671 18.151-12.858-6.249 5.255-14.211zm10.071 1.115-7.842-3.901 10.27-3.304 7.842 3.861-9.952 3.264-.318.12zm22.171 7.404-5.413 4.697-.239-.12-1.871-.875-1.712-13.853.956-.318c2.866 3.622 5.652 7.125 8.24 10.469zm-323.501-18.271c-.08.318-.159.677-.199.995-.08.398-.159.756-.239 1.154-.08.359-.119.717-.199 1.075-.04.358-.119.717-.159 1.075-.04.398-.12.756-.159 1.154 0 .159-.04.319-.08.518-.318 2.985-.398 5.811-.239 8.518v.199c0 .358.04.717.08 1.075v.239c0 .358.079.716.119 1.074v.16c.12.836.239 1.632.398 2.388 0 .08 0 .159.04.279.04.278.119.597.199.875 0 .12.04.239.08.359.079.278.119.517.199.796 0 .119.04.199.079.318.08.319.16.597.279.916 0 .04 0 .119.04.159.119.358.239.677.358 1.035 0 .08.08.159.08.239.079.239.199.477.278.716.04.12.08.239.16.359 0 .039 0 .079.039.119h-.119c0-.04-.398-.836-.398-.836l-.319.398-9.832-4.737v.159c-.08 0-.08-.039-.119-.079a38 38 0 0 1-1.035-2.229v-.04c-.557-1.393-.995-2.866-1.353-4.419l9.951-.318v-.717c-.08-.875-.08-1.751-.08-2.667s.04-1.831.12-2.786a52 52 0 0 1 1.075-7.682l.995-.319c-.04.199-.08.358-.12.557zm-10.867-4.896 7.563 3.98-8.996 3.065-4.936-2.547 3.742-2.627 2.627-1.832zm156.317 90.438c-5.175 2.827-49.08 27.864-78.099 44.424-12.379 7.045-21.336 12.14-22.968 13.096-1.87 1.035-3.622 2.468-5.174 4.1l-15.127-19.386c2.468-20.46 7.842-48.523 19.744-74.078.08-.159.159-.279.199-.438.319-.637.597-1.274.916-1.951.159-.358.358-.716.517-1.035.199-.437.438-.875.637-1.313.318-.597.597-1.194.916-1.791.079-.199.199-.398.278-.558 11.902-22.649 29.377-42.512 55.091-51.946 11.425 8.717 25.038 13.335 39.448 13.335s25.436-3.782 36.144-10.947c15.325 6.926 28.62 18.231 39.566 33.676 9.196 13.016 16.799 29.058 22.61 47.647a104 104 0 0 0-2.826 10.987l-9.076 6.369-.517-.279-.08.717-.716.477.597.319-1.871 16.479 9.912 4.817v.318h.597l.716.358c0 .08 0 .16.04.279.079.358.159.756.239 1.115.079.278.119.517.199.796.079.398.199.756.318 1.154.08.199.12.438.199.637.12.398.239.836.358 1.234 0 .119.08.239.12.358a39 39 0 0 0 2.587 6.011c.04.119.12.199.159.318.2.398.438.757.637 1.115.08.119.12.239.199.318l-7.165 18.391-2.229-1.035 1.792 2.149-.08.239.478.199 7.125 8.598 9.314 4.14.359.438.199-.159.358.159c-2.428 11.742-14.609 22.649-34.631 31.008-21.654 8.997-50.116 13.932-80.209 13.932s-12.817-.238-19.146-.676l8.478-4.857a7386 7386 0 0 0 21.018-11.981c8.518-4.817 12.34-13.972 12.34-20.898v-76.706c0-4.1-.438-6.807-1.354-8.478l1.632.517-2.07-1.194a4 4 0 0 0-1.074-.955l.756-.239h-1.234l-2.508-1.155a4 4 0 0 0-.597-.278h-.08s-.039 0-.079-.04c-.08 0-.159-.04-.239-.08-1.752-.398-4.02.279-7.722 2.309zm-25.436 165.354c-2.905-3.742-12.061-15.485-22.888-29.417.119-.08.239-.119.318-.199 6.131-3.503 12.3-7.006 18.112-10.31.12-.079.239-.119.358-.199 7.046.558 14.251.836 21.416.836 60.664 0 110.501-19.863 116.193-45.776l.716.318-.636-.756c.159-.717.278-1.433.318-2.15l14.927-13.016 1.473.716 2.03 16.36 9.354 4.459-.079.597.836-.279.597.279.079-.518 12.261-3.901 6.607-17.156.478-.239.717-.358c.199-.119.437-.239.636-.358a3.2 3.2 0 0 1 .637-.319c.279-.159.518-.278.796-.438.16-.079.319-.199.478-.278.318-.199.677-.398.995-.597.08-.04.199-.12.279-.16 3.463-2.149 6.926-4.776 10.27-7.801.398-.359.836-.757 1.234-1.155s.796-.756 1.194-1.154l1.194-1.194c.279-.279.557-.558.796-.836l7.484 4.418h.079l11.186-15.604-3.901-9.115a107 107 0 0 0 3.463-6.688c3.662-7.642 6.369-15.484 8.12-23.366l1.871-1.393 6.09 7.723c6.25 7.881 10.549 13.374 12.181 15.404l.637.836c5.214 6.568 13.892 17.515 14.648 26.192-36.621 20.859-190.192 109.745-217.857 126.344-8.04 4.816-15.126 7.284-21.017 7.284s-7.404-1.074-10.708-3.025c-4.816-2.906-9.235-7.722-14.051-13.932zm226.177-217.738-2.667 6.727-.08-.079a1.2 1.2 0 0 0-.199-.279 14 14 0 0 0-.677-.955c-.079-.12-.199-.239-.278-.398-.199-.279-.398-.558-.637-.797-.12-.119-.199-.278-.319-.398-.199-.238-.398-.477-.636-.716-.12-.12-.239-.279-.359-.398a11 11 0 0 0-.637-.677l-.358-.358a10 10 0 0 0-.677-.637c-.119-.119-.238-.239-.358-.318-.239-.2-.478-.438-.756-.637-.12-.08-.239-.199-.358-.279l-.956-.717c-.04-.039-.119-.079-.159-.119l-.04-.04h.796l-2.746-1.274 9.911-14.927 6.17 7.285-3.98 10.071zm-11.823-22.371 8.519 4.1-5.653 8.479-4.418 6.647-.239-.119c-.079 0-.159-.08-.239-.119l-1.035-.478c-.119 0-.238-.08-.398-.12l-11.464-5.533 5.334-4.617 6.091-5.254 3.463-2.986zM290.218 97.07c9.912-5.653 18.032-8.439 24.759-8.439s16.002 4.538 24.6 15.644c7.444 9.633 56.325 71.531 96.171 121.965l-4.339 3.741c-39.925-50.553-88.846-112.531-96.37-122.203-7.483-9.673-13.096-13.415-20.062-13.415s-3.702.239-5.812.756a40 40 0 0 0-3.224.916c-1.393.478-2.906 1.035-4.418 1.712-2.11.915-4.339 2.03-6.688 3.303 0 0-.039 0-.079.04-.557.319-1.115.597-1.672.956-1.154.676-2.587 1.472-4.259 2.428-.319-.279-.677-.518-1.035-.796-.08-.04-.12-.12-.199-.16-.478-.358-.956-.676-1.433-1.035-.199-.159-.398-.278-.597-.398-.279-.199-.597-.398-.876-.597-.199-.159-.438-.278-.637-.438a2 2 0 0 1-.318-.238c2.706-1.553 4.896-2.827 6.528-3.742zm-41.557-5.055a63.37 63.37 0 0 1 33.238 9.394 60 60 0 0 1 6.408 4.498 74 74 0 0 1 4.976 4.418c.517.518 1.035 1.035 1.552 1.592 4.22 4.459 7.723 9.395 10.43 14.729a63.6 63.6 0 0 1 6.966 28.978c0 20.978-10.31 40.522-27.586 52.424l-.318.239c-10.549 7.165-22.849 10.947-35.666 10.947-12.818 0-27.665-4.578-38.891-13.295l-.318-.239c-10.787-8.439-18.669-20.341-22.212-33.477a66 66 0 0 1-1.433-6.767 63 63 0 0 1-.716-7.762v-2.03c0-35.069 28.541-63.57 63.57-63.57zm-64.923 66.873v.478c0 .239-.001.438.039.677 0 .398.08.835.08 1.234 0 .199 0 .398.04.597.04.597.119 1.194.199 1.791 0 .119 0 .239.04.358.039.398.119.796.159 1.194-1.672.995-3.384 1.951-5.056 2.946-5.493 3.184-10.986 6.369-16.4 9.514-.039-.12-.119-.2-.159-.319 0-.04-.04-.119-.079-.159l3.104-7.802c5.971-3.463 11.982-6.966 18.033-10.429zm-19.187 9.434-2.906 7.285a18 18 0 0 0-2.866-3.344c-.398-.398-.836-.717-1.274-1.075a3.7 3.7 0 0 0-.636-.438s-.04 0-.08-.039c-.199-.16-.438-.279-.637-.399h-.04l5.971-9.035 3.622 4.259-1.114 2.866zm-8.638-10.429 5.016 2.388-6.13 9.235h-.239a15 15 0 0 1-.796-.358l-6.29-3.025-.636-.319 9.075-7.841zm-12.698 8.797v.199c-.358 0-.756.08-1.114.159h-.16c-.318.04-.676.12-.995.16-.079 0-.199.039-.278.039-.279.08-.597.12-.876.199-.119 0-.239.08-.358.08-.279.08-.558.159-.796.239-.12.04-.279.08-.398.119-.239.08-.518.16-.757.239-.159.04-.278.12-.438.159-.238.08-.477.199-.716.279-.159.08-.319.119-.478.199-.239.08-.478.199-.716.318l-.478.239c-.08 0-.159.08-.199.08l.995-10.787 6.528-2.15 1.234 10.151zm-12.738-11.504 5.852-1.91 4.339 2.149-5.852 1.911-.836-.398-3.542-1.752zm2.468 2.866 1.035.518-.438 4.577-.597 6.449-7.642-3.742.955-2.627 2.667-7.205 3.981 1.99zm-21.017 16.997c3.742-3.94 7.762-7.045 11.822-9.075l-.239.597 9.315 4.538-.08.835.836-.437.558.278c-7.882 4.538-15.445 12.818-20.978 23.326l-.597-.915c2.428-4.538 5.254-8.678 8.439-12.3l.557-.597-7.842-5.215.08-.079-.717-.319-.557-.358v.08c-.04 0-.517-.239-.517-.239h-.12zm-10.549 9.076 4.26 2.11 4.06 6.09-6.29-3.145-1.353-3.343zm18.072-2.587c-2.866 3.383-5.453 7.165-7.722 11.265l-4.697-7.126 5.931-8.478zm-12.817-7.404 2.906 1.393.915.438 1.194.557-5.772 8.24-4.816-2.388zm-6.17 17.873c.438-.956.915-1.871 1.433-2.827l.398 1.035h.08c0 .04 8.916 4.538 8.916 4.538l.557.836.239-.438.876.438-.955 1.911c-.279.597-.558 1.234-.836 1.831a73 73 0 0 0-3.702 10.469c-.04.199-.12.438-.16.637l-.238.955c-.04.199-.08.358-.12.557l-.398-.199-.438-.239.08-.318h-.717l-.398-.239-6.846-3.582-2.389-1.274-.398.278c1.075-4.856 2.787-9.672 5.016-14.369m-26.67 29.934c2.707-1.433 7.085-3.862 13.415-7.444l-.518 4.657-.279 2.349c-4.657 2.627-7.841 4.378-9.911 5.453-9.195 4.896-14.49 10.23-15.684 15.803 0 .119-.04.239-.08.358v1.194l-.119 1.195h.08c0 4.537 2.348 9.792 6.886 15.683 5.374 6.926 34.432 44.224 62.137 79.811l1.075 1.393 9.872 12.658 2.507 3.224 2.031 2.627c-1.314 1.593-2.429 3.344-3.225 5.175-4.06-5.214-8.12-10.429-12.141-15.604l-1.353-1.711c-30.89-39.647-60.027-77.064-65.4-83.99-4.34-5.613-6.967-10.947-7.803-15.803-.517-3.145-.358-6.17.558-8.996.796-2.588 2.229-5.096 4.219-7.484 3.145-3.742 7.802-7.245 13.892-10.469zm39.209 139.638a84632 84632 0 0 1-63.371-81.403c-9.315-12.021-10.628-22.171-3.98-31.088.716-.995 1.591-1.95 2.507-2.906l6.449-7.523c-.12.279-.2.597-.319.876-.955 3.065-1.154 6.329-.597 9.672.876 5.096 3.583 10.629 8.08 16.44 4.618 5.931 27.069 34.79 66.755 85.702 4.18 5.374 8.439 10.827 12.658 16.281 0 .079-.04.159-.079.238l-.12.359c-.04.159-.079.318-.119.438 0 .119-.08.238-.12.358l-.119.478c0 .119-.08.238-.08.358 0 .159-.079.318-.079.477 0 .12-.04.239-.08.359 0 .159-.04.318-.08.477 0 .12 0 .239-.039.359 0 .159 0 .318-.04.517v24.202l-27.108-34.79zm30.929 98.679-.08-.08c-1.552-1.154-2.309-4.259-2.309-9.195v-76.905c0-.557 0-1.075.08-1.632.08-.796.199-1.592.398-2.388l.239-.956c.119-.477.279-.915.438-1.393.836-2.308 2.149-4.418 3.821-6.369a21.1 21.1 0 0 1 5.414-4.458c1.711-.955 11.703-6.647 24.321-13.852 28.541-16.281 71.611-40.841 76.706-43.627 1.99-1.115 3.542-1.752 4.776-2.07q1.314-.299 2.15 0h.04-.12l-.238.119h-.04c-.199.08-.359.12-.558.199h-.119c-.119.08-.239.12-.398.199l-.358.159c-.16.08-.319.12-.478.199-.199.08-.398.16-.597.279-.08.04-.199.08-.279.159-.159.08-.358.159-.517.279l-.279.159c-.278.159-.557.279-.836.438-5.174 2.826-49.08 27.864-78.099 44.423a11459 11459 0 0 1-22.968 13.057c-2.507 1.393-4.896 3.542-6.727 5.97-1.711 2.269-2.945 4.737-3.662 7.325a18.8 18.8 0 0 0-.716 5.135v79.571c.079.199.079.398.119.597v.12c0 .239.04.438.08.677v.199c.039.159.079.278.079.437l.08.597v.279c0 .08.04.159.079.239l.08.318c.04.16.08.319.119.518v.159c.08.12.12.239.16.358 0 .04 0 .12.04.16 0 .039.039.119.079.159l.12.278c0 .08.079.16.119.279v.08a1 1 0 0 0-.199-.12zm12.14-.796c-2.985 1.512-6.408 3.184-8.518 2.507l-.637-.278c-.278-.16-.477-.359-.677-.597a4.4 4.4 0 0 1-.557-.836c-.04-.08-.079-.199-.159-.319v-.119c-.08-.08-.119-.159-.159-.239l-.08-.159c0-.08-.04-.12-.079-.199v-.16l-.12-.477c0-.12-.04-.199-.08-.319l-.079-.278c0-.12-.04-.199-.08-.319v-.119l-.119-.677c0-.119 0-.239-.04-.398v-.199c0-.199-.04-.398-.08-.597v-.159c0-.159-.039-.358-.039-.557v-79.493c0-1.592.199-3.184.637-4.776.676-2.428 1.831-4.737 3.423-6.847 1.751-2.269 3.98-4.259 6.329-5.573 1.712-.955 11.703-6.647 24.321-13.852 28.541-16.281 71.611-40.841 76.706-43.627.279-.159.557-.279.836-.438a.3.3 0 0 0 .159-.08h.08a2.1 2.1 0 0 1 .517-.278h.08a.7.7 0 0 1 .199-.16c.199-.079.358-.159.557-.278.12-.04.239-.12.398-.159h.08c.079-.08.159-.08.239-.12.159-.04.278-.119.438-.159h.119c.159-.04.318-.119.478-.159h.159c.04 0 .079-.04.119-.04l.159-.04c.199-.04.359-.08.558-.119h.159l.199-.04h1.035c.119 0 .199 0 .318.079.08 0 .16.04.279.08h.08c1.552.796 2.308 3.622 2.308 8.917v76.705c0 6.329-3.622 15.166-11.623 19.664-2.229 1.234-9.394 5.334-19.306 10.987l-14.29 8.12a6581 6581 0 0 0-16.878 9.633c-.079.04-.199.12-.278.159l-6.29 3.583-.557.278c-6.17 3.503-12.141 6.887-17.554 9.952l-.717.398c-12.738 7.245-20.102 11.345-21.853 12.22zm337.673-100.231c-.239.278-.478.597-.796.955-1.831 2.03-4.26 3.901-7.205 5.533-27.307 15.365-194.531 112.173-222.753 129.09-9.275 5.573-17.356 8.28-24.72 8.28-12.578 0-21.256-7.882-30.451-19.744-2.985-3.861-12.817-16.519-27.745-35.626 5.056-2.866 10.589-6.011 16.281-9.235 13.335 17.116 21.057 27.068 23.645 30.372 9.434 12.18 18.43 20.301 31.566 20.301s9.951-1.155 15.444-3.384c3.145-1.274 6.409-2.945 9.753-4.936 0 0 .079-.04.119-.079.04 0 .08-.04.159-.08l.358-.239.319-.199c.08-.04.159-.119.279-.159l.437-.279c.08-.039.199-.119.319-.199l.199-.119c.08-.04.199-.12.279-.159l.955-.558c.08 0 .119-.079.199-.119.119-.08.199-.119.318-.199l.199-.12c.12-.079.279-.159.398-.238.16-.08.319-.199.518-.279h.08c.079-.119.199-.159.318-.239l.159-.119c.12-.08.279-.159.398-.239.12-.08.279-.159.398-.239.199-.119.359-.199.558-.318.159-.08.318-.199.517-.319.12-.079.239-.119.358-.199l.16-.079c.159-.08.318-.199.477-.279.12-.08.239-.159.398-.239l.398-.239c.08-.04.199-.119.319-.159.199-.119.398-.239.637-.358.159-.08.318-.199.517-.279l2.07-1.234c.04 0 .119-.079.199-.119l.955-.558c.12-.079.239-.119.319-.199l.836-.477c.597-.358 1.154-.677 1.751-1.035h.08q.06-.12.119-.12c.359-.199.717-.437 1.115-.636h.079c.16-.12.279-.2.438-.279.279-.159.558-.319.876-.518.199-.119.438-.238.637-.358.239-.159.478-.279.756-.438l.199-.119c.12-.08.239-.12.359-.199.318-.199.676-.398.995-.597.119-.08.238-.159.398-.239l1.074-.637c.16-.08.319-.199.478-.279l1.592-.915c.279-.159.558-.319.836-.518.16-.079.319-.199.478-.278l.438-.279c.239-.159.477-.279.716-.438l2.03-1.194c.438-.239.876-.517 1.314-.756l.239-.12a.8.8 0 0 0 .239-.159l1.234-.716c.079 0 .119-.08.199-.12l1.95-1.154 6.847-3.981 3.821-2.229c.239-.159.518-.279.756-.438.199-.119.359-.199.558-.318.199-.12.358-.199.557-.319l2.826-1.632c.319-.199.677-.398.995-.597l.199-.119c.16-.12.359-.199.518-.319l.119-.079c.398-.239.836-.478 1.234-.717.08-.04.159-.079.239-.159l3.782-2.189c.159-.08.318-.16.477-.279.597-.358 1.194-.677 1.792-1.035l.119-.08c.478-.278.995-.597 1.513-.875l.995-.597c.199-.12.398-.239.557-.319l11.583-6.727s.08-.04.12-.08l8.28-4.816 2.627-1.513c.557-.318 1.074-.637 1.632-.955l.716-.398c1.155-.677 2.309-1.314 3.424-1.99l3.065-1.792c.636-.358 1.313-.756 1.95-1.114l3.782-2.189c1.751-1.035 3.502-2.031 5.294-3.066l2.428-1.393c.08-.04.159-.079.279-.159l2.03-1.194c.238-.12.438-.279.676-.398.359-.199.677-.398 1.035-.597l2.707-1.553c.159-.079.358-.199.518-.278l6.448-3.742c.239-.159.518-.279.756-.438l1.632-.955.598-.359.238-.119c.239-.159.518-.279.757-.438l.477-.278c.558-.319 1.115-.637 1.672-.996l9.753-5.652c.517-.279 1.035-.597 1.552-.876.119-.079.239-.159.358-.199l.279-.159c.517-.318 1.035-.597 1.552-.916l.558-.318c.437-.239.836-.478 1.273-.756l1.075-.597.518-.319c.278-.159.597-.358.875-.517l1.871-1.075c.319-.199.637-.358.956-.557l1.512-.876c.239-.119.438-.239.677-.398l.995-.557c.279-.16.597-.319.876-.518.358-.199.676-.398 1.035-.597l1.313-.756c.08-.04.16-.12.239-.159l.677-.399c.358-.199.716-.398 1.035-.597l.159-.079c.08 0 .119-.08.199-.12.518-.318 1.035-.597 1.552-.915l.239-.12c.12-.079.239-.119.359-.199l.398-.238c.318-.199.636-.359.955-.558l.756-.438a515 515 0 0 0 6.807-3.94l2.747-1.593c.915-.517 1.831-1.074 2.746-1.592l4.06-2.348c.319-.199.637-.359.956-.558l.637-.398 1.074-.597 1.831-1.035c.199-.119.359-.199.558-.318.358-.199.756-.438 1.114-.637l1.553-.916c4.975-2.866 9.633-5.533 13.892-8.001l4.259-2.468c.319-.199.637-.358.955-.557l.16-.079c.04 0 .119-.08.159-.08l.398-.199c.279-.159.517-.279.756-.438 1.234-.716 2.428-1.433 3.583-2.07 1.512-.876 2.945-1.672 4.259-2.428 2.866-1.632 5.254-2.985 7.125-4.06l.359-.199c.318-.199.636-.358.915-.518.398-.239.836-.477 1.234-.716l-7.205 8.359zm12.379-14.33c-1.831 1.95-4.219 3.741-7.085 5.373l-.358.199-.16.12c-.238.159-.517.278-.796.438-1.871 1.035-4.259 2.428-7.125 4.06-1.313.756-2.746 1.552-4.259 2.428-.398.239-.836.478-1.234.716-.358.2-.756.438-1.154.637-.398.239-.757.438-1.155.677l-.199.119c-.358.2-.716.399-1.035.598-.04 0-.119.079-.119.079-.358.199-.756.438-1.115.637l-4.299 2.468c-4.538 2.587-9.553 5.493-14.927 8.598l-.517.279c-.359.199-.757.438-1.115.637-.119.039-.199.119-.318.159l-2.07 1.194-1.075.597c-.199.12-.438.239-.637.398-.318.199-.637.358-.955.557l-.518.319c-.358.199-.756.438-1.114.637l-2.389 1.393c-1.791 1.035-3.582 2.07-5.453 3.145h-.08c-2.229 1.313-4.498 2.627-6.806 3.98l-.757.438c-.477.279-.915.518-1.393.796-.199.12-.358.199-.557.319-.518.318-1.035.597-1.592.915-.08.04-.16.08-.239.159l-.12.08c-.557.318-1.154.677-1.751.995l-.239.12c-.438.238-.876.517-1.314.756l-.278.159c-.239.159-.518.279-.757.438-.318.199-.636.358-.955.557l-1.234.717c-.318.199-.637.358-.955.557l-.876.518c-.318.199-.637.358-.955.557-.518.278-1.035.597-1.553.876l-2.866 1.671c-.398.239-.796.478-1.234.717l-.557.318c-.478.279-.955.558-1.393.796l-.796.478c-.438.279-.876.518-1.354.796l-12.857 7.444c-.199.119-.398.239-.637.358l-1.114.637c-.239.159-.478.279-.757.438-.239.119-.477.279-.716.398l-3.145 1.791c-.199.12-.438.239-.637.358l-2.707 1.553c-.159.079-.318.199-.517.279-.159.079-.318.199-.478.278l-2.229 1.274c-.358.199-.676.398-1.035.597l-.398.239c-.239.119-.438.279-.677.398l-1.751.995c-.08.04-.159.08-.279.159l-12.061 7.006c-.398.239-.836.478-1.234.717l-.278.159a499 499 0 0 0-6.21 3.622c-.239.12-.478.279-.717.398l-.477.279c-.398.239-.796.438-1.155.677l-10.946 6.329c-.04 0-.08.039-.159.079-2.11 1.234-4.18 2.428-6.25 3.623l-1.831 1.035c-.438.238-.836.477-1.274.716l-.398.239c-.278.159-.517.318-.756.438l-.279.159-.836.478-1.751 1.035c-.438.238-.876.517-1.314.756l-1.95 1.154c-.159.08-.279.16-.438.239-.438.279-.916.518-1.353.796l-.478.279c-.358.199-.717.438-1.115.637l-.557.318a.9.9 0 0 0-.239.159l-.239.12c-.438.278-.915.517-1.353.796l-.717.398c-.398.239-.756.438-1.154.677-.239.159-.517.278-.756.438l-3.304 1.91c-.159.08-.319.159-.438.279l-2.946 1.712-.836.477-6.886 4.021c-.199.119-.398.238-.637.358h-.079c-.359.239-.757.478-1.115.677-.08 0-.119.079-.199.119l-1.552.916c-.12.079-.239.159-.359.199-.438.238-.875.517-1.313.756l-1.433.836-.597.358c-.199.119-.438.239-.637.358l-.518.319c-.159.079-.318.199-.517.278l-.358.199c-.16.08-.319.199-.478.279l-.239.159c-.119.08-.239.159-.358.199l-1.553.916a3.4 3.4 0 0 0-.637.398l-.796.478c-.318.199-.637.358-.955.557-.08.04-.199.119-.279.159-.079.04-.199.119-.278.159-.239.16-.478.279-.757.438-.199.12-.437.239-.637.358h-.079a9 9 0 0 1-.796.518c-.159.079-.358.199-.518.279-.358.238-.756.437-1.114.636h-.08q-.06.12-.119.12l-.836.477c-.597.359-1.194.677-1.752 1.035-.119.08-.239.12-.358.199l-.398.239c-.199.12-.358.199-.517.319-.08 0-.12.079-.199.119l-.239.159c-.239.12-.478.279-.717.398-.199.12-.398.239-.557.319l-.279.159c-.119.08-.199.12-.318.199l-.757.438c-.119.08-.238.159-.358.199-.159.08-.318.199-.477.279l-.16.079c-.159.08-.278.16-.438.239l-.995.597c-.159.12-.358.199-.517.319l-.717.398c-.079.04-.159.079-.238.159-.12.08-.239.119-.359.199l-.239.119c-.119.08-.238.12-.358.199-.159.12-.358.239-.517.319h-.04c-.119.119-.239.159-.358.239l-.16.079c-.119.08-.238.16-.358.199l-.358.199c-.159.08-.319.199-.478.279-.119.08-.239.119-.318.199-.159.08-.279.159-.398.239h-.04a2 2 0 0 0-.318.239l-.797.477-.597.359s-.079.039-.119.039-.12.04-.159.08c-3.304 1.951-6.489 3.583-9.554 4.856-5.334 2.19-10.309 3.304-14.887 3.304-12.579 0-21.256-7.881-30.452-19.743-2.945-3.782-12.14-15.604-23.485-30.213l5.016-2.866c11.344 14.569 20.181 25.953 23.007 29.576 4.976 6.408 9.554 11.384 14.609 14.37 3.463 2.03 7.125 3.144 11.305 3.144 6.17 0 13.494-2.508 21.774-7.483 27.784-16.679 182.35-106.122 218.255-126.543l.398-.239c1.672-.955 3.105-1.751 4.259-2.428.716-.398 1.393-.836 2.07-1.274 2.627-1.751 4.498-3.662 5.612-5.771.558-.996.916-2.031 1.115-3.105 1.911-9.673-8.558-22.849-14.808-30.73l-.676-.836c-2.389-3.026-10.748-13.614-22.451-28.382l-.278-.358v-.358l.676-.199.637-.199 1.99-.637h-3.104l.079-.558-.756.239-1.274-.637-12.26-15.524v-.079c-.438-.996-.955-1.951-1.433-2.827 0 0 0-.039-.04-.079l2.15-5.454c20.818 26.352 37.099 46.931 40.562 51.31l.716.916c8.598 10.867 22.968 28.978 12.778 42.432l-.239.319-1.075 1.234z"/>
    <path fill="#fff" d="M255.668 323.803c-1.074-.597-2.348-.477-3.662.279l-60.544 34.79c-4.22 2.468-4.22 6.887-4.22 8.32 0 1.711.756 3.264 1.911 3.941.398.238.876.358 1.353.358.478 0 1.115-.159 1.712-.478l.358-.199 60.186-34.591c.12-.08.239-.12.319-.199.438-.279.836-.518 1.194-.756 0 0 .08-.04.12-.08l.358-.239c.119-.08.239-.159.318-.279 0 0 .08-.039.08-.079 1.791-1.473 2.508-3.065 2.587-5.454v-.636c0-2.19-.796-3.901-2.11-4.658zm.677 5.056c-.04 2.189-.597 3.622-2.985 5.294a13 13 0 0 1-1.354.836l-.358.199-60.186 34.591c-.597.358-1.155.398-1.593.12-.716-.399-1.194-1.513-1.194-2.707 0-2.349.398-5.255 3.503-7.086l60.584-34.79c.399-.239.876-.478 1.394-.478s.517.04.796.199c.876.478 1.393 1.792 1.393 3.384zm-102.502 44.98c.12.12.279.199.398.279.398.239.876.358 1.354.358h.636v.199l95.335-54.255c3.861-2.229 5.056-4.021 5.056-7.762v-.478c-.12-1.95-.876-3.463-2.07-4.14a3.3 3.3 0 0 0-2.229-.318c-.478.079-.956.278-1.473.597h-.08c0 .04-94.14 53.658-94.14 53.658-4.18 2.428-4.22 6.727-4.22 8.16v.159c0 1.473.557 2.866 1.473 3.623zm3.463-10.708 94.3-53.658c.279-.159.637-.358 1.035-.438h.319c.278 0 .597 0 .875.199.836.478 1.354 1.672 1.393 3.185v.239c0 2.786-.636 4.378-4.338 6.488l-94.26 53.658a2 2 0 0 1-.757.279c-.398.079-.756 0-1.074-.319-.598-.477-.956-1.472-.956-2.547v-.159c0-2.11.398-5.096 3.503-6.927zm18.669 69.979.079-.08c.518-.597.996-1.234 1.394-1.91.119-.199.238-.438.358-.637v-.04c.119-.199.199-.438.318-.637v-.04c.478-1.074.836-2.149.995-3.184l.12.119V375.79c0-2.866-1.035-4.06-1.911-4.618a3.6 3.6 0 0 0-1.154-.398c-.796-.119-1.831 0-3.145.717l-.876.438a775 775 0 0 0-12.379 6.767c-.04 0-.08.039-.12.079h-.079q-3.642 2.09-5.493 4.777c-1.433 2.07-2.07 4.339-2.07 7.205v48.324c0 2.508 1.074 3.702 1.95 4.219.597.359 1.354.558 2.15.558s1.154-.08 1.751-.239c.637-.159 1.314-.438 1.99-.796 2.747-1.473 7.205-3.901 10.629-5.852 1.114-.637 2.149-1.234 2.945-1.751.239-.12.438-.279.677-.438 0 0 .04 0 .08-.04.199-.119.358-.279.557-.438.04 0 .079-.079.119-.119.159-.12.319-.279.478-.438l.119-.119c.16-.16.319-.319.438-.478zm-21.177 8.917c-1.035-.637-1.274-1.991-1.274-2.986v-48.324c0-2.548.597-4.578 1.831-6.369 1.115-1.592 2.787-3.065 5.056-4.299l.199-.119c4.657-2.588 9.712-5.374 13.175-7.165.399-.2.916-.438 1.394-.518h.915c.08 0 .159 0 .239.04h.08c.079 0 .199.079.278.119.757.478 1.194 1.672 1.194 3.384v49.239c0 2.866-1.87 7.006-5.015 8.917a169 169 0 0 1-2.946 1.712c-3.383 1.91-7.841 4.338-10.628 5.851-.677.358-1.313.637-1.95.756-.995.239-1.871.16-2.548-.199zm100.87-65.441a3 3 0 0 0-1.194-.359l1.473-1.632-64.525 37.06c-1.592.915-2.747 2.229-3.424 3.821 0 .04 0 .08-.039.119l-.239.597c0 .04 0 .12-.04.16-.08.239-.119.477-.199.676v.12a14.4 14.4 0 0 0-.239 2.746c0 1.513.557 2.866 1.473 3.663.04.039.119.079.199.119s.159.119.239.159c.398.239.876.358 1.353.358.478 0 1.115-.159 1.712-.477l60.544-34.79h.08v-.04c.159-.08.319-.199.478-.279.04 0 .079-.04.119-.08 3.304-2.03 4.339-3.861 4.339-7.324s-.796-3.901-2.11-4.657zm-65.958 45.975s-.079-.039-.079-.079c-.558-.518-.916-1.473-.916-2.508s.08-1.712.239-2.468c.119-.517.239-.995.438-1.473.557-1.353 1.512-2.388 2.826-3.144l56.604-32.522-.239.279 4.219-2.548c.08-.079.199-.119.279-.159 0 0 .08 0 .119-.04.04 0 .12-.039.16-.079.517-.199 1.074-.279 1.632 0 .875.477 1.393 1.791 1.393 3.383 0 2.787-.637 4.379-4.339 6.528l-60.545 34.791c-.597.358-1.154.398-1.592.119-.04 0-.119-.08-.159-.119z"/>
    <path fill="#fff" d="M240.543 336.024a1.25 1.25 0 0 0-1.234.04L196 361.181l-1.074.637c-.677.398-1.035 1.075-1.035 1.99 0 .12 0 .239.039.359 0 .119.08.199.12.318.04.08.119.199.199.279.079.079.159.159.239.199.159.079.358.159.557.159s.398-.04.597-.159l.358-.199 28.422-16.48 15.643-9.076c.836-.477 1.155-.995 1.155-1.87s-.239-1.115-.677-1.354zm-45.219 27.466v-.159c0-.04 0-.08.039-.12 0 0 .04-.079.08-.079 0 0 .08-.04.119-.08l4.22-2.428 39.925-23.167c0 .199-.04.318-.478.557l-43.985 25.516zm56.124-34.87c-.08 0-.159-.04-.239-.08h-.796c-.199 0-.358.08-.557.12-.04 0-.08 0-.12.04 0 0-.04 0-.079.039 0 0-.08 0-.08.04-.08 0-.119.08-.199.12h-.04c-.079 0-.119.079-.199.119a8 8 0 0 0-.597.557l-.08.08c-.039.04-.079.119-.119.159 0 0-.04.08-.08.119 0 .04-.079.12-.079.16s-.08.119-.08.159-.04.08-.079.119c-.04.12-.12.199-.16.319-.159.438-.278.876-.318 1.274v.597c0 .199 0 .199.04.278.159.876.676 1.553 1.433 1.871l.358.12h.04c.119 0 .278.039.438.039.318 0 .637-.079.955-.199.836-.358 1.513-1.114 1.911-2.07.039-.119.079-.199.119-.318.518-1.632 0-3.224-1.314-3.742zm-2.389 2.627c.04-.119.12-.239.16-.318.079-.12.119-.199.199-.319.159-.199.318-.358.517-.477 0 0 .04 0 .08-.04h.04s.079 0 .119-.04h.318c.08 0 .2 0 .279.04.557.239.756 1.074.478 1.95 0 .08-.04.199-.08.279-.239.597-.676 1.075-1.154 1.274-.159.079-.438.159-.677 0-.159-.08-.279-.16-.358-.319-.279-.438-.319-1.194 0-1.91zm-59.907 58.077c.398.239.876.358 1.354.358.477 0 1.114-.159 1.711-.478l.358-.199 22.451-12.897 37.776-21.694.358-.199c.199-.119.358-.239.557-.318.08-.04.159-.08.239-.16.08-.079.199-.119.279-.199.159-.119.318-.199.437-.318 2.349-1.752 3.145-3.503 3.145-6.489v-.039c0-2.19-.796-3.901-2.11-4.658-1.074-.597-2.348-.477-3.662.279l-60.544 34.79c-4.22 2.468-4.22 6.887-4.22 8.32 0 1.711.757 3.264 1.911 3.94zm3.025-11.027 60.585-34.79c.398-.239.875-.477 1.393-.477.517 0 .517.039.796.199.876.477 1.393 1.791 1.393 3.383v.199c0 2.428-.597 3.981-3.463 5.812-.278.159-.557.358-.836.517l-.358.199-60.186 34.591c-.597.359-1.155.399-1.593.12-.716-.398-1.194-1.513-1.194-2.707 0-2.149.359-5.254 3.503-7.085z"/>
    <path fill="#fff" d="M193.852 381.96c0 .119 0 .238.04.358 0 .119.08.239.12.318s.119.199.199.279c.079.08.159.159.238.199.16.08.359.159.558.159s.398-.04.597-.159l.358-.199 28.182-16.36 15.843-9.195c.836-.478 1.155-.996 1.155-1.871 0-.876-.239-1.115-.677-1.354a1.25 1.25 0 0 0-1.234.04l-43.309 25.118-1.075.637c-.676.398-1.035 1.074-1.035 1.99zm1.513-.438c0-.04 0-.08.04-.12 0 0 .04-.079.079-.079 0 0 .08-.04.12-.08l16.758-9.713 27.426-15.882c0 .199-.04.318-.478.557l-43.985 25.516c0-.04 0-.12.04-.159zm53.536-28.541c.278.12.557.159.836.159h.358c.199 0 .398-.079.597-.159h.08c.079-.04.199-.079.278-.159 0 0 .04 0 .08-.04.04 0 .119-.079.159-.119.12-.12.279-.239.398-.359.04-.039.08-.119.159-.159l.08-.079c.04-.04.08-.12.119-.16 0-.039.04-.079.08-.119 0-.04.08-.08.08-.159 0-.04.079-.12.079-.159s.04-.08.08-.12c.04-.119.119-.199.159-.318.04-.12.08-.199.12-.319.517-1.632 0-3.224-1.314-3.742a.6.6 0 0 1-.239-.079h-.597c-.279 0-.557.04-.796.159-.04 0-.08 0-.119.04h-.08s-.08 0-.12.04c-.039 0-.119.079-.159.079 0 0-.04 0-.079.04-.04 0-.12.08-.16.12l-.039.039c-.12.08-.239.199-.359.319-.039.04-.079.119-.119.159 0 0-.04.08-.08.08 0 .039-.079.119-.119.159 0 .04-.04.079-.08.119 0 .04-.079.08-.079.159 0 .04-.08.12-.08.16 0 .039-.04.079-.08.119-.039.12-.119.199-.159.319-.716 1.711-.199 3.542 1.194 4.1zm.159-3.582c.04-.12.119-.239.159-.359.08-.119.12-.199.199-.318.16-.199.319-.358.518-.478 0 0 .04 0 .079-.04h.04s.08 0 .08-.039h.597c.557.238.756 1.074.478 1.95 0 .08-.04.199-.08.279-.04.119-.119.239-.159.358-.08.119-.12.199-.199.318-.16.2-.319.359-.518.478h-.079s-.08.04-.12.04h-.517c-.04 0-.12 0-.16-.04-.159-.079-.278-.159-.358-.318-.239-.359-.318-.956-.159-1.553 0-.119.08-.239.119-.358zm-59.906 56.882c.398.239.875.358 1.353.358s1.115-.159 1.712-.477l60.544-34.791c.12-.079.199-.119.319-.199.398-.278.796-.517 1.154-.756.08-.04.119-.08.199-.159.08-.08.159-.12.239-.199.159-.12.279-.239.438-.359 1.95-1.592 2.627-3.303 2.627-6.05v-.08c0-2.189-.796-3.901-2.11-4.657-.756-.438-1.672-.478-2.587-.199v-.119l-.955.557s-.08 0-.12.04l-60.544 34.79c-4.22 2.468-4.22 6.886-4.22 8.319 0 1.712.756 3.264 1.911 3.941zm-.478-4.379c.04-1.91.478-4.338 2.627-6.05.279-.199.557-.398.876-.597l59.47-34.154 1.074-.636c.598-.359 1.433-.677 2.19-.239.875.477 1.393 1.791 1.393 3.383v.398c-.04 2.19-.597 3.662-3.065 5.334-.358.239-.756.478-1.234.757l-.358.199-60.187 34.591c-.597.358-1.154.398-1.592.119-.716-.398-1.194-1.512-1.194-2.707v-.437z"/>
    <path fill="#fff" d="M193.851 398.917c0 .12 0 .239.039.358 0 .12.08.199.12.319a1.2 1.2 0 0 0 .199.278c.079.08.159.16.239.2.159.079.358.159.517.159.199 0 .398-.04.597-.159l44.384-25.715s.079-.04.119-.08l.239-.159c.119-.119.199-.199.318-.278 0 0 .08-.04.08-.08v-.04c.04-.04.08-.119.119-.159v-.04c0-.08.08-.119.08-.199v-.04c0-.079.04-.119.08-.199v-.597c0-.597-.239-1.114-.677-1.353a.3.3 0 0 1-.159-.08v-.517l-1.035.597-44.384 25.754c-.676.398-1.035 1.075-1.035 1.99zm45.896-26.311c0 .119 0 .199-.16.318-.079.08-.159.119-.318.199l-.358.199-43.627 25.277c.039-.239.119-.359.318-.478l43.349-25.117.835-.478zm9.154-2.707c.119.039.278.079.398.119.119 0 .279.04.438.04h.358c.199 0 .398-.08.597-.159h.08c.079-.04.199-.08.278-.16 0 0 .04 0 .08-.039.04 0 .119-.08.159-.12.12-.119.279-.239.398-.358.04-.04.08-.12.159-.159l.08-.08c.04-.04.08-.119.119-.159 0-.04.04-.08.08-.12 0-.039.08-.079.08-.159 0-.04.079-.119.079-.159s.04-.08.08-.119c.04-.12.119-.199.159-.319.04-.119.08-.199.12-.318.517-1.593 0-3.185-1.274-3.742h-.04c-.08 0-.159-.04-.239-.08h-.597c-.279 0-.557.04-.796.16-.04 0-.08 0-.119.039h-.08c-.04 0-.08 0-.12.04-.039 0-.119.08-.159.08 0 0-.04 0-.079.04-.04 0-.12.079-.16.119l-.039.04c-.12.079-.239.199-.359.318-.039.04-.079.12-.119.159 0 0-.04.08-.08.08 0 .04-.079.12-.119.159 0 .04-.04.08-.08.12 0 .04-.079.079-.079.159 0 .04-.08.119-.08.159s-.04.08-.08.12c-.039.119-.119.199-.159.318-.716 1.712-.199 3.543 1.194 4.1zm.159-3.543c.04-.12.119-.239.159-.358.08-.12.12-.199.199-.319.16-.199.319-.358.518-.477 0 0 .04 0 .079-.04h.08s.08 0 .08-.04h.358c.079 0 .199 0 .278.04.558.239.757 1.035.518 1.91 0 .12-.08.199-.119.319-.04.119-.12.239-.16.358-.079.12-.119.199-.199.319a1.9 1.9 0 0 1-.517.477h-.08s-.079.04-.119.04h-.557c-.04 0-.12 0-.16-.04-.159-.079-.278-.159-.358-.318-.239-.358-.318-.956-.159-1.553 0-.119.079-.238.119-.358zm-55.209 50.195c0 .119 0 .239.039.358 0 .12.08.199.12.319a1.2 1.2 0 0 0 .199.278c.079.08.159.16.239.199.159.08.358.16.517.16.199 0 .398-.04.597-.16l44.384-25.714s.079-.04.079-.08l.279-.159c.119-.119.199-.199.318-.279l.08-.079v-.04c.04-.04.08-.12.119-.159v-.04c0-.04.08-.12.08-.199v-.04c0-.08.04-.119.08-.199v-.597c0-.597-.239-1.115-.677-1.353a.3.3 0 0 1-.159-.08v-.518l-1.035.598-44.384 25.754c-.676.398-1.035 1.075-1.035 1.99zm45.896-26.312c0 .12 0 .199-.16.319-.079.079-.159.119-.318.199l-.358.199-43.627 25.277c.039-.239.119-.359.318-.478l43.349-25.118.835-.477zm9.155-2.667c.119.04.278.08.398.12.119 0 .278.039.437.039h.359c.199 0 .398-.079.597-.159h.079c.08-.04.199-.079.279-.159 0 0 .04 0 .08-.04.039 0 .119-.079.159-.119.119-.12.279-.239.398-.358.04-.04.08-.12.159-.16l.08-.079c.04-.04.079-.12.119-.16 0-.039.04-.079.08-.119 0-.04.079-.08.079-.159 0-.04.08-.12.08-.159s.04-.08.08-.12c.039-.119.119-.199.159-.318.04-.12.079-.199.119-.319.518-1.592 0-3.184-1.274-3.741h-.039c-.12-.04-.239-.08-.398-.12h-.558c-.119 0-.238 0-.318.04h-.08c-.119 0-.239.08-.358.119h-.159s-.08 0-.12.04c-.039 0-.119.08-.159.08 0 0-.04 0-.079.04-.04 0-.12.079-.16.119l-.039.04c-.12.079-.239.199-.359.318-.04.04-.079.12-.119.159 0 0-.04.08-.08.08 0 .04-.079.12-.119.159 0 .04-.04.08-.08.12 0 .04-.079.079-.079.159 0 .04-.08.119-.08.159s-.04.08-.08.12c-.039.119-.119.199-.159.318-.716 1.712-.199 3.543 1.194 4.1zm.159-3.542c.04-.12.119-.239.159-.359.08-.119.119-.199.199-.318.159-.199.318-.358.517-.478 0 0 .04 0 .08-.04h.08s.079 0 .079-.039h.359c.079 0 .199 0 .278.039.558.239.757 1.035.518 1.911 0 .119-.08.199-.12.318-.04.12-.119.239-.159.359-.08.119-.119.199-.199.318a2 2 0 0 1-.517.478h-.08s-.08 0-.119.04h-.558c-.04 0-.119 0-.159-.04-.159-.08-.279-.159-.358-.319-.239-.358-.319-.955-.159-1.552 0-.119.079-.239.119-.358zM353.393 62.16l16.837 57.559.08.239 9.275 6.29.637 2.149.398-1.433.836.557-.518-1.711 6.449-22.729 22.57 18.27 12.101-17.395-21.973-18.748L419.43 72.35l2.23.16-1.155-.836.916-.597-1.911-.12-8.24-6.01-57.041-3.901-1.513-1.035.279.955-1.593-.12 1.951 1.354zm18.151 56.883-16.28-55.609 2.547 1.752 4.896 3.343 5.493 18.709 10.788 36.86-7.444-5.015zm26.192-33.994 22.451 19.106-10.469 15.047-23.048-18.669-6.448 22.649-10.549-35.984-5.413-18.39 52.822 3.343-19.346 12.858zm-41.159-22.45 54.176 3.701 6.09 4.419-53.3-3.344-4.816-3.304zm78.616 226.215c0-.199 0-.438-.079-.637-.757-6.09-3.185-11.066-7.205-13.852-.159-.119-.358-.199-.518-.318l-.358-.239a12 12 0 0 0-1.393-.916l-1.513-.756h-.039c-2.628-1.075-5.533-1.274-8.519-.677-.079 0-.159.04-.239.04-.278.08-.557.119-.875.199-8.598 2.269-17.754 10.787-23.565 22.888-8.001 16.759-6.608 34.273 3.184 39.886.358.278.756.517 1.115.756 0 0 .079.04.119.08.159.079.279.159.438.238h.04c.159.08.318.16.517.279 1.831.876 3.821 1.274 5.891 1.274 9.713 0 21.257-9.275 28.063-23.486 4.021-8.399 5.653-16.957 5.096-24.162 0-.238-.04-.437-.08-.676zm-7.642 26.829c-.16.319-.359.637-.518.956-.079.119-.119.239-.199.358-.159.318-.358.597-.557.916-.08.119-.12.199-.199.278a51 51 0 0 1-2.03 3.065s-.04.08-.08.12l-.597.836c-.08.119-.159.238-.239.318-.199.239-.398.517-.597.756-.079.12-.199.239-.279.359l-.597.716a2 2 0 0 1-.278.318c-.677.797-1.393 1.553-2.07 2.269l-.279.279a8 8 0 0 1-.597.557l-.358.359c-.199.159-.398.358-.557.517-.12.119-.279.239-.398.358-.199.16-.359.319-.558.478a2.7 2.7 0 0 1-.398.318c-.199.16-.358.319-.557.478-.119.12-.279.199-.438.319-.318.238-.637.477-.995.716l-.478.358c-.159.12-.358.239-.517.319-.159.119-.319.199-.518.318-.159.12-.318.199-.517.319-.159.119-.358.199-.518.318-.159.08-.318.199-.477.279-.199.119-.398.199-.597.318-.12.08-.279.159-.398.199-.319.159-.637.319-.956.438-.119.04-.239.08-.358.159-.239.08-.438.199-.677.279-.119.04-.278.08-.398.159a3 3 0 0 1-.637.199c-.119.04-.278.08-.398.12-.199.079-.438.119-.637.159-.119 0-.238.079-.358.079a6 6 0 0 1-.796.16h-.199c-.318.039-.677.119-.995.159h-.239c-.239 0-.517.04-.756.04h-1.234c-.319 0-.637 0-.916-.08h-.079c-.279 0-.558-.08-.836-.119h-.16a10 10 0 0 1-1.791-.518c-.04 0-.079 0-.159-.04-.279-.119-.557-.238-.876-.358a10.8 10.8 0 0 1-1.99-1.234c-8.001-6.09-8.598-22.052-1.353-37.178 3.741-7.882 9.115-14.45 15.046-18.51 2.229-1.513 4.458-2.627 6.608-3.344 3.463-1.114 6.767-1.114 9.673 0l1.433.677c4.339 2.468 7.045 7.722 7.563 14.728.557 7.165-1.194 15.445-4.936 23.286a40 40 0 0 1-1.155 2.309c-.039.12-.119.199-.159.319zm-19.346-39.606c.12-.08.239-.16.319-.199.318-.199.636-.398.955-.558-.08.04-.199.12-.279.199-.159.12-.358.199-.517.319a6 6 0 0 0-.637.438c-.159.119-.358.239-.518.358-.238.159-.437.318-.676.478l-.478.358c-.239.159-.438.358-.677.517-.159.12-.278.239-.438.359l-.716.597c-.119.119-.239.199-.358.318a37 37 0 0 0-2.588 2.468c-.119.119-.199.239-.318.319-.239.238-.438.477-.677.716-.119.159-.278.318-.398.478l-.597.716c-.159.159-.279.358-.438.518l-.597.716c-.159.199-.318.398-.438.557-.199.239-.358.478-.557.757-.159.199-.319.398-.438.637-.159.238-.358.517-.517.756s-.319.438-.438.677c-.16.238-.319.517-.478.756s-.318.478-.438.716c-.159.239-.318.518-.477.757-.16.278-.319.517-.478.796a7 7 0 0 0-.398.716c-.159.319-.358.637-.518.956a5 5 0 0 0-.318.637 20 20 0 0 0-.796 1.632c-.199.438-.398.875-.597 1.353-.08.119-.12.279-.199.398-.16.319-.279.637-.398.955-.08.16-.12.279-.199.438-.16.359-.279.717-.438 1.115 0 .08-.08.159-.08.239l-.478 1.313c-.039.12-.079.239-.119.398-.119.319-.199.637-.318.956-.04.159-.08.318-.16.438-.119.318-.199.676-.278.995 0 .119-.08.239-.12.358l-.358 1.314c0 .119-.04.199-.08.318-.079.358-.159.677-.238 1.035 0 .159-.08.279-.08.438-.08.318-.119.637-.199.955 0 .12-.04.279-.08.398l-.239 1.314v.159c-.039.398-.119.756-.159 1.154 0 .12 0 .279-.04.398 0 .319-.079.637-.119.916v.318c.438-5.771 2.11-11.941 4.936-17.872 3.742-7.882 9.115-14.45 15.047-18.51.039 0 .079-.04.119-.08.279-.199.597-.398.876-.557z"/>
    <path fill="#fff" d="M421.698 284.197h-.039l-.558-.279-.477-.239h-.04c-.438-.199-.876-.318-1.353-.438-6.887-1.592-15.724 4.817-20.699 15.286-4.976 10.429-4.459 21.535 1.233 25.834.478.358.996.676 1.513.955 1.234.597 2.548.876 3.941.876 3.821 0 8.12-2.15 11.862-5.891 2.587-2.548 4.936-5.812 6.767-9.633.04-.12.119-.239.159-.359v-.079h.04c5.055-10.947 4.06-22.291-2.349-25.993zm.558 26.431c-.12.239-.239.438-.359.677-.039.119-.119.199-.159.318-.119.199-.239.438-.358.637-.08.119-.119.199-.199.318l-.358.597c-.08.12-.12.239-.199.359-.12.199-.239.358-.359.557l-.238.358c-.12.159-.239.319-.319.518l-.239.358c-.119.159-.238.318-.318.478-.08.119-.199.238-.279.358-.119.159-.199.278-.318.438-.12.119-.199.238-.319.398-.119.119-.199.239-.318.398-.12.119-.239.278-.319.398-.079.119-.199.239-.278.358-.12.12-.239.279-.358.398-.08.12-.199.199-.279.319l-.398.398-.279.278c-.159.12-.278.279-.438.398l-.238.239a4 4 0 0 0-.438.398c-.08.08-.16.12-.199.199-.16.12-.319.279-.478.398-.08.04-.119.12-.199.16-.159.119-.358.278-.518.398-.039.039-.119.079-.159.119-.199.119-.358.279-.557.398-.04 0-.08.08-.119.08-.199.119-.398.278-.598.398 0 0-.079.04-.119.079-.199.12-.438.239-.637.359h-.079c-.239.119-.438.238-.677.358-3.065 1.512-6.09 1.831-8.638.597a6.2 6.2 0 0 1-1.274-.796c-5.175-3.901-5.493-14.251-.836-24.083 4.22-8.797 11.425-14.728 17.316-14.728s.995.04 1.473.12c.477.079.955.238 1.393.398l.836.398.079.04.12.079c5.652 3.423 6.329 14.33 1.473 24.521l-.199.398c0 .079-.08.159-.12.199zm-302.049-94.897v1.711c.159 5.175 2.07 9.275 5.453 11.226.478.358.956.637 1.433.875.438.199.916.398 1.394.518a8.7 8.7 0 0 0 2.507.358c2.468 0 5.135-.915 7.802-2.667 2.906-1.911 5.573-4.737 7.802-8.12.159-.239.319-.478.438-.677.08-.119.12-.199.199-.318.08-.16.199-.319.279-.478.159-.279.358-.597.517-.876v-.079c.159-.279.319-.597.478-.876 0 0 0-.08.04-.12.079-.159.159-.318.239-.517l.199-.398c3.861-8.041 4.418-16.679 1.472-22.052v-.04l-1.313-2.389v.518l-.04-.08a1.9 1.9 0 0 0-.398-.398l-.119-.119c-.12-.12-.279-.239-.399-.358 0 0-.079-.08-.119-.08l-.478-.358-.079-.08a3.4 3.4 0 0 0-.637-.398s-.08-.04-.12-.08l.2-.199-.916-.318-.836-.398-.199-.12c-.04 0-.08 0-.159-.039h-.04c-5.971-2.269-13.892 2.229-19.346 10.946-.119.239-.278.438-.398.677l-.119.239v.04l-.478.835c-.318.598-.637 1.234-.955 1.832-1.075 2.229-1.871 4.537-2.468 6.806q-.716 2.866-.836 5.494zm29.337-21.336c.079.199.199.398.279.597l.119.358c.08.239.159.438.239.677 0 .119.079.239.079.318.08.239.16.518.199.757 0 .119.04.199.08.318.08.279.119.557.159.836 0 .08 0 .199.04.279.04.318.08.597.119.915v.279c0 .318.04.637.08.995v1.513c0 .358 0 .716-.04 1.114v.199c0 .398-.079.757-.119 1.155v.199c-.04.398-.12.796-.199 1.194v.159c-.08.398-.159.796-.239 1.234v.159c-.08.398-.199.836-.318 1.234 0 .04 0 .12-.04.159-.12.438-.239.836-.398 1.274 0 .04 0 .12-.04.159-.159.438-.279.836-.438 1.274 0 .04 0 .12-.04.159-.159.438-.318.836-.517 1.274 0 .04-.04.12-.08.159l-.597 1.314c-2.428 5.095-5.931 9.315-9.792 11.902-3.742 2.508-7.404 3.105-10.31 1.712a8.6 8.6 0 0 1-1.234-.757c-3.941-2.985-5.095-10.27-2.826-18.111a33 33 0 0 1 2.03-5.294 33.4 33.4 0 0 1 3.065-5.175l.717-.956c0-.039.079-.079.079-.119.239-.279.478-.597.717-.876.04-.04.079-.119.119-.159a14 14 0 0 1 .836-.915 7 7 0 0 1 .756-.757l.08-.079c.239-.239.478-.478.756-.717l.08-.08c.239-.238.517-.437.756-.676.04 0 .08-.08.159-.12.239-.199.478-.398.757-.597.04-.04.119-.079.159-.119.239-.199.517-.358.756-.518.04 0 .08-.079.159-.079.279-.159.518-.319.797-.478 0 0 .039 0 .079-.04.239-.159.478-.278.757-.398.039 0 .079-.04.159-.079.239-.12.477-.239.756-.359.08 0 .119-.039.199-.079.239-.12.478-.199.717-.279.079 0 .119-.04.199-.079l.716-.239h.159c.239-.08.478-.12.677-.16h.119l.717-.119h1.831q.359 0 .717.119c.437.08.875.239 1.273.359l.796.398.12.119h.119c1.194.717 2.15 1.752 2.906 3.145v.079c.119.12.159.279.239.399z"/>
    <path fill="#fff" d="M146.637 200.167c-.04-.12-.08-.279-.159-.398v-.08c-.04-.119-.08-.239-.16-.358v-.08a1.2 1.2 0 0 0-.159-.318s0-.08-.04-.12c-.04-.079-.119-.199-.159-.278 0-.04-.04-.08-.08-.12-.039-.079-.119-.159-.159-.238 0-.04-.079-.08-.079-.12-.04-.079-.12-.159-.16-.199 0-.04-.079-.079-.119-.159s-.08-.12-.159-.199c-.04-.04-.08-.12-.159-.159-.04-.04-.08-.12-.16-.16-.039-.079-.119-.119-.159-.159-.04 0-.08-.079-.119-.119-.08-.08-.16-.12-.239-.199l-.08-.08h-.04a2 2 0 0 0-.318-.278s-.08-.04-.119-.08c-.08-.04-.12-.08-.199-.12l-.16-.079-.557-.279h-.04c-4.577-1.871-10.907 2.349-14.409 9.554-2.429 5.135-2.827 10.469-1.274 14.011q.776 1.791 2.149 2.866c.319.239.637.438.995.637.836.398 1.712.557 2.628.557 4.219 0 9.235-3.98 12.14-10.07 0-.04.04-.08.08-.16l.438-.875c1.871-4.419 2.189-8.917 1.114-12.181zm-3.344 13.494s0 .04-.04.08c-.079.159-.199.358-.278.517 0 0 0 .04-.04.08-.08.159-.199.318-.279.517v.08c-.119.159-.199.318-.318.477v.04c-.12.16-.239.319-.319.478l-.358.478-.358.477c-3.185 4.021-7.285 6.011-10.23 4.578a4 4 0 0 1-.757-.478c-.796-.597-1.393-1.473-1.831-2.507-1.273-3.145-.836-7.922 1.394-12.539.159-.398.318-.717.517-1.035.159-.319.358-.637.557-.956 2.667-4.378 6.528-7.244 9.713-7.244s1.194.119 1.751.318l.478.239.119.119h.12c.079.04.159.12.239.16 0 0 .04 0 .079.039.199.16.398.319.558.518 2.627 2.747 2.587 8.797-.16 14.529l-.159.319s0 .039-.04.079c-.079.159-.159.358-.278.518z"/>
</svg>
