<svg xmlns="http://www.w3.org/2000/svg" width="320" height="232" fill="none" viewBox="0 0 320 232">
    <path fill="#fff" fill-rule="evenodd" d="M92.802 10.348 73.198.616 46.813 11.599l-.18-.09-41.801 91.599-1.273 21.507 19.133 10.247.02-.328 28.71-12.028-.357 6.518 18.552 9.837-.02.337 15.261-6.405 1.52-24.932 16.339-6.852.013-.218.968-16 .492-.206-15.897-8.158 4.001-65.867zM69.663 138.094l1.453-23.839-18.977 7.95-.35 6.41zm33.315-53.001-15.81 6.624-.134-.322-.35-.022 4.89-80.514-25.85 10.77-41.726 91.434-1.24 20.692 49.126-20.58-1.52 24.942 13.822-5.801 1.52-24.932 16.339-6.852zm-.446-.572-15.115 6.333.83-13.664zM65.476 20.975l25.64-10.683-17.943-8.908-25.534 10.63zM5.523 103.28l41.444-90.82 18.037 9.06-41.697 91.371-1.249 20.837-17.774-9.518zm71.56-75.882-.034.56-4.252 70.088-.333-.173-35.323 14.784.18-3.071 36.892-80.994zm-.767 1.077-4.153 68.453-17.982-9.352.95-15.403 19.605-43.04zM46.444 91.246l7.363-3.076 17.849 9.283-33.75 14.125.106-1.82zm7.876-17.292L46.87 90.31l6.611-2.762zM306.968 52.63 281.117 63.4l-41.725 91.433-1.241 20.692 49.126-20.58-1.52 24.942 13.822-5.801 1.521-24.932 16.338-6.852.934-15.439-15.81 6.625-.135-.323-.349-.021zm-68.883 124.002.02-.328 28.71-12.028-.356 6.518 18.551 9.838-.02.337 15.262-6.406 1.52-24.931 16.338-6.853.014-.217.967-16 .492-.207-15.896-8.158 4.001-65.867.507-.212-19.603-9.732-26.385 10.983-.182-.09-41.8 91.599-1.273 21.508zm29.097-6.247.351-6.409 18.977-7.95-1.453 23.838zm35.629-37.76 15.114-6.334-14.284-7.331zm3.698-80.562L280.87 62.745l-17.838-8.96 25.534-10.63zm-85.593 92.987 41.445-90.82 18.036 9.061-41.696 91.37-1.249 20.838-17.775-9.519zm71.527-75.322.034-.56-2.871 1.194-36.892 80.995-.179 3.07 35.323-14.784.332.174.02-.321zm-4.886 68.97 4.153-68.453-1.581.658-19.604 43.041-.951 15.402zm-18.356-8.757-7.364 3.076-8.431 18.511-.107 1.821 33.75-14.126zm-6.937 2.139 7.449-16.355-.838 13.593zM124.888 86.947c-6.877 5.11-10.625 15.781-11.102 32.179l-.87 29.913c-.465 16.017 2.565 29.653 9.061 40.914 6.598 11.316 15.506 19.449 27.01 24.542 8.753 3.875 16.139 4.727 22.2 2.62l-.057-.152 2.692-.995a19.6 19.6 0 0 0 2.71-1.732l.003-.003c6.982-5.184 10.77-15.727 11.236-31.769l.87-29.914c.476-16.37-2.595-30.138-9.191-41.323l.289-.17-.289.17c-6.505-11.036-15.601-19.133-27.022-24.192-11.428-5.062-20.571-5.04-27.54-.088m23.816 128.188c10.156 4.496 18.65 5.028 25.409 1.472l12.835-4.744.005-.002c2.073-.696 4.001-1.953 5.75-3.272 7.278-5.381 11.087-16.193 11.555-32.281l.869-29.887c.478-16.454-2.623-30.348-9.327-41.664-6.605-11.151-15.759-19.306-27.445-24.458-9.305-4.105-17.247-4.948-23.786-2.45l-15.134 5.829.036.093a20.4 20.4 0 0 0-4.991 2.608l-.006.004c-7.154 5.314-10.91 16.283-11.388 32.722l-.869 29.914c-.469 16.117 2.58 29.888 9.154 41.285l.001.001c6.668 11.436 15.686 19.674 27.332 24.83m38.021-3.936-9.814 3.628.042-.032c7.253-5.387 11.05-16.219 11.518-32.311l.87-29.913c.479-16.469-2.61-30.375-9.288-41.699-6.579-11.16-15.785-19.358-27.341-24.477-7.093-3.142-13.389-4.375-18.871-3.664l10.978-4.228c6.3-2.407 14.038-1.629 23.253 2.437q17.327 7.635 27.125 24.174c6.622 11.176 9.706 24.932 9.23 41.287l-.869 29.887c-.466 16.039-4.266 26.56-11.273 31.739l-.003.002c-1.732 1.306-3.59 2.51-5.557 3.17m-38.918-109.885q2.104.597 4.413 1.621c7.891 3.494 13.662 8.866 17.304 16.126l.001.002c3.632 7.355 5.292 16.113 4.997 26.242l-.921 31.673c-.221 7.601-1.547 13.424-4.024 17.423l-.006.023-.008-.001q-1.226 1.973-2.829 3.351l-.456-.531q1.444-1.24 2.58-3.015a29 29 0 0 1-3.85-1.421q-11.11-4.94-16.844-16.152c-3.814-7.346-5.574-15.989-5.286-25.917l.924-31.759q.315-10.928 3.34-17.123c-5.215-1.375-9.289-.629-12.291 2.125-3.82 3.749-5.928 10.71-6.228 21.013l-.921 31.673c-.285 9.806 1.464 18.304 5.22 25.506l.001.002c3.75 7.317 9.266 12.572 16.534 15.79 7.277 3.222 12.741 2.884 16.817-.708l.463.525c-4.361 3.845-10.153 4.104-17.563.823-7.419-3.284-13.053-8.655-16.873-16.109-3.821-7.327-5.586-15.948-5.298-25.849l.921-31.673c.3-10.346 2.415-17.549 6.441-21.497l.008-.008h.001c3.267-3.001 7.655-3.716 13.092-2.25l.037-.069zm.021.733q1.95.572 4.108 1.528c7.753 3.433 13.397 8.695 16.962 15.8 3.57 7.229 5.216 15.869 4.924 25.909l-.92 31.673c-.213 7.295-1.448 12.824-3.667 16.651a28.4 28.4 0 0 1-3.941-1.44l-.001-.001c-7.255-3.226-12.752-8.494-16.506-15.831l-.001-.002c-3.749-7.221-5.494-15.742-5.208-25.575l.923-31.759c.213-7.312 1.336-12.944 3.327-16.953M16.342 47.493 1.172 38.88l-.345.609 15.17 8.612zm90.29 3.25 23.407 13.29-.345.608-23.408-13.29zm3.583 173.011-56.298-31.963-.346.609 56.299 31.963zM240.626 42.193l9.414 5.408-.349.607-9.414-5.408zm-7.697 158.901-9.414-5.408-.349.607 9.414 5.408zM53.415 170.523l9.413 5.409-.348.606-9.414-5.408zM199.144 65.491l-9.414-5.41-.348.608 9.413 5.408zm-9.348 10.33L230.45 98.99l-.347.608-40.654-23.17zm94.387 155.173-40.654-23.169-.347.608 40.654 23.169zM4.095 142.754l40.654 23.169-.347.608-40.654-23.169zm176.533-88.05-40.654-23.17-.347.608 40.654 23.17z" clip-rule="evenodd"/>
</svg>
