<svg xmlns="http://www.w3.org/2000/svg" width="550" height="550" fill="none" viewBox="0 0 550 550">
    <path fill="#fff" d="m136.882 119.476.151-1.583c1.997 8.103 6.596 15.83 13.757 23.028.829.83 1.733 1.696 2.638 2.526 2.638 2.412 5.691 4.824 8.97 7.085a64 64 0 0 0 3.618 2.337h.076c.188.113.339.226.565.377.075.038.151.113.264.188l1.13.679c1.244.716 2.337 1.357 3.393 1.884a73 73 0 0 0 4.108 2.111 143 143 0 0 0 8.593 3.882c20.088 8.179 36.031 12.287 67.54 12.287 31.508 0 61.547-7.199 83.595-20.24l.641-.376h.038c0 .037.49-.264.49-.264 16.055-9.762 26.458-22.162 29.812-35.353l.151 1.432.565-4.862c.113-.641.189-1.281.264-1.884.151-1.319.226-3.92.226-4.033h-.038v-.076c0-17.6-12.098-34.109-34.071-46.508-21.822-12.325-50.843-19.11-81.673-19.11s-59.851 6.785-81.674 19.072c-21.973 12.4-34.071 28.908-34.071 46.546 0 .114.075 2.676.226 4.033l.792 6.784zm199.227 32.338-1.62.942c-21.823 12.928-51.22 20.013-82.842 20.013s-47.037-4.108-66.937-12.211a113 113 0 0 1-8.518-3.807c-1.206-.565-2.487-1.244-4.032-2.111-1.018-.565-2.111-1.168-3.317-1.884l-1.131-.678c-.075-.038-.15-.113-.226-.151-.188-.151-.414-.264-.641-.377a132 132 0 0 1-3.542-2.299c-3.242-2.224-6.219-4.561-8.82-6.935a83 83 0 0 1-2.563-2.45c-8.404-8.442-13.191-17.639-14.209-27.287v-.075c3.807-33.657 53.783-60.002 113.974-60.002 60.19 0 110.43 26.458 114.011 60.228v.113c-1.621 14.435-12.099 28.267-29.511 39.008zm-84.5-107.265c61.133 0 111.185 27.061 114.087 60.982-4.184-14.02-16.282-26.91-34.788-36.785-21.521-11.458-49.712-17.79-79.299-17.79-29.586 0-57.778 6.332-79.336 17.79-18.506 9.875-30.604 22.727-34.788 36.747 2.94-33.883 52.992-60.981 114.087-60.981z"/>
    <path fill="#fff" d="m505.223 204.127.452-.678h-1.282c-.188-.113-.414-.189-.603-.302 0-.038-5.728-2.789-5.728-2.789-3.129-1.47-7.689-.415-13.154 3.053-5.993 3.807-59.55 34.637-103.533 59.889l-1.696-.641V208.65c0-.566.037-1.169.037-1.734l-.075-96.749c0-19.335-13.38-37.464-37.652-51.032-24.159-13.53-56.233-20.955-90.342-20.993h-.038c-34.109 0-66.183 7.463-90.342 20.993-24.272 13.606-37.651 31.735-37.651 51.032v45.416L68.25 187.167c-.641.301-9.574 4.824-9.574 14.661v18.506c0 2.223.83 6.256 3.882 7.387l3.355 1.62c.678.34 1.432.49 2.224.49 1.356 0 2.902-.49 4.598-1.47 2.977-1.696 21.935-12.927 50.843-30.114v8.707q0 1.526.113 3.053l.377 85.743a52627 52627 0 0 1-69.236 39.688c-.791.376-13.832 6.859-13.832 21.143v27.099c0 3.128 1.168 8.857 5.503 10.516l4.937 2.412a7.2 7.2 0 0 0 3.015.64c1.922 0 4.146-.716 6.596-2.11 5.163-2.94 40.931-24.159 62.565-37.011v27.098c0 19.335 13.379 37.464 37.651 51.032 24.159 13.531 56.233 20.993 90.38 20.993s56.082-6.407 62.527-9.008l-15.641 55.668c-.075.226-.113.641.151 1.093.867 1.621 4.899 3.467 8.518 4.56 1.017.302 4.786 1.395 7.5 1.395 2.713 0 2.563-.302 2.827-1.168l20.163-71.121c19.486-9.95 32.866-22.802 38.708-37.162 13.945-10.138 26.156-27.287 33.468-47.112 5.503-14.925 7.952-30.264 7.123-44.323l26.044-15.49c27.212-16.169 48.695-28.946 52.426-31.094 11.495-6.709 12.739-17.752 12.739-22.161v-29.398c0-3.505-1.055-6.181-2.977-7.727zm-19.524.565c5.013-3.166 9.046-4.183 11.722-2.977l2.073 1.018c-1.244.188-2.601.565-4.033 1.168l1.395-1.395-5.918 3.807c-4.673 3.015-39.31 23.028-102.892 59.512l-4.862-1.847c43.795-25.139 96.523-55.479 102.478-59.248zm-72.213 87.063a45 45 0 0 0-1.583-4.183l48.092-27.25c.716-.414 1.357-.527 1.734-.301s.452.753.452 1.093c0 1.545-1.357 3.656-2.94 4.598l-45.755 26.081zm-6.256-12.701a50 50 0 0 0-2.752-3.468l25.102-14.246c.716-.415 1.356-.528 1.733-.302s.453.754.453 1.093c0 1.546-1.357 3.656-2.94 4.598l-21.596 12.363zm-92.001 85.593c.076 1.508.151 2.864.264 4.259.98 10.553 3.845 19.825 8.292 26.797 1.206 1.922 2.487 3.618 3.957 5.201l.189.264c1.244 1.357 2.525 2.563 3.92 3.618l-4.146-1.545-3.845-1.432-.867-.339c-2.449-.905-4.673-2.111-6.897-3.694-6.256-4.598-11.08-12.023-13.945-21.558a57 57 0 0 1-1.696-7.237 73 73 0 0 1-.867-6.143q-.226-2.77-.339-5.767c-.188-6.068.264-12.475 1.357-19.033.377-2.261.829-4.523 1.357-6.897 1.093-4.824 2.6-9.875 4.447-14.925.339-.867.679-1.809 1.055-2.714.98-2.525 2.149-5.201 3.694-8.442a108.4 108.4 0 0 1 8.48-14.586c2.45-3.505 4.937-6.671 7.387-9.423 10.666-11.985 22.802-19.184 34.222-20.39.151 0 .264 0 .415-.037a32.5 32.5 0 0 1 6.37.075q1.017.113 2.035.339h.075c1.47.302 2.902.679 4.259 1.206l6.257 2.375c0 .038 1.997.791 1.997.791-1.206 0-2.45 0-3.731.113-.603.038-1.206.113-1.809.189-10.478 1.545-21.182 7.651-30.981 17.752-3.505 3.58-6.86 7.651-9.95 12.136-5.164 7.387-9.536 15.641-12.965 24.498-.151.339-.264.678-.377 1.018s-.226.64-.377.979c-.302.83-.603 1.659-.867 2.488-.49 1.432-.98 2.94-1.432 4.372a151 151 0 0 0-.942 3.317 103 103 0 0 0-1.734 7.274 97 97 0 0 0-1.357 7.952c-.188 1.545-.377 3.091-.49 4.598a75 75 0 0 0-.339 5.767 100 100 0 0 0 0 6.746zm6.144 37.84c-20.88 7.161-44.964 10.93-69.764 10.93s-6.897-.075-10.251-.226a2.504 2.504 0 0 1-2.375-2.563c0-.64.302-1.281.792-1.733.301-.264.603-.453.98-.566.226.076.49.076.716.113h10.138c18.204 0 35.73-2.035 52.125-6.03 4.447-1.093 8.292-2.148 11.759-3.241a30.6 30.6 0 0 0 5.918 3.279zM125.085 302.346v-.264c1.244 4.561 3.317 9.083 6.106 13.455a116 116 0 0 0 2.638 3.732c.076.113.114.226.189.301.075.113.151.264.188.377 1.093 2.111 2.412 4.184 4.033 6.407a63 63 0 0 0 3.43 4.259 79.4 79.4 0 0 0 10.704 9.95c11.156 8.631 25.892 15.792 42.702 20.73 17.337 5.088 36.86 7.764 56.572 7.764s31.772-1.734 46.471-5.126c.151 1.394.377 3.053.641 4.673-14.887 3.355-30.755 5.051-47.112 5.051-41.722 0-80.731-11.458-104.362-30.68-3.958-3.241-7.425-6.595-10.29-10.025a65 65 0 0 1-3.241-4.221c-1.432-1.998-2.676-4.108-3.807-6.332-.791-1.508-1.469-3.128-2.148-4.9-1.734-4.635-2.638-9.497-2.638-14.397h-.038v-.716zm175.069 30.001-.113.565-.227 1.131c0 .151-.075.302-.075.452-.113.528-.188 1.018-.301 1.546 0 .113 0 .188-.038.301a9 9 0 0 0-.151.98c-1.47.302-2.827.641-4.146.905-11.759 2.638-17.639 3.919-43.418 3.919-25.78 0-56.158-5.012-79.073-14.435-5.126-2.11-10.025-4.447-14.586-6.972l-2.864-1.583c-.189-.113-.415-.226-.603-.34-.151-.075-.264-.15-.415-.226l-.301-.188h-.038c-.377-.226-.792-.49-1.206-.754-.302-.188-.641-.415-.942-.603-.716-.452-1.357-.829-1.998-1.281a2.48 2.48 0 0 1-.716-3.392l.113-.189c.49-.641 1.168-.98 1.885-.98.716 0 1.017.151 1.432.415a73 73 0 0 0 4.033 2.525l.301.188c.302.189.603.377.942.566l.566.339c1.733 1.018 3.618 2.035 5.653 3.091 4.598 2.336 9.686 4.56 15.151 6.633 6.558 2.487 13.455 4.598 20.503 6.294 16.546 3.995 34.072 6.03 52.125 6.03h.339c16.659-.075 32.903-1.809 48.243-5.276 0 .113-.038.226-.075.339m-2.186 30.001c-14.662 3.43-30.265 5.163-46.359 5.163-16.093 0-38.933-2.676-56.119-7.688-16.621-4.862-31.207-11.948-42.175-20.466a76 76 0 0 1-10.478-9.724 59 59 0 0 1-2.638-3.241c1.018.98 2.224 2.148 3.467 3.241 3.543 3.129 7.614 6.144 12.136 9.008 24.31 15.415 59.286 24.235 95.883 24.235s31.395-1.621 46.132-4.787c.038 1.47.151 2.902.264 4.297zm20.578-72.929c-2.412.791-4.9 1.545-7.425 2.261h-.075a.3.3 0 0 1-.151.075h-.452a2.42 2.42 0 0 1-2.375-1.809 2.28 2.28 0 0 1 .227-1.847 2.65 2.65 0 0 1 1.469-1.168l.453-.151a166 166 0 0 0 13.681-4.447 106 106 0 0 0-5.39 7.086zm59.587-40.441a68 68 0 0 1-8.065 10.402c-.038.038-.076.075-.113.151l-1.47-.226h-.189c-.377-.038-.791-.076-1.206-.113-1.206-.114-2.374-.151-3.58-.114 6.972-6.595 11.872-13.681 14.623-21.106v11.081zm-3.203 11.872a32 32 0 0 0-3.242-.98c2.413-2.601 4.599-5.314 6.445-8.103v10.289zm3.203-52.728v.49c-.716 16.998-12.362 33.167-32.978 45.755-.188.113-.415.226-.603.339-.226.114-.452.264-.641.377-11.721 6.973-25.553 12.438-41.119 16.32-16.131 3.995-33.355 6.03-51.145 6.03-17.789 0-5.766-.037-8.216-.15-4.259-.151-8.48-.415-12.589-.792a117 117 0 0 1-5.804-.603 258 258 0 0 1-11.382-1.696c-2.676-.452-5.427-.98-8.405-1.658-7.01-1.546-13.87-3.468-20.314-5.692-2.3-.791-4.297-1.507-6.106-2.261-6.935-2.714-13.493-5.879-19.486-9.46h-.037c-.415-.226-.792-.49-1.244-.754-20.051-12.249-31.622-27.928-32.865-44.436v-1.507h-.076v-3.505c1.772 6.218 4.937 12.06 7.877 16.131h-.075c5.276 11.646 15.943 22.35 30.905 30.981h.038c.226.15.49.301.716.452.113.075.189.113.339.188 6.219 3.468 13.116 6.596 20.503 9.272 1.923.716 4.033 1.394 6.408 2.148a190 190 0 0 0 21.37 5.314c3.166.566 6.105 1.056 8.932 1.433 7.124.98 14.473 1.62 21.822 1.884l7.651.151c32.753 0 63.545-7.161 86.649-20.164.301-.151.565-.339.829-.49.113-.075.188-.113.301-.188 14.926-8.631 25.629-19.335 30.906-30.944l.113-.226c3.694-5.163 6.332-10.515 7.802-16.018v3.204zM123.54 175.558l-12.852 7.312c-.377.226-.678.264-.829.189-.076-.038-.151-.227-.151-.415 0-.867.792-2.073 1.696-2.638l12.099-6.935v2.487zm0 10.591-31.81 18.016c-.377.226-.678.264-.829.188-.075-.038-.15-.226-.15-.414 0-.867.79-2.073 1.695-2.639l31.057-17.714v2.563zm210.233 63.243c12.701-5.992 23.292-13.38 31.056-21.596-5.804 8.518-14.737 16.395-26.232 23.028-.113.076-.226.114-.302.189-.263.151-.489.301-.753.452-22.916 12.89-53.444 19.976-85.933 19.976l-7.651-.151a214 214 0 0 1-21.671-1.885c-2.789-.376-5.691-.866-8.857-1.432-7.35-1.357-14.511-3.128-21.219-5.239-2.337-.753-4.41-1.432-6.332-2.148-7.312-2.638-14.134-5.729-20.277-9.159-.113-.075-.189-.113-.302-.188-.264-.151-.527-.339-.829-.49-11.458-6.633-20.352-14.435-26.119-22.915 7.727 8.178 18.28 15.528 30.981 21.521h.038c.188.113.377.188.603.301.151.075.301.151.414.189 6.784 3.09 14.172 5.841 21.973 8.14 2.224.641 4.523 1.282 6.86 1.847a218 218 0 0 0 23.066 4.335c2.525.339 5.163.603 7.689.866 4.711.415 9.384.716 13.907.867l7.651.113c29.36 0 57.967-5.691 80.618-16.018v.113c-.038 0 1.545-.753 1.545-.753zm15.339-48.883c14.737-9.31 24.649-20.353 29.021-32.3v11.118c-6.143 9.988-15.829 19.034-28.794 26.798l-.302.188c-.188.113-.339.188-.528.302-.15.113-.339.188-.49.301-25.478 14.85-59.738 22.991-96.485 22.991s-9.196-.151-14.02-.415a2.38 2.38 0 0 1-1.697-.829c-.452-.49-.64-1.131-.603-1.771.038-.679.34-1.282.83-1.696.49-.453 1.13-.641 1.771-.604.905.038 1.583.114 2.148.151 2.262.151 3.016.189 11.571.226 17.94.076 35.466-1.959 52.125-6.03 15.792-3.807 29.888-9.309 41.873-16.282.339-.188.641-.377.942-.565l2.827-1.583h-.226zM251.609 39.612c69.764 0 126.487 31.622 126.487 70.517v52.954c-3.355 13.983-14.435 26.948-32.074 37.501l-1.169.716s-.037 0-.075.038c-11.872 6.935-25.855 12.362-41.496 16.131-16.546 4.033-33.958 6.03-51.748 5.955-8.48 0-9.234-.075-11.458-.226-.565-.038-1.243-.075-2.186-.151-2.186-.151-4.07 1.545-4.183 3.731-.076 1.056.301 2.073.98 2.865.716.791 1.658 1.244 2.751 1.319 4.862.264 9.573.415 14.096.415 37.011 0 71.573-8.254 97.239-23.217.189-.113.339-.226.528-.302.151-.113.339-.188.49-.301l.339-.189c12.287-7.387 21.709-15.905 28.003-25.289v18.166l-.414-.226-.076.188v.113c-1.13 6.86-3.995 13.569-8.631 19.901h.038l-.075.15c-7.463 10.29-19.297 19.561-34.26 26.835 0-.037-1.545.641-1.545.641-.151.075-.302.151-.453.188a3 3 0 0 1-.603.264c-22.538 10.44-51.144 16.169-80.505 16.169l-7.651-.113a256 256 0 0 1-13.794-.867c-2.525-.264-5.126-.528-7.613-.867-7.689-1.017-15.378-2.45-22.916-4.334-2.336-.565-4.598-1.206-6.821-1.847-7.727-2.261-15.038-4.975-21.785-8.065-.113-.076-.264-.113-.377-.189-.226-.113-.414-.226-.678-.301-15.792-7.425-28.192-16.961-35.843-27.589l-.867.49.905-.641c-4.033-5.578-8.48-14.473-8.97-22.991v-.489a33 33 0 0 1-.114-2.752v-83.859c0-38.896 56.761-70.517 126.524-70.517zM63.086 226.289c-2.337-.867-2.94-4.297-2.94-5.993V201.79c0-9.158 8.631-13.266 8.707-13.304l54.65-31.207v1.884l-51.597 29.775c-.641.302-9.574 4.862-9.574 14.661v18.506c0 1.734.34 3.166.867 4.297l-.188-.076zm8.857.753c-2.224 1.282-4.033 1.583-5.39.905-2.072-1.018-2.638-4.297-2.638-5.88v-18.468c0-9.158 8.631-13.266 8.707-13.304l50.881-29.398v10.44l-12.89 7.35c-1.395.829-2.45 2.525-2.45 3.919s.301 1.395.867 1.734c.264.151.603.226.904.226s.905-.151 1.395-.414l12.098-6.898v4.561l-31.848 18.128c-1.394.83-2.45 2.526-2.45 3.92s.302 1.395.867 1.734c.264.151.604.226.905.226s.905-.151 1.395-.415l31.056-17.601v8.594c-29.323 17.412-48.582 28.832-51.597 30.566zm85.292 28.607c.414.264.829.527 1.319.791 6.068 3.581 12.664 6.784 19.674 9.536 1.847.716 3.882 1.47 6.181 2.261 6.482 2.261 13.38 4.184 20.465 5.767 3.015.64 5.767 1.206 8.48 1.658 3.732.641 7.576 1.206 11.458 1.696 2.073.226 3.958.452 5.88.603 4.146.377 8.404.641 12.663.791 2.488.113 5.126.151 8.292.151 17.903 0 35.24-2.035 51.522-6.068 15.716-3.882 29.699-9.422 41.534-16.47.188-.113.414-.226.603-.339.226-.113.452-.264.678-.377 17.224-10.516 28.305-23.556 32.187-37.539v14.661c-2.261 9.385-7.99 18.28-17.036 26.421-11.759 1.206-24.159 8.555-35.051 20.729-5.39 2.11-10.968 3.995-16.659 5.54l-.565.151v.075c-.754.34-1.395.943-1.847 1.696a3.95 3.95 0 0 0-.377 2.978c.452 1.696 2.035 2.902 3.807 2.902s1.206 0 1.394-.226q2.658-.735 5.315-1.583c-2.714 4.07-5.164 8.442-7.388 12.965-1.545 3.279-2.751 5.955-3.731 8.518-.377.904-.716 1.847-1.055 2.751-1.809 4.975-3.317 9.913-4.41 14.661-15.566 3.543-32.036 5.352-48.921 5.352h-.339c-17.827 0-35.127-1.997-51.446-5.917-6.973-1.696-13.832-3.769-20.353-6.219-5.427-2.035-10.477-4.259-15-6.558a121 121 0 0 1-5.578-3.015l-.603-.339c-.34-.188-.603-.339-.905-.528l-.301-.188c-1.32-.792-2.714-1.658-3.958-2.525-.641-.453-1.432-.641-2.261-.641-1.244 0-2.488.641-3.241 1.734l-.151.188v.113c-.98 1.772-.452 4.108 1.281 5.239.679.452 1.357.905 2.073 1.319.302.189.641.377.942.566.415.263.83.527 1.282.753l.301.189c.113.075.264.151.377.226.226.151.453.264.679.377l2.826 1.583c4.599 2.563 9.574 4.899 14.737 7.048 23.104 9.535 50.655 14.586 79.676 14.586s31.885-1.32 43.72-3.958c1.13-.264 2.299-.527 3.543-.791-.943 6.068-1.357 11.985-1.207 17.638-14.736 3.204-30.227 4.825-46.132 4.825-36.332 0-70.969-8.744-95.053-24.009-4.447-2.826-8.442-5.804-11.947-8.857a83 83 0 0 1-4.033-3.806 69 69 0 0 1-4.975-5.654l-.565-.678a72 72 0 0 1-2.601-3.656c-2.789-4.334-4.787-8.819-5.993-13.342-.414-1.696-.716-3.053-.904-4.372l-.339-78.47c3.995 13.832 15 26.684 32.036 37.087M47.105 392.801h-.075c-3.618-1.394-4.56-6.596-4.56-9.158v-27.099c0-13.644 12.852-19.712 12.965-19.787h.075c.34-.226 32.564-18.657 68.407-39.235a33 33 0 0 0-.339 3.882v.452c-33.506 19.222-62.263 35.654-63.206 36.22-.791.377-13.832 6.859-13.832 21.144v27.098c0 2.186.49 4.862 1.659 7.011zm76.435-36.408c-36.936 21.935-59.399 35.202-63.243 37.426-3.392 1.922-6.181 2.412-8.216 1.357-3.204-1.546-4.07-6.295-4.07-8.858V359.22c0-13.644 12.851-19.712 12.964-19.787h.076s28.72-16.471 62.489-35.843v15.264L89.28 338.34c-1.96 1.13-3.43 3.467-3.43 5.427s.378 1.809 1.094 2.224c.829.49 1.922.377 3.052-.264l33.507-18.996v6.897l-6.483 3.694c-1.96 1.131-3.43 3.467-3.43 5.427s.377 1.809 1.093 2.224c.829.49 1.922.377 3.053-.226l.377-.226v-.076l5.352-3.015v14.888zm.076-35.843v4.448L89.28 344.445c-.64.377-1.243.453-1.583.264-.301-.188-.377-.641-.377-.904 0-1.433 1.207-3.279 2.677-4.146l33.581-19.109zm-6.935 23.066c-.49.226-.905.264-1.169.113-.301-.188-.377-.64-.377-.904 0-1.432 1.206-3.279 2.676-4.146l5.805-3.317v4.335zm8.442 41.572v-70.932a43 43 0 0 0 1.206 3.731c.679 1.847 1.432 3.468 2.224 5.051a50 50 0 0 0 3.92 6.52c1.093 1.508 2.186 2.977 3.316 4.297 2.94 3.505 6.483 6.934 10.516 10.251 23.895 19.448 63.281 31.019 105.342 31.019s32.451-1.734 47.489-5.088c.452 2.412.98 4.598 1.621 6.633 2.751 9.234 7.349 16.583 13.304 21.408-3.166.98-6.671 1.922-10.666 2.902-16.244 3.957-33.657 5.955-51.748 5.955h-8.895c-.263-.189-.678-.189-1.093-.226a4.04 4.04 0 0 0-2.864 1.055 3.87 3.87 0 0 0-1.281 2.751 4.016 4.016 0 0 0 3.806 4.146c3.392.151 6.86.226 10.327.226 25.667 0 50.542-4.033 71.987-11.608l2.902 1.093-11.797 41.948-.226.076c-5.615 2.299-22.726 9.271-62.828 9.271-69.764 0-126.524-31.621-126.524-70.517zm190.936 124.036c-.528.339-3.543.339-8.481-1.13-4.711-1.433-7.387-3.204-7.613-3.845l16.056-57.062 11.872-42.25 11.948 4.41v-.076c1.244.49 2.6.867 4.146 1.169l-7.802 27.513v.339l-20.126 70.97zm22.086-72.552 7.311-25.855c9.046 1.357 18.845-1.282 28.532-7.689-6.031 12.852-18.355 24.385-35.881 33.544zm77.301-125.393.113-.114c.641 13.569-1.809 28.268-7.085 42.627-7.237 19.561-19.26 36.522-33.017 46.472-10.327 7.5-20.767 10.553-30.264 8.857-1.809-.34-3.355-.754-4.787-1.282-4.221-1.507-7.99-4.07-11.269-7.613a.8.8 0 0 0-.151-.188c-1.432-1.546-2.714-3.242-3.92-5.126-4.334-6.784-7.123-15.792-8.065-26.119a130 130 0 0 1-.264-4.184 98 98 0 0 1 0-6.633c0-1.885.151-3.769.339-5.691.113-1.508.302-3.053.49-4.561.339-2.6.792-5.238 1.357-7.839a101 101 0 0 1 1.734-7.199c.301-1.055.603-2.148.942-3.241.452-1.432.942-2.902 1.432-4.372.264-.792.566-1.621.867-2.412.151-.339.264-.679.377-1.018s.226-.641.377-.98c3.43-8.781 7.726-16.922 12.814-24.196 3.053-4.41 6.332-8.405 9.8-11.91 9.422-9.687 20.126-15.83 30.114-17.3.565-.075 1.13-.151 1.696-.188a31 31 0 0 1 7.274.188l1.545.339 1.018.226.226.076h.075l.679.226 3.768 1.394c.34.151.679.302 1.018.49 2.864 1.47 5.54 3.468 7.953 5.955l.414.415h.076c.979 1.018 1.922 2.186 2.789 3.392h-.076c0 .038.452.716.452.716a42 42 0 0 1 3.883 7.048l.339.754h.075c.528 1.168 1.018 2.525 1.545 4.146h-.037l.188.603c1.621 5.163 2.638 10.779 3.015 16.621l.076 1.244h.037v.301zm91.247-70.028c0 4.184-1.169 14.586-11.986 20.88-3.731 2.149-25.214 14.925-52.426 31.132l-25.403 15.076v-.566l-.151.113c-.452-5.276-1.394-10.213-2.751-14.698l46.057-26.232c2.073-1.206 3.693-3.807 3.693-5.88s-.414-1.922-1.206-2.374c-.867-.49-2.035-.415-3.241.301l-47.941 27.174c-.98-2.11-2.035-4.07-3.204-5.842l21.483-12.286c2.073-1.206 3.694-3.807 3.694-5.88s-.415-1.922-1.206-2.374c-.867-.49-2.035-.377-3.241.301l-25.441 14.435c-2.45-2.45-5.126-4.409-7.952-5.879l-.34-.113a38 38 0 0 0-2.789-1.244l-1.017-.377v.075c-.453-.15-.905-.301-1.357-.414h-.038c51.673-29.662 84.01-48.356 96.523-55.743l-.603.603 5.917-3.769c5.955-3.807 9.461-3.807 11.383-3.128 0 .037.037.075.037.075l.679.452c1.884 1.131 2.902 3.581 2.902 6.897v29.398z"/>
    <path fill="#fff" d="M461.691 242.91c-.867-.49-2.035-.415-3.241.301L441 252.784c-2.375 1.357-4.222 4.184-4.222 6.407 0 2.224.453 1.96 1.244 2.413a2.8 2.8 0 0 0 1.357.339c.716 0 1.545-.226 2.374-.716l17.451-10.063c2.073-1.169 3.693-3.769 3.693-5.88s-.414-1.922-1.206-2.374m-3.241 6.972L441 259.945c-.905.528-1.772.641-2.224.377-.415-.226-.49-.754-.49-1.131 0-1.696 1.583-4.032 3.467-5.088l17.451-9.573c.49-.264.904-.414 1.281-.414s.339 0 .49.113c.377.226.452.753.452 1.093 0 1.583-1.357 3.656-2.939 4.598zm34.222-8.782c-.867-.489-2.035-.376-3.241.302l-16.47 9.234c-2.375 1.357-4.222 4.183-4.222 6.407s.453 1.96 1.244 2.412c.377.226.867.34 1.357.34.716 0 1.545-.227 2.412-.717l16.47-9.724c2.073-1.206 3.694-3.806 3.694-5.879s-.415-1.922-1.206-2.375zm-3.241 6.973-16.47 9.724c-.905.528-1.772.641-2.224.377-.415-.226-.49-.754-.49-1.131 0-1.696 1.583-4.033 3.467-5.126l16.471-9.234c.49-.263.904-.414 1.281-.414s.339 0 .49.113c.377.226.452.754.452 1.093 0 1.545-1.357 3.656-2.939 4.598zm-1.018-13.191c2.073-1.169 3.694-3.769 3.694-5.88s-.415-1.922-1.206-2.374c-.867-.49-2.036-.377-3.242.301l-17.45 9.573c-2.374 1.357-4.221 4.184-4.221 6.408 0 2.223.452 1.96 1.244 2.412.376.226.866.339 1.356.339.716 0 1.546-.226 2.375-.716zm-20.428 9.158c-.414-.226-.49-.753-.49-1.13 0-1.696 1.583-4.033 3.468-5.088l17.45-9.574c.49-.263.905-.414 1.282-.414.376 0 .339 0 .489.113.377.226.453.754.453 1.093 0 1.583-1.357 3.656-2.94 4.598l-17.45 10.063c-.905.528-1.772.641-2.224.377zm-60.831 52.238c-.791-2.148-1.583-3.957-2.45-5.54-1.319-2.488-2.826-4.749-4.711-6.897a31 31 0 0 0-4.673-4.297c-.679-.528-1.47-1.018-2.412-1.545a32 32 0 0 0-3.016-1.508s-.037-.038-.075-.038l-.716-.301c-3.166-1.168-6.596-1.696-10.176-1.583-2.978.113-5.955.678-8.895 1.621-5.39 1.771-10.779 4.862-16.018 9.196-8.895 7.387-16.659 17.752-22.463 30.038a153 153 0 0 0-2.827 6.445c-.301.754-.603 1.546-.904 2.299-.038.151-.076.264-.113.377 0 .076-.038.151-.076.226-.565 1.583-1.168 3.279-1.734 5.239-.64 1.998-1.13 3.882-1.582 5.729-.641 2.638-1.207 5.277-1.621 8.103a93 93 0 0 0-.792 6.181 73 73 0 0 0-.339 5.654c-.075 2.224-.037 4.485.076 6.822.037.904.113 1.847.188 2.751 1.055 11.307 4.56 20.729 10.176 27.287a24 24 0 0 0 1.885 1.998l-1.885-.754 5.503 3.807a23.4 23.4 0 0 0 5.616 2.902q1.81.678 4.07 1.131c1.658.301 3.317.452 5.051.452 8.706 0 18.053-4.033 26.91-11.646 10.591-9.083 19.561-22.576 25.214-37.991 4.862-13.154 7.01-26.685 6.219-39.16-.415-6.219-1.583-11.947-3.392-17.036zm-74.097 95.279c-5.39-6.331-8.782-15.452-9.8-26.458a63 63 0 0 1-.188-2.676c-.113-2.336-.151-4.522-.076-6.746 0-1.847.151-3.694.34-5.578.188-1.998.452-3.995.791-6.106a95 95 0 0 1 1.621-7.952c.452-1.847.942-3.694 1.583-5.654a165 165 0 0 1 1.696-5.126l.113-.339a.5.5 0 0 1 .075-.226 77 77 0 0 1 .905-2.337 147 147 0 0 1 2.751-6.369c5.691-12.061 13.342-22.275 22.086-29.511 5.088-4.221 10.289-7.199 15.491-8.895 2.826-.904 5.691-1.432 8.48-1.545 3.354-.113 6.595.377 9.573 1.507l.49.189s.038 0 .075.038h.038a24.7 24.7 0 0 1 3.731 3.165c.076.076.113.151.189.189l.075.113c1.244 1.281 2.412 2.789 3.618 4.598 1.357 2.073 2.525 4.372 3.618 7.086a50 50 0 0 1 1.847 5.691l.189.528c1.281 5.05 1.96 10.703 1.96 16.884-.038 10.742-2.224 22.2-6.295 33.205-4.635 12.588-11.42 23.82-19.674 32.488-8.141 8.594-17.073 14.021-25.779 15.642-4.9.904-9.573.565-13.87-1.018l-.452-.188c-.038 0-.113-.076-.151-.076h-.075a27.7 27.7 0 0 1-5.013-4.636zm69.838-39.611c-5.578 15.189-14.359 28.455-24.762 37.388-10.214 8.819-21.106 12.663-30.679 10.854a25 25 0 0 1-3.317-.867c1.056.114 2.149.189 3.242.189 1.809 0 3.655-.189 5.502-.528 9.046-1.696 18.242-7.236 26.609-16.093 8.367-8.82 15.264-20.202 19.976-33.016 4.145-11.156 6.331-22.802 6.369-33.732 0-6.521-.716-12.551-2.148-17.828l-.151-.565h-.038a43 43 0 0 0-1.771-5.277c-1.131-2.826-2.337-5.201-3.769-7.387a47 47 0 0 0-2.751-3.693c1.281 1.017 2.449 2.148 3.618 3.429a34 34 0 0 1 4.485 6.596c.829 1.545 1.583 3.317 2.374 5.352 1.772 4.937 2.902 10.515 3.317 16.584.791 12.286-1.357 25.591-6.143 38.556zm-320.097 6.105c-.905-.528-2.186-.377-3.468.377l-15.905 9.196c-1.922 1.093-3.43 3.505-3.43 5.428 0 1.922.378 1.771 1.094 2.186.339.188.753.301 1.168.301s1.244-.188 1.884-.528l15.905-8.744c2.186-1.281 3.882-3.882 3.882-5.954 0-2.073-.414-1.847-1.168-2.262zm-3.468 6.897-15.905 8.744c-.64.34-1.243.453-1.583.264-.301-.188-.339-.565-.339-.867 0-1.394 1.244-3.279 2.676-4.146l15.905-9.196c.528-.301 1.055-.49 1.47-.49s.377.038.49.113c.34.189.415.641.415.943 0 1.507-1.433 3.618-3.129 4.635m-16.772-3.203 15.038-8.405c2.186-1.281 3.882-3.882 3.882-5.917s-.414-1.847-1.168-2.261c-.904-.528-2.186-.377-3.467.376l-15.039 8.857c-1.96 1.131-3.392 3.43-3.43 5.39 0 .98.415 1.771 1.094 2.186.339.188.753.302 1.168.302s1.244-.189 1.885-.566zm-2.676-1.96c0-1.432 1.206-3.279 2.676-4.108l15.038-8.857c.792-.452 1.546-.603 1.96-.377.34.188.415.641.415.942 0 1.508-1.432 3.618-3.128 4.636l-15.039 8.405c-.64.377-1.243.452-1.583.264-.301-.189-.376-.641-.376-.905zm49.6-16.621c-.905-.528-2.186-.377-3.468.377l-15.905 9.196c-1.96 1.131-3.43 3.468-3.43 5.427 0 1.96.378 1.81 1.094 2.224.339.189.754.302 1.168.302.415 0 1.244-.189 1.885-.528l16.281-8.97v-.076c1.998-1.356 3.506-3.769 3.506-5.691s-.415-1.846-1.169-2.261zm-3.468 6.897-.376.226-15.529 8.556c-.64.377-1.243.452-1.582.264-.302-.189-.377-.641-.377-.905 0-1.432 1.206-3.279 2.675-4.146l15.906-9.196c.527-.302 1.055-.49 1.469-.49s.377.038.49.113c.34.189.415.641.415.942 0 1.508-1.432 3.619-3.128 4.636zM87.547 192.782c-.716-.414-1.659-.339-2.639.227l-10.854 6.256c-1.395.829-2.45 2.525-2.45 3.92 0 1.394.302 1.394.867 1.733.264.151.603.227.904.227s.905-.151 1.395-.415L86 198.549v-.075c1.395-.98 2.413-2.601 2.413-3.996 0-1.394-.34-1.394-.905-1.771zm-2.639 4.712-.377.226-10.477 5.766c-.377.226-.679.264-.83.189-.075-.038-.15-.226-.15-.415 0-.867.791-2.073 1.696-2.638l10.855-6.257c.376-.188.678-.301.866-.301.189 0 .189 0 .227.038.15.075.15.301.15.452 0 .942-.942 2.299-2.035 2.94zm.942 7.085c-.716-.414-1.658-.339-2.638.226l-10.251 6.068c-1.395.83-2.45 2.526-2.45 3.92s.301 1.395.867 1.734c.263.151.603.226.904.226s.905-.151 1.395-.415l10.628-5.992v-.076c1.395-.98 2.412-2.6 2.412-3.995 0-1.394-.339-1.394-.904-1.771zm-2.638 4.711-.377.227-9.874 5.578c-.377.226-.679.263-.83.188-.075-.038-.15-.226-.15-.414 0-.867.791-2.073 1.696-2.639l10.251-6.068c.377-.188.679-.301.867-.301.189 0 .189 0 .226.037.151.076.151.302.151.453 0 .942-.942 2.299-2.035 2.939zm7.463-14.472a1.9 1.9 0 0 0 .904.226c.452 0 .905-.151 1.395-.415l10.854-5.955c1.583-.904 2.789-2.713 2.789-4.221s-.339-1.395-.904-1.771c-.716-.415-1.659-.34-2.639.226l-9.724 5.615v-.075l-1.13.678c-1.395.83-2.45 2.526-2.45 3.92s.302 1.395.867 1.734zm2.035-4.146 11.156-6.445c.528-.302.942-.339 1.131-.226.15.075.15.301.15.452 0 .942-.942 2.299-2.035 2.902l-10.855 5.955c-.376.226-.678.264-.829.188-.075-.037-.15-.226-.15-.414 0-.754.603-1.809 1.394-2.412z"/>
</svg>
