<svg xmlns="http://www.w3.org/2000/svg" width="550" height="550" fill="none" viewBox="0 0 550 550">
    <path fill="#fff" d="M274.476 284.846c.057 18.646.136 37.263.215 55.877.093 21.824.186 43.644.244 65.499.004 2.191.636 3.719 2.338 5.184 12.433 10.852 21.202 29.044 15.35 45.397-7.855 18.268-29.944 11.111-39.456-1.746-13.574-14.406-20.112-49.859 7.504-51.422.185-24.094.038-48.187-.11-72.281v-.008c-.107-17.507-.214-35.015-.193-52.525-.005-2.2-.722-3.5-2.592-4.631-3.737-2.179-7.357-4.467-10.973-6.751v-.001c-4.967-3.139-9.924-6.272-15.164-9.107-.265 13.867-.15 27.553-.033 41.361v.001l.022 2.6.007.942.013 1.576c.054 3.776-1.211 6.047-4.493 7.927-12.815 7.338-25.569 14.778-38.323 22.218l-.005.003q-6.848 3.996-13.701 7.986-.343.197-.659.37l-.006.003-.008.005c-1.629.899-2.595 1.433-1.544 3.661 3.095 8.742 4.444 19.096-.619 27.365-4.137 6.698-12.015 9.642-19.849 7.625-17.31-5.144-28.488-22.975-29.891-40.419-1.407-11.316 6.707-24.034 19.096-22.943 8.471.325 15.306 5.508 20.922 11.4l.056.055c1.722 1.701 1.77 1.749 3.903.511 3.925-2.278 7.843-4.568 11.761-6.858h.001v-.001l.003-.002.004-.002.004-.002.004-.003q3.838-2.243 7.68-4.484l5.815-3.393.011-.006c7.549-4.407 15.096-8.812 22.68-13.158 1.558-.891 2.124-1.902 2.115-3.701-.103-15.569-.165-31.138-.094-46.707.014-2.583-.761-4.15-3.001-5.535-15.965-9.873-31.899-19.8-47.74-29.873-2.829-1.982-5.777-3.865-8.735-5.754-9.303-5.944-18.7-11.947-24.803-21.273C108.923 159.245 80.956 86.86 121.548 60.47c17.048-10.288 28.947-16.758 48.88-8.85 5.505-11.953 14.23-16.584 24.449-22.01a282 282 0 0 0 6.106-3.306c26.835-12.194 54.655 11.28 71.382 30.518 10.332 11.94 17.934 25.603 24.867 39.693 1.06 1.942 1.283 2.026 3.505 1.62 15.386-5.138 28.907 8.044 38.637 18.331 15.115 16.183 21.733 36.735 27.451 57.657.436 1.47 1.287 2.588 2.445 3.549 10.256 8.137 19.523 17.253 26.377 28.453 19.456 28.581 42.186 91.578 7.067 115.84-1.943 1.128-3.878 2.269-5.813 3.409l-.004.002-.004.002-.002.002-.002.001-.003.002c-2.871 1.692-5.742 3.384-8.636 5.034-19.194 11.343-38.012.123-55.304-10.188-3.815-2.275-7.557-4.506-11.211-6.44-.573 8.571-.483 17.178-.394 25.789.06 5.728.119 11.458-.016 17.181-.004 1.559.552 2.828 1.291 4.115a52928 52928 0 0 0 20.213 35.014l.011.021c12.401 21.469 24.802 42.938 37.144 64.439 1.042 1.826 2.098 2.823 4.44 2.81 19.559 1.247 33.249 23.122 34.402 41.318 1.595 13.07-9.419 25.985-23.26 21.986-19.866-5.513-36.027-33.823-27.423-53.324.766-1.537.352-2.77-.423-4.111a49208 49208 0 0 1-25.026-43.381c-11.603-20.127-23.205-40.253-34.845-60.359-1.051-1.817-1.483-3.634-1.478-5.718.025-6.887.028-13.773.032-20.66.005-10.33.01-20.66.088-30.99.018-2.708-.748-4.337-3.131-5.74-4.389-2.512-8.621-5.146-12.849-7.779h-.002c-5.249-3.268-10.492-6.532-16.024-9.554zm6.693-175.813c-14.242-32.856-43.78-74.767-83.05-75.697-19.488.788-27.384 16.998-30.536 34.054-.464 1.71-1.056 1.95-2.548 1.078-1.973-1.158-3.905-2.392-5.829-3.63-11.405-7.236-26.711-8.933-38.637-1.932-13.013 7.802-17.346 23.9-17.934 38.174-1.069 32.914 17.502 78.953 42.663 100.382 3.988 2.622 7.962 5.264 11.937 7.907h.001c9.448 6.282 18.897 12.564 28.521 18.564 18.791 11.432 37.439 23.114 56.087 34.795 35.921 22.501 71.844 45.003 108.797 65.734 14.536 8.061 34.701 7.673 44.672-7.165 11.387-16.74 9.361-38.655 4.903-57.408-7.709-29.41-23.309-57.421-47.624-76.174-1.287-1.127-2.249-2.356-2.739-3.995-.448-1.499-.923-2.991-1.398-4.484-.885-2.782-1.771-5.565-2.481-8.39-6.43-24.534-20.913-48.07-43.398-60.717-6.92-3.796-11.017-3.019-17.138-1.858h-.001l-.002.001c-1.31.248-2.713.514-4.257.757zm34.661 8.341c-7.67-6.356-16.229-12.904-26.861-12.003 1.043-.571 2.056-1.191 3.066-1.809 2.642-1.617 5.264-3.222 8.35-3.907.562-.125 1.124-.26 1.686-.396 1.666-.4 3.337-.803 5.026-.936 12.295-.071 23.121 10.412 31.062 18.842 15.021 16.01 21.812 36.571 27.383 57.372.503 1.733 1.474 3.046 2.855 4.227 22.752 17.341 37.546 43.041 45.918 70.082 7.593 25.308 10.675 62.988-18.588 75.355 23.625-37.404-.005-90.31-24.703-121.666-3.736-4.649-8.305-8.528-12.906-12.291-5.548-3.318-7.735-8.751-9.236-14.625-4.89-22.467-15.676-42.947-33.052-58.245m62.279 347.677c1.978-1.67 1.292-3.194.25-4.89-8.397-14.429-16.724-28.898-25.051-43.368l-.019-.033-.007-.012-.002-.002-.001-.002-.001-.003c-9.88-17.168-19.761-34.336-29.758-51.436-2.484-4.267-3.758-8.43-3.638-13.409.181-7.423.163-14.85.145-22.278-.011-4.658-.022-9.316.015-13.972.018-2.111-.663-3.394-2.507-4.382-1.366-.685-2.604-1.479-3.835-2.269-1.783-1.143-3.552-2.278-5.677-3.058-.278 10.549-.256 21.06-.234 31.576v.002c.015 7.319.03 14.64-.056 21.978-.009 1.897.423 3.541 1.381 5.193a44937 44937 0 0 1 39.801 68.975c7.631 13.242 15.261 26.484 22.897 39.717-2.266-.093-2.431-.026-3.233 2.231-5.847 18.74 8.288 43.759 26.89 49.41 13.159 4.066 23.415-7.9 22.003-20.334-1.166-19.554-17.479-43.634-39.358-39.63zM167.315 346.628l-.095-.173q-.076-.135-.15-.273c13.13-7.869 26.385-15.543 39.64-23.217l.001-.001h.001l.002-.001.009-.006.002-.001.001-.001c6.85-3.965 13.699-7.931 20.531-11.923 1.929-1.113 3.02-2.427 3.006-4.761a9205 9205 0 0 1-.138-46.711c0-1.429-.459-2.413-1.71-3.157-1.401-.737-2.684-1.587-3.957-2.431-2.067-1.369-4.107-2.722-6.584-3.545.018 16.343.036 32.527.12 48.853.009 1.91-.418 3.224-2.209 4.257-7.762 4.39-15.442 8.907-23.12 13.423l-.006.003c-10.786 6.343-21.567 12.684-32.567 18.669.533-1.283.975-1.827 1.613-2.613.241-.297.51-.629.823-1.047-8.043-10.328-26.154-18.384-35.159-4.908-7.589 12.313-1.83 28.176 5.852 39.038 20.521 28.835 51.698 12.777 37.608-19.853-1.185.125-2.347.249-3.514.374zm94.692 64.787c.075-44.978-.058-88.87-.277-134.035 2.006.874 3.554 1.869 5.118 2.874 1.147.737 2.301 1.479 3.651 2.183 1.915 1.033 2.614 2.396 2.614 4.618.014 20.789.117 41.577.22 62.365.097 19.4.193 38.8.217 58.2.004 1.911.583 3.042 2.106 4.307 10.252 8.523 16.166 19.47 17.439 32.781 1.492 23.371-21.184 28.287-35.747 12.83-10.772-10.929-18.886-28.368-12.153-43.376 2.735-5.673 8.511-8.973 14.727-8.795.546.86.592 1.814.637 2.739.062 1.264.121 2.473 1.448 3.309M296.854 98.92c-13.538-28.604-32.585-56.611-62.129-70.216-13.311-6.092-27.535-6.257-39.697 2.534l.107.292.107.291c40.356-2.12 72.015 41.995 86.987 74.919 4.961-2.65 9.615-5.139 14.625-7.82M169.462 53.246c-10.822-5.816-27.45-4.996-37.724 3.67 8.243-.419 16.134.08 23.602 3.888 1.737.786 3.318 1.772 4.899 2.759 1.83 1.141 3.66 2.283 5.736 3.119l1.654-6.362.037-.145 1.8-6.924zm68.03 21.826c-25.535-18.508-47.962-6.262-46.012 25.325-2.436-.892-4.203-2.101-6.102-3.4h-.001a68 68 0 0 0-2.354-1.564c-10.911-8.675-28.07-12.153-38.214-.379-18.308 24.258-1.434 63.621 14.776 85.112 1.247 1.648 2.814 3.184 4.529 4.329 29.074 19.59 58.962 37.918 88.846 56.245 11.958 7.334 23.916 14.667 35.821 22.08 2.976 1.831 5.945 3.676 8.914 5.521l.002.001.003.002.002.002c11.881 7.383 23.764 14.767 36.169 21.279 9.677 5.188 22.484 5.121 29.944-3.817 19.154-23.994-3.322-76.548-26.444-91.623-3.973-2.271-8.012-4.422-12.086-6.501-1.541-.789-2.232-1.768-1.871-3.474 4.07-20.81-8.417-43.674-26.248-54.313-5.941-3.571-10.318 1.028-14.364 5.279-1.207 1.268-2.384 2.505-3.565 3.485q-.649-1.123-1.295-2.217c-1.977-3.357-3.865-6.564-5.069-10.292-6.399-20.031-18.232-38.615-35.381-51.08m40.503 66.649c-.241-.741-.441-1.469-.638-2.185-.53-1.922-1.035-3.756-2.226-5.515-1.492-2.708-2.917-5.513-3.883-8.439-4.877-14.745-12.416-27.9-23.024-39.256-8.564-9.04-19.363-17.27-32.135-18.566-3.585-.32-4.356-.023-5.821 3.21-3.228 6.752-4.208 14.256-3.714 21.67.067 1.448-.343 2.365-1.67 3.087-3.781 2.053-7.508 4.213-11.218 6.39-.904.53-1.634.593-2.525.027-2.432-1.553-4.881-3.076-7.329-4.6l-.019-.011-.019-.012-1.695-1.055c-6.199-4.244-12.933-8.074-20.726-7.624-4.718-.11-6.741 7.449-7.88 11.705v.002c-.098.363-.189.703-.274 1.012-4.516 24.863 6.444 49.877 20.855 69.632 1.291 1.723 2.926 3.327 4.716 4.516 4.35 2.795 8.641 5.656 12.928 8.514 8.053 5.369 16.092 10.729 24.489 15.632.295-8.741.212-17.403.129-26.085v-.002c-.045-4.671-.09-9.348-.076-14.047-.018-2.316.882-3.883 2.922-4.805 4.27-2.102 12.34-1.265 12.246 4.796-.029 8.067-.035 16.133-.04 24.199v.017c-.005 7.678-.009 15.355-.035 23.034-.005 1.866.668 3.011 2.271 3.986 3.791 2.257 7.489 4.58 11.184 6.901h.001c4.959 3.116 9.912 6.227 15.072 9.166.413-8.263.27-16.476.126-24.702v-.003c-.088-5.051-.176-10.107-.135-15.183-.023-2.512.819-3.968 3.108-4.925 4.258-1.813 11.597-.784 11.138 5.152.007 8.047.029 16.094.052 24.142.021 7.428.042 14.856.05 22.284 0 1.634.597 2.717 2.018 3.581 4.059 2.334 8.001 4.831 11.937 7.326 5.977 3.788 11.943 7.569 18.296 10.759l-.003-9.217v-.063c-.003-10.488-.006-20.89-.055-31.424-.066-5.932 7.838-6.778 12.056-4.814 2.137.931 3.104 2.534 3.086 4.983-.055 8.529-.074 17.06-.093 25.59v.001c-.017 7.312-.033 14.624-.072 21.935-.009 1.871.592 3.051 2.24 3.986 4.497 2.553 8.975 5.138 13.452 7.723l.006.003c3.924 2.265 7.847 4.53 11.784 6.774 3.74 2.133 7.864 2.855 12.13 3.055 2.022.094 3.394-.699 4.151-2.472 4.591-8.857 5.388-18.895 3.736-28.617-4.213-22.551-14.727-46.577-34.754-59.162a221 221 0 0 0-10.006-5.162c-2.623-1.27-2.598-1.422-2.286-3.33l.063-.391q.034-.208.067-.443c3.884-20.276-7.285-41.184-23.936-52.478-1.813-1.251-2.124-1.06-3.866.268-1.305.993-2.658 1.946-4.066 2.787-1.364.76-2.691 1.565-4.015 2.37-2.615 1.587-5.218 3.168-8.071 4.368zm-60.196 72.593c-1.657-.733-1.661-1.821-1.666-2.9v-.025a80 80 0 0 0-.036-1.893c-.038-1.479-.077-2.958.063-4.422.245-2.552-.877-3.95-2.97-5.273a1603 1603 0 0 1-29.081-18.762q-10.029-6.63-16.517-16.784c-13.409-21.568-23.18-49.57-11.922-74.001-9.018 1.923-13.921 10.545-15.755 18.851-4.676 24.947 6.403 50.059 20.877 69.868 1.131 1.51 2.543 2.921 4.092 3.99l2.005 1.384c5.962 4.117 11.928 8.237 18.071 12.07 17.224 10.519 34.317 21.262 51.411 32.004l.003.002.001.001.002.001c32.526 20.441 65.053 40.883 98.482 59.793 8.332 4.395 19.466 4.725 26.489-2.285-.638-.583-1.001-.605-1.556-.639a8 8 0 0 1-.546-.047c-4.053-.356-7.927-1.265-11.499-3.34a3869 3869 0 0 1-6.048-3.487c-6.417-3.704-12.848-7.416-19.309-11.004l-.783.973-.003.003-.029.037-.833 1.036-.203-.07-.149-.051-.005-.001-.347-.119c-.058-6.8-.019-13.581.021-20.358.062-10.626.124-21.244-.194-31.911-4.079 1.969-7.825 1.831-11.971-.053-.004 16.642-.009 33.004-.04 49.614 0 .199.015.403.029.61.053.746.108 1.519-.51 2.16-1.189-.757-1.291-1.83-1.287-2.961.005-.841-.001-1.682-.007-2.522v-.002c-.01-1.447-.02-2.895.025-4.343.049-1.55-.57-2.53-1.893-3.336-3.945-2.264-7.812-4.716-11.68-7.169-5.762-3.654-11.524-7.309-17.547-10.341-.265.37-.336.83-.406 1.28-.134.867-.264 1.7-1.758 1.797-.043-6.057-.025-12.021-.008-17.957v-.001c.033-11.543.066-22.985-.34-34.818-3.798 1.848-7.281 1.46-11.097.222-.148 7.077-.028 14.189.092 21.293.177 10.474.354 20.932-.328 31.239-1.304-.427-1.298-1.353-1.292-2.239l.001-.069v-.106l-.001-.133q-.012-.888-.031-1.778v-.002c-.039-1.881-.077-3.763.031-5.635.125-2.075-.588-3.349-2.405-4.445-3.614-2.097-7.159-4.341-10.704-6.584v-.001h-.001c-4.758-3.012-9.517-6.024-14.443-8.681l-.565.761-1.1 1.484-.619-.161c-.084-6.669-.052-13.326-.021-19.98v-.001c.05-10.733.101-21.459-.331-32.216-4.057 1.866-7.793 1.799-11.895-.031-.008 8.528.003 16.799.015 25.051v.006c.013 9.055.026 18.084.012 27.403zm-8.372-145.08-.401-.468c-13.138 3.331-16.513 18.65-15.72 30.465.011.202.115.399.255.663.076.146.164.311.252.509q1.398-.8 2.77-1.577c2.576-1.461 5.089-2.887 7.553-4.395 1.326-1.022 1.192-3.08 1.09-4.648l-.008-.113c-.254-7.076 1.051-14.064 4.209-20.436m14.638 85.784-.237.056c-2.669.62-8.611 2.002-4.662 5.315 6.204 3.955 17.506-2.676 4.899-5.371m89.788 61.986c.501-.15 1.007-.278 1.51-.404 1.102-.278 2.185-.55 3.148-1.052 1.91-.997 1.848-3.042-.076-4.048-6.689-3.817-16.967 3.059-4.582 5.509zm-46.934-28.234.191-.044c2.431-.569 7.731-1.809 4.231-4.805-5.798-3.674-16.174 2.614-4.422 4.849m18.17-53.088c3.767-1.078 7.036-3.26 7.931-5.215-3.501-.066-5.323 2.112-7.133 4.275q-.396.476-.798.94m95.319 347.566v.003c-.068.468-.136.935-.219 1.399.348 9.61 7.286 21.505 15.56 26.305 8.894 5.015 9.027-2.894 8.092-9.507-1.625-8.061-5.66-14.821-11.966-20.147-2.627-2.223-9.094-6.239-10.826-1.203-.331 1.013-.486 2.081-.641 3.15m5.749-3.733c9.209 3.625 16.593 16.544 16.829 26.849-.396 6.921-3.954 4.912-8.31 2.2-7.241-5.66-11.516-13.115-12.848-22.2-.262-2.984-.285-8.96 4.329-6.849M161.289 361.332l-.046.304c-.451 2.946-1.176 7.695-5.169 6.176-2.119-.757-4.31-1.706-6.038-3.108-8.19-6.765-14.086-17.168-12.563-28.025 2.017-10.653 18.757 5.816 20.071 10.639 1.951 4.382 3.647 8.995 3.745 14.01zm-1.478-.204c-.526-7.522-3.803-14.367-8.675-20.005-2.018-2.654-11.339-10.661-12.439-3.896-1.037 10.545 4.921 21.211 13.432 27.285 4.943 3.033 7.392 3.211 7.677-3.384zm96.187 62.723c-.103.488-.207.977-.32 1.462l-.004-.004c.263 9.361 7.459 21.786 15.524 26.337 9.477 5.727 9.57-4.485 7.874-11.058-2.053-7.624-6.11-13.983-12.247-19.046-2.369-2.312-8.096-5.1-10.011-.985-.347 1.077-.581 2.185-.816 3.294m8.333-2.225c8.546 5.963 13.013 14.318 14.335 24.409-.472 6.172-1.563 7.321-7.178 4.164-8.484-5.999-13.227-14.211-14.135-24.569-.152-6.061 1.87-7.081 6.978-4.004"/>
</svg>
