<svg xmlns="http://www.w3.org/2000/svg" width="20" height="20" viewBox="0 0 20 20">
    <path d="m9.66 17.914.34-.615.339.615a.71.71 0 0 1-.679 0"/>
    <path fill-rule="evenodd" d="M13.108 9.6a.612.612 0 0 0 0-1.083l-4.66-2.445a.612.612 0 0 0-.895.542v4.89a.612.612 0 0 0 .896.542zm-4.332.892V7.626l2.731 1.433z" clip-rule="evenodd"/>
    <path fill-rule="evenodd" d="m9.66 17.914.34-.615c.339.615.34.614.34.614h.002l.005-.003.016-.01.057-.032a14 14 0 0 0 .906-.583 15.5 15.5 0 0 0 2.12-1.79c1.536-1.561 3.142-3.917 3.142-6.955C16.588 4.928 13.638 2 10 2 6.36 2 3.412 4.928 3.412 8.54c0 3.038 1.606 5.394 3.142 6.955a15.5 15.5 0 0 0 2.823 2.253 9 9 0 0 0 .26.153l.016.009.005.002zM4.823 8.54c0-2.838 2.318-5.139 5.177-5.139s5.176 2.301 5.176 5.14c0 2.523-1.334 4.546-2.74 5.974A14 14 0 0 1 10 16.482a14 14 0 0 1-2.436-1.966c-1.406-1.43-2.74-3.452-2.74-5.976Z" clip-rule="evenodd"/>
</svg>
