<svg xmlns="http://www.w3.org/2000/svg" width="21" height="20" fill="none" viewBox="0 0 21 20">
    <path fill="#727683" d="M10.702 2.25a.75.75 0 0 1 .75.75v14a.75.75 0 0 1-1.5 0V3a.75.75 0 0 1 .75-.75m3.008 2.505a.75.75 0 0 1 .75.75v9.018a.75.75 0 0 1-1.5 0V5.505a.75.75 0 0 1 .75-.75m-9.026.496a.75.75 0 0 1 .75.75v7.996a.75.75 0 0 1-1.5 0V6.001a.75.75 0 0 1 .75-.75M7.693 7.25a.75.75 0 0 1 .75.75v3.998a.75.75 0 0 1-1.5 0V8a.75.75 0 0 1 .75-.75m9.027 0a.75.75 0 0 1 .75.75v3.998a.75.75 0 0 1-1.5 0V8a.75.75 0 0 1 .75-.75"/>
</svg>
