<svg xmlns="http://www.w3.org/2000/svg" width="21" height="20" fill="none" viewBox="0 0 21 20">
    <path fill="#727683" d="M10.702 2.25C11.116 2.25 11.452 2.586 11.452 3V17C11.452 17.414 11.116 17.75 10.702 17.75 10.288 17.75 9.952 17.414 9.952 17V3C9.952 2.586 10.288 2.25 10.702 2.25ZM13.711 4.755C14.125 4.755 14.461 5.091 14.461 5.505V14.523C14.461 14.937 14.125 15.273 13.711 15.273 13.297 15.272 12.961 14.937 12.961 14.523V5.505C12.961 5.091 13.297 4.755 13.711 4.755ZM4.684 5.251C5.099 5.251 5.434 5.587 5.434 6.001V13.997C5.434 14.411 5.098 14.747 4.684 14.747 4.27 14.747 3.935 14.411 3.934 13.997V6.001C3.934 5.587 4.27 5.251 4.684 5.251ZM7.693 7.25C8.107 7.25 8.443 7.586 8.443 8V11.998C8.443 12.412 8.107 12.748 7.693 12.748 7.279 12.748 6.943 12.412 6.943 11.998V8C6.943 7.586 7.279 7.25 7.693 7.25ZM16.72 7.25C17.134 7.25 17.47 7.586 17.47 8V11.998C17.469 12.412 17.134 12.748 16.72 12.748 16.306 12.748 15.97 12.412 15.97 11.998V8C15.97 7.586 16.305 7.25 16.72 7.25Z"/>
</svg>
