<svg xmlns="http://www.w3.org/2000/svg" width="56" height="56" fill="none" viewBox="0 0 56 56">
    <path fill="#000" d="M8.753 4a.54.54 0 0 1 .56.559V51.44a.54.54 0 0 1-.56.56H4.559A.54.54 0 0 1 4 51.44V4.56c0-.327.233-.56.56-.56zm10.673 0c.326 0 .559.233.559.559V51.44a.54.54 0 0 1-.56.56h-4.193a.54.54 0 0 1-.56-.56V4.56c0-.326.233-.559.56-.559zm10.671 0a.54.54 0 0 1 .56.559V51.44a.54.54 0 0 1-.56.56h-4.194a.54.54 0 0 1-.56-.56V4.56a.54.54 0 0 1 .56-.559zM40.77 4c.326 0 .559.233.559.559V51.44a.54.54 0 0 1-.56.56h-4.193a.54.54 0 0 1-.56-.56V4.56c0-.326.233-.559.56-.559zm10.67 18.67c.327 0 .56.231.56.558v9.544a.54.54 0 0 1-.56.559h-4.193a.54.54 0 0 1-.56-.559v-9.544a.54.54 0 0 1 .56-.559z"/>
</svg>
