<svg xmlns="http://www.w3.org/2000/svg">
    <path fill-rule="evenodd" d="M10 9.167a.836.836 0 0 1-.833-.833.836.836 0 0 1 1.558-.417c.233.4.742.533 1.142.3a.83.83 0 0 0 .3-1.142A2.51 2.51 0 0 0 10 5.825a2.497 2.497 0 0 0-2.5 2.5c0 1.384 1.117 2.5 2.5 2.5.458 0 .833.375.833.834a.836.836 0 0 1-1.558.416.83.83 0 0 0-1.142-.3.83.83 0 0 0-.3 1.142A2.52 2.52 0 0 0 10 14.167c1.383 0 2.5-1.117 2.5-2.5s-1.117-2.5-2.5-2.5M5.833 7.5a.836.836 0 0 0 .834-.833.836.836 0 0 0-.834-.834H2.5v8.334h3.333a.836.836 0 0 0 .834-.834.836.836 0 0 0-.834-.833H4.167v-1.667h1.666A.836.836 0 0 0 6.667 10a.836.836 0 0 0-.834-.833H4.167V7.5zm10.592 4.6a.836.836 0 0 1 1.133-.325v.008c.4.225.55.734.325 1.133a2.43 2.43 0 0 1-2.116 1.259c-1.375 0-2.434-1.15-2.434-2.5V8.34c0-1.35 1.059-2.5 2.434-2.5a2.41 2.41 0 0 1 2.116 1.26c.225.4.075.908-.325 1.133a.836.836 0 0 1-1.133-.325.75.75 0 0 0-.658-.408c-.392 0-.767.341-.767.833v3.35c.008.492.375.825.767.825.266 0 .516-.15.658-.408" clip-rule="evenodd"/>
</svg>
