<svg>
    <path fill-rule="evenodd" d="M6.287 13.395C6.669 13.013 7.288 13.013 7.67 13.395L9.913 15.638 12.156 13.395C12.538 13.013 13.158 13.013 13.54 13.395 13.922 13.777 13.922 14.397 13.54 14.779L10.605 17.714C10.223 18.096 9.603 18.096 9.221 17.714L6.287 14.779C5.904 14.397 5.904 13.777 6.287 13.395ZM13.54 7.605C13.158 7.987 12.538 7.987 12.156 7.605L9.913 5.362 7.67 7.605C7.288 7.987 6.669 7.987 6.287 7.605 5.904 7.223 5.904 6.603 6.287 6.221L9.221 3.287C9.603 2.904 10.223 2.904 10.605 3.287L13.54 6.221C13.922 6.603 13.922 7.223 13.54 7.605Z" clip-rule="evenodd"/>
</svg>
