<svg xmlns="http://www.w3.org/2000/svg">
    <path fill-rule="evenodd" d="M10.816 18.333a8 8 0 0 1-2.888-.526c.29-.046.388-.284.388-.502 0-.25.006-.946 0-1.823-2.855.635-3.447-1.383-3.447-1.383-.466-1.213-1.139-1.535-1.139-1.535-.932-.652.07-.64.07-.64 1.03.075 1.573 1.083 1.573 1.083.916 1.603 2.402 1.14 2.987.873.094-.68.36-1.142.653-1.404-2.28-.266-4.676-1.166-4.676-5.189 0-1.147.4-2.083 1.056-2.817-.106-.265-.459-1.333.1-2.779 0 0 .863-.282 2.823 1.077a9.6 9.6 0 0 1 2.57-.353 9.6 9.6 0 0 1 2.571.353c1.96-1.358 2.822-1.077 2.822-1.077.559 1.446.207 2.514.101 2.78.657.732 1.056 1.67 1.056 2.816 0 4.034-2.4 4.92-4.688 5.18.368.325.703.955.703 1.934v2.906c0 .185.072.384.27.468a8 8 0 0 1-2.905.558" clip-rule="evenodd"/>
</svg>
