<svg width="20" height="20" viewBox="0 0 20 20" fill="none" xmlns="http://www.w3.org/2000/svg">
<path fill-rule="evenodd" clip-rule="evenodd" d="M8.68108 3.75C8.68108 3.33579 9.01687 3 9.43108 3H15.1122C15.5264 3 15.8622 3.33579 15.8622 3.75C15.8622 4.16421 15.5264 4.5 15.1122 4.5H12.7601L8.83187 15.5H10.5673C10.9815 15.5 11.3173 15.8358 11.3173 16.25C11.3173 16.6642 10.9815 17 10.5673 17H4.8877C4.47348 17 4.1377 16.6642 4.1377 16.25C4.1377 15.8358 4.47348 15.5 4.8877 15.5H7.23909L11.1673 4.5H9.43108C9.01687 4.5 8.68108 4.16421 8.68108 3.75Z" fill="#727683"/>
</svg>
