<svg xmlns="http://www.w3.org/2000/svg" width="20" height="20" fill="none" viewBox="0 0 20 20">
    <path fill="#727683" fill-rule="evenodd" d="M6.79 5.651a.75.75 0 0 1 .75-.75h8.695a.75.75 0 0 1 0 1.5H7.541a.75.75 0 0 1-.75-.75m0 4.35a.75.75 0 0 1 .75-.75h8.694a.75.75 0 0 1 0 1.5H7.541a.75.75 0 0 1-.75-.75m0 4.346a.75.75 0 0 1 .75-.75h8.694a.75.75 0 0 1 0 1.5H7.539a.75.75 0 0 1-.75-.75M3.015 4.079c0-.403.326-.729.728-.729h.809a.73.73 0 0 1 .729.729v1.963h.077a.728.728 0 0 1 0 1.457H3.743a.728.728 0 1 1 0-1.457h.08V4.807h-.08a.73.73 0 0 1-.728-.728m1.58 5.025a.08.08 0 0 0-.087.018.728.728 0 1 1-1.056-1.004 1.536 1.536 0 1 1 2.18 2.164l-.089.089a.729.729 0 0 1-.184 1.433h-1.55a.728.728 0 0 1-.516-1.244L4.62 9.234a.08.08 0 0 0 .018-.087.08.08 0 0 0-.043-.043m-1.58 3.589c0-.403.326-.729.728-.729h.808a1.536 1.536 0 0 1 1.307 2.343A1.536 1.536 0 0 1 4.55 16.65h-.808a.729.729 0 0 1 0-1.457h.808a.08.08 0 0 0 .056-.135.08.08 0 0 0-.056-.022h-.27a.728.728 0 1 1 0-1.457h.27a.08.08 0 1 0 0-.158h-.808a.73.73 0 0 1-.728-.728" clip-rule="evenodd"/>
</svg>
