<svg xmlns="http://www.w3.org/2000/svg" width="20" height="20" fill="none" viewBox="0 0 20 20">
    <path fill="#727683" d="M5.007 6.092C5.007 6.646 4.558 7.096 4.003 7.096 3.449 7.096 3 6.646 3 6.092 3 5.538 3.449 5.089 4.003 5.089 4.558 5.089 5.007 5.538 5.007 6.092ZM6.592 6.096C6.592 5.683 6.927 5.348 7.34 5.348H16.252C16.665 5.348 17 5.683 17 6.096 17 6.509 16.665 6.844 16.252 6.844H7.34C6.927 6.844 6.592 6.509 6.592 6.096ZM5.007 10C5.007 10.554 4.558 11.003 4.003 11.003 3.449 11.003 3 10.554 3 10 3 9.446 3.449 8.997 4.003 8.997 4.558 8.997 5.007 9.446 5.007 10ZM6.592 10.003C6.592 9.59 6.927 9.255 7.34 9.255H16.252C16.665 9.255 17 9.59 17 10.003 17 10.417 16.665 10.751 16.252 10.751H7.34C6.927 10.751 6.592 10.417 6.592 10.003ZM5.007 13.907C5.007 14.462 4.558 14.911 4.003 14.911 3.449 14.911 3 14.462 3 13.907 3 13.353 3.449 12.904 4.003 12.904 4.558 12.904 5.007 13.353 5.007 13.907ZM6.592 13.911C6.592 13.498 6.927 13.163 7.34 13.163H16.252C16.665 13.163 17 13.498 17 13.911 17 14.324 16.665 14.659 16.252 14.659H7.34C6.927 14.659 6.592 14.324 6.592 13.911Z"/>
</svg>
