<svg xmlns="http://www.w3.org/2000/svg" width="20" height="20" fill="none" viewBox="0 0 20 20">
    <path fill="#727683" d="M5.007 6.092a1.003 1.003 0 1 1-2.007 0 1.003 1.003 0 0 1 2.007 0m1.585.004c0-.413.335-.748.748-.748h8.912a.748.748 0 0 1 0 1.496H7.34a.75.75 0 0 1-.748-.748M5.007 10A1.003 1.003 0 1 1 3 10a1.003 1.003 0 0 1 2.007 0m1.585.003c0-.413.335-.748.748-.748h8.912a.748.748 0 0 1 0 1.496H7.34a.75.75 0 0 1-.748-.748m-1.585 3.904a1.003 1.003 0 1 1-2.007 0 1.003 1.003 0 0 1 2.007 0m1.585.003c0-.412.335-.747.748-.747h8.912a.748.748 0 0 1 0 1.496H7.34a.75.75 0 0 1-.748-.748"/>
</svg>
