<svg xmlns="http://www.w3.org/2000/svg" width="20" height="20" fill="none" viewBox="0 0 20 20">
    <path fill="#727683" fill-rule="evenodd" d="M6.791 5.651C6.791 5.237 7.127 4.901 7.541 4.901H16.235C16.65 4.901 16.985 5.237 16.985 5.651 16.985 6.066 16.65 6.401 16.235 6.401H7.541C7.127 6.401 6.791 6.066 6.791 5.651ZM6.791 10.001C6.791 9.587 7.127 9.251 7.541 9.251H16.234C16.648 9.251 16.984 9.587 16.984 10.001 16.984 10.415 16.648 10.751 16.234 10.751H7.541C7.127 10.751 6.791 10.415 6.791 10.001ZM6.789 14.347C6.789 13.933 7.125 13.597 7.539 13.597H16.234C16.648 13.597 16.984 13.933 16.984 14.347 16.984 14.762 16.648 15.097 16.234 15.097H7.539C7.125 15.097 6.789 14.762 6.789 14.347ZM3.015 4.079C3.015 3.676 3.341 3.35 3.743 3.35H4.552C4.954 3.35 5.281 3.676 5.281 4.079V6.042H5.358C5.761 6.042 6.087 6.368 6.087 6.771 6.087 7.173 5.761 7.499 5.358 7.499H3.743C3.341 7.499 3.015 7.173 3.015 6.771 3.015 6.368 3.341 6.042 3.743 6.042H3.824V4.807H3.743C3.341 4.807 3.015 4.481 3.015 4.079ZM4.595 9.104C4.585 9.1 4.575 9.098 4.564 9.098 4.554 9.098 4.543 9.1 4.533 9.104 4.524 9.109 4.515 9.115 4.508 9.122 4.231 9.414 3.769 9.426 3.478 9.148 3.186 8.871 3.175 8.41 3.452 8.118 3.593 7.97 3.763 7.851 3.951 7.769 4.138 7.687 4.341 7.644 4.546 7.641 4.75 7.638 4.954 7.677 5.144 7.754 5.334 7.831 5.506 7.946 5.651 8.09 5.796 8.235 5.91 8.408 5.988 8.597 6.065 8.787 6.104 8.991 6.101 9.196 6.099 9.4 6.055 9.603 5.973 9.791 5.893 9.975 5.777 10.142 5.632 10.282L5.543 10.371C5.856 10.452 6.087 10.737 6.087 11.076 6.087 11.478 5.761 11.804 5.359 11.804H3.808C3.514 11.804 3.248 11.627 3.135 11.354 3.023 11.082 3.085 10.769 3.293 10.56L4.62 9.234C4.627 9.227 4.633 9.218 4.638 9.209 4.642 9.199 4.644 9.188 4.644 9.178 4.644 9.167 4.642 9.157 4.638 9.147 4.634 9.137 4.629 9.128 4.621 9.121 4.614 9.114 4.605 9.108 4.595 9.104ZM3.015 12.693C3.015 12.29 3.341 11.964 3.743 11.964H4.551C4.958 11.964 5.349 12.126 5.637 12.414 5.925 12.702 6.087 13.093 6.087 13.5 6.087 13.788 6.006 14.067 5.858 14.307 6.006 14.548 6.087 14.827 6.087 15.114 6.087 15.522 5.925 15.912 5.637 16.2 5.349 16.488 4.958 16.65 4.551 16.65H3.743C3.341 16.65 3.015 16.324 3.015 15.922 3.015 15.519 3.341 15.193 3.743 15.193H4.551C4.572 15.193 4.592 15.185 4.607 15.17 4.621 15.155 4.63 15.135 4.63 15.114 4.63 15.093 4.621 15.073 4.607 15.058 4.594 15.046 4.575 15.036 4.551 15.036H4.281C3.879 15.036 3.553 14.71 3.553 14.308 3.553 13.906 3.879 13.579 4.281 13.579H4.551C4.572 13.579 4.592 13.571 4.607 13.556 4.621 13.542 4.63 13.521 4.63 13.5 4.63 13.479 4.621 13.459 4.607 13.444 4.592 13.43 4.572 13.421 4.551 13.421H3.743C3.341 13.421 3.015 13.095 3.015 12.693Z" clip-rule="evenodd"/>
</svg>
