<svg xmlns="http://www.w3.org/2000/svg" width="20" height="20" fill="none" viewBox="0 0 20 20">
    <path fill="#727683" fill-rule="evenodd" d="M7.083 7.833a.75.75 0 0 1 .75-.75h2.209a.75.75 0 0 1 0 1.5H8.583v8.167h8.167V8.583h-1.458a.75.75 0 0 1 0-1.5H17.5a.75.75 0 0 1 .75.75V17.5a.75.75 0 0 1-.75.75H7.833a.75.75 0 0 1-.75-.75z" clip-rule="evenodd"/>
    <path fill="#727683" fill-rule="evenodd" d="M2.25 12.667c0 .414.336.75.75.75h2.208a.75.75 0 0 0 0-1.5H3.75V3.75h8.167v8.167h-1.459a.75.75 0 0 0 0 1.5h2.209a.75.75 0 0 0 .75-.75V3a.75.75 0 0 0-.75-.75H3a.75.75 0 0 0-.75.75z" clip-rule="evenodd"/>
</svg>
