<svg xmlns="http://www.w3.org/2000/svg" width="20" height="20" fill="none" viewBox="0 0 20 20">
    <path d="M8.367 10a7 7 0 0 1 6.537 4.49 1.23 1.23 0 0 1-.408 1.41A9.96 9.96 0 0 1 8.364 18a9.96 9.96 0 0 1-6.126-2.096 1.23 1.23 0 0 1-.408-1.41A7 7 0 0 1 8.367 10"/>
    <path d="M13.43 2.803a2.884 2.884 0 0 1 3.994 0 2.686 2.686 0 0 1 0 3.877q-.234.225-.5.386v1.895c0 .09-.037.178-.103.242l-.896.87.75.726a.336.336 0 0 1 0 .484l-.999.97a.36.36 0 0 1-.5 0l-1.143-1.111a.34.34 0 0 1-.104-.243V7.066a2.8 2.8 0 0 1-.499-.386 2.685 2.685 0 0 1 0-3.877m2.994.97a1.44 1.44 0 0 0-1.996 0 .503.503 0 0 0 0 .726c.207.2.542.2.748 0a.36.36 0 0 1 .5 0c.207.2.542.2.748 0a.503.503 0 0 0 0-.727" clip-rule="evenodd"/>
    <path d="M8.364 2a3 3 0 1 1 0 6 3 3 0 0 1 0-6"/>
</svg>
