<svg width="20" height="20" viewBox="0 0 20 20" fill="none" xmlns="http://www.w3.org/2000/svg">
<path d="M6.5 10C6.5 10.9665 5.7165 11.75 4.75 11.75C3.7835 11.75 3 10.9665 3 10C3 9.0335 3.7835 8.25 4.75 8.25C5.7165 8.25 6.5 9.0335 6.5 10Z" />
<path d="M13.5 10C13.5 10.9665 14.2835 11.75 15.25 11.75C16.2165 11.75 17 10.9665 17 10C17 9.0335 16.2165 8.25 15.25 8.25C14.2835 8.25 13.5 9.0335 13.5 10Z" />
<path d="M3 10C3 9.63756 3.29381 9.34375 3.65625 9.34375H16.3438C16.7062 9.34375 17 9.63756 17 10C17 10.3624 16.7062 10.6562 16.3438 10.6562H3.65625C3.29381 10.6562 3 10.3624 3 10Z" />
</svg>
