<svg xmlns="http://www.w3.org/2000/svg" width="20" height="20" fill="none" viewBox="0 0 20 20">
    <path d="M6.5 10C6.5 10.967 5.717 11.75 4.75 11.75 3.784 11.75 3 10.967 3 10 3 9.034 3.784 8.25 4.75 8.25 5.717 8.25 6.5 9.034 6.5 10ZM13.5 10C13.5 10.967 14.284 11.75 15.25 11.75 16.217 11.75 17 10.967 17 10 17 9.034 16.217 8.25 15.25 8.25 14.284 8.25 13.5 9.034 13.5 10Z"/>
    <path d="M3 10C3 9.63756 3.29381 9.34375 3.65625 9.34375H16.3438C16.7062 9.34375 17 9.63756 17 10C17 10.3624 16.7062 10.6562 16.3438 10.6562H3.65625C3.29381 10.6562 3 10.3624 3 10Z"/>
</svg>
