<svg width="20" height="20" viewBox="0 0 20 20" fill="none" xmlns="http://www.w3.org/2000/svg">
<path fill-rule="evenodd" clip-rule="evenodd" d="M10 2.5C10.3883 2.5 10.7031 2.8148 10.7031 3.20312V15.0063L12.5316 13.0372C12.7959 12.7526 13.2408 12.7361 13.5253 13.0004C13.8099 13.2646 13.8264 13.7095 13.5621 13.9941L10.5152 17.2753C10.3822 17.4186 10.1955 17.5 10 17.5C9.80449 17.5 9.6178 17.4186 9.48476 17.2753L6.43788 13.9941C6.17365 13.7095 6.19012 13.2646 6.47469 13.0004C6.75925 12.7361 7.20414 12.7526 7.46837 13.0372L9.29688 15.0063V3.20312C9.29688 2.8148 9.61168 2.5 10 2.5Z" />
<path d="M11.875 4.375C11.875 5.41053 11.0355 6.25 10 6.25C8.96447 6.25 8.125 5.41053 8.125 4.375C8.125 3.33947 8.96447 2.5 10 2.5C11.0355 2.5 11.875 3.33947 11.875 4.375Z" />
</svg>
