<svg width="20" height="20" viewBox="0 0 20 20" fill="none" xmlns="http://www.w3.org/2000/svg">
<path fill-rule="evenodd" clip-rule="evenodd" d="M17.5 10C17.5 10.3883 17.1852 10.7031 16.7969 10.7031L4.99366 10.7031L6.96282 12.5316C7.24738 12.7959 7.26386 13.2408 6.99962 13.5253C6.73538 13.8099 6.29049 13.8264 6.00593 13.5621L2.72468 10.5152C2.58141 10.3822 2.5 10.1955 2.5 10C2.5 9.80449 2.58141 9.6178 2.72468 9.48476L6.00593 6.43788C6.2905 6.17365 6.73538 6.19012 6.99962 6.47469C7.26386 6.75925 7.24738 7.20414 6.96282 7.46837L4.99366 9.29688L16.7969 9.29688C17.1852 9.29688 17.5 9.61168 17.5 10Z" />
<path d="M17.5 10C17.5 11.0355 16.6605 11.875 15.625 11.875C14.5895 11.875 13.75 11.0355 13.75 10C13.75 8.96447 14.5895 8.125 15.625 8.125C16.6605 8.125 17.5 8.96447 17.5 10Z" />
</svg>
