<svg width="20" height="20" viewBox="0 0 20 20" fill="none" xmlns="http://www.w3.org/2000/svg">
<path fill-rule="evenodd" clip-rule="evenodd" d="M2.5 10C2.5 9.61168 2.8148 9.29688 3.20312 9.29688L15.0063 9.29688L13.0372 7.46837C12.7526 7.20414 12.7361 6.75925 13.0004 6.47469C13.2646 6.19012 13.7095 6.17365 13.9941 6.43788L17.2753 9.48476C17.4186 9.6178 17.5 9.80449 17.5 10C17.5 10.1955 17.4186 10.3822 17.2753 10.5152L13.9941 13.5621C13.7095 13.8264 13.2646 13.8099 13.0004 13.5253C12.7361 13.2408 12.7526 12.7959 13.0372 12.5316L15.0063 10.7031L3.20313 10.7031C2.8148 10.7031 2.5 10.3883 2.5 10Z" />
<path d="M6.25 10C6.25 11.0355 5.41053 11.875 4.375 11.875C3.33947 11.875 2.5 11.0355 2.5 10C2.5 8.96447 3.33947 8.125 4.375 8.125C5.41053 8.125 6.25 8.96447 6.25 10Z" />
</svg>
