<svg xmlns="http://www.w3.org/2000/svg">
    <path d="M2 4.25A2.25 2.25 0 0 1 4.25 2h5.5A2.25 2.25 0 0 1 12 4.25v2a.75.75 0 0 1-1.5 0v-2a.75.75 0 0 0-.75-.75h-5.5a.75.75 0 0 0-.75.75v11.5c0 .414.336.75.75.75h5.5a.75.75 0 0 0 .75-.75v-2a.75.75 0 0 1 1.5 0v2A2.25 2.25 0 0 1 9.75 18h-5.5A2.25 2.25 0 0 1 2 15.75z"/>
    <path d="M5 10a.75.75 0 0 1 .75-.75h9.546l-1.048-.943a.75.75 0 1 1 1.004-1.114l2.5 2.25a.75.75 0 0 1 0 1.114l-2.5 2.25a.75.75 0 1 1-1.004-1.114l1.048-.943H5.75A.75.75 0 0 1 5 10"/>
</svg>
