<svg width="20" height="20" viewBox="0 0 20 20" fill="none" xmlns="http://www.w3.org/2000/svg">
<path fill-rule="evenodd" clip-rule="evenodd" d="M5.45507 3C5.86928 3 6.20507 3.33579 6.20507 3.75V9.43113C6.20507 9.92948 6.30323 10.423 6.49394 10.8834C6.68465 11.3438 6.96418 11.7621 7.31657 12.1145C7.66896 12.4669 8.08731 12.7465 8.54773 12.9372C9.00815 13.1279 9.50162 13.226 9.99997 13.226C10.4983 13.226 10.9918 13.1279 11.4522 12.9372C11.9126 12.7465 12.331 12.4669 12.6834 12.1145C13.0358 11.7621 13.3153 11.3438 13.506 10.8834C13.6967 10.423 13.7949 9.92948 13.7949 9.43113V3.75C13.7949 3.33579 14.1307 3 14.5449 3C14.9591 3 15.2949 3.33579 15.2949 3.75V9.43113C15.2949 10.1265 15.1579 10.815 14.8918 11.4574C14.6257 12.0998 14.2357 12.6835 13.744 13.1752C13.2524 13.6669 12.6687 14.0569 12.0262 14.323C11.3838 14.5891 10.6953 14.726 9.99997 14.726C9.30464 14.726 8.61611 14.5891 7.9737 14.323C7.3313 14.0569 6.74759 13.6669 6.25591 13.1752C5.76424 12.6835 5.37422 12.0998 5.10812 11.4574C4.84203 10.815 4.70507 10.1265 4.70507 9.43113L4.70507 3.75C4.70507 3.33579 5.04086 3 5.45507 3ZM3.00073 16.25C3.00073 15.8358 3.33652 15.5 3.75073 15.5H16.2492C16.6634 15.5 16.9992 15.8358 16.9992 16.25C16.9992 16.6642 16.6634 17 16.2492 17H3.75073C3.33652 17 3.00073 16.6642 3.00073 16.25Z" fill="#727683"/>
</svg>
