<svg xmlns="http://www.w3.org/2000/svg" width="140" height="140" fill="none">
    <path fill="#fff" d="M38.607 19.498c-.739 0-.739 1.173 0 1.173s.739-1.173 0-1.173M8.748 55.052c-.74 0-.74 1.173 0 1.173.739 0 .739-1.173 0-1.173m18.244 23.126c-.74 0-.74 1.173 0 1.173.739 0 .739-1.173 0-1.173M16.04 119.409c-.738 0-.738 1.172 0 1.172.74 0 .74-1.172 0-1.172m24.913 0c-.74 0-.74 1.172 0 1.172.739 0 .739-1.172 0-1.172m29.215-15.925c-.74 0-.74 1.173 0 1.173.738 0 .738-1.173 0-1.173m.441 18.315c-.739 0-.739 1.172 0 1.172s.739-1.172 0-1.172M107.765 43.7c-.739 0-.739 1.173 0 1.173s.739-1.172 0-1.172Zm-7.941 12.431c-.74 0-.74 1.173 0 1.173.739 0 .739-1.173 0-1.173M85.853 7.044c-.739 0-.739 1.173 0 1.173s.739-1.173 0-1.173M79.41 18.396c-.74 0-.74 1.173 0 1.173.739 0 .739-1.173 0-1.173M56.642 8.568c-.739 0-.739 1.173 0 1.173s.739-1.173 0-1.173m66.809 87.058c-.739 0-.739 1.173 0 1.173s.739-1.173 0-1.173m-17.389-3.706c-.739 0-.739 1.173 0 1.173s.739-1.172 0-1.172ZM16.04 30.614c-.738 0-.738 1.173 0 1.173.74 0 .74-1.173 0-1.173m111.282 87.058c-.739 0-.739 1.173 0 1.173s.739-1.173 0-1.173M65.23 138.828c-.739 0-.739 1.173 0 1.173s.739-1.173 0-1.173"/>
    <path fill="url(#a)" d="M57.958 88.708c16.834 0 30.481-13.86 30.481-30.958S74.792 26.79 57.958 26.79 27.477 40.65 27.477 57.749c0 17.097 13.646 30.958 30.48 30.958Z"/>
    <path fill="url(#b)" d="M88.438 138.123c7.92 0 14.34-6.52 14.34-14.564s-6.42-14.564-14.34-14.564-14.34 6.52-14.34 14.564 6.42 14.564 14.34 14.564"/>
    <path fill="url(#c)" d="m14.867 46.54 6.835-14.565 15.518-1.689-6.835 14.564z"/>
    <path fill="url(#d)" d="M39.743 56.39 30.39 44.85l6.835-14.564 9.444 11.797-6.927 14.306Z"/>
    <path fill="url(#e)" d="M24.196 58.077 14.867 46.54l15.518-1.69 9.352 11.54-15.54 1.688Z"/>
    <path fill="url(#f)" d="m101.027 100.293 17.873 5.324 4.827 17.941-17.873-5.324z"/>
    <path fill="url(#g)" d="m94.473 131.392 11.384-13.157 17.873 5.324-11.638 13.274-17.62-5.441Z"/>
    <path fill="url(#i)" d="m89.644 113.451 11.385-13.157 4.826 17.941-11.384 13.158z"/>
    <path fill="url(#j)" d="M45.17 16.776c2.13 0 3.857-1.753 3.857-3.916s-1.726-3.917-3.856-3.917-3.856 1.753-3.856 3.917 1.726 3.916 3.856 3.916Z"/>
    <path fill="url(#k)" d="M8.105 89.223c4.477 0 8.105-3.686 8.105-8.232 0-4.547-3.628-8.233-8.105-8.233C3.63 72.758 0 76.445 0 80.992c0 4.546 3.629 8.232 8.105 8.232Z"/>
    <path fill="url(#l)" d="M36.715 134.676c2.525 0 4.572-2.079 4.572-4.644s-2.047-4.644-4.572-4.644-4.572 2.079-4.572 4.644 2.047 4.644 4.572 4.644"/>
    <path fill="url(#m)" d="M94.032 60.705C84.61 45.155 70.87 36.338 63.135 40.747l1.963 3.307c6.835-3.894 18.981 3.916 27.317 17.66 8.452 13.907 9.791 28.636 3.002 32.881-.046.023-.115.047-.162.094l1.986 3.307s.116-.07.185-.094c7.667-4.808 6.166-21.46-3.394-37.197"/>
    <path fill="url(#n)" d="M57.235 118.564s.162-3.588.208-4.737.162-2.017-1.385-4.316-3.857-5.84-3.857-5.84l-6.65 3.307-2.47 1.22s2.678 3.002 2.816 5.136c.139 2.134-.462 3.284 1.201 5.347s12.77 13.861 12.77 13.861l6.927-3.494z"/>
    <path fill="url(#o)" d="m59.32 116.875-2.078 1.689 9.56 10.484 2.078-1.689z"/>
    <path fill="url(#p)" d="M59.549 112.137c.046-1.15.161-2.017-1.386-4.316s-3.856-5.84-3.856-5.84l-9.122 4.527s.162.164.393.469l6.65-3.307s2.31 3.541 3.857 5.84 1.455 3.166 1.385 4.315c-.046 1.149-.207 4.738-.207 4.738l2.1-1.689s.163-3.588.209-4.737z"/>
    <path fill="url(#q)" d="M59.437 50.948s-9.33 23.97-22.007 32.178c-2.678 1.735-4.71 3.049-6.304 4.08-2.932 1.9-5.796 9.288-1.685 16.488 4.133 7.247 12.492 8.537 16.464 6.45 2.17-1.173 3.256-1.759 5.08-2.674 3.002-1.524 22.977-13.532 36.74-10.695 13.739 2.838-28.242-45.804-28.242-45.804z"/>
    <path fill="url(#r)" d="M29.416 103.671c-4.11-7.2-1.246-14.588 1.686-16.488-5.288 3.424-5.588 3.588-6.812 4.339-1.616.985-6.096 7.833-2.655 14.822 3.44 6.989 10.968 11.023 18.15 7.083 2.817-1.548 4.687-2.556 6.096-3.33-3.949 2.111-12.308.821-16.465-6.45z"/>
    <path fill="url(#s)" d="M95.405 94.59c6.786-4.246 5.443-18.97-3-32.888-8.443-13.916-20.789-21.755-27.575-17.509-6.786 4.247-5.443 18.971 3 32.888s20.789 21.756 27.575 17.51Z"/>
    <path fill="url(#t)" d="m79.648 62.16-15.171 8.443a62 62 0 0 0 3.371 6.473c1.94 3.19 4.064 6.051 6.304 8.514l13.07-10.953-7.574-12.5z"/>
    <path fill="url(#u)" d="M87.236 74.658c1.683-1.053 1.35-4.705-.745-8.157-2.094-3.451-5.155-5.396-6.838-4.342-1.683 1.053-1.35 4.705.744 8.156s5.156 5.396 6.839 4.343"/>
    <path fill="url(#v)" d="M124.329 17.762c-1.755 0-3.163 1.43-3.163 3.213 0 .657.208 1.267.531 1.783L89.9 48.04v-9.1c0-2.603.692-3.916 3.278-6.097 2.379-2.017 10.9-8.631 12.747-10.062a3.1 3.1 0 0 0 1.824.587c1.755 0 3.164-1.431 3.164-3.213s-1.409-3.214-3.164-3.214c-1.754 0-3.163 1.431-3.163 3.213 0 .657.185 1.267.531 1.76-2.078 1.618-10.322 8.02-12.654 10.014-2.84 2.416-3.695 4.034-3.695 6.989v10.014l-26.07 20.733.715.915 59.115-47a3.04 3.04 0 0 0 1.825.586c1.755 0 3.163-1.43 3.163-3.213s-1.408-3.213-3.163-3.213zm-16.58.352c1.109 0 2.009.915 2.009 2.04s-.9 2.04-2.009 2.04-2.009-.914-2.009-2.04.901-2.04 2.009-2.04m16.58 4.878c-1.108 0-2.009-.914-2.009-2.04s.901-2.04 2.009-2.04c1.109 0 2.009.914 2.009 2.04s-.9 2.04-2.009 2.04"/>
    <path fill="url(#w)" d="M116.642 56.695a3.08 3.08 0 0 0-2.401.305 3.06 3.06 0 0 0-1.478 1.947 3.3 3.3 0 0 0 .369 2.532L76.301 89.506l.692.938 9.86-7.505c.901.258 7.229 1.994 9.653 2.697.855.235 1.64.375 2.356.375 1.662 0 3.163-.656 5.264-2.134 2.263-1.595 4.988-3.705 6.074-4.526.3.234.646.398 1.039.516a3.4 3.4 0 0 0 .831.117c1.386 0 2.656-.938 3.048-2.369a3.22 3.22 0 0 0-.3-2.439 3.1 3.1 0 0 0-1.917-1.5c-1.685-.47-3.417.538-3.879 2.25-.254.915-.069 1.83.393 2.58-1.132.868-3.741 2.862-5.935 4.41-2.748 1.946-4.18 2.298-6.65 1.594a1696 1696 0 0 1-8.799-2.462l25.886-19.7c.301.234.67.421 1.063.539a3.4 3.4 0 0 0 .831.117c1.385 0 2.656-.938 3.048-2.369a3.22 3.22 0 0 0-.3-2.439c-.416-.75-1.085-1.29-1.917-1.501m-6.512 19.536a2.02 2.02 0 0 1 1.94-1.5c.185 0 .346.023.531.07.508.14.947.492 1.224.961.277.47.323 1.032.185 1.548-.3 1.08-1.409 1.736-2.471 1.43a2.056 2.056 0 0 1-1.409-2.508Zm7.621-15.9c-.301 1.078-1.409 1.735-2.471 1.43a2.056 2.056 0 0 1-1.409-2.51 2.02 2.02 0 0 1 1.94-1.5c.185 0 .346.023.531.07.508.14.947.492 1.224.961.254.47.323 1.032.185 1.548Z"/>
    <path fill="url(#x)" d="M73.272 52.38c1.755 0 3.164-1.431 3.164-3.214s-1.409-3.213-3.164-3.213-3.163 1.43-3.163 3.213c0 .657.208 1.267.531 1.783L59.51 59.79l.716.914 11.222-8.935a3.03 3.03 0 0 0 1.825.586v.023Zm0-5.254c1.109 0 2.01.915 2.01 2.04s-.901 2.04-2.01 2.04-2.009-.914-2.009-2.04.901-2.04 2.01-2.04Z"/>
    <path fill="url(#y)" d="M74.134 85.612A59.7 59.7 0 0 1 67.83 77.1a58 58 0 0 1-3.371-6.473c-5.265-11.75-5.358-22.82.392-26.408a2 2 0 0 0 .254-.141l-1.963-3.307s-.184.094-.277.164C55.2 45.742 56.7 62.394 66.26 78.131c9.468 15.62 23.276 24.461 30.99 19.912l-1.987-3.307c-5.242 3.096-13.67-.798-21.106-9.077z"/>
    <path fill="url(#z)" d="m52.227 80.991 1.454-.867s2.679 5.628 6.558 10.084l-1.339.868-6.235-3.002-.438-7.106z"/>
    <path fill="url(#A)" d="M36.022 93.585s13.07-8.841 16.21-12.594c0 0 2.263 5.558 6.697 10.085 0 0-11.939 5.722-18.497 9.756 0 0-4.018-2.861-4.387-7.247z"/>
    <path stroke="#fff" stroke-miterlimit="10" stroke-width="1.173" d="M107.764 105.87c10.803-6.761 8.671-30.192-4.763-52.336S69.919 18.921 59.116 25.682s-8.671 30.192 4.763 52.335 33.081 34.614 43.885 27.853Z" style="mix-blend-mode:overlay"/>
    <path stroke="#fff" stroke-miterlimit="10" stroke-width=".586" d="M121.105 105.585c12.335-7.718 9.892-34.483-5.455-59.78S77.863 6.257 65.528 13.976c-12.334 7.72-9.891 34.484 5.456 59.781s37.787 39.547 50.121 31.828Z" style="mix-blend-mode:overlay"/>
    <defs>
        <linearGradient id="c" x1="14.867" x2="37.22" y1="38.424" y2="38.424" gradientUnits="userSpaceOnUse">
            <stop stop-color="#4F0597"/>
            <stop offset="1" stop-color="#03D3DE"/>
        </linearGradient>
        <linearGradient id="d" x1="30.391" x2="46.67" y1="43.349" y2="43.349" gradientUnits="userSpaceOnUse">
            <stop stop-color="#4F0597"/>
            <stop offset="1" stop-color="#03D3DE"/>
        </linearGradient>
        <linearGradient id="e" x1="-16.076" x2="39.737" y1="51.464" y2="51.464" gradientUnits="userSpaceOnUse">
            <stop stop-color="#4F0597"/>
            <stop offset="1" stop-color="#03D3DE"/>
        </linearGradient>
        <linearGradient id="f" x1="101.027" x2="123.727" y1="111.925" y2="111.925" gradientUnits="userSpaceOnUse">
            <stop stop-color="#FFC700"/>
            <stop offset="1" stop-color="#FF0CD0"/>
        </linearGradient>
        <linearGradient id="g" x1="94.473" x2="-13.759" y1="127.546" y2="127.546" gradientUnits="userSpaceOnUse">
            <stop stop-color="#FFC700"/>
            <stop offset="1" stop-color="#FF0CD0"/>
        </linearGradient>
        <linearGradient id="i" x1="89.644" x2="105.855" y1="115.843" y2="115.843" gradientUnits="userSpaceOnUse">
            <stop stop-color="#FFC700"/>
            <stop offset="1" stop-color="#FF0CD0"/>
        </linearGradient>
        <linearGradient id="m" x1="167.348" x2="68.933" y1="58.219" y2="70.07" gradientUnits="userSpaceOnUse">
            <stop stop-color="#11053A"/>
            <stop offset=".52" stop-color="#4F0599"/>
            <stop offset="1" stop-color="#FF0CD0"/>
        </linearGradient>
        <linearGradient id="n" x1="59.891" x2="39.555" y1="112.677" y2="136.265" gradientUnits="userSpaceOnUse">
            <stop offset=".02" stop-color="#11053A"/>
            <stop offset=".52" stop-color="#4F0597"/>
            <stop offset="1" stop-color="#8230D7"/>
        </linearGradient>
        <linearGradient id="o" x1="53.224" x2="66.014" y1="112.466" y2="125.683" gradientUnits="userSpaceOnUse">
            <stop offset=".02" stop-color="#11053A"/>
            <stop offset=".52" stop-color="#4F0597"/>
            <stop offset="1" stop-color="#8230D7"/>
        </linearGradient>
        <linearGradient id="p" x1="44.654" x2="59.572" y1="97.854" y2="116.109" gradientUnits="userSpaceOnUse">
            <stop offset=".02" stop-color="#11053A"/>
            <stop offset=".52" stop-color="#4F0597"/>
            <stop offset="1" stop-color="#8230D7"/>
        </linearGradient>
        <linearGradient id="q" x1="75.509" x2="42.682" y1="116.64" y2="76.118" gradientUnits="userSpaceOnUse">
            <stop stop-color="#4F0599"/>
            <stop offset="1" stop-color="#fff"/>
        </linearGradient>
        <linearGradient id="r" x1="50.638" x2="24.834" y1="127.194" y2="96.183" gradientUnits="userSpaceOnUse">
            <stop stop-color="#11053A"/>
            <stop offset=".52" stop-color="#4F0599"/>
            <stop offset="1" stop-color="#FF0CD0"/>
        </linearGradient>
        <linearGradient id="s" x1="60.514" x2="99.725" y1="69.395" y2="69.395" gradientUnits="userSpaceOnUse">
            <stop stop-color="#4F0599"/>
            <stop offset="1" stop-color="#fff"/>
        </linearGradient>
        <linearGradient id="t" x1="79.186" x2="70.633" y1="78.718" y2="64.434" gradientUnits="userSpaceOnUse">
            <stop stop-color="#4F0599"/>
            <stop offset="1" stop-color="#fff"/>
        </linearGradient>
        <linearGradient id="u" x1="95.279" x2="81.503" y1="62.466" y2="69.168" gradientUnits="userSpaceOnUse">
            <stop stop-color="#11053A"/>
            <stop offset=".52" stop-color="#4F0599"/>
            <stop offset="1" stop-color="#FF0CD0"/>
        </linearGradient>
        <linearGradient id="v" x1="43.3" x2="77.844" y1="77.263" y2="51.162" gradientUnits="userSpaceOnUse">
            <stop stop-color="#4F0597"/>
            <stop offset="1" stop-color="#03D3DE"/>
        </linearGradient>
        <linearGradient id="w" x1="65.194" x2="99.737" y1="106.251" y2="80.174" gradientUnits="userSpaceOnUse">
            <stop stop-color="#4F0597"/>
            <stop offset="1" stop-color="#03D3DE"/>
        </linearGradient>
        <linearGradient id="x" x1="41.036" x2="75.581" y1="74.284" y2="48.183" gradientUnits="userSpaceOnUse">
            <stop stop-color="#4F0597"/>
            <stop offset="1" stop-color="#03D3DE"/>
        </linearGradient>
        <linearGradient id="y" x1="167.425" x2="68.987" y1="58.876" y2="70.727" gradientUnits="userSpaceOnUse">
            <stop stop-color="#11053A"/>
            <stop offset=".52" stop-color="#4F0599"/>
            <stop offset="1" stop-color="#FF0CD0"/>
        </linearGradient>
        <linearGradient id="z" x1="51.672" x2="56.916" y1="97.737" y2="84.212" gradientUnits="userSpaceOnUse">
            <stop stop-color="#4F0599"/>
            <stop offset="1" stop-color="#fff"/>
        </linearGradient>
        <linearGradient id="A" x1="51.47" x2="42.338" y1="100.715" y2="83.711" gradientUnits="userSpaceOnUse">
            <stop stop-color="#4F0599"/>
            <stop offset="1" stop-color="#fff"/>
        </linearGradient>
        <radialGradient id="a" cx="0" cy="0" r="1" gradientTransform="matrix(84.2622 0 0 85.5805 38.376 35.563)" gradientUnits="userSpaceOnUse">
            <stop stop-color="#8230D7"/>
            <stop offset=".52" stop-color="#4F0597"/>
            <stop offset="1" stop-color="#11053A"/>
        </radialGradient>
        <radialGradient id="b" cx="0" cy="0" r="1" gradientTransform="matrix(39.6256 0 0 40.2456 79.224 113.122)" gradientUnits="userSpaceOnUse">
            <stop stop-color="#8230D7"/>
            <stop offset=".52" stop-color="#4F0597"/>
            <stop offset="1" stop-color="#11053A"/>
        </radialGradient>
        <radialGradient id="j" cx="0" cy="0" r="1" gradientTransform="matrix(23.877 0 0 24.2505 50.644 16.589)" gradientUnits="userSpaceOnUse">
            <stop stop-color="#FF0CD0"/>
            <stop offset=".52" stop-color="#4F0599"/>
            <stop offset="1" stop-color="#11053A"/>
        </radialGradient>
        <radialGradient id="k" cx="0" cy="0" r="1" gradientTransform="matrix(19.6512 0 0 19.9586 11.87 75.409)" gradientUnits="userSpaceOnUse">
            <stop stop-color="#FFC700"/>
            <stop offset="1" stop-color="#FF0CD0"/>
        </radialGradient>
        <radialGradient id="l" cx="0" cy="0" r="1" gradientTransform="matrix(14.5941 0 0 14.8224 38.1 127.429)" gradientUnits="userSpaceOnUse">
            <stop stop-color="#FF0CD0"/>
            <stop offset=".52" stop-color="#4F0599"/>
            <stop offset="1" stop-color="#11053A"/>
        </radialGradient>
    </defs>
</svg>
