<svg xmlns="http://www.w3.org/2000/svg" width="74" height="74" fill="none">
    <path fill="url(#a)" d="M48.673 30.122c-5.451-8.997-13.4-14.099-17.876-11.548l1.136 1.914c3.954-2.253 10.982 2.266 15.805 10.217 4.89 8.047 5.664 16.568 1.736 19.024-.026.014-.066.028-.093.055l1.149 1.913s.067-.04.107-.054c4.435-2.782 3.567-12.416-1.964-21.521"/>
    <path fill="url(#b)" d="M27.385 63.597s.094-2.076.12-2.74c.027-.665.094-1.167-.801-2.497s-2.231-3.379-2.231-3.379l-3.848 1.913-1.43.706s1.55 1.737 1.63 2.971c.08 1.235-.267 1.9.695 3.094s7.388 8.02 7.388 8.02l4.008-2.022-5.53-6.066Z"/>
    <path fill="url(#c)" d="m28.593 62.62-1.202.978 5.53 6.065 1.203-.977z"/>
    <path fill="url(#d)" d="M28.724 59.879c.027-.665.094-1.167-.802-2.497-.895-1.33-2.23-3.379-2.23-3.379l-5.278 2.62s.094.094.227.27l3.848-1.913s1.336 2.05 2.231 3.38c.895 1.329.842 1.831.802 2.496-.027.665-.12 2.74-.12 2.74l1.215-.976s.094-2.076.12-2.741z"/>
    <path fill="url(#e)" d="M28.66 24.477s-5.397 13.868-12.732 18.617l-3.648 2.361c-1.696 1.1-3.353 5.374-.975 9.54 2.392 4.192 7.228 4.939 9.526 3.73a95 95 0 0 1 2.94-1.546c1.736-.882 13.293-7.83 21.255-6.188 7.95 1.642-16.34-26.5-16.34-26.5z"/>
    <path fill="url(#f)" d="M11.29 54.98c-2.378-4.165-.721-8.44.976-9.539-3.06 1.981-3.234 2.076-3.942 2.51-.935.57-3.527 4.533-1.536 8.577 1.99 4.043 6.346 6.377 10.501 4.097 1.63-.895 2.712-1.479 3.527-1.926-2.284 1.22-7.12.474-9.526-3.732z"/>
    <path fill="url(#g)" d="M49.47 49.727c3.927-2.457 3.15-10.976-1.735-19.028s-12.028-12.587-15.954-10.13-3.15 10.976 1.736 19.028c4.884 8.051 12.027 12.587 15.953 10.13"/>
    <path fill="url(#i)" d="m40.352 30.964-8.778 4.885a36 36 0 0 0 1.95 3.745c1.123 1.845 2.352 3.5 3.648 4.925l7.562-6.336-4.382-7.233z"/>
    <path fill="url(#j)" d="M44.744 38.195c.974-.61.781-2.722-.43-4.72-1.212-1.996-2.983-3.121-3.957-2.512-.974.61-.781 2.722.43 4.72 1.212 1.996 2.983 3.121 3.957 2.512"/>
    <path fill="url(#k)" d="M66.207 5.277a1.84 1.84 0 0 0-1.83 1.859c0 .38.12.732.307 1.03l-18.397 14.63V17.53c0-1.507.401-2.266 1.897-3.528 1.377-1.167 6.306-4.994 7.375-5.821.294.217.668.339 1.056.339a1.84 1.84 0 0 0 1.83-1.86 1.84 1.84 0 0 0-1.83-1.858 1.84 1.84 0 0 0-1.83 1.859c0 .38.106.732.307 1.017-1.203.937-5.972 4.641-7.322 5.795-1.643 1.397-2.137 2.333-2.137 4.043v5.794L30.549 35.306l.414.529L65.165 8.642c.294.217.655.34 1.056.34a1.84 1.84 0 0 0 1.83-1.86 1.84 1.84 0 0 0-1.83-1.859zm-9.592.203c.641 0 1.162.53 1.162 1.18 0 .652-.521 1.181-1.162 1.181a1.17 1.17 0 0 1-1.163-1.18c0-.652.521-1.18 1.163-1.18Zm9.592 2.823c-.641 0-1.162-.53-1.162-1.18 0-.652.521-1.181 1.162-1.181.642 0 1.163.529 1.163 1.18s-.521 1.18-1.163 1.18Z"/>
    <path fill="url(#l)" d="M61.756 27.802a1.78 1.78 0 0 0-1.39.176 1.77 1.77 0 0 0-.854 1.126 1.92 1.92 0 0 0 .214 1.466l-21.31 16.215.4.543 5.706-4.342c.52.15 4.181 1.153 5.584 1.56.495.136.949.217 1.363.217.962 0 1.83-.38 3.046-1.234 1.31-.923 2.886-2.144 3.514-2.62a1.8 1.8 0 0 0 1.082.367 1.84 1.84 0 0 0 1.764-1.37 1.86 1.86 0 0 0-.174-1.412 1.8 1.8 0 0 0-1.109-.868c-.975-.271-1.977.312-2.245 1.303a1.87 1.87 0 0 0 .228 1.492c-.655.502-2.165 1.656-3.434 2.551-1.59 1.127-2.418 1.33-3.848.923a992 992 0 0 1-5.09-1.425L60.18 31.072c.174.136.387.244.614.312.16.04.321.068.481.068.802 0 1.537-.543 1.764-1.37a1.86 1.86 0 0 0-.174-1.412 1.75 1.75 0 0 0-1.109-.868M57.99 39.105a1.17 1.17 0 0 1 1.43-.828c.293.082.547.285.707.557.16.271.188.597.107.895-.173.624-.815 1.004-1.43.828a1.19 1.19 0 0 1-.814-1.452m4.409-9.2c-.174.624-.815 1.004-1.43.828a1.19 1.19 0 0 1-.815-1.452 1.17 1.17 0 0 1 1.43-.828c.294.082.547.285.708.556.147.272.187.598.107.896"/>
    <path fill="url(#m)" d="M36.666 25.305a1.84 1.84 0 0 0 1.83-1.86 1.84 1.84 0 0 0-1.83-1.858 1.84 1.84 0 0 0-1.83 1.859c0 .38.12.733.307 1.031l-6.44 5.116.414.529 6.493-5.17c.294.217.655.34 1.056.34zm0-3.04c.641 0 1.162.53 1.162 1.18 0 .652-.52 1.181-1.162 1.181a1.17 1.17 0 0 1-1.162-1.18c0-.651.52-1.18 1.162-1.18Z"/>
    <path fill="url(#n)" d="M37.165 44.532a34.6 34.6 0 0 1-3.647-4.925 34 34 0 0 1-1.95-3.745c-3.047-6.799-3.1-13.203.226-15.28.054-.027.107-.054.147-.08l-1.135-1.914s-.107.054-.16.095c-4.436 2.782-3.568 12.416 1.963 21.52 5.478 9.038 13.467 14.153 17.93 11.521l-1.15-1.913c-3.032 1.79-7.909-.462-12.21-5.252z"/>
    <path fill="url(#o)" d="m24.488 41.86.842-.503s1.55 3.257 3.794 5.835l-.775.502-3.607-1.737-.254-4.111z"/>
    <path fill="url(#p)" d="M15.111 49.146s7.562-5.116 9.38-7.287c0 0 1.308 3.216 3.874 5.835 0 0-6.908 3.31-10.702 5.645 0 0-2.325-1.656-2.538-4.193z"/>
    <path stroke="#fff" stroke-miterlimit="10" stroke-width=".536" d="M56.622 56.253c6.25-3.911 5.017-17.468-2.756-30.28-7.772-12.811-19.14-20.026-25.39-16.114s-5.017 17.468 2.755 30.28c7.773 12.81 19.14 20.026 25.391 16.114Z" style="mix-blend-mode:overlay"/>
    <path stroke="#fff" stroke-miterlimit="10" stroke-width=".268" d="M64.34 56.088c7.136-4.466 5.723-19.95-3.156-34.587C52.304 6.865 39.32-1.379 32.185 3.086c-7.136 4.466-5.723 19.951 3.156 34.587 8.88 14.637 21.863 22.881 29 18.415Z" style="mix-blend-mode:overlay"/>
    <defs>
        <linearGradient id="a" x1="91.092" x2="34.151" y1="28.683" y2="35.54" gradientUnits="userSpaceOnUse">
            <stop stop-color="#11053A"/>
            <stop offset=".52" stop-color="#4F0599"/>
            <stop offset="1" stop-color="#FF0CD0"/>
        </linearGradient>
        <linearGradient id="b" x1="28.922" x2="17.156" y1="60.192" y2="73.838" gradientUnits="userSpaceOnUse">
            <stop offset=".02" stop-color="#11053A"/>
            <stop offset=".52" stop-color="#4F0597"/>
            <stop offset="1" stop-color="#8230D7"/>
        </linearGradient>
        <linearGradient id="c" x1="25.066" x2="32.466" y1="60.07" y2="67.716" gradientUnits="userSpaceOnUse">
            <stop offset=".02" stop-color="#11053A"/>
            <stop offset=".52" stop-color="#4F0597"/>
            <stop offset="1" stop-color="#8230D7"/>
        </linearGradient>
        <linearGradient id="d" x1="20.107" x2="28.737" y1="51.615" y2="62.177" gradientUnits="userSpaceOnUse">
            <stop offset=".02" stop-color="#11053A"/>
            <stop offset=".52" stop-color="#4F0597"/>
            <stop offset="1" stop-color="#8230D7"/>
        </linearGradient>
        <linearGradient id="e" x1="37.959" x2="18.966" y1="62.485" y2="39.039" gradientUnits="userSpaceOnUse">
            <stop stop-color="#4F0599"/>
            <stop offset="1" stop-color="#fff"/>
        </linearGradient>
        <linearGradient id="f" x1="23.568" x2="8.639" y1="68.591" y2="50.649" gradientUnits="userSpaceOnUse">
            <stop stop-color="#11053A"/>
            <stop offset=".52" stop-color="#4F0599"/>
            <stop offset="1" stop-color="#FF0CD0"/>
        </linearGradient>
        <linearGradient id="g" x1="29.284" x2="51.97" y1="35.15" y2="35.15" gradientUnits="userSpaceOnUse">
            <stop stop-color="#4F0599"/>
            <stop offset="1" stop-color="#fff"/>
        </linearGradient>
        <linearGradient id="i" x1="40.085" x2="35.136" y1="40.544" y2="32.279" gradientUnits="userSpaceOnUse">
            <stop stop-color="#4F0599"/>
            <stop offset="1" stop-color="#fff"/>
        </linearGradient>
        <linearGradient id="j" x1="49.398" x2="41.427" y1="31.141" y2="35.019" gradientUnits="userSpaceOnUse">
            <stop stop-color="#11053A"/>
            <stop offset=".52" stop-color="#4F0599"/>
            <stop offset="1" stop-color="#FF0CD0"/>
        </linearGradient>
        <linearGradient id="k" x1="19.326" x2="39.313" y1="39.702" y2="24.601" gradientUnits="userSpaceOnUse">
            <stop stop-color="#4F0597"/>
            <stop offset="1" stop-color="#03D3DE"/>
        </linearGradient>
        <linearGradient id="l" x1="31.99" x2="51.976" y1="56.474" y2="41.386" gradientUnits="userSpaceOnUse">
            <stop stop-color="#4F0597"/>
            <stop offset="1" stop-color="#03D3DE"/>
        </linearGradient>
        <linearGradient id="m" x1="18.015" x2="38.001" y1="37.979" y2="22.877" gradientUnits="userSpaceOnUse">
            <stop stop-color="#4F0597"/>
            <stop offset="1" stop-color="#03D3DE"/>
        </linearGradient>
        <linearGradient id="n" x1="91.141" x2="34.187" y1="29.063" y2="35.92" gradientUnits="userSpaceOnUse">
            <stop stop-color="#11053A"/>
            <stop offset=".52" stop-color="#4F0599"/>
            <stop offset="1" stop-color="#FF0CD0"/>
        </linearGradient>
        <linearGradient id="o" x1="24.168" x2="27.201" y1="51.548" y2="43.723" gradientUnits="userSpaceOnUse">
            <stop stop-color="#4F0599"/>
            <stop offset="1" stop-color="#fff"/>
        </linearGradient>
        <linearGradient id="p" x1="24.049" x2="18.766" y1="53.271" y2="43.433" gradientUnits="userSpaceOnUse">
            <stop stop-color="#4F0599"/>
            <stop offset="1" stop-color="#fff"/>
        </linearGradient>
    </defs>
</svg>
