<svg xmlns="http://www.w3.org/2000/svg" width="202" height="108" fill="none">
    <g fill="#521094" clip-path="url(#a)">
        <path d="M28.065 100.353c-.347 1.288 1.584 1.808 1.931.521.347-1.288-1.584-1.808-1.931-.521Z" opacity=".6"/>
        <path d="M152.035 87.35c-.521 1.932 2.376 2.712 2.896.78.521-1.93-2.376-2.71-2.896-.78Z" opacity=".7"/>
        <path d="M176.559 93.84c-.347 1.288 1.584 1.808 1.931.52.347-1.287-1.584-1.807-1.931-.52ZM85.686 15.338c-.347 1.288 1.584 1.808 1.931.52.347-1.287-1.584-1.807-1.931-.52Z"/>
        <path d="M99.278 31.065c-.173.643.835.915 1.008.271.174-.644-.834-.915-1.008-.271Z" opacity=".7"/>
        <path d="M28.789 31.348c-.52 1.93 2.376 2.711 2.896.78.52-1.931-2.376-2.712-2.896-.78Z" opacity=".5"/>
        <path d="M41.433 44.87c-.27 1.002 1.298 1.424 1.568.422.27-1.001-1.298-1.424-1.568-.422ZM19.904 72.455c-.174.643.792.904.965.26.174-.644-.792-.904-.965-.26Zm49.999 20c-.173.643.793.904.966.26.174-.644-.792-.904-.966-.26Zm91.081-80.146c-.52 1.93 2.376 2.711 2.897.78.52-1.931-2.377-2.712-2.897-.78Zm-11.493 22.927c-.269 1.001 1.299 1.424 1.569.422.269-1.001-1.299-1.424-1.569-.422Z"/>
        <path d="M191.693 15.698c-.27 1.001 1.298 1.424 1.568.422.27-1.001-1.299-1.424-1.568-.422Z" opacity=".4"/>
        <path d="M197.31 107.477c-.27 1.001 1.298 1.424 1.568.422.27-1.001-1.298-1.424-1.568-.422Z"/>
    </g>
    <defs>
        <clipPath id="a">
            <path fill="#fff" d="M0 0h202v108H0z"/>
        </clipPath>
    </defs>
</svg>
