<svg xmlns="http://www.w3.org/2000/svg" width="500" height="188" fill="none">
    <g clip-path="url(#a)" opacity=".2">
        <path fill="#B824F9" fill-rule="evenodd" d="M355.836 9.738c0-4.41 3.308-8.01 7.396-8.01l.034.054c4.071 0 7.396 3.601 7.396 8.01 0 4.41-3.308 8.011-7.396 8.011-1.696 0-3.24-.643-4.495-1.69L185.336 149.188c5.361 1.69 22.07 7.018 28.363 9.296 6.684 2.426 18.338 2.683 35.878-9.719 15.318-10.843 84.728-63.563 97.634-73.366h.001l1.398-1.062a8.412 8.412 0 0 1-1.357-4.594c0-4.409 3.325-8.01 7.396-8.01s7.396 3.601 7.396 8.01c0 4.41-3.308 8.011-7.396 8.011-1.883 0-3.596-.79-4.903-2.058-6.785 5.163-83.07 63.148-99.253 74.594-12.315 8.709-21.883 11.336-28.957 11.336-3.341 0-6.14-.588-8.397-1.396-6.171-2.245-22.487-7.44-28.065-9.217l-1.519-.484-101.577 77.938-.984-1.507 155.674-119.442V77.313c0-9.7 2.307-17.969 13.486-26.714 10.449-8.158 46.887-34.523 52.349-38.473a8.39 8.39 0 0 1-1.086-4.115c0-4.41 3.325-8.011 7.396-8.011 4.072 0 7.397 3.601 7.397 8.01 0 4.41-3.308 8.011-7.397 8.011-2.069 0-3.952-.937-5.292-2.443-5.191 3.748-41.9 30.296-52.366 38.49-10.637 8.305-12.774 15.82-12.774 25.227v28.9l119.135-91.423a8.413 8.413 0 0 1-1.68-5.034Zm-41.323-1.764c0-3.4-2.544-6.173-5.7-6.173-3.138 0-5.699 2.774-5.699 6.173s2.561 6.173 5.699 6.173c3.139 0 5.7-2.774 5.7-6.173Zm45.819 61.733c0-3.4-2.545-6.174-5.7-6.174-3.138 0-5.7 2.775-5.7 6.174 0 3.399 2.562 6.173 5.7 6.173 3.138 0 5.7-2.774 5.7-6.173Zm-2.816-59.951c0 3.399 2.561 6.173 5.699 6.173 3.139 0 5.7-2.774 5.7-6.173s-2.561-6.173-5.7-6.173c-3.138 0-5.699 2.774-5.699 6.173Zm247.453-.018c0-4.41 3.308-8.01 7.396-8.01l.034.054c4.072 0 7.396 3.601 7.396 8.01 0 4.41-3.307 8.011-7.396 8.011-1.696 0-3.24-.643-4.495-1.69L434.469 149.188c5.361 1.69 22.07 7.018 28.363 9.296 6.684 2.426 18.338 2.683 35.878-9.719 15.303-10.833 84.596-63.463 97.598-73.338l.01-.008.008-.006.007-.005 1.41-1.071a8.412 8.412 0 0 1-1.357-4.594c0-4.409 3.325-8.01 7.396-8.01s7.396 3.601 7.396 8.01c0 4.41-3.308 8.011-7.396 8.011-1.883 0-3.596-.79-4.903-2.058-6.785 5.163-83.07 63.148-99.253 74.594-12.315 8.709-21.883 11.336-28.957 11.336-3.341 0-6.14-.588-8.396-1.396-6.172-2.244-22.486-7.44-28.064-9.216l-.002-.001-1.519-.484-101.577 77.938-.984-1.507 155.674-119.442V77.313c0-9.7 2.307-17.969 13.486-26.714 10.449-8.158 46.887-34.523 52.349-38.473a8.4 8.4 0 0 1-1.086-4.115c0-4.41 3.325-8.011 7.397-8.011 4.071 0 7.396 3.601 7.396 8.01 0 4.41-3.308 8.011-7.396 8.011-2.07 0-3.953-.937-5.293-2.443-5.191 3.748-41.9 30.296-52.366 38.49-10.636 8.305-12.774 15.82-12.774 25.227v28.9l119.135-91.423a8.413 8.413 0 0 1-1.68-5.034Zm-41.323-1.764c0-3.4-2.544-6.173-5.699-6.173-3.139 0-5.7 2.774-5.7 6.173s2.561 6.173 5.7 6.173c3.138 0 5.699-2.774 5.699-6.173Zm45.819 61.733c0-3.4-2.545-6.174-5.7-6.174-3.138 0-5.7 2.775-5.7 6.174 0 3.399 2.562 6.173 5.7 6.173 3.138 0 5.7-2.774 5.7-6.173Zm-2.816-59.951c0 3.399 2.561 6.173 5.699 6.173 3.139 0 5.7-2.774 5.7-6.173s-2.561-6.173-5.7-6.173c-3.138 0-5.699 2.774-5.699 6.173ZM455.01 92.654c0 4.41-3.307 8.011-7.396 8.011l.034-.018c-1.984 0-3.783-.864-5.106-2.242L273.111 228.412l-.984-1.507 109.567-84.074V94.694c0-8.158 1.052-17.62 13.486-26.733 10.636-7.771 58.728-41.467 66.718-47.053a8.42 8.42 0 0 1-1.069-4.079c0-4.409 3.325-8.01 7.396-8.01s7.396 3.601 7.396 8.01c0 4.41-3.308 8.011-7.396 8.011-2.103 0-3.986-.955-5.327-2.462l-.732.513-.006.004-.01.007-.004.003c-9.655 6.763-55.666 38.995-66.033 46.581-11.755 8.617-12.739 17.179-12.739 25.226v46.833l58.049-44.536a8.355 8.355 0 0 1-1.205-4.355c0-4.41 3.325-8.01 7.396-8.01 4.072 0 7.396 3.6 7.396 8.01Zm18.881-75.825c0-3.399-2.545-6.173-5.7-6.173-3.138 0-5.7 2.774-5.7 6.173 0 3.4 2.562 6.174 5.7 6.174 3.138 0 5.7-2.774 5.7-6.174Zm-20.577 75.807c0-3.399-2.561-6.173-5.7-6.173-3.138 0-5.699 2.774-5.699 6.173s2.561 6.173 5.699 6.173c3.139 0 5.7-2.774 5.7-6.173ZM324.745 138.44c-4.088 0-7.396 3.601-7.396 8.01 0 1.911.645 3.638 1.679 5.016l-106.971 82.09.983 1.507 107.227-82.274c1.255 1.047 2.799 1.69 4.495 1.69 4.088 0 7.396-3.601 7.396-8.01 0-4.41-3.325-8.011-7.396-8.011l-.017-.018Zm0 14.202c-3.155 0-5.7-2.775-5.7-6.173 0-3.399 2.562-6.174 5.7-6.174 3.138 0 5.7 2.775 5.7 6.174 0 3.398-2.562 6.173-5.7 6.173Zm-126.244-51.977c4.088 0 7.396-3.601 7.396-8.01 0-4.41-3.325-8.011-7.396-8.011s-7.396 3.6-7.396 8.01c0 1.599.441 3.105 1.204 4.355l-58.049 44.536V94.712c0-8.047.984-16.609 12.74-25.226 10.373-7.591 56.437-39.86 66.051-46.594h.002l.732-.514c1.34 1.507 3.223 2.462 5.327 2.462 4.088 0 7.396-3.601 7.396-8.01 0-4.41-3.325-8.011-7.396-8.011-4.072 0-7.397 3.6-7.397 8.01 0 1.489.408 2.885 1.069 4.08-7.99 5.585-56.081 39.28-66.717 47.052-12.435 9.113-13.486 18.575-13.486 26.733v48.137L23.014 226.905l.983 1.507L193.43 98.405c1.323 1.378 3.121 2.242 5.106 2.242l-.034.018Zm20.577-90.009c3.155 0 5.699 2.774 5.699 6.173 0 3.4-2.561 6.174-5.699 6.174-3.139 0-5.7-2.775-5.7-6.174 0-3.399 2.561-6.173 5.7-6.173Zm-20.577 75.807c3.138 0 5.7 2.774 5.7 6.173s-2.562 6.173-5.7 6.173c-3.138 0-5.7-2.774-5.7-6.173s2.562-6.173 5.7-6.173ZM65.495 146.45c0-4.409 3.308-8.01 7.396-8.01l.017.018c4.072 0 7.397 3.601 7.397 8.011 0 4.409-3.308 8.01-7.397 8.01-1.696 0-3.24-.643-4.495-1.69l-107.226 82.274-.984-1.507 106.972-82.09a8.318 8.318 0 0 1-1.68-5.016Zm1.697.019c0 3.398 2.544 6.173 5.7 6.173 3.138 0 5.7-2.775 5.7-6.173 0-3.399-2.562-6.174-5.7-6.174-3.139 0-5.7 2.775-5.7 6.174Z" clip-rule="evenodd"/>
    </g>
    <defs>
        <clipPath id="a">
            <path fill="#fff" d="M0 0h500v188H0z"/>
        </clipPath>
    </defs>
</svg>
