<svg xmlns="http://www.w3.org/2000/svg" width="202" height="108" fill="none">
    <g fill="#521094" clip-path="url(#a)">
        <path d="M173.935 2.647c.347-1.288-1.584-1.808-1.931-.52-.347 1.287 1.584 1.807 1.931.52Z" opacity=".6"/>
        <path d="M49.965 15.65c.52-1.932-2.376-2.712-2.897-.78-.52 1.93 2.377 2.71 2.897.78Z" opacity=".7"/>
        <path d="M25.441 9.16c.347-1.288-1.584-1.808-1.931-.52-.347 1.287 1.584 1.807 1.931.52Zm90.873 78.502c.347-1.288-1.584-1.808-1.931-.52-.347 1.287 1.584 1.807 1.931.52Z"/>
        <path d="M102.721 71.935c.174-.643-.834-.915-1.007-.271-.174.644.834.915 1.007.271Z" opacity=".7"/>
        <path d="M173.211 71.653c.521-1.932-2.376-2.712-2.896-.781-.521 1.931 2.376 2.712 2.896.78Z" opacity=".5"/>
        <path d="M160.567 58.13c.27-1.002-1.298-1.424-1.568-.422-.27 1.001 1.298 1.424 1.568.422Zm21.529-27.585c.174-.643-.792-.904-.965-.26-.174.644.792.904.965.26Zm-50-20c.174-.643-.792-.904-.965-.26-.174.644.792.904.965.26Zm-79.08 74.147c.52-1.932-2.376-2.712-2.897-.78-.52 1.93 2.377 2.71 2.897.78Zm-.507-16.928c.27-1.001-1.299-1.424-1.569-.422-.27 1.001 1.299 1.424 1.569.422Z"/>
        <path d="M10.307 87.302c.27-1.001-1.298-1.424-1.568-.422-.27 1.001 1.298 1.424 1.568.422Z" opacity=".4"/>
    </g>
    <defs>
        <clipPath id="a">
            <path fill="#fff" d="M202 108H0V0h202z"/>
        </clipPath>
    </defs>
</svg>
