<svg xmlns="http://www.w3.org/2000/svg" width="16" height="16" fill="none" viewBox="0 0 16 16">
    <g clip-path="url(#a)">
        <path fill="#4285F4" d="M1.955 13.5h2.227V8.09L1 5.706v6.84c0 .529.428.955.955.955"/>
        <path fill="#34A853" d="M11.818 13.5h2.227a.954.954 0 0 0 .955-.954V5.705L11.818 8.09"/>
        <path fill="#FBBC04" d="M11.818 3.955V8.09L15 5.705V4.432c0-1.18-1.348-1.854-2.291-1.146"/>
        <path fill="#EA4335" d="M4.182 8.09V3.956L8 6.818l3.818-2.863V8.09L8 10.955"/>
        <path fill="#C5221F" d="M1 4.432v1.273L4.182 8.09V3.955l-.891-.669C2.346 2.578 1 3.251 1 4.432"/>
    </g>
    <defs>
        <clipPath id="a">
            <path fill="#fff" d="M1 3h14v10.5H1z"/>
        </clipPath>
    </defs>
</svg>
