<svg xmlns="http://www.w3.org/2000/svg" width="16" height="16" fill="none" viewBox="0 0 16 16">
    <g clip-path="url(#a)">
        <path fill="#4285F4" d="M14.16 8.146q0-.683-.117-1.313H8v2.485h3.453a2.96 2.96 0 0 1-1.289 1.931v1.616h2.083c1.213-1.12 1.913-2.765 1.913-4.72"/>
        <path fill="#34A853" d="M8 14.417c1.733 0 3.185-.572 4.247-1.552l-2.083-1.616c-.571.385-1.3.619-2.164.619-1.668 0-3.086-1.126-3.593-2.643H2.272v1.657A6.41 6.41 0 0 0 8 14.417"/>
        <path fill="#FBBC05" d="M4.407 9.22A3.9 3.9 0 0 1 4.202 8c0-.426.076-.834.205-1.22V5.125H2.272A6.34 6.34 0 0 0 1.583 8c0 1.038.251 2.013.689 2.876L3.934 9.58z"/>
        <path fill="#EA4335" d="M8 4.138c.945 0 1.785.327 2.456.957l1.837-1.838C11.18 2.22 9.733 1.583 8 1.583a6.4 6.4 0 0 0-5.728 3.541l2.135 1.657C4.914 5.264 6.332 4.138 8 4.138"/>
    </g>
    <defs>
        <clipPath id="a">
            <path fill="#fff" d="M1 1h14v14H1z"/>
        </clipPath>
    </defs>
</svg>
