<svg xmlns="http://www.w3.org/2000/svg" width="16" height="16" fill="none" viewBox="0 0 16 16">
    <g clip-path="url(#a)">
        <path fill="#0A2767" d="M15 7.876a.32.32 0 0 0-.15-.27l-.007-.004-4.85-2.887a.65.65 0 0 0-.727 0L4.413 7.602l-.006.004a.32.32 0 0 0 .007.544l4.851 2.888a.65.65 0 0 0 .727 0l4.852-2.888A.31.31 0 0 0 15 7.876"/>
        <path fill="#0364B8" d="M4.98 5.948h3.183v2.934H4.979zm9.369-2.983V1.622a.607.607 0 0 0-.59-.622H5.496a.607.607 0 0 0-.59.622v1.343l4.884 1.31z"/>
        <path fill="#0078D4" d="M4.907 2.965h3.256V5.91H4.907z"/>
        <path fill="#28A8EA" d="M11.419 2.965H8.163V5.91l3.256 2.947h2.93V5.911z"/>
        <path fill="#0078D4" d="M8.163 5.911h3.256v2.947H8.163z"/>
        <path fill="#0364B8" d="M8.163 8.858h3.256v2.947H8.163z"/>
        <path fill="#14447D" d="M4.98 8.882h3.183v2.668H4.979z"/>
        <path fill="#0078D4" d="M11.419 8.858h2.93v2.947h-2.93z"/>
        <path fill="url(#b)" d="m14.85 8.132-.005.003-4.851 2.744-.066.037a.7.7 0 0 1-.263.065l-.265-.156-.065-.037L4.42 7.966h-.002l-.161-.09v5.554a.67.67 0 0 0 .672.667h9.41l.017-.003a.8.8 0 0 0 .228-.048 1 1 0 0 0 .091-.047.66.66 0 0 0 .326-.568V7.875a.3.3 0 0 1-.15.256"/>
        <path fill="#0A2767" d="M14.74 7.854v.34l-5.073 3.513-5.252-3.738a.003.003 0 0 0-.003-.004l-.482-.291v-.246l.199-.003.42.242.01.004.035.023s4.936 2.832 4.95 2.838l.188.112.052-.02c.01-.007 4.9-2.773 4.9-2.773z" opacity=".5"/>
        <path fill="#1490DF" d="m14.85 8.132-.005.004-4.851 2.744-.066.036a.68.68 0 0 1-.662-.037l-4.85-2.743-.007-.004a.3.3 0 0 1-.153-.256v5.554a.67.67 0 0 0 .671.667h9.402A.67.67 0 0 0 15 13.43V7.876a.3.3 0 0 1-.15.256"/>
        <path fill="#000" d="m10.064 10.839-.072.04a.7.7 0 0 1-.321.105l1.845 2.196 3.22.78a.7.7 0 0 0 .204-.256z" opacity=".1"/>
        <path fill="#000" d="m10.393 10.653-.401.227-.065.037a.7.7 0 0 1-.256.068l.864 2.398 4.202.576A.66.66 0 0 0 15 13.43v-.072z" opacity=".05"/>
        <path fill="#28A8EA" d="M4.936 14.097h9.392a.67.67 0 0 0 .402-.131l-5.33-3.14-.065-.037-4.916-2.822h-.003l-.16-.091v5.535c0 .378.304.685.68.686"/>
        <path fill="#000" d="M8.814 4.22v6.983a.6.6 0 0 1-.596.603H4.256v-7.86h.651V3.62h3.311a.6.6 0 0 1 .596.6" opacity=".1"/>
        <path fill="#000" d="M8.488 4.547v6.984q.001.12-.048.229a.59.59 0 0 1-.547.372H4.256V3.947h3.637a.54.54 0 0 1 .27.069c.2.1.325.306.325.531" opacity=".2"/>
        <path fill="#000" d="M8.488 4.547v6.329a.603.603 0 0 1-.595.601H4.256v-7.53h3.637a.54.54 0 0 1 .27.069c.2.1.325.306.325.531" opacity=".2"/>
        <path fill="#000" d="M8.163 4.547v6.329a.6.6 0 0 1-.596.601H4.256v-7.53h3.311a.6.6 0 0 1 .596.6" opacity=".2"/>
        <path fill="url(#c)" d="M1.597 3.947h5.969c.33 0 .597.268.597.6v6.003c0 .331-.267.6-.597.6h-5.97a.6.6 0 0 1-.596-.6V4.547c0-.332.267-.6.597-.6"/>
        <path fill="#fff" d="M2.865 6.464c.147-.315.385-.579.682-.757.33-.19.704-.284 1.083-.274a1.9 1.9 0 0 1 1.003.26c.286.171.516.422.663.723.16.331.24.696.232 1.064.008.385-.074.766-.239 1.113a1.77 1.77 0 0 1-.684.75 2 2 0 0 1-1.04.265 1.95 1.95 0 0 1-1.024-.262 1.75 1.75 0 0 1-.672-.725 2.3 2.3 0 0 1-.235-1.051c-.007-.382.072-.76.231-1.106m.727 1.778c.078.199.211.372.383.498a1 1 0 0 0 .6.181c.227.01.452-.056.639-.187.17-.126.3-.299.372-.498.082-.223.122-.458.12-.695a2.1 2.1 0 0 0-.113-.704 1.1 1.1 0 0 0-.36-.52 1 1 0 0 0-.634-.196 1.03 1.03 0 0 0-.614.183c-.175.127-.31.301-.39.503a2 2 0 0 0-.003 1.435"/>
        <path fill="#50D9FF" d="M11.419 2.965h2.93V5.91h-2.93z"/>
    </g>
    <defs>
        <linearGradient id="b" x1="9.628" x2="9.628" y1="7.876" y2="14.097" gradientUnits="userSpaceOnUse">
            <stop stop-color="#35B8F1"/>
            <stop offset="1" stop-color="#28A8EA"/>
        </linearGradient>
        <linearGradient id="c" x1="2.244" x2="6.958" y1="3.478" y2="11.596" gradientUnits="userSpaceOnUse">
            <stop stop-color="#1784D9"/>
            <stop offset=".5" stop-color="#107AD5"/>
            <stop offset="1" stop-color="#0A63C9"/>
        </linearGradient>
        <clipPath id="a">
            <path fill="#fff" d="M1 1h14v13.097H1z"/>
        </clipPath>
    </defs>
</svg>
