<svg xmlns="http://www.w3.org/2000/svg" viewBox="0 0 2000 1150">
  <style>
    .I{fill:#3b007f}.J{fill:#ae5cff}.K{fill:#fff}.L{fill:#b2aeff}.M{fill:#907dff}.N{stroke-miterlimit:10}.O{stroke-linecap:round}.P{stroke-width:5}.Q{fill:#e0d6eb}.R{stroke:#e0d6eb}
  </style>
  <rect width="824.1" height="503.7" x="607" y="261.7" class="I" rx="23"/>
  <path d="M1408 261.7a23 23 0 0 1 23 23v457.8a23 23 0 0 1-23 23H630a23 23 0 0 1-23-23V284.7a23 23 0 0 1 23-23h778m0-16H630a39 39 0 0 0-39 39v457.8a39 39 0 0 0 39 39h778a39 39 0 0 0 39-39V284.7a39 39 0 0 0-39-39Z" class="Q"/>
  <path d="M502 352.1h334.1V602H502z" class="J"/>
  <path d="M502 352.1h334.1v21.3H502z" class="K"/>
  <path d="M535.6 439.3h254a7.5 7.5 0 0 0 0-15h-254a7.5 7.5 0 0 0 0 15Zm253.9 23.2H535.6a7.5 7.5 0 0 0 0 15h254a7.5 7.5 0 0 0 0-15Zm0 38.3H535.6a7.5 7.5 0 0 0 0 15h254a7.5 7.5 0 1 0 0-15Zm0 38.2H535.6a7.5 7.5 0 0 0 0 15h254a7.5 7.5 0 0 0 0-15Z" class="I"/>
  <g stroke="#000" class="K N">
    <rect width="27.6" height="15" x="542.7" y="424.3" rx="7.5"/>
    <rect width="27.6" height="15" x="665.2" y="462.5" rx="7.5"/>
    <rect width="27.6" height="15" x="604" y="500.8" rx="7.5"/>
    <rect width="27.6" height="15" x="730.9" y="539" rx="7.5"/>
  </g>
  <path d="M892.5 146.7H1114V165H892.5z" class="M"/>
  <path d="M892.5 165H1114v302.4H892.5z" class="L"/>
  <path d="M926.5 282h27.8v148.9h-27.8z" class="I"/>
  <path d="M969 193.3h27.8v237.5H969z" class="M"/>
  <path d="M1011.5 223.5h27.8v207.3h-27.8z" class="K"/>
  <path d="M1054.1 351.7h27.8v79.2h-27.8z" class="J"/>
  <path d="M665.2 287.3h175.9v27.2H665.2z" class="K"/>
  <path fill="none" d="m699.8 161.8 46.7 134.4" class="N O P R"/>
  <path d="M662.6 145h82.7v33.7h-82.7zm690.9 255.8h175.4v17.7h-175.4z" class="J"/>
  <path d="M1353.5 418.6h175.4v246.8h-175.4z" class="L"/>
  <path d="M1372.6 441.2h139.1v81.1h-139.1z" class="K"/>
  <path d="M1372.6 538.6h91.7v76.7h-91.7z" class="M"/>
  <path d="M1476.7 538.6h35v76.7h-35z" class="J"/>
  <path d="M1372.6 639.4h139.1v12.4h-139.1z" class="I"/>
  <path d="M806.8 585.7H1068v13.8H806.8z" class="L"/>
  <g class="K">
    <path d="M806.8 599.5H1068v132.6H806.8z"/>
    <path stroke="#000" d="M1299.5 342.5h70v30.4h-70z" class="N"/>
  </g>
  <path d="M650.2 678h103.5v41.9H650.2z" class="L"/>
  <path fill="none" d="M478.5 775.7 690 696.8" class="N O P R"/>
  <path d="M469.8 715.4a60.9 60.9 0 0 0-50 76.8l58.7-16.5Z" class="I"/>
  <path d="M531.9 805a60.9 60.9 0 0 0-62-89.6l8.6 60.3Z" class="J"/>
  <path d="M419.9 792.2a60.9 60.9 0 0 0 33 38.7l25.6-55.2Z" class="L"/>
  <path d="m531.9 805-53.4-29.3-25.6 55.2a61 61 0 0 0 69.6-13.2l2-2.1a61 61 0 0 0 7.4-10.7Z" class="Q"/>
  <path fill="none" d="m1332.2 351.4 60.3-73.9" class="N O P R"/>
  <path d="M1398 149.7a94.7 94.7 0 0 0-38.3 44.8l87.3 35.8Z" class="Q"/>
  <path d="M1541.3 225.7a94.3 94.3 0 0 0-143.3-76l49 80.6Z" class="I"/>
  <path d="M1359.7 194.5a94.4 94.4 0 0 0 53.3 123.8l34-88Z" class="J"/>
  <path d="m1447 230.3-34 88a94.4 94.4 0 0 0 128.3-88v-4.6Z" class="L"/>
  <path fill="none" stroke="#3b007f" d="M1029.8 624.6h12.9m-55.9 0h33.5m-67.2 0h21.7m-46.6 0h13.7m-51.6 0h25.9m-53.3 0h18.5m-53.1 0h23.5m178 19.4h12.9m-55.9 0h32.2m-60.6 0h18.4m-67.8 0h34m-61.6 0h16.4m-69.5 0h41.3m140.7 19.4h32.4m-52.8 0h11.7m-44.3 0h24.5m-42.1 0h11.1m-54.9 0h35.7m-75.4 0h28.5m-56.4 0h16.5m172.5 19.4h25.4m-77.1 0h41.6m-67.5 0h17.6m-41.1 0H933m-59.2 0h33.5m-79 0h34.6m173.3 19.4h6.5m-36.6 0h22.6m-46.9 0h15.4m-49.7 0h26m-59.8 0h23.7m-54.1 0h21.5m-57.2 0h26.2m-45.5 0h13.2" class="N O P"/>
  <path d="m1242.5 959.2 6.6 42.2 11.2 12.2 10.1-7.8-3.7-41-24.2-5.6zm-93 42.7 4-2.5-2-63.6h19.5l2 63.6-7.9 14.2-15.6-4.1v-7.6z" class="M"/>
  <path d="m1198.6 435 .8-23.5-9.8 2.7-13-39.1s8.8-28.8 22-36.5 47 .8 47 .8l-5.3 27.5-13.8 38.9-.3 28ZM999 389.7s-12.9-21.4-18.7-31.8-20.1-38.7-22.6-36.9 14.2 37.9 14.2 37.9-9.7 14-12.2 22.1 10.4 18.3 26.7 20.3 12.6-11.6 12.6-11.6Zm246.6 209.8-12 10.6-1.5 5.3s8.8 14.8 16.2 18.3 11.8 1.2 18.3-3.5 1.8-8 .3-10.3-8.2-9.5-8.2-9.5a19.3 19.3 0 0 1-13.1-10.9Z" class="K"/>
  <path d="M1313.3 549.3c-4.7-12.7-36-88.3-43-94s-14.3 48.5-14.3 48.5l31.6 58.5-42 37.2a19 19 0 0 0 13 10.9s40-27.8 53.2-35.4 6.3-13 1.5-25.7Z" class="J"/>
  <path d="M1179.4 450.2s13.3-23.7 40-23.4 25.3 21.7 25.3 21.7Z" class="M"/>
  <path d="m1237 592.5.6-5.1c-33.7 8.4-83.4 1.8-104.7-1.7l-.4 5.4c20.6 2.9 69.4 8.4 104.5 1.4Z" class="L"/>
  <path d="M1237.5 587.4c9.3-76.6 49.3-107.5 32.7-132-18.6-27.5-80.6-10.6-115.2-6.2s-93.8 7-155-63.8c0 0-11.5 2.6-15 21.2 0 0 23.8 64.7 161.2 82.4 0 0-8 29.4-13.3 96.7 21.2 3.5 71 10.1 104.6 1.7Z" class="J"/>
  <path d="M1235.7 616.6c0-6.5.3-12.7.8-18.7-35.3 6.8-84.1 1.3-104.4-1.6a1834 1834 0 0 0-3.7 154.1c2.7 186 10.7 234.8 10.7 234.8l39.9 8s-2.7-149.7 10.6-278.2c0 0 30.1 188.7 54 273 0 0 24 8 32-3.6 0 0-40.8-269.4-40-367.8Z" class="L"/>
  <path d="m1236.5 597.9.5-5.4c-35.1 7-84 1.5-104.5-1.4l-.4 5.2c20.3 2.9 69.1 8.5 104.4 1.6Z" class="I"/>
  <path d="M1271.9 356a25.6 25.6 0 0 0-4.4-7.4 59.6 59.6 0 0 1-4.8-6.4 12.8 12.8 0 0 1-1.5-8.5c.4-3.5 1.1-6.9.1-10.4a15.3 15.3 0 0 0-4.7-7.2 15 15 0 0 0-8.7-3.5c-3.5-.2-6.8.6-10.2 1a16.7 16.7 0 0 1-10-1c-3.3-1.6-6.4-3.5-9.9-4.4-6.1-1.6-13.6-1.3-18.6 3.1-2.4 2.1-3.2 5.3-5.4 7.6-2 2-4.7 3-6.6 5.2-2.2 2.5-2.2 5.8-.9 8.7 1.5 3.3 4.6 5.4 6.4 8.4 1.8 2.8 2.3 6.2 2.7 9.5.4 3.6.8 7-1.4 10.2a23.3 23.3 0 0 1-7.3 6.5 26.5 26.5 0 0 1-4.4 2.1c-1.7.7-3.4 1-5.1 1.6a12.3 12.3 0 0 0-7 6.2 59.1 59.1 0 0 0-4.5 9.5 26 26 0 0 0 1.3 19.2 26.7 26.7 0 0 0 13.4 13 22.9 22.9 0 0 0 4.5 1.4 38.6 38.6 0 0 0 4.9.8c2.8.3 6 .3 7.8-2.2 1.5-2.1 1.7-5 1.8-7.5a.8.8 0 0 0-.2-.4c.2-.1.1-.4 0-.3h-.3a.9.9 0 0 0-1 .3 10.5 10.5 0 0 1-9-2.9 10.2 10.2 0 0 1-2.3-10.3c1.3-4 3.2-7.7 4.7-11.5a242.2 242.2 0 0 1 7.7-17.1 9.4 9.4 0 0 1 3-.4 8.6 8.6 0 0 1 6.3 2.8 7.4 7.4 0 0 1 1.7 6.2 7.9 7.9 0 0 1-4.1 5 13.9 13.9 0 0 1-4.2 1.4c-1.4.3-2.9.2-4.2.6a.3.3 0 0 0-.2 0 1 1 0 0 0-.2 0 .2.2 0 0 0 0 .4 15.7 15.7 0 0 0 3.9 16.7 15.4 15.4 0 0 0 8 4 10.5 10.5 0 0 0 4.4 0 9.8 9.8 0 0 0 3.8-2.5 5.3 5.3 0 0 1 4.5-1.5 16.6 16.6 0 0 1 4.9 1.8 24.2 24.2 0 0 0 8.2 2.9 18.6 18.6 0 0 0 15.5-5.8 27.7 27.7 0 0 0 4.8-8.3 44.8 44.8 0 0 1 5-9.4c4.1-5.7 9.5-10.5 11.7-17.4a15.7 15.7 0 0 0 0-9.7Z" class="M"/>
  <path d="M1091 1024.3s0-4.5 10.8-4 39.4-13.6 47.7-18.4c0 0 8.7 7.6 14.6 5a21.2 21.2 0 0 0 8.9-7.5s4.7 14 0 17.3l-4 11.1h-6.6l-1.4-8.9s-23.7 4.2-33.5 6.7-29.3 2.3-36.6-1.3Zm179.5 3s12.4-23.1-1.8-26c-7.5-1.3-10.9 2.3-13.6 4.5s-6-4.4-6-4.4-10.6 11.7-16.6 13-14.5 1.2-15.1 3.4 9.7 9.5 18.7 9.5 16.6-7 16.6-7l3 7ZM654.4 872.5l-26.3 175.2-11.4 10.7-10.4-8.2 16.4-165.9 31.7-11.8zm77.6 173.7-4.2-2.6 9.7-188.7-27.9 2.1-2 186.6 8.2 14.8 16.2-4.4v-7.8z" class="I"/>
  <path d="m680.9 474.2-.7-19.8a2 2 0 0 1 2.4-1.9c4.3 1.1 10.5-.4 13.3-4.6l1.7-3.1a19.2 19.2 0 0 0 1-2.6l2-5.7a16.8 16.8 0 0 0 1.3-6.3c0-9.1 0-22.3-2.9-29-4-9.2-10.3-20.7-18-25.2-11.9-6.9-39.8-1.3-47.1.3a2 2 0 0 0-1.5 2.3l5.2 26.7a2.3 2.3 0 0 0 0 .2l14.3 40a1.9 1.9 0 0 1 0 .7l.4 27a2 2 0 0 0 1.9 2l24.7 1a1.9 1.9 0 0 0 2-2zm207.7-45.1L908 396c6-11 21-40.2 23.5-38.3s-14.7 39.4-14.7 39.4 10.1 14.5 12.7 23-10.8 19-27.8 21.1-13.1-12-13.1-12z" class="K"/>
  <path d="M561.5 595.2c5-13.2 37.5-91.9 45-97.7s14.7 50.4 14.7 50.4l-33 60.8 43.9 38.8a20 20 0 0 1-13.7 11.3S577 629.9 563.1 622s-6.5-13.6-1.6-26.8Zm139.5-103s-14-24.7-41.8-24.5-26.3 22.6-26.3 22.6Z" class="M"/>
  <path d="m641.5 646.9 1-12.8 99.8-2 3.2 12.9-104 1.9z" class="J"/>
  <path d="M642.4 635.3c0-10.1 2.7-17.7 1.2-26.8-1.1-6.8-6-20-8.6-27.6-14.9-42-41.3-64.7-28.6-83.4 19.4-28.6 84-11.1 119.9-6.5s97.6 7.4 161.3-66.4c0 0 12 2.8 15.7 22.1 0 0-29.6 69-172.5 87.4 0 0-1.6 3.8 1.5 12.4a27.6 27.6 0 0 1 1.3 20.4c-3.7 15.5-.7 34.5 8.7 65.2-22.1 3.7-64.9 12-100 3.2Z" class="M"/>
  <path d="M680.6 451.1 607 464.5s-4.1 26.6 2 34.4c8.9 11.3 11.7 16.2 11 20.8a53.8 53.8 0 0 0 6.4 30.1c4.5 7.3 14.3 11.5 19.7 16.5 8.3 7.7 14 7.7 23 3 6.5-3.5 6-10.9 8.6-15.8 4.4-8.6 14.6-15.7 18.2-27.5 3.7-12.4-3-26-3-30 0-3.8 2.6-23 2.6-31.2 0-4.6-7.2-35.2-10.5-37.3l-.2-.4a.2.2 0 0 0-.1 0c-1.2-.3-2.4-.3-3.6-.5a11 11 0 0 1-3.5-1.2 6.7 6.7 0 0 1-3.5-4.4 6.4 6.4 0 0 1 1.4-5.3 7.1 7.1 0 0 1 5.3-2.4 5.3 5.3 0 0 1 .9 0 2.8 2.8 0 0 0 2.6-1.3l6.6-6.7a19 19 0 0 0 3.6-9.6 29.2 29.2 0 0 0 0-6.6 24.2 24.2 0 0 0-4.7-11.5 34.8 34.8 0 0 0-10-7.7l-1.7-1c-12.2-7.1-35.3-3.2-42.4 3-5.8 5-7.9 9-7.9 9-1 1.7-4.3 8.4-4.7 10.5l-2 9.2c-.3 2.1-4.8 17-4.8 19.3 0 .1-2.2 14.6-9.3 44.7Z" class="I"/>
  <path d="M760 1059.6a272.2 272.2 0 0 1-28-13.4s-9 7.8-15.1 5.2a22.1 22.1 0 0 1-9.3-7.8s-5 14.5 0 18l4 11.6h7l1.5-9.3s24.7 4.4 34.9 7c5 1.3 13.1-2.6 14.2-5.3s-4.9-4.3-9.2-6Zm-153.9 13s-12.9-24 1.9-27c7.8-1.4 11.3 2.3 14.1 4.6s6.3-4.6 6.3-4.6 11 12.2 17.3 13.7 7.1 1.8 8.5 3.8-2.8 9.5-12.3 9.5-17.3-7.3-17.3-7.3l-3.1 7.3Z" class="L"/>
  <path d="M767.3 847.9c-1.2-17 22.6-99-20.2-198.5-1-2.6-1.6-6.8-4.4-6.8l-98.1 3.2a6.4 6.4 0 0 0-5 2.4 242.8 242.8 0 0 0-30.8 48.4c-8 18.8-14.8 112.7-17 151.2a141.9 141.9 0 0 1-3 22.2 11 11 0 0 0 8.2 13c18 4.3 55.3 10.4 85.2-3 31.1-14 65.3-21.6 80-24.4 3.7-.7 5.4-4.1 5.1-7.7Z" class="J"/>
  <path d="m632 647.5 12.5 11 1.6 5.5s-9.2 15.4-17 19-12.2 1.3-19-3.6-1.8-8.3-.2-10.8 8.6-9.8 8.6-9.8a20 20 0 0 0 13.6-11.3Z" class="K"/>
  <path d="M681.4 411.4s1.8 0 2.2 8.6c0 0 4.8-5.7 2.3-16.1Z" class="I"/>
</svg>
