<svg xmlns="http://www.w3.org/2000/svg" width="550" height="550" fill="none" viewBox="0 0 550 550">
    <path fill="#fff" fill-rule="evenodd" d="M407.713 184.286c-.003-.637-.005-1.274.002-1.91q.037-3.218.081-6.434v-.012c.071-5.426.143-10.85.143-16.276 0-1.775.598-2.82 2.149-3.667 2.748-1.502 5.456-3.073 8.165-4.645h.001l.005-.004a724 724 0 0 1 3.918-2.263c.309-.176.637-.321 1.062-.509.231-.102.489-.217.789-.356q.051.451.105.835c.068.512.127.954.13 1.398.02 3.171.031 6.343.042 9.515v.046q.014 4.137.035 8.274l.071 13.468c.056 10.496.113 20.991.156 31.485.003.75-.062 1.5-.13 2.292-.032.382-.066.774-.093 1.18l-41.751-.206-.19-.001-.204-.001-50.725-.25a24 24 0 0 0-.092-.685c-.059-.408-.111-.765-.113-1.123-.005-1.356 0-2.712.005-4.068v-.006c.009-2.47.018-4.94-.034-7.41-.026-1.294.326-2.049 1.514-2.702 3.931-2.145 7.806-4.393 11.649-6.695 1.595-.957 3.205-1.397 5.075-1.372 4.303.058 8.608.05 12.913.042q2.584-.005 5.167-.005h2.64c-.351-1.05-1.032-1.399-1.655-1.717a8 8 0 0 1-.384-.204c-11.407-6.63-22.821-13.244-34.235-19.859q-11.522-6.678-23.049-13.339a40 40 0 0 0-1.502-.809l-.001-.001c-.302-.158-.635-.332-1.012-.532-.032.412-.067.789-.1 1.141-.067.708-.124 1.319-.124 1.931a47883 47883 0 0 0-.048 46.424q-.01 11.844-.014 23.683v3.219c.339-.131.634-.235.897-.328.478-.169.851-.3 1.189-.489 1.109-.622 2.211-1.257 3.314-1.892a265 265 0 0 1 4.118-2.34c2.384-1.316 5.167.393 5.163 3.132q0 1.777-.004 3.556v.027c-.004 2.389-.008 4.779.004 7.167 0 .51.044 1.019.099 1.642v.002c.028.323.059.677.088 1.077l.623-.334.229-.122.252-.134a68 68 0 0 0 1.763-.957l7.586-4.333.035-.02.007-.004c9.621-5.495 19.242-10.989 28.83-16.54 1.54-.891 2.79-1.059 4.217.033.513.396 1.107.689 1.695.979l.215.107c.744.374 1.071.935 1.005 1.771-.038.48-.036.963-.034 1.447q.002.253.001.507v.041l-.001.042v.165c-.055 27.12-.11 54.237-.15 81.357 0 .686.052 1.372.11 2.149.028.377.058.776.085 1.206l.311-.148q.315-.149.59-.275l.008-.004.001-.001.002-.001c.521-.24.944-.436 1.35-.667q1.901-1.082 3.794-2.179l.003-.002h.001c2.615-1.512 5.229-3.022 7.891-4.441 1.768-.942 2.292-2.174 2.285-4.103-.037-14.983-.024-29.966-.011-44.948v-.005l.011-13.684v-2.248l3.146-1.793.047-.026.081-.046.009-.005 3.551-2.024q1.634-.932 3.27-1.86l.006-.003.005-.003.005-.003.006-.003.002-.002h.001c3.009-1.708 6.018-3.416 8.989-5.192 1.342-.803 2.387-.894 3.795-.073 8.298 4.837 16.608 9.655 24.917 14.473l.008.005.008.004.009.006c9.647 5.593 19.294 11.187 28.925 16.811 1.87 1.092 3.567 2.57 5.122 4.099 2.574 2.526 3.564 5.786 3.557 9.335-.013 4.612-.038 9.222-.063 13.832-.027 4.918-.054 9.835-.066 14.754q-.018 7.293-.041 14.586v.006c-.054 18.347-.108 36.695-.05 55.041.018 5.24-2.109 9.079-6.168 12.049-1.375 1.005-2.852 1.888-4.334 2.735a48309 48309 0 0 1-35.687 20.401c-28.125 16.068-56.25 32.135-84.297 48.335-12.767 7.373-31.86 7.656-44.858-.07-15.065-8.954-30.275-17.665-45.483-26.374l-5.678-3.253c-2.017-1.155-2.809-2.427-2.794-4.785.105-20.324.138-40.651.171-60.976l.027-15.741v-3.619c-.46.231-.863.429-1.228.607l-.006.003-.001.001a30 30 0 0 0-1.742.896c-16.401 9.379-32.799 18.766-49.196 28.152q-1.591.913-3.179 1.832l-.003.002h-.001c-2.889 1.67-5.778 3.339-8.712 4.924a29.4 29.4 0 0 1-5.61 2.332c-3.281.968-6.46.414-9.412-1.305q-5.926-3.457-11.847-6.918l-.012-.008-.012-.007-.013-.007-.012-.007-.022-.013-.01-.006-.008-.005-.019-.01a7544 7544 0 0 0-19.908-11.609l-8.2-4.765-.005-.002-.009-.006c-12.119-7.043-24.236-14.087-36.424-21.008-4.404-2.5-6.608-6.094-7.095-10.952a40 40 0 0 1-.195-3.901c.013-11.37.016-22.74.019-34.11.007-30.819.014-61.637.223-92.453.1-14.773 6.857-26.513 19.602-33.949 21.392-12.484 42.911-24.746 64.431-37.007l.001-.001h.001c8.693-4.954 17.387-9.908 26.072-14.876l4.573-2.618c5.261-3.011 10.521-6.022 15.791-9.016 2.424-1.379 4.972-2.42 7.818-2.578 2.258-.124 4.359.294 6.325 1.452 1.051.62 2.115 1.22 3.178 1.819 1.847 1.042 3.693 2.083 5.475 3.223 1.463.935 2.655.85 4.048.018a88 88 0 0 1 2.733-1.546c1.296-.713 2.591-1.426 3.83-2.227 1.632-1.052 2.952-1.041 4.668-.033 9.768 5.733 19.574 11.402 29.379 17.07q4.54 2.623 9.077 5.249l20.761 12.021q48.923 28.329 97.848 56.652c.514.297 1.041.571 1.567.846q.374.193.743.39l.327-.143.006-.003.32-.14-.004-.007-.001-.527-.001-.426zm61.4 93.227c.141-.072.321-.165.551-.3v3.54q-.008 11.643-.023 23.287v.003c-.026 21.879-.053 43.759.045 65.637.025 5.511-2.189 9.409-6.586 12.24-2.818 1.812-5.736 3.47-8.653 5.128q-.936.531-1.87 1.065-17.507 10.013-35.017 20.021a66056 66056 0 0 0-77.575 44.391c-11.448 6.563-23.438 7.271-35.849 3.674-2.549-.737-5.013-1.962-7.326-3.289a9036 9036 0 0 1-24.346-14.053l-.015-.008a8013 8013 0 0 0-26.841-15.485c-1.921-1.104-2.706-2.299-2.698-4.58.077-24.254.089-48.506.102-72.759v-.004l.011-20.073v-3.34c.4.186.748.34 1.06.478.575.254 1.028.455 1.456.702 4.553 2.636 9.11 5.264 13.668 7.893l.015.008.015.009c11.798 6.804 23.596 13.608 35.321 20.536 11.4 6.736 23.405 7.906 36.04 4.84 3.513-.85 6.736-2.409 9.86-4.194l.02-.012c40.066-22.931 80.132-45.862 120.202-68.782 2.981-1.705 5.878-3.506 8.008-6.292.078-.101.204-.166.425-.28zM282.336 140.958c.288.184.599.382.945.599-.324.211-.611.403-.873.578h-.001c-.523.349-.952.635-1.397.89q-23.612 13.511-47.225 27.018l-.075.042-.016.01-.075.043-.017.009-.133.076-17.341 9.92a2299 2299 0 0 1-11.658 6.611l-.001.001h-.001c-9.016 5.091-18.032 10.181-26.884 15.542-12.62 7.641-19.525 19.232-19.627 33.972-.24 34.658-.196 69.317-.152 103.975q.016 11.653.027 23.306c.002 1.961.283 3.922.571 5.932.135.947.272 1.904.382 2.879-.503.035-.998-.298-1.508-.64-.184-.123-.37-.248-.56-.358-15.44-8.917-30.873-17.853-46.306-26.788q-3.575-2.072-7.144-4.155l-.006-.003-.001-.001c-5.567-3.245-11.135-6.491-16.756-9.639-3.52-1.973-5.386-4.858-5.94-8.705a34 34 0 0 1-.337-4.865c.022-42.101.051-84.202.114-126.302.018-13.453 7.824-26.848 19.268-33.385 20.355-11.629 40.705-23.268 61.054-34.906l.061-.034.074-.043.034-.019.043-.025.012-.007.113-.064.027-.016.027-.015.027-.016.28-.16 19.468-11.134q4.173-2.386 8.341-4.782l.001-.001h.001l.001-.001c6.471-3.716 12.94-7.43 19.45-11.078 2.247-1.261 4.689-2.251 7.146-3.058 2.497-.821 4.994-.348 7.293.98q1.423.82 2.842 1.647c2.291 1.333 4.582 2.665 6.904 3.944 1.236.682 1.709 1.577 1.683 2.948-.026 1.204-.014 2.41-.003 3.616.017 1.728.033 3.455-.059 5.177-.107 1.987.652 3.08 2.35 4.055 11.815 6.786 23.597 13.625 35.38 20.464l.007.004q4.295 2.494 8.591 4.986c.503.29.994.603 1.579.976m-35.375 170.746c-.53.245-.957.443-1.363.676q-3.1 1.77-6.199 3.544l-.004.003c-3.021 1.729-6.042 3.459-9.068 5.176l-.287.168-.003.002-.003.001v.001c-.565.334-1.213.719-1.68.591-1.411-.385-2.439.219-3.491.837q-.18.107-.363.212-4.187 2.394-8.376 4.783l-.001.001-.002.001h-.001l-.002.002h-.001c-8.451 4.822-16.902 9.644-25.306 14.543-2.09 1.218-4.268 1.518-6.53 1.683-.51.037-1.28-.37-1.555-.806-1.386-2.204-2.394-4.444-2.383-7.253.106-31.922.099-63.844.073-95.766 0-2.724.396-5.306 1.203-7.905 1.602-5.159 4.774-8.958 9.408-11.609q30.734-17.582 61.474-35.158l.023-.014.105-.06.105-.06q3.367-1.924 6.74-3.841h.001l.001-.001c5.75-3.27 11.5-6.541 17.194-9.904 1.881-1.113 3.654-.809 5.476-.496q.318.055.64.107c.388.063.832.55 1.023.95l.014.03c1.073 2.259 2.12 4.463 2.094 7.131-.088 8.55-.083 17.101-.078 25.652v.001q.003 4.275.001 8.55-.001.7-.009 1.403v.003c-.013 1.242-.025 2.486.049 3.723.041.671.264 1.61.737 1.925 1.224.816 1.216 1.909 1.207 3.098v.122c-.017 4.365-.019 8.732-.021 13.098v.015l-.001 3.742v2.978c.383-.172.714-.312 1.009-.437.538-.227.955-.404 1.348-.627a944 944 0 0 0 4.984-2.858h.001l.001-.001c3.209-1.848 6.419-3.697 9.666-5.475 1.581-.865 2.087-1.947 2.083-3.692-.022-24.351 0-48.697.073-73.048.004-1.675-.517-2.658-1.994-3.49a701 701 0 0 1-17.534-10.179c-1.676-1.008-2.963-1.023-4.672-.029-7.635 4.449-15.31 8.831-22.983 13.213l-.004.002a6950 6950 0 0 0-7.519 4.297l-18.454 10.552-.004.002c-17.953 10.265-35.906 20.53-53.845 30.817l-.146.083c-2.136 1.224-4.321 2.476-6.143 4.097-8.939 7.942-14.197 17.739-14.215 29.916-.048 32.012-.061 64.025-.075 96.037v.218l-.013 29.805q-.001.449-.012.902c-.019.927-.037 1.857.118 2.754.301 1.749.616 3.556 1.316 5.17 1.79 4.136 5.838 6.182 10.216 5.067a26.7 26.7 0 0 0 6.526-2.622c13.731-7.784 27.433-15.626 41.134-23.466l.007-.004q5.523-3.162 11.047-6.321 1.678-.962 3.352-1.932c2.267-1.312 4.534-2.625 6.827-3.887 1.147-.635 1.628-1.427 1.58-2.728-.05-1.392-.037-2.787-.023-4.183q.01-.963.012-1.926v-9.013q.759-.438 1.491-.855h.001l.001-.001.002-.001c1.204-.687 2.358-1.344 3.477-2.061.572-.367 1.298-.965 1.371-1.533.137-1.048.114-2.116.088-3.302-.01-.499-.022-1.019-.022-1.567l-.014.003c-.331.159-.624.296-.892.42l-.005.002zm121.077-86.982c-.441.231-.816.424-1.147.594-.618.318-1.082.557-1.533.814l-23.367 13.367-.19.109c-22.893 13.097-45.787 26.195-68.696 39.262-1.614.92-2.296 1.932-2.277 3.835.091 9.284.066 18.568-.008 27.849-.014 1.741.51 2.794 2.076 3.692a6740 6740 0 0 1 43.131 24.955c1.433.836 2.519.917 4.004.063a6418 6418 0 0 1 45.595-26.063c1.807-1.023 2.416-2.218 2.412-4.253-.039-22.099-.024-44.195-.009-66.293v-.007l.009-15.053zm-123.254 96.796.001.001c.388.258.685.456.992.634 16.764 9.717 33.528 19.43 50.303 29.135l.641.373c1.194.699 2.396 1.401 3.671 1.908 13.398 5.328 26.576 5.104 39.285-2.046 9.621-5.412 19.193-10.914 28.766-16.416l.002-.001.002-.001.002-.001.002-.001.001-.001c4.543-2.611 9.085-5.222 13.633-7.823l18.103-10.352c20.116-11.502 40.234-23.005 60.327-34.546 2.094-1.203 4.136-2.655 5.838-4.356 4.488-4.485 4.48-10.234-.011-14.74-1.643-1.647-3.641-3.007-5.647-4.217-3.461-2.087-6.968-4.098-10.475-6.109q-2.475-1.416-4.943-2.845l-6.466-3.746-.052-.03-.004-.002-.003-.002-.003-.002-.003-.002-.003-.001a15713 15713 0 0 1-30.019-17.419c-1.196-.697-2.193-1.1-3.583-.279-3.453 2.046-6.938 4.035-10.424 6.024l-.002.002-.005.002-.004.003-.004.002-.005.003-.004.002q-2.716 1.547-5.425 3.107c-.242.139-.446.347-.711.616h-.001c-.139.143-.296.302-.483.476l9.288 5.39 3.364 1.953q2.754 1.6 5.509 3.195 2.271 1.315 4.547 2.628 2.274 1.312 4.546 2.627 4.548 2.627 9.09 5.261l2.449 1.415a731 731 0 0 1 6.424 3.733c.997.588 2.005 1.158 3.028 1.736l.001.001h.001c2.028 1.146 4.114 2.326 6.287 3.741-.328.244-.604.46-.85.652-.463.362-.817.639-1.203.859-18.637 10.672-37.282 21.33-55.926 31.988l-.046.026q-7.39 4.224-14.783 8.445l-.021.013c-16.415 9.376-32.83 18.751-49.212 28.19-1.907 1.1-3.256 1.008-5.093-.066-9.044-5.283-18.107-10.532-27.169-15.781l-.001-.001-.011-.005-.01-.006-.01-.006-.011-.006c-7.831-4.537-15.663-9.073-23.483-13.631-1.463-.854-2.563-.862-3.997-.011-3.346 1.989-6.726 3.918-10.107 5.847l-.009.005q-2.245 1.28-4.485 2.567c-.387.222-.761.467-1.221.768l-.001.001-.003.002-.004.003-.004.002c-.273.179-.576.377-.93.602l.007.011.264.173.482.319.008.006zm-19.918-42.705c-.381.181-.711.33-1.005.464-.524.239-.936.426-1.331.647a782 782 0 0 0-6.794 3.861 9794 9794 0 0 0-7.773 4.446l-.041.023-.007.004c-5.662 3.239-11.323 6.478-16.995 9.702-.154.088-.306.193-.461.298-.638.438-1.311.9-2.3.304q-.02-.22-.049-.456v-.001c-.042-.361-.087-.745-.087-1.131q.004-8.319.012-16.638v-.04c.014-15.286.028-30.571-.023-45.857-.007-2.02.715-3.04 2.384-3.989 14.02-7.975 28.02-15.989 42.019-24.004l.009-.005.009-.005.009-.006 13.089-7.492q.15-.087.295-.182c.179-.114.357-.228.549-.309 1.023-.429 1.584-.154 1.741.913.068.47.058.953.048 1.435v.001q-.006.258-.007.515l-.01 11.817c-.007 7.868-.015 15.735-.012 23.603 0 .611.062 1.221.13 1.895.034.336.07.688.101 1.064.282-.122.522-.218.732-.303.387-.156.672-.271.936-.423q2.723-1.551 5.442-3.111l.005-.002c3.907-2.239 7.815-4.478 11.753-6.659 1.401-.774 1.603-1.815 1.599-3.208-.012-10.098-.008-20.193-.004-30.289v-.114q.004-7.517.004-15.035c0-.462-.054-.922-.117-1.462v-.004l-.001-.003a48 48 0 0 1-.095-.87c-.307.142-.587.265-.847.38-.503.221-.931.41-1.334.639a158084 158084 0 0 0-76.147 43.553c-.491.276-.991.557-1.385.939-4.312 4.191-6.915 9.152-6.897 15.315.016 5.998.007 11.995-.002 17.993q-.006 3.461-.009 6.922l-.011 14.992q-.02 22.551-.029 45.101c0 .669.052 1.337.113 2.099.031.391.063.807.092 1.26.35-.171.657-.315.936-.446.523-.246.943-.443 1.345-.672q5.506-3.144 11.01-6.293h.001l.04-.023c9.039-5.169 18.078-10.339 27.144-15.461 1.694-.957 2.439-2.02 2.402-4.018-.081-4.303-.063-8.609-.045-12.915v-.002q.015-2.947.016-5.893c0-.534-.035-1.065-.078-1.74v-.002a97 97 0 0 1-.069-1.133zm183.982-90.856a75 75 0 0 0-.981-.473c-.497-.236-.86-.409-1.208-.609a64471 64471 0 0 1-39.966-23.126q-19.653-11.381-39.304-22.764a221785 221785 0 0 0-78.671-45.557 81 81 0 0 1-1.219-.722h-.001c-1.057-.637-1.581-.952-2.104-.953-.514 0-1.028.301-2.046.898a67 67 0 0 1-1.37.788c-.309.173-.622.34-.937.51-1.303.702-2.653 1.43-4.031 2.563l49.587 28.738.729.423.446.258 1.072.621 110.002 63.75c-.356 1.34-1.127 1.275-1.853 1.213a5 5 0 0 0-.439-.025q-6.666-.002-13.333-.009h-.006a8993 8993 0 0 0-34.06.016c-1.159 0-2.424.352-3.454.895-2.294 1.208-4.534 2.52-6.773 3.831L337 199.349c-.303.175-.576.398-.85.621q-.19.157-.386.307c29.154.443 58.165.854 87.348.861.022-.354.046-.676.068-.976.047-.638.087-1.177.089-1.715.013-1.809.003-3.62-.007-5.429l-.004-.68-.048-8.403c-.056-9.823-.111-19.646-.183-29.466-.005-.839-.074-1.678-.151-2.613-.038-.458-.078-.939-.113-1.453-.372.187-.703.348-1.005.495l-.002.001c-.578.282-1.048.511-1.501.769-.976.557-1.947 1.126-2.918 1.695-1.981 1.161-3.963 2.322-5.995 3.383-1.592.829-2.138 1.885-2.138 3.648.003 6.399-.069 12.798-.141 19.197l-.057 5.234c-.005.571-.04 1.14-.084 1.86v.002c-.023.376-.049.793-.074 1.273zM229.405 319.784l1.601-.883c1.194-.658 2.273-1.251 3.342-1.863q2.227-1.272 4.45-2.553a811 811 0 0 1 7.632-4.355c1.041-.583 1.602-1.302 1.507-2.519a13 13 0 0 1-.014-1.317q.009-.32.01-.637.002-4.608.007-9.216c.009-9.219.018-18.438-.029-27.656-.007-1.606.429-2.519 1.896-3.242 1.583-.775 3.104-1.676 4.625-2.577l.003-.002.002-.001c.65-.385 1.3-.77 1.955-1.145q3.594-2.056 7.186-4.114h.002v-.001c6.856-3.926 13.712-7.853 20.594-11.736 1.529-.862 2.171-1.885 2.138-3.67-.068-3.611-.057-7.223-.046-10.834v-.001c.005-1.843.011-3.684.006-5.526 0-.497-.063-.996-.136-1.579-.037-.298-.078-.619-.114-.973-.36.179-.675.33-.96.467-.522.25-.942.451-1.342.681q-6.624 3.784-13.245 7.571c-12.967 7.416-25.932 14.831-38.928 22.195-1.746.99-2.285 2.159-2.281 4.081.031 13.615.02 27.231.01 40.845v.005q-.007 8.877-.01 17.754c0 .504.034 1.007.075 1.63v.001c.023.343.048.723.072 1.159zm164.329-127.981.187-.565-1.026-.605-.002-.001-.001-.001a273 273 0 0 0-2.285-1.34l-112.64-65.274a79080 79080 0 0 0-39.314-22.77c-.465-.268-.95-.501-1.536-.781h-.001l-.002-.001v-.001h-.002v-.001a64 64 0 0 1-1.081-.525c0 1.103.01 2.158.019 3.18v.004c.021 2.306.041 4.442-.056 6.573-.084 1.863.532 2.945 2.189 3.88 5.632 3.173 11.22 6.423 16.808 9.673q3.018 1.757 6.039 3.508l17.592 10.196.014.008c30.901 17.909 61.803 35.818 92.695 53.743 1.382.803 2.772 1.243 4.385 1.228 3.395-.027 6.789-.02 10.183-.013 1.979.004 3.959.009 5.94.006.434 0 .87-.038 1.305-.076q.296-.027.59-.049zm-6.636 109.065 18.791-10.746.507-.29.242-.139 33.117-18.939c-.37-.242-.694-.459-.988-.656l-.006-.003-.003-.002c-.607-.406-1.088-.728-1.588-1.019-3.222-1.873-6.447-3.736-9.671-5.6l-2.72-1.572-1.337-.773-10.489-6.073-.034-.019a26588 26588 0 0 0-23.273-13.466c-.478-.276-.982-.506-1.576-.778h-.002l-.001-.001c-.298-.136-.618-.282-.969-.45zm-196.602-4.564.001-.001c.467-.18.855-.33 1.211-.535q5.362-3.062 10.721-6.131l.009-.005.009-.005.01-.006.003-.002.004-.002.003-.002.004-.002.004-.002c6.855-3.923 13.711-7.847 20.583-11.744 1.353-.766 2.006-1.654 1.988-3.263a981 981 0 0 1 .014-20.006c.015-1.353-.539-2.031-1.639-2.654-5.514-3.132-11.018-6.289-16.467-9.534-1.301-.773-2.313-.737-3.578.015-3.773 2.244-7.565 4.466-11.44 6.53-1.735.924-2.362 2.076-2.354 4.041.05 9.935.039 19.87.028 29.805v.004q-.008 5.589-.01 11.177c0 .516.032 1.035.068 1.627.019.308.039.636.057.995l.007.003c.278-.116.531-.213.764-.303m55.882-95.752c-.313.124-.583.224-.821.311-.449.165-.786.289-1.093.466q-6.458 3.689-12.914 7.384c-7.921 4.531-15.843 9.063-23.778 13.575-1.294.737-1.833 1.642-1.811 3.124.062 4.231.066 8.47-.015 12.701-.029 1.522.62 2.38 1.874 3.095 5.8 3.307 11.586 6.636 17.328 10.039 1.302.77 2.34.7 3.601-.037 5.13-2.999 10.267-5.995 15.484-8.833 1.76-.957 2.314-2.145 2.303-4.081-.049-8.202-.042-16.407-.034-24.611v-.039q.005-5.139.005-10.278c0-.513-.03-1.025-.066-1.641-.02-.349-.043-.733-.063-1.168zm73.918 30.22h-.001l-.001.001c-.623.312-1.114.557-1.591.828a26233 26233 0 0 0-17.784 10.171l-.006.004-.006.003-.006.003-.086.049-.049.029-10.05 5.75-6.386 3.652-.006.004-.007.004-.006.003a7444 7444 0 0 1-29.455 16.793c-1.511.854-2.204 1.822-2.197 3.634.038 9.164.026 18.329.013 27.493q-.01 6.163-.013 12.327c0 .455.054.91.122 1.491.034.294.072.62.109.995 2.362-1.353 4.386-2.512 6.413-3.671q.307-.177.613-.361c1.437-.86 2.887-1.727 4.939-.995v-2.934q.004-3.651.015-7.302v-.001c.018-6.442.036-12.884-.034-19.324-.022-1.962.591-3.069 2.31-4.044 11.492-6.503 22.951-13.063 34.409-19.623l.004-.001.042-.025.042-.024 8.994-5.147q2.892-1.655 5.783-3.315l.027-.015.025-.015 3.489-2.001c.788-.451 1.555-.898 1.551-1.991-.008-2.924-.006-5.849-.005-8.994l.001-1.954v-2.109c-.461.237-.858.435-1.212.612m101.921-27.979a21 21 0 0 0-1.665-.104c-1.804-.023-3.609-.03-5.412-.037h-.012l-2.393-.01-12.753-.063h-.035c-21.309-.104-42.621-.209-63.93-.3-.741-.003-1.482.06-2.233.124q-.538.047-1.085.085v12.349c.333.02.645.043.944.065.571.041 1.093.079 1.615.089 2.442.04 4.888.066 7.33.077 26.063.117 52.122.231 78.184.33.531 0 1.059-.065 1.592-.131q.366-.048.737-.085v-12.317h-.004q-.461-.035-.88-.072M270.369 227.23c.432-.225.8-.415 1.126-.583.636-.327 1.107-.57 1.566-.832.936-.533 1.868-1.077 2.799-1.62l.002-.001c2.021-1.179 4.041-2.358 6.116-3.432 1.731-.894 2.405-1.998 2.394-4-.077-12.448-.033-24.9.022-37.349.008-1.679-.322-3.201-1.041-4.7-1.027-2.134-1.903-2.721-4.165-2.424-.62.081-1.24.374-1.801.678-.572.31-1.131.646-1.69.981-.91.547-1.819 1.092-2.779 1.524-1.988.891-2.585 2.236-2.571 4.403.068 11.263.051 22.523.035 33.784v.004q-.008 5.197-.013 10.396zm-45.518 93.625v-15.697c-.412.208-.785.391-1.129.559-.663.325-1.221.598-1.756.904-6.082 3.468-12.16 6.945-18.239 10.422l-3.996 2.287q-2.146 1.228-4.289 2.459c-3.93 2.256-7.859 4.512-11.811 6.722-1.225.686-1.757 1.529-1.702 2.915.074 1.866.077 3.74-.003 5.61-.076 1.741.794 3.089 1.657 4.427l.165.255c.231.363.964.591 1.452.569 1.712-.074 3.311-.506 4.851-1.394 7.59-4.38 15.198-8.728 22.806-13.076l.006-.003.006-.003.005-.004q5.201-2.971 10.401-5.947c.437-.25.859-.531 1.197-.756q.216-.144.379-.249m42.721-43.78.012.01c2.334 1.86 2.345 1.869 4.472.654q4.272-2.442 8.54-4.888l.016-.01.006-.003q3.244-1.859 6.49-3.716 19.364-11.077 38.729-22.152l38.67-22.119a46 46 0 0 0 1.585-.962l.258-.161.128-.08.167-.103.136-.084-.014-.013c-2.113-2-2.125-2.012-4.493-.658a395911 395911 0 0 0-92.455 52.888c-.462.264-.913.551-1.426.878-.256.162-.526.335-.821.519m-77.222-29.076c-.15.048-.312.099-.49.162-.03-.247-.063-.471-.094-.681v-.002c-.062-.413-.115-.769-.115-1.126q-.006-2.745-.002-5.492v-.008c.001-2.063.003-4.126-.005-6.189-.007-1.1.099-2.046 1.225-2.677 2.453-1.37 4.894-2.764 7.334-4.157l.003-.002.004-.003c1.646-.939 3.292-1.879 4.942-2.812.166-.096.369-.128.616-.166.13-.02.271-.042.425-.076q.054.328.114.621c.077.391.147.746.147 1.102.007 1.622.005 3.245.003 4.868v.001c-.002 2.273-.005 4.547.019 6.821.011 1.265-.389 2.134-1.533 2.775a754 754 0 0 0-7.425 4.225l-.003.001-.002.002-.003.001-.002.001-.003.002a1284 1284 0 0 1-4.409 2.522c-.216.121-.458.197-.746.287m60.34 19.022c1.245 1.146 2.101.581 2.866.075.141-.093.279-.184.416-.262a57977 57977 0 0 0 64.262-36.74c.475-.273.933-.575 1.39-.878q.309-.205.619-.405a28 28 0 0 0-.036-.506c-.17-.024-.343-.06-.515-.095-.397-.083-.793-.165-1.161-.096-.385.072-.744.303-1.099.533-.135.087-.269.174-.404.252l-.104.059-.044.025-.148.085-.045.025-.044.026q-31.935 18.269-63.863 36.549c-.419.239-.82.508-1.305.834-.237.158-.493.33-.781.519zm18.441 44.266a6 6 0 0 0-.133.367c-1.659-.476-2.633-1.144-2.622-2.895.04-6.447.048-12.895.056-19.342q.004-4.582.014-9.163c0-.215.049-.43.098-.642v-.001q.036-.149.063-.296c2.171.202 2.677.539 2.681 2.255.022 8.596.002 17.192-.018 25.788v.009l-.008 3.441c-.002.144-.058.288-.131.478zm-19.313 4.057.308.211.139.095.169.116q.09-.192.191-.382l.001-.001c.151-.29.302-.58.369-.886.114-.534.113-1.095.113-1.648v-.05q.028-20.641.044-41.283.001-.171.008-.348c.014-.383.027-.772-.099-1.104-.112-.288-.348-.527-.586-.767a6 6 0 0 1-.309-.329l-.561.198c-.16 10.552-.146 21.108-.131 31.662.007 4.398.013 8.795.006 13.192 0 .301.103.603.205.905q.074.21.133.419m-22.015-61.497c1.153.351 1.851-.108 2.499-.535.149-.098.296-.195.445-.279 7.852-4.466 15.693-8.949 23.533-13.43a13156 13156 0 0 1 9.404-5.375c6.4-3.656 12.801-7.313 19.185-10.994.143-.083.301-.156.462-.23.595-.277 1.236-.573 1.371-1.457-1.866.33-54.01 29.916-56.899 32.3m-1.027 1.95a67 67 0 0 1-.045.782c-.038.609-.076 1.217-.076 1.825q-.025 29.07-.04 58.139 0 .217-.006.436c-.009.427-.018.856.05 1.269.043.258.172.5.339.813.087.163.184.345.284.558.679-2.779.58-62.139-.506-63.822m139.773 122.898v-.021c-.005-7.967-.011-15.936.018-23.902.015-3.982 1.793-7.015 5.277-9.013q7.629-4.369 15.262-8.731l.006-.003.006-.004.007-.003.006-.004.009-.005c13.987-7.997 27.973-15.993 41.911-24.07 4.407-2.556 6.78-.099 6.754 4.015-.135 20.947-.156 41.894-.178 62.841v.017l-.002 1.888c0 2.68-.3 5.265-2.09 7.348-1.037 1.21-2.269 2.372-3.644 3.16-15.433 8.88-30.894 17.715-46.355 26.55l-9.83 5.618-.296.17h-.001v.001h-.001c-.608.349-1.218.699-1.858.973-2.526 1.078-4.59-.099-4.953-2.834-.082-.621-.075-1.253-.067-1.885l.003-.272.001-.282v-32.252h.019q0-4.65-.004-9.3m60.726-62.628c.351-.191.745-.407 1.204-.66v2.951q-.009 8.341-.022 16.683v.003c-.022 14.375-.044 28.751-.007 43.125.011 4.524-1.742 7.637-5.746 9.9-12.202 6.89-24.36 13.861-36.518 20.832l-.027.015q-7.478 4.29-14.961 8.57c-.508.292-1.03.557-1.631.86-.296.15-.612.309-.954.486-.042-.296-.089-.56-.132-.805-.084-.471-.154-.866-.154-1.259q-.006-31.004.026-62.007c.004-3.608 1.83-6.102 4.906-7.851 8.109-4.617 16.208-9.252 24.307-13.888l.012-.007.011-.006.012-.007.108-.062.107-.061.105-.06 8.188-4.686 7.373-4.214q6.062-3.467 12.126-6.929c.495-.281.996-.556 1.648-.912l.002-.001zm6.524 33.832h.074q.001-15.633-.004-31.266a57 57 0 0 0-.093-2.82v-.005l-.017-.347c-.051-1.001-.455-1.752-1.562-1.829-1.06-.074-2.013.762-2.127 1.892-.061.614-.054 1.237-.048 1.859v.002l.003.283.001.298q-.009 8.256-.028 16.513c-.03 14.363-.06 28.727.025 43.088.033 5.563-2.061 9.328-6.963 12.082-12.861 7.224-25.654 14.566-38.447 21.908l-.009.004q-6.968 4.002-13.941 7.993l-.059.034-.047.027-.066.037-.111.062-.001.001c-.475.267-.954.536-1.366.881-.902.751-.829 1.752-.345 2.658.521.979 1.43.953 2.332.539.488-.224.955-.491 1.422-.758l.085-.049q27.254-15.558 54.502-31.126.371-.211.745-.419c.964-.537 1.932-1.077 2.782-1.755 2.394-1.911 3.296-4.503 3.282-7.539-.032-7.846-.027-15.693-.022-23.54v-.022q.003-4.34.003-8.683zm-322.288-28.316.003.002-.003.003zm.164-1.123c-.053.342-.112.711-.164 1.123a59 59 0 0 0-1.004-.457l-.001-.001c-.573-.256-1.043-.467-1.489-.721a929 929 0 0 1-4.517-2.625l-.002-.001-.002-.001c-2.852-1.665-5.705-3.329-8.587-4.937-1.44-.803-2.064-1.724-2.064-3.443.048-24.969.052-49.938.055-74.905l.003-16.645-.002-.282a7 7 0 0 1 .032-.935c.132-.975.722-1.21 1.57-.854.367.153.714.359 1.06.564l.226.132q1.882 1.089 3.761 2.185v.001c3.106 1.809 6.213 3.619 9.358 5.357 1.544.85 2.109 1.859 2.105 3.659-.063 20.865-.088 41.732-.113 62.598q-.016 14.227-.037 28.453c0 .545-.086 1.091-.188 1.735m-15.328-11.526c-.077-.009-.154-.018-.225-.018h-.004c-.58-2.053-.56-88.282.062-90.53q.282.123.563.236l.001.001c.401.163.795.324 1.16.533 1.23.704 2.455 1.417 3.679 2.129 2.293 1.336 4.585 2.67 6.914 3.94 1.426.777 1.855 1.778 1.84 3.336-.046 5.588-.05 11.178-.054 16.767q-.001 4.192-.012 8.383c-.036 14.729-.08 29.461-.124 44.193v.001c-.001.216.008.433.017.651.021.524.043 1.049-.076 1.538-.158.649-.469 1.482-.979 1.786-3.657 2.167-7.365 4.251-11.073 6.335l-.002.001-1.22.686c-.123.07-.296.051-.467.032m13.437-5.32c.685 1.452.854 11.946.143 15.25v-.004c-4.47-2.599-8.727-5.078-13.046-7.593 1.452-1.482 10.255-6.641 12.903-7.653m31.192-15.671v45.668q.001.194.01.389c.01.279.02.558-.017.829-.151 1.092-.682 1.426-1.676 1.052-.285-.105-.548-.266-.812-.427l-.259-.156q-1.976-1.149-3.948-2.305h-.001c-3.181-1.862-6.362-3.725-9.584-5.512-1.504-.833-1.958-1.874-1.955-3.528.038-17.211.057-34.423.075-51.635v-.002q.019-19.366.05-38.731c0-.998.04-2.362.642-2.908.709-.64 1.449-.094 2.146.421h.001c.218.161.432.319.639.437 1.686.958 3.361 1.933 5.037 2.909l.002.001c2.545 1.482 5.09 2.964 7.67 4.383 1.463.807 2.112 1.742 2.097 3.443-.069 9.274-.088 18.548-.107 27.824v.004l-.017 7.585a2226 2226 0 0 0-.002 6.837v.017l.002 3.401h.003zm-16.188 36.128c.252-.1.473-.181.671-.252.367-.134.654-.238.916-.386q1.885-1.071 3.763-2.154v-.001h.001c2.204-1.268 4.409-2.537 6.639-3.76 1.844-1.012 2.552-2.368 2.541-4.528-.067-10.513-.056-21.023-.045-31.535q.006-5.114.008-10.228 0-3.39-.004-6.778v-.012c-.007-7.017-.014-14.034.044-21.051.015-1.676-.498-2.684-1.983-3.487-2.272-1.231-4.506-2.532-6.74-3.834l-.001-.001-.002-.001h-.001l-.001-.001a471 471 0 0 0-3.643-2.107c-.388-.221-.805-.392-1.31-.599-.259-.106-.54-.221-.853-.358zm14.311-6.102-1.495.853-.077.043-.137.079-.125.071c-3.921 2.236-7.705 4.394-11.832 6.75a772 772 0 0 1 2.949 1.745l.015.008.002.002c3.594 2.134 6.993 4.152 10.7 6.066zM121.021 154.87l-.002.002v-.003zm.885.629a66 66 0 0 0-.885-.629c.318-.237.582-.443.814-.625.421-.329.736-.576 1.079-.777l27.64-16.218.037-.021.008-.005.005-.003h.001a76755 76755 0 0 0 50.871-29.861c1.232-.723 2.274-.954 3.608-.18 2.999 1.747 6.022 3.452 9.043 5.156l.004.002.002.001c1.797 1.014 3.595 2.028 5.387 3.051.305.173.578.401.927.691.183.153.387.323.628.511-.235.195-.445.382-.643.558l-.001.001c-.391.348-.732.652-1.116.879q-10.479 6.136-20.962 12.262c-7.629 4.459-15.257 8.918-22.881 13.386-11.517 6.75-23.03 13.508-34.492 20.346-1.544.921-2.706.932-4.22.041-2.943-1.731-5.921-3.402-8.9-5.073h-.001q-2.348-1.315-4.688-2.642c-.4-.228-.777-.499-1.264-.85zm2.983-.47a5 5 0 0 0-.215-.34v-.004q.353-.233.688-.465c.447-.306.881-.603 1.333-.869q8.564-5.028 17.129-10.052l.005-.003c19.064-11.185 38.127-22.37 57.16-33.604 1.778-1.049 3.098-1.133 4.854-.037 2.154 1.344 4.381 2.57 6.609 3.796 1.053.58 2.107 1.16 3.152 1.752.448.252.883.528 1.4.855.278.176.581.368.921.578-.306.206-.58.397-.835.575-.485.338-.902.628-1.339.885q-35.472 20.823-70.943 41.635l-1.277.746-.002.002-.002.001c-1.118.653-2.237 1.306-3.346 1.975-.737.447-1.452.689-2.281.216q-2.84-1.626-5.684-3.248l-.004-.002-.004-.002a2547 2547 0 0 1-7.02-4.015c-.116-.066-.193-.197-.299-.375m27.084 14.803q.316-.216.627-.44v-.001c.429-.305.857-.611 1.309-.875q10.165-5.966 20.332-11.93c19.067-11.185 38.133-22.369 57.177-33.595 1.848-1.089 3.271-1.177 5.126-.055 2.874 1.74 5.811 3.379 8.748 5.018v.001l.002.001c1.401.782 2.803 1.564 4.197 2.357.453.257.886.547 1.425.907.278.186.583.39.933.618-.288.223-.535.425-.759.609h-.001c-.416.341-.753.617-1.125.836q-29.152 17.107-58.308 34.204l-16.279 9.547-1.021.596h-.001c-1.137.662-2.276 1.325-3.382 2.033-1.015.652-1.914.619-2.951.025-4.299-2.451-8.617-4.867-12.934-7.283h-.001l-1.963-1.099c-.343-.19-.696-.363-1.05-.535l-.001-.001-.445-.219.229-.472.119-.247zM248.534 132a82 82 0 0 1-.868-.572c-.514-.341-.947-.629-1.398-.884-1.111-.63-2.23-1.249-3.348-1.868-2.3-1.275-4.601-2.55-6.849-3.914-1.543-.939-2.746-.811-4.242.084-4.876 2.926-9.785 5.795-14.694 8.664q-2.549 1.489-5.095 2.981c-18.26 10.711-36.52 21.421-54.776 32.139-.478.28-.944.585-1.505.954l-.001.001c-.291.191-.608.399-.966.629q1.681.952 3.306 1.875l.003.002c3.599 2.043 7.017 3.983 10.463 5.874.462.253 1.236.128 1.801-.037.432-.127.827-.382 1.22-.636q.241-.158.485-.302l.016-.01.009-.005q36.64-21.496 73.275-42.999c.62-.365 1.228-.752 1.918-1.191l.001-.001c.383-.243.792-.503 1.242-.784zm176.322 234.206q.01-2.684.012-5.366h.058l-.001-4.761c-.003-4.763-.006-9.527.016-14.291.007-1.404-.308-2.578-1.599-3.315q-1.117-.633-2.238-1.264a276 276 0 0 1-4.552-2.6c-1.185-.697-2.296-.664-3.451.025a47 47 0 0 1-1.429.812q-.457.251-.91.508c-2.776 1.588-5.547 3.186-8.318 4.783-6.964 4.015-13.928 8.03-20.979 11.886-3.703 2.024-5.188 4.66-5.074 8.826.146 5.461.113 10.928.08 16.395-.015 2.351-.029 4.702-.029 7.053q.002 1.772.011 3.545c.014 2.889.027 5.78-.04 8.669-.044 1.932.561 3.252 2.346 4.125 1.606.784 3.212 1.646 4.628 2.72 2.068 1.57 3.85 1.35 6.02.081a2356 2356 0 0 1 31.361-17.985c2.875-1.624 4.177-3.85 4.125-7.135-.067-4.236-.052-8.474-.037-12.711m-2.973-25.729a55 55 0 0 0 1.148-.489c.044.49.09.914.132 1.294.078.718.139 1.281.139 1.844q.003 6.52-.004 13.041c-.007 7.69-.013 15.381.015 23.072.011 2.461-.928 4.14-3.073 5.357a5910 5910 0 0 0-20.608 11.759q-5.584 3.198-11.171 6.388c-.395.226-.821.399-1.342.612-.281.115-.591.241-.938.392a22 22 0 0 0-.189-.881c-.121-.526-.222-.968-.222-1.41-.009-7.998-.005-15.997-.001-23.997q.004-6.666.005-13.334c0-2.394 1.25-3.901 3.241-5.034 6.105-3.475 12.202-6.964 18.299-10.452q6.526-3.736 13.055-7.463c.436-.249.904-.444 1.514-.699m-.965-1.502c-.432-.259-.825-.482-1.187-.688-.723-.41-1.323-.75-1.863-1.17-1.987-1.544-3.747-1.427-5.958-.125a1346 1346 0 0 1-29.876 17.076c-2.937 1.628-4.129 3.699-4.096 7.036.088 8.376.064 16.753.04 25.129q-.015 4.767-.022 9.532-.001.255-.008.512c-.011.483-.022.967.056 1.435.088.532.231 1.254.609 1.507q.314.21.627.426c1.445.985 2.926 1.996 4.95 2.493v-3.084q.005-4.748.02-9.495c.022-7.982.044-15.963-.042-23.945-.041-3.843 1.327-6.387 4.752-8.279 7.215-3.996 14.362-8.112 21.509-12.229q3.977-2.292 7.96-4.576c.467-.268.925-.554 1.526-.93.294-.184.622-.39 1.003-.625" clip-rule="evenodd"/>
</svg>
