<svg xmlns="http://www.w3.org/2000/svg" width="550" height="550" fill="none" viewBox="0 0 550 550">
    <path fill="#fff" fill-rule="evenodd" d="M331.758 269.304q.455-.001.902.072l.317.061h.002q.175.04.348.094l.012.003q.158.048.312.106l.037.013.137.057.019.007.083.028c1.921.86 3.072 2.799 3.448 5.122.376 2.327-.009 5.106-1.217 7.797a16 16 0 0 1-.949 1.802q-.05.084-.102.165-.367.587-.771 1.119c-.951 1.254-2.044 2.28-3.195 3.013-1.985 1.265-4.198 1.694-6.121.831a5.3 5.3 0 0 1-1.737-1.282l-.001-.002a6 6 0 0 1-.778-1.093c-.645-1.141-.995-2.542-1.054-4.059l-.004-.101v-.006a13 13 0 0 1 .236-2.869 15.4 15.4 0 0 1 .885-2.988q.106-.26.221-.519c.378-.842.817-1.631 1.302-2.355 1.006-1.503 2.213-2.729 3.499-3.592l.191-.128.035-.026c1.267-.806 2.622-1.266 3.938-1.27zm2.493 1.847a7 7 0 0 1 .271.66l.036.096q.066.195.125.395l.034.123q.04.149.076.299l.034.143q.033.149.061.301l.026.138a11 11 0 0 1 .13 1.074l.01.177c.003.067.01.134.012.201q.111.292.195.602l.015.053q.096.358.156.738l.006.034c.266 1.736-.026 3.783-.91 5.753-1.239 2.768-3.376 4.788-5.552 5.354l-.063.016-.148.034-.098.02-.053.012-.144.085a15 15 0 0 1-.398.225l-.139.072q-.098.051-.198.1a8 8 0 0 1-.317.145l-.165.067a9 9 0 0 1-.251.098l-.154.054a6 6 0 0 1-.284.091l-.085.027a7 7 0 0 1-.807.177l-.117.018a6 6 0 0 1-.261.03l-.08.008.018.011.198.093.003.002c1.515.681 3.365.388 5.171-.762.939-.599 1.85-1.421 2.668-2.431a14.7 14.7 0 0 0 1.97-3.225c1.139-2.536 1.483-5.115 1.142-7.224-.286-1.769-1.044-3.16-2.171-3.967zm-11.535 13.883q.147.584.368 1.098c.225.522.505.985.836 1.38l.018.004c.815.151 1.697.066 2.597-.244a4 4 0 0 1-.403-.15 3.7 3.7 0 0 1-.668-.395l-1.759-1.05-.003-.001a3.8 3.8 0 0 1-.986-.642m9.68-11.898c-1.066-.473-2.382-.273-3.688.559s-2.545 2.268-3.378 4.121c-.76 1.695-1.033 3.411-.883 4.861.122 1.177.517 2.147 1.12 2.807q.208.227.447.402l.544.326c.548.238 1.152.301 1.788.195 1.891-.313 4.018-2.109 5.265-4.879 1.076-2.401 1.165-4.821.493-6.481h-.001c-.327-.813-.83-1.423-1.476-1.785l-.01-.004c-.106-.058-.154-.09-.221-.122m-3.387-1.686a3.4 3.4 0 0 0-.737.024l-.064.043c-1.304.864-2.548 2.155-3.557 3.779a15 15 0 0 0-.95 1.789 14.8 14.8 0 0 0-.989 3.034l-.01.048q-.068.34-.119.674l-.02.133a12.6 12.6 0 0 0-.119 1.954c.332.78.825 1.369 1.454 1.72a7 7 0 0 1-.45-1.872c-.17-1.645.141-3.537.965-5.374.901-2.005 2.262-3.604 3.755-4.555.719-.457 1.483-.771 2.246-.9a3 3 0 0 0-.42-.247l-.015-.006a3 3 0 0 0-.97-.244m3.57-1.071a4.8 4.8 0 0 0-1.763.02 6 6 0 0 0-.84.227q.177.055.35.129a.4.4 0 0 1 .059.02c.239.106.449.24.636.373l2.092 1.229.068.048a5 5 0 0 1 .289.189l.049.035q.145.108.282.229c-.247-.99-.656-1.84-1.209-2.498z" clip-rule="evenodd"/>
    <path fill="#fff" fill-rule="evenodd" d="M324.692 264.854c2.919-1.859 6.133-2.466 8.903-1.225l.344.164c.329.169.638.364.93.574l1.61.937.443.255.041.024.028.016c2.353 1.516 3.739 4.299 4.128 7.578.39 3.286-.211 7.126-1.887 10.862l-.043.076c-1.484 3.281-3.578 5.988-5.909 7.87a15.4 15.4 0 0 1-2.068 1.413c-1.763 1.004-3.605 1.548-5.382 1.507a7.5 7.5 0 0 1-2.907-.643.4.4 0 0 1-.051-.026l-.018-.012a8 8 0 0 1-.996-.558l-.274-.194-.015-.008-.046-.03-.021-.016-1.19-.703a7 7 0 0 1-1.078-.637l-.008-.006-.037-.027q-.094-.07-.185-.143l-.128-.101c-2.836-2.295-4.004-6.626-3.442-11.348.255-2.145.869-4.391 1.86-6.606l.346-.736q.35-.716.74-1.392.065-.112.132-.223.124-.214.252-.423.082-.132.166-.262a19 19 0 0 1 .665-.988q.098-.138.199-.274a21 21 0 0 1 1.135-1.413q.116-.134.236-.266.107-.118.216-.233.133-.143.268-.281l.234-.233q.128-.13.26-.255l.178-.166q.171-.16.344-.315l.094-.079q.197-.173.398-.339l.128-.1c.462-.37.93-.711 1.407-1.015m10.911 1.147c-2.365-1.06-5.218-.591-7.958 1.155q-.674.43-1.331.959c-2.222 1.788-4.25 4.395-5.683 7.59-1.105 2.468-1.715 4.97-1.87 7.298l-.025.462c-.163 4.022 1.058 7.384 3.352 9.132l.046.032c.376.282.775.522 1.206.714h.002a6.5 6.5 0 0 0 2.521.556l.411-.002c1.902-.064 3.939-.867 5.872-2.301q.25-.185.499-.384c2.215-1.789 4.231-4.391 5.657-7.572l.29-.674c1.387-3.372 1.859-6.768 1.515-9.661-.366-3.091-1.653-5.552-3.676-6.855l-.02-.016-.427-.245a7 7 0 0 0-.381-.188m-2.692-1.568c-2.309-.908-5.05-.409-7.686 1.27q-.505.32-.999.697c-2.185 1.663-4.201 4.116-5.682 7.144l-.331.707c-.952 2.125-1.537 4.274-1.78 6.315-.525 4.406.544 8.213 2.848 10.268-1.14-2.018-1.661-4.611-1.548-7.405.103-2.591.75-5.387 1.982-8.13.401-.893.85-1.743 1.334-2.547l.119-.199q.14-.227.285-.449l.104-.16q.137-.208.278-.41l.16-.231q.115-.162.234-.321a21 21 0 0 1 .636-.822q.133-.161.267-.319.106-.126.216-.251.112-.127.225-.252a22 22 0 0 1 .479-.511q.135-.139.272-.273l.202-.199q.164-.155.329-.305l.168-.153q.19-.169.383-.33l.112-.094q.78-.646 1.593-1.165c1.877-1.195 3.876-1.873 5.8-1.875m165.335-84.451c.654-.003 1.208.154 1.662.44a2.94 2.94 0 0 1 1.013 1.12c.459.86.578 1.92.578 2.777 0 1.193-.127 2.751-.94 4.395a9.4 9.4 0 0 1-1.399 2.061c-.851.963-1.998 1.91-3.543 2.79-4.38 2.497-86.321 49.115-113.45 64.493-1.722.977-3.224 1.827-4.471 2.532l-1.788 1.013-2.186 1.228c-1.884 1.04-3.347 1.422-4.474 1.321a4 4 0 0 1-.237-.028l-.117-.021a3 3 0 0 1-.19-.04c-1.222-.312-1.84-1.243-2.099-2.169l-.003-.011a4.6 4.6 0 0 1-.164-1.243c0-.241-.006-.536-.003-.871.006-.963.08-2.266.558-3.634.652-1.861 2.039-3.818 4.916-5.296l.003-.002.016-.009.063-.036.252-.143.98-.558 3.722-2.118 13.33-7.585c11.055-6.289 25.852-14.707 40.82-23.218 29.931-17.022 60.553-34.425 63.289-35.932 1.577-.867 2.844-1.255 3.862-1.256m.653 1.083c.081.456.112.914.112 1.333 0 1.191-.129 2.749-.943 4.395s-2.293 3.334-4.919 4.835l-.025.017c-5.136 2.927-116.594 66.34-121.895 69.266-1.352.745-2.483 1.151-3.428 1.285.106.19.237.361.398.504q.07.061.148.117.129.092.28.161.12.055.255.095l.073.021q.07.018.147.033c.828.151 2.138-.068 4.136-1.171l2.185-1.228c8.297-4.683 36.923-20.952 64.121-36.417 27.13-15.427 52.84-30.055 55.529-31.588l.049-.031c1.543-.879 2.642-1.809 3.424-2.733a8.4 8.4 0 0 0 1.114-1.685c.718-1.451.839-2.836.839-3.951 0-.797-.115-1.661-.46-2.307a1.9 1.9 0 0 0-.664-.743 1.8 1.8 0 0 0-.476-.208m-1.034-.055c-.743.084-1.722.407-2.999 1.109-2.728 1.503-33.341 18.9-63.278 35.925a225611 225611 0 0 0-40.819 23.218l-13.33 7.584-3.722 2.119-.981.558-.251.143-.063.036-.016.009-.004.002-.002-.003.001.004-.019.01c-2.657 1.362-3.874 3.122-4.444 4.746a9 9 0 0 0-.465 2.326c-.026.345-.036.67-.038.97-.003.324.003.618.003.874q0 .247.034.501l.013.081c.799-.081 1.864-.422 3.261-1.192 5.3-2.925 116.751-66.334 121.884-69.259l.454-.267a15 15 0 0 0 1.458-1.015q.177-.141.341-.282.281-.241.529-.484c.38-.371.703-.743.98-1.113q.474-.639.778-1.26c.717-1.45.837-2.834.837-3.952 0-.45-.041-.934-.142-1.388" clip-rule="evenodd"/>
    <path fill="#fff" fill-rule="evenodd" d="M490.723 175.688c4.454-2.429 7.422-2.651 9.348-1.532l.184.112.019.016q.259.173.477.364l2.302 1.769.078.057.021.017c.909.75 1.455 1.807 1.775 2.909.32 1.103.423 2.285.423 3.333 0 1.478-.117 3.264-.69 5.191a15 15 0 0 1-.963 2.451c-1.42 2.844-4.015 5.792-8.68 8.425-9.176 5.178-112.413 63.684-121.897 68.871-4.584 2.509-7.653 2.774-9.641 1.79l-.056-.033-.014-.009-.021-.016a4.4 4.4 0 0 1-1.177-.886l-.029-.026-1.573-1.176a4.4 4.4 0 0 1-.625-.474l-.014-.014-.01-.009c-1.337-1.229-1.758-3.113-1.758-4.626 0-.624-.021-1.429.01-2.356l.016-.369q.014-.322.041-.663c.103-1.35.346-2.887.907-4.475 1.135-3.214 3.556-6.61 8.63-9.186l.062-.035.242-.138.95-.537 3.607-2.045 12.952-7.338c10.761-6.095 25.212-14.278 39.967-22.628 29.507-16.697 60.245-34.066 65.137-36.734m11.717 1.539c-1.387-1.08-3.968-1.324-8.755 1.283-4.884 2.663-35.611 20.026-65.124 36.727a96476 96476 0 0 0-52.918 29.966l-3.608 2.044-1.191.675-.062.035-.015.008-.004.002-.002-.003-.001.001.002.003-.021.011c-1.479.75-2.715 1.571-3.749 2.431-2.351 1.958-3.657 4.128-4.386 6.19-1.058 2.995-.916 5.791-.916 7.518.001 1.264.328 2.679 1.192 3.643l.031.029 1.008.754.017.01c1.536.758 4.207.691 8.708-1.77l2.83-1.57c19.129-10.683 109.934-62.146 118.98-67.253a.5.5 0 0 1 .078-.055c4.516-2.551 6.957-5.361 8.277-8.002.33-.661.59-1.315.796-1.954.612-1.909.733-3.694.733-5.194 0-.99-.099-2.071-.384-3.054-.285-.984-.748-1.836-1.45-2.416l-.048-.045-.008-.006zm-2.755-2.122c-1.436-.911-3.99-.978-8.484 1.475-4.883 2.662-35.61 20.025-65.124 36.726-14.755 8.35-29.205 16.533-39.966 22.628l-12.952 7.338-3.607 2.045-.948.537-.244.138-.061.035-.016.009-.004.002-.007-.011-.001.001.007.011-.02.01c-4.848 2.46-7.092 5.655-8.141 8.624-.353.999-.57 1.977-.706 2.899-.269 1.838-.208 3.458-.208 4.606 0 1.303.345 2.751 1.258 3.721l.19.188.011.009q.16.148.345.276a7.8 7.8 0 0 1-.321-2.249c0-1.68-.155-4.663.971-7.852.733-2.074 2.002-4.223 4.175-6.18 1.185-1.068 2.638-2.079 4.421-2.988l.016-.01.001.001v-.002l.003-.002.016-.008.062-.035.243-.138.948-.537 3.608-2.045c3.114-1.764 7.571-4.291 12.952-7.338a109641 109641 0 0 1 39.966-22.628c29.507-16.697 60.244-34.065 65.137-36.733 2.895-1.582 5.166-2.228 6.929-2.179l-.002-.001-.024-.02a4 4 0 0 0-.391-.299z" clip-rule="evenodd"/>
    <path fill="#fff" fill-rule="evenodd" d="M501.478 143.087c4.455-2.731 8.482-3.753 11.605-2.54l.3.125.02.01.036.018q.194.09.367.184.04.012.078.031l5.03 2.565q.039.021.073.047a7.2 7.2 0 0 1 2.153 1.693l.08.09.135.165q.06.071.117.146l.098.132q.073.095.144.195l.098.145q.066.096.13.196.043.067.084.135a8 8 0 0 1 .207.349q.076.133.149.271l.05.096q.081.157.159.319l.028.06q.077.162.151.329l.048.115c1.028 2.405 1.567 5.641 1.567 9.71v15.009c0 6.203-.156 12.656-2.661 18.881-2.515 6.247-7.375 12.216-16.687 17.516-14.983 8.526-125.141 71.296-171.889 97.869-10.844 6.165-18.279 10.383-20.32 11.523-3.087 1.725-6.08 3.135-8.786 3.828-1.939.497-3.771.632-5.398.224a6.7 6.7 0 0 1-1.829-.745l-.012-.008-4.13-2.147c-1.868-.677-3.353-2.136-4.362-4.531-1.012-2.399-1.555-5.751-1.555-10.254v-23.282q.001-.387.011-.782c.128-5.752 1.773-12.502 9.001-19.42 3.203-3.061 7.483-6.155 13.212-9.209 19.089-10.18 182.64-103.016 192.498-109.058m16.945 1.278c-2.707-1.303-6.519-.559-11.147 2.274-9.568 5.865-163.372 93.183-190.343 107.897l-2.205 1.192c-6.091 3.251-10.497 6.519-13.682 9.727a32.5 32.5 0 0 0-3.172 3.687c-3.972 5.427-4.838 10.592-4.838 15.097v23.281c0 7.948 1.723 11.856 4.296 13.391q.025.016.048.035.447.262.939.437.08.028.161.053.288.094.587.162c1.367.299 2.951.183 4.723-.27 2.58-.661 5.483-2.019 8.547-3.731l2.508-1.413c3.457-1.955 9.67-5.483 17.805-10.107 46.751-26.574 156.899-89.345 171.889-97.868 9.147-5.204 13.835-11.012 16.253-17.019 2.426-6.028 2.59-12.304 2.59-18.513v-15.009c0-6.149-1.247-10.035-3.28-12.091a6.1 6.1 0 0 0-1.64-1.193l-.007-.003zm-5.445-2.769c-2.694-1.194-6.452-.422-10.978 2.353-9.882 6.057-173.447 98.901-192.549 109.088-5.666 3.02-9.867 6.059-12.992 9.05-7.288 6.976-8.69 13.713-8.702 19.395l-.001.065v23.281c0 4.44.539 7.641 1.476 9.865.931 2.208 2.246 3.437 3.821 3.996l.063.028 1.315.683c-1.558-2.436-2.399-6.285-2.399-11.871v-23.281c0-4.832.969-10.42 5.45-16.25a34 34 0 0 1 2.858-3.256c3.27-3.294 7.763-6.618 13.921-9.904 19.089-10.18 182.64-103.017 192.497-109.059 3.079-1.888 5.955-2.96 8.47-3.041l-1.803-.918-.008-.004c-.151-.08-.274-.146-.403-.205l-.01-.004zm-268.827.254a.5.5 0 0 1 .421.022l94.496 49.913a.5.5 0 0 1 .267.44.5.5 0 0 1-.255.443l-62.352 34.98a.5.5 0 0 1-.484.006l-91.231-48.195-.013-.005-3.246-1.712a.503.503 0 0 1-.012-.884l62.353-34.98zm-57.872 37.146 90.193 47.644 58.065-32.571-90.19-47.645zm-3.242-1.713 2.19 1.157 58.868-33.021.057-.028.012-.004.078-.021.022-.005.078-.005.043.002.072.012.029.009a.4.4 0 0 1 .073.028l.014.006 90.998 48.07 2.212-1.242-93.436-49.353zm235.519-56.026a.5.5 0 0 1 .421.021l23.581 12.453a.503.503 0 0 1 .224.64.5.5 0 0 1-.217.248l-3.251 1.821-.006.003-83.322 46.741a.5.5 0 0 1-.477.006l-23.58-12.454a.5.5 0 0 1-.008-.883l86.578-48.568zm-82.096 50.736 19.272 10.183 82.288-46.163-19.275-10.181zm-3.248-1.716 2.194 1.159 83.088-46.61a.5.5 0 0 1 .154-.056l.01-.002q.038-.005.075-.006h.031l.011.002a.5.5 0 0 1 .09.015l.012.003a.5.5 0 0 1 .097.038l20.085 10.611 2.209-1.24-22.521-11.896zm50.389-67.642a.5.5 0 0 1 .172.052l28.956 15.295c.204.107.308.34.252.563a.5.5 0 0 1-.13.226l-.015.015q-.02.019-.042.036a.4.4 0 0 1-.058.039l-.421.234-86.157 48.334a.5.5 0 0 1-.482.006l-25.692-13.572-.013-.006-3.246-1.717a.498.498 0 0 1-.011-.878l86.577-48.569.057-.027a.5.5 0 0 1 .253-.031m-82.35 50.764 24.652 13.023 82.292-46.164-24.652-13.023zm-3.244-1.714 2.191 1.157 83.093-46.613.057-.027a.5.5 0 0 1 .422.021l25.463 13.451 2.021-1.129.191-.109-27.901-14.737zm49.63-67.884a.5.5 0 0 1 .422.022l29.46 15.563a.5.5 0 0 1 .01.878l-86.578 48.57a.5.5 0 0 1-.478.005l-29.46-15.563a.5.5 0 0 1-.011-.878l86.578-48.57zm-82.014 50.689-.085.046 25.16 13.292 82.294-46.166-25.161-13.29zm-3.332-1.669 2.194 1.159 83.094-46.614a.5.5 0 0 1 .154-.056l.01-.002.075-.006h.031l.011.002a.5.5 0 0 1 .09.015l.012.003q.05.014.097.038l25.972 13.719 2.206-1.238-28.406-15.006zM227.335 21.32a.5.5 0 0 1 .48-.008l94.497 49.918a.501.501 0 0 1 .012.877l-2.24 1.269-102.919 58.477a.5.5 0 0 1-.324.058.5.5 0 0 1-.161-.051l-91.268-48.21-.022-.015-3.202-1.688a.5.5 0 0 1-.008-.881zM126.69 83.192l90.214 47.653 100.905-57.328-90.219-47.656zm-3.223-1.706 2.174 1.151 101.694-57.78a.5.5 0 0 1 .158-.058l.006-.002a.5.5 0 0 1 .208.01l.016.004q.047.015.093.038l91.025 48.082 2.191-1.244-93.447-49.36z" clip-rule="evenodd"/>
    <path fill="#fff" fill-rule="evenodd" d="M235.33 3.01c3.504-.144 7.195 1.206 12.725 4.34q.021.013.041.03c10.272 5.797 190.135 101.128 231.074 122.823 4.837-2.776 8.088-4.662 9.31-5.408l.473-.286c4.715-2.792 8.958-3.795 12.267-2.509l.327.135.021.01.027.014.256.126q.12.061.237.125l18.3 9.312.013.006c3.876 1.909 6.009 7.077 6.009 15.58v24.544c0 6.835-.172 13.938-2.93 20.787-2.766 6.87-8.111 13.437-18.361 19.268-11.683 6.647-72.437 41.068-124.279 70.42l-46.306 26.208a204 204 0 0 1 6.579 13.927 156 156 0 0 1 1.734 4.233 106 106 0 0 1 .488 1.277c10.826 1.934 19.757 5.929 27.126 11.209.429-.092.861-.185 1.29-.271 37.395-7.553 65.324-5.271 82.881 6.954a47 47 0 0 1 5.159 4.151c3.534 1.495 6.792 3.263 9.746 5.319a48 48 0 0 1 3.421 2.621c5.228 1.771 9.911 4.081 14.018 6.94 11.279 7.858 17.955 19.393 20.424 35.2 1.435 9.183-1.157 25.17-13.059 40.203-8.292 10.48-23.358 23.016-49.745 28.544 1.456 6.202 1.712 12.066.462 17.063-2.228 8.92-6.234 16.718-13.595 20.508l-64.408 37.067-.001-.001-.007.005a.5.5 0 0 1-.099.042c-9.06 5.343-23.264 4.143-45.559-8.901-36.558-21.385-113.383-66.19-156.709-91.363-6.995.973-13.682 1.508-19.993 1.508-16.657 0-30.717-3.689-40.782-12.687-7.279-2.241-13.62-5.767-18.795-10.831-10.213-4.012-18.278-10.912-23.513-21.443-11.172-22.467-20.156-61.551.202-120.342 11.156-32.222 27.785-59.46 38.136-70.96-36.535-19.254-65.202-34.404-67.858-35.922-3.882-2.219-6.196-4.118-7.506-6.689C23.27 163.341 23 160.195 23 155.602v-17.283c0-4.405-.007-8.935 2.587-13.792 2.591-4.852 7.74-9.967 17.894-15.69 20.226-11.4 171.353-96.34 180.547-101.489 4.581-2.565 7.809-4.194 11.302-4.338m69.934 394.135a5691 5691 0 0 1-19.933 8.056c2.666 6 4.016 12.058 4.699 16.649.351 2.358.527 4.335.616 5.722.044.693.066 1.241.077 1.615l.006.292c6.843 3.983 12.739 10.455 16.619 17.238 3.793 6.633 5.715 13.663 4.603 19.012l-.117.513c-.886 3.542-2.311 6.786-4.644 9.05a11.4 11.4 0 0 1-2.053 1.587c-4.893 2.92-12.5 2.242-24.304-4.665a40781 40781 0 0 0-68.812-40.139c-16.096 4.979-31.541 8.86-45.745 10.958 43.515 25.285 119.365 69.522 155.618 90.728 22.313 13.054 36.082 13.958 44.632 8.856l.028-.014c6.3-3.773 9.912-10.892 12.007-19.237l.003-.022c2.433-9.728-1.005-23.114-8.363-35.977-7.342-12.836-18.529-25.045-31.439-32.429l-.033-.016a.5.5 0 0 1-.249-.433v-.025l-.001-.077-.003-.31c-.005-.274-.015-.68-.035-1.207a104 104 0 0 0-.275-4.523 135 135 0 0 0-2.198-15.527c-2.279-11.327-6.619-25.332-14.875-37.637a76 76 0 0 0-2.461-3.454c-4.418 1.787-8.878 3.595-13.368 5.416m34.721 57.348q.27.161.54.325l.293.177q.425.258.848.524l.385.242q.416.266.828.536l.326.214q.469.312.935.632l.194.134q.477.33.95.667l.24.173q.462.332.919.672l.217.161q.496.37.986.75.064.048.126.097a73 73 0 0 1 1.173.928q.397.32.789.646.18.146.357.294.352.295.701.594l.408.35q.44.381.873.768l.122.107q.45.403.895.813l.22.201q.388.359.772.724l.275.26q.394.377.784.76l.263.258q.349.344.693.693l.353.356a83 83 0 0 1 .986 1.021q.42.443.835.892l.131.139q.423.458.838.922l.145.16q.407.456.807.917l.153.174q.391.452.776.908l.165.195a95.6 95.6 0 0 1 9.785 13.993c7.408 12.951 10.993 26.619 8.47 36.717-1.553 6.214-3.973 11.881-7.785 16.032l59.228-34.084.021-.012c6.976-3.592 10.879-11.039 13.082-19.861 1.231-4.919.959-10.784-.574-17.062l-.008-.022-.153-.611a64 64 0 0 0-.679-2.436l-.004-.022c-.967-3.2-2.243-6.475-3.785-9.757q-.018-.026-.031-.053a81 81 0 0 0-1.417-2.86q-.009-.02-.015-.039a91 91 0 0 0-4.898-8.299l-.745-1.105-.05-.062a87 87 0 0 0-1.874-2.641l-.029-.051c-6.845-9.292-15.587-17.647-25.32-23.262zm-56.3-48.631a2222 2222 0 0 1-13.375 5.31 1304 1304 0 0 1-21.986 8.423l-1.388.514q-1.585.587-3.165 1.166-1.088.397-2.172.789-1.072.39-2.142.776-1.385.498-2.766.988-.852.305-1.703.606-1.957.691-3.907 1.367l-.576.202-1.182.407-1.187.407-.947.322-1.02.347-1.417.477-1.119.375-.842.28-1.162.385-1.452.476-.499.163q-.762.248-1.521.492l-1.105.357a318 318 0 0 1-2.064.656l-1.28.402-.377.12a41474 41474 0 0 1 68.012 39.672c11.748 6.876 18.898 7.288 23.285 4.669l.024-.012c1.208-.726 2.227-1.695 3.087-2.85 1.442-1.939 2.436-4.405 3.12-7.143l.11-.479c1.037-4.999-.749-11.762-4.493-18.309-3.855-6.739-9.728-13.143-16.495-17.009a.5.5 0 0 1-.248-.368l-.004-.067v-.138l-.01-.414a48 48 0 0 0-.075-1.581 68 68 0 0 0-.606-5.635c-.675-4.544-2.013-10.522-4.642-16.427zM151.502 218.773l-.061-.004-.276.009c-4.299.155-8.413 1.525-12.23 4.119q-.792.538-1.567 1.148l-.419.335a30 30 0 0 0-2.227 2.05c-10.009 10.068-27.859 38.431-39.625 72.41-19.958 57.635-11.572 96.137-.768 118.516l.516 1.054v.002l.469.914q.239.452.484.899l.527.931q.537.92 1.108 1.795l.578.865v.001a40.6 40.6 0 0 0 6.476 7.446c9.816 8.825 23.626 12.507 40.2 12.507 6.289 0 12.967-.537 19.967-1.515l.052-.01c14.587-2.043 30.549-6.025 47.237-11.197l.04-.008c23.352-7.238 48.108-16.79 72.489-26.572l.005-.002c6.845-2.746 13.663-5.51 20.41-8.248l6.893-2.797q3.425-1.389 6.818-2.758l.014-.007c26.71-10.781 51.897-20.603 72.781-26.373l.017-.004c4.658-1.286 9.106-2.372 13.311-3.223l2.176-.43c22.38-4.333 41.124-5.017 56.05-2.053l1.155.237q1.72.367 3.371.805a65 65 0 0 1 3.785 1.115l.014.004q.959.315 1.89.653l.072.027a57 57 0 0 1 4.534 1.868l.874.416.006.004a48.5 48.5 0 0 1 6.507 3.8c10.533 7.337 16.771 18.18 19.104 33.084 1 6.4-.216 13.445-2.613 20.068-2.399 6.626-5.994 12.866-9.797 17.67-7.972 10.068-22.496 22.117-48.063 27.438l.079.268q.264.924.493 1.839c26.163-5.474 41.039-17.878 49.199-28.191 11.74-14.828 14.242-30.536 12.855-39.423-2.434-15.59-8.989-26.863-20.009-34.54-4.025-2.802-8.628-5.074-13.785-6.82q-.027-.004-.055-.013a71 71 0 0 0-8.967-2.383h-.004a85 85 0 0 0-3.81-.677l-.008-.002c-15.07-2.329-33.61-1.313-55.487 3.106q-.023.005-.047.005c-4.456.904-9.189 2.074-14.15 3.46-21.075 5.889-46.352 15.775-73.163 26.6a7645 7645 0 0 0-12.853 5.207c-6.819 2.765-13.711 5.562-20.636 8.341-25.248 10.129-50.907 20.011-74.918 27.309-10.391 3.16-20.476 5.83-30.087 7.828a243 243 0 0 1-4.663.924 218 218 0 0 1-5.289.926 197 197 0 0 1-3.567.545l-.535.076q-2.016.284-3.994.516h-.014c-19.56 2.286-36.394.746-48.638-6.744a41 41 0 0 1-1.649-1.065 39 39 0 0 1-4.275-3.365q-.162-.143-.32-.288a39 39 0 0 1-3.89-4.18l-.006-.006a40 40 0 0 1-2.525-3.535l-.01-.018a44 44 0 0 1-2.27-4.019c-10.9-21.923-19.634-60.14.36-117.886 5.988-17.295 13.528-33.089 20.772-45.691 7.225-12.569 14.177-22 19.021-26.572l.025-.029q.703-.663 1.352-1.194l.438-.35c4.392-3.436 9.184-5.039 14.3-4.766l.512.034.078.012q.195.015.391.034l.201.021.291.033.204.026q.237.03.474.066l.006.001q.227.034.455.073a1 1 0 0 1 .102.007c.924.163 1.855.39 2.792.666q.028.01.054.024c.804.237 1.61.522 2.418.845l.007.001c.402.163.816.333 1.235.522q.062.027.11.05l.081.037.005.003.006.002c.833.382 1.638.797 2.411 1.228l.134.075a44 44 0 0 1 1.023.598l.127.076a42 42 0 0 1 3.056 2.057q.503.368.96.723l.818.648.023.023a44 44 0 0 1 1.972 1.704l.202.185c.211.196.384.363.518.492l.089.085.164.162.006.007a.5.5 0 0 1 .096.09c.255.315.505.468.706.522a.54.54 0 0 0 .304 0l.015-.008q.021-.009.065-.033c.141-.086.287-.284.348-.63.049-.284.034-.63-.067-.997a2.6 2.6 0 0 0-.614-1.108l-.012-.012-.043-.039c-.097-.102-1.259-1.326-3.318-2.924l-.025-.025a41.2 41.2 0 0 0-8.165-4.93l-.702-.305-.046-.024a34 34 0 0 0-2.199-.838q-.032-.005-.062-.014a28 28 0 0 0-3.19-.884 25 25 0 0 0-3.257-.476l-.463-.031a24 24 0 0 0-1.85-.036M480.22 365.638c4.977 6.715 8.189 14.964 9.742 24.896 1.435 9.182-1.158 25.17-13.06 40.203-6.84 8.64-18.293 18.688-36.905 25.043 1.401 3.028 2.577 6.052 3.497 9.022 25.38-5.262 39.726-17.192 47.57-27.099 3.738-4.721 7.28-10.867 9.641-17.389 2.363-6.526 3.531-13.395 2.566-19.574-2.263-14.458-8.229-24.933-18.209-32.08l-.479-.338a46 46 0 0 0-4.363-2.684m-6.984-3.157c7.239 7.043 11.701 16.463 13.589 28.543 1 6.401-.216 13.446-2.613 20.068-2.399 6.627-5.994 12.867-9.797 17.67l-.001-.001c-6.594 8.335-17.692 18.025-35.823 24.135q.502.987.975 1.973c18.478-6.286 29.808-16.233 36.553-24.753 11.742-14.831 14.243-30.541 12.855-39.428-1.667-10.66-5.257-19.292-10.87-26.138a56 56 0 0 0-4.292-1.853l-.183-.069zm-82.8 3.11a337 337 0 0 0-14.278 4.391c-6.538 2.159-13.379 4.595-20.459 7.232l-.356.131c-10.039 3.744-20.554 7.89-31.361 12.23l-4.385 1.764c9.89 13.2 14.858 28.873 17.355 41.284a136 136 0 0 1 2.215 15.643c.158 1.945.238 3.499.277 4.567q.016.46.023.797l64.531-37.118v-.016q-.004-.31-.021-.907a97 97 0 0 0-.177-3.433 132 132 0 0 0-1.414-12.091c-1.601-9.814-4.788-22.61-11.116-34.708zm77.944-4.692c3.261 5.754 5.471 12.452 6.677 20.165 1.434 9.183-1.158 25.17-13.06 40.202-5.826 7.362-14.998 15.744-29.102 21.997a93 93 0 0 1 4.791 7.9l.442.835c18.018-6.041 29.002-15.64 35.503-23.857l.698-.901c3.478-4.589 6.729-10.373 8.942-16.488 2.363-6.527 3.531-13.394 2.566-19.574-2.004-12.825-6.929-22.517-14.972-29.524a60 60 0 0 0-2.485-.755m-4.42-1.085c3.986 5.988 6.62 13.196 7.955 21.74 1 6.401-.216 13.446-2.613 20.069-2.39 6.601-5.969 12.819-9.756 17.615l-.036.054c-5.653 7.142-14.616 15.279-28.48 21.311q.657.904 1.29 1.821c14.039-6.189 23.135-14.501 28.894-21.778l.543-.695c11.276-14.624 13.678-29.985 12.311-38.733-1.25-8.003-3.591-14.861-7.053-20.678a73 73 0 0 0-3.055-.726m-314.628 73.585a195 195 0 0 1-3.659.514l-.529.069c-4.198.536-8.281.904-12.232 1.089l-.363.018-.316.012q-.517.023-1.032.039a122 122 0 0 1-3.953.069q-.766-.001-1.525-.013l-.196-.002q-.745-.012-1.483-.034l-.187-.006a94 94 0 0 1-2.905-.137l-.312-.019a89 89 0 0 1-2.852-.232l-.192-.018a90 90 0 0 1-1.423-.154l-.096-.011q-.735-.087-1.462-.185c11.414 5.993 26.549 7.323 44.14 5.433l-1.747-1.016c-1.533-.887-4.266-2.733-7.676-5.416m313.211-73.886c-15.196-2.975-34.457-2.156-57.624 2.524-4.004.81-8.234 1.837-12.664 3.049 6.329 12.168 9.515 24.993 11.118 34.818a133 133 0 0 1 1.425 12.184 96 96 0 0 1 .178 3.469q.018.606.022.923v.029c9.78 5.642 18.546 13.994 25.429 23.268 13.79-5.958 22.676-14.014 28.265-21.064q.013-.021.029-.041c3.738-4.722 7.28-10.868 9.641-17.39 2.363-6.526 3.53-13.394 2.565-19.573-1.382-8.845-4.166-16.188-8.384-22.196m-267.31 62.799c-15.422 4.795-30.256 8.589-43.981 10.789l-.369.06-.077.011-.115.019.034.026c2.605 2.012 4.747 3.482 6.162 4.358l.622.374q1.425.83 2.924 1.699c14.269-1.684 30.062-5.416 46.688-10.426-4.377-2.546-8.397-4.881-11.888-6.91m254.706-74.526c-16.272-4.12-37.374-3.616-63.085 1.574-1.693.344-3.431.725-5.201 1.142-21.463 5.043-48.347 15.325-77.235 26.94a6021 6021 0 0 0-17.786 7.195q-3.362 1.366-6.746 2.737l-6.761 2.733-.02.01c-10.19 4.113-20.481 8.223-30.735 12.173-15.956 6.147-31.822 11.907-47.078 16.691l-.817.257-.224.069a452 452 0 0 1-2.289.708c-16.168 4.946-31.616 8.741-45.698 10.66l-.012.003q-3.327.453-6.551.763l-.169.017q-.572.054-1.139.103l-.193.017-1.061.087-.302.023q-.507.04-1.01.074l-.285.02q-.467.032-.932.059l-.486.029-.868.046-.279.013q-.552.028-1.099.049l-.041.002q-.584.023-1.161.039l-.304.008q-.455.013-.908.021l-.46.007q-.413.007-.824.011l-.326.001a102 102 0 0 1-6.774-.189l-.147-.009a65 65 0 0 1-.791-.057 42 42 0 0 1-1.135-.091 81 81 0 0 1-1.181-.111q-.256-.025-.513-.053-.335-.036-.668-.076l-.491-.058a83 83 0 0 1-1.767-.238l-.578-.088q-.263-.04-.524-.083l-.615-.103q-.243-.041-.484-.084l-.629-.117-.518-.099-.552-.112q-.267-.054-.534-.112-.3-.065-.598-.132l-.475-.108a52 52 0 0 1-1.088-.264l.198.163a38 38 0 0 0 4.178 2.962c4.412.758 9.105 1.148 14.052 1.195l.04.001a109 109 0 0 0 2.273-.003c6.566-.075 13.544-.716 20.86-1.821 14.189-2.151 29.623-6.069 45.733-11.083l.02-.005c25.861-8.051 53.417-18.913 80.263-29.761a.4.4 0 0 1 .055-.026c4.017-1.626 8.017-3.246 11.989-4.858a6136 6136 0 0 1 19.569-7.909l.04-.014c28.766-11.545 55.496-21.689 76.623-26.455l.003-.001c1.212-.272 2.414-.536 3.594-.773 8.622-1.741 16.718-2.952 24.277-3.633l.266-.024q1.113-.1 2.211-.182l.121-.01a161 161 0 0 1 2.408-.163l.817-.047.369-.02q.372-.02.743-.037l.411-.02.799-.034.301-.013q.417-.016.832-.029l.346-.011.693-.019.441-.012 1.063-.02.714-.008.487-.004.619-.002h.49q.287 0 .573.002l.568.005.39.004q.389.005.776.012l1.129.027.161.005q.422.013.841.029l.335.013q.367.014.73.032l.248.011.82.043.273.016a136 136 0 0 1 1.775.117l.281.021.667.053.395.033.642.059.332.031a138 138 0 0 1 1.888.201 83 83 0 0 1 1.781.224l.224.03q.387.054.772.111l.172.024c6.068.902 11.562 2.357 16.469 4.365a58 58 0 0 1 3.393 1.525q1.292.632 2.522 1.323l.466.097q.261.052.524.107h.002q2.806.603 5.439 1.38-.644-.486-1.312-.952c-2.898-2.017-6.103-3.756-9.589-5.229l-.045-.014a66 66 0 0 0-9.346-3.11q-.024-.007-.047-.016m-311.938 75.571c-9.063 1.525-17.665 2.377-25.658 2.377a99 99 0 0 1-9.193-.412 38 38 0 0 0 2.932 3.059c10.848 3.162 24.017 3.376 38.789 1.469l.134-.017a135 135 0 0 1-7.004-6.476m-1.475-214.069a22.4 22.4 0 0 0-8.325.826c-3.041.9-5.952 2.467-8.69 4.701l-.001.001q-.152.125-.309.26a32 32 0 0 0-2.164 2.035c-10.052 10.282-27.713 38.462-39.384 72.164-20.274 58.549-11.298 97.354-.252 119.569a46 46 0 0 0 3.418 5.771q.416.595.847 1.171a41 41 0 0 0 4.054 4.663l.024.024c4.58 4.503 10.113 7.776 16.452 9.995a41 41 0 0 1-3.24-3.655l-.1-.047a43 43 0 0 1-5.517-3.024l-.009-.004a39 39 0 0 1-6.475-5.271l-.006-.006c-2.942-2.976-5.455-6.486-7.492-10.583-10.9-21.924-19.633-60.141.362-117.886 5.936-17.143 13.394-32.809 20.579-45.355 7.178-12.534 14.101-21.988 18.975-26.683a27 27 0 0 1 1.616-1.449 27 27 0 0 1 1.752-1.311l.268-.185.297-.193.227-.147q.176-.11.352-.217l.142-.087q.147-.089.296-.174l.249-.143.247-.135q.145-.08.291-.158.117-.062.234-.121l.272-.138q.132-.066.264-.128l.273-.13.224-.101q.172-.077.345-.151l.19-.079q.16-.067.322-.131l.234-.092q.157-.06.314-.117l.214-.076q.17-.06.34-.116l.21-.07a17 17 0 0 1 .573-.173l.299-.083.236-.062q.166-.043.333-.082a13 13 0 0 1 .588-.131q.086-.019.173-.036a22 22 0 0 1 .575-.105q.18-.029.361-.055l.202-.03q.177-.024.354-.044a15 15 0 0 1 .596-.062l.173-.016q.211-.016.424-.028l.156-.009q.194-.009.389-.015l.198-.006a20 20 0 0 1 1.009.004l.148.004q.277.01.556.026l.01.001q1.188.073 2.399.279l.607.113.004.001q.297.058.595.126l.107.023a18 18 0 0 1 .426.102q.167.041.335.085l.174.045.375.105.109.03.055.017q.284.082.567.171l.094.029.005.002h.002q.728.234 1.461.512l.434.167q.155.061.31.127l.16.065.344.145.21.092.283.124.076.035q.418.188.825.387l.193.093.002.001q.505.25.991.512l.672.369a40 40 0 0 1 3.785 2.432l.246.174q.879-.011 1.76.039h.002a28 28 0 0 1 1.631.153q.129.016.257.035l.274.037a37 37 0 0 0-1.531-1.257l-.006-.003a41.4 41.4 0 0 0-6.356-4.055l-.014-.008a44 44 0 0 0-1.817-.888l-.084-.035-.11-.047-.033-.012a32 32 0 0 0-2.709-1.064l-.039-.017a28 28 0 0 0-4.519-1.134 24 24 0 0 0-1.823-.222zm46.199 202.799c-15.212 4.809-29.878 8.685-43.51 11.062q.317.312.633.616a135 135 0 0 0 6.489 5.89c12.816-1.762 26.782-5.083 41.416-9.419q1.5-.445 3.01-.904a44 44 0 0 1-.541-.421l-.434-.342a74 74 0 0 1-2.64-2.221l-.228-.202a80 80 0 0 1-1.086-.989 79 79 0 0 1-2.011-1.942l-.047-.046-.472-.482-.058-.058-.506-.526zm90.572-18.625c-25.685 10.364-51.981 20.666-76.77 28.443 3.521 2.043 7.546 4.383 11.906 6.921 23.736-7.228 49.102-16.981 74.104-27.006-1.832-3.315-4.124-6.491-7-9.262zM96.37 424.393a41 41 0 0 0 1.297.689 51 51 0 0 1-.364-.526 55 55 0 0 1-.933-.163m357.69-77.709c-17.21-11.982-44.788-14.332-82.112-6.794-.494.099-.995.208-1.5.317l-.002.001c-22.59 4.792-51.797 16.019-83.262 28.703a6885 6885 0 0 0-15.454 6.256.5.5 0 0 1-.095.027c-4.848 1.964-9.727 3.947-14.634 5.925q-.009.004-.017.01c-25.551 10.306-51.704 20.55-76.277 28.279l-.022.005c-15.879 4.991-31.112 8.937-45.105 11.166-12.468 1.988-23.973 2.613-34.092 1.402l-.975-.123a39 39 0 0 0 1.73 2.364c3.24.342 6.609.508 10.101.508 7.992 0 16.616-.859 25.724-2.402l.015-.003c13.93-2.36 28.984-6.33 44.634-11.288l.063-.016.089-.028c24.408-7.743 50.243-17.878 75.503-28.074a.5.5 0 0 1 .081-.04c4.726-1.907 9.43-3.813 14.097-5.707 6.313-2.558 12.569-5.094 18.729-7.571l.013-.006c30.75-12.35 59.232-23.165 81.086-27.58.397-.082.795-.155 1.184-.231l.004-.001c34.174-6.747 60.006-5.087 76.76 5.07a69 69 0 0 1 6.692 2.07 48 48 0 0 0-2.958-2.239M89.516 419.595a38 38 0 0 0 4.286 3.254 68 68 0 0 0 2.73.555q-.375-.584-.737-1.184l-.226-.381q-.116-.195-.231-.393l-.055-.096-.253-.442a58 58 0 0 1-5.785-1.552zm47.882-191.353c-4.729 4.552-11.517 13.781-18.611 26.122-7.216 12.553-14.728 28.289-20.694 45.52-19.912 57.507-11.184 95.444-.41 117.114.65 1.31 1.36 2.559 2.109 3.75 10.167 1.469 21.871.968 34.668-1.007-15.286-16.343-31.345-41.826-25.226-71.914l.276-1.293c2.939-13.169 8.637-20.349 15.42-23.783a24 24 0 0 1 .529-.26l62.932-36.194c3.905-2.545 8.226-3.639 12.572-3.816l18.908-10.84a170162 170162 0 0 1-82.473-43.399m-17.687-9.316c-4.761 4.682-11.512 13.926-18.546 26.208-7.156 12.496-14.588 28.106-20.502 45.185-19.912 57.506-11.184 95.444-.41 117.113 1.975 3.973 4.403 7.373 7.237 10.254a55 55 0 0 0 6.915 2.059 36 36 0 0 1-.457-.892c-11.171-22.468-20.154-61.552.203-120.341 11.616-33.543 29.164-61.702 39.389-72.304zm79.627 71.415q-.468.008-.931.022l.001.001-.875.04q-.417.02-.836.049-.45.032-.885.072l-.001.001q-.383.033-.749.071h-.003c-.304.032-.604.066-.909.103l.001.001a26 26 0 0 0-.646.085h-.003a60 60 0 0 0-.938.137l-.533.096-.001-.001c-.345.065-.67.123-.994.19l-.01.002a8 8 0 0 0-.345.073l-.002.001c-.361.078-.714.154-1.053.238l-.073.026q-.348.087-.689.178a35 35 0 0 0-2.612.819 30 30 0 0 0-3.47 1.487l-.385.221-.014.007c-.568.3-1.121.611-1.645.935l.001.001-.036.022-.001.001c-11.617 7.221-14.049 20.811-14.388 28.92v.003c-.009.192-.018.372-.022.551v.019c-.005.2-.014.353-.014.518v.036c-.004.175-.008.331-.008.487v1.035c.004.144.004.283.004.409v.05c.005.12.009.25.009.377v.058c0 .05.002.101.004.161.002.057.005.126.005.194v.03l.014.334v.045l.013.298v.053l.013.266.001.026v.05l.013.223.001.027v.017c.008.084.013.163.017.224l.001.032v.006l.014.216v.018l.005.05c.003.027.009.075.009.128v.045l.001.009.003.041.004.073v.007l.003.023.003.042a.7.7 0 0 1 .017.159v.012l.004.05.001.026.001.01v.008q-.001.02-.004.039l-.004.029a.5.5 0 0 1-.443.43.5.5 0 0 1-.143-.009.5.5 0 0 1-.219-.081l-.015-.01-.049-.033-.198-.13c-.174-.114-.434-.28-.77-.488a66 66 0 0 0-2.89-1.686c-2.467-1.36-5.933-3.082-9.926-4.535-4.679-1.702-10.041-3.019-15.358-2.978-3.642.032-7.263.703-10.627 2.326l-.312.18a.5.5 0 0 1-.201.062c-6.599 3.389-12.264 10.603-15.057 24.325-6.083 29.907 10.089 55.278 25.433 71.518 13.656-2.193 28.502-6.025 44.003-10.873-7.168-8.613-13.658-20.909-10.76-35.17l.146-.686c1.558-6.986 4.593-10.844 8.249-12.695 2.652-1.343 5.571-1.598 8.381-1.286 2.183.237 4.3.819 6.175 1.501a38.5 38.5 0 0 1 6.573 3.153 25 25 0 0 1-.032-1.174 28 28 0 0 1 .474-5.241c.769-4.063 2.719-8.927 7.474-11.894l.034-.023c.296-.186.604-.356.91-.521l.003-.002c3.132-1.657 7.311-2.514 12.864-2.012q1.463.134 2.875.434c9.019 1.898 16.442 8.67 22.085 16.039 6.009 7.848 10.068 16.466 11.954 20.899 4.778-1.927 9.531-3.856 14.256-5.771 4.754-1.926 9.472-3.842 14.148-5.729a72 72 0 0 0-8.1-1.902l-.005-.002-.036-.005a.5.5 0 0 1-.383-.323l-.001-.003-.004-.009-.014-.037-.057-.153q-.075-.202-.225-.597c-.201-.525-.501-1.296-.9-2.279a187 187 0 0 0-3.558-8.176c-3.142-6.786-7.804-15.876-13.878-25.09-12.172-18.465-29.922-37.281-52.394-39.323l-.001-.001a53 53 0 0 0-1.988-.148h-.002a39 39 0 0 0-.667-.031h-.007l-1.247-.054c-.267-.009-.516-.009-.796-.014-.356-.004-.697-.013-1.036-.013-.277 0-.548.004-.822.008m-68.41-87.998c-9.554-4.321-18.63-3.272-26.323 3.001-1.033.844-2.206 1.97-3.489 3.366a.5.5 0 0 1-.073.063c-10.204 11.125-27.04 38.502-38.299 71.022-20.274 58.549-11.298 97.354-.252 119.569 4.754 9.561 11.88 16.049 20.878 20.071q-.899-.995-1.744-2.06l-.22-.282a39 39 0 0 1-.728-.962l-.157-.213q-.234-.32-.462-.646c-6.601-3.869-11.899-9.396-15.616-16.88-10.9-21.923-19.633-60.14.362-117.886 11.442-33.044 28.562-60.641 38.484-70.96q.707-.734 1.367-1.355l.079-.074q.479-.45.931-.835l.314-.262c3.529-2.876 7.32-4.557 11.343-5.015 4.022-.459 8.241.307 12.622 2.273 2.59 1.162 4.922 2.64 6.806 4.02q.874.08 1.759.219a28 28 0 0 1 2.785.6 37 37 0 0 0-2.178-1.826 41 41 0 0 0-8.189-4.948m127.759 181.528a2851 2851 0 0 1-12.71 5.096l-1.394.556a1576 1576 0 0 1-17.766 6.942l-1.256.483a1153 1153 0 0 1-8.176 3.087l-1.288.482q-1.176.436-2.351.867-1.213.45-2.424.893a758 758 0 0 1-20.144 7.062l-.746.248-1.646.543-.576.19a550 550 0 0 1-4.381 1.416l-.043.014a70 70 0 0 0 7.266 6.542q.467.361.895.679c25.623-7.86 53.108-18.618 79.955-29.449-3.612-2.6-7.967-4.597-13.215-5.651M103.748 210.514c-9.83 10.396-26.687 37.654-37.998 70.32-19.912 57.506-11.185 95.443-.411 117.113 3.28 6.603 7.81 11.633 13.396 15.323a47 47 0 0 1-2.23-3.98c-11.171-22.468-20.155-61.552.203-120.343 11.526-33.282 28.895-61.263 39.149-72.054-4.104-2.162-8.15-4.291-12.109-6.379m116.343 133.112c-5.405-.493-9.379.347-12.303 1.898-.289.155-.561.307-.817.467a1 1 0 0 1-.075.049l-.019.008-.006.002c-4.4 2.76-6.251 7.296-6.992 11.213a27 27 0 0 0-.456 5.052 24 24 0 0 0 .085 1.949l.011.106.002.025v.007a.5.5 0 0 1-.587.55.5.5 0 0 1-.23-.081l-.001-.001-.006-.004-.025-.017-.102-.067a19 19 0 0 0-.401-.255 37.6 37.6 0 0 0-6.713-3.257c-1.831-.666-3.85-1.216-5.902-1.443-2.649-.288-5.352-.038-7.777 1.189-3.417 1.731-6.397 5.463-7.867 12.689-2.85 14.005 3.628 26.124 10.814 34.646l1.333-.422a543 543 0 0 0 10.041-3.298 722 722 0 0 0 12.478-4.353q1.696-.608 3.399-1.227c15.905-5.781 32.123-12.197 48.127-18.648-1.863-4.387-5.888-12.94-11.838-20.711-5.592-7.303-12.821-13.835-21.481-15.663q-1.32-.277-2.684-.403zm77.586 39.963-9.847 3.99c-3.74 1.515-7.503 3.042-11.276 4.567 2.84 2.807 5.106 5.994 6.92 9.297 6.783-2.723 13.535-5.462 20.218-8.172l12.206-4.946a65.5 65.5 0 0 0-8.776-8.544 4864 4864 0 0 0-9.445 3.808m-15.326-9.303-9.431 3.823c-4.171 1.69-8.369 3.389-12.581 5.092 4.986 1.2 9.161 3.259 12.652 5.874a7486 7486 0 0 0 13.327-5.395c5.678-2.301 11.304-4.585 16.865-6.823a62.4 62.4 0 0 0-11.696-6.255 3684 3684 0 0 0-9.136 3.684m99.69-20.609-.13.031q-1.823.433-3.698.917-1.238.317-2.497.655c-19.385 5.223-42.649 14.102-67.526 24.073a67.3 67.3 0 0 1 8.69 8.573c26.421-10.666 51.385-20.426 72.307-26.322a78 78 0 0 0-5.593-8.287q-.772.176-1.553.36m-9.464-10.672h-.002c-20.393 4.118-46.626 13.848-75.172 25.23l-4.586 1.835a63 63 0 0 1 11.48 6.337c28.428-11.426 54.971-21.581 76.32-26.691a65.5 65.5 0 0 0-7.09-6.898c-.32.062-.632.121-.95.187m-93.703 22.848a72 72 0 0 1 8.096 2.054c30.88-12.44 59.661-23.513 82.153-28.445-7.125-4.948-15.711-8.691-26.07-10.526zm-77.322-82.557a.5.5 0 0 1-.132.111l-12.911 7.36.246-.067.517-.132q.024-.007.049-.012l.01-.002c.36-.089.732-.169 1.095-.248l.012-.002q.163-.032.348-.074l.008-.002.509-.1q.254-.048.511-.093l.539-.096.006-.001.963-.141.008-.002c.18-.023.46-.062.659-.086a46 46 0 0 1 1.691-.178c.299-.028.603-.052.902-.074h.006q.417-.028.85-.05.439-.027.885-.041l.038-.001.01-.001c.308-.009.63-.018.951-.023l.451-.004q.184-.004.37-.004h.041q.53 0 1.075.013c.255.005.532.005.807.014q.627.02 1.268.055h.003l.677.032q.461.028.928.062l.04.003q.522.04 1.051.085h.002c22.962 2.088 40.94 21.27 53.137 39.77 6.11 9.268 10.794 18.404 13.951 25.221a188 188 0 0 1 3.578 8.218c.402.99.705 1.768.907 2.298l.098.259 64.639-37.182c-.097-.256-.239-.634-.43-1.122-.384-.984-.96-2.416-1.722-4.206-1.481-3.48-3.67-8.31-6.53-13.825-15.831 8.953-27.037 15.286-29.801 16.83-3.401 1.902-6.693 3.453-9.669 4.215-2.971.761-5.706.754-7.92-.568l-.034-.021-17.299-8.858c-2.046-.739-3.676-2.338-4.786-4.971s-1.71-6.319-1.71-11.276v-10.351c-8.163-4.291-23.07-12.131-41.526-21.837zm224.159 64.911a116 116 0 0 0-3.273.033q-5.66.124-11.802.712-1.183.113-2.383.243-1.908.208-3.861.459-1.763.226-3.563.488l-.162.025a244 244 0 0 0-10.384 1.758l-2.799.55q-.863.175-1.742.364l-.15.034-.923.203a80 80 0 0 1 5.515 8.249c4.863-1.351 9.513-2.495 13.901-3.383l.031-.005c21.26-4.292 39.442-5.4 54.4-3.318a39 39 0 0 0-1.056-1.054c-6.779-2.761-14.715-4.459-23.785-5.085a114 114 0 0 0-6.622-.264q-.667-.007-1.342-.009m34.395 6.647.415.067a51 51 0 0 0-.625-.296zm-13.325-8.823c-16.287-8.355-40.42-9.564-71.991-3.459l.178.155.298.259a67 67 0 0 1 6.459 6.469q2.515-.589 4.935-1.078c24.042-4.854 44.157-5.642 60.121-2.346m-247.85-62.391c-3.486.398-6.886 1.468-9.997 3.496l-.025.015-58.495 33.644c.896-.202 1.801-.35 2.709-.457l.097-.012q.282-.033.566-.06l.233-.02a29 29 0 0 1 .901-.064l.361-.02q.403-.018.805-.025l.155-.002q.334-.004.667-.002l.2.002c5.269.069 10.508 1.39 15.034 3.037 4.054 1.474 7.568 3.221 10.067 4.598a67 67 0 0 1 3.118 1.827l-.011-.138-.001-.029v-.039l-.012-.224-.001-.027v-.05l-.013-.244v-.054l-.014-.324v-.025l-.006-.175-.007-.167.001-.001-.001-.018v-.026l-.002-.039-.003-.135c-.002-.057-.005-.127-.005-.199v-.008l-.004-.033v-.018q-.001-.167-.01-.36l.001-.001-.001-.016.002-.024-.001-.009c-.005-.141-.005-.286-.005-.425v-.995h.004v-.055l.001-.08q.002-.188.007-.374l-.003-.031v-.024q.001-.037.007-.072l.002-.067.01-.404v-.03l.009-.236.011-.274-.003-.055q.022-.477.052-.982c.498-8.283 3.214-21.539 14.808-28.745l.025-.016.012-.008.006-.002.012-.008.003-.002.068-.041a.5.5 0 0 1 .113-.091l1.462-.834q.193-.101.388-.199zm321.02-151.01c-3.008-1.478-7.249-.65-12.371 2.489l-.001-.001c-.867.531-2.744 1.627-5.473 3.201-23.928 13.811-113.387 64.316-163.578 92.37-15.934 8.907-27.91 15.555-32.577 18.044-5.882 3.138-10.341 6.296-13.718 9.406q-.444.409-.864.817c-7.852 7.641-9.338 15.011-9.338 21.233v33.66c0 8.73 1.89 13.06 4.735 14.778l.015.006c1.886 1.126 4.307 1.186 7.159.456 2.85-.731 6.053-2.231 9.43-4.118l3.644-2.048c5.132-2.892 14.549-8.218 26.603-15.035a.6.6 0 0 1 .11-.045c52.645-29.782 155.33-87.949 170.897-96.805 10.084-5.737 15.259-12.143 17.929-18.773 2.677-6.65 2.857-13.574 2.857-20.413v-24.544c0-8.409-2.116-13.006-5.405-14.659q-.028-.007-.054-.019m-18.818-9.584c-2.992-1.321-7.146-.456-12.13 2.601l-.001.001c-1.252.765-4.581 2.695-9.511 5.524l-.058.04c-38.304 21.964-173.434 98.116-192.065 108.054-8.37 4.463-13.866 8.97-17.45 13.328-1.672 2.035-2.931 4.041-3.872 6.002-2.071 4.321-2.597 8.423-2.597 12.123v33.66c0 4.894.595 8.427 1.632 10.887.966 2.291 2.307 3.635 3.912 4.306l.325.126.061.025 14.414 7.381c-1.793-2.657-2.767-6.94-2.767-13.25v-33.66c0-6.43 1.557-14.084 9.64-21.95l.005-.005c3.55-3.458 8.349-6.944 14.814-10.394 4.51-2.404 15.849-8.695 30.993-17.156 45.594-25.477 125.651-70.65 157.498-88.857 6.918-3.956 11.564-6.638 13.086-7.572l.486-.292c1.385-.818 2.729-1.482 4.021-1.979l.027-.01c1.776-.681 3.454-1.049 5.001-1.064l-14.961-7.614-.012-.005a9 9 0 0 0-.457-.233l-.01-.005zM247.514 8.192c-5.475-3.098-8.945-4.314-12.143-4.183-3.218.133-6.242 1.63-10.854 4.212-9.196 5.15-160.319 90.086-180.545 101.487-10.072 5.676-15.037 10.674-17.502 15.29-2.463 4.611-2.47 8.905-2.47 13.321v17.283c0 4.6.282 7.522 1.463 9.84 1.1 2.158 3.012 3.856 6.411 5.868l.7.406.8.444c5.478 2.989 32.897 17.474 67.261 35.585l.225-.24c1.12-1.183 2.162-2.173 3.109-2.945 8.006-6.529 17.494-7.604 27.367-3.137a42 42 0 0 1 8.073 4.829q.32-.239.702-.385l1.462-.722q.211-.126.455-.22l.004-.002c1.135-.412 2.358-.056 3.385.717q.265.2.517.439c.812.769 1.507 1.83 1.96 3.074q.134.374.232.747a8.3 8.3 0 0 1 .282 2.071l.702.375a43 43 0 0 1 1.77 1.033l.112.07a42 42 0 0 1 3.323 2.281q.326-.243.713-.391l1.458-.719a3 3 0 0 1 .345-.173q.054-.025.109-.047l.005-.002c1.136-.413 2.358-.057 3.385.717 1.032.777 1.927 2.011 2.473 3.51l.085.244.044.148.018.06q.179.601.269 1.186l.464.202a42 42 0 0 1 8.068 4.827q.303-.226.668-.37l.003-.001 1.489-.736q.062-.035.127-.068l.034-.02q.056-.028.113-.054l.057-.028.085-.033.038-.017.005-.001a2.9 2.9 0 0 1 1.304-.16c.725.072 1.444.392 2.086.875 1.031.777 1.927 2.012 2.472 3.51.546 1.498.654 3.02.363 4.278-.286 1.237-.981 2.283-2.091 2.706l-1.425.704-.018.012-.001-.001a3 3 0 0 1-.491.242h-.005c-1.135.413-2.357.058-3.384-.715-.967-.728-1.815-1.859-2.367-3.232l-.106-.278a8.5 8.5 0 0 1-.506-2.446 43 43 0 0 0-.607-.483c-1.702-1.321-3.886-2.825-6.359-4.084a30 30 0 0 0-.783-.383c-.214.3-.469.56-.765.767l-.034.024a3 3 0 0 1-.156.099l-.059.033q-.073.041-.147.078-.057.027-.116.051c-.036.015-.07.034-.107.048l-1.273.629-.205.101q-.13.078-.275.144l-.092.04-.092.04-.005.002c-1.135.413-2.358.058-3.385-.716-1.031-.777-1.927-2.011-2.472-3.51h.001a6 6 0 0 1-.128-.372c-5.071-.304-9.813 1.316-14.191 4.884l-.001-.001a27 27 0 0 0-.774.67c28.932 15.236 58.893 31 82.904 43.627l.07.028c18.219 9.586 33.002 17.356 41.294 21.715v-22.162c0-3.127.368-6.545 1.678-10.138 1.017-2.792 2.603-5.691 5.028-8.639 3.684-4.481 9.295-9.063 17.753-13.575 18.495-9.863 151.899-85.042 191.24-107.585-42.04-22.278-220.845-117.05-230.586-122.567q-.023-.015-.043-.032m-72.253 218.227c-.86-.648-1.729-.835-2.442-.576q-.117.045-.228.105c1.65 1.324 2.643 2.334 2.875 2.579l.025.022q.064.064.124.13c.293.317.535.718.702 1.174l.002.003c.12.33.191.667.214.991q.029.388-.033.742c-.092.526-.348 1.031-.814 1.313l-.007.004-.11.058-.025.013q-.046.023-.101.045l-.006.002-.003.002q-.047.015-.092.027l-.055.017a1.4 1.4 0 0 1-.293.042c-.628.024-1.219-.362-1.638-.85l-.002-.002q-.016-.014-.079-.077a37 37 0 0 0-1.886-1.733l-.066-.058a8 8 0 0 0 .695 2.021l.065.128q.065.122.132.239l.071.121c.431.717.949 1.299 1.495 1.71.86.648 1.729.834 2.442.575l.008-.003c.09-.031.18-.079.298-.147l.01-.007c.6-.362 1.048-1.095 1.227-2.103.177-1.001.075-2.222-.375-3.459-.428-1.174-1.086-2.136-1.816-2.79a5 5 0 0 0-.314-.258m.16-1.627a2 2 0 0 0-.322.017 2 2 0 0 0-.382.094l-.009.003q-.038.014-.077.033.095.036.189.077l.037.015q.088.038.175.08l.115.059q.083.042.164.087a7 7 0 0 1 .301.187q.113.073.221.154l.024.018q.243.183.474.398c.831.773 1.542 1.85 2.003 3.116.503 1.382.632 2.78.421 3.974a5.4 5.4 0 0 1-.261.956c.526-.342.925-.964 1.122-1.817.242-1.044.161-2.368-.328-3.711-.489-1.344-1.279-2.409-2.135-3.053-.514-.387-1.032-.609-1.517-.67a2 2 0 0 0-.169-.015zm-21.181-2.728c.491 1.31 1.267 2.349 2.108 2.982.86.647 1.729.834 2.441.575l.009-.003c.095-.033.19-.084.317-.158l.006-.004q.209-.13.391-.318c.353-.366.623-.894.77-1.555a28 28 0 0 0-1.656-.576 1.5 1.5 0 0 1-.37.327l.001.001q-.12.076-.253.127l-.009.002c-.785.285-1.561-.163-2.076-.763l-.023-.021-.039-.038-.114-.112-.306-.298a23 23 0 0 0-1.197-.168m-16.066-9.369c-4.867-.866-9.449-.033-13.71 2.513a25 25 0 0 0-2.943 2.073 23 23 0 0 0-1.046.917l13.801 7.266q.25-.247.494-.48l.141-.133q.193-.182.382-.355a25 25 0 0 1 2.691-2.157l.256-.177.109-.075c3.64-2.484 7.561-3.903 11.67-4.243-1-.685-2.1-1.373-3.275-2.019l-.129.083a3 3 0 0 1-.45.224l-1.479.733-.001-.001a2.7 2.7 0 0 1-.459.221l.001.001a2.9 2.9 0 0 1-1.447.138 4 4 0 0 1-.288-.052c-.577-.134-1.14-.416-1.655-.803-1.032-.777-1.927-2.011-2.473-3.509l-.046-.139zm23.018 11.372-.005.021a5 5 0 0 1-.135.413l.053-.037q.225-.154.414-.379-.148-.065-.295-.127zm-1.463-8.149c-.86-.648-1.729-.834-2.441-.576l-.009.003q-.034.013-.07.031.13.048.257.104l.112.051a4 4 0 0 1 .323.171q.087.05.172.103l.116.075q.076.051.149.105l.091.063c.979.737 1.833 1.885 2.384 3.278q.65.222 1.299.478a8 8 0 0 0-.249-.834c-.489-1.343-1.279-2.408-2.134-3.052m-3.634.243a1.9 1.9 0 0 0-.664.098l-.04.018q-.12.044-.231.104.371.301.696.577l.025.02a34 34 0 0 1 1.559 1.39q1.036.227 2.08.541c-.466-.88-1.063-1.587-1.697-2.063-.59-.443-1.184-.671-1.728-.685m-16.608-3.194c.492 1.132 1.198 2.033 1.956 2.604.47.354.943.569 1.391.65q.15.027.295.034l.046.001q.371.01.705-.111.165-.064.316-.156c.358-.215.656-.562.881-1.021l-.088-.042q-.27-.127-.547-.252l-.004-.001a28 28 0 0 0-1.529-.636c-.525.116-1.037-.08-1.455-.403l-.066-.051a3 3 0 0 1-.122-.108l-.031-.026a25 25 0 0 0-1.748-.482m-9.951-7.771c-4.247-1.907-8.286-2.628-12.098-2.193-3.809.434-7.426 2.027-10.826 4.798a28 28 0 0 0-2.135 1.966l12.109 6.38a40 40 0 0 1 .654-.644 35 35 0 0 1 .955-.88l.089-.08q.303-.266.595-.503.24-.196.481-.385l.021-.016.091-.069q.435-.338.875-.654l.16-.113a25 25 0 0 1 .829-.565l.115-.074q.176-.116.354-.227l.138-.086q.186-.114.371-.225l.143-.084q.176-.104.354-.204l.133-.076.368-.202.17-.09q.19-.1.38-.196l.091-.046q.464-.233.935-.445l.108-.049.512-.221q1.043-.436 2.108-.767l.202-.06.278-.083.31-.086.228-.061q.172-.045.345-.088l.151-.036q.168-.04.338-.077l.238-.053.256-.052.303-.059.222-.04a27 27 0 0 1 .613-.098l.164-.024a33 33 0 0 1 .573-.073l.333-.036.16-.016q.177-.017.354-.031l.279-.018q.13-.01.262-.018l.228-.01a24 24 0 0 1 1.414-.024c-1.576-1.064-3.379-2.128-5.331-3.007m15.016 1.06c-.771-.494-1.535-.621-2.174-.389l-.008.003q-.035.013-.072.03.14.051.276.113l.072.034q.281.131.549.304l.058.038q.135.088.266.186c1.03.775 1.924 2.008 2.47 3.503q.004.005.006.011c.085.231.154.464.216.693q.018.06.034.121l.002.001q.445.204.869.412l.09.043.083.041.095.047a7.5 7.5 0 0 0-.434-1.954c-.382-1.049-.948-1.929-1.585-2.571a5 5 0 0 0-.546-.48l-.042-.03a4 4 0 0 0-.225-.156m-3.065.46a2 2 0 0 0-.956.064l-.05.022q-.12.046-.232.106l.231.183c1.574 1.283 2.495 2.236 2.666 2.419l.005.005.015.016.005.007q.107.108.199.223a36 36 0 0 1 1.666.629c-.366-.991-.895-1.829-1.493-2.456l-.105-.106a6 6 0 0 0-.344-.314q-.089-.073-.177-.14c-.484-.364-.97-.582-1.43-.658" clip-rule="evenodd"/>
</svg>
