<svg xmlns="http://www.w3.org/2000/svg" width="550" height="550" fill="none" viewBox="0 0 550 550">
    <path fill="#fff" fill-rule="evenodd" d="M213.1 150.97c1.471-.582 3.192-.358 4.945.208 1.769.57 3.706 1.532 5.679 2.594 6.941 3.739 179.963 97.995 202.964 110.511l1.829.994c6.459 3.511 10.105 7.482 12.118 11.688 2.005 4.19 2.349 8.535 2.349 12.709v57.237c0 5.817-1.333 9.247-3.93 10.635l-.002.001-3.746 1.989a5.5 5.5 0 0 1-.811.429l-.086.045-1.095.568v-.245c-1.224.243-2.565.129-3.951-.218-1.789-.448-3.726-1.299-5.719-2.373-4.968-2.678-82.157-45.151-140.439-77.118l1.402 4.096a8475 8475 0 0 1 6.467 19.021l6.604-3.902h.019c.824-.429 1.795-.593 2.797-.633 1.075-.044 2.264.051 3.47.167 2.878.274 5.284 1.105 7.248 2.791 1.834 1.574 3.22 3.84 4.276 6.924l.207.628c.272.862.716 2.288 1.286 4.115l5.601-3.305a4.6 4.6 0 0 1 1.7-.982l.002-.001c1.506-.502 3.381-.427 5.322-.149 2.804.401 5.203 1.016 7.173 2.485 1.985 1.479 3.442 3.753 4.527 7.277l3.11 10.11 5.715-3.426.002-.001c.883-.526 1.917-.615 2.867-.512.956.104 1.898.409 2.67.76.697.317 1.377.546 2.123.831.727.277 1.485.596 2.226 1.066 1.515.961 2.861 2.49 3.962 5.382 1.061 2.784 6.148 17.188 10.964 30.877 2.41 6.848 4.753 13.524 6.494 18.487l2.094 5.969.581 1.66.154.437.039.111.009.028.003.007v.002l.029.08.009.083 8.503 74.415-19.143 11.295.038.329-.648.031-.856.506-.054-.463-54.431 2.63-4.914-12.289-.123-.165-.522-.707-1.988-2.69a17957 17957 0 0 1-29.261-39.699c-15.337-20.872-31.398-42.854-35.969-49.565l-.758-1.134c-2.513-3.876-3.64-7.123-3.83-9.887-.165-2.419.39-4.423 1.297-6.103-51.681-27.978-111.399-60.271-119.133-64.291-6.972-3.626-10.453-8.06-12.164-12.548-1.483-3.893-1.611-7.78-1.62-11.052v-30.54c0-4.706.904-7.586 2.764-8.931l.04-.029.043-.023.81-.438v-.001l3.319-1.795c.266-.184.545-.329.829-.445l.006-.002c1.458-.577 3.163-.355 4.898.204 1.751.565 3.667 1.518 5.618 2.569 2.055 1.106 18.364 9.853 40.809 21.891l76.006 40.77c-2.697-7.904-4.684-13.802-5.327-15.908-1.203-3.935-1.711-7.35-1.492-10.056.216-2.681 1.161-4.792 2.992-5.914l-.002-.004.005-.003 3.559-2.1c-12.856-7.027-21.866-11.92-24.528-13.304-7.045-3.664-10.562-8.145-12.29-12.68-1.499-3.935-1.628-7.863-1.637-11.171v-59.062c0-4.754.911-7.663 2.79-9.02l.04-.028.044-.023.016-.009a4.5 4.5 0 0 1 .803-.432l.002-.002v-.001l3.365-1.817q.396-.269.835-.445zm30.378 110.764-.475.019c-.736.036-1.362.2-1.891.467a3 3 0 0 0-.203.113c-1.276.766-2.112 2.323-2.309 4.773-.197 2.447.257 5.659 1.43 9.497.681 2.23 2.905 8.822 5.91 17.617l1.863 5.432.001.001c1.365 3.982 2.84 8.266 4.368 12.695l4.687 13.572c.536 1.552 1.062 3.065 1.595 4.608l4.759 13.7h2.423l-2.046 1.086 9.677 27.859 1.441 4.123-2.403-2.531-.003-.003-.01-.01-.039-.04-.148-.157-.002-.002c-.186-.199-.501-.532-.92-.976l-.034-.018-.105-.057-.082-.088a2218 2218 0 0 1-4.956-5.284l.842 2.418h-1.592l-.175-.503-1.609-4.628c-3.257-3.493-6.502-7.013-7.868-8.606v-.001c-2.322-2.711-5.391-3.917-7.981-3.008l-.028.01a6 6 0 0 0-2.203 1.428 14.7 14.7 0 0 0-1.779 2.109l-.219.335c-1.006 1.588-1.662 3.507-1.496 5.927.168 2.435 1.17 5.439 3.592 9.174 3.153 4.86 20.295 28.333 36.677 50.627a18444 18444 0 0 0 29.258 39.696l1.988 2.69.523.706.133.18.035.046.008.012.002.003c-.004.004-.052.04-.602.447l.603-.446.057.078.036.09 4.553 11.386 53.266-2.574-8.346-73.038-.06-.167-.101-.288a5 5 0 0 1-.087-.245l-.384-1.095-.002-.006-.173-.498-.003-.009c-.072-.212-.149-.431-.235-.677l-.427-1.217-.001-.002c-.113-.327-.22-.624-.348-.992l-.003-.009a7 7 0 0 0-.086-.251l-.001-.006-.767-2.188-.005-.014-.004-.013-.038-.112-.362-1.032-.001-.001-.554-1.578c-.038-.109-.044-.133-.069-.202l-.005-.012c-.211-.603-.434-1.235-.656-1.874l-.042-.12v-.009q-.156-.44-.31-.884l-.005-.012v-.002l-.003-.006-.004-.011-.001-.004-.002-.006-.352-1.008-.011-.031-.005-.015c-.125-.355-.244-.699-.371-1.054l-.044-.123v-.011l-.418-1.195c-.048-.136-.075-.217-.115-.326l-.003-.009q-.342-.97-.69-1.964l-.971-2.763-.033-.094-.033-.092-.594-1.693-.004-.01-.035-.101-.046-.13q-.262-.75-.527-1.501l-.104-.295-.101-.286v-.002l-.263-.744-.261-.739c-.157-.438-.316-.896-.47-1.329l-.002-.005-.093-.266-.092-.266-.546-1.553-.001-.003-.111-.314-.109-.313-.005-.012-.004-.012a2 2 0 0 0-.048-.14l-.003-.009-.122-.345-.117-.33c-.067-.185-.133-.376-.199-.562l-.005-.013-.035-.1-.04-.115-.077-.219-.076-.212-.101-.286q-.047-.139-.094-.268l-.003-.007-.163-.464-.002-.006-.044-.127-.044-.126v-.002l-.099-.283-.103-.292-.003-.008-.004-.017-.002-.004-.495-1.403-.004-.013-.036-.101-.04-.115-.159-.453-.001-.003-.073-.207-.065-.186q-.101-.276-.192-.542l-.047-.134-.037-.107-.004-.01c-.157-.453-.316-.897-.475-1.349l-.098-.277-.095-.269-.001-.004-.319-.9h-.008l-.178-.499-.356-1.011v-.001a14 14 0 0 1-.14-.399l.001-.001c-.025-.069-.055-.15-.082-.233l-.094-.262-.004-.011-.004-.012-.093-.264-.097-.274-.043-.123-.206-.578-.001.001-.001-.005c-.078-.222-.163-.452-.24-.673l.001-.001-.242-.68v.001l-.204-.572.001-.001-.08-.228-.022-.021-.052-.182-.004-.007-.013-.04h.001l-.079-.222-.1-.1v-.166l-.01-.025-.029-.089-.511-1.437h-.008l-.118-.354-.047-.132.002-.002-.007-.024v-.002l-.003-.008-.013-.031v.001l-.006-.017-.035-.088v-.01l-.03-.084-.004-.012-.004-.012-.015-.043-.001.001-.046-.13-.052-.148.004-.003-.005-.012.007-.003-.01-.029-.01.003.007.02.006.009-.004.002-.002-.004-.013-.034-.002-.009-.044-.107v-.038l-.026-.09-.049-.142-.001-.003q-.071-.204-.141-.397c-.025-.068-.056-.149-.085-.233l-.086-.239a5 5 0 0 1-.077-.21l-.01-.029-.014-.038-.045-.124-.028-.078-.001-.003-.037-.105-.015-.042-.006-.015-.005-.017-.006-.016-.006-.016-.008-.028-.008-.024-.001.001a5 5 0 0 0-.07-.198l-.004-.012-.004-.011c-.035-.101-.067-.187-.108-.3l-.003-.007-.003-.008v-.002l-.003-.011-.018-.05.001-.001q-.017-.04-.023-.058l.002.011-.006-.018-.014-.041-.012-.032c-.05-.134-.102-.282-.14-.389l.001-.001a3 3 0 0 1-.066-.179l-.069-.197.001-.001-.026-.065c-.011-.032-.035-.093-.056-.154l-.011-.025a1 1 0 0 1-.028-.097l-.005-.011-.006-.014-.011-.03-.023-.057-.013-.037-.014-.033-.01-.034-.015-.04-.02-.052-.016-.042-.013-.037-.017-.049-.032-.083-.004-.011c-.011-.03.004.007-.007-.022-.008-.02.002.009-.005-.011l-.003-.009-.001-.002-.004-.012-.001-.001v-.002l-.001-.001v-.002l-.001-.001-.001-.003-.009-.023-.008-.021-.008-.023-.008-.021-.006-.017-.008-.02-.003-.007-.017-.045-.012-.029-.013-.034-.036-.095-.03-.083-.015-.04-.003-.011-.001-.002-.009-.028-.001-.006-.019-.05-.007-.02-.002-.004-.004-.011-.004-.012-.018-.048-.026-.069-.044-.116-.004-.013-.011-.026-.007-.022-.018-.047-.026-.069-.003-.01-.004-.01-.037-.105-.004-.009-.003-.01-.004-.012-.003-.009-.007-.022-.065-.128v-.054l-.002-.005.002-.001-.012-.027-.001.001-.024-.064-.012-.035.007.018.002-.001-.034-.083-.027-.071-.013-.034-.013-.031-.007-.021-.004-.01-.022-.052-.006-.021-.048-.125-.002-.007-.003-.006a11 11 0 0 0-.178-.451l-.029-.066-.037-.084a12 12 0 0 0-.128-.291l-.002-.005c-.021-.049-.043-.095-.069-.151l-.003-.005c-.035-.078-.071-.153-.109-.234l-.075-.151-.003-.005-.061-.116-.06-.115-.003-.006-.004-.007-.065-.121-.006-.01-.113-.202-.002-.004q-.043-.078-.075-.13l-.005-.008-.006-.008a3 3 0 0 0-.099-.165l-.02-.03-.017-.031-.047-.075-.01-.016c-.039-.062-.057-.082-.119-.176l-.042-.057-.036-.053q-.064-.09-.147-.2l-.05-.067a7 7 0 0 0-.201-.251l-.026-.03-.001.002c-.084-.093-.114-.132-.169-.19l-.042-.044-.021-.022-.008-.008-.009-.01a5 5 0 0 0-.159-.164l-.04-.039-.083-.078-.06-.057-.034-.029-.043-.038-.008-.007-.007-.007-.119-.104-.01-.007c-.004-.005-.011-.01-.028-.024l-.054-.046-.097-.079-.007-.005-.008-.005c.007.006.013.009-.005-.005l-.009-.005-.002-.001-.001-.001-.005-.004c-.025-.02.016.01-.01-.009l-.012-.008-.021-.016-.003-.002-.002-.002-.006-.005-.009-.006-.001-.001-.002-.001-.007-.005-.006-.006c-.033-.026-.052-.037-.131-.093l-.004-.003-.016-.01-.049-.034-.18-.117-.021-.014-.001-.001-.012-.007a9 9 0 0 0-.452-.263l-.011-.004-.013-.006-.013-.007a4 4 0 0 0-.185-.097l-.032-.016-.008-.005-.027-.014-.007-.004a3 3 0 0 0-.161-.077l-.042-.02-.008-.005-.043-.019-.073-.033-.077-.036-.017-.005-.026-.012-.221-.092-.022-.01-.01-.005-.005-.003-.019-.007-.009-.005-.081-.032-.132-.051c-.243-.095-.489-.186-.743-.281q-.38-.14-.775-.292c-.281-.109-.57-.228-.858-.356l-.025-.005-.079-.036a8 8 0 0 0-1.294-.463c-.745-.191-1.503-.258-2.146-.112-.479.11-.881.335-1.186.714-.309.385-.568.988-.65 1.928v.002a8 8 0 0 0-.019 1.09l.021.353c.065.843.236 1.841.539 3.026.894 3.474 2.125 7.666 3.316 11.549l.675 2.182c.665 2.13 1.29 4.089 1.803 5.682l.281.864.003.008.25.773.012.035.021.06.09.28.004.011.007.023.008.028.086.26.005.016.006.013.001.004q.088.275.166.501l.02.062.011.036.002.006.032.095.013.037.011.032.01.032.012.038c.011.034.039.113.059.184l.001.003.008.017.011.032c.039.121.088.268.121.376h.002l.011.034.008.025.043.129.011.038.004.012.001.004.001.002.07.248.014.038-.002.001.046.162.23.639-.049-.005.001.001-4.165-.492-.938-.11-.311-.037-.665-.076-.001-.001-.057-.006-.138-.482-.002-.005-.007-.022-.004-.016-.004-.013-.007-.02-.02-.063c-.035-.114-.018-.068-.049-.167l-.005-.017-.004-.015-.042-.14c-.024-.07-.046-.146-.064-.205l-.073-.244a10 10 0 0 1-.1-.316l-.074-.237c-.049-.163-.096-.309-.157-.508l-.002-.007-.093-.302-.004-.013c-.032-.111-.061-.2-.103-.34l-.022-.068-.021-.072-.002-.006-.283-.927-.203-.662-.503-1.642-.201-.651-.003-.01-.147-.485v-.002c-.182-.59-.363-1.186-.558-1.814-.077-.243-.154-.501-.227-.738q-.259-.84-.528-1.721c-.264-.864-.539-1.755-.818-2.661-.111-.362-.232-.748-.346-1.121-.343-1.119-.696-2.262-1.047-3.408l-.002-.007-.042-.136c-.016-.048-.033-.105-.05-.161l-.179-.585-.182-.593q-.048-.151-.091-.298l-.09-.291-.002-.005-.121-.393-.121-.396-.001-.002-.055-.175-.059-.191q-.131-.428-.262-.848c-.068-.218-.139-.445-.206-.668l-.553-1.802-.001-.001-.126-.413-.127-.412-.004-.013-.056-.181-.05-.159-.004-.013-.142-.465-.327-1.063-.001-.002c-.151-.501-.303-.987-.452-1.471l-.028-.094-.012-.038-.004-.012-.003-.012c-.126-.424-.245-.796-.373-1.217q-.11-.36-.219-.709l-.003-.011c-.065-.22-.131-.426-.2-.654l-.054-.176-.054-.175-.001-.003-.296-.961-.504-1.637-.003-.008a30 30 0 0 0-.145-.48l-.016-.05-.008-.029-.001-.002-.005-.014c-.033-.099-.063-.204-.086-.277-.032-.106-.057-.191-.085-.277l-.002-.007-.178-.582-.062-.202-.091-.292c-.048-.147-.109-.359-.14-.456l-.002-.005c-.969-3.148-2.194-5.061-3.706-6.295-1.037-.846-2.248-1.407-3.692-1.81a22 22 0 0 0-2.129-.459 52 52 0 0 0-.915-.143c-.221-.03-.416-.057-.614-.077l-.103-.013-.006-.001h-.008l-.007-.001q-.16-.017-.292-.027l-.013-.001-.198-.02-.17-.018c-.039-.003-.078-.004-.125-.006l-.154-.01q-.239-.015-.466-.021h-.002l-.414-.007h-.084a8 8 0 0 0-.472.021l-.024.001h-.024l-.011.001-.035.004-.055.005-.001-.001c-.117.01-.22.021-.318.033l-.011.001c-.023.002-.048.006-.083.011l-.102.012a6 6 0 0 0-.31.057l-.011.003-.011.002-.045.008-.009.002-.004.001-.013.004-.014.002a5 5 0 0 0-.426.12l-.006.002c-.626.208-1.109.532-1.461.998-.355.469-.618 1.136-.709 2.093a10 10 0 0 0 .029 1.951l.037.327.001.002q.09.73.272 1.588l.132.585v.002c.09.387.186.778.302 1.187l.001.004c.426 1.528 1.041 3.541 1.772 5.844l.051-.009h.007l.013-.002q.034-.004.057-.005l.034-.003h.008l.102.875c1.879 5.874 4.414 13.342 6.508 19.42l.323.937.003.007.115.329.004.011.004.012.178.512.003.009c.047.141.089.258.141.412l.239.691.065.191.107.314.631 1.824.007.019.224.637.003.009.13.371.002.006.118.342.003.007.002.006c.023.07.041.119.071.204l.235.673.002.006.016.046.029.084c.031.091.098.272.135.384l.022.063.017.048.004.008.003.008c.066.185.129.374.185.534l.1.102v.182l.139.398.011.036.003.006.004.01.013.033.006.02.003.008.004.012.01.031.092.263.003.009.009.023.008.021.011.029.003.008.003.009.239.682h-.002l.011.038h.002c.007.018.024.068.041.128h.002q.02.062.04.117l.004.01.003.01.017.048.008.024.019.054.006.015.4 1.068-.035-.002.015.038-7.195-.343-.013-.038-.169-.008v-.5l-.054-.174-.008-.023-.005-.024.002.004q-.004-.01-.013-.044l-.046-.147-.002-.007-.146-.467v-.002c-.05-.163-.111-.355-.174-.569l-.001-.003-.024-.074-.031-.1-.126-.41-.264-.854-.001-.002q-.143-.476-.306-1.001l-.001-.002-.241-.78-.001-.003c-.126-.408-.253-.828-.392-1.273v-.002c-.193-.626-.403-1.299-.619-2.006-.225-.714-.456-1.467-.695-2.244-.177-.576-.366-1.179-.552-1.79q-.353-1.128-.716-2.317l-.001-.002-.055-.177-.058-.19a690 690 0 0 0-.698-2.263l-.002-.006c-.608-1.965-1.235-4.001-1.866-6.046l-.098-.319-.1-.319c-.323-1.037-.643-2.078-.961-3.106a684 684 0 0 1-.792-2.565q-.165-.522-.322-1.037l-.763-2.464q-.325-1.054-.642-2.071v-.002l-.415-1.341c-.097-.306-.194-.63-.284-.917l-.001-.002q-.302-.98-.586-1.889l-.001-.002-.487-1.572-.004-.014c-.051-.174-.097-.314-.155-.505a552 552 0 0 0-.688-2.212l-.006-.021-.003-.01-.008-.029-.001-.003c-.052-.167-.108-.343-.159-.511l-.005-.016-.009-.03-.003-.008c-.07-.225-.135-.434-.2-.636l-.017-.048-.001-.004c-.053-.177-.106-.341-.159-.512l-.026-.083-.014-.045c-.014-.044-.034-.102-.052-.161l-.033-.106-.004-.01c-.033-.096-.069-.216-.087-.272l-.002-.007c-.042-.137-.081-.257-.123-.39l-.016-.05-.017-.049-.023-.08q-.012-.03-.023-.075c-.004-.018-.012-.041-.017-.057l-.019-.053-.008-.034-.085-.273c-1.03-3.243-2.356-5.424-4.027-6.858-1.666-1.43-3.748-2.183-6.414-2.437l-.003-.001a39 39 0 0 0-1.382-.115c-.179-.011-.338-.022-.498-.029h-.007c-.125-.006-.123-.009-.17-.009h-.018l-.019-.001-.399-.014h-.671l-.251.009-.246.016-.095.011c-.035.004-.083.011-.133.016l-.001-.001a5 5 0 0 0-.324.044l-.01.002-.009.001c-.053.008-.108.019-.184.034a5 5 0 0 0-.324.076l-.004.001-.056.014-.038.009-.021.006-.006.002-.001-.001-.032.008.001.001a4 4 0 0 0-.41.151l-.006-.01-.011.006a2.6 2.6 0 0 0-.543.339l-.109.099c-.529.518-.91 1.416-.865 3.079v.002c.035 1.36.357 3.168 1.056 5.55l.618 2.07c.317 1.047.682 2.227 1.081 3.51h3.69l-3.369 1.03c.387 1.239.802 2.56 1.239 3.942l2.403 7.539c1.674 5.219 3.438 10.67 4.98 15.412l2.108 6.464 1.503 4.596.003.011.05.151c.094.281.18.552.253.775l.074.219.069.211.057.176.136.411.001.005.057.181h.002l.035.106.031.094.014.038.003.009.38 1.014h-.052l.008.021h-.061l.11.355-1.059-.355h-4.571l-.172-.511-.002-.004-.02-.059-.062-.186-.243-.726-.929-2.765c-.802-2.387-1.95-5.809-3.342-9.947a18006 18006 0 0 0-14.421-42.726l-1.84-5.422-4.117-12.087c-3.893-11.39-6.977-20.276-8.016-22.948-1.826-4.689-3.738-7.305-5.745-8.735-1.863-1.326-3.897-1.694-6.247-1.63m109.36 65.084c-.765-.083-1.434.009-1.937.308l.001.001-6.032 3.617.003.007-.503.302-9.618 5.77.034.009a9.5 9.5 0 0 1 1.621.55l.007.002.033.014.068.03.006.002c.272.127.553.239.847.354l.063.023.703.263q.32.12.634.24l.002.001.015.006h.003l.129.05-.006-.002.015.006.247.099.02.008.008.004.005.003.02.009q.104.04.203.084l.006.003.019.008.007.003.033.014.105.047.089.041.042.019.008.005.127.06c.032.015.073.034.114.055l.026.012.008.005.021.011.018.01q.106.054.214.112l.018.008.012.006q.145.076.282.157l.266.16.01.007.009.006.018.012.025.016.208.136.011.008.005.003.016.01.06.041c.023.017.104.073.171.125l.089.066.007.005.173.139.01.008c.005.004.011.011.029.025l.063.052.143.125.039.033.066.061c.046.043.106.097.166.156a3 3 0 0 1 .182.183l.056.06c.02.02.054.054.091.095q.11.115.213.238l.045.05a11 11 0 0 1 .288.364c.069.087.135.181.184.249l.049.067.036.053.009.013c.02.03.099.143.146.217l.051.083.023.037.016.026.134.22.003.004.037.065.05.086.127.226.007.013.007.014.075.139c.043.078.09.175.12.232.035.065.077.151.094.185l.006.013.124.263.083.181.136.31.029.065.037.085.002.006.201.505.075.203.004.012.004.011.001.004.016.03.017.059c.006.019.016.042.036.094l.007.023.008.02.003.01.011.024.011.028.007.02.007.022.009.023.078.078v.135l.003.009.006.015c.024.07.046.126.081.223h-.002l.034.085-.008-.024.003.006.009.022.008.023.09.244.013.039.005.012.003.009-.006-.012.062.142v.028l.004.012.081.081v.137l.012.029.014.039.033.093.003.01c.019.058.038.109.07.196l.053.147.027.081.014.041.096.096v.163l.029.08.025.069v-.252l1.23 3.691.022.06.008.022.001.004.009.026.01.033.023.059.005.016.003.01.003.009h.211v.59q.324.916.68 1.914l.002.002.003.012.033.092.018.049.028.055v.02l.005.014.005.012.265.747c.058.163.138.383.203.568l.243.682.003.01c.076.218.154.435.237.667l.767 2.163.355 1.006.501 1.416.1.281.094.269.002.005c.158.448.314.893.475 1.345l.047.136.037.107.004.01q.044.129.093.263l.094.268.073.206.066.189.001.003.083.233.078.225.003.008.003.007.035.1.04.117.497 1.409.003.009.006.017.003.008.099.284.102.291.169.484.084.238.098.278.093.269q.078.213.157.438l.004.011.035.1.039.114a91 91 0 0 1 .32.901l.116.33.006.016.005.015.049.14.002.008.003.008.11.313.108.311q.139.39.275.78l.272.774.002.005.093.266.092.263.996 2.818.102.291.1.286.003.007.531 1.513.004.01.034.101q.02.053.042.12c.198.567.396 1.126.594 1.688l.067.187v.002c.326.934.65 1.849.97 2.762.234.662.464 1.321.69 1.961l.114.327.004.009.465 1.327.043.121v.006l.331.946.011.033.003.013.349.994.012.034.002.006.006.021q.173.5.346.988l.043.122v.007l.614 1.756.07.201.004.011.552 1.574.366 1.038.004.013.003.013.013.036.027.076.765 2.188.004.01.003.011c.033.101.041.117.086.25l.348.993.424 1.211.001.003.237.68.002.006.175.504.378 1.081.084.234.103.293.049.135.012.036.003.007.03.081.009.029.003.011.001.004.001.003.018.061.007.061 7.124 62.34.037-.025 1.189 10.424 17.729-10.46-8.382-73.361-.025-.072-.153-.436-.582-1.66-2.093-5.969c-1.741-4.963-4.084-11.637-6.494-18.485-4.821-13.705-9.899-28.081-10.951-30.841-1.01-2.651-2.172-3.894-3.363-4.649-.612-.388-1.258-.664-1.957-.931-.681-.26-1.455-.525-2.209-.868-.665-.302-1.452-.551-2.212-.634m52.326 39.668c.951-.378 2.031-.222 3.064.11 1.048.338 2.186.905 3.325 1.517 4.137 2.227 7.41 4.031 14.72 8.003l.392.213v.014c3.526 1.996 5.574 4.25 6.726 6.657 1.186 2.479 1.385 5.04 1.385 7.459v66.165c0 3.364-.77 5.518-2.436 6.407l-.001.001-1.158.613-.85 2.259v-1.808l-.163.087-.002-.003a4 4 0 0 1-.475.247l.001.001-.054.026-.019.009-.02.007c-.942.376-2.002.328-3.065.062-1.067-.267-2.211-.771-3.37-1.395-2.249-1.211-3.927-2.277-6.003-3.536-2.078-1.26-4.591-2.736-8.548-4.795-4.121-2.144-6.205-4.782-7.231-7.474-.885-2.323-.959-4.638-.964-6.55v-67.216c0-2.748.522-4.575 1.741-5.455l.039-.028.042-.023.474-.257.043-.023.01-.004 1.864-1.008q.252-.17.531-.282zm-.391 2.671c-.608-.137-1.068-.124-1.416.002l-.347.189c-.56.427-1.092 1.548-1.092 4.218v67.219c.006 1.886.081 3.953.866 6.013.883 2.316 2.694 4.687 6.522 6.678 3.992 2.077 6.533 3.57 8.633 4.843 1.84 1.115 3.317 2.047 5.134 3.058l.803.438c1.107.596 2.126 1.038 3.022 1.262.897.224 1.6.214 2.135.003l.026-.012.021-.01q.185-.078.327-.171c.366-.252.708-.672.972-1.373.307-.823.495-1.987.495-3.6V391.75c0-2.351-.198-4.641-1.238-6.814-1.033-2.157-2.934-4.278-6.481-6.205-7.319-3.977-10.58-5.774-14.715-7.999h-.001c-1.396-.753-2.636-1.346-3.663-1.574zm2.995-1.133c-.903-.291-1.558-.325-2.017-.156 1.08.339 2.246.917 3.403 1.54 4.138 2.226 7.41 4.03 14.721 8.002 3.768 2.049 5.922 4.383 7.116 6.877 1.187 2.479 1.386 5.04 1.386 7.459v66.165c0 1.424-.14 2.606-.412 3.568.721-.613 1.311-1.991 1.311-4.855v-66.165c0-2.351-.199-4.64-1.239-6.812-1.032-2.157-2.934-4.277-6.48-6.206l-.392-.213v-.008c-7.045-3.829-10.263-5.601-14.323-7.786-1.131-.608-2.166-1.117-3.074-1.41m-247.415-12.219c1.174-.465 2.528-.28 3.87.152 1.018.328 2.105.824 3.215 1.391l1.119.587v.001c5.422 2.924 43.865 23.396 53.484 28.623 4.921 2.675 7.715 5.709 9.26 8.936 1.537 3.212 1.798 6.537 1.798 9.708v5.408c0 4.416-1.011 7.118-3.078 8.22l-2.833 1.505a4.5 4.5 0 0 1-.608.323l-.065.036-1.113.612v-.308c-.9.137-1.867.04-2.851-.206-1.377-.345-2.86-.997-4.377-1.814-5.879-3.169-42.81-23.617-53.264-29.053-5.375-2.796-8.074-6.223-9.4-9.705-1.148-3.013-1.246-6.019-1.252-8.529v-6.789c0-3.606.687-5.895 2.188-6.98l.039-.03.043-.022.623-.338.002-.002-.001-.002 2.537-1.369c.213-.147.437-.265.664-.355m-1.671 2.931a2.6 2.6 0 0 0-.872.146l-.511.276c-.841.63-1.541 2.209-1.541 5.745v6.792c.008 2.484.106 5.242 1.154 7.992 1.183 3.106 3.609 6.265 8.691 8.908 10.459 5.438 47.443 25.916 53.281 29.063h.001c1.464.789 2.824 1.378 4.03 1.68 1.211.303 2.196.299 2.963-.007l.015-.007h.002l.031-.014c.179-.078.334-.156.47-.248.532-.36 1.011-.959 1.372-1.917.419-1.117.674-2.684.674-4.829v-5.408q.002-.873-.033-1.739-.024-.579-.07-1.153c-.171-2.105-.593-4.172-1.549-6.169a14.5 14.5 0 0 0-1.666-2.683 16 16 0 0 0-1.145-1.315 18 18 0 0 0-1.69-1.546 21 21 0 0 0-.985-.758q-.345-.251-.713-.499a27 27 0 0 0-1.157-.739 31 31 0 0 0-1.266-.725c-9.624-5.23-48.034-25.684-53.48-28.62v-.001q-.345-.186-.681-.362c-1.457-.759-2.784-1.367-3.938-1.666l-.262-.063-.29-.059a4.6 4.6 0 0 0-.835-.075m5.081-1.351c-1.233-.398-2.173-.457-2.858-.185a1.8 1.8 0 0 0-.39.211l-.039.028-.044.024-.009.004.296.066v.023l.051.016c1.241.364 2.585.994 3.944 1.705l.035.019.208.11.442.234 9.295 4.97c13.552 7.236 36.977 19.733 44.19 23.654 4.921 2.675 7.715 5.709 9.26 8.936 1.537 3.212 1.798 6.537 1.798 9.708v5.408q0 1.243-.108 2.293l-.022.191a14 14 0 0 1-.149 1.038l-.017.087a12 12 0 0 1-.133.622l-.023.091q-.02.084-.042.165l-.029.107-.051.171-.055.179-.021.066q-.039.12-.081.236l.105-.055.234-.141c1.152-.777 2.049-2.68 2.049-6.755v-5.408c0-3.103-.261-6.156-1.652-9.061-1.383-2.889-3.923-5.711-8.623-8.265-9.625-5.231-48.032-25.684-53.479-28.62v-.001c-1.488-.801-2.865-1.479-4.082-1.871m87.065-5.284c2.201.415 4.312 1.786 5.954 3.704l.595.682c1.483 1.677 4.102 4.516 6.805 7.418l.7-.699v1.452l.034.037v.003c2.201 2.362 4.386 4.69 5.985 6.391-1.658-4.767-4.89-14.059-8.699-25.036zm78.567-41.221c-1.901-.272-3.48-.3-4.636.085q-.735.246-1.207.707l-.065.062-.077.046-5.969 3.522.005.015-8.836 5.214.009.001h.002l.282.019-.001.002.081.005.001-.001c.107.009.218.021.316.032l.147.013.159.015.093.011.028.004.013.001.015.002q.312.036.647.082h.002c.331.045.652.099.96.15h.002c.804.136 1.571.298 2.303.501 1.604.442 3.034 1.086 4.284 2.106 1.816 1.484 3.168 3.694 4.19 7.011.043.138.094.296.144.465l.154.494.002.009.101.325.003.009.002.009.067.22.002.007c.021.068.061.193.09.29l.013.044q.049.15.096.308l.656 2.135.001.003q.14.465.295.958l.109.355.002.005.2.655.222.721.367 1.201c.013.038.023.074.029.094l.012.039.003.008.002.007c.153.496.3.984.458 1.491l.001.004.326 1.059.001.002.071.233.073.237.051.168.04.131.004.007.015.051.255.826.552 1.799.104.339.101.325.002.006.131.426.132.429.001.003.055.176.059.19.24.781.183.594.002.006.181.591.183.593.001.006.042.137.047.152 2.211 7.19v.002l.528 1.717.001.001.227.74q.286.937.557 1.812l.003.009.002.009.143.47.001.005.203.66q.264.867.502 1.638l.201.658.002.007.146.476.139.454.022.071.022.072.001.003c.029.098.072.231.105.344l.096.314.159.512.039.126.031.1q.059.177.105.334l.074.245.003.007.002.008.044.143.007.023.006.023.003.012.017.002h.001l.033.004h.002l2.758.324-.005-.02c-.03-.087-.059-.179-.087-.265q-.042-.132-.088-.263l-.01-.028-.094-.285-.004-.012-.003-.011-.007-.022-.015-.051-.075-.23-.012-.035-.021-.06-.001-.003-.255-.786c-.087-.273-.181-.559-.281-.867v-.002a609 609 0 0 1-2.485-7.885c-1.193-3.887-2.433-8.106-3.335-11.617l-.001-.001c-.364-1.422-.559-2.636-.606-3.678l-.011-.347a9 9 0 0 1 .036-.951q.094-1.064.446-1.856l-1.715.391 2.386-1.432a3.53 3.53 0 0 1 1.72-1.032l11.192-6.713c-1.414-4.592-2.617-8.506-3.219-10.465-1.027-3.339-2.344-5.29-3.989-6.516-1.66-1.237-3.749-1.81-6.488-2.201m-60.472-58.842c-1.986-1.414-4.17-1.74-6.725-1.612l.001.001c-.821.042-1.504.242-2.072.566l-.001-.001-12.772 7.533-1.797 1.061-.367.217-.002-.002-.695.411c2.166.058 4.224.537 6.149 1.908 2.349 1.672 4.398 4.6 6.27 9.414 1.401 3.599 6.436 18.255 12.155 35.096l1.841 5.423 3.914 11.564c3.908 11.56 7.699 22.819 10.507 31.165 1.392 4.138 2.541 7.56 3.343 9.947l.929 2.766.155.464h2.328l-.163-.489.017.006-.247-.756c-.011-.036-.039-.112-.059-.178l-1.5-4.589c-2.483-7.601-6.487-19.918-9.495-29.429a1059 1059 0 0 1-1.245-3.961 3 3 0 0 0-.361.137l-.478.228-.009-.008-.001.001-1.141-1.141.986-.447c.19-.087.381-.153.555-.209a348 348 0 0 1-1.574-5.182c-.627-2.141-.978-3.897-1.085-5.335l-.03-.597c-.055-2.017.437-3.456 1.498-4.361l.071-.056q.3-.246.639-.431l.244-.124.007-.004 11.038-6.523a7489 7489 0 0 0-8.588-25.224c-3.167-9.236-5.599-16.206-6.498-18.513-1.824-4.689-3.734-7.307-5.742-8.736m31.633 48.667c-.966.039-1.718.201-2.272.521l-.02.012-.021.011-.021.011-15.065 8.907-.582.342.05.002h.002c.124.006.123.009.169.009h.016l.017.001c.177.008.358.02.528.031h.006q.699.05 1.423.119h.003c2.878.274 5.284 1.105 7.248 2.791 1.835 1.574 3.22 3.84 4.276 6.924l.208.627.002.009.082.266.063.195.007.028h.002l.004.009.008.028.014.044.006.021.005.022.002.004.007.02.004.013c.037.118.085.266.129.411l.078.245q.044.136.093.298l.019.058.014.046.005.018.157.502q.01.026.019.059l.204.649.007.02.002.01.002.003.01.03.159.512.007.02v.002l.012.039.002.009c.21.683.432 1.387.68 2.191l.164.521 1.074 3.465q.144.454.288.924l.414 1.341.642 2.073c.248.803.506 1.629.763 2.465.102.329.217.693.322 1.037l.791 2.56c.319 1.029.642 2.069.961 3.107l.099.318.099.32 1.865 6.041.084.268.077.252.003.01c.181.595.359 1.164.539 1.751l.001.002.054.177.057.184.715 2.314q.286.92.554 1.793l1.314 4.253v.001c.136.447.264.858.391 1.272l.243.782.001.005.305.997.265.858.12.39.063.2.002.006c.061.201.118.389.169.551l.133.432 3.871.184-.026-.075-.003-.007-.002-.007-.007-.02-.003-.011-.013-.029-.011-.029-.092-.266-.004-.009-.012-.041-.015-.037-.012-.034-.002-.004-.007-.022a19 19 0 0 1-.171-.492l-.008-.019-.008-.025-.009-.024-.008-.021-.006-.02-.011-.033-.012-.034a25 25 0 0 1-.188-.543l-.017-.033-.017-.065-.019-.064-.001.001c-.03-.088-.06-.171-.101-.285l-.007-.023-.002-.007-.003-.009-.011-.03-.006-.019-.183-.522-.001-.002-.03-.091a2 2 0 0 0-.046-.132l-.006-.015-.004-.013-.005-.014-.028-.077-.027-.076-.003-.008-.002-.008-.003-.008-.002-.003v-.003l-.001-.002-.006-.017v-.002l-.001-.001c-.001-.003.001-.001-.001-.005l-.002-.008c-.003-.007 0 .004-.002-.004v-.002l-.001-.001v-.002l-.001-.003-.002-.004-.119-.342-.007-.022-.12-.343-.003-.008-.223-.635-.043-.122v-.004q-.289-.827-.602-1.733c-.035-.1-.077-.228-.104-.308l-.134-.389v-.002c-.049-.144-.114-.327-.169-.491-.041-.121-.101-.287-.148-.43q-.087-.256-.174-.499l-.004-.012c-.041-.118-.079-.229-.12-.343l-.004-.011-.322-.933-.001-.003c-2.12-6.154-4.696-13.743-6.587-19.666-.822-2.576-1.518-4.846-1.991-6.542l-.001-.002q-.09-.325-.169-.637l-.15-.613a23 23 0 0 1-.431-2.33l-.001-.002c-.123-.977-.145-1.841-.073-2.606q.101-1.05.447-1.872l-3.693 1.259 4.796-2.831a4.5 4.5 0 0 1 1.299-.8q.083-.034.167-.065l10.74-6.338c-.62-1.988-1.102-3.534-1.389-4.446-1.031-3.247-2.358-5.43-4.031-6.865-1.665-1.43-3.747-2.183-6.413-2.437-1.207-.116-2.304-.2-3.265-.161m-90.098-146.317a3.5 3.5 0 0 0-.877.187l-.764.412c-1.202.913-2.114 3.111-2.114 7.761v57.684c0 3.612-.06 7.819 1.538 12.015 1.585 4.159 4.829 8.371 11.581 11.883 2.734 1.421 12.074 6.496 25.339 13.747l14.22-8.389.006-.004.007-.004q1.193-.674 2.735-.755h.001c2.726-.137 5.296.2 7.667 1.887 2.349 1.673 4.398 4.6 6.272 9.413.904 2.32 3.306 9.212 6.425 18.296 58.451 32.057 136.859 75.204 141.861 77.901h-.001c1.941 1.045 3.756 1.833 5.375 2.238 1.623.406 2.979.411 4.057-.02l.022-.008.009-.005.027-.014.026-.011c.237-.1.453-.211.649-.342q.125-.087.249-.186c.649-.519 1.216-1.305 1.65-2.459.566-1.514.901-3.612.901-6.457v-57.236c0-4.108-.345-8.181-2.204-12.064-1.851-3.868-5.244-7.625-11.48-11.015-12.698-6.903-197.616-107.641-204.792-111.506-2.424-1.304-4.636-2.37-6.502-2.784v-.001q-1.058-.234-1.883-.164m7.127-1.783c-1.645-.53-2.951-.629-3.933-.24a3 3 0 0 0-.58.313l-.035.025-.622.334q.126.024.254.051h-.001q.288.065.584.147c1.945.532 4.112 1.598 6.306 2.781 7.19 3.873 192.101 104.609 204.796 111.508 6.459 3.511 10.105 7.482 12.118 11.688 2.005 4.19 2.35 8.536 2.35 12.71v57.236c0 1.609-.104 3.025-.303 4.263l.542-.541-1.234 3.26a10 10 0 0 1-.186.456l.708-.375c1.794-.959 3.135-3.565 3.135-9.31v-57.237c0-4.106-.344-8.179-2.202-12.062-1.83-3.824-5.166-7.54-11.268-10.899l-.21-.115c-12.704-6.903-197.612-107.639-204.791-111.505-1.965-1.058-3.799-1.963-5.428-2.488M115.843 231.08c-.969-.216-1.787-.239-2.464-.063a3 3 0 0 0-.276.087l-.707.381c-1.198.89-2.115 3.059-2.115 7.695v29.176c0 3.573-.059 7.733 1.522 11.882 1.567 4.112 4.776 8.278 11.455 11.751 7.751 4.029 67.538 36.36 119.224 64.34a17 17 0 0 1 1.811-2.119q.321-.322.667-.6a7.3 7.3 0 0 1 2.159-1.237l14.585-7.753-.135-.392h.006c-1.437-4.142-2.947-8.495-4.478-12.913l-13.559-7.605-.002-.002c-.596-.337-1.098-.872-1.448-1.449-.347-.574-.586-1.259-.571-1.926.015-.678.304-1.323.939-1.63a1.64 1.64 0 0 1 .829-.16q.182.01.362.052c.24.055.474.15.695.272l10.431 5.727c-2.907-8.412-5.8-16.789-8.326-24.153-54.443-29.209-119.904-64.312-124.167-66.606-2.383-1.283-4.553-2.33-6.387-2.744zm228.934 117.897.001.004-.004-.01zm-1.106-3.029.005.013-.001-.004-.004-.011zm1.556-.162.004.013-.006-.016zm-.361-.96.006.012q.008.017.024.06-.018-.05-.027-.068l-.005-.009zm-134.033-27.715c.604-.291 1.292-.162 1.88.163l35.483 19.276.007.003c.666.37 1.238.952 1.642 1.583.399.623.68 1.369.665 2.091a2.2 2.2 0 0 1-.163.799 1.64 1.64 0 0 1-.914.916c-.653.262-1.396.101-2.047-.267v-.001l-35.468-19.55-.007-.003.004-.008h-.001l-.003.007c-.596-.337-1.098-.872-1.448-1.449-.347-.574-.586-1.259-.571-1.926.005-.225.041-.447.109-.654.137-.418.407-.775.832-.98m.65 1.355c-.006.003-.019.01-.037.044q-.006.011-.011.03a.7.7 0 0 0-.041.232c-.005.306.112.711.356 1.115.242.4.569.731.899.918l35.471 19.553.005.003c.431.242.68.209.753.18a.14.14 0 0 0 .07-.061.3.3 0 0 0 .035-.09 1 1 0 0 0 .024-.187v-.003c.007-.333-.133-.788-.43-1.252-.291-.454-.688-.845-1.099-1.077l-35.483-19.276-.007-.003c-.337-.188-.492-.133-.505-.126m31.767 1.582a.3.3 0 0 0-.141.006c-.006.004-.019.01-.037.042a.6.6 0 0 0-.053.267c-.006.306.111.714.356 1.119.242.401.569.732.899.919l12.08 6.777-.854-2.47-11.883-6.523-.085-.047a1 1 0 0 0-.282-.09m53.939 3.133-.01-.02-.005-.008zM157.53 271.898c.607-.292 1.299-.162 1.889.166l.268.15 55.972 30.584 17.523 9.574.006.003.245.148a4.9 4.9 0 0 1 1.396 1.434c.399.624.68 1.371.665 2.093-.011.516-.18.996-.515 1.337a1.6 1.6 0 0 1-.56.37c-.653.261-1.396.101-2.047-.268l-72.643-39.971v.021l-1.119-.633c-.596-.337-1.098-.872-1.447-1.449-.347-.574-.586-1.259-.573-1.924l.001-.002q.002-.057.008-.114c.041-.638.331-1.229.931-1.519m221.677 18.647c.403-.005.811.124 1.18.329l36.281 20.221h-.001c.666.371 1.239.952 1.643 1.583.399.623.679 1.369.664 2.091-.014.649-.278 1.237-.805 1.568a1.7 1.7 0 0 1-.273.14c-.653.261-1.396.101-2.047-.267v-.001l-36.274-20.495v-.001c-.596-.338-1.098-.872-1.447-1.45-.347-.573-.586-1.258-.573-1.923l.001-.002c.015-.678.305-1.324.939-1.63a1.65 1.65 0 0 1 .712-.163m-220.519-17.167c-.339-.189-.493-.132-.505-.126-.007.003-.021.011-.038.044a.5.5 0 0 0-.051.211l-.003.051c-.006.307.112.713.357 1.119.243.4.569.732.9.919l8.376 4.609 65.38 35.974.006.003c.43.242.678.21.752.181a.14.14 0 0 0 .069-.06.44.44 0 0 0 .055-.179 1 1 0 0 0 .008-.107c.007-.333-.134-.787-.431-1.251-.292-.456-.692-.85-1.106-1.081l-73.764-40.304zm16.767 24.04c.537-.153 1.118-.018 1.623.262l23.026 12.642h.006l.171.095c.664.37 1.235.952 1.639 1.582.399.623.682 1.369.667 2.092-.01.466-.149.902-.423 1.234l.54.304h-.874a2 2 0 0 1-.317.17c-.409.163-.853.161-1.287.046a3.2 3.2 0 0 1-.763-.313l-1.161-.653-22.027-12.356-.002-.001c-.596-.337-1.098-.873-1.447-1.45l-.032-.057a3.9 3.9 0 0 1-.515-1.456 3 3 0 0 1-.025-.41c.011-.595.235-1.164.717-1.502a2 2 0 0 1 .223-.131 2 2 0 0 1 .261-.098m203.694-5.36c-.006.003-.019.011-.037.043a.6.6 0 0 0-.053.267c-.006.306.111.713.356 1.118.243.402.571.734.901.921l36.273 20.496h.001c.426.24.673.209.75.18a.13.13 0 0 0 .068-.06.6.6 0 0 0 .063-.285c.007-.334-.133-.789-.429-1.252-.292-.456-.692-.849-1.107-1.08h-.001l-36.282-20.222a1.2 1.2 0 0 0-.3-.124c-.13-.029-.194-.006-.203-.002m-203.172 6.799a.3.3 0 0 0-.132.01c-.007.003-.019.013-.035.044a.4.4 0 0 0-.036.094 1 1 0 0 0-.02.173c-.006.306.111.713.356 1.118.172.284.387.532.615.719q.14.117.286.2l23.191 13.009.002.001q.05.028.097.05c.369.184.583.157.65.13a.14.14 0 0 0 .07-.061.6.6 0 0 0 .062-.284c.007-.334-.132-.789-.429-1.253-.292-.456-.692-.848-1.107-1.079l-23.192-12.732-.004-.003a2 2 0 0 0-.119-.06 1 1 0 0 0-.255-.076m-54.947-69.709c-1.627-.524-2.917-.621-3.886-.237l-.001-.001a2.8 2.8 0 0 0-.564.308l-.037.026-.04.021-.564.303.147.029h.007l.061.013.021.005q.278.062.562.141c.996.271 2.048.686 3.133 1.184a55 55 0 0 1 3.122 1.573c2.131 1.148 19.613 10.524 43.373 23.268l79.365 42.571-1.147-3.346c-53.144-28.511-114.082-61.188-118.185-63.397-1.942-1.046-3.756-1.942-5.367-2.461m271.26 48.761c.26-.003.522.052.774.144q.206.076.401.183l23.026 12.642h.006l.17.094c.666.371 1.238.952 1.642 1.582.399.624.68 1.37.665 2.092-.01.466-.149.903-.422 1.235l.54.303h-.874a1.6 1.6 0 0 1-.319.17c-.408.164-.851.162-1.286.047a3.3 3.3 0 0 1-.762-.313l-1.827-1.028-1.957-1.097-19.404-10.884-.001-.001h-.001a3.8 3.8 0 0 1-.993-.827 4.5 4.5 0 0 1-.791-1.309 3.3 3.3 0 0 1-.236-1.238l.001-.002q.001-.034.004-.067c.031-.654.321-1.267.935-1.563a1 1 0 0 1 .155-.064q.081-.03.163-.049.192-.048.389-.05zm-266.464-7.601c.403-.004.811.124 1.18.329l35.476 19.413.005.003c.666.37 1.238.951 1.642 1.582.399.623.68 1.369.665 2.091-.016.752-.368 1.425-1.075 1.707a2 2 0 0 1-.248.079c-.588.141-1.229-.021-1.799-.343l-35.475-19.69-.005-.002v-.001c-.596-.337-1.098-.872-1.447-1.449-.347-.573-.586-1.259-.573-1.924l.001-.002c.015-.677.305-1.323.939-1.63a1.7 1.7 0 0 1 .709-.163zm266.912 9.241c-.267-.149-.419-.144-.477-.133a.1.1 0 0 0-.029.008l-.002.001c-.007.004-.019.013-.035.042a.5.5 0 0 0-.041.138 1 1 0 0 0-.012.128c-.006.307.111.713.356 1.118.137.227.303.43.48.599.136.13.278.24.421.321l21.59 12.112 1.6.897.002.001q.044.025.087.045c.375.19.593.161.661.134a.14.14 0 0 0 .07-.061.6.6 0 0 0 .062-.284c.007-.334-.133-.789-.429-1.252-.291-.455-.69-.847-1.104-1.078l-23.196-12.734zm-266.772-7.726c-.127-.027-.189-.004-.197 0-.007.003-.02.01-.038.042a.6.6 0 0 0-.053.267c-.006.306.111.714.356 1.119.242.399.568.729.897.917l35.475 19.69.004.002c.42.237.667.209.746.181a.14.14 0 0 0 .071-.061.6.6 0 0 0 .061-.285c.007-.333-.133-.788-.43-1.252-.291-.455-.689-.846-1.101-1.077l-35.483-19.415-.004-.003a1.2 1.2 0 0 0-.304-.125m216.111-1.387q.12-.001.241.013.242.028.478.109.236.082.458.205l23.026 12.642h.006l.171.095c.664.37 1.235.952 1.639 1.582.399.623.682 1.369.667 2.092-.01.466-.15.902-.423 1.234l.541.304h-.875a2 2 0 0 1-.318.17c-.489.196-1.03.154-1.544-.035a3.3 3.3 0 0 1-.504-.232l-1.596-.897-21.592-12.112-.002-.001a3.7 3.7 0 0 1-.816-.635 4.5 4.5 0 0 1-.632-.815c-.347-.573-.586-1.259-.571-1.926q.001-.034.005-.067c.031-.654.32-1.267.933-1.563.227-.109.467-.16.708-.163m.075 1.504c-.081-.008-.123.008-.131.011l-.003.002a.1.1 0 0 0-.033.041.5.5 0 0 0-.037.105 1 1 0 0 0-.018.162c-.006.306.112.713.357 1.118a2.7 2.7 0 0 0 .9.919l23.191 13.009.002.001.073.038c.383.197.605.169.674.141a.13.13 0 0 0 .07-.06.6.6 0 0 0 .063-.285c.007-.333-.133-.789-.429-1.252-.291-.455-.69-.846-1.104-1.078l-23.196-12.734-.123-.062a.9.9 0 0 0-.256-.076m-25.946-34.56c.607-.293 1.299-.163 1.888.166l-.001.001 61.663 33.98.004.002c.663.37 1.235.951 1.638 1.581.4.623.682 1.369.667 2.092v.004c-.015.751-.367 1.424-1.075 1.707-.652.26-1.394.1-2.045-.266v-.001l-61.654-34.255-.005-.003c-.597-.337-1.098-.872-1.447-1.45-.347-.573-.586-1.257-.573-1.923.007-.382.102-.754.297-1.06.152-.24.364-.44.643-.575m.65 1.354c-.006.003-.02.011-.038.043a.6.6 0 0 0-.052.266c-.005.306.112.712.356 1.116.243.402.572.733.902.92h-.001l61.655 34.255.006.003c.265.15.462.194.589.199h.019a.4.4 0 0 0 .141-.019.13.13 0 0 0 .071-.061.4.4 0 0 0 .042-.111q.016-.066.019-.17c.007-.334-.132-.789-.428-1.252-.292-.456-.69-.847-1.105-1.078l-61.666-33.984-.003-.001c-.338-.188-.494-.132-.507-.126m-191.736 15.81c.546-.264 1.161-.183 1.708.075h.005l.063.034q.055.026.108.055l23.195 12.734.004.002c.664.37 1.236.952 1.64 1.582.399.623.681 1.369.666 2.092a2.06 2.06 0 0 1-.304 1.068 1.6 1.6 0 0 1-.773.642c-.652.26-1.394.1-2.044-.266l-23.192-13.009h-.002l-.075-.047-2.424-1.36h1.08l-.028-.044c-.347-.573-.585-1.257-.572-1.923.012-.631.263-1.232.807-1.56q.066-.04.138-.075m1.151 1.479c-.324-.181-.48-.135-.503-.126a.1.1 0 0 0-.033.041.6.6 0 0 0-.055.269c-.007.304.11.71.355 1.115.243.401.572.734.903.921l.495.279 22.691 12.73.003.001c.43.243.677.209.75.18a.13.13 0 0 0 .068-.06.6.6 0 0 0 .062-.282c.007-.334-.133-.79-.429-1.253-.291-.455-.689-.846-1.103-1.077l-23.027-12.642h-.007zm138.905-26.831c.605-.292 1.296-.163 1.885.164h.001l61.666 33.983.001.002c.667.37 1.238.951 1.642 1.582.399.624.68 1.369.665 2.091a2.1 2.1 0 0 1-.247.974 1.6 1.6 0 0 1-.829.738c-.651.261-1.392.102-2.042-.265v.001l-61.658-34.258-.005-.002v-.001c-.596-.337-1.099-.872-1.448-1.449-.348-.574-.587-1.259-.572-1.926.006-.235.045-.466.119-.68.139-.406.405-.753.822-.954m1.156 1.481c-.338-.189-.492-.132-.505-.126-.006.003-.019.01-.037.044a.4.4 0 0 0-.029.077.8.8 0 0 0-.025.184c-.005.307.113.713.358 1.118.242.4.567.731.896.918l61.658 34.258.004.002c.431.242.679.209.752.18a.1.1 0 0 0 .039-.023l.032-.038a.6.6 0 0 0 .06-.28c.007-.333-.134-.788-.431-1.251-.291-.455-.69-.848-1.103-1.079l-61.666-33.982zM98.708 174.602c1.174-.465 2.528-.281 3.87.152 1.018.328 2.105.824 3.216 1.391l1.118.587v.001c5.422 2.923 43.866 23.396 53.484 28.623 4.922 2.675 7.716 5.709 9.26 8.936 1.538 3.212 1.798 6.537 1.798 9.708v5.408c0 4.416-1.01 7.118-3.077 8.22h-.001l-2.847 1.511c-.201.129-.405.23-.597.316l-.059.033-1.111.611v-.307c-.901.137-1.868.04-2.852-.206-1.376-.345-2.86-.997-4.377-1.814-5.879-3.169-42.81-23.618-53.263-29.053-5.376-2.796-8.074-6.223-9.4-9.705-1.149-3.013-1.246-6.019-1.253-8.529v-6.789c0-3.606.687-5.895 2.189-6.98l.039-.03.043-.022.62-.337v-.001l2.537-1.369a3.3 3.3 0 0 1 .663-.355m-.69 3.033c-.66-.132-1.21-.136-1.662-.019a2 2 0 0 0-.187.059l-.51.276c-.842.63-1.542 2.209-1.542 5.745v6.792c.008 2.484.107 5.242 1.154 7.992 1.184 3.106 3.61 6.265 8.691 8.907 10.46 5.439 47.443 25.916 53.281 29.064h.001c1.464.789 2.824 1.378 4.03 1.68q1.814.453 2.963-.007l.015-.007h.002l.031-.014c.179-.078.334-.156.471-.248q.213-.143.412-.342.037-.038.074-.079.044-.044.087-.091.05-.06.097-.123.081-.102.159-.216a5 5 0 0 0 .538-1.061l.001-.002c.422-1.116.674-2.681.674-4.828v-5.408c0-3.103-.262-6.156-1.652-9.061-1.384-2.889-3.923-5.711-8.623-8.265-9.617-5.229-48.031-25.689-53.479-28.62v-.001c-1.841-.989-3.496-1.783-4.882-2.091zm4.1-1.454c-1.233-.397-2.172-.456-2.857-.184a1.8 1.8 0 0 0-.39.211l-.04.029-.044.023-.009.003.296.067v.018c1.256.362 2.62 1 3.999 1.722l.686.363v.001c5.421 2.923 43.865 23.396 53.484 28.623 4.921 2.675 7.715 5.709 9.26 8.936 1.537 3.212 1.799 6.537 1.799 9.708v5.408c0 2.188-.254 3.916-.733 5.248l.103-.054.233-.14c1.153-.777 2.049-2.68 2.049-6.755V224c0-3.103-.261-6.156-1.651-9.061-1.383-2.889-3.924-5.711-8.623-8.265-9.625-5.231-48.033-25.684-53.48-28.621-1.488-.801-2.865-1.479-4.082-1.872m174.959 39.325c.137-.008.275.004.412.026l.017.002c.217.037.433.107.639.203h.007l.081.044.099.051-.001.001 23.191 12.731.005.002c.664.37 1.236.952 1.64 1.582.399.623.681 1.37.666 2.092-.016.751-.367 1.424-1.074 1.708-.418.167-.872.16-1.317.037a3.2 3.2 0 0 1-.735-.305l-23.191-13.008-.002-.001-.056-.034-2.438-1.369h1.078l-.032-.048c-.346-.573-.584-1.257-.572-1.922.013-.68.303-1.326.939-1.632.103-.05.209-.084.316-.111l.056-.014.083-.016q.084-.014.169-.019zm.02 1.51c-.006.003-.02.011-.038.044a.6.6 0 0 0-.055.269c-.005.306.112.712.356 1.116.243.402.572.733.903.92l.494.279 22.691 12.73.003.001c.179.101.327.153.444.178a.55.55 0 0 0 .299 0 .13.13 0 0 0 .071-.06.6.6 0 0 0 .061-.284c.007-.334-.132-.789-.429-1.252-.292-.457-.691-.849-1.107-1.08v-.001l-23.022-12.639h-.007l-.17-.095c-.24-.133-.388-.143-.458-.135q-.032.006-.036.009m-48.896-8.31c.605-.292 1.295-.163 1.884.164h.001l23.195 12.734.003.002c.666.37 1.238.952 1.642 1.582l.059.1c.368.603.624 1.309.61 1.996-.01.465-.148.9-.42 1.231l.538.303h-.868a1.7 1.7 0 0 1-.324.174c-.653.261-1.396.101-2.047-.268v-.001l-23.19-13.006-.002-.002c-.596-.338-1.098-.872-1.447-1.45-.347-.573-.586-1.258-.573-1.923l.001-.002v-.001c.013-.68.303-1.327.938-1.633m1.158 1.48c-.338-.188-.492-.131-.505-.126-.006.003-.02.011-.038.044a.6.6 0 0 0-.054.263l.004.119c.022.289.139.645.353.999.242.401.569.732.899.919l23.192 13.01.033.018c.408.221.644.191.716.163a.13.13 0 0 0 .07-.062.6.6 0 0 0 .063-.284c.007-.333-.132-.787-.427-1.248-.287-.447-.677-.832-1.082-1.065l-.024-.013-23.196-12.735zm-1.158-20.668c.607-.292 1.299-.162 1.889.166l36.281 20.222h-.001c.666.37 1.239.951 1.643 1.582.344.538.6 1.167.654 1.793q.014.151.011.303c-.016.751-.368 1.424-1.075 1.708-.653.261-1.396.101-2.047-.268v-.001l-36.274-20.495v-.001c-.596-.337-1.098-.872-1.447-1.449-.347-.574-.586-1.259-.573-1.924l.001-.002v-.001c.013-.68.303-1.326.938-1.633m1.158 1.481c-.338-.189-.492-.132-.505-.126-.006.003-.02.011-.038.044a.6.6 0 0 0-.054.262l.004.12c.022.288.139.644.353.999.243.401.571.733.902.92l36.272 20.496c.431.242.68.21.753.18a.13.13 0 0 0 .07-.061.6.6 0 0 0 .062-.284 1.6 1.6 0 0 0-.058-.431 2.9 2.9 0 0 0-.371-.817c-.292-.457-.692-.85-1.107-1.081h-.001zm125.075-31.198c.95-.378 2.03-.223 3.063.11 1.049.338 2.187.904 3.325 1.517h.001c4.119 2.221 39.942 22.184 47.218 26.137 3.768 2.05 5.922 4.383 7.116 6.877 1.187 2.479 1.386 5.04 1.386 7.459v3.373c0 3.365-.769 5.518-2.436 6.407l-.001.001-2.17 1.152-.006-.01a4 4 0 0 1-.479.25l.001.001-.055.025-.039.018c-.941.376-2.001.326-3.064.06-1.068-.267-2.211-.77-3.37-1.395-2.238-1.205-12.03-6.795-22.234-12.589-10.221-5.804-20.856-11.812-24.815-13.872l-.403-.21v-.014c-3.855-2.104-5.837-4.656-6.828-7.258-.885-2.323-.96-4.638-.964-6.55v-4.424c0-2.748.522-4.575 1.741-5.455l.039-.028.042-.023.474-.257.043-.023.045-.018.064-.022 1.772-.957q.252-.17.532-.282zm-.391 2.67c-.621-.139-1.089-.123-1.439.01l-.005-.011-.328.178c-.559.427-1.091 1.548-1.091 4.218v4.426c.006 1.886.081 3.954.866 6.014.883 2.316 2.694 4.687 6.521 6.678l.405.21v.011c4.27 2.251 14.581 8.075 24.46 13.684 10.223 5.805 19.985 11.38 22.203 12.574h.001c1.106.596 2.125 1.036 3.021 1.26s1.599.214 2.134.004l.027-.011.022-.01q.182-.078.322-.17c.367-.251.712-.671.977-1.374.308-.819.498-1.989.498-3.608v-3.373c0-2.351-.2-4.639-1.24-6.811a11 11 0 0 0-.751-1.317c-1.13-1.696-2.907-3.349-5.723-4.879-7.347-3.996-43.063-23.901-47.213-26.134l-.001-.001c-1.299-.701-2.464-1.26-3.447-1.519zm2.994-1.132c-.89-.287-1.538-.324-1.996-.163.91.288 1.879.745 2.853 1.254l.522.278c4.117 2.219 39.942 22.184 47.218 26.137l.688.388c2.218 1.296 3.827 2.699 4.987 4.178l.039.05q.319.41.593.83l.048.072q.389.605.694 1.223l.073.145c1.187 2.48 1.386 5.042 1.386 7.461v3.373c0 1.425-.14 2.605-.413 3.568.723-.613 1.314-1.99 1.314-4.859v-3.373c0-2.351-.199-4.639-1.238-6.811-1.033-2.157-2.934-4.277-6.481-6.206-6.435-3.497-34.574-19.168-44.293-24.533l-2.92-1.602c-1.13-.608-2.165-1.118-3.074-1.41M134.453 96.917c.951-.378 2.031-.223 3.064.11 1.048.338 2.186.904 3.325 1.517l15.672 8.466c7 3.785 14.398 7.789 18.056 9.777v.001c3.768 2.049 5.923 4.382 7.118 6.876 1.186 2.479 1.385 5.04 1.385 7.459v60.654c0 3.364-.769 5.518-2.435 6.407l-.002.001-2.171 1.152-.001-.002a4 4 0 0 1-.479.25l-.053.026-.02.009-.019.008c-.942.376-2.003.327-3.066.061-1.067-.267-2.21-.771-3.369-1.395-4.501-2.425-25.597-14.43-33.556-18.571l-.102-.053-.006-.006c-4.052-2.134-6.11-4.75-7.127-7.419-.885-2.323-.959-4.638-.964-6.55V103.99c0-2.748.522-4.575 1.741-5.455l.039-.028.042-.023.474-.257.043-.023.046-.018.016-.006 1.816-.981q.252-.17.531-.282zm-.391 2.67c-.621-.14-1.088-.123-1.438.01l-.002-.003-.327.178c-.56.427-1.092 1.548-1.092 4.218v61.707c.006 1.886.081 3.954.866 6.014.828 2.171 2.471 4.391 5.827 6.301l.695.377.102.053.004.004c8.019 4.181 29.089 16.166 33.472 18.527 1.106.597 2.126 1.037 3.022 1.261s1.598.214 2.132.005l.029-.013.01-.005.012-.004a2 2 0 0 0 .321-.17c.368-.251.712-.671.977-1.374.308-.819.498-1.99.498-3.609v-60.653c0-2.351-.199-4.64-1.238-6.812q-.277-.579-.644-1.153a11 11 0 0 0-.601-.851l-.325-.399q-.37-.435-.809-.863c-1.037-1.012-2.373-1.998-4.1-2.937a19019 19019 0 0 0-33.724-18.24v-.001c-1.3-.701-2.465-1.26-3.448-1.519zm2.995-1.132c-.898-.29-1.55-.325-2.009-.16 1.077.34 2.239.916 3.391 1.537 4.138 2.226 26.413 14.268 33.729 18.243l.687.388q.996.583 1.833 1.192l.061.046q.242.177.473.356l.09.073q.207.163.404.328.071.06.141.122.153.13.299.263l.198.181a17 17 0 0 1 .645.641 11 11 0 0 1 .389.427q.09.102.177.207.095.113.185.225.088.109.172.218l.126.168q.104.139.202.278l.082.119q.113.164.219.33l.028.044q.121.19.233.381l.067.119q.22.383.407.772c1.187 2.479 1.386 5.042 1.386 7.461v60.653q-.001 1.104-.113 2.018l-.032.235-.023.163q-.025.164-.054.32l-.017.094q-.073.375-.168.713l-.006.026c.722-.613 1.314-1.99 1.314-4.859v-60.654c0-2.351-.199-4.64-1.239-6.812-.968-2.022-2.699-4.011-5.834-5.841l-.646-.365a18756 18756 0 0 0-33.723-18.24c-1.131-.608-2.166-1.117-3.074-1.41m74.113-56.916c1.458-.577 3.163-.355 4.898.204 1.752.564 3.667 1.517 5.619 2.568 7.087 3.819 86.961 46.407 99.519 53.234 6.392 3.473 10 7.402 11.992 11.564 1.985 4.147 2.326 8.447 2.326 12.576v56.62c0 5.756-1.323 9.152-3.894 10.529l-.002.002-3.73 1.979-.003-.006a5 5 0 0 1-.786.416l-.078.041-1.094.568v-.245c-1.212.238-2.536.125-3.905-.217-1.771-.443-3.688-1.285-5.66-2.348-7.659-4.129-85.586-46.7-99.232-53.796l-.405-.21v-.012c-6.702-3.586-10.083-7.933-11.759-12.333-1.484-3.894-1.612-7.781-1.621-11.053V53.192c0-4.707.904-7.586 2.764-8.931l.04-.029.043-.023.815-.44.043-.023.044-.018.02-.008 3.211-1.735a4.3 4.3 0 0 1 .829-.444zm-.749 3.563c-1.126-.25-2.048-.241-2.782.038l-.002-.004-.666.36c-1.199.89-2.116 3.06-2.116 7.696v57.065c0 3.573-.059 7.732 1.522 11.881 1.567 4.112 4.776 8.278 11.455 11.751l.403.211v.008c14.719 7.692 91.288 49.52 98.848 53.596 1.919 1.034 3.713 1.812 5.313 2.213 1.606.401 2.946.404 4.012-.021l.029-.011.002-.001.025-.013.024-.011c.239-.103.449-.21.637-.338l.003-.002c.745-.503 1.398-1.326 1.881-2.615.421-1.121.714-2.567.834-4.409q.059-.915.059-1.964v-56.621c0-4.062-.341-8.089-2.179-11.929-1.831-3.824-5.186-7.54-11.355-10.893-12.559-6.828-92.405-49.406-99.514-53.232-2.402-1.293-4.588-2.347-6.432-2.755zm5.187-1.931c-1.627-.525-2.917-.621-3.886-.238h-.001a2.8 2.8 0 0 0-.564.307l-.037.026-.04.022-.55.296q.11.02.218.043c2.071.461 4.426 1.61 6.817 2.898 7.088 3.819 86.964 46.408 99.521 53.235 6.391 3.473 10 7.402 11.992 11.564 1.985 4.146 2.325 8.447 2.325 12.576v56.62q0 1.049-.058 1.988c-.123 1.991-.439 3.621-.933 4.935v.001a9 9 0 0 1-.176.431l.686-.363c1.77-.948 3.102-3.522 3.102-9.207v-56.62c0-4.061-.341-8.089-2.178-11.928-1.831-3.824-5.186-7.54-11.356-10.894-12.559-6.828-92.403-49.4-99.514-53.231-1.943-1.047-3.756-1.942-5.368-2.461m69.644 101.937c.602-.29 1.287-.164 1.873.158l27.882 14.785.007.003.007.003.06.037.03.016.005.005c.468.278.887.659 1.229 1.085q.177.22.326.451c.399.624.679 1.37.664 2.092-.014.674-.3 1.283-.869 1.606l2.274 2.275-4.374-2.364q-.07-.034-.139-.071l-27.877-15.061-.007-.004-.006-.004c-.596-.337-1.099-.872-1.448-1.449a4 4 0 0 1-.338-.686 3.3 3.3 0 0 1-.239-1.245c.013-.68.304-1.325.94-1.632m1.162 1.484c-.336-.188-.491-.133-.505-.126-.006.003-.019.01-.037.044a.6.6 0 0 0-.056.268c-.003.168.031.365.103.577q.088.26.25.532c.243.401.57.733.901.92l23.347 12.615-.235-.236 4.761 2.68c.431.242.679.209.752.18a.13.13 0 0 0 .071-.061.6.6 0 0 0 .061-.284c.007-.334-.132-.789-.429-1.252a3.6 3.6 0 0 0-.336-.444 3 3 0 0 0-.762-.625l-.092-.051-.001-.001-27.779-14.729zm-31.512-31.305c.607-.293 1.3-.163 1.889.166l59.4 31.497.007.003.007.004c.666.37 1.238.951 1.642 1.582.399.624.68 1.37.665 2.092-.012.565-.215 1.086-.616 1.429a1.6 1.6 0 0 1-.464.283c-.648.259-1.384.102-2.032-.26v.001l-59.407-31.78-.008-.003-.007-.005c-.596-.337-1.099-.872-1.449-1.45-.347-.573-.586-1.258-.571-1.925.014-.636.27-1.245.825-1.571q.057-.033.119-.063m1.153 1.48c-.339-.188-.494-.131-.506-.126a.1.1 0 0 0-.032.039.6.6 0 0 0-.054.267c-.006.306.111.714.356 1.119.243.402.572.733.903.92l59.391 31.771.014.007c.431.243.68.209.753.18l.031-.018a.2.2 0 0 0 .032-.038.6.6 0 0 0 .063-.285c.007-.333-.133-.787-.43-1.251-.293-.456-.693-.85-1.107-1.081h-.001l-59.4-31.496zm-39.626-8.674c.606-.293 1.298-.163 1.887.166l-.001.001 59.402 31.496.008.004.006.003c.664.371 1.235.951 1.639 1.582.4.623.682 1.369.667 2.091-.012.558-.21 1.073-.6 1.417l-.041.035q-.038.032-.078.061a1.6 1.6 0 0 1-.36.198c-.647.259-1.383.102-2.03-.259l-59.407-31.778-.016-.008c-.597-.337-1.097-.873-1.446-1.45-.347-.574-.586-1.258-.574-1.924.011-.537.196-1.052.586-1.396q.157-.14.358-.239m.647 1.355-.011.007-.021.032a.6.6 0 0 0-.056.269c-.007.304.11.71.356 1.115.243.401.572.733.903.921h-.001l59.393 31.77.007.005.008.004c.43.243.678.21.75.181a.14.14 0 0 0 .058-.046l.01-.013a.6.6 0 0 0 .061-.284c.007-.334-.131-.789-.428-1.252-.292-.456-.692-.848-1.107-1.079l-59.402-31.497-.014-.008c-.337-.188-.492-.131-.506-.125m68.956 7.374.09.005c.345.025.691.138 1.007.312l27.882 14.785.007.004.006.002c.666.371 1.238.953 1.642 1.583.399.624.68 1.37.665 2.092-.009.423-.124.821-.35 1.138a1.5 1.5 0 0 1-.202.232l-.053.049-.016.014q-.09.078-.194.142l-.024.014-.035.023 2.284 2.284-32.395-17.504-.007-.004-.006-.004c-.596-.337-1.098-.872-1.447-1.449a4 4 0 0 1-.543-1.469l-.004-.037a3 3 0 0 1-.027-.418v-.007l.034-1.763.46.46q.185-.196.449-.325c.249-.12.512-.166.777-.159m.378 1.639c-.338-.189-.493-.132-.505-.126-.006.003-.019.01-.037.042a.6.6 0 0 0-.053.264l-.002.05.001.028c.014.295.131.667.355 1.038.243.401.571.733.901.92l23.333 12.606-.257-.258 4.588 2.598.202.109.01.006c.431.243.68.21.753.181a.13.13 0 0 0 .05-.036l.017-.021a.6.6 0 0 0 .062-.285c.007-.334-.132-.789-.429-1.252-.292-.456-.692-.849-1.107-1.08l-27.868-14.776zm-30.804-31.332q.066 0 .132.003c.226.013.451.068.669.151q.196.074.38.175l59.401 31.497.006.003.007.004c.666.37 1.238.951 1.642 1.582.399.624.68 1.37.665 2.092-.013.602-.242 1.153-.696 1.494a1 1 0 0 1-.075.051l-.042.029q-.122.077-.264.134c-.648.259-1.383.102-2.031-.26v.001l-59.408-31.78-.007-.004-.007-.004c-.597-.338-1.099-.873-1.448-1.45-.347-.573-.586-1.258-.573-1.923l.001-.002c.008-.34.085-.67.238-.954a2 2 0 0 1 .205-.298 1.6 1.6 0 0 1 .496-.378c.228-.11.468-.16.709-.163m-.055 1.514c-.006.003-.02.01-.038.042a.6.6 0 0 0-.054.267c-.006.306.112.714.357 1.12.208.342.477.634.757.828l.049.031q.048.032.096.06l59.391 31.771.007.003.008.004c.427.241.675.21.75.181a.13.13 0 0 0 .069-.061.56.56 0 0 0 .063-.285c.007-.333-.133-.787-.43-1.251-.293-.456-.693-.85-1.107-1.081h-.001l-59.4-31.496-.013-.008a1.1 1.1 0 0 0-.326-.128.35.35 0 0 0-.178.003m-38.7-8.551c.494-.09 1.015.045 1.473.3l-.001.001 59.402 31.496.007.004.007.004c.664.37 1.235.951 1.639 1.581.399.624.682 1.37.667 2.092-.016.751-.367 1.424-1.074 1.708-.406.163-.846.161-1.278.049a3.2 3.2 0 0 1-.757-.309L217.527 85.24l-.006-.004-.008-.005c-.597-.337-1.098-.873-1.448-1.45-.346-.574-.585-1.258-.573-1.923.013-.68.304-1.325.94-1.632q.204-.097.419-.134m.238 1.485c-.006.003-.019.01-.037.044a.6.6 0 0 0-.056.268c-.007.305.11.71.356 1.116.243.401.572.733.903.92h-.001l59.392 31.771.008.005.008.004c.134.076.251.123.35.153.216.066.347.046.397.026a.13.13 0 0 0 .07-.061.56.56 0 0 0 .062-.284c.007-.334-.132-.789-.429-1.252-.29-.454-.687-.845-1.1-1.076L217.604 81.71l-.007-.003-.007-.004c-.252-.14-.403-.145-.469-.136-.019.003-.029.009-.032.01m.234 12.877a2 2 0 0 1 .233.034q.054.01.11.023l.069.02q.308.087.593.245l-.001.001 27.868 14.776.007.003.006.004c.666.371 1.239.952 1.643 1.582.399.624.68 1.37.665 2.092-.016.751-.368 1.425-1.076 1.708a1.93 1.93 0 0 1-1.025.102 3 3 0 0 1-1.027-.368l-23.308-12.594.258.257-4.683-2.648-.134-.072-.006-.003-.006-.004c-.563-.318-1.04-.813-1.385-1.352l-2.425-2.416 1.845.996a3 3 0 0 1-.055-.601c.013-.68.304-1.325.94-1.632.286-.138.59-.18.894-.153m-.106 1.497a.3.3 0 0 0-.124.01c-.006.003-.02.01-.038.044a.6.6 0 0 0-.055.268c-.005.306.112.712.356 1.116.239.395.561.72.886.91l27.878 15.063.006.003.007.004c.213.121.381.173.506.191a.5.5 0 0 0 .237-.011.13.13 0 0 0 .069-.062.6.6 0 0 0 .063-.284c.007-.334-.133-.789-.429-1.252-.292-.456-.692-.848-1.107-1.079l-27.868-14.778-.079-.041a.9.9 0 0 0-.308-.102m-.004-28.712c.379-.183.791-.2 1.191-.107l.012.003c.24.055.475.15.696.274h-.001l27.868 14.776.014.008c.666.37 1.238.952 1.642 1.582.399.624.68 1.37.665 2.092-.016.75-.368 1.424-1.075 1.708-.458.183-.959.156-1.443-.002a3.3 3.3 0 0 1-.598-.26v.001l-23.332-12.607.256.257-4.708-2.662-.094-.051-.006-.003-.006-.004c-.561-.317-1.037-.81-1.382-1.348l-2.416-2.412 1.832.988a3 3 0 0 1-.055-.601c.013-.68.304-1.325.94-1.632m.788 1.344a.3.3 0 0 0-.124.01c-.006.004-.019.011-.037.044a.6.6 0 0 0-.056.269c-.007.304.11.71.356 1.115.237.391.556.716.879.906l.007.004 27.878 15.064.007.003.006.004c.16.09.295.142.405.17.181.046.293.026.338.008a.13.13 0 0 0 .07-.061.56.56 0 0 0 .062-.283c.007-.334-.132-.79-.429-1.253-.292-.456-.691-.848-1.106-1.08l-27.869-14.777-.072-.038a1 1 0 0 0-.315-.105" clip-rule="evenodd"/>
</svg>
