<svg xmlns="http://www.w3.org/2000/svg" width="550" height="550" fill="none" viewBox="0 0 550 550">
    <g stroke="#3F4250" clip-path="url(#a)">
        <path stroke-miterlimit="10" d="M381.11 304.803c.339 2.014.52 4.052.52 6.114 0 .809-.037 1.614-.087 2.414.054.8.087 1.605.087 2.414v.02c0 .107 0 .627-.033 1.49 0 .053-.004.107-.008.16-.083 1.82-.326 5.05-1.044 9.254l1.795 2.03c17.439-6.799 32.948-15.207 45.923-24.861-13.619-10.624-30.303-19.795-49.261-27.049a92.732 92.732 0 0 1 2.628 21.892 36.31 36.31 0 0 1-.52 6.114zM76.99 372.812c0-16.371 5.334-32.226 15.85-47.12 5.434-7.695 12.126-14.96 20.01-21.739-9.283-7.579-17.06-15.781-23.236-24.527-10.702-15.154-16.128-31.281-16.128-47.937 0-15.067 4.44-29.701 13.207-43.572-50.037 29.116-81.132 69.7-81.132 114.526 0 44.826 33.909 88.992 87.877 118.318-.198-.277-.4-.553-.594-.83-10.516-14.893-15.85-30.749-15.85-47.119h-.005Zm198.011 95.465c-36.979 0-72.86-4.341-106.641-12.897-17.877-4.53-34.764-10.133-50.524-16.755 34.887 29.227 92.334 48.345 157.165 48.345 64.832 0 122.278-19.114 157.165-48.345-15.76 6.622-32.642 12.225-50.523 16.755-33.782 8.556-69.663 12.897-106.642 12.897Zm185.385-188.851c-6.18 8.75-13.957 16.952-23.236 24.527 7.885 6.779 14.577 14.04 20.01 21.739 10.517 14.894 15.851 30.749 15.851 47.12 0 16.37-5.334 32.226-15.851 47.119-.194.277-.396.553-.594.83 53.969-29.33 87.878-71.511 87.878-118.318 0-46.806-31.1-85.41-81.132-114.526 8.767 13.871 13.206 28.505 13.206 43.572 0 16.656-5.425 32.783-16.127 47.937z"/>
        <path stroke-miterlimit="10" d="M117.212 300.347c5.578-4.431 11.684-8.643 18.31-12.608 11.391-6.824 23.929-12.703 37.342-17.592 5.825-18.145 15.244-28.867 15.244-28.867 4.308-5.545 10.146-10.599 17.196-14.989 10.521-12.584 28.938-25.378 53.111-29.549l-44.508-50.42c-43.684 6.044-83.319 18.429-116.012 35.427-12.084 15.088-18.85 31.95-18.85 49.732 0 25.753 14.188 49.575 38.167 68.862zm51.192 16.953c-.041-1.003-.033-1.551-.033-1.551 0-.809.037-1.614.087-2.414a35.83 35.83 0 0 1-.087-2.413c0-2.063.178-4.106.52-6.115a36.866 36.866 0 0 1-.52-6.114 92.77 92.77 0 0 1 2.628-21.891c-18.957 7.253-35.642 16.424-49.261 27.048 13.557 10.083 29.875 18.809 48.271 25.761-1.163-5.669-1.502-10.005-1.596-12.216v-.091zm41.092-175.974-14.164-16.045c-36.079 9.563-66.424 25.414-87.061 45.189 18.434-8.483 38.539-15.501 60.088-20.959 13.404-3.395 27.138-6.122 41.137-8.185Zm11.067 4.129 44.475 50.384c3.23-.33 6.552-.508 9.959-.508 32.359 0 56.878 15.637 69.688 30.96 7.051 4.389 12.893 9.448 17.2 14.988 0 0 9.419 10.723 15.245 28.868 13.412 4.885 25.951 10.768 37.342 17.592 6.626 3.969 12.732 8.177 18.31 12.608 23.978-19.287 38.167-43.109 38.167-68.862 0-17.782-6.771-34.648-18.851-49.731-47.392-24.639-109.364-39.583-177.101-39.583-18.644 0-36.85 1.135-54.438 3.289z"/>
        <path stroke-miterlimit="10" d="M275 136.61c36.978 0 72.86 4.34 106.641 12.897 21.549 5.458 41.658 12.476 60.087 20.959C407.163 137.34 345.351 115.23 275 115.23c-26.021 0-50.871 3.025-73.607 8.512l14.708 16.659c19.205-2.52 38.889-3.795 58.899-3.795zm157.697 170.838a175.163 175.163 0 0 1-15.748 10.59c-9.497 5.69-19.779 10.74-30.691 15.113l18.673 21.148a27.59 27.59 0 0 1 14.96-4.389c15.31 0 27.724 12.41 27.724 27.72 0 15.311-12.41 27.725-27.724 27.725-15.315 0-27.721-12.41-27.721-27.725 0-7.797 3.222-14.836 8.404-19.873l-19.845-22.481c-.771.289-1.543.577-2.322.858-3.107 11.094-9.205 25.241-21.174 38.575-3.35 3.829-7.471 7.39-12.245 10.62-10.364 17.146-37.787 29.4-69.993 29.4-32.205 0-59.641-12.262-70.001-29.412-4.526-3.066-8.474-6.428-11.725-10.034a60.65 60.65 0 0 1-.491-.549c-11.981-13.342-18.083-27.494-21.19-38.596-13.858-5.013-26.796-11.065-38.546-18.104-5.616-3.362-10.868-6.898-15.748-10.59-21.887 18.528-34.747 41.067-34.747 65.359 0 19.606 8.38 38.077 23.12 54.212 46.303 22.312 105.239 35.692 169.328 35.692s123.029-13.384 169.328-35.692c14.741-16.135 23.121-34.602 23.121-54.212 0-24.292-12.86-46.835-34.747-65.359z"/>
        <path stroke-linejoin="round" stroke-width="2" d="M275.001 486.966c-64.831 0-122.278-19.114-157.165-48.345a306.59 306.59 0 0 1-15.459-6.997c8.94 9.609 20.039 18.401 33.15 26.256 37.301 22.341 86.834 34.644 139.474 34.644 52.64 0 102.178-12.303 139.474-34.644 13.112-7.851 24.21-16.647 33.151-26.256a309.032 309.032 0 0 1-15.459 6.997c-34.888 29.227-92.334 48.345-157.166 48.345Zm102.132-216.819a94.074 94.074 0 0 1 1.873 6.651c18.958 7.253 35.642 16.424 49.261 27.048a146.165 146.165 0 0 0 4.522-3.498c-5.578-4.432-11.684-8.644-18.31-12.609-11.391-6.824-23.929-12.703-37.342-17.592zm-206.139 6.651a94.074 94.074 0 0 1 1.873-6.651c-13.413 4.885-25.951 10.768-37.342 17.592-6.626 3.969-12.732 8.177-18.31 12.609a158.062 158.062 0 0 0 4.522 3.498c13.619-10.624 30.303-19.795 49.261-27.048zm-53.695 30.654a147.656 147.656 0 0 1-4.448-3.499c-7.884 6.779-14.576 14.04-20.01 21.739-10.516 14.894-15.85 30.749-15.85 47.12 0 16.37 5.334 32.226 15.85 47.119.194.277.396.553.594.83a283.363 283.363 0 0 0 12.233 6.263c-14.741-16.136-23.12-34.603-23.12-54.212 0-24.293 12.86-46.836 34.746-65.36zm355.707 65.36c0-16.371-5.335-32.226-15.851-47.12-5.434-7.695-12.126-14.96-20.01-21.739a160.09 160.09 0 0 1-4.448 3.499c21.887 18.529 34.747 41.071 34.747 65.36 0 19.605-8.379 38.076-23.12 54.212a281.199 281.199 0 0 0 12.232-6.263c.198-.277.401-.553.594-.83 10.517-14.893 15.851-30.749 15.851-47.119zM209.497 141.326a410.707 410.707 0 0 0-41.138 8.185c-21.548 5.458-41.657 12.476-60.087 20.959-3.791 3.634-7.257 7.401-10.372 11.288 32.697-16.998 72.333-29.384 116.012-35.428l-4.415-5zM275 136.61c-20.009 0-39.693 1.275-58.898 3.796l4.459 5.054c17.588-2.154 35.795-3.289 54.439-3.289 67.736 0 129.709 14.948 177.101 39.583-3.111-3.887-6.576-7.654-10.368-11.288-18.434-8.479-38.538-15.501-60.087-20.959-33.781-8.561-69.663-12.897-106.641-12.897z"/>
        <path stroke-linejoin="round" stroke-width="2" d="M528.097 237.372c-13.937-19.733-33.848-37.436-59.18-52.611a272.615 272.615 0 0 0-13.285-7.455 111.151 111.151 0 0 1 4.757 6.242 106.367 106.367 0 0 1 2.921 4.365c50.037 29.115 81.133 69.7 81.133 114.526 0 44.826-33.91 88.992-87.878 118.318a283.43 283.43 0 0 1-12.233 6.262c-46.303 22.312-105.239 35.692-169.328 35.692s-123.029-13.384-169.328-35.692a281.268 281.268 0 0 1-12.233-6.262C39.468 391.431 5.561 349.25 5.561 302.443c0-46.806 31.096-85.41 81.133-114.526a100.973 100.973 0 0 1 2.92-4.369 111.203 111.203 0 0 1 4.758-6.242 271.07 271.07 0 0 0-13.285 7.455c-25.336 15.175-45.247 32.874-59.18 52.611C7.37 257.952 0 279.843 0 302.443c0 22.601 7.369 44.492 21.904 65.071 13.936 19.734 33.847 37.433 59.179 52.611a279.78 279.78 0 0 0 21.293 11.503 307.315 307.315 0 0 0 15.459 6.997c15.76 6.622 32.642 12.225 50.523 16.755 33.786 8.556 69.663 12.897 106.642 12.897s72.86-4.341 106.642-12.897c17.876-4.53 34.763-10.133 50.523-16.755a305.701 305.701 0 0 0 15.459-6.997 279.794 279.794 0 0 0 21.293-11.503c25.336-15.174 45.247-32.873 59.18-52.611C542.627 346.935 550 325.04 550 302.443c0-22.596-7.369-44.491-21.903-65.071Z"/>
        <path stroke-linejoin="round" stroke-width="2" d="M379.99 329.607c.784-.297 1.568-.594 2.344-.899l-1.795-2.03a91.784 91.784 0 0 1-.553 2.929zm-104.989 78.822c-22.757 0-43.126-6.122-56.778-15.764-4.815-2.191-9.246-4.65-13.223-7.34 10.356 17.155 37.787 29.412 70.001 29.412 32.214 0 59.629-12.253 69.993-29.4-3.981 2.695-8.416 5.158-13.239 7.344-13.652 9.63-34.009 15.744-56.754 15.744z"/>
        <path stroke-linejoin="round" stroke-width="2" d="M218.223 392.669c13.652 9.642 34.02 15.764 56.778 15.764 22.757 0 43.101-6.114 56.753-15.744-15.644 7.105-35.345 11.346-56.753 11.346-21.409 0-41.129-4.245-56.778-11.362zm-48.218-63.062c.412.157.825.314 1.242.466-1.667-4.088-2.645-8.329-2.839-12.682.095 2.215.433 6.547 1.597 12.216Zm-1.6-12.307a38.06 38.06 0 0 1-.033-1.551s-.008.544.033 1.551Zm211.704 8.887a40.684 40.684 0 0 1-1.357 3.886c.417-.153.829-.309 1.242-.466.21-1.023.392-2.001.553-2.929.722-4.209.965-7.435 1.043-9.254a37.105 37.105 0 0 1-1.477 8.763z"/>
        <path stroke-linejoin="round" stroke-width="2" d="M374.938 337.368c-5.594 8.713-14.477 16.494-25.769 22.844a88.01 88.01 0 0 1-1.345.742c-19.061 10.348-44.665 16.689-72.823 16.689-28.158 0-53.762-6.337-72.823-16.689-.454-.247-.9-.495-1.345-.742-11.292-6.35-20.175-14.131-25.77-22.844a236.352 236.352 0 0 1-3.469-1.222c3.106 11.099 9.208 25.254 21.189 38.596.161.186.326.368.491.549 3.251 3.606 7.2 6.969 11.726 10.034 3.977 2.694 8.408 5.153 13.223 7.34 15.649 7.116 35.357 11.362 56.778 11.362s41.104-4.237 56.753-11.346c4.819-2.191 9.258-4.65 13.24-7.344 4.773-3.23 8.895-6.791 12.245-10.619 11.969-13.335 18.066-27.482 21.173-38.576a221.64 221.64 0 0 1-3.47 1.221zm-206.567-21.619h.322a33.52 33.52 0 0 1-.231-2.414 35.86 35.86 0 0 0-.087 2.414zm.031 1.551v.091"/>
        <path stroke-linejoin="round" stroke-width="2" d="M168.693 315.749h-.322c0 .52.012 1.035.033 1.551v.091c.194 4.357 1.172 8.598 2.839 12.682.977.363 1.968.722 2.958 1.077-2.909-4.885-4.798-10.046-5.512-15.401zm207.104 15.401c.326-.115.648-.231.974-.347l-.467-.528c-.165.293-.334.586-.507.875Zm5.832-15.401c0-.809-.037-1.613-.087-2.414a38.8 38.8 0 0 1-.231 2.414 38.295 38.295 0 0 1-2.389 9.089 43.799 43.799 0 0 1-2.615 5.437l.466.528c.664-.239 1.324-.482 1.984-.726a39.512 39.512 0 0 0 1.358-3.886 37.147 37.147 0 0 0 1.477-8.763c0-.054.004-.107.008-.161.037-.866.033-1.382.033-1.489v-.021zm-11.593 23.261c-5.574 6.341-12.976 12.047-21.805 16.89-.693.38-1.394.755-2.104 1.123-18.871 9.815-43.794 15.785-71.127 15.785s-52.257-5.97-71.128-15.785c-.709-.372-1.415-.743-2.104-1.123-8.825-4.843-16.23-10.549-21.804-16.89a263.179 263.179 0 0 1-4.902-1.642c5.595 8.713 14.478 16.494 25.77 22.844.445.251.895.499 1.345.742 19.061 10.348 44.665 16.689 72.823 16.689 28.158 0 53.762-6.337 72.823-16.689.454-.247.899-.495 1.345-.742 11.292-6.35 20.175-14.131 25.769-22.844-1.621.561-3.255 1.11-4.901 1.642Zm11.502-25.675c.053-.8.086-1.605.086-2.413 0-2.063-.177-4.105-.52-6.115a37.01 37.01 0 0 1-.495 2.414c.479 2.009.788 4.047.925 6.114z"/>
        <path stroke-linejoin="round" stroke-width="2" d="M172.474 315.749a40.432 40.432 0 0 1-3.094-8.532 37.01 37.01 0 0 1-.495-2.414 36.887 36.887 0 0 0-.52 6.115c0 .808.037 1.613.087 2.413.054.809.128 1.613.231 2.414.714 5.355 2.603 10.516 5.512 15.401a261.073 261.073 0 0 0 16.152 5.178c-8.024-6.073-14.159-13.029-17.881-20.579zm208.14-8.532a40.472 40.472 0 0 1-3.094 8.532 45.619 45.619 0 0 1-2.596 4.567 53.708 53.708 0 0 1-3.341 4.617c-3.28 4.059-7.295 7.876-11.944 11.395a261.507 261.507 0 0 0 16.152-5.178c.173-.289.342-.582.507-.875a43.395 43.395 0 0 0 2.616-5.437 38.343 38.343 0 0 0 2.389-9.089 34.1 34.1 0 0 0 .231-2.414 36.812 36.812 0 0 0-.924-6.114zm-37.175 38.93c-.033.017-.062.033-.095.045a114.105 114.105 0 0 1-3.808 1.762c-17.918 7.917-40.28 12.625-64.535 12.625-24.255 0-46.621-4.703-64.534-12.625a117.027 117.027 0 0 1-3.809-1.762c-.033-.016-.061-.033-.094-.045a279.601 279.601 0 0 1-26.603-7.137c5.574 6.341 12.975 12.047 21.804 16.89.694.38 1.395.755 2.105 1.122 18.871 9.816 43.794 15.785 71.127 15.785s52.256-5.969 71.127-15.785c.71-.371 1.416-.742 2.105-1.122 8.824-4.843 16.23-10.549 21.804-16.89a277.237 277.237 0 0 1-26.603 7.137z"/>
        <path stroke-linejoin="round" stroke-width="2" d="M343.343 346.193c.033-.017.062-.033.095-.046l-.112.025a.096.096 0 0 0 .017.021Zm-136.779-.046c.033.017.062.033.095.046.004-.009.013-.017.017-.021z"/>
        <path stroke-linejoin="round" stroke-width="2" d="M338.723 347.129c.276.272.548.549.812.825a118.109 118.109 0 0 0 3.808-1.761.076.076 0 0 0-.016-.021c-1.527.33-3.061.652-4.604.957Zm-132.048-.957-.017.021c1.246.602 2.513 1.192 3.808 1.761.268-.276.537-.553.813-.825a306.865 306.865 0 0 1-4.604-.957Z"/>
        <path stroke-linejoin="round" stroke-width="2" d="M274.999 353.301c-21.99 0-43.439-2.112-63.721-6.172a37.06 37.06 0 0 0-.813.825c17.918 7.917 40.279 12.625 64.534 12.625 24.256 0 46.621-4.704 64.535-12.625-.268-.276-.536-.553-.813-.825-20.282 4.06-41.732 6.172-63.722 6.172Z"/>
        <path stroke-linejoin="round" stroke-width="2" d="M379.002 276.798a94.074 94.074 0 0 0-1.873-6.651c-5.826-18.145-15.245-28.868-15.245-28.868 5.38 6.928 8.376 14.614 8.376 22.704 0 1.246-.079 2.48-.219 3.701a33.057 33.057 0 0 1-1.106 5.512 36.773 36.773 0 0 1-2.339 6.024 40.753 40.753 0 0 1-1.753 3.176c-2.884 4.737-6.841 9.176-11.713 13.223a73.99 73.99 0 0 1-4.423 3.392c-4.955 3.507-10.636 6.654-16.916 9.365-15.859 6.845-35.51 10.9-56.794 10.9-21.285 0-40.936-4.051-56.795-10.9-15.055-6.498-26.685-15.517-33.051-25.98a41.7 41.7 0 0 1-1.754-3.176 36.246 36.246 0 0 1-2.339-6.024 33.24 33.24 0 0 1-1.106-5.512 32.576 32.576 0 0 1-.218-3.701c0-8.09 2.995-15.776 8.375-22.704 0 0-9.419 10.723-15.245 28.868a94.612 94.612 0 0 0-1.873 6.651 92.717 92.717 0 0 0-2.628 21.891 36.406 36.406 0 0 0 1.015 8.528 40.42 40.42 0 0 0 3.095 8.532c3.721 7.55 9.856 14.506 17.88 20.579a283.54 283.54 0 0 0 20.419 5c1.951.405 3.915.788 5.895 1.155 18.434 3.417 38.023 5.261 58.33 5.261 20.306 0 39.895-1.84 58.329-5.261 1.98-.367 3.944-.755 5.896-1.155a283.512 283.512 0 0 0 20.418-5c4.654-3.519 8.668-7.336 11.944-11.395a51.893 51.893 0 0 0 3.342-4.617 46.873 46.873 0 0 0 2.595-4.567 40.472 40.472 0 0 0 3.094-8.532 36.76 36.76 0 0 0 1.015-8.528 92.717 92.717 0 0 0-2.628-21.891Z"/>
        <path stroke-linejoin="round" stroke-width="2" d="M361.885 241.279c-4.307-5.545-10.145-10.599-17.2-14.988a60.695 60.695 0 0 1 4.481 6.06c3.148 2.802 5.866 5.789 8.098 8.933 4.568 6.432 7.101 13.507 7.101 20.938 0 1.208-.074 2.405-.206 3.593a33.12 33.12 0 0 1-1.09 5.512 34.756 34.756 0 0 1-1.266 3.647 37.936 37.936 0 0 1-1.655 3.528c-2.504 4.707-6.065 9.126-10.516 13.169a66.392 66.392 0 0 1-4.274 3.561c-5.43 4.146-11.866 7.801-19.082 10.834-14.518 6.102-32.197 9.687-51.283 9.687-19.085 0-36.764-3.585-51.282-9.687-15.822-6.651-27.874-16.297-33.873-27.564a39.255 39.255 0 0 1-1.654-3.528 35.611 35.611 0 0 1-1.267-3.647 33.635 33.635 0 0 1-1.295-9.105c0-7.431 2.529-14.506 7.1-20.938 2.232-3.144 4.951-6.131 8.099-8.928a60.588 60.588 0 0 1 4.481-6.061c-7.051 4.39-12.893 9.444-17.196 14.989-5.38 6.927-8.376 14.613-8.376 22.703 0 1.246.079 2.48.219 3.701a33.158 33.158 0 0 0 1.106 5.512 36.738 36.738 0 0 0 2.339 6.024 40.636 40.636 0 0 0 1.754 3.177c6.366 10.462 17.996 19.481 33.051 25.979 15.859 6.845 35.51 10.9 56.794 10.9 21.285 0 40.936-4.051 56.795-10.9 6.279-2.71 11.961-5.858 16.916-9.365a73.645 73.645 0 0 0 4.422-3.392c4.873-4.043 8.833-8.486 11.713-13.222a41.375 41.375 0 0 0 1.754-3.177 36.246 36.246 0 0 0 2.339-6.024 33.24 33.24 0 0 0 1.106-5.512c.14-1.225.218-2.459.218-3.701 0-8.09-2.995-15.776-8.375-22.703z"/>
        <path stroke-linejoin="round" stroke-width="2" d="M357.265 241.28c-2.232-3.144-4.951-6.131-8.099-8.933a46.173 46.173 0 0 1 2.344 4.052l.062.124c.115.231.231.462.342.689a32.72 32.72 0 0 1 1.663 4.068 29.745 29.745 0 0 1 1.543 9.414c0 4.106-.862 8.091-2.484 11.899a35.654 35.654 0 0 1-2.327 4.518c-.115.19-.235.375-.355.565a39.809 39.809 0 0 1-2.034 2.929c-2.438 3.202-5.45 6.214-8.948 8.99a64.19 64.19 0 0 1-4.522 3.276c-11.35 7.517-26.615 12.872-43.873 14.91-5.042.594-10.248.908-15.579.908-5.33 0-10.537-.314-15.578-.908-25.588-3.02-46.798-13.334-57.348-27.176a40.607 40.607 0 0 1-2.034-2.929c-.12-.186-.239-.375-.355-.565a35.517 35.517 0 0 1-2.327-4.518c-1.621-3.804-2.483-7.789-2.483-11.899 0-3.222.54-6.37 1.551-9.414.087-.264.173-.529.268-.788.31-.854.656-1.7 1.036-2.534.008-.012.012-.029.02-.041a47.303 47.303 0 0 1 .698-1.44c.012-.02.02-.045.033-.066a47.086 47.086 0 0 1 2.347-4.059c-3.148 2.801-5.867 5.788-8.099 8.928-4.567 6.432-7.1 13.507-7.1 20.938 0 1.208.074 2.405.206 3.593a33.22 33.22 0 0 0 1.089 5.512c.351 1.23.776 2.447 1.267 3.647a38.184 38.184 0 0 0 1.654 3.528c5.999 11.267 18.05 20.913 33.873 27.564 14.518 6.102 32.197 9.687 51.282 9.687 19.086 0 36.765-3.585 51.283-9.687 7.216-3.033 13.648-6.688 19.082-10.834a66.392 66.392 0 0 0 4.274-3.561c4.451-4.039 8.012-8.462 10.516-13.169a38.992 38.992 0 0 0 1.655-3.528c.491-1.2.911-2.413 1.266-3.647a33.426 33.426 0 0 0 1.089-5.512c.132-1.188.207-2.385.207-3.593 0-7.431-2.529-14.506-7.101-20.938z"/>
        <path stroke-linejoin="round" stroke-width="2" d="M353.579 241.28a33.345 33.345 0 0 0-1.663-4.068c-.111-.227-.227-.458-.342-.689l-.062-.124a48.544 48.544 0 0 0-2.343-4.052 60.695 60.695 0 0 0-4.481-6.06c-12.81-15.323-37.33-30.96-69.688-30.96-3.407 0-6.729.178-9.959.508a95.978 95.978 0 0 0-6.618.903c-24.172 4.171-42.59 16.965-53.11 29.549a60.695 60.695 0 0 0-4.481 6.06 47.099 47.099 0 0 0-2.347 4.06c-.013.021-.021.041-.033.066a43.41 43.41 0 0 0-.697 1.44c-.009.012-.013.029-.021.041-.384.838-.73 1.679-1.036 2.533-.095.26-.181.524-.268.788-1.011 3.045-1.551 6.189-1.551 9.415 0 4.105.862 8.091 2.484 11.899a35.778 35.778 0 0 0 2.326 4.518c.116.189.236.375.355.565a40.118 40.118 0 0 0 2.034 2.929c10.55 13.842 31.764 24.156 57.348 27.176a133.2 133.2 0 0 0 15.579.908c5.33 0 10.537-.314 15.578-.908 17.258-2.038 32.527-7.389 43.873-14.91a65.961 65.961 0 0 0 4.522-3.276c3.503-2.777 6.51-5.788 8.949-8.99a40.607 40.607 0 0 0 2.034-2.929 35.387 35.387 0 0 0 2.681-5.083c1.622-3.804 2.484-7.789 2.484-11.899 0-3.222-.532-6.37-1.543-9.415zm-47.619-18.859c-.45 4.237-3.268 8.086-7.67 11.086-1.493 1.015-3.177 1.931-5.004 2.735a37.93 37.93 0 0 1-3.07 1.184c-4.497 1.518-9.687 2.389-15.22 2.389-5.532 0-10.722-.871-15.219-2.389-8.891-3.003-15.059-8.557-15.744-15.001-.042-.396-.07-.792-.07-1.196 0-3.788 1.897-7.311 5.149-10.249.099-.086.193-.177.297-.264 3.667-3.197 8.961-5.673 15.166-6.997a48.796 48.796 0 0 1 6.593-.932 52.904 52.904 0 0 1 3.828-.145c10.624 0 19.998 3.198 25.592 8.074.099.087.198.173.297.264 3.251 2.938 5.149 6.461 5.149 10.249 0 .4-.029.8-.07 1.196z"/>
        <path stroke-linejoin="round" stroke-width="2" d="M296.578 210.266c-.112-.061-.215-.127-.326-.194a39.446 39.446 0 0 0-1.081-.581l-.017-.008c-5.421-2.777-12.459-4.456-20.154-4.456-.61 0-1.217.012-1.815.033a49.73 49.73 0 0 0-6.803.697c-4.023.697-7.703 1.869-10.872 3.404h-.012l-.124.066c-.557.272-1.101.553-1.621.845-.112.062-.219.128-.326.194-5.376 3.119-8.879 7.394-9.382 12.155.685 6.448 6.857 11.997 15.744 15.001 4.497 1.518 9.687 2.389 15.219 2.389 5.533 0 10.723-.871 15.22-2.389a37.93 37.93 0 0 0 3.07-1.184c1.827-.801 3.511-1.716 5.004-2.736 4.402-2.995 7.22-6.848 7.67-11.085-.503-4.761-4.006-9.036-9.382-12.155zm-76.016-64.811-4.46-5.054-14.708-16.659-4.171-4.728-13.644-15.455a27.835 27.835 0 0 1-4.167 3.68l11.8 13.363 4.125 4.67 14.164 16.045 4.415 5.001 44.508 50.42a96.032 96.032 0 0 1 6.617-.903l-44.475-50.384z"/>
        <path stroke-linejoin="round" stroke-width="2" d="M463.306 187.913a98.464 98.464 0 0 0-2.921-4.365 111.174 111.174 0 0 0-4.757-6.242c-9.828-12.002-22.799-22.869-38.675-32.379-37.96-22.737-88.373-35.258-141.953-35.258-27.144 0-53.47 3.218-77.783 9.345l4.171 4.728c22.737-5.488 47.587-8.512 73.607-8.512 70.352 0 132.164 22.114 166.729 55.235 3.792 3.635 7.257 7.402 10.368 11.288 12.084 15.088 18.851 31.95 18.851 49.732 0 25.753-14.189 49.575-38.168 68.862a156.641 156.641 0 0 1-4.521 3.499c-12.976 9.654-28.484 18.062-45.924 24.862a301.681 301.681 0 0 1-3.585 1.365c-.66.244-1.32.487-1.984.726-.322.116-.648.231-.974.347a262.188 262.188 0 0 1-16.152 5.178 283.54 283.54 0 0 1-20.419 5c-1.951.404-3.915.788-5.895 1.155-18.434 3.416-38.023 5.261-58.33 5.261-20.306 0-39.895-1.841-58.329-5.261-1.98-.367-3.944-.755-5.896-1.155a283.512 283.512 0 0 1-20.418-5 261.75 261.75 0 0 1-19.11-6.255c-.417-.153-.83-.309-1.242-.466-18.397-6.952-34.714-15.678-48.271-25.761a146.187 146.187 0 0 1-4.522-3.499c-23.979-19.288-38.167-43.109-38.167-68.862 0-17.782 6.77-34.648 18.85-49.732 3.111-3.886 6.577-7.653 10.373-11.288 20.636-19.774 50.981-35.625 87.061-45.189l-4.126-4.67c-21.351 5.887-41.026 14.06-58.16 24.325-15.876 9.51-28.852 20.377-38.675 32.379a109.944 109.944 0 0 0-4.757 6.242 104.895 104.895 0 0 0-2.921 4.369c-8.767 13.871-13.206 28.505-13.206 43.572 0 16.656 5.425 32.783 16.127 47.937 6.18 8.75 13.957 16.952 23.236 24.527a160.09 160.09 0 0 0 4.448 3.499c4.88 3.692 10.128 7.228 15.748 10.591 11.745 7.034 24.688 13.09 38.546 18.103 1.151.417 2.306.821 3.47 1.221 1.621.562 3.255 1.11 4.901 1.642 8.574 2.773 17.46 5.154 26.603 7.138l.111.025a265.9 265.9 0 0 0 4.605.957c20.282 4.06 41.731 6.172 63.721 6.172 21.99 0 43.44-2.112 63.722-6.172a319.904 319.904 0 0 0 4.716-.982 279.465 279.465 0 0 0 26.603-7.138 255.91 255.91 0 0 0 4.901-1.642c1.163-.4 2.319-.804 3.47-1.221.779-.28 1.547-.569 2.322-.858a234.157 234.157 0 0 0 5.537-2.133c10.913-4.373 21.19-9.423 30.691-15.112 5.615-3.363 10.868-6.899 15.748-10.591a147.656 147.656 0 0 0 4.448-3.499c9.283-7.579 17.06-15.781 23.236-24.527 10.702-15.154 16.127-31.281 16.127-47.937 0-15.067-4.439-29.701-13.206-43.572zm-54.701 174.749a2.768 2.768 0 0 1-1.84.698 2.765 2.765 0 0 1-2.084-.941l-4.105-4.65c-5.182 5.038-8.404 12.076-8.404 19.874 0 15.31 12.41 27.725 27.721 27.725 15.31 0 27.724-12.41 27.724-27.725 0-15.315-12.41-27.721-27.724-27.721a27.548 27.548 0 0 0-14.96 4.39l3.915 4.435a2.781 2.781 0 0 1-.243 3.924z"/>
        <path stroke-linejoin="round" stroke-width="2" d="m408.85 358.739-3.916-4.435-18.673-21.149c-1.823.73-3.676 1.436-5.536 2.133l19.844 22.481 4.105 4.65a2.78 2.78 0 0 0 3.924.243 2.776 2.776 0 0 0 .243-3.923zM163.238 57.004c-15.31 0-27.72 12.41-27.72 27.725 0 15.315 12.41 27.721 27.72 27.721a27.59 27.59 0 0 0 16.169-5.211 27.639 27.639 0 0 0 4.167-3.68c4.584-4.947 7.389-11.56 7.389-18.834 0-15.31-12.41-27.725-27.725-27.725v.004Z"/>
    </g>
    <defs>
        <clipPath id="a">
            <path fill="#fff" d="M0 0h550v550H0z"/>
        </clipPath>
    </defs>
</svg>
