<svg xmlns="http://www.w3.org/2000/svg" viewBox="0 0 104 104">
    <rect width="103.88" height="103.88" fill="#ba00ff" rx="21.85"/>
    <path fill="#51069d" d="M84.85 69.41a34.4 34.4 0 0 0 3.72-14.1c-1.37 4.52-5.78 7.94-9.91 9.83a27.2 27.2 0 0 1-14.72 2A31.1 31.1 0 0 1 49.74 62c-4-2.92-6.17-7.38-7.34-12.12a23.33 23.33 0 0 1 .74-14.63 32 32 0 0 1 4.15-6.64 16.64 16.64 0 0 1 5.46-4.86 25.4 25.4 0 0 1 6.91-2.93 15.6 15.6 0 0 1 6 0 37.6 37.6 0 0 0-13.69-2.57h-.56a28.6 28.6 0 0 0-15.1 11.08A34.88 34.88 0 0 0 31 54.57a40.9 40.9 0 0 0 4.25 12.86A19.45 19.45 0 0 0 44.6 76c8 3.66 18.07 4.61 26.47 1.79a24.07 24.07 0 0 0 14.15-12.22c.39-1.31.75-2.63 1.11-3.94a.42.42 0 0 1 .82.22c-.69 2.52-1.41 5.08-2.3 7.56"/>
    <path fill="#672cbc" d="M59.66 20.83a25.4 25.4 0 0 0-6.91 2.93 16.64 16.64 0 0 0-5.46 4.86 32 32 0 0 0-4.15 6.64 23.33 23.33 0 0 0-.74 14.63c1.17 4.74 3.31 9.2 7.34 12.12a31.1 31.1 0 0 0 14.2 5.17 27.2 27.2 0 0 0 14.72-2c4.13-1.89 8.54-5.31 9.91-9.83v-1.54a35.5 35.5 0 0 0-23-32.91 15.6 15.6 0 0 0-5.91-.07"/>
    <path fill="#a990fc" d="M56.81 110.15a.17.17 0 0 1 .32.06c.14 1.67.13 3.35.17 5a17 17 0 0 0 2.38 0 15 15 0 0 0 2.46-.34 74.4 74.4 0 0 0 3.22-11.2c-6.06 0-11.12 5.62-11.12 5.62l.16 1.41a4.3 4.3 0 0 1 2.37-.6z"/>
    <path fill="#672cbc" d="M41.5 114.91a15 15 0 0 0 2.3.33c-.19-.61-.37-1.23-.51-1.86-.48-2.29-.59-4.65-1-6.95a12.6 12.6 0 0 0-.59-2.16 11.2 11.2 0 0 0-3.38-.56 74.4 74.4 0 0 0 3.18 11.2"/>
    <path fill="#51069d" d="M74.43 102.06a15.4 15.4 0 0 0-.26-2.56 13.4 13.4 0 0 1-3.34 1.24c.09.56.16 1.13.21 1.69a6.5 6.5 0 0 1-.22 3 23 23 0 0 1-1.56 2.66 10.4 10.4 0 0 0-.63 1.49c1.12-.45 3-3.7 3-3.7s-1.86 7.07-.5 7.66c.47.2 1-.44 1.44-1.44 1.65-2.54 1.95-5.6 1.86-10.04"/>
    <path fill="#a990fc" d="M67.17 89.74a2.85 2.85 0 0 0 .54 2.73 25 25 0 0 1 1.6 3.1 22.6 22.6 0 0 1 1.52 5.17 13.4 13.4 0 0 0 3.34-1.24 25.26 25.26 0 0 0-5.44-10.85 2.55 2.55 0 0 0-1.56 1.09"/>
    <path fill="#350072" d="M70.82 105.44a6.5 6.5 0 0 0 .22-3c-.05-.56-.12-1.13-.21-1.69a13 13 0 0 1-1.76.29c.45 1.2.78 2.23 1 2.91 0 0-2.86 4.75-1.95 5.6a.45.45 0 0 0 .51 0 10.4 10.4 0 0 1 .63-1.49 23 23 0 0 0 1.56-2.62"/>
    <path fill="#672cbc" d="M65 93.83a22.9 22.9 0 0 1 4.1 7.2 13 13 0 0 0 1.76-.29 22.6 22.6 0 0 0-1.52-5.17 25 25 0 0 0-1.6-3.1 2.85 2.85 0 0 1-.54-2.73 2.55 2.55 0 0 1 1.56-1.09c-.55-.65-1-1.21-1.45-1.63a3 3 0 0 0-.34-.28 15.5 15.5 0 0 0-3.29 1.08c-.85 1.4-.85 3.65 1.32 6.01"/>
    <path fill="#51069d" d="M30.58 100.29a21 21 0 0 0-.88 3.84 17.15 17.15 0 0 0 .44 7.6c.07.13.14.26.22.38.44 1 1 1.64 1.44 1.44 1.37-.59-.49-7.66-.49-7.66s2.6 4.5 3.51 3.65-2-5.6-2-5.6c.23-.68.55-1.71 1-2.91a13.6 13.6 0 0 1-3.24-.74"/>
    <path fill="#a990fc" d="M37.42 91.46c-1.28-.75-1.53-.07-2.11.42a15.2 15.2 0 0 0-2.66 3.74 24.3 24.3 0 0 0-2.07 4.67 13.6 13.6 0 0 0 3.29.74 23.1 23.1 0 0 1 4.1-7.2 8 8 0 0 0 1-1.31 2.3 2.3 0 0 1-.75-.32c-.31-.2-.51-.57-.8-.74"/>
    <path fill="#a990fc" d="M30.58 100.29a13.6 13.6 0 0 0 3.29.74 13.6 13.6 0 0 1-3.29-.74"/>
    <path fill="#350072" d="M29.7 104.13a21 21 0 0 1 .88-3.84 14 14 0 0 1-1.8-.79 15.4 15.4 0 0 0-.27 2.56c-.08 4.22.19 7.2 1.63 9.67a17.15 17.15 0 0 1-.44-7.6"/>
    <path fill="#672cbc" d="M35.67 87c-1.93 2-5.84 6.79-6.89 12.48a14 14 0 0 0 1.8.79 24.3 24.3 0 0 1 2.07-4.67 15.2 15.2 0 0 1 2.66-3.74c.58-.49.83-1.17 2.11-.42.29.17.49.54.79.74a2.3 2.3 0 0 0 .75.32c2.54-4.19-1.28-7.5-3.29-5.5"/>
    <path fill="#350072" d="M30.58 100.29a14 14 0 0 1-1.8-.79 14 14 0 0 0 1.8.79"/>
    <path fill="none" stroke="#000" stroke-miterlimit="10" stroke-width=".353" d="M51.82 82.53z"/>
    <path fill="#51069d" d="M44.47 88.35c-.69-.09-1.38-.2-2.07-.32a38 38 0 0 0 9.54 1.22 37 37 0 0 0 5-.34 63 63 0 0 1-12.47-.56"/>
    <path fill="none" d="M44.39 100.43c-.54 0-1-.06-1.52-.11.48.05 1 .09 1.52.11 0 0 .65 6 7.49 6-6.88.05-7.49-6-7.49-6"/>
    <path fill="#672cbc" d="M65.23 104.3a13 13 0 0 0 1-5.45 15.9 15.9 0 0 1-6.83 1.58s-.65 6-7.48 6c-6.84 0-7.49-6-7.49-6-.54 0-1-.06-1.52-.11 0 .21.07.41.11.62a9.84 9.84 0 0 0 4.57 6.82 15.59 15.59 0 0 0 15.55-.56 10.2 10.2 0 0 0 2.09-2.9M51.8 92a51 51 0 0 1-8.57-.27 17.8 17.8 0 0 0-.49 4.13 25 25 0 0 0 0 2.72 19 19 0 0 0 1.89.1s.43-6.14 7.35-6.14 7.35 6.14 7.35 6.14a16.2 16.2 0 0 0 6.85-1.41 46.6 46.6 0 0 0-1-6.92 7 7 0 0 1-1.25.26A47 47 0 0 1 51.8 92m5.08-3.6c1.24 0 2.5-.1 3.76-.14a11.8 11.8 0 0 1 3.49-.55h.38c-.33-1.26-.58-2-.58-2s-3.59-2.62-12-3.12c-8.47.5-12.06 3.12-12.06 3.12s-.19.61-.46 1.62c3.79.42 7.52 1 11.35 1.11 2.01 0 4.06-.01 6.12-.04"/>
    <path fill="#51069d" d="M51.94 92.51c-6.92 0-7.35 6.14-7.35 6.14a19 19 0 0 1-1.89-.1 17 17 0 0 0 .17 1.77c.48.05 1 .09 1.52.11 0 0 .65 6 7.49 6s7.48-6 7.48-6a15.9 15.9 0 0 0 6.83-1.58v-1.61a16.2 16.2 0 0 1-6.85 1.41s-.48-6.14-7.4-6.14"/>
    <path fill="#51069d" d="M59.36 100.43s-.65 6-7.48 6c6.83 0 7.48-6 7.48-6a15.9 15.9 0 0 0 6.83-1.58 15.9 15.9 0 0 1-6.83 1.58"/>
    <path fill="#51069d" d="M47.55 107.76a9.84 9.84 0 0 1-4.55-6.82c0-.21-.07-.41-.11-.62a14.9 14.9 0 0 1-5.31-1.47 12.8 12.8 0 0 0 1 5.45c2.75 5.72 10.61 7.3 13.35 7.32 2.2 0 7.71-1 11.22-4.42a15.59 15.59 0 0 1-15.6.56m-4.85-9.21a25 25 0 0 1 0-2.72 17.8 17.8 0 0 1 .49-4.13 51 51 0 0 0 8.61.3 47 47 0 0 0 12.08-1.39 7 7 0 0 0 1.25-.26c-.21-1-.43-1.89-.62-2.62h-.38a11.8 11.8 0 0 0-3.49.55c-1.26 0-2.52.12-3.76.14h-6.17c-3.83-.1-7.56-.69-11.35-1.11a53.4 53.4 0 0 0-1.75 9.91 15.4 15.4 0 0 0 5.09 1.33"/>
    <path fill="#350072" d="M37.61 97.18v1.67a14.9 14.9 0 0 0 5.31 1.47 17 17 0 0 1-.17-1.77 15.4 15.4 0 0 1-5.14-1.37m47.24-27.77c.89-2.48 1.61-5 2.3-7.56a.42.42 0 0 0-.82-.22c-.36 1.31-.72 2.63-1.11 3.94a24.07 24.07 0 0 1-14.15 12.21C62.67 80.6 52.61 79.65 44.6 76a19.45 19.45 0 0 1-9.37-8.56A40.9 40.9 0 0 1 31 54.57a34.88 34.88 0 0 1 5.3-25.18 28.6 28.6 0 0 1 15.1-11.08c-20 .28-36.1 16.05-36.1 35.46C15.28 70.17 26.78 84 42.4 88c.69.12 1.38.23 2.07.32a63 63 0 0 0 12.45.56 36.65 36.65 0 0 0 27.93-19.47"/>
    <path fill="#fff" d="M67.22 32c-2.5 1.61-1.72 3 1.4 5.94 4.71 4.49 2.38 11.67 7.68 10.45s2.19-9 .22-11.57-6-6.92-9.3-4.78M80 53.56a3.34 3.34 0 1 0-2.88 3.73A3.34 3.34 0 0 0 80 53.56"/>
    <path fill="#fff" d="M89.33 47c-2.15 0-4.59 1.18-4.59 8.4 0 29.87-24.21 30.46-32.8 30.46s-32.8-.59-32.8-30.46c0-7.22-2.44-8.4-4.59-8.4-1 0-2.39.86-3.27 2.63a3.79 3.79 0 0 1 4 .15c3.29 2.32 1.88 7 1.89 10.32 0 7.2 3.63 14 8.86 18.86 6 5.59 13.92 8.26 22.07 8.57a61.8 61.8 0 0 0 24.6-3.73 41.1 41.1 0 0 0 10.18-5.71c6.55-7.2 9.05-15.63 10.06-19.67C94.9 50.61 91.48 47 89.33 47"/>
    <path fill="#a990fc" d="M48.07 87.52c-8.15-.31-16-3-22.07-8.57-5.23-4.82-8.85-11.66-8.86-18.86 0-3.33 1.4-8-1.89-10.32a3.79 3.79 0 0 0-4-.15c-.93 1.88-1.35 4.78-.34 8.8 2 7.81 9.47 32 41 32 15.21 0 24.84-5.64 30.94-12.35A41.1 41.1 0 0 1 72.7 83.8a61.8 61.8 0 0 1-24.63 3.72"/>
    <path fill="#fe6776" d="M92.4 56.66c.45-3.2-.14-5.93-1.31-6.09s-2.49 2.29-2.94 5.5.14 5.93 1.31 6.1 2.49-2.3 2.94-5.51m-80.89 0c-.45-3.2.14-5.93 1.32-6.09s2.49 2.29 2.94 5.5-.14 5.93-1.32 6.1-2.49-2.3-2.94-5.51"/>
    <path fill="#fff" d="M12.46 56.49c-.19-1.34.06-2.49.55-2.56s1.05 1 1.23 2.31-.05 2.49-.55 2.56-1-1-1.23-2.31m78.99.04c.19-1.34 0-2.49-.55-2.56s-1 1-1.23 2.31.06 2.49.55 2.56 1-1 1.23-2.31M57.11 99.31a5.3 5.3 0 1 0-5.29 5.3 5.29 5.29 0 0 0 5.29-5.3"/>
    <path fill="#fe6776" d="M55.91 99.31a4 4 0 1 0-4 4 4 4 0 0 0 4-4"/>
    <path fill="#a990fc" d="M63.65 87.82a15.5 15.5 0 0 1 3.29-1.08 2.34 2.34 0 0 0-3.29 1.08"/>
    <rect width="103.88" height="103.88" fill="none" rx="21.85"/>
</svg>
