<svg xmlns="http://www.w3.org/2000/svg" viewBox="0 0 32 32">
    <g fill="none">
        <path fill="#EEF" d="m18.592.849 11.59 8.488a4.46 4.46 0 0 1 1.602 4.969L27.357 28.04a4.41 4.41 0 0 1-4.194 3.071H8.837a4.41 4.41 0 0 1-4.194-3.07L.216 14.305a4.46 4.46 0 0 1 1.602-4.97L13.408.85a4.38 4.38 0 0 1 5.184 0z"/>
        <path fill="#4F0599" d="M7.345 19.765a9.1 9.1 0 0 0 5.87 5.883l-.154 1a10.1 10.1 0 0 1-6.717-6.734zm17.293.053.998.161a10.1 10.1 0 0 1-6.697 6.67l-.154-1a9.1 9.1 0 0 0 5.853-5.83zM13.04 7.358l.158 1a9.1 9.1 0 0 0-5.853 5.877l-1-.15a10.1 10.1 0 0 1 6.695-6.727m5.92 0a10.1 10.1 0 0 1 6.676 6.663l-.998.16a9.1 9.1 0 0 0-5.836-5.824z"/>
        <path fill="#AE5CFF" d="m13.422 21.007.988.152-.783 5.097.067.01a17 17 0 0 0 1.718.141l.588.01c.788 0 1.561-.051 2.306-.15l.066-.011-.783-5.097.989-.151.86 5.592a.5.5 0 0 1-.412.569 18 18 0 0 1-3.026.248 18 18 0 0 1-3.027-.248.5.5 0 0 1-.416-.48l.006-.09zm12.747-7.075c.164.981.248 2.012.248 3.068s-.084 2.087-.248 3.068a.5.5 0 0 1-.483.418l-.09-.007-5.592-.902.16-.987 5.091.821.011-.07c.075-.566.122-1.15.141-1.743l.01-.598c0-.8-.051-1.586-.15-2.342l-.012-.07-5.092.822-.16-.988 5.593-.902a.5.5 0 0 1 .573.412m-19.86-.349.089.005 5.592.834-.147.989-5.1-.761-.01.065a17 17 0 0 0-.14 1.703l-.01.582c0 .78.051 1.546.15 2.285l.01.063 5.1-.759.147.989-5.592.834a.5.5 0 0 1-.567-.41A18 18 0 0 1 5.583 17c0-1.032.084-2.04.248-3.001a.5.5 0 0 1 .478-.416m9.691-7c1.049 0 2.073.084 3.048.248a.5.5 0 0 1 .417.482l-.006.09-.882 5.591-.987-.155.802-5.096-.068-.01a18 18 0 0 0-1.731-.14L16 7.583c-.795 0-1.574.051-2.324.15l-.07.01.804 5.096-.988.156-.88-5.593a.5.5 0 0 1 .41-.57c.975-.165 2-.249 3.048-.249"/>
        <path fill="#4F0599" d="M16 11.917a5.083 5.083 0 1 0 0 10.166 5.083 5.083 0 0 0 0-10.166m0 1a4.083 4.083 0 1 1 0 8.166 4.083 4.083 0 0 1 0-8.166"/>
    </g>
</svg>
