<svg xmlns="http://www.w3.org/2000/svg" width="550" height="550" fill="none" viewBox="0 0 550 550">
    <path fill="#222638" d="M298.399 171.709c.105-1.104.209-1.795.233-2.494.145-4.193.358-8.386.358-12.578 0-1.667.658-2.551 2.028-3.358 10.522-6.229 21.004-12.527 31.499-18.804 13.173-7.88 26.37-15.723 39.491-23.691 1.811-1.101 3.073-1.001 4.836.04a46882.683 46882.683 0 0 0 108.016 63.524c1.506.884 2.06 1.771 2.008 3.562-.771 25.158-1.43 50.319-2.197 75.477-.064 2.052.486 3.225 2.353 4.229 9.201 4.94 18.314 10.037 27.463 15.073 1.076.59 2.173 1.14 3.731 1.952.052-1.446.157-2.45.109-3.454-.205-4.458-.506-8.912-.659-13.37-.104-3.081 1.888-5.028 4.94-5.053 2.843-.024 4.807 1.623 4.972 4.47.53 9.089.996 18.182 1.41 27.275.124 2.743-.86 3.534-4.025 3.682-12.57.583-25.141 1.161-37.712 1.747-5.173.241-10.342.511-15.51.76-2.209.104-2.482-.061-2.715-2.258a41.613 41.613 0 0 1-.221-5.341c.048-2.036.341-2.281 2.361-2.378 8.29-.393 16.583-.759 24.877-1.148 2.666-.125 5.329-.29 8.233-.904-.582-.398-1.137-.843-1.747-1.181-6.402-3.546-12.856-7.004-19.202-10.647-1.947-1.12-3.442-1.092-5.369.077-15.35 9.289-30.76 18.474-46.151 27.691-7.502 4.49-15.008 8.972-22.699 13.571-10.796-6.338-21.619-12.699-32.776-19.25-.205 1.049-.422 1.699-.442 2.354-.289 9.546-.518 19.093-.844 28.639-.06 1.715.418 2.8 1.992 3.655 9.961 5.41 19.873 10.908 29.809 16.362.522.285 1.108.45 2.008.811 0-1.216.04-2.152-.008-3.088-.229-4.366-.518-8.731-.715-13.097-.165-3.586 2.121-5.707 5.663-5.361 2.691.265 4.169 1.871 4.325 4.843.386 7.31.731 14.619 1.093 21.925.076 1.514.18 3.028.245 4.546.124 2.952-.671 3.863-3.643 4.012-8.378.422-16.76.807-25.141 1.205-9.627.458-19.258.884-28.885 1.414-1.41.076-2.072-.438-2.169-1.683a100.31 100.31 0 0 1-.293-6.671c-.016-1.43 1.016-1.635 2.209-1.687 5.976-.257 11.948-.566 17.92-.851 4.727-.229 9.45-.446 14.177-.683.414-.02.82-.133 1.808-.301-1.065-.695-1.667-1.141-2.314-1.498-6.719-3.711-13.482-7.346-20.149-11.145-1.779-1.012-3.1-1.016-4.884.056-22.097 13.306-44.258 26.507-66.355 39.813-1.687 1.016-2.88 1.028-4.567.012-9.41-5.651-18.9-11.173-28.366-16.732-.607-.357-1.245-.655-2.101-1.104-.197.711-.466 1.253-.482 1.803-.253 8.563-.462 17.129-.711 25.696-.036 1.257.221 2.201 1.442 2.867 9.559 5.217 19.093 10.479 28.64 15.716.293.16.65.208 1.393.433 0-1.393.053-2.59-.008-3.779-.212-4.277-.333-8.566-.739-12.828-.385-4.036 3.282-6.08 6.483-5.237 2.172.575 3.345 2.036 3.482 4.486.361 6.595.682 13.19 1.024 19.784.12 2.318.285 4.631.373 6.952.113 2.932-.723 3.884-3.666 4.037-7.398.377-14.8.706-22.198 1.056-10.253.482-20.507.96-30.756 1.454-2.968.144-3.125.08-3.442-2.948a34.34 34.34 0 0 1-.149-4.812c.073-1.879.362-2.112 2.241-2.201 8.201-.377 16.407-.731 24.608-1.108 2.622-.121 5.241-.305 7.863-.462l.113-.57c-.631-.418-1.237-.876-1.892-1.241-4.606-2.554-9.261-5.024-13.816-7.663-1.714-.992-3.044-.803-4.674.177-13.832 8.345-27.708 16.623-41.568 24.92-9.651 5.775-19.31 11.531-28.925 17.366-1.189.723-2.004.607-3.136-.06-36.142-21.298-72.296-42.576-108.49-63.785-1.8-1.053-2.394-2.165-2.334-4.225.824-27.568 1.575-55.135 2.27-82.702.04-1.587.658-2.406 1.92-3.153 7.068-4.181 14.068-8.474 21.169-12.599 1.956-1.136 3.205-2.385 3.112-4.791-.04-1.04.305-2.117.599-3.141 1.879-6.606 3.711-13.229 5.719-19.8 2.172-7.108 3.839-14.281 4.349-21.727.767-11.21-2.229-21.134-9.482-29.789-5.346-6.377-11.72-11.546-18.828-15.699-10.555-6.165-21.314-11.984-32.025-17.88-10.635-5.856-21.318-11.619-31.973-17.434-3.647-1.988-4.149-4.358-1.711-7.8 1.132-1.598 2.747-2.51 4.51-3.217 1.245-.498 2.25.149 3.265.715 5.462 3.036 10.924 6.069 16.382 9.105 12.559 6.984 25.122 13.96 37.676 20.948 11.917 6.631 24.371 11.896 37.709 14.921a182.497 182.497 0 0 0 28.852 4.148c17.788 1.125 35.507.081 53.179-1.835 13.928-1.51 27.828-3.277 41.736-4.96 14.723-1.779 29.483-2.892 44.331-2.458 2.663.076 5.321.229 8.261.357zm113.293 172.147c-1.056-.438-2.164-.775-3.156-1.321-23.543-12.941-47.066-25.905-70.613-38.841-1.37-.751-2.872-1.261-3.804-1.667-2.028 1.494-3.502 2.755-5.136 3.759-4.864 2.996-9.788 5.888-14.688 8.828-.61.365-1.281.679-1.795 1.157-.357.333-.494.907-.731 1.377 1.149-.076 1.92-.462 2.655-.899 4.522-2.695 9.032-5.41 13.555-8.109 2.233-1.333 2.233-1.313 4.385.377a11.37 11.37 0 0 0 1.571 1.008c20.948 11.539 41.893 23.086 62.873 34.568a9.121 9.121 0 0 0 4.041 1.084c2.939.061 5.883-.208 8.823-.333.836-.036 1.623-.124 1.96-1.052.281.614.558 1.225 1.052 2.301-8.811.615-17.233.864-25.647 1.297-8.434.434-16.872.82-25.326 1.229v6.828c1.04 0 1.819.032 2.594-.004 12.466-.575 24.937-1.153 37.403-1.735 4.526-.213 9.057-.418 13.579-.659 2.558-.136 2.855-.494 2.707-3.108-.081-1.422-.249-2.836-.322-4.258-.373-7.297-.706-14.603-1.112-21.9-.117-2.125-1.402-3.221-3.474-3.197-2.177.024-3.518 1.265-3.458 3.502.112 4.189.373 8.37.554 12.555.109 2.486.245 4.964 1.494 7.209zM106.963 180.087c.397.181.867.273 1.184.55 3.077 2.683 6.386 5.113 8.82 8.487.703.976 1.711 1.847 2.767 2.429 22.338 12.35 44.701 24.656 67.063 36.962.59.325 1.245.522 2.165.899.116-1.61.112-2.94.325-4.237.385-2.353-.502-3.671-2.647-4.843-22.013-12.009-43.965-24.138-65.934-36.231-2.972-1.634-5.952-3.253-8.904-4.923-.518-.294-.915-.804-1.518-1.35 1.398-.747 2.084.032 2.807.426 4.161 2.249 8.27 4.598 12.459 6.791 1.401.735 2.944 1.326 4.494 1.619 9.671 1.823 19.454 2.57 29.278 2.807 16.627.406 33.178-.799 49.684-2.623 13.483-1.49 26.937-3.208 40.404-4.827 2.566-.309 5.096-.566 7.341-2.153 2.109-1.49 4.442-2.654 6.627-4.036.952-.602 1.743-.622 2.699-.016 1.735 1.096 3.49 2.177 5.317 3.1 1 .506 2.161.936 3.261.96 6.956.153 13.913.193 20.873.253.851.008 1.702-.076 2.598-.12.249-2.382.811-4.462-.076-6.727-3.069-.169-6.085-.402-9.105-.486-16.647-.486-33.158 1.245-49.64 3.261-18.688 2.285-37.331 4.952-56.167 5.912-14.197.723-28.362.819-42.503-.811-13.72-1.587-27.082-4.615-39.857-9.989a191.96 191.96 0 0 1-21.09-10.414c-8.743-5.016-17.578-9.868-26.382-14.779a4147.008 4147.008 0 0 0-23.181-12.856c-.816-.45-1.96-1.024-2.683-.771-1.743.606-3.406 1.542-4.294 3.385-1.1 2.281-.83 3.358 1.366 4.567 5.317 2.923 10.667 5.791 15.98 8.723 16.021 8.831 32.102 17.555 48.014 26.583 7.639 4.334 14.382 9.904 20.029 16.736 6.655 8.056 9.832 17.342 9.615 27.703-.153 7.25-1.482 14.354-3.579 21.322-2.341 7.776-4.542 15.591-6.779 23.395-.377 1.309-.803 2.659-.205 4.293 2.057-1.225 3.86-2.357 5.723-3.381 1.265-.695 1.956-1.667 2.322-3.073.895-3.454 1.831-6.904 2.931-10.293 3.234-9.957 6.053-19.989 6.531-30.528.297-6.578-.47-13.024-2.691-19.221-2.884-8.049-7.775-14.8-13.932-20.676-.563-.538-.988-1.216-1.478-1.827l-.04.044zm377.407-4.1c-1.109-.727-1.816-1.237-2.563-1.679-34.917-20.543-69.842-41.07-104.73-61.661-1.944-1.149-3.426-1.157-5.362.012-22.551 13.579-45.15 27.077-67.733 40.604-.731.438-1.414.96-2.482 1.695 1.136.727 1.919 1.265 2.731 1.743 35.073 20.627 70.151 41.242 105.204 61.906 1.51.891 2.611.903 4.121-.004 22.788-13.704 45.612-27.343 68.424-41.006.675-.406 1.309-.879 2.39-1.61M265.049 307.3c-.852-.63-1.378-1.1-1.976-1.453a16241.021 16241.021 0 0 0-29.062-17.081c-8.771-5.145-17.558-10.254-26.322-15.41-16.759-9.864-33.519-19.732-50.239-29.656-1.654-.984-2.931-1.048-4.626-.032-22.704 13.659-45.452 27.25-68.183 40.865-.731.437-1.414.964-2.454 1.674 1.53.94 2.707 1.687 3.912 2.394 34.446 20.266 68.906 40.512 103.316 60.838 2.033 1.2 3.49 1.253 5.547.012 22.382-13.503 44.829-26.897 67.255-40.323.888-.53 1.735-1.121 2.828-1.832zm-73.188-86.802c.948.655 1.494 1.089 2.093 1.438 35.222 20.72 70.452 41.419 105.646 62.187 1.723 1.016 2.996.924 4.623-.076 5.924-3.651 11.92-7.185 17.892-10.76 16.611-9.944 33.23-19.884 49.837-29.832.88-.526 1.715-1.129 2.88-1.9-2.691-1.606-4.964-2.984-7.258-4.329-16.767-9.844-33.543-19.664-50.303-29.523a12805.444 12805.444 0 0 1-50.009-29.54c-1.723-1.024-3.013-1.204-4.848-.096-22.619 13.631-45.295 27.17-67.954 40.74-.751.45-1.47.956-2.599 1.695zm-2.863 216.614c.1-1.751.201-2.98.237-4.213.743-26.045 1.454-52.09 2.273-78.135.064-2.088-.836-2.996-2.426-3.932-23.559-13.808-47.09-27.659-70.629-41.503-11.386-6.695-22.76-13.402-34.162-20.073-.86-.502-1.642-1.398-3.016-1.032-.149 3.763-.337 7.494-.442 11.229-.638 23.282-1.22 46.564-1.94 69.842-.076 2.405.715 3.67 2.743 4.859 34.805 20.387 69.565 40.845 104.333 61.284.832.49 1.687.931 3.025 1.666zM370.94 210.084c4.683 1.261 5.566 2.39 5.45 6.687-.193 7.045-.414 14.093-.574 21.138-.02.843-.013 2.008.49 2.482 1.128 1.056.899 2.233.867 3.457-.237 8.651-.426 17.306-.751 25.953-.068 1.872.602 2.904 2.193 3.816 6.888 3.952 13.707 8.02 20.539 12.072.751.446 1.811.956 2.004 1.639.606 2.169.964 4.43.727 7.217-1.342-.659-2.293-1.052-3.173-1.566-6.546-3.832-13.073-7.695-19.615-11.531-.795-.466-1.639-.843-2.804-1.438-.108 1.908-.14 3.318-.285 4.719-.164 1.619.47 2.619 1.896 3.446 9.414 5.466 18.78 11.013 28.174 16.515.642.377 1.365.622 2.217 1.008.092-.795.18-1.229.192-1.667.731-26.756 1.434-53.516 2.233-80.268.065-2.112-.702-3.205-2.437-4.221-35.022-20.538-70.011-41.134-105.012-61.705-.735-.429-1.522-.771-2.53-1.277-.149.924-.31 1.51-.326 2.097-.329 11.594-.626 23.189-.984 34.784-.044 1.43.454 2.317 1.687 3.028 4.796 2.759 9.547 5.595 14.326 8.382.41.241.908.329 1.618.578.085-1.241.181-2.2.213-3.164.209-6.776.398-13.555.619-20.334.028-.908.233-1.812.385-2.928 2.033.932 1.976 2.361 1.936 3.787-.197 7.137-.393 14.27-.582 21.406-.02.8-.101 1.631.076 2.394.105.45.651.795 1 1.189.185-.06.366-.121.55-.185.109-1.486.274-2.968.314-4.454.192-6.51.341-13.02.538-19.531.02-.626.257-1.249.41-1.943 1.473.481 1.249 1.49 1.228 2.305-.192 7.225-.349 14.45-.662 21.667-.169 3.868.285 4.655 4.377 5.735.093-.514.241-1.012.262-1.514.148-3.385.281-6.775.389-10.161.137-4.189.233-8.382.394-12.57.024-.619.301-1.229.482-1.936 1.903.944 1.807 2.405 1.767 3.835-.189 7.137-.39 14.27-.575 21.407-.02.799-.092 1.63.089 2.393.108.454.662.804 1.474 1.711.128-2.277.253-3.851.297-5.43.185-6.422.337-12.844.53-19.265.02-.727-.281-1.671.856-1.968 1.096.482.835 1.482.819 2.317-.044 2.851-.161 5.707-.241 8.558-.137 4.993-.289 9.985-.358 14.981-.008.719.221 1.691.711 2.116.968.836 2.197 1.37 3.579 2.177.164-.895.313-1.389.333-1.883.141-3.478.277-6.952.378-10.43.108-3.836.152-7.671.281-11.507.032-.904.289-1.799.486-2.928.863.37 1.365.526 1.807.787 3.844 2.266 7.599 4.683 11.535 6.772 2.168 1.148 2.731 2.63 2.63 4.94-.313 7.129-.442 14.269-.634 21.402-.085 3.093.963 4.221 4.494 4.707.16-3.659.349-7.297.466-10.944.136-4.281.192-8.563.329-12.844.024-.731.265-1.45.43-2.285 1.976.843 1.931 2.281 1.891 3.719-.196 7.137-.393 14.269-.582 21.406-.02.8-.092 1.631.084 2.394.105.446.651.791.996 1.181.185-.065.366-.133.551-.197.092-2.113.204-4.225.273-6.338.068-2.229.084-4.462.14-6.691.056-2.14.072-4.285.213-6.422.145-2.14-.112-4.345.639-7.072.634.944 1.048 1.309 1.128 1.735.133.691.064 1.422.044 2.132-.204 7.314-.437 14.628-.594 21.941-.02.92.064 2.125.618 2.707.92.972 2.145 1.791 3.888 1.944.064-1.137.137-2.093.165-3.049.197-6.686.365-13.377.582-20.064.032-1.009.277-2.009.43-3.049zm-109.912 65.388c5.338 1.852 5.76 2.442 5.615 7.157-.209 6.868-.422 13.735-.574 20.603-.02.932-.012 2.197.542 2.739 1.008.988.968 2.032.936 3.177-.233 8.567-.39 17.133-.771 25.692-.105 2.301.65 3.55 2.598 4.654 6.522 3.695 12.892 7.663 19.438 11.314 2.217 1.237 3.406 2.743 3.286 5.233-.06 1.249.763 2.583-.378 4.081-8.269-4.84-16.446-9.627-25.121-14.708-.068 1.984-.036 3.382-.181 4.764-.177 1.714.426 2.783 1.964 3.674 9.422 5.454 18.788 11.013 28.186 16.515.566.333 1.225.514 2.08.863.081-1.301.169-2.269.197-3.241.727-26.053 1.418-52.102 2.217-78.151.072-2.374-.655-3.659-2.719-4.864-21.663-12.635-43.267-25.382-64.886-38.097-13.077-7.695-26.153-15.39-39.238-23.073-.944-.555-1.948-1-3.165-1.619-.133 1.153-.265 1.848-.285 2.546-.325 11.33-.607 22.664-.98 33.994-.06 1.771.61 2.767 2.104 3.614 4.426 2.506 8.78 5.141 13.174 7.707.658.386 1.381.671 2.457 1.181.065-2.466.105-4.566.181-6.671.081-2.229.221-4.458.297-6.687.073-2.141.049-4.285.145-6.422.096-2.161-.249-4.378.478-6.848.731.563 1.349.796 1.47 1.177.277.908.458 1.892.434 2.836-.173 7.317-.41 14.631-.607 21.948-.028 1.097-.353 2.378 1.506 2.896.113-.843.273-1.599.301-2.354.133-3.747.225-7.494.334-11.241.104-3.566.189-7.137.333-10.703.024-.607.313-1.205.482-1.807.755.441 1.133.851 1.177 1.301.092.879.016 1.779-.008 2.671-.209 7.044-.45 14.092-.607 21.137-.02.916.097 2.129.663 2.691.952.944 2.309 1.478 3.9 2.422.08-1.438.16-2.386.184-3.338.189-6.868.354-13.739.567-20.607.028-.908-.301-1.996.803-2.643 1.699.743 1.57 2.217 1.534 3.639-.193 7.048-.397 14.097-.594 21.145-.024.804-.056 1.611.008 2.406.064.791.458 1.341 1.63 1.201.169-3.872.378-7.78.502-11.687.121-3.836.129-7.675.245-11.511.029-.895.282-1.787.462-2.875 1.575.751 1.31 1.819 1.286 2.723-.197 7.401-.43 14.799-.651 22.201-.097 3.197 1.004 4.402 4.574 4.896.04-.896.093-1.779.117-2.663.189-6.96.365-13.916.57-20.876.028-.928-.225-1.996 1.117-2.727 4.723 2.843 9.522 5.727 14.313 8.623 1.097.662 1.053 1.767 1.025 2.855-.105 3.924-.197 7.852-.306 11.776-.104 3.747-.273 7.494-.313 11.241-.008.827.141 1.944.671 2.422.988.896 2.313 1.422 3.98 2.382.076-3.531.116-6.446.209-9.358.088-2.856.204-5.707.349-8.559.149-2.859-.293-5.775.502-8.851 1.952.883 1.948 2.285 1.908 3.71-.205 7.049-.406 14.097-.599 21.146-.024.891-.052 1.791.045 2.671.084.775.57 1.208 1.534 1.088.056-.594.136-1.117.152-1.643.173-5.799.334-11.594.506-17.394.053-1.783.077-3.57.213-5.349.04-.514.41-1.008.691-1.643 1.454 1.02 1 2.265.972 3.333-.181 7.226-.333 14.455-.671 21.676-.096 2.104.546 3.426 2.454 4.193.627.253 1.245.534 2.149.928.164-4.647.245-8.997.49-13.338.241-4.326-.024-8.679.409-13.286zm-140.085-81.437-.43.346c.193.458.354.936.583 1.377 6.181 11.989 6.578 24.612 4.165 37.552-1.33 7.125-3.627 13.98-5.772 20.884-.859 2.771-1.538 5.603-2.297 8.406.169.121.337.245.506.366.819-.466 1.651-.916 2.458-1.398 10.719-6.414 21.467-12.784 32.126-19.298 1.992-1.217 3.437-1.373 5.53-.1 9.149 5.566 18.422 10.924 27.659 16.334.792.461 1.519 1.253 2.691.915.069-.67.169-1.285.189-1.899.229-7.671.37-15.346.715-23.009.104-2.277-.663-3.498-2.659-4.591-21.069-11.506-42.082-23.113-63.11-34.688-.772-.421-1.567-.795-2.35-1.193zM410.022 305.24c2.514-.606 66.608-38.913 68.367-40.732-.1-.137-.168-.317-.301-.41-.442-.297-.895-.59-1.365-.839-4.374-2.314-3.213-2.402-7.406.104-16.475 9.84-32.929 19.708-49.404 29.547-.935.559-1.975.952-3.233 1.547-.128-1.041-.265-1.631-.261-2.221.012-2.229.053-4.462.117-6.691.534-19.358 1.112-38.712 1.57-58.071.052-2.152.783-3.365 2.611-4.446 11.301-6.662 22.535-13.442 33.792-20.177 7.121-4.261 14.238-8.522 21.37-12.763.784-.466 1.655-.784 2.98-1.402 0 1.498.024 2.442 0 3.386-.433 15.611-.875 31.222-1.313 46.833-.1 3.658-.233 7.313-.261 10.972-.008.835.076 2.028.602 2.442 1.474 1.168 3.089 2.269 5.338 2.57.703-25.768 1.402-51.315 2.116-77.388-1.273.674-2.052 1.044-2.791 1.482-22.595 13.514-45.17 27.061-67.801 40.511-1.956 1.161-2.571 2.486-2.619 4.691-.361 16.149-.875 32.294-1.321 48.44-.277 9.992-.518 19.984-.771 29.977-.02.851 0 1.702 0 2.634zm-144.463 3.763c-.924.486-1.647.824-2.326 1.229-22.752 13.607-45.487 27.234-68.259 40.805-1.502.896-2.093 1.948-2.113 3.647-.072 5.534-.241 11.064-.397 16.595-.583 20.788-1.177 41.575-1.755 62.363-.024.94.068 1.88.132 3.39 6.378-3.707 12.217-7.253 18.077-10.759 5.972-3.575 11.952-7.141 17.928-10.712 5.9-3.526 11.82-7.016 17.688-10.594 5.884-3.583 11.928-6.916 18.008-10.957-1.855-1.032-3.253-1.803-4.638-2.594-.852-.486-1.679-.53-2.526-.008-.607.373-1.237.715-1.848 1.08-17.92 10.728-35.841 21.455-53.765 32.178-.654.394-1.349.719-2.466 1.309-.096-1.265-.233-2.1-.213-2.935.089-3.924.225-7.848.334-11.772.498-17.663 1.016-35.327 1.454-52.994.044-1.823.682-2.908 2.249-3.839 18.711-11.141 37.387-22.342 56.082-33.516.566-.337 1.221-.534 2.285-.988.028 1.45.089 2.482.06 3.507-.469 16.952-.951 33.9-1.425 50.853-.041 1.426-.137 2.859-.045 4.281.041.643.302 1.522.772 1.844 1.433.984 3.016 1.751 4.602 2.638.815-2.699 2.755-71.139 2.109-74.051zm110.152-65.889c-1.313.694-2.088 1.064-2.827 1.506-22.672 13.558-45.327 27.145-68.027 40.66-1.654.988-2.317 2.1-2.357 4.02-.225 11.065-.575 22.125-.888 33.186-.434 15.434-.879 30.864-1.301 46.299-.02.735.108 1.478.185 2.385.642-.249.988-.333 1.281-.506a127148.23 127148.23 0 0 0 65.488-39.158c.301-.181.546-.446.807-.687.057-.052.073-.156.093-.237.02-.084.016-.176.044-.486-.996-.562-2.129-1.088-3.137-1.791-1.522-1.06-2.835-.952-4.414.028-5.309 3.294-10.703 6.446-16.064 9.655-11.639 6.968-23.278 13.941-34.925 20.893-.78.466-1.647.779-2.936 1.377 0-1.606-.024-2.646 0-3.687.59-21.322 1.209-42.64 1.735-63.962.048-1.879.779-2.867 2.313-3.783 18.708-11.141 37.383-22.342 56.07-33.515.575-.342 1.209-.579 2.253-1.069.065 1.241.169 2.077.145 2.908-.402 14.362-.827 28.724-1.237 43.086-.149 5.261-.317 10.526-.377 15.792-.013.891.208 2.14.807 2.614 1.349 1.073 3 1.763 5.06 2.904.739-26.314 1.458-52.038 2.197-78.424zm-241.812-54.183-.204.53c.582.357 1.148.743 1.747 1.072 17.273 9.515 34.563 18.997 51.801 28.572 1.586.879 2.739.69 4.156-.161 18.82-11.298 37.66-22.563 56.488-33.849.551-.329 1.02-.791 1.526-1.188-3.361-.053-6.542.233-9.715.634-19.028 2.414-38.033 5.053-57.223 5.944-14.819.691-29.607.791-44.355-1.116-1.401-.181-2.815-.294-4.221-.438m65.914 192.637c2.029-1.867 22.126-13.795 24.15-14.374.683 1.334-.43 1.719-1.213 2.193-4.277 2.586-8.575 5.137-12.86 7.707a861.484 861.484 0 0 0-6.647 4.012c-.59.362-1.221.759-.646 2.041 6.96-4.161 13.807-8.25 20.735-12.386.767.405 1.555.807 2.334 1.233 19.547 10.759 39.089 21.53 58.66 32.246 1.121.614 2.498 1.052 3.76 1.068 3.028.04 6.06-.209 9.092-.37.47-.024.932-.196 1.394-.305l.096-.494a601925.65 601925.65 0 0 0-71.765-39.499c1.494-.759 2.787-1.329 3.992-2.048 4.675-2.788 9.321-5.627 13.984-8.434.53-.318 1.081-.727 1.659-.804.389-.052 1.08.31 1.233.659.867 1.984-.225 5.076-2.121 6.221-3.056 1.848-6.128 3.663-9.177 5.526-.558.342-1.028.824-1.586 1.286 2.321 1.732 4.581 1.943 6.779.634 1.591-.948 3.181-1.9 4.683-2.795 1.675.968.904 2.373 1.141 3.51.446 2.157-1.346 3.012-2.763 4.394l5.546 2.92c.458-16.68.904-32.833 1.357-49.4-1.104.498-1.763.723-2.345 1.069-15.627 9.341-31.238 18.711-46.889 28.013-1.486.883-2.089 1.887-2.109 3.622-.068 6.245-.305 12.487-.462 18.732-.032 1.225-.004 2.45-.004 3.819zm134.832-69.677c-2.433-1.794-4.72-2.056-6.859-.787-4.904 2.924-9.796 5.872-14.712 8.779-.787.466-1.666.775-2.526 1.165-1.409-3.9-.855-5.667 2.097-7.434 13.856-8.289 27.711-16.583 41.571-24.868.804-.478 1.655-.876 2.507-1.318 1.57 3.587.971 5.752-1.84 7.438-3.976 2.39-7.96 4.768-11.932 7.169-.631.382-1.201.872-1.872 1.366 3.519 2.634 3.543 2.638 6.828.691 2.149-1.278 4.273-2.591 6.446-3.82.699-.397 1.518-.586 2.329-.887 1.033 4.502.603 5.59-2.711 7.614-.935.571-1.835 1.205-2.988 1.968 2.691 2.129 5.932 2.314 8.057 4.462.068.069.329-.052.771-.132.49-17.354.976-34.761 1.482-52.729-1.386.723-2.241 1.124-3.048 1.602-5.29 3.145-10.575 6.31-15.856 9.471-10.029 6-20.037 12.036-30.102 17.98-1.546.912-2.377 1.916-2.305 3.791.084 2.225-.125 4.458-.173 6.687-.032 1.358-.004 2.715-.004 4.041 1.085-.799 1.876-1.486 2.763-2.016a31146.161 31146.161 0 0 1 42.476-25.443c.458-.273.948-.727 1.401-.699.474.028 1.213.446 1.33.844.751 2.57-.237 4.883-2.567 6.281-9.337 5.594-18.675 11.185-28.013 16.78-4.747 2.843-9.502 5.666-14.233 8.53-1.133.687-2.185 1.333-3.189-.141l-.189.137c-.144 5.321-.293 10.671-.437 16.021-.145 5.369-.286 10.739-.426 16.109.197.052.393.108.59.16-.385-1.992 1.036-2.558 2.261-3.289 10.258-6.137 20.519-12.274 30.772-18.418.752-.45 1.482-.932 2.262-1.422-2.908-2.775-3.503-2.86-6.527-1.052-8.498 5.084-16.996 10.173-25.499 15.245-.735.438-1.518.787-2.273 1.177-1.747-3.257-1.213-5.595 1.478-7.213 6.804-4.093 13.619-8.169 20.423-12.258.743-.445 1.457-.943 2.437-1.582m116.366-74.493c2.514 1.88 4.963 2.092 7.346.635.381-.233.763-.462 1.144-.691l5.27-3.173c.646-.385 1.333-.71 1.863.113.827 1.285-.02 5.213-1.309 6.06-1.322.868-2.679 1.679-4.478 2.796 3.004 1.586 5.582 2.943 8.574 4.526.189-6.334.362-12.113.53-17.888.165-5.707.35-11.414.474-17.121.129-5.719.534-11.443.229-17.595-1.233.67-2.016 1.056-2.763 1.502a61027.687 61027.687 0 0 0-34.684 20.735c-3.751 2.245-7.446 4.587-11.273 6.695-1.751.964-2.454 2.157-2.121 4.057l.109.602c-.117-2.004 1.02-3.04 2.61-3.984 14.033-8.338 28.029-16.731 42.038-25.109.534-.322 1.056-.675 1.626-.924.82-.361 1.378-.056 1.603.815.687 2.647-.225 4.856-2.615 6.286-14.008 8.386-28.009 16.775-42.041 25.125-.976.578-2.149.827-3.414 1.297-.639 4.037-.767 15.362-.113 17.411.703-.41 1.394-.8 2.073-1.205 13.932-8.334 27.864-16.672 41.796-25.005.611-.366 1.205-.783 1.86-1.056 1.076-.45 1.727-.033 1.783 1.136.133 2.699-.257 4.972-3.225 6.298-2.751 1.228-5.241 3.036-7.844 4.598-1.594.956-3.18 1.928-5.052 3.064zm69.352 41.014c.048-.197.096-.398.148-.594-.586-.37-1.152-.772-1.755-1.105-23.739-13.077-47.491-26.129-71.203-39.254-1.727-.956-3.012-.844-4.643.156-6.454 3.968-12.992 7.804-19.494 11.696-.534.321-1.121.61-1.539 1.052-.257.273-.241.811-.477 1.755 1.325-.747 2.172-1.205 3-1.699 4.823-2.876 9.651-5.751 14.458-8.655 1.193-.723 2.197-1.084 3.201.345.434.615 1.209 1.029 1.896 1.422 1.851 1.069 3.739 2.081 5.614 3.113 18.744 10.321 37.483 20.647 56.235 30.949 1 .55 2.113 1.273 3.173 1.273 3.795 0 7.595-.281 11.39-.454zM249.924 415.509c1.514 0 2.654.04 3.795-.008 1.871-.076 3.743-.229 5.615-.317 14.707-.699 29.418-1.382 44.126-2.085 2.518-.12 2.715-.297 2.63-2.887-.112-3.478-.317-6.952-.502-10.426-.281-5.257-.755-10.511-.807-15.772-.028-2.787-3.036-4.169-5.458-2.896-1.522.8-1.683 2.165-1.599 3.663.274 4.723.595 9.442.759 14.169.069 1.928.434 3.675 1.579 5.241.389.535.723 1.109 1.285 1.98-17.442.972-34.519 1.519-51.833 2.567.144 2.398.265 4.41.41 6.771Zm221.325-126.458c1.393 0 2.365.036 3.333-.004 7.31-.317 14.619-.639 21.925-.984 9.446-.45 18.888-.912 28.33-1.39 2.522-.128 2.711-.309 2.626-2.895-.116-3.478-.333-6.948-.51-10.422-.265-5.169-.542-10.334-.795-15.503-.068-1.41-.385-2.639-1.819-3.301-2.113-.976-5.426.108-5.201 3.293.365 5.161.574 10.334.795 15.503.109 2.522 1.329 4.401 3.39 6.092-.86.161-1.534.358-2.221.406-2.137.14-4.277.225-6.414.325-13.547.643-27.089 1.281-40.636 1.936-.944.044-1.884.213-2.811.321v6.631zm-233.005 92.16c-2.779-2.82-3.397-2.916-6.313-1.169-9.567 5.727-19.145 11.442-28.7 17.197-1.213.731-2.357 1.402-4.044.591.197 6.088-.47 11.807-.193 18.157 16.72-10.004 32.889-19.683 49.142-29.411-2.851-2.67-3.213-2.727-5.94-1.108-1.61.956-3.217 1.924-4.823 2.888-11.563 6.916-23.121 13.835-34.692 20.739-.783.47-1.655.796-2.518 1.201-1.414-4.249-.952-5.651 2.325-7.611 10.647-6.357 21.298-12.707 31.941-19.069 1.273-.759 2.51-1.582 3.811-2.401zm180.368-113.763c-.152 5.397-.727 11.088-.269 16.948 4.474-1.908 44.709-26.31 45.865-27.748-1.984-1.505-3.997-1.651-6.04-.438l-1.149.687c-11.627 6.96-23.25 13.92-34.885 20.868-.795.474-1.658.828-2.526 1.253-1.393-4.068-.831-5.771 2.253-7.614a31825.365 31825.365 0 0 0 31.447-18.8c.494-.293.92-.699 1.414-1.081-3.386-2.751-3.434-2.755-6.844-.718-8.57 5.124-17.129 10.265-25.723 15.345-.92.543-2.037.756-3.543 1.294zm-219.871 156.11c18.932-11.314 37.367-22.31 55.853-33.431-3.466-3.149-4.132-3.225-7.606-1.145-6.956 4.165-13.916 8.322-20.872 12.483-8.41 5.032-16.828 10.048-25.206 15.129-.848.514-1.84 1.325-2.077 2.184-.353 1.286-.092 2.739-.092 4.784zM471.04 260.624c-3.739-3.181-4.169-3.233-7.723-1.104-7.728 4.622-15.459 9.245-23.182 13.872-6.655 3.984-13.31 7.972-19.96 11.964-.9.542-2.029.944-2.093 2.225-.068 1.369-.016 2.747-.016 4.735 17.916-10.719 35.319-21.129 52.974-31.688zm-110.205 65.942c-3.337-3.124-4.129-3.241-7.378-1.297-10.703 6.402-21.406 12.8-32.105 19.202-3.747 2.241-7.507 4.457-11.213 6.759-.703.438-1.563 1.148-1.699 1.855-.269 1.402-.081 2.892-.081 4.892l52.476-31.407zm5.233-9.261c.575-20.386 1.133-40.263 1.695-60.251-4.289 1.257-4.92 1.936-5.028 5.663-.482 16.57-.896 33.141-1.418 49.708-.06 1.904.57 3.044 2.273 3.719.651.257 1.269.591 2.482 1.165zm111.309-126.001c-3.538 1.125-5.132 2.715-5.128 6.274 0 9.627-.442 19.253-.711 28.876-.185 6.595-.394 13.189-.518 19.788-.016.908.108 2.137.682 2.671.964.904 2.338 1.365 4.037 2.281.554-20.258 1.096-39.905 1.642-59.894zM257.711 322.703c-4.414 1.719-4.558 1.956-4.671 6.165-.221 8.554-.478 17.109-.715 25.663-.184 6.595-.393 13.189-.51 19.784-.016.896.181 2.092.759 2.631.92.855 2.249 1.269 3.446 1.891.755-2.534 2.233-53.042 1.683-56.134zm96.795.225c-3.334-2.683-3.354-2.683-6.458-.824-11.788 7.061-23.564 14.137-35.379 21.158-1.149.682-2.514 1-4.004 1.57-.093 1.494-.567 3.293.229 5.386 15.253-9.129 30.31-18.133 45.608-27.286zm-56.613-141.009c-7.121-.868-14.133-.739-21.217-.229 6.867 4.345 13.703 8.566 21.217 12.731zm-98.276 213.995.747.249c-1.237-3.333.923-4.353 2.988-5.574 7.594-4.487 15.145-9.037 22.707-13.579.735-.442 1.418-.96 2.181-1.478-3.117-2.719-3.494-2.767-6.643-.884-5.887 3.518-11.775 7.041-17.663 10.563-.61.365-1.205.775-1.851 1.068-1.213.55-1.675.289-2.037-1.104-.076-.293-.012-.627-.012-.94h-.417v11.675zm241.767-152.78c-3.594 2.14-7.109 4.229-10.619 6.321-3.474 2.068-6.908 4.205-10.627 6.33-.413-1.157-.686-1.912-.959-2.671-.093.016-.181.028-.274.044v8.944c.864-.675 1.743-1.518 2.764-2.128 6.936-4.161 13.908-8.266 20.856-12.411.711-.425 1.341-.984 2.1-1.55-1.177-1.044-2.088-1.851-3.241-2.879m-206.071 18.583c-.129 1.682-.265 2.887-.302 4.1-.164 5.426-.301 10.856-.445 16.282-.033 1.245-.141 2.498-.045 3.735.053.642.302 1.486.767 1.835 1.089.82 2.358 1.39 3.816 2.213.064-1.237.12-2.024.149-2.811.14-4.004.293-8.004.397-12.009.08-3.024.149-6.052.117-9.076-.008-.731-.221-1.711-.719-2.125-.972-.811-2.209-1.301-3.731-2.144zm109.702-65.493c-.104 1.081-.209 1.771-.229 2.466-.196 6.755-.389 13.515-.566 20.27-.08 3.121.843 4.121 4.426 4.703.08-1.064.197-2.113.229-3.165.193-6.313.249-12.631.606-18.932.133-2.33-.582-3.735-2.675-4.551-.481-.188-.943-.413-1.791-.791m-78.039 143.784c-.626 3.438-.602 3.531 1.767 4.928a7893.948 7893.948 0 0 0 19.102 11.234c.739.433 1.53.775 2.349 1.188.663-3.184.49-3.69-1.775-5.024a5340.99 5340.99 0 0 0-19.338-11.354c-.586-.345-1.241-.574-2.105-.968zm133.202-48.086c.229-2.558-.209-4.241-2.514-5.518-6.302-3.486-12.447-7.253-18.664-10.896-.714-.417-1.486-.739-2.317-1.148-.63 3.486-.598 3.602 1.928 5.092a8425.265 8425.265 0 0 0 19.322 11.358c.662.386 1.373.687 2.245 1.116zm64.938-90.505c-1.012.518-1.723.836-2.386 1.229a61246.62 61246.62 0 0 0-38.531 23.053c-.534.322-1.129.591-1.554 1.024-.286.29-.322.828-.691 1.9 1.413-.787 2.253-1.229 3.068-1.715 5.968-3.562 11.928-7.133 17.892-10.699 6.727-4.024 13.467-8.036 20.174-12.093.831-.502 2.084-.735 2.028-2.699m-110.108 77.818c-1.101-.249-1.816.554-2.595 1.02-9.048 5.382-18.077 10.792-27.109 16.194-3.828 2.289-7.663 4.566-11.475 6.883-.751.454-1.835.768-1.502 2.442 1.029-.554 1.868-.972 2.675-1.454 10.948-6.542 21.893-13.092 32.841-19.643 1.992-1.193 3.984-2.373 5.964-3.586.634-.39 1.522-.659 1.205-1.852zM241.851 382.817c-1.775-1.028-2.598-.124-3.426.37-8.952 5.325-17.888 10.687-26.824 16.036-2.98 1.784-5.96 3.563-8.932 5.358-.655.394-1.442.759-.868 2.201 13.282-7.944 26.439-15.82 40.054-23.965zM420.853 275.03c.378.069.571.165.703.113a8.55 8.55 0 0 0 1.197-.595c11.623-6.98 23.242-13.964 34.861-20.952.064-.036.096-.153.112-.237.016-.08-.008-.169-.028-.39-1.249-.771-2.137.281-3.028.812-10.659 6.337-21.294 12.715-31.933 19.089-.534.321-1.109.614-1.546 1.04-.237.233-.225.723-.33 1.116zm-72.637 44.126c-1.92-1.012-2.723-.04-3.566.462-10.354 6.157-20.684 12.35-31.017 18.535-.687.414-1.41.799-1.996 1.329-.274.249-.257.816-.547 1.896 12.611-7.55 24.652-14.756 37.126-22.222m-116.791 58.32-.422-.948c-.835.333-1.731.566-2.498 1.02-5.59 3.305-11.161 6.659-16.731 9.996-2.9 1.739-5.808 3.47-8.699 5.221-.651.394-1.45.763-.84 2.177 9.8-5.864 19.495-11.667 29.19-17.466m120.603-177.284c-.121 1.43-.217 2.209-.241 2.988-.161 5.165-.31 10.33-.454 15.495-.052 1.871-.105 3.739-.121 5.611-.008.895-.02 1.851 1.462 1.943.121-.658.334-1.325.358-2 .245-7.12.465-14.241.682-21.362.012-.438.053-.952-.148-1.305-.225-.398-.703-.655-1.534-1.37zm-10.443-6.426c-.168 1.506-.321 2.35-.353 3.197-.108 2.755-.177 5.511-.253 8.266-.112 4.088-.237 8.177-.321 12.265-.02 1.012-.306 2.225 1.538 2.659.12-.88.305-1.703.333-2.53.221-6.844.418-13.684.611-20.527.016-.53.1-1.117-.089-1.583-.188-.473-.67-.831-1.47-1.747zM232.513 286.32c.149-1.422.265-2.169.302-2.92.128-2.578.269-5.157.333-7.739.112-4.538.177-9.081.245-13.619.012-.88.036-1.819-1.542-1.984-.089.996-.213 1.924-.241 2.851-.201 6.587-.39 13.174-.571 19.76-.016.623-.096 1.281.085 1.852.152.478.634.855 1.389 1.795zm9.904-20.145c-.128 1.048-.285 1.819-.309 2.59-.209 6.779-.398 13.555-.586 20.334-.016.534-.097 1.117.08 1.59.181.49.639.88.976 1.31l.53-.141c.1-1.293.249-2.582.289-3.879.193-6.242.374-12.487.514-18.728.024-1.06.49-2.386-1.49-3.08zm21.668 38.33c.144-.586.289-.911.297-1.241.213-7.474.414-14.948.61-22.418.012-.442.101-.964-.092-1.31-.237-.421-.735-.69-1.345-1.229-.157.78-.274 1.117-.286 1.458a6827.61 6827.61 0 0 0-.638 22.158c-.016.526-.036 1.12.185 1.566.192.386.722.603 1.265 1.02zm109.666-65.801c.133-.675.301-1.173.318-1.679.24-7.31.465-14.619.686-21.929.012-.353.089-.791-.08-1.048-.285-.434-.739-.751-1.325-1.309-.229.699-.422 1.02-.43 1.345-.237 7.579-.458 15.153-.671 22.732-.024.839.125 1.623 1.494 1.888zm47.588 24.744c.426-.121.86-.153 1.193-.35a6289.002 6289.002 0 0 0 24.495-14.675c.293-.177.438-.598.65-.904-.104-.168-.212-.333-.317-.502-.831.346-1.719.595-2.49 1.052-5.663 3.354-11.305 6.748-16.952 10.129-1.832 1.097-3.671 2.181-5.486 3.306-.631.389-1.506.69-1.097 1.948zM311.641 329.47c6.723-4.016 13.137-7.832 19.526-11.679 2.129-1.281 4.201-2.655 6.294-3.992.048-.028.052-.157.044-.233-.008-.085-.06-.165-.125-.33-.931-.626-1.638.137-2.353.551-2.462 1.433-4.892 2.923-7.334 4.389-4.811 2.884-9.634 5.748-14.434 8.651-.763.462-1.875.735-1.618 2.639zm25.719-28.025c.944.719 1.671.076 2.386-.35 3.217-1.911 6.422-3.843 9.631-5.767 1.526-.916 3.06-1.823 4.582-2.755.631-.385 1.129-.851.647-1.691-2.9 1.057-15.948 9.029-17.246 10.559zm110.181-65.982c.779.775 1.462.225 2.133-.169 2-1.177 3.992-2.37 5.98-3.562 2.602-1.559 5.209-3.113 7.803-4.691.659-.402 1.414-.812.876-1.832-2.956 1.093-15.535 8.784-16.788 10.25zM245.257 356.31c-4.466 1.844-13.161 7.334-14.161 8.98.63-.06 1.212.049 1.594-.18a790.406 790.406 0 0 0 12.261-7.478c.193-.121.153-.611.302-1.322zm109.132-53.737c-3.345 1.29-6.016 3.045-6.888 4.483 1.635.108 2.318-.181 5.788-2.503.622-.417 1.522-.682 1.1-1.976zm109.851-65.552c-2.895.859-5.683 2.647-6.598 4.117 2.068.148 5.558-1.92 6.598-4.117M244.429 368.07c-1.116.703-2.233 1.409-3.723 2.345 2.535.354 3.189-.012 3.723-2.345"/>
    <path fill="#222638" d="M373.844 118.703c1.185.418 1.695.518 2.124.763 28.13 16.089 93.574 54.962 94.891 56.356-.124 1.18-1.221 1.16-1.972 1.474-5.317 2.196-3.55 2.297-8.245-.454-27.607-16.198-55.187-32.451-82.806-48.633-1.86-1.088-2.98-2.361-3.129-4.558-.1-1.458-.494-2.896-.863-4.948m2.357 3.165c-.209 2.333.402 4.032 2.635 5.253 4.61 2.526 9.097 5.285 13.631 7.952 23.286 13.695 46.572 27.395 69.866 41.082 2.65 1.558 3.12 1.494 5.602-.498-2.064-1.843-89.681-53.259-91.734-53.789m-15.178 56.055c1.201-.8 1.9-1.31 2.639-1.751a40158.332 40158.332 0 0 1 42.006-25.138c1.168-.699 2.365-1.831 3.911.129-4.791 3.333-9.863 6.084-14.783 9.072-4.956 3.008-9.948 5.952-14.92 8.928-4.952 2.968-9.9 5.948-14.812 8.9.249 1.157.855 1.386 1.622 1.093.659-.253 1.265-.655 1.876-1.02 10.791-6.451 21.575-12.913 32.374-19.355 3.213-1.919 6.459-3.787 9.688-5.683.662-.389 1.297-.983 2.144-.048-3.237 2.583-6.265 5.274-10.117 6.776-.903.353-1.723.927-2.566 1.429-10.33 6.177-20.703 12.294-30.953 18.603-2.076 1.278-3.663 1.442-5.486-.092-.663-.558-1.418-1.004-2.623-1.847zm-45.805-23.383c.566.145 1.089.161 1.482.39a96772.078 96772.078 0 0 1 94.734 55.901c.109.065.012.474.012.948-.562-.132-1.096-.136-1.494-.373a85246.135 85246.135 0 0 1-94.722-55.918c-.108-.064-.012-.47-.012-.952zm37.336 18.611c-.486-.409-.992-.839-1.615-1.361.426-.462.663-.864 1.009-1.077 2.891-1.771 5.803-3.506 8.715-5.249 11.558-6.92 23.121-13.84 34.68-20.763 1.08-.647 2.124-1.523 3.369.024-.582 1.225-1.823 1.763-2.924 2.425-12.325 7.386-24.659 14.756-36.985 22.138-1.984 1.189-3.936 2.434-6.249 3.863m35.727-34.181c-1.185.775-2.201 1.49-3.265 2.124-13.233 7.932-26.471 15.852-39.704 23.776-1.016.607-2.273 1.02-1.956 2.767l-3.189-2.136c.96-.671 1.687-1.245 2.474-1.719 13.225-7.936 26.463-15.86 39.692-23.784 1.149-.687 2.305-1.362 3.43-2.081 1.116-.718 1.807-.257 2.514 1.053zm63.183 37.121c-1.012.691-1.859 1.333-2.767 1.876-13.671 8.197-27.35 16.382-41.026 24.567-1.209.723-2.417 1.594-3.903.393.192-1.329 1.369-1.582 2.221-2.092 11.373-6.828 22.763-13.627 34.149-20.434 2.828-1.691 5.667-3.362 8.475-5.089 1.1-.679 1.967-.679 2.851.779m-58.496 20.375c.735-.574 1.281-1.097 1.911-1.478 14.294-8.579 28.604-17.137 42.898-25.724 1.156-.695 2.188-1.165 3.445.353-.996.715-1.863 1.434-2.819 2.009-13.763 8.257-27.535 16.494-41.307 24.739-1.22.731-2.425 1.543-4.128.097zm26.861-38.97c-.927.643-1.831 1.353-2.807 1.94a35187.689 35187.689 0 0 1-40.656 24.338c-1.269.759-2.526 1.763-4.197.606.1-1.245 1.193-1.481 1.964-1.947 8.944-5.382 17.9-10.744 26.86-16.105 5.205-3.117 10.43-6.205 15.619-9.346 1.193-.719 2.241-1.209 3.221.514zm-37.42 32.776c.928-.679 1.635-1.285 2.422-1.759 12.932-7.755 25.872-15.498 38.813-23.242 1.377-.823 2.763-1.638 4.124-2.49 1.024-.642 1.816-.425 2.659.747-.843.639-1.623 1.342-2.502 1.872-13.776 8.265-27.563 16.506-41.343 24.756-1.213.727-2.406 1.562-4.169.112zm-52.544-30.675c1.579-1.844 29.503-18.924 44.805-27.507.578-.325 1.233-.518 1.799-.751.792.984.631 1.707-.052 2.317-.393.354-.875.611-1.333.884-13.619 8.153-27.234 16.314-40.877 24.43-.952.567-2.105.812-3.189 1.113-.253.068-.61-.245-1.157-.49zm14.973 8.928c-.165-1.522 1-1.731 1.763-2.193a2557.016 2557.016 0 0 1 16.72-10.032c8.795-5.238 17.603-10.459 26.414-15.672.474-.281 1.032-.409 1.759-.69-.064.562 0 .923-.136 1.02-2.647 1.927-5.197 4.028-8.001 5.699-11.767 7.008-23.607 13.892-35.427 20.816-.614.361-1.212.759-1.867 1.024-.345.14-.791.024-1.225.024zm57.179-21.535c-2.687 2.237-5.454 4.333-8.551 6.044-5.06 2.796-10.036 5.735-15.009 8.679-6.743 3.992-13.446 8.053-20.181 12.057-.859.51-1.699 1.357-2.948.719.048-1.458 1.301-1.667 2.121-2.165a3964.132 3964.132 0 0 1 23.37-14.008 3700.68 3700.68 0 0 1 18.864-11.125c.627-.37 1.317-.627 1.976-.936.121.241.237.486.358.727zm-69.019 14.538c1.498-.759 2.992-1.414 4.378-2.241 9.265-5.506 18.506-11.049 27.756-16.583 4.506-2.695 9.004-5.41 13.518-8.089.763-.449 1.567-1.325 2.759 0-.682.526-1.237 1.045-1.871 1.43-4.33 2.615-8.675 5.205-13.013 7.8-5.731 3.429-11.466 6.863-17.197 10.293-4.205 2.514-8.426 5-12.603 7.563-1.373.843-2.566 1.016-3.727-.173m121.872 16.278c-1.542 1.249-2.96 2.711-4.647 3.719-13.016 7.772-26.077 15.463-39.146 23.142-.895.526-1.763 1.63-3.144.759.104-1.269 1.184-1.522 1.964-1.992a4209 4209 0 0 1 20.663-12.386 6690.6 6690.6 0 0 1 22.563-13.382c.406-.241.904-.33 1.357-.49.129.209.262.421.39.63m-10.57-6.205c-3.538 3.365-7.687 5.518-11.779 7.827-7.687 4.342-15.194 9.005-22.772 13.539-3.213 1.924-6.414 3.867-9.647 5.759-.775.454-1.538 1.309-2.679.502-.02-1.177.972-1.422 1.679-1.843 9.253-5.555 18.511-11.105 27.78-16.631 5.133-3.061 10.286-6.081 15.434-9.113.583-.342 1.149-.968 1.988-.04zm-67.902 15.358c-.121-1.358 1.012-1.591 1.783-2.056a5811.739 5811.739 0 0 1 21.804-13.057 5351.588 5351.588 0 0 1 21.181-12.531c.534-.313 1.157-.474 1.739-.707l.338.603c-1.603 1.285-3.093 2.759-4.836 3.819-4.635 2.824-9.406 5.426-14.073 8.193-8.361 4.956-16.679 9.985-25.041 14.941-.831.494-1.622 1.498-2.899.791zm57.13-21.728c-.06.289-.036.534-.14.615-1.603 1.245-3.125 2.642-4.856 3.675-12.924 7.695-25.893 15.317-38.857 22.948-.791.466-1.554 1.225-2.598.779-.45-1.265.55-1.482 1.156-1.855a854.685 854.685 0 0 1 10.306-6.201c10.804-6.414 21.607-12.82 32.427-19.202.751-.441 1.462-1.353 2.562-.759M251.69 307.706c-1.956.792-3.868 1.743-5.888 2.29-.763.204-1.855-.406-2.666-.876-7.559-4.402-15.085-8.856-22.624-13.29-20.539-12.08-41.061-24.185-61.645-36.194-2.132-1.245-3.393-2.686-3.538-5.164-.076-1.294-.438-2.567-.646-3.715 1.293-.904 1.96-.057 2.67.361 9.471 5.55 18.925 11.125 28.387 16.691 21.153 12.443 42.311 24.877 63.464 37.323.88.518 1.715 1.116 2.57 1.679-.024.301-.052.598-.076.899zm-2.908-.715c-2.385-2.128-89.919-53.415-91.911-53.861-.124 2.309.314 4.233 2.735 5.197.655.261 1.229.719 1.844 1.08 27.206 16.001 54.428 31.981 81.589 48.054 2.141 1.265 3.763 1.065 5.739-.466zm-103.313 2.507c1.41 1.614 2.33.755 3.209.237 3.539-2.081 7.049-4.209 10.575-6.31 10.812-6.434 21.623-12.868 32.447-19.282.43-.257.984-.301 1.482-.445l.285.546c-1.679 1.361-3.221 2.952-5.056 4.048-13.258 7.884-26.584 15.663-39.869 23.499-.936.55-1.743.755-2.707.08-1.149-.807-2.366-1.518-3.956-2.526 1.1-.843 1.851-1.538 2.707-2.052 12.623-7.579 25.266-15.133 37.897-22.696a544.096 544.096 0 0 0 5.04-3.048c1.097-.675 1.823-.378 2.346 1.004-3.37 2.719-7.318 4.611-11.005 6.892-3.643 2.253-7.337 4.422-11.016 6.622-3.751 2.246-7.511 4.483-11.262 6.732-3.646 2.188-7.281 4.389-11.109 6.699zm-49.141-24.006 96.228 56.593-.157.594c-.433.064-.927.293-1.285.161-.743-.278-1.417-.739-2.112-1.145-30.214-17.772-60.428-35.539-90.626-53.339-.96-.567-2.39-.795-2.534-2.253l.49-.611h-.004m83.405-9.389c-1.073.763-2.012 1.534-3.045 2.153-13.072 7.843-26.157 15.663-39.234 23.502-1.361.816-2.667 1.723-4.161 2.695-.47-.429-1.024-.94-1.759-1.61.852-.615 1.458-1.117 2.121-1.514 14.225-8.519 28.463-17.017 42.676-25.551 1.161-.699 2.161-1.205 3.398.329zm-56.469 22.137c-.51-.337-1.221-.807-2.257-1.494.799-.626 1.345-1.152 1.98-1.534 14.285-8.567 28.587-17.113 42.873-25.684 1.064-.638 2.044-1.225 3.145.462-1.009.727-1.997 1.551-3.089 2.205-13.294 7.98-26.603 15.928-39.893 23.913-.908.542-1.687 1.293-2.759 2.128zm108.988 8.94c-.984.715-1.799 1.401-2.702 1.944a33548.431 33548.431 0 0 1-41.11 24.611c-1.201.719-2.39 1.598-3.86.506.149-1.45 1.362-1.695 2.205-2.205 7.944-4.795 15.916-9.542 23.876-14.31 6.045-3.618 12.093-7.241 18.134-10.872 1.088-.654 2.152-1.441 3.457.33zm-75.147-44.712c.955 1.06.795 1.787.08 2.377-.546.45-1.181.8-1.791 1.165-13.547 8.113-27.098 16.222-40.644 24.326-1.213.727-2.402 1.623-3.948.494.06-1.241 1.132-1.506 1.907-1.972 9.483-5.695 18.977-11.366 28.471-17.045 4.595-2.747 9.181-5.506 13.78-8.245.671-.397 1.386-.715 2.153-1.1zm54.259 32.229c-1.013.723-1.832 1.394-2.727 1.932-13.776 8.266-27.564 16.511-41.351 24.76-1.205.719-2.406 1.631-4.121.084.795-.598 1.422-1.168 2.133-1.594 14.237-8.53 28.491-17.037 42.72-25.587 1.121-.671 2.068-1.053 3.338.405zm-10.704-6.152c-.944.699-1.739 1.398-2.635 1.936-13.759 8.257-27.531 16.487-41.294 24.736-1.153.691-2.274 1.402-3.663.498-.125-1.414 1.036-1.635 1.799-2.093 6.105-3.682 12.237-7.325 18.354-10.988 7.952-4.759 15.904-9.526 23.856-14.29 1.073-.642 2.137-1.478 3.583.205zm20.985 12.57c-.883.615-1.65 1.221-2.482 1.719-13.703 8.213-27.414 16.415-41.126 24.62-1.213.727-2.405 1.618-4.004.542.036-1.229 1.117-1.49 1.888-1.956 6.49-3.924 12.996-7.824 19.507-11.719 7.658-4.583 15.321-9.157 22.976-13.74 1.109-.662 2.189-1.47 3.241.534m-107.828-8.342c1.237-.622 2.354-1.096 3.386-1.71 9.486-5.659 18.961-11.342 28.439-17.017 4.659-2.791 9.318-5.587 13.98-8.374.731-.438 1.47-1.128 2.382.052-.281.342-.486.747-.815.96-3.041 2.004-6.041 4.081-9.173 5.936-11.406 6.751-22.865 13.422-34.291 20.141-1.285.755-2.502 1.49-3.843.173a.32.32 0 0 1-.069-.161zm58.669-20.803c-2.233 1.634-4.217 3.353-6.438 4.679-12.534 7.462-25.117 14.836-37.7 22.213-.835.49-1.655 1.486-2.94.591.068-1.245 1.173-1.478 1.932-1.936a5644.72 5644.72 0 0 1 24.985-14.96 2461.715 2461.715 0 0 1 17.727-10.434c.607-.354 1.217-1.145 2.434-.149zm-15.614 45.97c1.55-1.691 39.536-24.752 45.544-27.696.345-.169.779-.149 1.45.245-1.362 1.161-2.587 2.546-4.101 3.45-13.241 7.896-26.531 15.707-39.825 23.519-.839.494-1.674 1.458-3.068.478zm31.334 18.84c2-2.089 30.138-19.27 37.632-23.142 3.108-1.606 5.908-3.803 9.538-5.297-.747 1.506-2.807 3.526-4.176 4.317-5.398 3.117-10.824 6.189-16.19 9.362-7.374 4.358-14.703 8.796-22.057 13.189-.919.55-1.839 1.109-2.815 1.542-.39.173-.92.029-1.932.029m26.563-40.344c-3.783 3.478-7.768 5.691-11.828 7.884-5.795 3.133-11.354 6.707-17.013 10.093-5.277 3.157-10.546 6.317-15.836 9.454-.763.454-1.594 1.345-2.486.121 1.113-1.282 43.496-26.969 45.87-27.785.261-.088.614.101 1.297.233zm-31.82-18.293c-3.422 2.759-6.8 5.249-10.699 7.073-3.057 1.429-5.864 3.401-8.772 5.14-8.117 4.856-16.225 9.728-24.358 14.559-.9.534-1.807 1.466-2.952.803-.072-.337-.113-.425-.104-.51.008-.084.032-.201.092-.245.486-.381.952-.799 1.482-1.112a48850.098 48850.098 0 0 1 43.953-26.13c.149-.088.338-.112.51-.14a.612.612 0 0 1 .261.048.76.76 0 0 1 .229.116c.069.053.117.125.358.398m42.005 24.772c-2.635 2.322-5.466 4.382-8.551 6.093-2.642 1.47-5.321 2.875-7.92 4.418-9.116 5.413-18.197 10.884-27.31 16.301-.851.506-1.646 1.426-2.915.936-.249-1.406.891-1.655 1.642-2.108 4.8-2.908 9.611-5.796 14.438-8.659a14230.6 14230.6 0 0 1 28.507-16.884c.547-.322 1.161-.523 1.743-.78l.362.683zm136.451-61.159c-1.932 1.309-4.109 2.273-6.446 2.643-.796.124-1.788-.667-2.623-1.153a26586.034 26586.034 0 0 1-35.065-20.599c-16.374-9.631-32.732-19.294-49.143-28.86-1.791-1.045-2.839-2.258-3.028-4.322-.14-1.55-.49-3.08-.731-4.502.406-.205.482-.249.562-.277.081-.028.197-.084.253-.052 31.54 18.478 63.079 36.965 94.614 55.451.458.27.896.579 1.313.904.117.092.129.313.298.771zm-3.069-.333c-1.466-1.502-88.87-53.022-91.866-54.111-.024 2.31.357 4.025 2.594 5.334a21294.885 21294.885 0 0 1 83.734 49.235c2.149 1.269 3.783.976 5.538-.458m-58.363-24.551c-14.884 9.221-29.933 17.86-44.696 26.953.06.244.116.489.176.734.611.045 1.278.262 1.82.093.747-.233 1.409-.751 2.096-1.165 10.647-6.366 21.286-12.739 31.937-19.093a652.912 652.912 0 0 1 9.711-5.659c.478-.273 1.057-.373 1.755-.285-1.626 1.86-3.405 3.478-5.522 4.695-4.398 2.534-8.836 5-13.205 7.579-8.454 4.988-16.9 9.988-25.282 15.097-1.53.931-2.687 1.076-4.081-.029-.883-.698-1.891-1.237-3.305-2.136 1.205-.848 1.992-1.482 2.851-1.996 11.864-7.109 23.736-14.198 35.608-21.298 2.374-1.418 4.751-2.836 7.109-4.281 1.06-.651 1.984-.719 3.032.791zm1.727 60.499c-.322-.036-.703.028-.96-.124-31.62-18.583-63.231-37.178-94.835-55.789-.257-.153-.381-.526-.566-.792.928-.955 1.586-.192 2.209.161 2.558 1.454 5.092 2.956 7.631 4.45 28.149 16.559 56.303 33.122 84.444 49.693.86.506 1.647 1.144 2.466 1.719l-.393.682zm8.759-54.443c-1.072.743-1.972 1.446-2.948 2.032-13.671 8.197-27.35 16.378-41.033 24.563-.534.321-1.065.675-1.643.884-.892.325-1.727.261-2.394-.824.41-.369.739-.775 1.157-1.024 14.434-8.651 28.881-17.29 43.319-25.936 1.124-.675 2.205-1.318 3.542.305m-76.813 10.23c-1.012-.687-1.855-1.257-2.735-1.856.289-1.201 1.338-1.462 2.117-1.932 13.289-7.98 26.595-15.932 39.897-23.892.992-.594 2.02-1.141 2.976-1.791 1.088-.739 1.952-.53 2.964.63-1.201.828-2.302 1.675-3.486 2.386-13.218 7.932-26.451 15.836-39.668 23.76-.997.598-2.338.944-2.061 2.691zm9.417 5.678-2.077-1.458c1.169-.819 2.037-1.51 2.98-2.076 11.92-7.149 23.849-14.274 35.773-21.411 2.217-1.325 4.454-2.622 6.634-4.004 1.133-.719 1.972-.63 2.816.771-.988.691-1.948 1.446-2.988 2.073-13.218 7.928-26.451 15.836-39.668 23.764-1.129.678-2.189 1.474-3.474 2.345zm77.722-9.563c-.932.647-1.699 1.253-2.53 1.752-13.683 8.205-27.378 16.394-41.066 24.599-1.241.743-2.442 1.526-4.02.727-.217-1.33.948-1.571 1.699-2.024 5.028-3.049 10.089-6.053 15.137-9.073 9.177-5.494 18.358-10.98 27.531-16.487 1.133-.678 2.201-1.381 3.257.506zm10.579 6.085c-.984.719-1.796 1.41-2.695 1.948a12403.513 12403.513 0 0 1-40.909 24.459c-.944.562-2.105.791-3.189 1.08-.245.065-.595-.281-.912-.446.125-1.321 1.209-1.558 1.992-2.028 8.334-5.016 16.688-10 25.033-15a15068.01 15068.01 0 0 0 17.222-10.322c1.08-.651 2.144-1.474 3.458.309m10.711 6.113c-.964.687-1.84 1.406-2.803 1.98-13.744 8.245-27.499 16.474-41.255 24.704-1.205.718-2.406 1.574-4.157.028 1.157-.796 2.097-1.514 3.105-2.117 11.305-6.775 22.619-13.527 33.929-20.29 2.675-1.598 5.361-3.181 8.008-4.819 1.129-.699 2.101-.832 3.169.514zm-74.879-44.66c.627 1.976-.365 2.506-1.289 3.064-2.136 1.289-4.281 2.57-6.422 3.851-11.627 6.957-23.254 13.917-34.884 20.869-1.278.763-2.527 1.783-4.197.63-.057-1.177.972-1.389 1.666-1.807 9.398-5.647 18.808-11.27 28.214-16.9 4.743-2.84 9.474-5.691 14.23-8.507.783-.461 1.67-.755 2.682-1.2m-43.563 30.286c1.156-.595 2.265-1.093 3.301-1.711 9.651-5.755 19.294-11.535 28.937-17.306 4.285-2.562 8.558-5.145 12.86-7.679.763-.45 1.522-1.341 2.683-.498-.081 1.37-1.302 1.607-2.133 2.109-9.382 5.654-18.788 11.273-28.19 16.9-4.667 2.795-9.353 5.566-13.996 8.402-1.289.787-2.39 1.064-3.462-.221zm63.861 37.7c1.595-1.768 39.849-24.981 45.58-27.74.35-.169.799-.141 1.309 0-1.546 1.827-3.293 3.365-5.317 4.542-3.076 1.791-6.237 3.43-9.298 5.245-9.658 5.731-19.277 11.523-28.932 17.266-.916.546-1.8 1.53-3.346.691zm36.537-33.636c-2.458 2.072-4.993 4.032-7.816 5.635a1193.098 1193.098 0 0 0-17.33 10.028c-6.366 3.755-12.679 7.599-19.033 11.374-.771.458-1.546 1.305-2.703.526.029-1.418 1.298-1.622 2.113-2.116a3314.991 3314.991 0 0 1 21.077-12.631 5688.908 5688.908 0 0 1 21.84-12.917c.466-.273 1.028-.381 1.542-.566.105.221.205.442.31.663zm-89.281 2.551c.687-.623 1.06-1.101 1.546-1.39a20948.28 20948.28 0 0 1 44.873-26.531c.141-.084.47.149.964.322-1.494 1.273-2.751 2.61-4.249 3.57-3.819 2.446-7.719 4.767-11.631 7.064a5290.746 5290.746 0 0 1-27.929 16.29c-.923.534-1.791 1.591-3.574.675m78.818-8.98c-2.586 2.614-5.522 4.643-8.683 6.382-3.116 1.715-6.265 3.389-9.326 5.205-8.667 5.14-17.289 10.353-25.948 15.502-.832.494-1.667 1.47-2.94.603.06-1.261 1.181-1.494 1.94-1.952a3401.105 3401.105 0 0 1 20.43-12.23c7.434-4.421 14.88-8.823 22.33-13.213.611-.361 1.209-1.185 2.197-.297m31.804 18.586c-3.811 3.394-7.992 5.655-12.145 8.033-10.426 5.976-20.663 12.285-30.981 18.454-.839.502-1.683 1.016-2.583 1.382-.373.153-.895-.068-1.975-.189.979-.791 1.449-1.269 2.004-1.598 14.92-8.852 29.852-17.688 44.792-26.503.117-.068.426.193.888.421m-52.929-31.595c-.112.67-.064 1.028-.205 1.132-2.112 1.579-4.148 3.298-6.402 4.639-7.273 4.337-14.647 8.51-21.956 12.796-5.153 3.024-10.254 6.14-15.398 9.181-.848.502-1.671 1.405-2.824.763-.249-1.249.747-1.43 1.358-1.808 3.341-2.056 6.715-4.064 10.084-6.076a29294.68 29294.68 0 0 1 34.022-20.258c.277-.165.642-.185 1.321-.369m-169.054 167.76c-1.422-.465-.992-1.514-.976-2.317.097-4.908.249-9.812.382-14.719.309-11.33.622-22.66.907-33.989.024-1.045.39-2.334-1.526-3.053-.092 1.169-.205 2.081-.229 2.996-.413 14.896-.815 29.797-1.225 44.693-.02.803-.032 1.61-.144 2.401-.137.984-.607 1.667-2.113 1.382-.614-5.956.314-11.956.309-17.953 0-5.976.302-11.952.474-17.928.177-6.04.366-12.081.555-18.442.927.281 1.538.349 2.02.634 4.076 2.398 8.092 4.896 12.209 7.225 1.538.872 2.064 1.96 2.008 3.671-.245 7.314-.389 14.631-.586 21.945-.241 8.831-.49 17.663-.763 26.495-.032 1.016-.241 2.028-.438 3.606-.739-.791-1.169-1.08-1.333-1.478-.157-.381-.053-.875-.041-1.321.438-14.181.884-28.363 1.314-42.544.068-2.317.084-4.638.096-6.96.004-.907-.016-1.855-1.618-1.835-.065.936-.161 1.875-.189 2.823-.434 14.896-.856 29.796-1.285 44.693-.024.803.08 1.666-.193 2.381-.201.53-.908.872-1.39 1.297-.265-.506-.755-1.008-.755-1.514.004-3.301.105-6.602.193-9.904.257-9.365.522-18.731.791-28.093.101-3.478.201-6.956.338-10.434.148-3.775-.258-4.326-4.523-5.547-.068.996-.164 1.932-.193 2.872-.445 15.254-.875 30.507-1.341 45.761-.032 1.072.257 2.305-.735 3.144zm59.319 46.143c-3.081-1.008-95.626-55.588-97.116-57.247 2.213-1.281 4.574-1.972 6.968-2.361.803-.129 1.807.614 2.639 1.104 14.695 8.619 29.378 17.258 44.065 25.893 13.226 7.775 26.411 15.619 39.709 23.269 2.389 1.374 3.558 2.993 3.53 5.651-.012 1.125.116 2.249.201 3.691zm-93.799-56.745c.342.378.482.627.691.751a190900.62 190900.62 0 0 0 89.196 52.52c.458.269.96.462 1.446.679.068.032.172 0 .257-.024.08-.02.152-.069.321-.153.454-2.353-.442-3.831-2.614-5.1a21509.09 21509.09 0 0 1-83.003-48.809c-2.201-1.302-4.08-1.478-6.298.144l.004-.008m64.798-24.824c-.068 1.337-.137 2.369-.169 3.405-.409 14.72-.811 29.435-1.221 44.155-.024.803-.032 1.61-.128 2.405-.121.976-.534 1.703-2.097 1.49-.072-.843-.241-1.759-.217-2.671.197-8.205.406-16.41.655-24.615.249-8.117.546-16.229.831-24.342.028-.787.101-1.574.149-2.358 3.438.149 5.651 2.177 5.574 5.053-.445 16.229-.915 32.455-1.377 48.68-.016.623-.004 1.261-.149 1.86-.084.345-.45.626-.751 1.012-1.124-.832-.811-1.876-.787-2.783.221-8.294.49-16.591.719-24.885.217-7.848.422-15.699.582-23.547.02-.964.402-2.201-1.614-2.855zm17.539 63.906c-.109-.566-.302-1.14-.322-1.723-.321-9.35 1.145-49.652 1.936-52.504 2.008.237 3.595 1.378 4.924 2.727.49.498.397 1.683.377 2.551a4573.985 4573.985 0 0 1-1.417 48.973c-.028.836-.161 1.667-.245 2.498-.221.053-.438.101-.659.153-.273-.43-.759-.847-.779-1.289-.064-1.514.028-3.032.072-4.547.301-10.526.599-21.049.908-31.575.14-4.727.313-9.454.45-14.181.028-1.024.184-2.185-1.643-2.522-.092 1.136-.221 2.16-.249 3.188-.418 14.72-.823 29.443-1.233 44.163-.024.891-.024 1.791-.145 2.67-.132.984-.638 1.639-1.971 1.422zm-9.201-61.047c2.028 1.197 3.506 1.976 4.859 2.928.418.293.603 1.052.699 1.63.117.695.036 1.422.02 2.137-.446 15.88-.891 31.76-1.357 47.636-.028.992-.253 1.98-.39 2.968-.185.028-.373.052-.558.081-.285-.366-.675-.699-.819-1.113-.141-.398-.032-.883-.02-1.329.441-14.451.891-28.897 1.329-43.347.06-2.052.08-4.105.1-6.157.012-.916-.016-1.831-1.626-1.976-.065.944-.161 1.868-.185 2.787-.434 14.896-.859 29.796-1.293 44.693-.024.803.06 1.642-.149 2.393-.185.663-.711 1.229-1.422 2.382-.421-1.205-.759-1.735-.767-2.273-.04-2.053 0-4.105.061-6.157.361-13.201.727-26.403 1.112-39.6.068-2.297.237-4.595.406-7.683M87.609 299.02c1.1.445 1.747.63 2.317.947 19.731 10.908 92.975 54.42 94.614 56.308-.635.04-1.117.196-1.506.064-.583-.197-1.097-.587-1.635-.9-30.447-17.904-60.898-35.808-91.337-53.729-.86-.506-2.02-.763-2.457-2.69h.004m21.755 17.695c1.635.153 1.936 1.06 2.045 2.056.076.703.028 1.426.008 2.137-.422 15.595-.84 31.194-1.286 46.789-.024.867-.164 1.775-.482 2.57-.128.325-.871.554-1.333.546-.225-.004-.606-.642-.626-1.008-.065-1.152-.004-2.317.028-3.474.474-15.771.952-31.543 1.437-47.315.021-.695.121-1.389.205-2.305zm32.511 18.494c.381.707.867 1.382 1.108 2.137.181.566.06 1.237.044 1.859-.425 15.695-.855 31.395-1.289 47.09-.016.623-.028 1.257-.148 1.864-.177.899-.755 1.349-2.069 1.281-.076-.932-.233-1.852-.213-2.767.141-6.153.306-12.306.49-18.459.314-10.342.643-20.687.984-31.029.02-.578.205-1.153.31-1.727l.779-.249zm-42.937-24.944c1.494.55 1.956 1.429 1.976 2.586a83.836 83.836 0 0 1-.04 3.474c-.426 14.969-.852 29.937-1.285 44.901-.025.8.028 1.651-.241 2.374-.165.45-.864.703-1.322 1.044-.269-.414-.706-.803-.767-1.245-.116-.875-.04-1.779-.016-2.667.45-16.036.9-32.069 1.366-48.106.02-.739.2-1.474.333-2.361zm4.096 2.1c1.655 1.121 1.374 2.173 1.358 3.089-.081 4.369-.209 8.739-.326 13.109-.313 11.767-.614 23.535-.963 35.302-.033 1.068.317 2.329-.824 3.145-1.209-.301-1.016-1.173-.992-1.94.177-6.418.362-12.836.546-19.258.286-9.984.567-19.968.868-29.953.032-1.004.185-2 .333-3.494m10.391 6.916c1.702.261 1.522 1.173 1.522 1.916 0 2.141-.036 4.277-.093 6.414-.345 12.647-.69 25.298-1.052 37.945-.06 2.048-.161 4.097-.301 6.141-.04.554-.301 1.096-.594 2.096-.535-.759-.896-1.1-1.033-1.518-.132-.402-.04-.883-.028-1.325.201-7.037.402-14.073.607-21.109.261-8.997.526-17.989.799-26.985.032-1.129.108-2.257.177-3.571zm31.747 18.531c1.567.152 1.386 1.088 1.386 1.827 0 2.225-.048 4.454-.109 6.679-.337 12.201-.678 24.398-1.032 36.596-.072 2.49-.189 4.984-.325 7.47-.028.494-.229.98-.498 2.064-.578-.839-1.093-1.245-1.113-1.675-.068-1.51.024-3.028.069-4.538.273-9.173.554-18.346.819-27.519.185-6.322.341-12.647.526-18.969.016-.598.165-1.196.273-1.935zm239.836-64.565c-1.546-.819-1.16-1.823-1.14-2.634.233-9.358.494-18.716.771-28.074.209-7.04.454-14.076.674-21.117.033-.984.117-2.032-1.666-2.185-.093.928-.245 1.848-.273 2.768-.434 14.972-.852 29.948-1.278 44.921-.024.799-.008 1.614-.148 2.397-.165.908-.759 1.342-1.691 1.177-.759-2.225.498-51.56 1.398-54.19 1.935.164 3.377 1.385 4.743 2.562.47.406.538 1.47.518 2.229-.297 12.205-.631 24.41-.98 36.616a990.902 990.902 0 0 1-.49 13.358c-.028.65-.257 1.293-.442 2.172zm9.543 6.1c-.052-1.49-.145-2.606-.117-3.719.414-15.594.848-31.193 1.278-46.788.02-.711.076-1.426.036-2.137-.044-.807-.442-1.321-1.651-1.269-.064 1.048-.153 2.08-.185 3.112-.442 14.973-.871 29.945-1.313 44.918-.024.799-.012 1.63-.249 2.373-.121.378-.775.832-1.161.808-.321-.02-.731-.651-.863-1.081-.145-.49-.032-1.06-.016-1.594.401-15.953.799-31.905 1.221-47.861.032-1.205.261-2.406.413-3.755 2.105.409 3.563 1.469 4.868 2.594.53.458.655 1.614.639 2.446-.105 6.06-.286 12.121-.458 18.181-.289 10.25-.575 20.499-.908 30.748-.032.948.442 2.185-1.538 3.024zm8.964-54.226c-.333.064-.651.233-.811.136-31.62-18.542-63.227-37.097-94.831-55.672-.337-.197-.558-.595-.892-.956.932-.96 1.599-.257 2.213.1 3.627 2.101 7.238 4.233 10.848 6.358 27.138 15.964 54.275 31.921 81.397 47.909.811.478 2.096.643 2.072 2.125zM284.41 290.793c-.084 1.438-.181 2.486-.209 3.535-.393 14.703-.779 29.406-1.172 44.114-.024.891 0 1.799-.181 2.662-.213 1-.843 1.555-2.293.9l1.502-53.669c3.522-.04 5.839 2.173 5.755 5.21-.438 16.04-.872 32.081-1.341 48.122-.033 1.068.397 2.353-1.025 3.269-.261-.486-.602-.876-.678-1.317-.105-.603-.012-1.241.004-1.868.409-15.952.831-31.901 1.221-47.853.024-1.044.437-2.337-1.579-3.109zm-9.265 48.046c-1.337-.658-.948-1.735-.924-2.626.197-7.671.43-15.342.639-23.013.229-8.474.454-16.948.643-25.427.024-1.06.49-2.377-1.077-3.008-.96.615-.699 1.591-.723 2.406-.221 7.137-.409 14.274-.598 21.41-.217 8.209-.422 16.415-.647 24.624-.02.707 0 1.486-.297 2.084-.217.442-.92.647-1.406.96-.261-.418-.642-.811-.755-1.265-.12-.502.008-1.06.02-1.599.286-9.899.579-19.799.86-29.699.189-6.599.353-13.202.55-19.8.016-.595.189-1.181.289-1.747 3.462.068 5.575 2.164 5.499 5.313-.394 15.607-.776 31.214-1.205 46.817-.041 1.51.293 3.161-.856 4.574zm18.893-48.274c-.932.82-1.575.061-2.209-.301-2.792-1.594-5.555-3.233-8.322-4.859-27.768-16.33-55.54-32.656-83.296-49.01-1.004-.591-2.305-.932-2.783-2.35 1.241-.666 1.968.205 2.731.651 6.398 3.731 12.771 7.502 19.157 11.257 24.077 14.157 48.154 28.311 72.215 42.492.92.542 2.242.755 2.503 2.12zM107.006 180.043c-.695-.446-1.385-.896-2.08-1.341.112-.137.229-.273.341-.41l1.699 1.795zm93.703 194.549c-.02-1.562-.225-3.157.016-4.679.108-.699.992-1.414 1.691-1.851 3.401-2.125 6.859-4.161 10.301-6.221 9.868-5.908 19.732-11.812 29.604-17.712 1.301-.779 2.594-1.574 3.944-2.257 1.212-.614 1.819-.201 1.883 1.173.024.53-.116 1.076-.06 1.602.221 1.948-.711 3.065-2.354 4.032-10.209 6.029-20.37 12.146-30.547 18.234-3.747 2.245-7.49 4.498-11.249 6.727-.816.482-1.675.888-2.514 1.33l-.719-.374zm1.59-4.012.558.727c.739-.406 1.494-.783 2.213-1.217a47007.583 47007.583 0 0 0 35.821-21.419c1.301-.779 2.622-1.53 3.867-2.393.394-.273.567-.864.84-1.314-.723-.192-1.145-.116-1.486.093a19321.9 19321.9 0 0 0-40.403 24.173c-.542.326-.94.892-1.406 1.346zm45.668-41.025c.84 1.871.675 3.61.289 5.177-.205.835-1.341 1.57-2.209 2.1-6.622 4.024-13.285 7.988-19.936 11.968-7.342 4.39-14.683 8.78-22.025 13.161-.743.442-1.518.832-2.269 1.237-1.582-2.658-.884-5.795 1.377-7.148a45513.59 45513.59 0 0 0 37.576-22.543c1.755-1.053 3.494-2.141 5.265-3.161.571-.329 1.225-.506 1.936-.787zm-2.261 3.14c-1.1.587-1.876.96-2.611 1.402a53229.04 53229.04 0 0 0-38.109 22.804c-.534.321-1.129.594-1.559 1.024-.285.285-.329.811-.698 1.832 1.321-.703 2.1-1.077 2.839-1.515a8825.196 8825.196 0 0 0 16.76-10.024c7.116-4.257 14.241-8.502 21.338-12.796.827-.502 2.1-.723 2.036-2.723zm65.359-35.078c-.88-1.944-.767-3.643-.414-5.253.137-.623 1.012-1.177 1.663-1.574a2253.9 2253.9 0 0 1 16.707-10.117c8.643-5.189 17.29-10.37 25.953-15.523.723-.43 1.719-1.02 2.362-.815 1.152.365.618 1.655.731 2.59.253 2.137-.679 3.382-2.531 4.474-13.904 8.218-27.74 16.547-41.607 24.825-.868.518-1.816.891-2.864 1.401zm44.407-30.579c-1.016.522-1.723.835-2.377 1.225-12.796 7.643-25.584 15.297-38.375 22.952-.611.366-1.281.683-1.792 1.161-.297.281-.337.835-.662 1.743 1.08-.518 1.719-.767 2.305-1.112 2.229-1.314 4.442-2.663 6.663-3.993 10.723-6.413 21.451-12.819 32.162-19.253.851-.514 2.076-.767 2.076-2.723m65.059-23.234c-1.474-3.803-.883-5.779 2.024-7.518a64581.884 64581.884 0 0 1 41.974-25.122c.666-.397 1.373-.723 2.052-1.08 1.703 3.04 1.072 5.723-1.603 7.322a54054.82 54054.82 0 0 1-42.206 25.257c-.667.398-1.381.707-2.241 1.137zm1.41-3.623c1.108-.602 1.891-.988 2.638-1.437a76774.108 76774.108 0 0 0 38.13-22.824c.534-.322 1.133-.595 1.551-1.033.269-.285.269-.827.554-1.831-1.51.855-2.514 1.398-3.49 1.98-4.98 2.972-9.956 5.956-14.933 8.936-7.502 4.494-15.008 8.976-22.494 13.503-.82.494-2.073.734-1.96 2.702z"/>
</svg>
