<svg xmlns="http://www.w3.org/2000/svg" width="550" height="550" fill="none" viewBox="0 0 550 550">
    <path fill="#fff" fill-rule="evenodd" d="M341.773 127.885a.66.66 0 0 1 .329.569v50.05a.655.655 0 0 1-.983.567l-42.886-24.839a.656.656 0 0 1-.004-1.132l42.886-25.211a.66.66 0 0 1 .658-.004m-41.911 25.776 40.93 23.706v-47.768zm-93.878-55.419a.65.65 0 0 1 .327.567v1.486a.66.66 0 0 1-.328.568l-9.702 5.583c-2.2 1.266-4.247 3.571-5.747 6.3-1.498 2.726-2.413 5.809-2.413 8.583v58.333c0 2.405.685 4.099 1.701 5.052.403.377.864.648 1.368.805a.7.7 0 0 1 .138.061l.913.537a.657.657 0 0 1-.005 1.133l-66.607 38.359v77.411a.653.653 0 0 1-.982.568l-68.315-39.343a.66.66 0 0 1-.328-.568V184.62c0-.234.125-.451.328-.568l148.997-85.81a.66.66 0 0 1 .655 0m-81.665 126.984c0-.269.161-.5.392-.601l65.864-37.931a4.9 4.9 0 0 1-1.648-1.023v-.001c-1.369-1.283-2.117-3.382-2.117-6.008v-58.333c0-3.04.996-6.339 2.576-9.214 1.431-2.604 3.371-4.914 5.559-6.38l-137.63 79.264v78.299l67.004 38.588zM274.3 482.314a.66.66 0 0 1 .326.567v.48a.655.655 0 0 1-.981.569l-.419-.241a.653.653 0 0 1 0-1.137l.419-.24a.66.66 0 0 1 .655.002" clip-rule="evenodd"/>
    <path fill="#fff" fill-rule="evenodd" d="M124.648 224.662a.66.66 0 0 1 .656.001l148.158 85.811a.65.65 0 0 1 .327.567v171.84a.656.656 0 0 1-.982.568l-67.481-38.863a.66.66 0 0 1-.328-.568v-17.351a.655.655 0 0 1 .982-.568l52.332 30.136V320.13l-111.515-64.224-6.165-3.55v59.309a.655.655 0 0 1-.982.568l-2.35-1.354-12.651-7.287a.65.65 0 0 1-.329-.567V225.23c0-.234.125-.451.328-.568m.983 1.705v76.279l12.323 7.097 1.368.789v-59.309a.655.655 0 0 1 .982-.568l7.147 4.115 111.843 64.414a.66.66 0 0 1 .328.568v137.617a.656.656 0 0 1-.982.567L206.309 427.8v15.84l66.17 38.107V311.418z" clip-rule="evenodd"/>
    <path fill="#fff" fill-rule="evenodd" d="M205.323 417.345a.65.65 0 0 1 .655-.001l53.314 30.702a.66.66 0 0 1 .328.568v8.754a.655.655 0 0 1-.982.568l-53.314-30.702a.66.66 0 0 1-.328-.568v-8.754c0-.234.125-.45.327-.567m.984 1.7v7.243l52.002 29.947v-7.242zm-66.659-168.39a.66.66 0 0 1 .655 0l7.147 4.115a.66.66 0 0 1 .328.568v60.443a.654.654 0 0 1-.982.567l-7.147-4.115a.65.65 0 0 1-.329-.568v-60.442c0-.234.125-.451.328-.568m.983 1.701v58.931l5.836 3.36v-58.93zm33.027 57.554a.655.655 0 0 1 .895-.241l50.491 29.077a.655.655 0 0 1-.654 1.136l-50.491-29.077a.655.655 0 0 1-.241-.895" clip-rule="evenodd"/>
    <path fill="#fff" fill-rule="evenodd" d="M146.796 254.77a.66.66 0 0 1 .655 0l111.843 64.414a.65.65 0 0 1 .328.567v128.863a.656.656 0 0 1-.982.568l-53.314-30.702a.66.66 0 0 1-.328-.568V386.73a.655.655 0 0 1 .982-.568l18.739 10.791 6.586-3.75v-57.634l-49.833-28.701-6.591 3.75v20.771a.656.656 0 0 1-.982.568l-27.102-15.609a.65.65 0 0 1-.328-.567v-60.443c0-.234.125-.451.327-.568m.983 1.701v58.931l25.792 14.854v-20.019c0-.236.126-.453.331-.57l7.248-4.124a.66.66 0 0 1 .651.002l50.487 29.077a.66.66 0 0 1 .328.568v58.394a.66.66 0 0 1-.331.569l-7.243 4.124a.66.66 0 0 1-.651-.001l-18.082-10.413v29.67l52.003 29.947V320.13z" clip-rule="evenodd"/>
    <path fill="#fff" fill-rule="evenodd" d="M173.898 309.67a.66.66 0 0 1 .655-.001l50.491 29.077a.66.66 0 0 1 .328.568v58.394a.656.656 0 0 1-.982.568l-19.064-10.978a.66.66 0 0 1-.328-.568v-36.859l-31.099-17.914a.65.65 0 0 1-.329-.568v-21.152c0-.234.125-.45.328-.567m.983 1.7v19.641l31.099 17.914a.65.65 0 0 1 .328.567v36.859l17.754 10.223v-56.881z" clip-rule="evenodd"/>
    <path fill="#fff" fill-rule="evenodd" d="M181.149 305.544a.66.66 0 0 1 .651.001l50.487 29.077a.654.654 0 0 1-.003 1.137l-7.243 4.124a.66.66 0 0 1-.651-.001l-50.491-29.077a.657.657 0 0 1 .003-1.138zm-5.604 4.696 49.174 28.319 5.922-3.372-49.17-28.319z" clip-rule="evenodd"/>
    <path fill="#fff" fill-rule="evenodd" d="M232.288 334.623a.66.66 0 0 1 .326.567v58.394a.65.65 0 0 1-.331.569l-7.243 4.124a.653.653 0 0 1-.979-.569v-58.394c0-.236.126-.453.331-.57l7.243-4.124a.66.66 0 0 1 .653.003m-6.917 5.072v56.886l5.933-3.378v-56.886zM56.327 263.114a.66.66 0 0 1 .655 0l68.319 39.343 12.652 7.286 2.35 1.355 7.147 4.115 27.102 15.609 31.427 18.103a.66.66 0 0 1 .329.567v172.321a.654.654 0 0 1-.983.568L56.328 436.57a.66.66 0 0 1-.328-.568v-172.32c0-.234.125-.45.327-.568m.984 1.701v170.808l147.686 85.056V349.871l-58.201-33.522-7.147-4.116-2.35-1.354zM361.112 109.39a.654.654 0 0 0-1.05.372c-1.012 4.663-4.008 9.349-7.433 11.36l-11.511 6.767a.66.66 0 0 0-.323.565v50.05c0 .234.124.45.327.567l80.355 46.541v77.417a.656.656 0 0 0 .982.568l68.315-39.343a.66.66 0 0 0 .328-.568v-79.057a.66.66 0 0 0-.328-.568zm.02 1.523c-1.233 4.635-4.246 9.229-7.839 11.339l-11.188 6.577v49.298l80.356 46.54a.66.66 0 0 1 .327.567v76.661l67.004-38.588v-78.299zm-88.327 371.401a.66.66 0 0 1 .655-.002l.419.24a.655.655 0 0 1 0 1.137l-.419.241a.657.657 0 0 1-.981-.569v-.48c0-.234.124-.45.326-.567" clip-rule="evenodd"/>
    <path fill="#fff" fill-rule="evenodd" d="M273.227 310.232a.65.65 0 0 1 .652 0l.419.24c.204.117.33.334.33.569v171.84a.65.65 0 0 1-.33.568l-.419.241a.66.66 0 0 1-.652 0l-.419-.241a.65.65 0 0 1-.329-.568v-171.84c0-.235.125-.452.329-.569z" clip-rule="evenodd"/>
    <path fill="#fff" fill-rule="evenodd" d="M422.457 224.663a.65.65 0 0 1 .328.567v77.795c0 .234-.125.45-.329.567l-12.651 7.287-2.35 1.354a.655.655 0 0 1-.982-.568v-59.309l-49.142 28.302-68.542 39.472v136.105l52.331-30.136a.655.655 0 0 1 .982.568v17.351a.66.66 0 0 1-.328.568l-67.476 38.863a.657.657 0 0 1-.982-.568v-171.46l-.09-.052a.657.657 0 0 1-.001-1.136l68.384-39.387 80.193-46.184a.66.66 0 0 1 .655.001m-147.838 86.279a1 1 0 0 1 .007.099v170.706l66.166-38.107V427.8l-52.331 30.136a.655.655 0 0 1-.982-.567V319.752c0-.235.125-.451.328-.568l111.847-64.414 7.147-4.115a.655.655 0 0 1 .982.568v59.309l1.368-.789 12.323-7.097v-76.282z" clip-rule="evenodd"/>
    <path fill="#fff" fill-rule="evenodd" d="M341.777 417.345a.65.65 0 0 1 .327.567v8.754a.66.66 0 0 1-.328.568l-53.313 30.702a.655.655 0 0 1-.983-.568v-8.754c0-.235.126-.451.329-.568l53.313-30.702a.65.65 0 0 1 .655.001m-52.986 31.648v7.242l52.003-29.947v-7.243zm118.665-198.338a.66.66 0 0 1 .328.568v60.442a.66.66 0 0 1-.329.568l-7.147 4.115a.655.655 0 0 1-.982-.567v-60.443c0-.235.125-.451.328-.568l7.147-4.115a.66.66 0 0 1 .655 0m-6.819 5.062v58.93l5.836-3.36v-58.931zm-27.194 54.193a.657.657 0 0 1-.241.895l-50.487 29.076a.655.655 0 1 1-.654-1.135l50.487-29.077a.655.655 0 0 1 .895.241" clip-rule="evenodd"/>
    <path fill="#fff" fill-rule="evenodd" d="M400.311 254.77a.66.66 0 0 1 .327.568v60.443c0 .234-.125.45-.328.567l-27.107 15.609a.655.655 0 0 1-.982-.568v-20.771l-6.586-3.75-49.833 28.701v57.634l6.585 3.75 18.735-10.791a.655.655 0 0 1 .982.568v31.182a.66.66 0 0 1-.328.568l-53.313 30.702a.655.655 0 0 1-.983-.568V319.751c0-.234.126-.45.329-.567l111.847-64.414a.66.66 0 0 1 .655 0m-.983 1.701-41.995 24.187-68.542 39.472v127.35l52.003-29.947v-29.67l-18.078 10.412a.65.65 0 0 1-.651.002l-7.243-4.124a.65.65 0 0 1-.331-.569V335.19c0-.235.125-.451.328-.568l50.487-29.077a.66.66 0 0 1 .652-.001l7.243 4.123a.66.66 0 0 1 .331.57v20.019l25.796-14.854z" clip-rule="evenodd"/>
    <path fill="#fff" fill-rule="evenodd" d="M373.203 309.67a.66.66 0 0 1 .327.567v21.152a.66.66 0 0 1-.328.568l-31.099 17.914v36.859a.65.65 0 0 1-.328.567l-19.06 10.979a.657.657 0 0 1-.983-.568v-58.394c0-.235.126-.451.329-.568l50.487-29.077a.66.66 0 0 1 .655.001m-50.16 30.023v56.881l17.749-10.223v-36.859c0-.234.125-.45.328-.567l31.099-17.914v-19.64z" clip-rule="evenodd"/>
    <path fill="#fff" fill-rule="evenodd" d="M365.305 305.545a.66.66 0 0 1 .652-.001l7.243 4.123a.658.658 0 0 1 .003 1.138l-50.487 29.077a.66.66 0 0 1-.652.001l-7.243-4.124a.656.656 0 0 1-.003-1.137zm.329 1.323-49.17 28.319 5.923 3.372 49.17-28.319z" clip-rule="evenodd"/>
    <path fill="#fff" fill-rule="evenodd" d="M314.816 334.623a.66.66 0 0 1 .654-.003l7.243 4.124a.66.66 0 0 1 .331.57v58.394a.654.654 0 0 1-.98.569l-7.243-4.124a.66.66 0 0 1-.331-.569V335.19c0-.233.124-.449.326-.567m.985 1.694v56.886l5.932 3.378v-56.886zm174.972-73.203a.66.66 0 0 1 .328.568v172.32a.66.66 0 0 1-.329.568l-148.997 85.811a.655.655 0 0 1-.982-.568V349.492c0-.234.125-.45.328-.567l31.427-18.103 27.107-15.609 7.147-4.115 2.35-1.355 12.651-7.286 68.315-39.343a.66.66 0 0 1 .655 0m-.983 1.701-79.984 46.064-2.35 1.354-34.253 19.724-31.099 17.914v170.808l147.686-85.056zm-284.464-70.624a.65.65 0 0 1 .657.004l.498.292a.655.655 0 0 1-.007 1.134l-.498.284a.656.656 0 0 1-.98-.569v-.576c0-.235.126-.453.33-.569m-.486 76.655a.66.66 0 0 1 .655 0l68.384 39.387a.654.654 0 0 1-.001 1.136l-.419.24a.66.66 0 0 1-.654-.001l-68.193-39.496a.657.657 0 0 1 .001-1.135z" clip-rule="evenodd"/>
    <path fill="#fff" fill-rule="evenodd" d="M124.408 224.902a.656.656 0 0 1 .895-.24l.001.001 80.192 46.183a.655.655 0 0 1 0 1.135l-.227.131a.65.65 0 0 1-.656 0l-79.964-46.314-.002-.001a.655.655 0 0 1-.239-.895" clip-rule="evenodd"/>
    <path fill="#fff" fill-rule="evenodd" d="M298.231 153.1a.65.65 0 0 1 .66-.002l123.568 71.565a.655.655 0 0 1-.001 1.135l-148.578 85.57a.65.65 0 0 1-.654 0l-148.577-85.57a.655.655 0 0 1 0-1.136l66.934-38.548a.66.66 0 0 1 .659.003l13.743 8.078a.65.65 0 0 1 .324.564v.577a.66.66 0 0 1-.329.568l-50.919 29.328 6.397 3.708 111.755 64.726 112.433-64.753 6.399-3.685-50.925-29.491-57.166-33.113a.656.656 0 0 1-.004-1.132zm.334 1.323-12.982 7.63 108.101 62.61a.657.657 0 0 1-.002 1.135L273.54 294.991a.66.66 0 0 1-.656-.001l-112.083-64.916-7.379-4.277a.655.655 0 0 1 .002-1.135l51.422-29.617-12.939-7.605-65.618 37.79 147.264 84.814 147.268-84.816-79.701-46.157z" clip-rule="evenodd"/>
    <path fill="#fff" fill-rule="evenodd" d="M281.758 168.741a.66.66 0 0 1 .655 0l59.364 34.385.039.024 44.489 25.768a.654.654 0 0 1-.001 1.135l-112.76 64.942a.65.65 0 0 1-.656-.001l-112.083-64.916a.654.654 0 0 1 .002-1.135l44.524-25.643 7.824-4.508a.65.65 0 0 1 .659.003l.765.45.032.02.028.02q.334.25.712.417l.003.002.024.01.002.001c1.214.525 2.859.404 4.768-.719l45.38-26.675a.656.656 0 0 1 .988.565v26.692a.66.66 0 0 1-.329.568l-43.147 24.847v7.565l50.37 29.174 50.656-29.175v-7.565l-42.309-24.506a.66.66 0 0 1-.327-.567v-30.611c0-.234.125-.45.328-.567m.982 1.704v29.096l42.31 24.506a.66.66 0 0 1 .327.567v8.322a.66.66 0 0 1-.328.568l-51.313 29.553a.66.66 0 0 1-.655-.001l-51.025-29.553a.66.66 0 0 1-.327-.567v-8.322c0-.235.126-.451.329-.568l43.147-24.847v-25.168l-44.393 26.094c-2.144 1.262-4.238 1.534-5.952.793l-.029-.013-.006-.002a5 5 0 0 1-.942-.547l-.405-.238-7.493 4.318-43.541 25.077 110.774 64.157 111.449-64.187-43.542-25.219-.039-.024z" clip-rule="evenodd"/>
    <path fill="#fff" fill-rule="evenodd" d="M283.948 161.492a.65.65 0 0 1 .661-.002l57.166 33.113 51.907 30.06a.657.657 0 0 1-.002 1.135l-7.382 4.25a.65.65 0 0 1-.656-.001L281.755 169.88a.65.65 0 0 1-.327-.567v-5.963c0-.232.123-.447.323-.565zm.335 1.323-1.545.909v5.211l59.037 34.191 44.197 25.598 6.071-3.496-50.925-29.491zm-78.456 31.668a.65.65 0 0 1 .656.004l7.33 4.303a.655.655 0 0 1-.004 1.133l-52.353 30.152a.66.66 0 0 1-.655-.001l-7.379-4.277a.654.654 0 0 1 .002-1.135l51.902-29.894.003-.001zm.153 1.421-.002.001-50.917 29.327 6.069 3.518 44.196-25.454 6.852-3.946-6.031-3.541zm60.207 3.107a.65.65 0 0 1 .328.567v25.652c0 1.122.716 2.231 2.071 3.092 1.332.847 3.206 1.395 5.311 1.407q.038-.004.075-.004c2.136 0 4.038-.551 5.385-1.407 1.355-.861 2.072-1.97 2.072-3.092v-25.307a.655.655 0 0 1 .983-.567l42.637 24.695a.655.655 0 0 1-.001 1.135l-51.313 29.553a.66.66 0 0 1-.655-.001l-51.025-29.553a.654.654 0 0 1 .002-1.135l43.475-25.036a.66.66 0 0 1 .655.001m7.863 32.024-.078.005c-2.346 0-4.501-.602-6.089-1.611-1.58-1.005-2.679-2.473-2.679-4.199v-24.518l-41.51 23.904 49.715 28.794 50.001-28.798-40.671-23.556v24.17c0 1.726-1.099 3.194-2.679 4.198-1.57.998-3.695 1.598-6.01 1.611" clip-rule="evenodd"/>
    <path fill="#fff" fill-rule="evenodd" d="M222.057 224.051a.66.66 0 0 1 .655 0l51.024 29.549a.65.65 0 0 1 .327.567v8.322a.656.656 0 0 1-.983.567l-51.025-29.549a.66.66 0 0 1-.326-.567v-8.322c0-.234.125-.45.328-.567m.982 1.704v6.808l49.714 28.789v-6.807z" clip-rule="evenodd"/>
    <path fill="#fff" fill-rule="evenodd" d="M221.817 224.29a.655.655 0 0 1 .895-.239l51.025 29.549a.654.654 0 1 1-.657 1.134l-51.024-29.549a.654.654 0 0 1-.239-.895" clip-rule="evenodd"/>
    <path fill="#fff" fill-rule="evenodd" d="M325.05 224.051a.66.66 0 0 1 .327.567v8.322a.66.66 0 0 1-.328.568l-51.313 29.549a.655.655 0 0 1-.982-.568v-8.322c0-.234.125-.451.328-.568l51.313-29.549a.66.66 0 0 1 .655.001m-50.986 30.495v6.809l50.002-28.793v-6.81z" clip-rule="evenodd"/>
    <path fill="#fff" fill-rule="evenodd" d="M325.29 224.291a.657.657 0 0 1-.241.895l-51.313 29.549a.657.657 0 0 1-.654-1.136l51.313-29.549a.657.657 0 0 1 .895.241m-42.88-61.51c.204.117.33.334.33.569v61.88c0 1.726-1.099 3.194-2.679 4.198-1.588 1.01-3.742 1.612-6.088 1.612s-4.501-.602-6.089-1.612c-1.58-1.004-2.679-2.472-2.679-4.198v-52.344c0-.232.123-.447.323-.565l11.114-6.535.062-.032 5.049-2.969a.65.65 0 0 1 .657-.004m-5.166 4.172-10.728 6.308v51.969c0 1.122.716 2.231 2.071 3.092 1.348.857 3.25 1.407 5.386 1.407s4.038-.55 5.385-1.407c1.356-.861 2.072-1.97 2.072-3.092v-60.735l-4.124 2.425zm-63.915 31.734a.656.656 0 0 1 .806.12c.176.189.341.348.511.479a.655.655 0 0 1-.732 1.084l-.765-.45a.656.656 0 0 1 .006-1.133z" clip-rule="evenodd"/>
    <path fill="#fff" fill-rule="evenodd" d="m333.733 28.404.069.026a4.7 4.7 0 0 1 .844.498l23.648 13.822a.656.656 0 0 1-.587 1.17c-1.138-.483-2.657-.382-4.423.632m-.001 0-132.479 76.222c-2.2 1.267-4.247 3.572-5.746 6.301-1.498 2.725-2.413 5.809-2.413 8.583v58.333c0 2.231.592 3.848 1.492 4.83a.653.653 0 0 1-.157 1.01l-.174.101a.66.66 0 0 1-.659-.003l-7.33-4.308-.498-.292-13.748-8.078h-.001l-.85-.5a4.9 4.9 0 0 1-1.799-1.076c-1.369-1.284-2.116-3.382-2.116-6.009v-58.333c0-3.04.995-6.34 2.575-9.215 1.578-2.873 3.775-5.386 6.241-6.804l9.703-5.583 122.781-70.643c2.021-1.162 3.998-1.398 5.628-.684m-4.974 1.82L196.275 106.45c-2.2 1.264-4.247 3.569-5.746 6.299-1.498 2.726-2.414 5.81-2.414 8.584v58.333c0 2.406.686 4.099 1.702 5.052.403.377.863.648 1.368.805a.7.7 0 0 1 .137.061l.913.537v.001l13.747 8.077 5.978 3.513c-.41-1.058-.626-2.312-.626-3.721v-58.333c0-3.041.996-6.34 2.575-9.214 1.578-2.872 3.776-5.386 6.241-6.806l132.48-76.221h.001c.861-.495 1.712-.821 2.532-.979l-21.26-12.426a.7.7 0 0 1-.123-.093 3.3 3.3 0 0 0-.471-.272l-.059-.024c-1.146-.52-2.692-.434-4.491.6" clip-rule="evenodd"/>
    <path fill="#fff" fill-rule="evenodd" d="M352.626 43.408c2.007-1.157 3.966-1.397 5.589-.704.343.144.653.332.937.538a1 1 0 0 1 .079.051c1.605 1.226 2.494 3.466 2.494 6.322v56.97c0 1.129-.142 2.29-.39 3.445v.001c-1.064 4.922-4.232 9.969-8.05 12.212l-68.677 40.374-2.197 1.293-16.225 9.541-45.38 26.674c-2.145 1.262-4.24 1.534-5.953.792l-.065-.032-.002-.001a4.8 4.8 0 0 1-.945-.559l-.002-.001a5.3 5.3 0 0 1-.673-.628c-1.183-1.297-1.836-3.27-1.836-5.714v-58.333c0-3.04.996-6.341 2.575-9.216 1.578-2.872 3.776-5.386 6.242-6.803zm5.87.974-.039-.026-.031-.022-.008-.006a3.5 3.5 0 0 0-.713-.417l-.003-.001c-1.137-.486-2.655-.385-4.422.633L220.8 120.767c-2.199 1.264-4.246 3.569-5.746 6.298-1.498 2.727-2.413 5.811-2.413 8.585v58.333c0 2.23.596 3.848 1.493 4.831q.246.272.506.473.323.245.707.413l.058.029c1.211.51 2.844.381 4.736-.732l45.38-26.675 16.225-9.54 2.197-1.293 14.281-8.397 54.397-31.977c3.425-2.012 6.425-6.698 7.433-11.36a15.2 15.2 0 0 0 .36-3.169v-56.97c0-2.576-.787-4.33-1.918-5.233m-5.229 4.744a.66.66 0 0 1 .328.568v67.592a.65.65 0 0 1-.188.54l-.004.005a.6.6 0 0 1-.175.124L219.78 195.278a.654.654 0 0 1-.984-.567v-67.672c0-.234.124-.45.327-.567l129.552-75.065 3.936-2.28a.66.66 0 0 1 .656 0m-.982 67.861V50.831l-132.179 76.585v66.158l45.419-26.318z" clip-rule="evenodd"/>
    <path fill="#fff" fill-rule="evenodd" d="M353.276 49.122a.66.66 0 0 1 .328.568v67.677c0 .234-.124.45-.326.567l-11.503 6.662-47.014 27.242-20.545 11.904-54.431 31.537a.657.657 0 0 1-.984-.567v-5.107c0-.234.124-.45.327-.567l54.431-31.537 1.752-1.013 6.444-3.735 7.942-4.6 51.421-29.798 7.236-4.192V51.975c0-.234.124-.45.326-.567l3.941-2.285a.65.65 0 0 1 .655 0m-3.612 3.23v62.189a.65.65 0 0 1-.327.566l-58.983 34.18-7.942 4.6-6.444 3.735-1.752 1.013-54.105 31.347v3.593l59.608-34.536 61.399-35.577 11.176-6.473V50.827l-2.63 1.525" clip-rule="evenodd"/>
    <path fill="#fff" fill-rule="evenodd" d="M349.336 51.402a.66.66 0 0 1 .328.568v62.566c0 .234-.124.45-.327.567l-58.988 34.179-7.942 4.6-6.443 3.735-1.747 1.014-54.432 31.541a.657.657 0 0 1-.984-.567v-62.571c0-.233.124-.449.327-.567L348.68 51.403a.66.66 0 0 1 .656 0m-129.225 76.01v61.056l53.448-30.971 1.747-1.013 6.444-3.736 7.942-4.6 58.662-33.99v-61.05zm109.823-57.861a.65.65 0 0 1 .66 0l2.967 1.734a.654.654 0 0 1 .303.73l-13.302 51.392a.66.66 0 0 1-.305.402l-5.251 3.058a.66.66 0 0 1-.66-.001l-2.966-1.734a.656.656 0 0 1-.304-.73l13.302-51.391a.66.66 0 0 1 .305-.402zm-4.356 4.053-13.109 50.647 2.208 1.291 4.685-2.728 13.109-50.647-2.208-1.291zm-15.19 26.175a.65.65 0 0 1 .657.002l2.966 1.735a.66.66 0 0 1 .325.565v5.959a.66.66 0 0 1-.329.568l-15.368 8.842a.66.66 0 0 1-.658-.002l-2.966-1.735a.65.65 0 0 1-.324-.565v-5.959c0-.235.125-.451.328-.568zm-14.387 9.789v5.204l2.314 1.352 14.71-8.463v-5.204l-2.313-1.352zm-6.355 2.386a.66.66 0 0 1 .657.002l2.967 1.735a.65.65 0 0 1 .324.565v5.959a.66.66 0 0 1-.328.568l-15.369 8.842a.66.66 0 0 1-.657-.002l-2.967-1.735a.65.65 0 0 1-.324-.565v-5.959c0-.234.125-.451.328-.568zm-14.387 9.789v5.204l2.314 1.352 14.711-8.463v-5.204l-2.314-1.352zm-21.211-8.28a.65.65 0 0 1 .661.001l2.966 1.734a.656.656 0 0 1 .304.73l-10.109 39.05-3.194 12.341a.65.65 0 0 1-.304.402l-5.251 3.058a.65.65 0 0 1-.661-.001l-2.966-1.734a.654.654 0 0 1-.303-.73l2.158-8.331 11.129-42.987a.66.66 0 0 1 .319-.475zm-4.35 4.05-11.081 42.799-2.033 7.851 2.208 1.291 4.684-2.728 3.125-12.076 9.985-38.571-2.209-1.291zm19.726 5.922a.65.65 0 0 1 .658.002l2.966 1.734a.66.66 0 0 1 .324.566v5.959a.66.66 0 0 1-.328.568l-15.369 8.841a.65.65 0 0 1-.657-.002l-2.966-1.734a.66.66 0 0 1-.325-.566v-5.959c0-.234.125-.451.329-.568zm-14.386 9.788v5.204l2.313 1.353 14.711-8.463v-5.204l-2.314-1.353z" clip-rule="evenodd"/>
    <path fill="#fff" fill-rule="evenodd" d="M273.046 125.17a.66.66 0 0 1 .327.567v5.959a.66.66 0 0 1-.329.568l-15.373 8.837a.654.654 0 0 1-.982-.568v-5.954c0-.235.126-.451.329-.568l15.373-8.842a.66.66 0 0 1 .655.001M258 134.958v4.443l14.062-8.084v-4.447zm-.259-19.717c.211.16.305.431.238.687l-10.108 39.054-3.194 12.337a.65.65 0 0 1-.304.402l-5.251 3.058a.656.656 0 0 1-.964-.73l3.202-12.376 10.1-39.016a.66.66 0 0 1 .304-.402l5.251-3.058a.66.66 0 0 1 .726.044m-5.081 4.009-10.031 38.751-2.809 10.855 3.657-2.13 12.84-49.605z" clip-rule="evenodd"/>
    <path fill="#fff" fill-rule="evenodd" d="M254.047 113.463a.66.66 0 0 1 .661.001l2.966 1.734a.654.654 0 0 1-.001 1.132l-5.251 3.058a.65.65 0 0 1-.661-.001l-2.966-1.734a.654.654 0 0 1 .001-1.132zm-3.621 3.626 1.667.974 3.95-2.3-1.667-.975z" clip-rule="evenodd"/>
    <path fill="#fff" fill-rule="evenodd" d="M248.876 116.482a.66.66 0 0 1 .582.04l2.966 1.734a.656.656 0 0 1 .304.73l-10.1 39.015-3.202 12.376a.656.656 0 0 1-.965.402l-2.966-1.735a.65.65 0 0 1-.304-.729l2.154-8.331 11.148-43.061a.66.66 0 0 1 .383-.441m.669 1.608-10.932 42.222-2.029 7.851 1.79 1.047 2.985-11.537 9.976-38.536zm84.081-46.76c.21.159.305.43.238.686l-13.302 51.391a.66.66 0 0 1-.304.402l-5.251 3.058a.656.656 0 0 1-.965-.731l13.303-51.39a.65.65 0 0 1 .304-.403l5.251-3.058a.66.66 0 0 1 .726.044m-5.081 4.008-12.84 49.606 3.657-2.13 12.84-49.606z" clip-rule="evenodd"/>
    <path fill="#fff" fill-rule="evenodd" d="M329.93 69.546a.66.66 0 0 1 .661.001l2.97 1.739a.657.657 0 0 1-.001 1.132l-5.251 3.058a.66.66 0 0 1-.661-.001l-2.97-1.739a.654.654 0 0 1 .001-1.132zm-3.622 3.626 1.672.978 3.951-2.3-1.672-.978z" clip-rule="evenodd"/>
    <path fill="#fff" fill-rule="evenodd" d="M324.757 72.566a.65.65 0 0 1 .582.04l2.971 1.738a.654.654 0 0 1 .303.73l-13.302 51.391a.654.654 0 0 1-.965.401l-2.971-1.739a.654.654 0 0 1-.303-.729l13.302-51.392a.65.65 0 0 1 .383-.44m.668 1.608-12.96 50.073 1.794 1.05 12.961-50.072zm-71.373 58.098a.65.65 0 0 1 .657.003l2.966 1.738a.66.66 0 0 1 .324.566v5.954a.656.656 0 0 1-.986.566l-2.966-1.735a.65.65 0 0 1-.324-.565v-5.959c0-.235.125-.452.329-.568m.981 1.712v4.439l1.656.968v-4.437z" clip-rule="evenodd"/>
    <path fill="#fff" fill-rule="evenodd" d="M269.42 123.435a.65.65 0 0 1 .657.002l2.97 1.734a.654.654 0 0 1-.003 1.134l-15.373 8.842a.66.66 0 0 1-.658-.003l-2.966-1.739a.653.653 0 0 1 .004-1.133zm-13.737 9.411 1.664.975 14.063-8.088-1.666-.973zm37.585-19.157a.65.65 0 0 1 .327.567v5.959a.66.66 0 0 1-.328.568l-15.373 8.842a.655.655 0 0 1-.982-.568v-5.959c0-.234.125-.451.329-.568l15.372-8.842a.66.66 0 0 1 .655.001m-15.045 9.788v4.447l14.062-8.088v-4.447z" clip-rule="evenodd"/>
    <path fill="#fff" fill-rule="evenodd" d="M274.275 120.796a.65.65 0 0 1 .656.002l2.967 1.735a.65.65 0 0 1 .324.565v5.959a.66.66 0 0 1-.329.569.66.66 0 0 1-.658-.004l-2.966-1.738a.66.66 0 0 1-.324-.566v-5.954c0-.235.126-.452.33-.568m.981 1.71v4.437l1.656.97v-4.439z" clip-rule="evenodd"/>
    <path fill="#fff" fill-rule="evenodd" d="M289.642 111.954a.66.66 0 0 1 .657.002l2.971 1.735a.654.654 0 0 1-.004 1.134l-15.372 8.841a.65.65 0 0 1-.658-.002l-2.966-1.734a.654.654 0 0 1 .004-1.134zm-13.735 9.415 1.663.972 14.063-8.089-1.666-.972zm38.107-19.85a.65.65 0 0 1 .328.567v5.958a.66.66 0 0 1-.329.569l-15.373 8.837a.655.655 0 0 1-.982-.568v-5.954c0-.235.126-.451.329-.568l15.373-8.842a.65.65 0 0 1 .654.001m-15.045 9.788v4.442l14.062-8.084v-4.446z" clip-rule="evenodd"/>
    <path fill="#fff" fill-rule="evenodd" d="M295.023 108.62a.66.66 0 0 1 .657.004l2.966 1.738a.66.66 0 0 1 .324.566v5.954a.656.656 0 0 1-.986.566l-2.966-1.735a.65.65 0 0 1-.325-.565v-5.959c0-.235.126-.452.33-.569m.981 1.713v4.439l1.656.968v-4.437z" clip-rule="evenodd"/>
    <path fill="#fff" fill-rule="evenodd" d="M310.39 99.78a.66.66 0 0 1 .658.002l2.971 1.738a.657.657 0 0 1-.005 1.134l-15.372 8.842a.66.66 0 0 1-.658-.003l-2.967-1.739a.656.656 0 0 1 .005-1.133l15.368-8.842m-13.737 9.414 1.665.976 14.064-8.089-1.668-.976z" clip-rule="evenodd"/>
</svg>
