<svg width="511" height="127" viewBox="0 0 511 127" fill="none" xmlns="http://www.w3.org/2000/svg">
<g clip-path="url(#clip0_4827_105819)">
<path d="M26.0331 52.1213C23.7684 52.1213 21.9219 50.3009 21.9219 48.0624C21.9219 45.8239 23.7423 43.9512 25.9808 43.9512H31.0065C32.4611 43.9512 33.6544 42.7666 33.6544 41.3033V31.1473C33.6544 28.9088 35.4748 27.0884 37.7133 27.0884C39.9518 27.0884 41.7723 28.9088 41.7723 31.1473V47.1304C41.659 49.6912 39.6731 51.8251 37.1559 52.1039H26.0505L26.0331 52.1213Z" fill="#B07AF8"/>
<path d="M19.387 40.1883C17.1485 40.1883 15.3281 38.3679 15.3281 36.1294V20.1463C15.4414 17.5856 17.4273 15.4516 19.9532 15.1729H31.0412C33.2884 15.1729 35.1001 16.9497 35.1524 19.2231C35.1524 21.5138 33.332 23.343 31.0935 23.343H26.0677C24.587 23.343 23.4198 24.5101 23.4198 25.9908V36.1468C23.4198 38.3853 21.5994 40.2058 19.3609 40.2058H19.3696L19.387 40.1883Z" fill="#B07AF8"/>
<path d="M32.8111 8.18752C41.6518 8.18752 48.7941 15.3298 48.7941 24.1706V54.9261C48.4196 57.0426 46.7298 58.6801 44.561 59.0024H24.1358C15.295 59.0024 8.15268 51.8601 8.15268 43.0193V13.1697C8.15268 10.4173 10.3651 8.16139 13.0652 8.16139L32.8111 8.19623V8.18752ZM32.8982 0H12.7516C5.73126 0 0 5.72255 0 12.7516V43.2109C0 56.4939 10.7483 67.2422 24.0312 67.2422H45.3101C51.4072 66.7544 56.2674 62.0074 56.9207 55.9539V23.9877C56.9207 10.757 46.1724 0.00871199 32.8894 0.00871199H32.8982V0Z" fill="#B07AF8"/>
<path d="M84.1193 113.01C82.5175 113.01 81.0781 112.731 79.8013 112.174C78.5477 111.594 77.5611 110.804 76.8414 109.806C76.1217 108.785 75.7503 107.612 75.7271 106.289H79.1049C79.2209 107.427 79.6852 108.39 80.4978 109.179C81.3335 109.945 82.5407 110.329 84.1193 110.329C85.6283 110.329 86.8123 109.957 87.6712 109.214C88.5534 108.448 88.9945 107.473 88.9945 106.289C88.9945 105.361 88.7391 104.606 88.2284 104.026C87.7176 103.445 87.0792 103.004 86.3131 102.702C85.547 102.401 84.514 102.076 83.2139 101.727C81.6121 101.309 80.3237 100.892 79.3486 100.474C78.3968 100.056 77.5727 99.4059 76.8762 98.5237C76.203 97.6183 75.8664 96.4111 75.8664 94.9021C75.8664 93.5789 76.203 92.4065 76.8762 91.385C77.5495 90.3636 78.4897 89.5743 79.6968 89.0171C80.9272 88.46 82.3318 88.1814 83.9104 88.1814C86.1855 88.1814 88.0427 88.7501 89.482 89.8877C90.9445 91.0252 91.7687 92.5342 91.9544 94.4146H88.4721C88.3561 93.486 87.8685 92.6735 87.0096 91.977C86.1506 91.2574 85.0131 90.8975 83.597 90.8975C82.2737 90.8975 81.1942 91.2458 80.3585 91.9422C79.5227 92.6154 79.1049 93.5673 79.1049 94.7977C79.1049 95.6798 79.3486 96.3995 79.8361 96.9567C80.3469 97.5138 80.9621 97.9433 81.6817 98.2451C82.4246 98.5237 83.4577 98.8487 84.7809 99.2201C86.3828 99.6612 87.6712 100.102 88.6463 100.543C89.6213 100.961 90.457 101.623 91.1535 102.528C91.8499 103.41 92.1982 104.618 92.1982 106.15C92.1982 107.334 91.8848 108.448 91.2579 109.493C90.6311 110.537 89.7025 111.385 88.4721 112.035C87.2417 112.685 85.7908 113.01 84.1193 113.01ZM95.6774 103.19C95.6774 101.217 96.0721 99.4987 96.8614 98.0362C97.6507 96.5504 98.7418 95.4013 100.135 94.5887C101.551 93.7762 103.164 93.3699 104.975 93.3699C107.32 93.3699 109.247 93.9387 110.756 95.0762C112.288 96.2138 113.298 97.7924 113.785 99.8121H110.373C110.048 98.6514 109.409 97.7344 108.457 97.0611C107.529 96.3879 106.368 96.0513 104.975 96.0513C103.164 96.0513 101.702 96.6781 100.587 97.9317C99.4731 99.1621 98.9159 100.915 98.9159 103.19C98.9159 105.488 99.4731 107.264 100.587 108.518C101.702 109.771 103.164 110.398 104.975 110.398C106.368 110.398 107.529 110.073 108.457 109.423C109.386 108.773 110.024 107.845 110.373 106.637H113.785C113.274 108.587 112.253 110.154 110.721 111.338C109.189 112.499 107.273 113.08 104.975 113.08C103.164 113.08 101.551 112.673 100.135 111.861C98.7418 111.048 97.6507 109.899 96.8614 108.413C96.0721 106.928 95.6774 105.186 95.6774 103.19ZM116.829 103.155C116.829 101.205 117.224 99.4987 118.013 98.0362C118.803 96.5504 119.882 95.4013 121.252 94.5887C122.645 93.7762 124.189 93.3699 125.883 93.3699C127.555 93.3699 129.006 93.7298 130.236 94.4494C131.467 95.1691 132.384 96.0745 132.987 97.1656V93.6833H136.191V112.766H132.987V109.214C132.36 110.329 131.42 111.257 130.166 112C128.936 112.72 127.497 113.08 125.848 113.08C124.154 113.08 122.622 112.662 121.252 111.826C119.882 110.99 118.803 109.818 118.013 108.309C117.224 106.8 116.829 105.082 116.829 103.155ZM132.987 103.19C132.987 101.751 132.697 100.497 132.117 99.4291C131.536 98.3612 130.747 97.5486 129.749 96.9915C128.774 96.4111 127.694 96.1209 126.51 96.1209C125.326 96.1209 124.247 96.3995 123.272 96.9567C122.297 97.5138 121.519 98.3264 120.938 99.3942C120.358 100.462 120.068 101.716 120.068 103.155C120.068 104.618 120.358 105.894 120.938 106.986C121.519 108.053 122.297 108.878 123.272 109.458C124.247 110.015 125.326 110.294 126.51 110.294C127.694 110.294 128.774 110.015 129.749 109.458C130.747 108.878 131.536 108.053 132.117 106.986C132.697 105.894 132.987 104.629 132.987 103.19ZM144.715 86.9974V112.766H141.546V86.9974H144.715ZM167.527 102.493C167.527 103.097 167.492 103.735 167.422 104.409H152.17C152.286 106.289 152.924 107.763 154.085 108.831C155.269 109.876 156.697 110.398 158.368 110.398C159.738 110.398 160.876 110.085 161.781 109.458C162.71 108.808 163.36 107.949 163.731 106.881H167.144C166.633 108.715 165.611 110.212 164.079 111.373C162.547 112.511 160.643 113.08 158.368 113.08C156.558 113.08 154.933 112.673 153.493 111.861C152.077 111.048 150.963 109.899 150.15 108.413C149.338 106.904 148.931 105.163 148.931 103.19C148.931 101.217 149.326 99.4871 150.115 98.0013C150.905 96.5156 152.007 95.378 153.424 94.5887C154.863 93.7762 156.511 93.3699 158.368 93.3699C160.179 93.3699 161.781 93.7646 163.174 94.5539C164.567 95.3432 165.635 96.4343 166.378 97.8272C167.144 99.1969 167.527 100.752 167.527 102.493ZM164.253 101.832C164.253 100.625 163.986 99.5916 163.452 98.7326C162.919 97.8504 162.187 97.1888 161.259 96.7477C160.353 96.2834 159.343 96.0513 158.229 96.0513C156.627 96.0513 155.258 96.562 154.12 97.5835C153.006 98.6049 152.367 100.021 152.205 101.832H164.253ZM197.13 93.6833L191.175 112.766H187.902L183.305 97.6183L178.709 112.766H175.436L169.446 93.6833H172.685L177.072 109.702L181.808 93.6833H185.047L189.678 109.737L193.996 93.6833H197.13ZM199.091 103.155C199.091 101.205 199.486 99.4987 200.275 98.0362C201.064 96.5504 202.144 95.4013 203.513 94.5887C204.906 93.7762 206.45 93.3699 208.145 93.3699C209.816 93.3699 211.267 93.7298 212.498 94.4494C213.728 95.1691 214.645 96.0745 215.249 97.1656V93.6833H218.452V112.766H215.249V109.214C214.622 110.329 213.682 111.257 212.428 112C211.198 112.72 209.758 113.08 208.11 113.08C206.415 113.08 204.883 112.662 203.513 111.826C202.144 110.99 201.064 109.818 200.275 108.309C199.486 106.8 199.091 105.082 199.091 103.155ZM215.249 103.19C215.249 101.751 214.958 100.497 214.378 99.4291C213.798 98.3612 213.008 97.5486 212.01 96.9915C211.035 96.4111 209.956 96.1209 208.772 96.1209C207.588 96.1209 206.508 96.3995 205.533 96.9567C204.558 97.5138 203.78 98.3264 203.2 99.3942C202.62 100.462 202.329 101.716 202.329 103.155C202.329 104.618 202.62 105.894 203.2 106.986C203.78 108.053 204.558 108.878 205.533 109.458C206.508 110.015 207.588 110.294 208.772 110.294C209.956 110.294 211.035 110.015 212.01 109.458C213.008 108.878 213.798 108.053 214.378 106.986C214.958 105.894 215.249 104.629 215.249 103.19ZM240.244 93.6833L228.752 121.75H225.479L229.24 112.557L221.544 93.6833H225.061L231.05 109.145L236.97 93.6833H240.244ZM260.269 88.4948C262.916 88.4948 265.203 88.9939 267.129 89.9921C269.079 90.9672 270.565 92.3717 271.587 94.2057C272.631 96.0397 273.154 98.1987 273.154 100.683C273.154 103.167 272.631 105.326 271.587 107.16C270.565 108.97 269.079 110.363 267.129 111.338C265.203 112.29 262.916 112.766 260.269 112.766H252.713V88.4948H260.269ZM260.269 110.154C263.403 110.154 265.795 109.33 267.443 107.682C269.091 106.011 269.915 103.677 269.915 100.683C269.915 97.6647 269.079 95.3084 267.408 93.6137C265.76 91.919 263.38 91.0716 260.269 91.0716H255.882V110.154H260.269ZM294.745 102.493C294.745 103.097 294.71 103.735 294.64 104.409H279.388C279.504 106.289 280.143 107.763 281.303 108.831C282.487 109.876 283.915 110.398 285.586 110.398C286.956 110.398 288.094 110.085 288.999 109.458C289.928 108.808 290.578 107.949 290.949 106.881H294.362C293.851 108.715 292.83 110.212 291.297 111.373C289.765 112.511 287.862 113.08 285.586 113.08C283.776 113.08 282.151 112.673 280.711 111.861C279.295 111.048 278.181 109.899 277.368 108.413C276.556 106.904 276.15 105.163 276.15 103.19C276.15 101.217 276.544 99.4871 277.333 98.0013C278.123 96.5156 279.226 95.378 280.642 94.5887C282.081 93.7762 283.729 93.3699 285.586 93.3699C287.397 93.3699 288.999 93.7646 290.392 94.5539C291.785 95.3432 292.853 96.4343 293.596 97.8272C294.362 99.1969 294.745 100.752 294.745 102.493ZM291.471 101.832C291.471 100.625 291.204 99.5916 290.671 98.7326C290.137 97.8504 289.405 97.1888 288.477 96.7477C287.571 96.2834 286.561 96.0513 285.447 96.0513C283.845 96.0513 282.476 96.562 281.338 97.5835C280.224 98.6049 279.585 100.021 279.423 101.832H291.471ZM305.683 113.08C304.221 113.08 302.909 112.836 301.748 112.348C300.587 111.838 299.67 111.141 298.997 110.259C298.324 109.354 297.953 108.32 297.883 107.16H301.156C301.249 108.111 301.69 108.889 302.479 109.493C303.292 110.096 304.348 110.398 305.648 110.398C306.855 110.398 307.807 110.131 308.504 109.597C309.2 109.063 309.548 108.39 309.548 107.578C309.548 106.742 309.177 106.127 308.434 105.732C307.691 105.314 306.542 104.908 304.987 104.513C303.571 104.142 302.41 103.77 301.504 103.399C300.622 103.004 299.856 102.435 299.206 101.693C298.579 100.926 298.266 99.9282 298.266 98.6978C298.266 97.7228 298.556 96.829 299.136 96.0165C299.717 95.2039 300.541 94.5655 301.609 94.1012C302.677 93.6137 303.896 93.3699 305.265 93.3699C307.378 93.3699 309.084 93.9039 310.384 94.9718C311.684 96.0397 312.381 97.5022 312.474 99.3594H309.305C309.235 98.3612 308.829 97.5603 308.086 96.9567C307.366 96.3531 306.391 96.0513 305.161 96.0513C304.023 96.0513 303.118 96.295 302.445 96.7825C301.771 97.2701 301.435 97.9085 301.435 98.6978C301.435 99.3246 301.632 99.8469 302.027 100.265C302.445 100.659 302.955 100.984 303.559 101.24C304.186 101.472 305.045 101.739 306.136 102.041C307.506 102.412 308.62 102.784 309.479 103.155C310.338 103.503 311.069 104.037 311.673 104.757C312.299 105.477 312.624 106.417 312.648 107.578C312.648 108.622 312.357 109.562 311.777 110.398C311.197 111.234 310.373 111.896 309.305 112.383C308.26 112.847 307.053 113.08 305.683 113.08ZM318.758 90.5841C318.154 90.5841 317.643 90.3752 317.225 89.9573C316.808 89.5395 316.599 89.0287 316.599 88.4251C316.599 87.8215 316.808 87.3108 317.225 86.8929C317.643 86.4751 318.154 86.2661 318.758 86.2661C319.338 86.2661 319.826 86.4751 320.22 86.8929C320.638 87.3108 320.847 87.8215 320.847 88.4251C320.847 89.0287 320.638 89.5395 320.22 89.9573C319.826 90.3752 319.338 90.5841 318.758 90.5841ZM320.29 93.6833V112.766H317.121V93.6833H320.29ZM333.561 93.3699C335.209 93.3699 336.648 93.7298 337.879 94.4494C339.132 95.1691 340.061 96.0745 340.664 97.1656V93.6833H343.868V113.184C343.868 114.925 343.497 116.469 342.754 117.815C342.011 119.185 340.943 120.253 339.55 121.019C338.18 121.785 336.578 122.168 334.744 122.168C332.237 122.168 330.148 121.576 328.476 120.392C326.805 119.208 325.818 117.595 325.517 115.552H328.651C328.999 116.713 329.718 117.641 330.81 118.338C331.901 119.057 333.212 119.417 334.744 119.417C336.486 119.417 337.902 118.872 338.993 117.781C340.107 116.689 340.664 115.157 340.664 113.184V109.179C340.038 110.294 339.109 111.222 337.879 111.965C336.648 112.708 335.209 113.08 333.561 113.08C331.866 113.08 330.322 112.662 328.929 111.826C327.559 110.99 326.48 109.818 325.691 108.309C324.901 106.8 324.507 105.082 324.507 103.155C324.507 101.205 324.901 99.4987 325.691 98.0362C326.48 96.5504 327.559 95.4013 328.929 94.5887C330.322 93.7762 331.866 93.3699 333.561 93.3699ZM340.664 103.19C340.664 101.751 340.374 100.497 339.794 99.4291C339.213 98.3612 338.424 97.5486 337.426 96.9915C336.451 96.4111 335.371 96.1209 334.187 96.1209C333.003 96.1209 331.924 96.3995 330.949 96.9567C329.974 97.5138 329.196 98.3264 328.616 99.3942C328.035 100.462 327.745 101.716 327.745 103.155C327.745 104.618 328.035 105.894 328.616 106.986C329.196 108.053 329.974 108.878 330.949 109.458C331.924 110.015 333.003 110.294 334.187 110.294C335.371 110.294 336.451 110.015 337.426 109.458C338.424 108.878 339.213 108.053 339.794 106.986C340.374 105.894 340.664 104.629 340.664 103.19ZM358.521 93.3351C360.842 93.3351 362.723 94.0432 364.162 95.4593C365.601 96.8522 366.321 98.8719 366.321 101.518V112.766H363.187V101.971C363.187 100.067 362.711 98.6165 361.759 97.6183C360.807 96.5968 359.507 96.0861 357.859 96.0861C356.188 96.0861 354.853 96.6084 353.854 97.6531C352.879 98.6978 352.392 100.218 352.392 102.215V112.766H349.223V93.6833H352.392V96.3995C353.019 95.4245 353.866 94.67 354.934 94.136C356.025 93.6021 357.221 93.3351 358.521 93.3351ZM388.477 113.01C386.875 113.01 385.436 112.731 384.159 112.174C382.905 111.594 381.919 110.804 381.199 109.806C380.479 108.785 380.108 107.612 380.085 106.289H383.462C383.578 107.427 384.043 108.39 384.855 109.179C385.691 109.945 386.898 110.329 388.477 110.329C389.986 110.329 391.17 109.957 392.029 109.214C392.911 108.448 393.352 107.473 393.352 106.289C393.352 105.361 393.097 104.606 392.586 104.026C392.075 103.445 391.437 103.004 390.671 102.702C389.905 102.401 388.871 102.076 387.571 101.727C385.97 101.309 384.681 100.892 383.706 100.474C382.754 100.056 381.93 99.4059 381.234 98.5237C380.56 97.6183 380.224 96.4111 380.224 94.9021C380.224 93.5789 380.56 92.4065 381.234 91.385C381.907 90.3636 382.847 89.5743 384.054 89.0171C385.285 88.46 386.689 88.1814 388.268 88.1814C390.543 88.1814 392.4 88.7501 393.84 89.8877C395.302 91.0252 396.126 92.5342 396.312 94.4146H392.83C392.714 93.486 392.226 92.6735 391.367 91.977C390.508 91.2574 389.371 90.8975 387.954 90.8975C386.631 90.8975 385.552 91.2458 384.716 91.9422C383.88 92.6154 383.462 93.5673 383.462 94.7977C383.462 95.6798 383.706 96.3995 384.194 96.9567C384.704 97.5138 385.32 97.9433 386.039 98.2451C386.782 98.5237 387.815 98.8487 389.138 99.2201C390.74 99.6612 392.029 100.102 393.004 100.543C393.979 100.961 394.815 101.623 395.511 102.528C396.207 103.41 396.556 104.618 396.556 106.15C396.556 107.334 396.242 108.448 395.615 109.493C394.989 110.537 394.06 111.385 392.83 112.035C391.599 112.685 390.148 113.01 388.477 113.01ZM417.655 93.6833L406.164 121.75H402.89L406.651 112.557L398.955 93.6833H402.472L408.462 109.145L414.382 93.6833H417.655ZM427.596 113.08C426.134 113.08 424.822 112.836 423.661 112.348C422.5 111.838 421.583 111.141 420.91 110.259C420.237 109.354 419.866 108.32 419.796 107.16H423.069C423.162 108.111 423.603 108.889 424.392 109.493C425.205 110.096 426.261 110.398 427.561 110.398C428.769 110.398 429.72 110.131 430.417 109.597C431.113 109.063 431.461 108.39 431.461 107.578C431.461 106.742 431.09 106.127 430.347 105.732C429.604 105.314 428.455 104.908 426.9 104.513C425.484 104.142 424.323 103.77 423.417 103.399C422.535 103.004 421.769 102.435 421.119 101.693C420.492 100.926 420.179 99.9282 420.179 98.6978C420.179 97.7228 420.469 96.829 421.05 96.0165C421.63 95.2039 422.454 94.5655 423.522 94.1012C424.59 93.6137 425.809 93.3699 427.178 93.3699C429.291 93.3699 430.997 93.9039 432.297 94.9718C433.597 96.0397 434.294 97.5022 434.387 99.3594H431.218C431.148 98.3612 430.742 97.5603 429.999 96.9567C429.279 96.3531 428.304 96.0513 427.074 96.0513C425.936 96.0513 425.031 96.295 424.358 96.7825C423.684 97.2701 423.348 97.9085 423.348 98.6978C423.348 99.3246 423.545 99.8469 423.94 100.265C424.358 100.659 424.868 100.984 425.472 101.24C426.099 101.472 426.958 101.739 428.049 102.041C429.419 102.412 430.533 102.784 431.392 103.155C432.251 103.503 432.982 104.037 433.586 104.757C434.212 105.477 434.537 106.417 434.561 107.578C434.561 108.622 434.27 109.562 433.69 110.398C433.11 111.234 432.286 111.896 431.218 112.383C430.173 112.847 428.966 113.08 427.596 113.08ZM442.899 96.295V107.543C442.899 108.471 443.097 109.133 443.491 109.528C443.886 109.899 444.571 110.085 445.546 110.085H447.879V112.766H445.024C443.259 112.766 441.936 112.36 441.054 111.547C440.172 110.735 439.73 109.4 439.73 107.543V96.295H437.258V93.6833H439.73V88.8778H442.899V93.6833H447.879V96.295H442.899ZM469.13 102.493C469.13 103.097 469.095 103.735 469.025 104.409H453.773C453.889 106.289 454.527 107.763 455.688 108.831C456.872 109.876 458.3 110.398 459.971 110.398C461.341 110.398 462.479 110.085 463.384 109.458C464.313 108.808 464.963 107.949 465.334 106.881H468.747C468.236 108.715 467.214 110.212 465.682 111.373C464.15 112.511 462.246 113.08 459.971 113.08C458.161 113.08 456.536 112.673 455.096 111.861C453.68 111.048 452.566 109.899 451.753 108.413C450.941 106.904 450.534 105.163 450.534 103.19C450.534 101.217 450.929 99.4871 451.718 98.0013C452.508 96.5156 453.61 95.378 455.027 94.5887C456.466 93.7762 458.114 93.3699 459.971 93.3699C461.782 93.3699 463.384 93.7646 464.777 94.5539C466.17 95.3432 467.238 96.4343 467.981 97.8272C468.747 99.1969 469.13 100.752 469.13 102.493ZM465.856 101.832C465.856 100.625 465.589 99.5916 465.055 98.7326C464.522 97.8504 463.79 97.1888 462.862 96.7477C461.956 96.2834 460.946 96.0513 459.832 96.0513C458.23 96.0513 456.861 96.562 455.723 97.5835C454.609 98.6049 453.97 100.021 453.808 101.832H465.856ZM496.261 93.3351C497.746 93.3351 499.07 93.6485 500.23 94.2753C501.391 94.8789 502.308 95.7959 502.981 97.0263C503.655 98.2567 503.991 99.7541 503.991 101.518V112.766H500.857V101.971C500.857 100.067 500.381 98.6165 499.429 97.6183C498.501 96.5968 497.236 96.0861 495.634 96.0861C493.986 96.0861 492.674 96.62 491.699 97.6879C490.724 98.7326 490.236 100.253 490.236 102.25V112.766H487.102V101.971C487.102 100.067 486.626 98.6165 485.675 97.6183C484.746 96.5968 483.481 96.0861 481.879 96.0861C480.231 96.0861 478.919 96.62 477.944 97.6879C476.969 98.7326 476.481 100.253 476.481 102.25V112.766H473.313V93.6833H476.481V96.4343C477.108 95.4361 477.944 94.67 478.989 94.136C480.056 93.6021 481.229 93.3351 482.506 93.3351C484.108 93.3351 485.524 93.6949 486.754 94.4146C487.984 95.1343 488.901 96.1906 489.505 97.5835C490.039 96.237 490.921 95.1923 492.152 94.4494C493.382 93.7066 494.752 93.3351 496.261 93.3351Z" fill="#B07AF8"/>
<path d="M85.6878 10.4302V39.6321C85.6878 42.8316 86.5215 45.2876 88.1889 47.0001C89.8563 48.6675 92.1997 49.5012 95.219 49.5012C98.2834 49.5012 100.649 48.6675 102.317 47.0001C103.984 45.2876 104.818 42.8316 104.818 39.6321V10.4302H114.349V39.5645C114.349 43.5752 113.47 46.9776 111.713 49.7716C110 52.5205 107.679 54.5935 104.75 55.9905C101.866 57.3875 98.6439 58.086 95.0838 58.086C91.5688 58.086 88.3692 57.3875 85.4851 55.9905C82.646 54.5935 80.3928 52.5205 78.7254 49.7716C77.058 46.9776 76.2243 43.5752 76.2243 39.5645V10.4302H85.6878ZM132.28 7.59118V57.6128H122.816V7.59118H132.28ZM151.972 27.9378V46.0537C151.972 47.3156 152.265 48.2394 152.851 48.8252C153.482 49.366 154.518 49.6364 155.96 49.6364H160.354V57.6128H154.406C146.429 57.6128 142.441 53.7372 142.441 45.9861V27.9378H137.98V20.1642H142.441V10.9034H151.972V20.1642H160.354V27.9378H151.972ZM175.949 25.9775C177.165 23.9947 178.743 22.4399 180.68 21.3133C182.663 20.1867 184.916 19.6234 187.44 19.6234V29.5601H184.939C181.965 29.5601 179.711 30.2586 178.179 31.6556C176.692 33.0526 175.949 35.4861 175.949 38.9561V57.6128H166.485V20.1642H175.949V25.9775ZM190.705 38.7533C190.705 34.9679 191.448 31.6106 192.935 28.6814C194.468 25.7522 196.518 23.499 199.087 21.9217C201.7 20.3444 204.607 19.5558 207.807 19.5558C210.601 19.5558 213.034 20.1191 215.107 21.2457C217.225 22.3723 218.915 23.7919 220.177 25.5043V20.1642H229.708V57.6128H220.177V52.1375C218.96 53.895 217.27 55.3596 215.107 56.5312C212.989 57.6579 210.533 58.2212 207.739 58.2212C204.585 58.2212 201.7 57.41 199.087 55.7877C196.518 54.1654 194.468 51.8896 192.935 48.9604C191.448 45.9861 190.705 42.5838 190.705 38.7533ZM220.177 38.8885C220.177 36.5902 219.726 34.6299 218.825 33.0076C217.924 31.3402 216.707 30.0784 215.175 29.2221C213.643 28.3209 211.998 27.8702 210.24 27.8702C208.483 27.8702 206.86 28.2983 205.373 29.1546C203.886 30.0108 202.669 31.2726 201.723 32.94C200.822 34.5623 200.371 36.5001 200.371 38.7533C200.371 41.0065 200.822 42.9894 201.723 44.7018C202.669 46.3692 203.886 47.6535 205.373 48.5548C206.905 49.4561 208.528 49.9068 210.24 49.9068C211.998 49.9068 213.643 49.4786 215.175 48.6224C216.707 47.7211 217.924 46.4593 218.825 44.837C219.726 43.1696 220.177 41.1868 220.177 38.8885ZM253.89 48.8928L263.353 20.1642H273.425L259.568 57.6128H248.076L234.287 20.1642H244.426L253.89 48.8928ZM282.864 15.7028C281.197 15.7028 279.8 15.1846 278.673 14.1481C277.591 13.0665 277.051 11.7371 277.051 10.1599C277.051 8.5826 277.591 7.27573 278.673 6.23924C279.8 5.1577 281.197 4.61692 282.864 4.61692C284.531 4.61692 285.906 5.1577 286.987 6.23924C288.114 7.27573 288.677 8.5826 288.677 10.1599C288.677 11.7371 288.114 13.0665 286.987 14.1481C285.906 15.1846 284.531 15.7028 282.864 15.7028ZM287.528 20.1642V57.6128H278.065V20.1642H287.528ZM312.831 58.2212C309.226 58.2212 305.981 57.4325 303.097 55.8553C300.213 54.233 297.937 51.9572 296.27 49.028C294.647 46.0988 293.836 42.719 293.836 38.8885C293.836 35.058 294.67 31.6782 296.337 28.749C298.05 25.8198 300.371 23.5666 303.3 21.9893C306.229 20.367 309.496 19.5558 313.101 19.5558C316.706 19.5558 319.974 20.367 322.903 21.9893C325.832 23.5666 328.13 25.8198 329.798 28.749C331.51 31.6782 332.366 35.058 332.366 38.8885C332.366 42.719 331.488 46.0988 329.73 49.028C328.018 51.9572 325.674 54.233 322.7 55.8553C319.771 57.4325 316.481 58.2212 312.831 58.2212ZM312.831 49.9744C314.543 49.9744 316.143 49.5688 317.63 48.7576C319.163 47.9014 320.379 46.6396 321.281 44.9722C322.182 43.3048 322.632 41.2769 322.632 38.8885C322.632 35.3284 321.686 32.602 319.793 30.7093C317.946 28.7715 315.67 27.8026 312.966 27.8026C310.262 27.8026 307.987 28.7715 306.139 30.7093C304.336 32.602 303.435 35.3284 303.435 38.8885C303.435 42.4486 304.314 45.1975 306.071 47.1353C307.874 49.028 310.127 49.9744 312.831 49.9744ZM348.096 7.59118V57.6128H338.632V7.59118H348.096ZM391.582 38.0773C391.582 39.4293 391.492 40.646 391.312 41.7276H363.935C364.161 44.4314 365.107 46.5495 366.774 48.0816C368.442 49.6138 370.492 50.3799 372.926 50.3799C376.441 50.3799 378.942 48.8703 380.429 45.851H390.636C389.554 49.4561 387.481 52.4304 384.417 54.7737C381.353 57.072 377.59 58.2212 373.128 58.2212C369.523 58.2212 366.279 57.4325 363.394 55.8553C360.555 54.233 358.325 51.9572 356.702 49.028C355.125 46.0988 354.336 42.719 354.336 38.8885C354.336 35.0129 355.125 31.6106 356.702 28.6814C358.28 25.7522 360.488 23.499 363.327 21.9217C366.166 20.3444 369.433 19.5558 373.128 19.5558C376.688 19.5558 379.865 20.3219 382.659 21.8541C385.499 23.3863 387.684 25.5719 389.216 28.411C390.794 31.205 391.582 34.4271 391.582 38.0773ZM381.781 35.3735C381.736 32.94 380.857 31.0022 379.144 29.5601C377.432 28.073 375.337 27.3294 372.858 27.3294C370.515 27.3294 368.532 28.0505 366.909 29.4925C365.332 30.8895 364.363 32.8498 364.003 35.3735H381.781ZM408.832 27.9378V46.0537C408.832 47.3156 409.125 48.2394 409.711 48.8252C410.342 49.366 411.378 49.6364 412.82 49.6364H417.214V57.6128H411.266C403.289 57.6128 399.301 53.7372 399.301 45.9861V27.9378H394.84V20.1642H399.301V10.9034H408.832V20.1642H417.214V27.9378H408.832Z" fill="#B07AF8"/>
</g>
<defs>
<clipPath id="clip0_4827_105819">
<rect width="510.048" height="127" fill="white"/>
</clipPath>
</defs>
</svg>
