<svg xmlns="http://www.w3.org/2000/svg" width="511" height="127" fill="none">
    <clipPath id="a">
        <path d="M0 0h510.048v127H0z"/>
    </clipPath>
    <g fill="#521094" clip-path="url(#a)">
        <path d="M26.033 52.121c-2.265 0-4.111-1.82-4.111-4.059s1.82-4.11 4.059-4.11h5.026a2.652 2.652 0 0 0 2.647-2.649V31.147c0-2.238 1.82-4.059 4.06-4.059s4.058 1.82 4.058 4.06V47.13c-.113 2.561-2.099 4.695-4.616 4.974H26.05zm-6.646-11.933a4.063 4.063 0 0 1-4.059-4.059V20.146c.113-2.56 2.1-4.694 4.625-4.973h11.088c2.247 0 4.06 1.777 4.111 4.05 0 2.29-1.82 4.12-4.059 4.12h-5.025a2.625 2.625 0 0 0-2.648 2.648v10.156a4.063 4.063 0 0 1-4.06 4.059h.01z"/>
        <path d="M32.811 8.188c8.84 0 15.983 7.142 15.983 15.983v30.755c-.374 2.117-2.064 3.754-4.233 4.076H24.136c-8.841 0-15.983-7.142-15.983-15.983V13.17c0-2.752 2.212-5.008 4.912-5.008l19.746.035zM32.898 0H12.752C5.732 0 0 5.723 0 12.752V43.21c0 13.283 10.748 24.031 24.031 24.031h21.28a12.687 12.687 0 0 0 11.61-11.288V23.988c0-13.231-10.749-23.98-24.032-23.98h.01zM84.12 113.01c-1.603 0-3.042-.279-4.319-.836-1.253-.58-2.24-1.37-2.96-2.368-.72-1.021-1.09-2.194-1.114-3.517h3.378a4.55 4.55 0 0 0 1.393 2.89c.835.766 2.043 1.15 3.621 1.15 1.51 0 2.693-.372 3.552-1.115.882-.766 1.323-1.741 1.323-2.925 0-.928-.255-1.683-.766-2.263a4.892 4.892 0 0 0-1.915-1.324c-.766-.301-1.799-.626-3.1-.975-1.6-.418-2.89-.835-3.864-1.253-.952-.418-1.776-1.068-2.473-1.95-.673-.906-1.01-2.113-1.01-3.622 0-1.323.337-2.495 1.01-3.517.673-1.021 1.614-1.81 2.82-2.368 1.231-.557 2.636-.836 4.214-.836 2.275 0 4.133.57 5.572 1.707 1.463 1.137 2.287 2.646 2.472 4.527h-3.482c-.116-.929-.603-1.741-1.462-2.438-.86-.72-1.997-1.08-3.413-1.08-1.323 0-2.403.349-3.238 1.045-.836.673-1.254 1.625-1.254 2.856 0 .882.244 1.602.731 2.159a5.19 5.19 0 0 0 1.846 1.288c.743.279 1.776.604 3.099.975 1.602.441 2.89.882 3.865 1.323.975.418 1.811 1.08 2.507 1.985.697.882 1.045 2.09 1.045 3.622a6.39 6.39 0 0 1-.94 3.343c-.627 1.044-1.556 1.892-2.786 2.542s-2.681.975-4.353.975m11.557-9.82c0-1.973.395-3.691 1.184-5.154.79-1.486 1.88-2.635 3.274-3.447 1.416-.813 3.029-1.22 4.84-1.22 2.345 0 4.272.57 5.781 1.707 1.532 1.138 2.542 2.716 3.029 4.736h-3.412c-.325-1.16-.964-2.078-1.916-2.75-.928-.674-2.089-1.01-3.482-1.01-1.811 0-3.273.626-4.388 1.88-1.114 1.23-1.671 2.983-1.671 5.258 0 2.298.557 4.074 1.671 5.328 1.115 1.253 2.577 1.88 4.388 1.88 1.393 0 2.554-.325 3.482-.975.929-.65 1.567-1.578 1.916-2.786h3.412c-.511 1.95-1.532 3.517-3.064 4.701-1.532 1.161-3.448 1.742-5.746 1.742-1.811 0-3.424-.407-4.84-1.219-1.393-.813-2.484-1.962-3.274-3.448-.789-1.485-1.184-3.227-1.184-5.223m21.152-.035c0-1.95.395-3.656 1.184-5.119.79-1.486 1.869-2.635 3.239-3.447 1.393-.813 2.937-1.22 4.631-1.22 1.672 0 3.123.36 4.353 1.08 1.231.72 2.148 1.625 2.751 2.717v-3.483h3.204v19.083h-3.204v-3.552c-.627 1.115-1.567 2.043-2.821 2.786-1.23.72-2.669 1.08-4.318 1.08-1.694 0-3.226-.418-4.596-1.254s-2.449-2.008-3.239-3.517c-.789-1.509-1.184-3.227-1.184-5.154m16.158.035c0-1.439-.29-2.693-.87-3.76-.581-1.069-1.37-1.881-2.368-2.439-.975-.58-2.055-.87-3.239-.87s-2.263.278-3.238.836c-.975.557-1.753 1.37-2.334 2.437-.58 1.068-.87 2.322-.87 3.761 0 1.463.29 2.739.87 3.831.581 1.067 1.359 1.892 2.334 2.472.975.557 2.054.836 3.238.836s2.264-.279 3.239-.836c.998-.58 1.787-1.405 2.368-2.472.58-1.092.87-2.357.87-3.796m11.728-16.193v25.769h-3.169V86.997zm22.812 15.496c0 .604-.035 1.242-.105 1.916H152.17c.116 1.88.754 3.354 1.915 4.422 1.184 1.045 2.612 1.567 4.283 1.567 1.37 0 2.508-.313 3.413-.94a5.124 5.124 0 0 0 1.95-2.577h3.413c-.511 1.834-1.533 3.331-3.065 4.492-1.532 1.138-3.436 1.707-5.711 1.707-1.81 0-3.435-.407-4.875-1.219-1.416-.813-2.53-1.962-3.343-3.448-.812-1.509-1.219-3.25-1.219-5.223s.395-3.703 1.184-5.189c.79-1.485 1.892-2.623 3.309-3.412 1.439-.813 3.087-1.22 4.944-1.22 1.811 0 3.413.396 4.806 1.185s2.461 1.88 3.204 3.273c.766 1.37 1.149 2.925 1.149 4.666m-3.274-.661c0-1.207-.267-2.24-.801-3.1a5.036 5.036 0 0 0-2.193-1.984c-.906-.465-1.916-.697-3.03-.697-1.602 0-2.971.511-4.109 1.532-1.114 1.022-1.753 2.438-1.915 4.249zm32.877-8.149-5.955 19.083h-3.273l-4.597-15.148-4.596 15.148h-3.273l-5.99-19.083h3.239l4.387 16.019 4.736-16.019h3.239l4.631 16.054 4.318-16.054zm1.961 9.472c0-1.95.395-3.656 1.184-5.119.789-1.486 1.869-2.635 3.238-3.447 1.393-.813 2.937-1.22 4.632-1.22 1.671 0 3.122.36 4.353 1.08 1.23.72 2.147 1.625 2.751 2.717v-3.483h3.203v19.083h-3.203v-3.552c-.627 1.115-1.567 2.043-2.821 2.786-1.23.72-2.67 1.08-4.318 1.08-1.695 0-3.227-.418-4.597-1.254-1.369-.836-2.449-2.008-3.238-3.517s-1.184-3.227-1.184-5.154m16.158.035c0-1.439-.291-2.693-.871-3.76s-1.37-1.881-2.368-2.439c-.975-.58-2.054-.87-3.238-.87s-2.264.278-3.239.836c-.975.557-1.753 1.37-2.333 2.437s-.871 2.322-.871 3.761c0 1.463.291 2.739.871 3.831.58 1.067 1.358 1.892 2.333 2.472.975.557 2.055.836 3.239.836s2.263-.279 3.238-.836c.998-.58 1.788-1.405 2.368-2.472.58-1.092.871-2.357.871-3.796m24.995-9.507-11.492 28.067h-3.273l3.761-9.193-7.696-18.874h3.517l5.989 15.462 5.92-15.462zm20.025-5.188c2.647 0 4.934.499 6.86 1.497 1.95.975 3.436 2.38 4.458 4.214 1.044 1.834 1.567 3.993 1.567 6.477 0 2.484-.523 4.643-1.567 6.477-1.022 1.81-2.508 3.203-4.458 4.178-1.926.952-4.213 1.428-6.86 1.428h-7.556V88.495zm0 21.659c3.134 0 5.526-.824 7.174-2.472 1.648-1.671 2.472-4.005 2.472-6.999 0-3.018-.836-5.375-2.507-7.07-1.648-1.694-4.028-2.541-7.139-2.541h-4.387v19.082zm34.476-7.661c0 .604-.035 1.242-.105 1.916h-15.252c.116 1.88.755 3.354 1.915 4.422 1.184 1.045 2.612 1.567 4.283 1.567 1.37 0 2.508-.313 3.413-.94a5.124 5.124 0 0 0 1.95-2.577h3.413c-.511 1.834-1.532 3.331-3.065 4.492-1.532 1.138-3.435 1.707-5.711 1.707-1.81 0-3.435-.407-4.875-1.219-1.416-.813-2.53-1.962-3.343-3.448-.812-1.509-1.218-3.25-1.218-5.223s.394-3.703 1.183-5.189c.79-1.485 1.893-2.623 3.309-3.412 1.439-.813 3.087-1.22 4.944-1.22 1.811 0 3.413.396 4.806 1.185s2.461 1.88 3.204 3.273c.766 1.37 1.149 2.925 1.149 4.666m-3.274-.661c0-1.207-.267-2.24-.8-3.1a5.044 5.044 0 0 0-2.194-1.984c-.906-.465-1.916-.697-3.03-.697-1.602 0-2.971.511-4.109 1.532-1.114 1.022-1.753 2.438-1.915 4.249zm14.212 11.248c-1.462 0-2.774-.244-3.935-.732-1.161-.51-2.078-1.207-2.751-2.089-.673-.905-1.044-1.939-1.114-3.099h3.273c.093.951.534 1.729 1.323 2.333.813.603 1.869.905 3.169.905 1.207 0 2.159-.267 2.856-.801.696-.534 1.044-1.207 1.044-2.019 0-.836-.371-1.451-1.114-1.846-.743-.418-1.892-.824-3.447-1.219-1.416-.371-2.577-.743-3.483-1.114a6.627 6.627 0 0 1-2.298-1.706c-.627-.767-.94-1.765-.94-2.995 0-.975.29-1.869.87-2.682.581-.812 1.405-1.45 2.473-1.915 1.068-.487 2.287-.731 3.656-.731 2.113 0 3.819.534 5.119 1.602s1.997 2.53 2.09 4.387h-3.169c-.07-.998-.476-1.799-1.219-2.402-.72-.604-1.695-.906-2.925-.906-1.138 0-2.043.244-2.716.731-.674.488-1.01 1.126-1.01 1.916 0 .627.197 1.149.592 1.567.418.394.928.719 1.532.975.627.232 1.486.499 2.577.801 1.37.371 2.484.743 3.343 1.114.859.348 1.59.882 2.194 1.602.626.72.951 1.66.975 2.821 0 1.044-.291 1.984-.871 2.82s-1.404 1.498-2.472 1.985c-1.045.464-2.252.697-3.622.697m13.075-22.496a2.085 2.085 0 0 1-1.533-.627c-.417-.418-.626-.928-.626-1.532s.209-1.114.626-1.532a2.086 2.086 0 0 1 1.533-.627c.58 0 1.068.21 1.462.627.418.418.627.928.627 1.532s-.209 1.114-.627 1.532a1.93 1.93 0 0 1-1.462.627m1.532 3.1v19.082h-3.169V93.683zm13.271-.314c1.648 0 3.087.36 4.318 1.08 1.253.72 2.182 1.624 2.785 2.716v-3.483h3.204v19.501c0 1.741-.371 3.285-1.114 4.631-.743 1.37-1.811 2.438-3.204 3.204-1.37.766-2.972 1.149-4.806 1.149-2.507 0-4.596-.592-6.268-1.776-1.671-1.184-2.658-2.797-2.959-4.84h3.134c.348 1.161 1.067 2.089 2.159 2.786 1.091.719 2.402 1.079 3.934 1.079 1.742 0 3.158-.545 4.249-1.636 1.114-1.092 1.671-2.624 1.671-4.597v-4.005c-.626 1.115-1.555 2.043-2.785 2.786-1.231.743-2.67 1.115-4.318 1.115-1.695 0-3.239-.418-4.632-1.254-1.37-.836-2.449-2.008-3.238-3.517-.79-1.509-1.184-3.227-1.184-5.154 0-1.95.394-3.656 1.184-5.119.789-1.486 1.868-2.635 3.238-3.447 1.393-.813 2.937-1.22 4.632-1.22m7.103 9.82c0-1.439-.29-2.693-.87-3.76-.581-1.069-1.37-1.881-2.368-2.439-.975-.58-2.055-.87-3.239-.87s-2.263.278-3.238.836c-.975.557-1.753 1.37-2.333 2.437-.581 1.068-.871 2.322-.871 3.761 0 1.463.29 2.739.871 3.831.58 1.067 1.358 1.892 2.333 2.472.975.557 2.054.836 3.238.836s2.264-.279 3.239-.836c.998-.58 1.787-1.405 2.368-2.472.58-1.092.87-2.357.87-3.796m17.857-9.855c2.321 0 4.202.708 5.641 2.124 1.439 1.393 2.159 3.413 2.159 6.059v11.248h-3.134V101.97c0-1.904-.476-3.355-1.428-4.353-.952-1.021-2.252-1.532-3.9-1.532-1.671 0-3.006.522-4.005 1.567-.975 1.045-1.462 2.565-1.462 4.562v10.551h-3.169V93.683h3.169V96.4a6.319 6.319 0 0 1 2.542-2.263c1.091-.534 2.287-.8 3.587-.8m29.956 19.675c-1.602 0-3.041-.279-4.318-.836-1.254-.58-2.24-1.37-2.96-2.368-.72-1.021-1.091-2.194-1.114-3.517h3.377a4.553 4.553 0 0 0 1.393 2.89c.836.766 2.043 1.15 3.622 1.15 1.509 0 2.693-.372 3.552-1.115.882-.766 1.323-1.741 1.323-2.925 0-.928-.255-1.683-.766-2.263a4.893 4.893 0 0 0-1.915-1.324c-.766-.301-1.8-.626-3.1-.975-1.601-.418-2.89-.835-3.865-1.253-.952-.418-1.776-1.068-2.472-1.95-.674-.906-1.01-2.113-1.01-3.622 0-1.323.336-2.496 1.01-3.517.673-1.021 1.613-1.81 2.82-2.368 1.231-.557 2.635-.836 4.214-.836 2.275 0 4.132.57 5.572 1.707 1.462 1.137 2.286 2.646 2.472 4.527h-3.482c-.116-.929-.604-1.742-1.463-2.438-.859-.72-1.996-1.08-3.413-1.08-1.323 0-2.402.349-3.238 1.045-.836.673-1.254 1.625-1.254 2.856 0 .882.244 1.601.732 2.159.51.557 1.126.986 1.845 1.288.743.279 1.776.604 3.099.975 1.602.441 2.891.882 3.866 1.323.975.418 1.811 1.08 2.507 1.985.696.882 1.045 2.09 1.045 3.622a6.39 6.39 0 0 1-.941 3.343c-.626 1.044-1.555 1.892-2.785 2.542-1.231.65-2.682.975-4.353.975m29.178-19.327-11.491 28.067h-3.274l3.761-9.193-7.696-18.874h3.517l5.99 15.462 5.92-15.462zm9.941 19.397c-1.462 0-2.774-.244-3.935-.732-1.161-.51-2.078-1.207-2.751-2.089-.673-.905-1.044-1.939-1.114-3.099h3.273c.093.951.534 1.729 1.323 2.333.813.603 1.869.905 3.169.905 1.208 0 2.159-.267 2.856-.801.696-.534 1.044-1.207 1.044-2.019 0-.836-.371-1.451-1.114-1.846-.743-.418-1.892-.824-3.447-1.219-1.416-.371-2.577-.743-3.483-1.114a6.627 6.627 0 0 1-2.298-1.706c-.627-.767-.94-1.765-.94-2.995 0-.975.29-1.869.871-2.682.58-.812 1.404-1.45 2.472-1.915 1.068-.487 2.287-.731 3.656-.731 2.113 0 3.819.534 5.119 1.602s1.997 2.53 2.09 4.387h-3.169c-.07-.998-.476-1.799-1.219-2.402-.72-.604-1.695-.906-2.925-.906-1.138 0-2.043.244-2.716.731-.674.488-1.01 1.126-1.01 1.916 0 .627.197 1.149.592 1.567.418.394.928.719 1.532.975.627.232 1.486.499 2.577.801 1.37.371 2.484.743 3.343 1.114.859.348 1.59.882 2.194 1.602.626.72.951 1.66.975 2.821 0 1.044-.291 1.984-.871 2.82s-1.404 1.498-2.472 1.985c-1.045.464-2.252.697-3.622.697m15.303-16.785v11.248c0 .928.198 1.59.592 1.985.395.371 1.08.557 2.055.557h2.333v2.681h-2.855c-1.765 0-3.088-.406-3.97-1.219-.882-.812-1.324-2.147-1.324-4.004v-11.25h-2.472v-2.612h2.472v-4.805h3.169v4.805h4.98v2.612zm26.231 6.198c0 .604-.035 1.242-.105 1.916h-15.252c.116 1.88.754 3.354 1.915 4.422 1.184 1.045 2.612 1.567 4.283 1.567 1.37 0 2.508-.313 3.413-.94a5.124 5.124 0 0 0 1.95-2.577h3.413c-.511 1.834-1.533 3.331-3.065 4.492-1.532 1.138-3.436 1.707-5.711 1.707-1.81 0-3.435-.407-4.875-1.219-1.416-.813-2.53-1.962-3.343-3.448-.812-1.509-1.219-3.25-1.219-5.223s.395-3.703 1.184-5.189c.79-1.485 1.892-2.623 3.309-3.412 1.439-.813 3.087-1.22 4.944-1.22 1.811 0 3.413.396 4.806 1.185s2.461 1.88 3.204 3.273c.766 1.37 1.149 2.925 1.149 4.666m-3.274-.661c0-1.207-.267-2.24-.801-3.1a5.036 5.036 0 0 0-2.193-1.984c-.906-.465-1.916-.697-3.03-.697-1.602 0-2.971.511-4.109 1.532-1.114 1.022-1.753 2.438-1.915 4.249zm30.405-8.497c1.485 0 2.809.313 3.969.94 1.161.604 2.078 1.52 2.751 2.751.674 1.23 1.01 2.728 1.01 4.492v11.248h-3.134v-10.795c0-1.904-.476-3.355-1.428-4.353-.928-1.021-2.193-1.532-3.795-1.532-1.648 0-2.96.534-3.935 1.602-.975 1.045-1.463 2.565-1.463 4.562v10.516h-3.134v-10.795c0-1.904-.476-3.355-1.427-4.353-.929-1.021-2.194-1.532-3.796-1.532-1.648 0-2.96.534-3.935 1.602-.975 1.045-1.463 2.565-1.463 4.562v10.516h-3.168V93.683h3.168v2.751a6.293 6.293 0 0 1 2.508-2.298c1.067-.534 2.24-.8 3.517-.8 1.602 0 3.018.359 4.248 1.079s2.147 1.776 2.751 3.168a6.257 6.257 0 0 1 2.647-3.134c1.23-.742 2.6-1.114 4.109-1.114M85.688 10.43v29.202c0 3.2.833 5.656 2.5 7.368 1.668 1.667 4.012 2.501 7.031 2.501 3.064 0 5.43-.834 7.098-2.5 1.667-1.713 2.501-4.17 2.501-7.369V10.43h9.531v29.134c0 4.011-.879 7.414-2.636 10.208-1.713 2.748-4.034 4.821-6.963 6.218-2.884 1.397-6.106 2.096-9.666 2.096-3.515 0-6.715-.699-9.599-2.096-2.839-1.397-5.092-3.47-6.76-6.218-1.667-2.794-2.5-6.197-2.5-10.208V10.43zm46.592-2.839v50.022h-9.464V7.59zm19.692 20.347v18.116c0 1.262.293 2.185.879 2.771.631.541 1.667.811 3.109.811h4.394v7.977h-5.948c-7.977 0-11.965-3.876-11.965-11.627V27.938h-4.461v-7.774h4.461v-9.26h9.531v9.26h8.382v7.774zm23.977-1.96c1.216-1.983 2.794-3.538 4.731-4.665 1.983-1.126 4.236-1.69 6.76-1.69v9.937h-2.501c-2.974 0-5.228.699-6.76 2.096-1.487 1.397-2.23 3.83-2.23 7.3v18.657h-9.464V20.164h9.464zm14.756 12.775c0-3.785.743-7.142 2.23-10.072 1.533-2.929 3.583-5.182 6.152-6.76 2.613-1.577 5.52-2.365 8.72-2.365 2.794 0 5.227.563 7.3 1.69 2.118 1.126 3.808 2.546 5.07 4.258v-5.34h9.531v37.449h-9.531v-5.475c-1.217 1.757-2.907 3.222-5.07 4.393-2.118 1.127-4.574 1.69-7.368 1.69-3.154 0-6.039-.811-8.652-2.433-2.569-1.623-4.619-3.898-6.152-6.828-1.487-2.974-2.23-6.376-2.23-10.207m29.472.136c0-2.299-.451-4.26-1.352-5.881-.901-1.668-2.118-2.93-3.65-3.786a9.57 9.57 0 0 0-4.935-1.352c-1.757 0-3.38.428-4.867 1.285-1.487.856-2.704 2.118-3.65 3.785-.901 1.622-1.352 3.56-1.352 5.813s.451 4.236 1.352 5.949c.946 1.667 2.163 2.952 3.65 3.853 1.532.901 3.155 1.352 4.867 1.352a9.955 9.955 0 0 0 4.935-1.285c1.532-.9 2.749-2.163 3.65-3.785.901-1.667 1.352-3.65 1.352-5.948m33.713 10.004 9.463-28.729h10.072l-13.857 37.449h-11.492l-13.789-37.449h10.139zm28.974-33.19c-1.667 0-3.064-.518-4.191-1.555-1.082-1.081-1.622-2.41-1.622-3.988 0-1.577.54-2.884 1.622-3.92 1.127-1.082 2.524-1.623 4.191-1.623s3.042.54 4.123 1.622c1.127 1.037 1.69 2.344 1.69 3.92 0 1.578-.563 2.908-1.69 3.99-1.081 1.036-2.456 1.554-4.123 1.554m4.664 4.461v37.449h-9.463V20.164zm25.303 38.057c-3.605 0-6.85-.788-9.734-2.366-2.884-1.622-5.16-3.898-6.827-6.827-1.623-2.93-2.434-6.309-2.434-10.14s.834-7.21 2.501-10.139c1.713-2.93 4.034-5.182 6.963-6.76 2.929-1.622 6.196-2.433 9.801-2.433s6.873.811 9.802 2.433c2.929 1.578 5.227 3.83 6.895 6.76 1.712 2.93 2.568 6.309 2.568 10.14s-.878 7.21-2.636 10.139c-1.712 2.93-4.056 5.205-7.03 6.827-2.929 1.578-6.219 2.366-9.869 2.366m0-8.247a9.866 9.866 0 0 0 4.799-1.216c1.533-.857 2.749-2.118 3.651-3.786.901-1.667 1.351-3.695 1.351-6.083 0-3.56-.946-6.287-2.839-8.18-1.847-1.937-4.123-2.906-6.827-2.906s-4.979.969-6.827 2.906c-1.803 1.893-2.704 4.62-2.704 8.18s.879 6.309 2.636 8.246c1.803 1.893 4.056 2.84 6.76 2.84m35.265-42.383v50.022h-9.464V7.59zm43.486 30.486c0 1.352-.09 2.569-.27 3.65h-27.377c.226 2.704 1.172 4.823 2.839 6.355 1.668 1.532 3.718 2.298 6.152 2.298 3.515 0 6.016-1.51 7.503-4.529h10.207c-1.082 3.605-3.155 6.58-6.219 8.923-3.064 2.298-6.827 3.447-11.289 3.447-3.605 0-6.849-.788-9.734-2.366-2.839-1.622-5.069-3.898-6.692-6.827-1.577-2.93-2.366-6.309-2.366-10.14 0-3.875.789-7.277 2.366-10.207 1.578-2.929 3.786-5.182 6.625-6.76s6.106-2.365 9.801-2.365c3.56 0 6.737.766 9.531 2.298 2.84 1.532 5.025 3.718 6.557 6.557 1.578 2.794 2.366 6.016 2.366 9.666m-9.801-2.703c-.045-2.434-.924-4.372-2.637-5.814-1.712-1.487-3.807-2.23-6.286-2.23-2.343 0-4.326.72-5.949 2.163-1.577 1.397-2.546 3.357-2.906 5.88zm27.051-7.436v18.116c0 1.262.293 2.185.879 2.771.631.541 1.667.811 3.109.811h4.394v7.977h-5.948c-7.977 0-11.965-3.876-11.965-11.627V27.938h-4.461v-7.774h4.461v-9.26h9.531v9.26h8.382v7.774z"/>
    </g>
</svg>
