<svg fill="none" height="127" viewBox="0 0 511 127" width="511" xmlns="http://www.w3.org/2000/svg" xmlns:xlink="http://www.w3.org/1999/xlink"><clipPath id="a"><path d="m0 0h510.048v127h-510.048z"/></clipPath><g clip-path="url(#a)" fill="#521094"><path d="m26.0331 52.1213c-2.2647 0-4.1112-1.8204-4.1112-4.0589s1.8204-4.1112 4.0589-4.1112h5.0257c1.4546 0 2.6479-1.1846 2.6479-2.6479v-10.156c0-2.2385 1.8204-4.0589 4.0589-4.0589s4.059 1.8204 4.059 4.0589v15.9831c-.1133 2.5608-2.0992 4.6947-4.6164 4.9735h-11.1054z"/><path d="m19.387 40.1883c-2.2385 0-4.0589-1.8204-4.0589-4.0589v-15.9831c.1133-2.5607 2.0992-4.6947 4.6251-4.9734h11.088c2.2472 0 4.0589 1.7768 4.1112 4.0502 0 2.2907-1.8204 4.1199-4.0589 4.1199h-5.0258c-1.4807 0-2.6479 1.1671-2.6479 2.6478v10.156c0 2.2385-1.8204 4.059-4.0589 4.059h.0087z"/><path d="m32.8111 8.18752c8.8407 0 15.983 7.14228 15.983 15.98308v30.7555c-.3745 2.1165-2.0643 3.754-4.2331 4.0763h-20.4252c-8.8408 0-15.98312-7.1423-15.98312-15.9831v-29.8496c0-2.7524 2.21242-5.00831 4.91252-5.00831l19.7459.03484zm.0871-8.18752h-20.1466c-7.02034 0-12.7516 5.72255-12.7516 12.7516v30.4593c0 13.283 10.7483 24.0313 24.0312 24.0313h21.2789c6.0971-.4878 10.9573-5.2348 11.6106-11.2883v-31.9662c0-13.2307-10.7483-23.97898801-24.0313-23.97898801h.0088z"/><path d="m84.1193 113.01c-1.6018 0-3.0412-.279-4.318-.836-1.2536-.58-2.2402-1.37-2.9599-2.368-.7197-1.021-1.0911-2.194-1.1143-3.517h3.3778c.116 1.138.5803 2.101 1.3929 2.89.8357.766 2.0429 1.15 3.6215 1.15 1.509 0 2.693-.372 3.5519-1.115.8822-.766 1.3233-1.741 1.3233-2.925 0-.928-.2554-1.683-.7661-2.263-.5108-.581-1.1492-1.022-1.9153-1.324-.7661-.301-1.7991-.626-3.0992-.975-1.6018-.418-2.8902-.835-3.8653-1.253-.9518-.418-1.7759-1.0681-2.4724-1.9503-.6732-.9054-1.0098-2.1126-1.0098-3.6216 0-1.3232.3366-2.4956 1.0098-3.5171.6733-1.0214 1.6135-1.8107 2.8206-2.3679 1.2304-.5571 2.635-.8357 4.2136-.8357 2.2751 0 4.1323.5687 5.5716 1.7063 1.4625 1.1375 2.2867 2.6465 2.4724 4.5269h-3.4823c-.116-.9286-.6036-1.7411-1.4625-2.4376-.859-.7196-1.9965-1.0795-3.4126-1.0795-1.3233 0-2.4028.3483-3.2385 1.0447-.8358.6732-1.2536 1.6251-1.2536 2.8555 0 .8821.2437 1.6018.7312 2.159.5108.5571 1.126.9866 1.8456 1.2884.7429.2786 1.776.6036 3.0992.975 1.6019.4411 2.8903.8819 3.8654 1.3229.975.418 1.8107 1.08 2.5072 1.985.6964.882 1.0447 2.09 1.0447 3.622 0 1.184-.3134 2.298-.9403 3.343-.6268 1.044-1.5554 1.892-2.7858 2.542s-2.6813.975-4.3528.975zm11.5581-9.82c0-1.973.3947-3.6913 1.184-5.1538.7893-1.4858 1.8804-2.6349 3.2736-3.4475 1.416-.8125 3.029-1.2188 4.84-1.2188 2.345 0 4.272.5688 5.781 1.7063 1.532 1.1376 2.542 2.7162 3.029 4.7359h-3.412c-.325-1.1607-.964-2.0777-1.916-2.751-.928-.6732-2.089-1.0098-3.482-1.0098-1.811 0-3.273.6268-4.388 1.8804-1.1139 1.2304-1.6711 2.9833-1.6711 5.2583 0 2.298.5572 4.074 1.6711 5.328 1.115 1.253 2.577 1.88 4.388 1.88 1.393 0 2.554-.325 3.482-.975.929-.65 1.567-1.578 1.916-2.786h3.412c-.511 1.95-1.532 3.517-3.064 4.701-1.532 1.161-3.448 1.742-5.746 1.742-1.811 0-3.424-.407-4.84-1.219-1.3932-.813-2.4843-1.962-3.2736-3.448-.7893-1.485-1.184-3.227-1.184-5.223zm21.1516-.035c0-1.95.395-3.6563 1.184-5.1188.79-1.4858 1.869-2.6349 3.239-3.4475 1.393-.8125 2.937-1.2188 4.631-1.2188 1.672 0 3.123.3599 4.353 1.0795 1.231.7197 2.148 1.6251 2.751 2.7162v-3.4823h3.204v19.0827h-3.204v-3.552c-.627 1.115-1.567 2.043-2.821 2.786-1.23.72-2.669 1.08-4.318 1.08-1.694 0-3.226-.418-4.596-1.254s-2.449-2.008-3.239-3.517c-.789-1.509-1.184-3.227-1.184-5.154zm16.158.035c0-1.439-.29-2.693-.87-3.7609-.581-1.0679-1.37-1.8805-2.368-2.4376-.975-.5804-2.055-.8706-3.239-.8706s-2.263.2786-3.238.8358c-.975.5571-1.753 1.3697-2.334 2.4375-.58 1.0678-.87 2.3218-.87 3.7608 0 1.463.29 2.739.87 3.831.581 1.067 1.359 1.892 2.334 2.472.975.557 2.054.836 3.238.836s2.264-.279 3.239-.836c.998-.58 1.787-1.405 2.368-2.472.58-1.092.87-2.357.87-3.796zm11.728-16.1926v25.7686h-3.169v-25.7686zm22.812 15.4956c0 .604-.035 1.242-.105 1.916h-15.252c.116 1.88.754 3.354 1.915 4.422 1.184 1.045 2.612 1.567 4.283 1.567 1.37 0 2.508-.313 3.413-.94.929-.65 1.579-1.509 1.95-2.577h3.413c-.511 1.834-1.533 3.331-3.065 4.492-1.532 1.138-3.436 1.707-5.711 1.707-1.81 0-3.435-.407-4.875-1.219-1.416-.813-2.53-1.962-3.343-3.448-.812-1.509-1.219-3.25-1.219-5.223s.395-3.7029 1.184-5.1887c.79-1.4857 1.892-2.6233 3.309-3.4126 1.439-.8125 3.087-1.2188 4.944-1.2188 1.811 0 3.413.3947 4.806 1.184s2.461 1.8804 3.204 3.2733c.766 1.3697 1.149 2.9248 1.149 4.6658zm-3.274-.661c0-1.207-.267-2.2404-.801-3.0994-.533-.8822-1.265-1.5438-2.193-1.9849-.906-.4643-1.916-.6964-3.03-.6964-1.602 0-2.971.5107-4.109 1.5322-1.114 1.0214-1.753 2.4375-1.915 4.2485zm32.877-8.1487-5.955 19.0827h-3.273l-4.597-15.1477-4.596 15.1477h-3.273l-5.99-19.0827h3.239l4.387 16.0187 4.736-16.0187h3.239l4.631 16.0537 4.318-16.0537zm1.961 9.4717c0-1.95.395-3.6563 1.184-5.1188.789-1.4858 1.869-2.6349 3.238-3.4475 1.393-.8125 2.937-1.2188 4.632-1.2188 1.671 0 3.122.3599 4.353 1.0795 1.23.7197 2.147 1.6251 2.751 2.7162v-3.4823h3.203v19.0827h-3.203v-3.552c-.627 1.115-1.567 2.043-2.821 2.786-1.23.72-2.67 1.08-4.318 1.08-1.695 0-3.227-.418-4.597-1.254-1.369-.836-2.449-2.008-3.238-3.517s-1.184-3.227-1.184-5.154zm16.158.035c0-1.439-.291-2.693-.871-3.7609s-1.37-1.8805-2.368-2.4376c-.975-.5804-2.054-.8706-3.238-.8706s-2.264.2786-3.239.8358c-.975.5571-1.753 1.3697-2.333 2.4375s-.871 2.3218-.871 3.7608c0 1.463.291 2.739.871 3.831.58 1.067 1.358 1.892 2.333 2.472.975.557 2.055.836 3.239.836s2.263-.279 3.238-.836c.998-.58 1.788-1.405 2.368-2.472.58-1.092.871-2.357.871-3.796zm24.995-9.5067-11.492 28.0667h-3.273l3.761-9.193-7.696-18.8737h3.517l5.989 15.4617 5.92-15.4617zm20.025-5.1885c2.647 0 4.934.4991 6.86 1.4973 1.95.9751 3.436 2.3796 4.458 4.2136 1.044 1.834 1.567 3.993 1.567 6.4773 0 2.484-.523 4.643-1.567 6.477-1.022 1.81-2.508 3.203-4.458 4.178-1.926.952-4.213 1.428-6.86 1.428h-7.556v-24.2712zm0 21.6592c3.134 0 5.526-.824 7.174-2.472 1.648-1.671 2.472-4.005 2.472-6.999 0-3.0183-.836-5.3746-2.507-7.0693-1.648-1.6947-4.028-2.5421-7.139-2.5421h-4.387v19.0824zm34.476-7.661c0 .604-.035 1.242-.105 1.916h-15.252c.116 1.88.755 3.354 1.915 4.422 1.184 1.045 2.612 1.567 4.283 1.567 1.37 0 2.508-.313 3.413-.94.929-.65 1.579-1.509 1.95-2.577h3.413c-.511 1.834-1.532 3.331-3.065 4.492-1.532 1.138-3.435 1.707-5.711 1.707-1.81 0-3.435-.407-4.875-1.219-1.416-.813-2.53-1.962-3.343-3.448-.812-1.509-1.218-3.25-1.218-5.223s.394-3.7029 1.183-5.1887c.79-1.4857 1.893-2.6233 3.309-3.4126 1.439-.8125 3.087-1.2188 4.944-1.2188 1.811 0 3.413.3947 4.806 1.184s2.461 1.8804 3.204 3.2733c.766 1.3697 1.149 2.9248 1.149 4.6658zm-3.274-.661c0-1.207-.267-2.2404-.8-3.0994-.534-.8822-1.266-1.5438-2.194-1.9849-.906-.4643-1.916-.6964-3.03-.6964-1.602 0-2.971.5107-4.109 1.5322-1.114 1.0214-1.753 2.4375-1.915 4.2485zm14.212 11.248c-1.462 0-2.774-.244-3.935-.732-1.161-.51-2.078-1.207-2.751-2.089-.673-.905-1.044-1.939-1.114-3.099h3.273c.093.951.534 1.729 1.323 2.333.813.603 1.869.905 3.169.905 1.207 0 2.159-.267 2.856-.801.696-.534 1.044-1.207 1.044-2.019 0-.836-.371-1.451-1.114-1.846-.743-.418-1.892-.824-3.447-1.219-1.416-.371-2.577-.743-3.483-1.114-.882-.395-1.648-.964-2.298-1.706-.627-.767-.94-1.7648-.94-2.9952 0-.975.29-1.8688.87-2.6813.581-.8126 1.405-1.451 2.473-1.9153 1.068-.4875 2.287-.7313 3.656-.7313 2.113 0 3.819.534 5.119 1.6019s1.997 2.5304 2.09 4.3876h-3.169c-.07-.9982-.476-1.7991-1.219-2.4027-.72-.6036-1.695-.9054-2.925-.9054-1.138 0-2.043.2437-2.716.7312-.674.4876-1.01 1.126-1.01 1.9153 0 .6268.197 1.1491.592 1.5672.418.394.928.719 1.532.975.627.232 1.486.499 2.577.801 1.37.371 2.484.743 3.343 1.114.859.348 1.59.882 2.194 1.602.626.72.951 1.66.975 2.821 0 1.044-.291 1.984-.871 2.82s-1.404 1.498-2.472 1.985c-1.045.464-2.252.697-3.622.697zm13.075-22.4959c-.604 0-1.115-.2089-1.533-.6268-.417-.4178-.626-.9286-.626-1.5322s.209-1.1143.626-1.5322c.418-.4178.929-.6268 1.533-.6268.58 0 1.068.209 1.462.6268.418.4179.627.9286.627 1.5322s-.209 1.1144-.627 1.5322c-.394.4179-.882.6268-1.462.6268zm1.532 3.0992v19.0827h-3.169v-19.0827zm13.271-.3134c1.648 0 3.087.3599 4.318 1.0795 1.253.7197 2.182 1.6251 2.785 2.7162v-3.4823h3.204v19.5007c0 1.741-.371 3.285-1.114 4.631-.743 1.37-1.811 2.438-3.204 3.204-1.37.766-2.972 1.149-4.806 1.149-2.507 0-4.596-.592-6.268-1.776-1.671-1.184-2.658-2.797-2.959-4.84h3.134c.348 1.161 1.067 2.089 2.159 2.786 1.091.719 2.402 1.079 3.934 1.079 1.742 0 3.158-.545 4.249-1.636 1.114-1.092 1.671-2.624 1.671-4.597v-4.005c-.626 1.115-1.555 2.043-2.785 2.786-1.231.743-2.67 1.115-4.318 1.115-1.695 0-3.239-.418-4.632-1.254-1.37-.836-2.449-2.008-3.238-3.517-.79-1.509-1.184-3.227-1.184-5.154 0-1.95.394-3.6563 1.184-5.1188.789-1.4858 1.868-2.6349 3.238-3.4475 1.393-.8125 2.937-1.2188 4.632-1.2188zm7.103 9.8201c0-1.439-.29-2.693-.87-3.7609-.581-1.0679-1.37-1.8805-2.368-2.4376-.975-.5804-2.055-.8706-3.239-.8706s-2.263.2786-3.238.8358c-.975.5571-1.753 1.3697-2.333 2.4375-.581 1.0678-.871 2.3218-.871 3.7608 0 1.463.29 2.739.871 3.831.58 1.067 1.358 1.892 2.333 2.472.975.557 2.054.836 3.238.836s2.264-.279 3.239-.836c.998-.58 1.787-1.405 2.368-2.472.58-1.092.87-2.357.87-3.796zm17.857-9.8549c2.321 0 4.202.7081 5.641 2.1242 1.439 1.3929 2.159 3.4126 2.159 6.0587v11.248h-3.134v-10.795c0-1.904-.476-3.3545-1.428-4.3527-.952-1.0215-2.252-1.5322-3.9-1.5322-1.671 0-3.006.5223-4.005 1.567-.975 1.0447-1.462 2.5649-1.462 4.5619v10.551h-3.169v-19.0827h3.169v2.7162c.627-.975 1.474-1.7295 2.542-2.2635 1.091-.5339 2.287-.8009 3.587-.8009zm29.956 19.6749c-1.602 0-3.041-.279-4.318-.836-1.254-.58-2.24-1.37-2.96-2.368-.72-1.021-1.091-2.194-1.114-3.517h3.377c.116 1.138.581 2.101 1.393 2.89.836.766 2.043 1.15 3.622 1.15 1.509 0 2.693-.372 3.552-1.115.882-.766 1.323-1.741 1.323-2.925 0-.928-.255-1.683-.766-2.263-.511-.581-1.149-1.022-1.915-1.324-.766-.301-1.8-.626-3.1-.975-1.601-.418-2.89-.835-3.865-1.253-.952-.418-1.776-1.0681-2.472-1.9503-.674-.9054-1.01-2.1126-1.01-3.6216 0-1.3232.336-2.4956 1.01-3.5171.673-1.0214 1.613-1.8107 2.82-2.3679 1.231-.5571 2.635-.8357 4.214-.8357 2.275 0 4.132.5687 5.572 1.7063 1.462 1.1375 2.286 2.6465 2.472 4.5269h-3.482c-.116-.9286-.604-1.7411-1.463-2.4376-.859-.7196-1.996-1.0795-3.413-1.0795-1.323 0-2.402.3483-3.238 1.0447-.836.6732-1.254 1.6251-1.254 2.8555 0 .8821.244 1.6018.732 2.159.51.5571 1.126.9866 1.845 1.2884.743.2786 1.776.6036 3.099.975 1.602.4411 2.891.8819 3.866 1.3229.975.418 1.811 1.08 2.507 1.985.696.882 1.045 2.09 1.045 3.622 0 1.184-.314 2.298-.941 3.343-.626 1.044-1.555 1.892-2.785 2.542-1.231.65-2.682.975-4.353.975zm29.178-19.3267-11.491 28.0667h-3.274l3.761-9.193-7.696-18.8737h3.517l5.99 15.4617 5.92-15.4617zm9.941 19.3967c-1.462 0-2.774-.244-3.935-.732-1.161-.51-2.078-1.207-2.751-2.089-.673-.905-1.044-1.939-1.114-3.099h3.273c.093.951.534 1.729 1.323 2.333.813.603 1.869.905 3.169.905 1.208 0 2.159-.267 2.856-.801.696-.534 1.044-1.207 1.044-2.019 0-.836-.371-1.451-1.114-1.846-.743-.418-1.892-.824-3.447-1.219-1.416-.371-2.577-.743-3.483-1.114-.882-.395-1.648-.964-2.298-1.706-.627-.767-.94-1.7648-.94-2.9952 0-.975.29-1.8688.871-2.6813.58-.8126 1.404-1.451 2.472-1.9153 1.068-.4875 2.287-.7313 3.656-.7313 2.113 0 3.819.534 5.119 1.6019s1.997 2.5304 2.09 4.3876h-3.169c-.07-.9982-.476-1.7991-1.219-2.4027-.72-.6036-1.695-.9054-2.925-.9054-1.138 0-2.043.2437-2.716.7312-.674.4876-1.01 1.126-1.01 1.9153 0 .6268.197 1.1491.592 1.5672.418.394.928.719 1.532.975.627.232 1.486.499 2.577.801 1.37.371 2.484.743 3.343 1.114.859.348 1.59.882 2.194 1.602.626.72.951 1.66.975 2.821 0 1.044-.291 1.984-.871 2.82s-1.404 1.498-2.472 1.985c-1.045.464-2.252.697-3.622.697zm15.303-16.785v11.248c0 .928.198 1.59.592 1.985.395.371 1.08.557 2.055.557h2.333v2.681h-2.855c-1.765 0-3.088-.406-3.97-1.219-.882-.812-1.324-2.147-1.324-4.004v-11.248h-2.472v-2.6117h2.472v-4.8055h3.169v4.8055h4.98v2.6117zm26.231 6.198c0 .604-.035 1.242-.105 1.916h-15.252c.116 1.88.754 3.354 1.915 4.422 1.184 1.045 2.612 1.567 4.283 1.567 1.37 0 2.508-.313 3.413-.94.929-.65 1.579-1.509 1.95-2.577h3.413c-.511 1.834-1.533 3.331-3.065 4.492-1.532 1.138-3.436 1.707-5.711 1.707-1.81 0-3.435-.407-4.875-1.219-1.416-.813-2.53-1.962-3.343-3.448-.812-1.509-1.219-3.25-1.219-5.223s.395-3.7029 1.184-5.1887c.79-1.4857 1.892-2.6233 3.309-3.4126 1.439-.8125 3.087-1.2188 4.944-1.2188 1.811 0 3.413.3947 4.806 1.184s2.461 1.8804 3.204 3.2733c.766 1.3697 1.149 2.9248 1.149 4.6658zm-3.274-.661c0-1.207-.267-2.2404-.801-3.0994-.533-.8822-1.265-1.5438-2.193-1.9849-.906-.4643-1.916-.6964-3.03-.6964-1.602 0-2.971.5107-4.109 1.5322-1.114 1.0214-1.753 2.4375-1.915 4.2485zm30.405-8.4969c1.485 0 2.809.3134 3.969.9402 1.161.6036 2.078 1.5206 2.751 2.751.674 1.2304 1.01 2.7278 1.01 4.4917v11.248h-3.134v-10.795c0-1.904-.476-3.3545-1.428-4.3527-.928-1.0215-2.193-1.5322-3.795-1.5322-1.648 0-2.96.5339-3.935 1.6018-.975 1.0447-1.463 2.5651-1.463 4.5621v10.516h-3.134v-10.795c0-1.904-.476-3.3545-1.427-4.3527-.929-1.0215-2.194-1.5322-3.796-1.5322-1.648 0-2.96.5339-3.935 1.6018-.975 1.0447-1.463 2.5651-1.463 4.5621v10.516h-3.168v-19.0827h3.168v2.751c.627-.9982 1.463-1.7643 2.508-2.2983 1.067-.5339 2.24-.8009 3.517-.8009 1.602 0 3.018.3598 4.248 1.0795s2.147 1.776 2.751 3.1689c.534-1.3465 1.416-2.3912 2.647-3.1341 1.23-.7428 2.6-1.1143 4.109-1.1143z"/><path d="m85.6878 10.4302v29.2019c0 3.1995.8337 5.6555 2.5011 7.368 1.6674 1.6674 4.0108 2.5011 7.0301 2.5011 3.0644 0 5.43-.8337 7.098-2.5011 1.667-1.7125 2.501-4.1685 2.501-7.368v-29.2019h9.531v29.1343c0 4.0107-.879 7.4131-2.636 10.2071-1.713 2.7489-4.034 4.8219-6.963 6.2189-2.884 1.397-6.1061 2.0955-9.6662 2.0955-3.515 0-6.7146-.6985-9.5987-2.0955-2.8391-1.397-5.0923-3.47-6.7597-6.2189-1.6674-2.794-2.5011-6.1964-2.5011-10.2071v-29.1343zm46.5922-2.83902v50.02162h-9.464v-50.02162zm19.692 20.34662v18.1159c0 1.2619.293 2.1857.879 2.7715.631.5408 1.667.8112 3.109.8112h4.394v7.9764h-5.948c-7.977 0-11.965-3.8756-11.965-11.6267v-18.0483h-4.461v-7.7736h4.461v-9.2608h9.531v9.2608h8.382v7.7736zm23.977-1.9603c1.216-1.9828 2.794-3.5376 4.731-4.6642 1.983-1.1266 4.236-1.6899 6.76-1.6899v9.9367h-2.501c-2.974 0-5.228.6985-6.76 2.0955-1.487 1.397-2.23 3.8305-2.23 7.3005v18.6567h-9.464v-37.4486h9.464zm14.756 12.7758c0-3.7854.743-7.1427 2.23-10.0719 1.533-2.9292 3.583-5.1824 6.152-6.7597 2.613-1.5773 5.52-2.3659 8.72-2.3659 2.794 0 5.227.5633 7.3 1.6899 2.118 1.1266 3.808 2.5462 5.07 4.2586v-5.3401h9.531v37.4486h-9.531v-5.4753c-1.217 1.7575-2.907 3.2221-5.07 4.3937-2.118 1.1267-4.574 1.69-7.368 1.69-3.154 0-6.039-.8112-8.652-2.4335-2.569-1.6223-4.619-3.8981-6.152-6.8273-1.487-2.9743-2.23-6.3766-2.23-10.2071zm29.472.1352c0-2.2983-.451-4.2586-1.352-5.8809-.901-1.6674-2.118-2.9292-3.65-3.7855-1.532-.9012-3.177-1.3519-4.935-1.3519-1.757 0-3.38.4281-4.867 1.2844-1.487.8562-2.704 2.118-3.65 3.7854-.901 1.6223-1.352 3.5601-1.352 5.8133s.451 4.2361 1.352 5.9485c.946 1.6674 2.163 2.9517 3.65 3.853 1.532.9013 3.155 1.352 4.867 1.352 1.758 0 3.403-.4282 4.935-1.2844 1.532-.9013 2.749-2.1631 3.65-3.7854.901-1.6674 1.352-3.6502 1.352-5.9485zm33.713 10.0043 9.463-28.7286h10.072l-13.857 37.4486h-11.492l-13.789-37.4486h10.139zm28.974-33.19c-1.667 0-3.064-.5182-4.191-1.5547-1.082-1.0816-1.622-2.411-1.622-3.9882 0-1.5773.54-2.88417 1.622-3.92066 1.127-1.08154 2.524-1.62232 4.191-1.62232s3.042.54078 4.123 1.62232c1.127 1.03649 1.69 2.34336 1.69 3.92066 0 1.5772-.563 2.9066-1.69 3.9882-1.081 1.0365-2.456 1.5547-4.123 1.5547zm4.664 4.4614v37.4486h-9.463v-37.4486zm25.303 38.057c-3.605 0-6.85-.7887-9.734-2.3659-2.884-1.6223-5.16-3.8981-6.827-6.8273-1.623-2.9292-2.434-6.309-2.434-10.1395s.834-7.2103 2.501-10.1395c1.713-2.9292 4.034-5.1824 6.963-6.7597 2.929-1.6223 6.196-2.4335 9.801-2.4335s6.873.8112 9.802 2.4335c2.929 1.5773 5.227 3.8305 6.895 6.7597 1.712 2.9292 2.568 6.309 2.568 10.1395s-.878 7.2103-2.636 10.1395c-1.712 2.9292-4.056 5.205-7.03 6.8273-2.929 1.5772-6.219 2.3659-9.869 2.3659zm0-8.2468c1.712 0 3.312-.4056 4.799-1.2168 1.533-.8562 2.749-2.118 3.651-3.7854.901-1.6674 1.351-3.6953 1.351-6.0837 0-3.5601-.946-6.2865-2.839-8.1792-1.847-1.9378-4.123-2.9067-6.827-2.9067s-4.979.9689-6.827 2.9067c-1.803 1.8927-2.704 4.6191-2.704 8.1792s.879 6.309 2.636 8.2468c1.803 1.8927 4.056 2.8391 6.76 2.8391zm35.265-42.38322v50.02162h-9.464v-50.02162zm43.486 30.48612c0 1.352-.09 2.5687-.27 3.6503h-27.377c.226 2.7038 1.172 4.8219 2.839 6.354 1.668 1.5322 3.718 2.2983 6.152 2.2983 3.515 0 6.016-1.5096 7.503-4.5289h10.207c-1.082 3.6051-3.155 6.5794-6.219 8.9227-3.064 2.2983-6.827 3.4475-11.289 3.4475-3.605 0-6.849-.7887-9.734-2.3659-2.839-1.6223-5.069-3.8981-6.692-6.8273-1.577-2.9292-2.366-6.309-2.366-10.1395 0-3.8756.789-7.2779 2.366-10.2071 1.578-2.9292 3.786-5.1824 6.625-6.7597s6.106-2.3659 9.801-2.3659c3.56 0 6.737.7661 9.531 2.2983 2.84 1.5322 5.025 3.7178 6.557 6.5569 1.578 2.794 2.366 6.0161 2.366 9.6663zm-9.801-2.7038c-.045-2.4335-.924-4.3713-2.637-5.8134-1.712-1.4871-3.807-2.2307-6.286-2.2307-2.343 0-4.326.7211-5.949 2.1631-1.577 1.397-2.546 3.3573-2.906 5.881zm27.051-7.4357v18.1159c0 1.2619.293 2.1857.879 2.7715.631.5408 1.667.8112 3.109.8112h4.394v7.9764h-5.948c-7.977 0-11.965-3.8756-11.965-11.6267v-18.0483h-4.461v-7.7736h4.461v-9.2608h9.531v9.2608h8.382v7.7736z"/></g></svg>