<svg xmlns="http://www.w3.org/2000/svg" width="550" height="550" fill="none" viewBox="0 0 550 550">
    <path fill="#fff" d="M519.164 159.387c-.041-.287-.246-.532-.532-.573l-89.076-8.838c-.328-.041-.655.204-.655.532-.041.327.205.654.532.654l88.544 8.756 3.887 55.116c.041.327.287.573.614.573h.041a.66.66 0 0 0 .573-.655z"/>
    <path fill="#fff" d="m490.194 176.367 2.414 36.416c.041.328.286.573.614.573h.041c.327-.041.613-.327.573-.654l-2.455-36.908c0-.286-.246-.532-.573-.572l-59.125-5.77c-.328-.041-.655.205-.655.532-.041.327.204.655.532.655zm-293.088-13.012 65.345-30.81 68.904 44.64c.123.082.204.082.327.082a.6.6 0 0 0 .532-.286c.205-.287.123-.655-.164-.86l-69.19-44.763c-.164-.123-.409-.123-.614-.041l-65.672 30.974c-.286.164-.45.491-.286.819a.575.575 0 0 0 .818.245"/>
    <path fill="#fff" d="M265.601 157.054c-.164-.123-.409-.123-.614-.041l-43.331 20.622c-.286.164-.45.532-.286.819.163.286.532.45.818.286l43.004-20.499 45.581 29.501c.123.082.205.082.328.082a.6.6 0 0 0 .532-.287c.204-.286.122-.654-.164-.859zm247.793 156.589-63.462-43.576c-.287-.205-.655-.123-.859.163-.205.287-.123.655.163.86l62.644 43.003-61.989 35.557c-.286.164-.409.532-.246.819a.64.64 0 0 0 .532.327c.123 0 .205-.041.287-.082l62.848-36.048a.8.8 0 0 0 .328-.491c.041-.204-.082-.409-.246-.532"/>
    <path fill="#fff" d="M428.123 336.352a.64.64 0 0 0 .532.328c.122 0 .204-.041.286-.082l41.858-23.814a.8.8 0 0 0 .328-.491.6.6 0 0 0-.287-.532l-42.103-28.887c-.287-.205-.655-.123-.86.164-.204.286-.122.654.164.859l41.326 28.355-40.999 23.323c-.286.082-.409.45-.245.777"/>
    <path fill="#fff" d="M430.087 416.223c0-.041 0-.041-.041-.082 0-.041-.041-.082-.041-.123v-.041l-76.679-120.501 117.801-107.775.122-.123v-.041c.041-.041.041-.122.041-.163v-.246c0-.041-.041-.082-.041-.123-.041-.041-.082-.122-.122-.163-.041-.041-.082-.082-.164-.082-.041-.041-.123-.041-.164-.041h-.204L257.949 230.95l-190.1-63.339c-.041 0-.083-.041-.123-.041h-.205a.3.3 0 0 0-.164.082h-.04l-.123.122c-.041.041-.082.082-.082.164-.041.041-.041.123-.041.164v.245c0 .041.04.123.082.164l74.919 116.041L27.013 391.631s0 .041-.04.041c-.042.041-.042.082-.083.082 0 .041-.04.041-.04.082s-.041.082-.041.123v.204c0 .041 0 .082.04.082v.041c0 .041.041.082.082.123v.041l.041.041.082.082s.041 0 .041.04c.04 0 .082.041.123.041h.04c.042 0 .123.041.164.041h.123l209.536-42.922 192.187 67.186c.082.041.123.041.205.041s.123 0 .164-.041c0 0 .041 0 .041-.041.04 0 .081-.041.122-.082h.041l.123-.122c0-.041.041-.041.041-.082s.041-.082.041-.123v-.082c.041-.123.041-.164.041-.204m-193.538-67.636L30.45 390.813l217.351-142.391-9.288 82.652zm34.084-113.177-.736-2.659 119.764-25.819-47.341 12.275zm-5.033 3.765 3.151-5.115.164-.286.409 1.391.245.859-1.432 2.455zm4.992-2.496 34.821-7.856-35.639 9.247zm81.834 57.979-102.088-47.3 218.088-58.88zm66.04-93.945c.205-.123.328-.41.287-.655a.61.61 0 0 0-.737-.45l-149.02 32.12c-.04 0-.081.041-.122.041h-.041l-.041.041s-.041 0-.041.04c0 0-.041 0-.041.041l-.041.041-.041.041-.041.041-4.869 7.856c-.082.123-.082.246-.082.328 0 .122.041.245.123.327a.58.58 0 0 0 .491.245h.164l4.214-1.104 147.056-38.217-63.094 17.022-102.743 27.741 8.429-14.075 191.86-40.017zm-171.565 46.44-45.459 16.081-58.347 20.663L69.24 169.534zm-103.724 38.012 100.778-35.679L33.151 387.622zm99.142 22.955 6.71-59.616 10.393 9.697 167.514 156.63-189.159-66.162zm46.113-24.51-36.662-34.247 9.82 4.542 90.55 41.94 74.264 116.736zm-40.14-37.193L80.369 173.053l176.639 58.879z"/>
    <path fill="#fff" d="M94.076 192.161v.082c0 .041.04.082.04.123s0 .04.042.081l54.419 80.402c.123.164.328.287.491.287.082 0 .123 0 .205-.041l71.073-23.896 3.232-1.105.86-.286a.55.55 0 0 0 .368-.368c.041-.041.041-.123.041-.164 0-.245-.123-.491-.368-.573L94.894 191.506h-.04c-.041 0-.041 0-.082-.041h-.327c-.042 0-.042 0-.083.041-.04 0-.04.041-.081.041l-.041.041h-.041l-.041.041s-.041 0-.041.041c0 0 0 .041-.041.041l-.041.041v.041c0 .041-.04.082-.04.082v.122c.081.082.081.123.081.164m126.106 55.77L99.6 195.025l-.532-.409 123.487 52.496zm-68.74 23.118-50.451-74.06 117.473 51.515zm-1.228.409-.9.287-52.087-76.965 1.595 1.227zm283.023-64.076a.584.584 0 0 0-.696-.286L275.87 249.977a.67.67 0 0 0-.45.532c0 .122 0 .204.082.327v.041a.6.6 0 0 1 .123.163c.04.041.081.082.163.123l.696.328 4.419 2.045 67.922 31.711a.5.5 0 0 0 .246.041.53.53 0 0 0 .409-.164l83.634-76.924c.123-.082.164-.204.205-.368 0-.164 0-.327-.082-.45m-155.403 43.331 152.621-41.735-2.374 2.168-146.892 41.122zm71.114 33.184-66.04-30.811 143.168-40.098zM67.153 362.662a.58.58 0 0 0 .49.245.8.8 0 0 0 .328-.081l143.619-94.355h.04l13.708-9.002.573-.368c.204-.123.286-.368.286-.573a.3.3 0 0 0-.082-.204c-.123-.287-.491-.41-.777-.287l-77.17 29.583s-.041 0-.041.041c0 0-.041 0-.041.041l-.041.041s-.04 0-.04.041l-80.77 74.019c-.246.245-.287.573-.082.859m143.823-95.296-59.575 24.264-2.128-3.232 6.015-2.292 65.14-24.959zm-59.453 25.532 54.175-22.054-110.517 72.587zm-3.232-3.846 2.128 3.233-62.112 55.647-14.69 9.656zm88.053-22.586c0-.041 0-.041-.041-.082 0-.041 0-.082-.041-.082v-.041l-.041-.04c0-.041-.041-.041-.041-.082v-.041l-.041-.041-.04-.041s-.041 0-.041-.041c0 0-.041 0-.041-.041h-.491c-.041 0-.041 0-.082.041-.041 0-.041.041-.082.041L80.45 370.191c-.04.041-.123.081-.163.163a.65.65 0 0 0-.082.614c.082.246.327.368.573.368h.122l141.9-29.214 2.865-.573a.61.61 0 0 0 .491-.532l10.188-74.346zM89.288 368.349l142.31-94.6-9.411 67.186zm144.642-99.837-2.005 3.56-145.87 96.932-2.332.491zm-10.516 72.177 9.534-68.004.655-1.186 1.063-1.841-9.656 70.704zm161.868 48.283L256.803 268.594l-.041-.041-.041-.041-.041-.041h-.532s-.041 0-.041.041h-.041c-.041 0-.041.041-.082.041l-.04.041-.041.041c0 .041-.041.041-.041.082l-.041.041v.081c0 .041-.041.082-.041.123l-6.219 73.487v.246c0 .041.04.122.081.163a.5.5 0 0 0 .328.246l.327.123 1.923.695 132.408 46.114a.37.37 0 0 0 .204.041.7.7 0 0 0 .532-.287c.205-.286.164-.614-.082-.818M258.44 273.545l-.778-2.496 124.674 116.818-2.537-.859zm0 1.677 118.536 110.804-123.897-43.127zm-1.678-2.986.532 1.718-5.401 68.495-1.064-.368zm89.567 25.368q0-.061 0 0c-.041-.041-.041-.082-.082-.082 0 0 0-.041-.041-.041l-.041-.041-.041-.04h-.04l-73.733-35.107c-.286-.123-.614-.041-.777.204a.62.62 0 0 0 .081.778l12.848 11.907 114.936 106.629a.6.6 0 0 0 .409.164.6.6 0 0 0 .41-.164c.245-.204.286-.532.122-.818zm41.858 72.014-4.705-4.378-40.304-62.849 2.619-3.437 15.999 24.673 34.902 53.847zm-90.672-94.027 47.382 22.545-2.619 3.478-56.956-27.414-9.82-9.125zm44.518 27.25 37.848 59.085-91.531-84.903zm-231.999-117.8 129.257 54.42c.082.041.164.041.246.041a.64.64 0 0 0 .491-.246l3.723-4.746 2.823-3.601c.123-.163.164-.368.123-.572-.041-.205-.205-.328-.409-.41l-135.804-46.031c-.327-.123-.654.041-.777.368a.585.585 0 0 0 .327.777m133.062 48.405-82.488-28.437-34.207-14.403 118.7 40.262zm-3.723 4.706-61.703-25.983 64.649 22.3z"/>
</svg>
