<svg xmlns="http://www.w3.org/2000/svg" width="16" height="16" fill="none" viewBox="0 0 16 16">
    <path fill="#000" fill-rule="evenodd" d="M8 2.226c-2.501 0-4.53 2.013-4.53 4.497 0 2.208 1.169 3.978 2.398 5.228A12.3 12.3 0 0 0 8 13.671a12.3 12.3 0 0 0 2.132-1.72c1.23-1.25 2.397-3.02 2.397-5.228 0-2.484-2.027-4.497-4.529-4.497m0 12.16-.297.538H7.7l-.005-.003-.014-.008a7 7 0 0 1-.227-.134 13.5 13.5 0 0 1-2.47-1.971c-1.344-1.366-2.75-3.428-2.75-6.085C2.235 3.563 4.816 1 8 1s5.765 2.562 5.765 5.723c0 2.657-1.406 4.72-2.75 6.085a13.5 13.5 0 0 1-2.47 1.971 8 8 0 0 1-.227.134l-.014.008-.005.002-.001.001zm0 0 .297.539c-.185.1-.409.1-.594 0zm0-9.094c-.796 0-1.441.64-1.441 1.43S7.204 8.154 8 8.154s1.441-.64 1.441-1.43-.645-1.431-1.44-1.431m-2.676 1.43A2.667 2.667 0 0 1 8 4.067a2.667 2.667 0 0 1 2.677 2.657A2.667 2.667 0 0 1 8 9.38a2.667 2.667 0 0 1-2.676-2.657" clip-rule="evenodd"/>
</svg>
