<svg xmlns="http://www.w3.org/2000/svg">
    <path fill-rule="evenodd" d="M8 2.791c-2.43 0-4.4 1.956-4.4 4.368 0 2.145 1.134 3.865 2.33 5.08A12 12 0 0 0 8 13.908a12 12 0 0 0 2.07-1.671c1.195-1.214 2.33-2.934 2.33-5.079 0-2.412-1.97-4.368-4.4-4.368m0 11.814-.289.522-.002-.001-.004-.003-.014-.007-.048-.028-.173-.102a13 13 0 0 1-2.4-1.915C3.766 11.744 2.4 9.74 2.4 7.158 2.4 4.09 4.907 1.6 8 1.6s5.6 2.489 5.6 5.56c0 2.581-1.366 4.584-2.67 5.91a13 13 0 0 1-2.4 1.916 7 7 0 0 1-.221.13l-.014.007-.004.003h-.002zm0 0 .288.522a.6.6 0 0 1-.576 0zm0-8.836c-.773 0-1.4.623-1.4 1.39 0 .768.627 1.39 1.4 1.39s1.4-.622 1.4-1.39S8.773 5.77 8 5.77M5.4 7.16A2.59 2.59 0 0 1 8 4.58a2.59 2.59 0 0 1 2.6 2.58A2.59 2.59 0 0 1 8 9.74a2.59 2.59 0 0 1-2.6-2.58" clip-rule="evenodd"/>
</svg>
