<svg xmlns="http://www.w3.org/2000/svg" width="16" height="16" fill="none" viewBox="0 0 16 16">
    <path d="M6.846 1.808a.808.808 0 1 0-1.615 0v3.23a.808.808 0 1 0 1.615 0v-.807h7.27a.808.808 0 1 0 0-1.616h-7.27zm4.846 4.577a.808.808 0 1 0-1.615 0v3.23a.808.808 0 1 0 1.615 0v-.807h2.423a.808.808 0 1 0 0-1.616h-2.423zm-5.654 3.769c.447 0 .808.361.808.807v.808h7.27a.808.808 0 1 1 0 1.616h-7.27v.807a.808.808 0 1 1-1.615 0v-3.23c0-.447.361-.808.807-.808m-3.23-2.962H9v1.616H2.808a.808.808 0 1 1 0-1.616m1.346-4.577H2.808a.808.808 0 0 0 0 1.616h1.346zM2.808 11.77h1.346v1.615H2.808a.808.808 0 1 1 0-1.616"/>
</svg>
