<svg xmlns="http://www.w3.org/2000/svg" width="16" height="16" fill="none" viewBox="0 0 16 16">
    <path fill="#000" d="M6.846 1.808C6.846 1.362 6.485 1 6.038 1 5.592 1 5.231 1.362 5.231 1.808V5.038C5.231 5.485 5.592 5.846 6.038 5.846 6.485 5.846 6.846 5.485 6.846 5.038V4.231H14.115C14.562 4.231 14.923 3.869 14.923 3.423 14.923 2.977 14.562 2.615 14.115 2.615H6.846V1.808ZM11.692 6.385C11.692 5.939 11.331 5.577 10.885 5.577 10.439 5.577 10.077 5.939 10.077 6.385V9.615C10.077 10.062 10.439 10.423 10.885 10.423 11.331 10.423 11.692 10.062 11.692 9.615V8.808H14.115C14.562 8.808 14.923 8.446 14.923 8 14.923 7.554 14.562 7.192 14.115 7.192H11.692V6.385ZM6.038 10.154C6.485 10.154 6.846 10.516 6.846 10.962V11.769H14.115C14.562 11.769 14.923 12.131 14.923 12.577 14.923 13.023 14.562 13.385 14.115 13.385H6.846V14.192C6.846 14.638 6.485 15 6.038 15 5.592 15 5.231 14.638 5.231 14.192V10.962C5.231 10.516 5.592 10.154 6.038 10.154ZM2.808 7.192H9V8.808H2.808C2.362 8.808 2 8.446 2 8 2 7.554 2.362 7.192 2.808 7.192ZM4.154 2.615H2.808C2.362 2.615 2 2.977 2 3.423 2 3.869 2.362 4.231 2.808 4.231H4.154V2.615ZM2.808 11.769H4.154V13.385H2.808C2.362 13.385 2 13.023 2 12.577 2 12.131 2.362 11.769 2.808 11.769Z"/>
</svg>
