<svg xmlns="http://www.w3.org/2000/svg" width="16" height="16" fill="none" viewBox="0 0 16 16">
    <path fill="#000" d="M13 5 13.627 3.627 15 3 13.627 2.374 13 1.001 12.374 2.374 11 3 12.374 3.627 13 5ZM5.335 5 5.961 3.627 7.334 3 5.961 2.374 5.335 1.001 4.708 2.374 3.335 3 4.708 3.627 5.335 5ZM13 8.666 12.374 10.039 11.001 10.666 12.374 11.292 13 12.665 13.627 11.292 15 10.666 13.627 10.039 13 8.666ZM11.474 6.414 9.587 4.527C9.454 4.401 9.287 4.334 9.114 4.334 8.941 4.334 8.774 4.401 8.641 4.527L1.195 11.973C.935 12.233.935 12.653 1.195 12.913L3.081 14.799C3.215 14.933 3.381 14.999 3.555 14.999 3.728 14.999 3.895 14.933 4.028 14.806L11.474 7.36C11.734 7.1 11.734 6.674 11.474 6.414ZM9.114 5.947 10.054 6.887 9.274 7.667 8.334 6.727 9.114 5.947ZM3.555 13.393 2.615 12.453 7.394 7.667 8.334 8.607 3.555 13.393Z"/>
</svg>
