<svg xmlns="http://www.w3.org/2000/svg" width="16" height="16" fill="none" viewBox="0 0 16 16">
    <path d="m13 5 .627-1.373L15 3l-1.373-.626L13 1l-.626 1.373L11 3l1.374.627zM5.335 5l.626-1.373L7.334 3l-1.373-.626L5.335 1l-.627 1.373L3.335 3l1.373.627zM13 8.666l-.626 1.373-1.373.627 1.373.626.626 1.373.627-1.373L15 10.666l-1.373-.627zm-1.526-2.252L9.587 4.527a.68.68 0 0 0-.473-.193.68.68 0 0 0-.473.193l-7.446 7.446c-.26.26-.26.68 0 .94l1.886 1.886c.134.134.3.2.474.2a.68.68 0 0 0 .473-.193l7.446-7.446a.67.67 0 0 0 0-.946m-2.36-.467.94.94-.78.78-.94-.94zm-5.56 7.446-.94-.94 4.78-4.786.94.94z"/>
</svg>
