<svg xmlns="http://www.w3.org/2000/svg">
    <g clip-path="url(#a)">
        <path d="m13.144 4.914.645-1.412 1.412-.645-1.412-.644L13.144.8 12.5 2.213l-1.413.644 1.413.645zm-7.885 0 .644-1.412 1.413-.645-1.413-.644L5.26.8l-.645 1.413-1.412.644 1.412.645zm7.885 3.771-.644 1.413-1.413.644 1.413.645.644 1.412.645-1.412 1.413-.645-1.413-.644zm-1.57-2.317-1.94-1.94a.7.7 0 0 0-.487-.2.7.7 0 0 0-.487.2L1 12.088a.683.683 0 0 0 0 .966l1.941 1.94a.68.68 0 0 0 .487.206c.178 0 .35-.068.487-.198l7.66-7.66a.69.69 0 0 0 0-.974m-2.427-.48.966.967-.802.802-.967-.966zm-5.72 7.66-.966-.967 4.917-4.924.966.967z"/>
    </g>
    <defs>
        <clipPath id="a">
            <path fill="#fff" d="M0 0h16v16H0z"/>
        </clipPath>
    </defs>
</svg>
