<svg xmlns="http://www.w3.org/2000/svg">
    <path d="M2.8 2.983v8.266a6.62 6.62 0 0 1 4.8.793V4.005A5.38 5.38 0 0 0 4.2 2.8c-.485 0-.954.064-1.4.183m6 1.022v8.037a6.62 6.62 0 0 1 4.8-.793V2.983a5.4 5.4 0 0 0-1.4-.183 5.38 5.38 0 0 0-3.4 1.205M8.2 2.95a6.57 6.57 0 0 0-4-1.35 6.6 6.6 0 0 0-2.2.376.6.6 0 0 0-.4.566v9.5a.6.6 0 0 0 .8.565 5.4 5.4 0 0 1 1.8-.307 5.38 5.38 0 0 1 3.6 1.375.6.6 0 0 0 .8 0 5.38 5.38 0 0 1 3.6-1.375c.632 0 1.238.108 1.8.307a.6.6 0 0 0 .8-.566v-9.5a.6.6 0 0 0-.4-.565 6.6 6.6 0 0 0-2.2-.376c-1.503 0-2.89.503-4 1.35"/>
</svg>
