<svg xmlns="http://www.w3.org/2000/svg" width="16" height="16" fill="none" viewBox="0 0 16 16">
    <path d="M2.273 2.982v8.767a7.02 7.02 0 0 1 5.09.841V4.066a5.7 5.7 0 0 0-3.605-1.278c-.515 0-1.012.068-1.485.194m6.363 1.084v8.524a7.03 7.03 0 0 1 5.09-.841V2.982a5.7 5.7 0 0 0-1.484-.194 5.7 5.7 0 0 0-3.606 1.278M8 2.947a6.97 6.97 0 0 0-4.242-1.432 7 7 0 0 0-2.334.399.64.64 0 0 0-.424.6V12.59a.636.636 0 0 0 .848.6 5.7 5.7 0 0 1 1.91-.326 5.7 5.7 0 0 1 3.818 1.458.636.636 0 0 0 .848 0 5.7 5.7 0 0 1 3.818-1.458c.671 0 1.313.115 1.91.326a.636.636 0 0 0 .848-.6V2.514c0-.27-.17-.51-.424-.6a7 7 0 0 0-2.334-.399A6.97 6.97 0 0 0 8 2.947" clip-rule="evenodd"/>
</svg>
