<svg xmlns="http://www.w3.org/2000/svg" width="16" height="16" fill="none" viewBox="0 0 16 16">
    <path d="M12.585 1.16a.636.636 0 0 1 .817.378 17.5 17.5 0 0 1 1.003 4.537c.369.397.595.93.595 1.515a2.22 2.22 0 0 1-.595 1.515 17.5 17.5 0 0 1-1.003 4.537.636.636 0 0 1-1.195-.437l.089-.25a16.2 16.2 0 0 0-4.577-1.376q.172.492.384.964c.299.665.083 1.492-.59 1.88l-.464.268c-.693.4-1.62.16-1.975-.61a15.4 15.4 0 0 1-.965-2.738 3.82 3.82 0 0 1 .71-7.571h.53q.72 0 1.423-.061a16.2 16.2 0 0 0 5.524-1.486l-.09-.25a.636.636 0 0 1 .38-.816m.084 2.295a17.5 17.5 0 0 1-5.33 1.478 12 12 0 0 0-.294 2.657c0 .913.102 1.802.293 2.657 1.883.212 3.676.72 5.331 1.478a16.3 16.3 0 0 0 .528-4.135q0-.595-.042-1.178a16.3 16.3 0 0 0-.486-2.957m-6.652 6.693a13.4 13.4 0 0 1 0-5.116 18 18 0 0 1-.669.013h-.53a2.545 2.545 0 0 0 0 5.09h.53q.336 0 .67.013m-.574 1.26a14 14 0 0 0 .786 2.139.1.1 0 0 0 .068.057c.034.01.076.008.116-.015l.464-.268c.066-.038.116-.143.065-.256a13 13 0 0 1-.607-1.627 17 17 0 0 0-.892-.03" clip-rule="evenodd"/>
</svg>
