<svg xmlns="http://www.w3.org/2000/svg">
    <path fill-rule="evenodd" d="M12.716.84c.34-.124.716.05.84.39a18 18 0 0 1 1.032 4.667c.38.408.612.956.612 1.558s-.233 1.15-.612 1.558a18 18 0 0 1-1.032 4.667.655.655 0 0 1-1.23-.45q.047-.128.092-.257a16.7 16.7 0 0 0-4.708-1.415q.177.506.396.99c.307.685.085 1.536-.607 1.935l-.477.276c-.713.411-1.666.164-2.032-.628a16 16 0 0 1-.992-2.816 3.928 3.928 0 0 1 .73-7.787h.545q.74 0 1.464-.063a16.7 16.7 0 0 0 5.681-1.528l-.091-.257a.655.655 0 0 1 .39-.84m.086 2.362a18 18 0 0 1-5.483 1.52 12.5 12.5 0 0 0-.301 2.733c0 .94.104 1.854.301 2.732 1.936.218 3.78.742 5.483 1.521a16.8 16.8 0 0 0 .543-4.253q0-.612-.043-1.212a17 17 0 0 0-.5-3.041m-6.841 6.884a13.8 13.8 0 0 1 0-5.262q-.343.013-.688.013h-.546a2.618 2.618 0 0 0 0 5.236h.546q.346 0 .688.013m-.591 1.296q.318 1.141.808 2.2.02.045.07.06c.035.01.078.007.12-.017l.477-.276c.068-.039.12-.147.067-.263a14 14 0 0 1-.625-1.674q-.456-.027-.917-.03" clip-rule="evenodd"/>
</svg>
