<svg xmlns="http://www.w3.org/2000/svg">
    <path fill-rule="evenodd" d="M8 2.017q-1.858.001-3.66.214c-.416.049-.74.417-.74.872v9.967c0 .505.403.913.9.913h7c.497 0 .9-.409.9-.913V3.103c0-.455-.324-.823-.74-.872A31 31 0 0 0 8 2.017m-3.798-.995a32.5 32.5 0 0 1 7.596 0c1.051.124 1.802 1.039 1.802 2.081v9.968c0 1.176-.94 2.129-2.1 2.129h-7c-1.16 0-2.1-.953-2.1-2.13V3.103c0-1.042.75-1.957 1.802-2.08M4.9 3.944c0-.336.269-.609.6-.609h5c.331 0 .6.273.6.609v1.52a.604.604 0 0 1-.6.61h-5a.604.604 0 0 1-.6-.61zm1.2.608v.304h3.8v-.304zM4.9 7.493c0-.336.269-.608.6-.608h.005c.331 0 .6.272.6.608v.005a.604.604 0 0 1-.6.609H5.5a.604.604 0 0 1-.6-.609zm1.665 0c0-.336.269-.608.6-.608h.005c.331 0 .6.272.6.608v.005a.604.604 0 0 1-.6.609h-.005a.604.604 0 0 1-.6-.609zm1.67 0c0-.336.268-.608.6-.608h.005c.331 0 .6.272.6.608v.005a.604.604 0 0 1-.6.609h-.005a.604.604 0 0 1-.6-.609zm1.665 0c0-.336.268-.608.6-.608h.005c.331 0 .6.272.6.608v.005a.604.604 0 0 1-.6.609H10.5a.604.604 0 0 1-.6-.609zm-5 1.521c0-.336.269-.608.6-.608h.005c.331 0 .6.272.6.608v.005a.604.604 0 0 1-.6.609H5.5a.604.604 0 0 1-.6-.609zm1.665 0c0-.336.269-.608.6-.608h.005c.331 0 .6.272.6.608v.005a.604.604 0 0 1-.6.609h-.005a.604.604 0 0 1-.6-.609zm1.67 0c0-.336.268-.608.6-.608h.005c.331 0 .6.272.6.608v.005a.604.604 0 0 1-.6.609h-.005a.604.604 0 0 1-.6-.609zm1.665 0c0-.336.268-.608.6-.608h.005c.331 0 .6.272.6.608v.005a.604.604 0 0 1-.6.609H10.5a.604.604 0 0 1-.6-.609zm-5 1.521c0-.336.269-.608.6-.608h.005c.331 0 .6.272.6.608v.005a.604.604 0 0 1-.6.609H5.5a.604.604 0 0 1-.6-.609zm1.665 0c0-.336.269-.608.6-.608h.005c.331 0 .6.272.6.608v.005a.604.604 0 0 1-.6.609h-.005a.604.604 0 0 1-.6-.609zm1.67 0c0-.336.268-.608.6-.608h.005c.331 0 .6.272.6.608v.005a.604.604 0 0 1-.6.609h-.005a.604.604 0 0 1-.6-.609zm2.265-.608c.331 0 .6.272.6.608v1.521a.604.604 0 0 1-.6.609.604.604 0 0 1-.6-.609v-1.52c0-.337.268-.61.6-.61m-5.6 2.13c0-.337.269-.61.6-.61h.005c.331 0 .6.273.6.61v.005a.604.604 0 0 1-.6.608H5.5a.604.604 0 0 1-.6-.608zm1.665 0c0-.337.269-.61.6-.61h.005c.331 0 .6.273.6.61v.005a.604.604 0 0 1-.6.608h-.005a.604.604 0 0 1-.6-.608zm1.67 0c0-.337.268-.61.6-.61h.005c.331 0 .6.273.6.61v.005a.604.604 0 0 1-.6.608h-.005a.604.604 0 0 1-.6-.608z" clip-rule="evenodd"/>
</svg>
