<svg xmlns="http://www.w3.org/2000/svg" width="16" height="16" fill="none" viewBox="0 0 16 16">
    <path d="M8 2.183q-1.806 0-3.558.208c-.405.048-.72.405-.72.848v9.69c0 .49.392.888.875.888h6.806a.88.88 0 0 0 .875-.887V3.24c0-.444-.315-.801-.72-.849A30 30 0 0 0 8 2.183m-3.692-.967a31.6 31.6 0 0 1 7.385 0c1.022.12 1.752 1.01 1.752 2.023v9.69c0 1.144-.915 2.071-2.042 2.071H4.597c-1.127 0-2.041-.927-2.041-2.07V3.24c0-1.014.73-1.904 1.752-2.024m.678 2.84c0-.326.261-.591.584-.591h4.86c.323 0 .584.265.584.591v1.48a.587.587 0 0 1-.583.59H5.57a.587.587 0 0 1-.584-.59zm1.167.592v.296h3.694v-.296zM4.986 7.507c0-.327.261-.592.584-.592h.004c.323 0 .584.265.584.592v.005a.587.587 0 0 1-.584.592H5.57a.587.587 0 0 1-.584-.592zm1.619 0c0-.327.261-.592.583-.592h.005c.322 0 .584.265.584.592v.005a.587.587 0 0 1-.584.592h-.005a.587.587 0 0 1-.583-.592zm1.624 0c0-.327.26-.592.583-.592h.005c.322 0 .583.265.583.592v.005a.587.587 0 0 1-.583.592h-.005a.587.587 0 0 1-.583-.592zm1.618 0c0-.327.261-.592.584-.592h.005c.322 0 .583.265.583.592v.005a.59.59 0 0 1-.584.592h-.004a.587.587 0 0 1-.584-.592zm-4.86 1.479c0-.327.26-.592.583-.592h.004c.323 0 .584.265.584.592v.005a.587.587 0 0 1-.584.591H5.57a.587.587 0 0 1-.584-.591zm1.618 0c0-.327.261-.592.583-.592h.005c.322 0 .584.265.584.592v.005a.587.587 0 0 1-.584.591h-.005a.587.587 0 0 1-.583-.591zm1.624 0c0-.327.26-.592.583-.592h.005c.322 0 .583.265.583.592v.005a.587.587 0 0 1-.583.591h-.005a.587.587 0 0 1-.583-.591zm1.618 0c0-.327.261-.592.584-.592h.005c.322 0 .583.265.583.592v.005a.59.59 0 0 1-.584.591h-.004a.587.587 0 0 1-.584-.591zm-4.86 1.479c0-.327.26-.592.583-.592h.004c.323 0 .584.265.584.592v.005a.59.59 0 0 1-.584.591H5.57a.59.59 0 0 1-.584-.591zm1.618 0c0-.327.261-.592.583-.592h.005c.322 0 .584.265.584.592v.005a.59.59 0 0 1-.584.591h-.005a.59.59 0 0 1-.583-.591zm1.624 0c0-.327.26-.592.583-.592h.005c.322 0 .583.265.583.592v.005a.59.59 0 0 1-.583.591h-.005a.59.59 0 0 1-.583-.591zm2.202-.592c.322 0 .583.265.583.592v1.479a.587.587 0 0 1-.583.591.587.587 0 0 1-.584-.591v-1.48c0-.326.261-.59.584-.59m-5.445 2.07c0-.326.261-.59.584-.59h.004c.323 0 .584.264.584.59v.006a.587.587 0 0 1-.584.591H5.57a.587.587 0 0 1-.584-.591zm1.619 0c0-.326.261-.59.583-.59h.005c.322 0 .584.264.584.59v.006a.587.587 0 0 1-.584.591h-.005a.587.587 0 0 1-.583-.591zm1.624 0c0-.326.26-.59.583-.59h.005c.322 0 .583.264.583.59v.006a.587.587 0 0 1-.583.591h-.005a.587.587 0 0 1-.583-.591z" clip-rule="evenodd"/>
</svg>
