<svg xmlns="http://www.w3.org/2000/svg" width="16" height="16" fill="none" viewBox="0 0 16 16">
    <path d="M4.288 1c.351 0 .636.285.636.636v.955h6.152v-.955a.636.636 0 1 1 1.272 0v.955h.425c1.23 0 2.227.997 2.227 2.227v7.955c0 1.23-.997 2.227-2.227 2.227H3.227A2.227 2.227 0 0 1 1 12.773V4.818c0-1.23.997-2.227 2.227-2.227h.425v-.955c0-.351.284-.636.636-.636m-1.06 2.864a.955.955 0 0 0-.955.954v.639a2.2 2.2 0 0 1 .954-.215h9.546c.341 0 .665.077.954.215v-.639a.955.955 0 0 0-.954-.954zm10.5 3.606a.955.955 0 0 0-.955-.955H3.227a.955.955 0 0 0-.954.955v5.303c0 .527.427.954.954.954h9.546a.955.955 0 0 0 .954-.954zM7.363 8.53c0-.351.285-.636.636-.636h.005c.352 0 .637.285.637.636v.006a.636.636 0 0 1-.637.636H8a.636.636 0 0 1-.636-.636zm1.59 0c0-.351.285-.636.637-.636h.005c.352 0 .637.285.637.636v.006a.636.636 0 0 1-.637.636H9.59a.636.636 0 0 1-.636-.636zm1.592 0c0-.351.284-.636.636-.636h.005c.352 0 .636.285.636.636v.006a.636.636 0 0 1-.636.636h-.005a.636.636 0 0 1-.636-.636zm-6.364 1.591c0-.351.285-.636.636-.636h.005c.352 0 .637.285.637.636v.005a.636.636 0 0 1-.637.637h-.005a.636.636 0 0 1-.636-.636zm1.59 0c0-.351.286-.636.637-.636h.005c.352 0 .637.285.637.636v.005a.636.636 0 0 1-.637.637H6.41a.636.636 0 0 1-.636-.636zm1.592 0c0-.351.285-.636.636-.636h.005c.352 0 .637.285.637.636v.005a.636.636 0 0 1-.637.637H8a.636.636 0 0 1-.636-.636zm1.59 0c0-.351.285-.636.637-.636h.005c.352 0 .637.285.637.636v.005a.636.636 0 0 1-.637.637H9.59a.636.636 0 0 1-.636-.636zm1.592 0c0-.351.284-.636.636-.636h.005c.352 0 .636.285.636.636v.005a.636.636 0 0 1-.636.637h-.005a.636.636 0 0 1-.636-.636zm-6.364 1.591c0-.351.285-.636.636-.636h.005c.352 0 .637.285.637.636v.005a.636.636 0 0 1-.637.637h-.005a.636.636 0 0 1-.636-.637zm1.59 0c0-.351.286-.636.637-.636h.005c.352 0 .637.285.637.636v.005a.636.636 0 0 1-.637.637H6.41a.636.636 0 0 1-.636-.637zm1.592 0c0-.351.285-.636.636-.636h.005c.352 0 .637.285.637.636v.005a.636.636 0 0 1-.637.637H8a.636.636 0 0 1-.636-.637zm1.59 0c0-.351.285-.636.637-.636h.005c.352 0 .637.285.637.636v.005a.636.636 0 0 1-.637.637H9.59a.636.636 0 0 1-.636-.637z" clip-rule="evenodd"/>
</svg>
