<svg xmlns="http://www.w3.org/2000/svg">
    <path fill-rule="evenodd" d="M4.606 1.6c.321 0 .582.26.582.582v.873h5.624v-.873a.582.582 0 0 1 1.164 0v.873h.388c1.124 0 2.036.911 2.036 2.036v7.273a2.036 2.036 0 0 1-2.036 2.036H3.636A2.036 2.036 0 0 1 1.6 12.364V5.09c0-1.125.912-2.036 2.036-2.036h.388v-.873c0-.321.26-.582.582-.582m-.97 2.618a.873.873 0 0 0-.872.873v.584a2 2 0 0 1 .872-.196h8.728c.312 0 .608.07.872.196V5.09a.873.873 0 0 0-.872-.873zm9.6 3.297a.873.873 0 0 0-.872-.872H3.636a.873.873 0 0 0-.872.872v4.849c0 .482.39.872.872.872h8.728c.482 0 .872-.39.872-.872zm-5.818.97c0-.321.26-.582.582-.582h.005c.321 0 .582.26.582.582v.005c0 .321-.26.582-.582.582H8a.58.58 0 0 1-.582-.582zm1.455 0c0-.321.26-.582.582-.582h.004c.322 0 .582.26.582.582v.005c0 .321-.26.582-.582.582h-.004a.58.58 0 0 1-.582-.582zm1.454 0c0-.321.26-.582.582-.582h.005c.321 0 .582.26.582.582v.005c0 .321-.26.582-.582.582h-.005a.58.58 0 0 1-.582-.582zM4.51 9.939c0-.32.26-.581.582-.581h.005c.321 0 .582.26.582.581v.005c0 .322-.26.582-.582.582H5.09a.58.58 0 0 1-.582-.582zm1.455 0c0-.32.26-.581.582-.581h.004c.322 0 .582.26.582.581v.005c0 .322-.26.582-.582.582h-.004a.58.58 0 0 1-.582-.582zm1.454 0c0-.32.26-.581.582-.581h.005c.321 0 .582.26.582.581v.005c0 .322-.26.582-.582.582H8a.58.58 0 0 1-.582-.582zm1.455 0c0-.32.26-.581.582-.581h.004c.322 0 .582.26.582.581v.005c0 .322-.26.582-.582.582h-.004a.58.58 0 0 1-.582-.582zm1.454 0c0-.32.26-.581.582-.581h.005c.321 0 .582.26.582.581v.005c0 .322-.26.582-.582.582h-.005a.58.58 0 0 1-.582-.582zM4.51 11.394c0-.321.26-.582.582-.582h.005c.321 0 .582.26.582.582v.005c0 .321-.26.582-.582.582H5.09a.58.58 0 0 1-.582-.582zm1.455 0c0-.321.26-.582.582-.582h.004c.322 0 .582.26.582.582v.005c0 .321-.26.582-.582.582h-.004a.58.58 0 0 1-.582-.582zm1.454 0c0-.321.26-.582.582-.582h.005c.321 0 .582.26.582.582v.005c0 .321-.26.582-.582.582H8a.58.58 0 0 1-.582-.582zm1.455 0c0-.321.26-.582.582-.582h.004c.322 0 .582.26.582.582v.005c0 .321-.26.582-.582.582h-.004a.58.58 0 0 1-.582-.582z" clip-rule="evenodd"/>
</svg>
