<svg xmlns="http://www.w3.org/2000/svg" width="16" height="16" fill="none" viewBox="0 0 16 16">
    <path d="M8 2.66q-2.32.002-4.55.331c-.736.109-1.283.762-1.283 1.548v3.96c0 .786.547 1.44 1.283 1.548l-.085.577.085-.577q1.052.154 2.127.238a.583.583 0 0 1 .538.581v1.649l1.636-1.636a1.77 1.77 0 0 1 1.201-.515 31 31 0 0 0 3.598-.317c.736-.109 1.283-.762 1.283-1.547V4.538c0-.785-.547-1.438-1.283-1.547A31 31 0 0 0 8 2.661m-4.72-.823A32.4 32.4 0 0 1 8 1.493c1.603 0 3.179.118 4.72.344 1.349.199 2.28 1.38 2.28 2.701V8.5c0 1.322-.931 2.503-2.28 2.7q-1.837.271-3.732.33a.6.6 0 0 0-.412.174l-2.631 2.631a.583.583 0 0 1-.996-.412v-2.521q-.84-.08-1.669-.201C1.931 11.002 1 9.82 1 8.5V4.539c0-1.323.931-2.503 2.28-2.702" clip-rule="evenodd"/>
</svg>
