<svg xmlns="http://www.w3.org/2000/svg">
    <path d="M8 2.8c-1.59 0-3.153.116-4.68.341C2.563 3.252 2 3.924 2 4.732v4.074c0 .808.563 1.48 1.32 1.592l-.087.593.087-.593q1.082.16 2.188.245a.6.6 0 0 1 .553.598v1.695l1.682-1.682a1.82 1.82 0 0 1 1.236-.53 32 32 0 0 0 3.7-.326c.758-.111 1.32-.784 1.32-1.591V4.732c0-.808-.562-1.48-1.32-1.591A32 32 0 0 0 8 2.8m-4.855-.846A33 33 0 0 1 8 1.6c1.649 0 3.27.12 4.854.354 1.388.204 2.346 1.418 2.346 2.778v4.074c0 1.36-.958 2.575-2.346 2.779q-1.888.28-3.838.338a.62.62 0 0 0-.424.18l-2.706 2.706a.6.6 0 0 1-1.025-.424v-2.593a33 33 0 0 1-1.716-.207C1.758 11.38.8 10.166.8 8.806V4.732c0-1.36.958-2.574 2.345-2.778"/>
</svg>
