<svg width="16" height="16" viewBox="0 0 16 16" fill="none" xmlns="http://www.w3.org/2000/svg">
<path fill-rule="evenodd" clip-rule="evenodd" d="M8 2.3125C4.85888 2.3125 2.3125 4.85888 2.3125 8C2.3125 11.1411 4.85888 13.6875 8 13.6875C11.1411 13.6875 13.6875 11.1411 13.6875 8C13.6875 4.85888 11.1411 2.3125 8 2.3125ZM1 8C1 4.13401 4.13401 1 8 1C11.866 1 15 4.13401 15 8C15 11.866 11.866 15 8 15C4.13401 15 1 11.866 1 8ZM8 3.11458C8.36244 3.11458 8.65625 3.4084 8.65625 3.77083V7.34375H11.1719C11.5343 7.34375 11.8281 7.63756 11.8281 8C11.8281 8.36244 11.5343 8.65625 11.1719 8.65625H8C7.63756 8.65625 7.34375 8.36244 7.34375 8V3.77083C7.34375 3.4084 7.63756 3.11458 8 3.11458Z" fill="black"/>
</svg>
