<svg width="16" height="16" viewBox="0 0 16 16" fill="none" xmlns="http://www.w3.org/2000/svg">
<path fill-rule="evenodd" clip-rule="evenodd" d="M8 2.5C4.96243 2.5 2.5 4.96243 2.5 8C2.5 11.0376 4.96243 13.5 8 13.5C11.0376 13.5 13.5 11.0376 13.5 8C13.5 4.96243 11.0376 2.5 8 2.5ZM1 8C1 4.13401 4.13401 1 8 1C11.866 1 15 4.13401 15 8C15 11.866 11.866 15 8 15C4.13401 15 1 11.866 1 8ZM5.90717 5.90717C6.20006 5.61428 6.67494 5.61428 6.96783 5.90717L8 6.93934L9.03217 5.90717C9.32506 5.61428 9.79994 5.61428 10.0928 5.90717C10.3857 6.20006 10.3857 6.67494 10.0928 6.96783L9.06066 8L10.0928 9.03217C10.3857 9.32506 10.3857 9.79994 10.0928 10.0928C9.79994 10.3857 9.32506 10.3857 9.03217 10.0928L8 9.06066L6.96783 10.0928C6.67494 10.3857 6.20006 10.3857 5.90717 10.0928C5.61428 9.79994 5.61428 9.32506 5.90717 9.03217L6.93934 8L5.90717 6.96783C5.61428 6.67494 5.61428 6.20006 5.90717 5.90717Z" fill="#727683"/>
</svg>
