<svg xmlns="http://www.w3.org/2000/svg" width="16" height="16" fill="none" viewBox="0 0 16 16">
    <path d="M1 3.771a2.24 2.24 0 0 1 2.242-2.242h9.516A2.24 2.24 0 0 1 15 3.77v8.458a2.24 2.24 0 0 1-2.242 2.243H3.242A2.24 2.24 0 0 1 1 12.229zm2.242-.93a.93.93 0 0 0-.93.93v8.458c0 .514.417.93.93.93h9.516a.93.93 0 0 0 .93-.93V3.771a.93.93 0 0 0-.93-.93zm.532 1.594a.656.656 0 0 1 .92-.132L6.807 5.89a.656.656 0 0 1 0 1.05L4.693 8.525a.656.656 0 1 1-.787-1.05l1.414-1.06-1.414-1.062a.656.656 0 0 1-.132-.918M6.815 8c0-.362.294-.656.656-.656h2.115a.656.656 0 0 1 0 1.312H7.47A.656.656 0 0 1 6.815 8" clip-rule="evenodd"/>
</svg>
