<svg xmlns="http://www.w3.org/2000/svg" width="16" height="16" fill="none" viewBox="0 0 16 16">
    <path d="M10.254 2.682a3.065 3.065 0 0 0-3.02 3.59c.08.465-.011 1.017-.41 1.415L2.92 11.592a.8.8 0 0 0-.237.574v1.152h1.172v-.81a.54.54 0 0 1 .54-.542h.812v-.811a.54.54 0 0 1 .54-.54h1.129l1.439-1.44c.397-.397.95-.489 1.414-.409q.256.045.526.045a3.065 3.065 0 1 0 0-6.13M6.107 5.747a4.146 4.146 0 1 1 3.436 4.085c-.212-.036-.377.02-.465.108l-1.597 1.598a.54.54 0 0 1-.382.158h-.812v.811a.54.54 0 0 1-.54.541h-.812v.811a.54.54 0 0 1-.54.541H2.14a.54.54 0 0 1-.54-.54v-1.694c0-.502.199-.984.554-1.339L6.06 6.922c.088-.088.145-.252.108-.465a4 4 0 0 1-.06-.71m3.606-1.803a.54.54 0 0 1 .54-.541 2.344 2.344 0 0 1 2.344 2.344.54.54 0 0 1-1.081 0c0-.697-.565-1.262-1.262-1.262a.54.54 0 0 1-.541-.541" clip-rule="evenodd"/>
</svg>
