<svg xmlns="http://www.w3.org/2000/svg" width="16" height="16" fill="none" viewBox="0 0 16 16">
    <path d="M1 4.55a2.07 2.07 0 0 1 2.07-2.071h9.86A2.07 2.07 0 0 1 15 4.549v6.902a2.07 2.07 0 0 1-2.07 2.07H3.07A2.07 2.07 0 0 1 1 11.451zm1.183 2.07v4.83c0 .49.397.888.887.888h9.86c.49 0 .887-.397.887-.887V6.62zm11.634-1.676H2.183v-.395c0-.49.397-.887.887-.887h9.86c.49 0 .887.397.887.887zM2.972 9.479c0-.327.265-.592.591-.592h3.944a.592.592 0 1 1 0 1.184H3.563a.59.59 0 0 1-.591-.592m0 1.479c0-.327.265-.592.591-.592h1.972a.592.592 0 0 1 0 1.183H3.563a.59.59 0 0 1-.591-.591" clip-rule="evenodd"/>
</svg>
