<svg xmlns="http://www.w3.org/2000/svg">
    <path fill-rule="evenodd" d="M4.114 2.77c-.944.472-1.297 1.012-1.297 1.427s.353.956 1.297 1.428c.909.454 2.206.753 3.672.753s2.764-.299 3.672-.753c.944-.472 1.297-1.012 1.297-1.428s-.353-.955-1.297-1.427c-.909-.455-2.206-.753-3.672-.753s-2.763.298-3.672.753m8.641 3.488a5 5 0 0 1-.753.455c-1.11.556-2.602.881-4.216.881S4.68 7.27 3.57 6.714a5 5 0 0 1-.753-.456v.474c0 .416.353.956 1.297 1.428.909.454 2.206.753 3.672.753s2.764-.299 3.672-.753c.944-.472 1.297-1.012 1.297-1.428zm0 2.535a5 5 0 0 1-.753.456c-1.11.555-2.602.88-4.216.88S4.68 9.805 3.57 9.25a5 5 0 0 1-.753-.456v.475c0 .415.353.955 1.297 1.427.909.454 2.206.753 3.672.753s2.764-.299 3.672-.753c.944-.472 1.297-1.012 1.297-1.427zm0 2.535c-.233.17-.488.323-.753.456-1.11.555-2.602.88-4.216.88s-3.106-.325-4.216-.88a5 5 0 0 1-.753-.456v.475c0 .415.353.955 1.297 1.428.909.454 2.206.752 3.672.752s2.764-.298 3.672-.752c.944-.473 1.297-1.013 1.297-1.428zM1.6 4.198c0-1.125.896-1.98 1.97-2.517C4.68 1.126 6.172.8 7.786.8s3.106.326 4.216.881c1.074.537 1.97 1.392 1.97 2.516v7.606c0 1.125-.896 1.979-1.97 2.516-1.11.555-2.602.881-4.216.881s-3.106-.326-4.216-.881c-1.074-.537-1.97-1.391-1.97-2.516z" clip-rule="evenodd"/>
</svg>
