<svg xmlns="http://www.w3.org/2000/svg" width="16" height="16" fill="none" viewBox="0 0 16 16">
    <path d="M4.43 2.915c-.918.459-1.261.984-1.261 1.388s.343.929 1.261 1.388c.883.441 2.144.732 3.57.732s2.687-.29 3.57-.732c.918-.46 1.26-.984 1.26-1.388s-.342-.929-1.26-1.388c-.883-.442-2.145-.732-3.57-.732-1.426 0-2.687.29-3.57.732m8.4 3.391a5 5 0 0 1-.731.443c-1.08.54-2.53.857-4.1.857-1.568 0-3.018-.317-4.098-.857a5 5 0 0 1-.732-.443v.462c0 .404.343.928 1.261 1.388.883.441 2.144.731 3.57.731s2.687-.29 3.57-.731c.918-.46 1.26-.984 1.26-1.388zm0 2.465a5 5 0 0 1-.731.443c-1.08.54-2.53.856-4.1.856-1.568 0-3.018-.316-4.098-.856a5 5 0 0 1-.732-.443v.461c0 .404.343.93 1.261 1.389.883.441 2.144.731 3.57.731s2.687-.29 3.57-.732c.918-.459 1.26-.984 1.26-1.388zm0 2.465a5 5 0 0 1-.731.443c-1.08.54-2.53.856-4.1.856-1.568 0-3.018-.317-4.098-.856a5 5 0 0 1-.732-.444v.462c0 .404.343.929 1.261 1.388.883.442 2.144.732 3.57.732s2.687-.29 3.57-.732c.918-.459 1.26-.984 1.26-1.388zM1.987 4.303c0-1.094.87-1.924 1.915-2.446C4.981 1.317 6.431 1 8 1s3.02.317 4.099.857c1.044.522 1.915 1.352 1.915 2.446v7.394c0 1.094-.871 1.924-1.915 2.446-1.08.54-2.53.857-4.1.857-1.568 0-3.018-.317-4.098-.857-1.044-.522-1.915-1.352-1.915-2.446z" clip-rule="evenodd"/>
</svg>
