<svg xmlns="http://www.w3.org/2000/svg" width="16" height="16" fill="none" viewBox="0 0 16 16">
    <path d="M8 2.167q-.54 0-1.074.017a.85.85 0 0 0-.81.845 33 33 0 0 1 3.768 0 .85.85 0 0 0-.81-.845A34 34 0 0 0 8 2.167m3.051.95V3.05c0-1.076-.834-1.997-1.94-2.032a35 35 0 0 0-2.223 0c-1.105.035-1.94.956-1.94 2.032v.067a32 32 0 0 0-2.477.33.583.583 0 1 0 .24 1.143l.653 8.504A2.064 2.064 0 0 0 5.422 15h5.155c1.079 0 1.976-.83 2.058-1.906l.654-8.504.04.007a.583.583 0 0 0 .2-1.15 32 32 0 0 0-2.478-.33m1.082 1.297A31 31 0 0 0 8 4.141a31.5 31.5 0 0 0-4.133.273l.66 8.59a.897.897 0 0 0 .895.83h5.155a.897.897 0 0 0 .895-.83zm-5.96 1.029a.583.583 0 0 1 .606.56l.228 5.923a.583.583 0 0 1-1.166.045l-.228-5.923a.583.583 0 0 1 .56-.605m3.653 0a.583.583 0 0 1 .56.605l-.228 5.923a.583.583 0 1 1-1.165-.045l.227-5.923a.583.583 0 0 1 .606-.56" clip-rule="evenodd"/>
</svg>
