<svg xmlns="http://www.w3.org/2000/svg">
    <path fill-rule="evenodd" d="M7.785 2q-.555 0-1.105.018a.874.874 0 0 0-.833.869 34 34 0 0 1 3.876 0 .874.874 0 0 0-.833-.87A35 35 0 0 0 7.785 2m3.138.978v-.07c0-1.106-.858-2.053-1.995-2.09a36 36 0 0 0-2.286 0c-1.138.037-1.996.984-1.996 2.09v.07a33 33 0 0 0-2.548.34.6.6 0 1 0 .246 1.175l.673 8.747a2.123 2.123 0 0 0 2.117 1.96h5.302c1.11 0 2.032-.854 2.117-1.96l.673-8.747.041.007a.6.6 0 1 0 .205-1.182 33 33 0 0 0-2.549-.34m1.113 1.334a32 32 0 0 0-4.251-.281 32 32 0 0 0-4.251.28l.68 8.837c.036.48.437.852.92.852h5.302a.923.923 0 0 0 .92-.852zM5.906 5.37a.6.6 0 0 1 .623.576l.235 6.093a.6.6 0 1 1-1.2.046L5.33 5.992a.6.6 0 0 1 .577-.622m3.757 0a.6.6 0 0 1 .576.622l-.234 6.093a.6.6 0 1 1-1.199-.046l.234-6.093a.6.6 0 0 1 .623-.576" clip-rule="evenodd"/>
</svg>
