<svg xmlns="http://www.w3.org/2000/svg" width="16" height="16" fill="none" viewBox="0 0 16 16">
    <path fill="#727683" d="M10.25 10a.75.75 0 0 1 0 1.5h-4.5a.75.75 0 0 1 0-1.5zm0-3a.75.75 0 0 1 0 1.5h-4.5a.75.75 0 1 1 0-1.5z"/>
    <path fill="#727683" fill-rule="evenodd" d="M8.88 1.25c.596 0 1.168.237 1.59.66l3.121 3.12c.422.422.66.995.66 1.591V12.5A2.25 2.25 0 0 1 12 14.75H4a2.25 2.25 0 0 1-2.25-2.25v-9A2.25 2.25 0 0 1 4 1.25zM4 2.75a.75.75 0 0 0-.75.75v9c0 .414.336.75.75.75h8a.75.75 0 0 0 .75-.75V6.621a.75.75 0 0 0-.22-.53L9.41 2.97a.75.75 0 0 0-.53-.22z" clip-rule="evenodd"/>
</svg>
