<svg xmlns="http://www.w3.org/2000/svg" width="16" height="16" fill="none" viewBox="0 0 16 16">
    <path fill="#727683" d="M10.251 10C10.665 10 11.001 10.336 11.001 10.75 11.001 11.164 10.665 11.5 10.251 11.5H5.75C5.336 11.5 5 11.164 5 10.75 5 10.336 5.336 10 5.75 10H10.251ZM10.251 7C10.665 7 11.001 7.336 11.001 7.75 11.001 8.164 10.665 8.5 10.251 8.5H5.75C5.336 8.5 5 8.164 5 7.75 5 7.336 5.336 7 5.75 7H10.251Z"/>
    <path fill="#727683" fill-rule="evenodd" d="M8.87939 1.25C9.47587 1.25019 10.0484 1.48739 10.4702 1.90918L13.5913 5.03027C14.0131 5.45215 14.2504 6.02455 14.2505 6.62109V12.5C14.2505 13.7425 13.2429 14.7497 12.0005 14.75H4.00049C2.75785 14.75 1.74951 13.7426 1.74951 12.5V3.5C1.74951 2.25736 2.75785 1.25 4.00049 1.25H8.87939ZM4.00049 2.75C3.58627 2.75 3.25049 3.08579 3.25049 3.5V12.5C3.25049 12.9142 3.58627 13.25 4.00049 13.25H12.0005C12.4145 13.2497 12.7505 12.9141 12.7505 12.5V6.62109C12.7504 6.42238 12.6712 6.2314 12.5308 6.09082L9.40967 2.96973C9.26918 2.82924 9.07805 2.75019 8.87939 2.75H4.00049Z" clip-rule="evenodd"/>
</svg>
