<svg xmlns="http://www.w3.org/2000/svg" width="16" height="16" fill="none" viewBox="0 0 16 16">
    <path d="M3.5 2.515v10.97a.2.2 0 0 0 .07.015h9.297a.2.2 0 0 0 .07-.015V2.57a.07.07 0 0 0-.07-.07H3.57a.2.2 0 0 0-.07.015M2 2.471C2 1.571 2.797 1 3.57 1h9.298c.868 0 1.57.704 1.57 1.57v10.96c0 .9-.797 1.471-1.57 1.471H3.57C2.797 15 2 14.43 2 13.529zm2.734 2.296a.75.75 0 0 1 .75-.75v1.5a.75.75 0 0 1-.75-.75m.75 0v.75h3.464a.75.75 0 0 0 0-1.5H5.484zm-.75 2.243a.75.75 0 0 1 .75-.75h5.47a.75.75 0 0 1 0 1.5h-5.47a.75.75 0 0 1-.75-.75m0 2.132a.75.75 0 0 1 .75-.75h5.47a.75.75 0 0 1 0 1.5h-5.47a.75.75 0 0 1-.75-.75m0 1.923a.75.75 0 0 1 .75-.75H8.22a.75.75 0 0 1 0 1.5H5.484a.75.75 0 0 1-.75-.75" clip-rule="evenodd"/>
</svg>
