<svg xmlns="http://www.w3.org/2000/svg">
    <path fill-rule="evenodd" d="M6.533 3.01a2 2 0 0 1-.158.327l-.91 1.516c.226-.225.532-.353.851-.353h.117a.85.85 0 0 0 .6-.249l.425.424M6.533 3.01a5.2 5.2 0 0 1 6.62 4.288l-.584-1.169a.867.867 0 0 0-1.36-.253l-.783-.223a1.173 1.173 0 0 0-.973 2.104l.378.252a.125.125 0 0 1 .02.192l-.13.13.425.423-.424-.424a1.33 1.33 0 0 0-.389.937v.265a.85.85 0 0 1-.12.437l-.848 1.412a.76.76 0 0 1-.652.37.08.08 0 0 1-.08-.08v-.756a2.05 2.05 0 0 0-1.288-1.903l-.422-.169a.85.85 0 0 1-.523-.929l.005-.027-.592-.099.592.099a.9.9 0 0 1 .11-.298l.057-.096a.85.85 0 0 1 .896-.396l.759.152a1.325 1.325 0 0 0 1.534-.935l.134-.47a1.325 1.325 0 0 0-.681-1.55l-.429-.214a.6.6 0 0 0-.692.112l-.06.06.425.423M13.084 9.1a5.2 5.2 0 1 1-8.618-4.913l-.03.05a1.2 1.2 0 0 0 .492 1.69l.248-.495-.248.496c.175.087.364.128.55.126-.38.167-.71.45-.935.823l-.057.096a2 2 0 0 0-.265.718l-.004.027a2.05 2.05 0 0 0 1.26 2.24l.422.169a.85.85 0 0 1 .534.79v.754c0 .707.574 1.28 1.28 1.28A1.96 1.96 0 0 0 9.394 12l.847-1.413a2.05 2.05 0 0 0 .292-1.054v-.265q.001-.052.037-.088l.129-.13-.424-.424.424.425a1.325 1.325 0 0 0-.202-2.04l-.235-.156.655.187c.25.071.512.053.745-.043l.53 1.06q.149.297.383.533l.364-.364-.363.364zM6.06 5.895c.21-.025.427-.018.642.025l.76.152a.125.125 0 0 0 .144-.088l.134-.47a.125.125 0 0 0-.064-.146l-.072-.036a2.05 2.05 0 0 1-1.172.368h-.117l-.002.001a1.2 1.2 0 0 1-.253.194m-.22-3.922a6.4 6.4 0 1 1 4.317 12.053A6.4 6.4 0 0 1 5.843 1.974" clip-rule="evenodd"/>
</svg>
