<svg width="16" height="16" viewBox="0 0 16 16" fill="none" xmlns="http://www.w3.org/2000/svg">
<path fill-rule="evenodd" clip-rule="evenodd" d="M6.53318 3.00972C6.49027 3.12268 6.4373 3.23207 6.37463 3.33652L5.46473 4.853L5.46482 4.85331C5.46483 4.85331 5.46476 4.85328 5.46464 4.85325C5.46453 4.85321 5.46438 4.85317 5.46423 4.85315C5.46413 4.85314 5.46415 4.85315 5.46427 4.85314C5.46435 4.85314 5.46447 4.85313 5.46463 4.8531C5.46502 4.85304 5.46525 4.85296 5.4654 4.85288C5.46557 4.85279 5.46564 4.85269 5.46573 4.85261C5.69079 4.62754 5.9968 4.5001 6.31622 4.5001H6.43282C6.65826 4.5001 6.87446 4.41054 7.03386 4.25114L7.45813 4.6754M6.53318 3.00972C6.99781 2.87338 7.48995 2.8001 8.0001 2.8001C10.6338 2.8001 12.8102 4.75803 13.1531 7.29773L12.5688 6.12923C12.3103 5.61215 11.6309 5.49116 11.2098 5.87647L10.4263 5.65263C9.78864 5.47043 9.12682 5.85268 8.96597 6.49609C8.84573 6.97706 9.04082 7.48169 9.45333 7.7567L9.83145 8.00877C9.89708 8.05253 9.90628 8.14539 9.8505 8.20117L9.72152 8.33015L10.1458 8.75442L9.72151 8.33015C9.47303 8.57864 9.33343 8.91566 9.33343 9.26707V9.5318C9.33343 9.68586 9.29156 9.83702 9.2123 9.96913L8.3651 11.3811C8.22776 11.61 7.98038 11.7501 7.71342 11.7501C7.66924 11.7501 7.63343 11.7143 7.63343 11.6701V10.9151C7.63343 10.0769 7.12308 9.32307 6.34478 9.01175L5.92322 8.84313C5.55235 8.69478 5.3348 8.3082 5.40047 7.91419L5.40501 7.88697L4.81317 7.78833L5.40501 7.88697C5.42254 7.78178 5.45971 7.68083 5.51457 7.58939L5.57219 7.49335C5.75701 7.18532 6.11552 7.02673 6.46776 7.09718L7.22682 7.24899C7.90367 7.38436 8.57106 6.97742 8.76069 6.31373L8.89505 5.84348C9.07021 5.2304 8.78388 4.5795 8.21359 4.29435L7.78509 4.08011C7.5541 3.96461 7.27512 4.00988 7.0925 4.1925L7.03386 4.25114L7.45813 4.6754M13.0839 9.09907C12.5798 11.443 10.4946 13.2001 8.0001 13.2001C5.12822 13.2001 2.8001 10.872 2.8001 8.0001C2.8001 6.49344 3.44101 5.13579 4.46564 4.18579L4.43574 4.23561C4.07604 4.83511 4.30284 5.61396 4.92817 5.92662L5.17585 5.43124L4.92817 5.92662C5.10307 6.01407 5.2916 6.0553 5.47815 6.05309C5.09737 6.21998 4.76733 6.50241 4.5432 6.87596L4.48558 6.97199C4.35326 7.19253 4.26362 7.436 4.22133 7.68969L4.2168 7.7169C4.05842 8.66717 4.58308 9.59951 5.47755 9.9573L5.89911 10.1259C6.22182 10.255 6.43343 10.5676 6.43343 10.9151V11.6701C6.43343 12.377 7.0065 12.9501 7.71342 12.9501C8.40189 12.9501 9.03988 12.5889 9.39409 11.9985L10.2413 10.5865C10.4325 10.2679 10.5334 9.90335 10.5334 9.5318V9.26707C10.5334 9.23392 10.5466 9.20212 10.57 9.17868L10.699 9.0497L10.2748 8.62543L10.699 9.0497C11.2903 8.45846 11.1928 7.47412 10.4971 7.01031L10.2623 6.85378L10.917 7.04083C11.167 7.11228 11.4292 7.0945 11.6617 6.99827L12.1915 8.05797C12.2901 8.25504 12.4198 8.43494 12.5755 8.59074L12.9392 8.22709L12.5756 8.59075L13.0839 9.09907ZM10.0967 6.80646L10.0968 6.80649L10.0967 6.80646ZM6.06102 5.89466C6.2713 5.86983 6.48769 5.8774 6.7031 5.92048L7.46216 6.07229C7.52601 6.08506 7.58897 6.04667 7.60686 5.98406L7.74122 5.51381C7.75774 5.45597 7.73073 5.39457 7.67693 5.36767L7.60518 5.33179C7.2636 5.56992 6.85492 5.7001 6.43282 5.7001H6.31625C6.31619 5.7001 6.31595 5.70014 6.31554 5.70031C6.31495 5.70055 6.31452 5.70087 6.31425 5.70114C6.23754 5.77785 6.15223 5.84252 6.06102 5.89466ZM5.84157 1.97341C6.51673 1.73157 7.24372 1.6001 8.0001 1.6001C11.5347 1.6001 14.4001 4.46548 14.4001 8.0001C14.4001 8.33634 14.3741 8.66692 14.3239 8.98984C13.8478 12.0546 11.1984 14.4001 8.0001 14.4001C4.46548 14.4001 1.6001 11.5347 1.6001 8.0001C1.6001 5.22199 3.36985 2.85877 5.84157 1.97341Z" fill="black"/>
</svg>
