<svg xmlns="http://www.w3.org/2000/svg">
    <path fill-rule="evenodd" d="M2.123 2.4C.951 2.4 0 3.35 0 4.523v7.108c0 1.172.95 2.123 2.123 2.123H9.6v-1.2H2.123a.923.923 0 0 1-.923-.923V6.612L6.087 9.62c.683.42 1.543.42 2.226 0L9.6 8.827V8.8h.045L13.2 6.612V8.8h1.2V4.523c0-1.173-.95-2.123-2.123-2.123zM1.2 4.687v-.164c0-.51.413-.923.923-.923h10.154c.51 0 .923.413.923.923v.164c0 .32-.166.618-.44.786L7.685 8.598a.92.92 0 0 1-.968 0L1.64 5.473a.92.92 0 0 1-.439-.786" clip-rule="evenodd"/>
    <path fill-rule="evenodd" d="M10.576 9.776a.6.6 0 0 1 .848 0L12.8 11.15l1.376-1.375a.6.6 0 0 1 .848.848L13.65 12l1.375 1.376a.6.6 0 0 1-.848.848L12.8 12.848l-1.376 1.376a.6.6 0 0 1-.848-.848L11.95 12l-1.375-1.376a.6.6 0 0 1 0-.848" clip-rule="evenodd"/>
</svg>
