<svg xmlns="http://www.w3.org/2000/svg" width="16" height="16" fill="none" viewBox="0 0 16 16">
    <path d="M1 4.544c0-1.14.924-2.064 2.064-2.064h9.872c1.14 0 2.064.924 2.064 2.064v6.91c0 1.14-.924 2.064-2.064 2.064H3.064A2.064 2.064 0 0 1 1 11.454zm1.167 0v.16c0 .311.161.6.427.764L7.53 8.506a.9.9 0 0 0 .94 0l4.936-3.038a.9.9 0 0 0 .427-.764v-.16a.897.897 0 0 0-.897-.897H3.064a.897.897 0 0 0-.897.897m11.666 2.031L9.082 9.5c-.664.408-1.5.408-2.164 0L2.167 6.575v4.88c0 .495.401.897.897.897h9.872a.897.897 0 0 0 .897-.898z" clip-rule="evenodd"/>
</svg>
