<svg xmlns="http://www.w3.org/2000/svg" width="16" height="16" fill="none" viewBox="0 0 16 16">
    <path d="M2.955 2.474C1.875 2.474 1 3.349 1 4.429v6.547c0 1.08.875 1.955 1.955 1.955h6.887v-1.105H2.955a.85.85 0 0 1-.85-.85V6.354l4.502 2.77a1.96 1.96 0 0 0 2.05 0l1.185-.73v-.025h.041l3.275-2.015v2.015h1.105v-3.94c0-1.08-.875-1.955-1.955-1.955zm-.85 2.107v-.152c0-.47.38-.85.85-.85h9.353c.47 0 .85.38.85.85v.152a.85.85 0 0 1-.405.724L8.077 8.182a.85.85 0 0 1-.891 0L2.51 5.305a.85.85 0 0 1-.405-.724" clip-rule="evenodd"/>
    <path d="M10.74 9.267a.553.553 0 0 1 .782 0l1.268 1.267 1.267-1.267a.553.553 0 1 1 .781.782l-1.267 1.267 1.267 1.267a.552.552 0 1 1-.781.782l-1.267-1.267-1.268 1.267a.552.552 0 1 1-.781-.782l1.267-1.267-1.267-1.267a.553.553 0 0 1 0-.782" clip-rule="evenodd"/>
</svg>
