<svg xmlns="http://www.w3.org/2000/svg" width="16" height="16" fill="none" viewBox="0 0 16 16">
    <path fill="#727683" d="M2 1.40039C2.33137 1.40039 2.59961 1.66863 2.59961 2V13.4004H14C14.3314 13.4004 14.5996 13.6686 14.5996 14C14.5996 14.3314 14.3314 14.5996 14 14.5996H2C1.66863 14.5996 1.40039 14.3314 1.40039 14V2C1.40039 1.66863 1.66863 1.40039 2 1.40039Z"/>
    <path fill="#727683" fill-rule="evenodd" d="M11.199 7.801C12.414 7.801 13.399 8.785 13.399 10 13.399 11.215 12.414 12.2 11.199 12.2 9.985 12.2 9 11.215 9 10 9 8.785 9.985 7.801 11.199 7.801ZM11.199 9C10.647 9 10.199 9.448 10.199 10 10.199 10.552 10.647 11 11.199 11 11.751 11 12.199 10.552 12.199 10 12.199 9.448 11.751 9 11.199 9ZM5.6 5.801C6.815 5.801 7.8 6.785 7.8 8 7.8 9.215 6.815 10.2 5.6 10.2 4.385 10.2 3.401 9.215 3.4 8 3.401 6.785 4.385 5.801 5.6 5.801ZM5.6 7C5.048 7 4.6 7.448 4.6 8 4.6 8.552 5.048 9 5.6 9 6.152 9 6.599 8.552 6.6 8 6.599 7.448 6.152 7 5.6 7ZM8.8 1.801C10.015 1.801 11 2.785 11 4 11 5.215 10.015 6.2 8.8 6.2 7.585 6.2 6.601 5.215 6.601 4 6.601 2.785 7.585 1.801 8.8 1.801ZM8.8 3C8.248 3 7.8 3.448 7.8 4 7.8 4.552 8.248 5 8.8 5 9.352 5 9.8 4.552 9.8 4 9.8 3.448 9.352 3 8.8 3Z" clip-rule="evenodd"/>
</svg>
