<svg width="16" height="16" viewBox="0 0 16 16" fill="none" xmlns="http://www.w3.org/2000/svg">
<path d="M2 1.40039C2.33137 1.40039 2.59961 1.66863 2.59961 2V13.4004H14C14.3314 13.4004 14.5996 13.6686 14.5996 14C14.5996 14.3314 14.3314 14.5996 14 14.5996H2C1.66863 14.5996 1.40039 14.3314 1.40039 14V2C1.40039 1.66863 1.66863 1.40039 2 1.40039Z" fill="#727683"/>
<path fill-rule="evenodd" clip-rule="evenodd" d="M11.1992 7.80078C12.4141 7.80078 13.3992 8.78515 13.3994 10C13.3992 11.2149 12.4141 12.2002 11.1992 12.2002C9.98467 12.1998 9.0002 11.2146 9 10C9.00021 8.78541 9.98468 7.8012 11.1992 7.80078ZM11.1992 9C10.6474 9.00042 10.1994 9.44815 10.1992 10C10.1994 10.5519 10.6474 10.9996 11.1992 11C11.7514 11 12.199 10.5521 12.1992 10C12.199 9.4479 11.7514 9 11.1992 9Z" fill="#727683"/>
<path fill-rule="evenodd" clip-rule="evenodd" d="M5.59961 5.80078C6.81451 5.80078 7.79959 6.78515 7.7998 8C7.79961 9.21486 6.81451 10.2002 5.59961 10.2002C4.38488 10.2 3.40059 9.21473 3.40039 8C3.4006 6.78528 4.38489 5.80099 5.59961 5.80078ZM5.59961 7C5.04763 7.00021 4.59982 7.44802 4.59961 8C4.59981 8.55199 5.04763 8.99979 5.59961 9C6.15177 9 6.59941 8.55212 6.59961 8C6.5994 7.4479 6.15176 7 5.59961 7Z" fill="#727683"/>
<path fill-rule="evenodd" clip-rule="evenodd" d="M8.7998 1.80078C10.0146 1.80089 10.9998 2.78522 11 4C10.9998 5.21479 10.0146 6.20009 8.7998 6.2002C7.58508 6.19998 6.60078 5.21473 6.60059 4C6.6008 2.78528 7.58509 1.80099 8.7998 1.80078ZM8.7998 3C8.24783 3.00021 7.80002 3.44802 7.7998 4C7.8 4.55199 8.24782 4.99979 8.7998 5C9.35188 4.99989 9.79961 4.55205 9.7998 4C9.79959 3.44796 9.35187 3.00011 8.7998 3Z" fill="#727683"/>
</svg>
