<svg xmlns="http://www.w3.org/2000/svg" width="16" height="16" fill="none" viewBox="0 0 16 16">
    <path fill="#727683" d="M2 1.4a.6.6 0 0 1 .6.6v11.4H14a.6.6 0 1 1 0 1.2H2a.6.6 0 0 1-.6-.6V2a.6.6 0 0 1 .6-.6"/>
    <path fill="#727683" fill-rule="evenodd" d="M11.2 7.8a2.2 2.2 0 1 1 0 4.4 2.2 2.2 0 0 1 0-4.4m0 1.2a1.001 1.001 0 0 0 0 2 1 1 0 0 0 0-2M5.6 5.8a2.2 2.2 0 1 1 0 4.4 2.2 2.2 0 0 1 0-4.4m0 1.2a1 1 0 1 0 0 2.001A1 1 0 0 0 5.6 7m3.2-5.2a2.2 2.2 0 1 1 0 4.4 2.2 2.2 0 0 1 0-4.4m0 1.2a1 1 0 1 0 0 2.001A1 1 0 0 0 8.8 3" clip-rule="evenodd"/>
</svg>
