<svg xmlns="http://www.w3.org/2000/svg">
    <path fill-rule="evenodd" d="M1.675 1.776a.6.6 0 0 1 .848 0l1.782 1.782a7.488 7.488 0 0 1 10.87 4.371.6.6 0 0 1 0 .343 7.5 7.5 0 0 1-2.47 3.685l1.621 1.622a.6.6 0 0 1-.848.848L1.675 2.624a.6.6 0 0 1 0-.848m10.175 9.327A6.3 6.3 0 0 0 13.972 8.1a6.288 6.288 0 0 0-8.78-3.657L6.66 5.912a2.567 2.567 0 0 1 3.53 3.53zM9.294 8.546q.073-.21.074-.444a1.367 1.367 0 0 0-1.812-1.294zm-6.165-3.38a.6.6 0 0 1 .07.846 6.3 6.3 0 0 0-1.17 2.09 6.29 6.29 0 0 0 7.685 4.081.6.6 0 0 1 .327 1.155A7.49 7.49 0 0 1 .826 8.274a.6.6 0 0 1 0-.342 7.5 7.5 0 0 1 1.458-2.695.6.6 0 0 1 .845-.07" clip-rule="evenodd"/>
</svg>
