<svg xmlns="http://www.w3.org/2000/svg" width="16" height="16" fill="none" viewBox="0 0 16 16">
    <path d="M1.85 1.85a.583.583 0 0 1 .825 0l1.733 1.732a7.28 7.28 0 0 1 10.568 4.25.6.6 0 0 1 0 .333 7.3 7.3 0 0 1-2.403 3.583l1.577 1.577a.583.583 0 0 1-.825.825L1.85 2.675a.583.583 0 0 1 0-.825m9.893 9.068a6.1 6.1 0 0 0 2.062-2.919A6.113 6.113 0 0 0 5.27 4.444l1.427 1.427a2.496 2.496 0 0 1 3.432 3.432zM9.258 8.432q.07-.203.072-.432a1.33 1.33 0 0 0-1.762-1.258zM3.264 5.146a.583.583 0 0 1 .069.822 6.1 6.1 0 0 0-1.138 2.033 6.114 6.114 0 0 0 7.471 3.967.583.583 0 0 1 .318 1.123 7.28 7.28 0 0 1-8.96-4.923.6.6 0 0 1 0-.333 7.3 7.3 0 0 1 1.418-2.62.583.583 0 0 1 .822-.069" clip-rule="evenodd"/>
</svg>
