<svg width="16" height="16" viewBox="0 0 16 16" fill="none" xmlns="http://www.w3.org/2000/svg">
<path fill-rule="evenodd" clip-rule="evenodd" d="M8.00056 3.77873C5.28672 3.77873 2.98246 5.53884 2.16995 7.98141C2.16557 7.99457 2.16557 8.00901 2.16996 8.02218C2.98348 10.463 5.28686 12.2214 7.99944 12.2214C10.7133 12.2214 13.0175 10.4613 13.8301 8.01877C13.8344 8.0056 13.8344 7.99116 13.83 7.978C13.0165 5.5372 10.7131 3.77873 8.00056 3.77873ZM1.06292 7.61316C2.02926 4.70816 4.76937 2.61206 8.00056 2.61206C11.2303 2.61206 13.9693 4.70621 14.9368 7.6091C15.021 7.8615 15.0211 8.13457 14.9371 8.38702C13.9707 11.292 11.2306 13.3881 7.99944 13.3881C4.76975 13.3881 2.03069 11.294 1.06315 8.39108C0.979028 8.13868 0.978948 7.86561 1.06292 7.61316ZM8.00004 6.66154C7.26078 6.66154 6.6615 7.26083 6.6615 8.00009C6.6615 8.73935 7.26078 9.33863 8.00004 9.33863C8.7393 9.33863 9.33859 8.73935 9.33859 8.00009C9.33859 7.26083 8.7393 6.66154 8.00004 6.66154ZM5.49483 8.00009C5.49483 6.6165 6.61645 5.49488 8.00004 5.49488C9.38363 5.49488 10.5053 6.6165 10.5053 8.00009C10.5053 9.38368 9.38363 10.5053 8.00004 10.5053C6.61645 10.5053 5.49483 9.38368 5.49483 8.00009Z" fill="black"/>
</svg>
