<svg xmlns="http://www.w3.org/2000/svg">
    <g clip-path="url(#a)">
        <path fill-rule="evenodd" d="M1.972 1.305A36 36 0 0 1 8 .8c2.054 0 4.068.173 6.028.505A1.41 1.41 0 0 1 15.2 2.701v.766a2.25 2.25 0 0 1-.66 1.59l-3.983 3.984a1.05 1.05 0 0 0-.307.742v2.147a2.25 2.25 0 0 1-1.244 2.013l-2.388 1.194a.6.6 0 0 1-.868-.537V9.784c0-.279-.11-.546-.308-.743L1.46 5.058A2.25 2.25 0 0 1 .8 3.467V2.7c0-.682.487-1.28 1.173-1.396M8 2a35 35 0 0 0-5.827.489A.21.21 0 0 0 2 2.7v.766c0 .278.11.545.307.742l3.984 3.984c.422.421.659.994.659 1.59v3.846l1.52-.76a1.05 1.05 0 0 0 .58-.939V9.784c0-.597.237-1.17.659-1.591l3.983-3.984A1.05 1.05 0 0 0 14 3.467V2.7a.21.21 0 0 0-.173-.212A35 35 0 0 0 8 2" clip-rule="evenodd"/>
    </g>
    <defs>
        <clipPath id="a">
            <path fill="#fff" d="M0 0h16v16H0z"/>
        </clipPath>
    </defs>
</svg>
