<svg xmlns="http://www.w3.org/2000/svg" width="16" height="16" fill="none" viewBox="0 0 16 16">
    <path d="M2.14 1.491A35 35 0 0 1 8 1c1.997 0 3.955.168 5.86.491.668.114 1.14.694 1.14 1.357v.744c0 .58-.23 1.137-.64 1.547l-3.873 3.873a1.02 1.02 0 0 0-.3.722v2.087c0 .829-.468 1.586-1.209 1.957l-2.321 1.16a.583.583 0 0 1-.844-.521V9.734c0-.27-.108-.53-.3-.722L1.641 5.14A2.2 2.2 0 0 1 1 3.592v-.744c0-.663.472-1.243 1.14-1.357M8 2.167c-1.931 0-3.824.162-5.665.475a.206.206 0 0 0-.168.206v.744c0 .271.107.53.299.722l3.872 3.873c.41.41.641.967.641 1.547v3.739l1.478-.739a1.02 1.02 0 0 0 .564-.913V9.734c0-.58.23-1.137.64-1.547l3.873-3.873a1.02 1.02 0 0 0 .3-.722v-.744a.206.206 0 0 0-.169-.206A34 34 0 0 0 8 2.167" clip-rule="evenodd"/>
</svg>
