<svg xmlns="http://www.w3.org/2000/svg" width="16" height="16" fill="none" viewBox="0 0 16 16">
    <path d="M3 3.25a.75.75 0 0 0-.75.75v1.878q.354-.126.75-.128h10q.391.002.74.124A.75.75 0 0 0 13 5.25H9.414a1.75 1.75 0 0 1-1.237-.513L6.763 3.323a.25.25 0 0 0-.177-.073zM13.75 8a.75.75 0 0 0-.75-.75H3a.75.75 0 0 0-.75.75v4c0 .414.336.75.75.75h10a.75.75 0 0 0 .75-.75zm1.5 4A2.25 2.25 0 0 1 13 14.25H3A2.25 2.25 0 0 1 .75 12V4A2.25 2.25 0 0 1 3 1.75h3.586c.464 0 .909.184 1.237.513l1.414 1.414a.25.25 0 0 0 .177.073H13A2.25 2.25 0 0 1 15.25 6z" clip-rule="evenodd"/>
</svg>
