<svg xmlns="http://www.w3.org/2000/svg" width="16" height="16" fill="none" viewBox="0 0 16 16">
    <path d="M8.312 7.545V2.58c0-.156-.141-.33-.375-.331-.235 0-.376.175-.376.331v.902l.047 3.598a.625.625 0 0 1-1.25.017L6.311 3.5v-.008c0-.156-.141-.33-.375-.33s-.376.174-.376.33V8a.625.625 0 1 1-1.25 0V5.313l-.007-.06c-.03-.137-.164-.27-.368-.27-.235 0-.376.174-.376.33v4.963c0 .89.493 1.75 1.327 2.409a5.03 5.03 0 0 0 3.05 1.065c2.725 0 3.874-1.908 4.314-2.991.145-.357.191-.768.191-1.24V7.623a.4.4 0 0 0-.358.099c-.347.331-.516.76-.518 1.181v.92a.625.625 0 0 1-1.25 0l-.002-6.33c0-.156-.141-.33-.376-.33-.204 0-.338.132-.369.27l-.006.06v4.053a.625.625 0 0 1-1.25 0m3.25-.979a1.66 1.66 0 0 1 1.936.25.63.63 0 0 1 .193.453v2.25c0 .537-.049 1.135-.283 1.71-.514 1.267-1.986 3.77-5.471 3.77a6.3 6.3 0 0 1-3.827-1.335c-1.043-.825-1.8-2.015-1.8-3.389V5.313c0-.9.755-1.58 1.626-1.58q.192 0 .375.043v-.284c0-.9.755-1.58 1.626-1.58q.257 0 .494.074A1.63 1.63 0 0 1 7.937 1c.664 0 1.26.398 1.505.986q.238-.074.495-.075c.871 0 1.626.682 1.626 1.581z"/>
</svg>
