<svg xmlns="http://www.w3.org/2000/svg">
    <path fill-rule="evenodd" d="M8 2.8a5.2 5.2 0 1 0 0 10.4A5.2 5.2 0 0 0 8 2.8M1.6 8a6.4 6.4 0 1 1 12.8 0A6.4 6.4 0 0 1 1.6 8m7.372-2.436c-.529-.463-1.415-.463-1.944 0a.6.6 0 1 1-.79-.903c.981-.859 2.543-.859 3.524 0 1.029.9 1.029 2.395 0 3.295a2.5 2.5 0 0 1-.565.374c-.425.205-.597.463-.597.637v.483a.6.6 0 0 1-1.2 0v-.483c0-.895.738-1.458 1.274-1.718q.164-.079.298-.196c.482-.422.482-1.068 0-1.49M7.4 11.384a.6.6 0 0 1 .6-.6h.005a.6.6 0 0 1 .6.6v.004a.6.6 0 0 1-.6.6H8a.6.6 0 0 1-.6-.6z" clip-rule="evenodd"/>
</svg>
