<svg xmlns="http://www.w3.org/2000/svg" width="16" height="16" fill="none" viewBox="0 0 16 16">
    <path d="M8 2.313a5.687 5.687 0 1 0 0 11.374A5.687 5.687 0 0 0 8 2.313M1 8a7 7 0 1 1 14 0A7 7 0 0 1 1 8m8.063-2.665c-.578-.506-1.548-.506-2.126 0a.656.656 0 0 1-.864-.987c1.073-.94 2.781-.94 3.855 0 1.124.984 1.124 2.62 0 3.604-.19.166-.4.302-.62.408-.464.225-.652.508-.652.697v.529a.656.656 0 0 1-1.312 0v-.529c0-.978.807-1.594 1.393-1.878a1.5 1.5 0 0 0 .326-.215c.527-.46.527-1.168 0-1.629m-1.72 6.366c0-.363.295-.657.657-.657h.005c.363 0 .657.294.657.656v.006a.656.656 0 0 1-.657.656H8a.656.656 0 0 1-.656-.656z" clip-rule="evenodd"/>
</svg>
