<svg xmlns="http://www.w3.org/2000/svg" width="16" height="16" fill="none" viewBox="0 0 16 16">
    <path fill="#727683" d="M8.813 13.469v-2.344a.03.03 0 0 0-.031-.031H7.219a.03.03 0 0 0-.031.031v2.344c0 .846-.686 1.531-1.531 1.531H4.094a1.53 1.53 0 0 1-1.531-1.531V9.532h-.031a1.532 1.532 0 0 1-1.083-2.615l5.468-5.469a1.53 1.53 0 0 1 2.166 0l5.47 5.47a1.532 1.532 0 0 1-1.084 2.613h-.031v3.938c0 .846-.686 1.531-1.531 1.531h-1.563a1.53 1.53 0 0 1-1.531-1.531m1.5 0c0 .017.014.031.031.031h1.563a.03.03 0 0 0 .03-.031V8.782a.75.75 0 0 1 .75-.75h.782a.03.03 0 0 0 .03-.02.03.03 0 0 0-.008-.034L8.024 2.509a.03.03 0 0 0-.045 0l-5.47 5.469a.03.03 0 0 0-.007.034q.009.019.03.02h.78a.75.75 0 0 1 .75.75v4.687c0 .017.015.031.032.031h1.563a.03.03 0 0 0 .03-.031v-2.344c0-.845.686-1.531 1.532-1.531h1.563c.845 0 1.53.686 1.53 1.531z"/>
</svg>
