<svg xmlns="http://www.w3.org/2000/svg" width="16" height="16" fill="none" viewBox="0 0 16 16">
    <path d="M.8 4.53A2.13 2.13 0 0 1 2.93 2.4h10.14a2.13 2.13 0 0 1 2.13 2.13v7.098a2.13 2.13 0 0 1-2.13 2.13H2.93a2.13 2.13 0 0 1-2.13-2.13zm2.13-.913a.913.913 0 0 0-.913.912v7.1c0 .503.409.912.913.912h10.14a.913.913 0 0 0 .913-.913V4.53a.913.913 0 0 0-.913-.912zm2.788 2.028a.66.66 0 1 0 0 1.318.66.66 0 0 0 0-1.318m-1.876.66a1.876 1.876 0 1 1 3.752 0 1.876 1.876 0 0 1-3.752 0M9.42 6.05c0-.336.272-.609.608-.609h2.535a.608.608 0 1 1 0 1.217h-2.535a.61.61 0 0 1-.608-.608m0 2.028c0-.336.272-.609.608-.609h2.535a.608.608 0 1 1 0 1.217h-2.535a.61.61 0 0 1-.608-.608M4.435 10.3a4 4 0 0 0 1.283.213c.45 0 .881-.075 1.283-.213a1.67 1.67 0 0 0-2.566 0m-1.43.078a2.891 2.891 0 0 1 5.427 0 .61.61 0 0 1-.285.747 5.15 5.15 0 0 1-2.429.604 5.15 5.15 0 0 1-2.428-.604.61.61 0 0 1-.285-.747m6.415-.271c0-.336.272-.609.608-.609h2.535a.608.608 0 1 1 0 1.217h-2.535a.61.61 0 0 1-.608-.608" clip-rule="evenodd"/>
</svg>
