<svg xmlns="http://www.w3.org/2000/svg" width="16" height="16" fill="none" viewBox="0 0 16 16">
    <path fill="#727683" d="m13.25 11.11-2.243-2.057-1.123 1.124a1.25 1.25 0 0 1-1.768 0L5.99 8.05l-2.992 2.656-.002-.002a1 1 0 0 1-.143.111q-.057.035-.103.059V12c0 .69.56 1.25 1.25 1.25h8c.256 0 .575-.136.845-.405.27-.27.405-.589.405-.845zm-2-6.11a.25.25 0 1 0-.5 0 .25.25 0 0 0 .5 0m2-1c0-.69-.56-1.25-1.25-1.25H4c-.69 0-1.25.56-1.25 1.25v4.922l2.398-2.129a1.25 1.25 0 0 1 1.641-.056l.095.086L9 8.94l1.116-1.116.095-.086a1.25 1.25 0 0 1 1.648.064h.001l1.39 1.274zm-.5 1a1.75 1.75 0 1 1-3.5 0 1.75 1.75 0 0 1 3.5 0m2 7q0 .11-.012.22a2.745 2.745 0 0 1-2.518 2.518 2 2 0 0 1-.22.012H4c-.611 0-1.304-.151-1.855-.611-.576-.48-.895-1.209-.895-2.139V4A2.75 2.75 0 0 1 4 1.25h8A2.75 2.75 0 0 1 14.75 4z"/>
</svg>
