<svg xmlns="http://www.w3.org/2000/svg" width="16" height="16" fill="none" viewBox="0 0 16 16">
    <path d="M8 2.313a5.687 5.687 0 1 0 0 11.374A5.687 5.687 0 0 0 8 2.313M1 8a7 7 0 1 1 14 0A7 7 0 0 1 1 8m6.344-2.643c0-.363.294-.656.656-.656h.005c.363 0 .657.293.657.656v.005a.656.656 0 0 1-.657.656H8a.656.656 0 0 1-.656-.656zm.213 2.765a.657.657 0 0 1-.38-1.238l.03-.014c.906-.453 1.925.365 1.68 1.347l-.444 1.775a.657.657 0 0 1 .38 1.238l-.03.015c-.906.453-1.925-.365-1.68-1.347z" clip-rule="evenodd"/>
</svg>
