<svg xmlns="http://www.w3.org/2000/svg" width="16" height="16" fill="none" viewBox="0 0 16 16">
    <path d="M8.328 6.593a.75.75 0 0 1-.38.99C6.41 8.266 5.33 9.189 4.59 10.3c-.745 1.117-1.175 2.465-1.35 4.033a.75.75 0 1 1-1.49-.166c.194-1.74.682-3.334 1.592-4.699C4.255 8.098 5.567 7 7.338 6.212a.75.75 0 0 1 .99.38"/>
    <path d="M3.193 3.114C4.759 1.754 7.168 1 10.573 1h2.952a.75.75 0 0 1 .75.75v1.47l-.001.044c-.19 3.31-1.106 5.72-2.686 7.3-1.588 1.589-3.735 2.23-6.151 2.23H3.22a.75.75 0 0 1-.53-.22C1.003 10.888 1 9.161 1 8.368v-.003c.006-1.99.608-3.877 2.193-5.251M2.5 8.369v.005c0 .638 0 1.748 1.043 2.92h1.894c2.156 0 3.868-.568 5.09-1.79 1.226-1.226 2.068-3.221 2.248-6.305V2.5h-2.202c-3.212 0-5.21.716-6.398 1.747-1.17 1.015-1.67 2.435-1.675 4.122"/>
</svg>
