<svg xmlns="http://www.w3.org/2000/svg" width="16" height="16" fill="none" viewBox="0 0 16 16">
    <path d="M8.141 1a5.141 5.141 0 0 0-3.269 9.11c.763.629 1.08 1.138 1.08 1.535v.476c0 .583.4 1.091.966 1.23a5.15 5.15 0 0 0 2.446 0c.567-.139.966-.647.966-1.23v-.476c0-.397.317-.906 1.08-1.535A5.141 5.141 0 0 0 8.141 1M4.424 6.141a3.718 3.718 0 1 1 6.08 2.87c-.79.652-1.598 1.536-1.598 2.634v.35a3.7 3.7 0 0 1-1.53 0v-.35c0-1.098-.807-1.982-1.598-2.634a3.71 3.71 0 0 1-1.354-2.87m2.247 8.153a.554.554 0 0 1 .631-.465 5.6 5.6 0 0 0 1.68 0 .554.554 0 1 1 .166 1.095 6.7 6.7 0 0 1-2.012 0 .554.554 0 0 1-.465-.63"/>
</svg>
