<svg xmlns="http://www.w3.org/2000/svg">
    <path fill-rule="evenodd" d="M8 2.8a1.43 1.43 0 1 0 0 2.862A1.43 1.43 0 0 0 8 2.8M5.369 4.23a2.63 2.63 0 1 1 5.261 0 2.63 2.63 0 0 1-5.261 0M3.43 5.34a.923.923 0 1 0 0 1.846.923.923 0 0 0 0-1.846m-2.123.923a2.123 2.123 0 1 1 4.246 0 2.123 2.123 0 0 1-4.246 0m11.262-.923a.923.923 0 1 0 0 1.846.923.923 0 0 0 0-1.846m-2.123.923a2.123 2.123 0 1 1 4.246 0 2.123 2.123 0 0 1-4.246 0M8 8.892a3.46 3.46 0 0 0-3.462 3.444v.018l.001.082a7.5 7.5 0 0 0 3.46.841 7.5 7.5 0 0 0 3.461-.841l.001-.082v-.018A3.46 3.46 0 0 0 8 8.892m4.618 4.062a.6.6 0 0 1-.283.371A8.7 8.7 0 0 1 8 14.477a8.7 8.7 0 0 1-4.336-1.152.6.6 0 0 1-.282-.371 6.7 6.7 0 0 1-2.175-.378.6.6 0 0 1-.399-.519 2.63 2.63 0 0 1 3.587-2.66A4.65 4.65 0 0 1 8 7.693c1.453 0 2.75.666 3.604 1.706a2.63 2.63 0 0 1 3.587 2.659.6.6 0 0 1-.398.519 6.7 6.7 0 0 1-2.175.378m-.362-2.504c.182.407.308.845.367 1.304q.703-.009 1.351-.181a1.43 1.43 0 0 0-1.718-1.123m-8.512 0a1.43 1.43 0 0 0-1.718 1.123 5.5 5.5 0 0 0 1.35.18c.06-.458.185-.896.368-1.303" clip-rule="evenodd"/>
</svg>
