<svg width="16" height="16" viewBox="0 0 16 16" fill="none" xmlns="http://www.w3.org/2000/svg">
<path fill-rule="evenodd" clip-rule="evenodd" d="M6.13247 1.17958C6.30822 1.35534 6.36047 1.61981 6.26475 1.84919C5.96713 2.56244 5.80246 3.34567 5.80246 4.16892C5.80246 7.49844 8.50157 10.1975 11.8311 10.1975C12.6543 10.1975 13.4376 10.0329 14.1508 9.73525C14.3802 9.63953 14.6447 9.69178 14.8204 9.86753C14.9962 10.0433 15.0484 10.3078 14.9527 10.5371C13.8595 13.1569 11.2731 15 8.25478 15C4.24808 15 1 11.7519 1 7.74522C1 4.72688 2.84311 2.14046 5.46286 1.0473C5.69224 0.951585 5.95672 1.00383 6.13247 1.17958ZM4.69006 2.88277C3.19547 3.98037 2.22616 5.75005 2.22616 7.74522C2.22616 11.0747 4.92526 13.7738 8.25478 13.7738C10.25 13.7738 12.0196 12.8045 13.1172 11.3099C12.6996 11.3847 12.2697 11.4237 11.8311 11.4237C7.82438 11.4237 4.5763 8.17563 4.5763 4.16892C4.5763 3.73027 4.6153 3.30043 4.69006 2.88277Z" fill="black"/>
</svg>
