<svg xmlns="http://www.w3.org/2000/svg" width="16" height="16" fill="none" viewBox="0 0 16 16">
    <path d="M1 3.386A2.386 2.386 0 0 1 3.386 1h1.73a2.386 2.386 0 0 1 2.387 2.386v1.73a2.386 2.386 0 0 1-2.387 2.387h-1.73A2.386 2.386 0 0 1 1 5.116zm2.386-1.074c-.593 0-1.074.481-1.074 1.074v1.73c0 .594.481 1.074 1.074 1.074h1.73c.594 0 1.074-.48 1.074-1.074v-1.73c0-.593-.48-1.074-1.074-1.074zm5.111 1.074A2.386 2.386 0 0 1 10.884 1h1.73A2.386 2.386 0 0 1 15 3.386v1.73a2.386 2.386 0 0 1-2.386 2.387h-1.73a2.386 2.386 0 0 1-2.387-2.387zm2.387-1.074c-.594 0-1.074.481-1.074 1.074v1.73c0 .594.48 1.074 1.073 1.074h1.73c.594 0 1.075-.48 1.075-1.074v-1.73c0-.593-.481-1.074-1.074-1.074zM1 10.885a2.386 2.386 0 0 1 2.386-2.387h1.73a2.386 2.386 0 0 1 2.387 2.387v1.73A2.386 2.386 0 0 1 5.116 15h-1.73A2.386 2.386 0 0 1 1 12.614zM3.386 9.81c-.593 0-1.074.48-1.074 1.073v1.73c0 .594.481 1.075 1.074 1.075h1.73c.594 0 1.074-.481 1.074-1.074v-1.73c0-.594-.48-1.074-1.074-1.074zm5.111 1.073a2.386 2.386 0 0 1 2.387-2.386h1.73A2.386 2.386 0 0 1 15 10.884v1.73A2.386 2.386 0 0 1 12.614 15h-1.73a2.386 2.386 0 0 1-2.387-2.386zm2.387-1.073c-.594 0-1.074.48-1.074 1.073v1.73c0 .594.48 1.075 1.073 1.075h1.73c.594 0 1.075-.481 1.075-1.074v-1.73c0-.594-.481-1.074-1.074-1.074z" clip-rule="evenodd"/>
</svg>
