<svg xmlns="http://www.w3.org/2000/svg">
    <path d="M1.6 3.782c0-1.205.977-2.182 2.182-2.182h1.582c1.205 0 2.182.977 2.182 2.182v1.582a2.18 2.18 0 0 1-2.182 2.182H3.782A2.18 2.18 0 0 1 1.6 5.364zM3.782 2.8a.98.98 0 0 0-.982.982v1.582c0 .542.44.982.982.982h1.582c.542 0 .982-.44.982-.982V3.782a.98.98 0 0 0-.982-.982zm4.673.982c0-1.205.976-2.182 2.182-2.182h1.581c1.205 0 2.182.977 2.182 2.182v1.582a2.18 2.18 0 0 1-2.182 2.182h-1.582a2.18 2.18 0 0 1-2.181-2.182zm2.182-.982a.98.98 0 0 0-.982.982v1.582c0 .542.44.982.982.982h1.581c.543 0 .982-.44.982-.982V3.782a.98.98 0 0 0-.982-.982zM1.6 10.636c0-1.205.977-2.181 2.182-2.181h1.582c1.205 0 2.182.976 2.182 2.182v1.581A2.18 2.18 0 0 1 5.364 14.4H3.782A2.18 2.18 0 0 1 1.6 12.218zm2.182-.981a.98.98 0 0 0-.982.982v1.581c0 .543.44.982.982.982h1.582c.542 0 .982-.44.982-.982v-1.582a.98.98 0 0 0-.982-.981zm4.673.982a2.18 2.18 0 0 1 2.182-2.182h1.581c1.205 0 2.182.976 2.182 2.182v1.581a2.18 2.18 0 0 1-2.182 2.182h-1.582a2.18 2.18 0 0 1-2.181-2.182zm2.182-.982a.98.98 0 0 0-.982.982v1.581c0 .543.44.982.982.982h1.581c.543 0 .982-.44.982-.982v-1.582a.98.98 0 0 0-.982-.981z"/>
</svg>
