<svg xmlns="http://www.w3.org/2000/svg" width="16" height="16" fill="none" viewBox="0 0 16 16">
    <path fill="#727683" d="M4.849 11.855v-.103l-1.15.33a.213.213 0 0 0 .117.41l.705-.203a.45.45 0 0 0 .328-.434m5.606-1.602v-.102l-1.15.329a.213.213 0 0 0 .118.409l.705-.202a.45.45 0 0 0 .327-.434M6.35 4.916v.443l4.106-1.173v-.443zm5.606 5.337a1.95 1.95 0 0 1-1.415 1.876l-.705.202a1.713 1.713 0 0 1-.941-3.294l1.234-.352a.45.45 0 0 0 .327-.435V5.745L6.35 6.918v4.937c0 .871-.579 1.637-1.416 1.877l-.704.201a1.713 1.713 0 0 1-.942-3.294l1.234-.352a.45.45 0 0 0 .328-.434V4.35a.75.75 0 0 1 .544-.72L11 2.028a.75.75 0 0 1 .956.72z"/>
</svg>
