<svg xmlns="http://www.w3.org/2000/svg" width="16" height="16" fill="none" viewBox="0 0 16 16">
    <path d="M8.002 2.5a3.417 3.417 0 0 0-3.417 3.417v.52a6.97 6.97 0 0 1-1.122 3.803 15.8 15.8 0 0 0 4.539.656q.963 0 1.895-.112a16 16 0 0 0 2.643-.544 6.97 6.97 0 0 1-1.122-3.802v-.521A3.417 3.417 0 0 0 8.002 2.5M3.085 5.916a4.917 4.917 0 0 1 9.834 0v.522c0 1.415.533 2.704 1.412 3.68a.75.75 0 0 1-.298 1.205 17.3 17.3 0 0 1-3.198.843 2.834 2.834 0 0 1-5.666 0 17.3 17.3 0 0 1-3.199-.843.75.75 0 0 1-.297-1.206 5.48 5.48 0 0 0 1.412-3.68zm3.596 6.43a1.334 1.334 0 0 0 2.642 0 17.6 17.6 0 0 1-2.642 0" clip-rule="evenodd"/>
</svg>
