<svg xmlns="http://www.w3.org/2000/svg">
    <path d="M13.036 2.964a.56.56 0 0 0-.792 0l-.62.62.792.792.62-.62a.56.56 0 0 0 0-.792m-1.468 2.26-.792-.792-5.101 5.102a2.2 2.2 0 0 0-.55.92l-.177.598.598-.178c.348-.103.664-.292.92-.549zm-.172-3.108a1.76 1.76 0 1 1 2.489 2.489l-6.57 6.569a3.4 3.4 0 0 1-1.427.85l-1.66.495a.6.6 0 0 1-.747-.746l.495-1.661c.16-.54.453-1.03.85-1.427l5.526-5.525.424.424-.424-.424zM3.592 5.12a.79.79 0 0 0-.792.792v6.496c0 .438.355.792.792.792h6.496a.79.79 0 0 0 .792-.792V9.47a.6.6 0 1 1 1.2 0v2.94c0 1.1-.892 1.991-1.992 1.991H3.592c-1.1 0-1.992-.892-1.992-1.992V5.912c0-1.1.892-1.992 1.992-1.992h2.939a.6.6 0 0 1 0 1.2z"/>
</svg>
