<svg xmlns="http://www.w3.org/2000/svg" width="16" height="16" fill="none" viewBox="0 0 16 16">
    <path d="M13.508 2.492a.61.61 0 0 0-.866 0l-.678.678.866.866.678-.678a.61.61 0 0 0 0-.866m-1.606 2.472-.866-.866-5.58 5.58c-.28.28-.486.626-.6 1.006l-.194.655.654-.195c.38-.114.726-.32 1.007-.6zm-.188-3.4a1.925 1.925 0 0 1 2.722 2.722l-7.185 7.186a3.7 3.7 0 0 1-1.56.93l-1.817.54a.656.656 0 0 1-.817-.816L3.6 10.31c.175-.59.495-1.126.93-1.56l6.043-6.044.464.464-.464-.464zM3.179 4.85a.866.866 0 0 0-.866.866v7.105c0 .479.387.867.866.867h7.105a.866.866 0 0 0 .866-.867V9.607a.656.656 0 1 1 1.313 0v3.214A2.18 2.18 0 0 1 10.283 15H3.18A2.18 2.18 0 0 1 1 12.821V5.716c0-1.203.975-2.179 2.179-2.179h3.214a.656.656 0 0 1 0 1.313z" clip-rule="evenodd"/>
</svg>
