<svg xmlns="http://www.w3.org/2000/svg" width="16" height="16" fill="none" viewBox="0 0 16 16">
    <path d="M1 3.12C1 1.95 1.95 1 3.12 1h.893c.637 0 1.192.434 1.346 1.052l.72 2.877a1.39 1.39 0 0 1-.514 1.448l-.842.631a.1.1 0 0 0-.023.03l-.001.006a7.18 7.18 0 0 0 4.257 4.258l.005-.002a.1.1 0 0 0 .031-.023l.631-.842c.335-.447.906-.65 1.448-.514l2.877.72c.618.154 1.052.71 1.052 1.346v.893A2.12 2.12 0 0 1 12.88 15h-1.464C5.663 15 1 10.337 1 4.584zm2.12-.808a.81.81 0 0 0-.808.808v1.464a9.103 9.103 0 0 0 9.104 9.104h1.464a.81.81 0 0 0 .807-.808v-.893a.08.08 0 0 0-.057-.073l-2.878-.72a.08.08 0 0 0-.079.028l-.631.842a1.35 1.35 0 0 1-1.537.47 8.49 8.49 0 0 1-5.039-5.039 1.35 1.35 0 0 1 .47-1.537l.842-.631a.08.08 0 0 0 .028-.08l-.72-2.877a.08.08 0 0 0-.073-.058z" clip-rule="evenodd"/>
</svg>
