<svg xmlns="http://www.w3.org/2000/svg">
    <path fill-rule="evenodd" d="M1.6 3.539A1.94 1.94 0 0 1 3.54 1.6h.815c.583 0 1.09.396 1.232.961l.658 2.632a1.27 1.27 0 0 1-.47 1.323l-.77.577a.06.06 0 0 0-.021.028l-.001.005a6.56 6.56 0 0 0 3.892 3.893l.005-.001a.06.06 0 0 0 .028-.022l.577-.77a1.27 1.27 0 0 1 1.323-.47l2.632.658c.565.142.961.65.961 1.232v.816c0 1.07-.868 1.938-1.938 1.938h-1.339A9.523 9.523 0 0 1 1.6 4.877zM3.54 2.8a.74.74 0 0 0-.739.739v1.338a8.323 8.323 0 0 0 8.323 8.323h1.339c.408 0 .738-.33.738-.738v-.816a.07.07 0 0 0-.052-.068l-2.632-.657a.07.07 0 0 0-.072.025l-.577.77a1.23 1.23 0 0 1-1.406.43 7.76 7.76 0 0 1-4.606-4.607 1.23 1.23 0 0 1 .43-1.406l.769-.577a.07.07 0 0 0 .025-.072l-.657-2.631a.07.07 0 0 0-.067-.053z" clip-rule="evenodd"/>
</svg>
