<svg xmlns="http://www.w3.org/2000/svg" width="16" height="16" fill="none" viewBox="0 0 16 16">
    <path d="M8.526 1.509a1.737 1.737 0 0 1 2.457 0l3.508 3.509a1.737 1.737 0 0 1 0 2.456l-3.133 3.133c-.049.049-.098.151-.083.306.124 1.345-.271 2.478-.973 3.441-.641.881-1.83.786-2.477.137l-1.93-1.93-1.93 1.93a1.737 1.737 0 1 1-2.456-2.456l1.93-1.93-1.93-1.93C.86 7.527.765 6.34 1.646 5.698c.963-.702 2.096-1.098 3.441-.973.155.015.257-.034.306-.083zm.351 11.93c.052.051.113.07.157.069q.03-.002.041-.009a.1.1 0 0 0 .024-.021c.516-.71.78-1.488.693-2.427-.047-.507.093-1.076.513-1.497l3.134-3.133a.25.25 0 0 0 0-.35l-3.51-3.51a.25.25 0 0 0-.35 0L6.446 5.695c-.42.42-.99.56-1.496.513-.94-.088-1.719.177-2.428.693a.1.1 0 0 0-.021.024.1.1 0 0 0-.009.04c0 .045.018.106.07.158zm-4.386-2.281-1.93 1.93a.248.248 0 0 0 .351.35l1.93-1.93z" clip-rule="evenodd"/>
</svg>
