<svg xmlns="http://www.w3.org/2000/svg" width="16" height="16" fill="none" viewBox="0 0 16 16">
    <path d="M8.451 2.436a1.49 1.49 0 0 1 2.105 0l3.008 3.008a1.49 1.49 0 0 1 0 2.105l-2.686 2.686c-.042.041-.083.13-.071.262.107 1.153-.233 2.124-.834 2.95-.55.754-1.568.673-2.123.117L6.195 11.91l-1.654 1.654a1.489 1.489 0 0 1-2.105-2.105L4.09 9.805 2.436 8.15c-.556-.555-.637-1.573.117-2.123.826-.601 1.797-.94 2.95-.834.133.012.22-.03.263-.071zm.3 10.226c.045.044.097.06.135.059q.027-.001.036-.007l.02-.019c.443-.608.67-1.275.594-2.08-.04-.434.08-.922.44-1.283l2.686-2.685a.213.213 0 0 0 0-.301L9.654 3.338a.213.213 0 0 0-.3 0L6.667 6.024c-.36.36-.849.48-1.283.44-.805-.075-1.472.151-2.08.594l-.019.02a.1.1 0 0 0-.007.036c0 .038.015.09.06.134zm-3.759-1.955L3.338 12.36a.213.213 0 1 0 .301.3l1.654-1.653z" clip-rule="evenodd"/>
</svg>
