<svg xmlns="http://www.w3.org/2000/svg" width="16" height="16" fill="none" viewBox="0 0 16 16">
    <path d="M7.593 1.16a.583.583 0 0 1 .802 0 7.64 7.64 0 0 0 5.37 2.1.58.58 0 0 1 .562.4c.286.87.44 1.8.44 2.763a8.8 8.8 0 0 1-2.594 6.255 8.83 8.83 0 0 1-4.034 2.304.6.6 0 0 1-.29 0 8.83 8.83 0 0 1-4.053-2.323A8.8 8.8 0 0 1 1.22 6.423c0-.964.154-1.893.44-2.762a.58.58 0 0 1 .562-.402l.097.001a7.64 7.64 0 0 0 5.274-2.1m-2.57 11.05a7.65 7.65 0 0 0 2.97 1.603 7.65 7.65 0 0 0 2.972-1.603 3.2 3.2 0 0 0-1.042-.739c-.52-.229-1.141-.338-1.93-.338-.787 0-1.41.11-1.928.338-.378.166-.72.405-1.042.74m6.762-.83a4.4 4.4 0 0 0-1.392-.977c-.713-.314-1.507-.436-2.4-.436-.89 0-1.686.122-2.399.436-.52.23-.98.553-1.39.977a7.64 7.64 0 0 1-1.817-4.957c0-.694.091-1.365.263-2.002a8.8 8.8 0 0 0 5.344-2.057 8.8 8.8 0 0 0 5.343 2.057 7.7 7.7 0 0 1 .264 2.002 7.64 7.64 0 0 1-1.817 4.957M7.993 4.943a1.48 1.48 0 1 0 0 2.96 1.48 1.48 0 0 0 0-2.96m-2.647 1.48a2.647 2.647 0 1 1 5.294 0 2.647 2.647 0 0 1-5.294 0" clip-rule="evenodd"/>
</svg>
