<svg xmlns="http://www.w3.org/2000/svg">
    <path fill-rule="evenodd" d="M7.355.964a.6.6 0 0 1 .825 0 7.86 7.86 0 0 0 5.524 2.16.6.6 0 0 1 .578.413c.294.894.453 1.85.453 2.84a9.06 9.06 0 0 1-2.67 6.435 9.1 9.1 0 0 1-4.148 2.37.6.6 0 0 1-.3 0 9.1 9.1 0 0 1-4.167-2.39A9.06 9.06 0 0 1 .8 6.379c0-.991.159-1.947.453-2.841a.6.6 0 0 1 .578-.413h.1A7.86 7.86 0 0 0 7.355.965M4.71 12.331a7.9 7.9 0 0 0 3.056 1.648 7.9 7.9 0 0 0 3.056-1.648 3.3 3.3 0 0 0-1.071-.76c-.534-.236-1.174-.348-1.985-.348-.81 0-1.45.112-1.984.347-.388.172-.74.416-1.072.76m6.955-.855a4.5 4.5 0 0 0-1.43-1.004c-.734-.323-1.551-.45-2.469-.45s-1.734.127-2.468.45a4.5 4.5 0 0 0-1.43 1.004A7.86 7.86 0 0 1 2 6.378a8 8 0 0 1 .271-2.06 9.05 9.05 0 0 0 5.496-2.115 9.05 9.05 0 0 0 5.496 2.115 8 8 0 0 1 .272 2.06 7.86 7.86 0 0 1-1.869 5.098m-3.899-6.62a1.522 1.522 0 1 0 0 3.044 1.522 1.522 0 0 0 0-3.044M5.045 6.378a2.722 2.722 0 1 1 5.445 0 2.722 2.722 0 0 1-5.445 0" clip-rule="evenodd"/>
</svg>
