<svg xmlns="http://www.w3.org/2000/svg">
    <g clip-path="url(#a)">
        <path fill-rule="evenodd" d="M6.143 4.911A10.74 10.74 0 0 1 14.6.8a.6.6 0 0 1 .6.6c0 3.433-1.609 6.49-4.111 8.458q.049.334.05.68A4.66 4.66 0 0 1 6.476 15.2a.6.6 0 0 1-.6-.6v-2.751a10.8 10.8 0 0 1-1.726-1.726H1.4a.6.6 0 0 1-.6-.6 4.662 4.662 0 0 1 5.343-4.612m-.791 1.152a3.46 3.46 0 0 0-3.3 2.86H4.17a10.7 10.7 0 0 1 1.18-2.86m-.1 3.51q.537.639 1.175 1.176a9.5 9.5 0 0 0 3.65-1.63 9.54 9.54 0 0 0 3.903-7.1 9.54 9.54 0 0 0-7.1 3.905 9.5 9.5 0 0 0-1.628 3.65m1.825 2.257v2.118a3.46 3.46 0 0 0 2.86-3.3 10.7 10.7 0 0 1-2.86 1.182m2.954-6.276a.415.415 0 1 0 0 .83.415.415 0 0 0 0-.83m-1.616.415a1.615 1.615 0 1 1 3.231 0 1.615 1.615 0 0 1-3.23 0m-4.8 4.814a.6.6 0 0 1-.122.84 2.44 2.44 0 0 0-.984 1.868 2.44 2.44 0 0 0 1.868-.984.6.6 0 0 1 .962.718 3.64 3.64 0 0 1-3.487 1.424.6.6 0 0 1-.501-.5 3.64 3.64 0 0 1 1.424-3.488.6.6 0 0 1 .84.122" clip-rule="evenodd"/>
    </g>
    <defs>
        <clipPath id="a">
            <path fill="#fff" d="M0 0h16v16H0z"/>
        </clipPath>
    </defs>
</svg>
