<svg xmlns="http://www.w3.org/2000/svg" width="16" height="16" fill="none" viewBox="0 0 16 16">
    <path d="M6.195 4.997A10.44 10.44 0 0 1 14.417 1a.583.583 0 0 1 .583.583c0 3.337-1.564 6.31-3.997 8.223q.048.324.048.662A4.53 4.53 0 0 1 6.52 15a.583.583 0 0 1-.583-.583v-2.675a10.5 10.5 0 0 1-1.678-1.678H1.583A.583.583 0 0 1 1 9.481a4.532 4.532 0 0 1 5.195-4.484m-.77 1.12a3.37 3.37 0 0 0-3.208 2.78h2.06c.25-.99.64-1.925 1.149-2.78M5.329 9.53q.522.62 1.143 1.142a9.2 9.2 0 0 0 3.548-1.584 9.28 9.28 0 0 0 3.795-6.902A9.28 9.28 0 0 0 6.912 5.98a9.2 9.2 0 0 0-1.584 3.55m1.775 2.193v2.06a3.366 3.366 0 0 0 2.78-3.208c-.855.509-1.79.9-2.78 1.148m2.871-6.101a.404.404 0 1 0 0 .807.404.404 0 0 0 0-.807m-1.57.404a1.57 1.57 0 1 1 3.14 0 1.57 1.57 0 0 1-3.14 0m-4.667 4.68a.583.583 0 0 1-.119.816 2.37 2.37 0 0 0-.956 1.816 2.37 2.37 0 0 0 1.816-.956.583.583 0 0 1 .935.697 3.54 3.54 0 0 1-3.39 1.385.58.58 0 0 1-.487-.487 3.54 3.54 0 0 1 1.385-3.39.583.583 0 0 1 .816.118" clip-rule="evenodd"/>
</svg>
