<svg width="16" height="16" viewBox="0 0 16 16" fill="none" xmlns="http://www.w3.org/2000/svg">
<path fill-rule="evenodd" clip-rule="evenodd" d="M1.21058 1.21876C1.39955 1.02679 1.67859 0.953967 1.93727 1.02911C6.57052 2.37504 10.8731 4.49703 14.6949 7.2446C14.8865 7.38229 15 7.60374 15 7.83962C15 8.07549 14.8865 8.29695 14.695 8.43463C10.8731 11.1823 6.57057 13.3043 1.93734 14.6503C1.67867 14.7254 1.39961 14.6526 1.21065 14.4606C1.02168 14.2687 0.953269 13.9885 1.03249 13.731L2.84518 7.8398L1.03242 1.94835C0.953206 1.6909 1.02162 1.41073 1.21058 1.21876ZM4.15315 8.57262L2.841 12.8371C6.47727 11.6447 9.8871 9.95177 12.9891 7.83963C9.88708 5.72753 6.47722 4.03468 2.84094 2.84228L4.15315 7.10698L8.77263 7.10698C9.17735 7.10698 9.50545 7.43508 9.50545 7.8398C9.50545 8.24453 9.17735 8.57263 8.77262 8.57263L4.15315 8.57262Z" fill="black"/>
</svg>
