<svg xmlns="http://www.w3.org/2000/svg">
    <path d="M5.295 2.046A1.49 1.49 0 0 1 6.765.8h1.88c.73 0 1.351.527 1.47 1.246l.156.928c.006.037.038.101.128.151q.092.051.181.105c.088.053.16.049.195.036l.882-.33a1.49 1.49 0 0 1 1.814.65l.94 1.628a1.49 1.49 0 0 1-.344 1.897l-.728.599c-.029.024-.068.083-.066.185v.21c-.002.102.037.161.066.185l.728.6a1.49 1.49 0 0 1 .344 1.896l-.94 1.628a1.49 1.49 0 0 1-1.814.65l-.882-.33c-.035-.013-.107-.017-.195.036q-.09.054-.181.105c-.09.05-.122.114-.128.15l-.155.93a1.49 1.49 0 0 1-1.47 1.245H6.765a1.49 1.49 0 0 1-1.47-1.245l-.155-.93c-.006-.036-.038-.1-.128-.15l-.182-.105c-.088-.053-.16-.049-.194-.036l-.882.331a1.49 1.49 0 0 1-1.814-.65L1 10.784a1.49 1.49 0 0 1 .343-1.895l.728-.6c.03-.024.068-.083.067-.185v-.21c.001-.102-.038-.161-.067-.185l-.728-.6A1.49 1.49 0 0 1 1 5.215l.94-1.628a1.49 1.49 0 0 1 1.814-.65l.882.33c.035.013.106.017.194-.036q.09-.054.182-.105c.09-.05.122-.114.128-.15zm1.47.104a.14.14 0 0 0-.139.118l-.155.928a1.58 1.58 0 0 1-.805 1.11l-.138.08a1.58 1.58 0 0 1-1.366.144L3.28 4.2a.14.14 0 0 0-.171.06l-.94 1.63a.14.14 0 0 0 .032.178l.728.6c.396.325.567.805.558 1.252v.16a1.57 1.57 0 0 1-.558 1.252l-.728.6a.14.14 0 0 0-.032.179l.94 1.628a.14.14 0 0 0 .171.062l.882-.33c.481-.18.983-.088 1.366.143q.067.042.138.08c.39.216.721.604.805 1.11l.155.928a.14.14 0 0 0 .139.118h1.88a.14.14 0 0 0 .14-.117l.154-.93c.084-.505.415-.893.806-1.109q.07-.039.137-.08a1.58 1.58 0 0 1 1.366-.144l.882.33a.14.14 0 0 0 .172-.06l.94-1.63a.14.14 0 0 0-.033-.178l-.728-.6a1.58 1.58 0 0 1-.558-1.252v-.16a1.58 1.58 0 0 1 .558-1.252l.728-.6a.14.14 0 0 0 .033-.179l-.94-1.628a.14.14 0 0 0-.172-.062l-.882.33c-.48.18-.982.088-1.366-.143l-.137-.08a1.58 1.58 0 0 1-.806-1.11l-.155-.928a.14.14 0 0 0-.138-.118zm.94 4.35a1.5 1.5 0 1 0 0 3 1.5 1.5 0 0 0 0-3M4.855 8a2.85 2.85 0 1 1 5.7 0 2.85 2.85 0 0 1-5.7 0"/>
</svg>
