<svg xmlns="http://www.w3.org/2000/svg" width="16" height="16" fill="none" viewBox="0 0 16 16">
    <path d="M5.657 2.211A1.45 1.45 0 0 1 7.087 1h1.827a1.45 1.45 0 0 1 1.43 1.211l.15.903c.006.036.037.098.125.146q.09.05.176.102c.086.052.155.048.19.035l.857-.321a1.45 1.45 0 0 1 1.763.632l.915 1.584a1.45 1.45 0 0 1-.334 1.843l-.708.583c-.028.023-.066.08-.065.18v.204c-.001.1.037.157.065.18l.708.583c.547.45.688 1.23.334 1.843l-.915 1.584a1.45 1.45 0 0 1-1.763.632l-.858-.321c-.034-.013-.103-.017-.189.035q-.087.053-.176.102c-.088.048-.119.11-.124.146l-.151.903A1.45 1.45 0 0 1 8.914 15H7.086a1.45 1.45 0 0 1-1.43-1.211l-.15-.903c-.006-.036-.037-.098-.124-.146l-.177-.102c-.085-.052-.155-.048-.189-.035l-.857.321a1.45 1.45 0 0 1-1.764-.632l-.914-1.584a1.45 1.45 0 0 1 .334-1.843l.708-.583c.028-.023.066-.08.064-.18v-.204c.002-.1-.036-.157-.064-.18l-.708-.583a1.45 1.45 0 0 1-.334-1.843l.914-1.584a1.45 1.45 0 0 1 1.764-.632l.857.321c.034.013.104.017.19-.035q.086-.053.176-.102c.087-.048.118-.11.124-.146zm1.43.102a.14.14 0 0 0-.136.114l-.15.903a1.53 1.53 0 0 1-.784 1.079q-.068.037-.133.077c-.373.225-.86.315-1.328.14l-.858-.321a.14.14 0 0 0-.166.06l-.914 1.583a.14.14 0 0 0 .031.174l.708.583c.384.316.55.782.542 1.217v.156c.008.435-.158.9-.542 1.217l-.708.583a.14.14 0 0 0-.031.174l.914 1.584a.14.14 0 0 0 .166.06l.858-.322a1.53 1.53 0 0 1 1.328.14q.066.04.133.077c.38.21.702.588.784 1.08l.15.902a.14.14 0 0 0 .135.114h1.828a.14.14 0 0 0 .135-.114l.15-.903a1.54 1.54 0 0 1 .784-1.079q.068-.037.134-.077c.373-.225.86-.315 1.328-.14l.857.321a.14.14 0 0 0 .167-.06l.914-1.583a.14.14 0 0 0-.031-.174l-.708-.583a1.53 1.53 0 0 1-.543-1.217v-.156a1.53 1.53 0 0 1 .543-1.217l.707-.583a.14.14 0 0 0 .032-.174l-.914-1.583a.14.14 0 0 0-.166-.06l-.858.321a1.53 1.53 0 0 1-1.328-.14l-.134-.077a1.53 1.53 0 0 1-.783-1.08l-.15-.902a.14.14 0 0 0-.136-.115zM8 6.542a1.458 1.458 0 1 0 0 2.916 1.458 1.458 0 0 0 0-2.916M5.23 8a2.77 2.77 0 1 1 5.54 0 2.77 2.77 0 0 1-5.54 0" clip-rule="evenodd"/>
</svg>
