<svg xmlns="http://www.w3.org/2000/svg" width="16" height="16" fill="none" viewBox="0 0 16 16">
    <path fill="#000" d="M13.066 4.828A9.45 9.45 0 0 1 8 2.507a9.44 9.44 0 0 1-5.067 2.321q-.004.15-.004.3A9.44 9.44 0 0 0 8 13.498a9.44 9.44 0 0 0 5.067-8.669m1.505.3c0 4.222-2.392 7.883-5.888 9.705a1.48 1.48 0 0 1-1.366 0A10.94 10.94 0 0 1 1.435 4.76l.01-.135a1.48 1.48 0 0 1 1.28-1.282l.304-.045a7.95 7.95 0 0 0 3.986-1.921l.109-.089a1.48 1.48 0 0 1 1.753 0l.109.089.223.192a7.94 7.94 0 0 0 4.068 1.774c.674.086 1.195.62 1.277 1.282l.01.135z"/>
    <path d="M10.949 5.458c.353.278.415.79.137 1.144l-2.988 3.803a.815.815 0 0 1-1.171.115L5.025 8.89a.815.815 0 0 1 1.06-1.237l1.257 1.076 2.462-3.134a.815.815 0 0 1 1.144-.137" clip-rule="evenodd"/>
</svg>
