<svg xmlns="http://www.w3.org/2000/svg" width="16" height="16" fill="none" viewBox="0 0 16 16">
    <path d="M11.846 1a.75.75 0 0 1 .728.568l.166.664c.126.506.522.902 1.028 1.028l.664.166a.75.75 0 0 1 0 1.455l-.664.166a1.41 1.41 0 0 0-1.028 1.029l-.166.664a.75.75 0 0 1-1.456 0l-.165-.664a1.41 1.41 0 0 0-1.029-1.029l-.664-.166a.75.75 0 0 1 0-1.455l.664-.166a1.41 1.41 0 0 0 1.029-1.028l.165-.664A.75.75 0 0 1 11.846 1m0 2.722a3 3 0 0 1-.432.432q.24.193.432.432.194-.24.432-.432a3 3 0 0 1-.432-.432m-5.77-.799a.75.75 0 0 1 .722.544l.521 1.825a2.14 2.14 0 0 0 1.466 1.466l1.825.52a.75.75 0 0 1 0 1.443l-1.825.521A2.13 2.13 0 0 0 7.32 10.71l-.52 1.824a.75.75 0 0 1-1.443 0l-.521-1.824a2.13 2.13 0 0 0-1.467-1.467l-1.824-.52a.75.75 0 0 1 0-1.443l1.824-.521a2.13 2.13 0 0 0 1.467-1.466l.52-1.825a.75.75 0 0 1 .722-.544m0 3.317A3.64 3.64 0 0 1 4.317 8c.776.361 1.4.985 1.76 1.76A3.64 3.64 0 0 1 7.838 8a3.64 3.64 0 0 1-1.76-1.76m4.809 3.414a.75.75 0 0 1 .711.513l.253.758a.7.7 0 0 0 .438.438l.758.252a.75.75 0 0 1 0 1.423l-.758.253a.7.7 0 0 0-.438.438l-.253.758a.75.75 0 0 1-1.423 0l-.253-.758a.7.7 0 0 0-.437-.438l-.759-.253a.75.75 0 0 1 0-1.423l.759-.252a.7.7 0 0 0 .437-.438l.253-.758a.75.75 0 0 1 .712-.513m0 2.528q-.07.075-.145.145.076.069.145.145a2 2 0 0 1 .145-.145 2 2 0 0 1-.145-.145"/>
</svg>
