<svg xmlns="http://www.w3.org/2000/svg" width="16" height="16" fill="none" viewBox="0 0 16 16">
    <path d="M6.954 1.698c.387-.93 1.707-.93 2.094 0l1.365 3.283 3.544.284c1.006.08 1.413 1.336.647 1.992l-2.7 2.313.825 3.458c.234.98-.833 1.756-1.694 1.23l-3.034-1.853-3.034 1.854c-.86.525-1.928-.25-1.694-1.231l.825-3.458-2.7-2.313c-.766-.656-.358-1.911.647-1.992l3.544-.284zl.693.289zm1.047 1.39L6.888 5.763c-.163.392-.533.66-.957.694l-2.889.232 2.202 1.886c.322.276.463.71.365 1.124l-.673 2.82 2.474-1.511c.363-.222.82-.222 1.182 0l2.474 1.51-.673-2.819a1.13 1.13 0 0 1 .366-1.124L12.96 6.69l-2.89-.232a1.13 1.13 0 0 1-.956-.694z" clip-rule="evenodd"/>
</svg>
