<svg width="16" height="16" viewBox="0 0 16 16" fill="none" xmlns="http://www.w3.org/2000/svg">
<path fill-rule="evenodd" clip-rule="evenodd" d="M8.4 3.5C5.6938 3.5 3.5 5.6938 3.5 8.4C3.5 11.1062 5.6938 13.3 8.4 13.3C11.1062 13.3 13.3 11.1062 13.3 8.4C13.3 5.6938 11.1062 3.5 8.4 3.5ZM2 8.4C2 4.86538 4.86538 2 8.4 2C11.9346 2 14.8 4.86538 14.8 8.4C14.8 11.9346 11.9346 14.8 8.4 14.8C4.86538 14.8 2 11.9346 2 8.4ZM5.76667 6.86979C5.76667 6.26055 6.26055 5.76667 6.86979 5.76667H9.93021C10.5394 5.76667 11.0333 6.26055 11.0333 6.86979V9.93021C11.0333 10.5394 10.5394 11.0333 9.93021 11.0333H6.86979C6.26055 11.0333 5.76667 10.5394 5.76667 9.93021V6.86979ZM7.26667 7.26667V9.53333H9.53333V7.26667H7.26667Z" fill="black"/>
</svg>
