<svg xmlns="http://www.w3.org/2000/svg" width="16" height="16" fill="none" viewBox="0 0 16 16">
    <path d="M8 1c.362 0 .656.294.656.656v1.586a.656.656 0 0 1-1.312 0V1.656C7.344 1.294 7.638 1 8 1M3.05 3.05a.656.656 0 0 1 .928 0L5.1 4.172a.656.656 0 0 1-.928.928L3.05 3.978a.656.656 0 0 1 0-.928m9.9 0a.656.656 0 0 1 0 .928L11.828 5.1a.656.656 0 0 1-.928-.928l1.122-1.122a.656.656 0 0 1 .928 0M8 6.013a1.987 1.987 0 1 0 0 3.974 1.987 1.987 0 0 0 0-3.974M4.7 8a3.3 3.3 0 1 1 6.6 0 3.3 3.3 0 0 1-6.6 0M1 8c0-.362.294-.656.656-.656h1.586a.656.656 0 0 1 0 1.312H1.656A.656.656 0 0 1 1 8m11.102 0c0-.362.293-.656.656-.656h1.586a.656.656 0 0 1 0 1.312h-1.586A.656.656 0 0 1 12.102 8M5.1 10.9a.656.656 0 0 1 0 .928L3.978 12.95a.656.656 0 1 1-.928-.928L4.172 10.9a.656.656 0 0 1 .928 0m5.8 0a.656.656 0 0 1 .928 0l1.122 1.122a.656.656 0 1 1-.928.928L10.9 11.828a.656.656 0 0 1 0-.928M8 12.102c.362 0 .656.293.656.656v1.586a.656.656 0 0 1-1.312 0v-1.586c0-.363.294-.656.656-.656" clip-rule="evenodd"/>
</svg>
