<svg xmlns="http://www.w3.org/2000/svg">
    <path fill-rule="evenodd" d="M8 1.6a.6.6 0 0 1 .6.6v1.45a.6.6 0 0 1-1.2 0V2.2a.6.6 0 0 1 .6-.6M3.475 3.475a.6.6 0 0 1 .848 0L5.348 4.5a.6.6 0 0 1-.848.848L3.475 4.323a.6.6 0 0 1 0-.848m9.05 0a.6.6 0 0 1 0 .848L11.5 5.348a.6.6 0 0 1-.848-.848l1.025-1.025a.6.6 0 0 1 .849 0M8 6.183a1.817 1.817 0 1 0 0 3.634 1.817 1.817 0 0 0 0-3.634M4.983 8a3.017 3.017 0 1 1 6.034 0 3.017 3.017 0 0 1-6.034 0M1.6 8a.6.6 0 0 1 .6-.6h1.45a.6.6 0 0 1 0 1.2H2.2a.6.6 0 0 1-.6-.6m10.15 0a.6.6 0 0 1 .6-.6h1.45a.6.6 0 1 1 0 1.2h-1.45a.6.6 0 0 1-.6-.6m-6.402 2.652a.6.6 0 0 1 0 .848l-1.025 1.026a.6.6 0 0 1-.848-.849L4.5 10.652a.6.6 0 0 1 .848 0m5.304 0a.6.6 0 0 1 .848 0l1.026 1.025a.6.6 0 0 1-.849.849L10.652 11.5a.6.6 0 0 1 0-.848M8 11.75a.6.6 0 0 1 .6.6v1.45a.6.6 0 1 1-1.2 0v-1.45a.6.6 0 0 1 .6-.6" clip-rule="evenodd"/>
</svg>
