<svg xmlns="http://www.w3.org/2000/svg">
    <path fill-rule="evenodd" d="M5.898 3.242 7.4 5.044a3 3 0 0 1 1.2 0l1.502-1.802a5.22 5.22 0 0 0-4.204 0m5.25.619-1.4 1.68a3 3 0 0 1 .711.711l1.68-1.4a5.3 5.3 0 0 0-.99-.991m1.61 2.037L10.957 7.4c.08.396.08.805 0 1.2l1.801 1.502a5.22 5.22 0 0 0 0-4.204m-.618 5.25-1.68-1.4a3 3 0 0 1-.712.711l1.4 1.68a5.3 5.3 0 0 0 .992-.99m-2.038 1.61L8.6 10.957c-.396.08-.805.08-1.201 0l-1.502 1.801c1.335.59 2.869.59 4.204 0m-5.25-.618 1.4-1.68a3 3 0 0 1-.711-.712l-1.68 1.4a5.3 5.3 0 0 0 .99.992m-1.61-2.038L5.044 8.6a3 3 0 0 1 0-1.201L3.242 5.898a5.22 5.22 0 0 0 0 4.204m.619-5.25 1.68 1.4a3 3 0 0 1 .711-.711l-1.4-1.68a5.3 5.3 0 0 0-.991.99m.788-2.306a6.41 6.41 0 0 1 6.703 0 6.4 6.4 0 0 1 2.102 2.103 6.41 6.41 0 0 1 0 6.703 6.4 6.4 0 0 1-2.103 2.102 6.41 6.41 0 0 1-6.702 0 6.4 6.4 0 0 1-2.103-2.103 6.41 6.41 0 0 1 0-6.702A6.4 6.4 0 0 1 4.65 2.546M8.613 6.29a1.83 1.83 0 0 0-1.225 0 1.8 1.8 0 0 0-.672.427 1.8 1.8 0 0 0-.427.672c-.14.395-.14.83 0 1.225a1.83 1.83 0 0 0 1.099 1.098 1.817 1.817 0 0 0 2.323-2.323 1.8 1.8 0 0 0-.426-.672 1.8 1.8 0 0 0-.672-.427" clip-rule="evenodd"/>
</svg>
