<svg xmlns="http://www.w3.org/2000/svg" width="16" height="16" fill="none" viewBox="0 0 16 16">
    <path d="m5.701 2.796 1.642 1.97a3.3 3.3 0 0 1 1.314 0l1.642-1.97a5.7 5.7 0 0 0-4.598 0m5.743.676L9.912 5.31a3.3 3.3 0 0 1 .778.778l1.838-1.531a5.7 5.7 0 0 0-1.085-1.085m1.76 2.23-1.97 1.641c.087.433.087.88 0 1.314l1.97 1.642a5.7 5.7 0 0 0 0-4.598m-.677 5.742L10.69 9.912a3.3 3.3 0 0 1-.778.778l1.531 1.838a5.7 5.7 0 0 0 1.085-1.085m-2.228 1.76-1.642-1.97a3.3 3.3 0 0 1-1.314 0l-1.642 1.97a5.7 5.7 0 0 0 4.598 0m-5.742-.677 1.531-1.837a3.3 3.3 0 0 1-.778-.778l-1.838 1.531a5.8 5.8 0 0 0 1.085 1.085M2.796 10.3l1.97-1.642a3.3 3.3 0 0 1 0-1.314l-1.97-1.642a5.7 5.7 0 0 0 0 4.598m.676-5.742 1.838 1.53a3.3 3.3 0 0 1 .778-.778L4.557 3.472a5.8 5.8 0 0 0-1.085 1.085m.862-2.522a7.01 7.01 0 0 1 7.332 0 7 7 0 0 1 2.3 2.3 7.01 7.01 0 0 1 0 7.33 7 7 0 0 1-2.3 2.3 7.01 7.01 0 0 1-7.332 0 7 7 0 0 1-2.3-2.3 7.01 7.01 0 0 1 0-7.33 7 7 0 0 1 2.3-2.3M8.67 6.129a2 2 0 0 0-1.34 0c-.268.095-.52.25-.735.466-.216.216-.37.467-.466.735a2 2 0 0 0 0 1.34c.095.268.25.52.466.735a1.99 1.99 0 0 0 3.276-.735 2 2 0 0 0 0-1.34 2 2 0 0 0-.466-.735 2 2 0 0 0-.735-.466" clip-rule="evenodd"/>
</svg>
