<svg xmlns="http://www.w3.org/2000/svg" width="16" height="16" fill="none" viewBox="0 0 16 16">
    <path d="M8.212 2.23c0-.679.55-1.23 1.23-1.23 1.211 0 2.193.982 2.193 2.192 0 .755-.151 1.477-.425 2.135h1.68c.97 0 1.945.667 2.062 1.77Q15 7.542 15 8a8.4 8.4 0 0 1-1.864 5.292c-.41.51-1.023.747-1.613.747H8.95a3.6 3.6 0 0 1-1.15-.187l-1.996-.665a2.1 2.1 0 0 0-.675-.11h-.09c-.082.508-.485.962-1.108.962h-.582c-.843 0-1.704-.497-1.982-1.409A8.4 8.4 0 0 1 1 10.164c0-1.091.207-2.136.585-3.095.326-.827 1.137-1.261 1.927-1.261h.675c.343 0 .616.133.807.336q.147-.096.277-.26a6.55 6.55 0 0 1 2.072-1.738c.36-.192.606-.442.716-.716.1-.253.153-.522.153-.793zM3.58 7.309h-.068c-.276 0-.466.146-.531.311a6.9 6.9 0 0 0-.481 2.545c0 .707.105 1.388.301 2.029.055.178.25.346.547.346h.021a6.5 6.5 0 0 1-.446-2.375c0-1.024.236-1.993.657-2.856m1.47.424c.583-.134 1.068-.498 1.402-.923a5.05 5.05 0 0 1 1.596-1.34c.566-.3 1.124-.783 1.404-1.482.171-.43.26-.888.26-1.35v-.083a.69.69 0 0 1 .423.638c0 .625-.14 1.214-.391 1.74a1.3 1.3 0 0 0-.117.395h-.185a.75.75 0 0 0 0 1.5h3.448c.345 0 .549.222.57.429q.04.366.04.744a6.9 6.9 0 0 1-1.532 4.35.56.56 0 0 1-.445.189H8.95q-.347 0-.675-.11l-1.997-.666a3.6 3.6 0 0 0-1.149-.186h-.503a5 5 0 0 1-.202-1.413 5 5 0 0 1 .627-2.432" clip-rule="evenodd"/>
</svg>
