<svg xmlns="http://www.w3.org/2000/svg" width="16" height="16" fill="none" viewBox="0 0 16 16">
    <path d="M4.727 2.75a.56.56 0 0 0-.445.188A6.9 6.9 0 0 0 2.79 8.033c.022.206.226.429.571.429h3.416a.75.75 0 0 1 0 1.5h-.153a1.3 1.3 0 0 1-.117.394 4 4 0 0 0-.39 1.74c0 .287.174.533.422.638v-.082c0-.463.089-.92.26-1.35.28-.7.838-1.182 1.404-1.483a5.05 5.05 0 0 0 1.596-1.34c.38-.485.958-.89 1.654-.966a5 5 0 0 0 .375-1.907c0-.672-.132-1.31-.37-1.894h-.335a3.6 3.6 0 0 1-1.15-.187L7.977 2.86a2.1 2.1 0 0 0-.675-.11zm6.676-.538h-.281q-.346 0-.675-.11L8.45 1.437a3.6 3.6 0 0 0-1.149-.187H4.727c-.59 0-1.202.237-1.613.747a8.4 8.4 0 0 0-1.816 6.195c.117 1.102 1.092 1.77 2.062 1.77h1.68a5.5 5.5 0 0 0-.425 2.134c0 1.21.982 2.193 2.193 2.193.68 0 1.23-.552 1.23-1.231v-.406c0-.272.052-.541.153-.793.11-.274.356-.525.716-.716a6.5 6.5 0 0 0 2.072-1.738q.035-.045.073-.085a1.08 1.08 0 0 0 1.01.642h.676c.79 0 1.6-.435 1.927-1.262.378-.96.585-2.003.585-3.094 0-.857-.128-1.686-.366-2.467-.278-.911-1.139-1.408-1.982-1.408h-.582c-.412 0-.726.2-.917.48m1.478 1.019c.288.736.446 1.538.446 2.375a6.5 6.5 0 0 1-.657 2.856h.068c.276 0 .466-.147.531-.312.31-.787.481-1.645.481-2.544 0-.707-.105-1.388-.301-2.03-.054-.178-.25-.345-.547-.345z" clip-rule="evenodd"/>
</svg>
