<svg xmlns="http://www.w3.org/2000/svg" width="16" height="16" fill="none" viewBox="0 0 16 16">
    <path d="M13.5 4.875a.59.59 0 0 0-.589-.59H3.09a.59.59 0 0 0-.589.59v.704a2.535 2.535 0 0 1 0 4.842v.704c0 .325.264.59.589.59h9.822a.59.59 0 0 0 .589-.59v-.705a2.535 2.535 0 0 1 0-4.841zm1.5.893c0 .693-.548 1.112-1.007 1.229a1.036 1.036 0 0 0 0 2.006c.46.117 1.007.536 1.007 1.229v.893a2.09 2.09 0 0 1-2.089 2.09H3.09A2.09 2.09 0 0 1 1 11.124v-.893c0-.693.548-1.112 1.007-1.229a1.037 1.037 0 0 0 0-2.006C1.547 6.88 1 6.46 1 5.768v-.893a2.09 2.09 0 0 1 2.089-2.09h9.822A2.09 2.09 0 0 1 15 4.876z"/>
    <path d="M10.04 5.321a.67.67 0 0 0-.669.67v.893a.67.67 0 1 0 1.34 0V5.99c0-.37-.3-.67-.67-.67m-.67 3.796a.67.67 0 1 1 1.34 0v.893a.67.67 0 0 1-1.34 0z"/>
    <path d="M10.46 9.116a.42.42 0 1 0-.839 0v.893a.42.42 0 0 0 .839 0zm0-3.125a.42.42 0 1 0-.839 0v.893a.42.42 0 0 0 .839 0zm.5 4.018a.92.92 0 1 1-1.839 0v-.893a.92.92 0 0 1 1.839 0zm0-3.125a.92.92 0 1 1-1.839 0V5.99a.92.92 0 0 1 1.839 0z"/>
</svg>
