<svg xmlns="http://www.w3.org/2000/svg" width="16" height="16" fill="none" viewBox="0 0 16 16">
    <path fill="#000" fill-rule="evenodd" d="M2.458 1.224C2.159.925 1.674.925 1.375 1.224 1.076 1.524 1.076 2.009 1.375 2.308L5.066 5.999 5.063 6 6.018 6.955 6.02 6.953 9.41 10.343 9.408 10.345 10.364 11.3 10.364 11.297 13.542 14.475C13.841 14.774 14.326 14.774 14.626 14.475 14.925 14.176 14.925 13.691 14.626 13.392L11.41 10.176 13.176 8.41C13.77 7.817 13.77 6.854 13.176 6.26L10.104 3.188C9.51 2.594 8.547 2.594 7.953 3.188L6.187 4.954 2.458 1.224ZM10.488 9.255 7.109 5.875 8.875 4.109C8.96 4.025 9.097 4.025 9.182 4.109L12.254 7.182C12.339 7.266 12.339 7.404 12.254 7.489L10.488 9.255ZM10.142 13.246 9.06 12.163C9.001 12.719 8.788 13.21 8.454 13.667 8.446 13.679 8.439 13.684 8.434 13.686 8.427 13.689 8.416 13.693 8.398 13.694 8.359 13.694 8.305 13.678 8.26 13.633L2.731 8.103C2.686 8.058 2.669 8.005 2.67 7.966 2.67 7.948 2.674 7.936 2.678 7.93 2.68 7.925 2.684 7.918 2.696 7.909 3.154 7.576 3.644 7.363 4.2 7.304L3.117 6.221C2.691 6.372 2.296 6.588 1.929 6.856 1.158 7.417 1.241 8.457 1.809 9.025L3.499 10.715 1.809 12.404C1.215 12.998 1.215 13.961 1.809 14.555 2.403 15.149 3.366 15.149 3.959 14.555L5.649 12.865 7.339 14.555C7.906 15.122 8.946 15.206 9.508 14.435 9.775 14.068 9.992 13.673 10.142 13.246ZM2.731 13.326 4.42 11.636 4.727 11.943 3.038 13.633C2.953 13.718 2.815 13.718 2.731 13.633 2.646 13.548 2.646 13.411 2.731 13.326Z" clip-rule="evenodd"/>
</svg>
