<svg xmlns="http://www.w3.org/2000/svg" width="16" height="16" fill="none" viewBox="0 0 16 16">
    <path d="M2.458 1.224a.766.766 0 1 0-1.083 1.084l3.691 3.691L5.063 6l.955.955.002-.002 3.39 3.39-.002.002.956.955v-.003l3.178 3.178a.766.766 0 1 0 1.084-1.083l-3.216-3.216 1.766-1.766a1.52 1.52 0 0 0 0-2.15l-3.072-3.072a1.52 1.52 0 0 0-2.15 0L6.186 4.954zm8.03 8.03L7.11 5.876 8.875 4.11a.217.217 0 0 1 .307 0l3.072 3.073a.217.217 0 0 1 0 .307zm-.346 3.992L9.06 12.163c-.059.556-.272 1.047-.606 1.504l-.02.019a.1.1 0 0 1-.036.008.2.2 0 0 1-.138-.061l-5.53-5.53a.2.2 0 0 1-.06-.137q.001-.027.008-.036l.018-.02c.458-.334.948-.547 1.504-.606L3.117 6.221a4.6 4.6 0 0 0-1.188.635c-.771.561-.688 1.601-.12 2.169l1.69 1.69-1.69 1.69a1.52 1.52 0 0 0 2.15 2.15l1.69-1.69 1.69 1.69c.567.567 1.607.65 2.169-.12.267-.367.484-.763.634-1.189m-7.411.08 1.69-1.69.306.307-1.69 1.69a.217.217 0 0 1-.306-.307" clip-rule="evenodd"/>
</svg>
