<svg xmlns="http://www.w3.org/2000/svg" width="16" height="16" fill="none" viewBox="0 0 16 16">
    <path d="M2.574 1.367a.75.75 0 0 0-1.06 1.06l3.614 3.614-.004.001.935.935.003-.002 3.318 3.319-.002.002.935.935.001-.003 3.111 3.111a.75.75 0 1 0 1.061-1.06l-3.148-3.149 1.729-1.728a1.49 1.49 0 0 0 0-2.106L10.059 3.29a1.49 1.49 0 0 0-2.105 0L6.225 5.017zm7.862 7.861L7.127 5.92l1.729-1.73a.213.213 0 0 1 .3 0l3.009 3.01a.213.213 0 0 1 0 .3zm-.339 3.908-1.06-1.06c-.057.544-.266 1.024-.593 1.472l-.02.018a.1.1 0 0 1-.035.008.2.2 0 0 1-.135-.06L2.841 8.102a.2.2 0 0 1-.06-.135q.002-.026.008-.035l.018-.02c.448-.326.929-.535 1.473-.593l-1.06-1.06c-.418.148-.805.36-1.164.622-.755.55-.673 1.567-.117 2.123l1.654 1.654-1.654 1.655a1.489 1.489 0 0 0 2.105 2.105l1.654-1.654 1.654 1.654c.556.555 1.574.637 2.124-.118a4.5 4.5 0 0 0 .62-1.163m-7.256.078 1.654-1.654.3.3-1.653 1.655a.213.213 0 0 1-.301-.301"/>
</svg>
