<svg xmlns="http://www.w3.org/2000/svg" width="16" height="16" fill="none" viewBox="0 0 16 16">
    <path fill="#727683" d="M10.734 7.605v.789l1.881 1.634V5.971zM14 10.69c0 .524-.37.857-.71.979a1.14 1.14 0 0 1-1.133-.206l-1.43-1.24c-.054 1.004-.975 1.661-1.91 1.661h-4.9c-.964 0-1.917-.698-1.917-1.757V5.872c0-1.058.953-1.756 1.917-1.756h4.9l.18.008c.87.078 1.679.713 1.73 1.652l1.43-1.24.134-.1c.321-.205.7-.213.999-.106.34.123.71.456.71.98zm-10.615-.563c0 .069.03.152.12.23a.63.63 0 0 0 .412.143h4.9c.177 0 .32-.063.412-.143.09-.078.12-.161.12-.23V5.872c0-.069-.03-.152-.12-.23a.6.6 0 0 0-.286-.13L8.817 5.5h-4.9a.63.63 0 0 0-.412.142c-.09.078-.12.161-.12.23z"/>
</svg>
