<svg xmlns="http://www.w3.org/2000/svg">
    <path d="M11.606 2.372c.18.005.254.233.111.343l-1.08.828a.19.19 0 0 0-.068.207l.388 1.305a.191.191 0 0 1-.291.212l-1.122-.772a.19.19 0 0 0-.217 0l-1.122.772a.191.191 0 0 1-.292-.212l.389-1.305a.19.19 0 0 0-.067-.207l-1.081-.828a.191.191 0 0 1 .11-.343l1.365-.039a.19.19 0 0 0 .174-.127L9.255.928c.06-.17.3-.17.36 0l.452 1.278a.19.19 0 0 0 .175.127zm2.225 4.406c.18.005.255.234.111.343l-.507.387a.19.19 0 0 0-.067.207l.183.616a.191.191 0 0 1-.291.212l-.53-.364a.19.19 0 0 0-.216 0l-.529.364a.191.191 0 0 1-.291-.212l.183-.616a.19.19 0 0 0-.067-.207l-.507-.387a.191.191 0 0 1 .11-.343l.638-.015a.19.19 0 0 0 .176-.128l.215-.609c.06-.17.3-.17.36 0l.216.61a.19.19 0 0 0 .176.127z"/>
    <path fill-rule="evenodd" d="M6.293 2.564a.56.56 0 0 1 .12.612 5.512 5.512 0 0 0 7.21 7.21.56.56 0 0 1 .734.734A6.635 6.635 0 0 1 1.6 8.567a6.635 6.635 0 0 1 4.08-6.124.56.56 0 0 1 .613.121m-1.32 1.557a5.512 5.512 0 1 0 7.705 7.705 6.633 6.633 0 0 1-7.705-7.705" clip-rule="evenodd"/>
</svg>
