<svg xmlns="http://www.w3.org/2000/svg" width="16" height="16" fill="none" viewBox="0 0 16 16">
    <path d="M11.506 2.528a.186.186 0 0 1 .108.333l-1.051.806a.19.19 0 0 0-.065.2l.377 1.27a.186.186 0 0 1-.283.206L9.5 4.593a.19.19 0 0 0-.21 0l-1.092.75a.186.186 0 0 1-.283-.206l.377-1.27a.19.19 0 0 0-.065-.2l-1.05-.806a.186.186 0 0 1 .107-.333l1.326-.037a.19.19 0 0 0 .17-.124l.44-1.243a.186.186 0 0 1 .35 0l.439 1.243a.19.19 0 0 0 .17.124zm2.163 4.284a.186.186 0 0 1 .108.334l-.493.376a.19.19 0 0 0-.066.2l.179.6a.186.186 0 0 1-.284.206l-.514-.354a.19.19 0 0 0-.21 0l-.514.354a.186.186 0 0 1-.284-.206l.178-.6a.19.19 0 0 0-.065-.2l-.493-.376a.186.186 0 0 1 .108-.334l.62-.015a.19.19 0 0 0 .17-.124l.21-.592a.186.186 0 0 1 .35 0l.21.592a.19.19 0 0 0 .17.124z"/>
    <path d="M6.34 2.715a.545.545 0 0 1 .118.595 5.359 5.359 0 0 0 7.01 7.01.545.545 0 0 1 .712.713A6.45 6.45 0 0 1 1.778 8.551a6.45 6.45 0 0 1 3.967-5.953.545.545 0 0 1 .595.117M5.058 4.23a5.359 5.359 0 1 0 7.49 7.49 6.45 6.45 0 0 1-7.49-7.49" clip-rule="evenodd"/>
</svg>
