<svg xmlns="http://www.w3.org/2000/svg" width="550" height="550" fill="none" viewBox="0 0 550 550">
    <path fill="#fff" d="M442.137 270.798c-.049-.189-.186-.323-.348-.414l-.013-.013c-.005-.003-.012-.001-.018-.004-.039-.02-.069-.054-.112-.066l-11.658-6.251 11.745-6.692a.7.7 0 0 0 .353-.609v-56.993c.01-.049.038-.092.038-.142a.7.7 0 0 0-.371-.609l-11.792-6.298 11.808-6.702a.7.7 0 0 0 .355-.609v-57.127l-.002-.004.002-.005c-.001-.042-.026-.077-.034-.117-.016-.08-.026-.16-.066-.229-.025-.042-.07-.067-.103-.103-.047-.051-.084-.111-.145-.147l-.013-.003-.01-.009-11.786-6.295 11.802-6.705a.7.7 0 0 0 .355-.609V56.916l-.002-.004.002-.005c-.001-.041-.026-.076-.034-.116-.015-.08-.025-.16-.066-.23-.024-.04-.067-.064-.098-.099-.048-.053-.087-.114-.15-.15q-.006-.003-.014-.004l-.009-.009-48.95-26.217a.7.7 0 0 0-.676.009l-47.886 27.17q-.004.002-.006.006-.005 0-.008.002c-.079.047-.133.12-.187.191-.018.024-.047.038-.061.063a.7.7 0 0 0-.093.346v42.388l-10.189-5.458a.7.7 0 0 0-.677.008l-47.85 27.17-.006.007q-.004 0-.007.002c-.079.047-.133.12-.187.191-.018.024-.047.037-.062.063a.7.7 0 0 0-.092.346v46.055l-9.126-4.908a.7.7 0 0 0-.676.007l-9.771 5.532v-35.136l-.001-.005.001-.004c-.001-.036-.023-.065-.029-.1-.014-.086-.027-.172-.07-.246-.026-.043-.071-.069-.106-.106-.046-.05-.082-.109-.143-.144l-.012-.003-.009-.009-48.913-26.217a.7.7 0 0 0-.676.008l-47.887 27.17-.006.006-.008.003a.7.7 0 0 0-.199.203c-.014.019-.038.03-.049.05a.7.7 0 0 0-.093.347v57.127c0 .257.142.494.368.616l11.754 6.329-4.382 2.481-16.866-9.052a.7.7 0 0 0-.677.008l-47.886 27.207-.005.005-.008.003a.7.7 0 0 0-.206.21c-.012.017-.032.026-.042.044a.7.7 0 0 0-.093.346v57.126a.7.7 0 0 0 .37.617l11.749 6.298-11.765 6.704q-.004.002-.006.006l-.007.002a.7.7 0 0 0-.202.206c-.013.018-.035.028-.047.048a.7.7 0 0 0-.092.346v57.127c0 .258.142.495.37.618l11.745 6.295-11.76 6.667-.007.007-.007.002a.7.7 0 0 0-.192.196c-.016.022-.043.034-.056.058a.7.7 0 0 0-.093.347v57.126a.7.7 0 0 0 .368.616l11.755 6.33-11.768 6.672-.007.007q-.004 0-.007.002a.7.7 0 0 0-.192.196c-.016.022-.043.034-.056.057a.7.7 0 0 0-.093.347v57.127a.7.7 0 0 0 .369.617l48.913 26.253a.71.71 0 0 0 .677-.008l47.887-27.207a.7.7 0 0 0 .354-.609v-57.127l-.001-.005.001-.003c-.001-.031-.021-.056-.025-.086a.7.7 0 0 0-.075-.261c-.021-.036-.059-.056-.086-.087-.05-.059-.094-.123-.162-.163l-.014-.004-.007-.007-11.746-6.291 4.384-2.487 16.834 9.009.002.001.021.011a.7.7 0 0 0 .281.071c.017.001.032.013.049.013.119 0 .238-.03.345-.091l9.772-5.543v35.147a.7.7 0 0 0 .37.617l48.898 26.21c.012.008.018.023.03.03a.7.7 0 0 0 .698.004l47.886-27.17a.7.7 0 0 0 .354-.608v-12.365c11.671 3.978 20.34 4.046 20.457 4.046a.7.7 0 0 0 .547-.263c30.223-37.782 49.651-73.976 62.143-105.424l33.613-19.071a.7.7 0 0 0 .355-.609v-56.929a.7.7 0 0 0 .013-.376m-180.145 85.286.057.523q.16 1.36.334 2.693l.135.993a189 189 0 0 0 .829 5.499q.368 2.2.779 4.329c.052.267.101.539.154.804q.231 1.165.475 2.308.136.629.275 1.251a157 157 0 0 0 1.785 7.244 142 142 0 0 0 1.113 3.86q.311 1.023.634 2.024.314.98.639 1.94.34 1.01.692 1.997c.145.405.288.813.435 1.213a125 125 0 0 0 2.628 6.566c.066.151.134.297.2.448q.61 1.383 1.241 2.719.098.211.198.421.712 1.492 1.45 2.925l.139.267c6.405 12.372 14.197 21.524 22.234 28.291l-12.144-6.857c-.533-.271-1.04-.555-1.557-.834-.016-.01-.024-.029-.041-.038-1.285-.694-2.557-1.446-4.07-2.362l-.001-.001a82.4 82.4 0 0 1-14.139-11.071q-.303-.298-.602-.599a88 88 0 0 1-2.117-2.195c-.245-.264-.496-.52-.738-.787q-.009-.008-.019-.014a86 86 0 0 1-2.415-2.782q-.416-.501-.824-1.01a85 85 0 0 1-1.775-2.266c-.203-.268-.411-.531-.612-.802a92 92 0 0 1-2.727-3.908 96 96 0 0 1-1.942-3.043l-.129-.207c-14.413-23.798-18.761-53.942-18.845-81.338l-.001-.481q-.004-2.03.023-4.038.04-2.588.125-5.221.028-.83.06-1.654.11-2.8.274-5.651l26.902 15.108c-.018.307-.028.601-.045.907q-.12 2.13-.209 4.218c-.026.617-.055 1.238-.078 1.849a302 302 0 0 0-.168 6.765q-.02 1.537-.023 3.048a285 285 0 0 0 .046 5.719 244 244 0 0 0 .106 3.898c.025.717.048 1.436.079 2.144q.061 1.385.137 2.747c.028.502.06.998.091 1.496a221 221 0 0 0 .435 5.824q.23 2.604.517 5.121m-2.809 53.091 2.889 1.541c.156.17.324.332.481.501a86 86 0 0 0 2.881 2.965c4.425 4.344 9.258 8.156 14.43 11.351l.002.001c.997.62 2 1.208 3.017 1.778l-6.47 3.685-28.639-15.351 10.702-6.071zm-65.878 16.801-.02.005-33.972 19.28v-55.516l.135-.076 8.64-4.894.001-.001 37.473-21.271.238-.135v6.568l-.001.003v48.946l-6.18 3.509zm70.538-290.637v55.517l-46.487 26.409V161.75l46.059-26.168zm42.22-.931 27.667 14.85v55.537l-6.895-3.709-1.862-1.001v-9.482l-.001-.004.001-.004c0-.043-.026-.078-.034-.119-.015-.078-.024-.158-.063-.226l-.004-.008c-.024-.04-.069-.062-.101-.097-.047-.051-.084-.111-.146-.147l-.012-.003-.009-.008-38.388-20.593v-45.638zm64.279-5.163 10.007-5.689 1.267-.72v55.516l-46.242 26.273-.244.138v-55.517l2.5-1.42zm49.362 83.089 1.316.738 6.106 3.438-81.251 16.658-26.409-14.866 6.197-1.27 1.279-.26h.001l23.246-4.767h.002l2.45-.504 38.121-7.816 2.912-.589.002-.001h.001l7.042-1.451 18.979 10.684zM159.313 318.391l.97-.55 7.805-4.419.001-.001 33.582-19.063 4.129-2.343v6.568l-.001.004v48.945l-1.441.818-5.126 2.908c-.038.014-.081.011-.117.032l-5.829 3.3c-.038.021-.056.06-.089.087l-33.884 19.231zm47.887 43.775v-.073a.7.7 0 0 0-.369-.618l-11.713-6.273 4.349-2.468 16.759 8.969c.029.024.045.059.078.078a.69.69 0 0 0 .697.005l18.332-10.375c.722 4.074 1.5 7.749 2.367 11.181l-21.053 11.937-9.447-5.081zm-.354-13.618a.7.7 0 0 0 .354-.609v-48.184l8.756 4.678v55.535L200.94 351.9l4.326-2.456zm27.897-52.667 3.655-3.381c.022-.02.032-.045.05-.067l15.657-14.556 4.352-4.041.001-.003.663-.62 56.518-52.545 1.953-1.815 26.989 15.193-82.876 77.012zm24.456-29.421 1.761.946 1.475.792-4.199 3.926-.37.344-4.746-2.539zm121.497-71.749.92-.522v9.924l-27.374 5.629zm-46.599 11.872c.013.007.028.004.041.01a.7.7 0 0 0 .292.073l.004-.001a.7.7 0 0 0 .308-.081c.011-.006.023-.003.034-.009l.012-.007.002-.001.001-.001 26.982-15.33 7.682-4.344 9.828 5.264 1.584.848-24.086 13.674h-.001l-6.619 3.772-.358.204-22.896 4.693-1.934-1.037v-12.635l4.347 2.338zm-10.524-14.777v24.223l-4.705.967-1.519.311c-.025.005-.047.018-.071.026-.036.012-.071.022-.105.039a1 1 0 0 0-.093.063c-.022.016-.047.026-.068.045l-5.11 4.751-34.816 32.362v-36.412l41.9-23.773zm-116.727 85.389a.7.7 0 0 0 .354-.608v-48.183l8.756 4.711v55.536l-15.049-8.086 2.562-1.454zm-7.377 4.188 16.836 9.045.02.011c.032.018.069.013.102.025.056.02.111.038.169.043.021.002.039.016.06.016l.006-.001a.7.7 0 0 0 .34-.091l34.681-19.683.596.319 4.503 2.409-3.3 3.068-15.975 14.837-20.861 11.834-9.446-5.048v-7.354l-.001-.004.001-.004c0-.048-.028-.087-.038-.133-.015-.072-.022-.148-.059-.212l-.003-.007c-.03-.05-.084-.081-.126-.122s-.071-.092-.122-.122l-.009-.003c-.005-.002-.007-.008-.011-.01l-11.75-6.326 2.953-1.676zm35.577 68.471-7.918 4.479a.7.7 0 0 0-.223.201l-9.549 5.404v-55.48l15.648-8.87c-.012.014-.016.033-.026.048l-.014.026-.021.038a.68.68 0 0 0-.115.439c.002.022.017.038.021.059-.128 2.136-.23 4.311-.314 6.507q-.028.658-.053 1.313-.087 2.578-.127 5.201a257 257 0 0 0-.035 3.712v.385c-.034 13.15.864 25.397 2.726 36.538m185.018-138.946-11.135-6.264 19.597-11.116 11.427 6.103zm-29.635-8.583-7.413 1.501v-10.84l-.001-.004.001-.005c-.001-.042-.026-.078-.034-.119-.015-.078-.024-.158-.064-.225l-.003-.008c-.025-.042-.072-.065-.105-.101-.046-.049-.082-.108-.143-.143l-.012-.003-.009-.009-11.753-6.296 11.77-6.706a.7.7 0 0 0 .353-.608v-28.126l9.819 5.263v45.935zm-114.743 15.867v37.702l-12.169 11.296-2.88-1.548 4.252-2.418a.7.7 0 0 0 .207-.204c.014-.02.04-.031.052-.052a.7.7 0 0 0 .095-.352v-50.017l2.98 1.596zm-11.843-11.5v55.517l-46.487 26.41v-55.516l24.162-13.727zm-95.755 35.376 37.712-21.406v6.567l-.001.003v48.948l-5.988 3.398-1.689.958-4.835 2.738h-.002l-33.972 19.281v-55.518l.537-.304zM427.64 277.99a305 305 0 0 0 1.716-12.691l10.618 5.694zm1.973-15.338c.029-.281.054-.553.082-.832l.035-.356c2.517-25.446.482-41.8.119-44.386l-.001-.004-.037-.258-.001-.005-.016-.104c-.001-.008-.007-.015-.008-.023a.7.7 0 0 0-.208-.371q-.011-.017-.024-.031a.7.7 0 0 0-.145-.109l-7.811-4.382-.108-.061 19.196-10.885v55.498zm11.11-77.663-32.769 18.598-.45.256-6.278-3.519-.049-.028-.002-.001-.003-.001a.7.7 0 0 0-.3-.078c-.014-.001-.025-.01-.039-.01a.7.7 0 0 0-.141.015l-.199.04-6.257 1.283v-45.66l46.487-26.412zm-12.196-62.813 11.446 6.112-46.447 26.389-10.51-5.634v-12.637l10.189 5.461a.7.7 0 0 0 .331.083l.003-.001a.7.7 0 0 0 .342-.091zm12.196-8.54-44.358 25.201-2.129 1.21V84.53l46.487-26.411zm-48.24-82.137 47.491 25.435-46.448 26.39-29.723-15.942-17.767-9.53zm-47.196 27.54 47.548 25.503v55.538l-1.118-.599-8.701-4.664v-13.185l-.001-.004.001-.004c0-.038-.024-.069-.03-.105-.015-.084-.026-.169-.068-.241l-.003-.006c-.021-.035-.061-.054-.088-.085-.05-.057-.092-.121-.16-.16q-.007-.001-.013-.004l-.008-.007-37.359-20.009zm-11.912 37.177 10.873 5.823.008.008 36.61 19.604-1.553.882-35.072 19.904-.001.001-9.82 5.601-47.133-25.297-.323-.173zm-58.007 68.933 9.789 5.254c.011.007.016.021.028.027l37.639 20.19-46.448 26.353-8.478-4.541-2.655-1.422v-5.521l-.001-.005.001-.004c-.001-.036-.023-.065-.029-.1-.014-.085-.026-.171-.069-.244l-.003-.008c-.025-.042-.071-.065-.104-.1-.046-.05-.082-.109-.143-.144l-.012-.003-.009-.009-11.753-6.295 11.769-6.705a.7.7 0 0 0 .353-.609v-20.381zm-59.728-56.43 47.455 25.435-46.449 26.389-47.455-25.471zm-47.197 27.541 47.513 25.502v55.537l-15.769-8.453-19.242-10.316-12.502-6.732zm12.18 63.686 35.703 19.14a.7.7 0 0 0 .33.083l.005-.001a.7.7 0 0 0 .341-.091l34.68-19.682 11.412 6.112-3.047 1.731-43.401 24.658-.095-.052-9.351-5.03v-7.355l-.001-.005.001-.003c-.001-.035-.023-.064-.028-.098-.014-.086-.026-.173-.07-.247l-.003-.008c-.025-.041-.07-.064-.103-.099-.046-.05-.083-.109-.144-.145l-.012-.003-.009-.008-30.589-16.418zm-23.028-5.94 16.835 9.036c.009.005.013.016.022.021l30.599 16.414-41.821 23.728-4.626 2.625-47.456-25.435zM110.4 221.583l47.513 25.465v55.539l-4.073-2.184-30.939-16.588c-.005-.003-.012-.001-.017-.004L110.4 277.12zm47.883 82.791a.7.7 0 0 0 .33.083l.005-.001a.7.7 0 0 0 .34-.09l34.686-19.68 11.409 6.143-46.449 26.354-26.825-14.377-20.632-11.058 11.429-6.513zM110.4 292.936l21.497 11.521 26.016 13.945v55.537l-3.86-2.068-31.152-16.702-.019-.005-12.482-6.69zm47.883 82.79a.7.7 0 0 0 .33.083l.005-.001a.7.7 0 0 0 .34-.089l34.686-19.681 11.409 6.144-46.449 26.355-47.454-25.471 11.425-6.478zM110.4 364.254l47.513 25.502v55.538l-35.012-18.772-12.501-6.731zm0 71.353 47.513 25.501v55.538L110.4 491.144zm48.913 81.006v-55.517l15.362-8.727 31.125-17.683v55.516zm45.738-83.112-15.202 8.637-31.245 17.751-47.454-25.47 11.43-6.48 35.703 19.142a.7.7 0 0 0 .33.083l.004-.001a.7.7 0 0 0 .342-.091l34.686-19.68zm1.795-13.599a.7.7 0 0 0 .354-.608v-48.186l8.756 4.678v55.537l-15.047-8.052zm10.51-44.128 20.703-11.74c2.693 10.365 6.35 19.769 10.917 28.147l.041.076a103 103 0 0 0 2.153 3.764c.082.137.169.272.252.408a99 99 0 0 0 1.823 2.878q.325.5.657.994a93 93 0 0 0 2.038 2.904c.275.377.56.746.841 1.118q.787 1.042 1.599 2.056c.284.355.563.713.853 1.064l.041.051-.464.262c-.02.011-.029.034-.047.047l-1.386.786-11.373 6.447c-.022.01-.046.007-.067.019l-12.738 7.25-15.843 8.987zm58.33 111.981-47.513-25.468v-35.511l5.913-3.365 12.228-6.937 29.372 15.778zm47.923-26.373-46.485 26.375V432.24l7.209-4.105c.27.156.548.299.831.444l26.144 14.745a1 1 0 0 0 .117.083 81 81 0 0 0 12.184 5.565zm21.526-9.32c-2.351-.075-16.853-.902-32.944-9.851-.038-.033-.069-.072-.114-.098l-.66-.373c-11.41-6.513-23.523-17.087-32.905-34.243l-.07-.129q-.426-.783-.846-1.586l-.207-.4q-.351-.678-.696-1.369l-.329-.668q-.279-.568-.555-1.145-.225-.476-.449-.959-.21-.449-.417-.904-.28-.621-.557-1.251l-.292-.668q-.33-.765-.653-1.545l-.176-.424q-.374-.914-.739-1.847l-.069-.176c-7.705-19.813-12.072-46.416-9.945-82.135l83.581-77.738 82.421-16.898.002.016c.458 3.478 2.167 19.038-.102 42.861l-.022.234c-.074.775-.156 1.563-.238 2.354l-.043.414a.69.69 0 0 0-.295.569.7.7 0 0 0 .185.425 284 284 0 0 1-2.038 14.869 297 297 0 0 1-1.446 8.132c-.048.249-.101.507-.15.758a292 292 0 0 1-.623 3.121c-.143.692-.295 1.397-.445 2.101q-.18.852-.365 1.704-.352 1.605-.732 3.248l-.113.494c-9.077 39.011-29.83 94.109-76.954 153.107m63.928-106.403c6.017-15.474 10.834-31.027 14.406-46.456l.131-.575q.364-1.58.711-3.16c.149-.679.288-1.342.43-2.01.123-.582.249-1.163.369-1.744q.357-1.735.683-3.421l.08-.404c.029-.15.062-.306.09-.456a296 296 0 0 0 1.355-7.631l13.405-7.603v55.497z"/>
    <path fill="#fff" d="M270.154 332.799c.118 0 .236-.03.342-.09l151.36-85.066a.7.7 0 0 0 .319-.833c-.014-11.262-1.06-17.721-1.071-17.785a.7.7 0 0 0-.832-.572l-6.014 1.247c-.064.013-.12.043-.176.072l-68.426 14.044a.7.7 0 0 0-.336.173l-74.975 69.708a.7.7 0 0 0-.45.609 206 206 0 0 0-.441 11.438v.024l-.001.016a178 178 0 0 0 .001 6.327.7.7 0 0 0 .7.688m.693-6.594 144.223-81.058 4.826 1.991-149.059 83.774c-.018-1.553-.014-3.106.01-4.707m148.981-96.23c.256 1.898.895 7.472.945 15.995l-5.088-2.098c-.014-5.832-.282-10.159-.53-12.928zm-73.698 15.173 67.636-13.882c.219 2.722.468 6.639.511 11.652.003.341.006.678.006 1.03L270.87 324.55a208 208 0 0 1 .399-9.8zm44.79 122.825-10.89 6.123c-.01.005-.014.018-.024.025-.047.024-.103.031-.143.068l-80.353 45.154a.696.696 0 0 0-.145 1.112 75.3 75.3 0 0 0 15.589 11.626 89 89 0 0 0 4.647 2.392l.123.042c13.993 6.521 25.662 6.598 25.779 6.598a.7.7 0 0 0 .273-.061q.036-.018.069-.04a.7.7 0 0 0 .166-.132c.012-.012.028-.017.039-.03 18.447-23.085 33.871-47.296 45.843-71.961a.7.7 0 0 0-.973-.916M301.019 420.1l77.581-43.594c-10.949 20.666-24.383 41.017-39.954 60.521-1.683-.057-9.1-.496-18.538-3.873-.013-.004-.027-.002-.04-.006a90 90 0 0 1-4.435-2.292 73.8 73.8 0 0 1-14.614-10.756m37.852 18.335 2.221.916a67 67 0 0 1-7.2-1.342c2.776.375 4.559.422 4.979.426m6.413 1.13-.139-.057-5.003-2.063c16.008-20.068 29.717-41.001 40.756-62.231l8.747-4.918c-11.711 23.727-26.626 47.018-44.361 69.269m75.666-184.196-6.657 3.738a.7.7 0 0 0-.193.075l-.007.001-.005.003-.008.005-144.087 80.988a.7.7 0 0 0-.357.642c1.339 28.813 8.329 52.104 20.772 69.236.018.039.018.083.044.119a88 88 0 0 0 3.476 4.434.7.7 0 0 0 .878.16l102.3-57.494.016-.012q.041-.027.078-.06.04-.03.076-.065.03-.036.054-.074.033-.044.058-.091l.017-.027c18.603-42.478 23.639-78.337 24.587-100.938a.698.698 0 0 0-1.042-.64m-7.31 5.675-.03.393-.07.868-.104 1.222-.074.826a275 275 0 0 1-.204 2.129q-.07.705-.146 1.424l-.083.769q-.082.75-.17 1.512l-.09.765q-.094.788-.194 1.592l-.095.744q-.106.827-.22 1.668l-.101.744q-.119.857-.245 1.731l-.109.746q-.132.89-.272 1.794l-.116.742a272 272 0 0 1-1.242 7.22l-.144.77a234 234 0 0 1-.388 2.008l-.151.77a298 298 0 0 1-1.028 4.915l-.18.825q-.232 1.043-.475 2.102l-.195.848q-.246 1.057-.504 2.128l-.211.874q-.26 1.07-.535 2.153l-.227.9q-.278 1.084-.567 2.179-.12.461-.243.924-.29 1.087-.595 2.185l-.266.971q-.308 1.1-.629 2.212-.139.49-.281.982-.324 1.11-.662 2.232-.15.507-.303 1.017-.34 1.117-.693 2.245c-.109.348-.214.694-.324 1.043a276 276 0 0 1-.723 2.247c-.118.364-.232.725-.352 1.091-.246.75-.501 1.506-.756 2.263-.125.37-.246.738-.373 1.11-.259.76-.528 1.527-.796 2.293-.131.375-.258.747-.391 1.124-.28.789-.57 1.586-.859 2.382-.13.357-.255.711-.386 1.069-.31.841-.629 1.689-.949 2.537-.121.32-.237.636-.359.957a306 306 0 0 1-1.134 2.926l-.235.605a318 318 0 0 1-1.427 3.554c-.181.443-.371.89-.555 1.334-.31.75-.617 1.498-.936 2.252-.233.551-.476 1.107-.713 1.661-.268.624-.533 1.247-.807 1.874l-98.469 55.349c-12.041-16.785-18.834-39.54-20.199-67.656zm-119.013 152.22a85 85 0 0 1-2.564-3.269l98.257-55.229 4.841 1.997zm101.769-57.507-5.196-2.143c.188-.432.367-.86.552-1.291.302-.702.605-1.405.9-2.103.211-.503.416-1.001.624-1.502.296-.712.593-1.424.882-2.132.193-.475.38-.946.57-1.42.291-.725.585-1.452.868-2.173.175-.445.343-.885.515-1.328.29-.746.581-1.493.862-2.234.151-.397.295-.79.443-1.185.293-.782.587-1.564.871-2.339.124-.34.243-.676.366-1.015.298-.824.597-1.649.885-2.467.098-.276.19-.549.287-.825q.46-1.315.905-2.617l.186-.558q.485-1.432.949-2.849l.047-.145c6.505-19.944 10.007-37.59 11.843-51.85l.028-.216c.086-.669.166-1.326.244-1.98l.05-.408c.07-.594.136-1.176.2-1.756l.063-.566c.057-.522.11-1.034.162-1.545.024-.238.05-.479.073-.714.045-.449.086-.888.127-1.328q.042-.438.081-.871c.033-.367.063-.726.094-1.088.03-.352.061-.707.089-1.054.023-.286.044-.565.065-.848.025-.316.051-.639.074-.95l5.432-3.05c-1.071 22.429-6.187 57.323-24.141 98.55"/>
    <path fill="#fff" d="M334.852 357.81a.7.7 0 0 0 .35.795l4.29 2.273c.033.018.071.015.105.027.051.02.102.03.155.038.024.003.045.017.068.017l.016-.003.02.003c.049 0 .093-.027.14-.037.036-.009.072-.007.106-.022l.013-.009c.028-.012.06-.008.087-.023l6.967-3.96a.7.7 0 0 0 .334-.44l2.31-9.279 6.935-3.948.625 2.11c.054.183.18.335.35.423l4.327 2.237c.028.014.059.011.089.022l.009.006c.016.007.033.003.049.008.058.015.115.042.174.042.016 0 .031-.007.047-.008.046-.001.087-.013.132-.023q.042-.01.083-.025c.04-.014.082-.015.119-.036l6.894-3.922a.7.7 0 0 0 .32-.826l-1.04-3.186 3.679 1.933a.7.7 0 0 0 .671-.012l.01-.006.002-.001 6.368-3.623a.7.7 0 0 0 .355-.595l.285-14.561 11.973-6.808a.7.7 0 0 0 .355-.592l.146-6.343c.001-.005-.004-.01-.004-.015l.003-.012c0-.047-.028-.086-.037-.13-.016-.073-.024-.147-.062-.211-.027-.046-.073-.075-.11-.114-.044-.046-.076-.102-.132-.136l-.018-.005-.013-.011-4.29-2.274a.7.7 0 0 0-.674.01l-6.855 3.904.048-2.333 13.329-7.54a.7.7 0 0 0 .355-.593l.147-6.38-.003-.013.003-.012c-.001-.051-.03-.093-.041-.142-.016-.068-.022-.139-.058-.199-.028-.048-.076-.078-.115-.119-.042-.044-.073-.099-.127-.132-.005-.003-.012-.001-.018-.005l-.013-.012-4.29-2.274a.7.7 0 0 0-.671.008l-20.203 11.366-.006.006-.008.002a.7.7 0 0 0-.249.253c-.006.01-.004.024-.01.035a.7.7 0 0 0-.085.302l-.623 34.36-7.912-24.26a.7.7 0 0 0-.47-.452l-4.232-2.224a.71.71 0 0 0-.669.01l-8.397 4.729c-.027.015-.039.044-.063.062a.6.6 0 0 0-.219.272c-.016.035-.042.063-.052.1zm35.091-53.97 2.94 1.546-.579 31.213-.056 3.628-2.937-1.543zm10.607 8.249 7.241-4.124 2.824 1.496-10.136 5.763.011-.493zm12.37-12.522-13.331 7.541a.7.7 0 0 0-.356.597l-.172 8.248-.011.475a.7.7 0 0 0 .341.616c.052.032.113.031.17.048.062.018.12.05.183.05l.006.002c.119 0 .238-.03.346-.092l.146-.083 7.777-4.392 3.323-1.911-.109 4.705-11.975 6.807a.7.7 0 0 0-.355.595l-.285 14.562-4.965 2.825.631-34.78 15.417-8.677 3.327-1.886zm-3.444-7.443 2.822 1.495-3.248 1.83-15.472 8.721-2.85-1.498zm-42.418 24.363 2.84 1.504.179.095-10.711 41.141-3.019-1.6zm11.573 28.181-.633-2.137 1.838-1.046 1.38 4.52zm9.827-1.527-5.64 3.209-1.868-6.127a.7.7 0 0 0-.728-.494.7.7 0 0 0-.327.087l-3.079 1.76c-.024.013-.04.035-.062.051l-7.893 4.495a.7.7 0 0 0-.334.439l-2.31 9.279-5.273 2.996 10.589-40.645 7.423-4.184zm-13.445-31.62 2.846 1.496-6.975 3.913-1.83-.97-.991-.525z"/>
    <path fill="#fff" d="m355.878 323.819-.098-.321c-.014-.048-.049-.084-.073-.127-.026-.047-.043-.099-.079-.139-.028-.031-.069-.047-.103-.073-.046-.035-.087-.077-.141-.1l-.007-.001-.008-.006c-.035-.014-.074-.009-.11-.017-.063-.014-.124-.032-.187-.029-.034.002-.063.018-.096.025-.061.012-.124.017-.181.045l-.22.111c-.024.012-.039.035-.061.049l-.007.004c-.011.006-.017.017-.027.024-.052.039-.106.076-.145.127a.7.7 0 0 0-.16.288l-3.961 15.952a1 1 0 0 0-.021.205c0 .009.007.017.007.026a.7.7 0 0 0 .058.216.68.68 0 0 0 .284.364.71.71 0 0 0 .698.003l7.774-4.438c.042-.024.074-.059.11-.091.008-.006.019-.008.027-.015.01-.008.015-.019.024-.027l.035-.039a.7.7 0 0 0 .092-.115l.017-.037a.7.7 0 0 0 .084-.328l.001-.004q-.001-.007-.004-.013a.7.7 0 0 0-.027-.182zm-2.436 8.609.103.334-.217.126zm-.549 2.329 1.5-.869 2.852 1.499-5.27 2.993zm4.597-.823-1.924-1.011-.605-.318-.848-2.762.959-3.862zm-63.942 11.026c.002.055.006.11.021.165l8.948 31.496a.7.7 0 0 0 .348.429l4.326 2.273c.011.006.023.004.033.008.011.006.018.016.029.021a.7.7 0 0 0 .264.051c.107 0 .21-.033.308-.082.012-.006.027-.003.039-.01l6.417-3.667a.7.7 0 0 0 .336-.457l4.509-20.457 1.03-4.599 5.131 18.237a.7.7 0 0 0 1.02.42l6.38-3.63a.7.7 0 0 0 .337-.457l9.204-41.543c.009-.045.008-.09.009-.135.001-.009.007-.017.007-.026l-.004-.013a.7.7 0 0 0-.092-.316l-.021-.04a.7.7 0 0 0-.165-.183c-.023-.017-.049-.025-.074-.039-.007-.005-.011-.014-.019-.018l-4.326-2.275a.7.7 0 0 0-.67.01l-7.15 4.034c-.027.015-.039.044-.063.062a.7.7 0 0 0-.17.169c-.025.038-.036.077-.053.119-.019.044-.049.081-.058.129l-3.282 17.311-2.17-8.804c-.011-.044-.041-.077-.059-.116-.019-.041-.033-.079-.059-.116a.7.7 0 0 0-.173-.162c-.024-.017-.037-.045-.064-.059l-4.326-2.274a.7.7 0 0 0-.668.01l-6.197 3.483c-.027.016-.04.045-.064.064a.7.7 0 0 0-.169.167c-.024.036-.036.075-.053.115-.018.043-.048.079-.058.126l-3.507 17.411-2.016-8.849c-.011-.045-.042-.079-.06-.121-.019-.042-.033-.082-.059-.119a.7.7 0 0 0-.17-.16c-.025-.017-.038-.047-.066-.061l-4.29-2.274a.7.7 0 0 0-.672.008l-7.298 4.106c-.011.007-.015.02-.026.027-.024.014-.049.024-.071.042a.7.7 0 0 0-.153.18l-.021.043a.7.7 0 0 0-.083.321l-.002.007c0 .007.005.012.005.018m1.814 1.353 2.617 1.374.073.259 7.619 26.882.718 2.492-2.607-1.371zm36.363 17.782-5.331 3.033-5.516-19.598a.7.7 0 0 0-1.02-.419l-.257.147a.7.7 0 0 0-.337.455l-5.948 26.869-5.37 3.069-8.551-30.104 5.964-3.372 4.922 21.629c.024.105.073.2.138.282.022.027.054.042.08.066.046.043.089.092.147.122l.021.005.015.011c.054.024.113.027.17.036.033.005.064.02.098.021l.014.003c.024 0 .045-.016.068-.019.071-.007.142-.01.208-.038l.257-.11c.183-.079.302-.253.366-.444.012-.033.035-.061.042-.096l.002-.009.004-.01 5.763-28.379.262-.147 4.851-2.727 2.712 10.992c.003.023-.004.047.002.07l2.566 10.34a.7.7 0 0 0 .68.531c.007 0 .013-.005.019-.005a.7.7 0 0 0 .33-.088l.257-.147a.7.7 0 0 0 .338-.478l5.293-28.096 5.538-3.107zm5.504-42.566 2.847 1.498-4.374 2.45-.002.001-1.354.764-1.157-.613-1.664-.882zm-6.652 4.3 2.996 1.587-4.79 25.429-1.881-7.632zm-11.644 6.004 2.848 1.497-4.742 2.665-1.116-.586-1.733-.91zm-5.707 3.741.827.435 2.207 1.158-5.213 25.671-1.751-7.757zm-11.675 6.05 2.823 1.495-4.354 2.463-1.462.827-1.281-.673-1.569-.825z"/>
</svg>
