<svg xmlns="http://www.w3.org/2000/svg" width="550" height="550" fill="none" viewBox="0 0 550 550">
    <path fill="#fff" fill-rule="evenodd" d="m282.406 8.002.03.006.078.016h.004l.007.004a.6.6 0 0 1 .422.571v86.575l44.476 8.497q.038.007.074.019l.03.012.068.031.02.01.011.008a.7.7 0 0 1 .108.085l.018.019a1 1 0 0 1 .063.081l.018.029.026.052.004.008.005.016a1 1 0 0 1 .029.098l.008.039.005.052v.027a.6.6 0 0 1-.065.281l-43.956 84.606 12.911 3.36 34.435-44.844.074-.081a.6.6 0 0 1 .694-.078l140.641 78.532a.6.6 0 0 1 .184.889l-57.778 75.237 54.478 78.174a.605.605 0 0 1-.195.865l-54.423 31.123v50.994a.6.6 0 0 1-.302.52l-137.323 78.533a.6.6 0 0 1-.187.066l-.034.007-.024.002-.051.003-.043-.002-.032-.002-.036-.007-.044-.009-.024-.008-.048-.016-.028-.013-.038-.017-140.637-78.024a.6.6 0 0 1-.308-.524V410.83l-51.499-28.755a.604.604 0 0 1-.21-.852l51.569-79.051-57.485-74.32a.6.6 0 0 1 .176-.888l137.324-78.531.099-.046a.6.6 0 0 1 .673.199l29.348 37.944 26.532-51.178-45.892-8.448-.037-.011q-.022-.005-.043-.012l-.042-.016-.046-.022-.036-.019-.046-.032-.03-.024-.03-.028a.6.6 0 0 1-.147-.231q-.01-.027-.017-.055l-.005-.027-.009-.059-.003-.025v-.037l.004-.066.002-.012a.6.6 0 0 1 .052-.173l55.85-117.713.018-.031.015-.024.047-.068.017-.02.063-.059.016-.014.065-.042.034-.02q.027-.013.055-.023l.054-.019.037-.008q.035-.008.072-.012h.035q.029-.003.058-.002zm-56.714 452.409a.6.6 0 0 1-.798.195L136.95 411.5v51.97l139.437 77.358V382.694zm51.896 80.4 136.122-77.845v-49.96l-81.7 46.723a.6.6 0 0 1-.213.073h-.016l-.004.001q-.045.005-.089.005l-.016-.003-.038-.005q-.034-.004-.067-.011l-.054-.018-.036-.011-.014-.008a.4.4 0 0 1-.056-.03l-.027-.014-.012-.009-.06-.049-.021-.02a1 1 0 0 1-.062-.073l-.005-.006-53.632-76.963zM85.399 381.339l51.213 28.597.031.015 88.347 49.333 51.14-78.398-139.586-77.946zm192.455-.467 54.035 77.542 82.12-46.965.009-.005.029-.014 54.12-30.949-54.036-77.544zm-48.987-130.946-6.258 78.754a.6.6 0 0 1-.3.469l-.007.004-.079.036-.042.015q-.004.003-.009.004l-.065.013-.025.005-.02.004-.033-.001-.039.001-.022.001-.002-.001a.58.58 0 0 1-.339-.136l-.063-.058-.014-.016-.051-.07-.015-.025-.035-.075-.012-.033-.013-.036-13.443-52.547-20.056 5.83-.046.01-.004.001-.078.009-.011.001h-.081a.6.6 0 0 1-.19-.047l-.006-.003q-.032-.014-.062-.031l-.016-.011-.029-.021-.041-.031-.036-.034-.035-.039q-.014-.016-.026-.033l-.035-.056-.012-.02-.003-.007a.6.6 0 0 1-.056-.187l-.003-.039-.002-.04v-.029l.004-.033.003-.029 1.315-8.372-50.905 29.115 139.413 77.849 136.105-77.837-46.383-25.906-14.361 5.128 17.017 17.812a.6.6 0 0 1-.165.951l-60.126 30.126a.6.6 0 0 1-.105.039q-.018.005-.038.008-.028.007-.055.011l-.013.002-.048.001h-.058q-.022-.002-.042-.006l-.031-.005-.037-.009-.034-.01-.019-.007-.045-.019-.033-.016-.01-.007-.045-.028q-.025-.017-.047-.037l-.023-.017-.017-.02-.031-.034q-.02-.025-.038-.051l-.015-.02-.012-.023-.024-.052q-.011-.024-.02-.049l-.014-.054-.009-.046-.006-.079-.001-.02v-.016q.002-.027.007-.053.002-.022.006-.043a.6.6 0 0 1 .081-.199l24.809-38.971-16.384-17.257-.007-.01-.054-.068-.015-.023q-.017-.028-.031-.058l-.017-.039a.6.6 0 0 1-.039-.181v-.079l.003-.023.003-.023.016-.071.01-.033.024-.057q.007-.017.017-.035l.047-.075.007-.009.018-.019.042-.045.035-.031.033-.024.01-.007a1 1 0 0 1 .117-.062l.004-.002 25.095-9.73-39.332-21.958-46.917 107.318q-.016.031-.034.059l-.011.02-.013.02-.021.028-.012.012-.02.026-.016.018-.034.029-.029.024-.025.017-.033.021-.029.017-.032.015-.04.016-.027.01-.03.006-.007.002-.04.009-.032.005-.002.001h-.023l-.06.002-.019-.001-.028-.003q-.03-.002-.061-.009l-.011-.001-.009-.003-.015-.005-.032-.011-.036-.01-.008-.005-.011-.005-.035-.019a.6.6 0 0 1-.188-.158l-.018-.023q-.02-.03-.036-.062-.011-.018-.019-.035l-.021-.057q-.01-.025-.016-.05l-.007-.038q-.007-.037-.009-.074v-.083l10.53-116.709-1.984-.526zm37.506-19.091-10.16 112.599 48.377-123.96zm44.615 96.571 38.464-27.741-15.386-8.508zm4.221-1.565 51.18-25.643h-15.623zm-106.122-50.15 12.507 48.895 2.924-62.212zm97.04-56.851-39.443 101.066 35.175-80.459.009-.023 15.622-35.732zm-8.067-26.007 22.205 5.781a.6.6 0 0 1 .371.288l.007.011a1 1 0 0 1 .037.084l.002.007.004.014.019.081.004.025q.005.044.004.089l-.002.023-.01.078-.005.022a1 1 0 0 1-.031.093l-.001.006-17.477 39.972 40.302 22.498 9.764-3.781-21.949-20.107-.004-.004a1 1 0 0 1-.087-.103l-.009-.014-.039-.073q-.01-.02-.018-.041l-.01-.031-.006-.019-.006-.026-.006-.032a.6.6 0 0 1-.009-.124l.001-.01.004-.035.012-.069.004-.02.005-.015.019-.053.007-.016a.6.6 0 0 1 .059-.105l.002-.003.005-.007.016-.018.028-.034.024-.025.01-.009.008-.005.012-.011q.019-.016.039-.03l.031-.021.068-.036 49.748-22.406.018-.007.04-.014.036-.013.027-.005.024-.004a.4.4 0 0 1 .064-.009h.062l.019.002.038.003.015.003.054.011.02.005.014.004.003.001q.028.01.054.023l.037.016q.086.044.156.116l.009.011.01.013.05.066.014.025a.5.5 0 0 1 .042.089.6.6 0 0 1 .038.185l.001.013a.6.6 0 0 1-.063.285l-15.614 30.722 23.579 20.835a.6.6 0 0 1 .166.65l-.01.024q-.014.033-.029.062l-.015.026a.6.6 0 0 1-.122.143l-.014.011-.059.042-.028.016-.077.036-.009.004-21.555 7.696 45.94 25.659 57.305-74.625L331.87 148.8zM79.496 227.664l57.007 73.7 52.21-29.86 6.045-38.464-22.832 9.976-.014.005-.048.017-.022.006-.009.003-.015.004-.035.006-.021.003-.043.005h-.048l-.041-.002-.019-.002-.031-.007-.032-.005-.04-.011-.012-.004a1 1 0 0 1-.103-.044l-.002-.001-.009-.006q-.026-.014-.051-.032a1 1 0 0 1-.071-.063l-.017-.019-.015-.016a.6.6 0 0 1-.069-.103l-.012-.021-.018-.045-.015-.041-.008-.029-.012-.048-.005-.041-.002-.034v-.034l.001-.017.001-.038 7.417-68.86.008-.043.005-.026.007-.032.001-.004.001-.003.008-.022.024-.063.012-.021.033-.057.018-.023a.4.4 0 0 1 .036-.045l.027-.027q.02-.02.043-.039l.012-.01.011-.006.069-.044.064-.03.024-.008q.03-.011.063-.018l.029-.006.027-.005.018-.001.029-.002.009-.001h.046l.02.002.036.004.017.003.055.013.029.008.023.007.039.017q.02.008.037.018l.018.009.041.028.033.023.046.043.03.03.005.006q.013.015.024.032a.6.6 0 0 1 .083.147l13.729 36.663 23.962-10.344.008-.004.037-.012.031-.011.027-.006.043-.009.018-.003.043-.003h.062l.055.005.006.001.059.012.014.005.027.009q.025.008.05.019l.02.01.052.027.031.022.019.013.012.01.018.014.015.015a.4.4 0 0 1 .054.057l.03.042.017.025.025.044.013.029.015.039a.6.6 0 0 1 .03.12l.003.026a.6.6 0 0 1-.003.14l-6.923 48.798 17.311-6.363q.026-.01.053-.016l.009-.003.016-.004a.6.6 0 0 1 .208-.009l.004.001.01.001.034.007a.6.6 0 0 1 .126.042l.009.005.057.031.012.008q.017.01.034.023a.6.6 0 0 1 .235.525l-.404 5.081 32.555-18.616-32.903-8.736a.6.6 0 0 1-.206-.105l-.029-.02-.014-.014-.029-.031-.027-.029-.002-.003a.6.6 0 0 1-.088-.136.6.6 0 0 1-.044-.171l-.002-.027a.6.6 0 0 1 .003-.127l.002-.014a.6.6 0 0 1 .058-.18l16.881-32.567-29.367-37.969zm271.32 71.334h16.705l-16.507-17.28H333.18zm-16.58-9.12 12.758 7.055-15.651-15.333-10.917-6.268zm-108.347-29.323-.107.525-1.434 30.508 3.058-38.479zm109.357 19.963h15.921l15.37-5.489.018-.008 19.535-6.974h-15.165zm19.079-21.523-10.658 4.131-.004.002-25.119 9.738 13.224 7.594 37.592-13.138zm-158.242-26.63-6.225 39.587-.001.023-1.273 8.109 15.737-12.169 7.66-49.02zm9.083 36.412-14.546 11.251 17.496-5.085 14.244-12.293zm5.846-18.257-5.205 16.755 18.858-6.72 3.313-16.271zm160.041 16.327h16.918l-22.575-19.949-17.486-.57zm-16.331-9.004 11.624 6.437-20.439-18.121-10.023-5.575zm-141.314-40.301-6.669 42.688 3.201-10.301 5.766-40.645zm134.41 27.582 17.455.57 14.258-28.061zm-14.773-7.494 13.146 7.314 31.779-27.547zm-160.613 3.512 15.729-11.996-8.918-51.234zm16.698-11.226-13.115 10.002 19.186-8.381 13.419-11.368zm41.855-9.41 34.817 9.245 37.601-11.176-34.794-9.439zm-37.415-9.215-3.887 17.005 22.634-11.319 4.359-15.663zm-4.675 15.069 3.532-15.456-11.629-31.056zm84.703-90.95-43.625 84.149 38.219-11.552 46.435-84.992zm-3.982 72.756 35.745 9.697 13.736-18.314-35.851-9.332zm46.761-85.849-43.401 79.438 9.525-12.541 38.39-73.895zm-87.264 3.868 44.034 8.107 39.998-12.083-45.747-7.024zm-1.507-.816 39.214-11.267L281.2 12.411zm40.866-11.234 47.088 7.23 10.764-16.683-43.734-8.356zm-.208-1.673 13.483-17.007V17.128z" clip-rule="evenodd"/>
</svg>
