<svg xmlns="http://www.w3.org/2000/svg" width="550" height="550" fill="none" viewBox="0 0 550 550">
    <g fill="#fff" clip-path="url(#a)">
        <path d="M446.5 206.41s-.03-.02-.04-.02c-8.92-5.44-67.01-37.74-292.71-160.49-6.73-3.66-11.12-6.05-12.54-6.82-6.56-3.58-11.54-4.03-14.78-1.38l-7.13 5.02s0 .01-.01.01l-.51.36c-2.91 2.25-4.39 6.79-4.39 13.5V99.6l-38.03 21.14a.696.696 0 0 0-.26.96l38.29 67.05v83.86c-5.59-1.99-10.2-3.71-13.86-5.65-6.55-3.47-10.39-4.43-11.89-4.69l-.06-.05a.894.894 0 0 0-1.24.09.85.85 0 0 0-.16.83c-.18 1.5 1.04 4.96 3.31 9.26.75 1.42 1.58 3.74 2.55 6.42 2.87 7.98 7.21 20.05 16.09 28.25 1.91 1.76 3.98 3.25 6.16 4.44 2.33 13.83 9.79 23.54 23.48 30.55 4.34 2.22 15.88 8.42 34.27 18.41l-19.39 21.64c-.23.22-.43.44-.59.67-1.16 1.56-1.4 3.64-.67 5.84.7 2.12 2.21 4.13 4.26 5.65s4.41 2.39 6.65 2.43h.2c2.23 0 4.07-.83 5.15-2.28l22.58-24.06c9.91 5.4 20.78 11.33 32.26 17.6-1.32 2.29-2.33 3.95-2.98 4.94-2.98 4.53-4.33 12.69-.97 18.91 1.88 3.48 5.98 7.63 14.89 7.63 5.62 0 9.95-1.61 12.87-4.79 2.64-2.87 3.96-6.96 3.83-11.59l30.67 16.78c-7 14.17-5.73 28.75-3.9 32.13-.04.3.05.62.28.84.19.18.42.26.66.26.1 0 .2-.03.3-.06.61.19 1.54.29 2.78.29 7.41 0 24.87-3.55 37.86-12.67 60.67 33.2 115.67 63.26 123.07 66.97 6.87 3.44 11.87 5.81 15.56 5.81 1.26 0 2.37-.28 3.35-.88 0 0 .03-.02.05-.03l.49-.35.02-.02 7.5-5.27c3.3-2.31 4.64-8.38 4.64-20.98V246.59c0-16.42-8.09-28.06-27.92-40.18zM217.14 341.6c-3.32-2.62-6.53-5.47-9.54-8.49-1.58-1.58-3.13-3.23-4.61-4.91-12.17-13.74-19.94-29.63-22.7-44.8-.07-.37-.12-.74-.18-1.11-.09-.52-.18-1.04-.25-1.56-1.79-12.42-.14-24.24 5.27-33.88.08-.14.17-.27.25-.41 1.81-3.14 4-6.01 6.52-8.53l.06-.06c1.89-1.88 3.98-3.58 6.21-5.07 5.57-3.7 12.05-6.09 19.26-7.1h.03c.99-.14 2-.24 3.01-.32.15-.01.31-.03.46-.04.99-.07 2-.12 3.01-.14h.53c.82-.01 1.64 0 2.47.02.33 0 .66 0 .99.02 1.1.05 2.21.11 3.33.22 19.34 1.78 39.69 12.05 55.83 28.19 8.97 8.97 16.31 19.46 21.23 30.35l.38.86c5.77 13.14 7.97 26.39 6.34 38.3-.99 7.23-3.35 13.72-7.03 19.29a41.3 41.3 0 0 1-5.03 6.21l-.19.19-.06.06a41.4 41.4 0 0 1-10.98 7.81c-20.58 10.1-50.2 4.22-74.63-15.08zm-46.42-193.05c.05-.99.09-1.81.1-2.4v-.71c.35 1.1.71 2.21 1.07 3.34.03.09.06.17.08.26.35 1.1.72 2.21 1.08 3.33.07.22.14.44.22.66.3.91.61 1.84.92 2.77.09.27.18.53.27.8.38 1.13.76 2.27 1.16 3.42.04.12.08.24.12.35.38 1.11.76 2.22 1.15 3.34.05.15.11.3.16.46 1.35 3.85 2.76 7.76 4.23 11.67l.22.59c.46 1.21.91 2.42 1.39 3.63.52 1.31 1.13 2.81 1.78 4.36-.42-.14-.83-.32-1.25-.52-.12-.06-.24-.13-.36-.19-.3-.15-.6-.32-.9-.5-.15-.09-.31-.2-.46-.3-.27-.18-.54-.36-.81-.56-.16-.12-.32-.25-.49-.38-.26-.21-.52-.43-.79-.66-.16-.14-.33-.29-.49-.44-.27-.25-.53-.51-.8-.78-.16-.16-.31-.31-.47-.48-.29-.31-.58-.64-.87-.97-.13-.15-.26-.29-.39-.44-.42-.5-.84-1.02-1.26-1.58-1.36-1.81-2.46-4.16-3.25-6.97-2.08-7.41-1.62-16.32-1.37-21.12zm5.1 3.92q.585.945 1.26 1.83c.08.1.16.21.23.31.93 1.21 1.98 2.37 3.1 3.55l.07.07c.58.61 1.18 1.22 1.79 1.85 2.9 2.96 6.18 6.32 9.04 10.95 2.99 4.84 2.34 8.3 1.26 10.36-1.31 2.49-3.5 3.56-4.04 3.61h-.09l-.32-.01h-.05l-12.26-32.56.02.02zm122.98 89.4c20.49 20.49 31.18 47.3 27.89 69.96-1.45 9.99-5.67 18.72-12.19 25.24l-4.01 4.02c.25-.42.47-.86.71-1.3.14-.27.3-.53.43-.81.22-.43.43-.88.64-1.32.14-.29.28-.58.41-.88q.3-.675.57-1.35c.12-.3.25-.61.36-.91.18-.46.35-.93.51-1.4.11-.3.21-.61.31-.92q.24-.735.45-1.47c.08-.29.16-.59.24-.89.14-.52.28-1.04.4-1.57.06-.25.11-.51.16-.76.3-1.38.57-2.77.76-4.2 1.66-12.17-.57-25.67-6.45-39.05 0-.02-.02-.04-.03-.06l-.07-.17c-.09-.22-.19-.43-.28-.65-4.98-11.03-12.42-21.67-21.52-30.77-16.36-16.36-37.03-26.78-56.69-28.59h-.07c-1.11-.1-2.21-.17-3.3-.22-.39-.02-.78-.02-1.17-.03-.52-.01-1.04-.04-1.55-.04-.27 0-.53 0-.79.01-.22 0-.45 0-.67.01-1.01.02-2 .07-2.99.14-.19.01-.37.03-.55.05-1.04.09-2.07.19-3.08.33-.88.12-1.75.27-2.61.43-.25.05-.5.11-.75.16-.6.12-1.2.25-1.79.39-.3.07-.6.15-.9.23-.53.14-1.07.28-1.59.44-.31.09-.61.19-.92.29-.51.16-1.02.33-1.52.51-.3.11-.59.21-.88.32-.51.19-1.01.4-1.51.61-.27.11-.54.23-.81.34-.53.24-1.06.49-1.58.74-.22.11-.44.21-.66.32-.65.33-1.29.68-1.91 1.04-.08.05-.16.09-.24.14-.03.02-.06.03-.1.05l4.12-4.13c5.78-5.78 13.04-9.65 21.6-11.53 23.11-5.05 51.98 5.62 73.58 27.2l.03.03zm-2.64 113.96c.39-.24.79-.48 1.17-.74.41-.27.81-.56 1.2-.85.36-.26.72-.51 1.07-.78.4-.31.79-.64 1.18-.96.33-.27.67-.53.99-.81.37-.32.72-.66 1.07-1 .31-.29.64-.58.95-.88.05-.05.09-.09.13-.14l11.56-11.6c.7-.7 1.36-1.42 2-2.16.1-.11.2-.22.3-.34.24-.28.47-.58.71-.87l.39-.48.63-.84c.14-.18.28-.37.41-.55.2-.27.39-.55.58-.83.14-.2.27-.4.41-.6.18-.28.36-.55.53-.83.13-.21.27-.43.4-.65.17-.28.33-.56.49-.84.13-.23.26-.45.38-.68.15-.28.3-.57.45-.85.12-.24.24-.47.36-.71.14-.29.28-.57.42-.86.12-.25.23-.49.34-.74.13-.29.26-.58.38-.87.11-.26.21-.51.32-.77.12-.29.24-.59.35-.88.1-.27.2-.53.29-.8.11-.3.21-.59.31-.89.09-.28.18-.55.27-.83.09-.3.19-.59.28-.89.09-.29.16-.58.24-.87.08-.3.17-.59.24-.89.08-.3.15-.61.22-.92l.21-.87c.08-.34.14-.69.21-1.04.05-.26.11-.52.16-.79v-.02l28.01 44.71-43.17 24.79-17.37-26.98c.31-.18.61-.39.91-.58zm35.96 36.91-1.05 1.14-17.25-9.57 42.96-24.67 52.85 29.49-9.74 5.63-32.93 19.04-33.05-18.34.56-.59c.67-.77.45-1.7-.11-2.21a1.4 1.4 0 0 0-.27-.2l-.06-.03c-.07-.04-.14-.08-.22-.11a1 1 0 0 0-.23-.06c-.02 0-.04-.01-.05-.01-.5-.08-1.02.08-1.41.49m69.79 2.48 8.87-5.13 37.39 65.65-42.87 24.78-37.39-65.65 33.99-19.66zm-179-181.44c-.57.15-1.14.3-1.7.46-.48.14-.95.31-1.43.46-.54.18-1.09.36-1.62.55-.47.17-.92.37-1.37.55-.52.21-1.04.42-1.55.65-.44.2-.86.42-1.3.63-.5.25-1.01.49-1.5.76-.4.22-.79.46-1.19.69-.5.29-1 .57-1.49.88-.35.22-.68.46-1.01.69-.51.35-1.03.69-1.53 1.06-.24.18-.46.37-.69.55-1.37 1.07-2.7 2.2-3.94 3.45l-11.7 11.74c-.19.19-.35.39-.54.57-.44.46-.88.91-1.3 1.39-.28.32-.55.66-.82.99-.31.38-.62.75-.92 1.14-.28.36-.54.73-.8 1.1-.27.38-.55.76-.81 1.15-.25.38-.49.76-.73 1.15-.15.24-.32.48-.47.73l-15.98-26.39 43.46-25.67 11.97 20.41c-.35.08-.69.19-1.04.28zm-42.23-43.6c-.35-.97-.7-1.94-1.05-2.9-.19-.52-.37-1.04-.56-1.57-.28-.79-.55-1.57-.83-2.35-.15-.43-.3-.86-.45-1.28-.38-1.1-.75-2.19-1.12-3.27-.05-.14-.09-.28-.14-.42l10.82 28.73c-.27-.61-.55-1.25-.83-1.91-.82-1.91-1.6-3.86-2.33-5.67-.54-1.4-1.07-2.79-1.6-4.19 0-.01-.01-.03-.02-.04-.22-.57-.43-1.14-.64-1.71-.18-.49-.37-.98-.55-1.47-.24-.65-.48-1.3-.71-1.95zm-21.21-6.05 11.36 6.2c.1.35.22.68.34 1.01.1.32.2.64.31.94.14.39.3.74.46 1.11.12.27.22.55.34.81.18.38.38.73.57 1.08.12.22.23.45.35.65.28.48.59.92.9 1.35.04.06.08.13.13.19.09.11.17.21.26.33.37.49.75.97 1.13 1.41.18.22.37.41.55.61.28.32.57.65.85.94.21.22.41.4.62.61.26.26.52.52.79.76.22.2.44.37.66.55.25.21.51.43.76.63.23.17.45.32.68.48.25.17.5.35.75.51.23.14.46.26.69.39.25.14.49.28.74.4.23.11.46.2.69.3.25.11.5.22.74.3.23.08.45.14.68.21.19.06.38.13.57.17 1.18 2.74 2.2 4.91 3.18 6.77l.94 1.77c.17.32.46.56.81.66q.195.06.39.06c.04 0 .08-.01.13-.02h.04c.17-.02.33-.06.47-.14q.255-.135.42-.36c.07-.08.1-.19.14-.29.03-.07.08-.12.1-.19v-.01c.09-.36.03-.75-.15-1.03l-.94-1.72c-.04-.07-.08-.14-.11-.21-.13-.24-.27-.5-.41-.77-.11-.22-.23-.45-.35-.68l-.3-.6c-.07-.14-.13-.27-.21-.41l-.94-2.49c.08 0 .17-.03.25-.05.08-.01.15-.02.23-.04.09-.02.18-.06.27-.1.44-.16.94-.41 1.45-.77l.18-.12c.16-.11.31-.24.47-.37.08-.07.16-.13.23-.2.15-.13.29-.27.43-.41.09-.09.18-.18.26-.27.13-.14.26-.29.38-.45a11 11 0 0 0 .6-.82c.03-.05.07-.1.11-.15l17.37 9.47-43.26 25.55-51.08-29.17 1.97-1.12 41.03-23.27zm157.36 247.3 9.17-9.96s0-.02.01-.02l5.72-6.21 1.42-1.54s.09-.08.17-.06c.03 0 .06.03.09.06.12.11.07.19.02.24l-1.16 1.22v.01l-6.06 6.39-7.29 7.68-2.08 2.19zM115.42 100.61l6.28-3.5 36.8 65.95-43.19 24.5-37.65-65.94zm-.58 173.65.85.3c5.82 2.07 12.43 4.41 19.09 7.45 7.37 3.36 9.6 10 10.28 13.65.25 1.34.36 2.7.36 4.02v.01c0 .32-.01.64-.03.95v.07c-.02.3-.04.59-.07.88 0 .03 0 .06-.01.1-.03.28-.06.56-.1.83 0 .04-.01.08-.02.12-.04.26-.09.52-.14.78 0 .04-.02.09-.03.13-.05.25-.11.5-.17.74-.01.05-.02.09-.04.14-.06.24-.13.47-.2.7-.01.05-.03.09-.04.14-.07.23-.15.45-.24.67-.02.04-.03.09-.05.13-.09.22-.18.43-.27.64-.02.04-.03.08-.05.11-.1.21-.2.41-.31.61-.02.03-.03.06-.04.08-.12.21-.24.42-.37.61 0 .01-.01.02-.02.03-.15.22-.3.42-.46.62q-1.485-1.335-2.97-2.64c-.11-.1-.22-.19-.32-.29-8.75-7.76-17.26-15.06-23.93-20.74-4.6-3.92-9.22-7.83-13.83-11.73l-3.73-3.16-6.9-5.85c1.97.63 4.88 1.78 8.79 3.85 3.95 2.09 8.91 3.9 14.98 6.06zm36.92 44.72s.04.04.06.07c.03.03.04.07.04.09s0 .06-.04.09c-.02.02-.05.04-.09.04-.02 0-.07 0-.14-.08l-1.84-1.88c-2.25-2.16-4.73-4.5-7.59-7.14h-.01c-.26-.24-.53-.48-.79-.72-.35-.32-.69-.64-1.04-.96l.85.76c.39.35.78.7 1.18 1.05 2.54 2.28 5.07 4.57 7.56 6.85l1.85 1.84zm-57.42-40.63c-1.02-2.84-1.83-5.08-2.62-6.59-1.84-3.49-2.64-5.75-2.97-7.05 8.7 7.59 17.4 15.22 25.88 22.7l2.15 1.89c.86.76 1.73 1.52 2.58 2.28l4.62 4.11c5.45 4.85 11.08 9.86 16.55 14.88-.07.04-.14.09-.21.13-.11.06-.23.13-.35.19-.26.14-.53.28-.81.41l-.39.18c-.28.13-.56.25-.86.37-.14.06-.29.11-.43.16-.3.11-.6.22-.9.32-.15.05-.31.1-.47.15-.31.09-.63.18-.95.27l-.49.12q-.495.12-.99.21l-.51.09c-.34.06-.69.11-1.04.16-.17.02-.35.05-.52.07-.36.04-.72.07-1.08.1-.18.01-.35.03-.53.03-.37.02-.75.03-1.13.03h-.52c-.39 0-.78-.02-1.18-.04-.17 0-.33-.02-.5-.03-.41-.03-.82-.08-1.24-.13-.16-.02-.31-.03-.47-.06-.44-.06-.87-.14-1.31-.22-.14-.03-.28-.05-.42-.08-.47-.1-.94-.22-1.42-.34-.11-.03-.22-.05-.32-.08-.53-.15-1.06-.32-1.6-.51-.05-.02-.1-.03-.15-.05-1.18-.42-2.35-.94-3.52-1.56h-.01a29.4 29.4 0 0 1-6.15-4.4c-8.63-7.97-12.9-19.84-15.72-27.7zm79.64 81.06c-18.58-10.09-30.21-16.34-34.59-18.58-12.92-6.61-20.12-15.69-22.56-28.5.04.02.07.03.11.05.46.21.91.41 1.37.59.11.04.21.09.32.13.52.2 1.03.38 1.55.54.05.02.1.04.15.05 2.32.72 4.63 1.11 6.88 1.23h.13c.44.02.88.04 1.31.04h.18a22 22 0 0 0 2.36-.13q.57-.045 1.14-.12c.25-.03.5-.08.75-.12.32-.05.65-.11.96-.17.25-.05.5-.1.75-.16.31-.07.61-.15.91-.22.24-.06.47-.13.71-.2.31-.09.61-.19.9-.29.21-.07.42-.14.62-.21.44-.16.86-.33 1.27-.51a32 32 0 0 0 1.41-.68c.2-.11.39-.22.58-.33.14-.08.29-.16.42-.24 2.65 2.46 5.01 4.67 7.16 6.74l1.8 1.84c.28.33.69.52 1.12.53h.05c.05 0 .1 0 .15-.02.25-.02.5-.1.7-.24.08-.06.16-.12.23-.19a.6.6 0 0 0 .07-.09c.24-.28.38-.62.38-.99a1.5 1.5 0 0 0-.37-.99v-.01c-.02-.03-.05-.06-.07-.09l-1.94-1.92c-2.35-2.15-4.71-4.29-7.07-6.42v-.01c.11-.14.22-.28.32-.42l.15-.21c.1-.15.2-.3.3-.46.05-.08.1-.15.14-.23.09-.16.18-.33.27-.5.04-.08.09-.16.13-.24.09-.17.17-.35.25-.53.04-.08.08-.17.11-.25.08-.19.15-.38.22-.57.03-.09.06-.17.1-.26.07-.2.13-.4.2-.61.03-.09.05-.17.08-.26.06-.21.12-.43.17-.64l.06-.26c.05-.22.1-.45.14-.68.02-.08.03-.17.05-.25.04-.24.08-.47.11-.71l.03-.24c.03-.25.06-.5.08-.75 0-.07.01-.15.02-.22.02-.26.04-.53.05-.79v-.19c0-.28.02-.56.02-.84v-.15c0-.3 0-.6-.02-.9v-.06a23 23 0 0 0-.35-3.05c-.72-3.93-3.12-11.06-11.08-14.68-6.73-3.07-13.36-5.42-19.22-7.5l-.37-.13v-83.37l51.27 29.28 16.65 27.51c-.13.24-.25.49-.37.73-.22.42-.45.84-.65 1.27-.14.29-.27.59-.41.89-.2.44-.4.87-.59 1.31l-.36.9c-.18.45-.36.9-.52 1.36-.11.3-.2.61-.31.91-.16.47-.32.93-.46 1.41-.09.3-.17.61-.26.92-.14.48-.27.96-.4 1.45-.08.3-.14.61-.21.92-.11.5-.23 1-.33 1.5-.06.3-.11.61-.16.91-.09.52-.19 1.03-.27 1.55l-.12.9c-.07.54-.15 1.07-.2 1.61-.03.29-.05.58-.07.88-.05.56-.1 1.11-.14 1.67-.02.28-.02.57-.03.85-.03.58-.06 1.15-.07 1.73v2.61c0 .23.02.46.03.69q.03.975.09 1.95c.01.18.03.36.05.55.05.7.11 1.41.18 2.12 0 .09.02.18.03.27.35 3.21.92 6.46 1.72 9.73.07.27.12.54.19.81.13.51.28 1.03.42 1.54.11.4.21.8.33 1.21.13.46.28.92.42 1.37.14.46.28.92.43 1.38.14.42.29.85.44 1.27.17.49.34.99.52 1.48.15.4.31.8.46 1.2.2.52.39 1.04.6 1.55.15.38.32.77.48 1.15.22.53.44 1.06.67 1.59.16.37.34.74.51 1.1.25.54.49 1.09.75 1.63.17.35.35.71.53 1.06.27.55.54 1.11.83 1.66.18.34.37.68.55 1.02.3.56.6 1.12.91 1.68.18.33.38.66.57.99.32.57.65 1.13.98 1.69.19.32.4.64.59.96.35.57.7 1.14 1.06 1.7.2.31.41.62.61.93.37.57.75 1.14 1.13 1.7.21.3.43.6.64.9.4.57.79 1.13 1.2 1.69.22.3.44.59.66.88.42.56.84 1.12 1.27 1.68.22.29.46.57.69.86a70 70 0 0 0 2.06 2.51c.38.45.75.9 1.14 1.34l-3.88 4.32-23.67 26.41zm-6.44 34.12c-.88 1.19-2.38 1.84-4.24 1.78-1.95-.04-4.02-.81-5.84-2.16s-3.16-3.11-3.76-4.96c-.58-1.76-.41-3.39.46-4.57.13-.18.28-.34.48-.53l47.83-53.36c.53.59 1.08 1.18 1.62 1.76.06.07.12.13.18.2.76.81 1.54 1.62 2.33 2.41q1.14 1.14 2.31 2.25c.04.04.08.08.13.12.72.68 1.45 1.35 2.2 2.01.18.16.36.31.54.47.61.54 1.23 1.07 1.85 1.6.22.18.44.36.65.54.46.38.92.77 1.38 1.14l-22.06 23.52-3.06 3.26zm49.23-50.43c.85.66 1.71 1.31 2.57 1.94.15.11.3.21.45.32.82.6 1.65 1.18 2.48 1.74.28.19.57.38.85.57.76.51 1.52 1 2.28 1.48.24.15.49.31.73.46 1 .62 2 1.22 3.01 1.79l.33.18c.89.51 1.79.99 2.69 1.47l.87.45c.78.4 1.55.78 2.33 1.16.26.13.52.25.78.38q1.545.72 3.09 1.38l.15.06c.97.41 1.94.8 2.92 1.17.28.11.57.21.85.32.79.29 1.57.57 2.36.83.27.09.54.19.81.27 2.06.67 4.12 1.26 6.17 1.76.27.07.55.13.82.19q1.17.27 2.34.51c.28.06.55.11.83.16 1.01.19 2.02.37 3.03.51a65 65 0 0 0 3.83.44c.76.07 1.52.13 2.27.17.28.02.56.03.84.05.91.04 1.81.07 2.7.07h.24c1.03 0 2.06-.03 3.08-.09.26-.01.51-.03.77-.05q1.245-.075 2.46-.21c.21-.02.43-.04.64-.07.98-.12 1.96-.26 2.93-.42.21-.04.41-.08.61-.12.79-.15 1.56-.31 2.33-.49l.76-.18c.94-.23 1.87-.48 2.78-.77.07-.02.14-.05.21-.07a41 41 0 0 0 2.5-.88c.25-.1.5-.19.75-.29.74-.3 1.47-.61 2.2-.94.15-.07.3-.13.45-.2.72-.34 1.44-.7 2.14-1.09l17.76 27.59v.02s.09.07.13.11.08.1.13.13l18.04 10.01-4.75 5.15c-2.41-1.29-6.49-2.3-11.46-2.09h-.03c-.4.02-.8.04-1.21.07h-.05c-.4.03-.8.07-1.21.12h-.08c-.4.05-.81.11-1.22.17-.03 0-.06.01-.1.02-.41.07-.82.14-1.24.23-.04 0-.07.01-.11.02-.42.09-.83.18-1.26.28-.04 0-.08.02-.11.03-.42.1-.84.22-1.27.34l-.12.03c-.43.13-.86.26-1.29.41-.04.01-.08.03-.12.04q-.66.225-1.32.48c-.04.01-.07.03-.11.04-.45.17-.9.36-1.35.55-.03.01-.06.03-.09.04-.46.2-.92.41-1.39.64-.02 0-.04.02-.06.03-.48.23-.96.48-1.44.74 0 0-.02 0-.02.01-3.93 2.12-7.95 5.14-11.83 9.35-.89 1.14-1.73 2.34-2.52 3.59-.07.11-.14.23-.21.34-.32.5-.62 1.01-.92 1.53-.08.14-.16.29-.24.43-.19.34-.39.68-.57 1.03l-31.38-17.16c-.02-.19-.05-.39-.08-.58-.02-.12-.03-.23-.05-.35-.04-.27-.09-.54-.14-.81-.02-.13-.04-.25-.07-.37-.05-.26-.11-.53-.17-.79l-.09-.37c-.07-.27-.14-.53-.22-.79-.03-.11-.06-.22-.1-.33-.09-.29-.19-.58-.29-.87-.03-.07-.05-.15-.08-.22-.4-1.08-.87-2.1-1.41-3-2.9-4.84-13.21-23.29-13.32-23.47a.7.7 0 0 0-.2-.21l-.09-.06a.7.7 0 0 0-.32-.09c-.25 0-.49.14-.61.37-.05.1-5.16 9.48-9.21 16.57-.06.1-.11.2-.17.29-.08.13-.15.27-.23.4 0 0-.01.02-.02.03-11.37-6.21-22.14-12.09-31.97-17.45l24.59-26.21zm29.46 70.61c-2.64 2.88-6.63 4.34-11.83 4.34-6.5 0-11.22-2.38-13.65-6.89-2.98-5.53-1.88-13.23.91-17.48.72-1.1 1.86-2.99 3.37-5.62 3.36-5.83 7.78-13.89 9.38-16.81 2.28 4.08 10.23 18.24 12.72 22.4 1.34 2.23 2.25 5.21 2.52 8.2v.08c.41 4.76-.81 8.94-3.41 11.78zm37.07 6.16c1.33-2.6 2.89-5.06 4.62-7.28.57-.62 1.15-1.22 1.73-1.79.05-.04.09-.09.14-.13.52-.51 1.05-1 1.58-1.47.07-.07.15-.13.22-.2 1.74-1.53 3.49-2.85 5.23-3.97.05-.03.1-.07.16-.1.53-.34 1.07-.66 1.6-.96.06-.03.11-.06.17-.1a36.5 36.5 0 0 1 5.31-2.47c.53-.2 1.05-.38 1.57-.54.03 0 .05-.02.08-.03 1.67-.52 3.3-.89 4.86-1.13.04 0 .07-.01.11-.02 1.57-.23 3.07-.34 4.48-.34 3.91 0 7.14.8 9.21 1.83l-45.56 49.48c-1.31-3.76-2.42-17.25 4.5-30.78zm-2.93 32.01 24.25-25.55 22.03-23.21c.09.14.19.28.28.43.03.05.06.1.1.15.28.46.57 1 .85 1.59 0 .01 0 .02.01.03.13.28.26.58.39.89.02.04.04.09.05.14.11.28.23.57.34.87.02.06.05.13.07.2.1.29.2.58.3.88.03.08.05.16.08.24.09.29.18.6.27.9.03.09.05.19.08.29.08.3.16.61.23.93.02.11.05.21.07.32.07.31.13.63.2.95l.06.34c.06.32.11.65.16.98.02.12.04.24.05.36.05.33.08.67.12 1.01.01.12.03.25.04.37.03.35.06.7.08 1.06 0 .12.02.24.02.36.02.38.03.75.03 1.14v.31q0 .66-.03 1.32v.15a26.2 26.2 0 0 1-1.13 6.57c-.04.12-.08.23-.12.35-.09.28-.18.57-.29.85-.08.22-.17.44-.26.66-.07.17-.13.34-.2.51-.15.35-.31.69-.47 1.02-.02.04-.03.08-.05.11-1.65 3.37-4.08 6.33-7.21 8.75-.48.37-.97.74-1.47 1.09-14.06 10.06-33.72 13.27-38.92 12.64zm180.61 59.45c-3.21 1.99-8.76-.6-17.54-4.99-7.36-3.68-62.02-33.56-122.44-66.62.21-.15.41-.31.62-.47 3.68-2.84 6.43-6.37 8.16-10.44.04-.09.07-.17.1-.26.13-.32.26-.64.38-.97.07-.2.14-.41.21-.61.07-.22.15-.43.22-.65.1-.33.19-.66.28-.99.03-.1.06-.2.09-.31.34-1.31.58-2.67.72-4.07.03-.26.04-.51.06-.77s.05-.51.06-.77c.02-.3.02-.6.03-.9 0-.22.01-.43.02-.65 0-.31 0-.61-.02-.91 0-.2 0-.4-.02-.6-.01-.31-.04-.61-.06-.91-.01-.19-.02-.38-.04-.56-.03-.31-.06-.61-.1-.91l-.06-.53c-.04-.3-.09-.59-.13-.89-.03-.17-.05-.34-.08-.5-.05-.29-.11-.58-.17-.87a7 7 0 0 0-.1-.47c-.06-.28-.13-.56-.2-.83-.04-.15-.08-.3-.11-.45-.07-.27-.14-.53-.22-.79-.04-.14-.09-.29-.13-.43-.08-.25-.16-.5-.24-.74-.05-.14-.09-.28-.14-.41-.08-.24-.17-.47-.25-.69-.05-.13-.1-.26-.16-.39-.09-.21-.17-.43-.26-.63-.06-.13-.11-.26-.17-.38-.09-.19-.17-.38-.26-.56-.06-.13-.13-.25-.19-.37a7 7 0 0 0-.26-.48c-.07-.13-.14-.24-.21-.36a7 7 0 0 0-.48-.75c-.07-.1-.14-.21-.21-.31a.2.2 0 0 1-.03-.05l5.28-5.56 33.55 18.62 37.98 66.69c.09.16.25.28.43.33.06.02.12.02.18.02.01 0 .03 0 .04-.01.11 0 .22-.03.32-.08l44.08-25.49c.33-.19.45-.62.26-.95l-38.08-66.87-.03-.03a.6.6 0 0 0-.21-.2c-.01 0-.02-.02-.03-.03l-54.12-30.2-29.15-46.53c3.24-23.03-7.59-50.16-28.3-70.88 0-.01-.02-.02-.03-.03-5.44-5.44-11.34-10.2-17.5-14.19h-.01c-.72-.47-1.45-.92-2.17-1.37-.05-.03-.11-.07-.16-.1-.68-.42-1.37-.83-2.06-1.23-.1-.06-.19-.12-.29-.17-.65-.38-1.31-.74-1.96-1.1-.14-.08-.27-.15-.41-.23-.62-.34-1.24-.66-1.87-.98-.17-.09-.35-.18-.52-.27-.6-.3-1.19-.59-1.79-.88-.2-.1-.41-.2-.61-.3-.58-.27-1.15-.53-1.73-.79-.23-.1-.46-.21-.69-.31-.56-.24-1.12-.48-1.68-.71-.25-.1-.5-.21-.75-.31-.54-.22-1.09-.43-1.63-.63-.27-.1-.54-.21-.8-.31-.53-.2-1.06-.38-1.59-.56-.28-.1-.57-.2-.85-.3-.52-.18-1.04-.34-1.56-.5-.29-.09-.59-.19-.88-.28-.51-.16-1.02-.3-1.53-.44-.3-.09-.61-.18-.91-.26-.5-.14-1.01-.26-1.51-.39-.31-.08-.62-.16-.93-.23-.5-.12-.99-.22-1.49-.33l-.95-.21c-.49-.1-.98-.19-1.47-.28l-.96-.18c-.49-.08-.97-.15-1.45-.23l-.96-.15c-.48-.07-.96-.12-1.45-.18-.32-.04-.64-.08-.96-.11-.48-.05-.97-.09-1.45-.13-.31-.03-.63-.05-.94-.08a71 71 0 0 0-1.46-.07c-.3-.01-.61-.03-.91-.04-.49-.01-.97-.02-1.46-.02h-.89c-.49 0-.97.02-1.46.03q-.435 0-.87.03c-.49.02-.98.06-1.47.09-.28.02-.56.03-.84.06-.49.04-.98.1-1.48.15-.27.03-.54.05-.8.09-.5.06-.99.14-1.48.21-.26.04-.51.07-.77.12-.5.08-.99.18-1.49.28-.19.04-.38.07-.57.11l-12.55-21.41s-.03-.03-.04-.05a1 1 0 0 0-.09-.1.4.4 0 0 0-.11-.08c-.01 0-.01-.02-.02-.02h-.02s0-.02-.01-.02l-18.43-10.05s.04-.09.05-.14c.04-.1.08-.19.12-.29l.06-.18c.04-.11.08-.22.12-.34.01-.04.02-.09.04-.13.19-.63.32-1.33.37-2.1v-.8c0-.16-.01-.33-.02-.5 0-.07 0-.14-.01-.21q-.015-.255-.06-.51l-.03-.23c-.03-.17-.06-.35-.1-.53-.02-.08-.03-.16-.05-.23-.04-.18-.09-.37-.14-.56-.02-.08-.04-.16-.07-.24-.06-.19-.12-.39-.18-.59-.03-.07-.05-.15-.08-.22-.08-.21-.15-.42-.24-.64-.02-.06-.05-.12-.08-.18-.1-.24-.2-.47-.32-.71 0-.02-.02-.04-.03-.05-.28-.57-.59-1.15-.97-1.76-2.94-4.75-6.28-8.17-9.23-11.19-3.22-3.29-6-6.14-7.58-9.91-.74-1.76-1.45-3.49-2.11-5.1-1.07-2.62-1.92-4.69-2.62-6.25v-.01c-.15-.35-.3-.66-.44-.95-.02-.05-.05-.11-.07-.15-.13-.26-.24-.5-.36-.72-.03-.06-.06-.13-.09-.18-.1-.2-.2-.37-.3-.53-.03-.06-.07-.12-.1-.17-.09-.14-.17-.26-.25-.37-.02-.03-.05-.08-.07-.1l-.05-.16a.87.87 0 0 0-.43-.51.92.92 0 0 0-.67-.07c-.11.03-.2.09-.28.15 0 0-.02 0-.02.01-.04.04-.07.09-.11.13s-.08.08-.11.13c-.11.21-.13.44-.06.67.09.27.17.55.24.77v.01c0 .02 0 .04.01.06.07.32.15.7.25 1.15.52 2.36 1.4 6.32 1.36 9.12 0 .58-.05 1.38-.1 2.35-.04.8-.09 1.71-.13 2.71 0 .08 0 .16-.01.24 0 .25-.02.5-.03.76 0 .14 0 .27-.01.41 0 .23-.01.47-.02.72 0 .17 0 .35-.01.52 0 .23 0 .46-.01.7v2.61c0 .22 0 .43.01.65 0 .24.01.48.02.73 0 .22.02.44.03.67.01.24.02.49.04.73.01.23.03.46.04.69.02.24.03.49.05.73l.06.71c.02.24.04.49.07.73.02.25.05.49.08.74.03.24.05.47.08.7.03.27.08.54.12.81l.09.64c.08.47.16.94.25 1.41.03.17.07.33.11.5l.18.87-10.37-5.66-37.37-67.02a.7.7 0 0 0-.2-.22.68.68 0 0 0-.75-.05l-5.85 3.26V56.58c0-6.25 1.29-10.42 3.82-12.37l.47-.33c2.81-1.78 7.07-1.13 12.67 1.92 1.41.77 5.78 3.15 12.49 6.79 226.03 122.94 283.95 155.15 292.74 160.52 16.33 9.98 24.5 19.58 26.66 31.86.03.17.05.34.08.51.05.28.09.57.13.86.25 1.85.38 3.76.38 5.74v239.29c0 11.5-1.18 17.57-3.83 19.67l-.38.27H461zm12.04-25.45c0 11.92-1.21 17.85-4.04 19.83l-4.36 3.06c.04-.11.08-.22.13-.33.06-.16.12-.33.18-.5.05-.13.09-.27.14-.41.06-.19.12-.4.18-.6.05-.19.1-.38.15-.58.06-.22.11-.45.16-.69.04-.16.07-.33.1-.49.04-.22.09-.45.13-.69.03-.15.06-.3.08-.46.06-.36.11-.73.16-1.11.02-.19.05-.38.07-.57q.045-.39.09-.81l.06-.58c.04-.42.08-.86.11-1.31.02-.21.03-.42.04-.63l.06-.95c.01-.23.02-.45.04-.69l.06-1.53c0-.21.01-.44.02-.65 0-.38.02-.77.03-1.17 0-.26 0-.53.01-.79V252.1c0-2.05-.13-4.03-.39-5.95-.01-.09-.03-.17-.04-.26-.06-.39-.11-.77-.18-1.16-2.21-12.7-10.58-22.59-27.32-32.82-8.8-5.38-66.75-37.6-292.82-160.56-6.69-3.64-11.05-6.01-12.47-6.78-.15-.08-.29-.15-.44-.23-.26-.14-.52-.28-.78-.4-.18-.09-.36-.17-.54-.26-.24-.11-.47-.22-.7-.33-.18-.08-.35-.15-.52-.23-.23-.1-.46-.19-.69-.28-.16-.06-.32-.13-.48-.19-.25-.09-.5-.18-.75-.26-.13-.04-.26-.09-.38-.13-.35-.11-.69-.2-1.02-.29-.16-.04-.32-.07-.48-.11l-.55-.12-.53-.09-.45-.06c-.19-.02-.37-.04-.55-.05-.12 0-.23-.01-.35-.02-.16 0-.32-.02-.47-.02h-.28l3.83-2.69c2.79-2.29 7.26-1.78 13.26 1.49 1.42.77 5.81 3.16 12.54 6.82 225.99 122.91 283.9 155.11 292.68 160.48.01 0 .03.02.04.02 19.33 11.82 27.21 23.11 27.21 38.96v239.29z"/>
        <path d="M363.079 255.78h.01c.29-.02.59-.07.88-.14.11-.03.22-.06.33-.1.17-.05.33-.1.5-.16.15-.06.3-.12.45-.19.11-.05.22-.1.33-.16.19-.1.37-.2.55-.31.05-.03.11-.07.16-.1 3.6-2.3 6.38-7.46 7.88-10.82 2.61-5.83 4.31-12.61 4.24-16.8l7.62-2.32c.35-.11.64-.35.8-.68v-.04c.07-.15.12-.31.14-.47 0-.08-.01-.16-.02-.23 0-.09 0-.18-.02-.26 0-.02 0-.03-.01-.05a1.375 1.375 0 0 0-1.73-.9l-7.15 2.3c-1.06-3.75-4.41-8.69-9.91-11.92-4.02-2.36-10.66-4.6-19.42-1.85-2.59.81-4.95 1.97-7.09 3.35 0 0-.01 0-.02.01q-.63.405-1.23.84l-.09.06q-.57.405-1.11.84c-.04.03-.08.07-.12.1-.34.28-.68.56-1.02.85-.05.04-.1.09-.15.14-.32.28-.63.57-.94.86l-.16.16c-.3.29-.59.58-.88.88-.06.06-.11.12-.17.18-.28.29-.55.59-.81.88l-.17.2c-.26.3-.51.59-.76.89-.06.07-.11.14-.17.22-.24.3-.48.6-.7.9-.06.08-.12.16-.17.24-.22.3-.44.6-.65.9-.06.08-.11.17-.17.25a23 23 0 0 0-.76 1.16c-.19.3-.38.6-.56.9-.05.09-.11.18-.16.28-.17.3-.34.59-.51.89-.05.1-.1.19-.15.29-.16.29-.31.59-.46.88l-.15.3c-.14.29-.28.58-.42.86-.05.1-.09.2-.14.31-.13.28-.26.57-.38.85-.04.1-.09.21-.13.31-.12.28-.23.55-.33.83-.04.11-.08.22-.12.32-.1.27-.2.53-.29.8-.04.11-.08.22-.11.33-.09.26-.17.51-.25.76-.04.12-.07.23-.1.34-.07.24-.14.49-.21.72l-.09.35c-.06.23-.12.46-.17.69-.03.12-.05.24-.08.35-.05.22-.09.43-.13.65l-.06.36c-.04.2-.07.4-.1.6-.02.12-.03.24-.05.36-.02.19-.05.37-.06.55l-.03.36-.03.5c0 .12-.01.24-.01.36v.8c0 .14.01.27.02.4 0 .12.02.23.03.34 0 .05 0 .11.02.17-.11.22-.13.47-.06.7.03.09.07.18.13.25.02.02.04.04.05.06a.8.8 0 0 0 .13.13c.03.02.06.03.08.05.05.03.1.06.15.08.03.01.06.02.1.03.03 0 .06.02.1.03 3.4 2.59 26.89 13.16 35.57 13.16.24 0 .48 0 .7-.03zm-35.62-16.5c0-.14.02-.28.03-.43l.03-.38c.01-.13.03-.28.05-.41l.06-.44c.02-.12.04-.24.06-.35.03-.18.06-.36.1-.55 0-.03.01-.06.02-.1.23-1.14.57-2.36 1.01-3.65.02-.04.03-.09.04-.13.1-.28.2-.56.31-.84.03-.07.05-.14.08-.21.1-.27.22-.54.33-.8.04-.09.07-.17.11-.26.11-.26.23-.53.35-.79.04-.1.08-.19.13-.29.12-.26.25-.52.38-.78.05-.1.1-.2.15-.31.13-.26.26-.51.4-.77.06-.11.11-.22.17-.32.14-.25.28-.5.43-.76.06-.11.13-.23.2-.34l.45-.75c.07-.11.14-.23.21-.34.16-.25.32-.49.48-.73.08-.12.16-.24.24-.35q.24-.36.51-.72c.08-.12.17-.23.26-.35.17-.24.35-.47.53-.71.09-.12.18-.23.27-.35.18-.23.37-.46.56-.69.1-.12.19-.23.29-.34.19-.23.39-.45.59-.67l.31-.34c.2-.22.41-.44.62-.65l.33-.33c.21-.21.43-.42.65-.63.11-.11.23-.21.34-.32.22-.21.45-.41.68-.61l.36-.3c.24-.2.47-.4.72-.59.12-.09.24-.18.36-.28.25-.19.5-.38.76-.56.12-.09.24-.17.37-.25.26-.18.53-.37.8-.54.12-.08.24-.15.36-.22.28-.18.57-.35.86-.52l.33-.18c.31-.17.62-.34.93-.5.09-.04.18-.08.27-.13.35-.17.69-.34 1.05-.49.02 0 .05-.02.07-.03.86-.37 1.74-.71 2.65-1 .64-.2 1.26-.37 1.87-.51l.39-.09c.49-.11.97-.2 1.44-.28l.39-.06c1.16-.17 2.27-.25 3.32-.26h.31c.43 0 .86.02 1.28.05.11 0 .23.01.34.02 1 .08 1.96.23 2.85.43.09.02.18.04.27.07.36.09.71.18 1.06.28.09.03.19.05.28.08.83.25 1.6.55 2.31.86.08.03.16.07.23.11.28.13.56.26.82.4.07.04.14.07.21.11.32.17.63.34.92.51.62.37 1.21.76 1.78 1.17l.09.06c.54.4 1.05.81 1.54 1.24.05.04.1.08.14.12q.705.63 1.32 1.29a23 23 0 0 1 1.28 1.48c.04.06.09.11.13.17.35.44.67.89.96 1.33.04.05.07.11.1.16.29.45.55.89.78 1.33.02.05.05.09.07.14.23.44.44.88.61 1.3a12 12 0 0 1 .47 1.35v.01l-49.23 15.86c0-.1-.01-.21-.02-.32 0-.1 0-.19-.01-.29v-.75zm42.68 9.04c-.19.31-.39.6-.59.89 0 0 0 .01-.01.02-.2.29-.4.56-.6.83 0 0-.01.02-.02.03-.2.27-.4.52-.61.77 0 0-.02.02-.02.03-.2.25-.41.48-.62.7 0 0-.01.02-.02.02-.21.23-.42.44-.64.65l-.01.01c-1.09 1.03-2.21 1.74-3.34 2.01l-.17.03c-.17.03-.33.07-.5.08h-.02c-.16.01-.33.01-.5.02h-.24c-.13 0-.27-.01-.41-.02-.15 0-.3-.01-.46-.02-.11 0-.23-.02-.35-.03-.2-.02-.41-.04-.62-.07-.09-.01-.18-.03-.27-.04-.26-.04-.52-.08-.79-.13-.06-.01-.12-.02-.17-.03-.33-.06-.66-.12-1-.2h-.03c-6.54-1.41-16.17-5.28-22.9-8.37-2.9-1.34-5.26-2.53-6.6-3.32l48.37-14.75c-.06 5.3-2.94 14.69-6.86 20.88v.02zm-87.44-84.51c-.48-.8-1.1-1.86-1.82-3.11-3.28-5.67-8.67-15.22-12.6-22.21-2.77-4.92-4.8-8.57-4.86-8.67-.12-.22-.36-.32-.61-.36-.25 0-.49.14-.61.37-.15.27-14.79 27.15-19.26 33.95-3.19 4.86-5.08 12.64-3.8 19.99.43 2.45 1.21 4.85 2.41 7.07 2.68 4.96 8.54 10.88 21.27 10.88s18.26-5.62 20.93-10.33c4.27-7.53 3.45-17.67.4-24.74-.44-1.02-.92-1.97-1.45-2.85zm-.18 26.89c-3.57 6.29-10.38 9.62-19.71 9.62s-16.46-3.51-20.04-10.14c-1.09-2.03-1.81-4.26-2.21-6.55-1.2-6.89.48-14.4 3.55-19.07 3.98-6.06 15.88-27.76 18.71-32.94.97 1.74 3 5.35 5.39 9.61 3.66 6.5 8.18 14.51 11.16 19.68.85 1.47 1.58 2.72 2.12 3.63.99 1.65 1.83 3.6 2.48 5.73 1.93 6.38 2.02 14.33-1.45 20.44zm14.712 153.41c1.76-1.77 3.37-3.72 4.77-5.83 8.77-13.16 9.48-31.57 1.93-50.5a87 87 0 0 0-4.55-9.59 92 92 0 0 0-7.28-11.19 98.5 98.5 0 0 0-8.97-10.29c-13.77-13.76-30.56-22.73-47.3-25.26-.01 0-.02 0-.03-.01-2.89-.43-5.74-.67-8.49-.69-9.05.05-17.39 2.33-24.12 6.6l-.01.01c-2.4 1.52-4.61 3.29-6.57 5.25-2.59 2.6-4.8 5.56-6.58 8.82-.47.86-.92 1.78-1.35 2.73-9.82 21.87-.76 53.06 22.02 75.84 16.15 16.15 37.12 25.86 56.09 25.96 7.98-.08 15.2-1.84 21.46-5.21.62-.33 1.22-.69 1.82-1.05 2.62-1.6 5.03-3.48 7.14-5.6zm-12.84-84.08c.27.29.54.59.81.89.46.5.92 1.01 1.37 1.52.29.33.56.66.84.99.42.49.84.98 1.25 1.48.28.34.55.69.83 1.03.39.49.78.99 1.17 1.49.27.35.54.71.8 1.07a83 83 0 0 1 1.86 2.6c.35.51.7 1.03 1.05 1.55.24.36.48.73.72 1.09.34.53.67 1.06 1 1.59.22.37.45.73.67 1.1.09.15.17.29.25.44l-18.75-9.42c0-2.05-.09-5.62-.47-7.98v-.04c-.03-.19-.07-.37-.1-.54 0-.02 0-.04-.01-.07-.04-.16-.07-.32-.11-.46 0-.02 0-.04-.01-.06-.05-.16-.1-.32-.15-.45a.86.86 0 0 0-.1-.54.8.8 0 0 0-.22-.27l-.06-.03c-.06-.04-.12-.08-.19-.1l-.12-.03c-.03 0-.06-.02-.09-.02-.06-.05-.13-.08-.19-.12-.13-.09-.26-.17-.39-.25-.11-.06-.22-.11-.34-.17-.15-.07-.3-.14-.47-.2-.12-.04-.24-.08-.37-.11-.18-.05-.35-.1-.54-.14-.12-.03-.25-.05-.38-.07-.2-.03-.4-.07-.61-.09l-.37-.03c-.23-.02-.45-.03-.69-.04h-.34c-.26 0-.51 0-.78.01-.08 0-.17.01-.25.02-.3.02-.6.04-.91.07h-.05c-3.43.36-7.25 1.52-10.01 2.5l-11.49-5.77-11.35-19.36.69.12c.56.1 1.13.21 1.69.33a78 78 0 0 1 4.43 1.09c.53.15 1.06.3 1.59.46.48.15.97.3 1.45.46.52.17 1.03.34 1.55.52q.735.255 1.47.54c.51.19 1.01.38 1.52.58.49.2.99.4 1.48.61.5.21 1 .42 1.49.64.5.22.99.45 1.48.68s.98.46 1.47.7.99.5 1.48.75c.48.25.97.5 1.45.76.49.26.97.54 1.46.82.48.27.96.54 1.43.82.48.28.96.58 1.44.88.47.29.95.58 1.42.88s.94.62 1.41.94c.47.31.94.62 1.4.94s.92.66 1.38.99.93.66 1.38 1 .89.69 1.34 1.04c.46.36.92.71 1.38 1.08.43.35.85.71 1.28 1.07.46.39.93.77 1.38 1.16.41.35.81.73 1.21 1.09.46.42.93.83 1.39 1.25.36.34.71.69 1.07 1.03.48.46.97.92 1.45 1.4.14.14.28.29.42.44.62.62 1.23 1.25 1.82 1.88zm14.93 78.2a40.6 40.6 0 0 1-7.42 2.87c-.1.03-.2.05-.3.08q-.825.225-1.65.42l-.54.12c-.48.1-.96.21-1.45.3-.25.05-.51.09-.77.13-.34.06-.68.11-1.02.16l-20.47-31.8 37.21-21.44c.16.42.31.83.47 1.25.23.61.46 1.22.66 1.83.18.53.34 1.05.51 1.58.19.61.39 1.22.57 1.83.15.52.28 1.03.41 1.55.16.61.33 1.23.47 1.84.12.5.22 1 .32 1.5.13.62.27 1.24.38 1.85.09.48.15.95.23 1.42.1.63.21 1.27.29 1.9.06.44.09.88.14 1.31.07.65.15 1.31.2 1.95.03.4.04.79.06 1.19.04.68.08 1.36.09 2.03v1.01c0 .72 0 1.43-.03 2.14-.01.26-.04.52-.05.78-.04.77-.09 1.54-.16 2.3l-.06.46c-.74 6.7-2.82 12.85-6.22 18.16-.09.14-.17.29-.26.42-.45.26-.91.5-1.38.74-.07.04-.15.08-.22.12zm-15.83 4.38c-.44.04-.88.07-1.33.1l-.6.03c-.44.02-.88.04-1.33.05-.21 0-.41 0-.62.01h-1.96c-.44 0-.88-.02-1.32-.04-.22 0-.43-.02-.65-.03q-.66-.03-1.32-.09c-.22-.02-.44-.03-.66-.05a59 59 0 0 1-1.99-.21c-.44-.05-.88-.11-1.32-.17-.23-.03-.46-.07-.69-.1-.44-.07-.87-.14-1.31-.22l-.7-.12a85 85 0 0 1-2.01-.41c-.43-.09-.86-.19-1.3-.3-.24-.06-.48-.11-.72-.17-.43-.11-.86-.22-1.29-.34-.24-.07-.49-.13-.73-.2-.43-.12-.85-.25-1.28-.37-.25-.07-.5-.15-.74-.23-.42-.13-.85-.27-1.27-.41-.25-.08-.5-.16-.75-.25a27 27 0 0 1-1.25-.45c-.25-.09-.51-.18-.76-.28-.41-.15-.83-.32-1.24-.48-.26-.1-.52-.2-.77-.31-.41-.17-.81-.34-1.22-.51-.26-.11-.52-.22-.79-.34-.4-.17-.8-.36-1.2-.54-.27-.12-.54-.24-.8-.37-.39-.18-.78-.38-1.17-.57-.27-.13-.54-.26-.81-.4-.39-.19-.77-.39-1.15-.59-.27-.14-.55-.28-.82-.43-.38-.2-.75-.41-1.12-.61-.28-.16-.56-.31-.85-.47-.36-.21-.73-.42-1.09-.63-.29-.17-.57-.33-.86-.51-.35-.21-.7-.43-1.06-.65-.29-.18-.59-.36-.88-.55l-1.02-.66c-.3-.19-.6-.39-.89-.59-.33-.22-.66-.45-.99-.68-.3-.21-.6-.41-.9-.63-.32-.22-.63-.45-.94-.68s-.62-.45-.93-.68c-.3-.22-.59-.45-.89-.68-.32-.24-.64-.48-.96-.73-.29-.22-.57-.46-.85-.68-.32-.26-.65-.52-.97-.78-.27-.22-.54-.45-.81-.68-.33-.28-.66-.55-.99-.84-.25-.21-.49-.43-.74-.65-.35-.3-.69-.61-1.03-.92-.21-.19-.42-.39-.63-.59-.37-.34-.74-.68-1.11-1.03l-.14-.14c-.52-.5-1.04-1-1.55-1.52-.09-.09-.17-.18-.26-.27-.77-.77-1.53-1.56-2.26-2.35-.33-.35-.64-.72-.96-1.07-.49-.54-.98-1.08-1.45-1.63-.36-.42-.71-.85-1.06-1.27-.41-.5-.83-1-1.24-1.5-.36-.46-.71-.92-1.07-1.38-.37-.48-.75-.97-1.11-1.46-.36-.48-.7-.97-1.04-1.45s-.68-.96-1.01-1.44c-.34-.5-.67-1.01-1-1.51-.31-.47-.62-.95-.92-1.43-.33-.52-.64-1.04-.96-1.56-.28-.47-.56-.94-.84-1.42-.31-.54-.61-1.07-.9-1.61q-.39-.705-.75-1.41c-.29-.55-.57-1.1-.85-1.66-.23-.46-.45-.93-.68-1.39-.27-.56-.53-1.13-.79-1.69-.21-.46-.4-.92-.6-1.38a55 55 0 0 1-1.24-3.09c-.22-.59-.45-1.18-.65-1.77-.15-.44-.29-.88-.44-1.32-.2-.6-.4-1.21-.59-1.81-.13-.42-.24-.84-.36-1.26-.18-.63-.36-1.25-.52-1.88-.09-.37-.17-.74-.26-1.11-.4-1.69-.75-3.37-1.01-5.06l4.06 6.71s.05.04.07.06c.06.07.12.14.2.19l24.45 13.05c-.01.16-.01.32-.02.49-.02.31-.03.63-.04.94v1.56c0 .25.02.49.04.73.01.27.02.53.04.79.02.29.06.56.09.84.02.21.04.43.07.64.06.48.14.95.22 1.42.03.17.07.33.1.49.06.3.12.61.2.9.04.18.1.36.14.53.07.27.14.54.22.8.06.18.12.36.18.53.08.25.17.5.26.74.07.18.14.35.21.52.09.23.19.46.29.68.08.17.16.33.24.5.11.21.21.43.33.63.09.16.18.31.27.47.12.2.24.4.36.59.1.15.2.29.3.44.13.18.26.36.4.54.1.14.21.27.32.4.14.17.29.33.43.49a10 10 0 0 0 .81.8c.12.11.23.21.36.31.17.14.34.27.52.4.12.09.24.18.36.26.05.03.09.07.14.1a764 764 0 0 0-6.5 8.55c-.31.44-.38.89-.29 1.3.09.4.34.75.66.99.02.01.04.02.05.03a1.7 1.7 0 0 0 .48.22c.13.04.27.06.4.06h.04c.04 0 .09-.01.13-.02.05 0 .11 0 .16-.02.06-.01.12-.03.18-.05.05-.02.1-.03.15-.06.06-.02.11-.05.17-.08.05-.03.09-.06.14-.09.05-.04.1-.07.15-.11.05-.05.1-.1.15-.16.03-.04.07-.07.1-.11 2.21-3.06 4.45-6.1 6.69-9.13.06.02.12.04.19.06.48.17.96.32 1.45.46.02 0 .03.01.05.01.51.14 1.01.25 1.52.36.11.02.22.04.34.06.49.09.99.17 1.48.24h.03c.51.06 1.01.11 1.52.14.11 0 .23.01.34.02.49.03.97.04 1.46.04h.18c.66 0 1.31-.03 1.96-.07.19-.01.38-.03.58-.04.56-.05 1.12-.11 1.67-.18.12-.02.24-.03.36-.05.66-.1 1.31-.21 1.95-.34.15-.03.29-.06.43-.09.52-.11 1.03-.23 1.53-.35.14-.03.28-.07.42-.1.61-.16 1.2-.32 1.77-.5.04-.01.07-.02.1-.03q.81-.255 1.56-.51l.33-.12c.5-.18.99-.36 1.44-.54h.02c.39-.15.77-.31 1.13-.46l3.36 1.8 20.41 31.7c-.19.02-.37.05-.55.06-.19.02-.39.04-.58.05zm-83.23-96.07q.195-.57.42-1.14c.07-.19.14-.39.21-.58.12-.31.26-.62.39-.93.11-.25.21-.5.32-.75s.24-.5.35-.75c.14-.3.28-.6.42-.89.1-.2.21-.39.31-.58.18-.34.35-.68.54-1.01l.27-.45c.19-.33.38-.66.58-.98 6.49-4.08 14.53-6.26 23.24-6.31 2.6.03 5.27.24 7.96.64l11.68 19.92-43.46 23.8-5.35-8.85-.03-.39c-.05-.56-.1-1.11-.14-1.66 0-.1 0-.19-.01-.29-.04-.59-.07-1.18-.08-1.77v-.13c-.16-5.93.62-11.52 2.3-16.59.03-.1.06-.2.1-.3zm59.94 13.08c.38-.14.75-.26 1.13-.39.12-.04.24-.08.35-.12.23-.08.45-.14.68-.22.35-.11.71-.22 1.05-.33.11-.03.22-.06.33-.1 3.25-.94 6.06-1.43 8.22-1.43 1.08 0 1.98.12 2.71.36l.1.03c.18.06.34.14.49.22l.12.06c-1.08 1.35-2.17 2.7-3.25 4.05l-1.83 2.29c-6.89 8.6-12.99 16.25-18.65 23.37-.02.02-.04.04-.06.07l-3.31 4.19c-1.79 2.26-3.58 4.53-5.37 6.79-2.63 3.34-5.24 6.68-7.84 10.04-.06-.04-.12-.07-.17-.11q-.21-.135-.42-.3c-.14-.1-.27-.2-.4-.31s-.26-.22-.38-.33c-.13-.12-.26-.24-.38-.37-.12-.12-.24-.24-.35-.37-.12-.14-.25-.28-.37-.42-.11-.13-.21-.26-.32-.4-.12-.15-.23-.31-.34-.48-.1-.14-.19-.29-.29-.43-.11-.17-.21-.35-.31-.52-.09-.15-.18-.31-.26-.47-.1-.19-.19-.38-.29-.57-.08-.16-.16-.32-.23-.49-.09-.2-.17-.41-.26-.62-.07-.17-.14-.34-.2-.52-.08-.22-.15-.44-.22-.66-.06-.18-.12-.35-.17-.53-.07-.23-.13-.48-.19-.72-.05-.18-.1-.36-.14-.54-.06-.26-.11-.52-.16-.78a10 10 0 0 1-.1-.53c-.05-.29-.09-.58-.13-.87-.02-.16-.05-.32-.07-.49-.04-.33-.07-.67-.1-1.02-.01-.13-.03-.26-.04-.39-.03-.42-.05-.85-.06-1.28v-.17c-.02-1 .01-2.02.09-3.07.67-8.74 4.74-16.44 10.87-20.62.01 0 .03-.02.04-.03 6.24-4.24 13.68-8.06 20.41-10.48 0 0 .01 0 .02-.01.02 0 .03-.01.05-.02h.03zm41.58 26.66c.21.49.41.98.61 1.46l-37.69 21.72-2.22-1.19c.18-.08.36-.18.54-.26.36-.17.71-.35 1.07-.53.4-.2.79-.41 1.17-.62.33-.18.67-.36 1-.55.4-.23.78-.46 1.16-.7.3-.19.61-.37.91-.56.42-.27.81-.55 1.21-.83.23-.16.47-.31.68-.47.76-.56 1.45-1.34 2.09-2.31 0 0 0-.01.01-.02.15-.22.29-.46.43-.7.01-.02.03-.05.04-.07.13-.23.26-.48.39-.73.02-.04.04-.07.06-.11.12-.25.24-.5.36-.76.02-.05.04-.09.06-.14.11-.26.23-.52.33-.79.02-.05.04-.11.07-.16.11-.27.21-.55.31-.83.02-.06.04-.12.07-.18.1-.28.2-.57.29-.86.02-.06.04-.13.06-.19.09-.29.19-.59.28-.9l.06-.2c.09-.31.17-.62.26-.93l.06-.21c.08-.32.17-.64.24-.97.02-.07.03-.14.05-.2.08-.33.16-.66.23-1 .01-.07.03-.13.04-.2.07-.34.15-.69.22-1.04.01-.06.02-.12.04-.18l.21-1.08.03-.17c.07-.37.13-.74.19-1.11 0-.05.02-.1.02-.14l.18-1.15c0-.04.01-.08.02-.12.06-.4.12-.79.17-1.19 0-.03 0-.06.01-.09.06-.41.11-.82.16-1.24v-.03c.65-5.21.93-10.52.97-14.76l20.02 10.06c1.22 2.23 2.34 4.51 3.34 6.79.06.14.12.28.18.43zm-43.21 22.12c-.24.09-.5.18-.75.27l-.42.15c-.23.08-.48.16-.72.24l-.54.18c-.23.07-.48.14-.72.21-.2.06-.4.12-.61.18-.24.07-.49.13-.73.19-.22.06-.44.12-.67.17-.24.06-.5.11-.75.17-.24.05-.47.11-.71.15-.25.05-.51.09-.76.14-.25.04-.49.09-.75.13s-.52.07-.77.11c-.26.04-.51.07-.78.1-.26.03-.52.05-.78.07-.27.02-.53.05-.8.06-.26.02-.52.02-.79.03-.27 0-.55.02-.82.02h-.79q-.42 0-.84-.03c-.26-.01-.53-.04-.79-.06-.28-.02-.57-.05-.85-.08-.26-.03-.52-.07-.78-.11-.29-.04-.58-.09-.86-.15-.26-.05-.52-.11-.77-.16-.29-.07-.58-.14-.87-.22-.25-.07-.51-.14-.76-.22-.15-.05-.29-.1-.44-.15 2.43-3.28 4.86-6.54 7.31-9.8 8.16-10.83 16.56-21.76 24.7-32.33l1.92-2.5c1.49-1.93 2.97-3.87 4.46-5.8v.02c.28 1.54.5 4.4.5 8.48 0 11.77-1.98 30.74-7.45 34.74-2.57 1.88-5.61 3.6-8.78 4.96 0 0-.02.01-.03.02-.54.23-1.15.48-1.8.73-.07.03-.14.05-.21.08zm-22.33 1.34c-2.35 3.18-4.69 6.36-7.01 9.56-.1.13-.21.15-.34.05a.2.2 0 0 1-.09-.1c-.05-.1.01-.19.04-.22 2.08-2.78 4.35-5.77 6.96-9.14 2.6-3.37 5.22-6.72 7.85-10.06-2.47 3.29-4.94 6.59-7.39 9.9zm21.47-50.68c-.51.2-1.02.41-1.54.62-.32.13-.64.27-.97.41-.52.22-1.05.45-1.57.69-.32.14-.64.29-.96.44-.53.25-1.06.49-1.59.75-.32.15-.63.31-.95.47-.53.27-1.06.53-1.59.81-.31.16-.62.33-.94.5-.53.28-1.06.56-1.58.86-.3.17-.6.34-.91.52-.53.3-1.05.6-1.57.91-.28.16-.55.33-.82.5-.53.33-1.07.65-1.59.98l-.45.3c-.61.4-1.23.79-1.82 1.19a23 23 0 0 0-4.19 3.7c-.04.04-.08.08-.12.13-.26.29-.5.59-.75.9-.07.08-.13.16-.2.24-.22.29-.44.58-.65.88l-.24.33c-.2.28-.38.57-.57.87-.09.14-.18.27-.26.41-.18.28-.34.58-.51.87-.09.15-.18.3-.26.46-.16.29-.3.58-.45.87-.08.17-.17.34-.25.51-.14.29-.27.59-.4.88-.08.18-.16.36-.24.55-.12.3-.24.6-.35.9a37 37 0 0 0-.52 1.5c-.06.2-.13.4-.19.6-.09.31-.18.62-.27.94-.05.2-.11.41-.16.61a28 28 0 0 0-.34 1.58c-.07.34-.13.67-.18 1.02l-.09.59c-.05.35-.1.71-.14 1.07 0 .07-.02.14-.03.21l-22.78-12.15 43.22-23.66 10.18 5.11c-.13.05-.26.11-.4.16zm-67.75-4.32c.42-.93.85-1.81 1.3-2.64 1.71-3.15 3.84-6.01 6.34-8.5.18-.18.38-.36.57-.54.34-.33.68-.65 1.04-.97.26-.23.54-.46.81-.68.33-.27.65-.54.99-.8l.39-.3a22 22 0 0 0-.46.91c-.15.31-.3.62-.44.93-.1.23-.21.46-.31.69-.14.32-.27.64-.41.97-.09.23-.19.46-.28.7-.13.33-.25.67-.37 1.01-.08.23-.17.46-.24.7-.12.35-.23.71-.34 1.07l-.21.67c-.12.4-.22.8-.33 1.21l-.15.57c-.14.58-.28 1.17-.4 1.77-.05.23-.09.46-.13.69l-.21 1.13c-.05.29-.09.59-.13.88-.05.32-.1.65-.14.98-.04.31-.07.63-.11.94-.03.32-.07.63-.1.95s-.05.64-.08.96l-.06.96c-.02.32-.03.64-.04.96-.01.34-.02.69-.02 1.03v.91c0 .39 0 .79.02 1.18 0 .26 0 .51.02.77.02.53.05 1.07.08 1.61 0 .12.01.24.02.36q.075 1.065.18 2.16c1.79 17.46 11.13 35.8 25.64 50.31.95.95 1.93 1.88 2.91 2.79.12.11.23.22.35.32.94.86 1.9 1.7 2.86 2.51.16.13.31.26.47.39.96.8 1.94 1.59 2.92 2.35.14.11.29.22.43.33 1.02.78 2.05 1.54 3.09 2.26.06.04.11.08.17.12 1.04.73 2.09 1.43 3.15 2.11.09.06.18.12.26.17 1.04.66 2.1 1.3 3.15 1.91.17.1.33.2.5.29 1.03.59 2.07 1.16 3.11 1.7.18.09.36.19.54.28 1.06.54 2.12 1.06 3.18 1.55.13.06.27.12.4.18 1.08.49 2.16.96 3.25 1.4.05.02.1.04.16.07 1.09.44 2.19.84 3.28 1.23.18.06.36.13.53.19 1.05.36 2.1.69 3.15 1 .21.06.43.13.64.19 1.04.3 2.09.58 3.13.82.19.05.39.09.58.13 1.08.25 2.15.48 3.23.67.09.02.18.03.27.04 1.03.18 2.05.33 3.07.46.18.02.35.05.53.07 1.02.12 2.04.21 3.06.28.23.02.46.03.69.04q1.5.09 2.97.09h.29c.31 0 .63-.01.94-.02h.48c.53-.01 1.06-.04 1.58-.07.11 0 .22 0 .32-.02 1.29-.08 2.58-.2 3.85-.37h.03c.64-.09 1.28-.19 1.91-.3l.77-.15c.39-.08.78-.15 1.16-.24.29-.06.57-.13.85-.2q.525-.12 1.05-.27c.28-.08.57-.15.85-.23l1.1-.33c.25-.08.49-.15.74-.23.57-.19 1.13-.39 1.69-.61.23-.09.46-.19.7-.28.36-.14.71-.29 1.06-.44.24-.11.49-.22.73-.33.17-.08.35-.15.52-.24-.03.03-.05.07-.08.1-.4.51-.82 1.01-1.25 1.49-.02.02-.04.05-.06.07-.47.53-.96 1.05-1.46 1.55a36.7 36.7 0 0 1-6.88 5.39c-.58.35-1.16.7-1.76 1.02-6.06 3.26-13.06 4.96-20.8 5.04-18.6-.1-39.2-9.65-55.1-25.55-22.38-22.38-31.32-52.92-21.73-74.27zm199.4 34-.13-2.82c-.38-7.96-.53-11.25-2.11-12.21 0-.02-.02-.03-.03-.04-.04-.06-.07-.11-.12-.16a.2.2 0 0 1-.05-.04c-.05-.04-.1-.09-.17-.12-.04-.02-.09-.02-.14-.04-.04-.01-.08-.03-.13-.03h-.16c-.04 0-.08 0-.12.02-.04 0-.08 0-.12.02-.03.01-.05.04-.08.05-.06.03-.11.06-.17.1-1.8.25-6.32 2.06-11.31 5.78-.35.26-.69.52-1.04.8-.01 0-.02.02-.03.03-.34.27-.69.55-1.03.84-.02.01-.03.03-.05.04-.34.29-.68.58-1.02.88l-.06.06c-.34.3-.67.61-1.01.93l-.07.07c-.33.32-.66.64-.99.98l-.08.08c-.33.34-.66.68-.98 1.04-.02.03-.05.05-.07.08-.33.36-.65.72-.98 1.1-.02.03-.04.05-.07.07-.33.38-.65.77-.97 1.17-.02.02-.03.04-.05.06-.33.41-.65.83-.97 1.26 0 .01-.02.02-.02.03-2.63 3.56-4.93 7.8-6.51 12.79-5.41 17.14 5.57 25.24 11.06 28.1l-.5 4.2-.5 6.45c-.03.43.1.84.39 1.17s.68.52 1.11.55h.1c.4 0 .78-.15 1.07-.42.32-.3.51-.72.51-1.12l.36-6.35.32-3.18c.76.28 1.47.5 2.01.6.76.15 2.03.27 3.58.27.14 0 .31 0 .46-.01h.31c.59-.01 1.21-.05 1.85-.1.09 0 .17-.01.26-.02.31-.03.63-.07.96-.11.18-.02.36-.05.54-.07.38-.05.75-.11 1.14-.19.37-.07.74-.14 1.11-.23.27-.06.54-.14.81-.21s.54-.15.8-.23c.25-.08.51-.16.76-.24.47-.16.93-.34 1.38-.53.18-.08.34-.17.52-.25.34-.16.66-.33.99-.51a12 12 0 0 0 1.66-1.09c.07-.05.14-.09.21-.14 2.7-2.16 4.12-5.09 4.21-8.71.17-6.9-1.71-12.39-3.54-17.69-1.46-4.25-2.84-8.27-3.06-12.74zm5.1 31.65v.02c-.34 2.6-1.54 4.74-3.58 6.38-5.04 4.04-13.63 3.89-16.18 3.38-.33-.07-.73-.18-1.18-.32-.21-.07-.44-.15-.67-.24-.02 0-.03-.01-.05-.02l-.24-.09.17-1.71c.42-3.24 1.11-8.05 2-12.6.36-1.81.75-3.61 1.15-5.4v-.02c.4-1.77.82-3.52 1.25-5.27.04-.18.09-.35.14-.53.4-1.56.81-3.12 1.23-4.66l.27-.92c.39-1.4.79-2.79 1.21-4.16.13-.42.27-.84.4-1.26.39-1.25.78-2.49 1.19-3.72.17-.53.36-1.04.54-1.56.38-1.11.76-2.22 1.16-3.31.22-.62.46-1.23.69-1.85q.54-1.47 1.11-2.91c.28-.72.57-1.42.86-2.13.28-.68.56-1.37.84-2.04.03.07.06.15.09.23.02.06.05.13.07.2.49 1.64.66 5.17.89 10.18l.13 2.75c.23 4.68 1.64 8.79 3.14 13.15 1.78 5.18 3.62 10.54 3.46 17.19v.23c-.01.35-.04.69-.08 1.02zm-23.35 9.49-.06.57c-.14 1.38-.28 2.82-.35 3.57l-.14 2.48c-.08 1.45-.17 3.04-.22 3.93 0 .07-.04.12-.06.14-.01.01-.04.03-.06.04-.02 0-.04.01-.08.01-.07 0-.11-.04-.13-.07a.26.26 0 0 1-.05-.14l.49-6.42.56-4.65.21-1.73.68-4.25c.06-.37.14-.77.2-1.14-.31 2.01-.57 3.88-.77 5.42l-.22 2.23zm-11.37-12.58c-.11-.28-.21-.57-.31-.86 0-.03-.02-.06-.03-.08-.09-.29-.18-.58-.26-.87 0-.04-.02-.07-.03-.11q-.12-.435-.21-.9c0-.04-.02-.08-.03-.12-.06-.3-.12-.62-.17-.93 0-.04-.01-.09-.02-.13-.05-.32-.09-.64-.12-.97 0-.04 0-.08-.01-.12-.03-.34-.05-.68-.07-1.02v-.1c-.01-.36-.02-.72-.02-1.09v-.06c.03-2.38.45-5.02 1.37-7.94a44 44 0 0 1 1.79-4.68c.19-.41.38-.81.57-1.21.05-.09.09-.19.14-.28.19-.38.39-.76.59-1.13.05-.1.1-.19.16-.28a28 28 0 0 1 .77-1.34c.22-.37.44-.73.67-1.09.03-.05.07-.1.1-.15a43.3 43.3 0 0 1 5.18-6.52l.02-.02c.29-.3.59-.6.89-.89.02-.02.04-.04.07-.06.29-.29.59-.57.88-.84.02-.02.04-.03.05-.05.3-.28.6-.55.91-.82 4.99-4.37 9.9-6.76 12.33-7.51-.2.45-.4.91-.61 1.38-.04.09-.08.17-.11.26-.19.45-.39.91-.59 1.39-.04.09-.08.18-.11.27-.44 1.04-.88 2.13-1.35 3.31-3.18 8.05-5.88 16.31-8.03 24.55-.75 2.85-1.44 5.72-2.05 8.54v.04c-.61 2.85-1.15 5.64-1.58 8.3l-.68 4.28-.09.76c-.99-.54-2.13-1.25-3.29-2.15h-.01l-.57-.45s-.02-.01-.03-.02c-.19-.15-.38-.31-.56-.48l-.02-.02c-.19-.17-.38-.34-.57-.52-1.93-1.81-3.77-4.18-4.94-7.19 0-.01 0-.02-.01-.03z"/>
    </g>
    <defs>
        <clipPath id="a">
            <path fill="#fff" d="M76 36h398.42v477.41H76z"/>
        </clipPath>
    </defs>
</svg>
