<svg xmlns="http://www.w3.org/2000/svg" viewBox="0 0 72 72">
    <path fill="#eef" fill-rule="evenodd" d="M36.1 0c-4.3 0-8.6.4-12.9 1.1C11.5 3.1 4 9.6 1.5 21.4c-1.9 9.3-2.1 18.7-.2 28 2.3 12 9.6 19.3 21.6 21.4 4.3.8 8.7 1.1 13 1.1s8.6-.4 12.9-1.1c11.6-2 19.3-9.2 21.8-20.9 1.8-9.2 1.8-18.6 0-27.8-2.3-12-9.5-18.9-21.6-21C44.8.4 40.4 0 36.1 0" clip-rule="evenodd"/>
    <path fill="#2e3192" fill-rule="evenodd" d="M70.7 22.2c-2.3-12-9.5-18.9-21.6-21-.6-.1-1.2-.2-1.9-.3C50.2 3 58.7 9.8 62 22c.3 1 5.2 20.2-7 34-10.9 12.3-30.9 15.4-48.1 6.2 3.7 4.5 9.1 7.5 16 8.7 4.3.8 8.7 1.1 13 1.1s8.6-.4 12.9-1.1c11.6-2 19.3-9.2 21.8-20.9 1.9-9.2 1.8-18.6.1-27.8" clip-rule="evenodd" opacity=".06"/>
    <path fill="#1b1464" d="M37.6 47.7c-.1 0-.3 0-.4-.1-2.4-.9-5-.9-7.4 0-.6.2-1.4-.1-1.6-.7s.1-1.4.7-1.6c3-1.1 6.2-1.1 9.2 0 .6.2 1 1 .7 1.6-.2.5-.7.8-1.2.8" opacity=".31"/>
    <path fill="#4f0599" d="M33.9 36.2c-7 0-13.6 2.7-18.5 7.7-.5.5-.5 1.3 0 1.7.5.5 1.3.5 1.7 0 4.5-4.5 10.4-6.9 16.8-6.9s12.3 2.5 16.8 6.9c.2.2.6.4.9.4s.6-.1.9-.4c.5-.5.5-1.3 0-1.7-5-5-11.6-7.7-18.6-7.7m-20-6.7c0 2.5 2.1 4.6 4.6 4.6s4.6-2.1 4.6-4.6q0-.75-.3-1.5c.5.1 1 .1 1.6.1 1.4 0 3-.2 4.8-.7.7-.2 1-.9.9-1.5-.2-.7-.9-1-1.5-.9-8.8 2.4-12.6-3.2-12.7-3.4-.4-.6-1.1-.7-1.7-.4-.6.4-.7 1.1-.4 1.7 0 .1.9 1.3 2.6 2.6-1.5.8-2.5 2.3-2.5 4m38.5-8.3c-.6-.4-1.3-.2-1.7.4 0 .1-3.9 5.8-12.7 3.4-.7-.2-1.3.2-1.5.9s.2 1.3.9 1.5c1.8.5 3.4.7 4.8.7.5 0 1.1 0 1.6-.1q-.3.75-.3 1.5c0 2.5 2.1 4.6 4.6 4.6s4.6-2.1 4.6-4.6c0-1.7-.9-3.2-2.3-4 1.7-1.3 2.5-2.5 2.6-2.6.2-.6 0-1.3-.6-1.7"/>
    <path fill="none" stroke="#f954a2" stroke-linecap="round" stroke-linejoin="round" stroke-miterlimit="10" stroke-width="1.5" d="m46 9.5-2.3 2.3-2.3-2.3m6.5 6.6-2.3-2.3 2.3-2.3m-6.3 6.3 2.3-2.3 2.3 2.3m-6.6-6.5 2.4 2.3-2.4 2.3"/>
</svg>
