<svg xmlns="http://www.w3.org/2000/svg" viewBox="0 0 72 72">
    <path fill="#f0f0f0" d="M36.1 0c-4.3 0-8.6.4-12.9 1.1C11.5 3.1 4 9.6 1.5 21.4c-2 9.2-2.1 18.8-.2 28 2.3 12 9.6 19.2 21.6 21.4 4.3.8 8.6 1.1 13 1.1 4.3 0 8.6-.4 12.9-1.1 11.6-2 19.3-9.2 21.8-20.9 1.8-9.2 1.8-18.6 0-27.8-2.3-12-9.5-18.9-21.6-21C44.8.4 40.4 0 36.1 0"/>
    <path fill="#3b3b3b" d="M70.7 22.2c-2.3-12-9.5-18.9-21.6-21-.6-.2-1.3-.2-1.9-.3C54.4 6.1 59.6 13.5 62 22c.3 1 5.2 20.2-7 34-10.9 12.3-30.9 15.4-48 6.2 3.7 4.5 9.1 7.5 16 8.7 4.3.8 8.6 1.1 13 1.1 4.3 0 8.6-.4 12.9-1.1 11.6-2 19.3-9.2 21.8-20.9 1.8-9.2 1.8-18.6 0-27.8" opacity=".06"/>
    <path fill="#2b2b2b" d="M44.7 40.9c-8-5.4-18.5-5.4-26.5 0-.5.3-.7 1-.3 1.5s1 .6 1.6.3c7.3-4.9 16.7-4.9 24 0 .2.1.4.2.6.2.4 0 .7-.2.9-.5.4-.5.2-1.2-.3-1.5M22.2 25.1c0-2.3-1.9-4.1-4.1-4.1-2.3 0-4.2 1.9-4.2 4.1s1.9 4.1 4.2 4.1c2.3.1 4.1-1.8 4.1-4.1M44.8 21c-2.3 0-4.1 1.9-4.1 4.2s1.9 4.1 4.2 4.1 4.1-1.9 4.1-4.1c0-2.3-1.9-4.2-4.2-4.2"/>
    <path fill="#1f1f1f" d="M35.2 44.8c-.1 0-.3 0-.4-.1-2.1-.8-4.5-.8-6.6 0-.6.2-1.2 0-1.5-.6-.2-.6 0-1.2.6-1.5h.1c2.7-1 5.6-1 8.2 0 .6.2.9.9.7 1.4-.2.6-.6.8-1.1.8" opacity=".31"/>
</svg>
