<svg xmlns="http://www.w3.org/2000/svg" viewBox="0 0 72 72">
    <g data-name="Calque 2">
        <g data-name="Calque 1">
            <path fill="#f0f0f0" fill-rule="evenodd" d="M36.08 0a77 77 0 0 0-12.91 1.1C11.48 3.08 4 9.65 1.55 21.43a69.7 69.7 0 0 0-.24 28.05c2.31 12 9.57 19.25 21.61 21.38a75 75 0 0 0 13 1.14 77 77 0 0 0 12.91-1.1c11.65-2 19.34-9.2 21.8-20.9a72 72 0 0 0 0-27.82c-2.31-12-9.54-18.91-21.58-21A75 75 0 0 0 36.08 0"/>
            <path fill="#2b2b2b" d="M24.32 28.58a1.08 1.08 0 0 1-1-1.12A5.3 5.3 0 0 0 18.19 22a5.3 5.3 0 0 0-5.09 5.46 1 1 0 1 1-2.09 0 7.46 7.46 0 0 1 7.18-7.7 7.45 7.45 0 0 1 7.17 7.7 1.08 1.08 0 0 1-1.04 1.12m26.62 0a1.09 1.09 0 0 1-1-1.12 5.1 5.1 0 1 0-10.17 0 1 1 0 1 1-2.09 0 7.46 7.46 0 0 1 7.18-7.7 7.46 7.46 0 0 1 7.14 7.7 1.08 1.08 0 0 1-1.06 1.12"/>
            <path fill="#3b3b3b" fill-rule="evenodd" d="M70.66 22.18c-2.31-12-9.54-18.91-21.58-21C48.46 1 47.84 1 47.22.85A39.73 39.73 0 0 1 62 22c.28 1 5.22 20.18-7 34-10.87 12.29-30.91 15.38-48 6.17 3.73 4.53 9.06 7.47 16 8.69A75 75 0 0 0 36 72a77 77 0 0 0 12.91-1.1c11.65-2 19.34-9.2 21.8-20.9a72 72 0 0 0-.05-27.82" opacity=".06"/>
            <path fill="#fff" d="M46 32.9v5.47a21.22 21.22 0 0 1-30 0V32.9a21.22 21.22 0 0 0 30 0"/>
            <path fill="#8e8e8e" d="M34.82 48.44a6.4 6.4 0 0 1 5.63 3.36 15 15 0 0 1-18.9 0A6.39 6.39 0 0 1 31 49.71a6.3 6.3 0 0 1 3.82-1.27"/>
            <path fill="#474747" d="M46 38.37v1.78a15 15 0 0 1-4.39 10.61c-.37.37-.76.71-1.16 1a6.4 6.4 0 0 0-5.63-3.36A6.3 6.3 0 0 0 31 49.71a6.39 6.39 0 0 0-9.45 2.09A15 15 0 0 1 16 40.15v-1.78a21.22 21.22 0 0 0 30 0"/>
        </g>
    </g>
</svg>
