<svg xmlns="http://www.w3.org/2000/svg" width="550" height="550" fill="none" viewBox="0 0 550 550">
    <path fill="#fff" d="M262.073 305.669q-.005-.005-.009-.012c-.65-.512-1.269-.78-1.64-.941-.7-.312-1.836-.468-2.732.115-.516.335-1.13 1.041-1.13 2.509v19.877c0 .058.009.103.01.159.005.449.026.876.073 1.266.025.209.069.385.104.578.038.211.068.437.117.629.052.209.12.385.183.573.049.143.09.301.143.433.076.187.162.345.245.51.052.102.1.217.154.31.094.163.191.299.289.438.05.07.097.15.147.214.106.136.21.249.315.361.042.045.085.098.127.14.112.111.217.202.322.288.029.024.06.054.089.077.117.09.22.162.316.224l.025.017.065.044.012.006c.051.031.18.103.361.188l.118.056c.131.059.287.119.456.177l.084.028q.279.092.601.151h.001c.214.04.436.068.666.068.44 0 .897-.089 1.324-.331.935-.531 1.41-1.617 1.41-3.227V310.82c0-2.243-.755-3.975-2.246-5.151m-.68 27.076-.093-.013q-.108-.013-.216-.034l-.063-.015a4 4 0 0 1-.242-.064l-.046-.015a4 4 0 0 1-.238-.084l-.058-.025a4 4 0 0 1-.194-.086l-.084-.043-.121-.065-.034-.023c-.616-.37-2.047-1.602-2.047-5.065v-19.869c0-.676.166-1.126.494-1.34.048-.031.104-.044.157-.066.055-.022.106-.051.165-.064.069-.016.14-.019.212-.024.047-.003.093-.01.14-.009.13.002.259.017.378.043q.01 0 .02.003c.131.029.251.068.346.111.151.066.354.156.581.277q.184.096.384.224c.032.021.065.047.098.069v15.982c0 .258.022.484.036.722.008.142.008.295.021.43.022.232.058.44.093.652.02.129.036.265.06.386.041.203.091.387.141.572.03.109.057.221.09.324.056.178.118.342.182.502q.05.132.104.257.106.236.218.446.05.093.101.182.125.216.254.404l.069.096c.214.295.425.537.623.724v2.347c0 .736-.123 1.684-.706 2.014-.12.069-.259.104-.405.125-.04.005-.078.015-.119.018s-.084-.002-.126-.002q-.087.002-.175-.004m1.138-24.162q.16.406.254.862c.02.1.033.205.049.309q.067.437.078.917c.001.052.007.1.007.153v14.98c-.334-.766-.59-1.816-.59-3.262v-14.374c.026.05.06.093.084.145q.063.131.118.27"/>
    <path fill="#fff" d="M462.519 452.55V284.946c11.45-2.547 19.707-12.774 19.707-24.565 0-13.888-11.298-25.186-25.184-25.189h-.006a25.2 25.2 0 0 0-12.259 3.202L315.66 74.764a25.03 25.03 0 0 0 4.091-13.731c0-13.862-11.256-25.145-25.108-25.189l-.078-.004c-13.889 0-25.188 11.3-25.188 25.189 0 11.967 8.404 22.225 20.058 24.638v70.628c-9.228-2.277-15.8.172-19.726 2.69-9.76 6.259-13.238 18.805-13.238 28.46v5.513c-1.361.413-2.605.921-3.689 1.524-7.33 4.075-19.371 11.726-19.459 11.783-2.248 1.263-9.088 5.105-9.393 9.846a1 1 0 0 0-.006.104l.001.454c-.002.022-.013.042-.013.065l.001 12.695-35.795-18.701c-.531-15.539-6.945-30.067-18.106-40.945-11.282-10.996-26.173-17.051-41.93-17.051-15.843 0-30.856 6.249-42.276 17.595C74.323 181.737 68 196.826 68 212.814c0 33.129 26.953 60.081 60.082 60.081 11.952 0 23.465-3.502 33.371-10.13l62.463 31.68.001 39.831a6 6 0 0 0-.001.629 1 1 0 0 0 .011.126c.115 1.413.831 2.77 2.128 4.044-1.315 1.495-2.034 2.985-2.13 4.438h.003a1 1 0 0 0-.008.106l.001.495c0 .01-.005.018-.005.028l.001 19.105a6 6 0 0 0-.001.629q0 .065.011.126c.167 2.047 1.575 3.959 4.184 5.684.418.279.872.552 1.369.835 3.747 2.092 10.983 6.269 19.362 11.105 12.341 7.124 27.663 15.969 39.37 22.501v59.917c-11.865 2.125-20.745 12.656-20.745 24.775 0 13.89 11.3 25.19 25.189 25.19a25.103 25.103 0 0 0 25.125-23.545l114.839-7.266c2.764 11.104 12.927 19.109 24.424 19.109 13.89 0 25.19-11.3 25.19-25.189 0-11.798-8.261-22.028-19.715-24.568m-22.998 6.492c-.154.149-.301.306-.451.459-.195.199-.396.39-.584.595l-86.062-106.254-8.961-11.063-.003-.003-.001-.002a.7.7 0 0 0-.14-.131c-.598-.418-.658-1.243-.639-1.698.035-.901.402-1.894 1.031-2.796a6 6 0 0 1 1.505-1.511c.023-.015.045-.035.068-.05.111-.073.223-.128.334-.189.096-.051.19-.106.287-.148.118-.053.235-.093.35-.13.056-.017.098-.037.159-.052.037-.01.071-.009.107-.017.136-.029.278-.053.426-.056.32-.003.613.069.853.238.059.041.107.097.158.149.031.032.069.058.097.094.041.052.07.117.105.176.029.051.063.094.088.15a.8.8 0 0 0 .094.153l11.742 14.63a1 1 0 0 0 .06.089l83.541 104.096c-.219.137-.428.289-.642.432-.202.135-.406.266-.603.407q-.698.496-1.36 1.039-.147.12-.29.243-.654.553-1.269 1.15m-7.364 14.302-116.032 6.341A25.1 25.1 0 0 0 299.17 464.5v-54.386c.858.453 1.676.881 2.4 1.248 5.068 2.582 9.875 3.515 14.238 3.514 8.049 0 14.58-3.178 18.418-5.047q.585-.286 1.081-.521c3.505-1.659 6.322-3.398 10.99-6.278 2.349-1.448 5.184-3.198 8.836-5.389 1.872-1.123 3.284-2.206 4.318-3.313 1.398-1.499 2.051-3.033 1.941-4.561l.001-.019v-19.014l-.001-.006c.115-1.478-.461-2.926-1.748-4.419v-1.184l.062-.077 77.861 96.129a25 25 0 0 0-5.41 12.167m-142.549-5.076v-3.654l-.001-.005v-59.705a570 570 0 0 0 8.168 4.469v58.895c0 1.123-1.431 2.092-3.272 2.317a6.7 6.7 0 0 1-1.623 0c-1.841-.225-3.272-1.194-3.272-2.317m13.289-82.35c-9.793-4.984-33.194-18.492-50.281-28.355-8.13-4.693-15.151-8.745-18.783-10.771-2.953-1.651-4.512-3.407-4.632-5.22l-.005-.047h.002l-.005-.146.117.066c.06.034.108.068.17.103 3.751 2.094 10.999 6.278 19.391 11.122 17.902 10.334 42.419 24.487 52.703 29.721.271.138.538.253.808.382.225.107.45.217.673.318a35 35 0 0 0 1.575.66 32 32 0 0 0 4.743 1.449c.123.027.244.049.366.074q.974.2 1.927.332c.115.016.23.035.344.049q.507.064 1.007.11l.364.03c.822.066 1.636.11 2.43.11.28 0 .553-.013.83-.02l.075-.002c7.629-.226 13.817-3.226 17.509-5.022q.59-.288 1.087-.525c3.504-1.662 6.322-3.401 10.992-6.281a770 770 0 0 1 8.833-5.387 26 26 0 0 0 2.44-1.645 19 19 0 0 0 .673-.539l.004.122c.096 1.93-1.699 4.016-5.336 6.2-3.494 2.097-6.208 3.772-8.458 5.16-4.448 2.744-7.132 4.4-10.431 5.962q-.479.23-1.045.505c-4.123 2.008-11.605 5.647-20.694 4.45-2.979-.393-6.13-1.304-9.393-2.965m142.013 69.151-83.517-104.066v-78.225l.001-.006c.006-.069.003-.13.005-.196l70.986-7.113c1.982 9.634 9.573 17.353 19.176 19.489v167.602a25 25 0 0 0-6.651 2.515m-85.057-181.697c-.066.211-.16.425-.267.639-.015.029-.022.057-.037.086-.117.222-.26.445-.42.67-.016.022-.026.044-.042.067-.168.23-.363.463-.576.696-.016.018-.027.035-.044.052-.216.234-.46.47-.722.707q-.027.028-.055.054c-.238.214-.505.429-.78.644-.055.044-.101.087-.158.13-.191.147-.41.296-.619.444-.523.37-1.079.743-1.706 1.119a902 902 0 0 0-4.726 2.863c-1.483.908-2.799 1.72-3.99 2.456-2.351 1.45-4.207 2.596-5.907 3.585a74 74 0 0 1-2.614 1.463c-.211.112-.42.218-.63.326-.201.104-.404.212-.604.312l-.136.067q-.547.273-1.098.534-.5.238-1.093.528c-5.717 2.782-17.613 8.576-31.415 1.545-7.564-3.851-22.728-12.489-33.477-18.651-6.698-3.839-13.447-7.735-19.498-11.228l-4.738-2.734c-3.426-1.978-6.517-3.76-9.102-5.237a561 561 0 0 0-5.233-2.967c-1.398-.779-2.482-1.583-3.279-2.4-.95-.978-1.483-1.982-1.569-3.005v-.531l.002-.021.006-.051c.02-.252.071-.508.142-.767.014-.054.025-.107.042-.16.081-.262.194-.527.327-.795q.047-.095.097-.19a7.5 7.5 0 0 1 .645-.996c.213-.283.447-.568.713-.856l.041-.043q.23.174.469.339l.001.501a5 5 0 0 0 .008.724q.036.438.151.868c.016.059.044.117.062.176.066.217.135.434.231.648.111.246.249.49.4.732.016.025.025.05.041.075.866 1.344 2.355 2.612 4.458 3.787 2.242 1.249 5.736 3.252 10.646 6.078l8.122 4.685c17.099 9.87 40.517 23.388 50.342 28.388a35 35 0 0 0 1.752.822l.131.056a30.6 30.6 0 0 0 5.206 1.729c10.717 2.5 19.566-1.802 24.243-4.079q.56-.274 1.034-.499c3.365-1.595 6.07-3.264 10.554-6.03a739 739 0 0 1 8.454-5.158c1.423-.855 2.607-1.718 3.523-2.568l2.826-.283a3.4 3.4 0 0 1-.113.558c-.009.032-.011.064-.021.096m-134.397-53.123c.93 1.097 2.263 2.143 4.023 3.125 1.339.75 3.111 1.756 5.22 2.961 2.321 1.33 5.055 2.905 8.07 4.642l5.975 3.448a7213 7213 0 0 0 19.292 11.112c17.091 9.799 27.748 15.736 33.538 18.683.582.296 1.16.563 1.735.818l.369.159q.741.317 1.473.59.123.048.247.094.845.305 1.677.557c.097.029.194.054.291.083q.695.2 1.381.367l.37.088c1.079.246 2.138.426 3.178.548q.19.022.377.041.663.07 1.315.109.117.009.235.016.756.04 1.496.041l.098.003c.083 0 .163-.005.246-.006a32 32 0 0 0 2.486-.119q.142-.01.282-.023.652-.063 1.287-.151.14-.02.278-.042.492-.071.974-.156.208-.036.413-.076.426-.08.845-.17.191-.04.381-.082.574-.128 1.131-.272.117-.031.233-.064.447-.119.884-.245.221-.065.439-.132.327-.1.646-.202.23-.074.454-.149.316-.106.625-.215a56 56 0 0 0 1.284-.473c.18-.069.354-.139.53-.21q.191-.075.378-.152.284-.116.558-.232l.257-.11a84 84 0 0 0 3.808-1.766q.586-.286 1.08-.521c1.668-.788 3.268-1.638 5.188-2.758.507-.295 1.027-.602 1.569-.93 1.227-.739 2.569-1.567 4.125-2.527 1.253-.772 2.645-1.631 4.228-2.598 1.411-.86 2.968-1.808 4.716-2.859a29 29 0 0 0 1.508-.969c.07-.048.13-.096.199-.144.382-.269.745-.536 1.079-.804.1-.08.187-.159.282-.239.281-.235.549-.47.792-.704.098-.094.185-.188.276-.282.215-.221.418-.442.6-.663.036-.044.084-.088.119-.132l.002 15.849q.046.525-.085 1.061l-.172.016-12.601 1.16c-1.365-.059-2.91.749-4.092 2.123a7 7 0 0 0-.488.624c-.78 1.118-1.235 2.375-1.282 3.539-.05 1.279.389 2.309 1.235 2.898.089.063.188.105.283.156q.056.032.112.061.156.074.321.125.062.02.125.037c.464.127.961.15 1.462.039l1.254-.125-.47.289c-4.643 2.865-7.446 4.595-10.885 6.223q-.5.239-1.093.527c-5.718 2.782-17.611 8.575-31.415 1.545-10.333-5.262-35.029-19.521-53.062-29.933l-4.652-2.685c-5.535-3.192-11.202-6.456-14.336-8.204a17 17 0 0 1-.781-.462 17 17 0 0 1-.491-.314c-.008-.004-.017-.003-.024-.008a14 14 0 0 1-1.137-.838l-.01-.012c-1.499-1.236-2.305-2.523-2.394-3.826l-.007-.062a4 4 0 0 1 .001-.471v-5.306c0-.009-.007-.017-.008-.026v-10.471c.032.039.075.078.108.117zm103.505 15.524q.234.23.437.469l.079.09q.232.28.423.571c.018.027.031.056.049.084q.147.235.268.476.058.122.11.246a5 5 0 0 1 .221.619q.04.144.068.289c.022.106.046.213.06.32.011.082.013.164.019.246.009.109.021.217.021.326 0 3.934-5.231 7.135-11.659 7.135-6.408 0-11.623-3.181-11.657-7.097v-.035q.001-.345.056-.683.007-.042.016-.082a5 5 0 0 1 .142-.577q.019-.062.041-.122.096-.276.226-.546l.047-.097c.4-.782 1.032-1.516 1.859-2.18v3.636c0 2.185 1.618 4.074 4.122 5.183 1.504.668 3.329 1.054 5.315 1.054 5.286 0 9.427-2.737 9.427-6.233v-3.37c.069.06.143.119.209.181zm-21.561 8.136v-.564c.021.028.05.052.071.079q.366.463.811.892c.043.04.091.077.135.117q.399.366.855.702.145.108.295.212.481.337 1.015.636c.047.027.09.056.137.082.403.219.83.418 1.272.605q.18.074.362.144.54.212 1.113.39c.116.036.228.075.346.109q.726.21 1.494.362c.106.021.214.035.321.054q.639.114 1.303.185.224.025.453.046c.549.046 1.105.078 1.674.078.568 0 1.124-.032 1.673-.078q.228-.02.454-.046.663-.07 1.302-.185c.107-.019.216-.033.321-.054a18 18 0 0 0 1.494-.362c.118-.034.23-.073.346-.109q.572-.179 1.113-.39.183-.07.362-.144c.442-.187.869-.386 1.272-.605.047-.026.09-.055.137-.082a12 12 0 0 0 1.31-.848q.456-.336.855-.702c.044-.04.092-.077.135-.117q.445-.429.811-.892c.022-.029.052-.054.074-.082v.563c0 3.935-5.231 7.136-11.659 7.136-4.82 0-8.966-1.799-10.739-4.358-.591-.853-.918-1.791-.918-2.774m-31.666-37.259q.209.202.395.411c.042.047.088.092.129.14q.231.273.422.556c.044.064.079.13.119.195q.12.19.222.386.066.13.123.263a5 5 0 0 1 .23.624q.045.161.078.324c.021.101.045.201.059.302.015.112.019.224.026.337.006.088.017.176.017.264 0 3.935-5.23 7.137-11.659 7.137-6.408 0-11.623-3.182-11.657-7.099v-.034q.001-.336.053-.668l.014-.072a4.5 4.5 0 0 1 .173-.683q.094-.28.224-.553l.035-.075c.316-.637.778-1.246 1.378-1.809l.034-.031c.099-.092.212-.18.319-.27v3.586c0 3.495 4.141 6.233 9.427 6.233h.003c5.286 0 9.427-2.738 9.427-6.232v-3.59q.113.092.22.186.096.085.189.172m-20.616 8.607c.046.044.099.084.146.128a11 11 0 0 0 1.143.908q.48.335 1.011.634l.14.083c.403.219.83.418 1.271.605q.18.074.363.144.54.212 1.113.391c.116.036.228.075.345.108q.727.211 1.495.362c.105.021.212.035.318.054q.642.114 1.307.186.224.025.45.045c.55.046 1.106.078 1.675.078s1.125-.032 1.675-.078q.227-.02.45-.045.666-.072 1.307-.186c.105-.019.213-.033.318-.054q.77-.151 1.495-.362c.117-.033.23-.072.345-.109a16 16 0 0 0 1.112-.39q.184-.07.364-.145c.441-.186.868-.385 1.27-.604l.143-.085a12 12 0 0 0 1.31-.848q.445-.33.837-.689c.049-.044.104-.086.151-.131q.44-.425.802-.882c.024-.031.057-.058.08-.088v.563c0 3.935-5.23 7.136-11.659 7.136-4.018 0-7.568-1.25-9.666-3.149-1.256-1.139-1.991-2.51-1.991-3.984v-.563c.023.029.053.054.076.083.243.305.508.602.804.884m67.187-27.989-.024-.05c-5.043-11.845-12.606-20.958-21.887-26.399V85.516a24.9 24.9 0 0 0 7.377-3.067l129.464 162.389a25.05 25.05 0 0 0-5.117 11.987l-70.762 6.51c.05-.343.062-.676.034-.99v-18.946l.001-.006c.363-3.987-4.218-7.321-11.209-11.101a10578 10578 0 0 1-21.531-11.7v-4.017c0-6.949-1.667-18.297-6.346-29.307M292.458 86.12c.703.06 1.407.098 2.107.098.721 0 1.445-.04 2.168-.103l.147-.011a26 26 0 0 0 2.05-.275q.035-.004.069-.01v75.07q-.001.105-.016.2c-.183 1.197-2.009 2.17-4.069 2.17-1.384 0-2.633-.423-3.375-1.053-.443-.378-.705-.829-.705-1.308v-3.711q-.001-.013-.004-.025V85.936c.341.051.684.078 1.026.116.201.022.401.05.602.068m139.676 177.967-71.438 7.161-.008-.001h-.005l-.069.003-3.778.376c-.016.001-.031-.004-.047-.003l-7.822.786c-.033.004-.063.017-.095.025l-4.26.427c-.364.075-.882.105-1.291-.183-.6-.418-.659-1.245-.641-1.702.036-.9.403-1.894 1.032-2.795a6.2 6.2 0 0 1 1.092-1.196l.068-.059c.09-.074.183-.138.276-.203.054-.038.107-.08.162-.116.068-.044.137-.079.206-.119.082-.047.164-.096.246-.136.045-.022.089-.038.134-.058.108-.046.216-.092.322-.126l.07-.019q.192-.057.379-.086l.025-.002q.207-.028.404-.017a.6.6 0 0 0 .183-.011l12.487-1.152 72.18-6.64c-.004.044-.002.086-.006.131a24 24 0 0 0-.095 2.009c0 .423.036.855.059 1.284.011.217.013.431.03.649.03.377.081.756.128 1.136.026.212.04.424.072.637m-179.633-5.028-8.009-4.62c-4.225-2.431-8.22-4.726-10.663-6.087-2.213-1.237-3.642-2.533-4.271-3.869a3.8 3.8 0 0 1-.362-1.391h.002l-.005-.144.283.165c3.098 1.728 8.54 4.861 14.316 8.193l4.694 2.71c18.031 10.411 42.728 24.67 53.085 29.942.425.217.846.405 1.268.599l.101.048q.615.28 1.222.527l.231.093q1.885.753 3.706 1.231l.113.03a30 30 0 0 0 7.596.986c8.049 0 14.58-3.178 18.418-5.046q.585-.287 1.081-.523c3.517-1.666 6.347-3.413 11.037-6.306l2.934-1.806 5.341-.536q-.772.554-1.701 1.112a742 742 0 0 0-8.475 5.168c-4.439 2.74-7.12 4.394-10.414 5.953q-.479.23-1.045.505c-5.475 2.667-16.871 8.213-30.091 1.485-9.814-4.997-33.268-18.534-50.392-28.419m200.455 198.94V285.238c.391.064.786.098 1.18.144.192.022.382.052.575.07 1.552.143 3.114.143 4.668-.001.17-.016.337-.043.507-.062.413-.047.827-.084 1.238-.151v172.761c0 .962-1.051 1.812-2.511 2.176a6.5 6.5 0 0 1-1.572.19 6.5 6.5 0 0 1-1.573-.19c-1.46-.364-2.512-1.214-2.512-2.176m4.083-221.413c13.119.002 23.791 10.675 23.791 23.795 0 11.323-8.053 21.138-19.147 23.336a24.1 24.1 0 0 1-9.294 0c-9.51-1.883-17.046-9.557-18.763-19.099-.001-.011.003-.022.001-.034a24 24 0 0 1-.377-4.203q0-.038-.004-.075c.003-.897.062-1.822.174-2.754l-.002-.017a23.7 23.7 0 0 1 5.232-12.255l.007-.007.001-.001a24 24 0 0 1 2.908-2.967 23.78 23.78 0 0 1 15.473-5.719m-14.349 3.11c-.139.097-.281.188-.418.287q-.83.598-1.607 1.259l-.131.12q-.69.6-1.337 1.251c-.162.163-.316.333-.474.501-.195.207-.397.406-.586.62L308.482 81.101l-.457-.571c.065-.088.162-.204.28-.336.028-.031.051-.059.082-.092.033-.036.074-.078.111-.116l.172-.178.12-.117c.07-.068.138-.136.216-.21q.17-.16.371-.34l.014-.012c.44-.392.987-.846 1.651-1.351 1.731-1.318 2.995-2.006 3.494-2.186L443.558 239.1c-.297.189-.58.395-.868.595M270.771 61.029c0-13.094 10.631-23.752 23.714-23.795l.076.004c13.121 0 23.795 10.675 23.795 23.795a23.64 23.64 0 0 1-3.977 13.167c-.043.01-.093.031-.137.044-.547.155-1.223.507-1.913.937l-.066.04q-.27.171-.538.35l-.012.008c-.555.373-1.086.758-1.511 1.081-.894.68-2.79 2.2-3.435 3.278-.118.196-.208.382-.23.541a.86.86 0 0 0 .17.648l.195.244a23.5 23.5 0 0 1-7.332 2.92c-.006.002-.013-.001-.019 0-.07.015-.141.025-.212.04q-.9.18-1.806.294c-.132.016-.264.038-.397.052q-.976.103-1.96.126-.189.007-.378.01a24 24 0 0 1-1.742-.06c-.176-.01-.351-.01-.527-.025a25 25 0 0 1-2.248-.299l-.022-.003c-11.292-2.066-19.488-11.906-19.488-23.397m-12.906 126.416c0-9.286 3.309-21.331 12.597-27.286 3.741-2.401 10.046-4.742 18.973-2.437v3.171c0 .792.339 1.519.925 2.118.975 1 2.636 1.647 4.558 1.647.344 0 .677-.028 1.004-.069l.082-.013q.433-.06.839-.165.077-.02.153-.042.375-.105.719-.245l.132-.054q.376-.162.709-.363l.033-.019a4.3 4.3 0 0 0 1.176-1.04l.051-.076c.082-.113.168-.225.233-.345 8.869 5.319 16.108 14.146 20.968 25.582l.023.048c4.583 10.804 6.216 21.916 6.216 28.718v4.413c0 .006-.004.01-.004.016v13.048c0 .006-.004.01-.004.016v4.793c0 2.623-3.678 4.839-8.033 4.839-1.903 0-3.676-.423-5.07-1.118-1.792-.896-2.954-2.242-2.954-3.717v-22.29c0-1.582-.127-3.441-.367-5.378-3.318-26.863-18.498-35.119-21.507-36.5-2.062-.948-4.637-1.855-6.942-1.855-1.188 0-2.305.241-3.242.842-3.014 1.93-5.202 7.718-5.202 13.761v17.452l-.003.012v4.972c0 2.622-3.678 4.838-8.031 4.839-4.354-.001-8.032-2.216-8.032-4.838zm51.389 22.561c-12.484-6.826-20.636-11.314-24.211-13.331-2.911-1.641-6.183-2.892-9.718-3.748v-5.482c0-5.421 2.003-10.95 4.561-12.587 1.734-1.113 4.877-.721 8.848 1.106 12.328 5.661 18.681 21.557 20.52 34.042m-83.936 6.23.003-.036c.17-2.644 3.092-5.578 8.717-8.738.121-.077 12.127-7.706 19.421-11.762a17 17 0 0 1 3.012-1.289v10.125c-.057.039-.106.082-.162.121q-.312.218-.598.446c-.073.06-.141.122-.212.182q-.281.237-.535.487c-.06.06-.114.123-.173.184a8 8 0 0 0-.465.524c-.048.06-.09.123-.136.184a8 8 0 0 0-.392.559c-.036.059-.065.12-.099.18a7 7 0 0 0-.315.595c-.025.054-.041.11-.064.164a6 6 0 0 0-.236.64c-.01.034-.014.07-.024.104a6 6 0 0 0-.219 1.546v4.398c0 1.764.824 3.405 2.234 4.767 2.348 2.271 6.323 3.766 10.823 3.766 7.198 0 13.055-3.827 13.055-8.53v-4.397c0-.581-.091-1.152-.26-1.707-.016-.054-.041-.106-.058-.16a6 6 0 0 0-.25-.643c-.039-.086-.09-.17-.134-.255a7 7 0 0 0-.289-.521c-.064-.1-.139-.198-.209-.297-.105-.15-.209-.299-.328-.445-.088-.108-.187-.212-.282-.317-.118-.131-.235-.261-.363-.388-.114-.111-.237-.218-.358-.325-.129-.114-.257-.228-.394-.338-.138-.111-.286-.217-.433-.323-.092-.066-.175-.137-.27-.201v-10.188c3.287.823 6.322 2.013 9.033 3.541 3.666 2.069 12.119 6.721 25.12 13.829l.001.003c.205 1.748.313 3.418.313 4.851v16.918c-.056.037-.104.077-.159.114q-.334.225-.64.462-.107.087-.21.175c-.197.164-.389.329-.566.5-.062.06-.117.122-.176.182a9 9 0 0 0-.489.535c-.051.061-.094.125-.142.187a8 8 0 0 0-.408.567c-.039.062-.07.127-.108.189a7 7 0 0 0-.325.6c-.027.059-.046.12-.071.18-.09.211-.177.422-.242.638-.013.043-.018.088-.03.131a6 6 0 0 0-.224 1.559v4.396c0 1.47.572 2.854 1.579 4.063 2.212 2.661 6.529 4.471 11.48 4.471 7.198 0 13.055-3.826 13.055-8.53v-4.397a5.8 5.8 0 0 0-.25-1.67c-.013-.042-.031-.082-.045-.123a6 6 0 0 0-.249-.658c-.04-.089-.092-.176-.136-.265-.084-.164-.166-.328-.265-.488-.071-.115-.153-.226-.232-.339-.089-.129-.175-.258-.274-.383-.102-.129-.215-.253-.327-.378-.093-.105-.183-.21-.283-.311a9 9 0 0 0-.418-.392c-.096-.087-.191-.175-.293-.26a11 11 0 0 0-.502-.388c-.065-.048-.123-.1-.191-.148V222.18c9.263 5.043 17.258 9.387 20.867 11.338 5.621 3.04 10.78 6.322 10.484 9.734l-.004.014c-.173 1.885-2.05 3.915-5.578 6.033a623 623 0 0 0-4.726 2.864c-1.562.954-2.938 1.803-4.179 2.568-1.574.971-2.93 1.808-4.168 2.553-.536.323-1.049.627-1.55.919a66 66 0 0 1-5.082 2.703q-.5.237-1.093.527c-3.409 1.659-9.018 4.389-15.919 4.83-4.667.298-9.924-.449-15.492-3.285-5.769-2.936-16.407-8.863-33.478-18.651-6.147-3.524-12.338-7.098-17.994-10.363l-7.27-4.195a2809 2809 0 0 0-8.074-4.644 593 593 0 0 0-5.146-2.92 1 1 0 0 0-.079-.052c-3.096-1.726-4.73-3.565-4.852-5.422zm-155.924-3.422c0-15.614 6.177-30.352 17.395-41.497 11.156-11.086 25.821-17.191 41.293-17.191 15.392 0 29.937 5.915 40.957 16.655 10.713 10.442 16.956 24.324 17.661 39.204l-22.808-11.916a.698.698 0 0 0-.902 1.006c.098.146 9.777 14.822 9.799 34.74l-.003.066c0 18.066-9.546 25.909-11.445 27.288-9.812 6.759-21.313 10.332-33.259 10.332-32.36 0-58.688-26.327-58.688-58.687m93.351 49.043c1.023-.822 2.759-2.417 4.572-4.881l.032-.043q.258-.351.517-.727l.005-.009q.49-.71.975-1.509.164-.273.327-.556a32 32 0 0 0 1.535-2.982q.187-.412.367-.84.235-.554.457-1.137.198-.514.384-1.051c.106-.305.211-.611.312-.927q.225-.713.431-1.463.118-.427.229-.865a42 42 0 0 0 .975-5.428c.08-.694.15-1.399.201-2.129.019-.279.029-.566.044-.85q.053-1.022.064-2.091c.002-.165.015-.317.015-.484 0-15.923-6.057-28.583-8.76-33.439l58.487 30.556v4.838a6 6 0 0 0-.002.628q0 .06.01.117c.119 1.492.905 2.917 2.333 4.249l-.044.051c-.084.092-.16.184-.239.275q-.147.17-.285.338-.122.154-.235.308a10 10 0 0 0-.795 1.247q-.07.136-.132.271a7 7 0 0 0-.156.343c-.035.084-.063.169-.094.253-.043.119-.089.238-.124.357-.018.06-.029.12-.045.18a5.5 5.5 0 0 0-.15.803c-.006.055-.018.109-.022.163l-.003.029-.006.047h.002l-.002.025-.001.016v.004l-.004.06.001.492c0 .009-.005.018-.005.028v46.757zm62.567 73.003-.004-.048a4 4 0 0 1 .002-.487v-40.273c0-.011.008-.021.008-.032v-44.536c.023.029.053.056.076.084.097.117.212.231.319.347.151.165.298.33.468.492.098.094.213.185.318.277.206.182.409.365.639.544.046.036.101.071.148.106.645.489 1.368.967 2.197 1.43 1.34.749 3.112 1.755 5.22 2.961 2.583 1.476 5.673 3.256 9.097 5.232l5.5 3.174c5.854 3.379 12.321 7.112 18.74 10.791 17.101 9.806 27.759 15.742 33.538 18.683a35 35 0 0 0 1.965.917 32 32 0 0 0 5.395 1.796l.047.012a30 30 0 0 0 3.501.6c9.572 1.063 17.394-2.737 21.749-4.858q.585-.286 1.082-.522a67 67 0 0 0 5.185-2.757 248 248 0 0 0 3.181-1.91c.847-.518 1.742-1.069 2.741-1.685a1056 1056 0 0 1 4.001-2.46c1.41-.865 2.969-1.809 4.716-2.858.154-.093.282-.184.429-.276.358-.222.713-.444 1.037-.665.161-.11.3-.219.452-.328.29-.208.577-.416.837-.623.142-.113.267-.227.401-.34.238-.202.472-.405.682-.607.12-.115.227-.23.338-.345.193-.2.378-.401.544-.601.042-.051.097-.101.137-.152v73.308l-10.516-13.102a2.74 2.74 0 0 0-.888-1.063l-.008-.004-.01-.007c-.064-.044-.139-.064-.207-.102a2.7 2.7 0 0 0-1.026-.335c-.06-.007-.117-.03-.178-.033-.111-.007-.23.014-.345.02-.156.007-.309.005-.468.034-.097.017-.197.055-.295.08a4 4 0 0 0-.553.168c-.02.008-.039.009-.059.018-.113.046-.222.115-.333.171-.134.067-.268.126-.401.206-.158.095-.308.21-.46.321-.1.074-.202.137-.3.218a7 7 0 0 0-.657.62l-.054.052q-.361.388-.676.834c-.78 1.118-1.234 2.373-1.281 3.537-.05 1.236.358 2.239 1.151 2.839l11.463 14.153 4.927 6.083a8 8 0 0 1-.363.418c-.007.007-.015.01-.022.017q-.367.391-.817.79c-.839.741-1.916 1.509-3.201 2.281-3.661 2.195-6.5 3.947-8.853 5.399-4.626 2.855-7.418 4.578-10.853 6.202q-.5.24-1.09.527c-5.717 2.784-17.611 8.576-31.418 1.547-10.231-5.209-34.679-19.32-52.531-29.624-8.446-4.876-15.74-9.085-19.519-11.193-.092-.052-.176-.103-.265-.155a20 20 0 0 1-.769-.469c-.079-.051-.161-.101-.237-.151l-.002-.001a13.5 13.5 0 0 1-1.388-1.044c-.007-.006-.016-.007-.023-.013-1.353-1.178-2.081-2.399-2.161-3.63m.004 8.745c.076-1.144.677-2.359 1.79-3.619l.022.016q.295.23.604.446l.07.052.001.508a5 5 0 0 0 .008.724c.185 2.289 1.98 4.4 5.339 6.277 3.588 2.004 10.517 6.003 18.538 10.633 17.179 9.916 40.705 23.496 50.572 28.518.065.034.129.06.194.092a34 34 0 0 0 1.939.892q.565.24 1.128.452c.157.06.315.124.472.18q.747.268 1.483.492c.162.049.322.092.483.138q.545.155 1.083.287.262.066.523.125.697.159 1.381.28l.297.048q.625.102 1.242.175.248.03.494.054.543.055 1.076.09c.125.008.252.019.377.025q.691.035 1.367.038l.122.003c.103 0 .204-.006.307-.008a29 29 0 0 0 2.27-.109l.331-.027q.618-.06 1.222-.143l.253-.038a35 35 0 0 0 1.318-.22q.449-.084.887-.179l.287-.061q1.162-.262 2.249-.583l.235-.071q.442-.132.871-.272l.211-.069a43 43 0 0 0 3.017-1.129l.084-.036c1.603-.668 2.995-1.344 4.136-1.899q.558-.273 1.031-.499c3.364-1.594 6.069-3.263 10.551-6.028a744 744 0 0 1 8.456-5.157c.492-.295.943-.589 1.374-.883.073-.049.141-.099.213-.149q.538-.375 1.01-.75l.185-.147q1.076-.876 1.792-1.75c.044-.054.08-.107.121-.16a8 8 0 0 0 .627-.932q.179-.321.311-.643c.029-.072.066-.143.092-.215.008-.022.021-.044.028-.066.48.812.681 1.591.611 2.358-.173 1.887-2.05 3.918-5.578 6.033a912 912 0 0 0-4.726 2.864c-1.497.915-2.824 1.734-4.024 2.475-2.336 1.442-4.181 2.582-5.873 3.565-1.875 1.095-3.443 1.928-5.081 2.702q-.502.24-1.097.53c-5.716 2.782-17.614 8.568-31.411 1.543-7.56-3.847-22.727-12.487-33.478-18.649a7537 7537 0 0 1-19.205-11.061 4426 4426 0 0 0-14.133-8.139 592 592 0 0 0-5.16-2.928l-.069-.043c-1.739-.97-2.999-1.975-3.806-2.999-.623-.796-.983-1.606-1.046-2.429v-.495zm4.849 25.702a22 22 0 0 1-1.283-.782c-2.263-1.497-3.464-3.076-3.57-4.694l-.004-.048a4 4 0 0 1 .002-.487v-15.802c.025.032.06.063.086.095.059.07.131.14.193.21.924 1.046 2.211 2.044 3.893 2.984 1.341.748 3.113 1.755 5.221 2.96 3.818 2.184 8.744 5.028 14.225 8.192 5.952 3.435 12.557 7.249 19.112 11.007 10.765 6.172 25.954 14.823 33.538 18.681a34 34 0 0 0 2.045.952 34 34 0 0 0 1.728.691q.901.328 1.789.593l.067.02q.842.248 1.671.444l.143.034a30 30 0 0 0 3.472.593c9.577 1.062 17.401-2.743 21.758-4.866q.576-.283 1.066-.516a67 67 0 0 0 5.185-2.756c1.694-.987 3.534-2.122 5.863-3.559 1.21-.747 2.548-1.572 4.06-2.496 1.41-.865 2.969-1.809 4.716-2.858.264-.159.491-.316.738-.474.236-.151.485-.302.706-.453.206-.14.387-.28.579-.421.242-.176.488-.352.709-.527.171-.136.322-.272.481-.409.208-.178.415-.356.601-.534.142-.136.27-.272.4-.408.168-.177.332-.354.48-.531.05-.06.115-.12.163-.18v15.73a1 1 0 0 0 0 .127c.1 1.156-.412 2.32-1.567 3.558-.929.996-2.28 2.028-4.015 3.068-3.659 2.196-6.497 3.947-8.851 5.398-4.626 2.855-7.419 4.579-10.855 6.204q-.5.238-1.094.529c-5.717 2.783-17.611 8.575-31.415 1.543a188 188 0 0 1-3.377-1.765c-.009-.005-.013-.017-.023-.022a563 563 0 0 1-9.552-5.231c-.01-.005-.021-.003-.03-.007-11.738-6.545-27.229-15.487-39.68-22.674-8.383-4.84-15.624-9.02-19.374-11.113m86.221 121.246c-.884 12.632-10.956 22.061-23.73 22.061-13.121 0-23.795-10.674-23.795-23.795 0-11.366 8.263-21.274 19.351-23.379v2.828c0 2.108 2.407 3.761 5.48 3.761s5.479-1.653 5.479-3.761v-2.334a23.73 23.73 0 0 1 15.495 13.83l-7.172.392c-2.092.277-3.416 2.88-3.014 5.925.185 1.398.714 2.674 1.491 3.595q.301.354.632.618c.084.069.172.116.259.176.138.094.275.189.417.26.103.051.206.083.31.122.135.05.268.097.404.126.103.022.206.031.309.041.08.007.16.031.24.031q.168 0 .336-.023zm.696-1.44-8.338.528c-.772.107-1.397-.496-1.707-.863-.606-.719-1.023-1.741-1.173-2.878-.29-2.195.54-4.191 1.76-4.355l8.079-.441h.002l116.264-6.352c-.01.102-.006.195-.015.296a25 25 0 0 0-.09 1.832c-.001.08-.012.164-.012.243 0 .074.01.147.01.221.006.591.037 1.183.084 1.777.016.193.028.386.048.58q.097.924.263 1.845c.016.092.021.185.039.277zm139.962 11.799c-11.052 0-20.817-7.823-23.22-18.6a24 24 0 0 1-.574-5.194c0-.998.066-2.015.196-3.024a23.63 23.63 0 0 1 6.838-13.851 23.8 23.8 0 0 1 4.794-3.686l.005-.004a23.7 23.7 0 0 1 6.478-2.587V458c0 2.108 2.407 3.76 5.48 3.76 3.072 0 5.478-1.652 5.478-3.76v-4.039c10.665 2.508 18.32 12.114 18.32 23.157 0 13.12-10.674 23.794-23.795 23.794"/>
    <path fill="#fff" d="M242.122 295.208c-.176.275-.36.541-.519.831-.116.211-.212.44-.32.659-.154.313-.315.619-.452.947-.093.222-.166.461-.25.69-.128.344-.263.683-.372 1.042-.073.238-.125.491-.19.735-.098.368-.203.731-.282 1.111-.054.259-.087.531-.133.795-.067.383-.141.762-.19 1.157-.035.28-.049.572-.075.857-.036.395-.08.784-.099 1.189-.015.308-.008.627-.013.94-.006.395-.022.784-.013 1.186.007.349.038.708.058 1.062.02.379.03.752.064 1.137.035.395.094.799.143 1.2.043.353.073.702.127 1.058.068.449.161.906.246 1.36.059.317.105.63.172.949.105.496.236.998.361 1.499.071.284.128.565.205.85.152.559.33 1.124.507 1.687.072.23.131.457.207.687.212.643.451 1.288.695 1.933.058.153.106.306.166.459.275.705.576 1.411.89 2.116.041.094.076.189.119.283a51 51 0 0 0 2.326 4.532c.141.244.292.476.437.716.269.447.534.897.814 1.33.164.255.338.495.506.744.271.404.538.813.818 1.203.184.256.376.495.563.745.275.368.546.742.828 1.096.192.241.391.465.586.7.288.346.572.699.866 1.031.188.213.383.41.574.617.308.336.615.677.929.997.197.201.4.383.599.577.315.308.627.621.947.912.212.193.429.368.644.554.313.272.624.551.941.807.218.177.44.334.659.502.318.245.634.496.955.724.225.16.453.3.68.452.318.214.636.436.957.633.235.145.472.268.708.404.314.181.627.37.943.534.248.13.497.236.745.355.305.146.609.301.914.431.258.11.516.196.774.294.295.113.591.236.886.334.267.088.533.15.799.226.285.08.57.172.854.237.276.063.55.1.824.15.272.048.544.109.814.143.285.036.566.044.848.064.243.017.488.05.729.055.266.075.529.134.794.197.118.028.238.063.356.088.242.052.481.09.72.132.158.027.318.062.475.085.128.018.254.027.381.042.65.08 1.293.13 1.922.13a13.3 13.3 0 0 0 4.449-.746c.03-.011.063-.018.094-.029.383-.138.752-.308 1.119-.484.086-.041.177-.07.261-.113l.054-.024.012-.008c4.757-2.455 7.632-7.801 8.097-15.053.304-4.755-.476-9.966-2.189-15.187q-.138-.42-.285-.842a54 54 0 0 0-1.281-3.323q-.284-.668-.589-1.332a54 54 0 0 0-.808-1.687c-.096-.192-.178-.387-.277-.578-3.957-7.674-9.478-13.972-15.547-17.732-5.796-3.593-11.456-4.481-16.063-2.551q-.462.192-.909.423c-2.487 1.283-4.458 3.352-5.862 6.152-.165.18-.308.384-.464.574-.193.235-.396.461-.575.712-.145.202-.269.424-.404.636m9.063-7.326q.138-.053.277-.102a11.4 11.4 0 0 1 2.657-.593c.431-.044.868-.072 1.312-.072q.569.001 1.149.05l.157.016q.511.048 1.033.132l.173.029q.576.099 1.162.243l.015.003c1.26.313 2.554.782 3.867 1.403l.02.01q1.314.623 2.65 1.45c5.857 3.629 11.199 9.733 15.042 17.185.097.188.186.377.281.565a54 54 0 0 1 1.327 2.859 52 52 0 0 1 1.147 2.927q.252.704.479 1.409a46 46 0 0 1 1.459 5.737q.108.582.198 1.158a40 40 0 0 1 .312 2.539c.069.792.12 1.578.136 2.352v.145q.023 1.282-.055 2.525l-.001.013q-.04.62-.104 1.22l-.008.06q-.061.563-.145 1.109l-.032.193q-.074.469-.165.922-.036.175-.076.349-.077.364-.165.718-.065.249-.134.493-.074.271-.153.535-.095.303-.198.598-.067.198-.136.391-.127.34-.264.668-.058.143-.117.282-.157.357-.328.701l-.103.211q-.184.356-.382.696l-.099.174q-.207.343-.429.669-.05.077-.102.152-.225.32-.464.622l-.117.151q-.238.29-.492.565c-.046.049-.09.102-.136.151a12 12 0 0 1-.517.505q-.079.077-.159.152-.263.232-.539.448c-.061.048-.12.1-.182.147-.181.137-.371.265-.561.392-.069.045-.135.096-.205.14q-.291.181-.596.344c-.071.04-.14.084-.213.122l-.031.014c-.075.039-.155.067-.23.103-.3.146-.604.284-.917.401-.161.06-.327.107-.491.16-.251.08-.503.159-.761.222-.165.041-.333.073-.5.107a12 12 0 0 1-2.224.235q-.152.004-.307.004c.241-.088.47-.205.705-.31.195-.087.396-.159.587-.257.414-.213.806-.458 1.186-.718.136-.092.274-.18.406-.277l.003-.003c3.465-2.573 5.55-7.101 5.926-12.978.176-2.747-.052-5.663-.618-8.64q-.06-.31-.126-.622a43 43 0 0 0-.428-1.88 44 44 0 0 0-.451-1.666q-.124-.411-.256-.823a46 46 0 0 0-.712-2.099q-.072-.193-.148-.386a48 48 0 0 0-1.018-2.489 50 50 0 0 0-1.23-2.582l-.036-.081c-3.665-7.11-8.78-12.945-14.406-16.429-3.224-1.998-6.403-3.091-9.355-3.263l-.084-.002a14 14 0 0 0-.879-.021l-.154.006q-.397.008-.789.038-.109.01-.216.024-.357.033-.707.086-.135.024-.269.05c-.213.039-.425.078-.635.128-.103.024-.203.054-.305.081q-.29.075-.576.164c-.114.036-.225.079-.338.119q-.261.09-.518.192c-.124.051-.245.108-.367.163-.117.053-.236.099-.352.156a11.1 11.1 0 0 1 3.035-2.302l.021-.01c.354-.181.719-.337 1.089-.478m-5.616 37.499a46.6 46.6 0 0 1-3.556-9.098c-2.458-9.047-1.612-17.568 2.638-22.117l.01-.008a10.4 10.4 0 0 1 2.81-2.142l.012-.006a10 10 0 0 1 1.255-.535 10.6 10.6 0 0 1 2.274-.528l.164-.019a12 12 0 0 1 1.232-.068q.533 0 1.078.048l.089.008q.501.046 1.011.13l.12.02c1.507.261 3.073.769 4.671 1.526l.02.009a25 25 0 0 1 2.444 1.338c5.413 3.353 10.35 8.994 13.902 15.884a48 48 0 0 1 2.315 5.213l.004.011q.474 1.27.864 2.54l.039.121q.38 1.25.677 2.492l.032.127c.82 3.467 1.15 6.866.947 10.032-.199 3.112-.9 5.806-2.047 7.979l-.002.004a13 13 0 0 1-.933 1.513l-.028.037q-.5.694-1.076 1.289l-.035.034q-.579.594-1.231 1.082l-.024.016q-.662.492-1.397.872c-1.525.789-3.228 1.178-5.095 1.148-8.078-.112-17.395-7.728-23.184-18.952"/>
</svg>
