<svg xmlns="http://www.w3.org/2000/svg" width="16" height="16" fill="none" viewBox="0 0 16 16">
    <path fill="#BF95F9" d="M12.144 4.117A3.853 3.853 0 0 1 16 7.965v5.114l-.023.16a2.04 2.04 0 0 1-1.843 1.655H10.72a3.854 3.854 0 0 1-3.857-3.85V6.158c0-1.128.915-2.041 2.045-2.041zm0 1.231H8.907a.81.81 0 0 0-.811.81v4.885a2.62 2.62 0 0 0 2.623 2.619h3.354l.115-.023a.81.81 0 0 0 .578-.64V7.965a2.623 2.623 0 0 0-2.622-2.617m.684 3.155a.618.618 0 0 1 .701.61v2.563a.806.806 0 0 1-.709.76h-1.779c-.299 0-.59-.24-.627-.536a.615.615 0 0 1 .611-.696h.806a.463.463 0 0 0 .464-.463V9.13c0-.31.225-.585.533-.626M14.932 1c.302 0 .551.22.598.508l.008.098.001 3.067a4.6 4.6 0 0 0-1.212-.97v-1.49H1.211v1.235h4.74a.606.606 0 0 1 .097 1.205l-.098.008-4.739-.001v6.258H5.88v.405q0 .415.072.808H.606a.606.606 0 0 1-.598-.508L0 11.524V1.606c0-.301.22-.551.508-.598L.606 1zm-3.09 5.588c.299 0 .59.24.628.536a.616.616 0 0 1-.612.695h-.806a.463.463 0 0 0-.464.463v1.613c0 .31-.224.584-.533.625a.618.618 0 0 1-.701-.61V7.348a.806.806 0 0 1 .71-.76z"/>
</svg>
