<svg xmlns="http://www.w3.org/2000/svg" viewBox="0 0 16 16">
    <style>
        @media (prefers-color-scheme:dark){path{fill:#fff}}
    </style>
    <path d="M12.144 4.117A3.853 3.853 0 0 1 16 7.965v5.114l-.023.16a2.043 2.043 0 0 1-1.843 1.655H10.72a3.854 3.854 0 0 1-3.857-3.85V6.157c0-1.128.915-2.041 2.045-2.041zm0 1.231H8.907a.81.81 0 0 0-.811.81v4.885a2.621 2.621 0 0 0 2.623 2.619h3.354l.115-.023a.807.807 0 0 0 .578-.64V7.965a2.623 2.623 0 0 0-2.622-2.617zm.684 3.155a.618.618 0 0 1 .701.61v2.563a.806.806 0 0 1-.709.76h-1.779c-.299 0-.59-.24-.627-.536a.615.615 0 0 1 .611-.696h.806a.463.463 0 0 0 .464-.463V9.13c0-.31.224-.585.533-.626zM14.932 1c.302 0 .552.22.598.508l.008.098.001 3.067a4.575 4.575 0 0 0-1.212-.97v-1.49H1.211v1.235h4.74a.606.606 0 0 1 .097 1.205l-.098.007H1.212v6.258h4.669v.405c0 .276.025.546.073.808H.606a.606.606 0 0 1-.598-.508L0 11.524V1.606c0-.301.22-.551.508-.598L.606 1h14.326zm-3.09 5.587c.299 0 .59.24.628.537a.616.616 0 0 1-.612.695h-.806a.463.463 0 0 0-.464.463v1.613c0 .31-.224.584-.533.625a.618.618 0 0 1-.701-.61V7.348a.806.806 0 0 1 .71-.76z" fill="#4f0599"/>
</svg>
