<svg xmlns="http://www.w3.org/2000/svg" width="183" height="26" fill="none" viewBox="0 0 183 26">
    <path fill="#151A2D" d="M6.482 19.675a7.3 7.3 0 0 1-3.41-.874 7.94 7.94 0 0 1-2.753-2.35.56.56 0 0 1 .096-.798l1.317-1.164a.57.57 0 0 1 .39-.146h.097c.17.026.321.123.415.267a5.3 5.3 0 0 0 1.779 1.745c.692.412 1.483.63 2.29.63.876 0 1.535-.171 1.948-.534.405-.34.623-.854.585-1.38a1.74 1.74 0 0 0-.634-1.479q-.768-.582-2.485-1.09c-3.392-.824-5.089-2.424-5.089-4.78 0-1.453.487-2.591 1.462-3.39s2.242-1.164 3.85-1.164a6.9 6.9 0 0 1 5.655 2.665.6.6 0 0 1-.073.824L10.64 7.725a.55.55 0 0 1-.39.146h-.074a.57.57 0 0 1-.413-.241 4.6 4.6 0 0 0-1.51-1.38 4.16 4.16 0 0 0-1.925-.44 3.25 3.25 0 0 0-1.877.51c-.408.29-.645.763-.633 1.262-.026.503.191.99.585 1.307.464.388 1.292.703 2.46.992 1.586.439 2.827 1.018 3.729 1.771.95.824 1.439 1.968 1.439 3.416.004.854-.25 1.69-.732 2.398a4.57 4.57 0 0 1-1.98 1.625c-.888.41-1.859.61-2.838.584m12.616.048a5.4 5.4 0 0 1-2.923-.776 5.26 5.26 0 0 1-2-2.133 6.3 6.3 0 0 1-.706-3.053 6.16 6.16 0 0 1 .707-3.028 5.3 5.3 0 0 1 1.999-2.13c.88-.51 1.88-.778 2.898-.777a4.8 4.8 0 0 1 2.437.605c.715.42 1.343.972 1.852 1.625a.6.6 0 0 1-.097.823l-1.071.844a.66.66 0 0 1-.368.123h-.096a.57.57 0 0 1-.39-.244 2.63 2.63 0 0 0-2.242-1.26 3 3 0 0 0-1.51.414 2.75 2.75 0 0 0-1.049 1.186 4.5 4.5 0 0 0 0 3.635c.225.496.59.917 1.05 1.211.446.293.975.436 1.51.41a2.86 2.86 0 0 0 1.413-.28 3.2 3.2 0 0 0 1.023-.872.604.604 0 0 1 .803-.12l1.148.798a.59.59 0 0 1 .144.823.022.022 0 0 1-.023.025 5.8 5.8 0 0 1-1.95 1.55 5.66 5.66 0 0 1-2.559.601"/>
    <path fill="#151A2D" fill-rule="evenodd" d="M25.142 16.814a5.38 5.38 0 0 0 4.896 2.91 4.7 4.7 0 0 0 2.293-.558q.329-.196.66-.413v.026a.59.59 0 0 0 .584.579h1.462a.59.59 0 0 0 .585-.58V8.747a.59.59 0 0 0-.585-.582h-1.465a.59.59 0 0 0-.585.582v.05a4 4 0 0 0-.681-.438 5.2 5.2 0 0 0-2.316-.532 5.32 5.32 0 0 0-4.848 2.907 6.82 6.82 0 0 0 0 6.08m3.361-6.056a2.84 2.84 0 0 1 1.487-.413 2.53 2.53 0 0 1 1.536.436 2.9 2.9 0 0 1 1.046 1.189 4.47 4.47 0 0 1 0 3.632 2.77 2.77 0 0 1-1.046 1.212 3.1 3.1 0 0 1-1.536.413 2.45 2.45 0 0 1-1.487-.413 2.8 2.8 0 0 1-1.049-1.212 4.04 4.04 0 0 1-.387-1.841 4.2 4.2 0 0 1 .387-1.816 3.1 3.1 0 0 1 1.05-1.187" clip-rule="evenodd"/>
    <path fill="#151A2D" d="M38.13 3.253h1.462c.32.004.58.262.585.582v14.95a.59.59 0 0 1-.585.581H38.13a.59.59 0 0 1-.585-.582V3.834a.56.56 0 0 1 .585-.581m25.043 15.72c.07.25.305.42.566.41l1.507-.003a.6.6 0 0 0 .565-.41l3.314-10.04a.587.587 0 0 0-.342-.725 1 1 0 0 0-.243-.05h-1.392a.6.6 0 0 0-.565.413l-1.999 6.184-1.979-6.184a.565.565 0 0 0-.565-.414H60.6a.6.6 0 0 0-.565.414l-2.052 6.26-2.025-6.252a.565.565 0 0 0-.565-.413h-1.547a.8.8 0 0 0-.316.073.59.59 0 0 0-.283.703l3.339 10.033c.07.25.304.42.565.41h1.462a.565.565 0 0 0 .566-.388l2.07-6.007z"/>
    <path fill="#151A2D" fill-rule="evenodd" d="M75.07 19.723a5.39 5.39 0 0 1-4.896-2.91 6.84 6.84 0 0 1 0-6.08 5.32 5.32 0 0 1 4.874-2.907 5 5 0 0 1 2.29.563c.24.122.47.268.681.435v-.047a.614.614 0 0 1 .585-.608h1.487a.593.593 0 0 1 .586.582v10.033a.59.59 0 0 1-.586.58H78.63a.59.59 0 0 1-.585-.58v-.025q-.317.226-.66.413a4.9 4.9 0 0 1-2.315.551m-.022-9.378a2.84 2.84 0 0 0-1.487.413 3.1 3.1 0 0 0-1.05 1.187 3.9 3.9 0 0 0-.39 1.816 4.05 4.05 0 0 0 .39 1.841c.224.497.589.918 1.05 1.212.437.294.96.439 1.487.413a2.94 2.94 0 0 0 1.51-.413 2.8 2.8 0 0 0 1.048-1.212 4.47 4.47 0 0 0 0-3.632 2.76 2.76 0 0 0-1.049-1.19 2.46 2.46 0 0 0-1.51-.435m-24.882 5.622a.653.653 0 0 1 .88-.12l.998.722c0 .014.011.025.025.025a.654.654 0 0 1 .122.92 5.9 5.9 0 0 1-1.779 1.526 6.3 6.3 0 0 1-3.047.703 5.85 5.85 0 0 1-2.924-.773 5.45 5.45 0 0 1-1.999-2.134 6.36 6.36 0 0 1-.706-3.053 6.6 6.6 0 0 1 .706-3.027 5.2 5.2 0 0 1 1.98-2.134 5.6 5.6 0 0 1 2.875-.776 5.32 5.32 0 0 1 4.73 2.789 5.77 5.77 0 0 1 .704 2.833q.009.34-.023.678a.584.584 0 0 1-.585.534h-7.634c.122.616.4 1.192.806 1.673.52.59 1.282.91 2.07.871.642.02 1.28-.121 1.851-.413.367-.22.69-.506.95-.844m-2.824-5.644a2.55 2.55 0 0 0-1.877.725 3.2 3.2 0 0 0-.814 1.237h5.298a2.75 2.75 0 0 0-.733-1.333c-.438-.438-1.071-.63-1.874-.63" clip-rule="evenodd"/>
    <path fill="#151A2D" d="M92.59 8.43a.64.64 0 0 0-.486-.241h-1.388a.605.605 0 0 0-.565.388l-2.85 7.309-2.706-7.343a.62.62 0 0 0-.565-.362h-1.535a.57.57 0 0 0-.487.267.57.57 0 0 0-.05.562l3.969 10.42a1.55 1.55 0 0 1-.585.97c-.365.242-1.07.268-1.461.282a.64.64 0 0 0-.609.63v.992a.62.62 0 0 0 .633.63h.182c.612.005 1.5.01 2.207-.34 1.42-.747 1.757-1.65 2.137-2.67q.074-.202.153-.406l4.069-10.564a.68.68 0 0 0-.062-.523m5.931-4.757A3.674 3.674 0 0 1 102.196 0h76.869a3.674 3.674 0 0 1 3.674 3.674v18.652A3.674 3.674 0 0 1 179.065 26h-76.869a3.674 3.674 0 0 1-3.674-3.674z"/>
    <path fill="#fff" d="M110.767 19.683q-1.812 0-3.233-.82-1.42-.82-2.249-2.377-.82-1.558-.82-3.762 0-2.213.829-3.77.828-1.566 2.258-2.386t3.215-.82q1.539 0 2.787.574a5.14 5.14 0 0 1 2.049 1.648q.802 1.075 1.002 2.596h-2.814q-.192-1.103-1.002-1.721-.801-.63-1.967-.629-1.585 0-2.559 1.175t-.975 3.333q0 2.205.975 3.352.982 1.138 2.55 1.138 1.157 0 1.967-.619.819-.629 1.02-1.74h2.814a5.4 5.4 0 0 1-.892 2.369q-.738 1.092-1.995 1.776-1.247.683-2.96.683m12.182.017q-1.53 0-2.651-.655a4.5 4.5 0 0 1-1.73-1.84q-.601-1.184-.601-2.75 0-1.575.601-2.76a4.45 4.45 0 0 1 1.73-1.84q1.12-.664 2.651-.664t2.65.665a4.4 4.4 0 0 1 1.721 1.84q.61 1.183.611 2.759 0 1.566-.611 2.75a4.45 4.45 0 0 1-1.721 1.84q-1.12.656-2.65.656m0-2.149q1.093 0 1.648-.883.556-.884.556-2.222 0-1.349-.556-2.222-.556-.885-1.648-.884-1.093 0-1.649.883-.546.874-.546 2.223 0 1.338.546 2.222.556.883 1.649.883m9.431-3.944V19.5h-2.733V9.318h2.578l.036 2.104q.428-1.065 1.212-1.648.782-.583 1.958-.583 1.584 0 2.541 1.02t.956 2.814V19.5h-2.732v-6q0-.948-.492-1.485-.483-.537-1.348-.537-.874 0-1.43.564-.546.556-.546 1.567m12.746 6.091q-1.84 0-3.042-.782-1.193-.784-1.457-2.204l2.541-.438q.392 1.422 2.04 1.421.783 0 1.229-.291.456-.3.456-.756 0-.774-1.312-1.048l-1.758-.364q-2.932-.6-2.932-2.887 0-1.467 1.175-2.313 1.174-.847 3.105-.847 1.813 0 2.887.737 1.075.738 1.357 1.977l-2.422.428a1.66 1.66 0 0 0-.601-.847q-.437-.337-1.184-.337-.674 0-1.13.291-.455.283-.455.738 0 .382.292.656.3.264 1.02.41l1.83.364q2.915.591 2.915 2.75a2.8 2.8 0 0 1-.583 1.758q-.583.747-1.612 1.166-1.03.42-2.359.419m10.779-.001q-1.53 0-2.651-.655a4.5 4.5 0 0 1-1.73-1.84q-.601-1.184-.601-2.75 0-1.575.601-2.76a4.45 4.45 0 0 1 1.73-1.84q1.12-.664 2.651-.664t2.65.665a4.4 4.4 0 0 1 1.721 1.84q.61 1.183.611 2.759 0 1.566-.611 2.75a4.45 4.45 0 0 1-1.721 1.84q-1.12.656-2.65.656m0-2.149q1.093 0 1.648-.883.556-.884.556-2.222 0-1.349-.556-2.222-.555-.885-1.648-.884-1.093 0-1.649.883-.546.874-.546 2.223 0 1.338.546 2.222.556.883 1.649.883m9.431-11.622V19.5h-2.732V5.93zm6.744 13.77q-1.557 0-2.687-.637a4.3 4.3 0 0 1-1.739-1.812q-.601-1.174-.601-2.787 0-1.575.601-2.76a4.56 4.56 0 0 1 1.703-1.848q1.103-.666 2.586-.665 1.33 0 2.414.564 1.083.565 1.721 1.713.647 1.147.647 2.887v.765h-6.967q.045 1.248.692 1.885t1.676.637q.719 0 1.229-.3.519-.31.738-.902l2.477.465q-.374 1.265-1.548 2.03-1.166.766-2.942.766m-2.304-6.292h4.317q-.1-.993-.638-1.576-.537-.583-1.484-.583-.984 0-1.548.61-.565.6-.647 1.549"/>
</svg>
