<svg xmlns="http://www.w3.org/2000/svg" width="19" height="22" fill="none" viewBox="0 0 19 22">
    <path fill="#151A2D" d="M7.028 15.326a1.306 1.306 0 0 0 1.318 1.293l3.557-.005a1.69 1.69 0 0 0 1.484-1.583V9.937c0-.714-.582-1.293-1.3-1.293s-1.301.58-1.301 1.293v3.236c0 .466-.38.843-.848.843H8.329a1.305 1.305 0 0 0-1.3 1.31m-.812-2.513c-.718 0-1.3-.579-1.3-1.293V6.423a1.69 1.69 0 0 1 1.481-1.585h3.56a1.316 1.316 0 0 1 1.317 1.29c.004.346-.132.68-.376.926a1.3 1.3 0 0 1-.925.387H8.363a.846.846 0 0 0-.848.843v3.236c0 .713-.58 1.292-1.298 1.293"/>
    <path fill="#151A2D" fill-rule="evenodd" d="M4.085 0h6.455a7.72 7.72 0 0 1 5.449 2.234 7.63 7.63 0 0 1 2.26 5.412v10.196a4.05 4.05 0 0 1-3.711 3.596H7.712a7.72 7.72 0 0 1-5.454-2.24A7.64 7.64 0 0 1 0 13.778v-9.71C.002 1.824 1.829.005 4.085 0m10.063 4.108a5.14 5.14 0 0 0-3.63-1.496L4.183 2.6a1.595 1.595 0 0 0-1.577 1.597v9.533a5.08 5.08 0 0 0 1.5 3.604 5.14 5.14 0 0 0 3.625 1.492h6.554a1.6 1.6 0 0 0 1.357-1.301V7.722a5.08 5.08 0 0 0-1.495-3.614" clip-rule="evenodd"/>
</svg>
