<svg xmlns="http://www.w3.org/2000/svg" viewBox="0 0 2447.6 2452.5">
    <path fill="#36c5f0" d="M897.4 0a245 245 0 0 0-244.7 245.2 245 245 0 0 0 244.8 245.2h244.8V245.3A245.2 245.2 0 0 0 897.4 0q.15 0 0 0m0 654H244.8A245 245 0 0 0 0 899.2a245 245 0 0 0 244.7 245.3h652.7a245 245 0 0 0 244.8-245.2A245 245 0 0 0 897.4 654"/>
    <path fill="#2eb67d" d="M2447.6 899.2A245 245 0 0 0 2202.8 654 245 245 0 0 0 1958 899.2v245.3h244.8a245 245 0 0 0 244.8-245.3m-652.7 0v-654A245 245 0 0 0 1550.2 0a245 245 0 0 0-244.8 245.2v654a245 245 0 0 0 244.7 245.3 245 245 0 0 0 244.8-245.3"/>
    <path fill="#ecb22e" d="M1550.1 2452.5a245 245 0 0 0 244.8-245.2 245 245 0 0 0-244.8-245.2h-244.8v245.2a245.1 245.1 0 0 0 244.8 245.2m0-654.1h652.7a245 245 0 0 0 244.8-245.2 245 245 0 0 0-244.7-245.3h-652.7a245 245 0 0 0-244.8 245.2 245 245 0 0 0 244.7 245.3"/>
    <path fill="#e01e5a" d="M0 1553.2a245 245 0 0 0 244.8 245.2 245 245 0 0 0 244.8-245.2V1308H244.8A245 245 0 0 0 0 1553.2m652.7 0v654a245 245 0 0 0 244.7 245.3 245 245 0 0 0 244.8-245.2v-653.9a244.8 244.8 0 1 0-489.5-.2s0 .1 0 0"/>
</svg>
