<svg xmlns="http://www.w3.org/2000/svg" viewBox="0 0 64 64">
  <path fill="#EEF" d="m37.2 1.7 23.2 17a9 9 0 0 1 3.2 10L54.7 56a8.8 8.8 0 0 1-8.4 6.1H17.7A8.8 8.8 0 0 1 9.3 56L.4 28.6a9 9 0 0 1 3.2-10L26.8 1.8a8.7 8.7 0 0 1 10.4 0Z"/>
  <circle cx="32.2" cy="17.1" r="6.1" fill="none" stroke="#AE5CFF" stroke-width="2"/>
  <path fill="none" stroke="#4F0599" stroke-linecap="round" stroke-linejoin="round" stroke-width="2" d="M48 25.5a153 153 0 0 1-31.7 0c-.9.2-2.5.8-2.3 2.1.3 1.3 1.6 2 2.3 2.2l8.6.8c1.7 0 2.3 1.4 2.4 2v4.5L21.6 51c-.3.8-.6 2.7 1.2 3.4 1.8.7 2.8-.7 3.1-1.5l5.5-13h1l5.7 13c.6.7 2 1.9 3.2 1.5 1-.4 1.2-2 1.1-2.8l-5.6-15.4v-2.5c-.4-2.4 1.4-3 2.4-3.1l8.8-.8c.7-.1 2.3-.9 2.3-2.2 0-1.3-1.6-2-2.3-2Z"/>
</svg>
