<svg xmlns="http://www.w3.org/2000/svg" width="550" height="550" fill="none" viewBox="0 0 550 550">
    <path fill="#fff" fill-rule="evenodd" d="M227.821 305.13q-.503 1.317-1.01 2.63c-.65 1.687-1.3 3.372-1.926 5.065q-5.41 14.589-10.81 29.184l-.007.02-3.961 10.702q-.058.158-.111.318v.001c-.085.252-.169.504-.292.738-.964 1.826-.313 2.774 1.411 3.851 8.273 5.17 16.495 10.42 24.717 15.669l.003.002.027.017.019.013.019.012.012.008.005.003.006.003.005.003.005.004q4.748 3.033 9.501 6.059 2.144 1.363 4.295 2.713c2.868 1.804 5.736 3.608 8.564 5.474.642.423 1.264 1.451 1.26 2.196a25164 25164 0 0 1-.381 52.14v.036l-.001.007v.021q-.105 12.994-.203 25.989c-.009 1.147-.379 1.79-1.42 2.343a8029 8029 0 0 0-29.946 16.067l-3.559 1.916-8.604 4.631-.035.019-.035.019c-9.542 5.137-19.083 10.275-28.646 15.371-.557.297-1.602.269-2.135-.065-6.98-4.365-13.93-8.781-20.882-13.198l-4.734-3.008q-7.826-4.968-15.654-9.934l-.012-.008-15.643-9.927q-1.016-.644-2.034-1.285h-.001c-2.348-1.48-4.696-2.959-6.993-4.514-.435-.296-.677-.9-.909-1.481h-.001a13 13 0 0 0-.204-.492c-.082-.181-.06-.41-.037-.639.009-.1.019-.2.021-.296l.118-15.316c.159-20.395.317-40.789.435-61.186.008-1.781.508-2.708 2.175-3.595 9.323-4.942 18.606-9.961 27.887-14.98q6.197-3.353 12.398-6.695 6.01-3.234 12.026-6.454v-.001h.001l.001-.001h.001v-.001h.002v-.001a4498 4498 0 0 0 17.48-9.398c1.098-.594 1.879-.537 2.9.15 1.636 1.105 3.317 2.139 5.082 3.225.749.461 1.513.931 2.295 1.419q.176-.404.337-.759c.226-.503.426-.949.594-1.404q4.813-13.026 9.619-26.052l6.42-17.392c.31-.842.638-1.677.967-2.512q.337-.851.664-1.706c.35-.914.26-1.594-.712-2.204-6.084-3.832-12.15-7.693-18.216-11.553l-.008-.005-.03-.019-.031-.02-.015-.009q-3.96-2.521-7.922-5.038-9.259-5.883-18.521-11.762l-12.629-8.019-10.165-6.455-.208-.132q-10.384-6.597-20.774-13.189c-3.92-2.489-7.849-4.957-11.785-7.426-.915-.573-.972-1.203-.269-1.98l8.271-9.174.13-.144q8.405-9.319 16.805-18.645 6.22-6.913 12.435-13.834l.014-.016.008-.009q5.467-6.088 10.938-12.171 6.858-7.62 13.72-15.236 6.87-7.626 13.738-15.256 11.583-12.865 23.16-25.73 5.51-6.123 11.017-12.251l.028-.03.013-.015q8.316-9.25 16.636-18.493a3134 3134 0 0 1 5-5.535l.001-.002h.001v-.001h.001v-.001h.001v-.001c4.181-4.622 8.361-9.242 12.47-13.927.818-.935 1.363-2.436 1.387-3.684.195-10.423.252-20.85.301-31.277.008-1.505.557-2.53 1.879-3.176 1.923-.944 3.884-.972 5.823-.118 1.578.695 2.29 1.838 2.261 3.705a2114 2114 0 0 0-.223 31.655c0 .963.463 2.114 1.086 2.863 10.467 12.509 20.988 24.973 31.516 37.433 4.7 5.562 9.408 11.118 14.115 16.674l.002.003.002.002.002.002.003.003.002.002.002.002.002.003.002.002.002.002.002.003c5.061 5.973 10.122 11.946 15.173 17.926 5.34 6.322 10.672 12.652 16.004 18.98l.019.024c4.93 5.851 9.858 11.702 14.794 17.547 6.091 7.216 12.19 14.424 18.288 21.632l.03.035q6.459 7.634 12.914 15.271 3.453 4.085 6.901 8.173l.003.004c4.052 4.802 8.104 9.604 12.169 14.393.902 1.065.943 1.716-.419 2.444-10.432 5.577-20.844 11.185-31.258 16.793l-.003.002-.002.001-.003.002-.003.001-.003.002-.003.001-.003.002-.002.001-.015.008-6.513 3.508c-4.424 2.383-8.847 4.774-13.363 7.215l-.033.018-.013.007-8.14 4.399c.56.371 1.09.726 1.601 1.067l.001.001.005.003.001.001c1.024.684 1.97 1.317 2.926 1.929q1.117.714 2.232 1.431l.001.001h.001c2.846 1.828 5.69 3.654 8.591 5.392 1.151.691 1.452 1.48 1.444 2.733-.074 8.839-.138 17.678-.202 26.517v.06l-.001.019v.098l-.001.02c-.086 11.947-.172 23.894-.284 35.843-.016 1.875.443 3.034 2.147 4.103 11.803 7.404 23.558 14.883 35.315 22.362q4.44 2.826 8.882 5.649 3.072 1.954 6.139 3.913l.008.005.002.001.002.002.002.001.002.002.002.001.002.001.002.002.002.001c4.716 3.01 9.431 6.02 14.182 8.975 1.184.736 1.173 1.673 1.161 2.711l-.002.193-.06 8.299c-.101 13.94-.202 27.883-.318 41.822-.029 3.618-.068 7.235-.106 10.852-.057 5.427-.115 10.854-.142 16.281-.008 1.289-.39 2.021-1.574 2.647a3092 3092 0 0 0-19.439 10.405l-6.445 3.467-17.29 9.29q-8.603 4.624-17.208 9.246-1.358.73-2.721 1.453c-2.472 1.316-4.944 2.631-7.368 4.029-1.061.61-1.745.459-2.7-.155-11.998-7.678-24.022-15.318-36.044-22.957l-.002-.002-.002-.001-.002-.002-.003-.001-.002-.001-.002-.002-.002-.001-.002-.001-.002-.002-1.566-.995-2.934-1.863-.256-.163c-8.099-5.146-16.199-10.292-24.337-15.375-1.355-.846-1.595-1.875-1.582-3.29q.098-11.021.183-22.042c.105-13.316.211-26.631.366-39.946.024-2.107-.692-3.294-2.432-4.384-8.179-5.135-16.326-10.319-24.473-15.503q-5.17-3.29-10.342-6.575a6871 6871 0 0 1-6.366-4.048c-7.143-4.545-14.285-9.09-21.491-13.536-2.069-1.277-2.85-2.639-2.81-5.104.113-7.404.171-14.808.228-22.212.068-8.863.137-17.725.301-26.588.057-3.103-.744-5.051-4.075-6.027zm34.542 19.13c51.269-27.596 102.086-54.949 153.004-82.354a20 20 0 0 1-.321-.553c-.178-.313-.317-.558-.496-.769q-9.51-11.304-19.044-22.59-6.644-7.857-13.296-15.71l-.006-.007-.006-.007-.006-.007-.006-.007-.006-.007-.006-.007-.006-.007-.006-.007-.037-.044-.004-.005-.004-.005-.004-.004-.004-.005-.004-.005-.004-.005-.005-.005-.004-.004c-5.298-6.257-10.596-12.513-15.886-18.776-5.469-6.473-10.93-12.953-16.391-19.432l-.017-.02-.006-.007c-4.961-5.886-9.922-11.773-14.888-17.653q-6.549-7.754-13.102-15.503l-.035-.041-.008-.009c-5.865-6.936-11.73-13.872-17.586-20.815a23005 23005 0 0 1-18.157-21.563l-.009-.01-.016-.02-.021-.024-.01-.013q-5.498-6.534-10.998-13.067l-.293-.355c-.991-1.216-1.977-2.426-3.806-.719-.255.239-.685.291-1.167.35-.241.03-.496.06-.749.118l-2.502 94.848c-1.358 51.483-2.718 103.042-4.086 154.821zm-1.463-1.131.001-.007c.037-.538.065-.94.076-1.343q.249-9.542.495-19.085l.001-.033v-.013c.329-12.708.657-25.415 1.004-38.123.449-16.522.908-33.043 1.367-49.565v-.018l.001-.006v-.025l.001-.006c.459-16.543.919-33.087 1.368-49.631.311-11.453.613-22.905.916-34.358v-.015c.466-17.609.931-35.218 1.426-52.825.061-2.098.094-3.86-2.468-4.376-.293-.059-.559-.26-.873-.497a9 9 0 0 0-.534-.381c-32.73 36.381-65.439 72.741-98.204 109.164l-46.7 51.913 68.487 43.501.593.377 1.08.685 71.897 45.668v-.004c.024-.385.047-.71.066-.997m107.518 190.937c.435-.154.778-.276 1.097-.446a784 784 0 0 0 4.605-2.486l.007-.004.01-.005a1065 1065 0 0 1 3.324-1.799q15.079-8.125 30.163-16.242l3.056-1.645.013-.007.013-.007.012-.007.013-.006.013-.007.012-.007.013-.007.013-.007.012-.006c8.723-4.694 17.445-9.388 26.187-14.049 1.378-.736 1.936-1.679 1.948-3.273.098-18.288.228-36.574.357-54.861l.001-.011v-.101l.138-19.638c0-.326-.028-.651-.059-1.025a35 35 0 0 1-.047-.586c-.174.057-.338.102-.492.145-.312.088-.583.164-.825.294a22366 22366 0 0 0-30.517 16.385q-5.376 2.893-10.75 5.789a6979 6979 0 0 1-26.561 14.264c-1.44.768-2.083 1.63-2.087 3.338-.076 20.137-.202 40.275-.327 60.41v.05l-.083 13.395c-.003.47-.002.94-.001 1.476v.021l.001.931v.004c.276-.105.519-.192.74-.27m-182.012-7.111c.758-.399 1.476-.775 2.165-1.136a383 383 0 0 0 4.175-2.207q7.458-4.018 14.914-8.041l.013-.007q9.101-4.911 18.204-9.813l2.513-1.352c9.105-4.901 18.209-9.802 27.336-14.658 1.387-.736 1.952-1.639 1.961-3.241.092-17.627.216-35.257.34-52.885v-.095l.001-.015v-.114l.147-21.108c.002-.434-.045-.865-.096-1.331q-.038-.337-.071-.702c-.19.055-.344.094-.473.127-.22.056-.37.094-.503.166a33198 33198 0 0 0-34.319 18.434 9512 9512 0 0 0-9.942 5.359h-.001l-.001.001-.001.001h-.001l-.002.001-.001.001h-.001l-.001.001h-.001c-7.892 4.258-15.784 8.515-23.703 12.724-1.517.806-2.172 1.664-2.18 3.453-.089 19.877-.233 39.752-.378 59.629l-.102 14.213c-.003.427-.002.852-.001 1.412l.001 1.183zm116.35-113.495c-.364-.251-.76-.524-1.206-.825l1.797-.987.703-.387c2.156-1.186 4.179-2.299 6.21-3.394a45719 45719 0 0 1 32.028-17.213c1.539-.832 3.078-1.663 4.658-2.405.431-.203 1.431-.041 1.635.289.917 1.462 1.745 2.982 2.631 4.608l.001.002v.001l.004.006v.001q.44.811.91 1.661l-13.484 7.273c-6.688 3.608-13.402 7.229-20.265 10.933.414.289.783.55 1.121.79.678.481 1.237.878 1.815 1.244a43567 43567 0 0 0 31.618 20.081l1.484.942.004.002.002.001.002.002.002.001.003.001.002.002.002.001.002.001.002.002c4.268 2.708 8.534 5.415 12.842 8.057.492.3 1.456.309 1.977.032 9.794-5.242 19.574-10.511 29.353-15.78l.02-.011q6.533-3.521 13.07-7.039a410 410 0 0 1 5.375-2.819l.001-.001.002-.001h.001l.001-.001.002-.001h.001l.001-.001.001-.001.007-.003.013-.007q1.55-.801 3.095-1.61c1.309-.687 1.346-1.297.093-2.094a22662 22662 0 0 0-17.985-11.412l-.006-.004-.007-.004-.006-.004-.006-.003q-7.288-4.62-14.572-9.244l-1.089-.691c-4.403-2.795-8.808-5.591-13.181-8.435-1.012-.655-1.805-.748-2.895-.122-1.423.818-2.876 1.584-4.329 2.349l-.001.001c-1.321.696-2.643 1.392-3.942 2.128-1.049.593-1.647.569-2.237-.566-.698-1.343-1.454-2.657-2.246-4.034v-.001c-.347-.603-.701-1.218-1.06-1.853l2.55-1.389c2.51-1.368 4.937-2.69 7.369-4.004.476-.256.961-.497 1.446-.738l.001-.001h.001c.923-.459 1.844-.917 2.7-1.477 1.281-.842 2.265-.777 3.574.065 6.816 4.382 13.663 8.716 20.51 13.05l.005.003.021.014.022.014q4.021 2.544 8.039 5.093a37512 37512 0 0 1 34.002 21.598c.298.189.573.409.898.669l.213.17.121.096.114.088.118.091c-.216.142-.403.271-.573.388l-.006.005h-.001a9 9 0 0 1-.819.526l-6.669 3.599-.008.004a70487 70487 0 0 1-37.39 20.167l-2.661 1.434-.03.016-.03.017c-7.153 3.856-14.311 7.715-21.508 11.494-.651.341-1.883.252-2.521-.151-18.353-11.586-36.676-23.223-54.999-34.861l-6.676-4.24a51 51 0 0 1-1.787-1.198m-45.431-4.711c-.264-.189-.492-.357-.697-.508a20 20 0 0 0-1.028-.724c-7.352-4.689-14.709-9.378-22.069-14.054q-5.399-3.43-10.801-6.855l-.019-.013-.008-.004-.007-.005q-6.505-4.124-13.004-8.255c-.72-.46-1.346-.818-1.753.296-.188.514-.383 1.025-.577 1.537l-.001.001-.001.004v.001l-.001.001c-.563 1.483-1.127 2.966-1.547 4.491-.15.549.301 1.586.801 1.944 1.434 1.017 2.934 1.945 4.432 2.873l.002.001q.954.588 1.898 1.185l5.358 3.404.281.179c6.804 4.323 13.608 8.647 20.404 12.98 1.253.797 1.192 1.424-.13 2.119q-1.331.697-2.664 1.391a503 503 0 0 0-5.494 2.891l-2.446 1.317c-13.276 7.145-26.55 14.29-39.802 21.481-1.082.59-1.83.618-2.888-.057a16852 16852 0 0 0-27.903-17.745l-.016-.01-.023-.015q-9.142-5.805-18.279-11.616c-.405-.257-.741-.621-1.077-.985a13 13 0 0 0-.469-.491 13 13 0 0 0 .515-.459c.369-.34.738-.68 1.165-.911a20022 20022 0 0 1 17.125-9.224c10.92-5.877 21.841-11.755 32.744-17.665 1.086-.59 1.802-.488 2.717.114 1.013.669 2.046 1.305 3.152 1.985.519.32 1.054.649 1.61.996q.348-.924.683-1.805l.01-.026.002-.006c.748-1.969 1.445-3.804 2.066-5.662.11-.326-.329-1.037-.703-1.294a74 74 0 0 0-2.499-1.6l-.001-.001-.002-.001c-1.133-.704-2.265-1.408-3.338-2.192-1.22-.895-2.172-.768-3.416-.089a7784 7784 0 0 1-30.749 16.595l-.002.001h-.001l-.001.001h-.001l-.001.001h-.001l-.002.002-.002.001-.002.001-1.048.563q-8.222 4.417-16.448 8.829-9.856 5.286-19.708 10.581c-.243.131-.449.324-.682.542v.001h-.001l-.001.001q-.17.161-.37.335.188.162.341.305c.211.193.389.356.591.484l1.125.721a4210 4210 0 0 0 15.845 10.124q6.26 3.97 12.521 7.935c11.247 7.126 22.494 14.251 33.717 21.411 1.122.715 1.94.76 3.074.134 4.871-2.698 9.781-5.333 14.688-7.967l.371-.199q11.856-6.37 23.713-12.737 11.856-6.366 23.713-12.737c1.499-.805 2.99-1.628 4.579-2.504l.005-.003.002-.001c.783-.432 1.589-.876 2.433-1.339M366.08 513.558c.054-.422.093-.733.096-1.043l.181-23.076v-.045c.135-17.287.269-34.573.421-51.86.012-1.285-.431-2.078-1.521-2.749-3.855-2.386-7.681-4.82-11.504-7.253l-1.863-1.185-16.322-10.377-.037-.024-.037-.023-.163-.104-.165-.105-.056-.035-.055-.036-.012-.007a69243 69243 0 0 0-28.582-18.167 259 259 0 0 0-3.807-2.349l-.007-.004-.085-.052-.67-.409-.297-.18-.368-.225-.321-.197c-.03.303-.06.559-.086.785-.049.418-.086.733-.089 1.049l-.161 20.452c-.143 18.176-.285 36.353-.445 54.529-.012 1.196.322 1.948 1.371 2.607 4.138 2.593 8.255 5.222 12.372 7.851l.002.002.003.001.002.002.003.001.002.002.002.001.003.002.002.001.003.002q3.09 1.975 6.186 3.945a65259 65259 0 0 0 38.284 24.314c1.53.972 3.065 1.931 4.681 2.942.948.593 1.924 1.204 2.944 1.845l-.004-.008.024-.218.025-.209.048-.382zm-181.073-6.672v-2.684l.05-11.097c.044-10.176.089-20.353.158-30.53.029-4.28.071-8.559.113-12.839v-.01c.065-6.516.13-13.032.147-19.55 0-.907-.452-2.228-1.135-2.667-17.636-11.289-35.315-22.506-52.996-33.724l-.002-.002-.003-.001-.002-.001-.002-.002-.002-.001-.001-.001-.002-.001-.002-.001-.003-.002-6.366-4.04a276 276 0 0 0-3.597-2.229l-.003-.002-.005-.004q-.825-.505-1.71-1.051c-.031.314-.063.582-.091.822-.053.451-.094.799-.096 1.147l-.141 21.419c-.116 17.85-.231 35.7-.368 53.55-.008 1.216.387 1.96 1.411 2.598 4.063 2.524 8.098 5.088 12.133 7.651l1.706 1.084q9.208 5.856 18.413 11.714 13.81 8.789 27.626 17.571c.967.613 1.952 1.2 3.046 1.852l.003.001.005.003c.542.323 1.11.661 1.716 1.027M298.77 403.274v-.003c.04-.647.073-1.18.075-1.712l.255-32.462q.125-16.17.254-32.34c.008-1.083.026-2.167.045-3.25v-.004c.036-2.118.072-4.236.032-6.352-.012-.679-.427-1.626-.964-1.98-4.682-3.082-9.425-6.071-14.17-9.062l-.417-.263c-.456-.289-1.167-.691-1.525-.525-1.933.897-3.833 1.869-5.909 2.93l-.003.001-.001.001q-1.023.525-2.115 1.078c1.489.951 2.935 1.88 4.352 2.791l.008.006.002.001.008.005c3.757 2.414 7.309 4.696 10.905 6.908 1.232.761 1.744 1.578 1.732 3.006-.095 10.585-.174 21.168-.254 31.752v.022q-.087 11.896-.185 23.793c-.003.365-.102.73-.217 1.152-.06.221-.124.457-.182.718l-1.314-.821-.003-.001c-.818-.511-1.553-.969-2.282-1.431q-5.467-3.48-10.933-6.965c-10.851-6.917-21.703-13.834-32.604-20.672-1.859-1.163-2.522-2.354-2.489-4.502.187-12.471.26-24.943.332-37.415l.014-2.332c.004-.769-.029-1.907-.497-2.249-1.653-1.2-3.391-2.284-5.217-3.424l-.006-.003c-.66-.412-1.331-.831-2.015-1.266-.04.302-.081.557-.118.782v.001c-.063.392-.111.692-.114.994q-.091 10.56-.176 21.12v.007c-.08 9.848-.161 19.697-.251 29.544-.012 1.102.285 1.826 1.289 2.46 7.916 4.975 15.803 9.994 23.689 15.012l3.167 2.015q6.278 3.996 12.552 7.996c5.177 3.3 10.355 6.601 15.537 9.894a834 834 0 0 0 6.248 3.923l.022.013c1.1.686 2.224 1.388 3.384 2.115v.004c.02-.369.04-.701.059-1.006zm50.36-12.581-.084.046-.003.001-5.782 3.121c.249.184.457.344.64.484l.002.001.001.001c.324.248.571.438.834.604q3.055 1.935 6.114 3.863c5.39 3.399 10.78 6.798 16.106 10.297 1.643 1.078 2.773 1.017 4.384.11 3.714-2.096 7.478-4.106 11.241-6.116h.001l.005-.003.008-.004q2.236-1.193 4.467-2.393c3.169-1.707 6.338-3.423 9.654-5.218l.073-.04c-.174-.153-.321-.294-.455-.422l-.001-.001c-.246-.234-.446-.425-.675-.569q-5.593-3.553-11.189-7.099-6.172-3.91-12.336-7.826c-1.334-.848-2.253-.166-3.163.51v.001c-.385.286-.768.571-1.18.738-.192.077-.029 1.687.345 2.391a262 262 0 0 0 3.123 5.624c.829 1.466 1.658 2.931 2.465 4.408.201.369.247.823.292 1.277v.001h.001c.02.207.041.414.077.613l-.525.147a6 6 0 0 0-.225-.267 4 4 0 0 1-.434-.567 5025 5025 0 0 1-8.641-15.226 42276 42276 0 0 1-19.866-35.25q-4.091-7.267-8.176-14.537l-.012-.02-.049-.089-.011-.018a19233 19233 0 0 0-6.144-10.927q-1.875-3.333-3.754-6.665l-.011-.019a3998 3998 0 0 1-7.861-13.987c-.619-1.11-1.306-1.374-2.416-.679-1.009.634-2.046 1.248-3.144 1.696-1.37.557-1.382 1.183-.687 2.407 5.816 10.196 11.583 20.42 17.35 30.645l.001.002.001.001 2.213 3.923q14.012 24.84 28.011 49.686c1.237 2.193 2.465 4.39 3.693 6.589l.007.013 1.969 3.52-.182.125-.051.035-.235.162c-1.938-1.332-2.95-3.351-3.976-5.395-.803-1.601-1.614-3.217-2.884-4.532v.008c-2.951 1.595-5.911 3.192-8.926 4.819m-186.961-4.453c.175.162.323.307.455.437.257.253.456.448.687.596l2.305 1.466c7.014 4.461 14.028 8.921 21.087 13.312.581.362 1.716.391 2.33.069 6.386-3.349 12.732-6.775 19.08-10.202l1.998-1.079c1.239-.669 2.466-1.358 3.807-2.11l.014-.008.004-.003.008-.004c.574-.322 1.169-.657 1.795-1.006-3.96-2.509-7.691-4.875-11.467-7.27l-.164-.104-.008-.005-.096-.061-.071-.045-3.151-1.998c-.233.599-.445 1.175-.65 1.73v.001c-.448 1.218-.861 2.339-1.384 3.409-.186.382-.302.814-.42 1.257-.324 1.207-.67 2.502-2.544 3.127.173-.505.328-.966.474-1.398l.003-.008v-.001l.001-.001v-.002l.001-.003c.311-.922.577-1.71.867-2.491 3.546-9.593 7.092-19.187 10.65-28.776q6.152-16.593 12.314-33.18l1.539-4.14.004-.01c1.52-4.086 3.04-8.173 4.529-12.271.183-.504.228-1.464-.053-1.667-1.248-.892-2.557-1.696-3.96-2.557q-.756-.462-1.55-.957c-10.801 29.15-21.452 57.897-32.103 86.648l-.63-.024a7 7 0 0 0-.09-.597c-.08-.44-.16-.881-.032-1.249.606-1.742 1.246-3.473 1.885-5.204h.001a294 294 0 0 0 1.835-5.06c.248-.72.48-1.851.114-2.29-.752-.911-1.773-1.253-3.144-.492-4.501 2.495-9.042 4.914-13.583 7.333h-.001q-2.991 1.591-5.976 3.191a340 340 0 0 0-4.458 2.454l-.006.004-.002.001c-.728.406-1.468.818-2.228 1.238zm205.157-6.924c-.298.146-.602.294-.908.458-1.482-2.15-1.473-2.156.004-3.202.185-.132.394-.279.625-.45 3.315-2.444 5.897-1.895 9.191.309 7.373 4.931 14.879 9.665 22.386 14.399l.003.002.005.003.004.003.004.002.004.003c2.888 1.821 5.775 3.642 8.655 5.474.989.629 1.975 1.264 3.004 1.928l.013.008.003.002 1.677 1.08-.099.084-.131.116-.134.122-.047.043-.07.066h-.001l-.001.001v.001h-.001c-.251.233-.449.416-.679.539q-12.165 6.549-24.341 13.087l-.549.295-7.594 4.08q-1.201.643-2.405 1.282l-.003.001c-2.076 1.104-4.154 2.208-6.197 3.369-.985.561-1.737.659-2.745.016a12504 12504 0 0 0-26.128-16.595q-5.84-3.702-11.676-7.406c-.266-.167-.504-.381-.812-.66h-.001a26 26 0 0 0-.545-.483l6.907-3.717 21.299-11.46c1.708 2.375 1.655 2.424-.626 3.628-2.107 1.111-4.204 2.242-6.3 3.372l-.002.001-.004.002c-2.374 1.279-4.747 2.559-7.135 3.811-1.164.61-.858 1.176-.375 2.069l.009.017c1.814 3.355 4.848 5.299 7.951 7.235a1378 1378 0 0 1 17.954 11.394c1.065.684 1.891.838 3.066.196 2.874-1.573 5.762-3.121 8.649-4.669l.003-.001c5.241-2.809 10.481-5.618 15.639-8.576 1.297-.742 2.229-2.146 3.142-3.522h.001v-.001l.001-.001.002-.003c.296-.447.591-.891.896-1.308.126-.171-.509-1.163-.988-1.48-2.555-1.692-5.141-3.332-7.726-4.972q-.97-.614-1.937-1.23-2.482-1.58-4.968-3.157l-.01-.006-.002-.001-.001-.001-.002-.001-.002-.002-.002-.001-.002-.001-.002-.001-.001-.001c-3.365-2.135-6.73-4.271-10.079-6.433-1.374-.887-2.619-1.261-4.075-.171-.533.4-1.147.7-1.791 1.014m4.246-91.57-.363.159-.004.001c-.511.223-.922.402-1.315.612q-10.034 5.382-20.061 10.781l-2.916 1.568-.006.003c-5.988 3.22-11.976 6.439-17.936 9.71-.439.24-.968 1.195-.817 1.504.802 1.624 1.7 3.201 2.634 4.842l.004.008.002.003.001.002q.47.825.95 1.676 1.107-.585 2.15-1.133a387 387 0 0 0 4.039-2.144q4.013-2.166 8.024-4.336c4.941-2.672 9.881-5.344 14.831-7.998 2.212-1.188 2.517-.956 2.497 1.549q-.213 25.429-.407 50.858c-.003.458.036.919.084 1.483v.001c.025.301.053.632.079 1.009.767-.414 1.496-.821 2.202-1.215l.004-.002c1.576-.88 3.039-1.696 4.561-2.387s1.838-1.671 1.846-3.224c.069-15.777.18-31.553.29-47.328v-.04l.096-13.848c.003-.389.002-.778.001-1.277v-.355l-.001-.682v-.008q-.247.112-.469.208m-168.92 86.127c-1.671 2.668-1.577 2.904.728 4.344a737 737 0 0 1 13.172 8.401c.509.334 1.167 1.407 1.021 1.611-.287.398-.566.82-.847 1.244-.927 1.399-1.875 2.832-3.195 3.587-5.252 3.012-10.592 5.873-15.932 8.734h-.001l-.001.001h-.001v.001h-.001l-.002.001a1200 1200 0 0 0-8.361 4.508c-1.11.606-1.891.455-2.899-.203a540 540 0 0 0-6.319-4.025c-2.825-1.78-5.649-3.561-8.427-5.41-.926-.617-1.888-1.19-2.851-1.763-3.16-1.88-6.326-3.764-8.243-7.249-.732-1.334-.756-1.785.631-2.517 8.487-4.486 16.933-9.048 25.367-13.636q.24-.13.477-.264c1.759-.981 3.456-1.929 5.404-.183.034.029.132-.013.226-.052l.039-.017.02-.008.056-.02c1.399-2.489 1.257-2.717-1.024-4.108-1.335-.811-2.313-.242-3.293.329l-.001.001-.295.171-.036.019-.066.038-.062.033-.05.027c-9.239 4.945-18.466 9.919-27.69 14.892-2.623 1.416-5.243 2.839-7.912 4.288l-.029.015-.016.009-.008.005-.048.026-.014.007c-1.834.996-3.69 2.004-5.588 3.031.225.179.425.347.61.502.359.3.666.557 1.001.771q5.767 3.664 11.536 7.322a8921 8921 0 0 1 25.787 16.399c1.123.716 1.94.679 3.071.065 8.324-4.509 16.664-8.992 25.004-13.475q5.892-3.167 11.783-6.338c1.195-.642 2.375-1.315 3.656-2.045l.004-.003.003-.001c.613-.349 1.249-.712 1.92-1.09l-4.459-2.831-.167-.106-.58-.368c-7.864-4.992-15.483-9.828-23.102-14.662zm76.435-7.423c-.019.308-.041.654-.062 1.058-.567-.341-1.101-.659-1.613-.963l-.012-.008-.005-.003-.003-.001a116 116 0 0 1-2.93-1.781c-6.775-4.307-13.547-8.613-20.281-12.973-.48-.309-.951-1.061-.951-1.61.015-8.802.096-17.604.177-26.406l.014-1.459c0-.143.054-.284.136-.497.048-.126.107-.276.169-.467l.636.386.432.262.013.009c1.025.622 1.997 1.212 2.973 1.795a1470 1470 0 0 1 5.108 3.076h.001v.001h.001c4.44 2.682 8.881 5.365 13.393 7.92 2.286 1.293 3.189 2.736 3.103 5.445-.185 5.894-.197 11.792-.209 17.69-.005 2.387-.01 4.774-.027 7.161-.002.418-.029.837-.063 1.364zm21.328 25.158c.776-.417 1.516-.826 2.234-1.223 1.62-.894 3.128-1.728 4.683-2.457 1.322-.623 1.794-1.403 1.798-2.875.028-6.637.074-13.273.12-19.91v-.009c.074-10.613.148-21.227.148-31.842 0-2.228.842-3.188 2.648-4.083 2.599-1.285 5.143-2.68 7.785-4.129a617 617 0 0 1 3.239-1.768 301 301 0 0 0-1.054-1.868l-.012-.021-.001-.002-.001-.002c-.814-1.436-1.603-2.826-2.344-4.243-.553-1.062-1.154-1.041-2.106-.521-5.002 2.745-10.008 5.478-15.059 8.13-1.285.675-1.736 1.512-1.745 2.956-.085 16.003-.205 32.004-.324 48.006l-.103 13.734c0 .363.02.727.045 1.215v.005l.019.36.026.543zm-33.313-67.19a86 86 0 0 0-.853-.615q.865-.477 1.677-.932c1.446-.81 2.792-1.563 4.181-2.222.492-.232 1.379-.114 1.871.191 4.859 2.993 9.699 6.019 14.469 9.154.703.464 1.427 1.545 1.427 2.338-.018 13.443-.117 26.889-.216 40.335v.011l-.036 4.851c0 .232-.034.463-.082.791-.026.18-.057.388-.089.641l-.372-.233-.466-.293-.559-.35-.445-.278-.941-.588-.007-.005c-1.92-1.201-3.774-2.361-5.624-3.532a4334 4334 0 0 1-8.34-5.308l-.009-.005-.009-.006-.018-.012c-6.781-4.323-13.563-8.646-20.399-12.875-2.192-1.354-3.181-2.725-3.103-5.454.199-6.957.222-13.92.245-20.883v-.005q.012-3.868.035-7.737c.003-.476.002-.95.001-1.463v-.355l-.001-.265v-.231c2.062.264 2.66 1.232 2.636 2.969-.06 4.071-.095 8.142-.131 12.213-.044 5.156-.089 10.312-.183 15.469-.032 1.679.582 2.643 1.932 3.493a4207 4207 0 0 1 17.8 11.288l.009.006.013.008.02.013.02.012 6.127 3.898c2.22 1.409 2.227 1.399 3.369-.512l.002-.004.002-.003.304-.505c1.492-2.461 1.7-5.006 1.691-7.735-.02-7.723.041-15.441.131-23.164.012-1.256-.338-2.078-1.452-2.765-3.662-2.26-7.288-4.575-10.915-6.891l-2.278-1.454c-.47-.3-.922-.629-1.43-.998zm59.345 4.895.001.001c.299.524.608 1.065.924 1.634q-1.081.58-2.116 1.129c-1.881.999-3.659 1.944-5.398 2.952-.537.313-1.171 1.045-1.18 1.59l-.029 2.231-.007.456v.004c-.109 8.083-.219 16.168-.061 24.246.031 1.686.706 3.366 1.373 5.026.209.519.416 1.036.603 1.55.082.232 1.241.366 1.684.13 6.319-3.351 12.607-6.763 18.89-10.187 2.22-1.208 2.269-1.208 3.379 1.627l-8.109 4.367-25.669 13.823c-.024-.354-.051-.665-.075-.948v-.002c-.045-.52-.082-.945-.079-1.372q.05-6.965.105-13.928c.077-10.053.155-20.105.208-30.159.008-1.407.358-2.285 1.716-2.956 3.314-1.639 6.551-3.445 9.784-5.25 1.062-.594 1.664-.476 2.217.654.549 1.122 1.168 2.207 1.836 3.376zm-83.661-14.939c-.021.376-.044.703-.064.998-.037.541-.067.974-.07 1.405q-.045 5.029-.077 10.058v.006c-.061 8.947-.122 17.893-.338 26.837-.065 2.79.749 4.502 3.197 5.576a1 1 0 0 1 .128.072l.022.013.012.008c11.428 7.263 22.855 14.526 34.29 21.781 2.104 1.333 4.218 2.653 6.351 3.985l.002.001 2.863 1.789c1.244-4.046.618-6.007-2.396-8.024a39 39 0 0 0-1.428-.899 83 83 0 0 1-.804-.495l-9.242-5.863c-8.515-5.403-17.029-10.806-25.561-16.179-1.37-.862-1.923-1.83-1.895-3.501.096-6.091.148-12.182.199-18.274v-.005c.039-4.702.078-9.403.139-14.104.016-1.362-.411-2.269-1.582-2.92-.771-.428-1.521-.893-2.39-1.431l-.002-.001c-.418-.259-.865-.536-1.354-.833m111.704-28.601-.069.037-31.599 17.051 4.136 7.219c14.823-7.979 29.475-15.869 44.416-23.917q-1.777-1.134-3.504-2.24c-3.974-2.543-7.779-4.978-11.616-7.361-.496-.309-1.419-.378-1.931-.13-1.829.892-3.619 1.862-5.549 2.908-.719.389-1.456.789-2.223 1.199l4.445 2.931zm-32.542 83.07 20.394-10.988a11 11 0 0 1-.103-.385c-.044-.174-.072-.289-.128-.388l-1.682-3.009-.003-.005-.001-.002c-3.508-6.276-7.016-12.554-10.592-18.793-.219-.383-1.297-.631-1.781-.44-.727.287-1.415.671-2.105 1.054-.63.351-1.261.702-1.921.98-1.444.606-1.871 1.565-1.875 3.074-.015 6.445-.078 12.888-.141 19.332v.004l-.066 7.036c-.003.423-.002.845-.001 1.392l.001.476v.662zm31.844-60.41a100 100 0 0 0 1.149-.552l.001 1.074v.008c.001.528.001.946-.001 1.365l-.136 21.778-.002.254-.135 21.664.001.043.001.054.003.08.009.158c.017.272.034.546-.046.787-.115.347-.298.672-.482.997l-.002.004-.074.13-.04.073-.07.128-.04.075c-.131-.086-.285-.164-.439-.243-.34-.173-.682-.346-.777-.607-.118-.328-.247-.659-.376-.992-.483-1.244-.975-2.512-.982-3.77-.045-9.288.073-18.58.216-27.873.024-1.642-.375-2.025-2.119-2.053-3.813-.061-6.854 1.673-9.933 3.429l-.685.389c-2.692 1.521-2.814 1.562-4.197-1.081-.432-.824-.82-1.452-1.128-1.951-.494-.8-.781-1.264-.707-1.66.103-.55.898-.969 2.795-1.97l.797-.422c3.365-1.788 6.715-3.603 10.065-5.419a2332 2332 0 0 1 5.84-3.157c.448-.243.91-.462 1.494-.74M140.95 386.315l.001.001h.001c.73.456 1.359.85 1.933 1.315 1.468 1.195 2.753 1.102 4.408.154 3.271-1.871 6.6-3.637 9.929-5.404l.002-.001h.001v-.001h.002l.001-.001.001-.001h.001a877 877 0 0 0 4.28-2.282 9316 9316 0 0 0 27.129-14.636c.455-.248 1.085-.707 1.114-1.106.088-1.274.076-2.557.063-3.997-.005-.549-.01-1.121-.01-1.725l-7.93 4.268-.159.085-41.952 22.573v.004c.423.278.815.522 1.181.751v.001zm231.827-20.042c-.039.538-.064 1.021-.088 1.465-.048.903-.087 1.648-.213 2.378-.301 1.736.419 2.761 1.867 3.672a9139 9139 0 0 1 25.322 16.022l.017.01.003.003.004.002.004.003.004.002.004.002.004.003.003.002.004.002q5.83 3.7 11.662 7.393c2.399 1.517 5.421.814 7.361-1.769l-29.006-18.425-.096-.061-.237-.151-11.963-7.598-4.652-2.955zm-11.049-61.993a47 47 0 0 0-.842.39l-.001.001c-.506.239-.941.444-1.393.598-2.489.841-3.172 2.493-3.164 5.128.044 14.123-.057 28.251-.305 42.374-.049 2.676.549 4.486 3.111 5.417.405.148.816.278 1.226.408q.317.099.632.202c.048-.206.109-.413.17-.62.13-.44.26-.88.265-1.32.155-16.823.285-33.647.411-50.471.003-.394-.024-.787-.057-1.264-.017-.252-.036-.527-.053-.838zm-74.076 12.284.006.004.003.002c4.019 2.54 7.833 4.951 11.685 7.3.492.301 1.468.174 2.045-.11 2.473-1.22 4.905-2.532 7.333-3.842l.002-.001.002-.001.654-.353c2.112-1.142 4.215-2.299 6.377-3.488l.016-.009 1.104-.606 1.34-.736c-.354-.645-.7-1.267-1.038-1.875l-.003-.004-.001-.003a144 144 0 0 1-2.126-3.913c-.541-1.045-1.11-1.318-2.225-.7a329 329 0 0 1-5.292 2.865c-1.77.945-3.54 1.889-5.293 2.865-1.013.565-1.798.557-2.749-.102a82 82 0 0 0-5.388-3.44c-.59-.342-1.542-.671-2.058-.427-1.898.892-3.748 1.885-5.784 2.977l-.003.002-.003.001-.004.003-.002.001c-.744.399-1.512.811-2.317 1.237v.004q1.893 1.194 3.719 2.349M265.177 39.837q-.016.14-.04.31c-.041.292-.091.644-.094.996v.008c-.065 8.855-.13 17.705-.15 26.56 0 .44.096.89.191 1.336.13.61.258 1.212.138 1.77-.342 1.586.578 1.924 1.659 2.123.85.159 1.753.11 2.631.057 1.428-.085 2.253-.647 2.266-2.33.051-6.955.147-13.91.243-20.867l.001-.028q.063-4.53.122-9.06a3.3 3.3 0 0 0-.095-.72 3 3 0 0 1-.031-.159h-6.841zm-60.032 327.505c-2.667 3.408-2.476 4.953.59 6.885q5.94 3.748 11.873 7.51l.031.02c4.404 2.791 8.808 5.581 13.22 8.359.598.378 1.496.898 1.997.699 1.17-.468 2.278-1.088 3.504-1.773.5-.28 1.019-.571 1.571-.866-8.027-5.102-15.874-10.088-23.706-15.064l-9.076-5.766zm115.876 25.824c.452.29.87.545 1.26.783.795.485 1.472.899 2.083 1.392 1.313 1.07 2.432.968 3.908.155 8.288-4.559 16.632-9.016 24.977-13.473l.154-.082c1.063-.565 1.601-.852 1.726-1.263.128-.422-.178-.974-.797-2.093v-.001l-.001-.001a3 3 0 0 0-.169-.26c-.085-.123-.17-.244-.226-.379-.658-1.671-1.525-1.818-3.135-.907-3.711 2.096-7.473 4.1-11.236 6.103h-.001v.001h-.001l-.001.001-.005.002-.001.001h-.001l-.001.001q-2.566 1.363-5.125 2.74c-2.928 1.58-5.849 3.169-8.888 4.822l-.046.025-2.117 1.152zm28.51-43.191.065-.022q.15-.05.302-.106v-26.86l-2.846 1.535-1.045.563-.011.006c-2.726 1.469-5.384 2.902-8.143 4.391l2.018 3.581.045.078.03.054c3.196 5.671 6.337 11.243 9.48 16.815zm-4.558-60.66a44 44 0 0 1-2.143-1.403c-1.535-1.05-2.949-2.017-4.505-2.375-.957-.219-2.124.485-3.293 1.19-.526.317-1.052.634-1.559.868q-.095.041-.191.08l-.001.001-.03.012-.056.023-.017.007-.035.015a2 2 0 0 0-.187.09c-3.186 1.754-6.37 3.511-9.61 5.297l-.119.066-4.418 2.437q.403.741.801 1.451l.001.003c.579 1.039 1.138 2.043 1.638 3.076.573 1.191 1.293 1.305 2.383.711a7141 7141 0 0 1 17.194-9.305l.062-.034.018-.009.053-.029.024-.013.02-.011 3.97-2.144zm-33.6 96.334.255-.122c.537-.257 1.019-.487 1.487-.739 2.248-1.2 4.49-2.409 6.733-3.619l.106-.057.062-.034.95-.512.933-.503 3.514-1.894c6.946-3.744 13.894-7.488 20.829-11.254.338-.183.842-.715.773-.874l-.041-.096c-.402-.94-.824-1.925-1.508-2.633-.236-.244-1.375.191-1.989.521a7034 7034 0 0 0-14.854 7.984l-.01.005-.009.005-.009.005-.009.004-.009.005c-5.09 2.741-10.179 5.482-15.275 8.21-3.009 1.61-3.225 1.943-2.497 5.872l.326-.158zm1.303-80.745a145 145 0 0 1-1.758-3.324c-.5-.988-1.118-1.208-2.098-.642-.841.485-1.702.931-2.563 1.378h-.001q-.539.278-1.076.561c-3.57 1.887-7.137 3.774-11.094 5.869.625.391 1.221.769 1.799 1.135l.001.001c1.544.978 2.952 1.87 4.39 2.711.353.207 1.029.175 1.411-.025 3.04-1.585 6.062-3.206 9.179-4.877l.006-.004 2.563-1.373q-.385-.72-.756-1.406m51.72 71.117 1.371-.749c1.588-.867 3.197-1.744 4.79-2.643.232-.13.488-.468.496-.716.031-1.364.029-2.728.026-4.252l-.001-.601-.001-.804-.385.202-.322.168-.612.319-.617.321-.007.003a588 588 0 0 0-3.656 1.915c-4.384 2.323-4.441 2.636-1.082 6.841zm-100.057-51.27-.273.529q.124.106.245.216l.001.001c.182.165.365.33.568.462q1.786 1.143 3.568 2.293c3.398 2.189 6.797 4.38 10.258 6.458 1.566.94 2.111 1.989 2.074 3.77-.123 6.228-.17 12.455-.217 18.683l-.043 5.424c-.003.496.029.991.062 1.487l.028.449.012.212.115.013.125.015.243.028c.052-.214.117-.428.182-.642.14-.461.281-.922.286-1.383.086-8.662.155-17.328.138-25.99 0-.667-.483-1.594-1.032-1.956-4.714-3.103-9.492-6.116-14.266-9.121-.435-.276-.922-.472-1.407-.667l-.001-.001h-.002c-.222-.09-.444-.179-.66-.276zm75.664-40.589c3.92 4.522 7.007 4.92 11.598 1.277-.644-.392-1.267-.82-1.885-1.244-1.453-.996-2.872-1.97-4.438-2.392-.864-.234-1.967.422-3.069 1.077-.486.289-.973.578-1.437.79-.187.084-.359.206-.535.33a8 8 0 0 1-.234.162M188.484 404.04l.5.793c3.312-1.845 6.661-3.622 10.01-5.399h.001l.001-.001h.001l.001-.001h.001l.002-.002c5.057-2.683 10.114-5.366 15.042-8.282l-.191-.345-.069-.124-.122-.222-12.562 6.777-.033.018-.032.017q-6.274 3.387-12.55 6.771m206.77-5.149c-.147-.268-.289-.532-.435-.801l-12.554 6.769-12.554 6.769q.087.163.176.324l.045.082q.112.202.222.408 6.27-3.387 12.542-6.771zm-200.865-32.179q.203-.498.411-.995a65 65 0 0 0 1.175-2.966c.126-.354.13-1.033-.077-1.183-1.013-.713-2.071-1.364-3.167-2.038v-.001q-.514-.315-1.038-.641c-1.237 5.087-.732 6.49 2.696 7.824m-7.78 37.901q.233-.31.46-.626l-23.009-14.628-.093.143-.046.072-.067.104-.205.32zm158.726-7.665-.406.658 11.48 7.294 11.48 7.294.407-.639-11.467-7.295q-5.746-3.657-11.494-7.312m-25.229-31.818.423.008v-27.12h-.423v27.108zM268.541 38.727q.252-.022.517-.04c1.305-.091 2.736-.192 2.801-1.7.064-1.504-1.216-1.62-2.398-1.728a12 12 0 0 1-.733-.082.7.7 0 0 0-.187 0c-.214.027-.442.042-.674.059-1.142.078-2.381.164-2.401 1.6-.024 1.561 1.295 1.699 2.487 1.822q.304.03.588.07Zm89.529 320.485-.004-.003-.001-.001c-.834-.549-1.505-.991-2.209-1.374-.301-.162-.858-.105-1.167.078-.191.114-.301.736-.167.972.1.18.199.379.301.583.374.749.778 1.558 1.338 1.714.501.14 1.134-.188 1.904-.587l.001-.001h.001l.001-.001c.374-.194.781-.404 1.22-.586-.44-.283-.834-.542-1.197-.781l-.003-.002zm-11.506-35.997-.33-.773q-2.288 1.224-4.577 2.444l-4.577 2.444.112.214.078.15.188.36 4.545-2.414 2.527-1.343 2.038-1.082zm-18.264 9.788-.077-.148-.103-.202-.182-.353-6.795 3.574.097.19.1.192.002.004.127.245.068.134 6.759-3.636zm-48.075-129.787 2.244-83.79q.023-.866.043-1.733v-.015l.001-.001v-.008c.036-1.546.073-3.093.143-4.636.014-.304.149-.602.283-.9a6 6 0 0 0 .173-.409c.147.079.307.146.466.214.344.145.688.291.904.546 2.316 2.704 4.608 5.425 6.9 8.146q1.47 1.746 2.942 3.489 4.785 5.665 9.574 11.329c4.785 5.66 9.57 11.319 14.346 16.983q6.173 7.324 12.34 14.653c5.017 5.959 10.033 11.919 15.057 17.872a29346 29346 0 0 0 25.47 30.122l7.458 8.813.002.002.002.002.002.003.002.002.002.002.002.003.002.002.002.002.002.003.002.002c3.072 3.632 6.143 7.264 9.248 10.863.85.984.508 1.456-.492 1.989a11174 11174 0 0 0-30.537 16.319 20474 20474 0 0 0-33.326 17.898c-7.37 3.968-14.733 7.948-22.096 11.927l-11.027 5.958-4.108 2.221-.009.004-.009.005-.009.005-.002.001-.002.001a6371 6371 0 0 1-6.788 3.668c-1.651.887-1.621-.23-1.592-1.292l.002-.071q.196-7.484.396-14.969c.2-7.485.266-9.98.397-14.969l.001-.051c.471-18.06.942-36.119 1.397-54.178.034-1.379.025-2.759.017-4.14q-.007-.941-.008-1.883h.179zm16.76 77.517-17.655 9.503.562-21.274c1.314-49.731 2.617-99.064 3.923-148.397l.59-.151c32.261 38.211 64.522 76.421 96.994 114.884a927505 927505 0 0 0-83.029 44.69l-.204.109-1.12.603zm-12.763-166.435c-.508 1.96-.431 3.298.639 4.514.86.978 1.694 1.98 2.529 2.983l.001.001q.553.665 1.109 1.327l5.812 6.894.008.009a28072 28072 0 0 0 38.786 45.93l.004.005q7.749 9.156 15.492 18.32l1.173 1.39c10.658 12.619 21.314 25.236 31.921 37.898 1.094 1.306 2.277 1.542 4.217 1.18l-80.839-95.753-2.799-3.315-18.049-21.379zm99.802 122.172.05.136.032.084.021.058.016.043-63.288 34.063-.147.08-41.028 22.082-.464-.513c.136-.136.265-.287.394-.437l.001-.001c.27-.317.541-.634.882-.818 7.034-3.823 14.083-7.62 21.131-11.418l3.037-1.636a85385 85385 0 0 1 32.802-17.662q8.012-4.311 16.026-8.619l.001-.001.001-.001h.001l.001-.001h.001l.001-.001h.002l.026-.015.027-.014q10.597-5.697 21.192-11.4c.721-.388 1.437-.787 2.153-1.185l.002-.002.001-.001.002-.001.002-.001.002-.001.002-.001.002-.001.001-.001c1.253-.697 2.506-1.395 3.787-2.035.691-.345 1.441-.574 2.19-.802.338-.103.677-.207 1.01-.321l.078.21.046.125zm-135.972 50.702 2.282-84.733v-.004h-.02l1.035-38.414 1.034-38.409.095-3.437c.095-3.433.19-6.867.251-10.301.006-.332-.158-.669-.322-1.006a6 6 0 0 1-.207-.458c-.138.083-.286.156-.435.23-.322.16-.645.32-.87.567-1.558 1.711-3.097 3.436-4.637 5.161-1.089 1.221-2.177 2.441-3.273 3.656q-6.727 7.465-13.456 14.928l-.016.017-.015.018-.016.017-.004.005a37188 37188 0 0 0-21.381 23.726c-8.814 9.79-17.621 19.588-26.429 29.385l-.069.077-8.727 9.708q-3.546 3.945-7.095 7.886l-.001.001-.002.002-.001.002-.002.001-.001.002-.002.001-.001.002-.001.001-.001.001-.001.001-.001.001-.001.001v.001l-.001.001-.001.001-.001.001c-6.188 6.874-12.377 13.749-18.527 20.658-2.664 2.993-2.57 3.058.878 5.246l8.451 5.362c11.961 7.59 23.921 15.178 35.876 22.775q16.567 10.534 33.13 21.074l.059.037q10.239 6.516 20.479 13.029c1.26.801 1.769.549 1.83-.984.044-1.124.059-2.249.074-3.375v-.004c.01-.819.021-1.638.043-2.457m-1.419 1.94c-31.61-20.073-62.797-39.882-94.257-59.865 32.887-36.56 65.542-72.859 98.202-109.162l.258.073.258.073-2.736 103.614zm-93.863-62.269c-1.394 1.562-2.879 2.314-5.359 1.44l.004-.004c30.583-33.998 61.038-67.851 91.756-101.996l.521-.58 11.398-12.67c-.003.427.007.831.017 1.217v.001c.044 1.779.079 3.176-1.204 4.586-6.451 7.087-12.847 14.224-19.243 21.36l-.002.002-.001.002-.001.001-.002.002-.001.001-.001.002-.002.001-.001.002-.001.001a6707 6707 0 0 1-10.07 11.22c-4.872 5.411-9.755 10.813-14.637 16.215-5.59 6.185-11.179 12.37-16.754 18.567a14574 14574 0 0 0-36.417 40.63m93.506 65.607c.426-1.722-.451-2.247-1.286-2.746a13 13 0 0 1-.305-.185l-6.026-3.833-.039-.025c-7.295-4.64-14.591-9.281-21.889-13.914q-5.732-3.636-11.468-7.268l-.006-.004a8673 8673 0 0 1-13.963-8.852q-6.562-4.175-13.119-8.358l-.012-.007-.019-.012q-6.042-3.856-12.088-7.703l-1.552-.987c-3.983-2.535-7.966-5.07-11.994-7.528-.644-.392-1.409-.588-2.174-.783a18 18 0 0 1-1.026-.283l-.137.367-.136.365 38.253 24.294c19.615 12.457 39.262 24.934 58.986 37.462m130.596 177.511.002-6.561c.003-7.107.006-14.215-.022-21.321 0-1.008.301-1.492 1.224-1.988 9.298-4.974 18.577-9.987 27.856-14.999l.017-.01 9.243-4.991.031-.017c4.512-2.434 9.024-4.868 13.548-7.283 1.411-.756 1.862-.439 1.85 1.245q-.06 6.88-.131 13.761v.008c-.13 12.995-.26 25.989-.239 38.984.004 3.281-.679 5.103-3.843 6.722-9.108 4.654-18.104 9.529-27.101 14.406l-.004.002-.005.003-.004.002-.005.002-.004.003-.004.002-.005.003c-3.296 1.786-6.592 3.573-9.895 5.349l-3.387 1.827-.007.003a1003 1003 0 0 1-7.387 3.965c-1.866.988-2.175.785-2.175-1.232v-27.881h.443zm1.175 20.052c1.233-.664 2.401-1.296 3.534-1.908l.028-.015c1.415-.764 2.775-1.499 4.137-2.233q3.965-2.132 7.93-4.267h.002l.001-.001.001-.001.002-.001h.001l.001-.001.002-.001c8.84-4.758 17.681-9.516 26.541-14.235 1.33-.708 1.854-1.509 1.862-3.05.031-11.013.109-22.027.188-33.041v-.015l.077-11.015c.003-.451-.034-.903-.074-1.402a43 43 0 0 1-.052-.692q-.29.09-.503.148c-.264.075-.455.128-.624.218q-2.713 1.46-5.424 2.927l-.028.015q-2.985 1.615-5.975 3.223l-5.556 2.988c-7.98 4.294-15.96 8.587-23.964 12.835-1.322.704-1.924 1.509-1.932 3.054a9273 9273 0 0 1-.216 31.196q-.052 6.437-.101 12.875c-.003.421.03.841.07 1.371v.002l.001.002V489l.002.024q.02.253.04.543.015.21.029.442zm49.307-19.469-.579-.359c-.684-.425-1.24-.769-1.749-1.172-1.566-1.249-2.994-1.22-4.767-.203-3.18 1.829-6.421 3.554-9.663 5.279l-.003.001c-1.354.721-2.709 1.441-4.059 2.17l-1.525.823c-8.654 4.671-17.311 9.343-25.953 14.04-.451.244-1.041.741-1.07 1.155-.087 1.224-.074 2.454-.06 3.851v.007c.006.555.012 1.136.012 1.754l13.868-7.462c12.058-6.489 24.036-12.934 36.188-19.475l-.353-.227zm.86-1.198.614-.219v-54.742c-.318.17-.62.345-.913.516h-.001c-.624.363-1.213.706-1.843.924-1.928.667-2.412 1.952-2.4 3.908.044 6.628-.011 13.256-.066 19.885l-.024 2.952-.006.792-.005.674q-.029 3.435-.069 6.872c-.048 4.428-.097 8.855-.094 13.282 0 .907.272 2.098.878 2.651.801.732 1.771 1.276 2.741 1.82h.001c.4.224.799.448 1.187.685M195.583 455.88v.002l-.003 6.543-.004.004h-.451l.002 9.288q.004 9.29-.002 18.577c0 1.879.386 2.172 2.082 1.273 4.526-2.397 9.037-4.822 13.549-7.247l2.702-1.452q4.16-2.236 8.318-4.476l.074-.039.003-.002c8.523-4.588 17.046-9.176 25.594-13.714 1.191-.634 1.561-1.321 1.561-2.61-.013-6.223.03-12.443.073-18.664v-.004l.025-3.74q.052-8.176.107-16.354l.001-.122q.055-8.238.107-16.476c.013-1.997-.402-2.208-2.191-1.216a769 769 0 0 1-7.922 4.311l-7.304 3.93c-11.587 6.237-23.177 12.476-34.794 18.656-1.2.639-1.558 1.318-1.554 2.586.034 6.98.03 13.962.027 20.943zm44.876-45.184c.176-.06.392-.133.668-.235l.004.004v.462l.001.484c.001.505.002.928-.001 1.352l-.078 9.243c-.099 11.551-.198 23.102-.259 34.653-.008 1.492-.44 2.387-1.814 3.119-9.666 5.161-19.31 10.361-28.955 15.56q-5.661 3.053-11.325 6.103c-.355.188-.726.344-1.172.532q-.341.142-.752.322c-.023-.292-.049-.554-.073-.797v-.002a11 11 0 0 1-.081-1.218q.046-5.918.096-11.836v-.015c.09-10.869.18-21.739.245-32.61.008-1.285.415-2.086 1.562-2.7 9.831-5.263 19.654-10.542 29.477-15.821l11.82-6.351c.167-.088.348-.15.637-.249m5.749 52.958c-16.599 8.938-32.896 17.712-49.599 26.701h-.004c0-.637-.01-1.224-.02-1.775v-.001c-.022-1.286-.041-2.378.081-3.454.065-.589.688-1.313 1.253-1.622 8.597-4.703 17.219-9.355 25.843-14.007l.014-.007 1.455-.785a834 834 0 0 1 4.761-2.542c3.177-1.688 6.354-3.376 9.488-5.144 1.403-.789 2.489-.846 3.754.085.668.492 1.376.932 2.2 1.445.404.251.836.52 1.305.821zm.614-56.413c.249-.152.51-.311.791-.464h.005v54.692c-3.538-.37-5.527-2.541-5.503-5.66q.038-4.725.08-9.448c.096-11.16.193-22.319.193-33.48 0-2.424.447-4.132 2.952-4.892.506-.153.971-.437 1.482-.748m111.486 62.537v4.992c.002 7.505.003 15.008-.02 22.515 0 .561-.155 1.431-.505 1.598-.406.195-1.195-.09-1.675-.391-9.63-6.087-19.242-12.199-28.856-18.313l-.016-.01-1.799-1.144q-2.375-1.51-4.747-3.026c-3.653-2.333-7.306-4.666-10.987-6.953-1.11-.692-1.488-1.497-1.476-2.762.107-11.873.199-23.746.291-35.621q.076-9.885.156-19.771c.016-1.797.513-2.078 1.997-1.134q11.01 7.005 22.014 14.015 8.2 5.223 16.404 10.446l1.126.719.241.154.486.312c2.023 1.297 4.045 2.593 6.117 3.809 1.253.736 1.647 1.634 1.639 3.054-.042 6.877-.037 13.752-.032 20.628v.002q.004 3.438.004 6.877h-.354zm-41.126-54.152c-.045.189-.086.339-.12.465-.06.221-.1.366-.1.511l-.028 3.825c-.101 13.983-.202 27.962-.228 41.945 0 .7.626 1.659 1.24 2.058 9.941 6.384 19.92 12.715 29.895 19.044h.001l.001.001.001.001 2.953 1.873c1.32.839 2.653 1.661 4.036 2.513q.941.58 1.917 1.184.033-.199.061-.351l.041-.218.001-.002v-.004c.045-.237.074-.386.076-.536l.048-6.281c.1-13.099.2-26.199.225-39.298 0-.732-.696-1.732-1.359-2.155-10.853-6.982-21.744-13.904-32.637-20.827l-1.47-.934c-.999-.636-2.01-1.254-3.069-1.9q-.725-.442-1.485-.91zm-6.987-4.473c-.022.427-.044.787-.063 1.103-.035.6-.062 1.041-.067 1.483l-.001.09c-.134 16.042-.268 32.083-.393 48.124-.044 5.477.024 5.52 4.399 8.265l.342.214c7.838 4.922 15.643 9.891 23.449 14.86l.03.019q5.571 3.549 11.149 7.09c1.627 1.033 3.264 2.054 5.036 3.16l.004.003.02.012 1.074.671 1.719 1.074c0-.565-.014-1.073-.026-1.541v-.001c-.025-.938-.046-1.719.054-2.484.248-1.911-.537-3.046-2.2-3.888-.98-.494-1.897-1.104-2.816-1.715v-.001a64 64 0 0 0-1.173-.768q-4.699-2.988-9.395-5.978l-.005-.004a6074 6074 0 0 0-22.048-13.994l-.234-.147c-3.871-2.439-3.921-2.47-3.881-7.128q.06-7.123.122-14.245l.001-.073v-.034c.084-9.529.168-19.057.23-28.588.005-.83-.048-1.984-.561-2.432-.896-.778-1.926-1.404-3.106-2.121l-.002-.001c-.521-.317-1.072-.652-1.654-1.025zm-182.796 15.156v5.026h-.394q0 3.367.005 6.733v.003c.007 6.734.015 13.467-.046 20.198-.012 1.651.5 2.599 1.895 3.477 6.843 4.297 13.656 8.643 20.468 12.988q3.9 2.49 7.804 4.974a2716 2716 0 0 0 17.649 11.168c.356.223.8.304 1.245.386.21.038.42.076.622.13.045-.176.099-.353.154-.529.123-.396.246-.793.26-1.195q.129-3.576.147-7.154.038-6.824.068-13.647v-.007c.053-11.205.106-22.41.225-33.616.02-1.896-.602-2.961-2.14-3.929a13261 13261 0 0 1-27.219-17.219l-.003-.002-.002-.001-.001-.001h-.001q-9.196-5.83-18.397-11.65c-.366-.231-.795-.362-1.224-.492a11 11 0 0 1-.611-.2c-.053.199-.12.397-.187.595-.148.436-.296.872-.296 1.309a6580 6580 0 0 0-.021 22.655m8.432-17.644c.031-.183.066-.397.104-.66v-.004l2.934 1.848.048.03c2.515 1.584 4.918 3.097 7.315 4.62l4.085 2.598h.001c8.167 5.192 16.335 10.384 24.466 15.629.606.391 1.187 1.359 1.187 2.058-.044 13.871-.155 27.742-.267 41.613l-.033 4.161c0 .116-.028.231-.076.432a15 15 0 0 0-.103.459l-1.954-1.21-.01-.006-.011-.007-.019-.011-.002-.001a513 513 0 0 1-4.853-3.027q-5.635-3.575-11.266-7.152l-.009-.006-.006-.004-.005-.003c-6.773-4.302-13.546-8.604-20.328-12.892-1.021-.646-1.696-1.313-1.684-2.663.115-10.837.202-21.673.289-32.509v-.018l.102-12.491c.002-.228.04-.455.095-.784m-6.944-4.155c.028-.254.061-.544.094-.889a99 99 0 0 0 1.533.934l.005.003.001.001c1.155.693 2.168 1.301 3.089 2.031.455.362.618 1.313.618 1.997-.057 15.193-.126 30.39-.285 45.583-.016 1.818.432 2.932 2.058 3.944 7.163 4.461 14.28 8.994 21.398 13.526v.001h.002l.001.001q3.688 2.35 7.379 4.695 1.316.835 2.635 1.665c2.36 1.486 4.719 2.971 7.027 4.533.602.406 1.094 1.33 1.18 2.07.125 1.07.101 2.155.075 3.316a69 69 0 0 0-.022 1.539c-.228-.082-.428-.144-.608-.201-.336-.105-.597-.187-.82-.327a22755 22755 0 0 1-23.255-14.779l-.018-.011-.35-.222-.345-.22-6.52-4.146-3.104-1.977c-3.566-2.272-7.132-4.545-10.722-6.783-.993-.622-1.529-1.268-1.517-2.533.106-12.366.188-24.735.27-37.104q.05-7.725.104-15.45c.003-.353.042-.708.097-1.197m289.787 43.661q-.001 1.993-.007 3.985c-.009 3.503-.018 7.006.035 10.509.02 1.46-.329 2.298-1.761 3.046-8.995 4.717-17.922 9.557-26.84 14.416-1.448.789-2.123.675-2.777-.98-1.005-2.545-1.578-5.063-1.521-7.832.089-4.415.111-8.832.133-13.249v-.001c.018-3.614.035-7.227.09-10.841.013-.691.553-1.688 1.143-2.013 3.29-1.812 6.599-3.59 9.908-5.368h.001l.001-.001.005-.003c4.309-2.315 8.617-4.63 12.883-7.019 2.144-1.202 4.368-1.441 6.656-1.686l.185-.02.361-.039c1.37-.15 1.749.342 1.732 1.668a823 823 0 0 0-.03 11.224q.005 2.104.006 4.209h-.199zm-1.383-15.083c-2.376 1.279-4.724 2.545-7.053 3.801a2955 2955 0 0 1-18.803 10.083c-1.399.74-1.984 1.626-1.984 3.217-.006 5.804-.052 11.608-.097 17.411v.02q-.038 4.55-.066 9.099c0 .38.054.761.119 1.215l.001.002v.001l.022.154.028.203.054.422c.386-.189.744-.359 1.079-.519l.005-.002h.001l.001-.001c.689-.328 1.289-.613 1.87-.93q3.283-1.77 6.562-3.549l.012-.007.004-.001c5.411-2.932 10.822-5.864 16.273-8.724 1.443-.756 1.972-1.61 1.972-3.192 0-5.983.043-11.964.086-17.945q.031-4.293.056-8.586c0-.393-.032-.786-.073-1.275v-.005l-.015-.178-.013-.166-.028-.363zm-28.58 13.21-.162-.303 6.54-3.517 5.972-3.211 12.513-6.728.403.757-12.514 6.728-12.513 6.728zm-1.278 28.571c.151.008.297.012.448.02v-26.677c-.151 0-.297 0-.448-.004zm-149.824-50.647c-.018-.284-.039-.595-.057-.947l-.004-.004c-.777.108-1.563.155-2.334.201-1.619.097-3.173.19-4.449.832-5.786 2.918-11.486 6.007-17.187 9.097l-.002.001c-2.512 1.361-5.024 2.723-7.545 4.07-1.016.545-1.338 1.273-1.338 2.419l-.001 1.733v.001c-.007 7.079-.013 14.159-.19 21.235-.081 3.144.37 6.067 1.647 8.939.582 1.305 1.143 1.586 2.408.898a5503 5503 0 0 1 27.482-14.823c.976-.524 1.448-1.09 1.448-2.306.009-6.954.062-13.906.116-20.859l.001-.015q.035-4.53.066-9.06c.003-.439-.026-.877-.061-1.412m-1.912 1.597c.123-.019.279-.043.485-.084l.004.005v.508l.001.3v.002c.001.451.001.846-.001 1.239l-.049 6.375c-.053 6.792-.107 13.582-.122 20.376-.004 1.272-.354 2.041-1.537 2.667a2470 2470 0 0 0-16.123 8.65h-.001l-.001.001-.005.002q-3.704 2-7.412 3.995c-.534.284-1.088.531-1.699.804l-.001.001c-.315.141-.645.288-.996.451-.037-.244-.076-.46-.112-.657-.068-.373-.124-.678-.124-.982q.038-5.17.084-10.339v-.005c.048-5.595.095-11.189.123-16.784.008-1.257.366-2.087 1.537-2.709 5.971-3.18 11.928-6.388 17.884-9.597q3.827-2.062 7.655-4.12c.096-.05.209-.068.41-.099m-28.285 13.012-.112-.229-.081-.162.004-.004c8.361-4.486 16.726-8.976 25.087-13.465a54 54 0 0 0 .399.756l-12.552 6.747-5.146 2.766-7.406 3.98zm-1.287 1.825.472.024v27.015h-.472zm113.222.612q-.005 2.102-.005 4.203h-.196q0 2.026.004 4.054v.004c.005 3.602.01 7.206-.02 10.81-.012 1.175.309 1.96 1.367 2.627 4.292 2.71 8.573 5.439 12.854 8.168 4.282 2.729 8.563 5.457 12.855 8.168.382.244 1.427.207 1.533-.008.25-.507.535-1.017.823-1.53.817-1.459 1.648-2.943 1.703-4.444.299-8.1.284-16.206.269-24.313l-.005-2.788c0-.703-.582-1.667-1.188-2.066-5.713-3.745-11.476-7.413-17.254-11.057q-.7-.443-1.392-.899c-2.919-1.907-5.83-3.81-9.678-3.627-1.403.069-1.708.37-1.696 1.659.039 3.681.032 7.359.026 11.039m1.476-9.76c.018-.268.039-.573.06-.939.762.474 1.495.928 2.207 1.369 1.738 1.077 3.351 2.076 4.954 3.094l2.145 1.363c5.105 3.245 10.208 6.489 15.277 9.792.577.374 1.196 1.232 1.196 1.866-.016 8.715-.118 17.429-.22 26.143l-.024 2.088c-.003.18-.059.358-.141.619-.05.159-.11.347-.173.585q-.948-.58-1.861-1.135l-.015-.009-.004-.002c-1.405-.855-2.756-1.677-4.094-2.522-2.059-1.304-4.114-2.615-6.169-3.925-3.81-2.429-7.62-4.858-11.455-7.246-1.359-.846-1.977-1.745-1.948-3.441.109-6.416.139-12.834.169-19.251v-.025q.015-3.632.038-7.263c.003-.35.026-.699.058-1.161m27.124 43.211c.191.024.386.044.577.069.048-.211.11-.421.171-.632.131-.447.261-.894.264-1.345.065-8.605.114-17.21.073-25.811 0-.724-.5-1.736-1.089-2.119-7.158-4.648-14.364-9.215-21.586-13.761-.433-.272-.952-.41-1.47-.547a12 12 0 0 1-.714-.205l-.134.471.36.245.004.002v.001c.288.196.576.392.868.578a3217 3217 0 0 1 5.528 3.517c4.824 3.073 9.648 6.147 14.512 9.154 1.92 1.188 2.932 2.416 2.843 4.897-.202 5.76-.232 11.526-.262 17.293q-.014 3.033-.039 6.066c-.006.488.024.977.053 1.467l.028.479.009.181zm-209.886-36.783q0-2.134.005-4.267c.005-3.658.011-7.316-.021-10.975-.012-1.399.411-1.647 1.875-1.692 3.804-.122 6.69 1.761 9.58 3.647.489.319.979.639 1.473.948 5.681 3.563 11.338 7.166 16.933 10.858.688.452 1.334 1.558 1.338 2.363l.011 2.286c.041 8.084.081 16.173-.238 24.245-.062 1.594-.89 3.161-1.712 4.715-.318.603-.636 1.204-.907 1.804-.074.162-.948.191-1.265-.008-6.005-3.799-11.993-7.626-17.981-11.453l-3.422-2.187q-.682-.437-1.358-.884c-1.015-.669-2.029-1.338-3.091-1.926-1.025-.565-1.362-1.289-1.354-2.42.033-3.709.028-7.418.024-11.127q-.004-1.963-.004-3.927zm1.556-13.689c.019-.351.041-.746.063-1.212v.004a911 911 0 0 0 2.603 1.612c1.678 1.037 3.237 2 4.786 2.984l2.331 1.479c4.893 3.103 9.783 6.205 14.619 9.391.687.451 1.338 1.557 1.338 2.363.02 7.663-.052 15.33-.123 22.997l-.04 4.314c-.003.305-.057.607-.129 1.005-.04.224-.086.478-.131.781-.7-.43-1.376-.841-2.036-1.242-1.345-.819-2.621-1.594-3.881-2.394-2.041-1.292-4.076-2.592-6.112-3.892-3.886-2.48-7.771-4.961-11.688-7.389-1.407-.87-1.92-1.846-1.891-3.497.1-6.06.138-12.121.176-18.181q.022-3.815.052-7.626c.005-.459.03-.918.063-1.497m3.186-.988.248-.561.004.004c.257.11.521.211.785.312.572.218 1.146.437 1.655.757a3281 3281 0 0 1 9.369 5.94c3.859 2.452 7.719 4.905 11.591 7.338 1.077.675 1.525 1.435 1.504 2.733-.069 4.801-.107 9.603-.145 14.405-.029 3.602-.057 7.203-.099 10.804-.008.548-.134 1.093-.26 1.637-.06.259-.12.519-.167.779l-.343-.016-.356-.017-.001-.625q-.003-.624.001-1.25l.052-5.992c.054-6.282.107-12.564.212-18.843.025-1.496-.468-2.403-1.74-3.196-5.31-3.306-10.587-6.663-15.865-10.021l-3.509-2.232a80 80 0 0 1-1.893-1.254q-.52-.353-1.043-.702" clip-rule="evenodd"/>
</svg>
