<svg xmlns="http://www.w3.org/2000/svg" width="550" height="550" fill="none" viewBox="0 0 550 550">
    <path fill="#fff" d="M105.358 222.347c-.16 0-.36-.04-.48-.16a.83.83 0 0 1-.319-.639c0-.16.04-.36.159-.48.24-.319.52-.639.76-.959.279-.319.799-.399 1.119-.12.359.28.399.8.119 1.119-.239.32-.479.6-.759.919-.16.2-.399.32-.639.32z"/>
    <path fill="#fff" d="M106.436 220.988c-.2 0-.36-.08-.52-.199a.78.78 0 0 1-.279-.6c0-.2.08-.36.2-.519.239-.28.479-.6.759-.879a.81.81 0 0 1 1.119-.08.77.77 0 0 1 .279.599c0 .2-.08.36-.199.519l-.72.84a.77.77 0 0 1-.599.279zm2.118-2.357a.96.96 0 0 1-.559-.2.77.77 0 0 1-.04-1.119c.32-.36.639-.679.999-1.039a.77.77 0 0 1 1.119 0c.32.32.32.799 0 1.119s-.639.679-.959.999q-.24.24-.599.24z"/>
    <path fill="#fff" d="M107.553 219.71c-.2 0-.36-.08-.519-.2a.72.72 0 0 1-.28-.6c0-.239.08-.359.2-.519.239-.28.479-.52.719-.799a.77.77 0 0 1 1.119-.04c.32.279.359.799.04 1.119-.24.239-.44.519-.68.759a.72.72 0 0 1-.599.28m-4.355 6.193-.68-.399-.639-.48c.16-.239.32-.479.479-.679.24-.36.76-.44 1.119-.2.24.16.36.4.36.68 0 .159-.04.319-.12.439-.16.24-.32.44-.44.679z"/>
    <path fill="#fff" d="M103.319 225.064a.6.6 0 0 1-.439-.16c-.36-.239-.44-.759-.2-1.119.24-.359.519-.719.799-1.118.28-.36.759-.44 1.119-.16.2.16.32.399.32.639 0 .16-.04.32-.16.48-.24.359-.52.719-.759 1.078-.16.24-.4.36-.64.36z"/>
    <path fill="#fff" d="M104.436 223.546a.77.77 0 0 1-.479-.16c-.36-.28-.44-.759-.16-1.119.2-.24.36-.519.56-.759.279-.36.759-.4 1.118-.16.36.28.4.759.16 1.119l-.559.719c-.16.2-.4.32-.64.32zm10.113-10.589c-.24 0-.479-.08-.599-.28-.12-.16-.2-.32-.2-.519 0-.24.12-.48.28-.6.359-.32.759-.599 1.159-.919a.81.81 0 0 1 1.118.12c.12.16.16.32.16.479 0 .24-.12.48-.319.64-.36.28-.76.599-1.119.919-.16.12-.32.2-.52.2zm-12.871 14.665c-.16 0-.28 0-.439-.12a.79.79 0 0 1-.36-.679c0-.16 0-.28.12-.44.16-.28.319-.519.479-.759a.82.82 0 0 1 1.119-.24c.24.16.36.4.36.679 0 .16-.04.32-.12.44-.16.24-.32.48-.48.759a.78.78 0 0 1-.679.36"/>
    <path fill="#fff" d="M115.943 211.838a.83.83 0 0 1-.639-.32c-.28-.359-.2-.839.12-1.119.08-.08.16-.12.239-.199.24-.16.44-.36.68-.52.359-.28.839-.2 1.119.16.279.36.199.839-.16 1.119-.24.16-.44.359-.68.519-.079.08-.159.12-.239.2-.16.12-.32.16-.48.16z"/>
    <path fill="#fff" d="M117.182 210.878a.84.84 0 0 1-.639-.319.77.77 0 0 1-.16-.48c0-.24.12-.479.319-.639.4-.28.8-.6 1.199-.879.36-.24.879-.16 1.119.199.08.12.16.28.16.44 0 .24-.12.519-.36.639-.399.28-.799.56-1.158.839-.16.12-.32.16-.48.16zm-5.155 4.237a.88.88 0 0 1-.599-.24c-.28-.32-.28-.839.04-1.119.319-.32.679-.599 1.039-.919.319-.28.839-.28 1.118.08.12.16.2.359.2.519s-.08.44-.279.6c-.32.279-.68.599-.999.879-.16.16-.36.2-.56.2z"/>
    <path fill="#fff" d="M113.388 213.915a.72.72 0 0 1-.599-.279.81.81 0 0 1 .08-1.119c.279-.24.599-.52.879-.759a.78.78 0 0 1 1.119.12.81.81 0 0 1-.08 1.118c-.28.24-.6.48-.88.76-.159.12-.319.199-.519.199zm-2.476 2.278a.8.8 0 0 1-.559-.239c-.32-.32-.32-.84 0-1.119.36-.32.679-.68 1.039-.999a.77.77 0 0 1 1.119.04c.16.16.2.359.2.559s-.08.44-.24.599c-.36.32-.679.64-.999.96a.8.8 0 0 1-.56.239z"/>
    <path fill="#fff" d="M109.83 217.272a.8.8 0 0 1-.559-.24.8.8 0 0 1-.24-.559c0-.2.08-.4.24-.56l.759-.759c.32-.32.839-.32 1.119 0 .16.16.24.36.24.559s-.08.4-.24.56c-.24.24-.519.479-.759.759a.8.8 0 0 1-.56.24m-15.023 26.773h-.2a.813.813 0 0 1-.6-.959l.8.16-.76-.2c0-.08.04-.2.08-.28.12-.439.56-.679.96-.559.359.08.599.4.599.759v.32c0 .04 0 .12-.04.16a.77.77 0 0 1-.76.599zm5.914-14.825c-.12 0-.28 0-.4-.12-.239-.16-.4-.399-.4-.679 0-.12 0-.28.121-.4l.479-.839c.24-.36.72-.519 1.079-.28.24.16.4.4.4.68 0 .159 0 .279-.12.399-.16.28-.32.52-.48.799-.159.24-.399.4-.679.4z"/>
    <path fill="#fff" d="M94.37 246.083h-.16c-.4-.08-.64-.4-.64-.799v-.32c.04-.12.08-.24.08-.4a.8.8 0 0 1 .92-.639.8.8 0 0 1 .639.919l-.08.52c-.08.399-.4.639-.8.639zm-.841 7.673c-.44 0-.76-.36-.76-.8v-.559c0-.48.4-.839.84-.799.44 0 .759.399.759.839v.599c0 .44-.36.76-.8.76zm2.398-13.747h-.24c-.4-.12-.64-.599-.52-.999s.24-.759.4-1.159c.16-.399.6-.639 1-.479.399.16.639.599.479.999-.12.359-.24.759-.36 1.119-.12.319-.44.559-.76.559zm-2.12 9.95h-.08a.82.82 0 0 1-.72-.799v-.08c0-.2.04-.439.08-.639.04-.48.44-.799.88-.719.4.04.72.399.72.799v.12c0 .239-.04.439-.08.639-.04.4-.4.719-.8.719z"/>
    <path fill="#fff" d="M93.607 251.837h-.08c-.44 0-.759-.4-.719-.839v-.679c.08-.44.44-.76.88-.72.439 0 .758.44.718.879l-.08.68c0 .399-.4.719-.799.719zm.443-3.796h-.12a.84.84 0 0 1-.68-.919l.08-.599c.08-.44.48-.719.919-.679.4.079.68.399.68.799v.12l-.08.599c-.08.4-.4.679-.8.679m5.953-17.542c-.12 0-.28 0-.4-.08-.4-.2-.52-.68-.32-1.079.12-.24.24-.44.36-.68.2-.399.719-.519 1.079-.319.28.16.4.399.4.719 0 .12 0 .28-.12.4l-.36.679c-.16.28-.4.4-.72.4zm-1.558 3.077c-.12 0-.24 0-.32-.08a.84.84 0 0 1-.48-.72c0-.119 0-.239.08-.319.12-.24.2-.44.32-.68a.8.8 0 0 1 1.079-.359c.28.12.44.439.44.719s0 .24-.08.36c-.12.239-.2.439-.32.679-.12.28-.44.48-.72.48zm-1.881 4.595c-.08 0-.2 0-.28-.04-.4-.16-.639-.599-.479-1.039.08-.2.16-.439.24-.639.16-.4.6-.639 1.039-.48.4.16.639.6.48 1.039-.08.24-.16.44-.24.64a.82.82 0 0 1-.76.519"/>
    <path fill="#fff" d="M99.08 232.257c-.12 0-.24 0-.36-.08a.84.84 0 0 1-.439-.719c0-.12 0-.24.08-.36.2-.399.4-.759.6-1.159.2-.399.679-.519 1.078-.319.28.16.44.439.44.719s0 .24-.08.36c-.2.359-.4.759-.56 1.118a.84.84 0 0 1-.719.44zm-1.278 2.717c-.12 0-.2 0-.32-.079-.4-.16-.6-.64-.4-1.039.12-.24.2-.48.32-.72.2-.399.64-.599 1.039-.399.28.12.48.439.48.719 0 .12 0 .24-.08.32-.08.159-.12.279-.2.439l-.12.28a.83.83 0 0 1-.72.479"/>
    <path fill="#fff" d="M97.084 236.772c-.08 0-.2 0-.28-.039a.82.82 0 0 1-.519-.76c0-.08 0-.2.04-.279.12-.24.2-.52.32-.76a.81.81 0 0 1 1.039-.439c.32.12.48.439.48.719 0 .12 0 .2-.08.32-.12.239-.2.479-.32.759a.82.82 0 0 1-.76.519zM293.767 65.425c-.12 0-.2 0-.32-.04-.239-.08-.399-.28-.479-.52-1.758-6.153-2.438-12.067-2.078-17.502.599-8.631 3.836-14.865 9.111-17.582 1.918-.999 4.076-1.479 6.433-1.479 4.036 0 8.592 1.519 13.187 4.356 0 0 .04 0 .08.08 4.156 2.597 8.072 6.074 11.748 10.39.16.2.24.44.16.679-.04.24-.2.44-.44.56-.879.439-1.758.918-2.637 1.398-2.477 1.358-13.067 7.392-34.405 19.58-.12.08-.24.12-.4.12zm12.667-35.564c-2.078 0-3.996.44-5.674 1.319-4.755 2.437-7.672 8.231-8.232 16.263-.359 4.995.24 10.35 1.719 15.984 20.739-11.828 31.088-17.742 33.526-19.1l1.798-.96c-3.397-3.876-6.993-7.033-10.789-9.35 0 0-.04 0-.08-.04-4.316-2.677-8.551-4.076-12.228-4.076zM107.232 172.038c-.119 0-.199 0-.319-.08-.24-.08-.4-.32-.48-.56-1.318-5.394-1.838-10.589-1.478-15.384.599-8.632 3.836-14.865 9.111-17.583 1.918-.999 4.076-1.478 6.433-1.478 4.036 0 8.591 1.518 13.187 4.356 0 0 .04 0 .08.04 3.556 2.197 6.993 5.114 10.189 8.631.16.16.24.439.2.679 0 .24-.2.44-.399.56-13.866 7.952-26.254 15.024-36.124 20.659-.12.08-.24.12-.4.12zm13.267-33.407c-2.078 0-3.996.44-5.674 1.319-4.755 2.437-7.672 8.232-8.232 16.264-.28 4.315.12 8.99 1.199 13.866 9.47-5.395 21.219-12.148 34.285-19.621q-4.436-4.675-9.23-7.672s-.04 0-.08-.04c-4.316-2.677-8.552-4.076-12.268-4.076zm25.178 75.604c-.799 0-1.598-.04-2.398-.16-.279 0-.519-.199-.639-.479-.12-.24-.08-.56.08-.799 3.676-5.195 8.751-7.553 12.667-5.954.44.199.839.399 1.239.679.16.12.32.32.32.519 0 .2 0 .44-.16.6-1.319 1.758-2.917 3.157-4.755 4.076-1.919.999-4.076 1.478-6.434 1.478zm-.799-1.638c2.397.12 4.595-.32 6.513-1.279 1.359-.679 2.558-1.678 3.637-2.917-.08 0-.16-.08-.2-.08-2.957-1.199-6.793.52-9.91 4.276zm1.279 23.656c-.919 0-1.798-.16-2.638-.519h-.039c-4.116-1.719-5.994-7.353-4.596-13.946.04-.2.16-.4.36-.52q.3-.18.599-.12c5.794 1.319 11.109.72 15.744-1.638a19.2 19.2 0 0 0 3.597-2.358.79.79 0 0 1 .879-.08c.28.16.439.44.439.76a22.7 22.7 0 0 1-1.718 7.272c-1.558 3.796-3.956 6.993-6.753 8.991-1.958 1.399-3.956 2.118-5.834 2.118zm-1.958-1.958c1.998.799 4.435.28 6.873-1.439 2.557-1.838 4.755-4.795 6.234-8.311a21.3 21.3 0 0 0 1.398-4.995q-1.138.779-2.397 1.438c-4.756 2.438-10.15 3.117-16.024 1.958-.879 5.435.639 10.07 3.876 11.389h.04z"/>
    <path fill="#fff" d="M145.717 223.426c-1.998 0-4.116-.24-6.234-.719-.439-.08-.679-.52-.599-.959.28-1.439.759-2.877 1.319-4.276a24 24 0 0 1 2.557-4.675c.16-.24.479-.36.759-.32 2.957.4 5.595 0 7.872-1.159 1.599-.799 2.997-2.038 4.196-3.596 2.278-3.037 3.676-7.433 4.036-12.667.2-3.077.04-6.354-.44-9.79-.959-6.474-3.196-13.267-6.513-19.701-2.757-5.434-6.114-10.269-9.91-14.465-3.117-3.437-6.474-6.274-9.91-8.392-4.356-2.677-8.591-4.115-12.308-4.115-3.716 0-3.996.439-5.674 1.318-4.755 2.438-7.672 8.152-8.232 16.144v.12c-.319 4.635.16 9.63 1.439 14.865.08.359-.08.719-.36.879l-8.231 4.715a.81.81 0 0 1-.68.04c-.24-.08-.4-.28-.48-.519-2.037-7.233-2.876-14.226-2.437-20.739.84-11.988 5.834-20.899 14.106-25.135s18.421-3.077 28.611 3.237c4.795 2.997 9.391 6.993 13.586 11.868 3.917 4.555 7.313 9.67 10.19 15.264 3.237 6.354 5.595 12.907 6.913 19.501 1.119 5.474 1.519 10.709 1.159 15.624-.679 9.95-4.236 17.742-10.19 22.577-1.198.959-2.517 1.838-3.876 2.518-3.237 1.678-6.793 2.517-10.589 2.517zm-5.115-2.118c5.515 1.119 10.549.48 14.945-1.798a19.2 19.2 0 0 0 3.596-2.358c5.635-4.555 8.951-11.988 9.631-21.458.319-4.795-.04-9.91-1.159-15.225-1.319-6.433-3.596-12.867-6.793-19.06-2.797-5.475-6.154-10.51-9.99-14.945-4.076-4.756-8.552-8.632-13.187-11.549-9.71-6.034-19.3-7.153-27.053-3.197-7.752 3.956-12.427 12.428-13.226 23.816-.4 6.034.28 12.508 2.078 19.221l6.833-3.916c-1.199-5.155-1.679-10.07-1.359-14.665v-.12c.599-8.631 3.836-14.865 9.111-17.582 1.918-.999 4.076-1.479 6.433-1.479 4.036 0 8.592 1.519 13.187 4.356 3.597 2.237 7.033 5.155 10.27 8.671 3.916 4.276 7.312 9.231 10.15 14.785 3.356 6.593 5.674 13.546 6.633 20.18.519 3.556.679 6.953.479 10.11-.399 5.554-1.878 10.189-4.355 13.506-1.359 1.798-2.957 3.157-4.755 4.076-2.438 1.239-5.275 1.718-8.352 1.359a25 25 0 0 0-2.118 3.956 18 18 0 0 0-1.039 3.236zm191.005-115.843c-.8 0-1.599-.04-2.398-.16-.28 0-.519-.2-.639-.479-.12-.24-.08-.56.08-.8 3.676-5.194 8.751-7.552 12.667-5.954.439.2.839.4 1.239.68.159.12.319.32.319.52 0 .199 0 .439-.16.599-1.318 1.758-2.917 3.156-4.755 4.075-1.918.999-4.076 1.479-6.433 1.479zm-.8-1.638c2.398.119 4.596-.32 6.514-1.279 1.359-.679 2.557-1.678 3.636-2.917-.08 0-.16-.08-.2-.08-2.957-1.199-6.793.519-9.91 4.276zm1.279 23.656a6.6 6.6 0 0 1-2.637-.52h-.04c-4.116-1.718-5.994-7.352-4.595-13.946a.8.8 0 0 1 .359-.519q.3-.18.6-.12c5.674 1.319 11.109.759 15.744-1.638a19.2 19.2 0 0 0 3.596-2.358c.24-.2.6-.24.88-.08.279.16.439.44.439.759a22.7 22.7 0 0 1-1.718 7.273c-1.559 3.796-3.956 6.993-6.753 8.991-1.958 1.399-3.956 2.118-5.835 2.118zm-1.958-1.958c1.998.799 4.436.279 6.874-1.439 2.557-1.838 4.755-4.795 6.233-8.311a21.3 21.3 0 0 0 1.399-4.995q-1.139.779-2.398 1.438c-4.755 2.438-10.229 3.117-16.024 1.958-.879 5.435.64 10.07 3.837 11.389h.04z"/>
    <path fill="#fff" d="M331.649 114.655c-1.998 0-4.116-.24-6.234-.719-.44-.08-.679-.52-.599-.959a21 21 0 0 1 1.318-4.276 24 24 0 0 1 2.558-4.675c.16-.24.479-.36.759-.32 2.957.4 5.594 0 7.872-1.159 1.598-.799 2.997-2.038 4.196-3.596 2.277-3.037 3.676-7.432 4.036-12.667.16-2.358.12-4.915-.16-7.513-.719-7.112-3.077-14.705-6.793-21.937-2.398-4.676-5.195-8.952-8.392-12.748-3.556-4.195-7.392-7.632-11.428-10.15-4.356-2.677-8.592-4.115-12.308-4.115s-3.996.44-5.674 1.318c-4.755 2.438-7.672 8.192-8.232 16.184v.08c-.36 5.275.32 10.989 1.998 16.983.08.36-.04.72-.36.919l-8.191 4.675c-.2.12-.48.12-.68.04-.239-.08-.399-.28-.479-.52-2.478-7.871-3.557-15.743-3.037-22.856.839-11.988 5.834-20.9 14.106-25.135s18.421-3.077 28.611 3.237c5.674 3.516 11.149 8.591 15.864 14.665a81 81 0 0 1 7.872 12.428c3.596 6.993 6.154 14.545 7.353 21.738.799 4.675 1.039 9.15.759 13.386-.68 9.95-4.236 17.742-10.19 22.577-1.199.959-2.517 1.839-3.876 2.518-3.237 1.678-6.793 2.517-10.589 2.517zm-5.115-2.118c5.514 1.119 10.549.48 14.945-1.798a19.2 19.2 0 0 0 3.596-2.357c5.634-4.556 8.951-11.988 9.63-21.459.28-4.076 0-8.471-.719-13.027-1.199-7.033-3.676-14.425-7.193-21.258a80.7 80.7 0 0 0-7.712-12.188c-4.595-5.954-9.95-10.87-15.464-14.306-9.71-6.033-19.301-7.152-27.053-3.196s-12.427 12.427-13.227 23.816c-.439 6.593.48 13.946 2.678 21.298l6.793-3.876c-1.599-5.914-2.238-11.588-1.878-16.823v-.08c.599-8.631 3.836-14.865 9.111-17.582 1.918-1 4.075-1.479 6.433-1.479 4.036 0 8.591 1.519 13.187 4.356 4.196 2.597 8.152 6.114 11.828 10.47 3.277 3.875 6.154 8.271 8.591 13.026 3.796 7.393 6.194 15.185 6.953 22.498.28 2.717.32 5.354.16 7.792-.4 5.554-1.878 10.19-4.356 13.506-1.358 1.798-2.917 3.157-4.755 4.076-2.437 1.239-5.274 1.718-8.351 1.359-.84 1.238-1.519 2.557-2.118 3.956a19 19 0 0 0-1.039 3.236z"/>
    <path fill="#fff" d="M354.785 74.576a.77.77 0 0 1-.759-.6v-.12c-1.199-7.032-3.677-14.385-7.193-21.218-2.238-4.356-4.795-8.432-7.712-12.188-.16-.2-.2-.48-.12-.759.08-.28.28-.44.559-.52 3.557-.959 6.634-1.038 9.151-.2a10 10 0 0 1 3.596 2.039l36.364 20.739c.359.2.519.68.32 1.079-.2.4-.68.52-1.079.32-5.874-3.038-14.785 1.198-20.979 4.635-1.319.719-4.995 2.837-11.669 6.633a.8.8 0 0 1-.439.12zM341.079 40.45a76 76 0 0 1 7.113 11.429c3.396 6.633 5.874 13.746 7.152 20.619 6.074-3.477 9.511-5.395 10.75-6.114 8.151-4.515 13.466-5.874 17.102-5.914l-31.808-18.142c-.04 0-.08-.08-.119-.08a8.6 8.6 0 0 0-3.117-1.758c-1.958-.64-4.316-.64-7.073-.04M168.452 181.108c-.2 0-.36-.08-.52-.199-.16-.16-.28-.36-.28-.56-1.318-6.393-3.596-12.787-6.753-18.981-2.797-5.474-6.154-10.509-9.99-14.945-.16-.2-.24-.439-.2-.639.04-.24.2-.44.4-.56l24.056-13.746c37.322-21.338 79.6-45.514 110.009-62.896l8.192-4.676c21.338-12.187 31.967-18.221 34.405-19.58.999-.56 1.878-.999 2.677-1.438a.8.8 0 0 1 .959.2c3.277 3.876 6.154 8.271 8.592 13.026 3.796 7.393 6.193 15.185 6.953 22.498 0 .32-.12.599-.4.759-8.711 4.955-19.66 11.229-32.048 18.301l-8.471 4.835c-33.007 18.861-73.966 42.318-108.81 62.218l-28.452 16.263c-.12.08-.28.12-.399.12zm-15.705-34.964a77.2 77.2 0 0 1 9.551 14.505c3.077 5.994 5.314 12.188 6.713 18.421l27.492-15.744c34.845-19.94 75.804-43.356 108.811-62.257l8.431-4.835c12.188-6.953 22.977-13.107 31.568-18.022-.799-6.953-3.116-14.346-6.713-21.418-2.278-4.476-4.955-8.552-7.992-12.228-.639.32-1.318.72-2.078 1.119-2.437 1.358-13.027 7.392-34.405 19.58l-8.192 4.675c-30.409 17.383-72.687 41.558-110.009 62.897l-23.217 13.267zM95.727 497.55c-.12 0-.24 0-.36-.08l-29.97-15.664c-7.792-3.996-8.83-16.104-8.83-27.413v-188.69c0-.279.16-.559.399-.679.24-.16.56-.16.8 0l30.209 17.383c.24.16.4.399.4.679 0 2.038 0 4.356.08 6.913v180.418c0 10.63.958 21.938 7.752 25.654.4.2.519.68.32 1.079-.16.28-.44.44-.72.44zM58.125 267.062v187.291c0 10.83.959 22.378 7.952 25.974l24.975 13.027c-3.677-5.594-4.276-14.665-4.276-23.216s0-.16.04-.24V289.959c0-2.358-.04-4.555-.08-6.473l-28.611-16.464z"/>
    <path fill="#fff" d="M101.877 498.949c-2.477 0-4.635-.52-6.473-1.519-7.552-4.116-8.591-16.104-8.591-27.253V290.039c0-.32.2-.639.479-.759a.87.87 0 0 1 .88.16.8.8 0 0 1 .239.559v.24c.48 29.77 3.516 92.826 18.501 182.496 1.479 9.83 3.157 17.223 5.275 23.217.08.199.04.439 0 .599-.08.2-.24.32-.44.4-3.716 1.318-6.993 1.958-9.79 1.958zm-13.466-169.23v140.419c0 10.709.919 22.137 7.752 25.853 3.397 1.839 8.072 1.759 14.226-.279-2.038-5.954-3.637-13.227-5.075-22.737-10.11-60.539-14.785-108.971-16.903-143.256"/>
    <path fill="#fff" d="M87.614 290.798c-.44 0-.8-.359-.8-.799 0-2.318-.04-4.595-.08-6.953 0-.28.16-.559.4-.679.24-.16.56-.16.8 0h.08c.239.16.399.439.399.719v6.913c0 .44-.36.799-.8.799"/>
    <path fill="#fff" d="M131.089 515.811c-2.238 0-4.316-.359-6.234-1.119-6.074-2.357-10.709-8.311-14.226-18.181-2.117-6.034-3.876-13.747-5.354-23.497-15.065-90.069-18.062-153.285-18.502-182.975v-6.913c0-.28.16-.56.4-.68.24-.16.56-.16.8 0l.239.12c.24.12.4.4.4.64.959 22.537 6.353 102.217 35.484 180.218 3.237 8.392 6.154 15.544 8.951 21.858 4.755 10.749 9.071 18.901 13.147 24.975.119.2.159.439.119.639s-.199.4-.399.52c-5.475 2.917-10.43 4.395-14.825 4.395M89.051 311.617c1.479 34.205 5.794 89.03 17.862 161.078 1.439 9.67 3.157 17.262 5.275 23.216 3.316 9.391 7.672 15.065 13.266 17.223 5.115 1.998 11.469 1.039 18.941-2.757-3.996-6.034-8.191-14.066-12.787-24.456-2.797-6.353-5.754-13.506-8.991-21.938-21.578-57.821-30.17-116.522-33.566-152.366"/>
    <path fill="#fff" d="M168.054 527c-1.279 0-2.517-.12-3.716-.32-6.953-1.238-13.107-6.154-19.421-15.504-4.156-6.154-8.511-14.386-13.306-25.215-2.797-6.353-5.754-13.506-8.991-21.938-29.21-78.281-34.605-158.12-35.604-180.738 0-.279.12-.559.4-.719a.72.72 0 0 1 .798 0l.2.12c.24.12.36.36.4.639.799 10.83 3.037 33.327 9.11 62.058 7.393 35.005 18.142 68.451 31.889 99.42 5.834 13.146 11.108 24.056 16.023 33.326 5.195 9.71 9.91 17.383 14.466 23.497l.04.039c8.991 12.068 17.342 17.783 26.253 18.022.36 0 .68.28.76.64a.76.76 0 0 1-.44.879c-7.872 3.956-13.786 5.754-18.981 5.754zM91.251 317.651c3.757 36.083 12.548 91.308 32.847 145.773 3.237 8.392 6.154 15.504 8.951 21.858 4.755 10.749 9.071 18.901 13.147 24.975 6.074 8.951 11.908 13.666 18.382 14.825 5.194.919 11.028-.28 19.1-4.036-8.351-1.319-16.223-7.193-24.535-18.342l-.04-.04c-4.595-6.153-9.391-13.945-14.625-23.736-4.955-9.31-10.23-20.259-16.104-33.446-13.826-31.089-24.575-64.655-32.008-99.739a498 498 0 0 1-5.115-28.012z"/>
    <path fill="#fff" d="M187.314 521.286h-.719c-9.431-.28-18.182-6.194-27.493-18.701-4.595-6.154-9.39-13.946-14.625-23.737-4.955-9.27-10.19-20.219-16.104-33.446-13.826-31.089-24.575-64.655-32.007-99.739-6.114-28.811-8.352-51.389-9.151-62.258 0-.279.12-.559.36-.719s.559-.16.839 0l5.035 2.917 2.557-1.478 266.851-154.764 25.495-14.786c.239-.119.519-.159.759 0 .24.12.399.32.439.6 8.552 55.464 22.538 108.451 41.518 157.481.16.36 0 .799-.359.999l-28.292 16.384c-.199.12-.439.12-.639.08-.2-.08-.4-.24-.48-.44-3.596-8.032-10.189-23.097-14.065-33.806-.879-2.318-1.559-3.436-2.398-3.716-.799-.32-2.118.08-4.316 1.279-4.915 2.677-53.905 30.329-57.582 32.527-4.036 2.357-4.835 3.476-3.276 7.392q.18.48.599 1.559c1.998 5.075 8.072 20.579 13.826 33.806.16.359 0 .799-.32.999l-1.038.599v13.227c0 .359-.28.719-.64.799-.359.08-.759-.12-.879-.44-3.237-7.312-9.231-21.018-12.747-30.889-.879-2.317-1.559-3.436-2.398-3.716-.799-.319-2.118.08-4.315 1.279-4.915 2.677-53.906 30.329-57.582 32.527-4.036 2.358-4.835 3.477-3.277 7.393q.18.479.599 1.558c13.027 33.207 19.341 46.393 22.378 51.628.719 1.279 1.438 1.918 2.357 2.158 1.239.32 2.997-.12 5.155-1.399 2.797-1.638 18.981-10.869 33.287-18.98 6.313-3.597 12.347-7.033 16.903-9.631.239-.16.559-.12.799 0 .24.16.399.4.399.68v48.471c0 .239-.039.479-.239.679-.04.04-.12.12-.2.12l-20.42 11.708 14.586 8.192c.24.16.399.399.399.679s-.159.56-.399.679c-53.426 30.57-104.375 59.86-110.009 63.097-11.029 6.354-20.22 11.189-29.211 11.189zm-98.34-236.482c.878 11.348 3.196 33.087 8.99 60.539 7.393 35.005 18.142 68.451 31.888 99.42 5.874 13.186 11.109 24.096 16.024 33.326 5.195 9.75 9.95 17.463 14.505 23.537 8.991 12.067 17.343 17.782 26.254 18.021 8.751.24 17.942-4.595 29.05-10.989 5.595-3.196 55.824-32.047 108.811-62.377l-14.585-8.191c-.24-.16-.4-.4-.4-.68s.16-.559.4-.679l21.258-12.188V377.79c-4.395 2.518-9.95 5.675-15.744 8.951-14.306 8.112-30.489 17.343-33.287 18.981-2.597 1.519-4.675 2.038-6.353 1.559-1.758-.48-2.717-1.879-3.317-2.918-3.037-5.274-9.43-18.541-22.457-51.827-.28-.68-.48-1.199-.6-1.519-1.958-4.955-.439-6.793 3.956-9.39 3.717-2.158 52.747-29.85 57.622-32.528 2.278-1.238 4.116-1.958 5.635-1.398 1.518.559 2.397 2.198 3.316 4.675 3.037 8.432 7.833 19.7 11.189 27.333v-9.91c0-.28.16-.56.4-.68l.799-.479c-5.714-13.107-11.628-28.212-13.586-33.247q-.42-1.079-.6-1.558c-1.958-4.955-.439-6.793 3.956-9.391 3.716-2.158 52.747-29.85 57.622-32.527 2.278-1.239 4.116-1.958 5.635-1.399 1.518.56 2.397 2.198 3.316 4.676 3.716 10.309 9.99 24.695 13.666 32.887l26.933-15.585c-18.781-48.631-32.647-101.098-41.198-156.003l-24.456 14.186-266.85 154.764-2.958 1.719a.73.73 0 0 1-.799 0l-4.116-2.358zm86.312 163.116c-.439 0-.879-.04-1.279-.16-1.758-.48-2.717-1.878-3.316-2.917-3.037-5.275-9.431-18.542-22.458-51.828a53 53 0 0 1-.599-1.519c-1.958-4.955-.44-6.793 3.956-9.39 3.716-2.158 52.747-29.85 57.622-32.527 2.278-1.239 4.116-1.958 5.634-1.399 1.519.56 2.398 2.198 3.317 4.675 6.194 17.263 20.419 48.032 22.377 51.469 2.198 3.876 1.559 6.553-2.038 8.711 0 0-.04 0-.079.04-1.519.919-12.987 7.432-25.135 14.305-14.146 8.032-30.17 17.143-32.927 18.781-1.958 1.159-3.636 1.719-5.115 1.719zm38.441-98.341c-.799 0-1.998.439-3.716 1.398-4.915 2.678-53.906 30.33-57.582 32.527-4.036 2.358-4.835 3.477-3.277 7.393q.18.48.6 1.558c13.027 33.207 19.34 46.394 22.377 51.628.72 1.279 1.439 1.919 2.358 2.158 1.239.32 2.997-.12 5.155-1.398 2.757-1.639 18.821-10.749 32.967-18.781 11.987-6.794 23.296-13.267 25.054-14.266h.08c2.877-1.678 3.277-3.477 1.519-6.593-1.958-3.477-16.224-34.406-22.458-51.708-.879-2.318-1.558-3.397-2.397-3.717-.16-.079-.36-.079-.6-.079zm-57.062 19.26c-.52 0-.999-.08-1.439-.279-1.238-.52-2.038-1.679-2.597-3.637-5.674-17.702-12.428-46.593-12.507-46.873v-.079c-.6-2.558-.56-5.435 3.756-7.673 1.798-.959 15.344-8.671 28.451-16.144 14.186-8.111 28.851-16.463 30.969-17.542 2.198-1.159 3.836-1.398 5.115-.799 1.278.599 2.118 1.998 2.677 4.515 3.237 17.343 10.669 41.838 11.708 44.556 1.279 3.316 1.998 6.233-1.998 8.511-1.278.719-8.671 4.995-18.062 10.39-15.384 8.831-36.443 20.978-39.839 22.856-2.718 1.519-4.636 2.238-6.114 2.238zm-15.025-51.068c.4 1.678 6.913 29.45 12.467 46.673.44 1.478.96 2.317 1.679 2.637 1.119.48 3.037-.12 6.194-1.878 3.396-1.878 24.455-13.986 39.839-22.857 9.391-5.395 16.784-9.67 18.102-10.39 2.797-1.598 2.518-3.276 1.319-6.553-1.359-3.516-8.671-28.172-11.788-44.835-.44-1.918-.999-2.997-1.759-3.356-.799-.36-1.998-.12-3.676.759-2.078 1.079-16.743 9.43-30.929 17.542-13.706 7.832-26.653 15.225-28.491 16.184-3.197 1.678-3.476 3.436-2.917 5.994v.08zm84.195-7.473c-.519 0-.999-.08-1.438-.279-1.239-.52-2.038-1.679-2.598-3.637-5.674-17.702-12.427-46.593-12.507-46.873-.6-2.557-.639-5.514 3.716-7.752h.04c1.998-1.039 15.425-8.711 28.411-16.104 14.186-8.111 28.851-16.463 30.969-17.542 2.198-1.159 3.836-1.399 5.115-.799 1.279.599 2.118 1.998 2.677 4.515 3.237 17.343 10.67 41.838 11.709 44.555 1.278 3.317 1.998 6.234-1.998 8.512-1.279.719-8.752 5.035-18.182 10.469-15.345 8.831-36.323 20.899-39.72 22.817-2.717 1.519-4.635 2.238-6.114 2.238zm-12.148-57.102c-3.156 1.638-3.436 3.436-2.837 5.954.08.279 6.793 29.09 12.468 46.753.439 1.478.959 2.317 1.678 2.637 1.119.48 3.037-.12 6.194-1.878 3.396-1.878 24.375-13.986 39.72-22.777 9.43-5.435 16.903-9.71 18.181-10.47 2.798-1.598 2.518-3.276 1.319-6.553-1.358-3.516-8.671-28.132-11.788-44.835-.44-1.918-.999-2.997-1.758-3.356-.799-.36-1.998-.12-3.676.759-2.078 1.079-16.744 9.43-30.929 17.542-13.707 7.832-26.653 15.225-28.492 16.184h-.04zm113.246 18.461c-.519 0-.999-.08-1.438-.28-1.239-.519-2.038-1.678-2.598-3.636-5.674-17.702-12.427-46.593-12.507-46.873-.599-2.557-.639-5.514 3.716-7.752h.04c1.958-1.039 15.425-8.711 28.412-16.144 14.185-8.111 28.851-16.463 30.968-17.542 2.198-1.159 3.837-1.399 5.115-.799 1.279.599 2.118 1.998 2.678 4.515 3.236 17.343 10.669 41.838 11.708 44.555 1.278 3.317 1.998 6.234-1.998 8.512-1.279.719-8.751 4.995-18.182 10.429-15.344 8.831-36.323 20.899-39.76 22.817-2.717 1.519-4.635 2.238-6.114 2.238zm-12.147-57.102c-3.157 1.678-3.437 3.436-2.838 5.954.08.279 6.794 29.09 12.468 46.753.439 1.478.959 2.317 1.678 2.637 1.119.479 3.037-.12 6.194-1.878 3.397-1.878 24.375-13.986 39.72-22.777 9.43-5.435 16.903-9.71 18.182-10.47 2.797-1.598 2.517-3.276 1.318-6.553-1.358-3.517-8.671-28.172-11.788-44.835-.439-1.918-.999-2.997-1.758-3.357-.799-.359-1.998-.119-3.676.76-2.078 1.079-16.743 9.43-30.889 17.502-13.706 7.832-26.693 15.225-28.531 16.184h-.04z"/>
    <path fill="#fff" d="M93.487 287.281c-.12 0-.28 0-.4-.119-.24-.16-.4-.4-.4-.68v-34.165c0-.44.04-.879.08-1.359l.08-.679c0-.4.08-.839.12-1.239 0-.2.04-.4.08-.639.04-.48.12-.879.16-1.319l.08-.599c.08-.44.16-.919.24-1.359v-.16c.04-.12.08-.24.08-.36.12-.519.2-1.038.32-1.558v-.12c0-.04 0-.12.04-.16.319-1.278.639-2.517 1.038-3.716.12-.479.24-.839.4-1.239.08-.239.16-.479.28-.719.08-.24.16-.44.24-.679s.199-.48.279-.72c.12-.279.2-.519.32-.759.16-.399.28-.719.44-1.079l.12-.239c.079-.16.119-.32.199-.48.12-.24.2-.48.32-.719.12-.24.2-.44.32-.68l.08-.199.239-.48c.2-.399.4-.759.6-1.159.08-.12.16-.279.24-.439l.119-.2c.12-.24.24-.44.36-.679l.36-.64.479-.839c.16-.28.319-.519.479-.799.16-.24.32-.52.48-.759.12-.2.24-.4.359-.56l.48-.719v-.08c.16-.16.24-.28.36-.44.239-.359.519-.719.799-1.078l.359-.48c.2-.24.36-.519.56-.759l.359-.48c.24-.319.52-.639.76-.959l.319-.399c.24-.32.48-.6.76-.879.119-.12.239-.28.359-.4.24-.28.48-.559.72-.799.079-.12.199-.24.319-.32.32-.36.64-.679.999-1.039.08-.12.2-.2.32-.32l.759-.759.32-.319c.359-.36.719-.68 1.079-.999l.12-.12c.319-.32.679-.6.999-.919.119-.08.199-.2.319-.28.32-.28.6-.52.919-.799l.28-.24c.36-.32.759-.599 1.159-.919.12-.08.2-.16.28-.2.319-.24.639-.479.919-.719l.08-.08c.08-.08.159-.12.239-.2.4-.28.8-.559 1.199-.879 1.638-1.159 3.317-2.198 4.955-3.157l.64-.36c.679-.399 1.558-.879 2.597-1.478 5.994-3.437 17.942-10.27 33.446-19.101.24-.12.52-.16.759 0 .24.12.4.36.44.6.519 3.556.679 6.953.48 10.109-.4 5.555-1.879 10.19-4.356 13.507-.24.359-.759.439-1.079.16-.32-.2-.639-.4-.959-.52-3.237-1.318-7.552.839-10.749 5.395a21.7 21.7 0 0 0-2.358 4.355c-.519 1.319-.959 2.638-1.239 3.996-1.198 5.794.32 10.789 3.717 12.188 4.315 1.758 10.189-2.597 13.146-9.75.919-2.238 1.479-4.556 1.599-6.793a.7.7 0 0 1 .28-.56c5.634-4.555 8.95-11.948 9.63-21.458.319-4.795-.04-9.91-1.159-15.225a.75.75 0 0 1 .4-.839l38.96-22.258c32.368-18.501 68.571-39.24 98.341-56.223 2.438-1.398 4.875-2.797 7.233-4.116l9.351-5.314c9.07-5.195 17.182-9.83 23.935-13.667.24-.12.52-.12.76 0 .239.12.399.36.439.64a46.6 46.6 0 0 1 .16 7.792c-.4 5.554-1.878 10.19-4.356 13.506-.239.36-.759.44-1.078.16-.32-.2-.64-.4-.959-.52-3.237-1.318-7.553.84-10.75 5.395a21.6 21.6 0 0 0-2.357 4.356c-.52 1.319-.959 2.637-1.239 3.996-1.199 5.794.32 10.789 3.716 12.188 4.316 1.758 10.19-2.598 13.147-9.751.919-2.237 1.478-4.555 1.598-6.793 0-.24.12-.439.28-.559 5.634-4.556 8.951-11.988 9.63-21.459.28-4.076 0-8.471-.719-13.026-.04-.32.12-.68.4-.84a2282 2282 0 0 0 11.748-6.673c.04 0 .08-.04.12-.04 13.546-7.472 19.26-6.194 22.377-4.595 5.035 2.597 7.593 9.43 7.593 20.26v29.33c0 .279-.16.559-.4.679l-32.128 18.621-266.85 154.764-2.958 1.719a.77.77 0 0 1-.4.12zm65.853-100.818c-14.985 8.591-26.533 15.185-32.407 18.541-1.039.6-1.918 1.119-2.597 1.479l-.64.359c-1.598.92-3.236 1.919-4.835 3.037-.399.28-.799.56-1.159.84a.8.8 0 0 0-.199.159l-.12.08c-.32.24-.6.48-.919.68-.08.08-.2.16-.28.199-.36.28-.719.6-1.119.88l-.28.239-.839.72c-.08.08-.2.159-.28.239-.319.28-.679.6-.999.879 0 0-.08.04-.08.08-.359.32-.679.64-1.038.959l-.32.32-.759.759-.32.32c-.32.32-.639.679-.959.999-.12.12-.2.2-.28.32-.24.239-.439.519-.679.759-.12.16-.24.28-.36.4-.24.279-.479.559-.719.879l-.32.399c-.24.32-.479.6-.759.919-.12.16-.24.28-.32.44-.199.28-.359.519-.519.759l-.36.48c-.24.359-.519.719-.759 1.079-.08.159-.2.279-.28.399v.08c-.2.24-.359.48-.519.719-.12.2-.24.36-.36.56-.16.24-.32.519-.479.759-.16.24-.32.519-.48.759-.16.28-.32.52-.479.799l-.36.6c-.12.2-.24.439-.36.679l-.12.2a2 2 0 0 0-.199.4c-.2.359-.4.759-.56 1.118-.08.16-.16.32-.2.44l-.08.2c-.12.24-.2.439-.32.679s-.199.44-.319.679c-.08.16-.12.32-.2.44l-.12.24c-.16.319-.28.679-.44.999-.119.279-.199.559-.279.799s-.16.479-.28.719c-.08.24-.16.44-.24.679l-.24.72c-.119.359-.239.719-.359 1.119v.08a48 48 0 0 0-.999 3.636v.12c0 .04 0 .12-.04.16-.12.479-.2.959-.32 1.478 0 .12-.04.24-.08.32v.16q-.18.659-.239 1.318l-.08.6c-.08.399-.12.799-.16 1.199 0 .239-.04.439-.08.639l-.12 1.199v.679c-.08.4-.12.839-.12 1.279v32.687l1.759-.999 266.851-154.764 31.728-18.422v-28.89c0-10.19-2.278-16.544-6.713-18.822-5.834-3.037-14.785 1.2-20.979 4.636-.04 0-.08.04-.12.04-1.359.759-4.915 2.797-11.109 6.313.719 4.476.919 8.791.64 12.827-.68 9.79-4.116 17.503-9.95 22.378-.16 2.277-.76 4.675-1.679 6.953-2.757 6.673-7.992 11.109-12.667 11.109-.879 0-1.758-.16-2.557-.48-4.156-1.718-6.034-7.313-4.676-13.986.28-1.438.76-2.877 1.319-4.276a24 24 0 0 1 2.557-4.675c3.677-5.195 8.752-7.592 12.668-5.954.199.08.399.16.599.28 2.038-2.997 3.277-7.153 3.636-12.068.12-1.998.12-4.116-.04-6.314-6.513 3.717-14.265 8.152-22.857 13.027l-9.35 5.315a952 952 0 0 1-7.233 4.116c-29.73 17.023-65.973 37.722-98.341 56.223l-38.441 21.978c1.039 5.235 1.399 10.31 1.039 15.065-.679 9.79-4.116 17.502-9.95 22.377-.16 2.278-.759 4.676-1.678 6.953-3.277 7.952-10.11 12.747-15.225 10.63-4.156-1.719-6.034-7.313-4.675-13.986.279-1.439.759-2.877 1.318-4.276a24 24 0 0 1 2.558-4.675c3.676-5.195 8.751-7.593 12.667-5.954.2.08.4.16.599.279 2.038-2.997 3.277-7.152 3.637-12.067.2-2.718.08-5.595-.28-8.632z"/>
    <path fill="#fff" d="M93.489 287.241c-.12 0-.28 0-.4-.119l-33.007-18.981c-.08-.04-.16-.12-.2-.16l-5.154-2.957c-.24-.16-.4-.4-.4-.679v-31.609c0-10.189 3.037-20.259 8.751-29.21 5.315-8.312 12.747-15.305 21.419-20.22 1.918-1.079 6.393-3.636 14.105-8.032 2.478-1.438 5.235-2.997 8.232-4.715 9.83-5.634 22.218-12.707 36.084-20.659.32-.2.719-.12.999.16 3.916 4.275 7.313 9.27 10.15 14.785 3.356 6.593 5.674 13.546 6.633 20.179.04.32-.12.64-.4.8-16.023 9.15-27.572 15.784-33.446 19.1a87 87 0 0 1-2.557 1.439l-.72.4a62 62 0 0 0-4.835 3.036c-.399.28-.799.56-1.159.84l-.319.239c-.32.24-.6.44-.919.68-.12.08-.2.12-.24.199-.4.32-.759.6-1.119.92l-.28.239-.839.72-.32.279c-.319.28-.679.6-.999.879l-.119.12c-.32.32-.68.64-.999.959-.12.12-.24.2-.32.32l-.759.759-.32.32c-.32.32-.639.679-.959.999-.08.12-.2.2-.28.32-.239.239-.439.519-.679.759l-.36.399-.719.84c-.12.119-.2.279-.32.399-.239.32-.479.6-.759.919-.12.16-.24.32-.36.44l-.879 1.199c-.239.359-.519.719-.759 1.079l-.32.479-.479.719-.36.56c-.16.24-.319.479-.479.759s-.32.519-.48.759c-.16.28-.319.52-.479.799l-.36.6-.719 1.279c-.2.359-.4.719-.56 1.118-.12.2-.2.44-.32.64-.12.24-.2.439-.319.679-.08.16-.16.36-.24.52l-.08.159c-.08.24-.2.44-.32.68-.16.359-.279.679-.439 1.039-.12.239-.2.479-.28.719s-.2.479-.28.719-.16.44-.24.68l-.239.719c-.12.359-.24.719-.36 1.119-.4 1.198-.719 2.437-1.038 3.716 0 .08 0 .16-.04.24v.04c-.12.479-.24.999-.32 1.518l-.08.48-.24 1.318-.08.6c-.08.399-.12.799-.16 1.238 0 .24-.04.44-.08.64l-.12 1.199v.239c0 .16-.04.28-.04.44 0 .439-.04.879-.08 1.279v34.085c0 .28-.159.56-.399.68a.77.77 0 0 1-.4.119zM61.12 266.902l31.568 18.182v-32.767c0-.48.04-.919.08-1.359v-.679c.04-.4.08-.839.16-1.239 0-.2.04-.44.08-.639.04-.48.12-.88.16-1.319l.08-.599.24-1.319.08-.52c.12-.519.2-1.039.32-1.558 0-.12.04-.2.08-.28a87 87 0 0 1 1.038-3.796c.12-.4.24-.759.4-1.159l.24-.719c.08-.24.16-.44.24-.679s.16-.48.279-.72c.12-.279.2-.519.32-.759.16-.36.28-.719.44-1.079.12-.24.199-.479.319-.719l.08-.16c.08-.16.16-.36.24-.519.12-.24.2-.44.32-.68.12-.2.199-.439.319-.639.2-.4.4-.799.6-1.159l.719-1.319c.12-.199.24-.399.36-.639l.479-.839c.16-.28.319-.52.479-.799.16-.28.32-.52.48-.76.04-.079.12-.199.2-.279l.159-.28c.16-.24.32-.479.48-.759l.32-.48c.279-.359.519-.759.799-1.119l.919-1.198.36-.48c.239-.32.519-.639.759-.959.12-.12.2-.28.319-.4.24-.279.48-.599.72-.879l.359-.399c.24-.28.48-.52.68-.759.08-.12.199-.24.319-.36.32-.36.64-.679.959-1.039l.32-.32.759-.759c.12-.12.24-.24.36-.32.36-.319.679-.679 1.039-.999 0 0 .08-.04.08-.08.359-.319.719-.639 1.039-.959l.359-.319c.28-.24.6-.52.88-.76l.279-.239c.36-.32.759-.6 1.159-.919.08-.08.2-.16.28-.2.319-.24.599-.48.919-.719l.32-.24c.399-.28.799-.6 1.198-.879a65 65 0 0 1 4.955-3.157l.72-.4a77 77 0 0 1 2.557-1.438c5.794-3.317 17.183-9.83 32.967-18.821-.999-6.274-3.197-12.907-6.394-19.141-2.677-5.195-5.874-9.91-9.47-13.986-13.666 7.792-25.854 14.785-35.564 20.34-2.997 1.718-5.755 3.276-8.232 4.715-7.712 4.395-12.188 6.953-14.106 8.032-8.471 4.795-15.704 11.628-20.859 19.7-5.554 8.671-8.511 18.461-8.511 28.331v31.129l4.995 2.877c.08.04.16.12.2.16z"/>
    <path fill="#fff" d="M93.69 251.158h-.08c-.4 0-.72-.4-.72-.799v-.08c0-.4.08-.839.12-1.239a.806.806 0 0 1 .88-.719c.44.04.759.439.719.879l-.12 1.199c0 .399-.4.719-.8.719z"/>
    <path fill="#fff" d="M93.886 249.28h-.12c-.4-.04-.72-.4-.72-.799v-.12c.04-.44.12-.839.16-1.279.08-.44.48-.719.92-.679.4.08.68.399.68.799v.12c-.08.399-.12.799-.16 1.239a.82.82 0 0 1-.8.719zm-.357 3.876c-.44 0-.76-.36-.76-.799v-.32c0-.32 0-.679.08-.999 0-.44.4-.759.84-.719.44 0 .759.399.719.839v.08c0 .399-.04.759-.08 1.159v.04c0 .439-.36.759-.8.759z"/>
    <path fill="#fff" d="M93.487 255.673c-.44 0-.8-.359-.8-.799v-1.958c0-.44.4-.759.84-.759s.799.399.759.839v1.878c0 .44-.36.799-.8.799m5.278-22.777c-.12 0-.24 0-.36-.08-.28-.12-.44-.439-.44-.719s0-.24.08-.36l.08-.199.24-.48c.2-.4.68-.559 1.08-.36.399.2.559.68.359 1.079-.08.2-.2.4-.28.6a.81.81 0 0 1-.719.519zm-1.399 3.117c-.12 0-.2 0-.32-.04a.81.81 0 0 1-.439-1.039c.16-.359.32-.719.44-1.078a.76.76 0 0 1 1.038-.4c.32.12.48.439.48.719s0 .2-.08.32c-.16.36-.28.719-.44 1.039-.12.32-.439.479-.719.479z"/>
    <path fill="#fff" d="M96.803 237.491c-.08 0-.2 0-.28-.039a.82.82 0 0 1-.52-.76c0-.08 0-.2.04-.279.08-.24.2-.48.28-.72.16-.399.64-.599 1.04-.479.32.12.519.439.519.759 0 .08 0 .2-.04.28-.08.239-.2.479-.28.719a.82.82 0 0 1-.759.519"/>
    <path fill="#fff" d="m97.046 238.331-.76-.24-.759-.28c.08-.24.16-.479.24-.679.16-.4.6-.639 1.039-.48.32.12.52.44.52.76 0 .319 0 .199-.04.279-.08.24-.16.44-.24.68zm-2.88 9.071h-.12a.84.84 0 0 1-.679-.919c.08-.44.16-.879.24-1.359a.8.8 0 0 1 .919-.639c.44.08.72.479.64.919l-.24 1.318c-.08.4-.4.68-.8.68zm3.956-13.147c-.12 0-.24 0-.32-.08-.4-.2-.6-.639-.4-1.039.12-.24.2-.479.32-.719.2-.4.68-.56 1.08-.4.279.12.439.44.439.719 0 .12 0 .24-.08.36-.08.16-.16.36-.24.52l-.08.159c-.12.28-.44.48-.72.48"/>
    <path fill="#fff" d="M94.487 245.603h-.16a.816.816 0 0 1-.64-.799v-.16c.12-.519.2-1.039.32-1.558.12-.44.52-.679.96-.599.439.079.678.519.599.959-.12.519-.24.999-.32 1.518-.08.36-.4.639-.8.639zm12.706-25.454c-.2 0-.36-.08-.52-.2a.81.81 0 0 1-.08-1.118c.12-.16.24-.28.36-.44a.81.81 0 0 1 1.119-.08c.16.16.28.36.28.599 0 .2-.08.36-.2.52l-.36.4c-.16.159-.36.279-.599.279zm5.875-5.914a.72.72 0 0 1-.6-.28.81.81 0 0 1 .08-1.118c.12-.12.24-.2.36-.32a.81.81 0 0 1 1.119.08c.12.16.2.319.2.519s-.08.44-.28.6l-.32.279c-.16.12-.32.2-.519.2zm-3.558 3.357c-.2 0-.399-.08-.559-.24a.8.8 0 0 1-.24-.559c0-.2.08-.4.24-.56l.319-.319c.32-.32.8-.32 1.119 0 .16.16.24.359.24.559s-.08.4-.24.56c-.12.079-.2.199-.279.319a.8.8 0 0 1-.56.24zm-9.869 13.546c-.12 0-.24 0-.36-.08-.399-.2-.519-.679-.319-1.079.08-.16.16-.279.24-.439l.12-.2c.2-.4.679-.52 1.079-.32.279.16.439.44.439.719 0 .12 0 .24-.08.36l-.319.639c-.16.28-.44.44-.72.44zm17.221-20.019c-.24 0-.48-.12-.64-.32a.77.77 0 0 1-.16-.48c0-.239.12-.479.32-.639l.08-.08c.08-.08.16-.12.24-.2a.86.86 0 0 1 1.119.16c.239.36.2.839-.16 1.119l-.32.24a.77.77 0 0 1-.479.16z"/>
    <path fill="#fff" d="M108.233 218.951c-.2 0-.36-.08-.52-.2-.16-.16-.279-.36-.279-.6 0-.239.08-.359.199-.519.12-.12.2-.24.32-.36.32-.319.799-.359 1.119-.04q.24.24.24.6c0 .239-.08.399-.2.559-.12.12-.2.2-.28.32-.16.16-.359.28-.599.28zm3.717-3.717c-.2 0-.44-.08-.6-.24a.85.85 0 0 1 0-1.119c.28-.319.08-.079.12-.119a.81.81 0 0 1 1.119.04c.28.319.28.799 0 1.118s-.08.08-.12.12c-.16.12-.359.2-.519.2m2.319-2.038c-.24 0-.48-.12-.64-.28-.119-.16-.199-.319-.199-.519 0-.24.12-.48.279-.639l.28-.2c.36-.28.839-.24 1.119.12.12.159.2.319.2.519 0 .24-.12.48-.28.639l-.28.2c-.159.12-.319.2-.519.2z"/>
    <path fill="#fff" d="M115.666 212.037c-.24 0-.48-.12-.64-.319a.813.813 0 0 1 .12-1.119c.08-.08.2-.16.28-.24.36-.28.839-.2 1.119.16.28.359.2.839-.12 1.119-.08.08-.2.16-.28.239a.76.76 0 0 1-.479.16m-5.117 4.476c-.2 0-.399-.08-.559-.24a.8.8 0 0 1-.24-.559c0-.2.08-.4.24-.56l.04-.04c.12-.079.2-.199.319-.279.32-.32.84-.32 1.119 0 .32.319.32.839 0 1.119-.12.12-.239.199-.319.319a.8.8 0 0 1-.56.24zm-15.664 27.292h-.2a.813.813 0 0 1-.6-.959c.24-1.039.52-2.078.84-3.037.08-.279.16-.519.24-.799a.83.83 0 0 1 .879-.559c.4.08.679.399.679.799 0 .08 0 .16-.04.24-.08.279-.16.519-.2.759-.28.959-.56 1.958-.8 2.957a.77.77 0 0 1-.758.599zm10.749-21.338-1.279-.959.36-.48c.28-.36.759-.4 1.119-.12.2.16.32.4.32.64 0 .159-.04.359-.16.479-.12.16-.24.32-.36.44m-3.474 4.396c-.16 0-.28-.04-.44-.12a.82.82 0 0 1-.24-1.119c.12-.2.24-.4.36-.56a.82.82 0 0 1 1.119-.239c.359.239.479.719.239 1.078-.079.08-.119.2-.199.28l-.16.28c-.16.24-.4.36-.679.36zm1.96-2.878c-.16 0-.32-.04-.48-.159-.2-.16-.32-.4-.32-.64s.04-.319.16-.479l.36-.48c.28-.359.759-.439 1.119-.16.199.16.319.4.319.64 0 .239-.04.319-.159.479l-.36.48c-.16.2-.4.319-.639.319"/>
    <path fill="#fff" d="M102.997 225.584c-.16 0-.32-.04-.44-.12-.359-.24-.479-.759-.199-1.119v-.08c.16-.16.239-.28.359-.439.24-.36.76-.44 1.119-.2.36.24.44.759.2 1.119l-.32.479a.78.78 0 0 1-.679.36zm-2.636 4.235c-.12 0-.28.001-.4-.119-.4-.2-.519-.72-.32-1.079.12-.2.24-.4.36-.64.2-.399.72-.519 1.079-.319.24.16.4.399.4.679 0 .12 0 .28-.12.4l-.36.599c-.159.24-.399.4-.679.4z"/>
    <path fill="#fff" d="M101.202 228.381c-.16 0-.28 0-.4-.12-.24-.16-.4-.399-.4-.679 0-.12 0-.28.12-.4.16-.279.32-.519.48-.799a.82.82 0 0 1 1.119-.24c.239.16.359.4.359.68 0 .159 0 .279-.12.439-.159.24-.319.52-.479.759-.16.24-.4.4-.679.4zm4.914-6.993c-.16 0-.36-.04-.52-.2a.78.78 0 0 1-.119-1.119c.119-.16.199-.28.319-.399a.81.81 0 0 1 1.119-.08c.32.279.4.799.12 1.119l-.32.399a.77.77 0 0 1-.599.28m50.547 147.451c-.519 0-.999-.08-1.438-.279-1.239-.52-2.038-1.679-2.598-3.637-5.674-17.702-12.227-45.674-12.507-46.873-.6-2.557-.64-5.514 3.716-7.752 1.838-.959 15.504-8.751 28.691-16.263 14.066-8.032 28.651-16.344 30.729-17.423 2.198-1.159 3.836-1.398 5.075-.799 1.279.599 2.118 1.998 2.677 4.476 3.197 17.302 10.67 41.797 11.709 44.555 1.278 3.316 1.998 6.233-1.998 8.511-1.279.719-8.752 4.995-18.182 10.43-15.265 8.791-36.164 20.779-39.72 22.777h-.04c-2.717 1.518-4.635 2.237-6.114 2.237zm50.19-91.787c-.72 0-1.679.319-2.877.919-2.078 1.079-16.584 9.35-30.65 17.382-13.826 7.872-26.893 15.345-28.771 16.304-3.196 1.678-3.476 3.436-2.917 5.994.28 1.199 6.793 29.131 12.468 46.753.439 1.478.959 2.317 1.678 2.637 1.119.48 2.997-.12 6.114-1.838h.04c3.396-1.878 24.415-13.986 39.72-22.817 9.43-5.435 16.903-9.71 18.182-10.43 2.797-1.598 2.557-3.276 1.318-6.553-1.358-3.556-8.671-28.212-11.788-44.835-.439-1.918-.999-2.997-1.798-3.356-.24-.12-.48-.16-.799-.16zm18.981 33.246c-.519 0-.999-.08-1.438-.28-1.239-.519-2.038-1.678-2.598-3.636v-.04c-5.674-17.742-12.188-45.634-12.467-46.833-.6-2.557-.64-5.514 3.716-7.752 1.838-.959 15.504-8.751 28.691-16.263 14.066-8.032 28.651-16.344 30.729-17.423 2.198-1.159 3.836-1.398 5.075-.799 1.279.599 2.118 1.998 2.677 4.475 3.197 17.303 10.67 41.798 11.709 44.556 1.278 3.316 1.998 6.233-1.998 8.511-1.279.719-8.752 5.035-18.182 10.469-15.345 8.832-36.324 20.899-39.72 22.817-2.717 1.519-4.635 2.238-6.114 2.238zm-2.477-4.276c.399 1.439.959 2.238 1.678 2.518 1.119.479 3.037-.12 6.194-1.878 3.396-1.878 24.375-13.986 39.72-22.777 9.43-5.435 16.903-9.71 18.181-10.47 2.798-1.598 2.558-3.276 1.319-6.553-1.359-3.556-8.671-28.212-11.788-44.835-.44-1.918-.999-2.997-1.798-3.357-.799-.359-1.998-.119-3.677.76-2.077 1.079-16.623 9.35-30.689 17.382-13.826 7.872-26.893 15.345-28.771 16.304-3.196 1.678-3.476 3.436-2.917 5.994.28 1.199 6.793 29.09 12.468 46.753v.08zm103.575-34.365c-.52 0-.999-.079-1.439-.279-1.239-.52-2.038-1.679-2.597-3.637v-.04c-5.674-17.702-12.188-45.634-12.468-46.832-.599-2.558-.639-5.515 3.717-7.753 1.838-.959 15.504-8.751 28.691-16.263 14.066-8.032 28.651-16.344 30.729-17.423 2.198-1.158 3.836-1.398 5.075-.799 1.278.6 2.118 1.998 2.677 4.476 3.197 17.262 10.669 41.798 11.708 44.555 1.279 3.316 1.998 6.233-1.998 8.511-1.278.719-8.711 4.995-18.142 10.43-15.344 8.831-36.363 20.939-39.759 22.817-2.718 1.518-4.636 2.237-6.114 2.237zm-2.518-4.275c.4 1.438.959 2.238 1.679 2.517 1.119.48 3.037-.12 6.193-1.878 3.397-1.878 24.416-13.986 39.76-22.817 9.431-5.434 16.863-9.71 18.182-10.429 2.797-1.599 2.557-3.277 1.319-6.554-1.359-3.556-8.672-28.211-11.788-44.835-.44-1.918-.999-2.997-1.799-3.356-.799-.36-1.998-.12-3.676.759-2.078 1.079-16.583 9.351-30.649 17.382-13.826 7.873-26.893 15.345-28.771 16.304-3.197 1.678-3.477 3.437-2.917 5.994.28 1.199 6.793 29.131 12.467 46.753zM175.286 447.92c-.439 0-.879-.04-1.279-.16-1.758-.48-2.717-1.878-3.316-2.917-3.037-5.275-9.431-18.541-22.458-51.828a55 55 0 0 1-.599-1.518c-1.958-4.955-.44-6.794 3.956-9.391 3.796-2.198 52.787-29.89 57.622-32.527 2.278-1.239 4.116-1.958 5.634-1.399 1.519.56 2.398 2.198 3.317 4.675v.04c6.234 17.263 20.379 47.992 22.337 51.429 2.198 3.916 1.559 6.593-2.077 8.751-1.519.919-12.947 7.392-25.055 14.265-14.186 8.072-30.25 17.183-33.007 18.821-1.958 1.159-3.636 1.719-5.115 1.719zm38.441-98.341c-.799 0-1.998.439-3.716 1.398-4.835 2.638-53.826 30.29-57.582 32.528-4.036 2.357-4.835 3.476-3.277 7.392q.18.48.6 1.559c13.027 33.206 19.34 46.393 22.377 51.628.72 1.238 1.439 1.918 2.358 2.157 1.239.32 2.997-.119 5.155-1.398 2.757-1.639 18.861-10.789 33.046-18.821 12.108-6.873 23.497-13.347 25.015-14.266 2.877-1.678 3.277-3.476 1.519-6.593-1.958-3.477-16.224-34.406-22.458-51.708-.879-2.318-1.558-3.397-2.357-3.676-.16-.08-.36-.08-.6-.08zm63.376 57.901c-.44 0-.88-.04-1.279-.159-1.758-.48-2.717-1.879-3.317-2.917-3.037-5.275-9.43-18.542-22.457-51.828-.28-.68-.48-1.239-.6-1.559-1.958-4.955-.439-6.793 3.956-9.39 3.797-2.198 52.787-29.89 57.622-32.527 2.278-1.239 4.116-1.958 5.635-1.399 1.518.559 2.397 2.198 3.316 4.675v.08c3.517 9.79 9.471 23.417 12.708 30.689.039.12.079.2.079.32v32.967c0 .279-.159.559-.399.679-4.356 2.478-10.07 5.754-16.104 9.151-14.625 8.311-31.248 17.742-34.086 19.42-1.958 1.159-3.636 1.719-5.114 1.719zm38.441-98.341c-.799 0-1.998.44-3.716 1.399-4.836 2.637-53.826 30.29-57.582 32.527-4.036 2.358-4.836 3.477-3.277 7.393q.18.48.599 1.558c12.987 33.167 19.341 46.394 22.378 51.588.719 1.239 1.438 1.918 2.357 2.158 1.239.32 2.997-.12 5.155-1.398 2.837-1.679 19.461-11.109 34.086-19.421 5.834-3.317 11.388-6.473 15.704-8.951v-32.327c-3.277-7.353-9.191-20.939-12.707-30.729v-.08c-.879-2.278-1.559-3.357-2.358-3.637-.16-.08-.359-.08-.599-.08zm17.865 20.62h-.24c-.2-.08-.4-.24-.48-.44-5.794-13.266-11.868-28.771-13.866-33.886q-.42-1.078-.599-1.558c-1.958-4.955-.44-6.793 3.956-9.391 3.756-2.197 52.787-29.889 57.622-32.527 2.277-1.239 4.116-1.958 5.634-1.398 1.519.559 2.398 2.197 3.317 4.675 3.836 10.709 10.429 25.694 14.026 33.686.159.36 0 .799-.32.999l-68.651 39.72c-.12.08-.28.12-.399.12m50.868-77.802c-.799 0-1.998.44-3.716 1.399-4.835 2.637-53.826 30.289-57.582 32.527-4.036 2.358-4.835 3.477-3.277 7.393q.18.479.6 1.558c1.958 4.995 7.832 19.94 13.466 33.007l67.212-38.921c-3.636-8.152-9.99-22.697-13.746-33.127-.879-2.357-1.558-3.436-2.397-3.716-.16-.08-.36-.08-.6-.08z"/>
    <path fill="#fff" d="M364.893 347.741c-.12 0-.24 0-.36-.08l-32.886-17.143c-.24-.12-.44-.4-.44-.679 0-.28.16-.56.4-.72l105.773-61.218c.24-.12.52-.16.759 0l32.887 17.143c.24.12.44.399.44.679s-.16.56-.4.719l-105.773 61.219c-.12.08-.28.12-.4.12zm-31.248-17.982 31.208 16.263 104.135-60.259-31.208-16.264z"/>
    <path fill="#fff" d="M420.001 507.979c-.16 0-.32-.04-.44-.119l-77.162-51.469a.78.78 0 0 1-.36-.679c0-.28.16-.519.4-.679l21.658-12.428v-95.663c0-.28.16-.56.399-.68l105.774-61.218c.24-.16.559-.16.799 0s.4.4.4.679v95.224l23.096-13.266c.32-.16.72-.12.959.12.24.239.32.639.16.959L420.76 507.54c-.12.2-.28.359-.52.399h-.2zm-75.644-52.227 75.364 50.229 73.166-135.543-21.778 12.507c-.12.08-.28.12-.44.12a.77.77 0 0 1-.759-.599v-95.424l-104.175 60.299v95.664c0 .28-.16.559-.399.679l-20.939 12.028zm75.644 42.038c-.16 0-.28-.04-.44-.12l-65.574-41.239c-.12-.04-.24-.16-.32-.239a.807.807 0 0 1 .12-1.079c.04-.04.12-.08.2-.12l.12-.08 16.104-9.391.239-96.023c0-.28.16-.559.4-.679l73.766-41.678 20.579-11.629a.94.94 0 0 1 .799 0c.24.16.4.4.4.68v92.746l17.742-10.03c.32-.159.719-.119.959.12.24.24.32.64.12.959L420.72 497.43c-.12.2-.28.32-.52.4h-.199zm-64.136-42.038 63.816 40.12 62.737-114.205-16.464 9.31c-.24.16-.559.12-.799 0-.24-.16-.4-.399-.4-.679v-92.747l-92.746 52.428-.24 96.023c0 .28-.16.559-.399.679l-15.545 9.071z"/>
    <path fill="#fff" d="M364.893 443.844c-.12 0-.28 0-.4-.08l-32.886-18.022a.84.84 0 0 1-.4-.719v-95.224c0-.28.16-.52.4-.68.239-.159.519-.159.799 0l32.887 17.143c.279.12.439.4.439.719v96.104c0 .279-.16.559-.399.679-.12.08-.28.12-.4.12zm-32.088-19.301 31.289 17.143v-94.265l-6.234-3.237-25.055-13.067z"/>
    <path fill="#fff" d="M342.837 456.511c-.12 0-.279 0-.399-.12L309.95 438.13c-.239-.16-.399-.4-.399-.68 0-.279.16-.559.399-.679l21.659-12.427c.239-.12.519-.16.799 0l16.024 8.791 16.863 9.231c.239.119.399.399.399.679s-.16.559-.399.719l-22.058 12.667c-.12.08-.28.12-.4.12zm-30.889-19.1 30.889 17.382 20.42-11.708-31.249-17.143-20.06 11.508zm158.679-54.266c-.12 0-.279 0-.399-.12-.24-.16-.4-.4-.4-.679v-27.692c0-.28.16-.56.4-.68a.73.73 0 0 1 .799 0l24.295 13.746c.24.16.4.4.4.68 0 .279-.16.559-.4.679l-24.295 13.946c-.12.08-.28.12-.4.12m.8-27.173v24.975l21.857-12.547-21.857-12.388zM419.998 497.79a.9.9 0 0 1-.439-.12l-65.654-41.319c-.24-.16-.4-.399-.36-.679 0-.28.16-.52.4-.679l.16-.08c.239-.16.559-.12.839 0l61.178 38.481 60.499-110.129c.08-.12.16-.24.32-.32l7.193-4.076c.319-.16.719-.12.959.12.239.24.319.64.12.959L420.718 497.39c-.12.2-.28.32-.52.4zm-2.637-3.397 2.358 1.478 62.736-114.204-4.555 2.597-60.499 110.169z"/>
    <path fill="#fff" d="M465.595 391.057c-.16 0-.32-.04-.44-.16l-3.596-2.478c-.2-.159-.36-.399-.36-.639v-89.59c0-.279.16-.559.4-.679l3.596-2.038c.24-.16.56-.12.799 0 .24.16.4.4.4.679v94.106c0 .279-.16.559-.44.719-.119.08-.239.08-.359.08m-2.837-3.676 1.998 1.398v-91.228l-1.998 1.119zm-55.425 5.594c-.2 0-.36-.08-.52-.2-.32-.279-.36-.759-.12-1.119.52-.639.959-1.238 1.359-1.838.24-.359.719-.479 1.079-.239.359.239.479.719.279 1.078-.439.76-.919 1.439-1.478 2.038q-.24.24-.599.24zm-6.557-1.119c-.12 0-.24 0-.36-.08-.28-.119-.439-.399-.439-.719v-1.199q0-2.697 1.318-5.274c.839-1.599 1.958-2.917 3.397-3.956a.89.89 0 0 1 .839-.08c.28.12.44.399.44.719v1.199c0 1.798-.44 3.596-1.359 5.314-.839 1.559-1.958 2.878-3.397 3.917a1 1 0 0 1-.479.159zm3.596-8.791a10.3 10.3 0 0 0-1.638 2.278 9.7 9.7 0 0 0-1.119 3.996 9.2 9.2 0 0 0 1.638-2.238c.68-1.319 1.079-2.637 1.159-4.036z"/>
    <path fill="#fff" d="M402.938 395.533c-.479 0-.919-.12-1.358-.36-1.079-.639-1.639-1.958-1.639-3.916v-.16c0-.24.12-.48.32-.639a9.86 9.86 0 0 0 2.917-3.357c.759-1.478 1.159-3.037 1.159-4.555v-1.199c0-.24.12-.52.32-.64l.08-.079a.7.7 0 0 0 .199-.16c1.719-1.119 3.117-1.439 4.236-.839h.08q1.678.959 1.678 3.956v1.398c0 1.798-.439 3.597-1.358 5.315-.04.08-.12.2-.16.28l-.08.119v.04c-.4.6-.879 1.239-1.439 1.958l-.04.04c-.599.64-1.278 1.239-2.038 1.719-1.118.719-2.077 1.079-2.957 1.079zm-1.358-4.076c0 .879.2 1.958.839 2.317.679.4 1.798-.16 2.597-.679.64-.4 1.199-.879 1.719-1.439q.779-.958 1.318-1.798v-.08c.08-.08.16-.16.2-.239.759-1.479 1.159-2.997 1.159-4.556v-1.398c0-.92-.16-2.078-.799-2.518h-.04c-.68-.4-1.759.16-2.558.679v.8c0 1.798-.439 3.596-1.358 5.314a11.2 11.2 0 0 1-3.037 3.637z"/>
    <path fill="#fff" d="M396.104 403.844c-.12 0-.24 0-.36-.08l-4.315-2.157c-.08 0-.16-.08-.24-.12a4 4 0 0 1-.799-.44c-1.918-1.279-2.917-3.876-2.917-7.672v-.6c0-4.195 1.119-8.271 3.316-12.107 2.198-3.876 5.315-7.193 9.231-9.83 4.036-2.758 7.233-3.597 9.79-2.678.28.12.6.24.879.44l4.516 2.198c.399.199.559.639.359 1.039-.199.399-.639.559-1.039.399-.119-.04-.199-.08-.279-.12-.64-.239-1.399-.319-2.198-.2-1.678.2-3.756 1.119-6.114 2.718s-4.396 3.436-6.074 5.474l-.08.08c-.839.759-1.518 1.678-2.078 2.677-.119.24-.239.52-.399.84 0 0 0 .08-.04.08l-.08.119c-2.038 3.637-3.117 7.433-3.117 11.349v.599c0 2.038.28 3.677.879 4.835.4.76.879 1.279 1.519 1.639.359.2.519.679.319 1.079a.84.84 0 0 1-.719.439zm11.588-34.445c-1.798 0-4.076.919-6.793 2.757-3.716 2.518-6.633 5.635-8.711 9.311-2.038 3.636-3.117 7.432-3.117 11.348v.6c0 3.237.719 5.394 2.158 6.353.2.12.36.24.559.32.08 0 .12.04.2.08h.08l1.119.559c-.48-1.278-.759-2.917-.759-4.875v-.599c0-4.196 1.119-8.272 3.316-12.108l.08-.12c.16-.359.28-.639.44-.919.599-1.159 1.398-2.238 2.357-3.077a30.2 30.2 0 0 1 6.354-5.714c2.198-1.478 4.156-2.437 5.914-2.837l-.999-.48h-.08c-.2-.119-.399-.239-.639-.319-.48-.16-.959-.24-1.519-.24z"/>
    <path fill="#fff" d="M396.581 384.224c-.12 0-.24 0-.36-.08-.36-.2-.56-.639-.4-1.039.12-.32.28-.679.44-.959v-.08a11 11 0 0 1 2.358-3.077c.319-.28.799-.28 1.078 0 .32.28.32.759.08 1.079-.959 1.159-1.838 2.398-2.557 3.716-.16.24-.4.4-.679.4zm18.465-11.788c-.12 0-.24 0-.36-.08 0 0-.08 0-.08-.04-.359-.24-.479-.679-.279-1.039a.86.86 0 0 1 .999-.399.82.82 0 0 1 .519.759c0 .28-.16.519-.359.679-.12.08-.28.12-.44.12"/>
    <path fill="#fff" d="M398.418 404.444c-.799 0-1.559-.16-2.238-.44h-.04l-.399-.2c-.919-.519-1.639-1.278-2.158-2.317-.719-1.359-1.079-3.277-1.079-5.595v-.599c0-4.196 1.119-8.272 3.317-12.108l.079-.16a27.4 27.4 0 0 1 2.718-3.916c1.798-2.158 3.956-4.076 6.393-5.754 2.558-1.758 4.835-2.757 6.793-2.997 1.079-.12 2.078 0 2.957.28.08 0 .2.08.28.12l.32.159h.04c2.198 1.159 3.277 3.837 3.277 7.952v.6c0 .439 0 .919-.04 1.398-.24 3.757-1.359 7.393-3.397 10.909 0 0 0 .04-.04.08a27.5 27.5 0 0 1-4.955 6.234 33.6 33.6 0 0 1-4.396 3.477c-2.957 1.918-5.434 2.877-7.472 2.877zm-1.598-1.918c1.878.799 4.635 0 8.191-2.318a30 30 0 0 0 4.156-3.277 26 26 0 0 0 4.715-5.954s0-.04.04-.08c1.878-3.236 2.957-6.673 3.157-10.11 0-.479.04-.879.04-1.318v-.6c0-3.476-.839-5.674-2.437-6.553h-.04l-.2-.08c-.04 0-.12-.04-.16-.08-.639-.24-1.399-.32-2.238-.2-1.678.2-3.756 1.119-6.114 2.718s-4.395 3.436-6.074 5.474a26.7 26.7 0 0 0-2.557 3.716l-.08.12c-2.038 3.637-3.117 7.433-3.117 11.349v.599c0 2.078.32 3.716.879 4.875.4.76.88 1.279 1.519 1.639l.359.159zm6.113-6.993a2.5 2.5 0 0 1-1.318-.36c-1.079-.639-1.639-1.958-1.639-3.916v-1.399q0-2.697 1.319-5.274c.839-1.599 1.958-2.917 3.397-3.956.08-.08.199-.16.319-.2 1.759-1.159 3.197-1.439 4.316-.799q1.678.959 1.678 3.956v1.398c0 1.798-.439 3.597-1.358 5.315-.04.12-.12.2-.2.32v.079c-.48.76-.959 1.439-1.519 2.038-.599.64-1.278 1.239-2.038 1.719-1.118.719-2.117 1.079-2.957 1.079m5.075-14.626c-.639 0-1.478.44-2.078.879-.08.04-.159.12-.239.2a9.2 9.2 0 0 0-2.917 3.397c-.76 1.478-1.159 2.997-1.159 4.515v1.399c0 .919.16 2.118.839 2.557.679.4 1.798-.16 2.597-.679.64-.4 1.199-.919 1.719-1.479a9.4 9.4 0 0 0 1.278-1.758v-.08c.08-.08.16-.16.2-.239a9.54 9.54 0 0 0 1.159-4.556v-1.398c0-.96-.16-2.158-.839-2.558-.16-.08-.36-.12-.52-.12zm22.381 28.052c-.12 0-.28 0-.4-.08a.84.84 0 0 1-.399-.719v-1.598c0-1.839.479-3.677 1.398-5.395a11 11 0 0 1 3.917-4.196.73.73 0 0 1 .799 0c.239.16.399.4.399.719v1.599c0 1.838-.479 3.636-1.398 5.394v.04a11.06 11.06 0 0 1-3.876 4.156c-.12.08-.28.12-.44.12zm4.156-9.71c-.879.759-1.559 1.638-2.158 2.717-.799 1.479-1.199 3.037-1.199 4.635.839-.719 1.519-1.598 2.078-2.597v-.04c.839-1.518 1.239-3.077 1.239-4.675z"/>
    <path fill="#fff" d="M432.704 412.396q-.78 0-1.439-.36c-1.119-.639-1.678-1.958-1.718-3.876 0-.28.12-.52.36-.679 1.398-.88 2.517-2.118 3.356-3.597.839-1.518 1.239-3.077 1.239-4.675v-1.598c0-.24.08-.44.28-.6 0 0 .08-.08.119-.08 1.839-1.159 3.317-1.398 4.516-.759 1.159.639 1.758 2.038 1.758 4.076v1.438c0 1.879-.479 3.677-1.438 5.435a11.1 11.1 0 0 1-3.956 4.196c-1.159.719-2.158 1.079-3.037 1.079zm-1.519-3.836c.08 1.078.36 1.758.879 2.077.76.44 1.958-.119 2.837-.679 1.439-.879 2.558-2.118 3.397-3.596.839-1.519 1.239-3.077 1.239-4.676v-1.438c0-1.399-.32-2.318-.919-2.677-.64-.36-1.639 0-2.478.479v1.159c0 1.878-.479 3.676-1.438 5.434a11.7 11.7 0 0 1-3.477 3.917z"/>
    <path fill="#fff" d="M425.472 420.867c-.12 0-.24 0-.36-.08l-4.475-2.198h-.12c-.24-.12-.44-.2-.68-.359-2.117-1.279-3.196-3.996-3.196-8.032v-.72c0-.479 0-.999.04-1.518 0-.12 0-.2.08-.28l8.031-16.343c.04-.08.08-.16.16-.24 1.479-1.439 3.117-2.717 4.915-3.876 4.196-2.717 7.633-3.597 10.27-2.598.16.04.36.12.519.24l4.836 2.398c.399.2.559.679.359 1.039a.807.807 0 0 1-1.039.399h-.04a.3.3 0 0 0-.16-.08c-.639-.239-1.398-.319-2.197-.279-1.838.12-4.076 1.039-6.674 2.717-3.916 2.517-7.033 5.714-9.23 9.43-2.158 3.677-3.277 7.593-3.277 11.589v.599c0 2.238.36 3.956 1.039 5.155.4.719.919 1.239 1.558 1.598.4.2.52.68.32 1.079-.16.28-.44.44-.719.44zm-7.233-11.189v.52c0 3.436.839 5.674 2.438 6.673q.239.18.479.24h.12l1.159.599c-.56-1.359-.799-3.037-.799-5.075v-.599c0-4.316 1.158-8.472 3.516-12.428 2.318-3.956 5.594-7.312 9.75-9.95 2.358-1.518 4.436-2.437 6.274-2.797l-1.199-.599c-.12-.08-.24-.12-.36-.16-2.157-.799-5.114 0-8.871 2.437a29 29 0 0 0-4.555 3.597l-7.912 16.064c0 .479-.04.919-.04 1.398v.12z"/>
    <path fill="#fff" d="M445.535 388.859h-.2c-.04 0-.08 0-.12-.04a.8.8 0 0 1-.359-1.078.8.8 0 0 1 1.078-.36c.2.08.32.28.4.439.04.12.04.24.04.36 0 .08 0 .2-.08.28 0 .04-.04.08-.08.16-.16.199-.399.319-.599.319z"/>
    <path fill="#fff" d="M427.993 421.506c-.879 0-1.718-.16-2.477-.479l-.4-.2c-.919-.52-1.678-1.239-2.198-2.198-.799-1.438-1.238-3.436-1.238-5.954v-.599c0-4.316 1.158-8.472 3.516-12.428 2.318-3.956 5.594-7.312 9.75-9.95 2.877-1.838 5.275-2.797 7.393-2.957h.08c.999-.08 1.958.08 2.797.36.08 0 .16.08.24.08h.08v.04l.319.16h.04c2.278 1.238 3.397 3.996 3.397 8.151v.64c0 4.355-1.239 8.591-3.636 12.587-2.398 3.956-5.755 7.313-9.911 9.87-3.076 1.878-5.634 2.837-7.752 2.837zm-1.798-1.958c1.998.839 4.955.12 8.751-2.237 3.956-2.438 7.113-5.595 9.391-9.351s3.436-7.712 3.436-11.788v-.64c0-3.556-.879-5.834-2.557-6.753l-.4-.2c-.04 0-.08-.04-.159-.079-.64-.24-1.399-.32-2.198-.28h-.08c-1.798.16-4.036 1.079-6.594 2.717-3.916 2.518-7.032 5.714-9.23 9.431-2.158 3.676-3.277 7.592-3.277 11.588v.599c0 2.238.36 3.956 1.039 5.155.4.719.919 1.239 1.558 1.598l.36.16zm6.514-7.153c-.52 0-.999-.119-1.439-.399-1.079-.64-1.678-1.958-1.718-3.876v-1.639c0-1.838.479-3.636 1.398-5.394a11 11 0 0 1 3.916-4.196c1.839-1.159 3.357-1.399 4.516-.759 1.159.639 1.758 2.038 1.758 4.076v1.438c0 1.878-.479 3.677-1.438 5.435a11.1 11.1 0 0 1-3.957 4.196c-1.158.719-2.157 1.078-3.036 1.078zm3.036-14.105a9.5 9.5 0 0 0-3.356 3.636c-.799 1.518-1.199 3.077-1.199 4.635v1.599c0 1.318.32 2.158.919 2.477.759.44 1.958-.12 2.837-.679 1.439-.879 2.558-2.118 3.397-3.596.839-1.519 1.239-3.077 1.239-4.676v-1.438c0-1.399-.32-2.318-.919-2.678-.76-.439-1.958.16-2.838.72z"/>
    <path fill="#fff" d="M427.989 421.506c-.879 0-1.718-.16-2.477-.479l-4.955-2.438c-.24-.12-.44-.2-.68-.359-2.117-1.279-3.236-3.996-3.236-8.032v-.6c0-.519 0-1.079.04-1.638 0-.12 0-.2.08-.28l8.031-16.343c.04-.08.08-.16.16-.24 1.479-1.439 3.117-2.717 4.915-3.876 4.196-2.717 7.633-3.597 10.27-2.598.16.04.36.12.519.24l5.155 2.558c.04 0 .08.04.12.08 2.238 1.238 3.357 3.995 3.357 8.151v.64c0 4.355-1.239 8.591-3.637 12.587-2.397 3.956-5.754 7.313-9.91 9.87-3.076 1.878-5.634 2.837-7.752 2.837zm-1.798-1.958c1.998.839 4.955.12 8.711-2.237 3.956-2.438 7.113-5.595 9.391-9.351s3.436-7.712 3.436-11.788v-.64c0-3.556-.879-5.834-2.557-6.753h-.08l-5.115-2.517c-.12-.08-.24-.12-.36-.16-2.157-.799-5.114 0-8.871 2.437-1.638 1.079-3.196 2.278-4.555 3.597l-7.912 16.064c0 .479-.04.919-.04 1.398v.6c0 3.436.839 5.674 2.438 6.673q.239.18.479.24h.12l4.875 2.397zm-27.769-15.104c-.8 0-1.559-.16-2.238-.44h-.04l-4.715-2.358c-.08 0-.16-.08-.24-.12a4 4 0 0 1-.799-.439c-1.918-1.279-2.917-3.876-2.917-7.672v-.6c0-4.196 1.119-8.271 3.316-12.108 2.198-3.876 5.315-7.192 9.231-9.83 4.036-2.757 7.233-3.596 9.79-2.677.28.12.6.24.879.44l4.716 2.317h.039c2.158 1.159 3.277 3.836 3.277 7.952v.6c0 .439 0 .919-.04 1.398-.239 3.716-1.358 7.353-3.356 10.829 0 0 0 .04-.04.08-1.359 2.318-2.997 4.436-4.995 6.314a33.6 33.6 0 0 1-4.396 3.476c-2.957 1.918-5.434 2.877-7.472 2.877zm-1.599-1.919c1.878.8 4.636 0 8.192-2.317a30 30 0 0 0 4.156-3.277 27.5 27.5 0 0 0 4.675-5.874s0-.04.04-.08c1.918-3.277 2.957-6.713 3.197-10.19 0-.479.04-.879.04-1.318v-.6c0-3.476-.839-5.674-2.438-6.553l-.16-.08-4.555-2.198h-.08c-.2-.12-.4-.24-.639-.319-1.998-.72-4.795.119-8.312 2.517-3.716 2.517-6.633 5.634-8.711 9.311-2.038 3.636-3.117 7.432-3.117 11.348v.6c0 3.236.719 5.394 2.158 6.353.2.12.359.24.559.32.08 0 .12.04.2.08h.08l4.715 2.357zm47.95-49.19h-.159l-5.635-1.199a.816.816 0 0 1-.639-.799v-.16a.766.766 0 0 1 .959-.599l5.634 1.199c.36.08.64.399.64.799v.16a.82.82 0 0 1-.8.639z"/>
    <path fill="#fff" d="M439.1 352.136h-.16l-.519-.12a.816.816 0 0 1-.64-.799v-.16c.08-.439.52-.719.959-.639l.52.12c.359.08.639.399.639.799v.16a.815.815 0 0 1-.799.639"/>
    <path fill="#fff" d="M402.455 439.408h-.239l-5.715-1.718a.95.95 0 0 1-.519-.44 1 1 0 0 1 0-.679l.399-.839 41.439-84.795c.159-.319.519-.519.879-.439l6.194 1.279c.239.04.439.199.559.439q.18.36 0 .719l-17.902 36.404-24.415 49.67c-.12.279-.4.439-.72.439zm-4.595-2.997 4.156 1.239 41.558-84.515-4.556-.959z"/>
    <path fill="#fff" d="M444.773 353.335h-.159l-6.194-1.279c-.08 0-.12 0-.2-.08l-5.035-2.477c-.36-.16-.519-.6-.4-.959.12-.36.52-.6.92-.52l6.193 1.279c.08 0 .12 0 .2.08l4.995 2.477c.36.16.52.6.4.959a.82.82 0 0 1-.76.52z"/>
    <path fill="#fff" d="M402.455 439.409h-.239l-5.715-1.719a.95.95 0 0 1-.519-.439 1 1 0 0 1 0-.68l1.678-3.436 19.181-39.281 20.619-42.197-4.316-2.118c-.359-.16-.519-.599-.399-.959a.81.81 0 0 1 .919-.519l6.194 1.278c.08 0 .12 0 .199.08l5.035 2.478a.8.8 0 0 1 .36 1.079L427.95 388.58c.639-.48 1.278-.919 1.918-1.359 4.195-2.717 7.632-3.596 10.269-2.597.16.04.36.12.52.239l5.155 2.558c.04 0 .08.04.119.08 2.238 1.239 3.357 3.996 3.357 8.152v.639c0 4.356-1.239 8.591-3.636 12.587-2.398 3.956-5.754 7.313-9.91 9.87-4.316 2.678-7.673 3.437-10.23 2.358l-4.955-2.438c-.24-.119-.439-.199-.679-.359-1.918-1.159-2.957-3.437-3.197-6.753l-13.546 27.532c-.12.28-.4.439-.72.439zm-4.595-2.997 4.156 1.238 14.785-30.049c.16-.36.559-.52.919-.4.36.08.599.44.599.839 0 .52-.04 1.039-.04 1.519v.599c0 3.437.84 5.674 2.438 6.673q.24.18.479.24h.12l4.875 2.398c1.998.839 4.955.12 8.712-2.238 3.956-2.438 7.112-5.594 9.39-9.351 2.278-3.756 3.437-7.712 3.437-11.788v-.639c0-3.557-.879-5.834-2.558-6.753h-.08l-5.115-2.518c-.119-.08-.239-.12-.359-.16-2.158-.799-5.115 0-8.871 2.438-1.679 1.079-3.277 2.318-4.675 3.676-.28.28-.72.32-1.039.08-.32-.24-.4-.639-.24-.999l1.318-2.677 17.543-35.684-4.196-2.078h-.24c.16.16.2.479.08.759l-20.979 42.917-20.459 41.878z"/>
    <path fill="#fff" d="M398.422 404.444c-.8 0-1.559-.16-2.238-.44h-.04l-4.715-2.358c-.08 0-.16-.08-.24-.12a4 4 0 0 1-.799-.439c-1.918-1.279-2.917-3.876-2.917-7.672v-.6c0-4.196 1.119-8.271 3.316-12.108 2.198-3.876 5.315-7.192 9.231-9.83 4.036-2.757 7.233-3.596 9.79-2.677.28.12.6.24.879.44l4.716 2.317h.039c2.158 1.159 3.277 3.836 3.277 7.952v.6c0 .439 0 .919-.04 1.398-.239 3.716-1.358 7.353-3.356 10.829 0 0 0 .04-.04.08-1.359 2.318-2.997 4.436-4.995 6.314a33.6 33.6 0 0 1-4.396 3.476c-2.957 1.918-5.434 2.877-7.472 2.877zm-1.599-1.919c1.878.8 4.636 0 8.192-2.317a30 30 0 0 0 4.156-3.277 27.5 27.5 0 0 0 4.675-5.874s0-.04.04-.08c1.918-3.277 2.957-6.713 3.197-10.19 0-.479.04-.879.04-1.318v-.6c0-3.476-.839-5.674-2.438-6.553l-.16-.08-4.555-2.198h-.08c-.2-.12-.4-.24-.639-.319-1.998-.72-4.795.119-8.312 2.517-3.716 2.517-6.633 5.634-8.711 9.311-2.038 3.636-3.117 7.432-3.117 11.348v.6c0 3.236.719 5.394 2.158 6.353.2.12.359.24.559.32.08 0 .12.04.2.08h.08l4.715 2.357z"/>
    <path fill="#fff" d="M416.404 495.312c-.16 0-.28-.04-.44-.12l-61.897-38.921a.78.78 0 0 1-.36-.679c0-.28.16-.52.4-.679l16.143-9.391.24-96.023c0-.28.16-.56.4-.679l73.765-41.718 16.943-9.591c.24-.16.56-.12.8 0 .239.16.399.4.399.68v89.15l2.877 1.958 11.269-6.354c.32-.16.719-.12.959.12s.32.639.12.959l-60.899 110.888c-.12.2-.28.32-.519.4zm-60.339-39.68 60.059 37.762 59.141-107.652-9.271 5.235c-.24.16-.56.12-.799 0 0 0-.08-.04-.12-.08l-3.557-2.437c-.199-.16-.359-.4-.359-.64v-88.191l-15.784 8.911-73.366 41.478-.24 96.024c0 .279-.16.559-.4.679l-15.384 8.951zm46.393-16.264h-.24l-5.714-1.718c-.04 0-.08 0-.12-.04l-4.995-2.477a.8.8 0 0 1-.36-1.079l16.384-33.527c-.48.36-.959.68-1.479 1.039-4.115 2.678-7.312 3.477-9.71 2.438h-.04l-4.715-2.358c-.08 0-.2-.08-.28-.12a6 6 0 0 1-.719-.399s-.08-.04-.12-.08c-1.878-1.279-2.837-3.836-2.837-7.632v-.6c0-4.196 1.119-8.271 3.317-12.108 2.197-3.876 5.314-7.192 9.23-9.83 4.036-2.717 7.233-3.596 9.79-2.677.32.12.6.24.88.44l4.715 2.317h.04c1.918.999 2.997 3.197 3.237 6.474l14.145-28.971c.16-.32.52-.52.879-.44l6.194 1.279c.08 0 .12 0 .2.08l4.995 2.477c.2.08.32.24.4.44.079.2.039.44 0 .599L428.032 388.5a55 55 0 0 1 1.918-1.359c4.196-2.717 7.633-3.596 10.27-2.597.2.079.36.159.519.239l5.155 2.558h.04c2.278 1.238 3.397 3.996 3.397 8.151v.64c0 4.355-1.239 8.591-3.637 12.587-2.397 3.956-5.714 7.313-9.91 9.87-4.315 2.678-7.672 3.437-10.229 2.358l-4.875-2.398c-.04 0-.08 0-.12-.04-.2-.08-.44-.199-.64-.359-1.878-1.159-2.957-3.437-3.156-6.754l-13.547 27.533c-.12.279-.399.439-.719.439zm-5.435-3.236 4.995 1.518 14.785-30.05a.743.743 0 0 1 .92-.399c.359.08.599.439.599.839 0 .519-.04 1.039-.04 1.518v.6c0 3.436.839 5.674 2.438 6.673q.239.18.479.24h.12l4.875 2.397c1.998.839 4.955.12 8.711-2.237 3.956-2.438 7.113-5.595 9.391-9.351 2.238-3.716 3.396-7.672 3.436-11.668v-.759c0-3.557-.879-5.835-2.557-6.754l-5.155-2.557c-.12-.04-.24-.12-.36-.16-2.157-.799-5.114 0-8.871 2.438a32 32 0 0 0-4.675 3.676c-.28.28-.719.28-1.039.08-.32-.24-.399-.64-.24-.999l1.319-2.677 17.542-35.685-4.195-2.077-5.475-1.159-15.384 31.488c-.16.36-.56.519-.919.44-.36-.08-.6-.44-.6-.84 0-.479.04-.879.04-1.318v-.6c0-3.476-.799-5.674-2.437-6.513l-.2-.12-4.556-2.198h-.08a3 3 0 0 0-.639-.319c-1.998-.72-4.795.119-8.312 2.517-3.716 2.517-6.633 5.634-8.711 9.311-2.038 3.636-3.117 7.432-3.117 11.348v.6c0 3.236.72 5.394 2.158 6.353.16.12.36.2.52.28a.3.3 0 0 1 .199.08h.08l4.716 2.357c1.878.8 4.635.001 8.191-2.317a30 30 0 0 0 4.156-3.277c.28-.28.719-.28 1.039-.08.32.24.4.64.24.999l-.759 1.559-16.943 34.645 4.235 2.078z"/>
    <path fill="#fff" d="M396.742 437.69c-.12 0-.24 0-.36-.08l-4.995-2.477a.8.8 0 0 1-.36-1.079l18.062-36.923c.04-.08.08-.16.16-.24a26 26 0 0 0 4.715-5.954c1.918-3.277 2.957-6.713 3.197-10.19 0-.119 0-.199.08-.319l15.664-32.048c.16-.32.52-.479.839-.44.12 0 .2.04.28.12l4.955 2.438c.4.2.56.679.36 1.079l-20.979 42.917-20.859 42.717c-.08.199-.24.319-.44.399-.08 0-.159.04-.239.04zm-3.956-3.636 3.596 1.758 1.319-2.717 19.18-39.281 20.62-42.197-3.597-1.758-15.224 31.208c-.24 3.676-1.399 7.273-3.397 10.749a28 28 0 0 1-4.875 6.194l-.719 1.439-16.943 34.645z"/>
</svg>
