<svg xmlns="http://www.w3.org/2000/svg" width="16" height="16" fill="none" viewBox="0 0 16 16">
    <mask id="a" width="14" height="8" x="1" y="4" maskUnits="userSpaceOnUse">
        <path fill="#fff" d="M1 4.792h14v6.588H1z"/>
    </mask>
    <g mask="url(#a)">
        <path fill="#036EB3" d="M3.09 4.792H1.08v.692h1.728a.23.23 0 0 1 .22.164.232.232 0 0 1-.22.298H1.081v.693h1.727a.23.23 0 0 1 .218.186.232.232 0 0 1-.218.275H1.081v.693h2.01a.91.91 0 0 0 .826-.524.93.93 0 0 0-.112-.977.93.93 0 0 0-.364-1.43.9.9 0 0 0-.35-.07m11.898 0H13.95v3h1.038zm-3.27 0h-1.036l-1.276 3h1.037l.758-1.781.757 1.782h1.038L11.72 4.792zm-4.425 0H6.256l-1.276 3h1.037l.758-1.781.757 1.782H8.57z"/>
        <path fill="#190F09" d="M4.102 9.492 3.87 8.74h.38l.23.752zm.886 1.865.18-.749h.334l-.182.75zm.992-.749h.328l.13.75h-.332zm-1.891-.285-.265-.695h.369l.3.695zm-.073.538.066-.412h.38l-.085.567a.5.5 0 0 1-.144.25.44.44 0 0 1-.292.102h-.095v-.326l.063-.022a.23.23 0 0 0 .107-.158"/>
        <path fill="#190F09" d="M6.438 9.173h-.51l.057-.114h.44V8.74h-1.82v2.112c-.004.125-.112.194-.152.2h-.009v.327h.107c.11.001.217-.04.299-.115a.45.45 0 0 0 .136-.31V9.058h.567l-.052.114h-.446v1.32h.496v.376c.006.14-.08.183-.08.183l-.024.011v.316h.052a.5.5 0 0 0 .318-.15.45.45 0 0 0 .117-.298l-.003-.436h.071a.42.42 0 0 0 .308-.123.45.45 0 0 0 .128-.305zm-1.037.33h.673v.17h-.673zm.61.61c-.038.032-.074.064-.15.062h-.46v-.17h.668s-.02.074-.058.108M1 9.18v-.308h.15l.052-.114h.43l-.028.102h.732v.32h-.403v.113h.392v.308h-.386l.11.091a.12.12 0 0 0 .092.034h.196v.32h-.335q-.045 0-.088-.005a.1.1 0 0 1-.044-.024l-.173-.165-.138.159q-.034.034-.132.034h-.416v-.308h.271a.1.1 0 0 0 .075-.034l.098-.102H1v-.307h.484V9.18zm1.417-.399v1.253h.741a.447.447 0 0 0 .445-.427v-.826zM3.2 9.5c-.002.06-.013.135-.078.179-.09.061-.142.048-.142.048h-.149v-.603H3.2zm-2.143.632v1.239H3.12a.447.447 0 0 0 .435-.458v-.781zm1.981.894a.27.27 0 0 1-.142.05H1.471v-.158h1.636a.26.26 0 0 1-.068.108m.064-.416H1.471v-.148h1.632zm3.7.702V9.873h-.132v-.335h.044a.07.07 0 0 0 .053-.022.3.3 0 0 0 .046-.084l.132-.352h-.25v-.33h1.116v.33H7.31l-.108.281h.647v1.27c0 .076-.015.32-.188.484a.66.66 0 0 1-.482.197zM7.5 9.693h-.36v1.286h.08a.4.4 0 0 0 .185-.09.3.3 0 0 0 .095-.238zm.605.51h-.171v-.346h.17V9.08h-.17v-.345h1.33v.344h-.115v.78h.103v.346H9.15v1.115h-.36v-1.115h-.312v.527a.63.63 0 0 1-.188.441c-.18.176-.355.168-.355.168V11a.5.5 0 0 0 .1-.089.28.28 0 0 0 .07-.208zm.685-1.125h-.313v.78h.313zm1.795-.24-.002-.104h.5l.002.105h.967v.527h-.382v-.204H9.948v.222h-.375v-.545zm.08.425-.07.244a.6.6 0 0 1-.234.296.8.8 0 0 1-.377.12h-.406v-.325h.35a.37.37 0 0 0 .21-.057.4.4 0 0 0 .119-.155l.03-.122zm-.221.818h1.467v.836q-.001.035.014.065.014.025.078.025h.1v.341h-.22q-.177 0-.245-.067a.3.3 0 0 1-.09-.155.7.7 0 0 1-.02-.146v-.575h-1.115l-.061.432a.65.65 0 0 1-.228.378.64.64 0 0 1-.333.133H9.62v-.34h.047c.07 0 .169-.057.188-.07.018-.015.11-.11.121-.187l.044-.345h-.442v-.325h.475l.017-.09h.385zm.501-.808h.367l.035.13a.25.25 0 0 0 .09.122q.094.053.201.063h.45v.325h-.477a.7.7 0 0 1-.383-.143c-.101-.088-.199-.216-.213-.272zm1.475-.506h.94v.95a.4.4 0 0 1-.024.142q-.025.072-.063.093l-.057.037q.064.048.112.115a.23.23 0 0 1 .033.128v.388c.002.089-.06.32-.149.409a.74.74 0 0 1-.352.209l-.103.012v.11h-.335zm.335 1.065h.165a.08.08 0 0 0 .068-.033q.027-.033.027-.129v-.599h-.261zm0 .304v.813s.08.004.17-.079c.07-.063.087-.182.089-.216l.002-.38q0-.08-.025-.109a.08.08 0 0 0-.066-.03zm.665 1.203v-.293a1 1 0 0 0 .088-.062.3.3 0 0 0 .102-.163l.127-.513.366-.001-.162.654c-.157.357-.522.377-.522.377m.018-2.015V8.83h.539v-.11h.4v.11h.577v.492h-.347V9.13h-.825v.193zm.016.428-.002-.303 1.522-.002v.305zm.006.18h1.526v.302h-.314v.479c0 .089.061.193.094.228.094.1.232.095.232.095l.003.319a.68.68 0 0 1-.464-.167.7.7 0 0 1-.212-.42v-.534h-.864z"/>
    </g>
</svg>
