<svg xmlns="http://www.w3.org/2000/svg" width="16" height="16" fill="none" viewBox="0 0 16 16">
    <path fill="#fff" d="M13.618 10.445a1 1 0 0 0-.141-.312q.02-.075.03-.152a1.04 1.04 0 0 0-.28-.858 1 1 0 0 0-.372-.261 4.96 4.96 0 0 0-.86-4.104 5 5 0 0 0-1.408-1.28 4.98 4.98 0 0 0-7.43 5.398 1 1 0 0 0-.334.247 1.03 1.03 0 0 0-.25 1.01q-.097.144-.142.312a1.02 1.02 0 0 0 .04.671 1 1 0 0 0 .05.77c.086.175.209.31.36.43.18.143.406.264.677.381.325.139.72.269.9.316.466.12.912.197 1.364.2.644.007 1.199-.145 1.596-.532a4.8 4.8 0 0 0 1.21-.004c.395.39.952.543 1.598.537a5.6 5.6 0 0 0 1.362-.2 8 8 0 0 0 .902-.316 3 3 0 0 0 .679-.382c.15-.12.273-.255.359-.43a1 1 0 0 0 .051-.77c.083-.197.104-.422.039-.671m-.462.654c.091.174.097.37.017.552-.123.277-.426.495-1.016.729a8 8 0 0 1-.706.239 5.3 5.3 0 0 1-1.304.19c-.629 0-1.097-.174-1.394-.517a4.7 4.7 0 0 1-1.517.009c-.297.337-.763.508-1.387.508a5.3 5.3 0 0 1-1.303-.19 8 8 0 0 1-.706-.24c-.59-.233-.894-.451-1.016-.728a.62.62 0 0 1 .044-.599.7.7 0 0 1-.095-.565.63.63 0 0 1 .213-.335.7.7 0 0 1-.094-.264.7.7 0 0 1 .19-.571.63.63 0 0 1 .47-.2h.004a4.622 4.622 0 1 1 8.823.004l.066-.004c.185 0 .352.071.47.2.152.165.22.368.19.571a.7.7 0 0 1-.095.264.63.63 0 0 1 .213.335.7.7 0 0 1-.094.565q.015.024.027.047"/>
    <path fill="#FF9D00" d="M13.129 11.052a.7.7 0 0 0 .094-.565.63.63 0 0 0-.213-.335.7.7 0 0 0 .095-.264.7.7 0 0 0-.19-.571.63.63 0 0 0-.536-.196 4.622 4.622 0 1 0-8.823-.003h-.005a.63.63 0 0 0-.47.199.7.7 0 0 0-.19.571.7.7 0 0 0 .095.264.63.63 0 0 0-.213.335.7.7 0 0 0 .095.565l-.027.048a.62.62 0 0 0-.017.551c.122.277.426.495 1.016.729.367.145.703.238.706.239.485.126.924.19 1.303.19.624 0 1.09-.17 1.387-.508.503.08 1.015.077 1.517-.009.297.343.765.517 1.394.517.38 0 .819-.064 1.304-.19.003 0 .339-.094.706-.24.59-.233.893-.451 1.016-.728a.62.62 0 0 0-.044-.599m-6.106.721a2 2 0 0 1-.082.131.8.8 0 0 1-.295.262c-.224.123-.508.165-.797.165-.455 0-.922-.106-1.184-.174-.013-.003-1.604-.453-1.402-.835.033-.065.09-.09.16-.09.283 0 .8.422 1.022.422.05 0 .084-.021.099-.073.094-.339-1.438-.481-1.31-.973.023-.087.085-.122.172-.122.375 0 1.217.66 1.393.66q.02 0 .028-.013l.003-.004c.082-.136.035-.235-.531-.582l-.055-.033c-.623-.377-1.06-.604-.811-.875q.045-.046.118-.045.09.002.207.053c.33.138.785.517.976.682l.09.079s.24.25.386.25a.09.09 0 0 0 .081-.046c.104-.174-.96-.98-1.02-1.313-.04-.225.029-.34.157-.34q.092 0 .217.078c.254.162.745 1.006.925 1.334a.29.29 0 0 0 .256.156c.183 0 .327-.182.016-.415-.467-.35-.303-.92-.08-.956l.029-.002c.203 0 .292.35.292.35s.262.658.713 1.108c.408.408.465.743.227 1.161m1.456.077-.023.003-.04.005-.063.006-.02.002-.019.001-.027.002-.029.003-.03.002h-.006l-.023.001h-.01l-.027.002-.032.002h-.029l-.019.001h-.055l-.025.001h-.114l-.022-.001h-.018l-.023-.001-.029-.002h-.025l-.007-.001-.024-.001-.02-.001-.017-.001-.06-.005-.02-.001-.026-.002-.03-.003-.052-.005h-.001c.25-.558.124-1.079-.382-1.583-.33-.331-.551-.82-.597-.927-.092-.317-.337-.67-.744-.67a.66.66 0 0 0-.548.293 1.6 1.6 0 0 0-.342-.335.9.9 0 0 0-.473-.152.62.62 0 0 0-.486.223l-.003.003-.006-.028V8.68a4 4 0 0 1-.058-.296v-.002l-.004-.023-.01-.067-.004-.03-.003-.03-.004-.03V8.2l-.011-.118-.002-.015-.002-.026-.001-.021v-.005l-.004-.06-.001-.03-.002-.028v-.033l-.001-.021v-.025l-.001-.027v-.054a4.145 4.145 0 0 1 8.289 0v.081l-.001.022v.02l-.002.024v.03l-.002.025v.006l-.002.028-.013.174q0 .015-.003.029l-.002.022-.005.044-.003.023-.003.026-.004.028-.005.032-.004.025-.004.029-.005.028-.005.028-.027.14-.006.029-.006.027a.62.62 0 0 0-.442-.175.9.9 0 0 0-.472.152 1.6 1.6 0 0 0-.343.335.68.68 0 0 0-.548-.293c-.406 0-.651.353-.744.67-.046.108-.266.596-.598.928-.504.503-.632 1.021-.386 1.576m4.28-1.116-.002.005a.3.3 0 0 1-.058.093l-.008.009-.012.012a1.1 1.1 0 0 1-.356.216l-.015.006-.06.026-.03.012q-.109.045-.216.085l-.03.012-.031.012-.06.023-.028.012-.029.012-.014.005-.027.012c-.21.09-.361.182-.33.295l.003.01a.1.1 0 0 0 .022.036c.037.039.105.033.19.002l.036-.014.008-.003.061-.028.016-.007c.105-.052.223-.12.341-.183q.07-.039.143-.073a.8.8 0 0 1 .3-.09q.06 0 .104.027l.005.004a.16.16 0 0 1 .052.06c.041.079.007.16-.075.24-.078.078-.2.153-.338.223l-.031.016a7 7 0 0 1-.959.356c-.144.037-.35.086-.58.123l-.035.005-.005.001-.158.02-.005.001a4 4 0 0 1-.293.023h-.002l-.106.002h-.04a3 3 0 0 1-.363-.033l-.018-.004h-.001l-.057-.012-.032-.008-.007-.001-.016-.004-.003-.001-.017-.005-.018-.006h-.002l-.016-.005-.018-.006-.015-.005-.01-.004-.031-.01-.01-.005-.008-.003-.046-.02-.01-.004-.002-.001-.01-.005-.022-.01-.002-.002-.01-.005-.053-.03-.01-.005-.013-.01-.012-.008-.014-.009-.007-.005-.025-.018-.013-.01-.027-.023-.026-.024-.026-.026-.013-.014-.011-.013-.001-.001-.034-.042-.022-.03-.006-.01-.045-.07-.012-.018-.001-.002-.01-.018-.006-.01-.006-.01-.003-.006-.002-.003-.01-.02-.006-.009-.004-.01-.005-.009-.035-.074-.004-.01-.008-.018-.003-.009a1 1 0 0 1-.052-.206l-.001-.009-.003-.034v-.027c-.004-.233.115-.458.367-.71.45-.45.713-1.109.713-1.109s.007-.028.022-.067a1 1 0 0 1 .035-.083l.002-.004.03-.053.008-.012.047-.06a.23.23 0 0 1 .09-.06l.004-.002.019-.005h.001l.022-.003h.012l.029.002q.061.01.112.068a.3.3 0 0 1 .053.079l.006.014.016.038a.6.6 0 0 1 .032.221.7.7 0 0 1-.043.208l-.007.018a.5.5 0 0 1-.041.082l-.029.044-.006.01a.8.8 0 0 1-.173.174 1 1 0 0 0-.093.08c-.082.087-.101.163-.083.22a.14.14 0 0 0 .032.053l.002.003.003.003.01.009.003.002.025.017.008.004.03.011.008.003.003.001.005.001.005.001.004.001.005.001.004.001.01.002h.009l.003.001h.053l.007-.002h.005a.3.3 0 0 0 .064-.018l.009-.003.014-.007a.3.3 0 0 0 .063-.044l.008-.007.004-.004.007-.007a.3.3 0 0 0 .045-.064q.161-.291.337-.575l.016-.025.016-.026.024-.039.008-.013.084-.127.016-.025.1-.143.017-.023q.054-.075.112-.146l.015-.018.008-.01.015-.017.008-.008.014-.017.008-.008.021-.023.015-.014a.6.6 0 0 1 .091-.076l.008-.005.022-.013c.13-.074.237-.08.298-.018q.057.057.057.186v.027l-.002.015-.001.013v.004l-.002.011v.004l-.003.015-.002.015-.001.008a.2.2 0 0 1-.021.064.6.6 0 0 1-.066.113l-.053.072-.009.011-.094.111-.01.012-.043.046-.01.012-.022.023-.022.024-.023.024-.023.024-.023.023-.046.048c-.222.228-.455.454-.535.596l-.014.028a.1.1 0 0 0-.013.066l.006.016a.1.1 0 0 0 .026.03.1.1 0 0 0 .056.016h.019l.005-.002h.002l.005-.001h.001l.006-.002h.002l.005-.002.007-.002a.3.3 0 0 0 .05-.02l.007-.003.051-.03.008-.005.007-.005.007-.005.004-.002.01-.008.029-.02.015-.012.057-.047.011-.01.001-.001.006-.005.037-.035.005-.004.01-.01.006-.006.002-.002h.001l.006-.007.005-.004.002-.002.002-.002.001-.001.002-.002.011-.01.006-.005.01-.01.008-.006.004-.003.008-.007.011-.01.006-.006.086-.073.014-.012.022-.019.023-.019.097-.08.022-.017.06-.046.024-.02.061-.046q.07-.054.144-.106l.021-.014.044-.03.014-.01.08-.052.012-.008.014-.008.04-.024.012-.008.026-.015.026-.015.005-.003.02-.011.026-.013.012-.007.012-.006.013-.006a1 1 0 0 1 .107-.046l.023-.008.019-.006.002-.001.01-.003h.001l.021-.006.087-.011h.022l.008.002h.002l.007.001q.005 0 .008.002l.008.002a.14.14 0 0 1 .056.03l.002.002.003.003.002.002a.3.3 0 0 1 .054.079l.002.005q.007.016.011.033a.2.2 0 0 1-.009.106l-.018.04a.5.5 0 0 1-.06.079l-.005.005-.023.023-.01.01-.012.01-.006.006-.07.058a2 2 0 0 1-.159.111l-.152.097-.354.213-.033.02-.102.063-.016.01-.03.02-.061.04-.017.01-.023.015-.008.005-.024.016-.012.009-.015.01-.013.01-.064.046-.007.005-.08.066-.007.006-.011.01-.008.008-.004.003-.022.025-.004.004-.021.027-.003.004-.016.027-.003.005-.002.005v.002l-.002.003v.003l-.008.029v.035l.002.006v.006l.002.006.004.011.003.007v.002l.002.004.003.006.01.018.003.007.004.006.002.003.001.001.002.001.001.001.007.004h.004c.031.008.096-.018.182-.064l.016-.008.026-.014.013-.007.028-.016.017-.01c.114-.065.25-.15.39-.232l.04-.023.027-.017.211-.115.027-.013.15-.07.018-.007h.003a.7.7 0 0 1 .256-.063q.022 0 .046.004.008 0 .014.003h.001a.14.14 0 0 1 .106.1l.005.015a.2.2 0 0 1-.004.126"/>
    <path fill="#FFD21E" fill-rule="evenodd" d="M12.113 7.764v-.027a4.144 4.144 0 1 0-8.288 0v.106l.001.021.001.025v.008l.002.026v.002l.001.03.002.031q0 .015.002.029v.002l.001.024v.002l.002.024v.002l.002.013.011.118v.003l.004.029.003.03.003.02.001.01.01.067v.002l.003.02q.024.15.058.299l.002.008.005.021.003-.003a.62.62 0 0 1 .486-.223q.234 0 .473.152c.106.067.222.185.342.335a.68.68 0 0 1 .548-.293c.407 0 .652.353.744.67.046.107.266.596.599.926.505.505.631 1.026.381 1.583l.052.005.03.003h.005l.022.002.02.002.06.004.016.001h.013l.008.001.024.002h.007l.025.001.029.001h.027l.014.001h.005l.097.002h.059l.018-.001h.056l.03-.002.031-.001.027-.002h.01l.015-.001h.015l.03-.003.028-.002.027-.002.019-.002.02-.002.103-.01.023-.003c-.246-.555-.118-1.074.385-1.576.331-.332.552-.82.598-.927.092-.318.337-.67.744-.67a.68.68 0 0 1 .548.293c.12-.15.236-.269.342-.336a.9.9 0 0 1 .473-.152c.17 0 .324.062.441.175l.006-.027.006-.028.007-.03.01-.054.01-.057.002-.01.003-.018.005-.028V8.4l.005-.025.004-.025.007-.056.001-.004.004-.026.002-.023.005-.044.002-.017v-.005l.004-.029.002-.023.01-.151.002-.028V7.94l.003-.054v-.028l.001-.017v-.027l.001-.022zm-5.172 4.14c.328-.481.305-.842-.145-1.293s-.713-1.108-.713-1.108-.098-.382-.32-.347c-.224.035-.388.606.08.956.467.35-.093.587-.273.259s-.67-1.172-.925-1.333-.434-.071-.374.261c.03.165.307.447.566.71.263.268.507.515.455.603-.104.175-.469-.204-.469-.204s-1.141-1.04-1.39-.769c-.229.25.124.462.669.789l.143.086c.623.377.671.477.583.62-.033.052-.241-.073-.498-.227-.437-.263-1.014-.609-1.095-.3-.07.27.354.433.738.582.32.124.614.238.57.392-.044.16-.286.027-.55-.119-.298-.164-.624-.343-.73-.14-.202.382 1.39.832 1.402.835.514.133 1.82.416 2.276-.253m2.115 0c-.329-.481-.305-.842.145-1.293s.713-1.108.713-1.108.097-.382.32-.347c.224.035.387.606-.08.956s.093.587.273.259.67-1.172.925-1.333c.254-.162.434-.071.373.261-.03.165-.306.447-.566.71-.262.268-.506.515-.454.603.104.175.468-.205.468-.205s1.142-1.039 1.39-.768c.23.25-.124.462-.668.789l-.143.086c-.623.377-.671.476-.583.619.033.053.241-.072.498-.226.437-.263 1.014-.61 1.095-.3.07.269-.354.433-.739.582-.32.124-.613.238-.57.392.045.16.287.026.552-.12.297-.163.622-.342.729-.14.201.383-1.39.832-1.403.836-.514.133-1.82.416-2.275-.253" clip-rule="evenodd"/>
    <path fill="#32343D" fill-rule="evenodd" d="M9.315 6.61c.065.022.113.092.159.158.061.09.119.173.207.126a.596.596 0 1 0-.806-.247c.04.077.131.04.227.002.075-.03.153-.061.213-.04m-2.81 0c-.064.022-.112.092-.158.158-.062.09-.12.173-.208.126a.596.596 0 1 1 .807-.247c-.04.077-.132.04-.227.002-.076-.03-.154-.061-.214-.04M8.88 9.165c.446-.351.61-.924.61-1.277 0-.279-.188-.19-.489-.042l-.017.008c-.275.137-.642.319-1.045.319s-.77-.182-1.046-.319c-.31-.153-.505-.25-.505.034 0 .364.174.962.652 1.31a1.04 1.04 0 0 1 .633-.536c.048-.014.097.068.147.152.048.081.098.164.148.164.054 0 .107-.082.159-.161.053-.084.106-.165.157-.149.255.082.47.26.596.497" clip-rule="evenodd"/>
    <path fill="#FF323D" d="M8.88 9.166c-.232.183-.54.305-.941.305a1.5 1.5 0 0 1-.9-.273 1.04 1.04 0 0 1 .634-.535c.093-.028.193.316.295.316.11 0 .216-.342.316-.31.255.082.47.26.596.497"/>
    <path fill="#FFAD03" fill-rule="evenodd" d="M5.44 7.105a.387.387 0 1 1-.43-.643.387.387 0 0 1 .43.643m5.547 0a.387.387 0 1 1-.43-.643.387.387 0 0 1 .43.643" clip-rule="evenodd"/>
</svg>
