<svg xmlns="http://www.w3.org/2000/svg" width="16" height="16" fill="none" viewBox="0 0 16 16">
    <g clip-path="url(#a)">
        <path fill="#0081FB" d="M2.512 9.42c0 .535.118.944.27 1.192a.93.93 0 0 0 .808.462c.394 0 .755-.097 1.45-1.059.557-.77 1.213-1.848 1.655-2.53l.748-1.147c.52-.797 1.12-1.684 1.81-2.286.562-.489 1.17-.761 1.78-.761 1.026 0 2.004.594 2.751 1.708.819 1.22 1.217 2.756 1.217 4.342 0 .943-.185 1.636-.502 2.183-.305.529-.903 1.058-1.905 1.058v-1.508c.858 0 1.07-.788 1.07-1.69 0-1.285-.3-2.711-.96-3.73-.469-.723-1.076-1.165-1.745-1.165-.723 0-1.305.545-1.959 1.516-.347.516-.704 1.145-1.105 1.855l-.44.778c-.887 1.57-1.111 1.928-1.554 2.518-.775 1.037-1.438 1.426-2.311 1.426-1.036 0-1.69-.448-2.094-1.123C1.163 10.909 1 10.187 1 9.364z"/>
        <path fill="url(#b)" d="M2.192 5.105c.694-1.067 1.694-1.814 2.842-1.814.664 0 1.325.194 2.015.76.754.615 1.558 1.628 2.562 3.298l.36.599c.868 1.446 1.363 2.189 1.652 2.54.372.45.633.584.97.584.859 0 1.072-.788 1.072-1.69l1.334-.042c0 .943-.186 1.636-.503 2.183-.302.53-.9 1.059-1.902 1.059-.624 0-1.176-.135-1.786-.71-.47-.443-1.018-1.227-1.44-1.933L8.112 7.844c-.63-1.052-1.208-1.836-1.542-2.189-.36-.384-.823-.845-1.56-.845-.598 0-1.105.419-1.53 1.06z"/>
        <path fill="url(#c)" d="M5.01 4.81c-.598 0-1.105.419-1.53 1.06-.6.905-.968 2.253-.968 3.55 0 .535.118.944.27 1.192l-1.288.847C1.163 10.909 1 10.187 1 9.364c0-1.496.41-3.055 1.192-4.259.694-1.067 1.694-1.814 2.842-1.814z"/>
    </g>
    <defs>
        <linearGradient id="b" x1="4.035" x2="13.675" y1="7.696" y2="8.183" gradientUnits="userSpaceOnUse">
            <stop stop-color="#0064E1"/>
            <stop offset=".4" stop-color="#0064E1"/>
            <stop offset=".83" stop-color="#0073EE"/>
            <stop offset="1" stop-color="#0082FB"/>
        </linearGradient>
        <linearGradient id="c" x1="3.017" x2="3.017" y1="10.052" y2="6.501" gradientUnits="userSpaceOnUse">
            <stop stop-color="#0082FB"/>
            <stop offset="1" stop-color="#0064E0"/>
        </linearGradient>
        <clipPath id="a">
            <path fill="#fff" d="M1 1h14v14H1z"/>
        </clipPath>
    </defs>
</svg>
