<svg xmlns="http://www.w3.org/2000/svg" width="550" height="550" fill="none" viewBox="0 0 550 550">
    <path fill="#fff" d="M303.101 112.6h-.2l-.5-.2-15.7-5.7c-.3-.1-.5-.5-.4-.8s.5-.5.8-.4l16.3 5.9c.3.1.5.5.4.8 0 .3-.3.4-.6.4zm149.3 209.5h-.2l-1.3-.5c-.3-.1-.5-.5-.4-.8s.5-.5.8-.4l.5.2.8.3c.3.1.5.5.4.8 0 .3-.3.4-.6.4m-88.3-139.9h-.2l-9.5-3.5c-.3-.1-.5-.5-.4-.8s.5-.5.8-.4l9.5 3.5c.3.1.5.5.4.8 0 .3-.3.4-.6.4m-192.7-85h-.2c-.3 0-.6-.4-.5-.7 0-.4.4-.6.7-.6h.2c.3.1.5.5.4.8 0 .3-.3.5-.6.5"/>
    <path fill="#fff" d="M171.101 97.2c-.6-.2-1.3-.3-1.8-.4l.2-1.3c.6 0 1.3.2 2 .4l-.3 1.3zm.8.2c-.2 0-.5-.1-.7-.2l.3-1.3c.2 0 .5.1.7.2l-.4 1.2zm-3.601-.7h-.7c-.4 0-.7-.3-.7-.6 0-.4.3-.7.6-.7h.8c.4 0 .6.3.6.7 0 .3-.3.6-.6.6m146.001 243.8c-.2 0-.3 0-.5-.2-.3-.3-.3-.7 0-.9 0 0 .1-.2.2-.3.1-.3.5-.5.9-.3.2.1.4.3.4.6v.3c-.1.2-.3.5-.4.6s-.3.2-.5.2zm-3.1 1.6v-1.3h.3l.6 1.2c-.3.1-.5.2-.9.2zm-45.8 7.9h-1.3c-1 0-2.2-.3-3.4-.6-1.6-.4-3.1-.9-4.6-1.6l-.6-.3c-1.6-.7-3.1-1.6-4.7-2.6-2.1-1.4-4.1-2.9-6-4.7-5-4.7-9.3-10.7-12.8-17.8-.8-1.7-1.6-3.5-2.3-5.3-.5-1.3-1-2.6-1.4-3.8l-.9-2.7c-1.5-5.7-.8-10.1-.5-11.4-.5-.5-.9-1-1.4-1.4-2.9-3.2-5.2-6.3-6.7-9.4-4.8-9.6-.8-14.8-.7-15.1.1-.2.3-.2.5-.3.2 0 .4 0 .5.2.3.4.7.8 1.1 1.2.2.2.2.4.1.6-.6 2.3-.9 6.1 1.8 11.4 1.5 2.9 3.7 6 6.5 9.1.5.5 1 1.1 1.6 1.7.2.2.2.4.2.6 0 0-1.2 4.8.5 11.1.2.9.5 1.8.8 2.6.4 1.2.9 2.5 1.4 3.8.7 1.8 1.5 3.5 2.3 5.2 3.4 7 7.6 12.9 12.5 17.5 1.8 1.7 3.8 3.2 5.8 4.6 1.5 1 3 1.8 4.5 2.5l.7.3c1.4.7 2.9 1.2 4.4 1.5 1.1.3 2.2.5 3.2.5q2.25.15 3.9-.3c.3 0 .6 0 .8.3s0 .6-.2.8c-1.4 1.2-3.3 1.8-5.6 1.8m-46.7-75.3c-.8 1.6-2.3 6 1.2 13 1.5 2.9 3.7 6 6.5 9.1.5.5 1 1.1 1.6 1.7.2.2.2.4.2.6 0 0-1.2 4.8.5 11.1.2.9.5 1.8.8 2.6.4 1.3.9 2.5 1.4 3.8.7 1.8 1.5 3.5 2.3 5.2 3.4 7 7.6 12.9 12.5 17.5 1.8 1.7 3.8 3.2 5.8 4.6 1.5 1 3 1.8 4.5 2.5h.1l.6.3c1.4.7 2.9 1.2 4.4 1.5 1.1.3 2.2.5 3.2.5h1.6c-.9-.1-1.9-.3-2.9-.5-1.6-.4-3.1-.9-4.6-1.6h-.3c0-.2-.2-.2-.3-.3-1.6-.8-3.1-1.7-4.7-2.7-2.1-1.4-4.1-2.9-6-4.7-5-4.7-9.3-10.7-12.8-17.8-.8-1.7-1.6-3.5-2.3-5.3-.5-1.3-1-2.6-1.4-3.8q-.45-1.2-.9-2.7c-1.5-5.7-.8-10.1-.5-11.4-.5-.5-.9-1-1.4-1.4-2.9-3.2-5.2-6.3-6.7-9.4-2.7-5.4-2.6-9.5-2-12l-.3-.3z"/>
    <path fill="#fff" d="M267.601 348.8h-1.3c-1 0-2.2-.3-3.4-.6-1.6-.4-3.1-.9-4.6-1.6l-.6-.3c-1.6-.8-3.1-1.6-4.7-2.6-2.1-1.4-4.1-2.9-6-4.7-5-4.7-9.3-10.7-12.8-17.8-.8-1.7-1.6-3.5-2.3-5.3-.5-1.3-1-2.6-1.4-3.8l-.9-2.7c-1.5-5.7-.8-10.1-.5-11.4-.5-.5-.9-1-1.4-1.4-2.9-3.2-5.2-6.3-6.7-9.4-2.8-5.7-2.6-9.9-1.9-12.4 0-.2.2-.4.5-.5.2 0 .5 0 .6.2 2.8 3.1 6.8 6.5 10.5 9.1.8.6 1.6 1 2.3 1.2.9.3 1.7.4 2.3.2l2.3-1.2c.4-.2.6-.5.6-.8 0-.6 0-1.1-.2-1.6-.2-.6-.4-1.2-.8-1.7-.6-.8-1.3-1.4-2.3-1.9l-.5-.3c-5.1-2.7-12.2-7.8-15.2-19.8-1.7-6.8.6-10.2 2.9-11.9h.2c.9-.3 1.6-.5 1.9-.5l1.7-.9c-.3-1-.9-3.4-1.3-6.1-.7-5.4 0-9.2 2.1-11.2 0 0 .2-.1.3-.2.7-.2 1.4-.2 2.2-.2h.9c12.4 1.5 20.6 14.9 21.5 21.7.9 6.9 1.8 8.3 4.1 9 .7.2 1.2.3 1.5.2h.1l2.3-1.2c.6-.4 1.3-2.5-1.7-12.1-4-12.8-16.5-21.1-16.6-21.2 0 0-.2-.1-.2-.2 0 0-.2-.4-.4-.9-.7-1.9-2-6.7 1.8-9.6h.2c1.9-.7 4.3-1.1 7.3-1 .4 0 .6.3.6.6v13.4l23.8 15.2q.3.15.3.6v27.3c-.1.2-.3.4-.5.6q-.3.15-.6 0l-.3-.2c-.2 0-.4-.2-.5-.3-6.1-3.1-12-3.5-16.5-1.1h-.5c-1.4-.5-2.8-1.1-4.4-2-.1 0-.2-.1-.4-.2h-.2c-3-1.8-5.6-4-7.9-6.8-2.8-3.4-4.1-6.3-4.1-6.4-.7-1.6-2.1-2.7-3.1-2.7h-.4l-2.2 1.2c-.6.3-.6 1.2-.2 2.2.1.3 3.2 7.6 10.4 13.8 1.1.9 2.3 1.8 3.5 2.6.2.1.4.4.3.7-.2 1.3-.6 2.4-1.2 3.1-.1.2-.3.2-.5.3h-.8l-2.1 1.2c-.6.2-.7 1.1-.3 2.1.3.8.8 1.5 1.5 2 .2.2.4.3.7.5.2 0 .3.1.5.2.3 0 .5.4.4.8-.5 2-.8 4.2-.8 6.6 0 6.2 1.7 12.9 5 19.5.1.3 0 .6-.2.8s-.6.2-.8 0c-1.8-1.5-3.1-2.3-4-2.8-.6-.3-1.1-.4-1.4-.2l-2.3 1.2c-.2.2-.3.6-.3.8 0 1.3 1 2.9 2.3 3.6 0 0 2.7 1.5 5.7 4.7.9 1 1.8 2.1 2.6 3.3q2.25 3.3 3.6 7.2 1.05 2.85 1.5 6c.2 1.2 1.2 2.5 2.2 3 .1 0 .3.1.4.2.3.1.6.1.8 0l2.2-1.2c.4-.2.5-.7.4-1.4-.6-3.4-1.5-6.8-2.9-9.9v-.5c0-.2.3-.3.5-.4.2 0 .4 0 .6.2 2.9 2.7 6 4.8 9.2 6.3 1.3.6 2.7 1.1 4 1.5.3 0 .5.3.5.6v6.7c.2 3.9.4 9.4-2.6 12.3-.1.1-.2.2-.4.3 0 0-.1 0-.2.1-.9.3-2 .4-3.2.4zm-47.6-72.6c-.4 2.3-.2 5.8 2.1 10.3 1.5 2.9 3.7 6 6.5 9.1.5.5 1 1.1 1.6 1.7.2.2.2.4.2.6 0 0-1.2 4.8.5 11.1.2.9.5 1.8.8 2.6.4 1.2.9 2.5 1.4 3.8.7 1.8 1.5 3.5 2.3 5.2 3.4 7 7.6 12.9 12.5 17.5 1.8 1.7 3.8 3.2 5.8 4.6 1.5 1 3 1.8 4.5 2.5h.1l.6.3c1.4.7 2.9 1.2 4.4 1.5 1.1.3 2.2.5 3.2.5q2.25.15 3.9-.3l.2-.2c2.6-2.6 2.4-7.6 2.3-11.3v-6.2c-1.2-.4-2.5-.8-3.7-1.4q-3.9-1.8-7.5-4.8c.9 2.5 1.6 5.1 2 7.7.2 1.3-.2 2.3-1.1 2.7l-2.3 1.2h-.2c-.5.2-1 .2-1.6 0-.2 0-.4-.1-.6-.2-1.5-.7-2.7-2.4-2.9-4-.3-2-.8-3.9-1.5-5.8-.9-2.5-2-4.8-3.5-6.9-.8-1.1-1.6-2.2-2.5-3.1-2.8-3.1-5.3-4.5-5.3-4.5-1.7-.9-3-3-3-4.7 0-.9.4-1.5 1-1.9l2.3-1.3c.7-.4 1.6-.3 2.6.1h.1c.6.3 1.3.7 2 1.2-2.6-5.9-4-12-4-17.6s.2-4.4.7-6.3h-.2l-.9-.6c-.8-.7-1.5-1.6-1.8-2.6-.6-1.7-.3-3.2.9-3.7l2.1-1.2h.1c.2 0 .5-.1.8-.2.3-.5.6-1.2.7-1.9-1.2-.8-2.3-1.6-3.3-2.5-7.4-6.4-10.6-13.9-10.8-14.2-.7-1.7-.4-3.4.8-3.9l2.2-1.2c.3-.1.6-.2.9-.2 1.6 0 3.5 1.5 4.3 3.5 0 0 1.2 2.9 3.9 6.1 2.2 2.6 4.8 4.8 7.6 6.4h.2c.1.2.2.2.3.3q2.1 1.2 3.9 1.8c4.8-2.4 11-2 17.3 1.1v-25.8c.1 0-23.7-15.2-23.7-15.2-.2-.1-.3-.3-.3-.5v-13.1c-2.4 0-4.5.3-6.1.9-3.1 2.4-2 6.4-1.3 8.1.1.3.2.5.3.7 1.5 1 13.1 9.2 17 21.8 3.3 10.5 2.4 12.8 1.1 13.6l-2.2 1.2s-.2.1-.3.2c-.8.3-1.7 0-2.4-.2-3.2-1.1-4.1-3.6-5-10.1-.8-6.3-8.8-19.2-20.4-20.5h-.8c-.6 0-1.1 0-1.7.1-2.1 2.2-2 6.6-1.6 9.9.5 3.5 1.4 6.4 1.4 6.4 0 .3 0 .6-.3.8l-2.2 1.2h-.2s-.7 0-1.6.4c-2.7 2.1-3.5 5.7-2.3 10.5 2.9 11.5 9.7 16.3 14.6 18.9l.5.3c1.2.6 2.1 1.4 2.8 2.3.5.7.8 1.4 1 2.1.2.6.3 1.3.3 2s-.5 1.5-1.3 1.9l-2.3 1.2c-1 .4-2.1.4-3.3-.1-.8-.3-1.6-.8-2.6-1.4-3.4-2.4-7.1-5.4-9.9-8.3zm62.899-.4c-.2 0-.3 0-.5-.2-.7-.7-1.4-1.4-2.2-2.1-.1-.1-.2-.3-.2-.5v-28c-.1-.2 0-.5.2-.6s.5-.1.7 0l2.2 1.4c.2.1.3.3.3.5V275q.15.45-.3.6h-.2zm-1.6-3.1.9.9v-26.7c-.1 0-1.1-.6-1.1-.6v26.5zm13.001 91.6h-.3c-.4-.2-.8-.5-1.3-.8-1.1-.7-2.2-1.5-3.2-2.3-3-2.4-5.2-5-6.8-7.9-2.9-5.4-2.7-10.5-2.5-14.2v-9.5c0-.3.2-.6.5-.6.7-.1 1.4-.3 2.1-.5h.6c.2 0 .3.3.3.5v8.9c-.2 3.6-.4 8.5 2.3 13.6 1.4 2.7 3.6 5.2 6.4 7.5q.9.75 2.1 1.5c.2.1.3.3.3.5v2.6q0 .3-.3.6h-.3zm-12.7-34.3v9.1c-.2 3.6-.4 8.5 2.3 13.6 1.4 2.7 3.6 5.2 6.4 7.5 1 .8 2 1.5 3.1 2.2 0 0 .2.1.2.2v-1.1c-.7-.5-1.3-.9-1.9-1.4-2.9-2.4-5.2-5-6.7-7.9-2.9-5.4-2.7-10.5-2.5-14.3v-8c-.3 0-.6.1-1 .2zm31.499-67h-.2s-5.6-2.1-10.1-.5h-.2c-.3 0-.5-.2-.6-.4s0-.6.2-.7c3.8-2.9 9.1-2 11.9-1.2.3 0 .5.4.5.8-.1.5-.3 1-.5 1.3s-.4.6-.5.6c-.1.1-.3.2-.4.2zm-4.5-2.3c1.9.2 3.5.7 4.2.9l.2-.4c-1.1-.3-2.7-.5-4.4-.5"/>
    <path fill="#fff" d="M294.3 361.7c-.1 0-.3 0-.4-.1-.8-.5-1.5-1.1-2.2-1.6-3-2.4-5.2-5-6.8-7.9-2.9-5.4-2.7-10.5-2.5-14.2V329c0-.3.2-.5.4-.6 1.3-.4 2.5-1 3.5-1.8l3.4-2.6c.2-.1.5-.2.7 0 .2 0 .4.3.4.5.4 5.7 3.7 10.7 6.3 14 .2.2.2.6 0 .8-1.7 1.9-2.9 4.6-3.5 8-.1.7.3 1.7.9 2.5.1.1.2.3.2.4v11c0 .2-.1.5-.3.6h-.3zm-10.5-32.2v8.5c-.2 3.6-.4 8.5 2.3 13.6 1.5 2.7 3.6 5.2 6.4 7.5.3.3.7.6 1.1.8v-9.5c-.8-1-1.2-2.3-1-3.4.6-3.3 1.8-6.1 3.5-8.1-2.5-3.2-5.4-7.8-6.1-13.1l-2.6 2c-1.1.7-2.2 1.3-3.4 1.8zm39.502 23.1h-.1l-22.5-5.1c-.2 0-.3-.1-.4-.3 0-.2-.1-.3 0-.5.3-1 .6-1.9 1-2.6.7-1.4 1.6-2.5 2.6-3.3 0 0 .1 0 .2-.1.3-.1.7-.2 1-.3 2.9-.6 5.4.4 5.4.4.2 0 .4.1.5 0h.3l2.2-1.2h.1s.1-.2.2-.3v-.6c0-1.1-.9-2.5-2-2.9-2.4-1-6.1-1.4-9.3.1-.3.1-.6 0-.8-.2-1.9-2.2-5.1-6.7-5-11.6 0-1.2-.9-2.6-2.1-3.1-.2 0-.3-.1-.5-.2-.2 0-.4-.2-.5-.4v-.6c1.8-3 2.8-7 2.8-11.5s-1.3-10.9-3.7-16.5c-.1-.3 0-.6.2-.8.3-.2.6-.1.8 0q3.3 3.3 7.8 5.7c.2.1.3.3.3.5.3 2.7 1.4 7.9 5.2 12 .2.2.4.5.7.7q.45.45.9.6c.2 0 .3.1.5.1h.6l2.2-1.2c.1 0 .2-.2.3-.3.4-.7 0-2.2-1-3.2-1.4-1.4-2.5-3.3-3.1-5.6 0-.2 0-.4.1-.6s.4-.2.6-.2h.6c3.5.4 5.8-.7 7.2-1.7h.2c2.5-1 3.7-2.7 3.7-2.7.4-.6.2-2.1-.9-3.2-.7-.8-1.5-1-1.9-.8h-.2l-2.1 1.2c-.1 0-.2.1-.3.2 0 0-.4.5-.9 1 0 0-.1 0-.2.1-.2 0-.4.1-.6.2-2.2.5-4.7.2-7.4-1-.2 0-.3-.1-.5-.2-8.1-3.7-10.3-8.2-10.3-8.3-.6-1.5-2-2.3-2.8-2.2h-.3l-2.2 1.2s-.1 0-.2.2c0 0 0 .1-.1.2 0 .2-.3.4-.5.4s-.5 0-.6-.3c-1.9-2.9-4.1-5.7-6.4-8.1-.1-.1-.2-.3-.2-.5v-28.7c-.1-.2 0-.3 0-.5s.3-.2.5-.2c.1 0 .2 0 .4.1l2.4 1.5 7.8-16.8c0-.2.3-.3.5-.4.2 0 .4 0 .6.1 2.6 2.3 5.7 5.3 9.1 9 11.4 12.2 11.9 18.7 11.2 21.4 0 .2-.2.3-.3.4-.2 0-.3.1-.5 0-2.1-.6-7.3-1.6-10.8 1h-.2c-2.1.8-3.6 2.2-4.5 4.3-4.1 9.3-1.1 11.3.5 12.4.8.5 1.3.7 1.6.6h.1l2.2-1.2c.7-.4 1.2-2.9 1.5-5 .3-1.9 1.3-3.6 2.7-4.8 0 0 .1 0 .2-.1 2.4-.8 7.6-1.1 14.7 5.7l.8.8c5.7 5.9 6.1 12.7 5.4 17.3-.3 2.2-.9 3.8-1.1 4.5 1.4 1.7 7.9 10.4 5.6 18.1-.7 2.3-1.8 4.1-3.1 5.2 0 0-.1.1-.2.1-2.2.6-4.8.3-8.1-1.1l-.5-.2c-.5-.2-1.2-.5-1.7-.2l-2.2 1.2c-.2.1-.4.3-.5.6-.2.5-.2 1.1-.2 1.3 0 .6.9 2.7 3.1 3.9.6.4 1.3.6 2 .8 3.6.9 7.4 1.1 9.7.4.3 0 .7 0 .8.4.1.3 3.4 8.3-.7 13.3-.4.5-.9.9-1.4 1.3h-.2c-.7.3-1.4.5-2.2.6-.4 0-.9.2-1.3.2l-1.7.9c.2 1.3.6 4.8 0 8.3 0 .2-.1.3-.3.4-.1 0-.2.1-.4.1zm-21.6-6.2 21.1 4.8c.6-3.8-.1-7.6-.2-7.6 0-.3 0-.6.3-.7l2.2-1.2h.2c.5 0 .9-.1 1.3-.2.7-.1 1.3-.3 1.9-.5.4-.3.8-.7 1.1-1.1 3.1-3.6 1.3-9.6.7-11.4-2.5.6-6.2.4-9.8-.5-.8-.2-1.6-.5-2.3-.9-2.6-1.5-3.7-4.1-3.7-5.1s0-1.1.2-1.7.6-1.1 1.1-1.4l2.2-1.2c.8-.4 1.7-.3 2.8.2l.4.2c3 1.3 5.3 1.6 7.2 1.1 1.1-1 2-2.5 2.6-4.5 2.4-7.8-5.5-17.1-5.6-17.2-.2-.2-.2-.5-.1-.7 0 0 .8-1.8 1.2-4.6.6-4.3.2-10.6-5.1-16.2l-.7-.7c-6.5-6.2-11.1-6.1-13.3-5.4-1.2 1-1.9 2.4-2.2 3.9-.6 3.8-1.1 5.4-2.2 6l-2.2 1.2h-.2c-1 .4-2.1-.1-2.9-.7-2.9-2-5-5-1-14 1.1-2.4 2.8-4.1 5.2-5 3.5-2.6 8.3-2.1 11.2-1.4.4-2.8-.8-8.8-11-19.6-3.1-3.4-5.9-6.2-8.3-8.4l-7.7 16.7c0 .2-.2.3-.4.4h-.5l-2-1.3v27.2c2.3 2.2 4.3 4.7 6.1 7.3 0 0 .2-.1.2-.2l2.3-1.2h.1c.1 0 .3-.1.5-.1 1.5-.2 3.3 1.1 4.2 3 0 0 2.2 4.2 9.7 7.6.1 0 .3.1.4.2 2.5 1.1 4.8 1.4 6.6.9h.4l.6-.6c.2-.3.4-.5.7-.6l2.3-1.3c1.1-.4 2.4 0 3.4 1.1 1.4 1.5 1.8 3.6 1 4.8 0 0-1.4 2.1-4.2 3.2-1.5 1.1-4 2.2-7.7 1.9.6 1.7 1.4 3.1 2.4 4.1 1.4 1.4 2 3.5 1.3 4.8-.2.4-.5.6-.9.8l-2.2 1.2c-.4.2-.9.3-1.4.2-.3 0-.6-.1-.9-.2-.4-.2-.9-.5-1.2-.9-.3-.2-.5-.5-.7-.7-3.9-4.2-5.2-9.5-5.5-12.4q-3.15-1.65-5.7-3.9c1.8 4.9 2.7 9.8 2.7 14.4s-.9 8.3-2.6 11.5c1.6.7 2.8 2.6 2.8 4.3 0 4.2 2.6 8.1 4.4 10.3 4.4-1.8 8.6-.4 9.8 0 1.6.7 2.9 2.5 2.9 4.2v1.2c-.1.3-.3.5-.4.7l-.2.2h-.2c-.1.2-.2.2-.3.2l-2 1.1c-.3.1-.6.2-.9.2s-.6 0-.9-.1c-.1 0-.2 0-.3-.1 0 0-2.2-.8-4.6-.3-.3 0-.5.1-.8.2-.9.7-1.6 1.6-2.2 2.8-.3.5-.5 1.1-.7 1.8z"/>
    <path fill="#fff" d="M311.701 342c-.2 0-.5-.1-.6-.3-.2-.3 0-.7.3-.9s.4-.5.4-.7v-.4c0-.2 0-.5-.1-.7-.3-1-1.1-1.9-1.9-2.2-2.4-1-6.1-1.4-9.3.1-.3.1-.6 0-.8-.2-1.9-2.2-5.1-6.7-5-11.6 0-.8-.4-1.7-1-2.4-.2-.2-.4-.4-.6-.5-.2 0-.3-.3-.3-.4 0-.2 0-.4.1-.5.4-.5.8-1 1.1-1.6.1-.2.4-.3.7-.3s.5.1.8.3c1.6.7 2.9 2.6 2.8 4.4 0 4.2 2.6 8.1 4.4 10.3 4.4-1.8 8.6-.4 9.8 0 1.6.7 2.8 2.5 2.8 4.1v1.3c-.1.2-.3.4-.4.6l-.2.2c-.1 0-.2.1-.2.2-.1 0-.2 0-.3.1l-1.9 1.1zm-4.7-7.3c1.5.2 2.7.6 3.3.8 1.3.5 2.3 1.7 2.7 3.1.1.4.2.7.2 1.1v.1l.5-.2s.1-.1.1-.2l.6.2-.6-.3h.7l-.6-.1v-.4c0-1.1-.9-2.5-2-2.9-1.4-.5-3.1-.9-5-.9zm-12.5-13.1c.9.9 1.5 2.2 1.5 3.4 0 4.2 2.6 8.1 4.4 10.3.4-.2.8-.3 1.2-.4-1.9-2.4-4.7-6.6-4.6-11.1 0-1.2-.9-2.6-2.1-3.1-.2.3-.3.5-.5.8l.2.2z"/>
    <path fill="#fff" d="M314.1 340.7c-.3 0-.6-.2-.6-.5s0-.6.3-.7c.3-.2.7 0 .9.2.2.3 0 .7-.2.9 0 0-.3.1-.4.1m-19.799 10.1c-.2 0-.4 0-.5-.2-1-1.1-1.4-2.5-1.2-3.6.6-3.4 1.8-6.1 3.5-8.2-2.7-3.4-5.8-8.5-6.3-14.3 0-.2 0-.4.3-.6 1-.7 2-1.7 2.8-2.7.2-.3.6-.3.9-.2.3.2.6.4.8.7.9.9 1.5 2.2 1.5 3.4 0 4.2 2.6 8.1 4.4 10.3 4.4-1.8 8.6-.4 9.8 0 1.3.5 2.3 1.7 2.7 3.1.1.4.2.7.2 1.1v.6c-.1.7-.5 1.3-1.1 1.6-.3.1-.5.2-.9.2-.3 0-.6 0-.9-.1h-.3s-2.2-.8-4.6-.3c-.3 0-.6.1-.9.2-.5.2-.9.3-1.3.6-1.2.7-2.2 1.9-3 3.4-.1.3-.3.6-.4.9s-.4.5-.7.4l-4-.9v3.9c0 .3-.2.5-.4.6h-.2zm.2-6 4.3 1c0-.2.1-.3.2-.5.9-1.8 2.1-3.1 3.6-4 .4-.2.9-.5 1.4-.6.4-.1.7-.2 1-.3 2.9-.6 5.4.4 5.4.4h.9c.3-.2.4-.5.5-.7v-.4c0-.2 0-.5-.1-.7-.3-1-1.1-1.9-1.9-2.2h-.1c-2.3-.9-6-1.4-9.2.2-.3.1-.6 0-.8-.2-1.9-2.2-5.1-6.7-5-11.6 0-.8-.4-1.8-1.1-2.5 0 0-.1 0-.2-.1-.7.9-1.5 1.6-2.4 2.3.6 5.8 4.2 11 6.3 13.6.2.2.2.6 0 .8-1.3 1.4-2.3 3.3-3 5.6z"/>
    <path fill="#fff" d="M300.801 347.5h-.1l-1.7-.4c-.2 0-.3-.2-.4-.3 0-.2-.1-.4 0-.5.1-.4.3-.7.4-1 .9-1.8 2.1-3.1 3.6-4 .5-.3.9-.5 1.5-.7.3 0 .6 0 .8.3s0 .6-.2.8c-.9.7-1.7 1.7-2.3 2.9q-.6 1.05-.9 2.4c0 .3-.3.5-.6.5zm-.7-1.5h.3c.2-.6.4-1.2.7-1.7-.3.5-.7 1-.9 1.5v.2zm24.7-24.2c-2.1 0-4.2-.7-5.9-1.4l-.4-.2c-.3-.1-.6-.2-.8-.3h-.9c-.3.2-.7 0-.9-.3s0-.7.3-.9l2.2-1.2c.7-.4 1.7-.3 2.8.2l.4.2c3 1.3 5.4 1.6 7.2 1.1.3 0 .6 0 .8.3s0 .6-.2.8c-1.4 1.2-3 1.6-4.7 1.6zm-6.2-2.9s.2 0 .2.1h.3c0 .2.1.2.2.2 2.4 1 4.4 1.4 6 1.3-1.3-.2-2.7-.6-4.2-1.3l-.5-.2c-.7-.3-1.3-.4-1.7-.2h-.3zm-8.099-7.2c-.2 0-.5-.1-.6-.3-.2-.3 0-.7.3-.9.1 0 .2-.2.3-.3 0-.1.1-.2.1-.4v-.8c-.1-.7-.5-1.5-1.1-2.1-2.3-2.2-3.1-5.3-3.4-7.5 0-.2.1-.4.3-.5q.3-.15.6 0c.8.3 1.6.4 2.4.6.3 0 .5.2.5.5.5 2.1 1.5 3.8 2.7 5 1.4 1.4 2 3.5 1.2 4.8-.2.4-.5.6-.9.8l-2.2 1.2h-.3zm-3-11.5c.4 1.9 1.2 4.1 2.9 5.8.8.7 1.3 1.8 1.5 2.8v.8l.5-.2c.1 0 .2-.2.3-.3.4-.7 0-2.2-1-3.2-1.3-1.3-2.3-3.1-3-5.2-.4 0-.8-.2-1.2-.3zm9.998-1.3c-.2 0-.5-.1-.6-.3-.2-.3 0-.6.2-.8 1.1-.8 1.6-1.6 1.6-1.6.4-.6.2-2-.8-3.1-.4-.5-.8-.8-1.3-.9h-.7c-.3.2-.7 0-.9-.3s0-.7.3-.9l2.3-1.3c1.1-.4 2.4 0 3.4 1.1 1.4 1.5 1.8 3.6 1 4.8-.1.2-1.5 2.1-4.3 3.2h-.2zm.2-7.7c.4.2.8.5 1.1.9h.1c1 1.2 1.4 2.6 1.3 3.8.5-.5.7-.8.8-.9.4-.6.2-2.1-.9-3.2-.7-.8-1.5-1-1.9-.8l-.5.3z"/>
    <path fill="#fff" d="M309.8 311.9h-.3c-.3 0-.6-.1-.9-.2-.4-.2-.9-.5-1.2-.9l-.7-.7c-3.9-4.2-5.1-9.5-5.5-12.4-3-1.7-5.7-3.6-7.8-5.8 0 0-.1-.1-.1-.2-1.2-2.7-2.6-5.4-4.2-7.9q-.15-.3 0-.6c0-.1.2-.3.3-.5.2-.2.4-.4.6-.5s.4-.2.7-.2c.4 0 .9 0 1.3.1s.8.3 1.1.6c.7.6 1.3 1.3 1.7 2.2 0 0 2.1 4.2 9.7 7.6l.5.2q3.75 1.65 6.6.9c1.2-.3 2-.8 2.5-1.2s.7-.7.7-.7c.2-.3.4-.5.7-.6.5-.2 1-.3 1.6-.1.7.2 1.4.6 2 1.2v.1c1.3 1.5 1.7 3.5.9 4.7 0 0-.6 1-1.9 1.9-1.5 1.1-4.2 2.3-8.1 1.9h-.7c-.6 0-1.1-.2-1.7-.3.4 1.9 1.2 4.1 2.9 5.8.8.7 1.3 1.8 1.5 2.8v1.2c0 .3-.1.6-.3.8-.2.3-.4.6-.8.8-.3.2-.7.3-1.1.3zm-7.9-15.3c.2 0 .4.3.4.5.3 2.7 1.4 7.9 5.2 12 .2.2.4.5.7.7q.45.45.9.6c.2 0 .3.1.5.1h.6c.1 0 .2-.2.3-.3 0-.1.1-.2.1-.4v-.8c-.1-.7-.5-1.5-1.1-2.1-2.3-2.2-3.1-5.3-3.4-7.5 0-.2 0-.5.2-.6s.4-.2.7 0c.8.3 1.6.4 2.4.6h.6c3.5.4 5.8-.7 7.2-1.7 1.1-.8 1.6-1.6 1.6-1.6.4-.6.2-2-.8-3.1l.4-.5-.5.4c-.4-.4-.9-.7-1.3-.8h-.7c-.1 0-.2.1-.2.2 0 0-.4.5-.9 1-.8.7-1.9 1.2-3 1.5-2.2.5-4.7.2-7.4-1l-.5-.2c-8.1-3.7-10.3-8.3-10.3-8.3-.3-.7-.8-1.3-1.3-1.7-.3-.2-.5-.3-.8-.4-.3 0-.5-.1-.7 0h-.2s-.1 0-.2.1c1.5 2.4 2.9 5 4 7.6 2.1 2.1 4.7 4 7.7 5.6zm-9.598-14.5c-.2 0-.5-.1-.6-.4-.2-.3 0-.7.3-.9h.6c.2.1.4.3.4.5 0 .3-.2.5-.5.6h-.3z"/>
    <path fill="#fff" d="M309.6 295.1q-2.55 0-5.4-1.2c-.1 0-.3-.1-.5-.2-8.1-3.7-10.3-8.2-10.3-8.3-.3-.7-.8-1.3-1.3-1.7-.3-.2-.5-.3-.8-.4-.2 0-.4-.1-.6 0h-.3c-.3.2-.7 0-.9-.3s0-.7.3-.9l2.3-1.2c.2 0 .3-.1.5-.2 1.5-.2 3.3 1.1 4.1 3 0 0 2.2 4.2 9.7 7.6l.5.2q3.75 1.65 6.6.9c.2 0 .3 0 .5-.1.3 0 .6 0 .8.3s0 .6-.2.8q-1.35 1.05-3 1.5c-.7.2-1.3.2-2 .2m-17.4-12.9c.2.1.4.2.6.4.7.6 1.3 1.3 1.7 2.2 0 0 2.2 4.2 9.7 7.6.1 0 .3.1.4.2 2 .9 3.9 1.2 5.5 1.1-1.2-.2-2.5-.6-3.8-1.1l-.5-.2c-8.1-3.7-10.3-8.2-10.3-8.3-.6-1.5-2-2.3-2.8-2.2h-.2l-.4.2zm-48-9c-.2 0-.5-.1-.6-.4-.2-.3 0-.7.3-.9h.6c.2.1.3.3.3.5 0 .3-.2.6-.5.6h-.3z"/>
    <path fill="#fff" d="M242.001 274.3c-.2 0-.5-.1-.6-.4s0-.7.3-.9l2.2-1.2h.1c.3-.1.6-.2.9-.2h.2c.2 0 .5.1.6.4.1.2 0 .5 0 .7l-.9.9c-.4.2-.8.4-1.2.5h-1.6z"/>
    <path fill="#fff" d="M244.501 280.3h-.2c-.2 0-.5-.2-.7-.3l-.9-.6c-.8-.7-1.5-1.6-1.8-2.6-.6-1.7-.3-3.2.9-3.7.3-.1.6-.2.9-.2h.6c.3 0 .5-.2.7-.3q.3-.15.6-.6c.4-.5.7-1.3.9-2.2-1.1-.8-2.2-1.6-3.3-2.5-7.4-6.3-10.6-13.9-10.8-14.2-.7-1.7-.4-3.4.8-3.9.3-.1.5-.2.9-.2.3 0 .7 0 1.1.2.4.1.9.4 1.3.7.8.7 1.5 1.6 2 2.6 0 .1 1.2 2.9 3.9 6.1 2.2 2.6 4.8 4.8 7.6 6.4h.1c.1.1.2.2.4.3 1.6.8 3.1 1.5 4.4 2 .2 0 .4.3.4.5s0 .5-.3.6l-3.4 2.6c-2.6 2-4.5 5.1-5.5 9 0 .2-.2.3-.3.4h-.3zm-1.9-6.1h-.4c-.5.2-.6 1.1-.2 2.1.3.8.8 1.5 1.5 2 .2.2.4.3.5.4 1.1-3.8 3-6.8 5.7-8.9l2.5-1.9c-1.1-.4-2.3-1-3.5-1.6-.1 0-.2-.1-.4-.2h-.1c-3-1.7-5.6-4-7.9-6.7-2.8-3.3-4.1-6.3-4.1-6.4-.3-.8-.9-1.5-1.6-2-.3-.2-.6-.4-.9-.5-.2 0-.4-.1-.6-.1h-.3c-.5.2-.6 1.2-.2 2.2.1.3 3.3 7.6 10.4 13.8 1.1.9 2.3 1.8 3.5 2.6.2.1.4.4.3.7-.2 1.3-.6 2.4-1.2 3.1l-.9.9c-.4.3-.8.4-1.2.5z"/>
    <path fill="#fff" d="M253.701 268.4h-.2c-1.4-.5-3-1.2-4.6-2.1-.1 0-.3-.1-.4-.2h-.1c-3-1.7-5.6-4-7.9-6.7-2.8-3.3-4.1-6.3-4.1-6.4-.3-.8-.9-1.5-1.6-2-.3-.3-.6-.4-.9-.5-.2 0-.4-.1-.5 0h-.3c-.3.1-.7 0-.8-.3-.2-.3 0-.7.3-.9l2.2-1.2c.3-.1.6-.2.9-.2 1.6 0 3.4 1.5 4.2 3.5 0 .1 1.2 2.9 3.9 6.1 2.2 2.6 4.7 4.8 7.6 6.4h.2c.1.2.2.2.3.3 1.5.8 2.9 1.4 4.2 1.9.2 0 .4.3.4.6q0 .45-.3.6c-.6.3-1.2.7-1.7 1.1h-.2c-.1.2-.3.3-.4.3zm-19-19.1c.3.1.5.3.8.5.9.7 1.5 1.6 2 2.6 0 .1 1.2 2.9 3.9 6.1 2.2 2.6 4.8 4.8 7.6 6.4h.1c.1.1.2.2.4.3 1.5.8 2.9 1.4 4.1 1.9.2-.1.4-.3.6-.4-1-.4-2-.9-3.1-1.5-.1 0-.2-.1-.3-.2h-.2c-3-1.8-5.6-4-7.9-6.8-2.8-3.4-4.1-6.3-4.1-6.4-.7-1.6-2.1-2.7-3.1-2.7h-.3l-.4.2zm.8 36.8c-.2 0-.5-.1-.6-.4s0-.6.2-.8h.1c.3-.1.7 0 .8.3s0 .7-.3.8h-.3z"/>
    <path fill="#fff" d="M235.801 285.9q-.3 0-.6-.3c-.2-.3 0-.7.2-.9.3-.2.4-.4.4-.5v-1c0-.3 0-.6-.2-.9-.2-.6-.4-1.2-.8-1.7-.6-.8-1.3-1.4-2.3-1.9l-.5-.3c-5.1-2.7-12.2-7.8-15.2-19.8-2.4-9.3 2.9-12.3 5.2-13.2.3-.1.6 0 .8.3s0 .6-.2.8c-2.8 2.1-3.6 5.7-2.4 10.6 2.9 11.5 9.7 16.3 14.6 18.9.1 0 .3.1.4.2h.2c1.2.7 2.1 1.5 2.8 2.4.5.6.8 1.4 1 2.1.2.6.3 1.3.3 2s-.5 1.5-1.3 1.9l-2 1.1h-.3zm-16.7-36.8c-1.4 1.8-2.3 4.7-1.1 9.3 2.9 11.5 9.7 16.3 14.6 18.9l.5.3c1.2.6 2.1 1.4 2.8 2.3.5.7.8 1.4 1 2.1 0 .3.2.7.2 1v.7l.3-.2c.4-.2.6-.5.6-.8 0-.6 0-1.1-.2-1.6-.2-.6-.4-1.2-.8-1.7-.6-.8-1.3-1.4-2.3-1.9h-.1c-.1-.1-.3-.2-.4-.3-5.1-2.7-12.2-7.8-15.2-19.8-1-3.7-.7-6.5.1-8.5zm34 66c-.2 0-.4 0-.5-.3-4.3-5.9-8.7-8.7-10-9.4-.2 0-.3-.2-.5-.3-.2 0-.3-.1-.4-.2q-.6-.15-.9 0c-.3.1-.7 0-.9-.3s0-.7.3-.9l2.1-1.2c.7-.4 1.6-.3 2.6.1 1.3.7 2.7 1.7 4.2 2.9l.2.2c1.4 2.8 3.1 5.5 4.9 8 .1.2.2.4 0 .6 0 .2-.2.4-.4.4s-.5.1-.7.2h-.1zm-10.4-11.2h.2s.3.1.4.2c2.1 1.2 4.4 3.1 6.6 5.3-.6-1-1.1-2-1.6-3-1.7-1.4-3-2.2-3.9-2.7-.5-.3-1-.3-1.3-.1l-.3.2z"/>
    <path fill="#fff" d="M259.1 335.1c-.3 0-.6 0-.9-.1-.2 0-.4-.1-.6-.2-1.5-.7-2.7-2.4-2.9-4-.3-2-.8-3.9-1.5-5.8-.9-2.5-2-4.8-3.5-6.9-.8-1.1-1.6-2.2-2.5-3.1-2.8-3-5.2-4.4-5.3-4.5-1.7-.9-3-3-3-4.7 0-.9.4-1.5 1-1.9h.2c.6-.4 1.2-.4 1.9-.2.2 0 .4.1.5.2.2 0 .4.2.5.3 3.3 1.9 7.1 5.4 10 9.4h.2c.3 0 .5 0 .7.2 1.4 1.9 3 3.7 4.6 5.3.1.1.2.4.2.6s-.2.4-.4.5c-.3.2-.7.3-1.1.4 1.6 3.4 2.8 7.1 3.5 10.9v.2c0 .1 0 .3.1.4v1c-.1.7-.5 1.3-1 1.6-.1 0-.2 0-.2.1-.3.1-.6.2-.9.2zm-17.9-30.3h-.5q-.3.3-.3.9c0 1.3 1 2.9 2.3 3.6.1 0 2.8 1.6 5.7 4.7.9 1 1.8 2.1 2.6 3.3q2.25 3.3 3.6 7.2 1.05 2.85 1.5 6c.2 1.2 1.2 2.5 2.2 3 .1 0 .3.1.4.2h.9c.2-.1.3-.4.3-.6v-1.4c-.7-3.9-2-7.7-3.8-11.2v-.6c0-.2.2-.3.4-.4.3 0 .5-.2.7-.2-1.3-1.4-2.6-2.8-3.8-4.4h-.2c-.3 0-.5 0-.7-.3-4.3-5.8-8.7-8.7-10-9.4-.2 0-.3-.2-.5-.3 0 0-.2 0-.3-.1-.2 0-.4-.1-.5-.1z"/>
    <path fill="#fff" d="M259.801 335c-.3 0-.6-.2-.6-.5v-.3c0-.2.2-.4.4-.5.3 0 .7 0 .8.3s0 .7-.2.8c0 0-.2.1-.3.1z"/>
    <path fill="#fff" d="M259.901 334.9q-.3 0-.6-.3c-.2-.3 0-.7.2-.9.3-.2.3-.4.4-.7v-1.3c-.7-3.9-1.9-7.7-3.7-11.2v-.6c0-.2.2-.3.4-.4.6-.2 1.1-.4 1.6-.6.2-.1.5 0 .7.1.5.5.9.9 1.4 1.3l.2.2c1.4 3.3 2.5 6.7 3 10.2.2 1.3-.2 2.3-1.1 2.7l-2.1 1.1h-.3zm1.2-3.4v.2c0 .1 0 .3.1.4v.6l.5-.3c.4-.2.5-.7.4-1.4-.5-3.4-1.5-6.7-2.9-9.8-.3-.3-.7-.6-1-1-.2 0-.4.2-.6.2 1.6 3.4 2.8 7.1 3.5 10.9zm-37-85.2h-.2c-.2 0-.3-.2-.4-.4 0 0 0-.2-.2-.5 0-.3-.2-.7-.3-1.3-.3-1.1-.7-2.9-1-4.8-1-7.2.6-11.5 4.6-12.5.3 0 .6 0 .7.3s0 .6-.1.8c-2.2 2.1-2.2 6.6-1.7 10s1.4 6.4 1.4 6.4c0 .3 0 .6-.3.8l-2.2 1.2zm.7-17c-1.9 2.2-1.9 6.3-1.4 9.8.3 1.9.6 3.6.9 4.7 0 .4.2.7.3 1l1.1-.6c-.3-1-.9-3.3-1.3-6-.5-3.7-.3-6.6.5-8.7zM300.8 281q-.3 0-.6-.3c-.2-.3 0-.7.2-.9.1 0 .4-.3.6-.9.1-.3.2-.6.3-1.1q.3-1.2.6-3c.4-2.9 2.4-5.2 5.2-6.1.3 0 .6 0 .8.3.1.3 0 .6-.2.8-1.2 1-2 2.4-2.3 4-.6 3.7-1.1 5.3-2.1 5.9l-2.2 1.2h-.3zm3.9-9.1c-.7.9-1.2 2-1.4 3.1-.2 1.3-.4 2.3-.6 3.2 0 .2-.1.4-.2.6.8-.5 1.3-3.8 1.5-5 0-.6.2-1.2.5-1.7zm-47.298-13.3q-.3 0-.6-.3c-.2-.3 0-.7.2-.9.2-.1.3-.3.4-.7s.2-1 .1-1.7c0-2.1-.8-5.4-2.2-9.8-4-12.8-16.5-21.1-16.6-21.2 0 0-.2-.1-.2-.2 0 0-.2-.4-.4-.9-.6-1.5-1.4-4.5-.2-7.1.8-1.7 2.3-3 4.4-3.8.3-.1.6 0 .8.3s0 .6-.2.8c-3.2 2.4-2 6.5-1.4 8.1.1.3.2.5.3.7 1.5 1 13.1 9.2 17 21.8 3.3 10.5 2.4 12.8 1.1 13.6h-.1l-2.1 1.1h-.3zm-17.8-35.5c1.5 1 13.1 9.2 17 21.8 1.4 4.6 2.2 7.9 2.3 10.1v1.4l.5-.3c.6-.5 1.2-2.8-1.7-12.1-4-12.8-16.5-21.1-16.6-21.2 0 0-.2-.1-.2-.2 0 0-.2-.4-.4-.9-.5-1.4-1.3-4.1-.4-6.7-.4.4-.6.8-.9 1.3-1 2.2-.3 4.8.2 6.1.1.3.2.5.3.7zm41.098 50.6c-.2 0-.3 0-.4-.2-2.2-2-4.6-3.7-7-5q-.3-.15-.3-.6v-27.3c.1-.2.3-.5.5-.6s.5-.1.7 0l6.8 4.4c.2.1.3.3.3.5v28c.1.3 0 .5-.2.6h-.3zm-6.5-6.1c2 1.1 3.9 2.4 5.8 4v-26.2c-.1 0-5.7-3.5-5.7-3.5v25.7zm49.101 76.5c-.3 0-.5-.2-.6-.5 0-.3 0-.6.3-.8l2.2-1.2h.2c.5 0 .9-.1 1.3-.2.7-.1 1.4-.3 2-.6.3-.1.6 0 .8.3s0 .6-.2.8c-1 .7-2.2 1.3-3.6 1.7-.3 0-.6.2-1 .2-.5 0-.9.2-1.4.2zm-41.999-19.5h-.3c-2.5 0-5.2-.7-7.9-1.9l-.6-.3c-3.1-1.4-6.1-3.6-9-6.3-.4-.3-.7-.7-1.1-1q-2.55-2.55-4.8-5.7c-5.4-7.6-8.5-16.5-8.5-24.5s.4-5.4 1.2-7.7c.6-1.7 1.3-3.2 2.3-4.5.3-.4.7-.9 1-1.2 0 0 .1-.1.2-.1 3.2-1.6 7-1.8 11.1-.7.7.2 1.4.4 2 .7.9.3 1.7.7 2.6 1.1 1.5.8 3 1.7 4.4 2.7 2.6 1.9 5.1 4.2 7.3 6.9.8.9 1.5 1.9 2.3 2.9 5.5 7.7 8.6 16.6 8.6 24.6s-1.6 10.3-4.5 13.5c0 0-.1.1-.2.1-1.3.6-2.7 1.1-4.2 1.3-.6 0-1.3.1-2 .1zm-29.8-46.8c-.7 2.1-1.1 4.6-1.1 7.2 0 7.7 3 16.4 8.3 23.8 1.4 2 3 3.9 4.6 5.5l1 1c2.8 2.6 5.7 4.6 8.6 6 .2 0 .3.1.5.2q3.9 1.8 7.5 1.8c.8 0 1.5 0 2.1-.1 1.3-.2 2.5-.5 3.7-1.1 2.7-2.9 4.1-7.3 4.1-12.5 0-7.7-3-16.4-8.4-23.8-.7-1-1.5-2-2.2-2.9-2.2-2.6-4.6-4.8-7.1-6.7-1.4-1-2.8-1.9-4.3-2.6-.8-.4-1.6-.8-2.5-1.1-.6-.2-1.3-.5-1.9-.6-3.7-1-7.2-.8-10 .6-.3.3-.6.7-.8 1q-1.35 1.8-2.1 4.2zm25.5 33.4c-.3 0-.6 0-.9-.2q-.9-.45-1.5-1.5c-.5-1-.5-2.1 0-2.7.1-.2.3-.3.6-.4l3.1-2.3c.1-.2.3-.3.5-.3l.5-.2-4.4-6.1s-.1-.2-.2-.3l-2.3 9.1c-.1.4-.3.7-.6 1l-3.5 2.7c-.5.3-1.1.4-1.8 0-.2 0-.3-.2-.5-.3-.3-.3-.6-.6-.9-1-.2-.4-.4-.8-.5-1.1v-1.2l1-3.9-2 1.5s-.3.2-.4.3c-.4.2-1 .1-1.5-.1-.4-.2-.9-.6-1.2-1l-7.2-9.9c-.5-.6-.7-1.4-.7-2.1s0-.8.3-1.1q0-.15.3-.3c.1-.1.3-.2.4-.3l3.2-2.5s.2-.2.4-.2l7.2-2.9c1-.4 2.3.3 3 1.7.6 1.2.5 2.4-.2 3l-3.4 2.6c-.2.2-.3.3-.5.4l-.6.2 4.3 6 2.3-8.9c.1-.5.4-.8.8-1l3.2-2.4s.2-.2.3-.2c.6-.3 1.4-.2 2.1.4 1 .8 1.6 2.3 1.3 3.4l-1.1 4.4 2.6-2c.3-.2.7-.4 1.1-.3.6 0 1.3.4 1.8 1 0 .1.1.2.2.2l6.9 9.7c.4.6.7 1.4.7 2s-.1.8-.3 1.1c0 0 0 .2-.2.2-.1.2-.3.3-.5.4l-3.1 2.4c-.1.1-.3.2-.4.3l-6.9 3c-.2 0-.4.1-.6.1zm-1.2-16.5h-.1c-.2.2-.2 1 .3 1.7l4.8 6.7c.1.2.2.4 0 .6 0 .2-.2.3-.4.4l-1.3.5-.2.2-3.2 2.4h-.1s-.2.1-.2.2c-.1.2-.1.7.2 1.3.2.4.6.8.9 1 .2 0 .3.1.4 0l6.9-3 .1-.1 3.2-2.4h.2v-.4c0-.4-.2-.9-.5-1.3l-6.9-9.7s-.1-.1-.1-.2c-.3-.4-.7-.6-.9-.6h-.3l-3.3 2.5zm-8.5 5.5c0 .1.1.3 0 .5l-1.5 5.8v.6c0 .3.2.5.3.7.2.3.4.5.6.7 0 0 .2.1.3.2.2 0 .4.1.5 0l3.5-2.6.1-.2 4.5-17.5c.1-.5-.2-1.5-.9-2-.3-.3-.6-.3-.7-.2h-.1l-3.3 2.5h-.1s-.1.1-.1.2l-2.8 10.8c0 .2-.2.3-.3.4zm-13.4-9.5v.4c0 .4.2.9.5 1.3l7.2 9.9c.2.3.5.5.7.6.2 0 .3.1.4 0l.1-.1 3.4-2.5.3.2-.2-.3s.1-.2.2-.2c0 0-.1-.2-.1-.3 0-.4-.2-.8-.5-1.2l-4.9-6.8c-.1-.2-.2-.4 0-.6 0-.2.2-.3.4-.4l1.4-.6.2-.2 3.5-2.6c.1-.1.2-.7-.2-1.4-.4-.8-1.1-1.2-1.4-1.1l-7.2 2.9h-.1l-3.3 2.5h-.2l-.1.1z"/>
    <path fill="#fff" d="M278.701 305c-.2 0-.3 0-.5-.2s-.2-.6 0-.9c.1-.2.3-.3.6-.4s.7 0 .8.3 0 .6-.2.8l-.3.2c-.1 0-.3.1-.4.1zm9.2.5c-.2 0-.5-.1-.6-.3-.2-.3-.1-.6.2-.8l.4-.3q.45-.3.9 0c.3.2.2.6 0 .9 0 .1-.2.3-.5.4h-.3zm-24.999-14.1q-.3 0-.6-.3c-.2-.3 0-.6.2-.8l.3-.2q.45-.3.9 0c.2.2.2.6 0 .9-.2.2-.4.3-.6.4zm0 12.8q-.3 0-.6-.3c-.2-.3 0-.6.2-.8l.3-.2c.3-.2.7-.2.9 0s.2.6 0 .8v.1c-.1.1-.3.2-.5.3h-.2zm-9.4-13.4c-.2 0-.3 0-.5-.2s-.2-.6 0-.9c.1-.2.3-.3.5-.4.3-.2.8 0 1 .3 0 .3 0 .6-.2.7l-.3.2c-.1 0-.3.1-.4.1zm21.699 16.9c-.2 0-.3 0-.5-.2s-.3-.6 0-.9c.2-.2.4-.4.6-.5.3-.2.7 0 .8.2.2.3 0 .6-.2.8l-.4.3c-.1 0-.3.1-.4.1zm-7.3 2.2c-.4 0-.7-.3-.7-.7s.3-.7.6-.7c.4 0 .6.3.6.7s-.3.7-.6.7z"/>
    <path fill="#fff" d="M267.901 309.9c-.2 0-.4 0-.5-.3-.2-.3-.2-.7.1-.9l.1-.2 4.5-17.5v-.3q0-.45-.3-.9c-.2-.3-.4-.6-.6-.8-.3-.2-.5-.2-.6-.2-.3.1-.7 0-.8-.2-.2-.3-.1-.7.2-.9l3.3-2.5c.1 0 .2-.2.3-.2.6-.3 1.4-.2 2.1.4 1 .8 1.6 2.3 1.3 3.4l-4.5 17.5c-.1.4-.3.7-.6 1l-3.5 2.7c-.1 0-.3.1-.4.1zm4.3-21.9c.4.3.7.7.9 1.1.2.5.4 1 .4 1.5v.7l-4.1 16 1.8-1.4.1-.2 4.5-17.5c.1-.5-.2-1.5-.9-2-.3-.3-.6-.3-.7-.2l-.1.1-2.1 1.6s.2.1.2.2z"/>
    <path fill="#fff" d="M267.401 310c-.3 0-.6 0-.9-.2-.2 0-.3-.2-.5-.3-.3-.2-.6-.6-.9-1v-.2c0-.3-.2-.5-.3-.8v-1.4l4.5-17.4c.1-.5.4-.9.8-1.1.6-.3 1.4-.2 2.1.4.4.3.7.7 1 1.2.2.5.4 1 .4 1.5v.7l-4.5 17.5q-.15.6-.6.9s-.1 0-.2.1c-.2.1-.5.2-.8.2zm-1.1-2.1c.2.2.3.4.5.6 0 0 .2.1.3.2.2 0 .4.1.4 0 0 0 0-.1.1-.2l4.5-17.5v-.3c0-.3 0-.6-.3-.9-.2-.3-.4-.6-.6-.8-.3-.3-.6-.3-.7-.2 0 0-.1.1-.1.2l-4.5 17.5v.5c.1.3.3.6.4.9"/>
    <path fill="#fff" d="M265.702 308.8q-.3 0-.6-.3c-.2-.4-.4-.8-.5-1.2 0-.3.1-.6.4-.7s.6 0 .8.3c.2.4.3.7.4 1.1 0 .3 0 .6-.4.8h-.3zm9.398-1c-.3 0-.5-.2-.6-.4 0-.3 0-.5.2-.7s.6-.2.8 0 .3.6.1.8l-.2.2c-.1 0-.2.1-.4.1zm5.702-2.6c-.1 0-.2 0-.4-.1s-.3-.3-.3-.5v-.2c0-.3.2-.5.5-.6.3 0 .6 0 .7.2 0 .2.2.3.2.5 0 .3-.2.5-.4.6h-.3z"/>
    <path fill="#fff" d="M275.601 307.5q-.3 0-.6-.3c-.2-.3 0-.6.2-.8l3.5-2.6h.1l1.3-.5c.3-.1.6 0 .8.2l.5.8c0 .1.1.2.1.4v.2c0 .3-.2.5-.4.6l-1 .4-4.2 1.8h-.3zm8.699.7q-.3 0-.6-.3c-.2-.3 0-.6.2-.8l.3-.2q.45-.3.9 0c.3.2.2.6 0 .9-.1.2-.3.3-.5.4zm-30.899-17.4c-.3 0-.5-.2-.6-.4 0-.3 0-.5.2-.7.3-.3.7-.2.9 0s.2.5 0 .8q-.15.3-.6.3z"/>
    <path fill="#fff" d="M263.202 291.1c-.2 0-.3 0-.5-.2s-.2-.6 0-.9c0 0 .1-.3 0-.7 0-.2-.1-.5-.2-.7 0 0-.1-.2-.2-.3-.4-.6-1-.8-1.2-.8l-3 1.2-4 1.7c-.3.1-.6 0-.8-.3s0-.6.2-.8l3.3-2.5s.2-.2.4-.2l7.2-2.9c1-.4 2.3.3 3 1.7.6 1.2.5 2.4-.2 3l-3.5 2.6c-.1 0-.3.1-.4.1zm-1.8-4.8c.7 0 1.5.5 2 1.3 0 .1.2.3.3.4.2.3.3.6.3 1l2.2-1.7c.1-.1.2-.7-.2-1.4-.4-.8-1.1-1.2-1.4-1.1l-3.3 1.4z"/>
    <path fill="#fff" d="M263.201 303.9c-.2 0-.4 0-.5-.2-.2-.2-.2-.6 0-.9.2-.2.2-1-.3-1.7l-5.6-7.7c-.1-.2-.2-.4 0-.6 0-.2.2-.3.4-.4l4.2-1.7c.3-.1.6 0 .8.2l4.9 6.8c.4.6.7 1.3.7 1.9v.2l-.2.9s0 .2-.1.2c0 0 0 .1-.2.2 0 0-.2.1-.3.2l-3.3 2.5c-.1 0-.3.1-.4.1zm-4.9-10.6 5.1 7.1q.45.75.6 1.5l2.1-1.6.2-.7c0-.4-.2-.8-.4-1.1l-4.6-6.4-2.1.8zm8.1 7.2.3.2-.2-.2z"/>
    <path fill="#fff" d="M257.3 293.7c-.3 0-.5-.2-.6-.4-.1-.3 0-.7.4-.8l2.8-1.2c.3-.1.7 0 .8.4s0 .7-.4.8l-2.8 1.2z"/>
    <path fill="#fff" d="M262.502 304.2c-.3 0-.6 0-.9-.2-.5-.2-.9-.6-1.2-1.1l-7.1-9.8c-.5-.6-.7-1.4-.7-2.1s.1-.9.4-1.2c0 0 0-.1.1-.1l.3-.2h.1l7.1-2.9c.9-.4 2 .1 2.8 1.2 0 .1.2.3.3.4.2.4.3.7.4 1.1.1.7 0 1.3-.4 1.7l-.1.1-.3.2h-.1l-4.8 2 5.1 7.1c.8 1.2.9 2.6.2 3.4l-.3.2h-.1c-.2 0-.4.1-.6.1zm-8.2-11.9 7.2 9.9c.2.3.5.5.7.6h.5c.2-.4.1-1.1-.4-1.8l-5.6-7.7c-.1-.2-.2-.4 0-.6 0-.2.2-.3.4-.4l5.5-2.3h.2c0-.2.1-.5 0-.8 0-.2-.1-.5-.2-.7 0 0-.1-.2-.2-.3-.4-.6-1-.9-1.2-.8l-7.1 2.9h-.2v.5c0 .4.2.9.4 1.3z"/>
    <path fill="#fff" d="M277.7 327.3c-1.5 0-3-.2-4.6-.6q-2.1-.6-4.2-1.5c-3.1-1.4-6.1-3.5-8.9-6.2l-.1-.1c-1.6-1.5-3.2-3.3-4.7-5.2l.4-.5-.6.3c-6-7.8-9.5-17.5-9.5-25.9s.4-5.7 1.3-8.1l.2-.5c.9-2.4 2.2-4.3 3.9-5.8l1.2-.9c.5-.4 1.1-.7 1.6-1 .3-.1.6 0 .8.2.2.3.2.6 0 .8-.3.4-.6.7-.9 1.1q-1.35 1.8-2.1 4.2c-.7 2.2-1.1 4.6-1.1 7.3 0 7.7 3 16.4 8.3 23.8 1.4 2 3 3.9 4.6 5.5l1 1c2.8 2.6 5.7 4.6 8.6 6 .1 0 .2.1.4.2h.2c2.6 1.2 5 1.8 7.4 1.8.7 0 1.5 0 2.1-.1 1.3-.2 2.6-.6 3.8-1.1.3-.1.6 0 .8.2.2.3.2.6 0 .8q-1.8 1.95-4.2 3c-.7.3-1.5.6-2.3.8s-1.7.3-2.6.4h-.8zm-16.8-9.3c2.7 2.6 5.6 4.6 8.6 5.9 1.3.6 2.7 1.1 4 1.4 1.7.4 3.4.6 5 .5.8 0 1.6-.2 2.4-.3.7-.2 1.4-.4 2.1-.7.4-.2.7-.3 1.1-.5-.2 0-.5 0-.7.1-.7 0-1.5.1-2.3.1-2.5 0-5.2-.7-7.9-1.9h-.2c-.1-.1-.3-.2-.4-.3q-4.65-2.25-9-6.3c-.4-.3-.7-.7-1.1-1q-2.55-2.55-4.8-5.7c-5.4-7.6-8.5-16.5-8.5-24.5s.4-5.4 1.2-7.7c.3-.9.7-1.8 1.1-2.6-1.3 1.3-2.4 2.9-3.1 4.9l-.2.5c-.8 2.2-1.2 4.8-1.2 7.6 0 8.1 3.5 17.5 9.3 25.1v.2c1.5 1.8 3 3.5 4.6 5l-.3.6.4-.5zm27.302-12.8c-.1 0-.3 0-.4-.1-.2-.2-.3-.5-.2-.8 0 0 0-.1.1-.2.3-.4 1-.3 1.1.2 0 .3 0 .6-.2.7-.1.1-.3.2-.4.2"/>
    <path fill="#fff" d="M284.601 307.9c-.2 0-.4 0-.5-.2-.2-.2-.2-.6 0-.9 0 0 .1-.2.1-.4v-.2c0-.3-.1-.5-.3-.8 0 0-.1-.2-.2-.3l-6.9-9.7c-.4-.6-1-.8-1.1-.7-.3.2-.9 0-1-.3v-.2c0-.2.1-.4.3-.5l3.4-2.6c.2-.2.6-.4 1.1-.4.6 0 1.3.4 1.8 1.1 0 .1.1.2.2.2l6.9 9.7c.4.6.7 1.4.7 2s-.1.9-.4 1.2h-.1l-3.6 2.7c-.1 0-.3.1-.4.1zm-7.6-14.1q.45.3.9.9l6.9 9.7c0 .1.2.3.3.4.2.3.3.7.4 1l2.2-1.7v-.4c0-.4-.2-.9-.5-1.3l-6.9-9.7-.1-.1c-.3-.4-.7-.6-.9-.6h-.2l-2.2 1.7z"/>
    <path fill="#fff" d="M277.002 311.2c-.3 0-.6 0-.9-.2q-.9-.45-1.5-1.5c-.5-1-.5-2.1 0-2.7l.5-.4h.1l4.7-2-5-7c-.9-1.2-.9-2.7-.2-3.4 0 0 .1-.1.2-.1.9-.6 2.1-.2 2.9 1l6.9 9.7c0 .1.2.3.3.4.2.4.3.8.4 1.2v.3c0 .5-.2 1-.5 1.3l-.3.2h-.1l-6.9 3c-.2 0-.4.1-.6.1zm-1.4-3.6c-.1.2-.1.8.2 1.3.2.4.6.8.9.9.2 0 .3.1.4 0l7-3.1v-.6c0-.2-.1-.5-.3-.8 0-.1-.1-.2-.2-.3l-6.9-9.7c-.4-.6-1-.8-1.1-.7-.2.2-.2 1 .3 1.7l5.5 7.6c.1.2.2.4.1.6 0 .2-.2.3-.4.4l-5.3 2.3-.2.2zm-25.4-36.6c-.3 0-.5-.2-.6-.4 0-.3 0-.6.2-.7h.1c.3-.2.7-.2.9.1s.2.7-.1.9h-.1c-.1 0-.3.1-.4.1m36.699 56.8c-.2 0-.4-.1-.5-.3-.2-.3-.1-.7.2-.9.1 0 .3-.2.4-.2.3 0 .5.2.6.5 0 .3 0 .6-.3.7-.1 0-.2.1-.4.1z"/>
    <path fill="#fff" d="M287.5 327.4c-.2 0-.4 0-.5-.3-.2-.3-.2-.7.1-.9.5-.4.9-.8 1.3-1.2.3-.3.6-.6.8-.9l.6-.9c.5-.7.9-1.5 1.3-2.3v-.2c.8-1.6 1.3-3.4 1.7-5.3.2-1.5.4-3 .4-4.6 0-9.3-4-19.9-10.8-28.5-.7-.9-1.4-1.7-2.2-2.6-2.2-2.4-4.6-4.6-7.1-6.3-1.4-1-2.9-1.9-4.3-2.6-.9-.4-1.7-.8-2.6-1.1-1.2-.5-2.3-.8-3.5-1.1-.3 0-.6-.1-1-.2-.5 0-1-.1-1.5-.2-1.9-.2-3.8 0-5.5.5-.3 0-.6.2-.9.3-.5.2-1.1.4-1.5.7-.6.3-1.2.7-1.8 1.1-.3.2-.7.2-.9-.1s-.2-.7.1-.9l3.5-2.6c.6-.4 1.2-.9 1.9-1.2 4.9-2.6 11.2-2.2 17.7 1.1l.6.3h.2c2.5 1.5 4.9 3.2 7.2 5.2.8.7 1.5 1.4 2.3 2.2 2.4 2.5 4.6 5.3 6.6 8.3 1.7 2.6 3.1 5.3 4.3 8.1 2.5 5.8 3.8 11.7 3.8 17s-1 8.9-3 12.2c-.4.6-.7 1.2-1.2 1.7-.9 1.1-1.9 2.1-3 2.9h-.1l-3 2.2c-.1 0-.3.1-.4.1zM259 266.9h1.6c.5 0 1 .1 1.6.2.3 0 .7.1 1 .2 1.2.3 2.4.6 3.7 1.1q1.35.45 2.7 1.2c1.5.7 3 1.6 4.4 2.7 2.5 1.8 5 4 7.3 6.5.8.9 1.6 1.8 2.3 2.7 6.9 8.8 11 19.7 11 29.3s-.1 3.3-.4 4.8c-.3 2-.9 3.9-1.7 5.6v.2c-.2.3-.4.7-.6 1 .4-.4.7-.8 1-1.2.4-.5.8-1 1.1-1.6 1.8-3 2.8-7 2.8-11.5s-1.3-10.9-3.7-16.5c-1.2-2.7-2.6-5.4-4.2-7.9-1.9-2.9-4.1-5.7-6.4-8.1-.7-.7-1.4-1.4-2.2-2.1-2.3-2-4.6-3.7-7-5h-.2c-.2-.2-.4-.3-.6-.4-6.1-3.1-12-3.5-16.5-1.1 0 0-.2 0-.3.1q1.5-.3 3.3-.3z"/>
    <path fill="#fff" d="M278.6 330.3c-1.8 0-3.6-.3-5.5-.8-1.4-.4-2.8-.9-4.2-1.6-3.3-1.5-6.5-3.7-9.5-6.5-.5-.4-1-.9-1.4-1.4-1.6-1.6-3.2-3.5-4.7-5.4-1.9-2.6-3.6-5.3-5.1-8.2-3.4-6.7-5.2-13.6-5.2-20s.3-4.8.8-6.9c1-4.1 3.1-7.5 6-9.7h.1c.6-.5 1.3-.9 2-1.2.5-.3 1.1-.5 1.7-.7.3-.1.7-.2 1-.3 1.9-.5 3.9-.7 6-.5.5 0 1 .1 1.6.2.3 0 .7.1 1 .2 1.2.3 2.4.6 3.7 1.1q1.35.45 2.7 1.2c1.5.7 3 1.6 4.4 2.7 2.6 1.8 5 4 7.3 6.5.8.9 1.6 1.8 2.3 2.7 6.9 8.8 11 19.7 11 29.3s-.1 3.3-.4 4.8c-.3 2-.9 3.9-1.7 5.6h-.7c0-.1.6.2.6.2-.4.9-.9 1.7-1.4 2.5-.2.3-.5.7-.7 1-.3.4-.6.7-.9 1-.4.5-.9.9-1.5 1.3l-.5.4c-1.2.8-2.5 1.5-3.9 1.9-.8.2-1.5.4-2.3.5s-1.6.2-2.5.2zm-28.3-60 .4.6c-2.6 2-4.5 5.1-5.5 9-.5 2-.8 4.2-.8 6.6 0 6.2 1.7 12.9 5 19.5 1.4 2.8 3.1 5.5 4.9 8 1.4 1.9 3 3.7 4.6 5.3s.9.9 1.4 1.3c2.9 2.7 6 4.8 9.2 6.3 1.3.6 2.7 1.1 4 1.5 2.6.7 5.1.9 7.4.6.7-.1 1.4-.3 2.1-.5 1.2-.4 2.4-1 3.5-1.7l.5-.4c.5-.4.9-.8 1.3-1.2.3-.3.6-.6.8-.9l.6-.9c.5-.7.9-1.5 1.3-2.3h.7c0 .1-.6-.2-.6-.2.7-1.6 1.3-3.4 1.6-5.3.2-1.5.4-3.1.4-4.6 0-9.3-4-19.9-10.8-28.5-.7-.9-1.4-1.8-2.2-2.6-2.2-2.4-4.6-4.6-7.1-6.3-1.4-1-2.9-1.9-4.3-2.6-.9-.4-1.7-.8-2.6-1.1-1.2-.5-2.3-.8-3.5-1.1-.3 0-.6-.1-1-.2-.5 0-1-.1-1.5-.2-1.9-.2-3.8 0-5.5.5-.3 0-.6.2-.9.3-.6.2-1.1.4-1.5.7-.6.3-1.2.7-1.8 1.1l-.5-.4zm27.4 57c-1.5 0-3-.2-4.6-.6q-2.1-.6-4.2-1.5c-3.1-1.4-6.1-3.5-8.9-6.2l.4-.5-.5.4c-1.6-1.6-3.2-3.3-4.7-5.2h-.1c-6-7.9-9.5-17.6-9.5-26s.4-5.7 1.3-8.1c0-.2.1-.4.2-.5.9-2.4 2.2-4.3 3.9-5.8l1.2-.9c.5-.4 1.1-.7 1.6-1 3.2-1.6 7-1.8 11.1-.7.7.2 1.4.4 2 .7.9.3 1.8.7 2.6 1.1 1.5.8 3 1.7 4.4 2.7 2.6 1.9 5.1 4.2 7.3 6.9.8.9 1.5 1.9 2.3 2.9 5.5 7.7 8.6 16.6 8.6 24.6s-1.6 10.3-4.5 13.5q-1.8 1.95-4.2 3c-.7.3-1.5.6-2.3.8s-1.7.3-2.6.4zm-17.7-56c-2 0-3.9.4-5.6 1.3l-1.5.9c-.4.3-.7.5-1 .8-1.5 1.4-2.7 3.2-3.6 5.3 0 .2-.1.3-.2.5-.8 2.2-1.2 4.8-1.2 7.6 0 8.1 3.5 17.5 9.3 25.1h.1c1.4 2 2.9 3.7 4.5 5.2l.1.1c2.7 2.6 5.6 4.6 8.5 5.9 1.3.6 2.7 1.1 4 1.4 1.7.4 3.4.6 5 .5.8 0 1.6-.2 2.4-.3.7-.2 1.4-.4 2-.7 1.4-.6 2.7-1.6 3.8-2.7 2.7-2.9 4.1-7.3 4.1-12.6 0-7.7-3-16.4-8.4-23.8-.7-1-1.5-2-2.2-2.9-2.2-2.6-4.6-4.8-7.1-6.7-1.4-1-2.8-1.9-4.3-2.6-.8-.4-1.6-.7-2.5-1.1-.6-.2-1.3-.5-1.9-.6q-2.4-.6-4.5-.6zm-106.698-23.9c-.1 0-.2 0-.4-.1l-53.5-34.2c-.2-.1-.3-.3-.3-.5v-68.2c0-.2.1-.5.3-.6s.5-.1.7 0l53.5 34.2c.2.1.3.3.3.5v68.2c0 .2-.1.5-.3.6h-.3zm-52.8-35.2 52.2 33.4v-66.7l-52.2-33.4z"/>
    <path fill="#fff" d="M153.301 247.4h-.1c-.3 0-.5-.3-.5-.6v-68.2c0-.3.2-.5.4-.6l37.8-13.6c.2 0 .5 0 .7.2s.2.5.1.7l-37.8 81.9c-.1.2-.3.4-.6.4zm.7-68.4v64.8l35.9-77.8-29.6 10.7-6.4 2.3z"/>
    <path fill="#fff" d="M153.302 179.2c-.1 0-.2 0-.4-.1l-53.5-34.2c-.3-.2-.4-.5-.2-.8.1-.3.4-.5.7-.4l91.3 20.6c.3 0 .5.3.5.6s-.2.6-.4.7l-31 11.2-6.8 2.4zm-50-33.4 50.1 32 35.4-12.8zM73.7 242.5c-.1 0-.2 0-.4-.1l-31.2-20c-.2-.1-.3-.3-.3-.5v-40c0-.2.1-.5.3-.6s.5-.1.7 0l31.3 20c.2.1.3.3.3.5v40c0 .2-.1.5-.3.6h-.3zm-30.6-21 30 19.2v-38.4l-30-19.3z"/>
    <path fill="#fff" d="M73.702 242.5h-.1c-.3 0-.5-.3-.5-.6v-40c0-.3.2-.5.4-.6l22.2-8c.2 0 .5 0 .7.2s.2.5.1.7l-22.2 47.9c-.1.2-.3.4-.6.4m.7-40.2v36.5l20.3-43.9-20.3 7.3z"/>
    <path fill="#fff" d="M73.7 202.5c-.1 0-.2 0-.4-.1l-31.2-20c-.3-.2-.4-.5-.2-.8.1-.3.4-.5.7-.4l53.5 12c.3 0 .5.3.5.6s-.2.6-.4.7l-22.2 8zm-27.8-19.2 27.9 17.9 19.8-7.1-47.7-10.7zm239.9 65.8c-.1 0-.2 0-.4-.1l-36.2-23.1c-.2-.1-.3-.3-.3-.5v-46.1c0-.2.1-.5.3-.6s.5-.1.7 0l36.2 23.1c.2.1.3.3.3.5v46.1c0 .2-.1.5-.3.6h-.3zm-35.5-24.2 23.8 15.2 11.1 7.1v-44.6l-34.9-22.3z"/>
    <path fill="#fff" d="M285.801 249.1h-.1c-.3 0-.5-.3-.5-.6v-46.1c0-.3.2-.5.4-.6l25.6-9.2c.2 0 .5 0 .7.2s.2.5.1.7l-25.6 55.4c-.1.2-.3.4-.6.4zm.6-46.4v42.7l23.7-51.3-23.7 8.5z"/>
    <path fill="#fff" d="M285.801 202.9c-.1 0-.2 0-.4-.1l-36.2-23.1c-.3-.2-.4-.5-.2-.8.1-.3.4-.5.7-.4l61.7 13.9c.3 0 .5.3.5.6s-.2.6-.4.7l-25.6 9.2h-.2zm-32.7-22.3 32.8 21 23.2-8.4zM133.5 333.9c-.1 0-.2 0-.4-.1l-23.9-15.3c-.2-.1-.3-.3-.3-.5v-30.5c0-.2.1-.5.3-.6s.5-.1.7 0l23.9 15.3c.2.1.3.3.3.5v30.5c0 .2-.1.5-.3.6h-.3zm-23.3-16.4 22.6 14.5v-29l-22.6-14.5z"/>
    <path fill="#fff" d="M133.5 333.9h-.1c-.3 0-.5-.3-.5-.6v-30.5c0-.3.2-.5.4-.6l16.9-6.1c.2 0 .5 0 .7.2s.2.5.1.7l-16.9 36.7c-.1.2-.3.4-.6.4zm.7-30.8v27.1l15-32.6-15 5.4z"/>
    <path fill="#fff" d="M133.501 303.3c-.1 0-.2 0-.4-.1l-23.9-15.3c-.3-.2-.4-.5-.2-.8.1-.3.4-.5.7-.4l40.9 9.2c.3 0 .5.3.5.6s-.2.6-.4.7l-16.9 6.1zm-20.4-14.5 20.6 13.1 14.5-5.2zM69.5 407.1c-.1 0-.2 0-.4-.1l-20.5-13.1c-.2-.1-.3-.3-.3-.5v-26.1c0-.2.1-.5.3-.6s.5-.1.7 0l20.5 13.1c.2.1.3.3.3.5v26.1c0 .2-.1.5-.3.6h-.3zM49.7 393l19.2 12.2v-24.6l-19.2-12.3z"/>
    <path fill="#fff" d="M69.5 407.1h-.1c-.3 0-.5-.3-.5-.6v-26.1c0-.3.2-.5.4-.6l14.5-5.2c.2 0 .5 0 .7.2s.2.5.1.7l-14.5 31.3c-.1.2-.3.4-.6.4zm.7-26.3v22.7l12.6-27.2z"/>
    <path fill="#fff" d="M69.5 381c-.1 0-.2 0-.4-.1l-20.5-13.1c-.3-.2-.4-.5-.2-.8.1-.3.4-.5.7-.4l34.9 7.9c.3 0 .5.3.5.6s-.2.6-.4.7L69.6 381h-.2zm-17-12.3 17.1 10.9 12.1-4.4-29.2-6.6zm99.801 88.3c-.1 0-.2 0-.4-.1l-33.4-21.4c-.2-.1-.3-.3-.3-.5v-42.7c0-.2.1-.5.3-.6s.5-.1.7 0l33.4 21.4c.2.1.3.3.3.5v42.7c0 .2-.1.5-.3.6h-.3zm-32.8-22.4 32.1 20.6v-41.1l-32.1-20.5v41.1z"/>
    <path fill="#fff" d="M152.301 457h-.1c-.3 0-.5-.3-.5-.6v-42.7c0-.3.2-.5.4-.6l23.7-8.5c.2 0 .5 0 .7.2s.2.5.1.7l-23.7 51.2c-.1.2-.3.4-.6.4zm.7-42.8v39.3l21.8-47.1z"/>
    <path fill="#fff" d="M152.301 414.3c-.1 0-.2 0-.4-.1l-33.4-21.4c-.3-.2-.4-.5-.2-.8.1-.3.4-.5.7-.4l57.1 12.9c.3 0 .5.3.5.6s-.2.6-.4.7l-23.7 8.5zm-30-20.5 30.1 19.2 21.3-7.7-51.3-11.5zm109.7 63.2c-.1 0-.2 0-.4-.1l-44.6-28.5c-.2-.1-.3-.3-.3-.5V371c0-.2.1-.5.3-.6s.5-.1.7 0l44.6 28.5c.2.1.3.3.3.5v56.9c0 .2-.1.5-.3.6h-.3zm-43.9-29.5 43.3 27.7v-55.3l-43.3-27.7z"/>
    <path fill="#fff" d="M232 457h-.1c-.3 0-.5-.3-.5-.6v-56.9c0-.3.2-.5.4-.6l31.5-11.4c.2 0 .5 0 .7.2s.2.5.1.7l-31.5 68.2c-.1.2-.3.4-.6.4m.7-57.1v53.5l29.6-64.2z"/>
    <path fill="#fff" d="M232.001 400.1c-.1 0-.2 0-.4-.1l-44.6-28.5c-.3-.2-.4-.5-.2-.8.1-.3.4-.5.7-.4l76.1 17.1c.3 0 .5.3.5.6s-.2.6-.4.7l-31.5 11.4zm-41.1-27.7 41.2 26.3 29.1-10.5zm148.001 59.1c-.1 0-.2 0-.4-.1l-44.6-28.5c-.2-.1-.3-.3-.3-.5v-56.9c0-.2.1-.5.3-.6s.5-.1.7 0l44.6 28.5c.2.1.3.3.3.5v56.9c0 .2-.1.5-.3.6h-.3zm-43.9-29.6 43.3 27.7v-55.3l-43.3-27.7z"/>
    <path fill="#fff" d="M338.901 431.5h-.1c-.3 0-.5-.3-.5-.6V374c0-.3.2-.5.4-.6l31.5-11.4c.2 0 .5 0 .7.2s.2.5.1.7l-31.5 68.2c-.1.2-.3.4-.6.4m.7-57.1v53.5l29.6-64.2z"/>
    <path fill="#fff" d="M338.902 374.6c-.1 0-.2 0-.4-.1l-44.6-28.5c-.3-.2-.4-.5-.2-.8.1-.3.4-.5.7-.4l76.1 17.1c.3 0 .5.3.5.6s-.2.6-.4.7l-31.5 11.4zm-41.1-27.7 41.2 26.3 29.1-10.5-67.4-15.2-2.9-.7zM429.3 129.4c-.2 0-.4 0-.5-.3-.2-.2-.2-.5 0-.7l8.2-12.1c.1-.2.3-.3.5-.3s.4 0 .5.2l6.6 8.1c.1.2.2.4.1.6 0 .2-.2.4-.4.4l-14.8 4h-.2zm8.2-11.6-6.7 9.9 12.1-3.3z"/>
    <path fill="#fff" d="M429.3 129.4h-.2l-14.8-4c-.2 0-.4-.2-.4-.4v-.6l5.5-8.1c.1-.2.3-.3.5-.3s.4 0 .5.3l9.3 12.1c.2.2.2.5 0 .8-.1.2-.3.3-.5.3zm-13.8-5.1 12.1 3.3-7.5-9.8-4.5 6.6z"/>
    <path fill="#fff" d="M414.501 141.2h-.3c-.2-.1-.4-.3-.4-.6v-15.8c0-.2.1-.4.3-.5s.4-.2.6 0l15 5.2c.2 0 .4.3.4.5s0 .5-.3.6l-15 10.6c-.1 0-.2.1-.4.1zm.6-15.6v13.6l12.9-9.1z"/>
    <path fill="#fff" d="M444.101 141.2c-.1 0-.3 0-.4-.1l-14.6-10.6c-.2-.1-.3-.4-.3-.6s.2-.4.4-.5l14.6-5.2h.6c.2.1.3.3.3.5v15.8c0 .2-.1.5-.4.6h-.3zm-13.3-11.1 12.6 9.1v-13.6zM414.5 141.2c-.2 0-.4-.1-.5-.3l-9.5-13.6c-.1-.2-.2-.4 0-.6s.2-.4.5-.4l9.5-2.2c.2 0 .4 0 .6.1s.2.3.2.5v15.8c0 .3-.2.5-.5.6h-.2zm-8.4-13.9 7.7 11.1v-12.9z"/>
    <path fill="#fff" d="M405.001 127.6c-.3 0-.5-.1-.6-.4s0-.6.2-.8l15-10.3c.3-.2.6-.1.8 0 .2.2.3.6 0 .8l-5.5 8.1c0 .1-.2.2-.4.3l-9.5 2.2h-.1zm12.5-8.4-9.3 6.3 5.8-1.4 3.4-5zM452.1 128h-.2l-8.1-2.6c-.1 0-.2-.1-.3-.2l-6.6-8.1q-.3-.45 0-.9c.2-.2.6-.3.9 0l14.7 10.7c.3.2.3.5.2.8-.1.2-.3.4-.6.4zm-7.7-3.8 4 1.3-7.2-5.3 3.3 4z"/>
    <path fill="#fff" d="M429.302 129.4c-.2 0-.4 0-.5-.3l-9.3-12.1c-.2-.2-.2-.5 0-.7s.3-.4.6-.4h17.4c.2 0 .5.1.6.3s0 .5 0 .7l-8.2 12.1c-.1.2-.3.3-.5.3zm-8-12.1 7.9 10.3 7-10.3z"/>
    <path fill="#fff" d="M429.501 130.6h-.3c-.2 0-.3-.3-.3-.5l-.2-1.2c0-.3.1-.6.5-.7l14.8-4c.3 0 .7 0 .8.4.1.3 0 .7-.4.8l-14.6 5.2z"/>
    <path fill="#fff" d="M429.501 130.6h-.2l-15-5.2c-.3-.1-.5-.5-.4-.8s.4-.5.8-.4l14.8 4c.2 0 .4.3.5.5l.2 1.2c0 .2 0 .5-.2.6-.1.1-.3.2-.4.2z"/>
    <path fill="#fff" d="M429.301 145.3h-.2l-14.8-4.1c-.2 0-.4-.3-.5-.5 0-.2 0-.5.3-.6l15-10.6c.2-.1.5-.2.7 0 .2.1.4.3.3.6l-.2 14.7c0 .2 0 .4-.3.5-.1 0-.3.1-.4.1zm-13.3-5 12.7 3.5.2-12.6-12.8 9z"/>
    <path fill="#fff" d="M429.302 145.3c-.1 0-.3 0-.4-.1-.2-.1-.3-.3-.3-.5l.2-14.7c0-.2.1-.5.4-.6.2-.1.5 0 .7 0l14.6 10.6c.2.1.3.4.3.6s-.2.4-.5.5l-14.8 4.1h-.2zm.8-14.1-.2 12.6 12.7-3.5-12.5-9z"/>
    <path fill="#fff" d="M438.1 158.5c-.2 0-.4-.1-.5-.3l-8.9-13.2q-.15-.3 0-.6c.1-.2.2-.3.4-.4l14.8-4.1c.2 0 .5 0 .6.2.2.2.2.4.1.7l-5.9 17.3c0 .2-.3.4-.5.4zm-7.8-13.5 7.6 11.3 5.1-14.9z"/>
    <path fill="#fff" d="M420 158.5c-.2 0-.4-.2-.5-.4l-5.5-17.3c0-.2 0-.5.2-.6.2-.2.4-.2.6-.2l14.8 4.1c.2 0 .4.2.4.4v.6l-9.3 13.2c-.1.2-.3.3-.5.3zm-4.5-17 4.8 14.9 8-11.4-12.7-3.6z"/>
    <path fill="#fff" d="M438.102 158.5h-18.1c-.2 0-.5-.1-.6-.4-.1-.2 0-.5 0-.7l9.3-13.2c.1-.2.3-.2.5-.3.2 0 .4.1.5.3l8.9 13.2c.1.2.1.5 0 .7q-.15.3-.6.3zm-16.8-1.3h15.6l-7.6-11.4z"/>
    <path fill="#fff" d="M420 158.5h-.2l-.6-.2-.8-.3-13.6-4.9c-.2 0-.3-.2-.4-.4 0-.2 0-.4.1-.6l9.5-11.9c.2-.2.4-.3.6-.2.2 0 .4.2.5.4l5.5 17.3c0 .2 0 .5-.2.7-.1.1-.3.2-.5.2zm-13.9-6.4 12.9 4.7-4.8-14.9z"/>
    <path fill="#fff" d="M405.001 153c-.1 0-.3 0-.4-.1-.3-.2-.4-.6-.2-.9l8.2-12.4c.2-.3.5-.4.8-.2l1.3.5c.2 0 .3.2.4.4 0 .2 0 .4-.1.6l-9.5 11.9c-.1.2-.3.2-.5.2"/>
    <path fill="#fff" d="M414.501 141.2h-.2l-1.3-.5q-.15 0-.3-.3l-8.2-13.1c-.2-.3-.1-.7.2-.9s.7-.1.9.2l9.5 13.6c.2.2.2.6 0 .8-.1.2-.3.2-.5.2z"/>
    <path fill="#fff" d="M405.001 153c-.2 0-.4 0-.5-.3l-5.7-7.8c-.1-.2-.2-.4 0-.6 0-.2.2-.4.4-.4l13.9-4.6c.3 0 .6 0 .7.2.2.2.2.5 0 .8l-8.2 12.4c-.1.2-.3.3-.5.3zm-4.7-8 4.6 6.3 6.6-10-11.3 3.8z"/>
    <path fill="#fff" d="M399.302 145.3c-.2 0-.3 0-.5-.2s-.2-.4-.2-.7l5.7-17.7c0-.2.3-.4.5-.4.3 0 .5 0 .6.3l8.2 13.1q.15.3 0 .6c0 .2-.2.3-.4.4zh-.2zm5.9-16.8-4.9 15.2 11.9-4z"/>
    <path fill="#fff" d="M404.501 161.6c-.3 0-.5-.2-.6-.5l-5.2-16.3c0-.3 0-.6.3-.8.3-.1.6 0 .8.2l5.7 7.8c0 .1.1.3.1.4l-.5 8.6c0 .3-.3.6-.6.6m-3.4-13.4 3 9.2.3-4.8-3.2-4.4z"/>
    <path fill="#fff" d="M404.5 161.6c-.1 0-.3 0-.4-.1-.2-.1-.2-.3-.2-.5l.5-8.6c0-.2.1-.4.3-.5q.3-.15.6 0l13.6 4.9c.3 0 .4.4.4.6 0 .3-.2.5-.5.6l-14.1 3.6zm1.1-8.3-.4 6.8 11.2-2.9z"/>
    <path fill="#fff" d="M418.6 158h-.2l-13.6-4.9c-.3 0-.4-.3-.4-.6v-.2c.1-.3.5-.5.8-.4l13.6 4.9c.3 0 .4.3.4.6v.2c0 .3-.3.4-.6.4"/>
    <path fill="#fff" d="M419.001 172.7c-.1 0-.3 0-.4-.1l-14.5-11.1c-.2-.2-.3-.4-.2-.6 0-.2.2-.4.5-.5l14.1-3.6h.4l.8.3c.3 0 .4.3.4.6l-.4 14.4c0 .2-.1.5-.4.6zm-13-11.5 12.4 9.5.4-12.7h-.2z"/>
    <path fill="#fff" d="M419.001 158.5c-.4 0-.7-.3-.7-.6v-.8c0-.4.3-.6.7-.6s.7.3.7.6v.8c0 .4-.3.6-.7.6"/>
    <path fill="#fff" d="M419 172.7c-.2 0-.3 0-.4-.2-.2-.1-.2-.3-.2-.5l.4-14.4c0-.2.1-.4.3-.5q.3-.15.6 0l.6.2c.1 0 .2.1.3.2l8.6 12.1c.1.2.2.4 0 .6s-.3.4-.5.4l-9.6 2.1zm1-13.7-.4 12.2 7.8-1.7-7.5-10.5z"/>
    <path fill="#fff" d="M420.001 158.5h-.2l-.6-.2c-.3 0-.4-.3-.4-.6v-.2c.1-.3.5-.5.8-.4l.6.2c.3 0 .4.3.4.6v.2c0 .3-.3.4-.6.4"/>
    <path fill="#fff" d="M428.6 170.6c-.2 0-.4-.1-.5-.3l-8.6-12.1c-.1-.2-.2-.5 0-.7s.3-.4.6-.4h18.1c.2 0 .5.1.6.4.1.2 0 .5 0 .7l-9.5 12.1c-.1.2-.3.2-.5.2zm-7.3-12.1 7.3 10.4 8.2-10.4z"/>
    <path fill="#fff" d="M436.9 172.7h-.2l-8.3-2.1c-.2 0-.4-.2-.5-.4 0-.2 0-.4.1-.6l9.5-12.1c.2-.2.5-.3.7-.2.3.1.4.4.4.7l-1.2 14.2c0 .2-.1.4-.3.5-.1 0-.2.1-.4.1zm-7.2-3.1 6.6 1.6.9-11.3-7.6 9.6z"/>
    <path fill="#fff" d="M436.901 172.7h-.3c-.2-.1-.3-.4-.3-.6l1.2-14.2c0-.2.1-.4.3-.5s.4-.1.5 0l13.6 3.8c.2 0 .4.3.5.5s0 .5-.3.6l-14.8 10.4c-.1 0-.2.1-.4.1zm1.8-14-1 12 12.6-8.8z"/>
    <path fill="#fff" d="M451.8 162.3h-.2l-13.6-3.8c-.3 0-.5-.3-.5-.6s.2-.5.4-.6l14.5-4.9c.2 0 .4 0 .6.1s.3.4.2.6l-.8 8.6c0 .2-.1.4-.3.5-.1 0-.2.1-.4.1zm-11.5-4.5 10.8 3 .7-6.9z"/>
    <path fill="#fff" d="M451.801 162.3h-.1c-.3 0-.5-.4-.5-.7l.8-8.6v-.3l5-8.3c.2-.3.5-.4.8-.3s.4.5.3.8l-5.8 17c0 .3-.3.4-.6.4zm1.4-9.1-.3 3.1 2.1-6z"/>
    <path fill="#fff" d="M438.1 158.5c-.2 0-.3 0-.5-.2s-.2-.4-.2-.7l5.9-17.3c0-.2.3-.4.5-.4s.5 0 .6.3l8.5 12.4q.15.3 0 .6c0 .2-.2.3-.4.4l-14.5 4.9h-.2zm6.2-16.5-5.1 14.8 12.4-4.2-7.3-10.7z"/>
    <path fill="#fff" d="M452.601 153.6c-.2 0-.4-.1-.5-.3l-8.5-12.4c-.2-.2-.2-.5 0-.8.2-.2.5-.3.7-.2l13.5 4.1c.2 0 .3.2.4.4v.6l-5 8.3c-.1.2-.3.3-.5.3zm-7-11.9 6.9 10.1 4.1-6.7-11-3.3zm-1.501-2h-.2c-.3 0-.5-.3-.5-.6v-14.4c0-.2 0-.4.3-.5.2-.1.4-.2.6 0l8.1 2.6c.2 0 .3.2.4.4v.6l-8.1 11.7c-.1.2-.3.3-.5.3zm.6-14.1V137l6.4-9.3z"/>
    <path fill="#fff" d="M457.6 145.3h-.2l-13.5-4.1c-.3 0-.5-.3-.5-.6v-1.4c0-.1 0-.3.1-.4l8.1-11.7c.1-.2.4-.3.6-.3s.4.2.5.4l5.5 17.3c0 .2 0 .5-.2.7-.1.1-.3.2-.5.2zm-12.9-5.3 11.9 3.6-4.7-14.9-7.2 10.5zm-7.8 32.7H419c-.3 0-.6-.3-.6-.6s.2-.6.5-.7l9.6-2.1h.3l8.3 2.1c.3 0 .5.4.5.7s-.3.6-.6.6zm-11.8-1.3h6.4l-3-.7zm40.701 108.5h-.2l-21.5-5.8c-.2 0-.4-.2-.4-.4v-.6l8-11.7c.1-.2.3-.3.5-.3s.4 0 .5.3l13.5 17.5c.2.2.2.5 0 .8-.1.2-.3.3-.5.3zm-20.4-6.9 18.8 5.1-11.7-15.3-7 10.2z"/>
    <path fill="#fff" d="M465.8 279.9c-.2 0-.4 0-.5-.3-.2-.2-.2-.5 0-.7l11.8-17.5c.1-.2.3-.3.5-.3s.4 0 .5.2l9.6 11.7c.1.2.2.4.1.6 0 .2-.2.4-.4.4l-21.5 5.8h-.2zm11.9-17.1-10.4 15.4 18.8-5.1-8.5-10.3zM444.401 297h-.3c-.2-.1-.4-.3-.4-.6v-23c0-.2.1-.4.3-.5s.4-.2.6 0l21.8 7.6c.2 0 .4.3.4.5s0 .5-.3.6l-21.8 15.3c-.1 0-.2.1-.4.1zm.6-22.7v20.8l19.7-13.9z"/>
    <path fill="#fff" d="M487.3 297c-.1 0-.3 0-.4-.1l-21.2-15.3c-.2-.1-.3-.4-.3-.6s.2-.4.4-.5l21.2-7.6h.6c.2.1.3.3.3.5v23c0 .2-.1.5-.4.6h-.3zm-19.8-15.8 19.2 13.9v-20.8zM444.401 297c-.2 0-.4-.1-.5-.3l-13.7-19.7c-.1-.2-.2-.4 0-.6s.2-.4.5-.4l13.7-3.2c.2 0 .4 0 .6.1s.2.3.2.5v23c0 .3-.2.5-.5.6zm-12.7-20 12 17.2v-20.1l-12 2.8z"/>
    <path fill="#fff" d="M430.6 277.2c-.3 0-.5-.1-.6-.4s0-.6.2-.8l21.8-14.9c.3-.2.6-.1.8 0 .2.2.3.6 0 .8l-8 11.7c0 .1-.2.2-.4.3l-13.7 3.2h-.1zm19.3-13-16 11 10.1-2.4zm49.101 13.6h-.2l-11.7-3.8c-.1 0-.2-.1-.3-.2l-9.7-11.7q-.3-.45 0-.9c.2-.2.6-.3.9 0l21.3 15.5c.3.2.3.5.2.8-.1.2-.3.4-.6.4zm-11.3-5 7.6 2.5-13.9-10.1z"/>
    <path fill="#fff" d="M465.8 279.9c-.2 0-.4 0-.5-.3l-13.5-17.5c-.2-.2-.2-.5 0-.7s.3-.4.6-.4h25.3c.2 0 .5.1.6.3s0 .5 0 .7l-11.8 17.5c-.1.2-.3.3-.5.3zm-12.1-17.6 12.1 15.8 10.7-15.8z"/>
    <path fill="#fff" d="M466.101 281.6h-.3c-.2 0-.3-.3-.3-.5l-.3-1.8c0-.3.1-.6.5-.7l21.5-5.8c.3 0 .7 0 .8.4s0 .7-.4.8l-21.2 7.6zm.5-1.9v.4l5-1.8z"/>
    <path fill="#fff" d="M466.102 281.6h-.2l-21.8-7.6c-.3-.1-.5-.5-.4-.8s.5-.5.8-.4l21.5 5.8c.2 0 .4.3.5.5l.3 1.8c0 .2 0 .5-.2.6-.1.1-.3.2-.4.2zm-4-2.7 3.2 1.1v-.3l-3.2-.9z"/>
    <path fill="#fff" d="M465.802 303h-.2l-21.5-6c-.2 0-.4-.3-.5-.5 0-.2 0-.5.3-.6l21.8-15.3c.2-.1.5-.2.7 0q.3.15.3.6l-.3 21.3c0 .2 0 .4-.3.5-.1 0-.3.1-.4.1zm-19.9-6.9 19.4 5.4.3-19.2-19.6 13.8z"/>
    <path fill="#fff" d="M465.802 303c-.1 0-.3 0-.4-.1-.2-.1-.3-.3-.3-.5l.3-21.3c0-.2.1-.5.4-.6.2-.1.5 0 .7 0l21.2 15.3c.2.1.3.4.3.6s-.2.4-.5.5l-21.5 6h-.2zm1-20.8-.3 19.2 19.4-5.4z"/>
    <path fill="#fff" d="M478.702 322.1c-.2 0-.4-.1-.5-.3l-12.9-19.2q-.15-.3 0-.6c0-.2.2-.3.4-.4l21.5-6c.2 0 .5 0 .6.2s.2.4.1.7l-8.6 25.1c0 .2-.3.4-.5.4zm-11.8-19.4 11.6 17.3 7.8-22.7z"/>
    <path fill="#fff" d="M452.4 322.1c-.2 0-.4-.2-.5-.4l-8-25.1c0-.2 0-.5.2-.6.2-.2.4-.2.6-.2l21.5 6c.2 0 .4.2.4.4v.6L453.1 322c-.1.2-.3.3-.5.3zm-7.1-24.8 7.3 22.8 12.2-17.3-19.4-5.4z"/>
    <path fill="#fff" d="M478.7 322.1h-26.3c-.2 0-.5-.1-.6-.4-.1-.2 0-.5 0-.7l13.5-19.2c.1-.2.3-.2.5-.3.2 0 .4.1.5.3l12.9 19.2c.1.2.1.5 0 .7q-.15.3-.6.3zm-25.1-1.3h23.8l-11.7-17.4-12.2 17.4z"/>
    <path fill="#fff" d="M452.4 322.1h-.2l-21.8-7.9c-.2 0-.3-.2-.4-.4 0-.2 0-.4.1-.6l13.7-17.3c.1-.2.4-.3.6-.2.2 0 .4.2.5.4l8 25.1c0 .2 0 .5-.2.7-.1.1-.3.2-.5.2zm-20.7-8.8 19.7 7.1-7.3-22.7z"/>
    <path fill="#fff" d="M430.601 314.2c-.1 0-.3 0-.4-.1-.3-.2-.4-.6-.2-.9l11.9-18c.2-.3.5-.4.8-.2l1.8.7c.2 0 .3.2.4.4 0 .2 0 .4-.1.6l-13.7 17.3c-.1.2-.3.2-.5.2m12.2-17.8-3.5 5.3 4-5.1z"/>
    <path fill="#fff" d="M444.402 297h-.2l-1.8-.7q-.15 0-.3-.3l-11.9-19c-.2-.3-.1-.7.2-.9s.7-.1.9.2l13.7 19.7c.2.2.2.5 0 .8-.1.2-.3.2-.5.2z"/>
    <path fill="#fff" d="M430.601 314.2c-.2 0-.4 0-.5-.3l-8.3-11.3c-.1-.2-.2-.4 0-.6 0-.2.2-.4.4-.4l20.2-6.7c.3 0 .6 0 .7.2.2.2.2.5 0 .8l-11.9 18c-.1.2-.3.3-.5.3zm-7.3-11.6 7.2 9.8 10.3-15.6-17.6 5.8z"/>
    <path fill="#fff" d="M422.302 303c-.2 0-.3 0-.5-.2s-.2-.4-.2-.7l8.3-25.7c0-.2.3-.4.5-.4.3 0 .5 0 .6.3l11.9 19q.15.3 0 .6c-.1.2-.2.3-.4.4zh-.2zm8.5-24.9-7.5 23.2 18.2-6.1z"/>
    <path fill="#fff" d="M429.901 326.6c-.3 0-.5-.2-.6-.5l-7.6-23.7c0-.3 0-.6.3-.8.3-.1.6 0 .8.2l8.3 11.3c0 .1.1.3.1.4l-.7 12.4c0 .3-.3.6-.6.6zm-5.8-20.7 5.3 16.6.5-8.7z"/>
    <path fill="#fff" d="M429.901 326.6c-.1 0-.3 0-.4-.1-.2-.1-.2-.3-.2-.5l.7-12.4c0-.2.1-.4.3-.5q.3-.15.6 0l19.8 7.2c.3 0 .4.4.4.6 0 .3-.2.5-.5.6l-20.5 5.3h-.2zm1.3-12.1-.6 10.7 17.6-4.5z"/>
    <path fill="#fff" d="M450.4 321.4h-.2l-19.8-7.2c-.3 0-.4-.3-.4-.6v-.2c.1-.3.5-.5.8-.4l19.8 7.2c.3 0 .4.3.4.6v.2c0 .3-.3.4-.6.4"/>
    <path fill="#fff" d="M450.901 342.7c-.1 0-.3 0-.4-.1l-21.1-16.1c-.2-.2-.3-.4-.2-.6s.2-.4.5-.5l20.5-5.3h.4l.7.2.5.2c.3 0 .4.3.4.6l-.6 20.9c0 .2-.1.5-.4.6h-.3zm-19.6-16.4 19 14.5.6-19.2-.5-.2-19 4.9z"/>
    <path fill="#fff" d="M451.101 321.6h-.2l-.7-.2c-.3 0-.4-.3-.4-.6v-.2c.1-.3.5-.5.8-.4l.7.2c.3 0 .4.3.4.6v.2c0 .3-.3.4-.6.4"/>
    <path fill="#fff" d="M450.901 342.7c-.2 0-.3 0-.4-.2-.2-.1-.2-.3-.2-.5l.6-20.9c0-.2.1-.4.3-.5q.3-.15.6 0l.8.3c.1 0 .2.1.3.2l12.5 17.6c.1.2.2.4 0 .6 0 .2-.3.4-.5.4l-13.9 3zm1.3-20.4-.6 19 12.1-2.6-11.6-16.4z"/>
    <path fill="#fff" d="M464.901 339.7c-.2 0-.4-.1-.5-.3l-12.5-17.6c-.1-.2-.2-.5 0-.7s.3-.4.6-.4h26.3c.2 0 .5.1.6.4.1.2 0 .5 0 .7l-13.9 17.6c-.1.2-.3.2-.5.2zm-11.2-17.6 11.2 15.9 12.5-15.9z"/>
    <path fill="#fff" d="M477.001 342.7h-.2l-12.1-3c-.2 0-.4-.2-.5-.4 0-.2 0-.4.1-.6l13.9-17.6c.2-.2.5-.3.7-.2.3.1.4.4.4.7l-1.7 20.6c0 .2-.1.4-.3.5-.1 0-.2.1-.4.1zm-11-4 10.4 2.6 1.5-17.7z"/>
    <path fill="#fff" d="M477 342.7h-.3c-.2-.1-.3-.4-.3-.6l1.7-20.6c0-.2.1-.4.3-.5s.4-.1.5 0l19.8 5.5c.2 0 .4.3.5.5s0 .5-.3.6l-21.5 15.1c-.1 0-.2.1-.4.1zm2.3-20.4-1.5 18.4 19.3-13.5-17.7-4.9z"/>
    <path fill="#fff" d="M498.5 327.6h-.2l-19.8-5.5c-.3 0-.5-.3-.5-.6s.2-.5.4-.6l21-7.1c.2 0 .4 0 .6.1s.3.4.2.6l-1.2 12.6c0 .2-.1.4-.3.5-.1 0-.2.1-.4.1zm-17.6-6.2 17 4.7 1-10.8z"/>
    <path fill="#fff" d="M498.5 327.6h-.1c-.3 0-.5-.4-.5-.7l1.2-12.6v-.3l7.3-12.1c.2-.3.5-.4.8-.3s.4.5.3.8L499 327c0 .3-.3.4-.6.4zm1.8-13-.7 7 4.7-13.7z"/>
    <path fill="#fff" d="M478.7 322.1c-.2 0-.3 0-.5-.2s-.2-.4-.2-.7l8.6-25.1c0-.2.3-.4.5-.4s.5 0 .6.3l12.4 18.1q.15.3 0 .6c0 .2-.2.3-.4.4l-21 7.1h-.2zm8.8-24.3-7.8 22.7 18.9-6.4-11.2-16.3z"/>
    <path fill="#fff" d="M499.7 315.1c-.2 0-.4-.1-.5-.3l-12.4-18.1c-.2-.2-.2-.5 0-.8.2-.2.4-.3.7-.2l19.7 6c.2 0 .3.2.4.4v.6l-7.3 12.1c-.1.2-.3.3-.5.3zm-10.8-17.6 10.8 15.7 6.3-10.5zm-1.598-2.6h-.2c-.3 0-.5-.3-.5-.6v-20.9c0-.2 0-.4.3-.5.2-.1.4-.2.6 0l11.7 3.8c.2 0 .3.2.4.4v.6l-11.7 17.1c-.1.2-.3.3-.5.3zm.7-20.6v17.9l10-14.6z"/>
    <path fill="#fff" d="M507.002 303h-.2l-19.7-6c-.3 0-.5-.3-.5-.6v-2.1c0-.1 0-.3.1-.4l11.7-17.1c.1-.2.4-.3.6-.3s.4.2.5.4l8 25.1c0 .2 0 .5-.2.7-.1.1-.3.2-.5.2zm-19-7.2 18 5.5-7.2-22.7-10.8 15.8zM477 342.7h-26c-.3 0-.6-.3-.6-.6s.2-.6.5-.7l13.9-3h.3l12.1 3c.3 0 .5.4.5.7s-.3.6-.6.6zm-19.9-1.3h14.6l-6.8-1.7zm-55.798-3.6c-.1 0-.3 0-.4-.1-.2-.1-.3-.3-.3-.5v-7.3c0-.2.1-.5.4-.6.2-.1.5 0 .7 0l6.9 5.3c.2.1.3.4.2.6 0 .2-.2.4-.5.5l-6.9 2.1h-.2zm.6-6.7v5.1l4.8-1.4zm-.601-3.5h-.3q-.3-.15-.3-.6v-1.2c0-.3.2-.5.5-.6l3-.9c.3 0 .6 0 .8.3.1.3 0 .6-.2.8l-3 2c-.1 0-.2.1-.4.1zm.001 20.3h-.3c-.2-.1-.4-.3-.4-.6v-4.4c0-.2.1-.5.4-.6.2-.1.5 0 .7 0l2.8 2.2c.2.1.2.3.2.5s0 .4-.3.5l-2.8 2.1c-.1 0-.3.1-.4.1zm.6-3.7v1.7l1.1-.9-1.1-.9z"/>
    <path fill="#fff" d="M404.101 345.8c-.1 0-.3 0-.4-.1l-2.8-2.2c-.2-.1-.2-.3-.2-.5v-5.7c0-.3.2-.5.5-.6l6.9-2.1c.2 0 .5 0 .7.2s.2.4.1.7l-4 10c0 .2-.2.3-.4.4h-.2zm-2.2-3.3 1.9 1.5 3.2-8-5.1 1.5z"/>
    <path fill="#fff" d="m415.3 346.4-11.2-.7c-.2 0-.4-.1-.5-.3q-.15-.3 0-.6l4-10c0-.2.3-.4.5-.4s.5 0 .6.3l7.1 10.7c.1.2.1.5 0 .7q-.15.3-.6.3zm-10.2-1.9 9 .6-5.7-8.6-3.2 8.1z"/>
    <path fill="#fff" d="M407.502 356.6h-.2l-6.3-2.2c-.3 0-.4-.3-.4-.6v-6.4c0-.2 0-.4.3-.5l2.8-2.1c.2-.1.4-.2.6 0 .2 0 .4.2.4.4l3.4 10.8c0 .2 0 .5-.2.7-.1.1-.3.2-.5.2zm-5.6-3.4 4.6 1.6-2.7-8.7-1.9 1.4z"/>
    <path fill="#fff" d="M407.5 356.6h-.1c-.2 0-.4-.2-.5-.4l-3.4-10.8c0-.2 0-.4.1-.6s.3-.3.6-.2l11.2.7c.2 0 .5.2.6.4s0 .5 0 .7l-7.8 10.1c-.1.2-.3.3-.5.3zm-2.5-10.8 2.7 8.7 6.3-8.2-9-.6z"/>
    <path fill="#fff" d="M401.302 360.6c-.4 0-.7-.3-.7-.7v-6.3c0-.2.1-.4.3-.5s.4-.2.6 0l6.3 2.2c.2 0 .4.3.4.5s0 .5-.3.6l-6.2 4c-.1 0-.3.2-.4.2m.6-6v4.1l4.1-2.7-4.1-1.5zm.7 12h-.2l-1.4-.5c-.3 0-.4-.3-.4-.6v-.7c0-.3.1-.5.4-.6.2-.1.5 0 .7 0l1.4 1.2c.2.2.3.5.1.8q-.15.3-.6.3z"/>
    <path fill="#fff" d="M402.602 366.6c-.2 0-.3 0-.4-.2l-1.4-1.2c-.1-.1-.2-.3-.2-.5v-4.8c0-.2.1-.4.3-.5l5.4-3.5c.2-.2.6-.1.8 0 .2.2.3.5.2.8l-4 9.5c0 .2-.2.3-.5.4zm-.7-2.1.5.4 2.9-6.7-3.3 2.1v4.2z"/>
    <path fill="#fff" d="M404.001 362.1c-.4 0-.7-.3-.7-.7V355c0-.4.3-.7.7-.7s.7.3.7.7v6.4c0 .4-.3.7-.7.7"/>
    <path fill="#fff" d="M402.601 366.6c-.2 0-.4 0-.5-.2-.2-.2-.2-.5-.1-.7l4-9.5c0-.1.1-.2.2-.3l.5-.3c.2-.2.5-.1.8 0l7.9 6.4c.2.2.3.4.2.6s-.2.4-.5.5l-12.4 3.4h-.2zm4.6-9.6-3.4 8 9.9-2.7z"/>
    <path fill="#fff" d="M407.2 357h-.6c-.4 0-.7-.3-.7-.7s.3-.7.7-.7h.6c.4 0 .7.3.7.7s-.3.7-.7.7"/>
    <path fill="#fff" d="M415.102 363.2c-.1 0-.3 0-.4-.1l-7.9-6.4c-.2-.1-.3-.3-.2-.5 0-.2.1-.4.3-.5l.4-.2c.1 0 .2-.1.4-.1l10.5.4c.2 0 .4.1.5.3q.15.3 0 .6l-3 6.2c0 .2-.2.3-.4.4h-.1zm-6.3-6.6 6 4.9 2.2-4.6z"/>
    <path fill="#fff" d="M407.202 356.8c-.2 0-.4-.1-.5-.3 0-.1-.1-.2-.1-.3 0-.2.1-.4.3-.5l.4-.2c.3-.2.7-.1.9.2 0 .1.1.2.1.3 0 .2-.1.4-.3.5l-.4.2c-.1 0-.2.1-.3.1z"/>
    <path fill="#fff" d="m418.002 357-10.5-.4c-.2 0-.5-.2-.6-.4s0-.5 0-.7l7.8-10.1c.2-.2.4-.3.6-.2.2 0 .4.2.5.5l2.7 10.5c0 .2 0 .4-.1.6s-.3.2-.5.2zm-9.2-1.7 8.3.3-2.2-8.4-6.2 8.1z"/>
    <path fill="#fff" d="M418.001 357h-.2c-.2 0-.4-.2-.4-.5l-2.7-10.5c0-.3 0-.6.3-.7.2-.1.6-.1.8 0l7.4 6.7c.1.1.2.3.2.5s0 .4-.2.5l-4.7 3.8c-.1 0-.3.1-.4.1zm-1.5-9.3 1.9 7.5 3.3-2.7-5.3-4.8z"/>
    <path fill="#fff" d="M422.701 353.2c-.2 0-.3 0-.4-.2l-7.4-6.7c-.1-.1-.2-.3-.2-.5s.1-.4.3-.5l8-6c.2-.2.5-.2.7 0 .2.1.4.4.3.6l-.5 12.8c0 .3-.2.5-.4.6h-.3zm-6.4-7.4 5.8 5.3.4-10z"/>
    <path fill="#fff" d="M415.301 346.4c-.1 0-.3 0-.4-.1-.2-.2-.3-.5-.2-.7l3.5-10.2c0-.2.2-.4.5-.4.2 0 .4 0 .6.2l4.5 4.2c.1.1.2.3.2.5s-.1.4-.3.5l-8 6c-.1 0-.3.1-.4.1zm3.8-9.6-2.5 7.2 5.6-4.3-3.2-3z"/>
    <path fill="#fff" d="M423.302 340.4c-.2 0-.3 0-.4-.2l-4.5-4.2-.2-.2-2.5-6.4c-.1-.3 0-.7.3-.8.3-.2.7 0 .8.2l7 10.5c.2.3.1.6-.1.9-.1.1-.3.2-.4.2m-4-5.1.4.3-.6-.9.2.5z"/>
    <path fill="#fff" d="M415.3 346.4c-.2 0-.4-.1-.5-.3l-7.1-10.7c-.1-.2-.1-.5 0-.7s.4-.3.6-.3l10.6.6c.2 0 .4.1.5.3q.15.3 0 .6l-3.5 10.2c0 .2-.3.4-.5.4zm-5.9-10.6 5.7 8.6 2.8-8.1z"/>
    <path fill="#fff" d="m418.802 336.3-10.6-.6c-.3 0-.5-.2-.6-.5 0-.3 0-.6.2-.7l8.1-5.8c.2-.1.4-.2.6 0 .2 0 .3.2.4.4l2.5 6.4v.6c-.1.2-.3.3-.5.3zm-8.8-1.8 7.8.4-1.8-4.7-5.9 4.2z"/>
    <path fill="#fff" d="M407.401 335.1c-.1 0-.3 0-.4-.1l-6-4.6c-.2-.1-.3-.3-.3-.5V327c0-.2.1-.4.3-.5l3-2q.3-.15.6 0c.2 0 .3.2.4.4l3.1 9.5c0 .3 0 .6-.2.7-.1 0-.2.1-.4.1zm-5.5-5.6 4.2 3.2-2.2-6.7-2 1.3z"/>
    <path fill="#fff" d="M404.302 336.6c-.4 0-.7-.3-.7-.7v-7.7c0-.4.3-.7.7-.7s.7.3.7.7v7.7c0 .4-.3.7-.7.7"/>
    <path fill="#fff" d="M408.201 335.7c-.1 0-.3 0-.4-.1l-.8-.6c-.1 0-.2-.2-.2-.3l-3.1-9.5c0-.2 0-.5.2-.7s.4-.2.7-.1l12 4.3c.2 0 .4.3.4.5s0 .5-.3.6l-8.1 5.8c-.1 0-.2.1-.4.1m-.3-1.6.3.2 6.7-4.8-9.6-3.5z"/>
    <path fill="#fff" d="M408.201 335.7c-.1 0-.3 0-.4-.1l-.8-.6c-.2-.1-.3-.3-.3-.5s0-.3.1-.4c.2-.3.6-.3.9-.1l.8.6c.2.1.3.3.3.5s0 .3-.1.4c-.1.2-.3.3-.5.3zm6.899 27.5h-.3c-.3-.2-.4-.5-.2-.8l3-6.2s.1-.2.2-.2l4.7-3.8q.45-.3.9 0c.2.2.3.6 0 .9l-7.7 10c-.1.2-.3.3-.5.3zm3.4-6.5-.3.6.7-.9-.4.4zm-162-220.1c-.1 0-.3 0-.4-.1-.2 0-.2-.2-.3-.4l-1.8-5.4v-.6c.1-.2.3-.3.5-.3h8.9c.3 0 .5.2.6.4s0 .6-.2.7l-7.1 5.4h-.4zm-.9-5.4 1.2 3.7 4.9-3.7z"/>
    <path fill="#fff" d="M263.7 131.2c-.3 0-.5-.2-.6-.4l-2.7-8.1v-.6c0-.2.3-.3.5-.3l6.1-.2c.2 0 .4 0 .6.3.1.2.2.4 0 .6l-3.4 8.3c-.1.2-.3.4-.6.4zm-1.9-8.2 1.9 5.6 2.4-5.8-4.2.2zm-5.3 13.6h-.2c-.2 0-.4-.2-.4-.4 0-.3 0-.6.2-.7.2-.2.5-.2.7 0 .2.1.3.3.3.5s0 .4-.3.6c-.1 0-.3.1-.4.1z"/>
    <path fill="#fff" d="M263.9 140.7h-.3l-7.4-4.1c-.2-.1-.3-.3-.3-.5q0-.3.3-.6l7.7-5.1c.2-.1.5-.1.7 0q.3.15.3.6l-.4 9.2c0 .2-.1.4-.3.5zm-6.1-4.8 5.5 3 .3-6.9-5.8 3.8z"/>
    <path fill="#fff" d="M264.302 131.5c-.2 0-.3 0-.5-.2s-.2-.4-.2-.7l2.8-8.6c0-.2.2-.4.4-.4s.4 0 .6.1l7.4 5.6c.2.1.3.4.2.6s-.2.4-.5.5l-10.1 3h-.2zm3.1-8.2-2.1 6.6 7.7-2.3zM256.5 136.5h-.3l-2-1.1c-.2-.1-.3-.4-.3-.6l.2-4.3c0-.3.3-.6.6-.6s.6.1.7.4l1.8 5.4c0 .3 0 .5-.2.7-.1 0-.3.1-.4.1zm-1.3-2.1h.2c0 .1-.2-.4-.2-.4z"/>
    <path fill="#fff" d="M260.901 123.1c-.3 0-.6-.2-.6-.5s.1-.6.5-.7l10.2-3c.3 0 .6 0 .8.3s0 .6-.2.8l-4.1 2.8c-.1 0-.2.1-.3.1l-6.1.2zm6.5-1.9-1.4.4h.8l.5-.4z"/>
    <path fill="#fff" d="M254.701 131.2c-.2 0-.5-.1-.6-.4-.1-.2 0-.5 0-.7l6.2-8.1c.1-.2.4-.3.6-.2.2 0 .4.2.5.4l2.7 8.1v.6c-.1.2-.3.3-.5.3zm6-7.4-4.7 6.1h6.7z"/>
    <path fill="#fff" d="M264.3 131.5h-.3l-.6-.3c-.3-.2-.4-.5-.3-.8l3.4-8.3c.1-.3.5-.5.8-.4s.5.5.4.8l-2.8 8.6c0 .2-.2.3-.4.4z"/>
    <path fill="#fff" d="M256.501 136.6c-.3 0-.5-.2-.6-.4s0-.6.2-.7l7.1-5.4c.2-.2.5-.2.7 0l.6.3c.2.1.3.3.3.5q0 .3-.3.6l-7.7 5.1c-.1 0-.2.1-.4.1z"/>
    <path fill="#fff" d="M256.502 136.6c-.2 0-.4 0-.5-.2-.2-.3-.2-.7 0-.9.1-.1.3-.2.5-.2.3 0 .5.2.6.4 0 .3 0 .6-.2.7-.1 0-.3.1-.4.1zm8.599 4.7h-.3l-1.2-.6q-.3-.15-.3-.6l.4-9.2c0-.2.2-.5.4-.6s.5 0 .7 0l6.8 5.3c.2.2.3.5.2.7 0 .1-.1.3-.3.3l-5.9 4.5c-.1 0-.3.1-.4.1zm-.5-1.7.4.2 4.9-3.7-5.1-4-.3 7.5z"/>
    <path fill="#fff" d="M271.101 136.8c-.1 0-.3 0-.4-.1l-6.8-5.3c-.2-.2-.3-.4-.2-.6 0-.2.2-.4.5-.5l10.1-3c.2 0 .5 0 .7.2s.2.4.1.7l-3.3 8.3c0 .2-.2.3-.4.4h-.2zm-5.4-5.7 5.1 4 2.5-6.3z"/>
    <path fill="#fff" d="m280.301 137.4-9.3-.6c-.2 0-.4-.1-.5-.3q-.15-.3 0-.6l3.3-8.3c0-.2.3-.4.5-.4s.5 0 .6.3l5.9 8.9c.1.2.1.5 0 .7q-.15.3-.6.3zm-8.3-1.8 7.1.4-4.5-6.8z"/>
    <path fill="#fff" d="M273.9 145.8h-.2l-1.7-.6h-.2l-7-3.9c-.2-.1-.3-.3-.3-.5s0-.4.3-.6l6-4.5c.2-.1.4-.2.6-.1.2 0 .4.2.4.4l2.8 9c0 .2 0 .5-.2.7-.1.1-.3.2-.5.2zm-1.5-1.9.5.2-2.2-6.9-4.4 3.3z"/>
    <path fill="#fff" d="M273.9 145.8h-.1c-.2 0-.4-.2-.5-.4l-2.8-9c0-.2 0-.4.1-.6s.3-.3.6-.2l9.3.6c.2 0 .5.2.6.4v.7l-6.5 8.4c-.1.2-.3.3-.5.3zm-1.9-8.9 2.2 6.9 4.9-6.5z"/>
    <path fill="#fff" d="M273.6 146h-.3l-1.5-.8c-.3-.2-.4-.5-.3-.8s.5-.5.8-.3l1.8.6c.2 0 .4.3.4.5s0 .5-.3.6l-.3.2c-.1 0-.2.1-.4.1zm112.7 338.8c-3.2 0-7.3-1.3-12.5-4-8.7-4.5-68-37-122.2-66.8-.3-.2-.4-.5-.3-.8l11.4-24.6-74.5-16.8v6.1q0 .3-.3.6-.3.15-.6 0c-3.8-2.1-6.6-3.7-8-4.5-14.5-8.3-19.7-17.6-19.7-35.6V231.8l30.7-66.5-30.3-6.8c-.3 0-.5-.3-.5-.6v-49.1c0-6.2 1.3-10.2 4-12.1l.4-.3c1-.6 2.2-.9 3.5-.9h1.8c.7 0 1.4.2 2.1.4.3 0 .6.2.8.2v.7l.1-.6c.2 0 .5.2.7.2h.2c.3 0 .5.2.8.3.4.1.7.3 1 .4s.6.3.9.4h.3c.2.2.5.3.7.5l.3.2c.2.1.5.2.7.4l.3.2c.3.2.7.4 1 .6 3.7 2.1 20.1 11.1 42.7 23.6l52.3 28.9c64.2 35.5 97.3 53.9 101.2 56.3h.1l.5.3c9.4 5.7 20.1 12.3 20.1 31.6v232.4c-.1.3-.2.6-.2.8 0 .3 0 .6-.1.8l-.2 1.1c0 .2 0 .5-.1.7v.2c0 .2 0 .4-.1.5l-.3.9c0 .2-.1.4-.2.6-.2.5-.3.9-.5 1.3l-.2.4c0 .1 0 .2-.1.3l-.3.6c-.5.9-1.2 1.6-1.9 2.2-.5.4-1.1.8-1.7 1-1.1.5-2.4.8-3.8.8zm-133.6-71.6c54 29.7 113.1 62 121.7 66.4 7 3.6 11.9 4.7 15.1 3.2.5-.2.9-.5 1.4-.9.6-.5 1.2-1.2 1.6-1.9 0-.1.2-.3.3-.5l.3-.6c.2-.4.3-.8.5-1.2 0-.2.1-.4.2-.6l.2-.9c0-.2 0-.3.1-.5 0-.4.1-.6.1-.8l.2-1v-2.8c.1-.3.1-.6.2-.9V239.9c0-18.6-10.4-24.9-19.5-30.5l-.6-.4h-.1c-4.4-2.7-37.5-21.1-101.1-56.2L221 123.9c-22.6-12.5-39-21.5-42.7-23.6-.3-.2-.7-.4-1-.5l-.3-.2c-.2-.1-.5-.2-.7-.4l-.3-.2c-.2-.1-.4-.2-.7-.3h-.2c-.3-.3-.6-.4-.9-.5s-.6-.3-.9-.4h-.1c-.2 0-.5-.2-.7-.3h-.1c-.3-.1-.5-.2-.7-.3h-.1c-.2-.1-.4-.2-.6-.2h-.2c-.6-.2-1.2-.3-1.8-.4h-1.7c-1.1 0-2.1.3-2.9.8l-.4.2c-2.3 1.6-3.5 5.4-3.5 11.1v48.6l30.5 6.9c.2 0 .4.2.4.3v.6l-31 67.1v106.2c0 17.4 5 26.5 19 34.5 1.3.7 3.7 2.1 7 3.9V371c0-.2 0-.4.2-.5s.4-.2.5-.1l76.1 17.1c.2 0 .4.2.4.3v.6l-11.4 24.8zm86.2 18.3h-.1c-.1 0-.2 0-.3-.1L294 402.9c-.2-.1-.3-.3-.3-.5v-38.3c-.3-.2-.6-.4-1-.6-1.1-.7-2.2-1.5-3.2-2.3-3-2.4-5.2-5-6.8-7.9-2.9-5.4-2.7-10.5-2.5-14.2v-8.8c-2.1.2-4.2 0-6.4-.5v5.9c.2 3.9.4 9.4-2.6 12.3l-.3.3c-1.7 1.4-4 2-7 1.7-1 0-2.2-.3-3.4-.6-1.6-.4-3.1-.9-4.6-1.6h-.3c0-.2-.2-.2-.3-.3h-.2c-1.5-.7-3-1.6-4.6-2.6-2.1-1.4-4.1-2.9-6-4.7-5-4.7-9.3-10.7-12.8-17.8-.8-1.7-1.6-3.5-2.3-5.3-.5-1.3-1-2.6-1.4-3.8q-.45-1.2-.9-2.7c-1.5-5.7-.8-10.1-.5-11.4-.5-.5-.9-1-1.4-1.4-2.9-3.2-5.2-6.3-6.7-9.4-4.8-9.6-.8-14.8-.7-15.1.1-.2.3-.2.5-.3.2 0 .4 0 .5.2.3.4.7.8 1.1 1.2 2.8 3.1 6.7 6.5 10.5 9.1.8.6 1.6 1 2.3 1.2.9.3 1.7.4 2.3.2l.3-.2c.2-.1.3-.4.4-.5v-1c0-.3 0-.6-.2-.9-.2-.6-.4-1.2-.8-1.7-.6-.8-1.3-1.4-2.3-1.9h-.2c-.1-.2-.3-.2-.4-.3-5.1-2.7-12.2-7.8-15.2-19.8-2.4-9.3 2.9-12.3 5.2-13.2.5-.2.9-.3 1.3-.4 0-.3-.2-.7-.3-1.1-.4-1.7-.7-3.3-1-4.8-1-7.2.6-11.5 4.6-12.5.7-.2 1.4-.2 2.2-.2h.9c12.4 1.5 20.6 14.9 21.5 21.7.9 6.9 1.8 8.3 4.1 9 .7.2 1.2.3 1.5.2h.1c.2-.1.3-.3.4-.7s.2-1 .1-1.7c0-2.1-.8-5.4-2.2-9.8-4-12.8-16.5-21.1-16.6-21.2 0 0-.2-.1-.2-.2 0 0-.2-.4-.4-.9-.6-1.5-1.4-4.5-.2-7.1.8-1.7 2.3-3 4.4-3.8 1.8-.7 4-1 6.6-1v-31.8c0-.2 0-.4.2-.5s.4-.2.5-.1l61.7 13.9c.2 0 .4.2.4.3v.6l-17.3 37.4c2.5 2.2 5.4 5.2 8.7 8.7 11.4 12.2 11.9 18.7 11.2 21.4-.1.5-.3.9-.5 1.3s-.4.6-.5.6c-.2.2-.4.2-.7.1 0 0-5.6-2.1-10.1-.5-2.1.8-3.6 2.2-4.5 4.3-4.1 9.3-1.1 11.3.5 12.4.8.5 1.3.7 1.6.6q.45-.3.6-.9c.1-.3.2-.7.3-1.1.2-.8.4-1.7.6-3 .4-2.9 2.4-5.2 5.2-6.1 2.4-.8 7.6-1.1 14.7 5.7l.8.8c5.7 5.9 6.1 12.7 5.4 17.3-.3 2.2-.9 3.8-1.1 4.5 1.4 1.7 7.9 10.4 5.6 18.1-.7 2.3-1.8 4-3.1 5.2-3.3 2.8-7.6 1.4-10.6.2h-.5c-.3-.2-.5-.3-.7-.4h-1c-.2.1-.4.3-.5.6s-.2.8-.2 1.3.9 2.7 3.1 3.9c.6.4 1.3.6 1.9.8 3.6.9 7.4 1.1 9.7.4.3 0 .7 0 .8.4.1.3 3.4 8.4-.7 13.3-.4.5-.9.9-1.4 1.3-1 .7-2.2 1.3-3.6 1.7-.3 0-.7.2-1 .2-.2 0-.5 0-.8.1.2 1.3.5 4.3 0 7.5l46.5 10.5c.2 0 .4.2.4.3v.6l-31.5 68.1v.1c-.1.2-.3.4-.6.4zM295 401.9l43.6 27.9 30.9-66.8-46.3-10.4c-.3 0-.6-.4-.5-.8.8-4.1 0-8.3 0-8.3 0-.2 0-.4.1-.5s.3-.2.5-.3c.5 0 .9-.1 1.3-.2.3 0 .6-.1.9-.2 1.2-.3 2.3-.8 3.2-1.5.4-.3.8-.7 1.2-1.1 3-3.6 1.3-9.6.7-11.4-2.5.6-6.2.4-9.8-.5-.8-.2-1.6-.5-2.3-.9-2.6-1.5-3.7-4.1-3.7-5.1s0-1.2.2-1.7c.2-.6.6-1.1 1.1-1.4.5-.2 1.1-.3 1.8-.1.3 0 .6.2 1 .3l.4.2c4.2 1.8 7.2 1.8 9.2 0 1.2-1 2.1-2.5 2.7-4.6 2.4-7.8-5.5-17.1-5.6-17.2-.2-.2-.2-.5-.1-.7 0 0 .8-1.8 1.2-4.6.6-4.3.2-10.6-5.1-16.2l-.7-.7c-6.6-6.3-11.3-6.1-13.4-5.4-2.3.7-3.9 2.7-4.3 5.1-.2 1.3-.4 2.4-.6 3.2-.1.5-.3.9-.4 1.2-.3.7-.6 1.2-1.1 1.5 0 0-.1 0-.2.1-1 .4-2.1-.1-2.9-.7-2.9-2-5-5-1-14 1.1-2.5 2.9-4.2 5.3-5 4.2-1.5 9-.2 10.5.3.2-.3.3-.6.4-1 .7-2.5.1-8.5-10.9-20.2-3.4-3.7-6.4-6.7-9-8.9-.2-.2-.3-.5-.2-.8l17.2-37.1-60.2-13.5v31.6c0 .2 0 .3-.2.5-.1.1-.3.2-.5.2-2.8 0-5.1.3-6.8 1-1.8.7-3.1 1.7-3.7 3.1-1 2.2-.3 4.8.2 6.1.1.3.2.5.3.7 1.5 1 13.1 9.2 17 21.8 1.4 4.6 2.2 7.9 2.3 10.1 0 .9 0 1.5-.2 2.1s-.5 1.1-.9 1.4c-.1 0-.3.2-.4.2-.8.3-1.7 0-2.4-.2-3.2-1.1-4.1-3.6-5-10.1-.8-6.3-8.8-19.2-20.4-20.5h-.8c-.7 0-1.3 0-1.8.2-4.1 1-4.2 6.6-3.6 11.1.2 1.5.5 3.1.9 4.7q.15.75.3 1.2c0 .3.1.5.1.5v.6c-.1.2-.3.3-.5.3 0 0-.7 0-1.7.4-2.5.9-6.5 3.7-4.4 11.7 2.9 11.5 9.7 16.3 14.6 18.9.1 0 .2.1.4.2h.2c1.2.7 2.1 1.5 2.8 2.4.5.6.8 1.4 1 2.1 0 .3.2.7.2 1.1v.9c0 .2 0 .4-.1.6q-.3.75-.9 1.2l-.4.2c-1 .4-2.1.4-3.3-.1-.8-.3-1.7-.8-2.6-1.4-3.8-2.6-7.8-6.1-10.7-9.2-.2-.2-.4-.4-.5-.6-.8 1.6-2.3 6 1.2 13 1.5 2.9 3.7 6 6.5 9.1.5.5 1 1.1 1.6 1.7.2.2.2.4.2.6 0 0-1.2 4.8.5 11.1.3.9.5 1.8.8 2.6.4 1.3.9 2.5 1.4 3.8.7 1.8 1.5 3.5 2.3 5.2 3.4 7 7.6 12.9 12.5 17.5 1.8 1.7 3.8 3.2 5.8 4.6 1.5 1 3 1.8 4.5 2.5h.1l.2.2h.3c1.4.8 2.9 1.3 4.4 1.7 1.1.3 2.2.5 3.2.5 2.6.2 4.6-.2 6-1.4l.3-.3c2.6-2.5 2.4-7.6 2.2-11.3v-6.7c0-.2.1-.4.3-.5s.4-.2.6-.1c2.6.7 5.1.9 7.4.6.2 0 .4 0 .5.1s.2.3.2.5v9.5c-.2 3.6-.4 8.5 2.3 13.6 1.4 2.7 3.6 5.2 6.4 7.5 1 .8 2 1.5 3.1 2.2.4.3.8.5 1.2.8q.3.15.3.6v38.3z"/>
    <path fill="#fff" d="M273.401 146.1c-.2 0-.4-.1-.5-.3 0-.1-.1-.2-.1-.4s.1-.4.3-.5h.2c.3-.3.7-.2.9 0 0 .1.1.2.1.4s-.1.4-.3.5h-.2c-.1.2-.2.2-.4.2z"/>
    <path fill="#fff" d="M280.8 150h-.3l-7.2-4c-.3-.1-.4-.4-.3-.7 0-.2.2-.3.3-.4l.3-.2c.1 0 .2-.1.4-.1l8.7.3c.2 0 .4.1.5.3q.15.3 0 .6l-1.8 3.8c0 .2-.2.3-.4.3h-.2zm-4.9-4.1 4.6 2.5 1.1-2.3z"/>
    <path fill="#fff" d="M273.6 146c-.2 0-.4-.1-.5-.3 0-.1-.1-.2-.1-.3q0-.3.3-.6l.3-.2c.3-.2.7-.1.9.2 0 .1.1.2.1.3q0 .3-.3.6l-.3.2c-.1 0-.2.1-.3.1z"/>
    <path fill="#fff" d="M273.6 146c-.2 0-.4 0-.5-.3 0-.1-.1-.2-.1-.4s0-.4.3-.5c.3-.2.7-.1.9.2 0 .1.1.2.1.4s-.1.4-.3.5c-.1 0-.2.1-.4.1"/>
    <path fill="#fff" d="m282.6 146.1-8.7-.3c-.2 0-.5-.2-.6-.4s0-.5 0-.7l6.5-8.4c.2-.2.4-.3.6-.2.2 0 .4.2.5.5l2.2 8.8c0 .2 0 .4-.1.6s-.3.2-.5.2zm-7.4-1.5 6.6.3-1.7-6.6-4.9 6.4z"/>
    <path fill="#fff" d="M282.601 146.1h-.2c-.2 0-.4-.2-.4-.5l-2.2-8.8c0-.3 0-.6.3-.7.2-.1.6-.1.8 0l6.2 5.6c.1.1.2.3.2.5s0 .4-.2.5l-3.9 3.1c-.1 0-.3.1-.4.1zm-1.1-7.4 1.5 5.7 2.5-2-4-3.6z"/>
    <path fill="#fff" d="M286.501 143c-.2 0-.3 0-.4-.2l-6.2-5.6c-.1-.1-.2-.3-.2-.5s.1-.4.3-.5l6.6-5c.2-.2.5-.2.7 0 .2.1.4.4.3.6l-.4 10.6c0 .3-.2.5-.4.6zm-5.1-6.2 4.6 4.1.3-7.8z"/>
    <path fill="#fff" d="M280.301 137.4c-.1 0-.3 0-.4-.1-.2-.2-.3-.5-.2-.7l2.9-8.5c0-.2.2-.4.5-.4.2 0 .4 0 .6.2l3.7 3.5c.1.1.2.3.2.5s-.1.4-.3.5l-6.6 5c-.1 0-.3.1-.4.1zm3.2-8-1.9 5.5 4.3-3.2z"/>
    <path fill="#fff" d="M287 132.4c-.2 0-.3 0-.4-.2l-3.7-3.5-.2-.2-2.1-5.3c-.1-.3 0-.7.3-.8.3-.2.7 0 .8.2l5.8 8.8c.2.3.1.6-.1.9-.1.1-.3.2-.4.2z"/>
    <path fill="#fff" d="M280.301 137.4c-.2 0-.4-.1-.5-.3l-5.9-8.9c-.1-.2-.1-.5 0-.7s.4-.3.6-.3l8.8.5c.2 0 .4.1.5.3q.15.3 0 .6l-2.9 8.5c0 .2-.3.4-.5.4zm-4.6-8.9 4.5 6.8 2.2-6.4z"/>
    <path fill="#fff" d="m283.201 128.9-8.8-.5c-.3 0-.5-.2-.6-.5 0-.3 0-.5.2-.7l6.7-4.8c.2-.1.4-.2.6 0 .2 0 .3.2.4.4l2.1 5.3v.6c-.1.2-.3.3-.5.3zm-6.9-1.6 6 .3-1.4-3.6z"/>
    <path fill="#fff" d="M273.701 127.9c-.1 0-.3 0-.4-.1l-6.7-5.1c-.2-.1-.3-.3-.3-.5s.1-.4.3-.5l4.1-2.8q.3-.15.6 0c.2 0 .3.2.4.4l2.6 7.9c0 .3 0 .6-.2.7-.1 0-.2.1-.4.1zm-5.5-5.7 4.3 3.3-1.7-5.1z"/>
    <path fill="#fff" d="M273.701 127.9c-.1 0-.3 0-.4-.1l-6.7-5.1c-.2-.1-.3-.3-.3-.5s0-.3.1-.4c.2-.3.6-.3.9-.1l6.7 5.1c.2.1.3.3.3.5s0 .3-.1.4c-.1.2-.3.3-.5.3z"/>
    <path fill="#fff" d="M274.4 128.5c-.1 0-.3 0-.4-.1l-.7-.5c-.1 0-.2-.2-.2-.3l-2.6-7.9c0-.2 0-.5.2-.7s.4-.2.7-.1l10 3.6c.2 0 .4.3.4.5s0 .5-.3.6l-6.7 4.8c-.1 0-.2.1-.4.1m-.1-1.6h.1c0 .1 5.3-3.7 5.3-3.7l-7.6-2.7 2.1 6.5z"/>
    <path fill="#fff" d="M274.4 128.5c-.1 0-.3 0-.4-.1l-.7-.5c-.2-.1-.3-.3-.3-.5s0-.3.1-.4c.2-.3.6-.3.9-.1l.7.5c.2.1.3.3.3.5s0 .3-.1.4c-.1.2-.3.3-.5.3zm6.701 21.6h-.5c-.2-.2-.4-.5-.4-.7v-.3l1.8-3.8s.1-.2.2-.2l3.9-3.1q.45-.3.9 0c.2.2.3.6 0 .9l-5.5 7.1c-.1.2-.3.3-.5.3z"/>
    <path fill="#fff" d="M391.3 483.1c-.2 0-.4 0-.5-.3-.2-.3-.1-.7.1-.9.6-.5 1.2-1.1 1.6-1.9.1-.2.2-.3.3-.5v-.2l.2-.4c.2-.4.3-.8.5-1.2 0-.2.1-.4.2-.6l.2-.6v-.2c0-.2 0-.3.1-.5 0-.4 0-.6.1-.8l.2-1.1v-.7c0-.3 0-.6.1-.9v-1.4c.1-.2.1-.4.2-.6V240c0-18.6-10.3-24.9-19.5-30.5l-.6-.4c-5.2-3.2-60.2-33.6-101.2-56.3l-6.1-3.3c-.8-.5-1.7-.9-2.5-1.4l-10.8-6-33.1-18.3c-22.5-12.4-38.8-21.4-42.5-23.5-.3-.2-.7-.4-1-.5l-2.1-1.1c-.4-.2-.7-.3-.9-.4-.3-.1-.6-.3-.9-.4s-.6-.2-.8-.3h-.1c-.2 0-.5-.2-.7-.2v-.7l-.1.6c-.2 0-.5-.1-.7-.2-.7-.2-1.4-.3-1.9-.4h-.9V96l-.1.6h-.7c-1.1 0-2.1.3-2.9.8-.3.2-.7 0-.9-.2-.2-.3 0-.7.2-.9l5.1-3.2c3.2-2.5 8.4-1.6 15.9 2.6 3.8 2.1 21.5 11.9 43.9 24.3l27.9 15.4 24.5 13.6c40 22.1 93.7 51.9 99.7 55.5h.2l.6.4c9.4 5.7 20.1 12.3 20.1 31.6v227c0 8.9-1.6 14.1-5.1 16.4 0 0-.2.1-.3.2l-4.9 3.1h-.3zm3.5-7.2h.6c0 .4 0 .6-.1.7v.3l-.2.7c0 .2-.1.4-.2.6-.2.5-.3.9-.5 1.3l-.2.4v.1l1.9-1.2s.2 0 .2-.1c3.1-2 4.5-7 4.5-15.3v-227c0-18.6-10.4-24.9-19.5-30.5l-.5-.3h-.2c-5.1-3.1-59.4-33.2-99.8-55.5l-24.4-13.5s-.2 0-.3-.2L228.3 121c-23.3-12.9-40.1-22.1-43.9-24.3-7-3.9-11.8-4.8-14.6-2.6l-1.9 1.2h1.4c.7 0 1.4.2 2.1.4h.1c.2 0 .4.1.7.2h.2c.2 0 .5.2.7.2v.7l.1-.6c.3 0 .6.2.8.3.3.1.6.2.9.4.3.1.6.3.9.4l2.3 1.1c.3.2.7.4 1 .5 3.7 2.1 20 11.1 42.5 23.5l44 24.3c.8.5 1.7.9 2.5 1.4l6.1 3.3c41 22.7 96 53.1 101.2 56.3l.6.4c9.4 5.7 20.1 12.3 20.1 31.6V472c-.2.3-.2.6-.2.8s0 .5-.1.7l-.2 1c0 .3 0 .5-.1.7h-.7zM314.9 79.4c-.2 0-.4 0-.5-.3-.2-.2-.2-.5 0-.7l9.4-14c.1-.2.3-.3.5-.3s.4 0 .5.2l7.7 9.3c.1.2.2.4.1.6 0 .2-.2.4-.4.4l-17.1 4.7h-.2zm9.4-13.6-8 11.8 14.4-3.9-6.5-7.9z"/>
    <path fill="#fff" d="M314.901 79.4h-.2l-17.1-4.7c-.2 0-.4-.2-.4-.4v-.6l6.4-9.3c.1-.2.3-.3.5-.3s.4 0 .5.3l10.7 14c.2.2.2.5 0 .8-.1.2-.3.3-.5.3zm-16.1-5.7 14.4 3.9-9-11.7z"/>
    <path fill="#fff" d="M297.802 93h-.3c-.2-.1-.4-.3-.4-.6V74.1c0-.2.1-.4.3-.5s.4-.2.6 0l17.3 6c.2 0 .4.3.4.5s0 .5-.3.6l-17.3 12.2c-.1 0-.2.1-.4.1zm.6-18v16.1l15.3-10.8z"/>
    <path fill="#fff" d="M332 93c-.1 0-.3 0-.4-.1l-16.9-12.2c-.2-.1-.3-.4-.3-.6s.2-.4.4-.5l16.9-6h.6c.2.1.3.3.3.5v18.3c0 .2-.1.5-.4.6h-.3zm-15.5-12.7L331.3 91V75zM297.801 93c-.2 0-.4-.1-.5-.3l-10.9-15.7c-.1-.2-.2-.4 0-.6s.2-.4.5-.4l10.9-2.6c.2 0 .4 0 .6.1s.2.3.2.5v18.3c0 .3-.2.5-.5.6h-.2zm-9.9-16 9.2 13.2V74.8z"/>
    <path fill="#fff" d="M286.801 77.3c-.3 0-.5-.1-.6-.4s0-.6.2-.8l17.4-11.9c.3-.2.6-.1.8 0 .2.2.3.6 0 .8l-6.4 9.3c0 .1-.2.2-.4.3l-10.9 2.6h-.1zm14.9-10-11.6 7.9 7.3-1.7zM341.3 77.7h-.2l-9.3-3c-.1 0-.2-.1-.3-.2l-7.7-9.3q-.3-.45 0-.9c.2-.2.6-.3.9 0l17 12.3c.3.2.3.5.2.8-.1.2-.3.4-.6.4zm-8.9-4.2 5.2 1.7-9.5-6.9z"/>
    <path fill="#fff" d="M314.901 79.4c-.2 0-.4 0-.5-.3l-10.7-14c-.2-.2-.2-.5 0-.7s.3-.4.6-.4h20.1c.2 0 .5.1.6.3s0 .5 0 .7l-9.4 14c-.1.2-.3.3-.5.3zm-9.4-14 9.4 12.2 8.2-12.2z"/>
    <path fill="#fff" d="M315.101 80.8h-.3c-.2 0-.3-.3-.3-.5l-.2-1.4c0-.3.1-.6.5-.7l17.1-4.7c.3 0 .7 0 .8.4.1.3 0 .7-.4.8l-16.9 6h-.2z"/>
    <path fill="#fff" d="M315.102 80.8h-.2l-17.3-6c-.3-.1-.5-.5-.4-.8s.5-.5.8-.4l17.1 4.7c.2 0 .4.3.5.5l.2 1.4c0 .2 0 .5-.2.6-.1.1-.3.2-.4.2z"/>
    <path fill="#fff" d="M314.902 97.8h-.2l-17.1-4.8c-.2 0-.4-.3-.5-.5 0-.2 0-.5.3-.6l17.3-12.2c.2-.1.5-.2.7 0 .2.1.4.3.3.6l-.2 17c0 .2 0 .4-.3.5-.1 0-.3.1-.4.1zm-15.6-5.7 15 4.2.2-14.9z"/>
    <path fill="#fff" d="M314.901 97.8c-.1 0-.3 0-.4-.1-.2-.1-.3-.3-.3-.5l.2-17c0-.2.1-.5.4-.6.2-.1.5 0 .7 0l16.9 12.2c.2.1.3.4.3.6s-.2.4-.5.5l-17.1 4.8h-.2zm.8-16.4-.2 14.9 15-4.2z"/>
    <path fill="#fff" d="M325.101 113c-.2 0-.4-.1-.5-.3l-10.2-15.2q-.15-.3 0-.6c.1-.2.2-.3.4-.4l17.1-4.8c.2 0 .5 0 .6.2.2.2.2.4.1.7l-6.9 20c0 .2-.3.4-.5.4zm-9.2-15.5 9 13.4 6-17.6z"/>
    <path fill="#fff" d="M304.201 113c-.2 0-.4-.2-.5-.4l-6.4-20c0-.2 0-.5.2-.6.2-.2.4-.2.6-.2l17.1 4.8c.2 0 .4.2.4.4v.6l-10.7 15.2c-.1.2-.3.3-.5.3zm-5.4-19.7 5.6 17.6 9.4-13.4-15.1-4.2z"/>
    <path fill="#fff" d="M325.101 113h-20.9c-.2 0-.5-.1-.6-.4-.1-.2 0-.5 0-.7l10.7-15.2c.1-.2.3-.3.5-.3s.4.1.5.3l10.2 15.2c.1.2.1.5 0 .7q-.15.3-.6.3zm-19.7-1.3h18.5l-9-13.4-9.4 13.4z"/>
    <path fill="#fff" d="M304.201 113h-.2l-.7-.2-16.7-6c-.2 0-.3-.2-.4-.4 0-.2 0-.4.1-.6l10.9-13.7c.1-.2.4-.3.6-.2.2 0 .4.2.5.4l6.4 20c0 .2 0 .5-.2.7-.1.1-.3.2-.5.2zm-16.3-7.2 15.2 5.5-5.6-17.6z"/>
    <path fill="#fff" d="M286.802 106.7c-.1 0-.3 0-.4-.1-.3-.2-.4-.6-.2-.9l9.5-14.3c.2-.3.5-.4.8-.2l1.5.6c.2 0 .3.2.4.4 0 .2 0 .4-.1.6l-10.9 13.7c-.1.2-.3.2-.5.2zm9.7-14.1-1.1 1.6 1.2-1.6h-.2z"/>
    <path fill="#fff" d="M297.801 93h-.2l-1.5-.6q-.15 0-.3-.3l-9.5-15.1c-.2-.3-.1-.7.2-.9s.7-.1.9.2l10.9 15.7c.2.2.2.6 0 .8-.1.2-.3.2-.5.2"/>
    <path fill="#fff" d="M286.801 106.7c-.2 0-.4 0-.5-.3l-6.6-9c-.1-.2-.2-.4 0-.6 0-.2.2-.4.4-.4l16.1-5.4c.3 0 .6 0 .7.2.2.2.2.5 0 .8l-9.5 14.3c-.1.2-.3.3-.5.3zm-5.5-9.3 5.5 7.5 7.9-12-13.5 4.5z"/>
    <path fill="#fff" d="M280.2 97.8c-.2 0-.3 0-.5-.2s-.2-.4-.2-.7l6.6-20.5c0-.2.3-.4.5-.4.3 0 .5 0 .6.3l9.5 15.1q.15.3 0 .6c0 .2-.2.3-.4.4zh-.2zm6.8-19.6-5.8 17.9 14.1-4.7z"/>
    <path fill="#fff" d="M286.301 116.6c-.3 0-.5-.2-.6-.5l-6-18.8c0-.3 0-.6.3-.8.3-.1.6 0 .8.2l6.6 9c0 .1.1.3.1.4l-.6 9.9c0 .3-.3.6-.6.6m-4.3-15.9 3.8 11.8.4-6.2-4.1-5.6z"/>
    <path fill="#fff" d="M286.301 116.6c-.1 0-.3 0-.4-.1-.2-.1-.2-.3-.2-.5l.6-9.9c0-.2.1-.4.3-.5q.3-.15.6 0l15.7 5.7c.3 0 .4.4.4.6 0 .3-.2.5-.5.6l-16.3 4.2h-.2zm1.1-9.6-.5 8.1 13.4-3.4z"/>
    <path fill="#fff" d="M303.002 129.4c-.1 0-.3 0-.4-.1l-16.8-12.8c-.2-.2-.3-.4-.2-.6 0-.2.2-.4.5-.5l16.3-4.2h.4l.5.2h.4c.3.2.4.5.4.8l-.5 16.6c0 .2-.1.5-.4.6h-.3zm-15.3-13.2 14.7 11.2.4-14.9h-.3c0-.1-14.8 3.7-14.8 3.7"/>
    <path fill="#fff" d="M303.5 112.7h-.6c-.3-.2-.4-.5-.4-.7v-.2c.1-.3.5-.5.8-.4h.4c.3.2.4.5.4.7v.2c0 .3-.3.4-.6.4"/>
    <path fill="#fff" d="M303 129.4c-.2 0-.3 0-.4-.2-.2-.1-.2-.3-.2-.5l.5-16.6c0-.2.1-.4.3-.5q.3-.15.6 0l.7.2c.1 0 .2.1.3.2l9.9 14c.1.2.2.4 0 .6 0 .2-.3.4-.5.4l-11.1 2.4zm1.1-16-.4 14.5 9.3-2z"/>
    <path fill="#fff" d="M304.2 113h-.2l-.7-.2c-.3 0-.4-.3-.4-.6v-.2c.1-.3.5-.5.8-.4l.7.2c.3 0 .4.3.4.6v.2c0 .3-.3.4-.6.4"/>
    <path fill="#fff" d="M314.101 127c-.2 0-.4-.1-.5-.3l-9.9-14c-.1-.2-.2-.5 0-.7s.3-.4.6-.4h20.9c.2 0 .5.1.6.4.1.2 0 .5 0 .7l-11 14c-.1.2-.3.2-.5.2zm-8.7-14 8.7 12.3 9.7-12.3z"/>
    <path fill="#fff" d="M323.7 129.4h-.2l-9.6-2.4c-.2 0-.4-.2-.5-.4 0-.2 0-.4.1-.6l11-14c.2-.2.5-.3.7-.2.3.1.4.4.4.7l-1.4 16.4c0 .2-.1.4-.3.5-.1 0-.2.1-.4.1zm-8.5-3.4 7.9 2 1.1-13.5-9.1 11.5z"/>
    <path fill="#fff" d="M323.702 129.4h-.3c-.2-.1-.3-.4-.3-.6l1.4-16.4c0-.2.1-.4.3-.5s.4-.1.5 0l15.8 4.4c.2 0 .4.3.5.5s0 .5-.3.6l-17.1 12c-.1 0-.2.1-.4.1zm2-16.2-1.2 14.2 14.9-10.4z"/>
    <path fill="#fff" d="M340.9 117.4h-.2l-15.8-4.4c-.3 0-.5-.3-.5-.6s.2-.5.4-.6l16.7-5.6c.2 0 .4 0 .6.1s.3.4.2.6l-1 10c0 .2-.1.4-.3.5-.1 0-.2.1-.4.1zm-13.6-5.1 13 3.6.8-8.2z"/>
    <path fill="#fff" d="M340.901 117.4h-.1c-.3 0-.5-.4-.5-.7l1-10v-.3l5.8-9.6c.2-.3.5-.4.8-.3s.4.5.3.8l-6.8 19.6c0 .3-.3.4-.6.4zm1.6-10.5-.4 4.4 3-8.6z"/>
    <path fill="#fff" d="M325.1 113c-.2 0-.3 0-.5-.2s-.2-.4-.2-.7l6.9-20c0-.2.3-.4.5-.4s.5 0 .6.3l9.8 14.4q.15.3 0 .6c0 .2-.2.3-.4.4zh-.2zm7.1-19.2-6 17.5 14.6-4.9z"/>
    <path fill="#fff" d="M341.802 107.4c-.2 0-.4-.1-.5-.3l-9.8-14.4c-.2-.2-.2-.5 0-.8.2-.2.5-.3.7-.2l15.6 4.8c.2 0 .3.2.4.4v.6l-5.8 9.6c-.1.2-.3.3-.5.3zm-8.2-13.9 8.2 12 4.8-8-13.1-4zm-1.601-2.2h-.2c-.3 0-.5-.3-.5-.6V74.1c0-.2 0-.4.3-.5.2-.1.4-.2.6 0l9.3 3c.2 0 .3.2.4.4v.6l-9.3 13.6c-.1.2-.3.3-.5.3zm.6-16.3v13.6l7.6-11.1z"/>
    <path fill="#fff" d="M347.601 97.8h-.2l-15.6-4.8c-.3 0-.5-.3-.5-.6v-1.7c0-.1 0-.3.1-.4l9.3-13.6c.1-.2.4-.3.6-.3s.4.2.5.4l6.3 20c0 .2 0 .5-.2.7-.1.1-.3.2-.5.2zm-15-5.9 14 4.3-5.6-17.6-8.4 12.3zm-8.901 37.5H303c-.3 0-.6-.3-.6-.6s.2-.6.5-.7l11.1-2.4h.3l9.6 2.4c.3 0 .5.4.5.7s-.3.6-.6.6zm-14.6-1.3h9.3l-4.3-1.1zm62.2 34.3h-.2l-10.2-2.8c-.2 0-.4-.2-.4-.4v-.6l3.8-5.5c.1-.2.3-.3.5-.3s.4 0 .5.3l6.4 8.3c.2.2.2.5 0 .8-.1.2-.3.3-.5.3zm-9.2-3.8 7.4 2-4.7-6.1-2.8 4.1z"/>
    <path fill="#fff" d="M371.3 162.4c-.2 0-.4 0-.5-.3-.2-.2-.2-.5 0-.7l5.6-8.3c.1-.2.3-.3.5-.3s.4 0 .5.2l4.6 5.5c.1.2.2.4.1.6 0 .2-.2.4-.4.4l-10.2 2.8h-.2zm5.6-7.9-4.1 6.1 7.5-2z"/>
    <path fill="#fff" d="M361.1 170.5h-.3c-.2-.1-.4-.3-.4-.6V159c0-.2.1-.4.3-.5s.4-.2.6 0l10.3 3.6c.2 0 .4.3.4.5s0 .5-.3.6l-10.3 7.3c-.1 0-.2.1-.4.1zm.6-10.6v8.7l8.3-5.8z"/>
    <path fill="#fff" d="M381.401 170.5c-.1 0-.3 0-.4-.1l-10-7.3c-.2-.1-.3-.4-.3-.6s.2-.4.4-.5l10-3.6h.6c.2.1.3.3.3.5v10.9c0 .2-.1.5-.4.6h-.3zm-8.6-7.7 8 5.8v-8.7zm-11.699 7.7c-.2 0-.4-.1-.5-.3l-6.5-9.4c-.1-.2-.2-.4 0-.6s.2-.4.5-.4l6.5-1.5c.2 0 .4 0 .6.1s.2.3.2.5v10.9c0 .3-.2.5-.5.6h-.2zm-5.5-9.6 4.8 6.9v-8z"/>
    <path fill="#fff" d="M354.6 161.2c-.3 0-.5-.1-.6-.4s0-.6.2-.8l10.3-7.1c.3-.2.6-.1.8 0 .2.2.3.6 0 .8l-3.8 5.5c0 .1-.2.2-.4.3l-6.5 1.5h-.1zm7.8-5.2-4.6 3.1 2.9-.7 1.7-2.5zm24.6 5.5h-.2l-5.5-1.8c-.1 0-.2-.1-.3-.2l-4.6-5.5q-.3-.45 0-.9c.2-.2.6-.3.9 0l10.1 7.3c.3.2.3.5.2.8-.1.2-.3.4-.6.4zm-5.2-3.1 1.5.5-2.7-1.9 1.2 1.5z"/>
    <path fill="#fff" d="M371.3 162.4c-.2 0-.4 0-.5-.3l-6.4-8.3c-.2-.2-.2-.5 0-.7s.3-.4.6-.4h12c.2 0 .5.1.6.3s0 .5 0 .7L372 162c-.1.2-.3.3-.5.3zm-5.1-8.3 5 6.6 4.4-6.6z"/>
    <path fill="#fff" d="M371.401 163.3h-.3c-.2 0-.3-.3-.3-.5v-.8c-.2-.3 0-.6.3-.7l10.2-2.8c.3 0 .7 0 .8.4.1.3 0 .7-.4.8l-10 3.6z"/>
    <path fill="#fff" d="M371.401 163.3h-.2l-10.3-3.6c-.3-.1-.5-.5-.4-.8s.5-.5.8-.4l10.2 2.8c.2 0 .4.3.5.5v.8c.2.2 0 .5 0 .6-.1.1-.3.2-.4.2z"/>
    <path fill="#fff" d="M371.3 173.4h-.2l-10.2-2.8c-.2 0-.4-.3-.5-.5 0-.2 0-.5.3-.6l10.3-7.3c.2-.1.5-.2.7 0 .2.1.4.3.3.6v10.1c-.1.2-.2.4-.4.5-.1 0-.3.1-.4.1zm-8.7-3.8 8.1 2.2v-8c.1 0-8.1 5.8-8.1 5.8"/>
    <path fill="#fff" d="M371.302 173.4c-.1 0-.3 0-.4-.1-.2-.1-.3-.3-.3-.5v-10.1c.1-.2.3-.5.5-.6s.5 0 .7 0l10 7.3c.2.1.3.4.3.6s-.2.4-.5.5l-10.2 2.8h-.2zm.7-9.5v8c-.1 0 7.9-2.2 7.9-2.2z"/>
    <path fill="#fff" d="M377.402 182.4c-.2 0-.4-.1-.5-.3l-6.1-9.1q-.15-.3 0-.6c.1-.2.2-.3.4-.4l10.2-2.8c.2 0 .5 0 .6.2.2.2.2.4.1.7l-4.1 11.9c0 .2-.3.4-.5.4zm-5.1-9.3 4.9 7.2 3.3-9.5-8.1 2.3z"/>
    <path fill="#fff" d="M364.902 182.4c-.2 0-.4-.2-.5-.4l-3.8-11.9c0-.2 0-.5.2-.6.2-.2.4-.2.6-.2l10.2 2.8c.2 0 .4.2.4.4v.6l-6.4 9.1c-.1.2-.3.3-.5.3zm-2.8-11.6 3 9.5 5.1-7.3-8.1-2.3z"/>
    <path fill="#fff" d="M377.4 182.4h-12.5c-.2 0-.5-.1-.6-.4-.1-.2 0-.5 0-.7l6.4-9.1c.1-.2.3-.3.5-.3s.4.1.5.3l6.1 9.1c.1.2.1.5 0 .7q-.15.3-.6.3zm-11.3-1.3h10l-4.9-7.3z"/>
    <path fill="#fff" d="M364.9 182.4h-.2l-10.3-3.7c-.2 0-.3-.2-.4-.4 0-.2 0-.4.1-.6l6.5-8.2c.1-.2.4-.3.6-.2.2 0 .4.2.5.4l3.8 11.9c0 .2 0 .5-.2.7-.1.1-.3.2-.5.2zm-9.3-4.7 8.2 3-3-9.5z"/>
    <path fill="#fff" d="M354.601 178.7c-.1 0-.3 0-.4-.1-.3-.2-.4-.6-.2-.9l5.6-8.5c.2-.3.5-.4.8-.2l.9.3c.2 0 .3.2.4.4 0 .2 0 .4-.1.6l-6.5 8.2c-.1.2-.3.2-.5.2"/>
    <path fill="#fff" d="M361.1 170.5h-.2l-.9-.3q-.15 0-.3-.3l-5.6-9c-.2-.3-.1-.7.2-.9s.7-.1.9.2l6.5 9.4c.2.2.2.6 0 .8-.1.2-.3.2-.5.2z"/>
    <path fill="#fff" d="M354.602 178.7c-.2 0-.4 0-.5-.3l-4-5.3c-.1-.2-.2-.4 0-.6 0-.2.2-.4.4-.4l9.6-3.2c.3 0 .6 0 .7.2.2.2.2.5 0 .8l-5.6 8.5c-.1.2-.3.3-.5.3zm-2.9-5.7 2.9 3.9 4.1-6.2-6.9 2.3z"/>
    <path fill="#fff" d="M350.6 173.4c-.2 0-.3 0-.5-.2s-.2-.4-.2-.7l4-12.2c0-.2.3-.4.5-.4.3 0 .5 0 .6.3l5.6 9q.15.3 0 .6c-.1.2-.2.3-.4.4zh-.2zm4.1-11.3-3.1 9.6 7.6-2.5z"/>
    <path fill="#fff" d="M354.2 184.6c-.3 0-.5-.2-.6-.5l-3.6-11.2c0-.3 0-.6.3-.8.3-.1.6 0 .8.2l4 5.3c0 .1.1.3.1.4l-.3 5.9c0 .3-.3.6-.6.6zm-1.8-8.3 1.3 4.2v-2.2c.1 0-1.3-2-1.3-2"/>
    <path fill="#fff" d="M354.202 184.6c-.1 0-.3 0-.4-.1-.2-.1-.2-.3-.2-.5l.3-5.9c0-.2.1-.4.3-.5q.3-.15.6 0l9.4 3.4c.3 0 .4.4.4.6 0 .3-.2.5-.5.6l-9.7 2.5h-.2zm1-5.6-.2 4.1 6.8-1.7z"/>
    <path fill="#fff" d="M364.202 192.2c-.1 0-.3 0-.4-.1l-10-7.6c-.2-.2-.3-.4-.2-.6 0-.2.2-.4.5-.5l9.7-2.5h1c.3.2.4.5.4.8l-.3 9.9c0 .2-.1.5-.4.6zm-8.5-8 7.9 6 .2-8.1z"/>
    <path fill="#fff" d="M364.5 182.3h-.6c-.3-.2-.4-.5-.4-.7v-.2c.1-.3.5-.5.8-.4h.4c.3.2.4.5.4.7v.2c0 .3-.3.4-.6.4"/>
    <path fill="#fff" d="M364.202 192.2c-.2 0-.3 0-.4-.2-.2-.1-.2-.3-.2-.5l.3-9.9c0-.2.1-.4.3-.5q.3-.15.6 0h.4c.1.2.2.3.3.4l5.9 8.4c.1.2.2.4 0 .6 0 .2-.3.4-.5.4l-6.6 1.4h-.1zm.9-9-.2 7.5 4.8-1z"/>
    <path fill="#fff" d="M364.9 182.4h-.6c-.3-.2-.4-.5-.4-.8v-.2c.1-.3.5-.5.8-.4h.4c.3.2.4.5.4.8v.2c0 .3-.3.4-.6.4"/>
    <path fill="#fff" d="M370.801 190.8c-.2 0-.4-.1-.5-.3l-5.9-8.4c-.1-.2-.2-.5 0-.7s.3-.4.6-.4h12.5c.2 0 .5.1.6.4.1.2 0 .5 0 .7l-6.6 8.4c-.1.2-.3.2-.5.2zm-4.7-8.4 4.7 6.6 5.2-6.6z"/>
    <path fill="#fff" d="M376.502 192.2h-.2l-5.7-1.4c-.2 0-.4-.2-.5-.4 0-.2 0-.4.1-.6l6.6-8.4c.2-.2.5-.3.7-.2.3.1.4.4.4.7l-.8 9.8c0 .2-.1.4-.3.5-.1 0-.2.1-.4.1zm-4.6-2.4 4 1 .6-6.8-4.6 5.9z"/>
    <path fill="#fff" d="M376.5 192.2h-.3c-.2-.1-.3-.4-.3-.6l.8-9.8c0-.2.1-.4.3-.5s.4-.1.5 0l9.4 2.6c.2 0 .4.3.5.5 0 .2 0 .5-.3.6l-10.2 7.2c-.1 0-.2.1-.4.1zm1.4-9.6-.6 7.6 7.9-5.6z"/>
    <path fill="#fff" d="M386.702 185h-.2l-9.4-2.6c-.3 0-.5-.3-.5-.6s.2-.5.4-.6l10-3.3c.2 0 .4 0 .6.1s.3.4.2.6l-.6 6c0 .2-.1.4-.3.5-.1 0-.2.1-.4.1zm-7.1-3.3 6.6 1.8.4-4.2z"/>
    <path fill="#fff" d="M386.702 185h-.1c-.3 0-.5-.4-.5-.7l.6-6v-.3l3.5-5.7c.2-.3.5-.4.8-.3s.4.5.3.8l-4 11.7c0 .3-.3.4-.6.4zm1.2-6.3v.4l.2-.7z"/>
    <path fill="#fff" d="M377.401 182.4c-.2 0-.3 0-.5-.2s-.2-.4-.2-.7l4.1-11.9c0-.2.3-.4.5-.4s.5 0 .6.3l5.9 8.6q.15.3 0 .6c0 .2-.2.3-.4.4zh-.2zm4.2-11.1-3.2 9.4 7.9-2.7-4.6-6.8z"/>
    <path fill="#fff" d="M387.3 179.1c-.2 0-.4-.1-.5-.3l-5.9-8.6c-.2-.2-.2-.5 0-.8.2-.2.5-.3.7-.2l9.3 2.8c.2 0 .3.2.4.4v.6l-3.5 5.7c-.1.2-.3.3-.5.3zM383 171l4.2 6.2 2.5-4.1z"/>
    <path fill="#fff" d="M381.401 169.5h-.2c-.3 0-.5-.3-.5-.6V159c0-.2 0-.4.3-.5s.4-.2.6 0l5.5 1.8c.2 0 .3.2.4.4v.6l-5.5 8.1c-.1.2-.3.3-.5.3zm.7-9.6v6.9l3.9-5.6z"/>
    <path fill="#fff" d="M390.801 173.4h-.2l-9.3-2.8c-.3 0-.5-.3-.5-.6v-1c0-.1 0-.3.1-.4l5.5-8.1c.1-.2.4-.3.6-.3s.4.2.5.4l3.8 11.9c0 .2 0 .5-.2.7-.1.1-.3.2-.5.2zm-8.7-4 7.7 2.3-3-9.5-4.7 6.8zm-5.599 22.8h-12.3c-.3 0-.6-.3-.6-.6s.2-.6.5-.7l6.6-1.4h.3l5.7 1.4c.3 0 .5.4.5.7s-.3.6-.6.6zm-6.2-1.3h.9-.4c0-.1-.5 0-.5 0"/>
</svg>
