<svg xmlns="http://www.w3.org/2000/svg" width="550" height="550" fill="none" viewBox="0 0 550 550">
    <path fill="#fff" d="M141.507 109.457c1.037 9.718 5.828 18.932 14.24 27.388.2.201.417.393.621.592q.654.642 1.329 1.27c.202.187.393.384.596.569l.067.054c2.608 2.362 5.528 4.654 8.678 6.813 1.08.743 2.225 1.49 3.5 2.285l1.084.674q.435.268.872.526c.97.575 2.045 1.184 3.288 1.86a111 111 0 0 0 3.97 2.061 127 127 0 0 0 8.382 3.77c19.217 7.828 41.924 11.965 65.666 11.965h.007c31.005 0 59.88-6.98 81.302-19.654.273-.158.539-.322.807-.486l.3-.184c17.705-10.778 28.317-24.808 29.884-39.503a37 37 0 0 0 .216-3.915c0-35.145-50.471-63.739-112.509-63.739-62.037 0-112.509 28.594-112.509 63.739a37 37 0 0 0 .209 3.82c-.001.031-.004.063 0 .095m223.286-.069c-1.553 14.258-11.941 27.914-29.258 38.461l-.371.226q-.356.219-.721.434c-21.22 12.558-49.858 19.475-80.64 19.475-23.577 0-46.114-4.105-65.171-11.869a125 125 0 0 1-8.295-3.73 119 119 0 0 1-3.927-2.039 104 104 0 0 1-3.246-1.836l-1.092-.661q-.294-.18-.584-.363l-.255-.161a92 92 0 0 1-3.453-2.254c-3.112-2.13-6.006-4.405-8.602-6.761a68 68 0 0 1-2.498-2.387c-8.181-8.212-12.843-17.145-13.862-26.548 3.579-32.856 52.299-58.582 110.986-58.583 58.694.001 107.423 25.732 110.989 58.596M256.644 43.123l.907.02q.956.015 1.908.04c.374.01.745.026 1.118.04.561.018 1.124.035 1.683.06.391.016.78.038 1.17.056.538.026 1.076.05 1.612.081q.608.037 1.214.076c.515.033 1.03.063 1.543.1q.626.047 1.249.096.748.055 1.493.118.623.054 1.243.113.74.066 1.477.138c.414.04.826.087 1.239.13q.732.077 1.459.158.615.071 1.227.147.726.086 1.449.177c.406.052.81.109 1.215.163q.72.097 1.436.198.606.089 1.21.18.708.104 1.414.215.6.096 1.197.196.705.115 1.406.235.594.104 1.184.211.696.125 1.387.254.589.111 1.175.227.688.135 1.372.272.583.12 1.163.243.678.141 1.354.29.574.126 1.146.256.676.153 1.347.31.562.133 1.121.269a170 170 0 0 1 2.446.613 161 161 0 0 1 3.715 1.008 153 153 0 0 1 4.698 1.418 136 136 0 0 1 2.297.755 147 147 0 0 1 5.466 1.968 133 133 0 0 1 5.481 2.242q.458.2.914.402.584.261 1.163.526.446.204.888.409.577.27 1.147.545.435.208.865.418.569.28 1.129.562.423.212.841.426.561.288 1.115.583.408.214.812.43.552.3 1.097.602.397.218.79.439.542.308 1.077.619c.254.148.511.295.763.444q.538.32 1.069.645.364.22.725.442.532.331 1.056.668.349.221.695.444.524.343 1.04.69.334.222.664.446.52.357 1.031.718.314.218.623.438.522.376 1.033.756c.191.141.386.281.576.424q.517.392 1.026.79.267.204.533.412c.351.278.694.56 1.038.84q.236.19.47.383c.363.302.717.607 1.071.912l.386.331q.573.504 1.129 1.015l.278.25q.668.618 1.311 1.244l.042.04a63 63 0 0 1 3.762 3.998l.163.195q.495.578.969 1.164c.092.114.179.23.27.343q.41.514.805 1.032c.11.145.214.292.322.438.234.317.469.634.695.954.116.164.225.33.339.495.209.304.419.608.62.915.116.177.226.356.339.534.189.296.379.592.56.89.114.189.222.379.334.568.17.29.342.58.505.873.11.196.213.394.319.591.156.288.312.576.46.865q.153.305.301.612.212.427.415.858.143.315.281.63c.126.284.253.569.372.854.09.215.173.431.259.647q.17.424.331.85.12.33.234.661.151.425.291.852.108.335.208.671.132.425.252.851c.064.229.122.458.182.687q.11.424.212.85.08.346.153.695.091.426.174.853.065.35.123.703.073.427.136.856.05.356.093.713.053.427.097.855.034.362.062.724l.032.466c-.017-.059-.04-.117-.056-.176-.21-.74-.448-1.474-.702-2.205-.077-.22-.149-.44-.229-.66a42 42 0 0 0-.871-2.164q-.147-.347-.302-.692a44 44 0 0 0-1.391-2.797 47 47 0 0 0-1.6-2.73 49 49 0 0 0-1.348-2.034c-.146-.21-.299-.418-.449-.626a55 55 0 0 0-1.528-2.025c-.147-.185-.301-.368-.45-.552a61 61 0 0 0-1.624-1.913l-.506-.56a65 65 0 0 0-1.72-1.816c-.169-.171-.335-.343-.506-.514a69 69 0 0 0-1.957-1.865q-.276-.257-.556-.513a76 76 0 0 0-2.117-1.831q-.32-.27-.644-.536a82 82 0 0 0-2.93-2.285 87 87 0 0 0-2.353-1.694q-.364-.253-.733-.504a96 96 0 0 0-2.5-1.647q-.363-.23-.73-.457a103 103 0 0 0-2.67-1.614q-.342-.196-.687-.391a110 110 0 0 0-2.837-1.573c-.198-.106-.401-.21-.6-.314q-1.4-.737-2.844-1.446l-.611-.302a122 122 0 0 0-3.085-1.437c-.229-.103-.454-.208-.684-.31q-1.578-.698-3.202-1.366-.393-.163-.788-.324a139 139 0 0 0-4.11-1.587 146 146 0 0 0-4.218-1.479q-1.723-.576-3.484-1.117-.41-.126-.821-.248a157 157 0 0 0-3.649-1.055q-.36-.099-.723-.194-1.914-.519-3.865-.999l-.539-.127a170 170 0 0 0-3.937-.9l-.409-.09a175 175 0 0 0-4.133-.827l-.599-.114a180 180 0 0 0-4.134-.711l-.731-.119q-2.055-.32-4.139-.598-.398-.055-.798-.106a189 189 0 0 0-4.998-.578 193 193 0 0 0-4.276-.39l-.758-.058a196 196 0 0 0-4.417-.287q-.317-.016-.636-.03c-1.532-.077-3.07-.14-4.618-.18l-.406-.009q-2.442-.061-4.909-.064h-.015c-1.657 0-3.306.024-4.947.064l-.354.008a198 198 0 0 0-4.702.183l-.528.026q-2.287.121-4.547.295l-.599.046a193 193 0 0 0-9.457.987l-.539.072q-2.22.294-4.406.637l-.406.066q-2.252.358-4.465.768l-.187.036a173 173 0 0 0-9.123 1.955l-.036.009q-2.189.533-4.33 1.118l-.23.062q-2.08.57-4.112 1.188l-.326.098a152 152 0 0 0-8.152 2.75l-.307.114q-1.922.717-3.789 1.475l-.199.083a131 131 0 0 0-3.775 1.61l-.031.013a117 117 0 0 0-10.862 5.524l-.019.011a103 103 0 0 0-3.263 1.972l-.116.072a95 95 0 0 0-3.063 2.02l-.141.096a88 88 0 0 0-2.901 2.088l-.126.095a82 82 0 0 0-2.768 2.181l-.062.052c-4.609 3.807-8.508 7.912-11.587 12.259l-.003.004a50 50 0 0 0-1.733 2.615l-.031.05a47 47 0 0 0-1.549 2.704 44 44 0 0 0-1.324 2.718l-.005.012a40.5 40.5 0 0 0-2.016 5.571 33 33 0 0 1 .193-2.037q.044-.366.095-.732.063-.423.136-.844.058-.356.124-.71.083-.427.175-.85.073-.35.153-.696c.067-.286.142-.572.216-.858.059-.224.115-.45.178-.673q.125-.437.26-.873c.066-.216.13-.432.201-.647.096-.296.2-.59.303-.884.074-.208.145-.417.222-.625q.17-.45.352-.9c.079-.198.155-.397.238-.594q.196-.462.403-.922c.083-.186.163-.374.25-.56.147-.317.304-.633.46-.948q.126-.26.256-.52.254-.491.523-.98c.085-.158.167-.316.255-.473.192-.345.394-.686.597-1.028.081-.137.158-.274.241-.41q.335-.547.686-1.088c.072-.112.14-.225.214-.337q.393-.596.807-1.187l.151-.22q.488-.69 1.004-1.374l.012-.017a60 60 0 0 1 6.01-6.769q.663-.644 1.351-1.279l.161-.145q.614-.563 1.247-1.118l.262-.225q.59-.513 1.198-1.019l.335-.272q.58-.479 1.174-.95l.401-.31q.573-.448 1.159-.89.228-.17.457-.338.57-.422 1.15-.84.253-.179.508-.356.57-.405 1.152-.802.269-.182.541-.363.576-.388 1.163-.771.29-.187.582-.372a95 95 0 0 1 1.169-.738l.62-.379q.583-.356 1.175-.708l.654-.38q.591-.345 1.191-.684.339-.19.68-.378.598-.331 1.203-.659.355-.19.713-.378.605-.32 1.218-.636.368-.188.739-.374.611-.309 1.23-.612.383-.187.77-.372.617-.297 1.242-.59.397-.184.796-.366a136 136 0 0 1 2.079-.93 125 125 0 0 1 4.274-1.774 142 142 0 0 1 6.694-2.446 147 147 0 0 1 3.633-1.174q.498-.154.997-.306.674-.203 1.353-.4.503-.148 1.008-.292.683-.194 1.371-.383.515-.142 1.033-.281.683-.183 1.372-.36.528-.137 1.059-.271.69-.173 1.383-.34.538-.131 1.077-.259.695-.163 1.396-.32.546-.125 1.095-.246.7-.152 1.405-.3.556-.119 1.115-.233.704-.143 1.413-.28.566-.111 1.135-.22.712-.132 1.429-.26.57-.104 1.142-.204.716-.124 1.437-.24.584-.098 1.17-.192.718-.111 1.441-.22l1.182-.175q.724-.102 1.451-.2c.401-.053.801-.109 1.203-.16q.73-.093 1.462-.18.605-.074 1.21-.145.74-.082 1.485-.16.605-.065 1.213-.128.75-.073 1.502-.14.608-.057 1.216-.11.764-.064 1.532-.121c.403-.031.805-.065 1.209-.093q.775-.054 1.553-.1.604-.04 1.209-.076c.524-.03 1.052-.053 1.578-.08q.602-.03 1.205-.058c.55-.023 1.103-.04 1.655-.059.381-.013.76-.03 1.142-.04q.927-.024 1.858-.04l.958-.02a201 201 0 0 1 5.67 0m163.509 169.611-.154-.138q-.226-.213-.459-.424c-.13-.12-.255-.24-.389-.36-.235-.211-.486-.428-.734-.644-.094-.081-.182-.167-.275-.248-.007-.006-.016-.007-.023-.012l-.048-.043c-.21-.177-.413-.344-.617-.514l-.357-.299-.076-.06c-.01-.008-.025-.022-.034-.028l-.101-.082q-.426-.343-.86-.68l-.434-.328a49 49 0 0 0-.653-.494q-.187-.137-.379-.273l-.743-.527q-.564-.392-1.142-.773a54 54 0 0 0-8.753-4.651c-8.082-3.385-16.973-4.818-26.423-4.266q-.6.034-1.209.078c-27.105 2.073-55.195 20.487-73.311 48.058a126 126 0 0 0-4.108 6.714 121 121 0 0 0-2.944 5.517c-.29.575-.591 1.143-.872 1.723l-.001.002a122 122 0 0 0-2.989 6.675l-.015.037-.005.008-.038.093-.001.01a113 113 0 0 0-5.624 17.742 109 109 0 0 0-1.065 5.318c-.004.015-.013.027-.015.043-2.357 13.602-1.844 26.997 1.481 38.737.004.015.014.026.019.04a71 71 0 0 0 1.606 4.952v.001l.042.103q.69 1.874 1.48 3.677l.107.241a63 63 0 0 0 1.663 3.467l.147.281a61 61 0 0 0 1.838 3.261l.177.291a59 59 0 0 0 2.042 3.105l.057.087c.005.008.005.019.011.027a57 57 0 0 0 4.398 5.456c.007.008.017.01.024.017a55 55 0 0 0 1.599 1.68l.023.015a53 53 0 0 0 3.141 2.905l.491.413a54 54 0 0 0 4.874 3.619 59 59 0 0 0 2.045 1.276c.757.449 1.527.874 2.304 1.285a54 54 0 0 0 9.002 3.763c1.869.592 3.775 1.1 5.721 1.498 3.933.807 8.009 1.207 12.18 1.207h.007c.559 0 1.124-.026 1.686-.04.489-.013.976-.012 1.467-.036 7.405-.353 15.055-1.937 22.667-4.729a92 92 0 0 0 10.342-4.545c16.529-8.506 31.149-21.957 42.28-38.897 22.378-34.057 25.517-74.637 7.813-100.978a.3.3 0 0 0-.039-.052 56 56 0 0 0-6.903-8.382q-.163-.16-.327-.317-.3-.299-.606-.59zm-90.294 156.098a55 55 0 0 1-6.533-1.759 53 53 0 0 1-6.758-2.821 51 51 0 0 1-5.33-3.056 52 52 0 0 1-4.749-3.527l-.483-.406-.185-.161c-.168-.144-.327-.291-.492-.437.981.342 1.972.661 2.97.947l.038.005q.3.084.6.165l.344.092h.007l.173.043q.87.23 1.752.433c.272.062.546.116.82.174.375.08.75.162 1.127.234.32.062.642.115.964.171q.5.09 1.003.171.518.079 1.038.149.47.066.943.126.546.065 1.094.12.45.048.9.088a62 62 0 0 0 4.01.222q.624.016 1.252.02l.272.004c.084 0 .169-.006.253-.007a68 68 0 0 0 6.228-.313l.419-.042a73 73 0 0 0 6.329-.932l.411-.079a80 80 0 0 0 6.378-1.539l.41-.117q1.6-.463 3.199-.997l.116-.04a86 86 0 0 0 3.066-1.098l.407-.153a92 92 0 0 0 3.127-1.268l.342-.15q1.44-.624 2.872-1.302l.402-.189a94 94 0 0 0 3.031-1.522l.507-.271a95 95 0 0 0 2.742-1.513q.183-.102.365-.206 1.468-.852 2.921-1.762l.632-.4q1.34-.85 2.666-1.749l.288-.193c.942-.645 1.876-1.313 2.806-1.995q.352-.259.703-.521c.904-.675 1.805-1.362 2.697-2.073l.093-.071.002-.003c9.61-7.67 18.057-16.996 25.103-27.722 12.237-18.62 19.032-39.943 19.137-60.039.097-18.614-5.514-35.094-15.864-46.822l.359.18q1.052.53 2.073 1.102c.205.115.411.227.614.345a51 51 0 0 1 3.615 2.287q.205.143.406.288l.68.489q.301.224.597.45l.185.14c.094.07.188.139.288.217.309.235.609.477.897.71l.037.03c.036.031.071.059.095.077l.039.032c.323.261.639.526.985.821a53 53 0 0 1 2.876 2.659 55 55 0 0 1 6.777 8.236c17.412 25.917 14.27 65.918-7.821 99.539a1 1 0 0 0-.055.1c-11.005 16.718-25.432 29.981-41.727 38.362a90 90 0 0 1-10.193 4.482c-8.804 3.227-17.648 4.814-26.084 4.72a59 59 0 0 1-11.208-1.175m-34.991-24.717a59 59 0 0 1-1.938-3.439c-.068-.13-.127-.269-.195-.4a63 63 0 0 1-1.493-3.114c-.163-.368-.307-.749-.464-1.121a64 64 0 0 1-.852-2.118c1.273-.213 2.532-.456 3.794-.692.586-.11 1.179-.207 1.762-.322q2.985-.586 5.915-1.256c.165-.038.324-.081.488-.119a189 189 0 0 0 5.289-1.303c.626-.164 1.236-.346 1.857-.516 1.117-.306 2.243-.604 3.343-.928v.909c0 .247.14.472.36.582l11.429 5.687a.64.64 0 0 0 .282.067l.008.002a.7.7 0 0 0 .261-.055l13.009-5.687a.65.65 0 0 0 .389-.596v-2.686l3.68 1.831a.7.7 0 0 0 .284.066l.01.003a.7.7 0 0 0 .261-.055l7.864-3.438-.014.01-.202.138a103 103 0 0 1-2.584 1.737q-.317.208-.638.414-1.37.88-2.793 1.735l-.595.35q-1.265.747-2.57 1.475c-.205.114-.406.229-.612.342a119 119 0 0 1-3.898 2.046q-1.284.646-2.601 1.275c-.16.076-.316.155-.477.23l-.053.024q-.5.238-1.004.473c-10.624 4.895-22.518 8.73-35.363 11.403a57 57 0 0 1-1.862-2.834zm3.322-87.432a115 115 0 0 1 1.673-3.049c11.888-2.658 22.941-6.318 32.853-10.886.343-.16.68-.318 1.02-.481l.031-.016c.376-.178.742-.362 1.115-.542q.704-.337 1.399-.681.616-.309 1.225-.622.696-.354 1.384-.715a127 127 0 0 0 2.577-1.399q.53-.295 1.053-.591a124 124 0 0 0 1.61-.941c.263-.156.53-.309.79-.467q1.162-.7 2.29-1.421c.22-.14.434-.284.652-.426q.824-.532 1.628-1.073.412-.28.82-.563a102 102 0 0 0 2.22-1.575q.704-.517 1.392-1.039c.238-.181.479-.361.714-.543a87 87 0 0 0 1.753-1.395l.26-.209a83 83 0 0 0 1.904-1.615c.211-.185.416-.372.624-.558q.621-.552 1.224-1.11a88 88 0 0 0 1.783-1.714q.341-.337.677-.676.552-.565 1.086-1.135c.189-.2.381-.399.566-.601l.095-.1a53 53 0 0 1-1.19 1.746c-.142.2-.292.398-.437.597q-.445.611-.911 1.216-.265.341-.537.681-.458.575-.936 1.144-.273.327-.552.653-.554.639-1.131 1.271c-.146.16-.286.321-.434.481a70 70 0 0 1-1.633 1.695c-.157.157-.321.312-.48.468q-.626.617-1.275 1.227-.335.311-.674.62-.588.537-1.194 1.068-.36.314-.723.627-.646.55-1.313 1.093c-.22.18-.436.362-.66.541a84 84 0 0 1-1.995 1.551c-.178.135-.364.266-.545.4q-.779.578-1.58 1.148-.437.308-.881.612a98 98 0 0 1-2.315 1.554q-.671.436-1.358.865c-.331.208-.66.417-.996.622-.539.33-1.089.654-1.64.978-.234.137-.462.277-.698.414q-.489.284-.984.566l-.069.034c-11.483 6.461-25.505 11.613-40.632 14.93q.43-.867.871-1.721c.162-.312.32-.628.484-.938m4.05-7.06c.336-.545.684-1.085 1.03-1.626.267-.418.53-.842.8-1.254 9.939-15.126 22.905-27.462 37.044-35.792l.072-.043a95 95 0 0 1 2.244-1.278l.143-.081a96 96 0 0 1 2.206-1.177l.199-.104a93 93 0 0 1 2.165-1.078l.261-.127a92 92 0 0 1 2.122-.981c.107-.047.213-.098.32-.145a89 89 0 0 1 2.079-.887l.379-.159a90 90 0 0 1 2.041-.799l.427-.163a83 83 0 0 1 2.003-.715l.478-.166q.98-.329 1.963-.631.263-.084.527-.165a80 80 0 0 1 1.916-.55l.583-.161a80 80 0 0 1 1.868-.47q.318-.078.636-.153.912-.21 1.824-.395.34-.072.681-.14a74 74 0 0 1 1.784-.323q.362-.063.722-.121.87-.138 1.738-.253.385-.053.771-.101a65 65 0 0 1 2.197-.232q-.042.152-.087.304-.201.697-.43 1.392-.088.263-.18.527-.242.708-.51 1.412-.094.24-.19.479-.287.726-.602 1.45-.09.202-.183.404a46 46 0 0 1-.709 1.514l-.148.288c-.27.54-.548 1.078-.843 1.613l-.064.112a53 53 0 0 1-3.407 5.356l-.008.007c-7.485 10.353-19.563 19.647-34.926 26.878l-1.008.476a147 147 0 0 1-11.59 4.736l-.245.085q-1.857.668-3.754 1.297c-.197.065-.399.127-.597.191q-1.727.567-3.485 1.101c-.287.087-.578.169-.866.255q-1.635.488-3.297.949-.54.146-1.083.29a174 174 0 0 1-3.162.824c-.414.104-.832.202-1.248.303q-1.032.249-2.072.486.279-.477.563-.953.45-.758.908-1.506m74.75-38.292v.841l-.258.113.029-.106q.034-.122.066-.245.084-.3.163-.603m0 127.17q-.558.441-1.121.873c-.241.187-.481.377-.723.561-.48.364-.963.718-1.446 1.072-.183.134-.365.272-.549.405q-2.011 1.452-4.058 2.787c-.203.132-.407.257-.61.388-.479.307-.958.615-1.439.912-.261.161-.523.315-.785.474-.425.257-.849.516-1.276.766-.291.17-.584.333-.876.5-.399.228-.798.458-1.199.679q-.467.256-.935.506-.572.311-1.148.613-.487.252-.976.497-.56.285-1.122.563-.5.243-1.001.479-.55.263-1.101.518-.516.235-1.033.463-.538.24-1.077.473-.525.224-1.052.441-.534.22-1.066.434-.533.212-1.067.415-.527.203-1.055.399-.54.197-1.081.389-.522.183-1.043.361a94 94 0 0 1-2.122.687 78 78 0 0 1-5.379 1.462q-.5.116-.996.224a68 68 0 0 1-1.135.243q-.492.099-.984.192-.569.11-1.138.21-.489.084-.976.16-.572.093-1.144.178-.478.067-.957.127c-.385.05-.77.101-1.154.145-.314.036-.626.064-.939.095-.388.039-.775.079-1.162.111-.308.026-.616.044-.923.065-.39.027-.78.056-1.168.076-.301.015-.6.022-.899.034-.394.014-.788.032-1.18.04-.292.005-.583.003-.875.004-.396.003-.794.008-1.189.003-.281-.003-.56-.016-.84-.023a63 63 0 0 1-2.273-.102c-.311-.02-.623-.034-.932-.058-.318-.025-.633-.061-.949-.091-.36-.034-.72-.064-1.078-.105-.307-.035-.612-.079-.918-.119-.364-.047-.73-.091-1.093-.145-.297-.044-.591-.097-.887-.146-.369-.061-.738-.12-1.105-.188-.286-.053-.57-.114-.855-.172q-.454-.09-.906-.188c.462-.137.91-.286 1.368-.426q.982-.3 1.952-.61 1.326-.424 2.63-.866.964-.324 1.917-.657 1.28-.453 2.538-.923c.629-.234 1.259-.466 1.879-.705.828-.32 1.642-.65 2.456-.981.61-.248 1.224-.493 1.826-.748.812-.343 1.609-.698 2.406-1.052.578-.257 1.163-.51 1.733-.773.829-.382 1.639-.778 2.451-1.172.514-.25 1.036-.493 1.542-.748.956-.48 1.889-.975 2.82-1.472.338-.181.687-.355 1.021-.537a119 119 0 0 0 4.996-2.881c8.739-5.347 15.975-11.48 21.382-18.068l.001-.002q.735-.895 1.425-1.802l.032-.044a59 59 0 0 0 1.345-1.846 54 54 0 0 0 1.198-1.782l.051-.081q.57-.888 1.096-1.784l.046-.081c.312-.535.618-1.071.907-1.609l1.068-.466a.65.65 0 0 0 .391-.596v-1.905c.049-.11.088-.207.135-.314q.248-.556.462-1.071c.026-.062.058-.13.083-.191l1.838.915zm-35.632-6.04a119 119 0 0 0 3.056-1.753c.333-.199.65-.405.979-.606.77-.47 1.542-.939 2.289-1.421.378-.243.739-.496 1.111-.742.679-.451 1.361-.899 2.02-1.359.364-.255.711-.517 1.069-.774.647-.465 1.297-.928 1.922-1.402.328-.248.639-.503.962-.754a103 103 0 0 0 .769-.604c.371-.296.75-.589 1.114-.888.284-.234.553-.474.833-.71.549-.465 1.108-.926 1.638-1.398l1.011.502c-.241.282-.479.565-.727.844q-.411.464-.834.925a67 67 0 0 1-1.463 1.526c-.292.297-.582.593-.882.887a73 73 0 0 1-1.603 1.513c-.304.281-.605.562-.917.84a78 78 0 0 1-1.761 1.511c-.31.26-.614.522-.931.78a87 87 0 0 1-1.957 1.531c-.302.231-.596.466-.904.695a93 93 0 0 1-2.241 1.604c-.264.184-.519.373-.788.556a97 97 0 0 1-2.806 1.842c-.131.082-.254.167-.385.25a108 108 0 0 1-3.413 2.055l-1.052.606c-10.524 5.919-22.766 10.605-36.383 13.939a55 55 0 0 1-3.436-4.229c1.099-.232 2.181-.484 3.265-.732.24-.055.483-.106.722-.162q2.173-.51 4.305-1.063l.402-.101q2.304-.601 4.559-1.257l.062-.017c7.704-2.238 14.984-4.924 21.749-8.042l1.016-.478a128 128 0 0 0 7.288-3.719c.116-.063.226-.131.342-.195m-34.434-3.506q-2.79.733-5.641 1.389c-.287.066-.579.124-.867.189-1.723.388-3.455.761-5.206 1.105-.706.139-1.424.256-2.134.388-1.205.223-2.408.448-3.623.65l-.166-.479a70 70 0 0 1-.895-2.751l-.138-.452c1.871-.306 3.723-.645 5.566-1.001.12-.023.242-.042.361-.065a186 186 0 0 0 12.753-2.95c.266-.071.524-.152.789-.225 1.563-.428 3.122-.861 4.651-1.327v3.997c-1.089.324-2.199.626-3.306.932-.716.198-1.421.409-2.144.6m-18.054-48.943c.183-.661.388-1.322.584-1.983.22-.742.429-1.486.665-2.226.309-.968.648-1.933.985-2.898q.452-1.294.937-2.582c.34-.902.679-1.806 1.043-2.702l.02-.004q1.784-.333 3.547-.696c.194-.04.384-.084.578-.124.99-.208 1.978-.418 2.958-.64.38-.085.754-.178 1.132-.266.79-.183 1.581-.366 2.363-.559.553-.136 1.099-.28 1.648-.421.604-.154 1.211-.305 1.81-.465.706-.189 1.403-.387 2.102-.583.436-.122.876-.239 1.309-.364.836-.241 1.662-.492 2.488-.744.292-.089.588-.173.879-.264q1.436-.447 2.85-.916l.462-.149q1.582-.528 3.136-1.081l.125-.044c8.669-3.093 16.672-6.788 23.765-11.001l.022-.012c.418-.247.839-.499 1.249-.75.202-.123.389-.252.589-.376.946-.587 1.881-1.178 2.789-1.78.452-.301.881-.61 1.324-.914.638-.438 1.28-.874 1.898-1.32.483-.349.944-.706 1.414-1.059.549-.412 1.103-.823 1.635-1.242.477-.375.934-.757 1.397-1.137.498-.408.998-.816 1.479-1.23.457-.392.897-.79 1.339-1.188.46-.413.919-.827 1.364-1.246.428-.403.844-.812 1.258-1.22.43-.426.857-.852 1.272-1.283a66 66 0 0 0 1.153-1.229 68 68 0 0 0 2.237-2.56c.177-.213.368-.422.541-.636v13.898l-4.533-2.257a.66.66 0 0 0-.551-.013l-13.011 5.686c-.025.011-.044.029-.067.042-.005.003-.012.002-.018.006l-.014.014a.64.64 0 0 0-.199.209l-.016.026-.01.014c-.006.011-.004.023-.008.034a.6.6 0 0 0-.054.228c-.001.009-.007.018-.007.027v14.87l-.245.154q-1 .64-2.033 1.268l-.328.198q-.42.257-.845.508l-.004.002c-14.625 8.59-32.969 14.859-53.306 18.242l-.006.001q-2.022.336-4.07.634l-.011.002c.114-.487.241-.973.363-1.459.204-.814.403-1.627.627-2.44m7.221-19.172c15.636-3.333 30.158-8.617 42.017-15.289l1.065-.612q1.326-.767 2.605-1.557c.135-.083.264-.167.398-.25q1.038-.645 2.045-1.303c.234-.153.461-.308.692-.462q.846-.562 1.667-1.134.39-.274.777-.55a94 94 0 0 0 2.286-1.682q.724-.55 1.425-1.109.373-.294.739-.59.723-.59 1.424-1.188c.21-.179.425-.356.632-.536a75 75 0 0 0 1.608-1.441c.113-.104.231-.206.344-.31a76 76 0 0 0 1.885-1.817c.072-.072.139-.146.21-.218a67 67 0 0 0 1.535-1.596c.172-.186.337-.374.507-.56.388-.428.772-.856 1.143-1.288q.28-.33.554-.66a59 59 0 0 0 1.543-1.921q.469-.609.915-1.224a48 48 0 0 0 1.371-1.975c.147-.223.297-.445.44-.669.3-.468.586-.939.867-1.412.108-.181.222-.362.327-.544q.053-.085.104-.172v9.114c-5.548 7.275-13.245 13.919-22.894 19.749l-.116.07q-.54.333-1.089.654c-9.592 5.632-20.851 10.322-33.164 13.853l-.091.026q-1.622.464-3.267.901l-.192.05q-1.597.423-3.216.82l-.276.066a183 183 0 0 1-7.063 1.575q-1.052.211-2.111.41.182-.428.368-.855a120 120 0 0 1 1.986-4.364m79.624-58.039q.343-.937.641-1.878l.088-.297c.142-.461.286-.921.411-1.383l.079-.005c.038.686.056 1.313.056 1.903a39 39 0 0 1-.763 7.586l-.029.133q-.137.681-.3 1.361l-.059.234q-.154.631-.328 1.26l-.082.277q-.143.498-.3.996l-6.323 2.763q.192-.397.374-.797c2.796-3.871 4.961-7.892 6.48-11.997zm-68.841 149.486c.363-.102.718-.211 1.08-.315 1.286-.369 2.567-.742 3.825-1.136.31-.097.611-.201.919-.3a157 157 0 0 0 3.857-1.276c.225-.079.443-.163.668-.243 1.338-.473 2.666-.954 3.969-1.457l.296-.119c5.915-2.297 11.474-4.891 16.618-7.785q.535-.303 1.065-.613l.063-.041c7.051-4.075 13.098-8.599 18.069-13.495l.113-.107a70 70 0 0 0 2.183-2.271c.075-.082.157-.16.231-.242a63 63 0 0 0 1.919-2.217c.095-.114.201-.225.295-.34l8.554-3.74-.033.057c-.125.208-.261.413-.39.62-.237.379-.472.758-.721 1.135-.153.232-.317.462-.475.693-.238.35-.476.7-.725 1.048-.171.238-.35.474-.526.71-.251.34-.502.679-.763 1.016-.184.237-.375.472-.563.708-.267.334-.534.668-.811.999-.195.235-.397.468-.597.701q-.424.497-.863.99-.308.343-.623.684a70 70 0 0 1-1.567 1.652 70 70 0 0 1-2.693 2.612q-.337.311-.68.621-.549.493-1.111.982-.344.3-.694.598-.581.492-1.177.978-.351.29-.707.577-.613.488-1.24.972-.357.278-.72.555-.644.485-1.301.962c-.246.179-.488.36-.736.538-.446.318-.902.633-1.358.947-.251.174-.498.349-.753.521a96 96 0 0 1-1.391.917c-.266.174-.527.35-.796.522-.437.279-.885.553-1.331.829-.297.184-.589.371-.89.553l-.039.02q-.599.367-1.203.725c-10.007 5.876-21.659 10.676-34.63 14.271a53 53 0 0 1-5.67-1.994c-.245-.249-.482-.506-.722-.759.312-.078.615-.165.926-.245a179 179 0 0 0 3.849-1.018m48.926-31.112-.055.044v-2.851l2.107 1.048a82 82 0 0 1-1.32 1.137c-.246.207-.483.417-.732.622m17.371-8.746v1.618l-1.275.558-.004.001-10.433 4.56v-65.017l11.606-5.076.106 60.534zm-17.426 4.486v-36.356a.64.64 0 0 0-.09-.322l-.006-.016c-.017-.028-.05-.042-.071-.068-.041-.048-.073-.102-.127-.138-.012-.008-.027-.006-.039-.013-.011-.007-.016-.019-.027-.025l-5.356-2.665v-7.988l.003-.011v-20.227l10.126 5.038v64.985zm-4.648-35.32h-.002l-2.792 1.221-4.064 1.776-2.139.935-4.285-2.133-5.622-2.797 11.455-5.009 5.439 2.707.002.001 4.469 2.224-.707.309zm21.103-33.564-1.322.578-2.722 1.188-.001.002h-.002l-.183.081-3.59 1.569-2.071.904-.001.001-1.258.55-.224.098-7.359-3.664-.007-.002-2.54-1.263 11.455-5.007 5.28 2.626zm-41.833 59.789 5.558 2.764-11.454 5.008-9.911-4.933 11.456-5.007zm7.745 17.738v-14.936a.65.65 0 0 0-.084-.316l-.008-.013c-.014-.024-.04-.036-.057-.058l-.012-.012c-.041-.051-.077-.108-.134-.145l-.015-.005-.012-.013-.042-.022-1.201-.597-5.239-2.608v-25.224l5.926 2.949.002.001 1.972.981 2.227 1.108v40.562l-2.734-1.359zm4.624-38.887 1.668-.73 9.757-4.265.283-.124v35.75l-.004.015v4.83l-11.704 5.117zm-55.244-1.095.063-.298c22.328-3.192 42.503-9.799 58.37-19.117.238-.139.469-.281.701-.421l.497-.3q.814-.493 1.605-.993v4.493c-.287.174-.573.347-.866.521-16.638 9.771-37.754 16.601-61.107 19.785l.082-.438q.299-1.602.655-3.232m-.978 5.026c23.699-3.187 45.135-10.099 62.013-20.014l.05-.032.148-.088v6.193l-4.773-2.375a.66.66 0 0 0-.551-.014l-13.009 5.688c-.026.011-.048.03-.072.045l-.005.001-.003.004a.64.64 0 0 0-.234.255q0 .002-.003.004l-.001.006a.64.64 0 0 0-.071.28v25.629l-3.68-1.831a.66.66 0 0 0-.551-.014l-12.926 5.651q-.012.004-.022.01l-.06.026-.002.002c-.034.014-.07.025-.101.045-.067.044-.113.108-.159.171-.005.008-.014.013-.019.022a.63.63 0 0 0-.118.352v11.443c-.406.124-.825.235-1.234.357a181 181 0 0 1-16.223 4.031c-.244.049-.482.106-.726.154-1.455.286-2.93.536-4.403.79-.631.109-1.254.231-1.888.334-3.094-11.281-3.57-24.091-1.377-37.125m27.161 37.313v-16.243l10.128 5.04v17.622l-10.128-5.04zm11.428 6.475v-17.655l1.57-.686 4.244-1.853.001-.001 3.478-1.522 2.415-1.057v17.655zm52.83-23.463-.002-.003-2.83-1.408-.002-.002-.185-.091-.047-.023-.011-.006-.384-.193v-61.169a.64.64 0 0 0-.236-.479l-.017-.018c-.017-.014-.025-.036-.044-.048-.014-.009-.031-.008-.045-.015-.02-.014-.038-.032-.06-.043l-.007-.002q-.003 0-.004-.003l-4.676-2.324-.866-.431v-16.523l.003-.024v-10.198l4.323 2.151a.7.7 0 0 0 .2.1l.586.291 3.685 1.834.501.249v.52c0 .359.291.65.651.65.063 0 .121-.019.178-.036v87.598zm2.012-87.943 9.449-4.131 2.259-.987v88.352l-11.708 5.119zm10.575-6.042-11.21 4.898-.194-.096v-.523a.65.65 0 0 0-.65-.65.64.64 0 0 0-.628.536l-2.053-1.022-.004-.001-.465-.231-1.788-.89c-.021-.013-.03-.036-.052-.047l-4.045-2.013 6.494-2.837c.01-.004.016-.014.026-.019l4.906-2.145 9.91 4.932zm12.779-13.633c11.508 11.576 17.791 28.703 17.689 48.247-.102 19.848-6.823 40.919-18.923 59.332-6.71 10.213-14.711 19.126-23.774 26.544v-24.875l.714.356a.66.66 0 0 0 .551.013l13.008-5.687a.65.65 0 0 0 .39-.596v-89.771a.64.64 0 0 0-.09-.321c-.016-.029-.045-.046-.066-.072-.043-.054-.08-.112-.139-.151-.012-.008-.026-.006-.039-.013-.01-.006-.015-.019-.026-.025l-11.429-5.687a.66.66 0 0 0-.55-.014l-2.324 1.016v-10.517l-.001-.006a37 37 0 0 0-.064-1.915c8.963-.434 17.395.948 25.073 4.142"/>
    <path fill="#fff" d="M500.274 106.336h-.005c-4.564.002-8.276 3.717-8.276 8.281 0 1.536.443 3.006 1.243 4.306l-41.282 36.422a8.22 8.22 0 0 0-6.02-2.618 8.2 8.2 0 0 0-3.947 1.03l-30.575-40.355a8.2 8.2 0 0 0 1.067-4.014c0-4.565-3.714-8.28-8.28-8.28s-8.28 3.715-8.28 8.28a8.24 8.24 0 0 0 1.006 3.901l-18.634 19.423v-25.726c0-.014-.007-.025-.008-.038C378.245 68.375 322.417 37 253.8 37c-68.641 0-124.485 31.396-124.485 69.987 0 .122.01.243.011.365v81.243c0 .875.036 1.792.109 2.804.081 1.155.216 2.324.397 3.479a41 41 0 0 0-.507 6.203l-.002.007v.063c-.001.014-.008.025-.008.039v26.638l-38.162-41.669a8.25 8.25 0 0 0 .904-3.705c0-4.566-3.715-8.281-8.281-8.281s-8.28 3.715-8.28 8.281a8.23 8.23 0 0 0 2.065 5.449l-27.965 69.416c-.105-.004-.209-.016-.316-.016-4.566 0-8.28 3.715-8.28 8.281s3.714 8.282 8.28 8.282c.111 0 .22-.011.329-.016L78.3 321.644a8.3 8.3 0 0 0-1.612 4.899c0 4.566 3.714 8.281 8.28 8.281s8.28-3.715 8.28-8.281c0-.376-.038-.771-.095-1.171l36.29-32.937c-.008.102-.02.204-.027.305a.63.63 0 0 0-.093.315v2.185c-.001.019-.011.036-.011.055v81.074c0 .886.035 1.804.108 2.803.085 1.2.224 2.41.413 3.6 1.107 6.883 4.004 13.604 8.611 19.978 7.613 10.53 19.864 19.968 35.431 27.294l1.014.479c6.613 3.046 13.798 5.713 21.355 7.927 2.109.619 4.36 1.231 6.691 1.817 7.171 1.808 14.715 3.236 22.422 4.249 2.465.325 4.977.609 7.466.848a226 226 0 0 0 20.973.992c5.436 0 10.932-.21 16.36-.61l-22.734 55.931c-.982 2.683 6.814 6.343 11.074 7.904 2.833 1.038 7.462 2.378 10.531 2.378 1.544 0 2.695-.339 3.022-1.228l28.411-69.465c11.672-2.65 22.524-6.265 32.256-10.752q.514-.239 1.015-.479c15.563-7.327 27.814-16.764 35.427-27.292 4.608-6.37 7.505-13.092 8.612-19.979.345-2.148.521-4.303.521-6.403v-4.11c19.218-9.477 36.189-24.846 49.096-44.482 31.618-48.117 27.829-106.657-8.447-130.496a1 1 0 0 0-.079-.044h-.001l-13.929-9.256a59 59 0 0 0-3.061-2.158 62 62 0 0 0-2.597-1.603l-.11-.073a.6.6 0 0 0-.124-.063c-6.324-3.675-13.303-6.167-20.748-7.43v-38.877l20.91-21.797a8.24 8.24 0 0 0 4.994 1.693 8.13 8.13 0 0 0 4.858-1.584l30.27 39.961a8.27 8.27 0 0 0-1.668 4.962c0 4.566 3.716 8.28 8.283 8.28 4.565 0 8.28-3.714 8.28-8.28a8.2 8.2 0 0 0-.435-2.609l41.869-36.944c1.37.932 2.948 1.446 4.618 1.446 4.566 0 8.281-3.714 8.281-8.28 0-4.564-3.712-8.279-8.277-8.281M440.588 154.7l-.149.128c-.08.072-.167.136-.245.211l-30.503-40.268-.002-.004-1.642-2.17a.44.44 0 0 1-.084-.284c0-.02-.002-.039.002-.059a.43.43 0 0 1 .112-.219c.017-.02.03-.042.051-.058l.009-.006.01-.005a.44.44 0 0 1 .225-.076q.032-.004.062-.004a.4.4 0 0 1 .124.029c.018.006.036.009.053.018q.089.044.153.125l32.116 42.391c-.102.078-.194.168-.292.251m-63.598 8.433v11.287l-.047.076a61 61 0 0 1-1.023 1.582l-.124.185a68 68 0 0 0-3.084-.328c-.274-.024-.547-.036-.822-.056-.602-.044-1.205-.094-1.808-.122.178-.239.346-.48.519-.72.156-.216.315-.431.466-.647a55 55 0 0 0 1.226-1.825c.127-.198.246-.397.37-.596q.43-.69.833-1.384.203-.35.401-.703a47 47 0 0 0 1.94-3.883q.149-.34.292-.682.31-.735.59-1.474c.072-.189.148-.378.217-.568zM253.8 38.3c67.924 0 123.183 30.813 123.183 68.687 0 17.287-11.598 33.819-32.657 46.547l-.494.299q-.354.215-.715.429c-23.506 13.807-55.224 21.411-89.312 21.411-6.658 0-13.231-.295-19.681-.87-14.758-1.315-28.862-4.117-41.823-8.309a157 157 0 0 1-13-4.834 137 137 0 0 1-8.419-3.912 128 128 0 0 1-6.388-3.49q-.396-.235-.785-.471l-.423-.256a76 76 0 0 1-1.157-.714l-.274-.171-.263-.168c-1-.631-2.001-1.284-2.986-1.953l-.173-.116c-3.142-2.144-6.06-4.395-8.675-6.69a83 83 0 0 1-2.56-2.354c-10.841-10.416-16.572-22.304-16.572-34.379 0-.017-.008-.031-.01-.048C130.664 69.086 185.905 38.3 253.8 38.3m-121.669 83.48q.093.243.188.485.272.69.567 1.374l.122.272q.628 1.422 1.361 2.829l.12.233q.362.682.747 1.359l.261.453a55 55 0 0 0 2.705 4.195l.289.408q.468.646.959 1.288.163.212.331.425a64 64 0 0 0 3.842 4.489c.365.39.733.778 1.112 1.164.154.157.314.313.471.47.36.36.71.723 1.081 1.08l.06.05a75 75 0 0 0 2.549 2.341 91 91 0 0 0 8.801 6.788l.196.129c.961.654 1.959 1.306 3.029 1.981.081.05.16.107.241.157l.296.185c.381.238.763.476 1.193.735.392.239.785.478 1.18.708.84.495 1.694.977 2.558 1.458 1.298.718 2.61 1.415 3.901 2.071a138 138 0 0 0 8.499 3.949 158 158 0 0 0 13.457 4.982c12.842 4.124 26.783 6.901 41.366 8.228 6.614.602 13.359.907 20.19.907h.004c34.314 0 66.267-7.667 89.972-21.59a79 79 0 0 0 1.224-.735c.159-.095.308-.195.465-.292a110 110 0 0 0 5.456-3.563c.276-.193.546-.39.818-.584a96 96 0 0 0 1.808-1.325c.244-.183.492-.365.733-.55a93 93 0 0 0 2.929-2.351c.66-.553 1.31-1.108 1.94-1.67.219-.195.43-.391.644-.586q.795-.725 1.557-1.458.347-.33.686-.664a72 72 0 0 0 1.756-1.794q.318-.34.63-.682.69-.75 1.347-1.509c.176-.203.356-.405.528-.609a64 64 0 0 0 2.036-2.549c.477-.629.942-1.26 1.385-1.896.148-.213.288-.428.433-.641q.518-.767 1.004-1.538c.148-.236.299-.47.442-.706q.584-.962 1.118-1.934.21-.385.413-.772a49 49 0 0 0 1.225-2.487q.388-.849.737-1.704a42 42 0 0 0 1.043-2.792c.085-.253.16-.507.24-.76q.248-.788.462-1.58c.047-.174.107-.346.152-.52v41.472c-.15.625-.323 1.249-.507 1.872-.029.1-.051.201-.081.301a41 41 0 0 1-1.626 4.42l-.051.109a45 45 0 0 1-.964 2.066c-.063.126-.136.251-.2.377-.305.595-.616 1.19-.951 1.781-.092.162-.195.322-.289.483a49 49 0 0 1-.997 1.656c-.114.179-.239.355-.356.534a50 50 0 0 1-1.066 1.585c-.127.181-.266.36-.397.541-.333.46-.671.919-1.023 1.376-.093-.002-.187 0-.279-.002a70 70 0 0 0-2.153-.016c-.276.002-.553.014-.829.019-.554.012-1.107.021-1.662.045-.453.019-.908.051-1.362.079-.38.023-.76.04-1.141.069-.631.048-1.263.11-1.895.173-.207.021-.415.036-.622.059q-1.221.132-2.445.304l-.08.011c-18.059 2.538-36.434 11.346-52.451 25.075q-.166.144-.331.29-.964.83-1.918 1.685c-.273.245-.542.498-.813.746-.471.432-.944.86-1.411 1.3-.335.315-.663.639-.995.959-.399.383-.8.763-1.195 1.153-.364.359-.721.727-1.081 1.091-.359.362-.72.72-1.076 1.088-.355.367-.704.743-1.055 1.116-.357.377-.716.751-1.07 1.134-.324.351-.642.71-.962 1.066-.347.383-.696.761-1.039 1.15-11.869 2.017-24.251 3.042-36.81 3.042-4.455 0-8.92-.129-13.273-.384a3.76 3.76 0 0 0-2.732.95 3.75 3.75 0 0 0-1.258 2.603v.001a3.75 3.75 0 0 0 .949 2.733 3.75 3.75 0 0 0 2.603 1.259c4.499.264 9.112.397 13.711.397 5.288 0 10.558-.18 15.776-.527l.013-.001q1.923-.129 3.836-.288l.23-.021q1.797-.151 3.585-.33l.421-.044q1.676-.17 3.341-.365l.64-.077c.63-.076 1.262-.147 1.889-.228-.469.629-.919 1.268-1.377 1.904-.271.377-.548.748-.815 1.127a140 140 0 0 0-2.599 3.805l-.001.001-.002.003a139 139 0 0 0-2.095 3.288c-.075.122-.145.245-.22.367-.604.984-1.199 1.972-1.777 2.967-.112.194-.217.391-.329.585-.531.927-1.058 1.856-1.567 2.792-.125.232-.243.467-.368.699-.484.904-.964 1.809-1.427 2.72-.126.249-.244.5-.368.75-.45.9-.896 1.801-1.325 2.708-.119.253-.23.509-.348.762-.423.909-.841 1.819-1.242 2.735-.106.241-.204.485-.308.727-.402.933-.799 1.867-1.178 2.807-.088.216-.168.434-.254.651-.342.859-.684 1.718-1.007 2.582-.346.018-.691.028-1.037.043-1.324.06-2.65.113-3.976.149-.63.017-1.261.026-1.892.038q-1.642.032-3.271.041c-1.151.005-2.303.008-3.456-.005l-.352-.005a226 226 0 0 1-4.574-.105h-.005a221 221 0 0 1-6.572-.32l-.268-.016a216 216 0 0 1-6.556-.524l-.01-.001a220 220 0 0 1-7.421-.839c-7.665-1.009-15.159-2.429-22.274-4.221a189 189 0 0 1-6.16-1.669c-.157-.046-.326-.091-.483-.137-.354-.104-.697-.221-1.05-.327-7.119-2.138-13.892-4.662-20.125-7.533a66 66 0 0 1-1.009-.475c-15.363-7.233-27.441-16.527-34.928-26.878-4.487-6.208-7.306-12.743-8.38-19.422a41 41 0 0 1-.401-3.487 38 38 0 0 1-.105-2.711v-71.497c.028.109.063.218.092.328q.585 2.191 1.413 4.354m155.142 96.464a135 135 0 0 0-2.634 3.315c-10.044 1.352-20.416 2.037-30.832 2.037-4.57 0-9.158-.133-13.636-.395a2.48 2.48 0 0 1-2.329-2.614 2.48 2.48 0 0 1 2.097-2.303l.084-.007c.143-.017.288-.027.436-.018 4.394.256 8.885.386 13.348.386 2.958 0 5.904-.062 8.837-.174l.206-.007a231 231 0 0 0 3.742-.183c.277-.016.555-.027.831-.043 1.154-.068 2.302-.152 3.45-.238.366-.027.734-.05 1.1-.079 1.09-.087 2.175-.188 3.259-.291.422-.04.845-.076 1.266-.118 1.035-.104 2.065-.22 3.094-.339q.707-.08 1.412-.163 1.464-.18 2.921-.38.785-.105 1.569-.216 1.363-.197 2.718-.411c.353-.055.709-.104 1.061-.161-.504.589-.995 1.19-1.489 1.788-.17.206-.343.407-.511.614m56.693 172.833a134 134 0 0 1-3.641 1.888c-.277.138-.563.27-.841.406-.993.488-1.991.972-3.008 1.442-.384.177-.779.346-1.166.521-.927.418-1.855.835-2.8 1.238-.445.19-.9.371-1.349.558-.906.376-1.813.752-2.735 1.114-.48.189-.97.369-1.455.555-.908.347-1.818.693-2.742 1.027-.503.182-1.015.356-1.523.534-.923.323-1.848.646-2.786.956-.514.171-1.036.334-1.555.5q-1.01.324-2.031.637l2.453-5.997.378-.131q1.599-.534 3.168-1.094c.241-.087.475-.178.715-.266.938-.341 1.873-.684 2.795-1.04.31-.119.611-.246.919-.367.845-.332 1.689-.664 2.519-1.008.343-.142.677-.292 1.017-.436.787-.333 1.575-.664 2.347-1.008.32-.142.629-.291.946-.434.784-.356 1.57-.711 2.339-1.077.205-.097.402-.2.605-.298a126 126 0 0 0 8.69-4.598l.474-.283.152-.089.126-.077.477-.284a110 110 0 0 0 4.605-2.92 85 85 0 0 0 7.14-1.426l.194-.047a91 91 0 0 0 4.354-1.168l-.441.373a92 92 0 0 1-2.31 1.883q-.339.268-.681.534a99 99 0 0 1-2.531 1.886q-.454.33-.915.657-1.358.96-2.773 1.893-.488.32-.983.636-1.3.84-2.644 1.656c-.157.096-.31.193-.468.288l-.053.036-.508.302q-.358.216-.723.429-1.8 1.049-3.665 2.054zm-11.89-9.507a70 70 0 0 0 3.563.28c4.053.21 8.197.085 12.414-.401q-1.127.715-2.272 1.402l-.003.002-.399.241-.401.239c-.137.082-.272.164-.415.245q-1.463.852-2.974 1.676l-.368.194q-1.305.707-2.644 1.392c-.312.159-.632.312-.947.47-.714.357-1.429.713-2.157 1.06-.388.186-.785.364-1.177.547-.668.311-1.336.623-2.016.926-.425.189-.859.373-1.288.559-.663.288-1.326.576-1.999.856-.44.184-.888.361-1.333.542q-1.014.412-2.042.814c-.443.172-.891.338-1.338.507-.708.267-1.417.532-2.135.791q-.642.23-1.29.455-.702.245-1.41.485l5.861-14.326c2.141.45 4.322.781 6.53 1.019zm-50.858 28.196c-.212.026-.426.047-.639.071-1.077.125-2.156.247-3.24.357l-.233.021a234 234 0 0 1-23.299 1.155c-2.285 0-4.575-.033-6.853-.099l-.036-.002c-2.266-.066-4.52-.163-6.746-.294-.076-.004-.149-.024-.223-.035-.089-.013-.181-.02-.267-.042-.037-.01-.07-.028-.106-.039a2.48 2.48 0 0 1-1.733-2.494l-.001-.007c.038-.66.331-1.266.825-1.705.035-.031.075-.054.112-.083.089-.07.178-.142.275-.199.02-.011.041-.018.061-.029q.186-.104.385-.175l.005-.001q.223-.075.456-.109l.047-.005a3 3 0 0 1 .451-.023 229 229 0 0 0 17.671.346c.438-.009.874-.026 1.311-.037 1.001-.024 2.001-.048 2.998-.085.515-.019 1.027-.048 1.54-.071.92-.04 1.839-.079 2.756-.131.541-.03 1.079-.07 1.619-.104.884-.057 1.768-.111 2.648-.177.565-.043 1.127-.095 1.69-.141.85-.071 1.701-.14 2.548-.221.586-.055 1.168-.119 1.752-.179.818-.084 1.636-.167 2.45-.26.61-.07 1.216-.148 1.824-.222.778-.096 1.557-.191 2.332-.295.645-.086 1.285-.18 1.926-.272.54-.078 1.083-.148 1.62-.23l-2.168 5.336-.787.101q-1.48.2-2.971.379m-73.238-25.954a6.987 6.987 0 0 1-8.382 6.839c-.064-.013-.125-.033-.189-.048a7 7 0 0 1-.467-.121c-2.82-.877-4.88-3.496-4.912-6.593l.004-.073c0-2.15.976-4.15 2.678-5.488a6.8 6.8 0 0 1 1.746-1.002 6.94 6.94 0 0 1 4.616-.179c2.839.885 4.906 3.538 4.906 6.665M90.765 325.784c-.052.046-.097.066-.144.09a.5.5 0 0 1-.16.03h-.004a.45.45 0 0 1-.3-.782l1.915-1.738.025-.015 37.712-34.23q-.105.688-.186 1.377zm.6-4.466q-.145-.182-.3-.354a9 9 0 0 0-.423-.425 8 8 0 0 0-.807-.672 8 8 0 0 0-.34-.232 8 8 0 0 0-.54-.33c-.112-.062-.228-.117-.343-.174a8 8 0 0 0-.6-.272c-.107-.043-.219-.077-.329-.115a8 8 0 0 0-.664-.21c-.089-.023-.18-.036-.27-.056a8.3 8.3 0 0 0-1.78-.212c-.222 0-.44.031-.66.048-.14.011-.281.013-.42.031-.205.027-.405.074-.606.116-.168.035-.335.066-.5.111-.189.052-.373.117-.558.182a8 8 0 0 0-1.031.442c-.07.036-.145.063-.214.101l-27.847-46.381c.093-.049.176-.112.267-.165a7 7 0 0 0 .36-.222 8 8 0 0 0 1.48-1.216q.159-.163.31-.335c.152-.177.292-.362.429-.551.092-.128.186-.253.27-.386a8 8 0 0 0 .337-.593c.076-.143.156-.283.223-.431.093-.204.167-.416.243-.627.056-.157.12-.31.167-.47.063-.214.103-.434.148-.653.035-.168.081-.333.106-.504.03-.218.035-.442.049-.664.01-.173.038-.343.038-.518 0-.281-.034-.554-.061-.828-.012-.113-.01-.228-.026-.34-.036-.26-.1-.51-.161-.763-.031-.128-.051-.259-.088-.385-.07-.245-.165-.48-.258-.716-.05-.124-.09-.251-.145-.372a8 8 0 0 0-.35-.666c-.067-.117-.127-.236-.199-.349a8 8 0 0 0-.435-.608c-.083-.108-.162-.216-.25-.319a8 8 0 0 0-.513-.543q-.145-.146-.298-.284a8 8 0 0 0-.584-.469 8 8 0 0 0-.993-.629c-.063-.034-.12-.077-.184-.109l27.452-68.148c.079.034.162.059.242.09l.108.041q.418.159.85.273.057.016.115.03a8 8 0 0 0 .959.182h.004c.342.043.685.072 1.03.072a8.2 8.2 0 0 0 3.033-.585l.015-.006q.35-.14.685-.31l.02-.011q.342-.174.666-.379l.001-.001a9 9 0 0 0 .742-.524l40.378 44.087v49.677c0 .732.029 1.519.089 2.475-.009.067-.014.126-.021.19-.013.117-.029.239-.038.349a7 7 0 0 0-.018.458q-.003.042-.004.085v.004c0 .273.019.548.048.825q.017.145.04.291c.015.11.025.218.045.33l-37.657 34.179c-.023-.034-.051-.063-.075-.096a8 8 0 0 0-.359-.461m-12.17-.71-28.67-47.755-.001-.005-.488-.814a.455.455 0 0 1 .157-.621l.008-.005a.45.45 0 0 1 .203-.057c.017-.001.034.004.05.005a.5.5 0 0 1 .2.063.44.44 0 0 1 .152.147l.835 1.392.005.012 28.24 47.039c-.105.082-.2.175-.301.261q-.116.097-.23.199c-.052.048-.11.09-.16.139m116.43-70.13c.214.064.421.135.635.198l.3.085c2.027.591 4.169 1.174 6.389 1.734 7.164 1.804 14.708 3.234 22.423 4.249a212 212 0 0 0 14.119 1.375l.175.011c2.2.139 4.423.248 6.656.323l.005.001h.005c1.531.05 2.986.083 4.403.104l.277.003q1.423.02 2.799.021c.249 0 .502-.008.751-.009q2.055-.008 4.107-.054c.373-.008.742-.009 1.115-.019q2.328-.062 4.658-.171a129 129 0 0 0-1.802 5.368c-.346.014-.699.023-1.047.036-1.049.037-2.099.073-3.146.096-.38.008-.766.01-1.148.016q-1.524.026-3.033.032-1.629.003-3.285-.018l-.507-.007a212 212 0 0 1-4.091-.105h-.015a206 206 0 0 1-21.082-1.813 190 190 0 0 1-8.624-1.395c-7.104-1.319-14.043-3.036-20.622-5.103a162 162 0 0 1-6.168-2.079c-7.108-2.568-13.745-5.577-19.727-8.942l-1.057-.606-.03-.016q-1.221-.707-2.402-1.432c-.249-.153-.491-.308-.738-.462a99 99 0 0 1-2.454-1.582 92 92 0 0 1-1.435-.976q-.416-.286-.826-.574a97 97 0 0 1-1.567-1.139c-.19-.141-.385-.279-.573-.421a88 88 0 0 1-1.984-1.542c-.233-.187-.458-.377-.688-.565a80 80 0 0 1-1.27-1.058q-.39-.334-.771-.669-.57-.5-1.123-1.004-.374-.34-.74-.681a73 73 0 0 1-1.159-1.115c-.195-.192-.397-.382-.589-.575a65 65 0 0 1-1.595-1.657c-.176-.188-.343-.38-.515-.57q-.534-.584-1.046-1.176-.304-.354-.601-.71a58 58 0 0 1-2.325-2.967c-.157-.215-.319-.429-.473-.646a53 53 0 0 1-1.182-1.735l.096.102c.195.212.398.422.597.633q.514.548 1.045 1.092.36.363.725.725a79 79 0 0 0 2.88 2.706c.252.226.5.452.757.676q.823.717 1.677 1.423c.254.21.514.417.771.626.458.369.917.738 1.387 1.103q.438.337.884.671a83 83 0 0 0 2.158 1.588q.62.442 1.252.879.47.326.949.651c.486.328.981.651 1.477.974.261.17.518.342.781.51q1.115.71 2.262 1.402c.27.163.547.323.819.485q.798.473 1.611.939.486.277.977.549a121 121 0 0 0 2.547 1.385q.852.448 1.718.887.435.223.872.443 1.302.65 2.638 1.281c.341.164.676.321 1.021.481 6.42 2.959 13.394 5.553 20.722 7.73m-64.521-50.073q.295.976.638 1.946c.049.139.094.279.145.418a46 46 0 0 0 2.031 4.719c.089.18.184.36.276.539a50 50 0 0 0 1.313 2.405q.514.88 1.069 1.753c.113.177.22.355.335.532.482.738.98 1.474 1.506 2.203a47 47 0 0 0 2.134 4.116l.009.017c5.053 8.687 13.282 16.732 24.119 23.598a106 106 0 0 0 3.762 2.288l.017.009q.52.303 1.045.599c6.025 3.391 12.728 6.431 19.924 9.033a161 161 0 0 0 6.219 2.095c6.604 2.079 13.594 3.81 20.774 5.141 2.809.523 5.729.996 8.683 1.405a207 207 0 0 0 21.239 1.825c1.384.048 2.708.082 3.996.104l.218.003q1.657.029 3.251.029l.321-.003c2.759-.003 5.464-.057 8.103-.161-.095.319-.175.644-.268.965q-.388 1.33-.744 2.67c-.089.333-.191.663-.277.995-2.41.079-4.807.123-7.131.123h-.004c-27.16 0-52.924-4.846-74.506-14.014a137 137 0 0 1-8.418-3.911 130 130 0 0 1-6.389-3.49q-.396-.235-.785-.471l-.423-.257a63 63 0 0 1-1.187-.732l-.244-.152c-.162-.101-.309-.199-.468-.299-.868-.55-1.733-1.115-2.586-1.692-.121-.082-.248-.164-.368-.246-3.142-2.145-6.061-4.396-8.674-6.691a84 84 0 0 1-2.561-2.353 72 72 0 0 1-2.657-2.693q-.173-.181-.344-.364-.525-.57-1.032-1.145l-.402-.459a62 62 0 0 1-2.257-2.756q-.156-.203-.308-.407-.219-.292-.433-.585c-.263-.36-.529-.72-.781-1.083a57 57 0 0 1-.589-.854 55 55 0 0 1-1.384-2.177c-.188-.313-.359-.629-.539-.943a49 49 0 0 1-.966-1.748c-.165-.318-.317-.637-.474-.957a48 48 0 0 1-.831-1.761c-.145-.329-.279-.659-.415-.989-.24-.58-.472-1.162-.685-1.746-.127-.349-.245-.699-.363-1.048a42 42 0 0 1-.621-1.983c-.038-.137-.08-.274-.117-.411-.21-.778-.39-1.559-.552-2.342l-.036-.184a37 37 0 0 1-.125-.652 38 38 0 0 1-.329-2.079l-.04-.268v-.002l-.005-.014-.019-.168q-.048-.425-.091-.846a40 40 0 0 1-.101-1.236v-.002l-.008-.121-.003.001-.007-.11.004-.001c-.018-.27-.028-.54-.039-.81l-.002-.053h-.002l-.001-.029.003-.001c-.01-.32-.02-.645-.021-.965l.004-.018-.004-.304-.003-.013a39 39 0 0 1 .066-2.158c.072.27.159.539.236.809q.086.308.179.617m-.369 11.258q.1.376.209.752c.022.077.04.155.063.232.061.208.131.415.195.623l.058.19c.047.15.087.3.136.45l.099.292q.258.771.547 1.538l.222.573.127.309.038.093q.151.378.308.753.21.496.435.988.104.232.211.465l.056.116q.032.069.066.137.235.502.484 1.002c.105.21.218.419.327.629.115.221.226.443.345.664v.001c.23.427.474.851.719 1.275.112.193.219.387.334.579l.322.538c.098.161.205.32.305.48.079.126.152.253.233.379.059.093.124.186.184.279q.297.461.606.919.363.54.742 1.076l.143.201.194.273a58 58 0 0 0 1.336 1.788q.567.729 1.163 1.449a66 66 0 0 0 2.08 2.399q.39.429.789.855a75 75 0 0 0 3.757 3.715q.44.406.891.81a78 78 0 0 0 2.635 2.259 87 87 0 0 0 2.605 2.064 95 95 0 0 0 2.916 2.131 96 96 0 0 0 2.909 1.971q.965.629 1.957 1.245c.202.125.395.256.599.381q.616.377 1.246.748c5.798 3.445 12.241 6.57 19.151 9.287 1.951.765 3.971 1.511 6.004 2.216a170 170 0 0 0 9.759 3.05c.324.091.657.171.982.26 1.341.368 2.686.733 4.049 1.073.202.051.408.094.61.144 1.493.367 2.992.725 4.506 1.059l.311.065a197 197 0 0 0 4.52.929q1.522.295 3.086.575l.328.061c3.688.648 7.435 1.202 11.138 1.645a218 218 0 0 0 11.794 1.073c1.672.106 3.341.181 5.007.249.399.017.794.045 1.194.06 2.815.101 5.446.151 8.042.151h.145a218 218 0 0 0 6.633-.109c-.225.916-.422 1.83-.624 2.745-.045.204-.095.408-.139.612q-.391 1.827-.721 3.648c-.022.121-.048.242-.069.362a115 115 0 0 0-.636 3.948l-.009.054c-1.537 10.768-1.473 21.312.171 31.142.014.086.033.17.047.257q.287 1.689.635 3.349c.036.171.079.338.116.509.221 1.018.455 2.029.711 3.028.057.221.121.437.179.657.251.943.511 1.88.793 2.805.076.252.161.499.24.75.28.884.567 1.764.876 2.632.096.269.2.533.298.801.23.625.451 1.255.697 1.87l-.452.016c-2.994.12-5.98.186-8.891.186-26.821 0-52.239-4.775-73.505-13.809a133 133 0 0 1-8.257-3.835 112 112 0 0 1-3.779-2.006 3.227 3.227 0 0 0-4.374 1.257 3.2 3.2 0 0 0-.14 2.791 3.2 3.2 0 0 0 1.395 1.585c1.337.74 2.676 1.452 3.98 2.116a140 140 0 0 0 8.662 4.024c22.054 9.367 48.34 14.318 76.018 14.318 3.707 0 7.473-.11 11.217-.296.331-.017.664-.023.995-.041.165.322.353.625.524.943a70 70 0 0 0 2.107 3.655q.571.923 1.169 1.821.47.71.955 1.406a65 65 0 0 0 1.535 2.085q.47.615.952 1.217a62 62 0 0 0 1.775 2.106c.153.173.293.359.446.529a220 220 0 0 1-23.461 1.059H252a240 240 0 0 1-5.644-.119c-.292-.01-.582-.026-.874-.037a216 216 0 0 1-6.798-.359q-2.409-.165-4.796-.382c-.312-.029-.63-.053-.941-.083a212 212 0 0 1-7.42-.84c-7.665-1.007-15.16-2.427-22.275-4.219-2.3-.58-4.535-1.188-6.642-1.807-7.497-2.195-14.622-4.84-21.175-7.859l-1.009-.476c-.34-.16-.674-.326-1.011-.489-.385-.186-.773-.371-1.155-.559l-27.487-43.793.021-.042a8.2 8.2 0 0 0 1.093-4.058 8.29 8.29 0 0 0-4.347-7.285 8.2 8.2 0 0 0-3.948-1.003c-.149 0-.294.021-.442.029-.127.007-.253.012-.379.024q-.281.03-.558.079-.139.025-.275.054a8.2 8.2 0 0 0-1.972.68 8.4 8.4 0 0 0-3.343 2.973v-52.289c0-.014-.007-.027-.008-.041v-18.213c.035.137.083.272.12.409m129.248 123.83c-2.067.057-4.131.087-6.176.087-27.498 0-53.609-4.915-75.51-14.214a141 141 0 0 1-8.58-3.986 128 128 0 0 1-3.941-2.095 1.92 1.92 0 0 1-.978-1.509c-.004-.047.002-.095.001-.142-.001-.076-.006-.152.002-.228.026-.247.101-.493.228-.723.082-.148.185-.278.297-.395l.057-.054q.157-.15.34-.261l.042-.027c.278-.156.591-.239.91-.245h.084q.186.005.373.047l.073.015c.148.04.293.094.432.171 1.322.732 2.607 1.414 3.819 2.028a134 134 0 0 0 8.338 3.873c21.414 9.094 46.985 13.905 73.951 13.913l.062.002c3.304 0 6.622-.075 9.868-.221a71 71 0 0 0 1.707 3.739c-1.638.085-3.279.157-4.919.206-.16.005-.32.014-.48.019m18.478 17.86c.283.273.564.547.854.815q.926.856 1.89 1.677c.112.096.218.198.331.293-.585.079-1.17.16-1.757.233q-.307.04-.616.078-1.497.183-3.003.343l-.542.059q-1.564.163-3.135.302l-.433.04q-1.663.144-3.336.262l-.245.018a209 209 0 0 1-22.104.371 206 206 0 0 1-21.084-1.812 192 192 0 0 1-8.623-1.396c-7.139-1.324-14.077-3.042-20.621-5.104a154 154 0 0 1-6.156-2.073l-.001-.001c-.228-.082-.451-.17-.678-.253-.87-.319-1.739-.64-2.596-.973-.294-.114-.581-.235-.874-.351-.776-.307-1.552-.614-2.315-.932-.45-.187-.889-.383-1.334-.574-.595-.255-1.194-.507-1.78-.768-.486-.217-.959-.442-1.439-.663-.507-.234-1.019-.464-1.517-.702l-3.781-6.023.317.151c.34.162.676.321 1.02.481 6.6 3.038 13.785 5.705 21.357 7.927 2.197.642 4.448 1.254 6.689 1.817 7.174 1.808 14.717 3.238 22.422 4.249 2.463.324 4.975.61 7.467.848.305.029.617.045.923.073a207 207 0 0 0 6.88.514q2.383.142 4.797.232c.296.011.593.034.889.043 1.863.065 3.726.097 5.588.113l.185.002c8.251.067 16.466-.323 24.504-1.159.182.191.379.371.564.559q.635.651 1.293 1.284m-147.332-58.761c.05.164.091.329.143.493 1.301 4.104 3.256 8.138 5.835 12.04.093.14.195.279.29.419.333.494.667.987 1.02 1.477 5.136 11.266 15.515 21.645 30.018 30.015q.53.308 1.069.615a122 122 0 0 0 3.139 1.694l4.48 7.135q-.381-.17-.759-.342a137 137 0 0 1-2.988-1.391q-.873-.42-1.728-.848c-.254-.127-.516-.253-.766-.381a127 127 0 0 1-6.387-3.489q-.39-.232-.773-.464l-.436-.265a63 63 0 0 1-1.157-.713l-.274-.17a100 100 0 0 1-3.421-2.238c-3.144-2.145-6.063-4.397-8.675-6.691a84 84 0 0 1-2.561-2.353c-10.744-10.324-16.474-22.106-16.568-34.072l-.003-.015q.006-.969.064-1.961c.133.503.286 1.004.438 1.505m49.186 50.435q.94.415 1.896.819.55.233 1.104.464 1.006.414 2.025.815.498.199.998.395 1.483.574 2.992 1.121l.044.017q.027.013.056.023c1.958.708 3.992 1.393 6.219 2.095 6.628 2.084 13.618 3.814 20.775 5.141 2.791.52 5.712.994 8.683 1.406a207 207 0 0 0 21.216 1.825c2.692.092 5.139.137 7.484.137 9.84 0 19.631-.679 29.11-2.015a60 60 0 0 0 4.258 3.077l.646.433-.139.022a203 203 0 0 1-3.951.591l-.203.027q-2.004.278-4.022.519l-.109.012a219 219 0 0 1-25.597 1.492c-22.347 0-43.887-3.317-62.872-9.634l-.21-.067a161 161 0 0 1-3.413-1.191c-.214-.077-.433-.148-.646-.226-.976-.356-1.937-.728-2.898-1.1-.339-.131-.684-.255-1.021-.389l-4.119-6.562c.203.093.413.182.617.274q.536.242 1.077.479m-48.386-52.346c-.046-.175-.08-.362-.124-.54a9 9 0 0 0 .747.642q.093.07.189.138.307.224.634.419.107.067.217.13c.28.156.567.301.863.424l.079.028q.402.161.821.28.158.043.318.081.315.077.637.128.17.03.344.052.396.046.798.054c.052.001.103.01.155.01q.032 0 .065-.004c.36-.003.718-.037 1.072-.087q.096-.012.19-.026a8 8 0 0 0 1.054-.246l.193-.062a8 8 0 0 0 1.019-.407l.121-.063a8 8 0 0 0 1.005-.591l23.745 37.829a121 121 0 0 1-1.719-.997c-.148-.087-.3-.173-.447-.26-.498-.296-.986-.597-1.474-.897-.216-.133-.436-.265-.65-.399-.455-.284-.901-.573-1.347-.861-.236-.153-.476-.305-.709-.458-.432-.284-.855-.572-1.278-.859l-.708-.482q-.62-.431-1.225-.867-.35-.25-.697-.501-.596-.435-1.177-.876-.34-.256-.677-.513a96 96 0 0 1-2.892-2.327l-.609-.517a91 91 0 0 1-1.078-.941q-.286-.255-.567-.511a76 76 0 0 1-1.051-.97q-.268-.252-.529-.505a75 75 0 0 1-1.022-.998q-.243-.245-.483-.491-.509-.517-1.004-1.039-.211-.227-.419-.454a72 72 0 0 1-.998-1.097c-.115-.13-.225-.262-.339-.393a61 61 0 0 1-1.011-1.182l-.207-.257a61 61 0 0 1-2.245-2.906c-3.626-5.015-6.175-10.275-7.58-15.631m37.158 45.231-.082-.049a110 110 0 0 1-2.304-1.374c-.285-.174-.563-.352-.845-.528a102 102 0 0 1-2.41-1.555 88 88 0 0 1-1.365-.928q-.442-.303-.877-.609a93 93 0 0 1-1.53-1.112c-.2-.148-.406-.293-.603-.442a84 84 0 0 1-1.955-1.52c-.26-.208-.512-.419-.768-.629q-.603-.493-1.191-.992-.407-.349-.807-.699a81 81 0 0 1-1.098-.982q-.378-.343-.749-.688a72 72 0 0 1-1.185-1.141c-.186-.181-.377-.362-.559-.544a67 67 0 0 1-1.596-1.657c-.182-.195-.354-.392-.532-.588a62 62 0 0 1-1.037-1.166q-.296-.343-.584-.688a62 62 0 0 1-.917-1.122q-.271-.339-.537-.679-.49-.636-.957-1.278c-.127-.174-.259-.347-.383-.522a53 53 0 0 1-1.162-1.706c.116.127.243.249.36.375a72 72 0 0 0 1.741 1.815c.141.141.276.285.419.426a78 78 0 0 0 2.884 2.696 81 81 0 0 0 2.325 2.004c.152.126.312.249.465.374q1.066.867 2.178 1.716.37.284.745.567a98 98 0 0 0 2.623 1.895c.226.157.459.312.688.469q1.173.803 2.391 1.588c.227.146.449.293.678.438q1.444.914 2.95 1.802.404.238.812.474 1.414.822 2.881 1.621c.102.056.199.115.303.171l3.743 5.964c-.364-.198-.739-.39-1.097-.591zm-24.515-51.673c0 .976-.21 1.934-.606 2.82l-.625-.997a1.76 1.76 0 0 0-2.417-.555 1.756 1.756 0 0 0-.553 2.413l1.251 1.994c-.108.076-.212.156-.323.226-.127.079-.253.158-.384.229a7 7 0 0 1-.65.302c-.134.056-.266.117-.403.164a7 7 0 0 1-.756.203c-.119.026-.235.064-.355.084a7 7 0 0 1-1.152.101c-.278 0-.552-.022-.825-.055-.03-.004-.061-.003-.091-.007a7 7 0 0 1-.717-.144c-.057-.014-.116-.021-.172-.036-.203-.056-.4-.131-.597-.204-.085-.032-.172-.054-.255-.089-.152-.063-.296-.144-.443-.217-.121-.061-.247-.114-.364-.181-.079-.046-.15-.102-.227-.15a7 7 0 0 1-2.307-2.355c-.089-.15-.158-.325-.237-.488-.082-.169-.175-.332-.244-.509a41 41 0 0 1-.386-3.377l-.013-.239c.521-3.372 3.469-5.906 6.886-5.906 1.199 0 2.328.304 3.314.839a6.99 6.99 0 0 1 3.651 6.134m52.446 90.339a6 6 0 0 0-.227.131c-.1.06-.204.111-.301.174l-16.683-26.579-.003-.006-.45-.721-.008-.007-36.29-57.817-.003-.007-1.578-2.514a.45.45 0 0 1 .144-.621c.012-.008.027-.008.039-.015a.46.46 0 0 1 .243-.044.5.5 0 0 1 .122.031q.034.012.065.029a.44.44 0 0 1 .149.139l1.209 1.926c.005.009.003.02.008.029l27.79 44.275c.005.008.016.012.022.02l5.058 8.058c.006.01.007.022.013.032l5.408 8.617c.005.008.014.013.019.021l.42.67.008.02 15.072 24.017c-.084.043-.163.096-.246.142m-67.703-145.492-39.428-43.05c.105-.115.196-.24.294-.36l.114-.14c.055-.07.116-.134.168-.205l38.852 42.421zm-45.54-55.613a6.99 6.99 0 0 1 6.982 6.981c0 1.214-.326 2.42-.943 3.486a7 7 0 0 1-1.269 1.598 6.95 6.95 0 0 1-5.464 1.86l-.035-.002a7 7 0 0 1-.554-.088q-.114-.02-.227-.043a7 7 0 0 1-.757-.215 6 6 0 0 1-.48-.182l-.072-.034.435-1.076v-.001q.003-.014.008-.027.06-.151.09-.307c.006-.033.004-.067.009-.101.01-.079.021-.158.02-.237 0-.096-.014-.191-.03-.285-.003-.017-.002-.035-.006-.052a1.74 1.74 0 0 0-.46-.862l-.011-.014a1.7 1.7 0 0 0-.503-.347c-.011-.005-.018-.015-.03-.02l-.059-.027a1.74 1.74 0 0 0-1.337.011 1.74 1.74 0 0 0-.939.957l-.032.079a6.93 6.93 0 0 1-1.315-4.071c0-3.849 3.131-6.981 6.98-6.981m-4.422 11.459a.44.44 0 0 1 .236-.242.45.45 0 0 1 .597.58l-.664 1.643-.017.047-27.69 68.737c-.124-.04-.252-.066-.379-.1q-.129-.036-.259-.067c-.08-.019-.158-.046-.239-.063zM42.3 265.584a6.99 6.99 0 0 1 7.666-6.946 6.9 6.9 0 0 1 1.943.479c.009.004.014.013.024.016a6.965 6.965 0 0 1 4.248 7.48c-.01.068-.03.133-.042.2-.046.259-.1.515-.173.764-.035.118-.083.23-.124.344-.068.192-.136.385-.22.569-.061.133-.134.258-.203.387-.084.156-.167.314-.263.463-.085.134-.181.261-.276.389a7 7 0 0 1-.302.388 7 7 0 0 1-.347.369q-.162.166-.335.321a7 7 0 0 1-.415.335 7 7 0 0 1-.844.547q-.09.047-.181.092l-.534-.887a1.73 1.73 0 0 0-.67-.628 1.74 1.74 0 0 0-1.709.019l-.02.009-.004.002-.023.017-.042.03-.021.017a1.73 1.73 0 0 0-.712 1.012c-.045.18-.053.362-.042.542l.003.047a1.7 1.7 0 0 0 .063.329 2 2 0 0 0 .073.199c.009.02.013.042.023.062a6.99 6.99 0 0 1-6.541-6.967m42.668 67.939a6.99 6.99 0 0 1-6.98-6.98 7 7 0 0 1 1.598-4.446q.334-.4.717-.743.373-.334.794-.613l.017-.007a6.94 6.94 0 0 1 3.854-1.16c.637 0 1.26.087 1.858.252l.005.001q.432.121.844.295.053.024.105.05.358.157.696.352.076.046.15.095.307.187.592.405.086.068.17.139.263.214.504.454.088.089.173.181a7 7 0 0 1 .588.72c.057.08.107.168.161.252l-1.53 1.388a1.751 1.751 0 0 0 1.173 3.047h.004c.433 0 .85-.162 1.177-.455l.31-.282v.075a6.99 6.99 0 0 1-6.98 6.98m161.388 111.404a219 219 0 0 1-13.409-.858c-2.474-.236-4.97-.519-7.421-.842-7.656-1.006-15.151-2.426-22.274-4.22a178 178 0 0 1-6.642-1.805c-7.497-2.196-14.622-4.84-21.175-7.86l-1.009-.474c-15.366-7.233-27.444-16.528-34.928-26.88-4.487-6.207-7.307-12.741-8.381-19.422a40 40 0 0 1-.4-3.486 37 37 0 0 1-.105-2.711v-70.934c.082.317.187.631.277.947q.09.318.186.636.376 1.253.831 2.494c.051.139.098.278.15.416q.265.699.555 1.393.11.26.222.517a48 48 0 0 0 1.109 2.39q.136.274.274.547a52 52 0 0 0 2.41 4.191q.167.26.337.519a56 56 0 0 0 1.652 2.39q.138.194.28.386.5.675 1.024 1.342c.086.11.177.22.264.329a65 65 0 0 0 1.988 2.374q.212.242.427.482a72 72 0 0 0 3.773 3.898q.229.218.461.435a79 79 0 0 0 2.4 2.172l.46.4q.72.616 1.461 1.224l.149.119q1.437 1.17 2.962 2.307.298.223.598.444a98 98 0 0 0 3.099 2.186l.24.165q.84.565 1.703 1.12.303.194.608.386c.521.331 1.029.667 1.562.993.41.25.827.502 1.245.747 4.698 2.793 9.906 5.409 15.481 7.779l16.644 26.518a8.23 8.23 0 0 0-2.725 6.131c0 3.714 2.458 6.864 5.832 7.911a8.3 8.3 0 0 0 2.46.373c4.566 0 8.28-3.715 8.28-8.28 0-3.714-2.458-6.864-5.831-7.911a8.2 8.2 0 0 0-2.46-.373c-.038 0-.074.008-.112.009-.32.004-.639.032-.956.075q-.171.02-.341.049a8 8 0 0 0-.959.229c-.047.014-.095.019-.142.034l-14.148-22.542.235.085c1.294.487 2.598.965 3.912 1.42 6.338 2.197 13.035 4.077 19.906 5.587 2.63.579 5.404 1.128 8.245 1.631 3.693.647 7.441 1.201 11.137 1.643a218 218 0 0 0 17.994 1.382c2.83.103 5.461.153 8.043.153 12.317 0 24.506-1.017 36.24-3.016l11.022 7.404-13.36 32.868c-.635.099-1.275.188-1.914.281-.689.101-1.377.207-2.07.301-.679.092-1.363.172-2.045.258-.717.09-1.432.185-2.153.269-.671.077-1.346.143-2.02.214-.735.078-1.467.161-2.205.232-.688.065-1.38.119-2.07.178-.728.063-1.454.131-2.184.187s-1.463.098-2.196.147c-.694.046-1.386.098-2.082.137-.782.045-1.568.076-2.352.112-.652.03-1.302.068-1.955.092-.896.034-1.796.054-2.695.077-.542.014-1.083.035-1.626.046q-2.167.04-4.342.041c-4.435 0-8.901-.129-13.272-.384-.042-.002-.083.006-.125.005a3.7 3.7 0 0 0-2.252.685c-.12.084-.244.16-.355.258a3.75 3.75 0 0 0-1.259 2.604l.001.015q-.02.38.033.749l.004.016c.106.72.415 1.394.91 1.95.489.55 1.114.931 1.807 1.123l.045.017q.366.097.752.12c2.243.131 4.513.23 6.795.296.922.027 1.847.025 2.772.041 1.354.024 2.707.06 4.061.06l.072.004c4.029 0 8.047-.104 12.04-.307l.122-.007q1.893-.096 3.778-.223l.622-.046q1.631-.113 3.255-.248c.315-.027.628-.058.943-.085q1.46-.128 2.911-.273.575-.06 1.149-.123c.897-.096 1.794-.193 2.687-.299q.637-.078 1.273-.158c.609-.076 1.221-.147 1.827-.228l-13.711 33.733c-5.599.428-11.282.645-16.896.645-2.373 0-4.806-.042-7.44-.128m24.481 65.333c-.238.649-4.573.782-11.894-1.9s-10.538-5.586-10.309-6.214l37.4-92.012.008-.009 2.742-6.748 13.398-32.958 2.027 1.36.05.036c5.424 3.567 11.387 6.215 17.751 7.914l.015.003c.66.177 1.321.352 1.99.508l-6.316 15.441-.005.007-3.09 7.557-.001.007zM376.99 376.361c0 2.032-.169 4.117-.504 6.196-1.074 6.685-3.894 13.22-8.381 19.424-7.486 10.351-19.563 19.644-34.933 26.88-.334.161-.665.317-1.002.473-9.401 4.334-19.862 7.853-31.109 10.464l14.632-35.778c.156-.047.307-.098.462-.146 1.344-.408 2.679-.825 3.996-1.259l.286-.099q2.07-.684 4.094-1.412l.102-.038c8.592-3.103 16.548-6.772 23.738-10.962l1.294-.77c6.087-3.652 11.527-7.659 16.174-11.914a99 99 0 0 0 5.961-2.232l.176-.075q1.395-.576 2.784-1.197l.477-.218c.585-.266 1.171-.527 1.753-.804zm49.311-49.307c-12.862 19.568-29.788 34.858-48.948 44.217a100 100 0 0 1-12.065 4.959c-4.855 1.622-9.757 2.813-14.569 3.54-8.936 1.354-17.573 1.136-25.672-.641-7.253-1.592-14.007-4.422-20.075-8.412-.45-.293-.891-.593-1.297-.877a2 2 0 0 0-.124-.091 59 59 0 0 1-1.255-.908l-.008-.005a62 62 0 0 1-2.997-2.371 57 57 0 0 1-1.206-1.054l-.285-.252a60 60 0 0 1-1.248-1.158 60 60 0 0 1-3.211-3.332 16 16 0 0 1-.391-.448 62 62 0 0 1-3.849-4.87 65 65 0 0 1-3.701-5.832c-2.517-4.479-4.581-9.363-6.13-14.513l-.097-.329a82 82 0 0 1-1.306-4.975c-2.71-11.854-2.94-25.179-.667-38.536.3-1.756.639-3.511 1.009-5.215a125 125 0 0 1 5.036-17.081l.038-.107c.78-2.087 1.645-4.217 2.569-6.332a137 137 0 0 1 3.277-6.967 139 139 0 0 1 7.78-13.426c6.803-10.351 14.823-19.581 23.838-27.433 13.283-11.568 28.323-19.732 43.496-23.609a82.5 82.5 0 0 1 12.237-2.183q.349-.033.701-.061l.522-.044c11.572-.966 22.359.736 32.077 5.054a59.4 59.4 0 0 1 8.457 4.613l.011.005q.027.017.055.031c35.603 23.478 39.199 81.161 7.998 128.643m-27.778-141.78.061.04a61 61 0 0 1 2.573 1.588c.989.651 2 1.364 3.003 2.118l.043.028 3.919 2.605-.048-.017a62 62 0 0 0-10.789-3.191l-.074-.015a64 64 0 0 0-3.695-.625l-.116-.016a67 67 0 0 0-3.774-.414l-.072-.005a73 73 0 0 0-11.968.035l-.235.019q-.508.037-1.009.088a84 84 0 0 0-12.432 2.217c-15.355 3.923-30.58 12.184-44.027 23.889-9.107 7.93-17.205 17.25-24.071 27.699a140 140 0 0 0-7.854 13.553 133 133 0 0 0-3.309 7.034 136 136 0 0 0-2.587 6.381l-.047.13a126 126 0 0 0-5.086 17.252c-.374 1.716-.718 3.49-1.022 5.274-2.332 13.725-2.102 26.861.681 39.044a83 83 0 0 0 1.233 4.715.63.63 0 0 0 .063.524l.162.25c1.578 5.202 3.665 10.139 6.211 14.676a67 67 0 0 0 3.774 5.949 63 63 0 0 0 3.931 4.974l.403.462q.886.988 1.783 1.908l.015.016-6.256-4.199a60 60 0 0 1-4.387-3.187 59 59 0 0 1-6.187-5.696c-4.058-4.311-7.534-9.291-10.333-14.8a72 72 0 0 1-2.292-4.975c-7.136-17.232-8.076-38.558-2.646-60.056l.024-.102a120 120 0 0 1 1.663-5.926 129 129 0 0 1 2.255-6.664c3.491-9.45 8.143-18.63 13.828-27.284.063-.095.132-.19.196-.286a139 139 0 0 1 5.485-7.722 137 137 0 0 1 5.925-7.229l.445-.493a128 128 0 0 1 1.588-1.765c.233-.254.472-.5.707-.752.456-.486.91-.975 1.37-1.452.277-.288.559-.567.838-.851.423-.431.845-.864 1.272-1.287.32-.317.644-.625.967-.938.39-.379.779-.761 1.173-1.134.363-.343.731-.677 1.096-1.014.357-.331.713-.664 1.073-.989.402-.363.809-.717 1.214-1.074.328-.289.655-.581.985-.865.437-.377.878-.744 1.318-1.112.302-.254.604-.511.908-.761.471-.387.946-.765 1.421-1.144.276-.22.551-.443.829-.661a136 136 0 0 1 1.518-1.164q.378-.29.757-.575a126 126 0 0 1 1.604-1.17q.348-.253.697-.503.836-.591 1.678-1.164c.215-.147.429-.297.645-.442q.866-.582 1.739-1.145.304-.2.609-.396.893-.569 1.791-1.118.287-.178.575-.353.917-.554 1.84-1.087l.546-.317q.935-.533 1.875-1.045l.534-.291q.947-.509 1.898-.997l.527-.27a113 113 0 0 1 2.445-1.197 102 102 0 0 1 1.912-.882l.554-.247a102 102 0 0 1 1.901-.816l.576-.239a93 93 0 0 1 2.498-.985 103 103 0 0 1 2.516-.911 88 88 0 0 1 1.796-.603q.366-.118.731-.233.87-.275 1.74-.53.402-.118.805-.231.833-.236 1.667-.456.447-.116.893-.227a88 88 0 0 1 1.579-.383q.498-.114.997-.222.739-.163 1.478-.312.554-.11 1.106-.211.685-.129 1.371-.246.615-.102 1.228-.193.623-.098 1.246-.185a80 80 0 0 1 1.368-.17c.368-.044.737-.09 1.105-.128a79 79 0 0 1 1.521-.14c.317-.027.634-.056.95-.079q.847-.058 1.691-.098c.259-.013.518-.029.777-.039a73 73 0 0 1 1.864-.044l.604-.01q1.199-.007 2.392.026l.013-.003c2.415.069 4.846.268 7.224.595a78 78 0 0 1 1.525.226c7.516 1.211 14.55 3.704 20.908 7.41zm-20.232-49.382v-1.302l19.348-20.168c.039.051.086.097.127.148q.135.165.278.323c.063.071.119.147.185.215zm25.904-19.527a6.95 6.95 0 0 1-4.614-1.757l-.003-.004a7 7 0 0 1-1.307-1.548l-.007-.008a6.97 6.97 0 0 1-1.044-3.66c0-3.848 3.131-6.98 6.979-6.98a6.99 6.99 0 0 1 6.98 6.98c0 .995-.214 1.974-.624 2.875l-.752-.991a1.7 1.7 0 0 0-.522-.457l-.039-.018a2 2 0 0 0-.26-.118c-.034-.012-.07-.018-.105-.027-.07-.02-.14-.04-.212-.05-.048-.008-.095-.007-.143-.011q-.091-.008-.182-.007c-.056.002-.112.012-.168.019-.052.007-.105.012-.157.024-.061.014-.121.036-.181.057-.044.015-.089.028-.133.048a2 2 0 0 0-.186.101c-.028.016-.057.027-.083.045a1 1 0 0 0-.082.053 1.73 1.73 0 0 0-.691 1.489v.005c.003.06.017.119.027.179.008.054.012.108.025.16.007.027.02.052.028.078.058.19.144.375.271.542l1.259 1.662a6.85 6.85 0 0 1-4.074 1.319m41.743 51.619c-3.85 0-6.982-3.131-6.982-6.98a6.98 6.98 0 0 1 3.205-5.863 6.94 6.94 0 0 1 3.773-1.114c1.927 0 3.736.785 5.052 2.172l-1.893 1.671c-.068.06-.125.128-.181.195q-.029.03-.056.061c-.016.021-.027.046-.043.069a1.726 1.726 0 0 0 .12 2.142c.329.38.809.598 1.316.598h.011c.423 0 .833-.155 1.156-.437l1.301-1.147q.2.814.2 1.653c0 3.849-3.131 6.98-6.979 6.98m4.608-8.467a.46.46 0 0 1-.484.069c-.03-.014-.059-.038-.089-.062-.02-.016-.044-.026-.061-.046a.45.45 0 0 1-.047-.517.4.4 0 0 1 .088-.113l2.379-2.097.015-.019 41.641-36.74c.054.063.115.118.171.179q.14.156.292.307c.053.053.101.111.155.163zm49.724-37.92a6.9 6.9 0 0 1-4.259-1.459q-.007-.01-.015-.018a6.9 6.9 0 0 1-1.393-1.452l-.012-.011a6.92 6.92 0 0 1-1.297-4.04c0-3.848 3.13-6.98 6.977-6.981a6.99 6.99 0 0 1 6.979 6.981 6.99 6.99 0 0 1-6.98 6.98"/>
</svg>
