<svg id="Layer_1" data-name="Layer 1" xmlns="http://www.w3.org/2000/svg" viewBox="0 0 1123.79 937.3"><rect x="189.49" y="125.8" width="824.1" height="503.7" rx="23" fill="#3b007f"/><path d="M990.49,125.8a23,23,0,0,1,23,23V606.6a23,23,0,0,1-23,23h-778a23,23,0,0,1-23-23V148.8a23,23,0,0,1,23-23h778m0-16h-778a39,39,0,0,0-39,39V606.6a39,39,0,0,0,39,39h778a39,39,0,0,0,39-39V148.8A39,39,0,0,0,990.49,109.8Z" fill="#e0d6eb"/><path d="M84.49,216.2h334.1V466.1H84.49Z" fill="#ae5cff"/><path d="M84.49,216.2h334.1v21.3H84.49Z" fill="#fff"/><path d="M118.09,303.4h254a7.5,7.5,0,1,0,0-15h-254a7.5,7.5,0,0,0,0,15ZM372,326.6H118.09a7.5,7.5,0,0,0,0,15h254a7.5,7.5,0,1,0,0-15Zm0,38.3H118.09a7.5,7.5,0,0,0,0,15h254a7.5,7.5,0,1,0,0-15H372Zm0,38.2H118.09a7.5,7.5,0,0,0,0,15h254a7.5,7.5,0,1,0,0-15Z" fill="#3b007f"/><path d="M132.69,288.4h12.6a7.5,7.5,0,0,1,7.5,7.5h0a7.5,7.5,0,0,1-7.5,7.5h-12.6a7.5,7.5,0,0,1-7.5-7.5h0A7.5,7.5,0,0,1,132.69,288.4Z" fill="#fff" stroke="#000" stroke-miterlimit="10"/><path d="M255.19,326.6h12.6a7.5,7.5,0,0,1,7.5,7.5h0a7.5,7.5,0,0,1-7.5,7.5h-12.6a7.5,7.5,0,0,1-7.5-7.5h0A7.5,7.5,0,0,1,255.19,326.6Z" fill="#fff" stroke="#000" stroke-miterlimit="10"/><path d="M194,364.9h12.6a7.5,7.5,0,0,1,7.5,7.5h0a7.5,7.5,0,0,1-7.5,7.5H194a7.5,7.5,0,0,1-7.5-7.5h0A7.5,7.5,0,0,1,194,364.9Z" fill="#fff" stroke="#000" stroke-miterlimit="10"/><path d="M320.89,403.1h12.6a7.5,7.5,0,0,1,7.5,7.5h0a7.5,7.5,0,0,1-7.5,7.5h-12.6a7.5,7.5,0,0,1-7.5-7.5h0A7.5,7.5,0,0,1,320.89,403.1Z" fill="#fff" stroke="#000" stroke-miterlimit="10"/><path d="M475,10.8h221.5V29.1H475Z" fill="#907dff"/><path d="M475,29.1h221.5V331.5H475Z" fill="#b2aeff"/><path d="M509,146.1h27.8V295H509Z" fill="#3b007f"/><path d="M551.49,57.4h27.8V294.9h-27.8Z" fill="#907dff"/><path d="M594,87.6h27.8V294.9H594Z" fill="#fff"/><path d="M636.59,215.8h27.8V295h-27.8Z" fill="#ae5cff"/><path d="M247.69,151.4h175.9v27.2H247.69Z" fill="#fff"/><path d="M282.29,25.9,329,160.3" fill="none" stroke="#e0d6eb" stroke-linecap="round" stroke-miterlimit="10" stroke-width="5"/><path d="M245.09,9.1h82.7V42.8h-82.7ZM936,264.9h175.4v17.7H936Z" fill="#ae5cff"/><path d="M936,282.7h175.4V529.5H936Z" fill="#b2aeff"/><path d="M955.09,305.3h139.1v81.1H955.09Z" fill="#fff"/><path d="M955.09,402.7h91.7v76.7h-91.7Z" fill="#907dff"/><path d="M1059.19,402.7h35v76.7h-35Z" fill="#ae5cff"/><path d="M955.09,503.5h139.1v12.4H955.09Z" fill="#3b007f"/><path d="M389.29,449.8h261.2v13.8H389.29Z" fill="#b2aeff"/><path d="M389.29,463.6h261.2V596.2H389.29Z" fill="#fff"/><path d="M882,206.6h70V237H882Z" fill="#fff" stroke="#000" stroke-miterlimit="10"/><path d="M232.69,542.1h103.5V584H232.69Z" fill="#b2aeff"/><path d="M61,639.8l211.5-78.9" fill="none" stroke="#e0d6eb" stroke-linecap="round" stroke-miterlimit="10" stroke-width="5"/><path d="M52.29,579.5a60.9,60.9,0,0,0-50,76.8L61,639.8Z" fill="#3b007f"/><path d="M114.39,669.1a60.9,60.9,0,0,0-62-89.6L61,639.8Z" fill="#ae5cff"/><path d="M2.39,656.3a60.91,60.91,0,0,0,33,38.7L61,639.8Z" fill="#b2aeff"/><path d="M114.39,669.1,61,639.8,35.39,695A61,61,0,0,0,105,681.8l2-2.1a61.06,61.06,0,0,0,7.4-10.7Z" fill="#e0d6eb"/><path d="M914.69,215.5,975,141.6" fill="none" stroke="#e0d6eb" stroke-linecap="round" stroke-miterlimit="10" stroke-width="5"/><path d="M980.49,13.8a94.7,94.7,0,0,0-38.3,44.8l87.3,35.8Z" fill="#e0d6eb"/><path d="M1123.79,89.8a94.3,94.3,0,0,0-143.3-76l49,80.6Z" fill="#3b007f"/><path d="M942.19,58.6a94.39,94.39,0,0,0,51.6,123.12l1.7.68,34-88Z" fill="#ae5cff"/><path d="M1029.49,94.4l-34,88a94.41,94.41,0,0,0,128.3-88V89.8Z" fill="#b2aeff"/><path d="M612.29,488.7h12.9m-55.9,0h33.5m-67.2,0h21.7m-46.6,0h13.7m-51.6,0h25.9m-53.3,0h18.5m-53.1,0h23.5m178,19.4h12.9m-55.9,0h32.2m-60.6,0h18.4m-67.8,0h34m-61.6,0h16.4m-69.5,0h41.3m140.7,19.4h32.4m-52.8,0h11.7m-44.3,0h24.5m-42.1,0h11.1m-54.9,0h35.7m-75.4,0h28.5m-56.4,0h16.5m172.5,19.4h25.4m-77.1,0h41.6m-67.5,0h17.6m-41.1,0h16.8m-59.2,0h33.5m-79,0h34.6m173.3,19.4h6.5m-36.6,0h22.6m-46.9,0h15.4m-49.7,0h26m-59.8,0h23.7m-54.1,0h21.5m-57.2,0h26.2m-45.5,0H424" fill="none" stroke="#3b007f" stroke-linecap="round" stroke-miterlimit="10" stroke-width="5"/><path d="M825,823.3l6.6,42.2,11.2,12.2,10.1-7.8-3.7-41L825,823.3ZM732,866l4-2.5-2-63.6h19.5l2,63.6-7.9,14.2L732,873.6V866Z" fill="#907dff"/><path d="M781.09,299.1l.8-23.5-9.8,2.7-13-39.1s8.8-28.8,22-36.5,47,.8,47,.8l-5.3,27.5L809,269.9l-.3,28Zm-199.6-45.3s-12.9-21.4-18.7-31.8-20.1-38.7-22.6-36.9,14.2,37.9,14.2,37.9-9.7,14-12.2,22.1,10.4,18.3,26.7,20.3S581.49,253.8,581.49,253.8Zm246.6,209.8-12,10.6-1.5,5.3s8.8,14.8,16.2,18.3,11.8,1.2,18.3-3.5,1.8-8,.3-10.3-8.2-9.5-8.2-9.5a19.32,19.32,0,0,1-13.1-10.9Z" fill="#fff"/><path d="M895.79,413.4c-4.7-12.7-36-88.3-43-94s-14.3,48.5-14.3,48.5l31.6,58.5-42,37.2a19,19,0,0,0,13,10.9s40-27.8,53.2-35.4,6.3-13,1.5-25.7Z" fill="#ae5cff"/><path d="M761.89,314.3s13.3-23.7,40-23.4,25.3,21.7,25.3,21.7Z" fill="#907dff"/><path d="M819.49,456.6l.6-5.1c-33.7,8.4-83.4,1.8-104.7-1.7l-.4,5.4c20.6,2.9,69.4,8.4,104.5,1.4Z" fill="#b2aeff"/><path d="M820,451.5c9.3-76.6,49.3-107.5,32.7-132-18.6-27.5-80.6-10.6-115.2-6.2s-93.8,7-155-63.8c0,0-11.5,2.6-15,21.2,0,0,23.8,64.7,161.2,82.4,0,0-8,29.4-13.3,96.7,21.2,3.5,71,10.1,104.6,1.7Z" fill="#ae5cff"/><path d="M818.19,480.7c0-6.5.3-12.7.8-18.7-35.3,6.8-84.1,1.3-104.4-1.6q-5.08,76.94-3.7,154.1c2.7,186,10.7,234.8,10.7,234.8l39.9,8s-2.7-149.7,10.6-278.2c0,0,30.1,188.7,54,273,0,0,24,8,32-3.6,0,0-40.8-269.4-40-367.8Z" fill="#b2aeff"/><path d="M819,462l.5-5.4c-35.1,7-84,1.5-104.5-1.4l-.4,5.2c20.3,2.9,69.1,8.5,104.4,1.6Z" fill="#3b007f"/><path d="M854.39,220.1a25.68,25.68,0,0,0-4.4-7.4,59.66,59.66,0,0,1-4.8-6.4,12.8,12.8,0,0,1-1.5-8.5c.4-3.5,1.1-6.9.1-10.4a15.34,15.34,0,0,0-4.7-7.2,14.93,14.93,0,0,0-8.7-3.5c-3.5-.2-6.8.6-10.2,1a16.72,16.72,0,0,1-10-1c-3.3-1.6-6.4-3.5-9.9-4.4-6.1-1.6-13.6-1.3-18.6,3.1-2.4,2.1-3.2,5.3-5.4,7.6-2,2-4.7,3-6.6,5.2-2.2,2.5-2.2,5.8-.9,8.7,1.5,3.3,4.6,5.4,6.4,8.4,1.8,2.8,2.3,6.2,2.7,9.5.4,3.6.8,7-1.4,10.2a23.43,23.43,0,0,1-7.3,6.5,27.32,27.32,0,0,1-4.4,2.1c-1.7.7-3.4,1-5.1,1.6a12.28,12.28,0,0,0-7,6.2,58.12,58.12,0,0,0-4.5,9.5,26,26,0,0,0,1.3,19.2,26.72,26.72,0,0,0,13.4,13,23,23,0,0,0,4.5,1.4,38.49,38.49,0,0,0,4.9.8c2.8.3,6,.3,7.8-2.2,1.5-2.1,1.7-5,1.8-7.5a.84.84,0,0,0-.2-.4c.2-.1.1-.4,0-.3h-.3a.88.88,0,0,0-1,.3,10.51,10.51,0,0,1-9-2.9,10.2,10.2,0,0,1-2.3-10.3c1.3-4,3.2-7.7,4.7-11.5q3.51-8.7,7.7-17.1a9.21,9.21,0,0,1,3-.4,8.59,8.59,0,0,1,6.3,2.8,7.4,7.4,0,0,1,1.7,6.2,7.91,7.91,0,0,1-4.1,5,13.86,13.86,0,0,1-4.2,1.4c-1.4.3-2.9.2-4.2.6a.34.34,0,0,0-.2,0h-.2a.2.2,0,1,0,0,.4,15.71,15.71,0,0,0,3.9,16.7,15.43,15.43,0,0,0,8,4,10.52,10.52,0,0,0,4.4,0,9.88,9.88,0,0,0,3.8-2.5,5.29,5.29,0,0,1,4.5-1.5,16.51,16.51,0,0,1,4.9,1.8,24.43,24.43,0,0,0,8.2,2.9,18.61,18.61,0,0,0,15.5-5.8,27.9,27.9,0,0,0,4.8-8.3,45.08,45.08,0,0,1,5-9.4c4.1-5.7,9.5-10.5,11.7-17.4a15.76,15.76,0,0,0,0-9.7Z" fill="#907dff"/><path d="M673.49,888.4s0-4.5,10.8-4,39.4-13.6,47.7-18.4c0,0,8.7,7.6,14.6,5a21.2,21.2,0,0,0,8.9-7.5s4.7,14,0,17.3l-4,11.1h-6.6l-1.4-8.9s-23.7,4.2-33.5,6.7-29.3,2.3-36.6-1.3Zm179.5,3s12.4-23.1-1.8-26c-7.5-1.3-10.9,2.3-13.6,4.5s-6-4.4-6-4.4-10.6,11.7-16.6,13-14.5,1.2-15.1,3.4,9.7,9.5,18.7,9.5,16.6-7,16.6-7l3,7ZM236.89,736.6l-26.3,175.2-11.4,10.7-10.4-8.2,16.4-165.9,31.7-11.8Zm77.6,173.7-4.2-2.6L320,719l-27.9,2.1-2,186.6,8.2,14.8,16.2-4.4Z" fill="#3b007f"/><path d="M263.39,338.3l-.7-19.8a2,2,0,0,1,2.06-1.94,1.32,1.32,0,0,1,.34,0c4.3,1.1,10.5-.4,13.3-4.6l1.7-3.1a18.6,18.6,0,0,0,1-2.6l2-5.7a16.86,16.86,0,0,0,1.3-6.3c0-9.1,0-22.3-2.9-29-4-9.2-10.3-20.7-18-25.2-11.9-6.9-39.8-1.3-47.1.3a2,2,0,0,0-1.5,2.3l5.2,26.7v.2l14.3,40a2.06,2.06,0,0,1,0,.7l.4,27a2,2,0,0,0,1.9,2l24.7,1a1.91,1.91,0,0,0,2-1.8v-.2Zm207.7-45.1,19.4-33.1c6-11,21-40.2,23.5-38.3s-14.7,39.4-14.7,39.4,10.1,14.5,12.7,23-10.8,19-27.8,21.1-13.1-12-13.1-12Z" fill="#fff"/><path d="M144,459.3c5-13.2,37.5-91.9,45-97.7s14.7,50.4,14.7,50.4l-33,60.8,43.9,38.8a20,20,0,0,1-13.7,11.3s-41.4-28.9-55.3-36.8S139.09,472.5,144,459.3Zm139.5-103s-14-24.7-41.8-24.5-26.3,22.6-26.3,22.6Z" fill="#907dff"/><path d="M224,511l1-12.8,99.8-2,3.2,12.9L224,511Z" fill="#ae5cff"/><path d="M224.89,499.4c0-10.1,2.7-17.7,1.2-26.8-1.1-6.8-6-20-8.6-27.6-14.9-42-41.3-64.7-28.6-83.4,19.4-28.6,84-11.1,119.9-6.5s97.6,7.4,161.3-66.4c0,0,12,2.8,15.7,22.1,0,0-29.6,69-172.5,87.4,0,0-1.6,3.8,1.5,12.4a27.61,27.61,0,0,1,1.3,20.4c-3.7,15.5-.7,34.5,8.7,65.2-22.1,3.7-64.9,12-100,3.2Z" fill="#907dff"/><path d="M263.09,315.2l-73.6,13.4s-4.1,26.6,2,34.4c8.9,11.3,11.7,16.2,11,20.8a53.82,53.82,0,0,0,6.4,30.1c4.5,7.3,14.3,11.5,19.7,16.5,8.3,7.7,14,7.7,23,3,6.5-3.5,6-10.9,8.6-15.8,4.4-8.6,14.6-15.7,18.2-27.5,3.7-12.4-3-26-3-30,0-3.8,2.6-23,2.6-31.2,0-4.6-7.2-35.2-10.5-37.3l-.2-.4h-.1c-1.2-.3-2.4-.3-3.6-.5a11.09,11.09,0,0,1-3.5-1.2,6.66,6.66,0,0,1-3.5-4.4,6.4,6.4,0,0,1,1.4-5.3,7.07,7.07,0,0,1,5.3-2.4,4.51,4.51,0,0,1,.9,0,2.83,2.83,0,0,0,2.6-1.3l6.6-6.7a19,19,0,0,0,3.6-9.6,29.13,29.13,0,0,0,0-6.6,24.21,24.21,0,0,0-4.7-11.5,34.72,34.72,0,0,0-10-7.7l-1.7-1c-12.2-7.1-35.3-3.2-42.4,3-5.8,5-7.9,9-7.9,9-1,1.7-4.3,8.4-4.7,10.5l-2,9.2c-.3,2.1-4.8,17-4.8,19.3,0,.1-2.2,14.6-9.3,44.7Z" fill="#3b007f"/><path d="M342.49,923.7a273.27,273.27,0,0,1-28-13.4s-9,7.8-15.1,5.2a22.12,22.12,0,0,1-9.3-7.8s-5,14.5,0,18l4,11.6h7l1.5-9.3s24.7,4.4,34.9,7c5,1.3,13.1-2.6,14.2-5.3s-4.9-4.3-9.2-6Zm-153.9,13s-12.9-24,1.9-27c7.8-1.4,11.3,2.3,14.1,4.6s6.3-4.6,6.3-4.6,11,12.2,17.3,13.7,7.1,1.8,8.5,3.8-2.8,9.5-12.3,9.5-17.3-7.3-17.3-7.3l-3.1,7.3Z" fill="#b2aeff"/><path d="M349.79,712c-1.2-17,22.6-99-20.2-198.5-1-2.6-1.6-6.8-4.4-6.8l-98.1,3.2a6.38,6.38,0,0,0-5,2.4,242.88,242.88,0,0,0-30.8,48.4c-8,18.8-14.8,112.7-17,151.2a141.88,141.88,0,0,1-3,22.2,11,11,0,0,0,8.2,13c18,4.3,55.3,10.4,85.2-3,31.1-14,65.3-21.6,80-24.4,3.7-.7,5.4-4.1,5.1-7.7Z" fill="#ae5cff"/><path d="M214.49,511.6l12.5,11,1.6,5.5s-9.2,15.4-17,19-12.2,1.3-19-3.6-1.8-8.3-.2-10.8,8.6-9.8,8.6-9.8a20,20,0,0,0,13.6-11.3Z" fill="#fff"/><path d="M263.89,275.5s1.8,0,2.2,8.6c0,0,4.8-5.7,2.3-16.1Z" fill="#3b007f"/></svg>