<svg xmlns="http://www.w3.org/2000/svg" width="550" height="550" fill="none" viewBox="0 0 550 550">
    <path fill="#fff" d="m370.332 114.381.001.003.007.009.022.036.089.14.349.552 1.339 2.123a2226 2226 0 0 1 20.971 34.048 1819 1819 0 0 1 6.011 10.035c2.134-5.028 5.398-8.806 9.525-11.093l15.811-9.318.032-.019.033-.015c7.006-3.377 16.075-2.595 25.872 2.866 10.847 6.049 20.667 16.741 27.773 29.08 7.107 12.341 11.547 26.415 11.547 39.285 0 12.128-3.973 21.079-10.677 25.744l-.025.019-.028.016-14.881 8.836c-7.509 5.191-18.071 4.793-29.47-1.893v-.001l-.331-.198a1143 1143 0 0 1 3.081 28.975c.308 3.323.605 6.737.888 10.197l58.346 32.908v.281l.003.003-.002 65.781-31.495 18.279 15.305 7.956-.004.005q.712.354 1.392.766c7.171 4.353 11.448 13.483 11.448 26.082 0 11.892-3.802 24.909-9.993 36.618-6.934 13.12-16.922 24.695-28.083 31.25-10.76 6.32-20.701 6.824-27.904 2.178l-17.439-9.179-.053-.028-.05-.035c-6.442-4.624-10.238-13.408-10.238-25.281 0-12.599 4.265-26.462 11.125-38.702l.007-.013-84.183 48.855v.969l-.86-.47-.885.515v-.997l-88.668-48.348c.772 4.055 1.186 8.081 1.186 11.996-.001 12.128-3.974 21.079-10.678 25.744l-.027.018-.026.017-14.855 8.82c-7.51 5.213-18.085 4.821-29.499-1.874-11.34-6.655-21.42-18.284-28.383-31.393-6.188-11.649-9.974-24.579-9.974-36.424 0-10.088 2.767-18.012 7.59-23.073l-47.731-26.025v-63.814l-1.004-.539 1.004-.515v-.926l.88.474 15.857-8.139.495-.253 5.267 4.1-.128.065 18.813 18.088 33.149-19.322v-25.59l.442-.252 88.279-50.042a2247 2247 0 0 0-16.661-26.939c-.58-.922-1.031-1.636-1.337-2.12l-.347-.551-.118-.183-.001-.003-.489-.77 122.141-70.1zm110.579 296.898c-6.443-3.911-15.494-3.532-25.722 2.486l-.271.158c-10.115 6.039-19.317 16.394-26.008 28.332-6.75 12.044-10.901 25.616-10.901 37.849 0 11.547 3.688 19.683 9.512 23.863 6.496 4.661 15.98 4.611 26.783-1.735 10.811-6.35 20.599-17.644 27.425-30.56 6.092-11.52 9.791-24.258 9.791-35.803-.001-12.256-4.153-20.67-10.609-24.59m-26.605 6.471c9.29-5.466 17.913-6.027 24.264-2.171 6.339 3.848 10.103 11.907 10.103 22.989 0 10.373-3.288 21.71-8.651 31.936l.002.009-.134.252-.122.225-1.128 2.134-.01-.065c-6.019 10.575-14.275 19.799-23.437 25.181h-.001c-9.222 5.414-17.781 5.991-24.104 2.227l-.009.072-1.192-.855-.1-.075-.317-.228.001-.009c-5.436-4.159-8.615-11.782-8.616-21.967.001-11.083 3.753-23.272 9.783-34.029 6.029-10.756 14.382-20.163 23.668-25.626m8.618-15.868c-6.335-3.162-14.899-2.479-24.495 3.167-10.222 6.015-19.527 16.449-26.279 28.494-6.75 12.044-10.902 25.615-10.902 37.849 0 11.518 3.671 19.644 9.471 23.833l11.609 6.11c-3.873-4.984-6.063-12.216-6.063-21.231 0-12.598 4.264-26.462 11.124-38.702 6.859-12.237 16.359-22.934 26.915-29.145l1.314-.775v.035c6.151-3.371 12.005-4.825 17.199-4.492zm8.015 60.549c-4.051-.799-9.561.394-15.746 4.028-6.165 3.624-11.807 8.974-16.084 14.844-4.148 5.693-6.969 11.816-7.774 17.257 5.643 3.757 13.742 3.596 22.975-1.825 9.395-5.52 17.913-15.312 23.898-26.528-.364-2.182-1.196-3.901-2.378-5.173a8.1 8.1 0 0 0-2.183-1.665 10 10 0 0 0-2.708-.938m6.726-45.361c-5.611-3.406-13.514-3.089-22.475 2.183-8.953 5.267-17.11 14.413-23.031 24.976-5.92 10.561-9.559 22.458-9.559 33.176 0 9.334 2.753 16.104 7.164 19.954.726-3.928 2.387-8.088 4.722-12.145a57 57 0 0 1 .757-1.273l.169-.276q.158-.253.319-.506a58 58 0 0 1 1.161-1.746l.23-.329q.2-.285.404-.569l.17-.238c4.399-6.038 10.214-11.563 16.611-15.323 6.381-3.75 12.336-5.15 16.966-4.237 1.588.313 3.02.899 4.249 1.756a9.8 9.8 0 0 1 1.588 1.376q.052.056.102.114l.098.109.137.16.087.107c.812.997 1.446 2.167 1.887 3.498 4.698-9.533 7.507-19.855 7.507-29.269 0-10.739-3.638-18.083-9.263-21.498m-295.657-29.951c-10.296-5.691-19.363-5.836-25.821-1.79-6.505 4.074-10.659 12.578-10.659 24.776 0 11.497 3.684 24.147 9.771 35.607 6.853 12.902 16.731 24.254 27.724 30.705 11.074 6.495 20.877 6.633 27.631 1.938 6.073-4.226 9.929-12.522 9.929-24.31 0-12.497-4.321-26.273-11.313-38.415-6.994-12.144-16.61-22.57-27.112-28.427zm-76.621-27.148 47.306 25.793a20 20 0 0 1 3.369-2.389l15.906-9.376.032-.018.033-.016c7.006-3.377 16.075-2.594 25.871 2.867 10.847 6.049 20.668 16.741 27.774 29.08 4.547 7.897 8 16.503 9.899 25.049l89.131 48.6v-63.494l-7.733-4.157-.184.107.019-.196-111.541-59.979-99.882-53.709zm386.202-39.727-9.339 4.596-21.682 50.319.002.001-.42.98-93.378 54.144-3.831 2.221v.001l-2.68-2.992-18.3-20.417-15.508 7.011v63.408l85.972-49.894c6.678-10.945 15.456-20.391 25.119-26.077 9.596-5.646 18.541-6.678 25.493-3.541l.236.112 31.601-18.34v-63.148zm-332.552 70.168c6.262-3.922 14.791-3.584 24.039 1.571 9.372 5.226 17.849 14.458 23.981 25.106s9.966 22.8 9.966 33.917c0 10.214-3.265 17.843-8.823 21.972l.002.012-.421.292-.011.009-1.183.823-.009-.067c-6.425 3.72-15.091 3.085-24.37-2.358-9.133-5.357-17.315-14.448-23.25-24.822l-.01.069-1.139-2.145-.111-.205-.134-.252v-.006c-5.259-9.987-8.473-21.046-8.473-31.188 0-10.839 3.698-18.814 9.946-22.728m38.018-12.057c-9.469-5.278-17.91-5.868-24.239-2.831l-9.207 5.426c5.768-.685 12.4.826 19.402 4.73l2.931 1.633h-.209c9.761 6.237 18.543 16.15 25.048 27.447 7.107 12.341 11.547 26.415 11.547 39.285 0 8.66-2.027 15.699-5.627 20.716l8.868-5.266c6.063-4.23 9.91-12.522 9.91-24.298 0-12.497-4.321-26.273-11.313-38.415-6.775-11.764-16.011-21.916-26.13-27.864zm-14.84 61.877c-6.164-3.543-11.633-4.683-15.648-3.873-1.496.302-2.788.873-3.854 1.691a8 8 0 0 0-.989.899 8.3 8.3 0 0 0-1.099 1.488c-.588 1.01-1.015 2.204-1.247 3.586 5.892 11.001 14.335 20.66 23.713 26.161 9.278 5.443 17.488 5.675 23.238 1.968-.821-5.431-3.683-11.534-7.88-17.198-4.329-5.842-10.03-11.152-16.234-14.722m.012-46.724c-8.904-4.964-16.719-5.09-22.263-1.617-5.558 3.481-9.129 10.762-9.129 21.249 0 9.186 2.737 19.238 7.332 28.532l.05-.138q.058-.17.122-.338.026-.07.054-.139a11 11 0 0 1 .385-.868l.039-.078q.171-.337.363-.658l.051-.086q.204-.333.43-.647l.015-.022a10 10 0 0 1 .474-.604l.046-.054a10 10 0 0 1 .25-.279c1.494-1.606 3.468-2.647 5.776-3.113 4.589-.925 10.502.414 16.864 4.071 6.437 3.701 12.314 9.182 16.768 15.193 4.017 5.42 6.913 11.325 7.995 16.803l.016.083q.02.094.037.189c4.535-3.822 7.376-10.602 7.376-19.981 0-10.744-3.715-22.596-9.733-33.046-6.019-10.452-14.292-19.419-23.318-24.452m272.08 35.444c3.738-2.197 7.335-2.491 10.047-.845 2.691 1.634 4.199 4.993 4.208 9.419v.042c0 1.845-.261 3.76-.734 5.674q-.087.352-.182.703a32.4 32.4 0 0 1-2.985 7.22c-2.396 4.273-5.73 8.037-9.471 10.236q-.108.063-.215.123l-1.099.647v-.074c-3.258 1.541-6.338 1.597-8.73.144-2.697-1.639-4.208-5.011-4.208-9.452 0-1.032.082-2.086.236-3.15.509-3.53 1.823-7.165 3.665-10.451 2.303-4.107 5.473-7.745 9.037-9.974v-.005l.212-.125q.109-.067.219-.132m9.139.65c-1.917-1.165-4.689-1.15-7.976.697l-.28.165c-3.405 2.005-6.542 5.509-8.83 9.589-2.277 4.061-3.665 8.611-3.676 12.685l-.001.043c0 4.1 1.385 6.76 3.37 7.965 1.971 1.198 4.846 1.148 8.254-.856l.25-.148c3.31-2.025 6.351-5.454 8.583-9.433 1.438-2.566 2.522-5.329 3.129-8.043.356-1.599.548-3.182.548-4.698 0-4.102-1.386-6.761-3.371-7.966m-290.398-27.167c2.015-1.256 4.533-1.449 7.251-.579.908.29 1.839.7 2.779 1.228 3.76 2.111 7.118 5.795 9.532 10.003 2.416 4.209 3.935 9.025 3.935 13.459 0 2.857-.638 5.27-1.818 7.065a9 9 0 0 1-.591.795 7.5 7.5 0 0 1-1.831 1.577q-.586.355-1.225.591l-.086.032a7 7 0 0 1-.747.224l-.092.023a8 8 0 0 1-.813.142l-.039.005a7 7 0 0 1-.296.029 7 7 0 0 1-.242.016l-.065.003a9 9 0 0 1-.615.005q-.127-.004-.256-.011l-.044-.002-.243-.018-.098-.008a9 9 0 0 1-.569-.071q-.009 0-.017-.003c-1.483-.23-3.05-.8-4.643-1.713v.001c-3.737-2.142-7.061-5.826-9.449-10.018s-3.887-8.976-3.887-13.369c0-4.382 1.494-7.739 4.169-9.406m7.318 1.292c-2.586-.986-4.778-.798-6.38.197-1.985 1.233-3.36 3.886-3.36 7.917 0 3.34.954 7 2.58 10.433q.212.448.44.89.305.598.636 1.182c2.276 3.995 5.401 7.417 8.802 9.366l.002.001c3.42 1.96 6.319 1.99 8.314.777q.22-.133.428-.289c1.772-1.324 2.97-3.881 2.97-7.655 0-4.064-1.402-8.584-3.703-12.593a31 31 0 0 0-1.954-2.983 28 28 0 0 0-.946-1.207c-1.321-1.594-2.777-2.987-4.311-4.092q-.131-.094-.262-.185a18 18 0 0 0-1.4-.881 14 14 0 0 0-1.856-.878M360.531 427.2l1.601 1.788 1.161 1.295 94.503-54.82-3.452-2.219zm-38.379-18.278.924.499 12.114-6.556 7.049 4.192.169-.077.338.377 1.321.787-.439.198 15.713 17.531 94.348-54.265 4.015-8.984-27.927-15.807zm.925 2.483-2.7-1.459-1.626.938 6.861 3.69 14.687-6.641-5.149-3.062zM106.39 296.689l210.601 113.249q.08-.853.149-1.74L111.405 297.073l11.517-5.975-2.24-1.744zm282.453 49.119-21.997-12.137-46.426 74.236 116.554-67.258-37.579-22.15zm-76.58-40.799a1139 1139 0 0 1 4.239 38.356c1.982 21.362 3.611 46.475 2.477 63.556l46.336-74.094-53.256-29.383zm-8.777 93.83 13.787 7.447c.466-7.439.416-16.388.046-25.883zm-16.241-8.773 14.69 7.935 15.193-20.248.084.062c-.503-11.322-1.426-23.283-2.447-34.289-.204-2.198-.414-4.358-.623-6.465l-26.897-12.333zm-10.247-5.535 8.503 4.593v-16.398zm-16.221-8.761 14.673 7.925 10.051-13.955v-46.879l.439-.251.292-.167-25.455-12.241zm-10.683-5.772 8.939 4.829v-17.115zm205.378 1.895 3.608 2.312 21.404-49.681-2.97-1.959zm-221.678-10.699 14.752 7.968 10.487-14.416v-46.44l1.31-.744-26.549-11.57zm204.963-71.128c1.366 18.532 2.091 37.619.817 50.677l-.043.447-.388.224-7.611 4.391 26.887 15.218 18.081-40.461.707-.318.021.014 8.366-3.774zm-215.645 65.358 8.938 4.828V343.06zm-16.365-8.839 14.816 8.003 10.487-14.508v-45.919l1.118-.653-26.421-12.552zm-10.582-5.717 8.838 4.775v-16.869zm116.572-39.042 75.199 41.488 42.21-109.238zm-133.016 30.16 14.896 8.046 10.386-14.213V279.07l.747-.427-26.029-12.129zm220.311-15.137 37.924 22.354c1.424-16.887-.239-43.119-2.31-65.43a1141 1141 0 0 0-4.216-38.178zm-111.753 6.434 25.662 11.768a1171 1171 0 0 0-2.304-20.898c-.169-1.416-.332-2.73-.48-3.931zm-120.554 2.224 10.251 5.537v-11.282zm-18.929-10.224 17.112 9.242 12.068-6.763v-19.57zm289.644-29.377q.052.65.102 1.301l.062.77 50.848 28.68-10.509 4.742 2.698 1.794 6.893-3.39 5.344-2.63zm-131.406-.343-.408-.838q-.268-.548-.543-1.105l-44.3 25.13 26.29 12.643 22.853-13.046a955 955 0 0 0-.71-5.543l-.106-.791-.005-.041-.001-.009v-.003l-.08-.581 60.713-35.035 11.027-23.671zm-191.9 11.54 32.473 17.539-23.229-22.333zm31 13.702 2.596 2.496 29.246-17.129v-3.927zm88.712-16.256 27.394 11.936 43.065-24.43c-3.287-6.573-7.297-14.026-11.651-21.815zm-27.09-15.045 27.236 12.939 57.811-33.726a1205 1205 0 0 0-12.079-20.967zm149.328-68.545-28.21-6.78-20.107 78.378 117.171-67.249-66.258-22.986zm-105.57-24.484a2242 2242 0 0 1 20.969 34.047c11.97 19.843 25.939 43.788 34.664 61.324l20.03-78.075-76.324-18.344zm-70.765 78.592 26.855 12.515 72.232-41.335a1763 1763 0 0 0-12.232-20.413zm203.641-23.902-11.019 23.658 12.299-7.095v-17.296zM93.6 109.687c2.95-1.749 6.139-2.272 8.776-.825 2.102 1.155 3.341 3.286 3.808 5.831.432 2.362.214 5.136-.616 8.013a28409 28409 0 0 1 42.996 21.887c1.535-1.813 3.218-3.271 4.937-4.289 2.95-1.749 6.139-2.272 8.776-.825 2.102 1.155 3.342 3.286 3.808 5.832.43 2.345.217 5.097-.599 7.954 1.051.544 1.877.975 2.44 1.272 4.045 2.145 6.721 4.589 8.38 7.286 1.66 2.701 2.259 5.59 2.259 8.551v10.69l-.002.001v58.971c0 2.796-.127 4.761-.713 6.235-.623 1.565-1.717 2.488-3.331 3.333a49 49 0 0 1-2.903 1.378q-.407.18-.804.352a8 8 0 0 1-.326.284.87.87 0 0 1-.715.181q-.3.317-.664.615a.87.87 0 0 1-1.037.049l-.532.211-.419.161c-1.235.569-2.733.409-4.369-.279-.793 2.34-1.971 4.258-3.722 5.258-1.907 1.09-4.237.959-6.94-.4-1.302 1.581-2.619 2.717-3.97 3.425-2.791 1.464-5.558 1.036-8.218-.644a13.3 13.3 0 0 1-3.119-.113c-4.153-.622-7.962-2.928-9.977-4.095-4.067-2.354-58.981-30.351-66.524-34.014-3.806-1.849-6.74-3.976-7.828-7.271-1.085-3.284-.242-7.438 2.694-13.094 2.923-5.632 6.402-11.574 9.59-20.837 3.158-9.18 6.032-21.641 7.722-40.233l-1.186-.589-.484-.239v-10.293c0-1.125.07-2.616.432-4.011.177-.683.434-1.381.811-2.01.005-.008.176-.318.501-.778.329-.464 1.066-.844 1.072-.847l.01-.005.027-.017.101-.058.004-.003c.36-.202 1.435-.806 2.913-1.632l5.336-2.969c2.202-1.219 3.914-2.007 5.822-2.06 1.75-2.306 3.743-4.132 5.783-5.34m72.219 93.784c-.299 1.854-.64 3.818-1.035 5.87-2.54 13.189-7.197 30.049-15.671 44.606l-.01.018c-1.696 2.769-3.699 4.48-5.852 5.403q-.314.134-.629.244c1.604.575 3.142.491 4.686-.319 2.251-1.181 4.662-3.97 7.22-9.021l.012-.022.014-.022c5.459-9.359 8.615-25.386 10.396-39.207.338-2.623.625-5.161.869-7.55m-91.696-61.988c-1.71 18.269-4.57 30.648-7.738 39.856-3.24 9.415-6.798 15.499-9.692 21.073-2.88 5.551-3.439 9.155-2.584 11.743.852 2.578 3.2 4.436 6.934 6.249 7.54 3.663 62.511 31.685 66.636 34.074 2.078 1.203 5.596 3.315 9.361 3.878 1.863.279 3.745.171 5.523-.591 1.773-.76 3.515-2.201 5.052-4.711 8.328-14.313 12.934-30.95 15.456-44.043a194 194 0 0 0 2.419-16.196c.211-2.002.344-3.595.423-4.685q.05-.694.073-1.108zm91.762 75.426c-1.882 12.394-4.921 25.779-9.816 34.18-.963 1.9-1.931 3.533-2.904 4.91 2.233 1.053 3.829.968 4.997.301 1.38-.789 2.461-2.543 3.207-5.173l.025-.083c1.029-3.246 1.952-8.932 2.752-15.711.672-5.703 1.251-12.128 1.739-18.424m221.529 22.522v17.291l35.765-20.64c-3.583-3.409-6.93-7.279-9.962-11.461zM168.419 205.72c-.16 2.495-.333 5.112-.527 7.783-.539 7.398-1.211 15.222-2.014 22.034-.747 6.33-1.617 11.849-2.614 15.339 1.916.856 3.02.633 3.692-.022.426-.415.801-1.101 1.065-2.142.261-1.036.398-2.363.398-3.986zm266.231-51.604c-8.171-4.555-15.581-5.618-21.516-3.874-1.286.378-2.51.889-3.664 1.531l-.582.344-.002-.004c-3.78 2.296-6.761 6.042-8.64 11.107 1.019 1.718 2.041 3.452 3.065 5.192 2.128-6.335 6.133-10.74 11.456-12.662 5.835-2.108 13.062-1.161 20.796 3.151 9.372 5.226 17.85 14.457 23.981 25.105s9.967 22.799 9.967 33.916c0 10.214-3.265 17.843-8.823 21.972l.002.013-.429.298-.004.003-1.183.822-.009-.065c-6.425 3.718-15.09 3.083-24.368-2.36l-.002-.001q-.613-.361-1.221-.746c.166 1.33.354 2.86.56 4.566q.284.182.568.357l.913.547.001.001c11.073 6.495 20.877 6.634 27.631 1.94 6.074-4.227 9.928-12.524 9.928-24.312 0-12.497-4.321-26.273-11.313-38.415-6.993-12.143-16.61-22.569-27.112-28.426m-351.05.767v-.002l75.096 35.586-.001.001.587.278-.098.643-.001.003-.001.004-.003.023-.015.085-.053.333a229 229 0 0 1-1.066 5.932 270 270 0 0 1-3.406 15.28c-3.018 11.845-7.574 25.944-13.707 34.53l-.424.594-76.702-36.346.606-.848c5.925-8.294 10.418-22.103 13.436-33.947a268 268 0 0 0 3.385-15.181 234 234 0 0 0 1.056-5.881l.054-.326.013-.083.002-.02.001-.005v-.002l.18-1.154zm51.727 75.719c-1.679 3.784-3.562 7.359-5.666 10.5l10.267 4.865c2.036-2.972 3.896-6.59 5.585-10.538zm314.217-85.331c-9.469-5.278-17.909-5.868-24.238-2.831l-9.206 5.425c5.773-.687 12.399.824 19.4 4.727 10.847 6.049 20.668 16.742 27.773 29.081 7.107 12.341 11.548 26.414 11.548 39.284 0 8.662-2.028 15.702-5.629 20.719l8.867-5.265c6.062-4.23 9.91-12.522 9.91-24.298 0-12.497-4.321-26.273-11.314-38.415-6.774-11.764-16.011-21.916-26.13-27.864zm-26.688 57.8a383 383 0 0 1 5.962 11.658l.359.734-10.536 6.046c3.191 4.199 6.752 7.971 10.556 11.101l3.342-1.927.175 1.288.001.003.001.01.006.04.021.163.085.634c.074.557.182 1.377.318 2.433l.042.336c.79.532 1.591 1.04 2.393 1.512 9.279 5.442 17.488 5.674 23.237 1.967-.821-5.431-3.684-11.534-7.88-17.198-4.33-5.842-10.03-11.153-16.235-14.723a37 37 0 0 0-.765-.426c-3.326-1.811-6.513-2.895-9.056-3.388a19 19 0 0 0-2.026-.263m-300.368 21.448c-1.681 3.783-3.566 7.357-5.673 10.496l11.25 5.33c2.109-3.111 3.998-6.686 5.684-10.491zm312.225-64.094c-7.446-4.151-14.135-4.918-19.353-3.034-5.111 1.846-8.997 6.304-10.848 13.07 6.133 10.473 12.213 21.155 17.384 30.809.931-.005 2.018.103 3.218.331 2.757.488 5.754 1.544 8.885 3.176l.085.045q.31.161.622.33.432.234.866.483v.001c6.438 3.701 12.316 9.182 16.77 15.193 3.322 4.483 5.878 9.298 7.274 13.928l.044.148a20 20 0 0 1 .194.684 18 18 0 0 1 .21.811q.047.192.09.382l.029.123.082.374.042.203.07.36.013.063c4.535-3.822 7.376-10.604 7.376-19.983 0-10.744-3.716-22.596-9.734-33.046-6.018-10.452-14.292-19.418-23.319-24.451m-19.976 63.324c3.053 4.192 6.423 8.049 10.02 11.423l2.829-1.632c-3.785-3.187-7.31-6.976-10.469-11.156zm-305.087-5.314c-1.683 3.784-3.571 7.357-5.681 10.493l11.249 5.33c2.111-3.108 4.005-6.682 5.693-10.487zm30.053.612c-1.09 3.354-2.315 6.716-3.683 9.953l10.167 4.817c1.304-3.204 2.498-6.59 3.581-10.002zm-12.834-6.081c-1.091 3.353-2.317 6.715-3.686 9.95l11.258 5.336c1.362-3.229 2.583-6.595 3.671-9.96zm-30.055-.614c-1.686 3.784-3.578 7.355-5.691 10.489l11.248 5.33c2.115-3.106 4.011-6.678 5.702-10.483zm17.221-5.467c-1.092 3.353-2.32 6.714-3.69 9.948l11.259 5.335c1.362-3.227 2.585-6.591 3.674-9.956zm29.015.42a182 182 0 0 1-2.813 10.064l10.054 4.764a208 208 0 0 0 2.657-9.515l.139-.557zm-59.074-1.036c-1.689 3.784-3.584 7.354-5.7 10.485l11.25 5.33c2.118-3.103 4.018-6.674 5.711-10.48zm46.243-5.045a181 181 0 0 1-2.815 10.064l11.241 5.326a180 180 0 0 0 2.797-10.071zm-29.015-.418c-1.094 3.353-2.323 6.712-3.695 9.945l11.258 5.334c1.364-3.226 2.588-6.589 3.678-9.954zm-29.212-.216c-1.678 3.916-3.533 7.532-5.568 10.548l10.255 4.859c2.12-3.1 4.023-6.671 5.72-10.476zm287.934-10.028 66.386 23.029c-8.68-17.48-22.678-41.477-34.695-61.398a2211 2211 0 0 0-20.955-34.019l-.532-.845zm-242.536 4.583a181 181 0 0 1-2.819 10.063l11.241 5.326a180 180 0 0 0 2.799-10.072zm27.988 1.754a222 222 0 0 1-1.904 8.675l10.043 4.76c.764-3.126 1.416-6.06 1.959-8.649zm-57.008-2.174c-1.095 3.352-2.325 6.711-3.698 9.942l11.259 5.336c1.365-3.224 2.59-6.587 3.681-9.951zm162.936-10.983 104.315 25.07 12.864-92.324zm-118.756 7.079a223 223 0 0 1-1.906 8.673l11.219 5.318a221 221 0 0 0 1.888-8.683zm-27.989-1.757a181 181 0 0 1-2.822 10.064l11.24 5.325a181 181 0 0 0 2.803-10.07zm320.983-19.713c2.688-1.676 6.271-1.46 10.028.65 1.472.826 2.881 1.895 4.197 3.141l.088.086q.264.25.523.511l.054.056c1.775 1.805 3.362 3.928 4.67 6.207 2.415 4.208 3.935 9.024 3.935 13.46 0 4.427-1.528 7.79-4.239 9.437-1.27.772-2.734 1.127-4.317 1.068l-.076-.004q-.249-.012-.501-.036a10 10 0 0 1-.897-.129 12 12 0 0 1-.893-.206c-1.108-.303-2.251-.785-3.408-1.448v-.001c-3.738-2.142-7.063-5.826-9.45-10.017-2.388-4.193-3.886-8.976-3.886-13.369 0-1.507.177-2.893.52-4.129.649-2.361 1.897-4.183 3.652-5.277M76.258 188.985c-1.083 3.396-2.28 6.778-3.593 9.993l10.428 4.941c1.366-3.223 2.593-6.584 3.686-9.948zm358.458-17.464c-3.397-1.908-6.267-1.905-8.239-.68-1.334.828-2.391 2.296-2.942 4.392-.267 1.026-.416 2.201-.416 3.524 0 4.023 1.383 8.51 3.659 12.505 1.905 3.343 4.403 6.285 7.16 8.298l.196.141a16 16 0 0 0 .634.431q.142.093.288.183l.41.247.113.067c1.252.718 2.435 1.176 3.528 1.41q.1.022.199.04.143.027.284.05c1.687.265 3.145-.019 4.301-.721 2.005-1.219 3.401-3.876 3.401-7.946 0-4.062-1.403-8.581-3.704-12.591-2.302-4.011-5.456-7.431-8.872-9.35m-287.681 15.951a187 187 0 0 1-.727 4.463c-.171.973-.367 2.044-.586 3.197l10.116 4.794q.27-1.327.494-2.488c.376-1.951.659-3.532.847-4.625.073-.427.131-.78.175-1.05l-3.412-1.617-6.827-3.236q-.035.254-.08.562m-27.313-2.73a223 223 0 0 1-1.908 8.673l11.218 5.316a220 220 0 0 0 1.892-8.681zm-27.992-1.758c-.81 3.227-1.746 6.63-2.824 10.064l11.24 5.326a179 179 0 0 0 2.807-10.071zm42.488-1.641a184 184 0 0 1-.729 4.463c-.173.988-.371 2.075-.594 3.248l11.197 5.305a194 194 0 0 0 1.219-7.147c.068-.453.118-.817.156-1.083l-8.655-4.102-2.521-1.194zm-27.322-2.679a222 222 0 0 1-1.911 8.672l11.218 5.315a221 221 0 0 0 1.893-8.679zm-27.357-1.202a209 209 0 0 1-2.755 9.843l10.53 4.988a180 180 0 0 0 2.808-10.07l-10.526-4.99q-.03.115-.057.229m41.86-2.248a187 187 0 0 1-.728 4.463 222 222 0 0 1-.605 3.298l11.198 5.305q.281-1.493.507-2.776c.327-1.871.565-3.381.721-4.421q.095-.638.15-1.031l-11.176-5.296zm-27.332-2.629a222 222 0 0 1-1.912 8.671l11.22 5.316a221 221 0 0 0 1.895-8.678zm-14.132-48.428c-1.943-1.036-3.306-1.324-4.264-1.246a3 3 0 0 0-.697.139 2.4 2.4 0 0 0-.371.159l-.101.062c-.77.464-1.283 1.374-1.594 2.573-.306 1.182-.376 2.5-.376 3.573v9.21l93.489 46.462v-7.803q0-.854-.123-1.724c-.669-4.75-4.217-9.834-13.072-14.338-1.334-.678-3.443-1.748-6.122-3.104q-.044.307-.074.609c-.203 2.01.049 3.638.628 4.726 1.407-.35 2.876.303 3.933 1.393l.029-.005.32.395.017.02.889 1.11-.162.033q.044.083.085.168l.004.009q.08.177.148.356l.062-.017.206.883.005.026.188.787-.063.017c.149 1.712-.464 3.443-2.025 4.163-1.082.499-2.27.326-3.269-.224-.999-.549-1.869-1.499-2.419-2.694l-.094-.213a6 6 0 0 1-.462-2.747c-2.197-2.461-2.712-6.48-1.819-10.76-15.548-7.871-42.738-21.626-56.056-28.457a16 16 0 0 0-.047.413c-.203 2.01.049 3.638.628 4.726 1.405-.347 2.872.307 3.928 1.395l.034-.006.333.412q.047.06.093.122l.794.992-.155.031.085.169.004.009q.079.177.146.353l.06-.015.2.855.008.025.195.817-.065.018c.148 1.712-.465 3.441-2.026 4.161-1.081.499-2.27.326-3.27-.224-.998-.549-1.868-1.498-2.417-2.693l-.094-.214a5.96 5.96 0 0 1-.463-2.749c-2.167-2.429-2.696-6.375-1.85-10.591a262 262 0 0 1-2.961-1.547m71.287 23.745a23 23 0 0 0-2.077 3.149 22.2 22.2 0 0 0-2.092 5.286 6355 6355 0 0 1 6.562 3.328c8.886 4.521 12.984 9.824 13.93 15.136q.038.216.069.432c.016.111.035.222.048.332q.105.864.105 1.726v7.726l9.053-4.985v-9.658c0-2.717-.545-5.271-2-7.638-1.457-2.37-3.869-4.62-7.711-6.657-.508-.269-1.235-.647-2.15-1.122l-.002.007-3.091-1.591-.641-.331.003-.012a4960 4960 0 0 0-10.006-5.128m-42.639 21.183a202 202 0 0 1-1.343 7.811l11.198 5.306c.191-1.012.362-1.958.514-2.826.328-1.871.566-3.381.723-4.422q.088-.597.141-.98l-11.174-5.295zm-26.585-2.22a268 268 0 0 1-1.972 8.644l10.519 4.983a221 221 0 0 0 1.897-8.678zm13.768-3.909a187 187 0 0 1-.729 4.463c-.18 1.03-.389 2.169-.624 3.399l11.198 5.307a186 186 0 0 0 1.247-7.3q.083-.556.135-.928l-11.177-5.295zm181.14-121.643.012.007.034.024.134.091.525.363a1483 1483 0 0 1 9.299 6.48 1580 1580 0 0 1 23.296 16.679c17.7 12.931 37.645 28.182 46.335 37.283l.767.803-121.251 69.929-.594.342-.474-.496c-8.559-8.966-28.363-24.121-46.099-37.078a1574 1574 0 0 0-32.56-23.132l-.522-.361-.134-.092-.033-.023-.009-.005-.002-.001-.001-.001-1.141-.783L276.454 41zM146.521 168.39q.056.218.138.439l.132.316.001.001c.41.891 1.033 1.543 1.673 1.895s1.237.38 1.698.167c.603-.278 1.064-1.059 1.039-2.149q-.348.06-.695.093l-.014.001a6 6 0 0 1-.384.026l-.123.004-.189.005a9 9 0 0 1-.441-.014l-.049-.005a6.8 6.8 0 0 1-2.786-.779m125.644-60.424-25.507.946-9.887 61.631 116.277-67.06-80.03-6.498zm-113.394 4.21.558.386a1586 1586 0 0 1 30.589 21.769c16.918 12.36 35.883 26.841 45.113 36.044l9.851-61.396zm-74.973 45.346a248 248 0 0 1-1.435 7.586l10.42 4.938a204 204 0 0 0 1.257-7.35q.077-.519.127-.877l-10.274-4.868zm77.64-16.513c-1.892-1.039-4.39-.778-7.046.796-1.673.991-3.353 2.477-4.879 4.377a25.7 25.7 0 0 0-2.471 3.712c-1.098 2.003-1.879 4.018-2.349 5.932a1 1 0 0 1-.025.106c-1.065 4.444-.42 8.131 1.489 10.04l.02.019q.071.07.144.135.244.224.514.413l.147.103q.145.093.295.175l.001.001q.065.035.13.067a5 5 0 0 0 1.613.503l.163.02q.3.033.611.033.49 0 1.012-.087l-.023-.054a5 5 0 0 0-.305-.551 5.1 5.1 0 0 1-2.003-.144l-.032-.008-.123-.039-.082-.028-.074-.027q-.07-.026-.14-.055l-.06-.024-.129-.059-.058-.026a4 4 0 0 1-.184-.095h-.003a4.3 4.3 0 0 1-.747-.524 4.7 4.7 0 0 1-.62-.657l-.003-.002-.013-.018-.64-.823.094-.048c-.767-1.511-.982-3.504-.768-5.619.261-2.596 1.178-5.529 2.721-8.342a24.6 24.6 0 0 1 2.732-3.995 20 20 0 0 1 2.591-2.579c1.938-1.589 4.043-2.602 5.961-2.602.782 0 1.537.167 2.226.546 1.562.856 2.387 2.563 2.665 4.513.252 1.772.073 3.864-.493 6.041l.605.312c.68-2.53.823-4.884.468-6.823-.401-2.189-1.416-3.783-2.932-4.615m-70.267-23.532a23 23 0 0 0-1.928 2.957c-1.008 1.838-1.72 3.713-2.137 5.473 13.036 6.692 40.37 20.518 56.162 28.513a27 27 0 0 1 2.245-5.363 28 28 0 0 1 1.952-3.067 31348 31348 0 0 0-53.77-27.361 29 29 0 0 0-2.524-1.152m67.728 25.302c-1.344 0-3.065.739-4.855 2.206-.557.457-1.112.978-1.654 1.556a4921 4921 0 0 1 9.315 4.772c.444-1.862.557-3.576.358-4.973-.237-1.668-.888-2.742-1.776-3.229l-.002-.001c-.398-.219-.857-.331-1.386-.331m-72.282-5.008c.039.146.082.294.138.441l.132.315.002.001c.41.891 1.033 1.544 1.672 1.896.64.351 1.237.38 1.699.167.602-.278 1.063-1.06 1.038-2.15a8 8 0 0 1-1.404.128l-.43-.011a7.6 7.6 0 0 1-1.203-.173l-.062-.013a6.7 6.7 0 0 1-1.582-.601m14.919-27.379c-1.892-1.039-4.39-.778-7.047.796-2.643 1.566-5.306 4.367-7.35 8.088-1.104 2.017-1.889 4.047-2.358 5.972l-.004.024c-1.082 4.478-.433 8.192 1.496 10.101q.124.122.254.235.392.341.848.592l.001.001.289.148a5.2 5.2 0 0 0 2.469.469l.042-.003q.357-.018.73-.078l-.023-.054a5 5 0 0 0-.306-.552c-1.015.119-2.008-.02-2.891-.504l-.001-.001a4.5 4.5 0 0 1-1.371-1.183l-.654-.84.099-.05c-.766-1.511-.98-3.503-.767-5.617q.074-.725.213-1.48a.87.87 0 0 1 .09-.496l.015-.024c.44-2.053 1.246-4.231 2.404-6.342a24.6 24.6 0 0 1 2.522-3.746 20.3 20.3 0 0 1 2.801-2.828c1.937-1.589 4.043-2.602 5.961-2.602.782 0 1.537.167 2.226.546 1.562.856 2.387 2.563 2.665 4.513.252 1.775.073 3.871-.495 6.051l.604.312c.682-2.534.826-4.892.47-6.833-.401-2.189-1.416-3.783-2.932-4.615m-15.068 6.587c-.822.22-1.71.612-2.806 1.19l-.822.445c-1.843 1.02-3.607 2.001-5.035 2.799a10 10 0 0 1 .963.304q.125.045.252.095l.21.084q.138.056.277.117.147.064.297.133.128.058.258.121.342.163.696.351v.001c.598.319 1.466.772 2.561 1.339a27 27 0 0 1 2.292-5.519q.412-.751.857-1.46m12.53-4.817c-1.344 0-3.066.738-4.855 2.206a18 18 0 0 0-1.792 1.704 34 34 0 0 1 2.131 1.001c.953.483 3.577 1.817 7.301 3.709.461-1.895.58-3.641.378-5.059-.237-1.668-.887-2.742-1.775-3.229l-.003-.001q-.595-.33-1.385-.331m60.614-1.763 110.934-4.119 4.869-62.668zm113.541-15.154 80.482 6.535c-9.266-9.097-27.777-23.227-44.457-35.414a1583 1583 0 0 0-30.554-21.746l-1.459-1.01z"/>
</svg>
