<svg xmlns="http://www.w3.org/2000/svg" width="550" height="550" fill="none" viewBox="0 0 550 550">
    <path fill="#fff" fill-rule="evenodd" d="M178.925 219.836c.732.414 1.477.834 2.24 1.267l.011.004c-.191.154-.347.286-.481.4-.238.202-.409.348-.6.463-6.115 3.652-12.235 7.3-18.359 10.937-5.634 3.346-11.273 6.689-16.911 10.031l-11.273 6.685c-5.135 3.047-10.271 6.098-15.407 9.149l-7.73 4.591c-2.89 1.718-5.782 3.432-8.673 5.145-6.551 3.883-13.102 7.765-19.63 11.69-.747.45-1.496.897-2.245 1.345-3.918 2.341-7.845 4.686-11.526 7.357-5.206 3.774-8.014 8.973-7.747 15.647.406 10.055.728 20.116 1.05 30.175.035 1.127.072 2.253.108 3.38.19 5.939.368 11.879.547 17.819.218 7.21.435 14.421.671 21.63.123 3.728 1.605 6.929 4.015 9.771 2.973 3.505 6.874 5.661 10.781 7.822l1.004.556c1.645.915 3.293 1.827 4.941 2.738 4.402 2.435 8.805 4.87 13.158 7.389 1.322.764 2.342 1.058 3.511.011 1.321-1.18 2.563-.844 3.98-.054 7.678 4.298 15.391 8.542 23.107 12.778 4.586 2.521 9.177 5.032 13.768 7.543 4.936 2.7 9.872 5.4 14.802 8.112 5.23 2.877 10.451 5.766 15.673 8.656 4.326 2.394 8.651 4.787 12.981 7.174 2.598 1.432 5.194 2.87 7.79 4.308 8.289 4.591 16.579 9.183 24.962 13.596 2.51 1.322 3.374 2.861 2.999 5.398-.168 1.123.405 1.555 1.291 2.036a993.184 993.184 0 0 1 15.8 8.713c4.236 2.395 8.511 4.722 13.217 6.047 9.271 2.609 18.695 2.991 28.195 1.567 5.417-.814 10.742-2.14 15.571-4.718 4.858-2.594 9.596-5.417 14.333-8.24 1.248-.744 2.496-1.487 3.747-2.227a4277.08 4277.08 0 0 0 15.559-9.263c3.65-2.18 7.301-4.36 10.955-6.533 5.761-3.424 11.526-6.841 17.29-10.257 4.717-2.796 9.434-5.592 14.149-8.392 4.762-2.827 9.521-5.659 14.28-8.491 5.126-3.051 10.252-6.101 15.382-9.146 4.89-2.9 9.784-5.796 14.679-8.691 4.504-2.665 9.008-5.329 13.509-7.998 2.101-1.247 4.203-2.491 6.304-3.735 6.796-4.024 13.592-8.048 20.352-12.13.798-.481 1.598-.961 2.398-1.44 4.267-2.556 8.542-5.117 12.531-8.06 4.897-3.618 7.663-8.565 7.258-15.013-.234-3.725-.307-7.461-.38-11.196a507.972 507.972 0 0 0-.132-5.661c-.107-3.566-.223-7.131-.338-10.695-.174-5.342-.347-10.683-.491-16.026-.176-6.464-.321-12.93-.466-19.395-.073-3.239-.145-6.479-.222-9.718a14.908 14.908 0 0 1 0-.518c.005-.415.01-.831-.076-1.227-1.31-6.105-4.848-10.62-10.177-13.687-5.96-3.43-11.972-6.773-17.982-10.115-1.555-.864-3.109-1.729-4.663-2.595-6.412-3.574-12.828-7.143-19.245-10.712-5.529-3.075-11.057-6.15-16.582-9.228-1.073-.596-2.132-1.219-3.253-1.878-.588-.345-1.192-.701-1.824-1.067.178-.142.323-.264.45-.369.234-.196.403-.337.589-.449l1.009-.604c6.181-3.699 12.366-7.4 18.557-11.081 6.474-3.849 12.95-7.693 19.426-11.537a35891.14 35891.14 0 0 0 15.684-9.313 39.25 39.25 0 0 0 2.662-1.711c2.178-1.539 3.35-3.533 3.22-6.326-.118-2.586-.125-5.178-.133-7.769a443.536 443.536 0 0 0-.016-3.053c-.01-1.073-.041-2.147-.073-3.222-.074-2.541-.149-5.081.058-7.596.119-1.427-.06-2.845-.239-4.261-.265-2.098-.529-4.189.178-6.29.052-.162.031-.349.01-.535-.009-.086-.019-.172-.021-.256-.046-1.283-.094-2.567-.143-3.851a608.788 608.788 0 0 1-.293-8.858c-.095-4.03-.183-8.06-.122-12.09.042-2.77-.589-5.241-3.033-6.693-5.633-3.343-11.344-6.561-17.053-9.778l-1.073-.605c-5.225-2.944-10.462-5.866-15.699-8.789-3.06-1.707-6.12-3.415-9.177-5.127-3.768-2.108-7.533-4.22-11.298-6.332-4.427-2.483-8.854-4.966-13.284-7.443-5.736-3.21-11.478-6.414-17.218-9.618a21523.571 21523.571 0 0 1-12.836-7.165c-5.97-3.334-11.939-6.667-17.906-10.006-2.395-1.34-4.784-2.69-7.173-4.04-4.733-2.676-9.467-5.35-14.242-7.948-6.521-3.54-13.324-3.732-20.017-.641-2.616 1.207-5.089 2.73-7.56 4.25-.952.586-1.904 1.172-2.864 1.74-8.221 4.862-16.434 9.74-24.643 14.619-4.47 2.658-8.939 5.318-13.408 7.978-4.464 2.657-8.928 5.315-13.393 7.97-4.104 2.44-8.21 4.879-12.316 7.316-4.107 2.439-8.214 4.877-12.319 7.318-3.917 2.33-7.832 4.661-11.747 6.993-4.471 2.663-8.942 5.326-13.416 7.986-2.51 1.491-5.023 2.977-7.536 4.464-5.617 3.323-11.235 6.645-16.82 10.021-2.495 1.509-4.298 3.667-4.275 6.8l.011 1.6c.041 6.255.082 12.513.276 18.764.025.831-.012 1.669-.049 2.508-.097 2.225-.195 4.457.859 6.576a.69.69 0 0 1 .023.47c-.83 2.412-.584 4.837-.338 7.264.133 1.304.265 2.61.231 3.913-.094 3.511-.04 7.025.013 10.539.036 2.375.072 4.751.063 7.125-.011 2.578 1.043 4.569 3.098 5.906 1.89 1.232 3.863 2.34 5.835 3.446.742.417 1.484.833 2.221 1.256 1.568.897 3.139 1.785 4.774 2.71m-81.12 185.346c.017-.301.035-.557.05-.784.032-.447.055-.78.045-1.112-.065-2.197-.136-4.395-.207-6.593-.11-3.423-.221-6.846-.312-10.268-.187-7.159-.344-14.321-.49-21.48-.007-.429.06-.86.126-1.29.033-.21.065-.419.089-.628.202.057.41.102.618.147.45.097.9.194 1.284.411a16790.15 16790.15 0 0 1 37.234 20.949c5.779 3.258 11.554 6.521 17.33 9.783 3.859 2.18 7.719 4.361 11.579 6.54l9.146 5.162c6.079 3.43 12.157 6.86 18.232 10.297 2.511 1.42 5.017 2.847 7.524 4.274 6.116 3.482 12.233 6.964 18.403 10.345 1.795.986 2.41 2.063 2.448 4.042.152 7.767.357 15.535.562 23.302.125 4.747.25 9.494.363 14.241.03 1.23.359 1.979 1.551 2.613 4.84 2.582 9.657 5.225 14.374 8.026 6.861 4.072 14.119 7.021 22.08 7.88 6.872.741 13.733.711 20.594-.58 6.31-1.185 12.239-3.221 17.755-6.502 6.659-3.964 13.324-7.914 19.99-11.864l8.198-4.86c2.804-1.663 5.608-3.323 8.412-4.984 5.372-3.182 10.742-6.362 16.108-9.555 4.166-2.478 8.328-4.964 12.489-7.451 4.673-2.791 9.346-5.583 14.026-8.364 4.666-2.773 9.337-5.537 14.007-8.301 4.278-2.532 8.555-5.063 12.828-7.601 5.379-3.197 10.751-6.4 16.124-9.603 4.419-2.635 8.838-5.27 13.26-7.901 3.517-2.092 7.042-4.171 10.568-6.25 7.341-4.329 14.682-8.659 21.952-13.106 6.845-4.186 10.615-9.947 10.21-18.599-.711-15.127-1.13-30.266-1.548-45.405a5823.9 5823.9 0 0 0-.537-18.695 2.697 2.697 0 0 0-.07-.469 6.582 6.582 0 0 1-.045-.237l-.336-.195c-.126.233-.252.462-.374.695-1.746 3.354-4.279 6.059-7.411 8.068-5.332 3.418-10.774 6.661-16.217 9.903l-.003.002c-5.794 3.451-11.6 6.882-17.406 10.314a7338.524 7338.524 0 0 0-14.086 8.339 9207.1 9207.1 0 0 0-15.976 9.519 9518.958 9518.958 0 0 1-15.329 9.134c-5.26 3.127-10.527 6.241-15.794 9.356-4.689 2.773-9.378 5.546-14.063 8.327-5.794 3.438-11.582 6.887-17.37 10.335-4.102 2.444-8.204 4.888-12.308 7.329a3328.662 3328.662 0 0 1-8.939 5.287c-6.434 3.797-12.868 7.593-19.245 11.482-5.97 3.645-12.212 6.533-19.061 7.992-7.381 1.574-14.853 1.795-22.324.963-5.539-.619-10.975-1.876-15.987-4.432-3.514-1.792-6.968-3.707-10.42-5.622-.706-.392-1.411-.783-2.117-1.173a12384.582 12384.582 0 0 1-31.745-17.588c-4.153-2.31-8.299-4.633-12.446-6.956-4.149-2.324-8.297-4.648-12.452-6.96a7376.404 7376.404 0 0 0-14.785-8.203 9654.125 9654.125 0 0 1-11.825-6.557c-5.304-2.947-10.603-5.903-15.901-8.858-3.651-2.036-7.301-4.072-10.954-6.105-3.324-1.851-6.649-3.699-9.974-5.547a8960.74 8960.74 0 0 1-13.019-7.243 4065.471 4065.471 0 0 1-7.298-4.077c-4.761-2.663-9.521-5.326-14.3-7.956-4.523-2.49-8.855-5.18-11.811-9.58a6.842 6.842 0 0 0-.438-.561 14.42 14.42 0 0 1-.227-.276c-.37.714-.386 1.276-.367 1.838.053 1.378.11 2.756.167 4.134.108 2.597.216 5.193.295 7.792.134 4.398.272 8.797.41 13.196.41 12.994.819 25.988 1.096 38.985.145 6.838 3.346 11.704 8.854 15.161 3.558 2.234 7.238 4.275 10.919 6.315a616.66 616.66 0 0 1 4.056 2.261 779.131 779.131 0 0 0 6.643 3.69c1.141.629 2.31 1.273 3.518 1.942m269.413-139.936-1.012-.588v-.007l3.341-2.006c1.97-1.185 3.861-2.321 5.758-3.449 2.395-1.424 4.791-2.845 7.188-4.266 5.417-3.212 10.835-6.424 16.232-9.666 1.192-.718 2.185-.737 3.389-.065 6.76 3.782 13.531 7.546 20.302 11.311 3.387 1.882 6.773 3.765 10.158 5.65 2.504 1.395 5.008 2.787 7.513 4.18 7.745 4.307 15.491 8.614 23.204 12.976 3.812 2.154 7.155 4.886 9.168 8.931 2.617 5.256 1.75 10.165-1.589 14.757-2.796 3.842-6.765 6.261-10.769 8.629-5.783 3.421-11.56 6.853-17.336 10.285-3.571 2.122-7.142 4.244-10.714 6.362-4.022 2.387-8.047 4.769-12.071 7.152-4.969 2.941-9.938 5.883-14.902 8.831-5.062 3.007-10.119 6.02-15.177 9.033a9157.575 9157.575 0 0 1-27.01 16.05 8337.506 8337.506 0 0 0-14.032 8.323c-4.782 2.844-9.56 5.696-14.338 8.547a8630.78 8630.78 0 0 1-17.078 10.175c-1.662.987-3.324 1.976-4.985 2.965-6.365 3.791-12.73 7.582-19.18 11.226-5.107 2.884-10.73 4.37-16.521 5.345-5.49.92-10.983 1.077-16.491.649-8.744-.684-16.789-3.484-24.376-7.907-6.144-3.585-12.376-7.022-18.609-10.46-2.641-1.457-5.282-2.913-7.917-4.381l-.173-.097c-8.839-4.926-17.678-9.852-26.521-14.774-5.025-2.799-10.052-5.596-15.079-8.394l-9.682-5.389-9.617-5.357c-5.691-3.172-11.384-6.343-17.077-9.51-3.851-2.143-7.703-4.281-11.555-6.42a9995.06 9995.06 0 0 1-11.556-6.419l-4.046-2.25a5396.972 5396.972 0 0 1-23.861-13.323c-3.688-2.073-7.38-4.148-10.924-6.446-3.082-2.005-5.458-4.756-6.75-8.327-1.833-5.07-.66-9.562 2.533-13.684 2.88-3.72 6.826-6.081 10.788-8.427 6.406-3.79 12.807-7.59 19.207-11.391l8.862-5.26c2.998-1.777 5.996-3.553 8.995-5.328 6-3.553 12-7.107 17.993-10.67 4.963-2.95 9.922-5.907 14.881-8.864 4.431-2.642 8.861-5.284 13.296-7.921a3106.245 3106.245 0 0 1 22.098-13.049c.482-.279 1.376-.337 1.845-.077 7.81 4.314 15.597 8.666 23.384 13.019l5.687 3.178.216.121c.849.476 1.699.952 2.565 1.399.936.486 1.077.967.084 1.555-6.578 3.9-13.153 7.804-19.727 11.708l-6.334 3.76c-5.638 3.346-11.275 6.691-16.914 10.034-2.924 1.735-5.849 3.468-8.773 5.201-6.552 3.883-13.104 7.765-19.648 11.661-.795.473-1.593.942-2.391 1.411-2.837 1.669-5.678 3.34-8.397 5.182-3.403 2.308-6.135 5.279-6.437 9.68-.359 5.222 2.499 8.817 6.647 11.258 6.374 3.754 12.842 7.346 19.309 10.939a2772.19 2772.19 0 0 1 6.083 3.386 6521.213 6521.213 0 0 0 16.953 9.425c2.702 1.499 5.404 2.998 8.106 4.499l4.04 2.243c7.566 4.203 15.134 8.407 22.696 12.616a9832.85 9832.85 0 0 1 8.993 5.015c5.212 2.908 10.424 5.817 15.646 8.711 1.352.749 2.699 1.51 4.045 2.272 3.762 2.128 7.524 4.256 11.415 6.113 6.815 3.25 14.107 3.77 21.594 3.052 7.85-.753 14.509-4.252 21.056-8.248 4.763-2.905 9.569-5.742 14.377-8.579 2.688-1.586 5.377-3.173 8.058-4.772 2.818-1.679 5.63-3.37 8.441-5.061 3.065-1.844 6.129-3.687 9.203-5.516 5.76-3.426 11.526-6.843 17.292-10.26a11882.028 11882.028 0 0 0 21.198-12.581c9.314-5.537 18.631-11.075 27.898-16.689 2.414-1.463 4.89-3.048 6.8-5.08 4.729-5.031 4.274-11.831-1.207-16.117-2.823-2.203-5.995-3.976-9.149-5.739-.619-.347-1.238-.693-1.853-1.041-5.767-3.27-11.566-6.488-17.364-9.706-2.547-1.414-5.094-2.827-7.638-4.245-.557-.312-1.109-.633-1.757-1.009m-43.831-37.477c-3.3 2.047-6.899 2.903-11.211 2.811l.007-.011c-4.511.366-8.641-1.868-12.774-4.21a2452.048 2452.048 0 0 0-15.502-8.687 3642.176 3642.176 0 0 1-9.645-5.386c-4.005-2.244-8.005-4.496-12.005-6.748-4.829-2.718-9.657-5.436-14.494-8.142a3259.54 3259.54 0 0 0-11.708-6.514 3434.678 3434.678 0 0 1-11.399-6.34c-4.314-2.414-8.62-4.841-12.926-7.268-4.521-2.547-9.041-5.095-13.57-7.627-4.156-2.323-8.318-4.636-12.479-6.949a4280.634 4280.634 0 0 1-17.393-9.702 50.916 50.916 0 0 0-.657-.361c-1.571-.853-3.175-1.724-3.889-3.597-1.066-2.796-.711-4.652 1.803-6.348 2.91-1.966 5.936-3.764 8.959-5.561.609-.362 1.217-.723 1.825-1.086a7929.842 7929.842 0 0 1 19.407-11.552l5.641-3.35.026-.016c8.8-5.228 17.6-10.456 26.4-15.68l4.165-2.472c7.467-4.433 14.936-8.866 22.4-13.305l11.472-6.831c5.523-3.29 11.045-6.578 16.57-9.862 1.773-1.054 3.542-2.114 5.31-3.174 4.345-2.605 8.689-5.21 13.095-7.71 6.933-3.934 14.1-4.003 21.071-.202 8.739 4.767 17.42 9.645 26.101 14.522a6545.68 6545.68 0 0 0 9.33 5.235c5.009 2.805 10.016 5.616 15.022 8.427 5.495 3.086 10.99 6.172 16.489 9.248 4.245 2.375 8.495 4.741 12.745 7.108 4.61 2.568 9.221 5.136 13.827 7.714 7.003 3.92 14 7.851 20.997 11.782l10.506 5.901c1.208.678 2.42 1.349 3.631 2.021 2.393 1.325 4.785 2.65 7.145 4.029 2.105 1.23 3.652 2.865 3.309 5.639-.226 1.807-1.261 3.037-2.659 3.908-4.661 2.899-9.367 5.722-14.081 8.533-7.465 4.454-14.941 8.891-22.417 13.329l-4.254 2.524c-3.601 2.137-7.204 4.271-10.807 6.405a9343.166 9343.166 0 0 0-15.887 9.422c-4.624 2.751-9.243 5.509-13.862 8.267-5.256 3.139-10.513 6.279-15.777 9.408-7.115 4.23-14.238 8.446-21.361 12.662a33555.03 33555.03 0 0 0-10.105 5.983c-.541.321-1.083.64-1.625.959a241.863 241.863 0 0 0-4.766 2.854m-159.966-76.154c-.008.165-.02.337-.032.512-.027.403-.056.828-.048 1.255.031 1.984.08 3.969.128 5.954.109 4.487.218 8.975.135 13.459-.065 3.518 1.517 5.635 4.351 7.224 3.201 1.792 6.397 3.592 9.594 5.393 3.977 2.239 7.954 4.479 11.94 6.705 4.985 2.782 9.975 5.553 14.965 8.324 5.171 2.871 10.34 5.742 15.503 8.625 2.901 1.62 5.792 3.258 8.683 4.897 2.891 1.639 5.781 3.278 8.683 4.897 3.809 2.128 7.626 4.243 11.443 6.357 4.008 2.221 8.016 4.441 12.015 6.677 3.934 2.198 7.859 4.414 11.783 6.629 3.095 1.747 6.189 3.494 9.288 5.232l1.335.748c5.17 2.899 10.341 5.798 15.55 8.623.642.347 1.277.71 1.913 1.072 2.564 1.46 5.13 2.923 8.145 3.443 4.905.844 9.657.516 14.027-1.933 3.946-2.214 7.83-4.54 11.714-6.866 1.718-1.029 3.436-2.058 5.159-3.077 2.332-1.379 4.667-2.754 7.002-4.13 4.296-2.531 8.592-5.061 12.873-7.613 4.492-2.677 8.977-5.368 13.461-8.058 4.331-2.598 8.663-5.197 13-7.784a6848.353 6848.353 0 0 1 17.463-10.365c3.115-1.845 6.229-3.69 9.342-5.537l2.147-1.274c7.036-4.175 14.074-8.351 21.102-12.539 7.384-4.401 14.76-8.809 22.122-13.252 2.292-1.383 3.48-3.404 3.403-6.173-.117-4.488-.2-8.979-.283-13.468-.042-2.247-.083-4.494-.129-6.74-.008-.36-.056-.721-.112-1.144-.027-.205-.056-.425-.083-.667-.423.301-.812.589-1.183.863-.755.559-1.432 1.06-2.152 1.491a2165.6 2165.6 0 0 1-9.731 5.783c-2.298 1.361-4.596 2.721-6.89 4.087-4.424 2.635-8.846 5.274-13.269 7.913a17827.71 17827.71 0 0 1-13.265 7.91 31330.648 31330.648 0 0 1-28.256 16.805l-.069.041c-5.854 3.481-11.709 6.959-17.563 10.437a25054.18 25054.18 0 0 0-8.726 5.183 5504.087 5504.087 0 0 0-8.051 4.797c-6.706 4-13.411 7.999-20.156 11.931-.665.388-1.33.782-1.996 1.176-3.431 2.032-6.887 4.079-10.579 5.429-5.028 1.837-10.498 1.642-15.349-.833-5.511-2.814-10.9-5.864-16.288-8.914-2.015-1.141-4.03-2.281-6.052-3.409-4.776-2.665-9.545-5.339-14.315-8.013-3.525-1.975-7.049-3.951-10.576-5.923-3.639-2.035-7.279-4.065-10.919-6.096a9825.193 9825.193 0 0 1-11.913-6.651c-6.191-3.461-12.38-6.927-18.569-10.394l-8.117-4.546-8.298-4.648c-5.531-3.097-11.062-6.195-16.593-9.299-4.48-2.514-8.955-5.034-13.477-7.581zm.381 34.19.001-.557-.011-.007 8.539 4.771a14244.26 14244.26 0 0 1 21.436 11.991c4.486 2.516 8.969 5.037 13.452 7.559 6.61 3.717 13.22 7.435 19.839 11.136 6.307 3.526 12.62 7.039 18.933 10.553 5.917 3.293 11.833 6.585 17.743 9.888 3.911 2.185 7.815 4.381 11.72 6.578 5.44 3.06 10.879 6.12 16.334 9.149 1.071.595 2.137 1.205 3.203 1.815 3.481 1.992 6.969 3.989 10.656 5.477 6.361 2.567 12.835 1.883 18.802-1.604 8.535-4.991 17.031-10.054 25.527-15.116 2.071-1.234 4.142-2.469 6.214-3.702 5.287-3.147 10.571-6.3 15.856-9.453 6.184-3.689 12.368-7.379 18.558-11.06a9659.93 9659.93 0 0 1 16.718-9.908c4.92-2.911 9.839-5.822 14.755-8.741 12.255-7.281 24.498-14.57 36.733-21.881.615-.367 1.179-.822 1.821-1.34.327-.264.674-.544 1.059-.838.018.275.036.518.052.739.034.459.06.826.063 1.194.02 1.953.027 3.906.034 5.859.018 4.52.035 9.041.203 13.554.114 3.14-1.265 5.112-3.748 6.586-5.636 3.346-11.276 6.687-16.916 10.028-7.393 4.378-14.786 8.756-22.17 13.148a9068.066 9068.066 0 0 0-17.2 10.268 8758.426 8758.426 0 0 1-17.195 10.265c-8.023 4.771-16.055 9.53-24.088 14.29a20795.92 20795.92 0 0 0-18.669 11.071c-1.998 1.186-3.98 2.4-5.963 3.615-4.052 2.481-8.104 4.962-12.282 7.207-6.788 3.644-13.801 3.594-20.639-.191a7919.613 7919.613 0 0 1-23.107-12.855 7577.676 7577.676 0 0 1-14.948-8.373c-2.613-1.466-5.225-2.933-7.839-4.397l-.031-.018c-8.229-4.612-16.459-9.225-24.695-13.829-4.713-2.636-9.429-5.267-14.145-7.899-2.933-1.636-5.866-3.272-8.798-4.91a19251.7 19251.7 0 0 1-28.234-15.769c-4.642-2.594-9.284-5.189-13.893-7.842-2.285-1.314-3.557-3.247-3.534-6.082.038-4.484-.02-8.97-.078-13.455-.025-1.934-.05-3.868-.067-5.801-.003-.372-.002-.742-.001-1.113m79.5 70.368c.217.147.46.313.748.502h.004c-.683.409-1.346.808-1.994 1.198a1533.456 1533.456 0 0 1-5.299 3.176 13770.71 13770.71 0 0 0-6.466 3.85c-7.263 4.325-14.524 8.649-21.794 12.961a8943.183 8943.183 0 0 1-12.928 7.653c-4.582 2.71-9.163 5.419-13.74 8.135l-.001.001c-6.887 4.091-13.774 8.182-20.627 12.327-2.288 1.382-3.988 3.376-4.675 5.985-.722 2.728.363 5.177 2.406 6.8 2.537 2.017 5.39 3.675 8.225 5.275 6.409 3.623 12.849 7.19 19.288 10.758 2.43 1.346 4.859 2.692 7.288 4.041 2.772 1.54 5.545 3.078 8.318 4.617 6.233 3.458 12.467 6.917 18.693 10.388a4960.72 4960.72 0 0 1 10.335 5.781c5.956 3.337 11.912 6.675 17.891 9.969l.313.173c3.404 1.876 6.834 3.767 10.432 5.202 3.985 1.585 8.244 1.608 12.538 1.153 5.382-.572 9.796-3.222 14.232-5.885.453-.272.906-.545 1.361-.815 5.069-3.014 10.142-6.022 15.214-9.03 4.327-2.566 8.653-5.132 12.977-7.702 4.134-2.456 8.265-4.916 12.397-7.375a10466.213 10466.213 0 0 1 21.95-13.045c5.661-3.357 11.323-6.714 16.975-10.09l.575-.344c3.431-2.051 6.865-4.104 10.186-6.322 2.124-1.417 3.4-3.461 3.591-6.184.233-3.381-1.528-5.623-4.08-7.193-3.335-2.053-6.768-3.948-10.203-5.843-1.089-.601-2.179-1.202-3.266-1.809-4.489-2.506-8.983-5.005-13.476-7.505-3.522-1.959-7.044-3.918-10.563-5.88-.103-.058-.182-.155-.295-.295-.068-.084-.147-.183-.252-.297l2.27-1.372c2.032-1.228 4.025-2.434 6.031-3.625 1.746-1.037 3.496-2.07 5.245-3.102 3.39-2 6.78-4.001 10.146-6.039.943-.573 1.673-.642 2.628-.107a13497.93 13497.93 0 0 0 19.977 11.133c4.552 2.533 9.104 5.067 13.654 7.604 2.648 1.478 5.215 3.098 6.853 5.745 2.51 4.057 1.853 8.939-2.135 12.259-2.759 2.298-5.882 4.189-8.979 6.065-.321.194-.641.387-.961.582-5.194 3.154-10.426 6.245-15.659 9.337a3619.962 3619.962 0 0 0-6.222 3.681c-3.501 2.078-7.004 4.154-10.507 6.231a9600.24 9600.24 0 0 0-26.788 15.92 16112.12 16112.12 0 0 1-35.831 21.294c-2.893 1.715-5.794 3.421-8.695 5.127-1.55.911-3.1 1.822-4.648 2.735-4.794 2.826-10.058 4.163-15.528 4.561-4.653.336-9.382.397-13.875-1.024a57.277 57.277 0 0 1-9.859-4.149c-7.252-3.908-14.441-7.929-21.631-11.95a4997.559 4997.559 0 0 0-7.145-3.991c-4.693-2.613-9.384-5.231-14.075-7.849-5.301-2.958-10.601-5.916-15.904-8.867-4.259-2.37-8.521-4.734-12.783-7.097a7155.28 7155.28 0 0 1-15.562-8.645l-4.787-2.665c-6.927-3.853-13.855-7.707-20.719-11.672-3.388-1.955-6.066-4.729-6.322-8.935-.241-3.976 1.918-6.94 4.958-9.061 3.303-2.301 6.774-4.365 10.241-6.428l1.976-1.177c5.705-3.417 11.429-6.803 17.153-10.19a8781.26 8781.26 0 0 0 7.765-4.597l13.429-7.967 13.402-7.951 4.437-2.632c5.104-3.027 10.207-6.052 15.29-9.115.951-.577 1.669-.584 2.62-.05 5.316 2.995 10.645 5.967 15.973 8.94 2.421 1.35 4.841 2.7 7.26 4.052.324.181.632.39 1.029.66m-23.093 211.021c-.002.295-.004.621-.004.994v.004c-.755-.407-1.474-.791-2.168-1.162-1.27-.679-2.458-1.314-3.638-1.963a19721.285 19721.285 0 0 1-42.448-23.344c-4.483-2.471-8.965-4.943-13.45-7.411-3.906-2.15-7.815-4.297-11.724-6.444-3.909-2.147-7.817-4.294-11.723-6.444-5.93-3.267-11.856-6.539-17.784-9.811l-9.105-5.026a47.08 47.08 0 0 0-1.238-.654c-.949-.491-1.898-.981-2.754-1.6-.619-.451-1.257-1.371-1.272-2.09-.18-9.34-.289-18.683-.399-28.026l-.063-5.387a7.377 7.377 0 0 1 .043-.788c.016-.184.034-.397.052-.656.449.231.881.448 1.299.659a58.34 58.34 0 0 1 2.41 1.258c9.482 5.329 18.955 10.67 28.425 16.018 3.628 2.049 7.255 4.103 10.882 6.156 4.552 2.577 9.105 5.155 13.661 7.726 4.347 2.45 8.697 4.894 13.047 7.337 4.35 2.444 8.7 4.888 13.048 7.339 4.416 2.489 8.83 4.983 13.243 7.476 4.413 2.494 8.825 4.987 13.241 7.476a327.96 327.96 0 0 0 3.494 1.936c.823.452 1.646.904 2.465 1.36.875.489 1.612.925 1.639 2.22.162 7.798.378 15.596.595 23.394.075 2.699.15 5.398.222 8.098.01.42.007.841.004 1.355M329.075 343.03l.027.129.008.004-2.314 1.4a536.516 536.516 0 0 1-5.231 3.146l-.089.053c-2.419 1.43-4.842 2.863-7.314 4.199-.497.267-1.352.317-1.849.072a1957.823 1957.823 0 0 1-13.437-6.734c-2.364-1.192-4.728-2.385-7.095-3.572a313.457 313.457 0 0 1-4.502-2.317c-3.706-1.93-7.411-3.86-11.263-5.43-5.677-2.315-11.686-3.683-17.817-4.466-9.596-1.226-19.176-1.085-28.681.512-9.859 1.658-19.313 4.649-27.973 9.848-.65.39-1.842.531-2.464.199-4.705-2.524-9.36-5.132-14.018-7.74-1.046-.586-2.091-1.172-3.138-1.757a1.387 1.387 0 0 1-.322-.286c-.041-.044-.081-.087-.121-.126.184-.489.372-.971.559-1.452.409-1.051.812-2.089 1.164-3.144 1.673-5.019.359-9.512-2.605-13.626-.822-1.142-.81-1.661.481-2.422a3172.23 3172.23 0 0 0 13.636-8.089c5.35-3.186 10.7-6.372 16.072-9.521.661-.389 1.925-.309 2.659.058 8.874 4.413 17.718 8.892 26.562 13.371l3.436 1.74c4.147 2.101 8.292 4.206 12.438 6.311 6.829 3.467 13.659 6.935 20.498 10.387 2.259 1.139 4.515 2.288 6.771 3.436 6.688 3.405 13.379 6.811 20.172 9.999 6.413 3.006 13.331 4.469 20.402 5.092 1.749.155 3.501.307 5.253.459l.038.003zm-105.463-57.985a20.574 20.574 0 0 0-.565-.412l-.003-.004c.803-.485 1.586-.96 2.355-1.426a711.915 711.915 0 0 1 4.861-2.932c.548-.327 1.096-.657 1.643-.987 1.896-1.141 3.791-2.283 5.744-3.315.665-.351 1.8-.416 2.457-.087 13.095 6.528 26.159 13.125 39.212 19.734 2.154 1.091 4.309 2.181 6.464 3.27 9.488 4.799 18.975 9.598 28.416 14.485 9.306 4.821 19.047 5.986 29.307 4.286 6.712-1.112 12.759-3.637 18.359-7.434.688-.466 2.044-.626 2.751-.267 2.542 1.292 5.02 2.702 7.61 4.175.956.544 1.927 1.096 2.922 1.654-.6.368-1.179.727-1.746 1.078-1.241.768-2.422 1.5-3.618 2.207l-2.25 1.335c-4.917 2.918-9.832 5.835-14.787 8.685a12.63 12.63 0 0 1-3.839 1.421c-5.627 1.085-11.3 1.819-17.053 1.414a733.67 733.67 0 0 0-1.529-.107c-3.606-.25-7.212-.5-10.79-.959-5.669-.73-10.952-2.754-16.033-5.325a8835.697 8835.697 0 0 0-12.295-6.213 10457.072 10457.072 0 0 1-18.482-9.347c-4.199-2.127-8.398-4.255-12.599-6.378-5.35-2.703-10.706-5.404-16.061-8.103l-4.028-2.032c-5.23-2.636-10.459-5.271-15.685-7.922-.237-.12-.453-.282-.738-.494M461.211 175.06l-2.359 1.446a498.092 498.092 0 0 1-5.669 3.448c-5.435 3.24-10.875 6.474-16.315 9.707a18175.41 18175.41 0 0 0-19.567 11.642 22925.369 22925.369 0 0 1-34.884 20.735l-5.466 3.244a33276.33 33276.33 0 0 0-24.906 14.806 2177.234 2177.234 0 0 0-6.422 3.842c-4.562 2.737-9.123 5.474-13.729 8.134-.738.426-1.475.861-2.213 1.297-3.226 1.906-6.475 3.825-9.953 5.04-5.772 2.021-11.735 1.505-17.232-1.512-4.013-2.205-8.001-4.46-11.989-6.715a1778.039 1778.039 0 0 0-7.631-4.299c-5.021-2.807-10.046-5.607-15.072-8.407-5.492-3.061-10.986-6.121-16.473-9.191-4.978-2.785-9.951-5.579-14.925-8.373a9476.373 9476.373 0 0 0-14.921-8.37 6614.737 6614.737 0 0 0-13.003-7.25 6898.389 6898.389 0 0 1-13.565-7.564c-7.085-3.968-14.162-7.946-21.232-11.921l-9.641-5.418c-.638 2.024-.092 3.824 2.116 5.267 2.256 1.479 4.618 2.798 6.979 4.117l1.062.594c4.659 2.611 9.326 5.211 13.992 7.81 3.579 1.994 7.159 3.988 10.735 5.987 4.829 2.7 9.655 5.404 14.48 8.108 3.5 1.961 6.999 3.922 10.499 5.881a9856.87 9856.87 0 0 0 11.46 6.404c3.821 2.134 7.642 4.267 11.46 6.405 8.282 4.633 16.563 9.271 24.841 13.912 2.363 1.324 4.721 2.655 7.08 3.986 5.356 3.022 10.711 6.043 16.108 8.987.685.373 1.369.752 2.055 1.131 3.564 1.972 7.153 3.957 10.956 5.267 5.222 1.803 10.608.997 15.478-1.776 3.262-1.856 6.475-3.797 9.689-5.738a774.571 774.571 0 0 1 5.247-3.151c4.689-2.785 9.382-5.565 14.074-8.346 4.694-2.781 9.387-5.563 14.076-8.347 5.494-3.263 10.987-6.532 16.479-9.801a24311.092 24311.092 0 0 1 33.941-20.17l4.493-2.668 6.084-3.61c5.721-3.394 11.442-6.788 17.153-10.195 4.71-2.808 9.401-5.646 14.084-8.5 2.092-1.271 3.558-4.064 2.546-5.875M346.753 332.271c.095.039.228.093.425.162v.004c-1.249.749-2.492 1.465-3.719 2.172-2.698 1.554-5.324 3.066-7.794 4.799-4.043 2.835-8.285 2.209-12.505 1.586-.733-.108-1.465-.216-2.195-.306-3.659-.451-7.342-1.184-10.833-2.342-4.194-1.386-8.274-3.193-12.262-5.111-4.751-2.285-9.444-4.686-14.137-7.086-1.975-1.01-3.95-2.02-5.93-3.022-3.6-1.82-7.199-3.642-10.798-5.464-3.605-1.826-7.211-3.652-10.819-5.476-3.198-1.617-6.397-3.231-9.596-4.846-4.111-2.074-8.221-4.149-12.331-6.228a20345.92 20345.92 0 0 1-19.772-10.028 433.945 433.945 0 0 1-3.093-1.589l-1.564-.806c.707-.427 1.383-.826 2.035-1.211 1.455-.861 2.79-1.65 4.077-2.51 1.467-.981 2.659-1.054 4.336-.179 7.738 4.036 15.534 7.961 23.33 11.885l4.632 2.333c6.104 3.078 12.212 6.146 18.32 9.214 5.551 2.789 11.101 5.578 16.649 8.373 3.397 1.712 6.788 3.433 10.18 5.153 3.675 1.864 7.351 3.728 11.032 5.581 5.539 2.789 11.449 4.397 17.557 5.291 8.197 1.203 16.376.97 24.536-.416.051-.009.108.014.239.067m18.19-25.837c.022.104.054.25.109.455l.004.003c-1.165.673-2.326 1.381-3.492 2.092-2.605 1.589-5.241 3.197-8.029 4.471-6.758 3.083-14.008 4.061-21.415 3.656-6.162-.336-11.949-1.979-17.423-4.897-4.265-2.277-8.588-4.441-12.91-6.604-1.625-.813-3.25-1.627-4.872-2.446-2.909-1.468-5.818-2.934-8.728-4.399-3.782-1.905-7.564-3.809-11.343-5.72-3.346-1.693-6.692-3.39-10.037-5.086a8409.855 8409.855 0 0 0-13.41-6.791c-3.106-1.566-6.22-3.124-9.333-4.682a3811.457 3811.457 0 0 1-6.394-3.202 4.763 4.763 0 0 1-.496-.311 31.895 31.895 0 0 0-.428-.285c.682-.405 1.345-.803 1.995-1.192 2.046-1.226 3.962-2.374 5.916-3.449.352-.191 1.093.141 1.574.386 14.581 7.345 29.15 14.71 43.72 22.075 3.099 1.566 6.197 3.136 9.296 4.705 6.938 3.515 13.877 7.03 20.832 10.51 6.8 3.404 14.046 3.813 21.415 2.739 5.36-.779 10.299-2.746 14.753-5.886.439-.314 1.306-.501 1.73-.279 1.893.986 3.737 2.065 5.581 3.143l1.303.761c.036.022.05.084.082.233m-153.24 40.677a45.844 45.844 0 0 0-.528-.349h-.008c.764-.323 1.473-.636 2.149-.933 1.344-.591 2.556-1.124 3.799-1.569 10.975-3.92 22.309-5.49 33.922-4.753 9.431.6 18.481 2.732 26.938 7.197 5.222 2.758 10.505 5.399 15.789 8.04 2.416 1.208 4.832 2.415 7.242 3.634.227.114.441.253.71.427.148.096.313.203.505.322a265.498 265.498 0 0 1-3.17 1.865c-2.326 1.355-4.581 2.667-6.728 4.136-2.376 1.628-4.286 1.803-6.948.317-4.933-2.757-10.037-5.214-15.137-7.67-.991-.477-1.981-.954-2.97-1.433-5.833-2.827-12.098-3.69-18.512-3.789-6.8-.103-13.378 1.069-19.799 3.254-.447.153-1.085.256-1.455.054a1520.289 1520.289 0 0 1-12.505-6.887l-2.86-1.586c-.113-.064-.222-.137-.434-.277m140.209-44.212c.218.158.473.343.79.563v.004c-.574.248-1.099.484-1.593.706-.956.43-1.797.808-2.659 1.127-5.073 1.891-10.279 2.556-15.723 2.357-6.612-.24-12.216-3.056-17.87-5.951-5.793-2.973-11.604-5.909-17.417-8.847l-2.328-1.177c-3.369-1.701-6.74-3.398-10.111-5.096-3.933-1.98-7.866-3.96-11.797-5.948-5.544-2.802-11.083-5.614-16.623-8.426l-4.991-2.533c-.292-.15-.579-.311-.865-.472a44.148 44.148 0 0 0-.475-.265 32.142 32.142 0 0 0-.123-.516 76.413 76.413 0 0 1 1.615-.75c1.194-.544 2.389-1.088 3.504-1.764 2.772-1.676 4.993-.416 7.299.893l.318.181c3.193 1.799 6.383 3.603 9.573 5.408 10.139 5.733 20.277 11.467 30.499 17.046 7.197 3.927 14.619 3.732 21.854-.229.94-.516 1.685-.585 2.648-.046a3866.138 3866.138 0 0 0 15.68 8.737c2.616 1.453 5.232 2.906 7.847 4.361.291.162.561.357.948.637m-41.871 49.464c.609.316 1.249.648 1.94 1.003l.007-.003c-.746.438-1.462.863-2.157 1.276-1.92 1.139-3.681 2.184-5.479 3.162-.439.237-1.237.146-1.723-.095a799.945 799.945 0 0 1-6.992-3.505c-3.187-1.61-6.374-3.221-9.59-4.773a418.05 418.05 0 0 1-3.805-1.869c-4.372-2.164-8.749-4.331-13.313-5.966-8.503-3.044-17.461-3.686-26.484-3.388-5.745.187-11.456.798-16.972 2.296-3.331.904-6.577 2.116-9.822 3.329-1.555.581-3.11 1.162-4.675 1.709l-.135.048c-.497.176-1.113.394-1.469.208-1.854-.951-3.673-1.97-5.652-3.079-.708-.397-1.437-.805-2.194-1.226.427-.272.816-.532 1.183-.777.732-.488 1.375-.918 2.06-1.267 15.272-7.8 31.549-10.463 48.529-9.24 7.258.519 14.42 1.852 21.197 4.569 3.48 1.394 6.846 3.09 10.206 4.783a490.3 490.3 0 0 0 2.511 1.26c5.018 2.493 10.015 5.027 15.014 7.562 1.596.809 3.192 1.619 4.789 2.427.979.495 1.954 1 3.026 1.556m-112.134-58.226-38.486 22.871-.003.004c-2.067-2.323-2.071-5.666.481-7.912 2.164-1.904 4.696-3.427 7.181-4.922l.111-.067c6.862-4.128 13.753-8.209 20.643-12.289l6.029-3.571c4.026-2.388 8.056-4.773 12.085-7.159 4.873-2.885 9.746-5.77 14.616-8.66 1.429-.848 2.857-1.695 4.286-2.541 6.291-3.729 12.58-7.457 18.822-11.261 1.516-.92 2.712-.985 4.156-.034 1.006.661 2.061 1.252 3.241 1.915.554.31 1.135.636 1.751.992zm88.983 73.426c.131.094.285.204.479.335h.003c-.524.326-1.044.624-1.551.914-1.066.61-2.075 1.187-2.945 1.928-2.911 2.479-5.462 1.329-8.316-.191-4.458-2.372-9.004-4.619-13.664-6.544-4.878-2.013-10.173-2.59-15.318-1.826-4.779.711-8.679-.58-12.484-3.075-.674-.441-1.375-.835-2.203-1.301-.407-.228-.844-.474-1.323-.75.502-.175.965-.346 1.405-.508.894-.329 1.688-.622 2.503-.837 8.217-2.177 16.552-2.823 24.864-.924 3.878.882 7.675 2.372 11.304 4.034 4.018 1.842 7.949 3.876 11.879 5.911 1.604.83 3.208 1.66 4.818 2.477.17.087.327.199.549.357m44.018-81.958 7.659 4.27c4.512 2.515 8.919 4.971 13.321 7.433l1.215.679c8.301 4.64 16.6 9.28 24.872 13.974.825.467 1.314.386 1.662-.355.638-1.364.932-2.75.401-4.286-.848-2.452-2.758-3.831-4.844-5a6821.729 6821.729 0 0 0-35.854-19.952c-.627-.348-1.662-.581-2.231-.306-1.445.702-2.827 1.531-4.333 2.434-.599.359-1.218.73-1.868 1.109m-53.781 87.917a16.436 16.436 0 0 1-.493-.424c-.226-.199-.378-.334-.554-.425l-1.133-.597c-1.771-.935-3.543-1.869-5.338-2.753-.708-.349-1.414-.707-2.12-1.065-2.126-1.078-4.254-2.157-6.471-2.988-5.451-2.044-11.169-2.346-16.934-1.93-.425.031-.845.127-1.329.238-.238.054-.491.112-.768.167.134.125.23.221.306.297.122.122.189.188.267.231 1.187.671 2.384 1.329 3.58 1.987 2.549 1.401 5.098 2.803 7.563 4.335 7.234 4.495 14.877 5.29 23.424 2.927m-96.804-44.492c-.117.143-.237.29-.358.45-.563-.316-1.122-.625-1.676-.932-1.514-.838-2.995-1.658-4.443-2.533-.291-.175-.531-.947-.386-1.241.825-1.677 1.356-3.392.672-5.195-.832-2.193-2.464-3.763-4.416-5.001-1.615-1.024-1.623-1.131.023-2.101.533-.313 1.061-.634 1.59-.954 1.185-.718 2.369-1.436 3.598-2.075.443-.229 1.322-.153 1.719.153 5.856 4.481 7.583 12.017 4.297 18.553-.155.308-.377.58-.62.876m-82.274 36.217a173066.81 173066.81 0 0 1 1.123 39.766l.098-.042c1.454-.615 2.48-1.049 2.439-2.701-.178-7.673-.323-15.347-.467-23.02-.072-3.837-.144-7.673-.221-11.509-.03-1.588-.843-2.295-2.972-2.494m79.186-57.219c.912 1.827 1.955 1.206 3.03.566l.029-.017c3.415-2.03 6.831-4.059 10.248-6.088 6.201-3.683 12.403-7.366 18.601-11.056.252-.151.468-.359.7-.581.116-.112.236-.227.365-.34-1.092-1.1-2.028-.92-3.113-.267a1463.532 1463.532 0 0 1-9.347 5.554c-2.014 1.19-4.027 2.38-6.036 3.576-3.43 2.039-6.852 4.088-10.307 6.157zm178.099-7.174c.147.111.303.229.477.354h-.003c-1.1 1.165-2.109 1.242-3.297.577a6315.048 6315.048 0 0 0-11.049-6.162c-4.196-2.337-8.391-4.673-12.582-7.021-.252-.14-.44-.394-.628-.647a5.62 5.62 0 0 0-.273-.346c.128-.088.254-.195.381-.302.284-.24.567-.48.868-.504.581-.042 1.257.149 1.78.439a5692.43 5692.43 0 0 1 23.539 13.068c.266.148.508.332.787.544m-192.108 19.288 1.721.966c2.229 1.252 4.26 2.393 6.32 3.482.222.115.894-.236 1.097-.542 1.501-2.288.469-6.143-1.971-7.415-.329-.172-.894-.214-1.196-.042-1.412.793-2.797 1.632-4.382 2.591-.507.307-1.034.626-1.589.96m56.493-37.348c.973 1.11 1.713 1.369 2.817.686 1.926-1.191 3.883-2.332 5.839-3.473 1.088-.635 2.177-1.27 3.26-1.914 1.19-.707 2.371-1.433 3.562-2.164.647-.398 1.297-.798 1.954-1.197-1.429-1.372-1.44-1.375-2.93-.512-2.46 1.425-4.92 2.85-7.365 4.294a785.857 785.857 0 0 0-5.269 3.156zm157.793 30.573c.122.115.247.231.379.344-.733 1.02-1.581 1.299-2.552.764-2.36-1.305-4.71-2.631-7.088-3.972a2767.98 2767.98 0 0 0-3.325-1.873c.814-1.188 1.581-1.665 2.918-.882 1.781 1.044 3.588 2.041 5.395 3.039 1.148.633 2.296 1.266 3.437 1.912.303.171.564.414.836.668m-124.97-50.122c1.799-1.073 2.311-1.012 4.118.6h-.004c-.625.318-1.241.636-1.852.95-1.833.944-3.614 1.861-5.425 2.709-.449.208-1.03.159-1.586.113-.131-.011-.26-.021-.385-.029-.132-.007-.258-.124-.446-.298-.108-.099-.235-.217-.395-.343.353-.229.688-.45 1.013-.663.633-.417 1.225-.807 1.829-1.179.648-.4 1.307-.786 1.965-1.172.39-.228.78-.457 1.168-.688m-84.232 52.388a47.094 47.094 0 0 1-.049-.394 25.303 25.303 0 0 0-.05-.397 6.975 6.975 0 0 1-.737-.112c-.546-.101-1.092-.203-1.49-.007-1.593.787-3.075 1.807-4.538 2.823-.275.191-.493.917-.348 1.162.18.301.913.611 1.162.473 1.559-.855 3.088-1.773 4.615-2.69.478-.286.956-.573 1.435-.858M320.968 79.188c-2.693-1.57-5.365-3.13-8.502-2.784v.004c-2.941-.11-5.386.524-7.655 1.96-1.522.964-3.079 1.866-4.637 2.769-.769.446-1.539.892-2.304 1.345l-6.881 4.08c-5.957 3.531-11.913 7.062-17.865 10.6a33933.612 33933.612 0 0 0-34 20.243c-4.786 2.853-9.572 5.707-14.361 8.553-4.509 2.68-9.021 5.353-13.534 8.026l-8.359 4.954c-.547.325-1.096.646-1.645.968-1.59.932-3.179 1.864-4.727 2.863-3.056 1.972-3.189 5.062-.32 7.312.659.516 1.407.925 2.153 1.333.269.148.539.295.803.447 1.114.636 2.226 1.274 3.338 1.912a877.724 877.724 0 0 0 8.76 4.983c5.552 3.106 11.111 6.2 16.67 9.295 5.559 3.096 11.118 6.191 16.671 9.297a9048.43 9048.43 0 0 1 17.228 9.672c4.754 2.674 9.509 5.348 14.268 8.015 1.914 1.071 3.828 2.144 5.741 3.216 8.223 4.608 16.445 9.215 24.697 13.767 3.839 2.117 8.049 2.472 11.937.566 3.795-1.862 7.432-4.058 11.065-6.252 1.026-.62 2.052-1.239 3.081-1.851 6.844-4.067 13.678-8.15 20.512-12.234 5.22-3.118 10.439-6.237 15.663-9.349 6.854-4.081 13.718-8.15 20.581-12.218l6.388-3.787c2.649-1.571 5.299-3.14 7.949-4.709 5.663-3.353 11.327-6.706 16.977-10.079.483-.288.968-.575 1.452-.862 2.513-1.488 5.029-2.979 7.38-4.696 2.509-1.833 2.345-4.641-.096-6.57-.479-.377-1.021-.676-1.561-.974a23.887 23.887 0 0 1-.318-.176c-1.771-.995-3.545-1.985-5.319-2.976-3.659-2.043-7.319-4.086-10.954-6.173-2.561-1.469-5.105-2.968-7.648-4.466-3.17-1.868-6.34-3.736-9.542-5.546-1.835-1.038-3.721-1.984-5.608-2.929-1.529-.765-3.057-1.531-4.557-2.346-4.867-2.644-9.711-5.325-14.501-8.095a97.714 97.714 0 0 0-2.478-1.374c-2.685-1.456-5.372-2.913-7.58-5.14-.867-.874-2.036-1.52-3.167-2.05a127.948 127.948 0 0 0-4.044-1.779c-2.185-.93-4.369-1.861-6.453-2.981-5.062-2.722-10.071-5.545-15.08-8.368a1624.58 1624.58 0 0 0-8.138-4.567 84.208 84.208 0 0 1-1.48-.85m-32.041 74.682-.16.485v.004l-2.445-.562a586.721 586.721 0 0 1-4.89-1.134c-3.087-.733-6.175-1.474-9.262-2.214l-4.627-1.109-3.851-.925c-3.348-.804-6.696-1.608-10.046-2.406l-1.543-.374c-1.953-.476-3.908-.952-5.88-1.33-.649-.126-1.493.088-2.085.428a360.37 360.37 0 0 0-10.471 6.249c-.455.279-.879 1.02-.886 1.555-.036 2.327-.032 4.655-.029 6.982.003 1.917.006 3.834-.013 5.75-.012 1.077.321 1.723 1.291 2.281a9838.243 9838.243 0 0 1 20.819 12.029 9613.324 9613.324 0 0 0 19.921 11.513c4.561 2.625 9.184 5.146 13.829 7.625.596.321 1.646.374 2.223.061a124.319 124.319 0 0 0 8.278-4.905c.516-.336.844-1.318.863-2.013.077-2.968.035-5.94-.03-8.908-.027-1.257.504-1.608 1.657-1.337.962.225 1.923.455 2.884.686 2.974.713 5.949 1.427 8.955 1.973 1.042.187 2.334-.398 3.373-.906 1.104-.542 2.154-1.192 3.204-1.842.519-.321 1.038-.642 1.563-.95 1.035-.607 1.601-1.387 1.578-2.693a244.636 244.636 0 0 1-.016-5.14c.009-2.425.017-4.85-.072-7.271-.026-.69-.394-1.367-.821-2.153-.216-.398-.448-.824-.657-1.293.47.253.914.49 1.339.717.784.418 1.507.803 2.225 1.197.996.545 2.01 1.067 3.024 1.588 2.415 1.241 4.83 2.483 7.007 4.054 2.212 1.597 3.568.837 5.344-.313 1.04-.674 2.119-1.287 3.197-1.9 1.116-.634 2.232-1.269 3.305-1.97.538-.351.962-1.257.997-1.933.08-1.559.052-3.127.025-4.693-.01-.61-.021-1.219-.025-1.828v-2.07l1.74.845a546.11 546.11 0 0 1 3.142 1.531c.149.074.308.14.468.206.395.163.793.327 1.041.615 1.731 2.021 3.269 1.072 4.89.071l.396-.243c4.748-2.87 9.516-5.705 14.284-8.539a5340.06 5340.06 0 0 0 3.189-1.897c3.279-1.949 6.56-3.893 9.841-5.838 2.648-1.569 5.295-3.138 7.941-4.709.875-.516 1.387-1.207 1.322-2.326-.06-1.035-.049-2.074-.036-3.294.006-.568.013-1.176.013-1.84l11.038 6.166 19.656 10.982c-.681.411-1.328.804-1.954 1.183a615.224 615.224 0 0 1-3.864 2.331l-7.306 4.355c-7.613 4.54-15.226 9.079-22.849 13.603-3.987 2.366-7.979 4.72-11.972 7.074-4.363 2.573-8.725 5.145-13.08 7.732a6042.82 6042.82 0 0 0-15.294 9.122c-4.178 2.497-8.356 4.995-12.538 7.484-1.712 1.018-3.42 2.045-5.128 3.072-4.75 2.856-9.502 5.713-14.354 8.388-4.122 2.273-8.343 1.577-12.396-.718a3299.465 3299.465 0 0 0-17.608-9.879 5991.3 5991.3 0 0 1-9.579-5.356c-4.457-2.499-8.911-5.003-13.365-7.507a9536.143 9536.143 0 0 0-18.215-10.225 9217.086 9217.086 0 0 0-18.162-10.125c-5.046-2.808-10.091-5.617-15.133-8.433-3.595-2.007-7.175-4.039-10.756-6.071l-3.837-2.176c-.139-.08-.269-.176-.483-.334-.114-.084-.251-.186-.426-.312.617-.378 1.212-.745 1.792-1.104a224.28 224.28 0 0 1 3.442-2.101 34013.496 34013.496 0 0 1 44.946-26.709 21034.983 21034.983 0 0 0 34.535-20.523l9.853-5.866a384.56 384.56 0 0 0 4.133-2.502c2.999-1.833 5.997-3.666 9.096-5.313 4.431-2.357 8.87-1.712 13.152.813 2.561 1.508 5.164 2.948 7.767 4.386 1.373.76 2.747 1.519 4.113 2.288.274.153.522.348.826.587.151.118.315.247.504.387-.661.192-1.302.373-1.929.55-1.307.37-2.552.722-3.786 1.12-4.989 1.604-9.512 4.037-13.343 7.662-2.949 2.793-4.202 6.147-3.992 10.253.155 3.064.12 6.138.083 9.322a362.884 362.884 0 0 0-.034 4.354c-.451-.247-.888-.484-1.314-.715-.905-.489-1.761-.953-2.605-1.436a2137.84 2137.84 0 0 1-4.166-2.391 980.022 980.022 0 0 0-9.716-5.539c-.443-.252-1.257-.306-1.677-.065a360.848 360.848 0 0 0-10.887 6.456c-.473.294-.917 1.062-.924 1.616-.061 4.351-.042 8.702.03 13.049a3.79 3.79 0 0 0 .673 2.017c2.442 3.437 4.917 6.85 7.391 10.262.774 1.066 1.547 2.132 2.319 3.199m49.725 15.212a31.04 31.04 0 0 0-.527-.245v-2.475c-.002-.872-.009-1.744-.016-2.615-.017-2.152-.035-4.304.02-6.454.03-1.322-.394-2.132-1.566-2.796-5.926-3.354-11.819-6.765-17.712-10.176l-1.228-.711a2694.922 2694.922 0 0 1-5.675-3.297c-3.489-2.03-6.978-4.061-10.484-6.062-.327-.187-.756-.201-1.184-.215a6.29 6.29 0 0 1-.592-.037l-.069.458 8.285 11.393 13.623 18.732c-.63.368-1.249.735-1.862 1.099-1.656.983-3.265 1.937-4.918 2.805-.524.275-1.364.088-2.017-.065-3.408-.79-6.807-1.606-10.207-2.422a4687.64 4687.64 0 0 0-10.874-2.594l-6.87-1.635-2.712-.647c-3.833-.913-7.665-1.827-11.491-2.76-1.094-.268-2.184-.55-3.275-.831-1.568-.405-3.137-.81-4.717-1.175-.219-.052-.494.13-.768.311a3.754 3.754 0 0 1-.374.228c.069.1.13.212.192.324.133.243.266.486.473.604 2.42 1.389 4.848 2.763 7.277 4.138 2.716 1.538 5.432 3.076 8.137 4.633a3134.074 3134.074 0 0 1 15.227 8.841l4.224 2.462c.159.093.302.216.506.394.114.098.248.214.415.351-.573.337-1.137.671-1.696 1.001-2.115 1.251-4.142 2.45-6.2 3.598-.298.165-.917-.03-1.284-.24a3200.469 3200.469 0 0 1-16.208-9.287c-7.452-4.293-14.895-8.593-22.339-12.893l-3.438-1.986-2.28-1.316a3892.055 3892.055 0 0 1-8.134-4.704c-.28-.163-.545-.355-.874-.593a42.717 42.717 0 0 0-.638-.454l1.741-1.063a445.231 445.231 0 0 1 3.652-2.218c.313-.188.624-.38.935-.572.994-.613 1.99-1.229 3.046-1.709.848-.385 1.94-.718 2.8-.523 3.864.877 7.711 1.821 11.557 2.764 2.067.507 4.133 1.014 6.202 1.511 3.116.747 6.236 1.48 9.356 2.214 2.857.671 5.715 1.343 8.571 2.026 3.987.954 7.969 1.921 11.951 2.889 1.935.47 3.869.94 5.805 1.408l.634.157a33.49 33.49 0 0 0 2.15.485c.314.054.913-.038.952-.179.091-.333.038-.822-.161-1.097a2783.605 2783.605 0 0 0-6.902-9.449c-1.655-2.261-3.311-4.521-4.963-6.786a3056.277 3056.277 0 0 1-4.965-6.841 2295.218 2295.218 0 0 0-6.288-8.653c-.627-.855-.703-1.405.336-2.005 1.176-.68 2.338-1.384 3.5-2.087 1.73-1.047 3.459-2.094 5.232-3.063.657-.359 1.857-.366 2.506 0 4.002 2.263 7.971 4.584 11.94 6.905 2.002 1.171 4.004 2.342 6.01 3.505 4.44 2.574 8.888 5.132 13.337 7.689l4.636 2.667 4.155 2.385c4.341 2.49 8.683 4.98 12.99 7.532.588.347 1.119 1.31 1.142 2.001.122 3.759.122 7.526.034 11.288-.015.642-.508 1.506-1.046 1.861-1.674 1.109-3.401 2.133-5.129 3.158-.623.37-1.245.739-1.866 1.113m-10.029-52.518c.181.139.378.29.601.459h.012l-1.695.998a772.318 772.318 0 0 1-7.084 4.143c-.221.13-.664.103-.893-.034-3.27-1.983-6.388-4.087-7.873-7.904-1.307-3.346-.321-6.135 1.822-8.663 3.044-3.599 7.055-5.864 11.326-7.629 5.761-2.384 11.792-3.472 18.027-2.922 5.5.485 10.623 2.112 15.215 5.348 5.355 3.77 5.691 9.363 3.121 14.615-.874 1.782-1.799 3.538-2.723 5.294-1.066 2.023-2.132 4.047-3.118 6.109-1.162 2.429-.577 4.836 1.096 6.433.76.725 1.406.848 2.357.271 3.496-2.119 7.011-4.204 10.526-6.289 1.524-.904 3.048-1.808 4.571-2.715 1.181-.704 2.36-1.41 3.539-2.116 2.673-1.6 5.344-3.2 8.031-4.771.405-.241 1.12-.375 1.49-.176 1.779.953 3.529 1.966 5.41 3.054.651.377 1.319.763 2.009 1.159l-1.671 1.013a780.174 780.174 0 0 1-5.201 3.136c-5.454 3.245-10.908 6.486-16.363 9.727l-11.799 7.012c-.072.044-.146.086-.219.128-.204.117-.408.233-.59.376-1.219.967-2.342.959-3.694.062-1.073-.712-2.205-1.334-3.337-1.956-2.325-1.277-4.649-2.554-6.458-4.611-2.487-2.827-3.258-6.204-2.07-9.611.838-2.413 2.04-4.699 3.242-6.983.495-.942.991-1.884 1.46-2.835.232-.467.482-.926.732-1.384.333-.609.665-1.218.953-1.847 1.673-3.66.787-6.804-2.636-8.874-6.41-3.885-12.915-3.66-19.241.099-4.959 2.945-4.81 7.613.152 11.155.305.22.605.448.973.729m14.479-22.9a3.947 3.947 0 0 1-.038.156v.004c-.759 0-1.521.023-2.284.046-1.812.055-3.624.11-5.39-.146-1.097-.156-2.131-.802-3.158-1.443-.4-.25-.799-.5-1.201-.719-1.456-.796-2.901-1.618-4.346-2.44-3.053-1.737-6.106-3.474-9.272-4.97-3.939-1.865-8.144-1.536-11.922.672-9.312 5.446-18.58 10.969-27.849 16.493l-7.146 4.257c-5.2 3.096-10.394 6.199-15.589 9.301-6.266 3.743-12.532 7.486-18.807 11.216-7.463 4.436-14.934 8.857-22.404 13.279-4.065 2.405-8.13 4.811-12.193 7.219-.328.195-.65.399-.973.603-.706.446-1.411.891-2.164 1.235-.557.256-1.524.424-1.902.122-.848-.672-1.337-1.757-.653-2.827.474-.733 1.108-1.467 1.845-1.91 5.884-3.537 11.789-7.039 17.694-10.541l5.031-2.985c4.15-2.465 8.301-4.929 12.451-7.392l12.463-7.399 4.501-2.675c7.395-4.394 14.789-8.788 22.182-13.186l5.03-2.995c8.798-5.24 17.597-10.479 26.385-15.734 3.026-1.811 6.055-3.439 9.787-3.114 2.635.232 4.819 1.459 7.01 2.69.195.11.389.22.584.328 6.064 3.38 12.111 6.78 18.16 10.183l3.393 1.907c.196.11.372.253.547.397.088.071.176.143.267.21-.014.052-.026.105-.039.158m-108.948 59.849c.042-.117.091-.25.14-.41l.003-.004 1.804 1.012c1.378.772 2.717 1.522 4.045 2.288 4.372 2.524 8.742 5.053 13.112 7.583a6966.29 6966.29 0 0 0 17.706 10.229c5.597 3.223 11.194 6.446 16.767 9.711.577.336 1.196 1.177 1.215 1.803.092 2.878.081 5.76.069 8.642-.003.832-.007 1.665-.008 2.497 0 .121-.032.24-.082.425-.03.113-.068.252-.109.431l-2.143-1.214a704.43 704.43 0 0 1-4.943-2.816c-9.095-5.249-18.191-10.497-27.278-15.761a2516.302 2516.302 0 0 1-19.28-11.25c-.504-.298-1.077-.99-1.092-1.513-.083-3.094-.073-6.189-.063-9.283l.005-1.856c0-.154.056-.308.132-.514M394.43 122.76c.171-.08.373-.174.621-.295l-.004.004.002 2.878c.005 3.323.009 6.492-.044 9.659-.008.371-.55.844-.951 1.085a5885.11 5885.11 0 0 1-14.948 8.903c-2.493 1.482-4.987 2.964-7.48 4.448a5669.806 5669.806 0 0 0-7.478 4.465c-1.897 1.134-3.794 2.268-5.693 3.4a3.76 3.76 0 0 1-.429.202c-.103.044-.225.097-.377.165a13.276 13.276 0 0 0-.112-.567c-.074-.347-.14-.66-.14-.972-.011-1.32-.011-2.64-.012-3.96 0-2.019-.001-4.038-.038-6.056-.019-1.047.413-1.662 1.265-2.166 4.948-2.933 9.891-5.872 14.835-8.811l8.161-4.85c4.038-2.399 8.079-4.794 12.125-7.181.192-.115.397-.211.697-.351m-80.585 59.822c-.016.213-.032.443-.046.697l-2.702-.619-5.645-1.294-.774-.177a94.973 94.973 0 0 1-2.316-.545c-.108-.028-.216-.054-.324-.08-1.067-.256-2.111-.506-2.167-2.063-.015-.39-.737-.837-1.218-1.116-7.049-4.083-14.105-8.158-21.161-12.232-3.043-1.757-6.086-3.513-9.128-5.271-.309-.18-.577-.432-.775-.932l1.755.403c1.266.29 2.53.58 3.795.88 6.234 1.479 12.465 2.957 18.695 4.451 2.153.516 4.303 1.039 6.453 1.561 2.428.591 4.856 1.181 7.288 1.762 2.215.527 4.435 1.043 6.662 1.509 1.13.237 1.719.684 1.681 2.009-.067 2.332-.052 4.666-.037 7 .007 1.008.014 2.016.014 3.024 0 .329-.024.656-.05 1.033m22.996-16.726c.006 1.125.012 2.276.012 3.465l-8.832-5.061c-.636-.365-1.265-.742-1.895-1.119-1.409-.844-2.817-1.688-4.293-2.388-2.594-1.229-4.122-3.412-5.649-5.593a68.378 68.378 0 0 0-1.01-1.417 1304.158 1304.158 0 0 1-8.482-11.663l-2.855-3.953c-.195-.271-.325-.592-.249-1.169l1.73.973c1.267.71 2.534 1.421 3.794 2.148 2.839 1.638 5.677 3.278 8.516 4.918 5.887 3.402 11.774 6.805 17.674 10.186 1.115.642 1.631 1.376 1.589 2.743-.079 2.587-.065 5.178-.05 7.93m4.435-20.11c0-1.402.015-2.759.029-4.086.032-2.902.062-5.658-.067-8.407-.214-4.561.371-8.847 2.945-12.728.478-.722.279-1.288-.58-1.601-3.637-1.333-7.3-1.582-11.055-.485-1.15.336-1.456.962-1.433 2.07.023 1.229.014 2.459.005 3.688-.013 1.845-.026 3.688.068 5.526.088 1.738-.546 2.705-2.036 3.453-1.04.524-2.026 1.152-3.12 1.849-.501.319-1.025.653-1.587.997l6.866 3.967zm4.447-40.326c1.814 1.032 3.132 2.499 3.365 5.402h-.003c-.139.312-.29.668-.455 1.054-.429 1.011-.946 2.228-1.551 3.4-1.479 2.86-1.544 2.841-4.438 2.003l-.39-.112c-3.205-.925-6.494-.753-9.764-.092-.379.076-.846-.152-1.257-.351l-.134-.065c-.231-.11-.435-.278-.639-.447a5.484 5.484 0 0 0-.354-.279 33.046 33.046 0 0 0-.804-.537c-.524-.344-1.048-.687-1.53-1.083-3.705-3.052-3.553-6.379.581-8.713 5.703-3.22 11.563-3.48 17.373-.18m-65.654 22.021.244-.06v-.003l10.871 14.969 10.712 14.75-.125.2-.123.197c-.846-.208-1.693-.412-2.54-.617-2.511-.608-5.023-1.216-7.514-1.908-.472-.132-.861-.685-1.211-1.18-.064-.091-.126-.18-.188-.263-.513-.701-1.028-1.4-1.542-2.1-2.672-3.633-5.343-7.267-7.931-10.957-.592-.841-.936-2.01-.99-3.049-.107-2.09-.089-4.188-.07-6.283.005-.661.011-1.322.013-1.983 0-.383.046-.767.092-1.151.021-.168.041-.336.057-.503zm116.166-4.176c0 .373.009.713.017 1.031.018.649.033 1.205-.036 1.752-.176 1.41.393 2.288 1.627 2.926 1.353.704 2.683 1.455 4.012 2.205.555.313 1.109.626 1.665.935l4.714 2.631c6.079 3.392 12.157 6.784 18.251 10.147.623.344 1.704.715 2.094.424.546-.405.985-1.486.848-2.146-.18-.86-.814-1.819-1.54-2.331-1.153-.816-2.407-1.496-3.66-2.176-.422-.229-.845-.458-1.264-.693a17302.14 17302.14 0 0 0-25.032-13.988c-.285-.158-.591-.278-.987-.433a29.94 29.94 0 0 1-.709-.284m-53.725 12.311c0 .683.017 1.367.034 2.052.037 1.534.075 3.069-.076 4.583-.313 3.132.6 5.306 3.74 6.379 1.364.466 2.002 1.528 1.857 3.09-.062.654.156 1.685.611 1.979 1.665 1.077 3.398 2.05 5.214 3.071.659.37 1.328.746 2.009 1.135.019-.279.038-.518.055-.729.032-.393.056-.693.056-.994 0-.984-.007-1.969-.014-2.953-.017-2.297-.034-4.593.041-6.887.042-1.276-.512-1.922-1.494-2.483-.864-.494-1.745-.964-2.628-1.436-3.385-1.809-6.796-3.631-9.405-6.807m29.542-11.84-8.333 4.956c.195-5.645.386-11.106.596-17.064l3.576 1.986 10.951 6.085a11299.7 11299.7 0 0 1-6.79 4.037m-42.22-5.671-2.062 1.249a487.735 487.735 0 0 0-6.656 4.072c-.282.175-.477.703-.485 1.069-.034 2.804-.068 5.608.008 8.412.042 1.494 2.154 2.64 3.427 1.918l.594-.335c1.456-.818 2.916-1.639 4.261-2.611.561-.405 1.016-1.333 1.039-2.04.081-2.554.062-5.111.043-7.668l-.013-2.011c0-.323-.03-.647-.074-1.12a74.772 74.772 0 0 1-.082-.935m-33.469 62.92c.743-.442 1.511-.897 2.309-1.377v.008l.001 2.44c.001 3.532.002 6.803-.02 10.074-.004.325-.161.806-.405.955-1.998 1.222-4.018 2.41-6.179 3.681l-1.652.972a27.224 27.224 0 0 0-.104-.715c-.064-.411-.114-.734-.114-1.057l-.008-1.096c-.021-2.916-.043-5.828.008-8.741.012-.611.233-1.49.669-1.776 1.741-1.141 3.535-2.205 5.495-3.368m67.532-76.019 20.425 11.41h-.004c-.447.278-.849.537-1.221.777-.857.551-1.56 1.004-2.308 1.366-.436.214-1.181.199-1.609-.034-4.576-2.495-9.141-5.02-13.641-7.648-.645-.378-1.108-1.306-1.352-2.078-.344-1.089-.401-2.262-.29-3.793m-42.353 61.351.26.158v4.875c0 .465-.016.933-.033 1.402-.038 1.077-.076 2.155.087 3.201.397 2.54-.738 3.927-2.915 4.886-.807.356-1.565.822-2.359 1.31a48.35 48.35 0 0 1-1.148.691c-.049-.165-.102-.308-.149-.436-.085-.231-.153-.415-.153-.599a811.065 811.065 0 0 1-.023-10.807c.004-.439.149-1.081.455-1.283 1.43-.949 2.895-1.839 4.361-2.73.453-.275.906-.55 1.358-.827.086.054.173.106.259.159m-2.106-35.072c.016.599.032 1.233.032 1.916-.771-.455-1.508-.887-2.22-1.305-1.87-1.098-3.566-2.093-5.24-3.122-.363-.222-.772-.738-.78-1.123-.044-2.726-.04-5.454-.036-8.283l.002-2.482.061.057c1.569 1.459 2.979 2.771 4.393 4.084.061.056.118.118.176.181.127.139.254.278.412.338 2.999 1.142 3.606 3.438 3.266 6.349-.126 1.069-.098 2.156-.066 3.39m42.948-15.512c.115-.08.265-.184.456-.335-.086 1.437-.046 2.858-.007 4.257.093 3.283.182 6.445-1.379 9.407-.6 1.139-1.911 1.975-3.093 2.728l-.269.172c-.71.45-2.154-1.143-2.04-2.487.122-1.398.394-2.877 1.001-4.122 1.148-2.353 2.418-4.647 3.689-6.942.441-.797.883-1.594 1.319-2.394.051-.094.148-.162.323-.284" clip-rule="evenodd"/>
</svg>
