<svg xmlns="http://www.w3.org/2000/svg" width="550" height="550" fill="none" viewBox="0 0 550 550">
    <path fill="#fff" fill-rule="evenodd" d="M399.355 239.368c.611.342 1.194.671 1.759.99 1.247.704 2.407 1.358 3.577 1.994 9.291 5.051 18.581 10.103 27.88 15.139 3.078 1.667 6.16 3.328 9.241 4.989l.003.002a2634.892 2634.892 0 0 1 17.952 9.734l.16.088h.001c4.9 2.69 9.812 5.387 14.521 8.394 3.386 2.162 6.003 5.241 7.262 9.16.592 1.839 1.01 3.832 1.006 5.75-.019 11.241-.093 22.484-.167 33.727v.019c-.036 5.439-.072 10.879-.101 16.318-.01 1.615-.022 3.231-.035 4.847v.002c-.046 6.037-.093 12.076.035 18.112.118 5.735-2.195 10.262-6.572 13.565-3.818 2.88-7.933 5.385-12.032 7.88h-.001l-1.097.668c-6.534 3.982-13.104 7.901-19.674 11.819a5873.85 5873.85 0 0 0-6.84 4.083c-6.049 3.617-12.104 7.233-18.157 10.848l-4.978 2.973a23509.725 23509.725 0 0 0-35.373 21.166l-.016.009c-4.705 2.82-9.41 5.64-14.118 8.456-5.44 3.255-10.883 6.504-16.327 9.754l-10.088 6.025c-2.656 1.587-5.309 3.18-7.962 4.773l-.005.003c-6.18 3.711-12.36 7.422-18.582 11.058-3.134 1.831-6.426 3.426-9.749 4.894-4.953 2.19-10.273 3.094-15.609 3.52-10.62.853-21.043-.256-30.823-4.755-3.43-1.581-6.741-3.415-10.054-5.25-1.643-.91-3.286-1.82-4.944-2.699a344.777 344.777 0 0 0-3.192-1.664l-.001-.001-.002-.001c-1.79-.925-3.58-1.85-5.341-2.829-.466-.261-.774-1.007-.92-1.587-.114-.458-.033-.979.044-1.479l.039-.257c.209-1.48-.481-2.325-1.756-3.004a10620.804 10620.804 0 0 1-36.475-19.465 4818.78 4818.78 0 0 1-13.992-7.539l-.022-.012-.015-.008c-4.525-2.444-9.05-4.889-13.582-7.32-4.609-2.473-9.223-4.934-13.837-7.396l-.029-.015c-4.602-2.455-9.203-4.91-13.8-7.377a6401.523 6401.523 0 0 1-9.635-5.181c-5.951-3.204-11.902-6.408-17.87-9.579-.513-.273-1.369-.15-1.973.055-.362.122-.686.355-1.011.59-.285.204-.57.41-.883.543-.427.177-1.09.244-1.469.035a3710.846 3710.846 0 0 1-23.865-13.146c-4.835-2.688-9.223-5.928-11.307-11.284a19.19 19.19 0 0 1-1.267-6.812c-.023-19.29.043-38.584.11-57.875v-.001l.036-10.847v-1.2c-.002-1.762-.005-3.526.166-5.272.5-5.159 3.39-9.019 7.396-11.919 3.175-2.301 6.552-4.326 9.924-6.348l.002-.001a910.78 910.78 0 0 0 2.115-1.272c7.708-4.671 15.443-9.295 23.177-13.918l1.971-1.178c4.496-2.689 8.995-5.368 13.494-8.047l.01-.006.028-.016c3.163-1.883 6.327-3.767 9.489-5.654 5.451-3.254 10.899-6.515 16.347-9.776l.019-.011c3.347-2.003 6.693-4.006 10.041-6.008l1.954-1.167c4.428-2.647 8.858-5.294 13.296-7.926 1.709-1.014 1.768-1.393.051-2.36-2.714-1.53-5.436-3.049-8.158-4.567-3.834-2.14-7.669-4.28-11.484-6.452-1.216-.691-2.313-1.634-3.347-2.589-1.215-1.125-1.728-2.585-1.701-4.282.107-6.271.178-12.542.225-18.814a44.966 44.966 0 0 0-.077-2.541c-.07-1.44-.14-2.877.022-4.29.269-2.312.242-4.587.216-6.889l-.007-.605-.004-.392c-.031-3.816.089-7.634.209-11.453.137-4.36.274-8.72.186-13.075-.087-4.18 1.642-6.67 4.945-8.596 5.984-3.487 11.963-6.982 17.942-10.476l.007-.004a15351.3 15351.3 0 0 1 19.576-11.428c5.878-3.423 11.761-6.839 17.645-10.254h.001c6.963-4.042 13.927-8.084 20.881-12.14 6.426-3.749 12.843-7.51 19.26-11.272l.005-.003c6.943-4.07 13.887-8.14 20.841-12.195 1.108-.647 2.215-1.296 3.323-1.946 4.822-2.829 9.646-5.66 14.599-8.237 4.239-2.206 8.951-2.056 13.569-1.211 3.506.642 6.499 2.426 9.487 4.208a97.1 97.1 0 0 0 2.783 1.617c5.244 2.894 10.465 5.83 15.686 8.765l.012.007c2.471 1.39 4.943 2.78 7.417 4.165 8.22 4.607 16.444 9.21 24.667 13.814l.008.004.091.05 9.299 5.209.083.046a28174.842 28174.842 0 0 1 24.86 13.932c4.543 2.548 9.085 5.096 13.631 7.639 3.042 1.704 6.086 3.404 9.13 5.104 4.665 2.606 9.33 5.212 13.989 7.829l1.756.986.032.018c3.83 2.15 7.661 4.3 11.442 6.531 2.604 1.539 3.828 3.824 3.725 6.993-.244 7.7-.343 15.408-.367 23.116-.002.456.018.911.037 1.365.065 1.549.129 3.079-.641 4.547-.086.169-.106.462-.019.623.834 1.533.66 3.115.486 4.695-.067.616-.135 1.232-.143 1.845-.032 2.356-.073 4.711-.114 7.067-.089 5.138-.178 10.277-.178 15.413 0 2.834-1.283 4.799-3.52 6.129-5.728 3.41-11.487 6.768-17.246 10.126l-.008.005-.024.014c-2.449 1.428-4.898 2.856-7.346 4.288-8.075 4.724-16.146 9.457-24.216 14.189-.161.094-.305.219-.528.413h-.001c-.132.115-.293.255-.502.427zm82.202 61.984.071.041v1.733c-.014 6.18-.045 12.359-.076 18.537l-.001.032c-.076 15.181-.153 30.361.029 45.537.095 7.771-3.378 12.965-9.511 16.746-7.345 4.527-14.758 8.941-22.172 13.356-3.354 1.997-6.709 3.994-10.057 6.002-4.188 2.512-8.374 5.028-12.56 7.543l-.1.06-.023.014a10323.5 10323.5 0 0 1-19.959 11.975c-5.588 3.34-11.182 6.669-16.776 9.998l-.032.02-.005.003a8249.978 8249.978 0 0 0-17.788 10.604c-6.649 3.977-13.29 7.968-19.931 11.96l-.032.019c-5.857 3.521-11.714 7.041-17.578 10.552a8048.472 8048.472 0 0 0-6.292 3.774c-7.514 4.512-15.029 9.023-22.613 13.414-4.85 2.81-10.234 4.247-15.759 5.221-5.545.979-11.11 1.137-16.683.723-9.022-.675-17.416-3.371-25.254-7.941-4.256-2.484-8.621-4.783-12.982-7.08h-.001l-2.216-1.169c-1.373-.726-1.961-1.598-1.942-3.22.067-5.541.104-11.083.141-16.625v-.006c.046-6.998.093-13.997.199-20.993.031-2.079-.75-3.11-2.459-4.033-5.338-2.882-10.652-5.807-15.966-8.731l-.005-.003-.021-.012c-3.242-1.784-6.484-3.569-9.732-5.344-2.707-1.479-5.421-2.943-8.135-4.409l-.003-.001c-3.42-1.846-6.84-3.692-10.246-5.567-3.904-2.148-7.796-4.316-11.688-6.483l-.016-.009-.013-.008c-3.893-2.168-7.786-4.336-11.691-6.484-4.332-2.386-8.678-4.749-13.024-7.113l-.012-.006c-3.63-1.975-7.261-3.949-10.884-5.937a957.48 957.48 0 0 1-7.342-4.084 1012.581 1012.581 0 0 0-7.072-3.936 2945.373 2945.373 0 0 0-17.827-9.696c-1.105-.596-1.499-.265-1.515 1.199-.039 3.566-.074 7.131-.11 10.696v.003c-.044 4.459-.088 8.919-.139 13.38-.044 4.078-.108 8.158-.173 12.239l-.048 3.066a12.28 12.28 0 0 1-.057.918c-.015.182-.032.384-.049.617-.545-.279-1.074-.546-1.592-.807l-.002-.001a104.554 104.554 0 0 1-2.977-1.54l-1.811-.985a2344.591 2344.591 0 0 1-16.975-9.288c-4.467-2.479-8.509-5.506-10.537-10.388-.794-1.91-1.275-4.1-1.28-6.164-.038-18.1.008-36.202.054-54.303l.03-11.875c0-.346.044-.689.08-.982.017-.129.032-.247.042-.352a65.503 65.503 0 0 1 1.915 2.128c1.376 1.576 2.738 3.135 4.368 4.329 3.382 2.475 7.091 4.533 10.774 6.575l.312.173c4.908 2.727 9.851 5.392 14.794 8.056l.003.002c2.418 1.303 4.836 2.606 7.249 3.917 4.257 2.31 8.51 4.624 12.764 6.938 4.253 2.314 8.507 4.627 12.763 6.938 7.353 3.99 14.706 7.972 22.058 11.955l5.107 2.765.007.004c6.907 3.741 13.813 7.482 20.713 11.229 3.555 1.932 7.105 3.87 10.655 5.807 4.394 2.398 8.787 4.796 13.187 7.182 3.978 2.157 7.962 4.305 11.945 6.453 3.983 2.148 7.966 4.296 11.944 6.452 3.878 2.104 7.75 4.219 11.621 6.333 3.421 1.869 6.842 3.737 10.268 5.598 5.987 3.252 12.392 5.186 19.125 6.125a67.466 67.466 0 0 0 19.228-.071c7.203-1.053 13.995-3.283 20.266-7.096 6.601-4.011 13.236-7.962 19.871-11.914 3.275-1.95 6.549-3.9 9.82-5.858 4.929-2.95 9.855-5.904 14.78-8.858 4.92-2.95 9.839-5.9 14.761-8.846 4.639-2.775 9.28-5.545 13.92-8.314 3.63-2.167 7.26-4.333 10.889-6.502 8.765-5.237 17.531-10.482 26.292-15.728l7.291-4.363a8400.148 8400.148 0 0 0 19.121-11.463l3.849-2.316.003-.002c8.008-4.817 16.016-9.634 23.968-14.542a18.8 18.8 0 0 0 6.61-6.942c.099-.178.233-.336.366-.494.065-.077.13-.154.191-.232l.19.111zm-116.905-41.631c.282.166.517.308.724.432.36.217.635.382.918.535 2.293 1.241 4.586 2.48 6.88 3.72l.017.009c3.786 2.046 7.573 4.093 11.357 6.146 3.12 1.693 6.237 3.391 9.355 5.09 3.748 2.042 7.497 4.084 11.25 6.118l.771.416c2.824 1.519 5.653 3.04 7.805 5.5 2.277 2.605 3.777 5.561 3.016 9.156-.829 3.919-3.304 6.725-6.595 8.782-3.917 2.449-7.883 4.823-11.848 7.196-1.069.64-2.137 1.279-3.205 1.92a10738.79 10738.79 0 0 1-26.135 15.657c-4.759 2.841-9.524 5.674-14.288 8.507l-.024.014a8987.418 8987.418 0 0 0-14.313 8.521c-3.393 2.024-6.776 4.063-10.16 6.102l-.007.004a4168.856 4168.856 0 0 1-6.148 3.701 1491.27 1491.27 0 0 1-6.772 4.036c-5.016 2.979-10.032 5.957-14.971 9.059-6.681 4.195-13.699 7.096-21.706 7.333-7.266.213-14.327-.521-20.862-3.962-2.831-1.489-5.634-3.028-8.437-4.567a772.126 772.126 0 0 0-5.649-3.082 7398.228 7398.228 0 0 0-12.121-6.517 4935.268 4935.268 0 0 1-17.096-9.207c-5.827-3.154-11.643-6.33-17.46-9.505l-.01-.006c-3.932-2.146-7.864-4.293-11.799-6.433-9.243-5.028-18.49-10.048-27.738-15.068l-.011-.006-.012-.006a6503.092 6503.092 0 0 0-9.375-5.075l-.033-.018c-2.353-1.273-4.706-2.545-7.057-3.819-2.798-1.515-5.49-3.189-7.384-5.833-1.784-2.49-2.937-5.229-2.195-8.339.908-3.813 3.391-6.591 6.611-8.604 4.394-2.747 8.851-5.4 13.306-8.051v-.001l.007-.004c1.437-.855 2.874-1.71 4.309-2.569 7.169-4.288 14.344-8.57 21.52-12.852l.015-.009 5.121-3.055 8.228-4.912.041-.024c4.998-2.982 9.995-5.964 14.988-8.953 1.5-.899 2.987-1.817 4.574-2.797.685-.423 1.388-.858 2.12-1.307l-2.2-1.227c-1.028-.573-1.985-1.105-2.939-1.643l-2.466-1.385c-8.499-4.775-16.995-9.548-25.488-14.334-1.022-.576-1.973-.608-2.987.016-1.445.884-2.9 1.751-4.356 2.617-.727.433-1.454.866-2.18 1.302l-12.099 7.249c-6.45 3.864-12.9 7.729-19.352 11.592-9.851 5.9-19.702 11.797-29.553 17.693-3.017 1.805-6.035 3.608-9.053 5.411l-.04.024c-6.323 3.778-12.646 7.556-18.96 11.346l-.542.325-.012.008c-3.436 2.056-6.87 4.111-9.58 7.186-3.742 4.238-4.812 9.045-2.977 14.33 1.307 3.761 3.998 6.674 7.337 8.706 4.851 2.949 9.836 5.68 14.819 8.41l.006.003 2.012 1.103c5.35 2.937 10.719 5.838 16.088 8.74l.011.006a5008.225 5008.225 0 0 1 17.901 9.709l.026.014c3.945 2.145 7.89 4.291 11.838 6.43 3.672 1.991 7.348 3.977 11.023 5.962 3.675 1.985 7.351 3.97 11.023 5.961 4.625 2.507 9.246 5.018 13.867 7.53l.031.017c3.358 1.825 6.715 3.65 10.074 5.473l8.624 4.684.087.047c4.437 2.411 8.876 4.822 13.316 7.232 3.387 1.838 6.774 3.674 10.162 5.511 3.399 1.842 6.797 3.683 10.194 5.527 1.939 1.053 3.882 2.099 5.825 3.144 4.809 2.587 9.618 5.174 14.363 7.876 6.985 3.974 14.306 6.934 22.322 7.861 7.096.817 14.176.805 21.257-.548 4.728-.904 9.373-2.088 13.549-4.389 5.485-3.021 10.854-6.252 16.223-9.482 1.611-.97 3.222-1.939 4.836-2.903 5.684-3.396 11.36-6.808 17.035-10.22l.036-.022c4.191-2.52 8.382-5.04 12.576-7.553 5.453-3.266 10.913-6.524 16.372-9.781l.011-.006c4.98-2.972 9.96-5.943 14.934-8.92 4.615-2.765 9.227-5.536 13.838-8.307l.027-.017c4.623-2.778 9.246-5.556 13.872-8.327a9161.707 9161.707 0 0 1 15.82-9.448l.027-.016c3.118-1.86 6.236-3.719 9.353-5.581 9.313-5.563 18.627-11.13 27.941-16.697l.108-.065.231-.138c3.503-2.092 7.01-4.187 9.651-7.408 3.544-4.321 4.602-9.085 2.491-14.373-1.488-3.73-4.2-6.52-7.527-8.553-4.853-2.964-9.857-5.69-14.855-8.413l-.197-.108a4366.671 4366.671 0 0 0-17.18-9.295l-.008-.004a5457.618 5457.618 0 0 1-13.679-7.391c-7.65-4.151-15.286-8.334-22.923-12.516l-2.222-1.217-2.028-1.111c-1.097-.599-2.096-.481-3.145.131-5.212 3.047-10.425 6.086-15.639 9.126h-.001l-.058.034c-4.046 2.358-8.092 4.717-12.138 7.08-.901.527-1.787 1.078-2.761 1.682-.477.296-.975.605-1.506.931zm-63.62-201.023c-4.278-.115-7.814.75-11.086 2.77-1.879 1.16-3.796 2.257-5.714 3.353a418.7 418.7 0 0 0-2.653 1.525l-6.113 3.552-.103.06c-7.492 4.351-14.983 8.702-22.464 13.07-4.882 2.851-9.757 5.712-14.632 8.572a8046.382 8046.382 0 0 1-13.994 8.198 8020.294 8020.294 0 0 1-15.51 9.033l-.006.004-.01.005c-3.376 1.963-6.753 3.926-10.127 5.892l-4.86 2.832-.015.008-.006.004c-6.922 4.032-13.845 8.065-20.76 12.11l-1.33.778c-4.901 2.866-9.801 5.731-14.658 8.667-1.978 1.195-3.201 2.928-2.763 5.43.339 1.95 1.658 3.205 3.224 4.121 3.59 2.092 7.218 4.121 10.845 6.15l2.685 1.502a24707.7 24707.7 0 0 0 16.721 9.368l.112.063 6.416 3.593 11.397 6.386 11.431 6.405c5.047 2.826 10.096 5.651 15.145 8.475l.224.126c3.183 1.78 6.367 3.561 9.55 5.343 8.257 4.621 16.513 9.247 24.77 13.872 2.306 1.293 4.61 2.589 6.915 3.885a2156.917 2156.917 0 0 0 16.2 9.053c.818.451 1.627.924 2.435 1.397 3.152 1.846 6.307 3.693 10.076 4.231 4.704.666 9.227.307 13.435-2.017 2.505-1.382 4.973-2.837 7.439-4.29l.002-.001c.949-.559 1.897-1.118 2.847-1.673l3.745-2.181c6.792-3.958 13.585-7.916 20.374-11.881 3.408-1.989 6.815-3.98 10.223-5.971l.033-.019a19104.292 19104.292 0 0 1 32.441-18.922l9.781-5.698.033-.019.033-.019c8.977-5.233 17.953-10.465 26.926-15.701 1.86-1.085 3.722-2.167 5.585-3.248l.016-.01h.001c4.716-2.738 9.433-5.477 14.111-8.278 4.065-2.435 4.314-6.611.683-9.322a15.54 15.54 0 0 0-1.741-1.109c-1.565-.877-3.133-1.748-4.701-2.619l-.014-.007c-2.036-1.132-4.071-2.263-6.102-3.405-3.636-2.042-7.268-4.088-10.901-6.134l-.022-.012a7731.01 7731.01 0 0 0-15.646-8.796 8330.55 8330.55 0 0 0-14.902-8.321c-4.97-2.771-9.94-5.542-14.903-8.322-5.958-3.34-11.91-6.689-17.862-10.038-5.163-2.905-10.326-5.81-15.492-8.709a7393.402 7393.402 0 0 0-12.019-6.722c-7.173-4.007-14.347-8.014-21.5-12.06-4.29-2.427-8.56-4.748-13.249-4.325l.004-.005Zm-146.94 89.717c.012-.106.022-.203.029-.285 2.001 1.135 3.991 2.266 5.973 3.393 4.537 2.578 9.034 5.134 13.54 7.672 8.896 5.013 17.807 10.001 26.719 14.99 3.501 1.959 7.005 3.914 10.509 5.869 4.167 2.324 8.334 4.649 12.496 6.981 4.068 2.281 8.131 4.568 12.194 6.855l.016.009.004.002c4.783 2.692 9.565 5.384 14.355 8.064 5.442 3.046 10.89 6.082 16.338 9.119l.013.007c3.93 2.19 7.86 4.38 11.789 6.574 1.939 1.084 3.874 2.174 5.809 3.264l.008.005h.001c3.918 2.208 7.836 4.414 11.784 6.566 4.866 2.653 10.06 3.071 15.451 2.021 3.454-.672 6.356-2.451 9.254-4.227.794-.487 1.588-.973 2.392-1.436a3743.668 3743.668 0 0 0 20.248-11.787l.009-.006c2.847-1.665 5.693-3.33 8.542-4.993a87420.66 87420.66 0 0 1 20.898-12.186l.213-.124 7.404-4.317c3.441-2.006 6.883-4.01 10.326-6.015 6.249-3.641 12.5-7.281 18.745-10.928 7.643-4.463 15.281-8.933 22.918-13.403l.056-.033 5.521-3.231 1.084-.633 1.994-1.163c3.042-1.775 6.085-3.55 9.113-5.347.595-.352 1.15-.773 1.766-1.24h.001l.001-.001c.296-.224.605-.458.94-.701.014.26.03.49.045.701v.001c.027.389.051.715.045 1.043-.036 2.875-.075 5.751-.115 8.627-.055 4.033-.111 8.065-.157 12.097-.027 2.604-1.156 4.589-3.351 5.923a844.946 844.946 0 0 1-11.721 6.978 12838.069 12838.069 0 0 1-26.98 15.747c-4.006 2.335-8.013 4.665-12.02 6.996l-.041.024c-4.02 2.338-8.041 4.676-12.061 7.019-3.143 1.834-6.286 3.671-9.428 5.508l-.078.046-.015.008a7678.216 7678.216 0 0 1-15.923 9.293c-3.773 2.196-7.554 4.382-11.335 6.568h-.002l-.009.006c-3.622 2.094-7.245 4.188-10.862 6.292a3312.872 3312.872 0 0 0-8.358 4.885c-4.504 2.638-9.007 5.276-13.534 7.879-7.333 4.215-14.689 4.037-22.034-.056-2.367-1.318-4.743-2.619-7.119-3.921a1072.995 1072.995 0 0 1-7.586-4.181 2079.484 2079.484 0 0 1-10.486-5.9l-.003-.001-.013-.008c-2.296-1.297-4.592-2.595-6.891-3.887-2.872-1.614-5.747-3.22-8.623-4.827-2.702-1.509-5.404-3.018-8.103-4.534a8899.513 8899.513 0 0 1-10.973-6.175l-.012-.006c-3.333-1.877-6.665-3.754-10-5.628a10408.23 10408.23 0 0 0-13.07-7.326l-.041-.023c-3.327-1.863-6.655-3.726-9.981-5.592-5.941-3.33-11.881-6.664-17.82-9.997l-.049-.028-7.01-3.934-5.511-3.095-.003-.002c-4.563-2.565-9.128-5.13-13.703-7.674-2.715-1.511-4.017-3.717-3.939-6.867.118-4.585.183-9.172.248-13.758v-.001c.031-2.215.063-4.43.1-6.645.005-.324.041-.647.069-.91m-.602 34.102c.014-.154.026-.299.035-.431l13.22 7.393.187.104.005.003c10 5.591 19.951 11.154 29.895 16.733a9303.165 9303.165 0 0 1 16.612 9.349l.005.003c6.077 3.425 12.154 6.851 18.24 10.263 5.194 2.912 10.398 5.81 15.602 8.708l.005.003.006.003c4.777 2.66 9.553 5.32 14.323 7.992 4.094 2.293 8.181 4.597 12.269 6.901l.015.008c6.968 3.928 13.936 7.856 20.935 11.727 5.525 3.055 11.579 3.603 17.42 1.567 3.445-1.202 6.663-3.094 9.863-4.976.825-.485 1.649-.97 2.475-1.441 6.19-3.532 12.341-7.131 18.492-10.73l5.653-3.305c4.454-2.599 8.904-5.202 13.354-7.806 4.45-2.604 8.9-5.208 13.353-7.807 3.917-2.285 7.836-4.566 11.755-6.847l.013-.007.006-.004c4.67-2.717 9.339-5.434 14.002-8.159 9.01-5.264 18.011-10.538 27.013-15.812l.059-.035 3.325-1.948 1.692-.991c5.55-3.249 11.102-6.5 16.645-9.764.422-.25.822-.54 1.287-.876v-.001h.001c.248-.18.514-.372.811-.579l.001.468.001.4c.002.448.003.814-.002 1.18-.026 1.981-.058 3.962-.089 5.943-.075 4.661-.15 9.322-.148 13.984 0 2.399-1.002 4.108-2.928 5.268-4.607 2.773-9.248 5.49-13.89 8.207l-2.228 1.305c-8.486 4.965-16.979 9.922-25.472 14.875-3.66 2.135-7.323 4.265-10.986 6.395l-.016.01a8561.768 8561.768 0 0 0-14.628 8.521c-4.324 2.527-8.645 5.06-12.966 7.594l-.002.001a7130.823 7130.823 0 0 1-15.775 9.234c-6.46 3.765-12.929 7.51-19.399 11.255l-.002.001c-2.589 1.499-5.179 2.998-7.768 4.499a332.103 332.103 0 0 0-3.49 2.058l-.001.001c-2.746 1.634-5.494 3.269-8.337 4.717-4.594 2.341-9.63 2.617-14.417 1.007-3.424-1.15-6.655-2.927-9.856-4.688-.459-.252-.918-.505-1.377-.755-4.806-2.625-9.572-5.322-14.339-8.019a1899.848 1899.848 0 0 0-7.099-4.006c-5.425-3.045-10.854-6.08-16.282-9.115l-.008-.004-6.822-3.814c-4.113-2.304-8.227-4.605-12.342-6.906l-.115-.064-.116-.065c-4.114-2.301-8.228-4.602-12.342-6.905-3.807-2.132-7.612-4.268-11.418-6.403-3.801-2.133-7.603-4.266-11.405-6.396-5.139-2.879-10.281-5.754-15.423-8.629l-.024-.013c-3.202-1.791-6.405-3.581-9.607-5.373-1.295-.724-2.591-1.446-3.887-2.168l-.01-.005c-3.318-1.849-6.636-3.697-9.932-5.586-2.668-1.531-4.132-3.662-3.99-7.001.186-4.406.214-8.818.243-13.23.013-1.967.026-3.933.053-5.9.005-.388.038-.774.067-1.116m88.118 76.015c.148.122.314.259.512.412-1.199.723-2.375 1.435-3.536 2.138h-.001c-2.4 1.452-4.738 2.867-7.083 4.271-5.133 3.071-10.269 6.135-15.405 9.199l-7.719 4.606a6432.483 6432.483 0 0 1-8.414 5.015l-.008.005c-6.177 3.679-12.355 7.358-18.514 11.067a637.41 637.41 0 0 0-15.206 9.425c-1.966 1.259-3.039 3.354-3.268 5.588-.225 2.167.651 4.326 2.352 5.667 2.348 1.851 4.914 3.474 7.534 4.926 6.323 3.501 12.686 6.938 19.047 10.373l.024.013c2.199 1.188 4.398 2.375 6.595 3.565 2.996 1.623 5.992 3.245 8.989 4.866 5.616 3.039 11.231 6.078 16.841 9.125 3.882 2.108 7.759 4.223 11.636 6.339l.006.003c4.623 2.523 9.246 5.046 13.878 7.555 1.364.738 2.726 1.482 4.087 2.227h.001c4.396 2.405 8.795 4.81 13.297 7.004 4.578 2.234 9.555 2.514 14.634 2.072 5.479-.479 9.952-3.171 14.442-5.874l1.076-.646c4.772-2.852 9.54-5.715 14.307-8.578l.024-.015c3.024-1.816 6.048-3.632 9.073-5.445 5.118-3.067 10.236-6.13 15.355-9.193l.039-.023c3.675-2.199 7.35-4.398 11.025-6.599l8.775-5.254c5.834-3.493 11.668-6.985 17.498-10.481a484.594 484.594 0 0 1 3.036-1.801l.002-.002c2.631-1.552 5.262-3.104 7.811-4.776 6.125-4.014 5.928-10.822-.454-14.386-6.97-3.895-13.989-7.7-21.008-11.506h-.001l-.004-.002a6015.623 6015.623 0 0 1-7.075-3.84c-4.079-2.22-8.164-4.429-12.373-6.705l-.014-.008a9498.227 9498.227 0 0 1-5.969-3.229c.458-.289.886-.566 1.295-.83.797-.514 1.525-.984 2.273-1.42 2.203-1.28 4.409-2.557 6.614-3.833l.022-.012c4.659-2.696 9.318-5.391 13.95-8.129 1.073-.635 1.819-.6 2.889-.016a5723.898 5723.898 0 0 0 16.526 8.97c8.309 4.498 16.618 8.996 24.894 13.554 2.51 1.381 4.965 3.11 6.946 5.162 3.588 3.71 3.552 8.809-.162 12.381-2.443 2.348-5.399 4.227-8.312 6.011-7.158 4.391-14.37 8.692-21.583 12.992l-.002.002-.097.058c-1.634.974-3.269 1.948-4.902 2.924-4.957 2.962-9.92 5.913-14.883 8.864l-.013.008c-4.383 2.606-8.767 5.212-13.145 7.826-4.199 2.506-8.392 5.026-12.584 7.545l-.041.025c-3.4 2.043-6.8 4.086-10.203 6.121-2.96 1.771-5.926 3.533-8.892 5.296-5.979 3.553-11.959 7.106-17.894 10.728-3.868 2.36-7.818 4.452-12.27 5.391-5.652 1.196-11.299 1.361-17.073.493-5.98-.9-11.126-3.564-16.284-6.382a9883.55 9883.55 0 0 0-16.603-9.038l-.054-.029-5.476-2.978-3.932-2.138-.062-.034c-6.696-3.641-13.394-7.284-20.097-10.915-3.388-1.835-6.779-3.664-10.17-5.494l-.036-.019a5738.511 5738.511 0 0 1-13.635-7.373 5390.32 5390.32 0 0 1-13.156-7.175 6061.684 6061.684 0 0 0-10.627-5.801c-2.9-1.577-5.804-3.145-8.709-4.714l-.013-.008-.008-.004a3243.322 3243.322 0 0 1-9.523-5.157c-2.585-1.405-4.93-3.153-6.398-5.754-2.463-4.357-1.468-9.141 2.877-12.393 2.762-2.065 5.746-3.849 8.721-5.628.567-.339 1.134-.677 1.698-1.018 6.66-4.013 13.337-7.997 20.013-11.98l.005-.003c2.631-1.57 5.263-3.14 7.893-4.711 9.97-5.956 19.939-11.916 29.909-17.875l.012-.007.046-.028c.518-.309 1.036-.617 1.555-.924l.002-.002c1.845-1.095 3.692-2.19 5.5-3.348.971-.62 1.847-.703 2.822-.158l2.124 1.189.004.002c7.235 4.05 14.466 8.099 21.694 12.16.231.132.441.305.711.528M109.232 364l.002 1.083c.002.507.003.888-.002 1.269-.039 2.462-.076 4.923-.113 7.384v.004c-.129 8.485-.257 16.97-.459 25.452-.04 1.61.572 2.384 1.886 3.075 4.325 2.269 8.63 4.58 12.933 6.89l3.995 2.144 4.994 2.675c6.447 3.454 12.894 6.908 19.337 10.364 3.893 2.09 7.784 4.184 11.676 6.277l.026.014c4.668 2.511 9.336 5.022 14.006 7.527 3.711 1.99 7.424 3.974 11.138 5.959l.059.032c3.728 1.993 7.456 3.985 11.181 5.983 3.402 1.825 6.801 3.654 10.2 5.484l.015.008c3.394 1.826 6.788 3.653 10.185 5.476 1.883 1.01 3.771 2.015 5.688 3.036 1.198.637 2.407 1.281 3.634 1.936.02-.094.04-.179.059-.257l.039-.16c.051-.2.089-.351.092-.502l.05-4.018c.123-9.822.245-19.644.301-29.466 0-.611-.584-1.48-1.145-1.803-2.74-1.595-5.522-3.118-8.305-4.642-.792-.433-1.583-.867-2.374-1.302-4.464-2.455-8.928-4.908-13.391-7.36l-10.392-5.711-6.402-3.517-.433-.238c-6.07-3.333-12.14-6.667-18.206-10.007-3.509-1.93-7.015-3.865-10.522-5.799-4.322-2.384-8.645-4.769-12.973-7.146-9.622-5.288-19.248-10.563-28.873-15.839l-.072-.039a4137.73 4137.73 0 0 0-7.83-4.274zm227.751-22.203c.018.077.037.155.054.233l-.798.484-.743.45a584.376 584.376 0 0 1-3.696 2.23l-1.816 1.086-.004.003c-2.474 1.481-4.949 2.964-7.462 4.377-.525.296-1.441.355-1.973.099-3.299-1.58-6.583-3.194-9.867-4.808-3.073-1.51-6.146-3.02-9.231-4.502-1.664-.8-3.322-1.612-4.981-2.424l-.002-.001c-5.186-2.539-10.373-5.079-15.71-7.241-6.551-2.648-13.561-3.753-20.621-4.42-7.242-.683-14.469-.497-21.632.462-10.466 1.405-20.515 4.298-29.766 9.602-.548.316-1.558.335-2.115.043-3.012-1.592-6.006-3.215-9.001-4.837a1009.36 1009.36 0 0 0-9-4.836c-1.01-.533-1.148-1.006-.734-1.973 2.538-5.924 1.326-11.315-2.557-16.201-.928-1.169-.868-1.607.406-2.36 4.782-2.824 9.55-5.671 14.319-8.517 4.769-2.847 9.537-5.693 14.318-8.517.545-.324 1.547-.355 2.124-.079 5.71 2.753 11.398 5.553 17.086 8.353l.016.008c1.996.983 3.993 1.965 5.99 2.946 2.907 1.427 5.816 2.851 8.725 4.275l.021.01c5.163 2.528 10.327 5.056 15.482 7.598 3.333 1.644 6.661 3.298 9.989 4.951 4.16 2.068 8.321 4.135 12.491 6.183 1.921.943 3.838 1.893 5.755 2.843l.015.007.001.001c5.95 2.948 11.899 5.896 17.945 8.634 6.464 2.928 13.391 4.377 20.451 5.087 1.455.147 2.914.252 4.372.357l.013.001c.694.05 1.387.1 2.08.155zm43.414-26.089v-.001c-.066-.128-.111-.217-.183-.259l-1.447-.799-.952-.528c-2.81-1.558-5.62-3.116-8.49-4.558-.679-.343-1.977-.205-2.62.241-7.345 5.127-15.554 7.317-24.403 7.519-5.781.134-11.547-.277-16.887-2.542-4.733-2.007-9.349-4.289-13.963-6.571-1.365-.674-2.73-1.349-4.097-2.017a2829.34 2829.34 0 0 1-15.235-7.513l-.014-.007c-2.411-1.195-4.822-2.39-7.235-3.582-4.016-1.982-8.033-3.961-12.049-5.94-3.436-1.692-6.871-3.385-10.305-5.079-1.792-.884-3.583-1.77-5.373-2.657l-.002-.001c-4.798-2.375-9.596-4.751-14.422-7.071-.588-.28-1.614-.157-2.21.178-2.71 1.522-5.372 3.133-8.033 4.743l-.009.005-1.24.75a172.486 172.486 0 0 0-3.144 1.959c-.45.285-.902.571-1.36.859.102.129.176.234.235.318.096.137.153.219.231.258 5.235 2.593 10.474 5.18 15.712 7.766l.01.005 3.919 1.935 1.979.977c6.824 3.367 13.647 6.733 20.475 10.092 3.074 1.512 6.149 3.021 9.225 4.531l.024.011c3.754 1.843 7.509 3.685 11.262 5.534 2.006.988 4.005 1.993 6.004 2.997 4.147 2.083 8.293 4.167 12.506 6.108 4.262 1.961 8.639 3.769 13.119 5.154 5.647 1.745 11.52 2.167 17.452 2.27a87.49 87.49 0 0 0 17.093-1.39c1.492-.268 3.051-.659 4.361-1.389 3.533-1.959 7.004-4.036 10.473-6.112l.01-.006 2.079-1.242c1.803-1.075 3.59-2.176 5.385-3.281l.008-.005c.752-.463 1.506-.928 2.264-1.391h-.004a3.956 3.956 0 0 1-.149-.269m70.262-138.913c.387-.249.788-.507 1.211-.774.495 3.904-1.821 5.549-4.349 7.024a31280.861 31280.861 0 0 1-58.607 34.148c-8.568 4.981-17.136 9.963-25.698 14.957a8750.495 8750.495 0 0 0-20.717 12.13c-4.254 2.496-8.509 4.992-12.767 7.485-1.337.783-2.67 1.576-4.003 2.368-3.527 2.097-7.053 4.194-10.67 6.125-4.405 2.348-9.172 2.66-14.078 1.669-3.805-.768-7.033-2.701-10.256-4.631-1.117-.668-2.233-1.336-3.372-1.956-6.321-3.435-12.588-6.97-18.855-10.506-2.517-1.42-5.035-2.841-7.556-4.254l-8.294-4.652c-5.526-3.1-11.052-6.2-16.582-9.296-3.822-2.143-7.648-4.283-11.473-6.423-3.825-2.14-7.65-4.28-11.473-6.423-3.27-1.834-6.538-3.67-9.807-5.506l-.02-.011c-5.059-2.842-10.118-5.683-15.183-8.518-3.042-1.702-6.086-3.398-9.13-5.094l-.011-.006h-.001a3260.06 3260.06 0 0 1-15.615-8.737c-2.613-1.476-5.23-2.983-7.673-4.716-1.851-1.314-2.17-2.94-1.559-5.091.665.393 1.327.791 1.987 1.187h.001c1.446.869 2.889 1.735 4.355 2.558 5.1 2.867 10.206 5.723 15.313 8.578l.01.006c3.754 2.099 7.509 4.199 11.262 6.303 4.275 2.398 8.547 4.801 12.819 7.204l.013.007.002.001c4.531 2.549 9.062 5.097 13.596 7.639 4.046 2.268 8.097 4.529 12.147 6.789l.009.005c3.615 2.017 7.23 4.034 10.842 6.057 4.678 2.618 9.352 5.243 14.026 7.867 3.583 2.012 7.166 4.024 10.751 6.033 5.976 3.35 11.954 6.692 17.932 10.035l.046.025 5.011 2.802a728.54 728.54 0 0 1 3.333 1.88c2.527 1.431 5.055 2.863 7.619 4.226 5.147 2.735 10.577 3.149 16.229 1.859 3.206-.733 5.924-2.405 8.637-4.073l.001-.001c.837-.514 1.673-1.029 2.523-1.515 5.719-3.275 11.406-6.607 17.092-9.939h.001l.008-.005c2.206-1.292 4.411-2.584 6.618-3.873 3.428-2.002 6.854-4.006 10.281-6.011l.026-.015c4.599-2.69 9.198-5.38 13.8-8.064 4.254-2.48 8.513-4.954 12.772-7.429l.021-.012c4.742-2.756 9.485-5.511 14.222-8.274 4.715-2.749 9.427-5.506 14.14-8.264l.004-.002c4.231-2.476 8.463-4.953 12.697-7.422 3.987-2.328 7.977-4.65 11.968-6.972l.029-.017c4-2.327 7.999-4.654 11.995-6.987a65.62 65.62 0 0 0 2.4-1.498M214.067 287.241c.195.145.357.277.502.394.262.211.466.376.694.49a9212.584 9212.584 0 0 0 15.462 7.598l4.631 2.273 6.184 3.036c4.632 2.273 9.263 4.546 13.892 6.827 4.367 2.151 8.731 4.309 13.095 6.468l.011.006 7.65 3.783c1.696.837 3.391 1.676 5.087 2.514l.005.003c5.086 2.514 10.172 5.029 15.265 7.523 1.332.652 2.658 1.319 3.984 1.987l.002.001c3.498 1.761 6.998 3.522 10.613 5.002 8.73 3.579 17.921 5.123 27.354 5.115.951 0 1.989-.348 2.83-.809 1.908-1.052 3.772-2.182 5.636-3.313h.001c.529-.321 1.058-.642 1.589-.962 1.421-.855 2.838-1.717 4.255-2.579l2.127-1.292c-.466-.312-.813-.328-1.157-.308-1.817.111-3.634.258-5.452.406-3.947.321-7.895.641-11.838.584-10.96-.161-21.154-3.406-30.851-8.481-5.855-3.065-11.795-5.966-17.733-8.866l-.004-.002a1905.438 1905.438 0 0 1-6.421-3.146c-4.992-2.461-9.989-4.911-14.986-7.362a8986.876 8986.876 0 0 1-11.235-5.516 7060.295 7060.295 0 0 0-7.314-3.589l-.016-.008c-7.819-3.834-15.638-7.668-23.411-11.589-1.705-.861-2.94-.916-4.491.181-1.267.901-2.619 1.683-4.037 2.503-.631.365-1.275.738-1.93 1.132zm157.149 18.175c-.771-.422-1.506-.81-2.212-1.183-1.547-.818-2.955-1.562-4.288-2.421-1.295-.836-2.289-.655-3.422.158-5.435 3.895-11.592 5.565-18.194 5.873-5.478.252-10.889-.182-15.894-2.514-6.159-2.873-12.249-5.891-18.34-8.91-1.735-.859-3.469-1.719-5.205-2.575a4131.022 4131.022 0 0 1-12.83-6.362h-.001a5242.25 5242.25 0 0 0-9.5-4.716c-3.529-1.746-7.062-3.486-10.594-5.226h-.001a4026.032 4026.032 0 0 1-18.16-8.982l-.123-.062c-2.372-1.185-4.566-2.281-7.084-.108-.984.849-2.133 1.507-3.324 2.188-.553.316-1.114.637-1.672.985.132.117.232.214.315.295.135.132.224.219.332.273l.015.008.015.007c4.493 2.229 8.986 4.458 13.484 6.675 3.391 1.673 6.785 3.345 10.178 5.017l10.159 5.007 22.342 11.024c2.365 1.166 4.729 2.334 7.093 3.502l.026.013c4.507 2.227 9.014 4.454 13.526 6.667 4.704 2.309 9.393 4.558 14.689 5.399 10.952 1.74 21.356.509 31.049-5.099 1.674-.969 3.287-2.048 4.996-3.191v-.001c.845-.565 1.714-1.146 2.625-1.738zm-151.584 39.083c-.134-.1-.28-.209-.449-.328 5.241-2.45 10.525-3.95 15.936-4.98 8.615-1.642 17.302-1.942 26.016-.987 5.277.577 10.542 1.421 15.44 3.548 6.733 2.925 13.383 6.055 20.025 9.188 3.023 1.427 6.009 2.932 8.995 4.437l.004.002c1.266.638 2.532 1.276 3.8 1.908.171.084.333.193.563.349.125.084.27.183.447.298l-1.853 1.144a429.515 429.515 0 0 1-4.422 2.712l-.74.446c-1.563.943-3.126 1.887-4.746 2.719-.548.28-1.452.328-1.997.071a660.288 660.288 0 0 1-14.973-7.29l-.291-.146c-4.683-2.359-9.372-4.722-14.553-5.777-5.647-1.149-11.382-1.682-17.105-.873-2.393.337-4.755.882-7.118 1.426-1.51.348-3.021.696-4.54.99-.872.169-1.981.161-2.735-.233-4.031-2.116-8.019-4.31-12.007-6.504l-.003-.002c-1.009-.555-2.017-1.11-3.027-1.664-.221-.122-.423-.273-.667-.454m100.601 7.598-1.691-.853-.009-.004a407.333 407.333 0 0 0-3.21-1.61c-2.06-1.017-4.119-2.036-6.179-3.056-5.384-2.667-10.769-5.334-16.179-7.943-.725-.35-1.451-.703-2.176-1.057l-.006-.003c-3.652-1.78-7.313-3.564-11.118-4.923-8.458-3.024-17.286-4.279-26.269-4.389-8.852-.111-17.575.765-26.166 3.051a80.475 80.475 0 0 0-15.984 6.117c-.44.224-.844.518-1.322.866l-.001.001c-.247.18-.514.374-.817.581.73.403 1.436.785 2.122 1.157 1.582.857 3.062 1.659 4.501 2.526 1.247.749 2.336.793 3.682.201 7.14-3.154 14.638-4.878 22.386-5.758 12.479-1.421 24.702-.403 36.471 4.037 3.948 1.488 7.748 3.372 11.546 5.255l.004.002c1.277.633 2.553 1.265 3.834 1.883 3.109 1.495 6.205 3.018 9.301 4.542 2.69 1.323 5.379 2.646 8.076 3.951.411.197 1.097.245 1.468.031 1.851-1.051 3.674-2.154 5.683-3.369.661-.399 1.341-.811 2.049-1.236zm-71.201-89.473-.003-.002c-1.75-.978-3.33-1.861-4.943-2.684-.284-.146-.884.174-1.267.403-4.957 2.936-9.902 5.892-14.847 8.848-8.892 5.312-17.784 10.624-26.68 15.941-2.454 1.466-4.91 2.931-7.365 4.395-6.895 4.112-13.788 8.223-20.656 12.382-2.428 1.472-4.859 3.015-7.002 4.858-2.056 1.764-2.23 4.823-.955 6.832.486.77.896.856 1.658.395l.004-.003c7.667-4.672 15.334-9.344 23.029-13.969 5.391-3.24 10.796-6.458 16.202-9.676l.006-.004.009-.005c2.989-1.78 5.979-3.56 8.966-5.343 9.346-5.581 18.688-11.17 28.026-16.758 1.642-.984 3.28-1.975 5.068-3.056.816-.494 1.663-1.007 2.557-1.546h.003c-.627-.347-1.228-.683-1.81-1.008m51.325 27.676c-.039.15-.083.296-.122.446l.84.417 1.128.561c.983.489 1.965.977 2.95 1.465 1.949.964 3.9 1.926 5.85 2.888l.006.002c4.208 2.075 8.415 4.149 12.61 6.254 3.516 1.764 7.1 3.343 11.019 3.903 5.403.774 10.806.723 16.106-.702 1.478-.396 2.913-.945 4.349-1.494.64-.245 1.279-.489 1.923-.72l-.083-.525c-.799-.436-1.597-.874-2.395-1.312l-.003-.001c-1.279-.702-2.559-1.404-3.842-2.101-2.358-1.283-4.72-2.559-7.082-3.835h-.002c-6.103-3.298-12.205-6.594-18.246-10.006-2.127-1.2-3.8-1.18-5.616.253l-.057.045c-.107.083-.212.166-.326.243-4.747 3.193-9.878 5.071-15.703 4.538-.728-.065-1.455-.137-2.181-.209l-1.119-.11zm28.365-9.721c.275.188.506.354.712.502.362.26.647.465.954.631a6985.43 6985.43 0 0 0 10.419 5.652c2.103 1.138 4.205 2.277 6.306 3.417l3.8 2.061.008.004c6.676 3.621 13.353 7.242 20.019 10.88l1.39.759c3.989 2.177 7.979 4.355 11.922 6.618l.144.083c1.678.966 1.744 1.004 2.531-.885.158-.382.265-.801.316-1.215.43-3.52-1.744-5.561-4.381-7.076-3.922-2.253-7.904-4.399-11.886-6.545-1.327-.716-2.654-1.431-3.979-2.15a8259.754 8259.754 0 0 0-29.45-15.933c-.655-.351-1.666-.734-2.21-.473-1.572.746-3.082 1.624-4.704 2.567-.617.36-1.251.729-1.911 1.103m-90.15 73.803c-.016.142-.027.284-.043.426.375.212.752.42 1.129.628l.003.002.001.001c.849.468 1.697.936 2.514 1.449 3.733 2.352 7.546 3.797 12.211 3.362 6.547-.607 12.874.892 18.805 3.809 4.318 2.123 8.62 4.278 12.906 6.457 1.22.619 2.38.497 3.481-.123.815-.459 1.613-.95 2.412-1.442.998-.614 1.997-1.229 3.03-1.782 1.374-.734.9-1.062-.118-1.559-1.829-.895-3.65-1.805-5.472-2.714l-.002-.002h-.002c-3.149-1.573-6.297-3.146-9.482-4.641-.466-.218-.932-.439-1.399-.661-3.126-1.482-6.275-2.974-9.565-3.932-7.656-2.238-15.518-2.325-23.368-.991-1.631.276-3.236.707-4.841 1.138-.733.196-1.465.393-2.2.575m13.613 7.842c-.265-.17-.567-.362-.927-.585.378-.058.694-.114.972-.164h.001c.512-.091.892-.158 1.275-.171 5.794-.213 11.477.498 16.797 2.818 3.473 1.513 6.861 3.218 10.249 4.922l.002.001c1.375.692 2.75 1.384 4.131 2.063.109.054.198.148.333.29.08.084.176.185.303.306a9.612 9.612 0 0 0-.525.229c-.31.142-.575.263-.853.307-6.721 1.058-13.142.443-19.153-3.113-2.484-1.471-5.047-2.816-7.608-4.161l-.001-.001a342.52 342.52 0 0 1-3.793-2.011c-.371-.2-.73-.428-1.203-.73m-79.005-50.502c.316.217.612.41.891.592.559.366 1.049.687 1.497 1.058 2.683 2.218 5.154 4.539 3.717 8.576-.086.249.296.837.604 1.026.702.427 1.428.814 2.155 1.2a60.28 60.28 0 0 1 1.579.86c2.948 1.682 3.351 1.496 3.97-1.886.01-.053.018-.107.027-.162l.024-.154c1.121-6.121-1.085-10.999-5.699-14.902-.453-.383-1.57-.474-2.107-.19-1.564.831-3.073 1.766-4.685 2.765h-.001l-.001.001c-.637.395-1.291.8-1.971 1.212zm153.417-26.786-2.61-1.432c1.892-1.379 3.166-2.154 5.288-.94 5.147 2.947 10.378 5.752 15.61 8.558h.001c2.132 1.144 4.264 2.287 6.391 3.44 2.353 1.275 4.702 2.56 7.051 3.845l.006.003.045.025c.972.531 1.943 1.063 2.915 1.593-1.074 1.918-2.629 2.353-4.365 1.405a7353.872 7353.872 0 0 0-14.885-8.087c-3.072-1.666-6.143-3.331-9.213-5-2.05-1.115-4.093-2.236-6.234-3.41M105.428 402.279c1.148-.435 1.941-.841 1.965-2.218.151-8.246.336-16.494.52-24.741v-.001c.076-3.389.152-6.778.226-10.167.043-1.957-.442-2.482-2.711-2.861zm79.312-95.764c-.66.533-1.45 1.17-2.439-.254.818-.495 1.62-.983 2.411-1.466l.021-.012a584.179 584.179 0 0 1 4.715-2.852c3.993-2.385 7.988-4.766 11.983-7.149l.01-.005 9.769-5.827c.069-.041.134-.099.198-.157.105-.095.207-.187.319-.194.397-.032.796-.02 1.196-.008.152.005.305.01.458.012a5.01 5.01 0 0 0-.247.421c-.174.32-.35.641-.618.806-3.455 2.111-6.933 4.193-10.41 6.275l-.007.004-.03.018-2.849 1.707c-1.161.695-2.321 1.392-3.48 2.09h-.001c-3.496 2.103-6.994 4.206-10.53 6.245a4.023 4.023 0 0 0-.469.346m99.085-23.824.201-.348c-.07-.044-.139-.09-.209-.136l-.167-.112v-.001c-.235-.157-.469-.314-.713-.453-8.841-4.985-17.685-9.966-26.53-14.946-1.207-.679-2.305-.628-3.52.738l9.9 4.884.183.09c6.978 3.442 13.915 6.864 20.851 10.288zm85.781 25.598 3.097 1.675a904.737 904.737 0 0 0 8.044 4.324c1.689.892 2.747.509 3.856-1.307a4.88 4.88 0 0 1-.163-.13l-.109-.091c-.189-.157-.379-.316-.592-.434-1.523-.85-3.05-1.693-4.577-2.536-1.528-.844-3.056-1.688-4.58-2.539-2.214-1.24-2.893-1.137-4.98 1.042zm-191.797 13.628c1.903-2.949-.844-6.209-2.936-7.523-.229-.142-.683-.166-.912-.035a135.465 135.465 0 0 0-3.424 2.056l-.002.001c-.434.266-.883.542-1.353.828l1.139.617c2.665 1.443 5.079 2.751 7.484 4.056zm62.2-48.537c-1.019-1.178-1.787-.665-2.465-.211a6.446 6.446 0 0 1-.377.239c-2.271 1.287-4.506 2.637-6.739 3.986l-.045.028-1.125.679c-1.24.746-2.471 1.505-3.722 2.276-.555.343-1.115.688-1.681 1.035 1.212.935 1.378.908 2.901-.032 1.238-.762 2.485-1.509 3.731-2.256.747-.448 1.495-.896 2.24-1.347a3929.598 3929.598 0 0 0 7.278-4.401zm-72.714 42.605c1.267.201 4.113-1.22 5.636-2.779-.182-.061-.369-.146-.546-.226-.352-.161-.666-.304-.831-.204-.374.226-.772.423-1.173.622-1.193.591-2.411 1.196-3.082 2.587zm82.853-50.233c1.318 1.002 1.843.864 3.149-.671-1.028-.891-1.741-.357-2.528.232-.2.15-.405.304-.621.439m55.924-53.561c-3.338.087-6.015-1.446-8.679-2.971-.376-.215-.751-.43-1.128-.64l-3.897-2.177c-9.926-5.545-19.85-11.09-29.764-16.652a6156.32 6156.32 0 0 1-13.052-7.349l-.005-.003a5350.283 5350.283 0 0 0-15.158-8.53c-7.477-4.188-14.967-8.356-22.457-12.525h-.001l-7.49-4.169c-1.607-.896-3.218-1.784-4.83-2.673-3.616-1.993-7.232-3.987-10.802-6.061-1.232-.715-2.431-1.808-3.142-3.019-1.132-1.934-.367-3.963 1.764-5.242 4.174-2.511 8.379-4.971 12.584-7.43l.045-.026 2.108-1.234c9.658-5.656 19.319-11.311 28.988-16.947 5.018-2.924 10.04-5.838 15.061-8.753l.005-.003a8296.223 8296.223 0 0 0 18.477-10.745c3.556-2.075 7.103-4.166 10.649-6.258 6.551-3.862 13.101-7.725 19.709-11.486 4.341-2.47 9.006-2.403 13.399.012 10.528 5.795 21.008 11.67 31.489 17.546l2.187 1.226 2.025 1.135c4.484 2.513 8.96 5.039 13.436 7.565l.005.003.006.003c4.855 2.74 9.71 5.48 14.575 8.204 5.851 3.276 11.708 6.539 17.564 9.803a10063.94 10063.94 0 0 1 17.565 9.804l.744.416.001.001c4.038 2.26 8.078 4.521 12.038 6.916 3.548 2.143 3.493 5.647-.059 7.783-2.537 1.527-5.101 3.007-7.666 4.487-1.146.662-2.292 1.323-3.436 1.989l-10.302 6.009-.115.067-.115.067-10.302 6.009c-4.289 2.501-8.58 4.999-12.87 7.497l-.028.016c-5.937 3.458-11.876 6.915-17.811 10.381-4.391 2.564-8.778 5.132-13.164 7.701l-.013.007c-6.745 3.949-13.488 7.898-20.244 11.828-4.341 2.526-8.69 5.044-13.146 7.349-.958.495-2.087.658-3.216.821h-.001c-.517.075-1.034.15-1.535.256zm-116.063-65.124c.166.151.297.279.407.387.185.182.314.308.465.395h.001v.001c2.656 1.523 5.311 3.046 7.987 4.537 4.163 2.324 8.329 4.643 12.494 6.961 6.356 3.538 12.712 7.075 19.055 10.63a7252.74 7252.74 0 0 1 17.647 9.934l.004.002.002.001c5.203 2.935 10.406 5.87 15.614 8.794 6.802 3.82 13.61 7.628 20.418 11.436l.014.008c5.081 2.842 10.161 5.684 15.238 8.53 4.302 2.411 8.659 2.676 12.992.209 4.977-2.837 9.922-5.731 14.865-8.624a9620.856 9620.856 0 0 0 14.958-8.758l.022-.013c4.184-2.453 8.367-4.906 12.554-7.351 3.784-2.209 7.573-4.409 11.362-6.609l.006-.003c3.608-2.095 7.216-4.19 10.821-6.293 7.932-4.626 15.853-9.267 23.774-13.912 1.758-1.031 3.512-2.065 5.266-3.099l.008-.005c3.566-2.103 7.13-4.205 10.718-6.27 1.113-.639.88-.978-.024-1.46-.148-.079-.285-.178-.423-.276-.122-.087-.244-.175-.374-.249-4.459-2.489-8.92-4.975-13.381-7.461a13287.57 13287.57 0 0 1-25.016-13.965c-6.26-3.507-12.51-7.031-18.761-10.555l-.002-.001a9510.88 9510.88 0 0 0-14.574-8.207 12252.93 12252.93 0 0 0-16.15-9.04l-.032-.018c-6.474-3.62-12.947-7.239-19.413-10.873-4.484-2.517-8.975-2.727-13.466-.153-3.451 1.978-6.879 3.996-10.307 6.013h-.001a1702.25 1702.25 0 0 1-5.041 2.961l-.01.006c-8.948 5.231-17.895 10.463-26.847 15.686-3.986 2.326-7.974 4.649-11.962 6.973l-.034.02-.049.028a28583.688 28583.688 0 0 0-38.95 22.729l-11.875 6.942zM301.66 76.9c-.339.066-.686.114-1.033.162-.765.106-1.531.212-2.207.516-2.4 1.082-4.772 2.258-7.049 3.58-5.811 3.367-11.604 6.765-17.397 10.162-3.74 2.193-7.48 4.387-11.224 6.572-7.136 4.163-14.279 8.317-21.422 12.471-4.607 2.679-9.213 5.358-13.818 8.04l-.018.01-.002.001a20178.45 20178.45 0 0 0-35.745 20.851c-1.5.876-2.995 1.807-4.325 2.916-1.098.916-.896 2.116-.123 3.284.849 1.283 1.76.801 2.719.241.678-.396 1.354-.796 2.03-1.195v-.001c.598-.354 1.196-.708 1.795-1.058 2.768-1.62 5.535-3.241 8.303-4.863l.002-.001.013-.008c6.166-3.611 12.332-7.223 18.503-10.828a9247.41 9247.41 0 0 1 13.323-7.753l.003-.002c3.601-2.093 7.202-4.186 10.8-6.283 8.999-5.241 17.989-10.49 26.98-15.743 1.743-1.019 3.486-2.036 5.229-3.053 5.654-3.299 11.307-6.596 16.939-9.936 3.868-2.293 7.941-3.18 12.16-1.472 2.429.98 4.734 2.28 7.032 3.576.513.29 1.026.579 1.54.864 5.91 3.287 11.807 6.597 17.704 9.907l.01.005.067.038c2.328 1.307 4.656 2.614 6.984 3.919 7.621 4.269 15.246 8.539 22.871 12.808l.118.066.119.067c3.85 2.157 7.701 4.313 11.552 6.468l.098.055 11.454 6.414c3.024 1.695 6.048 3.392 9.071 5.088l.046.026c4.014 2.252 8.028 4.505 12.045 6.754 1.335.747 2.673 1.49 4.01 2.233l.001.001a762.082 762.082 0 0 1 7.478 4.191c.797.454 1.345.331 1.965-.269 1.555-1.495 1.188-3.386-1.046-4.649a6165.643 6165.643 0 0 0-23.648-13.316c-4.914-2.755-9.833-5.503-14.752-8.252l-.009-.005a37065.66 37065.66 0 0 1-40.212-22.511l-14.938-8.38-14.954-8.39-.68-.383c-2.588-1.468-5.183-2.94-8.362-2.935m20.86 81.895a40.58 40.58 0 0 1-.081-.946l.008.008c.161.072.32.137.476.202.345.143.677.281.984.457 1.378.795 2.754 1.592 4.131 2.389 2.604 1.51 5.209 3.019 7.827 4.506.375.213 1.05.332 1.382.142a219.77 219.77 0 0 0 4.106-2.423 214.708 214.708 0 0 1 4.363-2.569c.912-.517 1.259-1.153 1.283-2.155.049-2.008.113-4.015.178-6.023.075-2.346.15-4.693.201-7.041.008-.43-.272-1.073-.62-1.274-4.627-2.691-9.27-5.353-13.914-8.016-2.141-1.228-4.283-2.456-6.423-3.686a249.52 249.52 0 0 1-4.092-2.42c-.565-.339-1.137-.682-1.721-1.03.197-.219.393-.413.577-.596.377-.375.707-.702.903-1.097.659-1.326 1.488-.99 2.431-.438 2.968 1.733 5.943 3.457 8.919 5.182l1.528.887c9.555 5.545 19.107 11.089 28.676 16.605.324.185.943.166 1.271-.024a229.146 229.146 0 0 0 3.502-2.088c1.779-1.075 3.558-2.149 5.378-3.149 1.133-.62 1.401-1.366 1.421-2.534.071-4.144.185-8.288.387-12.428.047-.92-.087-1.365-.952-1.855-8.959-5.099-17.882-10.257-26.805-15.416a7140.284 7140.284 0 0 1-8.591-4.974 3419.103 3419.103 0 0 0-20.113-11.598c-.592-.335-1.701-.272-2.333.056-2.763 1.44-5.466 3.007-8.126 4.629-.533.324-1.074 1.074-1.125 1.67a63.744 63.744 0 0 0-.193 6.685c.027 1.267-.296 2.25-1.532 2.573-1.519.399-1.551 1.445-1.551 2.676 0 1.235-.053 2.47-.11 3.772-.025.566-.05 1.145-.071 1.742-.217-.076-.388-.13-.529-.174-.234-.074-.384-.121-.517-.197-1.113-.649-2.225-1.299-3.337-1.95-2.949-1.726-5.898-3.452-8.87-5.135-.501-.284-1.397-.41-1.851-.153a343.975 343.975 0 0 0-10.786 6.373c-.45.277-.896.94-.924 1.445-.233 4.298-.402 8.6-.493 12.902-.016.722.264 1.574.687 2.166 1.458 2.048 2.965 4.06 4.472 6.072.612.818 1.225 1.637 1.834 2.457.97 1.303 1.929 2.612 2.888 3.922l.53.723c-.051.083-.1.166-.15.251l-.095.16c-.712-.167-1.426-.331-2.14-.496-1.686-.388-3.373-.776-5.05-1.197-3.316-.829-6.628-1.672-9.941-2.514a1619.41 1619.41 0 0 0-13.001-3.274c-2.788-.693-5.576-1.386-8.359-2.098-2.325-.596-4.452-1.038-6.737.6-1.64 1.176-3.416 2.159-5.194 3.143-1.187.658-2.376 1.315-3.525 2.031-.532.332-.919 1.283-.951 1.966-.1 2.122-.157 4.245-.214 6.368a322.102 322.102 0 0 1-.208 6.217c-.051 1.078.343 1.678 1.192 2.167 4.4 2.539 8.798 5.082 13.197 7.625l10.025 5.794 4.229 2.441a7833.935 7833.935 0 0 0 27.96 16.088c.482.273 1.358.328 1.827.072 1.502-.822 2.978-1.69 4.454-2.558 1.26-.741 2.519-1.482 3.795-2.194.923-.513 1.227-1.153 1.227-2.167 0-1.908.041-3.815.081-5.723.023-1.068.046-2.136.061-3.204.012-.963.253-1.54 1.417-1.24a635.96 635.96 0 0 0 11.88 2.964c.513.123 1.199.087 1.649-.161a111.705 111.705 0 0 0 3.086-1.799c1.111-.663 2.221-1.326 3.355-1.947 1.038-.568 1.342-1.318 1.35-2.443.014-2.447.062-4.892.11-7.337.031-1.593.062-3.186.084-4.779.005-.516-.043-1.032-.097-1.608m22.4-14.29c.095.098.216.221.378.376l-.012.015c-.681.406-1.352.791-2.011 1.169-1.478.848-2.895 1.661-4.232 2.589-1.484 1.026-2.649.856-4.133-.02-7.437-4.388-14.906-8.727-22.374-13.065-2.177-1.265-4.355-2.529-6.531-3.795l-1.195-.697c-1.612-.942-3.222-1.883-4.855-2.788-.19-.106-.458-.068-.727-.03a3.565 3.565 0 0 1-.359.038c.009.122.003.255-.003.388-.013.281-.026.561.102.733a9007.168 9007.168 0 0 0 16.682 22.118l1.544 2.043 1.57 2.081 1.579 2.091c.576.765.624 1.401-.335 1.945a118.4 118.4 0 0 0-2.408 1.414c-.969.579-1.939 1.159-2.928 1.704-.367.206-.943.202-1.377.095-2.55-.628-5.094-1.274-7.638-1.92-1.824-.464-3.648-.927-5.473-1.383-2.47-.618-4.943-1.225-7.416-1.831a2753.727 2753.727 0 0 1-19.437-4.847c-1.458-.371-2.914-.748-4.369-1.125-2.337-.605-4.674-1.211-7.018-1.792-.169-.043-.383.092-.597.228-.1.063-.199.126-.295.171.063.118.116.254.169.39.114.295.23.591.443.715 2.806 1.631 5.627 3.241 8.449 4.85 1.635.933 3.27 1.866 4.903 2.803 7.388 4.242 14.764 8.497 22.145 12.755.104.061.191.151.329.292.086.089.192.198.334.332-.512.312-1.024.602-1.528.887-1.091.618-2.146 1.216-3.074 1.966-2.463 1.993-4.559 1.63-7.183.048-7.249-4.379-14.585-8.613-21.92-12.848-2.326-1.343-4.651-2.685-6.974-4.032-4.327-2.51-8.659-5.01-12.989-7.508-2.996-1.729-5.992-3.457-8.986-5.189a6.57 6.57 0 0 1-.613-.429c-.14-.104-.301-.225-.5-.368.736-.442 1.459-.86 2.167-1.268 1.522-.879 2.976-1.718 4.341-2.683 2.708-1.91 5.309-2.206 8.6-1.235 5.343 1.577 10.766 2.876 16.191 4.175 2.057.492 4.114.985 6.167 1.493 2.988.737 5.978 1.469 8.968 2.201 4.017.984 8.034 1.967 12.048 2.965 1.659.411 3.311.845 4.964 1.278 1.58.414 3.159.829 4.745 1.224.312.079.655.038.997-.003a6.08 6.08 0 0 1 .459-.044c-.039-.145-.065-.3-.092-.454-.057-.332-.114-.665-.295-.908-7.838-10.506-15.7-20.992-23.573-31.471-.789-1.05-.722-1.657.533-2.328 1.448-.774 2.865-1.604 4.283-2.435 1.368-.801 2.736-1.603 4.131-2.353.568-.304 1.583-.339 2.127-.031 2.663 1.497 5.296 3.046 7.929 4.594 1.648.97 3.297 1.939 4.953 2.897a864.99 864.99 0 0 0 6.482 3.697c1.93 1.093 3.859 2.185 5.78 3.292a16666.024 16666.024 0 0 1 28.59 16.505c.112.062.205.157.368.323m-56.319 46.586c-.035.185-.072.387-.107.613l-.004-.004c-1.014-.576-2.007-1.137-2.985-1.69-2.003-1.133-3.944-2.229-5.872-3.346-4.772-2.76-9.541-5.529-14.31-8.297-2.772-1.609-5.543-3.218-8.316-4.826-1.773-1.028-3.547-2.054-5.321-3.081-5.911-3.421-11.822-6.842-17.708-10.306-.536-.315-1.089-1.148-1.085-1.736.032-3.055.163-6.106.294-9.16l.085-1.99c.005-.118.059-.236.143-.416.05-.107.11-.236.177-.401.452.247.898.488 1.339.725 1.017.549 2.005 1.082 2.974 1.643 4.91 2.848 9.816 5.701 14.723 8.554 5.837 3.394 11.674 6.788 17.518 10.173 5.77 3.343 11.548 6.662 17.341 9.958 1.054.6 1.638 1.267 1.559 2.612-.128 2.21-.178 4.426-.228 6.641-.026 1.132-.052 2.264-.088 3.396-.01.294-.064.587-.129.938m83.107-63.976c.633.381 1.293.779 1.994 1.198h-.008c-.688.409-1.357.808-2.011 1.199-2.237 1.335-4.302 2.568-6.403 3.738-.395.221-1.18.083-1.622-.17a8692.804 8692.804 0 0 1-30.184-17.472c-1.303-.755-2.6-1.52-3.897-2.285-2.024-1.193-4.048-2.387-6.092-3.544-.288-.162-1.236.134-1.295.367-.444 1.752-1.703 2.695-2.988 3.658-.348.26-.697.522-1.033.802-2.747 2.293-5.249 2.305-7.984.063-.756-.619-1.628-1.094-2.558-1.6a41.333 41.333 0 0 1-1.369-.768c.486-.316.951-.611 1.398-.895.943-.599 1.809-1.148 2.639-1.745 3.098-2.226 3.264-4.334.624-7.081a53.844 53.844 0 0 1-.761-.813c-.205-.22-.427-.46-.684-.734.612-.353 1.214-.703 1.811-1.049 2.2-1.276 4.311-2.5 6.453-3.671.269-.146.873.186 1.255.406 16.367 9.405 32.73 18.822 49.089 28.243 1.182.68 2.35 1.384 3.626 2.153m-48.28-15.146c.025-.213.053-.447.08-.714v-.004l2.595 1.482c1.727.985 3.382 1.929 5.03 2.883a22711.84 22711.84 0 0 1 24.15 13.995l.676.392c2.333 1.353 4.669 2.708 6.969 4.115.43.265.939.845.947 1.287.057 3.12.052 6.243.047 9.592-.002 1.018-.004 2.058-.004 3.124-.608-.334-1.16-.633-1.674-.912a118.492 118.492 0 0 1-2.789-1.543c-4.623-2.669-9.244-5.34-13.866-8.012-6.991-4.042-13.982-8.084-20.979-12.116-1.188-.683-1.69-1.543-1.607-2.956.129-2.154.185-4.314.241-6.475.026-1.025.053-2.051.087-3.076.01-.33.049-.659.097-1.062m-56.305 40.806.047-.096h.008c.472.109.945.216 1.417.322 1.056.239 2.111.477 3.161.736l.982.243c7.235 1.79 14.473 3.58 21.703 5.389 6.07 1.519 12.132 3.055 18.183 4.645.414.107.982.762.974 1.153-.076 3.332-.224 6.662-.372 9.994l-.085 1.936c-.003.052-.041.102-.112.194a4.646 4.646 0 0 0-.192.268c-.6-.14-1.209-.28-1.823-.421-1.339-.308-2.705-.622-4.066-.96-.81-.2-1.615-.418-2.42-.636-1.139-.309-2.277-.617-3.429-.872-.888-.197-1.353-.564-1.247-1.48.107-.939-.375-1.298-1.168-1.756a3594.413 3594.413 0 0 1-20.748-12.028l-6.393-3.723a541.504 541.504 0 0 0-3.039-1.747l-1.52-.87c.045-.098.092-.194.139-.291m35.549-21.3.057-.1-.004-.008c.419.229.839.456 1.259.682.941.507 1.881 1.013 2.806 1.548 3.576 2.066 7.149 4.135 10.722 6.204 5.806 3.361 11.61 6.721 17.422 10.068 1.093.628 1.539 1.393 1.456 2.7-.143 2.281-.21 4.566-.277 6.851a481.365 481.365 0 0 1-.101 3.177 8.256 8.256 0 0 1-.095.833c-.027.184-.057.39-.087.631l-1.796-1.048a860.514 860.514 0 0 0-4.617-2.685c-.697-.4-1.39-.808-2.083-1.215-1.769-1.04-3.537-2.08-5.369-2.996-2.299-1.15-3.727-3.086-5.159-5.029a82.143 82.143 0 0 0-.662-.891c-3.747-4.962-7.47-9.947-11.191-14.931l-2.299-3.078a.76.76 0 0 1-.104-.289 1.554 1.554 0 0 0-.038-.153c.055-.089.108-.181.16-.271m-1.296 19.768-.241.382c-2.029-.481-4.053-.962-6.082-1.448-.021-.005-.042-.015-.063-.024a.2.2 0 0 0-.087-.027c-4.618-.198-7.1-3.292-9.436-6.749-1.306-1.934-2.719-3.794-4.132-5.654-.824-1.085-1.649-2.17-2.451-3.269-.36-.494-.762-1.129-.754-1.694.035-2.859.131-5.718.226-8.576.032-.948.064-1.897.093-2.845l.427-.202c3.751 5.021 7.502 10.04 11.254 15.059zm65.526-4.421-1.997 1.173-.004-.008c0-.521-.003-.979-.006-1.398-.006-.791-.011-1.439.01-2.087.02-.593.038-1.186.056-1.78.067-2.219.134-4.439.311-6.65.059-.699.561-1.603 1.141-1.978 1.769-1.149 3.593-2.211 5.458-3.296.69-.401 1.384-.805 2.084-1.219.052.122.104.223.149.31.08.157.139.271.139.385-.059 3.824-.119 7.645-.221 11.465-.008.383-.17.943-.446 1.113-2.14 1.31-4.307 2.581-6.674 3.97m-74.71 43.595c-.669.392-1.348.79-2.041 1.2v.004l-.001-2.627c-.002-3.393-.003-6.599.025-9.809.004-.304.268-.73.537-.896a461.084 461.084 0 0 1 5.798-3.489l2.02-1.203c0 .669.002 1.302.005 1.911.004 1.345.009 2.57-.013 3.795-.039 2.124-.091 4.251-.221 6.37-.031.51-.264 1.216-.643 1.457-1.77 1.119-3.575 2.178-5.466 3.287m47.099-27.485c-.614.359-1.241.725-1.882 1.102h-.004a27.756 27.756 0 0 0-.082-.725c-.044-.369-.076-.631-.068-.893l.07-2.155c.087-2.735.175-5.469.356-8.197.043-.66.525-1.52 1.073-1.871 1.613-1.033 3.281-1.983 5.043-2.986.695-.396 1.405-.8 2.132-1.221.028.277.059.513.086.721.049.379.087.668.076.956v.005c-.138 3.503-.276 7.006-.473 10.505-.024.462-.241 1.113-.584 1.33-1.848 1.152-3.729 2.252-5.743 3.429m-19.681-1.61c.572-.331 1.166-.675 1.787-1.041 0 .578.003 1.103.005 1.594a97.755 97.755 0 0 1-.028 3.496c-.052 2.311-.103 4.624-.23 6.931-.031.553-.307 1.31-.726 1.587-1.256.825-2.564 1.572-3.966 2.373-.549.313-1.113.635-1.693.973-.03-.249-.062-.465-.091-.661-.053-.354-.096-.639-.091-.921l.018-.824c.068-3.178.137-6.353.282-9.528.024-.545.332-1.291.754-1.571 1.249-.826 2.547-1.578 3.979-2.408m.949-46.887c.345-.264.686-.526 1.031-.761 0 1.183.012 2.358.023 3.527.028 2.837.055 5.642-.082 8.44-.091 1.902-2.08 2.486-3.8 1.744-2.657-1.144-3.193-2.936-3.13-5.727.063-2.869.84-4.617 3.524-5.683.883-.351 1.667-.952 2.434-1.54m-14.653-.865-.282.106-.286.109c0 .337.015.677.03 1.018.033.751.066 1.504-.062 2.226-.414 2.356.529 3.741 2.649 4.685 1.219.543 2.377 1.222 3.535 1.901.499.292.997.584 1.501.865.186-.075.371-.15.552-.229 0-.485.002-.97.005-1.456.007-1.402.013-2.806-.036-4.207-.012-.351-.34-.821-.66-1.01-1.722-1.028-3.465-2.021-5.208-3.015zm5.545-7.489c-.047 1.448-1.101 2.431-2.892 3.007h-.004l.162-3.422.145-3.058c1.634.908 2.637 1.997 2.589 3.473" clip-rule="evenodd"/>
</svg>
