<svg xmlns="http://www.w3.org/2000/svg" width="64" height="64" fill="none" viewBox="0 0 64 64">
    <g class="sentiment=original, size=xlarge, disabled=false" clip-path="url(#a)">
        <g class=".Square">
            <g fill="#521094" class="fillWeak">
                <path d="M0 16C0 7.163 7.163 0 16 0h32c8.837 0 16 7.163 16 16v32c0 8.837-7.163 16-16 16H16C7.163 64 0 56.837 0 48z"/>
                <path fill-rule="evenodd" d="M48 2H16C8.268 2 2 8.268 2 16v32c0 7.732 6.268 14 14 14h32c7.732 0 14-6.268 14-14V16c0-7.732-6.268-14-14-14M16 0C7.163 0 0 7.163 0 16v32c0 8.837 7.163 16 16 16h32c8.837 0 16-7.163 16-16V16c0-8.837-7.163-16-16-16z" clip-rule="evenodd"/>
            </g>
        </g>
        <g class="Icon">
            <path fill="#bf95f9" fill-rule="evenodd" d="M32 20.5c-5.799 0-10.5 4.701-10.5 10.5 0 2.1.616 4.053 1.676 5.693a1 1 0 0 1 .126.802l-.985 3.676 3.904-1.046a1 1 0 0 1 .74.09A10.45 10.45 0 0 0 32 41.5c5.799 0 10.5-4.701 10.5-10.5S37.799 20.5 32 20.5M19.5 31c0-6.904 5.596-12.5 12.5-12.5S44.5 24.096 44.5 31 38.904 43.5 32 43.5c-2.027 0-3.944-.483-5.64-1.342l-5.199 1.393a1 1 0 0 1-1.225-1.224l1.322-4.932A12.45 12.45 0 0 1 19.5 31" class="fillStrong" clip-rule="evenodd"/>
            <g fill="#fff" class="fill">
                <path fill-rule="evenodd" d="M13.747 22H13a6 6 0 0 0-6 6v6a6 6 0 0 0 6 6h1a1 1 0 0 0 1-1V27c0-8.284 6.716-15 15-15h4c8.284 0 15 6.716 15 15v8c0 7.993-6.252 14.526-14.133 14.975A4.002 4.002 0 0 0 27 51a4 4 0 0 0 7.88.978C42.14 51.608 48.2 46.68 50.253 40H51a6 6 0 0 0 6-6v-6a6 6 0 0 0-6-6h-.747C48.118 15.051 41.649 10 34 10h-4c-7.649 0-14.118 5.051-16.253 12m-.483 2A17 17 0 0 0 13 27v11a4 4 0 0 1-4-4v-6a4 4 0 0 1 4-4zm37.472 0q.263 1.462.264 3v8q-.002 1.537-.264 3H51a4 4 0 0 0 4-4v-6a4 4 0 0 0-4-4zM31 49a2 2 0 1 0 0 4 2 2 0 0 0 0-4" clip-rule="evenodd"/>
                <path d="M27.5 31a1.5 1.5 0 1 1-3 0 1.5 1.5 0 0 1 3 0m6 0a1.5 1.5 0 1 1-3 0 1.5 1.5 0 0 1 3 0m6 0a1.5 1.5 0 1 1-3 0 1.5 1.5 0 0 1 3 0"/>
            </g>
        </g>
    </g>
    <defs>
        <clipPath id="a" class="a">
            <path fill="#fff" d="M0 0h64v64H0z"/>
        </clipPath>
    </defs>
</svg>
