<svg xmlns="http://www.w3.org/2000/svg" width="64" height="64" fill="none" viewBox="0 0 64 64">
    <path fill="#521094" d="M0 16C0 7.163 7.163 0 16 0h32c8.837 0 16 7.163 16 16v32c0 8.837-7.163 16-16 16H16C7.163 64 0 56.837 0 48z" class="fillWeak"/>
    <path fill="#521094" fill-rule="evenodd" d="M48 2H16C8.268 2 2 8.268 2 16v32c0 7.732 6.268 14 14 14h32c7.732 0 14-6.268 14-14V16c0-7.732-6.268-14-14-14M16 0C7.163 0 0 7.163 0 16v32c0 8.837 7.163 16 16 16h32c8.837 0 16-7.163 16-16V16c0-8.837-7.163-16-16-16z" class="fillWeak" clip-rule="evenodd"/>
    <path fill="#bf95f9" d="M19 39a5 5 0 0 0 0 10h6.669q.002-.24.043-.481c.101-.583.37-1.104.75-1.519H19a3 3 0 1 1 0-6h12.114l-.998-2z" class="fillStrong"/>
    <path fill="#bf95f9" fill-rule="evenodd" d="M47 25a5 5 0 0 0 0 10h5a5 5 0 0 0 0-10zm5 2a3 3 0 1 1 0 6h-5a3 3 0 1 1 0-6zM20 11a5 5 0 0 0 0 10h24a5 5 0 0 0 0-10zm24 2a3 3 0 1 1 0 6H20a3 3 0 1 1 0-6z" class="fillStrong" clip-rule="evenodd"/>
    <path fill="#fff" fill-rule="evenodd" d="M12 25a5 5 0 0 0 0 10h16.12l5.5 11.02h-4.95a3.014 3.014 0 0 0-2.958 2.499 3.014 3.014 0 0 0 1.844 3.313l14.436 5.748a3 3 0 0 0 2.553-.157l7.026-3.858a3 3 0 0 0 1.39-3.613L49.47 39.884a5 5 0 0 0-6.278-3.114l-3.094 1.011a1 1 0 0 1-1.044-.27l-2.815-3.041A5 5 0 0 0 34 25zm17.874 6.777a1 1 0 0 1 1.288.153l6.424 6.94a3 3 0 0 0 3.134.813l3.093-1.012a3 3 0 0 1 3.767 1.868l3.492 10.068c.16.461-.035.97-.463 1.206l-7.026 3.856a1 1 0 0 1-.852.053l-14.436-5.748a1.015 1.015 0 0 1 .375-1.954h4.95c1.486 0 2.454-1.565 1.79-2.894l-5.99-11.994a1 1 0 0 1 .34-1.28zM34 27a2.998 2.998 0 0 1 .78 5.894l-2.15-2.323a3 3 0 0 0-3.866-.458l-.113.076A3 3 0 0 0 27.333 33H12a3 3 0 0 1 0-6z" class="fill" clip-rule="evenodd"/>
</svg>
