<svg xmlns="http://www.w3.org/2000/svg" width="64" height="64" fill="none" viewBox="0 0 64 64">
    <g class="Ansible">
        <g class=".Square">
            <path fill="#F1EEFC" d="M0 16C0 7.163 7.163 0 16 0h32c8.837 0 16 7.163 16 16v32c0 8.837-7.163 16-16 16H16C7.163 64 0 56.837 0 48z" class="fillWeak"/>
        </g>
        <path fill="#521094" d="m31.67 19.457 9.27 22.88-14.002-11.03zm16.469 28.15-14.26-34.316c-.407-.99-1.22-1.513-2.208-1.513-.99 0-1.863.524-2.27 1.513L13.75 50.931h5.354l6.195-15.518 18.489 14.936c.744.601 1.28.873 1.978.873 1.396 0 2.617-1.047 2.617-2.558 0-.246-.087-.636-.244-1.056Z" class="fill"/>
    </g>
</svg>
