<svg xmlns="http://www.w3.org/2000/svg" width="64" height="64" fill="none" viewBox="0 0 64 64">
    <path fill="#521094" d="M64 16c0-8.837-7.163-16-16-16H16C7.163 0 0 7.163 0 16v32c0 8.837 7.163 16 16 16h32c8.837 0 16-7.163 16-16z" class="fillWeak"/>
    <path fill="#521094" fill-rule="evenodd" d="M16 2h32c7.732 0 14 6.268 14 14v32c0 7.732-6.268 14-14 14H16C8.268 62 2 55.732 2 48V16C2 8.268 8.268 2 16 2m32-2c8.837 0 16 7.163 16 16v32c0 8.837-7.163 16-16 16H16C7.163 64 0 56.837 0 48V16C0 7.163 7.163 0 16 0z" class="fillWeak" clip-rule="evenodd"/>
    <path fill="#bf95f9" fill-rule="evenodd" d="m32.028 6.501.05.003.043.003.04.006.056.011.037.01.013.002.051.018q.09.03.173.075l21 11.84a1 1 0 0 1 .509.87V44.66a1 1 0 0 1-.509.871l-21 11.84q-.041.022-.085.04-.01.006-.021.01-.039.017-.078.028l-.053.017q-.028.007-.057.011-.034.008-.07.013-.027.004-.057.005-.035.004-.07.004t-.07-.004q-.03-.001-.059-.005-.034-.005-.068-.013-.03-.004-.058-.011l-.053-.017q-.039-.011-.078-.027-.01-.006-.021-.01l-.084-.04-21-11.84A1 1 0 0 1 10 44.66V19.34a1 1 0 0 1 .509-.871l21-11.84q.02-.012.042-.02.03-.018.062-.032.04-.015.08-.027l.028-.01.015-.005.01-.002.041-.009q.03-.007.062-.012a1 1 0 0 1 .143-.012h.016zM12 42.788l5-2.82v.532a1 1 0 0 0 .504.868l.54.309-5.15 2.902L31 54.79V32.08L12 21.223zM33 32.08v22.708L51.105 44.58l-5.149-2.903.54-.308A1 1 0 0 0 47 40.5v-.531l5 2.82V21.222zm0-17.161-.504-.287-.118-.058a1 1 0 0 0-.874.058l-.504.287V9.223L13.016 19.5l18.971 10.84h.025L50.985 19.5 33 9.223z" class="fillStrong" clip-rule="evenodd"/>
    <path fill="#fff" d="M19 25.223v14.696l12 6.856v2.305l-13.496-7.712A1 1 0 0 1 17 40.5V24.08zM47 40.5a1 1 0 0 1-.504.868L33 49.08v-2.305l12-6.856V25.223l2-1.144z" class="fill"/>
    <path fill="#fff" d="M28.5 33a1 1 0 0 1 1 1v8a1 1 0 0 1-2 0v-8a1 1 0 0 1 1-1m7 0a1 1 0 0 1 1 1v8a1 1 0 0 1-2 0v-8a1 1 0 0 1 1-1M25 31a1 1 0 0 1 1 1v8a1 1 0 0 1-2 0v-8a1 1 0 0 1 1-1m14 0a1 1 0 0 1 1 1v8a1 1 0 0 1-2 0v-8a1 1 0 0 1 1-1m-17.5-2a1 1 0 0 1 1 1v8a1 1 0 0 1-2 0v-8a1 1 0 0 1 1-1m21 0a1 1 0 0 1 1 1v8a1 1 0 0 1-2 0v-8a1 1 0 0 1 1-1M31.504 14.632a1 1 0 0 1 .874-.058l.118.058L46 22.348l-2.015 1.151L32 16.651 20.016 23.5 18 22.348z" class="fill"/>
</svg>
