<svg xmlns="http://www.w3.org/2000/svg" width="64" height="64" fill="none" viewBox="0 0 64 64">
    <g clip-path="url(#clip0_791_2095)">
        <path fill="#521094" d="M0 16C0 7.163 7.163 0 16 0h32c8.837 0 16 7.163 16 16v32c0 8.837-7.163 16-16 16H16C7.163 64 0 56.837 0 48z" class="fillWeak"/>
        <path fill="#521094" fill-rule="evenodd" d="M48 2H16C8.268 2 2 8.268 2 16v32c0 7.732 6.268 14 14 14h32c7.732 0 14-6.268 14-14V16c0-7.732-6.268-14-14-14M16 0C7.163 0 0 7.163 0 16v32c0 8.837 7.163 16 16 16h32c8.837 0 16-7.163 16-16V16c0-8.837-7.163-16-16-16z" class="fillWeak" clip-rule="evenodd"/>
        <path fill="#fff" fill-rule="evenodd" d="M25.493 12.883A1 1 0 0 0 23.5 13v5H23a5 5 0 0 0-5 5v.5h-5l-.117.007A1 1 0 0 0 13 25.5h5v3h-5l-.117.007A1 1 0 0 0 13 30.5h5v3h-5l-.117.007A1 1 0 0 0 13 35.5h5v3h-5l-.117.007A1 1 0 0 0 13 40.5h5v.5a5 5 0 0 0 5 5h.5v4.828l.007.117a1 1 0 0 0 1.993-.117V46h3v4.828l.007.117a1 1 0 0 0 1.993-.117V46h3v4.828l.007.117a1 1 0 0 0 1.993-.117V46h3v4.828l.007.117a1 1 0 0 0 1.993-.117V46h.5a5 5 0 0 0 5-5v-.5h4.828l.117-.007a1 1 0 0 0-.117-1.993H46v-3h4.828l.117-.007a1 1 0 0 0-.117-1.993H46v-3h4.828l.117-.007a1 1 0 0 0-.117-1.993H46v-3h4.828l.117-.007a1 1 0 0 0-.117-1.993H46V23a5 5 0 0 0-5-5h-.5v-5l-.007-.117A1 1 0 0 0 38.5 13v5h-3v-5l-.007-.117A1 1 0 0 0 33.5 13v5h-3v-5l-.007-.117A1 1 0 0 0 28.5 13v5h-3v-5zM44 24.5V23a3 3 0 0 0-2.824-2.995L41 20H23a3 3 0 0 0-2.995 2.824L20 23v18a3 3 0 0 0 2.824 2.995L23 44h18a3 3 0 0 0 2.995-2.824L44 41z" class="fill" clip-rule="evenodd"/>
        <path fill="#bf95f9" d="M22.1 31.87q0-1.03.46-1.84a3.3 3.3 0 0 1 1.27-1.27 3.6 3.6 0 0 1 1.81-.46q1.17 0 2.05.6t1.23 1.66h-1.61a1.66 1.66 0 0 0-.68-.75 1.95 1.95 0 0 0-1-.25q-.61 0-1.09.29-.47.28-.74.8-.26.52-.26 1.22 0 .69.26 1.22.27.519.74.81.48.28 1.09.28.57 0 1-.25a1.7 1.7 0 0 0 .68-.76h1.61q-.35 1.07-1.23 1.67-.87.59-2.05.59-1 0-1.81-.45a3.4 3.4 0 0 1-1.27-1.27q-.46-.81-.46-1.84m13.106-1.32q0 .56-.27 1.05-.26.49-.83.79-.56.3-1.42.3h-1.17v2.68h-1.4v-6.98h2.57q.81 0 1.38.28t.85.77q.29.49.29 1.11m-2.58 1.01q.58 0 .86-.26.28-.27.28-.75 0-1.02-1.14-1.02h-1.11v2.03zm4.954-3.17v4.32q0 .71.37 1.09.37.37 1.04.37.68 0 1.05-.37.37-.38.37-1.09v-4.32h1.41v4.31q0 .89-.39 1.51a2.4 2.4 0 0 1-1.03.92q-.64.31-1.43.31-.78 0-1.42-.31a2.4 2.4 0 0 1-1-.92q-.37-.62-.37-1.51v-4.31z" class="fillStrong"/>
    </g>
</svg>
