<svg xmlns="http://www.w3.org/2000/svg" width="64" height="64" fill="none" viewBox="0 0 64 64">
    <g clip-path="url(#clip0_791_2095)">
        <path fill="#521094" d="M0 16C0 7.16344 7.16344 0 16 0H48C56.8366 0 64 7.16344 64 16V48C64 56.8366 56.8366 64 48 64H16C7.16344 64 0 56.8366 0 48V16Z" class="fillWeak"/>
        <path fill="#521094" fill-rule="evenodd" d="M48 2H16C8.26801 2 2 8.26801 2 16V48C2 55.732 8.26801 62 16 62H48C55.732 62 62 55.732 62 48V16C62 8.26801 55.732 2 48 2ZM16 0C7.16344 0 0 7.16344 0 16V48C0 56.8366 7.16344 64 16 64H48C56.8366 64 64 56.8366 64 48V16C64 7.16344 56.8366 0 48 0H16Z" class="fillWeak" clip-rule="evenodd"/>
        <path fill="#fff" fill-rule="evenodd" d="M25.4933 12.8834C25.4355 12.386 25.0128 12 24.5 12C23.9477 12 23.5 12.4477 23.5 13V18H23C20.2386 18 18 20.2386 18 23V23.5H13L12.8834 23.5067C12.386 23.5645 12 23.9872 12 24.5C12 25.0523 12.4477 25.5 13 25.5H18V28.5H13L12.8834 28.5067C12.386 28.5645 12 28.9872 12 29.5C12 30.0523 12.4477 30.5 13 30.5H18V33.5H13L12.8834 33.5067C12.386 33.5645 12 33.9872 12 34.5C12 35.0523 12.4477 35.5 13 35.5H18V38.5H13L12.8834 38.5067C12.386 38.5645 12 38.9872 12 39.5C12 40.0523 12.4477 40.5 13 40.5H18V41C18 43.7614 20.2386 46 23 46H23.5V50.8283L23.5067 50.9449C23.5645 51.4422 23.9872 51.8283 24.5 51.8283C25.0523 51.8283 25.5 51.3806 25.5 50.8283V46H28.5V50.8283L28.5067 50.9449C28.5645 51.4422 28.9872 51.8283 29.5 51.8283C30.0523 51.8283 30.5 51.3806 30.5 50.8283V46H33.5V50.8283L33.5067 50.9449C33.5645 51.4422 33.9872 51.8283 34.5 51.8283C35.0523 51.8283 35.5 51.3806 35.5 50.8283V46H38.5V50.8283L38.5067 50.9449C38.5645 51.4422 38.9872 51.8283 39.5 51.8283C40.0523 51.8283 40.5 51.3806 40.5 50.8283V46H41C43.7614 46 46 43.7614 46 41V40.5H50.8283L50.9449 40.4933C51.4422 40.4355 51.8283 40.0128 51.8283 39.5C51.8283 38.9477 51.3806 38.5 50.8283 38.5H46V35.5H50.8283L50.9449 35.4933C51.4422 35.4355 51.8283 35.0128 51.8283 34.5C51.8283 33.9477 51.3806 33.5 50.8283 33.5H46V30.5H50.8283L50.9449 30.4933C51.4422 30.4355 51.8283 30.0128 51.8283 29.5C51.8283 28.9477 51.3806 28.5 50.8283 28.5H46V25.5H50.8283L50.9449 25.4933C51.4422 25.4355 51.8283 25.0128 51.8283 24.5C51.8283 23.9477 51.3806 23.5 50.8283 23.5H46V23C46 20.2386 43.7614 18 41 18H40.5V13L40.4933 12.8834C40.4355 12.386 40.0128 12 39.5 12C38.9477 12 38.5 12.4477 38.5 13V18H35.5V13L35.4933 12.8834C35.4355 12.386 35.0128 12 34.5 12C33.9477 12 33.5 12.4477 33.5 13V18H30.5V13L30.4933 12.8834C30.4355 12.386 30.0128 12 29.5 12C28.9477 12 28.5 12.4477 28.5 13V18H25.5V13L25.4933 12.8834ZM44 24.5V23C44 21.4023 42.7511 20.0963 41.1763 20.0051L41 20H23C21.4023 20 20.0963 21.2489 20.0051 22.8237L20 23V41C20 42.5977 21.2489 43.9037 22.8237 43.9949L23 44H24.5H29.5H34.5H39.5H41C42.5977 44 43.9037 42.7511 43.9949 41.1763L44 41V39.5V34.5V29.5V24.5Z" class="fill" clip-rule="evenodd"/>
        <path fill="#bf95f9" d="M22.1 31.87C22.1 31.183 22.253 30.57 22.56 30.03 22.873 29.483 23.297 29.06 23.83 28.76 24.37 28.453 24.973 28.3 25.64 28.3 26.42 28.3 27.103 28.5 27.69 28.9 28.277 29.3 28.687 29.853 28.92 30.56H27.31C27.15 30.227 26.923 29.977 26.63 29.81 26.343 29.643 26.01 29.56 25.63 29.56 25.223 29.56 24.86 29.657 24.54 29.85 24.227 30.037 23.98 30.303 23.8 30.65 23.627 30.997 23.54 31.403 23.54 31.87 23.54 32.33 23.627 32.737 23.8 33.09 23.98 33.437 24.227 33.707 24.54 33.9 24.86 34.087 25.223 34.18 25.63 34.18 26.01 34.18 26.343 34.097 26.63 33.93 26.923 33.757 27.15 33.503 27.31 33.17H28.92C28.687 33.883 28.277 34.44 27.69 34.84 27.11 35.233 26.427 35.43 25.64 35.43 24.973 35.43 24.37 35.28 23.83 34.98 23.297 34.673 22.873 34.25 22.56 33.71 22.253 33.17 22.1 32.557 22.1 31.87ZM35.206 30.55C35.206 30.923 35.116 31.273 34.936 31.6 34.762 31.927 34.486 32.19 34.106 32.39 33.732 32.59 33.259 32.69 32.686 32.69H31.516V35.37H30.116V28.39H32.686C33.226 28.39 33.686 28.483 34.066 28.67 34.446 28.857 34.729 29.113 34.916 29.44 35.109 29.767 35.206 30.137 35.206 30.55ZM32.626 31.56C33.012 31.56 33.299 31.473 33.486 31.3 33.672 31.12 33.766 30.87 33.766 30.55 33.766 29.87 33.386 29.53 32.626 29.53H31.516V31.56H32.626ZM37.58 28.39V32.71C37.58 33.183 37.703 33.547 37.95 33.8 38.196 34.047 38.543 34.17 38.99 34.17 39.443 34.17 39.793 34.047 40.04 33.8 40.286 33.547 40.41 33.183 40.41 32.71V28.39H41.82V32.7C41.82 33.293 41.69 33.797 41.43 34.21 41.176 34.617 40.833 34.923 40.4 35.13 39.973 35.337 39.496 35.44 38.97 35.44 38.45 35.44 37.976 35.337 37.55 35.13 37.13 34.923 36.796 34.617 36.55 34.21 36.303 33.797 36.18 33.293 36.18 32.7V28.39H37.58Z" class="fillStrong"/>
    </g>
</svg>
