<svg>
  <g className="Console">
    <g className="Console">
      <g className=".Square">
        <path
          fill="#EEF"
          d="M0 16C0 7.163 7.163 0 16 0h32c8.837 0 16 7.163 16 16v32c0 8.837-7.163 16-16 16H16C7.163 64 0 56.837 0 48V16Z"
          className="fillWeak"
        />
      </g>
      <g className="Icon">
        <path
          fill="#4F0599"
          fillRule="evenodd"
          d="M16.87 13h30.26A5.87 5.87 0 0 1 53 18.87v27.26A5.87 5.87 0 0 1 47.13 52H16.87A5.87 5.87 0 0 1 11 46.13V18.87A5.87 5.87 0 0 1 16.87 13ZM13 46.13V23h38v23.13A3.87 3.87 0 0 1 47.13 50H16.87A3.87 3.87 0 0 1 13 46.13Zm38-27.26V21H13v-2.13A3.87 3.87 0 0 1 16.87 15h30.26A3.87 3.87 0 0 1 51 18.87ZM47.498 17H42l-.117.007A1 1 0 0 0 42 19h5.498l.116-.007A1 1 0 0 0 47.498 17Z"
          className="fill"
          clipRule="evenodd"
        />
        <path
          fill="#A365F6"
          fillRule="evenodd"
          d="M24 27a1 1 0 0 1 .993.883L25 28v6a1 1 0 0 1-.883.993L24 35h-6a1 1 0 0 1-.993-.883L17 34v-6a1 1 0 0 1 .883-.993L18 27h6Zm.993 11.883A1 1 0 0 0 24 38h-6l-.117.007A1 1 0 0 0 17 39v6l.007.117A1 1 0 0 0 18 46h6l.117-.007A1 1 0 0 0 25 45v-6l-.007-.117Zm11 0A1 1 0 0 0 35 38h-6l-.117.007A1 1 0 0 0 28 39v6l.007.117A1 1 0 0 0 29 46h6l.117-.007A1 1 0 0 0 36 45v-6l-.007-.117ZM46 38a1 1 0 0 1 .993.883L47 39v6a1 1 0 0 1-.883.993L46 46h-6a1 1 0 0 1-.993-.883L39 45v-6a1 1 0 0 1 .883-.993L40 38h6Zm-27 2h4v4h-4v-4Zm15 0h-4v4h4v-4Zm7 0h4v4h-4v-4Zm-5.007-12.117A1 1 0 0 0 35 27h-6l-.117.007A1 1 0 0 0 28 28v6l.007.117A1 1 0 0 0 29 35h6l.117-.007A1 1 0 0 0 36 34v-6l-.007-.117ZM46 27a1 1 0 0 1 .993.883L47 28v6a1 1 0 0 1-.883.993L46 35h-6a1 1 0 0 1-.993-.883L39 34v-6a1 1 0 0 1 .883-.993L40 27h6Zm-27 2h4v4h-4v-4Zm15 0h-4v4h4v-4Zm7 0h4v4h-4v-4Z"
          className="fillStrong"
          clipRule="evenodd"
        />
      </g>
    </g>
  </g>
</svg>
