<svg>
    <g className="Style=Console" clip-path="url(#clip0_4253_5045)">
        <path fill="#f1eefc" d="M0 16C0 7.163 7.163 0 16 0h32c8.837 0 16 7.163 16 16v32c0 8.837-7.163 16-16 16H16C7.163 64 0 56.837 0 48z" class="fillWeak"/>
        <path fill="#a060f6" d="M34.423 21.005a1 1 0 0 1 .898.995v2.775c.48.22.933.487 1.356.793l2.483-1.431.092-.047a1 1 0 0 1 1.274.413l2.34 4.054a1 1 0 0 1-.366 1.366l-2.53 1.459q.03.338.03.686l-.008.353a8 8 0 0 1-.022.322l2.53 1.461a1 1 0 0 1 .413 1.276l-.047.09-2.34 4.054a1 1 0 0 1-1.366.366l-2.476-1.43q-.639.465-1.363.798v2.778a1 1 0 0 1-1 1H29.64a1 1 0 0 1-1-1v-2.777a8 8 0 0 1-1.349-.785L24.84 39.99a1 1 0 0 1-1.366-.366l-2.34-4.054a1 1 0 0 1 .366-1.366l2.488-1.438a8 8 0 0 1-.022-.34l-.008-.358q0-.36.032-.709l-2.49-1.436a1 1 0 0 1-.366-1.366l2.34-4.054.055-.086a1 1 0 0 1 1.311-.28l2.458 1.419a8 8 0 0 1 1.342-.782V22l.005-.102A1 1 0 0 1 29.64 21h4.68zm-3.783 4.442a1 1 0 0 1-.667.943 6 6 0 0 0-1.933 1.127 1 1 0 0 1-1.154.11l-2.18-1.259-1.34 2.322 2.204 1.272a1 1 0 0 1 .5.887l-.016.155a6 6 0 0 0-.096 1.064l.006.268q.019.4.088.789l.015.154a1 1 0 0 1-.37.798l-.13.088-2.202 1.27 1.34 2.322 2.174-1.254.143-.068a1 1 0 0 1 1.012.18c.565.49 1.221.876 1.939 1.13a1 1 0 0 1 .667.943v2.448h2.68v-2.449a1 1 0 0 1 .667-.942 6 6 0 0 0 1.95-1.143l.128-.095a1 1 0 0 1 1.03-.019l2.2 1.269 1.339-2.322-2.24-1.291a1 1 0 0 1-.485-1.038 6 6 0 0 0 .038-1.826l-.04-.258a1 1 0 0 1 .486-1.039l2.24-1.294-1.34-2.32-2.204 1.272a1 1 0 0 1-1.157-.113 6 6 0 0 0-1.945-1.138 1 1 0 0 1-.666-.943V23H30.64zM32 28a4 4 0 1 1 0 8 4 4 0 0 1 0-8m0 2a2 2 0 1 0 0 4 2 2 0 0 0 0-4" class="fillStrong"/>
        <path fill="#521094" d="M32 13.048c6.582-5.057 14.195.138 13.82 6.159 1.255.51 2.21 1.244 2.898 2.144.821 1.075 1.215 2.321 1.344 3.555.224 2.139-.334 4.35-.982 5.93 2.976 3.4 3.592 6.965 2.24 9.817-1.282 2.7-4.187 4.444-7.733 4.713-.111 1.897-.555 3.408-1.278 4.58a6.15 6.15 0 0 1-3.34 2.651c-2.382.803-5.1.277-6.97-.442-1.868.72-4.587 1.245-6.968.442a6.15 6.15 0 0 1-3.34-2.652c-.723-1.171-1.168-2.682-1.28-4.579-3.545-.27-6.45-2.013-7.73-4.713-1.354-2.852-.738-6.418 2.238-9.816-.649-1.581-1.205-3.793-.982-5.93.13-1.235.523-2.48 1.345-3.556.688-.9 1.642-1.635 2.896-2.144-.374-6.02 7.24-11.216 13.822-6.16m-.961 4.667v-2.877c-5.599-4.601-11.645.34-10.787 4.858a1 1 0 0 1-.605 1.112l-.09.032c-1.304.392-2.144 1.016-2.687 1.726-.549.718-.843 1.59-.944 2.548-.203 1.949.415 4.1 1.073 5.486a1 1 0 0 1-.178 1.118c-2.982 3.143-3.294 6.053-2.334 8.078.983 2.072 3.476 3.61 6.897 3.61a1 1 0 0 1 1 1c0 2.102.417 3.53 1.008 4.49a4.15 4.15 0 0 0 2.278 1.806c1.652.557 3.694.261 5.29-.297V47a1 1 0 0 1 2 0v3.376c1.609.575 3.69.892 5.37.325a4.15 4.15 0 0 0 2.277-1.807c.592-.959 1.008-2.387 1.008-4.49a1 1 0 0 1 1-1c3.421 0 5.914-1.537 6.898-3.61.96-2.024.648-4.934-2.334-8.077A1 1 0 0 1 47 30.6l.122-.268c.609-1.386 1.14-3.391.95-5.218-.1-.958-.395-1.83-.943-2.548-.543-.71-1.384-1.334-2.688-1.726a1 1 0 0 1-.694-1.144c.853-4.497-5.133-9.413-10.71-4.92v2.939a1 1 0 0 1-2 0" class="fill"/>
    </g>
</svg>
