<svg xmlns="http://www.w3.org/2000/svg" width="64" height="64" fill="none" viewBox="0 0 64 64">
    <path fill="#521094" d="M0 16C0 7.163 7.163 0 16 0h32c8.837 0 16 7.163 16 16v32c0 8.837-7.163 16-16 16H16C7.163 64 0 56.837 0 48z" class="fillWeak"/>
    <path fill="#521094" fill-rule="evenodd" d="M48 2H16C8.268 2 2 8.268 2 16v32c0 7.732 6.268 14 14 14h32c7.732 0 14-6.268 14-14V16c0-7.732-6.268-14-14-14M16 0C7.163 0 0 7.163 0 16v32c0 8.837 7.163 16 16 16h32c8.837 0 16-7.163 16-16V16c0-8.837-7.163-16-16-16z" class="fillWeak" clip-rule="evenodd"/>
    <path fill="#bf95f9" d="M11 35.5a1 1 0 0 0-1 1V51a3 3 0 0 0 3 3h8.584l-1.292 1.293a1 1 0 0 0 1.414 1.414l2.981-2.98a1 1 0 0 0 .187-1.21l-.013-.022a1 1 0 0 0-.086-.125l-.003-.004-.066-.073-3-3a1 1 0 0 0-1.414 1.414L21.586 52H13a1 1 0 0 1-1-1V36.5a1 1 0 0 0-1-1m41.846 3.514-.029.004a1 1 0 0 0-.304.11l-.014.008a1 1 0 0 0-.125.085l-.008.005-.073.067-3 3a1 1 0 1 0 1.414 1.414L52 42.414V51a1 1 0 0 1-1 1H36a1 1 0 0 0 0 2h15a3 3 0 0 0 3-3v-8.586l1.293 1.293a1 1 0 0 0 1.414-1.414l-2.99-2.99a1 1 0 0 0-.87-.29M21.706 7.293a1 1 0 0 0-1.414 1.414L21.585 10H13a3 3 0 0 0-3 3v14a1 1 0 0 0 2 0V13a1 1 0 0 1 1-1h8.585l-1.293 1.293a1 1 0 0 0 1.414 1.414l2.991-2.991a1 1 0 0 0 .169-.218l.006-.01a.995.995 0 0 0-.175-1.205zM35.5 10a1 1 0 0 0 0 2H51a1 1 0 0 1 1 1v8.586l-1.293-1.293a1 1 0 1 0-1.414 1.414l3 3 .073.066.008.005q.059.048.125.085l.014.009a1 1 0 0 0 .142.065l.017.006a1 1 0 0 0 .174.043Q52.921 25 53 25a1 1 0 0 0 .718-.304l2.989-2.99a1 1 0 0 0-1.414-1.413L54 21.586V13a3 3 0 0 0-3-3z" class="fillStrong"/>
    <path fill="#fff" fill-rule="evenodd" d="M32 48a5 5 0 1 0 0 10 5 5 0 0 0 0-10m0 2a3 3 0 1 1 0 6 3 3 0 0 1 0-6m-2.5-24.063a1 1 0 0 0-1.5.866v10.392a1 1 0 0 0 1.5.867l9-5.197a1 1 0 0 0 0-1.732zm6.5 6.062-6 3.464v-6.928z" class="fill" clip-rule="evenodd"/>
    <path fill="#fff" fill-rule="evenodd" d="M32 19c-7.18 0-13 5.82-13 13s5.82 13 13 13 13-5.82 13-13-5.82-13-13-13m0 2c6.075 0 11 4.925 11 11s-4.925 11-11 11-11-4.925-11-11 4.925-11 11-11m-20.28 5.292a1 1 0 0 0-1.413 0l-4.95 4.95a1 1 0 0 0 0 1.414l4.95 4.95a1 1 0 0 0 1.414 0l4.95-4.95a1 1 0 0 0 0-1.414zm2.83 5.657-3.536 3.535-3.535-3.535 3.535-3.535zm36.2-4.847a1 1 0 0 0-.866.5l-2.25 3.897a1 1 0 0 0 0 1l2.25 3.898a1 1 0 0 0 .866.5h4.5a1 1 0 0 0 .866-.5l2.25-3.898a1 1 0 0 0 .059-.88l-.059-.12-2.25-3.897a1 1 0 0 0-.866-.5zm3.923 2 1.673 2.897-1.673 2.898h-3.345l-1.673-2.898 1.673-2.897zM28.5 6.5a1 1 0 0 0-1 1v7a1 1 0 0 0 1 1h7a1 1 0 0 0 1-1v-7a1 1 0 0 0-1-1zm6 7h-5v-5h5z" class="fill" clip-rule="evenodd"/>
</svg>
