<svg xmlns="http://www.w3.org/2000/svg" width="64" height="64" fill="none" viewBox="0 0 64 64">
    <path fill="#f1eefc" d="M0 16C0 7.163 7.163 0 16 0h32c8.837 0 16 7.163 16 16v32c0 8.837-7.163 16-16 16H16C7.163 64 0 56.837 0 48z" className="fillWeak"/>
    <path fill="#f1eefc" fill-rule="evenodd" d="M48 2H16C8.268 2 2 8.268 2 16v32c0 7.732 6.268 14 14 14h32c7.732 0 14-6.268 14-14V16c0-7.732-6.268-14-14-14M16 0C7.163 0 0 7.163 0 16v32c0 8.837 7.163 16 16 16h32c8.837 0 16-7.163 16-16V16c0-8.837-7.163-16-16-16z" className="fillWeak" clip-rule="evenodd"/>
    <path fill="#a060f6" d="M11.5 45.5a1 1 0 0 0-1 1V54a1 1 0 1 0 2 0v-7.5a1 1 0 0 0-1-1m0-25a1 1 0 0 0-1 1v21a1 1 0 1 0 2 0v-21a1 1 0 0 0-1-1" className="fillStrong"/>
    <path fill="#a060f6" fill-rule="evenodd" d="M27.5 16.5a3 3 0 1 0 0 6 3 3 0 0 0 0-6m0 2a1 1 0 1 1 0 2 1 1 0 0 1 0-2" className="fillStrong" clip-rule="evenodd"/>
    <path fill="#a060f6" d="M11.5 9a1 1 0 0 0-1 1v7.5a1 1 0 1 0 2 0V10a1 1 0 0 0-1-1" className="fillStrong"/>
    <path fill="#521094" fill-rule="evenodd" d="M35.167 32.9c-4.208 0-7.639 3.112-8.731 7.21-1.947.27-3.52 1.603-4.363 3.39h-7.747a2.998 2.998 0 0 0-5.826 1 3 3 0 0 0 5.826 1h7.15a7 7 0 0 0-.076 1.025c0 2.776 1.576 5.251 3.932 6.135.36.135.923.213 1.487.27.615.064 1.393.116 2.278.16l.053.002 16.734.008.053-.001a45 45 0 0 0 2.184-.149c.546-.054 1.082-.126 1.429-.247 2.421-.843 4.05-3.357 4.05-6.178 0-3.046-1.936-5.792-4.706-6.359-.292-2.426-2.236-4.403-4.727-4.403-.783 0-1.52.2-2.166.549-1.65-2.07-4.082-3.411-6.834-3.412m0 2.2c2.292 0 4.367 1.28 5.64 3.329a1.1 1.1 0 0 0 1.692.216 2.4 2.4 0 0 1 1.668-.682c1.345 0 2.566 1.195 2.566 2.837q0 .135-.01.265a1.1 1.1 0 0 0 1.11 1.192c1.83 0 3.567 1.762 3.567 4.268 0 2.025-1.162 3.609-2.574 4.101l-.067.017q-.073.016-.199.037-.25.04-.656.08c-.535.054-1.233.1-2.056.14l-16.66-.008a43 43 0 0 1-2.145-.15q-.42-.043-.68-.088a2 2 0 0 1-.258-.053c-1.381-.519-2.505-2.085-2.505-4.076 0-2.502 1.731-4.262 3.558-4.267l.147.003a1.1 1.1 0 0 0 1.104-.905c.663-3.66 3.512-6.256 6.758-6.256M11.5 43.5a1 1 0 1 1 0 2 1 1 0 0 1 0-2" className="fill" clip-rule="evenodd"/>
    <path fill="#521094" d="M34.5 18.5a1 1 0 1 0 0 2h15l.102-.005a1 1 0 0 0 0-1.99L49.5 18.5z" className="fill"/>
    <path fill="#521094" fill-rule="evenodd" d="M24.5 12a5 5 0 0 0-5 5v1.5h-5.174a2.998 2.998 0 0 0-5.826 1 3 3 0 0 0 5.826 1H19.5V22l.007.257A5 5 0 0 0 24.5 27h26l.257-.007A5 5 0 0 0 55.5 22v-5a5 5 0 0 0-4.743-4.993L50.5 12zm26 2a3 3 0 0 1 3 3v5a3 3 0 0 1-3 3h-26a3 3 0 0 1-3-3v-5a3 3 0 0 1 3-3zm-39 4.5a1 1 0 1 1 0 2 1 1 0 0 1 0-2" className="fill" clip-rule="evenodd"/>
</svg>
