<svg>
  <g className="Dedicated-Servers">
    <g className="Dedicated-Servers">
      <g className=".Fill">
        <path
          fill="#EEF"
          d="M0 16C0 7.163 7.163 0 16 0h32c8.837 0 16 7.163 16 16v32c0 8.837-7.163 16-16 16H16C7.163 64 0 56.837 0 48V16Z"
          className="fillWeak"
        />
      </g>
      <path
        fill="#A365F6"
        fillRule="evenodd"
        d="M20.703 21.206a3.567 3.567 0 1 1 0 7.135 3.567 3.567 0 0 1 0-7.135Zm0 2a1.568 1.568 0 1 0 0 3.135 1.568 1.568 0 0 0 0-3.135Zm8.52 20.784a1 1 0 0 1 .116 1.993l-.117.007H12.378a1 1 0 0 1-.116-1.993l.116-.007h16.844Zm22.594 0a1 1 0 0 1 .116 1.993l-.116.007H34.973a1 1 0 0 1-.117-1.993l.117-.007h16.844Z"
        className="fillStrong"
        clipRule="evenodd"
      />
      <path
        fill="#4F0599"
        fillRule="evenodd"
        d="M53.022 21.946A5.946 5.946 0 0 0 47.076 16H16.924a5.946 5.946 0 0 0-5.946 5.946v5.946a5.946 5.946 0 0 0 5.946 5.946H31v7.717a3.569 3.569 0 0 0 .968 7.002A3.568 3.568 0 0 0 33 41.574v-7.736h14.076a5.946 5.946 0 0 0 5.946-5.946v-5.946ZM16.924 18h30.152l.203.005a3.946 3.946 0 0 1 3.743 3.94v5.947l-.005.203a3.946 3.946 0 0 1-3.94 3.743H16.923l-.203-.005a3.946 3.946 0 0 1-3.743-3.941v-5.946l.005-.203A3.946 3.946 0 0 1 16.923 18Zm15.044 25.422a1.568 1.568 0 1 0 0 3.135 1.568 1.568 0 0 0 0-3.135Zm13.968-18.648a1 1 0 0 0-1-1H29.027l-.117.006a1 1 0 0 0 .117 1.994h15.909l.116-.007a1 1 0 0 0 .884-.993Z"
        className="fill"
        clipRule="evenodd"
      />
    </g>
  </g>
</svg>
