<svg xmlns="http://www.w3.org/2000/svg" width="64" height="64" fill="none" viewBox="0 0 64 64">
    <g class="deleteMarker">
        <g class=".Square">
            <path fill="#F1EEFC" d="M0 16C0 7.163 7.163 0 16 0h32c8.837 0 16 7.163 16 16v32c0 8.837-7.163 16-16 16H16C7.163 64 0 56.837 0 48z" class="fillWeak"/>
        </g>
        <g class="File">
            <g class="icon">
                <g fill="#521094" class="fill">
                    <path fill-rule="evenodd" d="M21 14a1 1 0 0 0-1 1v33a1 1 0 0 0 1 1h15a1 1 0 1 1 0 2H21a3 3 0 0 1-3-3V15a3 3 0 0 1 3-3h17.5a1 1 0 0 1 .791.389l8.5 11A1 1 0 0 1 48 24v8.5a1 1 0 1 1-2 0v-8.159L38.009 14z" clip-rule="evenodd"/>
                    <path d="M47 25h-1v23a1 1 0 0 1-1 1H30a1 1 0 1 0 0 2h15a3 3 0 0 0 3-3V25z"/>
                    <path fill-rule="evenodd" d="M37.5 22v-8.5h2V22a1 1 0 0 0 1 1H47v2h-6.5a3 3 0 0 1-3-3" clip-rule="evenodd"/>
                </g>
                <g class="fillStrong">
                    <path fill="#BF95F9" fill-rule="evenodd" d="M27.657 39.97c-.39-.39-.38-1.033.023-1.436l9.853-9.854c.404-.403 1.047-.413 1.438-.023.39.39.38 1.034-.023 1.437l-9.854 9.854c-.403.403-1.047.413-1.437.023Z" class="fillStrong" clip-rule="evenodd"/>
                    <g class="Group 5">
                        <path fill="#BF95F9" fill-rule="evenodd" d="M38.97 39.97c-.39.39-1.034.38-1.437-.023l-9.854-9.854c-.403-.403-.413-1.046-.022-1.437.39-.39 1.034-.38 1.437.023l9.853 9.854c.404.403.414 1.046.023 1.437" class="fillStrong" clip-rule="evenodd"/>
                    </g>
                </g>
            </g>
        </g>
    </g>
</svg>
