<svg xmlns="http://www.w3.org/2000/svg" width="64" height="64" fill="none" viewBox="0 0 64 64">
    <g clip-path="url(#clip0_791_2093)">
        <path fill="#521094" d="M0 16C0 7.163 7.163 0 16 0h32c8.837 0 16 7.163 16 16v32c0 8.837-7.163 16-16 16H16C7.163 64 0 56.837 0 48z" class="fillWeak"/>
        <path fill="#521094" fill-rule="evenodd" d="M48 2H16C8.268 2 2 8.268 2 16v32c0 7.732 6.268 14 14 14h32c7.732 0 14-6.268 14-14V16c0-7.732-6.268-14-14-14M16 0C7.163 0 0 7.163 0 16v32c0 8.837 7.163 16 16 16h32c8.837 0 16-7.163 16-16V16c0-8.837-7.163-16-16-16z" class="fillWeak" clip-rule="evenodd"/>
        <path fill="#fff" fill-rule="evenodd" d="M25.493 12.883A1 1 0 0 0 23.5 13v5H23a5 5 0 0 0-5 5v.5h-5l-.117.007A1 1 0 0 0 13 25.5h5v3h-5l-.117.007A1 1 0 0 0 13 30.5h5v3h-5l-.117.007A1 1 0 0 0 13 35.5h5v3h-5l-.117.007A1 1 0 0 0 13 40.5h5v.5a5 5 0 0 0 5 5h.5v4.828l.007.117a1 1 0 0 0 1.993-.117V46h3v4.828l.007.117a1 1 0 0 0 1.993-.117V46h3v4.828l.007.117a1 1 0 0 0 1.993-.117V46h3v4.828l.007.117a1 1 0 0 0 1.993-.117V46h.5a5 5 0 0 0 5-5v-.5h4.828l.117-.007a1 1 0 0 0-.117-1.993H46v-3h4.828l.117-.007a1 1 0 0 0-.117-1.993H46v-3h4.828l.117-.007a1 1 0 0 0-.117-1.993H46v-3h4.828l.117-.007a1 1 0 0 0-.117-1.993H46V23a5 5 0 0 0-5-5h-.5v-5l-.007-.117A1 1 0 0 0 38.5 13v5h-3v-5l-.007-.117A1 1 0 0 0 33.5 13v5h-3v-5l-.007-.117A1 1 0 0 0 28.5 13v5h-3v-5zM44 24.5V23a3 3 0 0 0-2.824-2.995L41 20H23a3 3 0 0 0-2.995 2.824L20 23v18a3 3 0 0 0 2.824 2.995L23 44h18a3 3 0 0 0 2.995-2.824L44 41z" class="fill" clip-rule="evenodd"/>
        <path fill="#bf95f9" d="M25.24 28.41q1.1 0 1.93.43.84.43 1.29 1.23.46.79.46 1.84t-.46 1.84q-.45.78-1.29 1.21-.83.43-1.93.43H22.8v-6.98zm-.05 5.79q1.1 0 1.7-.6t.6-1.69-.6-1.7q-.6-.62-1.7-.62h-.99v4.61zm6.179-4.66v1.75h2.35v1.11h-2.35v1.85h2.65v1.14h-4.05V28.4h4.05v1.14zm10.192-1.13-2.56 6.98h-1.7l-2.56-6.98h1.5l1.92 5.55 1.91-5.55z" class="fillStrong"/>
    </g>
</svg>
