<svg xmlns="http://www.w3.org/2000/svg" width="64" height="64" fill="none" viewBox="0 0 64 64">
    <g class="Edge Services" clip-path="url(#a)">
        <g class=".Square">
            <path fill="#F1EEFC" d="M-.056 15.944c0-8.836 7.164-16 16-16h32c8.837 0 16 7.164 16 16v32c0 8.837-7.163 16-16 16h-32c-8.836 0-16-7.163-16-16z" class="fillWeak"/>
        </g>
        <g class="fill">
            <path fill="#521094" fill-rule="evenodd" d="M33.331 26.57c0-1.09.883-1.973 1.973-1.973h2.416c1.09 0 1.973.883 1.973 1.972v2.417c0 1.09-.883 1.972-1.973 1.972h-2.416a1.97 1.97 0 0 1-1.973-1.972zm4.39 0h-2.417v2.416h2.416zm2.632 0c0-1.09.883-1.973 1.973-1.973h2.416c1.09 0 1.973.883 1.973 1.972v2.417c0 1.09-.884 1.972-1.973 1.972h-2.416a1.97 1.97 0 0 1-1.973-1.972zm4.39 0h-2.417v2.416h2.416v-2.417Zm-4.39 7.021c0-1.089.883-1.972 1.973-1.972h2.416c1.09 0 1.973.883 1.973 1.972v2.417c0 1.09-.884 1.972-1.973 1.972h-2.416a1.97 1.97 0 0 1-1.973-1.972zm4.39 0h-2.417v2.417h2.416V33.59Zm-11.412 0c0-1.089.883-1.972 1.973-1.972h2.416c1.09 0 1.973.883 1.973 1.972v2.417c0 1.09-.883 1.972-1.973 1.972h-2.416a1.97 1.97 0 0 1-1.973-1.972zm4.39 0h-2.417v2.417h2.416z" class="fill" clip-rule="evenodd"/>
        </g>
        <g fill="#521094" fill-rule="evenodd" class="fill" clip-rule="evenodd">
            <path d="M15.23 38.514a7.396 7.396 0 1 0 0-14.791 7.396 7.396 0 0 0 0 14.791m0 1.973a9.368 9.368 0 1 0 0-18.736 9.368 9.368 0 0 0 0 18.736" class="fill"/>
            <path d="M14.243 39.821v-17.33h1.972v17.33z" class="fill"/>
            <path d="M17.357 36.755c.779-1.345 1.323-3.334 1.323-5.637s-.544-4.29-1.323-5.635c-.808-1.396-1.63-1.76-2.128-1.76s-1.32.364-2.128 1.76c-.779 1.344-1.324 3.332-1.324 5.636 0 2.303.545 4.29 1.324 5.636.808 1.395 1.63 1.76 2.128 1.76.497 0 1.32-.365 2.128-1.76m-2.128 3.732c2.995 0 5.423-4.195 5.423-9.369s-2.428-9.367-5.423-9.367-5.424 4.194-5.424 9.367 2.428 9.369 5.424 9.369" class="fill"/>
            <path d="M23.66 32.105H6.799v-1.973h16.863v1.973Z" class="fill"/>
        </g>
        <path fill="#A060F6" fill-rule="evenodd" d="M38.345 18.68c-5.345 0-9.908 3.114-11.86 7.518a.986.986 0 0 1-1.803-.8c2.27-5.123 7.546-8.69 13.663-8.69 8.163 0 14.85 6.365 14.85 14.3 0 7.933-6.687 14.298-14.85 14.298-6.117 0-11.392-3.567-13.663-8.69a.986.986 0 1 1 1.803-.8c1.952 4.404 6.515 7.517 11.86 7.517 7.15 0 12.877-5.555 12.877-12.326 0-6.77-5.727-12.326-12.877-12.326Z" class="fillStrong" clip-rule="evenodd"/>
        <path fill="#A060F6" fill-rule="evenodd" d="M38.468 13.75c-6.339 0-11.89 3.252-15.013 8.13a.986.986 0 0 1-1.66-1.063c3.476-5.432 9.648-9.04 16.673-9.04 10.834 0 19.657 8.589 19.657 19.23s-8.823 19.23-19.657 19.23c-7.025 0-13.197-3.608-16.674-9.04a.986.986 0 0 1 1.662-1.063c3.121 4.878 8.673 8.13 15.012 8.13 9.788 0 17.685-7.748 17.685-17.257S48.257 13.75 38.468 13.75" class="fillStrong" clip-rule="evenodd"/>
        <path fill="#A060F6" fill-rule="evenodd" d="M28.83 27.845a.986.986 0 0 1 1.395 0l2.958 2.958a.986.986 0 0 1 0 1.394l-2.958 2.959a.986.986 0 0 1-1.395-1.395l1.276-1.275h-4.03a.986.986 0 0 1 0-1.972h4.03l-1.276-1.275a.986.986 0 0 1 0-1.395Z" class="fillStrong" clip-rule="evenodd"/>
    </g>
    <defs>
        <clipPath id="a" class="a">
            <path fill="#fff" d="M0 0h64v64H0z"/>
        </clipPath>
    </defs>
</svg>
