<svg xmlns="http://www.w3.org/2000/svg" width="64" height="64" fill="none" viewBox="0 0 64 64">
    <g class="environmental-footprint-calculator">
        <g class=".Square">
            <g fill="#F1EEFC" class="fillWeak">
                <path d="M0 16C0 7.163 7.163 0 16 0h32c8.837 0 16 7.163 16 16v32c0 8.837-7.163 16-16 16H16C7.163 64 0 56.837 0 48z"/>
                <path fill-rule="evenodd" d="M48 2H16C8.268 2 2 8.268 2 16v32c0 7.732 6.268 14 14 14h32c7.732 0 14-6.268 14-14V16c0-7.732-6.268-14-14-14M16 0C7.163 0 0 7.163 0 16v32c0 8.837 7.163 16 16 16h32c8.837 0 16-7.163 16-16V16c0-8.837-7.163-16-16-16z" clip-rule="evenodd"/>
            </g>
        </g>
        <path fill="#521094" fill-rule="evenodd" d="M51 32.4a1 1 0 0 0-1-1h-9.474a1 1 0 0 0-1 1V50a1 1 0 0 0 1 1H50a1 1 0 0 0 1-1zm-2 1V49h-7.474V33.4zm-11.263-7.6a1 1 0 0 0-1-1h-9.474a1 1 0 0 0-1 1V37h2V26.8h7.474V49H30v2h6.737a1 1 0 0 0 1-1zM24.474 17a1 1 0 0 0-1-1H14a1 1 0 0 0-1 1v18.5h2V18h7.474v16.5h2z" class="fill" clip-rule="evenodd"/>
        <g fill="#A060F6" fill-rule="evenodd" class="fillStrong" clip-rule="evenodd">
            <path d="M51.153 27.471c3.257-4.315 2.394-10.463-1.936-13.732a1 1 0 1 1 1.205-1.596c5.208 3.931 6.253 11.333 2.327 16.533a1 1 0 1 1-1.596-1.204Zm-6.664-15.718c-5.379-.67-10.271 3.142-10.93 8.513a1 1 0 0 1-1.114.87 1 1 0 0 1-.87-1.117c.793-6.47 6.685-11.058 13.157-10.251.548.068.938.568.87 1.116a1 1 0 0 1-1.113.869"/>
            <path d="M42.416 7.417a1 1 0 0 1 1.398.213l2.038 2.766a1 1 0 0 1-.21 1.398l-2.761 2.032a1 1 0 0 1-1.188-1.611l1.957-1.44-1.445-1.96a1 1 0 0 1 .211-1.398m13.267 20.659a.997.997 0 0 1-.853 1.127l-3.393.466a1.003 1.003 0 0 1-1.13-.854l-.474-3.395a.997.997 0 0 1 .852-1.126 1.003 1.003 0 0 1 1.13.854l.336 2.404 2.402-.33a1.003 1.003 0 0 1 1.13.854M20 55c5.523 0 10-4.477 10-10s-4.477-10-10-10-10 4.477-10 10 4.477 10 10 10m0 2c6.627 0 12-5.373 12-12 0-6.628-5.373-12-12-12S8 38.372 8 45c0 6.627 5.373 12 12 12"/>
            <path d="M20 37.702a1 1 0 0 1 1 1v12.631a1 1 0 1 1-2 0V38.702a1 1 0 0 1 1-1"/>
            <path d="M20 37a1 1 0 0 1 .716.302c1.486 1.523 2.573 2.694 3.27 3.87C24.718 42.41 25 43.618 25 45.18c0 2.546-2.182 5.103-5 5.103s-5-2.557-5-5.103c0-1.561.282-2.77 1.014-4.007.697-1.176 1.784-2.346 3.27-3.87A1 1 0 0 1 20 37m-2.264 5.19c-.518.876-.736 1.719-.736 2.99 0 1.556 1.4 3.102 3 3.102s3-1.545 3-3.103c0-1.27-.218-2.113-.736-2.988-.46-.779-1.168-1.603-2.264-2.752-1.096 1.149-1.804 1.973-2.264 2.752Z"/>
        </g>
    </g>
</svg>
