<svg xmlns="http://www.w3.org/2000/svg" width="64" height="64" fill="none" viewBox="0 0 64 64">
    <g class="sentiment=original, size=xlarge, disabled=false" clip-path="url(#a)">
        <g class=".Square">
            <g fill="#521094" class="fillWeak">
                <path d="M0 16C0 7.163 7.163 0 16 0h32c8.837 0 16 7.163 16 16v32c0 8.837-7.163 16-16 16H16C7.163 64 0 56.837 0 48z"/>
                <path fill-rule="evenodd" d="M48 2H16C8.268 2 2 8.268 2 16v32c0 7.732 6.268 14 14 14h32c7.732 0 14-6.268 14-14V16c0-7.732-6.268-14-14-14M16 0C7.163 0 0 7.163 0 16v32c0 8.837 7.163 16 16 16h32c8.837 0 16-7.163 16-16V16c0-8.837-7.163-16-16-16z" clip-rule="evenodd"/>
            </g>
        </g>
        <g fill-rule="evenodd" class="file-storage" clip-rule="evenodd">
            <path fill="#fff" d="m32 14-.789.006C23.248 14.122 17 16.003 17 19v25.455l.006.163C17.274 47.906 23.886 50 32 50c8.29 0 15-2.179 15-5.545V19c0-3.096-6.665-5-15-5m.781 9.994h.008c5.247-.076 9.75-.92 12.211-2.343v22.804C45 46.109 39.174 48 32 48c-7.067 0-12.862-1.835-12.998-3.504l-.003-.082L19 21.65C21.583 23.146 26.417 24 32 24h.004q.39 0 .777-.006M45 18.985c-.026-.448-1.197-1.23-3.375-1.852C39.112 16.415 35.676 16 32 16s-7.112.415-9.625 1.133C20.172 17.763 19 18.555 19 19l.006.055c.086.435 1.16 1.146 3.114 1.737l.251.074h.004C24.888 21.586 28.324 22 32 22c2.505 0 4.898-.193 6.964-.543a28 28 0 0 0 1.677-.335q.512-.12.984-.255l.046-.013q.487-.141.906-.29c1.532-.545 2.364-1.145 2.42-1.524z" class="fill"/>
            <path fill="#fff" d="M22.152 30.208A3 3 0 0 1 25.145 27h3.145a3 3 0 0 1 2.308 1.084l-.77.639.77-.639.567.683a1 1 0 0 0 .77.361h5.351a3 3 0 0 1 3 3V33a1 1 0 0 1-2 0v-.872a1 1 0 0 0-1-1h-5.351a3 3 0 0 1-2.309-1.084l-.567-.683a1 1 0 0 0-.77-.361h-3.144a1 1 0 0 0-.998 1.07l.756 10.86a1 1 0 0 1-1.995.14z" class="fill"/>
            <path fill="#bf95f9" d="M26.928 34.5a1 1 0 0 0-.984.824l-.982 5.5A1 1 0 0 0 25.946 42h12.475a1 1 0 0 0 .98-.8l1.128-5.5a1 1 0 0 0-.98-1.2H26.93Zm-2.953.473a3 3 0 0 1 2.953-2.473H39.55a3 3 0 0 1 2.94 3.603l-1.13 5.5A3 3 0 0 1 38.422 44H25.946a3 3 0 0 1-2.953-3.527z" class="fillStrong"/>
        </g>
    </g>
    <defs>
        <clipPath id="a" class="a">
            <path fill="#fff" d="M0 0h64v64H0z"/>
        </clipPath>
    </defs>
</svg>
