<svg>
  <g className="File">
    <g className=".Square">
      <path
        fill="#F1EEFC"
        d="M0 16C0 7.163 7.163 0 16 0h32c8.837 0 16 7.163 16 16v32c0 8.837-7.163 16-16 16H16C7.163 64 0 56.837 0 48V16Z"
        className="fillWeak"
      />
    </g>
    <g className="File">
      <g className="icon">
        <g>
          <path
            fill="#521094"
            fillRule="evenodd"
            d="M21 14a1 1 0 0 0-1 1v33a1 1 0 0 0 1 1h15a1 1 0 1 1 0 2H21a3 3 0 0 1-3-3V15a3 3 0 0 1 3-3h17.5a1 1 0 0 1 .791.389l8.5 11A1 1 0 0 1 48 24v8.5a1 1 0 1 1-2 0v-8.159L38.009 14H21Z"
            clipRule="evenodd"
            className="fill"
          />
          <path
            fill="#521094"
            d="M47 25h-1v23a1 1 0 0 1-1 1H30a1 1 0 1 0 0 2h15a3 3 0 0 0 3-3V25h-1Z"
            className="fill"
          />
          <path
            fill="#521094"
            fillRule="evenodd"
            d="M37.5 22v-8.5h2V22a1 1 0 0 0 1 1H47v2h-6.5a3 3 0 0 1-3-3Z"
            clipRule="evenodd"
            className="fill"
          />
        </g>
        <path
          fill="#A060F6"
          fillRule="evenodd"
          d="M24.5 21a1 1 0 1 0 0 2h10a1 1 0 1 0 0-2h-10Zm0 13a1 1 0 1 0 0 2H38a1 1 0 1 0 0-2H24.5Zm-1 8a1 1 0 0 1 1-1h9a1 1 0 1 1 0 2h-9a1 1 0 0 1-1-1Zm1-14.5a1 1 0 1 0 0 2H42a1 1 0 1 0 0-2H24.5Z"
          className="fillStrong"
          clipRule="evenodd"
        />
      </g>
    </g>
  </g>
</svg>
