<svg xmlns="http://www.w3.org/2000/svg" width="64" height="64" fill="none" viewBox="0 0 64 64">
    <g clip-path="url(#clip0_791_2094)">
        <path fill="#521094" d="M0 16C0 7.163 7.163 0 16 0h32c8.837 0 16 7.163 16 16v32c0 8.837-7.163 16-16 16H16C7.163 64 0 56.837 0 48z" class="fillWeak"/>
        <path fill="#521094" fill-rule="evenodd" d="M48 2H16C8.268 2 2 8.268 2 16v32c0 7.732 6.268 14 14 14h32c7.732 0 14-6.268 14-14V16c0-7.732-6.268-14-14-14M16 0C7.163 0 0 7.163 0 16v32c0 8.837 7.163 16 16 16h32c8.837 0 16-7.163 16-16V16c0-8.837-7.163-16-16-16z" class="fillWeak" clip-rule="evenodd"/>
        <path fill="#fff" fill-rule="evenodd" d="M25.493 12.883A1 1 0 0 0 23.5 13v5H23a5 5 0 0 0-5 5v.5h-5l-.117.007A1 1 0 0 0 13 25.5h5v3h-5l-.117.007A1 1 0 0 0 13 30.5h5v3h-5l-.117.007A1 1 0 0 0 13 35.5h5v3h-5l-.117.007A1 1 0 0 0 13 40.5h5v.5a5 5 0 0 0 5 5h.5v4.828l.007.117a1 1 0 0 0 1.993-.117V46h3v4.828l.007.117a1 1 0 0 0 1.993-.117V46h3v4.828l.007.117a1 1 0 0 0 1.993-.117V46h3v4.828l.007.117a1 1 0 0 0 1.993-.117V46h.5a5 5 0 0 0 5-5v-.5h4.828l.117-.007a1 1 0 0 0-.117-1.993H46v-3h4.828l.117-.007a1 1 0 0 0-.117-1.993H46v-3h4.828l.117-.007a1 1 0 0 0-.117-1.993H46v-3h4.828l.117-.007a1 1 0 0 0-.117-1.993H46V23a5 5 0 0 0-5-5h-.5v-5l-.007-.117A1 1 0 0 0 38.5 13v5h-3v-5l-.007-.117A1 1 0 0 0 33.5 13v5h-3v-5l-.007-.117A1 1 0 0 0 28.5 13v5h-3v-5zM44 24.5V23a3 3 0 0 0-2.824-2.995L41 20H23a3 3 0 0 0-2.995 2.824L20 23v18a3 3 0 0 0 2.824 2.995L23 44h18a3 3 0 0 0 2.995-2.824L44 41z" class="fill" clip-rule="evenodd"/>
        <path fill="#bf95f9" d="M30.5 30.49a1.64 1.64 0 0 0-.66-.67 2 2 0 0 0-.98-.23q-.62 0-1.1.28t-.75.8-.27 1.2q0 .7.27 1.22.28.52.77.8t1.14.28q.8 0 1.31-.42.51-.43.67-1.19h-2.4v-1.07h3.78v1.22a3.3 3.3 0 0 1-.6 1.35 3.4 3.4 0 0 1-1.19 1q-.72.37-1.62.37a3.74 3.74 0 0 1-1.83-.45 3.4 3.4 0 0 1-1.28-1.27q-.46-.81-.46-1.84t.46-1.84a3.3 3.3 0 0 1 1.28-1.27 3.66 3.66 0 0 1 1.82-.46q1.18 0 2.05.58.87.57 1.2 1.61zm7.907.06q0 .561-.27 1.05-.26.49-.83.79-.56.3-1.42.3h-1.17v2.68h-1.4v-6.98h2.57q.81 0 1.38.28t.85.77q.29.49.29 1.11m-2.58 1.01q.58 0 .86-.26.28-.27.28-.75 0-1.02-1.14-1.02h-1.11v2.03z" class="fillStrong"/>
    </g>
</svg>
