<svg xmlns="http://www.w3.org/2000/svg" width="64" height="64" fill="none" viewBox="0 0 64 64">
    <g clip-path="url(#clip0_791_2094)">
        <path fill="#521094" d="M0 16C0 7.16344 7.16344 0 16 0H48C56.8366 0 64 7.16344 64 16V48C64 56.8366 56.8366 64 48 64H16C7.16344 64 0 56.8366 0 48V16Z" class="fillWeak"/>
        <path fill="#521094" fill-rule="evenodd" d="M48 2H16C8.26801 2 2 8.26801 2 16V48C2 55.732 8.26801 62 16 62H48C55.732 62 62 55.732 62 48V16C62 8.26801 55.732 2 48 2ZM16 0C7.16344 0 0 7.16344 0 16V48C0 56.8366 7.16344 64 16 64H48C56.8366 64 64 56.8366 64 48V16C64 7.16344 56.8366 0 48 0H16Z" class="fillWeak" clip-rule="evenodd"/>
        <path fill="#fff" fill-rule="evenodd" d="M25.4933 12.8834C25.4355 12.386 25.0128 12 24.5 12C23.9477 12 23.5 12.4477 23.5 13V18H23C20.2386 18 18 20.2386 18 23V23.5H13L12.8834 23.5067C12.386 23.5645 12 23.9872 12 24.5C12 25.0523 12.4477 25.5 13 25.5H18V28.5H13L12.8834 28.5067C12.386 28.5645 12 28.9872 12 29.5C12 30.0523 12.4477 30.5 13 30.5H18V33.5H13L12.8834 33.5067C12.386 33.5645 12 33.9872 12 34.5C12 35.0523 12.4477 35.5 13 35.5H18V38.5H13L12.8834 38.5067C12.386 38.5645 12 38.9872 12 39.5C12 40.0523 12.4477 40.5 13 40.5H18V41C18 43.7614 20.2386 46 23 46H23.5V50.8283L23.5067 50.9449C23.5645 51.4422 23.9872 51.8283 24.5 51.8283C25.0523 51.8283 25.5 51.3806 25.5 50.8283V46H28.5V50.8283L28.5067 50.9449C28.5645 51.4422 28.9872 51.8283 29.5 51.8283C30.0523 51.8283 30.5 51.3806 30.5 50.8283V46H33.5V50.8283L33.5067 50.9449C33.5645 51.4422 33.9872 51.8283 34.5 51.8283C35.0523 51.8283 35.5 51.3806 35.5 50.8283V46H38.5V50.8283L38.5067 50.9449C38.5645 51.4422 38.9872 51.8283 39.5 51.8283C40.0523 51.8283 40.5 51.3806 40.5 50.8283V46H41C43.7614 46 46 43.7614 46 41V40.5H50.8283L50.9449 40.4933C51.4422 40.4355 51.8283 40.0128 51.8283 39.5C51.8283 38.9477 51.3806 38.5 50.8283 38.5H46V35.5H50.8283L50.9449 35.4933C51.4422 35.4355 51.8283 35.0128 51.8283 34.5C51.8283 33.9477 51.3806 33.5 50.8283 33.5H46V30.5H50.8283L50.9449 30.4933C51.4422 30.4355 51.8283 30.0128 51.8283 29.5C51.8283 28.9477 51.3806 28.5 50.8283 28.5H46V25.5H50.8283L50.9449 25.4933C51.4422 25.4355 51.8283 25.0128 51.8283 24.5C51.8283 23.9477 51.3806 23.5 50.8283 23.5H46V23C46 20.2386 43.7614 18 41 18H40.5V13L40.4933 12.8834C40.4355 12.386 40.0128 12 39.5 12C38.9477 12 38.5 12.4477 38.5 13V18H35.5V13L35.4933 12.8834C35.4355 12.386 35.0128 12 34.5 12C33.9477 12 33.5 12.4477 33.5 13V18H30.5V13L30.4933 12.8834C30.4355 12.386 30.0128 12 29.5 12C28.9477 12 28.5 12.4477 28.5 13V18H25.5V13L25.4933 12.8834ZM44 24.5V23C44 21.4023 42.7511 20.0963 41.1763 20.0051L41 20H23C21.4023 20 20.0963 21.2489 20.0051 22.8237L20 23V41C20 42.5977 21.2489 43.9037 22.8237 43.9949L23 44H24.5H29.5H34.5H39.5H41C42.5977 44 43.9037 42.7511 43.9949 41.1763L44 41V39.5V34.5V29.5V24.5Z" class="fill" clip-rule="evenodd"/>
        <path fill="#bf95f9" d="M30.501 30.491C30.341 30.197 30.121 29.974 29.841 29.821 29.561 29.667 29.234 29.591 28.861 29.591 28.447 29.591 28.081 29.684 27.761 29.871 27.441 30.057 27.191 30.324 27.011 30.671 26.831 31.017 26.741 31.417 26.741 31.871 26.741 32.337 26.831 32.744 27.011 33.091 27.197 33.437 27.454 33.704 27.781 33.891 28.107 34.077 28.487 34.171 28.921 34.171 29.454 34.171 29.891 34.031 30.231 33.751 30.571 33.464 30.794 33.067 30.901 32.561H28.501V31.491H32.281V32.711C32.187 33.197 31.987 33.647 31.681 34.061 31.374 34.474 30.977 34.807 30.491 35.061 30.011 35.307 29.471 35.431 28.871 35.431 28.197 35.431 27.587 35.281 27.041 34.981 26.501 34.674 26.074 34.251 25.761 33.711 25.454 33.171 25.301 32.557 25.301 31.871 25.301 31.184 25.454 30.571 25.761 30.031 26.074 29.484 26.501 29.061 27.041 28.761 27.587 28.454 28.194 28.301 28.861 28.301 29.647 28.301 30.331 28.494 30.911 28.881 31.491 29.261 31.891 29.797 32.111 30.491H30.501ZM38.407 30.551C38.407 30.924 38.317 31.274 38.137 31.601 37.963 31.927 37.687 32.191 37.307 32.391 36.933 32.591 36.46 32.691 35.887 32.691H34.717V35.371H33.317V28.391H35.887C36.427 28.391 36.887 28.484 37.267 28.671 37.647 28.857 37.93 29.114 38.117 29.441 38.31 29.767 38.407 30.137 38.407 30.551ZM35.827 31.561C36.213 31.561 36.5 31.474 36.687 31.301 36.873 31.121 36.967 30.871 36.967 30.551 36.967 29.871 36.587 29.531 35.827 29.531H34.717V31.561H35.827Z" class="fillStrong"/>
    </g>
</svg>
