<svg xmlns="http://www.w3.org/2000/svg" width="64" height="64" fill="none" viewBox="0 0 64 64">
    <path fill="#521094" d="M0 16C0 7.16344 7.16344 0 16 0H48C56.8366 0 64 7.16344 64 16V48C64 56.8366 56.8366 64 48 64H16C7.16344 64 0 56.8366 0 48V16Z" class="fillWeak"/>
    <path fill="#521094" fill-rule="evenodd" d="M48 2H16C8.26801 2 2 8.26801 2 16V48C2 55.732 8.26801 62 16 62H48C55.732 62 62 55.732 62 48V16C62 8.26801 55.732 2 48 2ZM16 0C7.16344 0 0 7.16344 0 16V48C0 56.8366 7.16344 64 16 64H48C56.8366 64 64 56.8366 64 48V16C64 7.16344 56.8366 0 48 0H16Z" class="fillWeak" clip-rule="evenodd"/>
    <path fill="#bf95f9" fill-rule="evenodd" d="M30.0636 8.20259C30.7438 7.93242 31.5015 7.93247 32.1816 8.20274L50.4295 15.4542C51.5146 15.8854 52.2415 16.9307 52.2368 18.1166C52.2009 27.0349 51.4147 46.1326 32.3826 55.7029C31.595 56.0989 30.6503 56.099 29.8626 55.7032C10.818 46.1331 10.0355 27.0351 10 18.1168C9.9953 16.9308 10.7224 15.8853 11.8077 15.4542L30.0636 8.20259ZM31.3471 10.3027C31.2028 10.2454 31.0421 10.2454 30.8978 10.3027L12.6419 17.5543C12.4036 17.6489 12.2588 17.8688 12.2597 18.1078C12.2952 27.0156 13.1285 44.7652 30.8773 53.6841C31.0264 53.759 31.2184 53.759 31.3674 53.6841C49.1043 44.765 49.9413 27.0153 49.9771 18.1076C49.978 17.8686 49.8332 17.6488 49.595 17.5541L31.3471 10.3027Z" class="fillStrong" clip-rule="evenodd"/>
    <path fill="#521094" d="M30.8738 43.2339L36.1935 37.8407C36.7506 37.2759 36.7716 36.375 36.2414 35.7848L30.592 29.4975C30.0094 28.8491 28.9988 28.8321 28.3948 29.4606L12.6822 45.8089C12.3912 46.1117 12.2404 46.5226 12.2666 46.9418L12.5293 51.1495C12.5809 51.9763 13.2931 52.6047 14.1199 52.5531L20.2505 52.1703C21.0196 52.1223 21.6272 51.4993 21.6559 50.7292L21.7232 48.9261C21.7378 48.5371 21.9029 48.169 22.1838 47.8996L25.9578 44.2793C26.2139 44.0337 26.5487 43.8868 26.9027 43.8647L29.8994 43.6776C30.2677 43.6546 30.6146 43.4966 30.8738 43.2339Z" class="fillWeak"/>
    <path fill="#fff" fill-rule="evenodd" d="M29.8482 30.1658C29.654 29.9497 29.3171 29.944 29.1158 30.1535L13.4032 46.5018C13.3062 46.6028 13.2559 46.7397 13.2646 46.8794L13.5274 51.0872C13.5446 51.3628 13.7819 51.5723 14.0576 51.5551L20.1881 51.1723C20.4445 51.1563 20.647 50.9486 20.6566 50.6919L20.7239 48.8888C20.7481 48.2405 21.0234 47.627 21.4916 47.1779L25.2656 43.5577C25.6923 43.1483 26.2503 42.9035 26.8404 42.8666L29.837 42.6795C29.9598 42.6719 30.0755 42.6192 30.1619 42.5316L35.4816 37.1385C35.6673 36.9502 35.6743 36.6499 35.4975 36.4532L29.8482 30.1658ZM27.6738 28.7676C28.6805 27.7202 30.3649 27.7485 31.3358 28.8291L36.9852 35.1165C37.8689 36.1 37.834 37.6016 36.9054 38.543L31.5857 43.9361C31.1538 44.374 30.5756 44.6373 29.9617 44.6757L26.9651 44.8628C26.847 44.8701 26.7354 44.9191 26.6501 45.001L22.8761 48.6212C22.7824 48.7111 22.7274 48.8338 22.7225 48.9634L22.6552 50.7665C22.6073 52.05 21.5947 53.0884 20.3128 53.1684L14.1822 53.5512C12.8042 53.6372 11.6173 52.5899 11.5313 51.2118L11.2685 47.0041C11.2249 46.3055 11.4762 45.6206 11.9612 45.1159L27.6738 28.7676Z" class="fill" clip-rule="evenodd"/>
    <path fill="#fff" fill-rule="evenodd" d="M30.7074 33.2928C31.0979 33.6833 31.0979 34.3165 30.7074 34.707L13.7074 51.707C13.3169 52.0975 12.6837 52.0975 12.2932 51.707C11.9026 51.3165 11.9026 50.6833 12.2932 50.2928L29.2932 33.2928C29.6837 32.9023 30.3169 32.9023 30.7074 33.2928Z" class="fill" clip-rule="evenodd"/>
    <path fill="#521094" d="M25.1339 30.3811C24.8569 29.9012 25.0228 29.2876 25.5039 29.0128L27.5118 27.8657C27.6304 27.7979 27.6884 27.6587 27.653 27.5268C27.1333 25.5891 27.1305 23.5531 27.644 21.6388C27.6794 21.5068 27.6213 21.3676 27.5026 21.2999L25.5055 20.161C25.024 19.8863 24.8577 19.2724 25.1349 18.7923L26.8654 15.7948C27.1424 15.315 27.7567 15.1519 28.2353 15.431L30.2326 16.5961C30.3506 16.665 30.5002 16.6456 30.5968 16.5491C31.3203 15.8264 32.1103 15.2155 32.9433 14.7346C33.7763 14.2536 34.7003 13.8749 35.6882 13.6086C35.8202 13.5732 35.9117 13.4534 35.9111 13.3168L35.9007 11.0045C35.8982 10.4504 36.3467 9.99999 36.9007 10L40.3619 10.0001C40.9163 10.0001 41.3648 10.451 41.3619 11.0054L41.3497 13.3044C41.349 13.441 41.4405 13.561 41.5725 13.5963C43.4882 14.109 45.2492 15.1298 46.6671 16.5481C46.7637 16.6447 46.9132 16.6641 47.0312 16.5953L49.0284 15.4307C49.5069 15.1516 50.1212 15.3147 50.3982 15.7945L52.1289 18.7922C52.4059 19.272 52.24 19.8857 51.7589 20.1605L49.751 21.3076C49.6324 21.3753 49.5744 21.5145 49.6098 21.6465C50.1298 23.5831 50.1326 25.6191 49.6188 27.5344C49.5834 27.6664 49.6415 27.8057 49.7602 27.8734L51.7573 29.0123C52.2388 29.2869 52.4051 29.9009 52.1279 30.381L50.3974 33.3785C50.1204 33.8583 49.5061 34.0214 49.0275 33.7423L47.0301 32.5772C46.9122 32.5083 46.7626 32.5277 46.666 32.6242C45.9425 33.3469 45.1532 33.9574 44.3195 34.4387C43.4865 34.9197 42.5625 35.2983 41.5746 35.5646C41.4426 35.6 41.3511 35.7199 41.3518 35.8565L41.3626 38.1683C41.3651 38.7224 40.9167 39.1729 40.3626 39.173L36.9011 39.1731C36.3467 39.1732 35.898 38.7221 35.9011 38.1676L35.9137 35.8685C35.9145 35.7319 35.823 35.6119 35.691 35.5766C33.7757 35.0645 32.0142 34.0431 30.5963 32.6248C30.4998 32.5282 30.3502 32.5088 30.2323 32.5776L28.2349 33.743C27.7563 34.0222 27.1419 33.8591 26.8649 33.3793L25.1339 30.3811Z" class="fillWeak"/>
    <path fill="#fff" fill-rule="evenodd" d="M30.5969 32.6248C30.5004 32.5282 30.3508 32.5088 30.2328 32.5776L28.2355 33.743C27.7569 34.0222 27.1425 33.8591 26.8655 33.3793L25.1345 30.3811C24.8575 29.9012 25.0234 29.2876 25.5045 29.0128L27.5124 27.8657C27.631 27.7979 27.689 27.6587 27.6536 27.5268C27.1339 25.5891 27.1311 23.5531 27.6446 21.6388C27.68 21.5068 27.6219 21.3676 27.5032 21.2999L25.5061 20.161C25.0245 19.8863 24.8583 19.2724 25.1355 18.7923L26.866 15.7948C27.143 15.315 27.7573 15.1519 28.2359 15.431L30.2332 16.5961C30.3512 16.665 30.5008 16.6456 30.5974 16.5491C31.3209 15.8264 32.1108 15.2155 32.9439 14.7346C33.7769 14.2536 34.7009 13.8749 35.6888 13.6086C35.8207 13.5732 35.9123 13.4534 35.9117 13.3168L35.9013 11.0045C35.8988 10.4504 36.3473 9.99999 36.9013 10L40.3625 10.0001C40.9169 10.0001 41.3654 10.451 41.3625 11.0054L41.3503 13.3044C41.3496 13.441 41.4411 13.561 41.5731 13.5963C43.4887 14.109 45.2498 15.1298 46.6677 16.5481C46.7643 16.6447 46.9138 16.6641 47.0318 16.5953L49.029 15.4307C49.5075 15.1516 50.1218 15.3147 50.3987 15.7945L52.1295 18.7922C52.4065 19.272 52.2406 19.8857 51.7595 20.1605L49.7516 21.3076C49.633 21.3753 49.575 21.5145 49.6103 21.6465C50.1303 23.5832 50.1332 25.6191 49.6193 27.5344C49.584 27.6664 49.6421 27.8057 49.7608 27.8734L51.7579 29.0123C52.2394 29.2869 52.4057 29.9009 52.1285 30.381L50.398 33.3785C50.121 33.8583 49.5066 34.0214 49.0281 33.7423L47.0307 32.5772C46.9127 32.5083 46.7632 32.5277 46.6666 32.6242C45.943 33.3469 45.1538 33.9574 44.3201 34.4387C43.487 34.9197 42.5631 35.2983 41.5752 35.5646C41.4432 35.6 41.3517 35.7199 41.3523 35.8565L41.3631 38.1683C41.3657 38.7224 40.9173 39.1729 40.3632 39.173L36.9017 39.1731C36.3473 39.1732 35.8986 38.7221 35.9017 38.1676L35.9143 35.8685C35.9151 35.7319 35.8236 35.6119 35.6916 35.5766C33.7763 35.0645 32.0148 34.0431 30.5969 32.6248ZM33.9075 37.0999C32.5543 36.5866 31.2903 35.8528 30.1673 34.9314L29.2434 35.4705C27.8077 36.3081 25.9646 35.8188 25.1334 34.3793L23.4024 31.3811C22.5713 29.9416 23.0691 28.1007 24.5124 27.2762L25.4412 26.7456C25.2046 25.3117 25.2016 23.8501 25.4335 22.422L24.5153 21.8983C23.0707 21.0744 22.5719 19.2326 23.4034 17.7924L25.1339 14.7948C25.9649 13.3554 27.8079 12.866 29.2436 13.7035L30.1656 14.2413C30.729 13.7758 31.3236 13.3606 31.9439 13.0025C32.5644 12.6442 33.2214 12.3369 33.9061 12.0815L33.9013 11.0134C33.8939 9.35132 35.2392 7.99997 36.9014 8L40.3625 8.00007C42.0256 8.00011 43.3713 9.35296 43.3624 11.016L43.3568 12.073C44.7102 12.5865 45.9743 13.3201 47.0976 14.2417L48.0214 13.703C49.4571 12.8657 51.2998 13.3552 52.1308 14.7945L53.8615 17.7922C54.6926 19.2317 54.1949 21.0726 52.7516 21.8971L51.823 22.4276C52.0597 23.8613 52.0626 25.3229 51.8305 26.7513L52.7487 27.275C54.1933 28.0989 54.6921 29.9407 53.8606 31.3809L52.13 34.3784C51.299 35.8179 49.456 36.3073 48.0203 35.4698L47.0984 34.932C46.5352 35.3973 45.9407 35.8124 45.3201 36.1708C44.6996 36.529 44.0428 36.8363 43.3581 37.0917L43.3631 38.159C43.3709 39.8212 42.0256 41.1729 40.3633 41.173L36.9018 41.1731C35.2385 41.1732 33.8926 39.82 33.9017 38.1566L33.9075 37.0999ZM35.1683 11.6776L35.1706 11.6769L35.6888 13.6086L35.1683 11.6776ZM42.0989 37.4949L42.0934 37.4963L41.5752 35.5646L42.0957 37.4957" class="fill" clip-rule="evenodd"/>
    <path fill="#fff" d="M41.523 28.583V22.087H43.563L44.618 25.069C44.662 25.206 44.711 25.385 44.766 25.606 44.822 25.826 44.878 26.065 44.936 26.321 44.997 26.573 45.053 26.818 45.102 27.053 45.152 26.821 45.205 26.578 45.263 26.325 45.322 26.069 45.378 25.831 45.433 25.61 45.489 25.389 45.538 25.209 45.582 25.069L46.619 22.087H48.669V28.583H47.33V25.518C47.33 25.356 47.333 25.148 47.339 24.895 47.348 24.642 47.355 24.37 47.361 24.08 47.369 23.789 47.375 23.507 47.378 23.234 47.305 23.524 47.228 23.816 47.147 24.11 47.068 24.404 46.993 24.674 46.92 24.921 46.848 25.165 46.785 25.364 46.733 25.518L45.656 28.583H44.535L43.441 25.518C43.392 25.37 43.33 25.177 43.258 24.938 43.188 24.7 43.112 24.438 43.031 24.154 42.95 23.866 42.871 23.577 42.796 23.286 42.801 23.548 42.807 23.821 42.813 24.106 42.822 24.388 42.829 24.654 42.835 24.904 42.841 25.151 42.844 25.356 42.844 25.518V28.583H41.523ZM38.051 28.68C37.269 28.68 36.644 28.501 36.176 28.143 35.711 27.783 35.47 27.258 35.453 26.569H36.748C36.771 26.898 36.902 27.145 37.14 27.311 37.381 27.473 37.681 27.555 38.038 27.555 38.393 27.555 38.678 27.479 38.893 27.328 39.111 27.174 39.22 26.973 39.22 26.726 39.22 26.503 39.121 26.331 38.923 26.212 38.729 26.093 38.454 25.989 38.099 25.902L37.384 25.724C36.835 25.59 36.405 25.381 36.094 25.096 35.783 24.808 35.627 24.429 35.627 23.958 35.627 23.565 35.732 23.222 35.941 22.929 36.153 22.635 36.442 22.407 36.809 22.244 37.178 22.081 37.598 22 38.069 22 38.548 22 38.967 22.083 39.324 22.249 39.682 22.411 39.961 22.64 40.162 22.933 40.362 23.224 40.465 23.559 40.471 23.94H39.185C39.162 23.679 39.05 23.477 38.849 23.334 38.652 23.192 38.387 23.121 38.056 23.121 37.716 23.121 37.452 23.192 37.266 23.334 37.083 23.474 36.992 23.653 36.992 23.871 36.992 24.112 37.095 24.292 37.301 24.411 37.511 24.53 37.753 24.623 38.029 24.69L38.618 24.834C38.981 24.918 39.31 25.04 39.603 25.2 39.897 25.357 40.13 25.562 40.301 25.815 40.473 26.065 40.558 26.372 40.558 26.735 40.558 27.325 40.337 27.797 39.896 28.152 39.457 28.504 38.842 28.68 38.051 28.68ZM29 28.583V22.087H30.33V24.712H33.16V22.087H34.494V28.583H33.16V25.815H30.33V28.583H29Z" class="fill"/>
</svg>
