<svg xmlns="http://www.w3.org/2000/svg" width="64" height="64" fill="none" viewBox="0 0 64 64">
    <path fill="#521094" d="M0 16C0 7.163 7.163 0 16 0h32c8.837 0 16 7.163 16 16v32c0 8.837-7.163 16-16 16H16C7.163 64 0 56.837 0 48z" class="fillWeak"/>
    <path fill="#521094" fill-rule="evenodd" d="M48 2H16C8.268 2 2 8.268 2 16v32c0 7.732 6.268 14 14 14h32c7.732 0 14-6.268 14-14V16c0-7.732-6.268-14-14-14M16 0C7.163 0 0 7.163 0 16v32c0 8.837 7.163 16 16 16h32c8.837 0 16-7.163 16-16V16c0-8.837-7.163-16-16-16z" class="fillWeak" clip-rule="evenodd"/>
    <path fill="#fff" d="M37.866 12c.33 0 .643.144.845.389l9.066 11A.96.96 0 0 1 48 24v24c0 1.5-1.067 3-3.2 3H19.2c-1.767 0-3.2-1.343-3.2-3V15c0-1.657 1.433-3 3.2-3zM19.2 14c-.589 0-1.066.448-1.066 1v33c0 .552.477 1 1.066 1h25.6c.533 0 1.066-.448 1.066-1V25H40c-1.767 0-3.2-1.343-3.2-3v-8zm19.734 8c0 .552.477 1 1.066 1h4.76l-5.826-7.07z" class="fill"/>
    <path fill="#bf95f9" fill-rule="evenodd" d="M29 31a3 3 0 0 0-3 3h-2a1 1 0 1 0 0 2h2v2h-2a1 1 0 1 0 0 2h2a3 3 0 0 0 3 3v2a1 1 0 1 0 2 0v-2h2v2a1 1 0 1 0 2 0v-2a3 3 0 0 0 3-3h2a1 1 0 1 0 0-2h-2v-2h2a1 1 0 1 0 0-2h-2a3 3 0 0 0-3-3v-2a1 1 0 1 0-2 0v2h-2v-2a1 1 0 1 0-2 0zm7 3a1 1 0 0 0-1-1h-6a1 1 0 0 0-1 1v6a1 1 0 0 0 1 1h6a1 1 0 0 0 1-1z" class="fillStrong" clip-rule="evenodd"/>
</svg>
