<svg xmlns="http://www.w3.org/2000/svg" width="64" height="64" fill="none" viewBox="0 0 64 64">
  <g class="sentiment=primary, size=xlarge, disabled=false">
    <g class="interlink-dedicated" clip-path="url(#a)">
      <g class=".Square">
        <path fill="#F1EEFC" d="M0 16C0 7.163 7.163 0 16 0h32c8.837 0 16 7.163 16 16v32c0 8.837-7.163 16-16 16H16C7.163 64 0 56.837 0 48V16Z" class="fillWeak"/>
      </g>
      <path fill="#A060F6" d="M20 33.501h8.24v13.044c0 .746.519 1.361 1.188 1.445l.157.01h6.822c.743 0 1.345-.651 1.345-1.455 0-.745-.52-1.36-1.188-1.444l-.157-.01H30.93V18.909h6.725c.69 0 1.258-.561 1.336-1.285l.009-.17c0-.745-.52-1.36-1.188-1.444l-.157-.01h-8.07c-.69 0-1.259.561-1.336 1.285l-.01.17v13.137H20v2.91Z" class="fillStrong"/>
      <path fill="#521094" d="M37.054 22c-.763 0-1.38.61-1.38 1.363v16.364c0 .754.617 1.364 1.38 1.364h16.565c.763 0 1.38-.61 1.381-1.364V23.363C55 22.61 54.381 22 53.62 22H37.053Zm15.185 2.727v13.636H38.435V24.727h13.804ZM15.051 26C11.709 26 9 28.686 9 32c0 3.313 2.709 6 6.05 6 2.82 0 5.19-1.912 5.862-4.5.16-1.2.067-2.5 0-3a6.046 6.046 0 0 0-5.861-4.5Zm0 3c1.67 0 3.026 1.343 3.026 3s-1.355 3-3.026 3c-1.671 0-3.026-1.343-3.026-3s1.355-3 3.026-3Z" class="fill"/>
    </g>
  </g>
  <defs>
    <clipPath id="a" class="a">
      <path fill="#fff" d="M64 0H0v64h64z"/>
    </clipPath>
  </defs>
</svg>
