<svg xmlns="http://www.w3.org/2000/svg" width="64" height="64" fill="none" viewBox="0 0 64 64">
    <path fill="#f1eefc" d="M0 16C0 7.163 7.163 0 16 0h32c8.837 0 16 7.163 16 16v32c0 8.837-7.163 16-16 16H16C7.163 64 0 56.837 0 48z" class="fillWeak"/>
    <path fill="#f1eefc" fill-rule="evenodd" d="M48 2H16C8.268 2 2 8.268 2 16v32c0 7.732 6.268 14 14 14h32c7.732 0 14-6.268 14-14V16c0-7.732-6.268-14-14-14M16 0C7.163 0 0 7.163 0 16v32c0 8.837 7.163 16 16 16h32c8.837 0 16-7.163 16-16V16c0-8.837-7.163-16-16-16z" class="fillWeak" clip-rule="evenodd"/>
    <path fill="#a060f6" fill-rule="evenodd" d="m53.857 35.484.015.029.015.028.023.047.027.065.01.025.016.056.013.05.006.037a1 1 0 0 1 .014.107l.003.052L54 36v13a1 1 0 0 1-1 1H11a1 1 0 0 1-1-1V36l.001-.02a1 1 0 0 1 .016-.159l.006-.037.013-.05q.007-.029.017-.056l.01-.025q.011-.033.026-.065l.023-.047.015-.028.016-.029 4.357-7.263v3.887L12.766 35h9.567l.147.01a1 1 0 0 1 .767.584L25.65 41h12.7l2.403-5.406.07-.13a1 1 0 0 1 .844-.464h9.567L49.5 32.108v-3.887zM12 48h40V37h-9.683l-2.403 5.406A1 1 0 0 1 39 43H25a1 1 0 0 1-.914-.594L21.683 37H12z" class="fillStrong" clip-rule="evenodd"/>
    <path fill="#521094" fill-rule="evenodd" d="M43.083 12a2.667 2.667 0 0 1 2.667 2.667V19h1.083a2.667 2.667 0 0 1 2.667 2.667V35h-2V22.564l-13.412 9.964a3.5 3.5 0 0 1-4.175 0L16.5 22.564V35h-2V21.667A2.667 2.667 0 0 1 17.167 19h1.083v-4.333A2.667 2.667 0 0 1 20.917 12zM31.106 30.923a1.5 1.5 0 0 0 1.788 0L46.253 21H17.748zM20.25 19h4.802l-4.802-3.567zm8.156 0h7.192l6.73-5H21.675zm10.545 0h4.799v-3.565z" class="fill" clip-rule="evenodd"/>
</svg>
