<svg xmlns="http://www.w3.org/2000/svg" width="64" height="64" fill="none" viewBox="0 0 64 64">
    <path fill="#f1eefc" d="M0 16C0 7.16344 7.16344 0 16 0H48C56.8366 0 64 7.16344 64 16V48C64 56.8366 56.8366 64 48 64H16C7.16344 64 0 56.8366 0 48V16Z" className="fillWeak"/>
    <path fill="#f1eefc" fill-rule="evenodd" d="M48 2H16C8.26801 2 2 8.26801 2 16V48C2 55.732 8.26801 62 16 62H48C55.732 62 62 55.732 62 48V16C62 8.26801 55.732 2 48 2ZM16 0C7.16344 0 0 7.16344 0 16V48C0 56.8366 7.16344 64 16 64H48C56.8366 64 64 56.8366 64 48V16C64 7.16344 56.8366 0 48 0H16Z" className="fillWeak" clip-rule="evenodd"/>
    <path fill="#a060f6" d="M37.793 49.293C38.184 48.902 38.817 48.902 39.207 49.293L42.207 52.293C42.598 52.683 42.598 53.316 42.207 53.707L39.207 56.707C38.817 57.097 38.184 57.097 37.793 56.707 37.403 56.316 37.403 55.683 37.793 55.293L39.086 54H23C22.448 54 22 53.552 22 53 22 52.448 22.448 52 23 52H39.086L37.793 50.707C37.403 50.316 37.403 49.683 37.793 49.293ZM27 30.5C27.828 30.5 28.5 31.172 28.5 32 28.5 32.828 27.828 33.5 27 33.5 26.172 33.5 25.5 32.828 25.5 32 25.5 31.172 26.172 30.5 27 30.5ZM32 30.5C32.828 30.5 33.5 31.172 33.5 32 33.5 32.828 32.828 33.5 32 33.5 31.172 33.5 30.5 32.828 30.5 32 30.5 31.172 31.172 30.5 32 30.5ZM37.793 7.293C38.184 6.902 38.817 6.902 39.207 7.293L42.207 10.293C42.598 10.683 42.598 11.316 42.207 11.707L39.207 14.707C38.817 15.097 38.184 15.097 37.793 14.707 37.403 14.316 37.403 13.683 37.793 13.293L39.086 12H23C22.448 12 22 11.552 22 11 22 10.448 22.448 10 23 10H39.086L37.793 8.707C37.403 8.316 37.403 7.683 37.793 7.293Z" className="fillStrong"/>
    <path fill="#521094" d="M27 37.5C27.828 37.5 28.5 38.172 28.5 39 28.5 39.828 27.828 40.5 27 40.5 26.172 40.5 25.5 39.828 25.5 39 25.5 38.172 26.172 37.5 27 37.5ZM32 37.5C32.828 37.5 33.5 38.172 33.5 39 33.5 39.828 32.828 40.5 32 40.5 31.172 40.5 30.5 39.828 30.5 39 30.5 38.172 31.172 37.5 32 37.5ZM37 37.5C37.828 37.5 38.5 38.172 38.5 39 38.5 39.828 37.828 40.5 37 40.5 36.172 40.5 35.5 39.828 35.5 39 35.5 38.172 36.172 37.5 37 37.5ZM27 23.5C27.828 23.5 28.5 24.172 28.5 25 28.5 25.828 27.828 26.5 27 26.5 26.172 26.5 25.5 25.828 25.5 25 25.5 24.172 26.172 23.5 27 23.5ZM32 23.5C32.828 23.5 33.5 24.172 33.5 25 33.5 25.828 32.828 26.5 32 26.5 31.172 26.5 30.5 25.828 30.5 25 30.5 24.172 31.172 23.5 32 23.5ZM37 23.5C37.828 23.5 38.5 24.172 38.5 25 38.5 25.828 37.828 26.5 37 26.5 36.172 26.5 35.5 25.828 35.5 25 35.5 24.172 36.172 23.5 37 23.5Z" className="fill"/>
    <path fill="#521094" fill-rule="evenodd" d="M40 18.5C41.657 18.5 43 19.843 43 21.5V42.5C43 44.157 41.657 45.5 40 45.5H24C22.343 45.5 21 44.157 21 42.5V21.5C21 19.843 22.343 18.5 24 18.5H40ZM24 20.5C23.448 20.5 23 20.948 23 21.5V42.5C23 43.052 23.448 43.5 24 43.5H40C40.552 43.5 41 43.052 41 42.5V21.5C41 20.948 40.552 20.5 40 20.5H24ZM16 23C16.552 23 17 23.448 17 24V40C17 40.552 16.552 41 16 41H8C7.448 41 7 40.552 7 40V24C7 23.448 7.448 23 8 23H16ZM9 39H15V25H9V39Z" className="fill" clip-rule="evenodd"/>
    <path fill="#521094" d="M56 23C56.5523 23 57 23.4477 57 24V40C57 40.5523 56.5523 41 56 41H48C47.4477 41 47 40.5523 47 40C47 39.4477 47.4477 39 48 39H55V25H48C47.4477 25 47 24.5523 47 24C47 23.4477 47.4477 23 48 23H56Z" className="fill"/>
</svg>
