<svg xmlns="http://www.w3.org/2000/svg" width="64" height="64" fill="none" viewBox="0 0 64 64">
    <path fill="#f1eefc" d="M0 16C0 7.16344 7.16344 0 16 0H48C56.8366 0 64 7.16344 64 16V48C64 56.8366 56.8366 64 48 64H16C7.16344 64 0 56.8366 0 48V16Z" className="fillWeak"/>
    <path fill="#f1eefc" fill-rule="evenodd" d="M48 2H16C8.26801 2 2 8.26801 2 16V48C2 55.732 8.26801 62 16 62H48C55.732 62 62 55.732 62 48V16C62 8.26801 55.732 2 48 2ZM16 0C7.16344 0 0 7.16344 0 16V48C0 56.8366 7.16344 64 16 64H48C56.8366 64 64 56.8366 64 48V16C64 7.16344 56.8366 0 48 0H16Z" className="fillWeak" clip-rule="evenodd"/>
    <path fill="#a060f6" d="M24.2628 19.3243C24.636 18.9172 25.2688 18.8896 25.6759 19.2628L31.6759 24.7628C31.8825 24.9522 32.0001 25.2198 32.0001 25.5001C32.0001 25.7804 31.8825 26.048 31.6759 26.2374L25.6759 31.7374C25.2688 32.1105 24.636 32.083 24.2628 31.6759C23.8896 31.2688 23.9172 30.636 24.3243 30.2628L29.5196 25.5001L24.3243 20.7374C23.9172 20.3642 23.8896 19.7314 24.2628 19.3243Z" className="fillStrong"/>
    <path fill="#521094" d="M32.002 10C32.188 10 32.373 10.004 32.559 10.012 32.617 10.014 32.675 10.018 32.732 10.022 32.866 10.029 32.999 10.037 33.132 10.048 33.161 10.05 33.191 10.052 33.22 10.055 33.233 10.056 33.246 10.058 33.259 10.06 35.03 10.222 36.776 10.729 38.402 11.579 38.42 11.587 38.437 11.596 38.454 11.605 38.48 11.618 38.506 11.633 38.532 11.648 38.633 11.701 38.733 11.757 38.832 11.814 38.9 11.852 38.969 11.89 39.036 11.93 39.194 12.023 39.352 12.119 39.507 12.219L50.859 19.522C50.929 19.566 50.997 19.612 51.064 19.658 51.088 19.675 51.112 19.694 51.137 19.711 51.179 19.741 51.22 19.771 51.261 19.802 51.359 19.876 51.455 19.951 51.548 20.029 51.578 20.054 51.607 20.08 51.636 20.106 51.658 20.125 51.681 20.144 51.703 20.163 51.72 20.178 51.735 20.194 51.751 20.21 52.946 21.293 53.664 22.724 53.905 24.228 53.909 24.244 53.913 24.261 53.916 24.277 53.923 24.325 53.928 24.372 53.935 24.42 53.939 24.451 53.944 24.482 53.947 24.514 53.96 24.621 53.971 24.728 53.979 24.836 53.982 24.884 53.985 24.932 53.987 24.981 53.988 24.987 53.988 24.994 53.988 25H54V39H53.985C53.985 39.008 53.984 39.016 53.983 39.024 53.978 39.13 53.97 39.236 53.96 39.341 53.957 39.37 53.954 39.399 53.951 39.429 53.945 39.485 53.94 39.542 53.933 39.598 53.928 39.631 53.922 39.664 53.914 39.696 53.692 41.166 52.998 42.577 51.825 43.658 51.807 43.677 51.789 43.697 51.77 43.715 51.744 43.738 51.718 43.759 51.692 43.781 51.663 43.807 51.634 43.832 51.605 43.856 51.585 43.873 51.565 43.89 51.545 43.906 51.499 43.944 51.452 43.982 51.404 44.02 51.385 44.035 51.365 44.05 51.346 44.065 51.301 44.099 51.254 44.132 51.208 44.166 51.185 44.183 51.161 44.2 51.138 44.217 51.116 44.232 51.094 44.248 51.072 44.263 51.027 44.294 50.981 44.326 50.935 44.356L46.182 47.461C46.179 47.463 46.177 47.464 46.175 47.466L40.553 51.137 40.549 51.141 39.683 51.706C39.521 51.812 39.356 51.912 39.191 52.011 39.141 52.041 39.09 52.07 39.039 52.1 38.925 52.166 38.811 52.23 38.696 52.293 38.666 52.309 38.637 52.327 38.607 52.343 38.591 52.352 38.574 52.358 38.557 52.366 36.899 53.243 35.114 53.767 33.303 53.937 33.285 53.939 33.268 53.943 33.25 53.944 33.208 53.948 33.165 53.949 33.122 53.952 33.008 53.961 32.894 53.969 32.78 53.976 32.709 53.98 32.638 53.984 32.566 53.987 32.378 53.995 32.189 54 32 54 31.583 54 31.166 53.982 30.75 53.944 30.2 53.895 29.794 53.408 29.844 52.858 29.893 52.309 30.379 51.903 30.929 51.952 31.614 52.014 32.303 52.014 32.988 51.957 34.62 51.822 36.231 51.352 37.721 50.546 38.015 50.387 38.305 50.217 38.589 50.031L45.081 45.791 45.083 45.789 49.841 42.683C49.865 42.667 49.887 42.65 49.91 42.634 50.082 42.517 50.242 42.393 50.392 42.261 51.296 41.464 51.819 40.389 51.958 39.262 51.986 39.035 52 38.807 51.997 38.579V38.464L51.999 38.09C51.999 38.087 51.999 38.084 51.999 38.081L52 37.994V30.306C51.944 30.362 51.884 30.414 51.826 30.469 51.811 30.485 51.796 30.502 51.779 30.518 51.758 30.537 51.735 30.555 51.714 30.574 51.684 30.601 51.654 30.627 51.624 30.653 51.535 30.73 51.444 30.805 51.35 30.878 51.219 30.979 51.085 31.078 50.945 31.171L46.185 34.338 46.184 34.34 39.691 38.66C39.524 38.771 39.354 38.877 39.184 38.981 39.158 38.996 39.132 39.012 39.106 39.027 38.97 39.108 38.834 39.186 38.696 39.262 38.67 39.276 38.645 39.293 38.618 39.308 38.603 39.316 38.586 39.323 38.57 39.33 36.909 40.227 35.118 40.763 33.3 40.936 33.285 40.938 33.269 40.941 33.254 40.942 33.219 40.946 33.184 40.946 33.148 40.949 33.008 40.961 32.868 40.97 32.728 40.978 32.683 40.98 32.638 40.983 32.593 40.985 32.396 40.994 32.199 41 32.002 41 31.99 41 31.977 40.999 31.965 40.998 31.558 40.997 31.152 40.98 30.746 40.942 30.196 40.892 29.792 40.405 29.842 39.856 29.892 39.306 30.379 38.901 30.929 38.951 31.614 39.014 32.303 39.014 32.988 38.956 34.621 38.818 36.235 38.338 37.727 37.514 38.017 37.353 38.303 37.182 38.583 36.995L39.448 36.419C39.453 36.416 39.458 36.412 39.463 36.409L45.075 32.675 45.08 32.672 49.837 29.506C50.034 29.375 50.215 29.231 50.384 29.079 51.29 28.266 51.813 27.169 51.957 26.026 52.014 25.57 52.011 25.108 51.947 24.652 51.788 23.511 51.249 22.42 50.331 21.621 50.16 21.472 49.975 21.332 49.776 21.204L38.425 13.901C38.418 13.897 38.411 13.893 38.404 13.889 38.135 13.716 37.86 13.556 37.582 13.407 36.12 12.625 34.545 12.169 32.952 12.039 32.72 12.02 32.487 12.009 32.254 12.004 32.17 12.002 32.086 12 32.002 12 31.997 12 31.992 11.999 31.987 11.999 31.644 11.999 31.3 12.015 30.957 12.046 30.407 12.095 29.922 11.688 29.873 11.139 29.824 10.589 30.23 10.104 30.78 10.055 31.187 10.019 31.594 10 32.002 10ZM23.161 49.756C23.463 49.294 24.083 49.164 24.545 49.466L25.411 50.031C25.713 50.229 26.022 50.411 26.335 50.578 26.822 50.838 27.006 51.445 26.746 51.932 26.486 52.419 25.88 52.603 25.393 52.343 25.028 52.148 24.669 51.935 24.317 51.706L23.451 51.141C22.989 50.839 22.859 50.218 23.161 49.756ZM17.535 46.082C17.837 45.62 18.457 45.489 18.919 45.791L20.65 46.922C21.113 47.224 21.242 47.843 20.94 48.306 20.639 48.768 20.019 48.899 19.557 48.597L17.825 47.466C17.363 47.164 17.233 46.544 17.535 46.082ZM12.156 42.303C12.526 41.893 13.158 41.859 13.568 42.229 13.749 42.391 13.945 42.543 14.158 42.683L15.024 43.248C15.487 43.55 15.616 44.17 15.315 44.632 15.012 45.094 14.393 45.224 13.931 44.922L13.065 44.356C12.766 44.161 12.487 43.946 12.231 43.715 11.82 43.345 11.787 42.713 12.156 42.303ZM11 37C11.552 37 12 37.448 12 38V38.423C12.001 38.439 12.003 38.456 12.003 38.473V38.579C12 38.829 12.015 39.08 12.049 39.327 12.123 39.874 11.74 40.378 11.193 40.453 10.646 40.528 10.142 40.145 10.067 39.598 10.04 39.399 10.023 39.2 10.013 39H10V38C10 37.448 10.448 37 11 37ZM23.165 36.697C23.471 36.238 24.092 36.113 24.552 36.419L25.417 36.995C25.718 37.196 26.025 37.382 26.338 37.552 26.823 37.816 27.003 38.423 26.738 38.908 26.474 39.393 25.867 39.571 25.382 39.308 25.018 39.109 24.659 38.893 24.309 38.66L23.443 38.084C22.984 37.778 22.859 37.157 23.165 36.697ZM17.538 32.953C17.844 32.493 18.465 32.369 18.925 32.675L20.656 33.827C21.116 34.133 21.24 34.753 20.935 35.213 20.629 35.672 20.008 35.798 19.548 35.492L17.816 34.34C17.357 34.034 17.232 33.413 17.538 32.953ZM11 31.5C11.552 31.5 12 31.948 12 32.5V34C12 34.552 11.552 35 11 35 10.448 35 10 34.552 10 34V32.5C10 31.948 10.448 31.5 11 31.5Z" className="fill"/>
    <path fill="#521094" d="M33.263 19.324C33.636 18.917 34.269 18.89 34.676 19.263L40.676 24.763C40.882 24.952 41 25.22 41 25.5 41 25.78 40.882 26.048 40.676 26.237L34.676 31.737C34.269 32.111 33.636 32.083 33.263 31.676 32.89 31.269 32.917 30.636 33.324 30.263L38.52 25.5 33.324 20.737C32.917 20.364 32.89 19.731 33.263 19.324ZM12.16 29.105C12.534 28.698 13.166 28.671 13.573 29.044 13.754 29.209 13.95 29.364 14.163 29.506L15.029 30.082C15.489 30.388 15.614 31.009 15.308 31.469 15.002 31.928 14.381 32.053 13.921 31.747L13.056 31.171C12.756 30.972 12.477 30.753 12.221 30.518 11.814 30.144 11.787 29.511 12.16 29.105ZM11.224 23.44C11.77 23.524 12.144 24.035 12.061 24.581 11.984 25.082 11.98 25.594 12.05 26.096 12.126 26.643 11.744 27.149 11.197 27.225 10.651 27.301 10.146 26.919 10.069 26.372 9.973 25.678 9.978 24.97 10.084 24.277 10.168 23.732 10.678 23.357 11.224 23.44ZM14.015 18.96C14.479 18.661 15.098 18.796 15.397 19.26 15.695 19.724 15.561 20.343 15.097 20.642L14.224 21.204C14.008 21.343 13.809 21.494 13.626 21.657 13.214 22.024 12.581 21.987 12.214 21.575 11.847 21.163 11.885 20.53 12.297 20.163 12.557 19.932 12.839 19.716 13.142 19.522L14.015 18.96ZM19.69 15.309C20.155 15.01 20.774 15.144 21.073 15.608 21.372 16.073 21.237 16.692 20.773 16.99L19.026 18.114C18.562 18.413 17.943 18.278 17.645 17.815 17.346 17.35 17.48 16.732 17.944 16.433L19.69 15.309ZM25.546 11.605C26.034 11.347 26.64 11.534 26.898 12.023 27.155 12.511 26.968 13.115 26.48 13.373 26.173 13.535 25.871 13.711 25.575 13.901L24.702 14.463C24.238 14.761 23.619 14.627 23.32 14.163 23.022 13.699 23.156 13.08 23.62 12.781L24.493 12.219C24.837 11.997 25.189 11.793 25.546 11.605Z" className="fill"/>
</svg>
