<svg xmlns="http://www.w3.org/2000/svg" width="64" height="64" fill="none" viewBox="0 0 64 64">
    <path fill="#f1eefc" d="M0 16C0 7.163 7.163 0 16 0h32c8.837 0 16 7.163 16 16v32c0 8.837-7.163 16-16 16H16C7.163 64 0 56.837 0 48z" className="fillWeak"/>
    <path fill="#f1eefc" fill-rule="evenodd" d="M48 2H16C8.268 2 2 8.268 2 16v32c0 7.732 6.268 14 14 14h32c7.732 0 14-6.268 14-14V16c0-7.732-6.268-14-14-14M16 0C7.163 0 0 7.163 0 16v32c0 8.837 7.163 16 16 16h32c8.837 0 16-7.163 16-16V16c0-8.837-7.163-16-16-16z" className="fillWeak" clip-rule="evenodd"/>
    <path fill="#a060f6" d="M24.263 19.324a1 1 0 0 1 1.413-.061l6 5.5a1 1 0 0 1 0 1.474l-6 5.5a1 1 0 0 1-1.352-1.474L29.52 25.5l-5.196-4.763a1 1 0 0 1-.061-1.413" className="fillStrong"/>
    <path fill="#521094" d="M32.002 10q.279 0 .557.012.087.004.173.01.2.01.4.026l.088.007q.02.001.039.005a13.8 13.8 0 0 1 5.195 1.544l.078.044q.15.08.3.165l.204.117q.238.14.47.289l11.353 7.303q.104.067.204.136l.074.053a7 7 0 0 1 .41.318l.089.076.067.058q.025.023.048.047a6.86 6.86 0 0 1 2.154 4.017l.011.05.019.143.012.094q.02.16.031.322l.01.145V25H54v14h-.015l-.002.024a7 7 0 0 1-.023.317l-.009.088-.018.169q-.007.05-.019.098a6.73 6.73 0 0 1-2.089 3.962q-.026.03-.056.057l-.077.066-.087.075-.06.05-.14.114-.06.044-.137.102-.07.05-.066.047q-.067.047-.137.093l-4.753 3.105-.007.005-5.622 3.67-.004.005-.866.565q-.244.158-.492.305l-.152.089q-.17.099-.343.193l-.089.05-.05.023a14 14 0 0 1-5.254 1.57q-.026.005-.053.008-.063.005-.128.008-.171.014-.342.024l-.214.011a14 14 0 0 1-1.816-.043 1 1 0 0 1 .179-1.992q1.03.092 2.06.005a12 12 0 0 0 4.732-1.411q.441-.239.868-.515l6.492-4.24.002-.002 4.758-3.106.07-.05q.256-.174.48-.372a4.75 4.75 0 0 0 1.567-3q.043-.34.04-.682v-.115l.001-.374v-.009l.001-.087v-7.688q-.086.082-.174.163l-.047.049q-.032.029-.065.056a6 6 0 0 1-.364.304q-.195.152-.405.293l-4.76 3.167-.001.002-6.493 4.32a14 14 0 0 1-.995.602l-.078.046-.048.022a13.8 13.8 0 0 1-5.27 1.605q-.022.005-.046.007l-.106.007q-.21.018-.42.029l-.135.007q-.296.014-.591.015l-.037-.002a14 14 0 0 1-1.219-.056 1 1 0 0 1 .183-1.99q1.03.092 2.06.004a11.85 11.85 0 0 0 4.738-1.442q.435-.24.856-.519l.865-.576.015-.01 5.612-3.734.005-.003 4.757-3.166a4.9 4.9 0 0 0 2.12-3.48 5.2 5.2 0 0 0-.01-1.374c-.16-1.141-.698-2.232-1.616-3.03a5 5 0 0 0-.555-.418l-11.351-7.303-.02-.012q-.406-.259-.823-.482a11.84 11.84 0 0 0-5.328-1.403Q32.128 12 32.002 12l-.015-.001q-.515 0-1.03.047a1 1 0 0 1-.177-1.991Q31.39 10 32.002 10m-8.841 39.756a1 1 0 0 1 1.384-.29l.866.565q.453.296.924.547a1 1 0 0 1-.942 1.765 14 14 0 0 1-1.076-.637l-.866-.565a1 1 0 0 1-.29-1.385m-5.626-3.674a1 1 0 0 1 1.384-.291l1.731 1.13a1 1 0 0 1-1.093 1.676l-1.732-1.131a1 1 0 0 1-.29-1.384m-5.379-3.779a1 1 0 0 1 1.412-.075q.27.245.59.455l.866.565a1 1 0 0 1-1.093 1.674l-.866-.566q-.45-.294-.835-.641a1 1 0 0 1-.074-1.412M11 37a1 1 0 0 1 1 1v.423l.003.05v.106q-.005.376.046.748a1 1 0 0 1-1.982.27 7 7 0 0 1-.054-.597H10v-1a1 1 0 0 1 1-1m12.165-.303a1 1 0 0 1 1.387-.278l.865.576q.452.301.92.557a1 1 0 1 1-.955 1.756 14 14 0 0 1-1.073-.648l-.866-.576a1 1 0 0 1-.278-1.387m-5.627-3.744a1 1 0 0 1 1.387-.278l1.731 1.152a1 1 0 0 1-1.108 1.665l-1.732-1.152a1 1 0 0 1-.278-1.387M11 31.5a1 1 0 0 1 1 1V34a1 1 0 1 1-2 0v-1.5a1 1 0 0 1 1-1" className="fill"/>
    <path fill="#521094" d="M33.263 19.324a1 1 0 0 1 1.413-.061l6 5.5a1 1 0 0 1 0 1.474l-6 5.5a1 1 0 0 1-1.352-1.474L38.52 25.5l-5.196-4.763a1 1 0 0 1-.061-1.413M12.16 29.105a1 1 0 0 1 1.413-.061q.27.248.59.462l.866.576a1 1 0 0 1-1.108 1.665l-.865-.576q-.45-.3-.835-.653a1 1 0 0 1-.06-1.413m-.937-5.665a1 1 0 0 1 .836 1.141c-.076.5-.08 1.013-.01 1.515a1.001 1.001 0 0 1-1.98.276 7.3 7.3 0 0 1 .014-2.095 1 1 0 0 1 1.14-.837m2.791-4.48a1 1 0 0 1 1.082 1.682l-.873.562q-.324.209-.598.453a1.001 1.001 0 0 1-1.33-1.494q.391-.348.846-.642zm5.675-3.651a1 1 0 0 1 1.082 1.681l-1.746 1.124a1 1 0 0 1-1.082-1.681zm5.856-3.704a1 1 0 0 1 .934 1.768q-.46.243-.905.528l-.873.562a1 1 0 0 1-1.082-1.682l.873-.562q.517-.332 1.053-.614" className="fill"/>
</svg>
