<svg xmlns="http://www.w3.org/2000/svg" width="64" height="64" fill="none" viewBox="0 0 64 64">
  <g class="sentiment=original, size=xlarge, disabled=false">
    <g class=".Square">
      <g class="fillWeak">
        <path fill="#521094" d="M0 16C0 7.163 7.163 0 16 0h32c8.837 0 16 7.163 16 16v32c0 8.837-7.163 16-16 16H16C7.163 64 0 56.837 0 48V16Z"/>
        <path fill="#521094" fill-rule="evenodd" d="M48 2H16C8.268 2 2 8.268 2 16v32c0 7.732 6.268 14 14 14h32c7.732 0 14-6.268 14-14V16c0-7.732-6.268-14-14-14ZM16 0C7.163 0 0 7.163 0 16v32c0 8.837 7.163 16 16 16h32c8.837 0 16-7.163 16-16V16c0-8.837-7.163-16-16-16H16Z" clip-rule="evenodd"/>
      </g>
    </g>
    <g class="fill">
      <path fill="#fff" fill-rule="evenodd" d="M32 31a5.895 5.895 0 1 0 0-11.79A5.895 5.895 0 0 0 32 31Zm0 2a7.895 7.895 0 1 0 0-15.79A7.895 7.895 0 0 0 32 33Zm-3 4.158a6 6 0 0 0-6 6v5.631a1 1 0 1 1-2 0v-5.631a8 8 0 0 1 8-8h10.5a1 1 0 1 1 0 2H29Z" clip-rule="evenodd"/>
      <path fill="#fff" fill-rule="evenodd" d="M32 11c-11.046 0-20 8.954-20 20s8.954 20 20 20l-1 1v1c-11.5-.5-21-9.85-21-22S19.85 9 32 9s22 9.85 22 22c0 2.345-.367 4.605-1.048 6.727l-1.904-.61A20 20 0 0 0 52 31c0-11.046-8.954-20-20-20Z" clip-rule="evenodd"/>
    </g>
    <path fill="#BF95F9" fill-rule="evenodd" d="M45.901 34.113a5.986 5.986 0 0 0-5.898 7.013c.157.906-.021 1.985-.798 2.762l-7.628 7.628c-.297.297-.464.7-.464 1.12v2.251H33.4v-1.584c0-.584.473-1.056 1.057-1.056h1.584v-1.585c0-.583.473-1.056 1.057-1.056h2.203l2.81-2.81c.777-.778 1.856-.956 2.762-.8a5.986 5.986 0 1 0 1.028-11.884Zm-8.098 5.986a8.099 8.099 0 1 1 6.711 7.98c-.415-.072-.736.039-.908.21l-3.12 3.12c-.198.198-.466.31-.747.31h-1.584v1.584c0 .583-.473 1.056-1.056 1.056h-1.585v1.585c0 .583-.473 1.056-1.056 1.056h-4.402A1.056 1.056 0 0 1 29 55.944v-3.308c0-.98.39-1.92 1.083-2.614l7.628-7.628c.171-.172.282-.493.21-.908a8.143 8.143 0 0 1-.118-1.387Zm7.042-3.521c0-.584.473-1.057 1.056-1.057A4.577 4.577 0 0 1 50.48 40.1a1.056 1.056 0 0 1-2.113 0 2.465 2.465 0 0 0-2.465-2.465 1.056 1.056 0 0 1-1.056-1.056Z" class="Vector" clip-rule="evenodd"/>
  </g>
</svg>
