<svg>
  <g className="Placement-Group">
    <g className="Placement-Group">
      <g className=".Square">
        <path
          fill="#EEF"
          d="M0 16C0 7.163 7.163 0 16 0h32c8.837 0 16 7.163 16 16v32c0 8.837-7.163 16-16 16H16C7.163 64 0 56.837 0 48V16Z"
          className="fillWeak"
        />
      </g>
      <path
        fill="#A365F6"
        fillRule="evenodd"
        d="M36 45h-8v-2h8v2Z"
        className="fillStrong"
        clipRule="evenodd"
      />
      <path
        fill="#4F0599"
        fillRule="evenodd"
        d="M50 38H38v12h12V38Zm-12-2a2 2 0 0 0-2 2v12a2 2 0 0 0 2 2h12a2 2 0 0 0 2-2V38a2 2 0 0 0-2-2H38Z"
        className="fill"
        clipRule="evenodd"
      />
      <path
        fill="#A365F6"
        fillRule="evenodd"
        d="M44 46a2 2 0 1 0 0-4 2 2 0 0 0 0 4Zm0 2a4 4 0 1 0 0-8 4 4 0 0 0 0 8Z"
        className="fillStrong"
        clipRule="evenodd"
      />
      <path
        fill="#4F0599"
        fillRule="evenodd"
        d="M26 38H14v12h12V38Zm-12-2a2 2 0 0 0-2 2v12a2 2 0 0 0 2 2h12a2 2 0 0 0 2-2V38a2 2 0 0 0-2-2H14Z"
        className="fill"
        clipRule="evenodd"
      />
      <path
        fill="#A365F6"
        fillRule="evenodd"
        d="M20 46a2 2 0 1 0 0-4 2 2 0 0 0 0 4Zm0 2a4 4 0 1 0 0-8 4 4 0 0 0 0 8Zm23-12v-8h2v8h-2Zm-24 0v-8h2v8h-2Zm17-15h-8v-2h8v2Z"
        className="fillStrong"
        clipRule="evenodd"
      />
      <path
        fill="#4F0599"
        fillRule="evenodd"
        d="M50 14H38v12h12V14Zm-12-2a2 2 0 0 0-2 2v12a2 2 0 0 0 2 2h12a2 2 0 0 0 2-2V14a2 2 0 0 0-2-2H38Z"
        className="fill"
        clipRule="evenodd"
      />
      <path
        fill="#A365F6"
        fillRule="evenodd"
        d="M44 22a2 2 0 1 0 0-4 2 2 0 0 0 0 4Zm0 2a4 4 0 1 0 0-8 4 4 0 0 0 0 8Z"
        className="fillStrong"
        clipRule="evenodd"
      />
      <path
        fill="#4F0599"
        fillRule="evenodd"
        d="M26 14H14v12h12V14Zm-12-2a2 2 0 0 0-2 2v12a2 2 0 0 0 2 2h12a2 2 0 0 0 2-2V14a2 2 0 0 0-2-2H14Z"
        className="fill"
        clipRule="evenodd"
      />
      <path
        fill="#A365F6"
        fillRule="evenodd"
        d="M20 22a2 2 0 1 0 0-4 2 2 0 0 0 0 4Zm0 2a4 4 0 1 0 0-8 4 4 0 0 0 0 8Z"
        className="fillStrong"
        clipRule="evenodd"
      />
    </g>
  </g>
</svg>
