<svg>
    <g className="Platinum-Support" clipPath="url(#b)">
        <g className=".Square">
            <path fill="#EEF" d="M0 16C0 7.163 7.163 0 16 0h32c8.837 0 16 7.163 16 16v32c0 8.837-7.163 16-16 16H16C7.163 64 0 56.837 0 48z" className="fillWeak"/>
        </g>
        <g className="icon">
            <path fill="#A365F6" d="M41.447 10.037a2 2 0 0 1 1.311.903l3.93 6.289a2 2 0 0 1-.183 2.368L33.89 34.175c-.33.38-.767.604-1.223.67a1 1 0 0 1-1.091-.146 2 2 0 0 1-.697-.508L17.978 19.606a2 2 0 0 1-.198-2.385l3.925-6.281a2 2 0 0 1 1.31-.902 1 1 0 0 1 .319-.037l.067-.001h17.661l.068.001a1 1 0 0 1 .317.036m-7.104 20.557L44.377 19h-6.358zM44.187 17l-2.753-4.405L38.987 17zm-4.71-5h-5.29l2.99 4.14zm-9.113 0H25.07l2.532 4.142L30.363 12Zm-7.304.546L20.276 17h5.506zM20.111 19h6.705l3.315 11.326zm15.22-2-3.066-4.246L29.434 17zM28.9 19l3.37 11.515L35.921 19z" className="fillStrong" clipRule="evenodd" fillRule="evenodd"/>
            <path fill="#4F0599" d="M50.232 11.134a1 1 0 1 0 1 1.732l2.598-1.5a1 1 0 0 0-1-1.732zm1.232 8.366a1 1 0 0 1 1-1h3a1 1 0 1 1 0 2h-3a1 1 0 0 1-1-1m-32.07 31.063-1.722-6.577a15.4 15.4 0 0 1 2.181-1.105c1.226-.503 2.61-.88 3.923-.88 1.33 0 2.992.385 4.579.905a30 30 0 0 1 3.794 1.537 1 1 0 0 0 .088.039l6.748 2.595c.207.08.354.268.382.488a.8.8 0 0 1-.001.268l-.011.037c-.474.49-1.599 1.143-3.108.778-2.227-.539-4.564-1.804-5.71-2.505a1 1 0 0 0-1.043 1.707c1.205.736 3.752 2.13 6.282 2.742 2.335.565 4.16-.442 5.024-1.34.592-.614.617-1.413.551-1.935a2.6 2.6 0 0 0-.116-.508 42 42 0 0 0 3.529-.637c2.187-.496 4.566-1.243 6.35-2.336.352-.172.749-.316 1.082-.316a.67.67 0 0 1 .349.08c.081.049.202.15.325.396s.137.414.128.521a.8.8 0 0 1-.142.367c-.182.276-.456.487-.763.723l-.056.043-13.397 7.38a7.4 7.4 0 0 1-1.991.41c-.89.061-1.835-.033-2.653-.41-2.04-.942-5.54-2.477-7.054-3.136-.901-.439-3.021-.906-5.461-.034-.94.335-1.615.56-2.085.704Zm24.927-6.341a38.5 38.5 0 0 1-5.108.8l-6.214-2.39a32 32 0 0 0-4.022-1.626C27.324 40.464 25.424 40 23.776 40c-1.667 0-3.32.471-4.682 1.03-.891.366-1.686.78-2.311 1.155a4 4 0 0 0-4.169-1.375l-2.873.77a1 1 0 0 0-.707 1.225l3.526 13.157a1 1 0 0 0 1.224.707l2.874-.77a4 4 0 0 0 2.926-3.306l.175-.051a49 49 0 0 0 2.393-.8c1.926-.689 3.499-.259 3.92-.048l.05.023c1.502.653 5.008 2.19 7.035 3.127 1.22.563 2.53.665 3.629.589s2.063-.334 2.65-.569a1 1 0 0 0 .11-.053l13.525-7.447q.07-.039.131-.087l.092-.07c.284-.215.847-.64 1.23-1.221.23-.348.42-.78.466-1.294.046-.52-.063-1.054-.332-1.592-.27-.539-.638-.951-1.096-1.222a2.66 2.66 0 0 0-1.366-.36c-.83 0-1.593.336-2.015.547a1 1 0 0 0-.08.044c-1.504.932-3.646 1.627-5.78 2.112Zm-33.096-.968 3.008 11.226 1.907-.511a2 2 0 0 0 1.414-2.45l-1.972-7.362a2 2 0 0 0-2.45-1.414l-1.907.51ZM49.866 26.5a1 1 0 0 0 .366 1.366l2.598 1.5a1 1 0 1 0 1-1.732l-2.598-1.5a1 1 0 0 0-1.366.366M12 18.5a1 1 0 1 1 0 2H9a1 1 0 1 1 0-2zm2.598-6a1 1 0 0 0-.366-1.366l-2.598-1.5a1 1 0 1 0-1 1.732l2.598 1.5a1 1 0 0 0 1.366-.366m-.366 15.366a1 1 0 0 0-1-1.732l-2.598 1.5a1 1 0 0 0 1 1.732z" className="fill" clipRule="evenodd" fillRule="evenodd"/>
        </g>
    </g>
</svg>
