<svg>
  <g className="Public-Gateway">
    <g className="Public-Gateway">
      <g className=".Square">
        <path
          fill="#EEF"
          d="M0 16C0 7.163 7.163 0 16 0h32c8.837 0 16 7.163 16 16v32c0 8.837-7.163 16-16 16H16C7.163 64 0 56.837 0 48V16Z"
          className="fillWeak"
        />
      </g>
      <path
        fill="#A365F6"
        fillRule="evenodd"
        d="M31 26V12.135h2V26h-2Zm17.63-5.215-10.904 6.627 1.039 1.71 10.904-6.628-1.04-1.71ZM37.689 36.287l.954-1.758 11.166 6.058-.953 1.758-11.167-6.058ZM31 51.88V38h2v13.881h-2Z"
        className="fillStrong"
        clipRule="evenodd"
      />
      <path
        fill="#4F0599"
        fillRule="evenodd"
        d="M32 5a4 4 0 0 0-.2 7.995L32 13a3.988 3.988 0 0 0 2.854-1.197l13.188 7.614a4.002 4.002 0 0 0 2.877 4.435v15.296a4.002 4.002 0 0 0-2.648 5.303l-13.417 7.746a3.988 3.988 0 0 0-2.654-1.192L32 51a4 4 0 0 0-.2 7.995L32 59a4 4 0 0 0 3.855-5.07l13.594-7.85c.644.535 1.46.871 2.351.915L52 47a4 4 0 0 0 .919-7.894V23.894a4.002 4.002 0 0 0-.72-7.89L52 16c-1.291 0-2.44.612-3.171 1.561l-12.974-7.49A4.004 4.004 0 0 0 32.2 5.005L32 5Zm2 50a2 2 0 1 0-4 0 2 2 0 0 0 4 0Zm20-12a2 2 0 1 0-4 0 2 2 0 0 0 4 0Zm0-23a2 2 0 1 0-4 0 2 2 0 0 0 4 0ZM34 9a2 2 0 1 0-4 0 2 2 0 0 0 4 0Zm-9 17a1 1 0 0 1 1-1h12a1 1 0 0 1 1 1v12a1 1 0 0 1-1 1H26a1 1 0 0 1-1-1v-5H11.692l4.32 3.886.082.083a1 1 0 0 1-1.42 1.404l-6.059-5.45a1 1 0 0 1-.142-1.773l6.201-5.578.091-.073a1 1 0 0 1 1.321.148l.073.091a1 1 0 0 1-.147 1.321L11.632 31H25v-5Zm2 1v10h10V27H27Z"
        className="fill"
        clipRule="evenodd"
      />
    </g>
  </g>
</svg>
