<svg>
  <g className="Container-Registry">
    <g className="Container-Registry">
      <g className=".Square">
        <path
          fill="#EEF"
          d="M0 16C0 7.163 7.163 0 16 0h32c8.837 0 16 7.163 16 16v32c0 8.837-7.163 16-16 16H16C7.163 64 0 56.837 0 48V16Z"
          className="fillWeak"
        />
      </g>
      <path
        fill="#4F0599"
        fillRule="evenodd"
        d="M49 33.947a2 2 0 0 1 2 2V49a2 2 0 0 1-2 2H35.947a2 2 0 0 1-2-2V35.947a2 2 0 0 1 2-2H49Zm0 2H35.947V49H49V35.947Zm-9.323 2.62a1 1 0 0 0-1.993.117v7.58l.007.116a1 1 0 0 0 1.993-.117v-7.579l-.007-.116Zm2.797-.883a1 1 0 0 1 .993.884l.007.116v7.58a1 1 0 0 1-1.994.116l-.006-.117v-7.579a1 1 0 0 1 1-1Zm4.782.884a1 1 0 0 0-1.993.116v7.579l.007.117a1 1 0 0 0 1.993-.117v-7.579l-.007-.116Zm-19.203-4.621a2 2 0 0 1 2 2V49a2 2 0 0 1-2 2H15a2 2 0 0 1-2-2V35.947a2 2 0 0 1 2-2h13.053Zm0 2H15V49h13.053V35.947Zm-9.323 2.62a1 1 0 0 0-1.993.117v7.58l.007.116a1 1 0 0 0 1.993-.117v-7.579l-.007-.116Zm2.796-.883a1 1 0 0 1 .994.884l.006.116v7.58a1 1 0 0 1-1.993.116l-.007-.117v-7.579a1 1 0 0 1 1-1Zm4.783.884a1 1 0 0 0-1.993.116v7.579l.006.117a1 1 0 0 0 1.994-.117v-7.579l-.007-.116Z"
        className="fill"
        clipRule="evenodd"
      />
      <path
        fill="#A365F6"
        fillRule="evenodd"
        d="M49.053 13a2 2 0 0 1 2 2v13.053a2 2 0 0 1-2 2H36a2 2 0 0 1-2-2V15a2 2 0 0 1 2-2h13.053Zm0 2H36v13.053h13.053V15Zm-9.323 2.62a1 1 0 0 0-1.993.117v7.579l.007.116a1 1 0 0 0 1.993-.116v-7.58l-.007-.116Zm2.796-.883a1 1 0 0 1 .994.883l.006.117v7.579a1 1 0 0 1-1.993.116l-.007-.116v-7.58a1 1 0 0 1 1-1Zm4.783.883a1 1 0 0 0-1.993.117v7.579l.006.116a1 1 0 0 0 1.994-.116v-7.58l-.007-.116Z"
        className="fillStrong"
        clipRule="evenodd"
      />
      <path
        fill="#4F0599"
        fillRule="evenodd"
        d="M28.053 13a2 2 0 0 1 2 2v13.053a2 2 0 0 1-2 2H15a2 2 0 0 1-2-2V15a2 2 0 0 1 2-2h13.053Zm0 2H15v13.053h13.053V15Zm-9.323 2.62a1 1 0 0 0-1.993.117v7.579l.007.116a1 1 0 0 0 1.993-.116v-7.58l-.007-.116Zm2.796-.883a1 1 0 0 1 .994.883l.006.117v7.579a1 1 0 0 1-1.993.116l-.007-.116v-7.58a1 1 0 0 1 1-1Zm4.783.883a1 1 0 0 0-1.993.117v7.579l.006.116a1 1 0 0 0 1.994-.116v-7.58l-.007-.116Z"
        className="fill"
        clipRule="evenodd"
      />
    </g>
  </g>
</svg>
