<svg xmlns="http://www.w3.org/2000/svg" width="64" height="64" fill="none" viewBox="0 0 64 64">
    <g class="Router">
        <g class="Router">
            <g class=".Square">
                <path fill="#F1EEFC" d="M0 16C0 7.163 7.163 0 16 0h32c8.837 0 16 7.163 16 16v32c0 8.837-7.163 16-16 16H16C7.163 64 0 56.837 0 48z" class="fillWeak"/>
            </g>
            <g fill-rule="evenodd" class="icon" clip-rule="evenodd">
                <g fill="#521094" class="fill">
                    <path d="M32 29a3 3 0 1 0 0 6 3 3 0 0 0 0-6m-5 3a5 5 0 1 1 10 0 5 5 0 0 1-10 0" class="fill"/>
                    <path d="M32 11c-11.598 0-21 9.402-21 21s9.402 21 21 21 21-9.402 21-21-9.402-21-21-21M9 32C9 19.297 19.297 9 32 9s23 10.297 23 23-10.297 23-23 23S9 44.703 9 32" class="fill"/>
                </g>
                <path fill="#A060F6" d="M44.707 28.293a1 1 0 0 1 0 1.414L43.414 31H50a1 1 0 1 1 0 2h-6.586l1.293 1.293a1 1 0 0 1-1.414 1.414l-3-3a1 1 0 0 1 0-1.414l3-3a1 1 0 0 1 1.414 0m-25.414 7.414a1 1 0 0 1 0-1.414L20.586 33H14a1 1 0 1 1 0-2h6.586l-1.293-1.293a1 1 0 0 1 1.414-1.414l3 3a1 1 0 0 1 0 1.414l-3 3a1 1 0 0 1-1.414 0m16.414-18a1 1 0 0 1-1.414 0L33 16.414V23a1 1 0 1 1-2 0v-6.586l-1.293 1.293a1 1 0 0 1-1.414-1.414l3-3a1 1 0 0 1 1.414 0l3 3a1 1 0 0 1 0 1.414m-7.414 28.586a1 1 0 0 1 1.414 0L31 47.586V41a1 1 0 1 1 2 0v6.586l1.293-1.293a1 1 0 0 1 1.414 1.414l-3 3a1 1 0 0 1-1.414 0l-3-3a1 1 0 0 1 0-1.414" class="fillStrong"/>
            </g>
        </g>
    </g>
</svg>
