<svg xmlns="http://www.w3.org/2000/svg" width="64" height="64" fill="none" viewBox="0 0 64 64">
    <path fill="#521094" d="M0 16C0 7.163 7.163 0 16 0h32c8.837 0 16 7.163 16 16v32c0 8.837-7.163 16-16 16H16C7.163 64 0 56.837 0 48z" class="fillWeak"/>
    <path fill="#521094" fill-rule="evenodd" d="M48 2H16C8.268 2 2 8.268 2 16v32c0 7.732 6.268 14 14 14h32c7.732 0 14-6.268 14-14V16c0-7.732-6.268-14-14-14M16 0C7.163 0 0 7.163 0 16v32c0 8.837 7.163 16 16 16h32c8.837 0 16-7.163 16-16V16c0-8.837-7.163-16-16-16z" class="fillWeak" clip-rule="evenodd"/>
    <path fill="#bf95f9" d="M19.932 17c5.53 0 10.355 3.02 12.934 7.501a1 1 0 0 1-1.732.998 13 13 0 0 0-5.445-5.142c1.054 1.427 1.893 3.227 2.46 5.248a1 1 0 0 1-1.925.54c-.625-2.222-1.579-4.042-2.701-5.286-.818-.905-1.697-1.477-2.591-1.721V31H24a1 1 0 1 1 0 2h-3.068v11.861c.894-.244 1.773-.815 2.59-1.72 1.124-1.244 2.078-3.064 2.702-5.286a1 1 0 0 1 1.925.54c-.567 2.02-1.406 3.82-2.46 5.247a13 13 0 0 0 5.445-5.141 1 1 0 0 1 1.732.998C30.287 43.979 25.462 47 19.932 47 11.68 47 5 40.28 5 32s6.68-15 14.932-15m-7.043 16c.14 3.316.971 6.257 2.206 8.4 1.106 1.92 2.456 3.082 3.837 3.461V33zm-5.85 0a13 13 0 0 0 7.14 10.645 13 13 0 0 1-.818-1.247c-1.43-2.483-2.332-5.78-2.473-9.398zm11.893-13.862c-1.381.379-2.73 1.541-3.837 3.462-1.235 2.143-2.066 5.084-2.206 8.4h6.043zm-4.753 1.217A13 13 0 0 0 7.039 31h3.849c.141-3.618 1.042-6.915 2.473-9.398q.38-.659.818-1.247" class="fillStrong"/>
    <path fill="#fff" d="m45.297 20.001 5.134.22.2.028c.517.125.86.634.778 1.165l-.044.177-1.666 4.942-.075.171c-.208.377-.63.586-1.054.523l-.181-.044-.17-.076a1.04 1.04 0 0 1-.521-1.058l.043-.182.636-1.886-13.326 6.691q.047.142.085.288h18.753l-1.67-1.239-.14-.124a1.04 1.04 0 0 1-.077-1.327 1.03 1.03 0 0 1 1.286-.316l.16.098 4.133 3.065.15.135c.355.39.36.994.01 1.389l-.148.137-4.134 3.16-.158.1a1.03 1.03 0 0 1-1.164-.158l-.126-.138-.1-.159a1.04 1.04 0 0 1 .159-1.17l.137-.125 1.633-1.252-18.704.002a4 4 0 0 1-.085.29l13.326 6.691-.636-1.886-.043-.182a1.04 1.04 0 0 1 .52-1.058l.17-.076.182-.044c.424-.063.846.146 1.053.523l.076.171 1.666 4.942.044.177a1.04 1.04 0 0 1-.779 1.165l-.2.028-5.133.22a1.035 1.035 0 0 1-1.076-.992 1.04 1.04 0 0 1 .803-1.057l.185-.025 2.158-.092-13.456-6.759a4.1 4.1 0 0 1-2.483 1.067l-.295.01A4.143 4.143 0 0 1 27 32a4.144 4.144 0 0 1 3.838-4.14l.295-.011c1.07 0 2.044.407 2.778 1.076l13.456-6.758-2.158-.092-.185-.025a1.04 1.04 0 0 1-.803-1.056A1.035 1.035 0 0 1 45.297 20m-14.164 9.788c-1.215 0-2.201.99-2.201 2.21 0 1.222.986 2.212 2.201 2.212s2.202-.99 2.202-2.211-.986-2.211-2.202-2.211" class="fill"/>
</svg>
