<svg>
  <g className="Server">
    <g className=".Square">
      <path
        fill="#EEF"
        d="M0 16C0 7.163 7.163 0 16 0h32c8.837 0 16 7.163 16 16v32c0 8.837-7.163 16-16 16H16C7.163 64 0 56.837 0 48V16Z"
        className="fillWeak"
      />
    </g>
    <g className="Server-icon">
      <g className="Icon">
        <path
          fill="#4F0599"
          fillRule="evenodd"
          d="M48.554 22h-31.34A7.214 7.214 0 0 0 10 29.214v7.025a7.214 7.214 0 0 0 7.214 7.214h31.34a7.214 7.214 0 0 0 7.214-7.214v-7.025A7.214 7.214 0 0 0 48.554 22Zm-31.34 2h31.34a5.214 5.214 0 0 1 5.214 5.214v7.025a5.214 5.214 0 0 1-5.214 5.214h-31.34A5.214 5.214 0 0 1 12 36.239v-7.025A5.214 5.214 0 0 1 17.214 24Zm30.865 8.727a1 1 0 0 0-1-1H30.453l-.18.016a1 1 0 0 0 .18 1.984h16.626l.18-.016a1 1 0 0 0 .82-.984Z"
          className="fill"
          clipRule="evenodd"
        />
        <path
          fill="#A365F6"
          fillRule="evenodd"
          d="M25.59 32.726a4.863 4.863 0 1 0-9.727 0 4.863 4.863 0 0 0 9.727 0Zm-7.727 0a2.863 2.863 0 1 1 5.727 0 2.863 2.863 0 0 1-5.727 0Z"
          className="fillStrong"
          clipRule="evenodd"
        />
      </g>
    </g>
  </g>
</svg>
