<svg>
    <g className="Silver-Support" clipPath="url(#b)">
        <g className=".Square">
            <path fill="#EEF" d="M0 16C0 7.163 7.163 0 16 0h32c8.837 0 16 7.163 16 16v32c0 8.837-7.163 16-16 16H16C7.163 64 0 56.837 0 48z" className="fillWeak"/>
        </g>
        <g className="icon">
            <g fill="#A365F6" className="fillStrong">
                <path d="m23.25 11.667-.03.096a3.25 3.25 0 0 1-1.4-1.678 3.25 3.25 0 0 1-.048-2.186l.086.052c.468.3 1.005.8 1.315 1.626.31.827.233 1.556.077 2.09m-1.734-6.036-.228.97za1 1 0 0 0-1.039.389l.811.584-.811-.583h-.001l-.001.002-.003.004-.007.01-.019.027-.055.085a5.4 5.4 0 0 0-.567 1.283 5.25 5.25 0 0 0 .124 3.354 5.25 5.25 0 0 0 2.11 2.61 5.4 5.4 0 0 0 1.272.594l.097.028.032.008.011.003h.005l.002.001c.001 0 .002 0 .23-.973l-.228.974a1 1 0 0 0 1.039-.39l-.812-.584.812.584v-.001l.002-.002.003-.004.007-.01.018-.027a4 4 0 0 0 .219-.37c.126-.238.28-.578.403-.998a5.25 5.25 0 0 0-.123-3.354 5.25 5.25 0 0 0-2.111-2.609 5.4 5.4 0 0 0-.96-.487 4 4 0 0 0-.408-.135l-.032-.008-.012-.003-.004-.001zm19.234 6.036.03.096.085-.053a3.25 3.25 0 0 0 1.316-1.626 3.25 3.25 0 0 0 .047-2.185 3.25 3.25 0 0 0-1.4 1.679 3.25 3.25 0 0 0-.078 2.09Zm1.734-6.036.228.97-.227-.97a1 1 0 0 1 1.04.389l-.81.583.81-.582.001.002.003.004.007.01.019.027.055.085q.066.105.164.285c.126.239.28.578.403.998a5.25 5.25 0 0 1-.124 3.354 5.25 5.25 0 0 1-2.11 2.61 5.4 5.4 0 0 1-1.271.594l-.097.028-.033.008-.011.003h-.005l-.002.001c-.001 0-.002 0-.23-.973-.81.585-.81.584-.811.584v-.001l-.002-.002-.003-.004-.007-.01-.018-.027a4 4 0 0 1-.219-.37 5.4 5.4 0 0 1-.403-.998 5.25 5.25 0 0 1 .123-3.354 5.25 5.25 0 0 1 2.111-2.609c.37-.235.708-.39.96-.487a4 4 0 0 1 .408-.135l.032-.008.012-.003.004-.001h.002zm-2.19 7.426.228.974a1 1 0 0 1-1.038-.39zm2.593 4.947.013-.1a3.25 3.25 0 0 1 .935-1.87 3.25 3.25 0 0 1 1.97-.948 3.25 3.25 0 0 1-.948 1.97 3.25 3.25 0 0 1-1.97.948m3.895-3.895.195-.98v-.001h-.003l-.005-.001-.011-.003-.033-.005a4 4 0 0 0-.427-.046 5.4 5.4 0 0 0-1.076.046 5.25 5.25 0 0 0-3.001 1.5 5.25 5.25 0 0 0-1.501 3.003 5.4 5.4 0 0 0-.016 1.403l.015.1.006.032.002.012.001.005v.002c0 .001.001.001.982-.195l-.981.196a1 1 0 0 0 .785.785l.196-.98-.196.98h.003l.005.002.012.002.032.005.1.016a5.4 5.4 0 0 0 1.403-.015 5.25 5.25 0 0 0 3.002-1.502c1-1 1.377-2.131 1.501-3.002a5.4 5.4 0 0 0 .015-1.403l-.015-.1-.005-.032-.003-.012v-.004l-.001-.002v-.001zm0 0 .98-.196a1 1 0 0 0-.784-.785zm-25.681 3.796.012.1a3.25 3.25 0 0 1-1.97-.948 3.25 3.25 0 0 1-.948-1.97l.1.012a3.25 3.25 0 0 1 1.87.935c.625.625.857 1.32.936 1.87Zm-4.078-4.777.195.979za1 1 0 0 0-.784.785l.98.196-.98-.195-.001.003-.001.004-.002.012-.006.033a4 4 0 0 0-.046.427 5.4 5.4 0 0 0 .046 1.075 5.25 5.25 0 0 0 1.501 3.002c1 1 2.132 1.377 3.002 1.501a5.4 5.4 0 0 0 1.076.047 4 4 0 0 0 .427-.047l.032-.005.012-.002.005-.001h.002c.001-.001.002-.001-.195-.982l.197.98a1 1 0 0 0 .784-.784l-.98-.196.98.195v-.002l.002-.005.002-.012.006-.032.015-.1a5.4 5.4 0 0 0-.015-1.403 5.25 5.25 0 0 0-1.502-3.002 5.25 5.25 0 0 0-3.001-1.501 5.4 5.4 0 0 0-1.076-.046 4 4 0 0 0-.427.046l-.033.005-.011.003h-.005zm24.733 10.955a3.25 3.25 0 0 1 1.922-1.042 3.25 3.25 0 0 1 2.152.384 3.25 3.25 0 0 1-1.922 1.042 3.25 3.25 0 0 1-2.152-.384m5.438-.878.733-.681-.002-.002-.004-.004-.008-.008-.023-.024a4 4 0 0 0-.32-.287 5.4 5.4 0 0 0-.898-.592 5.25 5.25 0 0 0-3.313-.54 5.25 5.25 0 0 0-2.974 1.555 5.4 5.4 0 0 0-.667.845 4 4 0 0 0-.213.373l-.014.03-.005.01-.002.005-.001.002v.001l.909.416-.91-.415a1 1 0 0 0 .177 1.095l.733-.68-.732.68v.001l.002.002.003.004.008.008.023.024.072.07a5.4 5.4 0 0 0 1.147.809 5.25 5.25 0 0 0 3.312.54 5.25 5.25 0 0 0 2.974-1.555c.304-.315.523-.617.668-.845a4 4 0 0 0 .212-.374l.015-.03.005-.01.002-.005v-.002c.001 0 .001-.001-.909-.416m0 0 .91.415a1 1 0 0 0-.177-1.095zm-25.019.805.069.073a3.25 3.25 0 0 1-2.152.384 3.25 3.25 0 0 1-1.922-1.042l.088-.047a3.25 3.25 0 0 1 2.064-.337c.872.14 1.467.569 1.853.97Zm-6.102-1.486.73.68za1 1 0 0 0-.177 1.096l.909-.415c-.91.415-.909.415-.909.416l.002.003.002.004.005.01.014.03q.017.036.046.09a5.4 5.4 0 0 0 .834 1.129 5.25 5.25 0 0 0 2.974 1.555 5.25 5.25 0 0 0 3.312-.54 5.4 5.4 0 0 0 1.147-.809l.072-.07.023-.024.008-.008.003-.004.002-.002-.732-.681.733.68a1 1 0 0 0 .177-1.095l-.91.415.91-.416-.002-.003-.002-.004-.005-.01-.014-.03a4 4 0 0 0-.213-.373 5.4 5.4 0 0 0-.667-.846 5.25 5.25 0 0 0-2.974-1.555 5.25 5.25 0 0 0-3.312.54 5.4 5.4 0 0 0-1.147.808l-.072.071-.023.024-.008.008-.003.004-.002.001v.001Zm21.407 7.019.08.061a3.25 3.25 0 0 0 1.983.662 3.25 3.25 0 0 0 2.063-.723 3.25 3.25 0 0 0-2.063-.723 3.25 3.25 0 0 0-2.063.723m5.517-.006c.824-.549.823-.55.823-.55l-.002-.002-.002-.004-.007-.01-.02-.027a4 4 0 0 0-.27-.335 5.4 5.4 0 0 0-.792-.727 5.25 5.25 0 0 0-3.184-1.062 5.25 5.25 0 0 0-3.184 1.062 5.4 5.4 0 0 0-1.003.98l-.036.05L32 32.52l-3.32-3.608a4 4 0 0 0-.246-.302 5.4 5.4 0 0 0-.793-.728 5.25 5.25 0 0 0-3.184-1.062 5.25 5.25 0 0 0-3.184 1.062 5.4 5.4 0 0 0-1.003.98l-.06.082-.018.027-.007.01-.003.004-.001.002s-.001.001.822.55l-.823-.549a1 1 0 0 0 0 1.11l.832-.555-.832.556.002.002.003.004.007.01.018.027.06.081a5.4 5.4 0 0 0 1.003.981 5.25 5.25 0 0 0 3.184 1.062 5.25 5.25 0 0 0 3.433-1.26l2.751 2.991-1.883 2.047a1 1 0 1 0 1.472 1.354L32 35.474l1.77 1.924a1 1 0 0 0 1.472-1.354l-1.883-2.047 2.751-2.99q.116.098.25.197a5.25 5.25 0 0 0 3.183 1.062 5.25 5.25 0 0 0 3.184-1.062 5.4 5.4 0 0 0 1.003-.98l.06-.082.019-.027.007-.01.002-.004.001-.002h.001l-.831-.556.832.555a1 1 0 0 0 0-1.11zm-16.556.067.08-.061a3.25 3.25 0 0 0-2.063-.723 3.25 3.25 0 0 0-2.064.723l.08.061a3.25 3.25 0 0 0 1.983.662 3.25 3.25 0 0 0 1.984-.662m.634-.623" className="fillStrong" clipRule="evenodd" fillRule="evenodd"/>
                <path d="M31.63 13.8a.5.5 0 0 1 .897 0l1.291 2.616a.5.5 0 0 0 .377.274l2.888.42a.5.5 0 0 1 .277.852L35.27 20a.5.5 0 0 0-.144.442l.494 2.877a.5.5 0 0 1-.726.527l-2.583-1.358a.5.5 0 0 0-.465 0l-2.584 1.358a.5.5 0 0 1-.725-.527l.493-2.877a.5.5 0 0 0-.144-.442l-2.09-2.038a.5.5 0 0 1 .278-.852l2.888-.42a.5.5 0 0 0 .376-.274z" className="fillStrong"/>
            </g>
            <path fill="#4F0599" d="M52.5 13.634a1 1 0 1 0 1 1.732l2.598-1.5a1 1 0 1 0-1-1.732zM53.732 22a1 1 0 0 1 1-1h3a1 1 0 1 1 0 2h-3a1 1 0 0 1-1-1M19.395 50.563l-1.723-6.577a15.4 15.4 0 0 1 2.181-1.105c1.226-.503 2.61-.88 3.923-.88 1.33 0 2.992.385 4.579.905a30 30 0 0 1 3.793 1.537 1 1 0 0 0 .089.039l6.748 2.595c.207.08.354.268.382.488a.9.9 0 0 1-.001.268l-.011.037c-.474.49-1.599 1.143-3.109.778-2.226-.539-4.563-1.804-5.71-2.505a1 1 0 0 0-1.043 1.707c1.206.736 3.753 2.13 6.283 2.742 2.335.565 4.16-.442 5.024-1.34.591-.614.616-1.413.551-1.935a2.6 2.6 0 0 0-.116-.508 42 42 0 0 0 3.528-.637c2.188-.496 4.567-1.243 6.35-2.336.352-.172.75-.316 1.083-.316a.67.67 0 0 1 .349.08c.08.049.202.15.324.396.124.246.138.414.128.521a.8.8 0 0 1-.14.367c-.183.276-.458.487-.764.723l-.056.043-13.397 7.38a7.4 7.4 0 0 1-1.991.41c-.89.061-1.835-.033-2.653-.41-2.04-.942-5.54-2.477-7.055-3.136-.9-.439-3.02-.906-5.46-.034-.94.335-1.616.56-2.085.704Zm24.926-6.341a38.5 38.5 0 0 1-5.108.8l-6.214-2.39a32 32 0 0 0-4.022-1.626C27.323 40.464 25.424 40 23.776 40c-1.667 0-3.32.471-4.682 1.03-.892.366-1.686.78-2.311 1.155a4 4 0 0 0-4.169-1.375l-2.873.77a1 1 0 0 0-.707 1.225l3.525 13.157a1 1 0 0 0 1.225.707l2.873-.77a4 4 0 0 0 2.927-3.306l.175-.051a49 49 0 0 0 2.393-.8c1.926-.689 3.499-.259 3.92-.048l.027.013.022.01c1.503.653 5.008 2.19 7.036 3.127 1.22.563 2.53.665 3.628.589 1.1-.076 2.064-.334 2.65-.569a1 1 0 0 0 .111-.053l13.524-7.447a1 1 0 0 0 .132-.087l.092-.07c.284-.215.847-.64 1.23-1.221.23-.348.42-.78.466-1.294.045-.52-.063-1.054-.332-1.592-.27-.539-.638-.951-1.096-1.222a2.66 2.66 0 0 0-1.366-.36c-.83 0-1.593.336-2.015.547a1 1 0 0 0-.08.044c-1.505.932-3.646 1.627-5.78 2.112Zm-33.096-.968 3.008 11.226 1.907-.511a2 2 0 0 0 1.414-2.45l-1.973-7.362a2 2 0 0 0-2.45-1.414l-1.906.51ZM52.134 29a1 1 0 0 0 .366 1.366l2.598 1.5a1 1 0 1 0 1-1.732l-2.598-1.5a1 1 0 0 0-1.366.366M9 21a1 1 0 1 1 0 2H6a1 1 0 1 1 0-2zm2.598-6a1 1 0 0 0-.366-1.366l-2.598-1.5a1 1 0 1 0-1 1.732l2.598 1.5A1 1 0 0 0 11.598 15m-.366 15.366a1 1 0 1 0-1-1.732l-2.598 1.5a1 1 0 0 0 1 1.732z" className="fill" clipRule="evenodd" fillRule="evenodd"/>
        </g>
    </g>
</svg>
