<svg xmlns="http://www.w3.org/2000/svg" width="64" height="64" fill="none" viewBox="0 0 64 64">
  <g class="sentiment=original, size=xlarge, disabled=false" clip-path="url(#a)">
    <g class=".Square">
      <g class="fillWeak">
        <path fill="#521094" d="M0 16C0 7.163 7.163 0 16 0h32c8.837 0 16 7.163 16 16v32c0 8.837-7.163 16-16 16H16C7.163 64 0 56.837 0 48V16Z"/>
        <path fill="#521094" fill-rule="evenodd" d="M48 2H16C8.268 2 2 8.268 2 16v32c0 7.732 6.268 14 14 14h32c7.732 0 14-6.268 14-14V16c0-7.732-6.268-14-14-14ZM16 0C7.163 0 0 7.163 0 16v32c0 8.837 7.163 16 16 16h32c8.837 0 16-7.163 16-16V16c0-8.837-7.163-16-16-16H16Z" clip-rule="evenodd"/>
      </g>
    </g>
    <g class="icon">
      <g class="fill">
        <path fill="#fff" d="M48.413 45.293a1 1 0 0 1 1.414 0l3 3a1 1 0 0 1 0 1.414l-3 3a1 1 0 0 1-1.414-1.414L49.706 50h-.538a1 1 0 0 1 0-2h.538l-1.293-1.293a1 1 0 0 1 0-1.414Zm-17.04 3.423a1 1 0 0 1 1.146-.83c.451.073.98.114 1.601.114h1.575a1 1 0 0 1 0 2H34.12c-.706 0-1.344-.047-1.918-.139a1 1 0 0 1-.829-1.145ZM46.012 48a1 1 0 0 1 0 2h-7.159a1 1 0 0 1 0-2h7.159Zm-17.289-5.195a1 1 0 0 1 .995 1.005c-.007 1.27.102 2.204.52 2.862a1 1 0 0 1-1.69 1.071c-.758-1.197-.837-2.67-.83-3.943a1 1 0 0 1 1.005-.995Zm19.69-23.512a1 1 0 0 1 1.414 0l3 3a1 1 0 0 1 0 1.414l-3 3a1 1 0 0 1-1.414-1.414L49.706 24H34.12c-2.69 0-3.59.75-3.978 1.494-.228.436-.35.991-.398 1.689-.049.703-.02 1.455 0 2.294.035 1.569.056 3.534-1.003 5.062a4.622 4.622 0 0 1-.37.462h1.676a1 1 0 0 1 0 2h-2.713c.603.643 1.008 1.399 1.274 2.203a1 1 0 0 1-1.898.63c-.272-.82-1.038-1.782-1.283-2.018-.21-.201-.707-.554-1.107-.823a.993.993 0 0 1-.543.093 14.44 14.44 0 0 0-1.59-.087L22.12 37h-4a1 1 0 0 1-.922-1.388l.015-.032a.987.987 0 0 1 .136-.215.997.997 0 0 1 .772-.365h1.295-.021l.646-.001.04.002h1.305l.04-.002h.765c3.1-.012 4.343-.786 4.907-1.599.63-.91.683-2.195.645-3.877-.017-.785-.051-1.659.006-2.48.057-.825.21-1.692.62-2.475C29.254 22.875 31.08 22 34.12 22h15.586l-1.293-1.293a1 1 0 0 1 0-1.414Zm0 13a1 1 0 0 1 1.414 0l3 3a1 1 0 0 1 0 1.414l-3 3a1 1 0 0 1-1.414-1.414L49.705 37h-1.347a1 1 0 0 1 0-2h1.349l-1.294-1.294a1 1 0 0 1 0-1.414Z"/>
        <path fill="#fff" d="M43.588 35a1 1 0 1 1 0 2h-8.77a1 1 0 0 1 0-2h8.77Z"/>
      </g>
      <path fill="#BF95F9" d="M17.12 36a2 2 0 1 0-2 2v2a4 4 0 1 1 0-8 4 4 0 0 1 0 8v-2a2 2 0 0 0 2-2Z" class="fillStrong"/>
      <path fill="#BF95F9" d="M43.288 8.445a1 1 0 0 1 1.664 1.11l-5 7.5a1 1 0 0 1-1.539.152l-3-3a1 1 0 1 1 1.414-1.414l2.138 2.138 4.323-6.486Z" class="fillStrong"/>
    </g>
  </g>
  <defs>
    <clipPath id="a" class="a">
      <path fill="#fff" d="M0 0h64v64H0z" class="fill"/>
    </clipPath>
  </defs>
</svg>
