<svg>
  <g className="Terraform">
    <g className="Terraform">
      <g className=".Square">
        <path
          fill="#EEF"
          d="M0 16C0 7.163 7.163 0 16 0h32c8.837 0 16 7.163 16 16v32c0 8.837-7.163 16-16 16H16C7.163 64 0 56.837 0 48V16Z"
          className="fillWeak"
        />
      </g>
      <g className="Icon Terraform">
        <path
          fill="#A365F6"
          fillRule="evenodd"
          d="M39.367 24.622v14.759L52.151 32V17.238l-12.784 7.385Z"
          className="fillStrong"
          clipRule="evenodd"
          opacity=".7"
        />
        <path
          fill="#4F0599"
          fillRule="evenodd"
          d="m11 23.758 12.784 7.386V16.38L11 9v14.758Zm14.187-6.515 12.784 7.38V39.38L25.187 32V17.244Zm12.777 38.52-12.777-7.385V33.619L37.964 41v14.764Z"
          className="fill"
          clipRule="evenodd"
        />
      </g>
    </g>
  </g>
</svg>
