<svg xmlns="http://www.w3.org/2000/svg" width="64" height="64" fill="none" viewBox="0 0 64 64">
  <g class="sentiment=original, size=xlarge, disabled=false" clip-path="url(#a)">
    <g class=".Square">
      <g class="fillWeak">
        <path fill="#521094" d="M0 16C0 7.163 7.163 0 16 0h32c8.837 0 16 7.163 16 16v32c0 8.837-7.163 16-16 16H16C7.163 64 0 56.837 0 48V16Z"/>
        <path fill="#521094" fill-rule="evenodd" d="M48 2H16C8.268 2 2 8.268 2 16v32c0 7.732 6.268 14 14 14h32c7.732 0 14-6.268 14-14V16c0-7.732-6.268-14-14-14ZM16 0C7.163 0 0 7.163 0 16v32c0 8.837 7.163 16 16 16h32c8.837 0 16-7.163 16-16V16c0-8.837-7.163-16-16-16H16Z" clip-rule="evenodd"/>
      </g>
    </g>
    <g>
      <path fill="#fff" d="M42.624 14a1 1 0 1 1 0 2H34c-1.316 0-2.18.244-2.756.589-.56.334-.93.81-1.18 1.438-.26.65-.389 1.455-.439 2.406-.05.951-.02 1.967-.002 3.05.036 2.07.047 4.468-.94 6.33A5.37 5.37 0 0 1 26.568 32a5.37 5.37 0 0 1 2.117 2.188c.986 1.86.975 4.259.939 6.329-.019 1.083-.049 2.099.002 3.05.05.95.179 1.756.439 2.406.25.628.62 1.104 1.18 1.438.577.344 1.44.589 2.756.589h11.446a1 1 0 1 1 0 2H34c-1.55 0-2.8-.287-3.781-.872-.997-.595-1.627-1.448-2.013-2.413-.377-.944-.523-2-.578-3.041-.055-1.041-.023-2.15-.005-3.192.038-2.18-.004-4.032-.707-5.358a3.398 3.398 0 0 0-1.548-1.499c-.747-.372-1.807-.62-3.321-.625l-.047.001L18.82 33H18a.998.998 0 0 1-.736-.326.997.997 0 0 1 .03-1.382A1.001 1.001 0 0 1 18 31h.821l3.18-.001h.047c1.514-.005 2.574-.252 3.321-.624a3.398 3.398 0 0 0 1.548-1.499c.703-1.326.745-3.179.707-5.358-.018-1.042-.05-2.151.005-3.192.055-1.042.2-2.097.578-3.04.386-.966 1.016-1.819 2.013-2.414.979-.585 2.23-.872 3.78-.872h8.624Z" class="fill"/>
      <path fill="#BF95F9" d="M51 49a2 2 0 1 0-2 2v2a4 4 0 1 1 0-8 4 4 0 0 1 0 8v-2a2 2 0 0 0 2-2ZM17 32a2 2 0 1 0-2 2v2a4 4 0 1 1 0-8 4 4 0 0 1 0 8v-2a2 2 0 0 0 2-2Z" class="fillStrong"/>
      <path fill="#fff" d="M49 20.277a1 1 0 0 1 1 1V39.73l1.293-1.292a1 1 0 1 1 1.414 1.414l-3 3a1 1 0 0 1-1.414 0l-3-3a1 1 0 1 1 1.414-1.414L48 39.73V21.277a1 1 0 0 1 1-1Z" class="fill"/>
      <path fill="#BF95F9" d="M51.293 11.293a1 1 0 1 1 1.414 1.414L50.414 15l2.293 2.293a1 1 0 0 1-1.414 1.414L49 16.414l-2.293 2.293a1 1 0 0 1-1.414-1.414L47.586 15l-2.293-2.293a1 1 0 1 1 1.414-1.414L49 13.586l2.293-2.293Z" class="fillStrong"/>
    </g>
  </g>
  <defs>
    <clipPath id="a" class="a">
      <path fill="#fff" d="M0 0h64v64H0z" class="fill"/>
    </clipPath>
  </defs>
</svg>
