<svg xmlns="http://www.w3.org/2000/svg" width="64" height="64" fill="none" viewBox="0 0 64 64">
    <path fill="#f1eefc" d="M0 16C0 7.163 7.163 0 16 0h32c8.837 0 16 7.163 16 16v32c0 8.837-7.163 16-16 16H16C7.163 64 0 56.837 0 48z" class="fillWeak"/>
    <path fill="#f1eefc" fill-rule="evenodd" d="M48 2H16C8.268 2 2 8.268 2 16v32c0 7.732 6.268 14 14 14h32c7.732 0 14-6.268 14-14V16c0-7.732-6.268-14-14-14M16 0C7.163 0 0 7.163 0 16v32c0 8.837 7.163 16 16 16h32c8.837 0 16-7.163 16-16V16c0-8.837-7.163-16-16-16z" class="fillWeak" clip-rule="evenodd"/>
    <path fill="#a060f6" d="m15.729 44.45 9.898 5.714a8 8 0 0 0-1.001 1.731L14.552 46.08a4 4 0 0 0 1.19-1.667zM33 26.256A6.99 6.99 0 0 1 36 32c0 1.066-.24 2.076-.666 2.98Q35.169 35 35 35c-.617 0-1.19-.187-1.668-.507a5 5 0 1 0-6 2.22 9 9 0 0 0 2.002 2.278Q29.168 39 29 39a6.97 6.97 0 0 1-4.568-1.698l-8.555 4.707a4 4 0 0 0-.965-1.752l8.182-4.502A6.97 6.97 0 0 1 22 32c0-1.513.481-2.913 1.297-4.058l-8.49-5.092a4 4 0 0 0 1.03-1.715l8.88 5.329A7 7 0 0 1 31 25.29V12.873a4 4 0 0 0 2.001 0zm-19.919-2.404v15.296l.036.011a4 4 0 0 0-2.071-.044l.035-.01v-15.21l-.016-.005a4 4 0 0 0 2.029-.042q-.007.001-.013.005M28.14 10.049c.181.67.533 1.271 1.005 1.753l-13.187 7.613.004.042a4 4 0 0 0-.825-1.937l.033.04 12.975-7.49zm6.688-3.877q.143.143.269.296l.034.045a4 4 0 0 0-.303-.341m-.228-.21.021.018-.039-.033zm-.229-.184.018.014q-.051-.037-.102-.071zm-4.257-.305.031-.018.047-.022zm3.349-.196.033.014-.061-.023zm-.318-.11.014.005-.046-.014zm-.619-.132.025.004-.06-.008z" class="fillStrong"/>
    <path fill="#521094" fill-rule="evenodd" d="M48.83 17.56a4 4 0 0 1 2.97-1.555L52 16a4 4 0 0 1 .919 7.894v15.212a4.002 4.002 0 0 1-.72 7.888L52 47c-.97 0-1.86-.345-2.552-.919l-13.593 7.848q.143.512.145 1.072a4 4 0 0 1-2.095 3.517l-.05.027q-.345.18-.71.288l-.045.013a4.01 4.01 0 0 1-4.19-1.304 4 4 0 0 1-.795-1.588l-.01-.047a4 4 0 0 1 .03-1.941 4 4 0 0 1 1.027-1.784A4 4 0 0 1 31 51.126V37.743A6.99 6.99 0 0 1 28 32c0-1.066.239-2.077.665-2.981a3 3 0 0 1 2.002.487 5 5 0 1 0 6-2.22 9 9 0 0 0-2.002-2.278Q34.832 25 35 25c1.613 0 3.097.547 4.281 1.464l8.882-5.328.003-.003a4 4 0 0 1-.124-1.717l-9.669-5.583a8 8 0 0 0 1.001-1.731zM32 53a2 2 0 1 0 0 4 2 2 0 0 0 0-4m7.566-15.698A6.97 6.97 0 0 1 35 39a7 7 0 0 1-2-.292v12.418a4 4 0 0 1 1.853 1.07l13.419-7.746A4 4 0 0 1 48 43q0-.514.123-.991zM52 41a2 2 0 1 0 0 4 2 2 0 0 0 0-4m-2.807-18.15-8.49 5.092A6.97 6.97 0 0 1 42 32a6.96 6.96 0 0 1-1.095 3.755l8.184 4.502a4 4 0 0 1 1.83-1.11V23.853a4 4 0 0 1-1.723-1.003zM52 18a2 2 0 1 0 0 4 2 2 0 0 0 0-4M12 39a4 4 0 1 1 0 8 4 4 0 0 1 0-8m0 2a2 2 0 1 0 0 4 2 2 0 0 0 0-4m0-25a4 4 0 1 1 0 8 4 4 0 0 1 0-8m0 2a2 2 0 1 0 0 4 2 2 0 0 0 0-4M32 5a4 4 0 1 1 0 8 4 4 0 0 1 0-8m0 2a2 2 0 1 0 0 4 2 2 0 0 0 0-4" class="fill" clip-rule="evenodd"/>
</svg>
