<svg xmlns="http://www.w3.org/2000/svg" width="64" height="64" fill="none" viewBox="0 0 64 64">
    <g class="sentiment=original, size=xlarge, disabled=false">
        <g class=".Square">
            <g fill="#521094" class="fillWeak">
                <path d="M0 16C0 7.163 7.163 0 16 0h32c8.837 0 16 7.163 16 16v32c0 8.837-7.163 16-16 16H16C7.163 64 0 56.837 0 48z"/>
                <path fill-rule="evenodd" d="M48 2H16C8.268 2 2 8.268 2 16v32c0 7.732 6.268 14 14 14h32c7.732 0 14-6.268 14-14V16c0-7.732-6.268-14-14-14M16 0C7.163 0 0 7.163 0 16v32c0 8.837 7.163 16 16 16h32c8.837 0 16-7.163 16-16V16c0-8.837-7.163-16-16-16z" clip-rule="evenodd"/>
            </g>
        </g>
        <g class="Icon">
            <path fill="#bf95f9" d="M39.327 28.779a4 4 0 0 0-1.582-1.38l10.884-6.614 1.039 1.709zm.639 8.744A4 4 0 0 0 40 37v-1.734l9.808 5.321-.953 1.758zm-8.967-17.459v-7.93h2v7.93a8 8 0 0 0-1-.064 8 8 0 0 0-1 .064m0 20.936h2v10.88h-2z" class="fillStrong"/>
            <g fill="#fff" class="fill">
                <path fill-rule="evenodd" d="M28 9a4 4 0 0 1 4-4l.2.005a4 4 0 0 1 3.655 5.066l12.974 7.49A4 4 0 0 1 52 16l.2.005a4 4 0 0 1 .719 7.889v15.212A4.002 4.002 0 0 1 52 47l-.2-.005a4 4 0 0 1-2.351-.914l-13.594 7.848A4.003 4.003 0 0 1 32 59l-.2-.005A4 4 0 0 1 32 51l.2.005a4 4 0 0 1 2.654 1.192l13.417-7.746a4 4 0 0 1 2.647-5.303V23.852a4 4 0 0 1-2.876-4.435l-13.188-7.615A4 4 0 0 1 32 13l-.2-.005A4 4 0 0 1 28 9m4 44a2 2 0 1 1 0 4 2 2 0 0 1 0-4m20-12a2 2 0 1 1 0 4 2 2 0 0 1 0-4m0-23a2 2 0 1 1 0 4 2 2 0 0 1 0-4M32 7a2 2 0 1 1 0 4 2 2 0 0 1 0-4" clip-rule="evenodd"/>
                <path d="M32 32a1 1 0 0 1 .993.883L33 33v2a1 1 0 0 1-1.993.117L31 35v-2a1 1 0 0 1 1-1"/>
                <path fill-rule="evenodd" d="M12 26a6 6 0 1 0 5.917 7H24v4a4 4 0 0 0 4 4h8a4 4 0 0 0 4-4v-6a4 4 0 0 0-3-3.874V25.48l-.003-.248C36.924 21.961 35.382 20 32 20c-3.467 0-5 2.06-5 5.48v1.646c-1.725.444-3 2.01-3 3.874h-6.083A6 6 0 0 0 12 26m-4 6a4 4 0 1 1 8 0 4 4 0 0 1-8 0m27-5v-1.52c0-2.422-.788-3.48-3-3.48-2.141 0-2.948.99-2.997 3.25l-.003.23V27zm1 2a2 2 0 0 1 2 2v6a2 2 0 0 1-2 2h-8a2 2 0 0 1-2-2v-6a2 2 0 0 1 2-2z" clip-rule="evenodd"/>
            </g>
        </g>
    </g>
</svg>
