<svg xmlns="http://www.w3.org/2000/svg" width="64" height="64" fill="none" viewBox="0 0 64 64">
    <path fill="#521094" d="M0 16C0 7.16344 7.16344 0 16 0H48C56.8366 0 64 7.16344 64 16V48C64 56.8366 56.8366 64 48 64H16C7.16344 64 0 56.8366 0 48V16Z" class="fillWeak"/>
    <path fill="#521094" fill-rule="evenodd" d="M48 2H16C8.26801 2 2 8.26801 2 16V48C2 55.732 8.26801 62 16 62H48C55.732 62 62 55.732 62 48V16C62 8.26801 55.732 2 48 2ZM16 0C7.16344 0 0 7.16344 0 16V48C0 56.8366 7.16344 64 16 64H48C56.8366 64 64 56.8366 64 48V16C64 7.16344 56.8366 0 48 0H16Z" class="fillWeak" clip-rule="evenodd"/>
    <path fill="#bf95f9" d="M14.053 28.867C14.605 28.859 15.058 29.3 15.066 29.853 15.068 29.971 15.05 30.085 15.014 30.19L15 30.222V37.43L15.003 37.644C15.175 42.657 22.002 46.929 30.732 47.31 30.98 48.015 31.287 48.692 31.648 49.336 21.665 49.224 13.439 44.346 13.017 37.941L13.004 37.694 13 37.446V28.882L14.053 28.867ZM49.683 39.92C50.403 39.92 50.986 40.097 51.433 40.45 51.886 40.797 52.136 41.284 52.183 41.91H50.643C50.629 41.67 50.526 41.474 50.333 41.32 50.146 41.16 49.896 41.08 49.583 41.08 49.31 41.08 49.09 41.15 48.923 41.29 48.763 41.43 48.683 41.634 48.683 41.9 48.683 42.087 48.743 42.244 48.863 42.37 48.99 42.49 49.143 42.59 49.323 42.67 49.51 42.743 49.77 42.83 50.103 42.93 50.556 43.063 50.926 43.197 51.213 43.33 51.5 43.463 51.747 43.663 51.953 43.93 52.16 44.196 52.263 44.546 52.263 44.98 52.263 45.353 52.166 45.7 51.973 46.02 51.779 46.34 51.496 46.597 51.123 46.79 50.75 46.977 50.306 47.07 49.793 47.07 49.306 47.07 48.866 46.987 48.473 46.82 48.086 46.654 47.779 46.413 47.553 46.1 47.326 45.786 47.21 45.417 47.203 44.99H48.703C48.723 45.277 48.823 45.503 49.003 45.67 49.19 45.837 49.443 45.92 49.763 45.92 50.089 45.92 50.347 45.843 50.533 45.69 50.72 45.53 50.813 45.323 50.814 45.07 50.814 44.864 50.75 44.693 50.623 44.56 50.496 44.426 50.336 44.323 50.143 44.25 49.956 44.17 49.696 44.084 49.363 43.99 48.91 43.857 48.54 43.726 48.253 43.6 47.973 43.466 47.73 43.27 47.523 43.01 47.324 42.743 47.223 42.39 47.223 41.95 47.223 41.537 47.327 41.177 47.533 40.87 47.74 40.564 48.03 40.33 48.403 40.17 48.777 40.003 49.203 39.92 49.683 39.92ZM37.06 45.57 38.97 40.02H40.46L37.899 47H36.199L33.64 40.02H35.14L37.06 45.57Z" class="fillStrong"/>
    <path fill="#bf95f9" fill-rule="evenodd" d="M43.8691 40.0195C44.4091 40.0195 44.8691 40.1132 45.249 40.2998C45.629 40.4865 45.912 40.7436 46.0986 41.0703C46.2919 41.3969 46.3886 41.7665 46.3887 42.1797C46.3887 42.5529 46.299 42.9029 46.1191 43.2295C45.9458 43.5561 45.669 43.8195 45.2891 44.0195C44.9158 44.2195 44.4424 44.3203 43.8691 44.3203H42.6992V47H41.2988V40.0195H43.8691ZM42.6992 43.1895H43.8086C44.1953 43.1895 44.4823 43.103 44.6689 42.9297C44.8556 42.7497 44.9492 42.4996 44.9492 42.1797C44.9491 41.4998 44.5685 41.1602 43.8086 41.1602H42.6992V43.1895Z" class="fillStrong" clip-rule="evenodd"/>
    <path fill="#bf95f9" d="M51 28.8818V32.7568C50.3759 32.2687 49.7081 31.8339 49 31.4648V30.2246L48.9863 30.1904C48.9622 30.1198 48.9463 30.0454 48.9385 29.9688L48.9336 29.8525C48.9416 29.3004 49.3952 28.8593 49.9473 28.8672L51 28.8818Z" class="fillStrong"/>
    <path fill="#bf95f9" fill-rule="evenodd" d="M32 15.1836C36.1857 15.1836 39.5791 17.3048 39.5791 19.9209C39.5787 22.5368 36.1855 24.6572 32 24.6572C27.8145 24.6572 24.4213 22.5368 24.4209 19.9209C24.4209 17.3048 27.8143 15.1836 32 15.1836ZM32 17.1836C28.7791 17.1836 26.4209 18.6578 26.4209 19.9209C26.4215 21.1839 28.7794 22.6572 32 22.6572C35.2206 22.6572 37.5785 21.1839 37.5791 19.9209C37.5791 18.6578 35.2209 17.1836 32 17.1836Z" class="fillStrong" clip-rule="evenodd"/>
    <path fill="#fff" fill-rule="evenodd" d="M32 8.5C42.4021 8.5 50.9674 13.6722 51 20.3564V28.9209C51 29.7267 50.873 30.5098 50.6367 31.2656C54.4674 33.7637 57 38.0857 57 43C57 50.732 50.732 57 43 57C35.268 57 29 50.732 29 43C29 42.2112 29.066 41.4378 29.1914 40.6846C20.3477 39.8736 13.4036 35.2871 13.0166 29.416L13.0039 29.1689L13 28.9209V20.3564C13.0326 13.6722 21.5979 8.5 32 8.5ZM43 31C36.3726 31 31 36.3726 31 43C31 49.6274 36.3726 55 43 55C49.6274 55 55 49.6274 55 43C55 36.3726 49.6274 31 43 31ZM15 28.9043L15.0029 29.1172C15.1681 33.9252 21.4533 38.0496 29.668 38.7158C30.4926 36.1477 32.0385 33.9028 34.0674 32.2197C33.3879 32.2651 32.6981 32.2891 32 32.2891C24.6004 32.2891 18.1303 29.672 15 25.7549V28.9043ZM32 10.5C22.5398 10.5 15.0002 15.0634 15 20.3945C15 25.7258 22.5397 30.2891 32 30.2891C41.4603 30.2891 49 25.7258 49 20.3945C48.9998 15.0634 41.4602 10.5 32 10.5ZM49 25.7549C47.9762 27.036 46.5945 28.177 44.9404 29.1338C46.3122 29.324 47.6203 29.7128 48.835 30.2705C48.9255 29.8987 48.9813 29.5216 48.9961 29.1396L49 28.9209V25.7549Z" class="fill" clip-rule="evenodd"/>
</svg>
