<svg xmlns="http://www.w3.org/2000/svg" width="64" height="64" fill="none" viewBox="0 0 64 64">
    <g class="VPS-start-servers">
        <g class="VPS-start-servers" clip-path="url(#a)">
            <g class=".Square">
                <path fill="#F1EEFC" d="M0 16C0 7.163 7.163 0 16 0h32c8.837 0 16 7.163 16 16v32c0 8.837-7.163 16-16 16H16C7.163 64 0 56.837 0 48z" class="fillWeak"/>
            </g>
            <g class="icon VPS-start">
                <path fill="#A060F6" stroke="#A060F6" stroke-width="2" d="M26.33 20.932Z" class="fillStrong"/>
                <path fill="#521094" fill-rule="evenodd" d="M32.32 8h.034a1 1 0 0 1 .447.105l22.32 11.155a1 1 0 0 1 .554.903l-.105 11.458a1 1 0 0 1-1.447.885l-10.732-5.364v1.863C50.942 29.212 57 35.4 57 43c0 7.732-6.268 14-14 14-7.053 0-12.888-5.215-13.858-12h-6.75a1 1 0 0 1-1-1V27.087l-10.84 5.42a1 1 0 0 1-1.44-.772l-.007-.114L9 20.164a1 1 0 0 1 .553-.904l22.32-11.155A1 1 0 0 1 32.32 8M29 43c0-7.188 5.417-13.111 12.392-13.909v-3.566a1 1 0 0 1 1.341-.94l.106.046L53.585 30l.083-9.232-21.331-10.66-21.332 10.66.084 9.232 10.856-5.425a1 1 0 0 1 1.44.779l.007.115V43zm2 0c0-6.627 5.373-12 12-12s12 5.373 12 12-5.373 12-12 12-12-5.373-12-12" class="fill" clip-rule="evenodd"/>
            </g>
        </g>
    </g>
    <defs>
        <clipPath id="a" class="a">
            <path fill="#fff" d="M0 0h64v64H0z"/>
        </clipPath>
    </defs>
</svg>
