<svg xmlns="http://www.w3.org/2000/svg" width="64" height="64" fill="none" viewBox="0 0 64 64">
    <path fill="#521094" d="M0 16C0 7.163 7.163 0 16 0h32c8.837 0 16 7.163 16 16v32c0 8.837-7.163 16-16 16H16C7.163 64 0 56.837 0 48z" class="fillWeak"/>
    <path fill="#521094" fill-rule="evenodd" d="M48 2H16C8.268 2 2 8.268 2 16v32c0 7.732 6.268 14 14 14h32c7.732 0 14-6.268 14-14V16c0-7.732-6.268-14-14-14M16 0C7.163 0 0 7.163 0 16v32c0 8.837 7.163 16 16 16h32c8.837 0 16-7.163 16-16V16c0-8.837-7.163-16-16-16z" class="fillWeak" clip-rule="evenodd"/>
    <path fill="#bf95f9" d="M14.053 28.867a1 1 0 0 1 .96 1.323l-.013.032v7.208l.003.214c.172 5.013 7 9.285 15.73 9.666q.372 1.059.915 2.026c-9.983-.112-18.21-4.99-18.631-11.395l-.013-.247-.004-.248v-8.564zm35.63 11.053q1.08 0 1.75.53.68.52.75 1.46h-1.54a.78.78 0 0 0-.31-.59q-.28-.24-.75-.24-.41 0-.66.21-.24.21-.24.61 0 .28.18.47.19.18.46.3.28.11.78.26.68.2 1.11.4t.74.6.31 1.05q0 .56-.29 1.04a2.1 2.1 0 0 1-.85.77q-.56.28-1.33.28-.73 0-1.32-.25a2.17 2.17 0 0 1-.92-.72 1.9 1.9 0 0 1-.35-1.11h1.5q.03.43.3.68.28.25.76.25.49 0 .77-.23a.78.78 0 0 0 .28-.62.7.7 0 0 0-.19-.51 1.3 1.3 0 0 0-.48-.31 7 7 0 0 0-.78-.26 9 9 0 0 1-1.11-.39 2.06 2.06 0 0 1-.73-.59q-.3-.4-.3-1.06 0-.62.31-1.08t.87-.7q.56-.25 1.28-.25M37.06 45.57l1.91-5.55h1.49L37.9 47h-1.7l-2.56-6.98h1.5z" class="fillStrong"/>
    <path fill="#bf95f9" fill-rule="evenodd" d="M43.87 40.02q.81 0 1.379.28.57.28.85.77.29.49.29 1.11 0 .56-.27 1.05-.26.49-.83.79-.56.3-1.42.3H42.7V47h-1.4v-6.98zm-1.17 3.17h1.109q.58 0 .86-.26.28-.27.28-.75 0-1.02-1.14-1.02h-1.11z" class="fillStrong" clip-rule="evenodd"/>
    <path fill="#bf95f9" d="M51 28.882v3.875a13 13 0 0 0-2-1.292v-1.24l-.014-.035a1 1 0 0 1-.047-.221l-.005-.117a1 1 0 0 1 1.013-.985z" class="fillStrong"/>
    <path fill="#bf95f9" fill-rule="evenodd" d="M32 15.184c4.186 0 7.58 2.12 7.58 4.737-.001 2.616-3.395 4.736-7.58 4.736s-7.579-2.12-7.58-4.736c0-2.616 3.394-4.737 7.58-4.737m0 2c-3.22 0-5.58 1.474-5.58 2.737.002 1.263 2.36 2.736 5.58 2.736s5.578-1.473 5.58-2.736c0-1.263-2.36-2.737-5.58-2.737" class="fillStrong" clip-rule="evenodd"/>
    <path fill="#fff" fill-rule="evenodd" d="M32 8.5c10.402 0 18.967 5.172 19 11.856v8.565c0 .806-.127 1.589-.363 2.345C54.467 33.764 57 38.086 57 43c0 7.732-6.268 14-14 14s-14-6.268-14-14q.002-1.184.191-2.315c-8.843-.811-15.787-5.398-16.174-11.269l-.013-.247L13 28.92v-8.565C13.033 13.672 21.598 8.5 32 8.5M43 31c-6.627 0-12 5.373-12 12s5.373 12 12 12 12-5.373 12-12-5.373-12-12-12m-28-2.096.003.213c.165 4.808 6.45 8.933 14.665 9.599a14 14 0 0 1 4.4-6.496q-1.02.069-2.068.07c-7.4 0-13.87-2.618-17-6.535zM32 10.5c-9.46 0-17 4.563-17 9.895 0 5.33 7.54 9.894 17 9.894s17-4.563 17-9.894S41.46 10.5 32 10.5m17 15.255c-1.024 1.281-2.406 2.422-4.06 3.379a13.9 13.9 0 0 1 3.895 1.136q.137-.557.161-1.13l.004-.22z" class="fill" clip-rule="evenodd"/>
</svg>
