<svg xmlns="http://www.w3.org/2000/svg" width="550" height="550" fill="none" viewBox="0 0 550 550">
    <path fill="#fff" d="m369.236 162.14.001-.011.007.011zm-.318 0h.318c-.137 3.63-.051 7.23.034 10.783v.001c.281 11.774.55 23.047-7.348 33.296-.415.774-.781 1.698-.778 2.549.042 7.653.112 15.307.181 22.96q.07 7.462.127 14.924c.011 1.375.323 2.519 1.196 3.652a35.1 35.1 0 0 1 6.244 12.914 38 38 0 0 1 1.052 11.946c-.002 1.097.009 2.2.02 3.305v.004c.075 7.8.152 15.721-4.141 22.621-.667 1.221-.682 2.2-.007 3.388 2.852 5.038 4.341 10.432 4.378 16.262.184 31.645.393 63.293.602 94.94l.001.025v.031l.17 25.843c2.479 26.271-22.124 44.121-44.341 51.927-38.848 13.446-87.549 12.162-122.804-10.307-22.989-15.742-22.968-28.899-22.932-50.949.005-3.004.01-6.173-.043-9.536-.099-6.758 1.91-12.914 5.449-18.587.58-1.061 1.37-2.063 2.166-3.073 1.464-1.857 2.945-3.738 3.176-6.049-.011-10.645-.114-21.285-.249-31.926-.008-.686-.349-1.492-.792-2.031-2.743-3.341-5.324-6.798-7.106-10.744-3.342-6.433-3.287-13.536-3.231-20.617.022-2.895.045-5.787-.165-8.628.154-5.522 1.676-10.707 4.331-15.536.586-1.067.641-1.91.029-2.962-3.054-5.251-4.503-10.916-4.528-17.01-.112-16.476-.174-32.952-.235-49.428-.118-31.544-.236-63.087-.708-94.628-.231-7.707 1.595-15.246 5.819-21.732 1.504-3.366 2.845-6.804 4.186-10.241v-.001c1.219-3.124 2.438-6.247 3.778-9.316 33.026-70.44 132.195-69.212 163.548 1.991l.295.8c2.616 7.116 5.219 14.196 9.092 20.738.743 1.814 1.255 3.719 1.768 5.626.277 1.03.554 2.061.868 3.078.846 2.732.749 5.506.652 8.284-.028.823-.057 1.647-.061 2.471-.026 4.472-.021 8.944-.016 13.416q.004 2.763.005 5.526m-1.245-13.867-.008-.002-.218-.05c-23.54 59.506-162.481 60.295-187.143 1.023.108 17.629.237 35.254.366 52.878.201 27.344.401 54.686.522 82.037-.125 9.629 3.791 18.968 10.277 25.96 25.106 25.894 65.905 31.321 100.339 27.911 29.667-2.948 77.572-19.063 76.714-55.209-18.326 38.221-70.631 46.214-108.823 43.6-1.166-.029-1.526-.561-1.529-1.72-.045-7.512-.119-15.022-.193-22.533v-.004q-.052-5.306-.101-10.613-.226-25.587-.436-51.176c-.018-2.057.293-2.244 2.332-2.082l.486.039.47.037c3.078.249 6.161.497 9.248.547 31.457-.007 66.833-6.475 88.778-30.884 10.54-11.823 9.876-27.257 9.223-42.441-.252-5.869-.503-11.701-.105-17.273zm-185.43 291.95c.037-2.213.074-4.428.012-6.629h.004c13.211 29.733 48.543 40.022 78.422 43.058 1.925.245 2.079 0 2.065-1.977-.073-10.358-.156-20.717-.24-31.076v-.022c-.141-17.433-.282-34.866-.369-52.3-.022-2.514-.224-2.541-2.647-2.867h-.004c-5.782-.778-11.572-1.573-17.31-2.622-26.228-5.342-61.527-21.263-60.427-52.558 25.85 58.762 161.946 57.526 187.315-1.298.36 38.57.543 77.147.712 115.72-.268 15.785-12.544 28.153-25.19 35.985-37.635 21.849-86.886 22.539-126.662 6.017-13.383-5.838-26.447-15.052-32.728-28.633-3.191-6.542-3.072-13.66-2.953-20.798m151.614-262.669c-27.078 13.31-58.366 15.195-87.853 10.997H246c10.307 2.218 20.728 3.069 31.255 2.764q-.005.27-.004.539c-30.529.092-64.302-5.701-86.42-28.515-10.248-10.469-14.725-28.065-6.031-40.726-1.412 5.566-2.765 11.11-1.999 17.186 3.685-24.728 11.895-49.519 30.932-66.693 29.785-28.974 79.347-32.168 112.387-6.835 21.117 14.762 32.564 38.643 37.712 63.268 6.574 21.505-12.078 39.604-29.975 48.015m-63.221 62.986c31.966.129 66.517-7.282 89.339-30.895v.004q.063 5.973.13 11.949v.022l.001.023c.179 16.032.358 32.072.349 48.095-.037 8.353-2.515 16.5-8.246 22.774-22.162 24.192-58.447 29.74-89.764 27.129-.759-.234-1.397-1.191-1.159-2.093q-.199-37.725-.392-75.449c-.011-2.039 0-2.068 1.976-1.973.916.044 1.833.117 2.75.19 1.673.134 3.346.267 5.016.224m-77.96 123.255c-.061 6.417.048 12.818.156 19.222.082 4.829.164 9.658.174 14.497.298 4.074.159 8.296.019 12.536-.342 10.41-.689 20.935 5.418 29.689 14.014 19.94 39.542 26.969 62.572 30.067-.052-8.379-.094-16.758-.137-25.137-.09-17.816-.181-35.628-.358-53.421-.7-1.296-2.24-1.378-3.739-1.457-.746-.04-1.481-.079-2.098-.267-1.383-.215-2.773-.402-4.163-.589-3.352-.45-6.705-.901-9.958-1.746-17.514-4.382-34.5-10.809-47.886-23.394m6.49-44.308c42.056 29.286 114.205 28.644 154.693-3.197 3.153 40.396-56.944 52.224-87.788 49.372-25.736-1.775-68.145-14.286-66.905-46.175m-13.551-13.767c-9.793 18.053-.396 37.833 15.399 48.703 23.47 16.819 53.533 21.267 81.81 20.248 29.334-1.518 62.814-10.282 80.484-35.534 6.941-10.344 7.428-23.793 1.206-34.617a116 116 0 0 0-2.006 2.426c-1.403 1.727-2.717 3.345-4.235 4.742-2.203 2.032-3.12 4.177-2.867 7.18 1.379 15.198-10.289 27.551-22.579 34.683-25.641 14.538-57.105 16.921-85.584 10.813-21.087-4.943-48.741-17.446-49.493-42.35.145-3.767-.753-4.514-2.45-5.926a24 24 0 0 1-1.873-1.686c-1.879-2.077-3.75-4.16-5.748-6.384l-.011-.012zm16.33 149.577c-19.067-12.899-27.471-37.396-10.611-55.854.306 3.881.225 7.86.144 11.845-.196 9.613-.393 19.259 4.846 27.645 12.082 18.964 35.035 27.412 56.287 31.071l1.113.172c1.84.286 3.682.572 5.535.734 1.932.005 1.859 1.283 1.777 2.71-.028.479-.056.974-.01 1.444-20.746-2.343-41.965-7.238-59.081-19.767m148.507-152.24c-25.45 19.114-59.425 24.317-90.478 21.545v-.003c.128-.334.227-.688.325-1.036.349-1.247.678-2.421 2.238-2.338 11.084.602 22.223.855 33.22-.854 27.258-4.44 65.479-17.413 66.143-50.277-.117-4.156-.109-8.313-.102-12.47v-.008c.003-1.871.007-3.742-.001-5.614l.491-.157c12.617 17.966 4.576 38.969-11.836 51.212m-5.894-130.384q.142.19.284.386c17.065-10.978 29.235-30.606 19.203-50.56l-.035.073-.066.14c-.155.326-.217.456-.225.589-.006.089.012.179.041.328l.039.205c.994 3.685 1.811 7.344 1.998 11.235 1.313 15.733-9.338 28.719-21.239 37.604m-17.918-52.571v-.002c-.302-.923-.611-1.867-.919-2.844l-.004-.007c.445-.37 1.308-.838 2.287-1.37 2.131-1.158 4.814-2.615 4.955-4.009.04-3.462-.018-6.923-.136-10.381-.014-.421-.542-1.166-.858-1.18q-.41-.02-.831-.046h-.001c-1.253-.077-2.547-.156-3.637.255-2.891 1.089-5.687 2.445-8.473 3.796l-.951.461-.552.27c-2.232 1.101-4.412 2.176-6.818.137-9.867-4.811-20.933-7.414-31.929-7.367-1.437.074-2.079-.407-2.281-1.906-.14-1.038-.388-2.06-.636-3.084-.243-1.006-.487-2.013-.629-3.032-.253-1.841-1.287-2.677-2.915-3.238-1.763-.609-4.205.858-4.238 2.724-.001 1.159.008 2.166.017 3.045.033 3.409.047 4.86-.67 5.54-.531.503-1.464.583-3.086.723-2.514.217-6.684.577-13.586 2.873-8.879 2.834-12.163 5.202-14.109 6.604-.794.573-1.365.985-2.002 1.202-1.632.555-3.699-.166-11.057-2.734h-.001c-1.622-.566-3.5-1.222-5.688-1.974-.921-.275-2.007-.015-3.08.242-.413.099-.825.197-1.225.264-.165.03-.367.484-.367.737l.017 1.289v.002c.04 3.082.079 6.164.24 9.24.173 1.596 3.435 2.925 6.126 4.021 1.198.488 2.282.93 2.931 1.329l.124.056.002.001c.599.271 1.098.497.941 1.461-.616 3.751-1.236 7.524-.833 11.348.165 1.566-.502 2.145-1.958 2.427-3.005.584-6.002 1.21-8.999 1.836h-.001l-.001.001h-.002c-1.973.412-3.947.825-5.924 1.225-3.809.86-3.629 4.559-3.465 7.899.049 1.003.096 1.974.033 2.826.011 2.112 2.332 3.945 4.448 3.641 6.593-.942 13.193-1.855 19.8-2.688 1.892.116 3.209 1.543 4.52 2.962.803.87 1.603 1.736 2.531 2.296 3.791 2.838 7.957 5.068 12.397 6.725 1.688.458.858 1.752-.027 3.13-.588.916-1.2 1.87-1.113 2.641.02.523-.013 1.297-.052 2.201-.148 3.48-.379 8.887 2.039 9.309 1.478.183 3.586-.308 4.561-1.331 2.1-2.204 4.036-4.565 5.973-6.926a209 209 0 0 1 3.385-4.059c.396-.459 1.32-.767 1.939-.686 10.377 1.36 20.695 1.269 30.918-1.151 1.565-.374 2.673-.033 3.835 1.045 3.491 3.237 7.051 6.402 10.626 9.548 2.248 1.98 5.471 1.305 6.314-1.276.3-2.091.23-4.252.16-6.394a104 104 0 0 1-.057-2.285c-.178-1.882-1.401-3.24-2.638-4.612-.477-.53-.956-1.061-1.377-1.625 5.775-3.381 11.047-7.059 14.85-12.702.341-.476 1.169-.894 1.749-.869 6.05.261 12.103.554 18.142.994 1.757.128 3.282-.165 4.844-.902.895-.422 1.195-.939 1.166-1.866a223 223 0 0 1-.121-7.176c0-2.295-1.621-3.956-3.942-4.224a898 898 0 0 1-9.375-1.155h-.003a1040 1040 0 0 0-7.881-.979c-1.539-.125-1.423-1.706-1.307-3.281.072-.964.142-1.925-.167-2.549-.545-2.122-1.227-4.209-1.948-6.416m-5.436 21.739c-12.672 12.885-31.842 15.961-49.207 16.016-17.006-1.562-38.353-5.54-46.394-22.568-6.641-17.685 14.109-29.774 28.6-33.44 18.722-4.756 39.552-3.715 56.928 5.118 13.813 6.538 22.363 22.374 10.073 34.874m8.418 4.58c-1.686-.004-3.226-.033-3.204-1.995l-.004.004c-4.147 6.248-8.921 12.21-16.078 15.092-1.356.002-2.165-1.063-2.99-2.149-.793-1.043-1.6-2.106-2.921-2.259l-.137.244-.06.106-.078.138 1.28 1.547q1.81 2.19 3.626 4.378c.393.589.912 1.14 1.436 1.695 1.031 1.093 2.079 2.204 2.205 3.659-.491 2.852-.664 5.694-.59 8.583-.107 1.922-2.292 1.911-2.167-.069-.106-.855-.051-1.871.006-2.924.125-2.311.258-4.792-1.279-6.1-1.785-1.537-3.54-3.109-5.296-4.68l-.001-.001a468 468 0 0 0-4.155-3.69c-.241-.211-.598-.291-.955-.371a5 5 0 0 1-.483-.124c.057.162.099.34.141.518.09.383.18.765.42.985 1.422 1.305 2.862 2.587 4.303 3.87 1.665 1.484 3.331 2.967 4.967 4.483 1.353 1.639 1.145 3.792.94 5.922-.072.737-.143 1.472-.148 2.181-1.221-1.175-2.538-2.243-3.868-3.32v-.001c-2.622-2.125-5.29-4.288-7.363-7.393-11.851 2.93-24.285 3.707-36.297 1.485l-4.085 5.017-4.982 6.119-.473-.198c.074-.85.026-1.71-.022-2.57-.125-2.239-.249-4.472 1.785-6.49 1.799-1.785 3.38-3.79 4.959-5.792.5-.634 1-1.268 1.506-1.894.186-.231.222-.582.258-.932.017-.162.033-.323.064-.472-.149.06-.313.107-.477.154-.357.102-.713.204-.916.44a293 293 0 0 0-3.01 3.569l-.001.002c-1.472 1.764-2.944 3.529-4.476 5.24-.932 1.283-5.288 2.57-3.957-.385 1.245-2.217 2.524-4.416 3.802-6.614l1.442-2.483c.476-.543.528-1.085.308-1.756-.108.032-.232.053-.357.075-.274.048-.548.096-.652.255-.883 1.36-1.756 2.739-2.482 4.183-.594 1.181-1.214 1.269-2.413.774-7.806-2.757-14.226-7.751-19.279-14.227-.429 1.584-1.401 2.072-2.779 2.248-2.428.242-4.834.607-7.238.971h-.001c-3.452.523-6.899 1.046-10.394 1.203q0-.864-.004-1.723c-.007-1.88-.013-3.741.051-5.599.011-.293.635-.759 1.02-.818 6.339-.935 12.683-1.855 19.041-2.662.568-.073 1.386.521 1.829 1.031 6.578 7.322 15.866 11.176 25.205 13.654 23.657 5.636 55.363 3.077 71.115-17.578l.055-.067c.457-.554.771-.935 1.617-.882 6.252.381 12.503.707 18.759 1.004 1.045.052 1.444.444 1.419 1.482-.044 1.782-.052 3.567.029 5.346.051 1.151-.363 1.525-1.507 1.437l-2.515-.165c-4.495-.297-8.994-.594-13.494-.711m-114.443-37.635c.081.652.036 1.657-.012 2.748-.106 2.366-.231 5.138.88 5.597 2.45 1.207 4.914 2.387 7.429 3.447.396.165 1.287-.158 1.569-.539.176-.32.498-.755.862-1.248 1.064-1.442 2.49-3.375 1.687-4.325-3.268-1.541-6.562-3.031-10.023-4.597h-.001v-.001zm104.264 2.514c.392.341.759.65 1.104.941.713.6 1.335 1.124 1.907 1.697 2.044 2.037 2.111 2.006 4.326.991q.33-.152.73-.331c4.086-1.701 3.966-4.226 3.812-7.455-.043-.901-.088-1.856-.046-2.863l-5.918 3.51zm-109.546 31.53c-1.715.326-3.447.655-5.213-.531 4.045-1.388 8.217-2.259 12.429-3.137 2.638-.551 5.292-1.104 7.94-1.791.336.562.68 1.14 1.076 1.807l.768 1.292c-1.976.254-3.878.56-5.757.863h-.001c-3.021.486-5.985.964-9.107 1.201-.709.025-1.421.16-2.135.296m130.23-5.459c-4.417-.209-8.836-.419-13.229-.843.257-2.493.957-3.139 3.109-2.856 2.34.395 4.716.662 7.092.929 4.032.452 8.067.905 11.938 1.989l-.025.292-.026.291c-.269.059-.538.136-.808.213-.579.167-1.159.333-1.729.308a576 576 0 0 0-6.322-.323m-70.763-44.205h.015q.002-.476.014-.953c.015-.703.03-1.405-.029-2.101-.117-1.449.818-2.024 1.925-2.329.895-.242 2.292.987 2.505 2.01l.367 1.759.001.008c.332 1.597.664 3.195 1.018 4.789.194.88.036 1.36-.998 1.353-.791.02-1.454.056-2.011.087-1.371.077-2.092.117-2.464-.224-.412-.377-.396-1.221-.363-3.001q.012-.62.02-1.398m52.788 14.926c-2.67 1.697-4.263 2.709-6.907-.49.975-.33 2.546-1.125 4.339-2.032 4.32-2.185 9.923-5.02 11.545-3.564-.077.128-.144.273-.212.417-.143.307-.285.613-.525.76-1.882 1.157-3.79 2.276-5.697 3.395h-.001l-.001.001h-.001q-1.067.625-2.132 1.254-.209.131-.408.259m-89.927 2.867-3.653-1.259-.002-.001c-3.701-1.277-7.236-2.497-10.777-3.696-.899-.29-1.837.088-2.648.495.103.127.197.27.292.414.206.313.413.627.702.763a525 525 0 0 0 12.162 5.566c1.378.408 2.112-.385 3-1.345.284-.306.583-.63.924-.937m17.277 59.981.473.374q.001 1.056.007 2.112v.001c.009 1.665.017 3.332-.022 4.996-.024.991-.676.965-1.51.933h-.001a11 11 0 0 0-.458-.012q0-.945-.009-1.879v-.001c-.013-1.825-.026-3.623.075-5.413.015-.27.447-.516.879-.762.203-.116.406-.231.566-.349m-43.905-18.686-.473.242-.007.004a4 4 0 0 0-.378-.281c-.293-.202-.586-.403-.594-.614-.061-1.835-.054-3.67-.048-5.506q.004-.86.004-1.721l.189-.132h.001l.188-.132c.117.108.263.214.41.321.323.235.647.471.657.721.075 1.782.066 3.568.057 5.355q-.005.871-.006 1.743m144.227-13.72.112.058q0 .903.006 1.806v.001c.009 1.76.018 3.521-.05 5.277-.01.269-.303.528-.596.787a5 5 0 0 0-.376.357l-.12-.051-.126-.055-.245-.106q0-.885-.006-1.769c-.009-1.768-.018-3.535.053-5.301.01-.277.309-.543.608-.809.139-.125.279-.249.39-.375l.079.041.079.041.073.037zm-74.05 13.786c-8.826-.513-17.461-1.8-25.583-5.459-9.416-3.759-18.762-13.875-13.478-24.651 12.679-22.558 59.15-22.686 75.46-4.342 6.68 7.374 4.473 18.139-3.121 23.856-9.218 7.751-21.512 10.109-33.275 10.596zm-19.83-15c12.22 8.369 30.511 7.708 41.726-1.905-.08.985.602 1.024 1.295 1.064l.085.005c1.513.097 2.992.185 4.463.273 2.588.155 5.152.308 7.838.504-1.994 2.873-4.773 4.603-7.612 6.371q-.525.327-1.052.658c-.806.441-1.846.446-2.892.451-.477.002-.955.004-1.413.048l-.172-.487-.002-.005c-.189-.533-.352-.993-.559-1.583-1.252 1.688-2.066.633-3.003-.582-.685-.888-1.436-1.861-2.471-1.912l-.178.251-.178.252c1.606 2.016 3.212 4.037 5.071 6.376q-.962.272-1.891.538h-.001c-1.772.508-3.471.994-5.185 1.413-.359.088-.924-.327-1.283-.635-.713-.492-1.397-1.168-2.091-1.853-1.301-1.285-2.637-2.604-4.263-2.814.499 1.621 1.802 2.666 3.217 3.801.748.6 1.527 1.225 2.235 1.974-6.596 1.147-12.793 1.492-19.466.759l.458-.553.023-.029 4.201-5.072c-.865-1.06-.884-1.075-1.646-.173-1.276 1.507-2.549 3.014-3.773 4.562-.638.803-1.342 1.122-2.376.883a33 33 0 0 0-2.247-.438c-1.428-.243-2.817-.48-4.265-1.138.39-.803.857-1.535 1.312-2.249.911-1.432 1.779-2.795 1.911-4.516-1.507.635-2.145 1.865-2.847 3.218-.294.567-.6 1.156-.985 1.732l-.911-.676-.026-.019-1.688-1.252c-.095.337-.185.652-.285 1l-.269.943c-4.226-.18-7.358-2.483-10.486-4.783-.574-.422-1.147-.844-1.728-1.252q.044-.261.081-.521c2.471-.445 4.958-.791 7.444-1.138h.002c1.45-.202 2.9-.404 4.346-.626.342-.056.655-.274.999-.513.17-.118.346-.241.537-.352m50.064-1.833c-2.774-.196-5.552-.394-8.293-.129.297-1.22 2.526-5.404 3.821-5.309 3.317.39 6.626.852 9.921 1.313h.001q1.28.179 2.555.355c.521 2.974-.63 4.195-3.564 4.015-1.475-.034-2.957-.139-4.441-.245m-30.63-20.292c-.558.075-1.212.145-1.934.223-1.88.203-4.217.455-6.503.951-8.474 1.345-19.826 9.925-11.591 18.487 10.124 9.119 29.675 9.049 40.051.447 11.811-12.646-8.638-20.357-20.023-20.108m33.146 1.001c-6.455-6.064-15.478-7.762-23.914-9.349l-.337-.063c-8.312-1.496-16.573-.587-24.662 1.415-10.402 2.585-24.783 10.084-22.722 22.811l1.159-1.412c.84-1.023 1.602-1.951 2.346-2.86.702 2.058 2.197 2.701 3.851 3.412.445.192.901.388 1.356.618 1.635.876 3.256.282 4.682-.283.374-.147.481-.974.588-1.795.047-.362.094-.724.164-1.024.509-1.819.462-2.45-1.324-3.176a276 276 0 0 1-8.158-3.751c-.253-.122-.412-.438-.571-.754a5 5 0 0 0-.232-.423c.14.001.286-.011.432-.023.316-.027.632-.054.888.056 1.481.641 2.954 1.3 4.427 1.958l.002.001c1.535.686 3.069 1.372 4.613 2.038 1.12.619 2.495-1.158 3.664-2.667.507-.655.975-1.26 1.366-1.597l-5.172-1.826-.012-.005-5.108-1.803q.012-.321.018-.642c.181-.018.367-.055.554-.091.408-.08.817-.16 1.17-.052 1.36.42 2.708.882 4.056 1.343 1.053.361 2.107.722 3.167 1.063.506.161 1.118.216 1.628.095 1.359-.322 2.713-.664 4.067-1.006 2.04-.516 4.08-1.031 6.134-1.476 1.546-.263 1.453-1.777 1.353-3.404-.083-1.354-.172-2.787.678-3.64.069.131.153.262.237.392.186.289.372.579.39.877q0 .713-.006 1.308c-.014 2.278-.021 3.295.472 3.692.396.32 1.116.24 2.415.095 1.428-.159 3.555-.397 6.722-.266l-1.28-6.435c1.43.061 1.43.066 1.659 1.167l.006.028q.103.498.202.998c.232 1.163.465 2.328.784 3.468.053 1.253 4.968 1.97 8.137 2.433 1.03.15 1.875.273 2.31.379 2.279.423 4.537-.711 6.601-1.748 1.819-.914 3.488-1.752 4.886-1.379-.512 1.102-1.53 1.508-2.564 1.921-.32.128-.643.257-.952.407-1.305.606-2.606 1.22-3.958 1.858l-.001.001-1.611.759c.445.367.881.706 1.303 1.033.908.704 1.749 1.355 2.452 2.131 1.012 1.115 1.83 1.049 2.988.334 1.991-1.229 4.009-2.411 6.043-3.602l.002-.001a759 759 0 0 0 2.605-1.53zm.895.774c-1.712 1.332-3.474 2.352-5.272 3.393-.732.424-1.469.851-2.212 1.304l-.053.031c-2.623 1.516-2.625 1.517-1.773 4.358.932 5.757 7.081 1.082 9.028-1.709l2.51 2.724 2.993 3.249c.814-5.665-1.562-9.709-5.217-13.354zm-71.24 17.725c.272.419.5.856.721 1.279.708 1.354 1.335 2.554 3.023 2.512 1.08-.136 2.161-.261 3.24-.385 3.276-.378 6.543-.755 9.784-1.456-.337-.433-.676-.841-1.005-1.238-.737-.889-1.426-1.719-1.943-2.645-.469-.839-.887-.931-1.661-.748-2.425.55-4.67 1.039-6.989 1.544h-.001c-1.653.36-3.344.728-5.165 1.133zm-.26-1.863.308.334 2.818-.574 2.818-.574.023-.142.014-.087v-.001q.023-.133.043-.269c-1.015-.365-1.77-.76-2.364-1.071-1.759-.921-2.112-1.105-3.664 2.384zm73.894-2.875.227-.41.074-.136c-2.287-2.821-2.828-2.494-5.355-.967l-.353.213-.217.131.194.506 2.891.353h.003zm-45.478-7.219c-10.593 6.479 1.379 14.611 9.306 13.731v.004c5.493.403 16.669-3.63 12.76-10.659-5.155-6.629-15.11-6.809-22.066-3.076m-1.103 2.526c5.888-5.265 19.602-5.13 22.898 3.098-.277.416-.501.891-.719 1.354-.613 1.301-1.185 2.516-2.794 2.108-5.602-2.395-11.854-2.582-17.416.069-2.93 1.515-4.987-4.429-1.969-6.629m18.557 8.125c-3.073-2.588-13.468-2.42-16.013.132 5.387 2.178 10.593 2.131 16.013-.132"/>
</svg>
