<svg xmlns="http://www.w3.org/2000/svg" width="550" height="550" fill="none" viewBox="0 0 550 550">
    <path fill="#fff" d="m462.315 165.008.753-.423v.839l.79.438-.79.444V385.98L279.113 489.39v.835l-.748-.414-.753.423v-.84L88.304 384.674V164.852l-.79-.437.79-.444v-.832l.746.412 183.962-103.41zM89.804 383.789l187.808 103.89v-87.534l-.066.038v-.84l-9.281-5.135v77.418l-169.11-93.548V181.736l66.788 36.946v-10.669l-.789-.437.137-.078-75.487-41.815zm298.414-175.406.07.039-.789.443v11.269l64.63-36.331v195.261l-163.571 91.948v-77.021l-9.445 5.31v88.368l182.455-102.565V167.149zM107.509 380.984l159.256 88.097v-75.703l-93.504-51.727zm182.549 12.164v75.299l151.492-85.158-65.327-38.578zM167.443 219.512l5.054 2.796v-4.779l6.09 3.367.387.215 93.522 51.736v107.721l.001.001v8.369l-4.232-2.341v5.896l9.281 5.135V269.835l-110.103-60.991zm113.988 48.978-2.318 1.303V397.58l9.445-5.309v-5.983l-4.56 2.564V273.029l90.619-50.94.383-.215 6.049-3.403v5.289l4.95-2.782v-11.27zm-113.988 68.229 99.322 54.944v-5.896l-94.268-52.145V224.021l-5.054-2.795zM381.049 225.48v108.814l-90.991 51.15v5.983l95.941-53.933V222.697zM268.265 384.883l2.732 1.512v-4.941l-2.732-1.512zm17.233-3.287v4.691l3.06-1.721v-4.691zm-111.501-48.859 92.768 51.316v-4.941l-89.292-49.392V226.773l-3.476-1.922zm202.12-104.484v102.4l-.382.215-10.224 5.747-75.453 42.417v4.692l89.491-50.308V226.323zm1.617 115.608 65.328 38.578 6.798-3.822-66.199-38.088zM101.4 377.605l4.591 2.54 65.752-39.333-5.033-2.785zm184.098-103.699v105.969l3.06-1.721V275.755l86.059-48.379v-3.566zM178.974 225.89l88.904 49.18.387.215v102.942l2.731 1.511V273.73l-92.022-50.905zm0 102.944 87.791 48.563V276.168l-87.791-48.564zm208.525 9.539-2.316 1.301 65.446 37.654v-10.405l-63.13-36.128zm-97.441-61.741v100.68l84.559-47.537V229.096zm-189.404 91.654v8.019l65.289-39.568v-7.138zm0-1.745 65.289-38.687V220.396l-65.289-36.116zm286.845-144.687v107.212l63.13 36.128V186.366zm-87.231 51.302c.885-.273 1.748-.266 2.487.096 1.079.529 1.625 1.674 1.625 3.057v75.794c0 1.372-.523 2.851-1.317 4.137-.796 1.291-1.909 2.46-3.174 3.18-1.251.712-2.548.916-3.596.412-.746-.359-1.239-1.012-1.475-1.836l-.162.095v-1.38l-.002-.35.002-.002v-75.415c0-1.366.516-2.835 1.302-4.113.781-1.271 1.872-2.422 3.113-3.143l.03-.019.013-.009.004-.002.001-.001 1.149-.719zm-47.604 1.349c.75-.361 1.631-.36 2.531-.07v-.136l.913.525.116.061-.001.002.055.03.022.015.395.198v.048c1.07.707 2.006 1.726 2.696 2.838.767 1.236 1.27 2.656 1.27 3.981v74.797l-.145-.082c-.226.831-.712 1.495-1.456 1.865-1.03.513-2.313.344-3.557-.328-1.254-.677-2.357-1.796-3.147-3.04-.787-1.241-1.306-2.677-1.306-4.021v-73.691c0-1.356.544-2.477 1.614-2.992m49.431.095c-.39-.191-1.025-.218-1.868.174v75.375c-.001 1.366-.517 2.836-1.302 4.118l-.077.118-.126.194q-.073.11-.15.22l-.135.187a8 8 0 0 1-.155.205q-.096.126-.197.247l-.113.136-.142.161a11 11 0 0 1-.577.594q-.1.094-.202.184l-.132.115a8 8 0 0 1-.269.219 8 8 0 0 1-.469.344c.089.736.414 1.121.761 1.288.439.212 1.192.213 2.204-.363 1.005-.572 1.949-1.541 2.641-2.663.694-1.125 1.093-2.333 1.093-3.35v-75.794c0-1.007-.376-1.509-.785-1.709m-46.9 1.443c-.85-.398-1.491-.375-1.881-.188-.399.193-.764.673-.764 1.642v73.691c0 .982.391 2.142 1.073 3.217.68 1.072 1.606 1.991 2.593 2.524.995.537 1.738.523 2.175.305.353-.176.675-.573.752-1.313-1.061-.694-1.99-1.692-2.675-2.787-.768-1.227-1.273-2.642-1.273-3.967zm43.532-.24a8.5 8.5 0 0 0-1.491 1.814c-.686 1.116-1.08 2.315-1.08 3.327V355.3a8.6 8.6 0 0 0 1.32-1.555l.062-.098q.055-.083.108-.168.219-.356.395-.72c.439-.899.685-1.812.686-2.61zm-42.032 73.361c0 .968.379 2.108 1.044 3.171a8 8 0 0 0 1.422 1.703v-72.041c0-.968-.379-2.116-1.045-3.19a8.3 8.3 0 0 0-1.421-1.725zm62.442-86.656c.898-.286 1.777-.283 2.526.084 1.078.528 1.622 1.673 1.622 3.055v75.715c0 1.372-.521 2.851-1.313 4.136-.745 1.209-1.769 2.309-2.935 3.034l-.235.141c-1.251.71-2.548.911-3.595.405-.742-.359-1.234-1.01-1.469-1.83l-.157.093v-1.155l-.004-.146-.001-.434.005-.002v-75.33c0-1.362.514-2.827 1.297-4.102.392-.639.862-1.248 1.391-1.787h-.696l2.06-1.162v-.066l.409-.164.021-.013.1-.053.974-.56zm-85.541 1.415c.747-.358 1.623-.357 2.52-.072v-.144l1.121.639q.157.09.31.188l.07.042v.003c1.084.71 2.034 1.735 2.735 2.857.778 1.246 1.29 2.679 1.29 4.014v73.357l.001.001v.49l-.001.036v1.188l-.146-.081c-.227.834-.718 1.498-1.466 1.868-1.034.511-2.323.34-3.575-.335-1.263-.681-2.374-1.804-3.169-3.054-.792-1.246-1.314-2.689-1.314-4.037v-73.959c0-1.361.548-2.486 1.624-3.001m87.407.015c-.389-.19-1.023-.216-1.866.176v75.294c0 1.364-.514 2.83-1.297 4.109-.702 1.145-1.653 2.193-2.739 2.921.088.736.413 1.122.759 1.29.438.211 1.189.214 2.201-.36 1.002-.57 1.944-1.537 2.634-2.657.693-1.124 1.09-2.331 1.09-3.349v-75.715c0-1.007-.375-1.509-.782-1.709m-84.887 1.516c-.844-.389-1.482-.365-1.873-.178-.404.194-.771.676-.771 1.648v73.959c0 .985.392 2.151 1.08 3.232.642 1.01 1.503 1.886 2.428 2.434l.187.105.186.095c.911.444 1.597.42 2.012.215.356-.176.677-.57.757-1.304a8 8 0 0 1-.771-.569l-.024-.02a9 9 0 0 1-1.016-1.004l-.034-.038a10 10 0 0 1-.284-.345l-.037-.048a9 9 0 0 1-.264-.357l-.031-.045a10 10 0 0 1-.661-1.092 9 9 0 0 1-.2-.415 8 8 0 0 1-.143-.329c-.34-.837-.541-1.708-.541-2.543zm81.517-.301a8.5 8.5 0 0 0-1.477 1.804c-.683 1.114-1.075 2.308-1.075 3.317v74.266a8.6 8.6 0 0 0 1.476-1.808c.684-1.117 1.076-2.314 1.076-3.324zm-80.016 73.702c0 .976.386 2.128 1.062 3.201a8.1 8.1 0 0 0 1.463 1.735V271.45c0-.976-.386-2.135-1.063-3.22a8.4 8.4 0 0 0-1.462-1.757zm100.449-86.994c.882-.271 1.742-.262 2.478.1 1.076.529 1.619 1.674 1.619 3.054v75.636c0 1.371-.52 2.847-1.311 4.13-.794 1.287-1.902 2.452-3.164 3.169-1.25.711-2.547.912-3.593.404-.742-.361-1.231-1.014-1.465-1.834l-.16.093v-1.506l-.001-.225.001-.001v-75.253c0-1.359.511-2.82 1.29-4.093.702-1.146 1.656-2.195 2.747-2.919v-.005l.096-.058q.138-.089.279-.17l.061-.036 1.123-.675zm-123.674 1.404c.744-.353 1.615-.355 2.508-.077v-.139l1.038.584.051.027-.001.001.032.017.011.007q.003 0 .004.003h.002l.056.034q.105.06.208.125l.1.06v.004c1.099.711 2.063 1.744 2.774 2.874.79 1.256 1.311 2.702 1.311 4.048v75.35l-.149-.082c-.229.833-.723 1.497-1.475 1.866-.974.478-2.174.357-3.357-.22l-.236-.121c-1.27-.686-2.388-1.816-3.189-3.072-.798-1.252-1.324-2.7-1.324-4.053v-74.228c0-1.368.553-2.495 1.636-3.008m125.49.043c-.389-.192-1.027-.218-1.875.181v75.208c0 1.36-.512 2.823-1.291 4.098q-.02.028-.037.056a16 16 0 0 1-.264.404 10 10 0 0 1-.294.406q-.131.172-.268.338l-.059.07a10 10 0 0 1-.316.358 11 11 0 0 1-.746.715 8 8 0 0 1-.739.567c.087.739.41 1.126.757 1.295.436.212 1.187.217 2.196-.358 1.001-.567 1.94-1.533 2.629-2.652.691-1.122 1.088-2.327 1.088-3.343v-75.636c0-1.007-.375-1.507-.781-1.707M216.9 254.789c-.838-.38-1.474-.356-1.866-.17-.408.194-.778.678-.778 1.654v74.228c0 .988.396 2.159 1.089 3.247.69 1.084 1.632 2.015 2.636 2.558l.187.095c.919.448 1.613.426 2.034.219.357-.175.678-.565.762-1.288-1.089-.696-2.045-1.709-2.751-2.822-.643-1.014-1.106-2.154-1.258-3.27l-.014-.11a6 6 0 0 1-.041-.66zm119.607-.267a8.5 8.5 0 0 0-1.468 1.796c-.68 1.11-1.069 2.302-1.069 3.31v74.184a8.4 8.4 0 0 0 .989-1.101 9 9 0 0 0 .478-.701c.68-1.114 1.07-2.308 1.07-3.316zm-118.106 73.952q.001.248.035.509c.108.862.473 1.817 1.043 2.717l.135.204.039.059a8.2 8.2 0 0 0 1.333 1.507v-72.637c0-.984-.392-2.155-1.081-3.25a8.4 8.4 0 0 0-1.504-1.79zm138.438-87.214c.902-.291 1.785-.288 2.537.083 1.073.53 1.615 1.673 1.615 3.051v75.553c0 1.37-.518 2.845-1.306 4.128-.791 1.286-1.899 2.45-3.16 3.165l-.001-.001c-1.248.71-2.543.912-3.588.403-.739-.36-1.226-1.01-1.459-1.828l-.161.095v-76.903c0-1.356.511-2.813 1.288-4.082.699-1.144 1.65-2.19 2.735-2.913v-.053l.289-.146.16-.088q.1-.056.2-.108l.851-.493zm-161.797 1.264c1.001-.472 2.232-.313 3.438.31h.015l.169.094.145.083.234.13v.013c1.117.713 2.098 1.757 2.82 2.9.801 1.266 1.329 2.724 1.329 4.081v75.627l-.157-.085c-.231.834-.727 1.496-1.481 1.864-1.045.509-2.347.334-3.614-.35-1.278-.689-2.404-1.823-3.21-3.085-.803-1.257-1.332-2.71-1.333-4.069V245.54c.001-1.373.557-2.503 1.645-3.016m163.67.164c-.379-.187-.993-.218-1.807.148v.008l-.066.033v75.125c0 .79-.175 1.614-.473 2.416q-.044.119-.092.236a10 10 0 0 1-.722 1.435c-.695 1.139-1.638 2.182-2.714 2.909.085.74.41 1.127.755 1.295.434.211 1.183.217 2.192-.357h.001c.998-.566 1.933-1.53 2.62-2.647.689-1.12 1.085-2.325 1.085-3.342v-75.553c0-1.005-.374-1.506-.779-1.706m-161.169 1.357c-.834-.372-1.469-.349-1.861-.164-.413.194-.784.68-.785 1.659v74.497c.001.994.399 2.169 1.097 3.262.696 1.088 1.645 2.025 2.658 2.572l.19.097c.928.453 1.629.432 2.054.225.358-.174.68-.561.767-1.276a8 8 0 0 1-.735-.529l-.167-.139-.121-.105a9 9 0 0 1-.672-.657l-.098-.106a10 10 0 0 1-.995-1.304c-.802-1.257-1.332-2.711-1.332-4.068zm157.796-.125a8.5 8.5 0 0 0-1.456 1.787c-.678 1.108-1.067 2.295-1.067 3.299v74.091q.292-.27.561-.576l.092-.108c.293-.345.565-.717.804-1.109a8 8 0 0 0 .805-1.752q.097-.31.158-.61.102-.49.103-.944zm-156.292 74.09c0 .991.399 2.168 1.097 3.261a8.3 8.3 0 0 0 1.548 1.801v-72.937c0-.993-.398-2.175-1.096-3.28a8.5 8.5 0 0 0-1.549-1.826zm-30.626-110.553 110.069 60.887 106.649-59.952-9.56-5.296-5.621 3.16 3.807 2.109-4.643 2.611.001.001-1.385.777-.15.086-.001-.001-89.494 50.309-93.772-51.947-4.644-2.569 3.767-2.119-5.825-3.227zm18.977 2.734 90.689 50.24 87.957-49.446-2.266-1.256-85.725 48.191-88.426-48.982zm57.426-32.283-53.66 30.166 86.883 48.128 84.188-47.326-86.882-48.129zm-23.765 27.02c1.464-.036 2.963.239 4.128.885l62.986 34.946v-.004l1.114.619c1.077.598 1.788 1.488 1.821 2.551.023.713-.265 1.374-.762 1.941l.132.076-.985.676-.055.035-.324.225-.017-.011-.072.044-.006.004c-1.209.679-2.719 1.025-4.18 1.06-1.457.034-2.948-.238-4.104-.878l-63.883-35.408-.009.007-.167-.104-.027-.015-.006-.004-.006-.004q-.081-.047-.135-.083l-.082-.052-.98-.6.135-.095c-.539-.584-.828-1.293-.752-2.069.106-1.079.893-2.008 2.045-2.665l.23-.125c1.167-.608 2.585-.918 3.961-.952m.037 5.366c-.961.024-1.912.203-2.728.52l63.095 34.97c.857.476 2.064.721 3.34.691a8.3 8.3 0 0 0 2.686-.502l-63.038-34.975-.212-.118a5 5 0 0 0-.622-.247c-.741-.242-1.614-.362-2.521-.339m0-3.866c-1.277.031-2.537.338-3.484.88h-.001c-.922.526-1.254 1.099-1.295 1.508-.025.265.059.591.375.925l.15.144.028-.018c1.207-.689 2.721-1.038 4.187-1.074a10 10 0 0 1 2.108.174l.074.013a6.9 6.9 0 0 1 1.949.699l63.821 35.409c.463-.42.61-.819.6-1.116-.011-.346-.24-.816-.991-1.25l-.057-.033-64.102-35.564c-.867-.481-2.082-.729-3.362-.697m17.968-11.776c1.376-.034 2.781.206 3.913.771l.222.117 64.524 35.891v.026c.856.584 1.402 1.381 1.431 2.311.023.725-.275 1.399-.787 1.974l.107.069-.734.509a4 4 0 0 1-.181.133l-.413.288-.026-.017-.055.034-.005.003c-1.214.681-2.729 1.027-4.193 1.062-1.369.033-2.768-.205-3.889-.765l-.22-.117-63.924-35.518-.018.014-.422-.268a5 5 0 0 1-.198-.132l-.732-.489.094-.068c-.541-.587-.828-1.301-.749-2.08.109-1.08.897-2.01 2.053-2.67 1.213-.69 2.732-1.041 4.202-1.078m.037 5.368c-.971.023-1.931.206-2.753.53l63.138 35.081h.001c.857.477 2.065.723 3.344.692a8.3 8.3 0 0 0 2.723-.513l-63.084-35.09c-.869-.483-2.086-.732-3.369-.7m.001-3.868c-1.28.032-2.545.339-3.498.881l.001.001c-.926.528-1.262 1.103-1.304 1.517-.031.303.083.685.516 1.069l.047-.027c1.212-.688 2.728-1.039 4.197-1.075 1.466-.037 2.968.239 4.134.887l63.866 35.526c.456-.42.603-.818.593-1.117-.011-.355-.25-.842-1.045-1.283l-.386-.214v-.005l-63.753-35.461c-.869-.483-2.086-.73-3.368-.699m18.036-11.813c1.47-.037 2.974.24 4.141.89l64.176 35.789.197.116c.962.595 1.584 1.437 1.617 2.431.023.726-.274 1.4-.785 1.976l.103.066-.862.614-.043.031-.378.266-.02-.011-.118.071c-1.216.685-2.734 1.034-4.201 1.069-1.464.036-2.96-.238-4.117-.883l-63.966-35.632-.014.011-.347-.221-.083-.05-.943-.598.119-.086c-.544-.591-.833-1.308-.751-2.092.106-1.014.808-1.896 1.851-2.546l.214-.127c1.214-.694 2.737-1.047 4.21-1.084m118.979 38.627v3.566l3.432-1.928v-3.569zm-118.942-33.257c-.984.024-1.959.212-2.79.544l63.193 35.2c.859.479 2.069.726 3.351.695a8.3 8.3 0 0 0 2.759-.529l-62.968-35.116h-.005l-.17-.096a5 5 0 0 0-.524-.247c-.803-.318-1.803-.477-2.846-.451m-83.178 33.428 3.476 1.923v-3.066l-3.476-1.922zm83.179-37.298c-1.283.032-2.551.341-3.505.887l-.001.001c-.931.53-1.272 1.109-1.316 1.525-.031.305.082.688.515 1.072l.055-.033c1.215-.694 2.737-1.047 4.21-1.084a10 10 0 0 1 .911.021 10 10 0 0 1 .551.05l.177.024q.183.026.362.059l.155.029.088.018.144.032.121.03.15.039.099.027.118.034.155.049.06.02q.459.153.874.364h.01l64.069 35.727c.454-.42.601-.817.592-1.116-.012-.357-.252-.843-1.045-1.286l-64.176-35.789c-.868-.484-2.087-.732-3.373-.7m18.098-11.852c1.474-.037 2.981.241 4.148.894l64.213 35.896c1.072.6 1.775 1.488 1.81 2.548.024.718-.264 1.384-.762 1.957l.112.068-.924.665q-.073.051-.151.102l-.253.181-.017-.011-.117.071c-1.22.685-2.742 1.035-4.213 1.071-1.467.036-2.965-.238-4.124-.886v-.001l-64.012-35.744-.011.01-.25-.161-.176-.108-.95-.601.125-.088c-.543-.594-.829-1.315-.743-2.1.117-1.081.909-2.013 2.071-2.676 1.22-.696 2.747-1.05 4.224-1.087m.038 5.373c-.996.025-1.985.218-2.827.558l63.244 35.315c.858.48 2.069.727 3.354.696.983-.024 1.961-.211 2.798-.54l-63.191-35.326h-.001c-.867-.485-2.087-.735-3.377-.703m0-3.873c-1.286.033-2.559.343-3.519.891-.933.532-1.277 1.113-1.323 1.533-.034.307.077.692.507 1.076l.075-.045c1.219-.695 2.745-1.049 4.221-1.086 1.381-.034 2.791.208 3.925.776l.224.118 63.937 35.742c.45-.42.596-.817.586-1.117-.011-.359-.251-.846-1.043-1.288l-64.213-35.897c-.867-.485-2.088-.735-3.377-.703m90.003 33.378 2.267 1.256 3.105-1.746-2.266-1.255zm-182.559-1.244 3.101 1.716 2.229-1.253-3.1-1.718zm3.766-2.118 3.1 1.717 85.727-48.191.366.202 88.058 48.78 3.106-1.745-91.525-50.7zm-95.93-41.099 76.288 42.2 9.199-5.171-66.672-36.932 163.917-92.144.366.203 168.28 93.216-64.854 36.456 9.56 5.296 74.104-41.657L273.016 61.858zm88.563 37.018 5.826 3.227 90.368-50.799.366.202 92.7 51.349 5.622-3.16-98.89-54.778zm104.424-51.004 91.994 50.96 63.319-35.593-155.313-86.033zm-171.094 14.073 65.13 36.078 85.088-47.831V80.047zm151.718-85.287v72.692l8.374-4.708V74.496zm9.874 67.141 1.067-.599.366.202 6.569 3.639V78.921l-8.002-4.433z"/>
</svg>
