<svg xmlns="http://www.w3.org/2000/svg" width="550" height="550" fill="none" viewBox="0 0 550 550">
    <path fill="#fff" fill-rule="evenodd" d="M354.044 32.81q-.842.054-1.685.116c-1.343.097-2.686.194-4.03.217-1.932.032-3.174-1.091-3.346-2.846-.185-1.853.98-3.345 3.005-3.489 2.357-.165 4.717-.281 7.077-.397a383 383 0 0 0 6.256-.34c2.698-.177 3.969 2.754 2.817 4.78-.615 1.078-1.628 1.41-2.747 1.488-1.791.123-3.584.222-5.375.32l-1.972.11v.043m-.93-1.616h-.011l-.001.001h-.009l-.012.001h-.005l-2.755.15c-.07-.752-.121-1.331-.169-1.86l-.003-.04-.045-.502c.105-.07.199-.145.287-.215.171-.137.317-.254.471-.264 3.358-.25 6.716-.476 10.074-.69 1.013-.065 1.866.218 1.894 1.423.025 1.013-.684 1.472-1.582 1.53-2.662.17-5.325.314-8.132.466zm-4.552-1.225c-.495-.368-.872-.65-1.248-.933l-.002-.002a4 4 0 0 1-.249.34c-.202.257-.404.514-.35.69.087.282.355.507.624.733.113.096.227.191.327.291l.349-.434.008-.01.008-.01.008-.01zm-40.229 8.844c.013-1.042.525-2.062 1.8-2.497l1.157-.394h.001c4.521-1.543 9.038-3.083 13.59-4.526 1.861-.59 3.21.283 3.772 2.107.516 1.681-.041 3.067-1.821 3.707a495 495 0 0 1-14.452 4.96c-2.14.698-3.985-.807-4.051-3.357zm5.326 1.172 4.227-1.445.005-.002.018-.006.009-.003a7151 7151 0 0 0 8.173-2.797h.002c.16-.053.356-.117.399-.228a9 9 0 0 1 .179-.393c.206-.433.424-.89.305-1.21-.168-.439-.873-.832-1.406-.935-.365-.068-.78.093-1.183.25h-.001q-.19.077-.374.14l-.293.098a796 796 0 0 0-8.961 3.063c-.437.154-.854.368-1.305.6l-.001.002-.003.001q-.329.172-.692.348c.295.816.529 1.464.902 2.513zm-3.296-1.57c-.48 1.05-.304 1.66.852 2.042.439-1.05.41-1.718-.852-2.042M289.186 52.52c.984-.582 1.772-1.288 1.722-2.563-.045-2.43-2.509-4.173-4.473-3.05a789 789 0 0 0-14.817 8.717c-1.702 1.025-1.923 2.464-.865 4.194 1.049 1.714 2.46 2.144 4.116 1.189a221 221 0 0 0 3.65-2.169h.001l.001-.001h.001q1.1-.666 2.206-1.323 3.048-1.805 6.101-3.603zm-14.08 6.05q.226-.055.405-.088c.218-.043.389-.076.531-.16 4.006-2.338 8.007-4.687 12.009-7.036q.084-.05.179-.099c.199-.104.406-.214.469-.373l.042-.105c.182-.454.419-1.041.24-1.33-.274-.447-.955-.918-1.43-.894-.62.034-1.242.398-1.821.736l-.16.093a781 781 0 0 0-8.228 4.846c-.793.47-1.573.96-2.399 1.48h-.001l-.001.001h-.002l-.008.006-.002.001q-.555.35-1.146.718l.448.747c.323.539.601 1.003.875 1.457m-2.755-.616.066-.043v.004l.407.652.409.656q-.149.092-.294.187l-.067.043-.048.03-.062.04-.82-1.308.238-.152zm-20.028 17.01c-.611-1.308-1.497-2.255-3.399-2.485-.158.105-.338.218-.532.34-.502.315-1.098.688-1.633 1.132a2186 2186 0 0 0-11.425 9.555h-.001l-1.509 1.269c-2.292 1.919-2.005 4.354.664 5.78.877.468 1.652.526 2.489-.188a2771 2771 0 0 1 13.704-11.568l.846-.711c1.03-.861 1.386-1.858.796-3.124m-17.149 11.014-.092-.104 7.721-6.474.059-.05.085-.07 6.198-5.198 1.002.942.011.01 1.148 1.082-14.272 11.98c-.668-.763-1.163-1.325-1.86-2.118M461.372 199.23q.256-.128.514-.245l-.374.784v.002h-.001v.002l-.001.001v.002h-.001v.002a45 45 0 0 1-1.131 2.273c-.982 1.805-1.974 3.605-2.965 5.404l-.004.006c-1.161 2.109-2.323 4.217-3.468 6.333-1.087 2.005-1.021 2.279.926 3.477a79 79 0 0 0 4.76 2.685c3.42 1.796 3.436 1.78 5.343-1.685q13.856-25.185 27.708-50.376l.06-.109.06-.109.097-.176a615 615 0 0 0 3.128-5.765c1.681-3.124 1.439-4.018-1.599-6.023l-.028-.018-.04-.025-.047-.031-.115-.073q-3.3-2.135-6.6-4.275l-.005-.003-.002-.001v-.001c-5.365-3.477-10.731-6.955-16.123-10.394-.595-.38-1.176-.789-1.757-1.197-2.003-1.41-4.008-2.822-6.628-3.051l-.029-.386-.012-.171-.024-.342v-.003a31 31 0 0 0-.156-1.759c-.246-1.898-1.435-2.837-3.391-2.71-1.951.127-3.107 1.263-2.956 3.153.259 3.241.549 6.477.84 9.713v.009l.001.001v.009l.001.001v.008c.197 2.196.394 4.392.581 6.589.111 1.3.545 2.325 1.907 2.661 1.406.345 2.738.189 3.751-.98.301-.348.556-.736.807-1.117l.001-.001v-.001q.177-.27.356-.529c5.494 2.985 13.85 8.602 15.433 10.451L442.8 181.603l-1.62.882-.317.173c-15.644 8.52-31.256 17.024-46.823 25.501-.183-.121-.325-.205-.436-.271-.178-.106-.276-.163-.331-.249a47 47 0 0 1-.823-1.313 67 67 0 0 0-.477-.774c-2.693-4.309-6.035-7.958-10.463-10.578-10.939-6.47-21.872-12.948-32.806-19.426q-16.4-9.719-32.806-19.426c-1.485-.877-3.026-1.689-4.621-2.341-3.046-1.242-6.027-1.045-8.913.66-1.402.83-2.842 1.603-4.282 2.375q-1.094.585-2.18 1.18c-2.603 1.435-4.428 3.542-5.072 6.462-.369 1.676-.537 3.419-.57 5.137-.048 2.7-.043 5.401-.037 8.103v.006c.003 1.67.006 3.34-.004 5.011-.002.485-.073.973-.157 1.553v.002c-.045.311-.093.649-.138 1.028l-.731-.406-.414-.229-.001-.001a63 63 0 0 1-1.83-1.033l-12.982-7.684-.122-.072c-13.584-8.041-27.169-16.083-40.77-24.097-1.792-1.053-3.707-1.98-5.671-2.652-3.345-1.14-6.621-.812-9.721 1.053-1.552.93-3.148 1.789-4.743 2.647q-.857.46-1.71.924c-3.034 1.657-5.178 4.088-5.921 7.475-.504 2.296-.828 4.674-.848 7.019-.067 7.741-.057 15.48-.048 23.22v.013q.006 4.1.007 8.202-.002 4.498-.001 8.995c.001 6.752.001 13.503-.016 20.254 0 .179.011.363.023.549.047.783.096 1.611-.662 2.37l-.769-.442-.898-.516-.004-.002-.041-.024-.048-.027-.005-.003-.002-.001-.01-.006c-1.243-.714-2.471-1.419-3.693-2.132a255 255 0 0 1-2.659-1.579l-.002-.001c-1.93-1.155-3.859-2.311-5.846-3.356-3.62-1.903-7.282-2.12-10.902.197a50 50 0 0 1-5.486 3.066c-3.735 1.772-5.637 4.769-6.105 8.754-.168 1.443-.184 2.911-.184 4.366-.008 15.765-.008 31.525-.008 47.29l.001 8.064v.001c.001 8.063.003 16.127-.01 24.19-.002.679-.058 1.358-.123 2.145-.034.411-.07.851-.102 1.335-.404-.228-.755-.421-1.07-.594a24 24 0 0 1-1.468-.849l-1.256-.813-.028-.018-.016-.01-.006-.004c-4.689-3.035-9.378-6.069-14.049-9.13-3.14-2.058-6.527-1.386-8.482 1.734-1.903 3.038-1.112 6.322 1.931 8.262a3885 3885 0 0 1 17.252 11.07c.441.285.857.61 1.38 1.019.26.204.546.428.875.678a163 163 0 0 0-1.247.727l-.001.001c-.732.428-1.379.807-2.036 1.166a69841 69841 0 0 1-50.401 27.454q-26.883 14.63-53.78 29.245c-2.074 1.132-2.796 2.37-2.505 4.65.304 2.374 1.435 4.317 3.379 5.715 1.447 1.037 2.952 1.169 4.6.254a3420 3420 0 0 1 21.8-11.964c19.628-10.702 39.263-21.398 58.896-32.093l10.463-5.7c.63-.345 1.272-.665 1.915-.984q.423-.21.845-.423c-.054 1.206-.427 2.001-.849 2.772a41492 41492 0 0 1-9.61 17.484l-.004.007-.028.051q-3.936 7.157-7.869 14.315c-1.189 2.169-1.161 2.407.955 3.661a89 89 0 0 0 5.998 3.268c1.89.927 2.218.767 3.289-1.009.184-.304.349-.619.514-.934q.132-.253.269-.505l3.696-6.729a81158 81158 0 0 1 17.234-31.356c.309-.56.644-1.106 1.039-1.748v-.001l.001-.001c.202-.329.42-.684.658-1.079.196.352.372.661.534.944l.001.002c.324.568.586 1.029.822 1.502 3.071 6.212 7.564 10.992 13.595 14.53 14.643 8.589 29.245 17.249 43.847 25.909l.008.004.007.005.007.004.008.004.007.005.034.02q10.15 6.021 20.305 12.032c1.332.787 2.702 1.525 4.116 2.14 3.223 1.398 6.38 1.214 9.43-.586a347 347 0 0 1 6.872-3.953c2.365-1.324 3.886-3.325 4.485-5.92.385-1.673.574-3.415.607-5.133.054-2.741.048-5.483.042-8.227-.003-1.631-.006-3.262.003-4.893.003-.507.064-1.015.141-1.65.04-.325.084-.684.125-1.093.503.288.963.548 1.394.793.804.456 1.51.855 2.206 1.269l13.585 8.051a34882 34882 0 0 0 39.092 23.146c1.644.968 3.346 1.878 5.109 2.591 3.866 1.566 7.65 1.329 11.27-.865l.107-.064.244-.15.39-.238c1.466-.897 2.935-1.795 4.479-2.529 4.895-2.316 7.068-6.355 7.527-11.521.123-1.357.132-2.73.132-4.095q.012-11.045.008-22.087v-5.523l-.001-7.381c-.003-8.2-.005-16.399.017-24.599.001-.202-.012-.409-.024-.619-.052-.854-.107-1.758.725-2.587l.824.449.004.002c.607.33 1.204.654 1.792.996 1.238.718 2.469 1.447 3.701 2.176 2.532 1.499 5.064 2.998 7.652 4.397 3.616 1.955 7.298 2.013 10.91-.23 1.857-1.152 3.748-2.263 5.703-3.235 3.723-1.849 5.478-4.949 5.843-8.93.154-1.664.153-3.342.152-5.015v-.446c.008-32.345.012-64.69-.013-97.035 0-1.816.144-3.214 2.083-4.26 13.04-7.031 26.046-14.118 39.054-21.204a25319 25319 0 0 1 16.181-8.812c.388-.211.815-.349 1.296-.505.247-.079.509-.164.787-.265.021.263.047.489.07.69.042.375.074.663.053.945-.067.87-.149 1.74-.23 2.609v.009a103 103 0 0 0-.319 3.914c-.152 2.734 1.381 4.063 4.054 3.522.474-.095.921-.314 1.368-.534m11.035-19.905c-3.217 6.696-6.593 13.196-10.415 19.461.102-1.11.213-2.22.324-3.33.271-2.725.543-5.451.681-8.185.124-2.423.923-4.067 3.264-5.051.897-.378 1.765-.823 2.642-1.272 1.126-.577 2.267-1.162 3.504-1.623M349.801 326.268c0-7.073.017-14.146.034-21.218v-.009c.041-16.794.082-33.588-.108-50.379-.164-14.514-6.507-26.064-19.053-33.6-18.083-10.859-36.247-21.591-54.409-32.322l-.003-.002-.004-.002-.004-.003-.004-.002-.004-.002-.004-.003-.004-.002-.003-.002-.004-.002-.004-.003-.004-.002-.004-.002-.004-.003-.003-.002-.004-.002c-7.465-4.411-14.93-8.821-22.388-13.24q-3.931-2.33-7.859-4.664l-.003-.002c-7.248-4.306-14.496-8.611-21.777-12.857-1.948-1.136-4.051-2.177-6.22-2.727-5.531-1.394-9.819 1.242-11.156 6.777-.508 2.1-.664 4.326-.672 6.495-.019 7.733-.019 15.467-.019 23.2v.019c.001 12.575.001 25.151-.08 37.727-.02 2.961.988 4.523 3.502 5.986 11.228 6.534 22.403 13.156 33.578 19.778l.022.013q7.44 4.411 14.886 8.811c2.932 1.734 5.535 3.846 7.696 6.478 5.326 6.486 8.229 13.796 8.2 22.324-.054 15.044-.052 30.087-.049 45.131.002 11.103.004 22.206-.017 33.311 0 2.009.468 3.329 2.341 4.428a11976 11976 0 0 1 36.397 21.5l.036.022.036.021q9.875 5.851 19.755 11.691c1.246.738 2.579 1.386 3.944 1.862 6.63 2.304 11.681-.595 12.956-7.483.361-1.956.467-3.981.471-5.978.026-18.606.024-37.212.022-55.82v-.014l-.001-15.227zm-85.858 20.238c0-5.003.014-10.007.029-15.011v-.002c.034-11.758.068-23.516-.087-35.27-.147-10.959-4.928-19.905-14.284-25.592-16.617-10.096-33.37-19.962-50.124-29.829-5.536-3.26-11.072-6.52-16.604-9.789-1.398-.828-2.907-1.575-4.461-2.017-4.551-1.288-8.031.725-9.093 5.321-.443 1.927-.529 3.969-.533 5.962-.026 20.687-.024 41.374-.022 62.059l.001 16.915q.002.523.012 1.045c.012.746.025 1.492-.02 2.235-.086 1.427.459 2.407 1.689 3.153 1.706 1.03 3.37 2.13 5.036 3.23l.002.002.062.041.644.425c2.764 1.825 3.022 2.731 1.464 5.621a685 685 0 0 1-6.318 11.493c-.779 1.381-.878 2.665-.222 4.145 2.776 6.228 6.704 11.426 12.678 14.956a42749 42749 0 0 1 33.286 19.688c11.088 6.562 22.175 13.124 33.269 19.677a18 18 0 0 0 3.719 1.681c4.588 1.443 8.212-.558 9.344-5.265.422-1.746.508-3.608.512-5.416.03-13.395.025-26.794.02-40.19v-.001l-.001-2.737-.002-3.897-.001-2.637zm123.118-69.368c0-4.99.014-9.979.028-14.968v-.026c.033-11.676.066-23.351-.081-35.022-.143-11.296-5.264-20.086-14.809-26.162-2.985-1.901-6.048-3.682-9.11-5.462a601 601 0 0 1-4.043-2.365l-10.615-6.29-.04-.023-.039-.023-.012-.007-.002-.002-.002-.001-.003-.001-.002-.001-.002-.002-.002-.001-.002-.001-.003-.002-.002-.001-.002-.001-.002-.001-.002-.002-.003-.001-.002-.001-.002-.002-.002-.001-.002-.001-.003-.001-.002-.002-.002-.001-.002-.001-.002-.001-.003-.002-.002-.001-.002-.001-.002-.002-.002-.001-.003-.001-.002-.001-.002-.002c-14.044-8.322-28.086-16.643-42.159-24.917-1.775-1.046-3.768-1.911-5.769-2.342-3.435-.742-6.412 1.03-7.531 4.363-.566 1.693-.82 3.559-.865 5.35-.056 2.37-.047 4.741-.039 7.113.009 2.548.019 5.097-.052 7.643-.057 2.03.792 3.1 2.456 4.08q4.457 2.617 8.917 5.23l.011.006.01.006.01.006c12.185 7.142 24.373 14.285 36.431 21.64 12.96 7.904 19.586 19.762 19.955 34.915.164 6.794.123 13.591.082 20.389v.003c-.019 3.043-.037 6.086-.037 9.128q.001 5.513.005 11.024v.012c.009 11.354.017 22.708-.054 34.064-.017 2.304.73 3.666 2.747 4.752 2.302 1.242 4.546 2.592 6.792 3.943 1.268.764 2.538 1.528 3.819 2.273 1.098.639 2.234 1.254 3.419 1.693 5.248 1.931 9.356-.394 10.32-5.879.283-1.604.299-3.264.303-4.9.018-14.332.014-28.664.01-42.996v-.06l-.002-6.144zm-167.4-123.165c-.894-.389-1.797-.783-2.7-1.204 2.32-1.962 5.032-3.206 8.122-2.42 2.521.644 5.043 1.628 7.285 2.936 9.631 5.606 19.215 11.292 28.797 16.978l.005.003q4.892 2.903 9.788 5.803a57686 57686 0 0 1 19.897 11.789l.051.03c15.84 9.387 31.68 18.773 47.534 28.135 11.029 6.511 17.039 16.351 19.278 28.725.254 1.423.295 2.899.295 4.35l.002 6.878c.012 45.985.023 91.974-.039 137.959-.004 2.414-.447 4.907-1.144 7.224-.943 3.14-3.37 4.985-6.814 6.154 1.689-5.14 1.565-10.205 1.442-15.223-.033-1.339-.066-2.674-.064-4.006.027-20.792.024-41.584.022-62.375-.002-23.388-.004-46.776.035-70.166.02-12.087-4.502-22.152-12.886-30.598-1.841-1.853-4.006-3.477-6.253-4.814a47447 47447 0 0 0-107.194-63.513c-1.725-1.018-3.572-1.822-5.458-2.644zm83.178 4.348c-.605-.272-1.228-.552-1.872-.859 3.414-2.989 6.995-3.631 10.95-1.668a48 48 0 0 1 3.116 1.702q7.875 4.663 15.754 9.324l.154.092.003.001.002.002.003.001.002.001.003.002.002.001.003.002.002.001.003.002.002.001.003.002.002.001.003.002.002.001.003.002.002.001.002.002.003.001.002.001.003.002.002.001.003.002.002.001.003.002.002.001.003.002.002.001.003.002.002.001.003.002.002.001c16.232 9.605 32.466 19.211 48.667 28.866 10.316 6.145 15.597 15.403 15.638 27.355.095 27.306.066 54.614.037 81.921v.004l-.017 16.749c0 1.813-.127 3.654-.479 5.425-.689 3.46-3.042 5.408-6.24 6.457-.077-.094-.153-.172-.218-.239-.113-.117-.195-.201-.192-.281.054-1.511.126-3.022.199-4.532v-.002c.142-2.94.283-5.879.288-8.82.02-13.394.018-26.788.016-40.181-.003-17.221-.006-34.442.038-51.663.02-8.126-2.706-15.146-7.618-21.447a28.2 28.2 0 0 0-7.966-6.987q-10.789-6.383-21.576-12.769l-.035-.021-.007-.004-.007-.004-.006-.004-.007-.004-.007-.004-.007-.004-.007-.004-.007-.004c-15.043-8.905-30.087-17.811-45.14-26.698-1.102-.651-2.274-1.178-3.526-1.741m-37.515 244.777c4.129-1.287 6.445-4.079 6.786-8.475.065-.816.102-1.636.102-2.456.001-9.199.011-18.399.021-27.599v-.014c.026-24.323.052-48.646-.082-72.968-.062-11.176-5.133-20.127-14.719-25.908-16.836-10.153-33.777-20.14-50.716-30.125l-.002-.001q-7.905-4.658-15.805-9.324a22.5 22.5 0 0 0-3.956-1.824c-3.473-1.226-6.335.028-9.045 2.316.723.364 1.435.707 2.135 1.045 1.485.716 2.915 1.405 4.278 2.211 22.037 13.021 44.07 26.055 66.055 39.167a26.3 26.3 0 0 1 5.719 4.6c6.199 6.646 9.565 14.436 9.537 23.706-.057 19.198-.051 38.397-.044 57.595v.04c.004 11.309.008 22.618-.001 33.926 0 3.139-.078 6.278-.157 9.487v.007a791 791 0 0 0-.106 4.594m-99.285-68.109-.005.001-9.643-6.272-10.738-6.984c2.825-1.628 4.203-3.875 4.654-6.921.361.204.683.38.978.541l.004.002.007.004.001.001c.547.299 1 .547 1.433.825 6.693 4.314 13.382 8.638 20.068 12.959l1.961 1.268.169.108c.404.259.807.518 1.193.802.766.562.996 1.267.508 2.137a933 933 0 0 0-1.595 2.841c-.832-.361-1.505-.652-2.386-1.029 0 .223-.007.412-.013.577-.011.299-.019.521.021.735.648 3.382.619 3.456-2.439 5.121a611859 611859 0 0 1-106.498 58.019 25 25 0 0 1-1.606.775h-.001l-.002.001v.001h-.002l-.001.001h-.002l-.001.001h-.001l-.002.001-.002.001-.001.001h-.002v.001q-.333.149-.628.287l-2.175-3.915-.03-.052-.039-.071-1.66-2.985c1.542-1.574 104.364-57.492 108.47-58.781l.005.003zm232.148-117.531a69 69 0 0 0 1.982-1.029q32.528-17.705 65.043-35.416l7.113-3.873c5.63-3.064 11.26-6.128 16.88-9.206 2.382-1.303 2.558-1.763 2.103-4.366l-.053-.292a8 8 0 0 1-.148-1.037c-.005-.074.092-.153.233-.267a4 4 0 0 0 .259-.225c.574.328 1.206.689 1.878 1.079.118-.189.225-.356.324-.511l.001-.003c.193-.3.353-.551.499-.811 1.566-2.763 1.517-2.96-1.226-4.731-7.347-4.744-14.694-9.487-22.05-14.215-.424-.273-.881-.496-1.401-.75-.269-.132-.555-.271-.862-.43-.365 3.148-1.919 5.19-4.543 6.912l2.324 1.517.051.033.002.002.009.005.006.004.019.013.046.03c1.501.98 2.932 1.915 4.366 2.845q1.173.756 2.353 1.505c1.52.967 3.041 1.934 4.531 2.947.662.449 1.35.865 2.035 1.278 1.505.908 2.996 1.808 4.168 3.04-.507.214-1.003.41-1.488.601-1.017.4-1.982.781-2.887 1.272-27.531 14.969-55.046 29.967-82.561 44.965-.578.316-1.135.667-1.73 1.042l-.001.001-.001.001a81 81 0 0 1-.909.567c.791 2.665 1.533 5.162 2.415 8.126l.004-.004c.438-.225.839-.428 1.215-.618zm79.855-26.342c-5.179 9.426-10.385 18.902-15.658 28.495l-4.238-2.365-2.066-1.154-.983-.548c.158-.339.299-.654.433-.952v-.001c.273-.607.512-1.141.793-1.655q3.064-5.585 6.133-11.168a7324 7324 0 0 0 12.243-22.337c.906-1.661 2.05-2.919 3.751-3.789 1.874-.956 3.718-1.974 5.561-2.992 1.025-.565 2.049-1.131 3.078-1.686.615-.332 1.271-.582 2.317-.529l-11.332 20.622zm-329.3 193.107-4.867 8.841-4.303-2.362-.103-.057-.093-.051-.012-.007-.119-.065-1.56-.856-1.105-.606c.17-.366.316-.696.451-.999v-.001c.249-.56.458-1.032.705-1.481q3.363-6.136 6.731-12.268c3.929-7.156 7.859-14.312 11.764-21.479.861-1.583 1.964-2.767 3.563-3.608 2.476-1.298 4.924-2.647 7.334-3.975a879 879 0 0 1 3.072-1.687c.105.066.184.112.244.148.1.058.148.086.178.127.046.061.087.176.058.237l-.093.215-.072.169c-.195.456-.39.91-.626 1.343-7.004 12.73-14.011 25.458-21.147 38.422m309.717-248.277.055 1.031v.015c.039.744.074 1.424.125 2.103l.001.01c.242 3.347.483 6.693.754 10.035l.015.203v.005c.041.578.085 1.201.374 1.633.287.422 1.033.828 1.493.75.446-.074 1.143-.808 1.111-1.193-.08-.852-.312-1.692-.543-2.526v-.001q-.138-.488-.261-.974c4.067-1.337 5.711-3.248 5.203-5.929-.299-1.566-1.181-2.136-3.21-1.98v.402l.003.575v.052c.003.72.007 1.443-.007 2.165q-.004.192-.002.389c.005.979.01 2.001-1.462 2.55-.312-3.296-.599-6.342-.902-9.581l-.258.026-.508.051-.513.05-.003.001-1.461.146zM141.127 316.9c.016 1.804 1.316 3.132 3.059 3.128 2.054-.008 4.132-2.292 4.186-4.604.041-1.739-1.32-3.276-2.915-3.297-2.141-.028-4.35 2.411-4.326 4.777zm317.266-128.995c.164-1.627 1.267-2.246 3.071-2.464q-.04.639-.072 1.236c-.046.815-.089 1.583-.158 2.348-.172 1.971-.363 3.94-.553 5.908l-.002.018-.001.018-.157 1.624c-.086.902-.414 1.595-1.484 1.546-1.197-.053-1.497-.816-1.402-1.857q.112-1.264.221-2.527l.002-.026v-.002c.168-1.942.336-3.884.535-5.822M59.094 401.023c-.254-2.488-1.074-4.276-2.878-5.444-1.382-.898-2.6-.25-2.591 1.381.012 2.132.943 3.887 2.681 5.117.455.324 1.316.541 1.739.32.391-.203.648-.668.849-1.033.074-.135.141-.256.204-.345zm401.378-267.287.012-.672-.124.011q-.754.07-1.508.132l.005.086.002.04.008.139.014.264zm-10.509 115.661c-2.915-.058-4.091-1.489-3.452-4.149.664-2.765 1.337-5.528 2.011-8.291l.002-.009c.79-3.241 1.579-6.481 2.354-9.724.27-1.136.606-2.148 1.972-2.23 1.599-.095 3.128.188 4.141 1.562.262.36.25 1.053.135 1.537a2789 2789 0 0 1-3.259 13.271q-.75 3.033-1.497 6.065c-.328 1.328-1.086 2.062-2.407 1.968m-2.193-2.276c.805.171 1.456.31 2.138.457l.679.146c.461-1.919.93-3.807 1.396-5.681l.003-.012.002-.008.002-.007c1.115-4.483 2.211-8.887 3.123-13.443l-2.739-.435-.973 4.011-.903 3.722zM99.467 315.735c-.693 2.874.484 4.35 3.382 4.35v.004c1.468-.004 2.063-.459 2.526-2.304 1.57-6.261 3.1-12.534 4.6-18.811.136-.565.127-1.295-.119-1.8-.488-1.012-2.82-1.763-4.157-1.537s-1.636 1.222-1.907 2.337c-.738 3.074-1.49 6.145-2.243 9.216l-.001.006h-.001v.003c-.697 2.845-1.394 5.689-2.08 8.536m5.714-16.019c.099-.31.206-.645.32-1.019h.004l.82.245.104.032.038.011c.504.151.937.282 1.392.417q.002.243.014.449c.014.275.025.511-.027.732a4152 4152 0 0 1-3.825 15.854c-.027.111-.048.232-.07.354-.064.362-.131.736-.348.905-.435.332-1.144.64-1.607.508-.443-.127-.89-.787-1.017-1.295-.087-.344.038-.746.161-1.144.046-.148.091-.295.126-.439l.178-.728.001-.004v-.002l.001-.001v-.001l.002-.01.004-.014v-.003l.001-.001v-.003l.001-.001v-.003l.003-.01.003-.013v-.001l.001-.001v-.003l.001-.001v-.003l.001-.001c1.074-4.398 2.149-8.799 3.239-13.193.127-.511.287-1.014.478-1.612M92.455 365.92c.167-1.866.328-3.685.486-5.47.388-4.399.759-8.592 1.158-12.783.177-1.866 1.448-2.714 3.494-2.493 2.037.217 3.005 1.259 2.833 3.19a1653 1653 0 0 1-1.649 17.396c-.23 2.272-.906 2.973-2.702 3.108-2.484.189-3.702-1-3.616-2.948zm2.68-10.782v.013c-.323 3.463-.64 6.883-.954 10.302-.086.947.234 1.619 1.288 1.701 1.156.09 1.603-.529 1.697-1.623.167-2.017.347-4.032.526-6.046.25-2.791.498-5.581.712-8.374.14-1.845.037-1.857-2.722-1.821l-.004.005-.526 5.663-.004.043-.002.018-.004.043zm30.991-104.883-.003.008c-.759 1.99-1.484 3.891-2.212 5.789q-.56 1.456-1.117 2.914c-1.025 2.68-2.05 5.36-3.106 8.029-.976 2.468-1.657 2.735-4.133 1.673-.548-.235-1.059-.552-1.596-.884l-.001-.001-.001-.001q-.387-.242-.801-.484.118-.416.215-.788c.138-.521.261-.987.433-1.434a3714 3714 0 0 1 6.892-17.81c1.095-2.805 1.755-3.075 4.445-1.837.478.22.925.51 1.443.846l.002.001.002.002c.262.17.542.351.853.541l-.004.004zm-2.99-3.744c-.146.169-.259.291-.348.385v.001c-.141.15-.217.232-.255.328l-1.469 3.736-.001.004-.001.001v.001l-.001.001v.002l-.001.001v.001l-.001.001v.002l-.001.001v.001l-.001.001v.002l-.001.001v.002l-.001.001v.001l-.001.001v.002a1356 1356 0 0 0-5.442 13.982c-.66 1.738-.344 2.013 2.231 2.251l3.702-9.637.077-.198.008-.023c1.26-3.278 2.531-6.583 3.814-9.925-1-.406-1.632-.66-2.308-.931zm309.11 53.484.08.026.13.045h-.004c2.062.439 2.509-.677 2.952-1.825q.849-2.196 1.695-4.394l.001-.001c1.852-4.807 3.705-9.614 5.606-14.399.517-1.296.246-2.079-.963-2.628q-.162-.074-.322-.15l-.002-.001a11 11 0 0 0-1.173-.497c-2.12-.717-2.759-.471-3.555 1.566a2151 2151 0 0 0-7.154 18.557c-.701 1.841-.459 2.32 1.341 3.173.509.244 1.049.422 1.368.528m6.213-21.827c.126-.213.261-.441.401-.697v-.004l1.704.75.625.275-.255.72-.131.375-.001.003c-.24.687-.457 1.304-.691 1.915q-2.335 6.073-4.68 12.145v.001l-.001.001-.008.02-.007.021-.028.072-.778 2.016-.079.202-.044.11-.045.113-.005.012c-.111.278-.222.555-.319.838-.349 1.001-.923 1.563-2.055 1.099-1.004-.41-1.041-1.148-.697-2.017l.079-.211.003-.006q.054-.149.111-.295l1.906-4.943.002-.007c1.46-3.788 2.92-7.576 4.394-11.36.146-.379.355-.733.599-1.148M323.907 458.571c-.246.374-.521.795-.888 1.107a1495 1495 0 0 1-14.383 12.119c-1.345 1.119-2.677.812-3.973-.726-1.267-1.5-1.32-2.882-.049-4.079.606-.568 1.256-1.088 1.906-1.607.344-.275.688-.55 1.026-.833a3482 3482 0 0 0 11.274-9.462c.98-.824 1.993-1.292 3.215-.537 1.234.766 1.89 1.906 2.165 3.583h.004c-.097.129-.194.278-.297.435m-15.328 7.26-1.944 1.628c.158.214.288.4.403.565l.003.004c.218.311.383.547.578.756.152.165.34.295.595.472.137.095.294.204.475.339l9.097-7.637.006-.005.106-.089 4.666-3.917c-.118-.214-.208-.398-.286-.557-.146-.296-.248-.504-.403-.664-.204-.21-.45-.376-.767-.591a18 18 0 0 1-.52-.361l-.004-.004-11.626 9.742-.227.191zm-93.143-354.702q.15-.24.287-.443l-.005.004c-.34-1.825-1.455-2.71-2.763-3.448-1.218-.685-2.058-.099-2.845.787-.864.973-1.737 1.94-2.61 2.906l-.004.005h-.001v.001l-.001.001-.001.001v.001h-.001v.001h-.001q-.794.878-1.584 1.758-1.166 1.296-2.334 2.59l-.001.001c-2.212 2.451-4.424 4.902-6.595 7.388-1.308 1.501-1.053 2.612.714 4.141 1.644 1.419 2.521 1.444 3.919-.094 4.354-4.789 8.672-9.602 12.985-14.424.332-.37.602-.797.841-1.176m-1.358-.706a54232 54232 0 0 1-14.259 15.9h-.004c-.812-.68-1.341-1.123-2.157-1.804 2.859-3.476 5.845-6.751 8.852-10.05v-.001l.001-.001.002-.001v-.001h.001a449 449 0 0 0 5.375-5.969l1.036.912.01.009.352.31zm146.145 310.432a7 7 0 0 0-.218.394h-.001c-.163.308-.338.638-.581.91-4.498 5.022-8.995 10.045-13.542 15.022-1.066 1.168-1.78 1.164-3.104.225-.517-.364-.972-.824-1.402-1.291-.947-1.033-.972-2.071 0-3.149a5862 5862 0 0 0 13.53-15.035c.791-.881 1.656-1.041 2.677-.459 1.3.742 2.415 1.632 2.641 3.383m-14.473 14.1c-1.501 1.647-1.714 1.59-3.406-.609 3.506-3.904 6.955-7.74 10.455-11.632l3.578-3.979c.766.586 1.369 1.046 2.095 1.595-.122.199-.227.386-.326.562-.195.349-.365.651-.588.902a2050 2050 0 0 1-11.808 13.161m-59.61 52.484c-.084.11-.175.264-.279.438-.278.468-.645 1.085-1.189 1.419-4.883 3.001-9.819 5.917-14.78 8.795-1.575.914-3.112.283-4.059-1.46-.906-1.664-.648-3.091.873-4.001a472 472 0 0 1 5.105-2.985c3.178-1.839 6.354-3.679 9.446-5.65 1.939-1.238 4.637.217 4.879 3.444zm-15.785 8.151q.253-.084.464-.143c.275-.08.503-.147.7-.263 3.859-2.247 7.704-4.506 11.55-6.769q.106-.062.221-.123c.265-.141.543-.29.648-.513.205-.443.439-1.123.242-1.447-.274-.451-.93-.906-1.435-.923-.484-.013-.995.295-1.469.582a1273 1273 0 0 0-8.957 5.286c-.663.394-1.321.797-2.014 1.22l-.001.001-.949.579-.21.128-.18.109c.554.906.96 1.566 1.394 2.272zm-2.509.82.549-.357-.134-.205-.06-.09-.009-.014q-.255-.39-.514-.777l-.134.069-.064.034-.092.048-.096.049zm-168.3-87.539-.042-.41H99.5c.016-.005.037-.005.053-.005q-.175-2.194-.347-4.387c-.256-3.24-.511-6.479-.788-9.717-.177-2.062-1.485-3.14-3.436-2.956-2.01.193-3.05 1.419-2.882 3.469l.079.955.11 1.321v.008c.378 4.572.756 9.145 1.188 13.714.197 2.071 1.304 2.973 3.194 2.874 2.013-.102 3.071-1.283 3.001-3.378-.014-.433-.06-.864-.106-1.295zm-5.601-12.756 2.73-.295c.06.335.124.646.185.942.117.573.223 1.089.266 1.608a1169 1169 0 0 1 .647 8.499v.011h.001v.01l.213 2.874c.007.089.028.188.049.285.042.2.084.398.004.511l-.171.249v.001c-.324.474-.674.988-1.132 1.168-.771.3-1.431-.188-1.55-1.057-.163-1.194-.26-2.394-.357-3.595l-.016-.198c-.215-2.659-.423-5.32-.638-8.064v-.008l-.077-.967zm2.176-2.234-.05-.385v-.003l-.052-.391-1.628.283q.019.144.035.287l.006.048.03.239.783-.037.023-.001.023-.001zm357.852-299.57c-.422-1.337-1.402-2.092-2.87-2.071v-.004c-2.378.024-3.763 1.956-3.038 4.251q.737 2.332 1.484 4.66l.001.003.001.003.001.002v.003l.001.002.001.003.001.002.001.003v.002l.001.003.002.004.001.005.001.004.002.004.002.006.002.006.002.008.003.008q.614 1.918 1.224 3.839c.188.597.366 1.198.544 1.799v.001c.364 1.231.727 2.461 1.182 3.657.64 1.689 2.079 2.263 3.747 1.701 1.685-.566 2.559-1.886 2.071-3.567-1.394-4.797-2.87-9.57-4.367-14.338Zm-2.842 6.296-.946-3.078 1.22-.313 1.482-.38.767 2.375c.742 2.295 1.467 4.538 2.185 6.78.307.956.598 1.911.873 2.874.242.853-.139 1.423-.922 1.71-.816.304-1.448.012-1.755-.795-.357-.935-.66-1.89-.955-2.846-.644-2.072-1.281-4.149-1.949-6.327m-1.426-5.522c1.173.496 1.763.324 2.186-.64-.984-.758-1.538-.479-2.186.64M247.977 506.04c-.024 1.243-.684 2.178-1.918 2.608l-.503.177c-4.724 1.663-9.449 3.327-14.208 4.895-1.702.561-3.178-.459-3.727-2.28-.5-1.66.148-3.165 1.804-3.735a654 654 0 0 1 7.123-2.391l.005-.001c2.454-.814 4.909-1.627 7.353-2.47 2.415-.833 3.989 1.291 4.067 3.202zm-15.272 5.396 3.918-1.317.121-.04 8.093-2.722c.939-.316 1.705-.788 1.3-1.964-.398-1.156-1.288-1.116-2.231-.792-3.854 1.333-7.708 2.67-11.554 4.023-.091.031-.156.133-.241.266-.049.076-.103.161-.173.25.201.595.423 1.259.767 2.292zm-2.46.541c.59-1.053.373-1.623-.578-2.074-.709.926-.484 1.488.578 2.074m-126.214-77.01c-.525-1.675-1.422-2.291-2.953-2.292-2.423.005-3.747 1.833-3.025 4.199.21.697.434 1.392.657 2.086v.001q.207.64.409 1.283.494 1.584.98 3.171v.001c.74 2.409 1.48 4.818 2.283 7.205.64 1.902 2.075 2.542 3.834 1.952 1.783-.599 2.567-1.932 2.013-3.822a734 734 0 0 0-4.198-13.784m-3.31 4.838-.199-.642-.366-1.186h.008c.8-.248 1.423-.439 2.136-.658l.57-.175.798 2.493c.753 2.356 1.483 4.636 2.204 6.917.261.83.495 1.673.728 2.511l.001.002v.001l.025.089c.266.964-.103 1.587-1.058 1.841-.873.23-1.39-.201-1.644-.992a373 373 0 0 1-1.644-5.166c-.515-1.651-1.025-3.304-1.559-5.034zm1.481-4.489q-1.595-1.042-2.603.606c.996-.233 1.644-.385 2.603-.606m89.519 80.762c.168 1.853 1.55 2.968 3.587 2.849l3.263-.216q4.893-.326 9.788-.641c1.303-.082 2.267-.652 2.726-1.898.443-1.201.381-2.501-.619-3.264-.779-.598-1.96-.98-2.948-.951-4.268.119-8.528.394-12.788.672-1.984.132-3.177 1.567-3.009 3.449m9.21.782-3.843.23v.004c-.061-.765-.108-1.337-.159-1.946v-.003l-.001-.008-.054-.654q.442-.08.847-.163h.001c.568-.114 1.095-.219 1.625-.256a497 497 0 0 1 8.167-.487c.963-.054 1.919.065 2.025 1.279.107 1.205-.754 1.529-1.754 1.591-2.23.138-4.462.271-6.735.406l-.06.004-.042.002zm-6.974-1.971c-.274.264-.475.458-.444.598.082.36.3.689.518 1.018.088.132.175.263.253.397.081-.095.18-.188.279-.28.218-.205.436-.409.447-.626.016-.285-.117-.579-.29-.96-.086-.19-.182-.402-.275-.644-.166.188-.337.352-.486.495zm-79.049-47.815c.104.077.255.164.43.265v.001c.492.285 1.179.682 1.587 1.272 2.394 3.431 4.678 6.941 6.925 10.471 1.189 1.87.89 3.456-.668 4.535-1.558 1.078-3.215.771-4.445-1.005-2.435-3.513-4.838-7.056-7.154-10.652-1.402-2.177.09-4.813 3.325-4.887m-.755 5.74c.63.939 1.24 1.852 1.838 2.747l.004.006.009.013.006.009.007.011.002.002c1.394 2.086 2.72 4.071 4.063 6.048.508.75 1.226 1.119 2.087.561.853-.553.865-1.353.361-2.127-1.335-2.039-2.687-4.066-4.071-6.141l-.003-.004-1.834-2.752-.257.168zm-.483-1.689q.21-.252.39-.464c.347-.409.615-.724.819-1.078.033-.061-.652-.746-.84-.676-.431.152-.87.533-1.087.939-.06.113.099.345.32.665.122.179.264.385.398.614M433.9 60.953c-1.377.488-2.259 1.738-2.189 3.44.034.08.071.185.113.304v.001c.115.326.27.764.518 1.138l.16.242.003.005c2.25 3.411 4.502 6.825 6.828 10.183 1.295 1.87 2.804 2.173 4.407 1.103 1.608-1.078 1.915-2.636.779-4.493-1.135-1.858-2.334-3.678-3.532-5.496v-.001h-.001v-.001l-.001-.001v-.001l-.002-.003-.154-.233-.289-.441-.002-.003c-1.001-1.525-2.002-3.05-3.067-4.53-.967-1.344-2.185-1.705-3.571-1.213m2.177 7.507-.009-.014-.545-.825-.7-1.06-.004-.003 1.566-1.115.508-.361q.153.085.296.15c.19.09.356.17.446.3a937 937 0 0 1 5.306 7.893l.101.149c.184.268.391.57.35.81-.099.562-.275 1.317-.681 1.559-.385.233-1.308.123-1.632-.201-.599-.603-1.075-1.336-1.547-2.065a44 44 0 0 0-.367-.56 1058 1058 0 0 1-3.077-4.64zm-1.24-4.176-.346.515c-.16-.193-.326-.37-.471-.524l-.001-.001-.001-.001-.001-.001-.001-.001c-.267-.285-.464-.495-.419-.587.197-.419.578-.84.992-1.021.141-.062.389.127.639.317.114.086.229.173.333.236-.225.328-.448.659-.724 1.068m-41.668-26.751a22 22 0 0 1-1.117-.266l-1.684-.46c-3.116-.85-6.231-1.7-9.341-2.566-1.783-.496-2.677-1.947-2.316-3.686.369-1.767 1.8-2.857 3.636-2.39a267 267 0 0 1 12.559 3.559c1.455.447 2.054 1.845 1.779 3.28-.295 1.541-1.541 2.607-3.214 2.595l-.299-.066zm-7.2-3.682.003.001c2.477.694 4.826 1.351 7.198 1.914.492.115 1.44-.385 1.69-.86.459-.862-.082-1.554-1.025-1.817-2.626-.73-5.253-1.455-7.937-2.196l-.009-.003-1.525-.42-.57 1.68-.005.014-.003.01-.003.007-.33.97c.857.236 1.693.47 2.516.7m-5.111-3.591.001-.002.001-.002c.097-.178.204-.373.308-.596.153.184.311.345.452.487.268.271.47.477.444.646-.05.307-.268.587-.486.866-.091.117-.182.233-.261.352a4 4 0 0 0-.326-.244c-.258-.18-.516-.36-.51-.531.008-.302.17-.6.376-.975zM164.48 507.823l-1.714-.438h-.004c-1.718.008-2.898 1.038-3.161 2.62-.27 1.652.537 3.092 2.202 3.563 1.586.45 3.182.871 4.777 1.291h.001c2.268.597 4.535 1.195 6.776 1.878 2.345.714 3.87-.811 4.219-2.275.422-1.784-.439-3.051-2.633-3.739a161 161 0 0 0-5.748-1.673 292 292 0 0 0-4.714-1.227zm2.576 5.429c-.88-.245-1.777-.495-2.699-.75l.294-.774.187-.489.016-.044.524-1.378 2.268.625.009.002c2.428.666 4.803 1.318 7.149 2.062.484.152 1.045 1.033 1.033 1.566-.024.997-.902 1.325-1.792 1.091a479 479 0 0 1-6.985-1.91zm-4.507-2.012a8 8 0 0 0-.459.52v-.004a7 7 0 0 0-.378-.528c-.23-.302-.406-.533-.36-.706.081-.311.327-.576.573-.842.101-.109.202-.218.292-.331.097.108.218.217.339.326.274.246.547.492.538.728-.008.264-.248.52-.545.837M411.497 39.493c.071.032.171.067.289.108.346.122.849.3 1.261.602 3.218 2.361 6.425 4.74 9.577 7.187 1.599 1.242 1.804 2.804.755 4.28-.996 1.407-2.62 1.894-4.039.906a282 282 0 0 1-10.315-7.556c-1.066-.82-1.464-2.054-.882-3.428.546-1.295 1.48-2.025 3.354-2.095zM414 46.66l.011.009h.002a548 548 0 0 0 5.803 4.25c.746.538 1.554.546 2.165-.261.545-.722.328-1.41-.324-1.911a832 832 0 0 0-6.239-4.71l-.026-.02-1.652-1.24-1.706 2.432zm-3.298-5.654c-.132.203-.258.384-.375.552-.28.401-.506.725-.622 1.084-.049.148.734.758.783.717.431-.344.853-.75 1.103-1.23.045-.087-.149-.298-.414-.584v-.001c-.147-.159-.315-.34-.475-.538M136.165 492.002a7 7 0 0 1-.442-.176h-.004c-1.652.225-2.673.885-3.21 2.181-.554 1.341-.254 2.616.84 3.452 3.395 2.595 6.831 5.133 10.34 7.569 1.505 1.049 3.252.467 4.199-1.099.926-1.534.635-2.891-1.091-4.235a460 460 0 0 0-9.356-7.065c-.397-.294-.874-.475-1.276-.627m2.681 7.47q-1.193-.878-2.418-1.775c.397-.579.725-1.061 1.09-1.597l.002-.003.007-.01.01-.015.007-.01.246-.362.299-.439q1.132.845 2.244 1.668c1.988 1.477 3.928 2.917 5.849 4.384.673.517.689 1.234.14 1.911-.546.668-1.243.791-1.919.303a614 614 0 0 1-5.539-4.041l-.006-.005-.003-.002-.004-.003zm-2.506-4.774c-.495-.458-.785-.728-1.076-1.003l-.174.201-.096.11-.002.003c-.328.376-.657.751-.929 1.162-.029.041.684.763.832.693.35-.165.648-.439 1-.765q.205-.192.445-.401m284.291-165.509-.015.064-.024.102c-.102.431-.203.862-.391 1.251-4.522 9.426-9.557 18.212-11.389 19.438.07-.35.115-.662.155-.944.073-.517.131-.929.312-1.274a1912 1912 0 0 1 9.692-18.298c.166-.312.483-.543.799-.773h.001c.146-.106.291-.212.422-.326l.55.328a10 10 0 0 0-.112.432m-4.007-2.145a9 9 0 0 1 .089-.559l.004-.004-.627-.271a4 4 0 0 1-.332.258c-.237.174-.474.346-.599.579a2131 2131 0 0 0-10.127 19.065c-.146.276-.112.646-.071 1.082.02.224.043.466.043.722 1.734-1.349 7.999-12.358 11.357-19.746.155-.343.209-.734.263-1.126m-276.55-108.213c-.887-.893-.466-1.574-.085-2.191.077-.124.153-.246.216-.367 1.476-2.822 2.976-5.632 4.477-8.442q1.094-2.049 2.185-4.1.483-.912.957-1.827l.001-.002c.564-1.085 1.128-2.17 1.724-3.239.315-.565.811-1.029 1.709-1.34.008.149.034.308.061.467.057.342.113.684-.016.931a2157 2157 0 0 1-10.254 19.29c-.121.224-.36.387-.613.558a5 5 0 0 0-.362.262M388.9 374.681c.028-.181.055-.362.097-.534l-.841-.373c-1.211 1.446-2.266 3.014-3.32 4.582l-.002.004c-.447.664-.893 1.328-1.351 1.983q-.671.957-1.347 1.909l-.001.002-.001.001-.002.003-.001.001c-1.074 1.517-2.148 3.033-3.167 4.586a40 40 0 0 1-1.159 1.646c-1.162 1.593-2.333 3.198-2.797 5.242.709-.09 1.304-.303 1.599-.725a1863 1863 0 0 0 11.98-17.274c.198-.287.255-.67.313-1.053m3.93 2.193v.002l-.611-.293a2 2 0 0 1-.249.085c-.179.054-.358.108-.443.227a2487 2487 0 0 0-12.653 18.118c-.153.221-.146.554-.137.933.004.189.008.389-.007.592 1.854-.972 8.627-10.09 13.391-17.876.223-.367.362-.783.502-1.2.066-.197.132-.394.207-.586l.004.002zM147.399 195.698c.016-.265.034-.574.079-.942-2.026 1.632-7.799 11.796-11.525 19.869-.157.34-.218.721-.285 1.143-.033.209-.068.428-.117.657.196-.011.376-.007.529-.004.266.006.45.01.492-.066 3.571-6.519 7.125-13.05 10.639-19.598.142-.262.161-.59.188-1.059m34.051-44.475c-.061.19-.109.39-.157.589-.103.426-.205.851-.437 1.186a1888 1888 0 0 1-11.636 16.761c-.348.5-.951.82-1.722.988.39-2.048 1.551-3.623 2.702-5.186.409-.555.817-1.109 1.189-1.682 1.278-1.972 2.635-3.888 3.993-5.805v-.001l.644-.91c.437-.619.864-1.247 1.29-1.876 1.056-1.557 2.112-3.114 3.339-4.528l.23.135.168.097.006.004zm-5.777-1.538c-4.313 5.486-11.488 16.347-12.136 18.401 1.12.416 1.51-.2 1.869-.767a5 5 0 0 1 .198-.299c.939-1.299 1.851-2.62 2.763-3.94q.488-.708.98-1.415.848-1.224 1.698-2.447c1.917-2.762 3.834-5.524 5.727-8.303.07-.103.151-.207.233-.313.445-.571.94-1.206.033-2.164q-.244.217-.484.412c-.328.27-.638.526-.881.835" clip-rule="evenodd"/>
</svg>
