<svg xmlns="http://www.w3.org/2000/svg" width="550" height="550" fill="none" viewBox="0 0 550 550">
    <path fill="#fff" d="M276.89 30.279c-2.092 1.654-4.182 3.306-6.06 5.193l.004.004c2.766 4.044 5.751 7.939 8.737 11.834a503 503 0 0 1 4.846 6.393c.841 1.096 1.184 2.173 1.032 3.548-.156 1.741-.35 3.474-.543 5.206-.392 3.518-.784 7.03-.864 10.585 3.707-.058 7.327-.338 10.98-.62h.001a608 608 0 0 1 3.239-.245c1.555-.131 2.679.28 3.808 1.376a646 646 0 0 1 5.005 4.82l.001.001c3.639 3.53 7.283 7.065 11.088 10.392q.16-.06.292-.1c.169-.053.303-.096.405-.18q1.806-1.476 3.608-2.959h.001l.013-.011c2.318-1.906 4.636-3.812 6.975-5.692.861-.69.977-1.4.726-2.42a549 549 0 0 1-1.436-6.086c-.624-2.691-1.248-5.382-1.925-8.059-.371-1.475-.012-2.392 1.148-3.305 1.167-.984 2.365-1.92 3.561-2.856h.001c2.371-1.855 4.734-3.703 6.827-5.895-3.783-2.54-7.668-4.844-11.562-7.153h-.001c-2.006-1.19-4.015-2.38-6.014-3.607-1.152-.685-1.973-1.518-2.536-2.754a908 908 0 0 1-2.77-6.026v-.001h-.001c-2.082-4.56-4.166-9.124-6.418-13.588-.154.057-.273.094-.366.123-.142.044-.225.07-.288.12a279 279 0 0 1-4.637 3.81c-2.437 1.973-4.875 3.946-7.183 6.026-.526 1.295-1.443 1.092-2.472.753a358 358 0 0 0-3.534-1.137h-.001a222 222 0 0 1-5.618-1.841c-1.344-.466-2.376-.383-3.516.59-1.462 1.318-3.008 2.54-4.553 3.761m21.899 40.678c-4.657.403-8.783.682-13.559.877h-.004c.171-1.748.324-3.404.473-5.02v-.003c.31-3.362.604-6.548 1.01-10.018.155-1.208-.152-2.189-.897-3.17a1401 1401 0 0 0-3.199-4.244l-.001-.001c-3.048-4.034-6.041-7.995-9.047-12.236 3.269.764 6.289 1.775 9.338 2.796 1.804.604 3.618 1.212 5.5 1.773 1.958.622 1.978.618 2.97-1.232a178 178 0 0 0 1.962-3.685h.001c1.16-2.22 2.303-4.408 3.702-6.656 3.642 6.942 5.496 11.221 6.728 14.064 1.097 2.53 1.701 3.922 2.632 5.041 1.138 1.367 2.765 2.327 6.38 4.46h.001a341 341 0 0 1 11.751 7.204c-3.56 2.153-6.853 3.967-10.465 5.908-1.1.578-1.299 1.24-1.012 2.408.274 1.16.548 2.303.819 3.438 1.035 4.325 2.039 8.52 2.92 13.027-3.41-2.709-6.455-5.695-9.517-8.698h-.001c-1.602-1.572-3.208-3.147-4.874-4.69-1.06-1.028-2.136-1.482-3.611-1.343m9.925-50.884a6 6 0 0 1-.378.087c-.188.039-.319.065-.41.139q-1.817 1.479-3.628 2.965l-.003.002-.002.001c-1.763 1.445-3.526 2.89-5.301 4.32-.869.697-.698 1.407-.303 2.256q1.484 3.186 2.96 6.378l.007.013.001.003.001.003c1.764 3.808 3.527 7.616 5.323 11.407.343.726.961 1.447 1.639 1.866 2.907 1.79 5.832 3.554 8.756 5.318h.002v.001c2.44 1.471 4.879 2.942 7.308 4.429 1.025.625 1.77.542 2.663-.228 1.395-1.2 2.767-2.32 4.138-3.439 1.658-1.354 3.316-2.707 5.011-4.2a313 313 0 0 0-11.728-7.172c-3.556-2.086-5.262-3.086-6.488-4.501-1.13-1.304-1.852-2.96-3.241-6.143-1.274-2.918-3.107-7.118-6.327-13.505m10.472 45.509c2.012-1.175 3.998-2.335 6.237-3.26l.004-.004a425 425 0 0 1 1.986 8.382l.001.004c.47 2.045.941 4.095 1.45 6.205.239.993.155 1.786-.698 2.472-1.663 1.338-3.315 2.688-4.968 4.038q-1.74 1.423-3.483 2.84c-.136.109-.299.18-.512.272a9 9 0 0 0-.409.186c-1.094-3.47-1.868-7.005-2.643-10.545-.442-2.021-.885-4.044-1.388-6.056-.403-1.762-.395-1.794 1.192-2.703a96 96 0 0 0 3.231-1.831m-27.051-36.11q1.455.469 2.974.953v.004c-1.91 3.608-3.6 6.801-5.259 9.93-2.288-.223-15.085-4.397-16.835-5.577 1.875-1.284 3.596-2.725 5.32-4.169h.001c1.23-1.03 2.462-2.062 3.752-3.039.503-.394 1.348-.789 1.878-.637 2.688.773 5.354 1.63 8.169 2.535m-49.231 105.959c-9.902.411-19.796.823-29.721 1.434l-.004.004-.873 3.657c-1.091 4.567-2.174 9.103-3.213 13.697-.311 1.399-.941 2.208-2.372 2.651-20.316 6.594-40.688 17.198-52.696 35.513-5.932 8.727-7.722 18.929-7.324 29.314q-.073 37.52-.156 75.034v.01c-.095 43.756-.189 87.509-.25 131.27.102 3.846.03 7.713-.043 11.582-.144 7.703-.289 15.417.948 22.999 1.594 7.61 5.238 14.304 10.09 20.304 44.072 53.433 180.676 53.329 217.245-8.544 3.624-6.984 5.502-14.778 5.179-22.656.02-34.424.114-68.845.207-103.265.094-34.419.188-68.838.208-103.26q.003-3.281.002-6.562v-.003c-.001-6.224-.002-12.447.077-18.671.256-9.082-1.606-18.227-6.446-25.945-21.44-33.432-68.591-44.38-105.986-45.548-2.304-.052-2.328-.076-2.858-2.284a691 691 0 0 1-.976-4.147l-.001-.004c-.438-1.88-.876-3.759-1.335-5.632-.438-1.792-.483-1.79-2.314-1.711h-.007c-5.802.281-11.593.522-17.381.763m-53.761 120.045c-45.954-28.736-28.684-70.388 16.015-87.144l.004.008a6936 6936 0 0 1 8.826 37.542l.023.099c.415 1.784.423 1.817 2.369 1.739 11.439-.476 22.878-.982 34.317-1.488l.179-.007 10.378-.459c2.584-.115 2.611-.131 3.174-2.503q1.092-4.617 2.18-9.234l.001-.007.002-.006.001-.004.001-.003a5725 5725 0 0 1 4.464-18.836c.323-1.36.327-2.647-.008-3.999q-.318-1.334-.633-2.64v-.001c-.845-3.507-1.664-6.905-2.373-10.555 14.863.196 29.821 2.352 44.017 6.877 24.889 7.77 56.607 26.508 52.421 56.711-3.313 18.326-19.335 30.96-35.214 38.702-42.666 19.806-99.232 19.072-140.144-4.792m-41.469 95.513h.355v-.004c6.323 19.499 23.952 32.599 41.816 41.05.438.207.808.371 1.12.509.804.355 1.224.541 1.441.863.237.354.23.871.215 1.954-.004.311-.009.667-.009 1.08-.012 17.609-.024 35.226-.064 52.831-.104 1.144.299 1.91 1.447 2.284 45.843 18.798 104.307 17.865 148.663-4.704 1.595-.805 1.981-1.937 1.981-3.608a8645 8645 0 0 1 .012-30.555v-.003c.012-7.639.024-15.276.02-22.911-.103-1.216.435-1.937 1.463-2.583 3.253-2.045 6.499-4.122 9.64-6.339 9.819-7.068 18.056-16.644 22.222-28.102.111-.303.259-.598.693-.853.151 12.339.107 24.685.063 37.031-.026 7.226-.052 14.452-.039 21.676-.012 4.788-.47 9.556-2.009 14.117-11.581 31.563-49.096 45.596-79.666 51.221-39.806 6.642-83.11 2.599-118.32-18.199-13.786-8.456-26.655-20.811-30.247-37.136-.574-2.703-.901-5.51-.909-8.272.006-6.205-.004-12.41-.014-18.616-.023-14.245-.046-28.491.126-42.731m.407-123.112c28.616 74.283 203.395 74.694 230.864-.419l.004-.004c.265 7.006.053 13.953-.161 20.932q-.081 2.559-.15 5.125c-.136 3.01-.893 6.087-1.89 8.954-10.924 28.217-42.047 41.589-69.547 48.41-40.864 9.197-85.869 6.211-123.32-13.427-15.807-8.719-30.897-21.572-35.099-39.883-.586-2.551-.885-5.222-.925-7.842.011-2.176-.007-4.35-.026-6.523-.043-5.111-.086-10.215.25-15.323m230.397 205.239.227.038c.009 4.479-.085 8.959-.18 13.438v.002c-.076 3.637-.153 7.274-.174 10.911-.032 3.336-.858 6.526-1.902 9.607-9.464 25.623-36.59 39.098-61.255 46.525-41.916 11.553-88.779 9.731-128.211-9.373-17.215-8.663-34.246-22.361-38.663-42.047-.538-2.492-.785-5.087-.825-7.639 0-2.035-.018-4.06-.035-6.081-.046-5.266-.091-10.504.174-15.817 28.218 74.199 202.71 74.765 230.645.402zm-98.219-30.974c19.243-1.99 37.853-7.124 54.497-17.298v-.004c.18 9.958.121 19.88.062 29.806v.004c-.046 7.721-.092 15.445-.026 23.188.004 1.902-.622 2.923-2.212 3.883-39.341 22.166-90.103 22.752-130.99 4.302-.893-.391-1.328-1.017-1.28-1.997.047-6.908.034-13.807.022-20.703-.021-11.114-.042-22.222.189-33.357 8.556 3.561 16.98 6.897 26.041 8.919.583.142 1.136.421 1.689.699.638.322 1.277.644 1.967.76 7.335.586 14.603 1.355 21.875 2.539-.175 7.356-.495 14.709-.816 22.062v.001c-.286 6.568-.573 13.136-.755 19.706-.004.135-.017.28-.03.429-.065.732-.138 1.562.776 1.767.834.19 1.099-.463 1.355-1.09.082-.203.164-.404.263-.572q3.95-6.739 7.892-13.479l6.368-10.88q1.518-2.584 3.044-5.164c2.248-3.803 4.495-7.607 6.68-11.444.809-1.423 1.818-1.914 3.389-2.077m-87.575-79.455c-.04 20.476-.052 40.772-.06 61.268h-.004c-21.951-9.58-45.125-27.648-44.986-53.717.015-9.333.035-18.638.055-27.942.023-10.85.046-21.699.061-32.591 28.245 75.176 201.558 75.12 231.238 1.208-.019 8.592-.047 17.181-.074 25.77v.014c-.036 10.921-.071 21.84-.089 32.764-.008 4.8-.411 9.556-1.898 14.133-5.135 15.496-18.019 27.105-31.989 34.863-.372-11.936-.285-23.894-.198-35.853v-.001c.061-8.529.123-17.058.019-25.581-.104-1.499-.562-1.766-1.894-1.12-16.616 8.755-34.867 14.041-53.453 16.421-31.634 3.975-64.696 1.104-94.273-11.246-2.113-.909-2.451-.738-2.455 1.61m42.451 42.2c-1.588 8.421-3.175 16.837-4.917 25.255v-.004c-9.48-1.539-18.474-4.848-27.257-8.687-1.874-.857-2.611-1.93-2.595-4.039.102-7.695.099-15.382.096-23.069-.004-9.68-.008-19.36.199-29.052 45.193 14.671 89.867 14.109 134.37-3.425q-.013 8.519-.035 17.024v.013c-.027 11.321-.055 22.631-.036 33.965.004 1.63-.507 2.555-1.902 3.416-14.85 9.114-31.794 13.826-48.968 15.971 2.717-5.094 5.611-9.947 8.523-14.83v-.001l.001-.001.002-.004.001-.001a752 752 0 0 0 4.162-7.038c.79-1.324 1.129-2.575.443-4.294-3.779.295-7.453.958-11.138 1.622-3.34.602-6.689 1.206-10.135 1.54 1.677-3.963 3.644-7.723 5.615-11.492 1.309-2.502 2.62-5.008 3.849-7.58.403-.798.718-1.727.754-2.608.06-1.371-.391-1.738-1.814-1.714-3.277.056-6.558.151-9.835.263l-.026.001c-11.318.402-22.635.805-33.957 1.167-2.037.072-2.069.148-2.451 2.153-1.007 5.153-1.978 10.301-2.949 15.447zM207.98 157.732c-28.911 8.561-65.616 31.256-59.178 66.094 9.951 39.237 62.587 54.705 98.355 57.743 42.494 4.19 115.406-8.787 130.404-55.124 3.588-13.463-.343-27.862-9.301-38.335-24.701-28.553-65.887-37.659-102.206-38.428.13.568.256 1.106.378 1.624v.004c.285 1.216.544 2.32.762 3.435.232 1.184.881 1.567 2.073 1.667 28.852 1.467 59.238 8.08 81.32 27.87 12.056 10.573 19.663 27.827 13.758 43.555-5.202 14.742-18.131 25.187-31.574 32.284-44.539 22.166-106.827 21.428-148.758-6.403-42.75-30.629-21.728-70.524 20.399-86.766.61-.247 1.408-.733 1.571-1.271.526-1.754.949-3.541 1.42-5.534v-.002c.182-.77.372-1.571.577-2.413m50.126 192.318h.004c8.649-.341 17.287-.681 25.996-.696-1.944 4.183-4.028 8.194-6.118 12.215-1.455 2.8-2.913 5.605-4.327 8.476l-.01.02c-.423.84-1.032 2.054-.72 2.675.404.808 1.177.535 1.917.274.275-.097.545-.192.79-.23 2.804-.391 5.538-.854 8.265-1.315 3.816-.647 7.62-1.291 11.585-1.731-9.553 16.288-19.001 32.395-28.414 48.44l-.103.176-.217.37-13.728 23.404c-.588-1.717-.52-3.399-.453-5.061.02-.491.039-.981.042-1.469.009-1.342.096-2.682.183-4.022.061-.934.122-1.869.156-2.803.169-6.837.461-13.557.754-20.313v-.001c.189-4.373.379-8.762.538-13.206-4.33.259-8.496 1.009-12.672 1.76h-.001c-3.537.637-7.081 1.275-10.737 1.616 1.53-9.438 3.375-18.797 5.22-28.162 1.154-5.857 2.309-11.715 3.387-17.597.422-2.191.454-2.192 2.549-2.263l.015-.001c5.383-.134 10.743-.345 16.099-.556m-13.439-176.421-21.581.934a2538 2538 0 0 0-3.699-15.762c-1.636-6.91-3.266-13.792-4.833-20.744 9.184-.695 18.366-1.037 27.554-1.379h.001c5.777-.216 11.556-.431 17.339-.734 1.79-.012 1.858.02 2.289 1.802.914 4.01 1.878 7.994 2.842 11.973 1.833 7.573 3.662 15.13 5.139 22.827-8.381.361-16.684.721-25.005 1.081zm133.882 89.147.077.028-.004.004c-2.508 21.532-21.217 36.653-39.46 45.771-46.525 21.934-105.24 21.878-151.701-.188-18.363-9.4-37.702-24.697-39.273-46.863 28.102 73.829 201.156 74.28 230.071 1.148q.146.048.29.1M148.288 425.878c29.442 72.239 200.254 72.613 229.604.243v.004c-.777 11.729-8.189 21.628-16.409 29.526-25.024 22.393-59.657 30.294-92.447 31.451-34.162.598-70.197-5.733-98.191-26.404-10.573-7.981-19.611-18.849-22.493-32.057a7.1 7.1 0 0 1-.064-2.763m182.003-40.361c-15.6 8.675-33.217 13.587-50.981 14.855 1.02-2.221 2.085-4.067 3.349-5.737.347-.458 1.183-.593 1.928-.714q.218-.035.42-.072c1.572-.288 3.151-.55 4.73-.813 2.78-.461 5.561-.923 8.31-1.531 12.749-2.814 24.937-7.132 36.052-14.132 1.18-.746 2.097-.858 3.301-.096.977.622 1.998 1.173 3.02 1.725.8.432 1.599.863 2.377 1.329.79.47 1.364.386 2.141-.068 14.316-7.965 26.496-19.347 33.074-34.557-2.229 17.075-16.003 30.132-30.012 38.791q-.506.302-1.006.617h-.001c-.758.474-1.516.947-2.318 1.32-1.307.61-1.77 1.543-1.587 2.907-.019 9.463-.057 18.933-.095 28.402v.005c-.034 8.353-.067 16.706-.088 25.054.183 1.487-.458 2.368-1.838 2.966-45.041 22.086-99.427 22.592-145.932 4.557 1.212-1.627 2.711-2.468 4.186-3.21.527-.263 1.507.144 2.181.459 35.661 16.118 77.86 16.887 114.553 3.667 6.502-2.427 12.677-5.505 18.582-9.149 1.184-.733 1.614-1.579 1.614-2.946-.059-7.706-.021-15.406.017-23.105.054-11.065.108-22.128-.124-33.199-.653.294-1.298.567-1.932.836-1.369.579-2.687 1.136-3.921 1.839m-60.574-211.46c-10.392.266-20.734.754-31.09 1.242l-.001.001c-4.498.212-8.998.424-13.507.618-1.973.108-2.041.184-2.472 1.978-.789 3.617-1.686 7.205-2.581 10.79-1.448 5.796-2.895 11.585-3.885 17.483 9.198-.208 18.364-.629 27.535-1.05l.001-.001h.001c5.742-.263 11.486-.527 17.241-.739 1.698-.072 1.738-.104 2.185-1.985.812-3.578 1.675-7.121 2.538-10.66 1.427-5.859 2.852-11.706 4.035-17.677m-43.575 216.977-.004-.002c-8.269-2.266-16.477-4.515-24.169-8.449-1.626-.801-2.894-.745-4.249.451-.592.52-1.252.962-1.913 1.405-.408.273-.816.547-1.209.839-.706.522-1.339.542-2.169.176-18.55-8.149-36.226-21.09-43.981-40.445 1.36 14.978 13.256 27.548 24.989 35.956 5.669 3.994 11.681 7.359 17.968 10.269 1.244.574 2.232.626 3.325-.275.508-.419 1.057-.79 1.605-1.16h.001c.635-.429 1.269-.857 1.838-1.359 1.037-.913 1.914-.822 3.078-.244 7.359 3.668 15.057 6.415 23.039 8.368l.411.102.404.101.004.001a82 82 0 0 0 2.498.594c.737.159 1.271-.132 1.427-.901.201-.983.388-1.97.591-3.041v-.002l.002-.007q.122-.648.256-1.346-1.871-.52-3.741-1.031m-6.95-204.709c-1.273 5.627-2.545 11.246-4.239 16.774-1.883-6.963-3.467-13.923-5.056-20.899v-.001a971 971 0 0 0-2.686-11.575c-.219-.937-.299-2.001-.088-2.922.792-3.189 1.509-6.377 2.226-9.561 1.276-5.67 2.549-11.325 4.229-16.939 1.927 6.741 3.467 13.543 5.01 20.355.926 4.093 1.854 8.19 2.867 12.28.192.81.267 1.73.084 2.524-.841 3.312-1.594 6.639-2.347 9.964m123.854 156c.088 12.305.176 24.605-.177 36.901q-.851-.463-1.648-.889l-.015-.009-.009-.004c-1.419-.761-2.723-1.46-3.977-2.243-.977-.774-.993-2.344-.917-3.536q.022-9.39.041-18.779l.001-.161v-.008c.022-10.502.044-21.005.074-31.508-.028-.797.299-1.359 1.024-1.71 1.131-.543 2.26-1.093 3.357-1.627l.707-.345.995-.484c.087.048.154.081.208.108.155.077.201.099.287.247-.065 8.017-.008 16.033.049 24.046zM195.861 382.47c-.378.228-.779.469-1.196.743-.546-2.089-.486-58.305.06-60.362q.515.19 1.03.371c.847.301 1.688.599 2.494.976.889.551.856 1.696.827 2.699-.006.202-.012.398-.01.582q-.009 6.506-.022 13.01c-.025 12.34-.05 24.679.006 37.019.094 2.987-1.257 3.8-3.189 4.962m-.425 65.44c-.333.242-.693.504-1.098.788l-.004-.004c-.191-10.147-.152-20.243-.114-30.344.03-7.591.059-15.185-.01-22.806-.132-2.34 1.231-3.209 2.785-4.199.501-.319 1.021-.65 1.517-1.048.557.702.511 1.402.469 2.057a7 7 0 0 0-.022.503c.023 7.551.005 15.104-.012 22.658v.002c-.022 9.331-.044 18.662.012 27.99.071 1.471-.435 2.428-1.679 3.15-.601.35-1.166.76-1.843 1.252v.001zm43.139-48.942.025.144.02.105.023.126.016.089.015.086q1.203.16 2.406.325c3.642.497 7.293.995 11.041 1.087q.037-.286.075-.559c.176-1.264.327-2.354-.283-3.587l-13.069 2.14zm2.248-49.785c-.016-.144-.036-.287-.052-.431v-.004l42.809-1.459.008.218q.005.102.007.205c-11.64.495-23.287.859-34.934 1.224h-.007l-.008.001q-3.912.122-7.823.246m35.27 22.146-.132-.491h.004l19.072-3.133c.024.147.052.295.076.442zm124.83-208.148a14681 14681 0 0 0-36.227-20.823c-.873-.498-1.36-.98-1.399-2.104-.115-4.801-.344-9.594-.573-14.385-.32-6.7-.64-13.398-.647-20.108l19.405.773.056.002c10.758.429 21.511.857 32.333 1.29-4.345 18.578-8.615 36.825-12.952 55.351zm11.119-52.564-.459-.331a252928 252928 0 0 0-46.078 30.817c1.826 1.646 32.982 19.49 34.76 19.901l5.275-22.568.108-.462q3.196-13.679 6.394-27.353zm-48.415-3.568c-.578 2.603.678 30.82 1.38 32.475 8.975-5.62 17.799-11.597 26.623-17.575h.001l.001-.001c5.811-3.936 11.622-7.872 17.475-11.706a5 5 0 0 1 .264-.206c.254-.19.519-.387.621-.671.005-.042-.004-.086-.026-.198-.014-.068-.033-.16-.057-.293-5.309-.207-10.624-.431-15.942-.654-10.114-.426-20.236-.851-30.34-1.167zm-222.204 36.872c5.685 6.375 12.877 9.572 21.544 9.807 5.884-.275 8.32-.976 13.383-4.229 4.501-2.515 6.322-5.355 8.874-9.335l.562-.875c.961-1.308 1.424-2.755 1.591-4.35.161-1.554.338-3.106.515-4.657.219-1.915.438-3.83.625-5.748.072-.749 0-1.583-.255-2.284-.281-.723-.555-1.456-.83-2.194-1.266-3.399-2.563-6.879-4.823-9.687-6.175-6.821-15.022-10.058-24.028-9.233-4.971.252-9.137 2.998-13.036 5.929-1.352 1.016-2.659 2.204-3.656 3.56-4.449 6.059-4.596 6.602-5.354 14.256l-.016.162c-.714 7.242-.719 7.299 2.257 14.03q.166.377.331.761c.63 1.462 1.281 2.971 2.316 4.087m4.648-35.84c4.948-3.676 10.126-6.45 16.601-5.785l.004.004c7.403.272 14.328 3.461 19.311 9.09 1.676 2.046 2.669 4.642 3.643 7.189.389 1.017.776 2.026 1.201 2.989.578 1.296.67 2.603.502 3.971l-.479 3.897q-.37 3.038-.749 6.073a9 9 0 0 0-.031.303c-.039.405-.08.824-.268 1.149l-.088.152c-2.598 4.454-5.201 8.918-9.994 11.461-9.492 6.514-22.09 4.676-30.649-2.691-3.742-2.946-5.347-7.313-6.929-11.617q-.358-.981-.726-1.95c-.231-.646-.295-1.403-.227-2.089.198-2.03.424-4.058.651-6.086.161-1.443.322-2.887.473-4.331.144-1.383.634-2.591 1.403-3.752.336-.506.662-1.018.989-1.53 1.51-2.37 3.018-4.736 5.362-6.447"/>
</svg>
