<svg xmlns="http://www.w3.org/2000/svg" width="550" height="550" fill="none" viewBox="0 0 550 550">
    <path fill="#fff" d="M130.559 368.465c-.397.734-.769 1.458-1.134 2.169-.786 1.532-1.541 3.003-2.45 4.377-5.639 8.534-13.836 12.775-23.851 12.098-11.658-.788-19.935-7.041-23.918-18.212-1.042-2.923-1.264-6.198-1.466-9.338-.106-1.659-.633-2.309-2.094-2.895-5.509-2.194-10.427-5.231-13.417-10.617-2.752-4.961-2.744-10.153-.97-15.4 3.445-10.177 10.482-17.816 17.963-25.098 6.565-6.392 13.76-12.027 21.197-17.361.923-.661 1.335-1.394 1.173-2.487l-.409-2.731-.001-.002v-.001c-.526-3.511-1.052-7.021-1.559-10.536a427 427 0 0 1-.834-6.207l-.2-1.535a182 182 0 0 1-.389-3.311v-.002c-.269-2.41-.537-4.819-1.012-7.189-.63-3.128.107-5.975.919-8.886.396-1.418.783-2.839 1.17-4.26.624-2.287 1.247-4.575 1.907-6.852.324-1.124-.044-1.489-1.101-1.667q-1.239-.206-2.479-.404H97.6c-2.715-.436-5.43-.871-8.094-1.52-5.148-1.252-10.015-3.212-13.69-7.267-4.02-4.435-4.724-9.548-2.867-15.123 2.332-7.017 6.942-12.502 12.022-17.618 8.542-8.601 18.212-15.817 28.489-22.168 8.972-5.544 18.162-10.741 27.346-15.936l.259-.146c2.532-1.43 4.255-3.549 5.987-5.681l.001-.001c.407-.501.815-1.003 1.235-1.497 1.757-2.07 3.504-4.149 5.252-6.227 3.571-4.249 7.143-8.498 10.802-12.671.983-1.122 2.312-1.954 3.628-2.777q.564-.35 1.112-.707 1.126-.741 2.249-1.487h.001v-.001h.001l.001-.001h.001c3.02-2.002 6.042-4.005 9.175-5.81 2.787-1.601 5.719-2.954 8.644-4.304q.776-.358 1.549-.717c1.27-.59 2.537-1.19 3.804-1.791 3.994-1.893 7.991-3.787 12.104-5.369 7.516-2.89 15.147-5.516 22.833-7.928 3.218-1.01 6.532-1.719 9.846-2.427 1.425-.305 2.85-.61 4.268-.939.691-.16 1.381-.337 2.071-.513 1.683-.43 3.366-.86 5.076-1.07 7.279-.9 14.569-1.739 21.875-2.345 1.474-.122 2.996.243 4.506.605.495.119.988.237 1.478.338 4.282.883 8.558 1.793 12.836 2.704h.005l.002.001q2.812.6 5.626 1.195c.543.115 1.084.254 1.626.392 1.238.317 2.475.634 3.72.662 2.198.051 4.424-.301 6.61-.65a214 214 0 0 0 5.374-.947c2.564-.474 5.126-.948 7.705-1.286 6.94-.905 13.895-1.683 20.85-2.462h.006l4.421-.496c1.054-.12 1.545-.582 1.75-1.612 1.834-9.239 9.425-15.654 18.751-15.642 3.857.004 7.449 1.224 10.668 3.457 5.144 3.576 7.651 8.605 8.142 14.723.103 1.256.463 1.94 1.735 2.368 3.528 1.184 6.827 2.891 9.44 5.588 4.748 4.894 5.251 10.664 2.946 16.802-2.348 6.265-6.557 11.278-11.143 16.007-1.584 1.631-1.584 1.797.305 3.132q1.71 1.207 3.423 2.411l.001.001h.001v.001h.001c3.783 2.662 7.569 5.326 11.301 8.057.591.432.986 1.152 1.374 1.858q.185.342.376.665l1.794 2.981c4.674 7.769 9.348 15.539 13.975 23.337.757 1.271 1.62 1.73 3.129 1.718q2.436-.021 4.875-.053c6.196-.078 12.395-.156 18.572.164 9.69.499 19.277 1.949 28.171 6.202 5.342 2.554 9.813 6.098 11.955 11.899 1.541 4.174 1.315 8.4.048 12.581-2.222 7.342-6.692 13.33-11.71 18.949-.93 1.041-1.01 1.79-.277 2.966 4.17 6.681 5.512 13.848 3.362 21.523-2.554 9.123-8.403 15.242-17.238 18.493-3.358 1.235-6.894 1.544-10.466 1.394-1.739-.075-1.818.134-1.509 1.885.354 2.006.641 4.025.928 6.045l.069.484.095.666q.07.497.144.994c.068.46.121.923.175 1.386.102.883.204 1.765.407 2.625.705 2.987-.152 5.707-1.009 8.424-.264.836-.528 1.671-.745 2.514a500 500 0 0 1-3.584 13.06c-.404 1.39.059 1.647 1.366 1.774 6.898.665 13.757 1.608 20.121 4.61 4.079 1.924 7.536 4.502 9.476 8.799 1.766 3.924 1.501 7.813.123 11.709-2.673 7.576-7.873 13.381-13.532 18.799-10.07 9.642-21.419 17.606-33.406 24.631a724 724 0 0 1-28.742 15.974c-3.477 1.83-6.201 4.17-8.597 7.188a148 148 0 0 1-9.108 10.446c-.976 1.016-2.238 1.763-3.498 2.508-.508.3-1.015.6-1.503.918a260 260 0 0 0-3.075 2.046c-2.52 1.695-5.04 3.39-7.689 4.852-2.412 1.333-4.914 2.499-7.417 3.665-1.869.871-3.738 1.742-5.572 2.683-8.348 4.293-17.179 7.309-26.011 10.325l-.002.001c-3.061 1.045-6.122 2.091-9.163 3.189-.852.309-1.715 1.058-2.19 1.838-2.847 4.649-6.93 7.635-12.185 8.763-5.12 1.101-10.078.325-14.478-2.704-1.37-.943-2.701-1.367-4.36-1.192-3.524.372-7.056.657-10.593.843-.906.048-1.833-.153-2.747-.351h-.003l-.293-.064-.327-.068a304 304 0 0 1-4.277-.914c-3.097-.677-6.194-1.355-9.321-1.818-1.918-.283-3.979.088-5.947.443l-.374.067c-2.491.446-4.971.95-7.451 1.453l-.004.001c-2.562.52-5.123 1.04-7.695 1.497a614 614 0 0 1-17.721 2.879c-3.398.502-6.827.827-10.253 1.14-9.872.899-19.764 1.327-29.668.638-7.774-.543-15.436-1.683-22.461-5.35-4.253-2.218-7.556-5.346-8.819-10.17-1.097-4.185-.21-8.153 1.544-11.979 2.982-6.498 7.698-11.674 12.751-16.584 1.493-1.453 1.529-1.529-.17-2.74q-2.848-2.037-5.703-4.065l-.006-.005-.01-.007-.014-.01h-.001c-4.226-3.006-8.452-6.012-12.636-9.076-.963-.701-1.664-1.842-2.297-2.895-2.581-4.265-5.14-8.542-7.698-12.819l-.011-.018-.005-.008-.004-.007-.005-.008q-2.232-3.734-4.47-7.463c-.149-.249-.343-.47-.558-.714q-.16-.178-.329-.383zm310.365-156.646c-1.145 1.03-1.841.951-2.269-.324-.134-.402-.36-.775-.584-1.144l-.141-.235c-2.215-3.735-4.409-7.483-6.603-11.231v-.001l-.001-.001-.001-.001v-.001c-5.365-9.164-10.729-18.327-16.395-27.303-3.892-6.166-5.643-12.854-7.223-19.721-.732-3.188-2.237-5.995-4.756-7.944-3.026-2.34-6.157-4.545-9.289-6.75l-.002-.001v-.001c-1.716-1.208-3.432-2.416-5.131-3.647-.871-.629-1.489-.657-2.312.091a157 157 0 0 1-6.241 5.41c-.931.764-1.03 1.192.007 1.984 2.935 2.237 5.857 4.49 8.779 6.743l.002.002.001.001.002.001.002.002.002.001.001.001.002.002h.001c4.03 3.108 8.061 6.216 12.121 9.281 1.157.875 1.204 1.358.285 2.395-4.625 5.212-9.199 10.471-13.769 15.734-1.477 1.702-1.591 1.722-3.247.15q-3.451-3.274-6.907-6.543l-.005-.004-.004-.004-.004-.005-.004-.004-.005-.004-.004-.004a3636 3636 0 0 1-15.338-14.574c-.998-.955-1.683-.935-2.807-.218-13.005 8.268-26.528 15.614-40.388 22.334-1.185.574-1.422 1.061-.551 2.194 5.078 6.608 10.127 13.24 15.177 19.873q2.58 3.39 5.162 6.778c.855 1.121.705 1.837-.586 2.431q-3.031 1.396-6.065 2.782l-.005.002-.004.002-.005.002-.004.002-.005.002c-2.744 1.256-5.489 2.512-8.228 3.782a5033 5033 0 0 0-26.433 12.343c-1.156.547-1.746.21-2.221-.808q-3.254-6.998-6.519-13.99a5425 5425 0 0 0-7.935-16.941c-.317-.677-.67-1.208-1.672-.812-5.468 2.158-10.949 4.293-16.457 6.348l-.677.252c-5.18 1.932-10.367 3.867-15.615 5.605-8.67 2.872-17.388 5.602-26.105 8.332l-.001.001-.818.256c-1.144.356-1.263.82-1.017 1.913.795 3.503 1.535 7.019 2.276 10.536v.002l.001.002v.004l.001.002v.002l.001.001q.496 2.363.999 4.724l.767 3.596.01.046c1.021 4.794 2.042 9.589 3.104 14.376.269 1.208-.059 1.687-1.263 1.937-2.337.483-4.661 1.029-6.987 1.576h-.002q-1.227.29-2.456.574-9.13 2.115-18.255 4.241l-3.504.814-.001.001c-3.949.916-7.898 1.832-11.84 2.789-1.549.376-1.992.123-1.996-1.485q-.005-7.039-.016-14.078l-.009-6.521v-.022q-.01-6.506-.015-13.007v-.054c.001-.822.001-1.557-1.231-1.301l-1.959.409c-3.268.684-6.538 1.368-9.822 1.959-5.691 1.026-11.385 2.044-17.103 2.883-3.734.548-7.487.969-11.24 1.389l-.004.001h-.004l-.005.001h-.004l-.005.001h-.004l-.005.001q-2.045.227-4.09.464c-.935.107-1.541.452-1.691 1.481-.576 3.96-1.171 7.917-1.767 11.873v.004l-.585 3.892-.765 5.049c-.512 3.365-1.023 6.73-1.516 10.098-.175 1.188-.721 1.648-1.913 1.339-.88-.23-1.765-.436-2.649-.642l-.001-.001h-.001l-1.143-.268q-1.974-.47-3.948-.944l-.002-.001h-.003l-.003-.001a882 882 0 0 0-11.377-2.674c-1.414-.32-1.564-1.045-1.255-2.261a4017 4017 0 0 0 4.807-19.045v-.002c.363-1.447.707-2.9 1.067-4.419l.001-.002v-.002q.262-1.104.54-2.266-1-.065-1.964-.133c-1.895-.132-3.706-.258-5.52-.302-.389-.008-1.026.566-1.149.986-1.54 5.294-3.01 10.608-4.479 15.923a2.4 2.4 0 0 0-.047 1.073c.234 1.182.454 2.367.673 3.553.538 2.903 1.076 5.807 1.83 8.656 1.359 5.146 2.142 10.383 2.925 15.621q.254 1.708.516 3.414c.442 2.869.821 5.748 1.2 8.628.246 1.87.493 3.741.756 5.609.317 2.257.648 4.512.978 6.767.658 4.499 1.317 8.997 1.873 13.508.139 1.119.362 2.227.586 3.335.479 2.374.958 4.753.61 7.266-.119.864.188 1.775.498 2.697.206.612.413 1.229.5 1.841.202 1.418 1.002 2.012 2.238 2.408 3.1.99 5.892 2.542 8.407 4.637l.21.176c.998.837 2.075 1.74 3.263 2.073 2.652.74 5.34 1.341 8.03 1.942 1.27.283 2.54.567 3.806.866 2.123.499 4.158.99 5.096 3.449.35.918.886 1.763 1.422 2.61l.001.001c.471.745.944 1.491 1.29 2.287.669 1.541 1.679 1.747 3.105 1.525 1.922-.298 3.847-.58 5.772-.862 2.551-.373 5.101-.747 7.644-1.158h.004c6.984-1.129 13.968-2.257 20.933-3.508 2.726-.491 5.436-1.072 8.146-1.654 1.817-.39 3.635-.78 5.456-1.142l.279-.056h.001c1.75-.348 2.557-.508 2.736-.933.153-.364-.152-.921-.72-1.955l-.003-.006-.159-.289-.066-.122-.131-.243-.035-.068-.003-.005-.014-.026-.02-.039c-.538-1.093-.106-1.655 1.002-1.889l.696-.147.717-.152c2.218-.468 4.438-.936 6.646-1.455 2.8-.658 5.597-1.329 8.394-2.001l.006-.002.006-.001.006-.001.005-.002.005-.001c3.412-.819 6.824-1.639 10.241-2.432 2.598-.602 5.2-1.185 7.802-1.769 4.652-1.043 9.304-2.086 13.931-3.236 1.604-.4 2.277.012 2.633 1.35.349 1.311 1.184 1.264 2.17.963.205-.062.402-.15.599-.238.183-.082.367-.165.558-.226 2.291-.714 4.585-1.417 6.879-2.119 4.865-1.489 9.728-2.977 14.552-4.581 8.827-2.934 17.622-5.98 26.37-9.148 4.984-1.803 9.932-3.707 14.881-5.61 2.809-1.081 5.619-2.162 8.435-3.224 1.169-.44 1.747-.994 1.173-2.309-.492-1.121-.028-1.766 1.104-2.285 9.155-4.218 18.29-8.474 27.425-12.73h.001v-.001h.001l5.501-2.563 1.017-.474c4.044-1.885 8.088-3.769 12.118-5.687 1.196-.571 1.885-.254 2.206.99l.024.096c.096.372.192.748.221 1.127.099 1.176.606 1.41 1.652.872 1.05-.542 2.112-1.062 3.174-1.582 1.18-.578 2.361-1.156 3.526-1.765a4595 4595 0 0 1 5.819-3.031c6.36-3.308 12.718-6.616 19.014-10.045 3.703-2.016 7.328-4.175 10.954-6.334l.001-.001.001-.001h.001l.001-.001h.001l.001-.001a680 680 0 0 1 5.339-3.158c.868-.507 1.228-1.12 1.018-2.174-.159-.787-.268-1.587-.377-2.385v-.001c-.152-1.113-.303-2.224-.589-3.3-.432-1.624-.111-2.82 1.085-3.921 1.113-1.021 1.529-2.233 1.548-3.853.064-4.997 1.137-9.753 3.77-14.141 2.499-4.162 5.81-7.389 9.908-9.916.507-.313 1.113-1.085 1.061-1.576-.1-.922-.363-1.829-.654-2.829v-.001a52 52 0 0 1-.375-1.332zm-16.453 52.78.921-.532q.447-.257.903-.522l.558-.323c.126.653.249 1.272.367 1.868.242 1.217.465 2.339.656 3.468.543 3.212 1.073 6.427 1.603 9.643l.796 4.827q.32 1.93.636 3.86c.606 3.684 1.211 7.368 1.859 11.045.106.602.362 1.175.619 1.748v.001c.118.263.236.527.34.794q.091-.072.186-.142l.145-.107.082-.059.066-.047.176-.124c.469-.33.938-.661 1.309-1.078l.238-.268.001-.001.001-.001v-.001h.001v-.001c4.715-5.315 9.429-10.627 14.031-16.039.55-.645.641-1.912.538-2.847-.252-2.273-.583-4.536-.914-6.801a399 399 0 0 1-.468-3.257c-.038-.27-.031-.546-.02-.941v-.006l.009-.433q.003-.172.003-.375c.16.217.291.374.394.496v.001l.001.001c.16.192.25.299.267.417q.492 3.322.938 6.649c.084.631.141 1.269.198 1.907v.001c.115 1.287.23 2.574.566 3.802.871 3.172.048 6.098-.782 9.048l-.204.729a20286 20286 0 0 1-10.233 36.728l-2.577 9.224c-.228.813-.475 1.623-.723 2.432-.577 1.883-1.153 3.765-1.471 5.69-.539 3.271-2.497 5.587-4.472 7.924l-.474.563q-4.229 5.034-8.468 10.06l-.002.002-.001.001-.001.002-.001.001-.002.002-.001.001-.024.029h-.001c-5.652 6.707-11.304 13.413-16.903 20.164-1.516 1.829-3.496 2.782-5.48 3.737q-.491.236-.978.476c-4.478 2.221-8.995 4.368-13.513 6.515l-.043.02-.022.011-4.12 1.96c-.195.093-.414.135-.715.194h-.001c-.163.032-.35.068-.571.119.241-.439.475-.853.7-1.25l.001-.001v-.001c.521-.921.993-1.756 1.394-2.625.158-.339.164-.75.171-1.161.003-.188.006-.376.023-.557-.186.009-.379 0-.572-.009-.409-.02-.816-.039-1.146.112-4.06 1.866-8.107 3.759-12.155 5.652l-.014.007-.009.004-.009.004q-2.944 1.378-5.891 2.752a1577 1577 0 0 1-6.767 3.129h-.001l-1.228.565-.85.392c-.674-.554-1.208-.994-1.747-1.433q-.055.361-.116.723a24 24 0 0 0-.24 1.704c-.021.231.037.468.094.704v.001c.031.124.061.248.08.372.364 2.365.067 3.129-2.095 3.957-6.696 2.562-13.42 5.052-20.148 7.52-3.216 1.18-6.463 2.265-9.714 3.346-.357.119-.947.071-1.208-.155a316 316 0 0 1-4.876-4.331l-.002-.001v-.001h-.001l-.003-.003-.018-.016-1.792-1.611.244-.09.295-.108.602-.223.398-.147.002-.001h.001l.006-.003c1.222-.452 2.491-.922 3.77-1.365l2.115-.732.013-.004.004-.002c6.615-2.289 13.233-4.579 19.866-6.814 1.41-.475 1.643-1.1 1.259-2.538-.597-2.232-1.041-4.505-1.484-6.776l-.001-.001-.001-.01q-.216-1.108-.439-2.214-1.63-8.028-3.252-16.062l-.526-2.605-.621-3.073q-.135-.661-.279-1.322l-.001-.005-.001-.005-.001-.004-.001-.005c-.234-1.081-.467-2.164-.616-3.257-.198-1.465-1.057-1.509-2.123-1.156-2.239.735-4.467 1.501-6.695 2.267l-.003.001-1.269.436-1.89.65-1.548.531-.222.076a4074 4074 0 0 0-14.033 4.838 3179 3179 0 0 0-9.134 3.189l-.02.006a2975 2975 0 0 1-10.995 3.834c-1.097.38-1.216.926-.669 1.873 3.686 6.375 7.352 12.76 11.02 19.145l1.422 2.476c.879 1.53 1.754 3.063 2.634 4.607l.008.014 1.607 2.816c-.652.208-1.291.396-1.917.581l-.004.001h-.001c-1.332.393-2.604.768-3.824 1.272-5.195 2.146-8.613 6.047-10.541 11.262-.388 1.045-.903 1.584-2.028 1.833a718 718 0 0 0-9.902 2.316h-.002q-2.561.614-5.124 1.217c-.237.056-.487.069-.737.082-.331.017-.66.034-.954.151-.329.133-.604.395-.879.658-.119.113-.237.226-.36.328l.084.093.069.083q.042.05.083.103l.089.115.001.001.001.001c.232.3.465.599.766.713.958.36 1.945.639 2.933.918l.001.001.576.163.107.031.158.045.331.097q-.003.075-.009.149l-.005.077-.014.226q-1.066.274-2.13.556h-.002v.001c-1.454.383-2.908.767-4.374 1.102l-2.445.567c-3.493.813-6.987 1.627-10.512 2.253a16.9 16.9 0 0 1-5.853-.028c-6.086-1.113-12.149-2.396-18.196-3.722-3.606-.79-7.195-1.658-10.784-2.525l-.006-.002q-2.116-.511-4.234-1.018a310 310 0 0 0-2.736-.632l-.005-.001-.006-.002h-.003c-2.48-.566-4.962-1.133-7.396-1.855-1.437-.428-2.768-1.367-4.015-2.258a14030 14030 0 0 1-25.959-18.542q-5.659-4.05-11.321-8.097c-1.296-.926-2.599-1.843-3.901-2.76l-.007-.004-.002-.002c-2.901-2.042-5.802-4.084-8.631-6.223-.922-.696-1.663-1.634-2.404-2.571a32 32 0 0 0-1.029-1.258q.181-.26.364-.515.947.201 1.897.393l.001.001c1.359.278 2.718.556 4.066.885 3.319.809 6.631 1.642 9.943 2.475l.034.008q2.287.576 4.576 1.148.149.039.298.081h.001c.304.084.61.169.92.193 1.01.079 1.466-.61.963-1.493q-4.173-7.32-8.357-14.636l-.006-.011-.021-.037-3.674-6.431a2161 2161 0 0 1-5.018-8.819c-.13-.232-.23-.48-.348-.775l-.001-.001q-.09-.227-.205-.499.264-.077.499-.154h.001c.319-.101.606-.193.898-.238 2.745-.42 5.494-.824 8.241-1.228l.006-.001c5.85-.86 11.7-1.719 17.524-2.735 5.212-.909 10.393-1.997 15.576-3.084h.001c2.355-.494 4.709-.989 7.067-1.466q.238-.048.478-.09h.001c.302-.054.604-.108.899-.191 1.148-.329 1.734.067 2.285 1.18 4.27 8.63 8.588 17.236 12.906 25.843q1.943 3.871 3.884 7.746c1.411 2.817 1.43 2.813 4.377 2.113l.197-.046a4400 4400 0 0 1 19.71-4.603q3.154-.731 6.307-1.464c4.971-1.152 9.948-2.302 14.923-3.451l2.41-.556c1.22-.282 1.236-1.002.824-2.004-.994-2.415-1.972-4.837-2.95-7.259l-.002-.003-.004-.009-.003-.009q-1.037-2.57-2.082-5.139-3.484-8.534-6.973-17.06l-1.242-3.034-1.23-3.008q-.117-.293-.242-.579l-.012-.029c-.478-1.101-.713-1.644-.546-1.998.161-.344.701-.511 1.764-.839l.26-.08a1117 1117 0 0 0 18.58-5.932l.442-.146c7.218-2.378 14.435-4.757 21.591-7.303 6.112-2.172 12.184-4.451 18.258-6.731q2.944-1.106 5.89-2.206c1.686-.63 3.359-1.291 5.103-1.981l.001-.001c.867-.342 1.75-.692 2.662-1.048q.266.733.526 1.426v.001h.001v.001c.37.99.722 1.934 1.021 2.897 1.187 3.831 2.364 7.664 3.54 11.496l.009.028v.002c1.307 4.255 2.613 8.509 3.932 12.76a459 459 0 0 0 3.449 10.668c.562 1.664.954 1.79 2.483 1.078q3.251-1.518 6.496-3.048l.007-.003.006-.003.006-.003.006-.003.007-.002.006-.003.017-.009q2.87-1.352 5.745-2.696l.026-.012.027-.013.026-.012c9.68-4.522 19.359-9.044 29.047-13.554l.037-.017c1.097-.51 1.648-.766 1.855-1.19.209-.426.07-1.023-.21-2.221v-.001l-.047-.202a797 797 0 0 1-1.952-8.69l-.002-.008v-.004l-.001-.001v-.002c-.514-2.327-1.027-4.654-1.558-6.977-.847-3.713-1.715-7.423-2.583-11.133v-.002l-.001-.002v-.002l-.001-.002v-.002l-.001-.002v-.002q-.833-3.556-1.659-7.112c-.08-.35-.142-.704-.204-1.058-.091-.521-.182-1.042-.33-1.544l-.084-.28v-.001c-.301-1.01-.448-1.506-.287-1.861.155-.344.599-.557 1.47-.976l.153-.073.129-.063.063-.03.136-.066c13.939-6.788 27.692-13.924 41.049-21.8 1.445-.854 2.898-1.692 4.43-2.576l.008-.005zM291.731 93.194q-1.882-.406-3.794-.822h-.002c-2.928-.638-5.9-1.284-8.88-1.883a61 61 0 0 1-1.556-.34c-1.74-.395-3.5-.795-5.204-.658-1.983.162-3.972.274-5.96.387-5.545.313-11.091.626-16.533 2.017-2.581.659-5.192 1.213-7.802 1.767-3.66.778-7.319 1.555-10.893 2.62-7.872 2.345-15.63 5.117-23.324 7.996-3.892 1.454-7.67 3.219-11.446 4.982q-1.411.66-2.826 1.314l-1.462.672-.005.002-.004.002c-3.666 1.684-7.34 3.371-10.86 5.323-2.589 1.436-5.055 3.095-7.521 4.753a266 266 0 0 1-2.851 1.9c-.504.33-1.03.642-1.556.954-1.332.79-2.668 1.583-3.679 2.674-2.66 2.865-5.188 5.85-7.716 8.837h-.001v.001l-.001.001v.001h-.001a567 567 0 0 1-3.412 4.006c-.531.614-.555 1.085-.281 1.924.708 2.178 1.18 4.166-.547 6.507-6.282 8.517-12.417 17.141-18.552 25.766l-.004.005a4927 4927 0 0 1-6.542 9.184q-.909 1.27-1.814 2.543l-.007.01c-1.443 2.027-2.886 4.054-4.353 6.067-.242.333-.76.729-1.073.674-.313-.056-.65-.61-.768-1.006a22 22 0 0 1-.427-1.775c-.09-.424-.179-.847-.286-1.266-.26-1.015-.537-2.026-.814-3.037v-.001q-.186-.678-.37-1.358l-.27-.046-.269-.045c-.278.442-.582.874-.887 1.306v.001c-.68.965-1.359 1.929-1.742 3.001-.743 2.065-1.301 4.194-1.859 6.323-.222.844-.443 1.688-.676 2.528l-1.672 6.032v.003l-.001.001v.001q-2.148 7.742-4.287 15.486c-.496 1.797-.985 3.597-1.491 5.457l-.774 2.843q.969.084 1.885.167h.001c1.394.127 2.716.246 4.042.332 2.151.138 2.396-.159 2.919-2.301.586-2.412 1.19-4.819 1.794-7.226.928-3.696 1.856-7.393 2.716-11.105.361-1.552 1.085-1.624 2.337-1.315 4.641 1.153 9.286 2.269 13.939 3.374 1.006.242 1.335.737 1.156 1.79-.681 4.003-1.306 8.013-1.93 12.027v.001h-.001l-.096.62c-.095.613-.143 1.233-.193 1.874v.003q-.035.448-.076.911c.171.013.314.029.438.042v.001h.003c.222.024.384.042.541.025 1.613-.191 3.228-.372 4.842-.553H139l.001-.001h.004c3.917-.438 7.832-.877 11.73-1.454 4.114-.609 8.205-1.39 12.296-2.171h.001l.006-.001.007-.001q1.523-.292 3.047-.579c1.982-.375 3.958-.781 5.934-1.186 1.845-.379 3.691-.757 5.542-1.111 1.093-.21 1.41-.741 1.386-1.818-.041-2.015-.043-4.03-.044-6.045a437 437 0 0 0-.019-4.433c-.008-.891.146-1.39 1.196-1.596 3.03-.598 6.039-1.308 9.047-2.019l.54-.127 1.048-.247.004-.001c7.193-1.695 14.381-3.39 21.559-5.138 1.283-.313 1.83.068 2.068 1.311.419 2.194.883 4.384 1.397 6.558.8 3.374.856 3.461 4.226 2.403l1.449-.454.971-.305h.001v-.001h.001c7.818-2.453 15.636-4.906 23.389-7.548 6.211-2.114 12.367-4.399 18.521-6.682l.008-.003.009-.004q2.307-.857 4.616-1.71c1.83-.675 3.634-1.419 5.501-2.189h.002v-.001c.893-.367 1.799-.741 2.73-1.116-.679-1.445-1.327-2.828-1.962-4.183-.55-1.173-1.089-2.325-1.63-3.476l-.003-.007c-1.395-2.971-1.408-3 1.5-4.365a9990 9990 0 0 1 28.948-13.531c.823-.384 1.615-.551 2.32.435 1.173 1.648 2.384 3.268 3.593 4.888a383 383 0 0 1 2.423 3.266c.582.796 1.18 1.03 2.11.554 1.185-.604 2.383-1.184 3.581-1.764h.001v-.001h.001a199 199 0 0 0 3.407-1.676c11.167-5.678 22.176-11.646 32.765-18.354.328-.208.635-.451.988-.732.18-.143.372-.295.584-.456-3.168-3.002-6.233-5.903-9.253-8.761l-.071-.068-.033-.031-2.48-2.347q.041-.137.062-.227c.024-.101.04-.164.077-.209l.002-.003.003-.002.002-.003.003-.003c3.782-4.408 7.565-8.815 11.359-13.219.697-.808 1.319-.456 2.016.087 1.944 1.508 3.896 3.008 5.846 4.508l.006.005.002.001.001.001c2.948 2.266 5.896 4.533 8.82 6.826 1.105.868 1.945.903 2.99-.043 1.202-1.084 2.443-2.124 3.684-3.163q.888-.741 1.769-1.49c1.553-1.323 1.549-1.335-.127-2.531l-7.035-5.02c-7.138-5.091-14.275-10.182-21.381-15.318-2.012-1.457-4.182-2.107-6.752-2.337q.038.343.065.646v.002c.04.428.075.806.16 1.174.254 1.081.521 2.159.787 3.237.245.993.491 1.986.726 2.98.281 1.196-.281 1.806-1.342 1.493q-2.45-.724-4.896-1.457l-.001-.001-.005-.001h-.001l-.001-.001q-2.779-.833-5.559-1.652a40720 40720 0 0 0-31.466-9.231q-1.664-.487-3.329-.969c-2.59-.75-5.179-1.5-7.755-2.298-.309-.095-.544-.43-.778-.763a5 5 0 0 0-.331-.437q.216-.047.43-.098h.001c.35-.081.701-.163 1.058-.21.134-.02.277.034.421.09q.091.036.181.064 2.196.65 4.392 1.303c2.671.795 5.342 1.589 8.015 2.371q11.743 3.44 23.499 6.855c2.811.818 5.625 1.627 8.506 2.454l3.655 1.051q.176-.505.354-.99v-.001c.244-.67.481-1.318.66-1.983.681-2.546.55-2.641-2.099-3.18a2633 2633 0 0 1-20.79-4.352q-13.976-2.982-27.934-6.035c-.33-.07-.624-.305-.917-.538a6 6 0 0 0-.402-.302c.368-.356.733-.712 1.133-1.105h-.016m-170.103 268.01v-.004l.064-.33 1.66-.095q1.5-.085 3.001-.155h.007l.004-.001h.003c2.223-.107 4.445-.215 6.659-.422a774 774 0 0 0 17.856-1.885c4.649-.543 9.294-1.145 13.915-1.885 5.082-.815 10.142-1.774 15.197-2.733l.314-.059 3.231-.608.002-.001c4.647-.871 9.296-1.743 13.902-2.785 8.137-1.84 16.236-3.844 24.334-5.847l.535-.133.135-.033c5.455-1.351 10.918-2.704 16.315-4.275l1.792-.522.004-.001h.001l.001-.001h.002c9.827-2.862 19.656-5.724 29.389-8.881 11.567-3.754 23.103-7.647 34.499-11.88 12.704-4.72 25.305-9.742 37.834-14.921 9.694-4.008 19.27-8.312 28.778-12.748 8.236-3.845 16.343-7.979 24.437-12.121 14.771-7.56 29.141-15.816 42.986-24.972.467-.307.951-.59 1.436-.874h.001l.365-.214.221-.132.444.456c-.17.213-.331.434-.492.656v.001c-.367.505-.733 1.01-1.195 1.406-.86.745-1.838 1.378-2.836 1.929-1.227.677-1.045 1.291-.182 2.146 3.323 3.291 7.207 5.607 11.738 6.768 4.961 1.271 9.864 1.176 14.739-.602 9.817-3.58 15.574-10.661 17.032-20.806 1.259-8.764-1.584-16.466-8.3-22.461-6.182-5.517-13.516-7.659-21.602-6.154-9.057 1.683-15.555 6.922-19.095 15.539-2.772 6.752-2.63 13.496.364 20.168.325.725.733.943 1.449.456 1.049-.717 2.116-1.403 3.186-2.091l.461-.297c.824-.531 1.652-.82 2.555.095l-.136.121-.067.064-.096.088a1.3 1.3 0 0 1-.208.166q-1.822 1.167-3.64 2.338c-2.896 1.866-5.792 3.731-8.723 5.543-13.413 8.288-27.229 15.859-41.39 22.778-10.185 4.973-20.43 9.832-30.793 14.422-9.584 4.245-19.306 8.179-29.024 12.112h-.001l-.002.001-1.224.496c-7.274 2.942-14.596 5.785-21.978 8.442-9.595 3.453-19.249 6.756-28.927 9.968a699 699 0 0 1-23.242 7.27 769 769 0 0 1-24.08 6.625 909 909 0 0 1-25.04 6.091c-7.056 1.611-14.157 3.037-21.261 4.427a374 374 0 0 1-15.083 2.618c-5.144.788-10.304 1.564-15.484 2.067-6.358.615-12.728 1.11-19.099 1.604q-3.301.255-6.601.518c-.249.019-.503-.037-.757-.093-.115-.025-.23-.051-.344-.069 1.425-1.428 3.133-1.482 4.837-1.535 1.042-.033 2.083-.066 3.055-.413l.016-.059.013-.043.014-.041c.032-.1.065-.2.06-.297a5 5 0 0 0-.135-.927c-.907-3.627-2.411-7.013-4.787-9.876-7.124-8.597-18.212-11.935-28.718-8.09-9.904 3.623-15.5 10.989-16.77 21.36-1.442 11.753 5.907 23.289 17.265 26.956 6.225 2.008 12.276 1.829 18.283-.705 5.425-2.289 9.607-6.043 12.252-11.243 1.046-2.053 1.709-4.307 2.369-6.555.22-.747.439-1.494.673-2.232.403-1.271-.191-1.817-1.545-1.675-1.295.139-2.609.254-3.9.162-.703-.049-1.394-.256-2.084-.463a23 23 0 0 0-.918-.261l.008-.012zm17.619-206.506c-.424.213-.849.426-1.255.664-2.242 1.31-4.493 2.605-6.744 3.901h-.001v.001h-.002v.001h-.002c-5.272 3.034-10.544 6.069-15.696 9.295-10.502 6.578-20.537 13.817-29.344 22.612-4.732 4.724-8.997 9.797-11.571 16.097-2.618 6.4-1.283 12.68 3.782 16.854 3.572 2.942 7.84 4.451 12.26 5.54 5.429 1.335 10.965 2.138 16.549 2.083 8.486-.083 16.98-.249 25.455-.729 3.781-.213 7.542-.767 11.302-1.322h.001a346 346 0 0 1 4.03-.578l.947-.129c3.653-.494 7.31-.989 10.933-1.646 4.76-.859 9.492-1.857 14.216-2.894q2.042-.449 4.084-.893h.001c5.953-1.297 11.908-2.595 17.806-4.113a562 562 0 0 0 24.477-6.87c10.185-3.113 20.33-6.364 30.409-9.809a416 416 0 0 0 22.635-8.459c11.345-4.629 22.655-9.369 33.842-14.371 13.096-5.856 25.855-12.434 38.269-19.629 13.191-7.643 26.014-15.856 37.482-25.99 5.591-4.942 10.795-10.244 14.561-16.778 1.928-3.347 3.267-6.895 3.132-10.803-.182-5.346-3.12-8.997-7.563-11.619-4.511-2.665-9.465-3.976-14.593-4.772a86 86 0 0 1-2.478-.431h-.004q-.608-.114-1.217-.222l.043-.288.04-.274c2.114-.995 4.174-.476 6.275.054 1.346.339 2.71.683 4.116.635-.015-.301-.019-.596-.024-.886v-.002c-.01-.622-.019-1.22-.13-1.797-2.039-10.76-12.502-17.198-22.746-14.098-11.116 3.366-15.959 16.692-9.694 26.489 3.77 5.892 11.753 9.444 18.841 7.674 5.414-1.35 9.259-4.502 11.896-9.29.559-1.014.503-1.758-.895-1.984-1.952-.317-3.908-.642-5.813-1.148-.651-.173-1.251-.544-1.852-.915a17 17 0 0 0-.809-.48c.34-.407.491-.494.63-.479 4.72.543 9.357 1.466 13.757 3.303 3.053 1.275 5.876 2.974 7.702 5.857 2.499 3.944 1.556 7.92-.222 11.777-2.408 5.219-6.114 9.512-10.134 13.535-7.009 7.013-14.905 12.922-23.086 18.493a303.5 303.5 0 0 1-34.12 20.094c-11.135 5.619-22.433 10.925-33.798 16.065a428 428 0 0 1-25.645 10.633 904 904 0 0 1-34.425 12.161c-9.927 3.283-19.922 6.431-30.04 9.049-11.906 3.081-23.922 5.737-35.932 8.392h-.001l-.038.009-2.964.655c-10.28 2.277-20.703 3.699-31.181 4.748-10.965 1.101-21.93 1.758-32.931.654-6.914-.693-13.726-1.782-19.828-5.501-4.392-2.673-6.593-7.884-5.116-12.454 1.227-3.806 3.188-7.219 5.643-10.34 5.639-7.163 12.525-12.988 19.756-18.461 9.635-7.294 19.8-13.761 30.385-19.563 3.275-1.793 5.318-4.589 7.279-7.634l-.008.004q-.314.162-.631.32v.001h-.002zm297.382 24.475-.004.067-.01.179q-1.203 0-2.406-.006h-.002a295 295 0 0 0-5.721.017c-1.549.028-1.743.381-.986 1.636 1.271 2.12 2.55 4.236 3.829 6.351l.001.001.001.002.001.001v.001l.001.001.001.002v.001c1.62 2.678 3.239 5.356 4.842 8.042.336.564.695 1.123 1.054 1.683 1.002 1.562 2.008 3.132 2.553 4.844 1.067 3.342 1.829 6.783 2.59 10.219q.306 1.393.622 2.781c.273 1.192.626 1.469 1.909 1.109 2.586-.733 5.227-1.465 7.888-1.671 6.637-.523 12.66 1.342 17.903 5.492 1.137.899 1.921.713 2.741-.332.456-.583.929-1.155 1.402-1.726v-.001a71 71 0 0 0 1.536-1.897c2.982-3.837 5.647-7.864 7.076-12.565 1.07-3.524 1.311-7.072-.4-10.494-1.659-3.31-4.51-5.362-7.674-7.052-6.118-3.271-12.819-4.614-19.574-5.438-4.43-.541-8.896-.78-13.363-1.019a449 449 0 0 1-5.8-.335l-.004-.004-.002.032-.002.035zM243.542 441.519q-.001-.125-.007-.248l-.005-.116a7 7 0 0 1-.248-.105 2.7 2.7 0 0 0-.548-.196 536 536 0 0 0-3.77-.772c-2.358-.478-4.716-.955-7.061-1.489a3990 3990 0 0 1-28.714-6.633c-1.501-.353-3.057-.749-4.391-1.481-1.203-.66-2.311-1.496-3.419-2.333-.475-.358-.95-.717-1.432-1.061l-4.79-3.419-.011-.008-.011-.008-.005-.003-.005-.004c-5.704-4.071-11.408-8.143-17.105-12.224-.907-.649-1.651-.681-2.455.19-.48.523-1 1.009-1.521 1.495l-.001.001c-.391.365-.782.73-1.155 1.11-4.158 4.241-8.043 8.688-10.411 14.244-2.467 5.786-.994 10.415 4.451 13.504 1.572.891 3.232 1.698 4.942 2.277 6.724 2.277 13.722 2.926 20.759 3.14 9.389.285 18.754-.151 28.064-1.414 6.672-.904 13.329-1.899 19.987-2.895l5.04-.752c.894-.132 1.776-.336 2.659-.54h.001q.576-.135 1.154-.26zm164.785-58.594-.08-.107q.443-.555.882-1.112l.001-.002c.553-.701 1.106-1.401 1.674-2.088q3.576-4.316 7.156-8.628l.008-.009.008-.01.008-.01c3.742-4.508 7.483-9.016 11.214-13.534l.555-.673c1.731-2.096 3.466-4.197 5.033-6.412.78-1.101 1.208-2.503 1.584-3.829a5019 5019 0 0 0 6.23-22.334l.003-.011.003-.01.003-.011.003-.01.003-.01.003-.011.003-.01.828-2.985.706-2.546.131-.467.114-.404a58 58 0 0 0 .765-2.895c.21-.915.689-1.414 1.632-1.283 1.248.172 2.5.324 3.753.476h.002c3.136.381 6.274.762 9.34 1.452a32.3 32.3 0 0 1 8.803 3.406c5.426 3.101 6.586 7.314 4.408 12.993-2.384 6.221-6.795 11.032-11.484 15.571-9.492 9.195-20.279 16.691-31.534 23.522-4.701 2.85-9.485 5.563-14.27 8.277l-.003.001a1608 1608 0 0 0-5.42 3.083c-.403.23-.838.408-1.272.585l-.001.001q-.314.126-.624.262-.084-.116-.168-.228m-144.15-12.785q-.103-.352-.184-.643v-.001c-.107-.384-.195-.703-.319-1.007a1973 1973 0 0 0-6.765-16.529l-.003-.006-.001-.003a1445 1445 0 0 1-5.214-12.723c-.388-.962-.78-1.132-1.73-.855a590 590 0 0 1-12.922 3.635 2267 2267 0 0 1-13.726 3.613l-.005.001-.004.001-.004.001-.004.001-.004.001-.004.001-.004.002q-3.391.883-6.781 1.773c-1.479.389-2.955.788-4.53 1.213l-1.656.446.365.678.224.415c.395.728.745 1.373 1.071 2.027l.747 1.507c4.004 8.063 8.007 16.123 11.988 24.198.475.966 1.109 1.235 2.138.986 3.167-.757 6.341-1.487 9.515-2.217l2.635-.607q2.276-.524 4.552-1.044l.032-.007.007-.002.007-.001.007-.002.005-.001.003-.001.003-.001h.003c2.461-.563 4.922-1.126 7.379-1.701 3.219-.755 6.433-1.527 9.768-2.327l1.725-.414 1.682-.403zm-161.643-76.392c-.196.118-.363.214-.509.299-.281.162-.484.279-.671.417-7.496 5.596-14.79 11.441-21.289 18.197-5.532 5.75-10.716 11.789-13.353 19.519-1.442 4.217-1.576 8.391 1.156 12.224 2.51 3.524 6.107 5.556 10.043 7.081 1.08.419 1.413-.389 1.703-1.101 3.037-7.501 8.327-12.684 15.923-15.452 4.122-1.505 8.371-2.075 12.739-1.228 1.517.293 1.774-.119 1.374-1.913-.376-1.692-.763-3.382-1.149-5.073v-.001c-1.004-4.392-2.008-8.783-2.835-13.209-.701-3.763-1.225-7.558-1.75-11.354a525 525 0 0 0-.772-5.448c-.091-.598-.222-1.191-.367-1.848a73 73 0 0 1-.239-1.106zm30.36-130.115-.149-.181q-.2.086-.406.164c-.273.107-.546.213-.794.359q-1.305.77-2.613 1.537c-2.532 1.487-5.066 2.975-7.564 4.521-10.257 6.36-20.196 13.167-29.09 21.372-5.628 5.192-11.01 10.661-13.761 18.026-1.43 3.826-1.545 7.643 2.554 11.14 2.423 2.067 5.25 3.405 8.296 4.095 2.972.672 5.982 1.184 8.992 1.696h.002v.001h.006l.002.001h.002l.002.001h.004q1.696.286 3.389.585c1.061.191 1.58-.293 1.849-1.366.512-2.058 1.09-4.098 1.669-6.141q.3-1.056.596-2.115.994-3.567 1.984-7.134l.003-.011.001-.001v-.003l.001-.001v-.002l.001-.002c1.925-6.932 3.85-13.864 5.839-20.776.448-1.553 1.113-3.168 2.103-4.416 3.589-4.509 7.248-8.96 10.907-13.412l.007-.007.002-.003.002-.003.003-.003.002-.003.002-.003.006-.007q2.314-2.811 4.62-5.63c.397-.486.764-.999 1.131-1.512h.001v-.001q.238-.334.48-.665v-.004l-.079-.094zm198.16 45.276c-.12-.18-.212-.323-.289-.442-.13-.201-.216-.334-.313-.461l-5.17-6.802-.018-.023-.017-.023-.018-.024-.018-.023-.018-.024-.018-.023-.018-.024a9103 9103 0 0 1-14.679-19.344c-.701-.927-1.386-.832-2.293-.404-2.677 1.263-5.362 2.51-8.083 3.682a1931 1931 0 0 1-17.241 7.303c-1.097.459-1.454.91-.848 2.182 2.914 6.1 5.784 12.221 8.654 18.343 1.546 3.297 3.091 6.594 4.644 9.887 1.13 2.394 1.167 2.377 3.219 1.417l.056-.027c5.98-2.801 11.965-5.592 17.949-8.383l.035-.016.034-.017.035-.016 1.748-.815 3.495-1.631c1.428-.667 2.855-1.335 4.301-2.013l.07-.032c1.569-.735 3.161-1.481 4.801-2.247m36.792 85.567a8 8 0 0 1-.364.017c-.137.005-.2.007-.254.031l-11.421 4.926-.012.005a13031 13031 0 0 1-25.228 10.865c-1.058.456-1.216 1.046-.872 2.079.853 2.549 1.655 5.117 2.456 7.683l.431 1.382a3929 3929 0 0 1 4.994 16.101c.34 1.105.934 1.37 1.98.875a1349 1349 0 0 1 6.573-3.061l.005-.003.02-.009.019-.009q2.059-.953 4.114-1.911 3.201-1.493 6.399-2.991l.026-.012.025-.012c5.33-2.494 10.659-4.988 16.012-7.432 1.219-.558 1.461-1.176 1.172-2.407-1-4.248-1.967-8.503-2.934-12.758l-.003-.009q-.76-3.347-1.526-6.693a351 351 0 0 0-1.129-4.694l-.003-.013q-.239-.97-.476-1.946zm-144.231-44.197-.607-2.924-.001-.006c-.591-2.849-1.164-5.614-1.752-8.376q-.771-3.605-1.554-7.208v-.002l-.001-.003v-.002l-.001-.003v-.002l-.001-.002q-.673-3.099-1.338-6.198a568 568 0 0 1-.767-3.666c-.336-1.63-.673-3.259-1.031-4.884-.174-.796-.463-1.453-1.604-1.105a245 245 0 0 1-8.866 2.503l-.477.126c-5.425 1.431-10.85 2.862-16.306 4.174-1.239.301-1.726.693-1.714 2.024.056 8.016.073 16.029.089 24.044v.003l.018 8.013c0 .328.025.654.057 1.065v.001c.017.219.036.463.054.744l4.208-.978c10.541-2.449 20.967-4.871 31.59-7.342zm61.606 182.197c.096 9.523 7.342 17.383 17.23 17.616 10.284.246 18.002-7.749 18.14-17.673.135-9.433-7.848-17.586-17.19-17.662-10.343-.083-18.088 7.468-18.18 17.719m34.951-335.275c.015.139.031.273.051.412q.28.092.561.193c.398.14.796.282 1.205.373q4.1.94 8.2 1.873a2223 2223 0 0 1 17.346 4c1.485.352 3.049.859 4.277 1.722 5.492 3.862 10.952 7.768 16.411 11.674h.001l.001.001c3.794 2.715 7.589 5.429 11.394 8.129a56 56 0 0 1 1.594 1.178c1.004.762 1.528 1.16 2.026 1.128.543-.034 1.054-.583 2.123-1.732h.001c.291-.314.625-.672 1.012-1.077 3.604-3.773 6.914-7.785 8.902-12.695 1.03-2.543 1.655-5.152.697-7.889-1.307-3.726-4.38-5.552-7.706-7.04-2.437-1.093-2.471-1.03-3.696 1.243l-.015.028a19 19 0 0 1-.796 1.33c-4.882 7.568-12.874 10.233-20.881 8.197-6.712-1.706-11.187-6.189-13.29-12.846-.451-1.43-1.152-1.88-2.601-1.703-5.248.657-10.499 1.289-15.75 1.921q-4.908.59-9.816 1.188c-.291.035-.573.142-.856.249q-.193.074-.387.14zm6.653 292.972-.159-.792c-.231-1.151-.446-2.223-.665-3.294q-.398-1.96-.803-3.917c-.686-3.326-1.373-6.652-1.981-9.991-.234-1.275-.642-1.619-1.838-1.168a215 215 0 0 1-6.019 2.162c-7.089 2.439-14.181 4.868-21.272 7.297l-.045.015-.046.016-.374.128-2.327.797-3.953 1.354c-.946.325-1.382.674-.732 1.786a1077 1077 0 0 1 9.254 16.256c.661 1.18 1.489 1.244 2.598.848q5.579-1.98 11.175-3.917 2.997-1.035 5.996-2.065l.009-.003.009-.004.01-.003c3.491-1.2 6.981-2.4 10.465-3.619.282-.099.507-.355.698-.572.078-.088.15-.17.217-.232v-.004l-.112-.558zm151.699-62.967c-.05-.373-.088-.75-.126-1.126-.083-.814-.166-1.629-.369-2.414-1.022-3.984-3.722-6.649-7.128-8.685-3.988-2.384-8.379-3.679-12.909-4.459-2.287-.395-4.6-.636-6.912-.876h-.001c-.95-.099-1.901-.198-2.849-.308-1.473-.171-1.554 1-1.617 1.905l-.003.044c-.023.324.788.954 1.28 1.029 1.271.188 2.551.322 3.832.456 1.204.126 2.407.253 3.604.423 4.653.67 9.164 1.858 13.35 4.087 6.347 3.378 8.411 9.163 5.361 15.65a43.4 43.4 0 0 1-4.276 7.215c-5.22 7.104-11.876 12.767-18.814 18.101-11.362 8.736-23.558 16.165-36.1 23.071-17.796 9.801-36.111 18.509-54.984 26.005-9.608 3.816-19.304 7.4-29.001 10.985h-.002a3611 3611 0 0 0-10.126 3.755c-1.026.384-.966.958-.673 1.683q.065.165.125.344c.229.663.474 1.371 1.522.998q2.524-.902 5.051-1.795c4.386-1.554 8.772-3.108 13.122-4.759 7.627-2.898 15.253-5.809 22.766-8.985 9.373-3.96 18.722-8.007 27.918-12.367 8.541-4.051 16.929-8.443 25.272-12.898 12.942-6.906 25.4-14.616 37.034-23.578 7.968-6.138 15.543-12.711 21.182-21.182 2.471-3.714 4.372-7.686 4.463-12.319zM321.97 438.658c.333-.051.591-.091.833-.175l1.006-.347.009-.003c3.444-1.186 6.889-2.372 10.319-3.598q1.312-.468 2.623-.932l.018-.006c3.278-1.16 6.555-2.32 9.773-3.624 3.129-1.269 6.187-2.722 9.244-4.173l.791-.375.74-.351q1.228-.577 2.46-1.149c2.943-1.366 5.886-2.733 8.704-4.327 3.13-1.774 6.133-3.774 9.135-5.773q1.017-.678 2.036-1.352.568-.374 1.149-.743l.001-.001h.001v-.001h.001l.001-.001c1.548-.99 3.11-1.989 4.323-3.301 1.995-2.159 3.808-4.488 5.621-6.816.704-.903 1.407-1.806 2.121-2.7.157-.196.279-.42.418-.674l.001-.001.113-.206q.052-.093.11-.192-.184-.002-.31-.011c-.146-.01-.242-.016-.32.019l-2.756 1.269c-5.22 2.403-10.438 4.805-15.634 7.253-.661.313-1.291.907-1.695 1.529l-.852 1.299c-1.574 2.396-3.15 4.794-4.518 7.306-1.536 2.819-3.342 5.045-6.538 6.181-2.028.723-3.971 1.683-5.913 2.642v.001h-.002c-.996.492-1.991.984-2.999 1.444-1.406.646-1.952.254-1.845-1.287.038-.519.103-1.038.169-1.557a27 27 0 0 0 .179-1.706c.08-1.265.131-2.53.184-3.854v-.006q.04-.987.086-2.028c-.262.064-.489.115-.69.16h-.001a8 8 0 0 0-.949.251q-4.175 1.515-8.348 3.035l-.018.006-.017.006-.011.004-.011.004-.01.004-.011.004-.011.004c-5.927 2.156-11.855 4.313-17.794 6.445-1.152.416-1.54.978-1.212 2.186.693 2.562.686 5.144.036 7.73-.123.493-.182 1.001-.251 1.599h-.001v.003c-.035.305-.073.634-.124.996l.004-.004c.24-.045.447-.077.63-.105m-38.515-4.944q-.31.049-.623.092c-.485.069-.977.139-1.453.26-1.499.385-2.995.785-4.491 1.185-2.728.73-5.457 1.46-8.208 2.094l-4.117.954-.059.013c-7.379 1.713-14.761 3.426-22.194 4.862-7.457 1.442-14.992 2.479-22.52 3.501-13.971 1.901-27.994 2.919-42.079 1.358-5.865-.649-11.639-1.714-16.902-4.617-3.48-1.921-6.153-4.495-6.633-8.665-.4-3.453.844-6.549 2.46-9.504 2.95-5.401 7.151-9.789 11.511-14.042 1.216-1.184 1.196-1.659-.297-2.356-.487-.226-1.35-.142-1.798.162-.683.458-1.264 1.071-1.841 1.68q-.212.226-.428.447c-5.033 5.172-9.674 10.589-12.026 17.614-1.802 5.39-.273 11.262 3.976 14.913 3.112 2.677 6.775 4.198 10.636 5.335 6.289 1.857 12.767 2.494 19.281 2.728 8.76.313 17.508.008 26.216-1.038l1.289-.155 1.209-.145c6.297-.756 12.598-1.512 18.866-2.46 4.317-.652 8.601-1.537 12.882-2.421h.001l2.434-.501c5.548-1.137 11.1-2.293 16.612-3.596 3.54-.837 7.059-1.758 10.578-2.68l.003-.001.008-.002.007-.001.008-.002.006-.002.006-.001.006-.002.004-.001c1.944-.51 3.888-1.019 5.836-1.513 2.431-.618 2.546-.777 1.837-3.497zm99.969-103.088-.001-.001c-.174-.233-.316-.423-.493-.568q-1.251-1.034-2.51-2.06a288 288 0 0 1-4.1-3.393c-.871-.74-1.643-.792-2.684-.301-11.096 5.204-22.2 10.395-33.348 15.488-1.481.677-1.627 1.398-1.156 2.744a101 101 0 0 1 2.115 6.684c.317 1.141.705 1.236 1.742.733 3.741-1.8 7.509-3.542 11.277-5.285l1.522-.704 1.449-.672c8.752-4.063 17.503-8.122 26.481-12.284q-.097-.12-.18-.229zm-45.472 73.107-.217-.251-.296-.347c-.262-.307-.469-.551-.691-.78a460 460 0 0 0-2.285-2.351c-1.737-1.779-3.475-3.558-5.148-5.399-1.045-1.148-2.047-1.323-3.441-.808-2.108.779-4.233 1.506-6.36 2.234h-.002q-1.382.472-2.762.95-2.514.872-5.028 1.748l-.01.003a2473 2473 0 0 1-12.778 4.419c-.97.332-1.279.732-.721 1.691a313 313 0 0 1 2.114 3.684l.001.001v.001l.002.003a362 362 0 0 0 1.832 3.201l.086.149c.245.427.552.961.884 1.007.56.077 1.132.183 1.706.29 1.659.308 3.339.62 4.828.229 3.747-.984 7.407-2.292 11.067-3.601h.003l.001-.001c1.228-.439 2.456-.878 3.688-1.304 3.096-1.073 6.183-2.168 9.38-3.301l.05-.018.024-.009 4.069-1.44zm-213.86-170.49q.019.191.032.376l-2.618.002h-.005c-2.401.003-4.801.007-7.202-.014-.895-.008-1.394.226-1.635 1.208-1.698 6.891-3.438 13.769-5.177 20.649l-.783 3.095c-.269 1.073.162 1.493 1.208 1.679q4.37.772 8.712 1.699c2.067.444 2.098.396 2.586-1.655.757-3.206 1.556-6.401 2.355-9.596v-.002l.001-.004q.576-2.296 1.144-4.595.478-1.937.948-3.874v-.002l.001-.001v-.003l.001-.001v-.002c.606-2.489 1.212-4.978 1.85-7.458.34-1.331-.107-1.759-1.418-1.501m244.526-84.564.333.256 1.35 1.037 5.394 4.161.309.238.145.112.012.009q7.48 5.774 14.966 11.538.102.079.204.162c.562.455 1.123.908 1.883 0a271 271 0 0 1 6.007-6.942c.622-.697.507-1.152-.158-1.663a13238 13238 0 0 1-20.489-15.765c-.792-.61-1.458-.574-2.226.052-1.097.896-2.234 1.74-3.369 2.582l-.001.001-.34.252c-.995.741-1.999 1.474-3.067 2.254h-.001l-.003.002-1.626 1.189v.004zM147.88 383.812l.009-.006c2.365-1.732 4.631-3.392 6.917-5.025.8-.574.737-1.117.297-1.85l-.481-.797-.562-.93-.108-.178c-2.626-4.349-5.252-8.697-7.83-13.075-.598-1.014-1.315-1.303-2.436-1.184-2.595.28-5.192.513-7.792.746h-.003l-.037.003-.031.003-1.938.174c-2.471.226-2.791.876-1.501 3.034q1.683 2.81 3.363 5.622l.004.007a3970 3970 0 0 0 5.444 9.094c.897 1.49 1.81 2.969 2.762 4.513l1.151 1.867.004.008zm327.539-160.125q.065-.048.126-.089l.018-.013.064-.044.003-.002h.001v-.001c.13-.087.24-.163.327-.262 4.689-5.259 8.902-10.803 11.326-17.551 3.33-9.271.689-17.23-7.548-22.394-6.399-4.011-13.559-5.778-20.889-6.855-10.752-1.58-21.578-1.932-32.433-1.267-.357.021-.711.09-1.074.161q-.268.054-.545.1c.859 2.606 1.097 2.784 3.429 2.725l.694-.019.249-.007c.624-.017 1.247-.035 1.869-.045 11.523-.21 23.011.099 34.297 2.78 4.772 1.132 9.374 2.732 13.46 5.544 4.784 3.29 7.366 7.67 6.697 13.654a22.2 22.2 0 0 1-3.521 9.753c-2.119 3.241-4.468 6.328-6.816 9.413l-.969 1.275c-.638.84-.745 1.426.048 2.115.361.317.723.63 1.111.966l.073.063zM77.372 356.05c1.323-2.257 1.164-2.7-.875-3.73q-.418-.21-.837-.418l-.008-.003v-.001c-1.489-.74-2.984-1.482-4.339-2.421-4.039-2.8-6.76-6.431-6.775-11.639-.012-3.255.835-6.28 2.202-9.183 3.358-7.116 8.45-12.933 13.959-18.41 6.2-6.17 12.969-11.678 20.029-16.834 1.608-1.172 1.842-2.661.662-4.237q-.078.043-.159.084c-.116.061-.236.122-.344.201-9.778 7.013-19.091 14.561-27.126 23.574-4.594 5.148-8.669 10.652-11.021 17.242-1.362 3.817-1.845 7.765-.748 11.678 2.185 7.801 8.407 11.325 15.38 14.101zm41.659-128.851h.008c2.38-.105 4.757-.21 7.128-.415.594-.051 1.481-.717 1.628-1.263 1.326-4.859 2.542-9.746 3.706-14.644.088-.372-.4-1.208-.76-1.303-2.275-.608-4.566-1.154-6.858-1.7q-1.492-.354-2.983-.716c-.993-.241-1.429.21-1.655 1.125-.749 3.057-1.506 6.112-2.262 9.167q-.985 3.97-1.963 7.944c-.471 1.925-.388 2.008 1.639 1.913h.004q1.169-.056 2.338-.107h.015l.005-.001h.005zm322.982 53.849v-.222q.781 0 1.562.003h.001c1.299.003 2.597.006 3.898-.011.891-.012 1.516-.32 1.358-1.413-.165-1.144-.321-2.29-.478-3.435-.329-2.403-.657-4.806-1.062-7.198-.107-.638-.733-1.521-1.303-1.695-4.495-1.374-8.162-3.984-11.425-7.27-.215-.218-.534-.333-.852-.447-.146-.053-.292-.105-.427-.167-.048.159-.113.321-.177.482-.142.355-.285.71-.255 1.05.077.861.223 1.716.369 2.572v.001c.082.479.164.959.233 1.439l.344 2.372.005.036.006.038v.006l.001.003v.004l.001.003v.003l.001.003c.604 4.167 1.208 8.336 1.757 12.512.143 1.074.578 1.39 1.6 1.347 1.137-.048 2.278-.038 3.419-.028q.708.007 1.416.008zm-58.485 47.461.096-.062.07-.043.045-.028.121-.077q-.054-.32-.103-.64c-.066-.424-.132-.849-.229-1.265q-.906-3.918-1.819-7.836l-.005-.021-.002-.01-.002-.009-.002-.01-.002-.009-.003-.01-.002-.009c-.822-3.535-1.644-7.07-2.456-10.607a1779 1779 0 0 1-3.556-15.816c-.202-.927-.665-1.117-1.441-.772a17 17 0 0 0-1.048.526c-.625.332-1.25.664-1.915.84-1.809.479-1.853 1.556-1.496 3.081 1.896 8.102 3.75 16.212 5.579 24.33.345 1.532.966 2.748 2.289 3.71 1.438 1.048 2.808 2.188 4.178 3.327l.001.001q.847.707 1.702 1.405zm3.624-155.482c-.451.524-.909 1.056-1.385 1.594l-2.838-2.686a4183 4183 0 0 0-4.296-4.064l-3.643-3.441a4181 4181 0 0 0-11.88-11.195c-.883-.832-.851-1.37.198-2.035a56 56 0 0 0 1.378-.906h.001c.908-.612 1.378-.928 1.839-.917.494.012.979.397 1.982 1.195.342.272.744.591 1.227.96q4.387 3.352 8.766 6.715c3.794 2.911 7.588 5.822 11.394 8.717 1.125.86 1.466 1.533.309 2.689-1.056 1.056-2.034 2.192-3.052 3.374M223.104 386.032l.157.243.156.244c14.383-3.347 28.765-6.693 43.39-10.094l-.396-1.08-.003-.009-.002-.005c-.315-.861-.591-1.615-.87-2.367-.361-.971-.931-1.315-2.04-1.042-4.607 1.142-9.228 2.217-13.854 3.292l-.003.001-.008.002-1.175.273a3951 3951 0 0 1-7.404 1.71l-.003.001h-.002l-.002.001h-.003l-.002.001h-.002l-.003.001c-4.726 1.089-9.452 2.178-14.173 3.295-.594.143-1.299.583-1.592 1.089-.596 1.03-1.095 2.116-1.595 3.203q-.283.62-.575 1.237zm133.555-261.004a954 954 0 0 0-1.915 2.232l-.017.019-.001.002-.006.006c-1.637 1.91-3.216 3.753-4.825 5.57-.669.752-.332 1.192.27 1.651q1.71 1.313 3.424 2.624c2.732 2.091 5.464 4.183 8.178 6.294.701.547 1.224.539 1.929.016a344 344 0 0 1 7.568-5.489c.934-.657.851-1.128 0-1.758a297 297 0 0 1-3.674-2.804l-.005-.004-.002-.001-.001-.001q-1.001-.773-2.005-1.542c-2.524-1.932-5.051-3.861-7.667-5.859l-1.247-.952zm-18.641 275.851-.003-.078-.005-.136a6 6 0 0 0-.019-.363 1 1 0 0 0-.019-.125q-1.96-9.708-3.932-19.408-.442-2.168-.891-4.335l-.005-.022-.002-.008-.001-.008a797 797 0 0 1-1.501-7.381c-.214-1.089-.669-1.39-1.727-.95-1.2.495-2.431.931-3.683 1.271-1.334.361-1.861.994-1.544 2.463.7 3.263 1.37 6.531 2.04 9.8.625 3.052 1.25 6.103 1.9 9.149.163.76.594 1.556 1.121 2.13 1.517 1.647 3.092 3.24 4.666 4.833l.002.002.554.561.627.635c.45.459.919.9 1.468 1.417.296.278.615.579.967.916h.004zM186.134 241.365h-.072v-14.989q0-2.736-2.744-2.154a4.3 4.3 0 0 1-.772.115c-1.556.039-2.103.756-2.091 2.368.068 7.846.083 15.692.098 23.536q.007 3.924.017 7.847c.004 2.091.012 2.099 2.118 1.679.266-.052.527-.132.788-.212h.001c.388-.119.776-.237 1.172-.263 1.346-.087 1.516-.856 1.504-2-.032-3.925-.027-7.848-.023-11.771zm34.958 143.981.488.076q.273-.567.542-1.136c.429-.906.858-1.813 1.339-2.69.526-.958.53-1.782.023-2.78a1911 1911 0 0 1-6.955-13.878l-.003-.005-.002-.006-.003-.005-.002-.005-.003-.005-.002-.005-2.082-4.18q-.68-1.367-1.357-2.736v-.002l-.001-.001v-.001c-1.178-2.383-2.356-4.766-3.584-7.124-.289-.555-.99-1.311-1.446-1.275-.949.075-1.886.324-2.928.602l-.002.001c-.439.117-.897.239-1.382.355l6.872 13.78.232.465.645 1.294 9.604 19.258zm92.135-202.612-2.083-2.752c.439-.213.846-.425 1.234-.627.909-.474 1.713-.892 2.566-1.136.464-.135 1.343.4 1.719.879 2.197 2.804 4.348 5.643 6.5 8.482q1.148 1.516 2.299 3.03l1.62 2.127 1.712 2.249c2.507 3.294 5.016 6.589 7.519 9.887.161.211.288.447.44.73l.004.007.037.069a16 16 0 0 0 .227.41c-.358.172-.706.353-1.049.531-.844.439-1.659.863-2.526 1.097-.515.134-1.458-.365-1.838-.86-4.449-5.772-8.856-11.574-13.264-17.377l-.038-.051-2.958-3.892c-.699-.922-1.397-1.846-2.121-2.803m-125.601 33.865q.34-.053.617-.09h.001c.371-.051.675-.094.97-.167l2.725-.693h.003v-.001h.001c3.115-.79 6.229-1.58 9.334-2.411a510 510 0 0 0 11.852-3.326c.57-.167 1.485-.745 1.461-1.066-.099-1.183-.341-2.353-.586-3.543l-.001-.001a93 93 0 0 1-.256-1.275l-5.798 1.32-.021.004-.019.005-.014.003-.019.004a8590 8590 0 0 0-8.215 1.872l-2.026.461-.005.001-.003.001c-2.719.617-5.439 1.235-8.139 1.917-.674.17-1.731.685-1.778 1.128-.144 1.375-.123 2.766-.1 4.211v.001c.008.54.016 1.088.016 1.645m117.147-42.35-.001-.002c-.768-1.042-1.472-1.997-2.262-2.875-.273-.301-1.172-.349-1.616-.147a2455 2455 0 0 0-21.209 9.853c-3.339 1.567-3.323 1.599-1.637 4.94l.041.081c.443.883.815 1.105 1.794.681 3.598-1.558 7.208-3.089 10.82-4.621h.001c2.886-1.224 5.773-2.449 8.654-3.687 1.419-.611 2.815-1.275 4.274-1.968l.002-.002q1.015-.484 2.084-.984c-.33-.436-.641-.858-.943-1.267zm-152.054-30.336-28.577 34.91-3.586 4.381c.317.234.627.451.927.663.639.449 1.237.87 1.778 1.349.926.82 1.489.527 2.118-.364 5.141-7.231 10.301-14.452 15.46-21.672l.013-.017.002-.004 1.902-2.661q2.065-2.893 4.134-5.784 2.87-4.012 5.734-8.029l.071-.099c.548-.761 1.121-1.557.024-2.677zm-22.509 90.118a2 2 0 0 1-.099-.235c-.115-.294-.282-.725-.514-.763-.975-.166-2.04-.143-2.313 1.196a39 39 0 0 0-.16.833v.002c-.09.489-.18.978-.303 1.458q-1.691 6.633-3.39 13.266-1.298 5.072-2.594 10.145c-.68 2.662-.665 2.665 1.945 3.344l.011.002q.68.178 1.347.396c1.006.329 1.592.02 1.75-1.069.267-1.848.547-3.696.828-5.544v-.005l.001-.001v-.001l.28-1.85.297-1.987.001-.003v-.004l.001-.003.001-.003v-.004l.001-.003v-.004q.494-3.31.998-6.622c.5-3.286 1.003-6.573 1.535-10.055l.006-.033.004-.031.371-2.426zm280.804-76.919c-.048.247-.089.42-.119.548v.001c-.044.189-.065.279-.051.362.641 3.73 2.099 7.096 4.075 10.347 4.213 6.94 8.339 13.933 12.464 20.926q2.68 4.547 5.371 9.087a636 636 0 0 0 2.949 4.904l.001.003.001.002.002.002.001.002.001.002.001.002.002.002 1.244 2.059.59-.226a42 42 0 0 1-.623-2.448h-.001v-.004h-.001v-.001c-.419-1.796-.839-3.592-1.723-5.119-4.463-7.725-9.073-15.363-13.683-23.001q-2.437-4.036-4.866-8.077a7149 7149 0 0 0-5.635-9.369zM248.401 332.354c.269-1.62-.432-1.893-1.501-1.659a682 682 0 0 0-8.372 1.888c-6.076 1.415-12.15 2.84-18.224 4.265l-.007.002-.006.001-.007.002-.012.003-.013.003-.012.003-.013.003-4.353 1.021c-1.929.451-3.858.909-5.781 1.365l-.015.004-3.72.88c.186 2.024.943 3.081 1.98 2.839 2.178-.51 4.352-1.029 6.518-1.591l1.037-.269a1718 1718 0 0 0 15.405-4.044c3.844-1.036 7.68-2.101 11.509-3.165l.005-.001.025-.007q2.78-.773 5.557-1.539zm199.386-49.591a6 6 0 0 1-.355-.173c-.141-.073-.223-.115-.303-.112q-1.371.025-2.744.044h-.001c-2.671.041-5.344.081-8.01.205-1.735.079-3.944 2.954-3.695 4.705.262 1.835.588 3.661.914 5.487v.004l.001.001v.003q.169.939.333 1.878a90 90 0 0 0 .369 1.95l.001.004.224 1.143 2.746-3.134 1.878-2.143c2.907-3.317 5.746-6.557 8.642-9.858zM308.85 94.71l.002.034.003.042.009.132.014.208c.588.11 1.177.255 1.766.4 1.299.32 2.597.64 3.881.582 2.892-.128 5.774-.477 8.656-.826a319 319 0 0 1 3.109-.366c2.124-.235 4.248-.478 6.372-.72h.001c4.706-.537 9.412-1.075 14.124-1.533 1.433-.139 1.869-.467 1.726-1.929-.128-1.321-.854-1.271-1.707-1.212l-.126.008c-11.401.741-22.675 2.456-33.925 4.368-.899.153-1.791.35-2.683.547q-.609.136-1.218.265zm-45.694 348.884c8.533 2.451 16.735 3.988 25.241 1.798l-.373-.572-.088-.133-.084-.127-.217-.329-.015-.022-.002-.004-.002-.002-.001-.001-.001-.002c-.574-.868-1.123-1.698-1.621-2.554-1.228-2.107-2.871-2.994-5.279-2.424-4.077.971-8.142 1.998-12.344 3.059l-.008.002c-1.709.432-3.441.869-5.206 1.311m64.732-138.964h.001c.254-.065.489-.124.71-.218q2.905-1.231 5.812-2.459c5.814-2.459 11.628-4.917 17.429-7.409 4.34-1.865 8.644-3.814 12.933-5.782.582-.265 1.347-.832 1.43-1.354.257-1.6-.733-2.21-2.262-1.501-3.563 1.647-7.122 3.305-10.681 4.962l-.006.002-.005.003-.006.003-.005.002-.006.003-.005.002-4.409 2.052-.039.018q-10.305 4.793-20.608 9.573c-.943.436-1.457 1.01-.658 2.206v-.004q.075-.022.147-.04zM302.99 164.684q.15-.013.358-.043c-.708 2.718-1.742 4.672-4.461 5.84-5.875 2.524-11.662 5.26-17.447 7.994h-.001q-2.225 1.052-4.451 2.1c-1.205.566-1.527-.122-1.911-.942l-.034-.072-.117-.244c-.371-.759-.708-1.447.506-2.005 5.788-2.662 11.568-5.338 17.349-8.014h.001l.002-.001.001-.001h.001l.002-.001h.001l.001-.001q4.897-2.268 9.795-4.531c.107-.05.232-.062.405-.079M141.136 353.76l-.017-.031-.005-.01c-.296-.528-.534-.955-.77-1.383l-.145-.265c-2.077-3.799-4.154-7.6-9.371-7.604a.4.4 0 0 1-.167-.051.6.6 0 0 0-.126-.048l-.596-.121-.01-.002c-1.133-.23-2.313-.469-3.817-.772 2.522 3.766 4.249 7.33 5.172 11.263.083.356.93.748 1.421.752.962.003 1.924-.095 2.885-.193q.578-.061 1.154-.112l.602-.051.03-.003.202-.017h.008l4.112-.349-.004-.004-.365-.654zm41.422-147.469c1.924 1.521 4.082 2.356 5.365 2.087.745-.156 1.484-.339 2.223-.522.519-.129 1.038-.258 1.559-.377l5.338-1.218.021-.005q3.546-.806 7.092-1.62 1.828-.422 3.654-.852h.001l.001-.001h.004l.001-.001h.002l.002-.001q2.111-.497 4.227-.983c.816-.186 1.247-.495 1.117-1.485-.266-1.995-.476-2.17-2.472-1.643-.45.12-.909.199-1.368.277-.361.062-.722.124-1.079.206l-2.746.636c-5.718 1.324-11.438 2.648-17.149 3.993-1.269.3-2.528.637-3.829.985-.643.171-1.295.346-1.964.52zm-18.207 184.601-.028.044-13.086-3.166-4.371-1.057c.204-.178.369-.327.513-.457.25-.226.433-.391.632-.537l.487-.359.596-.439.004-.002c2.227-1.639 4.455-3.279 6.706-4.887 1.433-1.021 2.285-.839 3.16.673 1.342 2.321 2.663 4.655 3.985 6.989l.004.009.677 1.195.937 1.652-.062.099-.06.095zm187.612 34.122c2.068-.965 3.995-1.862 5.902-2.75l.19-.088 2.006-.934.996-.464 1.669-.778c-.727-.605-1.42-1.191-2.092-1.759-1.53-1.294-2.955-2.498-4.426-3.642-.911-.709-3.612.396-3.727 1.564-.191 1.971-.284 3.949-.386 6.112l-.001.002v.002c-.041.879-.084 1.788-.135 2.739zm8.159-19.495c-.225.065-.479.138-.78.233 1.191-2.283 2.17-4.032 4.409-4.981 3.333-1.416 6.609-2.967 9.886-4.519h.001c1.415-.67 2.831-1.34 4.251-1.999.455-.21.918-.4 1.481-.468q-.262.495-.508.989c-.97 1.925-1.906 3.783-4.304 4.686-3.142 1.181-6.213 2.542-9.285 3.904a376 376 0 0 1-4.171 1.83c-.285.124-.585.21-.98.325m.758-260.299q.102-.13.2-.263l.2-.264q-.178-.089-.364-.17c-.266-.118-.531-.237-.756-.408q-1.186-.897-2.371-1.79l-.002-.001h-.001c-2.854-2.151-5.709-4.302-8.493-6.541-1.041-.837-1.537-.354-2.149.242l-.155.15c-.867.828-.424 1.402.273 2.048a666 666 0 0 1 7.136 6.732q3.026 2.895 6.411.396c.023-.018.038-.049.053-.08a.4.4 0 0 1 .026-.051zm70.219 115.466-.005.002c-2.727 1.297-2.739 1.302-2.315 3.89l.051.313.003.02.009.052v.004c.799 4.848 1.598 9.7 2.423 14.545.153.899.348 1.792.556 2.742v.001q.16.723.324 1.502c1.37-.99 2.205-1.858 1.94-3.556-.561-3.624-1.067-7.255-1.573-10.886-.283-2.032-.566-4.064-.858-6.095-.078-.545-.209-1.081-.351-1.659a46 46 0 0 1-.208-.871zm-72.634 153.677 1.598 1.337.037.031c1.31 1.096 2.572 2.153 3.893 3.256l1.43-2.292.123-.197.063-.102 4.795-7.682-.309-.439-12.66 5.227zM180.48 209.729v.011c-.004 2.656-.008 5.103.038 7.548.004.285.59.84.82.796 1.43-.265 2.839-.634 4.233-1.053.222-.068.432-.579.44-.891.035-1.77.031-3.545-.012-5.315-.008-.324-.194-.8-.444-.934-1.157-.623-2.336-1.204-3.635-1.845l-1.433-.709h-.004q0 1.218-.003 2.376v.011zm127.199-42.43-.052-.069-2.218-2.915-.6 1.401-.001.001c-.49 1.141-.913 2.127-1.316 3.12-.111.27-.186.709-.047.899a176 176 0 0 0 2.774 3.596v.001h.001v.001l.001.001.001.001v.001h.001l.92 1.175q.603-.23 1.207-.456c.88-.333 1.76-.665 2.638-1.005.085-.031.158-.087.303-.197h.001c.094-.072.217-.166.393-.29l-3.928-5.163zm-38.346 265.247-.059.396.468.209.002.001c1.565.703 3.138 1.41 4.967.982 2.058-.48 4.108-1.006 6.157-1.532l.041-.01 1.061-.272c1.845-.475 2.09-.974 1.449-3.021l-4.934 1.138-9.148 2.109zm-135.86-221.923-.213-.027-.34 1.271c-.262.977-.525 1.954-.773 2.934l-.356 1.406c-.762 3.008-1.525 6.019-2.234 9.045-.056.242.101.535.259.829.074.139.148.277.2.41q.21-.095.424-.182h.001c.35-.144.699-.289.989-.511.136-.101.156-.364.175-.617.007-.094.014-.187.027-.27q.194-1.248.39-2.495c.369-2.353.738-4.706 1.083-7.064.156-1.06.277-2.125.399-3.191v-.005l.001-.002v-.003q.085-.75.174-1.5h.008zm293.642 44.531c2.689-.598 3.069-1.232 2.349-3.355q-.364-1.081-.716-2.166l-.001-.003v-.001a165 165 0 0 0-.891-2.681c-.055-.159-.181-.296-.376-.507a11 11 0 0 1-.416-.471c-1.346 2.16-.879 4.142-.415 6.111.24 1.02.48 2.036.466 3.073m-57.624 31.383.012-.005h.001c1.153-.524 2.271-1.032 3.379-1.556 1.082-.514.832-1.358.601-2.136-.046-.156-.092-.31-.126-.457-.035-.151-1.128-.222-1.651-.06-.548.169-1.066.432-1.585.695-.32.162-.641.325-.969.465-2.131.907-2.265 1.315-1.018 3.675v-.004l1.338-.608zm-170.21 55.519c.23.281.448.615.662.942.464.712.91 1.394 1.417 1.446.951.095 1.944-.211 2.934-.517.411-.126.821-.253 1.228-.351-.697-3.215-1.747-3.48-6.245-1.52zm153.961 65.946c2.158.336 4.011-1.727 4.653-4.436q-.554.255-1.079.51h-.001l-.002.001-.002.001c-.76.365-1.491.716-2.251.989-1.54.551-1.706 1.592-1.318 2.939zm-214.06-61.327.014-.009.147-.098.143-.095 4.101 7.095.01.019.085.147-.249.152-.25.153c-1.441-2.38-2.886-4.764-4.332-7.144l.292-.194zm-18.031-159.454v.001l.004.012.66 2.235c1.905-2.146 1.743-2.744-1.116-3.778l.211.714zm223.315-77.582c-1.231 2.412-1.16 2.638.737 2.78-.262-.982-.499-1.881-.737-2.78m43.192 80.618c.134.163.268.311.397.454.257.284.493.544.657.845q3.676 6.672 7.339 13.352 2.526 4.604 5.055 9.204c4.653 8.471 9.31 16.937 13.983 25.396.555.998.277 1.635-.622 2.205a5055 5055 0 0 0-18.382 11.738l-.441.283-.007.005-.001.001c-5.01 3.218-10.023 6.438-14.995 9.714-1.16.764-1.762.685-2.376-.618a6400 6400 0 0 0-13.282-28.005q-5.026-10.55-10.106-21.075c-.645-1.339-.506-2.115.907-3.014 7.678-4.874 15.312-9.819 22.946-14.763q3.786-2.453 7.574-4.902c.259-.167.521-.325.847-.521l.268-.162.239-.145zm-9.221 7.885v.001c-.329.145-.612.27-.869.438q-3.28 2.115-6.557 4.235c-4.539 2.934-9.078 5.869-13.639 8.77-1.109.705-1.136 1.311-.606 2.411 2.697 5.59 5.359 11.199 8.02 16.806l2.72 5.727 2.308 4.853.02.042.02.042q3.984 8.383 7.98 16.764c.847 1.782.962 1.841 2.613.78q5.721-3.677 11.433-7.365l.011-.007q5.41-3.493 10.827-6.975c1.042-.67 1.164-1.339.555-2.448a8185 8185 0 0 1-13.244-24.146l-.003-.005-.003-.005-.003-.005-.002-.005-.003-.005-.003-.005-.018-.033a15858 15858 0 0 0-5.456-9.969 1554 1554 0 0 0-3.857-6.992l-1.735-3.134q-.271.128-.508.23zm27.279 44.755 1.819-.632c1.386-.483 2.662-.927 3.939-1.367 1.98-.685 2.043-.848 1.01-2.737l-4.353-7.961a39469 39469 0 0 1-15.403-28.192 6921 6921 0 0 0-4.361-7.989c-.911-1.663-1.085-1.695-2.728-.637-.399.255-.795.519-1.19.782l-.002.001c-.859.572-1.718 1.144-2.618 1.64-1.291.709-1.457 1.43-.728 2.748 3.752 6.779 7.464 13.583 11.177 20.385q2.117 3.884 4.239 7.763l.404.738.003.006.003.006.003.006.003.005.004.006.003.006.003.006c2.503 4.575 5.004 9.146 7.529 13.707.23.417.531.796.827 1.17q.216.27.417.54m.637 2.083c-.134-.19-.273-.376-.407-.566l-26.208 16.905.174.271.005.008.182.284.157-.101.058-.038.057-.037.058-.037q12.962-8.347 25.924-16.689m-234.48 32.54c-.533-2.349-.535-2.361-2.602-2.242h.008l-2.974.227-.013.001-.017.001c-1.825.139-3.527.268-5.228.405q-3.893.315-7.785.638l-.02.002h-.012l-.003.001c-5.597.462-11.195.924-16.796 1.335-3.508.261-3.655.38-3.017 3.917a5985 5985 0 0 1 5.205 29.309v.001c1.318 7.492 2.637 14.986 3.855 22.494.258 1.596.911 1.826 2.265 1.675 4.396-.487 8.795-.974 13.203-1.342 4.902-.41 9.807-.783 14.712-1.156 3.15-.24 6.299-.48 9.448-.729 1.917-.154 2.146-.487 1.73-2.396-.388-1.781-.798-3.558-1.207-5.335v-.002q-.281-1.215-.559-2.432-.892-3.924-1.78-7.849l-.001-.006-.002-.007c-1.05-4.641-2.101-9.282-3.167-13.918-.751-3.261-1.512-6.52-2.273-9.777l-.001-.003v-.002a2516 2516 0 0 1-2.917-12.584zm9.616 49.38c.024.264.05.548.086.86l-.008-.004-2.019.161c-2.05.163-4.035.32-6.02.485l-3.933.322c-4.345.355-8.69.71-13.031 1.111-1.434.135-1.849-.431-2.075-1.782a1812 1812 0 0 0-2.743-15.861v-.004l-.001-.001v-.001c-.558-3.171-1.116-6.343-1.664-9.516l-.139-.806v-.005l-.001-.002c-1.137-6.599-2.275-13.2-3.325-19.811-.514-3.251-.419-3.271 2.974-3.552q2.782-.229 5.564-.451l.007-.001h.007l.007-.001.007-.001h.008c4.363-.351 8.726-.701 13.084-1.106 1.393-.127 1.916.324 2.217 1.651 1.06 4.702 2.158 9.397 3.256 14.091l.001.004.001.005.001.004.001.004.001.004c.639 2.735 1.279 5.47 1.911 8.207 1.897 8.205 3.774 16.41 5.643 24.619.097.424.137.862.183 1.377m-28.877-.614.003.018.004.02.004.022.488 2.697-.004.004c.146.971-.25 1.426-1.188 1.703-1.695.498-3.369 1.063-5.044 1.628v.001h-.001l-.002.001-1.17.394c-1.466.491-1.79.277-2.064-1.303q-1.538-8.888-3.08-17.777-1.543-8.887-3.081-17.776-.403-2.33-.801-4.659c-.569-3.323-1.137-6.646-1.734-9.965-.214-1.2.095-1.727 1.374-1.794 2.182-.115 4.36-.337 6.534-.566.998-.103 1.588.162 1.763 1.235.693 4.261 1.405 8.518 2.146 12.771.498 2.868 1.009 5.735 1.52 8.602v.002l.001.001v.005l.001.002q.63 3.526 1.25 7.054c.319 1.826.629 3.652.938 5.479l.001.002v.004l.001.002v.002l.001.003v.003q.47 2.79.956 5.577c.385 2.203.784 4.403 1.183 6.603v.003zm29.486 3.605.024.507-15.08 1.222-.009.001-.009.001-.009.001h-.009l-.008.001-.009.001-.008.001h-.009l-.009.001-.008.001-15.064 1.221c2.998-1.529 28.971-3.794 30.207-2.958m107.413-87.569c.231.264.469.536.596.853 1.281 3.177 2.532 6.368 3.782 9.556l.808 2.058 5.043 12.855q2.516 6.418 5.035 12.834l.326.83c1.737 4.42 3.471 8.835 5.238 13.244.459 1.14.107 1.766-1.002 2.146a4216 4216 0 0 0-14.161 4.875l-7.844 2.72-.012.004a8518 8518 0 0 1-13.96 4.836l-2.476.855-.006.002-.004.002h-.002a1099 1099 0 0 1-12.263 4.186c-2.578.855-2.597.792-3.391-1.791l-.01-.035q-1.657-5.387-3.318-10.773a8568 8568 0 0 1-4.951-16.092c-1.15-3.756-2.293-7.516-3.437-11.275v-.002l-.003-.01-.003-.009-.003-.01-.003-.009c-1.415-4.652-2.829-9.303-4.257-13.949-.265-.863.167-1.011.762-1.214l.109-.038a4014 4014 0 0 0 17.682-6.122q3.775-1.317 7.55-2.639l.002-.001.002-.001.002-.001h.003l.002-.001c4.145-1.451 8.291-2.903 12.441-4.338 2.32-.802 4.65-1.58 6.979-2.358q1.82-.607 3.637-1.218c.13-.045.258-.101.453-.186l.351-.151v.004c.092.121.196.241.303.363m-1.166 1.649c-.687.231-1.349.452-1.995.667-1.39.464-2.702.902-4.008 1.356q-4.696 1.63-9.39 3.268l-.022.008q-5.016 1.749-10.036 3.492a5176 5176 0 0 1-20.212 6.97c-.895.304-1.267.685-.938 1.71.667 2.067 1.289 4.149 1.912 6.231l.002.006q.516 1.733 1.044 3.461 2.775 9.08 5.559 18.154l.002.007.002.007.002.008.003.007 2.019 6.587 1.201 3.913.012.038a2302 2302 0 0 1 3.258 10.665c.289.955.677 1.442 1.774 1.05 3.909-1.394 7.833-2.752 11.753-4.107q5.418-1.87 10.836-3.735l.013-.004.013-.005.014-.005.013-.004.013-.005q5.452-1.875 10.902-3.758 2.586-.894 5.168-1.795c3.188-1.11 6.375-2.22 9.571-3.305 1.275-.432 1.505-.994.974-2.289-2.4-5.879-4.71-11.797-7.02-17.713l-.001-.002-.328-.842q-2.503-6.422-4.996-12.847c-2.097-5.4-4.193-10.8-6.302-16.195-.11-.28-.341-.51-.553-.722h-.001a5 5 0 0 1-.258-.272M393.262 368.48l-.587 8.139v.004h.032q-.015.265-.037.532v.002c-.031.395-.062.79-.035 1.18.028.432.119 1.137.353 1.216.408.139 1.033.028 1.418-.218 7.468-4.803 14.925-9.63 22.358-14.489.471-.309.95-.864 1.081-1.39.606-2.473 1.154-4.958 1.703-7.443l.004-.02.471-2.124q.946-4.25 1.896-8.5c1.102-4.937 2.205-9.874 3.299-14.813.99-4.471 1.965-8.942 2.907-13.42.087-.4.008-1.066-.249-1.244-.286-.198-.959-.123-1.295.091a1303 1303 0 0 0-13.472 8.688c-1.849 1.21-3.692 2.429-5.535 3.649l-.003.001-.002.002-.002.001-.002.002c-3.518 2.327-7.037 4.655-10.597 6.915-1.188.752-1.584 1.58-1.644 2.887-.178 3.793-.439 7.587-.705 11.381-.443 6.323-.9 12.647-1.357 18.971m24.257-10.798-1.052 4.708v.004c-.742-.603-1.461-1.182-2.162-1.747l-.004-.003c-1.959-1.579-3.771-3.039-5.521-4.57-.419-.372-.59-1.334-.479-1.952.479-2.661 1.077-5.298 1.675-7.932 1.45-6.387 2.903-12.779 4.412-19.154.158-.658.546-1.438 1.073-1.794 2.654-1.8 5.353-3.53 8.054-5.261l.023-.014 1.716-1.101c.123-.08.279-.113.511-.162.133-.028.291-.061.483-.111-2.879 12.897-5.723 25.631-8.618 38.591zm-19.244 2.794c-.884.575-1.791 1.165-2.733 1.772h-.008a28 28 0 0 0-.059-.764c-.033-.386-.058-.668-.04-.947l.193-2.877v-.002c.429-6.418.858-12.835 1.348-19.249.051-.677.471-1.568 1.009-1.929 3.811-2.542 7.668-5.012 11.524-7.482l.568-.364.703-.45.673-.432c.128-.083.285-.121.528-.18h.001c.14-.035.309-.076.517-.136l-.077.427-.057.329-.07.404c-.134.775-.256 1.482-.414 2.182-.502 2.204-1.015 4.405-1.529 6.607l-.002.008v.002c-1.209 5.18-2.418 10.36-3.47 15.571-.381 1.897-1.279 2.879-2.76 3.781-1.929 1.181-3.825 2.415-5.84 3.726zm15.329 1.617q.978.802 1.996 1.632l-5.27 3.405c-5.277 3.41-10.462 6.76-15.73 10.162l-.032-.097-.016-.045-.016-.047-.046-.124-.028-.074v-.001c-.076-.199-.131-.343-.124-.483q.07-1.152.133-2.306c.154-2.714.307-5.428.588-8.129.087-.839.689-1.877 1.382-2.36 3.105-2.166 6.308-4.186 9.524-6.189.431-.27 1.319-.404 1.647-.151 1.993 1.53 3.938 3.124 5.992 4.807m-189.965 70.156c-2.285.831-4.178-.277-6.19-1.857-7.675-6.03-15.392-12.005-23.11-17.981l-.011-.007-.004-.004a7005 7005 0 0 1-12.558-9.736c-.26-.203-.413-.547-.565-.89a6 6 0 0 0-.223-.465c.136-.062.272-.139.408-.216.292-.165.585-.331.89-.358 5.796-.517 11.592-1.022 17.388-1.527l.044-.004c5.285-.461 10.571-.922 15.856-1.391 1.109-.099 1.933.122 2.764.974a8409 8409 0 0 0 16.964 17.35l.003.004.004.004.004.003.004.005.005.005.005.005q6.005 6.128 12.002 12.264c.241.249.374.602.507.954a9 9 0 0 0 .148.373l.02.046.03.065a4 4 0 0 0-.204.1q-.114.06-.228.124c-.306.17-.611.339-.926.366-6.151.498-12.305.971-18.616 1.455l-.03.002zm-24.044-17.744.161.125.777.602 19.676 15.255c.426-1.047.825-2.064 1.215-3.056l.001-.004.001-.002.001-.001c.893-2.274 1.736-4.419 2.722-6.497.733-1.54.507-2.4-.799-3.394-3.003-2.293-5.99-4.606-8.977-6.919l-.002-.001a1333 1333 0 0 0-11.388-8.753c-.823-.626-2.079-1.026-3.108-.978-3.696.181-7.386.492-11.076.802l-2.475.207c-.413.034-.822.128-1.362.253-.295.068-.628.146-1.022.227h.004l14.767 11.449zm4.659-14c.189.217.33.391.445.532.193.236.312.383.458.494a8504 8504 0 0 0 19.986 15.436l.071.054c.391.3.862.662 1.28.647 1.73-.059 3.455-.185 5.342-.322h.001l.002-.001q.95-.07 1.965-.14c-.176-.23-.322-.429-.452-.606l-.002-.003-.002-.003c-.25-.341-.438-.598-.657-.822-1.352-1.39-2.716-2.771-4.079-4.151h-.001v-.001c-3.02-3.056-6.039-6.113-8.936-9.28-1.992-2.178-3.968-3.513-6.982-2.562-.388.121-.811.127-1.234.132a9 9 0 0 0-.631.022c-1.763.149-3.523.303-5.516.478l-.035.003-.021.002-.007.001-.991.087zm40.725 28.433q.06-.233.115-.459l-1.973-2.037c-2.302-2.378-4.603-4.755-6.937-7.099-.317-.317-.935-.491-1.406-.479-1.187.034-2.373.105-3.56.176-.995.059-1.991.119-2.986.157-1.322.051-2.039.72-2.506 1.92a203 203 0 0 1-1.819 4.456l-.001.002-.001.002-.001.002v.001l-.001.002c-.461 1.105-.923 2.21-1.369 3.321-.143.355-.216.739-.303 1.186-.043.225-.089.465-.149.726l22.893-1.877zm-26.155-288.431-.001.001v-.004zm.04.62-.04-.62c.062-.065.134-.163.216-.275.225-.307.528-.72.928-.865 3.842-1.402 7.709-2.736 11.578-4.07l1.803-.623c1.009-.348 1.734-.118 2.324.907a13319 13319 0 0 0 18.714 32.366l.008.014 1.577 2.722c.982 1.695.899 2.075-.931 2.712A3657 3657 0 0 1 241.754 178h-.001q-4.487 1.547-8.971 3.102a512 512 0 0 0-8.066 2.871c-1.054.384-1.588.091-1.691-1.046l-.322-3.512-.001-.006c-.424-4.634-.848-9.268-1.313-13.898-.551-5.476-1.126-10.949-1.701-16.424q-.403-3.826-.801-7.653a6 6 0 0 1-.023-.307m21.98 35.508-13.752 4.76v-.004l-.239-2.234-.002-.015-.001-.007v-.004c-.216-2.016-.422-3.937-.614-5.858q-.325-3.264-.644-6.53c-.477-4.871-.954-9.743-1.482-14.609-.166-1.536.115-2.344 1.75-2.835 2.876-.867 5.705-1.901 8.531-2.934h.001l1.63-.595c1.061-.384 1.639-.19 2.245.86a3041 3041 0 0 0 10.307 17.741q2.093 3.583 4.182 7.167c.085.145.145.303.222.507q.057.152.135.345zm-19.45-34.021q-.315-.858-.65-1.753h-.004q.95-.35 1.877-.695l.007-.002.001-.001c1.352-.501 2.674-.992 4.003-1.464.79-.28 1.585-.545 2.379-.81a86 86 0 0 0 3.522-1.23c.926-.356 1.489-.221 1.841.709q.296.773.599 1.544c.5 1.274 1.001 2.55 1.413 3.854.119.368-.305 1.243-.669 1.378a266 266 0 0 1-10.894 3.813c-.432.143-1.406-.249-1.58-.637-.667-1.507-1.238-3.058-1.844-4.705zm.275 5.786.394-.052c.888 6.689 1.505 13.409 2.122 20.129v.001c.396 4.308.792 8.616 1.259 12.917.019.187-.068.387-.156.585q-.062.137-.109.27l-.334-.18-.114-.061-.101-.055-.12-.064-1.535-15.866-1.701-17.573zm84.732.935a19 19 0 0 1-.576-.443q-18.023-14.418-36.044-28.829c-1.386-1.109-1.398-1.342.075-2.328l.305-.204c2.789-1.865 5.58-3.731 8.411-5.523.396-.253 1.16-.261 1.604-.055 8.89 4.093 17.769 8.209 26.648 12.325l.009.004q5.762 2.672 11.525 5.341c1.381.638 2.767 1.267 4.153 1.895 1.69.766 3.38 1.532 5.062 2.318.424.198 1.053.653 1.03.946-.036.452-.464 1.002-.879 1.279-2.573 1.701-5.167 3.368-7.76 5.035l-.001.001-.005.003-2.036 1.309c-3.54 2.281-7.076 4.558-10.62 6.835-.113.074-.241.121-.395.178h-.001a7 7 0 0 0-.258.1q-.12-.093-.247-.186m-26.802-33.44-.001.003c-.416 2.327-.802 4.477-1.105 6.639-.052.36.522.982.95 1.208 1.118.592 2.275 1.115 3.43 1.637h.001l1.076.489 5.148 2.365c8.9 4.089 17.802 8.179 26.73 12.216.609.277 1.639.19 2.229-.15 2.004-1.155 3.941-2.424 5.876-3.691l.615-.402.348-.228c.252-.164.462-.394.71-.667.129-.142.269-.296.431-.457l-20.756-9.524-.05-.023c-8.379-3.846-16.761-7.692-25.245-11.584v-.004q-.197 1.115-.387 2.173m1.068 10.596.211-.291a121087 121087 0 0 0 34.542 15.844l-2.277 1.483-.022.014c-1.212.79-2.359 1.537-3.507 2.281-.385.249-.713.47-.998.66-.963.645-1.423.953-1.856.92-.395-.031-.769-.345-1.483-.946-.28-.236-.613-.516-1.02-.84a7409 7409 0 0 1-13.504-10.778l-.013-.01q-4.683-3.745-9.368-7.483c-.196-.157-.419-.28-.642-.403a9 9 0 0 1-.277-.156zm-2.554-11.605-.155-.095-.325-.202-.006.004-.002.002c-2.132 1.38-4.264 2.761-6.676 4.319q.612.487 1.184.947l.001.001c1.299 1.041 2.475 1.984 3.686 2.877.166.123.966-.194 1.006-.396.385-1.989.716-3.991 1.047-5.992l.244-1.465zm-129.748 83.522q.255-.028.509-.049v-.023l4.784-.369c5.359-.415 10.719-.829 16.081-1.219.979-.072 1.291-.602 1.513-1.454a7869 7869 0 0 1 5.653-21.602l1.459-5.559 1.967-7.479q1.401-5.314 2.793-10.63c.448-1.711.163-2.048-1.627-1.901l-1.567.126c-2.537.201-5.075.403-7.597.725-.681.087-1.548.697-1.873 1.307-5.612 10.522-11.174 21.071-16.737 31.621l-2.706 5.132-1.248 2.361a664 664 0 0 0-3.817 7.293c-.214.412-.361 1.101-.155 1.414.194.301.882.34 1.361.368h.002c.4.022.803-.02 1.205-.062m-.233-1.669a8 8 0 0 0-.402-.11l.004-.004c4.438-8.408 8.85-16.764 13.274-25.141l10.787-20.427q.89.76 1.752 1.492c1.903 1.617 3.714 3.156 5.475 4.749.285.261.229 1.038.146 1.544-1.35 8.186-5.148 15.385-9.088 22.537-1.203 2.184-2.358 4.393-3.514 6.602-1.106 2.113-2.211 4.225-3.357 6.315-.352.638-1.156 1.363-1.813 1.434-3.402.36-6.816.617-10.228.873l-2.694.204c-.088.007-.18-.02-.342-.068m17.587-1.497c-.367.006-.765.013-1.207.013 1.882-3.572 3.714-7.045 5.524-10.478l3.739-7.089.404.151q-.154.632-.303 1.265c-.214.904-.429 1.808-.664 2.706a469 469 0 0 1-.991 3.701c-.681 2.519-1.362 5.037-1.963 7.574-.356 1.508-.978 2.316-2.605 2.182-.602-.048-1.21-.037-1.934-.025m11.999-45.104 3.905-.312-.739 2.578-.995 3.472-2.976-2.533-2.782-2.369.03-.258.033-.296z"/>
</svg>
